<svg xmlns="http://www.w3.org/2000/svg" xmlns:xlink="http://www.w3.org/1999/xlink" width="128" height="128"><path fill="#ffffff" d="M82 70L87 70L87 65L92 65L92 61L87 61L87 56L82 56L82 61L77 61L77 65L82 65L82 70ZM105 61L105 56L101 56L101 61L95 61L95 65L101 65L101 70L105 70L105 65L110 65L110 61L105 61ZM116.50 32.25L116.50 32.25Q116 31.50 115.44 30.81Q114.88 30.13 114.25 29.75L114.25 29.75L66.13 1.88Q65.50 1.50 64.69 1.38Q63.88 1.25 63 1.25L63 1.25Q62.13 1.25 61.31 1.44Q60.50 1.63 59.88 1.88L59.88 1.88L11.38 29.75Q10.13 30.50 9.06 32.06Q8 33.63 8 35.13L8 35.13L8 90.75Q8 91.63 8.44 92.50Q8.88 93.38 9.38 94.25L9.38 94.25L9.50 94.25Q9.88 94.88 10.44 95.38Q11 95.88 11.50 96.25L11.50 96.25L59.75 124.13Q60.38 124.50 61.25 124.63Q62.13 124.75 63 124.75L63 124.75Q63.88 124.75 64.69 124.56Q65.50 124.38 66.13 124.13L66.13 124.13L113.63 96.25Q114.88 95.50 115.44 93.88Q116 92.25 116 90.75L116 90.75L116 35.13Q116 34.50 116.13 33.81Q116.25 33.13 116 32.50L116 32.50L116.50 32.25ZM112.25 34.38L112.25 34.38Q112.25 34.63 112.13 34.81Q112 35 112 35.13L112 35.13L112 90.75Q112 91.38 111.88 92Q111.75 92.63 111.63 92.75L111.63 92.75L64 120.63Q63.88 120.63 63.63 120.69Q63.38 120.75 62.88 120.75L62.88 120.75Q62.50 120.75 62.19 120.69Q61.88 120.63 61.75 120.63L61.75 120.63L13.63 92.75Q13.63 92.75 13.56 92.75Q13.50 92.75 13.38 92.75L13.38 92.75L12.75 92.13Q12.50 91.63 12.63 91.31Q12.75 91 12 90.88L12 90.88L12 35.25Q12.75 34.88 12.88 34.19Q13 33.50 13.38 33.25L13.38 33.25L61.75 5.38Q61.75 5.38 62.13 5.31Q62.50 5.25 62.88 5.25L62.88 5.25Q63.38 5.25 63.63 5.31Q63.88 5.38 64 5.38L64 5.38L112 33.13L112.38 34Q112.50 34.13 112.38 34.25Q112.25 34.38 112.25 34.38L112.25 34.38ZM63 87.50L63 87.50Q58 87.50 53.50 85.63L53.50 85.63Q49 83.63 45.69 80.31Q42.38 77 40.38 72.50L40.38 72.50Q38.50 68.13 38.50 63L38.50 63Q38.50 58 40.38 53.50L40.38 53.50Q42.38 49 45.69 45.69Q49 42.38 53.50 40.38L53.50 40.38Q57.88 38.50 63 38.50L63 38.50Q69.88 38.50 75.50 41.94Q81.13 45.38 84.25 51L84.25 51L97.25 43.50Q94.75 39 91.13 35.38L91.13 35.38Q87.50 31.63 83.13 29Q78.75 26.38 73.63 25L73.63 25Q68.50 23.50 63 23.50L63 23.50Q54.88 23.50 47.63 26.63L47.63 26.63Q40.50 29.75 35.13 35.06Q29.75 40.38 26.63 47.63L26.63 47.63Q23.50 54.88 23.50 63L23.50 63Q23.50 71.13 26.63 78.38L26.63 78.38Q29.75 85.50 35.06 90.88Q40.38 96.25 47.63 99.38L47.63 99.38Q54.88 102.50 63 102.50L63 102.50Q68.50 102.50 73.50 101.13L73.50 101.13Q78.63 99.63 83 97Q87.38 94.38 91 90.75L91 90.75Q94.63 87.13 97.25 82.75L97.25 82.75L84.25 75.13Q81.13 80.63 75.50 84.06Q69.88 87.50 63 87.50L63 87.50Z"/></svg>