<svg xmlns="http://www.w3.org/2000/svg" xmlns:xlink="http://www.w3.org/1999/xlink" width="128" height="128"><path fill="#ffffff" d="M117.50 33.50L117.50 33.50L117.75 33.25Q117.38 32.50 116.75 31.81Q116.13 31.13 115.38 30.75L115.38 30.75L67.13 2.88Q66.50 2.50 65.69 2.38Q64.88 2.25 64 2.25L64 2.25Q63.13 2.25 62.31 2.44Q61.50 2.63 60.88 2.88L60.88 2.88L12.88 30.75Q11.63 31.50 10.81 33.13Q10 34.75 10 36.25L10 36.25L10 91.88Q10 92.75 10.19 93.63Q10.38 94.50 10.88 95.25L10.88 95.25L10.75 95.38Q11.13 96 11.63 96.50Q12.13 97 12.63 97.25L12.63 97.25L60.75 125.25Q61.38 125.63 62.19 125.75Q63 125.88 63.88 125.88L63.88 125.88Q64.75 125.88 65.56 125.69Q66.38 125.50 67 125.25L67 125.25L115 97.25Q116.25 96.50 117.06 94.94Q117.88 93.38 117.88 91.88L117.88 91.88L117.88 36.13Q118 35.50 117.88 34.81Q117.75 34.13 117.50 33.50ZM87 66L82 66L82 62L87 62L87 57L92 57L92 62L97 62L97 66L92 66L92 71L87 71L87 66ZM85.25 52L85.25 52Q82.13 46.38 76.50 42.94Q70.88 39.50 64 39.50L64 39.50Q59 39.50 54.50 41.38L54.50 41.38Q50 43.38 46.69 46.69Q43.38 50 41.38 54.50L41.38 54.50Q39.50 58.88 39.50 64L39.50 64Q39.50 69 41.38 73.50L41.38 73.50Q43.38 78 46.69 81.31Q50 84.63 54.50 86.63L54.50 86.63Q58.88 88.50 64 88.50L64 88.50Q70.88 88.50 76.50 85.06Q82.13 81.63 85.25 76.13L85.25 76.13L98.25 83.75Q95.63 88.13 92 91.75L92 91.75Q88.38 95.38 84 98Q79.63 100.63 74.50 102.13L74.50 102.13Q69.50 103.50 64 103.50L64 103.50Q55.88 103.50 48.63 100.38L48.63 100.38Q41.50 97.25 36.13 91.88Q30.75 86.50 27.63 79.38L27.63 79.38Q24.50 72.13 24.50 64L24.50 64Q24.50 55.88 27.63 48.63L27.63 48.63Q30.75 41.38 36.06 36.06Q41.38 30.75 48.63 27.63L48.63 27.63Q55.88 24.50 64 24.50L64 24.50Q69.50 24.50 74.63 26L74.63 26Q79.75 27.38 84.13 30Q88.50 32.63 92.13 36.38L92.13 36.38Q95.75 40 98.25 44.50L98.25 44.50L85.25 52ZM115 62L115 66L110 66L110 71L106 71L106 66L100 66L100 62L106 62L106 57L110 57L110 62L115 62Z"/></svg>