<svg xmlns="http://www.w3.org/2000/svg" xmlns:xlink="http://www.w3.org/1999/xlink" width="128" height="128"><path fill="#000000" d="M76.75 69L76.75 69Q77.38 68.50 77.88 68.06Q78.38 67.63 78.75 67.25L78.75 67.25Q77.50 67.50 76.25 67.56Q75 67.63 73.75 67.50L73.75 67.50Q72.13 67.50 73.44 68.06Q74.75 68.63 76.75 69L76.75 69ZM84.75 64.75L84.75 64.75Q85.63 63.50 86.25 62.13Q86.88 60.75 87.13 59.38L87.13 59.38Q86.88 60.38 86.44 61.25Q86 62.13 85.38 63.13L85.38 63.13Q82.50 64.88 83.81 63.06Q85.13 61.25 85.38 60.25L85.38 60.25Q82.38 64.13 83.63 63.88Q84.88 63.63 84.75 64.75L84.75 64.75ZM88.75 54.25L88.75 54.25Q89 51.38 88.50 51.69Q88 52 87.75 53.13L87.75 53.13Q88 53.25 88.25 54.25Q88.50 55.25 88.75 54.25ZM65.88 3.75L65.88 3.75Q66.75 3.88 67.50 4Q68.25 4.13 68.13 4.38L68.13 4.38Q69 4.13 68.81 3.94Q68.63 3.75 65.88 3.75ZM67.38 4.50L68.13 4.38L68.13 4.38L67.38 4.50ZM65.25 80.75L65.25 80.75Q63 79.75 61 78.19Q59 76.63 57.38 74.75L57.38 74.75Q58.25 76 59.25 77.25Q60.25 78.50 61.50 79.38L61.50 79.38Q59.38 78.75 57.06 75.69Q54.75 72.63 53.88 72.50L53.88 72.50Q57.50 78.88 66.38 82.81Q75.25 86.75 81 84.25L81 84.25Q78.38 84.38 75.19 84.19Q72 84 69 82.88L69 82.88Q67.88 82.25 66.63 81.31Q65.38 80.38 65.38 80L65.38 80Q65.38 80.13 65.31 80.31Q65.25 80.50 65.25 80.75ZM109.50 46.38L109.50 46.38Q109.50 44.88 109.75 45.06Q110 45.25 110.25 44.88L110.25 44.88Q109.88 44.75 109.31 43.63Q108.75 42.50 108.25 40.50L108.25 40.50Q108.63 40 109.06 41.06Q109.50 42.13 110 42.25L110 42.25Q109.75 40.63 109.38 39.31Q109 38 109 36.63L109 36.63Q107.63 34 107.81 35.31Q108 36.63 107 35.13L107 35.13Q105.63 30.88 107.06 32.06Q108.50 33.25 108.63 31.25L108.63 31.25Q110.75 34.25 111.94 38.13Q113.13 42 113.75 44L113.75 44Q113.25 41.63 112.63 39.38Q112 37.13 111.25 34.88L111.25 34.88Q111.88 35.25 111.19 32.44Q110.50 29.63 112.25 33L112.25 33Q110.38 25.88 104.81 19.69Q99.25 13.50 93.38 10.38L93.38 10.38Q94.13 11 94.75 11.69Q95.38 12.38 95.13 12.50L95.13 12.50Q92.25 10.75 92 10.25Q91.75 9.75 91.38 9L91.38 9Q89 8.13 88.25 8.63Q87.50 9.13 85.88 9.13L85.88 9.13Q81.38 6.75 79.38 6.25Q77.38 5.75 73.25 4.25L73.25 4.25L73.50 5.38Q70.50 4.38 69.19 5.06Q67.88 5.75 64.63 5.38L64.63 5.38Q64.50 5.25 65.44 4.94Q66.38 4.63 67.38 4.50L67.38 4.50Q64.50 4.88 63.63 4.44Q62.75 4 60 4.63L60 4.63Q60.63 4.13 61.38 3.75Q62.13 3.38 62.88 3L62.88 3Q60.50 3.13 58.13 3.81Q55.75 4.50 56.75 3.38L56.75 3.38Q52.88 5 47.13 7.50Q41.38 10 37.50 13.50L37.50 13.50L37.38 12.50Q35.63 14.63 31.38 18.19Q27.13 21.75 26.63 24.38L26.63 24.38L26 24.63Q25.13 26.13 24.44 27.81Q23.75 29.50 23.13 31L23.13 31Q21.88 33 21.38 32.56Q20.88 32.13 21 32.50L21 32.50Q18.63 37.25 17.31 41.19Q16 45.13 15 48.38L15 48.38Q15.75 49.50 15.44 53.94Q15.13 58.38 15.38 62.75L15.38 62.75Q14.75 73.25 18.13 83.38L18.13 83.38Q21.50 93.50 27.56 101.88Q33.63 110.25 41.75 116.25L41.75 116.25Q49.75 122.25 58.50 124.63L58.50 124.63Q61 125.50 64.56 125.63Q68.13 125.75 71.38 125.88L71.38 125.88Q67.50 124.75 65.94 124.69Q64.38 124.63 60.63 123.38L60.63 123.38Q57.88 122.13 56.75 120.69Q55.63 119.25 53.63 117.50L53.63 117.50L54.63 119.38Q51 118 50.88 117.44Q50.75 116.88 47.75 115.88L47.75 115.88L48.75 114.50Q47.63 114.38 46 112.88Q44.38 111.38 43.75 110.25L43.75 110.25L42 110.38Q40.50 108.38 39.63 106.94Q38.75 105.50 38.88 104.38L38.88 104.38L38.25 105.38Q37.75 104.63 34.56 100.38Q31.38 96.13 34.25 97.63L34.25 97.63Q33.63 97.13 33 96.63Q32.38 96.13 31.63 94.75L31.63 94.75L32.38 93.88Q31 92.25 30.06 90.31Q29.13 88.38 29.13 87.75L29.13 87.75Q29.88 88.63 30.44 88.94Q31 89.25 31.50 89.50L31.50 89.50Q28.13 81 27 83.56Q25.88 86.13 23.25 78L23.25 78L24 78Q23.63 77.38 23.31 76.69Q23 76 22.63 75.38L22.63 75.38L23 72.25Q20.50 69.38 21.31 61.94Q22.13 54.50 22.50 49.50L22.50 49.50Q22.75 47.50 24.25 45.13Q25.75 42.75 27 39.38L27 39.38L26 39.13Q27.50 36.38 33.31 30.44Q39.13 24.50 42.63 24.88L42.63 24.88Q44.38 22.75 43.25 23.75Q42.13 24.75 41.75 24.13L41.75 24.13Q45.50 20.38 47.25 20.38Q49 20.38 51.50 19.63L51.50 19.63Q54.25 18.13 51.56 19.13Q48.88 20.13 50.13 18.88L50.13 18.88Q54.75 17.75 55.63 16.44Q56.50 15.13 62.63 14.50L62.63 14.50Q63.25 14.88 61.88 15.13Q60.50 15.38 59.88 15.88L59.88 15.88Q63.75 14 70.88 14.38Q78 14.75 83.38 17.25L83.38 17.25Q89.75 20.25 95.56 27.88Q101.38 35.50 101.63 43.75L101.63 43.75L102 43.75Q101.88 47.13 102.13 50.75Q102.38 54.38 101.25 57.75L101.25 57.75L102.25 55.63Q102.38 58.13 101.69 59.69Q101 61.25 100.25 63.38L100.25 63.38L98.50 64.25Q97.38 66.38 97.88 66.50Q98.38 66.63 97.63 68.25L97.63 68.25Q95.88 69.75 93.13 72.19Q90.38 74.63 89.25 75L89.25 75Q88.50 75 89.25 74.31Q90 73.63 90.25 73.25L90.25 73.25Q88 74.75 87.31 75.69Q86.63 76.63 83.13 77.63L83.13 77.63L83 77.25Q78.75 79.38 74 78.50L74 78.50Q69.13 77.75 65.13 74.88Q61.13 72 58.50 67.50L58.50 67.50Q55.88 62.88 55.88 57.50L55.88 57.50Q55.88 58.13 55.69 58.19Q55.50 58.25 55.38 58.50L55.38 58.50Q54.88 52.88 57.69 47.81Q60.50 42.75 65.63 40.50L65.63 40.50Q70.63 38 75.94 38.81Q81.25 39.63 84.88 43L84.88 43Q82.88 40.38 79.19 38.19Q75.50 36 70.88 36.25L70.88 36.25Q66.25 36.25 62.44 38.75Q58.63 41.25 57.25 44.38L57.25 44.38Q54.88 45.88 54.13 49Q53.38 52.13 52.38 53L52.38 53Q51 63 54.50 68.44Q58 73.88 64.63 78.88L64.63 78.88Q65.25 79.25 65.38 79.50Q65.50 79.75 65.38 79.88L65.38 79.88L65.38 79.88Q73.25 82.88 81.13 81.94Q89 81 95.75 75.63L95.75 75.63Q97.50 74.25 99.13 72.50Q100.75 70.75 101.38 70.75L101.38 70.75Q100.50 72 100.94 71.94Q101.38 71.88 100.75 73L100.75 73Q102.38 70.13 101.44 70.19Q100.50 70.25 103.13 66.63L103.13 66.63L104.38 68.25Q104 66 106 63.13Q108 60.25 107.75 56.63L107.75 56.63Q108.50 55.50 108.50 57.25Q108.50 59 107.75 61.63L107.75 61.63Q108.88 58.75 108.56 57.56Q108.25 56.38 108.50 54.13L108.50 54.13Q108.88 54.88 109.19 55.69Q109.50 56.50 109.75 57.38L109.75 57.38Q109 54.63 109.88 52.63Q110.75 50.63 111.13 49L111.13 49Q110.75 48.88 110.19 49.25Q109.63 49.63 109.50 46.38L109.50 46.38ZM51.38 70.38L51 71.75Q52 73.13 52.94 74.50Q53.88 75.88 55.13 77L55.13 77Q54.25 75.25 53.44 74Q52.63 72.75 51.38 70.38L51.38 70.38ZM55.13 72L54.50 70.25Q54 69.63 53.63 68.94Q53.25 68.25 52.88 67.50L52.88 67.50Q53.25 68.75 53.88 69.88Q54.50 71 55.13 72L55.13 72ZM107 70.13L107 70.13Q108.50 67.25 109.50 64.19Q110.50 61.13 110.88 58L110.88 58L110.63 58.75Q110.13 61.63 109.25 64.50Q108.38 67.38 107 70.13ZM71.25 2.13L71.25 2.13Q69.75 2.25 68.31 2.38Q66.88 2.50 65.50 2.63L65.50 2.63L66.38 2.75Q67.38 2.38 68.75 2.38Q70.13 2.38 71.25 2.13ZM18.25 30.75L18.25 30.75Q19.25 28.38 18.50 28.88Q17.75 29.38 17.63 28.75L17.63 28.75Q17.88 30.88 17 31.56Q16.13 32.25 18.25 30.75ZM15.38 38L15.38 38Q14 39.75 14.25 40.44Q14.50 41.13 14.38 42.25L14.38 42.25Q14.88 40.88 15.06 39.88Q15.25 38.88 15.38 38Z"/></svg>