<svg xmlns="http://www.w3.org/2000/svg" xmlns:xlink="http://www.w3.org/1999/xlink" width="128" height="128"><path fill="#000000" d="M71.50 44L71.50 44Q71.75 43.75 72.06 43.44Q72.38 43.13 72.75 42.88L72.75 42.88Q71.88 43.13 71.13 43.13Q70.38 43.13 69.50 43L69.50 43Q68.63 43 69.38 43.38Q70.13 43.75 71.50 44ZM76.38 41.38L76.38 41.38Q77 40.50 77.38 39.69Q77.75 38.88 77.88 37.88L77.88 37.88Q77.75 38.63 77.44 39.19Q77.13 39.75 76.88 40.25L76.88 40.25Q75 41.38 75.81 40.25Q76.63 39.13 76.88 38.50L76.88 38.50Q74.88 40.88 75.69 40.75Q76.50 40.63 76.38 41.38ZM79 34.75L79 34.75Q79 33 78.69 33.19Q78.38 33.38 78.25 34L78.25 34Q78.50 34.13 78.63 34.75Q78.75 35.38 79 34.75ZM64.63 3.25L64.63 3.25Q65.13 3.25 65.63 3.38Q66.13 3.50 66 3.63L66 3.63Q66.63 3.50 66.50 3.38Q66.38 3.25 64.63 3.25ZM65.50 3.63L66 3.63L66 3.63L65.50 3.63ZM64.25 51.25L64.25 51.25Q62.88 50.63 61.63 49.69Q60.38 48.75 59.38 47.50L59.38 47.50Q59.88 48.38 60.50 49.13Q61.13 49.88 61.88 50.50L61.88 50.50Q60.63 50 59.13 48.13Q57.63 46.25 57.13 46.13L57.13 46.13Q59.38 50.13 64.94 52.56Q70.50 55 74.13 53.50L74.13 53.50Q72.50 53.63 70.50 53.50Q68.50 53.38 66.63 52.63L66.63 52.63Q65.88 52.25 65.13 51.69Q64.38 51.13 64.38 50.88L64.38 50.88Q64.25 51 64.25 51.06Q64.25 51.13 64.25 51.25ZM91.88 29.88L91.88 29.88Q91.88 29 92.06 29.06Q92.25 29.13 92.38 28.88L92.38 28.88Q92.13 28.88 91.75 28.19Q91.38 27.50 91.13 26.13L91.13 26.13Q91.38 25.88 91.63 26.56Q91.88 27.25 92.25 27.25L92.25 27.25Q92 26.25 91.75 25.44Q91.50 24.63 91.50 23.75L91.50 23.75Q90.75 22.13 90.88 22.94Q91 23.75 90.25 22.88L90.25 22.88Q89.50 20.13 90.38 20.88Q91.25 21.63 91.38 20.38L91.38 20.38Q92.63 22.25 93.38 24.69Q94.13 27.13 94.50 28.38L94.50 28.38Q94.25 26.88 93.88 25.44Q93.50 24 93 22.63L93 22.63Q93.38 22.88 92.94 21.13Q92.50 19.38 93.63 21.50L93.63 21.50Q92.38 17 88.94 13.19Q85.50 9.38 81.88 7.38L81.88 7.38Q82.25 7.75 82.69 8.19Q83.13 8.63 82.88 8.75L82.88 8.75Q81.13 7.63 80.94 7.31Q80.75 7 80.50 6.50L80.50 6.50Q79.13 5.88 78.63 6.25Q78.13 6.63 77.13 6.50L77.13 6.50Q74.38 5 73.13 4.75Q71.88 4.50 69.25 3.50L69.25 3.50L69.38 4.25Q67.50 3.63 66.69 4.06Q65.88 4.50 63.88 4.25L63.88 4.25Q63.75 4.13 64.31 3.94Q64.88 3.75 65.50 3.63L65.50 3.63Q63.75 3.88 63.25 3.63Q62.75 3.38 61 3.75L61 3.75Q61.38 3.50 61.81 3.25Q62.25 3 62.75 2.75L62.75 2.75Q61.25 2.88 59.75 3.25Q58.25 3.63 58.88 3L58.88 3Q56.50 4 52.94 5.56Q49.38 7.13 47 9.38L47 9.38L46.88 8.63Q45.75 10 43.06 12.19Q40.38 14.38 40.13 16.13L40.13 16.13L39.75 16.25Q39.13 17.13 38.75 18.19Q38.38 19.25 37.88 20.25L37.88 20.25Q37.13 21.50 36.81 21.25Q36.50 21 36.63 21.13L36.63 21.13Q35.13 24.13 34.31 26.63Q33.50 29.13 32.88 31.13L32.88 31.13Q33.25 31.75 33.06 34.56Q32.88 37.38 33.13 40L33.13 40Q32.75 46.63 34.88 53L34.88 53Q37 59.25 40.75 64.50Q44.50 69.75 49.50 73.50L49.50 73.50Q54.50 77.25 60 78.75L60 78.75Q61.63 79.25 63.81 79.38Q66 79.50 68 79.50L68 79.50Q65.63 78.88 64.63 78.81Q63.63 78.75 61.38 78L61.38 78Q59.63 77.13 58.94 76.25Q58.25 75.38 57 74.25L57 74.25L57.63 75.38Q55.25 74.63 55.25 74.25Q55.25 73.88 53.25 73.25L53.25 73.25L54 72.38Q53.25 72.38 52.19 71.44Q51.13 70.50 50.88 69.75L50.88 69.75L49.75 69.88Q48.75 68.63 48.25 67.69Q47.75 66.75 47.75 66.13L47.75 66.13L47.38 66.75Q47.13 66.25 45.13 63.56Q43.13 60.88 44.88 61.88L44.88 61.88Q44.50 61.50 44.06 61.19Q43.63 60.88 43.25 60.13L43.25 60.13L43.75 59.50Q42.88 58.50 42.25 57.31Q41.63 56.13 41.75 55.63L41.75 55.63Q42.13 56.25 42.50 56.44Q42.88 56.63 43.13 56.75L43.13 56.75Q41 51.50 40.31 53.06Q39.63 54.63 38 49.63L38 49.63L38.50 49.63Q38.25 49.25 38.06 48.81Q37.88 48.38 37.63 47.88L37.63 47.88L37.88 46Q36.25 44.25 36.81 39.63Q37.38 35 37.50 31.75L37.50 31.75Q37.75 30.50 38.63 29.06Q39.50 27.63 40.38 25.50L40.38 25.50L39.75 25.38Q40.63 23.63 44.31 19.88Q48 16.13 50.13 16.38L50.13 16.38Q51.13 15.13 50.44 15.69Q49.75 16.25 49.63 16L49.63 16Q51.88 13.63 53 13.63Q54.13 13.63 55.63 13.13L55.63 13.13Q57.38 12.13 55.69 12.75Q54 13.38 54.88 12.63L54.88 12.63Q57.75 11.88 58.25 11.06Q58.75 10.25 62.63 9.88L62.63 9.88Q63 10.13 62.13 10.31Q61.25 10.50 60.88 10.75L60.88 10.75Q63.38 9.63 67.81 9.88Q72.25 10.13 75.63 11.63L75.63 11.63Q79.50 13.50 83.13 18.25Q86.75 23 87 28.13L87 28.13L87.25 28.25Q87.13 30.25 87.25 32.50Q87.38 34.75 86.75 37L86.75 37L87.38 35.63Q87.38 37.13 87 38.13Q86.63 39.13 86.13 40.50L86.13 40.50L85 41Q84.38 42.38 84.69 42.44Q85 42.50 84.50 43.50L84.50 43.50Q83.38 44.50 81.69 46Q80 47.50 79.25 47.75L79.25 47.75Q78.75 47.75 79.25 47.31Q79.75 46.88 79.88 46.63L79.88 46.63Q78.50 47.63 78.06 48.19Q77.63 48.75 75.50 49.38L75.50 49.38L75.38 49.13Q70 51.63 64.19 47.63Q58.38 43.63 58.38 36.75L58.38 36.75Q58.38 37.25 58.25 37.25Q58.13 37.25 58 37.50L58 37.50Q57.75 33.88 59.50 30.75Q61.25 27.63 64.50 26.13L64.50 26.13Q67.63 24.63 70.94 25.13Q74.25 25.63 76.50 27.75L76.50 27.75Q75.25 26.13 72.94 24.75Q70.63 23.38 67.75 23.50L67.75 23.50Q64.88 23.50 62.50 25.06Q60.13 26.63 59.25 28.63L59.25 28.63Q57.75 29.50 57.31 31.50Q56.88 33.50 56.25 34L56.25 34Q55.38 40.25 57.56 43.63Q59.75 47 63.88 50.13L63.88 50.13Q64.25 50.38 64.31 50.56Q64.38 50.75 64.38 50.75L64.38 50.75L64.38 50.75Q69.25 52.63 74.19 52.06Q79.13 51.50 83.38 48.13L83.38 48.13Q84.38 47.25 85.44 46.19Q86.50 45.13 86.75 45L86.75 45Q86.25 45.88 86.50 45.81Q86.75 45.75 86.38 46.50L86.38 46.50Q87.50 44.75 86.88 44.75Q86.25 44.75 87.88 42.50L87.88 42.50L88.63 43.50Q88.50 42.13 89.75 40.31Q91 38.50 90.75 36.25L90.75 36.25Q91.25 35.50 91.25 36.63Q91.25 37.75 90.75 39.38L90.75 39.38Q91.50 37.63 91.31 36.88Q91.13 36.13 91.25 34.63L91.25 34.63Q91.50 35.13 91.69 35.63Q91.88 36.13 92 36.75L92 36.75Q91.63 35 92.19 33.75Q92.75 32.50 92.88 31.50L92.88 31.50Q92.75 31.38 92.38 31.63Q92 31.88 91.88 29.88L91.88 29.88ZM55.38 45.75L55.38 45.75Q56 46.50 56.56 47.38Q57.13 48.25 58 49L58 49Q57.38 47.88 56.88 47.13Q56.38 46.38 55.50 44.75L55.50 44.75L55.38 45.75ZM57.50 44.75L57.50 44.75Q57.25 44.38 57 43.94Q56.75 43.50 56.50 43L56.50 43Q56.75 43.88 57.13 44.56Q57.50 45.25 57.88 45.88L57.88 45.88L57.50 44.75ZM90.38 44.63L90.38 44.63Q91.25 42.88 91.88 40.94Q92.50 39 92.75 37.13L92.75 37.13L92.63 37.50Q92.25 39.38 91.75 41.19Q91.25 43 90.38 44.63ZM68 2.25L68 2.25Q67.13 2.25 66.19 2.31Q65.25 2.38 64.38 2.50L64.38 2.50L64.88 2.63Q65.63 2.38 66.44 2.38Q67.25 2.38 68 2.25L68 2.25ZM34.88 20.13L34.88 20.13Q35.50 18.63 35.06 18.94Q34.63 19.25 34.50 18.88L34.50 18.88Q34.63 20.13 34.13 20.56Q33.63 21 34.88 20.13ZM32.50 27.25L32.50 27.25Q32.75 26.38 32.88 25.75Q33 25.13 33.13 24.63L33.13 24.63Q32.25 25.63 32.38 26.13Q32.50 26.63 32.50 27.25ZM33.13 95.88L33.13 95.88Q32.13 96.38 30.94 96.69Q29.75 97 27.75 97.25L27.75 97.25Q28.63 98.13 28.75 99.19Q28.88 100.25 28.88 104.25L28.88 104.25Q28.25 104 27.50 103.81Q26.75 103.63 25.50 103.63L25.50 103.63Q20.13 103.63 18.69 107.31Q17.25 111 17.25 114.50L17.25 114.50Q17.25 122.88 20.31 124.31Q23.38 125.75 24.13 125.75L24.13 125.75Q25.88 125.75 27.06 124.75Q28.25 123.75 28.88 122L28.88 122L28.88 125.50Q29.50 125.50 30.13 125.44Q30.75 125.38 31.63 125.38L31.63 125.38Q32 125.38 32.25 125.38Q32.50 125.38 32.75 125.50L32.75 125.50Q33 125.50 33.25 125.50Q33.50 125.50 33.75 125.50L33.75 125.50Q33.25 124.63 32.94 122.25Q32.63 119.88 32.63 115.25L32.63 115.25Q32.63 110.63 32.69 104.38Q32.75 98.13 33.13 95.88L33.13 95.88ZM28.63 117.88L28.63 117.88Q28.63 118.88 28.19 120.50Q27.75 122.13 25.63 122.13L25.63 122.13Q23.38 122.13 22.63 120.25Q21.88 118.38 21.75 117.25L21.75 117.25Q21.50 116.13 21.44 115.13Q21.38 114.13 21.38 113.75L21.38 113.75Q21.38 112.25 22 109.38Q22.63 106.50 26 106.50L26 106.50Q27 106.50 27.63 106.75Q28.25 107 28.75 107.25L28.75 107.25L28.75 109.75Q28.75 109.88 28.75 113.25Q28.75 116.63 28.63 117.88ZM42.75 103.63L42.75 103.63Q36.63 103.63 35.63 108.38Q34.63 113.13 34.63 114.50L34.63 114.50Q34.63 120.63 37.19 123.19Q39.75 125.75 44.38 125.75L44.38 125.75Q46.38 125.75 47.44 125.56Q48.50 125.38 49 125.13L49 125.13Q49 124.13 49.13 123.31Q49.25 122.50 49.50 121.63L49.50 121.63Q48.88 122 47.94 122.38Q47 122.75 45.13 122.75L45.13 122.75Q40.50 122.75 39.69 119.63Q38.88 116.50 38.88 115L38.88 115L49.50 115L49.50 112.75Q49.50 109.25 48.31 106.44Q47.13 103.63 42.75 103.63ZM45.63 113L45.63 113L38.75 113Q38.88 110.75 39.56 108.75Q40.25 106.75 42.38 106.75L42.38 106.75Q44.63 106.75 45.13 108.75Q45.63 110.75 45.63 113ZM60.50 103.63L60.50 103.63Q57.63 103.63 56.56 105.44Q55.50 107.25 55 108.50L55 108.50Q55 107 55.06 102.75Q55.13 98.50 55.38 95.75L55.38 95.75Q53.50 96.63 52.13 96.94Q50.75 97.25 49.50 97.38L49.50 97.38Q50.63 97.75 50.81 100.25Q51 102.75 51 109.13L51 109.13L51 119L51 119Q51 121.25 50.94 122.56Q50.88 123.88 50.63 124.88L50.63 124.88Q51.75 125.25 53.31 125.50Q54.88 125.75 56.63 125.75L56.63 125.75Q57.75 125.75 60.50 125.13Q63.25 124.50 65.13 120.88L65.13 120.88Q66 119.13 66.31 117Q66.63 114.88 66.63 113L66.63 113Q66.63 112 66.44 110Q66.25 108 65.38 106.50L65.38 106.50Q64.50 105.13 63.25 104.38Q62 103.63 60.50 103.63L60.50 103.63ZM57.13 123.25L57.13 123.25Q56.75 123.25 56.19 123.19Q55.63 123.13 55.25 123L55.25 123Q55.13 121.88 55.13 120.13Q55.13 118.38 55.13 116.25L55.13 116.25Q55.13 113.63 55.38 112.19Q55.63 110.75 55.75 110.13L55.75 110.13Q56.38 108 57.50 107.63Q58.63 107.25 58.88 107.25L58.88 107.25Q61.13 107.25 61.81 109.75Q62.50 112.25 62.50 114.63L62.50 114.63Q62.50 117.38 61.56 120.31Q60.63 123.25 57.13 123.25L57.13 123.25ZM73.50 108.75L73.50 108.75Q73.50 106.75 73.56 105.75Q73.63 104.75 73.88 103.50L73.88 103.50Q72.75 104 71.69 104.25Q70.63 104.50 68.25 104.75L68.25 104.75Q68.63 105 68.88 105.38Q69.13 105.75 69.38 106.88L69.38 106.88Q69.50 108.38 69.50 113.75Q69.50 119.13 69.38 121.88L69.38 121.88Q69.38 123.75 69.19 124.38Q69 125 68.75 125.50L68.75 125.50Q69.38 125.50 70.13 125.44Q70.88 125.38 71.75 125.38L71.75 125.38Q72.63 125.38 73.19 125.44Q73.75 125.50 74.25 125.50L74.25 125.50Q73.63 124.25 73.56 121.63Q73.50 119 73.50 108.75L73.50 108.75ZM90.88 117.75L90.88 117.75L90.88 109.63Q90.88 107.38 89.75 105.50Q88.63 103.63 84.13 103.63L84.13 103.63Q81.25 103.63 79.44 104.31Q77.63 105 76.75 105.50L76.75 105.50Q77.13 106.13 77.44 106.81Q77.75 107.50 78 108.75L78 108.75Q79.13 107.75 80.63 107.25Q82.13 106.75 83.63 106.75L83.63 106.75Q86.13 106.75 86.56 108.25Q87 109.75 87 112L87 112Q86.38 112 85.81 111.94Q85.25 111.88 84.50 111.88L84.50 111.88Q80.75 111.88 78.44 113.50Q76.13 115.13 76.13 119.13L76.13 119.13Q76.13 121 76.75 122.75Q77.38 124.50 79.13 125.25L79.13 125.25Q79.88 125.63 80.50 125.69Q81.13 125.75 81.38 125.75L81.38 125.75Q84.13 125.75 85.31 124.19Q86.50 122.63 87 121.38L87 121.38Q87 122.63 87 123.56Q87 124.50 87.13 125.50L87.13 125.50Q87.63 125.50 88.25 125.44Q88.88 125.38 89.75 125.38L89.75 125.38Q90.25 125.38 90.75 125.44Q91.25 125.50 91.75 125.50L91.75 125.50Q91.38 125 91.19 124.56Q91 124.13 91 122.88L91 122.88Q90.88 121.75 90.88 120.56Q90.88 119.38 90.88 117.75L90.88 117.75ZM86.25 119.75L86.25 119.75Q85.63 121.13 84.69 121.63Q83.75 122.13 83 122.13L83 122.13Q81.13 122.13 80.63 120.88Q80.13 119.63 80.13 118.13L80.13 118.13Q80.13 115.38 81.94 114.69Q83.75 114 84.88 114L84.88 114L87 114Q87 116.25 86.88 117.50Q86.75 118.75 86.25 119.75L86.25 119.75ZM110 121.63L110 121.63L110 109.63Q110 107.88 109.19 105.75Q108.38 103.63 104.75 103.63L104.75 103.63Q101.75 103.63 100.75 105.13Q99.75 106.63 99 107.63L99 107.63L99 103.38Q98.25 103.75 97.31 104.13Q96.38 104.50 94 104.63L94 104.63Q94.25 104.88 94.63 105.31Q95 105.75 95.13 106.88L95.13 106.88Q95.38 108.75 95.38 114.75Q95.38 120.75 95.25 122.38L95.25 122.38Q95.25 124 95.13 124.50Q95 125 94.75 125.50L94.75 125.50Q95.38 125.50 95.94 125.44Q96.50 125.38 97.13 125.38L97.13 125.38Q98.13 125.38 98.75 125.44Q99.38 125.50 99.88 125.50L99.88 125.50Q99.63 124.50 99.56 123.44Q99.50 122.38 99.50 118.63L99.50 118.63Q99.50 114.13 99.50 112.50Q99.50 110.88 99.75 109.75L99.75 109.75Q100 108.75 100.69 107.75Q101.38 106.75 103.13 106.75L103.13 106.75Q104.75 106.75 105.25 107.75Q105.75 108.75 105.75 109.25L105.75 109.25Q105.88 110 105.94 111.69Q106 113.38 106 114.75L106 114.75L106 119.13Q106 119.88 105.88 121.69Q105.75 123.50 105.63 124.13L105.63 124.13Q105.63 124.63 105.50 124.88Q105.38 125.13 105.25 125.50L105.25 125.50Q105.88 125.50 106.31 125.44Q106.75 125.38 107.50 125.38L107.50 125.38Q108.75 125.38 109.31 125.44Q109.88 125.50 110.50 125.50L110.50 125.50Q110.13 124.63 110.06 123.63Q110 122.63 110 121.63L110 121.63ZM74.63 97.75L71.38 101.13L68 97.75L71.38 94.50L74.63 97.75Z"/></svg>