<svg xmlns="http://www.w3.org/2000/svg" xmlns:xlink="http://www.w3.org/1999/xlink" width="128" height="128"><path fill="#ffffff" d="M78.13 69.25L78.13 69.25Q85.25 66.63 88.50 59.81Q91.75 53 89.25 46.13L89.25 46.13Q86.75 39.13 79.94 36.06Q73.13 33 66 35.63L66 35.63Q58.88 38.25 55.63 45.06Q52.38 51.88 54.88 58.75L54.88 58.75Q57.38 65.75 64.19 68.81Q71 71.88 78.13 69.25L78.13 69.25ZM74.13 21.63L74.13 21.63Q73.88 21.63 73.56 21.63Q73.25 21.63 72.88 21.63L72.88 21.63Q69.88 21.63 67.06 22.13Q64.25 22.63 61.63 23.63L61.63 23.63L61.88 23.63Q55.75 25.88 51.13 30.13L51.13 30.13Q46.50 34.38 43.94 39.81Q41.38 45.25 40.88 51.38L40.88 51.38Q40.50 57.50 42.63 63.63L42.63 63.63Q44.75 69.63 49 74L49 74Q53.25 78.50 58.69 80.94Q64.13 83.38 70.38 83.63L70.38 83.63Q76.63 84 82.75 81.75L82.75 81.75L82.75 81.63L82.75 81.63Q88.88 79.38 93.38 75.13L93.38 75.13Q98 70.88 100.63 65.44Q103.25 60 103.63 53.88L103.63 53.88Q104.13 47.75 101.88 41.75L101.88 41.75Q98.63 32.75 91 27.38Q83.38 22 74.13 21.63L74.13 21.63ZM74 28.13L73.88 28.13Q81.13 28.38 87.19 32.63Q93.25 36.88 95.75 43.88L95.75 43.88Q97.50 48.63 97.13 53.50L97.13 53.50Q96.75 58.38 94.69 62.69Q92.63 67 89 70.38L89 70.38Q85.38 73.75 80.38 75.50L80.38 75.50L80.38 75.50L80.38 75.50Q75.50 77.38 70.63 77.13L70.63 77.13Q65.75 76.88 61.44 75Q57.13 73.13 53.75 69.63L53.75 69.63Q50.50 66.13 48.75 61.38L48.75 61.38Q47.13 56.63 47.38 51.75L47.38 51.75Q47.75 46.88 49.81 42.63Q51.88 38.38 55.50 35L55.50 35Q59.25 31.63 64.13 29.75L64.13 29.75Q66.13 29 68.38 28.56Q70.63 28.13 73 28.13L73 28.13Q73.25 28.13 73.50 28.13Q73.75 28.13 74 28.13L74 28.13ZM92.13 91.38L92.13 91.38Q91.88 91.38 91.69 91.38Q91.50 91.38 91.38 91.38L91.38 91.38Q89.75 91.38 88.13 91.69Q86.50 92 85 92.63L85 92.63L85.13 92.50Q78.38 95 75.19 101.56Q72 108.13 74.50 114.88L74.50 114.88Q76.88 121.63 83.44 124.56Q90 127.50 96.88 125L96.88 125Q103.75 122.50 106.88 115.94Q110 109.38 107.63 102.63L107.63 102.63Q105.75 97.63 101.50 94.63Q97.25 91.63 92.13 91.38L92.13 91.38ZM91.88 96.13L91.88 96.13Q95.63 96.25 98.75 98.44Q101.88 100.63 103.25 104.25L103.25 104.25Q105 109.13 102.69 113.94Q100.38 118.75 95.25 120.63L95.25 120.63Q90.13 122.50 85.38 120.38Q80.63 118.25 78.88 113.25L78.88 113.25Q77.13 108.38 79.44 103.56Q81.75 98.75 86.75 96.88L86.75 96.88Q87.88 96.50 89.06 96.31Q90.25 96.13 91.50 96.13L91.50 96.13Q91.63 96.13 91.69 96.13Q91.75 96.13 91.88 96.13L91.88 96.13L91.88 96.13ZM22.63 58.88L22.63 58.88Q22.50 58.88 22.38 58.88Q22.25 58.88 22 58.88L22 58.88Q20.88 58.88 19.75 59.06Q18.63 59.25 17.50 59.63L17.50 59.63L17.63 59.63Q12.75 61.50 10.50 66.19Q8.25 70.88 9.88 75.63L9.88 75.63Q11.63 80.50 16.38 82.63Q21.13 84.75 26 82.88L26 82.88Q30.88 81.13 33.13 76.44Q35.38 71.75 33.75 66.88L33.75 66.88Q32.38 63.25 29.31 61.13Q26.25 59 22.63 58.88L22.63 58.88ZM22.50 62.25L22.50 62.25Q25.13 62.25 27.38 63.81Q29.63 65.38 30.50 68L30.50 68Q31.75 71.63 30.13 75.06Q28.50 78.50 24.88 79.75L24.88 79.75Q21.25 81.13 17.81 79.56Q14.38 78 13.13 74.50L13.13 74.50Q11.88 71 13.50 67.56Q15.13 64.13 18.75 62.75L18.75 62.75Q19.50 62.50 20.38 62.38Q21.25 62.25 22.13 62.25L22.13 62.25Q22.25 62.25 22.31 62.25Q22.38 62.25 22.50 62.25L22.50 62.25L22.50 62.25ZM44.38 65.75L42.50 60.75L30.75 65.13L32.63 70.13L44.38 65.75ZM90.88 93.38L85.13 77.38L78 79.88L83.75 95.88L90.88 93.38ZM111 2.50L111 2.50Q111 2.50 110.88 2.50Q110.75 2.50 110.63 2.50L110.63 2.50Q108.13 2.50 105.88 3.38Q103.63 4.25 102 5.88L102 5.88L102 5.88Q98.13 9.38 97.81 14.50Q97.50 19.63 101 23.50L101 23.50Q104.38 27.25 109.63 27.38Q114.88 27.50 118.75 24.13L118.75 24.13Q122.63 20.63 122.94 15.44Q123.25 10.25 119.75 6.50L119.75 6.50Q118 4.63 115.75 3.63Q113.50 2.63 111 2.50L111 2.50ZM110.88 5.88L110.88 5.88Q112.63 5.88 114.31 6.63Q116 7.38 117.25 8.75L117.25 8.75Q119.75 11.50 119.56 15.25Q119.38 19 116.50 21.63L116.50 21.63Q113.63 24.13 109.81 24Q106 23.88 103.38 21.13L103.38 21.13Q100.88 18.38 101.13 14.63Q101.38 10.88 104.25 8.38L104.25 8.38Q105.50 7.13 107.13 6.50Q108.75 5.88 110.63 5.88L110.63 5.88Q110.75 5.88 110.81 5.88Q110.88 5.88 110.88 5.88L110.88 5.88L110.88 5.88ZM104.25 24L100.75 20L91.38 28.38L95 32.38L104.25 24ZM62.63 95.38L62.63 95.38Q59.25 94.88 56.44 96.81Q53.63 98.75 53 102L53 102Q52.38 105.38 54.31 108.13Q56.25 110.88 59.63 111.38L59.63 111.38Q62.88 111.88 65.69 109.94Q68.50 108 69.13 104.75L69.13 104.75L69.13 104.75Q69.75 101.50 67.81 98.75Q65.88 96 62.63 95.38L62.63 95.38ZM62.25 97.63L62.25 97.63L62.25 97.63Q64.63 98 66 99.94Q67.38 101.88 67 104.38L67 104.38Q66.50 106.75 64.44 108.19Q62.38 109.63 59.88 109.25L59.88 109.25Q57.50 108.88 56.13 106.88Q54.75 104.88 55.13 102.50L55.13 102.50Q55.63 100 57.69 98.56Q59.75 97.13 62.25 97.63L62.25 97.63ZM76 104.13L68 102.75L67.50 106.25L75.38 107.50L76 104.13ZM13.75 39L13.75 39Q13.63 39 13.56 38.94Q13.50 38.88 13.38 38.88L13.38 38.88Q12.63 38.88 11.88 39.06Q11.13 39.25 10.50 39.50L10.50 39.50L10.50 39.50Q7.38 40.63 5.88 43.63Q4.38 46.63 5.50 49.88L5.50 49.88Q6.63 53 9.69 54.38Q12.75 55.75 15.88 54.63L15.88 54.63Q19.13 53.38 20.56 50.38Q22 47.38 20.88 44.25L20.88 44.25L20.88 44.25Q20.13 41.88 18.13 40.44Q16.13 39 13.75 39L13.75 39ZM13.63 41.13L13.63 41.13Q15.38 41.13 16.81 42.19Q18.25 43.25 18.88 44.88L18.88 44.88L18.88 44.88Q19.63 47.25 18.56 49.44Q17.50 51.63 15.13 52.50L15.13 52.50Q12.75 53.38 10.56 52.38Q8.38 51.38 7.50 49.13L7.50 49.13Q6.75 46.75 7.81 44.56Q8.88 42.38 11.25 41.50L11.25 41.50L11.25 41.50Q11.75 41.25 12.31 41.19Q12.88 41.13 13.38 41.13L13.38 41.13Q13.50 41.13 13.56 41.13Q13.63 41.13 13.63 41.13L13.63 41.13L13.63 41.13ZM19.75 60.13L17.13 52.75L13.75 53.88L16.50 61.38L19.75 60.13ZM115.13 61.88L115.13 61.88Q112.75 61.75 110.63 63.06Q108.50 64.38 107.38 66.63L107.38 66.63Q106 69.63 107.13 72.81Q108.25 76 111.25 77.25L111.25 77.25Q114.38 78.63 117.56 77.44Q120.75 76.25 122.13 73.25L122.13 73.25Q123.63 70.25 122.50 67.06Q121.38 63.88 118.25 62.50L118.25 62.50L118.25 62.50Q117.63 62.25 116.81 62.06Q116 61.88 115.13 61.88L115.13 61.88L115.13 61.88ZM115.13 64L115.13 64Q115.75 64 116.31 64.19Q116.88 64.38 117.50 64.50L117.50 64.50L117.38 64.50L117.38 64.50Q119.63 65.50 120.44 67.81Q121.25 70.13 120.25 72.25L120.25 72.25L120.25 72.38Q119.13 74.50 116.75 75.38Q114.38 76.25 112.13 75.25L112.13 75.25L112.13 75.25Q110 74.38 109.13 72.06Q108.25 69.75 109.38 67.50L109.38 67.50L109.38 67.50Q110.25 65.88 111.81 64.94Q113.38 64 115.13 64L115.13 64ZM108.75 65.13L101.88 61.88L100 65L107.25 68.25L108.75 65.13ZM93.88 116.88L93.88 116.88Q97.38 115.63 98.94 112.38Q100.50 109.13 99.25 105.75L99.25 105.75Q98.13 102.38 94.81 100.94Q91.50 99.50 88.13 100.75L88.13 100.75Q84.75 102 83.19 105.25Q81.63 108.50 82.75 111.88L82.75 111.88Q84 115.13 87.25 116.63Q90.50 118.13 93.88 116.88L93.88 116.88ZM23.88 77.13L23.88 77.13Q26.38 76.25 27.50 73.88Q28.63 71.50 27.88 69.13L27.88 69.13Q27 66.63 24.63 65.56Q22.25 64.50 19.75 65.38L19.75 65.38Q17.25 66.38 16.13 68.75Q15 71.13 15.88 73.50L15.88 73.50Q16.75 75.88 19.06 77Q21.38 78.13 23.88 77.13L23.88 77.13ZM112.50 20.75L112.50 20.75Q114.88 19.88 116.06 17.50Q117.25 15.13 116.38 12.75L116.38 12.75Q115.50 10.25 113.13 9.19Q110.75 8.13 108.25 9.13L108.25 9.13Q105.75 10 104.63 12.38Q103.50 14.75 104.38 17.13L104.38 17.13Q105.25 19.63 107.63 20.69Q110 21.75 112.50 20.75L112.50 20.75ZM113 77.88L110 76.13L99.63 94.13L102.63 95.88L113 77.88Z"/></svg>