<svg xmlns="http://www.w3.org/2000/svg" xmlns:xlink="http://www.w3.org/1999/xlink" width="128" height="128"><path fill="#000000" d="M62.25 10.88L62.25 10.88Q62.13 11 61.63 11.75Q61.13 12.50 60.50 13.38L60.50 13.38Q59 15.88 58.44 15.88Q57.88 15.88 55.88 13.88L55.88 13.88Q54.63 12.50 54.13 12.13Q53.63 11.75 53.25 11.75L53.25 11.75Q53 11.75 52.69 11.81Q52.38 11.88 52.25 12L52.25 12Q52 12.13 51.69 12.88Q51.38 13.63 51 14.63L51 14.63Q50.13 16.75 49.88 17.19Q49.63 17.63 49.25 17.75L49.25 17.75Q48.88 17.75 48.25 17.44Q47.63 17.13 46.38 16.13L46.38 16.13Q45.38 15.50 44.56 15Q43.75 14.50 43.63 14.50L43.63 14.50Q42.75 14.50 42.44 15.19Q42.13 15.88 41.75 18.13L41.75 18.13Q41.25 21 40.75 21.25Q40.25 21.50 37.63 20.38L37.63 20.38Q36.63 19.88 35.75 19.56Q34.88 19.25 34.75 19.25L34.75 19.25Q34.63 19.25 34.31 19.38Q34 19.50 33.75 19.75L33.75 19.75Q33.38 20.13 33.31 20.56Q33.25 21 33.38 23.25L33.38 23.25L33.50 26.13L33 26.38Q32.63 26.63 32.13 26.56Q31.63 26.50 30 26.13L30 26.13Q27.88 25.63 27.13 25.69Q26.38 25.75 26 26.25L26 26.25L25.50 26.88L26.13 29.25Q26.38 30.25 26.56 31.06Q26.75 31.88 26.75 32.13L26.75 32.13Q26.88 32.25 26.81 32.50Q26.75 32.75 26.63 33L26.63 33Q26.38 33.25 25.88 33.31Q25.38 33.38 23.38 33.25L23.38 33.25Q20 33.25 19.56 33.94Q19.13 34.63 20.50 37.63L20.50 37.63Q20.88 38.63 21.19 39.38Q21.50 40.13 21.50 40.25L21.50 40.25Q21.50 40.75 20.94 41Q20.38 41.25 18.50 41.63L18.50 41.63Q17.38 41.75 16.56 41.88Q15.75 42 15.75 42L15.75 42Q15.63 42 15.50 42.13Q15.38 42.25 15.13 42.50L15.13 42.50Q14.63 43 14.81 43.75Q15 44.50 16.38 46.38L16.38 46.38Q18 48.63 17.81 49.19Q17.63 49.75 14.88 50.75L14.88 50.75Q11.88 52 11.69 52.75Q11.50 53.50 13.88 55.63L13.88 55.63Q16 57.75 15.94 58.31Q15.88 58.88 13.50 60.38L13.50 60.38Q11.63 61.63 11.31 61.94Q11 62.25 10.88 62.88L10.88 62.88Q10.88 63.63 11.25 64Q11.63 64.38 13.88 65.75L13.88 65.75Q16 67 16 67.63Q16 68.25 13.88 70.25L13.88 70.25Q11.50 72.38 11.69 73.19Q11.88 74 15 75.13L15 75.13Q17.63 76.13 17.81 76.69Q18 77.25 16.38 79.50L16.38 79.50Q15.38 80.75 15.06 81.44Q14.75 82.13 14.75 82.50L14.75 82.50Q14.75 83.25 15.38 83.56Q16 83.88 18.38 84.25L18.38 84.25Q20.25 84.63 20.88 84.88Q21.50 85.13 21.50 85.63L21.50 85.63Q21.50 85.75 21.19 86.56Q20.88 87.38 20.50 88.25L20.50 88.25Q19.13 91.25 19.56 91.94Q20 92.63 23.13 92.63L23.13 92.63Q26.25 92.63 26.56 93Q26.88 93.38 26.25 96.13L26.25 96.13Q25.75 98.13 25.75 98.81Q25.75 99.50 26.13 100L26.13 100Q26.50 100.25 27.31 100.25Q28.13 100.25 30.13 99.75L30.13 99.75Q31.63 99.38 32.13 99.31Q32.63 99.25 33 99.50L33 99.50L33.50 99.75L33.38 102.63Q33.25 104.88 33.31 105.31Q33.38 105.75 33.75 106.13L33.75 106.13Q34 106.38 34.31 106.50Q34.63 106.63 34.75 106.63L34.75 106.63Q34.88 106.63 35.75 106.31Q36.63 106 37.75 105.50L37.75 105.50Q40.25 104.38 40.75 104.63Q41.25 104.88 41.75 107.75L41.75 107.75Q42.13 110 42.50 110.69Q42.88 111.38 43.63 111.38L43.63 111.38Q43.88 111.38 44.63 110.88Q45.38 110.38 46.38 109.75L46.38 109.75Q48 108.63 48.63 108.38Q49.25 108.13 49.63 108.38L49.63 108.38Q49.75 108.38 50.13 109.25Q50.50 110.13 51 111.13L51 111.13Q51.50 112.75 51.81 113.31Q52.13 113.88 52.50 114.13L52.50 114.13Q53.13 114.38 53.75 114Q54.38 113.63 56 112L56 112Q57.75 109.88 58.38 110Q59 110.13 60.50 112.50L60.50 112.50Q62.25 115.25 63.06 115.25Q63.88 115.25 65.63 112.50L65.63 112.50Q67.13 110.13 67.69 110.06Q68.25 110 70.25 112.13L70.25 112.13Q71.50 113.50 72 113.88Q72.50 114.25 72.88 114.25L72.88 114.25Q73.25 114.25 73.50 114.13Q73.75 114 73.88 113.88L73.88 113.88Q74.13 113.75 74.50 112.94Q74.88 112.13 75.25 111L75.25 111Q75.63 110 76 109.19Q76.38 108.38 76.38 108.38L76.38 108.38Q76.88 108 77.50 108.31Q78.13 108.63 79.75 109.75L79.75 109.75Q80.75 110.50 81.50 110.94Q82.25 111.38 82.50 111.38L82.50 111.38Q83.25 111.38 83.63 110.63Q84 109.88 84.38 107.63L84.38 107.63Q84.63 105.75 84.81 105.31Q85 104.88 85.38 104.63L85.38 104.63Q85.75 104.50 86.19 104.63Q86.63 104.75 88.38 105.50L88.38 105.50Q89.38 106 90.25 106.31Q91.13 106.63 91.38 106.63L91.38 106.63Q91.50 106.63 91.81 106.50Q92.13 106.38 92.25 106.13L92.25 106.13L92.88 105.63L92.75 102.75Q92.63 100.75 92.63 100.31Q92.63 99.88 93 99.50L93 99.50Q93.38 99.25 93.75 99.25Q94.13 99.25 96 99.75L96 99.75Q98.25 100.25 98.94 100.25Q99.63 100.25 100 99.88L100 99.88Q100.50 99.38 100.44 98.88Q100.38 98.38 99.88 96L99.88 96Q99.25 93.38 99.56 93Q99.88 92.63 102.88 92.63L102.88 92.63Q105 92.63 105.56 92.56Q106.13 92.50 106.38 92.13L106.38 92.13Q106.75 91.63 106.63 90.88Q106.50 90.13 105.63 88.25L105.63 88.25Q105.13 87.25 104.81 86.50Q104.50 85.75 104.50 85.75L104.50 85.75Q104.50 85.13 105.19 84.88Q105.88 84.63 107.88 84.25L107.88 84.25Q109.13 84 110 83.81Q110.88 83.63 111 83.50L111 83.50Q111.50 83 111.25 82.13Q111 81.25 109.75 79.50L109.75 79.50Q108.13 77.25 108.31 76.69Q108.50 76.13 111 75.13L111 75.13Q114.13 74 114.31 73.19Q114.50 72.38 112.25 70.25L112.25 70.25Q110 68.13 110.06 67.56Q110.13 67 112.50 65.50L112.50 65.50Q115.38 63.75 115.38 62.94Q115.38 62.13 112.50 60.38L112.50 60.38Q110.13 58.88 110.06 58.31Q110 57.75 112.25 55.63L112.25 55.63Q114.50 53.50 114.38 52.75Q114.25 52 111.13 50.75L111.13 50.75Q108.50 49.75 108.31 49.19Q108.13 48.63 109.75 46.38L109.75 46.38Q110.75 45.13 111.06 44.50Q111.38 43.88 111.38 43.38L111.38 43.38Q111.38 42.63 110.75 42.31Q110.13 42 107.75 41.63L107.75 41.63Q105.75 41.25 105.13 41Q104.50 40.75 104.50 40.25L104.50 40.25Q104.50 40.13 104.81 39.38Q105.13 38.63 105.63 37.63L105.63 37.63Q106.50 35.75 106.63 34.88Q106.75 34 106.25 33.63L106.25 33.63Q106 33.38 105.44 33.31Q104.88 33.25 103 33.25L103 33.25Q101 33.38 100.44 33.31Q99.88 33.25 99.63 33L99.63 33Q99.38 32.63 99.38 32.25Q99.38 31.88 99.88 29.88L99.88 29.88Q100.38 27.50 100.44 27Q100.50 26.50 100 26.13L100 26.13Q99.50 25.63 98.88 25.63Q98.25 25.63 96 26.13L96 26.13Q94.50 26.50 94 26.56Q93.50 26.63 93.13 26.50L93.13 26.50L92.50 26.13L92.75 23.25L92.88 20.25L92.25 19.75Q92.13 19.50 91.81 19.38Q91.50 19.25 91.38 19.25L91.38 19.25Q91.13 19.25 90.31 19.56Q89.50 19.88 88.38 20.38L88.38 20.38Q86.63 21.13 86.19 21.25Q85.75 21.38 85.38 21.25L85.38 21.25Q85 21 84.81 20.56Q84.63 20.13 84.38 18.13L84.38 18.13Q84 15.88 83.63 15.19Q83.25 14.50 82.50 14.50L82.50 14.50Q82.25 14.50 81.44 15Q80.63 15.50 79.63 16.13L79.63 16.13Q78.13 17.38 77.63 17.56Q77.13 17.75 76.75 17.63L76.75 17.63Q76.38 17.50 76.19 17.25Q76 17 75.75 16.38L75.75 16.38Q75.63 15.88 75.31 15.13Q75 14.38 74.75 13.75L74.75 13.75Q74.38 12.50 74 12.13Q73.63 11.75 72.88 11.75L72.88 11.75Q72.50 11.75 72 12.13Q71.50 12.50 70.25 13.88L70.25 13.88Q68.25 15.88 67.63 15.88Q67 15.88 65.63 13.38L65.63 13.38Q65 12.50 64.50 11.75Q64 11 63.75 10.88L63.75 10.88Q63.38 10.63 63 10.63Q62.63 10.63 62.25 10.88L62.25 10.88ZM64.75 20.50L64.75 20.50Q66.38 21.75 65.69 23.88Q65 26 62.88 26L62.88 26Q60.88 26 60.06 24.13Q59.25 22.25 60.75 20.88L60.75 20.88Q61.63 20 62.69 19.94Q63.75 19.88 64.75 20.50ZM61.75 30.75L61.75 30.75Q62.88 31.13 63.81 30.63Q64.75 30.13 67.38 27.63L67.38 27.63L70 25.13L71.13 25.25Q73.63 25.63 78 27.50Q82.38 29.38 85.38 31.50L85.38 31.50Q88 33.50 91.13 36.88Q94.25 40.25 95.88 42.88L95.88 42.88L96.25 43.63L94.38 48Q93.50 49.88 92.94 51.31Q92.38 52.75 92.38 53L92.38 53Q92.38 53.50 92.69 54.25Q93 55 93.25 55.25L93.25 55.25Q93.50 55.38 94.63 55.94Q95.75 56.50 97.38 57.13L97.38 57.13L101 58.88L101.13 59.75Q101.25 60.63 101.31 62.44Q101.38 64.25 101.25 64.88L101.25 64.88L101.13 65.50L99 65.50Q97.13 65.50 96.88 65.75Q96.63 66 96.63 68.25L96.63 68.25Q96.50 69.88 96.06 70.88Q95.63 71.88 94.75 72.38L94.75 72.38Q93.38 73.38 91.31 73.25Q89.25 73.13 88.25 72L88.25 72Q88.13 71.75 87.88 71Q87.63 70.25 87.38 69.38L87.38 69.38Q86.75 66.75 85.81 65.13Q84.88 63.50 83.13 62L83.13 62Q82.63 61.63 82.25 61.25Q81.88 60.88 81.88 60.75L81.88 60.75Q81.88 60.75 82.38 60.31Q82.88 59.88 83.63 59.38L83.63 59.38Q86.25 57.38 87.69 55.13Q89.13 52.88 89.38 50.50L89.38 50.50Q89.63 46.13 86.50 42.50Q83.38 38.88 78.25 37.50L78.25 37.50Q77 37.25 73.94 37.19Q70.88 37.13 55.63 37.13L55.63 37.13Q47 37.13 40.88 37.06Q34.75 37 34.75 37L34.75 37Q34.75 36.75 36.25 35.38Q37.75 34 38.88 33L38.88 33Q41.88 30.50 45.81 28.56Q49.75 26.63 53.88 25.50L53.88 25.50L55.75 25L58.50 27.75Q59.63 28.88 60.56 29.75Q61.50 30.63 61.75 30.75L61.75 30.75ZM27.38 48.50L27.38 48.50Q28.38 49.13 28.69 50.44Q29 51.75 28.50 52.63L28.50 52.63Q27.63 54.13 25.88 54.19Q24.13 54.25 23.25 52.75L23.25 52.75Q22 50.75 23.75 49Q25.50 47.25 27.38 48.50ZM101.50 48.63L101.50 48.63Q104 50.13 102.69 52.63Q101.38 55.13 98.75 54L98.75 54Q97 53.25 96.94 51.38Q96.88 49.50 98.63 48.63L98.63 48.63Q99.25 48.25 100.06 48.25Q100.88 48.25 101.50 48.63ZM37.13 60.88L37.13 60.88L37.13 73.13L26.25 73.13L25.88 71.25Q25.25 68.50 25 65.75Q24.75 63 24.88 60.75L24.88 60.75L25 58.50L28.75 56.88Q30.50 56.13 31.56 55.50Q32.63 54.88 32.75 54.75L32.75 54.75Q33.38 53.75 33.31 52.81Q33.25 51.88 32.38 49.88L32.38 49.88L31.75 48.63L37.13 48.63L37.13 60.88ZM68.38 49.13L68.38 49.13Q70.13 49.63 71 50.56Q71.88 51.50 71.88 52.75L71.88 52.75Q71.88 53.63 71.38 54.31Q70.88 55 69.75 55.50L69.75 55.50Q68.88 55.88 67.81 55.94Q66.75 56 61.50 56.13L61.50 56.13L54.38 56.13L54.38 48.88L60.75 48.88Q64.50 48.88 66.06 48.94Q67.63 49 68.38 49.13ZM66 66.75L66 66.75Q66.75 67 67.69 67.69Q68.63 68.38 69.13 69.13L69.13 69.13Q69.75 70 70.19 71.44Q70.63 72.88 71.38 76.38L71.38 76.38Q72 79.38 72.56 80.69Q73.13 82 74.25 83.38L74.25 83.38Q75.75 84.88 76.94 85.13Q78.13 85.38 85.38 85.38L85.38 85.38Q88.75 85.38 91.19 85.38Q93.63 85.38 93.63 85.50L93.63 85.50Q93.63 85.63 92.06 87.50Q90.50 89.38 90.38 89.38L90.38 89.38Q90.38 89.38 89.25 89.13Q88.13 88.88 86.75 88.63L86.75 88.63Q82.50 87.75 81.56 88.44Q80.63 89.13 79.63 93.50L79.63 93.50L78.88 97.38L78.13 97.75Q77.13 98.25 74.69 99Q72.25 99.75 70.75 100L70.75 100Q68.13 100.63 65.38 100.75Q62.63 100.88 60.25 100.75L60.25 100.75Q56 100.38 51.50 99.06Q47 97.75 46.88 96.75L46.88 96.75Q46.75 96.63 46.50 95.50Q46.25 94.38 46 93L46 93Q45.75 91.63 45.44 90.44Q45.13 89.25 44.88 89.13L44.88 89.13Q44.25 88 43.13 87.94Q42 87.88 38.75 88.50L38.75 88.50Q37.50 88.75 36.63 88.94Q35.75 89.13 35.63 89.13L35.63 89.13Q35.50 89.13 33.94 87.38Q32.38 85.63 32.38 85.50L32.38 85.50Q32.38 85.38 37.06 85.31Q41.75 85.25 48.25 85.25L48.25 85.25L64.13 85.25L64.13 79.63Q64.25 76.63 64.19 75.25Q64.13 73.88 64 73.63L64 73.63Q63.88 73.50 62.88 73.44Q61.88 73.38 59.13 73.38L59.13 73.38L54.38 73.38L54.38 66.50L59.75 66.50Q62 66.50 63.81 66.63Q65.63 66.75 66 66.75L66 66.75ZM41.50 92.38L41.50 92.38Q43.38 93.50 42.75 95.69Q42.13 97.88 39.88 97.88L39.88 97.88Q37.63 97.88 37 95.69Q36.38 93.50 38.25 92.38L38.25 92.38Q38.88 92 39.88 92Q40.88 92 41.50 92.38ZM87.63 92.50L87.63 92.50Q88.63 93.25 88.88 94.44Q89.13 95.63 88.50 96.63L88.50 96.63Q87 99 84.44 97.69Q81.88 96.38 83.25 93.75L83.25 93.75Q83.75 92.50 85.19 92.13Q86.63 91.75 87.63 92.50Z"/></svg>