<svg xmlns="http://www.w3.org/2000/svg" xmlns:xlink="http://www.w3.org/1999/xlink" width="128" height="128"><path fill="#000000" d="M108.63 46.88L108.63 46.88Q106.88 46.75 104.13 48.56Q101.38 50.38 99.88 57.75L99.88 57.75Q99.88 62.13 100.88 64.81Q101.88 67.50 103.50 68.50L103.50 68.50Q106.63 69.38 109.50 66.06Q112.38 62.75 112.38 58.25L112.38 58.25Q112.50 55.25 112.13 51.88Q111.75 48.50 108.63 46.88ZM116.25 25.75L116.25 25.75L11.75 25.75Q6.88 25.75 3.44 29.19Q0 32.63 0 37.38L0 37.38L0 77.38Q0 82.25 3.44 85.69Q6.88 89.13 11.75 89.13L11.75 89.13L116.38 89.13Q121.25 89.13 124.69 85.69Q128.13 82.25 128.13 77.38L128.13 77.38L128.13 37.38Q128 32.63 124.56 29.19Q121.13 25.75 116.25 25.75L116.25 25.75ZM44 80L44 80Q44 80 40.38 74.56Q36.75 69.13 35.50 64L35.50 64Q34.25 58.88 33.88 59.56Q33.50 60.25 33.50 60.25L33.50 60.25Q33.50 60.25 30.06 67.44Q26.63 74.63 22.25 80.63L22.25 80.63Q18 86.50 15.88 81.63Q13.75 76.75 13.75 76.75L13.75 76.75Q13 75.75 11.75 69.88L11.75 69.88Q10.50 63.88 9.25 57.13Q8 50.38 7 44.88L7 44.88Q6.13 39.38 6.13 39.38L6.13 39.38Q8.50 32.75 11.63 35.25Q14.75 37.75 14.75 37.75L14.75 37.75L20.25 66.25Q20.25 66.25 21.63 63.38L21.63 63.38Q23 60.63 24.88 56.94Q26.75 53.25 28.75 49.63L28.75 49.63Q30.63 46 31.75 44.25L31.75 44.25Q33.75 40.88 36.63 41.56Q39.50 42.25 39.75 45.75L39.75 45.75Q40.13 49.25 42.50 56.19Q44.88 63.13 44.88 63.13L44.88 63.13Q45.25 53 48.13 44.69Q51 36.38 51.63 34.88L51.63 34.88Q52.25 33.38 56.56 32.94Q60.88 32.50 59.75 39L59.75 39Q58.25 42.50 56.88 47.75L56.88 47.75Q55.50 53 54.50 58.69Q53.50 64.38 53.13 70L53.13 70Q52.63 75.50 53 79.63L53 79.63Q51 85.88 47.50 82.94Q44 80 44 80L44 80ZM79.88 75.50L79.88 75.50Q78 76.38 71.94 78Q65.88 79.63 60.75 68.38L60.75 68.38Q57.50 57.13 61.75 49.69Q66 42.25 66 42.25L66 42.25Q66 42.25 73.31 38.63Q80.63 35 87 45.75L87 45.75Q89.63 51.50 89.13 56.75L89.13 56.75Q88.75 62 87 66Q85.25 70 83.13 72.50L83.13 72.50Q80.88 75 79.88 75.50ZM111.75 75.50L111.75 75.50Q109.75 76.38 103.69 78Q97.63 79.63 92.50 68.38L92.50 68.38Q89.25 57.13 93.50 49.69Q97.75 42.25 97.75 42.25L97.75 42.25Q97.75 42.25 105.13 38.63Q112.50 35 118.88 45.63L118.88 45.63Q121.50 51.50 121 56.75L121 56.75Q120.63 62 118.88 66Q117.13 70 114.88 72.50L114.88 72.50Q112.63 75 111.75 75.50ZM76.75 46.88L76.75 46.88Q75 46.75 72.25 48.56Q69.50 50.38 68 57.75L68 57.75Q68 62.13 69 64.81Q70 67.50 71.63 68.50L71.63 68.50Q74.63 69.38 77.56 66.06Q80.50 62.75 80.50 58.25L80.50 58.25Q80.75 55.25 80.31 51.88Q79.88 48.50 76.75 46.88ZM66.13 85.50L61.25 89.13L83.63 102.25L78.88 89.13L66.13 85.50Z"/></svg>