<svg xmlns="http://www.w3.org/2000/svg" xmlns:xlink="http://www.w3.org/1999/xlink" width="128" height="128"><path fill="#000000" d="M12.13 102.38L12.13 102.38L9.75 102.38Q7.63 102.38 6.13 100.88Q4.63 99.38 4.63 97.25L4.63 97.25L4.63 97.25Q4.63 95 6.19 93.38Q7.75 91.75 10 91.75L10 91.75L12.13 91.75L12.13 87.63L9.25 87.63Q5.50 87.63 2.75 90.38Q0 93.13 0 96.88L0 96.88L0 96.88Q0 101.13 3 104.19Q6 107.25 10.25 107.25L10.25 107.25L12.13 107.25L12.13 102.38ZM115.75 102.38L115.88 102.38L113.63 102.38Q111.38 102.38 109.88 100.88Q108.38 99.38 108.38 97.25L108.38 97.25L108.38 97.25Q108.38 95 109.94 93.38Q111.50 91.75 113.75 91.75L113.75 91.75L115.88 91.75L115.88 87.63L113 87.63Q109.13 87.63 106.44 90.38Q103.75 93.13 103.75 96.88L103.75 96.88L103.75 96.88Q103.75 101.13 106.75 104.19Q109.75 107.25 114 107.25L114 107.25L115.75 107.25L115.75 102.38ZM22.13 87.63L22.13 87.63Q18.75 87.63 16.38 90.50Q14 93.38 14 97.38L14 97.38Q14 101.50 16.38 104.38Q18.75 107.25 22.13 107.25L22.13 107.25Q25.50 107.25 27.88 104.38Q30.25 101.50 30.25 97.38L30.25 97.38Q30.25 93.38 27.88 90.50Q25.50 87.63 22.13 87.63ZM22.13 103.50L22.13 103.50Q20.63 103.50 19.63 101.75Q18.63 100 18.63 97.50L18.63 97.50Q18.63 95 19.63 93.25Q20.63 91.50 22.13 91.50L22.13 91.50Q23.63 91.50 24.63 93.25Q25.63 95 25.63 97.50L25.63 97.50Q25.63 100 24.56 101.75Q23.50 103.50 22.13 103.50ZM35 107.25L30.25 107.25L33.25 87.63L39.75 87.63L41.75 97.38L44.25 87.63L50.25 87.63L53.13 107.25L48.13 107.25L46.50 93.88L43.75 107.25L40.38 107.25L36.75 94.13L35 107.25ZM59 107.25L54.25 107.25L57.25 87.63L63.75 87.63L65.63 97.38L68.13 87.63L74.25 87.63L77.13 107.25L72.13 107.25L70.38 93.88L67.75 107.25L64.38 107.25L60.63 94.13L59 107.25ZM88.13 107.25L77.88 107.25L77.88 87.63L88.13 87.63L88.13 91.38L83 91.38L83 95.63L87.50 95.63L87.50 99.25L82.38 99.25L82.38 103L88.13 103L88.13 107.25ZM128 107.25L117.75 107.25L117.75 87.63L128 87.63L128 91.38L122.88 91.38L122.88 95.63L127.38 95.63L127.38 99.25L122.25 99.25L122.25 103L128 103L128 107.25ZM100 98.13L100 98.13Q101.25 98.13 102.13 97.25Q103 96.38 103 95.13L103 95.13L103 93.25Q103 90.88 101.31 89.25Q99.63 87.63 97.25 87.63L97.25 87.63L89.88 87.63L89.88 107.25L94.50 107.25L94.50 98L99.50 107.25L104.63 107.25L100 98.13ZM96.13 96.38L96.13 96.38L94.38 96.38L94.38 91.63L96.25 91.63Q97.25 91.63 97.94 92.25Q98.63 92.88 98.63 93.88L98.63 93.88Q98.50 95 97.81 95.69Q97.13 96.38 96.13 96.38ZM74.38 37.75L74.38 37.75Q73 37.50 70.81 39Q68.63 40.50 67.38 46.25L67.38 46.25Q67.38 49.88 68.19 52Q69 54.13 70.25 54.88L70.25 54.88Q72.75 55.63 75.13 52.94Q77.50 50.25 77.50 46.75L77.50 46.75Q77.63 44.38 77.31 41.69Q77 39 74.38 37.75L74.38 37.75ZM100 37.75L100 37.75Q98.63 37.50 96.44 39Q94.25 40.50 93 46.25L93 46.25Q93 49.88 93.75 52Q94.50 54.13 95.88 54.88L95.88 54.88Q98.38 55.63 100.75 52.94Q103.13 50.25 103.13 46.75L103.13 46.75Q103.25 44.38 102.88 41.69Q102.50 39 100 37.75L100 37.75ZM104 20.75L104 20.75L24.25 20.75Q19.50 20.75 16.06 24.19Q12.63 27.63 12.63 32.50L12.63 32.50L12.63 59.88Q12.63 64.75 16 68.19Q19.38 71.63 24.25 71.63L24.25 71.63L104 71.63Q108.75 71.63 112.25 68.19Q115.75 64.75 115.75 59.88L115.75 59.88L115.75 32.38Q115.75 27.63 112.25 24.19Q108.75 20.75 104 20.75L104 20.75ZM48.13 64.25L48.13 64.25Q48.13 64.25 45.19 59.88Q42.25 55.50 41.25 51.38L41.25 51.38Q40.13 47.25 39.88 47.81Q39.63 48.38 39.63 48.38L39.63 48.38Q39.63 48.38 36.81 54.13Q34 59.88 30.63 64.63L30.63 64.63Q27.13 69.38 25.44 65.44Q23.75 61.50 23.75 61.50L23.75 61.50Q23.13 60.75 22 56L22 56Q21 51.25 20 45.81Q19 40.38 18.25 36L18.25 36Q17.50 31.63 17.50 31.63L17.50 31.63Q19.50 26.25 22 28.25Q24.50 30.25 24.50 30.25L24.50 30.25L29 53.13Q29 53.13 32.75 45.69Q36.50 38.25 38.13 35.63L38.13 35.63Q39.88 32.88 42.13 33.38Q44.38 33.88 44.63 36.75L44.63 36.75Q44.88 39.50 46.81 45.13Q48.75 50.75 48.75 50.75L48.75 50.75Q48.88 42.63 51.25 36Q53.63 29.38 54.13 28.13L54.13 28.13Q54.63 26.88 58.13 26.56Q61.63 26.25 60.63 31.25L60.63 31.25Q59.50 34.13 58.38 38.38L58.38 38.38Q57.25 42.50 56.44 47.06Q55.63 51.63 55.25 56.13L55.25 56.13Q54.88 60.50 55.25 63.75L55.25 63.75Q53.75 68.88 50.94 66.56Q48.13 64.25 48.13 64.25L48.13 64.25ZM76.88 60.63L76.88 60.63Q75.38 61.38 70.50 62.63Q65.63 63.88 61.50 54.88L61.50 54.88Q58.88 45.88 62.31 39.88Q65.75 33.88 65.75 33.88L65.75 33.88Q65.75 33.88 71.63 31Q77.50 28.13 82.75 36.75L82.75 36.75Q86.88 46.13 82.69 53Q78.50 59.88 76.88 60.63L76.88 60.63ZM102.63 60.63L102.63 60.63Q101 61.38 96.19 62.63Q91.38 63.88 87.25 54.88L87.25 54.88Q84.63 45.88 88 39.88Q91.38 33.88 91.38 33.88L91.38 33.88Q91.38 33.88 97.31 31Q103.25 28.13 108.38 36.75L108.38 36.75Q112.50 46.13 108.31 53Q104.13 59.88 102.63 60.63L102.63 60.63ZM65.88 68.63L62 71.50L79.88 82L76.25 71.50L65.88 68.63Z"/></svg>