<svg xmlns="http://www.w3.org/2000/svg" xmlns:xlink="http://www.w3.org/1999/xlink" width="128" height="128"><path fill="#ffffff" d="M125.50 122.75L125.50 122.75L122.88 120.25Q121 117.75 118.69 115.63Q116.38 113.50 113.88 111.63L113.88 111.63Q111.88 110.25 108.38 108.31Q104.88 106.38 104.13 104L104.13 104L103.88 103.88Q105.25 103.75 106.81 103.31Q108.38 102.88 109.75 102.50L109.75 102.50Q111.88 101.88 113.88 101.81Q115.88 101.75 118.13 101.13L118.13 101.13Q119.13 100.88 120.19 100.56Q121.25 100.25 122 100L122 100L122 99.13Q121.25 98 120.19 96.56Q119.13 95.13 117.88 94.13L117.88 94.13Q114.63 91.25 111.13 88.56Q107.63 85.88 104 83.63L104 83.63Q101.88 82.25 99.56 81.31Q97.25 80.38 95 79.25L95 79.25Q94.25 78.88 93.25 78.63Q92.25 78.38 91.75 77.75L91.75 77.75Q90.63 76.25 89.88 74.50Q89.13 72.75 88.25 71.13L88.25 71.13Q86.38 67.50 84.63 63.75Q82.88 60 81.25 56.25L81.25 56.25Q80.13 53.75 79.19 51.25Q78.25 48.75 76.88 46.50L76.88 46.50Q73.63 41 70.13 36.50L70.13 36.50Q66.63 32.13 62.56 28.31Q58.50 24.50 53.88 21.13L53.88 21.13Q49.25 17.75 43.75 14.50L43.75 14.50Q41.38 13.13 38.63 12.44Q35.88 11.75 32.88 11L32.88 11Q31.25 10.88 29.63 10.75Q28 10.63 26.38 10.63L26.38 10.63Q25.38 10.13 24.38 9.19Q23.38 8.25 22.50 7.63L22.50 7.63Q18.88 5.38 11.50 2.69Q4.13 0 1.38 6.63L1.38 6.63Q-0.25 10.88 2.56 14.63Q5.38 18.38 6.88 20.50L6.88 20.50Q8 22 9.19 23.63Q10.38 25.25 11.13 27L11.13 27Q11.63 28.13 11.88 29.19Q12.13 30.25 12.50 31.50L12.50 31.50Q13.63 34.38 14.63 37.38Q15.63 40.38 17 43L17 43Q17.75 44.38 18.50 45.69Q19.25 47 20.13 48.25L20.13 48.25Q20.63 49 21.38 49.50Q22.13 50 22.25 51.13L22.25 51.13Q21.38 52.38 21.13 54.19Q20.88 56 20.38 57.63L20.38 57.63Q18 64.88 18.75 72.94Q19.50 81 22.88 86.25L22.88 86.25Q23.88 87.88 26.19 90.31Q28.50 92.75 31.88 91.38L31.88 91.38Q34.75 90.25 35.06 87.06Q35.38 83.88 36.13 80.63L36.13 80.63Q36.38 79.88 36.31 79.31Q36.25 78.75 37 78.25L37 78.25L37 78.50Q37.75 80.25 38.56 82Q39.38 83.75 40.25 85.50L40.25 85.50Q42.25 88.63 45.19 91.75Q48.13 94.88 51.13 97L51.13 97Q52.63 98.13 54.06 99.75Q55.50 101.38 57 102.13L57 102.13L57 102L57.25 102Q56.88 101.25 56.31 100.94Q55.75 100.63 55.25 100.25L55.25 100.25Q54.13 99.13 52.94 97.75Q51.75 96.38 50.75 95.13L50.75 95.13Q48.13 91.50 45.75 87.56Q43.38 83.63 41.25 79.50L41.25 79.50Q40.25 77.50 39.31 75.38Q38.38 73.25 37.50 71.25L37.50 71.25Q37.13 70.50 37 69.50Q36.88 68.50 36.13 68.13L36.13 68.13Q35.25 69.63 34 70.94Q32.75 72.25 32 74L32 74Q30.88 76.75 30.50 80.06Q30.13 83.38 29.75 86.88L29.75 86.88Q29.50 87 29.50 87Q29.50 87 29.38 87.13L29.38 87.13Q27.25 86.63 26.31 84.81Q25.38 83 24.63 81.25L24.63 81.25Q22.75 76.63 22.44 70.13Q22.13 63.63 23.88 58.38L23.88 58.38Q24.25 57 25.50 53.75Q26.75 50.50 26 49.25L26 49.25Q25.63 48 24.63 47.13Q23.63 46.25 22.88 45.38L22.88 45.38Q22 44.13 21.19 42.69Q20.38 41.25 19.75 39.88L19.75 39.88Q18.25 36.25 17.19 32.44Q16.13 28.63 14.50 25L14.50 25Q13.75 23.25 12.50 21.56Q11.25 19.88 10.25 18.38L10.25 18.38Q9 16.75 7.75 15.25Q6.50 13.75 5.50 11.75L5.50 11.75Q5.13 11 4.88 10Q4.63 9 5.13 8.25L5.13 8.25Q5.25 7.75 5.50 7.50Q5.75 7.25 6.25 7.13L6.25 7.13Q7.13 6.38 9 6.94Q10.88 7.50 11.75 7.88L11.75 7.88Q14.13 8.88 16.13 9.81Q18.13 10.75 20.13 12.13L20.13 12.13Q21.13 12.75 22.13 13.50Q23.13 14.25 24.25 15L24.25 15L26 15Q28 15 30.25 15.19Q32.50 15.38 34.38 16L34.38 16Q37.75 17 40.81 18.56Q43.88 20.13 46.63 21.88L46.63 21.88Q50.88 24.50 54.75 27.75L54.75 27.75Q58.50 31 61.88 34.69Q65.25 38.38 68.13 42.50L68.13 42.50Q71 46.63 73.38 51.13L73.38 51.13Q74.13 52.63 74.63 54.06Q75.13 55.50 75.75 57L75.75 57Q77.13 60.13 78.69 63.31Q80.25 66.50 81.63 69.50L81.63 69.50Q83 72.50 84.38 75.50Q85.75 78.50 87.63 81L87.63 81Q88.63 82.38 91.69 83.19Q94.75 84 96.50 84.75L96.50 84.75Q97.63 85.25 99.38 85.81Q101.13 86.38 102.25 87.13L102.25 87.13Q104.50 88.38 106.63 89.94Q108.75 91.50 110.88 92.88L110.88 92.88Q111.88 93.63 114.25 95.06Q116.63 96.50 116.75 97.75L116.75 97.75Q111.63 97.63 107.56 98.19Q103.50 98.75 100.13 100.13L100.13 100.13Q99.25 100.50 98 100.81Q96.75 101.13 96.63 102.25L96.63 102.25Q97.13 102.88 97.38 103.63Q97.63 104.38 98 105L98 105Q98.75 106.38 100 107.88Q101.25 109.38 102.50 110.25L102.50 110.25Q103.75 111.25 105.13 112.31Q106.50 113.38 108 114.25L108 114.25Q110.50 115.75 113.19 116.81Q115.88 117.88 118.25 119.50L118.25 119.50Q119.75 120.38 121.25 121.44Q122.75 122.50 124.13 123.50L124.13 123.50Q124.75 124.13 125.13 124.75Q125.50 125.38 127 125.75L127 125.75L127 125.50Q126.25 124.88 126.06 124.13Q125.88 123.38 125.50 122.75L125.50 122.75ZM29.50 23.50L29.50 23.50Q28.50 23.50 27.63 23.56Q26.75 23.63 26 23.88L26 23.88L26 24L26.25 24Q26.75 24.75 27.50 25.69Q28.25 26.63 28.88 27.50L28.88 27.50L30.88 31.63L31.13 31.50Q32 30.88 32.44 29.81Q32.88 28.75 32.88 27.13L32.88 27.13Q32.50 26.75 32.31 26.31Q32.13 25.88 31.88 25.38L31.88 25.38Q31.50 24.75 30.75 24.38Q30 24 29.50 23.50Z"/></svg>