<svg xmlns="http://www.w3.org/2000/svg" xmlns:xlink="http://www.w3.org/1999/xlink" width="128" height="128"><path fill="#000000" d="M2 90.50L2 90.50L6.13 90.50L6.13 74.25L12.50 88.38Q13 89.63 13.88 90.19Q14.75 90.75 16.25 90.75L16.25 90.75Q17.75 90.75 18.63 90.19Q19.50 89.63 20 88.38L20 88.38L26.38 74.25L26.38 90.50L30.50 90.50L30.50 74.25Q30.50 73.13 30 72.50Q29.50 71.88 28.50 71.50L28.50 71.50Q26.25 70.75 24.69 71.31Q23.13 71.88 22.38 73.50L22.38 73.50L16.13 87.50L10.13 73.50Q9.38 71.88 7.81 71.31Q6.25 70.75 3.88 71.50L3.88 71.50Q3 71.88 2.50 72.50Q2 73.13 2 74.25L2 74.25L2 90.50ZM33.88 77.25L33.88 77.25L38 77.25L38 86.25Q38 86.50 38.38 87.19Q38.75 87.88 40.38 87.88L40.38 87.88Q41.25 87.88 45.25 87.88Q49.25 87.88 49.38 87.88L49.38 87.88L49.38 77.25L53.50 77.25Q53.50 77.25 53.50 84.50Q53.50 91.75 53.50 91.75L53.50 91.75Q53.50 94.50 51 95.31Q48.50 96.13 47 96.25L47 96.25L34 96.25L34 93.38Q34 93.38 40.50 93.38Q47 93.38 47 93.38L47 93.38Q49 93.25 49.19 92.50Q49.38 91.75 49.38 91.38L49.38 91.38L49.38 90.38L40.63 90.38Q37.50 90.25 35.69 89.13Q33.88 88 33.88 86.50L33.88 86.50Q33.88 86.38 33.94 81.88Q34 77.38 33.88 77.25L33.88 77.25ZM56.63 90.50L56.63 90.50L68.50 90.50Q69.50 90.50 70.44 90.25Q71.38 90 72.25 89.63L72.25 89.63Q73.63 89 74.25 88.19Q74.88 87.38 74.88 86.25L74.88 86.25L74.88 83.25Q74.88 82.38 74.13 81.63Q73.38 80.88 72 80.25L72 80.25Q71.25 80 70.31 79.81Q69.38 79.63 68.50 79.63L68.50 79.63L63.50 79.63Q62.25 79.63 61.63 79.25Q61 78.88 60.88 78L60.88 78Q60.75 78 60.75 77.88Q60.75 77.75 60.75 77.63L60.75 77.63L60.75 75.88Q60.75 75.75 60.75 75.69Q60.75 75.63 60.88 75.50L60.88 75.50Q61 74.88 61.44 74.63Q61.88 74.38 62.88 74.25L62.88 74.25L63.25 74.25L75 74.25L75 71.50L63.50 71.50Q62.25 71.50 61.50 71.56Q60.75 71.63 60.13 71.88L60.13 71.88Q58.38 72.38 57.50 73.38Q56.63 74.38 56.63 75.88L56.63 75.88L56.63 78.38Q56.63 79.75 58.13 80.81Q59.63 81.88 62.25 82.13L62.25 82.13Q62.63 82.13 62.88 82.13Q63.13 82.13 63.50 82.13L63.50 82.13L67.75 82.13Q67.88 82.13 68 82.13Q68.13 82.13 68.13 82.25L68.13 82.25Q69.13 82.25 69.63 82.44Q70.13 82.63 70.38 83L70.38 83Q70.63 83.13 70.69 83.31Q70.75 83.50 70.75 83.75L70.75 83.75L70.75 86.13Q70.75 86.38 70.56 86.63Q70.38 86.88 70.13 87.13L70.13 87.13Q69.88 87.38 69.44 87.50Q69 87.63 68.38 87.75L68.38 87.75L68 87.75L56.63 87.75L56.63 90.50ZM100.50 85.75L100.50 85.75Q100.50 87.75 102.06 88.94Q103.63 90.13 106.88 90.38L106.88 90.38Q107.13 90.38 107.44 90.44Q107.75 90.50 108 90.50L108 90.50L118.75 90.50L118.75 87.75L108 87.75Q106.13 87.75 105.38 87.25Q104.63 86.75 104.63 85.63L104.63 85.63L104.63 71.50L100.50 71.50L100.50 85.75ZM77.50 85.88L77.50 85.88L77.50 76.13Q77.50 74.25 78.81 73.13Q80.13 72 82.75 71.63L82.75 71.63Q83 71.63 83.25 71.56Q83.50 71.50 83.75 71.50L83.75 71.50L91.63 71.50Q91.88 71.50 92.19 71.56Q92.50 71.63 92.75 71.63L92.75 71.63Q95.38 72 96.63 73.13Q97.88 74.25 97.88 76.13L97.88 76.13L97.88 85.88Q97.88 87.38 97.31 88.25Q96.75 89.13 95.50 89.63L95.50 89.63L99.50 93.25L94.75 93.25L91.50 90.38L88.25 90.50L83.75 90.50Q83.25 90.50 82.63 90.44Q82 90.38 81.38 90.25L81.38 90.25Q79.38 89.63 78.44 88.56Q77.50 87.50 77.50 85.88L77.50 85.88ZM81.88 85.63L82 85.63Q82 85.75 82 85.81Q82 85.88 82 86L82 86Q82.25 86.88 83 87.31Q83.75 87.75 85 87.75L85 87.75L88.63 87.75L85.25 84.75L90 84.75L93 87.38Q93.38 87.13 93.69 86.81Q94 86.50 94 86.13L94 86.13Q94.13 86 94.13 85.88Q94.13 85.75 94.13 85.63L94.13 85.63L94.13 76.25Q94.13 76.25 94.13 76.13Q94.13 76 94 76L94 76Q93.88 75.13 93.13 74.69Q92.38 74.25 91.13 74.25L91.13 74.25L85 74.25Q83.63 74.25 82.75 74.81Q81.88 75.38 81.88 76.25L81.88 76.25L81.88 85.63ZM122.38 67L122.38 67Q120.50 66.88 119 67.06Q117.50 67.25 116.25 67.88L116.25 67.88Q115.88 68 115.44 68.06Q115 68.13 115 68.63L115 68.63Q115.13 68.75 115.19 69.06Q115.25 69.38 115.50 69.63L115.50 69.63Q115.75 70.13 116.19 70.69Q116.63 71.25 117.13 71.50L117.13 71.50Q117.63 71.88 118.13 72.25Q118.63 72.63 119.13 73L119.13 73Q120 73.50 121 73.94Q122 74.38 122.88 74.88L122.88 74.88Q123.38 75.25 123.94 75.63Q124.50 76 125 76.38L125 76.38Q125.25 76.63 125.44 76.88Q125.63 77.13 126 77.25L126 77.25L126 77.13Q125.88 76.88 125.75 76.63Q125.63 76.38 125.50 76.13L125.50 76.13L124.50 75.25Q123.88 74.25 123 73.50Q122.13 72.75 121.25 72L121.25 72Q120.50 71.50 119.25 70.81Q118 70.13 117.63 69.25L117.63 69.25L117.63 69.13Q118.13 69.13 118.69 68.94Q119.25 68.75 119.75 68.63L119.75 68.63Q120.50 68.50 121.31 68.44Q122.13 68.38 122.88 68.13L122.88 68.13L124.38 67.75L124.38 67.50Q124 67 123.63 66.50Q123.25 66 122.88 65.63L122.88 65.63Q121.63 64.50 120.31 63.56Q119 62.63 117.63 61.75L117.63 61.75Q116.88 61.25 116 60.88Q115.13 60.50 114.38 60.13L114.38 60.13Q114.13 60 113.75 59.88Q113.38 59.75 113.13 59.50L113.13 59.50Q112.75 59 112.44 58.38Q112.13 57.75 111.88 57.13L111.88 57.13Q111.13 55.75 110.50 54.38Q109.88 53 109.25 51.63L109.25 51.63Q108.88 50.75 108.56 49.81Q108.25 48.88 107.63 48.13L107.63 48.13Q105.25 44 102.38 41.31Q99.50 38.63 95.50 36.25L95.50 36.25Q94.63 35.75 93.56 35.50Q92.50 35.25 91.50 35L91.50 35L89.13 34.88Q88.75 34.75 88.38 34.38Q88 34 87.63 33.75L87.63 33.75Q86.25 32.88 83.56 31.94Q80.88 31 79.88 33.38L79.88 33.38Q79.25 35 80.31 36.38Q81.38 37.75 81.88 38.50L81.88 38.50Q82.25 39.13 82.75 39.69Q83.25 40.25 83.50 40.88L83.50 40.88Q83.63 41.25 83.75 41.69Q83.88 42.13 84 42.50L84 42.50Q84.38 43.63 84.75 44.69Q85.13 45.75 85.63 46.75L85.63 46.75Q85.88 47.25 86.19 47.75Q86.50 48.25 86.75 48.75L86.75 48.75Q87 49 87.25 49.19Q87.50 49.38 87.63 49.75L87.63 49.75Q87.25 50.25 87.13 50.94Q87 51.63 86.88 52.13L86.88 52.13Q86 54.75 86.31 57.75Q86.63 60.75 87.75 62.75L87.75 62.75Q88.13 63.38 89 64.25Q89.88 65.13 91.13 64.63L91.13 64.63Q92.13 64.13 92.19 63Q92.25 61.88 92.63 60.63L92.63 60.63Q92.63 60.38 92.63 60.19Q92.63 60 92.88 59.75L92.88 59.75L92.88 59.88L94.13 62.38Q94.88 63.63 96 64.75Q97.13 65.88 98.25 66.63L98.25 66.63Q98.75 67.13 99.25 67.69Q99.75 68.25 100.50 68.50L100.50 68.50L100.50 68.50L100.38 68.50Q100.25 68.25 100.06 68.13Q99.88 68 99.75 67.88L99.75 67.88Q99.25 67.38 98.81 66.88Q98.38 66.38 98.13 66L98.13 66Q97.13 64.63 96.25 63.19Q95.38 61.75 94.50 60.25L94.50 60.25Q94.13 59.50 93.81 58.69Q93.50 57.88 93.13 57.13L93.13 57.13Q93 56.88 92.94 56.50Q92.88 56.13 92.63 56L92.63 56Q92.38 56.63 91.94 57.06Q91.50 57.50 91.13 58.25L91.13 58.25Q90.75 59.25 90.63 60.44Q90.50 61.63 90.25 62.88L90.25 62.88L90.13 63Q89.38 62.88 89.06 62.19Q88.75 61.50 88.50 60.88L88.50 60.88Q87.75 59.13 87.63 56.75Q87.50 54.38 88.13 52.50L88.13 52.50Q88.38 52 88.81 50.75Q89.25 49.50 89 49.13L89 49.13Q88.75 48.63 88.38 48.31Q88 48 87.75 47.63L87.75 47.63Q87.50 47.25 87.19 46.69Q86.88 46.13 86.63 45.63L86.63 45.63Q86.13 44.38 85.75 42.94Q85.38 41.50 84.75 40.13L84.75 40.13Q84.38 39.50 83.94 38.88Q83.50 38.25 83.13 37.75L83.13 37.75Q82.63 37.13 82.19 36.56Q81.75 36 81.38 35.25L81.38 35.25Q81.25 35 81.19 34.63Q81.13 34.25 81.25 34L81.25 34Q81.38 33.75 81.44 33.69Q81.50 33.63 81.75 33.50L81.75 33.50Q82 33.38 82.69 33.56Q83.38 33.75 83.75 33.88L83.75 33.88Q84.63 34.25 85.31 34.63Q86 35 86.75 35.38L86.75 35.38Q87.13 35.63 87.50 36Q87.88 36.38 88.25 36.50L88.25 36.50L89 36.50Q89.75 36.63 90.56 36.63Q91.38 36.63 92 36.88L92 36.88Q93.25 37.25 94.38 37.81Q95.50 38.38 96.50 39L96.50 39Q99.63 41 102.13 43.75Q104.63 46.50 106.38 49.75L106.38 49.75Q106.63 50.38 106.81 50.88Q107 51.38 107.25 52L107.25 52Q107.75 53.13 108.31 54.25Q108.88 55.38 109.38 56.50L109.38 56.50Q109.88 57.63 110.44 58.75Q111 59.88 111.63 60.75L111.63 60.75Q112 61.25 113.13 61.56Q114.25 61.88 114.88 62.13L114.88 62.13Q115.38 62.38 116 62.56Q116.63 62.75 117 63L117 63Q117.88 63.50 118.63 64.06Q119.38 64.63 120.13 65.13L120.13 65.13Q120.63 65.38 121.44 65.94Q122.25 66.50 122.38 67L122.38 67ZM90.25 39.63L90.25 39.63Q89.88 39.63 89.56 39.63Q89.25 39.63 89 39.75L89 39.75L89 39.75L89 39.75Q89.25 40.25 89.50 40.50Q89.75 40.75 90 41.13L90 41.13L90.75 42.63L90.75 42.50Q91.13 42.25 91.31 41.88Q91.50 41.50 91.50 41L91.50 41Q91.38 40.88 91.31 40.69Q91.25 40.50 91.13 40.25L91.13 40.25Q91 40.13 90.69 39.94Q90.38 39.75 90.25 39.63L90.25 39.63Z"/></svg>