<svg xmlns="http://www.w3.org/2000/svg" xmlns:xlink="http://www.w3.org/1999/xlink" width="128" height="128"><path fill="#000000" d="M55.25 4.13L55.25 4.13Q55 4.25 53.81 4.63Q52.63 5 51.25 5.50L51.25 5.50Q43.75 7.88 38.75 10.56Q33.75 13.25 32.50 15.50L32.50 15.50Q32 16.38 31.88 17.06Q31.75 17.75 32 18.50L32 18.50Q32.38 19.25 33.13 20Q33.88 20.75 35.50 21.88L35.50 21.88Q36.25 22.50 37.44 23.50Q38.63 24.50 39.50 25.38L39.50 25.38Q43.63 29.50 45.63 34.50Q47.63 39.50 47.38 45.13L47.38 45.13Q47.13 51.63 44.13 58Q41.13 64.38 35.38 70.88L35.38 70.88Q33.25 73.13 30.94 75.25Q28.63 77.38 24.63 80.50L24.63 80.50Q21.25 83.25 19.31 85.06Q17.38 86.88 16.25 88.63L16.25 88.63Q12.50 93.63 13.44 98.19Q14.38 102.75 20.13 106.50L20.13 106.50Q25.25 109.88 33.75 112.50Q42.25 115.13 52.63 116.75L52.63 116.75Q56.13 117.25 59.56 117.50Q63 117.75 63.88 117.63L63.88 117.63L64.75 117.50L66.25 115Q71.50 105.38 74.25 96.25Q77 87.13 77.25 77.75L77.25 77.75Q77.38 73.63 76.94 69.13Q76.50 64.63 75.63 61.75L75.63 61.75Q75.38 61.25 75.31 60.88Q75.25 60.50 75.25 60.50L75.25 60.50Q75.25 60.50 76.56 60.13Q77.88 59.75 79.63 59.13L79.63 59.13Q89.13 56.38 98.06 54.19Q107 52 114.50 50.75L114.50 50.75Q116 50.50 117.06 50.25Q118.13 50 118.25 49.88L118.25 49.88Q118.63 49.50 117.63 47.88Q116.63 46.25 114.63 44.25L114.63 44.25Q111.13 40.63 106.25 37.50L106.25 37.50Q101.50 34.25 95.63 31.69Q89.75 29.13 83.13 27.13L83.13 27.13Q76.38 25.25 69 24L69 24Q66.25 23.63 65.38 23.19Q64.50 22.75 63.38 21.38L63.38 21.38Q61.75 19.13 60.06 15.13Q58.38 11.13 56.25 4.13L56.25 4.13Q56.13 4 56 4Q55.88 4 55.25 4.13L55.25 4.13L55.25 4.13ZM56.50 7.63L56.50 7.63Q57.38 9.88 57.88 11.50Q58.38 13.13 58.38 13.75L58.38 13.75L58.38 14.38L57.38 14.38Q53.63 13.88 48.75 13.13Q43.88 12.38 42.63 12L42.63 12Q42.25 12 42.06 11.88Q41.88 11.75 42 11.63L42 11.63Q42.13 11.50 43.63 10.75Q45.13 10 48.88 8.25L48.88 8.25Q52.50 6.63 54 6Q55.50 5.38 55.63 5.25L55.63 5.25Q55.63 5.25 55.94 5.94Q56.25 6.63 56.50 7.63L56.50 7.63L56.50 7.63ZM45.88 13.88L45.88 13.88Q50.50 14.88 53.63 15.44Q56.75 16 57.50 16L57.50 16Q58.25 16 57.75 16.38Q57.25 16.75 53.88 18.88L53.88 18.88Q51.25 20.50 50.50 20.81Q49.75 21.13 49.13 21.13L49.13 21.13L48.13 21.13L45.50 18.50Q43.13 16.13 41.69 14.56Q40.25 13 40.25 12.75L40.25 12.75Q40.25 12.75 40.31 12.69Q40.38 12.63 40.38 12.75L40.38 12.75Q40.50 12.75 42.13 13.13Q43.75 13.50 45.88 13.88L45.88 13.88L45.88 13.88ZM41.38 16.88L41.38 16.88Q42.50 18.13 43.25 19.13Q44 20.13 44 20.13L44 20.13Q43.88 20.25 41.38 19.63Q38.88 19 36.88 18.38L36.88 18.38Q35.13 17.88 34.81 17.56Q34.50 17.25 34.88 16.63L34.88 16.63Q35.25 16.25 36.81 14.94Q38.38 13.63 38.50 13.63L38.50 13.63Q38.50 13.63 39.38 14.56Q40.25 15.50 41.38 16.88L41.38 16.88L41.38 16.88ZM61 20.50L61 20.50Q61.38 21.50 61.69 22.31Q62 23.13 62 23.13L62 23.13Q62 23.13 57.88 22.50Q53.75 21.88 53.25 21.75L53.25 21.75Q53.13 21.75 54 21.13Q54.88 20.50 56.25 19.63L56.25 19.63Q57.63 18.75 58.63 18.25Q59.63 17.75 59.75 17.75L59.75 17.75Q59.75 17.75 60.13 18.56Q60.50 19.38 61 20.50L61 20.50ZM43.38 23.25L43.38 23.25Q43.50 23.25 44.44 26.44Q45.38 29.63 45.38 29.63L45.38 29.63Q45.38 29.63 44.75 28.94Q44.13 28.25 43.25 27.25L43.25 27.25Q42.50 26.25 41.44 25Q40.38 23.75 39.63 23L39.63 23L37.88 21.25L40.63 22.13Q41.63 22.50 42.44 22.81Q43.25 23.13 43.38 23.25L43.38 23.25ZM51.13 24L51.13 24Q53.63 24.38 55.44 24.69Q57.25 25 57.25 25L57.25 25Q57.25 25 55.94 26.06Q54.63 27.13 52.75 28.50L52.75 28.50Q50.88 29.88 49.50 30.88Q48.13 31.88 48.13 31.88L48.13 31.88Q48.13 31.75 47.94 31.25Q47.75 30.75 47.50 30.13L47.50 30.13Q47.38 29.38 46.88 28.13Q46.38 26.88 46 25.75L46 25.75Q45.50 24.75 45.19 23.94Q44.88 23.13 45 23.13L45 23.13Q45 23.13 46.75 23.38Q48.50 23.63 51.13 24L51.13 24L51.13 24ZM59.50 26.75L59.50 26.75Q60 28 60.25 29.44Q60.50 30.88 60.63 33.38L60.63 33.38Q60.63 34.75 60.69 35.69Q60.75 36.63 60.63 36.63L60.63 36.63Q60.63 36.63 59.94 36.38Q59.25 36.13 58.25 35.88L58.25 35.88Q56.50 35.13 53.69 34.25Q50.88 33.38 50.50 33.25L50.50 33.25Q50.25 33.25 51.19 32.31Q52.13 31.38 54.38 29.50L54.38 29.50Q56.25 27.88 57.56 26.81Q58.88 25.75 58.88 25.75L58.88 25.75Q59 25.75 59.19 26Q59.38 26.25 59.50 26.75L59.50 26.75L59.50 26.75ZM68.13 27.13L68.13 27.13Q70.88 27.75 73 28.19Q75.13 28.63 75.38 28.63L75.38 28.63Q75.63 28.63 74.75 29.19Q73.88 29.75 70.88 31.38L70.88 31.38Q68.88 32.50 66.88 33.63Q64.88 34.75 64.13 35.13L64.13 35.13Q63.38 35.63 62.75 35.94Q62.13 36.25 62.13 36.25L62.13 36.25Q62.13 36.13 62.19 35.81Q62.25 35.50 62.38 35L62.38 35Q62.88 33.13 62.63 31.06Q62.38 29 61.50 27.13L61.50 27.13Q61.25 26.63 61.06 26.25Q60.88 25.88 60.88 25.88L60.88 25.88Q60.88 25.75 62.06 25.94Q63.25 26.13 68.13 27.13L68.13 27.13ZM78.25 31.63L78.25 31.63Q78.13 32.25 77.81 33.19Q77.50 34.13 77.25 34.88L77.25 34.88Q76.75 36.38 75.31 39.31Q73.88 42.25 73.63 42.38L73.63 42.38Q73.50 42.38 72.75 42Q72 41.63 71 41.13L71 41.13Q70 40.50 68.75 39.88Q67.50 39.25 66.75 38.88L66.75 38.88L64.88 38.13L71.63 33.75Q75.88 31 77.19 30.25Q78.50 29.50 78.50 29.75L78.50 29.75Q78.50 29.88 78.44 30.44Q78.38 31 78.25 31.63L78.25 31.63ZM83.25 30.13L83.25 30.13Q88.50 31.63 93 33.31Q97.50 35 97.25 35.25L97.25 35.25Q97.13 35.38 96.56 35.56Q96 35.75 95.25 36L95.25 36Q91.25 37.13 86.44 38.75Q81.63 40.38 79 41.50L79 41.50Q78.25 41.88 77.63 42.13Q77 42.38 77 42.25L77 42.25Q77 42.25 77.25 41.25Q77.50 40.25 77.88 38.88L77.88 38.88Q78.75 36.13 79.56 33.13Q80.38 30.13 80.38 29.63L80.38 29.63Q80.38 29.50 80.44 29.44Q80.50 29.38 80.63 29.38L80.63 29.38Q80.88 29.38 81.56 29.63Q82.25 29.88 83.25 30.13L83.25 30.13ZM52.88 37.38L52.88 37.38Q54.13 37.75 55.38 38.25Q56.63 38.75 57.13 39L57.13 39Q58 39.50 58.13 39.63Q58.25 39.75 58 40L58 40Q57.50 40.50 53.94 43.88Q50.38 47.25 50.13 47.25L50.13 47.25Q50.13 47.38 50.06 46.69Q50 46 50 44.88L50 44.88Q50 43.13 49.81 40.44Q49.63 37.75 49.50 37L49.50 37Q49.38 36.38 49.88 36.44Q50.38 36.50 52.88 37.38L52.88 37.38ZM97.63 38.75L97.63 38.75Q96.50 40.63 94.81 43Q93.13 45.38 91.75 47.13L91.75 47.13Q90.38 48.88 88.13 51.38Q85.88 53.88 85.63 53.88L85.63 53.88Q85.63 53.88 85.25 53.44Q84.88 53 84.38 52.25L84.38 52.25Q82.75 49.88 80.88 47.88Q79 45.88 77.25 44.63L77.25 44.63Q77.13 44.50 77 44.44Q76.88 44.38 77 44.25L77 44.25Q77 44.25 79.44 43.38Q81.88 42.50 85.25 41.25L85.25 41.25Q92.13 38.75 95.31 37.69Q98.50 36.63 98.75 36.75L98.75 36.75Q98.75 36.75 98.44 37.31Q98.13 37.88 97.63 38.75L97.63 38.75ZM103.38 38.25L103.38 38.25Q108.13 41.63 111.25 44.19Q114.38 46.75 115.50 48.38L115.50 48.38Q115.88 48.75 116.06 49.06Q116.25 49.38 116.13 49.38L116.13 49.38Q116.13 49.38 114.81 49.56Q113.50 49.75 111.63 49.88L111.63 49.88Q104.25 50.63 99.06 51.38Q93.88 52.13 91.13 52.75L91.13 52.75Q90.38 53 89.88 53.13Q89.38 53.25 89.38 53.25L89.38 53.25Q89.25 53.25 89.69 52.69Q90.13 52.13 90.75 51.38L90.75 51.38Q94 47.63 96.63 43.94Q99.25 40.25 100.38 38.13L100.38 38.13Q100.63 37.63 100.88 37.25Q101.13 36.88 101.25 36.88L101.25 36.88Q101.25 36.88 101.88 37.25Q102.50 37.63 103.38 38.25L103.38 38.25L103.38 38.25ZM67.88 43.75L67.88 43.75Q68.88 44.25 69.44 44.63Q70 45 70 45.13L70 45.13Q70 45.25 64.63 48.19Q59.25 51.13 59.13 51L59.13 51Q59.13 51 59.50 49.88Q59.88 48.75 60.38 47.13L60.38 47.13Q60.88 45.50 61.38 44Q61.88 42.50 61.88 42L61.88 42L62.13 40.63L64 41.63Q64.75 42 65.88 42.63Q67 43.25 67.88 43.75L67.88 43.75L67.88 43.75ZM59 44.13L59 44.13Q58.25 46.75 56.94 49.63Q55.63 52.50 54.88 53L54.88 53Q54.75 53.13 54.31 52.88Q53.88 52.63 52.88 51.88L52.88 51.88Q52.13 51.25 51.44 50.75Q50.75 50.25 50.63 50L50.63 50Q50.38 49.88 50.25 49.75Q50.13 49.63 50.25 49.63L50.25 49.63Q50.75 49.13 55.06 45.63Q59.38 42.13 59.50 42.13L59.50 42.13Q59.50 42.25 59.38 42.81Q59.25 43.38 59 44.13L59 44.13L59 44.13ZM78.38 50.25L78.38 50.25Q79.50 51.13 81.50 52.88Q83.50 54.63 83.25 54.75L83.25 54.75Q83.25 54.75 80.88 55.50Q78.50 56.25 75.25 57.38L75.25 57.38Q72 58.38 68.81 59.38Q65.63 60.38 64.50 60.75L64.50 60.75Q63.25 61.25 62.44 61.50Q61.63 61.75 61.63 61.75L61.63 61.75Q61.50 61.75 62.25 60.94Q63 60.13 64 58.88L64 58.88Q66.75 56 69.19 53.13Q71.63 50.25 72.63 49L72.63 49L73.75 47.50L75.13 48.38Q75.75 48.63 76.69 49.25Q77.63 49.88 78.38 50.25L78.38 50.25ZM70 48L70 48Q70 48.13 69.38 48.88Q68.75 49.63 67.88 50.75L67.88 50.75Q67.13 51.75 65.44 53.88Q63.75 56 62.13 58.13L62.13 58.13L58.38 63L58.25 62.13Q58 61 57.50 59.06Q57 57.13 56.63 56.38L56.63 56.38L56.13 55.25L58.50 54Q60.38 53.13 63.63 51.38Q66.88 49.63 68.75 48.50L68.75 48.50Q69.88 47.88 70.06 47.81Q70.25 47.75 70 48L70 48L70 48ZM49.88 53.88L49.88 53.88Q50.63 54.25 51.19 54.69Q51.75 55.13 51.75 55.25L51.75 55.25Q51.75 55.50 48.50 58Q45.25 60.50 45.13 60.38L45.13 60.38Q45.13 60.38 45.50 59.63Q45.88 58.88 46.50 57.88L46.50 57.88Q47 56.88 47.50 55.81Q48 54.75 48.13 54.38L48.13 54.38Q48.25 54 48.44 53.75Q48.63 53.50 48.75 53.50L48.75 53.50Q48.88 53.50 49.19 53.63Q49.50 53.75 49.88 53.88L49.88 53.88L49.88 53.88ZM55.38 60L55.38 60Q55.63 60.75 55.94 62.06Q56.25 63.38 56 63.63L56 63.63Q56 63.63 54.25 64.44Q52.50 65.25 50.13 66.38L50.13 66.38Q47.75 67.50 45.06 68.75Q42.38 70 40.88 70.75L40.88 70.75Q39.50 71.38 38.56 71.81Q37.63 72.25 37.75 72.25L37.75 72.25Q37.88 72.13 39.19 71Q40.50 69.88 42.38 68.38L42.38 68.38Q45.88 65.50 49.19 62.56Q52.50 59.63 53.25 58.88L53.25 58.88L53.88 58.25L54.38 58.75Q54.63 59 54.94 59.38Q55.25 59.75 55.38 60L55.38 60L55.38 60ZM50.13 60L50.13 60Q49.75 60.25 48.13 61.69Q46.50 63.13 44.63 64.75L44.63 64.75Q42.75 66.50 40.75 68.25Q38.75 70 37.75 70.75L37.75 70.75Q36 72.25 36.06 72.06Q36.13 71.88 38.50 68.75L38.50 68.75Q40.25 66.50 41.63 65.25Q43 64 45.50 62.25L45.50 62.25Q46.75 61.38 48.69 60.31Q50.63 59.25 50.88 59.25L50.88 59.25Q50.88 59.25 50.69 59.44Q50.50 59.63 50.13 60L50.13 60ZM74.13 62.13L74.13 62.13Q74.25 62.63 74.38 63.94Q74.50 65.25 74.50 66.63L74.50 66.63L74.63 70L73.88 69.63Q71.88 68.63 67.81 66.38Q63.75 64.13 64 64L64 64Q65.25 63.50 69.50 62.13Q73.75 60.75 73.75 60.75L73.75 60.75Q73.88 60.88 74 61.25Q74.13 61.63 74.13 62.13L74.13 62.13ZM67.88 68L67.88 68Q70.13 69.38 71.81 70.38Q73.50 71.38 73.50 71.38L73.50 71.38Q73.63 71.50 73.31 71.69Q73 71.88 72.63 72.13L72.63 72.13Q71.88 72.75 66.50 75.56Q61.13 78.38 61 78.25L61 78.25Q61 78.25 61.06 77.63Q61.13 77 61.25 76.25L61.25 76.25Q61.63 74.63 61.88 70.94Q62.13 67.25 61.88 65.75L61.88 65.75Q61.88 65.25 61.88 64.94Q61.88 64.63 62 64.63L62 64.63Q62.13 64.63 63.81 65.63Q65.50 66.63 67.88 68L67.88 68L67.88 68ZM59.25 66.75L59.25 66.75Q59.38 68.13 59.19 70.63Q59 73.13 58.63 74.75L58.63 74.75Q58.13 76.50 57.88 77.31Q57.63 78.13 57.38 78.25L57.38 78.25Q57.13 78.38 55.75 77.06Q54.38 75.75 53.25 74.50L53.25 74.50Q52.25 73.13 51.19 71.25Q50.13 69.38 50.25 69.13L50.25 69.13Q50.38 69 54.56 67.31Q58.75 65.63 59 65.63L59 65.63Q59 65.63 59.06 65.94Q59.13 66.25 59.25 66.75L59.25 66.75L59.25 66.75ZM49.13 71.63L49.13 71.63Q49.75 73 51.13 74.81Q52.50 76.63 54.25 78.25L54.25 78.25Q55.25 79.38 55.56 79.75Q55.88 80.13 55.75 80.25L55.75 80.25Q55 80.75 52.31 82Q49.63 83.25 47.63 84L47.63 84Q45.13 85 42.50 85.94Q39.88 86.88 39.75 86.75L39.75 86.75Q39.75 86.75 40.44 85.56Q41.13 84.38 42 82.75L42 82.75Q44.13 79.13 46.19 75.13Q48.25 71.13 48.25 70.75L48.25 70.75Q48.25 70.25 48.44 70.44Q48.63 70.63 49.13 71.63L49.13 71.63L49.13 71.63ZM44 71.75L44 71.75Q44 71.88 43.69 72.56Q43.38 73.25 43.13 74.13L43.13 74.13Q41.63 77.75 39.38 81.75Q37.13 85.75 36.50 85.75L36.50 85.75Q36 85.75 35.44 83.31Q34.88 80.88 34.63 78.13L34.63 78.13L34.50 76.25L39.13 73.88Q41 72.88 42.44 72.19Q43.88 71.50 43.88 71.50L43.88 71.50Q44 71.50 44 71.56Q44 71.63 44 71.75L44 71.75L44 71.75ZM74.75 76.38L74.75 76.38Q74.75 78.50 74.13 82.31Q73.50 86.13 73 86.75L73 86.75Q72.75 86.88 70.94 86.19Q69.13 85.50 67.13 84.50L67.13 84.50Q65.38 83.63 63.13 82.25Q60.88 80.88 60.88 80.63L60.88 80.63Q60.88 80.63 61.25 80.44Q61.63 80.25 62.25 80L62.25 80Q63.25 79.50 67.06 77.50Q70.88 75.50 72.88 74.25L72.88 74.25L74.50 73.38L74.63 74.13Q74.63 74.38 74.69 75.06Q74.75 75.75 74.75 76.38L74.75 76.38L74.75 76.38ZM31.38 79.63L31.38 79.63Q31.50 81.25 32 83.19Q32.50 85.13 33.13 86.75L33.13 86.75Q33.38 87.38 33.56 87.88Q33.75 88.38 33.75 88.50L33.75 88.50Q33.50 88.63 26.31 90.63Q19.13 92.63 17.75 92.88L17.75 92.88L16.88 93L17 92.38Q17.13 91.63 17.94 89.94Q18.75 88.25 19.50 87.13L19.50 87.13Q20.38 85.75 22.31 83.81Q24.25 81.88 25.88 80.75L25.88 80.75Q27 80 29 78.81Q31 77.63 31.13 77.75L31.13 77.75Q31.13 77.75 31.19 78.31Q31.25 78.88 31.38 79.63L31.38 79.63L31.38 79.63ZM62.75 84.25L62.75 84.25Q66 85.88 67.56 86.56Q69.13 87.25 70.75 87.75L70.75 87.75L72.25 88.38L71.25 88.88Q67.13 91 61.13 93.44Q55.13 95.88 53.25 96.25L53.25 96.25Q52.75 96.25 52.69 96.25Q52.63 96.25 52.63 96L52.63 96Q53 95.13 56 88.88Q59 82.63 59.13 82.63L59.13 82.63Q59.13 82.63 60.25 83.13Q61.38 83.63 62.75 84.25L62.75 84.25L62.75 84.25ZM55.25 83.88L55.25 83.88Q55 84.88 54.06 87.69Q53.13 90.50 52.38 92.13L52.38 92.13Q51.75 93.50 50.63 95.56Q49.50 97.63 49.25 97.88L49.25 97.88Q49.13 98 47.25 96.88Q45.38 95.75 44.13 95L44.13 95Q42.75 94 40.63 91.88Q38.50 89.75 38.50 89.50L38.50 89.50Q38.50 89.38 40.13 88.81Q41.75 88.25 43.88 87.50L43.88 87.50Q48.38 85.88 51 84.94Q53.63 84 54.38 83.63L54.38 83.63Q55.13 83.25 55.25 83.25Q55.38 83.25 55.25 83.88L55.25 83.88L55.25 83.88ZM72.25 90.25L72.25 90.25Q72.25 90.63 72 91.81Q71.75 93 71.50 94.38L71.50 94.38Q70.63 98.75 69.69 101.50Q68.75 104.25 68 104.25L68 104.25Q67.13 104.25 62.38 103.06Q57.63 101.88 55.50 101.25L55.50 101.25Q54.13 100.75 53.06 100.19Q52 99.63 51.50 99.38L51.50 99.38Q51.25 99.13 51.63 98.88Q52 98.63 53.88 97.88L53.88 97.88Q59.75 95.50 65.38 93Q71 90.50 71.75 89.88L71.75 89.88Q72.13 89.50 72.25 89.56Q72.38 89.63 72.25 90.25L72.25 90.25L72.25 90.25ZM32.50 92.13L32.50 92.13Q31.88 93.25 30.44 95.38Q29 97.50 26.38 101L26.38 101L23.38 105L22.50 104.38Q21.50 103.75 20.25 102.38Q19 101 18.38 100L18.38 100Q17.75 98.88 17.31 97.63Q16.88 96.38 16.88 95.25L16.88 95.25L16.75 94.25L18.25 94Q19.75 93.88 23.25 93.19Q26.75 92.50 29.75 91.63L29.75 91.63Q31.13 91.38 32.13 91.13Q33.13 90.88 33.13 90.88L33.13 90.88Q33.13 90.88 32.94 91.25Q32.75 91.63 32.50 92.13L32.50 92.13L32.50 92.13ZM41.13 96.25L41.13 96.25Q41.88 96.75 42.81 97.31Q43.75 97.88 44.25 98.25L44.25 98.25L45.50 99L44.88 99.25Q44.63 99.25 41.63 100.38Q38.63 101.50 34.63 102.88L34.63 102.88Q27.88 105.38 26.38 105.88Q24.88 106.38 24.75 106.13L24.75 106.13Q24.63 105.88 24.56 105.75Q24.50 105.63 24.50 105.63L24.50 105.63Q24.50 105.50 26.13 103.44Q27.75 101.38 30 98.50L30 98.50L35.38 91.63L37.38 93.25Q38.25 93.88 39.31 94.75Q40.38 95.63 41.13 96.25L41.13 96.25L41.13 96.25ZM43.38 106.63L43.38 106.63Q41.88 108.88 40.81 110.50Q39.75 112.13 39.63 112.25L39.63 112.25Q39.63 112.38 37.69 111.94Q35.75 111.50 34 110.88L34 110.88Q32.13 110.25 30.13 109.25Q28.13 108.25 27.25 107.38L27.25 107.38L26.38 106.63L28.25 106.13Q34.25 104.50 40.63 102.81Q47 101.13 47 101.25L47 101.25Q47 101.25 45.94 102.81Q44.88 104.38 43.38 106.63L43.38 106.63ZM53 102.13L53 102.13Q56.13 103.25 59.25 103.94Q62.38 104.63 66.13 105L66.13 105L67.50 105.13L63.75 106.50Q56.75 109 51.31 110.69Q45.88 112.38 43 113L43 113Q42.25 113.13 41.56 113.25Q40.88 113.38 40.88 113.38L40.88 113.38Q40.75 113.38 41.25 112.69Q41.75 112 42.50 111L42.50 111Q44.75 108.38 46.75 105.81Q48.75 103.25 49.38 102.38L49.38 102.38Q49.63 101.88 49.88 101.56Q50.13 101.25 50.25 101.25L50.25 101.25Q50.25 101.25 51.06 101.50Q51.88 101.75 53 102.13L53 102.13ZM66.88 110L66.88 110Q65.75 113.13 64.88 114.94Q64 116.75 63.75 116.88L63.75 116.88Q63.13 117.13 57.06 116.25Q51 115.38 48.50 114.63L48.50 114.63Q46.75 114.13 45.81 113.75Q44.88 113.38 45.25 113.25L45.25 113.25Q45.38 113.25 46.44 113Q47.50 112.75 48.75 112.50L48.75 112.50Q53.25 111.50 58.88 109.75Q64.50 108 67.25 106.88L67.25 106.88Q67.63 106.75 67.88 106.63Q68.13 106.50 68.25 106.50L68.25 106.50Q68.25 106.50 67.88 107.56Q67.50 108.63 66.88 110L66.88 110L66.88 110Z"/></svg>