<svg xmlns="http://www.w3.org/2000/svg" xmlns:xlink="http://www.w3.org/1999/xlink" width="128" height="128"><path fill="#000000" d="M75.38 15.25L75.38 15.25Q75.25 15.38 74.56 15.56Q73.88 15.75 73 16.13L73 16.13Q68.63 17.50 65.63 19.13Q62.63 20.75 61.88 22L61.88 22Q61.50 22.63 61.44 23Q61.38 23.38 61.63 23.88L61.63 23.88Q61.75 24.38 62.19 24.75Q62.63 25.13 63.63 25.88L63.63 25.88Q64.13 26.25 64.81 26.81Q65.50 27.38 66 27.88L66 27.88Q68.50 30.38 69.69 33.31Q70.88 36.25 70.75 39.63L70.75 39.63Q70.50 43.50 68.75 47.31Q67 51.13 63.50 55L63.50 55Q62.38 56.25 60.94 57.56Q59.50 58.88 57.13 60.75L57.13 60.75Q55.25 62.25 54.06 63.38Q52.88 64.50 52.13 65.50L52.13 65.50Q50 68.50 50.56 71.19Q51.13 73.88 54.50 76.13L54.50 76.13Q57.50 78.13 62.56 79.69Q67.63 81.25 73.88 82.25L73.88 82.25Q75.88 82.50 77.94 82.69Q80 82.88 80.50 82.75L80.50 82.75L81 82.63L81.88 81.13Q85 75.50 86.63 70.06Q88.25 64.63 88.50 59L88.50 59Q88.63 56.63 88.31 53.94Q88 51.25 87.50 49.63L87.50 49.63Q87.38 49.25 87.31 49Q87.25 48.75 87.25 48.75L87.25 48.75Q87.25 48.75 88 48.56Q88.75 48.38 89.88 48L89.88 48Q95.50 46.38 100.81 45.06Q106.13 43.75 110.63 43L110.63 43Q111.50 42.88 112.13 42.69Q112.75 42.50 112.75 42.50L112.75 42.50Q113 42.25 112.44 41.31Q111.88 40.38 110.63 39.25L110.63 39.25Q106.50 34.88 99.38 31.69Q92.25 28.50 83.50 27.13L83.50 27.13Q81.88 26.88 81.38 26.63Q80.88 26.38 80.25 25.50L80.25 25.50Q79.25 24.25 78.25 21.88Q77.25 19.50 76 15.38L76 15.38Q75.88 15.25 75.81 15.25Q75.75 15.25 75.38 15.25L75.38 15.25L75.38 15.25ZM76.13 17.38L76.13 17.38Q76.63 18.75 76.94 19.69Q77.25 20.63 77.25 21L77.25 21L77.25 21.38L76.63 21.38Q74.38 21.13 71.50 20.69Q68.63 20.25 67.88 20L67.88 20Q67.63 20 67.56 19.88Q67.50 19.75 67.50 19.75L67.50 19.75Q67.63 19.63 68.50 19.19Q69.38 18.75 71.63 17.75L71.63 17.75Q73.75 16.75 74.63 16.38Q75.50 16 75.63 16L75.63 16Q75.63 16 75.81 16.38Q76 16.75 76.13 17.38L76.13 17.38ZM69.88 21.13L69.88 21.13Q72.63 21.75 74.44 22.06Q76.25 22.38 76.75 22.38L76.75 22.38Q77.13 22.38 76.88 22.63Q76.63 22.88 74.50 24L74.50 24Q73 25 72.56 25.25Q72.13 25.50 71.75 25.50L71.75 25.50L71.13 25.50L69.63 23.88Q68.25 22.50 67.38 21.56Q66.50 20.63 66.50 20.50L66.50 20.50Q66.50 20.38 66.50 20.38Q66.50 20.38 66.63 20.38L66.63 20.38Q66.63 20.38 67.56 20.63Q68.50 20.88 69.88 21.13L69.88 21.13ZM67.13 22.88L67.13 22.88Q67.75 23.63 68.25 24.19Q68.75 24.75 68.63 24.75L68.63 24.75Q68.63 24.88 67.13 24.50Q65.63 24.13 64.50 23.75L64.50 23.75Q63.50 23.50 63.25 23.31Q63 23.13 63.25 22.75L63.25 22.75Q63.50 22.50 64.44 21.75Q65.38 21 65.50 21L65.50 21Q65.50 21 66 21.50Q66.50 22 67.13 22.88L67.13 22.88L67.13 22.88ZM78.75 25L78.75 25Q79 25.63 79.19 26.06Q79.38 26.50 79.38 26.50L79.38 26.50Q79.38 26.63 76.94 26.19Q74.50 25.75 74.13 25.75L74.13 25.75Q74.13 25.75 74.63 25.38Q75.13 25 76 24.50L76 24.50Q76.88 24 77.44 23.69Q78 23.38 78 23.38L78 23.38Q78.13 23.38 78.31 23.88Q78.50 24.38 78.75 25L78.75 25ZM68.38 26.63L68.38 26.63Q68.38 26.75 68.94 28.56Q69.50 30.38 69.50 30.50L69.50 30.50Q69.50 30.50 69.13 30.06Q68.75 29.63 68.25 29L68.25 29Q67.88 28.50 67.19 27.75Q66.50 27 66.13 26.50L66.13 26.50L65.13 25.50L66.63 26Q67.38 26.25 67.81 26.44Q68.25 26.63 68.38 26.63L68.38 26.63ZM72.88 27.13L72.88 27.13Q74.38 27.38 75.44 27.50Q76.50 27.63 76.63 27.75L76.63 27.75Q76.63 27.75 75.81 28.31Q75 28.88 73.88 29.75L73.88 29.75Q72.75 30.63 71.94 31.19Q71.13 31.75 71.13 31.75L71.13 31.75Q71.13 31.75 71.06 31.44Q71 31.13 70.88 30.75L70.88 30.75Q70.75 30.25 70.44 29.50Q70.13 28.75 69.88 28.13L69.88 28.13Q69.63 27.50 69.44 27.06Q69.25 26.63 69.25 26.63L69.25 26.63Q69.25 26.63 70.31 26.75Q71.38 26.88 72.88 27.13L72.88 27.13ZM77.88 28.75L77.88 28.75Q78.25 29.50 78.38 30.38Q78.50 31.25 78.63 32.75L78.63 32.75Q78.63 33.50 78.63 34.06Q78.63 34.63 78.63 34.63L78.63 34.63Q78.63 34.63 78.19 34.50Q77.75 34.38 77.25 34.13L77.25 34.13Q76.13 33.75 74.44 33.19Q72.75 32.63 72.50 32.63L72.50 32.63Q72.38 32.63 72.94 32.06Q73.50 31.50 74.88 30.38L74.88 30.38Q76 29.38 76.75 28.75Q77.50 28.13 77.63 28.13L77.63 28.13Q77.63 28.13 77.69 28.31Q77.75 28.50 77.88 28.75L77.88 28.75L77.88 28.75ZM83 29L83 29Q84.75 29.25 86 29.56Q87.25 29.88 87.38 29.88L87.38 29.88Q87.50 29.88 86.94 30.19Q86.38 30.50 84.63 31.50L84.63 31.50Q83.50 32.13 82.31 32.81Q81.13 33.50 80.63 33.75L80.63 33.75Q80.13 34 79.81 34.19Q79.50 34.38 79.50 34.38L79.50 34.38Q79.50 34.38 79.50 34.13Q79.50 33.88 79.63 33.63L79.63 33.63Q79.88 32.50 79.75 31.25Q79.63 30 79.13 29L79.13 29Q79 28.63 78.88 28.44Q78.75 28.25 78.75 28.25L78.75 28.25Q78.75 28.13 79.44 28.25Q80.13 28.38 83 29L83 29L83 29ZM89 31.63L89 31.63Q89 32 88.81 32.56Q88.63 33.13 88.50 33.50L88.50 33.50Q88.13 34.50 87.31 36.19Q86.50 37.88 86.38 38L86.38 38Q86.25 38 85.81 37.81Q85.38 37.63 84.75 37.25L84.75 37.25Q84.13 36.88 83.38 36.50Q82.63 36.13 82.25 36L82.25 36L81.13 35.50L85.13 32.88Q87.63 31.25 88.38 30.81Q89.13 30.38 89.25 30.50L89.25 30.50Q89.25 30.63 89.19 30.94Q89.13 31.25 89 31.63L89 31.63L89 31.63ZM92 30.75L92 30.75Q95.13 31.63 97.81 32.63Q100.50 33.63 100.38 33.75L100.38 33.75Q100.25 33.88 99.94 33.94Q99.63 34 99.13 34.25L99.13 34.25Q96.75 34.88 93.94 35.88Q91.13 36.88 89.50 37.50L89.50 37.50Q89 37.75 88.69 37.88Q88.38 38 88.25 38L88.25 38Q88.25 38 88.44 37.38Q88.63 36.75 88.88 35.88L88.88 35.88Q89.38 34.25 89.81 32.50Q90.25 30.75 90.25 30.50L90.25 30.50Q90.25 30.38 90.31 30.31Q90.38 30.25 90.50 30.25L90.50 30.25Q90.63 30.38 91.06 30.50Q91.50 30.63 92 30.75L92 30.75L92 30.75ZM74 35.13L74 35.13Q74.75 35.25 75.44 35.56Q76.13 35.88 76.50 36L76.50 36Q77 36.25 77.13 36.38Q77.25 36.50 77 36.63L77 36.63Q76.75 37 74.63 38.94Q72.50 40.88 72.38 41L72.38 41Q72.38 41 72.31 40.63Q72.25 40.25 72.25 39.50L72.25 39.50Q72.25 38.50 72.19 36.88Q72.13 35.25 72 34.88L72 34.88Q71.88 34.50 72.19 34.50Q72.50 34.50 74 35.13L74 35.13L74 35.13ZM100.63 35.88L100.63 35.88Q99.88 37 98.88 38.44Q97.88 39.88 97.13 40.88L97.13 40.88Q96.25 41.88 94.94 43.38Q93.63 44.88 93.50 44.88L93.50 44.88Q93.38 44.88 93.19 44.56Q93 44.25 92.75 43.88L92.75 43.88Q91.75 42.50 90.63 41.31Q89.50 40.13 88.50 39.38L88.50 39.38Q88.38 39.38 88.31 39.31Q88.25 39.25 88.25 39.13L88.25 39.13Q88.25 39.13 89.75 38.63Q91.25 38.13 93.25 37.38L93.25 37.38Q97.25 35.88 99.19 35.25Q101.13 34.63 101.25 34.63L101.25 34.63Q101.25 34.63 101.06 35Q100.88 35.38 100.63 35.88L100.63 35.88L100.63 35.88ZM104 35.63L104 35.63Q106.75 37.50 108.63 39.06Q110.50 40.63 111.25 41.63L111.25 41.63Q111.38 41.88 111.50 42Q111.63 42.13 111.63 42.25L111.63 42.25Q111.63 42.25 110.81 42.31Q110 42.38 108.88 42.50L108.88 42.50Q104.50 42.88 101.44 43.31Q98.38 43.75 96.75 44.25L96.75 44.25Q96.25 44.38 95.94 44.44Q95.63 44.50 95.63 44.50L95.63 44.50Q95.63 44.50 95.88 44.19Q96.13 43.88 96.50 43.38L96.50 43.38Q98.38 41.13 99.94 38.94Q101.50 36.75 102.13 35.50L102.13 35.50Q102.38 35.25 102.50 35Q102.63 34.75 102.63 34.75L102.63 34.75Q102.75 34.75 103.13 35Q103.50 35.25 104 35.63L104 35.63ZM82.88 38.88L82.88 38.88Q83.50 39.13 83.88 39.38Q84.25 39.63 84.13 39.63L84.13 39.63Q84.13 39.75 80.94 41.50Q77.75 43.25 77.75 43.13L77.75 43.13Q77.75 43.13 77.94 42.44Q78.13 41.75 78.50 40.88L78.50 40.88Q78.75 39.88 79 39Q79.25 38.13 79.38 37.75L79.38 37.75L79.50 37L80.50 37.63Q81 37.75 81.69 38.13Q82.38 38.50 82.88 38.88L82.88 38.88L82.88 38.88ZM77.63 39L77.63 39Q77.13 40.63 76.38 42.31Q75.63 44 75.25 44.38L75.25 44.38Q75.13 44.50 74.88 44.31Q74.63 44.13 74 43.63L74 43.63Q73.50 43.25 73.13 42.94Q72.75 42.63 72.63 42.63L72.63 42.63Q72.50 42.50 72.44 42.44Q72.38 42.38 72.38 42.38L72.38 42.38Q72.75 42 75.31 39.94Q77.88 37.88 77.88 37.88L77.88 37.88Q77.88 37.88 77.81 38.25Q77.75 38.63 77.63 39L77.63 39L77.63 39ZM89.13 42.75L89.13 42.75Q89.75 43.25 90.94 44.25Q92.13 45.25 92 45.38L92 45.38Q92 45.38 90.63 45.81Q89.25 46.25 87.25 46.88L87.25 46.88Q85.38 47.50 83.50 48.13Q81.63 48.75 80.88 49L80.88 49Q80.13 49.25 79.63 49.38Q79.13 49.50 79.13 49.50L79.13 49.50Q79.13 49.50 79.56 49Q80 48.50 80.63 47.88L80.63 47.88Q82.25 46.13 83.69 44.44Q85.13 42.75 85.63 42L85.63 42L86.38 41.13L87.25 41.63Q87.63 41.75 88.13 42.13Q88.63 42.50 89.13 42.75L89.13 42.75L89.13 42.75ZM84.25 41.38L84.25 41.38Q84.13 41.38 83.75 41.88Q83.38 42.38 82.88 43L82.88 43Q82.50 43.63 81.44 44.88Q80.38 46.13 79.50 47.38L79.50 47.38L77.25 50.25L77.13 49.75Q77.13 49 76.81 47.88Q76.50 46.75 76.25 46.38L76.25 46.38L76 45.63L77.38 45Q78.50 44.38 80.44 43.38Q82.38 42.38 83.38 41.75L83.38 41.75Q84.13 41.25 84.25 41.25Q84.38 41.25 84.25 41.38L84.25 41.38ZM72.25 44.88L72.25 44.88Q72.63 45.13 73 45.38Q73.38 45.63 73.38 45.75L73.38 45.75Q73.38 45.88 71.44 47.38Q69.50 48.88 69.38 48.75L69.38 48.75Q69.38 48.75 69.63 48.31Q69.88 47.88 70.13 47.25L70.13 47.25Q70.50 46.63 70.81 46Q71.13 45.38 71.13 45.25L71.13 45.25Q71.25 45 71.38 44.81Q71.50 44.63 71.50 44.63L71.50 44.63Q71.63 44.63 71.81 44.69Q72 44.75 72.25 44.88L72.25 44.88ZM75.50 48.50L75.50 48.50Q75.63 48.88 75.81 49.69Q76 50.50 75.88 50.63L75.88 50.63Q75.75 50.63 74.75 51.13Q73.75 51.63 72.38 52.25L72.38 52.25Q70.88 52.88 69.31 53.69Q67.75 54.50 66.88 54.88L66.88 54.88Q66 55.25 65.44 55.50Q64.88 55.75 65 55.75L65 55.75Q65 55.75 65.81 55.06Q66.63 54.38 67.75 53.50L67.75 53.50Q69.75 51.75 71.75 50Q73.75 48.25 74.25 47.88L74.25 47.88L74.50 47.50L74.88 47.75Q75 47.88 75.19 48.13Q75.38 48.38 75.50 48.50L75.50 48.50ZM72.38 48.50L72.38 48.50Q72.13 48.63 71.19 49.50Q70.25 50.38 69.13 51.38L69.13 51.38Q68 52.38 66.81 53.38Q65.63 54.38 65 54.88L65 54.88Q64 55.75 64 55.63Q64 55.50 65.38 53.75L65.38 53.75Q66.50 52.38 67.31 51.63Q68.13 50.88 69.63 49.88L69.63 49.88Q70.38 49.38 71.50 48.69Q72.63 48 72.75 48L72.75 48Q72.75 48 72.69 48.13Q72.63 48.25 72.38 48.50L72.38 48.50ZM86.63 49.75L86.63 49.75Q86.63 50 86.69 50.81Q86.75 51.63 86.88 52.38L86.88 52.38L86.88 54.38L86.50 54.25Q85.25 53.63 82.88 52.31Q80.50 51 80.63 50.88L80.63 50.88Q81.38 50.63 83.88 49.75Q86.38 48.88 86.38 49L86.38 49Q86.50 49 86.56 49.25Q86.63 49.50 86.63 49.75L86.63 49.75L86.63 49.75ZM82.88 53.25L82.88 53.25Q84.25 54.13 85.25 54.69Q86.25 55.25 86.25 55.25L86.25 55.25Q86.25 55.25 86.13 55.44Q86 55.63 85.75 55.75L85.75 55.75Q85.25 56 82.06 57.69Q78.88 59.38 78.75 59.38L78.75 59.38Q78.75 59.25 78.81 58.94Q78.88 58.63 79 58.13L79 58.13Q79.25 57.13 79.38 55Q79.50 52.88 79.38 51.88L79.38 51.88Q79.38 51.63 79.38 51.44Q79.38 51.25 79.38 51.25L79.38 51.25Q79.50 51.25 80.50 51.88Q81.50 52.50 82.88 53.25L82.88 53.25L82.88 53.25ZM77.75 52.50L77.75 52.50Q77.88 53.38 77.75 54.81Q77.63 56.25 77.38 57.25L77.38 57.25Q77.13 58.25 76.94 58.75Q76.75 59.25 76.63 59.38L76.63 59.38Q76.50 59.38 75.69 58.63Q74.88 57.88 74.25 57.13L74.25 57.13Q73.63 56.38 73 55.19Q72.38 54 72.50 53.88L72.50 53.88Q72.50 53.88 75 52.88Q77.50 51.88 77.63 51.88L77.63 51.88Q77.63 51.88 77.69 52.06Q77.75 52.25 77.75 52.50L77.75 52.50ZM71.75 55.38L71.75 55.38Q72.13 56.25 72.94 57.31Q73.75 58.38 74.75 59.38L74.75 59.38Q75.38 60 75.56 60.25Q75.75 60.50 75.63 60.50L75.63 60.50Q75.25 60.88 73.69 61.56Q72.13 62.25 70.88 62.75L70.88 62.75Q69.38 63.38 67.81 63.94Q66.25 64.50 66.25 64.38L66.25 64.38Q66.25 64.38 66.63 63.69Q67 63 67.50 62L67.50 62Q68.75 59.88 70 57.50Q71.25 55.13 71.25 54.88L71.25 54.88Q71.25 54.50 71.38 54.69Q71.50 54.88 71.75 55.38L71.75 55.38L71.75 55.38ZM68.75 55.50L68.75 55.50Q68.63 55.50 68.50 55.94Q68.38 56.38 68.13 56.88L68.13 56.88Q67.25 59 65.94 61.38Q64.63 63.75 64.25 63.75L64.25 63.75Q64 63.75 63.63 62.31Q63.25 60.88 63.13 59.25L63.13 59.25L63 58.13L65.75 56.75Q66.88 56.13 67.75 55.75Q68.63 55.38 68.63 55.38L68.63 55.38Q68.75 55.38 68.75 55.38Q68.75 55.38 68.75 55.50L68.75 55.50ZM87 58.25L87 58.25Q87 59.50 86.63 61.75Q86.25 64 85.88 64.38L85.88 64.38Q85.75 64.50 84.69 64.06Q83.63 63.63 82.50 63.13L82.50 63.13Q81.38 62.50 80.06 61.69Q78.75 60.88 78.75 60.75L78.75 60.75Q78.75 60.75 79 60.63Q79.25 60.50 79.50 60.38L79.50 60.38Q80.13 60.13 82.38 58.94Q84.63 57.75 85.88 57L85.88 57L86.88 56.38L86.88 56.88Q86.88 57 86.94 57.44Q87 57.88 87 58.25L87 58.25L87 58.25ZM61.13 60.13L61.13 60.13Q61.25 61.13 61.56 62.25Q61.88 63.38 62.25 64.38L62.25 64.38Q62.38 64.75 62.50 65.06Q62.63 65.38 62.63 65.38L62.63 65.38Q62.50 65.50 58.19 66.69Q53.88 67.88 53.13 68L53.13 68L52.50 68.13L52.63 67.75Q52.75 67.25 53.19 66.25Q53.63 65.25 54.13 64.63L54.13 64.63Q54.63 63.75 55.81 62.63Q57 61.50 57.88 60.88L57.88 60.88Q58.63 60.38 59.81 59.69Q61 59 61 59L61 59Q61 59 61.06 59.31Q61.13 59.63 61.13 60.13L61.13 60.13L61.13 60.13ZM79.88 63L79.88 63Q81.75 63.88 82.69 64.25Q83.63 64.63 84.63 65L84.63 65L85.50 65.38L84.88 65.63Q82.38 66.88 78.81 68.31Q75.25 69.75 74.13 70L74.13 70Q73.88 70 73.81 70Q73.75 70 73.88 69.88L73.88 69.88Q74 69.38 75.81 65.69Q77.63 62 77.75 62L77.75 62Q77.75 62 78.38 62.25Q79 62.50 79.88 63L79.88 63L79.88 63ZM75.38 62.63L75.38 62.63Q75.25 63.38 74.69 65Q74.13 66.63 73.63 67.50L73.63 67.50Q73.25 68.38 72.63 69.63Q72 70.88 71.88 71L71.88 71Q71.75 71 70.63 70.38Q69.50 69.75 68.75 69.25L68.75 69.25Q68 68.75 66.69 67.50Q65.38 66.25 65.50 66L65.50 66Q65.50 66 66.44 65.63Q67.38 65.25 68.63 64.88L68.63 64.88Q71.38 63.88 72.88 63.31Q74.38 62.75 74.88 62.50L74.88 62.50Q75.25 62.25 75.38 62.31Q75.50 62.38 75.38 62.63L75.38 62.63L75.38 62.63ZM85.50 66.50L85.50 66.50Q85.50 66.63 85.38 67.38Q85.25 68.13 85 69L85 69Q84.50 71.50 83.94 73.13Q83.38 74.75 83 74.75L83 74.75Q82.38 74.75 79.56 74.06Q76.75 73.38 75.63 73L75.63 73Q74.75 72.63 74.06 72.38Q73.38 72.13 73.25 71.88L73.25 71.88Q73 71.75 73.25 71.63Q73.50 71.50 74.50 71L74.50 71Q78 69.63 81.38 68.13Q84.75 66.63 85.13 66.25L85.13 66.25Q85.38 66 85.44 66.06Q85.50 66.13 85.50 66.50L85.50 66.50L85.50 66.50ZM61.88 67.50L61.88 67.50Q61.50 68.25 60.63 69.50Q59.75 70.75 58.25 72.88L58.25 72.88L56.50 75.25L55.88 74.88Q55.38 74.50 54.63 73.69Q53.88 72.88 53.50 72.25L53.50 72.25Q53.13 71.63 52.88 70.88Q52.63 70.13 52.63 69.50L52.63 69.50L52.50 68.88L53.38 68.75Q54.38 68.63 56.44 68.19Q58.50 67.75 60.25 67.25L60.25 67.25Q61.13 67.13 61.69 67Q62.25 66.88 62.25 66.88L62.25 66.88Q62.25 66.88 62.13 67.06Q62 67.25 61.88 67.50L61.88 67.50L61.88 67.50ZM67 70L67 70Q67.50 70.38 68 70.69Q68.50 71 68.88 71.25L68.88 71.25L69.63 71.63L69.25 71.75Q69.13 71.88 67.31 72.50Q65.50 73.13 63.13 74L63.13 74Q59.13 75.50 58.25 75.75Q57.38 76 57.25 75.88L57.25 75.88Q57.13 75.75 57.13 75.69Q57.13 75.63 57.13 75.63L57.13 75.63Q57.13 75.50 58.06 74.31Q59 73.13 60.38 71.38L60.38 71.38L63.63 67.25L64.75 68.25Q65.25 68.63 65.94 69.13Q66.63 69.63 67 70L67 70ZM68.38 76.25L68.38 76.25Q67.50 77.50 66.81 78.50Q66.13 79.50 66.13 79.50L66.13 79.50Q66.13 79.63 64.94 79.38Q63.75 79.13 62.75 78.75L62.75 78.75Q61.63 78.38 60.44 77.75Q59.25 77.13 58.75 76.63L58.75 76.63L58.25 76.25L59.38 75.88Q63 74.88 66.75 73.88Q70.50 72.88 70.50 73L70.50 73Q70.50 73 69.88 73.94Q69.25 74.88 68.38 76.25L68.38 76.25L68.38 76.25ZM74 73.50L74 73.50Q75.88 74.13 77.75 74.56Q79.63 75 81.88 75.25L81.88 75.25L82.63 75.25L80.50 76.13Q76.25 77.63 73 78.63Q69.75 79.63 68.13 80L68.13 80Q67.63 80 67.25 80.13Q66.88 80.25 66.88 80.25L66.88 80.25Q66.75 80.25 67.06 79.81Q67.38 79.38 67.88 78.75L67.88 78.75Q69.13 77.25 70.31 75.75Q71.50 74.25 71.88 73.63L71.88 73.63Q72 73.38 72.19 73.19Q72.38 73 72.38 73L72.38 73Q72.50 73 72.94 73.19Q73.38 73.38 74 73.50L74 73.50L74 73.50ZM82.38 78.25L82.38 78.25Q81.63 80 81.13 81.13Q80.63 82.25 80.38 82.25L80.38 82.25Q80.13 82.38 76.50 81.88Q72.88 81.38 71.38 81L71.38 81Q70.38 80.63 69.81 80.44Q69.25 80.25 69.50 80.13L69.50 80.13Q69.50 80.13 70.13 80Q70.75 79.88 71.50 79.63L71.50 79.63Q74.13 79.13 77.50 78.06Q80.88 77 82.50 76.38L82.50 76.38Q82.75 76.25 82.94 76.19Q83.13 76.13 83.13 76.13L83.13 76.13Q83.13 76.13 82.88 76.75Q82.63 77.38 82.38 78.25L82.38 78.25L82.38 78.25ZM43.50 80.25L43.50 80.25Q43.13 80.50 42.94 80.81Q42.75 81.13 42.75 81.63L42.75 81.63Q42.75 82.13 42.69 82.19Q42.63 82.25 42.38 82.25L42.38 82.25Q42.13 82.25 42.06 82.38Q42 82.50 42 82.75L42 82.75Q42 83.13 42.06 83.25Q42.13 83.38 42.38 83.38L42.38 83.38L42.75 83.38L42.75 87L43.25 87L43.88 87L43.88 83.38L45.50 83.38L45.50 84.63Q45.50 85.88 45.69 86.31Q45.88 86.75 46.38 87L46.38 87Q46.63 87.13 46.88 87.13Q47.13 87.13 47.38 87L47.38 87Q47.75 87 47.81 86.88Q47.88 86.75 47.88 86.50L47.88 86.50L47.88 86L47.50 86Q47 86.13 46.88 85.88Q46.75 85.63 46.88 84.38L46.88 84.38L46.88 83.38L47.13 83.38Q47.63 83.38 47.75 83.25Q47.88 83.13 47.88 82.75L47.88 82.75L47.88 82.25L46.88 82.25L46.88 81.88Q46.88 81.38 46.75 81.25Q46.63 81.13 46.13 81.13L46.13 81.13L45.63 81.13L45.50 82.25L43.88 82.25L43.88 81.88Q43.88 81.50 44.06 81.31Q44.25 81.13 44.63 81.13L44.63 81.13Q45 81.25 45 81.19Q45 81.13 45 80.88L45 80.88Q45 80.75 45 80.56Q45 80.38 44.88 80.38L44.88 80.38Q44.75 80.25 44.25 80.25Q43.75 80.25 43.50 80.25L43.50 80.25L43.50 80.25ZM17.38 80.50L17.38 80.50Q17 80.75 17.13 81.19Q17.25 81.63 17.75 81.63L17.75 81.63Q18.25 81.63 18.44 81.50Q18.63 81.38 18.63 81L18.63 81Q18.63 80.50 18.25 80.38Q17.88 80.25 17.38 80.50L17.38 80.50ZM8.75 80.75L8.75 80.75Q8.63 80.88 8.56 81.38Q8.50 81.88 8.63 84L8.63 84L8.63 87L9.75 87L9.75 84.38Q9.75 83.38 9.75 82.63Q9.75 81.88 9.75 81.88L9.75 81.88Q9.88 81.88 10.06 82.50Q10.25 83.13 10.50 84L10.50 84Q10.88 84.88 11.13 85.63Q11.38 86.38 11.50 86.50L11.50 86.50L11.63 87L12.25 87L12.88 87L14.63 82L14.63 84.50Q14.75 85.50 14.75 86.25Q14.75 87 14.75 87L14.75 87Q14.75 87 14.94 87Q15.13 87 15.38 87L15.38 87L15.88 87L16 84Q16 82.38 15.94 81.63Q15.88 80.88 15.88 80.75L15.88 80.75Q15.63 80.63 14.94 80.63Q14.25 80.63 14 80.88L14 80.88Q14 81 13.69 81.63Q13.38 82.25 13.13 83L13.13 83Q12.88 83.88 12.63 84.44Q12.38 85 12.38 85L12.38 85Q12.25 85.13 12.06 84.56Q11.88 84 11.50 83.13L11.50 83.13Q11.25 82.38 11 81.69Q10.75 81 10.63 80.88L10.63 80.88Q10.38 80.75 10.19 80.69Q10 80.63 9.63 80.63L9.63 80.63Q9.38 80.63 9.13 80.69Q8.88 80.75 8.75 80.75L8.75 80.75L8.75 80.75ZM20.88 82.25L20.88 82.25Q20.25 82.50 19.88 83.13Q19.50 83.75 19.50 84.75L19.50 84.75Q19.50 85.75 19.88 86.31Q20.25 86.88 21.13 87.13L21.13 87.13Q21.50 87.13 22.06 87Q22.63 86.88 22.88 86.75L22.88 86.75Q23 86.63 23.06 86.25Q23.13 85.88 23 85.75L23 85.75Q22.88 85.63 22.75 85.69Q22.63 85.75 22.50 85.88L22.50 85.88Q21.88 86.25 21.44 86.06Q21 85.88 20.75 85.13L20.75 85.13Q20.75 84.75 20.81 84.25Q20.88 83.75 21.13 83.50L21.13 83.50Q21.25 83.25 21.69 83.25Q22.13 83.25 22.50 83.50L22.50 83.50Q22.75 83.63 22.88 83.56Q23 83.50 23 83.13L23 83.13Q23 82.88 22.94 82.75Q22.88 82.63 22.75 82.50L22.75 82.50Q22.50 82.25 21.88 82.25Q21.25 82.25 20.88 82.25L20.88 82.25L20.88 82.25ZM25.50 82.50L25.50 82.50Q25.13 82.88 25.06 82.88Q25 82.88 25 82.63L25 82.63Q25 82.50 24.88 82.44Q24.75 82.38 24.50 82.38L24.50 82.38L24 82.25L24 87L25.13 87L25.13 85.50Q25.13 84.50 25.19 84.25Q25.25 84 25.50 83.75L25.50 83.75Q25.75 83.50 25.88 83.44Q26 83.38 26.25 83.38L26.25 83.38Q26.63 83.38 26.69 83.31Q26.75 83.25 26.75 82.75L26.75 82.75Q26.75 82.25 26.38 82.19Q26 82.13 25.50 82.50L25.50 82.50L25.50 82.50ZM28.75 82.38L28.75 82.38Q28 82.50 27.63 83.25Q27.25 84 27.25 85L27.25 85Q27.38 85.88 27.88 86.44Q28.38 87 29.13 87.13L29.13 87.13Q30.63 87.25 31.44 86.25Q32.25 85.25 31.88 83.75L31.88 83.75Q31.63 82.75 30.69 82.38Q29.75 82 28.75 82.38L28.75 82.38L28.75 82.38ZM30.13 83.25L30.13 83.25Q30.63 83.50 30.69 84.38Q30.75 85.25 30.38 85.75L30.38 85.75Q30.13 86 29.69 86.06Q29.25 86.13 28.88 85.88L28.88 85.88Q28.75 85.75 28.69 85.56Q28.63 85.38 28.63 84.63L28.63 84.63Q28.63 84 28.69 83.81Q28.75 83.63 29 83.38L29 83.38Q29.25 83.25 29.56 83.19Q29.88 83.13 30.13 83.25L30.13 83.25L30.13 83.25ZM33.63 82.38L33.63 82.38Q33.13 82.50 32.94 82.81Q32.75 83.13 32.75 83.63L32.75 83.63Q32.75 84.13 33 84.44Q33.25 84.75 34 85.13L34 85.13Q34.50 85.25 34.63 85.38Q34.75 85.50 34.75 85.75L34.75 85.75Q34.75 85.88 34.69 86Q34.63 86.13 34.38 86.13L34.38 86.13Q34.25 86.25 33.94 86.19Q33.63 86.13 32.88 85.88L32.88 85.88Q32.75 85.88 32.75 85.94Q32.75 86 32.75 86.25L32.75 86.25Q32.75 86.63 32.81 86.69Q32.88 86.75 33.13 86.88L33.13 86.88Q33.50 87.13 34.19 87.13Q34.88 87.13 35.25 86.88L35.25 86.88Q35.75 86.63 35.94 85.94Q36.13 85.25 35.63 84.75L35.63 84.75Q35.63 84.63 35.31 84.44Q35 84.25 34.75 84.13L34.75 84.13Q34.13 83.88 33.94 83.69Q33.75 83.50 34 83.25L34 83.25Q34.13 83 34.50 83Q34.88 83 35.25 83.25L35.25 83.25Q35.50 83.38 35.56 83.38Q35.63 83.38 35.75 83.25L35.75 83.25Q35.75 83 35.69 82.75Q35.63 82.50 35.38 82.38L35.38 82.38Q35.13 82.25 34.50 82.25Q33.88 82.25 33.63 82.38L33.63 82.38L33.63 82.38ZM38.38 82.25L38.38 82.25Q37.63 82.50 37.25 83Q36.88 83.50 36.75 84.38L36.75 84.38Q36.63 85.38 37 86.06Q37.38 86.75 38.25 87L38.25 87Q39.50 87.38 40.44 86.69Q41.38 86 41.38 84.63L41.38 84.63Q41.38 83.75 41 83.13Q40.63 82.50 40 82.38L40 82.38Q39.75 82.25 39.19 82.25Q38.63 82.25 38.38 82.25L38.38 82.25L38.38 82.25ZM39.75 83.38L39.75 83.38Q40 83.63 40 83.81Q40 84 40 84.63L40 84.63Q40 85.13 40 85.38Q40 85.63 39.75 85.75L39.75 85.75Q39.50 86.13 39.06 86.13Q38.63 86.13 38.38 85.88L38.38 85.88Q38.13 85.63 38.06 85.31Q38 85 38 84.38L38 84.38Q38 84 38.13 83.81Q38.25 83.63 38.38 83.38L38.38 83.38Q38.75 83.13 39.06 83.13Q39.38 83.13 39.75 83.38L39.75 83.38L39.75 83.38ZM17.25 82.25L17.25 84.63L17.38 87L18.50 87L18.50 82.38L17.88 82.38L17.25 82.25ZM11.63 89.88L11.63 89.88Q10.50 90.13 9.69 90.75Q8.88 91.38 8.38 92.25L8.38 92.25Q8.13 92.88 8.06 93.19Q8 93.50 8 94.38L8 94.38Q8 95.25 8.06 95.56Q8.13 95.88 8.38 96.38L8.38 96.38Q8.75 97.25 9.75 98.06Q10.75 98.88 12.50 99.63L12.50 99.63Q14.50 100.50 15.19 101.25Q15.88 102 15.88 103.13L15.88 103.13Q15.88 104.13 15.38 104.81Q14.88 105.50 13.88 105.75L13.88 105.75Q12.75 106.13 11.63 105.94Q10.50 105.75 9.13 105.13L9.13 105.13Q8.75 104.88 8.38 104.69Q8 104.50 8 104.50L8 104.50Q7.88 104.50 7.81 104.50Q7.75 104.50 7.63 104.63L7.63 104.63Q7.50 104.75 7.50 105.44Q7.50 106.13 7.63 106.38L7.63 106.38Q8 107 9.44 107.50Q10.88 108 12.38 108L12.38 108Q15.25 108 16.88 106.44Q18.50 104.88 18.38 102.38L18.38 102.38Q18.38 101.88 18.31 101.56Q18.25 101.25 18 100.75L18 100.75Q17.50 99.88 16.75 99.25Q16 98.63 14.38 97.75L14.38 97.75Q13.50 97.38 12.75 97Q12 96.63 11.75 96.38L11.75 96.38Q10.63 95.63 10.38 94.56Q10.13 93.50 11 92.63L11 92.63Q11.38 92.13 11.88 91.94Q12.38 91.75 13.25 91.75L13.25 91.75Q14.13 91.75 14.69 91.88Q15.25 92 16.13 92.50L16.13 92.50Q17 92.88 17.19 92.81Q17.38 92.75 17.38 91.88L17.38 91.88Q17.38 91.13 17.25 90.94Q17.13 90.75 16.25 90.38L16.25 90.38Q15.25 89.88 14 89.75Q12.75 89.63 11.63 89.88L11.63 89.88L11.63 89.88ZM27.38 89.88L27.38 89.88Q25.75 90.13 24.44 90.94Q23.13 91.75 22.38 93L22.38 93Q21.88 93.75 21.63 94.44Q21.38 95.13 21.13 96.25L21.13 96.25Q20.88 97.38 20.94 99.50Q21 101.63 21.25 102.63L21.25 102.63Q22 105.25 23.63 106.56Q25.25 107.88 28 108L28 108Q29.50 108 30.38 107.88Q31.25 107.75 32.63 107.13L32.63 107.13Q32.75 107.13 32.94 107.25Q33.13 107.38 33.38 107.50L33.38 107.50Q34.25 108.38 35.88 109.25Q37.50 110.13 38.25 110.25L38.25 110.25Q38.63 110.38 38.75 110.19Q38.88 110 38.88 109.38L38.88 109.38Q38.88 109.13 38.88 108.88Q38.88 108.63 38.88 108.50L38.88 108.50Q38.88 108.38 38.50 108.19Q38.13 108 37.63 107.75L37.63 107.75Q36.88 107.38 35.75 106.63Q34.63 105.88 34.63 105.75L34.63 105.75Q34.63 105.75 34.75 105.56Q34.88 105.38 35 105.13L35 105.13Q35.75 104.25 36.13 102.94Q36.50 101.63 36.75 100L36.75 100Q36.75 98.63 36.69 97.38Q36.63 96.13 36.38 95L36.38 95Q35.75 93.13 34.50 91.81Q33.25 90.50 31.50 90L31.50 90Q30.88 89.88 29.50 89.81Q28.13 89.75 27.38 89.88L27.38 89.88L27.38 89.88ZM31 92.13L31 92.13Q32 92.50 32.69 93.31Q33.38 94.13 33.88 95.38L33.88 95.38Q34 96 34.06 96.50Q34.13 97 34.25 98.25L34.25 98.25Q34.25 100 34.06 101.06Q33.88 102.13 33.50 103.13L33.50 103.13Q32.75 104.75 31.19 105.50Q29.63 106.25 27.75 105.88L27.75 105.88Q25.38 105.50 24.31 103.69Q23.25 101.88 23.38 98.38L23.38 98.38Q23.50 96.38 23.88 95.19Q24.25 94 25.25 93.13L25.25 93.13Q25.75 92.63 26.25 92.38Q26.75 92.13 27.38 91.88L27.38 91.88Q28.13 91.75 29.19 91.81Q30.25 91.88 31 92.13L31 92.13L31 92.13ZM59.25 89.88L59.25 89.88Q58.25 90.13 57.38 90.81Q56.50 91.50 56.13 92.25L56.13 92.25Q55.63 93.13 55.63 94.31Q55.63 95.50 56 96.38L56 96.38Q56.50 97.38 57.38 98.06Q58.25 98.75 60.38 99.75L60.38 99.75Q62 100.50 62.63 101.06Q63.25 101.63 63.50 102.25L63.50 102.25Q63.75 103.25 63.44 104.06Q63.13 104.88 62.50 105.38L62.50 105.38Q61.25 106.13 59.69 106Q58.13 105.88 56.38 104.88L56.38 104.88Q55.63 104.50 55.44 104.56Q55.25 104.63 55.25 105.38L55.25 105.38Q55.25 106.13 55.38 106.44Q55.50 106.75 56 107L56 107Q57.50 107.88 59.63 107.94Q61.75 108 63.25 107.38L63.25 107.38Q65.13 106.50 65.81 104.50Q66.50 102.50 65.63 100.75L65.63 100.75Q65.50 100.50 65.25 100.13Q65 99.75 64.75 99.50L64.75 99.50Q64.25 99.13 63.75 98.75Q63.25 98.38 61.75 97.75L61.75 97.75Q59.38 96.50 58.63 95.75Q57.88 95 58.13 93.88L58.13 93.88Q58.13 93.25 58.44 92.81Q58.75 92.38 59.38 92L59.38 92Q59.75 91.88 60.06 91.81Q60.38 91.75 60.88 91.75L60.88 91.75Q61.75 91.75 62.31 91.88Q62.88 92 63.75 92.50L63.75 92.50Q64.50 92.88 64.69 92.94Q64.88 93 65 92.75L65 92.75Q65.13 92.50 65.06 91.81Q65 91.13 64.88 91L64.88 91Q64.75 90.75 64 90.44Q63.25 90.13 62.50 89.88L62.50 89.88Q61.75 89.75 60.88 89.75Q60 89.75 59.25 89.88L59.25 89.88ZM41 90.13L41 90.13Q40.88 90.25 40.88 92.06Q40.88 93.88 40.88 98.75L40.88 98.75L40.88 107.13L41.38 107.75L45.63 107.75Q48 107.75 48.88 107.69Q49.75 107.63 49.88 107.63L49.88 107.63Q50 107.38 50.06 107Q50.13 106.63 50 106.25L50 106.25L50 105.75L43.25 105.75L43.25 97.88Q43.25 93.38 43.19 91.75Q43.13 90.13 43 90L43 90Q42.88 90 42 90Q41.13 90 41 90.13L41 90.13L41 90.13ZM72.38 94.50L72.38 94.50Q72 94.63 71.31 94.88Q70.63 95.13 70.25 95.38L70.25 95.38Q69.38 96 68.75 96.88Q68.13 97.75 67.88 99L67.88 99Q67.63 99.88 67.63 101.44Q67.63 103 67.88 103.75L67.88 103.75Q68.25 105.38 69.25 106.38Q70.25 107.38 71.75 107.75L71.75 107.75Q72.38 108 73.75 108Q75.13 108 76 107.75L76 107.75Q76.75 107.63 77.44 107.38Q78.13 107.13 78.25 107L78.25 107Q78.38 106.75 78.38 106.13Q78.38 105.50 78.25 105.38L78.25 105.38Q78.25 105.25 77.94 105.31Q77.63 105.38 77 105.63L77 105.63Q74.63 106.38 72.88 106.06Q71.13 105.75 70.50 104.38L70.50 104.38Q70.25 104 70.06 103.25Q69.88 102.50 69.88 102.13L69.88 102.13L69.88 101.75L74 101.75Q75.88 101.75 77 101.69Q78.13 101.63 78.38 101.63L78.38 101.63Q78.75 101.50 78.88 101.13Q79 100.75 78.88 99.88L78.88 99.88Q78.75 98.13 78.19 97Q77.63 95.88 76.50 95.13L76.50 95.13Q75.75 94.75 74.56 94.56Q73.38 94.38 72.38 94.50L72.38 94.50L72.38 94.50ZM74.50 96.38L74.50 96.38Q75.50 96.63 76 97.38Q76.50 98.13 76.63 99.13L76.63 99.13L76.63 100L69.88 100L70 99.50Q70.13 98.63 70.50 97.94Q70.88 97.25 71.50 96.88L71.50 96.88Q72.13 96.38 72.94 96.25Q73.75 96.13 74.50 96.38L74.50 96.38L74.50 96.38ZM86.13 94.50L86.13 94.50Q85.75 94.75 85.19 95.19Q84.63 95.63 84.25 96.13L84.25 96.13L83.63 96.88L83.50 94.75L82.75 94.75Q82.50 94.63 82.25 94.69Q82 94.75 81.88 94.75L81.88 94.75L81.63 94.75L81.63 101.25Q81.63 105.50 81.63 106.56Q81.63 107.63 81.75 107.63L81.75 107.63Q82 107.75 82.75 107.75Q83.50 107.75 83.63 107.63L83.63 107.63Q83.75 107.63 83.75 106.94Q83.75 106.25 83.75 103.38L83.75 103.38L83.75 99.25L84.38 98.50Q84.88 97.75 85.50 97.19Q86.13 96.63 86.50 96.63L86.50 96.63Q86.75 96.63 87.06 96.63Q87.38 96.63 87.75 96.75L87.75 96.75Q88.13 96.88 88.38 96.88Q88.63 96.88 88.63 96.88L88.63 96.88Q88.75 96.75 88.75 96.44Q88.75 96.13 88.75 95.75L88.75 95.75Q88.75 95.13 88.69 94.94Q88.63 94.75 88.38 94.75L88.38 94.75Q88 94.50 87.25 94.50Q86.50 94.50 86.13 94.50L86.13 94.50L86.13 94.50ZM106.38 94.63L106.38 94.63Q105.75 94.75 104.88 95.19Q104 95.63 103.50 96.13L103.50 96.13Q102.50 97 102.06 98.44Q101.63 99.88 101.75 101.75L101.75 101.75Q101.75 103.63 102.19 104.63Q102.63 105.63 103.50 106.50L103.50 106.50Q104.38 107.38 105.44 107.69Q106.50 108 108.25 108L108.25 108Q109.50 107.88 110.56 107.69Q111.63 107.50 112.13 107.13L112.13 107.13Q112.38 106.88 112.44 106.75Q112.50 106.63 112.50 106.25L112.50 106.25Q112.50 106 112.50 105.75Q112.50 105.50 112.50 105.38L112.50 105.38Q112.38 105.25 112.13 105.31Q111.88 105.38 110.38 105.75L110.38 105.75Q109.88 106 109.44 106.06Q109 106.13 108.25 106.13L108.25 106.13Q106.75 106.13 105.88 105.69Q105 105.25 104.50 104.25L104.50 104.25Q104.25 103.88 104.19 103.50Q104.13 103.13 104.13 102.63L104.13 102.63L104 101.75L108.25 101.75Q112.13 101.75 112.56 101.56Q113 101.38 113 100.25L113 100.25Q113 98.13 112.13 96.75Q111.25 95.38 109.63 94.75L109.63 94.75Q109.13 94.63 108.13 94.56Q107.13 94.50 106.38 94.63L106.38 94.63L106.38 94.63ZM108.63 96.38L108.63 96.38Q109.50 96.63 110.06 97.38Q110.63 98.13 110.75 99.25L110.75 99.25L110.88 100L104 100L104.13 99.38Q104.25 98.25 104.94 97.44Q105.63 96.63 106.50 96.38L106.50 96.38Q106.88 96.25 107.50 96.25Q108.13 96.25 108.63 96.38L108.63 96.38L108.63 96.38ZM120.38 94.50L120.38 94.50Q119.75 94.75 119.06 95.31Q118.38 95.88 117.88 96.50L117.88 96.50Q117.75 96.75 117.75 96.69Q117.75 96.63 117.75 95.88L117.75 95.88Q117.75 95.50 117.69 95.19Q117.63 94.88 117.63 94.88L117.63 94.88Q117.50 94.63 116.69 94.63Q115.88 94.63 115.75 94.88L115.75 94.88Q115.63 95 115.63 101.25Q115.63 107.50 115.75 107.63L115.75 107.63Q115.88 107.75 116.75 107.75Q117.63 107.75 117.88 107.63L117.88 107.63Q117.88 107.50 117.94 106.56Q118 105.63 118 103.38L118 103.38L118 99.25L118.38 98.50Q118.88 97.88 119.44 97.31Q120 96.75 120.50 96.63L120.50 96.63Q120.75 96.50 121.13 96.56Q121.50 96.63 122.38 96.88L122.38 96.88Q122.75 97 122.81 96.75Q122.88 96.50 122.88 96L122.88 96Q122.88 95.25 122.81 95Q122.75 94.75 122.50 94.63L122.50 94.63Q122.13 94.50 121.38 94.50Q120.63 94.50 120.38 94.50L120.38 94.50L120.38 94.50ZM89 94.88L89 94.88Q88.88 95 89.31 96.19Q89.75 97.38 91 101.25L91 101.25Q92 103.75 92.69 105.63Q93.38 107.50 93.50 107.63L93.50 107.63Q93.88 107.88 95.06 107.81Q96.25 107.75 96.38 107.38L96.38 107.38Q96.50 107.13 98.56 101.31Q100.63 95.50 100.75 95.25L100.75 95.25Q100.88 95 100.63 94.88Q100.38 94.75 99.63 94.75L99.63 94.75Q99.13 94.75 98.88 94.75Q98.63 94.75 98.63 94.88L98.63 94.88Q98.50 94.88 97.94 96.44Q97.38 98 96.75 100.13L96.75 100.13Q96 102.25 95.44 103.75Q94.88 105.25 94.88 105.25L94.88 105.25Q94.88 105.13 94.31 103.63Q93.75 102.13 93 100L93 100Q92.38 98 91.81 96.44Q91.25 94.88 91.25 94.88L91.25 94.88Q91.13 94.63 90.13 94.69Q89.13 94.75 89 94.88L89 94.88L89 94.88Z"/></svg>