<svg xmlns="http://www.w3.org/2000/svg" xmlns:xlink="http://www.w3.org/1999/xlink" width="128" height="128"><path fill="#000000" d="M90.25 50.50L90.13 50.50L90.13 50.63L90.50 50.63Q90.50 50.50 90.50 50.44Q90.50 50.38 90.63 50.25L90.63 50.25L90.63 50Q90.50 50 90.38 50.13Q90.25 50.25 90.25 50.50L90.25 50.50ZM86.75 43.38L87.25 43.38L87.25 43.13L86.75 43.13L86.75 43.38ZM78.63 59.50L78.75 59.38Q78.25 58.63 77.63 57.88Q77 57.13 76.38 56.38L76.38 56.38Q76.38 56.13 76.75 55.81Q77.13 55.50 78 55L78 55L81 52.38Q81.63 51.38 81.94 50.31Q82.25 49.25 82.25 48L82.25 48Q82.25 48 82.25 48Q82.25 48 82.25 48L82.25 48L82.25 47.50Q82.25 46.50 81.50 45.69Q80.75 44.88 79.25 44.25L79.25 44.25Q77.63 43.13 73.25 43L73.25 43Q70.63 43.25 68.25 43.94Q65.88 44.63 63.63 45.63L63.63 45.63Q63 46.13 62.19 46.69Q61.38 47.25 60.38 47.75L60.38 47.75L60.25 48Q60.38 48 60.44 48Q60.50 48 60.63 47.88L60.63 47.88Q60.63 47.88 60.63 47.88Q60.63 47.88 60.63 47.88L60.63 47.88Q60.75 47.88 60.81 47.94Q60.88 48 60.88 48.13L60.88 48.13Q60.88 48.13 60.88 48.13Q60.88 48.13 60.88 48.13L60.88 48.13L61 48L61.13 48L61.13 48.13Q60.50 48.63 59.94 49.13Q59.38 49.63 58.63 50.13L58.63 50.13L58.75 50.38L58.63 50.38L58.38 50.25Q58.38 50.25 58.25 50.31Q58.13 50.38 58 50.38L58 50.38L58 50.50L58.25 50.88Q58.13 50.88 58.06 50.81Q58 50.75 57.88 50.75L57.88 50.75Q57.50 50.75 57.19 50.94Q56.88 51.13 56.75 51.38L56.75 51.38L56.88 50.75Q57.25 49.38 57.50 47.75Q57.75 46.13 58 44.50L58 44.50L58 44Q57.63 43.75 57.38 43.50Q57.13 43.25 56.88 43L56.88 43Q56.88 43 56.88 42.94Q56.88 42.88 56.88 42.75L56.88 42.75Q56.88 42.75 56.88 42.63Q56.88 42.50 56.88 42.50L56.88 42.50L56.88 42.38L56.75 42.38Q55 45.13 49.75 51.88L49.75 51.88Q45.75 56.63 45.50 57.13L45.50 57.13Q44.75 58 44.38 58.50Q44 59 44 59.13L44 59.13Q43.75 59.25 43.69 59.38Q43.63 59.50 43.63 59.75L43.63 59.75Q43.63 59.75 43.63 59.75Q43.63 59.75 43.63 59.75L43.63 59.75Q43.50 59.75 43.50 59.69Q43.50 59.63 43.50 59.63L43.50 59.63Q43.13 60.13 42.56 60.56Q42 61 41.38 61.13L41.38 61.13L40.38 61.25Q40.25 61.38 40.25 61.44Q40.25 61.50 40.25 61.50L40.25 61.50Q40.25 61.50 40.25 61.56Q40.25 61.63 40.25 61.63L40.25 61.63L40.25 61.75L40.50 61.63L40.50 61.75L39.75 62L38.25 62.38L37.50 62.38Q37.50 62.50 37.81 62.44Q38.13 62.38 37.88 62.50L37.88 62.50L36.88 62.63Q36.38 62.75 36.19 62.69Q36 62.63 35.88 62.50L35.88 62.50L35.75 62.50Q35.75 62.50 35.75 62.56Q35.75 62.63 35.75 62.63L35.75 62.63Q35.75 62.63 35.75 62.69Q35.75 62.75 35.75 62.75L35.75 62.75L35.75 62.50L34.88 62.75Q35 62.25 32 59L32 59Q32 58.63 32.50 58.19Q33 57.75 34.13 57.13L34.13 57.13L38.25 53.50Q39.63 51.75 39.88 47.88L39.88 47.88L39.75 47.25Q39.63 45.88 38.63 44.81Q37.63 43.75 35.75 42.88L35.75 42.88Q34.63 42.13 32.69 41.69Q30.75 41.25 27.88 41.25L27.88 41.25Q24.38 41.75 21.19 42.63Q18 43.50 15.13 44.75L15.13 44.75Q14.38 45.38 13.25 46.06Q12.13 46.75 10.88 47.50L10.88 47.50L10.63 47.88Q10.75 47.88 10.88 47.81Q11 47.75 11.13 47.75L11.13 47.75Q11.13 47.75 11.19 47.75Q11.25 47.75 11.25 47.75L11.25 47.75Q11.38 47.75 11.44 47.81Q11.50 47.88 11.50 48L11.50 48L11.75 47.75L12 47.75L12 48Q11.25 48.75 10.44 49.38Q9.63 50 8.75 50.50L8.75 50.50L8.88 50.88L8.75 50.88L8.38 50.75Q8.38 50.88 8.25 50.88Q8.13 50.88 7.88 51L7.88 51L7.88 51.13L8.25 51.50Q8.13 51.50 8 51.50Q7.88 51.50 7.75 51.38L7.75 51.38Q7 51.63 6.50 52Q6 52.38 5.63 53L5.63 53L5.75 53.25Q6 53 6.25 52.81Q6.50 52.63 6.88 52.50L6.88 52.50L6.88 52.88Q6.75 52.88 6.63 52.94Q6.50 53 6.38 53.13L6.38 53.13L6.75 53.63Q7.25 53.13 7.88 52.63Q8.50 52.13 9.13 51.75L9.13 51.75Q9.50 51.75 9.69 51.88Q9.88 52 9.88 52L9.88 52L10.25 52Q11.75 50.88 13.50 49.94Q15.25 49 17.13 48.25L17.13 48.25L17.38 48.50Q16.75 49.50 16.50 49.50L16.50 49.50Q16.50 49.75 16.56 49.88Q16.63 50 16.75 50.13L16.75 50.13Q16.75 50.75 13.50 58.25L13.50 58.25Q6.13 75.50 1.13 83.88L1.13 83.88Q1.13 84 1.19 84.13Q1.25 84.25 1.38 84.25L1.38 84.25Q1.75 84.25 2.19 84.06Q2.63 83.88 2.88 83.63L2.88 83.63L3.13 83.75L3.13 84L3.38 84L3.75 83.88Q3.75 83.88 3.81 83.94Q3.88 84 4 84L4 84L4 84.25Q4 84.63 3.88 85Q3.75 85.38 3.50 85.75L3.50 85.75Q3.13 86.25 2.88 86.81Q2.63 87.38 2.50 88L2.50 88L2.50 88.13L2.75 88.13Q3.63 87.25 4.44 86.13Q5.25 85 5.75 83.88L5.75 83.88Q8.38 83.13 10.69 82.19Q13 81.25 15.13 80.25L15.13 80.25Q16.25 80.25 17.44 79.88Q18.63 79.50 19.63 78.75L19.63 78.75L19.63 78.50L18.75 78.75L18.63 78.75L18.63 78.63Q19.50 78.50 20.31 78.25Q21.13 78 21.88 77.63L21.88 77.63Q26.25 74.13 28.50 72.75L28.50 72.75Q33.25 69.25 34.63 66L34.63 66L35.13 65.88Q35.25 65.88 35.31 65.94Q35.38 66 35.50 66L35.50 66Q35.63 66 35.69 65.94Q35.75 65.88 35.88 65.88L35.88 65.88Q35.88 65.88 35.88 65.81Q35.88 65.75 36 65.75L36 65.75Q36.50 65.75 36.50 65.75Q36.50 65.75 36.75 65.75L36.75 65.75L38 65.50L38.13 65.50L38.13 65.50Q38.13 65.50 38.19 65.50Q38.25 65.50 38.25 65.50L38.25 65.50Q38.38 65.50 38.44 65.50Q38.50 65.50 38.50 65.50L38.50 65.50L38.63 65.88L33.25 74.38L32 75.75L31.38 77.63L31.50 77.63L32.13 77.38L31.88 78.13L32 78.38L32.13 78.63Q32.13 78.63 32.06 78.63Q32 78.63 32 78.75L32 78.75L32 78.88L32.25 78.75Q32.88 78.38 32.75 78L32.75 78Q32.88 78 33 78Q33.13 78 33.25 78L33.25 78Q33.38 78 33.44 78Q33.50 78 33.50 78L33.50 78L33.50 78.13Q33.38 78.13 33.25 78.31Q33.13 78.50 33.13 78.75L33.13 78.75L33.13 78.75L33.25 78.75Q34.75 77.25 37.81 72.75Q40.88 68.25 43.75 64.50L43.75 64.50Q43.63 63.75 49.75 62.38L49.75 62.38L49.88 62.38Q50.13 63.38 48.88 67L48.88 67Q48.63 67.50 48.50 68.13Q48.38 68.75 48.25 69.38L48.25 69.38Q47.88 70.13 47.69 70.94Q47.50 71.75 47.25 72.50L47.25 72.50L45.88 77.38Q45.25 79 44.69 80.88Q44.13 82.75 43.75 84.75L43.75 84.75Q43.75 84.88 43.81 84.94Q43.88 85 44 85L44 85Q44 85 44.06 85Q44.13 85 44.13 85L44.13 85L44.38 84.88Q44.38 84.88 44.38 84.88Q44.38 84.88 44.50 84.88L44.50 84.88Q44.50 84.88 44.50 84.88Q44.50 84.88 44.50 84.88L44.50 84.88L44.38 84.63L45 84.63Q45.25 84.63 45.31 84.38Q45.38 84.13 45.50 83.88L45.50 83.88Q45.50 83.38 45.63 83.13Q45.75 82.88 45.88 82.75L45.88 82.75Q46 82.13 46.19 81.56Q46.38 81 46.63 80.38L46.63 80.38Q46.75 79.75 47 79.06Q47.25 78.38 47.50 77.88L47.50 77.88Q47.88 76.38 48.19 75.63Q48.50 74.88 48.63 74.88L48.63 74.88L48.75 75L48.38 76Q47.88 78.25 47.31 80.13Q46.75 82 46.13 83.75L46.13 83.75L46.38 84.25L46.50 84.25Q49.13 78.75 54 62.13L54 62.13Q54.13 61.50 54.50 60.94Q54.88 60.38 55.38 60L55.38 60L55.25 59.75L55.25 59.75Q55.50 59.63 55.69 59.50Q55.88 59.38 56 59.25L56 59.25Q56 59.25 55.75 59.13Q55.50 59 55 58.88L55 58.88L56.63 51.88Q56.75 51.75 56.88 51.63Q57 51.50 57.25 51.38L57.25 51.38L57.25 51.75Q57.13 51.75 57.06 51.81Q57 51.88 56.88 51.88L56.88 51.88L57.13 52.38Q57.63 51.88 58.06 51.50Q58.50 51.13 59 50.88L59 50.88Q59.25 50.88 59.38 51Q59.50 51.13 59.50 51.13L59.50 51.13L59.75 51.13Q60.88 50.25 62.25 49.50Q63.63 48.75 65 48.25L65 48.25L65.25 48.50Q64.75 49.25 64.50 49.25L64.50 49.25Q64.50 49.38 64.56 49.50Q64.63 49.63 64.63 49.63L64.63 49.63Q64.13 51.50 63.50 53.06Q62.88 54.63 62.13 56.13L62.13 56.13Q59.88 61.75 57.44 66.63Q55 71.50 52.38 76.25L52.38 76.25Q52.75 75.63 52.81 75.63Q52.88 75.63 53 75.75L53 75.75Q53.38 75.63 53.63 75.50Q53.88 75.38 54.13 75.25L54.13 75.25L54.25 75.25L54.25 75.50L54.50 75.50L54.75 75.38Q54.75 75.50 55 75.50L55 75.50L55 75.75Q55 76 54.88 76.25Q54.75 76.50 54.63 76.75L54.63 76.75Q54.38 77.13 54.13 77.56Q53.88 78 53.75 78.50L53.75 78.50L53.75 78.75L54 78.75Q54.63 78 55.25 77.19Q55.88 76.38 56.25 75.38L56.25 75.38Q58.25 74.88 60 74.19Q61.75 73.50 63.38 72.75L63.38 72.75Q64.25 72.75 65.13 72.44Q66 72.13 66.75 71.50L66.75 71.50L66.75 71.38L66.13 71.63L66 71.63L66 71.50Q66.63 71.50 67.25 71.25Q67.88 71 68.38 70.75L68.38 70.75Q70.13 69.38 71.44 68.44Q72.75 67.50 73.50 67L73.50 67Q76.25 65 77.50 63.13Q78.75 61.25 78.63 59.50L78.63 59.50ZM78.13 59.63L78.13 59.63L78.13 60.50Q78.13 60.75 78 60.81Q77.88 60.88 77.88 60.88L77.88 60.88L77.63 59.25Q77.88 59.38 78 59.44Q78.13 59.50 78.13 59.63L78.13 59.63ZM7.50 52L7.50 52L7.38 52L7.38 51.75L8 51.63L8 51.75Q7.88 51.88 7.75 51.88Q7.63 51.88 7.50 52L7.50 52ZM4.38 83.38L4.38 83.38Q4.13 83.25 3.94 83.19Q3.75 83.13 3.50 83.13L3.50 83.13Q3.50 83.13 3.44 83.19Q3.38 83.25 3.38 83.25L3.38 83.25L3.38 82.75Q3.38 82.63 3.44 82.50Q3.50 82.38 3.75 82.38L3.75 82.38Q3.88 82.38 3.94 82.50Q4 82.63 4 82.88L4 82.88Q4.25 82.50 4.44 82.25Q4.63 82 4.88 81.88L4.88 81.88L5.25 82Q5.13 82.63 4.94 83Q4.75 83.38 4.38 83.38L4.38 83.38ZM37.88 48L37.88 48.25Q37.75 48.25 37.56 47.94Q37.38 47.63 37 46.88L37 46.88L37 46.50Q37.25 46.50 37.50 46.88Q37.75 47.25 37.88 48L37.88 48ZM37.50 44.88L37.50 44.88L37.38 45.13L32.75 43.25Q37.38 43.38 37.50 44.88L37.50 44.88ZM18.25 61L18.25 61.38L17.63 61.38L17.63 61.13L18.25 61ZM17.75 51.50L17.75 51.38L17.88 51.38L17.88 51.88Q17.75 51.88 17.63 52.06Q17.50 52.25 17.25 52.50L17.25 52.50L17.25 52.25Q17.50 52 17.63 51.81Q17.75 51.63 17.75 51.50L17.75 51.50ZM16.25 54.63L16.38 54.63L16.50 55.25L16.25 55.25L16.25 54.63ZM15.63 55.75L15.63 55.75L16 55.75Q16 56.13 15.88 56.31Q15.75 56.50 15.50 56.50L15.50 56.50L15.38 56.50Q15.50 56.38 15.56 56.19Q15.63 56 15.63 55.75L15.63 55.75ZM15.13 57.38L15.13 57.38L15.38 57.38L15.38 57.50L15 58L14.75 58L14.75 57.88Q14.75 57.88 14.75 57.88Q14.75 57.88 14.75 57.88L14.75 57.88Q14.88 57.88 15 57.75Q15.13 57.63 15.13 57.38L15.13 57.38Q15.13 57.38 15.13 57.38Q15.13 57.38 15.13 57.38L15.13 57.38ZM14.63 58.75L14.63 58.75L14.50 59.50L14.38 59.50L14.25 58.75L14.63 58.75ZM9.38 73.63L9.38 73.63Q9.25 74.38 9.06 74.81Q8.88 75.25 8.75 75.25L8.75 75.25L8.75 75Q8.75 75 8.75 75Q8.75 75 8.75 75L8.75 75Q8.75 74.50 8.94 74.19Q9.13 73.88 9.38 73.63L9.38 73.63ZM8.38 75.63L8.38 75.75L8.38 75.88Q8.38 75.88 8.38 75.88Q8.38 75.88 8.38 75.88L8.38 75.88Q8.38 76 8.31 76.13Q8.25 76.25 8.13 76.25L8.13 76.25Q8.13 76.25 8.13 76.25Q8.13 76.25 8.13 76.25L8.13 76.25L8.13 76Q8.13 75.75 8.38 75.63L8.38 75.63ZM8.13 80L8.13 80L8.63 80L8.63 80.13Q8.50 80.25 8.38 80.25Q8.25 80.25 8.13 80.38L8.13 80.38L7.88 80.38Q7.88 80.25 7.94 80.19Q8 80.13 8.13 80L8.13 80ZM21.88 75.88L22 75.75Q20.63 76.38 19.38 77.06Q18.13 77.75 17.13 78.50L17.13 78.50Q12.75 80 12.75 80.38L12.75 80.38Q11.25 81 9.88 81.56Q8.50 82.13 7.38 82.75L7.38 82.75Q7.25 82.75 7.06 82.63Q6.88 82.50 6.75 82.38L6.75 82.38Q6.75 82.38 6.75 82.38Q6.75 82.38 6.75 82.38L6.75 82.38Q6.75 82 6.94 81.69Q7.13 81.38 7.50 81.13L7.50 81.13Q7.50 81.13 7.56 81.13Q7.63 81.13 7.63 81.13L7.63 81.13Q8 81.13 8.25 81.19Q8.50 81.25 8.75 81.38L8.75 81.38Q9.25 81.13 9.88 80.88Q10.50 80.63 11.25 80.50L11.25 80.50L11.25 80.25L10.25 80.25Q10.88 79.88 11.56 79.56Q12.25 79.25 13 79L13 79L13.63 79L13.63 79.13Q13 79.25 12.63 79.44Q12.25 79.63 12.25 79.88L12.25 79.88Q12.25 80 12.31 80.06Q12.38 80.13 12.50 80.13L12.50 80.13Q13 79.88 13.25 79.69Q13.50 79.50 13.50 79.50L13.50 79.50Q15.25 79.13 23.25 74.38L23.25 74.38L23.25 74.63Q23.25 74.75 22.94 75.06Q22.63 75.38 21.88 75.88L21.88 75.88ZM13.75 78.50L13.75 78.50Q14.25 78.38 14.81 78.13Q15.38 77.88 15.75 77.50L15.75 77.50Q15.88 77.50 15.94 77.56Q16 77.63 16.13 77.75L16.13 77.75Q15.50 78 14.94 78.25Q14.38 78.50 13.88 78.75L13.88 78.75L13.75 78.75L13.75 78.50ZM27 68.25L27 68.25L22.88 71.50Q21.88 72.25 20.69 73Q19.50 73.75 18.13 74.38L18.13 74.38Q10.63 78.50 8.88 78.75L8.88 78.75L8.75 78.75Q8.88 77.88 15.25 65.38L15.25 65.38Q17.63 65 19.88 64.31Q22.13 63.63 24.13 62.75L24.13 62.75L24.88 62.75Q25.13 62.75 25.38 62.69Q25.63 62.63 25.88 62.63L25.88 62.63Q26.88 62.63 27.81 62.94Q28.75 63.25 29.38 63.88L29.38 63.88L29.50 64.50Q28.88 66.13 28.25 67.06Q27.63 68 27 68.25L27 68.25ZM19 63.88L19 63.75L19.63 63.75L19.63 63.88L19 63.88ZM28.25 62.25L28.25 62.13L28.75 62.13Q29.13 62.38 29.31 62.50Q29.50 62.63 29.50 62.75L29.50 62.75L29.50 62.88Q29.50 62.88 29.50 62.88Q29.50 62.88 29.50 62.88L29.50 62.88Q29.13 62.88 28.81 62.69Q28.50 62.50 28.25 62.25L28.25 62.25ZM29.50 54.63L29.63 54.75Q28.75 55.38 27.88 56.06Q27 56.75 26.13 57.25L26.13 57.25Q25.50 57.38 23.75 58.06Q22 58.75 18.88 60.13L18.88 60.13Q18.88 60 18.75 60Q18.63 60 18.50 60L18.50 60Q18.38 60 18.38 60Q18.38 60 18.25 60L18.25 60L18.25 59.75Q18.38 59.13 18.56 58.56Q18.75 58 19.13 57.50L19.13 57.50Q19.38 56.25 19.63 55.50Q19.88 54.75 20.13 54.63L20.13 54.63L23.50 47Q23.38 46.25 25.63 45.88L25.63 45.88L26.13 45.88L26.13 46.38Q27.25 46.13 27.94 46.06Q28.63 46 28.88 46L28.88 46Q30.88 45.75 31.94 46.19Q33 46.63 33.13 47.63L33.13 47.63L33.38 47.63L33.38 46.75L33.63 46.75Q34.13 47 34.50 47.38Q34.88 47.75 35 48.25L35 48.25Q35 48.75 34.81 49.13Q34.63 49.50 34.25 49.88L34.25 49.88Q34.13 49.88 34.06 49.75Q34 49.63 34 49.38L34 49.38L33.63 49.38L33.50 50.38Q31.50 53.38 30.50 53.50L30.50 53.50Q30.13 54.13 29.88 54.38Q29.63 54.63 29.50 54.63L29.50 54.63ZM31.75 60.13L31.75 60Q31.50 60 31.38 59.94Q31.25 59.88 31 59.75L31 59.75L31 59.38L31.38 59.38L32 59.75Q32 59.75 32 59.75Q32 59.75 32 59.75L32 59.75Q32 59.88 31.94 60Q31.88 60.13 31.75 60.13L31.75 60.13Q31.75 60.13 31.75 60.13Q31.75 60.13 31.75 60.13L31.75 60.13ZM33.88 62.50L33.88 62.63Q34.13 62.75 34.25 62.81Q34.38 62.88 34.38 63L34.38 63L34.13 63L33.88 63.13L33.88 62.50ZM34.38 63.75L34 63.88L34 63.75L34.38 63.75L34.38 63.75ZM34.88 65L35 65Q35.25 65 35.50 64.94Q35.75 64.88 36.25 64.75L36.25 64.75L36.25 64.88L34.88 65.25Q34.88 65.13 34.88 65.13Q34.88 65.13 34.88 65.13L34.88 65.13Q34.88 65.13 34.88 65.06Q34.88 65 34.88 65L34.88 65ZM36.38 65.63L36.38 65.63Q36 65.63 35.63 65.69Q35.25 65.75 34.88 65.75L34.88 65.75L34.88 65.63L36.13 65.25L36.63 65.13L36.75 65.38Q36.50 65.38 36.56 65.44Q36.63 65.50 36.38 65.63L36.38 65.63ZM37.63 65.25L37.63 65.25Q37.63 65.25 37.56 65.25Q37.50 65.25 37.50 65.25L37.50 65.25Q37.38 65.25 37.31 65.19Q37.25 65.13 37.25 65.13L37.25 65.13L37.63 65Q37.63 65 37.63 65Q37.63 65 37.75 65L37.75 65Q37.75 65 37.81 65.06Q37.88 65.13 37.88 65.25L37.88 65.25L37.63 65.25ZM41 61.50L41 61.63L41 61.50L41.63 61.25L41.63 61.50L41 61.50ZM44.63 84L44.63 83.88Q44.63 83.88 44.63 83.81Q44.63 83.75 44.63 83.75L44.63 83.75Q44.63 83.63 44.63 83.63Q44.63 83.63 44.63 83.50L44.63 83.50L44.75 83.50Q44.75 83.50 44.81 83.50Q44.88 83.50 44.88 83.50L44.88 83.50Q44.88 83.50 44.94 83.56Q45 83.63 45 83.75L45 83.75L45 83.88L44.63 84ZM47.13 62.50L47.25 62.50L46.88 62.50Q46.75 62.63 46.50 62.69Q46.25 62.75 45.88 62.88L45.88 62.88L45.63 63Q45.63 63 45.63 63Q45.63 63 45.50 63L45.50 63Q45.50 63 45.44 62.94Q45.38 62.88 45.38 62.75L45.38 62.75L47 62.38L47.50 62.13L47.75 62.25Q47.63 62.38 47.44 62.44Q47.25 62.50 47.13 62.50L47.13 62.50ZM48.38 62.13L48.50 62.13L48.50 62Q48.63 62 48.69 61.94Q48.75 61.88 48.88 61.75L48.88 61.75L50 61.50L50 61.63Q49.50 61.75 49.13 61.88Q48.75 62 48.38 62.13L48.38 62.13ZM48.75 59.63L48.75 59.63Q48.63 59.75 48.50 59.75Q48.38 59.75 48.38 59.88L48.38 59.88Q48.38 59.75 48.25 59.75Q48.13 59.75 47.88 59.88L47.88 59.88Q47.75 59.75 48.44 59.50Q49.13 59.25 50.50 58.88L50.50 58.88L50.75 58.75L50.88 59Q49.88 59.38 49.38 59.50Q48.88 59.63 48.75 59.63L48.75 59.63ZM52 56.13L52 56.13Q51.88 57.25 51.50 57.88Q51.13 58.50 50.38 58.63L50.38 58.63L50.38 58.50L49.50 58.88L49.25 59Q49.13 59 49.06 59Q49 59 49 59L49 59Q48.88 59 48.81 59Q48.75 59 48.75 59L48.75 59L48.63 58.63Q49.50 57.25 50.38 56Q51.25 54.75 52.25 53.63L52.25 53.63L52.50 53.75Q52.50 53.75 52.50 53.81Q52.50 53.88 52.50 53.88L52.50 53.88Q52.50 54.50 52.38 55.06Q52.25 55.63 52 56.13L52 56.13ZM57.75 51.25L57.75 51.25L57.63 51.25L57.63 51L58.13 51L58.13 51.13Q58 51.13 57.88 51.19Q57.75 51.25 57.75 51.25L57.75 51.25ZM55.38 75.13L55.38 75Q55.25 75 55.06 74.94Q54.88 74.88 54.63 74.88L54.63 74.88Q54.63 74.88 54.63 74.88Q54.63 74.88 54.63 74.88L54.63 74.88L54.63 74.50Q54.63 74.38 54.75 74.25L54.75 74.25Q54.88 74.25 55 74.38Q55.13 74.50 55.13 74.63L55.13 74.63Q55.25 74.38 55.38 74.19Q55.50 74 55.75 73.88L55.75 73.88L56 74Q55.88 74.50 55.75 74.81Q55.63 75.13 55.38 75.13L55.38 75.13ZM80.75 48.38L80.75 48.38Q80.75 48.38 80.56 48.13Q80.38 47.88 80.13 47.25L80.13 47.25L80.13 47.13Q80.25 47.13 80.44 47.38Q80.63 47.63 80.75 48.13L80.75 48.13L80.75 48.38ZM80.50 45.75L80.50 45.75L80.38 46L76.88 44.50Q78.63 44.63 79.50 44.94Q80.38 45.25 80.50 45.75L80.50 45.75ZM65.88 58.13L65.88 58.25L65.38 58.25L65.38 58.13L65.88 58.13ZM65.50 50.75L65.50 50.75L65.63 50.75L65.63 51.13Q65.38 51.13 65.13 51.63L65.13 51.63L65.13 51.38Q65.25 51.25 65.31 51.13Q65.38 51 65.50 50.75L65.50 50.75ZM64.38 53.13L64.50 53.13L64.50 53.63L64.38 53.63L64.38 53.13ZM63.88 54L63.88 54L64.13 54Q64.13 54.63 63.88 54.63L63.88 54.63L63.75 54.63Q63.75 54.50 63.81 54.38Q63.88 54.25 63.88 54L63.88 54ZM63.50 55.25L63.50 55.25L63.63 55.25L63.63 55.38L63.38 55.75L63.13 55.75L63.13 55.63Q63.38 55.63 63.44 55.50Q63.50 55.38 63.50 55.25L63.50 55.25ZM63.13 56.38L63.13 56.38L63 56.88L63 56.88L63 56.38L63.13 56.38ZM59.13 67.63L59.13 67.63Q58.88 68.75 58.63 68.88L58.63 68.88L58.63 68.75Q58.63 68.75 58.63 68.69Q58.63 68.63 58.63 68.63L58.63 68.63Q58.63 68.38 58.75 68.06Q58.88 67.75 59.13 67.63L59.13 67.63ZM58.38 69.25L58.38 69.25L58.38 69.25Q58.38 69.38 58.38 69.38Q58.38 69.38 58.38 69.38L58.38 69.38Q58.38 69.50 58.31 69.56Q58.25 69.63 58.25 69.63L58.25 69.63Q58.25 69.63 58.19 69.63Q58.13 69.63 58.13 69.63L58.13 69.63L58.13 69.50Q58.13 69.25 58.38 69.25L58.38 69.25ZM58.13 72.50L58.25 72.50L58.50 72.50L58.50 72.63Q58.50 72.63 58.38 72.69Q58.25 72.75 58.25 72.75L58.25 72.75L58 72.75Q58 72.50 58.13 72.50L58.13 72.50ZM68.75 69.25L68.63 69.25Q67.63 69.75 66.69 70.25Q65.75 70.75 64.88 71.38L64.88 71.38Q63.25 71.88 62.44 72.25Q61.63 72.63 61.63 72.75L61.63 72.75Q60.50 73.25 59.50 73.69Q58.50 74.13 57.63 74.63L57.63 74.63Q57.50 74.50 57.38 74.44Q57.25 74.38 57.13 74.25L57.13 74.25Q57.13 74.25 57.13 74.25Q57.13 74.25 57.13 74.25L57.13 74.25Q57.13 73.88 57.25 73.69Q57.38 73.50 57.63 73.38L57.63 73.38Q57.75 73.25 57.81 73.25Q57.88 73.25 57.88 73.25L57.88 73.25Q58.13 73.25 58.31 73.31Q58.50 73.38 58.63 73.50L58.63 73.50Q59.13 73.25 59.56 73.13Q60 73 60.50 72.88L60.50 72.88L60.63 72.63L59.88 72.63Q60.25 72.38 60.81 72.13Q61.38 71.88 61.88 71.75L61.88 71.75L62.38 71.63L62.38 71.75Q61.88 71.88 61.63 72Q61.38 72.13 61.25 72.38L61.25 72.38Q61.25 72.38 61.25 72.38Q61.25 72.38 61.25 72.38L61.25 72.38Q61.25 72.50 61.31 72.56Q61.38 72.63 61.50 72.63L61.50 72.63Q61.50 72.63 61.50 72.63Q61.50 72.63 61.50 72.63L61.50 72.63Q61.88 72.38 62.06 72.25Q62.25 72.13 62.25 72L62.25 72Q63.63 71.75 69.75 68.13L69.75 68.13L69.75 68.38Q69.75 68.38 69.44 68.63Q69.13 68.88 68.75 69.25L68.75 69.25ZM62.50 71.25L62.38 71.25Q62.88 71.25 63.25 71.06Q63.63 70.88 64 70.63L64 70.63Q64.13 70.63 64.19 70.69Q64.25 70.75 64.25 70.75L64.25 70.75Q63.75 70.88 63.38 71.06Q63 71.25 62.63 71.50L62.63 71.50L62.50 71.50L62.50 71.25ZM72.50 63.50L72.50 63.50L69.38 66Q68.63 66.63 67.69 67.19Q66.75 67.75 65.75 68.25L65.75 68.25Q60.13 71.25 58.75 71.50L58.75 71.50L58.63 71.50Q58.75 70.88 63.50 61.38L63.50 61.38Q65.38 61 67.06 60.50Q68.75 60 70.38 59.25L70.38 59.25L70.88 59.25Q71.13 59.25 71.31 59.25Q71.50 59.25 71.63 59.25L71.63 59.25Q72.38 59.25 73.06 59.50Q73.75 59.75 74.38 60.25L74.38 60.25L74.25 60.63Q73.88 61.88 73.44 62.56Q73 63.25 72.50 63.50L72.50 63.50ZM66.38 60.25L66.38 60.13L66.88 60.13L66.88 60.25L66.38 60.25ZM73.50 59L73.50 58.88L73.88 58.88Q74.13 59 74.25 59.13Q74.38 59.25 74.38 59.38L74.38 59.38L74.38 59.50Q74.38 59.50 74.38 59.50Q74.38 59.50 74.25 59.50L74.25 59.50Q74 59.50 73.81 59.38Q73.63 59.25 73.50 59L73.50 59ZM74.50 53.25L74.50 53.25Q73.88 53.88 73.19 54.31Q72.50 54.75 71.88 55.25L71.88 55.25Q70.25 55.75 68.88 56.25Q67.50 56.75 66.25 57.38L66.25 57.38Q66.25 57.38 66.19 57.31Q66.13 57.25 66 57.25L66 57.25Q66 57.25 66 57.25Q66 57.25 65.88 57.25L65.88 57.25L65.88 57Q66 56.50 66.13 56.13Q66.25 55.75 66.50 55.38L66.50 55.38Q66.75 54.38 66.94 53.81Q67.13 53.25 67.25 53.13L67.25 53.13L69.88 47.38Q69.88 47.13 70.31 46.94Q70.75 46.75 71.50 46.50L71.50 46.50L71.88 46.50L71.88 46.88Q73.63 46.63 74 46.63L74 46.63Q75.50 46.38 76.31 46.69Q77.13 47 77.25 47.75L77.25 47.75L77.50 47.75L77.50 47.25L77.63 47.25Q78.13 47.38 78.38 47.69Q78.63 48 78.63 48.38L78.63 48.38Q78.63 48.75 78.50 49.06Q78.38 49.38 78.25 49.63L78.25 49.63Q78.13 49.63 78 49.56Q77.88 49.50 77.88 49.25L77.88 49.25L77.63 49.25L77.63 50Q76.88 51.25 76.31 51.81Q75.75 52.38 75.38 52.38L75.38 52.38Q75 52.88 74.81 53.06Q74.63 53.25 74.50 53.25L74.50 53.25ZM75.63 57.13L75.50 57.13L75.50 56.75L75.75 56.75L76.25 57.13Q76.25 57.13 76.25 57.13Q76.25 57.13 76.25 57.13L76.25 57.13Q76.25 57.25 76.19 57.31Q76.13 57.38 76.13 57.38L76.13 57.38Q76.13 57.38 76.13 57.38Q76.13 57.38 76.13 57.38L76.13 57.38Q76 57.25 75.88 57.19Q75.75 57.13 75.63 57.13L75.63 57.13ZM32.13 79.75L32.13 79.75L31.88 79.88L31.75 80Q31.75 80.13 31.81 80.13Q31.88 80.13 31.88 80.13L31.88 80.13Q31.88 80.13 31.94 80.13Q32 80.13 32 80.13L32 80.13Q32.13 80.13 32.19 80.06Q32.25 80 32.13 79.88L32.13 79.88L32.13 79.75ZM31.25 77.88L31.25 77.88L31.25 78Q31.38 78 31.44 77.94Q31.50 77.88 31.38 77.75L31.38 77.75L31.38 77.63Q31.38 77.63 31.31 77.69Q31.25 77.75 31.25 77.88L31.25 77.88Q31.25 77.88 31.25 77.88Q31.25 77.88 31.25 77.88L31.25 77.88ZM37.88 65.50L37.88 65.50L38 65.38L37.88 65.38Q37.88 65.38 37.88 65.44Q37.88 65.50 37.88 65.50L37.88 65.50Q37.88 65.50 37.88 65.50Q37.88 65.50 37.88 65.50L37.88 65.50ZM37.75 62.25L37.88 62.38L38.13 62.25L38 62L37.75 62.13L37.75 62.25ZM103.75 71.75L103.63 71.75L103 71.63L103 71.88L103 72L106.75 71.63L106.75 71.50L103.75 71.75ZM123.38 69.50L123 69.38L123 69.63L123.38 69.63L123.38 69.50ZM122.38 69.38L122.38 69.38Q121.50 69.63 120.56 69.75Q119.63 69.88 118.63 70L118.63 70L118.63 70.13L119 70.13L119.25 70Q121.38 69.88 121.88 69.81Q122.38 69.75 122.38 69.50L122.38 69.50L122.38 69.38ZM105.38 65.25L105.38 65.25L105.13 65.13Q105 65.38 104.94 65.63Q104.88 65.88 104.88 66.13L104.88 66.13L104.88 66.25Q105 66.25 105.13 66Q105.25 65.75 105.38 65.25L105.38 65.25ZM102 63.38L102 63.38L102 63.25L101.88 63.25L101.63 63.50L101.75 63.63Q101.88 63.63 101.94 63.56Q102 63.50 102 63.38L102 63.38ZM109.25 71.13L109.38 71.13L109.38 70.88L109.25 70.88L109.25 71.13ZM124.63 67.63L124.75 67.63L124.88 67.63Q125 67.63 125.06 67.56Q125.13 67.50 125.13 67.38L125.13 67.38L125 67.13Q125 67.13 125 67.13Q125 67.13 125 67.13L125 67.13Q124.50 67.13 124.19 67.25Q123.88 67.38 123.50 67.50L123.50 67.50L123.50 67.38L122.75 67.50Q122.75 67.25 122.69 67.19Q122.63 67.13 122.50 67.13L122.50 67.13L122.13 67.13Q121.75 67.13 121.56 67.13Q121.38 67.13 121.25 67.38L121.25 67.38Q121.25 67.25 121.25 67.25Q121.25 67.25 121.13 67.25L121.13 67.25L120.75 67.25L120.50 67.38Q120.50 67.25 120.44 67.25Q120.38 67.25 120.38 67.25L120.38 67.25L120.25 67.38L120.25 67.25L119.38 67.25L119.38 67.50L119.75 67.50L120 67.50Q120.13 67.63 120.19 67.63Q120.25 67.63 120.38 67.63L120.38 67.63Q120.38 67.63 120.38 67.63Q120.38 67.63 120.38 67.63L120.38 67.63L120.63 67.50L120.63 67.63Q120.13 67.75 119.50 67.88Q118.88 68 118.25 68L118.25 68Q118.13 68 118.06 68Q118 68 118 68L118 68L118 68Q117.88 68 117.81 67.94Q117.75 67.88 117.75 67.75L117.75 67.75Q117.75 67.75 117.75 67.75Q117.75 67.75 117.75 67.75L117.75 67.75L118.25 67.75Q118.38 67.75 118.44 67.75Q118.50 67.75 118.63 67.75L118.63 67.75Q118.88 67.63 119 67.56Q119.13 67.50 119.25 67.50L119.25 67.50L119.25 67.25Q118.63 67.38 118 67.44Q117.38 67.50 116.63 67.50L116.63 67.50L116.50 67.50L116.50 67.25Q118.25 67 118.25 67.06Q118.25 67.13 118.88 66.88L118.88 66.88Q118.88 67 118.88 67Q118.88 67 119 67L119 67Q119 67 119.06 66.94Q119.13 66.88 119.25 66.88L119.25 66.88L119.38 66.88Q119.50 66.88 119.63 66.88Q119.75 66.88 119.75 66.88L119.75 66.88Q120.38 66.88 120.94 66.81Q121.50 66.75 122 66.63L122 66.63L122 66.75L122.25 66.63L122.50 66.63Q122.50 66.38 122.69 66.31Q122.88 66.25 123 66.25L123 66.25L123 66Q120.88 66.50 120.06 66.50Q119.25 66.50 118.63 66.63L118.63 66.63L118.63 66.63Q118.50 66.63 118.31 66.63Q118.13 66.63 117.88 66.63L117.88 66.63Q117.75 66.63 117.69 66.63Q117.63 66.63 117.63 66.63L117.63 66.63Q117.50 66.63 117.50 66.69Q117.50 66.75 117.38 66.75L117.38 66.75Q117.38 66.75 117.38 66.69Q117.38 66.63 117.25 66.63L117.25 66.63L117.25 66.63L114.88 67.13Q114.88 67 114.88 67Q114.88 67 114.88 67L114.88 67Q114.25 67.13 113.63 67.25Q113 67.38 112.25 67.38L112.25 67.38Q112.25 67.50 112.13 67.50Q112 67.50 112 67.63L112 67.63Q112 67.50 111.94 67.50Q111.88 67.50 111.88 67.50L111.88 67.50L110.88 67.50L110.13 67.75Q110.13 67.63 110.13 67.63Q110.13 67.63 110 67.63L110 67.63Q109.75 67.75 109.50 67.75Q109.25 67.75 109 67.88L109 67.88L109 67.88Q108.88 67.88 109 67.81Q109.13 67.75 109 67.75L109 67.75L108.75 67.88Q108.63 67.88 108.50 67.88Q108.38 67.88 107.63 67.88L107.63 67.88Q106.25 68 106.13 68.06Q106 68.13 105.88 68.13L105.88 68.13L105.13 68.13Q105.13 68.13 105.13 68.13Q105.13 68.13 105.13 68.13L105.13 68.13Q105.13 68.13 105.13 68.19Q105.13 68.25 105.13 68.25L105.13 68.25Q105.13 68.25 105.13 68.25Q105.13 68.25 105.13 68.25L105.13 68.25Q104.50 68.13 104.19 68.06Q103.88 68 103.88 67.88L103.88 67.88Q104.13 66.75 104.50 66.75L104.50 66.75L104.63 66.75L104.50 67L104.63 67Q104.75 66.88 104.88 66.81Q105 66.75 105 66.63L105 66.63L105 66.38L104.75 66.38L104.75 66.13Q104.75 66.13 104.75 66.06Q104.75 66 104.75 66L104.75 66Q104.75 65.88 104.75 65.81Q104.75 65.75 104.75 65.63L104.75 65.63L105.38 64.75L105.38 65L105.63 65L105.63 64.75L105.38 64.63Q105.50 64.50 105.63 64.44Q105.75 64.38 105.88 64.25L105.88 64.25L105.88 64.13L105.50 64.13L105.50 63.88Q105.88 63.25 106.13 62.63Q106.38 62 106.50 61.38L106.50 61.38L106.75 61.38Q106.88 61.38 106.94 61.31Q107 61.25 107 61.13L107 61.13L106.75 61.13L106.75 61Q106.75 61 106.75 60.94Q106.75 60.88 106.75 60.88L106.75 60.88Q106.75 60.75 106.81 60.69Q106.88 60.63 106.88 60.50L106.88 60.50Q107.13 60.25 107.25 59.94Q107.38 59.63 107.38 59.38L107.38 59.38Q107.38 59.38 107.38 59.31Q107.38 59.25 107.38 59.25L107.38 59.25Q107.50 59.25 107.50 59.25Q107.50 59.25 107.50 59.38L107.50 59.38Q107.75 59.25 107.94 58.88Q108.13 58.50 108.25 57.88L108.25 57.88Q108.88 56.63 109.50 55.13Q110.13 53.63 110.63 52L110.63 52Q112.25 47.63 112.50 46.44Q112.75 45.25 113 44.25L113 44.25L112.75 44.25Q112.75 44.25 112.75 44.25Q112.75 44.25 112.75 44.38L112.75 44.38Q112.75 44.38 112.75 44.50Q112.75 44.63 112.63 44.75L112.63 44.75Q112.63 44.63 112.50 44.63Q112.38 44.63 112.25 44.63L112.25 44.63L112.25 44.50Q112.25 44 112.44 43.56Q112.63 43.13 112.88 42.75L112.88 42.75L113 42.75L113.25 43.63L113.50 43.63Q113.50 43.38 113.56 43.06Q113.63 42.75 113.63 42.50L113.63 42.50Q113.63 42.50 113.56 42.44Q113.50 42.38 113.38 42.38L113.38 42.38L113.13 42.50Q113.13 42.38 113.13 42.06Q113.13 41.75 113.13 41.25L113.13 41.25L113 41.25Q112.88 41.13 112.81 41Q112.75 40.88 112.63 40.75L112.63 40.75L111.38 40.88Q111.38 40.75 111.31 40.63Q111.25 40.50 111.13 40.50L111.13 40.50Q111.25 40.38 111.44 40.31Q111.63 40.25 112.13 40.13L112.13 40.13L112.38 40.25L112.63 40Q112.63 40.13 112.69 40.13Q112.75 40.13 112.75 40.13L112.75 40.13L113 40Q113 40.13 113.06 40.13Q113.13 40.13 113.13 40.13L113.13 40.13L113.25 40.13L113.25 39.88Q113.13 39.88 112.75 39.88Q112.38 39.88 111.88 39.88L111.88 39.88L111.63 40L111.63 39.88Q102.25 40.63 100.88 40.75L100.88 40.75Q100.88 40.75 100.50 40.75Q100.13 40.75 99.63 40.75L99.63 40.75Q99.63 40.88 99.56 40.88Q99.50 40.88 99.38 41L99.38 41L99 40.88L98 41Q97.88 41 97.75 41Q97.63 41 97.50 41L97.50 41Q97.38 41 97.19 41Q97 41 96.88 41L96.88 41Q96.75 41.13 96.63 41.19Q96.50 41.25 96.38 41.25L96.38 41.25L99 41Q98.88 41.13 98.75 41.19Q98.63 41.25 98.38 41.25L98.38 41.25Q98.38 41.25 98.38 41.25Q98.38 41.25 98.25 41.25L98.25 41.25Q98.13 41.25 98.06 41.19Q98 41.13 97.88 41.13L97.88 41.13Q97.50 41.25 97 41.38Q96.50 41.50 96 41.63L96 41.63L95.63 41.50L91.25 42.13Q91.13 42.13 91 42.06Q90.88 42 90.75 42L90.75 42Q90.75 42 90.75 42.06Q90.75 42.13 90.63 42.13L90.63 42.13Q90.38 42.13 90.06 42.19Q89.75 42.25 89.50 42.38L89.50 42.38L87.38 43.25L87.50 43.50Q87.63 43.50 87.75 43.44Q87.88 43.38 88 43.25L88 43.25L88.75 43.38L88.63 44Q88.25 44.25 87.88 44.56Q87.50 44.88 87.50 45.38L87.50 45.38Q86.75 45.75 86.31 46Q85.88 46.25 85.88 46.38L85.88 46.38L85.88 46.50L86 46.50L86.38 46.38L86.63 46.75L86.63 47.25Q86.63 47.50 81.50 58.25L81.50 58.25Q79.25 63.50 78.06 66.31Q76.88 69.13 76.75 69.63L76.75 69.63Q76 69.88 75.50 70.19Q75 70.50 74.88 70.88L74.88 70.88Q74.88 71 75.13 71.13Q75.38 71.25 75.75 71.25L75.75 71.25L75.75 71.50L75.50 72L75.50 72.50Q75.50 73 77.75 73.13L77.75 73.13Q77.75 73.13 77.81 73.06Q77.88 73 78 73L78 73Q77.88 73.50 77.81 74.06Q77.75 74.63 77.63 75L77.63 75L78 75Q78.38 74.63 78.56 74.19Q78.75 73.75 78.88 73.25L78.88 73.25L79 73.25Q79.13 73.25 79.25 73.38Q79.38 73.50 79.50 73.75L79.50 73.75Q79.25 73.88 77.50 78.25L77.50 78.25L77.63 78.50L77.75 78.50Q79.88 73.25 80.38 72.75L80.38 72.75Q83.13 72.50 89.75 71.75L89.75 71.75L90 71.63Q90 71.63 90 71.63Q90 71.63 90 71.63L90 71.63Q90 71.63 90.06 71.69Q90.13 71.75 90.13 71.75L90.13 71.75Q90.13 71.75 90.13 71.75Q90.13 71.75 90.13 71.75L90.13 71.75L90.50 71.75L90.75 71.50Q90.75 71.50 90.75 71.50Q90.75 71.50 90.75 71.50L90.75 71.50Q90.75 71.63 90.81 71.63Q90.88 71.63 90.88 71.63L90.88 71.63Q90.88 71.63 90.88 71.63Q90.88 71.63 90.88 71.63L90.88 71.63L94.25 71.38Q94.88 71.38 95.19 71.13Q95.50 70.88 95.50 70.63L95.50 70.63Q95.50 70.50 95.88 70.38Q96.25 70.25 97.13 70.13L97.13 70.13Q97.13 70.13 97.13 70.13Q97.13 70.13 97.13 70.13L97.13 70.13Q97.25 70.13 97.38 70.19Q97.50 70.25 97.63 70.25L97.63 70.25Q97.63 70.25 98 70.13Q98.38 70 99.13 70L99.13 70Q99.13 69.63 99.25 69.38Q99.38 69.13 99.63 69.13L99.63 69.13L99.63 68.88Q99.38 68.88 99.13 68.94Q98.88 69 98.63 69.13L98.63 69.13Q98.25 69 97.94 69Q97.63 69 97.25 68.88L97.25 68.88Q97.25 69 97.13 69Q97 69 96.88 69.13L96.88 69.13L94.50 69L94.25 69.13Q94.25 69 94 69L94 69L93.88 69L93.63 69.25Q93.63 69.13 93.44 69.06Q93.25 69 92.88 69L92.88 69L92.63 69.13L92 69.13L92 69Q96.50 68.50 96.50 67.75L96.50 67.75Q96.50 67.75 96.50 67.75Q96.50 67.75 96.50 67.75L96.50 67.75Q96.63 67.75 96.69 67.81Q96.75 67.88 96.75 68L96.75 68Q96.75 68 96.75 68Q96.75 68 96.75 68L96.75 68L97.63 67.88L97.63 67.63L90.50 67.75Q90.50 67.88 90.44 67.88Q90.38 67.88 90.38 67.88L90.38 67.88L89.50 67.88Q89.25 67.88 89.13 67.94Q89 68 88.88 68.13L88.88 68.13L88.50 68Q88 68 87.50 68.13Q87 68.25 86.50 68.38L86.50 68.38Q86.25 68.38 86 68.31Q85.75 68.25 85.50 68.25L85.50 68.25Q85.25 68.25 85 68.25Q84.75 68.25 84.50 68.38L84.50 68.38L82.88 68.50L82.13 68.38Q82.13 68 82.81 66.25Q83.50 64.50 85 61.38L85 61.38Q85.25 60.63 85.63 59.94Q86 59.25 86.50 58.75L86.50 58.75Q86.63 58.75 86.75 58.75Q86.88 58.75 87 58.88L87 58.88L88 58.50L88.63 58.50Q89.50 58.50 90.38 58.25Q91.25 58 92.13 57.63L92.13 57.63Q92.13 57.75 92.19 57.75Q92.25 57.75 92.25 57.75L92.25 57.75Q92.38 57.75 92.50 57.75Q92.63 57.75 92.75 57.75L92.75 57.75L93.63 57.63L96.25 57.38Q97.25 57.25 98.19 57.06Q99.13 56.88 100 56.63L100 56.63L99.88 56.38Q99.50 56.38 99.31 56.31Q99.13 56.25 99.13 56.13L99.13 56.13Q99.13 55.88 98.88 55.75Q98.63 55.63 98.13 55.63L98.13 55.63L98.13 55.38L98.75 55.13L100.75 55L100.75 54.75Q100.63 54.75 100.31 54.75Q100 54.75 99.50 54.75L99.50 54.75L99.50 54.50L100.25 54.38Q100.38 54.38 100.44 54.31Q100.50 54.25 100.50 54.13L100.50 54.13Q99.75 54.13 99.38 54.06Q99 54 99 53.88L99 53.88Q88.75 54.38 88.75 54.13L88.75 54.13Q88.63 54.13 88.56 54.19Q88.50 54.25 88.38 54.38L88.38 54.38L88 54Q90.75 48.25 91.25 48.25L91.25 48.25Q91.25 48.38 91.19 48.56Q91.13 48.75 91 48.88L91 48.88L91 49L91.25 49Q91.88 47.75 92.31 47.06Q92.75 46.38 93.13 46.38L93.13 46.38Q94.75 46.25 94.38 46.06Q94 45.88 97.38 45.38L97.38 45.38Q97.50 45.38 97.63 45.44Q97.75 45.50 97.88 45.50L97.88 45.50Q100.50 44.88 105.38 44.38L105.38 44.38L105.38 44L103.63 44.25L103.63 44Q103.75 44 103.88 43.94Q104 43.88 104.13 43.75L104.13 43.75L104.13 43.88Q104.25 43.88 104.38 43.81Q104.50 43.75 104.50 43.75L104.50 43.75Q104.63 43.75 104.69 43.75Q104.75 43.75 104.75 43.75L104.75 43.75Q104.88 43.75 105 43.75Q105.13 43.75 105.25 43.75L105.25 43.75Q105.50 43.75 105.88 43.63Q106.25 43.50 106.63 43.50L106.63 43.50L107.75 43.38Q107.88 43.25 108 43.13Q108.13 43 108.13 43L108.13 43L108.13 42.88Q108 42.88 107.94 42.88Q107.88 42.88 107.88 42.88L107.88 42.88Q107.63 42.88 107.50 42.81Q107.38 42.75 107.13 42.75L107.13 42.75Q107.13 42.75 107.13 42.75Q107.13 42.75 107.13 42.75L107.13 42.75Q107.13 42.63 107.19 42.56Q107.25 42.50 107.38 42.50L107.38 42.50L109.38 42.25L110.38 42Q110.38 42.13 110.38 42.13Q110.38 42.13 110.50 42.13L110.50 42.13Q110.63 42.13 110.69 42.06Q110.75 42 110.88 42L110.88 42L111 42Q110.88 42.25 110.75 42.50Q110.63 42.75 110.63 43L110.63 43L110.38 43.13Q110.38 43 110.31 42.88Q110.25 42.75 110.13 42.63L110.13 42.63L110 42.63Q108.13 47.63 107.06 50.69Q106 53.75 104.25 57.63L104.25 57.63Q104 58.63 103.69 59.19Q103.38 59.75 103.25 59.88L103.25 59.88Q103.25 59.88 103.25 59.88Q103.25 59.88 103.25 59.88L103.25 59.88Q103.25 60 103.31 60.06Q103.38 60.13 103.38 60.13L103.38 60.13Q103.38 60.13 103.44 60.13Q103.50 60.13 103.50 60.13L103.50 60.13Q103.50 60.13 103.50 60.19Q103.50 60.25 103.50 60.38L103.50 60.38Q103.50 60.88 103.38 61.25Q103.25 61.63 103 62L103 62Q102.25 64.25 101.75 65.50Q101.25 66.75 100.88 67L100.88 67L101.13 68.38Q101.13 68.38 101.13 68.38Q101.13 68.38 101.13 68.38L101.13 68.38Q101.13 68.50 101.06 68.56Q101 68.63 101 68.63L101 68.63Q101 68.63 101 68.63Q101 68.63 101 68.63L101 68.63L100.75 68.63Q100.75 68.25 100.63 68.13Q100.50 68 100.25 68L100.25 68L100.13 68Q99.88 68.38 99.69 68.81Q99.50 69.25 99.38 69.75L99.38 69.75L99.63 69.75Q99.88 69.63 100 69.44Q100.13 69.25 100.13 69L100.13 69Q100.13 69 100.13 69Q100.13 69 100.13 69L100.13 69L100.63 69L100.88 69.13Q100.75 69.25 100.69 69.50Q100.63 69.75 100.50 70L100.50 70L100.75 70.25L100.38 71L100.38 71Q100.38 71 100.38 71Q100.38 71 100.38 71L100.38 71Q100.63 71 100.88 71.13Q101.13 71.25 101.25 71.38L101.25 71.38Q101.50 71.25 101.69 71.19Q101.88 71.13 102 71L102 71Q102.25 71 103 71Q103.75 71 105.13 71L105.13 71L106 70.75Q106.13 70.75 106.25 70.75Q106.38 70.75 106.50 70.75L106.50 70.75Q107 70.75 107.44 70.69Q107.88 70.63 108.38 70.63L108.38 70.63L108.63 70.63L108.88 70.50L108.88 70.63Q109 70.63 109.19 70.56Q109.38 70.50 109.50 70.50L109.50 70.50Q109.88 70.50 110.19 70.56Q110.50 70.63 110.75 70.63L110.75 70.63L110.75 70.75L110.13 70.75L110.13 71Q110.25 71 110.38 70.94Q110.50 70.88 110.63 70.88L110.63 70.88Q110.63 70.88 110.69 70.94Q110.75 71 110.75 71.13L110.75 71.13Q110.63 71.13 110.44 71.19Q110.25 71.25 110 71.25L110 71.25L109.88 71.13Q109.50 71.25 109.50 71.25Q109.50 71.25 109.25 71.38L109.25 71.38L108.88 71.25Q108.88 71.25 108.88 71.25Q108.88 71.25 108.88 71.25L108.88 71.25Q108.88 71.25 108.88 71.31Q108.88 71.38 108.75 71.38L108.75 71.38Q108.75 71.38 108.75 71.38Q108.75 71.38 108.75 71.38L108.75 71.38Q108.75 71.38 108.75 71.38Q108.75 71.38 108.75 71.38L108.75 71.38Q108.75 71.50 108.81 71.56Q108.88 71.63 109 71.63L109 71.63Q109 71.63 109 71.63Q109 71.63 109 71.63L109 71.63L109.38 71.63L111.38 71.38L112.13 71.25Q112.13 71.25 112.19 71.31Q112.25 71.38 112.25 71.25L112.25 71.25L112.63 71.13L113.38 71.13Q113.75 71.13 113.94 71.06Q114.13 71 115 70.88L115 70.88Q115 70.75 115.06 70.75Q115.13 70.75 115.13 70.75L115.13 70.75L115.13 70.88Q115.75 70.75 116.38 70.63Q117 70.50 117.63 70.38L117.63 70.38L117.50 70.50Q117.88 70.38 117.81 70.38Q117.75 70.38 117.75 70.25L117.75 70.25Q117.75 70.38 117.81 70.38Q117.88 70.38 117.88 70.38L117.88 70.38L118.25 70.38L118.25 70.13L117.38 70.13Q117.25 70.13 117.06 70.19Q116.88 70.25 116.75 70.25L116.75 70.25Q116.75 70.25 116.69 70.25Q116.63 70.25 116.63 70.25L116.63 70.25L114.88 70.25L114.88 70.13L115.88 70L116.25 70L116.50 69.88L116.50 70Q117.50 69.88 118.69 69.88Q119.88 69.88 124.50 68.88L124.50 68.88Q124.75 68.88 124.81 68.69Q124.88 68.50 125 68L125 68Q125 68 125 68Q125 68 124.88 68L124.88 68Q124.88 68 124.81 68Q124.75 68 124.63 68L124.63 68Q124.25 68 123.81 68.06Q123.38 68.13 122.88 68.25L122.88 68.25Q122.88 68.25 122.81 68.19Q122.75 68.13 122.75 68L122.75 68L122.75 67.88L123.75 67.88Q124 67.88 124.25 67.75Q124.50 67.63 124.75 67.50L124.75 67.50Q124.75 67.63 124.63 67.63Q124.50 67.63 124.63 67.63L124.63 67.63ZM78.88 68.38L78.88 68.38L78.38 68.38Q78.50 67.75 78.69 67.25Q78.88 66.75 79.13 66.25L79.13 66.25L79.38 66.38Q79.38 66.88 79.19 67.38Q79 67.88 78.88 68.38L78.88 68.38ZM79.38 66.25L79.38 66.25L79.38 66.13Q79.38 66 79.44 65.94Q79.50 65.88 79.75 65.75L79.75 65.75L79.75 66Q79.75 66.13 79.63 66.19Q79.50 66.25 79.38 66.25L79.38 66.25ZM84.50 70.75L85.25 70.75L85.25 70.88L84.50 70.88L84.50 70.75ZM84.38 70.63L84.38 70.63Q84.38 70.75 84.19 70.88Q84 71 83.63 71.13L83.63 71.13L82.75 71L82.50 71L82.50 70.75L84.38 70.63ZM90.25 43.50L90.25 43.50L89.75 43.50L89.75 43.38Q89.75 43.25 89.81 43.19Q89.88 43.13 90 43.13L90 43.13L90.25 43.13L90.50 43.25Q90.50 43.25 90.50 43.25Q90.50 43.25 90.50 43.25L90.50 43.25Q90.50 43.38 90.44 43.44Q90.38 43.50 90.25 43.50L90.25 43.50Q90.25 43.50 90.25 43.50Q90.25 43.50 90.25 43.50L90.25 43.50ZM96.88 42.25L96.88 42.25L97 42.25L97 42.50L96.63 42.50Q96.63 42.50 96.63 42.50Q96.63 42.50 96.63 42.50L96.63 42.50Q96.63 42.38 96.69 42.31Q96.75 42.25 96.88 42.25L96.88 42.25ZM95.25 42.75L95.25 42.88L94.50 42.75L94.50 42.63Q95 42.63 95.44 42.56Q95.88 42.50 96.25 42.25L96.25 42.25Q96.25 42.38 96.31 42.44Q96.38 42.50 96.50 42.50L96.50 42.50L96.50 42.75L96.25 42.75Q96.25 42.75 96.19 42.75Q96.13 42.75 96.13 42.75L96.13 42.75Q96 42.75 95.88 42.69Q95.75 42.63 95.75 42.63L95.75 42.63Q95.63 42.75 95.50 42.75Q95.38 42.75 95.25 42.75L95.25 42.75ZM97.13 45.25L96 45.25L96 45.13L97.13 45.13L97.13 45.25ZM97.13 44.38L97.13 44.38L97.13 44.25L97.63 44.25L97.63 44.38L97.13 44.38ZM97.25 42.50L97.25 42.50L97.13 42.50L97.25 42.25L98.50 42.13L98.50 42.25Q98.13 42.38 97.81 42.44Q97.50 42.50 97.25 42.50L97.25 42.50ZM97.88 45.13L97.88 45.13L97.88 44.88L98.38 44.88Q98.63 44.88 98.63 45.13L98.63 45.13L97.88 45.13ZM101 40.88L101 40.75L100.38 41L100.25 41Q100.13 41 99.94 41Q99.75 41 99.63 41L99.63 41Q99.38 41 99.25 41Q99.13 41 99 41L99 41Q99.63 41 100.19 40.94Q100.75 40.88 101 40.88L101 40.88ZM99.38 43.88L100.38 43.75L100.38 43.88L99.38 44L99.38 43.88ZM101.75 44.38L101.88 44.50Q101.88 44.50 101.69 44.44Q101.50 44.38 101.25 44.25L101.25 44.25L100.38 44.50L99.63 44.50Q99.50 44.50 99.44 44.44Q99.38 44.38 99.38 44.38L99.38 44.38L100.25 44.38L102 44L103 44L103 44.13Q102.63 44.25 102.38 44.31Q102.13 44.38 101.75 44.38L101.75 44.38ZM111.25 42.13L111.38 42L111.50 42Q111.75 41.75 112 41.56Q112.25 41.38 112.63 41.25L112.63 41.25Q112.50 42.25 112.06 43.06Q111.63 43.88 111.13 44.50L111.13 44.50L110.50 44.25Q110.75 43.75 110.94 43.19Q111.13 42.63 111.25 42.13L111.25 42.13ZM109.75 44.75L109.75 44.75L109.88 44.75Q109.75 45 109.63 45.13Q109.50 45.25 109.38 45.25L109.38 45.25L109.38 44.88Q109.50 44.88 109.56 44.88Q109.63 44.88 109.75 44.75L109.75 44.75ZM108.63 47.25L108.75 47.25Q108.75 46.75 108.94 46.31Q109.13 45.88 109.50 45.50L109.50 45.50L109.50 45.63Q109.38 46.38 109.19 46.69Q109 47 108.88 47.13L108.88 47.13L108.88 47.63Q108.75 47.88 108.63 48.06Q108.50 48.25 108.50 48.38L108.50 48.38L108.38 48.38L108.25 47.63Q108.38 47.63 108.50 47.50Q108.63 47.38 108.63 47.25L108.63 47.25ZM108.38 48.63L108.38 48.50Q108.25 48.88 108.19 49.13Q108.13 49.38 108 49.63L108 49.63L107.88 49.50L107.88 49.25Q108 48.88 108.13 48.75Q108.25 48.63 108.38 48.63L108.38 48.63ZM100.75 70.38L100.75 70.38L100.75 70.25L101 70.25L101 70.63Q101 70.63 100.88 70.56Q100.75 70.50 100.75 70.38L100.75 70.38ZM111.50 70.63L111.50 70.63Q111.50 70.63 111.50 70.56Q111.50 70.50 111.38 70.50L111.38 70.50L110.75 70.63L110.75 70.50L110.88 70.50L112.25 70.38L112.25 70.50Q112.25 70.50 112.25 70.50Q112.25 70.50 112.25 70.50L112.25 70.50Q112 70.50 111.81 70.56Q111.63 70.63 111.50 70.63L111.50 70.63ZM110.88 70.38L110.88 70.38Q110.88 70.38 110.88 70.38Q110.88 70.38 110.88 70.38L110.88 70.38Q110.88 70.38 110.81 70.38Q110.75 70.38 110.88 70.38ZM110.88 68.63L110.88 68.63L110.13 68.75L110.13 68.63L110.88 68.50L111.50 68.38Q111.50 68.50 111.50 68.50Q111.50 68.50 111.63 68.50L111.63 68.50Q112.13 68.38 112.25 68.38Q112.38 68.38 112.63 68.25L112.63 68.25Q112.63 68.25 112.69 68.31Q112.75 68.38 112.75 68.50L112.75 68.50L110.88 68.63ZM113.75 68.38L113.75 68.50Q113.50 68.38 113.38 68.38Q113.25 68.38 113 68.38L113 68.38Q113 68.38 112.94 68.38Q112.88 68.38 112.88 68.38L112.88 68.38L112.88 68.25L113.63 68.25L113.63 68.25Q113.63 68.25 113.69 68.31Q113.75 68.38 113.75 68.38L113.75 68.38ZM114.13 68.25L113.75 68.25L113.75 68.25L114.13 68.25L114.13 68.25ZM115.25 68.25L114.63 68.25L114.63 68.13Q114.75 68.13 114.81 68.06Q114.88 68 114.88 68L114.88 68Q114.88 68 114.88 68Q114.88 68 115 68L115 68Q115 68 115.13 68.06Q115.25 68.13 115.25 68.25L115.25 68.25ZM115.75 68.13L115.75 68.13L115.75 68L116.25 68L116.25 68.13L115.75 68.13ZM116.38 68L116.38 68Q116.38 67.88 116.38 67.88Q116.38 67.88 116.50 67.75L116.50 67.75L116.75 68Q116.75 68 116.75 68Q116.75 68 116.75 68L116.75 68Q116.75 68 116.75 67.94Q116.75 67.88 116.75 67.88L116.75 67.88L116.88 68.13L116.38 68ZM125.50 67L125.50 67L125.50 67ZM125.75 66.88L125.75 66.88Q125.75 66.88 125.75 66.81Q125.75 66.75 125.63 66.75L125.63 66.75Q125.50 66.75 125.56 66.81Q125.63 66.88 125.50 66.88L125.50 66.88L125.50 67L125.63 66.88L125.50 67L125.38 67.25L125.75 67.13L125.75 66.88ZM126.38 67.50L126.38 67.38L126.25 67.38L126.25 67.63L126.88 67.63Q126.88 67.50 126.69 67.50Q126.50 67.50 126.38 67.50L126.38 67.50Z"/></svg>