<svg xmlns="http://www.w3.org/2000/svg" xmlns:xlink="http://www.w3.org/1999/xlink" width="128" height="128"><path fill="#000000" d="M39.88 65.50L39.88 65.50L70 118.13L56.13 118.25L48.13 104.13L40 118.13L33.13 118.13L29.50 112L41.13 92L32.88 77.63L39.88 65.50ZM50.75 43.75L50.75 43.75L20.50 96.38L13.50 84.38L21.63 70.25L5.50 70.25L2 64.25L5.50 58.13L28.50 58.13L36.75 43.75L50.75 43.75ZM53 85.88L53 85.88L113.50 85.88L106.63 98L90.38 98L98.50 112.13L95 118.13L88 118.13L76.50 98L60 98L53 85.88ZM88.25 62.75L88.25 62.75L58 10.13L71.88 10L80 24.13L88.13 10.13L95 10.13L98.50 16.25L86.88 36.25L95.13 50.63L88.25 62.75ZM39.88 65.50L39.88 65.50L70 118.13L56.13 118.25L48.13 104.13L40 118.13L33.13 118.13L29.50 112L41.13 92L32.88 77.63L39.88 65.50ZM74.88 42.25L74.88 42.25L14.50 42.25L21.38 30.13L37.50 30.13L29.50 16L32.88 10L40 10L51.38 30.13L67.88 30.13L74.88 42.25ZM77.25 84.50L77.25 84.50L107.50 31.88L114.50 43.88L106.38 58L122.50 58L126 64L122.50 70.13L99.50 70.13L91.25 84.38L77.25 84.50Z"/></svg>