<svg xmlns="http://www.w3.org/2000/svg" xmlns:xlink="http://www.w3.org/1999/xlink" width="128" height="128"><path fill="#000000" d="M13.50 57.13L18.13 57.13L8.13 74.38L5.75 70.38L8.50 65.75L3.13 65.75L2 63.75L3.13 61.75L10.75 61.75L13.50 57.13ZM18.88 70.88L18.88 70.88L38.88 70.88L36.50 74.88L31.25 74.88L33.88 79.50L32.75 81.50L30.38 81.50L26.63 74.88L21.13 74.88L18.88 70.88ZM30.50 63.38L30.50 63.38L20.50 46L25.13 46L27.75 50.63L30.38 46L32.75 46L33.88 48L30 54.63L32.75 59.38L30.50 63.38ZM14.50 64.25L14.50 64.25L24.50 81.50L19.88 81.50L17.25 76.88L14.50 81.50L12.25 81.50L11.13 79.50L14.88 72.88L12.25 68.25L14.50 64.25ZM26.13 56.63L26.13 56.63L6.13 56.63L8.38 52.63L13.75 52.63L11.13 48L12.25 46L14.50 46L18.38 52.63L23.75 52.63L26.13 56.63ZM26.88 70.50L26.88 70.50L36.88 53.13L39.13 57.13L36.50 61.75L41.88 61.75L43 63.75L41.75 65.75L34.25 65.75L31.50 70.38L26.88 70.50ZM68.38 53L68.38 53L65.88 53L65.88 64.50Q65.88 65.63 65.88 67.50Q65.88 69.38 66 71.50L66 71.50L65.88 71.50Q65 69.63 64 68.06Q63 66.50 62.25 65.25L62.25 65.25L54.38 53L50.88 53L50.88 74.88L53.38 74.88L53.38 63.50Q53.38 62.25 53.31 60.19Q53.25 58.13 53.25 56L53.25 56L53.38 56Q54.75 58.50 55.63 60Q56.50 61.50 57.38 62.63L57.38 62.63L65.25 74.88L68.38 74.88L68.38 53ZM73.13 59.25L73.13 74.88L75.88 74.88L75.88 59.25L73.13 59.25ZM74.50 57L74.50 57Q75.25 57 75.69 56.50Q76.13 56 76.13 55.38L76.13 55.38Q76.13 54.63 75.69 54.13Q75.25 53.63 74.50 53.63L74.50 53.63Q73.75 53.63 73.31 54.13Q72.88 54.63 72.88 55.38L72.88 55.38Q72.88 56 73.31 56.50Q73.75 57 74.50 57ZM92.75 59.25L92.75 59.25L89.63 59.25L85.88 65L85.75 65L82 59.25L78.75 59.25L84.25 66.88L84.25 67L78.50 74.88L81.63 74.88L85.63 68.75L85.75 68.75L89.88 74.88L93.13 74.88L87.25 66.88L87.25 66.75L92.75 59.25ZM103.25 53.38L103.25 53.38Q99.38 53.38 96.63 56.31Q93.88 59.25 93.88 64.38L93.88 64.38Q93.88 69.63 96.63 72.56Q99.38 75.50 103.25 75.50L103.25 75.50Q107.13 75.50 109.88 72.56Q112.63 69.63 112.63 64.38L112.63 64.38Q112.63 59.25 109.88 56.31Q107.13 53.38 103.25 53.38ZM103.25 55.50L103.25 55.50Q106.13 55.50 108.06 57.81Q110 60.13 110 64.38L110 64.38Q110 68.75 108.06 71Q106.13 73.25 103.25 73.25L103.25 73.25Q100.38 73.25 98.44 71Q96.50 68.75 96.50 64.38L96.50 64.38Q96.50 60.13 98.44 57.81Q100.38 55.50 103.25 55.50L103.25 55.50ZM113.63 59L113.63 59Q113.63 61.25 114.88 62.63Q116.13 64 118.88 65.13L118.88 65.13Q121 66 121.94 66.94Q122.88 67.88 122.88 69.38L122.88 69.38Q122.88 71.25 121.50 72.19Q120.13 73.13 118 73.13L118 73.13Q117 73.13 115.81 72.94Q114.63 72.75 113.25 72.38L113.25 72.38L113 74.50Q114.13 75 115.38 75.19Q116.63 75.38 117.88 75.38L117.88 75.38Q121.13 75.38 123.38 73.75Q125.63 72.13 125.63 68.88L125.63 68.88Q125.63 66.63 124.25 65.31Q122.88 64 120.13 62.88L120.13 62.88Q118.38 62.13 117.44 61.25Q116.50 60.38 116.50 58.75L116.50 58.75Q116.50 57.13 117.69 56.31Q118.88 55.50 120.63 55.50L120.63 55.50Q121.63 55.50 122.69 55.69Q123.75 55.88 124.50 56.25L124.50 56.25L124.75 54Q123.88 53.63 122.81 53.44Q121.75 53.25 120.50 53.25L120.50 53.25Q117.63 53.25 115.63 54.81Q113.63 56.38 113.63 59L113.63 59Z"/></svg>