<svg xmlns="http://www.w3.org/2000/svg" xmlns:xlink="http://www.w3.org/1999/xlink" width="128" height="128"><path fill="#000000" d="M102.13 83.50L102.13 83.50Q100.25 84.38 98.75 80.63L98.75 80.63Q97.25 77 96.56 72.38Q95.88 67.75 96.38 64L96.38 64Q97 60.25 99.25 60.88L99.25 60.88Q106.88 65.13 106.56 72.69Q106.25 80.25 102.13 83.50L102.13 83.50ZM96.88 100.38L96.88 100.38Q92.50 106.38 87.44 107.25Q82.38 108.13 80.25 106.38L80.25 106.38Q77.88 104.25 79.19 98.88Q80.50 93.50 83.75 89.88L83.75 89.88L83.75 89.88Q87.25 85.75 90.94 83.69Q94.63 81.63 97.25 83.75L97.25 83.75Q99.13 85.50 99.56 90.94Q100 96.38 96.88 100.38ZM77.88 90.50L77.88 90.50Q78 95.63 74 99.25Q70 102.88 64.38 103L64.38 103Q58.75 103 54.75 99.38Q50.75 95.75 50.63 90.63L50.63 90.63L50.63 90.50Q50.63 85.38 54.63 81.75Q58.63 78.13 64.25 78.13L64.25 78.13Q69.88 78 73.88 81.63Q77.88 85.25 77.88 90.38L77.88 90.38L77.88 90.50ZM64.38 119.38L64.38 119.38Q59.25 119.50 55.13 116.44Q51 113.38 51 111.88L51 111.88Q51 109.63 55.81 108.19Q60.63 106.75 64.75 106.75L64.75 106.75Q68.88 106.63 73.19 107.94Q77.50 109.25 77.50 111.13L77.50 111.13Q77.63 113 73.44 116.19Q69.25 119.38 64.38 119.38L64.38 119.38ZM40.75 78.88L40.75 78.88Q36.50 76.13 35.88 70.75Q35.25 65.38 38.50 60.38L38.50 60.38Q41.75 55.50 47.13 54Q52.50 52.50 56.63 55.13L56.63 55.13Q60.88 57.88 61.56 63.31Q62.25 68.75 59 73.63L59 73.63Q55.63 78.50 50.31 80.06Q45 81.63 40.75 78.88L40.75 78.88ZM46.88 106.50L46.88 106.50Q44.63 107.88 39.81 106.75Q35 105.63 31 100L31 100Q28.38 95.25 28.44 91.06Q28.50 86.88 30.38 85.38L30.38 85.38Q33.25 83.75 37.19 85.63Q41.13 87.50 44.50 91.25L44.50 91.25Q47.38 94.75 48.38 99.69Q49.38 104.63 46.88 106.50L46.88 106.50ZM25.88 83.88L25.88 83.88Q21.88 80.63 21.56 73Q21.25 65.38 28.75 61.13L28.75 61.13Q31.13 60.63 31.63 64.38L31.63 64.38Q32.13 68.13 31.50 72.75Q30.88 77.38 29.25 81L29.25 81Q27.75 84.63 25.88 83.88ZM49.75 40.75L49.75 40.75Q51.25 41 48.50 44.13L48.50 44.13Q45.75 47.13 41.88 50.44Q38 53.75 34.50 55.88L34.50 55.88Q31 58 30.88 56.38L30.88 56.38Q30.50 48 36.19 43.75Q41.88 39.50 49.75 40.75ZM35.88 35.25L35.88 35.25Q36.50 35.13 36.88 34.94Q37.25 34.75 37.50 34.25L37.50 34.25Q36 33.75 34.44 33.25Q32.88 32.75 31.88 32L31.88 32Q32.38 32 32.94 32Q33.50 32 34.25 31.50L34.25 31.50Q32.75 30.75 31.38 30.06Q30 29.38 28.75 28.25L28.75 28.25Q29.50 28.13 30.19 28.13Q30.88 28.13 31.13 27.88L31.13 27.88Q29.88 27.13 28.75 26.25Q27.63 25.38 26.75 24.38L26.75 24.38Q27.75 24.50 28.25 24.44Q28.75 24.38 29 24.13L29 24.13Q28 23.25 26.94 22.31Q25.88 21.38 25.38 20.13L25.38 20.13Q26.13 20.38 26.75 20.44Q27.38 20.50 27.88 20.13L27.88 20.13Q27.63 19.38 26.50 18.69Q25.38 18 24.50 16.38L24.50 16.38Q25.25 16.38 26 16.44Q26.75 16.50 26.88 16.38L26.88 16.38Q26.50 14.88 25.94 13.94Q25.38 13 24.75 12.13L24.75 12.13Q26.50 12.13 28.44 12.13Q30.38 12.13 30.25 12L30.25 12L28.88 10.50Q30.50 10.13 32.13 10.44Q33.75 10.75 35 11.13L35 11.13Q35.50 10.75 35.13 10.19Q34.75 9.63 34 9.13L34 9.13Q35.50 9.25 36.75 9.63Q38 10 39.13 10.38L39.13 10.38Q39.75 9.88 39.06 9.31Q38.38 8.75 38 8.25L38 8.25Q40.13 8.63 41.25 9.19Q42.38 9.75 43.25 10.25L43.25 10.25Q43.88 9.63 43.50 9.06Q43.13 8.50 42.75 8L42.75 8Q44.38 8.63 45.38 9.38Q46.38 10.13 47.25 10.88L47.25 10.88Q47.50 10.38 47.75 10Q48 9.63 47.50 8.63L47.50 8.63Q48.63 9.25 49.50 10.06Q50.38 10.88 51 11.63L51 11.63Q51.75 11.25 51.69 10.69Q51.63 10.13 51.63 9.50L51.63 9.50Q52.88 10.50 53.69 11.50Q54.50 12.50 55.50 13.50L55.50 13.50Q55.63 13.38 55.81 12.94Q56 12.50 56.13 11.75L56.13 11.75Q59 14.50 61.25 20Q63.50 25.50 57.50 28.25L57.50 28.25Q52.50 24.25 46.56 21.19Q40.63 18.13 34 16L34 16Q42.63 20.25 47.75 23.81Q52.88 27.38 55.63 30.38L55.63 30.38Q54.25 35.88 48.75 36.94Q43.25 38 40.63 37.88L40.63 37.88Q41.13 37.63 41.56 37.31Q42 37 42.13 36.50L42.13 36.50Q41.50 36 39.50 36.06Q37.50 36.13 35.88 35.25L35.88 35.25ZM64.25 38.13L64.25 38.13Q68.38 38.13 72.56 40.69Q76.75 43.25 76.63 46.13L76.63 46.13Q76.63 48.75 73.25 50.56Q69.88 52.38 64.25 52.38L64.25 52.38Q58.75 52.25 55.31 50.13Q51.88 48 51.88 45.50L51.88 45.50Q51.88 43.38 55.69 40.69Q59.50 38 64.25 38.13L64.25 38.13ZM72.13 11.75L72.13 11.75Q72.25 12.50 72.44 12.94Q72.63 13.38 72.88 13.50L72.88 13.50Q73.75 12.50 74.63 11.50Q75.50 10.50 76.75 9.50L76.75 9.50Q76.75 10.13 76.63 10.69Q76.50 11.25 77.25 11.63L77.25 11.63Q77.88 10.88 78.75 10.06Q79.63 9.25 80.88 8.63L80.88 8.63Q80.25 9.63 80.56 10Q80.88 10.38 81.13 10.88L81.13 10.88Q82 10.13 83 9.38Q84 8.63 85.63 8L85.63 8Q85.13 8.50 84.75 9.06Q84.38 9.63 85 10.25L85 10.25Q86 9.63 87.13 9.13Q88.25 8.63 90.38 8.25L90.38 8.25Q89.88 8.75 89.25 9.31Q88.63 9.88 89.25 10.38L89.25 10.38Q90.38 10 91.63 9.63Q92.88 9.25 94.25 9.13L94.25 9.13Q93.63 9.63 93.25 10.19Q92.88 10.75 93.38 11.13L93.38 11.13Q94.63 10.75 96.19 10.44Q97.75 10.13 99.50 10.50L99.50 10.50L98 12Q98 12.13 99.94 12.13Q101.88 12.13 103.63 12.13L103.63 12.13Q103 13 102.38 13.94Q101.75 14.88 101.38 16.38L101.38 16.38Q101.63 16.50 102.31 16.44Q103 16.38 103.75 16.38L103.75 16.38Q103 18 101.88 18.69Q100.75 19.38 100.38 20.13L100.38 20.13Q100.88 20.50 101.56 20.44Q102.25 20.38 103 20.13L103 20.13Q102.38 21.38 101.31 22.31Q100.25 23.25 99.25 24.13L99.25 24.13Q99.50 24.38 100 24.44Q100.50 24.50 101.50 24.38L101.50 24.38Q100.63 25.38 99.56 26.25Q98.50 27.13 97.25 27.88L97.25 27.88Q97.50 28.13 98.13 28.13Q98.75 28.13 99.50 28.25L99.50 28.25Q98.38 29.38 96.94 30.06Q95.50 30.75 94.13 31.50L94.13 31.50Q94.88 32 95.38 32Q95.88 32 96.38 32L96.38 32Q95.50 32.75 93.94 33.25Q92.38 33.75 90.75 34.25L90.75 34.25Q91.13 34.75 91.44 34.94Q91.75 35.13 92.38 35.25L92.38 35.25Q90.75 36.13 88.81 36.06Q86.88 36 86.25 36.50L86.25 36.50Q86.38 37 86.81 37.31Q87.25 37.63 87.75 37.88L87.75 37.88Q85.13 38 79.63 36.94Q74.13 35.88 72.63 30.38L72.63 30.38Q75.38 27.38 80.56 23.81Q85.75 20.25 94.25 16L94.25 16Q87.63 18.13 81.69 21.19Q75.75 24.25 70.75 28.25L70.75 28.25Q64.88 25.50 67.06 20Q69.25 14.50 72.13 11.75L72.13 11.75ZM87.75 78.25L87.75 78.25Q83.63 81 78.25 79.44Q72.88 77.88 69.63 73L69.63 73Q66.38 68 67 62.63Q67.63 57.25 71.88 54.50L71.88 54.50Q76.13 51.75 81.44 53.31Q86.75 54.88 90.13 59.75L90.13 59.75Q93.38 64.63 92.69 70.06Q92 75.50 87.75 78.25ZM97.75 56.75L97.75 56.75Q97.63 58.38 94.13 56.25L94.13 56.25Q90.50 54 86.63 50.75Q82.75 47.50 80.13 44.38L80.13 44.38Q77.38 41.38 78.75 41.13L78.75 41.13Q86.63 39.75 92.31 44.06Q98 48.38 97.75 56.75ZM102.88 58.63L102.88 58.63L102 57.13Q102 49.13 98.81 45.19Q95.63 41.25 91.25 38.75L91.25 38.75Q92.63 38.38 93.81 37.88Q95 37.38 95.38 35.63L95.38 35.63Q97.63 35.13 98.31 34.13Q99 33.13 99.25 32L99.25 32Q99.88 31.63 101.25 30.50Q102.63 29.38 102.38 27.50L102.38 27.50Q103.50 26.75 104.06 25.75Q104.63 24.75 104.25 23.38L104.25 23.38Q105.50 22 105.81 20.94Q106.13 19.88 105.63 18.88L105.63 18.88Q107 17.13 106.75 16.06Q106.50 15 105.88 14L105.88 14Q106.88 12.13 105.94 10.44Q105 8.75 102 9.13L102 9.13Q100.88 7.38 98.88 7.38Q96.88 7.38 96.50 7.38L96.50 7.38Q96 6.75 95.25 6.38Q94.50 6 92.63 6.25L92.63 6.25Q91.50 5.25 90.19 5.25Q88.88 5.25 87.50 5.88L87.50 5.88Q85.88 4.50 84.69 5.06Q83.50 5.63 82.25 6L82.25 6Q80.38 5.38 79.56 5.88Q78.75 6.38 77.88 6.75L77.88 6.75Q75.75 6.38 74.75 7.06Q73.75 7.75 72.75 8.88L72.75 8.88L71.13 8.75Q68 10.63 66.31 13.81Q64.63 17 64 19L64 19Q63.38 17 61.69 13.81Q60 10.63 56.88 8.75L56.88 8.75L55.25 8.88Q54.25 7.75 53.25 7.06Q52.25 6.38 50.13 6.75L50.13 6.75Q49.25 6.38 48.44 5.88Q47.63 5.38 45.75 6L45.75 6Q44.88 5.75 44.13 5.38Q43.38 5 42.50 5L42.50 5L42.50 5Q42 5 41.50 5.19Q41 5.38 40.50 5.88L40.50 5.88Q39.13 5.25 37.81 5.25Q36.50 5.25 35.38 6.25L35.38 6.25Q33.50 6 32.75 6.38Q32 6.75 31.50 7.38L31.50 7.38Q31.13 7.38 29.13 7.38Q27.13 7.38 26 9.13L26 9.13Q23 8.75 22.06 10.44Q21.13 12.13 22.13 14L22.13 14Q21.50 15 21.25 16.06Q21 17.13 22.38 18.88L22.38 18.88Q21.88 19.88 22.19 20.94Q22.50 22 23.75 23.38L23.75 23.38Q23.38 24.75 23.94 25.75Q24.50 26.75 25.63 27.50L25.63 27.50Q25.38 29.38 26.75 30.50Q28.13 31.63 28.75 32L28.75 32Q29 33.13 29.69 34.13Q30.38 35.13 32.75 35.63L32.75 35.63Q33 37.38 34.19 37.88Q35.38 38.38 36.75 38.75L36.75 38.75Q32.38 41.25 29.19 45.19Q26 49.13 26 57.13L26 57.13L25.13 58.63Q20.25 61.50 17.56 69.69Q14.88 77.88 21.88 85.75L21.88 85.75Q22.38 88.13 23.06 90Q23.75 91.88 24.50 93.88L24.50 93.88Q25.50 101.63 30.38 105.44Q35.25 109.25 37 109.75L37 109.75Q39.63 111.63 42.50 113.38Q45.38 115.13 49.13 116.50L49.13 116.50Q52.63 120 56.38 121.50Q60.13 123 63.88 123L63.88 123L64.13 123Q67.88 123 71.63 121.50Q75.38 120 78.88 116.50L78.88 116.50Q82.63 115.13 85.50 113.38Q88.38 111.63 91 109.75L91 109.75Q92.75 109.25 97.63 105.44Q102.50 101.63 103.50 93.88L103.50 93.88Q104.25 91.88 104.94 90Q105.63 88.13 106.13 85.75L106.13 85.75Q113.13 77.88 110.44 69.69Q107.75 61.50 102.88 58.63L102.88 58.63Z"/></svg>