<svg xmlns="http://www.w3.org/2000/svg" xmlns:xlink="http://www.w3.org/1999/xlink" width="128" height="128"><path fill="#ffffff" d="M27.75 69.25L27.75 69.25Q26.75 69.63 26.25 66.25Q25.75 62.88 27 63.13L27 63.13Q29 64.25 28.94 66.31Q28.88 68.38 27.75 69.25ZM26.38 73.75L26.38 73.75Q25.25 75.38 23.88 75.63Q22.50 75.88 21.88 75.38L21.88 75.38Q21.25 74.75 21.63 73.31Q22 71.88 22.88 70.88L22.88 70.88Q23.88 69.88 24.81 69.31Q25.75 68.75 26.50 69.25L26.50 69.25Q27 69.75 27.13 71.19Q27.25 72.63 26.38 73.75ZM21.25 71.13L21.25 71.13Q21.25 72.50 20.19 73.44Q19.13 74.38 17.63 74.50L17.63 74.50Q16.13 74.50 15.06 73.50Q14 72.50 14 71.13L14 71.13L14 71.13Q14 69.75 15.06 68.75Q16.13 67.75 17.63 67.75L17.63 67.75Q19.13 67.75 20.19 68.75Q21.25 69.75 21.25 71.13L21.25 71.13L21.25 71.13ZM17.63 78.88L17.63 78.88Q16.25 78.88 15.19 78.06Q14.13 77.25 14.13 76.88L14.13 76.88Q14.13 76.25 15.38 75.88Q16.63 75.50 17.75 75.50L17.75 75.50Q18.88 75.38 20.06 75.75Q21.25 76.13 21.25 76.63L21.25 76.63Q21.25 77.13 20.13 78Q19 78.88 17.63 78.88L17.63 78.88ZM11.38 68L11.38 68Q10.25 67.25 10.06 65.81Q9.88 64.38 10.75 63L10.75 63Q11.63 61.75 13.06 61.31Q14.50 60.88 15.63 61.63L15.63 61.63Q16.75 62.38 16.94 63.81Q17.13 65.25 16.25 66.63L16.25 66.63Q15.38 67.88 13.94 68.31Q12.50 68.75 11.38 68L11.38 68ZM13 75.38L13 75.38Q12.38 75.75 11.06 75.44Q9.75 75.13 8.75 73.63L8.75 73.63Q8 72.38 8.06 71.25Q8.13 70.13 8.63 69.75L8.63 69.75Q9.38 69.25 10.38 69.75Q11.38 70.25 12.38 71.38L12.38 71.38Q13.13 72.25 13.38 73.56Q13.63 74.88 13 75.38L13 75.38ZM7.38 69.38L7.38 69.38Q6.25 68.50 6.19 66.44Q6.13 64.38 8.13 63.25L8.13 63.25Q9.38 62.88 8.88 66.31Q8.38 69.75 7.38 69.38ZM13.75 57.75L13.75 57.75Q14.50 57.88 11.63 60.38Q8.75 62.88 8.63 62L8.63 62Q8.63 59.75 10.13 58.56Q11.63 57.38 13.75 57.75ZM10 56.25L10 56.25Q10.25 56.25 10.31 56.19Q10.38 56.13 10.50 56L10.50 56Q10 55.88 9.63 55.75Q9.25 55.63 9 55.38L9 55.38Q9.13 55.38 9.25 55.38Q9.38 55.38 9.63 55.25L9.63 55.25Q9.25 55.13 8.88 54.94Q8.50 54.75 8.13 54.38L8.13 54.38Q8.38 54.38 8.56 54.38Q8.75 54.38 8.75 54.25L8.75 54.25Q8.38 54.13 8.13 53.88Q7.88 53.63 7.63 53.38L7.63 53.38L7.63 53.38Q7.88 53.38 8 53.38Q8.13 53.38 8.25 53.38L8.25 53.38Q7.88 53.13 7.63 52.88Q7.38 52.63 7.25 52.25L7.25 52.25Q7.38 52.38 7.56 52.38Q7.75 52.38 7.88 52.25L7.88 52.25Q7.75 52 7.50 51.81Q7.25 51.63 7 51.25L7 51.25Q7.25 51.25 7.44 51.25Q7.63 51.25 7.63 51.25L7.63 51.25Q7.50 50.88 7.38 50.63Q7.25 50.38 7 50.13L7 50.13Q7.50 50.13 8 50.13Q8.50 50.13 8.50 50L8.50 50L8.13 49.63Q8.63 49.50 9.06 49.63Q9.50 49.75 9.75 49.88L9.75 49.88Q9.88 49.75 9.81 49.63Q9.75 49.50 9.50 49.25L9.50 49.25Q9.88 49.38 10.25 49.44Q10.63 49.50 11 49.63L11 49.63L10.88 49.63Q11.13 49.50 10.94 49.38Q10.75 49.25 10.63 49L10.63 49Q11.13 49.13 11.44 49.31Q11.75 49.50 12 49.63L12 49.63Q12.25 49.38 12.13 49.25Q12 49.13 11.88 49L11.88 49Q12.25 49.13 12.56 49.31Q12.88 49.50 13.13 49.75L13.13 49.75Q13.13 49.63 13.19 49.50Q13.25 49.38 13.13 49.13L13.13 49.13Q13.50 49.38 13.69 49.56Q13.88 49.75 14.13 50L14.13 50Q14.25 49.88 14.25 49.69Q14.25 49.50 14.25 49.38L14.25 49.38Q14.63 49.63 14.81 49.94Q15 50.25 15.25 50.50L15.25 50.50Q15.38 50.38 15.38 50.31Q15.38 50.25 15.50 50L15.50 50Q16.25 50.75 16.81 52.25Q17.38 53.75 15.88 54.38L15.88 54.38Q14.50 53.38 12.94 52.56Q11.38 51.75 9.50 51.13L9.50 51.13Q11.88 52.25 13.25 53.19Q14.63 54.13 15.38 55L15.38 55Q15 56.50 13.50 56.75Q12 57 11.25 57L11.25 57Q11.50 56.88 11.56 56.81Q11.63 56.75 11.75 56.63L11.75 56.63Q11.50 56.50 11 56.50Q10.50 56.50 10 56.25L10 56.25ZM17.63 57.13L17.63 57.13Q18.75 57 19.88 57.69Q21 58.38 21 59.25L21 59.25Q21 59.88 20.06 60.38Q19.13 60.88 17.63 60.88L17.63 60.88Q16.13 60.88 15.25 60.31Q14.38 59.75 14.38 59L14.38 59Q14.38 58.50 15.38 57.75Q16.38 57 17.63 57.13L17.63 57.13ZM19.75 50L19.75 50Q19.75 50.25 19.81 50.31Q19.88 50.38 20 50.50L20 50.50Q20.25 50.25 20.44 49.94Q20.63 49.63 21 49.38L21 49.38Q21 49.50 21 49.69Q21 49.88 21.13 50L21.13 50Q21.25 49.75 21.50 49.56Q21.75 49.38 22.13 49.13L22.13 49.13Q22 49.38 22.06 49.50Q22.13 49.63 22.13 49.75L22.13 49.75Q22.38 49.50 22.63 49.31Q22.88 49.13 23.38 49L23.38 49Q23.25 49.13 23.13 49.25Q23 49.38 23.25 49.63L23.25 49.63Q23.50 49.50 23.81 49.31Q24.13 49.13 24.63 49L24.63 49Q24.50 49.25 24.31 49.38Q24.13 49.50 24.38 49.63L24.38 49.63Q24.63 49.50 25 49.44Q25.38 49.38 25.75 49.25L25.75 49.25Q25.50 49.50 25.38 49.63Q25.25 49.75 25.50 49.88L25.50 49.88Q25.75 49.75 26.19 49.63Q26.63 49.50 27.13 49.63L27.13 49.63L26.75 50Q26.63 50.13 27.19 50.13Q27.75 50.13 28.13 50.13L28.13 50.13Q28 50.38 27.88 50.63Q27.75 50.88 27.63 51.25L27.63 51.25Q27.63 51.25 27.81 51.25Q28 51.25 28.25 51.25L28.25 51.25Q28 51.63 27.69 51.81Q27.38 52 27.38 52.25L27.38 52.25Q27.50 52.38 27.69 52.38Q27.88 52.38 28 52.25L28 52.25Q27.88 52.63 27.56 52.88Q27.25 53.13 27 53.38L27 53.38Q27.13 53.38 27.25 53.38Q27.38 53.38 27.63 53.38L27.63 53.38Q27.38 53.63 27.13 53.88Q26.88 54.13 26.50 54.25L26.50 54.25L26.50 54.25Q26.50 54.38 26.69 54.38Q26.88 54.38 27.13 54.38L27.13 54.38Q26.75 54.75 26.38 54.94Q26 55.13 25.63 55.25L25.63 55.25Q25.88 55.38 26 55.38Q26.13 55.38 26.25 55.38L26.25 55.38Q26 55.63 25.56 55.75Q25.13 55.88 24.75 56L24.75 56Q24.88 56.13 24.94 56.19Q25 56.25 25.25 56.25L25.25 56.25Q24.75 56.50 24.25 56.50Q23.75 56.50 23.50 56.63L23.50 56.63Q23.63 56.75 23.69 56.81Q23.75 56.88 23.88 57L23.88 57Q23.25 57 21.75 56.75Q20.25 56.50 19.88 55L19.88 55Q20.63 54.13 22 53.19Q23.38 52.25 25.75 51.13L25.75 51.13Q23.88 51.75 22.31 52.56Q20.75 53.38 19.38 54.38L19.38 54.38Q17.75 53.75 18.38 52.25Q19 50.75 19.75 50L19.75 50ZM24 67.75L24 67.75Q22.88 68.50 21.44 68.13Q20 67.75 19.13 66.38L19.13 66.38Q18.25 65.13 18.38 63.69Q18.50 62.25 19.75 61.50L19.75 61.50Q20.88 60.75 22.25 61.13Q23.63 61.50 24.63 62.88L24.63 62.88Q25.50 64.13 25.31 65.63Q25.13 67.13 24 67.75L24 67.75ZM26.63 62L26.63 62Q26.50 62.88 23.63 60.44Q20.75 58 21.50 57.88L21.50 57.88Q23.63 57.50 25.13 58.63Q26.63 59.75 26.63 62ZM28 62.50L28 62.50L27.75 62.13Q27.75 60 26.88 58.94Q26 57.88 24.88 57.25L24.88 57.25Q25.25 57.13 25.56 57Q25.88 56.88 26 56.38L26 56.38Q26.63 56.25 26.81 56Q27 55.75 27 55.38L27 55.38Q27.13 55.38 27.50 55.06Q27.88 54.75 27.88 54.25L27.88 54.25Q28.13 54 28.31 53.75Q28.50 53.50 28.38 53.13L28.38 53.13Q28.63 52.75 28.75 52.44Q28.88 52.13 28.75 51.88L28.75 51.88Q29.13 51.38 29.06 51.13Q29 50.88 28.75 50.63L28.75 50.63Q29.13 50.13 28.88 49.69Q28.63 49.25 27.75 49.25L27.75 49.25Q27.50 48.88 26.94 48.88Q26.38 48.88 26.25 48.88L26.25 48.88Q26.13 48.63 25.94 48.56Q25.75 48.50 25.25 48.50L25.25 48.50Q24.88 48.25 24.56 48.25Q24.25 48.25 23.88 48.38L23.88 48.38Q23.50 48.13 23.13 48.25Q22.75 48.38 22.50 48.50L22.50 48.50Q22 48.25 21.75 48.44Q21.50 48.63 21.25 48.63L21.25 48.63Q20.75 48.50 20.50 48.69Q20.25 48.88 19.88 49.25L19.88 49.25L19.50 49.25Q18.63 49.75 18.19 50.56Q17.75 51.38 17.63 51.88L17.63 51.88Q17.38 51.38 16.94 50.56Q16.50 49.75 15.63 49.25L15.63 49.25L15.25 49.25Q15 48.88 14.75 48.69Q14.50 48.50 13.88 48.63L13.88 48.63Q13.63 48.63 13.44 48.44Q13.25 48.25 12.63 48.50L12.63 48.50Q12.50 48.38 12.25 48.25Q12 48.13 11.75 48.13L11.75 48.13L11.75 48.13Q11.63 48.25 11.50 48.25Q11.38 48.25 11.25 48.38L11.25 48.38Q10.88 48.25 10.56 48.25Q10.25 48.25 9.88 48.50L9.88 48.50Q9.38 48.50 9.19 48.56Q9 48.63 8.88 48.88L8.88 48.88Q8.75 48.88 8.25 48.88Q7.75 48.88 7.38 49.25L7.38 49.25Q6.63 49.25 6.38 49.69Q6.13 50.13 6.38 50.63L6.38 50.63Q6.25 50.88 6.13 51.13Q6 51.38 6.38 51.88L6.38 51.88Q6.25 52.13 6.38 52.44Q6.50 52.75 6.75 53.13L6.75 53.13Q6.75 53.50 6.88 53.75Q7 54 7.25 54.25L7.25 54.25Q7.25 54.75 7.63 55.06Q8 55.38 8.13 55.38L8.13 55.38Q8.13 55.75 8.38 56Q8.63 56.25 9.13 56.38L9.13 56.38Q9.25 56.88 9.56 57Q9.88 57.13 10.25 57.25L10.25 57.25Q9.13 57.88 8.25 58.94Q7.38 60 7.38 62.13L7.38 62.13L7.13 62.50Q5.88 63.38 5.13 65.56Q4.38 67.75 6.25 69.88L6.25 69.88Q6.38 70.50 6.56 71Q6.75 71.50 7 72L7 72Q7.25 74.13 8.56 75.13Q9.88 76.13 10.38 76.25L10.38 76.25Q11 76.75 11.81 77.25Q12.63 77.75 13.63 78L13.63 78Q14.50 79 15.50 79.44Q16.50 79.88 17.50 79.88L17.50 79.88L17.63 79.88Q18.63 79.88 19.63 79.44Q20.63 79 21.63 78L21.63 78Q22.63 77.75 23.38 77.25Q24.13 76.75 24.75 76.25L24.75 76.25Q25.25 76.13 26.56 75.13Q27.88 74.13 28.13 72L28.13 72Q28.38 71.50 28.56 71Q28.75 70.50 28.88 69.88L28.88 69.88Q30.75 67.75 30.06 65.56Q29.38 63.38 28 62.50L28 62.50ZM35.38 59.13L35.38 62.25L37.25 62.25Q37.63 62.25 38 62.13Q38.38 62 38.50 61.75L38.50 61.75Q38.75 61.63 38.88 61.31Q39 61 39 60.63L39 60.63Q39 60.25 38.88 60Q38.75 59.75 38.50 59.50L38.50 59.50Q38.38 59.25 38 59.19Q37.63 59.13 37.25 59.13L37.25 59.13L35.38 59.13ZM35.38 63.88L35.38 63.88L35.38 68.13L33.25 68.13L33.25 57.38L37.25 57.38Q38.13 57.38 38.88 57.63Q39.63 57.88 40.13 58.25L40.13 58.25Q40.63 58.63 40.88 59.25Q41.13 59.88 41.13 60.63L41.13 60.63Q41.13 61 41 61.38Q40.88 61.75 40.75 62L40.75 62Q40.50 62.25 40.19 62.50Q39.88 62.75 39.38 63L39.38 63Q39.88 63.13 40.25 63.38Q40.63 63.63 40.75 63.88L40.75 63.88Q41 64.25 41.13 64.63Q41.25 65 41.25 65.50L41.25 65.50L41.25 66.38Q41.25 66.50 41.25 66.75Q41.25 67 41.38 67.25L41.38 67.25Q41.38 67.50 41.50 67.69Q41.63 67.88 41.75 68L41.75 68L41.75 68.13L39.50 68.13Q39.38 68 39.31 67.81Q39.25 67.63 39.13 67.38L39.13 67.38Q39.13 67.13 39.13 66.88Q39.13 66.63 39.13 66.25L39.13 66.25L39.13 65.50Q39.13 65.13 39 64.81Q38.88 64.50 38.63 64.25L38.63 64.25Q38.38 64.13 38.06 64Q37.75 63.88 37.38 63.88L37.38 63.88L35.38 63.88ZM45.75 66.75L45.75 66.75Q46 66.75 46.25 66.63Q46.50 66.50 46.75 66.38L46.75 66.38Q46.88 66.25 47.06 66.13Q47.25 66 47.25 65.75L47.25 65.75L47.25 64.63L46.13 64.63Q45.75 64.63 45.50 64.75Q45.25 64.88 45 65L45 65Q44.88 65.13 44.81 65.31Q44.75 65.50 44.75 65.75L44.75 65.75Q44.75 65.75 44.75 65.75Q44.75 65.75 44.75 65.88L44.75 65.88L44.75 65.88Q44.75 66 44.81 66.19Q44.88 66.38 45 66.50L45 66.50Q45.13 66.63 45.31 66.69Q45.50 66.75 45.75 66.75L45.75 66.75ZM47.63 68.13L47.63 68.13Q47.63 68 47.56 67.88Q47.50 67.75 47.50 67.63L47.50 67.63L47.50 67.50Q47.38 67.38 47.38 67.25Q47.38 67.13 47.38 67L47.38 67L47.38 67Q47.13 67.25 46.94 67.50Q46.75 67.75 46.50 67.88L46.50 67.88L46.50 67.88Q46.25 68.13 45.88 68.19Q45.50 68.25 45.13 68.25L45.13 68.25Q44.50 68.25 44.06 68.13Q43.63 68 43.25 67.63L43.25 67.63Q42.88 67.38 42.75 66.94Q42.63 66.50 42.63 65.88L42.63 65.88Q42.63 65.25 42.81 64.81Q43 64.38 43.50 64.13L43.50 64.13Q43.88 63.75 44.56 63.56Q45.25 63.38 46.13 63.38L46.13 63.38L47.25 63.38L47.25 62.75Q47.25 62.50 47.19 62.31Q47.13 62.13 47 61.88L47 61.88Q46.88 61.75 46.63 61.69Q46.38 61.63 46.13 61.63L46.13 61.63Q45.88 61.63 45.69 61.69Q45.50 61.75 45.25 61.88L45.25 61.88Q45.13 62 45.06 62.19Q45 62.38 45 62.50L45 62.50L43 62.50L42.88 62.50Q42.88 62 43.13 61.56Q43.38 61.13 43.75 60.75L43.75 60.75Q44.25 60.38 44.88 60.19Q45.50 60 46.25 60L46.25 60Q47 60 47.56 60.19Q48.13 60.38 48.63 60.75L48.63 60.75Q49 61.13 49.25 61.63Q49.50 62.13 49.50 62.75L49.50 62.75L49.50 66.13Q49.50 66.38 49.50 66.63Q49.50 66.88 49.50 67.13L49.50 67.13Q49.63 67.38 49.69 67.63Q49.75 67.88 49.75 68.13L49.75 68.13L47.63 68.13ZM55.38 66L55.38 66Q55.38 65.75 55.31 65.63Q55.25 65.50 55 65.38L55 65.38Q54.88 65.25 54.56 65.13Q54.25 65 53.75 64.88L53.75 64.88Q53.13 64.75 52.56 64.50Q52 64.25 51.63 64L51.63 64Q51.25 63.75 51.06 63.38Q50.88 63 50.88 62.50L50.88 62.50Q50.88 62 51.13 61.56Q51.38 61.13 51.75 60.75L51.75 60.75Q52.25 60.38 52.81 60.19Q53.38 60 54.13 60L54.13 60Q54.88 60 55.50 60.19Q56.13 60.38 56.50 60.75L56.50 60.75Q57 61.13 57.19 61.56Q57.38 62 57.38 62.50L57.38 62.50L57.38 62.63L55.25 62.63Q55.25 62.38 55.19 62.19Q55.13 62 55 61.75L55 61.75Q54.88 61.63 54.63 61.56Q54.38 61.50 54.13 61.50L54.13 61.50Q53.88 61.50 53.63 61.56Q53.38 61.63 53.25 61.75L53.25 61.75Q53.13 61.88 53.06 62.06Q53 62.25 53 62.38L53 62.38Q53 62.38 53 62.38Q53 62.38 53 62.38L53 62.38L53 62.38Q53 62.63 53.06 62.75Q53.13 62.88 53.25 63L53.25 63Q53.50 63.13 53.81 63.25Q54.13 63.38 54.63 63.38L54.63 63.38Q55.25 63.50 55.81 63.75Q56.38 64 56.75 64.25L56.75 64.25Q57.13 64.63 57.31 65Q57.50 65.38 57.50 65.88L57.50 65.88Q57.50 66.38 57.25 66.81Q57 67.25 56.50 67.63L56.50 67.63Q56.13 68 55.50 68.13Q54.88 68.25 54.13 68.25L54.13 68.25Q53.38 68.25 52.75 68.06Q52.13 67.88 51.63 67.50L51.63 67.50Q51.13 67.13 50.94 66.63Q50.75 66.13 50.75 65.63L50.75 65.63L50.75 65.63L52.75 65.63Q52.75 65.88 52.81 66.13Q52.88 66.38 53.13 66.50L53.13 66.50Q53.38 66.63 53.63 66.75Q53.88 66.88 54.13 66.88L54.13 66.88Q54.50 66.88 54.69 66.81Q54.88 66.75 55.13 66.63L55.13 66.63Q55.25 66.50 55.31 66.31Q55.38 66.13 55.38 66L55.38 66Q55.38 66 55.38 66Q55.38 66 55.38 66L55.38 66L55.38 66ZM63.88 64.38L63.88 64.25Q63.88 63.63 63.81 63.19Q63.75 62.75 63.50 62.38L63.50 62.38Q63.38 62 63.06 61.81Q62.75 61.63 62.38 61.63L62.38 61.63Q62.13 61.63 61.94 61.69Q61.75 61.75 61.50 61.88L61.50 61.88Q61.38 62 61.25 62.13Q61.13 62.25 61 62.38L61 62.38L61 62.50L61 66Q61.13 66.13 61.25 66.25Q61.38 66.38 61.50 66.50L61.50 66.50Q61.75 66.50 61.94 66.56Q62.13 66.63 62.38 66.63L62.38 66.63Q62.75 66.63 63.06 66.50Q63.38 66.38 63.50 66L63.50 66Q63.75 65.75 63.81 65.31Q63.88 64.88 63.88 64.38L63.88 64.38ZM66 64.38L66 64.38Q66 65.25 65.81 65.94Q65.63 66.63 65.25 67.25L65.25 67.25Q64.75 67.75 64.19 68Q63.63 68.25 62.88 68.25L62.88 68.25Q62.63 68.25 62.38 68.19Q62.13 68.13 61.88 68L61.88 68Q61.63 67.88 61.38 67.75Q61.13 67.63 61 67.38L61 67.38L61 67.38L61 71.25L58.88 71.25L58.88 60.13L60.75 60.13L60.88 61.13Q61.13 60.88 61.31 60.69Q61.50 60.50 61.75 60.25L61.75 60.25Q62 60.13 62.31 60.06Q62.63 60 62.88 60L62.88 60Q63.63 60 64.19 60.31Q64.75 60.63 65.25 61.13L65.25 61.13Q65.63 61.75 65.81 62.50Q66 63.25 66 64.25L66 64.25L66 64.38ZM72.38 64.38L72.38 64.25Q72.38 63.63 72.31 63.19Q72.25 62.75 72 62.38L72 62.38Q71.88 62 71.56 61.81Q71.25 61.63 70.88 61.63L70.88 61.63Q70.63 61.63 70.44 61.69Q70.25 61.75 70 61.88L70 61.88Q69.88 62 69.75 62.13Q69.63 62.25 69.50 62.50L69.50 62.50L69.50 62.50L69.50 65.88Q69.63 66.13 69.75 66.25Q69.88 66.38 70 66.50L70 66.50Q70.25 66.50 70.44 66.56Q70.63 66.63 70.88 66.63L70.88 66.63Q71.38 66.63 71.63 66.50Q71.88 66.38 72.13 66L72.13 66Q72.25 65.75 72.31 65.31Q72.38 64.88 72.38 64.38L72.38 64.38ZM74.50 64.38L74.50 64.38Q74.50 65.25 74.31 65.94Q74.13 66.63 73.75 67.25L73.75 67.25Q73.38 67.75 72.81 68Q72.25 68.25 71.50 68.25L71.50 68.25Q71.13 68.25 70.81 68.19Q70.50 68.13 70.25 68L70.25 68Q70 67.88 69.75 67.63Q69.50 67.38 69.38 67.13L69.38 67.13L69.38 67.13L69.25 68.13L67.38 68.13L67.38 56.63L69.50 56.63L69.50 61Q69.63 60.75 69.88 60.56Q70.13 60.38 70.38 60.25L70.38 60.25Q70.63 60.13 70.88 60.06Q71.13 60 71.38 60L71.38 60Q72.25 60 72.81 60.31Q73.38 60.63 73.75 61.13L73.75 61.13Q74.13 61.75 74.31 62.50Q74.50 63.25 74.50 64.25L74.50 64.25L74.50 64.38ZM79.25 61.63L79.25 61.63Q78.88 61.63 78.63 61.75Q78.38 61.88 78.25 62.13L78.25 62.13Q78.13 62.38 78 62.69Q77.88 63 77.88 63.38L77.88 63.38L77.88 63.38L80.50 63.38L80.50 63.13Q80.50 62.88 80.44 62.56Q80.38 62.25 80.13 62.13L80.13 62.13Q80 61.88 79.75 61.75Q79.50 61.63 79.25 61.63L79.25 61.63ZM79.38 68.25L79.38 68.25Q78.50 68.25 77.81 68Q77.13 67.75 76.63 67.13L76.63 67.13Q76.13 66.63 75.88 65.94Q75.63 65.25 75.63 64.38L75.63 64.38L75.63 64.13Q75.63 63.25 75.88 62.50Q76.13 61.75 76.63 61.13L76.63 61.13Q77.13 60.63 77.75 60.31Q78.38 60 79.25 60L79.25 60Q80 60 80.63 60.25Q81.25 60.50 81.75 61L81.75 61Q82.13 61.50 82.38 62.13Q82.63 62.75 82.63 63.63L82.63 63.63L82.63 64.75L77.88 64.75L77.88 64.88Q77.88 65.25 78 65.56Q78.13 65.88 78.38 66.13L78.38 66.13Q78.63 66.38 78.94 66.50Q79.25 66.63 79.63 66.63L79.63 66.63Q80 66.63 80.31 66.56Q80.63 66.50 80.75 66.50L80.75 66.50Q81.13 66.38 81.38 66.25Q81.63 66.13 81.88 66L81.88 66L81.88 66L82.38 67.38Q82.13 67.63 81.81 67.75Q81.50 67.88 81.13 68L81.13 68Q80.75 68.13 80.31 68.19Q79.88 68.25 79.50 68.25L79.50 68.25Q79.50 68.25 79.44 68.25Q79.38 68.25 79.38 68.25L79.38 68.25L79.38 68.25ZM88 62L88 62L87.25 62Q87 62 86.81 62.06Q86.63 62.13 86.50 62.25L86.50 62.25Q86.25 62.25 86.13 62.44Q86 62.63 86 62.75L86 62.75L86 62.75L86 68.13L83.88 68.13L83.88 60.13L85.88 60.13L85.88 61.38Q86.13 61 86.25 60.75Q86.38 60.50 86.63 60.38L86.63 60.38Q86.88 60.25 87.13 60.13Q87.38 60 87.63 60L87.63 60Q87.75 60 87.81 60Q87.88 60 88 60L88 60Q88 60 88.13 60.06Q88.25 60.13 88.25 60.13L88.25 60.13L88 62ZM93.25 62L93.25 62L92.50 62Q92.25 62 92.06 62.06Q91.88 62.13 91.75 62.25L91.75 62.25Q91.63 62.25 91.50 62.44Q91.38 62.63 91.25 62.75L91.25 62.75L91.25 62.75L91.25 68.13L89.13 68.13L89.13 60.13L91.13 60.13L91.25 61.38Q91.38 61 91.56 60.75Q91.75 60.50 91.88 60.38L91.88 60.38Q92.13 60.25 92.38 60.13Q92.63 60 93 60L93 60Q93 60 93.13 60Q93.25 60 93.25 60L93.25 60Q93.38 60 93.44 60.06Q93.50 60.13 93.50 60.13L93.50 60.13L93.25 62ZM97.50 64.75L97.50 64.75L97.50 65.25L97.63 65.25L99.13 60.13L101.38 60.13L98.25 69.38Q98 69.75 97.81 70.13Q97.63 70.50 97.25 70.75L97.25 70.75L97.25 70.75Q97 71 96.56 71.19Q96.13 71.38 95.50 71.38L95.50 71.38Q95.38 71.38 95.25 71.38Q95.13 71.38 95 71.25L95 71.25Q94.88 71.25 94.75 71.25Q94.63 71.25 94.50 71.13L94.50 71.13L94.75 69.63L94.88 69.63Q95 69.63 95.06 69.63Q95.13 69.63 95.13 69.63L95.13 69.63Q95.38 69.63 95.56 69.56Q95.75 69.50 96 69.38L96 69.38Q96.13 69.25 96.19 69.13Q96.25 69 96.38 68.75L96.38 68.75L96.63 68.13L93.88 60.13L96.13 60.13L97.50 64.75ZM108.38 59.13L108.38 62.63L110.50 62.63Q111 62.63 111.31 62.50Q111.63 62.38 111.88 62.13L111.88 62.13Q112.13 61.88 112.25 61.56Q112.38 61.25 112.38 60.88L112.38 60.88Q112.38 60.50 112.25 60.19Q112.13 59.88 111.88 59.63L111.88 59.63Q111.63 59.38 111.31 59.25Q111 59.13 110.50 59.13L110.50 59.13L108.38 59.13ZM110.50 64.25L108.38 64.25L108.38 68.13L106.25 68.13L106.25 57.38L110.50 57.38Q111.38 57.38 112.13 57.63Q112.88 57.88 113.38 58.38L113.38 58.38Q113.88 58.88 114.19 59.50Q114.50 60.13 114.50 60.88L114.50 60.88Q114.50 61.63 114.19 62.25Q113.88 62.88 113.38 63.25L113.38 63.25Q112.88 63.75 112.13 64Q111.38 64.25 110.50 64.25L110.50 64.25ZM118.13 60.13L118.13 68.13L116 68.13L116 60.13L118.13 60.13ZM118.13 56.63L118.13 58.25L116 58.25L116 56.63L118.13 56.63ZM121.38 58.75L121.38 58.75Q120.75 58.75 120.31 58.38Q119.88 58 119.88 57.38L119.88 57.38Q119.88 56.75 120.31 56.38Q120.75 56 121.38 56L121.38 56L121.38 56Q121.88 56 122.31 56.38Q122.75 56.75 122.75 57.38L122.75 57.38Q122.75 58 122.31 58.38Q121.88 58.75 121.38 58.75L121.38 58.75ZM121.38 55.75L121.38 55.75Q120.63 55.75 120.13 56.19Q119.63 56.63 119.63 57.38L119.63 57.38Q119.63 58.13 120.13 58.56Q120.63 59 121.38 59L121.38 59L121.38 59Q122 59 122.50 58.56Q123 58.13 123 57.38L123 57.38Q123 56.63 122.50 56.19Q122 55.75 121.38 55.75L121.38 55.75ZM121 56.75L121 57.25L121.50 57.25Q121.63 57.25 121.69 57.19Q121.75 57.13 121.75 57L121.75 57Q121.75 56.88 121.69 56.81Q121.63 56.75 121.50 56.75L121.50 56.75L121 56.75ZM120.63 56.50L120.63 56.50L121.63 56.50Q121.88 56.50 122 56.63Q122.13 56.75 122.13 57L122.13 57Q122.13 57.13 122.06 57.25Q122 57.38 121.88 57.38L121.88 57.38L121.88 57.38Q122 57.50 122.06 57.63Q122.13 57.75 122.13 57.88L122.13 57.88Q122.13 57.88 122.13 58Q122.13 58.13 122.13 58.25L122.13 58.25L121.75 58.25Q121.75 58.13 121.75 58Q121.75 57.88 121.75 57.88L121.75 57.88Q121.75 57.63 121.63 57.56Q121.50 57.50 121.38 57.50L121.38 57.50L121 57.50L121 58.25L120.63 58.25L120.63 56.50Z"/></svg>