<svg xmlns="http://www.w3.org/2000/svg" xmlns:xlink="http://www.w3.org/1999/xlink" width="128" height="128"><path fill="#ffffff" d="M2 1.38L2 63.88L2 126.38L127 126.38L127 1.38L2 1.38ZM102.88 59L102.75 58.88Q105 59.50 107 60.63Q109 61.75 110.50 63.38L110.50 63.38Q111.38 64.25 112.13 65.25Q112.88 66.25 113.50 67.25L113.50 67.25Q113.50 67.50 110.44 69.63Q107.38 71.75 104.88 73.25L104.88 73.25Q104.75 73.38 104.44 73Q104.13 72.63 103.75 72L103.75 72Q102.88 70.50 101.31 69.56Q99.75 68.63 97.88 68.50L97.88 68.50Q95 68.25 93.31 69.63Q91.63 71 91.63 73.50L91.63 73.50Q91.63 73.50 91.63 73.56Q91.63 73.63 91.63 73.63L91.63 73.63Q91.63 74.25 91.75 74.81Q91.88 75.38 92.25 75.88L92.25 75.88Q92.88 77.13 94.31 78.13Q95.75 79.13 99.38 80.75L99.38 80.75Q106.13 83.63 109.44 85.81Q112.75 88 114.63 90.75L114.63 90.75Q116.63 93.75 117 98.06Q117.38 102.38 116 106L116 106Q114.50 109.88 110.94 112.44Q107.38 115 102.25 115.88L102.25 115.88Q101.25 116 100.13 116.06Q99 116.13 97.88 116.13L97.88 116.13Q96.50 116.13 95.13 116Q93.75 115.88 92.50 115.75L92.50 115.75Q88.88 115.13 85.69 113.44Q82.50 111.75 80 109.25L80 109.25Q79.13 108.25 77.88 106.38Q76.63 104.50 76.75 104.38L76.75 104.38Q77 104.13 77.25 104Q77.50 103.88 77.88 103.63L77.88 103.63L82.50 101L86.13 98.88L86.88 100Q87.75 101.38 88.94 102.50Q90.13 103.63 91.50 104.50L91.50 104.50Q94.63 106.13 98.19 105.94Q101.75 105.75 103.75 104L103.75 104Q104.50 103.25 104.94 102.25Q105.38 101.25 105.38 100.13L105.38 100.13Q105.38 99.25 105.13 98.44Q104.88 97.63 104.38 97L104.38 97Q103.63 96 101.81 94.94Q100 93.88 95.88 92L95.88 92Q91 90 88.50 88.44Q86 86.88 84.13 84.75L84.13 84.75Q82.88 83.50 82 81.94Q81.13 80.38 80.63 78.63L80.63 78.63Q80.38 77.50 80.31 76.31Q80.25 75.13 80.25 73.88L80.25 73.88Q80.25 73 80.31 72.13Q80.38 71.25 80.38 70.38L80.38 70.38Q81.38 65.88 84.75 62.75Q88.13 59.63 93.25 58.63L93.25 58.63Q94.13 58.50 95.13 58.44Q96.13 58.38 97.13 58.38L97.13 58.38Q98.63 58.38 100.06 58.56Q101.50 58.75 102.88 59L102.88 59ZM73.38 59L73.38 64.13L73.38 69.25L57.13 69.25L57.13 115.50L45.63 115.50L45.63 69.25L29.38 69.25L29.38 64.25Q29.38 64 29.38 63.69Q29.38 63.38 29.38 63L29.38 63Q29.38 62 29.44 60.94Q29.50 59.88 29.50 58.88L29.50 58.88Q29.63 59 36.06 59Q42.50 59 51.50 59L51.50 59L73.38 59Z"/></svg>