<svg xmlns="http://www.w3.org/2000/svg" xmlns:xlink="http://www.w3.org/1999/xlink" width="128" height="128"><path fill="#000000" d="M89.75 48.88L89.75 48.88L89 48.50Q89.25 49.13 89.38 49.75Q89.50 50.38 89.50 51L89.50 51Q89.63 50.50 89.69 50.06Q89.75 49.63 89.75 49.13L89.75 49.13Q89.75 49.75 89.69 50.31Q89.63 50.88 89.50 51.38L89.50 51.38L89.50 51Q89.25 51.63 89 52.31Q88.75 53 88.38 53.50L88.38 53.50L88.63 53.25Q86.50 56.88 81.69 57.38Q76.88 57.88 74 54.13L74 54.13Q69.38 48.13 71.88 41.81Q74.38 35.50 75 29.13L75 29.13Q75.88 21.13 71.63 13.88Q67.38 6.63 61.25 2L61.25 2Q64.63 7.50 61.63 14Q58.63 20.50 55 24.50L55 24.50Q51.50 28.50 47.50 31.94Q43.50 35.38 39.63 39L39.63 39Q35.50 42.88 31.56 47Q27.63 51.13 24.25 55.63L24.25 55.63Q20.88 60.13 18.25 65.13L18.25 65.13Q15.63 70.25 14.13 75.63Q12.63 81 12.38 86.63L12.38 86.63Q12.25 92.25 13.75 97.88L13.75 97.88Q15.25 103.50 18.38 108.13L18.38 108.13Q21.50 112.75 25.69 116.31Q29.88 119.88 35 122.25L35 122.25Q40.13 124.63 45.63 126L45.63 126Q40 123.50 35.63 118Q31.25 112.50 31.25 106.25L31.25 106.25Q31.25 99.38 35 93.75Q38.75 88.13 44.13 84.25L44.13 84.25Q43.50 86.75 43.44 89Q43.38 91.25 45 93.50L45 93.50Q46.38 95.50 48.81 96.38Q51.25 97.25 53.75 96.75L53.75 96.75Q59.50 95.50 60.06 90.44Q60.63 85.38 57.13 81.75L57.13 81.75Q53.75 78.13 51.25 73.88Q48.75 69.63 50 64.25L50 64.25Q50.63 61.63 52.19 59.25Q53.75 56.88 55.88 55.13L55.88 55.13Q54.25 59.25 57.50 63Q60.75 66.75 63.63 68.88L63.63 68.88Q68.88 72.38 74.25 75.50Q79.63 78.63 84.38 82.75L84.38 82.75Q89.38 87.13 92.56 92.94Q95.75 98.75 95 105.63L95 105.63Q94.13 113.13 88.94 118.25Q83.75 123.38 77.13 126L77.13 126Q84.13 124.38 91 121L91 121Q97.88 117.50 103.25 112.44Q108.63 107.38 112 100.88L112 100.88Q115.38 94.38 115.63 86.63L115.63 86.63Q115.75 80.13 113.75 74.50L113.75 74.50Q111.75 68.88 108.19 64.13Q104.63 59.38 99.88 55.50L99.88 55.50Q95.13 51.63 89.75 48.88L89.75 48.88Z"/></svg>