<svg xmlns="http://www.w3.org/2000/svg" xmlns:xlink="http://www.w3.org/1999/xlink" width="128" height="128"><path fill="#ffffff" d="M16.38 120.25L16.38 120.25Q14.75 120.25 14.19 119.38Q13.63 118.50 13.63 117.13L13.63 117.13Q13.63 116.63 13.69 116.06Q13.75 115.50 13.75 115L13.75 115Q14.13 112.50 15.13 111.19Q16.13 109.88 18.25 109.88L18.25 109.88Q19.63 109.88 20.31 110.50Q21 111.13 21 112.25L21 112.25L21 113L22.88 113Q22.88 113 22.88 112.63Q22.88 112.25 22.88 112.13L22.88 112.13Q22.88 110.50 21.81 109.13Q20.75 107.75 18.25 107.75L18.25 107.75Q14.75 107.75 13.19 109.63Q11.63 111.50 11.13 115.13L11.13 115.13Q11 115.63 11 116.06Q11 116.50 11 117L11 117Q11 119.13 12.06 120.75Q13.13 122.38 16.13 122.38L16.13 122.38Q18.38 122.38 19.81 121.44Q21.25 120.50 22 119.13L22 119.13L20.25 117.88Q19.38 119.25 18.44 119.75Q17.50 120.25 16.38 120.25L16.38 120.25ZM28.63 111.25L28.63 111.25Q25.88 111.25 24.63 112.63Q23.38 114 22.88 116.75L22.88 116.75Q22.88 117.13 22.88 117.44Q22.88 117.75 22.88 118.13L22.88 118.13Q22.88 119.88 23.81 121.13Q24.75 122.38 27 122.38L27 122.38Q29.75 122.38 31.06 120.94Q32.38 119.50 32.75 116.75L32.75 116.75Q32.88 116.50 32.88 116.13Q32.88 115.75 32.88 115.50L32.88 115.50Q32.88 113.63 31.94 112.44Q31 111.25 28.63 111.25L28.63 111.25ZM30.13 116.75L30.13 116.75Q29.88 118.88 29.19 119.56Q28.50 120.25 27.38 120.25L27.38 120.25Q26.38 120.25 25.88 119.81Q25.38 119.38 25.38 118.25L25.38 118.25Q25.38 117.88 25.44 117.56Q25.50 117.25 25.50 116.75L25.50 116.75Q25.88 114.75 26.50 114.06Q27.13 113.38 28.38 113.38L28.38 113.38Q29.25 113.38 29.75 113.81Q30.25 114.25 30.25 115.50L30.25 115.50Q30.25 115.75 30.25 116.06Q30.25 116.38 30.13 116.75L30.13 116.75ZM42 108L42 108L41.38 111.63Q41.38 111.88 41.38 111.88Q41.38 111.88 41.50 112.13L41.50 112.13Q41.13 111.75 40.44 111.56Q39.75 111.38 39.25 111.38L39.25 111.38Q36.75 111.38 35.38 112.63Q34 113.88 33.50 117L33.50 117Q33.50 117.38 33.50 117.69Q33.50 118 33.50 118.25L33.50 118.25Q33.50 120.50 34.69 121.44Q35.88 122.38 37.63 122.38L37.63 122.38Q38.38 122.38 39.06 122.31Q39.75 122.25 40.38 121.75L40.38 121.75L40.50 123L42.38 123L44.63 108L42 108ZM41 113.75L40.13 119.75Q39.50 120.13 38.88 120.25Q38.25 120.38 37.88 120.38L37.88 120.38Q36.75 120.38 36.38 119.88Q36 119.38 36 118.50L36 118.50Q36 118.13 36.06 117.75Q36.13 117.38 36.13 116.88L36.13 116.88Q36.50 114.63 37.25 113.94Q38 113.25 38.88 113.25L38.88 113.25Q39.50 113.25 40.06 113.38Q40.63 113.50 41 113.75L41 113.75ZM50.38 111.25L50.38 111.25Q47.63 111.25 46.25 112.56Q44.88 113.88 44.50 116.75L44.50 116.75Q44.50 117.13 44.44 117.50Q44.38 117.88 44.38 118.13L44.38 118.13Q44.38 120.13 45.44 121.25Q46.50 122.38 48.75 122.38L48.75 122.38Q50.50 122.38 51.75 121.69Q53 121 53.63 119.63L53.63 119.63L51.75 118.88Q51.25 119.50 50.63 119.88Q50 120.25 49 120.25L49 120.25Q47.88 120.25 47.44 119.94Q47 119.63 47 118.63L47 118.63Q47 118.38 47 118.19Q47 118 47 118L47 118L54.13 118Q54.13 117.25 54.25 116.69Q54.38 116.13 54.38 115.75L54.38 115.75Q54.38 114.25 53.56 112.75Q52.75 111.25 50.38 111.25L50.38 111.25ZM51.63 116L51.63 116L47.38 116Q47.75 115.25 48.31 114.38Q48.88 113.50 50 113.50L50 113.50Q50.88 113.50 51.31 113.94Q51.75 114.38 51.75 115.25L51.75 115.25Q51.75 115.38 51.75 115.69Q51.75 116 51.63 116L51.63 116ZM60.38 111L61.88 111L62.13 109L56.63 109L56.38 111L57.75 111L56.25 121L54.75 121L54.50 123L60.13 123L60.25 121L58.88 121L60.38 111ZM73.13 114L73.13 114L73.75 112L71.88 112L70.50 112.25Q70 111.88 69.25 111.63Q68.50 111.38 67.75 111.38L67.75 111.38Q65.63 111.38 64.06 112.44Q62.50 113.50 62.50 115.88L62.50 115.88Q62.50 116.50 62.75 117Q63 117.50 63.25 117.88L63.25 117.88Q62.75 118.13 62.44 118.50Q62.13 118.88 62.13 119.38L62.13 119.38Q62.13 119.63 62.25 119.88Q62.38 120.13 62.50 120.38L62.50 120.38Q61.63 120.88 61.13 121.75Q60.63 122.63 60.63 123.63L60.63 123.63Q60.63 125.63 62.25 126.25Q63.88 126.88 65.50 126.88L65.50 126.88Q67.50 126.88 69.44 126.13Q71.38 125.38 71.38 122.88L71.38 122.88Q71.38 122 70.75 121.31Q70.13 120.63 68.50 120.38L68.50 120.38L64.75 119.63Q64.38 119.63 64.31 119.50Q64.25 119.38 64.25 119.25L64.25 119.25Q64.25 119 64.38 118.88Q64.50 118.75 64.63 118.75L64.63 118.75L64.88 118.88Q65.25 118.88 65.69 118.94Q66.13 119 66.63 119L66.63 119Q68.63 119 70.19 118.06Q71.75 117.13 71.75 114.75L71.75 114.75Q71.75 114.50 71.69 114.25Q71.63 114 71.50 113.63L71.50 113.63Q71.75 113.75 72 113.88Q72.25 114 72.50 114L72.50 114L73.13 114ZM67.75 122.13L67.75 122.13Q68.25 122.25 68.50 122.44Q68.75 122.63 68.75 123L68.75 123Q68.75 124.25 67.75 124.50Q66.75 124.75 65.75 124.75L65.75 124.75Q64.38 124.75 63.75 124.44Q63.13 124.13 63.13 123.38L63.13 123.38Q63.13 122.63 63.38 122.25Q63.63 121.88 64 121.38L64 121.38L67.75 122.13ZM66.88 117L66.88 117Q66 117 65.56 116.69Q65.13 116.38 65.13 115.63L65.13 115.63Q65.13 114.50 65.75 113.88Q66.38 113.25 67.50 113.25L67.50 113.25Q68.38 113.25 68.81 113.63Q69.25 114 69.25 114.75L69.25 114.75Q69.25 115.88 68.63 116.44Q68 117 66.88 117L66.88 117ZM80.13 111.25L80.13 111.25Q79.25 111.25 78.44 111.63Q77.63 112 76.75 112.75L76.75 112.75L76.63 112L74.50 112L72.88 123L75.50 123L76.63 114.63Q77.25 114.25 77.94 113.88Q78.63 113.50 79.13 113.50L79.13 113.50Q79.88 113.50 80.19 113.88Q80.50 114.25 80.50 114.88L80.50 114.88Q80.50 115 80.50 115.38Q80.50 115.75 80.50 116L80.50 116L79.50 123L82.13 123L83.13 115.88Q83.13 115.63 83.13 115.31Q83.13 115 83.13 114.75L83.13 114.75Q83.13 113.38 82.44 112.31Q81.75 111.25 80.13 111.25L80.13 111.25ZM88.13 120.25L88.13 120.25L88.13 120L89.25 112L84.88 112L84.63 114L86.50 114Q86.38 114 86.31 114.13Q86.25 114.25 86.25 114.38L86.25 114.38L85.50 119.63Q85.50 119.88 85.44 120.19Q85.38 120.50 85.38 120.63L85.38 120.63Q85.38 121.63 85.94 122.31Q86.50 123 87.75 123L87.75 123L89 123L89.38 121L88.50 121Q88.25 121 88.19 120.69Q88.13 120.38 88.13 120.25ZM89.75 108L89.75 108L87.25 108Q87.13 108 87.13 107.75Q87.13 107.50 87 107.63L87 107.63L86.75 110.38Q86.63 110.63 86.69 110.81Q86.75 111 86.88 111L86.88 111L89.38 111Q89.50 111 89.50 110.63Q89.50 110.25 89.63 110.13L89.63 110.13L89.88 108Q89.88 107.88 89.88 107.94Q89.88 108 89.75 108ZM95.13 120.25L95.13 120.25Q94.63 120.25 94.38 120.06Q94.13 119.88 94.13 119.50L94.13 119.50L94.13 119.38L95 114L98 114L98.88 112L95.25 112L95.88 107.63L93.13 108.50L92.63 112L91 112L90.75 114L92.63 114Q92.50 114.75 92.38 114.56Q92.25 114.38 92.25 114.50L92.25 114.50L91.50 119.25Q91.50 119.50 91.50 119.63Q91.50 119.75 91.50 119.88L91.50 119.88Q91.50 121.25 92.38 121.81Q93.25 122.38 94.50 122.38L94.50 122.38Q95.63 122.38 96.56 122.06Q97.50 121.75 98.25 121.13L98.25 121.13L97 119.63Q96.50 120 96.13 120.13Q95.75 120.25 95.13 120.25L95.13 120.25ZM104.63 111.25L104.63 111.25Q102 111.25 100.63 112.56Q99.25 113.88 98.88 116.75L98.88 116.75Q98.75 117.13 98.75 117.50Q98.75 117.88 98.75 118.13L98.75 118.13Q98.75 120.13 99.81 121.25Q100.88 122.38 103 122.38L103 122.38Q104.75 122.38 106.06 121.69Q107.38 121 108 119.63L108 119.63L106 118.88Q105.63 119.50 105 119.88Q104.38 120.25 103.38 120.25L103.38 120.25Q102.25 120.25 101.75 119.94Q101.25 119.63 101.25 118.63L101.25 118.63Q101.25 118.38 101.31 118.19Q101.38 118 101.38 118L101.38 118L108.50 118Q108.50 117.25 108.56 116.69Q108.63 116.13 108.63 115.75L108.63 115.75Q108.63 114.25 107.88 112.75Q107.13 111.25 104.63 111.25L104.63 111.25ZM106 116L106 116L101.75 116Q102 115.25 102.63 114.38Q103.25 113.50 104.38 113.50L104.38 113.50Q105.25 113.50 105.69 113.94Q106.13 114.38 106.13 115.25L106.13 115.25Q106.13 115.38 106.06 115.69Q106 116 106 116L106 116ZM115.88 111.25L115.88 111.25Q115.13 111.25 114.50 111.63Q113.88 112 113.13 112.63L113.13 112.63L113 112L110.88 112L109.38 123L112 123L113.13 114.50Q113.63 114.13 114.19 113.94Q114.75 113.75 115.38 113.75L115.38 113.75Q115.75 113.75 116.06 113.69Q116.38 113.63 116.75 113.75L116.75 113.75L117 111.38Q116.75 111.38 116.44 111.31Q116.13 111.25 115.88 111.25ZM49.25 100.13L49.25 100.13Q44.88 98.25 41.38 93.81Q37.88 89.38 37.75 84.38L37.75 84.38Q37.75 78.88 40.81 74.38Q43.88 69.88 48.13 66.88L48.13 66.88Q47.63 68.88 47.56 70.63Q47.50 72.38 48.75 74.13L48.75 74.13Q50 75.75 51.88 76.50Q53.75 77.25 55.75 76.88L55.75 76.88Q60.38 75.88 60.81 71.81Q61.25 67.75 58.50 64.88L58.50 64.88Q55.88 61.88 53.88 58.50Q51.88 55.13 52.88 50.88L52.88 50.88Q53.38 48.75 54.63 46.88Q55.88 45 57.50 43.50L57.50 43.50Q56.25 46.88 58.81 49.88Q61.38 52.88 63.75 54.50L63.75 54.50Q67.88 57.38 72.19 59.81Q76.50 62.25 80.25 65.63L80.25 65.63Q84.25 69.13 86.81 73.75Q89.38 78.38 88.75 83.88L88.75 83.88Q88.13 89.88 84 93.94Q79.88 98 74.50 100.13L74.50 100.13Q80.13 98.88 85.63 96.13L85.63 96.13Q91 93.38 95.31 89.38Q99.63 85.38 102.38 80.13L102.38 80.13Q105.13 74.88 105.25 68.63L105.25 68.63Q105.38 58.50 99.31 50.81Q93.25 43.13 84.50 38.63L84.50 38.63L83.88 38.25Q84.13 38.88 84.25 39.38Q84.38 39.88 84.38 40.25L84.38 40.25Q84.38 39.88 84.44 39.56Q84.50 39.25 84.50 38.88L84.50 38.88Q84.50 39.38 84.44 39.75Q84.38 40.13 84.38 40.50L84.38 40.50L84.38 40.25Q84.25 40.75 84 41.31Q83.75 41.88 83.50 42.25L83.50 42.25L83.63 42.13Q81.88 45 78.13 45.38Q74.38 45.75 72 42.75L72 42.75Q68.25 38 70.25 32.94Q72.25 27.88 72.75 22.75L72.75 22.75Q73.50 16.50 70.13 10.69Q66.75 4.88 61.75 1.13L61.75 1.13Q64.50 5.63 62.13 10.75Q59.75 15.88 56.88 19.13L56.88 19.13Q54 22.25 50.81 25.06Q47.63 27.88 44.50 30.75L44.50 30.75Q41.25 33.75 38.13 37.06Q35 40.38 32.25 44L32.25 44Q26.88 51.13 24.19 59.94Q21.50 68.75 23.88 77.75L23.88 77.75Q26.38 86.75 33.44 92.44Q40.50 98.13 49.25 100.13L49.25 100.13Z"/></svg>