<svg xmlns="http://www.w3.org/2000/svg" xmlns:xlink="http://www.w3.org/1999/xlink" width="128" height="128"><path fill="#000000" d="M50.25 38.50L50.25 38.50L42.88 38.50L42.88 59.25L50.25 59.25Q54 59.25 56.69 56.56Q59.38 53.88 59.38 50.13L59.38 50.13L59.38 47.75Q59.38 43.88 56.69 41.19Q54 38.50 50.25 38.50ZM128 0L0 0L0 128L128 128L128 0ZM51.25 67.50L51.25 67.50L51.25 67.50L42.88 67.50L42.88 88.75L33.25 88.75L33.25 30.25L51.75 30.25Q58.88 30.25 63.88 35.13Q68.88 40 69 47.13L69 47.13L69 49.38Q69 56.88 63.75 62.13Q58.50 67.38 51.25 67.50ZM97.25 53.25L97.25 53.25Q97.25 53.25 93.38 53.44Q89.50 53.63 87.25 54.63L87.25 54.63L87.25 88.75L77.13 88.75L77.13 48.88Q77.13 48.88 83.44 46.50Q89.75 44.13 97.25 45.13L97.25 45.13L97.25 53.25Z"/></svg>