<svg xmlns="http://www.w3.org/2000/svg" xmlns:xlink="http://www.w3.org/1999/xlink" width="128" height="128"><path fill="#ffffff" d="M7.25 51.75L7.25 51.75L4 54.38Q3.75 52.88 3.94 51.56Q4.13 50.25 4.50 49L4.50 49Q5.25 46.50 6.56 44.25Q7.88 42 9.50 39.88L9.50 39.88Q10 39 10.38 38.19Q10.75 37.38 10.75 36.38L10.75 36.38Q10.63 32.63 11.13 29Q11.63 25.38 12.88 21.88L12.88 21.88Q13.50 20.13 14.44 18.50Q15.38 16.88 16.88 15.38L16.88 15.38Q17.38 18.25 18.13 20.94Q18.88 23.63 20.38 25.63L20.38 25.63Q21.50 24.63 22.63 23.69Q23.75 22.75 24.88 21.75L24.88 21.75Q31.38 15.63 39 11.88Q46.63 8.13 55.38 6.88L55.38 6.88Q60.88 6.13 66.13 6.25L66.13 6.25Q71.50 6.50 76.56 7.69Q81.63 8.88 86.50 11L86.50 11Q91.25 13.13 95.88 16.25L95.88 16.25Q96.75 16.88 97.75 17.31Q98.75 17.75 99.63 18.25L99.63 18.25Q104 20.38 107.31 23.69Q110.63 27 112.63 31.38L112.63 31.38Q113 32.13 113.25 32.88Q113.50 33.63 113.88 34.38L113.88 34.38L114.25 34.38L112.63 24.88Q117.38 31.50 119.25 38.88Q121.13 46.25 121.50 54L121.50 54Q122.38 52.75 122.63 51.38Q122.88 50 123.38 48.50L123.38 48.50Q123.50 49.63 123.69 50.63Q123.88 51.63 124 52.63L124 52.63Q124.38 56.63 123.81 60.56Q123.25 64.50 122.50 68.50L122.50 68.50Q120.75 77.75 116.75 86Q112.75 94.25 106.75 101.38L106.75 101.38Q103.25 105.50 99.38 108.88L99.38 108.88Q95.50 112.25 91.13 114.75Q86.75 117.25 81.88 119L81.88 119Q77 120.63 71.63 121.25L71.63 121.25Q63.75 122.13 56.50 121.38L56.50 121.38Q49.38 120.63 42.75 118.13Q36.13 115.63 30.25 111.50L30.25 111.50Q24.25 107.38 18.88 101.50L18.88 101.50Q13.88 95.88 10.50 89.38Q7.13 82.88 5.63 75.50L5.63 75.50Q4.50 69.88 4.81 64.31Q5.13 58.75 7 53.25L7 53.25L7.38 52.13Q7.38 52.13 7.31 52.06Q7.25 52 7.25 51.75L7.25 51.75ZM101.88 41.88L101.88 41.88L102.25 41.50L106.75 44.88Q106.75 44.13 106.75 43.31Q106.75 42.50 106.63 41.75L106.63 41.75Q106 38.25 104.06 35.63Q102.13 33 99.50 30.88L99.50 30.88Q96.25 28.13 92.50 26.19Q88.75 24.25 84.88 22.63L84.88 22.63Q84.50 22.50 84.13 22.31Q83.75 22.13 83.38 22L83.38 22L83.50 21.38L90.75 21Q88.75 17.63 85.50 16.31Q82.25 15 78.75 14L78.75 14L79.25 13.63Q72.13 11.50 65 11.31Q57.88 11.13 50.75 12.88L50.75 12.88Q44.13 14.63 36.06 19.50Q28 24.38 26.50 27.63L26.50 27.63L27.13 27.50Q29.63 26.88 32.13 26.75Q34.63 26.63 37.13 27.38L37.13 27.38Q37.50 27.50 37.88 27.38Q38.25 27.25 38.50 27L38.50 27Q40.88 24.88 43.50 23.25Q46.13 21.63 49.25 20.75L49.25 20.75Q50.13 20.38 51.13 20.19Q52.13 20 53.13 19.75L53.13 19.75Q53 20 52.88 20.19Q52.75 20.38 52.63 20.50L52.63 20.50Q49.38 22.63 47.38 25.56Q45.38 28.50 44.75 32.38L44.75 32.38Q44.75 32.63 44.75 32.88Q44.75 33.13 44.88 33.25L44.88 33.25Q46.38 34.50 47.75 35.81Q49.13 37.13 50.63 38.38L50.63 38.38Q51.13 38.88 51.81 39.13Q52.50 39.38 53.13 39.50L53.13 39.50Q54.38 39.75 55.69 39.81Q57 39.88 58.25 40L58.25 40Q59.13 40 59.56 40.50Q60 41 59.63 41.63L59.63 41.63Q59.25 42.63 58.69 43.50Q58.13 44.38 57.25 45L57.25 45Q55.38 46.25 53.63 47.63Q51.88 49 50.13 50.25L50.13 50.25Q49.63 50.63 49.63 50.94Q49.63 51.25 49.75 51.75L49.75 51.75Q50.25 52.75 50.63 53.63Q51 54.50 51.25 55.50L51.25 55.50Q51.63 56.75 51.69 58Q51.75 59.25 51.50 60.50L51.50 60.50Q50.50 60.25 49.56 60.06Q48.63 59.88 47.63 59.63L47.63 59.63Q46.75 59.50 45.81 59.38Q44.88 59.25 44 59L44 59Q42.75 58.75 41.81 59.19Q40.88 59.63 40.25 60.50L40.25 60.50Q39.63 61.63 39.63 62.75Q39.63 63.88 40.38 64.75L40.38 64.75Q41.88 66.75 43.56 68.44Q45.25 70.13 47.25 71.50L47.25 71.50Q49 72.63 50.88 73.19Q52.75 73.75 54.63 73.38L54.63 73.38Q56.13 73 57.44 72.44Q58.75 71.88 60 71.25L60 71.25Q63.88 69.25 67.81 69.88Q71.75 70.50 74.50 73.63L74.50 73.63Q74.88 74.25 75.13 74.88Q75.38 75.50 74.88 76.13L74.88 76.13Q74.50 76.75 73.88 76.94Q73.25 77.13 72.50 77L72.50 77Q71.75 76.75 71.06 76.88Q70.38 77 69.63 77.50L69.63 77.50Q67.75 78.75 65.94 80Q64.13 81.25 62.13 82.25L62.13 82.25Q59 83.88 55.56 84.50Q52.13 85.13 48.63 85L48.63 85Q48.25 85 47.88 85Q47.50 85 47 85L47 85Q47.13 85.25 47.25 85.38Q47.38 85.50 47.38 85.50L47.38 85.50Q50 88 52.94 89.88Q55.88 91.75 59.25 92.88L59.25 92.88Q63 94.13 66.81 94.50Q70.63 94.88 74.50 93.75L74.50 93.75Q78.88 92.63 82.38 90.06Q85.88 87.50 88.75 84.25L88.75 84.25Q90 82.88 91.06 81.44Q92.13 80 93.25 78.63L93.25 78.63L93.63 78.75L92.38 87.75Q97.63 81.13 98.56 73.75Q99.50 66.38 98.75 58.38L98.75 58.38Q100.25 60.13 100.94 62.13Q101.63 64.13 102.50 66.13L102.50 66.13Q104.38 59.88 103.81 53.81Q103.25 47.75 101.88 41.88L101.88 41.88Z"/></svg>