<svg xmlns="http://www.w3.org/2000/svg" xmlns:xlink="http://www.w3.org/1999/xlink" width="128" height="128"><path fill="#000000" d="M14.75 41.38L14.75 41.38L12 43.50Q11.63 42.25 11.81 41.13Q12 40 12.38 39L12.38 39Q13 36.75 14.19 34.81Q15.38 32.88 16.63 31L16.63 31Q17.13 30.25 17.44 29.56Q17.75 28.88 17.75 28L17.75 28Q17.75 24.75 18.13 21.63Q18.50 18.50 19.63 15.50L19.63 15.50Q20.13 13.88 20.94 12.44Q21.75 11 23.13 9.75L23.13 9.75Q23.63 12.25 24.25 14.56Q24.88 16.88 26.25 18.75L26.25 18.75Q27.13 17.88 28.13 17Q29.13 16.13 30 15.25L30 15.25Q35.63 10 42.25 6.75Q48.88 3.50 56.50 2.38L56.50 2.38Q66.13 1 74.88 3.06Q83.63 5.13 91.63 10.63L91.63 10.63Q92.38 11.13 93.25 11.50Q94.13 11.88 95 12.25L95 12.25Q98.75 14.13 101.56 16.94Q104.38 19.75 106.25 23.63L106.25 23.63Q106.50 24.25 106.75 24.94Q107 25.63 107.25 26.25L107.25 26.25L107.63 26.25Q107.25 24.25 106.94 22.25Q106.63 20.25 106.25 18L106.25 18Q110.38 23.75 112 30.13Q113.63 36.50 113.88 43.38L113.88 43.38Q114.75 42.25 114.94 41Q115.13 39.75 115.50 38.50L115.50 38.50Q115.63 39.38 115.81 40.31Q116 41.25 116 42.13L116 42.13Q116.38 45.63 115.88 49Q115.38 52.38 114.75 55.88L114.75 55.88Q113.25 63.88 109.81 71.06Q106.38 78.25 101.13 84.38L101.13 84.38Q95.13 91.50 87.56 96Q80 100.50 70.63 101.63L70.63 101.63Q63.75 102.50 57.50 101.75L57.50 101.75Q51.25 101.13 45.56 98.94Q39.88 96.75 34.63 93.13L34.63 93.13Q29.50 89.50 24.88 84.50L24.88 84.50Q20.50 79.63 17.56 74Q14.63 68.38 13.38 61.88L13.38 61.88Q12.38 57 12.63 52.19Q12.88 47.38 14.50 42.63L14.50 42.63L14.88 41.63L14.75 41.38ZM96.88 32.75L96.88 32.75L97.25 32.38L101.13 35.38Q101.13 34.75 101.06 34.06Q101 33.38 101 32.63L101 32.63Q100.38 29.63 98.69 27.38Q97 25.13 94.75 23.25L94.75 23.25Q92 20.88 88.75 19.19Q85.50 17.50 82.13 16L82.13 16Q81.88 15.88 81.50 15.75Q81.13 15.63 80.88 15.50L80.88 15.50L80.88 15L87.25 14.63Q85.50 11.75 82.69 10.56Q79.88 9.38 76.75 8.63L76.75 8.63L77.25 8.25Q71 6.38 64.88 6.19Q58.75 6 52.50 7.63L52.50 7.63Q46.75 9.13 39.75 13.31Q32.75 17.50 31.50 20.38L31.50 20.38L32 20.25Q34.13 19.75 36.31 19.69Q38.50 19.63 40.75 20.25L40.75 20.25Q41 20.25 41.31 20.13Q41.63 20 41.88 19.88L41.88 19.88Q43.88 18 46.19 16.63Q48.50 15.25 51.13 14.38L51.13 14.38Q52 14.13 52.88 13.94Q53.75 13.75 54.50 13.50L54.50 13.50Q54.50 13.88 54.38 14Q54.25 14.13 54.13 14.25L54.13 14.25Q51.38 16.13 49.56 18.63Q47.75 21.13 47.25 24.50L47.25 24.50Q47.25 24.63 47.31 24.88Q47.38 25.13 47.38 25.25L47.38 25.25Q48.63 26.38 49.88 27.56Q51.13 28.75 52.38 29.75L52.38 29.75Q52.88 30.13 53.44 30.38Q54 30.63 54.63 30.75L54.63 30.75Q55.63 30.88 56.75 30.94Q57.88 31 59 31.13L59 31.13Q59.75 31.13 60.13 31.56Q60.50 32 60.25 32.50L60.25 32.50Q59.88 33.38 59.44 34.13Q59 34.88 58.13 35.50L58.13 35.50Q56.50 36.50 55 37.69Q53.50 38.88 52 40L52 40Q51.50 40.38 51.50 40.63Q51.50 40.88 51.63 41.38L51.63 41.38Q52 42.13 52.38 42.94Q52.75 43.75 53 44.63L53 44.63Q53.25 45.63 53.31 46.75Q53.38 47.88 53.13 48.88L53.13 48.88Q52.25 48.75 51.44 48.56Q50.63 48.38 49.88 48.25L49.88 48.25Q49 48 48.19 47.88Q47.38 47.75 46.63 47.63L46.63 47.63Q45.63 47.50 44.75 47.81Q43.88 48.13 43.38 49L43.38 49Q42.75 49.88 42.81 50.88Q42.88 51.88 43.50 52.63L43.50 52.63Q44.75 54.38 46.25 55.81Q47.75 57.25 49.50 58.50L49.50 58.50Q51 59.50 52.56 59.94Q54.13 60.38 55.88 60L55.88 60Q57.13 59.75 58.31 59.31Q59.50 58.88 60.63 58.25L60.63 58.25Q63.88 56.50 67.31 57.06Q70.75 57.63 73.13 60.38L73.13 60.38Q73.50 60.88 73.69 61.38Q73.88 61.88 73.50 62.50L73.50 62.50Q73.13 63 72.63 63.19Q72.13 63.38 71.38 63.25L71.38 63.25Q70.75 63 70.13 63.13Q69.50 63.25 68.88 63.63L68.88 63.63Q67.25 64.75 65.69 65.81Q64.13 66.88 62.38 67.75L62.38 67.75Q59.63 69.25 56.69 69.75Q53.75 70.25 50.63 70.13L50.63 70.13Q50.25 70.13 49.94 70.13Q49.63 70.13 49.25 70.13L49.25 70.13L49.63 70.63Q51.88 72.75 54.44 74.38Q57 76 59.88 77L59.88 77Q63.13 78.13 66.44 78.44Q69.75 78.75 73.13 77.75L73.13 77.75Q76.88 76.75 79.94 74.56Q83 72.38 85.50 69.50L85.50 69.50Q86.50 68.38 87.44 67.13Q88.38 65.88 89.38 64.63L89.38 64.63L89.75 64.75L88.63 72.50Q93.25 66.88 94 60.44Q94.75 54 94.13 47.13L94.13 47.13Q95.50 48.63 96.06 50.31Q96.63 52 97.50 53.75L97.50 53.75Q99 48.38 98.56 43.13Q98.13 37.88 96.88 32.75L96.88 32.75ZM26.88 109.13L26.88 109.13L26.88 114.13L32.25 114.13L32.25 117.25L26.88 117.25L26.88 124.50L22.50 124.50L22.50 106L33.50 106L33.13 109.13L26.88 109.13ZM40.13 103.63L40.13 103.63Q40.50 103.88 40.63 104.31Q40.75 104.75 40.75 105.25L40.75 105.25Q40.75 105.88 40.63 106.31Q40.50 106.75 40.13 107L40.13 107Q39.75 107.38 39.31 107.56Q38.88 107.75 38.25 107.75L38.25 107.75Q37.75 107.75 37.31 107.56Q36.88 107.38 36.50 107L36.50 107Q36.13 106.75 36 106.31Q35.88 105.88 35.88 105.25L35.88 105.25Q35.88 104.75 36 104.31Q36.13 103.88 36.50 103.63L36.50 103.63Q36.88 103.25 37.31 103.06Q37.75 102.88 38.25 102.88L38.25 102.88Q38.88 102.88 39.31 103.06Q39.75 103.25 40.13 103.63ZM40.38 124.50L36.25 124.50L36.25 110.38L40.38 110.38L40.38 124.50ZM52.88 110.13L52.88 110.13L52.13 114.25Q51.75 114.13 51.44 114.06Q51.13 114 50.88 114L50.88 114Q50.25 114 49.75 114.25Q49.25 114.50 49 114.88L49 114.88Q48.63 115.38 48.38 116Q48.13 116.63 48 117.50L48 117.50L48 124.50L43.75 124.50L43.75 110.38L47.38 110.38L47.75 113.13Q48 112.38 48.38 111.81Q48.75 111.25 49.25 110.88L49.25 110.88Q49.75 110.38 50.25 110.19Q50.75 110 51.38 110L51.38 110Q51.75 110 52.13 110.06Q52.50 110.13 52.88 110.13L52.88 110.13ZM66.50 118.75L66.50 118.75L57.63 118.75Q57.75 119.63 58 120.25Q58.25 120.88 58.63 121.25L58.63 121.25Q59.13 121.63 59.63 121.75Q60.13 121.88 60.88 121.88L60.88 121.88Q61.38 121.88 61.75 121.81Q62.13 121.75 62.50 121.63L62.50 121.63Q63 121.50 63.44 121.25Q63.88 121 64.25 120.63L64.25 120.63L66 123Q64.75 124 63.38 124.50Q62 125 60.50 125L60.50 125Q58.75 125 57.44 124.50Q56.13 124 55.25 123L55.25 123Q54.25 122 53.81 120.63Q53.38 119.25 53.38 117.50L53.38 117.50Q53.38 116.50 53.56 115.50Q53.75 114.50 54.13 113.63L54.13 113.63Q54.50 112.75 55.06 112.06Q55.63 111.38 56.38 110.88L56.38 110.88Q57.13 110.38 58.06 110.13Q59 109.88 60 109.88L60 109.88Q61.50 109.88 62.69 110.38Q63.88 110.88 64.75 111.88L64.75 111.88Q65.63 112.75 66.06 114.13Q66.50 115.50 66.50 117.13L66.50 117.13Q66.50 117.63 66.50 118Q66.50 118.38 66.50 118.75L66.50 118.75ZM62.38 116L62.38 116Q62.38 114.38 61.81 113.56Q61.25 112.75 60.13 112.75L60.13 112.75Q59.50 112.75 59.13 112.94Q58.75 113.13 58.38 113.50L58.38 113.50Q58.13 113.88 57.94 114.56Q57.75 115.25 57.63 116.13L57.63 116.13L62.38 116.13L62.38 116ZM74.13 107.88L74.13 107.88Q73.88 108 73.81 108.38Q73.75 108.75 73.75 109.25L73.75 109.25L73.75 110.38L77 110.38L76.63 113.38L73.75 113.38L73.75 124.50L69.50 124.50L69.50 113.38L67.38 113.38L67.38 110.38L69.50 110.38L69.50 109.13Q69.50 108 69.88 107.19Q70.25 106.38 70.88 105.63L70.88 105.63Q71.63 105 72.63 104.63Q73.63 104.25 74.88 104.25L74.88 104.25Q76 104.25 76.94 104.50Q77.88 104.75 78.75 105.25L78.75 105.25L77.63 108Q77.13 107.63 76.56 107.50Q76 107.38 75.38 107.38L75.38 107.38Q75 107.38 74.69 107.50Q74.38 107.63 74.13 107.88L74.13 107.88ZM89.38 111.88L89.38 111.88Q90.38 112.88 90.81 114.31Q91.25 115.75 91.25 117.50L91.25 117.50Q91.25 118.63 91.06 119.63Q90.88 120.63 90.38 121.50L90.38 121.50Q90 122.25 89.38 122.94Q88.75 123.63 88 124.13L88 124.13Q87.25 124.50 86.31 124.75Q85.38 125 84.38 125L84.38 125Q82.75 125 81.44 124.50Q80.13 124 79.25 123L79.25 123Q78.25 122 77.81 120.63Q77.38 119.25 77.38 117.50L77.38 117.50Q77.38 116.38 77.56 115.38Q77.75 114.38 78.25 113.50L78.25 113.50Q78.63 112.63 79.25 112Q79.88 111.38 80.63 110.88L80.63 110.88Q81.38 110.38 82.31 110.13Q83.25 109.88 84.38 109.88L84.38 109.88Q86 109.88 87.25 110.38Q88.50 110.88 89.38 111.88L89.38 111.88ZM82.38 114.13L82.38 114.13Q82.13 114.63 81.94 115.50Q81.75 116.38 81.75 117.50L81.75 117.50Q81.75 118.63 81.94 119.44Q82.13 120.25 82.38 120.88L82.38 120.88Q82.75 121.38 83.19 121.63Q83.63 121.88 84.38 121.88L84.38 121.88Q85 121.88 85.44 121.63Q85.88 121.38 86.25 120.88L86.25 120.88Q86.50 120.25 86.69 119.44Q86.88 118.63 86.88 117.50L86.88 117.50Q86.88 116.38 86.75 115.50Q86.63 114.63 86.25 114.13L86.25 114.13Q85.88 113.50 85.44 113.25Q85 113 84.38 113L84.38 113Q83.63 113 83.19 113.25Q82.75 113.50 82.38 114.13L82.38 114.13ZM105.50 124.50L100.75 124.50L98.25 119.25L95.88 124.50L91.25 124.50L95.88 117.13L91.75 110.38L96.50 110.38L98.38 114.88L100.38 110.38L104.75 110.38L101 117L105.50 124.50Z"/></svg>