<svg xmlns="http://www.w3.org/2000/svg" xmlns:xlink="http://www.w3.org/1999/xlink" width="128" height="128"><path fill="#000000" d="M96 118.63L96 118.63Q95.88 119 95.56 119.19Q95.25 119.38 94.75 119.38L94.75 119.38L80.25 119.38Q79.63 119.38 79.06 119.06Q78.50 118.75 78 118.13L78 118.13L54.13 87.75L47.50 94.13L47.50 117.75Q47.50 118.50 47.06 118.94Q46.63 119.38 45.88 119.38L45.88 119.38L34.63 119.38Q33.75 119.38 33.38 118.94Q33 118.50 33 117.75L33 117.75L33 10.38Q33 9.50 33.38 9.13Q33.75 8.75 34.63 8.75L34.63 8.75L45.88 8.75Q46.63 8.75 47.06 9.13Q47.50 9.50 47.50 10.38L47.50 10.38L47.50 76.50L76 47.50Q76.63 47 77.19 46.69Q77.75 46.38 78.25 46.38L78.25 46.38L93.25 46.38Q93.75 46.38 94.06 46.56Q94.38 46.75 94.50 47.25L94.50 47.25Q94.75 47.75 94.69 48.06Q94.63 48.38 94.38 48.63L94.38 48.63L64.13 77.88L95.63 117Q96 117.38 96.06 117.75Q96.13 118.13 96 118.63L96 118.63Z"/></svg>