<svg xmlns="http://www.w3.org/2000/svg" xmlns:xlink="http://www.w3.org/1999/xlink" width="128" height="128"><path fill="#000000" d="M23.88 74.75L23.88 74.75Q23.75 74.88 23.69 74.94Q23.63 75 23.38 75L23.38 75L18.75 75Q18.63 75 18.44 74.88Q18.25 74.75 18.13 74.63L18.13 74.63L10.50 65L8.38 67L8.38 74.50Q8.38 74.75 8.25 74.88Q8.13 75 7.88 75L7.88 75L4.25 75Q4 75 3.88 74.88Q3.75 74.75 3.75 74.50L3.75 74.50L3.75 40.38Q3.75 40 3.88 39.88Q4 39.75 4.25 39.75L4.25 39.75L7.88 39.75Q8.13 39.75 8.25 39.88Q8.38 40 8.38 40.38L8.38 40.38L8.38 61.38L17.50 52.13Q17.63 52 17.81 51.88Q18 51.75 18.13 51.75L18.13 51.75L23 51.75Q23.13 51.75 23.19 51.81Q23.25 51.88 23.38 52L23.38 52Q23.38 52.25 23.38 52.31Q23.38 52.38 23.25 52.50L23.25 52.50L13.75 61.75L23.75 74.25Q23.88 74.38 23.88 74.50Q23.88 74.63 23.88 74.75L23.88 74.75ZM42.50 75L42.50 75L38.88 75Q38.63 75 38.44 74.88Q38.25 74.75 38.25 74.50L38.25 74.50L38.25 73.75Q37.13 74.63 35.69 75Q34.25 75.38 32.50 75.38L32.50 75.38Q30.88 75.38 29.44 74.88Q28 74.38 26.88 73.38L26.88 73.38Q25.63 72.38 25.06 71.06Q24.50 69.75 24.50 68.13L24.50 68.13Q24.50 65.63 26.06 63.94Q27.63 62.25 30.88 61.25L30.88 61.25Q32 60.88 33.88 60.56Q35.75 60.25 38.25 60L38.25 60Q38.38 59.13 38.13 58.31Q37.88 57.50 37.25 56.75L37.25 56.75Q36.75 56.13 35.88 55.81Q35 55.50 33.88 55.50L33.88 55.50Q32.50 55.50 31 56Q29.50 56.50 28 57.50L28 57.50Q27.75 57.63 27.63 57.63Q27.50 57.63 27.38 57.38L27.38 57.38L25.50 54.75Q25.38 54.63 25.44 54.44Q25.50 54.25 25.63 54L25.63 54Q27.63 52.63 29.69 52Q31.75 51.38 33.88 51.38L33.88 51.38Q35.63 51.38 37 51.75Q38.38 52.13 39.50 52.88L39.50 52.88Q41.25 54 42.13 55.81Q43 57.63 43 60.13L43 60.13L43 74.50Q43 74.75 42.88 74.88Q42.75 75 42.50 75L42.50 75ZM38.25 69.38L38.25 64.13Q35.75 64.50 34.06 64.81Q32.38 65.13 31.38 65.50L31.38 65.50Q30.13 66.13 29.56 66.88Q29 67.63 29.13 68.63L29.13 68.63Q29.25 69.25 29.50 69.69Q29.75 70.13 30.25 70.50L30.25 70.50Q30.75 70.88 31.31 71.06Q31.88 71.25 32.50 71.25L32.50 71.25Q34.38 71.38 35.81 70.88Q37.25 70.38 38.25 69.38L38.25 69.38ZM64.13 84L64.13 84Q62.63 85.38 60.63 86.13Q58.63 86.88 56.13 86.88L56.13 86.88Q54.63 86.88 53.19 86.50Q51.75 86.13 50.38 85.38L50.38 85.38Q50.13 85.13 49.81 84.94Q49.50 84.75 49 84.38L49 84.38Q48.50 84 48.06 83.63Q47.63 83.25 47.25 82.88L47.25 82.88L47.25 82.88Q47.13 82.75 47.06 82.56Q47 82.38 47.25 82.13L47.25 82.13L49.63 79.75Q49.75 79.63 49.81 79.63Q49.88 79.63 50 79.63L50 79.63Q50 79.63 50 79.63Q50 79.63 50 79.63L50 79.63L50 79.63Q50.13 79.63 50.25 79.63Q50.38 79.63 50.38 79.75L50.38 79.75L50.38 79.75Q51.88 81.13 53.25 81.88Q54.63 82.63 56 82.63L56 82.63Q59.13 82.63 60.69 81Q62.25 79.38 62.25 76.13L62.25 76.13L62.25 73.38Q61.13 74.38 59.50 74.94Q57.88 75.50 55.88 75.50L55.88 75.50Q53.38 75.50 51.38 74.50Q49.38 73.50 48 71.63L48 71.63Q46.75 70 46.13 67.94Q45.50 65.88 45.50 63.38L45.50 63.38Q45.50 61 46.06 59Q46.63 57 47.88 55.25L47.88 55.25Q49.25 53.25 51.25 52.31Q53.25 51.38 55.75 51.38L55.75 51.38Q57.75 51.38 59.38 51.88Q61 52.38 62.25 53.38L62.25 53.38L62.25 52.25Q62.25 52 62.38 51.88Q62.50 51.75 62.75 51.75L62.75 51.75L66.38 51.75Q66.63 51.75 66.75 51.88Q66.88 52 66.88 52.25L66.88 52.25L66.88 75.38Q66.88 78.25 66.19 80.38Q65.50 82.50 64.13 84L64.13 84ZM62.25 67.63L62.25 59.13Q61.63 57.50 60.13 56.69Q58.63 55.88 56.25 55.88L56.25 55.88Q53.25 55.88 51.75 57.75Q50.25 59.63 50.25 63.38L50.25 63.38Q50.25 65.50 50.75 67Q51.25 68.50 52.25 69.50L52.25 69.50Q53 70.25 54 70.63Q55 71 56.13 71L56.13 71Q58.63 71 60.13 70.13Q61.63 69.25 62.25 67.63L62.25 67.63ZM88.38 84L88.38 84Q87 85.38 85 86.13Q83 86.88 80.38 86.88L80.38 86.88Q78.88 86.88 77.44 86.50Q76 86.13 74.75 85.38L74.75 85.38Q74.38 85.13 74.06 84.94Q73.75 84.75 73.38 84.38L73.38 84.38Q72.88 84 72.38 83.63Q71.88 83.25 71.50 82.88L71.50 82.88L71.50 83Q71.38 82.75 71.38 82.56Q71.38 82.38 71.50 82.13L71.50 82.13L73.88 79.75Q74 79.63 74.13 79.63Q74.25 79.63 74.25 79.63L74.25 79.63Q74.38 79.63 74.38 79.63Q74.38 79.63 74.38 79.63L74.38 79.63L74.38 79.63Q74.50 79.63 74.56 79.63Q74.63 79.63 74.75 79.75L74.75 79.75L74.75 79.75Q76.13 81.13 77.56 81.88Q79 82.63 80.38 82.63L80.38 82.63Q83.50 82.63 85.06 81Q86.63 79.38 86.63 76.13L86.63 76.13L86.63 73.38Q85.38 74.38 83.75 74.94Q82.13 75.50 80.13 75.50L80.13 75.50Q77.63 75.50 75.69 74.50Q73.75 73.50 72.25 71.63L72.25 71.63Q71 70 70.38 67.94Q69.75 65.88 69.75 63.38L69.75 63.38Q69.75 61 70.38 59Q71 57 72.13 55.25L72.13 55.25Q73.63 53.38 75.56 52.38Q77.50 51.38 80.13 51.38L80.13 51.38Q82 51.38 83.63 51.88Q85.25 52.38 86.63 53.38L86.63 53.38L86.63 52.25Q86.63 52 86.75 51.88Q86.88 51.75 87.13 51.75L87.13 51.75L90.63 51.75Q90.88 51.75 91.06 51.88Q91.25 52 91.25 52.25L91.25 52.25L91.25 75.38Q91.25 78.25 90.50 80.38Q89.75 82.50 88.38 84L88.38 84ZM86.63 59.13L86.63 59.13Q86 57.50 84.50 56.69Q83 55.88 80.63 55.88L80.63 55.88Q77.63 55.88 76.06 57.75Q74.50 59.63 74.50 63.38L74.50 63.38Q74.50 65.50 75.06 67Q75.63 68.50 76.63 69.50L76.63 69.50Q77.38 70.25 78.31 70.63Q79.25 71 80.50 71L80.50 71Q82.88 71 84.44 70.13Q86 69.25 86.63 67.63L86.63 67.63L86.63 59.13ZM99.13 75L99.13 75L95.50 75Q95.25 75 95.13 74.88Q95 74.75 95 74.50L95 74.50L95 40.38Q95 40 95.13 39.88Q95.25 39.75 95.50 39.75L95.50 39.75L99.13 39.75Q99.38 39.75 99.50 39.88Q99.63 40 99.63 40.38L99.63 40.38L99.63 74.50Q99.63 74.75 99.50 74.88Q99.38 75 99.13 75L99.13 75ZM125.13 63.38L125.13 64.50Q125.13 64.75 125 64.88Q124.88 65 124.50 65L124.50 65L107.75 65Q107.88 66.25 108.44 67.31Q109 68.38 110 69.25L110 69.25Q111 70.13 112.31 70.56Q113.63 71 115.25 71L115.25 71Q116.63 71 117.94 70.63Q119.25 70.25 120.38 69.50L120.38 69.50Q120.63 69.25 120.81 69.25Q121 69.25 121.13 69.50L121.13 69.50L123.63 71.88Q123.75 72.13 123.75 72.31Q123.75 72.50 123.63 72.63L123.63 72.63Q121.75 74 119.56 74.75Q117.38 75.50 115 75.50L115 75.50Q112.38 75.50 110.13 74.56Q107.88 73.63 106.13 71.88L106.13 71.88Q104.50 70.25 103.63 68Q102.75 65.75 102.75 63.13L102.75 63.13Q102.75 60.63 103.56 58.44Q104.38 56.25 106.13 54.50L106.13 54.50Q107.63 52.88 109.69 52.13Q111.75 51.38 114.13 51.38L114.13 51.38Q116.50 51.38 118.50 52.19Q120.50 53 122.13 54.63L122.13 54.63Q123.75 56.38 124.50 58.56Q125.25 60.75 125.13 63.38L125.13 63.38ZM118.25 56.88L118.25 56.88Q117.38 56.13 116.31 55.69Q115.25 55.25 114.13 55.25L114.13 55.25Q112.88 55.25 111.88 55.69Q110.88 56.13 110 56.88L110 56.88Q109.13 57.63 108.56 58.63Q108 59.63 107.75 60.88L107.75 60.88L120.25 60.88Q120.25 59.75 119.75 58.75Q119.25 57.75 118.25 56.88L118.25 56.88Z"/></svg>