<svg xmlns="http://www.w3.org/2000/svg" xmlns:xlink="http://www.w3.org/1999/xlink" width="128" height="128"><path fill="#ffffff" d="M51.75 81.25L51.75 81.25Q51.75 82 51 82.69Q50.25 83.38 48.88 84.38L48.88 84.38Q48 85 47.31 85.38Q46.63 85.75 46 85.75L46 85.75Q45.50 85.75 44.94 85.63Q44.38 85.50 43.88 85.25L43.88 85.25Q43.50 85.13 43.06 84.88Q42.63 84.63 42.25 84.25L42.25 84.25Q41.88 83.88 41.56 83.44Q41.25 83 41.13 82.63L41.13 82.63Q40.88 82.13 40.81 81.63Q40.75 81.13 40.75 80.63L40.75 80.63L40.75 55L29.75 55L29.75 80.63Q29.75 81.75 29.94 82.88Q30.13 84 30.75 85L30.75 85Q31.25 86 31.94 86.94Q32.63 87.88 33.38 88.63L33.38 88.63Q34.25 89.38 35.25 89.94Q36.25 90.50 37.50 91L37.50 91Q38.63 91.50 39.88 91.69Q41.13 91.88 42.50 91.88L42.50 91.88Q43.63 91.88 44.81 91.63Q46 91.38 47.25 90.75L47.25 90.75Q48.50 90.25 49.69 89.50Q50.88 88.75 51.88 87.88L51.88 87.88L51.88 91.25L62.88 91.25L62.88 55L51.88 55Q51.88 55 51.88 59L51.88 59Q51.88 63.13 51.81 68Q51.75 72.88 51.75 77L51.75 77Q51.75 81.13 51.75 81.25L51.75 81.25ZM13.63 96.75L13.75 96.75Q13.75 98.25 13.56 99.31Q13.38 100.38 13.25 100.88L13.25 100.88Q13 101.38 12.63 101.69Q12.25 102 11.75 102L11.75 102Q11.63 102 11.38 101.94Q11.13 101.88 10.75 101.75L10.75 101.75Q10.50 101.50 10.19 101.19Q9.88 100.88 9.50 100.25L9.50 100.25Q9.13 99.88 8.75 99.38Q8.38 98.88 7.75 98.38L7.75 98.38Q7.25 98 6.56 97.75Q5.88 97.50 5 97.50L5 97.50Q3.88 97.50 2.94 97.81Q2 98.13 1.25 98.75L1.25 98.75Q0.63 99.25 0.25 100Q-0.13 100.75-0.13 101.63L-0.13 101.63Q-0.13 102.63 0.50 103.50Q1.13 104.38 2.38 105.13L2.38 105.13Q3.63 105.88 5.38 106.25Q7.13 106.63 9.50 106.63L9.50 106.63Q11.25 106.63 12.81 106.44Q14.38 106.25 15.75 106L15.75 106Q17.13 105.75 18.31 105.19Q19.50 104.63 20.50 103.75L20.50 103.75Q21.50 103 22.31 101.88Q23.13 100.75 23.63 99.25L23.63 99.25Q24.13 97.75 24.44 95.75Q24.75 93.75 24.75 91.38L24.75 91.38L24.75 53.88L13.63 56.88L13.63 96.75ZM67.25 40.38L67.25 91.25L78.25 91.25L78.25 37.25L67.25 40.38ZM127.13 60L127.13 60Q126.63 59.13 125.94 58.31Q125.25 57.50 124.38 56.88L124.38 56.88Q123.50 56.25 122.31 55.75Q121.13 55.25 119.75 54.88L119.75 54.88Q118.25 54.50 116.63 54.38Q115 54.25 113 54.25L113 54.25Q111.38 54.25 109.88 54.38Q108.38 54.50 107 54.88L107 54.88Q105.63 55.25 104.31 55.69Q103 56.13 102 56.75L102 56.75Q100.88 57.25 100 57.94Q99.13 58.63 98.50 59.50L98.50 59.50Q97.88 60.38 97.56 61.19Q97.25 62 97.25 63L97.25 63Q97.25 64 97.63 64.88Q98 65.75 98.75 66.38L98.75 66.38Q99.50 67.13 100.38 67.44Q101.25 67.75 102.50 67.75L102.50 67.75Q103.25 67.75 103.88 67.63Q104.50 67.50 105 67.25L105 67.25Q105.50 67.13 105.88 66.81Q106.25 66.50 106.50 66.13L106.50 66.13Q106.75 65.75 106.94 65.31Q107.13 64.88 107.25 64.38L107.25 64.38Q107.25 64 107.31 63.44Q107.38 62.88 107.38 62.38L107.38 62.38Q107.38 61.50 107.63 60.75Q107.88 60 108.38 59.38L108.38 59.38Q108.88 58.75 109.81 58.44Q110.75 58.13 112 58.13L112 58.13Q113.13 58.13 114 58.50Q114.88 58.88 115.63 59.63L115.63 59.63Q116.25 60.38 116.56 61.56Q116.88 62.75 116.88 64.50L116.88 64.50L116.88 68L115.75 68.25Q114.63 68.63 113.50 69Q112.38 69.38 111.25 69.75L111.25 69.75Q110.13 70.13 109 70.50Q107.88 70.88 106.75 71.25L106.75 71.25Q105.75 71.75 104.75 72.25Q103.75 72.75 102.88 73.25L102.88 73.25Q102 73.88 101.19 74.44Q100.38 75 99.75 75.75L99.75 75.75Q99 76.38 98.50 77.13Q98 77.88 97.50 78.75L97.50 78.75Q97.13 79.50 96.94 80.50Q96.75 81.50 96.75 82.50L96.75 82.50Q96.75 83.50 96.94 84.44Q97.13 85.38 97.50 86.25L97.50 86.25Q97.88 87 98.44 87.75Q99 88.50 99.75 89.25L99.75 89.25Q100.38 89.75 101.25 90.31Q102.13 90.88 103.13 91.25L103.13 91.25Q104.13 91.63 105.25 91.75Q106.38 91.88 107.63 91.88L107.63 91.88Q108.50 91.88 109.31 91.81Q110.13 91.75 110.75 91.63L110.75 91.63Q111.50 91.50 112.06 91.31Q112.63 91.13 113.25 90.75L113.25 90.75Q113.75 90.50 114.25 90.25Q114.75 90 115.25 89.75L115.25 89.75Q115.63 89.38 116.06 89Q116.50 88.63 117 88.25L117 88.25L117 91.25L128 91.25L128 64.13Q128 63 127.75 61.94Q127.50 60.88 127.13 60L127.13 60ZM116.75 83L116.88 83Q116.13 83.63 115.31 84.13Q114.50 84.63 113.75 85.13L113.75 85.13Q113.13 85.50 112.44 85.69Q111.75 85.88 111.13 85.88L111.13 85.88Q110.75 85.88 110.44 85.81Q110.13 85.75 109.75 85.50L109.75 85.50Q109.50 85.25 109.25 85Q109 84.75 108.75 84.38L108.75 84.38Q108.50 84 108.25 83.63Q108 83.25 107.88 82.75L107.88 82.75Q107.75 82.38 107.69 81.88Q107.63 81.38 107.63 80.75L107.63 80.75Q107.63 80.13 107.81 79.50Q108 78.88 108.38 78.25L108.38 78.25Q108.75 77.75 109.31 77.13Q109.88 76.50 110.63 76L110.63 76Q111.25 75.50 112 75Q112.75 74.50 113.50 74L113.50 74Q114.38 73.50 115.19 73.13Q116 72.75 116.75 72.38L116.75 72.38L116.75 83ZM82.88 57L82.88 91.25L93.88 91.25L93.88 53.88L82.88 57ZM96.38 44.63L96.38 44.63Q96.38 47.75 94.19 49.94Q92 52.13 88.88 52.13L88.88 52.13Q85.75 52.13 83.56 49.94Q81.38 47.75 81.38 44.63L81.38 44.63Q81.38 41.50 83.56 39.31Q85.75 37.13 88.88 37.13L88.88 37.13Q92 37.13 94.19 39.31Q96.38 41.50 96.38 44.63ZM27 44.63L27 44.63Q27 47.75 24.81 49.94Q22.63 52.13 19.50 52.13L19.50 52.13Q16.38 52.13 14.19 49.94Q12 47.75 12 44.63L12 44.63Q12 41.50 14.19 39.31Q16.38 37.13 19.50 37.13L19.50 37.13Q22.63 37.13 24.81 39.31Q27 41.50 27 44.63ZM114.38 44.63L114.38 44.63Q114.38 47.75 112.19 49.94Q110 52.13 106.88 52.13L106.88 52.13Q103.75 52.13 101.56 49.94Q99.38 47.75 99.38 44.63L99.38 44.63Q99.38 41.50 101.56 39.31Q103.75 37.13 106.88 37.13L106.88 37.13Q110 37.13 112.19 39.31Q114.38 41.50 114.38 44.63ZM105.38 29L105.38 29Q105.38 32.13 103.19 34.31Q101 36.50 97.88 36.50L97.88 36.50Q94.75 36.50 92.56 34.31Q90.38 32.13 90.38 29L90.38 29Q90.38 25.88 92.56 23.69Q94.75 21.50 97.88 21.50L97.88 21.50Q101 21.50 103.19 23.69Q105.38 25.88 105.38 29Z"/></svg>