<svg xmlns="http://www.w3.org/2000/svg" xmlns:xlink="http://www.w3.org/1999/xlink" width="128" height="128"><path fill="#000000" d="M58.25 94.25L58.25 94.25Q58.25 100.25 55.88 105.50L55.88 105.50Q53.63 110.88 49.69 114.81Q45.75 118.75 40.38 121L40.38 121Q35.13 123.25 29.13 123.25L29.13 123.25Q23.13 123.25 17.75 121L17.75 121Q12.50 118.75 8.56 114.81Q4.63 110.88 2.25 105.50L2.25 105.50Q0 100.25 0 94.25L0 94.25Q0 88.13 2.25 82.88L2.25 82.88Q4.63 77.63 8.56 73.63Q12.50 69.63 17.75 67.38L17.75 67.38Q23.13 65.13 29.13 65.13L29.13 65.13Q35.13 65.13 40.38 67.38L40.38 67.38Q45.75 69.63 49.69 73.63Q53.63 77.63 55.88 82.88L55.88 82.88Q58.25 88.13 58.25 94.25L58.25 94.25ZM128 94.25L128 94.25Q128 100.25 125.75 105.50L125.75 105.50Q123.38 110.88 119.44 114.81Q115.50 118.75 110.25 121L110.25 121Q104.88 123.25 98.88 123.25L98.88 123.25Q92.88 123.25 87.63 121L87.63 121Q82.25 118.75 78.31 114.81Q74.38 110.88 72.13 105.50L72.13 105.50Q69.75 100.25 69.75 94.25L69.75 94.25Q69.75 88.13 72.13 82.88L72.13 82.88Q74.38 77.63 78.31 73.63Q82.25 69.63 87.63 67.38L87.63 67.38Q92.88 65.13 98.88 65.13L98.88 65.13Q104.88 65.13 110.25 67.38L110.25 67.38Q115.50 69.63 119.44 73.63Q123.38 77.63 125.75 82.88L125.75 82.88Q128 88.13 128 94.25L128 94.25ZM93.13 33.75L93.13 33.75Q93.13 39.88 90.88 45.13L90.88 45.13Q88.50 50.38 84.56 54.38Q80.63 58.38 75.38 60.63L75.38 60.63Q70 62.88 64 62.88L64 62.88Q58 62.88 52.63 60.63L52.63 60.63Q47.38 58.38 43.44 54.38Q39.50 50.38 37.13 45.13L37.13 45.13Q34.88 39.88 34.88 33.75L34.88 33.75Q34.88 27.75 37.13 22.50L37.13 22.50Q39.50 17.13 43.44 13.19Q47.38 9.25 52.63 7L52.63 7Q58 4.75 64 4.75L64 4.75Q70 4.75 75.38 7L75.38 7Q80.63 9.25 84.56 13.19Q88.50 17.13 90.88 22.50L90.88 22.50Q93.13 27.75 93.13 33.75Z"/></svg>