<svg xmlns="http://www.w3.org/2000/svg" xmlns:xlink="http://www.w3.org/1999/xlink" width="128" height="128"><path fill="#000000" d="M2 80.50L2 47.63L12.50 47.63L12.50 80.50L2 80.50ZM61.75 47.63L61.75 47.63L43.75 47.63L43.75 58L51.25 58L51.25 80.38L61.75 80.38L61.75 58L69.25 58L69.25 47.63L61.75 47.63ZM90.13 47.63L90.13 47.63L72.25 47.63L72.25 58L79.75 58L79.75 80.38L90.25 80.38L90.25 58L97.75 58L97.75 47.63L90.13 47.63ZM118.50 47.63L118.50 47.63L100.63 47.63L100.63 58L108.13 58L108.13 80.38L118.63 80.38L118.63 58L126.13 58L126.13 47.63L118.50 47.63ZM27.38 58L40.75 58L40.75 47.63L16.88 47.63L16.88 80.50L27.38 80.50L27.38 71.50L36.38 71.50L36.38 61L27.38 61L27.38 58Z"/></svg>