<svg xmlns="http://www.w3.org/2000/svg" xmlns:xlink="http://www.w3.org/1999/xlink" width="128" height="128"><path fill="#000000" d="M122 113.75L122 113.75L122 117.88Q121.38 119 120.44 119.31Q119.50 119.63 118.38 119.63L118.38 119.63Q104.75 119.50 91 119.50L91 119.50Q77.38 119.50 63.69 119.50Q50 119.50 36.25 119.50L36.25 119.50Q22.63 119.50 9 119.50L9 119.50Q8.75 119.50 8.56 119.50Q8.38 119.50 8.13 119.50L8.13 119.50Q6.75 119.50 6.06 118.75Q5.38 118 5.38 116.63L5.38 116.63Q5.38 115.75 5.50 114.75Q5.63 113.75 5.75 112.75L5.75 112.75Q6.38 104.25 7.06 95.75Q7.75 87.25 8.38 78.75L8.38 78.75Q9.13 69.88 9.81 61.13Q10.50 52.38 11.25 43.63L11.25 43.63Q11.75 36.75 12.31 29.94Q12.88 23.13 13.38 16.25L13.38 16.25Q13.50 14.88 14.25 14.25Q15 13.63 16.38 13.63L16.38 13.63Q17.13 13.63 17.94 13.63Q18.75 13.63 19.63 13.63L19.63 13.63Q30.50 13.63 41.50 13.63L41.50 13.63Q52.50 13.63 63.44 13.63Q74.38 13.63 85.25 13.63L85.25 13.63Q96.25 13.63 107.25 13.63L107.25 13.63Q108.13 13.63 109 13.63Q109.88 13.63 110.75 13.63L110.75 13.63Q112 13.63 112.75 14.25Q113.50 14.88 113.63 16.13L113.63 16.13Q113.75 16.75 113.69 17.38Q113.63 18 113.63 18.63L113.63 18.63Q113.88 21 114.13 23.31Q114.38 25.63 114.63 28L114.63 28Q114.88 31.13 115.13 34.19Q115.38 37.25 115.63 40.25L115.63 40.25L117.50 63.50Q118 68.88 118.38 74.25L118.38 74.25Q118.88 79.50 119.31 84.81Q119.75 90.13 120.25 95.50L120.25 95.50Q120.63 100.88 121.13 106.13L121.13 106.13Q121.25 108 121.50 109.94Q121.75 111.88 122 113.75L122 113.75ZM61.50 87.63L61.50 87.63Q64.50 87.50 67.38 86.81Q70.25 86.13 72.75 84.50L72.75 84.50Q80.63 79.63 84.06 72.38Q87.50 65.13 87.88 56.13L87.88 56.13Q87.88 55.38 87.50 54.88Q87.13 54.38 86.13 54.25L86.13 54.25Q85.13 54.25 84.88 54.81Q84.63 55.38 84.50 56.25L84.50 56.25Q84.38 57.88 84.31 59.50Q84.25 61.13 83.88 62.63L83.88 62.63Q82.75 67.75 80.38 72.13Q78 76.50 73.75 79.75L73.75 79.75Q70.13 82.50 66.06 83.69Q62 84.88 57.38 83.88L57.38 83.88Q51.50 82.50 47.69 78.75Q43.88 75 41.50 69.75L41.50 69.75Q40 66.63 39.25 63.31Q38.50 60 38.50 56.50L38.50 56.50Q38.50 55.25 37.94 54.69Q37.38 54.13 36.38 54.38L36.38 54.38Q35.50 54.63 35.31 55.25Q35.13 55.88 35.13 56.63L35.13 56.63Q35.25 61.75 36.69 66.63Q38.13 71.50 41 75.75L41 75.75Q44.63 81.13 49.69 84.25Q54.75 87.38 61.50 87.63L61.50 87.63ZM86 47.38L86 47.38Q88 49.38 89.81 51.19Q91.63 53 93.25 54.75L93.25 54.75Q93.88 55.25 94.56 55.38Q95.25 55.50 95.88 54.88L95.88 54.88Q96.38 54.25 96.31 53.63Q96.25 53 95.75 52.38L95.75 52.38Q93.63 50.38 91.63 48.38Q89.63 46.38 87.63 44.38L87.63 44.38Q87 43.75 86.25 43.63Q85.50 43.50 84.88 44.13L84.88 44.13Q82.75 46.25 80.69 48.31Q78.63 50.38 76.50 52.50L76.50 52.50Q76 53.13 75.88 53.81Q75.75 54.50 76.50 55.13L76.50 55.13Q77.25 55.63 77.88 55.50Q78.50 55.38 79.13 54.75L79.13 54.75Q80.75 52.88 82.50 51.06Q84.25 49.25 86 47.38L86 47.38ZM105.88 8.75L105.88 8.75Q106.88 9.75 107 11.06Q107.13 12.38 107.25 13.63L107.25 13.63Q96.25 13.63 85.25 13.63L85.25 13.63Q74.38 13.63 63.44 13.63Q52.50 13.63 41.50 13.63L41.50 13.63Q30.50 13.63 19.63 13.63L19.63 13.63Q19.88 12.38 19.81 11Q19.75 9.63 21.25 8.75L21.25 8.75L105.88 8.75Z"/></svg>