<svg xmlns="http://www.w3.org/2000/svg" xmlns:xlink="http://www.w3.org/1999/xlink" width="128" height="128"><path fill="#ffffff" d="M20 53L20 50L28 50L28 78L25 78L25 83L38 83L38 77L34 77L34 49L43 49L43 53L47 53L47 45L15 45L15 53L20 53ZM57.63 35L57.63 35L4.63 35Q4 35 3.50 35.69Q3 36.38 3 37L3 37L3 90Q3 90.75 3.50 91.38Q4 92 4.63 92L4.63 92L57.63 92Q58.38 92 58.69 91.38Q59 90.75 59 90L59 90L59 37Q59 36.38 58.69 35.69Q58.38 35 57.63 35ZM50 42L50 56L41 56L41 52L37 52L37 74L41 74L41 85L22 85L22 75L26 75L26 52L22 52L22 56L12 56L12 42L50 42ZM69.50 55.13L69.50 55.13Q69.25 55.13 69 55.13Q68.75 55.13 68.50 55.25L68.50 55.25Q68.13 55.38 67.88 55.50Q67.63 55.63 67.38 55.75L67.38 55.75Q67.13 55.88 66.94 56.06Q66.75 56.25 66.50 56.38L66.50 56.38Q66.25 56.63 66.06 56.75Q65.88 56.88 65.75 57.13L65.75 57.13L65.50 55L63 55L63 72L66 72L66 62.13Q66 61.75 66.06 61.38Q66.13 61 66.25 60.63L66.25 60.63Q66.38 60.25 66.50 59.94Q66.63 59.63 66.88 59.38L66.88 59.38Q67.13 59.13 67.38 58.88Q67.63 58.63 68 58.50L68 58.50Q68.25 58.25 68.63 58.19Q69 58.13 69.50 58.13L69.50 58.13Q69.63 58.13 69.94 58.25Q70.25 58.38 71 58.63L71 58.63L71 55.38Q71 55.38 70.75 55.31Q70.50 55.25 70.25 55.13L70.25 55.13Q70 55.13 69.88 55.13Q69.75 55.13 69.50 55.13L69.50 55.13ZM86.88 69.63L86.88 69.63Q86.75 69.63 86.69 69.63Q86.63 69.63 86.50 69.63L86.50 69.63Q86.50 69.50 86.44 69.44Q86.38 69.38 86.25 69.38L86.25 69.38Q86.25 69.25 86.19 69.19Q86.13 69.13 86.13 69L86.13 69Q86.13 68.88 86.06 68.81Q86 68.75 86 68.63L86 68.63L86 60.25Q86 59.50 85.88 58.94Q85.75 58.38 85.50 57.88L85.50 57.88Q85.25 57.38 84.88 57Q84.50 56.63 84 56.25L84 56.25Q83.63 56 83.06 55.75Q82.50 55.50 82 55.38L82 55.38Q81.38 55.25 80.75 55.19Q80.13 55.13 79.50 55.13L79.50 55.13Q78.88 55.13 78.31 55.19Q77.75 55.25 77.25 55.38L77.25 55.38Q76.63 55.63 76.13 55.81Q75.63 56 75.13 56.38L75.13 56.38Q74.63 56.75 74.25 57.06Q73.88 57.38 73.50 57.88L73.50 57.88Q73.25 58.38 73.06 59.19Q72.88 60 72.88 60L72.88 60L76.13 60Q76.13 60 76.25 59.63Q76.38 59.25 76.50 59L76.50 59Q76.63 58.75 76.81 58.63Q77 58.50 77.25 58.38L77.25 58.38Q77.50 58.25 77.75 58.13Q78 58 78.38 58L78.38 58Q78.63 57.88 79 57.88Q79.38 57.88 79.63 57.88L79.63 57.88Q80.38 57.88 81 58Q81.63 58.13 82 58.38L82 58.38Q82.50 58.63 82.69 59.13Q82.88 59.63 82.88 60.25L82.88 60.25Q82.88 60.50 82.81 60.69Q82.75 60.88 82.63 61.13L82.63 61.13Q82.38 61.25 82.19 61.44Q82 61.63 81.63 61.75L81.63 61.75Q81.38 61.88 81.06 62Q80.75 62.13 80.38 62.25L80.38 62.25Q80 62.38 79.56 62.50Q79.13 62.63 78.75 62.75L78.75 62.75Q78.25 63 77.69 63.13Q77.13 63.25 76.50 63.50L76.50 63.50Q76 63.63 75.50 63.88Q75 64.13 74.50 64.38L74.50 64.38Q74 64.63 73.63 64.94Q73.25 65.25 73 65.75L73 65.75Q72.75 66.13 72.56 66.56Q72.38 67 72.38 67.63L72.38 67.63Q72.38 68.13 72.50 68.63Q72.63 69.13 72.88 69.63L72.88 69.63Q73 70 73.31 70.38Q73.63 70.75 73.88 71.13L73.88 71.13Q74.25 71.38 74.69 71.63Q75.13 71.88 75.50 72.13L75.50 72.13Q76 72.25 76.50 72.31Q77 72.38 77.50 72.38L77.50 72.38Q77.88 72.38 78.25 72.38Q78.63 72.38 79 72.38L79 72.38Q79.38 72.25 79.75 72.19Q80.13 72.13 80.38 72L80.38 72Q80.75 71.75 81.13 71.56Q81.50 71.38 81.88 71.25L81.88 71.25Q82.13 71 82.50 70.69Q82.88 70.38 83.25 69.88L83.25 69.88Q83.38 70.50 83.63 70.94Q83.88 71.38 84.25 71.75L84.25 71.75Q84.63 72.13 85.06 72.25Q85.50 72.38 86 72.38L86 72.38Q86.25 72.38 86.44 72.38Q86.63 72.38 86.88 72.38L86.88 72.38Q87.13 72.25 87.56 72.19Q88 72.13 88 72L88 72L88 69.38Q88 69.38 87.69 69.44Q87.38 69.50 87.25 69.63L87.25 69.63Q87.13 69.63 87 69.63Q86.88 69.63 86.88 69.63L86.88 69.63ZM83 66.25L83 66.25Q82.25 67.13 81.75 67.75Q81.25 68.38 80.63 68.88L80.63 68.88Q80 69.25 79.31 69.44Q78.63 69.63 77.88 69.63L77.88 69.63Q77.75 69.63 77.50 69.63Q77.25 69.63 77 69.50L77 69.50Q76.88 69.50 76.69 69.38Q76.50 69.25 76.25 69.13L76.25 69.13Q76.13 69 76 68.81Q75.88 68.63 75.75 68.50L75.75 68.50Q75.63 68.25 75.56 68Q75.50 67.75 75.50 67.50L75.50 67.50Q75.50 67.13 75.63 66.88Q75.75 66.63 76 66.38L76 66.38Q76.25 66.13 76.50 65.94Q76.75 65.75 77.13 65.63L77.13 65.63Q77.50 65.38 77.88 65.25Q78.25 65.13 78.63 65L78.63 65L80.25 64.63Q80.75 64.50 81.13 64.38Q81.50 64.25 81.88 64.13L81.88 64.13Q82.25 64 82.63 63.88Q83 63.75 83 63.50L83 63.50L83 66.25ZM100.88 55L96.38 67.38L92.13 55L88.75 55L94.88 72L98.13 72L104.25 55L100.88 55ZM106 52L106 49L109 49L109 52L106 52ZM106 72L106 55L109 55L109 72L106 72ZM124.25 65.75L124.25 65.75Q124 65.38 123.75 65.13Q123.50 64.88 123.13 64.63L123.13 64.63Q122.88 64.38 122.44 64.13Q122 63.88 121.63 63.75L121.63 63.75Q121.13 63.50 120.69 63.31Q120.25 63.13 119.88 63L119.88 63L118.13 62.25Q117.63 62.13 117.25 61.94Q116.88 61.75 116.63 61.50L116.63 61.50Q116.25 61.38 116 61.13Q115.75 60.88 115.50 60.75L115.50 60.75Q115.25 60.50 115.19 60.19Q115.13 59.88 115.13 59.63L115.13 59.63Q115.13 59.25 115.25 58.94Q115.38 58.63 115.75 58.38L115.75 58.38Q116.13 58.13 116.63 58Q117.13 57.88 117.88 57.88L117.88 57.88Q118.13 57.88 118.44 57.88Q118.75 57.88 119 58L119 58Q119.25 58 119.50 58.13Q119.75 58.25 120 58.38L120 58.38Q120.13 58.50 120.31 58.63Q120.50 58.75 120.63 59L120.63 59Q120.75 59.25 120.88 59.63Q121 60 121 60L121 60L124.25 60Q124.13 59.25 124 58.75Q123.88 58.25 123.63 57.88L123.63 57.88Q123.38 57.38 123.06 57Q122.75 56.63 122.25 56.25L122.25 56.25Q121.88 56 121.38 55.75Q120.88 55.50 120.38 55.38L120.38 55.38Q119.75 55.25 119.13 55.19Q118.50 55.13 117.88 55.13L117.88 55.13Q117.25 55.13 116.69 55.19Q116.13 55.25 115.63 55.38L115.63 55.38Q115.13 55.50 114.63 55.69Q114.13 55.88 113.75 56.25L113.75 56.25Q113.25 56.50 112.94 56.81Q112.63 57.13 112.38 57.63L112.38 57.63Q112.13 58 112 58.50Q111.88 59 111.88 59.63L111.88 59.63Q111.88 60.13 112 60.50Q112.13 60.88 112.25 61.25L112.25 61.25Q112.50 61.50 112.75 61.81Q113 62.13 113.38 62.38L113.38 62.38Q113.75 62.75 114.13 62.94Q114.50 63.13 114.88 63.38L114.88 63.38Q115.38 63.63 115.81 63.81Q116.25 64 116.63 64.13L116.63 64.13Q117.13 64.38 117.56 64.50Q118 64.63 118.38 64.88L118.38 64.88Q118.88 65 119.25 65.19Q119.63 65.38 120 65.50L120 65.50Q120.25 65.75 120.56 65.94Q120.88 66.13 121 66.38L121 66.38Q121.25 66.63 121.38 66.88Q121.50 67.13 121.50 67.50L121.50 67.50Q121.50 67.75 121.38 68.06Q121.25 68.38 121.13 68.50L121.13 68.50Q121 68.75 120.75 68.94Q120.50 69.13 120.25 69.25L120.25 69.25Q120 69.38 119.69 69.44Q119.38 69.50 119.13 69.63L119.13 69.63Q118.75 69.63 118.44 69.63Q118.13 69.63 117.88 69.63L117.88 69.63Q117.50 69.63 117.19 69.63Q116.88 69.63 116.63 69.50L116.63 69.50Q116.25 69.38 116 69.25Q115.75 69.13 115.50 69L115.50 69Q115.38 68.75 115.19 68.38Q115 68 114.88 67.75L114.88 67.75Q114.75 67.38 114.69 67.06Q114.63 66.75 114.63 66L114.63 66L111.25 66Q111.38 66.75 111.50 67.50Q111.63 68.25 111.88 68.88L111.88 68.88Q112.13 69.38 112.50 69.94Q112.88 70.50 113.38 70.88L113.38 70.88Q113.75 71.25 114.25 71.50Q114.75 71.75 115.38 72L115.38 72Q116 72.13 116.63 72.25Q117.25 72.38 117.88 72.38L117.88 72.38Q118.50 72.38 119.19 72.31Q119.88 72.25 120.50 72.13L120.50 72.13Q121.13 72 121.63 71.75Q122.13 71.50 122.63 71.25L122.63 71.25Q123.13 70.88 123.50 70.50Q123.88 70.13 124.13 69.63L124.13 69.63Q124.38 69.13 124.50 68.50Q124.63 67.88 124.63 67.25L124.63 67.25Q124.63 66.75 124.56 66.38Q124.50 66 124.25 65.75L124.25 65.75Z"/></svg>