<svg xmlns="http://www.w3.org/2000/svg" xmlns:xlink="http://www.w3.org/1999/xlink" width="128" height="128"><path fill="#000000" d="M40 42L40 34L58 34L58 95L50 95L50 106L78 106L78 94L71 94L71 33L90 33L90 42L100 42L100 24L29 24L29 42L40 42ZM122.25 3L122.25 3L6 3Q4.50 3 3.25 3.88Q2 4.75 2 6.25L2 6.25L2 122.38Q2 123.88 3.25 124.94Q4.50 126 6 126L6 126L122.25 126Q123.75 126 124.38 124.94Q125 123.88 125 122.38L125 122.38L125 6.25Q125 4.75 124.38 3.88Q123.75 3 122.25 3ZM106 18L106 48L85 48L85 39L76 39L76 87L85 87L85 111L45 111L45 88L51 88L51 40L45 40L45 48L22 48L22 18L106 18Z"/></svg>