<svg xmlns="http://www.w3.org/2000/svg" xmlns:xlink="http://www.w3.org/1999/xlink" width="128" height="128"><path fill="#ffffff" d="M82.50 54.63L82.50 54.63Q77.63 57.75 72.88 60.88L72.88 60.88Q68 64 63.19 67.13Q58.38 70.25 53.50 73.38L53.50 73.38Q48.63 76.50 43.63 79.75L43.63 79.75Q51 80.75 58.38 81.75L58.38 81.75Q65.63 82.75 73 83.75Q80.38 84.75 87.63 85.75L87.63 85.75Q95 86.75 102.38 87.75L102.38 87.75Q97.38 79.38 92.44 71.13Q87.50 62.88 82.50 54.63L82.50 54.63ZM107.88 17.75L107.88 17.75Q106.63 19.75 105.31 21.69Q104 23.63 102.75 25.63L102.75 25.63Q98.25 32.38 93.81 39.06Q89.38 45.75 84.88 52.50L84.88 52.50Q84.63 52.88 84.44 53.25Q84.25 53.63 84.63 54.13L84.63 54.13Q88.88 61.25 93.19 68.38Q97.50 75.50 101.75 82.63L101.75 82.63Q102.38 83.75 103.13 84.88Q103.88 86 104.75 87.13L104.75 87.13L108.13 17.88L107.88 17.75ZM29.50 47.38L29.50 47.38Q29.75 47.63 30.13 47.69Q30.50 47.75 30.75 47.63L30.75 47.63Q34.88 45.63 39 43.56Q43.13 41.50 47.25 39.38L47.25 39.38Q48.50 38.63 49.63 37.50Q50.75 36.38 51.88 35.25L51.88 35.25Q55.63 31.88 59.38 28.38Q63.13 24.88 66.88 21.50L66.88 21.50Q67.13 21.25 67.38 21.06Q67.63 20.88 67.75 20.63L67.75 20.63Q69.13 17.88 70.44 15.25Q71.75 12.63 73.13 9.88L73.13 9.88Q71.50 9.25 69.94 8.69Q68.38 8.13 66.75 7.50L66.75 7.50Q66.50 7.50 66.25 7.56Q66 7.63 65.75 7.75L65.75 7.75Q62.13 9.88 58.44 11.88Q54.75 13.88 51.25 16L51.25 16Q49.50 17.13 48 18.63Q46.50 20.13 44.88 21.63L44.88 21.63Q42.38 23.88 39.88 26.19Q37.38 28.50 34.88 30.75L34.88 30.75Q34.25 31.38 33.69 32.13Q33.13 32.88 32.63 33.50L32.63 33.50Q30.88 36 29.19 38.50Q27.50 41 25.88 43.63L25.88 43.63Q26.75 44.63 27.69 45.56Q28.63 46.50 29.50 47.38L29.50 47.38ZM49.63 42.88L49.63 42.88Q47.63 51.63 45.56 60.31Q43.50 69 41.38 77.88L41.38 77.88Q46.38 74.63 51.25 71.50L51.25 71.50Q56.13 68.38 61 65.25Q65.88 62.13 70.63 59L70.63 59Q75.50 55.88 80.25 52.75L80.25 52.75Q72.63 50.38 65 47.88Q57.38 45.38 49.63 42.88L49.63 42.88ZM71.50 23.50L71.50 23.50L82.75 50.75Q88.25 42.50 93.63 34.38Q99 26.25 104.50 17.88L104.50 17.88Q96.25 19.38 88 20.75Q79.75 22.13 71.50 23.50ZM69 23.25L50.13 40.50Q57.63 43 65.06 45.38Q72.50 47.75 80.13 50.25L80.13 50.25Q77.38 43.38 74.63 36.69Q71.88 30 69 23.25L69 23.25ZM30 54.13L30 54.13L19.50 79.25Q24.50 79.13 29.44 78.94Q34.38 78.75 39.50 78.63L39.50 78.63Q37.13 72.50 34.75 66.44Q32.38 60.38 30 54.13L30 54.13ZM39.63 72.88L39.63 72.88L39.88 72.75Q41.75 65.25 43.56 57.75Q45.38 50.25 47.25 42.50L47.25 42.50Q43.13 44.63 39.19 46.69Q35.25 48.75 31.13 50.88L31.13 50.88Q33.25 56.13 35.38 61.69Q37.50 67.25 39.63 72.88L39.63 72.88ZM100.50 16.50L100.50 16.25Q98.13 15.63 95.75 15Q93.38 14.38 91 13.75L91 13.75Q87.50 12.88 84.06 11.94Q80.63 11 77.13 10.13L77.13 10.13Q76.75 10 76.44 10.06Q76.13 10.13 75.88 10.63L75.88 10.63Q74.63 13.13 73.38 15.56Q72.13 18 70.88 20.50L70.88 20.50Q70.88 20.63 70.88 20.75Q70.88 20.88 70.75 21L70.75 21Q78.25 19.88 85.69 18.75Q93.13 17.63 100.50 16.50L100.50 16.50ZM82 8.75L82 8.75Q88.38 10.50 94.88 12.31Q101.38 14.13 108 16L108 16L103.75 3.63Q98.25 4.88 92.81 6.06Q87.38 7.25 82 8.50L82 8.50L82 8.75ZM89.88 88.13L89.88 88.13L68.50 85.13Q61.88 84.25 55.19 83.31Q48.50 82.38 41.88 81.63L41.88 81.63Q39.50 81.38 37 81.50Q34.50 81.63 32.13 81.63L32.13 81.63Q30.13 81.63 28.06 81.69Q26 81.75 24 81.88L24 81.88Q23.88 81.88 23.63 81.94Q23.38 82 23.25 82.25L23.25 82.25Q31.50 83 39.88 83.75L39.88 83.75Q48.13 84.50 56.50 85.31Q64.88 86.13 73.13 86.88L73.13 86.88Q81.50 87.63 89.88 88.38L89.88 88.38L89.88 88.13ZM19.88 71.63L19.88 71.63Q22 66.63 24.13 61.63Q26.25 56.63 28.50 51.63L28.50 51.63Q28.63 51.13 28.63 50.75Q28.63 50.38 28.13 50L28.13 50Q27.25 49.13 26.38 48.19Q25.50 47.25 24.50 46.25L24.50 46.25L19.25 72.13L19.50 72.25Q19.63 72 19.69 71.88Q19.75 71.75 19.88 71.63ZM76.25 7L76.25 7Q79.88 6 83.56 5.25Q87.25 4.50 90.88 3.63L90.88 3.63Q91.13 3.63 91.38 3.56Q91.63 3.50 91.88 3.38L91.88 3.38L91.75 3.13L70.88 6Q72.38 6.63 73.63 7Q74.88 7.38 76.25 7L76.25 7ZM31 109.38L31 109.38L31 118L26.25 118L26.25 95.75L32.75 95.75Q35 95.75 36.69 96.13Q38.38 96.50 39.50 97.38L39.50 97.38Q40.50 98.13 41.06 99.38Q41.63 100.63 41.63 102.38L41.63 102.38Q41.63 103.38 41.38 104.25Q41.13 105.13 40.50 105.88L40.50 105.88Q40 106.63 39.25 107.25Q38.50 107.88 37.50 108.25L37.50 108.25L44 118L38.75 118L33.50 109.38L31 109.38ZM31 105.63L31 105.63L32.50 105.63Q33.63 105.63 34.44 105.44Q35.25 105.25 35.75 104.88L35.75 104.88Q36.38 104.50 36.63 103.88Q36.88 103.25 36.88 102.50L36.88 102.50Q36.88 101.75 36.63 101.19Q36.38 100.63 35.75 100.25L35.75 100.25Q35.25 99.88 34.38 99.75Q33.50 99.63 32.38 99.63L32.38 99.63L31 99.63L31 105.63ZM58.50 118L58.50 118L57.88 115.75L57.63 115.75Q57.25 116.38 56.75 116.81Q56.25 117.25 55.63 117.63L55.63 117.63Q54.88 118 54.13 118.13Q53.38 118.25 52.50 118.25L52.50 118.25Q51 118.25 49.81 117.88Q48.63 117.50 47.88 116.63L47.88 116.63Q47.13 115.88 46.75 114.69Q46.38 113.50 46.38 112L46.38 112L46.38 100.88L51 100.88L51 110.88Q51 111.75 51.19 112.50Q51.38 113.25 51.75 113.63L51.75 113.63Q52 114.13 52.56 114.38Q53.13 114.63 53.75 114.63L53.75 114.63Q54.75 114.63 55.44 114.25Q56.13 113.88 56.63 113.25L56.63 113.25Q57 112.63 57.25 111.56Q57.50 110.50 57.50 109L57.50 109L57.50 100.88L62.13 100.88L62.13 118L58.50 118ZM76.50 100.63L76.50 100.63Q78 100.63 79.19 101.19Q80.38 101.75 81.25 103L81.25 103Q82 104.13 82.44 105.75Q82.88 107.38 82.88 109.38L82.88 109.38Q82.88 111.50 82.44 113.13Q82 114.75 81.13 116L81.13 116Q80.25 117.13 79.06 117.69Q77.88 118.25 76.38 118.25L76.38 118.25Q74.88 118.25 73.69 117.69Q72.50 117.13 71.63 116.13L71.63 116.13L71.38 116.13L70.50 118L67 118L67 94.25L71.63 94.25L71.63 99.75Q71.63 100.25 71.56 101.13Q71.50 102 71.50 103.13L71.50 103.13L71.63 103.13Q72.50 101.88 73.69 101.25Q74.88 100.63 76.50 100.63L76.50 100.63ZM75 104.38L75 104.38Q74.13 104.38 73.50 104.63Q72.88 104.88 72.50 105.38L72.50 105.38Q72.13 105.88 71.88 106.75Q71.63 107.63 71.63 108.88L71.63 108.88L71.63 109.38Q71.63 110.75 71.81 111.75Q72 112.75 72.50 113.38L72.50 113.38Q72.88 113.88 73.50 114.19Q74.13 114.50 75 114.50L75 114.50Q75.75 114.50 76.31 114.19Q76.88 113.88 77.38 113.25L77.38 113.25Q77.75 112.50 77.94 111.56Q78.13 110.63 78.13 109.38L78.13 109.38Q78.13 108.13 77.94 107.19Q77.75 106.25 77.25 105.63L77.25 105.63Q76.88 105 76.31 104.69Q75.75 104.38 75 104.38ZM90.75 117.88L84 100.88L89.13 100.88L92.25 110.50Q92.50 111.13 92.63 111.88Q92.75 112.63 92.88 113.50L92.88 113.50L93 113.50Q93 112.75 93.19 112Q93.38 111.25 93.63 110.50L93.63 110.50L96.75 100.88L101.75 100.88L94.50 120.13Q94 121.50 93.31 122.50Q92.63 123.50 91.75 124.13L91.75 124.13Q90.75 124.75 89.69 125.13Q88.63 125.50 87.38 125.50L87.38 125.50Q86.88 125.50 86.25 125.44Q85.63 125.38 85.13 125.25L85.13 125.25L85.13 121.50Q85.50 121.63 85.94 121.69Q86.38 121.75 86.88 121.75L86.88 121.75Q87.50 121.75 88.06 121.56Q88.63 121.38 89 121L89 121Q89.50 120.63 89.88 120.06Q90.25 119.50 90.50 118.63L90.50 118.63L90.75 117.88Z"/></svg>