<svg xmlns="http://www.w3.org/2000/svg" xmlns:xlink="http://www.w3.org/1999/xlink" width="128" height="128"><path fill="#000000" d="M36 111.38L36 111.38Q46.25 112.75 56.50 114.13L56.50 114.13Q66.75 115.50 76.94 116.94Q87.13 118.38 97.38 119.75L97.38 119.75Q107.63 121.13 117.88 122.50L117.88 122.50Q114.38 116.63 111 110.88L111 110.88Q107.50 105.13 104 99.38Q100.50 93.63 97.13 87.88L97.13 87.88Q93.63 82.13 90.25 76.38L90.25 76.38L36 111.38ZM125.63 25L125.63 25Q123.88 27.63 122.06 30.38Q120.25 33.13 118.38 35.88L118.38 35.88Q115.25 40.50 112.25 45.25L112.25 45.25Q109.13 49.88 106 54.56Q102.88 59.25 99.75 64L99.75 64Q96.63 68.63 93.50 73.38L93.50 73.38Q93.13 73.88 92.88 74.38Q92.63 74.88 93.13 75.63L93.13 75.63Q96.13 80.63 99.13 85.63L99.13 85.63Q102.13 90.63 105.13 95.56Q108.13 100.50 111.13 105.50L111.13 105.50Q114 110.50 117 115.38L117 115.38Q118 117 119 118.56Q120 120.13 121.25 121.63L121.25 121.63Q121.75 109.50 122.38 97.50L122.38 97.50Q123 85.38 123.63 73.31Q124.25 61.25 124.88 49.25L124.88 49.25Q125.38 37.13 126 25L126 25L125.63 25ZM16.25 66.25L16.25 66.25Q16.50 66.50 17.06 66.63Q17.63 66.75 18 66.63L18 66.63Q23.75 63.75 29.50 60.94Q35.25 58.13 41 55L41 55Q42.75 54 44.31 52.38Q45.88 50.75 47.38 49.38L47.38 49.38Q52.63 44.50 57.88 39.69Q63.13 34.88 68.38 30.13L68.38 30.13Q68.63 29.75 69 29.44Q69.38 29.13 69.50 28.75L69.50 28.75Q71.38 25.13 73.25 21.44Q75.13 17.75 77.13 13.88L77.13 13.88Q74.75 13 72.56 12.19Q70.38 11.38 68.25 10.63L68.25 10.63Q67.88 10.50 67.50 10.63Q67.13 10.75 66.75 11L66.75 11Q61.75 13.88 56.63 16.63Q51.50 19.38 46.63 22.50L46.63 22.50Q44.13 24 42 26.13Q39.88 28.25 37.75 30.25L37.75 30.25Q34.25 33.38 30.75 36.63Q27.25 39.88 23.75 43.13L23.75 43.13Q22.88 44 22.06 44.94Q21.25 45.88 20.50 46.88L20.50 46.88Q18.13 50.38 15.81 53.88Q13.50 57.38 11.13 61L11.13 61Q12.50 62.38 13.75 63.69Q15 65 16.25 66.25L16.25 66.25ZM44.38 60L44.38 60Q42.88 66 41.50 72L41.50 72Q40 78.13 38.56 84.19Q37.13 90.25 35.75 96.38L35.75 96.38Q34.25 102.50 32.75 108.75L32.75 108.75Q39.75 104.38 46.50 99.88L46.50 99.88Q53.38 95.50 60.13 91.13Q66.88 86.75 73.63 82.50L73.63 82.50Q80.38 78.13 87.13 73.75L87.13 73.75Q81.75 72 76.38 70.38L76.38 70.38Q71.13 68.63 65.75 66.88Q60.38 65.13 55.13 63.38L55.13 63.38Q49.75 61.75 44.38 60ZM121 25.13L121 25.13Q115.13 26.13 109.38 27L109.38 27Q103.63 28 97.88 28.94Q92.13 29.88 86.38 30.88L86.38 30.88Q80.63 31.88 74.88 32.88L74.88 32.88Q76.75 37.63 78.75 42.38L78.75 42.38Q80.75 47.13 82.69 51.88Q84.63 56.63 86.50 61.38L86.50 61.38Q88.50 66.13 90.50 70.88L90.50 70.88Q94.38 65.13 98.13 59.38L98.13 59.38Q101.88 53.75 105.69 48.06Q109.50 42.38 113.38 36.63L113.38 36.63Q117.13 30.88 121 25.13L121 25.13ZM45 56.63L45 56.63Q50.25 58.38 55.50 60L55.50 60Q60.63 61.75 65.88 63.44Q71.13 65.13 76.38 66.88L76.38 66.88Q81.63 68.50 86.88 70.25L86.88 70.25Q84.88 65.50 83 60.75L83 60.75Q81 56 79.06 51.31Q77.13 46.63 75.25 41.88L75.25 41.88Q73.38 37.25 71.38 32.50L71.38 32.50Q64.75 38.50 58.19 44.50Q51.63 50.50 45 56.63ZM16.88 75.63L16.88 75.63Q13.13 84.50 9.50 93.19Q5.88 101.88 2.13 110.75L2.13 110.75Q9.25 110.50 16.13 110.31Q23 110.13 30.13 109.88L30.13 109.88Q26.75 101.25 23.50 92.81Q20.25 84.38 16.88 75.63L16.88 75.63ZM30.38 101.75L30.38 101.75L30.75 101.63Q32 96.38 33.25 91.25L33.25 91.25Q34.50 86 35.81 80.75Q37.13 75.50 38.38 70.13L38.38 70.13Q39.63 64.88 41 59.38L41 59.38Q35.25 62.38 29.69 65.25Q24.13 68.13 18.50 71L18.50 71Q21.38 78.50 24.38 86.25Q27.38 94 30.38 101.75L30.38 101.75ZM115.38 23.13L115.38 22.88Q112 22 108.69 21.06Q105.38 20.13 102 19.25L102 19.25Q97.13 18 92.31 16.75Q87.50 15.50 82.75 14.25L82.75 14.25Q82.13 14.13 81.69 14.13Q81.25 14.13 80.88 14.88L80.88 14.88Q79.13 18.38 77.44 21.81Q75.75 25.25 74 28.75L74 28.75Q73.88 28.88 73.88 29Q73.88 29.13 73.88 29.38L73.88 29.38Q79.13 28.63 84.25 27.88L84.25 27.88Q89.50 27 94.69 26.25Q99.88 25.50 105 24.75L105 24.75Q110.13 23.88 115.38 23.13L115.38 23.13ZM89.50 12.25L89.50 12.25L125.88 22.38Q124.25 17.88 122.75 13.69Q121.25 9.50 119.88 5.25L119.88 5.25L89.50 12L89.50 12.25ZM33.50 114L33.50 114Q30.13 113.63 26.69 113.81Q23.25 114 19.88 114L19.88 114Q17 114.13 14.19 114.19Q11.38 114.25 8.63 114.38L8.63 114.38Q8.25 114.38 8 114.44Q7.75 114.50 7.38 114.88L7.38 114.88Q19 116 30.63 117L30.63 117Q42.25 118.13 53.88 119.19Q65.50 120.25 77.13 121.38L77.13 121.38Q88.75 122.38 100.38 123.50L100.38 123.50L100.50 123Q93 122 85.56 121Q78.13 120 70.63 119L70.63 119Q61.38 117.75 52.13 116.44Q42.88 115.13 33.50 114L33.50 114ZM2.75 100L2.75 100Q5.75 93 8.75 86.06Q11.75 79.13 14.75 72.13L14.75 72.13Q15.13 71.50 15.06 71Q15 70.50 14.38 69.88L14.38 69.88Q13.13 68.63 11.88 67.38Q10.63 66.13 9.25 64.63L9.25 64.63Q7.38 73.88 5.56 82.81Q3.75 91.75 2 100.75L2 100.75L2.25 100.88Q2.38 100.63 2.50 100.44Q2.63 100.25 2.75 100L2.75 100ZM81.50 9.88L81.50 9.88Q86.63 8.50 91.69 7.44Q96.75 6.38 101.88 5.25L101.88 5.25Q102.25 5.13 102.56 5.06Q102.88 5 103.25 4.88L103.25 4.88L103.13 4.50Q96 5.50 88.75 6.50Q81.50 7.50 73.88 8.50L73.88 8.50Q76 9.38 77.75 9.88Q79.50 10.38 81.50 9.88Z"/></svg>