<svg xmlns="http://www.w3.org/2000/svg" xmlns:xlink="http://www.w3.org/1999/xlink" width="128" height="128"><path fill="#000000" d="M34.38 65.63L34.38 65.63Q33.38 64.75 31.81 64.38Q30.25 64 28.38 64L28.38 64Q26.38 64 24.94 64.50Q23.50 65 22.75 65.88L22.75 65.88Q22.50 65.50 22.06 65.25Q21.63 65 21.13 64.75L21.13 64.75Q20.63 64.25 20.06 63.88Q19.50 63.50 19 63.38L19 63.38Q20.13 62.63 21.63 61.56Q23.13 60.50 24.88 59L24.88 59Q17.50 59.75 12.88 61Q8.25 62.25 1.88 66.13L1.88 66.13L2.88 66.13Q2.75 67.25 2.75 68.69Q2.75 70.13 2.88 70.75L2.88 70.75Q2 72.88 2.44 74.69Q2.88 76.50 3.50 78.13L3.50 78.13Q3.50 76.13 3.50 74.44Q3.50 72.75 3 70.88L3 70.88L8.75 66.25Q8.63 66.88 8.63 67.63Q8.63 68.38 8.75 69.38L8.75 69.38L8.75 69.38L8.75 69.63L9 69.75Q9 70 9 70.38Q9 70.75 9 71L9 71L9 83L14 83L14 71.63Q14 71.25 14.13 70.88Q14.25 70.50 14.38 70.25L14.38 70.25Q15 70.13 15.56 69.94Q16.13 69.75 16.75 69.50L16.75 69.50L16.75 69.63L16.88 69.50Q17.38 69.25 17.81 69.06Q18.25 68.88 18.63 68.50L18.63 68.50Q19.25 68.88 19.63 69.69Q20 70.50 20 71.63L20 71.63L20 83L26 83L26 71.63Q26 70 26.56 69.13Q27.13 68.25 28.50 68.25L28.50 68.25Q29.88 68.25 30.44 69.13Q31 70 31 71.63L31 71.63L31 83L37 83L37 71Q37 69.25 36.31 67.94Q35.63 66.63 34.38 65.63ZM47.38 63.88L47.38 63.88Q45.25 63.88 43.50 64.56Q41.75 65.25 40.38 66.63L40.38 66.63Q39 67.88 38.31 69.63Q37.63 71.38 37.63 73.50L37.63 73.50Q37.63 75.63 38.31 77.38Q39 79.13 40.38 80.38L40.38 80.38Q41.75 81.75 43.50 82.44Q45.25 83.13 47.38 83.13L47.38 83.13Q49.50 83.13 51.25 82.44Q53 81.75 54.38 80.38L54.38 80.38Q55.75 79.13 56.44 77.38Q57.13 75.63 57.13 73.50L57.13 73.50Q57.13 71.38 56.44 69.63Q55.75 67.88 54.38 66.63L54.38 66.63Q53 65.25 51.25 64.56Q49.50 63.88 47.38 63.88L47.38 63.88ZM50.50 77.13L50.50 77.13Q49.88 77.88 49.13 78.31Q48.38 78.75 47.38 78.75L47.38 78.75Q46.38 78.75 45.56 78.31Q44.75 77.88 44.13 77.13L44.13 77.13Q43.63 76.38 43.38 75.50Q43.13 74.63 43.13 73.50L43.13 73.50Q43.13 72.50 43.44 71.56Q43.75 70.63 44.25 69.88L44.25 69.88Q44.75 69.13 45.56 68.75Q46.38 68.38 47.38 68.38L47.38 68.38Q48.38 68.38 49.19 68.75Q50 69.13 50.50 70L50.50 70Q51.13 70.75 51.38 71.63Q51.63 72.50 51.63 73.50L51.63 73.50Q51.63 74.63 51.31 75.50Q51 76.38 50.50 77.13L50.50 77.13ZM67.50 63.88L67.50 63.88Q65.38 63.88 63.63 64.56Q61.88 65.25 60.50 66.63L60.50 66.63Q59.13 67.88 58.44 69.63Q57.75 71.38 57.75 73.50L57.75 73.50Q57.75 75.63 58.44 77.38Q59.13 79.13 60.50 80.38L60.50 80.38Q62 81.75 63.69 82.44Q65.38 83.13 67.50 83.13L67.50 83.13Q69.63 83.13 71.38 82.44Q73.13 81.75 74.50 80.38L74.50 80.38Q76 79.13 76.69 77.38Q77.38 75.63 77.38 73.50L77.38 73.50Q77.38 71.38 76.69 69.63Q76 67.88 74.50 66.63L74.50 66.63Q73.25 65.25 71.44 64.56Q69.63 63.88 67.50 63.88L67.50 63.88ZM70.63 77.13L70.63 77.13Q70.13 77.88 69.31 78.31Q68.50 78.75 67.50 78.75L67.50 78.75Q66.50 78.75 65.69 78.31Q64.88 77.88 64.38 77.13L64.38 77.13Q63.88 76.38 63.63 75.50Q63.38 74.63 63.38 73.50L63.38 73.50Q63.38 72.50 63.63 71.56Q63.88 70.63 64.38 69.88L64.38 69.88Q65 69.13 65.75 68.75Q66.50 68.38 67.50 68.38L67.50 68.38Q68.50 68.38 69.31 68.75Q70.13 69.13 70.75 70L70.75 70Q71.25 70.75 71.50 71.63Q71.75 72.50 71.75 73.50L71.75 73.50Q71.75 74.63 71.50 75.50Q71.25 76.38 70.63 77.13L70.63 77.13ZM92 51L92 66.38Q92 65.25 90.38 64.63Q88.75 64 86.50 64L86.50 64Q84.50 64 83 64.69Q81.50 65.38 80.25 66.75L80.25 66.75Q79.13 68 78.56 69.69Q78 71.38 78 73.38L78 73.38Q78 75.38 78.63 77.06Q79.25 78.75 80.38 80.13L80.38 80.13Q81.63 81.50 83.25 82.19Q84.88 82.88 86.88 82.88L86.88 82.88Q87.50 82.88 88.19 82.75Q88.88 82.63 89.63 82.38L89.63 82.38Q90.50 82 91.25 81.63Q92 81.25 92 80.75L92 80.75L92 83L98 83L98 51L92 51ZM92 75.25L92 75.25Q92 75.88 91.69 76.50Q91.38 77.13 90.63 77.75L90.63 77.75Q89.88 78.38 89.25 78.69Q88.63 79 88 79L88 79Q86.88 79 86.06 78.56Q85.25 78.13 84.63 77.25L84.63 77.25Q84 76.38 83.75 75.44Q83.50 74.50 83.50 73.50L83.50 73.50Q83.50 72.38 83.81 71.38Q84.13 70.38 84.63 69.63L84.63 69.63Q85.25 68.75 86.13 68.31Q87 67.88 88 67.88L88 67.88Q88.75 67.88 89.38 68.25Q90 68.63 90.75 69.38L90.75 69.38Q91.50 70 91.75 70.75Q92 71.50 92 72.25L92 72.25L92 75.25ZM100 83L100 51L105 51L105 83L100 83ZM119.25 78.75L119.25 78.75Q118.50 79.13 117.88 79.25Q117.25 79.38 116.75 79.38L116.75 79.38Q115.88 79.38 115.13 79Q114.38 78.63 113.75 78L113.75 78Q113.13 77.38 112.69 76.56Q112.25 75.75 112 75L112 75L126.75 75Q126.75 72.75 126.06 70.63Q125.38 68.50 124.13 67.13L124.13 67.13Q122.75 65.50 120.88 64.69Q119 63.88 116.50 63.88L116.50 63.88Q114.25 63.88 112.44 64.56Q110.63 65.25 109.25 66.50L109.25 66.50Q107.88 67.88 107.13 69.63Q106.38 71.38 106.38 73.63L106.38 73.63Q106.38 75.75 107.13 77.50Q107.88 79.25 109.25 80.50L109.25 80.50Q110.63 81.88 112.44 82.56Q114.25 83.25 116.38 83.25L116.38 83.25Q118 83.25 119.50 82.81Q121 82.38 122.50 81.63L122.50 81.63Q124 80.88 125.06 79.75Q126.13 78.63 126.75 77.13L126.75 77.13L120.88 77.13Q120.88 77.63 120.44 78Q120 78.38 119.25 78.75ZM113.75 68.88L113.75 68.88Q114.38 68.25 115.13 67.94Q115.88 67.63 116.75 67.63L116.75 67.63Q117.50 67.63 118.25 68Q119 68.38 119.63 69L119.63 69Q120.25 69.50 120.63 70.38Q121 71.25 121.13 72L121.13 72L112.25 72Q112.38 71.25 112.81 70.38Q113.25 69.50 113.75 68.88Z"/></svg>