<svg xmlns="http://www.w3.org/2000/svg" xmlns:xlink="http://www.w3.org/1999/xlink" width="128" height="128"><path fill="#ffffff" d="M116.63 45L116.63 45Q112.88 42.13 107.50 40.69Q102.13 39.25 95.63 39.25L95.63 39.25Q88.38 39.25 83.31 40.94Q78.25 42.63 75.63 46.13L75.63 46.13Q74.38 44.75 72.88 43.69Q71.38 42.63 69.63 41.88L69.63 41.88Q67.88 40 65.94 38.81Q64 37.63 62.13 37.13L62.13 37.13Q66.38 34.38 71.56 30.56Q76.75 26.75 83.13 21.75L83.13 21.75Q70.13 23 60 24.63L60 24.63Q49.88 26.13 40.69 28.75Q31.50 31.38 22.25 35.63L22.25 35.63Q13 39.88 1.88 46.63L1.88 46.63Q2.75 46.63 3.69 46.63Q4.63 46.63 5.38 46.63L5.38 46.63Q4.88 50.75 5 55.94Q5.13 61.13 5.25 63L5.25 63Q2.25 70.63 3.94 76.94Q5.63 83.25 7.75 88.88L7.75 88.88Q7.75 82.13 7.69 76.25Q7.63 70.38 5.75 63.38L5.75 63.38L26 47.25Q25.75 49.50 25.81 52.19Q25.88 54.88 26.25 58.13L26.25 58.13L26.38 58.13L26.13 59.25L27 59.38Q26.88 60.63 26.94 61.75Q27 62.88 27 64.13L27 64.13L27 106L45 106L45 66.38Q45 64.88 45.38 63.56Q45.75 62.25 46 61.13L46 61.13Q48.13 60.88 50.25 60.25Q52.38 59.63 54.25 58.88L54.25 58.88L54.38 59.25Q54.50 59.13 54.63 58.94Q54.75 58.75 54.88 58.63L54.88 58.63Q56.50 57.88 58 57.06Q59.50 56.25 60.88 55.25L60.88 55.25Q63.38 56.63 64.69 59.38Q66 62.13 66 66.38L66 66.38L66 106L87 106L87 66.38Q87 60.25 89 57.25Q91 54.25 96 54.25L96 54.25Q101 54.25 103 57.25Q105 60.25 105 66.38L105 66.38L105 106L126 106L126 64.13Q126 57.88 123.56 53.13Q121.13 48.38 116.63 45L116.63 45Z"/></svg>