<svg xmlns="http://www.w3.org/2000/svg" xmlns:xlink="http://www.w3.org/1999/xlink" width="128" height="128"><path fill="#000000" d="M87 52.38L87 52.38Q81.38 53.13 80.44 57.38Q79.50 61.63 79.50 61.63L79.50 61.63L94.38 61.63Q94.50 61.63 93.81 57Q93.13 52.38 87 52.38L87 52.38ZM44.63 38.75L38.25 63.13L51 63.13L44.63 38.75ZM128 0L0 0L0 128L128 128L128 0ZM57.50 88.63L57.50 88.63L53 72.50L36.25 72.50L31.75 88.63L22.38 88.63L38.38 33.75L38.38 29.88L50.63 29.88L67.88 88.63L57.50 88.63ZM103.38 69L103.50 69L79.50 69Q80.25 76.25 83.63 78.63L83.63 78.63Q87 81.13 90.81 81.19Q94.63 81.25 97.63 80.13L97.63 80.13Q100.75 79 100.75 79L100.75 79L100.75 87Q100.75 87 98.38 88.31Q96 89.63 85.88 89.63L85.88 89.63Q75.75 89.63 72.69 80.44Q69.63 71.25 69.63 71.25L69.63 71.25L69.63 66.63Q69.63 66.63 70 63.13L70 63.13Q70.50 59.75 72.25 55.63Q74 51.50 77.50 48L77.50 48Q80.88 44.63 86.88 44.63L86.88 44.63Q98.88 44.63 101.13 51.94Q103.38 59.25 103.38 59.25L103.38 59.25L103.38 69Z"/></svg>