<svg xmlns="http://www.w3.org/2000/svg" xmlns:xlink="http://www.w3.org/1999/xlink" width="128" height="128"><path fill="#000000" d="M55.38 66.50L55.38 66.50L63.75 66.50L59.38 59.38L51.25 72.25L47.50 72.25L57.38 56.75Q57.75 56.38 58.25 56.06Q58.75 55.75 59.38 55.75L59.38 55.75Q59.88 55.75 60.38 56.06Q60.88 56.38 61.25 56.75L61.25 56.75L71.13 72.25L67.38 72.25L65.63 69.38L57.25 69.38L55.38 66.50ZM93.63 69.38L93.63 69.38L93.63 56L90.50 56L90.50 70.63Q90.50 71 90.63 71.25Q90.75 71.50 91 71.75L91 71.75Q91.13 72 91.44 72.13Q91.75 72.25 92.13 72.25L92.13 72.25L106.38 72.25L108.13 69.38L93.63 69.38ZM42 66.88L42 66.88Q44.25 66.88 45.88 65.31Q47.50 63.75 47.50 61.50L47.50 61.50Q47.50 59.13 45.88 57.56Q44.25 56 42 56L42 56L28.25 56L28.25 72.25L31.38 72.25L31.38 58.88L41.75 58.88Q42.88 58.88 43.63 59.63Q44.38 60.38 44.38 61.50L44.38 61.50Q44.38 62.50 43.63 63.31Q42.88 64.13 41.75 64.13L41.75 64.13L32.88 64.13L42.25 72.25L46.75 72.25L40.50 66.88L42 66.88ZM9 72.25L9 72.25Q5.75 72.25 3.31 69.88Q0.88 67.50 0.88 64.13L0.88 64.13Q0.88 60.75 3.31 58.38Q5.75 56 9 56L9 56L18.50 56Q21.88 56 24.25 58.38Q26.63 60.75 26.63 64.13L26.63 64.13Q26.63 67.50 24.25 69.88Q21.88 72.25 18.50 72.25L18.50 72.25L9 72.25ZM9.25 69.38L18.25 69.38Q20.50 69.38 22 67.81Q23.50 66.25 23.50 64.13L23.50 64.13Q23.50 61.88 22 60.38Q20.50 58.88 18.25 58.88L18.25 58.88L9.25 58.88Q7.13 58.88 5.56 60.38Q4 61.88 4 64.13L4 64.13Q4 66.25 5.56 67.81Q7.13 69.38 9.25 69.38L9.25 69.38ZM77.63 72.25L77.63 72.25Q74.25 72.25 71.88 69.88Q69.50 67.50 69.50 64.13L69.50 64.13Q69.50 60.75 71.88 58.38Q74.25 56 77.63 56L77.63 56L88.88 56L87 58.88L77.75 58.88Q75.63 58.88 74.06 60.38Q72.50 61.88 72.50 64.13L72.50 64.13Q72.50 66.25 74.06 67.81Q75.63 69.38 77.75 69.38L77.75 69.38L89.13 69.38L87.25 72.25L77.63 72.25ZM115.75 69.38L115.75 69.38Q114 69.38 112.63 68.25Q111.25 67.13 110.75 65.50L110.75 65.50L124.13 65.50L125.88 62.63L110.75 62.63Q111.25 61 112.63 59.94Q114 58.88 115.75 58.88L115.75 58.88L125 58.88L126.88 56L115.63 56Q112.25 56 109.88 58.38Q107.50 60.75 107.50 64.13L107.50 64.13Q107.50 67.50 109.88 69.88Q112.25 72.25 115.63 72.25L115.63 72.25L125.25 72.25L127.13 69.38L115.75 69.38Z"/></svg>