<svg xmlns="http://www.w3.org/2000/svg" xmlns:xlink="http://www.w3.org/1999/xlink" width="128" height="128"><path fill="#000000" d="M52.25 9.63L52.25 9.63Q48.25 10.50 44.31 11.75Q40.38 13 36.75 14.88L36.75 14.88Q36.88 18.13 37.06 21.31Q37.25 24.50 37.75 27.63L37.75 27.63Q36.25 28.50 34.81 29.38Q33.38 30.25 32 31.38L32 31.38Q30.63 32.38 29.31 33.44Q28 34.50 26.75 35.63L26.75 35.63Q24.50 34.25 22.06 32.75Q19.63 31.25 17 30L17 30L16.38 29.63Q13.50 32.75 10.88 36.13Q8.25 39.50 6 43.25L6 43.25Q7.75 46 9.56 48.63Q11.38 51.25 13.13 53.38L13.13 53.38L13.13 84.13Q13.13 84.13 13.19 84.13Q13.25 84.13 13.25 84.13L13.25 84.13L32.13 86Q32.88 86 33.38 86.56Q33.88 87.13 33.88 87.88L33.88 87.88L33.88 87.88L34.50 96.13L50.88 97.38L52 89.63Q52.13 88.88 52.69 88.38Q53.25 87.88 54.13 87.88L54.13 87.88L73.88 87.88Q74.75 87.88 75.31 88.38Q75.88 88.88 76 89.63L76 89.63L76 89.63L77.13 97.38L93.50 96.13L94.13 87.88Q94.13 87.13 94.63 86.56Q95.13 86 95.88 86L95.88 86L95.88 86L114.75 84.13Q114.75 84.13 114.81 84.13Q114.88 84.13 114.88 84.13L114.88 84.13L114.88 81.75L114.88 81.75L114.88 53.38Q116.88 50.88 118.69 48.25Q120.50 45.63 122 43.25L122 43.25Q119.75 39.50 117.13 36.13Q114.50 32.75 111.63 29.63L111.63 29.63Q108.50 31.25 105.94 32.75Q103.38 34.25 100.88 35.88L100.88 35.88L101.25 35.63Q100 34.50 98.69 33.44Q97.38 32.38 96 31.38L96 31.38Q94.63 30.25 93.19 29.38Q91.75 28.50 90.25 27.63L90.25 27.63Q90.75 24.50 90.94 21.31Q91.13 18.13 91.25 14.88L91.25 14.88Q87.63 13 83.69 11.75Q79.75 10.50 75.75 9.63L75.75 9.63Q74.25 12.25 72.81 15.13Q71.38 18 70 20.75L70 20.75Q68.50 20.50 67 20.44Q65.50 20.38 64 20.25L64 20.25L64 20.25Q64 20.25 64 20.25Q64 20.25 64 20.25L64 20.25Q64 20.25 64 20.25Q64 20.25 64 20.25L64 20.25L64 20.25Q62.50 20.38 61 20.44Q59.50 20.50 58 20.75L58 20.75Q56.63 18 55.19 15.13Q53.75 12.25 52.25 9.63L52.25 9.63ZM37.25 54.50L37.25 54.50Q42 54.50 45.31 57.88Q48.63 61.25 48.63 65.88L48.63 65.88Q48.63 70.63 45.31 73.94Q42 77.25 37.25 77.25L37.25 77.25Q32.63 77.25 29.31 73.94Q26 70.63 26 65.88L26 65.88Q26 61.25 29.31 57.88Q32.63 54.50 37.25 54.50L37.25 54.50ZM90.75 54.50L90.75 54.50Q95.38 54.50 98.69 57.88Q102 61.25 102 65.88L102 65.88Q102 70.63 98.69 73.94Q95.38 77.25 90.75 77.25L90.75 77.25Q86 77.25 82.69 73.94Q79.38 70.63 79.38 65.88L79.38 65.88Q79.38 61.25 82.69 57.88Q86 54.50 90.75 54.50L90.75 54.50ZM64 61.25L64 61.25Q65.50 61.25 66.56 62.19Q67.63 63.13 67.63 64.50L67.63 64.50L67.63 75Q67.63 76.38 66.56 77.31Q65.50 78.25 64 78.25L64 78.25Q62.50 78.25 61.44 77.31Q60.38 76.38 60.38 75L60.38 75L60.38 64.50Q60.38 63.13 61.44 62.19Q62.50 61.25 64 61.25L64 61.25ZM114.88 88.25L98 89.88L97.38 98.25Q97.38 99 96.81 99.50Q96.25 100 95.50 100.13L95.50 100.13L95.50 100.13L75.50 101.50Q75.50 101.50 75.44 101.50Q75.38 101.50 75.38 101.50L75.38 101.50Q74.63 101.50 74.06 101Q73.50 100.50 73.38 99.75L73.38 99.75L72.13 92L55.88 92L54.63 99.75Q54.50 100.50 53.94 101Q53.38 101.50 52.63 101.50L52.63 101.50Q52.63 101.50 52.56 101.50Q52.50 101.50 52.50 101.50L52.50 101.50L52.50 101.50L32.50 100.13Q31.75 100 31.19 99.50Q30.63 99 30.63 98.25L30.63 98.25L30.63 98.25L30 89.88L13 88.25Q13 89.63 13.06 90.88Q13.13 92.13 13.13 92.38L13.13 92.38Q13.13 99.13 17.13 104.13L17.13 104.13Q21 109.13 27.94 112.38Q34.88 115.63 44.13 117.38L44.13 117.38Q53.38 119 64 119L64 119L64 119Q74.63 119 83.88 117.38L83.88 117.38Q93.13 115.63 100 112.38Q106.88 109.13 110.88 104.13L110.88 104.13Q114.88 99.13 114.88 92.38L114.88 92.38Q114.88 92.13 114.88 90.88Q114.88 89.63 114.88 88.25L114.88 88.25ZM45.88 66.63L45.88 66.63Q45.88 66.63 45.88 66.63Q45.88 66.63 45.88 66.63L45.88 66.63Q45.88 69.63 43.69 71.88Q41.50 74.13 38.38 74.13L38.38 74.13Q38.38 74.13 38.38 74.13Q38.38 74.13 38.38 74.13L38.38 74.13L38.38 74.13Q38.38 74.13 38.38 74.13Q38.38 74.13 38.38 74.13L38.38 74.13Q35.25 74.13 33.06 71.88Q30.88 69.63 30.88 66.63L30.88 66.63L30.88 66.63Q30.88 63.50 33.06 61.25Q35.25 59 38.38 59L38.38 59Q38.38 59 38.38 59Q38.38 59 38.38 59L38.38 59L38.38 59Q38.38 59 38.38 59Q38.38 59 38.38 59L38.38 59Q41.50 59 43.69 61.25Q45.88 63.50 45.88 66.63L45.88 66.63L45.88 66.63ZM82.13 66.63L82.13 66.63Q82.13 66.63 82.13 66.63Q82.13 66.63 82.13 66.63L82.13 66.63Q82.13 69.63 84.31 71.88Q86.50 74.13 89.63 74.13L89.63 74.13Q89.63 74.13 89.63 74.13Q89.63 74.13 89.63 74.13L89.63 74.13L89.63 74.13Q92.75 74.13 94.94 71.88Q97.13 69.63 97.13 66.63L97.13 66.63Q97.13 63.50 94.94 61.25Q92.75 59 89.63 59L89.63 59L89.63 59Q86.50 59 84.31 61.25Q82.13 63.50 82.13 66.63L82.13 66.63Q82.13 66.63 82.13 66.63Q82.13 66.63 82.13 66.63L82.13 66.63L82.13 66.63Z"/></svg>