<svg xmlns="http://www.w3.org/2000/svg" xmlns:xlink="http://www.w3.org/1999/xlink" width="128" height="128"><path fill="#ffffff" d="M38.88 106.25L38.88 106.25Q37.88 106.25 37.06 106.69Q36.25 107.13 35.63 108L35.63 108Q34.88 108.88 34.56 110.19Q34.25 111.50 34.25 113.13L34.25 113.13Q34.25 114.75 34.56 115.94Q34.88 117.13 35.50 118L35.50 118Q36.13 118.88 37 119.31Q37.88 119.75 38.88 119.75L38.88 119.75Q39.88 119.75 40.75 119.31Q41.63 118.88 42.25 118L42.25 118Q42.88 117.13 43.19 115.88Q43.50 114.63 43.50 113L43.50 113Q43.50 111.38 43.19 110.13Q42.88 108.88 42.13 108L42.13 108Q41.50 107.13 40.69 106.69Q39.88 106.25 38.88 106.25L38.88 106.25ZM38.88 127.75L38.88 127.75Q36 127.75 33.63 126.81Q31.25 125.88 29.50 124L29.50 124Q27.63 122.13 26.75 119.38Q25.88 116.63 25.88 113L25.88 113Q25.88 109.38 26.75 106.69Q27.63 104 29.50 102.13L29.50 102.13Q31.38 100.25 33.75 99.31Q36.13 98.38 39 98.38L39 98.38Q41.88 98.38 44.25 99.31Q46.63 100.25 48.38 102L48.38 102Q50.13 103.88 51 106.63Q51.88 109.38 51.88 113.13L51.88 113.13Q51.88 116.88 51 119.63Q50.13 122.38 48.25 124.13L48.25 124.13Q46.50 126 44.13 126.88Q41.75 127.75 38.88 127.75L38.88 127.75ZM63.88 106.38L63.38 106.38L63.38 118.63Q63.38 119.13 63.44 119.38Q63.50 119.63 63.50 119.75L63.50 119.75Q63.63 119.88 63.81 119.94Q64 120 64.25 120L64.25 120Q65.38 120 66.25 119.56Q67.13 119.13 67.75 118.25L67.75 118.25Q68.25 117.38 68.56 116Q68.88 114.63 68.88 112.63L68.88 112.63Q68.88 110.75 68.56 109.44Q68.25 108.13 67.63 107.63L67.63 107.63Q67.13 107 66.13 106.69Q65.13 106.38 63.88 106.38L63.88 106.38ZM55.50 125.38L55.50 125.38L55.50 100.88Q55.50 100.38 55.63 99.94Q55.75 99.50 56.13 99.25L56.13 99.25Q56.38 98.88 56.69 98.75Q57 98.63 57.38 98.63L57.38 98.63L64.25 98.63Q67.50 98.63 70 99.44Q72.50 100.25 74.13 101.88L74.13 101.88Q75.88 103.50 76.69 106.13Q77.50 108.75 77.50 112.25L77.50 112.25Q77.50 119.75 74.31 123.50Q71.13 127.25 64.63 127.25L64.63 127.25L57.63 127.25Q56.63 127.25 56.06 126.81Q55.50 126.38 55.50 125.38L55.50 125.38ZM93.50 106.25L93.50 106.25Q92.50 106.25 91.69 106.69Q90.88 107.13 90.13 108L90.13 108Q89.50 108.88 89.19 110.19Q88.88 111.50 88.88 113.13L88.88 113.13Q88.88 114.75 89.19 115.94Q89.50 117.13 90.13 118L90.13 118Q90.75 118.88 91.56 119.31Q92.38 119.75 93.50 119.75L93.50 119.75Q94.50 119.75 95.31 119.31Q96.13 118.88 96.88 118L96.88 118Q97.50 117.13 97.81 115.88Q98.13 114.63 98.13 113L98.13 113Q98.13 111.38 97.81 110.13Q97.50 108.88 96.75 108L96.75 108Q96.13 107.13 95.31 106.69Q94.50 106.25 93.50 106.25L93.50 106.25ZM93.50 127.75L93.50 127.75Q90.63 127.75 88.25 126.81Q85.88 125.88 84.13 124L84.13 124Q82.25 122.13 81.31 119.38Q80.38 116.63 80.38 113L80.38 113Q80.38 109.38 81.31 106.69Q82.25 104 84.13 102.13L84.13 102.13Q86 100.25 88.31 99.31Q90.63 98.38 93.63 98.38L93.63 98.38Q96.50 98.38 98.81 99.31Q101.13 100.25 103 102L103 102Q104.75 103.88 105.63 106.63Q106.50 109.38 106.50 113.13L106.50 113.13Q106.50 116.88 105.63 119.63Q104.75 122.38 102.88 124.13L102.88 124.13Q101 126 98.69 126.88Q96.38 127.75 93.50 127.75L93.50 127.75ZM121.88 106L121.88 126.50Q121.88 126.88 120.88 127.06Q119.88 127.25 117.75 127.25L117.75 127.25Q115.75 127.25 114.75 127.06Q113.75 126.88 113.75 126.50L113.75 126.50L113.75 106L108.88 106Q108.50 106 108.25 105.56Q108 105.13 107.88 104.13L107.88 104.13Q107.75 103.75 107.75 103.31Q107.75 102.88 107.75 102.38L107.75 102.38Q107.75 102.38 107.75 102.38Q107.75 102.38 107.75 102.38L107.75 102.38L107.75 102.38Q107.75 101.88 107.75 101.44Q107.75 101 107.88 100.50L107.88 100.50Q108 99.63 108.25 99.13Q108.50 98.63 108.88 98.63L108.88 98.63L126.63 98.63Q127 98.63 127.25 99.13Q127.50 99.63 127.63 100.50L127.63 100.50Q127.75 101 127.75 101.44Q127.75 101.88 127.75 102.38L127.75 102.38Q127.75 102.75 127.75 103.25Q127.75 103.75 127.63 104.13L127.63 104.13Q127.50 105.13 127.25 105.56Q127 106 126.63 106L126.63 106L121.88 106ZM18.50 112.13L18.50 112.13Q16.88 112.13 15.31 112.38Q13.75 112.63 13.75 112.63L13.75 112.63L13.75 116.88L16.38 116.88L16.25 118.75Q16.25 119.38 15.75 119.63Q15.25 119.88 14.13 119.88L14.13 119.88Q13.13 119.88 12.19 119.44Q11.25 119 10.38 118.13L10.38 118.13Q9.63 117.25 9.19 115.94Q8.75 114.63 8.75 112.88L8.75 112.88Q8.75 111.13 9.19 109.88Q9.63 108.63 10.38 107.88L10.38 107.88Q11.13 107 12.19 106.63Q13.25 106.25 14.50 106.25L14.50 106.25Q15 106.25 15.56 106.31Q16.13 106.38 16.75 106.50L16.75 106.50Q17.38 106.75 17.75 106.88Q18.13 107 18.25 107.25L18.25 107.25Q18.50 107.38 18.69 107.44Q18.88 107.50 19 107.50L19 107.50Q19.25 107.50 19.50 107.31Q19.75 107.13 20.13 106.63L20.13 106.63Q20.50 106.25 20.88 105.63Q21.25 105 21.50 104.25L21.50 104.25Q21.88 103.38 22 102.75Q22.13 102.13 22.13 101.63L22.13 101.63Q22.13 101.25 22.13 100.94Q22.13 100.63 22.13 100.38L22.13 100.38Q21.75 100 20.94 99.63Q20.13 99.25 19 99L19 99Q17.75 98.63 16.44 98.50Q15.13 98.38 13.75 98.38L13.75 98.38Q10.63 98.38 8.13 99.38Q5.63 100.38 3.88 102.38L3.88 102.38Q2 104.38 1.13 106.94Q0.25 109.50 0.25 112.63L0.25 112.63Q0.25 116.38 1.19 119.19Q2.13 122 3.88 123.88L3.88 123.88Q5.75 125.88 8.13 126.81Q10.50 127.75 13.50 127.75L13.50 127.75Q15.13 127.75 16.56 127.63Q18 127.50 19.25 127.25L19.25 127.25Q20.50 126.88 21.31 126.63Q22.13 126.38 22.50 126.13L22.50 126.13L22.75 113.25Q22.75 112.75 21.44 112.50Q20.13 112.25 18.50 112.13L18.50 112.13ZM55.75 0L55.75 0Q53 0.63 50.25 1.50Q47.50 2.38 44.88 3.75L44.88 3.75Q45 6 45.13 8.19Q45.25 10.38 45.63 12.50L45.63 12.50Q44.63 13.25 43.56 13.81Q42.50 14.38 41.63 15.13L41.63 15.13Q40.63 15.88 39.69 16.56Q38.75 17.25 37.88 18.13L37.88 18.13Q36.38 17.13 34.63 16.13Q32.88 15.13 31.13 14.13L31.13 14.13L30.75 14Q28.63 16.13 26.81 18.50Q25 20.88 23.38 23.50L23.38 23.50Q24.63 25.38 25.88 27.19Q27.13 29 28.38 30.50L28.38 30.50L28.38 51.88Q28.38 51.88 28.44 51.88Q28.50 51.88 28.50 51.88L28.50 51.88L41.63 53.25Q42.25 53.25 42.56 53.63Q42.88 54 43 54.50L43 54.50L43 54.50L43.38 60.25L54.88 61.13L55.63 55.75Q55.75 55.25 56.13 54.88Q56.50 54.50 57 54.50L57 54.50Q57 54.50 57 54.50Q57 54.50 57 54.50L57 54.50L71 54.50Q71.50 54.50 71.88 54.88Q72.25 55.25 72.38 55.75L72.38 55.75L73.13 61.13L84.63 60.25L85 54.50Q85.13 54 85.44 53.63Q85.75 53.25 86.38 53.25L86.38 53.25L86.38 53.25L99.50 51.88Q99.50 51.88 99.56 51.88Q99.63 51.88 99.63 51.88L99.63 51.88L99.63 50.25L99.63 50.25L99.63 30.50Q101 28.75 102.31 26.94Q103.63 25.13 104.63 23.50L104.63 23.50Q103 20.88 101.19 18.50Q99.38 16.13 97.25 14L97.25 14Q95.13 15 93.31 16.13Q91.50 17.25 89.88 18.38L89.88 18.38L90.13 18.13Q89.25 17.25 88.31 16.56Q87.38 15.88 86.38 15.13L86.38 15.13Q85.50 14.38 84.44 13.81Q83.38 13.25 82.38 12.50L82.38 12.50Q82.75 10.38 82.88 8.19Q83 6 83.13 3.63L83.13 3.63Q80.50 2.38 77.75 1.50Q75 0.63 72.25 0L72.25 0Q71.13 1.88 70.13 3.88Q69.13 5.88 68.25 7.75L68.25 7.75Q67.25 7.63 66.19 7.56Q65.13 7.50 64 7.50L64 7.50L64 7.50Q62.88 7.50 61.81 7.56Q60.75 7.63 59.75 7.75L59.75 7.75Q58.88 5.88 57.88 3.88Q56.88 1.88 55.75 0L55.75 0ZM45.38 31.25L45.38 31.25Q48.63 31.25 50.94 33.56Q53.25 35.88 53.25 39.25L53.25 39.25Q53.25 42.50 50.94 44.81Q48.63 47.13 45.38 47.13L45.38 47.13Q42 47.13 39.69 44.81Q37.38 42.50 37.38 39.25L37.38 39.25Q37.38 35.88 39.69 33.56Q42 31.25 45.38 31.25ZM82.63 31.25L82.63 31.25Q86 31.25 88.31 33.56Q90.63 35.88 90.63 39.25L90.63 39.25Q90.63 42.50 88.31 44.81Q86 47.13 82.63 47.13L82.63 47.13Q79.38 47.13 77.06 44.81Q74.75 42.50 74.75 39.25L74.75 39.25Q74.75 35.88 77.06 33.56Q79.38 31.25 82.63 31.25ZM64 35.88L64 35.88Q65 35.88 65.75 36.56Q66.50 37.25 66.50 38.25L66.50 38.25L66.50 45.50Q66.50 46.50 65.75 47.19Q65 47.88 64 47.88L64 47.88Q63 47.88 62.25 47.19Q61.50 46.50 61.50 45.50L61.50 45.50L61.50 38.25Q61.50 37.25 62.25 36.56Q63 35.88 64 35.88ZM99.75 54.88L87.88 56L87.50 61.75Q87.38 62.38 87 62.75Q86.63 63.13 86.13 63.13L86.13 63.13L86.13 63.13L72 64.13Q72 64.13 72 64.13Q72 64.13 72 64.13L72 64.13Q71.38 64.13 71 63.75Q70.63 63.38 70.50 62.88L70.50 62.88L69.75 57.50L58.25 57.50L57.50 62.88Q57.38 63.50 56.94 63.81Q56.50 64.13 56 64.13L56 64.13L41.88 63.13Q41.38 63.13 41 62.75Q40.63 62.38 40.50 61.75L40.50 61.75L40.50 61.75L40.13 56L28.25 54.88Q28.25 55.75 28.25 56.69Q28.25 57.63 28.25 57.75L28.25 57.75Q28.25 62.50 31.13 65.88L31.13 65.88Q33.88 69.38 38.69 71.69Q43.50 74 50 75.13L50 75.13Q56.50 76.25 64 76.25L64 76.25L64 76.25Q71.50 76.25 78 75.13L78 75.13Q84.50 74 89.31 71.69Q94.13 69.38 96.88 65.88L96.88 65.88Q99.75 62.50 99.75 57.75L99.75 57.75Q99.75 57.63 99.75 56.69Q99.75 55.75 99.75 54.88L99.75 54.88ZM51.50 39.88L51.50 39.88Q51.50 42 49.94 43.50Q48.38 45 46.13 45L46.13 45Q43.88 45 42.38 43.50Q40.88 42 40.88 39.88L40.88 39.88Q40.88 37.63 42.38 36.13Q43.88 34.63 46.13 34.63L46.13 34.63Q48.38 34.63 49.94 36.13Q51.50 37.63 51.50 39.88ZM76.50 39.88L76.50 39.88Q76.50 42 78.06 43.50Q79.63 45 81.88 45L81.88 45Q84.13 45 85.63 43.50Q87.13 42 87.13 39.88L87.13 39.88Q87.13 37.63 85.63 36.13Q84.13 34.63 81.88 34.63L81.88 34.63Q79.63 34.63 78.06 36.13Q76.50 37.63 76.50 39.88Z"/></svg>