<svg xmlns="http://www.w3.org/2000/svg" xmlns:xlink="http://www.w3.org/1999/xlink" width="128" height="128"><path fill="#000000" d="M126.88 81.25L126.88 81.25L80.88 126.88Q80.75 127 80.56 127.06Q80.38 127.13 80.25 127L80.25 127L17.38 110.25Q17.25 110.25 17.13 110.13Q17 110 17 109.88L17 109.88L0 47.38Q0 47.25 0.06 47.06Q0.13 46.88 0.25 46.75L0.25 46.75L46.25 1.13Q46.38 1 46.56 0.94Q46.75 0.88 46.88 1L46.88 1L109.63 17.75Q109.88 17.75 110 17.88Q110.13 18 110.13 18.13L110.13 18.13L127 80.50Q127.13 80.75 127.06 80.94Q127 81.13 126.88 81.25L126.88 81.25ZM65.25 31.50L65.25 31.50L3.50 47.88Q3.50 47.88 3.44 48Q3.38 48.13 3.38 48.13L3.38 48.13L48.63 93Q48.63 93.13 48.75 93.06Q48.88 93 48.88 92.88L48.88 92.88L65.38 31.63Q65.50 31.63 65.44 31.56Q65.38 31.50 65.25 31.50L65.25 31.50Z"/></svg>