<svg xmlns="http://www.w3.org/2000/svg" xmlns:xlink="http://www.w3.org/1999/xlink" width="128" height="128"><path fill="#ffffff" d="M100.75 98.75L100.75 98.75L72 127.25Q71.88 127.38 71.75 127.44Q71.63 127.50 71.63 127.38L71.63 127.38L32.25 116.88Q32.13 116.88 32.06 116.81Q32 116.75 32 116.63L32 116.63L21.38 77.50Q21.25 77.38 21.31 77.31Q21.38 77.25 21.50 77.13L21.50 77.13L50.25 48.63Q50.38 48.50 50.50 48.44Q50.63 48.38 50.63 48.50L50.63 48.50L90 58.88Q90.13 59 90.19 59.06Q90.25 59.13 90.25 59.25L90.25 59.25L100.88 98.25Q100.88 98.38 100.88 98.50Q100.88 98.63 100.75 98.75L100.75 98.75ZM62.25 67.63L62.25 67.63L23.50 77.88Q23.50 77.88 23.50 77.94Q23.50 78 23.50 78L23.50 78L51.75 106.13Q51.75 106.13 51.88 106.13Q52 106.13 52 106L52 106L62.25 67.63Q62.38 67.63 62.31 67.56Q62.25 67.50 62.25 67.63L62.25 67.63ZM17 28.88L17 28.88L17.38 31.75Q16.13 32.13 14.50 32.31Q12.88 32.50 11 32.50L11 32.50Q8.63 32.50 7 31.94Q5.38 31.38 4.50 30.13L4.50 30.13Q3.50 28.88 3 26.88Q2.50 24.88 2.50 21.88L2.50 21.88Q2.50 19 3 16.94Q3.50 14.88 4.50 13.75L4.50 13.75Q5.38 12.50 7 11.94Q8.63 11.38 11 11.38L11 11.38Q12.75 11.38 14.19 11.50Q15.63 11.63 16.88 12L16.88 12L16.63 14.88Q15.38 14.75 13.94 14.69Q12.50 14.63 11.13 14.63L11.13 14.63Q11.13 14.63 11.06 14.63Q11 14.63 11 14.63L11 14.63L11 14.63Q9.75 14.63 8.88 15.06Q8 15.50 7.50 16.25L7.50 16.25Q7 17 6.75 18.44Q6.50 19.88 6.50 22L6.50 22Q6.50 24.13 6.75 25.56Q7 27 7.50 27.75L7.50 27.75Q8 28.50 8.88 28.88Q9.75 29.25 11 29.25L11 29.25Q12.88 29.25 14.38 29.19Q15.88 29.13 17 28.88L17 28.88ZM34.25 25.75L34.25 25.75L36.13 32.13L32 32.13L30.38 25.75Q30.13 24.88 29.50 24.44Q28.88 24 28 24L28 24L24.25 24L24.25 32.13L20.50 32.13L20.50 11.63Q21.88 11.50 23.75 11.44Q25.63 11.38 28.13 11.38L28.13 11.38Q30.13 11.38 31.50 11.69Q32.88 12 33.63 12.75L33.63 12.75Q34.50 13.38 34.88 14.56Q35.25 15.75 35.25 17.38L35.25 17.38Q35.25 18.63 35.06 19.50Q34.88 20.38 34.38 21L34.38 21Q34 21.63 33.19 22.06Q32.38 22.50 31.38 22.63L31.38 22.63L31.38 22.75Q31.88 22.88 32.25 23.13Q32.63 23.38 33.13 23.75L33.13 23.75Q33.50 24 33.81 24.50Q34.13 25 34.25 25.75L34.25 25.75ZM30.75 20.13L30.75 20.13Q31.13 19.75 31.31 19.13Q31.50 18.50 31.50 17.63L31.50 17.63Q31.50 16.63 31.31 16Q31.13 15.38 30.75 15L30.75 15Q30.38 14.75 29.75 14.56Q29.13 14.38 28 14.38L28 14.38L24.38 14.38L24.38 20.88L28 20.88Q29.13 20.88 29.75 20.69Q30.38 20.50 30.75 20.13ZM88.50 14.75L88.50 11.63L72 11.63L72 14.75L78.25 14.75L78.25 32.13L82.13 32.13L82.13 14.75L88.50 14.75ZM100.13 12.63L100.13 12.63L106.38 32.13L102.50 32.13L100.75 26.25L93.13 26.25L91.50 32.13L87.63 32.13L93.75 12.63Q93.88 12.13 94.25 11.88Q94.63 11.63 95.13 11.63L95.13 11.63L98.88 11.63Q99.38 11.63 99.69 11.88Q100 12.13 100.13 12.63L100.13 12.63ZM94 23.25L99.88 23.25L97.75 16.25Q97.63 15.38 97.50 14.94Q97.38 14.50 97.38 14.50L97.38 14.50L96.50 14.50L96 16.25L94 23.25ZM121.50 32L121.50 29L114.25 29Q113.75 29 113.38 28.94Q113 28.88 112.88 28.75L112.88 28.75Q112.63 28.50 112.56 28.19Q112.50 27.88 112.50 27.38L112.50 27.38L112.50 11.63L108.63 11.63L108.63 27.88Q108.63 30.13 109.81 31.19Q111 32.25 113.38 32.25L113.38 32.25Q116 32.25 118.06 32.13Q120.13 32 121.50 32L121.50 32ZM50.38 11.63L46.63 19.63Q46.50 19.88 46.25 20.50Q46 21.13 45.75 22.13L45.75 22.13L45.50 22.13Q45.13 21.13 44.94 20.50Q44.75 19.88 44.63 19.63L44.63 19.63L40.88 11.63L36.88 11.63L43.75 25.25L43.75 32.25L47.50 32.25L47.50 25.25L54.25 11.63L50.38 11.63ZM65.75 20.75L65.75 20.75L61.75 19.50Q61.13 19.38 60.69 19.13Q60.25 18.88 60 18.63L60 18.63Q59.75 18.38 59.63 17.88Q59.50 17.38 59.50 16.75L59.50 16.75Q59.50 16 59.69 15.56Q59.88 15.13 60.25 14.88L60.25 14.88Q60.63 14.63 61.31 14.50Q62 14.38 63 14.38L63 14.38Q64.38 14.38 65.94 14.44Q67.50 14.50 69.13 14.50L69.13 14.50L69.38 12Q68.13 11.63 66.50 11.44Q64.88 11.25 63 11.25L63 11.25Q61 11.25 59.63 11.50Q58.25 11.75 57.38 12.25L57.38 12.25Q56.63 12.88 56.25 13.94Q55.88 15 55.88 16.75L55.88 16.75Q55.88 17.88 56.13 18.88Q56.38 19.88 56.88 20.50L56.88 20.50Q57.38 21.25 58.13 21.81Q58.88 22.38 60 22.75L60 22.75L64.25 24Q64.88 24.13 65.31 24.38Q65.75 24.63 66 24.88L66 24.88Q66.13 25.13 66.25 25.63Q66.38 26.13 66.38 26.75L66.38 26.75Q66.38 27.50 66.25 28Q66.13 28.50 65.75 28.75L65.75 28.75Q65.38 29 64.69 29.13Q64 29.25 63 29.25L63 29.25Q62.38 29.25 60.75 29.19Q59.13 29.13 56.50 29.13L56.50 29.13L56.25 31.88Q57.88 32.13 59.56 32.31Q61.25 32.50 63 32.50L63 32.50Q65 32.50 66.44 32.19Q67.88 31.88 68.63 31.25L68.63 31.25Q69.50 30.75 69.88 29.56Q70.25 28.38 70.25 26.75L70.25 26.75Q70.25 25.63 70 24.63Q69.75 23.63 69.25 22.88L69.25 22.88Q68.63 22.25 67.81 21.69Q67 21.13 65.75 20.75L65.75 20.75ZM-8.25 22.50L-8.25 22.50L-13.75 2.25Q-13.75 2.25-13.75 2.19Q-13.75 2.13-13.88 2.13L-13.88 2.13L-34.38-3.38Q-34.38-3.38-34.44-3.38Q-34.50-3.38-34.63-3.25L-34.63-3.25L-49.63 11.50Q-49.63 11.63-49.63 11.63Q-49.63 11.63-49.63 11.75L-49.63 11.75L-44.25 32Q-44.25 32-44.19 32.06Q-44.13 32.13-44 32.13L-44 32.13L-23.50 37.50Q-23.50 37.50-23.44 37.50Q-23.38 37.50-23.38 37.50L-23.38 37.50L-8.38 22.75Q-8.25 22.63-8.25 22.56Q-8.25 22.50-8.25 22.50L-8.25 22.50ZM-28.25 6.63L-28.25 6.63L-33.75 26.38Q-33.75 26.50-33.75 26.50Q-33.75 26.50-33.88 26.38L-33.88 26.38L-48.50 12Q-48.50 11.88-48.50 11.88Q-48.50 11.88-48.50 11.88L-48.50 11.88L-28.38 6.50Q-28.38 6.50-28.31 6.50Q-28.25 6.50-28.25 6.63L-28.25 6.63Z"/></svg>