<svg xmlns="http://www.w3.org/2000/svg" xmlns:xlink="http://www.w3.org/1999/xlink" width="113.375" height="128"><path fill="#ffffff" d="M93 59.50L93 59.50L90.63 65L95.25 65L93 59.50ZM53.63 51.88L53.63 51.88L57.63 51.88Q57.75 51.88 57.94 51.81Q58.13 51.75 58.25 51.63L58.25 51.63L58.13 51.63Q60 49.50 60.44 46.19Q60.88 42.88 60.88 41.38L60.88 41.38Q60.88 41.38 60.88 41.38Q60.88 41.38 60.88 41.38L60.88 41.38Q60.88 41.13 60.69 40.94Q60.50 40.75 60.13 40.75L60.13 40.75L51.13 40.75Q50.75 40.75 50.56 40.94Q50.38 41.13 50.38 41.38L50.38 41.38L50.38 41.38Q50.38 42.88 50.81 46.19Q51.25 49.50 53 51.63L53 51.63Q53.13 51.75 53.25 51.81Q53.38 51.88 53.63 51.88L53.63 51.88Q53.63 51.88 53.63 51.88Q53.63 51.88 53.63 51.88L53.63 51.88L53.63 51.88ZM58 46.63L58 46.63Q59.38 46.13 59.56 45.75Q59.75 45.38 59.75 45.38L59.75 45.38Q59.63 46.88 59.06 48.25Q58.50 49.63 57.75 50.75L57.75 50.75L57.75 50.75Q57.63 50.75 57.56 50.81Q57.50 50.88 57.38 50.88L57.38 50.88Q57.38 50.88 57.38 50.88Q57.38 50.88 57.38 50.88L57.38 50.88L57.38 50.88L53.88 50.88Q53.88 50.88 53.75 50.81Q53.63 50.75 53.50 50.75L53.50 50.75Q52.88 49.88 52.44 48.94Q52 48 51.75 46.88L51.75 46.88L51.75 46.88Q51.75 46.88 54.06 47.06Q56.38 47.25 58 46.63L58 46.63ZM109.75 29.50L109.75 29.50L60.25 0.88Q59.50 0.50 58.63 0.25Q57.75 0 56.75 0L56.75 0Q55.88 0 54.94 0.25Q54 0.50 53.25 1L53.25 1L53.38 0.88L3.63 29.50Q2 30.38 1.06 31.94Q0.13 33.50 0 35.38L0 35.38L0 35.38L0 92.63Q0.13 94.50 1.06 96.06Q2 97.63 3.63 98.50L3.63 98.50L3.63 98.50L53.25 127.13Q53.88 127.50 54.81 127.75Q55.75 128 56.63 128L56.63 128Q57.63 128 58.50 127.75Q59.38 127.50 60.13 127L60.13 127L60.13 127.13L109.75 98.50Q111.38 97.63 112.38 96.06Q113.38 94.50 113.38 92.63L113.38 92.63L113.38 92.63L113.38 35.38Q113.38 33.50 112.38 31.94Q111.38 30.38 109.88 29.50L109.88 29.50L109.75 29.50ZM105.25 39.25L105.38 88.63Q105.38 90.25 104.56 91.56Q103.75 92.88 102.38 93.63L102.38 93.63L102.38 93.63L59.63 118.38Q59 118.75 58.25 118.94Q57.50 119.13 56.63 119.13L56.63 119.13Q55.88 119.13 55.13 118.94Q54.38 118.75 53.63 118.38L53.63 118.38L53.75 118.38L11 93.63Q9.75 93 8.94 91.63Q8.13 90.25 8.13 88.75L8.13 88.75Q8.13 88.75 8.13 88.69Q8.13 88.63 8.13 88.63L8.13 88.63L8.13 88.63L8.13 39.25Q8.13 39.25 8.13 39.25Q8.13 39.25 8.13 39.25L8.13 39.25Q8.13 37.63 8.94 36.31Q9.75 35 11 34.25L11 34.25L11 34.25L53.63 9.50Q54.25 9.13 55 8.88Q55.75 8.63 56.63 8.63L56.63 8.63Q57.50 8.63 58.25 8.88Q59 9.13 59.63 9.50L59.63 9.50L59.63 9.50L102.38 34.13Q103.63 34.88 104.44 36.25Q105.25 37.63 105.25 39.25L105.25 39.25Q105.25 39.25 105.25 39.25Q105.25 39.25 105.25 39.25L105.25 39.25L105.25 39.25ZM45.38 63.38L45.38 63.38Q45.38 65.38 43.94 66.81Q42.50 68.25 40.50 68.25L40.50 68.25Q38.50 68.25 37.06 66.81Q35.63 65.38 35.63 63.38L35.63 63.38Q35.63 61.25 37.06 59.81Q38.50 58.38 40.50 58.38L40.50 58.38Q42.50 58.38 43.94 59.81Q45.38 61.25 45.38 63.38L45.38 63.38ZM101.38 36L101.38 36L58.63 11.38Q58.13 11.13 57.69 10.94Q57.25 10.75 56.63 10.75L56.63 10.75L56.63 10.75Q56.13 10.75 55.63 10.94Q55.13 11.13 54.63 11.38L54.63 11.38L54.75 11.38L12 36Q11.13 36.50 10.63 37.38Q10.13 38.25 10.13 39.38L10.13 39.38Q10.13 39.38 10.13 39.38Q10.13 39.38 10.13 39.38L10.13 39.38L10.13 39.38L10.13 88.63Q10.13 88.63 10.13 88.63Q10.13 88.63 10.13 88.63L10.13 88.63Q10.13 89.75 10.63 90.63Q11.13 91.50 12 92L12 92L12 92L54.75 116.63Q55.13 116.88 55.63 117.06Q56.13 117.25 56.63 117.25L56.63 117.25L56.63 117.25Q57.13 117.25 57.63 117.06Q58.13 116.88 58.50 116.63L58.50 116.63L58.50 116.63L101.25 92Q102.13 91.50 102.69 90.63Q103.25 89.75 103.25 88.63L103.25 88.63L103.25 88.63L103.25 39.38Q103.25 38.25 102.75 37.38Q102.25 36.50 101.38 36L101.38 36L101.38 36ZM59.75 68.25L59.75 68.25Q60.88 68.25 61.81 67.81Q62.75 67.38 63.50 66.50L63.50 66.50L63.50 66.50L65 68Q64.75 68.38 64.50 68.63Q64.25 68.88 63.88 69L63.88 69L63.88 69.13Q63.63 69.25 63.31 69.44Q63 69.63 62.75 69.75L62.75 69.75L62.63 69.88Q62.38 70 62 70.13Q61.63 70.25 61.25 70.25L61.25 70.25L61.25 70.25Q60.88 70.38 60.50 70.44Q60.13 70.50 59.63 70.50L59.63 70.50Q59.63 70.50 59.50 70.50Q59.38 70.50 59.38 70.50L59.38 70.50L59.38 70.50Q59.38 70.50 59.31 70.50Q59.25 70.50 59.25 70.50L59.25 70.50Q57.88 70.50 56.63 69.94Q55.38 69.38 54.38 68.38L54.38 68.38L54.38 68.38Q54 68 53.69 67.44Q53.38 66.88 53.13 66.25L53.13 66.25L53.13 66.13Q52.88 65.63 52.75 64.94Q52.63 64.25 52.63 63.63L52.63 63.63Q52.63 63.50 52.63 63.44Q52.63 63.38 52.63 63.38L52.63 63.38L52.63 63.38L52.63 63.25Q52.63 63.25 52.63 63.19Q52.63 63.13 52.63 63L52.63 63Q52.63 62.38 52.75 61.75Q52.88 61.13 53.13 60.50L53.13 60.50L53.13 60.63Q53.38 59.88 53.69 59.31Q54 58.75 54.50 58.25L54.50 58.25L54.50 58.25Q54.88 57.88 55.44 57.44Q56 57 56.63 56.75L56.63 56.75L56.75 56.75Q57.38 56.50 58.06 56.38Q58.75 56.25 59.50 56.25L59.50 56.25Q59.50 56.25 59.56 56.25Q59.63 56.25 59.63 56.25L59.63 56.25L59.63 56.25Q60 56.25 60.44 56.31Q60.88 56.38 61.38 56.38L61.38 56.38L61.25 56.38Q61.75 56.50 62.06 56.63Q62.38 56.75 62.75 56.75L62.75 56.75Q63.13 57 63.38 57.13Q63.63 57.25 63.88 57.50L63.88 57.50L63.88 57.50Q64.13 57.75 64.38 57.94Q64.63 58.13 64.88 58.38L64.88 58.38L64.88 58.38L63.38 60Q62.63 59.25 61.69 58.88Q60.75 58.50 59.75 58.50L59.75 58.50Q57.75 58.50 56.31 59.94Q54.88 61.38 54.88 63.38L54.88 63.38Q54.88 65.38 56.31 66.81Q57.75 68.25 59.75 68.25L59.75 68.25Q59.75 68.25 59.75 68.25Q59.75 68.25 59.75 68.25L59.75 68.25L59.75 68.25ZM56.88 30.13L56.88 30.13Q56.63 30.50 56.88 31.31Q57.13 32.13 57.88 33.13L57.88 33.13Q58.13 33.50 58.25 33.88Q58.38 34.25 58.38 34.75L58.38 34.75Q58.38 35.50 57.94 36.19Q57.50 36.88 56.88 37.25L56.88 37.25L56.88 37.25Q56.88 37.25 56.88 37.25Q56.88 37.25 56.88 37.13L56.88 37.13Q56.88 36.50 56.69 35.94Q56.50 35.38 56.13 34.88L56.13 34.88L56.13 34.88Q54.88 33 55.56 32Q56.25 31 56.88 30.13L56.88 30.13ZM54.13 32.63L54.13 32.63Q54 32.88 54.13 33.44Q54.25 34 54.75 34.75L54.75 34.75Q54.88 34.88 55 35.19Q55.13 35.50 55.13 35.75L55.13 35.75Q55.13 36.25 54.88 36.69Q54.63 37.13 54.13 37.50L54.13 37.50L54.13 37.50Q54.13 37.50 54.13 37.44Q54.13 37.38 54.13 37.38L54.13 37.38Q54.13 37 54 36.63Q53.88 36.25 53.63 35.88L53.63 35.88L53.63 35.88Q52.88 34.63 53.25 33.94Q53.63 33.25 54.13 32.63L54.13 32.63ZM49.13 38.63L49.13 38.63L62 38.63Q62 38.63 62.06 38.63Q62.13 38.63 62.13 38.63L62.13 38.63Q62.38 38.63 62.56 38.81Q62.75 39 62.75 39.38L62.75 39.38L62.75 39.38Q62.75 41.13 62.13 45.94Q61.50 50.75 59 53.63L59 53.63Q58.88 53.75 58.75 53.81Q58.63 53.88 58.50 53.88L58.50 53.88L52.63 53.88Q52.50 53.88 52.38 53.81Q52.25 53.75 52.25 53.63L52.25 53.63L52.25 53.63Q49.63 50.63 49.06 45.88Q48.50 41.13 48.50 39.38L48.50 39.38Q48.50 39.38 48.50 39.38Q48.50 39.38 48.50 39.38L48.50 39.38Q48.50 39.13 48.69 38.88Q48.88 38.63 49.13 38.63L49.13 38.63Q49.13 38.63 49.13 38.63Q49.13 38.63 49.13 38.63L49.13 38.63L49.13 38.63ZM13.13 49.88L13.13 48.75L48 48.75Q48 48.75 48 48.88Q48 49 48 49.88L48 49.88L13.13 49.88ZM47.63 63.25L47.63 63.25L47.63 63.38Q47.63 63.38 47.63 63.44Q47.63 63.50 47.63 63.50L47.63 63.50Q47.63 64.25 47.50 64.88Q47.38 65.50 47.13 66.13L47.13 66.13L47.13 66.13Q46.88 66.75 46.50 67.31Q46.13 67.88 45.63 68.38L45.63 68.38L45.63 68.38Q45.13 68.88 44.63 69.25Q44.13 69.63 43.50 69.88L43.50 69.88L43.38 69.88Q42.75 70.13 42.13 70.31Q41.50 70.50 40.75 70.50L40.75 70.50Q40.63 70.50 40.63 70.50Q40.63 70.50 40.50 70.50L40.50 70.50L40.50 70.50Q39.75 70.50 39 70.31Q38.25 70.13 37.63 69.88L37.63 69.88L37.63 69.88Q37 69.63 36.44 69.25Q35.88 68.88 35.38 68.38L35.38 68.38L35.38 68.38Q34.88 67.88 34.56 67.31Q34.25 66.75 34 66.13L34 66.13L34 66.13Q33.75 65.50 33.56 64.81Q33.38 64.13 33.38 63.38L33.38 63.38Q33.38 63.38 33.38 63.38Q33.38 63.38 33.38 63.38L33.38 63.38L33.38 63.38L33.38 63.25Q33.38 62.63 33.56 61.88Q33.75 61.13 34 60.50L34 60.50L34 60.63Q34.25 59.88 34.63 59.31Q35 58.75 35.50 58.25L35.50 58.25L35.50 58.25Q35.88 57.88 36.44 57.44Q37 57 37.63 56.75L37.63 56.75L37.75 56.75Q38.25 56.50 38.94 56.38Q39.63 56.25 40.38 56.25L40.38 56.25Q40.38 56.25 40.44 56.25Q40.50 56.25 40.63 56.25L40.63 56.25L40.63 56.25Q41.38 56.25 42.13 56.38Q42.88 56.50 43.50 56.75L43.50 56.75L43.50 56.75Q44.13 57 44.69 57.44Q45.25 57.88 45.75 58.25L45.75 58.25L45.75 58.25Q46.25 58.75 46.56 59.31Q46.88 59.88 47.13 60.50L47.13 60.50L47.13 60.63Q47.38 61.13 47.50 61.81Q47.63 62.50 47.63 63.13L47.63 63.13Q47.63 63.25 47.63 63.25Q47.63 63.25 47.63 63.38L47.63 63.38L47.63 63.25ZM25.38 60.38L21.38 67L21.25 67L17.25 60.50L17.25 70.13L14.13 70.13L14.13 56.88L17.25 56.88L21.38 63.38L25.50 56.88L28.38 56.88L28.38 70.13L25.38 70.13L25.38 60.38ZM100.25 74.13L100.25 75.13L13.13 75.13L13.13 74.13L100.25 74.13ZM71.88 62L79 62L79 56.88L81 56.88L81 70.13L79 70.13L79 64L71.88 64L71.88 70.13L69.88 70.13L69.88 56.88L71.88 56.88L71.88 62ZM88.25 70.13L85.88 70.13L91.88 56.88L94.13 56.88L100.13 70.13L97.63 70.13L96.25 67L89.75 67L88.25 70.13ZM100.25 48.75L100.25 49.88L63.25 49.88Q63.25 49 63.25 48.88Q63.25 48.75 63.25 48.75L63.25 48.75L100.25 48.75Z"/></svg>