<svg xmlns="http://www.w3.org/2000/svg" xmlns:xlink="http://www.w3.org/1999/xlink" width="128" height="128"><path fill="#ffffff" d="M109.75 7.25L109.75 7.25Q109.75 8.38 109.50 9.50Q109.25 10.63 108.63 11.50L108.63 11.50Q108.13 12.50 107.25 13.25Q106.38 14 105.38 14.50L105.38 14.50Q104.38 15 103.25 15.13Q102.13 15.25 101.13 15.13L101.13 15.13Q100 15 99 14.50Q98 14 97.13 13.25L97.13 13.25Q96.25 12.50 95.69 11.50Q95.13 10.50 94.88 9.38L94.88 9.38Q94.63 8.38 94.69 7.25Q94.75 6.13 95.13 5L95.13 5Q95.50 4 96.19 3.06Q96.88 2.13 97.75 1.50L97.75 1.50Q98.63 0.75 99.69 0.38Q100.75 0 101.88 0L101.88 0Q103.38 0 104.81 0.50Q106.25 1 107.38 2L107.38 2Q108.38 3 109.06 4.38Q109.75 5.75 109.75 7.25L109.75 7.25ZM65.75 96.75L65.75 96.75Q58.25 96.75 51.25 95.50L51.25 95.50Q44.25 94.13 38.25 91.75Q32.25 89.38 27.38 86L27.38 86Q22.38 82.63 19 78.50L19 78.50Q21.50 85.88 26.13 92.06Q30.75 98.25 37.13 102.75L37.13 102.75Q43.38 107.25 50.75 109.63Q58.13 112 65.75 112L65.75 112Q73.50 112 80.81 109.63Q88.13 107.25 94.50 102.75L94.50 102.75Q100.75 98.25 105.38 92.06Q110 85.88 112.50 78.50L112.50 78.50Q109.13 82.63 104.25 86L104.25 86Q99.25 89.38 93.25 91.75Q87.25 94.13 80.25 95.50L80.25 95.50Q73.25 96.75 65.75 96.75L65.75 96.75ZM65.75 25.88L65.75 25.88Q73.25 25.88 80.25 27.25L80.25 27.25Q87.25 28.50 93.25 30.94Q99.25 33.38 104.25 36.75L104.25 36.75Q109.13 40 112.50 44.13L112.50 44.13Q110 36.75 105.38 30.56Q100.75 24.38 94.38 19.88L94.38 19.88Q88.13 15.38 80.81 13Q73.50 10.63 65.75 10.63L65.75 10.63Q58 10.63 50.69 13Q43.38 15.38 37.13 19.88L37.13 19.88Q30.75 24.38 26.13 30.56Q21.50 36.75 19 44.13L19 44.13Q22.38 40.13 27.25 36.75L27.25 36.75Q32.25 33.38 38.25 30.94Q44.25 28.50 51.25 27.25L51.25 27.25Q58.25 25.88 65.75 25.88ZM38.13 118L38.13 118Q38.25 119.38 37.88 120.75Q37.50 122.13 36.75 123.38L36.75 123.38Q36 124.63 35 125.56Q34 126.50 32.63 127.13L32.63 127.13Q31.38 127.75 30 127.94Q28.63 128.13 27.25 127.88L27.25 127.88Q25.75 127.63 24.50 127Q23.25 126.38 22.25 125.50L22.25 125.50Q21.13 124.50 20.44 123.25Q19.75 122 19.38 120.63L19.38 120.63Q19.13 119.25 19.19 117.88Q19.25 116.50 19.75 115.13L19.75 115.13Q20.25 113.75 21.06 112.63Q21.88 111.50 23 110.63L23 110.63Q24.25 109.75 25.56 109.31Q26.88 108.88 28.25 108.88L28.25 108.88Q30.13 108.75 31.94 109.38Q33.75 110 35.13 111.38L35.13 111.38Q36.50 112.63 37.31 114.38Q38.13 116.13 38.13 118L38.13 118ZM21.25 23.38L21.25 23.38Q20.50 23.50 19.69 23.25Q18.88 23 18.13 22.63L18.13 22.63Q17.38 22.13 16.88 21.50Q16.38 20.88 16 20.13L16 20.13Q15.63 19.38 15.50 18.56Q15.38 17.75 15.50 16.88L15.50 16.88Q15.63 16.13 16 15.38Q16.38 14.63 16.88 14L16.88 14Q17.50 13.38 18.19 12.94Q18.88 12.50 19.75 12.38L19.75 12.38Q20.50 12.13 21.31 12.19Q22.13 12.25 23 12.50L23 12.50Q23.75 12.75 24.38 13.25Q25 13.75 25.50 14.50L25.50 14.50Q26.75 16.13 26.63 18.13Q26.50 20.13 25.13 21.63L25.13 21.63Q24.38 22.38 23.38 22.88Q22.38 23.38 21.25 23.38L21.25 23.38Z"/></svg>