<svg xmlns="http://www.w3.org/2000/svg" xmlns:xlink="http://www.w3.org/1999/xlink" width="128" height="128"><path fill="#ffffff" d="M5.38 53.38L5.38 67Q5.38 70 5.06 71.25Q4.75 72.50 4 73.13L4 73.13Q3.25 73.75 2.19 74.06Q1.13 74.38 0 74.38L0 74.38L0.38 76.63Q2.13 76.63 3.75 76.13Q5.38 75.63 6.75 74.75L6.75 74.75Q7.38 74.13 7.94 73.31Q8.50 72.50 8.75 71.63L8.75 71.63Q9.13 70.75 9.19 69.88Q9.25 69 9.13 68.13L9.13 68.13L9.13 53.38L5.38 53.38ZM31.63 64.75L31.63 64.88Q31.63 66.13 31.63 67.19Q31.63 68.25 31.75 69.13L31.75 69.13L28.63 69.13L28.38 66.63Q27.88 67.25 27.19 67.81Q26.50 68.38 25.75 68.75L25.75 68.75Q24.88 69.13 23.94 69.31Q23 69.50 22 69.50L22 69.50Q19.75 69.50 17.56 68.19Q15.38 66.88 15.38 62.63L15.38 62.63L15.38 53.50L18.88 53.50L18.88 62.13Q18.88 64.38 19.81 65.75Q20.75 67.13 23.13 67.13L23.13 67.13Q23.63 67.13 24.13 67Q24.63 66.88 25.13 66.75L25.13 66.75Q25.50 66.63 25.94 66.38Q26.38 66.13 26.75 65.88L26.75 65.88Q27 65.63 27.31 65.31Q27.63 65 27.75 64.63L27.75 64.63Q28 64.25 28.06 63.81Q28.13 63.38 28.13 63L28.13 63L28.13 53.38L31.63 53.38L31.63 64.75ZM39.13 76.63L39.13 58.25Q39.13 56.75 39.06 55.38Q39 54 38.88 52.88L38.88 52.88L42.13 52.88L42.25 55.75Q42.75 54.88 43.50 54.25Q44.25 53.63 45.13 53.25L45.13 53.25Q46.13 52.75 47.13 52.56Q48.13 52.38 49.13 52.38L49.13 52.38Q52.63 52.38 55 54.75Q57.38 57.13 57.38 61L57.38 61Q57.38 65.50 54.69 67.75Q52 70 48.50 70L48.50 70Q47.63 70 46.75 69.88Q45.88 69.75 45.13 69.38L45.13 69.38Q44.38 69 43.69 68.50Q43 68 42.50 67.38L42.50 67.38L42.50 76.63L39.13 76.63ZM42.50 59.88L42.50 62.75Q42.50 63.13 42.56 63.44Q42.63 63.75 42.75 64L42.75 64Q42.88 64.88 43.38 65.50Q43.88 66.13 44.63 66.63L44.63 66.63Q45.38 67.13 46.25 67.38Q47.13 67.63 48 67.63L48 67.63Q50.75 67.63 52.31 65.81Q53.88 64 53.88 61.13L53.88 61.13Q53.88 58.63 52.38 56.75Q50.88 54.88 48.13 54.88L48.13 54.88Q47 55 46 55.38Q45 55.75 44.25 56.50L44.25 56.50Q43.50 57.13 43.06 58.06Q42.63 59 42.50 59.88L42.50 59.88ZM63.25 53.38L63.38 53.50L67.63 62.88Q68 63.63 68.31 64.50Q68.63 65.38 68.88 66.13L68.88 66.13Q69.13 65.38 69.44 64.50Q69.75 63.63 70.13 62.75L70.13 62.75L74 53.50L77.88 53.50L72.50 64.75Q70.50 68.88 69.06 71.19Q67.63 73.50 65.75 74.75L65.75 74.75Q64.75 75.38 63.69 75.88Q62.63 76.38 61.38 76.63L61.38 76.63L60.50 74.13Q61.38 73.88 62.13 73.56Q62.88 73.25 63.63 72.75L63.63 72.75Q64.50 72.13 65.31 71.31Q66.13 70.50 66.63 69.50L66.63 69.50Q66.75 69.38 66.81 69.19Q66.88 69 66.88 68.88L66.88 68.88Q66.88 68.63 66.81 68.44Q66.75 68.25 66.63 68.13L66.63 68.13L59.38 53.38L63.25 53.38ZM83.88 49.13L87.25 48.38L87.25 53L92.13 53L92.13 55.25L87.25 55.25L87.25 64Q87.25 65.50 87.81 66.31Q88.38 67.13 89.75 67.13L89.75 67.13Q90.25 67.13 90.75 67.06Q91.25 67 91.75 66.88L91.75 66.88L92 69.13Q91.25 69.38 90.44 69.44Q89.63 69.50 88.88 69.50L88.88 69.50Q88.38 69.63 87.88 69.50Q87.38 69.38 86.88 69.25L86.88 69.25Q86.38 69.13 85.94 68.88Q85.50 68.63 85.13 68.25L85.13 68.25Q84.38 67.38 84.06 66.31Q83.75 65.25 83.88 64.13L83.88 64.13L83.88 55.25L80.88 55.25L80.88 53L83.88 53L83.88 49.13ZM98.75 61.50L98.75 61.50Q98.75 62 98.81 62.56Q98.88 63.13 99.13 63.63L99.13 63.63Q99.38 64.25 99.75 64.75Q100.13 65.25 100.63 65.63L100.63 65.63Q101.13 66 101.69 66.31Q102.25 66.63 102.88 66.75L102.88 66.75Q103.50 67 104.19 67.06Q104.88 67.13 105.63 67.13L105.63 67.13Q107 67.13 108.38 66.94Q109.75 66.75 111 66.25L111 66.25L111.63 68.50Q110 69 108.38 69.31Q106.75 69.63 105 69.50L105 69.50Q104 69.63 103 69.50Q102 69.38 101.13 69L101.13 69Q100.25 68.75 99.38 68.31Q98.50 67.88 97.88 67.25L97.88 67.25Q97.13 66.63 96.63 65.94Q96.13 65.25 95.75 64.50L95.75 64.50Q95.50 63.75 95.31 62.94Q95.13 62.13 95.25 61.25L95.25 61.25Q95.25 57.50 97.75 54.94Q100.25 52.38 104.50 52.38L104.50 52.38Q109.38 52.38 111 55.13Q112.63 57.88 112.63 60.13L112.63 60.13Q112.63 60.50 112.63 60.81Q112.63 61.13 112.63 61.50L112.63 61.50L98.75 61.50ZM98.88 59.25L109.38 59.25Q109.38 58.75 109.38 58.31Q109.38 57.88 109.13 57.38L109.13 57.38Q109 57 108.75 56.56Q108.50 56.13 108.13 55.88L108.13 55.88Q107.75 55.50 107.31 55.19Q106.88 54.88 106.38 54.75L106.38 54.75Q106 54.50 105.44 54.44Q104.88 54.38 104.38 54.38L104.38 54.38Q103.25 54.38 102.25 54.81Q101.25 55.25 100.50 55.88L100.50 55.88Q99.63 56.50 99.25 57.38Q98.88 58.25 98.88 59.25L98.88 59.25ZM117.75 58.13L117.88 58Q117.88 56.63 117.88 55.31Q117.88 54 117.75 52.88L117.75 52.88L120.75 52.88L120.75 56.13L121 56.13Q121.25 55.38 121.69 54.69Q122.13 54 122.88 53.50L122.88 53.50Q123.50 53 124.31 52.75Q125.13 52.50 126 52.50L126 52.50Q126.25 52.38 126.50 52.38Q126.75 52.38 127 52.50L127 52.50L127 55.25Q126.63 55.25 126.38 55.25Q126.13 55.25 125.75 55.25L125.75 55.25Q125 55.38 124.19 55.69Q123.38 56 122.75 56.50L122.75 56.50Q122.13 57 121.75 57.69Q121.38 58.38 121.25 59.25L121.25 59.25Q121.25 59.50 121.19 59.88Q121.13 60.25 121.13 60.63L121.13 60.63L121.13 69.50L117.75 69.50L117.75 58.13ZM109.75 7.25L109.75 7.25Q109.75 8.38 109.50 9.50Q109.25 10.63 108.63 11.50L108.63 11.50Q108.13 12.50 107.25 13.25Q106.38 14 105.38 14.50L105.38 14.50Q104.38 15 103.25 15.13Q102.13 15.25 101.13 15.13L101.13 15.13Q100 15 99 14.50Q98 14 97.13 13.25L97.13 13.25Q96.25 12.50 95.69 11.50Q95.13 10.50 94.88 9.38L94.88 9.38Q94.63 8.38 94.69 7.25Q94.75 6.13 95.13 5L95.13 5Q95.50 4 96.19 3.06Q96.88 2.13 97.75 1.50L97.75 1.50Q98.63 0.75 99.69 0.38Q100.75 0 101.88 0L101.88 0Q103.38 0 104.81 0.50Q106.25 1 107.38 2L107.38 2Q108.38 3 109.06 4.38Q109.75 5.75 109.75 7.25L109.75 7.25ZM65.75 96.75L65.75 96.75Q58.25 96.75 51.25 95.50L51.25 95.50Q44.25 94.13 38.25 91.75Q32.25 89.38 27.38 86L27.38 86Q22.38 82.63 19 78.50L19 78.50Q21.50 85.88 26.13 92.06Q30.75 98.25 37.13 102.75L37.13 102.75Q43.38 107.25 50.75 109.63Q58.13 112 65.75 112L65.75 112Q73.50 112 80.81 109.63Q88.13 107.25 94.50 102.75L94.50 102.75Q100.75 98.25 105.38 92.06Q110 85.88 112.50 78.50L112.50 78.50Q109.13 82.63 104.25 86L104.25 86Q99.25 89.38 93.25 91.75Q87.25 94.13 80.25 95.50L80.25 95.50Q73.25 96.75 65.75 96.75L65.75 96.75ZM65.75 25.88L65.75 25.88Q73.25 25.88 80.25 27.25L80.25 27.25Q87.25 28.50 93.25 30.94Q99.25 33.38 104.25 36.75L104.25 36.75Q109.13 40 112.50 44.13L112.50 44.13Q110 36.75 105.38 30.56Q100.75 24.38 94.38 19.88L94.38 19.88Q88.13 15.38 80.81 13Q73.50 10.63 65.75 10.63L65.75 10.63Q58 10.63 50.69 13Q43.38 15.38 37.13 19.88L37.13 19.88Q30.75 24.38 26.13 30.56Q21.50 36.75 19 44.13L19 44.13Q22.38 40.13 27.25 36.75L27.25 36.75Q32.25 33.38 38.25 30.94Q44.25 28.50 51.25 27.25L51.25 27.25Q58.25 25.88 65.75 25.88ZM38.13 118L38.13 118Q38.25 119.38 37.88 120.75Q37.50 122.13 36.75 123.38L36.75 123.38Q36 124.63 35 125.56Q34 126.50 32.63 127.13L32.63 127.13Q31.38 127.75 30 127.94Q28.63 128.13 27.25 127.88L27.25 127.88Q25.75 127.63 24.50 127Q23.25 126.38 22.25 125.50L22.25 125.50Q21.13 124.50 20.44 123.25Q19.75 122 19.38 120.63L19.38 120.63Q19.13 119.25 19.19 117.88Q19.25 116.50 19.75 115.13L19.75 115.13Q20.25 113.75 21.06 112.63Q21.88 111.50 23 110.63L23 110.63Q24.25 109.75 25.56 109.31Q26.88 108.88 28.25 108.88L28.25 108.88Q30.13 108.75 31.94 109.38Q33.75 110 35.13 111.38L35.13 111.38Q36.50 112.63 37.31 114.38Q38.13 116.13 38.13 118L38.13 118ZM21.25 23.38L21.25 23.38Q20.50 23.50 19.69 23.25Q18.88 23 18.13 22.63L18.13 22.63Q17.38 22.13 16.88 21.50Q16.38 20.88 16 20.13L16 20.13Q15.63 19.38 15.50 18.56Q15.38 17.75 15.50 16.88L15.50 16.88Q15.63 16.13 16 15.38Q16.38 14.63 16.88 14L16.88 14Q17.50 13.38 18.19 12.94Q18.88 12.50 19.75 12.38L19.75 12.38Q20.50 12.13 21.31 12.19Q22.13 12.25 23 12.50L23 12.50Q23.75 12.75 24.38 13.25Q25 13.75 25.50 14.50L25.50 14.50Q26.75 16.13 26.63 18.13Q26.50 20.13 25.13 21.63L25.13 21.63Q24.38 22.38 23.38 22.88Q22.38 23.38 21.25 23.38L21.25 23.38Z"/></svg>