<svg xmlns="http://www.w3.org/2000/svg" xmlns:xlink="http://www.w3.org/1999/xlink" width="128" height="128"><path fill="#000000" d="M8.88 80.63L8.88 80.63Q7.25 80.25 6.19 79Q5.13 77.75 4.50 75.50L4.50 75.50Q4.25 74.63 4.19 73.19Q4.13 71.75 4.13 65.38L4.13 65.38L4 56.50L9.63 56.50L9.63 63.63Q9.63 66.75 9.69 69.19Q9.75 71.63 9.75 72.13L9.75 72.13Q10.13 74.13 10.94 75.19Q11.75 76.25 13.13 76.25L13.13 76.25Q14.38 76.25 15.25 75.25Q16.13 74.25 16.75 72.13L16.75 72.13Q16.88 71.50 17 70Q17.13 68.50 17.13 63.75L17.13 63.75L17.25 56.38L22.88 56.38L22.88 67.63Q22.88 72.25 22.88 75.81Q22.88 79.38 23 79.50L23 79.50L23.13 80.75L17.63 80.75L17.50 79.38Q17.50 79 17.44 78.31Q17.38 77.63 17.38 77L17.38 77L17.38 75.63L16.63 77Q16.38 77.63 16 78.25Q15.63 78.88 15.38 79L15.38 79Q14.25 80.25 12.44 80.69Q10.63 81.13 8.88 80.63L8.88 80.63L8.88 80.63ZM99.63 80.75L99.63 80.75Q96.63 80.25 94.38 78.31Q92.13 76.38 90.88 73L90.88 73Q89.63 69.88 89.38 65.56Q89.13 61.25 90.13 57.25L90.13 57.25Q90.88 53.25 93.06 50.69Q95.25 48.13 98.50 47.38L98.50 47.38Q99.63 47 101.44 47Q103.25 47 104.25 47.38L104.25 47.38Q106.50 48 108.25 49.44Q110 50.88 111.13 53.25L111.13 53.25Q111.88 54.75 111.69 55Q111.50 55.25 109.38 56L109.38 56Q108.38 56.38 107.56 56.69Q106.75 57 106.63 57L106.63 57Q106.63 57 106.50 56.81Q106.38 56.63 106.25 56.38L106.25 56.38Q105.88 55 105 53.94Q104.13 52.88 103.13 52.50L103.13 52.50Q102.25 52.13 101.06 52.13Q99.88 52.13 99.13 52.50L99.13 52.50Q97.25 53.50 96.31 56.31Q95.38 59.13 95.38 63.75L95.38 63.75Q95.38 67.13 95.88 69.44Q96.38 71.75 97.38 73.38L97.38 73.38Q98.25 74.75 99.31 75.31Q100.38 75.88 102.13 75.75L102.13 75.75Q103.38 75.63 104.38 75.19Q105.38 74.75 106.25 74L106.25 74L107.13 73.13L107.13 67.75L101.50 67.75L101.50 63.38L112.63 63.38L112.63 75.13L112 76Q110.75 77.50 108.88 78.69Q107 79.88 105.13 80.38L105.13 80.38Q104 80.63 102.31 80.75Q100.63 80.88 99.63 80.75L99.63 80.75L99.63 80.75ZM29.50 64.50L29.50 64.50Q28.13 57.88 27.06 53.06Q26 48.25 26 48L26 48L25.88 47.13L31.75 47.13Q31.88 47.13 32.38 50.25Q32.88 53.38 33.63 57.38L33.63 57.38Q34.38 61.38 35.06 65.31Q35.75 69.25 36 70.88L36 70.88Q36.25 72.38 36.44 73.56Q36.63 74.75 36.63 74.75L36.63 74.75L43.13 51.50L45.63 51.50L52.38 74.63Q52.38 74.75 52.56 73.88Q52.75 73 52.88 71.75L52.88 71.75Q53 70.50 53.75 66.56Q54.50 62.63 55.25 58.25L55.25 58.25L57.25 47.13L63.25 47.13L63.13 48Q63.13 48.25 62.13 53.06Q61.13 57.88 59.63 64.38L59.63 64.38Q58.25 70.88 57.31 75.94Q56.38 81 56.25 81L56.25 81L49.13 81L44.38 63.13L39.88 81L32.75 81L29.50 64.50ZM118.13 80.88L118.13 64L118.13 47.13L124 47.13L124 80.88L118.13 80.88ZM85.38 68.63L85.38 68.63Q85.25 67.50 84.56 66.31Q83.88 65.13 83.13 64.25L83.13 64.25Q82.13 63.25 80.81 62.63Q79.50 62 76.63 61L76.63 61Q75.38 60.63 74.19 60.19Q73 59.75 72.63 59.50L72.63 59.50Q71.50 58.88 71 57.63Q70.50 56.38 70.75 54.75L70.75 54.75Q71.13 53.13 72.13 52.44Q73.13 51.75 74.88 51.75L74.88 51.75Q75.75 51.75 76.19 51.81Q76.63 51.88 77.13 52.13L77.13 52.13Q77.88 52.50 78.31 53.19Q78.75 53.88 79.13 55L79.13 55Q79.25 55.38 79.38 55.69Q79.50 56 79.50 56L79.50 56Q79.88 56 82.38 55.56Q84.88 55.13 85 55L85 55Q85 54.88 84.63 53.63Q84.25 52.38 83.75 51.38L83.75 51.38Q83 49.75 81.69 48.81Q80.38 47.88 78.50 47.50L78.50 47.50Q77.38 47.13 75.19 47.13Q73 47.13 71.63 47.50L71.63 47.50Q68.63 48.13 66.94 50.13Q65.25 52.13 65 55.50L65 55.50Q64.88 57.63 65.44 59.44Q66 61.25 67.38 62.63L67.38 62.63Q68.38 63.63 69.56 64.25Q70.75 64.88 73.63 65.75L73.63 65.75Q76.75 66.75 77.88 67.44Q79 68.13 79.50 69.38L79.50 69.38Q79.75 70 79.81 71.13Q79.88 72.25 79.63 73.13L79.63 73.13Q79.50 73.88 78.81 74.63Q78.13 75.38 77.38 75.63L77.38 75.63Q76.50 76 74.94 75.94Q73.38 75.88 72.63 75.50L72.63 75.50Q71.50 75 70.75 74.13Q70 73.25 69.63 71.75L69.63 71.75Q69.50 71.38 69.38 71.19Q69.25 71 69.13 71L69.13 71Q69.13 71 68.31 71.13Q67.50 71.25 66.50 71.50L66.50 71.50Q65.38 71.63 64.63 71.75Q63.88 71.88 63.88 71.88L63.88 71.88Q63.75 71.88 63.81 72.38Q63.88 72.88 64.13 73.63L64.13 73.63Q65 76.75 67.06 78.44Q69.13 80.13 72.50 80.63L72.50 80.63Q73.50 80.88 75.44 80.81Q77.38 80.75 78.50 80.50L78.50 80.50Q81.13 80 82.94 78.25Q84.75 76.50 85.25 73.88L85.25 73.88Q85.50 72.75 85.50 71.19Q85.50 69.63 85.38 68.63ZM81.38 50.63L81.38 50.63Q82.13 50.63 82.75 51.25Q83.38 51.88 83.38 52.75L83.38 52.75Q83.38 53.63 82.75 54.19Q82.13 54.75 81.38 54.75L81.38 54.75Q80.50 54.75 79.88 54.13Q79.25 53.50 79.25 52.75L79.25 52.75Q79.25 51.88 79.88 51.25Q80.50 50.63 81.38 50.63Z"/></svg>