<svg xmlns="http://www.w3.org/2000/svg" xmlns:xlink="http://www.w3.org/1999/xlink" width="128" height="128"><path fill="#ffffff" d="M18.25 8.88L18.25 8.88L1 9L1 89L20.75 89L20.75 88.75Q17.13 84.88 14.25 80.25L14.25 80.25Q11.38 75.63 9.38 70.38Q7.38 65.13 6.25 59.25L6.25 59.25Q5.25 53.38 5.25 47L5.25 47Q5.25 41.25 6.13 36L6.13 36Q7 30.75 8.63 25.94Q10.25 21.13 12.75 16.88L12.75 16.88Q15.13 12.63 18.25 8.88ZM110.63 9L110.63 9Q115.25 15 117.69 23.25Q120.13 31.50 119.75 41.13L119.75 41.13Q119.75 42 119.75 42.88Q119.75 43.75 119.75 46L119.75 46L46.25 46Q46.25 53.88 47.75 60.88L47.75 60.88Q49.38 67.75 52.63 73Q55.88 78.25 61.13 81.25L61.13 81.25Q66.25 84.25 73.63 84.25L73.63 84.25Q83.75 84.25 91.13 77.88Q98.50 71.50 103.50 63.25L103.50 63.25L122.50 73Q120 77.50 117.13 81.38Q114.25 85.25 111.13 89L111.13 89L127 89L127 9L110.63 9ZM65.13 10.63L65.13 10.63Q58.38 10.63 53.25 15.06Q48.13 19.50 47.50 27L47.50 27L81 27Q80.75 19.50 76.31 15.06Q71.88 10.63 65.13 10.63ZM1 99L1 118L11 118L11 115L5 115L5 110L11 110L11 107L5 107L5 102L11 102L11 99L1 99ZM32.75 104.75L32.75 104.75Q32.75 101.63 30.88 100.31Q29 99 26.25 99L26.25 99L21 99L21 118L25 118L25 110.63L29.50 118L34.25 118L28.75 110Q30.63 109.75 31.69 108.25Q32.75 106.75 32.75 104.75ZM25.25 108L25.25 108L25 108L25 102L25.25 102Q26.75 102 27.75 102.63Q28.75 103.25 28.75 105.13L28.75 105.13Q28.75 106.88 27.75 107.44Q26.75 108 25.25 108ZM46 115L46 99L42 99L42 118L52 118L52 115L46 115ZM69.25 98L66.25 98L58.50 118L62.50 118L64.25 114L71 114L72.75 118L76.75 118L69.25 98ZM65.25 111L65.25 111L67.38 103.63L70 111L65.25 111ZM97 99L97 112.13L86.75 98L84 98L84 118L88 118L88 105.25L98.25 119L101 119L101 99L97 99ZM118 108L118 108L118 111L122 111Q121.88 113.25 120.56 114.44Q119.25 115.63 117.50 115.63L117.50 115.63Q114.63 115.63 113.25 113.44Q111.88 111.25 111.75 108.75L111.75 108.75Q111.75 106.25 113.19 103.94Q114.63 101.63 117.50 101.63L117.50 101.63Q119 101.63 120.19 102.50Q121.38 103.38 122 104.75L122 104.75L125.25 103Q124.13 100.63 122.06 99.44Q120 98.25 117.50 98.25L117.50 98.25Q113.13 98.25 110.44 101.38Q107.75 104.50 107.75 108.75L107.75 108.75Q107.88 112.88 110.38 116Q112.88 119.13 117.13 119.13L117.13 119.13Q121.75 119 123.88 115.81Q126 112.63 126 108.38L126 108.38L126 108L118 108Z"/></svg>