<svg xmlns="http://www.w3.org/2000/svg" xmlns:xlink="http://www.w3.org/1999/xlink" width="128" height="128"><path fill="#ffffff" d="M18.25 24.13L18.25 24.13L1 24L1 104L20.75 104L20.75 103.88Q17.13 100 14.25 95.38L14.25 95.38Q11.38 90.88 9.38 85.56Q7.38 80.25 6.25 74.38L6.25 74.38Q5.25 68.50 5.25 62.13L5.25 62.13Q5.25 56.50 6.13 51.13L6.13 51.13Q7 45.88 8.63 41.13Q10.25 36.38 12.75 32L12.75 32Q15.13 27.75 18.25 24.13L18.25 24.13ZM127 24L127 24L110.63 24Q115.25 30.75 117.69 38.63Q120.13 46.50 119.75 56.13L119.75 56.13Q119.75 57 119.75 57.88Q119.75 58.75 119.75 61L119.75 61L46.25 61Q46.25 69.25 47.75 76.25L47.75 76.25Q49.38 83.25 52.63 88.38Q55.88 93.50 61.13 96.50L61.13 96.50Q66.25 99.38 73.63 99.38L73.63 99.38Q83.75 99.38 91.13 93Q98.50 86.63 103.50 78.50L103.50 78.50L122.50 88Q120 92.63 117.13 96.44Q114.25 100.25 111.13 104L111.13 104L127 104L127 24ZM65.13 25.63L65.13 25.63Q58.38 25.63 53.25 30.44Q48.13 35.25 47.50 42L47.50 42L81 42Q80.75 35.25 76.31 30.44Q71.88 25.63 65.13 25.63Z"/></svg>