<svg xmlns="http://www.w3.org/2000/svg" xmlns:xlink="http://www.w3.org/1999/xlink" width="128" height="128"><path fill="#ffffff" d="M117 9.13L61.88 9.13Q50.50 9.13 40.50 13.50L40.50 13.50Q30.50 17.88 23 25.31Q15.50 32.75 11.13 42.75L11.13 42.75Q6.88 52.88 6.88 64.25L6.88 64.25Q6.88 75.63 11.13 85.63L11.13 85.63Q15.50 95.75 23 103.19Q30.50 110.63 40.50 115L40.50 115Q50.50 119.25 61.88 119.25L61.88 119.25Q73.38 119.25 83.38 115L83.38 115Q93.38 110.63 100.88 103.19Q108.38 95.75 112.63 85.63L112.63 85.63Q117 75.63 117 64.25L117 64.25L117 9.13ZM63.13 62.50L63.13 23.88L101.75 23.88L101.75 62.50L63.13 62.50ZM21 65.88L21 65.88L59.63 65.88L59.63 104.50Q51.75 104.25 44.88 101.13L44.88 101.13Q38 97.88 32.81 92.69Q27.63 87.50 24.50 80.63L24.50 80.63Q21.38 73.75 21 65.88L21 65.88ZM63.13 104.63L63.13 66L101.75 66Q101.38 73.88 98.25 80.75L98.25 80.75Q95.13 87.63 89.94 92.81Q84.75 98 77.88 101.13L77.88 101.13Q70.88 104.25 63.13 104.63L63.13 104.63Z"/></svg>