<svg xmlns="http://www.w3.org/2000/svg" xmlns:xlink="http://www.w3.org/1999/xlink" width="128" height="128"><path fill="#ffffff" d="M27.63 54L17.38 54Q13.13 54 10.13 56.94Q7.13 59.88 7.13 64L7.13 64Q7.13 68.25 10.13 71.19Q13.13 74.13 17.38 74.13L17.38 74.13Q21.63 74.13 24.63 71.19Q27.63 68.25 27.63 64L27.63 64L27.63 54ZM17.75 63.75L17.75 56.63L24.88 56.63L24.88 63.75L17.75 63.75ZM9.75 64.38L9.88 64.38L17 64.38L17 71.38Q14.13 71.25 12 69.25Q9.88 67.25 9.75 64.38L9.75 64.38ZM17.75 71.50L17.75 64.38L24.88 64.38Q24.75 67.25 22.69 69.31Q20.63 71.38 17.75 71.50L17.75 71.50ZM41.88 64.63L41.88 64.63L41.88 57.13L38.63 57.13L38.63 65.38Q38.63 65.88 38.50 66.44Q38.38 67 37.63 67L37.63 67Q37 67 36.88 66.50Q36.75 66 36.75 65.50L36.75 65.50L33.25 65.50Q33.25 66.88 33.88 67.94Q34.50 69 35.75 69.38L35.75 69.38Q36.13 69.63 36.56 69.69Q37 69.75 37.50 69.75L37.50 69.75Q37.50 69.75 37.50 69.75Q37.50 69.75 37.50 69.75L37.50 69.75L37.50 69.75Q38.50 69.75 39.44 69.31Q40.38 68.88 41 68.13L41 68.13Q41.63 67.38 41.75 66.44Q41.88 65.50 41.88 64.63L41.88 64.63ZM50.75 69.50L53.63 69.50L53.63 60.25L50.75 60.25L50.75 61.25L50.75 61.25Q50.38 60.50 49.56 60.25Q48.75 60 48 60L48 60Q45.88 60 44.56 61.44Q43.25 62.88 43.25 64.88L43.25 64.88Q43.25 66.88 44.56 68.38Q45.88 69.88 48 69.88L48 69.88Q48.75 69.88 49.56 69.56Q50.38 69.25 50.75 68.50L50.75 68.50L50.75 68.50L50.75 69.50ZM50.75 64.88L50.75 64.88Q50.75 65.88 50.13 66.56Q49.50 67.25 48.38 67.25L48.38 67.25Q48.38 67.25 48.38 67.25Q48.38 67.25 48.38 67.25L48.38 67.25Q47.38 67.25 46.75 66.56Q46.13 65.88 46.13 64.88L46.13 64.88Q46.13 64.88 46.13 64.88Q46.13 64.88 46.13 64.88L46.13 64.88L46.13 64.88Q46.13 63.88 46.75 63.19Q47.38 62.50 48.38 62.50L48.38 62.50Q49.38 62.50 50.06 63.19Q50.75 63.88 50.75 64.88L50.75 64.88ZM67.38 69.50L70.13 69.50L70.13 64.50Q70.13 63.38 70.06 62.50Q70 61.63 69.13 60.88L69.13 60.88Q68.63 60.38 68 60.19Q67.38 60 66.63 60L66.63 60Q65.75 60 64.94 60.38Q64.13 60.75 63.63 61.63L63.63 61.63Q63.25 60.75 62.56 60.38Q61.88 60 61 60L61 60Q60.13 60 59.44 60.25Q58.75 60.50 58.38 61.25L58.38 61.25L58.25 61.25L58.25 60.25L55.63 60.25L55.63 69.50L58.50 69.50L58.50 64.63Q58.50 63.75 58.81 63.13Q59.13 62.50 60.13 62.50L60.13 62.50Q61 62.50 61.25 63.13Q61.50 63.75 61.50 64.50L61.50 64.50L61.50 69.50L64.38 69.50L64.38 64.50Q64.38 63.63 64.69 63.06Q65 62.50 65.88 62.50L65.88 62.50Q66.88 62.50 67.13 63.19Q67.38 63.88 67.38 64.63L67.38 64.63L67.38 69.50ZM79.25 66.63L79.25 66.63Q79.25 64.25 76.88 64.06Q74.50 63.88 74.50 62.75L74.50 62.75Q74.50 62.50 74.75 62.31Q75 62.13 75.25 62.13L75.25 62.13Q75.63 62.13 75.88 62.31Q76.13 62.50 76.13 62.88L76.13 62.88L78.88 62.88Q78.75 61.38 77.75 60.69Q76.75 60 75.38 60L75.38 60Q74 60 72.81 60.75Q71.63 61.50 71.63 63L71.63 63Q71.63 64 72.31 64.56Q73 65.13 73.88 65.38L73.88 65.38Q74.25 65.50 74.56 65.63Q74.88 65.75 75.13 65.88L75.13 65.88Q75.50 66 75.94 66.19Q76.38 66.38 76.38 66.88L76.38 66.88Q76.38 67.25 76.06 67.44Q75.75 67.63 75.38 67.63L75.38 67.63Q75 67.63 74.69 67.38Q74.38 67.13 74.38 66.75L74.38 66.75L71.50 66.75Q71.75 68.25 72.81 69.06Q73.88 69.88 75.38 69.88L75.38 69.88Q76.88 69.88 78.06 69.06Q79.25 68.25 79.25 66.63L79.25 66.63ZM84 62.38L85.38 62.38L85.38 60.25L84 60.25L84 57.13L81.25 57.13L81.25 60.25L79.75 60.25L79.75 62.38L81.25 62.38L81.25 69.50L84 69.50L84 62.38ZM93.50 69.50L96.25 69.50L96.25 60.25L93.50 60.25L93.50 61.25L93.38 61.25Q93 60.50 92.19 60.25Q91.38 60 90.63 60L90.63 60Q88.50 60 87.19 61.44Q85.88 62.88 85.88 64.88L85.88 64.88Q85.88 66.88 87.19 68.38Q88.50 69.88 90.63 69.88L90.63 69.88Q91.38 69.88 92.19 69.56Q93 69.25 93.38 68.50L93.38 68.50L93.50 68.50L93.50 69.50ZM93.50 64.88L93.50 64.88Q93.50 65.88 92.81 66.56Q92.13 67.25 91.13 67.25L91.13 67.25Q91.13 67.25 91.06 67.25Q91 67.25 91 67.25L91 67.25Q90.13 67.25 89.44 66.56Q88.75 65.88 88.75 64.88L88.75 64.88Q88.75 64.88 88.75 64.88Q88.75 64.88 88.75 64.88L88.75 64.88L88.75 64.88Q88.75 63.88 89.38 63.19Q90 62.50 91 62.50L91 62.50Q92.13 62.50 92.81 63.19Q93.50 63.88 93.50 64.88L93.50 64.88ZM107.88 66L107.88 66L105 66Q104.63 66.63 104.13 66.94Q103.63 67.25 103 67.25L103 67.25Q101.88 67.25 101.31 66.56Q100.75 65.88 100.75 64.88L100.75 64.88Q100.75 63.88 101.31 63.19Q101.88 62.50 102.88 62.50L102.88 62.50Q103.63 62.50 104.19 62.81Q104.75 63.13 105 63.88L105 63.88L107.88 63.88Q107.50 62.13 106.06 61.06Q104.63 60 102.88 60L102.88 60Q100.75 60 99.31 61.38Q97.88 62.75 97.88 64.88L97.88 64.88Q97.88 66.88 99.31 68.31Q100.75 69.75 102.88 69.75L102.88 69.75Q104.75 69.75 106.13 68.69Q107.50 67.63 107.88 66L107.88 66ZM114.50 64.38L118.13 60.25L114.75 60.25L112.13 63.63L112.13 63.63L112.13 57.13L109.25 57.13L109.25 69.50L112.13 69.50L112.13 65L112.13 65L114.75 69.50L118 69.50L114.50 64.38Z"/></svg>