<svg xmlns="http://www.w3.org/2000/svg" xmlns:xlink="http://www.w3.org/1999/xlink" width="128" height="128"><path fill="#ffffff" d="M2.63 49.25L2.63 49.25Q2.63 49.38 2.31 49.63Q2 49.88 1.88 50L1.88 50Q1.75 50 1.69 50.06Q1.63 50.13 1.63 50.38L1.63 50.38Q1.63 50.63 1.75 50.75Q1.88 50.88 2.38 51.38L2.38 51.38Q2.75 51.63 2.56 52.25Q2.38 52.88 1.88 52.88L1.88 52.88Q1.63 52.88 1.63 53.31Q1.63 53.75 2.13 54.13L2.13 54.13Q2.50 54.50 2.44 55.13Q2.38 55.75 1.88 55.75L1.88 55.75Q1.63 55.88 1.69 56.25Q1.75 56.63 2 57L2 57Q2.50 57.50 2.44 58Q2.38 58.50 1.88 58.63L1.88 58.63Q1.75 58.75 1.69 58.81Q1.63 58.88 1.63 59.13L1.63 59.13Q1.63 59.50 1.69 59.63Q1.75 59.75 2.13 59.88L2.13 59.88Q2.63 60.13 2.63 60.75Q2.63 61.38 2.13 61.63L2.13 61.63Q1.75 61.63 1.69 61.81Q1.63 62 1.63 62.38L1.63 62.38Q1.63 62.63 1.69 62.69Q1.75 62.75 1.88 62.75L1.88 62.75Q2.50 62.88 2.44 63.75Q2.38 64.63 1.88 64.63L1.88 64.63Q1.63 64.63 1.63 65.13Q1.63 65.63 1.88 65.75L1.88 65.75Q2.25 65.88 2.44 66.38Q2.63 66.88 2.25 67.13L2.25 67.13Q1.88 67.50 1.75 67.63Q1.63 67.75 1.63 68.13L1.63 68.13Q1.63 68.38 1.69 68.50Q1.75 68.63 1.88 68.63L1.88 68.63Q2.38 68.75 2.44 69.31Q2.50 69.88 2.13 70.25L2.13 70.25Q1.75 70.63 1.63 71.06Q1.50 71.50 1.75 71.50L1.75 71.50Q2.38 71.50 2.50 72.13Q2.63 72.75 2.13 73.25L2.13 73.25Q1.75 73.63 1.63 74Q1.50 74.38 1.88 74.38L1.88 74.38Q1.88 74.38 2.06 74.56Q2.25 74.75 2.38 74.88L2.38 74.88Q2.63 75.13 2.88 75.19Q3.13 75.25 3.25 75.13L3.25 75.13Q3.50 74.38 4.25 74.38Q5 74.38 5.38 75L5.38 75Q5.50 75.25 5.75 75.25Q6 75.25 6 75L6 75Q6 75 6.06 74.94Q6.13 74.88 6.13 74.88L6.13 74.88Q6.25 74.88 6.31 74.81Q6.38 74.75 6.50 74.63L6.50 74.63Q6.75 74.25 7.13 74.31Q7.50 74.38 7.88 74.75L7.88 74.75Q8.25 75.13 8.50 75.19Q8.75 75.25 8.88 75L8.88 75Q8.88 75 8.94 74.94Q9 74.88 9 74.88L9 74.88Q9.13 74.88 9.19 74.81Q9.25 74.75 9.38 74.63L9.38 74.63Q9.63 74.25 10.13 74.38Q10.63 74.50 10.88 75L10.88 75Q11 75.25 11.25 75.25Q11.50 75.25 11.63 75.13L11.63 75.13L12 74.75Q12 74.75 12.06 74.69Q12.13 74.63 12.13 74.50L12.13 74.50L12.13 74.50Q12.25 74.25 12.81 74.38Q13.38 74.50 13.63 74.88L13.63 74.88Q13.75 75.13 14.06 75.25Q14.38 75.38 14.38 75.13L14.38 75.13Q14.38 75.13 14.44 75.06Q14.50 75 14.63 75L14.63 75Q14.63 74.88 14.75 74.81Q14.88 74.75 14.88 74.63L14.88 74.63Q14.88 74.38 15.50 74.38Q16.13 74.38 16.38 74.75L16.38 74.75Q16.63 75.25 17.06 75.19Q17.50 75.13 17.63 74.75L17.63 74.75Q17.88 74.38 18.44 74.44Q19 74.50 19.13 74.75L19.13 74.75Q19.38 75.25 19.81 75.19Q20.25 75.13 20.38 74.75L20.38 74.75Q20.63 74.38 21.19 74.38Q21.75 74.38 21.88 74.63L21.88 74.63Q21.88 74.75 22.19 75Q22.50 75.25 22.63 75.25L22.63 75.25Q22.75 75.25 22.88 75.13Q23 75 23.13 74.88L23.13 74.88Q23.50 74.38 24 74.38Q24.50 74.38 24.75 74.75L24.75 74.75Q24.75 74.88 24.81 74.94Q24.88 75 24.88 75L24.88 75Q25 75 25.06 75Q25.13 75 25.13 75.13L25.13 75.13Q25.25 75.25 25.63 75.13Q26 75 26 74.63L26 74.63Q26 74.63 26.13 74.56Q26.25 74.50 26.38 74.38L26.38 74.38Q26.63 74.25 26.63 74Q26.63 73.75 26.25 73.38L26.25 73.38Q25.88 72.88 25.88 72.31Q25.88 71.75 26.38 71.50L26.38 71.50Q26.50 71.38 26.56 71.31Q26.63 71.25 26.63 71.13L26.63 71.13Q26.63 70.88 26.50 70.56Q26.38 70.25 26.25 70.25L26.25 70.25Q25.88 70.25 25.94 69.56Q26 68.88 26.50 68.50L26.50 68.50Q26.63 68.38 26.50 67.88Q26.38 67.38 26.13 67.25L26.13 67.25Q25.88 67.13 25.94 66.50Q26 65.88 26.25 65.75L26.25 65.75Q26.63 65.50 26.56 65.06Q26.50 64.63 26.25 64.50L26.25 64.50Q25.88 64.13 25.88 63.56Q25.88 63 26.25 62.88L26.25 62.88Q26.63 62.63 26.56 62.19Q26.50 61.75 26.25 61.50L26.25 61.50Q25.88 61.38 25.81 60.75Q25.75 60.13 26.13 59.88L26.13 59.88Q26.50 59.75 26.56 59.25Q26.63 58.75 26.25 58.63L26.25 58.63Q26.13 58.63 26 58.38Q25.88 58.13 25.88 57.88L25.88 57.88Q25.88 57.63 26 57.31Q26.13 57 26.13 57L26.13 57Q26.50 57 26.50 56.44Q26.50 55.88 26.25 55.75L26.25 55.75Q25.88 55.50 25.88 54.94Q25.88 54.38 26.13 54.13L26.13 54.13Q26.50 53.88 26.50 53.38Q26.50 52.88 26.25 52.88L26.25 52.88Q25.88 52.88 25.88 52.19Q25.88 51.50 26.13 51.13L26.13 51.13Q26.25 51 26.44 50.69Q26.63 50.38 26.63 50.25L26.63 50.25Q26.63 50.25 26.56 50.13Q26.50 50 26.38 50L26.38 50Q26.25 49.88 26.13 49.81Q26 49.75 25.88 49.63L25.88 49.63L25.88 49.63Q25.88 49.38 25.63 49.31Q25.38 49.25 25.25 49.38L25.25 49.38Q25.13 49.38 25.06 49.44Q25 49.50 25 49.50L25 49.50L25 49.50Q24.88 49.50 24.81 49.56Q24.75 49.63 24.75 49.75L24.75 49.75L24.75 49.75Q24.63 50 23.94 50Q23.25 50 23.13 49.63L23.13 49.63Q23.13 49.50 23.06 49.44Q23 49.38 22.88 49.38L22.88 49.38Q22.75 49.25 22.69 49.25Q22.63 49.25 22.63 49.13L22.63 49.13Q22.63 49.13 22.63 49.13Q22.63 49.13 22.50 49.13L22.50 49.13Q22.50 49.25 22.44 49.31Q22.38 49.38 22.25 49.38L22.25 49.38Q22.13 49.38 22 49.50Q21.88 49.63 21.88 49.75L21.88 49.75Q21.75 50 21.19 50Q20.63 50 20.38 49.63L20.38 49.63Q20.38 49.50 20.25 49.44Q20.13 49.38 20 49.38L20 49.38Q20 49.25 19.94 49.25Q19.88 49.25 19.88 49.13L19.88 49.13Q19.88 49.13 19.81 49.13Q19.75 49.13 19.75 49.13L19.75 49.13Q19.75 49.25 19.63 49.31Q19.50 49.38 19.50 49.38L19.50 49.38Q19.38 49.38 19.31 49.44Q19.25 49.50 19.25 49.50L19.25 49.50Q19.13 50 18.38 50Q17.63 50 17.63 49.63L17.63 49.63Q17.63 49.63 17.56 49.56Q17.50 49.50 17.38 49.38L17.38 49.38Q17.25 49.38 17.13 49.31Q17 49.25 17 49.25L17 49.25Q17 49.13 17 49.13Q17 49.13 17 49.25L17 49.25Q16.88 49.25 16.81 49.25Q16.75 49.25 16.75 49.25L16.75 49.25L16.75 49.25Q16.63 49.25 16.56 49.38Q16.50 49.50 16.38 49.63L16.38 49.63L16.25 49.88L15.63 50Q15.13 50 15 49.94Q14.88 49.88 14.88 49.75L14.88 49.75Q14.88 49.75 14.75 49.63Q14.63 49.50 14.50 49.50L14.50 49.50Q14.38 49.38 14.31 49.31Q14.25 49.25 14.25 49.25L14.25 49.25Q14.25 49.13 14 49.25Q13.75 49.38 13.50 49.63L13.50 49.63L13.38 50L12.75 50Q12.38 50 12.25 49.94Q12.13 49.88 12 49.75L12 49.75Q12 49.63 11.88 49.56Q11.75 49.50 11.75 49.50L11.75 49.50Q11.75 49.50 11.69 49.44Q11.63 49.38 11.50 49.25L11.50 49.25Q11.50 49.13 11.25 49.13Q11 49.13 11 49.25L11 49.25Q11 49.75 10.31 49.94Q9.63 50.13 9.25 49.75L9.25 49.75L8.88 49.38Q8.63 49.13 8.44 49.13Q8.25 49.13 8.25 49.25L8.25 49.25Q8.25 49.63 7.50 49.88Q6.75 50.13 6.50 49.88L6.50 49.88Q6.38 49.75 6.31 49.69Q6.25 49.63 6.13 49.63L6.13 49.63L6.13 49.50Q6.13 49.50 6.06 49.44Q6 49.38 6 49.25L6 49.25L6 49.25Q5.88 49.13 5.63 49.13Q5.38 49.13 5.38 49.25L5.38 49.25Q5.38 49.75 4.63 49.94Q3.88 50.13 3.38 49.63L3.38 49.63Q3.25 49.50 3.19 49.38Q3.13 49.25 3.13 49.25L3.13 49.25Q3.13 49.13 3.06 49.13Q3 49.13 2.88 49.13L2.88 49.13Q2.75 49.13 2.69 49.13Q2.63 49.13 2.63 49.25L2.63 49.25ZM125.50 49.63L125.50 49.63Q125.38 49.75 125.50 49.81Q125.63 49.88 125.75 49.75L125.75 49.75Q125.75 49.75 125.81 49.69Q125.88 49.63 125.75 49.63L125.75 49.63Q125.75 49.50 125.63 49.50Q125.50 49.50 125.50 49.63L125.50 49.63ZM127.25 49.63L127.25 49.63Q127.25 49.75 127.38 49.81Q127.50 49.88 127.50 49.75L127.50 49.75Q127.63 49.75 127.63 49.69Q127.63 49.63 127.63 49.63L127.63 49.63Q127.50 49.50 127.44 49.50Q127.38 49.50 127.25 49.63L127.25 49.63ZM125.13 50L125.13 50Q125 50.13 125 50.25Q125 50.38 125.13 50.38L125.13 50.38Q125.13 50.38 125.19 50.25Q125.25 50.13 125.25 50L125.25 50Q125.13 50 125.13 50Q125.13 50 125.13 50L125.13 50ZM53.75 50.13L53.75 50.13Q53.25 50.13 53.06 50.19Q52.88 50.25 52.75 50.38L52.75 50.38L52.50 50.63L52.50 72.88L52.75 72.88Q53.13 73.13 54 73.13Q54.88 73.13 55 73L55 73Q55 72.88 55 69.38L55 69.38Q55.13 65.88 55.13 61.75Q55.13 57.63 55 54L55 54Q55 50.50 55 50.38L55 50.38Q55 50.13 54.88 50.13Q54.75 50.13 53.75 50.13L53.75 50.13ZM101 50.25L101 50.25Q101 50.38 101 53.88L101 53.88Q101 57.50 101 61.69Q101 65.88 101 69.38L101 69.38Q101 72.88 101 73L101 73Q101.13 73 101.19 73.06Q101.25 73.13 101.38 73.13L101.38 73.13Q101.50 73 101.75 73.06Q102 73.13 102.25 73.13L102.25 73.13Q102.75 73.13 102.88 73.13Q103 73.13 103 73L103 73Q103.13 72.88 103.13 69.38L103.13 69.38Q103.13 65.88 103.19 61.69Q103.25 57.50 103.13 54L103.13 54Q103.13 50.50 103.13 50.38L103.13 50.38Q103 50.13 102.06 50.13Q101.13 50.13 101 50.25L101 50.25ZM108.38 50.38L108.38 50.38Q108.38 50.50 108.38 54L108.38 54Q108.38 57.50 108.38 61.69Q108.38 65.88 108.38 69.38L108.38 69.38Q108.38 72.75 108.38 72.88L108.38 72.88Q108.38 73 108.56 73.06Q108.75 73.13 109.38 73.13L109.38 73.13Q109.75 73.13 110 73.13Q110.25 73.13 110.25 73.13L110.25 73.13Q110.38 73.13 110.38 73.13Q110.38 73.13 110.50 73L110.50 73Q110.50 73 110.63 69.50L110.63 69.50Q110.63 66 110.63 61.81Q110.63 57.63 110.63 54L110.63 54Q110.63 50.50 110.50 50.38L110.50 50.38L110.38 50.13L108.38 50.13L108.38 50.38ZM126 51L126 51Q126 51.25 126 51.50Q126 51.75 126 51.75L126 51.75Q126.13 52 126.13 51.69Q126.13 51.38 126.13 51L126.13 51L126 50.50L126 51ZM128.25 50.88L128.25 50.88Q128.25 51.13 128.25 51.38Q128.25 51.63 128.38 51.63L128.38 51.63Q128.50 51.63 128.50 51.19Q128.50 50.75 128.38 50.63L128.38 50.63Q128.38 50.63 128.31 50.69Q128.25 50.75 128.25 50.88L128.25 50.88ZM30.75 51.50L30.75 51.50Q30.75 51.50 30.75 54.88L30.75 54.88Q30.63 58.13 30.63 62.13Q30.63 66.13 30.75 69.50L30.75 69.50Q30.75 72.88 30.75 73L30.75 73Q30.88 73.13 30.94 73.13Q31 73.13 31.13 73.13L31.13 73.13Q31.13 73 31.44 73Q31.75 73 32 73L32 73Q32.38 73 32.63 73Q32.88 73 32.88 73L32.88 73Q33 72.88 33 71.75Q33 70.63 33 68.25L33 68.25L33 63.63L33.13 63.38Q33.38 63.13 33.56 63.06Q33.75 63 33.88 63.13L33.88 63.13Q34.25 63.25 37.69 63.19Q41.13 63.13 41.13 63L41.13 63Q41.13 62.88 41.13 62.63Q41.13 62.38 41.13 62L41.13 62L41.13 61.13L37.25 61.13Q34.50 61.13 33.88 61.06Q33.25 61 33.13 60.88L33.13 60.88Q33 60.88 33 60.31Q33 59.75 33 57.25L33 57.25L33 53.75L33.25 53.50L33.63 53.25L37.50 53.25Q39.63 53.25 40.56 53.25Q41.50 53.25 41.50 53.25L41.50 53.25Q41.75 53.13 41.75 52.31Q41.75 51.50 41.63 51.50L41.63 51.50Q41.50 51.38 36.19 51.38Q30.88 51.38 30.75 51.50L30.75 51.50ZM45.50 51.63L45.50 51.63Q45.38 51.75 45.25 51.88Q45.13 52 45.13 52L45.13 52Q44.88 52 45 52.94Q45.13 53.88 45.38 54.13L45.38 54.13Q45.50 54.13 45.63 54.25Q45.75 54.38 45.75 54.38L45.75 54.38Q45.88 54.50 46.44 54.50Q47 54.50 47.13 54.38L47.13 54.38Q47.13 54.38 47.19 54.31Q47.25 54.25 47.38 54.13L47.38 54.13L47.38 54.13Q47.50 54.13 47.69 53.63Q47.88 53.13 47.88 52.88L47.88 52.88Q47.75 52.13 47.44 51.75Q47.13 51.38 46.38 51.38L46.38 51.38Q46 51.38 45.81 51.44Q45.63 51.50 45.50 51.63L45.50 51.63ZM75.63 51.50L75.63 51.50Q75.63 51.88 75.63 52.50Q75.63 53.13 75.63 53.13L75.63 53.13Q75.63 53.13 77.13 53.19Q78.63 53.25 80.75 53.25L80.75 53.25L86 53.38Q86.25 53.38 86.25 53.88Q86.25 54.38 86 54.38L86 54.38Q86 54.38 85.94 54.50Q85.88 54.63 85.75 54.75L85.75 54.75Q85.63 54.88 85.56 55Q85.50 55.13 85.50 55.13L85.50 55.13Q85.38 55.13 85.31 55.25Q85.25 55.38 85.25 55.50L85.25 55.50Q85.25 55.63 85.19 55.69Q85.13 55.75 85 55.88L85 55.88Q85 55.88 84.94 55.94Q84.88 56 84.88 56.13L84.88 56.13Q84.75 56.13 84.69 56.31Q84.63 56.50 84.50 56.63L84.50 56.63Q84.38 56.75 84.31 56.88Q84.25 57 84.25 57L84.25 57Q84.25 57.13 84.25 57.13Q84.25 57.13 84.13 57.25L84.13 57.25Q84.13 57.25 84 57.38Q83.88 57.50 83.88 57.63L83.88 57.63Q83.75 57.75 83.69 57.88Q83.63 58 83.50 58.13L83.50 58.13L83.50 58.13Q83.50 58.13 83.44 58.25Q83.38 58.38 83.38 58.38L83.38 58.38Q83.38 58.38 83.31 58.50Q83.25 58.63 83.13 58.63L83.13 58.63Q83.13 58.75 83.06 58.81Q83 58.88 82.88 59L82.88 59L82.88 59Q82.88 59.13 82.81 59.25Q82.75 59.38 82.75 59.38L82.75 59.38L82.75 59.38Q82.63 59.50 82.56 59.56Q82.50 59.63 82.50 59.75L82.50 59.75L82.50 59.75Q82.38 59.88 82.31 60Q82.25 60.13 82.13 60.13L82.13 60.13L82.13 60.13Q82.13 60.25 82.06 60.31Q82 60.38 82 60.50L82 60.50Q82 60.50 81.94 60.63Q81.88 60.75 81.75 60.75L81.75 60.75Q81.75 60.88 81.63 61Q81.50 61.13 81.50 61.25L81.50 61.25L81.50 61.25Q81.38 61.38 81.31 61.50Q81.25 61.63 81.25 61.63L81.25 61.63Q81.25 61.63 81.19 61.69Q81.13 61.75 81 61.88L81 61.88Q80.88 62.13 80.69 62.44Q80.50 62.75 80.25 63L80.25 63L80.25 63Q80.25 63.13 80.19 63.19Q80.13 63.25 80.13 63.38L80.13 63.38Q80.13 63.38 80.06 63.44Q80 63.50 79.88 63.63L79.88 63.63Q79.75 63.75 79.75 63.81Q79.75 63.88 79.75 63.88L79.75 63.88Q79.75 64 79.63 64.13Q79.50 64.25 79.50 64.38L79.50 64.38Q79.38 64.38 79.31 64.50Q79.25 64.63 79.13 64.75L79.13 64.75L79.13 64.75L78.88 65.25Q78.63 65.50 78.44 65.81Q78.25 66.13 78.13 66.38L78.13 66.38L78.13 66.38Q78 66.38 77.94 66.50Q77.88 66.63 77.88 66.63L77.88 66.63Q77.88 66.75 77.81 66.81Q77.75 66.88 77.75 67L77.75 67Q77.63 67.13 77.56 67.25Q77.50 67.38 77.38 67.50L77.38 67.50L77.38 67.50Q77.38 67.63 77.25 67.75Q77.13 67.88 77.13 67.88L77.13 67.88Q77.13 67.88 77.06 67.94Q77 68 77 68.13L77 68.13Q76.88 68.25 76.69 68.56Q76.50 68.88 76.25 69.13L76.25 69.13Q76.13 69.25 76.06 69.38Q76 69.50 76 69.50L76 69.50Q76 69.63 75.94 69.75Q75.88 69.88 75.75 70L75.75 70Q75.63 70.13 75.56 70.25Q75.50 70.38 75.50 70.50L75.50 70.50Q75.50 70.50 75.44 70.56Q75.38 70.63 75.25 70.63L75.25 70.63L75.25 70.63Q75.25 70.63 75.19 70.75Q75.13 70.88 75.13 71L75.13 71Q75 71.13 74.94 71.19Q74.88 71.25 74.88 71.38L74.88 71.38L74.88 71.38Q74.63 71.50 74.63 72.38Q74.63 73.25 74.88 73.13L74.88 73.13Q75 73 81.75 73.06Q88.50 73.13 89.25 73.13L89.25 73.13Q89.63 73.13 89.69 72.94Q89.75 72.75 89.75 72L89.75 72L89.75 71.25L83.88 71.25Q79.75 71.25 78.88 71.19Q78 71.13 77.88 71L77.88 71Q77.88 70.88 77.81 70.88Q77.75 70.88 77.88 70.75L77.88 70.75Q78 70.75 78.06 70.63Q78.13 70.50 78.13 70.50L78.13 70.50Q78.13 70.38 78.19 70.25Q78.25 70.13 78.38 70L78.38 70L78.38 70Q78.38 70 78.44 69.88Q78.50 69.75 78.63 69.63L78.63 69.63L78.63 69.63Q78.63 69.50 78.69 69.38Q78.75 69.25 78.88 69.13L78.88 69.13Q79.25 68.75 79.38 68.63Q79.50 68.50 79.50 68.25L79.50 68.25Q79.63 68.13 79.69 68Q79.75 67.88 79.75 67.88L79.75 67.88Q79.75 67.88 79.81 67.81Q79.88 67.75 80 67.63L80 67.63Q80 67.50 80.06 67.38Q80.13 67.25 80.25 67.13L80.25 67.13Q80.38 67.13 80.38 67.06Q80.38 67 80.38 66.88L80.38 66.88Q80.38 66.88 80.50 66.75Q80.63 66.63 80.63 66.50L80.63 66.50Q80.75 66.38 80.81 66.25Q80.88 66.13 80.88 66.13L80.88 66.13Q80.88 66.13 81 66Q81.13 65.88 81.13 65.75L81.13 65.75Q81.25 65.63 81.31 65.50Q81.38 65.38 81.38 65.38L81.38 65.38Q81.38 65.38 81.44 65.31Q81.50 65.25 81.50 65.13L81.50 65.13Q81.63 65.13 81.69 65Q81.75 64.88 81.75 64.75L81.75 64.75Q81.88 64.63 81.94 64.50Q82 64.38 82.13 64.38L82.13 64.38L82.13 64.38Q82.25 64.25 82.25 64.19Q82.25 64.13 82.25 64L82.25 64Q82.25 64 82.31 63.88Q82.38 63.75 82.50 63.75L82.50 63.75Q82.63 63.63 82.69 63.56Q82.75 63.50 82.75 63.38L82.75 63.38Q82.75 63.38 82.81 63.25Q82.88 63.13 83 63L83 63Q83 62.88 83.13 62.75Q83.25 62.63 83.25 62.63L83.25 62.63Q83.25 62.63 83.31 62.50Q83.38 62.38 83.50 62.25L83.50 62.25Q83.50 62.13 83.63 62Q83.75 61.88 83.75 61.88L83.75 61.88Q83.75 61.88 83.81 61.69Q83.88 61.50 84.13 61.25L84.13 61.25Q84.25 61.13 84.44 60.88Q84.63 60.63 84.63 60.50L84.63 60.50Q84.75 60.25 85 59.94Q85.25 59.63 85.38 59.50L85.38 59.50Q85.38 59.38 85.44 59.31Q85.50 59.25 85.50 59.13L85.50 59.13Q85.50 59.13 85.56 59Q85.63 58.88 85.75 58.75L85.75 58.75Q85.88 58.63 85.94 58.50Q86 58.38 86 58.38L86 58.38Q86 58.38 86.06 58.25Q86.13 58.13 86.25 58.13L86.25 58.13Q86.25 58 86.31 57.94Q86.38 57.88 86.50 57.75L86.50 57.75Q86.50 57.75 86.56 57.63Q86.63 57.50 86.75 57.38L86.75 57.38Q86.75 57.25 86.81 57.13Q86.88 57 86.88 57L86.88 57Q87 56.88 87.06 56.75Q87.13 56.63 87.13 56.63L87.13 56.63Q87.25 56.50 87.31 56.44Q87.38 56.38 87.38 56.38L87.38 56.38Q87.38 56.25 87.44 56.19Q87.50 56.13 87.50 56L87.50 56Q87.63 56 87.69 55.88Q87.75 55.75 87.88 55.63L87.88 55.63Q87.88 55.50 87.94 55.38Q88 55.25 88.13 55.25L88.13 55.25Q88.13 55.25 88.19 55.13Q88.25 55 88.38 54.88L88.38 54.88Q88.38 54.75 88.44 54.69Q88.50 54.63 88.50 54.63L88.50 54.63Q88.50 54.63 88.63 54.50Q88.75 54.38 88.75 54.25L88.75 54.25Q88.88 54 88.94 53.94Q89 53.88 89 53.88L89 53.88Q89 53.88 89.06 53.75Q89.13 53.63 89.25 53.50L89.25 53.50Q89.38 53.38 89.44 53.25Q89.50 53.13 89.50 53.13L89.50 53.13Q89.63 53.13 89.63 52.94Q89.63 52.75 89.63 52.25L89.63 52.25L89.63 51.50L82.63 51.50Q78.38 51.38 77 51.44Q75.63 51.50 75.63 51.50L75.63 51.50ZM94 51.50L94 51.50Q93.50 51.75 93.19 52.50Q92.88 53.25 93.25 53.63L93.25 53.63Q93.38 53.75 93.44 53.81Q93.50 53.88 93.50 54L93.50 54Q93.50 54 93.56 54.06Q93.63 54.13 93.75 54.13L93.75 54.13Q93.75 54.13 93.88 54.19Q94 54.25 94 54.38L94 54.38Q94.25 54.50 94.63 54.56Q95 54.63 95.13 54.38L95.13 54.38Q95.25 54.38 95.31 54.31Q95.38 54.25 95.50 54.25L95.50 54.25L95.50 54.25Q95.50 54.13 95.63 54.06Q95.75 54 95.75 54L95.75 54L95.75 54Q95.75 53.88 95.81 53.81Q95.88 53.75 96 53.63L96 53.63L96 53.63Q96.25 53.50 96.13 52.88Q96 52.25 95.75 51.88L95.75 51.88Q95.50 51.50 94.94 51.44Q94.38 51.38 94 51.50L94 51.50ZM125 52L125 52Q125 52.13 125.06 52.19Q125.13 52.25 125.25 52.13L125.25 52.13Q125.25 52.13 125.19 52Q125.13 51.88 125.13 51.88L125.13 51.88Q125 51.88 125 51.94Q125 52 125 52L125 52ZM125.38 52.50L125.38 52.50Q125.50 52.63 125.56 52.63Q125.63 52.63 125.63 52.63L125.63 52.63Q125.63 52.50 125.63 52.50Q125.63 52.50 125.50 52.50L125.50 52.50Q125.50 52.50 125.44 52.50Q125.38 52.50 125.38 52.50L125.38 52.50ZM19.50 52.88L19.50 52.88Q19.63 53.13 19.56 53.75Q19.50 54.38 19.38 54.50L19.38 54.50Q19.25 54.63 19.19 54.88Q19.13 55.13 19.13 55.50L19.13 55.50Q19.13 55.88 19.13 56.06Q19.13 56.25 19 56.38L19 56.38L18.75 56.63L11.38 56.63L11.25 56.88Q11.25 57.13 11.19 57.25Q11.13 57.38 11 57.50L11 57.50L11 57.50Q10.88 57.75 10.81 58.56Q10.75 59.38 10.88 59.38L10.88 59.38L17 59.38Q20.75 59.38 21.88 59.44Q23 59.50 23.13 59.50L23.13 59.50Q23.25 59.63 23.25 59.88Q23.25 60.13 23.13 60.38L23.13 60.38Q23 60.50 22.94 60.75Q22.88 61 22.88 61.25L22.88 61.25Q22.75 61.63 22.69 61.75Q22.63 61.88 22.63 62L22.63 62Q22.50 62.13 22.44 62.19Q22.38 62.25 22.38 62.38L22.38 62.38L22.38 62.38Q22.25 62.38 22.25 62.44Q22.25 62.50 22.13 62.50L22.13 62.50Q22.13 62.50 20.69 64Q19.25 65.50 18.50 66.25L18.50 66.25Q18.50 66.25 18.19 66.56Q17.88 66.88 17.38 67.38L17.38 67.38Q16.38 68.38 16.44 68.50Q16.50 68.63 18.25 68.63L18.25 68.63Q19.38 68.63 19.69 68.56Q20 68.50 20.25 68.38L20.25 68.38Q20.25 68.38 20.50 68.31Q20.75 68.25 20.88 68.13L20.88 68.13Q21.13 68.13 21.31 68.06Q21.50 68 21.63 67.88L21.63 67.88L21.63 68Q22 67.75 22.13 67.81Q22.25 67.88 22.25 68.38L22.25 68.38Q22.25 68.50 22.25 68.63Q22.25 68.75 22.13 68.75L22.13 68.75Q22.13 68.75 22.06 68.94Q22 69.13 22 69.38L22 69.38Q21.88 70.38 21.75 70.81Q21.63 71.25 21.25 71.25L21.25 71.25Q21.25 71.25 21.13 71.31Q21 71.38 21 71.38L21 71.38Q20.88 71.50 20.69 71.56Q20.50 71.63 20.25 71.75L20.25 71.75Q20 71.75 19.75 71.81Q19.50 71.88 19.38 71.88L19.38 71.88Q19 72.13 17.44 72.13Q15.88 72.13 15.50 71.88L15.50 71.88Q15.25 71.63 14.13 71.69Q13 71.75 12.75 71.88L12.75 71.88Q12.38 72.13 12 72Q11.63 71.88 11.63 71.63L11.63 71.63Q11.63 71.50 11.56 71.38Q11.50 71.25 11.38 71.13L11.38 71.13Q11.25 71 11.19 70.81Q11.13 70.63 11.13 70.50L11.13 70.50Q11.13 70.38 11.06 70.31Q11 70.25 10.88 70.25L10.88 70.25L10.88 70.25Q10.50 70 10.88 69.50Q11.25 69 13.63 66.63L13.63 66.63Q14.75 65.38 15.63 64.50Q16.50 63.63 16.50 63.63L16.50 63.63Q16.63 63.63 16.63 63.56Q16.63 63.50 16.63 63.50L16.63 63.50Q16.63 63.50 16.69 63.38Q16.75 63.25 16.88 63.25L16.88 63.25Q16.88 63.25 16.94 63.19Q17 63.13 17 63L17 63L17 62.75Q17 62.75 13.50 62.69Q10 62.63 10 62.75L10 62.75Q10 62.75 9.94 62.94Q9.88 63.13 9.88 63.25L9.88 63.25Q9.88 63.50 9.81 63.69Q9.75 63.88 9.75 64L9.75 64Q9.63 64.13 9.56 64.38Q9.50 64.63 9.38 65.38L9.38 65.38Q9.38 65.75 9.31 66.06Q9.25 66.38 9.25 66.50L9.25 66.50Q9.13 66.63 9.06 66.94Q9 67.25 9 67.50L9 67.50Q9 67.88 8.94 68.19Q8.88 68.50 8.75 68.63L8.75 68.63Q8.75 68.75 8.69 68.94Q8.63 69.13 8.50 69.38L8.50 69.38L8.50 69.38Q8.50 70 8.25 70.13Q8 70.25 6.63 70.25L6.63 70.25Q5.13 70.25 4.81 70Q4.50 69.75 4.88 69L4.88 69Q5 68.88 5.06 68.56Q5.13 68.25 5.13 67.75L5.13 67.75Q5.25 67.25 5.25 67Q5.25 66.75 5.38 66.75L5.38 66.75Q5.38 66.63 5.44 66.38Q5.50 66.13 5.63 65.63L5.63 65.63Q5.63 65.25 5.69 64.94Q5.75 64.63 5.88 64.50L5.88 64.50Q5.88 64.38 5.94 64.13Q6 63.88 6 63.63L6 63.63Q6.13 63 6.19 62.63Q6.25 62.25 6.25 62.25L6.25 62.25Q6.38 62.25 6.44 61.94Q6.50 61.63 6.50 60.88L6.50 60.88Q6.63 60.38 6.63 60.19Q6.63 60 6.75 59.88L6.75 59.88Q6.88 59.75 6.88 59.50Q6.88 59.25 7 58.75L7 58.75Q7 58.13 7.06 57.94Q7.13 57.75 7.25 57.50L7.25 57.50Q7.25 57.38 7.31 57.19Q7.38 57 7.38 56.75L7.38 56.75Q7.50 56 7.56 55.69Q7.63 55.38 7.63 55.25L7.63 55.25Q7.75 55.25 7.88 54.75Q8 54.25 8 53.75L8 53.75Q8 53.63 8 53.44Q8 53.25 8.25 53L8.25 53L8.38 52.75L14 52.75Q18 52.75 18.75 52.75Q19.50 52.75 19.50 52.88L19.50 52.88ZM126.38 53L126.38 53Q126.50 53.13 126.63 53.06Q126.75 53 126.75 53L126.75 53Q126.75 53 126.69 53Q126.63 53 126.50 53L126.50 53Q126.38 53 126.38 53Q126.38 53 126.38 53L126.38 53ZM64.50 57.38L64.50 57.38Q64.38 57.50 64.13 57.56Q63.88 57.63 63.75 57.63L63.75 57.63L63.63 57.63Q63.38 57.75 63.25 57.81Q63.13 57.88 63 58L63 58Q62.88 58 62.75 58.06Q62.63 58.13 62.50 58.13L62.50 58.13Q62.38 58.13 62.13 58.38Q61.88 58.63 61.25 59.25L61.25 59.25Q60.63 60 60.44 60.13Q60.25 60.25 60.25 60.38L60.25 60.38Q60.25 60.50 60.19 60.63Q60.13 60.75 60 60.88L60 60.88Q59.88 61 59.81 61.13Q59.75 61.25 59.75 61.50L59.75 61.50Q59.75 61.50 59.75 61.50Q59.75 61.50 59.75 61.50L59.75 61.50Q59.75 61.63 59.75 61.75Q59.75 61.88 59.63 62L59.63 62L59.63 62Q59.50 62 59.44 62.19Q59.38 62.38 59.38 62.88L59.38 62.88Q59.25 63.25 59.19 63.56Q59.13 63.88 59.13 64L59.13 64Q59 64.25 59 65.56Q59 66.88 59.13 67.13L59.13 67.13Q59.25 67.25 59.31 67.75Q59.38 68.25 59.38 68.75L59.38 68.75Q59.38 68.88 59.44 68.94Q59.50 69 59.63 69.13L59.63 69.13Q59.75 69.25 59.75 69.38Q59.75 69.50 59.75 69.63L59.75 69.63Q59.75 69.75 59.88 69.88Q60 70 60 70.13L60 70.13Q60.13 70.25 60.19 70.31Q60.25 70.38 60.25 70.50L60.25 70.50Q60.25 70.50 60.44 70.69Q60.63 70.88 61 71.25L61 71.25Q61.13 71.38 61.19 71.50Q61.25 71.63 61.38 71.63L61.38 71.63L61.38 71.63L62 72.13Q62 72.25 62.19 72.38Q62.38 72.50 62.50 72.50L62.50 72.50Q62.63 72.50 62.75 72.56Q62.88 72.63 62.88 72.75L62.88 72.75L62.88 72.75Q63 72.88 63.13 72.88Q63.25 72.88 63.63 73L63.63 73Q63.75 73 64 73.06Q64.25 73.13 64.38 73.25L64.38 73.25Q64.75 73.38 66.50 73.38Q68.25 73.38 68.75 73.25L68.75 73.25Q69 73.13 69.25 73.06Q69.50 73 69.88 72.88L69.88 72.88L69.88 72.88Q70.13 72.88 70.31 72.81Q70.50 72.75 70.63 72.75L70.63 72.75Q70.63 72.63 70.75 72.56Q70.88 72.50 71 72.50L71 72.50L71 72.50Q71.13 72.38 71.13 72.19Q71.13 72 71 71.75L71 71.75Q71 71.63 70.94 71.50Q70.88 71.38 70.75 71.25L70.75 71.25Q70.63 70.88 70.63 70.88Q70.63 70.88 70.38 71L70.38 71Q70.38 71 70.13 71.06Q69.88 71.13 69.63 71.25L69.63 71.25Q69.38 71.25 69.13 71.31Q68.88 71.38 68.75 71.50L68.75 71.50Q68.50 71.63 67 71.63Q65.50 71.63 65.13 71.50L65.13 71.50Q65 71.38 64.81 71.31Q64.63 71.25 64.50 71.25L64.50 71.25L64.50 71.25Q64.25 71.13 64.13 71.06Q64 71 63.88 71L63.88 71Q63.88 71 63.75 70.88Q63.63 70.75 63.50 70.75L63.50 70.75Q63.13 70.50 62.81 70.19Q62.50 69.88 62.38 69.75L62.38 69.75Q62.38 69.63 62.31 69.50Q62.25 69.38 62.13 69.25L62.13 69.25L62.13 69.25Q62 69.25 62 69.19Q62 69.13 62 69L62 69Q62 68.88 61.94 68.81Q61.88 68.75 61.75 68.63L61.75 68.63Q61.63 68.50 61.56 68.25Q61.50 68 61.50 67.63L61.50 67.63Q61.38 67.38 61.38 67.13Q61.38 66.88 61.25 66.75L61.25 66.75Q61.13 66.63 61.19 66.25Q61.25 65.88 61.38 65.88L61.38 65.88Q61.38 65.75 62.44 65.75Q63.50 65.75 66.75 65.75L66.75 65.75L72 65.75L72.13 65.50Q72.25 65.13 72.13 63.94Q72 62.75 71.88 62.50L71.88 62.50Q71.88 62.50 71.81 62.25Q71.75 62 71.63 61.75L71.63 61.75Q71.63 61.50 71.56 61.25Q71.50 61 71.38 60.88L71.38 60.88Q71.38 60.88 71.31 60.75Q71.25 60.63 71.25 60.38L71.25 60.38L71.25 60.38Q71.25 60.25 71.19 60.13Q71.13 60 71 60L71 60Q71 60 70.88 59.88Q70.75 59.75 70.75 59.63L70.75 59.63Q70.63 59.50 70.56 59.38Q70.50 59.25 70.38 59.13L70.38 59.13Q70.25 59.13 70.25 59.06Q70.25 59 70.25 58.88L70.25 58.88Q70.25 58.88 70.19 58.81Q70.13 58.75 70 58.63L70 58.63Q69.63 58.50 69.38 58.31Q69.13 58.13 68.88 57.88L68.88 57.88L69 57.88Q68.88 57.88 68.69 57.81Q68.50 57.75 68.25 57.63L68.25 57.63Q68 57.63 67.81 57.56Q67.63 57.50 67.50 57.38L67.50 57.38L67.50 57.38Q67.13 57.25 66 57.25Q64.88 57.25 64.50 57.38L64.50 57.38ZM119.25 57.25L119.25 57.25Q119.13 57.25 119 57.31Q118.88 57.38 118.75 57.50L118.75 57.50Q118.63 57.50 118.38 57.56Q118.13 57.63 117.75 57.63L117.75 57.63Q117.50 57.75 117.31 57.75Q117.13 57.75 117 57.88L117 57.88Q117 58 116.88 58.06Q116.75 58.13 116.50 58.13L116.50 58.13Q116 58.25 115.81 58.56Q115.63 58.88 115.88 59.13L115.88 59.13Q116 59.25 116.06 59.38Q116.13 59.50 116.13 59.63L116.13 59.63L116.13 59.63Q116.25 59.88 116.50 59.94Q116.75 60 117 59.75L117 59.75Q117 59.63 117.19 59.56Q117.38 59.50 117.63 59.50L117.63 59.50Q117.75 59.38 117.94 59.31Q118.13 59.25 118.25 59.25L118.25 59.25Q118.38 59.13 118.63 59.06Q118.88 59 119.75 59L119.75 59L121.13 59L121.63 59.25Q121.88 59.38 122.06 59.44Q122.25 59.50 122.25 59.50L122.25 59.50Q122.38 59.50 122.75 59.88Q123.13 60.25 123.13 60.38L123.13 60.38Q123.13 60.50 123.19 60.56Q123.25 60.63 123.38 60.75L123.38 60.75Q123.50 61 123.56 61.38Q123.63 61.75 123.63 62.50L123.63 62.50Q123.63 63.25 123.44 63.31Q123.25 63.38 122 63.50L122 63.50Q121 63.50 120.69 63.56Q120.38 63.63 120.25 63.75L120.25 63.75Q120.13 63.75 119.88 63.81Q119.63 63.88 119.25 64L119.25 64Q118.75 64 118.56 64.06Q118.38 64.13 118.25 64.25L118.25 64.25Q118.25 64.25 118.13 64.31Q118 64.38 118 64.38L118 64.38Q117.75 64.38 117.56 64.50Q117.38 64.63 117.25 64.75L117.25 64.75L117.25 64.75Q117.13 64.88 117.06 64.88Q117 64.88 116.88 64.88L116.88 64.88L116.88 64.88Q116.75 64.88 116 65.63Q115.25 66.38 115.25 66.63L115.25 66.63Q115.13 66.75 115.13 66.88Q115.13 67 115 67.13L115 67.13L115 67.13Q114.75 67.50 114.75 69.19Q114.75 70.88 115 71.13L115 71.13Q115.13 71.13 115.19 71.31Q115.25 71.50 115.25 71.63L115.25 71.63Q115.38 71.75 115.44 71.81Q115.50 71.88 115.50 72L115.50 72Q115.63 72 115.69 72.06Q115.75 72.13 115.75 72.25L115.75 72.25Q115.75 72.25 115.81 72.31Q115.88 72.38 116 72.38L116 72.38Q116 72.38 116.13 72.44Q116.25 72.50 116.38 72.63L116.38 72.63Q116.38 72.75 116.56 72.81Q116.75 72.88 116.88 73L116.88 73Q117 73 117.13 73.06Q117.25 73.13 117.38 73.25L117.38 73.25L117.38 73.25Q117.63 73.38 119.13 73.38Q120.63 73.38 120.88 73.25L120.88 73.25Q121 73.13 121.19 73.06Q121.38 73 121.50 72.88L121.50 72.88Q121.75 72.88 121.88 72.81Q122 72.75 122 72.63L122 72.63Q122.13 72.63 122.19 72.56Q122.25 72.50 122.25 72.50L122.25 72.50Q122.38 72.50 122.50 72.38Q122.63 72.25 123.25 71.63L123.25 71.63Q123.75 71.13 123.88 71.25Q124 71.38 124.13 72.25L124.13 72.25Q124.13 72.88 124.31 73Q124.50 73.13 125.25 73.13L125.25 73.13Q125.75 73.13 125.94 73.13Q126.13 73.13 126.13 73L126.13 73Q126.25 72.75 126.19 67.31Q126.13 61.88 126 61.63L126 61.63Q125.88 61.50 125.81 61.25Q125.75 61 125.75 60.75L125.75 60.75Q125.75 60.63 125.63 60.38Q125.50 60.13 125.50 60.13L125.50 60.13Q125.38 60 125.31 59.88Q125.25 59.75 125.25 59.63L125.25 59.63L125.25 59.63Q125.25 59.50 125.13 59.38Q125 59.25 125 59.13L125 59.13Q124.88 59.13 124.88 59.06Q124.88 59 124.88 59L124.88 59Q124.88 58.88 124.50 58.56Q124.13 58.25 123.88 58.13L123.88 58.13Q123.75 58.13 123.69 58.06Q123.63 58 123.50 57.88L123.50 57.88L123.50 57.88Q123.50 57.88 123.31 57.81Q123.13 57.75 122.88 57.63L122.88 57.63Q122.50 57.63 122.25 57.56Q122 57.50 121.75 57.38L121.75 57.38L121.88 57.38Q121.50 57.25 120.50 57.19Q119.50 57.13 119.25 57.25L119.25 57.25ZM45.38 57.75L45.38 57.75L45.25 57.75L45.13 72.88L45.38 73Q45.63 73 46.56 73.06Q47.50 73.13 47.50 73.13L47.50 73.13Q47.50 73.13 47.56 70.81Q47.63 68.50 47.63 65.38L47.63 65.38L47.63 57.75L46.63 57.63Q46.25 57.63 45.88 57.69Q45.50 57.75 45.38 57.75L45.38 57.75ZM93.63 57.75L93.63 57.75Q93.50 57.88 93.50 65.25Q93.50 72.63 93.63 72.88L93.63 72.88Q93.63 73 93.75 73Q93.88 73 94.25 73L94.25 73Q94.50 73 94.81 73Q95.13 73 95.25 73.13L95.25 73.13Q95.50 73.13 95.56 73.13Q95.63 73.13 95.63 73L95.63 73Q95.75 72.88 95.75 65.38Q95.75 57.88 95.63 57.75L95.63 57.75Q95.63 57.63 94.69 57.63Q93.75 57.63 93.63 57.75L93.63 57.75ZM67.13 59.13L67.13 59.13Q67.25 59.25 67.38 59.31Q67.50 59.38 67.63 59.38L67.63 59.38L67.63 59.38Q67.88 59.50 68.44 60.06Q69 60.63 69.13 61L69.13 61Q69.25 61.13 69.31 61.31Q69.38 61.50 69.38 61.63L69.38 61.63L69.38 61.50Q69.50 61.63 69.50 61.81Q69.50 62 69.50 62.13L69.50 62.13L69.50 62.13Q69.50 62.25 69.56 62.50Q69.63 62.75 69.75 62.88L69.75 62.88Q70 63.75 69.56 63.88Q69.13 64 65.50 64L65.50 64Q62 64 61.63 63.94Q61.25 63.88 61.38 63.13L61.38 63.13Q61.50 63 61.50 62.81Q61.50 62.63 61.50 62.38L61.50 62.38L61.50 62.38Q61.50 62.38 61.56 62.25Q61.63 62.13 61.75 62L61.75 62Q61.88 61.88 61.94 61.75Q62 61.63 62 61.50L62 61.50Q62 61.38 62.13 61.13Q62.25 60.88 62.63 60.50L62.63 60.50Q62.75 60.38 62.81 60.31Q62.88 60.25 62.88 60.13L62.88 60.13Q62.88 60.13 62.94 60.06Q63 60 63.13 60L63.13 60Q63.13 60 63.25 59.94Q63.38 59.88 63.38 59.75L63.38 59.75L63.38 59.75Q63.38 59.63 63.56 59.56Q63.75 59.50 63.88 59.50L63.88 59.50Q64 59.38 64.13 59.31Q64.25 59.25 64.38 59.13L64.38 59.13Q64.50 59 65.69 59Q66.88 59 67.13 59.13L67.13 59.13ZM123.75 65.25L123.75 65.25L123.88 65.38L123.88 66.75Q124 67.63 123.94 67.94Q123.88 68.25 123.75 68.38L123.75 68.38Q123.75 68.63 123.69 68.81Q123.63 69 123.63 69.13L123.63 69.13L123.63 69.13Q123.50 69.38 123.44 69.50Q123.38 69.63 123.38 69.63L123.38 69.63Q123.25 69.75 123.19 69.81Q123.13 69.88 123.13 70L123.13 70Q123.13 70.13 122.56 70.69Q122 71.25 121.88 71.25L121.88 71.25Q121.88 71.25 121.75 71.31Q121.63 71.38 121.50 71.50L121.50 71.50Q121.25 71.63 121.06 71.69Q120.88 71.75 119.88 71.75L119.88 71.75L118.63 71.75L118.38 71.50Q118.38 71.38 118.25 71.31Q118.13 71.25 118.13 71.25L118.13 71.25Q118 71.25 117.69 70.94Q117.38 70.63 117.38 70.50L117.38 70.50Q117.38 70.50 117.31 70.38Q117.25 70.25 117.25 70.13L117.25 70.13Q117 69.88 117 68.81Q117 67.75 117.13 67.63L117.13 67.63Q117.13 67.63 117.25 67.50Q117.38 67.38 117.38 67.13L117.38 67.13Q117.50 67 117.56 66.88Q117.63 66.75 117.75 66.75L117.75 66.75Q117.75 66.63 117.81 66.56Q117.88 66.50 118 66.50L118 66.50L118 66.50Q118 66.38 118.06 66.31Q118.13 66.25 118.25 66.13L118.25 66.13Q118.38 66.13 118.50 66.06Q118.63 66 118.63 65.88L118.63 65.88Q118.63 65.88 118.75 65.81Q118.88 65.75 119.13 65.75L119.13 65.75Q119.25 65.75 119.38 65.69Q119.50 65.63 119.63 65.50L119.63 65.50Q119.75 65.38 120 65.31Q120.25 65.25 121.38 65.13L121.38 65.13Q122.50 65 123 65Q123.50 65 123.75 65.25L123.75 65.25Z"/></svg>