<svg xmlns="http://www.w3.org/2000/svg" xmlns:xlink="http://www.w3.org/1999/xlink" width="128" height="128"><path fill="#000000" d="M4.25 0L4.25 0Q4.25 0.88 3.94 1.63Q3.63 2.38 3 3L3 3Q2.38 3.63 1.63 3.94Q0.88 4.25 0 4.25L0 4.25L0 9.88Q1.75 10 3 11.25Q4.25 12.50 4.25 14.25L4.25 14.25L4.25 14.25Q4.25 16 3 17.25Q1.75 18.50 0 18.50L0 18.50L0 18.50L0 24.13Q1.75 24.13 3 25.38Q4.25 26.63 4.25 28.50L4.25 28.50Q4.25 30.25 3 31.50Q1.75 32.75 0 32.75L0 32.75L0 38.38Q1.75 38.38 3 39.63Q4.25 40.88 4.25 42.63L4.25 42.63L4.25 42.63Q4.25 44.50 3 45.75Q1.75 47 0 47L0 47L0 47L0 52.63Q1.75 52.63 3 53.88Q4.25 55.13 4.25 56.88L4.25 56.88L4.25 56.88Q4.25 58.63 3 59.88Q1.75 61.13 0 61.13L0 61.13L0 61.13L0 66.88Q1.75 66.88 3 68.13Q4.25 69.38 4.25 71.13L4.25 71.13L4.25 71.13Q4.25 72.88 3 74.13Q1.75 75.38 0 75.38L0 75.38L0 75.38L0 81Q1.75 81 3 82.25Q4.25 83.50 4.25 85.38L4.25 85.38L4.25 85.38Q4.25 87.13 3 88.38Q1.75 89.63 0 89.63L0 89.63L0 89.63L0 95.25Q1.75 95.25 3 96.50Q4.25 97.75 4.25 99.50L4.25 99.50L4.25 99.50Q4.25 101.38 3 102.63Q1.75 103.88 0 103.88L0 103.88L0 103.88L0 109.50Q1.75 109.50 3 110.75Q4.25 112 4.25 113.75L4.25 113.75L4.25 113.75Q4.25 115.50 3 116.75Q1.75 118 0 118.13L0 118.13L0 118.13L0 123.75Q0.88 123.75 1.63 124.06Q2.38 124.38 3 125L3 125Q3.63 125.63 3.94 126.38Q4.25 127.13 4.25 128L4.25 128L9.88 128Q10 126.25 11.25 125Q12.50 123.75 14.25 123.75L14.25 123.75L14.25 123.75Q16 123.75 17.25 125Q18.50 126.25 18.50 128L18.50 128L18.50 128L24.13 128Q24.13 126.25 25.38 125Q26.63 123.75 28.50 123.75L28.50 123.75L28.50 123.75Q30.25 123.75 31.50 125Q32.75 126.25 32.75 128L32.75 128L32.75 128L38.38 128Q38.38 126.25 39.63 125Q40.88 123.75 42.63 123.75L42.63 123.75L42.63 123.75Q44.38 123.75 45.69 125Q47 126.25 47 128L47 128L47 128L52.63 128Q52.63 126.25 53.88 125Q55.13 123.75 56.88 123.75L56.88 123.75L56.88 123.75Q58.63 123.75 59.88 125Q61.13 126.25 61.13 128L61.13 128L61.13 128L66.88 128Q66.88 126.25 68.13 125Q69.38 123.75 71.13 123.75L71.13 123.75L71.13 123.75Q72.88 123.75 74.13 125Q75.38 126.25 75.38 128L75.38 128L75.38 128L81 128Q81 126.25 82.25 125Q83.50 123.75 85.38 123.75L85.38 123.75L85.38 123.75Q87.13 123.75 88.38 125Q89.63 126.25 89.63 128L89.63 128L89.63 128L95.25 128Q95.25 126.25 96.50 125Q97.75 123.75 99.50 123.75L99.50 123.75L99.50 123.75Q101.38 123.75 102.63 125Q103.88 126.25 103.88 128L103.88 128L103.88 128L109.50 128Q109.50 126.25 110.75 125Q112 123.75 113.75 123.75L113.75 123.75L113.75 123.75Q115.50 123.75 116.75 125Q118 126.25 118 128L118 128L118 128L123.75 128Q123.75 127.13 124.06 126.38Q124.38 125.63 125 125L125 125Q125.63 124.38 126.38 124.06Q127.13 123.75 128 123.75L128 123.75L128 118.13Q126.25 118.13 125 116.81Q123.75 115.50 123.75 113.75L123.75 113.75L123.75 113.75Q123.75 112 125 110.75Q126.25 109.50 128 109.50L128 109.50L128 109.50L128 103.88Q126.25 103.88 125 102.63Q123.75 101.38 123.75 99.50L123.75 99.50L123.75 99.50Q123.75 97.75 125 96.50Q126.25 95.25 128 95.25L128 95.25L128 95.25L128 89.63Q126.25 89.63 125 88.38Q123.75 87.13 123.75 85.38L123.75 85.38L123.75 85.38Q123.75 83.50 125 82.25Q126.25 81 128 81L128 81L128 81L128 75.38Q126.25 75.38 125 74.13Q123.75 72.88 123.75 71.13L123.75 71.13L123.75 71.13Q123.75 69.38 125 68.13Q126.25 66.88 128 66.88L128 66.88L128 66.88L128 61.13Q126.25 61.13 125 59.88Q123.75 58.63 123.75 56.88L123.75 56.88L123.75 56.88Q123.75 55.13 125 53.88Q126.25 52.63 128 52.63L128 52.63L128 52.63L128 47Q126.25 47 125 45.75Q123.75 44.50 123.75 42.63L123.75 42.63L123.75 42.63Q123.75 40.88 125 39.63Q126.25 38.38 128 38.38L128 38.38L128 38.38L128 32.75Q126.25 32.75 125 31.50Q123.75 30.25 123.75 28.50L123.75 28.50L123.75 28.50Q123.75 26.63 125 25.38Q126.25 24.13 128 24.13L128 24.13L128 24.13L128 18.50Q126.25 18.50 125 17.25Q123.75 16 123.75 14.25L123.75 14.25L123.75 14.25Q123.75 12.50 125 11.25Q126.25 10 128 10L128 10L128 10L128 4.25Q127.13 4.25 126.38 3.94Q125.63 3.63 125 3L125 3Q124.38 2.38 124.06 1.63Q123.75 0.88 123.75 0L123.75 0L118.13 0Q118 1.75 116.75 3Q115.50 4.25 113.75 4.25L113.75 4.25L113.75 4.25Q112 4.25 110.75 3Q109.50 1.75 109.50 0L109.50 0L109.50 0L103.88 0Q103.88 1.75 102.63 3Q101.38 4.25 99.50 4.25L99.50 4.25L99.50 4.25Q97.75 4.25 96.50 3Q95.25 1.75 95.25 0L95.25 0L95.25 0L89.63 0Q89.63 1.75 88.38 3Q87.13 4.25 85.38 4.25L85.38 4.25L85.38 4.25Q83.63 4.25 82.31 3Q81 1.75 81 0L81 0L81 0L75.38 0Q75.38 1.75 74.13 3Q72.88 4.25 71.13 4.25L71.13 4.25L71.13 4.25Q69.38 4.25 68.13 3Q66.88 1.75 66.88 0L66.88 0L66.88 0L61.13 0Q61.13 1.75 59.88 3Q58.63 4.25 56.88 4.25L56.88 4.25L56.88 4.25Q55.13 4.25 53.88 3Q52.63 1.75 52.63 0L52.63 0L52.63 0L47 0Q47 1.75 45.75 3Q44.50 4.25 42.63 4.25L42.63 4.25L42.63 4.25Q40.88 4.25 39.63 3Q38.38 1.75 38.38 0L38.38 0L38.38 0L32.75 0Q32.75 1.75 31.50 3Q30.25 4.25 28.50 4.25L28.50 4.25L28.50 4.25Q26.63 4.25 25.38 3Q24.13 1.75 24.13 0L24.13 0L24.13 0L18.50 0Q18.50 1.75 17.25 3Q16 4.25 14.25 4.25L14.25 4.25Q12.50 4.25 11.25 3Q10 1.75 10 0L10 0L4.25 0ZM35 18.88L35 18.88L91 18.88L87.38 35.63L48.50 35.63L45.13 51.25L109 51.25L106.25 62.38L72.13 95.63Q74.50 96 76.75 96.38Q79 96.75 81.38 96.75L81.38 96.75Q87.25 96.75 93.50 95.25Q99.75 93.75 104.25 91.88L104.25 91.88L101.13 106.63Q94.50 109.75 90 110.50Q85.50 111.25 81.38 111.25L81.38 111.25Q77 111.25 72.81 110.25Q68.63 109.25 64.25 109.25L64.25 109.25Q61.88 109.25 58.81 109.63Q55.75 110 53.63 111.50L53.63 111.50L47.38 100.50L82.63 65.63L42.13 65.63L34.38 101.88L17.38 101.88L35 18.88Z"/></svg>