<svg xmlns="http://www.w3.org/2000/svg" xmlns:xlink="http://www.w3.org/1999/xlink" width="128" height="128"><path fill="#ffffff" d="M42 52.50L47.13 52.50L47.13 71.25L42 71.25L42 63.88L35.75 63.88L35.75 71.25L30.63 71.25L30.63 52.50L35.75 52.50L35.75 59.38L42 59.38L42 52.50ZM53.75 71.50L53.75 71.50Q53.25 71.50 52.81 71.44Q52.38 71.38 51.88 71.25L51.88 71.25Q51.50 71 51.06 70.81Q50.63 70.63 50.25 70.25L50.25 70.25Q50 70 49.75 69.63Q49.50 69.25 49.25 68.88L49.25 68.88Q49.13 68.50 49.06 68Q49 67.50 49 67L49 67Q49 66.50 49.06 66Q49.13 65.50 49.38 65.13L49.38 65.13Q49.63 64.63 49.94 64.25Q50.25 63.88 50.63 63.63L50.63 63.63Q51 63.25 51.50 63.06Q52 62.88 52.50 62.63L52.50 62.63Q53 62.50 53.63 62.38Q54.25 62.25 54.88 62.25L54.88 62.25Q55.75 62.25 56.44 62.44Q57.13 62.63 57.75 62.75L57.75 62.75L57.75 62.38Q57.75 62 57.56 61.63Q57.38 61.25 57.13 61L57.13 61Q56.75 60.75 56.31 60.63Q55.88 60.50 55.25 60.50L55.25 60.50Q54.75 60.50 54.19 60.56Q53.63 60.63 53.13 60.88L53.13 60.88Q52.63 61 52.06 61.31Q51.50 61.63 51 62L51 62L49.63 58.88Q51 58 52.56 57.56Q54.13 57.13 55.75 57.13L55.75 57.13Q57.50 57.13 58.75 57.50Q60 57.88 60.88 58.63L60.88 58.63Q61.75 59.38 62.25 60.50Q62.75 61.63 62.75 63L62.75 63L62.75 65.75Q62.75 66.13 62.81 66.31Q62.88 66.50 63 66.75L63 66.75Q63.13 66.88 63.38 66.94Q63.63 67 63.88 67L63.88 67L63.88 71.25Q63.50 71.25 63.19 71.31Q62.88 71.38 62.63 71.38L62.63 71.38Q62.25 71.50 62 71.50Q61.75 71.50 61.50 71.50L61.50 71.50Q60.88 71.50 60.31 71.38Q59.75 71.25 59.38 71L59.38 71Q59 70.75 58.81 70.38Q58.63 70 58.50 69.63L58.50 69.63L58.38 69.13Q58 69.75 57.44 70.19Q56.88 70.63 56.25 70.88L56.25 70.88Q55.75 71.25 55.13 71.38Q54.50 71.50 53.75 71.50L53.75 71.50ZM55.25 67.88L55.25 67.88Q55.50 67.88 55.75 67.88Q56 67.88 56.25 67.75L56.25 67.75Q56.38 67.75 56.63 67.63Q56.88 67.50 57 67.38L57 67.38Q57.13 67.38 57.25 67.25Q57.38 67.13 57.50 67L57.50 67Q57.63 66.88 57.69 66.75Q57.75 66.63 57.75 66.50L57.75 66.50L57.75 65.50Q57.50 65.38 57.25 65.31Q57 65.25 56.75 65.25L56.75 65.25Q56.38 65.13 56.19 65.13Q56 65.13 55.75 65.13L55.75 65.13Q55.38 65.13 55 65.19Q54.63 65.25 54.25 65.50L54.25 65.50Q54 65.75 53.88 66Q53.75 66.25 53.75 66.63L53.75 66.63Q53.75 66.88 53.81 67.13Q53.88 67.38 54.13 67.50L54.13 67.50Q54.38 67.75 54.63 67.81Q54.88 67.88 55.25 67.88L55.25 67.88ZM71.75 71.50L71.75 71.50Q71.38 71.50 70.88 71.50Q70.38 71.50 69.88 71.38L69.88 71.38Q69.38 71.38 68.88 71.25Q68.38 71.13 67.88 71.13L67.88 71.13Q67.50 71 67 70.88Q66.50 70.75 66.13 70.63L66.13 70.63Q65.63 70.50 65.25 70.31Q64.88 70.13 64.50 69.88L64.50 69.88L66.38 66.50Q67.13 66.88 67.81 67.19Q68.50 67.50 69.25 67.75L69.25 67.75Q69.88 67.88 70.50 68Q71.13 68.13 71.75 68.13L71.75 68.13Q72.38 68.13 72.69 67.94Q73 67.75 73 67.38L73 67.38Q73 67.25 72.88 67.13Q72.75 67 72.50 66.75L72.50 66.75Q72.25 66.63 71.75 66.50Q71.25 66.38 70.50 66.25L70.50 66.25Q69.75 66 69.13 65.81Q68.50 65.63 68 65.38L68 65.38Q67.50 65.13 67.13 64.94Q66.75 64.75 66.38 64.50L66.38 64.50Q66.13 64.25 65.88 64Q65.63 63.75 65.50 63.38L65.50 63.38Q65.38 63.13 65.31 62.75Q65.25 62.38 65.25 62L65.25 62Q65.25 61.50 65.31 61Q65.38 60.50 65.63 60.13L65.63 60.13Q65.88 59.63 66.13 59.25Q66.38 58.88 66.75 58.50L66.75 58.50Q67.13 58.25 67.63 57.94Q68.13 57.63 68.75 57.50L68.75 57.50Q69.25 57.38 69.81 57.25Q70.38 57.13 71.13 57.13L71.13 57.13Q71.75 57.13 72.50 57.19Q73.25 57.25 74.13 57.50L74.13 57.50Q74.88 57.75 75.75 58Q76.63 58.25 77.38 58.75L77.38 58.75L75.50 61.88Q74.75 61.50 74.13 61.25Q73.50 61 73.13 60.88L73.13 60.88Q72.63 60.75 72.13 60.69Q71.63 60.63 71.25 60.63L71.25 60.63Q70.88 60.63 70.69 60.69Q70.50 60.75 70.25 60.75L70.25 60.75Q70.13 60.88 70.06 61Q70 61.13 70 61.25L70 61.25Q70 61.38 70 61.50Q70 61.63 70.13 61.75L70.13 61.75Q70.13 61.75 70.25 61.81Q70.38 61.88 70.50 62L70.50 62Q70.63 62.13 70.81 62.19Q71 62.25 71.25 62.25L71.25 62.25Q71.38 62.38 71.69 62.44Q72 62.50 72.38 62.63L72.38 62.63Q73.25 62.88 73.88 63Q74.50 63.13 75.13 63.38L75.13 63.38Q75.63 63.63 76.06 63.88Q76.50 64.13 76.75 64.25L76.75 64.25Q77.13 64.50 77.31 64.81Q77.50 65.13 77.75 65.50L77.75 65.50Q77.88 65.75 77.94 66.13Q78 66.50 78 67L78 67Q78 68 77.63 68.88Q77.25 69.75 76.38 70.38L76.38 70.38Q75.38 70.88 74.31 71.19Q73.25 71.50 71.75 71.50L71.75 71.50ZM88.75 71.25L88.75 71.25L85.63 66.13L84.63 67.25L84.63 71.13L79.63 71.13L79.63 52L84.63 52L84.63 62.50L88.25 57.38L93.63 57.38L88.75 63.50L94 71.25L88.75 71.25L88.75 71.25ZM101 71.50L101 71.50Q100.13 71.50 99.31 71.38Q98.50 71.25 97.75 70.88L97.75 70.88Q97.13 70.63 96.50 70.25Q95.88 69.88 95.38 69.25L95.38 69.25Q95 68.88 94.63 68.31Q94.25 67.75 94 67.13L94 67.13Q93.75 66.50 93.63 65.81Q93.50 65.13 93.50 64.38L93.50 64.38Q93.50 63.63 93.63 62.94Q93.75 62.25 94 61.63L94 61.63Q94.25 60.88 94.63 60.31Q95 59.75 95.38 59.25L95.38 59.25Q95.88 58.75 96.44 58.38Q97 58 97.75 57.75L97.75 57.75Q98.50 57.38 99.31 57.25Q100.13 57.13 101.13 57.13L101.13 57.13Q102 57.13 102.81 57.25Q103.63 57.38 104.38 57.75L104.38 57.75Q105.13 58 105.69 58.38Q106.25 58.75 106.75 59.25L106.75 59.25Q107.25 59.75 107.63 60.31Q108 60.88 108.25 61.63L108.25 61.63Q108.38 62.25 108.56 62.94Q108.75 63.63 108.75 64.25L108.75 64.25Q108.75 64.50 108.69 64.69Q108.63 64.88 108.63 65.13L108.63 65.13Q108.63 65.38 108.63 65.50Q108.63 65.63 108.50 65.75L108.50 65.75L98.75 65.75Q98.88 66.38 99.06 66.75Q99.25 67.13 99.63 67.38L99.63 67.38Q100 67.63 100.38 67.75Q100.75 67.88 101.25 67.88L101.25 67.88Q101.63 67.88 102 67.81Q102.38 67.75 102.75 67.50L102.75 67.50Q103.13 67.38 103.31 67.06Q103.50 66.75 103.75 66.50L103.75 66.50L107.88 67.75Q107.50 68.50 106.88 69.19Q106.25 69.88 105.25 70.38L105.25 70.38Q104.38 70.88 103.31 71.19Q102.25 71.50 101 71.50L101 71.50ZM98.63 62.75L103.25 62.75Q103.13 62.25 102.94 61.88Q102.75 61.50 102.50 61.25L102.50 61.25Q102.25 60.88 101.81 60.75Q101.38 60.63 100.88 60.63L100.88 60.63Q100.50 60.63 100.06 60.75Q99.63 60.88 99.25 61.25L99.25 61.25Q99 61.50 98.81 61.88Q98.63 62.25 98.63 62.75L98.63 62.75ZM110.13 52L110.13 52L115.13 52L115.13 65.38Q115.13 66.25 115.44 66.63Q115.75 67 116.38 67L116.38 67Q116.50 67 116.69 67Q116.88 67 117.13 66.88L117.13 66.88Q117.25 66.88 117.44 66.75Q117.63 66.63 117.75 66.63L117.75 66.63L118.38 70.63Q118 70.88 117.44 71Q116.88 71.13 116.38 71.25L116.38 71.25Q115.88 71.50 115.38 71.50Q114.88 71.50 114.25 71.50L114.25 71.50Q113.38 71.50 112.56 71.25Q111.75 71 111.25 70.50L111.25 70.50Q110.63 70 110.38 69.25Q110.13 68.50 110.13 67.50L110.13 67.50L110.13 52ZM119.75 52L119.75 52L124.75 52L124.75 65.38Q124.75 66.25 125.06 66.63Q125.38 67 126 67L126 67Q126.13 67 126.31 67Q126.50 67 126.75 66.88L126.75 66.88Q126.88 66.88 127.06 66.75Q127.25 66.63 127.38 66.63L127.38 66.63L128 70.63Q127.50 70.88 127 71Q126.50 71.13 126 71.25L126 71.25Q125.50 71.50 124.94 71.50Q124.38 71.50 123.88 71.50L123.88 71.50Q122.88 71.50 122.13 71.25Q121.38 71 120.75 70.50L120.75 70.50Q120.25 70 120 69.25Q119.75 68.50 119.75 67.50L119.75 67.50L119.75 52ZM0 71.25L0 71.25L6.25 62L0 52.63L4.75 52.63L10.88 61.88L4.75 71.25L0 71.25ZM6.25 71.38L6.25 71.25L12.38 62L6.25 52.75L10.88 52.75L23.38 71.38L18.75 71.38L14.75 65.63L10.88 71.38L6.25 71.38ZM26.50 65.75L21.25 65.75L19.25 62.75L26.50 62.75L26.50 65.75ZM26.50 61.13L18.25 61.13L16.13 58L26.50 58L26.50 61.13Z"/></svg>