<svg xmlns="http://www.w3.org/2000/svg" xmlns:xlink="http://www.w3.org/1999/xlink" width="128" height="128"><path fill="#ffffff" d="M2 52.50L12.75 52.50Q12.75 52.50 12.81 52.50Q12.88 52.50 12.88 52.50L12.88 52.50Q13.63 52.50 14.31 52.56Q15 52.63 15.75 52.88L15.75 52.88Q16.25 53 16.81 53.19Q17.38 53.38 17.88 53.75L17.88 53.75Q18.38 54 18.75 54.44Q19.13 54.88 19.38 55.38L19.38 55.38Q19.63 56 19.75 56.63Q19.88 57.25 19.88 57.88L19.88 57.88Q19.88 57.88 19.88 57.94Q19.88 58 19.88 58L19.88 58Q19.88 58.13 19.88 58.13Q19.88 58.13 19.88 58.25L19.88 58.25Q19.88 59 19.63 59.69Q19.38 60.38 19 60.88L19 60.88Q18.50 61.50 17.94 61.94Q17.38 62.38 16.75 62.75L16.75 62.75Q17.75 63 18.50 63.56Q19.25 64.13 19.75 64.88L19.75 64.88Q20.25 65.63 20.56 66.50Q20.88 67.38 20.88 68.38L20.88 68.38Q20.88 68.38 20.88 68.38Q20.88 68.38 20.88 68.38L20.88 68.38Q20.88 68.50 20.88 68.50Q20.88 68.50 20.88 68.50L20.88 68.50Q20.88 69.25 20.69 70Q20.50 70.75 20.25 71.38L20.25 71.38Q19.88 72 19.44 72.50Q19 73 18.50 73.38L18.50 73.38Q17.88 73.75 17.25 74Q16.63 74.25 15.88 74.50L15.88 74.50Q15.25 74.63 14.50 74.75Q13.75 74.88 12.88 74.88L12.88 74.88L2 74.88L2 52.50ZM7 61.63L12 61.63Q12.13 61.63 12.13 61.63Q12.13 61.63 12.25 61.63L12.25 61.63Q12.75 61.63 13.31 61.44Q13.88 61.25 14.25 61L14.25 61Q14.63 60.63 14.88 60.19Q15.13 59.75 15.13 59.25L15.13 59.25Q15.13 59.13 15.13 59.06Q15.13 59 15 59L15 59Q15 59 15 58.94Q15 58.88 15 58.88L15 58.88Q15 58.63 14.94 58.31Q14.88 58 14.75 57.63L14.75 57.63Q14.63 57.50 14.50 57.25Q14.38 57 14.13 56.88L14.13 56.88Q13.88 56.75 13.63 56.63Q13.38 56.50 13 56.38L13 56.38Q12.75 56.38 12.50 56.38Q12.25 56.38 12 56.38L12 56.38Q11.88 56.38 11.81 56.38Q11.75 56.38 11.75 56.38L11.75 56.38L7 56.38L7 61.63ZM7 71.25L12.25 71.25Q12.63 71.13 13 71.13Q13.38 71.13 13.75 71L13.75 71Q14 70.88 14.31 70.75Q14.63 70.63 14.88 70.50L14.88 70.50Q15.13 70.38 15.31 70.13Q15.50 69.88 15.63 69.63L15.63 69.63Q15.75 69.25 15.88 68.94Q16 68.63 16 68.25L16 68.25Q16 68.13 16 68.06Q16 68 16 68L16 68Q16 67.25 15.75 66.69Q15.50 66.13 15 65.63L15 65.63Q14.50 65.38 13.88 65.13Q13.25 64.88 12.63 64.88L12.63 64.88Q12.50 64.88 12.50 64.94Q12.50 65 12.38 65L12.38 65L7 65L7 71.25ZM28 71.13L28 71.13Q28.50 71.63 29.19 71.88Q29.88 72.13 30.63 72.13L30.63 72.13Q30.75 72.13 30.81 72.13Q30.88 72.13 31 72.13L31 72.13Q31 72.13 31 72.13Q31 72.13 31 72.13L31 72.13Q31.63 72.13 32.19 71.94Q32.75 71.75 33.25 71.50L33.25 71.50Q33.75 71.25 34 70.88Q34.25 70.50 34.50 70L34.50 70L38.50 70Q38.13 71.25 37.38 72.38Q36.63 73.50 35.63 74.25L35.63 74.25Q34.63 74.88 33.44 75.19Q32.25 75.50 31 75.50L31 75.50Q31 75.50 30.94 75.50Q30.88 75.50 30.88 75.50L30.88 75.50Q30.88 75.50 30.88 75.50Q30.88 75.50 30.88 75.50L30.88 75.50Q29.88 75.50 29 75.31Q28.13 75.13 27.25 74.88L27.25 74.88Q26.50 74.63 25.88 74.13Q25.25 73.63 24.75 73.13L24.75 73.13Q24.25 72.50 23.81 71.88Q23.38 71.25 23.13 70.50L23.13 70.50Q22.88 69.75 22.69 68.88Q22.50 68 22.50 67.13L22.50 67.13Q22.50 67.13 22.50 67.06Q22.50 67 22.50 66.88L22.50 66.88Q22.50 66.88 22.50 66.81Q22.50 66.75 22.50 66.75L22.50 66.75Q22.50 65.88 22.69 65.06Q22.88 64.25 23.13 63.50L23.13 63.50Q23.50 62.75 23.88 62.06Q24.25 61.38 24.88 60.75L24.88 60.75Q25.38 60.25 26 59.75Q26.63 59.25 27.38 59L27.38 59Q28.13 58.63 29 58.44Q29.88 58.25 30.75 58.25L30.75 58.25Q30.88 58.25 30.88 58.25Q30.88 58.25 30.88 58.25L30.88 58.25Q30.88 58.25 30.94 58.25Q31 58.25 31.13 58.25L31.13 58.25Q32 58.25 32.88 58.50Q33.75 58.75 34.50 59.13L34.50 59.13Q35.25 59.50 35.88 60.06Q36.50 60.63 37 61.25L37 61.25Q37.50 61.88 37.88 62.69Q38.25 63.50 38.50 64.25L38.50 64.25Q38.50 64.88 38.56 65.56Q38.63 66.25 38.63 66.88L38.63 66.88Q38.63 67.25 38.63 67.50Q38.63 67.75 38.63 68L38.63 68L26.88 68Q26.88 68 26.88 68Q26.88 68 26.88 68L26.88 68Q26.88 68.88 27.19 69.69Q27.50 70.50 28 71.13L28 71.13ZM33.13 62.63L33.13 62.63Q32.63 62.13 32.06 61.88Q31.50 61.63 30.75 61.63L30.75 61.63Q30.75 61.63 30.69 61.69Q30.63 61.75 30.63 61.75L30.63 61.75Q30.63 61.75 30.56 61.75Q30.50 61.75 30.50 61.75L30.50 61.75Q30.13 61.75 29.63 61.81Q29.13 61.88 28.75 62.13L28.75 62.13Q28.50 62.25 28.19 62.50Q27.88 62.75 27.63 63L27.63 63Q27.50 63.25 27.31 63.50Q27.13 63.75 27.13 64.13L27.13 64.13Q27 64.38 27 64.63Q27 64.88 27 65.13L27 65.13L34.25 65.25Q34.25 64.38 33.94 63.75Q33.63 63.13 33.13 62.63L33.13 62.63ZM40.50 52.50L45 52.50L45 61Q45.38 60.38 45.94 59.88Q46.50 59.38 47.13 59L47.13 59Q47.75 58.75 48.44 58.56Q49.13 58.38 49.75 58.38L49.75 58.38Q49.88 58.38 49.94 58.38Q50 58.38 50.13 58.38L50.13 58.38Q50.75 58.38 51.44 58.50Q52.13 58.63 52.75 58.88L52.75 58.88Q53.25 59.13 53.69 59.44Q54.13 59.75 54.50 60.25L54.50 60.25Q54.88 60.63 55.06 61.19Q55.25 61.75 55.38 62.25L55.38 62.25Q55.50 62.88 55.63 63.56Q55.75 64.25 55.75 65L55.75 65L55.75 75L51.25 75L51.25 65.88Q51.25 65.75 51.25 65.69Q51.25 65.63 51.25 65.50L51.25 65.50Q51.25 64.75 51.06 64.06Q50.88 63.38 50.63 62.75L50.63 62.75Q50.25 62.38 49.75 62.13Q49.25 61.88 48.63 61.88L48.63 61.88Q48.63 61.88 48.56 61.88Q48.50 61.88 48.38 61.88L48.38 61.88Q48.38 61.88 48.31 61.88Q48.25 61.88 48.13 61.88L48.13 61.88Q47.50 61.88 46.88 62.13Q46.25 62.38 45.75 62.88L45.75 62.88Q45.38 63.50 45.19 64.31Q45 65.13 45 65.88L45 65.88Q45 66 45 66.19Q45 66.38 45 66.50L45 66.50L45 75L40.50 75L40.50 52.50ZM59 61.13L59 61.13Q59.25 60.63 59.75 60.19Q60.25 59.75 60.75 59.38L60.75 59.38Q61.25 59.13 61.88 58.88Q62.50 58.63 63.13 58.50L63.13 58.50Q63.75 58.38 64.44 58.31Q65.13 58.25 65.88 58.25L65.88 58.25Q65.88 58.25 65.88 58.25Q65.88 58.25 65.88 58.25L65.88 58.25Q66.50 58.25 67.13 58.31Q67.75 58.38 68.38 58.38L68.38 58.38Q69 58.50 69.56 58.69Q70.13 58.88 70.75 59.13L70.75 59.13Q71.13 59.38 71.56 59.69Q72 60 72.38 60.50L72.38 60.50Q72.63 60.88 72.81 61.44Q73 62 73 62.63L73 62.63Q73 62.63 73 62.69Q73 62.75 73 62.88L73 62.88L73 71.38Q73 71.88 73.06 72.44Q73.13 73 73.13 73.50L73.13 73.50Q73.25 73.88 73.38 74.25Q73.50 74.63 73.75 75L73.75 75L69.25 75Q69.13 74.88 69 74.69Q68.88 74.50 68.88 74.25L68.88 74.25Q68.88 74.13 68.81 73.94Q68.75 73.75 68.75 73.63L68.75 73.63Q68.75 73.50 68.75 73.50Q68.75 73.50 68.75 73.50L68.75 73.50Q68.25 74 67.63 74.38Q67 74.75 66.25 75L66.25 75Q65.63 75.25 64.94 75.31Q64.25 75.38 63.50 75.38L63.50 75.38Q63.50 75.38 63.44 75.38Q63.38 75.38 63.38 75.38L63.38 75.38Q63.25 75.38 63.25 75.38Q63.25 75.38 63.25 75.38L63.25 75.38Q62.63 75.38 62.13 75.31Q61.63 75.25 61.13 75.13L61.13 75.13Q60.63 74.88 60.19 74.69Q59.75 74.50 59.38 74.13L59.38 74.13Q59 73.88 58.69 73.50Q58.38 73.13 58.13 72.63L58.13 72.63Q58 72.13 57.88 71.63Q57.75 71.13 57.75 70.50L57.75 70.50Q57.75 70.50 57.75 70.50Q57.75 70.50 57.75 70.50L57.75 70.50Q57.75 70.38 57.75 70.38Q57.75 70.38 57.75 70.25L57.75 70.25Q57.75 69.75 57.88 69.19Q58 68.63 58.25 68.13L58.25 68.13Q58.50 67.75 58.81 67.38Q59.13 67 59.38 66.75L59.38 66.75Q59.88 66.50 60.31 66.25Q60.75 66 61.13 65.88L61.13 65.88Q61.63 65.75 62.13 65.69Q62.63 65.63 63.13 65.50L63.13 65.50L65.25 65.25Q66.25 65.13 66.88 65L66.88 65Q67.25 64.88 67.56 64.75Q67.88 64.63 68.13 64.50L68.13 64.50Q68.38 64.25 68.50 64.06Q68.63 63.88 68.63 63.50L68.63 63.50Q68.63 63.50 68.63 63.44Q68.63 63.38 68.50 63.38L68.50 63.38Q68.50 63.38 68.56 63.31Q68.63 63.25 68.63 63.25L68.63 63.25Q68.63 63 68.50 62.75Q68.38 62.50 68.38 62.25L68.38 62.25Q68.13 62 68 61.88Q67.88 61.75 67.63 61.63L67.63 61.63Q67.50 61.50 67.25 61.44Q67 61.38 66.75 61.25L66.75 61.25Q66.63 61.25 66.38 61.19Q66.13 61.13 65.88 61.13L65.88 61.13Q65.75 61.13 65.69 61.19Q65.63 61.25 65.63 61.25L65.63 61.25Q65.63 61.13 65.56 61.13Q65.50 61.13 65.38 61.13L65.38 61.13Q64.88 61.13 64.44 61.31Q64 61.50 63.63 61.75L63.63 61.75Q63.25 62.13 63 62.63Q62.75 63.13 62.75 63.63L62.75 63.63L58.25 63.63Q58.25 62.88 58.44 62.25Q58.63 61.63 59 61.13L59 61.13ZM67.88 67.50L67.75 67.50Q67.63 67.50 67.38 67.56Q67.13 67.63 66.88 67.75L66.88 67.75Q66.63 67.75 66.38 67.75Q66.13 67.75 65.88 67.88L65.88 67.88Q65.50 67.88 65.25 67.94Q65 68 64.75 68L64.75 68L63.75 68.25Q63.63 68.25 63.38 68.38Q63.13 68.50 63 68.63L63 68.63Q62.88 68.75 62.69 68.94Q62.50 69.13 62.38 69.25L62.38 69.25Q62.25 69.50 62.19 69.69Q62.13 69.88 62.13 70.13L62.13 70.13Q62.13 70.25 62.13 70.31Q62.13 70.38 62.13 70.38L62.13 70.38Q62.13 70.38 62.13 70.44Q62.13 70.50 62.13 70.50L62.13 70.50Q62.13 70.75 62.19 70.94Q62.25 71.13 62.38 71.38L62.38 71.38Q62.50 71.50 62.69 71.69Q62.88 71.88 63 72L63 72Q63.25 72.13 63.44 72.19Q63.63 72.25 63.88 72.38L63.88 72.38Q64.13 72.38 64.31 72.38Q64.50 72.38 64.75 72.38L64.75 72.38Q64.75 72.38 64.81 72.38Q64.88 72.38 65 72.38L65 72.38Q65 72.38 65.06 72.38Q65.13 72.38 65.13 72.38L65.13 72.38Q65.63 72.38 66.13 72.31Q66.63 72.25 67 72L67 72Q67.38 71.75 67.56 71.50Q67.75 71.25 68 71L68 71Q68.13 70.75 68.25 70.44Q68.38 70.13 68.38 69.75L68.38 69.75Q68.50 69.50 68.50 69.31Q68.50 69.13 68.50 68.88L68.50 68.88Q68.50 68.88 68.50 68.81Q68.50 68.75 68.50 68.75L68.50 68.75L68.50 67Q68.38 67.13 68.19 67.25Q68 67.38 67.88 67.50L67.88 67.50ZM75.38 58.63L79.75 58.63L79.75 61L79.88 61Q80.25 60.38 80.81 59.88Q81.38 59.38 82 59L82 59Q82.63 58.75 83.31 58.56Q84 58.38 84.75 58.38L84.75 58.38Q84.88 58.38 84.94 58.38Q85 58.38 85.13 58.38L85.13 58.38Q85.75 58.38 86.44 58.50Q87.13 58.63 87.75 58.88L87.75 58.88Q88.25 59 88.69 59.38Q89.13 59.75 89.50 60.25L89.50 60.25Q89.88 60.63 90.13 61.19Q90.38 61.75 90.50 62.25L90.50 62.25Q90.63 62.88 90.69 63.50Q90.75 64.13 90.75 64.75L90.75 64.75Q90.75 64.88 90.75 64.94Q90.75 65 90.75 65L90.75 65L90.75 75L86.25 75L86.25 65.88Q86.25 65.75 86.25 65.69Q86.25 65.63 86.25 65.50L86.25 65.50Q86.25 64.75 86.06 64.06Q85.88 63.38 85.63 62.75L85.63 62.75Q85.25 62.38 84.75 62.06Q84.25 61.75 83.50 61.75L83.50 61.75Q83.50 61.75 83.44 61.75Q83.38 61.75 83.25 61.75L83.25 61.75Q83.25 61.75 83.25 61.75Q83.25 61.75 83.25 61.75L83.25 61.75Q82.38 61.75 81.75 62.06Q81.13 62.38 80.63 63L80.63 63Q80.25 63.63 80.06 64.44Q79.88 65.25 79.88 66L79.88 66Q79.88 66.25 79.88 66.38Q79.88 66.50 79.88 66.63L79.88 66.63L79.88 75.13L75.38 75.13L75.38 58.63ZM100.75 61.63L100.75 61.63Q100.75 61.63 100.69 61.63Q100.63 61.63 100.63 61.63L100.63 61.63Q100.13 61.63 99.69 61.75Q99.25 61.88 98.88 62.13L98.88 62.13Q98.50 62.38 98.25 62.69Q98 63 97.75 63.38L97.75 63.38Q97.50 63.75 97.31 64.19Q97.13 64.63 97.13 65.13L97.13 65.13Q97 65.50 96.94 65.88Q96.88 66.25 96.88 66.63L96.88 66.63Q96.88 66.75 96.88 66.81Q96.88 66.88 96.88 67L96.88 67Q96.88 67.50 96.94 67.94Q97 68.38 97.13 68.88L97.13 68.88Q97.13 69.25 97.31 69.69Q97.50 70.13 97.75 70.50L97.75 70.50Q97.88 70.75 98.19 71.06Q98.50 71.38 98.88 71.63L98.88 71.63Q99.25 71.88 99.63 72Q100 72.13 100.50 72.13L100.50 72.13Q100.50 72.13 100.56 72.13Q100.63 72.13 100.63 72.13L100.63 72.13Q100.63 72.13 100.69 72.13Q100.75 72.13 100.75 72.13L100.75 72.13Q101.50 72.13 102.06 71.88Q102.63 71.63 103.13 71.25L103.13 71.25Q103.63 70.75 103.88 70.13Q104.13 69.50 104.25 68.75L104.25 68.75L108.50 68.75Q108.38 70.25 107.75 71.56Q107.13 72.88 106 73.75L106 73.75Q105 74.63 103.69 75.06Q102.38 75.50 101 75.50L101 75.50Q100.88 75.50 100.81 75.50Q100.75 75.50 100.63 75.50L100.63 75.50Q100.63 75.50 100.63 75.50Q100.63 75.50 100.63 75.50L100.63 75.50Q99.75 75.50 98.88 75.31Q98 75.13 97.25 74.88L97.25 74.88Q96.50 74.50 95.88 74.13Q95.25 73.75 94.75 73.13L94.75 73.13Q94.13 72.63 93.69 71.94Q93.25 71.25 93 70.50L93 70.50Q92.75 69.75 92.56 68.94Q92.38 68.13 92.38 67.25L92.38 67.25Q92.38 67.25 92.38 67.19Q92.38 67.13 92.38 67.13L92.38 67.13Q92.38 67.13 92.38 67.06Q92.38 67 92.38 66.88L92.38 66.88Q92.38 66 92.56 65.19Q92.75 64.38 93 63.63L93 63.63Q93.25 62.75 93.69 62.06Q94.13 61.38 94.63 60.75L94.63 60.75Q95.13 60.25 95.81 59.75Q96.50 59.25 97.13 59L97.13 59Q98 58.63 98.88 58.44Q99.75 58.25 100.75 58.25L100.75 58.25Q100.75 58.25 100.75 58.25Q100.75 58.25 100.75 58.25L100.75 58.25Q101.50 58.25 102.19 58.38Q102.88 58.50 103.50 58.75L103.50 58.75Q104.13 58.88 104.75 59.19Q105.38 59.50 105.88 59.88L105.88 59.88Q106.38 60.25 106.81 60.75Q107.25 61.25 107.50 61.75L107.50 61.75Q107.88 62.38 108.06 63.13Q108.25 63.88 108.25 64.63L108.25 64.63L103.88 64.63Q103.88 64.50 103.88 64.50Q103.88 64.50 103.88 64.38L103.88 64.38Q103.88 63.25 103.06 62.44Q102.25 61.63 101 61.63L101 61.63Q101 61.63 100.88 61.63Q100.75 61.63 100.75 61.63L100.75 61.63ZM26 54L26 54L35 54L35 56.25L26 56.25L26 54ZM115.25 71.13L115.25 71.13Q115.75 71.63 116.44 71.88Q117.13 72.13 118 72.13L118 72.13Q118 72.13 118.06 72.13Q118.13 72.13 118.25 72.13L118.25 72.13Q118.25 72.13 118.25 72.13Q118.25 72.13 118.25 72.13L118.25 72.13Q118.88 72.13 119.50 71.94Q120.13 71.75 120.63 71.50L120.63 71.50Q121 71.25 121.31 70.88Q121.63 70.50 121.75 70L121.75 70L125.63 70Q125.25 71.25 124.50 72.38Q123.75 73.50 122.75 74.25L122.75 74.25Q121.75 74.88 120.63 75.19Q119.50 75.50 118.25 75.50L118.25 75.50Q118.13 75.50 118.06 75.50Q118 75.50 118 75.50L118 75.50Q118 75.50 118 75.50Q118 75.50 118 75.50L118 75.50Q117 75.50 116.13 75.31Q115.25 75.13 114.50 74.88L114.50 74.88Q113 74.25 111.94 73.06Q110.88 71.88 110.25 70.38L110.25 70.38Q110 69.63 109.88 68.81Q109.75 68 109.75 67.13L109.75 67.13Q109.75 67 109.75 67Q109.75 67 109.75 66.88L109.75 66.88Q109.75 66.88 109.75 66.81Q109.75 66.75 109.75 66.75L109.75 66.75Q109.75 65.88 109.88 65Q110 64.13 110.25 63.38L110.25 63.38Q110.63 62.63 111.06 61.94Q111.50 61.25 112 60.75L112 60.75Q112.50 60.13 113.19 59.69Q113.88 59.25 114.50 59L114.50 59Q115.38 58.63 116.25 58.44Q117.13 58.25 118 58.25L118 58.25Q118.13 58.25 118.19 58.25Q118.25 58.25 118.25 58.25L118.25 58.25Q119.25 58.25 120.06 58.50Q120.88 58.75 121.63 59.13L121.63 59.13Q122.38 59.50 123 60.06Q123.63 60.63 124.13 61.25L124.13 61.25Q124.63 61.88 125 62.69Q125.38 63.50 125.50 64.25L125.50 64.25Q125.75 65 125.81 65.69Q125.88 66.38 125.88 67.13L125.88 67.13Q125.88 67.38 125.88 67.63Q125.88 67.88 125.88 68L125.88 68L114.13 68Q114.13 68 114.13 68Q114.13 68 114.13 68.13L114.13 68.13Q114.13 69 114.44 69.75Q114.75 70.50 115.25 71.13L115.25 71.13ZM120.38 62.63L120.50 62.63Q120 62.13 119.38 61.88Q118.75 61.63 118.13 61.63L118.13 61.63Q118.13 61.63 118.06 61.69Q118 61.75 118 61.75L118 61.75Q117.88 61.75 117.88 61.75Q117.88 61.75 117.88 61.75L117.88 61.75Q117.38 61.75 116.94 61.81Q116.50 61.88 116.13 62.13L116.13 62.13Q115.75 62.25 115.50 62.50Q115.25 62.75 115 63L115 63Q114.75 63.25 114.63 63.50Q114.50 63.75 114.38 64.13L114.38 64.13Q114.38 64.38 114.31 64.63Q114.25 64.88 114.25 65.13L114.25 65.13L121.63 65.25Q121.50 64.50 121.19 63.81Q120.88 63.13 120.38 62.63L120.38 62.63Z"/></svg>