<svg xmlns="http://www.w3.org/2000/svg" xmlns:xlink="http://www.w3.org/1999/xlink" width="128" height="128"><path fill="#000000" d="M48.50 48.25L48.50 48.25Q48.50 42.88 46.06 42Q43.63 41.13 43.63 41.13L43.63 41.13L23.63 41.13L23.63 56.50L42.38 56.50Q44.88 56.50 46.69 55.06Q48.50 53.63 48.50 48.25ZM43.63 67L43.63 67L23.63 67L23.63 85.50L42.75 85.50Q44.88 85.38 47.94 83.94Q51 82.50 51 76.50L51 76.50Q50.88 69.38 47.25 68.19Q43.63 67 43.63 67ZM94.88 56.50L94.88 56.50Q87 56.50 84.94 61.75Q82.88 67 82.88 67L82.88 67L105.38 67Q105.38 67 104.13 61.75Q102.88 56.50 94.88 56.50L94.88 56.50ZM111.25 2.13L111.25 2.13L16.75 2.13Q10.75 2.13 6.44 6.44Q2.13 10.75 2.13 16.75L2.13 16.75L2.13 111.25Q2.13 117.25 6.44 121.56Q10.75 125.88 16.75 125.88L16.75 125.88L111.25 125.88Q117.25 125.88 121.56 121.56Q125.88 117.25 125.88 111.25L125.88 111.25L125.88 16.75Q125.88 10.75 121.56 6.44Q117.25 2.13 111.25 2.13L111.25 2.13ZM79.88 41.38L79.88 32.88L108.25 32.88L108.25 41.38L79.88 41.38ZM65.50 77.38L65.50 77.38Q65.50 85.25 62.13 89.38L62.13 89.38Q58.63 93.50 54.56 95.38Q50.50 97.25 47.13 97.50L47.13 97.50Q43.63 97.63 43.63 97.63L43.63 97.63L7.88 97.63L7.88 28.88L43.63 28.88Q51.88 28.88 57.50 33.44Q63.13 38 63.13 47.25L63.13 47.25Q63.13 56.38 57.88 58.31Q52.63 60.25 52.63 60.25L52.63 60.25Q63 60.25 64.25 68.81Q65.50 77.38 65.50 77.38ZM118.63 76.25L118.63 76.25L83 76.25Q83 85.88 89.06 87.06Q95.13 88.25 95.13 88.25L95.13 88.25Q103.63 88.25 104.88 84.56Q106.13 80.88 106.13 80.88L106.13 80.88L118.25 80.88Q118.25 88.25 114.50 92L114.50 92Q110.88 95.75 106.44 97.38Q102 99 98.38 99L98.38 99Q94.63 99.13 94.63 99.13L94.63 99.13Q84.13 99.13 78.63 95L78.63 95Q73.13 90.88 70.81 85.94Q68.50 81 68.38 77L68.38 77Q68.25 72.88 68.25 72.88L68.25 72.88Q68.25 72.88 68.63 68.75L68.63 68.75Q69 64.63 71.50 59.63Q74 54.63 79.38 50.50L79.38 50.50Q84.75 46.38 94.63 46.38L94.63 46.38Q105.13 46.38 110.13 51L110.13 51Q115.25 55.75 117.13 61.31Q119 66.88 118.75 71.63L118.75 71.63Q118.63 76.25 118.63 76.25L118.63 76.25Z"/></svg>