<svg xmlns="http://www.w3.org/2000/svg" xmlns:xlink="http://www.w3.org/1999/xlink" width="128" height="128"><path fill="#ffffff" d="M95.13 58.38L101.63 47.25Q106.75 50.25 109.88 55.44Q113 60.63 113 66.88L113 66.88Q113 76.38 106.31 83.06Q99.63 89.75 90.13 89.88L90.13 89.88Q80.63 89.88 73.88 83.19Q67.13 76.50 67.13 67L67.13 67Q67.13 60.75 70.25 55.50Q73.38 50.25 78.38 47.25L78.38 47.25L85 58.38Q85 58.50 85 58.56Q85 58.63 85 58.75L85 58.75Q85 58.88 84.94 59Q84.88 59.13 84.75 59.25L84.75 59.25L84.75 59.25Q82.88 60.50 81.75 62.50Q80.63 64.50 80.63 67L80.63 67Q80.63 67 80.63 67Q80.63 67 80.63 67L80.63 67L80.63 67Q80.63 70.88 83.38 73.63Q86.13 76.38 90.13 76.38L90.13 76.38Q94 76.38 96.75 73.63Q99.50 70.88 99.50 67L99.50 67Q99.50 64.50 98.38 62.50Q97.25 60.50 95.38 59.25L95.38 59.25L95.25 59.25Q95.13 59.13 95.06 59Q95 58.88 95 58.63L95 58.63Q95 58.63 95.06 58.56Q95.13 58.50 95.13 58.38L95.13 58.38L95.13 58.38ZM44.50 58.25L51.13 47.13Q48.75 45.75 45.88 45Q43 44.25 40 44.25L40 44.25Q40 44.25 39.94 44.25Q39.88 44.25 39.88 44.25L39.88 44.25L39.88 44.25Q30.50 44.25 23.75 50.94Q17 57.63 17 67.13L17 67.13Q17 76.50 23.75 83.19Q30.50 89.88 39.88 89.88L39.88 89.88Q49.50 89.88 56.25 82.94Q63 76 62.88 66.50L62.88 66.50L49.88 66.50Q49.63 66.50 49.50 66.69Q49.38 66.88 49.38 67.13L49.38 67.13Q49.38 67.13 49.38 67.13Q49.38 67.13 49.38 67.13L49.38 67.13L49.38 67.13Q49.25 70.88 46.50 73.69Q43.75 76.50 39.88 76.50L39.88 76.50Q36 76.50 33.25 73.75Q30.50 71 30.50 67.13L30.50 67.13Q30.50 63.25 33.25 60.50Q36 57.75 39.88 57.75L39.88 57.75Q41 57.75 41.94 57.94Q42.88 58.13 43.75 58.50L43.75 58.50Q43.75 58.50 43.81 58.56Q43.88 58.63 44 58.63L44 58.63Q44.13 58.63 44.31 58.50Q44.50 58.38 44.50 58.25L44.50 58.25L44.50 58.25ZM59.50 32.38L53 43.50Q47.88 40.50 44.81 35.31Q41.75 30.13 41.75 23.88L41.75 23.88Q41.75 14.38 48.44 7.69Q55.13 1 64.63 1L64.63 1Q74.13 1 80.81 7.69Q87.50 14.38 87.50 23.88L87.50 23.88Q87.50 30.13 84.38 35.31Q81.25 40.50 76.25 43.50L76.25 43.50L69.63 32.38Q69.63 32.38 69.63 32.31Q69.63 32.25 69.63 32.13L69.63 32.13Q69.63 32 69.69 31.88Q69.75 31.75 69.88 31.63L69.88 31.63L69.88 31.63Q71.75 30.38 72.88 28.31Q74 26.25 74 23.88L74 23.88Q74 23.88 74 23.88Q74 23.88 74 23.88L74 23.88L74 23.88Q74 20 71.25 17.25Q68.50 14.50 64.63 14.50L64.63 14.50Q60.75 14.50 58 17.25Q55.25 20 55.25 23.88L55.25 23.88Q55.25 23.88 55.25 23.88Q55.25 23.88 55.25 23.88L55.25 23.88Q55.25 26.25 56.31 28.31Q57.38 30.38 59.25 31.63L59.25 31.63L59.38 31.63Q59.50 31.75 59.56 32Q59.63 32.25 59.50 32.38L59.50 32.38ZM26.25 102.38L26.25 102.38Q28.38 102.38 29.94 102.94Q31.50 103.50 32.38 104.50L32.38 104.50Q33.25 105.63 33.69 107.56Q34.13 109.50 34.13 112.25L34.13 112.25Q34.13 115.13 33.69 117.06Q33.25 119 32.38 120.13L32.38 120.13Q31.50 121.13 29.94 121.69Q28.38 122.25 26.25 122.25L26.25 122.25Q24 122.25 22.44 121.69Q20.88 121.13 20 120.13L20 120.13Q19.13 119 18.75 117.06Q18.38 115.13 18.38 112.25L18.38 112.25Q18.38 109.50 18.75 107.56Q19.13 105.63 20 104.50L20 104.50Q20.88 103.50 22.44 102.94Q24 102.38 26.25 102.38L26.25 102.38ZM26.25 105.38L26.25 105.38Q25 105.38 24.19 105.75Q23.38 106.13 22.88 106.88L22.88 106.88Q22.38 107.63 22.19 109Q22 110.38 22 112.25L22 112.25Q22 114.25 22.19 115.63Q22.38 117 22.88 117.75L22.88 117.75Q23.38 118.50 24.19 118.88Q25 119.25 26.25 119.25L26.25 119.25Q27.38 119.25 28.25 118.88Q29.13 118.50 29.50 117.75L29.50 117.75Q30 117 30.19 115.63Q30.38 114.25 30.38 112.25L30.38 112.25Q30.38 110.38 30.19 109Q30 107.63 29.50 106.88L29.50 106.88Q29.13 106.13 28.25 105.75Q27.38 105.38 26.25 105.38L26.25 105.38ZM36.25 108.25L39 108.25L39.25 110.38Q39.75 109.75 40.38 109.31Q41 108.88 41.75 108.63L41.75 108.63Q42.50 108.25 43.31 108.13Q44.13 108 44.88 108L44.88 108Q47.13 108 48.31 109.75Q49.50 111.50 49.50 115.13L49.50 115.13Q49.50 117.13 49.13 118.44Q48.75 119.75 48.13 120.63L48.13 120.63Q47.50 121.38 46.56 121.75Q45.63 122.13 44.25 122.13L44.25 122.13Q42.88 122.13 41.69 121.81Q40.50 121.50 39.50 120.88L39.50 120.88Q39.63 121.50 39.63 122.25Q39.63 123 39.63 123.63L39.63 123.63L39.63 127.25L36.25 127.25L36.25 108.25ZM39.63 112.38L39.63 112.38L39.63 118.88Q40.88 119.13 41.81 119.25Q42.75 119.38 43.25 119.38L43.25 119.38Q44 119.38 44.56 119.19Q45.13 119 45.38 118.63L45.38 118.63Q45.63 118.13 45.81 117.31Q46 116.50 46 115.13L46 115.13Q46 113.88 45.88 113Q45.75 112.13 45.38 111.63L45.38 111.63Q45.13 111.13 44.69 110.94Q44.25 110.75 43.63 110.75L43.63 110.75Q43.13 110.75 42.69 110.81Q42.25 110.88 41.75 111.13L41.75 111.13Q41.38 111.25 40.81 111.63Q40.25 112 39.63 112.38L39.63 112.38ZM60.38 116.50L60.38 116.50L54.88 116.50Q54.88 117.38 55.13 117.94Q55.38 118.50 55.75 118.88L55.75 118.88Q56.25 119.13 56.88 119.25Q57.50 119.38 58.50 119.38L58.50 119.38Q59.50 119.38 60.69 119.31Q61.88 119.25 63.25 119.13L63.25 119.13L63.63 121.25Q62.63 121.75 61.25 121.94Q59.88 122.13 58 122.13L58 122.13Q56.13 122.13 54.88 121.75Q53.63 121.38 52.75 120.50L52.75 120.50Q52 119.75 51.63 118.38Q51.25 117 51.25 115L51.25 115Q51.25 113.13 51.63 111.69Q52 110.25 52.75 109.50L52.75 109.50Q53.50 108.75 54.75 108.31Q56 107.88 57.75 107.88L57.75 107.88Q59.38 107.88 60.56 108.19Q61.75 108.50 62.50 109.13L62.50 109.13Q63.25 109.63 63.63 110.50Q64 111.38 64 112.63L64 112.63Q64 114.50 63.06 115.50Q62.13 116.50 60.38 116.50L60.38 116.50ZM54.75 114.13L54.75 114.13L59.38 114.13Q60 114.13 60.31 113.75Q60.63 113.38 60.63 112.50L60.63 112.50Q60.63 112 60.50 111.63Q60.38 111.25 60 111L60 111Q59.75 110.75 59.25 110.63Q58.75 110.50 58 110.50L58 110.50Q57 110.50 56.44 110.69Q55.88 110.88 55.50 111.25L55.50 111.25Q55.13 111.63 54.94 112.38Q54.75 113.13 54.75 114.13L54.75 114.13ZM65.88 108.25L68.63 108.25L68.88 110.25Q70.50 109.13 71.94 108.50Q73.38 107.88 74.75 107.88L74.75 107.88Q75.63 107.88 76.31 108.13Q77 108.38 77.50 108.88L77.50 108.88Q78 109.38 78.25 110.06Q78.50 110.75 78.50 111.63L78.50 111.63L78.50 121.88L75.13 121.88L75.13 112.75Q75.13 112.13 75.06 111.75Q75 111.38 74.88 111.13L74.88 111.13Q74.63 111 74.38 110.88Q74.13 110.75 73.75 110.75L73.75 110.75Q73.25 110.75 72.75 110.88Q72.25 111 71.75 111.13L71.75 111.13Q71.25 111.38 70.63 111.69Q70 112 69.25 112.38L69.25 112.38L69.25 121.88L65.88 121.88L65.88 108.25ZM94 118.88L94 118.88L94.25 121.50Q93.13 121.75 91.63 121.94Q90.13 122.13 88.38 122.13L88.38 122.13Q86.25 122.13 84.75 121.56Q83.25 121 82.38 120L82.38 120Q81.50 118.88 81.06 116.94Q80.63 115 80.63 112.25L80.63 112.25Q80.63 109.63 81.06 107.69Q81.50 105.75 82.38 104.63L82.38 104.63Q83.25 103.50 84.75 103Q86.25 102.50 88.38 102.50L88.38 102.50Q90 102.50 91.38 102.63Q92.75 102.75 93.88 103L93.88 103L93.50 105.63Q92.38 105.63 91.13 105.56Q89.88 105.50 88.63 105.50L88.63 105.50Q88.50 105.50 88.44 105.50Q88.38 105.50 88.38 105.50L88.38 105.50L88.38 105.50Q87.25 105.50 86.44 105.88Q85.63 106.25 85.13 107L85.13 107Q84.75 107.63 84.50 109Q84.25 110.38 84.25 112.25L84.25 112.25Q84.25 114.25 84.50 115.63Q84.75 117 85.13 117.75L85.13 117.75Q85.63 118.38 86.44 118.75Q87.25 119.13 88.38 119.13L88.38 119.13Q90.13 119.13 91.50 119.06Q92.88 119 94 118.88L94 118.88ZM108.13 102.75L111.63 102.75L106.25 120.88Q106.13 121.38 105.81 121.63Q105.50 121.88 105 121.88L105 121.88L101.75 121.88Q101.50 121.88 101.31 121.81Q101.13 121.75 101 121.63L101 121.63Q100.75 121.50 100.63 121.31Q100.50 121.13 100.50 120.88L100.50 120.88L100.50 120.88L95.13 102.75L98.63 102.75L102.50 117.13Q102.63 117.25 102.69 117.50Q102.75 117.75 102.75 118.13L102.75 118.13Q102.88 118.50 102.94 118.75Q103 119 103 119.25L103 119.25L103.75 119.25Q103.88 118.75 104 118.25Q104.13 117.75 104.25 117.13L104.25 117.13L108.13 102.75Z"/></svg>