<svg xmlns="http://www.w3.org/2000/svg" xmlns:xlink="http://www.w3.org/1999/xlink" width="128" height="128"><path fill="#ffffff" d="M104.13 81.38L112.88 66.63Q119.63 70.50 123.75 77.44Q127.88 84.38 128 92.75L128 92.75Q128 99.13 125.63 104.63L125.63 104.63Q123.13 110.25 119 114.38Q114.88 118.50 109.38 120.88L109.38 120.88Q103.75 123.25 97.50 123.25L97.50 123.25Q91.13 123.25 85.63 120.88L85.63 120.88Q80 118.50 75.88 114.38Q71.75 110.25 69.25 104.75L69.25 104.75Q66.88 99.25 66.88 92.88L66.88 92.88Q66.88 84.50 71 77.56Q75.13 70.63 81.88 66.63L81.88 66.63L90.63 81.38Q90.75 81.75 90.69 82.06Q90.63 82.38 90.38 82.50L90.38 82.50Q87.88 84.25 86.38 86.94Q84.88 89.63 84.88 92.88L84.88 92.88Q84.88 98 88.56 101.69Q92.25 105.38 97.38 105.38L97.38 105.38Q102.63 105.38 106.31 101.69Q110 98 109.88 92.88L109.88 92.88Q109.88 89.63 108.38 86.88Q106.88 84.13 104.38 82.50L104.38 82.50Q104.13 82.38 104.06 82Q104 81.63 104.13 81.38L104.13 81.38ZM36.75 81.25L45.50 66.38Q42.25 64.63 38.50 63.56Q34.75 62.50 30.63 62.50L30.63 62.50Q30.63 62.50 30.63 62.50Q30.63 62.50 30.63 62.50L30.63 62.50L30.63 62.50Q24.25 62.50 18.63 65L18.63 65Q13.13 67.38 9 71.50Q4.88 75.63 2.38 81.13L2.38 81.13Q0 86.63 0 93L0 93Q0 99.25 2.38 104.88L2.38 104.88Q4.88 110.38 9 114.50Q13.13 118.63 18.63 121L18.63 121Q24.25 123.38 30.63 123.38L30.63 123.38Q36.88 123.38 42.50 120.88L42.50 120.88Q48.13 118.38 52.31 114.13Q56.50 109.88 58.88 104.25L58.88 104.25Q61.25 98.50 61.13 92.25L61.13 92.25L43.88 92.25Q43.63 92.25 43.38 92.50Q43.13 92.75 43.13 93L43.13 93Q43 98.13 39.38 101.81Q35.75 105.50 30.63 105.50L30.63 105.50Q25.38 105.50 21.69 101.81Q18 98.13 18 93L18 93Q18 87.88 21.69 84.19Q25.38 80.50 30.63 80.50L30.63 80.50Q31.88 80.50 33.19 80.75Q34.50 81 35.63 81.63L35.63 81.63Q36 81.75 36.25 81.63Q36.50 81.50 36.75 81.25L36.75 81.25ZM56.75 46.88L48 61.63Q41.25 57.63 37.06 50.69Q32.88 43.75 32.88 35.38L32.88 35.38Q32.88 29.13 35.38 23.63L35.38 23.63Q37.75 18 41.88 13.88Q46 9.75 51.63 7.38L51.63 7.38Q57.13 5 63.50 5L63.50 5Q69.75 5 75.38 7.38L75.38 7.38Q80.88 9.75 85.06 13.88Q89.25 18 91.63 23.63L91.63 23.63Q94 29.13 94 35.38L94 35.38Q94 43.75 89.88 50.69Q85.75 57.63 79 61.63L79 61.63L70.25 46.88Q70 46.63 70.13 46.31Q70.25 46 70.50 45.75L70.50 45.75Q73 44.13 74.50 41.38Q76 38.63 76 35.38L76 35.38Q76 30.25 72.31 26.63Q68.63 23 63.50 23L63.50 23Q58.25 23 54.56 26.63Q50.88 30.25 50.88 35.38L50.88 35.38Q50.88 38.63 52.44 41.38Q54 44.13 56.38 45.75L56.38 45.75Q56.75 46 56.81 46.31Q56.88 46.63 56.75 46.88L56.75 46.88Z"/></svg>