<svg xmlns="http://www.w3.org/2000/svg" xmlns:xlink="http://www.w3.org/1999/xlink" width="128" height="128"><path fill="#ffffff" d="M55.25 72L51.75 72L48.50 65.75L45.25 72L41.75 72L46.75 64.13L42.25 56.25L45.75 56.25L48.75 62.25L51.88 56.25L55.25 56.25L50.50 64L55.25 72ZM63.13 72L63.13 72L63.13 70.25Q62.38 71.38 61.50 71.81Q60.63 72.25 59.38 72.25L59.38 72.25Q58.50 72.25 57.75 72.06Q57 71.88 56.50 71.25L56.50 71.25Q56 70.75 55.69 70.06Q55.38 69.38 55.38 68.63L55.38 68.63Q55.38 66.75 56.44 65.75Q57.50 64.75 59.50 64.50L59.50 64.50L63.13 64Q63.13 62.75 62.50 62.06Q61.88 61.38 60.75 61.38L60.75 61.38Q59.63 61.38 58.56 61.75Q57.50 62.13 56.63 62.75L56.63 62.75L56.63 60.25Q57 60.13 57.44 59.94Q57.88 59.75 58.63 59.50L58.63 59.50Q59.25 59.38 59.88 59.31Q60.50 59.25 61 59.25L61 59.25Q63.38 59.25 64.56 60.44Q65.75 61.63 65.75 64.13L65.75 64.13L65.75 72L63.13 72ZM63.25 65.88L60.50 66.25Q59.88 66.38 59.44 66.50Q59 66.63 58.75 66.88L58.75 66.88Q58.50 67.13 58.38 67.50Q58.25 67.88 58.25 68.25L58.25 68.25Q58.25 68.63 58.38 68.94Q58.50 69.25 58.75 69.63L58.75 69.63Q59.13 69.88 59.50 70Q59.88 70.13 60.25 70.13L60.25 70.13Q60.88 70.13 61.44 69.88Q62 69.63 62.38 69.25L62.38 69.25Q62.75 68.75 63 68.19Q63.25 67.63 63.25 67L63.25 67L63.25 65.88ZM83.88 72L83.88 72L83.88 64.88Q83.88 64 83.75 63.38Q83.63 62.75 83.38 62.25L83.38 62.25Q83.13 61.88 82.63 61.63Q82.13 61.38 81.50 61.38L81.50 61.38Q81 61.38 80.50 61.63Q80 61.88 79.63 62.38L79.63 62.38Q79.25 62.88 79 63.50Q78.75 64.13 78.75 64.88L78.75 64.88L78.75 71.88L76 71.88L76 64.63Q76 63 75.38 62.19Q74.75 61.38 73.50 61.38L73.50 61.38Q72.88 61.38 72.44 61.63Q72 61.88 71.63 62.38L71.63 62.38Q71.25 62.88 71.06 63.50Q70.88 64.13 70.88 64.88L70.88 64.88L70.88 71.88L68.13 71.88L68.13 59.50L70.88 59.50L70.88 61.38Q71.63 60.25 72.56 59.75Q73.50 59.25 74.88 59.25L74.88 59.25Q75.50 59.25 76.06 59.38Q76.63 59.50 77.13 59.88L77.13 59.88Q77.50 60.25 77.88 60.69Q78.25 61.13 78.50 61.75L78.50 61.75Q79.25 60.50 80.31 59.88Q81.38 59.25 82.75 59.25L82.75 59.25Q84.75 59.25 85.75 60.50Q86.75 61.75 86.75 64.25L86.75 64.25L86.75 72L83.88 72ZM96.13 72L96.13 72L96.13 70.25Q95.38 71.38 94.50 71.81Q93.63 72.25 92.38 72.25L92.38 72.25Q91.50 72.25 90.75 72.06Q90 71.88 89.50 71.25L89.50 71.25Q89 70.75 88.69 70.06Q88.38 69.38 88.38 68.63L88.38 68.63Q88.38 66.75 89.44 65.75Q90.50 64.75 92.50 64.50L92.50 64.50L96.13 64Q96.13 62.75 95.50 62.06Q94.88 61.38 93.75 61.38L93.75 61.38Q92.63 61.38 91.56 61.75Q90.50 62.13 89.63 62.75L89.63 62.75L89.63 60.25Q90 60.13 90.44 59.94Q90.88 59.75 91.63 59.50L91.63 59.50Q92.25 59.38 92.88 59.31Q93.50 59.25 94 59.25L94 59.25Q96.38 59.25 97.56 60.44Q98.75 61.63 98.75 64.13L98.75 64.13L98.75 72L96.13 72ZM93.38 66.25L93.38 66.25Q92.75 66.38 92.31 66.50Q91.88 66.63 91.63 66.88L91.63 66.88Q91.38 67.13 91.25 67.50Q91.13 67.88 91.13 68.25L91.13 68.25Q91.13 68.63 91.25 68.94Q91.38 69.25 91.75 69.63L91.75 69.63Q92 69.88 92.38 70Q92.75 70.13 93.25 70.13L93.25 70.13Q93.75 70.13 94.31 69.88Q94.88 69.63 95.25 69.25L95.25 69.25Q95.63 68.75 95.88 68.19Q96.13 67.63 96.13 67L96.13 67L96.13 65.88L93.38 66.25ZM108.25 62.25L108.25 62.25Q107.88 62 107.50 61.88Q107.13 61.75 106.75 61.75L106.75 61.75Q106.13 61.75 105.63 62.06Q105.13 62.38 104.75 62.88L104.75 62.88Q104.38 63.38 104.13 64.06Q103.88 64.75 103.88 65.63L103.88 65.63L103.88 72L101.13 72L101.13 59.50L103.88 59.50L103.88 61.88Q104.38 60.50 105.19 59.88Q106 59.25 107.13 59.25L107.13 59.25Q107.50 59.25 107.75 59.31Q108 59.38 108.25 59.38L108.25 59.38L108.25 62.25ZM111.13 56.75L111.13 56.75Q110.75 56.75 110.44 56.56Q110.13 56.38 109.88 56.25L109.88 56.25Q109.63 56 109.50 55.69Q109.38 55.38 109.38 55L109.38 55Q109.38 54.63 109.50 54.31Q109.63 54 109.88 53.75L109.88 53.75Q110.13 53.63 110.44 53.44Q110.75 53.25 111.13 53.25L111.13 53.25Q111.50 53.25 111.81 53.44Q112.13 53.63 112.25 53.75L112.25 53.75Q112.50 54 112.63 54.31Q112.75 54.63 112.75 55L112.75 55Q112.75 55.38 112.63 55.63Q112.50 55.88 112.25 56.25L112.25 56.25Q112.13 56.38 111.81 56.56Q111.50 56.75 111.13 56.75ZM112.50 72L109.75 72L109.75 59.50L112.50 59.50L112.50 72ZM126.13 72L123.25 72L123.25 65Q123.25 63.25 122.63 62.38Q122 61.50 120.75 61.50L120.75 61.50Q120.13 61.50 119.56 61.75Q119 62 118.63 62.50L118.63 62.50Q118.13 63 117.94 63.56Q117.75 64.13 117.75 64.88L117.75 64.88L117.75 72L115 72L115 59.50L117.75 59.50L117.75 61.50Q118.50 60.38 119.50 59.81Q120.50 59.25 121.88 59.25L121.88 59.25Q124 59.25 125.06 60.50Q126.13 61.75 126.13 64.25L126.13 64.25L126.13 72ZM11.13 49.75L11.13 49.88Q10.38 49.88 9.81 50.25Q9.25 50.63 9 51.13L9 51.13L2.25 62.75Q2 63.38 2 64.06Q2 64.75 2.25 65.25L2.25 65.25L9 76.88Q9.25 77.38 9.88 77.75Q10.50 78.13 11.13 78.13L11.13 78.13L24.50 78.13Q25.13 78.13 25.69 77.75Q26.25 77.38 26.63 76.88L26.63 76.88L33.25 65.25Q33.63 64.63 33.63 63.94Q33.63 63.25 33.25 62.75L33.25 62.75L26.63 51Q26.25 50.50 25.69 50.13Q25.13 49.75 24.50 49.75L24.50 49.75L11.13 49.75ZM11.25 56.75L11.25 56.75L13.75 56.75Q13.75 56.75 13.81 56.81Q13.88 56.88 14 56.88L14 56.88L17.88 63.88L21.75 56.88Q21.88 56.88 21.94 56.81Q22 56.75 22.13 56.75L22.13 56.75L24.38 56.75Q24.50 56.75 24.63 56.88Q24.75 57 24.75 57.13L24.75 57.13L20.75 64L24.63 70.88Q24.63 71 24.56 71.19Q24.50 71.38 24.25 71.38L24.25 71.38L22 71.38Q21.88 71.38 21.81 71.31Q21.75 71.25 21.75 71.25L21.75 71.25L17.75 64.25L13.88 71.25Q13.88 71.25 13.81 71.31Q13.75 71.38 13.63 71.38L13.63 71.38L11.25 71.38Q11.13 71.38 11 71.19Q10.88 71 11 70.88L11 70.88L14.75 64L11 57.13Q11 57 11.06 56.88Q11.13 56.75 11.25 56.75L11.25 56.75Z"/></svg>