<svg xmlns="http://www.w3.org/2000/svg" xmlns:xlink="http://www.w3.org/1999/xlink" width="128" height="128"><path fill="#ffffff" d="M37.75 9L37.75 9Q35.25 9 33 10.31Q30.75 11.63 29.50 13.75L29.50 13.75L3.25 59.25Q1.88 61.50 1.88 64Q1.88 66.50 3.25 68.75L3.25 68.75L29.38 114.25Q30.75 116.38 32.94 117.69Q35.13 119 37.75 119L37.75 119L90.13 119Q92.63 119 94.88 117.69Q97.13 116.38 98.38 114.25L98.38 114.25L124.63 68.75Q125.88 66.50 125.88 64Q125.88 61.50 124.63 59.25L124.63 59.25L98.50 13.75Q97.25 11.63 95 10.31Q92.75 9 90.25 9L90.25 9L37.75 9ZM38.25 35.63L38.25 35.63L47.63 35.63Q47.88 35.63 48.19 35.75Q48.50 35.88 48.63 36.25L48.63 36.25L63.88 63.50Q64 63.63 64 63.75Q64 63.88 64 63.88L64 63.88Q64 63.75 64.06 63.69Q64.13 63.63 64.13 63.50L64.13 63.50L79.38 36.25Q79.50 35.88 79.81 35.75Q80.13 35.63 80.38 35.63L80.38 35.63L89.38 35.63Q89.88 35.63 90.25 36.06Q90.63 36.50 90.50 37L90.50 37Q90.50 37.13 90.50 37.19Q90.50 37.25 90.38 37.38L90.38 37.38L75.63 64L90.63 90.75Q90.88 91.13 90.69 91.63Q90.50 92.13 90 92.25L90 92.25Q89.88 92.38 89.75 92.38Q89.63 92.38 89.63 92.38L89.63 92.38L80.50 92.38Q80.25 92.38 79.94 92.25Q79.63 92.13 79.50 91.75L79.50 91.75L64.13 64.50Q64 64.38 64 64.25Q64 64.13 64 64.13L64 64.13Q64 64.25 63.94 64.31Q63.88 64.38 63.88 64.50L63.88 64.50L48.50 91.75Q48.38 92.13 48.06 92.25Q47.75 92.38 47.50 92.38L47.50 92.38L38.50 92.38Q38 92.38 37.69 91.94Q37.38 91.50 37.38 91.13L37.38 91.13Q37.38 91 37.44 90.88Q37.50 90.75 37.50 90.75L37.50 90.75L52.50 64L37.50 37.25Q37.25 36.88 37.44 36.38Q37.63 35.88 38.13 35.75L38.13 35.75Q38.13 35.63 38.19 35.63Q38.25 35.63 38.25 35.63L38.25 35.63Z"/></svg>