<svg xmlns="http://www.w3.org/2000/svg" xmlns:xlink="http://www.w3.org/1999/xlink" width="128" height="128"><path fill="#000000" d="M38.63 67L38.63 67Q38 68.25 37.50 69.31Q37 70.38 36.50 71.50L36.50 71.50Q34 76.88 32 82.44Q30 88 28.88 93.88L28.88 93.88Q28.38 97.13 28.19 100.38Q28 103.63 28.88 107L28.88 107Q29.50 109.75 31.13 111.19Q32.75 112.63 35.25 112.75L35.25 112.75Q36.50 112.88 37.63 112.63Q38.75 112.38 39.88 112.13L39.88 112.13Q42.88 111.25 45.44 109.75Q48 108.25 50.50 106.50L50.50 106.50Q51.13 106.13 51.75 105.94Q52.38 105.75 53.13 106L53.13 106Q54.50 106.50 54.81 107.88Q55.13 109.25 54 110.13L54 110.13Q50 113.13 45.63 115.38Q41.25 117.63 36 117.75L36 117.75Q31.75 117.88 28.75 115.69Q25.75 113.50 24.38 109.50L24.38 109.50Q23.25 106.38 23.13 103.25Q23 100.13 23.38 97L23.38 97Q24.50 87.63 27.81 79.06Q31.13 70.50 35.50 62.25L35.50 62.25Q35.88 61.50 35.88 60.88Q35.88 60.25 35.63 59.50L35.63 59.50Q34.50 56.38 33.50 53.25Q32.50 50.13 31.50 47L31.50 47Q31.38 46.38 31.06 46.19Q30.75 46 30.13 46.13L30.13 46.13Q25.88 47.13 21.75 48.44Q17.63 49.75 13.88 51.88L13.88 51.88Q12.38 52.75 11.06 53.81Q9.75 54.88 8.50 56.13L8.50 56.13Q6.63 58.13 6.50 60.38Q6.38 62.63 8 64.88L8 64.88Q9.38 67 11.25 68.44Q13.13 69.88 15.13 71.13L15.13 71.13Q15.88 71.50 16.50 71.88Q17.13 72.25 17.75 72.63L17.75 72.63Q18.75 73.25 19.06 74.19Q19.38 75.13 18.88 76L18.88 76Q18.38 77 17.38 77.25Q16.38 77.50 15.38 77L15.38 77Q12.50 75.63 9.88 73.75Q7.25 71.88 5.13 69.50L5.13 69.50Q3.75 67.88 2.88 66.19Q2 64.50 1.63 62.50L1.63 62.50Q1.25 60 1.94 57.75Q2.63 55.50 4.13 53.50L4.13 53.50Q5.63 51.50 7.63 49.94Q9.63 48.38 11.88 47.25L11.88 47.25Q15.88 45.13 20.06 43.75Q24.25 42.38 28.63 41.38L28.63 41.38Q29 41.25 29.31 41.19Q29.63 41.13 30 41L30 41Q29.75 39.88 29.56 38.75Q29.38 37.63 29.25 36.50L29.25 36.50Q28.50 31.75 28.31 27.13Q28.13 22.50 29.38 17.88L29.38 17.88Q29.75 16 30.50 14.31Q31.25 12.63 32.50 11.13L32.50 11.13Q35 8.25 38.19 7.44Q41.38 6.63 45 7.50L45 7.50Q48.63 8.38 51.69 10.25Q54.75 12.13 57.63 14.38L57.63 14.38Q58.38 15.13 58.44 16.13Q58.50 17.13 57.75 17.88L57.75 17.88Q57.13 18.63 56.19 18.75Q55.25 18.88 54.38 18.25L54.38 18.25Q52.88 17.25 51.50 16.25Q50.13 15.25 48.63 14.38L48.63 14.38Q47 13.38 45.19 12.75Q43.38 12.13 41.25 12.13L41.25 12.13Q39.63 12.13 38.31 12.81Q37 13.50 36.13 14.88L36.13 14.88Q34.88 16.50 34.38 18.44Q33.88 20.38 33.63 22.38L33.63 22.38Q33.13 26.75 33.56 30.94Q34 35.13 34.88 39.38L34.88 39.38Q34.88 39.75 35.13 39.94Q35.38 40.13 35.75 40.13L35.75 40.13Q39.25 39.75 42.63 39.44Q46 39.13 49.38 38.88L49.38 38.88Q50.13 38.75 50.63 38.50Q51.13 38.25 51.63 37.63L51.63 37.63Q56 32 60.88 26.94Q65.75 21.88 71.50 17.63L71.50 17.63Q74.63 15.25 78 13.25Q81.38 11.25 85.25 10.13L85.25 10.13Q87.63 9.38 90.06 9.25Q92.50 9.13 95 10L95 10Q98 11 99.75 13.19Q101.50 15.38 102.38 18.38L102.38 18.38Q103.38 21.50 103.38 24.75Q103.38 28 103 31.13L103 31.13Q102.88 32 102.75 32.81Q102.63 33.63 102.38 34.50L102.38 34.50Q102.25 35.50 101.44 36.06Q100.63 36.63 99.63 36.50L99.63 36.50Q98.63 36.38 98 35.63Q97.38 34.88 97.50 33.75L97.50 33.75Q97.63 32.25 97.88 30.69Q98.13 29.13 98.13 27.63L98.13 27.63Q98.25 25.75 98.13 23.94Q98 22.13 97.63 20.25L97.63 20.25Q96.88 16.63 94.38 15.19Q91.88 13.75 88.13 14.63L88.13 14.63Q85.25 15.25 82.75 16.50Q80.25 17.75 77.75 19.25L77.75 19.25Q72.88 22.50 68.63 26.50Q64.38 30.50 60.50 34.88L60.50 34.88Q59.75 35.63 59 36.50Q58.25 37.38 57.63 38.13L57.63 38.13Q57.63 38.25 57.56 38.31Q57.50 38.38 57.50 38.63L57.50 38.63L58.88 38.63Q68.88 38.75 78.75 40Q88.63 41.25 98.38 44.13L98.38 44.13Q102.88 45.38 107.31 47.19Q111.75 49 115.88 51.50L115.88 51.50Q118 52.88 119.94 54.50Q121.88 56.13 123.50 58.13L123.50 58.13Q126.75 62.38 126.50 66.81Q126.25 71.25 122.50 75L122.50 75Q120 77.50 117 79.19Q114 80.88 110.63 82.13L110.63 82.13Q109.75 82.38 108.88 82Q108 81.63 107.63 80.63L107.63 80.63Q107.25 79.75 107.63 78.81Q108 77.88 109 77.38L109 77.38Q110.50 76.63 112.06 75.94Q113.63 75.25 115 74.38L115 74.38Q116.25 73.63 117.31 72.75Q118.38 71.88 119.38 70.88L119.38 70.88Q121.38 68.75 121.50 66.44Q121.63 64.13 119.88 61.75L119.88 61.75Q118.63 60 116.94 58.63Q115.25 57.25 113.38 56.13L113.38 56.13Q108.88 53.25 103.94 51.38Q99 49.50 93.88 48.13L93.88 48.13Q88.50 46.75 83.06 45.75Q77.63 44.75 72.13 44.38L72.13 44.38Q67.75 44.13 63.31 43.94Q58.88 43.75 54.50 43.63L54.50 43.63Q53.88 43.63 53.38 43.81Q52.88 44 52.63 44.50L52.63 44.50Q50 48.50 47.38 52.50Q44.75 56.50 42.25 60.50L42.25 60.50Q42 60.75 41.94 61.19Q41.88 61.63 42 62L42 62Q44.25 67.13 46.63 72.13L46.63 72.13Q49.13 77.13 52 81.94Q54.88 86.75 58 91.25L58 91.25Q61.25 95.88 64.88 100.13L64.88 100.13Q68 103.75 71.44 107Q74.88 110.25 78.88 112.75L78.88 112.75Q80.75 114 82.81 114.88Q84.88 115.75 87.13 115.88L87.13 115.88Q89.25 116 90.81 115.13Q92.38 114.25 93.38 112.50L93.38 112.50Q94.38 110.88 94.81 109.06Q95.25 107.25 95.50 105.25L95.50 105.25Q96 99.13 95 93.19Q94 87.25 92.50 81.38L92.50 81.38Q90.75 75.38 88.50 69.63Q86.25 63.88 83.63 58.25L83.63 58.25Q83.38 57.88 83.19 57.31Q83 56.75 83.13 56.38L83.13 56.38Q83.13 55.50 83.75 54.88Q84.38 54.25 85.25 54.13L85.25 54.13Q86 54 86.75 54.38Q87.50 54.75 87.88 55.63L87.88 55.63Q88.75 57.63 89.75 59.69Q90.75 61.75 91.63 63.88L91.63 63.88Q94.25 70.25 96.38 76.88Q98.50 83.50 99.63 90.38L99.63 90.38Q100.38 95.25 100.63 100.06Q100.88 104.88 99.75 109.75L99.75 109.75Q99.50 110.75 99.13 111.81Q98.75 112.88 98.25 113.88L98.25 113.88Q96.38 118 92.75 119.81Q89.13 121.63 84.63 120.63L84.63 120.63Q81 119.88 77.94 118.06Q74.88 116.25 72 114L72 114Q66.75 109.88 62.38 104.88Q58 99.88 54.13 94.50L54.13 94.50Q49.75 88.38 46.06 81.81Q42.38 75.25 39.25 68.25L39.25 68.25Q39.13 68 39 67.75Q38.88 67.50 38.63 67L38.63 67ZM46.75 43.88L36.13 45L39.25 55.25Q41.13 52.25 42.94 49.50Q44.75 46.75 46.75 43.88L46.75 43.88ZM64.50 71.25L64.50 71.25Q61.50 71.25 59.31 69.13Q57.13 67 57.25 64L57.25 64Q57.25 61 59.38 58.88Q61.50 56.75 64.50 56.75L64.50 56.75Q67.50 56.75 69.69 58.88Q71.88 61 71.88 64L71.88 64Q71.88 67 69.69 69.13Q67.50 71.25 64.50 71.25Z"/></svg>