<svg xmlns="http://www.w3.org/2000/svg" xmlns:xlink="http://www.w3.org/1999/xlink" width="128" height="128"><path fill="#000000" d="M41.38 74.75L49.63 53.25L50.75 53.25L59 74.75L58 74.75L55.25 67.50L45.13 67.50L42.38 74.75L41.38 74.75ZM45.50 66.50L54.88 66.50L50.25 54.38L45.50 66.50ZM67.88 54.13L67.88 54.13L61.13 54.13L61.13 53.25L75.63 53.25L75.63 54.13L68.88 54.13L68.88 74.75L67.88 74.75L67.88 54.13ZM82.75 56.13L82.75 56.13Q84 54.38 85.81 53.56Q87.63 52.75 90 52.75L90 52.75Q92.38 52.75 94.25 53.56Q96.13 54.38 97.38 56.13L97.38 56.13Q98.50 57.63 99.06 59.63Q99.63 61.63 99.63 64L99.63 64Q99.63 66.50 99.06 68.50Q98.50 70.50 97.38 72L97.38 72Q96.13 73.63 94.25 74.44Q92.38 75.25 90 75.25L90 75.25Q87.63 75.25 85.81 74.44Q84 73.63 82.75 72L82.75 72Q81.63 70.50 81.06 68.50Q80.50 66.50 80.50 64L80.50 64Q80.50 61.63 81.06 59.63Q81.63 57.63 82.75 56.13L82.75 56.13ZM83.50 71.25L83.50 71.25Q84.63 72.88 86.25 73.63Q87.88 74.38 90 74.38L90 74.38Q92.13 74.38 93.81 73.63Q95.50 72.88 96.63 71.25L96.63 71.25Q97.50 69.88 98 68.06Q98.50 66.25 98.50 64L98.50 64Q98.50 61.75 98 59.94Q97.50 58.13 96.50 56.75L96.50 56.75Q95.38 55.25 93.75 54.44Q92.13 53.63 90 53.63L90 53.63Q87.88 53.63 86.25 54.44Q84.63 55.25 83.50 56.75L83.50 56.75Q82.50 58.13 82 59.94Q81.50 61.75 81.50 64L81.50 64Q81.50 66.25 82 68.06Q82.50 69.88 83.50 71.25ZM106.63 53.25L106.63 53.25L108 53.25L115.88 68.38L123.50 53.25L124.88 53.25L124.88 74.75L124 74.75L124 54.50L116.13 69.63L115.63 69.63L107.50 54.50L107.50 74.75L106.63 74.75L106.63 53.25ZM13.25 64.75L13.25 64.75L12.63 66Q12 67.38 11.50 68.88Q11 70.38 10.63 71.88L10.63 71.88Q10.50 72.75 10.44 73.63Q10.38 74.50 10.63 75.25L10.63 75.25Q10.88 76 11.25 76.44Q11.63 76.88 12.38 76.88L12.38 76.88Q12.63 76.88 12.94 76.81Q13.25 76.75 13.50 76.63L13.50 76.63Q14.38 76.50 15.06 76.06Q15.75 75.63 16.38 75.25L16.38 75.25Q16.50 75.13 16.69 75.06Q16.88 75 17 75L17 75Q17.38 75.25 17.50 75.56Q17.63 75.88 17.25 76.13L17.25 76.13Q16.25 76.88 15.06 77.50Q13.88 78.13 12.50 78.13L12.50 78.13Q11.38 78.25 10.56 77.63Q9.75 77 9.50 76L9.50 76Q9.13 75.13 9.13 74.31Q9.13 73.50 9.25 72.75L9.25 72.75Q9.50 70.25 10.38 68Q11.25 65.75 12.38 63.50L12.38 63.50Q12.50 63.38 12.50 63.19Q12.50 63 12.38 62.88L12.38 62.88Q12.13 62 11.88 61.19Q11.63 60.38 11.38 59.50L11.38 59.50Q11.25 59.38 11.19 59.31Q11.13 59.25 11 59.25L11 59.25Q9.88 59.50 8.81 59.88Q7.75 60.25 6.75 60.88L6.75 60.88Q6.38 61 6 61.31Q5.63 61.63 5.25 61.88L5.25 61.88Q4.75 62.50 4.75 63.06Q4.75 63.63 5.13 64.25L5.13 64.25Q5.50 64.75 6 65.13Q6.50 65.50 7 65.88L7 65.88L7.75 66.25Q8 66.38 8.06 66.63Q8.13 66.88 8 67.13L8 67.13Q7.88 67.38 7.63 67.50Q7.38 67.63 7.13 67.50L7.13 67.50Q6.38 67 5.69 66.56Q5 66.13 4.38 65.38L4.38 65.38Q4 65 3.81 64.56Q3.63 64.13 3.50 63.63L3.50 63.63Q3.38 62.88 3.56 62.31Q3.75 61.75 4.13 61.25L4.13 61.25Q4.50 60.75 5.06 60.31Q5.63 59.88 6.13 59.63L6.13 59.63Q7.25 59 8.38 58.63Q9.50 58.25 10.63 58L10.63 58L11 58Q10.88 57.63 10.81 57.31Q10.75 57 10.75 56.75L10.75 56.75Q10.50 55.50 10.50 54.31Q10.50 53.13 10.75 51.88L10.75 51.88Q10.88 51.38 11.06 50.94Q11.25 50.50 11.63 50.13L11.63 50.13Q12.25 49.25 13.13 49.06Q14 48.88 14.88 49.13L14.88 49.13Q15.88 49.38 16.69 49.88Q17.50 50.38 18.25 51L18.25 51Q18.38 51.13 18.44 51.38Q18.50 51.63 18.25 51.88L18.25 51.88Q18.13 52 17.88 52.06Q17.63 52.13 17.38 52L17.38 52Q17 51.75 16.63 51.44Q16.25 51.13 15.88 51L15.88 51Q15.38 50.63 14.94 50.50Q14.50 50.38 13.88 50.38L13.88 50.38Q13.50 50.38 13.13 50.56Q12.75 50.75 12.50 51L12.50 51Q12.25 51.50 12.13 52Q12 52.50 11.88 53L11.88 53Q11.75 54.13 11.88 55.25Q12 56.38 12.25 57.50L12.25 57.50Q12.25 57.63 12.31 57.69Q12.38 57.75 12.50 57.75L12.50 57.75Q13.38 57.63 14.25 57.56Q15.13 57.50 16 57.38L16 57.38Q16.25 57.38 16.38 57.31Q16.50 57.25 16.63 57L16.63 57Q17.75 55.63 19.06 54.25Q20.38 52.88 21.88 51.75L21.88 51.75Q22.75 51.13 23.63 50.63Q24.50 50.13 25.50 49.75L25.50 49.75Q26.13 49.63 26.75 49.56Q27.38 49.50 28 49.75L28 49.75Q28.88 50 29.31 50.63Q29.75 51.25 30 52L30 52Q30.25 52.88 30.25 53.69Q30.25 54.50 30.13 55.38L30.13 55.38Q30.13 55.63 30.13 55.81Q30.13 56 30 56.25L30 56.25Q30 56.50 29.81 56.63Q29.63 56.75 29.25 56.75L29.25 56.75Q29 56.75 28.88 56.56Q28.75 56.38 28.75 56L28.75 56Q28.75 55.63 28.81 55.25Q28.88 54.88 28.88 54.38L28.88 54.38Q28.88 54 28.88 53.50Q28.88 53 28.75 52.50L28.75 52.50Q28.50 51.50 27.88 51.13Q27.25 50.75 26.25 51L26.25 51Q25.50 51.13 24.81 51.44Q24.13 51.75 23.50 52.25L23.50 52.25Q22.25 53.13 21.13 54.13Q20 55.13 19 56.38L19 56.38Q18.75 56.50 18.56 56.75Q18.38 57 18.25 57.25L18.25 57.25L18.13 57.38L18.50 57.38Q21.25 57.38 23.81 57.69Q26.38 58 29 58.75L29 58.75Q30.13 59.13 31.31 59.56Q32.50 60 33.50 60.75L33.50 60.75Q34.13 61.13 34.63 61.50Q35.13 61.88 35.63 62.50L35.63 62.50Q36.38 63.63 36.31 64.75Q36.25 65.88 35.25 66.88L35.25 66.88Q34.63 67.50 33.81 68Q33 68.50 32.25 68.75L32.25 68.75Q32 68.88 31.75 68.75Q31.50 68.63 31.38 68.38L31.38 68.38Q31.25 68.13 31.38 67.88Q31.50 67.63 31.75 67.50L31.75 67.50Q32.13 67.38 32.56 67.19Q33 67 33.38 66.75L33.38 66.75Q33.63 66.50 33.94 66.31Q34.25 66.13 34.50 65.88L34.50 65.88Q35 65.25 35 64.63Q35 64 34.63 63.38L34.63 63.38Q34.25 62.88 33.81 62.56Q33.38 62.25 32.88 61.88L32.88 61.88Q31.75 61.13 30.44 60.69Q29.13 60.25 27.75 59.88L27.75 59.88Q26.38 59.50 24.94 59.25Q23.50 59 22 58.88L22 58.88Q20.88 58.75 19.69 58.69Q18.50 58.63 17.38 58.63L17.38 58.63Q17.25 58.63 17.13 58.69Q17 58.75 16.88 58.88L16.88 58.88Q16.25 59.88 15.56 60.94Q14.88 62 14.13 63.13L14.13 63.13Q14.13 63.13 14.13 63.25Q14.13 63.38 14.13 63.50L14.13 63.50Q15.25 66.25 16.75 68.75Q18.25 71.25 20.13 73.50L20.13 73.50Q21 74.50 21.88 75.31Q22.75 76.13 23.88 76.88L23.88 76.88Q24.38 77.13 24.88 77.38Q25.38 77.63 26 77.63L26 77.63Q26.50 77.75 26.94 77.50Q27.38 77.25 27.63 76.75L27.63 76.75Q27.88 76.38 28 75.88Q28.13 75.38 28.13 74.88L28.13 74.88Q28.38 73.25 28.13 71.69Q27.88 70.13 27.38 68.63L27.38 68.63Q27 67 26.38 65.50Q25.75 64 25 62.50L25 62.50Q25 62.38 24.94 62.25Q24.88 62.13 24.88 62L24.88 62Q25 61.75 25.13 61.63Q25.25 61.50 25.50 61.38L25.50 61.38Q25.75 61.38 25.94 61.50Q26.13 61.63 26.13 61.75L26.13 61.75Q26.38 62.38 26.63 62.88Q26.88 63.38 27.13 64L27.13 64Q27.88 65.63 28.44 67.38Q29 69.13 29.25 71L29.25 71Q29.50 72.25 29.56 73.50Q29.63 74.75 29.25 76L29.25 76Q29.25 76.38 29.13 76.63Q29 76.88 28.88 77.13L28.88 77.13Q28.38 78.25 27.44 78.69Q26.50 79.13 25.38 78.88L25.38 78.88Q24.38 78.75 23.56 78.25Q22.75 77.75 22 77.13L22 77.13Q20.63 76.13 19.50 74.81Q18.38 73.50 17.38 72L17.38 72Q16.13 70.38 15.19 68.69Q14.25 67 13.38 65.13L13.38 65.13L13.25 64.75ZM15.38 58.75L12.50 59L13.38 61.63L15.38 58.75ZM20 65.88L20 65.88Q19.25 65.88 18.69 65.31Q18.13 64.75 18.13 64L18.13 64Q18.13 63.25 18.69 62.69Q19.25 62.13 20 62.13L20 62.13Q20.88 62.13 21.44 62.69Q22 63.25 22 64L22 64Q22 64.75 21.44 65.31Q20.88 65.88 20 65.88L20 65.88Z"/></svg>