<svg xmlns="http://www.w3.org/2000/svg" xmlns:xlink="http://www.w3.org/1999/xlink" width="128" height="128"><path fill="#000000" d="M34.13 71.25L34.13 71.25Q33.25 71.25 32.50 71.13Q31.75 71 31 70.88L31 70.88Q30.25 70.63 29.56 70.31Q28.88 70 28.38 69.63L28.38 69.63L29.50 67.38Q30.50 68 31.69 68.38Q32.88 68.75 34.13 68.75L34.13 68.75Q34.88 68.75 35.38 68.69Q35.88 68.63 36.25 68.38L36.25 68.38Q36.63 68.13 36.81 67.81Q37 67.50 37 67.13L37 67.13Q37 66.75 36.81 66.50Q36.63 66.25 36.25 66L36.25 66Q36 65.88 35.38 65.69Q34.75 65.50 33.88 65.25L33.88 65.25Q33 65.13 32.25 64.88Q31.50 64.63 30.88 64.38L30.88 64.38Q30.25 64.13 29.88 63.75Q29.50 63.38 29.25 63L29.25 63Q29 62.63 28.88 62.13Q28.75 61.63 28.75 61L28.75 61Q28.75 60.38 28.88 59.75Q29 59.13 29.38 58.63L29.38 58.63Q29.75 58.13 30.25 57.75Q30.75 57.38 31.50 57L31.50 57Q32.13 56.75 32.88 56.63Q33.63 56.50 34.50 56.50L34.50 56.50Q35.25 56.50 36 56.56Q36.75 56.63 37.50 56.88L37.50 56.88Q38.13 57.13 38.69 57.44Q39.25 57.75 39.75 58.13L39.75 58.13L38.63 60.38Q37.75 59.63 36.69 59.25Q35.63 58.88 34.50 58.88L34.50 58.88Q33.88 58.88 33.38 59Q32.88 59.13 32.50 59.38L32.50 59.38Q32.13 59.63 32 60Q31.88 60.38 31.88 60.75L31.88 60.75Q31.88 61 31.94 61.19Q32 61.38 32.13 61.50L32.13 61.50Q32.25 61.75 32.50 61.88Q32.75 62 33 62.13L33 62.13Q33.38 62.25 33.81 62.38Q34.25 62.50 34.88 62.63L34.88 62.63Q36.25 62.88 37.25 63.31Q38.25 63.75 38.88 64.25L38.88 64.25Q39.50 64.63 39.81 65.31Q40.13 66 40.13 66.88L40.13 66.88Q40.13 67.88 39.69 68.69Q39.25 69.50 38.50 70.13L38.50 70.13Q37.75 70.63 36.63 70.94Q35.50 71.25 34.13 71.25L34.13 71.25ZM47.50 69L47.50 69Q47.75 69 48 69Q48.25 69 48.50 68.88L48.50 68.88L48.25 71.13Q48 71.25 47.75 71.25Q47.50 71.25 47.13 71.25L47.13 71.25L47.13 71.25Q46 71.25 45.13 71Q44.25 70.75 43.75 70.25L43.75 70.25Q43.25 69.75 43 69Q42.75 68.25 42.75 67.25L42.75 67.25L42.75 63.38L40.88 63.38L40.88 61L42.75 61L42.75 58.13L45.88 58.13L45.88 61L48.38 61L48.38 63.38L45.88 63.38L45.88 67.13Q45.88 68.13 46.25 68.56Q46.63 69 47.50 69ZM54.63 71.25L54.63 71.25Q53.88 71.25 53.19 71.06Q52.50 70.88 51.88 70.63L51.88 70.63Q51.25 70.25 50.81 69.81Q50.38 69.38 50 68.75L50 68.75L50 68.75Q49.63 68.13 49.50 67.44Q49.38 66.75 49.38 66L49.38 66Q49.38 65.25 49.50 64.56Q49.63 63.88 50 63.25L50 63.25Q50.38 62.63 50.81 62.19Q51.25 61.75 51.88 61.38L51.88 61.38L51.88 61.38Q52.50 61.13 53.19 60.94Q53.88 60.75 54.63 60.75L54.63 60.75Q55.50 60.75 56.19 60.94Q56.88 61.13 57.50 61.38L57.50 61.38Q58.13 61.75 58.56 62.19Q59 62.63 59.38 63.25L59.38 63.25L59.38 63.25Q59.63 63.88 59.81 64.56Q60 65.25 60 66L60 66Q60 66.75 59.81 67.44Q59.63 68.13 59.38 68.75L59.38 68.75Q59 69.38 58.56 69.81Q58.13 70.25 57.50 70.63L57.50 70.63L57.50 70.63Q56.88 70.88 56.19 71.06Q55.50 71.25 54.63 71.25L54.63 71.25ZM54.63 68.88L54.63 68.88Q55.75 68.88 56.31 68.19Q56.88 67.50 56.88 66L56.88 66Q56.88 65.25 56.75 64.75Q56.63 64.25 56.38 63.88L56.38 63.88Q56 63.50 55.63 63.31Q55.25 63.13 54.63 63.13L54.63 63.13Q53.50 63.13 52.94 63.81Q52.38 64.50 52.38 66L52.38 66Q52.38 67.50 52.94 68.19Q53.50 68.88 54.63 68.88ZM68.63 63.38L68.63 63.38L66.88 63.50Q66.13 63.63 65.69 63.75Q65.25 63.88 65 64.25L65 64.25Q64.75 64.50 64.63 64.94Q64.50 65.38 64.50 65.88L64.50 65.88L64.50 71.13L61.38 71.13L61.38 61L64.38 61L64.38 62.75Q64.75 61.88 65.50 61.38Q66.25 60.88 67.50 60.88L67.50 60.88L68.38 60.75L68.63 63.38ZM77.50 61L77.50 61L80.63 61L74.50 74.75L71.38 74.75L73.38 70.50L69.13 61L72.38 61L74.88 67.38L77.50 61ZM87.75 60.75L87.75 60.75Q88.38 60.75 89 60.94Q89.63 61.13 90.13 61.38L90.13 61.38Q90.63 61.75 91 62.19Q91.38 62.63 91.63 63.25L91.63 63.25Q91.88 63.88 92.06 64.50Q92.25 65.13 92.25 66L92.25 66Q92.25 66.75 92.06 67.44Q91.88 68.13 91.63 68.75L91.63 68.75Q91.38 69.38 91 69.81Q90.63 70.25 90 70.63L90 70.63Q89.50 70.88 88.94 71.06Q88.38 71.25 87.75 71.25L87.75 71.25Q87.25 71.25 86.75 71.13Q86.25 71 85.88 70.75L85.88 70.75Q85.50 70.63 85.13 70.31Q84.75 70 84.63 69.63L84.63 69.63L84.63 71.13L81.50 71.13L81.50 56.63L84.63 56.63L84.63 62.38Q84.88 62 85.19 61.69Q85.50 61.38 85.88 61.25L85.88 61.25Q86.25 61 86.75 60.88Q87.25 60.75 87.75 60.75L87.75 60.75Q87.75 60.75 87.75 60.75Q87.75 60.75 87.75 60.75L87.75 60.75L87.75 60.75ZM86.88 68.88L86.88 68.88Q87.38 68.88 87.81 68.69Q88.25 68.50 88.50 68.13L88.50 68.13Q88.88 67.75 89 67.19Q89.13 66.63 89.13 66L89.13 66Q89.13 65.25 89 64.75Q88.88 64.25 88.50 63.88L88.50 63.88Q88.25 63.50 87.81 63.31Q87.38 63.13 86.88 63.13L86.88 63.13Q86.25 63.13 85.88 63.31Q85.50 63.50 85.13 63.88L85.13 63.88Q84.88 64.25 84.75 64.81Q84.63 65.38 84.63 66L84.63 66Q84.63 66.75 84.75 67.25Q84.88 67.75 85.13 68.13L85.13 68.13Q85.50 68.50 85.88 68.69Q86.25 68.88 86.88 68.88L86.88 68.88ZM98.88 71.25L98.88 71.25Q98.13 71.25 97.44 71.06Q96.75 70.88 96.13 70.63L96.13 70.63Q95.50 70.25 95.06 69.81Q94.63 69.38 94.25 68.75L94.25 68.75L94.25 68.75Q93.88 68.13 93.75 67.44Q93.63 66.75 93.63 66L93.63 66Q93.63 65.25 93.75 64.56Q93.88 63.88 94.25 63.25L94.25 63.25Q94.63 62.63 95.06 62.19Q95.50 61.75 96.13 61.38L96.13 61.38L96.13 61.38Q96.75 61.13 97.44 60.94Q98.13 60.75 98.88 60.75L98.88 60.75Q99.75 60.75 100.44 60.94Q101.13 61.13 101.75 61.38L101.75 61.38Q102.38 61.75 102.81 62.19Q103.25 62.63 103.63 63.25L103.63 63.25L103.63 63.25Q103.88 63.88 104.06 64.56Q104.25 65.25 104.25 66L104.25 66Q104.25 66.75 104.06 67.44Q103.88 68.13 103.63 68.75L103.63 68.75Q103.25 69.38 102.81 69.81Q102.38 70.25 101.75 70.63L101.75 70.63L101.75 70.63Q101.13 70.88 100.44 71.06Q99.75 71.25 98.88 71.25L98.88 71.25ZM98.88 68.88L98.88 68.88Q100 68.88 100.56 68.19Q101.13 67.50 101.13 66L101.13 66Q101.13 65.25 101 64.75Q100.88 64.25 100.63 63.88L100.63 63.88Q100.25 63.50 99.88 63.31Q99.50 63.13 98.88 63.13L98.88 63.13Q97.75 63.13 97.19 63.81Q96.63 64.50 96.63 66L96.63 66Q96.63 67.50 97.19 68.19Q97.75 68.88 98.88 68.88ZM110.50 71.25L110.50 71.25Q109.63 71.25 108.94 71.06Q108.25 70.88 107.63 70.63L107.63 70.63Q107 70.25 106.56 69.81Q106.13 69.38 105.75 68.75L105.75 68.75L105.75 68.75Q105.50 68.13 105.31 67.44Q105.13 66.75 105.13 66L105.13 66Q105.13 65.25 105.31 64.56Q105.50 63.88 105.75 63.25L105.75 63.25Q106.13 62.63 106.56 62.19Q107 61.75 107.63 61.38L107.63 61.38L107.63 61.38Q108.25 61.13 108.94 60.94Q109.63 60.75 110.50 60.75L110.50 60.75Q111.25 60.75 111.94 60.94Q112.63 61.13 113.25 61.38L113.25 61.38Q113.88 61.75 114.31 62.19Q114.75 62.63 115.13 63.25L115.13 63.25L115.13 63.25Q115.50 63.88 115.63 64.56Q115.75 65.25 115.75 66L115.75 66Q115.75 66.75 115.63 67.44Q115.50 68.13 115.13 68.75L115.13 68.75Q114.75 69.38 114.31 69.81Q113.88 70.25 113.25 70.63L113.25 70.63L113.25 70.63Q112.63 70.88 111.94 71.06Q111.25 71.25 110.50 71.25L110.50 71.25ZM110.50 68.88L110.50 68.88Q111.63 68.88 112.19 68.19Q112.75 67.50 112.75 66L112.75 66Q112.75 65.25 112.56 64.75Q112.38 64.25 112.13 63.88L112.13 63.88Q111.88 63.50 111.44 63.31Q111 63.13 110.50 63.13L110.50 63.13Q109.38 63.13 108.81 63.81Q108.25 64.50 108.25 66L108.25 66Q108.25 67.50 108.81 68.19Q109.38 68.88 110.50 68.88ZM128 71.13L128 71.13L124.25 71.13L120.38 66.63L120.38 71.13L117.25 71.13L117.25 56.63L120.38 56.63L120.38 65.38L124.13 61L127.75 61L123.50 65.88L128 71.13ZM19.13 51L19.13 51L17.75 51.13L17.88 54Q17.88 54 17.88 54Q17.88 54 17.88 54L17.88 54Q17.88 54.13 17.81 54.19Q17.75 54.25 17.63 54.25L17.63 54.25Q17.63 54.25 17.63 54.25Q17.63 54.25 17.50 54.25L17.50 54.25L17.50 54.25L16.63 53.50L15.50 54.25Q15.50 54.38 15.44 54.38Q15.38 54.38 15.38 54.38L15.38 54.38Q15.25 54.38 15.19 54.31Q15.13 54.25 15.13 54.13L15.13 54.13Q15.13 54.13 15.13 54.13Q15.13 54.13 15.13 54.13L15.13 54.13L15.13 54.13L15.25 51.25L1.25 52.13Q0.75 52.13 0.38 52.50Q0 52.88 0 53.38L0 53.38Q0 53.38 0 53.44Q0 53.50 0 53.50L0 53.50L0 53.50L0.75 74.63Q0.88 75.13 1.19 75.44Q1.50 75.75 2 75.88L2 75.88L2 75.88L19.25 76.63Q19.25 76.63 19.25 76.63Q19.25 76.63 19.25 76.63L19.25 76.63Q19.75 76.63 20.13 76.25Q20.50 75.88 20.50 75.38L20.50 75.38L20.50 52.25Q20.50 52.25 20.50 52.25Q20.50 52.25 20.50 52.25L20.50 52.25Q20.50 51.75 20.13 51.38Q19.75 51 19.25 51L19.25 51Q19.25 51 19.25 51Q19.25 51 19.13 51L19.13 51L19.13 51ZM10.63 55.38L10.63 55.38Q13.13 55.38 14.50 56.69Q15.88 58 15.88 60.50L15.88 60.50Q15.50 60.88 13.75 60.94Q12 61 12 60.63L12 60.63Q12.13 59.25 11.63 58.94Q11.13 58.63 10.75 58.63L10.75 58.63Q10.38 58.63 9.94 58.81Q9.50 59 9.50 59.88L9.50 59.88Q9.50 61.75 12.75 62.63Q16 63.50 16 67.25L16 67.25Q16 69.50 14.50 70.63Q13 71.75 10.75 71.75L10.75 71.75Q8.50 71.75 6.81 70.56Q5.13 69.38 5.38 66.25L5.38 66.25Q5.38 65.88 7.38 65.88Q9.38 65.88 9.38 66.25L9.38 66.25Q9.25 67.50 9.63 68Q10 68.50 10.75 68.50L10.75 68.50Q11.25 68.50 11.56 68.19Q11.88 67.88 11.88 67.38L11.88 67.38Q11.88 65.38 8.63 64.44Q5.38 63.50 5.38 59.88L5.38 59.88Q5.38 57.88 6.75 56.63Q8.13 55.38 10.63 55.38L10.63 55.38Z"/></svg>