<svg xmlns="http://www.w3.org/2000/svg" xmlns:xlink="http://www.w3.org/1999/xlink" width="128" height="128"><path fill="#000000" d="M107.38 2L107.38 2L100.38 2.50L101 16.88Q101 17.38 100.44 17.69Q99.88 18 99.50 17.63L99.50 17.63L94.88 13.88L89.38 18.13Q89.25 18.13 89.06 18.19Q88.88 18.25 88.75 18.25L88.75 18.25Q88.38 18.25 88.13 18Q87.88 17.75 87.88 17.38L87.88 17.38Q87.88 17.38 87.88 17.38Q87.88 17.38 87.88 17.25L87.88 17.25L87.88 17.38L88.50 3.25L19.88 7.50Q17.38 7.63 15.69 9.44Q14 11.25 14 13.75L14 13.75Q14 13.75 14 13.81Q14 13.88 14 14L14 14L14 14L17.88 116.75Q18 119.25 19.69 121Q21.38 122.75 23.88 122.88L23.88 122.88L23.88 122.88L107.50 126.63Q107.50 126.63 107.56 126.63Q107.63 126.63 107.75 126.63L107.75 126.63Q109 126.63 110.13 126.13Q111.25 125.63 112.13 124.88L112.13 124.88L112.13 124.88Q113 124 113.50 122.81Q114 121.63 114 120.38L114 120.38L114 8.25Q114 8.25 114 8.25Q114 8.25 114 8.25L114 8.25Q114 6.88 113.50 5.69Q113 4.50 112 3.75L112 3.75L112 3.75Q111.13 2.88 110.06 2.44Q109 2 107.75 2L107.75 2Q107.63 2 107.50 2Q107.38 2 107.38 2L107.38 2L107.38 2ZM65.88 23.25L65.88 23.25Q78.13 23.25 84.63 29.69Q91.13 36.13 91.13 48.50L91.13 48.50Q89.50 49.75 81 50.25Q72.50 50.75 72.50 49L72.50 49Q72.75 42 70.44 40.63Q68.13 39.25 66.38 39.25L66.38 39.25Q64.75 39.25 62.63 40.19Q60.50 41.13 60.50 44.88L60.50 44.88Q60.50 49.50 65.38 52.25L65.38 52.25Q70.38 55.13 76.31 58.44Q82.25 61.75 87.25 66.88L87.25 66.88Q92.13 72 92.13 81.38L92.13 81.38Q92.13 91.75 84.69 97.38Q77.25 103 66.38 103L66.38 103Q55.13 103 46.94 97.38Q38.75 91.75 39.88 76L39.88 76Q40.25 74.13 49.81 74.38Q59.38 74.63 59.38 76L59.38 76Q59.25 82.50 60.81 84.88Q62.38 87.25 66.13 87.25L66.13 87.25Q69 87.25 70.31 85.75Q71.63 84.25 71.63 81.50L71.63 81.50Q71.63 76.75 66.75 73.88L66.75 73.88Q61.88 70.88 56.06 67.44Q50.25 64 45.38 59L45.38 59Q40.50 54 40.50 45.38L40.50 45.38Q40.50 35.38 47.06 29.31Q53.63 23.25 65.88 23.25L65.88 23.25Z"/></svg>