<svg xmlns="http://www.w3.org/2000/svg" xmlns:xlink="http://www.w3.org/1999/xlink" width="128" height="128"><path fill="#000000" d="M2.38 53.88L2.38 53.88Q2 53.88 1.69 53.88Q1.38 53.88 1.13 54L1.13 54Q0.75 54.13 0.44 54.38Q0.13 54.63 0 55L0 55Q0 55.50 0.13 55.88Q0.25 56.25 0.38 56.63L0.38 56.63Q0.63 57 1 57.44Q1.38 57.88 1.88 58.50L1.88 58.50L1.88 58.50L2 58.50Q5.38 61.38 9.25 64.06Q13.13 66.75 17.25 69.25L17.25 69.25L17.88 69.50L19.75 70.75L17.63 64.75L21.75 63L22 60.50L6.38 55Q6.25 55 5 54.50Q3.75 54 2.38 53.88L2.38 53.88ZM2.25 55.50L2.25 55.50Q3.25 55.63 4.50 56.06Q5.75 56.50 5.75 56.50L5.75 56.50L5.75 56.50L20.25 61.50L20.25 61.88L15.50 63.88L16.75 67Q11 63.38 7.06 60.38Q3.13 57.38 3 57.38L3 57.38Q2.63 56.88 2.31 56.50Q2 56.13 1.75 55.88L1.75 55.88Q1.75 55.63 1.75 55.56Q1.75 55.50 1.63 55.50L1.63 55.50Q1.75 55.50 1.81 55.50Q1.88 55.50 2 55.50L2 55.50Q2 55.50 2.06 55.50Q2.13 55.50 2.25 55.50L2.25 55.50L2.25 55.50ZM52.38 34.13L52.38 34.13L52.25 34.13Q44.88 34.88 39.69 37.13Q34.50 39.38 30.75 43L30.75 43L30.63 43L30.25 43.38Q27 46.75 23.88 51.94Q20.75 57.13 20.63 61.63L20.63 61.63L20.63 61.75L20.63 61.88Q20.75 62.50 20.94 62.94Q21.13 63.38 21.50 63.75L21.50 63.75Q21.88 64 22.31 64.19Q22.75 64.38 23.25 64.50L23.25 64.50Q24.13 64.63 25.56 64.75Q27 64.88 29.25 65.50L29.25 65.50Q31.50 66 32.31 66.63Q33.13 67.25 34.25 68.25L34.25 68.25Q35.38 69.38 37.56 70.94Q39.75 72.50 44.38 74.75L44.38 74.75L44.50 74.88L44.63 74.88L47 75.13Q47.38 75.13 47.63 75.13Q47.88 75.13 48.13 75L48.13 75Q48.38 74.88 48.44 74.81Q48.50 74.75 48.75 74.75L48.75 74.75Q49 74.63 49.56 74.50Q50.13 74.38 51 74.25L51 74.25L51.13 74.25L51.25 74.13Q56.88 71.50 58.38 71.25Q59.88 71 64.38 71.38L64.38 71.38Q66.88 71.75 67.44 71.88Q68 72 72.75 73.88L72.75 73.88L73 74L73.38 73.88Q74.13 73.50 74.63 73.25Q75.13 73 75.50 72.75L75.50 72.75Q75.88 72.50 76.13 72.19Q76.38 71.88 76.50 71.63L76.50 71.63Q76.88 71.13 77.13 70.56Q77.38 70 78.63 68.75L78.63 68.75L78.63 68.63L78.63 68.63Q79.38 67.63 79.63 67Q79.88 66.38 80 65.63L80 65.63Q80 65 80.19 64Q80.38 63 80.88 61L80.88 61L80.88 61Q82 57 82.56 55.88Q83.13 54.75 85.38 50.38L85.38 50.38L85.38 50.38L85.50 50.25Q85.88 49.38 85.88 48.44Q85.88 47.50 85.50 46.63L85.50 46.63Q85.13 45.88 84.56 45.19Q84 44.50 83.25 43.88L83.25 43.88Q81.88 42.75 80.31 41.81Q78.75 40.88 77.63 40.13L77.63 40.13L77.63 40.13L77.63 40Q69.38 35.25 64.44 34.69Q59.50 34.13 52.38 34.13L52.38 34.13ZM52.38 35.63L52.38 35.63Q59.50 35.75 64.13 36.25Q68.75 36.75 76.75 41.38L76.75 41.38Q78 42.25 79.50 43.19Q81 44.13 82.25 45.13L82.25 45.13Q82.88 45.63 83.31 46.19Q83.75 46.75 84 47.25L84 47.25Q84.25 47.88 84.25 48.44Q84.25 49 84 49.63L84 49.63Q81.75 54 81.13 55.31Q80.50 56.63 79.38 60.63L79.38 60.63L79.38 60.63Q78.75 62.63 78.63 63.75Q78.50 64.88 78.38 65.50L78.38 65.50Q78.25 66.13 78.13 66.50Q78 66.88 77.38 67.75L77.38 67.75Q76.13 69 75.75 69.75Q75.38 70.50 75.13 70.88L75.13 70.88Q75 71 74.94 71.13Q74.88 71.25 74.63 71.50L74.63 71.50Q74.38 71.63 73.94 71.81Q73.50 72 73 72.25L73 72.25Q68.75 70.50 67.88 70.31Q67 70.13 64.50 69.75L64.50 69.75L64.50 69.75L64.50 69.75Q60 69.38 58.06 69.69Q56.13 70 50.63 72.75L50.63 72.75Q49.75 72.88 49.19 73Q48.63 73.13 48.25 73.25L48.25 73.25Q47.88 73.38 47.69 73.44Q47.50 73.50 47.50 73.50L47.50 73.50Q47.50 73.50 47.50 73.50Q47.50 73.50 47.13 73.50L47.13 73.50Q46.88 73.50 46.31 73.44Q45.75 73.38 44.88 73.25L44.88 73.25Q40.50 71.13 38.50 69.63Q36.50 68.13 35.38 67.13L35.38 67.13Q34.25 66.13 33.13 65.31Q32 64.50 29.63 63.88L29.63 63.88Q27.25 63.38 25.75 63.19Q24.25 63 23.50 62.88L23.50 62.88Q23.13 62.88 22.94 62.75Q22.75 62.63 22.63 62.63L22.63 62.63Q22.50 62.50 22.44 62.25Q22.38 62 22.25 61.63L22.25 61.63Q22.38 57.88 25.25 52.94Q28.13 48 31.13 44.75L31.13 44.75L31.50 44.50Q35 40.88 40 38.69Q45 36.50 52.38 35.63L52.38 35.63ZM87 47.13L87 47.13Q86.63 47.25 86.19 47.38Q85.75 47.50 85.50 47.63L85.50 47.63Q84.75 48.13 84.13 48.75Q83.50 49.38 83 50.25L83 50.25Q81.88 51.88 81.06 54.25Q80.25 56.63 79.38 59.38L79.38 59.38L79.38 59.38L79.38 59.50Q78.75 61.88 78 64.44Q77.25 67 76.25 68.75L76.25 68.75Q75.75 69.63 75.19 70.25Q74.63 70.88 74.13 71.13L74.13 71.13Q73.63 71.38 73.06 71.38Q72.50 71.38 71.75 70.88L71.75 70.88L71.63 70.88L65.38 68.75Q65.13 68.75 64.81 68.75Q64.50 68.75 64.25 68.75L64.25 68.75Q64 68.75 63.56 68.75Q63.13 68.75 62.38 68.63L62.38 68.63L62.38 68.63L62.38 68.63Q59.38 68.88 56.75 69.81Q54.13 70.75 51.50 71.38L51.50 71.38Q48.88 72 46 71.81Q43.13 71.63 39.63 69.75L39.63 69.75Q34.38 65.88 31.06 64.25Q27.75 62.63 21.38 61L21.38 61Q20.88 60.88 20.19 60.88Q19.50 60.88 18.75 61L18.75 61Q18 61.13 17.25 61.38Q16.50 61.63 16 62.25L16 62.25Q15.38 62.75 15.19 63.63Q15 64.50 15.38 65.50L15.38 65.50Q15.88 66.50 16.81 67.69Q17.75 68.88 19.50 70.25L19.50 70.25L19.88 70.50L20.13 70.50Q23.13 70.63 25.06 71.56Q27 72.50 28.63 73.63L28.63 73.63Q30.13 74.88 31.44 76.25Q32.75 77.63 34.50 78.38L34.50 78.38L34.50 78.38L34.63 78.38Q38.13 79.25 41.06 80.75Q44 82.25 48.50 82.38L48.50 82.38L48.63 82.38L48.88 82.38Q53.25 80.25 59.63 80.25Q66 80.25 72.38 82.13L72.38 82.13L72.50 82.13L72.63 82.13Q74.38 82.13 75.94 81.44Q77.50 80.75 78.75 79.25L78.75 79.25Q80.13 77.63 81.38 75.31Q82.63 73 84.13 69.75L84.13 69.75L84.13 69.63L84.13 69.63Q85 67 85.56 64.63Q86.13 62.25 86.75 60.25L86.75 60.25Q87.25 58.25 88 56.56Q88.75 54.88 89.88 53.88L89.88 53.88L89.75 53.88Q90.63 53.25 91.25 52.50Q91.88 51.75 92 50.75L92 50.75Q92.13 50.25 91.94 49.69Q91.75 49.13 91.38 48.75L91.38 48.75Q91 48.25 90.38 47.94Q89.75 47.63 89 47.25L89 47.25L88.88 47.25L88.88 47.25Q88.63 47.13 88.31 47.13Q88 47.13 87.75 47.13L87.75 47.13Q87.63 47.13 87.44 47.13Q87.25 47.13 87 47.13L87 47.13L87 47.13ZM87.25 48.75L87.25 48.75Q87.50 48.63 87.81 48.69Q88.13 48.75 88.50 48.75L88.50 48.75Q89.13 49 89.56 49.31Q90 49.63 90.13 49.75L90.13 49.75Q90.38 50 90.44 50.19Q90.50 50.38 90.38 50.50L90.38 50.50Q90.38 50.88 89.94 51.50Q89.50 52.13 88.75 52.63L88.75 52.63L88.75 52.63L88.75 52.75Q87.38 54 86.56 55.88Q85.75 57.75 85.13 59.88L85.13 59.88Q84.50 61.88 84 64.25Q83.50 66.63 82.63 69.13L82.63 69.13Q81.13 72.38 79.94 74.63Q78.75 76.88 77.63 78.13L77.63 78.13Q76.50 79.50 75.38 80Q74.25 80.50 72.63 80.50L72.63 80.50Q66.25 78.75 59.75 78.63Q53.25 78.50 48.38 80.75L48.38 80.75Q44.38 80.63 41.63 79.25Q38.88 77.88 35.13 76.88L35.13 76.88Q33.75 76.25 32.50 75Q31.25 73.75 29.63 72.50L29.63 72.50Q28 71.13 25.81 70.13Q23.63 69.13 20.38 68.88L20.38 68.88Q18.88 67.63 18 66.63Q17.13 65.63 16.88 65L16.88 65Q16.63 64.25 16.69 63.94Q16.75 63.63 17 63.38L17 63.38Q17.38 63.13 17.88 62.88Q18.38 62.63 19 62.63L19 62.63Q19.63 62.50 20.19 62.50Q20.75 62.50 21 62.63L21 62.63L21 62.63L21 62.63Q27.38 64.13 30.38 65.69Q33.38 67.25 38.75 71.13L38.75 71.13L38.88 71.13L38.88 71.13Q42.63 73.13 45.81 73.31Q49 73.50 51.88 72.88L51.88 72.88Q54.63 72.25 57.19 71.38Q59.75 70.50 62.38 70.25L62.38 70.25Q62.75 70.25 63 70.25Q63.25 70.25 63.63 70.25L63.63 70.25Q63.75 70.25 63.94 70.25Q64.13 70.25 64.38 70.25L64.38 70.25L64.25 70.25Q64.63 70.25 64.75 70.25Q64.88 70.25 65 70.38L65 70.38Q65.50 70.38 66.69 70.81Q67.88 71.25 71 72.38L71 72.38L70.88 72.25Q71.88 72.88 72.94 72.94Q74 73 74.88 72.50L74.88 72.50Q75.75 72.13 76.44 71.31Q77.13 70.50 77.63 69.50L77.63 69.50Q78.75 67.50 79.56 64.94Q80.38 62.38 80.88 59.88L80.88 59.88L80.88 59.88Q81.75 57 82.56 54.75Q83.38 52.50 84.25 51.13L84.25 51.13Q84.75 50.38 85.25 49.88Q85.75 49.38 86.25 49.13L86.25 49.13Q86.50 48.88 86.75 48.81Q87 48.75 87.25 48.75L87.25 48.75L87.25 48.75ZM21.25 68.63L21.25 68.63Q21.25 68.63 21.13 68.63Q21 68.63 20.88 68.63L20.88 68.63Q20.50 68.63 20 68.69Q19.50 68.75 19 68.75L19 68.75L19.13 68.75L19.25 69.63L18.63 69L16.13 71.50Q15.25 72.50 14.25 73.75Q13.25 75 12.50 76.38L12.50 76.38Q11 79.13 10.88 82.19Q10.75 85.25 12.38 89L12.38 89Q13.13 91 14.50 92.13Q15.88 93.25 17.63 94L17.63 94Q19.38 94.75 21.44 95.25Q23.50 95.75 25.63 96.38L25.63 96.38L25.88 96.50L26 96.38Q26.75 96.25 27.56 96.38Q28.38 96.50 29.25 96.50L29.25 96.50Q30.13 96.50 31.13 96.19Q32.13 95.88 33.13 94.75L33.13 94.75L33.13 94.75Q33.63 94.13 34.19 93.75Q34.75 93.38 35.25 92.75L35.25 92.75Q35.38 92.38 35.50 91.94Q35.63 91.50 35.50 91L35.50 91Q35.38 90.63 35.19 90.06Q35 89.50 34.75 88.75L34.75 88.75L34.63 88.75L34.63 88.63Q33.38 86.63 32.63 84.94Q31.88 83.25 31.75 81.88L31.75 81.88Q31.50 80.50 31.94 79.44Q32.38 78.38 33.38 77.25L33.38 77.25L33.75 76.88L33.63 76.50Q33.25 75.50 32.75 74.75Q32.25 74 31.50 73.25L31.50 73.25Q30.75 72.50 29.50 71.69Q28.25 70.88 26.50 69.75L26.50 69.75L26.38 69.75L26.38 69.75Q25.38 69.38 24.13 69.06Q22.88 68.75 21.25 68.63L21.25 68.63ZM21.25 70.25L21.25 70.25Q22.63 70.25 23.69 70.56Q24.75 70.88 25.75 71.13L25.75 71.13Q27.50 72.25 28.63 73Q29.75 73.75 30.38 74.38L30.38 74.38Q31 74.88 31.31 75.44Q31.63 76 31.88 76.63L31.88 76.63Q30.88 77.88 30.38 79.19Q29.88 80.50 30.13 82.13L30.13 82.13Q30.25 83.75 31.06 85.56Q31.88 87.38 33.25 89.38L33.25 89.38Q33.50 90.13 33.69 90.56Q33.88 91 33.88 91.25L33.88 91.25Q34 91.63 33.94 91.69Q33.88 91.75 33.88 91.88L33.88 91.88Q33.75 92.13 33.19 92.50Q32.63 92.88 31.88 93.75L31.88 93.75L31.88 93.75L31.88 93.75Q31.13 94.50 30.56 94.75Q30 95 29.25 94.88L29.25 94.88Q28.63 94.88 27.81 94.81Q27 94.75 26 94.88L26 94.88Q23.75 94.13 21.81 93.63Q19.88 93.13 18.25 92.50L18.25 92.50Q16.63 91.88 15.56 90.94Q14.50 90 13.88 88.50L13.88 88.50L13.88 88.50L13.88 88.38Q12.25 84.88 12.44 82.25Q12.63 79.63 14 77.13L14 77.13L14 77.13L14 77.13Q14.63 75.88 15.56 74.69Q16.50 73.50 17.38 72.63L17.38 72.63Q18.13 71.75 18.69 71.19Q19.25 70.63 19.63 70.38L19.63 70.38Q19.88 70.25 20.31 70.25Q20.75 70.25 21.13 70.25L21.13 70.25Q21.13 70.25 21.19 70.25Q21.25 70.25 21.25 70.25L21.25 70.25L21.25 70.25ZM39.38 78.50L39.38 78.50Q39.38 78.50 39.31 78.50Q39.25 78.50 39.25 78.50L39.25 78.50Q39 78.50 38.81 78.56Q38.63 78.63 38.50 78.75L38.50 78.75L38.50 78.75L37.50 79.13L37.88 79.50Q37.50 80 37.19 80.50Q36.88 81 36.88 81.50L36.88 81.50Q36.75 82.25 36.88 82.94Q37 83.63 37.13 84.63L37.13 84.63L37.13 84.75L37.13 84.75Q37.50 85.75 37.75 86.50Q38 87.25 38.63 87.88L38.63 87.88Q39.25 88.50 40.25 88.88Q41.25 89.25 43 89.50L43 89.50L43.13 89.50L43.38 89.38Q45.38 88.75 46.56 87.81Q47.75 86.88 48.38 85.88L48.38 85.88Q49 84.75 49.06 83.69Q49.13 82.63 49.13 81.75L49.13 81.75L49.25 80.88L48.38 80.88Q46.38 80.88 44.81 80.44Q43.25 80 42.13 79.50L42.13 79.50L40.25 78.75Q40 78.75 39.81 78.69Q39.63 78.63 39.38 78.50L39.38 78.50ZM39.38 80.13L39.38 80.13Q39.38 80.13 39.44 80.19Q39.50 80.25 39.75 80.25L39.75 80.25L41.50 81Q42.88 81.63 44.38 81.94Q45.88 82.25 47.50 82.38L47.50 82.38L47.50 82.38Q47.50 83.13 47.38 83.81Q47.25 84.50 47 85.13L47 85.13Q46.50 85.88 45.63 86.56Q44.75 87.25 43 87.88L43 87.88Q41.50 87.63 40.81 87.38Q40.13 87.13 39.75 86.75L39.75 86.75Q39.50 86.50 39.31 85.88Q39.13 85.25 38.63 84.25L38.63 84.25Q38.50 83.25 38.44 82.69Q38.38 82.13 38.38 81.75L38.38 81.75Q38.50 81.50 38.69 81.13Q38.88 80.75 39.38 80.13L39.38 80.13ZM58.88 77.75L58.88 77.75Q56.75 77.75 54.69 78.06Q52.63 78.38 51.13 79L51.13 79L51 79L51 79Q49.25 80 48.19 81.44Q47.13 82.88 46.63 84.50L46.63 84.50Q46.13 86.13 46.06 87.69Q46 89.25 46.25 90.63L46.25 90.63L46.38 91.25L46.50 91.25Q46.88 92.63 47.88 93.69Q48.88 94.75 50.50 95.63L50.50 95.63Q52.25 96.50 54.63 97.13Q57 97.75 60 98.25L60 98.25L60 98.25L60.13 98.25Q62.25 98.13 64.25 98.38Q66.25 98.63 68.13 98.50L68.13 98.50Q70.13 98.38 72 97.56Q73.88 96.75 75.38 94.50L75.38 94.50L75.50 94.38L75.50 94.13Q75.75 92.50 75.69 90.56Q75.63 88.63 75.13 86.75L75.13 86.75Q74.75 84.88 73.88 83.19Q73 81.50 71.75 80.38L71.75 80.38Q70.13 79.13 67.50 78.50Q64.88 77.88 61.88 77.75L61.88 77.75Q61.50 77.75 61 77.75Q60.50 77.75 60 77.75L60 77.75Q59.75 77.75 59.44 77.75Q59.13 77.75 58.88 77.75L58.88 77.75L58.88 77.75ZM59 79.25L59 79.25Q59.25 79.25 59.50 79.25Q59.75 79.25 60.13 79.25L60.13 79.25Q60.50 79.25 61 79.25Q61.50 79.25 61.88 79.38L61.88 79.38L61.88 79.38Q64.75 79.50 67.19 80.13Q69.63 80.75 70.63 81.63L70.63 81.63L70.63 81.63Q71.75 82.50 72.50 83.94Q73.25 85.38 73.63 87.13L73.63 87.13Q74 88.75 74.06 90.50Q74.13 92.25 73.88 93.75L73.88 93.75Q72.63 95.63 71.19 96.25Q69.75 96.88 68.13 96.88L68.13 96.88Q66.38 97 64.38 96.75Q62.38 96.50 60.13 96.63L60.13 96.63Q57.38 96.13 55.06 95.56Q52.75 95 51.13 94.13L51.13 94.13Q49.63 93.38 48.81 92.44Q48 91.50 47.88 90.38L47.88 90.38L47.88 89.88Q47.63 88.75 47.69 87.50Q47.75 86.25 48.13 85L48.13 85Q48.50 83.63 49.38 82.44Q50.25 81.25 51.75 80.50L51.75 80.50Q53 80 54.94 79.69Q56.88 79.38 59 79.25L59 79.25ZM84.38 68.75L84.13 68.75L84 68.88Q83.25 69.13 82.63 69.75Q82 70.38 81.50 71.25L81.50 71.25Q81 72 80.63 72.88Q80.25 73.75 79.88 74.63L79.88 74.63L78.25 77.88Q77.88 78.50 77.44 78.94Q77 79.38 76.63 79.38L76.63 79.38L76.75 80.25L76.13 80.13Q75.88 82.13 76.19 84.38Q76.50 86.63 77.50 88.63L77.50 88.63Q78.38 90.75 80.13 92.13Q81.88 93.50 84.25 93.50L84.25 93.50Q87.63 93.88 89.94 93.50Q92.25 93.13 93.88 92.25L93.88 92.25Q95.38 91.38 96.38 90.19Q97.38 89 98.13 87.75L98.13 87.75L98.25 87.75L98.25 87.63Q99 85.13 98.19 82.69Q97.38 80.25 95.88 78.13L95.88 78.13Q94.50 75.88 92.63 74Q90.75 72.13 89 70.63L89 70.63L89 70.63Q88.38 70 87.88 69.63Q87.38 69.25 86.88 69.13L86.88 69.13Q86.25 68.88 85.69 68.81Q85.13 68.75 84.38 68.75L84.38 68.75ZM84.50 70.38L84.50 70.38Q85.13 70.38 85.56 70.44Q86 70.50 86.25 70.63L86.25 70.63Q86.63 70.63 87 70.88Q87.38 71.13 88 71.75L88 71.75Q89.63 73.25 91.44 75.06Q93.25 76.88 94.63 79L94.63 79Q96 81 96.63 83.06Q97.25 85.13 96.75 87L96.75 87Q96 88.13 95.19 89.13Q94.38 90.13 93.13 90.88L93.13 90.88Q91.75 91.63 89.69 91.94Q87.63 92.25 84.38 92L84.38 92L84.38 92L84.25 92Q82.38 91.88 81.06 90.81Q79.75 89.75 78.88 88L78.88 88Q78.13 86.38 77.81 84.38Q77.50 82.38 77.63 80.75L77.63 80.75Q78.25 80.38 78.75 79.88Q79.25 79.38 79.63 78.75L79.63 78.75Q80.13 78 80.50 77.13Q80.88 76.25 81.38 75.25L81.38 75.25Q81.75 74.38 82.13 73.56Q82.50 72.75 82.88 72L82.88 72Q83.25 71.38 83.69 70.94Q84.13 70.50 84.50 70.38L84.50 70.38ZM93.63 75.38L93.38 75L92.88 75.13Q91.13 75.63 88.81 77.19Q86.50 78.75 84.50 81L84.50 81Q82.75 83.38 81.94 86.38Q81.13 89.38 82.75 92.50L82.75 92.50L82.75 92.88L83.25 93.13Q85.88 93.88 87.69 94Q89.50 94.13 91 93.63L91 93.63Q92.50 93 93.81 92.06Q95.13 91.13 96.75 89.88L96.75 89.88L96.88 89.88L96.88 89.88Q98.25 88.50 98.50 86.56Q98.75 84.63 98.25 82.63L98.25 82.63Q97.75 80.63 96.56 78.69Q95.38 76.75 93.63 75.38L93.63 75.38ZM92.88 76.88L92.88 76.88Q94.25 78.13 95.25 79.75Q96.25 81.38 96.75 83L96.75 83Q97.13 84.75 96.94 86.25Q96.75 87.75 95.75 88.63L95.75 88.63Q94.13 89.88 92.88 90.75Q91.63 91.63 90.50 92.13L90.50 92.13Q89.38 92.50 87.88 92.44Q86.38 92.38 84.13 91.63L84.13 91.63Q82.75 89 83.44 86.56Q84.13 84.13 85.75 82L85.75 82Q87.38 80 89.44 78.69Q91.50 77.38 92.88 76.88L92.88 76.88ZM107.13 32.13L107.13 32.13Q107 32.13 106.94 32.13Q106.88 32.13 106.88 32.13L106.88 32.13Q106.75 32.13 106.63 32.13Q106.50 32.13 106.38 32.13L106.38 32.13L106.50 32.13Q106.13 32.13 105.75 32.31Q105.38 32.50 105.13 32.75L105.13 32.75L105 32.75L105 32.75Q103.88 33.88 103.19 34.63Q102.50 35.38 102.13 36.63L102.13 36.63Q101.63 37.88 101.31 39.69Q101 41.50 100.38 44.75L100.38 44.75Q99.88 46.38 99 47.75Q98.13 49.13 96.88 50.13L96.88 50.13Q95.63 51.13 94 51.56Q92.38 52 90.13 51.75L90.13 51.75L89.88 51.75L89.63 51.88Q87.50 53.38 86.44 55.38Q85.38 57.38 84.88 59.63L84.88 59.63Q84.38 61.75 84 64.13Q83.63 66.50 82.88 68.75L82.88 68.75L82.63 69.63L83.38 69.88Q87.13 71.13 89.75 71.13Q92.38 71.13 94.13 70.50L94.13 70.50Q95.88 69.88 97 68.88Q98.13 67.88 99 67.25L99 67.25L99 67.25L99 67.13Q100 66.25 100.63 65.31Q101.25 64.38 102 63.63L102 63.63Q102.75 62.88 103.81 62.31Q104.88 61.75 106.63 61.63L106.63 61.63Q109.50 61.63 111.50 61.44Q113.50 61.25 114.88 60.88L114.88 60.88Q116 60.50 116.81 59.75Q117.63 59 118.13 58L118.13 58Q119.50 57.63 120.56 57.56Q121.63 57.50 122.75 57.38L122.75 57.38Q123.50 57.25 124.06 56.94Q124.63 56.63 125.13 56.13L125.13 56.13L125.13 56.13Q125.63 55.75 126.25 55Q126.88 54.25 127.50 53.13L127.50 53.13Q127.88 52.50 127.94 51.69Q128 50.88 127.63 50.13L127.63 50.13Q127.25 49.25 126.44 48.38Q125.63 47.50 124.38 46.38L124.38 46.38L124.38 46.50Q123.75 45.63 122.69 45.38Q121.63 45.13 120.63 45L120.63 45Q120.13 44.88 119.69 44.81Q119.25 44.75 119 44.63L119 44.63Q118.63 44.50 118.50 44.44Q118.38 44.38 118.38 44.38L118.38 44.38L118 43.75L117.25 44.13Q116.13 44.88 115.13 45.31Q114.13 45.75 113.50 45.88L113.50 45.88Q112.75 45.88 112.31 45.81Q111.88 45.75 111.50 45.38L111.50 45.38Q110.88 44.88 110.44 43.56Q110 42.25 109.75 40.63L109.75 40.63Q109.63 39 109.50 37.38Q109.38 35.75 109 34.38L109 34.38Q108.88 33.75 108.63 33.19Q108.38 32.63 107.75 32.38L107.75 32.38Q107.63 32.25 107.44 32.19Q107.25 32.13 107.13 32.13L107.13 32.13L107.13 32.13ZM106.75 33.75L106.75 33.75Q106.88 33.63 106.88 33.69Q106.88 33.75 107 33.75L107 33.75Q107 33.75 107.19 34Q107.38 34.25 107.50 34.75L107.50 34.75Q107.75 35.88 107.88 37.50Q108 39.13 108.25 40.88L108.25 40.88Q108.38 42.50 108.88 44.13Q109.38 45.75 110.50 46.63L110.50 46.63Q111.13 47.13 111.94 47.31Q112.75 47.50 113.75 47.38L113.75 47.38Q114.50 47.25 115.50 46.81Q116.50 46.38 117.63 45.75L117.63 45.75Q117.88 45.88 118.06 46Q118.25 46.13 118.50 46.13L118.50 46.13L118.50 46.13Q119 46.25 119.44 46.38Q119.88 46.50 120.38 46.50L120.38 46.50Q121.38 46.63 122.13 46.88Q122.88 47.13 123.25 47.50L123.25 47.50L123.25 47.50L123.25 47.63Q124.50 48.75 125.25 49.50Q126 50.25 126.25 50.75L126.25 50.75Q126.50 51.38 126.44 51.63Q126.38 51.88 126.13 52.25L126.13 52.25L126.13 52.25L126.13 52.25Q125.50 53.25 125 53.94Q124.50 54.63 124 55L124 55Q123.63 55.38 123.25 55.56Q122.88 55.75 122.50 55.75L122.50 55.75Q121.63 56 120.38 56Q119.13 56 117.25 56.63L117.25 56.63L116.88 56.75L116.75 57.13Q116.50 58 116 58.50Q115.50 59 114.38 59.25L114.38 59.25Q113.25 59.63 111.31 59.81Q109.38 60 106.50 60L106.50 60L106.50 60L106.50 60Q104.38 60.25 103.06 60.94Q101.75 61.63 100.88 62.50L100.88 62.50Q100 63.50 99.38 64.44Q98.75 65.38 98 66L98 66Q97 66.75 96 67.63Q95 68.50 93.63 69L93.63 69Q92.13 69.50 90 69.50Q87.88 69.50 84.63 68.50L84.63 68.50Q85.38 66.25 85.69 64.06Q86 61.88 86.50 60L86.50 60Q86.88 58 87.75 56.31Q88.63 54.63 90.38 53.38L90.38 53.38Q92.75 53.50 94.63 53Q96.50 52.50 97.88 51.38L97.88 51.38Q99.38 50.25 100.38 48.69Q101.38 47.13 102 45.25L102 45.25L102 45.13L102 45.13Q102.50 41.75 102.88 39.94Q103.25 38.13 103.63 37.13L103.63 37.13Q104 36.25 104.50 35.63Q105 35 106 34L106 34Q106.25 33.88 106.44 33.81Q106.63 33.75 106.75 33.75ZM109 50.88L109 50.88L107.63 51.63Q109.13 54.25 111.56 55.94Q114 57.63 118.25 57.75L118.25 57.75L118.38 56.13Q114.25 56 112.31 54.63Q110.38 53.25 109 50.88L109 50.88ZM119.75 28L119.75 28Q118.50 28 117.38 28.69Q116.25 29.38 115.50 30.50L115.50 30.50Q115.88 30.75 116.13 31Q116.38 31.25 116.63 31.63L116.63 31.63L116.63 31.63Q117.38 30.63 118.13 30.13Q118.88 29.63 119.75 29.63L119.75 29.63Q120.63 29.63 121.44 30.13Q122.25 30.63 122.88 31.75L122.88 31.75Q123.50 32.75 123.94 34.19Q124.38 35.63 124.38 37.38L124.38 37.38Q124.38 39 123.94 40.44Q123.50 41.88 122.88 43L122.88 43Q122.25 44 121.44 44.56Q120.63 45.13 119.75 45.13L119.75 45.13Q119.13 45.13 118.56 44.88Q118 44.63 117.50 44.13L117.50 44.13Q117.25 44.50 117.06 44.81Q116.88 45.13 116.50 45.38L116.50 45.38L116.63 45.38Q117.25 46 118.06 46.38Q118.88 46.75 119.75 46.75L119.75 46.75Q121.13 46.75 122.25 45.94Q123.38 45.13 124.25 43.88L124.25 43.88Q125 42.50 125.50 40.88Q126 39.25 126 37.38L126 37.38Q126 35.50 125.50 33.81Q125 32.13 124.25 30.88L124.25 30.88Q123.38 29.63 122.25 28.81Q121.13 28 119.75 28L119.75 28L119.75 28ZM113.38 29.13L113.38 29.13Q112 29.13 110.88 29.94Q109.75 30.75 108.88 32L108.88 32Q108.13 33.25 107.69 34.94Q107.25 36.63 107.25 38.50L107.25 38.50Q107.25 40.25 107.69 41.94Q108.13 43.63 108.88 44.88L108.88 44.88Q109.75 46.13 110.88 46.94Q112 47.75 113.38 47.75L113.38 47.75Q114.75 47.75 115.94 47Q117.13 46.25 117.88 44.88L117.88 44.88Q118.75 43.63 119.19 42Q119.63 40.38 119.63 38.50L119.63 38.50Q119.63 36.63 119.19 34.94Q118.75 33.25 117.88 32L117.88 32Q117.13 30.75 115.94 29.94Q114.75 29.13 113.38 29.13L113.38 29.13ZM113.38 30.75L113.38 30.75Q114.25 30.75 115.06 31.25Q115.88 31.75 116.63 32.88L116.63 32.88Q117.25 33.88 117.63 35.31Q118 36.75 118 38.50L118 38.50Q118 40.13 117.63 41.56Q117.25 43 116.63 44.13L116.63 44.13Q115.88 45.13 115.06 45.69Q114.25 46.25 113.38 46.25L113.38 46.25Q112.63 46.25 111.81 45.69Q111 45.13 110.25 44.13L110.25 44.13Q109.63 43 109.25 41.56Q108.88 40.13 108.88 38.50L108.88 38.50Q108.88 36.75 109.25 35.31Q109.63 33.88 110.25 32.88L110.25 32.88Q111 31.75 111.81 31.25Q112.63 30.75 113.38 30.75ZM60.63 49L60.63 62.63L58.25 62.63L58.25 49L60.63 49ZM60.75 44.38L60.75 46.75L58.13 46.75L58.13 44.38L60.75 44.38ZM54.25 61.25L54.25 61.25Q53.50 61.63 52.69 61.88Q51.88 62.13 50.88 62.38L50.88 62.38Q50.13 62.63 49.25 62.75Q48.38 62.88 47.50 62.88L47.50 62.88L47.50 62.88Q46.50 62.88 45.50 62.75Q44.50 62.63 43.63 62.38L43.63 62.38Q42.75 62 42 61.56Q41.25 61.13 40.63 60.63L40.63 60.63Q40 60 39.50 59.25Q39 58.50 38.63 57.63L38.63 57.63Q38.25 56.75 38.13 55.69Q38 54.63 38 53.50L38 53.50Q38 51.38 38.63 49.63Q39.25 47.88 40.50 46.63L40.50 46.63Q41.75 45.38 43.50 44.75Q45.25 44.13 47.50 44.13L47.50 44.13Q48.25 44.13 49.06 44.19Q49.88 44.25 50.63 44.50L50.63 44.50Q51.50 44.63 52.38 44.94Q53.25 45.25 54.25 45.75L54.25 45.75L54.25 48.63L54 48.63L52.88 47.88Q52.63 47.63 52.25 47.44Q51.88 47.25 51.50 47.13L51.50 47.13L51.50 47Q51 46.88 50.56 46.69Q50.13 46.50 49.63 46.50L49.63 46.50L49.50 46.38Q49 46.25 48.38 46.19Q47.75 46.13 47.13 46.13L47.13 46.13Q45.63 46.13 44.38 46.63Q43.13 47.13 42.25 48.13L42.25 48.13Q41.38 49.13 40.94 50.44Q40.50 51.75 40.50 53.38L40.50 53.38Q40.50 55.13 40.94 56.50Q41.38 57.88 42.38 58.88L42.38 58.88Q43.25 59.88 44.50 60.38Q45.75 60.88 47.38 60.88L47.38 60.88Q47.38 60.88 47.38 60.88Q47.38 60.88 47.38 60.88L47.38 60.88Q48 60.88 48.63 60.81Q49.25 60.75 49.88 60.63L49.88 60.63L49.75 60.63Q50.38 60.50 50.88 60.38Q51.38 60.25 51.88 60L51.88 60L51.75 60L51.75 55.63L46.88 55.63L46.88 53.50L54.25 53.50L54.25 61.25ZM72.25 60.38L72.25 62.50Q71.88 62.50 71.50 62.56Q71.13 62.63 70.75 62.75L70.75 62.75Q70.50 62.75 70.13 62.81Q69.75 62.88 69.50 62.88L69.50 62.88L69.50 62.88Q68.38 62.88 67.56 62.56Q66.75 62.25 66.25 61.75L66.25 61.75Q65.75 61.13 65.44 60.25Q65.13 59.38 65.13 58.13L65.13 58.13L65.13 50.88L63.63 50.88L63.63 49L65.13 49L65.13 45.13L67.50 45.13L67.50 49L72.25 49L72.25 50.88L67.50 50.88L67.50 57.13L67.50 58.75Q67.50 59.13 67.63 59.38Q67.75 59.63 67.88 59.88L67.88 59.88L67.88 59.88Q68 60.13 68.19 60.31Q68.38 60.50 68.63 60.63L68.63 60.63L68.63 60.63Q68.88 60.75 69.19 60.81Q69.50 60.88 70 60.88L70 60.88Q70.38 60.88 70.63 60.81Q70.88 60.75 71.25 60.63L71.25 60.63L72.13 60.38L72.25 60.38Z"/></svg>