<svg xmlns="http://www.w3.org/2000/svg" xmlns:xlink="http://www.w3.org/1999/xlink" width="128" height="128"><path fill="#ffffff" d="M16.63 64.25L18.25 68.88Q11.75 65.13 7.13 61.50Q2.50 57.88 2.50 57.88L2.50 57.88Q-1.50 53.63 2.25 54.69Q6 55.75 6 55.75L6 55.75L21.13 61L21 62.38L16.63 64.25ZM30.88 43.88L30.88 43.88Q34.50 40.13 39.69 37.88Q44.88 35.63 52.38 34.88L52.38 34.88Q59.50 34.88 64.25 35.44Q69 36 77.25 40.75L77.25 40.75Q79.38 42.38 82.75 44.50Q86.13 46.63 84.75 50L84.75 50Q82.50 54.38 81.88 55.56Q81.25 56.75 80.13 60.88L80.13 60.88Q79 64.88 79.19 65.56Q79.38 66.25 78 68.13L78 68.13Q75.63 70.75 75.88 71.25Q76.13 71.75 73 73.13L73 73.13Q68.25 71.25 67.63 71.06Q67 70.88 64.38 70.50L64.38 70.50Q59.88 70.25 58.19 70.50Q56.50 70.75 50.88 73.50L50.88 73.50Q47.13 74 47.81 74.25Q48.50 74.50 44.63 74L44.63 74Q35.50 69.63 34.81 67.69Q34.13 65.75 29.50 64.75L29.50 64.75Q24.75 63.63 23.31 63.69Q21.88 63.75 21.50 61.75L21.50 61.75Q21.63 57.50 24.69 52.38Q27.75 47.25 30.88 43.88L30.88 43.88ZM20 69.63L20 69.63Q26.38 69.88 29.06 73.06Q31.75 76.25 34.75 77.63L34.75 77.63Q38.50 78.50 41.38 80Q44.25 81.50 48.50 81.63L48.50 81.63Q53.13 79.38 59.63 79.44Q66.13 79.50 72.63 81.25L72.63 81.25Q76 81.38 78.19 78.69Q80.38 76 83.38 69.38L83.38 69.38Q85 64.38 85.88 60.06Q86.75 55.75 89.25 53.25L89.25 53.25Q90.75 52.13 91.19 50.63Q91.63 49.13 88.75 48L88.75 48Q85.38 47.38 83.63 50.69Q81.88 54 80.13 59.63L80.13 59.63Q79 64.63 76.94 69.13Q74.88 73.63 71.25 71.63L71.25 71.63Q65 69.50 65.19 69.56Q65.38 69.63 62.38 69.50L62.38 69.50Q56.88 69.88 51.69 72.13Q46.50 74.38 39.25 70.50L39.25 70.50Q33.88 66.50 30.69 64.94Q27.50 63.38 21.13 61.88L21.13 61.88Q19.75 61.50 16.50 62.81Q13.25 64.13 20 69.63L20 69.63ZM19.25 69.63L19.25 69.63Q18.75 70 16.69 72.06Q14.63 74.13 13.25 76.75L13.25 76.75Q11.88 79.38 11.69 82.25Q11.50 85.13 13.13 88.75L13.13 88.75Q14.50 92.25 17.94 93.31Q21.38 94.38 25.88 95.63L25.88 95.63Q27.75 95.38 29.25 95.75Q30.75 96.13 32.50 94.25L32.50 94.25Q33.88 92.75 34.56 92.31Q35.25 91.88 34 89.13L34 89.13Q31.38 84.88 30.94 82Q30.50 79.13 32.88 76.75L32.88 76.75Q32.13 75 30.94 73.81Q29.75 72.63 26 70.50L26 70.50Q24.75 70 23.06 69.63Q21.38 69.25 19.25 69.63L19.25 69.63ZM47.13 90.50L47.13 90.50Q47.38 93.25 50.81 94.88Q54.25 96.50 60.13 97.38L60.13 97.38Q64.50 97.13 68.19 97.69Q71.88 98.25 74.63 94L74.63 94Q75.25 90.88 74.44 86.94Q73.63 83 71.13 81L71.13 81Q68.63 78.75 61.88 78.50Q55.13 78.25 51.38 79.75L51.38 79.75Q48.13 81.50 47.38 84.75Q46.63 88 47.13 90.50L47.13 90.50ZM76.75 80.25L76.88 80.25Q76.38 84 78.13 88.38Q79.88 92.75 84.25 92.75L84.25 92.75Q91 93.38 93.50 91.56Q96 89.75 97.50 87.38L97.50 87.38Q98.75 82.88 95.25 78.50Q91.75 74.13 88.50 71.13L88.50 71.13Q87.13 70 86.50 69.81Q85.88 69.63 84.25 69.63L84.25 69.63Q81.75 70.50 80.56 75Q79.38 79.50 76.75 80.25L76.75 80.25ZM83.50 92.38L83.50 92.38Q88.63 94 90.75 92.88Q92.88 91.75 96.38 89.25L96.38 89.25Q98.63 87 97.50 82.81Q96.38 78.63 93.13 75.88L93.13 75.88Q90 76.75 85.19 81.56Q80.38 86.38 83.50 92.38L83.50 92.38ZM101.25 45L101.25 45Q102.38 38.38 102.88 36.88Q103.38 35.38 105.50 33.38L105.50 33.38Q108 31.75 108.25 34.63L108.25 34.63Q108.63 37.38 109 40.75Q109.38 44.13 111 46L111 46Q112.63 48 117.75 44.75L117.75 44.75Q118.25 45.63 120.56 45.75Q122.88 45.88 123.88 47L123.88 47Q126.38 49.25 126.94 50.44Q127.50 51.63 126.88 52.63L126.88 52.63Q124.25 57 122.56 56.56Q120.88 56.13 117.50 57.38L117.50 57.38Q116.75 59.38 114.56 60.06Q112.38 60.75 106.50 60.88L106.50 60.88Q102.75 61.13 101.44 63.06Q100.13 65 98.50 66.63L98.50 66.63Q96.63 68 93.81 69.75Q91 71.50 83.63 69.13L83.63 69.13Q85.38 64.13 85.69 59.75Q86 55.38 90.13 52.63L90.13 52.63Q94.75 53 97.38 50.75Q100 48.50 101.25 45L101.25 45ZM125.13 37.38L125.13 37.38Q125.13 33.75 123.56 31.25Q122 28.75 119.75 28.75L119.75 28.75Q117.50 28.75 115.94 31.25Q114.38 33.75 114.38 37.38L114.38 37.38Q114.38 40.88 115.94 43.38Q117.50 45.88 119.75 45.88L119.75 45.88Q122 45.88 123.56 43.38Q125.13 40.88 125.13 37.38ZM118.88 38.50L118.88 38.50Q118.88 34.88 117.25 32.38Q115.63 29.88 113.38 29.88L113.38 29.88Q111.25 29.88 109.63 32.38Q108 34.88 108 38.50L108 38.50Q108 42 109.63 44.50Q111.25 47 113.38 47L113.38 47Q115.63 47 117.25 44.50Q118.88 42 118.88 38.50ZM46.25 80.50L46.25 80.50Q45 80.25 43.69 79.81Q42.38 79.38 40 78.50L40 78.50L36.13 77.13Q35 76.75 34.19 76.19Q33.38 75.63 32.88 74.88L32.88 74.88Q32.38 74 31.50 73.13Q30.63 72.25 29.13 71.38L29.13 71.38Q27 69.88 25.44 69.31Q23.88 68.75 21.63 68.63L21.63 68.63L20 68.50L18.75 67.25Q17.63 66 17.13 65.13Q16.63 64.25 16.88 63.75L16.88 63.75Q17.13 63.38 17.81 63.06Q18.50 62.75 19.38 62.63L19.38 62.63Q20 62.63 20.63 62.69Q21.25 62.75 22.75 63.13L22.75 63.13Q27.25 64.25 30.31 65.81Q33.38 67.38 37.75 70.50L37.75 70.50Q39.63 71.88 41.88 72.56Q44.13 73.25 46.63 73.38L46.63 73.38Q48.75 73.50 50.44 73.25Q52.13 73 55.50 72L55.50 72L57.50 71.38Q59.63 70.75 60.63 70.56Q61.63 70.38 62.88 70.38L62.88 70.38L64.50 70.25L68 71.38L72 72.75Q72.50 73 73.44 72.94Q74.38 72.88 74.88 72.63L74.88 72.63Q76.63 71.75 78 69.06Q79.38 66.38 80.50 61.63L80.50 61.63Q81.13 59.38 81.88 57.13Q82.63 54.88 83.25 53.25L83.25 53.25Q84.63 50.13 86.19 49.19Q87.75 48.25 89.50 49.50L89.50 49.50Q90.13 49.75 90.25 50.13Q90.38 50.50 90.13 51L90.13 51Q90.13 51.13 89.63 51.69Q89.13 52.25 88.50 52.75L88.50 52.75Q87.50 53.75 87.06 54.31Q86.63 54.88 86.25 55.63L86.25 55.63Q85.63 56.75 85.25 58.06Q84.88 59.38 84.50 61.25L84.50 61.25Q83.88 64.38 83.19 66.88Q82.50 69.38 81.88 70.38L81.88 70.38Q81.63 70.75 81.13 71.75Q80.63 72.75 80.13 73.75L80.13 73.75Q79.25 75.63 78.25 77.06Q77.25 78.50 76.50 79.13L76.50 79.13Q75 80.25 73.56 80.38Q72.13 80.50 70.63 79.63L70.63 79.63Q68 78 62 77.69Q56 77.38 51.75 78.63L51.75 78.63Q51.25 78.88 50.69 79.13Q50.13 79.38 49.63 79.88L49.63 79.88Q48.63 80.63 48.19 80.69Q47.75 80.75 46.25 80.50L46.25 80.50ZM55 95.50L55 95.50Q52 94.63 50.25 93.50Q48.50 92.38 48.13 91L48.13 91Q48 90.75 47.94 90.06Q47.88 89.38 47.88 88.75L47.88 88.75Q47.75 86.50 48.31 84.81Q48.88 83.13 50.13 81.88L50.13 81.88Q51 81 51.75 80.63Q52.50 80.25 54 79.88L54 79.88Q57.88 79.13 62.50 79.50Q67.13 79.88 69.63 81.13L69.63 81.13Q70.38 81.50 71.31 82.44Q72.25 83.38 72.25 83.75L72.25 83.75Q72.25 83.75 71.94 83.81Q71.63 83.88 71.13 83.88L71.13 83.88Q69.25 84.13 67 84.94Q64.75 85.75 63.25 86.75L63.25 86.75Q61.63 88 60 90.06Q58.38 92.13 57.38 94.38L57.38 94.38Q57.13 95 56.88 95.44Q56.63 95.88 56.50 95.88L56.50 95.88Q56.50 95.88 56.06 95.75Q55.63 95.63 55 95.50L55 95.50ZM60.88 96.50L60.88 96.50Q60 96.50 59.44 96.38Q58.88 96.25 58.75 96.25L58.75 96.25Q58.63 96.13 58.75 95.81Q58.88 95.50 59.25 94.63L59.25 94.63Q60.75 91.63 62.75 89.63Q64.75 87.63 67.25 86.63L67.25 86.63Q68.38 86.25 69.81 85.94Q71.25 85.63 72 85.63L72 85.63L72.75 85.63L73.13 86.38Q73.75 88 73.88 89.94Q74 91.88 73.63 93.25L73.63 93.25Q73.25 94.25 72.63 95Q72 95.75 71 96.13L71 96.13Q70.50 96.50 69.81 96.50Q69.13 96.50 66.50 96.63L66.50 96.63Q65 96.63 63.38 96.56Q61.75 96.50 60.88 96.50L60.88 96.50ZM87 92.25L87 92.25Q86.13 92.13 85.25 91.88Q84.38 91.63 84.25 91.50L84.25 91.50Q84 91.38 83.69 90.25Q83.38 89.13 83.38 88.25L83.38 88.25Q83.38 86.88 83.88 85.50Q84.38 84.13 85.50 82.63L85.50 82.63Q86.13 81.88 86.94 81.06Q87.75 80.25 88.63 79.50L88.63 79.50Q89.38 78.88 90.13 78.38Q90.88 77.88 91.63 77.50L91.63 77.50L92.88 76.88L93.63 77.63Q95.25 79.50 96.19 81.81Q97.13 84.13 96.88 85.88L96.88 85.88Q96.75 86.38 96.63 86.81Q96.50 87.25 96.38 87.63L96.38 87.63L96.38 87.63Q96.13 88.13 95.75 88.50Q95.38 88.88 94 89.75L94 89.75Q92 91.25 90.88 91.75Q89.75 92.25 88.63 92.25L88.63 92.25Q88.13 92.38 87.63 92.31Q87.13 92.25 87 92.25L87 92.25ZM81.25 90.88L81.25 90.88Q79.75 89.75 78.81 87.56Q77.88 85.38 77.75 82.63L77.75 82.63L77.63 80.75L78.25 80.38Q78.88 80 79.69 78.75Q80.50 77.50 81.38 75.50L81.38 75.50Q82.25 73.38 82.75 72.44Q83.25 71.50 83.88 71L83.88 71Q84.25 70.63 84.44 70.56Q84.63 70.50 85.25 70.50L85.25 70.50Q85.63 70.63 86.06 70.69Q86.50 70.75 86.63 70.88L86.63 70.88Q86.88 71 87.69 71.69Q88.50 72.38 89.38 73.25L89.38 73.25L91.63 75.50L90.75 75.88Q87.50 77.50 85.13 80.25Q82.75 83 82 85.88L82 85.88Q81.75 86.88 81.69 88.13Q81.63 89.38 81.88 90.38L81.88 90.38Q82 90.75 82 91Q82 91.25 82 91.25L82 91.25Q81.88 91.25 81.69 91.13Q81.50 91 81.25 90.88L81.25 90.88ZM88.25 69.25L88.25 69.25Q85.38 68.63 85 68.44Q84.63 68.25 85 67.50L85 67.50Q85 67.38 85.31 66.13Q85.63 64.88 85.88 63.25L85.88 63.25Q86.75 59 87.38 57.38Q88 55.75 89.25 54.50L89.25 54.50L90.25 53.50L92.13 53.38Q95.25 53.25 97.50 51.75Q99.75 50.25 101.25 47.25L101.25 47.25Q101.75 46.13 101.94 45.44Q102.13 44.75 102.50 42.50L102.50 42.50Q103.25 38.50 103.69 37.25Q104.13 36 105.38 34.75L105.38 34.75Q106.25 34 106.63 33.94Q107 33.88 107.25 34.38L107.25 34.38Q107.50 34.75 107.50 35.06Q107.50 35.38 107.38 36.13L107.38 36.13Q107.13 37.25 107.25 39.13Q107.38 41 107.63 42L107.63 42Q108.75 46 111.44 47.38Q114.13 48.75 116.75 46.50L116.75 46.50L117.25 46L117.88 46.38Q118.25 46.63 118.69 46.69Q119.13 46.75 120 46.75L120 46.75Q121.63 46.75 122.38 47.13Q123.13 47.50 124.50 48.88L124.50 48.88Q125.13 49.50 125.63 50.13Q126.13 50.75 126.25 51L126.25 51Q126.38 51.38 126.31 51.63Q126.25 51.88 125.75 52.75L125.75 52.75Q125 53.75 124.19 54.63Q123.38 55.50 122.75 55.63L122.75 55.63Q122.50 55.63 121.88 55.75Q121.25 55.88 120.63 55.88L120.63 55.88Q120.13 55.88 119.31 56Q118.50 56.13 118 56.25L118 56.25Q117.13 56.50 116.94 56.63Q116.75 56.75 116.63 57.25L116.63 57.25Q116.13 58.63 114.44 59.19Q112.75 59.75 108.50 59.88L108.50 59.88Q104.75 60.13 103.13 60.88Q101.50 61.63 99.50 64L99.50 64Q97.88 66 96.13 67.38Q94.38 68.75 92.75 69.13L92.75 69.13Q92.13 69.25 90.50 69.31Q88.88 69.38 88.25 69.25L88.25 69.25ZM41.75 87.50L41.75 87.50Q40.63 87.25 40.19 86.94Q39.75 86.63 39.25 85.50L39.25 85.50Q38.63 83.88 38.56 82.63Q38.50 81.38 39.13 80.63L39.13 80.63L39.38 80.25L41 80.88Q42.25 81.38 43.75 81.81Q45.25 82.25 46.38 82.38L46.38 82.38Q46.75 82.38 47 82.50Q47.25 82.63 47.25 82.63L47.25 82.63Q46.75 83.63 46.56 84.31Q46.38 85 46.25 85.38L46.25 85.38Q46.13 86 45.69 86.38Q45.25 86.75 44.25 87.25L44.25 87.25Q43.38 87.63 43 87.69Q42.63 87.75 41.75 87.50L41.75 87.50ZM15.63 90.75L15.63 90.75Q14.38 89.88 13.38 86.81Q12.38 83.75 12.50 81.88L12.50 81.88Q12.75 79.50 14.13 77.06Q15.50 74.63 18.13 72L18.13 72L19.63 70.38L21.25 70.38Q23 70.38 24.31 70.81Q25.63 71.25 27.25 72.25L27.25 72.25Q29 73.25 29.88 74.06Q30.75 74.88 31.38 75.75L31.38 75.75L31.88 76.50L31.38 77.13Q30.63 78.25 30.25 79.44Q29.88 80.63 30 81.63L30 81.63L30 82.25L28.75 82.13Q25.25 81.88 23.19 82.38Q21.13 82.88 19.50 84.50L19.50 84.50Q18.63 85.38 17.81 86.88Q17 88.38 16.50 89.88L16.50 89.88Q16.38 90.38 16.25 90.75Q16.13 91.13 16.13 91.13L16.13 91.13Q16 91.13 15.88 91Q15.75 90.88 15.63 90.75L15.63 90.75ZM27.50 94.75L27.50 94.75Q26.75 94.63 26 94.50Q25.25 94.38 24.50 94.25L24.50 94.25L24.63 94.25Q23.50 94 21.50 93.31Q19.50 92.63 18.63 92.25L18.63 92.25L17.88 91.88L18.13 91.13Q18.63 89.25 19.50 87.63Q20.38 86 21.25 85.25L21.25 85.25Q21.63 85 22 84.81Q22.38 84.63 22.75 84.38L22.75 84.38L22.75 84.38Q23.50 84 23.94 84Q24.38 84 26.25 84L26.25 84Q28.25 84 29.44 84.06Q30.63 84.13 30.63 84.38L30.63 84.38Q30.63 84.63 31.25 85.94Q31.88 87.25 32.63 88.50L32.63 88.50Q33.25 89.63 33.38 90Q33.50 90.38 33.50 91L33.50 91L33.50 92L32.13 93.25L30.63 94.63Q30.25 94.75 29.38 94.81Q28.50 94.88 27.50 94.75L27.50 94.75ZM112.75 46.88L112.75 46.88Q111.75 46.63 110.81 45.75Q109.88 44.88 109.25 43.63L109.25 43.63Q108.63 42.25 108.44 41.25Q108.25 40.25 108.25 38.38L108.25 38.38Q108.25 36.63 108.50 35.50Q108.75 34.38 109.38 33L109.38 33Q109.75 32.25 110.50 31.50Q111.25 30.75 111.88 30.38L111.88 30.38Q112.75 29.88 113.81 30.06Q114.88 30.25 115.88 30.88L115.88 30.88Q116 31 116.19 30.94Q116.38 30.88 116.88 30.38L116.88 30.38Q117.50 29.63 118.19 29.31Q118.88 29 119.75 29L119.75 29Q120.63 29 121.25 29.31Q121.88 29.63 122.75 30.38L122.75 30.38Q123.75 31.63 124.38 33.44Q125 35.25 125 37.38L125 37.38Q125 38.88 124.75 40.06Q124.50 41.25 123.88 42.50L123.88 42.50Q122.75 44.75 121 45.50Q119.25 46.25 117.63 45.13L117.63 45.13L117.13 44.63L116.38 45.38Q115.63 46.25 114.63 46.63Q113.63 47 112.75 46.88L112.75 46.88Z"/></svg>