<svg xmlns="http://www.w3.org/2000/svg" xmlns:xlink="http://www.w3.org/1999/xlink" width="128" height="128"><path fill="#ffffff" d="M24.50 50.50L24.50 50.50Q23.38 50.50 22.69 51.31Q22 52.13 22 53.25L22 53.25L22 67.25L6.13 51.25Q5.50 50.75 4.56 50.56Q3.63 50.38 2.88 50.75L2.88 50.75Q2.13 51 1.56 51.69Q1 52.38 1 53.25L1 53.25L1 73.88Q1 75 1.94 75.81Q2.88 76.63 4 76.63L4 76.63Q5.13 76.63 6.06 75.81Q7 75 7 73.88L7 73.88L7 59.75L23.13 75.75Q23.50 76.13 24 76.38Q24.50 76.63 25 76.63L25 76.63Q25.25 76.63 25.38 76.56Q25.50 76.50 25.75 76.38L25.75 76.38Q26.50 76.13 26.75 75.44Q27 74.75 27 73.88L27 73.88L27 53.25Q27 52.13 26.31 51.31Q25.63 50.50 24.50 50.50L24.50 50.50ZM44.25 62.25L44.25 62.25Q43.13 62.25 42.31 63.13Q41.50 64 41.50 65.13L41.50 65.13Q41.50 66.13 42.31 67Q43.13 67.88 44.25 67.88L44.25 67.88L50.75 68.25L49.25 72L40.75 72L36.63 64.13L40.88 56L50 56L52.13 60L57.63 60L54 52.13L53.25 51L37.63 51L36.88 52.25L31 62.50L30.25 63.75L31 65.13L36.75 75.38L37.63 77L52.75 77L53.38 75.25L57.75 66.25L59.63 62L55.25 62L44.25 62.25ZM65 50.50L65 50.50Q64 50.50 63 51.31Q62 52.13 62 53.25L62 53.25L62 60L68 60L68 53.25Q68 52.13 67 51.31Q66 50.50 65 50.50ZM95.38 50.75L95.38 50.75Q94.63 50.50 93.75 50.63Q92.88 50.75 92.25 51.38L92.25 51.38L76 67.38L76 53.25Q76 52.13 75.31 51.38Q74.63 50.63 73.50 50.63L73.50 50.63Q72.38 50.63 71.69 51.38Q71 52.13 71 53.25L71 53.25L71 74Q71 74.88 71.50 75.56Q72 76.25 72.75 76.50L72.75 76.50Q72.88 76.63 73.19 76.69Q73.50 76.75 73.75 76.75L73.75 76.75Q74.25 76.75 74.81 76.50Q75.38 76.25 75.75 75.88L75.75 75.88L92 59.88L92 74Q92 75.13 92.69 75.94Q93.38 76.75 94.50 76.75L94.50 76.75Q95.63 76.75 96.31 75.94Q97 75.13 97 74L97 74L97 53.25Q97 52.50 96.56 51.81Q96.13 51.13 95.38 50.75L95.38 50.75ZM117.25 63.63L117.25 63.63L125.63 55.25Q126.38 54.38 126.38 53.25Q126.38 52.13 125.63 51.38L125.63 51.38Q124.75 50.63 123.63 50.63Q122.50 50.63 121.75 51.38L121.75 51.38L113.38 59.75L105 51.38Q104.13 50.63 103.06 50.63Q102 50.63 101.25 51.38L101.25 51.38Q100.38 52.25 100.38 53.38Q100.38 54.50 101.25 55.25L101.25 55.25L109.63 63.63L101.25 72Q100.38 72.88 100.38 73.94Q100.38 75 101.25 75.75L101.25 75.75Q101.63 76.13 102.13 76.38Q102.63 76.63 103.13 76.63L103.13 76.63Q103.63 76.63 104.13 76.38Q104.63 76.13 105 75.75L105 75.75L113.38 67.38L121.75 75.75Q122.13 76.13 122.63 76.38Q123.13 76.63 123.75 76.63L123.75 76.63Q124.25 76.63 124.75 76.38Q125.25 76.13 125.63 75.75L125.63 75.75Q126.38 75 126.38 73.88Q126.38 72.75 125.63 72L125.63 72L117.25 63.63ZM62 62L62 73.88Q62 75 62.94 75.81Q63.88 76.63 65 76.63L65 76.63Q66 76.63 67 75.81Q68 75 68 73.88L68 73.88L68 62L62 62Z"/></svg>