<svg xmlns="http://www.w3.org/2000/svg" xmlns:xlink="http://www.w3.org/1999/xlink" width="128" height="128"><path fill="#000000" d="M0.75 46L0.75 46Q0.25 46.50 0.13 46.88Q0 47.25 0.13 48L0.13 48Q0.25 49.13 0.81 49.69Q1.38 50.25 2.50 50.38L2.50 50.38Q3.13 50.50 3.56 50.38Q4 50.25 4.50 49.75L4.50 49.75Q5.13 49.25 5.31 48.94Q5.50 48.63 5.50 47.75L5.50 47.75Q5.50 46.38 4.81 45.69Q4.13 45 2.75 45L2.75 45Q1.88 45 1.56 45.19Q1.25 45.38 0.75 46L0.75 46ZM12.63 51.63L12.63 51.63Q11.25 52.13 9.69 53.69Q8.13 55.25 7.63 56.63L7.63 56.63Q7.13 58.25 7.13 64.50Q7.13 70.75 7.63 72.25L7.63 72.25Q8.13 73.50 9.31 74.88Q10.50 76.25 11.88 77L11.88 77L13.38 77.75L27.75 77.75L29.25 77Q30.50 76.38 31.50 75.38Q32.50 74.38 33.13 73L33.13 73Q33.63 72.13 33.75 70.94Q33.88 69.75 33.88 64.50L33.88 64.50L33.88 57.25L33.13 55.88Q32.38 54.50 31.31 53.50Q30.25 52.50 28.75 51.88L28.75 51.88Q27.63 51.25 26.56 51.19Q25.50 51.13 20.63 51.13L20.63 51.13Q16.63 51.13 15.06 51.25Q13.50 51.38 12.63 51.63L12.63 51.63ZM16.13 55.88L16.13 55.88Q17.25 57.13 17.25 58.56Q17.25 60 16 61.13L16 61.13Q14 62.88 11.88 61.50Q9.75 60.13 10.38 57.63L10.38 57.63Q10.88 55.75 12.81 55.19Q14.75 54.63 16.13 55.88L16.13 55.88ZM27.63 64.50L27.63 64.50Q30.63 66 30.63 69.38Q30.63 72.75 27.63 74.38L27.63 74.38Q25.25 75.63 22.75 74.50Q20.25 73.38 19.63 70.63L19.63 70.63Q18.75 67.25 21.63 65Q24.50 62.75 27.63 64.50L27.63 64.50ZM122.63 53.38L122.63 53.38Q122.13 53.63 122 54Q121.88 54.38 121.88 55.88L121.88 55.88L121.88 58L120.38 58Q119.25 58 119 58.13Q118.75 58.25 118.75 58.75L118.75 58.75Q118.75 59.25 119 59.38Q119.25 59.50 120.38 59.50L120.38 59.50L121.88 59.50L121.88 66Q121.88 71.13 122.13 72.63Q122.38 74.13 123.38 74.88L123.38 74.88Q124 75.25 125.38 75.31Q126.75 75.38 127.38 75L127.38 75Q127.63 74.88 127.81 74.63Q128 74.38 128 74.13L128 74.13Q128 73.75 127.88 73.69Q127.75 73.63 127.25 73.75L127.25 73.75Q126.25 74 125.44 73.94Q124.63 73.88 124.13 73.38L124.13 73.38Q123.63 72.88 123.56 71.88Q123.50 70.88 123.38 66.13L123.38 66.13L123.38 59.50L125.63 59.50Q127.38 59.50 127.69 59.38Q128 59.25 128 58.75L128 58.75Q128 58.25 127.69 58.13Q127.38 58 125.63 58L125.63 58L123.38 58L123.25 55.63Q123.25 53.88 123.13 53.56Q123 53.25 122.63 53.38ZM53.13 58.25L53.13 58.25Q52.75 58.50 52.13 58.94Q51.50 59.38 51.13 59.88L51.13 59.88L50.13 60.88L50.13 59.50Q50.13 58.38 50 58.19Q49.88 58 49.25 58L49.25 58L48.38 58L48.38 75L50.13 75L50.13 69.38Q50.13 65.50 50.25 64.38Q50.38 63.25 50.75 62.50L50.75 62.50Q51.50 60.63 52.69 59.88Q53.88 59.13 55.63 59.13L55.63 59.13Q56.75 59.13 57.19 59.31Q57.63 59.50 58.38 60L58.38 60Q58.75 60.38 59.13 60.94Q59.50 61.50 59.63 62L59.63 62Q59.75 62.38 59.88 64.50Q60 66.63 60 69L60 69L60 75L61.63 75L61.63 69.38Q61.63 63.75 61.13 61.75Q60.63 59.75 59 58.50L59 58.50Q58.13 57.88 56.25 57.81Q54.38 57.75 53.13 58.25L53.13 58.25ZM88.75 58.13L88.75 58.13Q86.13 59.13 84.69 62.25Q83.25 65.38 83.88 68.88L83.88 68.88Q84.13 70.50 84.56 71.50Q85 72.50 85.88 73.38L85.88 73.38Q86.75 74.38 87.94 74.88Q89.13 75.38 90.63 75.38L90.63 75.38Q92.38 75.38 93.56 75Q94.75 74.63 95.75 73.50L95.75 73.50L96.88 72.38L96.88 74.63Q96.88 78.13 95.13 79.88Q93.38 81.63 90 81.63L90 81.63Q89 81.63 87.44 81.25Q85.88 80.88 85.50 80.50L85.50 80.50Q85.13 80.13 84.94 80.25Q84.75 80.38 84.75 81L84.75 81Q84.75 81.88 86.19 82.44Q87.63 83 90.13 83L90.13 83Q92.25 83 93.50 82.63Q94.75 82.25 95.88 81.25L95.88 81.25Q97.63 79.75 98.13 77.19Q98.63 74.63 98.63 66.50L98.63 66.50L98.63 58L97.75 58Q97.13 58 97 58.19Q96.88 58.38 96.88 59.25L96.88 59.25L96.88 60.38L95.88 59.50Q95.50 59.13 94.94 58.69Q94.38 58.25 94 58.13L94 58.13Q93.25 57.75 91.50 57.75Q89.75 57.75 88.75 58.13L88.75 58.13ZM93.75 59.50L93.75 59.50Q94.50 59.88 95.31 60.63Q96.13 61.38 96.50 62.13L96.50 62.13Q96.63 62.50 96.75 63.50Q96.88 64.50 96.88 66.38L96.88 66.38Q96.88 68.63 96.75 69.44Q96.63 70.25 96.25 71L96.25 71Q95.13 73.38 92.38 74Q89.63 74.63 87.75 72.88L87.75 72.88Q86.63 72 86.06 70.75Q85.50 69.50 85.38 67.63L85.38 67.63Q85.25 64.88 86.06 62.75Q86.88 60.63 88.63 59.75L88.63 59.75Q89.63 59.25 91.31 59.19Q93 59.13 93.75 59.50L93.75 59.50ZM107.63 58.13L107.63 58.13Q106.63 58.50 105.50 59.63Q104.38 60.75 103.75 61.88L103.75 61.88Q102.25 65 102.94 68.81Q103.63 72.63 105.88 74.25L105.88 74.25Q107.50 75.38 109.94 75.44Q112.38 75.50 114.63 74.38L114.63 74.38Q115.38 74 115.63 73.75Q115.88 73.50 115.88 73L115.88 73L115.88 72.13L114.25 73Q111.88 74.25 109.81 74.06Q107.75 73.88 106.25 72.38L106.25 72.38Q105.50 71.50 104.94 70.06Q104.38 68.63 104.38 67.50L104.38 67.50L104.38 66.63L117.13 66.63L116.88 64.88Q116.50 61.25 114.88 59.50Q113.25 57.75 110.38 57.75L110.38 57.75Q109.75 57.75 108.94 57.88Q108.13 58 107.63 58.13L107.63 58.13ZM113.63 60.50L113.63 60.50Q114.38 61.38 114.81 62.44Q115.25 63.50 115.25 64.50L115.25 64.50L115.25 65.25L104.38 65.25L104.50 64.38Q104.88 62.63 105.81 61.38Q106.75 60.13 108 59.63L108 59.63Q108.38 59.38 109.06 59.31Q109.75 59.25 110.63 59.25L110.63 59.25Q112 59.38 112.38 59.56Q112.75 59.75 113.63 60.50L113.63 60.50ZM66.25 58L66.38 64.38Q66.38 68.38 66.50 69.81Q66.63 71.25 67 72L67 72Q67.75 73.88 69 74.63Q70.25 75.38 72.38 75.38L72.38 75.38Q74 75.38 74.94 75Q75.88 74.63 76.88 73.50L76.88 73.50L77.75 72.38L77.75 73.75Q77.75 74.63 77.88 74.81Q78 75 78.63 75L78.63 75L79.50 75L79.50 58L77.88 58L77.88 64Q77.88 68.13 77.75 69.25Q77.63 70.38 77.25 71.25L77.25 71.25Q76.13 73.50 73.56 74Q71 74.50 69.38 72.75L69.38 72.75Q68.50 71.75 68.25 70.31Q68 68.88 68 64L68 64L68 58L66.25 58Z"/></svg>