<svg xmlns="http://www.w3.org/2000/svg" xmlns:xlink="http://www.w3.org/1999/xlink" width="128" height="128"><path fill="#ffffff" d="M9.38 2.50L9.38 2.50Q6.75 2.88 4.69 4.25Q2.63 5.63 1.38 7.88L1.38 7.88Q0.63 9 0.31 10.25Q0 11.50 0 13L0 13Q0 14.25 0.25 15.38Q0.50 16.50 1.13 17.63L1.13 17.63Q2.13 19.88 4.06 21.38Q6 22.88 8.63 23.38L8.63 23.38Q9.25 23.50 10.50 23.50Q11.75 23.50 12.38 23.38L12.38 23.38Q15.25 22.88 17.44 21Q19.63 19.13 20.63 16.38L20.63 16.38Q20.88 15.50 21 14.81Q21.13 14.13 21.13 13L21.13 13Q21.13 11.88 21.06 11.38Q21 10.88 20.63 9.88L20.63 9.88Q19.88 7.25 17.88 5.38Q15.88 3.50 13.25 2.75L13.25 2.75Q12.38 2.50 11.25 2.44Q10.13 2.38 9.38 2.50L9.38 2.50ZM56.50 25.50L56.50 25.50Q51.25 26 46.63 28L46.63 28Q41.88 30 38.06 33.25Q34.25 36.50 31.63 40.75L31.63 40.75Q28.88 45 27.63 50.13L27.63 50.13Q27.25 51.38 27.13 52.38Q27 53.38 26.75 55.13L26.75 55.13Q26.75 55.50 26.63 61.50L26.63 61.50Q26.63 67.63 26.63 74.88Q26.63 82.13 26.63 88.25L26.63 88.25Q26.63 94.50 26.75 95.13L26.75 95.13Q26.75 97.13 27.06 98.88Q27.38 100.63 27.88 102.38L27.88 102.38Q30.25 110.50 36.25 116.44Q42.25 122.38 50.25 124.75L50.25 124.75Q51.63 125.13 53.06 125.38Q54.50 125.63 56.13 125.75L56.13 125.75Q56.88 125.88 59.88 125.88Q62.88 125.88 76.88 125.88L76.88 125.88Q92.50 125.88 94.94 125.88Q97.38 125.88 99.13 125.63L99.13 125.63Q103.38 125 107.13 123.44Q110.88 121.88 114.13 119.38L114.13 119.38L114 119.50Q115.38 118.50 116.81 117.13Q118.25 115.75 119.25 114.63L119.25 114.63Q120.25 113.50 121.25 112.06Q122.25 110.63 122.88 109.38L122.88 109.38Q124.38 106.88 125.38 103.94Q126.38 101 126.75 98.13L126.75 98.13Q127 96.50 127.06 94.31Q127.13 92.13 127.13 76.38L127.13 76.38Q127.13 66.13 127.13 61.31Q127.13 56.50 127 55.88L127 55.88Q126.75 50.63 124.81 45.94Q122.88 41.25 119.50 37.13L119.50 37.13Q119 36.38 117.63 35Q116.25 33.63 115.50 33L115.50 33Q112 30.13 108.06 28.38Q104.13 26.63 99.75 25.88L99.75 25.88Q98 25.50 95.81 25.50Q93.63 25.50 77.25 25.50L77.25 25.50Q65.25 25.50 61.19 25.50Q57.13 25.50 56.50 25.50L56.50 25.50ZM53.63 40.38L53.63 40.38Q57.25 41.13 60 43.44Q62.75 45.75 63.88 49.25L63.88 49.25Q64.63 51.38 64.63 53.63Q64.63 55.88 63.88 58L63.88 58Q63.38 59.38 62.44 60.75Q61.50 62.13 60.38 63.13L60.38 63.13Q58.50 64.88 56.25 65.81Q54 66.75 51.50 66.75L51.50 66.75Q48.75 66.75 46.38 65.75Q44 64.75 42 62.88L42 62.88Q40.50 61.25 39.50 59.25Q38.50 57.25 38.25 55L38.25 55Q38.13 54.38 38.19 53.38Q38.25 52.38 38.25 51.75L38.25 51.75Q38.88 47.13 42.13 44Q45.38 40.88 50 40.25L50 40.25Q50.50 40.25 51.75 40.31Q53 40.38 53.63 40.38L53.63 40.38ZM96.25 73L96.25 73Q99.75 73.50 102.81 74.94Q105.88 76.38 108.38 78.88L108.38 78.88Q110.25 80.75 111.56 82.88Q112.88 85 113.75 87.50L113.75 87.50Q114.25 89.13 114.50 90.44Q114.75 91.75 114.75 93.63L114.75 93.63Q114.75 95.38 114.56 96.81Q114.38 98.25 114 99.88L114 99.88Q113 103.38 110.75 106.44Q108.50 109.50 105.50 111.50L105.50 111.50Q101.63 114.25 96.94 114.94Q92.25 115.63 87.63 114.38L87.63 114.38Q85.88 113.88 83.94 112.88Q82 111.88 80.50 110.75L80.50 110.75Q76.75 107.63 74.56 103.25Q72.38 98.88 72.50 94L72.50 94Q72.50 88.50 75.13 83.75Q77.75 79 82.50 76.13L82.50 76.13Q84.50 74.75 86.88 73.94Q89.25 73.13 91.88 72.88L91.88 72.88Q92.50 72.88 94 72.94Q95.50 73 96.25 73L96.25 73Z"/></svg>