<svg xmlns="http://www.w3.org/2000/svg" xmlns:xlink="http://www.w3.org/1999/xlink" width="128" height="128"><path fill="#000000" d="M30.13 72.25L30.13 72.25L17.88 79.13L17.88 73.75L25.50 69.50L30.13 72.25ZM31 71.50L31 71.50L31 56.88L26.50 59.50L26.50 68.88L31 71.50ZM9.13 69.50L4.50 72.25L16.75 79.13L16.75 73.75L9.13 69.50ZM8.13 68.88L3.63 71.50L3.63 56.88L8.13 59.50L8.13 68.88ZM8.63 58.50L4.25 56L16.75 48.88L16.75 54.13L8.75 58.50L8.63 58.50ZM26 58.50L30.50 56L17.88 48.88L17.88 54.13L25.88 58.50L26 58.50ZM16.75 64.50L16.75 72.50L9.25 68.38L9.25 60.13L16.75 64.50ZM17.88 64.50L17.88 72.50L25.38 68.38L25.38 60.13L17.88 64.50ZM17.38 63.50L9.75 59.25L17.38 55L24.88 59.13L17.38 63.50ZM46.50 62.38L48.63 69.63L51.88 69.63L55.25 58.25L52.13 58.25L50.13 66.25L48 58.25L45.13 58.25L43 66.25L41 58.25L37.75 58.25L41.13 69.63L44.50 69.63L46.50 62.38ZM55.50 64L55.50 64Q55.50 64 55.50 64.13Q55.50 64.25 55.50 64.25L55.50 64.25Q55.50 66.63 57.13 68.25Q58.75 69.88 61.13 69.88L61.13 69.88Q61.13 69.88 61.25 69.88Q61.38 69.88 61.38 69.88L61.38 69.88Q61.50 69.88 61.56 69.88Q61.63 69.88 61.63 69.88L61.63 69.88Q63 69.88 64.19 69.19Q65.38 68.50 66.13 67.38L66.13 67.38L64.13 65.88Q63.75 66.50 63 66.88Q62.25 67.25 61.50 67.25L61.50 67.25Q61.50 67.25 61.44 67.25Q61.38 67.25 61.38 67.25L61.38 67.25Q61.38 67.25 61.31 67.25Q61.25 67.25 61.25 67.25L61.25 67.25Q60.13 67.25 59.31 66.50Q58.50 65.75 58.50 64.75L58.50 64.75L66.38 64.75Q66.38 64.50 66.38 64.38Q66.38 64.25 66.38 64L66.38 64Q66.38 61.25 64.94 59.63Q63.50 58 61 58L61 58Q58.50 58 57 59.75Q55.50 61.50 55.50 64L55.50 64ZM63.38 62.75L58.63 62.75Q58.63 61.75 59.31 61.13Q60 60.50 61 60.50L61 60.50Q61 60.50 61.06 60.50Q61.13 60.50 61.13 60.50L61.13 60.50Q62 60.50 62.69 61.13Q63.38 61.75 63.38 62.75L63.38 62.75ZM67.63 69.63L67.63 69.63L70.38 69.63L70.38 68.38Q71 69.13 71.88 69.50Q72.75 69.88 73.63 69.88L73.63 69.88Q73.75 69.88 73.75 69.88Q73.75 69.88 73.75 69.88L73.75 69.88Q76.13 69.88 77.69 68.19Q79.25 66.50 79.25 64L79.25 64Q79.25 61.38 77.81 59.69Q76.38 58 73.88 58L73.88 58Q73.88 58 73.88 58Q73.88 58 73.75 58L73.75 58Q72.88 58 72 58.38Q71.13 58.75 70.63 59.50L70.63 59.50L70.63 54L67.63 54L67.63 69.63ZM70.50 64L70.50 64Q70.50 62.38 71.31 61.50Q72.13 60.63 73.38 60.63L73.38 60.63Q74.63 60.63 75.44 61.56Q76.25 62.50 76.25 64L76.25 64Q76.25 65.50 75.44 66.38Q74.63 67.25 73.38 67.25L73.38 67.25Q72.13 67.25 71.31 66.38Q70.50 65.50 70.50 64.25L70.50 64.25Q70.50 64.13 70.50 64.06Q70.50 64 70.50 64L70.50 64ZM80.38 73.63L80.38 73.63L83.38 73.63L83.38 68.38Q84 69.13 84.81 69.50Q85.63 69.88 86.63 69.88L86.63 69.88Q86.63 69.88 86.69 69.88Q86.75 69.88 86.75 69.88L86.75 69.88Q89.13 69.88 90.63 68.19Q92.13 66.50 92.13 63.88L92.13 63.88Q92.13 61.25 90.56 59.63Q89 58 86.63 58L86.63 58Q86.50 58 86.50 58Q86.50 58 86.50 58L86.50 58Q85.50 58 84.69 58.38Q83.88 58.75 83.25 59.50L83.25 59.50L83.25 58.25L80.38 58.25L80.38 73.63ZM83.25 63.88L83.25 63.88Q83.25 63.88 83.25 63.81Q83.25 63.75 83.25 63.63L83.25 63.63Q83.25 62.50 84.13 61.63Q85 60.75 86.25 60.63L86.25 60.63Q87.50 60.63 88.31 61.50Q89.13 62.38 89.13 63.88L89.13 63.88Q89.13 65.38 88.31 66.31Q87.50 67.25 86.25 67.25L86.25 67.25Q84.88 67.25 84.06 66.38Q83.25 65.50 83.25 63.88L83.25 63.88ZM92.63 66.13L92.63 66.13Q92.63 67.88 93.88 68.88Q95.13 69.88 96.88 69.88L96.88 69.88Q96.88 69.88 96.94 69.88Q97 69.88 97.13 69.88L97.13 69.88Q97.88 69.88 98.50 69.63Q99.13 69.38 99.63 68.88L99.63 68.88L99.75 69.63L102.38 69.63L102.38 62.38Q102.38 60.50 101.38 59.25Q100.38 58 97.75 58L97.75 58Q96.50 58 95.38 58.38Q94.25 58.75 93.25 59.38L93.25 59.38L94.38 61.38Q95 61 95.75 60.81Q96.50 60.63 97.38 60.50L97.38 60.50Q98.38 60.50 98.88 61Q99.38 61.50 99.38 62.25L99.38 62.25L99.38 63Q98.88 62.75 98.25 62.56Q97.63 62.38 97 62.38L97 62.38Q97 62.38 97 62.38Q97 62.38 97 62.38L97 62.38Q95 62.38 93.81 63.38Q92.63 64.38 92.63 66.13L92.63 66.13ZM95.63 66L95.63 66Q95.63 65.38 96.19 64.94Q96.75 64.50 97.50 64.50L97.50 64.50Q98.38 64.50 98.94 64.88Q99.50 65.25 99.50 66L99.50 66Q99.50 66.75 99 67.19Q98.50 67.63 97.63 67.63L97.63 67.63Q96.75 67.63 96.19 67.19Q95.63 66.75 95.63 66ZM109.63 67.25L109.63 67.25Q108.25 67.25 107.38 66.25Q106.50 65.25 106.50 64L106.50 64Q106.50 62.63 107.38 61.69Q108.25 60.75 109.50 60.63L109.50 60.63Q110.25 60.75 110.94 61Q111.63 61.25 112.13 61.75L112.13 61.75L113 59.25Q112.25 58.63 111.38 58.31Q110.50 58 109.50 58L109.50 58Q109.38 58 109.31 58Q109.25 58 109.25 58L109.25 58Q106.88 58 105.19 59.69Q103.50 61.38 103.50 63.75L103.50 63.75Q103.50 63.88 103.50 63.88Q103.50 63.88 103.50 64L103.50 64Q103.50 64 103.50 64.06Q103.50 64.13 103.50 64.13L103.50 64.13Q103.50 66.50 105.13 68.19Q106.75 69.88 109.13 69.88L109.13 69.88Q109.25 69.88 109.31 69.88Q109.38 69.88 109.50 69.88L109.50 69.88Q109.50 69.88 109.50 69.88Q109.50 69.88 109.50 69.88L109.50 69.88Q110.50 69.88 111.38 69.56Q112.25 69.25 113 68.63L113 68.63L112.25 66.25Q111.75 66.63 111.06 66.88Q110.38 67.13 109.63 67.25L109.63 67.25ZM114 69.63L114.13 69.63L117.13 69.63L117.13 63.75L120.88 69.63L124.38 69.63L120.13 63.38L124.13 58.25L120.75 58.25L117 63L117 54L114 54L114 69.63Z"/></svg>