<svg xmlns="http://www.w3.org/2000/svg" xmlns:xlink="http://www.w3.org/1999/xlink" width="128" height="128"><path fill="#ffffff" d="M117.25 98.13L117.25 98.13L66.25 127L66.25 104.50L98 87L117.25 98.13ZM120.75 94.88L120.75 95L120.75 34.50L102.13 45.38L102.13 84.13L120.75 94.88ZM30 87L10.75 98.13L61.75 127L61.75 104.50L30 87ZM25.88 84.13L7.25 95L7.25 34.50L25.88 45.38L25.88 84.13ZM28 41.38L9.38 30.63L61.75 1L61.75 22.75L28 41.38ZM118.63 30.63L118.63 30.63L66.25 1L66.25 22.75L100 41.38L118.63 30.63ZM61.75 66L61.75 99.38L30.38 82.13L30.38 47.88L61.75 66ZM66.25 66L66.25 99.38L97.63 82.13L97.63 47.88L66.25 66ZM64 62.13L32.50 44L64 26.63L95.50 44L64 62.13Z"/></svg>