<svg xmlns="http://www.w3.org/2000/svg" xmlns:xlink="http://www.w3.org/1999/xlink" width="128" height="128"><path fill="#000000" d="M40.63 60.25L40.63 60.25Q41.50 60.13 42.50 60.06Q43.50 60 44.50 60L44.50 60Q44.50 60 44.56 60Q44.63 60 44.63 60L44.63 60Q44.75 59.88 44.94 59.88Q45.13 59.88 45.25 59.88L45.25 59.88Q46.25 59.88 47.19 60.13Q48.13 60.38 49 60.88L49 60.88Q49.50 61.25 49.88 61.88Q50.25 62.50 50.25 63.25L50.25 63.25Q50.25 63.25 50.25 63.31Q50.25 63.38 50.25 63.38L50.25 63.38Q50.13 64.38 49.50 65.19Q48.88 66 47.88 66.25L47.88 66.25L47.88 66.38Q48.50 66.63 49 67.19Q49.50 67.75 49.63 68.50L49.63 68.50Q49.88 69.63 50.19 70.50Q50.50 71.38 50.75 72.13L50.75 72.13L47.63 71.88Q47.38 71.38 47.13 70.69Q46.88 70 46.75 69.25L46.75 69.25Q46.38 68 45.94 67.63Q45.50 67.25 44.50 67.25L44.50 67.25L43.63 67.25L43.63 71.88L40.63 71.88L40.63 60.25ZM43.63 65.25L43.63 65.25L44.88 65.25Q46 65.25 46.63 64.81Q47.25 64.38 47.25 63.63L47.25 63.63Q47.25 62.88 46.63 62.44Q46 62 45 62L45 62Q45 62 44.94 62Q44.88 62 44.88 62L44.88 62Q44.50 62 44.19 62Q43.88 62 43.63 62L43.63 62L43.63 65.25ZM61.38 69.13L61.38 69.13Q61.38 70 61.38 70.69Q61.38 71.38 61.50 71.88L61.50 71.88L58.88 71.88L58.75 70.75L58.63 70.75Q58.25 71.38 57.50 71.75Q56.75 72.13 55.88 72.13L55.88 72.13Q55.75 72.13 55.75 72.13Q55.75 72.13 55.63 72.13L55.63 72.13Q54.13 72.13 53.19 71.25Q52.25 70.38 52.25 68.38L52.25 68.38L52.25 63.25L55.25 63.25L55.25 67.88Q55.25 68.88 55.63 69.38Q56 69.88 56.75 69.88L56.75 69.88Q56.75 69.88 56.75 69.88Q56.75 69.88 56.88 69.88L56.88 69.88Q57.25 69.88 57.69 69.63Q58.13 69.38 58.25 69L58.25 69Q58.38 68.88 58.38 68.75Q58.38 68.63 58.38 68.50L58.38 68.50Q58.38 68.50 58.38 68.44Q58.38 68.38 58.38 68.38L58.38 68.38L58.38 63.25L61.38 63.25L61.38 69.13ZM63.75 71.88L63.75 71.88Q63.75 71.50 63.81 70.81Q63.88 70.13 63.88 69.38L63.88 69.38L63.88 59.38L66.88 59.38L66.88 64.38Q67.38 63.75 68.06 63.44Q68.75 63.13 69.50 63.13L69.50 63.13Q69.63 63.13 69.69 63.13Q69.75 63.13 69.75 63.13L69.75 63.13Q71.50 63.13 72.63 64.31Q73.75 65.50 73.75 67.50L73.75 67.50Q73.75 67.50 73.75 67.56Q73.75 67.63 73.75 67.75L73.75 67.75Q73.75 69.50 72.50 70.81Q71.25 72.13 69.38 72.13L69.38 72.13Q69.38 72.13 69.38 72.13Q69.38 72.13 69.38 72.13L69.38 72.13Q69.25 72.13 69.19 72.13Q69.13 72.13 69.13 72.13L69.13 72.13Q68.25 72.13 67.56 71.75Q66.88 71.38 66.38 70.75L66.38 70.75L66.38 70.75L66.25 71.88L63.75 71.88ZM66.88 67L66.88 68.25Q66.88 68.25 66.88 68.25Q66.88 68.25 66.88 68.25L66.88 68.25Q66.88 68.38 66.88 68.50Q66.88 68.63 66.88 68.75L66.88 68.75Q67.13 69.25 67.56 69.63Q68 70 68.63 70L68.63 70Q68.63 70 68.63 70Q68.63 70 68.63 70L68.63 70Q69.63 70 70.19 69.38Q70.75 68.75 70.75 67.63L70.75 67.63Q70.75 66.63 70.25 65.88Q69.75 65.13 68.63 65.13L68.63 65.13Q68.63 65.13 68.63 65.13Q68.63 65.13 68.63 65.13L68.63 65.13Q68 65.13 67.56 65.50Q67.13 65.88 66.88 66.50L66.88 66.50Q66.88 66.63 66.88 66.75Q66.88 66.88 66.88 67L66.88 67Q66.88 67 66.88 67Q66.88 67 66.88 67L66.88 67ZM77.75 63.25L77.75 63.25L79.25 67.50Q79.25 67.88 79.44 68.31Q79.63 68.75 79.63 69.13L79.63 69.13L79.75 69.13Q79.88 68.75 80 68.31Q80.13 67.88 80.13 67.50L80.13 67.50L81.38 63.25L84.63 63.25L82.38 69Q81.25 71.63 80.50 72.81Q79.75 74 78.88 74.63L78.88 74.63Q78.25 75.13 77.56 75.44Q76.88 75.75 76 75.75L76 75.75L75.38 73.50Q75.75 73.50 76.06 73.38Q76.38 73.25 76.75 73.13L76.75 73.13Q77.13 72.88 77.38 72.63Q77.63 72.38 77.88 72L77.88 72Q78 71.88 78.06 71.81Q78.13 71.75 78.13 71.63L78.13 71.63Q78.13 71.50 78.06 71.38Q78 71.25 78 71.13L78 71.13L74.38 63.25L77.75 63.25ZM97.75 71.88L97.38 66.75Q97.38 65.50 97.25 64.06Q97.13 62.63 97.25 61.63L97.25 61.63L97.13 61.63Q96.75 62.63 96.38 63.75Q96 64.88 95.50 66.13L95.50 66.13L93.13 71.88L91.75 71.88L89.63 66.13Q89.13 64.88 88.75 63.75Q88.38 62.63 88.13 61.63L88.13 61.63L88.13 61.63Q88.13 62.63 88 64.06Q87.88 65.50 87.88 66.88L87.88 66.88L87.50 71.88L85.75 71.88L86.75 60L88.88 60L91.25 65.75Q91.63 66.88 91.94 67.88Q92.25 68.88 92.50 69.75L92.50 69.75L92.63 69.75Q93 68.50 93.38 67.50Q93.75 66.50 94.13 65.50L94.13 65.50L96.38 60L98.63 60L99.38 71.88L97.75 71.88ZM104.13 61L104.13 61Q104.13 61.38 103.88 61.69Q103.63 62 103 62L103 62Q102.63 62 102.31 61.69Q102 61.38 102 61L102 61Q102 61 102 61Q102 61 102 61L102 61Q102 60.63 102.31 60.31Q102.63 60 103 60L103 60Q103.13 60 103.13 60Q103.13 60 103.13 60L103.13 60Q103.13 60 103.13 60Q103.13 60 103.13 60L103.13 60Q103.63 60 103.88 60.31Q104.13 60.63 104.13 61L104.13 61Q104.13 61 104.13 61Q104.13 61 104.13 61L104.13 61ZM102.25 71.88L102.25 71.88L102.25 63.38L104 63.38L104 71.88L102.25 71.88ZM106.88 65.75L106.88 65.75Q106.88 65 106.88 64.44Q106.88 63.88 106.75 63.38L106.75 63.38L108.38 63.38L108.38 64.75Q108.88 64 109.69 63.56Q110.50 63.13 111.38 63.13L111.38 63.13Q111.50 63.13 111.56 63.19Q111.63 63.25 111.63 63.25L111.63 63.25Q111.63 63.25 111.69 63.19Q111.75 63.13 111.75 63.13L111.75 63.13Q113.13 63.13 114.06 64.13Q115 65.13 115 66.50L115 66.50Q115 66.50 115 66.63Q115 66.75 115 66.88L115 66.88L115 71.88L113.25 71.88L113.25 67Q113.25 66 112.75 65.25Q112.25 64.50 111 64.50L111 64.50Q111 64.50 111 64.50Q111 64.50 111 64.50L111 64.50Q110.25 64.50 109.63 64.94Q109 65.38 108.75 66L108.75 66Q108.63 66.25 108.63 66.44Q108.63 66.63 108.63 66.75L108.63 66.75Q108.63 66.75 108.63 66.75Q108.63 66.75 108.63 66.75L108.63 66.75L108.63 71.88L106.88 71.88L106.88 65.75ZM118.88 68L118.88 67.88Q118.88 69.50 119.81 70.19Q120.75 70.88 122.13 70.88L122.13 70.88Q122.13 70.88 122.19 70.88Q122.25 70.88 122.25 70.88L122.25 70.88Q123 70.88 123.63 70.81Q124.25 70.75 124.75 70.50L124.75 70.50L125 71.63Q124.38 71.88 123.63 72Q122.88 72.13 122.13 72.13L122.13 72.13Q122 72.13 121.94 72.13Q121.88 72.13 121.88 72.13L121.88 72.13Q119.63 72.13 118.38 70.94Q117.13 69.75 117.13 67.88L117.13 67.88Q117.13 67.75 117.13 67.69Q117.13 67.63 117.13 67.63L117.13 67.63Q117.13 65.75 118.44 64.50Q119.75 63.25 121.50 63.25L121.50 63.25Q121.50 63.25 121.56 63.25Q121.63 63.25 121.63 63.25L121.63 63.25Q121.75 63.25 121.81 63.25Q121.88 63.25 121.88 63.25L121.88 63.25Q123.50 63.25 124.56 64.31Q125.63 65.38 125.63 67L125.63 67Q125.63 67 125.63 67.06Q125.63 67.13 125.63 67.25L125.63 67.25Q125.63 67.38 125.63 67.56Q125.63 67.75 125.63 68L125.63 68L118.88 68ZM118.88 66.75L123.88 66.88Q123.88 66.75 123.94 66.69Q124 66.63 124 66.63L124 66.63Q124 65.63 123.31 64.94Q122.63 64.25 121.63 64.25L121.63 64.25Q121.63 64.25 121.56 64.25Q121.50 64.25 121.50 64.25L121.50 64.25Q120.50 64.38 119.69 65.06Q118.88 65.75 118.88 66.75L118.88 66.75ZM29.38 69.88L29.38 69.88Q29.25 69.63 27.81 67.88Q26.38 66.13 26.25 65.88L26.25 65.88L26.13 65.75L26.25 65.75Q28 64.75 29 63.06Q30 61.38 30 59.38L30 59.38L30 59.13Q30 59.13 30 59.13Q30 59.13 30 59.13L30 59.13Q30 57.75 29.50 56.63Q29 55.50 28.13 54.63L28.13 54.63Q27 53.50 25.56 52.94Q24.13 52.38 22.38 52.25L22.38 52.25L22.38 57.25Q23.25 57.50 23.81 58.19Q24.38 58.88 24.38 59.88L24.38 59.88Q24.38 59.88 24.38 59.88Q24.38 59.88 24.38 59.88L24.38 59.88Q24.38 61 23.63 61.69Q22.88 62.38 22 62.75L22 62.75L21.63 63Q21 63.38 20.56 64Q20.13 64.63 20.13 65.38L20.13 65.38Q20.13 65.88 20.25 66.25Q20.38 66.63 20.63 67L20.63 67L21 67.63L24.88 72.63L24.88 72.75L25.50 73.38Q25.75 73.63 26.06 73.88Q26.38 74.13 26.75 74.13L26.75 74.13Q27 74.25 27.13 74.25Q27.25 74.25 27.50 74.25L27.50 74.25Q27.88 74.25 28.31 74.13Q28.75 74 29.13 73.75L29.13 73.75Q29.50 73.63 29.81 73.25Q30.13 72.88 30.25 72.38L30.25 72.38L30.25 71.88Q30.13 71.38 29.94 70.88Q29.75 70.38 29.38 69.88L29.38 69.88ZM21 52.25L21.13 52.25Q20.63 52.25 20.06 52.38Q19.50 52.50 19 52.63L19 52.63L19.13 52.63L18.88 52.63L18.38 52.88L18.13 53Q18 53 17.81 53.06Q17.63 53.13 17.50 53.25L17.50 53.25L17.50 53.25Q17.13 53.38 16.81 53.63Q16.50 53.88 16.25 54.13L16.25 54.13Q15.13 53.25 13.75 52.75Q12.38 52.25 10.75 52.25L10.75 52.25Q10.75 52.25 10.75 52.25Q10.75 52.25 10.75 52.25L10.75 52.25Q7.25 52.25 4.81 54.44Q2.38 56.63 2.38 59.63L2.38 59.63L2.38 59.63L2.38 73.88L8 73.88L8 59.63Q8.13 58.63 8.88 57.94Q9.63 57.25 10.63 57.25L10.63 57.25Q10.63 57.25 10.69 57.25Q10.75 57.25 10.75 57.25L10.75 57.25Q10.75 57.25 10.81 57.25Q10.88 57.25 10.88 57.25L10.88 57.25Q11.88 57.25 12.56 57.94Q13.25 58.63 13.38 59.63L13.38 59.63L13.38 59.63L13.38 73.75L19 73.75L19 59.63Q19 59.63 19 59.63Q19 59.63 19 59.50L19 59.50Q19 59.50 19 59.50Q19 59.50 19 59.50L19 59.50L19 59.38Q19.25 58.63 19.75 58.06Q20.25 57.50 21 57.38L21 57.38L21 52.25Z"/></svg>