<svg xmlns="http://www.w3.org/2000/svg" xmlns:xlink="http://www.w3.org/1999/xlink" width="128" height="128"><path fill="#000000" d="M118 97.50L118 97.50Q117.50 96.75 115.63 93.75L115.63 93.75Q113.63 90.75 111.31 87.38Q109 84 107.13 81L107.13 81Q105.25 78 104.88 77.25L104.88 77.25L104.50 76.63L105.13 76.13Q112.13 70.63 116.25 62.50Q120.38 54.38 120.38 45L120.38 45Q120.38 44.88 120.38 44.81Q120.38 44.75 120.38 44.63L120.38 44.63L120.38 43.63Q120.38 37.13 118.31 31.13Q116.25 25.13 112.63 20.75L112.63 20.75Q108.25 15.75 102.25 12.81Q96.25 9.88 89.13 9.25L89.13 9.25L89.13 34.50Q92.88 35.63 95.19 39.13Q97.50 42.63 97.50 47.50L97.50 47.50Q97.50 53.13 94.25 56.38Q91 59.63 87.63 61.75L87.63 61.75L85.88 62.88Q83.13 64.88 81.50 67.88Q79.88 70.88 79.88 74.38L79.88 74.38Q79.88 74.50 79.88 74.63Q79.88 74.75 79.88 74.88L79.88 74.88Q79.88 77.13 80.38 79.25Q80.88 81.38 81.63 83.25L81.63 83.25L83.13 86L99.38 111L99.63 111.50L101.75 114.88Q102.75 116.38 104.19 117.38Q105.63 118.38 107.38 118.75L107.38 118.75Q108 119 108.69 119.06Q109.38 119.13 110.13 119.13L110.13 119.13Q112 119.13 113.69 118.56Q115.38 118 116.75 117L116.75 117Q118.50 115.75 119.69 113.88Q120.88 112 121.25 109.75L121.25 109.75L121.50 107.50Q121.25 104.75 120.38 102.19Q119.50 99.63 118 97.50L118 97.50ZM83.88 9L83.88 9Q81.50 9.25 79.38 9.69Q77.25 10.13 75.13 10.88L75.13 10.88L75.38 10.88Q75.25 10.88 75.06 10.94Q74.88 11 74.75 11.13L74.75 11.13Q74.13 11.38 73.50 11.63Q72.88 11.88 72.25 12.13L72.25 12.13Q72 12.25 71.81 12.38Q71.63 12.50 71.38 12.63L71.38 12.63Q70.75 12.88 70.19 13.19Q69.63 13.50 69 13.88L69 13.88L69 13.88Q67.50 14.88 66.19 15.88Q64.88 16.88 63.63 18.13L63.63 18.13Q59.25 13.75 53.44 11.31Q47.63 8.88 41 8.88L41 8.88Q33.88 8.88 27.63 11.75L27.63 11.75Q21.38 14.75 16.69 19.75Q12 24.75 9.25 31.50L9.25 31.50Q6.50 38.25 6.50 46L6.50 46Q6.50 46 6.50 46Q6.50 46 6.50 46L6.50 46Q6.50 46.13 6.50 46.13Q6.50 46.13 6.50 46.13L6.50 46.13L6.50 46.13L6.50 117L30 117L30 46.13Q30 46.13 30 46.13Q30 46.13 30 46L30 46Q30 46 30 46Q30 46 30 46L30 46Q30 41.13 33.25 37.63Q36.50 34.13 41 34.13L41 34.13Q45.50 34.13 48.75 37.56Q52 41 52 45.88L52 45.88L52 46Q52 46 52 46Q52 46 52 46L52 46Q52 46.13 52 46.13Q52 46.13 52 46.13L52 46.13L52 46.13L52 117L75.38 117L75.38 46.13Q75.38 46.13 75.38 46.13Q75.38 46.13 75.38 46.13L75.38 46.13Q75.38 46.13 75.38 46.06Q75.38 46 75.38 46L75.38 46Q75.38 46 75.38 46Q75.38 46 75.38 45.88L75.38 45.88Q75.38 45.75 75.38 45.50Q75.38 45.25 75.38 45L75.38 45L75.38 44.38Q75.75 40.88 78.06 38.19Q80.38 35.50 83.75 34.50L83.75 34.50L83.88 9Z"/></svg>