<svg xmlns="http://www.w3.org/2000/svg" xmlns:xlink="http://www.w3.org/1999/xlink" width="128" height="128"><path fill="#000000" d="M88.13 64L88.13 64Q88.13 74 81.06 81.06Q74 88.13 64 88.13L64 88.13Q54 88.13 46.94 81.06Q39.88 74 39.88 64L39.88 64Q39.88 54 46.94 46.94Q54 39.88 64 39.88L64 39.88Q74 39.88 81.06 46.94Q88.13 54 88.13 64ZM113.13 23.13L113.13 23.13Q113.13 23.13 113.13 23.13Q113.13 23.13 113.13 23.13L113.13 23.13Q113.13 19.75 110.69 17.31Q108.25 14.88 104.88 14.88L104.88 14.88Q103.25 14.88 101.88 15.44Q100.50 16 99.38 16.88L99.38 16.88Q92.13 11.38 83.06 8.19Q74 5 64 5L64 5Q51.75 5 41 9.63L41 9.63Q30.25 14.25 22.25 22.31Q14.25 30.38 9.63 41.13L9.63 41.13Q5 51.88 5 64L5 64Q5 76.25 9.63 87L9.63 87Q14.25 97.75 22.25 105.75Q30.25 113.75 41 118.38L41 118.38Q51.75 123 64 123L64 123Q76.13 123 86.88 118.38L86.88 118.38Q97.63 113.75 105.69 105.75Q113.75 97.75 118.38 87L118.38 87Q123 76.25 123 64L123 64Q123 54 119.81 44.94Q116.63 35.88 111 28.38L111 28.38Q112 27.50 112.56 26.13Q113.13 24.75 113.13 23.13L113.13 23.13Q113.13 23.13 113.13 23.13Q113.13 23.13 113.13 23.13L113.13 23.13ZM64 121L64 121Q64 121 64 121Q64 121 64 121L64 121Q52.13 121 41.75 116.50L41.75 116.50Q31.38 112 23.63 104.31Q15.88 96.63 11.38 86.13L11.38 86.13Q7 75.75 7 64L7 64Q7 52.25 11.38 41.88L11.38 41.88Q15.88 31.38 23.63 23.69Q31.38 16 41.75 11.50L41.75 11.50Q52.13 7 64 7L64 7Q73.63 7 82.38 10.06Q91.13 13.13 98.25 18.50L98.25 18.50Q97.38 19.38 97 20.56Q96.63 21.75 96.63 23.13L96.63 23.13Q96.63 26.63 99 29Q101.38 31.38 104.88 31.38L104.88 31.38Q106.25 31.38 107.44 31Q108.63 30.63 109.63 29.88L109.63 29.88Q115 36.88 118 45.63Q121 54.38 121 64L121 64Q121 75.75 116.50 86.13L116.50 86.13Q112 96.50 104.25 104.25Q96.50 112 86.13 116.50L86.13 116.50Q75.75 121 64 121L64 121Z"/></svg>