<svg xmlns="http://www.w3.org/2000/svg" xmlns:xlink="http://www.w3.org/1999/xlink" width="128" height="128"><path fill="#ffffff" d="M57 75.50L57 58.38L57.88 58.38L57.88 75.50L57 75.50ZM70.88 57.88L70.88 57.88Q67.13 58 64.50 60.63Q61.88 63.25 61.88 66.88L61.88 66.88Q61.88 70.63 64.50 73.25Q67.13 75.88 70.88 75.88L70.88 75.88Q74.63 75.88 77.25 73.25Q79.88 70.63 79.88 66.88L79.88 66.88Q79.88 66.88 79.88 66.81Q79.88 66.75 79.88 66.75L79.88 66.75Q79.88 63.13 77.31 60.50Q74.75 57.88 71 57.88L71 57.88Q71 57.88 70.94 57.88Q70.88 57.88 70.88 57.88L70.88 57.88ZM70.88 75.13L70.88 75.13Q70.88 75.13 70.88 75.13Q70.88 75.13 70.88 75.13L70.88 75.13Q67.38 75.13 65 72.75Q62.63 70.38 62.63 66.88L62.63 66.88Q62.63 63.50 65 61.13Q67.38 58.75 70.88 58.75L70.88 58.75Q74.25 58.75 76.63 61.13Q79 63.50 79 66.88L79 66.88Q79 66.88 79 66.94Q79 67 79 67L79 67Q79 67 79 67.06Q79 67.13 79 67.13L79 67.13Q79 70.38 76.69 72.75Q74.38 75.13 71 75.13L71 75.13Q71 75.13 70.94 75.13Q70.88 75.13 70.88 75.13L70.88 75.13ZM97 59.63L97 59.63Q96 58.88 94.63 58.38Q93.25 57.88 91.88 57.88L91.88 57.88Q91.75 57.88 91.69 57.88Q91.63 57.88 91.50 57.88L91.50 57.88Q89.50 57.88 87.50 58.81Q85.50 59.75 84.75 61.63L84.75 61.63L84.63 61.63L84.63 58.38L83.75 58.38L83.75 75.50L84.63 75.50L84.63 65.63Q84.63 62.38 86.50 60.56Q88.38 58.75 91.63 58.75L91.63 58.75Q91.75 58.75 91.88 58.75Q92 58.75 92.13 58.75L92.13 58.75Q93.38 58.75 94.50 59.19Q95.63 59.63 96.50 60.38L96.50 60.38Q97.50 61.25 98.06 62.75Q98.63 64.25 98.63 66.50L98.63 66.50L98.63 75.50L99.50 75.50L99.50 66.50Q99.50 64.13 98.88 62.44Q98.25 60.75 97 59.63ZM104.63 75.50L104.63 58.38L105.50 58.38L105.50 75.50L104.63 75.50ZM118.38 75.13L118.38 75.13Q118.38 75.13 118.31 75.13Q118.25 75.13 118.25 75.13L118.25 75.13Q114.88 75.13 112.56 72.75Q110.25 70.38 110.25 67.13L110.25 67.13Q110.25 67.13 110.25 67.06Q110.25 67 110.25 66.88L110.25 66.88Q110.25 66.88 110.25 66.88Q110.25 66.88 110.25 66.88L110.25 66.88Q110.25 65.13 110.88 63.63Q111.50 62.13 112.63 61L112.63 61Q113.63 60 115.06 59.38Q116.50 58.75 118.13 58.75L118.13 58.75Q118.25 58.75 118.31 58.75Q118.38 58.75 118.38 58.75L118.38 58.75Q118.50 58.75 118.56 58.75Q118.63 58.75 118.63 58.75L118.63 58.75Q121.13 58.75 123.13 60.19Q125.13 61.63 125.88 63.88L125.88 63.88L127 63.88Q126 61.25 123.69 59.50Q121.38 57.75 118.38 57.75L118.38 57.75Q114.63 57.75 112 60.44Q109.38 63.13 109.38 66.88L109.38 66.88Q109.38 70.63 112 73.25Q114.63 75.88 118.38 75.88L118.38 75.88Q118.38 75.88 118.38 75.88Q118.38 75.88 118.38 75.88L118.38 75.88Q118.50 75.88 118.56 75.88Q118.63 75.88 118.75 75.88L118.75 75.88Q121.50 75.88 123.75 74.25Q126 72.63 126.88 70.13L126.88 70.13L125.88 70.13Q125.13 72.25 123.13 73.69Q121.13 75.13 118.63 75.13L118.63 75.13Q118.63 75.13 118.50 75.13Q118.38 75.13 118.38 75.13L118.38 75.13ZM58.50 53L58.50 53Q58.50 53.38 58.19 53.69Q57.88 54 57.50 54L57.50 54Q57 54 56.75 53.69Q56.50 53.38 56.50 53L56.50 53Q56.50 52.63 56.75 52.31Q57 52 57.50 52L57.50 52Q57.88 52 58.19 52.31Q58.50 52.63 58.50 53ZM106 53L106 53Q106 53.38 105.69 53.69Q105.38 54 105 54L105 54Q104.63 54 104.31 53.69Q104 53.38 104 53L104 53Q104 52.63 104.31 52.31Q104.63 52 105 52L105 52Q105.38 52 105.69 52.31Q106 52.63 106 53ZM32 64L32 64Q32 67.75 29.31 70.38Q26.63 73 23 73L23 73Q19.25 73 16.63 70.38Q14 67.75 14 64L14 64Q14 60.25 16.63 57.63Q19.25 55 23 55L23 55Q26.63 55 29.31 57.63Q32 60.25 32 64L32 64ZM41.25 48.75L41.25 48.75Q41.25 48.75 41.25 48.75Q41.25 48.75 41.25 48.75L41.25 48.75Q41.25 47.50 40.38 46.56Q39.50 45.63 38.25 45.63L38.25 45.63Q37.63 45.63 37.13 45.88Q36.63 46.13 36.13 46.50L36.13 46.50Q33.50 44.38 30.06 43.19Q26.63 42 23 42L23 42Q13.88 42 7.44 48.44Q1 54.88 1 64L1 64Q1 73.13 7.44 79.56Q13.88 86 23 86L23 86Q32 86 38.50 79.56Q45 73.13 45 64L45 64Q45 60.25 43.81 56.88Q42.63 53.50 40.50 50.75L40.50 50.75Q40.88 50.38 41.06 49.88Q41.25 49.38 41.25 48.75L41.25 48.75Q41.25 48.75 41.25 48.75Q41.25 48.75 41.25 48.75L41.25 48.75ZM23 85.25L23 85.25Q23 85.25 23 85.25Q23 85.25 23 85.25L23 85.25Q14.13 85.25 7.94 79Q1.75 72.75 1.75 64L1.75 64Q1.75 55.25 7.94 49Q14.13 42.75 23 42.75L23 42.75Q26.50 42.75 29.75 43.88Q33 45 35.75 47L35.75 47Q35.38 47.38 35.25 47.81Q35.13 48.25 35.13 48.75L35.13 48.75Q35.13 50.13 36 51Q36.88 51.88 38.13 51.88L38.13 51.88Q38.63 51.88 39.13 51.75Q39.63 51.63 40 51.25L40 51.25Q42 53.88 43.13 57.13Q44.25 60.38 44.25 64L44.25 64Q44.25 72.75 38 79Q31.75 85.25 23 85.25L23 85.25Z"/></svg>