<svg xmlns="http://www.w3.org/2000/svg" xmlns:xlink="http://www.w3.org/1999/xlink" width="128" height="128"><path fill="#000000" d="M4.38 119.88L1.25 119.88L1.25 126.75L0 126.75L0 109.88L4.38 109.88Q5.88 109.88 7 110.19Q8.13 110.50 8.88 111.13L8.88 111.13Q9.63 111.75 10 112.69Q10.38 113.63 10.38 114.88L10.38 114.88Q10.38 115.38 10.25 115.94Q10.13 116.50 9.88 116.88L9.88 116.88L9.88 116.88Q9.75 117.38 9.44 117.75Q9.13 118.13 8.75 118.50L8.75 118.50L8.75 118.50Q8.38 118.88 7.88 119.13Q7.38 119.38 6.88 119.50L6.88 119.50Q6.38 119.75 5.69 119.81Q5 119.88 4.38 119.88L4.38 119.88ZM1.25 110.88L1.25 119L4.38 119Q4.88 119 5.38 118.94Q5.88 118.88 6.38 118.63L6.38 118.63Q6.75 118.50 7.13 118.31Q7.50 118.13 7.88 117.75L7.88 117.75Q8.13 117.50 8.38 117.19Q8.63 116.88 8.75 116.50L8.75 116.50Q9 116.13 9.06 115.75Q9.13 115.38 9.13 114.88L9.13 114.88Q9.13 113.88 8.81 113.13Q8.50 112.38 7.88 111.88L7.88 111.88Q7.38 111.38 6.44 111.13Q5.50 110.88 4.38 110.88L4.38 110.88L1.25 110.88ZM15.50 126.75L14.38 126.75L14.38 114.88L15 114.88Q15.13 114.88 15.19 114.88Q15.25 114.88 15.25 115L15.25 115Q15.38 115 15.38 115.06Q15.38 115.13 15.38 115.25L15.38 115.25L15.50 117.75Q15.75 117 16.13 116.44Q16.50 115.88 17 115.50L17 115.50Q17.50 115.13 18.06 114.88Q18.63 114.63 19.38 114.63L19.38 114.63Q19.63 114.63 19.88 114.69Q20.13 114.75 20.38 114.75L20.38 114.75Q20.63 114.88 20.81 114.94Q21 115 21.25 115.13L21.25 115.13L21.13 115.88Q21 116 20.94 116.06Q20.88 116.13 20.88 116.13L20.88 116.13Q20.75 116.13 20.69 116.06Q20.63 116 20.63 116L20.63 116Q20.50 116 20.44 116Q20.38 116 20.25 115.88L20.25 115.88Q20.13 115.88 20 115.88Q19.88 115.88 19.75 115.75L19.75 115.75Q19.63 115.75 19.44 115.75Q19.25 115.75 19.13 115.75L19.13 115.75L19.13 115.75Q18.50 115.75 17.94 115.94Q17.38 116.13 16.88 116.63L16.88 116.63Q16.50 117 16.13 117.63Q15.75 118.25 15.50 119L15.50 119L15.50 126.75ZM29.63 114.63L29.63 114.63Q29.63 114.63 29.63 114.63Q29.63 114.63 29.63 114.63L29.63 114.63Q30.25 114.63 30.88 114.75Q31.50 114.88 32 115.13L32 115.13L32 115.13Q32.50 115.38 32.88 115.63Q33.25 115.88 33.63 116.38L33.63 116.38Q34 116.75 34.25 117.25Q34.50 117.75 34.63 118.25L34.63 118.25L34.63 118.25Q34.88 118.88 34.94 119.50Q35 120.13 35 120.75L35 120.75Q35 121.50 34.94 122.13Q34.88 122.75 34.63 123.25L34.63 123.25Q34.50 123.88 34.25 124.38Q34 124.88 33.63 125.25L33.63 125.25L33.63 125.25Q33.25 125.63 32.88 125.94Q32.50 126.25 31.88 126.50L31.88 126.50Q31.50 126.75 30.88 126.81Q30.25 126.88 29.63 126.88L29.63 126.88Q29.63 126.88 29.63 126.88Q29.63 126.88 29.63 126.88L29.63 126.88Q29 126.88 28.44 126.75Q27.88 126.63 27.25 126.50L27.25 126.50L27.38 126.50Q26.88 126.25 26.44 125.94Q26 125.63 25.63 125.25L25.63 125.25L25.63 125.25Q25.25 124.88 25 124.38Q24.75 123.88 24.63 123.38L24.63 123.38L24.63 123.38Q24.38 122.75 24.31 122.13Q24.25 121.50 24.25 120.75L24.25 120.75Q24.25 120.13 24.31 119.50Q24.38 118.88 24.63 118.25L24.63 118.25Q24.75 117.75 25.06 117.25Q25.38 116.75 25.63 116.38L25.63 116.38L25.63 116.38Q26 115.88 26.44 115.63Q26.88 115.38 27.38 115.13L27.38 115.13Q27.88 114.88 28.44 114.75Q29 114.63 29.63 114.63L29.63 114.63ZM29.63 126L29.63 126Q30.13 126 30.63 125.94Q31.13 125.88 31.50 125.63L31.50 125.63Q31.88 125.50 32.19 125.19Q32.50 124.88 32.88 124.63L32.88 124.63Q33.13 124.25 33.31 123.81Q33.50 123.38 33.63 123L33.63 123Q33.75 122.50 33.81 121.94Q33.88 121.38 33.88 120.88L33.88 120.88Q33.88 120.88 33.88 120.88Q33.88 120.88 33.88 120.75L33.88 120.75L33.88 120.75Q33.88 120.75 33.88 120.75Q33.88 120.75 33.88 120.75L33.88 120.75Q33.88 120.13 33.81 119.63Q33.75 119.13 33.63 118.63L33.63 118.63L33.63 118.63Q33.50 118.13 33.31 117.75Q33.13 117.38 32.88 117L32.88 117Q32.50 116.63 32.19 116.38Q31.88 116.13 31.50 115.88L31.50 115.88Q31.13 115.75 30.63 115.69Q30.13 115.63 29.63 115.63L29.63 115.63Q29.13 115.63 28.63 115.69Q28.13 115.75 27.75 115.88L27.75 115.88Q27.38 116.13 27.06 116.38Q26.75 116.63 26.50 117L26.50 117Q26.25 117.38 26 117.75Q25.75 118.13 25.75 118.63L25.75 118.63L25.63 118.63Q25.50 119.13 25.44 119.69Q25.38 120.25 25.38 120.75L25.38 120.75Q25.38 121.38 25.44 121.94Q25.50 122.50 25.63 123L25.63 123Q25.88 123.38 26.06 123.81Q26.25 124.25 26.50 124.63L26.50 124.63Q26.75 124.88 27.06 125.19Q27.38 125.50 27.75 125.63L27.75 125.63Q28.13 125.88 28.63 125.94Q29.13 126 29.63 126L29.63 126ZM40.13 126.88L39 126.75L39 114.88L39.63 114.88Q39.75 114.88 39.88 114.94Q40 115 40 115.13L40 115.13L40.13 116.88Q40.25 116.63 40.44 116.44Q40.63 116.25 40.88 116L40.88 116L40.88 116Q41.25 115.63 41.69 115.31Q42.13 115 42.63 114.88L42.63 114.88L42.63 114.88Q42.88 114.75 43.19 114.75Q43.50 114.75 43.75 114.75L43.75 114.75Q44.38 114.75 44.88 114.94Q45.38 115.13 45.75 115.50L45.75 115.50Q46.25 115.88 46.50 116.38Q46.75 116.88 46.88 117.63L46.88 117.63Q47 117.25 47.13 116.94Q47.25 116.63 47.50 116.25L47.50 116.25Q47.63 116 47.88 115.81Q48.13 115.63 48.38 115.38L48.38 115.38Q48.63 115.25 48.88 115.13Q49.13 115 49.38 114.88L49.38 114.88L49.50 114.88Q49.75 114.88 50.06 114.81Q50.38 114.75 50.63 114.75L50.63 114.75Q51.13 114.75 51.50 114.81Q51.88 114.88 52.25 115L52.25 115Q52.63 115.13 52.88 115.38Q53.13 115.63 53.38 115.88L53.38 115.88Q53.63 116.25 53.81 116.56Q54 116.88 54.13 117.38L54.13 117.38Q54.38 117.75 54.44 118.19Q54.50 118.63 54.50 119.25L54.50 119.25L54.50 126.88L53.25 126.88L53.25 119.25Q53.25 118.38 53.06 117.69Q52.88 117 52.50 116.63L52.50 116.63Q52.13 116.13 51.63 115.88Q51.13 115.63 50.38 115.63L50.38 115.63Q50.13 115.63 49.81 115.69Q49.50 115.75 49.25 115.88L49.25 115.88Q49 116 48.69 116.19Q48.38 116.38 48.25 116.63L48.25 116.63Q48 116.75 47.81 117.06Q47.63 117.38 47.50 117.75L47.50 117.75Q47.38 118 47.31 118.38Q47.25 118.75 47.25 119.25L47.25 119.25L47.25 126.88L46.13 126.88L46.13 119.25Q46.13 118.38 45.94 117.69Q45.75 117 45.50 116.63L45.50 116.63Q45.13 116.13 44.63 115.88Q44.13 115.63 43.38 115.63L43.38 115.63Q43 115.63 42.50 115.81Q42 116 41.63 116.25L41.63 116.25Q41.25 116.50 40.88 116.94Q40.50 117.38 40.13 117.88L40.13 117.88L40.13 126.88ZM63.38 114.63L63.38 114.63Q63.88 114.63 64.38 114.75Q64.88 114.88 65.25 115L65.25 115Q65.63 115.13 66 115.38Q66.38 115.63 66.75 116L66.75 116L66.75 116Q67 116.38 67.25 116.75Q67.50 117.13 67.75 117.63L67.75 117.63Q67.88 118.13 67.94 118.69Q68 119.25 68 119.88L68 119.88Q68 120 68 120.06Q68 120.13 68 120.25L68 120.25Q67.88 120.25 67.81 120.25Q67.75 120.25 67.75 120.25L67.75 120.25L59.13 120.25L59.13 120.50Q59.13 121.13 59.19 121.75Q59.25 122.38 59.38 122.88L59.38 122.88Q59.63 123.38 59.81 123.81Q60 124.25 60.38 124.50L60.38 124.50Q60.63 124.88 60.94 125.13Q61.25 125.38 61.75 125.63L61.75 125.63Q62.13 125.75 62.56 125.81Q63 125.88 63.50 125.88L63.50 125.88Q64 125.88 64.38 125.88Q64.75 125.88 65 125.75L65 125.75Q65.38 125.63 65.69 125.50Q66 125.38 66.13 125.25L66.13 125.25Q66.38 125.13 66.56 125Q66.75 124.88 66.88 124.75L66.88 124.75Q67 124.75 67.13 124.69Q67.25 124.63 67.25 124.63L67.25 124.63Q67.38 124.63 67.44 124.63Q67.50 124.63 67.50 124.75L67.50 124.75L67.75 125.13Q67.63 125.25 67.44 125.44Q67.25 125.63 67 125.75L67 125.75Q66.88 125.88 66.56 126Q66.25 126.13 66 126.25L66 126.25L66 126.25Q65.75 126.38 65.44 126.50Q65.13 126.63 64.75 126.63L64.75 126.63L64.75 126.63Q64.50 126.75 64.19 126.75Q63.88 126.75 63.50 126.75L63.50 126.75Q63.50 126.75 63.50 126.75Q63.50 126.75 63.38 126.75L63.38 126.75L63.38 126.75Q63.38 126.75 63.38 126.75Q63.38 126.75 63.38 126.75L63.38 126.75Q62.75 126.75 62.25 126.69Q61.75 126.63 61.13 126.38L61.13 126.38L61.25 126.38Q60.75 126.13 60.31 125.81Q59.88 125.50 59.50 125.13L59.50 125.13L59.50 125.13Q59.13 124.75 58.88 124.25Q58.63 123.75 58.38 123.13L58.38 123.13Q58.13 122.50 58.06 121.81Q58 121.13 58 120.38L58 120.38Q58 119.75 58.06 119.19Q58.13 118.63 58.38 118.13L58.38 118.13Q58.50 117.50 58.81 117.06Q59.13 116.63 59.38 116.25L59.38 116.25L59.38 116.25Q59.75 115.88 60.19 115.56Q60.63 115.25 61.13 115L61.13 115L61.13 115Q61.63 114.88 62.19 114.75Q62.75 114.63 63.38 114.63L63.38 114.63ZM63.38 115.50L63.38 115.50Q63.38 115.50 63.38 115.50Q63.38 115.50 63.38 115.50L63.38 115.50Q62.88 115.50 62.50 115.56Q62.13 115.63 61.75 115.75L61.75 115.75L61.75 115.75Q61.38 115.88 61.06 116.13Q60.75 116.38 60.50 116.63L60.50 116.63Q60.25 116.88 60 117.19Q59.75 117.50 59.63 117.88L59.63 117.88L59.63 117.88Q59.50 118.25 59.38 118.69Q59.25 119.13 59.25 119.63L59.25 119.63L59.25 119.63L67 119.63Q67 119.63 67 119.56Q67 119.50 67 119.50L67 119.50Q67 119.13 66.94 118.69Q66.88 118.25 66.75 117.88L66.75 117.88L66.75 117.88Q66.63 117.50 66.44 117.19Q66.25 116.88 66 116.63L66 116.63Q65.88 116.38 65.56 116.19Q65.25 116 64.88 115.75L64.88 115.75Q64.63 115.63 64.25 115.56Q63.88 115.50 63.50 115.50L63.50 115.50Q63.38 115.50 63.38 115.50Q63.38 115.50 63.38 115.50L63.38 115.50L63.38 115.50ZM74.75 127L74.75 126.88Q74.13 126.88 73.69 126.75Q73.25 126.63 72.88 126.25L72.88 126.25Q72.63 125.88 72.44 125.38Q72.25 124.88 72.25 124.25L72.25 124.25L72.25 116.13L70.50 116.13Q70.50 116.13 70.44 116.06Q70.38 116 70.38 116L70.38 116L70.38 116Q70.25 116 70.25 115.94Q70.25 115.88 70.25 115.88L70.25 115.88Q70.25 115.88 70.25 115.88Q70.25 115.88 70.25 115.88L70.25 115.88L70.25 115.88L70.25 115.38L72.25 115.25L72.50 111Q72.50 110.88 72.56 110.81Q72.63 110.75 72.63 110.75L72.63 110.75Q72.63 110.75 72.69 110.69Q72.75 110.63 72.88 110.63L72.88 110.63Q72.88 110.63 72.88 110.63Q72.88 110.63 72.88 110.63L72.88 110.63L73.38 110.63L73.38 115.25L77.13 115.25L77.13 116L73.38 116L73.38 124.13Q73.38 124.38 73.44 124.56Q73.50 124.75 73.50 125L73.50 125Q73.63 125.13 73.69 125.25Q73.75 125.38 73.88 125.50L73.88 125.50Q74 125.63 74.13 125.75Q74.25 125.88 74.38 125.88L74.38 125.88Q74.50 125.88 74.69 125.94Q74.88 126 75 126L75 126Q75.25 126 75.44 126Q75.63 126 75.75 125.88L75.75 125.88Q75.88 125.75 76 125.69Q76.13 125.63 76.25 125.63L76.25 125.63Q76.38 125.50 76.50 125.44Q76.63 125.38 76.63 125.38L76.63 125.38L76.63 125.38Q76.75 125.25 76.81 125.25Q76.88 125.25 76.88 125.25L76.88 125.25L76.88 125.25Q77 125.25 77 125.25Q77 125.25 77.13 125.38L77.13 125.38L77.38 125.88Q77.13 126.13 76.88 126.31Q76.63 126.50 76.25 126.63L76.25 126.63L76.25 126.63Q75.88 126.75 75.50 126.88Q75.13 127 74.75 127L74.75 127ZM81 126.75L81 126.75L81 109.38L82.25 109.38L82.25 116.88Q82.63 116.38 83.06 116Q83.50 115.63 84 115.25L84 115.25L84 115.25Q84.50 115 85.13 114.81Q85.75 114.63 86.38 114.63L86.38 114.63Q86.38 114.63 86.38 114.63Q86.38 114.63 86.38 114.63L86.38 114.63L86.38 114.63Q86.88 114.63 87.31 114.69Q87.75 114.75 88.13 115L88.13 115Q88.88 115.25 89.38 115.88Q89.88 116.50 90.13 117.25L90.13 117.25L90.13 117.25Q90.25 117.75 90.31 118.19Q90.38 118.63 90.38 119.13L90.38 119.13L90.38 126.75L89.25 126.75L89.25 119.13Q89.25 118.38 89.06 117.69Q88.88 117 88.50 116.50L88.50 116.50Q88 116 87.44 115.81Q86.88 115.63 86.13 115.63L86.13 115.63Q86.13 115.63 86.13 115.63Q86.13 115.63 86.13 115.63L86.13 115.63Q85.50 115.63 84.94 115.75Q84.38 115.88 83.88 116.25L83.88 116.25L84 116.25Q83.50 116.50 83 116.94Q82.50 117.38 82.13 117.88L82.13 117.88L82.13 126.75L81 126.75ZM99.38 114.63L99.38 114.63Q99.88 114.63 100.38 114.75Q100.88 114.88 101.25 115L101.25 115Q101.63 115.13 102 115.38Q102.38 115.63 102.75 116L102.75 116L102.75 116Q103 116.38 103.25 116.75Q103.50 117.13 103.63 117.63L103.63 117.63Q103.88 118.13 103.94 118.69Q104 119.25 104 119.88L104 119.88Q104 120 104 120.06Q104 120.13 104 120.25L104 120.25Q103.88 120.25 103.81 120.25Q103.75 120.25 103.75 120.25L103.75 120.25L95.13 120.25L95.13 120.50Q95.13 121.13 95.19 121.75Q95.25 122.38 95.50 122.88L95.50 122.88Q95.63 123.38 95.81 123.81Q96 124.25 96.38 124.50L96.38 124.50Q96.63 124.88 97 125.13Q97.38 125.38 97.75 125.63L97.75 125.63Q98.13 125.75 98.56 125.81Q99 125.88 99.50 125.88L99.50 125.88Q100 125.88 100.38 125.88Q100.75 125.88 101.13 125.75L101.13 125.75Q101.38 125.63 101.69 125.50Q102 125.38 102.13 125.25L102.13 125.25Q102.38 125.13 102.56 125Q102.75 124.88 102.88 124.75L102.88 124.75Q103 124.75 103.13 124.69Q103.25 124.63 103.25 124.63L103.25 124.63Q103.38 124.63 103.44 124.63Q103.50 124.63 103.50 124.75L103.50 124.75L103.88 125.13Q103.75 125.25 103.50 125.44Q103.25 125.63 103.13 125.75L103.13 125.75Q102.88 125.88 102.56 126.06Q102.25 126.25 102 126.25L102 126.25Q101.75 126.38 101.44 126.50Q101.13 126.63 100.88 126.63L100.88 126.63L100.75 126.63Q100.50 126.75 100.19 126.75Q99.88 126.75 99.50 126.75L99.50 126.75Q99.50 126.75 99.50 126.75Q99.50 126.75 99.50 126.75L99.50 126.75L99.50 126.75Q99.38 126.75 99.38 126.75Q99.38 126.75 99.38 126.75L99.38 126.75Q98.88 126.75 98.31 126.69Q97.75 126.63 97.25 126.38L97.25 126.38L97.25 126.38Q96.75 126.13 96.31 125.81Q95.88 125.50 95.50 125.13L95.50 125.13L95.50 125.13Q95.13 124.75 94.88 124.25Q94.63 123.75 94.38 123.13L94.38 123.13Q94.25 122.50 94.13 121.81Q94 121.13 94 120.38L94 120.38Q94 119.75 94.06 119.19Q94.13 118.63 94.38 118.13L94.38 118.13Q94.50 117.50 94.81 117.06Q95.13 116.63 95.38 116.25L95.38 116.25L95.38 116.25Q95.75 115.88 96.19 115.56Q96.63 115.25 97.13 115L97.13 115L97.13 115Q97.63 114.88 98.19 114.75Q98.75 114.63 99.38 114.63L99.38 114.63ZM99.38 115.50L99.38 115.50Q98.88 115.50 98.50 115.56Q98.13 115.63 97.75 115.75L97.75 115.75Q97.38 115.88 97.06 116.13Q96.75 116.38 96.50 116.63L96.50 116.63L96.50 116.63Q96.25 116.88 96 117.19Q95.75 117.50 95.63 117.88L95.63 117.88L95.63 117.88Q95.50 118.25 95.38 118.69Q95.25 119.13 95.25 119.63L95.25 119.63L95.25 119.63L103 119.63Q103 119.13 102.94 118.69Q102.88 118.25 102.75 117.88L102.75 117.88Q102.63 117.50 102.44 117.19Q102.25 116.88 102 116.63L102 116.63Q101.75 116.38 101.50 116.19Q101.25 116 100.88 115.75L100.88 115.75Q100.50 115.63 100.19 115.56Q99.88 115.50 99.38 115.50L99.38 115.50Q99.38 115.50 99.38 115.50Q99.38 115.50 99.38 115.50L99.38 115.50ZM107.25 114.88L108.38 114.88L108.38 122.50Q108.38 123.25 108.56 123.94Q108.75 124.63 109.13 125.13L109.13 125.13Q109.50 125.63 110.13 125.81Q110.75 126 111.50 126L111.50 126Q112.13 126 112.63 125.88Q113.13 125.75 113.63 125.38L113.63 125.38Q114.13 125.13 114.63 124.75Q115.13 124.38 115.50 123.75L115.50 123.75L115.50 114.88L116.63 114.88L116.63 126.75L116 126.75Q115.88 126.75 115.75 126.69Q115.63 126.63 115.63 126.50L115.63 126.50L115.50 124.75Q115.13 125.25 114.69 125.63Q114.25 126 113.63 126.38L113.63 126.38L113.63 126.38Q113.13 126.63 112.50 126.81Q111.88 127 111.25 127L111.25 127Q110.75 127 110.31 126.94Q109.88 126.88 109.50 126.75L109.50 126.75Q109.13 126.50 108.81 126.31Q108.50 126.13 108.25 125.75L108.25 125.75L108.25 125.75Q108 125.50 107.81 125.13Q107.63 124.75 107.50 124.38L107.50 124.38Q107.38 124 107.31 123.50Q107.25 123 107.25 122.50L107.25 122.50L107.25 114.88ZM127.88 115.88L127.50 116.38Q127.50 116.50 127.38 116.50Q127.25 116.50 127.25 116.50L127.25 116.50Q127.13 116.50 127.06 116.50Q127 116.50 126.88 116.38L126.88 116.38Q126.75 116.38 126.63 116.25Q126.50 116.13 126.38 116L126.38 116Q126.13 116 125.94 115.88Q125.75 115.75 125.50 115.75L125.50 115.75L125.50 115.75Q125.25 115.63 124.94 115.63Q124.63 115.63 124.38 115.63L124.38 115.63Q124.25 115.63 124.25 115.63Q124.25 115.63 124.25 115.63L124.25 115.63L124.25 115.63Q124.25 115.63 124.25 115.63Q124.25 115.63 124.25 115.63L124.25 115.63Q124 115.63 123.69 115.63Q123.38 115.63 123.13 115.75L123.13 115.75L123.13 115.75Q122.88 115.88 122.63 116Q122.38 116.13 122.25 116.25L122.25 116.25L122.25 116.25Q122 116.38 121.88 116.56Q121.75 116.75 121.63 117L121.63 117Q121.50 117.13 121.44 117.38Q121.38 117.63 121.38 117.88L121.38 117.88Q121.38 118.13 121.44 118.38Q121.50 118.63 121.63 118.75L121.63 118.75Q121.88 119 122.06 119.13Q122.25 119.25 122.50 119.38L122.50 119.38Q122.63 119.50 122.94 119.63Q123.25 119.75 123.50 119.88L123.50 119.88Q123.75 120 124.06 120.06Q124.38 120.13 124.75 120.25L124.75 120.25Q125 120.38 125.31 120.50Q125.63 120.63 125.88 120.63L125.88 120.63Q126.25 120.75 126.50 120.94Q126.75 121.13 127 121.25L127 121.25Q127.25 121.38 127.44 121.63Q127.63 121.88 127.75 122.13L127.75 122.13Q127.88 122.38 127.94 122.69Q128 123 128 123.25L128 123.25Q128 123.75 127.94 124.06Q127.88 124.38 127.75 124.75L127.75 124.75Q127.63 125.13 127.38 125.38Q127.13 125.63 126.88 125.88L126.88 125.88Q126.63 126.13 126.31 126.31Q126 126.50 125.63 126.63L125.63 126.63L125.63 126.75Q125.25 126.88 124.81 126.94Q124.38 127 123.88 127L123.88 127Q123.25 127 122.69 126.88Q122.13 126.75 121.75 126.63L121.75 126.63Q121.25 126.38 120.88 126.13Q120.50 125.88 120.13 125.50L120.13 125.50L120.38 125.13Q120.38 125.13 120.44 125.06Q120.50 125 120.50 125L120.50 125L120.50 125Q120.50 125 120.56 124.94Q120.63 124.88 120.63 124.88L120.63 124.88L120.63 124.88Q120.75 124.88 120.88 124.94Q121 125 121.13 125.13L121.13 125.13Q121.25 125.13 121.38 125.25Q121.50 125.38 121.63 125.50L121.63 125.50Q121.88 125.63 122.13 125.75Q122.38 125.88 122.63 126L122.63 126Q122.88 126 123.19 126.06Q123.50 126.13 123.88 126.13L123.88 126.13Q124.25 126.13 124.63 126.06Q125 126 125.25 125.88L125.25 125.88Q125.50 125.75 125.75 125.63Q126 125.50 126.25 125.38L126.25 125.38Q126.38 125.13 126.56 124.94Q126.75 124.75 126.75 124.50L126.75 124.50Q126.88 124.25 126.94 124Q127 123.75 127 123.50L127 123.50Q127 123.13 126.94 122.88Q126.88 122.63 126.75 122.50L126.75 122.50Q126.63 122.25 126.44 122.06Q126.25 121.88 126 121.75L126 121.75Q125.75 121.63 125.50 121.56Q125.25 121.50 125 121.38L125 121.38L124.88 121.38Q124.50 121.25 124.19 121.13Q123.88 121 123.50 120.88L123.50 120.88L123.75 121Q123.38 120.88 123.06 120.75Q122.75 120.63 122.50 120.50L122.50 120.50Q122.25 120.38 121.94 120.25Q121.63 120.13 121.38 120L121.38 120L121.50 120Q121.25 119.75 121.06 119.56Q120.88 119.38 120.63 119.13L120.63 119.13Q120.50 118.88 120.44 118.56Q120.38 118.25 120.38 117.88L120.38 117.88Q120.38 117.50 120.44 117.25Q120.50 117 120.63 116.63L120.63 116.63Q120.88 116.38 121.06 116.13Q121.25 115.88 121.50 115.63L121.50 115.63Q121.75 115.38 122.06 115.19Q122.38 115 122.75 115L122.75 115L122.75 115Q123.13 114.75 123.50 114.69Q123.88 114.63 124.38 114.63L124.38 114.63Q124.88 114.63 125.38 114.69Q125.88 114.75 126.25 115L126.25 115Q126.75 115.13 127.13 115.38Q127.50 115.63 127.88 115.88L127.88 115.88ZM63.50 0L63.50 0Q73.88 0 83.13 4L83.13 4Q92.38 8 99.31 14.81Q106.25 21.63 110.25 30.75L110.25 30.75Q114.25 39.88 114.25 50.25L114.25 50.25Q114.13 60.75 110.13 69.88L110.13 69.88Q106.13 79.13 99.19 85.94Q92.25 92.75 82.88 96.63L82.88 96.63Q73.50 100.50 62.88 100.50L62.88 100.50Q52.38 100.50 43.25 96.50L43.25 96.50Q34.13 92.63 27.25 85.75Q20.38 78.88 16.50 69.63L16.50 69.63Q12.50 60.38 12.50 49.88L12.50 49.88Q12.50 39.63 16.50 30.50L16.50 30.50Q20.50 21.38 27.44 14.63Q34.38 7.88 43.75 3.88L43.75 3.88Q53 0 63.50 0L63.50 0ZM48 17.63L48 17.63Q48.50 20 48.13 22.19Q47.75 24.38 47.13 26.63L47.13 26.63Q46.63 28.13 46 29.56Q45.38 31 45 32.50L45 32.50Q44.38 35 43.69 37.50Q43 40 42.75 42.63L42.75 42.63Q42.38 46.25 43.63 49.56Q44.88 52.88 47.38 56.13L47.38 56.13Q43.38 55.25 39.63 54.44Q35.88 53.63 32.25 52.88L32.25 52.88Q32.25 53.25 32.25 53.44Q32.25 53.63 32.25 53.75L32.25 53.75Q33.38 56.88 35.13 59.56Q36.88 62.25 39.13 64.88L39.13 64.88Q39.25 65.13 39.69 65.25Q40.13 65.38 40.63 65.38L40.63 65.38Q46.25 65.38 51.88 65.38L51.88 65.38Q57.63 65.38 63.31 65.38Q69 65.38 74.63 65.38L74.63 65.38Q80.25 65.38 86 65.38L86 65.38Q86.38 65.38 86.75 65.31Q87.13 65.25 87.38 65L87.38 65Q89.88 62.50 91.69 59.50Q93.50 56.50 94.63 52.88L94.63 52.88Q90.50 53.63 86.50 54.44Q82.50 55.25 78.63 56L78.63 56Q79.38 54.38 80.19 53Q81 51.63 81.50 50.13L81.50 50.13Q83.25 45 82.69 40Q82.13 35 79.50 30.38L79.50 30.38Q77.50 26.63 76.06 22.75Q74.63 18.88 75.63 14.38L75.63 14.38Q73.50 16.50 72.44 19.13Q71.38 21.75 70.88 24.63L70.88 24.63Q70.38 27.38 70 30.13Q69.63 32.88 69.25 35.75L69.25 35.75Q69.13 35.63 69.06 35.56Q69 35.50 69 35.50L69 35.50Q69 35.13 68.94 34.88Q68.88 34.63 68.88 34.25L68.88 34.25Q68.63 29.75 67.69 25.31Q66.75 20.88 64.88 16.63L64.88 16.63Q63.75 14.13 62.94 11.56Q62.13 9 63.25 6L63.25 6Q62.50 6.38 61.81 6.81Q61.13 7.25 60.63 7.88L60.63 7.88Q59 9.63 58.31 11.69Q57.63 13.75 57.50 16L57.50 16Q57.38 18 57.19 19.94Q57 21.88 56.63 23.75L56.63 23.75Q56.25 25.75 55.56 27.75Q54.88 29.75 53.50 31.63L53.50 31.63Q53 27.50 52.31 23.81Q51.63 20.13 48 17.63ZM87.13 78.25L87.13 70L39.63 70L39.63 78.25L87.13 78.25ZM77.63 82.50L49 82.50Q49 87.63 53.56 90.94Q58.13 94.25 64.63 94L64.63 94Q70 93.75 74 90.19Q78 86.63 77.63 82.50L77.63 82.50Z"/></svg>