<svg xmlns="http://www.w3.org/2000/svg" xmlns:xlink="http://www.w3.org/1999/xlink" width="128" height="128"><path fill="#ffffff" d="M63.63 2.50L63.63 2.50Q76.25 2.50 87.25 7.25L87.25 7.25Q98.38 12 106.69 20.25Q115 28.50 119.75 39.50L119.75 39.50Q124.63 50.50 124.63 63L124.63 63Q124.50 75.63 119.75 86.63L119.75 86.63Q114.88 97.75 106.56 105.94Q98.25 114.13 87 118.88L87 118.88Q75.75 123.63 63 123.63L63 123.63Q50.38 123.50 39.38 118.75L39.38 118.75Q28.38 114 20.19 105.69Q12 97.38 7.25 86.25L7.25 86.25Q2.50 75.13 2.50 62.50L2.50 62.50Q2.50 50.13 7.38 39.13L7.38 39.13Q12.13 28.25 20.44 20.13Q28.75 12 39.88 7.25L39.88 7.25Q51 2.50 63.63 2.50ZM45.13 23.75L45.13 23.75Q45.75 26.50 45.31 29.19Q44.88 31.88 44 34.50L44 34.50Q43.50 36.25 42.75 38Q42 39.75 41.50 41.63L41.50 41.63Q40.75 44.63 39.94 47.69Q39.13 50.75 38.75 53.75L38.75 53.75Q38.38 58.25 39.94 62.19Q41.50 66.13 44.38 70L44.38 70L26.25 66.25Q26.25 66.63 26.25 66.81Q26.25 67 26.25 67.13L26.25 67.13Q27.63 71 29.75 74.25Q31.88 77.50 34.50 80.50L34.50 80.50Q34.75 80.88 35.25 81Q35.75 81.13 36.25 81.13L36.25 81.13Q43 81.25 49.88 81.25L49.88 81.25Q56.63 81.25 63.44 81.25Q70.25 81.25 77.13 81.25L77.13 81.25Q83.88 81.25 90.75 81.25L90.75 81.25Q91.13 81.25 91.63 81.13Q92.13 81 92.38 80.75L92.38 80.75Q95.38 77.63 97.56 74.06Q99.75 70.50 101.13 66.13L101.13 66.13L81.88 69.88Q82.75 68 83.75 66.31Q84.75 64.63 85.38 62.75L85.38 62.75Q87.50 56.63 86.75 50.69Q86 44.75 83 39L83 39Q80.50 34.50 78.81 29.88Q77.13 25.25 78.25 19.75L78.25 19.75Q75.75 22.38 74.50 25.50Q73.25 28.63 72.63 32L72.63 32Q72 35.38 71.56 38.75Q71.13 42.13 70.63 45.50L70.63 45.50Q70.63 45.38 70.56 45.31Q70.50 45.25 70.50 45.13L70.50 45.13Q70.38 44.88 70.31 44.50Q70.25 44.13 70.25 43.75L70.25 43.75L70.25 43.75Q70 38.13 68.81 32.81Q67.63 27.50 65.38 22.50L65.38 22.50Q64.13 19.50 63.13 16.38Q62.13 13.25 63.50 9.63L63.50 9.63Q62.50 10.13 61.69 10.63Q60.88 11.13 60.25 11.88L60.25 11.88Q58.50 14 57.69 16.44Q56.88 18.88 56.63 21.63L56.63 21.63Q56.50 24 56.25 26.38Q56 28.75 55.50 31L55.50 31Q55.13 33.50 54.25 35.81Q53.38 38.13 51.75 40.38L51.75 40.38Q51.13 35.63 50.25 31.19Q49.38 26.75 45.13 23.75L45.13 23.75ZM92 96.63L92 86.75L35 86.75L35 96.63L92 96.63ZM80.63 101.75L46.38 101.75Q46.25 108 51.75 112Q57.25 116 65 115.75L65 115.75Q71.50 115.38 76.31 111.13Q81.13 106.88 80.63 101.75L80.63 101.75Z"/></svg>