<svg xmlns="http://www.w3.org/2000/svg" xmlns:xlink="http://www.w3.org/1999/xlink" width="128" height="128"><path fill="#ffffff" d="M64 0L64 0Q53.50 0 44.13 4L44.13 4Q34.88 8 28 14.94Q21.13 21.88 17.13 31.13L17.13 31.13Q13.13 40.38 13.13 50.88L13.13 50.88L13.13 50.88Q13.13 61.50 17.13 70.75L17.13 70.75Q21.13 80 28 86.94Q34.88 93.88 44.13 97.88L44.13 97.88Q53.50 101.88 64 101.88L64 101.88L64 101.88Q74.50 101.88 83.88 97.88L83.88 97.88Q93.13 93.88 100 86.94Q106.88 80 110.88 70.75L110.88 70.75Q114.88 61.50 114.88 50.88L114.88 50.88L114.88 50.88Q114.88 40.38 110.88 31.13L110.88 31.13Q106.88 21.88 100 14.94Q93.13 8 83.88 4L83.88 4Q74.50 0 64 0L64 0ZM71.88 17.63L71.88 17.63Q76.13 17.63 79.94 19.44Q83.75 21.25 84.50 26L84.50 26Q84.88 28.75 84.06 32.75Q83.25 36.75 76.50 40.13L76.50 40.13Q81.75 41.50 83.75 44.50Q85.75 47.50 85.75 50.75L85.75 50.75Q86 58.50 79.94 62.75Q73.88 67 67.13 66.25L67.13 66.25L67.25 61.13Q73.13 61.75 76.06 58.69Q79 55.63 79.13 52L79.13 52Q79.25 48.25 76.13 45.94Q73 43.63 67.25 43.75L67.25 43.75L67.13 39Q74.38 38.38 76.81 34.50Q79.25 30.63 78.25 27.75L78.25 27.75Q77.13 24 73.69 23.06Q70.25 22.13 66.75 23.50L66.75 23.50L65.88 29.25L62.25 29.13L62.50 19.63Q63.88 18.88 66.44 18.25Q69 17.63 71.88 17.63L71.88 17.63ZM61.25 39.13L61.25 39.13L61.25 77.38Q62.75 77.25 64.69 77.63Q66.63 78 68.50 78.38L68.50 78.38L68.50 82.50L46.38 82.50L46.38 78.25Q48.25 78 49.94 77.69Q51.63 77.38 53.63 77.38L53.63 77.38L53.63 44.50Q51.38 44.50 49.44 44.13Q47.50 43.75 46.50 43.38L46.50 43.38L46.50 39.25L61.25 39.13ZM12 116.25L12 116.25Q11.88 116.25 11.56 116.25Q11.25 116.25 11 116.25L11 116.25L11 119.75Q11.50 119.75 12.06 119.81Q12.63 119.88 13.13 120L13.13 120L13.13 121.88L5.75 121.88L5.75 120Q6.25 119.88 6.75 119.81Q7.25 119.75 7.88 119.75L7.88 119.75L7.88 119.75L7.88 108Q7.25 107.88 6.75 107.81Q6.25 107.75 5.75 107.63L5.75 107.63L5.75 107.63L5.75 105.75L7.63 105.75Q8.25 105.75 9.63 105.69Q11 105.63 12.25 105.63L12.25 105.63Q15.25 105.63 16.81 106.94Q18.38 108.25 18.38 110.63L18.38 110.63Q18.38 113 16.69 114.63Q15 116.25 12 116.25L12 116.25ZM12.13 108.13L12.13 108.13Q11.75 108.13 11.50 108.19Q11.25 108.25 11 108.25L11 108.25L11 113.63Q11.25 113.63 11.50 113.63Q11.75 113.63 11.88 113.63L11.88 113.63Q13.38 113.63 14.25 112.88Q15.13 112.13 15.13 110.88L15.13 110.88Q15.13 109.63 14.44 108.88Q13.75 108.13 12.13 108.13L12.13 108.13ZM28.25 109.75L28.13 112.75Q26.25 112.38 25.38 113.50Q24.50 114.63 24.50 117L24.50 117L24.50 119.75Q25 119.75 25.56 119.81Q26.13 119.88 26.63 120L26.63 120L26.63 121.88L19.38 121.88L19.38 120Q19.88 119.88 20.38 119.81Q20.88 119.75 21.50 119.75L21.50 119.75L21.50 112.38Q21 112.25 20.50 112.19Q20 112.13 19.50 112.13L19.50 112.13L19.38 112.13L19.38 110.25Q20.50 110 21.81 110Q23.13 110 24.38 110L24.38 110Q24.38 110.50 24.31 111.13Q24.25 111.75 24.13 112.38L24.13 112.38L24.13 112.38Q24.63 111.25 25.56 110.44Q26.50 109.63 28.25 109.75L28.25 109.75ZM35 122.13L35 122.13Q32.38 122.13 30.88 120.75Q29.38 119.38 29.38 116.13L29.38 116.13Q29.38 113.38 31.06 111.56Q32.75 109.75 35.50 109.75L35.50 109.75Q38 109.75 39.50 111.19Q41 112.63 41 115.75L41 115.75Q41 118.50 39.31 120.31Q37.63 122.13 35 122.13ZM35.25 112.38L35.25 112.38Q34.25 112.38 33.38 113.19Q32.50 114 32.50 115.88L32.50 115.88Q32.50 117.75 33.19 118.63Q33.88 119.50 35.25 119.50L35.25 119.50Q36.38 119.50 37.13 118.63Q37.88 117.75 37.88 115.88L37.88 115.88Q37.88 114.13 37.25 113.25Q36.63 112.38 35.25 112.38L35.25 112.38ZM48.38 122.13L48.38 122.13Q45.75 122.13 44.19 120.75Q42.63 119.38 42.63 116.38L42.63 116.38Q42.63 113.63 44.13 111.69Q45.63 109.75 49 109.75L49 109.75Q49.63 109.75 50.38 109.88Q51.13 110 51.75 110.25L51.75 110.25L51.75 114L49.75 114Q49.75 113.63 49.69 113.25Q49.63 112.88 49.50 112.50L49.50 112.50Q49.38 112.38 49.06 112.38Q48.75 112.38 48.50 112.38L48.50 112.38Q47.25 112.38 46.56 113.31Q45.88 114.25 45.88 116L45.88 116Q45.88 117.63 46.56 118.56Q47.25 119.50 49.13 119.50L49.13 119.50Q49.75 119.50 50.38 119.38Q51 119.25 51.63 119L51.63 119L51.75 121.63Q51.13 121.88 50.25 122Q49.38 122.13 48.38 122.13L48.38 122.13ZM63.88 116.50L63.88 116.50L56.50 116.50Q56.50 118.13 57.31 118.94Q58.13 119.75 59.75 119.75L59.75 119.75Q60.63 119.75 61.56 119.56Q62.50 119.38 63.25 119L63.25 119L63.63 121.38Q62.63 121.75 61.50 121.94Q60.38 122.13 59.25 122.13L59.25 122.13Q56.50 122.13 54.94 120.69Q53.38 119.25 53.38 116.13L53.38 116.13Q53.38 113.38 54.81 111.56Q56.25 109.75 59 109.75L59 109.75Q61.63 109.75 62.81 111.31Q64 112.88 64 115.13L64 115.13Q64 115.38 64 115.75Q64 116.13 63.88 116.50ZM58.88 112L58.88 112Q57.88 112 57.31 112.63Q56.75 113.25 56.63 114.38L56.63 114.38L61 114.38Q61 113.25 60.44 112.63Q59.88 112 58.88 112L58.88 112ZM69.13 122.13L69.13 122.13Q68.50 122.13 67.63 122.06Q66.75 122 66.13 121.88L66.13 121.88L66.13 118.25L68 118.25Q68.13 118.63 68.19 119Q68.25 119.38 68.25 119.88L68.25 119.88Q68.50 119.88 68.81 119.94Q69.13 120 69.50 120L69.50 120Q70.38 120 70.94 119.63Q71.50 119.25 71.50 118.50L71.50 118.50Q71.50 117 68.63 116.75Q65.75 116.50 65.75 113.63L65.75 113.63Q65.75 112 67.06 110.88Q68.38 109.75 70.88 109.75L70.88 109.75Q71.50 109.75 72.31 109.88Q73.13 110 74 110.13L74 110.13L74 113.50L72 113.50Q72 113.25 71.94 112.81Q71.88 112.38 71.75 112L71.75 112Q71.50 112 71.25 111.94Q71 111.88 70.75 111.88L70.75 111.88L70.75 111.88Q69.75 111.88 69.31 112.25Q68.88 112.63 68.88 113.25L68.88 113.25Q68.88 114.75 71.75 115Q74.63 115.25 74.63 118.13L74.63 118.13Q74.63 119.88 73.13 121Q71.63 122.13 69.13 122.13L69.13 122.13ZM79.75 122.13L79.75 122.13Q79 122.13 78.19 122.06Q77.38 122 76.63 121.88L76.63 121.88L76.63 118.25L78.50 118.25Q78.63 118.63 78.69 119Q78.75 119.38 78.75 119.88L78.75 119.88Q79 119.88 79.38 119.94Q79.75 120 80 120L80 120Q80.88 120 81.44 119.63Q82 119.25 82 118.50L82 118.50Q82 117 79.13 116.75Q76.25 116.50 76.25 113.63L76.25 113.63Q76.25 112 77.56 110.88Q78.88 109.75 81.38 109.75L81.38 109.75Q82.13 109.75 82.94 109.88Q83.75 110 84.50 110.13L84.50 110.13L84.50 113.50L82.63 113.50Q82.50 113.25 82.44 112.81Q82.38 112.38 82.38 112L82.38 112Q82.13 112 81.81 111.94Q81.50 111.88 81.25 111.88L81.25 111.88L81.25 111.88Q80.25 111.88 79.81 112.25Q79.38 112.63 79.38 113.25L79.38 113.25Q79.38 114.75 82.25 115Q85.13 115.25 85.13 118.13L85.13 118.13Q85.13 119.88 83.69 121Q82.25 122.13 79.75 122.13L79.75 122.13ZM86.63 121.88L86.63 121.88L86.63 120Q87.13 119.88 87.63 119.81Q88.13 119.75 88.63 119.75L88.63 119.75L88.63 112.38Q88.25 112.25 87.75 112.19Q87.25 112.13 86.63 112.13L86.63 112.13L86.63 112.13L86.63 110.25Q87.75 110 89.06 110Q90.38 110 91.75 110L91.75 110L91.75 119.75Q92.25 119.75 92.75 119.81Q93.25 119.88 93.63 120L93.63 120L93.63 121.88L86.63 121.88ZM90.25 108.50L90.25 108.50Q90.25 108.50 90.19 108.50Q90.13 108.50 90.13 108.50L90.13 108.50Q89.38 108.50 88.81 107.94Q88.25 107.38 88.25 106.63L88.25 106.63L88.25 106.63Q88.25 105.88 88.81 105.31Q89.38 104.75 90.25 104.75L90.25 104.75Q91 104.75 91.56 105.31Q92.13 105.88 92.13 106.63L92.13 106.63Q92.13 107.38 91.56 107.94Q91 108.50 90.25 108.50L90.25 108.50ZM104.13 114.25L104.13 114.25Q104.13 113.38 103.81 112.88Q103.50 112.38 102.63 112.38L102.63 112.38Q101.50 112.38 100.69 113.50Q99.88 114.63 99.88 116.13L99.88 116.13L99.88 119.75Q100.38 119.75 100.81 119.81Q101.25 119.88 101.63 120L101.63 120L101.63 121.88L94.75 121.88L94.75 120Q95.25 119.88 95.75 119.81Q96.25 119.75 96.88 119.75L96.88 119.75L96.88 112.38Q96.38 112.25 95.88 112.19Q95.38 112.13 94.88 112.13L94.88 112.13L94.75 112.13L94.75 110.25Q95.88 110 97.19 110Q98.50 110 99.75 110L99.75 110Q99.75 110.38 99.69 111Q99.63 111.63 99.50 112.13L99.50 112.13L99.63 112.13Q100.13 111.13 101.13 110.44Q102.13 109.75 103.63 109.75L103.63 109.75Q105.63 109.75 106.38 110.88Q107.13 112 107.13 113.50L107.13 113.50L107.13 119.75Q107.75 119.75 108.25 119.81Q108.75 119.88 109.13 120L109.13 120L109.13 121.88L104.13 121.88L104.13 114.25ZM115.50 128L115.50 128Q113.13 128 111.75 127.13Q110.38 126.25 110.38 124.50L110.38 124.50Q110.38 123.50 110.94 122.75Q111.50 122 112.25 121.63L112.25 121.63Q111.63 121.38 111.31 120.88Q111 120.38 111 119.75L111 119.75Q111 119.13 111.44 118.50Q111.88 117.88 112.38 117.63L112.38 117.63Q111.63 117.25 111.13 116.38Q110.63 115.50 110.63 114.38L110.63 114.38Q110.63 112.50 112 111.13Q113.38 109.75 116.13 109.75L116.13 109.75Q116.63 109.75 117.13 109.81Q117.63 109.88 118.13 110L118.13 110L122.25 110L122.25 112.38L120.63 112.38Q120.88 112.63 121.06 113.06Q121.25 113.50 121.25 114L121.25 114Q121.25 115.88 119.88 117.13Q118.50 118.38 115.88 118.38L115.88 118.38Q115.63 118.38 115.38 118.38Q115.13 118.38 114.88 118.25L114.88 118.25Q114.50 118.38 114.38 118.63Q114.25 118.88 114.25 119L114.25 119Q114.25 119.50 114.69 119.63Q115.13 119.75 116.13 119.75L116.13 119.75L118 119.75Q119.88 119.75 121 120.63Q122.13 121.50 122.13 123.25L122.13 123.25Q122.13 125.13 120.31 126.56Q118.50 128 115.50 128L115.50 128ZM117.13 122.25L117.13 122.25L114.50 122.25Q114 122.50 113.69 122.94Q113.38 123.38 113.38 123.88L113.38 123.88Q113.38 124.75 114.06 125.19Q114.75 125.63 116 125.63L116 125.63Q117.50 125.63 118.25 125.06Q119 124.50 119 123.63L119 123.63Q119 123 118.56 122.63Q118.13 122.25 117.13 122.25L117.13 122.25ZM116 112L116 112Q114.88 112 114.25 112.56Q113.63 113.13 113.63 114.13L113.63 114.13Q113.63 115.13 114.25 115.69Q114.88 116.25 116 116.25L116 116.25Q117 116.25 117.63 115.69Q118.25 115.13 118.25 114.13L118.25 114.13Q118.25 113.13 117.69 112.56Q117.13 112 116 112Z"/></svg>