<svg xmlns="http://www.w3.org/2000/svg" xmlns:xlink="http://www.w3.org/1999/xlink" width="128" height="128"><path fill="#000000" d="M64 0L64 0Q50.75 0 39.13 5L39.13 5Q27.38 10 18.69 18.69Q10 27.38 5 39.13L5 39.13Q0 50.75 0 64L0 64L0 64Q0 77.25 5 88.88L5 88.88Q10 100.63 18.69 109.31Q27.38 118 39.13 123L39.13 123Q50.75 128 64 128L64 128L64 128Q77.25 128 88.88 123L88.88 123Q100.63 118 109.31 109.31Q118 100.63 123 88.88L123 88.88Q128 77.25 128 64L128 64L128 64Q128 50.75 123 39.13L123 39.13Q118 27.38 109.31 18.69Q100.63 10 88.88 5L88.88 5Q77.25 0 64 0L64 0L64 0ZM73.88 22.25L73.88 22.25Q79.25 22.25 84 24.44Q88.75 26.63 89.75 32.63L89.75 32.63Q90.25 36.13 89.19 41.19Q88.13 46.25 79.75 50.50L79.75 50.50Q86.25 52.25 88.81 56Q91.38 59.75 91.38 63.88L91.38 63.88Q91.63 73.50 84 78.88Q76.38 84.25 68 83.25L68 83.25L68 76.88Q75.50 77.63 79.19 73.81Q82.88 70 83 65.38L83 65.38Q83.13 60.75 79.25 57.81Q75.38 54.88 68 55L68 55L67.88 49Q77 48.25 80.06 43.38Q83.13 38.50 82 34.88L82 34.88Q80.38 30.13 76.13 29Q71.88 27.88 67.38 29.63L67.38 29.63L66.38 36.75L61.75 36.63L62.13 24.75Q63.88 23.75 67.06 23Q70.25 22.25 73.88 22.25ZM60.50 49.25L60.50 49.25L60.50 97.25Q62.38 97.13 64.81 97.63Q67.25 98.13 69.63 98.50L69.63 98.50L69.63 103.75L41.88 103.75L41.88 98.38Q44.13 98.13 46.31 97.69Q48.50 97.25 50.88 97.25L50.88 97.25L50.88 56Q48.13 55.88 45.75 55.44Q43.38 55 42 54.50L42 54.50L42 49.38L60.50 49.25Z"/></svg>