<svg xmlns="http://www.w3.org/2000/svg" xmlns:xlink="http://www.w3.org/1999/xlink" width="128" height="128"><path fill="#ffffff" d="M64 100.38L64 100.38Q50.75 100.38 39.13 97L39.13 97Q27.38 93.63 18.69 87.81Q10 82 5 74.25L5 74.25Q0 66.38 0 57.50L0 57.50Q0 48.63 5 40.88L5 40.88Q10 33 18.69 27.19Q27.38 21.38 39.13 18L39.13 18Q50.75 14.63 64 14.63L64 14.63Q77.25 14.63 88.88 18L88.88 18Q100.63 21.38 109.31 27.19Q118 33 123 40.88L123 40.88Q128 48.63 128 57.50L128 57.50Q128 66.38 123 74.25L123 74.25Q118 82 109.31 87.81Q100.63 93.63 88.88 97L88.88 97Q77.25 100.38 64 100.38ZM73.75 31.38L73.75 31.38Q63.75 31.38 54.88 33.75L54.88 33.75Q46 36 39.38 40Q32.75 44 29 49.25L29 49.25Q25.13 54.63 25.13 60.75L25.13 60.75Q25.13 66.75 29 72.13L29 72.13Q32.75 77.50 39.38 81.44Q46 85.38 54.88 87.75L54.88 87.75Q63.75 90 73.75 90L73.75 90Q83.88 90 92.38 88.25L92.38 88.25Q101 86.63 107.25 83Q113.50 79.38 117 73.88L117 73.88Q120.50 68.38 120.50 60.75L120.50 60.75Q120.50 53.13 117 47.50L117 47.50Q113.50 42 107.25 38.44Q101 34.88 92.38 33.13L92.38 33.13Q83.88 31.38 73.75 31.38L73.75 31.38ZM97.50 81L97.50 81Q97.50 81 99.69 81.75Q101.88 82.50 103.63 83.38L103.63 83.38Q104.13 83.63 105.06 84.19Q106 84.75 106.75 85.50L106.75 85.50Q107.38 86.38 107.75 87Q108.13 87.63 108.13 87.63L108.13 87.63L123.38 113.38L98.75 113.38L87.13 91.63Q87.13 91.63 85.81 89.50Q84.50 87.38 83.38 86.50L83.38 86.50Q82.50 85.75 81.94 85.44Q81.38 85.13 80.38 85.13L80.38 85.13L74.63 85.13L74.63 113.38L52.75 113.38L52.75 41.25L96.63 41.25Q96.63 41.25 99.75 41.63L99.75 41.63Q102.88 42 106.56 43.81Q110.25 45.63 113.38 49.63L113.38 49.63Q116.50 53.50 116.50 60.63L116.50 60.63Q116.50 67.75 113.63 71.88L113.63 71.88Q110.63 75.88 107 77.94Q103.38 80 100.50 80.50L100.50 80.50Q97.50 81 97.50 81L97.50 81ZM88 56.88L88 56.88L74.75 56.88L74.75 69.13L88 69.13Q88 69.13 91.06 68.38Q94.13 67.63 94.13 62.88L94.13 62.88Q94.13 58.13 91.06 57.50Q88 56.88 88 56.88L88 56.88Z"/></svg>