<svg xmlns="http://www.w3.org/2000/svg" xmlns:xlink="http://www.w3.org/1999/xlink" width="128" height="128"><path fill="#000000" d="M64 14.63L64 14.63Q50.75 14.63 39.13 18L39.13 18Q27.38 21.38 18.69 27.19Q10 33 5 40.88L5 40.88Q0 48.63 0 57.50L0 57.50Q0 65.25 3.88 72.25L3.88 72.25Q7.75 79.25 14.63 84.81Q21.50 90.38 31 94.25L31 94.25Q40.38 98 51.38 99.50L51.38 99.50L51.38 86.75Q45.50 84.88 40.63 82.13L40.63 82.13Q35.88 79.50 32.44 76.13Q29 72.75 27 68.88L27 68.88Q25.13 65 25.13 60.75L25.13 60.75Q25.13 54.63 29 49.25L29 49.25Q32.75 44 39.38 40Q46 36 54.88 33.75L54.88 33.75Q63.75 31.38 73.75 31.38L73.75 31.38Q83.88 31.38 92.38 33.13L92.38 33.13Q101 34.88 107.25 38.44Q113.50 42 117 47.50L117 47.50Q120.50 53.13 120.50 60.75L120.50 60.75Q120.50 68.63 116.75 74.25Q113 79.88 106.38 83.38L106.38 83.38Q107.38 84.13 108.13 85Q108.88 85.88 109.38 86.88L109.38 86.88Q109.38 87 109.50 87.19Q109.63 87.38 109.75 87.50L109.75 87.50Q118.25 81.75 123.13 74Q128 66.25 128 57.50L128 57.50Q128 48.63 123 40.88L123 40.88Q118 33 109.31 27.19Q100.63 21.38 88.88 18L88.88 18Q77.25 14.63 64 14.63L64 14.63ZM84.13 89.50L84.13 89.50Q82.13 89.75 80.13 89.88Q78.13 90 76 90L76 90Q76 92.38 76 94.81Q76 97.25 76 99.63L76 99.63Q79.25 99.25 82.38 98.63Q85.50 98 88.50 97.13L88.50 97.13Q88.38 96.88 88.25 96.63Q88.13 96.38 88 96.13L88 96.13Q87.50 95.25 87 94.31Q86.50 93.38 85.88 92.38L85.88 92.38Q85.50 91.63 85.06 90.94Q84.63 90.25 84.13 89.50L84.13 89.50ZM97.50 81L97.50 81Q97.50 81 99.69 81.75Q101.88 82.50 103.63 83.38L103.63 83.38Q104.13 83.63 105.06 84.19Q106 84.75 106.75 85.50L106.75 85.50Q107.38 86.38 107.75 87Q108.13 87.63 108.13 87.63L108.13 87.63L123.38 113.38L98.75 113.38L87.13 91.63Q87.13 91.63 85.81 89.50Q84.50 87.38 83.38 86.50L83.38 86.50Q82.50 85.75 81.94 85.44Q81.38 85.13 80.38 85.13L80.38 85.13L74.63 85.13L74.63 113.38L52.75 113.38L52.75 41.25L96.63 41.25Q96.63 41.25 99.75 41.63L99.75 41.63Q102.88 42 106.56 43.81Q110.25 45.63 113.38 49.63L113.38 49.63Q116.50 53.50 116.50 60.63L116.50 60.63Q116.50 67.75 113.63 71.88L113.63 71.88Q110.63 75.88 107 77.94Q103.38 80 100.50 80.50L100.50 80.50Q97.50 81 97.50 81L97.50 81ZM88 56.88L88 56.88L74.75 56.88L74.75 69.13L88 69.13Q88 69.13 91.06 68.38Q94.13 67.63 94.13 62.88L94.13 62.88Q94.13 58.13 91.06 57.50Q88 56.88 88 56.88L88 56.88Z"/></svg>