<svg xmlns="http://www.w3.org/2000/svg" xmlns:xlink="http://www.w3.org/1999/xlink" width="128" height="128"><path fill="#000000" d="M86.13 47.50L86.13 47.50Q92.25 53.88 93.50 60.38Q94.75 66.88 94.75 68.75L94.75 68.75L33.75 68.75Q33.75 67.13 35.13 60.06Q36.50 53 43.50 46.38L43.50 46.38Q49.88 40.38 56.25 39.25Q62.63 38.13 64.25 38.13L64.25 38.13Q65.75 38.13 72.63 39.38Q79.50 40.63 86.13 47.50ZM125.88 64L125.88 64Q125.88 76.88 121 88.13L121 88.13Q116.13 99.38 107.75 107.75Q99.38 116.13 88.13 121L88.13 121Q76.88 125.88 64 125.88L64 125.88Q51.13 125.88 39.88 121L39.88 121Q28.63 116.13 20.19 107.75Q11.75 99.38 6.88 88.13L6.88 88.13Q2 76.88 2 64L2 64Q2 51.13 6.88 39.88L6.88 39.88Q11.75 28.63 20.19 20.19Q28.63 11.75 39.88 6.88L39.88 6.88Q51.13 2 64 2L64 2Q76.88 2 88.13 6.88L88.13 6.88Q99.38 11.75 107.75 20.19Q116.13 28.63 121 39.88L121 39.88Q125.88 51.13 125.88 64ZM110.75 80.25L110.75 80.25Q110.88 78.50 110.88 75.94Q110.88 73.38 110.75 70.25L110.75 70.25Q110.75 70.25 110.75 70.25Q110.75 70.25 110.75 70.25L110.75 70.25L101.75 70.25L101.75 67L110.38 67Q109.88 61 107.75 52.81Q105.63 44.63 99.13 37L99.13 37Q99 36.75 98.75 36.56Q98.50 36.38 98.38 36.25L98.38 36.25L91.63 43L89.25 40.75L96.13 33.88Q87.75 26 78.63 23.75Q69.50 21.50 65.75 21.25L65.75 21.25L65.75 30.63L62.63 30.63L62.63 21.25Q58.88 21.38 49.75 23.56Q40.63 25.75 32.13 34.13L32.13 34.13L38.63 40.63L36.38 43L29.88 36.50Q23 44.25 20.69 52.69Q18.38 61.13 17.75 67L17.75 67L26.13 67L26.13 70.25L17.50 70.25Q17.50 70.25 17.50 70.38Q17.50 70.50 17.50 70.63L17.50 70.63Q17.25 73.63 17.31 76.13Q17.38 78.63 17.50 80.25L17.50 80.25L110.75 80.25Z"/></svg>