<svg xmlns="http://www.w3.org/2000/svg" xmlns:xlink="http://www.w3.org/1999/xlink" width="128" height="128"><path fill="#ffffff" d="M18.75 59.50L18.75 59.50Q20 60.75 20.25 62.06Q20.50 63.38 20.63 63.75L20.63 63.75L8.25 63.75Q8.25 63.50 8.56 62.06Q8.88 60.63 10.25 59.25L10.25 59.25Q11.63 58.13 12.88 57.88Q14.13 57.63 14.50 57.63L14.50 57.63Q14.75 57.63 16.13 57.88Q17.50 58.13 18.75 59.50L18.75 59.50ZM26.88 62.75L26.88 62.75Q26.88 68 23.25 71.63Q19.63 75.25 14.38 75.25L14.38 75.25Q9.25 75.25 5.56 71.63Q1.88 68 1.88 62.75L1.88 62.75Q1.88 57.63 5.56 53.94Q9.25 50.25 14.38 50.25L14.38 50.25Q19.63 50.25 23.25 53.94Q26.88 57.63 26.88 62.75ZM23.75 66.13L23.75 66.13Q23.75 65.75 23.81 65.25Q23.88 64.75 23.75 64.13L23.75 64.13L23.75 64.13L22 64.13L22 63.50L23.75 63.50Q23.63 62.25 23.19 60.63Q22.75 59 21.38 57.38L21.38 57.38Q21.38 57.38 21.31 57.31Q21.25 57.25 21.25 57.25L21.25 57.25L20 58.63L19.50 58.13L20.88 56.75Q19.13 55.13 17.31 54.69Q15.50 54.25 14.75 54.25L14.75 54.25L14.75 56.13L14.25 56.13L14.25 54.25Q13.50 54.25 11.63 54.69Q9.75 55.13 8 56.75L8 56.75L9.25 58.13L8.75 58.63L7.50 57.25Q6.13 58.88 5.63 60.56Q5.13 62.25 5.13 63.50L5.13 63.50L6.75 63.50L6.75 64.13L5 64.13Q5 64.13 5 64.13Q5 64.13 5 64.25L5 64.25Q4.88 64.75 4.94 65.31Q5 65.88 5 66.25L5 66.25L23.75 66.13ZM36.88 55.88L36.88 55.88Q36.50 55.88 36.06 55.81Q35.63 55.75 35.25 55.75L35.25 55.75Q34.13 55.75 32.94 55.75Q31.75 55.75 30.63 55.75L30.63 55.75Q30.63 59.25 30.63 62.88Q30.63 66.50 30.63 70L30.63 70Q31.25 70 31.75 70Q32.25 70 32.88 70L32.88 70Q32.88 68.63 32.88 67.31Q32.88 66 32.88 64.75L32.88 64.75Q33.38 64.75 33.75 64.75Q34.13 64.75 34.63 64.75L34.63 64.75Q35.25 64.63 36 64.50Q36.75 64.38 37.38 64.25L37.38 64.25Q38.88 63.75 39.50 62.56Q40.13 61.38 40.13 59.75L40.13 59.75Q40 58.25 39.19 57.25Q38.38 56.25 36.88 55.88L36.88 55.88ZM36.25 62.25L36.25 62.25Q35.50 62.50 34.63 62.56Q33.75 62.63 32.88 62.75L32.88 62.75Q32.88 61.50 32.88 60.19Q32.88 58.88 32.88 57.63L32.88 57.63Q33.63 57.63 34.38 57.69Q35.13 57.75 35.88 57.88L35.88 57.88Q36.63 58 37.06 58.56Q37.50 59.13 37.50 60L37.50 60Q37.63 60.88 37.31 61.50Q37 62.13 36.25 62.25L36.25 62.25ZM44.50 70L44.50 70Q43.88 70 43.31 70Q42.75 70 42.25 70L42.25 70Q42.25 67.25 42.25 64.56Q42.25 61.88 42.25 59.13L42.25 59.13Q42.63 59.13 43 59.13Q43.38 59.13 43.75 59.13L43.75 59.13Q43.75 59.13 43.88 59.25Q44 59.38 44.13 59.50L44.13 59.50Q44.13 59.75 44.19 60.13Q44.25 60.50 44.25 60.75L44.25 60.75Q44.88 60.38 45.31 60Q45.75 59.63 46.25 59.25L46.25 59.25Q46.88 58.88 47.50 58.88Q48.13 58.88 48.88 59L48.88 59Q48.88 59.50 48.81 60.06Q48.75 60.63 48.75 61.13L48.75 61.13Q48.50 61.13 48.38 61.13Q48.25 61.13 48.13 61.13L48.13 61.13Q46.50 61 45.56 61.88Q44.63 62.75 44.50 64.25L44.50 64.25Q44.50 65.63 44.50 66.81Q44.50 68 44.50 69.25L44.50 69.25Q44.50 69.50 44.50 69.69Q44.50 69.88 44.50 70ZM59.63 67.38L59.63 67.38Q59.13 68.88 57.81 69.56Q56.50 70.25 54.88 70.25L54.88 70.25Q53.38 70.25 52.13 69.50Q50.88 68.75 50.25 67.25L50.25 67.25Q49.75 65.88 49.75 64.56Q49.75 63.25 50.25 62L50.25 62Q50.75 60.25 52.31 59.50Q53.88 58.75 55.75 59L55.75 59Q57.63 59.25 58.75 60.56Q59.88 61.88 60 63.75L60 63.75Q60 63.88 60 64.13Q60 64.38 60 64.63L60 64.63Q60.13 64.63 60 65.69Q59.88 66.75 59.63 67.38ZM52.75 67L52.75 67Q53 67.75 53.63 68.06Q54.25 68.38 54.88 68.38L54.88 68.38Q55.63 68.38 56.25 68.13Q56.88 67.88 57.25 67.13L57.25 67.13Q57.75 65.88 57.75 64.63Q57.75 63.38 57.25 62.25L57.25 62.25Q56.88 61.50 56.19 61.19Q55.50 60.88 54.75 61L54.75 61Q54 61.13 53.44 61.44Q52.88 61.75 52.75 62.38L52.75 62.38Q52.50 62.88 52.50 64.63Q52.50 66.38 52.75 67ZM62.88 60.88L62.88 60.88Q62.50 60.88 62.19 60.88Q61.88 60.88 61.50 60.88L61.50 60.88Q61.38 60.38 61.50 60Q61.63 59.63 62.13 59.50L62.13 59.50Q62.75 59.38 63 58.88Q63.25 58.38 63.38 57.88L63.38 57.88Q63.75 56.88 63.94 56.81Q64.13 56.75 65.25 56.75L65.25 56.75Q65.25 57.38 65.25 57.94Q65.25 58.50 65.25 59.13L65.25 59.13Q66 59.13 66.75 59.13Q67.50 59.13 68.25 59.13L68.25 59.13Q68.25 59.50 68.25 60Q68.25 60.50 68.25 60.88L68.25 60.88Q67.50 60.88 66.75 60.88Q66 60.88 65.25 60.88L65.25 60.88Q65.25 61.50 65.25 62.06Q65.25 62.63 65.25 63.25L65.25 63.25Q65.25 64 65.25 64.81Q65.25 65.63 65.25 66.50L65.25 66.50Q65.25 67.50 65.69 67.94Q66.13 68.38 67.25 68.25L67.25 68.25Q67.50 68.25 67.75 68.19Q68 68.13 68.38 68.13L68.38 68.13Q68.38 68.50 68.38 68.88Q68.38 69.25 68.38 69.63L68.38 69.63Q68.38 69.63 68.25 69.75Q68.13 69.88 68 70L68 70Q67.25 70.13 66.50 70.19Q65.75 70.25 65 70.13L65 70.13Q64 69.88 63.50 69.06Q63 68.25 63 67L63 67Q63 65.63 63 64.31Q63 63 63 61.75L63 61.75Q62.88 61.50 62.88 61.31Q62.88 61.13 62.88 60.88L62.88 60.88ZM73 70L73 70Q72.38 70 71.81 70Q71.25 70 70.75 70L70.75 70Q70.75 67.25 70.75 64.56Q70.75 61.88 70.75 59.25L70.75 59.25Q71.13 59.25 71.56 59.25Q72 59.25 72.50 59.25L72.50 59.25Q72.63 59.63 72.69 60.13Q72.75 60.63 72.75 61.13L72.75 61.13Q73.63 59.88 74.69 59.31Q75.75 58.75 77.25 59.13L77.25 59.13Q77.25 59.63 77.19 60.13Q77.13 60.63 77.13 61.25L77.13 61.25Q76.75 61.25 76.44 61.25Q76.13 61.25 75.75 61.25L75.75 61.25Q74.63 61.25 73.88 62Q73.13 62.75 73 64L73 64Q72.88 65.38 72.94 66.75Q73 68.13 73 69.50L73 69.50Q73 69.63 73 69.75Q73 69.88 73 70ZM87.13 70L87.13 70Q86.75 70 86.38 70Q86 70 85.50 70L85.50 70Q85.38 69.63 85.25 69.31Q85.13 69 85 68.50L85 68.50Q84.50 69.13 83.94 69.56Q83.38 70 82.63 70.13L82.63 70.13Q82.13 70.13 81.50 70.13Q80.88 70.13 80.25 70.13L80.25 70.13Q79.38 70 78.75 69.31Q78.13 68.63 78 67.75L78 67.75Q77.75 66.38 78.19 65.50Q78.63 64.63 79.50 64.25L79.50 64.25Q80.50 63.63 81.63 63.56Q82.75 63.50 83.88 63.38L83.88 63.38Q84.63 63.38 84.75 63.19Q84.88 63 84.75 62.25L84.75 62.25Q84.75 61.50 84.31 61.13Q83.88 60.75 83.13 60.75L83.13 60.75Q82.63 60.75 82.25 60.81Q81.88 60.88 81.38 60.88L81.38 60.88Q81 61 80.56 61.19Q80.13 61.38 79.75 61.50L79.75 61.50Q79.50 61.13 79.31 60.69Q79.13 60.25 78.88 59.75L78.88 59.75Q80.38 59.13 81.94 58.94Q83.50 58.75 85.13 59.25L85.13 59.25Q85.88 59.63 86.38 60.25Q86.88 60.88 86.88 61.75L86.88 61.75Q87 63.88 87.06 65.88Q87.13 67.88 87.13 70L87.13 70ZM84.75 64.75L84.75 64.75Q84.25 64.75 83.88 64.81Q83.50 64.88 83.13 64.88L83.13 64.88Q82.63 65 82.19 65.06Q81.75 65.13 81.25 65.25L81.25 65.25Q80.75 65.50 80.50 66.06Q80.25 66.63 80.38 67.25L80.38 67.25Q80.50 67.75 80.88 68Q81.25 68.25 81.88 68.25L81.88 68.25Q83.50 68.50 84.25 67.50Q85 66.50 84.75 64.75ZM97.63 59.63L97.63 59.63Q97.50 60.13 97.25 60.56Q97 61 96.88 61.38L96.88 61.38Q96.50 61.25 96 61.13Q95.50 61 95.13 60.88L95.13 60.88Q93.88 60.63 92.94 61.25Q92 61.88 91.75 63.25L91.75 63.25Q91.75 64 91.75 64.75Q91.75 65.50 91.88 66.25L91.88 66.25Q92.13 67.38 92.81 67.88Q93.50 68.38 94.63 68.25L94.63 68.25Q95.25 68.13 95.88 67.94Q96.50 67.75 97.25 67.63L97.25 67.63Q97.25 68 97.25 68.44Q97.25 68.88 97.25 69.25L97.25 69.25Q97.25 69.38 97.13 69.50Q97 69.63 96.88 69.75L96.88 69.75Q95.50 70.25 94.13 70.19Q92.75 70.13 91.50 69.50L91.50 69.50Q90.75 69.13 90.31 68.50Q89.88 67.88 89.63 67L89.63 67Q89.25 65.75 89.25 64.56Q89.25 63.38 89.63 62.25L89.63 62.25Q90 60.88 90.88 60.06Q91.75 59.25 93.25 59L93.25 59Q94.38 58.88 95.44 59Q96.50 59.13 97.63 59.63L97.63 59.63ZM102.38 59.13L102.38 59.13Q103.25 59.13 103.94 59.13Q104.63 59.13 105.38 59.13L105.38 59.13Q105.38 59.50 105.38 60Q105.38 60.50 105.38 60.88L105.38 60.88Q104.63 60.88 103.88 60.88Q103.13 60.88 102.38 60.88L102.38 60.88Q102.38 62.50 102.38 64Q102.38 65.50 102.38 67.13L102.38 67.13Q102.38 67.75 102.75 68Q103.13 68.25 103.75 68.25L103.75 68.25Q104.13 68.25 104.56 68.19Q105 68.13 105.50 68.13L105.50 68.13Q105.50 68.50 105.50 68.88Q105.50 69.25 105.50 69.63L105.50 69.63Q105.50 69.63 105.38 69.75Q105.25 69.88 105.13 70L105.13 70Q104.38 70.13 103.63 70.19Q102.88 70.25 102.13 70.13L102.13 70.13Q101.13 70 100.56 69.31Q100 68.63 100 67.63L100 67.63Q99.88 66.25 99.88 64.88Q99.88 63.50 99.88 62.25L99.88 62.25Q99.88 61.88 99.88 61.56Q99.88 61.25 99.88 61L99.88 61Q99.50 61 99.13 61Q98.75 61 98.50 61L98.50 61Q98.38 60.50 98.50 60.13Q98.63 59.75 99.13 59.63L99.13 59.63Q99.75 59.50 100 59.06Q100.25 58.63 100.38 58L100.38 58Q100.50 57.75 100.63 57.44Q100.75 57.13 100.75 56.75L100.75 56.75Q101.13 56.75 101.50 56.75Q101.88 56.75 102.25 56.75L102.25 56.75Q102.38 57.38 102.38 57.94Q102.38 58.50 102.38 59.13L102.38 59.13ZM116.88 67.38L116.88 67.38Q116.38 68.88 115.06 69.63Q113.75 70.38 112.13 70.25L112.13 70.25Q110.38 70.25 109.19 69.38Q108 68.50 107.50 67L107.50 67Q107.13 65.88 107.13 64.75Q107.13 63.63 107.38 62.38L107.38 62.38Q107.88 60.50 109.50 59.63Q111.13 58.75 113.25 59L113.25 59Q115 59.25 116.13 60.56Q117.25 61.88 117.38 63.75L117.38 63.75Q117.38 63.88 117.38 64.13Q117.38 64.38 117.38 64.63L117.38 64.63Q117.38 64.63 117.25 65.69Q117.13 66.75 116.88 67.38L116.88 67.38ZM115.13 64.50L115.13 64.50Q115 64 114.88 63.44Q114.75 62.88 114.63 62.25L114.63 62.25Q114.25 61.50 113.56 61.19Q112.88 60.88 112.13 60.88L112.13 60.88Q111.25 60.88 110.75 61.25Q110.25 61.63 109.88 62.38L109.88 62.38Q109.50 63.50 109.50 64.56Q109.50 65.63 109.88 66.75L109.88 66.75Q110.25 67.50 110.88 67.94Q111.50 68.38 112.38 68.25L112.38 68.25Q113.25 68.25 113.94 67.81Q114.63 67.38 114.75 66.50L114.75 66.50Q114.88 66 114.94 65.56Q115 65.13 115.13 64.50ZM126.75 59.25L126.75 59.25Q126.63 59.75 126.56 60.19Q126.50 60.63 126.38 61.13L126.38 61.13Q126 61.13 125.69 61.13Q125.38 61.13 125 61.13L125 61.13Q124 61.13 123.25 61.81Q122.50 62.50 122.38 63.63L122.38 63.63Q122.38 64.63 122.31 65.69Q122.25 66.75 122.25 67.75L122.25 67.75Q122.25 68.38 122.25 68.88Q122.25 69.38 122.25 69.88L122.25 69.88Q121.75 69.88 121.19 69.88Q120.63 69.88 120 69.88L120 69.88Q120 67.25 120 64.56Q120 61.88 120 59.25L120 59.25Q120.13 59.25 120.13 59.19Q120.13 59.13 120.13 59.13L120.13 59.13Q121.25 59 121.50 59.19Q121.75 59.38 122 60.50L122 60.50Q122 60.63 122.06 60.69Q122.13 60.75 122.13 60.88L122.13 60.88Q122.88 59.63 124 59.13Q125.13 58.63 126.63 58.88L126.63 58.88Q126.63 59.13 126.69 59.19Q126.75 59.25 126.75 59.25L126.75 59.25Z"/></svg>