<svg xmlns="http://www.w3.org/2000/svg" xmlns:xlink="http://www.w3.org/1999/xlink" width="128" height="128"><path fill="#ffffff" d="M49.50 82.38L38.13 77.50L26.75 82.38L37.25 86.88L49.50 82.38ZM21 83.63L21 83.63L20.63 105.63L37.25 113L37.25 90.13L21 83.63ZM55.25 83.63L55.25 83.63L40.13 89.38L40.13 110.88L55.25 104.75L55.25 83.63ZM84.63 19.88L73.25 15L61.75 19.88L72.38 24.50L84.63 19.88ZM72 27.63L57.25 21.50L57.25 43.63L71.50 47.75L72 27.63ZM89.13 44L89.13 22.75L75.63 28.50L75.63 50.13L89.13 44ZM19.25 46L19.25 46L7.88 51L18.50 55.50L30.75 51L19.25 46ZM2.13 52.13L2.13 52.13L1.75 74.25L18.50 81.50L18.50 58.63L2.13 52.13ZM36.50 73.38L36.50 52.13L21.38 57.88L21.38 79.50L36.50 73.38ZM67.38 50.13L56 45.25L44.63 50.13L55.25 54.63L67.38 50.13ZM38.88 51.38L38.88 51.38L38.50 73.38L55.25 80.75L55.25 57.88L38.88 51.38ZM73.13 72.50L73.13 51.38L58.13 57.13L58.13 78.63L73.13 72.50ZM120.50 19.88L109.13 15L97.63 19.88L108.25 24.50L120.50 19.88ZM108.25 27.63L92 21.13L91.50 43.25L108.25 50.50L108.25 27.63ZM126.25 21.13L126.25 21.13L111.13 26.88L111.13 48.50L126.25 42.38L126.25 21.13Z"/></svg>