<svg xmlns="http://www.w3.org/2000/svg" xmlns:xlink="http://www.w3.org/1999/xlink" width="128" height="128"><path fill="#000000" d="M44.63 57.38L44.63 57.38Q42.63 57.38 40.81 58.25Q39 59.13 38.50 61.63L38.50 61.63Q38.50 61.88 38.63 62Q38.75 62.13 38.88 62.25L38.88 62.25L41.63 62.50Q41.75 62.50 41.88 62.38Q42 62.25 42 62L42 62Q42.25 61.13 42.88 60.75Q43.50 60.38 44.25 60.38L44.25 60.38Q44.63 60.38 45.06 60.50Q45.50 60.63 45.75 61L45.75 61Q46 61.50 46.06 62.06Q46.13 62.63 46.13 63.13L46.13 63.13L46.13 63.50Q44.88 63.63 43.50 63.75Q42.13 63.88 41 64.38L41 64.38Q39.75 65 38.94 66.13Q38.13 67.25 38.13 69L38.13 69Q38.13 71.25 39.25 72.31Q40.38 73.38 42.13 73.38L42.13 73.38Q43.63 73.38 44.56 72.94Q45.50 72.50 46.63 71.38L46.63 71.38Q47 71.88 47.25 72.25Q47.50 72.63 48.25 73.25L48.25 73.25Q48.38 73.25 48.56 73.25Q48.75 73.25 48.88 73.13L48.88 73.13L48.88 73.13Q49.25 72.75 49.88 72.19Q50.50 71.63 51 71.25L51 71.25Q51.13 71.13 51.13 70.94Q51.13 70.75 51 70.50L51 70.50Q50.63 70 50.25 69.44Q49.88 68.88 49.88 68L49.88 68L49.88 63.63Q49.88 62.13 49.81 60.94Q49.75 59.75 48.75 58.75L48.75 58.75Q48 58 46.81 57.69Q45.63 57.38 44.63 57.38L44.63 57.38ZM80.38 57.38L80.38 57.38Q78.50 57.38 76.63 58.25Q74.75 59.13 74.38 61.63L74.38 61.63Q74.25 61.88 74.38 62Q74.50 62.13 74.75 62.25L74.75 62.25L77.38 62.50Q77.50 62.50 77.63 62.38Q77.75 62.25 77.88 62L77.88 62Q78 61.13 78.63 60.75Q79.25 60.38 80 60.38L80 60.38Q80.50 60.38 80.88 60.50Q81.25 60.63 81.50 61L81.50 61Q81.88 61.50 81.88 62.06Q81.88 62.63 81.88 63.13L81.88 63.13L81.88 63.50Q80.75 63.63 79.31 63.75Q77.88 63.88 76.75 64.38L76.75 64.38Q75.50 65 74.69 66.13Q73.88 67.25 73.88 69L73.88 69Q73.88 71.25 75.06 72.31Q76.25 73.38 77.88 73.38L77.88 73.38Q79.38 73.38 80.38 72.94Q81.38 72.50 82.50 71.38L82.50 71.38Q82.88 71.88 83.13 72.25Q83.38 72.63 84 73.25L84 73.25Q84.13 73.25 84.31 73.25Q84.50 73.25 84.63 73.13L84.63 73.13L84.63 73.13Q85 72.75 85.69 72.19Q86.38 71.63 86.75 71.25L86.75 71.25Q86.88 71.13 86.88 70.94Q86.88 70.75 86.75 70.50L86.75 70.50Q86.38 70 86.06 69.44Q85.75 68.88 85.75 68L85.75 68L85.75 63.63Q85.75 62.13 85.63 60.94Q85.50 59.75 84.50 58.75L84.50 58.75Q83.75 58 82.56 57.69Q81.38 57.38 80.38 57.38ZM60.25 57.50L60.25 57.50Q59 57.50 58.13 58.13Q57.25 58.75 56.75 60.13L56.75 60.13L56.63 60.13L56.63 58.25Q56.63 58.13 56.50 57.94Q56.38 57.75 56.13 57.75L56.13 57.75L53.63 57.75Q53.38 57.75 53.25 57.94Q53.13 58.13 53.13 58.38L53.13 58.38L53.13 72.75Q53.13 72.88 53.25 73Q53.38 73.13 53.63 73.25L53.63 73.25L56.38 73.25Q56.50 73.25 56.69 73.06Q56.88 72.88 56.88 72.63L56.88 72.63L56.88 65Q56.88 63.75 57.06 62.44Q57.25 61.13 58.75 61.13L58.75 61.13Q60.13 61.13 60.25 62.50Q60.38 63.88 60.38 65L60.38 65L60.38 72.63Q60.38 72.88 60.50 73Q60.63 73.13 60.88 73.25L60.88 73.25L63.63 73.25Q63.88 73.25 64 73.06Q64.13 72.88 64.13 72.63L64.13 72.63L64.13 65Q64.13 64.38 64.19 63.63Q64.25 62.88 64.38 62.25L64.38 62.25Q64.63 61.75 65.06 61.44Q65.50 61.13 66 61.13L66 61.13Q66.63 61.13 67.06 61.38Q67.50 61.63 67.63 62.38L67.63 62.38Q67.75 62.75 67.75 63.69Q67.75 64.63 67.75 65L67.75 65L67.75 72.63Q67.75 72.88 67.88 73Q68 73.13 68.25 73.25L68.25 73.25L71 73.25Q71.13 73.25 71.31 73.06Q71.50 72.88 71.50 72.63L71.50 72.63L71.50 63.63Q71.50 62.38 71.44 61.19Q71.38 60 70.75 59.13L70.75 59.13Q70.25 58.25 69.38 57.88Q68.50 57.50 67.63 57.50L67.63 57.50Q66.38 57.50 65.38 58.13Q64.38 58.75 63.88 60.13L63.88 60.13Q63.25 58.75 62.44 58.13Q61.63 57.50 60.25 57.50L60.25 57.50ZM106.75 57.50L106.75 57.50Q103.75 57.50 102.19 59.81Q100.63 62.13 100.63 65.50L100.63 65.50Q100.63 68.75 102.19 71.13Q103.75 73.50 106.75 73.50L106.75 73.50Q109.63 73.50 111.31 71.19Q113 68.88 113 65.63L113 65.63Q113 62.25 111.38 59.88Q109.75 57.50 106.75 57.50L106.75 57.50ZM122.38 57.50L122.38 57.50Q120.88 57.50 120.06 58.25Q119.25 59 118.63 60.38L118.63 60.38L118.63 60.38L118.63 58.25Q118.50 58 118.38 57.94Q118.25 57.88 118.13 57.88L118.13 57.88L115.63 57.88Q115.38 57.88 115.19 58Q115 58.13 115 58.25L115 58.25L115 72.63Q115 72.88 115.19 73Q115.38 73.13 115.50 73.25L115.50 73.25L118.25 73.25Q118.50 73.25 118.63 73.06Q118.75 72.88 118.75 72.63L118.75 72.63L118.75 64.88Q118.75 64.25 118.88 63.56Q119 62.88 119.25 62.25L119.25 62.25Q119.50 61.63 119.88 61.31Q120.25 61 120.75 61L120.75 61Q122.25 61 122.38 62.38Q122.50 63.75 122.50 64.88L122.50 64.88L122.50 72.75Q122.50 72.88 122.63 73Q122.75 73.13 123 73.25L123 73.25L125.75 73.25Q125.88 73.25 126.06 73.06Q126.25 72.88 126.25 72.75L126.25 72.75L126.25 63.63Q126.25 62.63 126.19 61.38Q126.13 60.13 125.50 59.25L125.50 59.25Q125 58.25 124.13 57.88Q123.25 57.50 122.38 57.50L122.38 57.50ZM89.50 57.75L89.50 57.75Q89.38 57.75 89.19 57.88Q89 58 89 58.25L89 58.25L89 60.38Q89 60.63 89.19 60.75Q89.38 60.88 89.50 60.88L89.50 60.88L94.25 60.88L88.88 68.75Q88.63 69.13 88.56 69.56Q88.50 70 88.50 70.25L88.50 70.25L88.50 72.25Q88.50 72.50 88.69 72.69Q88.88 72.88 89.13 72.75L89.13 72.75Q91.50 71.50 94 71.56Q96.50 71.63 98.63 72.75L98.63 72.75Q98.88 72.88 99.06 72.69Q99.25 72.50 99.25 72.25L99.25 72.25L99.25 70.13Q99.25 69.88 99.19 69.69Q99.13 69.50 98.75 69.25L98.75 69.25Q97.63 68.63 96.31 68.38Q95 68.13 93.75 68.13L93.75 68.13L98.38 61.38Q98.63 60.88 98.81 60.56Q99 60.25 99 60L99 60L99 58.25Q99 58 98.88 57.88Q98.75 57.75 98.50 57.75L98.50 57.75L89.50 57.75ZM106.75 60.50L106.75 60.50Q107.38 60.50 107.88 60.81Q108.38 61.13 108.63 61.88L108.63 61.88Q108.88 62.75 108.94 63.75Q109 64.75 109 65.63L109 65.63Q109 67 108.69 68.75Q108.38 70.50 106.75 70.50L106.75 70.50Q105.13 70.50 104.88 68.44Q104.63 66.38 104.63 65L104.63 65Q104.63 63.63 104.94 62.06Q105.25 60.50 106.75 60.50L106.75 60.50ZM46.13 65.75L46.13 65.75L46.13 66.25Q46.13 67.13 46.06 67.81Q46 68.50 45.63 69.25L45.63 69.25Q45.25 69.88 44.75 70.25Q44.25 70.63 43.75 70.63L43.75 70.63Q42.88 70.63 42.44 70Q42 69.38 42 68.50L42 68.50Q42 66.75 43.31 66.25Q44.63 65.75 46.13 65.75L46.13 65.75ZM81.88 65.75L81.88 65.75L81.88 66.25Q81.88 67.13 81.81 67.81Q81.75 68.50 81.38 69.25L81.38 69.25Q81 69.88 80.56 70.25Q80.13 70.63 79.50 70.63L79.50 70.63Q78.75 70.63 78.31 70Q77.88 69.38 77.88 68.50L77.88 68.50Q77.88 66.75 79.13 66.25Q80.38 65.75 81.88 65.75L81.88 65.75ZM101 73.63L99.63 73.63L99.63 75.75L101 75.75L101 73.63ZM59.50 74L59.50 74L59.50 88.63L60.75 88.63L60.75 87.38Q60.88 87.75 61.13 88.06Q61.38 88.38 61.63 88.50L61.63 88.50Q62 88.75 62.31 88.81Q62.63 88.88 63 88.88L63 88.88Q63.63 88.88 64.25 88.56Q64.88 88.25 65.38 87.50L65.38 87.50Q65.88 86.75 66.19 85.69Q66.50 84.63 66.50 83.25L66.50 83.25Q66.50 82.38 66.38 81.63Q66.25 80.88 66 80.25L66 80.25Q65.75 79.63 65.44 79.19Q65.13 78.75 64.75 78.50L64.75 78.50Q64.38 78.13 63.94 77.94Q63.50 77.75 63 77.75L63 77.75Q62.63 77.75 62.31 77.88Q62 78 61.75 78.13L61.75 78.13Q61.50 78.38 61.25 78.63Q61 78.88 60.88 79.25L60.88 79.25L60.88 74L59.50 74ZM72.63 77.50L72.63 77.50Q71.88 77.50 71.31 77.69Q70.75 77.88 70.25 78.25L70.25 78.25Q69.88 78.75 69.69 79.31Q69.50 79.88 69.50 80.50L69.50 80.50Q69.50 80.88 69.56 81.25Q69.63 81.63 69.75 81.88L69.75 81.88Q70 82.25 70.19 82.50Q70.38 82.75 70.63 82.88L70.63 82.88Q70.88 83.13 71.44 83.31Q72 83.50 72.88 83.75L72.88 83.75Q73.38 84 73.69 84.13Q74 84.25 74.25 84.38L74.25 84.38Q74.38 84.63 74.50 84.81Q74.63 85 74.63 85.38L74.63 85.38Q74.63 85.75 74.50 86.06Q74.38 86.38 74.13 86.63L74.13 86.63Q73.88 86.88 73.56 86.94Q73.25 87 72.75 87L72.75 87Q72.25 87 71.94 86.88Q71.63 86.75 71.25 86.50L71.25 86.50Q71 86.25 70.88 85.81Q70.75 85.38 70.63 84.88L70.63 84.88L69.25 85.13Q69.50 86.88 70.38 87.69Q71.25 88.50 72.63 88.50L72.63 88.50Q73.50 88.50 74.06 88.31Q74.63 88.13 75.13 87.63L75.13 87.63Q75.63 87.13 75.81 86.50Q76 85.88 76 85.13L76 85.13Q76 84.75 75.94 84.38Q75.88 84 75.75 83.75L75.75 83.75Q75.63 83.38 75.44 83.19Q75.25 83 75 82.75L75 82.75Q74.75 82.63 74.19 82.38Q73.63 82.13 72.75 81.88L72.75 81.88Q72.13 81.63 71.75 81.50Q71.38 81.38 71.25 81.25L71.25 81.25Q71 81 70.94 80.81Q70.88 80.63 70.88 80.25L70.88 80.25Q70.88 80 70.94 79.75Q71 79.50 71.25 79.25L71.25 79.25Q71.50 79.13 71.81 79Q72.13 78.88 72.63 78.88L72.63 78.88Q73.38 78.88 73.81 79.31Q74.25 79.75 74.38 80.63L74.38 80.63L75.75 80.38Q75.63 79.88 75.50 79.44Q75.38 79 75.25 78.75L75.25 78.75Q75 78.50 74.75 78.25Q74.50 78 74.13 77.75L74.13 77.75Q73.88 77.63 73.44 77.56Q73 77.50 72.63 77.50L72.63 77.50ZM81 77.50L81 77.50Q80.25 77.50 79.56 77.81Q78.88 78.13 78.25 78.88L78.25 78.88Q77.75 79.63 77.50 80.69Q77.25 81.75 77.25 83.13L77.25 83.13Q77.25 84.38 77.50 85.44Q77.75 86.50 78.25 87.13L78.25 87.13Q78.88 87.88 79.56 88.19Q80.25 88.50 81.13 88.50L81.13 88.50Q81.75 88.50 82.31 88.31Q82.88 88.13 83.38 87.63L83.38 87.63Q83.88 87.25 84.19 86.63Q84.50 86 84.75 85.13L84.75 85.13L83.25 84.88Q83 86 82.44 86.50Q81.88 87 81.13 87L81.13 87Q80.63 87 80.19 86.81Q79.75 86.63 79.38 86.13L79.38 86.13Q79.13 85.75 78.88 85.06Q78.63 84.38 78.63 83.50L78.63 83.50L84.75 83.50L84.75 83Q84.75 81.63 84.50 80.63Q84.25 79.63 83.63 78.88L83.63 78.88Q83.13 78.13 82.50 77.81Q81.88 77.50 81 77.50L81 77.50ZM89.50 77.50L89.50 77.50Q89.25 77.50 89 77.56Q88.75 77.63 88.63 77.75L88.63 77.75Q88.38 78 88.19 78.38Q88 78.75 87.75 79.25L87.75 79.25L87.75 77.63L86.50 77.63L86.50 88.25L87.88 88.25L87.88 82.75Q87.88 82.13 87.94 81.56Q88 81 88.13 80.50L88.13 80.50Q88.13 80.25 88.31 80Q88.50 79.75 88.63 79.63L88.63 79.63Q88.75 79.50 89 79.38Q89.25 79.25 89.38 79.25L89.38 79.25Q89.63 79.25 89.88 79.38Q90.13 79.50 90.38 79.75L90.38 79.75L90.88 78Q90.50 77.75 90.19 77.63Q89.88 77.50 89.50 77.50L89.50 77.50ZM106.50 77.50L106.50 77.50Q105.63 77.50 104.94 77.81Q104.25 78.13 103.75 78.88L103.75 78.88Q103.25 79.50 102.94 80.56Q102.63 81.63 102.63 83L102.63 83Q102.63 84.38 102.94 85.44Q103.25 86.50 103.75 87.13L103.75 87.13Q104.25 87.88 104.94 88.19Q105.63 88.50 106.38 88.50L106.38 88.50Q107 88.50 107.56 88.25Q108.13 88 108.63 87.50L108.63 87.50Q109.13 87 109.44 86.31Q109.75 85.63 109.88 84.63L109.88 84.63L108.50 84.38Q108.38 85.13 108.19 85.63Q108 86.13 107.75 86.38L107.75 86.38Q107.50 86.75 107.13 86.88Q106.75 87 106.38 87L106.38 87Q105.88 87 105.44 86.81Q105 86.63 104.75 86.13L104.75 86.13Q104.38 85.63 104.25 84.81Q104.13 84 104.13 83L104.13 83Q104.13 81.88 104.25 81.13Q104.38 80.38 104.75 79.88L104.75 79.88Q105.13 79.38 105.56 79.13Q106 78.88 106.50 78.88L106.50 78.88Q106.88 78.88 107.13 79Q107.38 79.13 107.63 79.50L107.63 79.50Q107.88 79.75 108.06 80.13Q108.25 80.50 108.38 81.13L108.38 81.13L109.63 80.75Q109.50 80 109.25 79.38Q109 78.75 108.63 78.25L108.63 78.25Q108.13 77.88 107.63 77.69Q107.13 77.50 106.50 77.50L106.50 77.50ZM114.38 77.50L114.38 77.50Q113.50 77.50 112.81 77.81Q112.13 78.13 111.63 78.88L111.63 78.88Q111 79.63 110.75 80.69Q110.50 81.75 110.50 83.13L110.50 83.13Q110.50 84.38 110.75 85.44Q111 86.50 111.63 87.13L111.63 87.13Q112.13 87.88 112.81 88.19Q113.50 88.50 114.38 88.50L114.38 88.50Q115.13 88.50 115.69 88.31Q116.25 88.13 116.75 87.63L116.75 87.63Q117.13 87.25 117.50 86.63Q117.88 86 118 85.13L118 85.13L116.63 84.88Q116.25 86 115.75 86.50Q115.25 87 114.38 87L114.38 87Q113.88 87 113.50 86.81Q113.13 86.63 112.75 86.13L112.75 86.13Q112.38 85.75 112.19 85.06Q112 84.38 112 83.50L112 83.50L118 83.50L118 83Q118 81.63 117.75 80.63Q117.50 79.63 117 78.88L117 78.88Q116.50 78.13 115.81 77.81Q115.13 77.50 114.38 77.50ZM122.50 77.50L122.50 77.50Q121.88 77.50 121.31 77.69Q120.75 77.88 120.25 78.25L120.25 78.25Q119.88 78.75 119.69 79.31Q119.50 79.88 119.50 80.50L119.50 80.50Q119.50 80.88 119.56 81.25Q119.63 81.63 119.75 81.88L119.75 81.88Q119.88 82.25 120.13 82.50Q120.38 82.75 120.63 82.88L120.63 82.88Q120.88 83.13 121.44 83.31Q122 83.50 122.75 83.75L122.75 83.75Q123.38 84 123.69 84.13Q124 84.25 124.25 84.38L124.25 84.38Q124.38 84.63 124.50 84.81Q124.63 85 124.63 85.38L124.63 85.38Q124.63 85.75 124.50 86.06Q124.38 86.38 124.13 86.63L124.13 86.63Q123.88 86.88 123.56 86.94Q123.25 87 122.75 87L122.75 87Q122.25 87 121.88 86.88Q121.50 86.75 121.25 86.50L121.25 86.50Q121 86.25 120.81 85.81Q120.63 85.38 120.63 84.88L120.63 84.88L119.25 85.13Q119.50 86.88 120.31 87.69Q121.13 88.50 122.63 88.50L122.63 88.50Q123.38 88.50 124 88.31Q124.63 88.13 125.13 87.63L125.13 87.63Q125.63 87.13 125.81 86.50Q126 85.88 126 85.13L126 85.13Q126 84.75 125.94 84.38Q125.88 84 125.75 83.75L125.75 83.75Q125.63 83.38 125.44 83.19Q125.25 83 125 82.75L125 82.75Q124.75 82.63 124.19 82.38Q123.63 82.13 122.75 81.88L122.75 81.88Q122.13 81.63 121.75 81.50Q121.38 81.38 121.25 81.25L121.25 81.25Q121 81 120.88 80.81Q120.75 80.63 120.75 80.25L120.75 80.25Q120.75 80 120.88 79.75Q121 79.50 121.25 79.25L121.25 79.25Q121.50 79.13 121.81 79Q122.13 78.88 122.63 78.88L122.63 78.88Q123.38 78.88 123.81 79.31Q124.25 79.75 124.38 80.63L124.38 80.63L125.75 80.38Q125.63 79.88 125.50 79.44Q125.38 79 125.25 78.75L125.25 78.75Q125 78.50 124.75 78.25Q124.50 78 124.13 77.75L124.13 77.75Q123.88 77.63 123.44 77.56Q123 77.50 122.50 77.50ZM92.38 77.63L90.88 77.63L94 88.25L95.25 88.25L98.38 77.63L97 77.63L95.13 84.13Q95 84.75 94.88 85.25Q94.75 85.75 94.63 86.25L94.63 86.25Q94.50 85.63 94.38 85.06Q94.25 84.50 94.13 84L94.13 84L92.38 77.63ZM101 77.63L99.63 77.63L99.63 88.25L101 88.25L101 77.63ZM54.13 77.75L54.13 77.75Q53.25 77.75 52.56 78.13Q51.88 78.50 51.38 79.25L51.38 79.25Q50.88 80 50.56 81.06Q50.25 82.13 50.25 83.50L50.25 83.50Q50.25 84.75 50.50 85.75Q50.75 86.75 51.38 87.50L51.38 87.50Q51.88 88.25 52.56 88.56Q53.25 88.88 54.13 88.88L54.13 88.88Q54.88 88.88 55.44 88.69Q56 88.50 56.38 88L56.38 88Q56.88 87.63 57.19 87Q57.50 86.38 57.75 85.50L57.75 85.50L56.38 85.25Q56 86.38 55.44 86.88Q54.88 87.38 54.13 87.38L54.13 87.38Q53.63 87.38 53.25 87.19Q52.88 87 52.50 86.50L52.50 86.50Q52.13 86.13 51.94 85.44Q51.75 84.75 51.75 83.88L51.75 83.88L57.75 83.88L57.75 83.38Q57.75 82 57.50 81Q57.25 80 56.75 79.25L56.75 79.25Q56.13 78.50 55.50 78.13Q54.88 77.75 54.13 77.75L54.13 77.75ZM38.50 78L38.50 78L41 88.63L42.38 88.63L44.13 80.50L44.38 82.38L45.63 88.63L47.13 88.63L49.63 78L48.25 78L46.88 84.25L46.50 86.25L46 84.25L44.75 78L43.38 78L42.13 84.25L41.63 86.50L41.25 84.25L39.88 78L38.50 78ZM81 78.88L81 78.88Q81.50 78.88 81.94 79.13Q82.38 79.38 82.75 79.88L82.75 79.88Q83 80.25 83.13 80.75Q83.25 81.25 83.25 82L83.25 82L78.75 82Q78.75 81.25 78.94 80.69Q79.13 80.13 79.50 79.75L79.50 79.75Q79.75 79.38 80.13 79.13Q80.50 78.88 81 78.88L81 78.88ZM114.38 78.88L114.38 78.88Q114.88 78.88 115.31 79.13Q115.75 79.38 116 79.88L116 79.88Q116.25 80.25 116.38 80.75Q116.50 81.25 116.63 82L116.63 82L112 82Q112 81.25 112.19 80.69Q112.38 80.13 112.75 79.75L112.75 79.75Q113.13 79.38 113.50 79.13Q113.88 78.88 114.38 78.88L114.38 78.88ZM54.13 79.25L54.13 79.25Q54.63 79.25 55 79.50Q55.38 79.75 55.75 80.25L55.75 80.25Q56 80.63 56.13 81.13Q56.25 81.63 56.38 82.38L56.38 82.38L51.75 82.38Q51.88 81.63 52.06 81.06Q52.25 80.50 52.50 80.13L52.50 80.13Q52.88 79.75 53.25 79.50Q53.63 79.25 54.13 79.25ZM62.88 79.25L62.88 79.25Q63.38 79.25 63.75 79.50Q64.13 79.75 64.50 80.25L64.50 80.25Q64.75 80.75 64.88 81.50Q65 82.25 65 83.38L65 83.38Q65 84.38 64.88 85.13Q64.75 85.88 64.38 86.38L64.38 86.38Q64.13 86.88 63.69 87.13Q63.25 87.38 62.88 87.38L62.88 87.38Q62.63 87.38 62.31 87.31Q62 87.25 61.75 87L61.75 87Q61.50 86.75 61.31 86.44Q61.13 86.13 61 85.75L61 85.75Q60.88 85.38 60.75 84.75Q60.63 84.13 60.63 83.25L60.63 83.25Q60.63 82.25 60.81 81.56Q61 80.88 61.38 80.38L61.38 80.38Q61.75 79.88 62.13 79.56Q62.50 79.25 62.88 79.25L62.88 79.25ZM18.63 68L18.63 68L13.25 70.38L18.25 72.38L23.88 70.38L18.63 68ZM18.25 73.88L10.63 70.88L10.50 81.13L18.25 84.50L18.25 73.88ZM26.50 80.75L26.50 70.88L19.50 73.50L19.50 83.50L26.50 80.75ZM40.13 41.38L34.88 39.13L29.63 41.38L34.50 43.50L40.13 41.38ZM27.50 42.13L27.50 42.13L27.50 52.38L34.13 54.25L34.38 44.88L27.50 42.13ZM42.25 42.63L42.25 42.63L36 45.38L36 55.38L42.25 52.50L42.25 42.63ZM15.13 55.75L9.88 53.50L4.63 55.75L9.50 57.88L15.13 55.75ZM1.88 56.25L1.88 56.25L1.75 66.50L9.50 70L9.50 59.38L1.88 56.25ZM17.88 66.13L17.88 56.25L10.88 59L10.88 69L17.88 66.13ZM32.25 55.38L26.88 53.13L21.63 55.38L26.50 57.50L32.25 55.38ZM26.50 59L19 55.88L18.75 66.13L26.50 69.63L26.50 59ZM34.88 55.88L34.88 55.88L27.88 58.63L27.88 68.63L34.88 65.75L34.88 55.88ZM56.88 41.38L51.50 39.13L46.25 41.38L51.13 43.50L56.88 41.38ZM43.63 41.88L43.63 41.88L43.38 52.13L51.13 55.50L51.13 44.88L43.63 41.88ZM59.50 41.88L59.50 41.88L52.50 44.63L52.50 54.63L59.50 51.75L59.50 41.88Z"/></svg>