<svg xmlns="http://www.w3.org/2000/svg" xmlns:xlink="http://www.w3.org/1999/xlink" width="128" height="128"><path fill="#000000" d="M37 35.50L37 35.50Q37.63 42.38 38.25 49.31Q38.88 56.25 39.63 63.25L39.63 63.25Q40.75 61.38 41.63 59.63Q42.50 57.88 43.63 56.38L43.63 56.38Q44.75 55 46.13 53.81Q47.50 52.63 49 51.75L49 51.75Q51 50.63 53.19 51.50Q55.38 52.38 56 54.38L56 54.38Q56.13 54.88 55.88 55.56Q55.63 56.25 55.50 56.88L55.50 56.88Q55 56.63 54.44 56.44Q53.88 56.25 53.63 55.88L53.63 55.88Q52.25 54.13 51.25 54Q50.25 53.88 48.75 55.25L48.75 55.25Q46 58 44.38 61.31Q42.75 64.63 42.13 68.38L42.13 68.38Q42 69.13 42.31 69.94Q42.63 70.75 42.88 71.50L42.88 71.50Q43.63 71.25 44.44 71.06Q45.25 70.88 45.88 70.38L45.88 70.38Q47.88 68.88 49.13 66.88Q50.38 64.88 51.13 62.50L51.13 62.50Q51.25 62 51.88 61.63Q52.50 61.25 53 60.75L53 60.75Q53.25 61.25 53.63 61.81Q54 62.38 53.88 62.75L53.88 62.75Q52.88 66.38 51.75 70Q50.63 73.63 49.38 77.25L49.38 77.25Q49.25 77.50 48.75 77.75Q48.25 78 47.75 78.25L47.75 78.25Q47.63 77.75 47.38 77.31Q47.13 76.88 47.13 76.38L47.13 76.38Q47.25 75.38 47.56 74.38Q47.88 73.38 48.13 72.50L48.13 72.50L40.88 75.75Q41.13 79.25 41.44 83.06Q41.75 86.88 42.13 90.75L42.13 90.75Q42.50 93.75 43.31 94.81Q44.13 95.88 47.13 96.50L47.13 96.50Q50.50 97.13 53.94 97.56Q57.38 98 60.88 98.25L60.88 98.25Q66 98.63 71.06 98.19Q76.13 97.75 81.13 96.38L81.13 96.38Q83 95.88 83.81 94.69Q84.63 93.50 84.75 91.63L84.75 91.63Q84.88 90 85.13 88.31Q85.38 86.63 85.50 85L85.50 85Q85.88 81.63 86.25 78.31Q86.63 75 87 71.63L87 71.63Q85.75 72.38 84.69 73.19Q83.63 74 82.50 74.38L82.50 74.38Q81.63 74.63 80.63 74.38Q79.63 74.13 78.63 74L78.63 74Q78.88 73.13 78.94 72.19Q79 71.25 79.50 70.50L79.50 70.50Q80.13 69.38 81.06 68.25Q82 67.13 82.88 66L82.88 66L82.38 65.50Q81.75 65.75 81.06 66.06Q80.38 66.38 79.88 66.88L79.88 66.88Q79 68 78.19 69.13Q77.38 70.25 76.75 71.50L76.75 71.50Q75.75 73.50 74.94 75.63Q74.13 77.75 73.25 79.88L73.25 79.88Q72.88 80.75 72.38 81.75Q71.88 82.75 70.63 82.25L70.63 82.25Q69.25 81.63 69.69 80.63Q70.13 79.63 70.50 78.75L70.50 78.75Q71 77.38 71.63 76.06Q72.25 74.75 72.75 73.75L72.75 73.75Q71.38 73.88 70.06 74.06Q68.75 74.25 67.38 74.38L67.38 74.38Q66.88 74.38 66.25 74.25Q65.63 74.13 65.13 74.25L65.13 74.25Q63.63 75 62.69 74.63Q61.75 74.25 61.38 72.63L61.38 72.63Q60.63 73 60 73.56Q59.38 74.13 58.63 74.25L58.63 74.25Q57.88 74.50 56.81 74.50Q55.75 74.50 55.13 74.13L55.13 74.13Q54.63 73.75 54.44 72.69Q54.25 71.63 54.50 70.88L54.50 70.88Q54.75 69.38 55.38 67.94Q56 66.50 56.63 65.13L56.63 65.13Q57 64.13 57.50 63.19Q58 62.25 59.25 62.88L59.25 62.88Q60.50 63.38 59.94 64.31Q59.38 65.25 59 66.13L59 66.13Q58.63 67.38 58.13 68.63Q57.63 69.88 57.25 71.25L57.25 71.25L58.25 71.75Q58.88 71.13 59.63 70.63Q60.38 70.13 60.88 69.38L60.88 69.38Q61.63 68.13 62.19 66.81Q62.75 65.50 63.50 64.25L63.50 64.25Q63.88 63.75 64.44 63.44Q65 63.13 65.50 62.75L65.50 62.75Q65.63 63.38 65.81 64Q66 64.63 65.88 65.25L65.88 65.25Q65.75 65.88 65.44 66.50Q65.13 67.13 64.88 67.75L64.88 67.75Q64.63 68.63 64.31 69.63Q64 70.63 63.75 71.63L63.75 71.63Q65.25 71.75 66 71.13Q66.75 70.50 67.25 69.38L67.25 69.38Q68.50 65.75 69.94 62.19Q71.38 58.63 72.88 55.13L72.88 55.13Q73.13 54.50 73.88 54.06Q74.63 53.63 75.13 53.25L75.13 53.25Q75.25 53.88 75.44 54.69Q75.63 55.50 75.38 56.13L75.38 56.13Q74.13 59.38 72.81 62.56Q71.50 65.75 70.13 69L70.13 69Q69.88 69.63 69.81 70.19Q69.75 70.75 69.63 71.38L69.63 71.38Q71.88 70.25 73.63 68.94Q75.38 67.63 76.13 65.25L76.13 65.25Q76.25 64.63 76.88 64.13Q77.50 63.63 77.88 63.13L77.88 63.13L79.25 64.63Q79.63 64.38 79.94 64.06Q80.25 63.75 80.63 63.50L80.63 63.50Q81.75 62.88 82.88 62.50Q84 62.13 85.25 63.25L85.25 63.25Q86.38 64.38 85.88 65.50Q85.38 66.63 84.75 67.50L84.75 67.50Q84.13 68.63 83.31 69.63Q82.50 70.63 81.75 71.63L81.75 71.63Q83.38 70.50 85.31 69.56Q87.25 68.63 87.63 66.25L87.63 66.25Q88.38 60.38 89.06 54.44Q89.75 48.50 90.38 42.63L90.38 42.63Q90.63 40.88 90.75 39.13Q90.88 37.38 91 35.50L91 35.50Q84.25 37.13 77.50 38L77.50 38Q70.75 38.88 64 38.88Q57.25 38.88 50.50 38L50.50 38Q43.75 37.13 37 35.50L37 35.50ZM44.75 96.88L44.75 96.88Q45.50 98.63 46.31 100.31Q47.13 102 47.38 103.88L47.38 103.88Q47.88 107.75 48.13 111.63Q48.38 115.50 48.75 119.38L48.75 119.38Q48.88 120 49.19 120.63Q49.50 121.25 50 121.50L50 121.50Q56.75 125.13 63.50 125.50Q70.25 125.88 77.13 121.88L77.13 121.88Q78.25 121.25 78.56 120.50Q78.88 119.75 79 118.63L79 118.63Q79.63 113.25 79.38 107.69Q79.13 102.13 82.50 97L82.50 97Q72.88 99.38 63.44 99.44Q54 99.50 44.75 96.88L44.75 96.88ZM75.75 36.75L75.75 36.75Q79 36.38 82.25 35.75Q85.50 35.13 88.75 34.50L88.75 34.50Q89.38 34.38 89.94 34Q90.50 33.63 91 33.25L91 33.25Q90.25 32.63 89.63 32.25Q89 31.88 88.25 31.88L88.25 31.88Q84.88 31.50 81.44 31.13Q78 30.75 74.63 30.38L74.63 30.38Q74.13 30.25 73.44 29.81Q72.75 29.38 72.75 29.25L72.75 29.25Q73.75 26.25 74.31 23.13Q74.88 20 77.13 17.38L77.13 17.38Q79.88 14.25 82.75 11.06Q85.63 7.88 88.50 4.75L88.50 4.75Q86.38 2.50 85.69 2.44Q85 2.38 83 4.38L83 4.38Q82 5.50 80.94 6.69Q79.88 7.88 78.75 8.88L78.75 8.88Q74.38 12.63 71.50 17.25Q68.63 21.88 68 27.75L68 27.75Q67.88 29.13 67.13 29.69Q66.38 30.25 65 30.25L65 30.25Q60.25 30.38 55.56 30.50Q50.88 30.63 46.25 30.88L46.25 30.88Q43.88 31.13 41.56 31.63Q39.25 32.13 37 32.50L37 32.50L37 33.63Q38.38 34 39.81 34.56Q41.25 35.13 42.75 35.38L42.75 35.38Q50.88 36.88 59.19 37.19Q67.50 37.50 75.75 36.75L75.75 36.75ZM65.75 34L72.25 34Q70.38 35.50 68.81 35.50Q67.25 35.50 65.75 34L65.75 34Z"/></svg>