<svg xmlns="http://www.w3.org/2000/svg" xmlns:xlink="http://www.w3.org/1999/xlink" width="128" height="128"><path fill="#000000" d="M79 63.88L79 63.88Q78.50 65.88 77.50 67.56Q76.50 69.25 75.25 70.63L75.25 70.63L75.25 55.75Q75.25 54.88 74.69 54.38Q74.13 53.88 73.25 53.88L73.25 53.88Q73.25 53.88 73.13 53.88Q73 53.88 73 53.88L73 53.88Q72.50 53.88 72.19 54.06Q71.88 54.25 71.88 54.63L71.88 54.63Q72 54.88 72 55.25Q72 55.63 72 55.88L72 55.88Q72 55.88 72 55.88Q72 55.88 72 56L72 56L72 62.75Q71.63 65 70.69 66.75Q69.75 68.50 68.50 68.50L68.50 68.50Q67.63 68.50 67.06 67.63Q66.50 66.75 66.50 65L66.50 65Q66.50 62.75 66.81 60.50Q67.13 58.25 67.75 56.25L67.75 56.25Q67.88 55.88 68.25 55Q68.63 54.13 67.13 54.13L67.13 54.13Q65.38 54.13 65.19 54.63Q65 55.13 64.88 55.63L64.88 55.63Q64.25 57.75 63.88 60.19Q63.50 62.63 63.38 65.13L63.38 65.13Q63.38 68 64.50 69.63Q65.63 71.25 67.75 71.25L67.75 71.25Q69.13 71.25 70.13 70.44Q71.13 69.63 72 68.38L72 68.38L72 73.75Q69.88 75.63 68.31 77.56Q66.75 79.50 66.75 82.63L66.75 82.63Q66.75 84.75 67.88 86.13Q69 87.50 70.75 87.50L70.75 87.50Q72.38 87.50 73.75 86.19Q75.13 84.88 75.13 81.50L75.13 81.50L75.13 74.25Q77.38 72.38 78.94 70Q80.50 67.63 81.38 64.88L81.38 64.88Q81.38 64.75 81.38 64.69Q81.38 64.63 81.38 64.50L81.38 64.50Q81.38 64.50 81.38 64.44Q81.38 64.38 81.38 64.38L81.38 64.38Q81.38 63.75 81 63.25Q80.63 62.75 80 62.63L80 62.63Q79.75 62.63 79.44 62.94Q79.13 63.25 79 63.88L79 63.88ZM70.75 84.88L70.88 84.88Q70.38 84.88 70.06 84.19Q69.75 83.50 69.75 82.50L69.75 82.50Q69.75 82.50 69.75 82.44Q69.75 82.38 69.75 82.38L69.75 82.38Q69.75 80.75 70.38 79.38Q71 78 72 77L72 77L72 81.50Q72 82.13 71.94 83.50Q71.88 84.88 70.75 84.88L70.75 84.88ZM91.13 68.50L91.13 68.50Q90.38 68.50 90.06 67.88Q89.75 67.25 89.75 66.50L89.75 66.50L89.75 59.50Q89.63 58.63 89.06 58.13Q88.50 57.63 87.75 57.63L87.75 57.63Q87.63 57.63 87.56 57.63Q87.50 57.63 87.38 57.63L87.38 57.63Q87 57.63 86.69 57.81Q86.38 58 86.38 58.25L86.38 58.25Q86.38 58.63 86.44 58.94Q86.50 59.25 86.50 59.63L86.50 59.63L86.50 66.25Q86.13 67.13 85.56 67.75Q85 68.38 84.13 68.38L84.13 68.38Q83 68.38 82.38 67.50Q81.75 66.63 81.75 65L81.75 65Q81.75 60.38 84 58.25Q86.25 56.13 88.75 56.13L88.75 56.13Q89 56.13 89.31 56.13Q89.63 56.13 89.88 56.13L89.88 56.13Q90.25 56.13 90.38 55.94Q90.50 55.75 90.50 55.13L90.50 55.13Q90.50 55.13 90.50 55.13Q90.50 55.13 90.50 55.13L90.50 55.13Q90.50 54.38 90 53.88Q89.50 53.38 88.75 53.38L88.75 53.38Q88.63 53.38 88.56 53.38Q88.50 53.38 88.50 53.38L88.50 53.38Q84.63 53.38 81.50 56.44Q78.38 59.50 78.38 64.75L78.38 64.75Q78.38 67.50 79.69 69.38Q81 71.25 83.38 71.25L83.38 71.25Q84.50 71.25 85.44 70.75Q86.38 70.25 87.13 69.50L87.13 69.50Q87.63 70.25 88.44 70.75Q89.25 71.25 90.25 71.25L90.25 71.25Q90.25 71.25 90.31 71.25Q90.38 71.25 90.38 71.25L90.38 71.25Q93.13 71.25 94.50 68.94Q95.88 66.63 96.38 64.63L96.38 64.63Q96.38 64.50 96.38 64.50Q96.38 64.50 96.38 64.38L96.38 64.38Q96.38 64.38 96.38 64.31Q96.38 64.25 96.38 64.25L96.38 64.25Q96.38 63.63 96 63.19Q95.63 62.75 95 62.63L95 62.63Q94.75 62.63 94.44 62.94Q94.13 63.25 94 63.88L94 63.88Q93.75 65.25 93.06 66.88Q92.38 68.50 91.13 68.50L91.13 68.50ZM103.38 71.25L103.38 71.25Q106.13 71.25 107.50 69Q108.88 66.75 109.50 64.63L109.50 64.63Q109.50 64.63 109.50 64.56Q109.50 64.50 109.50 64.38L109.50 64.38Q109.50 63.75 109.06 63.25Q108.63 62.75 108 62.63L108 62.63Q107.75 62.63 107.44 62.94Q107.13 63.25 107 63.88L107 63.88Q106.75 65.25 106.06 66.88Q105.38 68.50 104 68.50L104 68.50Q103.13 68.50 102.69 67.75Q102.25 67 102.25 66.13L102.25 66.13Q102.25 63 103.19 59.88Q104.13 56.75 104.13 56.38L104.13 56.38Q104.25 55.63 103.38 54.81Q102.50 54 102.13 54L102.13 54L100 54Q99.38 54 98.75 53.94Q98.13 53.88 97.63 53.88L97.63 53.88Q97.50 52.88 96.75 52.25Q96 51.63 95 51.63L95 51.63Q95 51.63 95 51.63Q95 51.63 95 51.63L95 51.63Q95 51.63 94.94 51.63Q94.88 51.63 94.88 51.63L94.88 51.63Q94 51.63 93.44 52.19Q92.88 52.75 92.88 53.63L92.88 53.63Q92.88 53.63 92.88 53.63Q92.88 53.63 92.88 53.63L92.88 53.63Q92.88 54.50 93.38 55.25Q93.88 56 94.63 56.38L94.63 56.38Q94.75 58.25 94.56 60.19Q94.38 62.13 94 63.88L94 63.88Q93.75 64.75 94.88 65.50Q96 66.25 96.38 64.88L96.38 64.88Q96.88 63.13 97.19 61.13Q97.50 59.13 97.50 57L97.50 57L101.13 57Q100.25 59.13 99.69 61.44Q99.13 63.75 99 66.38L99 66.38Q99 69.13 100.44 70.19Q101.88 71.25 103.38 71.25L103.38 71.25ZM107.13 69.38L107.25 69.38Q107.25 69.38 107.25 69.44Q107.25 69.50 107.25 69.50L107.25 69.50Q107.25 70.25 107.75 70.75Q108.25 71.25 109 71.25L109 71.25Q109 71.25 109.06 71.25Q109.13 71.25 109.25 71.25L109.25 71.25Q110.13 71.25 110.25 70.63Q110.38 70 110.38 69.50L110.38 69.50L110.38 63.25Q110.63 60.75 112.13 58.50Q113.63 56.25 114.50 56.25L114.50 56.25Q115.13 56.25 115.31 56.94Q115.50 57.63 115.50 58.63L115.50 58.63L115.50 67.25Q115.50 68.88 116.44 70.06Q117.38 71.25 119 71.25L119 71.25Q121.75 71.25 123.19 69Q124.63 66.75 125.25 64.63L125.25 64.63Q125.25 64.63 125.25 64.56Q125.25 64.50 125.25 64.50L125.25 64.50Q125.25 64.50 125.25 64.44Q125.25 64.38 125.25 64.38L125.25 64.38Q125.13 63.75 124.75 63.25Q124.38 62.75 123.75 62.63L123.75 62.63Q123.38 62.63 123.13 62.94Q122.88 63.25 122.75 63.88L122.75 63.88Q122.38 65.25 121.69 66.88Q121 68.50 119.75 68.50L119.75 68.50Q118.88 68.50 118.75 67.63Q118.63 66.75 118.63 66.50L118.63 66.50L118.63 57.75Q118.63 56.25 117.94 54.81Q117.25 53.38 115.13 53.38L115.13 53.38Q113.63 53.38 112.44 54.63Q111.25 55.88 110.38 57.63L110.38 57.63L110.38 55.75Q110.38 54.88 109.81 54.38Q109.25 53.88 108.38 53.88L108.38 53.88Q108.38 53.88 108.25 53.88Q108.13 53.88 108.13 53.88L108.13 53.88Q107.63 53.88 107.31 54.06Q107 54.25 107 54.63L107 54.63Q107.13 54.88 107.13 55.19Q107.13 55.50 107.13 55.88L107.13 55.88L107.13 69.38ZM45.38 71.25L45.38 71.25Q44 71.38 42.69 71.88Q41.38 72.38 40.38 73.13L40.38 73.13Q38.50 74.38 37.50 74.50Q36.50 74.63 36.50 74.63L36.50 74.63L36.50 74.63Q36.38 74.38 36.69 72.63Q37 70.88 36.25 68.63L36.25 68.63Q35.25 66 34.13 65.13Q33 64.25 33.25 64.13L33.25 64.13Q34.25 62.75 35 61.19Q35.75 59.63 36.13 58L36.13 58Q36.50 56.38 36.38 54.19Q36.25 52 35.63 50.75L35.63 50.75Q35.50 50.50 34.75 50.88Q34 51.25 34 51.25L34 51.25Q33.50 50.38 33.06 49.50Q32.63 48.63 32.13 47.88L32.13 47.88Q31.25 47.38 30.38 49.31Q29.50 51.25 29.50 51.25L29.50 51.25Q29.38 51.25 29.25 51.25Q29.13 51.25 29 51.25L29 51.25Q27.63 51.25 26.44 51.81Q25.25 52.38 24.50 53.25L24.50 53.25Q24.13 53.63 23.69 53.88Q23.25 54.13 22.75 54.25L22.75 54.25Q22.63 54.38 22.44 54.50Q22.25 54.63 21.88 55.75L21.88 55.75Q21.25 57.50 22.25 59Q23.25 60.50 23.25 60.50L23.25 60.50Q22.13 61.38 21.19 62.38Q20.25 63.38 19.63 64.63L19.63 64.63Q19.25 65.63 19 66.69Q18.75 67.75 18.75 68.88L18.75 68.88Q18.75 69.13 18.75 69.38Q18.75 69.63 18.88 69.88L18.88 69.88Q18.88 70.13 17.88 71Q16.88 71.88 16.88 73.13L16.88 73.13Q16.88 73.25 16.81 73.38Q16.75 73.50 16.75 73.75L16.75 73.75Q16.75 74.50 17 75.25Q17.25 76 17.63 76.63L17.63 76.63Q17.75 76.75 17.94 76.94Q18.13 77.13 18.38 77.13L18.38 77.13Q18.50 77.13 18.56 77.06Q18.63 77 18.75 77L18.75 77Q18.88 76.88 18.31 77.75Q17.75 78.63 18.63 79.13L18.63 79.13Q19.50 79.50 20.63 79.63Q21.75 79.75 22.50 79L22.50 79Q23 78.50 23.19 77.56Q23.38 76.63 23.63 76.13L23.63 76.13Q23.63 76 23.75 76.19Q23.88 76.38 24.13 76.50L24.13 76.50Q24.25 76.63 24.38 76.75Q24.50 76.88 24.63 77L24.63 77Q24.13 77.25 23.81 77.69Q23.50 78.13 23.50 78.63L23.50 78.63Q23.50 78.88 23.56 79.06Q23.63 79.25 23.63 79.38L23.63 79.38Q23.88 79.75 24.44 80Q25 80.25 26.13 80.25L26.13 80.25Q28.13 80.25 30.06 80.06Q32 79.88 33.88 79.63L33.88 79.63Q34 79.50 34.25 79.38Q34.50 79.25 34.63 79L34.63 79Q36.63 78.38 38.31 77.63Q40 76.88 41.50 75.88L41.50 75.88Q42.38 75.13 43.50 74.63Q44.63 74.13 45.88 73.88L45.88 73.88Q46.38 73.75 46.69 73.38Q47 73 47 72.50L47 72.50Q47 72 46.63 71.63Q46.25 71.25 45.63 71.25L45.63 71.25Q45.63 71.25 45.50 71.25Q45.38 71.25 45.38 71.25L45.38 71.25ZM30 37L30 37Q24.38 37 19.50 39.13L19.50 39.13Q14.63 41.25 10.94 44.94Q7.25 48.63 5.13 53.50L5.13 53.50Q3 58.38 3 64L3 64Q3 69.63 5.13 74.50L5.13 74.50Q7.25 79.38 10.94 83.06Q14.63 86.75 19.50 88.88L19.50 88.88Q24.38 91 30 91L30 91Q35.63 91 40.50 88.88L40.50 88.88Q45.38 86.75 49.06 83.06Q52.75 79.38 54.88 74.50L54.88 74.50Q57 69.63 57 64L57 64Q57 58.38 54.88 53.50L54.88 53.50Q52.75 48.63 49.06 44.94Q45.38 41.25 40.50 39.13L40.50 39.13Q35.63 37 30 37ZM46.25 75.25L46.25 75.25Q45.13 75.50 44.06 76Q43 76.50 42.13 77.13L42.13 77.13Q40.63 78.13 39 78.88Q37.38 79.63 35.63 80.25L35.63 80.25Q35.13 80.50 34.69 80.75Q34.25 81 33.75 81L33.75 81Q32.13 81.38 30.13 81.50Q28.13 81.63 26.13 81.75L26.13 81.75L25.88 81.75Q25.75 81.75 25.69 81.75Q25.63 81.75 25.50 81.75L25.50 81.75Q24.63 81.75 23.88 81.44Q23.13 81.13 22.63 80.63L22.63 80.63Q22.13 80.88 21.63 80.94Q21.13 81 20.50 81L20.50 81Q19.75 81 19.06 80.81Q18.38 80.63 17.88 80.38L17.88 80.38Q17.38 80.13 17 79.69Q16.63 79.25 16.50 78.63L16.50 78.63Q16.50 78.50 16.50 78.44Q16.50 78.38 16.50 78.25L16.50 78.25Q16.50 78.13 16.50 78Q16.50 77.88 16.50 77.75L16.50 77.75Q16.50 77.63 16.38 77.50Q16.25 77.38 16.25 77.38L16.25 77.38Q15.75 76.50 15.44 75.56Q15.13 74.63 15.13 73.63L15.13 73.63Q15.13 73.38 15.19 73.25Q15.25 73.13 15.25 72.88L15.25 72.88Q15.38 71.75 15.94 70.81Q16.50 69.88 17.25 69.13L17.25 69.13Q17.25 69 17.25 68.88Q17.25 68.75 17.25 68.50L17.25 68.50Q17.25 67.38 17.44 66.19Q17.63 65 18.13 63.88L18.13 63.88Q18.63 62.88 19.38 61.88Q20.13 60.88 21 60.13L21 60.13Q20.63 59.38 20.38 58.56Q20.13 57.75 20.13 56.88L20.13 56.88Q20.13 56.38 20.19 55.94Q20.25 55.50 20.38 55L20.38 55Q20.75 54 21.13 53.44Q21.50 52.88 22.13 52.63L22.13 52.63L22.13 52.63Q22.50 52.63 22.75 52.44Q23 52.25 23.25 52.13L23.25 52.13Q24.25 51 25.56 50.38Q26.88 49.75 28.38 49.63L28.38 49.63Q28.50 49.50 28.56 49.31Q28.63 49.13 28.75 49L28.75 49Q29 48.13 29.63 47.44Q30.25 46.75 31 46.38L31 46.38Q31.13 46.25 31.31 46.25Q31.50 46.25 31.75 46.25L31.75 46.25Q32.13 46.25 32.38 46.31Q32.63 46.38 32.88 46.63L32.88 46.63Q33.13 46.75 33.50 47.13Q33.88 47.50 34.63 49.25L34.63 49.25Q34.75 49.13 34.94 49.13Q35.13 49.13 35.25 49.13L35.25 49.13Q35.38 49.13 35.56 49.13Q35.75 49.13 35.88 49.25L35.88 49.25Q36.25 49.25 36.50 49.50Q36.75 49.75 36.88 50L36.88 50Q37.63 51.63 37.81 54Q38 56.38 37.63 58.13L37.63 58.13Q37.25 59.75 36.63 61.25Q36 62.75 35 64L35 64Q35.88 64.75 36.50 65.75Q37.13 66.75 37.63 67.88L37.63 67.88Q37.88 68.88 38.06 69.81Q38.25 70.75 38.25 71.75L38.25 71.75Q38.25 72 38.25 72.19Q38.25 72.38 38.25 72.63L38.25 72.63Q38.63 72.38 39 72.19Q39.38 72 39.63 71.75L39.63 71.75Q40.75 70.88 42.25 70.38Q43.75 69.88 45.25 69.75L45.25 69.75Q45.38 69.75 45.44 69.69Q45.50 69.63 45.50 69.63L45.50 69.63Q46.63 69.63 47.38 70.38Q48.13 71.13 48.38 72.13L48.38 72.13Q48.38 72.25 48.38 72.38Q48.38 72.50 48.38 72.50L48.38 72.50Q48.38 73.50 47.75 74.25Q47.13 75 46.25 75.25L46.25 75.25Z"/></svg>