<svg xmlns="http://www.w3.org/2000/svg" xmlns:xlink="http://www.w3.org/1999/xlink" width="128" height="128"><path fill="#ffffff" d="M99.25 80.75L99.25 80.75Q96 80.75 93.13 82.13Q90.25 83.50 87.88 85L87.88 85Q83.38 87.75 81.13 88.13Q78.88 88.50 78.88 88.50L78.88 88.50L78.75 88.25Q78.50 87.75 79.25 83.81Q80 79.88 78.13 74.50L78.13 74.50Q76 68.63 73.44 66.63Q70.88 64.63 71.13 64.13L71.13 64.13Q72.25 62.25 74.56 58.88Q76.88 55.50 78 49.75L78 49.75Q78.75 46.25 78.50 41.38Q78.25 36.50 76.63 33.50L76.63 33.50Q76.38 33 74.63 33.88Q72.88 34.75 72.88 34.75L72.88 34.75Q72.88 34.75 71.19 31.13Q69.50 27.50 68.75 27.13L68.75 27.13Q66.63 25.75 64.69 30.25Q62.75 34.75 62.75 34.75L62.75 34.75Q62.50 34.63 62.13 34.63Q61.75 34.63 61.50 34.63L61.50 34.63Q58.38 34.63 55.69 35.88Q53 37.13 51.13 39.13L51.13 39.13Q50.25 40 49.31 40.56Q48.38 41.13 47.38 41.50L47.38 41.50Q47 41.50 46.50 41.94Q46 42.38 45.13 44.88L45.13 44.88Q43.63 48.75 46 52.25Q48.38 55.75 48.38 55.75L48.38 55.75Q48.38 55.75 45 58.56Q41.63 61.38 40 65.50L40 65.50Q39 67.50 38.56 69.94Q38.13 72.38 38.13 74.88L38.13 74.88Q38.13 75.50 38.13 76.06Q38.13 76.63 38.25 77.25L38.25 77.25Q38.25 77.88 36 79.88Q33.75 81.88 33.50 84.88L33.50 84.88Q33.50 85.13 33.50 85.44Q33.50 85.75 33.50 86L33.50 86Q33.50 87.88 34 89.56Q34.50 91.25 35.38 92.75L35.38 92.75Q35.63 93.13 36.06 93.44Q36.50 93.75 37.13 93.75L37.13 93.75Q37.38 93.75 37.56 93.69Q37.75 93.63 38 93.50L38 93.50Q38.13 93.50 36.94 95.38Q35.75 97.25 37.75 98.38L37.75 98.38Q39.63 99.38 42.31 99.63Q45 99.88 46.63 98.13L46.63 98.13Q47.75 97 48.19 94.81Q48.63 92.63 49.13 91.50L49.13 91.50Q49.25 91.25 49.56 91.75Q49.88 92.25 50.13 92.50L50.13 92.50Q50.50 92.88 50.81 93.06Q51.13 93.25 51.50 93.50L51.50 93.50Q51.88 93.75 49.94 95Q48 96.25 49.25 99L49.25 99Q49.63 100 51 100.56Q52.38 101.13 54.75 101.13L54.75 101.13Q55.63 101.13 62.50 100.69Q69.38 100.25 71.88 99.63L71.88 99.63Q72.63 99.50 73.31 99.13Q74 98.75 74.50 98.13L74.50 98.13Q78.88 96.75 82.81 95Q86.75 93.25 90.25 91L90.25 91Q93.63 88.75 95.63 87.88Q97.63 87 100.50 86.25L100.50 86.25Q102.88 85.75 102.63 83.19Q102.38 80.63 99.25 80.75L99.25 80.75ZM64 2L64 2Q51.13 2 39.88 6.88L39.88 6.88Q28.63 11.75 20.19 20.19Q11.75 28.63 6.88 39.88L6.88 39.88Q2 51.13 2 64L2 64Q2 76.88 6.88 88.13L6.88 88.13Q11.75 99.38 20.19 107.81Q28.63 116.25 39.88 121.13L39.88 121.13Q51.13 126 64 126L64 126Q76.88 126 88.13 121.13L88.13 121.13Q99.38 116.25 107.81 107.81Q116.25 99.38 121.13 88.13L121.13 88.13Q126 76.88 126 64L126 64Q126 51.13 121.13 39.88L121.13 39.88Q116.25 28.63 107.81 20.19Q99.38 11.75 88.13 6.88L88.13 6.88Q76.88 2 64 2ZM101.38 89.88L101.25 89.88Q98.75 90.38 97 91.19Q95.25 92 91.88 94.25L91.88 94.25Q88.50 96.38 84.69 98.13Q80.88 99.88 76.75 101.25L76.75 101.25Q75.75 102 74.75 102.44Q73.75 102.88 72.75 103.13L72.75 103.13Q69.88 103.88 62.69 104.31Q55.50 104.75 54.75 104.75L54.75 104.75L54.50 104.75Q51.50 104.75 49.75 104Q48 103.25 47 102.25L47 102.25Q44.50 103.50 41.50 103.13Q38.50 102.75 36 101.50L36 101.50Q34.88 101 34.13 100Q33.38 99 33 97.63L33 97.63Q33 97.38 33 97.13Q33 96.88 33 96.63L33 96.63Q33 96.38 33 96.06Q33 95.75 33 95.50L33 95.50Q32.88 95.38 32.69 95.13Q32.50 94.88 32.25 94.63L32.25 94.63Q31.13 92.75 30.50 90.63Q29.88 88.50 29.88 86.13L29.88 86.13Q29.88 85.75 29.94 85.31Q30 84.88 30 84.50L30 84.50Q30.25 81.75 31.75 79.38Q33.25 77 34.50 75.75L34.50 75.75Q34.50 75.50 34.50 75.25Q34.50 75 34.50 74.75L34.50 74.75Q34.50 71.75 35.06 69.06Q35.63 66.38 36.63 63.75L36.63 63.75Q37.88 61.25 39.56 59.06Q41.25 56.88 43.38 55L43.38 55Q42.13 52.88 41.31 49.88Q40.50 46.88 41.75 43.63L41.75 43.63Q42.63 41.25 43.50 39.88Q44.38 38.50 46 38L46 38L46 38Q46.75 37.75 47.38 37.44Q48 37.13 48.50 36.63L48.50 36.63Q50.75 34.25 53.75 32.75Q56.75 31.25 60.25 31L60.25 31Q60.50 30.63 60.63 30.25Q60.75 29.88 61 29.50L61 29.50Q62.25 27 63.50 25.50Q64.75 24 66.25 23.50L66.25 23.50Q66.63 23.38 67.06 23.31Q67.50 23.25 68 23.25L68 23.25Q68.75 23.25 69.44 23.44Q70.13 23.63 70.75 24L70.75 24Q71.13 24.38 71.94 25.31Q72.75 26.25 74.63 30L74.63 30Q74.88 29.88 75.31 29.81Q75.75 29.75 76.13 29.75L76.13 29.75Q76.50 29.75 76.81 29.81Q77.13 29.88 77.50 30L77.50 30Q78.25 30.13 78.88 30.63Q79.50 31.13 79.75 31.88L79.75 31.88Q81.63 35.38 82 40.88Q82.38 46.38 81.50 50.50L81.50 50.50Q80.75 54.25 79.25 57.63Q77.75 61 75.63 63.88L75.63 63.88Q77.63 65.75 79.06 68.13Q80.50 70.50 81.38 73L81.38 73Q82.13 75.13 82.56 77.31Q83 79.50 83 81.75L83 81.75Q83 82.25 82.94 82.75Q82.88 83.25 82.88 83.75L82.88 83.75Q83.75 83.25 84.56 82.81Q85.38 82.38 86.13 81.88L86.13 81.88Q88.38 80.50 91.69 78.81Q95 77.13 99.25 77.13L99.25 77.13Q99.25 77.13 99.38 77.13Q99.50 77.13 99.63 77.13L99.63 77.13Q102.13 77.13 104 78.75Q105.88 80.38 106.13 82.75L106.13 82.75Q106.25 83 106.25 83.19Q106.25 83.38 106.25 83.63L106.25 83.63Q106.25 85.88 104.88 87.63Q103.50 89.38 101.38 89.88L101.38 89.88Z"/></svg>