<svg xmlns="http://www.w3.org/2000/svg" xmlns:xlink="http://www.w3.org/1999/xlink" width="128" height="128"><path fill="#000000" d="M61.25 0L61.25 0L66.13 0Q75.88 0.38 85.13 3.63Q94.38 6.88 102.25 12.63L102.25 12.63Q109.50 18.13 115.13 25.56Q120.75 33 123.88 41.63L123.88 41.63Q125.75 46.38 126.69 51.44Q127.63 56.50 128 61.63L128 61.63L128 65.75Q127.75 74.25 125.31 82.50Q122.88 90.75 118.25 97.88L118.25 97.88Q113.13 106 105.75 112.44Q98.38 118.88 89.50 122.75L89.50 122.75Q83.75 125.25 77.56 126.56Q71.38 127.88 65.13 128L65.13 128L62.88 128Q54.13 127.88 45.56 125.31Q37 122.75 29.63 118L29.63 118Q25.50 115.38 21.75 112L21.75 112Q18 108.75 14.81 104.94Q11.63 101.13 9 96.75L9 96.75Q6.50 92.50 4.63 87.88L4.63 87.88Q2.63 82.88 1.50 77.56Q0.38 72.25 0 66.75L0 66.75L0 61.88Q0.25 56.50 1.25 51.13L1.25 51.13Q2.38 45.88 4.31 40.81Q6.25 35.75 9.13 31.13L9.13 31.13Q11.88 26.50 15.38 22.38L15.38 22.38Q21.25 15.63 28.81 10.63Q36.38 5.63 44.88 2.88L44.88 2.88Q48.88 1.63 52.94 0.94Q57 0.25 61.25 0L61.25 0ZM25.25 37.50L25.25 37.50Q25.13 46.63 25.13 55.75Q25.13 64.88 25.13 74L25.13 74Q26.25 74 27.31 74Q28.38 74 29.50 74L29.50 74Q29.38 66.13 29.44 58.31Q29.50 50.50 29.38 42.75L29.38 42.75Q29.75 43.38 30.06 44.06Q30.38 44.75 30.88 45.38L30.88 45.38Q35.50 52.50 40.06 59.69Q44.63 66.88 49.25 74L49.25 74Q50.63 74 51.94 74Q53.25 74 54.50 74L54.50 74Q54.50 64.88 54.50 55.75Q54.50 46.63 54.50 37.50L54.50 37.50Q53.50 37.50 52.44 37.50Q51.38 37.50 50.25 37.50L50.25 37.50Q50.38 45.25 50.31 53Q50.25 60.75 50.38 68.50L50.38 68.50Q45.50 60.75 40.56 53Q35.63 45.25 30.75 37.50L30.75 37.50Q29.38 37.50 28 37.50Q26.63 37.50 25.25 37.50L25.25 37.50ZM64 37.50L64 37.50Q64 46.63 64 55.75Q64 64.88 64 74L64 74Q68.88 74 73.69 74Q78.50 74 83.38 74L83.38 74Q83.38 73 83.38 72Q83.38 71 83.38 70L83.38 70Q79.63 70 75.88 70Q72.13 70 68.38 70L68.38 70Q68.38 66.88 68.38 63.69Q68.38 60.50 68.38 57.38L68.38 57.38Q71.63 57.25 74.94 57.31Q78.25 57.38 81.50 57.38L81.50 57.38Q81.50 56.38 81.50 55.44Q81.50 54.50 81.50 53.50L81.50 53.50Q78.25 53.63 74.94 53.56Q71.63 53.50 68.38 53.50L68.38 53.50Q68.38 50.50 68.38 47.44Q68.38 44.38 68.38 41.38L68.38 41.38Q71.88 41.38 75.38 41.38Q78.88 41.38 82.50 41.38L82.50 41.38Q82.50 40.50 82.50 39.50Q82.50 38.50 82.50 37.50L82.50 37.50Q77.88 37.50 73.25 37.50Q68.63 37.50 64 37.50L64 37.50ZM86.63 37.63L86.63 37.63Q86.63 38.50 86.63 39.44Q86.63 40.38 86.63 41.38L86.63 41.38Q89.25 41.38 91.88 41.44Q94.50 41.50 97.13 41.38L97.13 41.38Q97.13 49.50 97.13 57.69Q97.13 65.88 97.13 74L97.13 74Q98.25 74 99.31 74Q100.38 74 101.50 73.88L101.50 73.88Q101.38 69.38 101.44 64.88Q101.50 60.38 101.38 55.88L101.38 55.88Q101.38 53.88 101.31 51.88Q101.25 49.88 101.50 47.75L101.50 47.75Q101.50 46.25 101.38 44.63Q101.25 43 101.38 41.38L101.38 41.38Q104 41.38 106.69 41.38Q109.38 41.38 112 41.38L112 41.38Q112 40.50 112 39.50Q112 38.50 112 37.63L112 37.63Q105.63 37.50 99.31 37.50Q93 37.50 86.63 37.63L86.63 37.63ZM13.50 69.13L13.50 69.13Q12.13 69.75 12 71.56Q11.88 73.38 13.38 74.13L13.38 74.13Q14.75 75 16.19 74.13Q17.63 73.25 17.63 71.75L17.63 71.75Q17.75 70.25 16.31 69.25Q14.88 68.25 13.50 69.13L13.50 69.13ZM42.75 84.38L42.75 84.38Q39.63 87 39.69 91.69Q39.75 96.38 43.25 98.63L43.25 98.63Q45.25 99.88 47.69 99.81Q50.13 99.75 52.25 98.88L52.25 98.88Q52.25 98.38 52.25 97.94Q52.25 97.50 52.25 97L52.25 97Q50.25 98 47.75 98.06Q45.25 98.13 43.63 96.38L43.63 96.38Q41.38 94 41.81 90.25Q42.25 86.50 45.25 84.88L45.25 84.88Q46.88 84 48.75 84.19Q50.63 84.38 52.25 85.13L52.25 85.13Q52.25 84.63 52.25 84.13Q52.25 83.63 52.25 83.13L52.25 83.13Q50 82.38 47.38 82.50Q44.75 82.63 42.75 84.38L42.75 84.38ZM60 87.13L60 87.13Q58.63 87.25 57.31 88Q56 88.75 55.38 90L55.38 90Q54.38 91.88 54.56 94.19Q54.75 96.50 56.25 98L56.25 98Q57.75 99.75 60.25 99.81Q62.75 99.88 64.38 98.38L64.38 98.38Q66.25 96.63 66.44 93.88Q66.63 91.13 65.13 89.13L65.13 89.13Q64.25 87.88 62.81 87.44Q61.38 87 60 87.13ZM77.88 89.88L77.88 89.88Q76.63 92 76.94 94.75Q77.25 97.50 79.50 99L79.50 99Q81.13 100 83.06 99.81Q85 99.63 86.50 98.75L86.50 98.75Q86.50 98.25 86.50 97.81Q86.50 97.38 86.63 96.88L86.63 96.88Q85.38 97.63 83.75 98.06Q82.13 98.50 80.75 97.63L80.75 97.63Q79.75 97.13 79.38 96.06Q79 95 78.88 94L78.88 94Q81 94 83.19 94Q85.38 94 87.50 94L87.50 94Q87.38 92.63 87.19 91.19Q87 89.75 86 88.63L86 88.63Q84.38 86.88 81.69 87.31Q79 87.75 77.88 89.88L77.88 89.88ZM69.50 87.50L69.50 87.50Q69.50 90.50 69.50 93.50Q69.50 96.50 69.50 99.50L69.50 99.50Q70 99.50 70.50 99.50Q71 99.50 71.38 99.50L71.38 99.50Q71.50 97.88 71.44 96.19Q71.38 94.50 71.50 92.88L71.50 92.88Q71.50 92 71.88 91.06Q72.25 90.13 73 89.50L73 89.50Q73.50 89 74.25 89.13Q75 89.25 75.75 89.25L75.75 89.25Q75.75 88.75 75.75 88.25Q75.75 87.75 75.75 87.38L75.75 87.38Q74.38 87 73.25 87.69Q72.13 88.38 71.50 89.50L71.50 89.50Q71.50 89 71.44 88.50Q71.38 88 71.38 87.50L71.38 87.50Q70.88 87.50 70.44 87.50Q70 87.50 69.50 87.50L69.50 87.50ZM58.75 89.25L58.75 89.25Q60 88.63 61.50 88.94Q63 89.25 63.75 90.50L63.75 90.50Q64.50 92 64.50 93.69Q64.50 95.38 63.63 96.75L63.63 96.75Q62.38 98.50 60.06 98.19Q57.75 97.88 57 96L57 96Q56.25 94.25 56.63 92.19Q57 90.13 58.75 89.25L58.75 89.25ZM79 92.38L79 92.38Q79.13 91.25 79.88 90.25Q80.63 89.25 81.75 88.88L81.75 88.88Q82.50 88.75 83.25 88.94Q84 89.13 84.50 89.75L84.50 89.75Q85 90.25 85.19 90.94Q85.38 91.63 85.50 92.38L85.50 92.38Q83.88 92.38 82.25 92.38Q80.63 92.38 79 92.38Z"/></svg>