<svg xmlns="http://www.w3.org/2000/svg" xmlns:xlink="http://www.w3.org/1999/xlink" width="128" height="128"><path fill="#ffffff" d="M99.75 43.75L100.75 42.25Q101.13 41.75 101.94 41.81Q102.75 41.88 104.13 42.75L104.13 42.75Q105.25 43.38 106.63 43.63Q108 43.88 109.50 43.88L109.50 43.88Q112.13 44.13 112.19 43.69Q112.25 43.25 111.13 42.13L111.13 42.13L109.13 40.38Q109.13 40.38 109.63 40.44Q110.13 40.50 111 39.75L111 39.75Q112.25 38.63 114 34.56Q115.75 30.50 116.13 26.88L116.13 26.88Q116.50 23.25 115.56 22.38Q114.63 21.50 110.75 21.88L110.75 21.88Q109.13 22.13 107.50 22.56Q105.88 23 105 23.50L105 23.50Q105 23.50 104.31 23.94Q103.63 24.38 103.75 24.63L103.75 24.63Q103.88 25 104.94 25.13Q106 25.25 106 25.25L106 25.25Q108.88 25.75 109.81 26.63Q110.75 27.50 110.75 28.50L110.75 28.50Q110.75 29.63 109.69 31.56Q108.63 33.50 107.88 33.50L107.88 33.50Q107.63 33.50 106.88 32.94Q106.13 32.38 105.25 31.63L105.25 31.63Q103.63 29.88 102.44 29.56Q101.25 29.25 99.63 29.75L99.63 29.75Q98.75 29.50 97.50 29.25Q96.25 29 95.13 28.38L95.13 28.38Q94.88 28.25 94.88 28Q94.88 27.75 94.38 27L94.38 27Q93.38 25.88 92.63 25.81Q91.88 25.75 90.88 26L90.88 26Q88.75 26.25 88.88 25.94Q89 25.63 90.38 24.88L90.38 24.88Q91.38 24.25 91.13 23.88Q90.88 23.50 88.75 20.75L88.75 20.75L86 16.88L89.25 18.63Q91.88 19.88 93.81 20.19Q95.75 20.50 96.25 19.75L96.25 19.75Q96.50 19.50 95.88 18.94Q95.25 18.38 94.25 17.88L94.25 17.88Q93.25 17.38 92.19 16.38Q91.13 15.38 90.75 14.50L90.75 14.50Q90.25 13.63 89.69 12.75Q89.13 11.88 88.75 11.50L88.75 11.50Q88 10.63 85.94 10.25Q83.88 9.88 82.50 10.38L82.50 10.38Q81 11 80 12.25Q79 13.50 77.88 15L77.88 15Q76.88 16.38 76.31 17.31Q75.75 18.25 75.25 19L75.25 19Q74.38 18.88 73 19.38Q71.63 19.88 71 20.50L71 20.50Q69.88 21.50 69.19 21.56Q68.50 21.63 66.38 21.13L66.38 21.13Q64.25 20.50 63.56 20.63Q62.88 20.75 61.63 21.75L61.63 21.75Q61 22.38 59.44 24.31Q57.88 26.25 56.38 28.38L56.38 28.38Q54.88 30.50 53.69 32.06Q52.50 33.63 52.38 33.63L52.38 33.63Q52.25 33.63 51.31 33.69Q50.38 33.75 49.25 33.88L49.25 33.88Q48.25 34 46.94 34.25Q45.63 34.50 44.88 34.88L44.88 34.88Q43.63 35.25 43.44 35.69Q43.25 36.13 43.63 37.38L43.63 37.38Q43.88 38.13 44.81 40.13Q45.75 42.13 46.88 44.13L46.88 44.13L49.63 48.88L48 52.88Q47.25 54.50 46.88 55.81Q46.50 57.13 46.63 57.38L46.63 57.38Q46.75 57.63 48.06 57.88Q49.38 58.13 51 58.38L51 58.38L54.88 58.88L58 63.38Q60.13 66.63 60.88 67.25Q61.63 67.88 62.38 67.50L62.38 67.50Q62.63 67.38 63.75 66.63Q64.88 65.88 66.50 65.13L66.50 65.13Q68.13 64.25 70.06 63.13Q72 62 73.13 61.25L73.13 61.25Q74.63 60.25 76.13 59.94Q77.63 59.63 78.38 59.88L78.38 59.88Q78.88 60.13 79.06 60.56Q79.25 61 79.13 61.63L79.13 61.63Q78.63 63 78.63 64Q78.63 65 78.75 65.88L78.75 65.88Q79.13 66.25 79.56 66.50Q80 66.75 80.75 67.13L80.75 67.13Q82.88 68.50 83.81 68.50Q84.75 68.50 84.75 67.13L84.75 67.13L84.75 65.63L85.50 67.25Q86.38 68.88 87.38 68.50Q88.38 68.13 88.63 66.13L88.63 66.13Q88.75 64.88 88.44 64Q88.13 63.13 87.38 62.25L87.38 62.25Q86.75 61.63 86.44 60.94Q86.13 60.25 86.38 60.25L86.38 60.25Q86.88 60.25 88.13 61.88Q89.38 63.50 89.38 64.13L89.38 64.13Q89.38 64.38 89.63 64.50Q89.88 64.63 90.25 64.63L90.25 64.63Q91 64.63 91.50 63.69Q92 62.75 92 61.38L92 61.38Q92 60.75 93.25 60.38Q94.50 60 95.88 59.63L95.88 59.63Q96.25 59.38 96.31 59.25Q96.38 59.13 96.75 58.88L96.75 58.88Q97.50 59 97.50 59Q97.50 59 98 59L98 59Q98.75 58.88 99.13 58.69Q99.50 58.50 99.75 58.13L99.75 58.13Q100.75 56.50 100.94 54.50Q101.13 52.50 100.25 50.63L100.25 50.63Q99.88 49.63 99.63 47.94Q99.38 46.25 99.38 45.25L99.38 45.25Q99.38 45.25 99.44 44.81Q99.50 44.38 99.75 43.75L99.75 43.75ZM92 55.50L92 52.50Q92 51.50 91.56 51.50Q91.13 51.50 89.38 52.38L89.38 52.38Q88.50 52.88 87.94 53.50Q87.38 54.13 87.38 54.50L87.38 54.50Q87.38 55.63 88.50 56.81Q89.63 58 90.75 58L90.75 58Q91.25 58 93.06 58.31Q94.88 58.63 95.50 58.63L95.50 58.63Q95.50 58.88 95.25 59Q95 59.13 94.88 59.25L94.88 59.25Q94.13 59.50 93.06 59.44Q92 59.38 91.63 59.25L91.63 59.25Q90.88 59.13 90.69 59.50Q90.50 59.88 90.50 61.38L90.50 61.38Q90.63 62.25 90.50 62.69Q90.38 63.13 90.25 62.75L90.25 62.75Q90.13 62.25 89.50 61.50Q88.88 60.75 88.13 60L88.13 60Q87.25 59.25 86.75 58.19Q86.25 57.13 86.13 56.13L86.13 56.13Q86 53.75 84.94 51.88Q83.88 50 81.88 48.38L81.88 48.38Q79.75 46.63 78.94 45.13Q78.13 43.63 78.63 42.25L78.63 42.25Q78.75 41.50 79.25 41.19Q79.75 40.88 80.75 40.88L80.75 40.88Q82.38 40.75 85.13 39.50Q87.88 38.25 89.88 36.63L89.88 36.63Q92.63 34.25 91.94 34.19Q91.25 34.13 88 36.38L88 36.38Q85.38 38.13 83.94 38.69Q82.50 39.25 79.63 39.38L79.63 39.38L75.13 39.75L77.25 37.50Q78.13 36.63 78.75 35.81Q79.38 35 79.38 34.88L79.38 34.88Q79.38 33.75 83 32.25Q86.63 30.75 90.13 30.25L90.13 30.25Q95 29.75 96 30Q97 30.25 97.25 31.88L97.25 31.88Q97.63 33.75 98.38 34.06Q99.13 34.38 98.88 32.38L98.88 32.38Q98.63 31.13 98.75 31.06Q98.88 31 99.50 31.88L99.50 31.88Q100 32.38 100.31 33.25Q100.63 34.13 100.63 34.75L100.63 34.75Q100.63 35.50 100.75 36.44Q100.88 37.38 101 38L101 38Q101.25 38.88 100.94 39.19Q100.63 39.50 99.25 39.88L99.25 39.88L97.13 40.25L97.63 44.25Q97.75 45.75 98.19 47.63Q98.63 49.50 99 50.63L99 50.63Q99.75 52.25 99.63 54.69Q99.50 57.13 98.63 57.75L98.63 57.75Q98.38 57.88 97.31 57.81Q96.25 57.75 95 57.63L95 57.63Q93 57.38 92.50 57Q92 56.63 92 55.50L92 55.50ZM87 11.50L87 11.38Q87.50 11.63 88.19 12.50Q88.88 13.38 89.38 14.38L89.38 14.38Q89.88 15.50 90.69 16.50Q91.50 17.50 92.13 17.88L92.13 17.88Q92.75 18.38 93.88 18.88Q95 19.38 95 19.50L95 19.50Q94.75 19.63 92.50 18.88Q90.25 18.13 88.38 17.13L88.38 17.13Q87 16.38 85.75 15.88Q84.50 15.38 84.25 15.50L84.25 15.50Q83.75 15.63 82.75 16.88Q81.75 18.13 80.75 19.88L80.75 19.88Q78.50 23.25 78.13 25.63Q77.75 28 79.38 28.63L79.38 28.63Q80.25 28.88 85.31 27.81Q90.38 26.75 91.50 26.50L91.50 26.50Q92.25 26.38 93.13 27Q94 27.63 94 28.25L94 28.25Q94 28.50 92.69 28.75Q91.38 29 89.63 29.13L89.63 29.13Q87.50 29.38 85.63 29.88Q83.75 30.38 82.25 31.25L82.25 31.25Q79.75 32.63 77.94 32.81Q76.13 33 74.13 31.88L74.13 31.88Q72.13 30.88 72.31 29Q72.50 27.13 75.50 21.25L75.50 21.25Q78.63 14.63 81.25 12.44Q83.88 10.25 87 11.50L87 11.50ZM86.75 19.50L86.75 19.50Q88.88 22.63 89 23Q89.13 23.38 87.63 23L87.63 23Q85.38 22.38 83.81 21.56Q82.25 20.75 81.88 20.50L81.88 20.50Q82.13 19.63 82.88 18.31Q83.63 17 84.25 17L84.25 17Q84.63 17 85.31 17.75Q86 18.50 86.75 19.50L86.75 19.50ZM74.13 20.63L74.13 20.63Q74.13 20.63 73.63 21.81Q73.13 23 72.50 24.50L72.50 24.50Q71.38 26.88 70.69 27.56Q70 28.25 68.25 28.50L68.25 28.50Q67.38 28.63 66.06 28.75Q64.75 28.88 63.88 28.88L63.88 28.88Q62.63 28.88 61.19 29.94Q59.75 31 56.63 34.13L56.63 34.13Q54.38 36.25 52.25 38.19Q50.13 40.13 49.25 40.75L49.25 40.75L47.25 42.13L46 39.50Q44.88 37 45.50 36.31Q46.13 35.63 49.50 35.25L49.50 35.25Q52.38 35 53.44 34.31Q54.50 33.63 56.75 30.25L56.75 30.25Q57.63 29 58.94 27.25Q60.25 25.50 61.38 24.38L61.38 24.38Q63 22.38 63.69 22Q64.38 21.63 65.38 22.25L65.38 22.25Q66.88 23.13 68.56 22.94Q70.25 22.75 71.50 21.63L71.50 21.63Q72.63 20.75 73.38 20.44Q74.13 20.13 74.13 20.63L74.13 20.63ZM86 23.88L86 23.88L88.88 24.75L86.63 25.88Q85.75 26.38 84.44 26.75Q83.13 27.13 82.13 27.38L82.13 27.38Q79.88 27.63 79.38 26.88Q78.88 26.13 79.88 23.75L79.88 23.75Q80.25 22.75 80.56 22.31Q80.88 21.88 81 21.50L81 21.50Q81.25 21.63 83 22.50Q84.75 23.38 86 23.88L86 23.88ZM115.50 25.25L115.50 25.25Q115.63 27 115 29.19Q114.38 31.38 113.38 33.88L113.38 33.88Q111.75 37.75 110.38 39.13Q109 40.50 108 38.88L108 38.88Q107.50 38 106.31 36.38Q105.13 34.75 103.13 33.13L103.13 33.13Q103 33 102.75 32.81Q102.50 32.63 102 32.50L102 32.50Q101.38 32.38 101.19 32.50Q101 32.63 100.75 32.50L100.75 32.50Q99.88 31.38 99.94 30.81Q100 30.25 101.13 30.25L101.13 30.25Q101.75 30.25 102.50 30.63Q103.25 31 103.75 31.63L103.75 31.63Q104.25 32.13 105.13 32.81Q106 33.50 106.63 33.88L106.63 33.88Q107.88 34.50 108.38 34.44Q108.88 34.38 109.88 33.25L109.88 33.25Q110.63 32.38 111.13 31.19Q111.63 30 111.63 28.50L111.63 28.50Q111.75 27 110.94 26.06Q110.13 25.13 107.63 24.63L107.63 24.63Q106.88 24.50 105.81 24.44Q104.75 24.38 105 24.25L105 24.25Q105.38 23.75 108.56 23.13Q111.75 22.50 113.25 22.50L113.25 22.50Q114.38 22.63 114.88 22.88Q115.38 23.13 115.50 25.25ZM73.88 33.13L73.88 33.13Q74.88 33.63 75.81 33.94Q76.75 34.25 77.13 34.25L77.13 34.25Q78.38 34.25 77.25 35.63Q76.13 37 74 37.88L74 37.88Q73 38.38 72.25 38.81Q71.50 39.25 71.50 39.50L71.50 39.50Q71.50 39.75 72.38 40Q73.25 40.25 74.50 40.50L74.50 40.50Q76.50 40.75 76.94 41.06Q77.38 41.38 77.13 42.25L77.13 42.25Q76.63 43.88 77.69 45.81Q78.75 47.75 81.13 49.75L81.13 49.75Q83.13 51.38 83.50 52Q83.88 52.63 83.25 53.13L83.25 53.13Q82.75 53.63 81.94 53.75Q81.13 53.88 79.38 53.50L79.38 53.50L76.50 53L76.63 49.63Q76.75 46.75 76.25 46.25Q75.75 45.75 75.25 48.25L75.25 48.25Q74.50 52 75.25 53.19Q76 54.38 79.50 55L79.50 55Q80.50 55.13 81.63 55.75Q82.75 56.38 83.38 57L83.38 57L84.75 58.63L82.88 59.25Q82 59.50 81.25 59.56Q80.50 59.63 80.38 59.38L80.38 59.38Q79.38 58.50 77.31 58.50Q75.25 58.50 73.75 59.38L73.75 59.38L71.88 60.63L69.25 58.50Q66.50 56.38 65.63 55.19Q64.75 54 63.75 51L63.75 51Q63.13 48.63 62.44 47.50Q61.75 46.38 61.25 46.88L61.25 46.88Q61.13 47 61.44 48.25Q61.75 49.50 62.38 51.25L62.38 51.25Q63.25 54.25 64.81 56.25Q66.38 58.25 69.13 60.25L69.13 60.25Q69.75 60.75 70 61.06Q70.25 61.38 70.13 61.50L70.13 61.50Q69.88 61.88 65.75 63.94Q61.63 66 61.25 66L61.25 66Q61.13 66 60.25 64.75Q59.38 63.50 58.13 61.75L58.13 61.75Q56.38 58.88 55.50 58.13Q54.63 57.38 53.38 57.38L53.38 57.38Q52.50 57.25 51.38 57.13Q50.25 57 49.50 56.75L49.50 56.75L47.75 56.38L49.38 52.50L51 48.75L49.63 46.38Q48.88 45.25 48.69 44.38Q48.50 43.50 48.63 43L48.63 43Q49 42.25 49.19 42.31Q49.38 42.38 49.63 43.38L49.63 43.38Q50 44.88 50.63 44.81Q51.25 44.75 51.25 43.13L51.25 43.13Q51.25 42.50 51.88 41.44Q52.50 40.38 53.25 39.63L53.25 39.63Q54 38.88 54.44 38.56Q54.88 38.25 54.63 38.63L54.63 38.63Q54.38 39.38 54.75 40.44Q55.13 41.50 55.63 41.50L55.63 41.50Q55.88 41.50 56.06 40.88Q56.25 40.25 56.25 39.25L56.25 39.25Q56.25 38.13 56.88 37Q57.50 35.88 58.88 34.25L58.88 34.25Q60.63 32.25 61.06 32Q61.50 31.75 61.50 32.75L61.50 32.75Q61.50 33.38 61.81 33.81Q62.13 34.25 62.38 34.25L62.38 34.25Q62.88 34.25 63 33.75Q63.13 33.25 63 32.25L63 32.25L62.75 30.25L66.63 30.13Q68.88 30 69.81 30.19Q70.75 30.38 71 31L71 31Q71.25 31.38 72.06 32.06Q72.88 32.75 73.88 33.13ZM92.63 53.88L92.63 53.88Q92.63 54.13 92.69 54.44Q92.75 54.75 92.88 55L92.88 55Q93.38 55.88 94.63 55.63Q95.88 55.38 97 54L97 54Q97.75 53.25 97.75 52.94Q97.75 52.63 97.13 52.38L97.13 52.38Q96.50 52.13 94.94 52.31Q93.38 52.50 93 52.88L93 52.88Q92.88 53 92.75 53.31Q92.63 53.63 92.63 53.88L92.63 53.88ZM105.63 36.75L105.63 36.75Q106.13 37.50 106.94 38.63Q107.75 39.75 108.38 40.75L108.38 40.75Q108.38 40.75 108.75 41.13Q109.13 41.50 109.63 42L109.63 42Q110.13 42.50 110.56 42.88Q111 43.25 111 43.25L111 43.25Q111 43.25 110.19 43.19Q109.38 43.13 107.63 42.63L107.63 42.63Q103.63 41.50 102.88 40.75Q102.13 40 102.38 38.75L102.38 38.75Q102.63 37.88 102.94 37.94Q103.25 38 104.63 39.13L104.63 39.13Q105.25 39.88 105.94 40.25Q106.63 40.63 106.75 40.38L106.75 40.38Q107.38 39.88 105.50 38.13Q103.63 36.38 102.88 36.63L102.88 36.63Q102.13 36.88 101.63 35.56Q101.13 34.25 101.38 33.38L101.38 33.38Q101.38 33.13 101.63 33.13Q101.88 33.13 102.13 33.25L102.13 33.25Q102.75 33.50 103.63 34.44Q104.50 35.38 105.63 36.75L105.63 36.75ZM99.75 41.25L99.75 41.25Q99.63 41.38 99.50 41.44Q99.38 41.50 99.25 41.50L99.25 41.50Q99.13 41.50 99 41.44Q98.88 41.38 98.88 41.25L98.88 41.25L98.88 41.25Q98.63 41.13 98.81 41Q99 40.88 99.25 40.88L99.25 40.88Q99.63 40.88 99.75 41Q99.88 41.13 99.75 41.25L99.75 41.25ZM90.75 55.13L90.75 55.13Q90.75 56.38 90.19 56.69Q89.63 57 89 56.13L89 56.13Q88.63 55.38 89 54.38Q89.38 53.38 90 53.38L90 53.38Q90.25 53.38 90.50 53.88Q90.75 54.38 90.75 55.13L90.75 55.13ZM96.25 53.50L96.25 53.50Q96.25 53.88 95.13 54.44Q94 55 93.88 54.38L93.88 54.38Q93.63 53.75 93.94 53.56Q94.25 53.38 94.88 53.25L94.88 53.25Q95.38 53.25 95.81 53.25Q96.25 53.25 96.25 53.50ZM84.88 55.38L84.88 55.38Q85.13 56 85.13 56.44Q85.13 56.88 84.13 56.13L84.13 56.13Q83.38 55.50 83 55.06Q82.63 54.63 83 54.25L83 54.25Q83.63 53.75 84.06 53.69Q84.50 53.63 84.88 55.38ZM94.13 38L94.13 38Q94.88 38.75 95.56 39.13Q96.25 39.50 96.38 39.38L96.38 39.38Q96.88 38.88 95.63 37.56Q94.38 36.25 93.38 36.25L93.38 36.25Q92.88 36.25 93 36.63Q93.13 37 94.13 38ZM89.88 40.50L89.88 40.50Q88.75 41.50 88.50 42.13Q88.25 42.75 88.75 43.50L88.75 43.50Q89 44 89.50 44.38Q90 44.75 90.38 44.75L90.38 44.75Q91.50 44.75 93.50 42.75Q95.50 40.75 95.25 40L95.25 40Q94.75 38.88 93 39Q91.25 39.13 89.88 40.50L89.88 40.50ZM94 40.13L94 40.13Q94 40.38 93.69 40.63Q93.38 40.88 93 40.88L93 40.88Q92.63 40.88 92.13 41.25Q91.63 41.63 91.38 42.13L91.38 42.13Q91 42.75 90.63 43Q90.25 43.25 89.88 43.13L89.88 43.13Q89.50 42.88 89.75 42.31Q90 41.75 91 41L91 41Q92.38 39.88 93.19 39.63Q94 39.38 94 40.13L94 40.13ZM37.38 101.75L37.38 101.75Q35 101.75 33.13 101.13Q31.25 100.50 29.88 99.38L29.88 99.38Q28.63 98.25 27.94 96.56Q27.25 94.88 27.25 92.75L27.25 92.75Q27.25 91.13 27.50 89.63Q27.75 88.13 28.25 86.88L28.25 86.88Q28.75 85.50 29.44 84.31Q30.13 83.13 31.13 82.13L31.13 82.13Q32 81.13 33.13 80.31Q34.25 79.50 35.63 79L35.63 79Q37 78.38 38.50 78.13Q40 77.88 41.75 77.88L41.75 77.88Q42.75 77.88 43.75 78Q44.75 78.13 45.75 78.38L45.75 78.38Q46.75 78.63 47.81 79Q48.88 79.38 49.88 79.88L49.88 79.88L49.13 83.38L48.88 83.38Q48 82.63 47.06 82.06Q46.13 81.50 45.13 81.13L45.13 81.13Q44.13 80.75 43.06 80.56Q42 80.38 40.88 80.38L40.88 80.38Q39.50 80.38 38.44 80.63Q37.38 80.88 36.38 81.38L36.38 81.38Q35.38 81.88 34.56 82.56Q33.75 83.25 33.13 84L33.13 84L33.13 84Q32.50 84.88 32 85.81Q31.50 86.75 31.25 87.88L31.25 87.88Q30.88 88.88 30.69 90Q30.50 91.13 30.50 92.25L30.50 92.25L30.50 92.25Q30.50 93.88 31 95.19Q31.50 96.50 32.38 97.38L32.38 97.38Q33.25 98.25 34.63 98.75Q36 99.25 37.75 99.25L37.75 99.25Q38.50 99.25 39.25 99.13Q40 99 40.63 98.88L40.63 98.88Q41.38 98.75 42 98.56Q42.63 98.38 43.25 98.13L43.25 98.13L44.50 92.25L38.38 92.25L39 89.75L48.13 89.75L45.88 99.63L44 100.38Q43.63 100.50 43.13 100.69Q42.63 100.88 42 101L42 101Q41.50 101.13 40.94 101.25Q40.38 101.38 39.75 101.50L39.75 101.50Q39.25 101.63 38.63 101.69Q38 101.75 37.38 101.75L37.38 101.75ZM61.13 101.75L61.13 101.75Q59 101.75 57.25 101.19Q55.50 100.63 54.25 99.38L54.25 99.38Q53 98.25 52.38 96.69Q51.75 95.13 51.75 93L51.75 93Q51.75 91.38 52 89.94Q52.25 88.50 52.75 87.13L52.75 87.13Q53.25 85.75 53.94 84.50Q54.63 83.25 55.50 82.25L55.50 82.25Q56.38 81.25 57.50 80.44Q58.63 79.63 59.88 79L59.88 79Q61.13 78.50 62.63 78.19Q64.13 77.88 65.63 77.88L65.63 77.88Q66.63 77.88 67.56 78Q68.50 78.13 69.50 78.38L69.50 78.38Q70.38 78.63 71.25 79Q72.13 79.38 73.13 79.88L73.13 79.88L72.38 83.38L72.13 83.38Q71.88 83.13 71.63 82.88Q71.38 82.63 71.13 82.38L71.13 82.38L71.13 82.38Q70.88 82.13 70.50 81.88Q70.13 81.63 69.63 81.38L69.63 81.38Q69.13 81.25 68.63 81.06Q68.13 80.88 67.63 80.63L67.63 80.63Q67 80.50 66.31 80.44Q65.63 80.38 65 80.38L65 80.38Q63.88 80.38 62.88 80.63Q61.88 80.88 61 81.25L61 81.25Q60.13 81.75 59.31 82.38Q58.50 83 57.88 83.75L57.88 83.75L57.88 83.75Q57.25 84.63 56.75 85.56Q56.25 86.50 55.88 87.63L55.88 87.63Q55.50 88.75 55.31 89.94Q55.13 91.13 55.13 92.38L55.13 92.38Q55.13 92.38 55.13 92.38Q55.13 92.38 55.13 92.50L55.13 92.50L55.13 92.50Q55.13 94 55.50 95.25Q55.88 96.50 56.75 97.38L56.75 97.38Q57.50 98.25 58.75 98.69Q60 99.13 61.50 99.13L61.50 99.13Q62.25 99.13 62.94 99.06Q63.63 99 64.25 98.88L64.25 98.88Q65 98.63 65.63 98.44Q66.25 98.25 66.75 98L66.75 98L66.75 98Q67.25 97.75 67.69 97.50Q68.13 97.25 68.63 97L68.63 97L68.50 97Q68.88 96.75 69.25 96.50Q69.63 96.25 69.88 96L69.88 96L70.13 96L69.38 99.63Q68.63 100 67.69 100.38Q66.75 100.75 65.63 101L65.63 101Q64.63 101.38 63.50 101.56Q62.38 101.75 61.13 101.75L61.13 101.75ZM83.25 101.75L83.25 101.75Q81.13 101.75 79.38 101.19Q77.63 100.63 76.38 99.38L76.38 99.38Q75.13 98.25 74.50 96.69Q73.88 95.13 73.88 93L73.88 93Q73.88 91.38 74.13 89.94Q74.38 88.50 74.88 87.13L74.88 87.13Q75.38 85.75 76.06 84.50Q76.75 83.25 77.63 82.25L77.63 82.25Q78.50 81.25 79.63 80.44Q80.75 79.63 82 79L82 79Q83.38 78.50 84.81 78.19Q86.25 77.88 87.75 77.88L87.75 77.88Q88.75 77.88 89.75 78Q90.75 78.13 91.63 78.38L91.63 78.38Q92.50 78.63 93.38 79Q94.25 79.38 95.25 79.88L95.25 79.88L94.50 83.38L94.25 83.38Q94 83.13 93.75 82.88Q93.50 82.63 93.25 82.38L93.25 82.38L93.25 82.38Q93 82.13 92.63 81.88Q92.25 81.63 91.75 81.38L91.75 81.38Q91.25 81.25 90.75 81.06Q90.25 80.88 89.75 80.63L89.75 80.63Q89.13 80.50 88.44 80.44Q87.75 80.38 87.13 80.38L87.13 80.38Q86 80.38 85 80.63Q84 80.88 83.13 81.25L83.13 81.25Q82.25 81.75 81.44 82.38Q80.63 83 80 83.75L80 83.75L80 83.75Q79.38 84.63 78.88 85.56Q78.38 86.50 78 87.63L78 87.63Q77.63 88.75 77.44 89.94Q77.25 91.13 77.25 92.50L77.25 92.50Q77.25 94 77.63 95.25Q78 96.50 78.88 97.38L78.88 97.38Q79.75 98.25 80.94 98.69Q82.13 99.13 83.63 99.13L83.63 99.13Q84.38 99.13 85.06 99.06Q85.75 99 86.38 98.88L86.38 98.88Q87.13 98.63 87.75 98.44Q88.38 98.25 88.88 98L88.88 98L88.88 98Q89.38 97.75 89.81 97.50Q90.25 97.25 90.75 97L90.75 97L90.63 97Q91 96.75 91.38 96.50Q91.75 96.25 92 96L92 96L92 96L92.25 96L91.50 99.63Q90.75 100 89.81 100.38Q88.88 100.75 87.75 101L87.75 101Q86.75 101.38 85.63 101.56Q84.50 101.75 83.25 101.75L83.25 101.75Z"/></svg>