<svg xmlns="http://www.w3.org/2000/svg" xmlns:xlink="http://www.w3.org/1999/xlink" width="128" height="128"><path fill="#ffffff" d="M126.13 66.88L126.13 66.88Q126.13 59.50 124.31 52.63Q122.50 45.75 119.13 39.75L119.13 39.75Q126.25 23.63 123.88 16L123.88 16Q121.63 8.25 115.81 5.44Q110 2.63 103.75 3L103.75 3Q97.38 3.38 96.63 3.50L96.63 3.50Q90.38 4.75 84.56 6.69Q78.75 8.63 73.50 11.13L73.50 11.13Q72.63 11.13 71.88 11.06Q71.13 11 70.25 11L70.25 11Q60.38 11 51.38 14.25L51.38 14.25Q42.50 17.63 35.31 23.38Q28.13 29.13 23 37.13L23 37.13Q18 45 15.88 54.38L15.88 54.38Q26.38 42.63 33.75 37.19Q41.13 31.75 45.50 29.75L45.50 29.75Q44.75 30.38 44.06 31Q43.38 31.63 42.75 32.38L42.75 32.38L41.88 33.13Q41.38 33.63 40.94 34.06Q40.50 34.50 40.13 34.88L40.13 34.88Q39.88 35.13 39.63 35.38Q39.38 35.63 39.13 35.88L39.13 35.88Q38.75 36.38 38.31 36.75Q37.88 37.13 37.50 37.50L37.50 37.50L36.50 38.63Q36.13 39 35.81 39.38Q35.50 39.75 35.13 40.13L35.13 40.13L34 41.25Q33.75 41.63 33.44 42Q33.13 42.38 32.75 42.75L32.75 42.75Q32.50 43.13 32.25 43.38Q32 43.63 31.75 44L31.75 44Q31.38 44.38 31.13 44.69Q30.88 45 30.50 45.38L30.50 45.38Q30.25 45.75 30 46.06Q29.75 46.38 29.50 46.63L29.50 46.63Q29.25 47 29 47.31Q28.75 47.63 28.38 48L28.38 48Q28.13 48.38 27.88 48.69Q27.63 49 27.38 49.38L27.38 49.38L26.50 50.63Q26.13 50.88 25.88 51.25Q25.63 51.63 25.38 52L25.38 52L24.63 53Q23 55.25 21.50 57.44Q20 59.63 18.63 61.75L18.63 61.75L18.63 61.75Q18.25 62.38 17.88 62.94Q17.50 63.50 17.25 64L17.25 64L17.13 64.13Q16.75 64.63 16.44 65.19Q16.13 65.75 15.75 66.25L15.75 66.25L15.75 66.38Q14.88 67.75 14.06 69.19Q13.25 70.63 12.63 71.88L12.63 71.88Q8.88 78.75 7 83.06Q5.13 87.38 5 87.75L5 87.75Q-1 109 3.63 116.75L3.63 116.75Q8.25 124.50 16.75 125Q25.25 125.50 34.13 121.88L34.13 121.88Q43 118.25 45.63 116.88L45.63 116.88Q51.13 119.75 57.38 121.31Q63.63 122.88 70.25 122.88L70.25 122.88Q79.38 122.88 87.63 120.13L87.63 120.13Q96 117.25 102.81 112.31Q109.63 107.38 114.88 100.63L114.88 100.63Q120 93.88 122.88 86L122.88 86L93.63 86Q90.38 91.25 84.44 94.63Q78.50 98 71.25 98L71.25 98Q66 98 61.38 96.13L61.38 96.13Q56.75 94.25 53.25 90.94Q49.75 87.63 47.75 83.25L47.75 83.25Q45.75 78.88 45.75 74L45.75 74L125.63 74Q125.88 72.50 126 70.56Q126.13 68.63 126.13 66.88L126.13 66.88ZM13.50 116.88L13.50 116.88Q10.63 113.75 10.88 106.19Q11.13 98.63 17.50 85.25L17.50 85.25Q20.88 94.63 27.13 102.25Q33.38 109.88 41.88 114.88L41.88 114.88Q37.63 117.25 28.56 120.06Q19.50 122.88 13.50 116.88L13.50 116.88ZM96.13 59L45.63 59Q46 49.25 53.31 42.63Q60.63 36 70.88 36L70.88 36Q81.13 36 88.44 42.63Q95.75 49.25 96.13 59L96.13 59ZM90.50 14.75L90.50 14.75Q94.38 12.88 102.31 10.56Q110.25 8.25 115.63 11.88L115.63 11.88Q119.25 14.38 121 19.44Q122.75 24.50 117.75 37.38L117.75 37.38Q113 29.75 106 23.94Q99 18.13 90.50 14.75Z"/></svg>