<svg xmlns="http://www.w3.org/2000/svg" xmlns:xlink="http://www.w3.org/1999/xlink" width="128" height="128"><path fill="#000000" d="M29.25 63L29.25 63L28 63Q27.63 66.88 26.13 70.56Q24.63 74.25 18 74.25L18 74.25L14 74.25Q12.25 74.25 11.94 73.94Q11.63 73.63 11.63 72.25L11.63 72.25L11.63 45.75Q11.63 44.50 12.19 43.94Q12.75 43.38 16.25 43.38L16.25 43.38L17.88 43.38L17.88 41.88Q16.50 42 13.81 42Q11.13 42 9.50 42L9.50 42Q8.13 42 5.69 42Q3.25 42 2 41.88L2 41.88L2 43.38L3.13 43.38Q6 43.38 6.50 43.88Q7 44.38 7 45.75L7 45.75L7 71.75Q7 73.13 6.50 73.63Q6 74.13 3.13 74.13L3.13 74.13L2 74.13L2 75.63L27.75 75.63L29.25 63ZM28.25 41.75L28.25 41.75Q28.13 41.38 28 41.19Q27.88 41 27.38 41L27.38 41Q27 41 26.75 41.19Q26.50 41.38 26.38 41.75L26.38 41.75L18.38 62.13Q18.13 62.75 17.44 63.63Q16.75 64.50 14.38 64.50L14.38 64.50L14.38 65.75L22.13 65.75L22.13 64.50Q21 64.50 20.31 64Q19.63 63.50 19.63 62.75L19.63 62.75Q19.63 62.63 19.63 62.50Q19.63 62.38 19.75 62.13L19.75 62.13L21.38 57.75L31.25 57.75L33.25 62.88Q33.38 63 33.44 63.19Q33.50 63.38 33.50 63.50L33.50 63.50Q33.50 64.25 32.44 64.38Q31.38 64.50 30.75 64.50L30.75 64.50L30.75 65.75L40.50 65.75L40.50 64.50L39.75 64.50Q38.13 64.50 37.63 64.25Q37.13 64 36.88 63.25L36.88 63.25L28.25 41.75ZM21.88 56.75L26.38 45.38L30.75 56.75L21.88 56.75ZM68.25 42.25L68.25 42.25L37.88 42.25L37 53.25L38.25 53.25Q38.75 47.25 40.13 45.44Q41.50 43.63 47.25 43.63L47.25 43.63Q47.88 43.63 48.69 43.63Q49.50 43.63 49.88 43.75L49.88 43.75Q50.63 43.88 50.75 44.31Q50.88 44.75 50.88 45.63L50.88 45.63L50.88 71.75Q50.88 73 50.25 73.56Q49.63 74.13 45.75 74.13L45.75 74.13L43.75 74.13L43.75 75.63Q45.25 75.50 48.31 75.50Q51.38 75.50 53.13 75.50L53.13 75.50Q54.88 75.50 57.94 75.50Q61 75.50 62.63 75.63L62.63 75.63L62.63 74.13L60.63 74.13Q56.75 74.13 56.06 73.56Q55.38 73 55.38 71.75L55.38 71.75L55.38 45.75Q55.38 45 55.50 44.50Q55.63 44 56.25 43.75L56.25 43.75Q56.63 43.75 57.50 43.75Q58.38 43.75 59.13 43.75L59.13 43.75Q64.75 43.75 66.13 45.56Q67.50 47.38 68 53.38L68 53.38L69.25 53.38L68.25 42.25ZM92.75 87L94.88 74.25L93.75 74.25Q92.75 79.88 90.94 82.69Q89.13 85.50 82.75 85.50L82.75 85.50L76.25 85.50Q74.50 85.50 74.13 85.13Q73.75 84.75 73.75 83.50L73.75 83.50L73.75 70.25L78.25 70.25Q81.75 70.25 82.69 71.56Q83.63 72.88 83.63 76L83.63 76L84.75 76L84.75 62.88L83.63 62.88Q83.63 66 82.75 67.38Q81.88 68.75 78.25 68.75L78.25 68.75L73.75 68.75L73.75 56.75Q73.75 55.50 74.13 55.13Q74.50 54.75 76.25 54.75L76.25 54.75L82.63 54.75Q88.25 54.75 90 56.94Q91.75 59.13 92.25 64.38L92.25 64.38L93.50 64.38L92.13 53.25L64.25 53.25L64.25 54.75L65.25 54.75Q68.13 54.75 68.69 55.19Q69.25 55.63 69.25 57L69.25 57L69.25 83Q69.25 84.38 68.69 84.81Q68.13 85.25 65.25 85.25L65.25 85.25L64.25 85.25L64.25 87L92.75 87ZM109.88 56.63L109.88 56.63L116.75 46.63Q117.50 45.38 119 44.38Q120.50 43.38 123.88 43.38L123.88 43.38L123.88 41.88L112 41.88L112 43.38Q113.50 43.38 114.31 44.06Q115.13 44.75 115.13 45.75L115.13 45.75Q115.13 46.13 115 46.25Q114.88 46.38 114.75 46.75L114.75 46.75L109 55.25L102.63 45.63Q102.50 45.50 102.38 45.25Q102.25 45 102.25 44.88L102.25 44.88Q102.25 44.50 103.06 44Q103.88 43.50 105.50 43.38L105.50 43.38L105.50 41.88Q104.25 42 102 42Q99.75 42 98.25 42L98.25 42Q97.13 42 95.19 42Q93.25 42 91.75 41.88L91.75 41.88L91.75 43.38L92.75 43.38Q94.75 43.38 95.69 43.69Q96.63 44 97.25 45.13L97.25 45.13L106.38 58.88L98.25 70.88Q97.75 71.63 96.31 72.94Q94.88 74.25 91.13 74.25L91.13 74.25L91.13 75.75L103 75.75L103 74.25Q101.25 74.25 100.56 73.44Q99.88 72.63 99.88 71.88L99.88 71.88Q99.88 71.63 100 71.38Q100.13 71.13 100.38 70.75L100.38 70.75L107.38 60.25L115.25 72.25Q115.38 72.38 115.44 72.50Q115.50 72.63 115.50 72.75L115.50 72.75Q115.50 73.13 114.69 73.63Q113.88 74.13 112.25 74.25L112.25 74.25L112.25 75.75Q113.63 75.63 115.88 75.63Q118.13 75.63 119.50 75.63L119.50 75.63Q121.13 75.63 122.75 75.63Q124.38 75.63 126 75.75L126 75.75L126 74.25L125.13 74.25Q123.13 74.25 122.19 73.94Q121.25 73.63 120.38 72.38L120.38 72.38L109.88 56.63Z"/></svg>