<svg xmlns="http://www.w3.org/2000/svg" xmlns:xlink="http://www.w3.org/1999/xlink" width="128" height="128"><path fill="#ffffff" d="M109.63 14.75L109.63 14.75Q100.50 10.25 91.13 9.75Q81.75 9.25 72.13 12.63L72.13 12.63Q63.38 15.75 56.31 21.25Q49.25 26.75 44 34.38L44 34.38Q39.63 40.88 35.75 47.50L35.75 47.50Q32 54.25 28.81 61.31Q25.63 68.38 23.13 75.75L23.13 75.75Q20.63 83 18.75 90.63L18.75 90.63Q17 98.50 15.94 106.63Q14.88 114.75 15.13 122.88L15.13 122.88Q15.25 123.50 15.31 124Q15.38 124.50 15.38 126L15.38 126L75.75 126Q75.63 124.50 75.56 124.50Q75.50 124.50 75.38 124.25L75.38 124.25Q73 118.13 71.13 111.75Q69.25 105.38 67.88 99L67.88 99Q66 89.88 65.38 80.50Q64.75 71.13 66.75 61.88L66.75 61.88Q68 55.38 70.63 49.88L70.63 49.88Q73.13 44.25 76.88 39.69Q80.63 35.13 85.63 31.63L85.63 31.63Q90.63 28 96.75 25.63L96.75 25.63Q103.88 22.88 110.50 23.81Q117.13 24.75 123 29.88L123 29.88Q123.13 30 123.19 29.94Q123.25 29.88 123.38 30L123.38 30L126 26.13Q122.25 22.50 118.19 19.75Q114.13 17 109.63 14.75L109.63 14.75ZM3.38 94.38L3.38 94.38Q3 97.38 2.69 100.19Q2.38 103 2 105.88L2 105.88L13.13 107.13L15.13 95.25Q12.13 95 9.19 94.81Q6.25 94.63 3.38 94.38L3.38 94.38ZM25.13 60.25L25.13 60.25L14.75 56.13L11.38 65.75L22 69.13Q22.75 66.88 23.56 64.69Q24.38 62.50 25.13 60.25L25.13 60.25ZM74.63 113.88L74.63 113.88Q77.25 114.13 80 114.25Q82.75 114.38 85.75 114.50L85.75 114.50Q84.63 112.25 83.63 110.25Q82.63 108.25 81.63 106.25L81.63 106.25Q81.50 106 81.25 105.81Q81 105.63 80.75 105.63L80.75 105.63Q78.38 105.63 76.13 105.63Q73.88 105.63 71.38 105.63L71.38 105.63Q72 107.63 72.50 109.44Q73 111.25 73.50 113L73.50 113Q73.63 113.38 73.94 113.63Q74.25 113.88 74.63 113.88L74.63 113.88ZM36.75 38.38L42.88 31.13L35 25.88Q33.38 27.63 31.81 29.38Q30.25 31.13 28.63 33L28.63 33L36.75 38.38ZM68.25 84.50L68.25 84.50Q68.25 84.75 68.44 85.06Q68.63 85.38 68.88 85.38L68.88 85.38Q71 86.38 73.19 87.31Q75.38 88.25 77.75 89.25L77.75 89.25Q77.63 87.38 77.56 85.81Q77.50 84.25 77.38 82.63L77.38 82.63Q77.38 82.38 77.25 82.06Q77.13 81.75 76.88 81.63L76.88 81.63Q74.88 80.50 72.88 79.44Q70.88 78.38 68.63 77.25L68.63 77.25Q68.50 79.25 68.44 81Q68.38 82.75 68.25 84.50L68.25 84.50ZM58.38 16.63L65.88 12.25L60.50 6.13L53 10Q54.38 11.75 55.75 13.38Q57.13 15 58.38 16.63L58.38 16.63ZM69.38 61.50L69.38 61.50Q69.25 61.75 69.38 62.25Q69.50 62.75 69.75 62.88L69.75 62.88Q71.38 64.38 73.06 65.81Q74.75 67.25 76.63 68.88L76.63 68.88Q77 67.13 77.44 65.50Q77.88 63.88 78.25 62.25L78.25 62.25Q78.25 61.88 78.19 61.50Q78.13 61.13 77.88 61L77.88 61Q76.50 59.88 74.94 58.69Q73.38 57.50 71.88 56.38L71.88 56.38Q71.13 57.75 70.50 59Q69.88 60.25 69.38 61.50ZM81.75 9L81.75 9Q83.88 9.13 86 9.13Q88.13 9.13 90.25 9.13L90.25 9.13Q90 7.50 89.88 6.31Q89.75 5.13 89.50 4L89.50 4Q89.38 3.63 89 3.31Q88.63 3 88.25 2.88L88.25 2.88Q86.13 2.75 84 2.69Q81.88 2.63 79.63 2.50L79.63 2.50Q79.88 4 80.19 5.38Q80.50 6.75 80.75 8.13L80.75 8.13Q80.88 8.38 81.19 8.69Q81.50 9 81.75 9L81.75 9ZM85.13 44.75L85.13 44.75Q85.25 44.50 85.25 44.19Q85.25 43.88 85.25 43.75L85.25 43.75Q84.13 42.13 83.06 40.56Q82 39 80.88 37.25L80.88 37.25L76.13 41.63L82.75 49Q83.38 47.75 84 46.75Q84.63 45.75 85.13 44.75L85.13 44.75ZM96.50 28.63L90.25 30.25L93.13 35.50Q96.50 33.63 97.06 32.44Q97.63 31.25 96.50 28.63L96.50 28.63ZM111.63 13.88L111.63 13.88Q113 14.75 114.44 15.50Q115.88 16.25 117.38 17.13L117.38 17.13L118.75 15Q116.88 13.75 115.06 12.44Q113.25 11.13 111.25 9.63L111.25 9.63Q111.25 10.50 111.13 11.06Q111 11.63 111.13 12.25L111.13 12.25Q111.13 12.75 111.19 13.25Q111.25 13.75 111.63 13.88L111.63 13.88ZM109 27.25L109 30.63Q110.50 30.75 112.50 30.94Q114.50 31.13 116 31.25L116 31.25L116 28.63Q114.50 28.25 112.50 27.94Q110.50 27.63 109 27.25L109 27.25Z"/></svg>