<svg xmlns="http://www.w3.org/2000/svg" xmlns:xlink="http://www.w3.org/1999/xlink" width="128" height="128"><path fill="#ffffff" d="M122 72.25L122 72.25Q121 72.25 118.88 72.25Q116.75 72.25 116.75 72.25L116.75 72.25L116.75 69.63L127.25 69.63L127.25 63.75Q127.25 63.75 123.25 63.75Q119.25 63.75 117.25 63.75L117.25 63.75Q115.25 63.75 113.19 65.25Q111.13 66.75 111.13 69.75L111.13 69.75Q111.13 70.13 111.13 70.88Q111.13 71.63 111.13 71.75L111.13 71.75Q111.13 74.75 113.13 76.25Q115.13 77.75 117.25 77.75L117.25 77.75Q118 77.75 118.63 77.75Q119.25 77.75 119.50 77.75L119.50 77.75Q120 77.75 120.13 77.75Q120.25 77.75 120.25 77.75L120.25 77.75Q120.50 77.75 121 77.75Q121.50 77.75 122.25 77.75L122.25 77.75Q122.25 79.88 122.25 80.25Q122.25 80.63 122.25 80.63L122.25 80.63L111.38 80.75L111.38 86.63Q111.38 86.63 115.56 86.63Q119.75 86.63 122 86.63L122 86.63Q123.63 86.63 125.75 85.25Q127.88 83.88 128 80.63L128 80.63Q128 80.50 128 79.50Q128 78.50 128 78.25L128 78.25Q128 75.50 126.06 73.88Q124.13 72.25 122 72.25ZM60.38 71.38L60.38 71.38Q60.38 65.88 56.94 64.63Q53.50 63.38 53.50 63.38L53.50 63.38L41.25 63.38L41.25 86.50L47.38 86.50L47.38 81L52.75 86.63L62 86.63L54.75 79.25Q54.75 79.25 57.56 78.06Q60.38 76.88 60.38 71.38L60.38 71.38ZM52.25 74.50L52.25 74.50L47.25 74.50L47.25 69.25L52.25 69.25Q52.25 69.25 53 69.75Q53.75 70.25 53.75 71.75L53.75 71.75Q53.75 73.50 53 74Q52.25 74.50 52.25 74.50ZM75.75 63.63L75.75 63.63Q74.50 63.63 73.63 63.63Q72.75 63.63 69.38 63.63L69.38 63.63Q66 63.63 64.69 65.88Q63.38 68.13 63.38 69.63L63.38 69.63Q63.38 72.75 63.38 79.63Q63.38 86.50 63.38 86.50L63.38 86.50L69.75 86.50L69.75 82.50L75.63 82.50L75.63 86.50L81.75 86.50Q81.75 86.50 81.75 79.69Q81.75 72.88 81.75 69.63L81.75 69.63Q81.75 65.88 79.31 64.75Q76.88 63.63 75.75 63.63L75.75 63.63ZM75.63 70.25L75.63 75.88L69.63 75.88L69.63 70.25Q69.63 70.25 69.88 69.63Q70.13 69 71.63 69L71.63 69Q73 69 72.69 69Q72.38 69 73.75 69L73.75 69Q75.13 69 75.38 69.63Q75.63 70.25 75.63 70.25L75.63 70.25ZM84.63 86.50L84.63 63.63L91.25 63.63L91.25 86.50L84.63 86.50ZM100.38 80.63L100.38 63.63L93.88 63.63L93.88 86.50L109.25 86.50L109.25 80.63L100.38 80.63ZM72.25 60.75L72.25 60.75Q72.63 60.38 72.94 60.06Q73.25 59.75 73.25 59.75L73.25 59.75Q73.25 59.75 70.38 57.25L70.38 57.25Q67.50 54.63 62.56 51.63Q57.63 48.63 51.25 46.38L51.25 46.38Q44.75 44.25 37.75 44.88L37.75 44.88Q30.63 45.50 22.81 51.31Q15 57.13 9.88 65.63L9.88 65.63Q4.75 74.13 3.50 80.31Q2.25 86.50 2.25 86.50L2.25 86.50L27.75 86.50Q27.75 86.50 27.25 82.88L27.25 82.88Q26.75 79.25 27.38 74.25Q28 69.25 30.50 63.88L30.50 63.88Q33 58.63 39.13 55.25L39.13 55.25Q41.75 53.88 50.13 52.19Q58.50 50.50 72.25 60.75L72.25 60.75ZM55.38 46.75L55.50 44.50Q55.25 44.38 54.56 44.06Q53.88 43.75 52.38 43.38L52.38 43.38L52.25 45.50Q53.13 45.75 53.88 46.06Q54.63 46.38 55.38 46.75L55.38 46.75ZM55.50 55.88L55.50 55.88L55.63 53.88Q54.75 53.75 53.94 53.69Q53.13 53.63 52.38 53.50L52.38 53.50L52.25 55.50Q53.13 55.50 53.88 55.63Q54.63 55.75 55.50 55.88ZM40.38 43.50L40.38 43.50Q40.50 43.50 40.56 43.50Q40.63 43.50 40.75 43.50L40.75 43.50L40.13 41.50Q39.38 41.50 38.63 41.56Q37.88 41.63 37 41.75L37 41.75L37.63 43.63Q38.25 43.50 38.94 43.50Q39.63 43.50 40.38 43.50L40.38 43.50ZM41.88 55.38L42.63 57.63Q43.25 57.25 44 57Q44.75 56.75 45.38 56.50L45.38 56.50L44.75 54.38Q44 54.50 43.25 54.81Q42.50 55.13 41.88 55.38L41.88 55.38ZM27.25 46.88L27.25 46.88L25.75 44.75Q25.13 44.88 24.50 45.25Q23.88 45.63 23.25 46L23.25 46L24.75 48.25Q25.38 47.88 26 47.56Q26.63 47.25 27.25 46.88L27.25 46.88ZM33.88 61.38L33.88 61.38L35.50 63.75Q36 63.13 36.44 62.50Q36.88 61.88 37.38 61.38L37.38 61.38L35.88 59.25Q35.25 59.75 34.81 60.31Q34.38 60.88 33.88 61.38ZM32.50 70.13L30.25 68.25Q29.88 69.25 29.63 70.13Q29.38 71 29.25 71.75L29.25 71.75L31.75 73.88Q31.88 72.88 32.06 72Q32.25 71.13 32.50 70.13L32.50 70.13ZM15 56.50L15 56.50L12.75 54.50Q12.13 55.13 11.50 55.69Q10.88 56.25 10.25 56.88L10.25 56.88L12.75 59Q13.38 58.38 13.88 57.75Q14.38 57.13 15 56.50ZM5.25 70.88L5.25 70.88L1.50 69.50Q1 70.50 0.56 71.63Q0.13 72.75-0.13 73.38L-0.13 73.38L3.63 74.75Q3.88 74 4.38 72.88Q4.88 71.75 5.25 70.88ZM28.75 80L28.75 80Q28.75 81.25 28.88 82.31Q29 83.38 29.13 84.13L29.13 84.13L33 85.50Q32.75 84.50 32.56 83.44Q32.38 82.38 32.25 81.25L32.25 81.25L28.75 80Z"/></svg>