<svg xmlns="http://www.w3.org/2000/svg" xmlns:xlink="http://www.w3.org/1999/xlink" width="128" height="128"><path fill="#000000" d="M4.38 99.50L3.25 99.50L3.25 97.13L1.13 97.13L1.13 99.50L0 99.50L0 93.88L1.13 93.88L1.13 96.25L3.25 96.25L3.25 93.88L4.38 93.88L4.38 99.50ZM8.38 96.88L8.25 99.50L7.50 99.50L7.38 99.25Q7.13 99.38 6.81 99.50Q6.50 99.63 6.13 99.63L6.13 99.63Q6.13 99.63 6.13 99.63Q6.13 99.63 6.13 99.63L6.13 99.63L6.13 99.63Q5.50 99.63 5.25 99.25Q5 98.88 5 98.38L5 98.38Q5 97.88 5.31 97.56Q5.63 97.25 6.25 97.25L6.25 97.25L7.25 97.25L7.25 96.88Q7.25 96.50 7.13 96.38Q7 96.25 6.50 96.25L6.50 96.25Q6.13 96.25 5.81 96.25Q5.50 96.25 5.25 96.38L5.25 96.38L5.13 95.63Q5.50 95.50 5.88 95.44Q6.25 95.38 6.63 95.38L6.63 95.38Q7.63 95.38 8 95.75Q8.38 96.13 8.38 96.88L8.38 96.88ZM7.25 98.63L7.25 98L6.50 98Q6.25 98 6.13 98.06Q6 98.13 6 98.38L6 98.38Q6 98.63 6.13 98.69Q6.25 98.75 6.50 98.75L6.50 98.75Q6.63 98.75 6.88 98.69Q7.13 98.63 7.25 98.63L7.25 98.63L7.25 98.63ZM10.50 99.63L10.50 99.63Q10.13 99.63 9.75 99.56Q9.38 99.50 9 99.38L9 99.38L9 99.38L9.25 98.63Q9.50 98.63 9.81 98.69Q10.13 98.75 10.50 98.75L10.50 98.75Q10.75 98.75 10.88 98.69Q11 98.63 11 98.38L11 98.38Q11 98.13 10.88 98.06Q10.75 98 10.25 97.88L10.25 97.88Q9.50 97.63 9.31 97.38Q9.13 97.13 9.13 96.50L9.13 96.50Q9.13 96 9.50 95.69Q9.88 95.38 10.75 95.38L10.75 95.38Q11 95.38 11.31 95.44Q11.63 95.50 12 95.50L12 95.50L11.88 96.38Q11.63 96.25 11.31 96.25Q11 96.25 10.75 96.25L10.75 96.25L10.75 96.25Q10.38 96.25 10.25 96.31Q10.13 96.38 10.13 96.63L10.13 96.63Q10.13 96.75 10.25 96.88Q10.38 97 10.75 97L10.75 97Q11.63 97.25 11.88 97.50Q12.13 97.75 12.13 98.38L12.13 98.38Q12.13 99 11.81 99.31Q11.50 99.63 10.50 99.63L10.50 99.63ZM16.38 99.50L15.38 99.50L15.38 96.63Q15.38 96.50 15.25 96.44Q15.13 96.38 15 96.38L15 96.38Q14.75 96.38 14.44 96.44Q14.13 96.50 13.88 96.75L13.88 96.75L13.88 99.50L12.75 99.50L12.75 93.75L13.88 94L13.88 95.75Q14.25 95.63 14.63 95.50Q15 95.38 15.38 95.38L15.38 95.38L15.38 95.38Q16 95.38 16.19 95.69Q16.38 96 16.38 96.63L16.38 96.63L16.38 99.50ZM18.38 94.88L17.25 94.88L17.25 93.88L18.38 93.88L18.38 94.88ZM18.38 99.50L17.25 99.50L17.25 95.50L18.38 95.50L18.38 99.50ZM19.13 98L19.13 95.50Q19.13 94.75 19.63 94.31Q20.13 93.88 21.25 93.88L21.25 93.88Q21.63 93.88 22.06 93.94Q22.50 94 22.88 94.13L22.88 94.13L22.75 94.13L22.63 95Q22.38 94.88 22 94.81Q21.63 94.75 21.25 94.75L21.25 94.75L21.25 94.75Q20.75 94.75 20.50 94.94Q20.25 95.13 20.25 95.63L20.25 95.63L20.25 97.75Q20.25 98.25 20.50 98.44Q20.75 98.63 21.25 98.63L21.25 98.63Q21.63 98.63 22 98.56Q22.38 98.50 22.75 98.50L22.75 98.50L22.63 98.50L22.75 99.38Q22.38 99.50 22 99.56Q21.63 99.63 21.25 99.63L21.25 99.63L21.25 99.63Q20.13 99.63 19.63 99.19Q19.13 98.75 19.13 98L19.13 98ZM25.13 99.63L25.13 99.63Q24 99.63 23.63 99.13Q23.25 98.63 23.25 98L23.25 98L23.25 97Q23.25 96.38 23.63 95.88Q24 95.38 25.13 95.38L25.13 95.38Q26.25 95.38 26.63 95.88Q27 96.38 27 97L27 97L27 98Q27 98.63 26.63 99.13Q26.25 99.63 25.13 99.63L25.13 99.63ZM25.13 96.25L25.13 96.25Q24.75 96.25 24.56 96.44Q24.38 96.63 24.38 97L24.38 97L24.38 98.13Q24.38 98.38 24.50 98.56Q24.63 98.75 25.13 98.75L25.13 98.75Q25.50 98.75 25.69 98.56Q25.88 98.38 25.88 98.13L25.88 98.13L25.88 97Q25.88 96.63 25.69 96.44Q25.50 96.25 25.13 96.25L25.13 96.25ZM29.75 95.38L29.88 96.38Q29.63 96.50 29.38 96.63Q29.13 96.75 28.75 96.88L28.75 96.88L28.75 99.50L27.75 99.50L27.75 95.50L28.63 95.50L28.63 95.88Q28.88 95.75 29.19 95.63Q29.50 95.50 29.75 95.38L29.75 95.38L29.75 95.38ZM34.13 96.75L34.13 98.13Q34.13 98.13 34.13 98.19Q34.13 98.25 34.13 98.25L34.13 98.25Q34.13 98.50 34.06 98.75Q34 99 33.88 99.13L33.88 99.13L33.88 99.13Q33.63 99.38 33.38 99.50Q33.13 99.63 32.75 99.50L32.75 99.50Q32.50 99.50 32.19 99.50Q31.88 99.50 31.63 99.38L31.63 99.38L31.63 99.38L31.63 101.13L30.63 101.25L30.63 95.50L31.38 95.50L31.50 95.75Q31.75 95.63 32.13 95.50Q32.50 95.38 32.88 95.38L32.88 95.38Q33.50 95.38 33.81 95.75Q34.13 96.13 34.13 96.75L34.13 96.75ZM31.63 96.63L31.63 98.63Q31.88 98.63 32.13 98.63Q32.38 98.63 32.63 98.63L32.63 98.63Q32.88 98.63 33 98.50Q33.13 98.38 33.13 98.13L33.13 98.13L33.13 96.75Q33.13 96.50 33 96.38Q32.88 96.25 32.63 96.25L32.63 96.25Q32.38 96.25 32.13 96.31Q31.88 96.38 31.63 96.63L31.63 96.63ZM6.38 127.38L6.38 108L0 108L0 104.13L17.25 104.13L17.25 108L10.75 108L10.75 127.38L6.38 127.38ZM21.13 124.25L21.13 124.25Q22.50 124.25 23.88 124Q25.25 123.75 26.50 123.38L26.50 123.38L26.38 123.50L27 126.63Q25.63 127.13 24.06 127.44Q22.50 127.75 20.75 127.75L20.75 127.75L20.75 127.75Q16.88 127.75 15.25 126Q13.63 124.25 13.63 121.25L13.63 121.25L13.63 116.75Q13.63 114.13 15.13 112.13Q16.63 110.13 20.63 110.13L20.63 110.13Q24.75 110.13 26 112.13Q27.25 114.13 27.25 116.88L27.25 116.88L27.25 120.50L17.88 120.50L17.88 121.38Q17.88 122.88 18.56 123.56Q19.25 124.25 21.13 124.25L21.13 124.25ZM17.88 116.25L17.88 117.13L23.25 117.13L23.25 116.25Q23.25 115 22.75 114.25Q22.25 113.50 20.63 113.50L20.63 113.50Q19.13 113.50 18.50 114.25Q17.88 115 17.88 116.25L17.88 116.25ZM38.13 110.13L38.50 114Q37.25 114.63 36.13 115.25Q35 115.88 34 116.50L34 116.50L34.13 116.50L34.13 127.38L29.88 127.38L29.88 110.38L33.38 110.38L33.75 112.25Q34.63 111.63 35.69 111.06Q36.75 110.50 38 110.13L38 110.13L38.13 110.13ZM48.38 110.13L48.88 114Q47.50 114.63 46.44 115.25Q45.38 115.88 44.25 116.50L44.25 116.50L44.38 116.50L44.38 127.38L40.13 127.38L40.13 110.38L43.75 110.38L44 112.25Q44.88 111.63 46 111.06Q47.13 110.50 48.25 110.13L48.25 110.13L48.38 110.13ZM62.88 116.25L62.88 127.38L59.50 127.38L59.13 126.25Q58.13 127 56.81 127.38Q55.50 127.75 54.13 127.75L54.13 127.75L54.13 127.75Q51.88 127.75 50.81 126.31Q49.75 124.88 49.75 122.75L49.75 122.75Q49.75 120.13 50.94 119.06Q52.13 118 54.63 118L54.63 118L58.75 118L58.75 116.13Q58.75 114.75 58.13 114.19Q57.50 113.63 55.50 113.63L55.50 113.63Q54.25 113.63 53.13 113.75Q52 113.88 50.88 114.13L50.88 114.13L50.25 110.88Q51.63 110.50 53.06 110.31Q54.50 110.13 56 110.13L56 110.13L56.13 110.13Q60 110.13 61.44 111.56Q62.88 113 62.88 116.25L62.88 116.25ZM58.75 123.50L58.75 121L55.63 121Q54.50 121 54.19 121.31Q53.88 121.63 53.88 122.63L53.88 122.63Q53.88 123.63 54.19 124Q54.50 124.38 55.50 124.38L55.50 124.38Q56.38 124.38 57.19 124.13Q58 123.88 58.75 123.50L58.75 123.50L58.75 123.50ZM76.25 103.25L75.88 106.50Q75.38 106.38 74.75 106.31Q74.13 106.25 73.50 106.25L73.50 106.25L73.50 106.25Q72.25 106.25 71.94 106.81Q71.63 107.38 71.63 108.25L71.63 108.25L71.63 110.38L75.88 110.38L75.63 113.75L71.50 113.75L71.50 127.38L67.38 127.38L67.38 113.75L64.63 113.75L64.63 110.50L67.38 110.50L67.38 108Q67.38 105.38 68.63 104.06Q69.88 102.75 72.75 102.75L72.75 102.75Q73.63 102.75 74.50 102.88Q75.38 103 76.25 103.25L76.25 103.25ZM84.13 127.75L84.13 127.75Q79.75 127.75 78.25 125.69Q76.75 123.63 76.75 121.13L76.75 121.13L76.75 116.75Q76.75 114.13 78.25 112.13Q79.75 110.13 84.13 110.13L84.13 110.13Q88.38 110.13 89.88 112.13Q91.38 114.13 91.38 116.75L91.38 116.75L91.38 121.13Q91.38 123.63 89.88 125.69Q88.38 127.75 84.13 127.75ZM84.13 113.63L84.13 113.75Q82.50 113.75 81.75 114.44Q81 115.13 81 116.63L81 116.63L81 121.13Q81 122.63 81.69 123.38Q82.38 124.13 84.13 124.13L84.13 124.13Q85.75 124.13 86.50 123.38Q87.25 122.63 87.25 121.13L87.25 121.13L87.25 116.63Q87.25 115.13 86.50 114.38Q85.75 113.63 84.13 113.63L84.13 113.63ZM101.88 110.13L102.25 114Q101 114.63 99.88 115.25Q98.75 115.88 97.75 116.50L97.75 116.50L97.88 116.50L97.88 127.38L93.63 127.38L93.63 110.38L97.13 110.38L97.38 112.25Q98.38 111.63 99.44 111.06Q100.50 110.50 101.75 110.13L101.75 110.13L101.88 110.13ZM118 127.38L113.88 127.38L113.88 115.50Q113.88 114.88 113.56 114.50Q113.25 114.13 112.50 114.13L112.50 114.13Q111.38 114.25 110.25 114.63Q109.13 115 108.13 115.63L108.13 115.63L108.13 127.38L103.88 127.38L103.88 110.38L107.13 110.38L107.50 111.88Q109 111.13 110.69 110.63Q112.38 110.13 114.25 110.13L114.25 110.13L114.25 110.13Q114.38 110 114.44 110Q114.50 110 114.50 110L114.50 110Q115.50 110 116.25 110.50Q117 111 117.38 111.88L117.38 111.88L117.38 111.88Q118.88 111.13 120.63 110.63Q122.38 110.13 124.13 110.13L124.13 110.13L124.25 110.13Q126.25 110.13 127.13 111.44Q128 112.75 128 115.13L128 115.13L128 127.38L123.75 127.38L123.75 115.50Q123.75 114.88 123.44 114.50Q123.13 114.13 122.50 114.13L122.50 114.13Q121.25 114.25 120.13 114.63Q119 115 118 115.63L118 115.63L118 115.63L118 127.38ZM52.38 42.63L52.38 15.38L75.63 29L75.63 56.25L52.38 42.63ZM101.50 15.38L78.25 29L78.25 56.25L101.50 42.63L101.50 15.38ZM49.75 13.88L26.50 0.25L26.50 27.50L49.75 41L49.75 13.88ZM52.38 45.63L52.38 72.75L75.63 86.38L75.63 59.13L52.38 45.63Z"/></svg>