<svg xmlns="http://www.w3.org/2000/svg" xmlns:xlink="http://www.w3.org/1999/xlink" width="128" height="128"><path fill="#000000" d="M13.75 107.13L13.75 107.13L21.75 107.13L21.75 124.50L18.25 124.50L18.25 110.50L14.38 110.50Q13.13 110.50 12.38 110.56Q11.63 110.63 11.50 110.75L11.50 110.75Q10.75 111 10.06 111.44Q9.38 111.88 8.88 112.63L8.88 112.63Q8.25 113.38 8 114.19Q7.75 115 7.75 115.88L7.75 115.88Q7.75 116.88 8.13 117.81Q8.50 118.75 9.25 119.63L9.25 119.63Q9.75 120.13 10.25 120.44Q10.75 120.75 11.13 120.75L11.13 120.75Q11.50 121 12.13 121.13Q12.75 121.25 13.75 121.25L13.75 121.25L16.13 121.25L16.13 124.50L13.25 124.50Q11.63 124.50 10.25 124.13Q8.88 123.75 7.75 122.88L7.75 122.88Q6.88 122.25 6.38 121.63Q5.88 121 5.63 120.50L5.63 120.50Q4.88 119.50 4.56 118.38Q4.25 117.25 4.25 116.13L4.25 116.13L4.25 115.63Q4.25 114 4.81 112.56Q5.38 111.13 6.63 109.88L6.63 109.88Q7.25 109.13 7.88 108.69Q8.50 108.25 8.88 108.13L8.88 108.13Q9.25 107.88 9.69 107.75Q10.13 107.63 10.75 107.38L10.75 107.38Q11.25 107.25 12 107.19Q12.75 107.13 13.75 107.13L13.75 107.13ZM39.38 110.63L39.38 110.63Q39.63 111 39.81 111.31Q40 111.63 40.13 111.75L40.13 111.75Q40.25 112.13 40.38 112.50Q40.50 112.88 40.75 113.38L40.75 113.38Q40.88 114 41 114.81Q41.13 115.63 41.13 116.75L41.13 116.75L41.13 124.50L37.63 124.50L37.63 116.38Q37.63 114.25 36.69 112.88Q35.75 111.50 33.88 110.75L33.88 110.75Q33.38 110.63 33 110.56Q32.63 110.50 32.38 110.50L32.38 110.50Q32 110.50 31.63 110.56Q31.25 110.63 30.88 110.75L30.88 110.75Q29 111.50 28 112.88Q27 114.25 27 116.38L27 116.38L27 124.50L23.50 124.50L23.50 116.75Q23.50 115.63 23.63 114.81Q23.75 114 23.88 113.38L23.88 113.38Q24.13 112.88 24.25 112.50Q24.38 112.13 24.50 111.75L24.50 111.75Q24.63 111.50 24.81 111.25Q25 111 25.38 110.63L25.38 110.63Q26.75 108.88 28.50 108Q30.25 107.13 32.38 107.13L32.38 107.13Q34.38 107.13 36.13 108Q37.88 108.88 39.38 110.63ZM49.13 107.13L49.13 107.13Q50.88 107.13 51.88 107.19Q52.88 107.25 53.13 107.25L53.13 107.25Q53.88 107.38 54.69 107.69Q55.50 108 56.38 108.50L56.38 108.50Q56.88 108.75 57.38 109.25Q57.88 109.75 58.50 110.38L58.50 110.38Q59.38 111.63 59.88 113Q60.38 114.38 60.38 115.88L60.38 115.88Q60.38 116.75 60.19 117.63Q60 118.50 59.75 119.25L59.75 119.25Q59 120.88 57.88 122Q56.75 123.13 55.13 123.75L55.13 123.75Q54.50 124.13 53.38 124.31Q52.25 124.50 50.63 124.50L50.63 124.50L43.25 124.50L42.88 124.50L42.88 121.13L51 121.13Q51.75 121.13 52.25 121.06Q52.75 121 53.13 121L53.13 121Q54 120.63 54.69 120.13Q55.38 119.63 55.88 119L55.88 119Q56.38 118.25 56.63 117.44Q56.88 116.63 56.88 115.88L56.88 115.88Q56.88 115.13 56.69 114.38Q56.50 113.63 56 112.88L56 112.88Q55.75 112.50 55.44 112.13Q55.13 111.75 54.75 111.63L54.75 111.63Q54.13 111 53.19 110.75Q52.25 110.50 51 110.50L51 110.50L42.88 110.50L42.88 107.13L49.13 107.13ZM62.25 107.13L62.25 107.13L73.38 107.13Q74.88 107.13 76.06 107.56Q77.25 108 78 108.88L78 108.88Q78.38 109.25 78.69 109.63Q79 110 79.13 110.25L79.13 110.25Q79.38 110.88 79.56 111.56Q79.75 112.25 79.75 112.88L79.75 112.88L79.75 113.38Q79.75 114.25 79.31 115.19Q78.88 116.13 78.13 117L78.13 117Q77.50 117.63 77.06 117.94Q76.63 118.25 76.13 118.38L76.13 118.38Q77.25 119.50 77.81 121.06Q78.38 122.63 78.38 124.50L78.38 124.50L74.88 124.50L74.88 124.25Q74.88 122.88 74.25 121.75Q73.63 120.63 72.50 119.75L72.50 119.75Q71.88 119.25 71 119.06Q70.13 118.88 69.13 118.88L69.13 118.88L62.25 118.88L62.25 115.50L73.63 115.50Q74.50 115.50 75.19 115Q75.88 114.50 76.13 113.63L76.13 113.63Q76.25 113.38 76.25 113.25Q76.25 113.13 76.25 113L76.25 113Q76.25 112.50 76.06 112Q75.88 111.50 75.38 111.13L75.38 111.13Q75 110.88 74.63 110.69Q74.25 110.50 73.88 110.50L73.88 110.50Q73.88 110.50 73.75 110.50Q73.63 110.50 73.38 110.50L73.38 110.50L62.25 110.50L62.25 107.13ZM90.25 107.13L90.25 107.13L90.38 107.13Q92.38 107.13 94.06 107.94Q95.75 108.75 97.25 110.50L97.25 110.50Q98.13 111.63 98.63 113Q99.13 114.38 99.13 115.75L99.13 115.75L99.13 115.88Q99.13 118 98.25 119.69Q97.38 121.38 95.75 122.75L95.75 122.75Q94.50 123.63 93.19 124.06Q91.88 124.50 90.38 124.50L90.38 124.50L90.25 124.50Q88.25 124.50 86.56 123.69Q84.88 122.88 83.38 121.25L83.38 121.25Q82.88 120.63 82.56 120Q82.25 119.38 82 118.75L82 118.75Q81.75 118 81.63 117.31Q81.50 116.63 81.50 115.88L81.50 115.88L81.50 115.75Q81.50 113.88 82.31 112.19Q83.13 110.50 84.75 109L84.75 109Q85.88 108.25 86.88 107.81Q87.88 107.38 88.75 107.25L88.75 107.25Q89.13 107.25 89.44 107.19Q89.75 107.13 90.25 107.13L90.25 107.13ZM85 115.88L85 115.88Q85 117 85.44 118Q85.88 119 86.75 119.88L86.75 119.88Q87.63 120.50 88.44 120.81Q89.25 121.13 90.13 121.13L90.13 121.13L90.50 121.13Q91.13 121.13 91.88 120.94Q92.63 120.75 93.38 120.25L93.38 120.25Q94.13 119.63 94.63 118.94Q95.13 118.25 95.38 117.38L95.38 117.38Q95.38 117.25 95.44 116.81Q95.50 116.38 95.63 115.88L95.63 115.88Q95.63 114.75 95.19 113.75Q94.75 112.75 93.88 112L93.88 112Q93 111.25 92.13 110.88Q91.25 110.50 90.25 110.50L90.25 110.50Q89.13 110.50 88.13 111Q87.13 111.50 86.25 112.38L86.25 112.38Q85.88 112.88 85.69 113.31Q85.50 113.75 85.38 114L85.38 114Q85.25 114.50 85.13 114.94Q85 115.38 85 115.88L85 115.88ZM100.88 124.50L100.88 107.13L104.38 107.13L104.38 124.50L100.88 124.50ZM112.50 107.13L112.50 107.13Q114.25 107.13 115.25 107.19Q116.25 107.25 116.50 107.25L116.50 107.25Q117.25 107.38 118.06 107.69Q118.88 108 119.75 108.50L119.75 108.50Q120.25 108.75 120.75 109.25Q121.25 109.75 121.88 110.38L121.88 110.38Q122.75 111.63 123.25 113Q123.75 114.38 123.75 115.88L123.75 115.88Q123.75 116.75 123.56 117.63Q123.38 118.50 123.13 119.25L123.13 119.25Q122.38 120.88 121.25 122Q120.13 123.13 118.50 123.75L118.50 123.75Q117.75 124.13 116.69 124.31Q115.63 124.50 114 124.50L114 124.50L106.63 124.50L106.25 124.50L106.25 121.13L114.38 121.13Q115.13 121.13 115.63 121.06Q116.13 121 116.50 121L116.50 121Q117.38 120.63 118.06 120.13Q118.75 119.63 119.25 119L119.25 119Q119.75 118.25 120 117.44Q120.25 116.63 120.25 115.88L120.25 115.88Q120.25 115.13 120.06 114.38Q119.88 113.63 119.38 112.88L119.38 112.88Q119.13 112.50 118.75 112.13Q118.38 111.75 118.13 111.63L118.13 111.63Q117.50 111 116.56 110.75Q115.63 110.50 114.38 110.50L114.38 110.50L106.25 110.50L106.25 107.13L112.50 107.13ZM29.13 36.38L29.13 36.38Q26.75 36.38 25 38.13Q23.25 39.88 23.25 42.25L23.25 42.25L23.25 67.25Q23.25 69.63 25 71.38Q26.75 73.13 29.25 73.13L29.25 73.13Q31.63 73.13 33.38 71.38Q35.13 69.63 35.13 67.25L35.13 67.25L35.13 42.25Q35.13 39.88 33.38 38.13Q31.63 36.38 29.13 36.38L29.13 36.38ZM77.13 14L77.13 14L81.25 6.50Q81.38 6.13 81.31 5.81Q81.25 5.50 81 5.38L81 5.38Q80.63 5.13 80.31 5.25Q80 5.38 79.88 5.63L79.88 5.63L75.63 13.25Q73 12.13 70.06 11.50Q67.13 10.88 64 10.88L64 10.88Q60.88 10.88 57.94 11.50Q55 12.13 52.38 13.25L52.38 13.25L48.13 5.63Q48 5.38 47.69 5.25Q47.38 5.13 47 5.38L47 5.38Q46.75 5.50 46.63 5.81Q46.50 6.13 46.75 6.50L46.75 6.50L50.88 14Q44.75 17.13 41 22.81Q37.25 28.50 37.25 35.38L37.25 35.38L90.75 35.38Q90.75 28.50 87 22.81Q83.25 17.13 77.13 14ZM51.75 25.75L51.75 25.75Q50.88 25.75 50.25 25.06Q49.63 24.38 49.63 23.50L49.63 23.50Q49.63 22.50 50.25 21.88Q50.88 21.25 51.75 21.25L51.75 21.25Q52.75 21.25 53.38 21.88Q54 22.50 54 23.50L54 23.50Q54 24.38 53.38 25.06Q52.75 25.75 51.75 25.75ZM76.13 25.75L76.13 25.75Q75.25 25.75 74.63 25.06Q74 24.38 74 23.50L74 23.50Q74 22.50 74.63 21.88Q75.25 21.25 76.13 21.25L76.13 21.25Q77.13 21.25 77.75 21.88Q78.38 22.50 78.38 23.50L78.38 23.50Q78.38 24.38 77.75 25.06Q77.13 25.75 76.13 25.75ZM37.38 37.50L37.38 37.50L37.50 76Q37.50 78.75 39.31 80.56Q41.13 82.38 43.75 82.38L43.75 82.38L48.13 82.38L48.13 95.63Q48.13 98 49.88 99.75Q51.63 101.50 54 101.50L54 101.50Q56.50 101.50 58.25 99.75Q60 98 60 95.63L60 95.63L60 82.38L68 82.38L68 95.63Q68 98 69.75 99.75Q71.50 101.50 74 101.50L74 101.50Q76.38 101.50 78.13 99.75Q79.88 98 79.88 95.50L79.88 95.50L79.88 82.38L84.25 82.38Q86.88 82.38 88.75 80.50Q90.63 78.63 90.63 76L90.63 76L90.63 37.50L37.38 37.50ZM104.75 42.25L104.75 42.25Q104.75 39.88 103 38.13Q101.25 36.38 98.75 36.38L98.75 36.38Q96.38 36.38 94.63 38.13Q92.88 39.88 92.88 42.25L92.88 42.25L92.88 67.25Q92.88 69.63 94.63 71.38Q96.38 73.13 98.88 73.13L98.88 73.13Q101.25 73.13 103 71.38Q104.75 69.63 104.75 67.25L104.75 67.25L104.75 42.25Z"/></svg>