<svg xmlns="http://www.w3.org/2000/svg" xmlns:xlink="http://www.w3.org/1999/xlink" width="128" height="128"><path fill="#ffffff" d="M21 43L21 43Q18 43 15.81 45.13Q13.63 47.25 13.63 50.38L13.63 50.38L13.63 81.13Q13.63 84.13 15.81 86.25Q18 88.38 21 88.38L21 88.38Q24 88.38 26.19 86.25Q28.38 84.13 28.38 81.13L28.38 81.13L28.38 50.38Q28.38 47.25 26.19 45.13Q24 43 21 43ZM80.25 15.38L80.25 15.38L85.38 6Q85.50 5.63 85.38 5.25Q85.25 4.88 84.88 4.63L84.88 4.63Q84.50 4.50 84.13 4.63Q83.75 4.75 83.50 5.13L83.50 5.13L78.38 14.50Q75.13 13.13 71.50 12.31Q67.88 11.50 64 11.50L64 11.50Q60.13 11.50 56.50 12.25Q52.88 13 49.63 14.50L49.63 14.50L44.50 5.13Q44.25 4.75 43.88 4.63Q43.50 4.50 43.13 4.63L43.13 4.63Q42.75 4.88 42.63 5.25Q42.50 5.63 42.63 6L42.63 6L47.75 15.38Q40.25 19.25 35.56 26.31Q30.88 33.38 30.88 41.88L30.88 41.88L97 41.88Q97 33.38 92.38 26.31Q87.75 19.25 80.25 15.38ZM49 29.88L49 29.88Q47.75 29.88 46.94 29.06Q46.13 28.25 46.13 27.13L46.13 27.13Q46.13 26 46.94 25.13Q47.75 24.25 49 24.38L49 24.38Q50.13 24.25 50.94 25.13Q51.75 26 51.75 27.13L51.75 27.13Q51.75 28.25 50.94 29.06Q50.13 29.88 49 29.88ZM79 29.88L79 29.88Q77.88 29.88 77.06 29.06Q76.25 28.25 76.25 27.13L76.25 27.13Q76.25 26 77.06 25.13Q77.88 24.25 79 24.25L79 24.25Q80.25 24.25 81.06 25.13Q81.88 26 81.88 27.13L81.88 27.13Q81.88 28.25 81.06 29.06Q80.25 29.88 79 29.88L79 29.88ZM31.25 44.38L31.25 44.38L31.25 92Q31.25 95.25 33.50 97.56Q35.75 99.88 39 99.88L39 99.88L44.38 99.88L44.38 116.13Q44.38 119.13 46.50 121.31Q48.63 123.50 51.75 123.50L51.75 123.50Q54.75 123.50 56.88 121.31Q59 119.13 59 116.13L59 116.13L59 99.88L69 99.88L69 116.13Q69 119.13 71.13 121.31Q73.25 123.50 76.25 123.50L76.25 123.50Q79.38 123.50 81.50 121.31Q83.63 119.13 83.63 116.13L83.63 116.13L83.63 99.88L89 99.88Q92.25 99.88 94.56 97.56Q96.88 95.25 96.88 92L96.88 92L96.88 44.38L31.25 44.38ZM114.38 81.13L114.38 50.38Q114.38 47.25 112.19 45.13Q110 43 107 43L107 43Q104 43 101.81 45.13Q99.63 47.25 99.63 50.38L99.63 50.38L99.63 81.13Q99.63 84.13 101.81 86.25Q104 88.38 107 88.38L107 88.38Q110 88.38 112.19 86.25Q114.38 84.13 114.38 81.13L114.38 81.13Z"/></svg>