<svg xmlns="http://www.w3.org/2000/svg" xmlns:xlink="http://www.w3.org/1999/xlink" width="128" height="128"><path fill="#ffffff" d="M94.75 87L94.75 87Q93.75 87.38 92.50 87.56Q91.25 87.75 89.88 87.75L89.88 87.75Q89.88 87.75 89.81 87.75Q89.75 87.75 89.63 87.75L89.63 87.75L89.63 87.75Q83.88 87.75 77.25 79L77.25 79Q70.50 70.25 64.81 58.50Q59.13 46.75 55.38 34.63L55.38 34.63Q51.50 22.50 51.50 15.88L51.50 15.88Q51.50 10.88 52.56 8.69Q53.63 6.50 55.38 5.13L55.38 5.13Q48.25 6 40.75 7.63L40.75 7.63Q33.25 9.25 26.56 11.63Q19.88 14 14.50 16.88L14.50 16.88Q9.25 19.75 6.50 23.13L6.50 23.13Q5.38 24.75 4.69 27.31Q4 29.88 4 33.13L4 33.13Q4 43.63 9 59.25L9 59.25Q14 74.88 21.56 89.44Q29.13 104 38.13 114.38L38.13 114.38Q47.13 124.75 55 124.75L55 124.75Q58.63 124.75 63.38 122L63.38 122Q68.25 119.13 73.50 114.06Q78.75 109 84.25 102.13L84.25 102.13Q89.75 95.13 94.75 87L94.75 87ZM84.88 3.25L85 3.25Q92.25 3.25 99.25 3.88L99.25 3.88Q106.25 4.50 111.75 6.13Q117.25 7.75 120.63 10.50L120.63 10.50Q124 13.25 124 17.38L124 17.38Q124 25.75 121.63 34.50L121.63 34.50Q119.38 43.38 116 50.50Q112.63 57.63 109 62.25L109 62.25Q105.25 66.88 102.63 66.88L102.63 66.88Q97.75 66.88 92.63 61L92.63 61Q87.50 55.13 83.25 46.69Q79 38.25 76.25 29L76.25 29Q73.63 19.75 73.63 13L73.63 13Q73.63 6.88 76.19 5.06Q78.75 3.25 84.88 3.25L84.88 3.25Z"/></svg>