<svg xmlns="http://www.w3.org/2000/svg" xmlns:xlink="http://www.w3.org/1999/xlink" width="128" height="128"><path fill="#000000" d="M27.75 66.25L27.75 66.25Q27.38 66.38 27.06 66.38Q26.75 66.38 26.50 66.38L26.50 66.38Q26.38 66.38 26.38 66.38Q26.38 66.38 26.38 66.38L26.38 66.38L26.38 66.38Q23.38 66.38 19.88 58.75Q16.38 51.13 16.38 47.63L16.38 47.63Q16.38 46.38 16.69 45.81Q17 45.25 17.38 44.88L17.38 44.88Q13.75 45.25 9.94 46.50Q6.13 47.75 4.63 49.50L4.63 49.50Q4.38 50 4.19 50.63Q4 51.25 4 52L4 52Q4 52 4 52.06Q4 52.13 4 52.13L4 52.13L4 52.13Q4 54.88 5.25 59L5.25 59Q6.63 63.13 8.63 66.94Q10.63 70.75 12.88 73.50L12.88 73.50Q15.25 76.13 17.38 76.13L17.38 76.13Q19.25 76.13 22.19 73.31Q25.13 70.50 27.75 66.25L27.75 66.25ZM25.25 44.38L25.13 44.38Q29 44.38 32.19 45.13Q35.38 45.88 35.38 48L35.38 48Q35.38 52.50 33.25 56.75Q31.13 61 29.75 61L29.75 61Q27.25 61 24.75 55.69Q22.25 50.38 22.25 46.88L22.25 46.88Q22.25 45.25 22.88 44.81Q23.50 44.38 25.25 44.38L25.25 44.38ZM57.75 54.75L52.50 54.75L52.50 76.13L49.50 76.13L49.50 54.75L44.13 54.75L44.13 52.13L57.75 52.13L57.75 54.75ZM74.50 52.13L68.25 65L68.25 76.13L65.13 76.13L65.13 65L59 52.13L62.25 52.13L66.88 62.13L71.38 52.13L74.50 52.13ZM84 67.13L84 67.13L81 67.13L81 76.13L78 76.13L78 52.13Q78 52.13 79.88 52Q81.75 51.88 83.88 51.88L83.88 51.88Q87.75 51.88 89.19 54Q90.63 56.13 90.63 59.25L90.63 59.25Q90.63 63.25 89.13 65.19Q87.63 67.13 84 67.13ZM84.25 54.38L84.38 54.38Q84.38 54.38 84.31 54.38Q84.25 54.38 84.25 54.38L84.25 54.38Q83.38 54.38 82.56 54.38Q81.75 54.38 81 54.50L81 54.50L81.13 54.50L81.13 64.50L84.25 64.50Q85.75 64.50 86.63 63.44Q87.50 62.38 87.50 59.50L87.50 59.50Q87.50 57 86.81 55.69Q86.13 54.38 84.25 54.38L84.25 54.38ZM101.75 76.38L101.75 76.38Q97.50 76.38 96.06 73.25Q94.63 70.13 94.63 63.88L94.63 63.88Q94.63 57.75 96.06 54.81Q97.50 51.88 101.75 51.88L101.75 51.88Q106 51.88 107.50 54.81Q109 57.75 109 63.88L109 63.88Q109 70.13 107.50 73.25Q106 76.38 101.75 76.38ZM101.75 54.38L101.75 54.38Q99.38 54.38 98.50 56.38Q97.63 58.38 97.63 64L97.63 64Q97.63 69.63 98.50 71.75Q99.38 73.88 101.75 73.88L101.75 73.88Q104.13 73.88 105 71.75Q105.88 69.63 105.88 64L105.88 64Q105.88 58.38 105 56.38Q104.13 54.38 101.75 54.38L101.75 54.38ZM118.25 76.38L118.25 76.38Q117 76.38 115.81 76.19Q114.63 76 113.50 75.75L113.50 75.75L113.63 75.75L113.63 73.25Q114.63 73.50 115.75 73.63Q116.88 73.75 118.13 73.75L118.13 73.75L118.13 73.75Q119.50 73.75 120.25 72.69Q121 71.63 121 69.75L121 69.75Q121 67.25 120.44 66.06Q119.88 64.88 118 64.88L118 64.88L115.25 64.88L115.25 62.38L117.75 62.38Q119.75 62.38 120.19 60.81Q120.63 59.25 120.63 58.13L120.63 58.13Q120.63 56.13 120 55.25Q119.38 54.38 118 54.38L118 54.38Q116.88 54.38 115.81 54.56Q114.75 54.75 113.63 55L113.63 55L113.75 55L113.75 52.38Q114.75 52.25 115.81 52.06Q116.88 51.88 117.88 51.88L117.88 51.88L118 51.88Q120.63 51.88 122.06 53.25Q123.50 54.63 123.50 58.50L123.50 58.50Q123.50 60.25 122.94 61.63Q122.38 63 120.88 63.50L120.88 63.50Q122.63 63.75 123.25 65.31Q123.88 66.88 123.88 69.38L123.88 69.38Q124 73.25 122.50 74.81Q121 76.38 118.25 76.38L118.25 76.38Z"/></svg>