<svg xmlns="http://www.w3.org/2000/svg" xmlns:xlink="http://www.w3.org/1999/xlink" width="128" height="128"><path fill="#000000" d="M122.50 23.88L122.50 23.88L122.50 12.88L95.88 28.25L95.88 37.63L74.63 83.50L64 90.88L64 124.50L86.75 111.38L122.50 23.88ZM64 67L64 67L48 29.75L48 19.13L47.88 19.13L32.13 28.25L32.13 37.63L53.38 85.50L64 80.25L64 67ZM106.50 3.50L106.50 3.50L80 19.13L80 29.75L64 67L64 79.38L53.38 85.50L32.13 37.63L32.13 28.25L48 19.13L21.50 3.50L5.50 12.88L5.50 24.25L41.38 111.50L64 124.50L64 91.75L74.63 85.50L74.50 85.50L95.88 37.63L95.88 28.25L95.88 28.25L122.50 12.88L106.50 3.50Z"/></svg>