<svg xmlns="http://www.w3.org/2000/svg" xmlns:xlink="http://www.w3.org/1999/xlink" width="128" height="128"><path fill="#ffffff" d="M48.63 51.50L47.75 51.50L47.75 49.63L46.13 49.63L46.13 51.50L45.25 51.50L45.25 47.13L46.13 47.13L46.13 48.88L47.75 48.88L47.75 47.13L48.63 47.13L48.63 51.50ZM51.75 49.38L51.75 51.50L51.13 51.50L51 51.25Q50.75 51.38 50.50 51.44Q50.25 51.50 50 51.50L50 51.50Q50 51.50 50 51.50Q50 51.50 50 51.50L50 51.50Q49.50 51.50 49.31 51.25Q49.13 51 49.13 50.63L49.13 50.63Q49.13 50.13 49.38 49.94Q49.63 49.75 50.13 49.75L50.13 49.75L50.88 49.75L50.88 49.38Q50.88 49.13 50.81 49Q50.75 48.88 50.25 48.88L50.25 48.88Q50 48.88 49.81 48.94Q49.63 49 49.38 49L49.38 49L49.25 48.38Q49.50 48.38 49.81 48.31Q50.13 48.25 50.38 48.25L50.38 48.25Q51.13 48.25 51.44 48.50Q51.75 48.75 51.75 49.38L51.75 49.38ZM50.88 50.75L50.88 50.25L50.25 50.25Q50.13 50.25 50.06 50.31Q50 50.38 50 50.63L50 50.63Q50 50.75 50.06 50.81Q50.13 50.88 50.25 50.88L50.25 50.88Q50.50 50.88 50.63 50.81Q50.75 50.75 50.88 50.75L50.88 50.75ZM53.50 51.50L53.50 51.50Q53.13 51.50 52.88 51.44Q52.63 51.38 52.38 51.38L52.38 51.38L52.50 50.75Q52.75 50.75 53 50.81Q53.25 50.88 53.50 50.88L53.50 50.88Q53.75 50.88 53.81 50.81Q53.88 50.75 53.88 50.50L53.88 50.50Q53.88 50.38 53.81 50.31Q53.75 50.25 53.25 50.13L53.25 50.13Q52.75 50 52.56 49.81Q52.38 49.63 52.38 49.13L52.38 49.13Q52.38 48.63 52.63 48.44Q52.88 48.25 53.63 48.25L53.63 48.25Q53.63 48.25 53.63 48.25Q53.63 48.25 53.63 48.25L53.63 48.25Q53.88 48.25 54.13 48.25Q54.38 48.25 54.63 48.38L54.63 48.38L54.50 49Q54.38 48.88 54.13 48.88Q53.88 48.88 53.63 48.88L53.63 48.88Q53.38 48.88 53.31 48.94Q53.25 49 53.25 49.13L53.25 49.13Q53.25 49.25 53.31 49.31Q53.38 49.38 53.75 49.50L53.75 49.50Q54.38 49.75 54.56 49.88Q54.75 50 54.75 50.50L54.75 50.50Q54.75 51 54.50 51.25Q54.25 51.50 53.50 51.50L53.50 51.50ZM58.13 51.50L57.25 51.50L57.25 49.25Q57.25 49.13 57.19 49.06Q57.13 49 57 49L57 49Q56.75 49 56.56 49.06Q56.38 49.13 56.13 49.25L56.13 49.25L56.13 51.50L55.25 51.50L55.25 47L56.13 47.13L56.13 48.50Q56.38 48.38 56.69 48.31Q57 48.25 57.38 48.25L57.38 48.25Q57.75 48.25 57.94 48.50Q58.13 48.75 58.13 49.13L58.13 49.13L58.13 51.50ZM59.63 47.88L58.75 47.88L58.75 47.13L59.63 47.13L59.63 47.88ZM59.63 51.50L58.75 51.50L58.75 48.25L59.63 48.25L59.63 51.50ZM60.25 50.25L60.25 48.38Q60.25 47.75 60.63 47.44Q61 47.13 61.88 47.13L61.88 47.13Q61.88 47.13 61.88 47.13Q61.88 47.13 61.88 47.13L61.88 47.13Q62.25 47.13 62.56 47.13Q62.88 47.13 63.13 47.25L63.13 47.25L63 47.88Q62.75 47.88 62.50 47.88Q62.25 47.88 61.88 47.75L61.88 47.75Q61.50 47.75 61.31 47.94Q61.13 48.13 61.13 48.50L61.13 48.50L61.13 50.13Q61.13 50.50 61.31 50.63Q61.50 50.75 61.88 50.75L61.88 50.75Q62.25 50.75 62.50 50.75Q62.75 50.75 63.13 50.63L63.13 50.63L63.13 51.38Q62.88 51.50 62.56 51.50Q62.25 51.50 61.88 51.50L61.88 51.50Q61.88 51.50 61.88 51.50Q61.88 51.50 61.88 51.50L61.88 51.50Q61 51.50 60.63 51.19Q60.25 50.88 60.25 50.25L60.25 50.25ZM64.88 51.50L64.88 51.50Q64.13 51.50 63.81 51.13Q63.50 50.75 63.50 50.25L63.50 50.25L63.50 49.50Q63.50 49 63.81 48.63Q64.13 48.25 64.88 48.25L64.88 48.25Q65.75 48.25 66.06 48.63Q66.38 49 66.38 49.50L66.38 49.50L66.38 50.25Q66.38 50.75 66.06 51.13Q65.75 51.50 64.88 51.50L64.88 51.50ZM64.88 48.88L64.88 48.88Q64.63 48.88 64.50 49Q64.38 49.13 64.38 49.50L64.38 49.50L64.38 50.25Q64.38 50.63 64.50 50.75Q64.63 50.88 64.88 50.88L64.88 50.88Q65.25 50.88 65.38 50.75Q65.50 50.63 65.50 50.25L65.50 50.25L65.50 49.50Q65.50 49.13 65.38 49Q65.25 48.88 64.88 48.88L64.88 48.88ZM68.63 48.25L68.75 49Q68.38 49 68.19 49.13Q68 49.25 67.75 49.38L67.75 49.38L67.88 51.38L67 51.38L67 48.25L67.75 48.25L67.75 48.63Q68 48.50 68.19 48.38Q68.38 48.25 68.63 48.25L68.63 48.25ZM72 49.38L72 50.38Q72 50.50 72 50.50Q72 50.50 72 50.50L72 50.50Q72 51 71.69 51.25Q71.38 51.50 71 51.50L71 51.50Q71 51.50 70.94 51.50Q70.88 51.50 70.88 51.50L70.88 51.50Q70.63 51.50 70.44 51.50Q70.25 51.50 70 51.38L70 51.38L70 52.75L69.25 52.88L69.25 48.25L69.88 48.25L70 48.50Q70.13 48.38 70.38 48.31Q70.63 48.25 71 48.25L71 48.25Q71.38 48.25 71.69 48.50Q72 48.75 72 49.38L72 49.38ZM70 49.25L70 50.75Q70.13 50.75 70.31 50.81Q70.50 50.88 70.75 50.88L70.75 50.88Q71 50.88 71.06 50.75Q71.13 50.63 71.13 50.38L71.13 50.38L71.13 49.25Q71.13 49.13 71.06 49Q71 48.88 70.75 48.88L70.75 48.88Q70.50 48.88 70.31 49Q70.13 49.13 70 49.25L70 49.25ZM53.13 70.13L57.50 55L61.13 55L55.75 73.13L50.63 73.13L45.25 55L48.75 55L53.13 70.13ZM71 64.38L71 73.13L68.25 73.13L68 72.25Q67.25 72.75 66.25 73.06Q65.25 73.38 64.13 73.38L64.13 73.38Q62.25 73.38 61.44 72.25Q60.63 71.13 60.63 69.50L60.63 69.50Q60.63 67.38 61.56 66.56Q62.50 65.75 64.50 65.75L64.50 65.75L67.75 65.75L67.75 64.38Q67.75 63.25 67.25 62.81Q66.75 62.38 65.13 62.38L65.13 62.38Q64.25 62.38 63.25 62.44Q62.25 62.50 61.38 62.75L61.38 62.75L61.13 60.25Q62.13 59.88 63.25 59.75Q64.38 59.63 65.63 59.63L65.63 59.63Q68.75 59.63 69.88 60.75Q71 61.88 71 64.38L71 64.38ZM67.75 70L67.63 68.13L65.25 68.13Q64.38 68.13 64.13 68.38Q63.88 68.63 63.88 69.38L63.88 69.38Q63.88 70.13 64.13 70.44Q64.38 70.75 65.25 70.75L65.25 70.75Q65.88 70.75 66.50 70.56Q67.13 70.38 67.75 70L67.75 70ZM77.38 69.50L77.38 69.50Q77 69.75 76.81 70Q76.63 70.25 76.63 70.63L76.63 70.63Q76.63 70.88 76.75 71Q76.88 71.13 77.25 71.13L77.25 71.13L81.13 71.63Q82.75 71.75 83.38 72.56Q84 73.38 84 74.75L84 74.75Q84 76.88 82.88 77.81Q81.75 78.75 78 78.75L78 78.75Q78 78.75 78 78.75Q78 78.75 77.88 78.75L77.88 78.75Q76.63 78.75 75.31 78.56Q74 78.38 72.75 78L72.75 78L73.25 75.63Q74.25 75.88 75.38 76Q76.50 76.13 77.75 76.13L77.75 76.13Q79.75 76.13 80.31 75.94Q80.88 75.75 80.88 75.13L80.88 75.13Q80.88 74.38 80.63 74.25Q80.38 74.13 79.63 74L79.63 74L75.75 73.63Q74.38 73.38 73.81 72.88Q73.25 72.38 73.25 71L73.25 71Q73.25 70.38 73.63 69.75Q74 69.13 74.63 68.75L74.63 68.75Q73.75 68.25 73.25 67.38Q72.75 66.50 72.75 65.50L72.75 65.50Q72.75 65.50 72.75 65.38Q72.75 65.25 72.75 65.25L72.75 65.25L72.75 64Q72.88 61.88 74.06 60.75Q75.25 59.63 78.13 59.63L78.13 59.63Q78.13 59.63 78.13 59.63Q78.13 59.63 78.13 59.63L78.13 59.63Q78.75 59.63 79.31 59.69Q79.88 59.75 80.38 59.88L80.38 59.88L84.50 59.88L84.50 61.50L83 61.88Q83.25 62.38 83.38 62.88Q83.50 63.38 83.50 63.88L83.50 63.88Q83.50 63.88 83.50 63.94Q83.50 64 83.50 64L83.50 64L83.50 65.25Q83.50 67.25 82.19 68.44Q80.88 69.63 78.13 69.63L78.13 69.63Q78.13 69.63 78.06 69.63Q78 69.63 78 69.63L78 69.63Q77.88 69.63 77.69 69.63Q77.50 69.63 77.38 69.50L77.38 69.50ZM78.13 62.25L78.13 62.25Q76.88 62.25 76.38 62.69Q75.88 63.13 75.88 64.13L75.88 64.13L75.88 65.13Q75.88 66.13 76.44 66.50Q77 66.88 78.13 66.88L78.13 66.88Q79.25 66.88 79.81 66.50Q80.38 66.13 80.38 65.13L80.38 65.13L80.38 64.13Q80.38 63.13 79.88 62.69Q79.38 62.25 78.13 62.25ZM92.38 59.63L92.75 62.63Q91.75 63.13 90.88 63.63Q90 64.13 89.13 64.63L89.13 64.63L89.25 73.13L86 73.13L86 59.88L88.75 59.88L89 61.38Q89.75 60.88 90.63 60.44Q91.50 60 92.38 59.63L92.38 59.63ZM103.88 64.38L103.88 73.13L101.13 73.13L100.88 72.25Q100.13 72.75 99.13 73.06Q98.13 73.38 97 73.38L97 73.38Q95.13 73.38 94.31 72.25Q93.50 71.13 93.50 69.50L93.50 69.50Q93.50 67.38 94.44 66.56Q95.38 65.75 97.38 65.75L97.38 65.75L100.63 65.75L100.63 64.38Q100.63 63.25 100.13 62.81Q99.63 62.38 98 62.38L98 62.38Q97.13 62.38 96.13 62.44Q95.13 62.50 94.25 62.75L94.25 62.75L94 60.25Q95 59.88 96.19 59.75Q97.38 59.63 98.50 59.63L98.50 59.63Q101.63 59.63 102.75 60.75Q103.88 61.88 103.88 64.38L103.88 64.38ZM100.63 70L100.50 68.13L98.13 68.13Q97.25 68.13 97 68.38Q96.75 68.63 96.75 69.38L96.75 69.38Q96.75 70.13 97 70.44Q97.25 70.75 98 70.75L98 70.75Q98.75 70.75 99.38 70.56Q100 70.38 100.63 70L100.63 70ZM117.13 73.13L113.75 73.13L113.75 63.88Q113.75 63.38 113.50 63.06Q113.25 62.75 112.75 62.75L112.75 62.75Q111.75 62.88 110.88 63.19Q110 63.50 109.25 64L109.25 64L109.25 73.13L105.88 73.13L105.88 59.88L108.50 59.88L108.75 61Q109.88 60.38 111.25 60Q112.63 59.63 114 59.63L114 59.63Q115.75 59.63 116.44 60.69Q117.13 61.75 117.13 63.50L117.13 63.50L117.13 73.13ZM126.50 70.38L126.88 72.88Q126.25 73.13 125.50 73.25Q124.75 73.38 124 73.38L124 73.38Q122.13 73.38 121.19 72.50Q120.25 71.63 120.25 69.88L120.25 69.88L120.25 62.50L118.25 62.50L118.25 59.88L120.25 59.88L120.25 56.63L123.63 56.13L123.63 59.88L127 59.88L126.75 62.50L123.63 62.50L123.63 69.50Q123.63 69.50 123.63 69.56Q123.63 69.63 123.63 69.63L123.63 69.63Q123.63 70 123.88 70.31Q124.13 70.63 124.63 70.63L124.63 70.63Q124.63 70.63 124.69 70.63Q124.75 70.63 124.75 70.63L124.75 70.63Q125.25 70.63 125.69 70.56Q126.13 70.50 126.50 70.38L126.50 70.38ZM23.88 77.25L33.88 52.75L33.88 49.63L26.38 54L26.38 56.63L20.38 69.50L17.38 71.50L17.38 81L23.88 77.25ZM17.38 64.88L17.38 64.88L13 54.38L13 51.38L12.88 51.38L8.50 54L8.50 56.63L14.50 70L17.38 68.63L17.38 64.88ZM29.38 47L29.38 47L21.88 51.38L21.88 54.38L17.38 64.88L17.38 68.38L14.50 70L8.50 56.63L8.50 54L13 51.38L5.50 47L1 49.63L1 52.88L11.13 77.38L17.38 81L17.38 71.75L20.38 70L20.38 70L26.38 56.63L26.38 54L33.88 49.63L29.38 47Z"/></svg>