<svg xmlns="http://www.w3.org/2000/svg" xmlns:xlink="http://www.w3.org/1999/xlink" width="128" height="128"><path fill="#000000" d="M38.38 35.13L64 60.75L89.63 35.13L38.38 35.13ZM7.88 4.63L7.88 4.63L33.75 30.50L89.88 30.50L64.13 4.63L7.88 4.63ZM95.25 92L67.25 64L95.38 35.88L123.25 63.88L95.25 92ZM70.63 4.63L123.38 57.38L123.38 4.63L70.63 4.63ZM60.75 64L60.75 64L4.63 7.88L4.63 120.13L60.75 64ZM98.50 95.25L98.50 95.25L123.38 120.13L123.38 70.38L98.50 95.25ZM120.13 123.38L64 67.25L7.88 123.38L120.13 123.38Z"/></svg>