<svg xmlns="http://www.w3.org/2000/svg" xmlns:xlink="http://www.w3.org/1999/xlink" width="128" height="128"><path fill="#000000" d="M16.13 51.50L27.25 62.63L38.50 51.50L16.13 51.50ZM2.88 38.25L2.88 38.25L14.13 49.50L38.50 49.50L27.38 38.25L2.88 38.25ZM40.88 76.13L28.75 64L40.88 51.75L53 64L40.88 76.13ZM30.13 38.25L53.13 61.13L53.13 38.25L30.13 38.25ZM1.50 88.38L25.88 64L1.50 39.63L1.50 88.38ZM53.13 66.75L42.25 77.50L53.13 88.38L53.13 66.75ZM27.25 65.38L27.25 65.38L2.88 89.75L51.63 89.75L27.25 65.38ZM62.75 79.25L62.75 50.25L79.50 50.25L79.50 53.25L66.50 53.25L66.50 62.38L77.50 62.38L77.50 65.50L66.50 65.50L66.50 76.13L79.88 76.13L79.88 79.25L62.75 79.25ZM85.63 74.88L85.63 47.75L89.25 47.75L89.25 75.13Q89.25 76 89.56 76.38Q89.88 76.75 90.25 76.75L90.25 76.75Q90.25 76.75 90.25 76.75Q90.25 76.75 90.25 76.75L90.25 76.75Q90.50 76.75 90.69 76.69Q90.88 76.63 91 76.63L91 76.63L91.50 79.38Q91.13 79.50 90.63 79.63Q90.13 79.75 89.63 79.75L89.63 79.75Q89.63 79.75 89.56 79.75Q89.50 79.75 89.38 79.75L89.38 79.75Q87.38 79.75 86.50 78.50Q85.63 77.25 85.63 74.88L85.63 74.88ZM96.88 79.25L96.88 57.75L99.88 57.75L100.13 60.88L100.25 60.88Q101.63 59.38 103.31 58.31Q105 57.25 107 57.25L107 57.25Q109.38 57.25 110.81 58.31Q112.25 59.38 112.88 61.25L112.88 61.25Q114.63 59.50 116.31 58.38Q118 57.25 120 57.25L120 57.25Q123.25 57.25 124.88 59.38Q126.50 61.50 126.50 65.63L126.50 65.63L126.50 79.25L122.88 79.25L122.88 66.13Q122.88 63.13 121.88 61.75Q120.88 60.38 118.88 60.38L118.88 60.38Q117.63 60.38 116.31 61.19Q115 62 113.50 63.63L113.50 63.63L113.50 79.25L109.88 79.25L109.88 66.13Q109.88 63.13 108.88 61.75Q107.88 60.38 105.88 60.38L105.88 60.38Q104.63 60.38 103.31 61.19Q102 62 100.50 63.63L100.50 63.63L100.50 79.25L96.88 79.25Z"/></svg>