<svg xmlns="http://www.w3.org/2000/svg" xmlns:xlink="http://www.w3.org/1999/xlink" width="128" height="128"><path fill="#000000" d="M63.88 125.38L63.88 125.38Q51.63 125.38 40.63 120.63L40.63 120.63Q29.75 115.75 21.44 107.50Q13.13 99.25 8.25 88.25L8.25 88.25Q3.38 77.25 3.25 64.88L3.25 64.88Q3.25 58.88 4.38 53.13L4.38 53.13Q5.50 47.25 7.75 41.81Q10 36.38 13.25 31.38L13.25 31.38Q16.50 26.38 20.75 22.13L20.75 22.13Q25 17.75 30 14.38L30 14.38Q35 11 40.56 8.63Q46.13 6.25 52 5.13L52 5.13Q57.88 3.88 64 3.75L64 3.75L64 3.75Q70 3.75 75.88 5L75.88 5Q81.75 6.13 87.19 8.38Q92.63 10.63 97.50 14L97.50 14Q102.50 17.25 106.63 21.50L106.63 21.50Q111 25.75 114.38 30.63L114.38 30.63Q117.75 35.50 120.06 40.94Q122.38 46.38 123.50 52.25L123.50 52.25Q124.75 58 124.88 64L124.88 64Q124.88 76.63 120.13 87.75L120.13 87.75Q115.50 98.88 107.25 107.19Q99 115.50 88 120.38L88 120.38Q77 125.25 64.38 125.38L64.38 125.38L63.88 125.38ZM64.13 7L64.13 7Q58.25 7 52.63 8.25L52.63 8.25Q47 9.38 41.81 11.56Q36.63 13.75 31.88 17L31.88 17Q27.13 20.25 23 24.38L23 24.38Q19 28.38 15.88 33.13L15.88 33.13Q12.75 37.88 10.69 43Q8.63 48.13 7.50 53.63L7.50 53.63Q6.38 59.25 6.38 64.88L6.38 64.88Q6.50 76.63 11.13 87L11.13 87Q15.75 97.38 23.63 105.19Q31.50 113 41.88 117.63L41.88 117.63Q52.25 122.13 63.88 122.13L63.88 122.13L64.25 122.13Q76.25 122.13 86.75 117.50L86.75 117.50Q97.13 112.88 104.94 105Q112.75 97.13 117.25 86.50L117.25 86.50Q121.75 76 121.63 64L121.63 64Q121.63 58.38 120.38 52.88L120.38 52.88Q119.25 47.38 117.06 42.25Q114.88 37.13 111.75 32.38L111.75 32.38Q108.50 27.75 104.50 23.75L104.50 23.75Q100.38 19.75 95.75 16.63L95.75 16.63Q91.13 13.50 85.94 11.38Q80.75 9.25 75.25 8.13L75.25 8.13Q69.75 7 64.13 7L64.13 7ZM25.50 82.50L16.88 82.38L16.88 46.88L25.50 46.88L25.50 50L21 50L21 79.25L25.50 79.25L25.50 82.50ZM46.25 64.25L46.25 64.25Q46.25 69.13 43.63 71.81Q41 74.50 37 74.50L37 74.50Q33 74.50 30.56 71.69Q28.13 68.88 28.13 64.63L28.13 64.63Q28.13 60.13 30.63 57.31Q33.13 54.50 37.25 54.50L37.25 54.50Q41.38 54.50 43.81 57.38Q46.25 60.25 46.25 64.25L46.25 64.25ZM31.75 64.50L31.75 64.50Q31.75 67.50 33.19 69.56Q34.63 71.63 37.13 71.63L37.13 71.63Q39.75 71.63 41.13 69.50Q42.50 67.38 42.50 64.38L42.50 64.38Q42.50 61.63 41.13 59.50Q39.75 57.38 37.13 57.38L37.13 57.38Q34.50 57.38 33.13 59.50Q31.75 61.63 31.75 64.63L31.75 64.63L31.75 64.50ZM49.25 55.13L49.25 55.13Q50.50 55 51.75 54.88Q53 54.75 54.38 54.75L54.38 54.75Q55.75 54.63 57.19 54.94Q58.63 55.25 59.88 56L59.88 56Q60.88 56.50 61.38 57.50Q61.88 58.50 61.88 59.63L61.88 59.63Q61.88 61 61 62.19Q60.13 63.38 58.75 63.75L58.75 63.75L58.75 63.75Q60.38 64.13 61.50 65.44Q62.63 66.75 62.63 68.50L62.63 68.50Q62.63 69.63 62.13 70.69Q61.63 71.75 60.75 72.50L60.75 72.50Q59.75 73.38 58 73.81Q56.25 74.25 53.63 74.25L53.63 74.25Q52.50 74.25 51.44 74.19Q50.38 74.13 49.25 74L49.25 74L49.25 55.13ZM52.75 62.75L52.75 62.75L54.50 62.75Q56.38 62.75 57.31 62Q58.25 61.25 58.25 60L58.25 60Q58.25 58.75 57.31 58.06Q56.38 57.38 54.75 57.38L54.75 57.38Q54.13 57.38 53.63 57.38Q53.13 57.38 52.63 57.50L52.63 57.50L52.75 62.75ZM52.75 65.38L52.75 71.63Q53.13 71.75 53.63 71.75Q54.13 71.75 54.63 71.75L54.63 71.75Q56.25 71.75 57.56 71Q58.88 70.25 58.88 68.50L58.88 68.50Q58.88 66.75 57.56 66.06Q56.25 65.38 54.50 65.38L54.50 65.38L52.75 65.38ZM69.50 67.38L69.50 54.88L73 54.88L73 67.50Q73 71.50 71.25 73.06Q69.50 74.63 66.75 74.63L66.75 74.63Q65.88 74.63 65.13 74.44Q64.38 74.25 63.75 74.13L63.75 74.13L64.13 71.25Q64.63 71.38 65.19 71.50Q65.75 71.63 66.38 71.63L66.38 71.63Q67.88 71.63 68.69 70.75Q69.50 69.88 69.50 67.38L69.50 67.38ZM75.75 65.38L83.13 65.38L83.13 67.75L75.75 67.75L75.75 65.38ZM100.13 73.63L100.13 73.63Q99 74.13 97.75 74.31Q96.50 74.50 95.13 74.50L95.13 74.50Q90.63 74.50 88 71.88Q85.38 69.25 85.38 64.75L85.38 64.75Q85.13 60.75 87.81 57.75Q90.50 54.75 94.50 54.63L94.50 54.63Q94.75 54.63 95.06 54.63Q95.38 54.63 95.63 54.63L95.63 54.63Q96.88 54.50 98.06 54.75Q99.25 55 100.38 55.50L100.38 55.50L99.63 58.25Q98.75 57.88 97.81 57.69Q96.88 57.50 95.88 57.50L95.88 57.50Q92.88 57.50 91 59.31Q89.13 61.13 89.13 64.63L89.13 64.63Q89.13 67.75 90.88 69.69Q92.63 71.63 95.88 71.63L95.88 71.63Q96.75 71.63 97.75 71.44Q98.75 71.25 99.63 70.88L99.63 70.88L100.13 73.63ZM111.25 46.75L111.25 46.75L111.25 82.38L102.50 82.38L102.50 79.25L107.13 79.25L107.13 50L102.50 50L102.50 46.75L111.25 46.75Z"/></svg>