<svg xmlns="http://www.w3.org/2000/svg" xmlns:xlink="http://www.w3.org/1999/xlink" width="128" height="128"><path fill="#000000" d="M122.25 58.63L122.25 58.63Q121.88 57.63 121.63 56.50Q121.38 55.38 121.38 54.38L121.38 54.38Q121.25 51.63 121.25 49Q121.25 46.38 121.13 43.63L121.13 43.63Q121 41.25 120.06 39.19Q119.13 37.13 116.88 36L116.88 36Q114.75 34.88 112.50 34.63Q110.25 34.38 108 34.38L108 34.38L108 40Q108.75 40 108.81 40.06Q108.88 40.13 109 40.13L109 40.13Q112 40.25 113.19 41.44Q114.38 42.63 114.38 45.63L114.38 45.63Q114.50 47.75 114.50 50Q114.50 52.25 114.50 54.50L114.50 54.50Q114.50 57.13 115.19 59.63Q115.88 62.13 118.38 63.75L118.38 63.75Q118.38 63.88 118.44 63.94Q118.50 64 118.50 64.13L118.50 64.13Q117.25 65 116.31 66.19Q115.38 67.38 115.13 69L115.13 69Q114.88 70.25 114.75 71.56Q114.63 72.88 114.50 74.13L114.50 74.13Q114.50 76.50 114.50 78.81Q114.50 81.13 114.50 83.50L114.50 83.50Q114.38 85.38 113.50 86.31Q112.63 87.25 110.88 87.63L110.88 87.63Q110.13 87.75 109.44 87.81Q108.75 87.88 108 88L108 88L108 93.75Q109.50 93.63 110.44 93.56Q111.38 93.50 112.38 93.38L112.38 93.38Q116.25 93 118.44 90.94Q120.63 88.88 121 85.13L121 85.13Q121.13 84 121.19 82.75Q121.25 81.50 121.25 80.38L121.25 80.38Q121.25 78.13 121.31 75.88Q121.38 73.63 121.50 71.50L121.50 71.50Q121.75 69.25 123.25 68.06Q124.75 66.88 127 67L127 67L127 61Q125.50 61.25 124.25 60.63Q123 60 122.25 58.63L122.25 58.63ZM28.38 70.75L28.38 70.75Q28.38 62.13 28.19 53.44Q28 44.75 28 36.13L28 36.13L28 34.25Q25.75 34.25 23.38 34.25Q21 34.25 18.63 34.38L18.63 34.38Q17.63 34.38 16.75 34.44Q15.88 34.50 14.88 34.63L14.88 34.63Q11.25 35.13 9.38 36.94Q7.50 38.75 6.88 42.38L6.88 42.38Q6.63 43.50 6.63 44.56Q6.63 45.63 6.63 46.75L6.63 46.75Q6.63 48.75 6.63 50.81Q6.63 52.88 6.63 54.88L6.63 54.88Q6.50 57.50 5.25 59.25Q4 61 1.38 61.25L1.38 61.25Q1.38 61.25 1.56 61.31Q1.75 61.38 1 61.38L1 61.38L1 66.75Q4 67.25 5.19 68.56Q6.38 69.88 6.50 72.75L6.50 72.75Q6.63 73.13 6.63 73.56Q6.63 74 6.63 74.50L6.63 74.50Q6.63 77 6.63 79.50Q6.63 82 6.75 84.50L6.75 84.50Q6.88 86.75 7.56 88.75Q8.25 90.75 10.50 91.88L10.50 91.88Q12.50 93 15 93.31Q17.50 93.63 19 93.63L19 93.63L19 88Q19 88 18.88 87.94Q18.75 87.88 18.63 87.88L18.63 87.88Q15.38 87.63 14.31 86.50Q13.25 85.38 13.25 82.13L13.25 82.13Q13.25 79.88 13.31 77.75Q13.38 75.63 13.25 73.50L13.25 73.50Q13.25 70.75 12.56 68.31Q11.88 65.88 9.50 64.13L9.50 64.13Q9.38 64.13 9.44 64Q9.50 63.88 9.50 63.75L9.50 63.75Q11.13 62.75 12 61.19Q12.88 59.63 13.13 57.63L13.13 57.63Q13.25 56.63 13.31 55.50Q13.38 54.38 13.38 53.38L13.38 53.38Q13.38 51.13 13.38 48.88Q13.38 46.63 13.50 44.50L13.50 44.50Q13.50 42.88 14.38 41.81Q15.25 40.75 16.50 40.50L16.50 40.50Q17.75 40.25 18.75 40.19Q19.75 40.13 22 40L22 40L22 42.13Q22 49.75 21.81 57.50Q21.63 65.25 21.63 73L21.63 73Q21.75 75.63 22.38 78Q23 80.38 25.88 81.50L25.88 81.50Q27.38 82.13 29.06 82.44Q30.75 82.75 32.50 83.13L32.50 83.13Q32.75 81.50 32.94 80Q33.13 78.50 33.38 77L33.38 77Q30.13 76.13 29.25 75.06Q28.38 74 28.38 70.75L28.38 70.75ZM55 50.88L55 50.88Q49.50 48.25 43.69 50.25Q37.88 52.25 35.38 57.75L35.38 57.75Q33.38 62 33.38 66.25Q33.38 70.50 35.13 74.63L35.13 74.63Q36 77 37.63 78.69Q39.25 80.38 41.63 81.38L41.63 81.38Q46 83.25 50.50 83.06Q55 82.88 59.38 81.50L59.38 81.50Q59.63 81.38 59.88 81Q60.13 80.63 60.13 80.50L60.13 80.50Q60 79.25 59.75 78Q59.50 76.75 59.25 75.38L59.25 75.38Q58.25 75.63 57.31 75.94Q56.38 76.25 55.50 76.38L55.50 76.38Q53 76.88 50.63 76.75Q48.25 76.63 46 75.75L46 75.75Q43.63 74.88 42.25 72.56Q40.88 70.25 41.38 68L41.38 68L62.25 68Q62.38 65.75 62.19 62.88Q62 60 61.13 57.50L61.13 57.50Q60.25 55.13 58.75 53.56Q57.25 52 55 50.88ZM55 63L55 63L41.25 63Q41.25 60 43.38 57.69Q45.50 55.38 48.75 55.50L48.75 55.50Q51.63 55.50 53.38 57.75Q55.13 60 55 63ZM111 75.25L111 75.25Q111.38 71.50 110.13 69.19Q108.88 66.88 105.50 65.13L105.50 65.13Q104.38 64.63 103.13 64.13Q101.88 63.63 100.63 63.13L100.63 63.13Q99.75 62.75 98.81 62.31Q97.88 61.88 97 61.38L97 61.38Q96.25 60.88 95.88 60.06Q95.50 59.25 95.63 58.25L95.63 58.25Q95.75 57.38 96.31 56.75Q96.88 56.13 97.75 55.88L97.75 55.88Q98.88 55.75 100 55.56Q101.13 55.38 102.13 55.50L102.13 55.50Q103.75 55.63 105.25 55.94Q106.75 56.25 108.38 56.63L108.38 56.63L109.63 50.75Q107.50 50.38 105.50 50.06Q103.50 49.75 101.50 49.50L101.50 49.50Q99.25 49.38 97.06 49.75Q94.88 50.13 92.88 51.25L92.88 51.25Q88.50 53.50 88.38 58.81Q88.25 64.13 92.25 66.38L92.25 66.38Q93.50 67 94.75 67.56Q96 68.13 97.25 68.75L97.25 68.75Q98.50 69.38 99.81 69.94Q101.13 70.50 102.38 71.25L102.38 71.25Q103.38 71.75 103.69 72.69Q104 73.63 103.75 74.63L103.75 74.63Q103.50 75.75 102.81 76.25Q102.13 76.75 101.25 76.75L101.25 76.75Q99.75 76.88 98.38 77Q97 77.13 95.63 76.88L95.63 76.88Q93.88 76.75 92.25 76.31Q90.63 75.88 88.88 75.50L88.88 75.50L87.75 81.25Q91.75 82.75 95.75 83Q99.75 83.25 103.75 82.38L103.75 82.38Q107 81.63 108.88 79.75Q110.75 77.88 111 75.25L111 75.25ZM82.63 65.88L82.63 65.88Q81.13 65 79.63 64.38Q78.13 63.75 76.50 63.13L76.50 63.13Q75.63 62.63 74.69 62.25Q73.75 61.88 72.88 61.25L72.88 61.25Q71.25 60.13 71.50 58.38Q71.75 56.63 73.63 56L73.63 56Q74.63 55.63 75.81 55.50Q77 55.38 78.13 55.50L78.13 55.50Q79.63 55.63 81.19 55.94Q82.75 56.25 84.25 56.50L84.25 56.50L85.50 51Q84.75 50.75 84 50.56Q83.25 50.38 82.50 50.25L82.50 50.25Q79.50 49.63 76.50 49.50Q73.50 49.38 70.63 50.38L70.63 50.38Q68.13 51.25 66.50 53Q64.88 54.75 64.50 57.50L64.50 57.50Q64.13 60.63 65.19 63.06Q66.25 65.50 69.13 66.88L69.13 66.88Q70.38 67.50 71.56 68Q72.75 68.50 73.88 69L73.88 69Q75.13 69.50 76.25 70.06Q77.38 70.63 78.50 71.38L78.50 71.38Q79.38 71.88 79.69 72.75Q80 73.63 79.75 74.63L79.75 74.63Q79.50 75.63 78.81 76.13Q78.13 76.63 77.25 76.75L77.25 76.75Q75.88 76.88 74.44 77Q73 77.13 71.63 76.88L71.63 76.88Q70 76.75 68.31 76.31Q66.63 75.88 64.88 75.50L64.88 75.50Q64.63 76.63 64.38 77.88Q64.13 79.13 63.88 80.38L63.88 80.38Q63.88 80.63 64.13 81Q64.38 81.38 64.63 81.50L64.63 81.50Q68.63 82.88 72.75 83.06Q76.88 83.25 80.88 82L80.88 82Q83.38 81.38 85 79.75Q86.63 78.13 87 75.38L87 75.38Q87.38 72.38 86.44 69.88Q85.50 67.38 82.63 65.88L82.63 65.88Z"/></svg>