<svg xmlns="http://www.w3.org/2000/svg" xmlns:xlink="http://www.w3.org/1999/xlink" width="128" height="128"><path fill="#ffffff" d="M20.13 84.13L20.13 84.13Q11.75 84.13 5.88 78.19Q0 72.25 0 64L0 64Q0 55.75 5.88 49.81Q11.75 43.88 20.13 43.88L20.13 43.88Q28.38 43.88 34.31 49.81Q40.25 55.75 40.25 64L40.25 64Q40.25 72.25 34.31 78.19Q28.38 84.13 20.13 84.13ZM20.13 80.75L20.13 80.75Q27 80.75 31.94 75.88Q36.88 71 36.88 64L36.88 64Q36.88 57 31.94 52.13Q27 47.25 20.13 47.25L20.13 47.25Q20.13 47.25 20.13 47.25Q20.13 47.25 20.13 47.25L20.13 47.25Q13.13 47.25 8.25 52.13Q3.38 57 3.38 64L3.38 64Q3.38 64 3.38 64Q3.38 64 3.38 64L3.38 64L3.38 64Q3.38 71 8.25 75.88Q13.13 80.75 20.13 80.75L20.13 80.75ZM14.75 63.13L14.75 63.13Q18 60.38 21.25 57.63Q24.50 54.88 27.88 52.25L27.88 52.25Q26.13 55 24.31 57.69Q22.50 60.38 20.75 63.13L20.75 63.13Q19.25 63.13 17.75 63.13Q16.25 63.13 14.75 63.13L14.75 63.13ZM18.50 65.13L18.50 65.13Q20 65.13 21.50 65.13Q23 65.13 24.50 65.13L24.50 65.13Q21.25 67.88 17.94 70.63Q14.63 73.38 11.25 76L11.25 76Q13.13 73.25 14.88 70.56Q16.63 67.88 18.50 65.13ZM49.63 68.50L49 70.50Q49.63 70.88 50.50 71.13Q51.38 71.38 52.38 71.38L52.38 71.38Q54.63 71.38 55.81 70.38Q57 69.38 57 67.88L57 67.88Q56.88 66.63 56.19 65.81Q55.50 65 54 64.38L54 64.38Q52.88 64 52.44 63.69Q52 63.38 52 62.88L52 62.88Q52 62.38 52.44 62.06Q52.88 61.75 53.63 61.75L53.63 61.75Q54.38 61.75 55 61.94Q55.63 62.13 56 62.38L56 62.38L56.50 60.38Q56 60.13 55.25 59.88Q54.50 59.63 53.50 59.63L53.50 59.63Q51.63 59.63 50.50 60.69Q49.38 61.75 49.38 63.25L49.38 63.25Q49.25 64.13 50 65Q50.75 65.88 52.38 66.50L52.38 66.50Q53.38 66.75 53.81 67.13Q54.25 67.50 54.25 68.13L54.25 68.13Q54.25 68.63 53.81 68.94Q53.38 69.25 52.38 69.25L52.38 69.25Q51.63 69.25 50.81 69Q50 68.75 49.63 68.50L49.63 68.50ZM63.38 59.63L63.38 59.63Q60.88 59.63 59.25 61.25Q57.63 62.88 57.63 65.63L57.63 65.63Q57.63 68.25 59.25 69.81Q60.88 71.38 63.25 71.38L63.25 71.38Q65.38 71.38 67.13 69.94Q68.88 68.50 68.88 65.38L68.88 65.38Q68.88 62.88 67.38 61.25Q65.88 59.63 63.38 59.63L63.38 59.63ZM63.25 61.75L63.25 61.75Q64.75 61.75 65.38 62.94Q66 64.13 66 65.50L66 65.50Q66 67.13 65.25 68.19Q64.50 69.25 63.25 69.25L63.25 69.25Q62 69.25 61.25 68.19Q60.50 67.13 60.50 65.50L60.50 65.50Q60.50 64.13 61.19 62.94Q61.88 61.75 63.25 61.75ZM78.50 70.75L78.13 68.63Q77.75 68.88 77.19 69Q76.63 69.13 75.88 69.13L75.88 69.13Q74.50 69.13 73.50 68.19Q72.50 67.25 72.50 65.50L72.50 65.50Q72.50 64 73.38 62.94Q74.25 61.88 75.88 61.88L75.88 61.88Q76.63 61.88 77.13 62Q77.63 62.13 78 62.38L78 62.38L78.50 60.25Q78 60 77.31 59.81Q76.63 59.63 75.75 59.63L75.75 59.63Q72.88 59.63 71.25 61.38Q69.63 63.13 69.63 65.63L69.63 65.63Q69.63 68.25 71.19 69.81Q72.75 71.38 75.38 71.38L75.38 71.38Q76.38 71.38 77.19 71.19Q78 71 78.50 70.75L78.50 70.75ZM82.50 64.88L82.50 54.88L79.63 54.88L79.63 71.13L82.50 71.13L82.50 67.25L83.38 66.13L86.63 71.13L90.13 71.13L85.38 64.50L89.50 59.88L86.13 59.88L83.38 63.50Q83.13 63.88 82.94 64.19Q82.75 64.50 82.50 64.88L82.50 64.88L82.50 64.88ZM92.13 66.25L99.63 66.25Q99.63 66.13 99.69 65.81Q99.75 65.50 99.75 65.13L99.75 65.13Q99.75 63.25 98.69 61.44Q97.63 59.63 94.88 59.63L94.88 59.63Q92.25 59.63 90.88 61.50Q89.50 63.38 89.50 65.63L89.50 65.63Q89.50 68.25 91 69.81Q92.50 71.38 95.25 71.38L95.25 71.38Q96.38 71.38 97.38 71.13Q98.38 70.88 99.13 70.63L99.13 70.63L98.75 68.75Q98.13 68.88 97.38 69.06Q96.63 69.25 95.63 69.25L95.63 69.25Q94.25 69.25 93.25 68.56Q92.25 67.88 92.13 66.25L92.13 66.25ZM97.13 64.38L92.13 64.38Q92.25 63.50 92.88 62.56Q93.50 61.63 94.75 61.63L94.75 61.63Q96.13 61.63 96.63 62.56Q97.13 63.50 97.13 64.38L97.13 64.38ZM104.25 56.75L101.50 57.38L101.50 59.88L99.88 59.88L99.88 62L101.50 62L101.50 67.25Q101.50 68.38 101.75 69.13Q102 69.88 102.38 70.38L102.38 70.38Q102.75 70.88 103.44 71.13Q104.13 71.38 104.88 71.38L104.88 71.38Q105.50 71.38 106.06 71.25Q106.63 71.13 106.88 71L106.88 71L106.88 68.88Q106.63 69 106.38 69Q106.13 69 105.75 69L105.75 69Q104.88 69 104.56 68.50Q104.25 68 104.25 67L104.25 67L104.25 62L107 62L107 59.88L104.25 59.88L104.25 56.75ZM109.38 71.38L109.38 71.38Q110.25 71.38 110.69 70.81Q111.13 70.25 111.13 69.50L111.13 69.50Q111.13 68.75 110.63 68.25Q110.13 67.75 109.38 67.75L109.38 67.75Q108.63 67.75 108.13 68.25Q107.63 68.75 107.63 69.50L107.63 69.50Q107.63 70.25 108.13 70.81Q108.63 71.38 109.38 71.38L109.38 71.38ZM112.50 71.13L115.25 71.13L115.25 59.88L112.50 59.88L112.50 71.13ZM113.88 55.25L113.88 55.25Q113.13 55.25 112.69 55.69Q112.25 56.13 112.25 56.75L112.25 56.75Q112.25 57.50 112.69 57.94Q113.13 58.38 113.88 58.38L113.88 58.38Q114.63 58.38 115.06 57.94Q115.50 57.50 115.50 56.75L115.50 56.75Q115.50 56.13 115.06 55.69Q114.63 55.25 113.88 55.25L113.88 55.25ZM122.50 59.63L122.50 59.63Q119.88 59.63 118.25 61.25Q116.63 62.88 116.63 65.63L116.63 65.63Q116.63 68.25 118.25 69.81Q119.88 71.38 122.25 71.38L122.25 71.38Q124.38 71.38 126.19 69.94Q128 68.50 128 65.38L128 65.38Q128 62.88 126.50 61.25Q125 59.63 122.50 59.63L122.50 59.63ZM122.38 61.75L122.38 61.75Q123.88 61.75 124.50 62.94Q125.13 64.13 125.13 65.50L125.13 65.50Q125.13 67.13 124.38 68.19Q123.63 69.25 122.38 69.25L122.38 69.25Q121.13 69.25 120.38 68.19Q119.63 67.13 119.63 65.50L119.63 65.50Q119.63 64.13 120.25 62.94Q120.88 61.75 122.38 61.75L122.38 61.75Z"/></svg>