<svg xmlns="http://www.w3.org/2000/svg" xmlns:xlink="http://www.w3.org/1999/xlink" width="128" height="128"><path fill="#000000" d="M64 0L64 0Q50.75 0 39.13 5L39.13 5Q27.50 10.13 18.81 18.81Q10.13 27.50 5 39.13L5 39.13Q0 50.75 0 64L0 64Q0 77.13 5 88.88L5 88.88Q10.13 100.50 18.81 109.19Q27.50 117.88 39.13 122.88L39.13 122.88Q50.75 127.88 64 127.88L64 127.88Q77.13 127.88 88.88 122.88L88.88 122.88Q100.50 117.88 109.19 109.19Q117.88 100.50 122.88 88.88L122.88 88.88Q127.88 77.13 127.88 64L127.88 64Q127.88 50.75 122.88 39.13L122.88 39.13Q117.88 27.50 109.19 18.81Q100.50 10.13 88.88 5L88.88 5Q77.13 0 64 0L64 0ZM64 10.63L64 10.63Q75 10.63 84.75 14.88L84.75 14.88Q94.38 19 101.63 26.25Q108.88 33.50 113 43.25L113 43.25Q117.25 52.88 117.25 64L117.25 64Q117.25 75 113 84.75L113 84.75Q108.88 94.38 101.63 101.63Q94.38 108.88 84.75 113L84.75 113Q75 117.25 64 117.25L64 117.25Q52.88 117.25 43.25 113L43.25 113Q33.50 108.88 26.25 101.63Q19 94.38 14.88 84.75L14.88 84.75Q10.63 75 10.63 64L10.63 64Q10.63 52.88 14.88 43.25L14.88 43.25Q19 33.50 26.25 26.25Q33.50 19 43.25 14.88L43.25 14.88Q52.88 10.63 64 10.63ZM48.38 60.75L48.38 60.75Q53.63 56.38 58.88 52.13L58.88 52.13Q64 47.75 69.25 43.44Q74.50 39.13 79.75 34.75L79.75 34.75Q85 30.50 90.38 26.38L90.38 26.38Q87.63 30.63 84.75 35L84.75 35Q81.88 39.25 79 43.56Q76.13 47.88 73.38 52.13L73.38 52.13Q70.50 56.50 67.63 60.75L67.63 60.75Q62.88 60.75 58.06 60.75Q53.25 60.75 48.38 60.75L48.38 60.75ZM60.25 67.13L60.25 67.13Q65.13 67.13 69.94 67.13Q74.75 67.13 79.63 67.13L79.63 67.13Q74.25 71.50 69.13 75.75L69.13 75.75Q63.88 80.13 58.63 84.50Q53.38 88.88 48.13 93.13L48.13 93.13Q42.88 97.38 37.50 101.63L37.50 101.63Q40.38 97.25 43.13 92.88L43.13 92.88Q46 88.63 48.88 84.31Q51.75 80 54.63 75.75L54.63 75.75Q57.38 71.38 60.25 67.13L60.25 67.13Z"/></svg>