<svg xmlns="http://www.w3.org/2000/svg" xmlns:xlink="http://www.w3.org/1999/xlink" width="128" height="128"><path fill="#000000" d="M1.25 54.38L1.25 56.13Q1.25 56.63 1.38 57Q1.50 57.38 1.50 57.75L1.50 57.75Q2.13 60 3.25 61.88Q4.38 63.75 5.88 65.50L5.88 65.50Q7.88 68 10.38 70Q12.88 72 15.38 73.88L15.38 73.88Q17.63 75.50 19.94 77.06Q22.25 78.63 24.50 80.25L24.50 80.25Q24.88 80.50 25.25 80.81Q25.63 81.13 26 81.50L26 81.50Q25.63 81.75 25.31 81.88Q25 82 24.75 82.25L24.75 82.25Q21.75 83.75 18.88 85.44Q16 87.13 13.38 89.25L13.38 89.25Q11.88 90.50 10.38 91.81Q8.88 93.13 7.88 94.88L7.88 94.88Q6.13 97.63 5.63 100.56Q5.13 103.50 6.38 106.63L6.38 106.63Q6.75 107.50 7.38 108.31Q8 109.13 8.75 109.75L8.75 109.75Q9 109.88 9.31 110.06Q9.63 110.25 9.88 110.25L9.88 110.25Q10.75 110.50 11.56 110.63Q12.38 110.75 13.13 110.88L13.13 110.88L16.13 110.88Q18.75 110.63 21 109.81Q23.25 109 25.38 107.50L25.38 107.50Q28.63 105.38 30.75 102.31Q32.88 99.25 33.75 95.50L33.75 95.50Q34.50 92.63 34.50 89.88Q34.50 87.13 33.63 84.25L33.63 84.25Q33.63 84 33.50 83.75Q33.38 83.50 33.38 83.25L33.38 83.25Q33.25 83 33.13 82.75Q33 82.50 32.88 82.25L32.88 82.25L39.75 78.25L39.88 78.38Q39.75 78.63 39.63 78.94Q39.50 79.25 39.50 79.63L39.50 79.63Q38.88 81.88 38.50 84.13Q38.13 86.38 38.25 88.75L38.25 88.75Q38.50 91.13 39.19 93.44Q39.88 95.75 41.38 97.88L41.38 97.88Q42.50 99.50 44.81 99.56Q47.13 99.63 48.25 97.88L48.25 97.88Q48.75 97.38 49.19 96.75Q49.63 96.13 49.88 95.38L49.88 95.38Q50.75 93.63 51.56 91.88Q52.38 90.13 53.13 88.38L53.13 88.38L53.38 88Q53.25 88.75 53.19 89.50Q53.13 90.25 53.13 91L53.13 91Q53 92.13 53.13 93.25Q53.25 94.38 53.63 95.50L53.63 95.50Q54 96.38 54.63 97.06Q55.25 97.75 56.25 97.88L56.25 97.88Q57 97.88 57.63 97.63Q58.25 97.38 58.75 96.88L58.75 96.88Q59.63 96.25 60.25 95.44Q60.88 94.63 61.38 93.75L61.38 93.75Q62.88 91.13 64.31 88.50Q65.75 85.88 67 83.25L67 83.25Q68.38 80.25 69.63 77.31Q70.88 74.38 72.25 71.38L72.25 71.38L72.50 70.75Q72.88 71.88 73.13 73.06Q73.38 74.25 73.75 75.38L73.75 75.38Q74.13 76.63 74.69 77.94Q75.25 79.25 75.88 80.38L75.88 80.38Q76.25 81 76.19 81.44Q76.13 81.88 75.75 82.38L75.75 82.38Q74 84.38 72.38 86.44Q70.75 88.50 69 90.63L69 90.63Q68.63 91 68.31 91.50Q68 92 67.63 92.50L67.63 92.50Q67.50 92.75 67.38 93.13Q67.25 93.50 67.13 93.88L67.13 93.88Q67 94.50 67.44 95.06Q67.88 95.63 68.50 95.75L68.50 95.75Q69.25 96 69.94 96Q70.63 96 71.25 96L71.25 96Q73.63 95.88 75.69 95.06Q77.75 94.25 79.63 92.88L79.63 92.88Q82 91 82.88 88.63Q83.75 86.25 83.13 83.38L83.13 83.38Q83 82.50 82.75 81.75Q82.50 81 82.13 80.25L82.13 80.25Q82 79.88 82.06 79.63Q82.13 79.38 82.25 79.13L82.25 79.13Q84.25 76.38 85.94 73.44Q87.63 70.50 89.13 67.50L89.13 67.50Q89.13 67.38 89.25 67.25Q89.38 67.13 89.38 67L89.38 67Q89.88 69.63 90.69 72.06Q91.50 74.50 92.88 76.88L92.88 76.88Q92.25 77.50 91.56 78.13Q90.88 78.75 90.25 79.38L90.25 79.38Q88.88 80.88 87.75 82.44Q86.63 84 86.13 86L86.13 86Q85.75 86.75 85.63 87.63Q85.50 88.50 85.63 89.38L85.63 89.38Q85.75 90.75 86.75 91.50Q87.75 92.25 89.13 92L89.13 92Q92 91.25 94.44 89.88Q96.88 88.50 98.75 86L98.75 86Q100 84.38 100.19 82.63Q100.38 80.88 99.88 78.88L99.88 78.88Q99.75 78.38 99.56 77.88Q99.38 77.38 99.25 76.75L99.25 76.75Q99.88 76.50 100.63 76.31Q101.38 76.13 102 75.88L102 75.88Q105.75 75 109.44 75.19Q113.13 75.38 116.75 76.75L116.75 76.75Q118.88 77.50 120.50 78.88Q122.13 80.25 123.13 82.38L123.13 82.38Q124.38 84.88 123.75 87.19Q123.13 89.50 120.75 91.13L120.75 91.13Q120.50 91.25 120.25 91.38Q120 91.50 119.88 91.63L119.88 91.63Q119.75 91.75 119.69 91.94Q119.63 92.13 119.63 92.38L119.63 92.38Q119.63 92.38 119.81 92.50Q120 92.63 120.13 92.63L120.13 92.63Q120.88 92.63 121.56 92.25Q122.25 91.88 122.88 91.50L122.88 91.50Q124.38 90.38 125.44 88.94Q126.50 87.50 126.75 85.63L126.75 85.63L126.75 85.50L126.75 83.88Q126.63 83.75 126.69 83.69Q126.75 83.63 126.75 83.63L126.75 83.63Q126.38 80.88 125 78.75Q123.63 76.63 121.50 74.88L121.50 74.88Q119 73 116.19 72.13Q113.38 71.25 110.25 71.13L110.25 71.13Q107.75 71 105.31 71.38Q102.88 71.75 100.50 72.63L100.50 72.63Q99.75 72.88 99.13 73.13Q98.50 73.38 97.75 73.75L97.75 73.75Q97.75 73.50 97.63 73.38Q97.50 73.25 97.50 73L97.50 73Q96.75 71.63 96.06 70.19Q95.38 68.75 95.13 67.13L95.13 67.13Q95 66 94.94 64.88Q94.88 63.75 95.13 62.50L95.13 62.50Q95.38 61.50 95.69 60.38Q96 59.25 96.38 58.25L96.38 58.25Q96.50 57.63 96.38 57.31Q96.25 57 95.75 56.75L95.75 56.75Q95.50 56.63 95.31 56.56Q95.13 56.50 94.88 56.50L94.88 56.50Q93.63 56.25 92.31 56.38Q91 56.50 89.75 56.88L89.75 56.88Q89.25 57 89 57.25Q88.75 57.50 88.63 58L88.63 58Q88.50 58.25 88.44 58.56Q88.38 58.88 88.25 59.13L88.25 59.13Q87.88 60.25 87.63 61.44Q87.38 62.63 86.75 63.75L86.75 63.75Q85.38 66.63 83.88 69.31Q82.38 72 80.88 74.63L80.88 74.63Q80.63 75 80.44 75.25Q80.25 75.50 80.13 75.88L80.13 75.88Q79.50 74.75 79 73.69Q78.50 72.63 78.38 71.38L78.38 71.38Q78.13 70 78.06 68.63Q78 67.25 78.25 65.88L78.25 65.88Q78.50 64.88 78.88 63.88Q79.25 62.88 79.50 61.88L79.50 61.88Q79.63 61.38 79.56 61.06Q79.50 60.75 79 60.50L79 60.50Q78.75 60.38 78.56 60.31Q78.38 60.25 78.13 60.13L78.13 60.13Q76.75 60 75.38 60.13Q74 60.25 72.75 60.63L72.75 60.63Q72.38 60.75 72.13 61Q71.88 61.25 71.75 61.75L71.75 61.75Q71.38 63 71 64.19Q70.63 65.38 70.13 66.63L70.13 66.63Q68 71.38 65.88 76.13Q63.75 80.88 61.63 85.63L61.63 85.63Q61.25 86.63 60.75 87.56Q60.25 88.50 59.75 89.50L59.75 89.50Q59.63 89.75 59.44 90Q59.25 90.25 59.13 90.38L59.13 90.38Q59 90.25 58.94 90.13Q58.88 90 58.88 90L58.88 90Q58.88 89.38 58.81 88.75Q58.75 88.13 58.88 87.50L58.88 87.50Q59.25 85.75 59.63 83.94Q60 82.13 60.50 80.38L60.50 80.38Q60.88 79 61.25 77.50Q61.63 76 62 74.63L62 74.63Q62.13 74.13 62.13 73.69Q62.13 73.25 61.75 72.88L61.75 72.88Q61.13 72.13 60.13 72Q59.13 71.88 58.38 72.38L58.38 72.38L57.88 72.63L58 72Q58.13 70.88 58.13 69.75Q58.13 68.63 57.88 67.50L57.88 67.50Q57.50 66.13 56.56 65.44Q55.63 64.75 54.13 64.75L54.13 64.75Q53.50 64.75 52.81 64.88Q52.13 65 51.50 65.25L51.50 65.25Q49 66.25 46.94 67.94Q44.88 69.63 43.25 71.75L43.25 71.75Q43.13 72 42.94 72.19Q42.75 72.38 42.50 72.50L42.50 72.50Q40.38 73.63 38.19 74.81Q36 76 33.75 77.25L33.75 77.25L30.63 79Q29.88 78.38 29.31 77.75Q28.75 77.13 28 76.63L28 76.63Q26 74.88 23.94 73.25Q21.88 71.63 19.75 70L19.75 70Q18 68.50 16.25 66.94Q14.50 65.38 13.13 63.50L13.13 63.50Q12.13 62 11.56 60.44Q11 58.88 10.88 57L10.88 57Q10.88 54.75 11.44 52.69Q12 50.63 13.13 48.75L13.13 48.75Q14.63 46.25 16.63 44.19Q18.63 42.13 20.75 40.38L20.75 40.38Q23.13 38.50 25.63 36.88Q28.13 35.25 30.75 33.75L30.75 33.75Q34.50 31.63 38.31 29.88Q42.13 28.13 46.13 27L46.13 27Q50.25 25.75 54.50 25.13Q58.75 24.50 63.13 25L63.13 25Q64.88 25.25 66.50 25.69Q68.13 26.13 69.63 26.88L69.63 26.88Q70.88 27.50 71.75 28.44Q72.63 29.38 73.13 30.63L73.13 30.63Q73.50 31.88 73.50 33.19Q73.50 34.50 73.25 35.88L73.25 35.88Q72.63 38.50 71.25 40.69Q69.88 42.88 68 44.88L68 44.88Q65 48.13 61.38 50.31Q57.75 52.50 53.75 54L53.75 54Q51.38 54.75 48.88 55.31Q46.38 55.88 43.88 56L43.88 56Q41.88 56.25 39.88 56Q37.88 55.75 36 55.13L36 55.13Q34.63 54.63 33.56 53.88Q32.50 53.13 31.50 52.13L31.50 52.13Q31.38 51.88 31.19 51.75Q31 51.63 30.63 51.88L30.63 51.88Q30.38 52 30.31 52.25Q30.25 52.50 30.38 52.75L30.38 52.75Q30.50 53.25 30.69 53.75Q30.88 54.25 31.13 54.63L31.13 54.63Q31.75 55.75 32.63 56.50Q33.50 57.25 34.63 58L34.63 58Q36.50 59.25 38.69 59.75Q40.88 60.25 43.25 60.38L43.25 60.38Q46.75 60.50 50.13 60Q53.50 59.50 56.88 58.63L56.88 58.63Q61.63 57.25 65.75 54.81Q69.88 52.38 73.25 48.75L73.25 48.75Q76 45.63 77.88 42.06Q79.75 38.50 80.13 34.25L80.13 34.25Q80.38 32.25 80.13 30.25Q79.88 28.25 78.88 26.38L78.88 26.38Q77.88 24.25 76.25 22.75Q74.63 21.25 72.63 20.25L72.63 20.25Q69.75 18.63 66.63 17.81Q63.50 17 60.25 17L60.25 17L56 17Q52.13 17 48.31 18Q44.50 19 40.88 20.25L40.88 20.25Q38 21.25 35.31 22.44Q32.63 23.63 30 25L30 25Q24.25 27.88 18.94 31.44Q13.63 35 9.25 39.75L9.25 39.75Q7 42.25 5.25 44.88Q3.50 47.50 2.38 50.63L2.38 50.63Q2.13 51.50 1.81 52.44Q1.50 53.38 1.25 54.38L1.25 54.38ZM29.13 90.38L29.13 90.38Q28.88 93.75 27.44 96.44Q26 99.13 23.50 101.38L23.50 101.38Q22.13 102.63 20.50 103.44Q18.88 104.25 17 104.63L17 104.63Q16.38 104.75 15.69 104.69Q15 104.63 14.38 104.38L14.38 104.38Q13.38 104 13.06 103.25Q12.75 102.50 12.75 101.63L12.75 101.63Q12.75 100.13 13.19 98.88Q13.63 97.63 14.25 96.38L14.25 96.38Q15.13 94.88 16.38 93.63Q17.63 92.38 19 91.25L19 91.25Q21.25 89.38 23.56 87.88Q25.88 86.38 28.25 85L28.25 85L28.50 84.88Q28.88 86.25 29.06 87.63Q29.25 89 29.13 90.38ZM54.25 71L54.25 71Q54.13 72 53.88 73.06Q53.63 74.13 53.38 75.25L53.38 75.25Q52.25 78.75 50.94 82.25Q49.63 85.75 48.13 89.13L48.13 89.13Q47.75 89.88 47.38 90.44Q47 91 46.75 91.63L46.75 91.63Q46.63 91.75 46.56 91.81Q46.50 91.88 46.38 91.88L46.38 91.88Q46 92.38 45.63 92.31Q45.25 92.25 45 91.75L45 91.75Q44.75 91.13 44.56 90.44Q44.38 89.75 44.25 89L44.25 89Q44.13 88.50 44.13 88.06Q44.13 87.63 44.13 87.13L44.13 87.13Q44.13 83.75 45.13 80.69Q46.13 77.63 47.88 74.75L47.88 74.75Q48.63 73.50 49.44 72.44Q50.25 71.38 51.50 70.63L51.50 70.63Q51.88 70.50 52.25 70.31Q52.63 70.13 53.13 70L53.13 70Q53.75 69.75 54.06 70.06Q54.38 70.38 54.25 71L54.25 71ZM71.50 92.88L71.50 92.88L77.63 85.63Q77.88 87.63 75.38 90.56Q72.88 93.50 71.50 92.88ZM91.13 88L91.13 88Q90.88 88.25 90.50 88.38Q90.13 88.50 89.75 88.63L89.75 88.63Q89.50 88.88 89.38 88.75Q89.25 88.63 89.25 88.25L89.25 88.25Q89.25 88.13 89.25 87.94Q89.25 87.75 89.38 87.63L89.38 87.63Q90 85.38 91.13 83.50Q92.25 81.63 94 80.13L94 80.13L94.13 80Q95 82.25 94.13 84.50Q93.25 86.75 91.13 88Z"/></svg>