<svg xmlns="http://www.w3.org/2000/svg" xmlns:xlink="http://www.w3.org/1999/xlink" width="128" height="128"><path fill="#000000" d="M31.13 70.75L31.13 50.13L35.25 50.13L35.25 70.75L31.13 70.75ZM20.75 50.13L20.75 50.13L24.75 50.13L24.75 91.50L20.75 91.50L20.75 50.13ZM10.38 91.50L10.38 50.13L14.50 50.13L14.50 91.50L10.38 91.50ZM0 39.75L0 39.75L4.13 39.75L4.13 70.88L0 70.88L0 39.75ZM66 61.50L66 61.50L68.13 61.50L68.13 74.13L66 74.13L66 61.50ZM77.13 63.63L77.13 63.63L73.88 63.63L73.88 61.50L83.25 61.50L83.25 63.63L79.25 63.63L79.25 74.13L77.13 74.13L77.13 63.63ZM90.75 63.63L90.75 63.63L87.50 63.63L87.50 61.50L96.88 61.50L96.88 63.63L92.75 63.63L92.75 74.13L90.75 74.13L90.75 63.63ZM102.25 74L102.25 61.50L111.75 61.50L111.75 63.63L104.38 63.63L104.38 66.75L110.75 66.75L110.75 68.75L104.38 68.75L104.38 72L111.75 72L111.75 74L102.25 74ZM128 74.13L128 74.13L124.75 69.38Q125.75 68.88 126.31 67.94Q126.88 67 126.88 65.75L126.88 65.75Q126.88 63.88 125.56 62.69Q124.25 61.50 122.38 61.50L122.38 61.50L117.50 61.50L117.50 74.13L119.63 74.13L119.63 69.88L122.50 69.88L125.50 74.13L128 74.13ZM119.63 67.75L119.63 67.75L119.63 63.63L122.38 63.63Q123.50 63.63 124.13 64.19Q124.75 64.75 124.75 65.75L124.75 65.75Q124.75 66.75 124.06 67.25Q123.38 67.75 122.38 67.75L122.38 67.75L119.63 67.75ZM55.75 66.88L55.75 66.88L55.75 69L58.75 69Q58.75 69 58.75 69.63Q58.75 70.25 58.75 70.75L58.75 70.75Q58.75 71 58.31 71.63Q57.88 72.25 55.75 72.25L55.75 72.25Q55.63 72.25 55.56 72.25Q55.50 72.25 55.38 72.25L55.38 72.25Q55.38 72.25 55.31 72.25Q55.25 72.25 55.25 72.25L55.25 72.25Q55.13 72.25 55.06 72.25Q55 72.25 55 72.25L55 72.25Q54.88 72.25 54.81 72.19Q54.75 72.13 54.75 72.13L54.75 72.13Q54.75 72.13 54.69 72.13Q54.63 72.13 54.63 72L54.63 72L54.50 72Q53.25 71.50 52.50 70.38Q51.75 69.25 51.75 67.75L51.75 67.75L51.75 67.75L51.75 67.75L51.75 67.75Q51.75 67.63 51.75 67.50Q51.75 67.38 51.75 67.25L51.75 67.25Q52 65.50 53.06 64.38Q54.13 63.25 55.75 63.25L55.75 63.25Q56.25 63.25 57.06 63.44Q57.88 63.63 58.63 64.38L58.63 64.38L59.75 62.63Q59.75 62.63 58.88 61.88Q58 61.13 55.75 61.13L55.75 61.13Q53.13 61.13 51.38 62.88Q49.63 64.63 49.25 67L49.25 67Q49.25 67.13 49.25 67.31Q49.25 67.50 49.25 67.63L49.25 67.63L49.25 67.63L49.25 67.63Q49.25 70.13 51 72.06Q52.75 74 55.38 74.13L55.38 74.13Q55.50 74.13 55.56 74.13Q55.63 74.13 55.75 74.13L55.75 74.13L56 74.13Q56.13 74.13 56.31 74.13Q56.50 74.13 56.63 74.13L56.63 74.13Q56.63 74.13 56.69 74.13Q56.75 74.13 56.75 74.13L56.75 74.13Q57 74.13 57 74.13Q57 74.13 57.25 74L57.25 74Q58.88 73.88 59.88 72.94Q60.88 72 60.88 71.25L60.88 71.25Q60.88 68.25 60.88 67.50Q60.88 66.75 60.88 66.75L60.88 66.75L55.75 66.88Z"/></svg>