<svg xmlns="http://www.w3.org/2000/svg" xmlns:xlink="http://www.w3.org/1999/xlink" width="128" height="128"><path fill="#ffffff" d="M127.88 99.50L127.88 0.13L0.13 0.13L0.13 127.88L127.88 127.88L127.88 103.88L119.50 103.88L119.50 121.13L115.13 121.13L115.13 103.88L106.63 103.88L106.63 99.50L127.88 99.50ZM54.88 121.13L54.88 99.50L76.38 99.50L76.38 103.88L59.13 103.88L59.13 108.13L67.63 108.13L67.63 112.50L59.13 112.50L59.13 116.75L76.38 116.75L76.38 121.13L54.88 121.13ZM80.75 121.13L80.75 99.50L102.13 99.50L102.13 103.88L85 103.88L85 116.75L102.13 116.75L102.13 121.13L80.75 121.13ZM28.75 121.13L28.75 99.50L50.38 99.50L50.38 112.50L46 112.50L46 116.75L41.75 116.75L41.75 112.50L33.13 112.50L33.13 121.13L28.75 121.13ZM46 116.75L50.38 116.75L50.38 121.13L46 121.13L46 116.75ZM33.13 103.88L46 103.88L46 108.13L33.13 108.13L33.13 103.88Z"/></svg>