<svg xmlns="http://www.w3.org/2000/svg" xmlns:xlink="http://www.w3.org/1999/xlink" width="128" height="128"><path fill="#000000" d="M90.13 80L90.13 80Q90.75 79.63 91.38 79.25Q92 78.88 92.63 78.50L92.63 78.50Q96.75 74.88 95.31 68.44Q93.88 62 86.75 52.75L86.75 52.75Q86.88 57.38 87.50 62.13Q88.13 66.88 88.88 71.88L88.88 71.88Q89.25 73.88 89.50 75.88Q89.75 77.88 90.13 80ZM36 103.25L36 103.25Q38.38 113.50 44 119.31Q49.63 125.13 56.50 127.38L56.50 127.38Q60.38 128.13 64.19 128Q68 127.88 71.75 127L71.75 127Q72.38 126.75 72.94 126.38Q73.50 126 74 125.63L74 125.63Q75.50 124.63 76.81 123.50Q78.13 122.38 79.25 121.25L79.25 121.25Q74.38 119.25 69.50 115.38Q64.63 111.50 60 106.75L60 106.75Q56.38 106.50 52.94 106.13Q49.50 105.75 46.38 105.25L46.38 105.25Q43.38 105 40.81 104.50Q38.25 104 36 103.25ZM34.63 38.75L34.63 38.75L34.38 40.13Q33.38 46 33.25 51.31Q33.13 56.63 34 61.25L34 61.25Q34.88 55.75 36 50.13Q37.13 44.50 38.75 39L38.75 39Q38.88 38.13 39.13 37.25Q39.38 36.38 39.75 35.50L39.75 35.50L39.75 35.50Q41 31.75 42.38 28.19Q43.75 24.63 45.25 21.25L45.25 21.25Q42.25 25.13 39.63 29.56Q37 34 34.63 38.75L34.63 38.75ZM33.88 114L33.88 114Q36.50 117.25 39.50 119.69Q42.50 122.13 45.75 123.88L45.75 123.88Q41.63 120.50 38.44 115.19Q35.25 109.88 33.75 102.50L33.75 102.50Q31 101.50 28.69 100.06Q26.38 98.63 24.75 96.75L24.75 96.75Q25.88 101.63 28.19 106Q30.50 110.38 33.88 114L33.88 114ZM33.25 67L33.25 67Q32 62.63 31.50 57.50Q31 52.38 31.50 46.63L31.50 46.63Q30.63 48.38 29.88 50.19Q29.13 52 28.25 53.88L28.25 53.88Q26.63 58.75 25.38 63.75L25.38 63.75Q24.25 68.75 23.63 73.69Q23 78.63 23 83.38L23 83.38Q23 88.13 23.75 92.63L23.75 92.63Q25.25 95 27.63 96.94Q30 98.88 33.25 100.25L33.25 100.25Q32.25 94.38 32.19 85.69Q32.13 77 33.25 67L33.25 67ZM35.50 100.75L35.50 100.75Q35.50 100.88 35.50 100.88Q35.50 100.88 35.50 100.75L35.50 100.75Q37.88 101.75 40.63 102.31Q43.38 102.88 46.63 103.25L46.63 103.25Q49.25 103.75 52.06 104.06Q54.88 104.38 57.88 104.63L57.88 104.63Q51.63 97.75 46.38 90.19Q41.13 82.63 37.63 76L37.63 76Q36.75 74.75 36.06 73.50Q35.38 72.25 34.75 71L34.75 71Q34 80.13 34.19 87.94Q34.38 95.75 35.50 100.75L35.50 100.75ZM86.88 72.13L86.88 72.13Q86.13 66.50 85.38 60.88Q84.63 55.25 84.63 49.75L84.63 49.75Q79.88 45.38 75.38 40.75L75.38 40.75Q70.88 36 67.44 30.63Q64 25.25 61.88 19L61.88 19Q59.88 12.75 60.13 5.13L60.13 5.13Q59.75 5.38 59.50 5.56Q59.25 5.75 59 6L59 6Q57.38 7.38 55.75 9Q54.13 10.63 52.50 12.25L52.50 12.25Q49.13 17.13 46.44 23.13Q43.75 29.13 41.63 35.75L41.63 35.75Q41 40.13 42.63 46.38L42.63 46.38Q44.38 52.50 47.69 59.50Q51 66.50 55.75 73.75L55.75 73.75Q60.50 81 66.13 87.50L66.13 87.50Q71.50 87.25 77.13 85.63Q82.75 84 88.25 81L88.25 81Q87.88 78.88 87.56 76.63Q87.25 74.38 86.88 72.13L86.88 72.13ZM96.88 111.75L96.88 111.75Q95 111.38 93 110.75Q91 110.13 89.13 109.25L89.13 109.25Q88.13 112.25 86.56 115.13Q85 118 82.75 120.63L82.75 120.63Q83.50 120.88 84.25 121.06Q85 121.25 85.75 121.25L85.75 121.25Q89 119.38 91.81 117Q94.63 114.63 96.88 111.75L96.88 111.75ZM62.13 3.63L62.13 3.63Q61.75 10.88 63.38 17L63.38 17Q65.13 23 68.25 28.25Q71.38 33.50 75.63 38L75.63 38Q79.88 42.50 84.38 46.75L84.38 46.75Q80.38 41.50 77.25 36.88L77.25 36.88Q74.13 32.25 71.94 27.13Q69.75 22 68.63 15.63L68.63 15.63Q67.50 9.25 67.50 0.25L67.50 0.25Q66.25 1 64.88 1.81Q63.50 2.63 62.13 3.63L62.13 3.63ZM83.25 105.75L83.25 105.75Q79.25 106.38 75.13 106.63Q71 106.88 67 106.88L67 106.88Q66 106.88 64.88 106.88Q63.75 106.88 62.75 106.75L62.75 106.75Q67 111.13 71.63 114.56Q76.25 118 80.75 119.75L80.75 119.75Q83.13 117.13 84.75 114.25Q86.38 111.38 87.25 108.25L87.25 108.25Q86.25 107.63 85.19 107.06Q84.13 106.50 83.25 105.75ZM80.75 104.25L80.75 104.25Q79.25 103.13 77.94 102Q76.63 100.88 75.25 99.75L75.25 99.75Q72.63 97.50 70.13 94.94Q67.63 92.38 65.25 89.63L65.25 89.63Q59.88 89.63 55 88.38Q50.13 87.13 46.13 84.50L46.13 84.50Q45.50 84.13 44.94 83.69Q44.38 83.25 43.75 82.75L43.75 82.75Q47.25 88.25 51.56 94Q55.88 99.75 60.75 104.75L60.75 104.75Q65.63 105 70.75 104.88Q75.88 104.75 80.75 104.25L80.75 104.25ZM90.38 104.38L90.38 104.38Q90.25 105.13 90.06 105.81Q89.88 106.50 89.75 107.25L89.75 107.25Q91.75 108.38 93.94 109.06Q96.13 109.75 98.25 110L98.25 110Q100.13 107.50 101.63 104.63Q103.13 101.75 104 98.75L104 98.75Q101.25 100.63 97.75 102Q94.25 103.38 90.38 104.38L90.38 104.38ZM47.25 82.75L47.25 82.75Q50.75 85 54.88 86.25Q59 87.50 63.50 87.63L63.50 87.63Q58.88 82.13 54.88 76.13L54.88 76.13Q50.88 70.25 47.75 64.38Q44.63 58.50 42.63 52.88L42.63 52.88Q40.50 47.38 39.75 42.63L39.75 42.63Q38.13 49.25 37.25 54.25Q36.38 59.25 35.38 66.25L35.38 66.25L35.38 66.38Q36.13 68.13 37 70.19Q37.88 72.25 39.13 74.50L39.13 74.50Q40.63 77 42.69 79.13Q44.75 81.25 47.25 82.75L47.25 82.75ZM88.50 83.25L88.50 83.25Q83.38 86 78.13 87.56Q72.88 89.13 67.75 89.50L67.75 89.50Q70 91.88 72.19 94.13Q74.38 96.38 76.63 98.25L76.63 98.25Q78.13 99.75 79.94 101.13Q81.75 102.50 83.75 103.75L83.75 103.75Q85 103.63 86.19 103.38Q87.38 103.13 88.63 102.88L88.63 102.88Q89.38 98.13 89.25 93.19Q89.13 88.25 88.50 83.25L88.50 83.25ZM90.75 102.25L90.75 102.25Q94.88 101.13 98.50 99.56Q102.13 98 104.75 95.75L104.75 95.75Q105.88 90.50 105.44 84.88Q105 79.25 102.50 73.25L102.50 73.25Q100.38 69.63 98.25 66.38Q96.13 63.13 94.25 60.25L94.25 60.25Q97.75 66.88 97.69 71.75Q97.63 76.63 93.75 79.88L93.75 79.88L93.75 80Q92.88 80.50 92.06 81.06Q91.25 81.63 90.25 82.13L90.25 82.13Q91 87.25 91.19 92.38Q91.38 97.50 90.75 102.25Z"/></svg>