<svg xmlns="http://www.w3.org/2000/svg" xmlns:xlink="http://www.w3.org/1999/xlink" width="128" height="128"><path fill="#000000" d="M64 70.63L64 70.50Q64.13 73.63 65.75 74.94Q67.38 76.25 69.75 76.25L69.75 76.25Q71.38 76.25 72.44 76Q73.50 75.75 74.25 75.38L74.25 75.38L74.75 77.63Q74 78 72.63 78.38Q71.25 78.75 69.25 78.75L69.25 78.75Q65.38 78.75 63.19 76.38Q61 74 61 70.25L61 70.25Q61 66.50 63.13 63.94Q65.25 61.38 68.75 61.38L68.75 61.38Q72.88 61.38 74.31 64.13Q75.75 66.88 75.75 69.25L75.75 69.25Q75.75 69.63 75.69 70Q75.63 70.38 75.63 70.63L75.63 70.63L64 70.63ZM64 68.25L72.75 68.25Q72.75 66.88 71.94 65.13Q71.13 63.38 68.63 63.38L68.63 63.38Q66.25 63.38 65.19 65.06Q64.13 66.75 64 68.25L64 68.25ZM79.50 78.25L79.50 53.88L82.50 53.88L82.50 78.25L79.50 78.25ZM91 56.88L91 56.88Q91 57.63 90.50 58.19Q90 58.75 89.13 58.75L89.13 58.75Q88.25 58.75 87.75 58.25Q87.25 57.75 87.25 56.88L87.25 56.88Q87.25 56.13 87.81 55.56Q88.38 55 89.25 55L89.25 55Q90 55.13 90.50 55.63Q91 56.13 91 56.88ZM90.63 78.25L87.63 78.25L87.63 61.63L90.63 61.63L90.63 78.25ZM97 61.75L97 61.63L99.38 65.25Q99.88 65.88 100.31 66.56Q100.75 67.25 101.13 67.88L101.13 67.88L101.25 67.88Q101.63 67.13 102.06 66.50Q102.50 65.88 102.88 65.25L102.88 65.25L105.25 61.75L108.50 61.75L102.75 69.75L108.63 78.25L105.25 78.25L102.75 74.63Q102.13 73.88 101.75 73.19Q101.38 72.50 100.88 71.75L100.88 71.75L100.75 71.75Q100.38 72.50 99.94 73.19Q99.50 73.88 99 74.63L99 74.63L96.63 78.25L93.25 78.25L99.25 69.75L93.63 61.75L97 61.75ZM114.88 56.88L114.88 56.88Q114.88 57.63 114.38 58.19Q113.88 58.75 113 58.75L113 58.75Q112.13 58.75 111.69 58.25Q111.25 57.75 111.25 56.88L111.25 56.88Q111.25 56.13 111.75 55.56Q112.25 55 113.13 55L113.13 55Q113.88 55.13 114.38 55.63Q114.88 56.13 114.88 56.88ZM114.50 78.25L111.50 78.25L111.50 61.63L114.50 61.63L114.50 78.25ZM119.50 66.75L119.63 66.75L119.50 61.63L122.13 61.63L122.25 64.88L122.25 64.88Q122.88 63.25 124.13 62.25Q125.38 61.25 126.88 61.25L126.88 61.25Q127.13 61.25 127.31 61.31Q127.50 61.38 127.75 61.38L127.75 61.38L127.75 64.25Q127.50 64.13 127.25 64.13Q127 64.13 126.75 64.13L126.75 64.13Q125.13 64.13 124.06 65.19Q123 66.25 122.63 67.88L122.63 67.88Q122.50 68.25 122.50 68.56Q122.50 68.88 122.50 69.25L122.50 69.25L122.50 78.25L119.50 78.25L119.50 66.75ZM38.25 70.75L38.25 70.75L39.75 69.75Q42.13 67.75 41.25 64.06Q40.38 60.38 36.25 55.13L36.25 55.13Q36.38 57.75 36.75 60.44Q37.13 63.13 37.63 66L37.63 66Q37.75 67.13 37.94 68.31Q38.13 69.50 38.25 70.75ZM7.38 83.88L7.38 83.88Q8.75 89.75 11.94 93.06Q15.13 96.38 19.13 97.75L19.13 97.75Q21.25 98.13 23.44 98.06Q25.63 98 27.75 97.50L27.75 97.50Q28.13 97.38 28.44 97.13Q28.75 96.88 29.13 96.75L29.13 96.75Q29.88 96.13 30.63 95.50Q31.38 94.88 32.13 94.25L32.13 94.25Q29.38 93 26.56 90.81Q23.75 88.63 21.13 85.88L21.13 85.88Q19.13 85.75 17.13 85.56Q15.13 85.38 13.25 85.13L13.25 85.13Q11.63 85 10.13 84.69Q8.63 84.38 7.38 83.88ZM6.63 47.13L6.63 47.13L6.50 47.88Q5.88 51.25 5.88 54.31Q5.88 57.38 6.25 60L6.25 60Q6.75 56.88 7.44 53.63Q8.13 50.38 9 47.25L9 47.25Q9.13 46.88 9.25 46.38Q9.38 45.88 9.63 45.25L9.63 45.25L9.75 45.25Q10.38 43.13 11.13 41.06Q11.88 39 12.75 37.13L12.75 37.13Q11 39.38 9.50 41.88Q8 44.38 6.63 47.13L6.63 47.13ZM6.25 90L6.25 90Q7.63 91.75 9.31 93.13Q11 94.50 12.88 95.50L12.88 95.50L13 95.63Q10.63 93.63 8.81 90.63Q7 87.63 6.25 83.38L6.25 83.38Q4.50 82.88 3.25 82.06Q2 81.25 1 80.25L1 80.25Q1.63 83 2.94 85.44Q4.25 87.88 6.25 90ZM5.88 63.25L5.88 63.25Q5.13 60.63 4.88 57.75Q4.63 54.88 4.88 51.63L4.88 51.63Q4.50 52.63 4 53.63Q3.50 54.63 3.13 55.75L3.13 55.75Q1.13 61.38 0.38 67.06Q-0.38 72.75 0.38 77.75L0.38 77.75Q1.25 79.13 2.63 80.25Q4 81.38 5.88 82.13L5.88 82.13Q5.25 78.88 5.25 73.88Q5.25 68.88 5.88 63.25L5.88 63.25ZM7.13 82.50L7.13 82.50Q7.13 82.63 7.13 82.63Q7.13 82.63 7.13 82.50L7.13 82.50Q8.50 83 10.06 83.31Q11.63 83.63 13.38 83.88L13.38 83.88Q14.88 84.13 16.50 84.31Q18.13 84.50 19.75 84.63L19.75 84.63Q16.38 80.75 13.38 76.44Q10.38 72.13 8.25 68.38L8.25 68.38Q7.88 67.75 7.50 67Q7.13 66.25 6.75 65.50L6.75 65.50Q6.25 70.75 6.38 75.19Q6.50 79.63 7.13 82.50L7.13 82.50ZM36.38 66.25L36.38 66.25Q36 63 35.56 59.81Q35.13 56.63 35.13 53.50L35.13 53.50Q29.75 48.50 25.31 42.63Q20.88 36.75 21.13 28L21.13 28Q21 28.13 20.81 28.25Q20.63 28.38 20.50 28.50L20.50 28.50Q19.50 29.38 18.63 30.25Q17.75 31.13 16.75 32.13L16.75 32.13Q14.88 34.75 13.31 38.19Q11.75 41.63 10.63 45.50L10.63 45.50Q9.88 50.50 14.06 59.06Q18.25 67.63 24.63 75L24.63 75Q27.63 74.88 30.81 73.94Q34 73 37.25 71.25L37.25 71.25Q37 70 36.81 68.75Q36.63 67.50 36.38 66.25L36.38 66.25ZM42.13 88.75L42.13 88.75Q40.88 88.50 39.75 88.13Q38.63 87.75 37.63 87.25L37.63 87.25L37.75 87.25Q37.13 89 36.25 90.63Q35.38 92.25 34.13 93.75L34.13 93.75Q34.50 94 35 94.06Q35.50 94.13 35.88 94.25L35.88 94.25Q37.63 93.13 39.25 91.75Q40.88 90.38 42.13 88.75L42.13 88.75ZM22.25 27.13L22.25 27.13Q21.88 35.38 25.88 41.13Q29.88 46.88 35 51.75L35 51.75Q30.38 45.63 27.88 40.50Q25.38 35.38 25.38 25.25L25.38 25.25Q24.63 25.63 23.88 26.13Q23.13 26.63 22.25 27.13L22.25 27.13ZM34.25 85.38L34.25 85.38Q32 85.75 29.69 85.88Q27.38 86 25.13 86L25.13 86Q24.50 86 23.88 86Q23.25 86 22.63 85.88L22.63 85.88Q25.13 88.38 27.69 90.31Q30.25 92.25 32.88 93.25L32.88 93.25Q34.25 91.75 35.19 90.13Q36.13 88.50 36.75 86.75L36.75 86.75Q36.13 86.38 35.50 86.06Q34.88 85.75 34.25 85.38L34.25 85.38ZM33 84.50L33 84.50Q32.13 83.88 31.38 83.25Q30.63 82.63 29.88 82L29.88 82Q28.38 80.63 26.94 79.19Q25.50 77.75 24.13 76.25L24.13 76.25L24.13 76.25Q21.13 76.25 18.31 75.50Q15.50 74.75 13.25 73.25L13.25 73.25Q12.88 73.13 12.50 72.88Q12.13 72.63 11.88 72.25L11.88 72.25L11.88 72.25Q13.88 75.50 16.31 78.75Q18.75 82 21.50 84.75L21.50 84.75Q24.25 85 27.19 84.88Q30.13 84.75 33 84.50ZM38.38 84.63L38.38 84.63Q38.38 85 38.25 85.44Q38.13 85.88 38 86.25L38 86.25Q39.25 86.88 40.44 87.31Q41.63 87.75 42.88 87.75L42.88 87.75Q44 86.38 44.81 84.75Q45.63 83.13 46.13 81.38L46.13 81.38Q44.63 82.38 42.63 83.19Q40.63 84 38.38 84.63ZM13.75 72.25L13.75 72.25Q15.88 73.63 18.19 74.25Q20.50 74.88 23.13 75L23.13 75Q17.88 68.75 14.13 61.75Q10.38 54.75 9.63 49.25L9.63 49.25Q8.63 53.13 8.13 56Q7.63 58.88 7.13 62.75L7.13 62.75L7.13 62.88Q7.63 64.25 8.19 65.44Q8.75 66.63 9.25 67.75L9.25 67.75L9.25 67.50Q10.13 69 11.25 70.19Q12.38 71.38 13.75 72.25L13.75 72.25ZM37.25 72.50L37.25 72.50Q34.38 74.13 31.38 75Q28.38 75.88 25.50 76.13L25.50 76.13Q26.75 77.50 28 78.75Q29.25 80 30.50 81.13L30.50 81.13Q31.38 81.88 32.44 82.69Q33.50 83.50 34.50 84.25L34.50 84.25Q35.25 84 35.94 83.94Q36.63 83.88 37.25 83.75L37.25 83.75Q37.88 81 37.75 78.19Q37.63 75.38 37.25 72.50L37.25 72.50ZM38.63 83.38L38.63 83.38Q41 82.75 43.06 81.81Q45.13 80.88 46.63 79.63L46.63 79.63Q47.25 76.63 47 73.44Q46.75 70.25 45.25 66.75L45.25 66.75Q44 64.75 42.88 62.88Q41.75 61 40.63 59.38L40.63 59.38Q42.63 63.13 42.63 65.94Q42.63 68.75 40.38 70.63L40.38 70.63L40.25 70.75Q39.88 71 39.38 71.31Q38.88 71.63 38.38 71.88L38.38 71.88Q38.75 74.88 38.88 77.75Q39 80.63 38.63 83.38Z"/></svg>