<svg xmlns="http://www.w3.org/2000/svg" xmlns:xlink="http://www.w3.org/1999/xlink" width="128" height="128"><path fill="#000000" d="M64.50 78.38L64.50 78.38Q64.25 77.88 63.94 77.06Q63.63 76.25 63.50 75.75L63.50 75.75Q63.25 75.38 62.81 74.50Q62.38 73.63 62.13 73.38L62.13 73.38Q61.50 72.63 61.25 72.31Q61 72 60.88 71L60.88 71Q60.50 69.38 59.75 66.81Q59 64.25 58 62.13L58 62.13Q57.50 61.13 56.69 60.25Q55.88 59.38 55.13 58.63L55.13 58.63Q54.50 57.88 53.31 57Q52.13 56.13 51.88 56.25L51.88 56.25Q49.38 56.75 48.25 58.81Q47.13 60.88 45.88 62.88L45.88 62.88Q45.25 64 44.63 65Q44 66 43.38 67.25L43.38 67.25Q43 68.25 42.81 69.38Q42.63 70.50 41.75 71.50L41.75 71.50Q41 72.38 40.44 73.44Q39.88 74.50 39.38 75.63L39.38 75.63Q39.38 75.88 39.13 77.69Q38.88 79.50 38.75 80L38.75 80L38.75 80L43.63 79.63Q47.13 79.88 47.94 80.81Q48.75 81.75 54.13 81.38L54.13 81.38L65.50 81Q65.25 80.25 64.94 79.44Q64.63 78.63 64.50 78.38ZM97 1L97 1L31 1Q26.38 1 23.13 4.38Q19.88 7.75 19.88 12.63L19.88 12.63L19.88 38Q21 37.50 22.44 35.56Q23.88 33.63 24.50 33L24.50 33Q25.38 31.88 25.75 30.56Q26.13 29.25 26.50 28.38L26.50 28.38Q27.63 26.25 28.31 25Q29 23.75 31.50 23.75L31.50 23.75Q32.63 23.75 33.25 24.06Q33.88 24.38 34.63 25.50L34.63 25.50Q35.13 26.25 35.88 27.44Q36.63 28.63 37.13 29.63L37.13 29.63Q37.63 30.63 38.31 31.81Q39 33 39.25 33.25L39.25 33.25Q39.63 33.50 39.88 33.69Q40.13 33.88 40.38 33.88L40.38 33.88Q40.75 34.13 41.06 33.88Q41.38 33.63 41.63 33.50L41.63 33.50Q42 33.13 42.19 32.63Q42.38 32.13 42.75 31.38L42.75 31.38Q43.13 30.25 43.56 29.13Q44 28 44.38 27.50L44.38 27.50Q44.75 26.75 45.06 25.88Q45.38 25 45.88 24.50L45.88 24.50Q46.63 23.88 47.50 23.75Q48.38 23.63 48.63 23.50L48.63 23.50Q50.13 23.25 51 24Q51.88 24.75 52.63 25.50L52.63 25.50Q53.13 26 53.75 26.88Q54.38 27.75 54.75 29L54.75 29Q55.13 30 55.56 30.88Q56 31.75 56.25 32.25L56.25 32.25Q56.38 32.88 56.81 33.69Q57.25 34.50 57.50 35.63L57.50 35.63Q57.75 36.50 58.31 37.25Q58.88 38 59.13 38.38L59.13 38.38Q59.13 38.38 59.81 39.38Q60.50 40.38 62.88 41.38L62.88 41.38Q63.38 41.63 64.31 42Q65.25 42.38 65.88 42.50L65.88 42.50Q66.88 43 68 43Q69.13 43 70.38 42.75L70.38 42.75Q71.25 42.75 71.81 41.63Q72.38 40.50 72.88 39.38L72.88 39.38Q73.13 38.75 73.31 37.25Q73.50 35.75 73.75 35.25L73.75 35.25Q73.88 34.75 73.69 34.31Q73.50 33.88 73.88 33.38L73.88 33.38Q74.25 32.88 74.50 32.63Q74.75 32.38 74.88 31.75L74.88 31.75Q75.38 30.13 77.44 29.88Q79.50 29.63 81 29.63L81 29.63Q82.25 29.63 82.69 30.38Q83.13 31.13 85.25 30.63L85.25 30.63Q86.50 30.50 87.69 30.75Q88.88 31 90.13 31.38L90.13 31.38Q91.13 31.63 92.13 32.06Q93.13 32.50 93.75 33.25L93.75 33.25Q94.13 33.75 94.69 35.44Q95.25 37.13 94.25 37.25L94.25 37.25Q94.25 37.25 94.38 37.44Q94.50 37.63 94.63 37.75L94.63 37.75Q94.38 38.75 93.63 38.44Q92.88 38.13 92.38 38L92.38 38Q91.63 37.88 91.06 38Q90.50 38.13 89.75 38.50L89.75 38.50Q88.63 39 87.06 39.19Q85.50 39.38 84.50 40.38L84.50 40.38Q83.63 41.13 83.38 42.56Q83.13 44 82.75 45L82.75 45Q82.75 45 81.56 47.38Q80.38 49.75 77.88 51.63L77.88 51.63Q77.25 52.13 75.81 53.06Q74.38 54 71.63 54.38L71.63 54.38Q70.50 54.63 69.31 54.63Q68.13 54.63 66.88 54.63L66.88 54.63Q66.25 54.63 65.63 54.56Q65 54.50 64.38 54.50L64.38 54.50Q64 54.50 63.13 54.50Q62.25 54.50 62.38 54.63L62.38 54.63L62.13 55.13Q62.25 55.25 62.25 55.44Q62.25 55.63 62.25 55.75L62.25 55.75Q62.38 56 62.38 56.25Q62.38 56.50 62.38 56.75L62.38 56.75Q62.38 57.25 62.38 57.81Q62.38 58.38 62.38 59L62.38 59Q62.38 60.13 62.69 61.19Q63 62.25 63 63.38L63 63.38Q63.13 64.63 63.63 65.94Q64.13 67.25 64.75 68.25L64.75 68.25Q64.88 68.63 65.19 68.81Q65.50 69 65.63 69.50L65.63 69.50Q65.75 70 65.69 70.63Q65.63 71.25 65.75 71.88L65.75 71.88Q66.13 74.13 66.75 76.50Q67.38 78.88 68.38 80.88L68.38 80.88Q68.38 80.88 68.38 80.94Q68.38 81 68.38 81L68.38 81Q69.63 80.75 70.94 80.38Q72.25 80 73.88 79.75L73.88 79.75Q76.75 79.25 80.38 79.31Q84 79.38 86.63 79.13L86.63 79.13Q93.25 78.50 97.75 80.44Q102.25 82.38 108.13 81L108.13 81L108.13 12.63Q108.13 7.75 104.88 4.38Q101.63 1 97 1L97 1ZM64.13 55.63L64.13 55.63Q64 55.50 64.06 55.50Q64.13 55.50 64.13 55.63L64.13 55.63ZM40.50 66.13L40.50 66.13Q41 65 41.31 63.88Q41.63 62.75 42 61.75L42 61.75Q42.38 60.63 43 59.44Q43.63 58.25 44.63 57.75L44.63 57.75Q44.50 57.63 43.13 57.56Q41.75 57.50 41.25 57.38L41.25 57.38Q40.50 57.38 39.94 57.25Q39.38 57.13 38.75 57L38.75 57L39 57.13Q37.88 56.88 36.75 56.63Q35.63 56.38 34.63 56.13L34.63 56.13Q34 56 32.44 55.44Q30.88 54.88 30.38 54.63L30.38 54.63Q29.25 54.13 28.50 53.19Q27.75 52.25 26.88 52.38L26.88 52.38Q26.38 52.50 25.88 52.69Q25.38 52.88 25 53.50L25 53.50Q24.75 53.88 24.63 54.56Q24.50 55.25 24.25 55.75L24.25 55.75Q24.13 56.38 23.75 56.94Q23.38 57.50 23.13 58L23.13 58Q22.50 59.13 21.56 60.06Q20.63 61 20.25 62L20.25 62Q20.13 62.25 20 62.44Q19.88 62.63 19.88 62.88L19.88 62.88L19.88 63L19.88 78.38Q20.38 78.50 20.94 78.63Q21.50 78.75 22.25 79L22.25 79Q26.88 80.25 29.25 80.44Q31.63 80.63 36.25 80.13L36.25 80.13L36.88 80Q37.13 79.25 37.44 77.31Q37.75 75.38 38 74.50L38 74.50Q38.13 74 38.31 73.44Q38.50 72.88 38.63 72.25L38.63 72.25Q38.75 71.63 38.69 71.06Q38.63 70.50 38.63 70L38.63 70Q38.50 68.75 39.25 68Q40 67.25 40.50 66.13L40.50 66.13ZM13.88 127L13.88 127Q12.38 127 10.94 126.63Q9.50 126.25 8.25 125.50L8.25 125.50Q7 124.75 5.88 123.69Q4.75 122.63 3.88 121.13L3.88 121.13Q2.88 119.75 2.19 118Q1.50 116.25 1 114.25L1 114.25Q0.50 112.25 0.25 109.94Q0 107.63 0 105L0 105Q0 102.38 0.25 100.13Q0.50 97.88 1 95.88L1 95.88Q1.50 93.75 2.19 92.06Q2.88 90.38 3.88 89L3.88 89Q4.75 87.63 5.88 86.63Q7 85.63 8.25 84.88L8.25 84.88Q9.50 84.13 10.94 83.75Q12.38 83.38 13.88 83.38L13.88 83.38Q15.50 83.38 16.88 83.75Q18.25 84.13 19.50 84.88L19.50 84.88Q20.88 85.63 21.94 86.69Q23 87.75 24 89.13L24 89.13Q24.88 90.50 25.56 92.19Q26.25 93.88 26.75 95.88L26.75 95.88Q27.25 97.88 27.50 100.19Q27.75 102.50 27.75 105L27.75 105Q27.75 107.63 27.50 109.94Q27.25 112.25 26.75 114.25L26.75 114.25Q26.25 116.25 25.56 118Q24.88 119.75 24 121.13L24 121.13Q23 122.63 21.94 123.69Q20.88 124.75 19.50 125.50L19.50 125.50Q18.25 126.25 16.88 126.63Q15.50 127 13.88 127L13.88 127ZM13.88 118.88L13.88 118.88Q15.50 118.88 16.75 117.94Q18 117 18.88 115.13L18.88 115.13Q19.75 113.25 20.25 110.75Q20.75 108.25 20.75 105L20.75 105Q20.75 101.88 20.25 99.38Q19.75 96.88 18.88 95.13L18.88 95.13Q18 93.38 16.75 92.50Q15.50 91.63 13.88 91.63L13.88 91.63Q12.38 91.63 11.13 92.50Q9.88 93.38 8.88 95.13L8.88 95.13Q8 96.88 7.56 99.38Q7.13 101.88 7.13 105L7.13 105Q7.13 108.25 7.56 110.75Q8 113.25 8.88 115.13L8.88 115.13Q9.88 117 11.13 117.94Q12.38 118.88 13.88 118.88L13.88 118.88ZM30.75 105.50L30.75 105.50Q30.75 102.88 31.06 100.56Q31.38 98.25 31.88 96.13L31.88 96.13Q32.38 94.13 33.13 92.38Q33.88 90.63 34.88 89.25L34.88 89.25Q35.75 87.75 36.88 86.69Q38 85.63 39.25 84.88L39.25 84.88Q40.50 84.13 41.81 83.75Q43.13 83.38 44.63 83.38L44.63 83.38Q45.88 83.38 47.13 83.81Q48.38 84.25 49.50 85L49.50 85Q50.50 85.88 51.44 86.81Q52.38 87.75 53.13 88.88L53.13 88.88L53.13 88.88L49.50 94.75Q49 94 48.44 93.44Q47.88 92.88 47.25 92.38L47.25 92.38Q46.75 92 46.06 91.81Q45.38 91.63 44.63 91.63L44.63 91.63Q43.88 91.63 43.19 91.81Q42.50 92 41.88 92.50L41.88 92.50Q41.13 93 40.56 93.69Q40 94.38 39.50 95.25L39.50 95.25Q39.13 96.13 38.69 97.19Q38.25 98.25 38 99.50L38 99.50Q37.75 100.75 37.63 102.19Q37.50 103.63 37.50 105.13L37.50 105.13Q37.50 108.38 37.94 110.94Q38.38 113.50 39.38 115.25L39.38 115.25Q40.38 117 41.63 117.94Q42.88 118.88 44.50 118.88L44.50 118.88Q45.38 118.88 46.13 118.63Q46.88 118.38 47.63 117.75L47.63 117.75Q48.25 117.25 48.88 116.56Q49.50 115.88 50 115.13L50 115.13L53.63 120.88Q52.63 122.38 51.63 123.56Q50.63 124.75 49.38 125.50L49.38 125.50Q48.25 126.25 47 126.63Q45.75 127 44.38 127L44.38 127Q43 127 41.69 126.69Q40.38 126.38 39.13 125.63L39.13 125.63Q37.88 125 36.81 123.94Q35.75 122.88 34.75 121.50L34.75 121.50Q33.88 120.25 33.13 118.56Q32.38 116.88 31.88 114.75L31.88 114.75Q31.25 112.75 31 110.44Q30.75 108.13 30.75 105.50L30.75 105.50ZM56.50 117.25L56.50 117.25Q56.50 114.75 57.25 112.75Q58 110.75 59.50 109.25L59.50 109.25Q61 107.88 63.31 106.88Q65.63 105.88 68.88 105.38L68.88 105.38Q68.88 104.38 68.63 103.50Q68.38 102.63 68 102L68 102Q67.63 101.38 67 101.06Q66.38 100.75 65.50 100.75L65.50 100.75Q64.75 100.75 64.06 100.94Q63.38 101.13 62.63 101.50L62.63 101.50Q61.88 101.88 61.13 102.44Q60.38 103 59.63 103.63L59.63 103.63L57.25 97.38Q58.38 96.38 59.50 95.63Q60.63 94.88 61.75 94.25L61.75 94.25Q62.88 93.75 64.13 93.44Q65.38 93.13 66.63 93.13L66.63 93.13Q66.63 93.13 66.63 93.13Q66.63 93.13 66.75 93.13L66.75 93.13L66.75 93.13Q68.88 93.13 70.44 94Q72 94.88 73.13 96.63L73.13 96.63Q74.25 98.38 74.81 101.19Q75.38 104 75.38 107.75L75.38 107.75L75.38 126.25L70.13 126.25L69.63 122.88L69.50 122.88Q68.75 123.88 68 124.63Q67.25 125.38 66.50 125.88L66.50 125.88Q65.75 126.50 64.88 126.75Q64 127 63.13 127L63.13 127Q62.25 127 61.63 126.81Q61 126.63 60.38 126.25L60.38 126.25Q59.75 125.88 59.25 125.38Q58.75 124.88 58.38 124.25L58.38 124.25Q57.88 123.50 57.56 122.75Q57.25 122 57 121.13L57 121.13Q56.75 120.25 56.63 119.25Q56.50 118.25 56.50 117.25L56.50 117.25ZM62.75 116.50L62.75 116.50Q62.75 117.25 62.94 117.88Q63.13 118.50 63.38 118.88L63.38 118.88Q63.75 119.25 64.25 119.44Q64.75 119.63 65.25 119.63L65.25 119.63Q65.88 119.63 66.38 119.44Q66.88 119.25 67.25 118.88L67.25 118.88Q67.63 118.50 68.06 118Q68.50 117.50 68.88 116.88L68.88 116.88L68.88 111.13Q67.13 111.50 65.94 112.06Q64.75 112.63 64.13 113.25L64.13 113.25Q63.38 114 63.06 114.81Q62.75 115.63 62.75 116.50L62.75 116.50ZM79.38 127L79.38 93.88L84.88 93.88L85.38 98.13L85.50 98.13Q86.25 97.13 87 96.25Q87.75 95.38 88.63 94.63L88.63 94.63Q89.38 93.88 90.38 93.50Q91.38 93.13 92.50 93.13L92.50 93.13Q93.75 93.13 94.69 93.44Q95.63 93.75 96.38 94.50L96.38 94.50Q97.13 95.25 97.75 96.25Q98.38 97.25 98.75 98.63L98.75 98.63Q99.50 97.50 100.31 96.50Q101.13 95.50 102 94.75L102 94.75Q102.88 93.88 103.88 93.50Q104.88 93.13 106 93.13L106 93.13Q107.88 93.13 109.19 94Q110.50 94.88 111.38 96.63L111.38 96.63Q112.25 98.50 112.69 100.94Q113.13 103.38 113.13 106.50L113.13 106.50L113.13 127L106.38 127L106.38 107.75Q106.38 105.88 106.19 104.69Q106 103.50 105.63 102.75L105.63 102.75Q105.38 102.13 104.81 101.81Q104.25 101.50 103.50 101.50L103.50 101.50Q102.63 101.50 101.69 102.25Q100.75 103 99.63 104.63L99.63 104.63L99.63 127L92.88 127L92.88 107.75Q92.88 105.88 92.69 104.69Q92.50 103.50 92.13 102.75L92.13 102.75Q91.88 102.13 91.31 101.81Q90.75 101.50 90 101.50L90 101.50Q89.13 101.50 88.19 102.25Q87.25 103 86.13 104.63L86.13 104.63L86.13 127L79.38 127ZM117.13 116.38L117.13 81.50L124.13 81.50L124.13 116.75Q124.13 117.50 124.19 118Q124.25 118.50 124.50 118.88L124.50 118.88Q124.63 119.13 124.88 119.25Q125.13 119.38 125.25 119.38L125.25 119.38L125.75 119.38Q125.75 119.38 125.88 119.38Q126 119.38 126.13 119.25L126.13 119.25L127 126.25Q126.75 126.38 126.38 126.56Q126 126.75 125.63 126.75L125.63 126.75L125.63 126.75Q125.13 126.88 124.63 126.94Q124.13 127 123.50 127L123.50 127Q122.63 127 121.88 126.81Q121.13 126.63 120.50 126.25L120.50 126.25Q119.88 125.88 119.38 125.31Q118.88 124.75 118.50 124.13L118.50 124.13Q118.13 123.38 117.88 122.56Q117.63 121.75 117.38 120.75L117.38 120.75Q117.25 119.88 117.19 118.75Q117.13 117.63 117.13 116.38L117.13 116.38Z"/></svg>