<svg xmlns="http://www.w3.org/2000/svg" xmlns:xlink="http://www.w3.org/1999/xlink" width="128" height="128"><path fill="#000000" d="M65 115.38L65 115.38Q64.63 114.63 64.25 113.50Q63.88 112.38 63.63 111.75L63.63 111.75Q63.38 111.25 62.69 110.06Q62 108.88 61.63 108.38L61.63 108.38Q60.75 107.38 60.44 106.94Q60.13 106.50 59.88 105.25L59.88 105.25Q59.38 102.88 58.31 99.31Q57.25 95.75 55.88 93L55.88 93Q55 91.50 53.94 90.25Q52.88 89 51.75 87.88L51.75 87.88Q50.75 87 49.13 85.81Q47.50 84.63 47.13 84.63L47.13 84.63Q43.50 85.38 41.88 88.25Q40.25 91.13 38.63 94L38.63 94Q37.63 95.50 36.75 96.88Q35.88 98.25 35.13 99.88L35.13 99.88Q34.38 101.38 34.13 102.94Q33.88 104.50 32.75 105.88L32.75 105.88Q31.63 107 30.81 108.44Q30 109.88 29.50 111.50L29.50 111.50L29.38 111.63Q29.25 112 29 114.44Q28.75 116.88 28.38 117.63L28.38 117.63L35.50 117.25Q40.38 117.63 41.50 118.88Q42.63 120.13 50.25 119.63L50.25 119.63L66.38 119.13Q66.13 118 65.75 117.06Q65.38 116.13 64.88 115.25L64.88 115.25L65 115.38ZM111.75 8.25L111.75 8.25L16.25 8.25Q9.50 8.25 4.81 12.94Q0.13 17.63 0.13 24.38L0.13 24.38L0.13 59.50Q1.88 58.88 3.88 56.13Q5.88 53.38 6.75 52.50L6.75 52.50Q8.13 51 8.63 49.19Q9.13 47.38 9.88 46.13L9.88 46.13Q11.38 43.25 12.38 41.44Q13.38 39.63 16.88 39.63L16.88 39.63Q18.50 39.63 19.44 40.13Q20.38 40.63 21.38 42.13L21.38 42.13Q22.13 43.13 23.25 44.88Q24.38 46.63 25 47.88L25 47.88Q25.75 49.38 26.75 51Q27.75 52.63 28.25 53L28.25 53Q28.63 53.25 29 53.50Q29.38 53.75 29.75 53.88L29.75 53.88Q30.25 54.13 30.75 53.81Q31.25 53.50 31.63 53.25L31.63 53.25Q32.13 52.88 32.38 52.13Q32.63 51.38 33.13 50.25L33.13 50.25Q33.75 48.75 34.44 47.19Q35.13 45.63 35.50 45L35.50 45Q36.13 43.88 36.56 42.69Q37 41.50 37.75 40.88L37.75 40.88Q38.75 40 40 39.75Q41.25 39.50 41.63 39.50L41.63 39.50Q43.88 39 45.13 40.13Q46.38 41.25 47.50 42.13L47.50 42.13Q48.13 42.88 49 44.13Q49.88 45.38 50.63 47L50.63 47Q51.25 48.38 51.81 49.56Q52.38 50.75 52.75 51.50L52.75 51.50Q53 52.25 53.56 53.44Q54.13 54.63 54.50 56.13L54.50 56.13Q55 57.38 55.75 58.38Q56.50 59.38 56.88 60.13L56.88 60.13Q56.88 60.13 57.88 61.44Q58.88 62.75 62.38 64.25L62.38 64.25Q63.25 64.63 64.31 65Q65.38 65.38 66.50 65.63L66.50 65.63L66.75 65.75Q68.25 66.25 69.81 66.31Q71.38 66.38 73.25 66.13L73.25 66.13Q74.63 66.13 75.44 64.56Q76.25 63 76.88 61.38L76.88 61.38Q77.25 60.50 77.56 58.44Q77.88 56.38 78.13 55.63L78.13 55.63Q78.38 54.88 78.13 54.31Q77.88 53.75 78.38 53L78.38 53Q78.88 52.38 79.25 52Q79.63 51.63 79.88 50.75L79.88 50.75Q80.50 48.63 83.50 48.25Q86.50 47.88 88.63 47.88L88.63 47.88Q90.50 47.88 91.13 48.94Q91.75 50 94.75 49.38L94.75 49.38Q96.50 49 98.25 49.44Q100 49.88 101.75 50.38L101.75 50.38Q103.38 50.75 104.75 51.31Q106.13 51.88 107 52.88L107 52.88Q107.63 53.50 108.38 55.88Q109.13 58.25 107.75 58.38L107.75 58.38Q107.88 58.50 108 58.75Q108.13 59 108.38 59.13L108.38 59.13Q108 60.50 106.94 60.06Q105.88 59.63 105 59.50L105 59.50Q104 59.25 103.19 59.44Q102.38 59.63 101.38 60.13L101.38 60.13Q99.63 60.88 97.38 61.13Q95.13 61.38 93.63 62.75L93.63 62.75Q92.38 63.75 92.06 65.75Q91.75 67.75 91.13 69L91.13 69Q91.13 69 89.38 72.31Q87.63 75.63 84.13 78.25L84.13 78.25Q83.13 79 81.13 80.25Q79.13 81.50 75.13 82.13L75.13 82.13Q73.38 82.38 71.69 82.44Q70 82.50 68.13 82.38L68.13 82.38Q67.25 82.38 66.38 82.38Q65.50 82.38 64.63 82.38L64.63 82.38Q64.13 82.38 62.88 82.31Q61.63 82.25 61.63 82.50L61.63 82.50L61.38 83.13Q61.38 83.38 61.44 83.56Q61.50 83.75 61.50 84L61.50 84Q61.63 84.38 61.63 84.75Q61.63 85.13 61.75 85.50L61.75 85.50Q61.75 86.25 61.75 87Q61.75 87.75 61.75 88.50L61.75 88.50Q61.88 90.13 62.25 91.56Q62.63 93 62.75 94.63L62.75 94.63Q62.88 96.38 63.56 98.19Q64.25 100 65.13 101.38L65.13 101.38Q65.50 101.88 65.94 102.13Q66.38 102.38 66.50 103.13L66.50 103.13Q66.75 103.88 66.69 104.69Q66.63 105.50 66.75 106.38L66.75 106.38Q67.13 109.50 68.13 112.75Q69.13 116 70.50 119L70.50 119L70.50 119Q72.25 118.75 74.13 118.19Q76 117.63 78.38 117.38L78.38 117.38Q82.63 116.75 87.88 116.75Q93.13 116.75 96.88 116.38L96.88 116.38Q106.50 115.50 112.94 118.25Q119.38 121 128 119L128 119L128 24.38Q128 17.63 123.25 12.94Q118.50 8.25 111.75 8.25L111.75 8.25ZM64.13 83.88L64.13 83.88Q64.13 83.75 64.13 83.75Q64.13 83.75 64.13 83.88ZM29.63 98.63L29.63 98.63Q30.25 97.13 30.75 95.56Q31.25 94 31.75 92.50L31.75 92.50Q32.38 91.13 33.19 89.38Q34 87.63 35.50 86.88L35.50 86.88Q35.25 86.75 33.25 86.63Q31.25 86.50 30.50 86.50L30.50 86.50Q29.75 86.38 28.94 86.25Q28.13 86.13 27.25 86L27.25 86Q25.13 85.63 23.44 85.31Q21.75 85 20.25 84.63L20.25 84.63L21.13 84.75Q20.25 84.50 18 83.75Q15.75 83 15.13 82.75L15.13 82.75Q13.63 82 12.50 80.63Q11.38 79.25 10.13 79.50L10.13 79.50Q9.38 79.63 8.69 79.94Q8 80.25 7.63 81L7.63 81Q7.13 81.63 6.94 82.56Q6.75 83.50 6.50 84.25L6.50 84.25Q6.13 85 5.63 85.81Q5.13 86.63 4.75 87.50L4.75 87.50Q3.88 88.88 2.56 90.19Q1.25 91.50 0.50 93L0.50 93Q0.38 93.25 0.31 93.63Q0.25 94 0.13 94.25L0.13 94.25L0.13 116Q0.88 116.13 1.69 116.31Q2.50 116.50 3.38 116.75L3.38 116.75Q10.13 118.50 13.44 118.81Q16.75 119.13 23.38 118.38L23.38 118.38L24.25 118.25Q24.63 117.13 25.06 114.38Q25.50 111.63 25.88 110.63L25.88 110.63Q26.13 109.75 26.44 109Q26.75 108.25 26.88 107.50L26.88 107.50Q27 106.63 26.88 105.81Q26.75 105 26.75 104.25L26.75 104.25Q26.63 102.38 27.75 101.31Q28.88 100.25 29.63 98.63L29.63 98.63Z"/></svg>