<svg xmlns="http://www.w3.org/2000/svg" xmlns:xlink="http://www.w3.org/1999/xlink" width="128" height="128"><path fill="#000000" d="M62.38 2.13L66.88 2.13Q68.50 2.25 70.19 2.50Q71.88 2.75 73.50 3.13L73.50 3.13Q80 4.63 85.63 7.75Q91.25 10.88 96.25 15.38L96.25 15.38Q100.75 19.38 103.69 24.44Q106.63 29.50 108.25 35.38L108.25 35.38Q108.63 36.63 109.25 37.50Q109.88 38.38 111.25 38.63L111.25 38.63Q112.13 38.75 112.31 39.44Q112.50 40.13 112.50 40.88L112.50 40.88Q112.50 43.38 112.50 45.88Q112.50 48.38 112.50 50.88L112.50 50.88Q112.50 52.38 112.50 54Q112.50 55.63 112.50 57.13L112.50 57.13Q112.50 58.50 112 59.06Q111.50 59.63 110.13 59.63L110.13 59.63Q109.38 59.63 108.94 60Q108.50 60.38 108.38 61.13L108.38 61.13Q107.75 63.25 107 65.13Q106.25 67 105.38 68.75L105.38 68.75L105.50 68.50Q102.38 75 97.50 79.94Q92.63 84.88 86.38 88.50L86.38 88.50Q86.13 88.63 85.81 88.81Q85.50 89 85.25 89.13L85.25 89.13Q84.25 89.63 84.13 89.94Q84 90.25 84.38 91.25L84.38 91.25Q84.88 92.50 85.75 93.31Q86.63 94.13 87.88 94.50L87.88 94.50L87.88 94.50Q88.88 94.88 90 95.06Q91.13 95.25 92.13 95.63L92.13 95.63Q92.50 95.63 92.81 95.75Q93.13 95.88 93.38 96.13L93.38 96.13Q93.13 96.38 92.81 96.44Q92.50 96.50 92.13 96.50L92.13 96.50Q90.75 96.75 89.38 97.13Q88 97.50 86.50 97.38L86.50 97.38Q86.50 97.38 86.44 97.38Q86.38 97.38 86.38 97.38L86.38 97.38Q85.75 97.38 85.25 97.31Q84.75 97.25 84.25 97L84.25 97L84.25 97Q83.88 96.88 83.69 97Q83.50 97.13 83.38 97.63L83.38 97.63Q83.13 98.75 83.06 99.94Q83 101.13 82.88 102.38L82.88 102.38L82.88 102.38Q82.88 104.75 82.69 107.13Q82.50 109.50 82.38 111.88L82.38 111.88Q82.25 114.25 82.63 114.88Q83 115.50 85.25 116.25L85.25 116.25Q86.38 116.63 87.44 117Q88.50 117.38 89.63 117.75L89.63 117.75Q89.88 117.88 90.13 117.94Q90.38 118 90.63 118.38L90.63 118.38Q90.38 118.63 90.19 118.56Q90 118.50 89.88 118.50L89.88 118.50Q87.88 118.50 86 118.50Q84.13 118.50 82.25 118.50L82.25 118.50Q80.13 118.50 79.06 117.44Q78 116.38 77.88 114.38L77.88 114.38Q77.63 111.38 77.38 108.44Q77.13 105.50 76.88 102.63L76.88 102.63Q76.88 102.38 76.81 102.19Q76.75 102 76.75 101.88L76.75 101.88L76.75 102Q76.50 103.75 76.44 105.38Q76.38 107 76.38 108.63L76.38 108.63Q76.25 110.75 76.25 112.75Q76.25 114.75 76.25 116.88L76.25 116.88Q76.25 117.88 76.63 118.44Q77 119 78 119.38L78 119.38Q79.38 119.88 80.81 120.38Q82.25 120.88 83.75 120.75L83.75 120.75Q84.38 120.63 84.88 120.88Q85.38 121.13 85.88 121.38L85.88 121.38Q86 121.38 86.13 121.50Q86.25 121.63 86.25 121.75L86.25 121.75Q86.13 121.88 86 121.94Q85.88 122 85.75 122L85.75 122Q83.25 121.88 80.69 122.06Q78.13 122.25 75.63 121.88L75.63 121.88Q74.38 121.63 73.50 120.94Q72.63 120.25 72.25 119L72.25 119Q72 117.75 71.88 116.56Q71.75 115.38 71.63 114.13L71.63 114.13Q71.38 111.75 71.25 109.31Q71.13 106.88 71 104.50L71 104.50Q71 104.38 71 104.38Q71 104.38 71 104.38L71 104.38Q71 104.13 70.94 103.94Q70.88 103.75 70.63 103.63L70.63 103.63L70.63 103.63Q70.50 103.75 70.50 104Q70.50 104.25 70.50 104.50L70.50 104.50Q70.50 108.25 70.50 111.94Q70.50 115.63 70.50 119.38L70.50 119.38Q70.50 120.88 71.06 121.69Q71.63 122.50 73.13 123L73.13 123Q75 123.75 76.88 124.25Q78.75 124.75 80.63 125.25L80.63 125.25Q81.13 125.38 81.50 125.50Q81.88 125.63 81.88 126.25L81.88 126.25L72.38 126.25Q72.13 126.13 71.94 126.13Q71.75 126.13 71.50 126.13L71.50 126.13Q68.88 125.63 67.56 124.44Q66.25 123.25 65.63 120.63L65.63 120.63Q65.50 120.25 65.44 119.81Q65.38 119.38 65.25 119L65.25 119Q65 117.50 64.69 116.13Q64.38 114.75 64.13 113.25L64.13 113.25Q63.88 113.75 63.69 114.25Q63.50 114.75 63.38 115.25L63.38 115.25L63.38 115.25Q63 116.75 62.75 118.31Q62.50 119.88 62.13 121.50L62.13 121.50Q61.63 123.38 60.44 124.44Q59.25 125.50 57.25 125.88L57.25 125.88Q56.88 126 56.44 126.06Q56 126.13 55.63 126.25L55.63 126.25L46 126.25Q46.25 125.50 46.81 125.38Q47.38 125.25 47.88 125.13L47.88 125.13Q49.75 124.63 51.56 124.13Q53.38 123.63 55.25 123L55.25 123Q56 122.63 56.56 121.94Q57.13 121.25 57.25 120.25L57.25 120.25L57.25 120.25Q57.50 118.63 57.38 116.94Q57.25 115.25 57.13 113.63L57.13 113.63Q57.13 113.13 57 112.69Q56.88 112.25 56.75 111.88L56.75 111.88L56.75 112Q56.63 112.13 56.50 112.44Q56.38 112.75 56.38 113L56.38 113L56.38 113Q56.25 114.13 56.19 115.31Q56.13 116.50 56 117.63L56 117.63Q55.88 119.25 55 120.31Q54.13 121.38 52.50 121.75L52.50 121.75Q52.13 121.88 51.63 121.94Q51.13 122 50.63 122L50.63 122L50.63 122Q48.38 122 46.25 122Q44.13 122 42 122L42 122Q41.75 122 41.56 122Q41.38 122 41.13 121.63L41.13 121.63Q41.88 121.25 42.63 121Q43.38 120.75 44.13 120.63L44.13 120.63L44.25 120.63Q45.50 120.50 46.75 120.25Q48 120 49.25 119.63L49.25 119.63L49 119.75Q50.63 119.25 51.19 118.56Q51.75 117.88 51.63 116.13L51.63 116.13Q51.63 112.50 51.44 108.94Q51.25 105.38 51.38 101.75L51.38 101.75Q51.38 101 51.38 100.31Q51.38 99.63 51.38 98.88L51.38 98.88Q51.25 99.38 51.19 99.88Q51.13 100.38 51.13 100.88L51.13 100.88Q51 104.25 50.75 107.63Q50.50 111 50.13 114.38L50.13 114.38Q49.88 116.38 48.88 117.38Q47.88 118.38 46 118.63L46 118.63Q44.25 118.75 42.50 118.63Q40.75 118.50 39.13 118.50L39.13 118.50Q38.63 118.50 38.19 118.44Q37.75 118.38 37.38 118.13L37.38 118.13Q37.50 117.88 37.69 117.81Q37.88 117.75 38.13 117.75L38.13 117.75Q39.50 117.25 40.94 116.81Q42.38 116.38 43.75 115.88L43.75 115.88Q44.75 115.63 45.19 115Q45.63 114.38 45.63 113.38L45.63 113.38Q45.63 113 45.63 112.75Q45.63 112.50 45.63 112.13L45.63 112.13Q45.38 109.38 45.25 106.63Q45.13 103.88 45 101L45 101Q45 100.38 44.94 99.75Q44.88 99.13 44.88 98.50L44.88 98.50L44.88 98.63Q44.75 97.88 44.38 97.50Q44 97.13 43.38 97.25L43.38 97.25Q41.38 97.63 39.50 97.31Q37.63 97 35.75 96.50L35.75 96.50Q35.50 96.50 35.25 96.44Q35 96.38 34.75 96.13L34.75 96.13Q35.13 95.88 35.50 95.75Q35.88 95.63 36.25 95.63L36.25 95.63Q37.38 95.38 38.38 95.06Q39.38 94.75 40.38 94.50L40.38 94.50L40.13 94.50Q41.38 94.13 42.31 93.25Q43.25 92.38 43.75 91.25L43.75 91.25L43.75 91.13Q44.13 90.38 44 89.88Q43.88 89.38 43.13 89.13L43.13 89.13Q37.63 86.50 33.31 82.50Q29 78.50 25.63 73.50L25.63 73.50Q23.75 70.75 22.31 67.63Q20.88 64.50 19.88 61.13L19.88 61.13L19.88 60.88Q19.63 59.88 19.19 59.63Q18.75 59.38 17.88 59.50L17.88 59.50Q16.63 59.75 16.13 59.44Q15.63 59.13 15.13 58.13L15.13 58.13L15.13 40Q15.63 38.88 16.13 38.56Q16.63 38.25 17.88 38.38L17.88 38.38Q18.75 38.38 19 38.19Q19.25 38 19.50 37.13L19.50 37.13Q21 31.25 23.75 26.06Q26.50 20.88 30.63 16.50L30.63 16.50Q35.75 11.25 42 8.06Q48.25 4.88 55.25 3.13L55.25 3.13Q57 2.75 58.81 2.56Q60.63 2.38 62.38 2.13L62.38 2.13ZM108 48.38L108 48.38Q108 48.25 108 48.13Q108 48 108 47.88L108 47.88Q108 46.75 107.94 45.63Q107.88 44.50 107.75 43.38L107.75 43.38L107.75 43.50Q107.75 42.50 107.56 41.63Q107.38 40.75 107.25 39.88L107.25 39.88L107.25 40.13Q106.13 34.50 103.88 29.63L103.88 29.63Q101.63 24.75 98.31 20.69Q95 16.63 90.75 13.38L90.75 13.38Q86.38 10.25 81.13 7.75L81.13 7.75Q75.13 5 68.75 4.44Q62.38 3.88 56 5.13L56 5.13Q49.63 6.38 44.38 8.88L44.38 8.88Q39.13 11.38 34.94 15.06Q30.75 18.75 27.63 23.50L27.63 23.50Q24.38 28.38 22.13 34.38L22.13 34.38Q20.50 38.88 20.13 43.63Q19.75 48.38 20.25 53.25L20.25 53.25Q20.63 57.13 21.63 60.63Q22.63 64.13 24.25 67.38L24.25 67.38L24.13 67.13Q26.38 71.88 29.63 75.75Q32.88 79.63 36.88 83L36.88 83Q38.13 84 39.56 84.94Q41 85.88 42.50 86.63L42.50 86.63L42.75 86.75Q43.63 87.13 43.81 87Q44 86.88 44 86L44 86Q44 85.38 44 84.75Q44 84.13 43.88 83.50L43.88 83.50Q43.38 79.50 43.25 75.50Q43.13 71.50 43 67.63L43 67.63Q43 67.50 43 67.50Q43 67.50 43 67.50L43 67.50Q43 67 42.75 66.50Q42.50 66 42.13 65.75L42.13 65.75L42.13 65.75Q40.63 64.75 39.38 63.44Q38.13 62.13 37.38 60.50L37.38 60.50Q35.50 56.75 36.19 51.94Q36.88 47.13 41.50 43.88L41.50 43.88Q42 43.50 42.31 43.06Q42.63 42.63 42.50 42L42.50 42Q42.50 41.88 42.50 41.75Q42.50 41.63 42.50 41.38L42.50 41.38Q42.50 41 42.56 40.50Q42.63 40 42.75 39.63L42.75 39.63L42.75 39.63Q43.38 35 45.63 31.38Q47.88 27.75 51.63 25L51.63 25Q54.25 23.13 57.19 22.06Q60.13 21 63.38 20.88L63.38 20.88Q65.25 20.88 67.13 21.25Q69 21.63 70.75 22.25L70.75 22.25Q77 24 81.25 29.50Q85.50 35 85.50 41.25L85.50 41.25Q85.50 41.38 85.50 41.44Q85.50 41.50 85.50 41.50L85.50 41.50Q85.50 42.38 85.88 43.06Q86.25 43.75 86.88 44.25L86.88 44.25L86.88 44.25Q88.63 45.63 89.94 47.44Q91.25 49.25 91.75 51.63L91.75 51.63Q92.63 55.75 91.38 59.25Q90.13 62.75 86.63 65.25L86.63 65.25Q85.63 66 85.25 66.88Q84.88 67.75 84.88 68.88L84.88 68.88Q85 69 84.94 69.19Q84.88 69.38 84.88 69.63L84.88 69.63Q84.88 71.38 84.75 73.25Q84.63 75.13 84.63 77L84.63 77Q84.50 79.25 84.19 81.50Q83.88 83.75 84 86.13L84 86.13Q84 86.88 84.13 87Q84.25 87.13 85 86.75L85 86.75Q88.75 84.88 91.81 82.44Q94.88 80 97.38 77L97.38 77L97.38 76.88Q102.50 70.75 105.31 63.75Q108.13 56.75 108 48.38L108 48.38ZM48.88 64.75L48.88 64.75Q49 64.75 49 64.75Q49 64.75 49 64.75L49 64.75Q51.75 64.75 54.06 63.38Q56.38 62 57.63 59.88L57.63 59.88L57.63 59.75Q58.38 58.63 58.69 57.38Q59 56.13 59 54.75L59 54.75Q59 53.38 58.69 52.06Q58.38 50.75 57.75 49.63L57.75 49.63L57.75 49.75Q56.38 47.50 54.13 46.13Q51.88 44.75 49 44.75L49 44.75Q49 44.75 49 44.75Q49 44.75 49 44.75L49 44.75L49 44.75Q44.75 44.63 41.81 47.50Q38.88 50.38 38.88 54.38L38.88 54.38Q38.88 58.88 41.69 61.81Q44.50 64.75 48.88 64.75ZM78.88 64.75L78.88 64.75Q83.13 64.75 86 61.88Q88.88 59 88.88 54.75L88.88 54.75Q88.88 50.63 86 47.69Q83.13 44.75 79 44.75L79 44.75Q74.88 44.75 71.88 47.63Q68.88 50.50 68.88 54.63L68.88 54.63Q68.88 58.88 71.75 61.81Q74.63 64.75 78.88 64.75L78.88 64.75ZM71.25 74.75L71.25 74.75Q70.50 75.25 69.69 75.75Q68.88 76.25 68 76.75L68 76.75Q65.88 77.75 63.88 77.69Q61.88 77.63 59.88 76.50L59.88 76.50Q59.25 76.13 58.63 75.69Q58 75.25 57.50 74.88L57.50 74.88Q57.25 74.75 57.06 74.56Q56.88 74.38 56.63 74.63L56.63 74.63Q56.50 74.75 56.56 74.94Q56.63 75.13 56.63 75.38L56.63 75.38Q56.75 76.13 56.88 76.81Q57 77.50 57.13 78.25L57.13 78.25Q57.25 80.38 58.19 82.06Q59.13 83.75 60.88 85L60.88 85Q61.50 85.50 62.31 85.75Q63.13 86 64 86L64 86Q64.25 86 64.50 86Q64.75 86 65 85.88L65 85.88L65 85.88Q67.25 85.50 68.88 83.75Q70.50 82 70.88 79.63L70.88 79.63Q71 78.63 71 77.56Q71 76.50 71.38 75.50L71.38 75.50Q71.38 75.38 71.44 75.31Q71.50 75.25 71.50 75.25L71.50 75.25Q71.50 75 71.44 74.94Q71.38 74.88 71.25 74.75L71.25 74.75L71.25 74.75ZM25.88 49.25L25.88 49.25Q25.88 45 26.50 41.25Q27.13 37.50 28.63 34L28.63 34Q31.13 28.38 35 24.06Q38.88 19.75 44 16.50L44 16.50Q44.25 16.38 44.50 16.31Q44.75 16.25 45 16.25L45 16.25Q45.50 16.25 45.81 16.44Q46.13 16.63 46.38 16.88L46.38 16.88L46.50 16.88Q46.63 17.13 46.63 17.31Q46.63 17.50 46.50 17.75L46.50 17.75Q46.13 18.63 45.50 19.31Q44.88 20 44 20.38L44 20.38L44 20.38Q39.88 22.88 36.88 26.44Q33.88 30 31.88 34.38L31.88 34.38Q30.25 37.38 29.44 41Q28.63 44.63 28.63 48.50L28.63 48.50Q28.63 48.75 28.63 49.13Q28.63 49.50 28.63 49.88L28.63 49.88L28.63 49.75Q28.88 54.88 30.38 59.50Q31.88 64.13 34.88 68.38L34.88 68.38Q35.25 68.75 35.50 69.19Q35.75 69.63 35.75 70.13L35.75 70.13L35.75 70.25Q35.88 70.50 35.94 70.81Q36 71.13 35.63 71.38L35.63 71.38Q35.50 71.50 35.25 71.63Q35 71.75 34.63 71.75L34.63 71.75Q34.50 71.75 34.38 71.69Q34.25 71.63 34.13 71.63L34.13 71.63L34.13 71.63Q33.75 71.50 33.44 71.25Q33.13 71 33 70.63L33 70.63L32.88 70.63Q30.13 66.88 28.38 62.63Q26.63 58.38 26 53.75L26 53.75Q25.88 52.50 25.94 51.31Q26 50.13 25.88 49.25L25.88 49.25ZM48 14.25L48 14.25Q48 14.25 48 14.25Q48 14.25 48 14.25L48 14.25Q48 13.75 48.13 13.44Q48.25 13.13 48.50 12.88L48.50 12.88L48.50 12.88Q48.88 12.50 49.19 12.38Q49.50 12.25 50 12.25L50 12.25Q50 12.25 50 12.25Q50 12.25 50 12.25L50 12.25L50 12.25Q50.75 12.25 51.44 13Q52.13 13.75 52.13 14.75L52.13 14.75Q52.13 15.25 51.19 16Q50.25 16.75 49.63 16.75L49.63 16.75Q48.88 16.63 48.44 15.94Q48 15.25 48 14.25L48 14.25ZM45.63 52.88L45.63 52.88Q45.63 52.88 45.63 52.88Q45.63 52.88 45.63 52.75L45.63 52.75Q45.63 51.50 46.50 50.63Q47.38 49.75 48.63 49.63L48.63 49.63L48.63 49.63Q50.13 49.63 51.13 50.56Q52.13 51.50 52.13 52.88L52.13 52.88Q52.13 54.25 51.19 55.19Q50.25 56.13 48.88 56.13L48.88 56.13Q47.38 56.13 46.50 55.25Q45.63 54.38 45.63 52.88L45.63 52.88ZM79.13 56.13L79.25 56.13Q77.75 56.13 76.88 55.19Q76 54.25 76 52.75L76 52.75Q76 51.50 76.88 50.63Q77.75 49.75 79 49.63L79 49.63L79 49.63Q79.13 49.63 79.13 49.63Q79.13 49.63 79.13 49.63L79.13 49.63Q80.50 49.63 81.50 50.56Q82.50 51.50 82.50 53L82.50 53L82.50 53Q82.50 54.38 81.56 55.25Q80.63 56.13 79.13 56.13L79.13 56.13Z"/></svg>