<svg xmlns="http://www.w3.org/2000/svg" xmlns:xlink="http://www.w3.org/1999/xlink" width="128" height="128"><path fill="#ffffff" d="M73.25 94.38L73.25 94.38Q69.63 93.50 66.19 94.88Q62.75 96.25 60.88 99.38L60.88 99.38Q60.13 100.63 59.69 102.06Q59.25 103.50 59.25 105.13L59.25 105.13Q59.25 107.25 60 109.13Q60.75 111 62.13 112.50L62.13 112.50L62.13 112.50Q64.63 115.38 68.19 116.13Q71.75 116.88 75.25 115.25L75.25 115.25Q75.63 115 75.94 114.81Q76.25 114.63 76.75 114.75L76.75 114.75Q76.75 116.50 76.50 117.63Q76.25 118.75 75.50 119.75L75.50 119.75Q73.38 122.50 70.13 122.25Q66.88 122 64.88 119L64.88 119Q64.13 117.75 63.25 117.44Q62.38 117.13 61.38 117.75L61.38 117.75Q60.38 118.25 60.19 119.25Q60 120.25 60.75 121.50L60.75 121.50Q61.75 123.25 63.25 124.50Q64.75 125.75 66.63 126.50L66.63 126.50L66.63 126.50Q67 126.63 67.13 126.69Q67.25 126.75 67.75 127L67.75 127Q68.38 127.13 69.81 127.19Q71.25 127.25 72.13 127.13L72.13 127.13Q72.50 127 72.88 126.94Q73.25 126.88 73.63 126.75L73.63 126.75L73.50 126.75Q77.13 125.63 79.38 122.81Q81.63 120 81.63 116.25L81.63 116.25Q81.75 113.38 81.75 110.50Q81.75 107.63 81.63 104.75L81.63 104.75Q81.50 101 79.19 98.19Q76.88 95.38 73.38 94.38L73.38 94.38L73.25 94.38ZM64.13 105.13L64.13 105.13Q64.13 105.13 64.13 105.13Q64.13 105.13 64.13 105.13L64.13 105.13Q64.13 102.50 66 100.63Q67.88 98.75 70.50 98.75L70.50 98.75Q73 98.75 74.88 100.63Q76.75 102.50 76.75 105.13L76.75 105.13Q76.75 107.75 74.94 109.56Q73.13 111.38 70.50 111.38L70.50 111.38L70.50 111.38Q70.50 111.38 70.50 111.38Q70.50 111.38 70.38 111.38L70.38 111.38Q69.13 111.38 68 110.94Q66.88 110.50 66 109.63L66 109.63L66 109.63Q65.13 108.75 64.63 107.63Q64.13 106.50 64.13 105.13L64.13 105.13L64.13 105.13ZM105.50 101.88L105.50 101.88Q104.25 98 100.75 95.75Q97.25 93.50 93.38 94.13L93.38 94.13Q89.13 94.75 86.38 97.81Q83.63 100.88 83.63 105L83.63 105Q83.50 109 86.13 112.19Q88.75 115.38 92.88 116.13L92.88 116.13Q96.75 116.88 100.38 114.81Q104 112.75 105.38 108.88L105.38 108.88Q105.50 108.50 105.75 107.81Q106 107.13 106.13 106.50L106.13 106.50Q106.13 106.25 106.13 106Q106.13 105.75 106.13 105.50L106.13 105.50Q106.13 104.88 106.06 104.31Q106 103.75 105.88 103.25L105.88 103.25L105.88 103.25Q105.88 102.88 105.75 102.50Q105.63 102.13 105.50 101.75L105.50 101.75L105.50 101.88ZM94.75 111.38L94.75 111.38Q92.25 111.38 90.44 109.56Q88.63 107.75 88.63 105.13L88.63 105.13Q88.63 102.63 90.44 100.75Q92.25 98.88 94.88 98.88L94.88 98.88Q94.88 98.88 94.88 98.88Q94.88 98.88 95 98.88L95 98.88L94.88 98.88Q97.50 99 99.31 100.81Q101.13 102.63 101.13 105.13L101.13 105.13L101.13 105.13Q101.13 106.50 100.63 107.63Q100.13 108.75 99.25 109.63L99.25 109.63L99.25 109.63Q98.38 110.50 97.25 110.94Q96.13 111.38 94.88 111.38L94.88 111.38Q94.88 111.38 94.81 111.38Q94.75 111.38 94.75 111.38L94.75 111.38L94.75 111.38ZM44 102.75L44 102.75Q43 97.88 38.81 95.50Q34.63 93.13 30 94.63L30 94.63Q25.25 96.13 23.13 100.56Q21 105 22.88 109.50L22.88 109.50Q24.63 113.88 29.31 115.56Q34 117.25 38.25 115.13L38.25 115.13Q38.75 114.88 39.19 114.75Q39.63 114.63 40.13 115.38L40.13 115.38Q40.50 116 41.25 116.19Q42 116.38 42.75 116.13L42.75 116.13Q43.63 115.75 44 115.19Q44.38 114.63 44.25 113.75L44.25 113.75Q44.25 112.50 44.25 111.25Q44.25 110 44.25 108.63L44.25 108.63Q44.25 107.38 44.31 105.81Q44.38 104.25 44 102.75L44 102.75ZM33.25 111.38L33.25 111.38Q30.50 111.38 28.69 109.56Q26.88 107.75 26.88 105.13L26.88 105.13Q27 102.63 28.88 100.81Q30.75 99 33.38 99L33.38 99Q35.88 99 37.69 100.88Q39.50 102.75 39.50 105.38L39.50 105.38Q39.38 108 37.63 109.69Q35.88 111.38 33.25 111.38ZM60 96.25L60 96.25Q59.88 95.13 58.94 94.50Q58 93.88 56.38 94.13L56.38 94.13Q52.63 94.50 49.94 97Q47.25 99.50 46.50 103.13L46.50 103.13L46.50 103.25Q46.25 104.63 46.31 106.06Q46.38 107.50 46.38 108.75L46.38 108.75Q46.38 110 46.38 111.13Q46.38 112.25 46.38 113.25L46.38 113.25Q46.38 114.75 47 115.56Q47.63 116.38 48.75 116.38L48.75 116.38Q49.88 116.38 50.56 115.56Q51.25 114.75 51.25 113.38L51.25 113.38Q51.25 111.38 51.25 109.31Q51.25 107.25 51.25 105.25L51.25 105.25Q51.25 102.75 52.88 100.94Q54.50 99.13 57 99L57 99Q58.50 99 59.25 98.13Q60 97.25 60 96.25L60 96.25ZM62.50 1.25L65.50 1.38Q66.88 1.38 68.06 1.56Q69.25 1.75 70.50 2L70.50 2L70.13 2Q74.63 3 78.56 5.19Q82.50 7.38 85.88 10.50L85.88 10.50Q89 13.25 91.06 16.75Q93.13 20.25 94.25 24.38L94.25 24.38Q94.50 25.25 94.94 25.81Q95.38 26.38 96.38 26.63L96.38 26.63Q96.88 26.63 97 27.13Q97.13 27.63 97.13 28.13L97.13 28.13Q97.13 29.88 97.13 31.63Q97.13 33.38 97.13 35L97.13 35Q97.13 36.13 97.13 37.19Q97.13 38.25 97.13 39.38L97.13 39.38Q97.13 40.38 96.81 40.75Q96.50 41.13 95.50 41.13L95.50 41.13Q95 41.13 94.69 41.38Q94.38 41.63 94.25 42.13L94.25 42.13Q93.88 43.63 93.31 44.94Q92.75 46.25 92.25 47.38L92.25 47.38L92.25 47.25Q90.13 51.75 86.75 55.19Q83.38 58.63 79.13 61.13L79.13 61.13Q78.88 61.25 78.69 61.31Q78.50 61.38 78.25 61.50L78.25 61.50Q77.63 61.88 77.50 62.06Q77.38 62.25 77.75 63L77.75 63Q78 63.88 78.63 64.44Q79.25 65 80 65.25L80 65.25L80.13 65.25Q80.75 65.50 81.50 65.69Q82.25 65.88 83 66L83 66Q83.25 66.13 83.50 66.19Q83.75 66.25 83.88 66.38L83.88 66.38Q83.75 66.63 83.50 66.63Q83.25 66.63 83 66.63L83 66.63Q82.13 66.88 81.13 67.06Q80.13 67.25 79.13 67.25L79.13 67.25Q79.13 67.25 79.13 67.25Q79.13 67.25 79 67.25L79 67.25Q78.63 67.25 78.25 67.19Q77.88 67.13 77.63 67L77.63 67L77.63 67Q77.25 66.88 77.13 67Q77 67.13 77 67.38L77 67.38Q76.88 68.13 76.75 69Q76.63 69.88 76.63 70.75L76.63 70.75L76.63 70.75Q76.63 72.38 76.50 74Q76.38 75.63 76.25 77.38L76.25 77.38Q76.13 78.88 76.44 79.38Q76.75 79.88 78.25 80.38L78.25 80.38Q79 80.63 79.75 80.88Q80.50 81.13 81.25 81.38L81.25 81.38Q81.50 81.38 81.69 81.44Q81.88 81.50 82 81.75L82 81.75Q81.88 81.88 81.75 81.88Q81.63 81.88 81.50 81.88L81.50 81.88Q80.13 81.88 78.81 81.88Q77.50 81.88 76.13 81.88L76.13 81.88Q74.75 81.88 74 81.13Q73.25 80.38 73.13 79L73.13 79Q73 77 72.81 74.94Q72.63 72.88 72.50 70.88L72.50 70.88Q72.50 70.75 72.44 70.63Q72.38 70.50 72.38 70.38L72.38 70.38L72.38 70.38Q72.13 71.63 72.13 72.75Q72.13 73.88 72.13 75L72.13 75Q72 76.50 72.06 77.94Q72.13 79.38 72.13 80.75L72.13 80.75Q72.13 81.50 72.38 81.88Q72.63 82.25 73.25 82.50L73.25 82.50Q74.25 82.88 75.19 83.19Q76.13 83.50 77.25 83.38L77.25 83.38Q77.63 83.38 78 83.50Q78.38 83.63 78.75 83.88L78.75 83.88Q78.75 83.88 78.88 83.94Q79 84 79 84.13L79 84.13Q78.88 84.25 78.81 84.25Q78.75 84.25 78.63 84.25L78.63 84.25Q76.88 84.25 75.13 84.31Q73.38 84.38 71.63 84.13L71.63 84.13Q70.75 84 70.19 83.50Q69.63 83 69.38 82.25L69.38 82.25Q69.13 81.38 69 80.56Q68.88 79.75 68.88 78.88L68.88 78.88Q68.75 77.25 68.63 75.56Q68.50 73.88 68.38 72.13L68.38 72.13Q68.38 72.13 68.38 72.13Q68.38 72.13 68.38 72.13L68.38 72.13Q68.38 71.88 68.31 71.75Q68.25 71.63 68.25 71.50L68.25 71.50L68.25 71.50Q68.13 71.75 68.06 71.88Q68 72 68.13 72.25L68.13 72.25Q68.13 74.75 68.13 77.31Q68.13 79.88 68.13 82.50L68.13 82.50Q68.13 83.50 68.50 84.06Q68.88 84.63 69.88 85L69.88 85Q71.13 85.50 72.44 85.88Q73.75 86.25 75.13 86.50L75.13 86.50Q75.38 86.63 75.63 86.75Q75.88 86.88 76 87.25L76 87.25L69.38 87.25Q69.25 87.25 69.06 87.19Q68.88 87.13 68.75 87.13L68.75 87.13Q66.88 86.88 66 86Q65.13 85.13 64.75 83.38L64.75 83.38Q64.63 83.13 64.56 82.81Q64.50 82.50 64.50 82.25L64.50 82.25L63.63 78.25Q63.50 78.50 63.38 78.88Q63.25 79.25 63.13 79.63L63.13 79.63L63.13 79.63Q62.88 80.75 62.69 81.81Q62.50 82.88 62.25 83.88L62.25 83.88Q62 85.25 61.13 86Q60.25 86.75 58.88 87L58.88 87L57.75 87.25L51.13 87.25Q51.25 86.75 51.63 86.63Q52 86.50 52.38 86.38L52.38 86.38Q53.63 86.13 54.94 85.81Q56.25 85.50 57.50 85L57.50 85Q58 84.75 58.44 84.25Q58.88 83.75 58.88 83.13L58.88 83.13L58.88 83.13Q59 81.88 58.94 80.75Q58.88 79.63 58.88 78.50L58.88 78.50Q58.75 78.13 58.69 77.88Q58.63 77.63 58.50 77.25L58.50 77.25L58.50 77.38Q58.50 77.50 58.44 77.69Q58.38 77.88 58.25 78.13L58.25 78.13L58.25 78.13Q58.25 78.88 58.19 79.69Q58.13 80.50 58 81.25L58 81.25Q58 82.38 57.38 83.13Q56.75 83.88 55.63 84.13L55.63 84.13Q55.38 84.25 55 84.25Q54.63 84.25 54.25 84.25L54.25 84.25L54.25 84.25Q52.75 84.38 51.25 84.31Q49.75 84.25 48.25 84.25L48.25 84.25Q48.13 84.25 48 84.25Q47.88 84.25 47.75 84L47.75 84Q48.25 83.75 48.75 83.63Q49.25 83.50 49.88 83.38L49.88 83.38L49.88 83.38Q50.75 83.25 51.63 83.06Q52.50 82.88 53.38 82.63L53.38 82.63L53.25 82.75Q54.38 82.38 54.75 81.88Q55.13 81.38 55 80.25L55 80.25Q55 77.75 54.88 75.25Q54.75 72.75 54.75 70.25L54.75 70.25Q54.75 69.75 54.75 69.25Q54.75 68.75 54.75 68.25L54.75 68.25Q54.75 68.63 54.69 68.94Q54.63 69.25 54.63 69.63L54.63 69.63L54.63 69.63Q54.50 72 54.38 74.38Q54.25 76.75 54 79L54 79Q53.88 80.38 53.19 81.06Q52.50 81.75 51.13 81.88L51.13 81.88Q49.88 82 48.69 81.94Q47.50 81.88 46.25 81.88L46.25 81.88Q46 81.88 45.69 81.88Q45.38 81.88 45.13 81.63L45.13 81.63Q45.25 81.50 45.38 81.44Q45.50 81.38 45.63 81.38L45.63 81.38Q46.63 81 47.63 80.69Q48.63 80.38 49.50 80.13L49.50 80.13Q50.25 79.88 50.56 79.44Q50.88 79 50.88 78.38L50.88 78.38Q50.88 78.25 50.88 78.19Q50.88 78.13 50.88 78L50.88 78Q50.88 77.88 50.88 77.75Q50.88 77.63 50.88 77.50L50.88 77.50L50.88 77.50Q50.63 75.63 50.56 73.69Q50.50 71.75 50.50 69.75L50.50 69.75Q50.38 69.38 50.38 68.88Q50.38 68.38 50.25 68L50.25 68L50.38 68.13Q50.25 67.63 50 67.38Q49.75 67.13 49.25 67.13L49.25 67.13Q47.88 67.38 46.56 67.19Q45.25 67 44 66.63L44 66.63Q43.88 66.63 43.69 66.63Q43.50 66.63 43.38 66.38L43.38 66.38Q43.63 66.25 43.88 66.19Q44.13 66.13 44.38 66L44.38 66L44.38 66Q45 65.88 45.69 65.69Q46.38 65.50 47.13 65.25L47.13 65.25Q47.88 65 48.56 64.38Q49.25 63.75 49.50 63L49.50 63L49.50 63Q49.75 62.38 49.69 62.06Q49.63 61.75 49.13 61.50L49.13 61.50Q45.38 59.75 42.38 56.94Q39.38 54.13 37 50.75L37 50.75Q35.75 48.88 34.75 46.69Q33.75 44.50 33 42.13L33 42.13L33 42Q32.88 41.25 32.56 41.06Q32.25 40.88 31.63 41L31.63 41Q30.75 41.13 30.44 40.94Q30.13 40.75 29.75 40L29.75 40L29.75 27.63Q30.13 26.75 30.44 26.56Q30.75 26.38 31.63 26.38L31.63 26.38Q32.25 26.38 32.38 26.25Q32.50 26.13 32.75 25.50L32.75 25.50Q33.75 21.50 35.69 17.88Q37.63 14.25 40.50 11.25L40.50 11.25Q44 7.63 48.31 5.44Q52.63 3.25 57.50 2L57.50 2Q58.75 1.75 60 1.63Q61.25 1.50 62.50 1.25L62.50 1.25ZM94.13 33.38L94.13 33.38Q94.13 33.25 94.13 33.19Q94.13 33.13 94.13 33L94.13 33Q94.13 32.25 94.06 31.44Q94 30.63 93.88 29.88L93.88 29.88L93.88 30Q93.88 29.25 93.75 28.63Q93.63 28 93.50 27.50L93.50 27.50L93.50 27.63Q91.88 19.75 87.31 14.19Q82.75 8.63 75.50 5.25L75.50 5.25Q71.25 3.25 66.88 2.88Q62.50 2.50 58 3.38L58 3.38Q49.25 5.13 43.44 10.25Q37.63 15.38 34.63 23.63L34.63 23.63Q33.38 26.75 33.13 30.06Q32.88 33.38 33.25 36.75L33.25 36.75Q33.50 39.38 34.19 41.81Q34.88 44.25 36 46.50L36 46.50L35.88 46.38Q37.50 49.63 39.75 52.31Q42 55 44.75 57.25L44.75 57.25Q45.63 58 46.63 58.63Q47.63 59.25 48.75 59.75L48.75 59.75L48.88 59.88Q49.50 60.13 49.63 60.06Q49.75 60 49.75 59.38L49.75 59.38Q49.75 58.88 49.75 58.44Q49.75 58 49.63 57.63L49.63 57.63Q49.38 54.88 49.25 52.13Q49.13 49.38 49 46.63L49 46.63Q49 46.63 49 46.63Q49 46.63 49 46.50L49 46.50Q49 46.13 48.88 45.81Q48.75 45.50 48.38 45.38L48.38 45.38L48.38 45.38Q47.38 44.63 46.50 43.75Q45.63 42.88 45.13 41.75L45.13 41.75Q43.88 39.13 44.38 35.81Q44.88 32.50 48 30.25L48 30.25Q48.38 30 48.56 29.69Q48.75 29.38 48.75 28.88L48.75 28.88Q48.75 28.75 48.75 28.69Q48.75 28.63 48.75 28.50L48.75 28.50Q48.75 28.25 48.75 27.88Q48.75 27.50 48.88 27.25L48.88 27.25L48.88 27.25Q49.25 24.13 50.81 21.56Q52.38 19 55 17.13L55 17.13Q56.88 15.75 58.88 15.06Q60.88 14.38 63.13 14.38L63.13 14.38Q64.50 14.25 65.75 14.56Q67 14.88 68.25 15.25L68.25 15.25Q72.50 16.50 75.44 20.31Q78.38 24.13 78.38 28.38L78.38 28.38Q78.38 29 78.63 29.56Q78.88 30.13 79.38 30.50L79.38 30.50Q80.63 31.50 81.50 32.75Q82.38 34 82.75 35.50L82.75 35.50Q83.38 38.50 82.50 40.88Q81.63 43.25 79.25 45L79.25 45Q78.50 45.50 78.25 46.13Q78 46.75 78 47.50L78 47.50Q78.13 47.63 78.06 47.75Q78 47.88 78 48L78 48L77.88 53.13Q77.75 54.75 77.56 56.31Q77.38 57.88 77.38 59.38L77.38 59.38Q77.38 60 77.50 60.06Q77.63 60.13 78.13 59.88L78.13 59.88Q80.63 58.63 82.75 56.88Q84.88 55.13 86.63 53.13L86.63 53.13L86.75 53.13Q90.25 48.88 92.19 44Q94.13 39.13 94.13 33.38L94.13 33.38ZM53.13 44.63L53.13 44.63Q53.13 44.63 53.19 44.63Q53.25 44.63 53.25 44.63L53.25 44.63Q56.13 44.63 58.13 42.63Q60.13 40.63 60.13 37.75L60.13 37.75Q60.13 36.75 59.88 35.88Q59.63 35 59.25 34.25L59.25 34.25L59.25 34.25Q58.25 32.63 56.69 31.69Q55.13 30.75 53.25 30.75L53.25 30.75Q53.25 30.75 53.25 30.75Q53.25 30.75 53.13 30.75L53.13 30.75L53.13 30.75Q50.25 30.75 48.25 32.69Q46.25 34.63 46.13 37.50L46.13 37.50Q46.13 40.63 48.13 42.63Q50.13 44.63 53.13 44.63L53.13 44.63ZM73.88 44.63L73.88 44.63Q76.88 44.63 78.81 42.69Q80.75 40.75 80.75 37.75L80.75 37.75Q80.75 34.88 78.75 32.81Q76.75 30.75 73.88 30.75L73.88 30.75Q71.13 30.75 69.06 32.81Q67 34.88 67 37.63L67 37.63Q67 40.63 68.94 42.63Q70.88 44.63 73.88 44.63L73.88 44.63ZM68.63 51.63L68.63 51.63Q68 51.88 67.50 52.25Q67 52.63 66.38 52.88L66.38 52.88Q64.88 53.63 63.50 53.63Q62.13 53.63 60.75 52.75L60.75 52.75Q60.25 52.50 59.88 52.25Q59.50 52 59 51.75L59 51.75Q58.88 51.63 58.75 51.50Q58.63 51.38 58.50 51.50L58.50 51.50Q58.38 51.50 58.44 51.69Q58.50 51.88 58.50 52L58.50 52Q58.63 52.50 58.69 53Q58.75 53.50 58.75 54L58.75 54Q58.88 55.50 59.56 56.63Q60.25 57.75 61.50 58.63L61.50 58.63Q62 59.13 62.75 59.31Q63.50 59.50 64.25 59.38L64.25 59.38Q65.75 59 66.88 57.81Q68 56.63 68.25 55L68.25 55Q68.38 54.25 68.38 53.50Q68.38 52.75 68.63 52.13L68.63 52.13Q68.75 52 68.75 52Q68.75 52 68.75 51.88L68.75 51.88Q68.75 51.75 68.69 51.69Q68.63 51.63 68.63 51.63L68.63 51.63ZM37.13 34L37.13 34Q37.13 31 37.56 28.38Q38 25.75 39.13 23.38L39.13 23.38Q40.75 19.50 43.44 16.50Q46.13 13.50 49.75 11.25L49.75 11.25Q49.88 11.25 50.06 11.19Q50.25 11.13 50.38 11.13L50.38 11.13Q50.75 11.13 51 11.25Q51.25 11.38 51.38 11.50L51.38 11.50L51.38 11.50Q51.63 11.63 51.56 11.81Q51.50 12 51.50 12.13L51.50 12.13Q51.13 12.75 50.69 13.19Q50.25 13.63 49.75 14L49.75 14L49.75 14Q46.88 15.75 44.81 18.19Q42.75 20.63 41.25 23.63L41.25 23.63Q40.25 25.75 39.69 28.25Q39.13 30.75 39.13 33.38L39.13 33.38Q39.13 33.63 39.13 33.88Q39.13 34.13 39.13 34.38L39.13 34.38L39.13 34.25Q39.25 37.75 40.31 41Q41.38 44.25 43.38 47.13L43.38 47.13Q43.63 47.38 43.81 47.75Q44 48.13 44 48.38L44 48.38Q44.13 48.63 44.13 48.88Q44.13 49.13 43.88 49.25L43.88 49.25Q43.75 49.38 43.44 49.44Q43.13 49.50 42.88 49.38L42.88 49.38Q42.63 49.25 42.44 49.13Q42.25 49 42.13 48.75L42.13 48.75L42 48.75Q40.13 46.13 38.88 43.19Q37.63 40.25 37.25 37L37.25 37Q37.25 36.13 37.25 35.31Q37.25 34.50 37.13 34ZM52.50 9.75L52.50 9.75Q52.50 9.63 52.50 9.63Q52.50 9.63 52.50 9.63L52.50 9.63Q52.50 9.13 52.88 8.75Q53.25 8.38 53.88 8.38L53.88 8.38Q53.88 8.38 53.88 8.38Q53.88 8.38 53.88 8.38L53.88 8.38L53.88 8.38Q54.38 8.38 54.88 8.88Q55.38 9.38 55.38 10L55.38 10Q55.38 10.38 54.75 10.88Q54.13 11.38 53.63 11.38L53.63 11.38Q53.13 11.38 52.81 10.88Q52.50 10.38 52.50 9.75ZM50.88 36.50L50.88 36.50Q50.88 36.50 50.88 36.44Q50.88 36.38 50.88 36.38L50.88 36.38Q50.88 35.50 51.44 34.88Q52 34.25 52.88 34.25L52.88 34.25L52.88 34.25Q54 34.25 54.69 34.88Q55.38 35.50 55.38 36.50L55.38 36.50Q55.38 37.38 54.69 38.06Q54 38.75 53 38.75L53 38.75Q52 38.75 51.44 38.13Q50.88 37.50 50.88 36.50L50.88 36.50ZM74.13 38.75L74.13 38.75Q73 38.63 72.44 38Q71.88 37.38 71.88 36.38L71.88 36.38Q71.88 35.50 72.50 34.88Q73.13 34.25 74 34.13L74 34.13L74 34.13Q74 34.13 74 34.13Q74 34.13 74 34.13L74 34.13Q75 34.13 75.69 34.81Q76.38 35.50 76.38 36.50L76.38 36.50L76.38 36.50Q76.38 37.38 75.75 38.06Q75.13 38.75 74.13 38.75L74.13 38.75Z"/></svg>