<svg xmlns="http://www.w3.org/2000/svg" xmlns:xlink="http://www.w3.org/1999/xlink" width="128" height="128"><path fill="#000000" d="M0.25 68.63L0.25 68.63L0.25 13.38L48 41L48 59.38L16.13 41L16.13 77.75L0.25 68.63ZM48 41L48 41L95.88 13.38L95.88 68.75L64 87L48 77.75L80 59.38L80 41L48 59.38L48 41ZM48 77.75L48 77.75L48 96.25L80 114.63L80 96.25L48 77.75ZM80 114.63L80 114.63L127.75 87L127.75 50.25L111.75 59.38L111.75 77.75L80 96.25L80 114.63ZM127.88 31.75L111.88 41L111.88 22.63L127.88 13.38L127.88 31.75Z"/></svg>