<svg xmlns="http://www.w3.org/2000/svg" xmlns:xlink="http://www.w3.org/1999/xlink" width="128" height="128"><path fill="#000000" d="M96.50 40.50L96.50 40.50L95.88 40.50Q95.88 40.50 95.81 40.50Q95.75 40.50 95.75 40.50L95.75 40.50Q87.50 40.50 81.25 45.50Q75 50.50 73 58L73 58L72.75 58.25Q71.38 65.25 65.81 69.94Q60.25 74.63 53 74.63L53 74.63Q44.63 74.63 38.69 68.69Q32.75 62.75 32.75 54.38L32.75 54.38Q32.75 54.38 32.75 54.38Q32.75 54.38 32.75 54.38L32.75 54.38Q32.75 53.88 32.75 53.25Q32.75 52.63 32.88 52.13L32.88 52.13Q32.88 52 32.88 51.94Q32.88 51.88 33 51.75L33 51.75Q33 51.63 33 51.38Q33 51.13 33.13 50.88L33.13 50.88Q34.63 43.63 37.75 37.13L37.75 37.13Q40.75 30.63 45.06 25.06Q49.38 19.50 54.75 15L54.75 15Q60.13 10.50 66.38 7.25L66.38 7.25Q63.63 6.13 60.13 5.63Q56.63 5.13 52.88 5.13L52.88 5.13Q43.25 5.13 34.75 8.63L34.75 8.63Q26.13 12 19.56 18.06Q13 24.13 8.88 32.38L8.88 32.38Q4.75 40.50 3.88 50L3.88 50Q3.88 50.25 3.81 50.38Q3.75 50.50 3.63 50.75L3.63 50.75L3.63 122.75L32.75 122.75L32.75 99.38Q37.25 101.50 42.38 102.63Q47.50 103.75 53 103.75L53 103.75Q63.25 103.75 72.25 99.88L72.25 99.88Q81.13 96 87.81 89.31Q94.50 82.63 98.38 73.63L98.38 73.63Q102.25 64.75 102.25 54.50L102.25 54.50Q102.25 50.75 101.75 47.19Q101.25 43.63 100.13 40.13L100.13 40.13L96.50 40.50ZM67.88 57.38L68 57.25L68 57.13Q70.38 47.75 78 41.69Q85.63 35.63 95.63 35.63L95.63 35.63Q95.75 35.63 96 35.63Q96.25 35.63 96.50 35.63L96.50 35.63L109.50 35.63Q111.25 35.50 112.81 35.06Q114.38 34.63 115.75 34L115.75 34Q115.38 34 115 33.94Q114.63 33.88 114.25 33.75L114.25 33.75Q108.88 32.63 104.88 29.06Q100.88 25.50 99.13 20.50L99.13 20.50Q101.38 23.13 104.38 25.06Q107.38 27 111 27.75L111 27.75Q111.88 28 112.88 28.06Q113.88 28.13 114.88 28.13L114.88 28.13Q117.13 28.13 119.19 27.69Q121.25 27.25 123.13 26.38L123.13 26.38Q123.63 25.13 123.94 23.56Q124.25 22 124.25 20.38L124.25 20.38Q124.25 14.13 119.81 9.63Q115.38 5.13 109.13 5.13L109.13 5.13L95.63 5.13Q85.13 5.13 75.63 8.63L75.63 8.63Q66.13 12.13 58.56 18.25Q51 24.38 45.63 32.75L45.63 32.75Q40.38 41.25 38.13 51L38.13 51Q37.88 52 37.81 52.81Q37.75 53.63 37.63 54.38L37.63 54.38Q37.63 54.38 37.63 54.44Q37.63 54.50 37.63 54.50L37.63 54.50Q37.63 60.75 42.13 65.25Q46.63 69.75 53 69.75L53 69.75Q58.50 69.75 62.69 66.19Q66.88 62.63 67.88 57.38L67.88 57.38ZM104.38 13.88L104.38 13.88Q104.75 12.25 106.06 11.19Q107.38 10.13 109 10.13L109 10.13Q111 10.13 112.38 11.50Q113.75 12.88 113.75 14.88L113.75 14.88Q113.75 16.75 112.38 18.19Q111 19.63 109 19.63L109 19.63Q108.75 19.63 108.56 19.56Q108.38 19.50 108.13 19.50L108.13 19.50Q106.50 19.13 105.38 17.81Q104.25 16.50 104.25 14.88L104.25 14.88Q104.25 14.63 104.31 14.38Q104.38 14.13 104.38 13.88L104.38 13.88ZM124.38 107.63L124.38 107.63Q124.38 114 119.94 118.44Q115.50 122.88 109.13 122.88L109.13 122.88L95.63 122.88Q95.63 122.88 95.56 122.88Q95.50 122.88 95.50 122.88L95.50 122.88Q90 122.88 84.75 121.88L84.75 121.88Q79.50 120.88 74.63 119Q69.75 117.13 65.25 114.50L65.25 114.50Q60.88 111.75 57 108.38L57 108.38Q67.38 107.63 76.25 103.38Q85.13 99.13 91.88 92.13L91.88 92.13Q92.75 92.25 93.69 92.31Q94.63 92.38 95.63 92.38L95.63 92.38Q95.75 92.38 102.38 92.38Q109 92.38 109.13 92.38L109.13 92.38Q115.38 92.38 119.88 96.88Q124.38 101.38 124.38 107.63L124.38 107.63Z"/></svg>