<svg xmlns="http://www.w3.org/2000/svg" xmlns:xlink="http://www.w3.org/1999/xlink" width="128" height="128"><path fill="#000000" d="M43.38 59.75L43.38 59.75Q44.13 59.63 45.06 59.50Q46 59.38 46.88 59.38L46.88 59.38Q46.88 59.38 46.94 59.38Q47 59.38 47 59.38L47 59.38Q47.13 59.38 47.25 59.38Q47.38 59.38 47.50 59.38L47.50 59.38Q48.50 59.38 49.44 59.75Q50.38 60.13 51.13 60.63L51.13 60.63Q51.75 61.13 52.06 61.88Q52.38 62.63 52.38 63.50L52.38 63.50Q52.38 63.63 52.38 63.63Q52.38 63.63 52.38 63.75L52.38 63.75Q52.38 63.75 52.38 63.81Q52.38 63.88 52.38 63.88L52.38 63.88Q52.38 64.75 52.06 65.50Q51.75 66.25 51.25 66.88L51.25 66.88Q50.50 67.63 49.44 68.06Q48.38 68.50 47.13 68.50L47.13 68.50Q47 68.50 46.94 68.50Q46.88 68.50 46.75 68.50L46.75 68.50Q46.75 68.50 46.69 68.50Q46.63 68.50 46.63 68.50L46.63 68.50Q46.25 68.50 45.88 68.44Q45.50 68.38 45.25 68.25L45.25 68.25L45.25 74.25L43.38 74.25L43.38 59.75ZM45.25 66.75L45.25 66.75Q45.50 66.88 45.88 66.88Q46.25 66.88 46.63 66.88L46.63 66.88Q46.63 66.88 46.69 66.88Q46.75 66.88 46.88 66.88L46.88 66.88Q48.50 66.88 49.50 66.13Q50.50 65.38 50.50 63.75L50.50 63.75Q50.50 62.25 49.56 61.56Q48.63 60.88 47 60.88L47 60.88Q47 60.88 46.94 60.88Q46.88 60.88 46.75 60.88L46.75 60.88Q46.38 60.88 45.94 60.94Q45.50 61 45.13 61.13L45.13 61.13L45.25 66.75ZM55.63 63.63L55.63 63.63L58 69.88Q58.13 70.38 58.31 71Q58.50 71.63 58.63 72L58.63 72L58.63 72Q58.75 71.63 58.94 71Q59.13 70.38 59.25 69.88L59.25 69.88L61.38 63.63L63.38 63.63L60.50 71.13Q59.50 73.88 58.69 75.38Q57.88 76.88 56.88 77.75L56.88 77.75Q56.38 78.25 55.81 78.56Q55.25 78.88 54.63 79L54.63 79L54.13 77.38Q54.63 77.25 55.06 77Q55.50 76.75 55.88 76.50L55.88 76.50Q56.38 76 56.75 75.50Q57.13 75 57.38 74.38L57.38 74.38Q57.50 74.25 57.50 74.13Q57.50 74 57.63 73.88L57.63 73.88Q57.63 73.75 57.56 73.63Q57.50 73.50 57.50 73.38L57.50 73.38L53.50 63.63L55.63 63.63ZM75.38 71.13L75.75 73.75Q75 74.13 74.13 74.25Q73.25 74.38 72.38 74.38L72.38 74.38Q72.25 74.38 72.19 74.38Q72.13 74.38 72 74.38L72 74.38Q68.25 74.38 66.31 72.31Q64.38 70.25 64.38 67.13L64.38 67.13Q64.38 63.38 66.69 61.31Q69 59.25 72.38 59.25L72.38 59.25Q72.38 59.25 72.50 59.25Q72.63 59.25 72.63 59.25L72.63 59.25Q73.50 59.25 74.38 59.44Q75.25 59.63 76 60L76 60L75.25 62.63Q74.63 62.25 73.94 62.13Q73.25 62 72.50 62L72.50 62Q70.50 62 69.19 63.19Q67.88 64.38 67.88 66.88L67.88 66.88Q67.88 69 69.13 70.31Q70.38 71.63 72.50 71.63L72.50 71.63Q73.25 71.63 74 71.50Q74.75 71.38 75.38 71.13L75.38 71.13ZM77.75 58.75L77.75 58.75L81.13 58.75L81.13 64.88Q81.38 64.50 81.69 64.25Q82 64 82.38 63.75L82.38 63.75Q82.75 63.50 83.19 63.44Q83.63 63.38 84.13 63.38L84.13 63.38Q84.13 63.38 84.13 63.38Q84.13 63.38 84.13 63.38L84.13 63.38Q85.75 63.38 86.81 64.50Q87.88 65.63 87.88 68L87.88 68L87.88 74.25L84.63 74.25L84.63 68.38Q84.63 67.25 84.19 66.63Q83.75 66 82.88 66L82.88 66Q82.25 66 81.81 66.31Q81.38 66.63 81.25 67.13L81.25 67.13Q81.13 67.25 81.13 67.44Q81.13 67.63 81.13 67.88L81.13 67.88Q81.13 67.88 81.13 67.88Q81.13 67.88 81.13 67.88L81.13 67.88L81.13 74.25L77.75 74.25L77.75 58.75ZM99.63 74.25L96.63 74.25L96.38 73.13L96.38 73.13Q95.75 73.75 95 74.06Q94.25 74.38 93.50 74.38L93.50 74.38Q93.38 74.38 93.38 74.38Q93.38 74.38 93.38 74.38L93.38 74.38Q93.25 74.38 93.19 74.38Q93.13 74.38 93.13 74.38L93.13 74.38Q91.75 74.38 90.81 73.44Q89.88 72.50 89.88 71.13L89.88 71.13Q89.88 71.13 89.88 71.13Q89.88 71.13 89.88 71.13L89.88 71.13Q89.88 69.13 91.56 68.13Q93.25 67.13 96.13 67.13L96.13 67.13L96.13 67Q96.13 66.50 95.75 66.06Q95.38 65.63 94.13 65.63L94.13 65.63Q93.38 65.63 92.63 65.81Q91.88 66 91.25 66.38L91.25 66.38L90.63 64.25Q91.50 63.75 92.50 63.50Q93.50 63.25 94.63 63.25L94.63 63.25Q94.63 63.25 94.69 63.25Q94.75 63.25 94.75 63.25L94.75 63.25Q97.38 63.25 98.44 64.63Q99.50 66 99.50 67.88L99.50 67.88L99.50 71.63Q99.50 71.63 99.44 71.75Q99.38 71.88 99.38 72L99.38 72Q99.38 72.50 99.44 73.13Q99.50 73.75 99.63 74.25L99.63 74.25ZM96.25 69.13L96.25 69.25Q94.88 69.25 94 69.56Q93.13 69.88 93.13 70.88L93.13 70.88Q93.13 70.88 93.13 70.88Q93.13 70.88 93.13 71L93.13 71Q93.13 71.50 93.44 71.81Q93.75 72.13 94.25 72.13L94.25 72.13Q94.38 72.13 94.38 72.13Q94.38 72.13 94.38 72.13L94.38 72.13Q94.38 72.13 94.38 72.13Q94.38 72.13 94.38 72.13L94.38 72.13Q95 72.13 95.50 71.81Q96 71.50 96.13 70.88L96.13 70.88Q96.13 70.75 96.19 70.63Q96.25 70.50 96.25 70.38L96.25 70.38Q96.25 70.38 96.25 70.38Q96.25 70.38 96.25 70.38L96.25 70.38L96.25 69.13ZM102 67L102 67Q102 65.88 102 65.06Q102 64.25 101.88 63.50L101.88 63.50L104.75 63.50L104.88 65.50L105 65.50Q105.25 64.63 106.06 64Q106.88 63.38 107.88 63.38L107.88 63.38Q108 63.38 108.06 63.38Q108.13 63.38 108.25 63.38L108.25 63.38Q108.25 63.38 108.38 63.38Q108.50 63.38 108.63 63.38L108.63 63.38L108.63 66.50Q108.38 66.38 108.13 66.38Q107.88 66.38 107.63 66.38L107.63 66.38Q107.63 66.38 107.56 66.38Q107.50 66.38 107.50 66.38L107.50 66.38Q106.75 66.38 106.19 66.88Q105.63 67.38 105.38 68L105.38 68Q105.38 68.25 105.38 68.44Q105.38 68.63 105.38 68.75L105.38 68.75Q105.38 68.75 105.38 68.75Q105.38 68.75 105.38 68.75L105.38 68.75L105.38 74.25L102 74.25L102 67ZM110.25 67L110.25 67Q110.25 66 110.25 65.13Q110.25 64.25 110.25 63.63L110.25 63.63L113 63.63L113.13 65L113.25 65Q113.75 64.25 114.56 63.81Q115.38 63.38 116.25 63.38L116.25 63.38Q116.38 63.38 116.38 63.38Q116.38 63.38 116.38 63.38L116.38 63.38Q116.50 63.38 116.50 63.38Q116.50 63.38 116.63 63.38L116.63 63.38Q117.50 63.38 118.25 63.88Q119 64.38 119.38 65.13L119.38 65.13L119.38 65.25Q119.63 64.75 119.94 64.44Q120.25 64.13 120.75 63.88L120.75 63.88Q121.13 63.63 121.63 63.50Q122.13 63.38 122.63 63.38L122.63 63.38Q122.63 63.38 122.69 63.38Q122.75 63.38 122.75 63.38L122.75 63.38Q124.25 63.38 125.25 64.50Q126.25 65.63 126.25 68L126.25 68L126.25 74.25L123.13 74.25L123.13 68.38Q123.13 67.25 122.75 66.63Q122.38 66 121.50 66L121.50 66Q121 66 120.56 66.31Q120.13 66.63 120 67.13L120 67.13Q119.88 67.25 119.88 67.50Q119.88 67.75 119.88 68L119.88 68Q119.88 68 119.88 68Q119.88 68 119.88 68L119.88 68L119.88 74.25L116.63 74.25L116.63 68.25Q116.63 67.13 116.25 66.50Q115.88 65.88 115.13 65.88L115.13 65.88Q114.63 66 114.19 66.31Q113.75 66.63 113.63 67.13L113.63 67.13Q113.50 67.25 113.50 67.44Q113.50 67.63 113.50 67.88L113.50 67.88Q113.50 67.88 113.50 67.94Q113.50 68 113.50 68L113.50 68L113.50 74.13L110.25 74.13L110.25 67ZM24.38 57.63L24.38 57.63L24.25 57.63Q24.25 57.63 24.25 57.63Q24.25 57.63 24.25 57.63L24.25 57.63Q22.25 57.63 20.69 58.88Q19.13 60.13 18.63 62L18.63 62L18.63 62Q18.13 63.63 16.81 64.69Q15.50 65.75 13.75 65.75L13.75 65.75Q11.75 65.75 10.31 64.38Q8.88 63 8.75 61.13L8.75 61.13Q8.75 61 8.75 60.94Q8.75 60.88 8.75 60.75L8.75 60.75Q8.75 60.75 8.75 60.69Q8.75 60.63 8.75 60.50L8.75 60.50Q8.75 60.38 8.75 60.44Q8.75 60.50 8.75 60.38L8.75 60.38Q8.75 60.38 8.75 60.31Q8.75 60.25 8.75 60.25L8.75 60.25Q9.63 56.63 11.75 53.88Q13.88 51.13 17 49.50L17 49.50Q16.38 49.25 15.50 49.13Q14.63 49 13.75 49L13.75 49Q9 49 5.56 52.19Q2.13 55.38 1.75 60L1.75 60L1.63 60.13L1.63 77.75L8.75 77.75L8.75 72.13Q9.88 72.63 11.13 72.88Q12.38 73.13 13.75 73.13L13.75 73.13Q18.75 73.13 22.25 69.63Q25.75 66.13 25.75 61.13L25.75 61.13Q25.75 60.25 25.63 59.31Q25.50 58.38 25.25 57.63L25.25 57.63L24.38 57.63ZM17.38 61.75L17.38 61.75L17.38 61.75Q18 59.50 19.88 58Q21.75 56.50 24.13 56.50L24.13 56.50L27.50 56.50Q28 56.50 28.38 56.38Q28.75 56.25 29.13 56.13L29.13 56.13L28.75 56Q27.38 55.75 26.44 54.88Q25.50 54 25 52.75L25 52.75Q25.75 53.63 26.75 54.13Q27.75 54.63 28.88 54.63L28.88 54.63Q29.38 54.63 29.94 54.50Q30.50 54.38 30.88 54.13L30.88 54.13Q31 53.88 31.06 53.50Q31.13 53.13 31.13 52.75L31.13 52.75Q31.13 51.25 30.06 50.13Q29 49 27.50 49L27.50 49L24.13 49Q19 49 15.06 52.19Q11.13 55.38 10.13 60.25L10.13 60.25Q10 60.50 10 60.69Q10 60.88 10 61.13L10 61.13Q10 62.63 11.06 63.69Q12.13 64.75 13.75 64.75L13.75 64.75Q15.13 64.75 16.13 63.94Q17.13 63.13 17.38 61.75L17.38 61.75ZM26.25 51.13L26.25 51.13Q26.38 50.75 26.69 50.50Q27 50.25 27.50 50.25L27.50 50.25Q27.88 50.25 28.25 50.56Q28.63 50.88 28.63 51.38L28.63 51.38Q28.63 51.88 28.25 52.19Q27.88 52.50 27.50 52.50L27.50 52.50Q27.38 52.50 27.31 52.50Q27.25 52.50 27.25 52.50L27.25 52.50Q26.88 52.38 26.56 52.06Q26.25 51.75 26.25 51.38L26.25 51.38Q26.25 51.38 26.25 51.31Q26.25 51.25 26.25 51.13L26.25 51.13ZM31.25 74.13L31.25 74.13Q31.25 75.75 30.13 76.81Q29 77.88 27.50 77.88L27.50 77.88L24.13 77.88Q24.13 77.88 24.13 77.88Q24.13 77.88 24.13 77.88L24.13 77.88Q21.38 77.88 19 76.94Q16.63 76 14.75 74.38L14.75 74.38Q17.25 74.13 19.44 73.06Q21.63 72 23.25 70.38L23.25 70.38Q23.50 70.38 23.69 70.38Q23.88 70.38 24.13 70.38L24.13 70.38L27.50 70.38Q27.50 70.38 27.50 70.38Q27.50 70.38 27.50 70.38L27.50 70.38Q29 70.38 30.06 71.50Q31.13 72.63 31.25 74.13L31.25 74.13Z"/></svg>