<svg xmlns="http://www.w3.org/2000/svg" xmlns:xlink="http://www.w3.org/1999/xlink" width="128" height="128"><path fill="#ffffff" d="M36.88 61.25L38.50 61.25L38.50 72.88L36.88 72.88L36.88 61.25ZM41.50 72.88L41.50 66.75Q41.50 66.13 41.44 65.63Q41.38 65.13 41.38 64.50L41.38 64.50L42.88 64.50L42.88 65.88Q43.38 65.25 44.13 64.81Q44.88 64.38 45.75 64.38L45.75 64.38Q45.75 64.38 45.81 64.38Q45.88 64.38 45.88 64.38L45.88 64.38Q46.88 64.38 48 65.06Q49.13 65.75 49.13 67.88L49.13 67.88L49.13 72.88L47.38 72.88L47.38 68.13Q47.38 67.13 46.94 66.38Q46.50 65.63 45.38 65.63L45.38 65.63Q45.38 65.63 45.38 65.63Q45.38 65.63 45.38 65.63L45.38 65.63Q44.63 65.63 44 66.06Q43.38 66.50 43.13 67.13L43.13 67.13Q43.13 67.25 43.13 67.44Q43.13 67.63 43.13 67.88L43.13 67.88Q43.13 67.88 43.13 67.88Q43.13 67.88 43.13 67.88L43.13 67.88L43.13 72.88L41.50 72.88ZM52 62.50L53.63 62.13L53.63 64.50L55.88 64.50L55.88 65.75L53.63 65.75L53.63 70.25Q53.63 71 53.88 71.44Q54.13 71.88 54.75 71.88L54.75 71.88Q54.88 71.88 54.88 71.88Q54.88 71.88 54.88 71.88L54.88 71.88Q55.13 71.88 55.31 71.81Q55.50 71.75 55.75 71.75L55.75 71.75L55.75 72.88Q55.50 73 55.19 73.06Q54.88 73.13 54.50 73.13L54.50 73.13Q54.50 73.13 54.44 73.13Q54.38 73.13 54.38 73.13L54.38 73.13Q54.38 73.13 54.31 73.13Q54.25 73.13 54.25 73.13L54.25 73.13Q53.75 73.13 53.31 72.94Q52.88 72.75 52.63 72.50L52.63 72.50Q52.38 72 52.19 71.56Q52 71.13 52 70.63L52 70.63Q52 70.50 52 70.44Q52 70.38 52 70.25L52 70.25L52 65.75L50.63 65.75L50.63 64.50L52 64.50L52 62.50ZM64.75 69L58.50 69Q58.50 69 58.50 69.06Q58.50 69.13 58.50 69.13L58.50 69.13Q58.50 70.25 59.31 71.06Q60.13 71.88 61.25 71.88L61.25 71.88Q61.38 71.88 61.44 71.88Q61.50 71.88 61.63 71.88L61.63 71.88Q61.63 71.88 61.69 71.88Q61.75 71.88 61.75 71.88L61.75 71.88Q62.38 71.88 63 71.75Q63.63 71.63 64.13 71.50L64.13 71.50L64.38 72.50Q63.75 72.75 63.06 72.94Q62.38 73.13 61.63 73.13L61.63 73.13Q61.50 73.13 61.44 73.13Q61.38 73.13 61.38 73.13L61.38 73.13Q59.25 73.13 58.13 71.94Q57 70.75 57 68.88L57 68.88Q57 67 58.13 65.69Q59.25 64.38 61.13 64.38L61.13 64.38Q63.38 64.38 64.13 65.75Q64.88 67.13 64.88 68.25L64.88 68.25Q64.88 68.50 64.81 68.69Q64.75 68.88 64.75 69L64.75 69ZM58.50 67.88L63.25 67.88Q63.25 67.88 63.25 67.81Q63.25 67.75 63.25 67.63L63.25 67.63Q63.25 66.75 62.63 66.13Q62 65.50 61.13 65.50L61.13 65.50Q61.13 65.50 61.06 65.50Q61 65.50 61 65.50L61 65.50Q60 65.50 59.25 66.19Q58.50 66.88 58.50 67.88L58.50 67.88ZM66.88 72.88L66.88 60.63L68.50 60.63L68.50 72.88L66.88 72.88ZM71.25 72.88L71.25 60.63L72.88 60.63L72.88 72.88L71.25 72.88ZM77.38 62.25L77.38 62.25Q77.38 62.63 77.13 62.94Q76.88 63.25 76.38 63.25L76.38 63.25Q76 63.25 75.69 62.94Q75.38 62.63 75.38 62.25L75.38 62.25Q75.38 61.75 75.69 61.50Q76 61.25 76.38 61.25L76.38 61.25Q76.38 61.25 76.44 61.19Q76.50 61.13 76.50 61.13L76.50 61.13Q76.88 61.13 77.13 61.44Q77.38 61.75 77.38 62.13L77.38 62.13Q77.38 62.13 77.38 62.13Q77.38 62.13 77.38 62.25L77.38 62.25ZM77.25 72.88L75.63 72.88L75.63 64.50L77.25 64.50L77.25 72.88ZM82.50 61.25L82.50 61.25L84.13 61.25L84.13 69Q84.13 71.38 83.06 72.19Q82 73 80.38 73L80.38 73Q79.88 73 79.44 72.94Q79 72.88 78.63 72.75L78.63 72.75L78.88 71.50Q79.13 71.63 79.50 71.69Q79.88 71.75 80.25 71.75L80.25 71.75Q80.25 71.75 80.25 71.75Q80.25 71.75 80.25 71.75L80.25 71.75Q81.25 71.75 81.88 71.19Q82.50 70.63 82.50 68.88L82.50 68.88L82.50 61.25ZM88.63 61.25L91.38 61.25L91.38 72.88L88.63 72.88L88.63 61.25ZM93.75 61.38L93.88 61.38Q94.63 61.25 95.56 61.19Q96.50 61.13 97.38 61.13L97.38 61.13Q97.50 61.13 97.56 61.13Q97.63 61.13 97.63 61.13L97.63 61.13Q97.75 61.13 97.94 61.13Q98.13 61.13 98.25 61.13L98.25 61.13Q99.50 61.13 100.63 61.50Q101.75 61.88 102.75 62.38L102.75 62.38Q103.75 63.13 104.31 64.19Q104.88 65.25 104.88 66.50L104.88 66.50Q104.88 66.63 104.88 66.69Q104.88 66.75 104.88 66.88L104.88 66.88Q104.88 66.88 104.88 66.94Q104.88 67 104.88 67.13L104.88 67.13Q104.88 68.38 104.31 69.56Q103.75 70.75 102.75 71.50L102.75 71.50Q101.75 72.25 100.44 72.63Q99.13 73 97.63 73L97.63 73Q97.50 73 97.31 73Q97.13 73 97 73L97 73Q97 73 96.94 73Q96.88 73 96.75 73L96.75 73Q96 73 95.25 72.94Q94.50 72.88 93.63 72.88L93.63 72.88L93.75 61.38ZM96.63 63.25L96.63 70.88Q96.88 70.88 97.06 70.94Q97.25 71 97.38 71L97.38 71Q97.50 71 97.56 71Q97.63 71 97.63 71L97.63 71Q99.63 71 100.75 70Q101.88 69 101.88 66.88L101.88 66.88Q101.88 65.13 100.81 64.13Q99.75 63.13 98 63.13L98 63.13Q97.88 63.13 97.88 63.13Q97.88 63.13 97.75 63.13L97.75 63.13Q97.50 63.13 97.19 63.19Q96.88 63.25 96.63 63.25L96.63 63.25ZM114.13 65.88L114.13 68L109.50 68L109.50 70.75L114.63 70.75L114.63 72.88L106.75 72.88L106.75 61.25L114.38 61.25L114.38 63.38L109.50 63.38L109.50 65.88L114.13 65.88ZM123 69.88L119.50 69.88L118.50 72.88L115.63 72.88L119.38 61.25L123.13 61.25L127 72.88L124 72.88L123 69.88ZM119.88 67.88L122.63 67.88L121.88 65.50Q121.63 64.88 121.50 64.31Q121.38 63.75 121.25 63.25L121.25 63.25L121.25 63.25Q121 63.75 120.88 64.31Q120.75 64.88 120.63 65.50L120.63 65.50L119.88 67.88ZM1 64.13L1 64.13Q1 65.50 2 66.38Q3 67.25 4.25 67.25L4.25 67.25Q4.25 67.25 4.31 67.25Q4.38 67.25 4.38 67.25L4.38 67.25Q5.75 67.25 6.63 66.38Q7.50 65.50 7.50 64.13L7.50 64.13Q7.50 62.88 6.63 61.94Q5.75 61 4.38 61L4.38 61Q4.38 61 4.31 61Q4.25 61 4.25 61L4.25 61Q3 61 2 61.88Q1 62.75 1 64.13L1 64.13ZM21.13 53L21.13 53Q19.75 53 18.94 54Q18.13 55 18.13 56.75L18.13 56.75L18.13 71.13Q18.13 72.88 18.94 73.88Q19.75 74.88 21.13 74.88L21.13 74.88Q22.63 74.88 23.38 73.88Q24.13 72.88 24.13 71.13L24.13 71.13L24.13 56.75Q24.13 55 23.31 54Q22.50 53 21.13 53ZM16 53.38L16 53.38L3.88 53.38Q3.75 53.38 3.75 53.38Q3.75 53.38 3.63 53.38L3.63 53.38Q2.50 53.38 1.69 54.19Q0.88 55 0.88 56.13L0.88 56.13Q0.88 57.25 1.69 58.06Q2.50 58.88 3.63 58.88L3.63 58.88Q3.75 58.88 3.75 58.88Q3.75 58.88 3.88 58.88L3.88 58.88L3.88 58.88L10 58.88L10 63.88Q10 63.88 10 63.94Q10 64 10 64L10 64L10 64Q10 64 10 64.06Q10 64.13 10 64.13L10 64.13Q9.88 66.38 8.31 67.88Q6.75 69.38 4.50 69.38L4.50 69.38Q4.50 69.38 4.44 69.38Q4.38 69.38 4.38 69.38L4.38 69.38L4.25 69.38L4 69.38Q2.88 69.38 2.06 70.19Q1.25 71 1.25 72.25L1.25 72.25Q1.25 73.38 2.06 74.19Q2.88 75 4 75L4 75L4.38 75Q9.13 75 12.56 71.81Q16 68.63 16 64.13L16 64.13Q16 64.13 16 64.13Q16 64.13 16 64L16 64L16 64Q16 63.88 16 63.38Q16 62.88 16 62.25L16 62.25L16 62.25Q16 62.25 16 57.88Q16 53.50 16 53.38Z"/></svg>