<svg xmlns="http://www.w3.org/2000/svg" xmlns:xlink="http://www.w3.org/1999/xlink" width="128" height="128"><path fill="#000000" d="M4.88 64.75L4.88 64.75Q4.88 71.88 9.94 76.94Q15 82 22.13 82L22.13 82Q29.25 82 34.31 76.94Q39.38 71.88 39.38 64.75L39.38 64.75Q39.38 57.63 34.31 52.56Q29.25 47.50 22.13 47.50L22.13 47.50Q22.13 47.50 22.13 47.50Q22.13 47.50 22.13 47.50L22.13 47.50Q15 47.50 9.94 52.56Q4.88 57.63 4.88 64.75L4.88 64.75ZM108 4L108 4Q100.88 4 96.88 9.44Q92.88 14.88 92.88 24.50L92.88 24.50L92.88 103.13Q92.88 112.75 96.88 118.19Q100.88 123.63 108 123.63L108 123.63Q115.13 123.63 119.13 118.19Q123.13 112.75 123.13 103.13L123.13 103.13L123.13 24.50Q123.13 14.88 119.13 9.44Q115.13 4 108 4L108 4ZM81.50 5.75L81.50 5.75L19.38 5.75Q13.25 6 9.06 10.31Q4.88 14.63 4.88 20.75L4.88 20.75Q4.88 26.88 9.06 31.25Q13.25 35.63 19.38 35.88L19.38 35.88L19.38 36L51.13 36L51.13 63.50Q51.13 63.75 51.13 63.88Q51.13 64 51.13 64.25L51.13 64.25L51.13 64.25Q51.13 64.38 51.13 64.50Q51.13 64.63 51.13 64.75L51.13 64.75Q51.13 70.75 48.88 76L48.88 76Q46.63 81.25 42.69 85.19Q38.75 89.13 33.38 91.50L33.38 91.50Q28.13 93.75 22.13 93.75L22.13 93.75Q22 93.75 21.75 93.75Q21.50 93.75 21.38 93.75L21.38 93.75L21.25 93.88Q21 93.88 20.63 93.81Q20.25 93.75 20 93.75L20 93.75Q13.75 93.75 9.31 98.19Q4.88 102.63 4.88 108.88L4.88 108.88Q4.88 115.13 9.31 119.56Q13.75 124 20 124L20 124Q20 124 20 124Q20 124 20 124L20 124Q20.38 124 20.69 124Q21 124 21.38 123.88L21.38 123.88L21.38 124L22.13 124Q34.38 124 45.25 119.38L45.25 119.38Q56 114.63 64.06 106.63Q72.13 98.63 76.75 87.75L76.75 87.75Q81.38 77 81.50 64.75L81.50 64.75Q81.50 64.63 81.50 64.50Q81.50 64.38 81.50 64.25L81.50 64.25L81.50 64.25Q81.50 63.25 81.50 60.69Q81.50 58.13 81.50 54.50L81.50 54.50Q81.50 54.50 81.50 54.44Q81.50 54.38 81.50 54.38L81.50 54.38Q81.50 54.38 81.50 47L81.50 47Q81.50 39.50 81.50 30.50Q81.50 21.50 81.50 13.88L81.50 13.88Q81.50 6.25 81.50 5.75L81.50 5.75Z"/></svg>