<svg xmlns="http://www.w3.org/2000/svg" xmlns:xlink="http://www.w3.org/1999/xlink" width="128" height="128"><path fill="#ffffff" d="M120.75 56.88L120.75 56.88Q120.63 55.38 120.31 53.56Q120 51.75 119.63 49.75L119.63 49.75Q119.13 47.63 118.31 45.50Q117.50 43.38 116.38 41.13L116.38 41.13Q115.25 38.88 113.81 36.50Q112.38 34.13 110.50 32L110.50 32Q109.75 31.13 108.94 30.25Q108.13 29.38 107.25 28.50L107.25 28.50Q108.63 23.38 106.94 19.44Q105.25 15.50 105.25 15.50L105.25 15.50Q100.13 15.25 97 16.56Q93.88 17.88 92.75 18.75L92.75 18.75Q92.63 18.63 92.38 18.56Q92.13 18.50 92 18.38L92 18.38Q91.13 18.13 90.25 17.75Q89.38 17.38 88.50 17.13L88.50 17.13Q87.63 16.88 86.69 16.56Q85.75 16.25 84.88 16.13L84.88 16.13Q84 15.88 83 15.69Q82 15.50 81 15.25L81 15.25Q80.88 15.25 80.69 15.25Q80.50 15.25 80.25 15.25L80.25 15.25Q78.25 8.25 73.69 5.13Q69.13 2 69.13 2L69.13 2Q61.88 6.63 59.81 11.50Q57.75 16.38 57.75 16.38L57.75 16.38Q57.75 16.38 57.69 16.50Q57.63 16.63 57.63 16.75L57.63 16.75Q57.13 16.88 56.81 17Q56.50 17.13 56.13 17.25L56.13 17.25Q55.63 17.38 55.06 17.56Q54.50 17.75 54 18L54 18L51.88 18.88Q50.88 19.38 49.81 19.88Q48.75 20.38 47.75 21L47.75 21Q46.75 21.63 45.75 22.19Q44.75 22.75 43.75 23.38L43.75 23.38Q43.63 23.38 43.56 23.31Q43.50 23.25 43.50 23.25L43.50 23.25Q33.88 19.50 26.56 21.88Q19.25 24.25 19.25 24.25L19.25 24.25Q18.50 34.50 21.63 40.69Q24.75 46.88 25.63 48.13L25.63 48.13Q25.38 48.75 25.13 49.38Q24.88 50 24.75 50.63L24.75 50.63Q24 52.88 23.44 55.31Q22.88 57.75 22.63 60.25L22.63 60.25Q22.50 60.50 22.50 60.88Q22.50 61.25 22.38 61.63L22.38 61.63Q13.50 66 10.25 72.81Q7 79.63 7 79.63L7 79.63Q14.38 88.13 21.44 89.94Q28.50 91.75 28.50 91.75L28.50 91.75Q29.50 93.63 30.81 95.56Q32.13 97.50 33.63 99.25L33.63 99.25Q34.25 100 34.88 100.69Q35.50 101.38 36.13 102.13L36.13 102.13Q33.38 109.88 35.06 115.50Q36.75 121.13 36.75 121.13L36.75 121.13Q45 121.38 50.25 118.69Q55.50 116 56.63 115L56.63 115Q57.38 115.25 58.25 115.50Q59.13 115.75 59.88 116L59.88 116Q62.50 116.63 65.06 117Q67.63 117.38 70.25 117.50L70.25 117.50L74.75 117.50Q78.63 123.13 83.88 124.56Q89.13 126 89.13 126L89.13 126Q94 120.88 95 116.44Q96 112 96 110.75L96 110.75L96 110.25Q97 109.50 98 108.69Q99 107.88 100 107.13L100 107.13Q102 105.38 103.63 103.31Q105.25 101.25 106.75 99.25L106.75 99.25Q107 99 107.06 98.75Q107.13 98.50 107.38 98.38L107.38 98.38Q113 98.75 116.44 96.25Q119.88 93.75 119.88 93.75L119.88 93.75Q119 88 116.56 85.13Q114.13 82.25 113.38 81.75L113.38 81.75L113.13 81.38Q113.13 81.13 113.19 80.75Q113.25 80.38 113.25 80L113.25 80Q113.25 79.38 113.25 78.75Q113.25 78.13 113.25 77.50L113.25 77.50L113.25 74.25Q113.25 74 113.25 73.88Q113.25 73.75 113.25 73.50L113.25 73.50L113 72.13Q112.88 71.38 112.75 70.81Q112.63 70.25 112.63 69.63L112.63 69.63Q112 67.13 111.06 64.75Q110.13 62.38 108.88 60.38L108.88 60.38Q107.50 58.25 105.94 56.38Q104.38 54.50 102.63 52.88L102.63 52.88Q100.75 51.38 98.75 50.06Q96.75 48.75 94.75 47.75L94.75 47.75Q92.50 46.88 90.38 46.25Q88.25 45.63 86 45.38L86 45.38Q85 45.25 83.81 45.25Q82.63 45.25 81.63 45.25L81.63 45.25L79.25 45.25Q78.75 45.25 78.19 45.31Q77.63 45.38 77.13 45.50L77.13 45.50Q74.88 46 72.81 46.75Q70.75 47.50 69 48.63L69 48.63Q67.25 49.63 65.63 51Q64 52.38 62.75 54L62.75 54Q61.38 55.63 60.38 57.25Q59.38 58.88 58.75 60.75L58.75 60.75Q58 62.38 57.63 64.25Q57.25 66.13 57.25 67.88L57.25 67.88L57.25 70.50Q57.25 70.75 57.25 70.94Q57.25 71.13 57.25 71.38L57.25 71.38Q57.38 72.25 57.56 73.13Q57.75 74 58 74.75L58 74.75Q58.50 76.50 59.25 77.94Q60 79.38 61 80.75L61 80.75Q62 82 63.13 83.06Q64.25 84.13 65.38 84.88L65.38 84.88Q66.63 85.75 67.88 86.31Q69.13 86.88 70.50 87.25L70.50 87.25Q71.88 87.63 73.06 87.88Q74.25 88.13 75.50 88L75.50 88L77.75 88Q78 88 78.13 87.94Q78.25 87.88 78.38 87.88L78.38 87.88Q78.50 87.88 78.63 87.81Q78.75 87.75 79 87.75L79 87.75Q79.25 87.75 79.56 87.69Q79.88 87.63 80.13 87.50L80.13 87.50Q80.63 87.38 81.13 87.13Q81.63 86.88 82.13 86.75L82.13 86.75Q82.63 86.50 83 86.19Q83.38 85.88 83.75 85.75L83.75 85.75Q83.88 85.63 84 85.56Q84.13 85.50 84.25 85.38L84.25 85.38Q84.63 85.13 84.69 84.56Q84.75 84 84.38 83.63L84.38 83.63Q84.13 83.25 83.63 83.19Q83.13 83.13 82.75 83.25L82.75 83.25Q82.63 83.38 82.56 83.38Q82.50 83.38 82.25 83.50L82.25 83.50Q82 83.63 81.63 83.81Q81.25 84 80.88 84.13L80.88 84.13Q80.50 84.13 80.06 84.25Q79.63 84.38 79.25 84.50L79.25 84.50Q79 84.50 78.75 84.56Q78.50 84.63 78.25 84.63L78.25 84.63L76.50 84.63Q76.50 84.63 76.44 84.63Q76.38 84.63 76.50 84.63L76.50 84.63L75.75 84.63Q75.75 84.63 75.63 84.63Q75.50 84.63 75.38 84.50L75.38 84.50Q74.50 84.38 73.56 84.06Q72.63 83.75 71.75 83.38L71.75 83.38Q70.75 83 69.88 82.44Q69 81.88 68.25 81.13L68.25 81.13Q67.50 80.38 66.81 79.50Q66.13 78.63 65.50 77.75L65.50 77.75Q64.88 76.75 64.56 75.63Q64.25 74.50 64.13 73.50L64.13 73.50Q64 72.88 63.94 72.31Q63.88 71.75 64 71.25L64 71.25L64 70.50Q64 70.63 64 70.56Q64 70.50 64 70.50L64 70.50L64 70Q64 69.75 64.06 69.44Q64.13 69.13 64.25 68.75L64.25 68.75Q64.63 66.38 65.81 64.06Q67 61.75 68.88 59.88L68.88 59.88Q69.38 59.38 69.88 59Q70.38 58.63 71 58.25L71 58.25Q71.63 57.75 72.19 57.44Q72.75 57.13 73.25 56.88L73.25 56.88Q73.88 56.63 74.56 56.38Q75.25 56.13 75.75 56L75.75 56Q76.50 55.88 77.13 55.75Q77.75 55.63 78.38 55.63L78.38 55.63Q78.75 55.63 79.06 55.56Q79.38 55.50 79.75 55.50L79.75 55.50L80.50 55.50Q80.63 55.50 80.56 55.50Q80.50 55.50 80.50 55.50L80.50 55.50L80.88 55.50Q81.63 55.63 82.38 55.69Q83.13 55.75 83.75 55.88L83.75 55.88Q85.25 56.25 86.63 56.75Q88 57.25 89.25 58L89.25 58Q91.88 59.50 94.06 61.69Q96.25 63.88 97.63 66.63L97.63 66.63Q98.25 68 98.75 69.44Q99.25 70.88 99.50 72.38L99.50 72.38Q99.63 72.88 99.63 73.19Q99.63 73.50 99.75 73.88L99.75 73.88L99.75 76.63Q99.75 77 99.69 77.44Q99.63 77.88 99.63 78.25L99.63 78.25Q99.50 78.75 99.50 79.13Q99.50 79.50 99.38 80L99.38 80Q99.38 80.50 99.25 80.88Q99.13 81.25 99.13 81.75L99.13 81.75Q99 82.13 98.69 83.13Q98.38 84.13 98.13 84.88L98.13 84.88Q97.88 85.75 96.88 87.56Q95.88 89.38 94.88 90.75L94.88 90.75Q93 93.38 90.31 95.56Q87.63 97.75 84.63 99.25L84.63 99.25Q83 99.88 81.44 100.44Q79.88 101 78.25 101.25L78.25 101.25Q77.38 101.38 76.56 101.44Q75.75 101.50 74.88 101.50L74.88 101.50L73.25 101.50Q73.38 101.50 73.31 101.50Q73.25 101.50 73.25 101.50L73.25 101.50L73.25 101.50Q72.75 101.50 72.31 101.50Q71.88 101.50 71.38 101.38L71.38 101.38Q69.63 101.25 67.88 100.88Q66.13 100.50 64.38 100.13L64.38 100.13Q62.63 99.63 61 99Q59.38 98.38 57.75 97.50L57.75 97.50Q54.63 95.88 51.88 93.56Q49.13 91.25 46.88 88.50L46.88 88.50Q45.88 87.13 44.88 85.63Q43.88 84.13 43 82.63L43 82.63Q42.13 81.13 41.56 79.44Q41 77.75 40.50 76.13L40.50 76.13Q40 74.50 39.75 72.75Q39.50 71 39.38 69.25L39.38 69.25L39.38 65.75Q39.38 65 39.44 64.13Q39.50 63.25 39.75 62.25L39.75 62.25Q39.75 61.38 39.94 60.56Q40.13 59.75 40.25 58.75L40.25 58.75Q40.50 57.88 40.75 57.06Q41 56.25 41.25 55.25L41.25 55.25Q41.75 53.63 42.31 51.94Q42.88 50.25 43.63 48.75L43.63 48.75Q45.13 45.50 47 42.75Q48.88 40 51.13 37.75L51.13 37.75Q51.75 37.25 52.31 36.75Q52.88 36.25 53.50 35.75L53.50 35.75Q53.75 35.50 54.31 35.06Q54.88 34.63 55.50 34.25L55.50 34.25Q56.13 33.88 56.81 33.44Q57.50 33 58.25 32.75L58.25 32.75Q58.63 32.50 59 32.38Q59.38 32.25 59.75 32L59.75 32Q59.88 31.88 60.06 31.81Q60.25 31.75 60.50 31.75L60.50 31.75Q60.63 31.63 60.81 31.56Q61 31.50 61.25 31.38L61.25 31.38Q62 31.13 62.75 30.81Q63.50 30.50 64.25 30.25L64.25 30.25Q64.50 30.25 64.75 30.19Q65 30.13 65.13 30.13L65.13 30.13Q65.25 30 65.50 30Q65.75 30 65.88 29.88L65.88 29.88Q66 29.88 66.50 29.75Q67 29.63 67.38 29.50L67.38 29.50Q67.50 29.38 67.75 29.38Q68 29.38 68.25 29.25L68.25 29.25Q68.38 29.25 68.63 29.25Q68.88 29.25 69 29.25L69 29.25Q69.13 29.25 69.38 29.19Q69.63 29.13 69.75 29.13L69.75 29.13L70.63 28.88Q70.75 28.88 71 28.81Q71.25 28.75 71.38 28.75L71.38 28.75Q71.63 28.75 71.88 28.75Q72.13 28.75 72.25 28.75L72.25 28.75Q72.50 28.75 72.75 28.69Q73 28.63 73.25 28.63L73.25 28.63Q73.38 28.63 73.50 28.63Q73.63 28.63 73.75 28.50L73.75 28.50L74.50 28.50Q74.75 28.50 74.94 28.50Q75.13 28.50 75.38 28.38L75.38 28.38L75.75 28.38Q75.75 28.38 75.81 28.38Q75.88 28.38 75.75 28.38L75.75 28.38L79.88 28.38Q81.38 28.50 82.88 28.63Q84.38 28.75 85.75 29.13L85.75 29.13Q88.50 29.63 91.19 30.50Q93.88 31.38 96.25 32.63L96.25 32.63Q98.75 33.75 100.94 35.19Q103.13 36.63 104.88 38.25L104.88 38.25Q105 38.25 105.13 38.38Q105.25 38.50 105.25 38.63L105.25 38.63Q105.38 38.63 105.50 38.75Q105.63 38.88 105.75 39L105.75 39Q105.88 39.13 106.13 39.38Q106.38 39.63 106.63 39.75L106.63 39.75Q106.88 40 107.06 40.25Q107.25 40.50 107.50 40.63L107.50 40.63Q107.63 40.88 107.88 41.06Q108.13 41.25 108.25 41.50L108.25 41.50Q109.13 42.38 109.88 43.25Q110.63 44.13 111.25 44.88L111.25 44.88Q112.63 46.63 113.69 48.31Q114.75 50 115.63 51.75L115.63 51.75Q115.63 51.75 115.69 51.88Q115.75 52 115.75 52.13L115.75 52.13Q115.88 52.13 115.88 52.25Q115.88 52.38 116 52.50L116 52.50Q116.13 52.63 116.19 52.88Q116.25 53.13 116.38 53.25L116.38 53.25Q116.50 53.50 116.56 53.75Q116.63 54 116.75 54.13L116.75 54.13Q116.75 54.25 116.81 54.50Q116.88 54.75 117 54.88L117 54.88Q117.25 55.63 117.56 56.38Q117.88 57.13 118.13 57.88L118.13 57.88Q118.50 59 118.81 60.06Q119.13 61.13 119.25 61.88L119.25 61.88Q119.38 62.25 119.69 62.50Q120 62.75 120.25 62.75L120.25 62.75Q120.75 62.75 121 62.44Q121.25 62.13 121.25 61.75L121.25 61.75Q121 60.38 120.94 59.25Q120.88 58.13 120.75 56.88L120.75 56.88Z"/></svg>