<svg xmlns="http://www.w3.org/2000/svg" xmlns:xlink="http://www.w3.org/1999/xlink" width="128" height="128"><path fill="#ffffff" d="M27.75 114L27.75 114Q27.63 119 24.06 122.50Q20.50 126 15.50 126L15.50 126Q10.25 126 6.75 122.31Q3.25 118.63 3.25 113.50L3.25 113.50Q3.25 108.38 6.94 104.69Q10.63 101 15.75 101L15.75 101Q18.13 101 20.31 102Q22.50 103 24.50 104.75L24.50 104.75L22.50 107.25Q21 105.88 19.31 105.06Q17.63 104.25 15.75 104.25L15.75 104.25Q12 104.25 9.31 106.94Q6.63 109.63 6.63 113.50L6.63 113.50Q6.63 117.38 9.19 120.06Q11.75 122.75 15.50 122.75L15.50 122.75Q18.75 122.75 21.19 120.56Q23.63 118.38 24.25 115.25L24.25 115.25L14.13 115.25L14.13 112.25L27.75 112.25L27.75 114ZM40.63 109L39.25 112.25L37.38 112.25Q35.88 112.25 34.81 113.38Q33.75 114.50 33.75 116L33.75 116L33.75 125.75L30.38 125.75L30.38 109L33.13 109L33.13 110.38Q33.75 109.75 34.75 109.38Q35.75 109 37 109L37 109L40.63 109ZM57.63 125.75L57.63 125.75L54.75 125.75L54.75 123.63Q53 125.13 50.63 125.75Q48.25 126.38 45.63 125.25L45.63 125.25Q43.63 124.38 42.31 122.69Q41 121 40.63 118.88L40.63 118.88Q39.88 114.88 42.50 111.81Q45.13 108.75 49 108.75L49 108.75Q50.63 108.75 52.13 109.44Q53.63 110.13 54.75 111.25L54.75 111.25L54.75 109.13L57.63 109.13L57.63 125.75ZM54.25 118.75L54.25 118.75Q54.75 116.13 53.19 114.19Q51.63 112.25 49.13 112.25L49.13 112.25Q46.88 112.25 45.38 113.75Q43.88 115.25 43.88 117.38L43.88 117.38Q43.88 119.75 45.69 121.38Q47.50 123 50 122.63L50 122.63Q51.38 122.38 52.63 121.25Q53.88 120.13 54.25 118.75ZM64.25 108.25L64.25 108.25L64.25 109.13L69.50 109.13L69.50 112L64.25 112L64.25 125.75L61 125.75L61 108.25Q61 105.38 62.75 103.88Q64.50 102.38 67 102.38L67 102.38L71 102.38L69.63 105.63L67 105.63Q65.75 105.63 65 106.38Q64.25 107.13 64.25 108.25L64.25 108.25ZM87.25 125.75L87.25 125.75L84.38 125.75L84.38 123.63Q82.75 125.13 80.31 125.75Q77.88 126.38 75.25 125.25L75.25 125.25Q73.38 124.38 72 122.69Q70.63 121 70.25 118.88L70.25 118.88Q69.50 114.88 72.13 111.81Q74.75 108.75 78.75 108.75L78.75 108.75Q80.38 108.75 81.88 109.44Q83.38 110.13 84.38 111.25L84.38 111.25L84.38 109.13L87.25 109.13L87.25 125.75ZM83.75 118.75L83.75 118.75Q84.38 116.13 82.75 114.19Q81.13 112.25 78.75 112.25L78.75 112.25Q76.50 112.25 75 113.75Q73.50 115.25 73.50 117.38L73.50 117.38Q73.50 119.75 75.31 121.38Q77.13 123 79.63 122.63L79.63 122.63Q81.13 122.38 82.25 121.25Q83.38 120.13 83.75 118.75ZM105 116L105 116L105 125.75L101.75 125.75L101.75 115.88Q101.75 114.38 100.63 113.31Q99.50 112.25 98 112.25L98 112.25Q96.38 112.25 95.31 113.31Q94.25 114.38 94.25 115.88L94.25 115.88L94.25 125.75L91 125.75L91 109.13L93.75 109.13L93.75 110.50Q94.63 109.63 95.75 109.19Q96.88 108.75 98.13 108.75L98.13 108.75Q101 108.88 103 110.94Q105 113 105 116L105 116ZM124.63 125.75L124.63 125.75L121.75 125.75L121.75 123.63Q120.13 125.13 117.75 125.75Q115.38 126.38 112.75 125.25L112.75 125.25Q110.75 124.38 109.44 122.69Q108.13 121 107.75 118.88L107.75 118.88Q107 114.88 109.63 111.81Q112.25 108.75 116.13 108.75L116.13 108.75Q117.75 108.75 119.25 109.44Q120.75 110.13 121.75 111.25L121.75 111.25L121.75 109.13L124.75 109.13L124.63 125.75ZM121.25 118.75L121.25 118.75Q121.75 116.13 120.19 114.19Q118.63 112.25 116.13 112.25L116.13 112.25Q113.88 112.25 112.38 113.75Q110.88 115.25 110.88 117.38L110.88 117.38Q110.88 119.75 112.69 121.38Q114.50 123 117 122.63L117 122.63Q118.63 122.38 119.75 121.25Q120.88 120.13 121.25 118.75ZM108 44.50L108 44.50Q107.88 43.25 107.69 41.88Q107.50 40.50 107.13 39L107.13 39Q106.75 37.50 106.06 35.81Q105.38 34.13 104.63 32.38L104.63 32.38Q103.75 30.63 102.63 28.81Q101.50 27 100 25.25L100 25.25Q99.38 24.63 98.75 23.94Q98.13 23.25 97.50 22.63L97.50 22.63Q98.50 18.50 97.19 15.56Q95.88 12.63 95.88 12.63L95.88 12.63Q92 12.38 89.63 13.38Q87.25 14.38 86.25 15.13L86.25 15.13L85.75 14.75Q85 14.63 84.31 14.31Q83.63 14 83 13.75L83 13.75Q82.38 13.63 81.63 13.38Q80.88 13.13 80.25 13L80.25 13Q79.50 12.75 78.75 12.63Q78 12.50 77.25 12.38L77.25 12.38Q77 12.38 76.94 12.31Q76.88 12.25 76.75 12.25L76.75 12.25Q75 6.88 71.50 4.44Q68 2 68 2L68 2Q62.50 5.63 60.81 9.44Q59.13 13.25 59.13 13.25L59.13 13.25Q59.13 13.25 59.13 13.31Q59.13 13.38 59 13.50L59 13.50Q58.75 13.63 58.44 13.69Q58.13 13.75 57.75 13.75L57.75 13.75Q57.38 14 57 14.06Q56.63 14.13 56.25 14.38L56.25 14.38Q55.88 14.63 55.44 14.75Q55 14.88 54.63 15.13L54.63 15.13Q53.75 15.50 53 15.88Q52.25 16.25 51.38 16.75L51.38 16.75Q50.63 17.13 49.88 17.63Q49.13 18.13 48.38 18.63L48.38 18.63Q48.25 18.50 48.19 18.44Q48.13 18.38 48.13 18.38L48.13 18.38Q40.63 15.50 34.94 17.38Q29.25 19.25 29.25 19.25L29.25 19.25Q28.75 27.13 31.13 31.94Q33.50 36.75 34.25 37.75L34.25 37.75Q34 38.25 33.88 38.69Q33.75 39.13 33.50 39.75L33.50 39.75Q32.88 41.50 32.50 43.38Q32.13 45.25 31.88 47.13L31.88 47.13Q31.88 47.38 31.81 47.69Q31.75 48 31.75 48.25L31.75 48.25Q24.88 51.63 22.31 56.81Q19.75 62 19.75 62L19.75 62Q25.63 68.63 31.06 70Q36.50 71.38 36.50 71.38L36.50 71.38Q37.38 72.88 38.38 74.38Q39.38 75.88 40.38 77.25L40.38 77.25Q40.88 77.75 41.38 78.25Q41.88 78.75 42.38 79.38L42.38 79.38Q40.25 85.38 41.50 89.75Q42.75 94.13 42.75 94.13L42.75 94.13Q49.25 94.38 53.25 92.25Q57.25 90.13 58.25 89.38L58.25 89.38Q58.88 89.63 59.50 89.81Q60.13 90 60.75 90.25L60.75 90.25Q62.75 90.75 64.81 91.06Q66.88 91.38 68.75 91.38L68.75 91.38L72.25 91.38Q75.25 95.75 79.31 96.88Q83.38 98 83.38 98L83.38 98Q87.13 94 87.94 90.56Q88.75 87.13 88.75 86.25L88.75 86.25L88.75 85.63Q89.50 85 90.31 84.44Q91.13 83.88 91.88 83.25L91.88 83.25Q93.38 81.88 94.69 80.31Q96 78.75 97.25 77.13L97.25 77.13Q97.38 77 97.44 76.81Q97.50 76.63 97.63 76.50L97.63 76.50Q101.88 76.75 104.56 74.81Q107.25 72.88 107.25 72.88L107.25 72.88Q106.63 68.38 104.75 66.13Q102.88 63.88 102.25 63.50L102.25 63.50L102 63.25Q102 63 102.06 62.69Q102.13 62.38 102.13 62.13L102.13 62.13Q102.13 61.63 102.19 61.13Q102.25 60.63 102.25 60.13L102.25 60.13L102.25 57.63Q102.25 57.50 102.19 57.38Q102.13 57.25 102.13 57.13L102.13 57.13L101.88 56.13Q101.88 55.63 101.75 55.13Q101.63 54.63 101.63 54.13L101.63 54.13Q101.13 52.13 100.38 50.31Q99.63 48.50 98.75 46.88L98.75 46.88Q97.63 45.25 96.44 43.81Q95.25 42.38 93.75 41.13L93.75 41.13Q92.38 39.88 90.88 38.88Q89.38 37.88 87.75 37.25L87.75 37.25Q86 36.50 84.38 36Q82.75 35.50 81 35.25L81 35.25Q80.13 35.13 79.25 35.13Q78.38 35.13 77.63 35.13L77.63 35.13L75.88 35.13Q75.50 35.13 75.06 35.25Q74.63 35.38 74.25 35.38L74.25 35.38Q72.50 35.75 70.94 36.38Q69.38 37 67.88 37.75L67.88 37.75Q66.50 38.63 65.25 39.69Q64 40.75 63 42L63 42Q62 43.25 61.19 44.50Q60.38 45.75 59.88 47.25L59.88 47.25Q59.38 48.50 59.06 49.94Q58.75 51.38 58.75 52.75L58.75 52.75L58.75 54.75Q58.75 54.88 58.75 55Q58.75 55.13 58.75 55.38L58.75 55.38Q58.88 56.13 59 56.75Q59.13 57.38 59.25 58L59.25 58Q59.63 59.25 60.25 60.38Q60.88 61.50 61.63 62.63L61.63 62.63Q62.38 63.63 63.19 64.44Q64 65.25 65 65.75L65 65.75Q66 66.50 66.94 66.94Q67.88 67.38 68.88 67.75L68.88 67.75Q69.88 68.13 70.81 68.19Q71.75 68.25 72.75 68.25L72.75 68.25L74.63 68.25Q74.75 68.25 74.81 68.19Q74.88 68.13 75 68.13L75 68.13Q75.13 68.13 75.25 68.06Q75.38 68 75.38 68L75.38 68L76.25 67.75L77.75 67.13Q78.13 66.88 78.44 66.69Q78.75 66.50 79.13 66.25L79.13 66.25Q79.13 66.25 79.25 66.19Q79.38 66.13 79.38 66L79.38 66Q79.75 65.75 79.81 65.38Q79.88 65 79.63 64.63L79.63 64.63Q79.38 64.38 79 64.31Q78.63 64.25 78.25 64.25L78.25 64.25Q78.25 64.88 78.19 64.94Q78.13 65 78 65.13L78 65.13Q77.75 65.25 77.44 65.31Q77.13 65.38 76.88 65.50L76.88 65.50Q76.63 65.63 76.25 65.69Q75.88 65.75 75.63 65.75L75.63 65.75Q75.38 65.75 75.25 65.81Q75.13 65.88 74.88 65.88L74.88 65.88L73.63 65.88Q73.63 65.88 73.56 65.88Q73.50 65.88 73.63 65.88L73.63 65.88L73.25 65.88Q73.13 65.88 73 65.88Q72.88 65.88 72.88 65.75L72.88 65.75Q72.25 65.63 71.44 65.44Q70.63 65.25 70 64.88L70 64.88Q69.38 64.63 68.63 64.19Q67.88 63.75 67.38 63.13L67.38 63.13Q66.75 62.50 66.25 61.88Q65.75 61.25 65.25 60.50L65.25 60.50Q64.88 59.75 64.63 58.94Q64.38 58.13 64.25 57.25L64.25 57.25Q64.13 56.88 64.06 56.44Q64 56 64.13 55.50L64.13 55.50L64.13 55Q64.13 55.13 64.13 55.06Q64.13 55 64.13 55L64.13 55L64.13 54.63Q64.13 54.38 64.19 54.13Q64.25 53.88 64.25 53.75L64.25 53.75Q64.63 51.75 65.56 50Q66.50 48.25 68 46.75L68 46.75Q68.38 46.38 68.75 46.06Q69.13 45.75 69.63 45.50L69.63 45.50Q70 45.25 70.50 44.94Q71 44.63 71.38 44.50L71.38 44.50Q71.88 44.25 72.38 44.13Q72.88 44 73.38 43.75L73.38 43.75Q73.88 43.63 74.44 43.56Q75 43.50 75.38 43.50L75.38 43.50Q75.63 43.50 75.88 43.44Q76.13 43.38 76.38 43.38L76.38 43.38L77.25 43.38Q77.25 43.38 77.25 43.38Q77.25 43.38 77.25 43.38L77.25 43.38L77.25 43.38Q77.88 43.50 78.44 43.56Q79 43.63 79.50 43.75L79.50 43.75Q80.50 43.88 81.63 44.31Q82.75 44.75 83.75 45.25L83.75 45.25Q85.88 46.38 87.50 48.06Q89.13 49.75 90.25 51.88L90.25 51.88Q90.75 53 91.13 54.13Q91.50 55.25 91.63 56.38L91.63 56.38Q91.63 56.75 91.69 57Q91.75 57.25 91.75 57.63L91.75 57.63L91.75 60Q91.75 60.25 91.75 60.63Q91.75 61 91.75 61.25L91.75 61.25Q91.63 61.63 91.63 61.94Q91.63 62.25 91.50 62.63L91.50 62.63Q91.38 62.88 91.31 63.25Q91.25 63.63 91.25 63.88L91.25 63.88Q91.13 64.25 90.88 65Q90.63 65.75 90.38 66.38L90.38 66.38Q90.13 67.13 89.44 68.50Q88.75 69.88 87.88 70.88L87.88 70.88Q86.38 73 84.31 74.69Q82.25 76.38 79.88 77.50L79.88 77.50Q78.75 78 77.50 78.44Q76.25 78.88 75 79L75 79Q74.38 79.13 73.75 79.19Q73.13 79.25 72.38 79.25L72.38 79.25L71 79.25Q71.13 79.25 71.06 79.25Q71 79.25 71 79.25L71 79.25L70.88 79.25Q70.63 79.25 70.25 79.25Q69.88 79.25 69.50 79.25L69.50 79.25Q68.13 79 66.75 78.81Q65.38 78.63 64 78.25L64 78.25Q62.63 77.88 61.38 77.31Q60.13 76.75 58.88 76.25L58.88 76.25Q56.50 74.88 54.38 73.06Q52.25 71.25 50.50 69.25L50.50 69.25Q49.63 68.13 48.88 66.94Q48.13 65.75 47.50 64.63L47.50 64.63Q46.88 63.38 46.44 62.13Q46 60.88 45.50 59.63L45.50 59.63Q45.13 58.38 44.88 57Q44.63 55.63 44.63 54.25L44.63 54.25L44.63 51.25Q44.63 50.63 44.69 49.94Q44.75 49.25 44.88 48.63L44.88 48.63Q45 47.88 45.13 47.25Q45.25 46.63 45.25 45.88L45.25 45.88Q45.38 45.25 45.56 44.56Q45.75 43.88 46 43.25L46 43.25Q46.38 41.88 46.81 40.56Q47.25 39.25 47.88 38.13L47.88 38.13Q49 35.75 50.50 33.56Q52 31.38 53.75 29.75L53.75 29.75Q54.13 29.25 54.63 28.88Q55.13 28.50 55.63 28.13L55.63 28.13Q55.88 27.88 56.25 27.56Q56.63 27.25 57.13 26.88L57.13 26.88Q57.63 26.63 58.13 26.25Q58.63 25.88 59.25 25.75L59.25 25.75Q59.38 25.50 59.69 25.44Q60 25.38 60.25 25.25L60.25 25.25Q60.50 25.13 60.56 25.06Q60.63 25 60.88 24.88L60.88 24.88Q61 24.88 61.13 24.75Q61.25 24.63 61.50 24.63L61.50 24.63Q62.13 24.38 62.69 24.13Q63.25 23.88 63.75 23.75L63.75 23.75Q64 23.63 64.13 23.63Q64.25 23.63 64.38 23.50L64.38 23.50Q64.50 23.38 64.69 23.38Q64.88 23.38 65 23.25L65 23.25L66.25 23Q66.38 22.88 66.50 22.88Q66.63 22.88 66.75 22.75L66.75 22.75Q67 22.75 67.13 22.75Q67.25 22.75 67.38 22.75L67.38 22.75Q67.50 22.75 67.69 22.69Q67.88 22.63 68 22.63L68 22.63L68.63 22.38Q68.75 22.38 68.88 22.31Q69 22.25 69.25 22.25L69.25 22.25Q69.38 22.25 69.50 22.25Q69.63 22.25 69.88 22.25L69.88 22.25Q70 22.25 70.25 22.19Q70.50 22.13 70.63 22.13L70.63 22.13Q70.75 22.13 70.81 22.13Q70.88 22.13 71 22L71 22L72 22Q72.25 22 72.38 22Q72.50 22 72.75 21.88L72.75 21.88L73 21.88Q73 21.88 73.06 21.88Q73.13 21.88 73 21.88L73 21.88L76.25 21.88Q77.38 22 78.50 22.13Q79.63 22.25 80.75 22.38L80.75 22.38Q82.88 22.75 84.94 23.44Q87 24.13 88.88 25.13L88.88 25.13Q90.75 26 92.44 27.13Q94.13 28.25 95.50 29.38L95.50 29.38Q95.63 29.50 95.69 29.56Q95.75 29.63 95.75 29.75L95.75 29.75Q95.88 29.75 96 29.81Q96.13 29.88 96.13 30L96.13 30Q96.38 30.13 96.50 30.31Q96.63 30.50 96.75 30.63L96.75 30.63Q97 30.75 97.13 30.88Q97.25 31 97.50 31.25L97.50 31.25Q97.63 31.38 97.81 31.50Q98 31.63 98.13 31.88L98.13 31.88Q98.75 32.63 99.31 33.25Q99.88 33.88 100.38 34.50L100.38 34.50Q101.50 35.88 102.31 37.19Q103.13 38.50 103.75 39.75L103.75 39.75Q103.75 39.88 103.81 39.94Q103.88 40 103.88 40.13L103.88 40.13Q104 40.13 104 40.25Q104 40.38 104.13 40.38L104.13 40.38L105 42.25Q105.25 42.75 105.44 43.31Q105.63 43.88 105.88 44.50L105.88 44.50Q106.25 45.38 106.44 46.13Q106.63 46.88 106.75 47.63L106.75 47.63Q106.88 47.88 107.06 48.06Q107.25 48.25 107.63 48.25L107.63 48.25Q107.88 48.25 108.06 48Q108.25 47.75 108.25 47.38L108.25 47.38Q108.13 47 108.13 46.25Q108.13 45.50 108 44.50L108 44.50Z"/></svg>