<svg xmlns="http://www.w3.org/2000/svg" xmlns:xlink="http://www.w3.org/1999/xlink" width="128" height="128"><path fill="#ffffff" d="M45.88 2.25L45.88 2.25Q38.63 3 31.88 6L31.88 6Q25.13 9.13 19.44 14.13Q13.75 19.13 9.25 25.75L9.25 25.75Q4.75 32.50 2 40.50L2 40.50Q0.25 45.38 0.25 45.94Q0.25 46.50 2 42.75L2 42.75Q5.88 34.25 11.19 28.13Q16.50 22 23.50 17.88L23.50 17.88Q29.13 14.50 34.81 13.13Q40.50 11.75 47.13 12L47.13 12Q52.50 12.25 56.81 13.50Q61.13 14.75 65.63 17.25L65.63 17.25L69.88 19.63L75.63 17Q77.88 15.88 79.56 14.94Q81.25 14 81.25 13.88L81.25 13.88Q81.25 13.75 80.25 12.88Q79.25 12 77.75 10.88L77.75 10.88Q71 6 62.50 3.69Q54 1.38 45.88 2.25L45.88 2.25ZM89.75 11.38L89.75 11.38Q87.75 12.38 86.13 13.13Q84.50 13.88 84.38 14L84.38 14Q84.13 14 84.94 15.06Q85.75 16.13 87.13 17.63L87.13 17.63Q93.38 24.50 97.38 33.25L97.38 33.25Q101.38 42.13 102.94 51.69Q104.50 61.25 103.50 71.25L103.50 71.25Q102.50 81.13 98.75 90.25L98.75 90.25Q96.13 96.88 92.50 102.38L92.50 102.38Q88.88 107.88 84.38 112.19Q79.88 116.50 74.38 119.63L74.38 119.63Q69 122.88 62.63 124.88L62.63 124.88Q60.63 125.50 62.06 125.38Q63.50 125.25 66.75 124.50L66.75 124.50Q75.75 122.38 83.50 117.50L83.50 117.50Q91.25 112.50 97.25 105.19Q103.25 97.88 107.25 88.63L107.25 88.63Q111.25 79.38 112.75 68.63L112.75 68.63Q113.50 64 113.38 56.38Q113.25 48.75 112.38 44.25L112.38 44.25Q110.63 35.25 107.19 27.38Q103.75 19.50 98.25 12.13L98.25 12.13Q97.25 10.75 96.31 9.75Q95.38 8.75 95.13 8.75L95.13 8.75Q95 8.75 93.38 9.50Q91.75 10.25 89.75 11.38L89.75 11.38ZM76.38 17.50L76.38 17.50Q74.25 18.50 72.69 19.38Q71.13 20.25 71.13 20.38L71.13 20.38Q71.13 20.50 71.81 21.13Q72.50 21.75 73.38 22.50L73.38 22.50Q79 27.13 83.94 35.06Q88.88 43 91.13 51.25L91.13 51.25Q93.38 59.63 93.25 69.38Q93.13 79.13 90.63 87.38L90.63 87.38Q88.63 94 85.38 99.88L85.38 99.88Q82 105.63 77.75 110.25Q73.50 114.88 68.25 118.25L68.25 118.25Q63.13 121.63 57.25 123.50L57.25 123.50Q54.13 124.50 54.81 124.63Q55.50 124.75 59.50 123.88L59.50 123.88Q65.63 122.63 71.25 119.63L71.25 119.63Q76.88 116.75 81.69 112.56Q86.50 108.38 90.50 102.88L90.50 102.88Q94.38 97.38 97.13 91L97.13 91Q100 84.13 101.31 77.69Q102.63 71.25 102.63 63.38L102.63 63.38Q102.63 53.38 100.19 44.38Q97.75 35.38 92.88 27.38L92.88 27.38Q90.88 24.25 86.88 19.50Q82.88 14.75 82.25 14.88L82.25 14.88Q82 14.88 80.31 15.63Q78.63 16.38 76.38 17.50L76.38 17.50ZM39.13 20.25L39.13 28Q39.13 33.63 39.25 34.69Q39.38 35.75 40 35.75L40 35.75Q40.63 35.75 40.75 35.25Q40.88 34.75 40.88 32.63L40.88 32.63Q40.88 31.25 41.06 30.19Q41.25 29.13 41.38 29L41.38 29Q42 28.63 43.19 29.81Q44.38 31 45.63 33.13L45.63 33.13Q46.50 34.63 47 35.19Q47.50 35.75 48.13 35.75L48.13 35.75L49.25 35.75L48.25 33.88Q47.88 33.13 47.25 32.06Q46.63 31 46.13 30.25L46.13 30.25L44.88 28.50L45.88 27.13Q47 25.63 46.94 24.31Q46.88 23 45.75 21.63L45.75 21.63Q44.88 20.75 44.25 20.50Q43.63 20.25 41.88 20.25L41.88 20.25L39.13 20.25ZM44.25 22.88L44.25 22.88Q44.50 23.13 44.63 23.56Q44.75 24 44.75 24.50L44.75 24.50Q44.75 25.63 44.19 26.19Q43.63 26.75 42.38 26.75L42.38 26.75Q41.25 26.75 41.06 26.44Q40.88 26.13 40.88 24.50L40.88 24.50Q40.88 22.88 41.06 22.56Q41.25 22.25 42.38 22.25L42.38 22.25Q42.88 22.25 43.44 22.44Q44 22.63 44.25 22.88ZM54.25 21.75L54.25 21.75Q51.88 22.88 50.69 24.75Q49.50 26.63 49.50 29.50L49.50 29.50Q49.50 32.88 51.38 35Q53.25 37.13 56.50 37.50L56.50 37.50Q58 37.75 58.50 37.63Q59 37.50 59.38 37L59.38 37Q60.13 35.88 59.88 35.56Q59.63 35.25 58.25 35.50L58.25 35.50Q56.50 35.88 54.56 34.81Q52.63 33.75 51.88 32L51.88 32Q51.13 30.25 51.44 28.38Q51.75 26.50 53 25L53 25Q54.50 23.38 56.88 23.56Q59.25 23.75 61.13 25.75L61.13 25.75Q61.88 26.50 62 26.50Q62.13 26.50 62.38 25.63L62.38 25.63Q62.63 24.63 62.25 24.06Q61.88 23.50 60.50 22.63L60.50 22.63Q58.75 21.63 57.19 21.44Q55.63 21.25 54.25 21.75L54.25 21.75ZM27.38 23.13L27.38 23Q27.38 23.38 27.19 25.31Q27 27.25 26.75 29.63L26.75 29.63Q26.50 32.13 26.31 34.50Q26.13 36.88 26 37.75L26 37.75Q25.88 39.25 25.94 39.63Q26 40 26.63 40L26.63 40Q27.25 40 27.63 38.81Q28 37.63 28 35.63L28 35.63Q28 34.88 28.50 34.50Q29 34.13 30.75 33.63L30.75 33.63L33.38 32.63L34.75 34.50Q35.38 35.38 36 35.88Q36.63 36.38 37 36.38L37 36.38Q37.50 36.38 37.75 36.25Q38 36.13 37.88 35.88L37.88 35.88Q37.75 35.63 36.44 33.63Q35.13 31.63 33.25 29L33.25 29Q30.13 24.38 28.94 23.19Q27.75 22 27.38 23.13L27.38 23.13ZM31.88 30.75L31.88 30.75Q31.88 30.88 31.56 31.06Q31.25 31.25 30.88 31.38L30.88 31.38Q30.50 31.50 30 31.69Q29.50 31.88 29.13 32L29.13 32Q28.75 32.25 28.63 31.94Q28.50 31.63 28.50 30.63L28.50 30.63Q28.50 29.88 28.56 29Q28.63 28.13 28.75 27.63L28.75 27.63Q29 26.63 29.19 26.75Q29.38 26.88 30.50 28.38L30.50 28.38Q31.13 29.13 31.50 29.88Q31.88 30.63 31.88 30.75L31.88 30.75ZM63.63 31.75L63.63 31.75Q61.63 36.50 61.31 37.69Q61 38.88 61.63 39.38L61.63 39.38Q62.13 39.75 62.44 39.38Q62.75 39 63.50 37L63.50 37Q64.13 35.88 64.50 34.94Q64.88 34 64.88 34L64.88 34Q65 33.88 66 34.38Q67 34.88 68.38 35.63L68.38 35.63L71.63 37.38L70.38 40.38Q69.38 42.63 69.31 43.13Q69.25 43.63 69.88 44L69.88 44Q70.50 44.38 70.88 43.81Q71.25 43.25 72.38 40.63L72.38 40.63Q75 34.50 75.69 32.31Q76.38 30.13 75.88 29.75L75.88 29.75Q75.13 29.25 74.81 29.56Q74.50 29.88 73.75 32.13L73.75 32.13Q73.38 33.25 73 34.19Q72.63 35.13 72.38 35.13L72.38 35.13Q72.13 35.50 69.06 33.63Q66 31.75 66 31.38L66 31.38Q66 31.13 66.31 30.19Q66.63 29.25 67.13 28.25L67.13 28.25Q67.75 26.63 67.88 26.06Q68 25.50 67.63 25.25L67.63 25.25Q67.38 25 67.13 24.88Q66.88 24.75 66.75 24.75L66.75 24.75Q66.63 24.75 65.69 26.81Q64.75 28.88 63.63 31.75L63.63 31.75ZM12.63 30.38L12.63 30.38Q12.50 31 13.13 39.13Q13.75 47.25 14 47.50L14 47.50Q14.13 47.63 14.38 47.50Q14.63 47.38 14.88 47L14.88 47Q15.25 46.63 15.38 46Q15.50 45.38 15.38 44L15.38 44L15.13 41.50L17.63 40L20 38.38L22 40Q23.13 41 23.63 41.13Q24.13 41.25 24.50 40.88L24.50 40.88Q24.88 40.38 23.94 39.31Q23 38.25 19.50 34.88L19.50 34.88Q17.13 32.75 15.31 31.25Q13.50 29.75 13.38 29.75L13.38 29.75Q13.13 29.75 12.94 29.94Q12.75 30.13 12.63 30.38L12.63 30.38ZM16.38 34.88L16.38 34.88Q17.13 35.63 17.63 36.19Q18.13 36.75 18.13 36.88L18.13 36.88Q18.13 37.38 16.75 38.13Q15.38 38.88 15.13 38.50L15.13 38.50Q14.88 38.25 14.63 35.75Q14.38 33.25 14.50 33.25L14.50 33.25Q14.63 33.25 15.19 33.75Q15.75 34.25 16.38 34.88L16.38 34.88ZM25.13 54.25L25.13 54.25Q18 60.63 13.56 69.63Q9.13 78.63 8.75 87.75L8.75 87.75Q8.38 95.75 10.94 101.19Q13.50 106.63 18.50 108.88L18.50 108.88Q21.25 110 24.69 109.75Q28.13 109.50 30.50 108L30.50 108Q36.75 104.13 38 96.06Q39.25 88 34.63 82L34.63 82Q33.13 80 31.56 78.81Q30 77.63 28.25 77.25L28.25 77.25Q26.50 76.63 23.81 76.88Q21.13 77.13 19.50 77.88L19.50 77.88Q18.63 78.25 17.94 78.50Q17.25 78.75 17.25 78.63L17.25 78.63Q17.25 78.13 18.31 75.69Q19.38 73.25 20.63 71.13L20.63 71.13Q22.25 68.13 24.75 65.06Q27.25 62 29.63 60.13L29.63 60.13Q30.50 59.50 31.13 58.94Q31.75 58.38 31.88 58.38L31.88 58.38Q32 58.25 30 55.19Q28 52.13 27.75 52.13L27.75 52.13Q27.75 52.13 27 52.75Q26.25 53.38 25.13 54.25L25.13 54.25ZM26.88 85.13L26.88 85.13Q30.88 87.13 31.25 92.38Q31.63 97.63 28 100.75L28 100.75Q26.13 102.50 23.31 102.19Q20.50 101.88 18.63 99.88L18.63 99.88Q16.88 98.13 16.19 95.88Q15.50 93.63 15.63 90.50L15.63 90.50L15.75 87.25L18.13 85.88Q20.13 84.63 22.63 84.44Q25.13 84.25 26.88 85.13L26.88 85.13ZM53.63 69.50L53.63 69.50Q45.75 80.88 43.63 84.19Q41.50 87.50 41.50 88.63L41.50 88.63L41.50 90.38L51.75 90.50L62 90.63L62.13 108.75L68.63 109L68.75 99.88L68.88 90.63L73.88 90.25L73.88 83.38L68.88 83L68.75 67.50L68.63 52.13L67.25 52.13Q66.25 52.13 64.25 54.69Q62.25 57.25 53.63 69.50L53.63 69.50ZM62.13 75.25L62.13 75.25Q62.25 79.75 62.13 81.31Q62 82.88 61.63 83L61.63 83Q61.38 83.13 59.75 83.19Q58.13 83.25 56 83.25L56 83.25L51 83L56.25 75.38Q58.38 72.25 60.06 70Q61.75 67.75 61.75 67.75L61.75 67.75Q61.88 67.75 62 69.94Q62.13 72.13 62.13 75.25L62.13 75.25ZM117.38 11.50L109.88 1Q109.88 1.38 109.38 1.50Q108.88 1.63 108.75 1.38L108.75 1.38Q108.75 1.25 108.75 1.31Q108.75 1.38 108.75 1.50L108.75 1.50Q108.63 1.75 108.50 1.81Q108.38 1.88 108.13 1.88L108.13 1.88Q107.88 1.88 107.75 1.94Q107.63 2 107.63 2.13L107.63 2.13Q107.63 2.25 107.50 2.38Q107.38 2.50 107.13 2.50L107.13 2.50Q107 2.63 106.81 2.69Q106.63 2.75 106.63 2.88L106.63 2.88Q106.50 3 106.19 3Q105.88 3 105.75 2.88L105.75 2.88Q105.75 2.75 105.69 2.81Q105.63 2.88 105.63 3L105.63 3Q105.50 3.25 105.38 3.38Q105.25 3.50 105.13 3.50L105.13 3.50Q105 3.63 104.75 3.75Q104.50 3.88 104.38 3.88L104.38 3.88Q104.13 4.13 104 4.13Q103.88 4.13 103.75 4L103.75 4Q103.63 3.75 103.50 3.81Q103.38 3.88 103.50 4L103.50 4Q103.50 4.25 103.31 4.38Q103.13 4.50 102.88 4.38L102.88 4.38Q102.50 4.25 102.44 4.25Q102.38 4.25 102.38 4.50L102.38 4.50Q102.38 4.88 102.06 5Q101.75 5.13 101.50 5L101.50 5Q101.38 4.88 101.31 4.94Q101.25 5 101.25 5.13L101.25 5.13Q101.25 5.38 101.19 5.44Q101.13 5.50 100.88 5.50L100.88 5.50Q100.63 5.50 100.50 5.56Q100.38 5.63 100.25 5.75L100.25 5.75Q100 6 99.69 6.06Q99.38 6.13 99.25 5.88L99.25 5.88Q99.13 5.75 99.13 5.75Q99.13 5.75 99.13 6L99.13 6Q99.25 6.25 99.06 6.38Q98.88 6.50 98.50 6.50L98.50 6.50Q98.38 6.38 98.25 6.44Q98.13 6.50 98.13 6.63L98.13 6.63Q98.13 6.88 97.69 7.06Q97.25 7.25 97.13 7L97.13 7Q97.13 6.88 97.06 6.94Q97 7 97 7.13L97 7.13Q97 7.38 96.81 7.50Q96.63 7.63 96.38 7.50L96.38 7.50Q96.13 7.25 96.06 7.31Q96 7.38 96.13 7.75L96.13 7.75Q96.13 8.13 96.50 8.63Q96.88 9.13 97.88 10.50L97.88 10.50Q99.75 12.63 101.56 15.25Q103.38 17.88 104.25 19.50L104.25 19.50Q104.38 19.63 104.50 19.94Q104.63 20.25 104.88 20.50L104.88 20.50Q105.25 21.25 105.88 22.31Q106.50 23.38 106.75 24L106.75 24Q106.88 24.25 107.06 24.69Q107.25 25.13 107.38 25.38L107.38 25.38Q108.13 27.13 109.06 29.50Q110 31.88 110.63 33.50L110.63 33.50Q110.63 33.75 110.75 34Q110.88 34.25 110.88 34.38L110.88 34.38Q111.13 34.88 111.50 36.44Q111.88 38 112.38 39.50L112.38 39.50Q112.38 40 112.50 40.44Q112.63 40.88 112.75 41.13L112.75 41.13Q113.63 44.75 114.13 49.63Q114.63 54.50 114.50 59.63L114.50 59.63Q114.38 64.63 114 68.13Q113.63 71.63 112.50 76.50L112.50 76.50Q112.38 77.25 111.56 80.06Q110.75 82.88 110.63 83.50L110.63 83.50Q110.50 83.63 110.38 83.94Q110.25 84.25 110.13 84.63L110.13 84.63Q109.75 85.75 108.88 88Q108 90.25 107.50 91.25L107.50 91.25Q107.25 91.63 107.06 92.06Q106.88 92.50 106.63 92.88L106.63 92.88Q106.25 93.88 105.19 95.75Q104.13 97.63 103 99.38L103 99.38Q99.88 104.50 95.25 109.38Q90.63 114.25 85.63 117.63L85.63 117.63Q83.75 119 82.06 119.94Q80.38 120.88 77.50 122.38L77.50 122.38Q77.25 122.38 77.06 122.44Q76.88 122.50 76.75 122.50L76.75 122.50Q76.75 122.50 76.63 122.56Q76.50 122.63 76.50 122.75L76.50 122.75Q76.50 122.88 76.13 122.94Q75.75 123 75.63 122.88L75.63 122.88Q75.38 122.63 75.31 122.69Q75.25 122.75 75.25 123L75.25 123Q75.25 123.25 74.94 123.44Q74.63 123.63 74.50 123.50L74.50 123.50Q74.25 123.25 74.13 123.31Q74 123.38 74 123.50L74 123.50Q74 123.75 73.63 123.94Q73.25 124.13 73.13 123.88L73.13 123.88Q72.75 123.75 72.63 123.75Q72.50 123.75 72.50 124L72.50 124Q72.50 124.13 72.44 124.25Q72.38 124.38 72.38 124.38L72.38 124.38Q72.13 124.50 71.69 124.50Q71.25 124.50 71.25 124.38L71.25 124.38Q71.25 124.25 71.19 124.25Q71.13 124.25 71.13 124.25L71.13 124.25Q71 124.25 71 124.31Q71 124.38 71 124.50L71 124.50Q71.13 124.75 70.81 124.88Q70.50 125 70 124.88L70 124.88Q69.63 124.88 69.50 124.88Q69.38 124.88 69.38 125.13L69.38 125.13Q69.38 125.25 69.25 125.38Q69.13 125.50 68.88 125.50L68.88 125.50Q68.63 125.50 68.50 125.50Q68.38 125.50 67.88 125.38L67.88 125.38Q67.38 125.25 67.31 125.31Q67.25 125.38 67.25 125.50L67.25 125.50Q67.25 125.88 66.50 126Q65.75 126.13 65.63 125.88L65.63 125.88Q65.50 125.63 65.13 125.69Q64.75 125.75 64.88 126L64.88 126Q64.88 126.38 64.38 126.44Q63.88 126.50 62.50 126.38L62.50 126.38Q61.38 126.38 61.19 126.38Q61 126.38 61 126.63L61 126.63Q61 127.13 61.63 127.19Q62.25 127.25 64.75 127.25L64.75 127.25L68.13 127.13Q68.88 127.25 69.44 127.25Q70 127.25 70 127L70 127Q70 127 70.13 126.88Q70.25 126.75 70.50 126.75L70.50 126.75Q71.63 126.50 71.94 126.50Q72.25 126.50 72.38 126.63L72.38 126.63Q72.38 126.88 72.81 126.81Q73.25 126.75 73.38 126.50L73.38 126.50Q73.38 126.25 74.13 126.06Q74.88 125.88 75 126.25L75 126.25Q75.13 126.38 75.44 126.31Q75.75 126.25 75.63 126L75.63 126Q75.63 125.75 76.06 125.63Q76.50 125.50 77.13 125.63L77.13 125.63Q77.38 125.75 77.50 125.69Q77.63 125.63 77.63 125.50L77.63 125.50Q77.63 125.25 78.13 125.13Q78.63 125 78.75 125.13L78.75 125.13Q79 125.38 79.19 125.31Q79.38 125.25 79.38 125L79.38 125Q79.38 124.88 79.44 124.75Q79.50 124.63 79.63 124.63L79.63 124.63Q80 124.50 80.31 124.50Q80.63 124.50 80.63 124.63L80.63 124.63Q80.63 124.75 80.69 124.81Q80.75 124.88 80.75 124.88L80.75 124.88Q80.88 124.88 80.88 124.75Q80.88 124.63 80.88 124.50L80.88 124.50Q80.75 124.25 81.06 124.13Q81.38 124 81.88 124.13L81.88 124.13Q82.13 124.13 82.19 124.13Q82.25 124.13 82.25 124L82.25 124Q82.25 123.75 82.56 123.69Q82.88 123.63 83.25 123.63L83.25 123.63Q83.38 123.75 83.44 123.69Q83.50 123.63 83.50 123.50L83.50 123.50Q83.50 123.25 83.94 123.13Q84.38 123 84.50 123.13L84.50 123.13Q84.63 123.38 84.75 123.31Q84.88 123.25 84.88 123L84.88 123Q84.88 122.75 85 122.63Q85.13 122.50 85.50 122.50L85.50 122.50Q85.63 122.50 85.75 122.44Q85.88 122.38 85.88 122.25L85.88 122.25Q86 122.13 86.13 122.13Q86.25 122.13 86.50 122.13L86.50 122.13Q86.88 122.25 86.94 122.19Q87 122.13 87 122L87 122Q87 121.75 87.31 121.56Q87.63 121.38 87.88 121.50L87.88 121.50Q88 121.63 88.06 121.56Q88.13 121.50 88.13 121.25L88.13 121.25Q88.13 121.13 88.25 121.06Q88.38 121 88.63 121.13L88.63 121.13Q89 121.13 89.06 121.06Q89.13 121 89.13 120.88L89.13 120.88Q89.13 120.63 89.19 120.63Q89.25 120.63 89.63 120.63L89.63 120.63Q89.88 120.75 89.94 120.69Q90 120.63 90 120.38L90 120.38Q90 120.25 90.06 120.19Q90.13 120.13 90.50 120.13L90.50 120.13Q90.75 120.25 90.81 120.19Q90.88 120.13 91 119.88L91 119.88Q91 119.75 91.06 119.63Q91.13 119.50 91.38 119.50L91.38 119.50Q91.50 119.50 91.63 119.44Q91.75 119.38 91.75 119.25L91.75 119.25Q91.75 119.13 91.88 119.13Q92 119.13 92.25 119.13L92.25 119.13Q92.50 119.25 92.56 119.19Q92.63 119.13 92.63 118.88L92.63 118.88Q92.63 118.63 92.69 118.63Q92.75 118.63 93 118.63L93 118.63Q93.38 118.75 93.44 118.69Q93.50 118.63 93.50 118.38L93.50 118.38Q93.50 118.25 93.56 118.19Q93.63 118.13 93.75 118.13L93.75 118.13Q94 118.13 94.06 118.06Q94.13 118 94.25 117.88L94.25 117.88Q94.25 117.75 94.38 117.63Q94.50 117.50 94.63 117.50L94.63 117.50Q94.75 117.50 94.88 117.44Q95 117.38 95 117.38L95 117.38Q95 117.13 95.44 116.88Q95.88 116.63 96.13 116.63L96.13 116.63Q96.25 116.63 96.31 116.56Q96.38 116.50 96.38 116.38L96.38 116.38Q96.50 116.25 96.56 116.13Q96.63 116 96.75 116L96.75 116Q96.88 116 96.94 115.94Q97 115.88 97.13 115.75L97.13 115.75Q97.25 115.63 97.31 115.50Q97.38 115.38 97.50 115.38L97.50 115.38Q97.50 115.38 97.63 115.31Q97.75 115.25 97.75 115.13L97.75 115.13Q97.88 115.13 98 115.06Q98.13 115 98.25 115L98.25 115Q98.38 115 98.44 115Q98.50 115 98.50 114.88L98.50 114.88Q98.50 114.75 98.56 114.63Q98.63 114.50 98.75 114.38L98.75 114.38Q98.88 114.25 99.06 114.13Q99.25 114 99.38 113.88L99.38 113.88Q99.63 113.75 99.75 113.63Q99.88 113.50 100 113.50L100 113.50Q100.13 113.50 100.19 113.38Q100.25 113.25 100.38 113.13L100.38 113.13Q100.75 112.75 100.94 112.63Q101.13 112.50 101.25 112.63L101.25 112.63Q101.50 112.63 101.50 112.56Q101.50 112.50 101.50 112.25L101.50 112.25Q101.50 112.13 101.56 112Q101.63 111.88 101.63 111.88L101.63 111.88Q101.75 111.88 101.94 111.75Q102.13 111.63 102.50 111.13L102.50 111.13Q102.63 111.13 102.75 111.06Q102.88 111 102.88 111L102.88 111Q103 111 103.06 110.94Q103.13 110.88 103.13 110.75L103.13 110.75Q103.13 110.63 103.19 110.56Q103.25 110.50 103.38 110.50L103.38 110.50Q103.50 110.50 103.56 110.50Q103.63 110.50 103.63 110.38L103.63 110.38Q103.63 110.25 104 109.81Q104.38 109.38 104.50 109.38L104.50 109.38Q104.50 109.38 104.56 109.31Q104.63 109.25 104.75 109.13L104.75 109.13Q104.75 109 104.81 108.94Q104.88 108.88 105 108.88L105 108.88Q105 108.88 105.13 108.81Q105.25 108.75 105.25 108.63L105.25 108.63Q105.25 108.50 105.31 108.44Q105.38 108.38 105.50 108.38L105.50 108.38Q105.63 108.38 105.69 108.31Q105.75 108.25 105.75 108.25L105.75 108.25Q105.75 108.13 105.81 108.06Q105.88 108 105.88 108L105.88 108Q106 108 106.06 107.94Q106.13 107.88 106.13 107.75L106.13 107.75Q106.25 107.63 106.31 107.56Q106.38 107.50 106.50 107.50L106.50 107.50Q106.75 107.50 106.81 107.44Q106.88 107.38 106.75 107.38L106.75 107.38Q106.75 107.13 106.94 106.94Q107.13 106.75 107.38 106.75L107.38 106.75Q107.50 106.88 107.56 106.75Q107.63 106.63 107.50 106.38L107.50 106.38Q107.50 106 108.38 105.06Q109.25 104.13 109.63 104.13L109.63 104.13Q109.88 104 110 103.94Q110.13 103.88 110.13 103.75L110.13 103.75Q110.13 103.75 110.19 103.69Q110.25 103.63 110.25 103.63L110.25 103.63Q110.38 103.63 110.44 103.50Q110.50 103.38 110.50 103.13L110.50 103.13Q110.50 102.75 110.56 102.56Q110.63 102.38 110.88 102.13L110.88 102.13Q111 101.88 111.13 101.75Q111.25 101.63 111.25 101.50L111.25 101.50Q111.25 101.50 111.31 101.38Q111.38 101.25 111.50 101.13L111.50 101.13Q111.63 101 111.81 100.75Q112 100.50 112.25 100.25L112.25 100.25Q112.38 100 112.63 99.81Q112.88 99.63 112.88 99.63L112.88 99.63Q113 99.63 113.06 99.50Q113.13 99.38 113.13 99.25L113.13 99.25Q113.13 99.13 113.13 99Q113.13 98.88 113.25 98.88L113.25 98.88Q113.25 98.88 113.31 98.81Q113.38 98.75 113.38 98.63L113.38 98.63Q113.38 98.38 113.69 98Q114 97.63 114.38 97.63L114.38 97.63Q114.50 97.50 114.56 97.44Q114.63 97.38 114.50 97.38L114.50 97.38Q114.38 97.38 114.38 97.13Q114.38 96.88 114.50 96.88L114.50 96.88Q114.63 96.88 114.63 96.81Q114.63 96.75 114.63 96.63L114.63 96.63Q114.63 96.50 114.69 96.38Q114.75 96.25 114.75 96.25L114.75 96.25Q114.88 96.25 114.94 96.13Q115 96 115 95.88L115 95.88Q115.13 95.75 115.19 95.63Q115.25 95.50 115.38 95.50L115.38 95.50Q115.63 95.50 115.63 95.44Q115.63 95.38 115.63 95.25L115.63 95.25Q115.63 95.13 115.63 95Q115.63 94.88 115.75 94.75L115.75 94.75Q115.88 94.63 115.94 94.56Q116 94.50 116 94.38L116 94.38Q116 94.25 116 94.19Q116 94.13 116.13 94.13L116.13 94.13Q116.25 94.13 116.38 93.88Q116.50 93.63 116.63 93.38L116.63 93.38Q116.75 93 116.88 92.81Q117 92.63 117.13 92.63L117.13 92.63Q117.25 92.63 117.31 92.50Q117.38 92.38 117.38 92.13L117.38 92.13Q117.38 92 117.44 91.88Q117.50 91.75 117.50 91.75L117.50 91.75Q117.50 91.75 117.56 91.63Q117.63 91.50 117.63 91.38L117.63 91.38Q117.63 91.25 117.75 91.13Q117.88 91 118 91L118 91Q118.13 91 118.19 90.88Q118.25 90.75 118.13 90.63L118.13 90.63Q118.13 90.50 118.19 90.38Q118.25 90.25 118.25 90.13L118.25 90.13Q118.38 90 118.50 89.69Q118.63 89.38 118.75 89L118.75 89Q118.88 88.75 119 88.50Q119.13 88.25 119.25 88.25L119.25 88.25Q119.25 88.25 119.31 88.19Q119.38 88.13 119.38 88L119.38 88Q119.38 87.88 119.44 87.75Q119.50 87.63 119.50 87.50L119.50 87.50Q119.63 87.38 119.75 87.19Q119.88 87 119.88 86.88L119.88 86.88Q119.88 86.63 119.94 86.56Q120 86.50 120.25 86.38L120.25 86.38Q120.38 86.38 120.44 86.38Q120.50 86.38 120.38 86.25L120.38 86.25Q120.13 86.13 120.25 85.75Q120.38 85.38 120.50 85.38L120.50 85.38Q120.63 85.38 120.69 85.31Q120.75 85.25 120.75 85L120.75 85Q120.63 84.88 120.69 84.69Q120.75 84.50 120.88 84.38L120.88 84.38Q121 84.25 121.06 84.06Q121.13 83.88 121.13 83.75L121.13 83.75Q121.13 83.63 121.19 83.44Q121.25 83.25 121.25 83.25L121.25 83.25Q121.38 83.13 121.44 82.94Q121.50 82.75 121.63 82.63L121.63 82.63Q121.63 82.38 121.69 82.25Q121.75 82.13 121.88 82.13L121.88 82.13Q122.13 82.13 122.13 82.06Q122.13 82 122.13 81.63L122.13 81.63Q122 81.25 122.06 81.13Q122.13 81 122.25 81L122.25 81Q122.50 81 122.50 80.88Q122.50 80.75 122.50 80.50L122.50 80.50Q122.38 80.25 122.44 80.06Q122.50 79.88 122.63 79.75L122.63 79.75Q122.63 79.63 122.75 79.38Q122.88 79.13 122.88 78.88L122.88 78.88Q122.88 78.63 123 78.50Q123.13 78.38 123.25 78.38L123.25 78.38Q123.38 78.38 123.38 78.31Q123.38 78.25 123.38 78.13L123.38 78.13Q123.25 77.75 123.38 77.38Q123.50 77 123.63 77L123.63 77Q123.75 77 123.81 76.88Q123.88 76.75 123.75 76.50L123.75 76.50Q123.75 76.13 123.81 75.81Q123.88 75.50 124.13 75.50L124.13 75.50Q124.38 75.50 124.38 75.38Q124.38 75.25 124.25 75.13L124.25 75.13Q124.13 74.88 124.19 74.38Q124.25 73.88 124.50 73.88L124.50 73.88Q124.63 73.75 124.69 73.69Q124.75 73.63 124.63 73.63L124.63 73.63Q124.50 73.38 124.63 72.81Q124.75 72.25 124.88 72.13L124.88 72.13Q125.13 72.13 125.13 72Q125.13 71.88 125.13 71.63L125.13 71.63Q125 71 125.13 70.56Q125.25 70.13 125.38 70.25L125.38 70.25Q125.63 70.25 125.69 69.94Q125.75 69.63 125.50 69.50L125.50 69.50Q125.38 69.25 125.50 68.69Q125.63 68.13 125.75 68.13L125.75 68.13Q126 68 126 67.88Q126 67.75 126 67.25L126 67.25Q125.88 66.50 126 66Q126.13 65.50 126.25 65.50L126.25 65.50Q126.38 65.50 126.38 65.38Q126.38 65.25 126.38 65.13L126.38 65.13Q126.25 64.38 126.38 63.31Q126.50 62.25 126.75 62.38L126.75 62.38Q126.88 62.38 126.94 62.25Q127 62.13 126.88 61.63L126.88 61.63Q126.75 60.25 126.81 58.81Q126.88 57.38 127.13 57.38L127.13 57.38Q127.25 57.38 127.31 56.38Q127.38 55.38 127.38 51.75L127.38 51.75Q127.38 48.13 127.31 47.06Q127.25 46 127.13 46L127.13 46Q126.88 46 126.75 44.56Q126.63 43.13 126.88 42.88L126.88 42.88Q127 42.75 126.94 42Q126.88 41.25 126.75 41.25L126.75 41.25Q126.50 41.38 126.38 40.81Q126.25 40.25 126.38 39.13L126.38 39.13Q126.38 38.50 126.38 38.31Q126.38 38.13 126.25 38.13L126.25 38.13Q126 38 125.88 37.31Q125.75 36.63 125.88 36.38L125.88 36.38Q126.13 36.25 126.06 36Q126 35.75 125.75 35.75L125.75 35.75Q125.63 35.75 125.50 35.13Q125.38 34.50 125.50 34.25L125.50 34.25Q125.75 34.13 125.69 33.88Q125.63 33.63 125.38 33.63L125.38 33.63Q125.13 33.63 125.06 33.25Q125 32.88 125.13 32.25L125.13 32.25Q125.13 32 125.13 31.88Q125.13 31.75 125 31.75L125 31.75Q124.75 31.75 124.63 31.13Q124.50 30.50 124.63 30.38L124.63 30.38Q124.75 30.13 124.75 30Q124.75 29.88 124.50 29.88L124.50 29.88Q124.25 29.88 124.13 29.44Q124 29 124.25 28.75L124.25 28.75Q124.38 28.63 124.38 28.44Q124.38 28.25 124.13 28.25L124.13 28.25Q123.88 28.13 123.81 28.06Q123.75 28 123.75 27.50L123.75 27.50Q123.75 27.13 123.75 27Q123.75 26.88 123.63 26.88L123.63 26.88Q123.38 26.75 123.31 26.31Q123.25 25.88 123.38 25.75L123.38 25.75Q123.50 25.63 123.44 25.50Q123.38 25.38 123.25 25.38L123.25 25.38Q123 25.38 122.94 25.19Q122.88 25 122.88 24.63L122.88 24.63Q122.88 24.50 122.81 24.31Q122.75 24.13 122.63 24L122.63 24Q122.50 23.88 122.44 23.69Q122.38 23.50 122.50 23.38L122.50 23.38Q122.50 23.13 122.44 23Q122.38 22.88 122.25 22.88L122.25 22.88Q122.13 22.88 122.06 22.75Q122 22.63 122 22.50L122 22.50Q122 22.38 121.94 22.19Q121.88 22 121.75 21.75L121.75 21.75Q121.63 21.63 121.56 21.38Q121.50 21.13 121.50 21L121.50 21Q121.50 20.88 121.44 20.75Q121.38 20.63 121.38 20.50L121.38 20.50Q121.25 20.38 121.19 20.25Q121.13 20.13 121.13 19.88L121.13 19.88Q121.13 19.63 121.13 19.56Q121.13 19.50 121 19.50L121 19.50Q120.88 19.50 120.75 19.19Q120.63 18.88 120.75 18.63L120.75 18.63Q120.75 18.50 120.75 18.44Q120.75 18.38 120.63 18.38L120.63 18.38Q120.50 18.38 120.38 18.25Q120.25 18.13 120.25 17.88L120.25 17.88Q120.25 17.75 120.19 17.63Q120.13 17.50 120 17.38L120 17.38Q120 17.38 119.94 17.25Q119.88 17.13 119.88 16.88L119.88 16.88Q119.88 16.75 119.81 16.63Q119.75 16.50 119.75 16.50L119.75 16.50Q119.63 16.50 119.50 16.25Q119.38 16 119.13 15.63L119.13 15.63Q119 15.13 118.88 14.81Q118.75 14.50 118.63 14.50L118.63 14.50Q118.63 14.50 118.63 14.38Q118.63 14.25 118.63 14.13L118.63 14.13Q118.63 14 118.56 13.94Q118.50 13.88 118.38 13.75L118.38 13.75Q118.25 13.75 118.19 13.63Q118.13 13.50 118.13 13.25L118.13 13.25Q118.13 13.13 118.06 13Q118 12.88 118 12.88L118 12.88Q117.75 12.88 117.50 12.38Q117.25 11.88 117.38 11.50L117.38 11.50Z"/></svg>