<svg xmlns="http://www.w3.org/2000/svg" xmlns:xlink="http://www.w3.org/1999/xlink" width="128" height="128"><path fill="#000000" d="M99.88 115.38L99.88 115.38Q92.38 120.63 83.50 123.50Q74.63 126.38 64.88 126.50L64.88 126.50Q52.13 126.63 40.63 121.88L40.63 121.88Q29.25 117.13 20.63 108.81Q12 100.50 6.88 89.38L6.88 89.38Q1.75 78.13 1.38 65.25L1.38 65.25Q1 52 5.88 40.25L5.88 40.25Q10.63 28.50 19.19 19.75Q27.75 11 39.38 6L39.38 6Q51 0.88 64.13 0.88L64.13 0.88Q70.13 0.88 75.75 2L75.75 2Q81.38 3 86.63 5Q91.88 7 96.63 9.88L96.63 9.88Q101.38 12.75 105.50 16.38L105.50 16.38Q106.25 17 105.81 17.88Q105.38 18.75 104.38 18.75L104.38 18.75Q96.13 17.75 88.13 17.75L88.13 17.75Q80 17.75 72.63 18.94Q65.25 20.13 58.75 22.63L58.75 22.63Q52.25 25.13 47.13 29.13L47.13 29.13Q41.13 33.75 37.88 39.38L37.88 39.38Q34.63 45 33.69 51.19Q32.75 57.38 34.13 63.75L34.13 63.75Q35.50 70.25 38.88 76.38L38.88 76.38Q43.75 85 51.13 90L51.13 90Q58.38 94.88 66.81 98.38Q75.25 101.88 83.88 105L83.88 105Q92.50 108.13 99.88 113.13L99.88 113.13Q100.50 113.63 100.50 114.31Q100.50 115 99.88 115.38ZM127 63.75L127 63.75Q127 70.13 125.75 76.19Q124.50 82.25 122.25 87.75L122.25 87.75Q116.25 84.63 110.38 82L110.38 82Q104.38 79.25 99 77.13Q93.63 75 89.25 73.38L89.25 73.38Q84.88 71.88 82 70.75L82 70.75Q75.38 68.25 71 62.19Q66.63 56.13 70.50 50L70.50 50Q74.38 43.88 83.56 42.56Q92.75 41.25 104.75 44.38L104.75 44.38Q109.88 45.63 114.56 48.75Q119.25 51.88 123.63 55.88L123.63 55.88Q125.25 57.38 126.13 59.44Q127 61.50 127 63.63L127 63.63Q127 63.63 127 63.63Q127 63.63 127 63.75L127 63.75Z"/></svg>