<svg xmlns="http://www.w3.org/2000/svg" xmlns:xlink="http://www.w3.org/1999/xlink" width="128" height="128"><path fill="#ffffff" d="M38.88 63.75L38.88 63.75Q38 63.38 37.44 63Q36.88 62.63 36.88 62.13L36.88 62.13Q36.88 61.75 37.25 61.44Q37.63 61.13 38.38 61.13L38.38 61.13Q39 61.13 39.63 61.25Q40.25 61.38 40.88 61.63L40.88 61.63Q41 61.75 41.25 61.69Q41.50 61.63 41.63 61.38L41.63 61.38L42 60.63Q42.13 60.38 42 60.13Q41.88 59.88 41.75 59.75L41.75 59.75Q41 59.38 40.25 59.19Q39.50 59 38.63 59L38.63 59Q38.50 59 38.50 59Q38.50 59 38.38 59L38.38 59L38.38 59Q36.38 59 35.44 60Q34.50 61 34.50 62L34.50 62Q34.50 63.38 35.44 64.19Q36.38 65 37.75 65.63L37.75 65.63Q38.88 66.13 39.50 66.56Q40.13 67 40.13 67.50L40.13 67.50Q40.13 68 39.75 68.31Q39.38 68.63 38.63 68.63L38.63 68.63Q37.88 68.63 37.19 68.44Q36.50 68.25 35.88 67.88L35.88 67.88Q35.75 67.75 35.69 67.75Q35.63 67.75 35.63 67.75L35.63 67.75Q35.38 67.75 35.31 67.81Q35.25 67.88 35.13 68L35.13 68L35.13 68L34.63 69Q34.50 69.13 34.56 69.31Q34.63 69.50 34.75 69.63L34.75 69.63Q35.63 70.13 36.56 70.44Q37.50 70.75 38.50 70.75L38.50 70.75Q40.38 70.75 41.50 69.75Q42.63 68.75 42.63 67.50L42.63 67.50Q42.50 65.88 41.50 65.13Q40.50 64.38 38.88 63.75L38.88 63.75ZM23.88 74L23.88 74Q23 73.38 21.81 72.81Q20.63 72.25 19.25 71.75L19.25 71.75Q17.63 71.13 15.94 70.38Q14.25 69.63 12.88 68.50L12.88 68.50Q11.50 67.50 10.63 65.88Q9.75 64.25 9.75 62.38L9.75 62.38Q9.75 62.38 9.75 62.31Q9.75 62.25 9.75 62.25L9.75 62.25L9.75 62.25Q9.75 62.13 9.75 62.13Q9.75 62.13 9.75 62L9.75 62Q9.75 60.38 10.56 58.88Q11.38 57.38 12.63 56.38L12.63 56.38L12.63 56.38Q14.13 55.13 16.44 54.50Q18.75 53.88 21.63 53.88L21.63 53.88Q22.50 53.88 23.25 53.94Q24 54 24.75 54.13L24.75 54.13Q24.75 54.13 24.81 54.06Q24.88 54 24.88 54L24.88 54Q25 54 24.94 53.88Q24.88 53.75 24.88 53.75L24.88 53.75Q20.75 50.13 15.31 50.38Q9.88 50.63 6.13 54.75L6.13 54.75Q2.50 58.88 2.75 64.31Q3 69.75 7.13 73.50L7.13 73.50Q9 75.13 11.25 76Q13.50 76.88 16 76.88L16 76.88Q18.13 76.88 20.13 76.19Q22.13 75.50 23.88 74.25L23.88 74.25Q23.88 74.25 23.88 74.19Q23.88 74.13 23.88 74.13L23.88 74.13Q24 74.13 23.94 74.06Q23.88 74 23.88 74L23.88 74ZM29.25 62.38L29.25 62.38Q29.25 62.38 29.19 62.38Q29.13 62.38 29.13 62.25L29.13 62.25Q27 60.63 25.19 59.88Q23.38 59.13 21.38 59.13L21.38 59.13Q20.25 59.13 19.44 59.31Q18.63 59.50 18.13 60L18.13 60Q17.63 60.25 17.38 60.81Q17.13 61.38 17.13 62L17.13 62Q17.13 63.63 18.94 64.56Q20.75 65.50 23.13 66.50L23.13 66.50Q24.38 66.88 25.63 67.44Q26.88 68 28 68.63L28 68.63Q28.13 68.63 28.13 68.63Q28.13 68.63 28.13 68.63L28.13 68.63Q28.13 68.63 28.19 68.63Q28.25 68.63 28.25 68.63L28.25 68.63Q28.25 68.63 28.31 68.56Q28.38 68.50 28.38 68.50L28.38 68.50Q28.75 67.38 29 66.13Q29.25 64.88 29.25 63.63L29.25 63.63Q29.25 63.38 29.25 63.06Q29.25 62.75 29.25 62.38L29.25 62.38ZM105.38 70.63L105.38 70.63Q105.63 70.63 105.75 70.44Q105.88 70.25 105.88 70.13L105.88 70.13L105.88 64.38Q105.88 62.13 105.25 60.63Q104.63 59.13 101.75 59.13L101.75 59.13Q100.75 59.13 99.75 59.25Q98.75 59.38 97.75 59.75L97.75 59.75Q97.50 59.88 97.38 60.06Q97.25 60.25 97.25 60.38L97.25 60.38Q97.25 60.38 97.31 60.44Q97.38 60.50 97.38 60.50L97.38 60.50L97.63 61.38Q97.63 61.63 97.81 61.75Q98 61.88 98.13 61.88L98.13 61.88Q98.13 61.88 98.19 61.88Q98.25 61.88 98.25 61.88L98.25 61.88Q99 61.63 99.88 61.50Q100.75 61.38 101.50 61.38L101.50 61.38Q102.63 61.38 103.06 62Q103.50 62.63 103.50 64.13L103.50 64.13Q102.88 63.88 102.25 63.81Q101.63 63.75 101 63.75L101 63.75Q98.75 63.75 97.56 64.81Q96.38 65.88 96.38 67.50L96.38 67.50Q96.38 69.38 97.44 70.06Q98.50 70.75 100.13 70.75L100.13 70.75Q101.50 70.75 102.75 70.75Q104 70.75 104.63 70.75L104.63 70.75L105.38 70.63ZM103.38 68.63L103.38 68.63Q103.13 69 102.31 69Q101.50 69 100.63 69L100.63 69Q99.75 69 99.25 68.63Q98.75 68.25 98.75 67.50L98.75 67.50Q98.75 66.50 99.50 66Q100.25 65.50 101.25 65.50L101.25 65.50Q101.75 65.50 102.31 65.63Q102.88 65.75 103.38 65.88L103.38 65.88L103.38 68.63L103.38 68.63ZM124.63 59L124.63 59Q125.25 59 125.63 58.56Q126 58.13 126 57.63L126 57.63Q126 57 125.63 56.63Q125.25 56.25 124.63 56.25L124.63 56.25Q124.13 56.25 123.69 56.63Q123.25 57 123.25 57.63L123.25 57.63Q123.25 58.13 123.69 58.56Q124.13 59 124.63 59L124.63 59Q124.63 59 124.63 59Q124.63 59 124.63 59ZM124.63 56.50L124.63 56.50Q125.13 56.50 125.50 56.81Q125.88 57.13 125.88 57.63L125.88 57.63Q125.88 58.13 125.50 58.44Q125.13 58.75 124.75 58.75L124.75 58.75Q124.25 58.75 123.88 58.44Q123.50 58.13 123.50 57.63L123.50 57.63L123.50 57.63Q123.50 57.13 123.81 56.81Q124.13 56.50 124.63 56.50L124.63 56.50ZM124.25 58.38L124.25 58.38L124.25 58.38Q124.38 58.38 124.38 58.31Q124.38 58.25 124.38 58.25L124.38 58.25L124.38 57.75L124.63 57.75L124.88 58.25Q124.88 58.38 124.88 58.38Q124.88 58.38 125 58.38L125 58.38L125.13 58.38Q125.13 58.38 125.13 58.31Q125.13 58.25 125.13 58.25L125.13 58.25L124.88 57.75Q125 57.75 125.06 57.63Q125.13 57.50 125.13 57.38L125.13 57.38Q125.13 57.38 125.13 57.38Q125.13 57.38 125.13 57.38L125.13 57.38Q125.13 57.25 125 57.13Q124.88 57 124.75 57L124.75 57L124.25 57Q124.13 57 124.13 57Q124.13 57 124.13 57L124.13 57L124.13 58.38Q124.13 58.25 124.13 58.31Q124.13 58.38 124.25 58.38L124.25 58.38ZM124.38 57.13L124.38 57.13L124.75 57.13Q124.75 57.13 124.88 57.19Q125 57.25 125 57.38L125 57.38Q125 57.50 124.88 57.56Q124.75 57.63 124.75 57.63L124.75 57.63L124.38 57.63L124.38 57.13ZM50.13 59L50.13 59Q49.25 59 48.38 59.31Q47.50 59.63 46.75 60.13L46.75 60.13L46.75 55.13Q46.75 54.88 46.63 54.75Q46.50 54.63 46.25 54.63L46.25 54.63L46.25 54.63L44.88 54.63Q44.75 54.63 44.56 54.75Q44.38 54.88 44.38 55.13L44.38 55.13L44.38 70.25Q44.38 70.50 44.56 70.63Q44.75 70.75 44.88 70.75L44.88 70.75L46.25 70.75Q46.50 70.88 46.63 70.69Q46.75 70.50 46.75 70.38L46.75 70.38L46.75 63Q47.25 62.25 48 61.75Q48.75 61.25 49.75 61.25L49.75 61.25Q49.75 61.25 49.75 61.25Q49.75 61.25 49.75 61.25L49.75 61.25L49.75 61.25Q50.88 61.25 51.44 62.06Q52 62.88 52 64.25L52 64.25L52 70.25Q52 70.50 52.19 70.63Q52.38 70.75 52.50 70.75L52.50 70.75L53.88 70.75Q54.13 70.75 54.31 70.63Q54.50 70.50 54.50 70.25L54.50 70.25L54.50 64.25Q54.50 62 53.50 60.50Q52.50 59 50.13 59L50.13 59ZM78.75 64.50L78.75 64.50Q78.63 61.50 77.38 60.25Q76.13 59 73.25 59L73.25 59Q72.25 59 71.19 59.19Q70.13 59.38 69.13 59.63L69.13 59.63Q68.75 59.75 68.56 59.94Q68.38 60.13 68.38 60.25L68.38 60.25L68.38 74.75Q68.38 74.88 68.56 75.06Q68.75 75.25 69 75.25L69 75.25L70.13 75.25Q70.25 75.25 70.44 75.13Q70.63 75 70.63 74.75L70.63 74.75L70.63 70.63Q71.50 70.75 72.44 70.81Q73.38 70.88 74.25 70.75L74.25 70.75Q76.25 70.75 77.44 69.38Q78.63 68 78.75 65.63L78.75 65.63Q78.75 65.25 78.75 64.88Q78.75 64.50 78.75 64.13L78.75 64.13L78.75 64.38L78.75 64.50ZM76.38 65.63L76.38 65.63Q76.38 67.25 75.81 68Q75.25 68.75 73.88 68.88L73.88 68.88Q73.13 68.88 72.31 68.81Q71.50 68.75 70.75 68.63L70.75 68.63L70.88 68.63Q70.75 68.63 70.75 68.63Q70.75 68.63 70.75 68.50L70.75 68.50L70.75 61.63Q70.75 61.50 70.75 61.50Q70.75 61.50 70.75 61.50L70.75 61.50L70.88 61.50Q71.38 61.25 72.06 61.19Q72.75 61.13 73.38 61.13L73.38 61.13Q75 61.13 75.69 61.63Q76.38 62.13 76.38 64.25L76.38 64.25L76.38 65.63ZM95 59.25L95 59.25L94 59.25Q93.75 59.25 93.50 59.25Q93.25 59.25 93.13 59.50L93.13 59.50L91.25 66.13L91.25 66.13L88.25 59.25Q88.13 59.13 88 59.06Q87.88 59 87.75 59L87.75 59Q87.75 59 87.75 59Q87.75 59 87.75 59L87.75 59L87.75 59L87.50 59Q87.38 59 87.25 59.06Q87.13 59.13 87.13 59.25L87.13 59.25L84 66L84 66L82.13 59.50Q82.13 59.38 82 59.31Q81.88 59.25 81.63 59.25L81.63 59.25Q81.63 59.25 81.63 59.25Q81.63 59.25 81.63 59.25L81.63 59.25L81.63 59.25L80.13 59.25Q79.88 59.25 79.75 59.44Q79.63 59.63 79.75 59.88L79.75 59.88L83 70.50Q83.13 70.63 83.25 70.75Q83.38 70.88 83.50 70.88L83.50 70.88L83.63 70.88Q83.75 70.88 83.88 70.75Q84 70.63 84.13 70.50L84.13 70.50L87.63 62.88L87.63 62.88L91.13 70.50Q91.13 70.63 91.25 70.69Q91.38 70.75 91.63 70.75L91.63 70.75L91.63 70.75Q91.88 70.88 92 70.75Q92.13 70.63 92.25 70.50L92.25 70.50L95.38 59.88Q95.50 59.63 95.38 59.44Q95.25 59.25 95 59.25L95 59.25ZM113.13 59.13L113.13 59.13L112.63 59.13Q112.13 59.13 111.75 59.13Q111.38 59.13 110.88 59.13L110.88 59.13Q110.13 59.25 109.69 59.25Q109.25 59.25 108.88 59.38L108.88 59.38L108.25 59.38Q108.13 59.38 108 59.44Q107.88 59.50 107.75 59.63L107.75 59.63Q107.75 59.75 107.75 59.81Q107.75 59.88 107.75 59.88L107.75 59.88Q107.75 59.88 107.75 59.88Q107.75 59.88 107.75 59.88L107.75 59.88L107.75 59.88L107.75 70.25Q107.75 70.50 107.88 70.63Q108 70.75 108.25 70.75L108.25 70.75L109.38 70.75Q109.75 70.75 109.94 70.69Q110.13 70.63 110.13 70.25L110.13 70.25L110.13 61.63Q110.13 61.63 110.19 61.56Q110.25 61.50 110.38 61.50L110.38 61.50Q110.50 61.38 111.06 61.25Q111.63 61.13 112.63 61.13L112.63 61.13L112.88 61.13Q113.13 61.13 113.38 61.19Q113.63 61.25 113.88 61.38L113.88 61.38Q114 61.50 114.25 61.44Q114.50 61.38 114.50 61.13L114.50 61.13Q114.50 61.13 114.50 61.13Q114.50 61.13 114.50 61.13L114.50 61.13L115.13 60.13Q115.38 59.63 114.63 59.38Q113.88 59.13 113.13 59.13L113.13 59.13ZM120.88 59L120.88 59Q118.25 59 116.75 60.75Q115.25 62.50 115.25 64.88L115.25 64.88Q115.25 67.25 116.75 69Q118.25 70.75 120.88 70.75L120.88 70.75Q122 70.88 123.06 70.50Q124.13 70.13 125.13 69.38L125.13 69.38Q125.38 69.13 125.31 69Q125.25 68.88 125.13 68.63L125.13 68.63L124.50 67.63Q124.25 67.38 124.13 67.38Q124 67.38 123.75 67.50L123.75 67.50Q123.13 68 122.44 68.25Q121.75 68.50 121 68.50L121 68.50Q121 68.50 121 68.50Q121 68.50 120.88 68.50L120.88 68.50Q119.63 68.50 118.69 67.63Q117.75 66.75 117.63 65.50L117.63 65.50L117.63 65.38L125.50 65.38Q125.63 65.38 125.75 65.25Q125.88 65.13 126 65L126 65Q126 64.75 126 64.56Q126 64.38 126 64.13L126 64.13Q126 62.13 124.63 60.56Q123.25 59 121.13 59L121.13 59Q121 59 120.94 59Q120.88 59 120.88 59L120.88 59ZM117.75 63.63L117.75 63.63Q117.88 62.50 118.63 61.75Q119.38 61 120.75 61L120.75 61Q120.75 61 120.81 61Q120.88 61 120.88 61L120.88 61Q122 61 122.75 61.75Q123.50 62.50 123.50 63.63L123.50 63.63L123.50 63.63L123.50 63.63L117.75 63.63ZM66.50 62.50L66.50 62.50Q66.25 62 66 61.50Q65.75 61 65.38 60.63L65.38 60.63Q65 60.25 64.63 59.94Q64.25 59.63 63.75 59.38L63.75 59.38L63.75 59.38Q63.13 59.13 62.56 59.06Q62 59 61.38 59L61.38 59Q60.88 59 60.31 59.06Q59.75 59.13 59.13 59.38L59.13 59.38Q58.63 59.63 58.25 59.94Q57.88 60.25 57.50 60.63L57.50 60.63Q57.13 61 56.88 61.44Q56.63 61.88 56.38 62.38L56.38 62.38L56.38 62.50Q56.25 63 56.13 63.63Q56 64.25 56 64.88L56 64.88Q56 65.50 56.13 66.13Q56.25 66.75 56.38 67.38L56.38 67.38L56.38 67.25Q56.63 67.88 56.88 68.31Q57.13 68.75 57.50 69.13L57.50 69.13Q57.88 69.50 58.25 69.81Q58.63 70.13 59.13 70.38L59.13 70.38Q59.75 70.63 60.31 70.69Q60.88 70.75 61.38 70.75L61.38 70.75Q62 70.75 62.56 70.69Q63.13 70.63 63.75 70.38L63.75 70.38Q64.25 70.13 64.63 69.81Q65 69.50 65.38 69.13L65.38 69.13Q65.75 68.75 66 68.31Q66.25 67.88 66.50 67.38L66.50 67.38Q66.88 66.13 66.88 64.88Q66.88 63.63 66.50 62.50L66.50 62.50L66.50 62.50ZM61.38 68.88L61.38 68.88Q59.88 68.88 59.06 67.75Q58.25 66.63 58.25 65L58.25 65Q58.25 63.38 59.06 62.25Q59.88 61.13 61.38 61.13L61.38 61.13Q62.88 61.13 63.69 62.25Q64.50 63.38 64.50 65L64.50 65Q64.50 66.63 63.69 67.75Q62.88 68.88 61.38 68.88L61.38 68.88Z"/></svg>