<svg xmlns="http://www.w3.org/2000/svg" xmlns:xlink="http://www.w3.org/1999/xlink" width="128" height="128"><path fill="#ffffff" d="M23.50 99.38L22.50 99.38L22.50 97L20.38 97L20.38 99.38L19.25 99.38L19.25 93.75L20.25 93.75L20.25 96.13L22.50 96.13L22.50 93.75L23.50 93.75L23.50 99.38ZM27.63 96.63L27.63 99.38L26.75 99.38L26.63 99.13Q26.38 99.25 26.06 99.31Q25.75 99.38 25.38 99.38L25.38 99.38Q25.38 99.38 25.38 99.38Q25.38 99.38 25.38 99.38L25.38 99.38L25.38 99.38Q24.75 99.38 24.50 99.06Q24.25 98.75 24.25 98.25L24.25 98.25Q24.25 97.63 24.56 97.38Q24.88 97.13 25.50 97.13L25.50 97.13L26.50 97.13L26.50 96.63Q26.50 96.38 26.38 96.19Q26.25 96 25.75 96L25.75 96Q25.38 96 25.06 96.06Q24.75 96.13 24.50 96.13L24.50 96.13L24.50 96.13L24.38 95.38Q24.75 95.25 25.13 95.25Q25.50 95.25 25.88 95.25L25.88 95.25Q25.88 95.25 25.88 95.25Q25.88 95.25 25.88 95.25L25.88 95.25L25.88 95.25Q26.88 95.25 27.25 95.56Q27.63 95.88 27.63 96.63L27.63 96.63ZM26.50 98.38L26.50 97.88L25.75 97.88Q25.50 97.88 25.38 97.94Q25.25 98 25.25 98.25L25.25 98.25Q25.25 98.50 25.38 98.56Q25.50 98.63 25.75 98.63L25.75 98.63Q25.88 98.63 26.13 98.56Q26.38 98.50 26.50 98.38L26.50 98.38L26.50 98.38ZM29.75 99.38L29.75 99.50Q29.38 99.50 29 99.44Q28.63 99.38 28.25 99.25L28.25 99.25L28.38 99.25L28.50 98.38Q28.75 98.50 29.06 98.56Q29.38 98.63 29.75 98.63L29.75 98.63Q30.13 98.63 30.19 98.56Q30.25 98.50 30.25 98.25L30.25 98.25Q30.25 98 30.19 97.88Q30.13 97.75 29.50 97.63L29.50 97.63Q28.75 97.50 28.63 97.25Q28.50 97 28.50 96.38L28.50 96.38Q28.50 95.75 28.81 95.50Q29.13 95.25 30 95.25L30 95.25Q30.38 95.25 30.69 95.25Q31 95.25 31.25 95.38L31.25 95.38L31.25 96.13Q31 96.13 30.69 96.06Q30.38 96 30.13 96L30.13 96L30.13 96Q29.75 96 29.63 96.13Q29.50 96.25 29.50 96.38L29.50 96.38Q29.50 96.63 29.63 96.69Q29.75 96.75 30.13 96.88L30.13 96.88Q31 97.13 31.25 97.31Q31.50 97.50 31.50 98.13L31.50 98.13Q31.50 98.75 31.13 99.06Q30.75 99.38 29.75 99.38L29.75 99.38ZM35.75 99.38L34.63 99.38L34.63 96.50Q34.63 96.38 34.56 96.25Q34.50 96.13 34.38 96.13L34.38 96.13Q34 96.25 33.75 96.31Q33.50 96.38 33.25 96.50L33.25 96.50L33.25 99.38L32.13 99.38L32.13 93.63L33.25 93.75L33.25 95.63Q33.63 95.38 34 95.31Q34.38 95.25 34.75 95.25L34.75 95.25L34.75 95.25Q35.25 95.25 35.50 95.56Q35.75 95.88 35.75 96.38L35.75 96.38L35.75 99.38ZM37.75 94.75L36.63 94.75L36.63 93.75L37.75 93.75L37.75 94.75ZM37.75 99.38L36.63 99.38L36.63 95.25L37.75 95.25L37.75 99.38ZM38.50 97.75L38.50 95.38Q38.50 94.50 39 94.13Q39.50 93.75 40.63 93.75L40.63 93.75Q41 93.75 41.44 93.75Q41.88 93.75 42.25 93.88L42.25 93.88L42.25 93.88L42.13 94.75Q41.75 94.75 41.38 94.69Q41 94.63 40.63 94.63L40.63 94.63L40.63 94.63Q40.13 94.63 39.88 94.81Q39.63 95 39.63 95.50L39.63 95.50L39.63 97.63Q39.63 98 39.88 98.25Q40.13 98.50 40.63 98.50L40.63 98.50Q41 98.50 41.38 98.44Q41.75 98.38 42.13 98.25L42.13 98.25L42.13 98.25L42.25 99.25Q41.88 99.25 41.44 99.31Q41 99.38 40.63 99.38L40.63 99.38L40.63 99.38Q39.50 99.38 39 98.94Q38.50 98.50 38.50 97.75L38.50 97.75ZM44.50 99.50L44.50 99.50Q43.50 99.50 43.13 99Q42.75 98.50 42.75 97.88L42.75 97.88L42.75 96.88Q42.75 96.25 43.13 95.75Q43.50 95.25 44.50 95.25L44.50 95.25Q45.63 95.25 46 95.75Q46.38 96.25 46.38 96.88L46.38 96.88L46.38 97.88Q46.38 98.50 46 99Q45.63 99.50 44.50 99.50L44.50 99.50ZM44.50 96.13L44.50 96.13Q44.13 96.13 43.94 96.31Q43.75 96.50 43.75 96.88L43.75 96.88L43.75 97.88Q43.75 98.25 43.94 98.44Q44.13 98.63 44.50 98.63L44.50 98.63Q45 98.63 45.19 98.44Q45.38 98.25 45.38 97.88L45.38 97.88L45.38 96.88Q45.38 96.50 45.19 96.31Q45 96.13 44.50 96.13L44.50 96.13ZM49.25 95.25L49.38 96.13Q49.13 96.38 48.81 96.50Q48.50 96.63 48.25 96.75L48.25 96.75L48.25 96.75L48.25 99.38L47.13 99.38L47.13 95.25L48.13 95.25L48.13 95.75Q48.38 95.63 48.63 95.44Q48.88 95.25 49.25 95.25L49.25 95.25L49.25 95.25ZM53.63 96.63L53.63 98Q53.63 98 53.63 98.06Q53.63 98.13 53.63 98.13L53.63 98.13Q53.63 98.63 53.25 99Q52.88 99.38 52.38 99.38L52.38 99.38Q52.38 99.38 52.31 99.38Q52.25 99.38 52.25 99.38L52.25 99.38L52.25 99.38Q52 99.38 51.69 99.38Q51.38 99.38 51.13 99.25L51.13 99.25L51.13 99.25L51.13 100.88L50 101.13L50 95.25L50.88 95.25L51 95.63Q51.25 95.38 51.56 95.31Q51.88 95.25 52.25 95.25L52.25 95.25Q52.25 95.25 52.25 95.25Q52.25 95.25 52.38 95.25L52.38 95.25L52.25 95.25Q53 95.25 53.31 95.56Q53.63 95.88 53.63 96.63L53.63 96.63ZM51.13 96.38L51.13 98.38Q51.38 98.50 51.63 98.50Q51.88 98.50 52 98.50L52 98.50Q52.38 98.50 52.50 98.38Q52.63 98.25 52.63 98L52.63 98L52.63 96.63Q52.63 96.38 52.50 96.25Q52.38 96.13 52.13 96.13L52.13 96.13Q51.75 96.13 51.56 96.19Q51.38 96.25 51.13 96.38L51.13 96.38ZM19.25 127.25L19.25 103.88L28.25 103.88Q32.38 103.88 34.06 105.50Q35.75 107.13 35.75 110.25L35.75 110.25L35.75 113.38Q35.75 116.50 33.94 118.06Q32.13 119.63 28.13 119.63L28.13 119.63L23.63 119.63L23.63 127.25L19.25 127.25ZM28.13 107.75L28.13 107.75L23.63 107.75L23.63 115.75L28.13 115.75Q30 115.75 30.69 115.06Q31.38 114.38 31.38 112.88L31.38 112.88L31.38 110.63Q31.25 109.13 30.56 108.44Q29.88 107.75 28.13 107.75ZM50.63 116L50.63 127.25L47.13 127.25L46.88 126.13Q45.75 126.88 44.44 127.25Q43.13 127.63 41.75 127.63L41.75 127.63L41.75 127.63Q39.38 127.63 38.31 126.19Q37.25 124.75 37.25 122.50L37.25 122.50Q37.25 120 38.44 118.88Q39.63 117.75 42.25 117.75L42.25 117.75L46.38 117.75L46.38 116Q46.38 114.50 45.75 113.94Q45.13 113.38 43.13 113.38L43.13 113.38Q41.88 113.38 40.69 113.50Q39.50 113.63 38.38 113.88L38.38 113.88L37.88 110.63Q39.13 110.25 40.63 110.06Q42.13 109.88 43.63 109.88L43.63 109.88L43.63 109.88Q47.75 109.88 49.19 111.31Q50.63 112.75 50.63 116L50.63 116ZM46.38 123.38L46.38 120.75L43.25 120.75Q42.13 120.75 41.75 121.13Q41.38 121.50 41.38 122.50L41.38 122.50Q41.38 123.50 41.75 123.88Q42.13 124.25 43.13 124.25L43.13 124.25Q44 124.13 44.81 123.94Q45.63 123.75 46.38 123.25L46.38 123.25L46.38 123.38ZM53.13 121L53.13 121L53.13 116.38Q53.13 113 54.81 111.44Q56.50 109.88 60.50 109.88L60.50 109.88Q61.63 109.88 62.69 110Q63.75 110.13 64.88 110.50L64.88 110.50L64.75 110.50L64.25 114Q63.38 113.75 62.50 113.63Q61.63 113.50 60.63 113.50L60.63 113.50L60.63 113.50Q58.75 113.50 58.13 114.13Q57.50 114.75 57.50 116.38L57.50 116.38L57.50 121.13Q57.50 122.63 58.13 123.25Q58.75 123.88 60.63 123.88L60.63 123.88Q61.63 123.88 62.50 123.75Q63.38 123.63 64.25 123.38L64.25 123.38L64.25 123.50L64.75 127Q63.75 127.25 62.69 127.44Q61.63 127.63 60.50 127.63L60.50 127.63Q60.50 127.63 60.50 127.63Q60.50 127.63 60.50 127.63L60.50 127.63L60.50 127.63Q56.50 127.63 54.81 126.06Q53.13 124.50 53.13 121L53.13 121ZM71.63 127.25L67.38 127.25L67.38 103.25L71.63 102.63L71.63 127.25ZM77.13 110.25L81.88 110.25L76.88 118.63L82.13 127.25L77.38 127.25L72.25 118.63L77.13 110.25ZM90.88 124.13L90.88 124.13Q92.25 124.13 93.56 123.88Q94.88 123.63 96.13 123.25L96.13 123.25L96 123.25L96.75 126.50Q95.25 127 93.69 127.31Q92.13 127.63 90.38 127.63L90.38 127.63L90.38 127.63Q86.38 127.63 84.81 125.88Q83.25 124.13 83.25 121L83.25 121L83.25 116.50Q83.25 113.88 84.75 111.88Q86.25 109.88 90.25 109.88L90.25 109.88Q94.38 109.88 95.69 111.94Q97 114 97 116.75L97 116.75L97 120.38L87.50 120.38L87.50 121.25Q87.50 122.75 88.19 123.44Q88.88 124.13 90.88 124.13L90.88 124.13ZM87.50 116.13L87.50 116.88L92.88 116.88L92.88 116.13Q92.88 114.88 92.38 114.13Q91.88 113.38 90.25 113.38L90.25 113.38Q88.75 113.38 88.13 114.13Q87.50 114.88 87.50 116.13L87.50 116.13ZM108 109.88L108.38 113.75Q107.13 114.38 105.94 115Q104.75 115.63 103.75 116.38L103.75 116.38L103.88 116.25L103.88 127.25L99.63 127.25L99.63 110.25L103.25 110.25L103.50 112.13Q104.50 111.38 105.56 110.88Q106.63 110.38 107.75 109.88L107.75 109.88L108 109.88ZM37.50 10.50L65.38 26.63L65.38 86.13L37.50 70L37.50 10.50ZM79.25 17.50L79.25 17.50L48.88 0L48.88 12.13L69.50 24.13L69.50 60.50L79.25 66Q83.75 68.63 86.94 67.31Q90.13 66 90.13 61.50L90.13 61.50L90.13 34.75Q90.13 30.25 86.94 25.19Q83.75 20.13 79.25 17.50L79.25 17.50Z"/></svg>