<svg xmlns="http://www.w3.org/2000/svg" xmlns:xlink="http://www.w3.org/1999/xlink" width="128" height="128"><path fill="#ffffff" d="M99.38 45.88L99.50 45.88Q98.88 48.63 97.63 54L97.63 54Q96.50 59.25 95.38 64.50Q94.25 69.75 93.38 73.75L93.38 73.75Q92.50 77.63 92.50 77.63L92.50 77.63L103.25 77.63Q103.75 75.38 104.19 73.25Q104.63 71.13 105.13 68.75L105.13 68.75Q106.13 64.75 107.50 63Q108.88 61.25 111.75 61.25L111.75 61.25Q113 61.25 114.06 61.81Q115.13 62.38 115.13 64.13L115.13 64.13Q115.13 64.88 113.88 70.50Q112.63 76.13 112.38 77.63L112.38 77.63L123 77.63Q123 77.63 124.69 69.56Q126.38 61.50 126.38 61.38L126.38 61.38Q126.50 60.88 126.63 60.06Q126.75 59.25 126.75 59.25L126.75 59.25Q126.75 56.38 123.94 54.94Q121.13 53.50 119.13 53.50L119.13 53.50Q117.75 53.38 118 53.44Q118.25 53.50 116.75 53.50L116.75 53.50Q114.38 53.50 111.75 54.63Q109.13 55.75 107.75 57.13L107.75 57.13L107.50 57.25L107.63 57L110.13 46.13Q110.13 46 110.06 46Q110 46 110 45.88L110 45.88L99.38 45.88ZM48.50 53.13L48.50 53.13Q47.63 53.13 46.31 53.13Q45 53.13 42.88 53.25L42.88 53.25Q38.63 53.38 33.81 55.25Q29 57.13 29 63.13L29 63.13Q29 66.50 31.56 67.31Q34.13 68.13 36.88 68.38L36.88 68.38Q39 68.63 41.19 68.81Q43.38 69 45.50 69.25L45.50 69.25Q46.13 69.38 46.63 69.56Q47.13 69.75 47.13 70.38L47.13 70.38Q47.13 71.63 46.25 72.06Q45.38 72.50 44.13 72.63L44.13 72.63Q42.75 72.75 42.31 72.69Q41.88 72.63 41.88 72.63L41.88 72.63Q41.13 72.63 40 72.06Q38.88 71.50 39.13 70.38L39.13 70.38L26.50 70.38L26.50 72.25Q26.50 76.75 31.63 77.56Q36.75 78.38 38 78.50L38 78.50L41.25 78.50L46 78.38Q50.88 78 55.19 76.06Q59.50 74.13 59.75 68.25L59.75 68.25Q59.88 64.38 56.13 63.69Q52.38 63 50.13 62.88L50.13 62.88L49.38 62.88Q49.25 62.88 46.63 62.56Q44 62.25 42.38 62.13L42.38 62.13Q42 62.13 41.19 61.88Q40.38 61.63 40.38 60.88L40.38 60.88Q40.38 59.50 42.19 59.25Q44 59 44.63 59L44.63 59Q45.50 59 46.94 59.25Q48.38 59.50 48.38 61.13L48.38 61.13L60.25 61.13Q60.25 60.75 60.38 60.44Q60.50 60.13 60.50 59.75L60.50 59.75Q60.50 55.75 56.63 54.56Q52.75 53.38 49.88 53.25L49.88 53.25Q49.88 53.25 49.56 53.19Q49.25 53.13 48.50 53.13L48.50 53.13ZM80.50 53.13L80.50 53.13Q80.25 53.13 79.50 53.13Q78.75 53.13 76.63 53.25L76.63 53.25Q72.50 53.25 67.56 55.19Q62.63 57.13 62.63 63.13L62.63 63.13Q62.63 66.50 65.19 67.31Q67.75 68.13 70.63 68.38L70.63 68.38Q72.75 68.63 74.94 68.88Q77.13 69.13 79.25 69.38L79.25 69.38Q79.88 69.38 80.38 69.56Q80.88 69.75 80.88 70.50L80.88 70.50Q80.88 71.63 79.88 72.13Q78.88 72.63 77.75 72.63L77.75 72.63Q76.75 72.75 76.19 72.69Q75.63 72.63 75.63 72.63L75.63 72.63Q74.75 72.63 73.69 72.13Q72.63 71.63 72.88 70.38L72.88 70.38L60.13 70.38L60.13 72.25Q60.13 76.63 65.25 77.50Q70.38 78.38 71.75 78.50L71.75 78.50L74.88 78.63L79.75 78.50Q84.63 78.13 88.94 76.13Q93.25 74.13 93.50 68.38L93.50 68.38Q93.63 64.63 90 63.94Q86.38 63.25 84 63L84 63L83.13 62.88Q83 62.88 80.38 62.63Q77.75 62.38 76 62.25L76 62.25Q75.75 62.13 74.94 61.88Q74.13 61.63 74.13 60.88L74.13 60.88Q74.13 59.50 75.94 59.31Q77.75 59.13 78.38 59.13L78.38 59.13Q79.25 59.13 80.69 59.38Q82.13 59.63 82.13 61.13L82.13 61.13L94 61.13Q94 60.75 94.13 60.44Q94.25 60.13 94.25 59.88L94.25 59.88Q94.25 55.75 90.31 54.56Q86.38 53.38 83.63 53.38L83.63 53.38Q81.88 53.25 81.38 53.19Q80.88 53.13 80.50 53.13L80.50 53.13ZM19.75 45.25L19.75 45.25Q19.75 43.75 18.81 42.75Q17.88 41.75 16.38 41.75L16.38 41.75Q14.88 41.75 13.88 42.75Q12.88 43.75 12.88 45.25L12.88 45.25Q12.88 46.63 13.81 47.69Q14.75 48.75 16.25 48.75L16.25 48.75Q17.63 48.75 18.69 47.75Q19.75 46.75 19.75 45.25L19.75 45.25ZM29.25 37.13L29.25 37.13Q29.25 36 28.50 34.81Q27.75 33.63 26.25 33.63L26.25 33.63Q24.75 33.63 24.06 34.69Q23.38 35.75 23.38 36.88L23.38 36.88Q23.38 37.88 24.13 39.13Q24.88 40.38 26.38 40.38L26.38 40.38Q27.88 40.38 28.56 39.25Q29.25 38.13 29.25 37.13L29.25 37.13ZM20.75 92.38L20.75 92.38Q19.50 92.38 18.13 93.69Q16.75 95 16.75 96.38L16.75 96.38Q16.75 97 17.06 97.31Q17.38 97.63 18.13 97.63L18.13 97.63Q19 97.63 20.06 96.94Q21.13 96.25 21.75 95L21.75 95Q21.88 94.88 21.94 94.56Q22 94.25 22 94.13L22 94.13L22 93.25Q22 92.75 21.56 92.56Q21.13 92.38 20.75 92.38L20.75 92.38ZM13.38 88.13L13.38 88.13Q12 88.13 10.44 89.44Q8.88 90.75 8.88 92.38L8.88 92.38Q8.88 93.25 9.31 93.63Q9.75 94 10.50 94L10.50 94Q11.88 94 13.56 92.75Q15.25 91.50 15.25 89.75L15.25 89.75Q15.25 88.88 14.75 88.50Q14.25 88.13 13.38 88.13ZM8.13 60.88L8.13 60.88Q9.50 60.88 11 59.94Q12.50 59 12.50 57.13L12.50 57.13Q12.50 55.63 11.44 54.75Q10.38 53.88 9.13 53.88L9.13 53.88Q7.63 53.88 6.19 54.88Q4.75 55.88 4.75 57.75L4.75 57.75Q4.75 59.13 5.75 60Q6.75 60.88 8.13 60.88L8.13 60.88ZM10.38 81.75L10.38 81.75Q10.38 80.63 9.63 80.13Q8.88 79.63 8 79.63L8 79.63Q6.63 79.63 4.88 80.81Q3.13 82 3.13 83.88L3.13 83.88Q3.13 85 3.75 85.44Q4.38 85.88 5.38 85.88L5.38 85.88Q6.63 85.88 8.50 84.81Q10.38 83.75 10.38 81.75L10.38 81.75ZM9.13 70.13L9.13 70.13Q9.13 68.88 8.19 68.25Q7.25 67.63 6.13 67.63L6.13 67.63Q6 67.63 5.94 67.63Q5.88 67.63 5.50 67.63L5.50 67.63Q3.88 67.75 2.56 68.94Q1.25 70.13 1.25 71.63L1.25 71.63Q1.25 73 2.25 73.63Q3.25 74.25 4.38 74.25L4.38 74.25Q5.75 74.25 7.44 73.19Q9.13 72.13 9.13 70.13L9.13 70.13ZM28.88 93L28.88 93Q27.63 93 26.50 94.31Q25.38 95.63 25.38 96.63L25.38 96.63Q25.38 96.88 25.44 97.13Q25.50 97.38 25.75 97.63L25.75 97.63Q26.13 97.75 26.63 97.75Q27.13 97.75 27.88 97.25L27.88 97.25Q28.75 96.63 29.31 95.69Q29.88 94.75 29.88 94.13L29.88 94.13Q29.88 93.75 29.63 93.38Q29.38 93 28.88 93L28.88 93ZM51.88 34.88L51.88 34.88Q50.88 34.88 50.44 36Q50 37.13 50 37.63L50 37.63Q50 38.13 50.31 38.94Q50.63 39.75 51.50 39.75L51.50 39.75Q52.50 39.75 52.88 38.63Q53.25 37.50 53.25 37L53.25 37Q53.25 36.63 53 35.75Q52.75 34.88 51.88 34.88L51.88 34.88ZM56.25 40.38L56.25 40.38Q55.38 40.38 54.94 41.50Q54.50 42.63 54.50 43.13L54.50 43.13Q54.50 43.50 54.75 44.19Q55 44.88 55.75 44.88L55.75 44.88Q56.63 44.88 57 43.81Q57.38 42.75 57.38 42.25L57.38 42.25Q57.38 41.88 57.19 41.13Q57 40.38 56.25 40.38ZM45.25 31L45.25 31Q44 31 43.56 32.13Q43.13 33.25 43.13 33.88L43.13 33.88Q43.13 34.38 43.50 35.50Q43.88 36.63 45 36.63L45 36.63Q46.13 36.63 46.63 35.56Q47.13 34.50 47.13 33.75L47.13 33.75Q47.13 33.13 46.75 32.06Q46.38 31 45.25 31L45.25 31ZM43.13 86.75L43.13 86.75Q42 86.75 41.31 87.94Q40.63 89.13 40.63 89.88L40.63 89.88Q40.63 90.13 40.75 90.44Q40.88 90.75 41.38 90.75L41.38 90.75Q42.50 90.75 43.19 89.56Q43.88 88.38 43.88 87.75L43.88 87.75Q43.88 87.38 43.69 87.06Q43.50 86.75 43.13 86.75L43.13 86.75ZM36.38 30.25L36.38 30.25Q35.13 30.25 34.56 31.38Q34 32.50 34 33.38L34 33.38Q34 34.25 34.63 35.38Q35.25 36.50 36.50 36.50L36.50 36.50Q37.88 36.50 38.38 35.38Q38.88 34.25 38.88 33.38L38.88 33.38Q38.88 32.38 38.31 31.31Q37.75 30.25 36.38 30.25L36.38 30.25ZM36.38 90.88L36.38 90.88Q35.25 90.88 34.38 92.13Q33.50 93.38 33.50 94.25L33.50 94.25Q33.50 94.75 33.69 95Q33.88 95.25 34.38 95.25L34.38 95.25Q35.38 95.25 36.31 94Q37.25 92.75 37.25 91.88L37.25 91.88Q37.25 91.50 37.13 91.19Q37 90.88 36.38 90.88L36.38 90.88Z"/></svg>