<svg xmlns="http://www.w3.org/2000/svg" xmlns:xlink="http://www.w3.org/1999/xlink" width="128" height="128"><path fill="#000000" d="M34.25 109.13L34.25 109.13Q31.63 109.13 28.69 111.56Q25.75 114 25.75 117.13L25.75 117.13Q25.75 118.63 26.63 119.38Q27.50 120.13 28.88 120.13L28.88 120.13Q31.38 120.13 34.56 117.75Q37.75 115.38 37.75 112.13L37.75 112.13Q37.75 110.50 36.75 109.81Q35.75 109.13 34.25 109.13L34.25 109.13ZM46.13 28.88L46.13 28.88Q46.13 26.13 44.38 24.31Q42.63 22.50 39.63 22.50L39.63 22.50Q37 22.50 35.06 24.31Q33.13 26.13 33.13 28.88L33.13 28.88Q33.13 31.50 35 33.50Q36.88 35.50 39.63 35.50L39.63 35.50Q42.25 35.50 44.19 33.63Q46.13 31.75 46.13 28.88L46.13 28.88ZM63.88 13.63L63.88 13.63Q63.88 11.50 62.50 9.38Q61.13 7.25 58.25 7.25L58.25 7.25Q55.50 7.25 54.19 9.13Q52.88 11 52.88 13.13L52.88 13.13Q52.88 15.13 54.31 17.44Q55.75 19.75 58.63 19.75L58.63 19.75Q61.25 19.75 62.56 17.69Q63.88 15.63 63.88 13.63ZM48.38 117.13L48.38 117.13Q46 117.13 43.38 119.63Q40.75 122.13 40.75 124.50L40.75 124.50Q40.75 125.75 41.31 126.38Q41.88 127 43.13 127L43.13 127Q44.88 127 47 125.63Q49.13 124.25 50.25 122.13L50.25 122.13Q50.38 121.63 50.69 121.06Q51 120.50 51 120.38L51 120.38L51 118.75Q50.25 117.75 49.69 117.44Q49.13 117.13 48.38 117.13L48.38 117.13ZM28.50 97.25L28.50 97.25Q28.50 95.13 27.19 94.25Q25.88 93.38 24.13 93.38L24.13 93.38Q21.63 93.38 18.25 95.56Q14.88 97.75 14.88 101.25L14.88 101.25Q14.88 103.13 16.06 104.06Q17.25 105 19.13 105L19.13 105Q21.50 105 25 102.94Q28.50 100.88 28.50 97.25L28.50 97.25ZM24.38 58.13L24.38 58.13Q26.88 58.13 29.69 56.38Q32.50 54.63 32.50 51L32.50 51Q32.50 48.38 30.56 46.75Q28.63 45.13 26.25 45.13L26.25 45.13Q23.50 45.13 20.75 46.94Q18 48.75 18 52.25L18 52.25Q18 55 19.88 56.56Q21.75 58.13 24.38 58.13ZM26.25 75.50L26.25 75.50Q26.25 73 24.50 71.88Q22.75 70.75 20.63 70.75L20.63 70.75Q20.50 70.75 20.31 70.69Q20.13 70.63 19.50 70.75L19.50 70.75Q16.38 71 13.94 73.31Q11.50 75.63 11.50 78.25L11.50 78.25Q11.50 80.88 13.38 82Q15.25 83.13 17.25 83.13L17.25 83.13Q19.88 83.13 23.06 81.19Q26.25 79.25 26.25 75.50L26.25 75.50ZM106.13 9.50L106.13 9.50Q104.25 9.50 103.50 11.63Q102.75 13.75 102.75 14.63L102.75 14.63Q102.75 15.63 103.25 17.19Q103.75 18.75 105.38 18.75L105.38 18.75Q107.38 18.75 108.13 16.63Q108.88 14.50 108.88 13.50L108.88 13.50Q108.88 12.75 108.31 11.13Q107.75 9.50 106.13 9.50L106.13 9.50ZM93.75 2.38L93.75 2.38Q91.50 2.38 90.69 4.44Q89.88 6.50 89.88 7.75L89.88 7.75Q89.88 8.63 90.56 10.75Q91.25 12.88 93.38 12.88L93.38 12.88Q95.50 12.88 96.38 10.81Q97.25 8.75 97.25 7.38L97.25 7.38Q97.25 6.25 96.56 4.31Q95.88 2.38 93.75 2.38L93.75 2.38ZM114.50 19.88L114.50 19.88Q112.63 19.88 111.94 21.94Q111.25 24 111.25 24.88L111.25 24.88Q111.25 25.63 111.63 26.94Q112 28.25 113.38 28.25L113.38 28.25Q115.13 28.25 115.81 26.25Q116.50 24.25 116.50 23.25L116.50 23.25Q116.50 22.75 116.13 21.31Q115.75 19.88 114.50 19.88L114.50 19.88ZM89.75 106.63L89.75 106.63Q87.75 106.63 86.44 108.88Q85.13 111.13 85.13 112.38L85.13 112.38Q85.13 113 85.44 113.50Q85.75 114 86.63 114L86.63 114Q88.63 114 89.88 111.81Q91.13 109.63 91.13 108.38L91.13 108.38Q91.13 107.75 90.88 107.19Q90.63 106.63 89.75 106.63ZM63.13 118.25L63.13 118.25Q60.88 118.25 58.75 120.63Q56.63 123 56.63 125.13L56.63 125.13Q56.63 125.50 56.69 126Q56.75 126.50 57.38 126.88L57.38 126.88Q58 127.25 59 127.19Q60 127.13 61.25 126.25L61.25 126.25Q63 125.13 64 123.38Q65 121.63 65 120.25L65 120.25Q65 119.63 64.56 118.94Q64.13 118.25 63.13 118.25L63.13 118.25ZM77.25 0.75L77.25 0.75Q74.75 0.75 73.75 2.94Q72.75 5.13 72.75 6.75L72.75 6.75Q72.75 8.25 73.94 10.44Q75.13 12.63 77.50 12.63L77.50 12.63Q79.88 12.63 80.88 10.44Q81.88 8.25 81.88 6.75L81.88 6.75Q81.75 4.88 80.81 2.81Q79.88 0.75 77.25 0.75L77.25 0.75ZM77.25 114.25L77.25 114.25Q75 114.25 73.38 116.63Q71.75 119 71.75 120.63L71.75 120.63Q71.75 121.50 72.19 121.94Q72.63 122.38 73.38 122.38L73.38 122.38Q75.38 122.38 77.13 120.06Q78.88 117.75 78.88 116.25L78.88 116.25Q78.88 115.50 78.56 114.88Q78.25 114.25 77.25 114.25L77.25 114.25Z"/></svg>