<svg xmlns="http://www.w3.org/2000/svg" xmlns:xlink="http://www.w3.org/1999/xlink" width="128" height="128"><path fill="#000000" d="M127.25 72.50L127.25 72.50Q127.25 72.50 127.25 72.50Q127.25 72.50 127.25 72.50L127.25 72.50Q127.25 71.88 126.81 71.44Q126.38 71 125.88 71L125.88 71Q125.63 71 125.44 71.06Q125.25 71.13 125.13 71.25L125.13 71.25Q125 71.25 123.19 72.38Q121.38 73.50 119.38 73.25L119.38 73.25Q117.38 73.13 117.44 70.06Q117.50 67 117.50 67L117.50 67Q117.50 67 117.56 64.19Q117.63 61.38 116.50 61L116.50 61Q115.38 60.63 114.19 61.56Q113 62.50 113 62.50L113 62.50Q111.75 63.75 110.88 65.25Q110 66.75 109.38 68.50L109.38 68.50L109 68.75Q109 68.75 109.13 65.56Q109.25 62.38 109 61.25L109 61.25Q108.75 60.75 107.19 60.88Q105.63 61 105.25 61.88L105.25 61.88Q104.88 62.75 103.63 67.63Q102.38 72.50 102.25 75.13L102.25 75.13Q102.25 75.13 99.44 77.19Q96.63 79.25 93.63 79.63L93.63 79.63Q90.75 80.13 89.75 79Q88.75 77.88 88.75 77.88L88.75 77.88Q88.75 77.88 94.13 75.25Q99.50 72.63 99.25 66.13L99.25 66.13Q98.88 59.63 94.56 60.25Q90.25 60.88 89.50 61.38L89.50 61.38Q88.75 61.88 86.06 64.44Q83.38 67 82.25 73.13L82.25 73.13Q82.25 73.38 82.19 74Q82.13 74.63 82.13 74.63L82.13 74.63Q80.75 75.63 79.13 76.50Q77.50 77.38 75.88 78.13L75.88 78.13Q74.13 78.88 77.13 72.44Q80.13 66 74.13 62.25L74.13 62.25Q71.50 60.50 69.63 62.56Q67.75 64.63 67.75 64.63L67.75 64.63Q67.75 64.63 72.81 57.31Q77.88 50 76.13 42.50L76.13 42.50Q75.25 38.88 73.63 38.06Q72 37.25 70.38 37.88L70.38 37.88Q68.88 38.38 67.75 39.19Q66.63 40 65.75 41.13L65.75 41.13Q63.63 44.50 62.19 48.50Q60.75 52.50 60.38 56.75L60.38 56.75Q59.63 63.88 58.75 70.75Q57.88 77.63 57.88 77.63L57.88 77.63Q57.88 77.63 56.56 78.69Q55.25 79.75 53.88 79.75L53.88 79.75Q52.38 79.88 52.56 77Q52.75 74.13 52.75 74.13L52.75 74.13Q52.75 74.13 53.50 69.50Q54.25 64.88 54.13 63.75L54.13 63.75Q54 62.75 53.75 62.06Q53.50 61.38 52.13 61L52.13 61Q50.75 60.63 49.63 61.69Q48.50 62.75 48.50 62.75L48.50 62.75Q48.50 62.75 45.94 66.69Q43.38 70.63 43 71.50L43 71.50L42.75 72L42.50 71.63Q42.50 71.63 43.81 66.44Q45.13 61.25 42.63 61.13L42.63 61.13Q40.13 61 38.56 62.88Q37 64.75 37 64.75L37 64.75Q37 64.75 35.06 68.13Q33.13 71.50 33 72L33 72L32.75 71.63Q32.75 71.63 33.50 67.63Q34.25 63.63 34 62.25L34 62.25Q34 61.63 33.50 61.19Q33 60.75 32.25 60.75L32.25 60.75Q32.25 60.75 32.13 60.75Q32 60.75 31.88 60.75L31.88 60.75Q31.88 60.75 30.75 60.81Q29.63 60.88 29.13 62L29.13 62Q28.25 64.88 27.50 68.31Q26.75 71.75 26.25 75.38L26.25 75.38Q25.63 79 22.63 79.50Q19.63 80 16.88 80L16.88 80Q14.13 80 13.88 78.81Q13.63 77.63 13.63 77.63L13.63 77.63Q13.63 77.63 19.88 74.25Q26.13 70.88 23.38 64L23.38 64Q22.50 62.63 21 61.81Q19.50 61 17.75 61L17.75 61Q17.63 61 17.44 61Q17.25 61 17.13 61L17.13 61Q15 61 12.75 62.44Q10.50 63.88 8.88 67.63L8.88 67.63Q8.38 69 7.94 70.56Q7.50 72.13 7.38 73.75L7.38 73.75L7.38 73.88Q7.38 73.88 6 73.94Q4.63 74 3.63 73.25L3.63 73.25Q2.75 72.50 2.19 72.88Q1.63 73.25 1.63 73.25L1.63 73.25Q1.63 73.25 0.81 74.75Q0 76.25 1.63 76.88L1.63 76.88Q2.88 77.25 4.25 77.56Q5.63 77.88 7.13 78L7.13 78L7.25 78Q7.63 79.88 8.63 81.44Q9.63 83 11.13 84L11.13 84Q14.13 86.38 18.44 85.06Q22.75 83.75 22.75 83.75L22.75 83.75L25.88 82Q25.88 82 26.25 83.56Q26.63 85.13 28.25 85.38L28.25 85.38Q30 85.63 31.25 84.31Q32.50 83 35.50 75.75L35.50 75.75Q37.25 72 37.63 71.50Q38 71 38 71L38 71L38.25 71Q38.25 71 37.44 76Q36.63 81 37.13 83L37.13 83Q37.63 84.88 39.25 85.06Q40.88 85.25 40.88 85.25L40.88 85.25Q40.88 85.25 41.88 84.81Q42.88 84.38 43.88 80.88L43.88 80.88Q44.75 78 45.75 75.44Q46.75 72.88 47.88 70.63L47.88 70.63L48 71Q48 71 47.63 76.25Q47.25 81.50 48.63 83.75L48.63 83.75Q49.88 86.13 52.31 85.50Q54.75 84.88 54.75 84.88L54.75 84.88Q55.75 84.38 56.63 83.88Q57.50 83.38 58.38 82.75L58.38 82.75Q59.88 84 61.81 84.75Q63.75 85.50 65.88 85.50L65.88 85.50Q66.25 85.50 66.56 85.44Q66.88 85.38 67.13 85.38L67.13 85.38Q75.75 83.75 79.25 81.94Q82.75 80.13 82.75 80.13L82.75 80.13Q83.88 82.38 86 83.88Q88.13 85.38 90.75 85.63L90.75 85.63Q91.13 85.63 91.44 85.63Q91.75 85.63 92.13 85.63L92.13 85.63Q94.88 85.63 97.38 84.56Q99.88 83.50 101.63 81.75L101.63 81.75Q103.50 79.88 102.88 82.31Q102.25 84.75 104 85.63L104 85.63Q105.88 86.38 107 83.63Q108.13 80.88 108.13 80.88L108.13 80.88L112.25 69.50L112.63 69.50Q112.63 69.50 113.25 73.38Q113.88 77.25 116.88 78.13L116.88 78.13Q119.88 79 123 77.19Q126.13 75.38 126.13 75.38L126.13 75.38Q126.75 75 127.06 74.44Q127.38 73.88 127.38 73.13L127.38 73.13Q127.38 73 127.31 72.81Q127.25 72.63 127.25 72.50L127.25 72.50ZM13 73.63L13 73.63Q13.13 68.88 15.38 66.88Q17.63 64.88 18.75 65.88L18.75 65.88Q19.88 66.88 19.44 68.81Q19 70.75 16.88 72.13L16.88 72.13Q14.88 73.50 13.94 73.56Q13 73.63 13 73.63L13 73.63ZM66.88 49.13L66.88 49.13Q66.88 49.13 68.88 44.81Q70.88 40.50 71.63 44.13L71.63 44.13Q72.25 47.75 67.94 55.44Q63.63 63.13 63.63 63.13L63.63 63.13Q63.75 60.63 65.31 54.88Q66.88 49.13 66.88 49.13ZM71.38 76.50L71.38 76.50Q69.50 81.38 66.19 80.88Q62.88 80.38 62.88 80.38L62.88 80.38Q62.88 80.38 62.75 78.38Q62.63 76.38 64.13 71.50L64.13 71.50Q65.63 66.50 68.19 67Q70.75 67.50 70.75 67.50L70.75 67.50Q70.75 67.50 72 69.50Q73.25 71.50 71.38 76.50ZM88.13 73.63L88.13 73.63Q88.13 73.63 88.13 72.06Q88.13 70.50 89.75 67.50L89.75 67.50Q91.38 64.50 92.50 65.13Q93.63 65.75 93.63 65.75L93.63 65.75Q93.63 65.75 94.31 67.13Q95 68.50 93.38 70.75L93.38 70.75Q92.50 72 91.13 72.81Q89.75 73.63 88.13 73.63L88.13 73.63Z"/></svg>