<svg xmlns="http://www.w3.org/2000/svg" xmlns:xlink="http://www.w3.org/1999/xlink" width="128" height="128"><path fill="#ffffff" d="M15.88 41.25L15.88 41.25Q15.38 40.75 14.81 40.50Q14.25 40.25 13.50 40.25L13.50 40.25Q13.50 40.25 13.50 40.25Q13.50 40.25 13.50 40.25L13.50 40.25L13.50 40.25Q13.50 40.25 13.50 40.25Q13.50 40.25 13.50 40.25L13.50 40.25Q12.75 40.25 12.19 40.50Q11.63 40.75 11.13 41.25L11.13 41.25L11.13 41.25L11.13 41.25Q10.75 41.63 10.44 42.25Q10.13 42.88 10.13 43.63L10.13 43.63Q10.13 43.63 10.13 43.63Q10.13 43.63 10.13 43.63L10.13 43.63L10.13 43.63Q10.13 44.38 10.44 44.94Q10.75 45.50 11.13 46L11.13 46L11.13 46Q11.63 46.50 12.19 46.75Q12.75 47 13.50 47L13.50 47Q13.50 47 13.50 47Q13.50 47 13.50 47L13.50 47L13.50 47Q13.50 47 13.50 47Q13.50 47 13.50 47L13.50 47Q14.25 47 14.81 46.75Q15.38 46.50 15.88 46L15.88 46L15.88 46L15.88 46Q16.38 45.50 16.63 44.94Q16.88 44.38 16.88 43.63L16.88 43.63Q16.88 43.63 16.88 43.63Q16.88 43.63 16.88 43.63L16.88 43.63L16.88 43.63Q16.88 42.88 16.63 42.25Q16.38 41.63 15.88 41.25L15.88 41.25ZM13.50 87.75L13.50 87.75Q14.25 87.75 14.81 87.50Q15.38 87.25 15.88 86.75L15.88 86.75L15.88 86.75Q16.38 86.38 16.63 85.75Q16.88 85.13 16.88 84.38L16.88 84.38Q16.88 84.38 16.88 84.38Q16.88 84.38 16.88 84.38L16.88 84.38L16.88 84.38Q16.88 83.63 16.63 83Q16.38 82.38 15.88 82L15.88 82L15.88 82Q15.50 81.50 14.88 81.25Q14.25 81 13.50 81L13.50 81Q13.50 81 13.50 81Q13.50 81 13.50 81L13.50 81L13.50 81Q13.50 81 13.50 81Q13.50 81 13.50 81L13.50 81Q12.75 81 12.19 81.25Q11.63 81.50 11.13 82L11.13 82L11.13 82L11.13 82Q10.75 82.50 10.44 83.06Q10.13 83.63 10.13 84.38L10.13 84.38Q10.13 84.38 10.13 84.38Q10.13 84.38 10.13 84.38L10.13 84.38L10.13 84.38Q10.13 85.13 10.44 85.75Q10.75 86.38 11.13 86.75L11.13 86.75L11.13 86.75Q11.63 87.25 12.25 87.50Q12.88 87.75 13.50 87.75L13.50 87.75Q13.50 87.75 13.50 87.75Q13.50 87.75 13.50 87.75L13.50 87.75L13.50 87.75ZM31.75 77.50L31.75 77.50Q32.38 77.25 32.94 76.88Q33.50 76.50 33.75 75.88L33.75 75.88L33.75 75.88L33.88 75.75Q34 75.50 34.13 75.06Q34.25 74.63 34.25 74.25L34.25 74.25Q34.25 74 34.19 73.75Q34.13 73.50 34.13 73.25L34.13 73.25L34.13 73.38Q33.88 72.63 33.50 72.13Q33.13 71.63 32.50 71.25L32.50 71.25L32.50 71.25L32.50 71.25Q32.13 71 31.75 70.88Q31.38 70.75 30.88 70.75L30.88 70.75Q30.63 70.75 30.44 70.81Q30.25 70.88 30 70.88L30 70.88L30 70.88Q29.38 71.13 28.81 71.50Q28.25 71.88 28 72.50L28 72.50L28 72.50Q27.75 72.88 27.63 73.31Q27.50 73.75 27.50 74.25L27.50 74.25Q27.50 75.13 27.94 75.88Q28.38 76.63 29.13 77.13L29.13 77.13L29.25 77.13L29.25 77.13Q29.75 77.50 30.44 77.56Q31.13 77.63 31.75 77.50L31.75 77.50ZM17 60.50L17 60.50Q16.25 59.88 15.38 59.50Q14.50 59.13 13.50 59L13.50 59L13.50 59Q12.50 59.13 11.63 59.50Q10.75 59.88 10.13 60.50L10.13 60.50L10.13 60.50Q9.38 61.13 9 62.06Q8.63 63 8.63 64L8.63 64Q8.63 64 8.63 64Q8.63 64 8.63 64L8.63 64L8.63 64Q8.63 65 9 65.94Q9.38 66.88 10.13 67.50L10.13 67.50Q10.75 68.13 11.63 68.50Q12.50 68.88 13.50 68.88L13.50 68.88Q14.50 68.88 15.38 68.50Q16.25 68.13 17 67.50L17 67.50L17 67.50Q17.63 66.88 18 65.94Q18.38 65 18.38 64L18.38 64Q18.38 64 18.38 64Q18.38 64 18.38 64L18.38 64L18.38 64Q18.38 64 18.38 64Q18.38 64 18.38 64L18.38 64Q18.38 63 18 62.06Q17.63 61.13 17 60.50L17 60.50L17 60.50ZM15 54.75L15 54.75Q16.50 55 17.75 55.69Q19 56.38 20 57.38L20 57.38L20 57.38L20 57.38Q20.25 57.50 20.38 57.69Q20.50 57.88 20.63 58L20.63 58L24 56.13Q23.88 55.63 23.75 55Q23.63 54.38 23.63 53.75L23.63 53.75Q23.63 53.25 23.69 52.81Q23.75 52.38 23.88 51.88L23.88 51.88L23.88 51.88Q24.25 50.50 25.13 49.38Q26 48.25 27.25 47.50L27.25 47.50L27.25 47.50L27.38 47.38Q28.13 47 29 46.75Q29.88 46.50 30.88 46.50L30.88 46.50Q31.38 46.50 31.88 46.56Q32.38 46.63 32.75 46.75L32.75 46.75L32.75 46.75Q34.13 47.13 35.25 48Q36.38 48.88 37.13 50.13L37.13 50.13L37.13 50.13L37.13 50.13Q37.63 50.88 37.88 51.81Q38.13 52.75 38.13 53.75L38.13 53.75Q38.13 54.38 38.06 54.81Q38 55.25 37.88 55.75L37.88 55.75L37.88 55.75Q37.50 57.13 36.63 58.25Q35.75 59.38 34.50 60.13L34.50 60.13L34.50 60.13L34 60.38L34 60.38Q33.25 60.75 32.50 60.94Q31.75 61.13 30.88 61.13L30.88 61.13Q30.38 61.13 29.88 61.06Q29.38 61 29 60.88L29 60.88L29 60.88Q28 60.63 27.06 60.06Q26.13 59.50 25.50 58.75L25.50 58.75L25.50 58.75L22.13 60.63Q22.50 61.38 22.63 62.25Q22.75 63.13 22.75 64L22.75 64Q22.75 64.88 22.63 65.75Q22.50 66.63 22.13 67.38L22.13 67.38L22.13 67.38L25.50 69.25Q26.13 68.50 27 67.94Q27.88 67.38 29 67.13L29 67.13L29 67.13Q29.38 67 29.88 66.94Q30.38 66.88 30.88 66.88L30.88 66.88Q31.88 66.88 32.81 67.13Q33.75 67.38 34.50 67.88L34.50 67.88L34.50 67.88L34.63 67.88L34.63 67.88Q35.75 68.63 36.63 69.75Q37.50 70.88 37.88 72.25L37.88 72.25L37.88 72.25Q38 72.75 38.06 73.19Q38.13 73.63 38.13 74.25L38.13 74.25Q38.13 75.25 37.88 76.19Q37.63 77.13 37.13 77.88L37.13 77.88L37.13 77.88L37 78L37 78Q36.38 79.13 35.25 80Q34.13 80.88 32.75 81.25L32.75 81.25L32.75 81.25Q32.38 81.38 31.88 81.44Q31.38 81.50 30.88 81.50L30.88 81.50Q29.88 81.50 28.94 81.25Q28 81 27.25 80.50L27.25 80.50L27.25 80.50L27.25 80.50Q26 79.75 25.13 78.63Q24.25 77.50 23.88 76.13L23.88 76.13L23.88 76.13Q23.75 75.63 23.69 75.19Q23.63 74.75 23.63 74.25L23.63 74.25Q23.63 73.63 23.75 73Q23.88 72.38 24 71.88L24 71.88L24 71.88L20.63 70Q20.50 70.13 20.38 70.31Q20.25 70.50 20 70.63L20 70.63L20 70.63Q19 71.63 17.75 72.31Q16.50 73 15.13 73.25L15.13 73.25L15 73.25L15 77.25Q16 77.38 16.94 77.94Q17.88 78.50 18.63 79.25L18.63 79.25L18.63 79.25Q19.63 80.25 20.19 81.56Q20.75 82.88 20.75 84.38L20.75 84.38Q20.75 84.38 20.75 84.38Q20.75 84.38 20.75 84.38L20.75 84.38L20.75 84.38Q20.75 84.38 20.75 84.38Q20.75 84.38 20.75 84.38L20.75 84.38Q20.75 85.88 20.19 87.25Q19.63 88.63 18.63 89.63L18.63 89.63L18.63 89.50L18.63 89.63Q17.63 90.63 16.31 91.19Q15 91.75 13.50 91.75L13.50 91.75Q12 91.75 10.69 91.19Q9.38 90.63 8.38 89.63L8.38 89.63L8.38 89.63L8.38 89.63L8.38 89.50Q7.38 88.63 6.81 87.25Q6.25 85.88 6.25 84.38L6.25 84.38Q6.25 84.38 6.25 84.38Q6.25 84.38 6.25 84.38L6.25 84.38L6.25 84.38Q6.25 82.88 6.81 81.56Q7.38 80.25 8.38 79.25L8.38 79.25L8.38 79.25L8.38 79.25Q9.13 78.50 10.06 78Q11 77.50 12 77.25L12 77.25L12 77.25L12 73.25Q10.50 73 9.25 72.31Q8 71.63 7 70.63L7 70.63L7 70.63Q5.75 69.38 5 67.69Q4.25 66 4.25 64L4.25 64Q4.25 64 4.25 64Q4.25 64 4.25 64L4.25 64L4.25 64Q4.25 64 4.25 64Q4.25 64 4.25 64L4.25 64Q4.25 62 5 60.31Q5.75 58.63 7 57.38L7 57.38L7 57.38L7 57.38Q8 56.38 9.25 55.69Q10.50 55 12 54.75L12 54.75L12 54.75L12 50.75Q11 50.50 10.06 50Q9.13 49.50 8.38 48.75L8.38 48.75L8.38 48.75L8.38 48.75L8.38 48.75Q7.38 47.75 6.81 46.44Q6.25 45.13 6.25 43.63L6.25 43.63Q6.25 43.63 6.25 43.63Q6.25 43.63 6.25 43.63L6.25 43.63L6.25 43.63Q6.25 42.13 6.81 40.75Q7.38 39.38 8.38 38.38L8.38 38.38L8.38 38.38Q9.38 37.38 10.69 36.81Q12 36.25 13.50 36.25L13.50 36.25L13.50 36.25Q15 36.25 16.31 36.81Q17.63 37.38 18.63 38.38L18.63 38.38L18.63 38.38L18.63 38.38Q19.63 39.38 20.19 40.75Q20.75 42.13 20.75 43.63L20.75 43.63Q20.75 43.63 20.75 43.63Q20.75 43.63 20.75 43.63L20.75 43.63L20.75 43.63Q20.75 43.63 20.75 43.63Q20.75 43.63 20.75 43.63L20.75 43.63Q20.75 45.13 20.19 46.44Q19.63 47.75 18.63 48.75L18.63 48.75L18.63 48.75L18.63 48.75Q17.88 49.50 17 50Q16.13 50.50 15.13 50.75L15.13 50.75L15 50.75L15 54.75ZM33.75 52.13L33.75 52.13L33.75 52Q33.38 51.50 32.88 51.13Q32.38 50.75 31.75 50.50L31.75 50.50L31.75 50.50Q31.50 50.50 31.31 50.44Q31.13 50.38 30.88 50.38L30.88 50.38Q30.38 50.38 29.94 50.50Q29.50 50.63 29.13 50.88L29.13 50.88L29.25 50.88L29.25 50.88Q28.63 51.25 28.19 51.75Q27.75 52.25 27.63 52.88L27.63 52.88L27.63 52.88Q27.63 53.13 27.56 53.38Q27.50 53.63 27.50 53.75L27.50 53.75Q27.50 54.25 27.63 54.69Q27.75 55.13 28 55.50L28 55.50L28 55.50L28 55.50Q28.38 56.13 28.88 56.50Q29.38 56.88 30 57.13L30 57.13Q30.25 57.13 30.44 57.19Q30.63 57.25 30.88 57.25L30.88 57.25Q31.38 57.25 31.75 57.13Q32.13 57 32.50 56.75L32.50 56.75L32.50 56.75L32.63 56.75Q33.13 56.38 33.50 55.88Q33.88 55.38 34.13 54.75L34.13 54.75L34.13 54.75Q34.13 54.50 34.19 54.25Q34.25 54 34.25 53.75L34.25 53.75Q34.25 53.38 34.13 52.94Q34 52.50 33.75 52.13L33.75 52.13L33.75 52.13ZM48.63 53.25L48.63 53.25L52.38 53.25L52.38 64.88L57.75 58.75L62.13 58.75L55.63 65.75L62.13 74.63L57.88 74.63L52.38 66.75L52.38 74.63L48.63 74.63L48.63 53.25ZM66.50 66.75L66.50 66.75Q66.50 68.25 67.63 69.94Q68.75 71.63 71.25 71.63L71.25 71.63Q72.75 71.63 73.81 70.88Q74.88 70.13 75.38 69.13L75.38 69.13Q75.63 68.50 75.81 68Q76 67.50 76 66.88L76 66.88Q76 66.75 76 66.75Q76 66.75 76 66.63L76 66.63Q76 66.13 75.88 65.63Q75.75 65.13 75.50 64.63L75.50 64.63L75.50 64.63Q75.13 63.50 74 62.69Q72.88 61.88 71.25 61.88L71.25 61.88Q69 61.88 67.75 63.38Q66.50 64.88 66.50 66.75L66.50 66.75L66.50 66.75ZM79.63 58.75L79.63 74.63L76 74.63L76 72.38Q75.25 73.75 73.81 74.44Q72.38 75.13 70.75 75.13L70.75 75.13Q67 75.13 64.88 72.63Q62.75 70.13 62.75 66.75L62.75 66.75Q62.75 63 65.06 60.63Q67.38 58.25 70.75 58.25L70.75 58.25Q72.88 58.25 74.19 59.19Q75.50 60.13 76 61.13L76 61.13L76 58.75L79.63 58.75ZM83.88 61.75L83.88 61.75L82 61.75L82 58.75L83.88 58.75L83.88 57.88Q83.88 54.38 86 53.63Q88.13 52.88 90.13 52.88L90.13 52.88L90.13 55.75Q89.38 55.75 88.50 56.06Q87.63 56.38 87.63 58L87.63 58L87.63 58.75L90.13 58.75L90.13 61.75L87.63 61.75L87.63 74.63L83.88 74.63L83.88 61.75ZM92.63 53.25L92.63 53.25L96.38 53.25L96.38 64.88L101.75 58.75L106.25 58.75L99.75 65.75L106.25 74.63L102 74.63L96.38 66.75L96.38 74.63L92.63 74.63L92.63 53.25ZM110.50 66.75L110.50 66.75Q110.50 68.25 111.63 69.94Q112.75 71.63 115.25 71.63L115.25 71.63Q116.88 71.63 117.88 70.88Q118.88 70.13 119.38 69.13L119.38 69.13Q119.75 68.50 119.88 68Q120 67.50 120 66.88L120 66.88Q120 66.75 120 66.75Q120 66.75 120 66.63L120 66.63Q120 66.13 119.88 65.63Q119.75 65.13 119.63 64.63L119.63 64.63L119.63 64.63Q119.13 63.50 118.06 62.69Q117 61.88 115.25 61.88L115.25 61.88Q113 61.88 111.75 63.38Q110.50 64.88 110.50 66.75L110.50 66.75L110.50 66.75ZM123.75 74.63L123.75 74.63L120 74.63L120 72.38Q119.25 73.75 117.81 74.44Q116.38 75.13 114.75 75.13L114.75 75.13Q111 75.13 108.88 72.63Q106.75 70.13 106.75 66.75L106.75 66.75Q106.75 63 109.13 60.63Q111.50 58.25 114.75 58.25L114.75 58.25Q116.88 58.25 118.19 59.19Q119.50 60.13 120 61.13L120 61.13L120 58.75L123.75 58.75L123.75 74.63Z"/></svg>