<svg xmlns="http://www.w3.org/2000/svg" xmlns:xlink="http://www.w3.org/1999/xlink" width="128" height="128"><path fill="#000000" d="M86.75 70.88L86.75 70.88Q83 70.88 79.75 72.44Q76.50 74 74.25 76.63L74.25 76.63L66.38 71Q67 69.38 67.38 67.50Q67.75 65.63 67.75 63.75L67.75 63.75L67.75 63.75Q67.75 61.75 67.38 60Q67 58.25 66.38 56.50L66.38 56.50L74.25 51Q76.50 53.63 79.75 55.13Q83 56.63 86.75 56.63L86.75 56.63Q93.63 56.63 98.56 51.75Q103.50 46.88 103.50 40L103.50 40Q103.50 33.13 98.56 28.25Q93.63 23.38 86.75 23.38L86.75 23.38Q79.88 23.38 74.94 28.25Q70 33.13 70 40L70 40Q70 41.25 70.19 42.44Q70.38 43.63 70.75 44.75L70.75 44.75L62.88 50.25Q60.50 47.13 57.06 45.13Q53.63 43.13 49.63 42.50L49.63 42.50L49.50 42.50L49.50 33Q55.25 31.88 59.06 27.31Q62.88 22.75 62.88 16.75L62.88 16.75Q62.88 9.88 57.94 4.94Q53 0 46.13 0L46.13 0Q39.25 0 34.31 4.94Q29.38 9.88 29.38 16.75L29.38 16.75Q29.38 22.63 33.13 27.19Q36.88 31.75 42.38 33L42.38 33L42.38 42.50Q34.75 43.88 29.63 49.81Q24.50 55.75 24.50 63.75L24.50 63.75Q24.50 71.75 29.69 77.69Q34.88 83.63 42.50 84.88L42.50 84.88L42.50 95Q36.88 96.25 33.13 100.75Q29.38 105.25 29.38 111.25L29.38 111.25Q29.38 118.13 34.31 123.06Q39.25 128 46.13 128L46.13 128Q53 128 57.94 123.06Q62.88 118.13 62.88 111.25L62.88 111.25Q62.88 105.25 59.13 100.75Q55.38 96.25 49.75 95L49.75 95L49.75 84.88Q53.75 84.25 57.06 82.25Q60.38 80.25 62.75 77.38L62.75 77.38L62.88 77.25L70.75 82.88Q70.38 83.88 70.19 85.06Q70 86.25 70 87.50L70 87.50L70 87.63Q70 94.50 74.94 99.38Q79.88 104.25 86.75 104.25L86.75 104.25Q93.63 104.25 98.56 99.38Q103.50 94.50 103.50 87.63L103.50 87.63Q103.50 80.63 98.56 75.75Q93.63 70.88 86.75 70.88L86.75 70.88ZM86.75 31.88L86.75 31.88Q90.13 31.88 92.50 34.25Q94.88 36.63 94.88 40L94.88 40Q94.88 43.38 92.50 45.75Q90.13 48.13 86.75 48.13L86.75 48.13Q83.38 48.13 81 45.75Q78.63 43.38 78.63 40L78.63 40Q78.63 36.63 81 34.25Q83.38 31.88 86.75 31.88ZM38 16.75L38 16.75Q38 13.38 40.38 11Q42.75 8.63 46.13 8.63L46.13 8.63Q49.50 8.63 51.88 11Q54.25 13.38 54.25 16.75L54.25 16.75Q54.25 20.13 51.88 22.44Q49.50 24.75 46.13 24.75L46.13 24.75Q42.75 24.75 40.38 22.44Q38 20.13 38 16.75L38 16.75ZM54.25 111.25L54.25 111.25Q54.25 114.63 51.88 117Q49.50 119.38 46.13 119.38L46.13 119.38Q42.75 119.38 40.38 117Q38 114.63 38 111.25L38 111.25Q38 107.88 40.38 105.56Q42.75 103.25 46.13 103.25L46.13 103.25Q49.50 103.25 51.88 105.56Q54.25 107.88 54.25 111.25ZM46.13 75L46.13 75Q41.50 75 38.19 71.69Q34.88 68.38 34.88 63.75L34.88 63.75Q34.88 59 38.19 55.69Q41.50 52.38 46.13 52.38L46.13 52.38Q50.75 52.38 54.06 55.69Q57.38 59 57.38 63.75L57.38 63.75Q57.38 68.38 54.06 71.69Q50.75 75 46.13 75ZM86.75 95.63L86.75 95.63Q83.38 95.63 81 93.25Q78.63 90.88 78.63 87.63L78.63 87.63Q78.63 84.25 81 81.88Q83.38 79.50 86.75 79.50L86.75 79.50Q90.13 79.50 92.50 81.88Q94.88 84.25 94.88 87.50L94.88 87.50Q94.88 90.88 92.50 93.25Q90.13 95.63 86.75 95.63L86.75 95.63Z"/></svg>