<svg xmlns="http://www.w3.org/2000/svg" xmlns:xlink="http://www.w3.org/1999/xlink" width="128" height="128"><path fill="#ffffff" d="M100.13 38.25L100.13 38.25L90.88 47.50Q96.50 53.13 99.38 60.25L99.38 60.25Q102.25 67.38 102.25 74.75Q102.25 82.13 99.38 89.13L99.38 89.13Q96.50 96.25 90.88 101.75L90.88 101.75Q85.25 107.50 78.13 110.25L78.13 110.25Q71 113.13 63.63 113.13Q56.25 113.13 49.25 110.25L49.25 110.25Q42.13 107.50 36.63 101.75L36.63 101.75Q30.88 96.13 28.13 89L28.13 89Q25.25 82 25.25 74.63Q25.25 67.25 28.13 60.13L28.13 60.13Q30.88 53.13 36.63 47.50L36.63 47.50L64 20.13L64 2L27.75 38.25Q20.25 45.75 16.50 55.25L16.50 55.25Q12.75 64.75 12.75 74.56Q12.75 84.38 16.50 93.88L16.50 93.88Q20.25 103.38 27.75 111L27.75 111Q35.38 118.63 44.75 122.38L44.75 122.38Q54.25 126.13 64.13 126.13Q74 126.13 83.38 122.38L83.38 122.38Q92.75 118.50 100.25 111L100.25 111Q107.75 103.38 111.50 94L111.50 94Q115.25 84.50 115.25 74.63Q115.25 64.75 111.50 55.38L111.50 55.38Q107.63 45.88 100.13 38.25ZM82.25 22.63L82.25 22.63Q85 22.75 86.94 24.75Q88.88 26.75 88.75 29.50L88.75 29.50Q88.75 32.25 86.75 34.19Q84.75 36.13 82 36.13L82 36.13Q79.13 36 77.25 34Q75.38 32 75.38 29.25L75.38 29.25Q75.38 26.50 77.38 24.56Q79.38 22.63 82.25 22.63Z"/></svg>