<svg xmlns="http://www.w3.org/2000/svg" xmlns:xlink="http://www.w3.org/1999/xlink" width="128" height="128"><path fill="#000000" d="M17.88 55.75L17.88 55.75L16.25 57.38Q18.25 59.38 18.25 62.31Q18.25 65.25 16.25 67.25L16.25 67.25Q14.13 69.38 11.25 69.31Q8.38 69.25 6.38 67.25L6.38 67.25Q4.38 65.13 4.38 62.25Q4.38 59.38 6.38 57.25L6.38 57.25L11.38 52.25L11.38 49L4.75 55.63Q2 58.38 2 62.25Q2 66.13 4.75 68.75L4.75 68.75Q7.63 71.50 11.44 71.56Q15.25 71.63 18 68.75L18 68.75Q20.75 66.13 20.69 62.31Q20.63 58.50 17.88 55.75L17.88 55.75ZM15.75 54.13L15.75 54.13Q15.75 54.63 15.44 54.94Q15.13 55.25 14.63 55.25L14.63 55.25Q14.13 55.25 13.75 54.94Q13.38 54.63 13.38 54.13L13.38 54.13Q13.38 53.63 13.75 53.25Q14.13 52.88 14.63 52.88L14.63 52.88Q15.13 52.88 15.44 53.25Q15.75 53.63 15.75 54.13ZM34.88 64.13L34.88 64.13L32.13 64.13L32.13 71.38L30 71.38L30 50.75L35.25 50.75Q39.25 50.75 41.25 52.56Q43.25 54.38 43.25 57.13L43.25 57.13Q43.25 60.50 41 62.31Q38.75 64.13 34.88 64.13L34.88 64.13ZM35.13 52.75L35.13 52.75L32.13 52.75L32.13 62.25L35 62.25Q37.88 62.13 39.44 60.94Q41 59.75 41 57.38L41 57.38Q41.13 55.13 39.56 53.94Q38 52.75 35.13 52.75ZM52.75 71.25L52.75 71.25L51.50 74.63Q50.50 77.38 49.31 78.31Q48.13 79.25 46.63 79.25L46.63 79.25Q45.75 79.25 45.06 79.06Q44.38 78.88 43.75 78.63L43.75 78.63L44.25 76.75Q44.88 77 45.44 77.19Q46 77.38 46.63 77.38L46.63 77.38Q47.38 77.38 48.13 76.75Q48.88 76.13 49.75 73.88L49.75 73.88L50.75 71.25L44.75 56.25L47 56.25L51.75 68.75L56.38 56.25L58.50 56.25L52.75 71.25ZM72.75 52.75L65.50 52.75L65.50 71.50L63.38 71.50L63.38 52.75L56.13 52.75L56.13 50.75L72.75 50.75L72.75 52.75ZM78.75 71.75L78.75 71.75Q75.63 71.75 73.56 69.63Q71.50 67.50 71.50 63.88L71.50 63.88Q71.50 60.25 73.63 58.06Q75.75 55.88 79 55.88L79 55.88Q82.25 55.88 84.25 58.06Q86.25 60.25 86.25 63.75L86.25 63.75Q86.25 67.38 84.13 69.56Q82 71.75 78.75 71.75ZM78.75 57.75L78.75 57.75Q76.38 57.75 74.94 59.50Q73.50 61.25 73.50 63.88L73.50 63.88Q73.50 66.63 74.94 68.38Q76.38 70.13 78.75 70.13L78.75 70.13Q81.25 70.13 82.69 68.44Q84.13 66.75 84.13 64L84.13 64Q84.13 61.13 82.69 59.44Q81.25 57.75 78.75 57.75L78.75 57.75ZM91.38 71.38L91.38 71.38L89.25 71.38L89.25 56.25L91.38 55.75L91.38 59Q92.13 57.63 93.19 56.69Q94.25 55.75 95.75 55.75L95.75 55.75Q96.50 55.75 97.19 56Q97.88 56.25 98.50 56.50L98.50 56.50L98 58.38Q97.50 58.13 96.88 57.94Q96.25 57.75 95.75 57.75L95.75 57.75Q94.50 57.75 93.38 58.69Q92.25 59.63 91.38 61.63L91.38 61.63L91.38 71.38ZM106.50 71.75L106.50 71.75Q103 71.75 101.06 69.56Q99.13 67.38 99.13 63.88L99.13 63.88Q99.13 60.38 101.19 58.13Q103.25 55.88 106.50 55.88L106.50 55.88Q107.88 55.88 109.06 56.25Q110.25 56.63 111.25 57.25L111.25 57.25L110.75 59Q109.88 58.38 108.81 58.06Q107.75 57.75 106.50 57.75L106.50 57.75Q104 57.75 102.63 59.44Q101.25 61.13 101.25 63.75L101.25 63.75Q101.25 66.63 102.69 68.25Q104.13 69.88 106.50 69.88L106.50 69.88Q107.63 69.88 108.75 69.56Q109.88 69.25 110.75 68.75L110.75 68.75L111.25 70.63Q110.25 71.13 109.06 71.44Q107.88 71.75 106.50 71.75ZM126 71.38L123.88 71.38L123.88 61.63Q123.88 59.63 123.06 58.69Q122.25 57.75 120.75 57.75L120.75 57.75Q119.38 57.75 118.19 58.38Q117 59 116 59.88L116 59.88L116 71.38L113.88 71.38L113.88 49.25L116 48.75L116 58.25Q117.25 57.13 118.63 56.50Q120 55.88 121.25 55.88L121.25 55.88Q123.50 55.88 124.75 57.25Q126 58.63 126 61.13L126 61.13L126 71.38Z"/></svg>