<svg xmlns="http://www.w3.org/2000/svg" xmlns:xlink="http://www.w3.org/1999/xlink" width="128" height="128"><path fill="#ffffff" d="M101.38 77.25L101.38 77.25Q101.38 81 99.44 82.88Q97.50 84.75 93.75 84.88L93.75 84.88L33.88 84.88Q30.25 84.88 28.25 83Q26.25 81.13 26.25 77.25L26.25 77.25Q26.25 73.50 28.25 71.56Q30.25 69.63 33.88 69.50L33.88 69.50L94.13 69.50Q97.75 69.63 99.56 71.56Q101.38 73.50 101.38 77.25L101.38 77.25ZM94.13 88.75L94.13 88.75L33.88 88.75Q30.25 88.75 28.25 90.56Q26.25 92.38 26.25 96.38L26.25 96.38Q26.25 100.13 28.25 102Q30.25 103.88 33.88 104.13L33.88 104.13L94.13 104.13Q97.75 104.13 99.75 102.19Q101.75 100.25 101.75 96.38L101.75 96.38Q101.50 92.38 99.63 90.56Q97.75 88.75 94.13 88.75ZM112.75 46.63L112.75 46.63L112.75 46.63Q109 46.63 107.06 48.50Q105.13 50.38 105.13 54L105.13 54L105.13 96.13Q105.13 99.88 107.06 101.75Q109 103.63 112.75 103.75L112.75 103.75L112.75 103.75Q118.25 103.63 121.13 97.94Q124 92.25 124 80.88L124 80.88L124 62Q124 54.38 121.13 50.56Q118.25 46.75 112.75 46.63L112.75 46.63ZM15.25 46.63L15.25 46.63L15.25 46.63Q9.75 46.75 6.88 50.56Q4 54.38 4 62L4 62L4 80.88Q4 92.25 6.88 97.94Q9.75 103.63 15.25 103.75L15.25 103.75L15.25 103.75Q19 103.75 20.94 101.94Q22.88 100.13 22.88 96.13L22.88 96.13L22.88 54.25Q22.75 50.50 20.88 48.63Q19 46.75 15.25 46.63L15.25 46.63ZM112.75 42.75L112.75 42.75Q112.75 33.25 107.94 28.63Q103.13 24 94.13 23.88L94.13 23.88L33.88 23.88Q24.75 24 20 28.75Q15.25 33.50 15.25 42.75L15.25 42.75L15.25 42.75Q20.88 42.75 23.75 45.69Q26.63 48.63 26.63 54.25L26.63 54.25Q26.63 59.88 29.50 62.81Q32.38 65.75 37.88 65.75L37.88 65.75L90.38 65.75Q95.88 65.75 98.81 62.81Q101.75 59.88 101.75 54.25L101.75 54.25Q101.50 48.50 104.44 45.75Q107.38 43 112.75 42.75L112.75 42.75Z"/></svg>