<svg xmlns="http://www.w3.org/2000/svg" xmlns:xlink="http://www.w3.org/1999/xlink" width="128" height="128"><path fill="#ffffff" d="M57.88 63.25L57.88 63.25Q55.50 63.25 54.38 64.75Q53.25 66.25 53.25 68.75L53.25 68.75Q53.25 71.25 54.38 72.81Q55.50 74.38 57.88 74.38L57.88 74.38Q60.25 74.38 61.38 72.81Q62.50 71.25 62.50 68.75L62.50 68.75Q62.50 66.38 61.38 64.81Q60.25 63.25 57.88 63.25ZM57.88 72.88L57.88 72.88Q56.38 72.88 55.75 71.75Q55.13 70.63 55.13 68.75L55.13 68.75Q55.13 66.88 55.75 65.81Q56.38 64.75 57.88 64.75L57.88 64.75Q59.38 64.75 60 65.81Q60.63 66.88 60.63 68.75L60.63 68.75Q60.63 70.63 60 71.75Q59.38 72.88 57.88 72.88ZM74 63.38L73.88 63.38L72 63.38L72 71.88Q71.88 72 71.63 72.13Q71.38 72.25 71.13 72.38L71.13 72.38Q70.75 72.63 70.19 72.75Q69.63 72.88 69.13 72.88L69.13 72.88Q67.88 72.88 67.50 72.13Q67.13 71.38 67.13 69.50L67.13 69.50L67.13 63.38L65.25 63.38L65.25 69.63Q65.25 72.13 66.06 73.25Q66.88 74.38 68.63 74.38L68.63 74.38Q68.63 74.38 68.69 74.38Q68.75 74.38 68.75 74.38L68.75 74.38Q69.50 74.38 70.13 74.19Q70.75 74 71.38 73.63L71.38 73.63Q71.63 73.50 71.88 73.38Q72.13 73.25 72.38 73L72.38 73L72.63 74.38L74 74.25L74 63.38ZM76.63 68.88L76.63 68.88Q76.63 71.88 78.06 73.13Q79.50 74.38 81.13 74.38L81.13 74.38Q81.75 74.38 82.25 74.31Q82.75 74.25 83.38 74L83.38 74Q83.50 74 83.75 73.94Q84 73.88 84.13 73.75L84.13 73.75L84.25 72.38Q84.13 72.38 83.88 72.44Q83.63 72.50 83.38 72.63L83.38 72.63Q83 72.75 82.44 72.81Q81.88 72.88 81.38 72.88L81.38 72.88Q80 72.88 79.25 71.88Q78.50 70.88 78.50 68.88L78.50 68.88Q78.50 66.75 79.25 65.75Q80 64.75 81.38 64.75L81.38 64.75Q81.88 64.75 82.44 64.81Q83 64.88 83.50 65L83.50 65Q83.63 65 83.81 65.06Q84 65.13 84.25 65.25L84.25 65.25L84.13 63.75Q84 63.75 83.81 63.69Q83.63 63.63 83.38 63.50L83.38 63.50Q82.88 63.38 82.31 63.31Q81.75 63.25 81.25 63.25L81.25 63.25Q81.25 63.25 81.19 63.25Q81.13 63.25 81.13 63.25L81.13 63.25Q79.50 63.25 78.06 64.44Q76.63 65.63 76.63 68.88L76.63 68.88ZM86.75 74.38L86.75 74.38L88.75 74.38L88.75 66Q89.38 65.63 90.13 65.31Q90.88 65 91.63 64.88L91.63 64.88Q92.63 64.88 93.13 65.63Q93.63 66.38 93.63 68.50L93.63 68.50L93.63 74.38L95.50 74.38L95.50 68.38Q95.50 65.75 94.75 64.63Q94 63.50 92.25 63.50L92.25 63.50Q92.13 63.50 92.06 63.50Q92 63.50 92 63.50L92 63.50Q91 63.50 90.19 63.81Q89.38 64.13 88.63 64.75L88.63 64.75L88.63 59.25L86.75 59.50L86.75 74.38ZM108 60.50L108 60.50Q107.13 59.88 106.06 59.56Q105 59.25 103.88 59.25L103.88 59.25Q103.75 59.25 103.56 59.25Q103.38 59.25 103.25 59.25L103.25 59.25L99 59.25L99 74.25L103.75 74.25Q107.63 74.25 108.88 72.13Q110.13 70 110.13 66.50L110.13 66.50Q110.13 64 109.50 62.63Q108.88 61.25 108 60.50L108 60.50ZM103.13 72.88L103.13 72.88L101 72.88L101 60.88L103.75 60.88Q106.38 60.88 107.31 62.31Q108.25 63.75 108.25 66.63L108.25 66.63Q108.13 70.25 107.13 71.56Q106.13 72.88 103.13 72.88L103.13 72.88ZM121.63 66.75L121.63 66.75Q121.25 66.50 120.81 66.38Q120.38 66.25 120 66.25L120 66.25Q121 66.13 121.75 65.25Q122.50 64.38 122.50 63.25L122.50 63.25Q122.50 63.25 122.50 63.25Q122.50 63.25 122.50 63.13L122.50 63.13Q122.50 61 121.31 60.13Q120.13 59.25 117.38 59.25L117.38 59.25L113.25 59.25L113.25 74.25L118.13 74.25Q120.63 74.25 121.94 73.19Q123.25 72.13 123.25 70L123.25 70Q123.25 69.88 123.25 69.81Q123.25 69.75 123.25 69.63L123.25 69.63Q123.25 68.75 122.81 67.94Q122.38 67.13 121.63 66.75L121.63 66.75ZM115.13 60.88L115.13 60.88L117.13 60.88Q119 60.88 119.88 61.31Q120.75 61.75 120.75 63.13L120.75 63.13Q120.75 64.38 120 65Q119.25 65.63 117.50 65.63L117.50 65.63L115.13 65.63L115.13 60.88ZM117.63 72.88L117.63 72.88L115.13 72.88L115.13 67L117.63 67Q119.50 67 120.44 67.63Q121.38 68.25 121.38 70L121.38 70Q121.38 71.75 120.44 72.31Q119.50 72.88 117.63 72.88L117.63 72.88ZM47 74.38L47 74.38Q47.75 74.38 48.50 74.25Q49.25 74.13 50 74L50 74Q50.13 73.88 50.38 73.81Q50.63 73.75 51 73.75L51 73.75L51.25 72.13L50 72.50Q49.38 72.63 48.69 72.75Q48 72.88 47.25 72.88L47.25 72.88Q45.13 72.88 44.13 71.38Q43.13 69.88 43.13 66.63L43.13 66.63Q43.13 63.13 44.25 61.81Q45.38 60.50 47.38 60.50L47.38 60.50Q48.13 60.50 48.81 60.56Q49.50 60.63 50.25 60.75L50.25 60.75Q50.50 60.88 50.75 60.94Q51 61 51.25 61.13L51.25 61.13L51.13 59.38Q50.88 59.38 50.56 59.31Q50.25 59.25 50 59.13L50 59.13Q49.38 59 48.63 58.88Q47.88 58.75 47.13 58.75L47.13 58.75Q44.50 58.75 42.75 60.44Q41 62.13 41 66.50L41 66.50Q41 68.75 41.44 70.25Q41.88 71.75 42.75 72.63L42.75 72.63Q43.50 73.38 44.50 73.88Q45.50 74.38 46.63 74.38L46.63 74.38Q46.75 74.38 46.81 74.38Q46.88 74.38 47 74.38L47 74.38ZM30 67.38L30 67.38Q30 67.50 30 67.50Q30 67.50 30 67.63L30 67.63Q30 68.38 29.50 68.88Q29 69.38 28.25 69.38L28.25 69.38Q28.13 69.38 28.06 69.38Q28 69.38 28 69.38L28 69.38L12.50 69.38Q12.50 69.38 12.44 69.44Q12.38 69.50 12.25 69.50L12.25 69.50Q11.50 69.50 11 68.94Q10.50 68.38 10.50 67.63L10.50 67.63Q10.50 67.63 10.50 67.56Q10.50 67.50 10.50 67.38L10.50 67.38Q10.50 67.38 10.50 67.31Q10.50 67.25 10.50 67.25L10.50 67.25Q10.50 66.50 11.06 65.94Q11.63 65.38 12.38 65.38L12.38 65.38Q12.38 65.38 12.44 65.38Q12.50 65.38 12.50 65.38L12.50 65.38L28.13 65.38Q28.13 65.38 28.19 65.38Q28.25 65.38 28.25 65.38L28.25 65.38Q29 65.38 29.50 65.94Q30 66.50 30 67.13L30 67.13Q30 67.25 30 67.31Q30 67.38 30 67.38L30 67.38ZM28.13 70.38L28.13 70.38L12.50 70.38Q12.50 70.38 12.44 70.38Q12.38 70.38 12.25 70.38L12.25 70.38Q11.50 70.38 11 70.94Q10.50 71.50 10.50 72.13L10.50 72.13Q10.50 72.25 10.50 72.31Q10.50 72.38 10.50 72.38L10.50 72.38Q10.50 72.50 10.50 72.50Q10.50 72.50 10.50 72.63L10.50 72.63Q10.50 73.38 11.06 73.88Q11.63 74.38 12.38 74.38L12.38 74.38Q12.38 74.38 12.44 74.38Q12.50 74.38 12.50 74.38L12.50 74.38L28.13 74.38Q28.13 74.38 28.19 74.38Q28.25 74.38 28.38 74.38L28.38 74.38Q29.13 74.38 29.63 73.88Q30.13 73.38 30.13 72.63L30.13 72.63Q30.13 72.63 30.13 72.56Q30.13 72.50 30.13 72.38L30.13 72.38Q30 71.38 29.56 70.88Q29.13 70.38 28.13 70.38L28.13 70.38ZM33 59.50L32.88 59.50L32.88 59.50Q32.88 59.50 32.81 59.50Q32.75 59.50 32.63 59.50L32.63 59.50Q31.88 59.50 31.38 60Q30.88 60.50 30.88 61.25L30.88 61.25Q30.88 61.25 30.88 61.31Q30.88 61.38 30.88 61.50L30.88 61.50L30.88 72.38Q30.88 72.38 30.88 72.44Q30.88 72.50 30.88 72.50L30.88 72.50Q30.88 73.25 31.44 73.81Q32 74.38 32.75 74.38L32.75 74.38Q32.75 74.38 32.81 74.38Q32.88 74.38 33 74.38L33 74.38L32.88 74.38Q34.38 74.25 35.13 72.81Q35.88 71.38 35.88 68.38L35.88 68.38L35.88 63.50Q35.88 61.50 35.13 60.50Q34.38 59.50 33 59.50L33 59.50ZM7.63 59.50L7.63 59.50L7.63 59.50Q6.25 59.50 5.50 60.50Q4.75 61.50 4.75 63.50L4.75 63.50L4.75 68.38Q4.75 71.38 5.50 72.88Q6.25 74.38 7.63 74.38L7.63 74.38L7.63 74.38Q7.75 74.38 7.81 74.38Q7.88 74.38 7.88 74.38L7.88 74.38Q8.63 74.38 9.19 73.88Q9.75 73.38 9.75 72.63L9.75 72.63Q9.75 72.50 9.69 72.44Q9.63 72.38 9.63 72.38L9.63 72.38L9.63 61.50Q9.63 61.50 9.63 61.44Q9.63 61.38 9.63 61.38L9.63 61.38Q9.63 60.50 9.13 60Q8.63 59.50 7.88 59.50L7.88 59.50Q7.75 59.50 7.75 59.50Q7.75 59.50 7.63 59.50L7.63 59.50ZM33 58.50L32.88 58.50Q32.88 56 31.63 54.81Q30.38 53.63 28.13 53.63L28.13 53.63L12.50 53.63Q10.13 53.63 8.94 54.88Q7.75 56.13 7.75 58.50L7.75 58.50L7.75 58.50Q7.75 58.50 7.81 58.50Q7.88 58.50 8 58.50L8 58.50Q9.13 58.50 9.88 59.25Q10.63 60 10.63 61.13L10.63 61.13Q10.63 61.25 10.63 61.31Q10.63 61.38 10.63 61.50L10.63 61.50Q10.63 61.63 10.63 61.69Q10.63 61.75 10.63 61.88L10.63 61.88Q10.63 63 11.38 63.75Q12.13 64.50 13.25 64.50L13.25 64.50Q13.25 64.50 13.38 64.50Q13.50 64.50 13.50 64.50L13.50 64.50L27.13 64.50Q27.25 64.50 27.31 64.50Q27.38 64.50 27.50 64.50L27.50 64.50Q28.63 64.50 29.38 63.75Q30.13 63 30.13 61.88L30.13 61.88Q30.13 61.75 30.13 61.69Q30.13 61.63 30.13 61.50L30.13 61.50Q30 60 30.75 59.31Q31.50 58.63 33 58.50L33 58.50Z"/></svg>