<svg xmlns="http://www.w3.org/2000/svg" xmlns:xlink="http://www.w3.org/1999/xlink" width="128" height="128"><path fill="#000000" d="M109 28.63L109 28.63L71.25 6.25Q69.63 5.25 67.75 4.75Q65.88 4.25 64 4.25L64 4.25Q62.13 4.25 60.25 4.75Q58.38 5.25 56.75 6.25L56.75 6.25L19 28.63Q15.63 30.63 13.69 34.13Q11.75 37.63 11.75 41.63L11.75 41.63L11.75 86.38Q11.75 90.38 13.69 93.88Q15.63 97.38 19 99.38L19 99.38L56.75 121.75Q58.38 122.75 60.25 123.25Q62.13 123.75 64 123.75L64 123.75Q65.88 123.75 67.75 123.25Q69.63 122.75 71.25 121.75L71.25 121.75L109 99.38Q112.38 97.38 114.31 93.88Q116.25 90.38 116.25 86.38L116.25 86.38L116.25 41.63Q116.25 37.63 114.31 34.13Q112.38 30.63 109 28.63L109 28.63ZM79.75 98.63L79.75 98.63L79.88 101.75Q79.88 102.13 79.69 102.38Q79.50 102.63 79.25 102.75L79.25 102.75L77.38 103.88Q77.13 104 77 103.88Q76.88 103.75 76.88 103.50L76.88 103.50L76.75 100.25Q75.63 100.88 74.44 100.94Q73.25 101 72.50 100.75L72.50 100.75Q72.25 100.63 72.25 100.44Q72.25 100.25 72.25 100L72.25 100L73 97.13Q73 96.88 73.06 96.75Q73.13 96.63 73.25 96.50L73.25 96.50Q73.38 96.50 73.38 96.44Q73.38 96.38 73.50 96.38L73.50 96.38Q73.50 96.38 73.63 96.38Q73.75 96.38 73.75 96.38L73.75 96.38Q74.63 96.63 75.69 96.50Q76.75 96.38 77.75 95.88L77.75 95.88Q79.13 95.13 79.94 93.88Q80.75 92.63 80.75 91.38L80.75 91.38Q80.75 90.13 80 89.56Q79.25 89 77.63 89L77.63 89Q75.63 89 74 88.25Q72.38 87.50 72.38 84.38L72.38 84.38Q72.25 82 73.50 79.56Q74.75 77.13 76.75 75.50L76.75 75.50L76.75 72.25Q76.75 71.88 76.88 71.63Q77 71.38 77.25 71.25L77.25 71.25L79.13 70Q79.38 69.88 79.50 70Q79.63 70.13 79.63 70.50L79.63 70.50L79.75 73.75Q80.75 73.38 81.63 73.25Q82.50 73.13 83.38 73.25L83.38 73.25Q83.50 73.38 83.56 73.56Q83.63 73.75 83.50 74L83.50 74L82.88 76.88Q82.75 77.13 82.69 77.25Q82.63 77.38 82.50 77.50L82.50 77.50Q82.50 77.50 82.44 77.56Q82.38 77.63 82.38 77.63L82.38 77.63Q82.25 77.63 82.19 77.63Q82.13 77.63 82 77.63L82 77.63Q81.63 77.63 80.75 77.56Q79.88 77.50 78.50 78.25L78.50 78.25Q77.13 79 76.56 80.13Q76 81.25 76 82.13L76 82.13Q76 83.25 76.69 83.63Q77.38 84 79.38 84.13L79.38 84.13Q82 84.13 83.19 85.31Q84.38 86.50 84.38 89.13L84.38 89.13Q84.50 91.75 83.19 94.31Q81.88 96.88 79.75 98.63L79.75 98.63ZM99.63 91L99.63 93.13Q99.63 93.38 99.56 93.56Q99.50 93.75 99.25 93.88L99.25 93.88L89.75 99.75Q89.50 99.88 89.38 99.75Q89.25 99.63 89.25 99.38L89.25 99.38L89.25 97Q89.25 96.75 89.38 96.63Q89.50 96.50 89.75 96.38L89.75 96.38L99.13 90.75Q99.25 90.63 99.44 90.69Q99.63 90.75 99.63 91L99.63 91ZM106.13 38.13L106.13 38.13L70.38 60.13Q67.13 62.13 64.94 64.56Q62.75 67 62.75 71L62.75 71L62.75 115Q62.75 117.38 63.63 118.94Q64.50 120.50 66 120.88L66 120.88Q65.50 121 65 121.06Q64.50 121.13 64 121.13L64 121.13Q62.38 121.13 60.88 120.69Q59.38 120.25 58 119.50L58 119.50L20.25 97.13Q17.50 95.38 15.94 92.56Q14.38 89.75 14.38 86.38L14.38 86.38L14.38 41.63Q14.38 38.25 15.94 35.44Q17.50 32.63 20.25 30.88L20.25 30.88L58 8.50Q59.38 7.75 60.94 7.31Q62.50 6.88 64 6.88L64 6.88Q65.63 6.88 67.13 7.31Q68.63 7.75 70 8.50L70 8.50L107.75 30.88Q110 32.38 111.56 34.63Q113.13 36.88 113.50 39.50L113.50 39.50Q112.50 37.50 110.56 37.06Q108.63 36.63 106.13 38.13L106.13 38.13Z"/></svg>