<svg xmlns="http://www.w3.org/2000/svg" xmlns:xlink="http://www.w3.org/1999/xlink" width="128" height="128"><path fill="#ffffff" d="M89.75 26.25L87.88 26.25L46.50 58.50L46.50 60.38L62.13 60.38L37.38 85.13L37.38 87L40.13 87L80.50 54.75L80.63 54.75L80.63 53L65.88 53L89.75 28.13L89.75 26.25ZM14.63 101L14.63 101L10.63 104.75L7 108.38L7 121L67.63 121L75 113.63L75 101L67.88 101L60.63 108.25L15 108.25L15 104.63Q15 102.50 14.94 101.75Q14.88 101 14.63 101L14.63 101ZM17.25 106.25L17.25 88.75L17.25 71.38L23.63 65L55.88 65L43.13 77.75L20.75 77.75L20.75 98.25L55 98.25L55 77.75L54.25 77.75Q53.63 77.75 54.63 76.88Q55.63 76 60 72.50L60 72.50L66.63 67.25L66.75 99.63L60.13 106.25L17.25 106.25ZM72.25 62.88L72.25 62.88Q72.25 62.88 73.63 61.75Q75 60.63 76.88 59.13L76.88 59.13L81.50 55.38L81.50 52L75 52Q72.38 52 70.44 51.94Q68.50 51.88 68.50 51.75L68.50 51.75Q68.50 51.75 68.69 51.50Q68.88 51.25 69.25 50.88L69.25 50.88L69.88 50.25L106.63 50.25L113.88 43L121 43L121 55.63L113.63 63L92.88 63Q84.38 63 78.31 63Q72.25 63 72.25 62.88L72.25 62.88ZM71.88 48.13L71.88 48.13Q71.88 48.13 73 46.94Q74.13 45.75 75.75 44.13L75.75 44.13L79.63 40.13L100.88 40.13L100.88 19.75L66.75 19.75L66.75 40.13L68.50 40.25L63.25 44.25L63.13 13.50L69.50 7L112.75 7L112.75 41.88L106.25 48.25L89.13 48.25Q82 48.25 76.94 48.25Q71.88 48.25 71.88 48.13L71.88 48.13ZM53 51.13L53 51.13L53 50.25L56.75 46.63Q58.63 44.63 59.56 43.81Q60.50 43 60.75 43L60.75 43Q61.13 43 61.13 43.19Q61.13 43.38 61.13 44.38L61.13 44.38L61.13 45.88L57.25 48.88L53.13 52Q53.13 52 53.06 51.75Q53 51.50 53 51.13L53 51.13ZM53 63.13L53 62.25L53 61.38L59.63 61.38L57.88 63.13L53 63.13Z"/></svg>