<svg xmlns="http://www.w3.org/2000/svg" xmlns:xlink="http://www.w3.org/1999/xlink" width="128" height="128"><path fill="#000000" d="M27.38 80.50L27.38 80.50L38 12.13Q38.25 10.38 40 10.06Q41.75 9.75 42.63 11.25L42.63 11.25L54.13 32.75L27.38 80.50ZM67.38 117.13L103.25 97.13L93.13 34.13Q92.88 32.63 91.44 32.19Q90 31.75 88.88 32.75L88.88 32.75L24.75 97.13L60.25 117.13Q61.88 118 63.81 118Q65.75 118 67.38 117.13L67.38 117.13ZM25.75 91L74.50 42.13L66.25 26.50Q65.50 25.13 64 25.13Q62.50 25.13 61.88 26.50L61.88 26.50L25.75 91Z"/></svg>