<svg xmlns="http://www.w3.org/2000/svg" xmlns:xlink="http://www.w3.org/1999/xlink" width="128" height="128"><path fill="#000000" d="M11.38 115.63L11.38 115.63L8.25 115.63L8.25 91.25L22.50 91.25L22.50 94.25L11.38 94.25L11.38 102.25L21.50 102.25L21.50 105.13L11.38 105.13L11.38 115.63L11.38 115.63ZM27.88 94.75L27.88 94.75Q27.63 95 27.19 95.19Q26.75 95.38 26.38 95.38L26.38 95.38Q25.88 95.38 25.50 95.25Q25.13 95.13 24.75 94.75L24.75 94.75Q24.50 94.38 24.31 94Q24.13 93.63 24.13 93.13L24.13 93.13Q24.13 92.75 24.31 92.31Q24.50 91.88 24.75 91.63L24.75 91.63Q25.13 91.25 25.50 91.13Q25.88 91 26.38 91L26.38 91Q26.75 91 27.19 91.13Q27.63 91.25 27.88 91.63L27.88 91.63Q28.25 91.88 28.38 92.31Q28.50 92.75 28.50 93.13L28.50 93.13Q28.50 93.63 28.38 94Q28.25 94.38 27.88 94.75ZM27.88 98.88L27.88 115.63L24.75 115.63L24.75 98.88L27.88 98.88ZM34.50 115.63L34.50 115.63L31.38 115.63L31.38 98.88L34.38 98.88L34.38 101.63L34.50 101.63Q34.75 101 35.19 100.44Q35.63 99.88 36.50 99.38L36.50 99.38Q37.13 99 37.88 98.75Q38.63 98.50 39.38 98.50L39.38 98.50Q40 98.50 40.56 98.63Q41.13 98.75 41.63 98.88L41.63 98.88L40.50 101.88Q40.13 101.75 39.75 101.69Q39.38 101.63 38.75 101.63L38.75 101.63Q37.88 101.63 37.13 101.94Q36.38 102.25 35.75 103L35.75 103Q35.13 103.63 34.81 104.50Q34.50 105.38 34.50 106.50L34.50 106.50L34.50 115.63ZM49.25 116.13L49.25 116.13Q47.38 116.13 45.81 115.50Q44.25 114.88 43.13 113.63L43.13 113.63Q41.88 112.38 41.31 110.81Q40.75 109.25 40.75 107.25L40.75 107.25Q40.75 105.50 41.31 103.88Q41.88 102.25 43 101L43 101Q44.13 99.63 45.63 99Q47.13 98.38 48.88 98.38L48.88 98.38Q50.75 98.38 52.25 98.94Q53.75 99.50 54.88 100.75L54.88 100.75Q56 102 56.56 103.63Q57.13 105.25 57.13 107.25L57.13 107.25L57 107.88L43.88 107.88Q43.88 109.13 44.31 110.13Q44.75 111.13 45.50 111.88L45.50 111.88Q46.25 112.63 47.19 112.94Q48.13 113.25 49.13 113.25L49.13 113.25Q50.88 113.25 52 112.56Q53.13 111.88 53.75 110.38L53.75 110.38L56.50 111.63Q56.13 112.63 55.44 113.38Q54.75 114.13 53.88 114.88L53.88 114.88Q52.88 115.50 51.75 115.81Q50.63 116.13 49.25 116.13ZM53.75 105.25L53.75 105.25Q53.63 104.50 53.31 103.81Q53 103.13 52.38 102.50L52.38 102.50Q51.88 101.88 50.94 101.56Q50 101.25 48.88 101.25L48.88 101.25Q48 101.25 47.25 101.50Q46.50 101.75 45.88 102.38L45.88 102.38Q45.13 102.88 44.69 103.63Q44.25 104.38 44 105.25L44 105.25L53.75 105.25ZM68.13 116.13L68.13 116.13Q67.13 116.13 66.25 115.94Q65.38 115.75 64.63 115.38L64.63 115.38Q63.88 115 63.31 114.44Q62.75 113.88 62.38 113.25L62.38 113.25L62.25 113.25L62.25 115.63L59.25 115.63L59.25 91.25L62.38 91.25L62.38 98.88L62.25 101.25L62.38 101.25Q62.75 100.63 63.31 100.13Q63.88 99.63 64.63 99.25L64.63 99.25Q65.38 98.75 66.25 98.56Q67.13 98.38 68.13 98.38L68.13 98.38Q69.75 98.38 71.13 99Q72.50 99.63 73.75 100.88L73.75 100.88Q74.88 102.25 75.44 103.81Q76 105.38 76 107.25L76 107.25Q76 109.13 75.44 110.75Q74.88 112.38 73.75 113.63L73.75 113.63Q72.50 114.88 71.13 115.50Q69.75 116.13 68.13 116.13ZM67.50 113.25L67.50 113.25Q68.63 113.25 69.56 112.88Q70.50 112.50 71.38 111.63L71.38 111.63Q72.13 110.88 72.50 109.75Q72.88 108.63 72.88 107.25L72.88 107.25Q72.88 105.88 72.50 104.81Q72.13 103.75 71.38 102.88L71.38 102.88Q70.50 102.13 69.56 101.69Q68.63 101.25 67.50 101.25L67.50 101.25Q66.50 101.25 65.56 101.69Q64.63 102.13 63.75 102.88L63.75 102.88Q63 103.75 62.63 104.81Q62.25 105.88 62.25 107.25L62.25 107.25Q62.25 108.63 62.63 109.75Q63 110.88 63.75 111.75L63.75 111.75Q64.63 112.50 65.56 112.88Q66.50 113.25 67.50 113.25L67.50 113.25ZM83.88 116.13L83.88 116.13Q82.50 116.13 81.38 115.75Q80.25 115.38 79.38 114.63L79.38 114.63Q78.50 113.88 78.06 112.88Q77.63 111.88 77.63 110.63L77.63 110.63Q77.63 109.25 78.13 108.19Q78.63 107.13 79.75 106.25L79.75 106.25Q80.75 105.50 82.06 105.13Q83.38 104.75 84.88 104.75L84.88 104.75Q86.25 104.75 87.44 105Q88.63 105.25 89.50 105.75L89.50 105.75L89.50 105.25Q89.50 104.38 89.19 103.63Q88.88 102.88 88.25 102.25L88.25 102.25Q87.63 101.75 86.81 101.50Q86 101.25 85.13 101.25L85.13 101.25Q84.38 101.25 83.81 101.38Q83.25 101.50 82.63 101.88L82.63 101.88Q82.13 102.13 81.69 102.56Q81.25 103 81.13 103.63L81.13 103.63L78.25 102.38Q78.50 101.63 79.06 100.94Q79.63 100.25 80.50 99.63L80.50 99.63Q81.38 99 82.50 98.69Q83.63 98.38 85 98.38L85 98.38Q86.63 98.38 87.94 98.81Q89.25 99.25 90.38 100.25L90.38 100.25Q91.38 101.13 91.94 102.44Q92.50 103.75 92.50 105.50L92.50 105.50L92.50 115.63L89.50 115.63L89.50 113.25L89.25 113.25Q88.38 114.75 87 115.44Q85.63 116.13 83.88 116.13L83.88 116.13ZM84.38 113.25L84.38 113.25Q85.38 113.25 86.25 112.94Q87.13 112.63 87.88 111.88L87.88 111.88Q88.63 111.13 89.06 110.25Q89.50 109.38 89.50 108.38L89.50 108.38Q88.75 107.88 87.75 107.63Q86.75 107.38 85.50 107.38L85.50 107.38Q84.38 107.38 83.50 107.63Q82.63 107.88 82 108.38L82 108.38Q81.50 108.88 81.19 109.44Q80.88 110 80.88 110.63L80.88 110.63Q80.88 111.25 81.13 111.75Q81.38 112.25 81.88 112.63L81.88 112.63Q82.50 113 83.06 113.13Q83.63 113.25 84.38 113.25L84.38 113.25ZM101.25 116.13L101.25 116.13Q99.75 116.13 98.63 115.81Q97.50 115.50 96.63 114.88L96.63 114.88Q95.63 114.13 95 113.25Q94.38 112.38 93.88 111.38L93.88 111.38L96.75 110.25Q97.38 111.88 98.50 112.63Q99.63 113.38 101.25 113.38L101.25 113.38Q102 113.38 102.63 113.25Q103.25 113.13 103.63 112.75L103.63 112.75Q104.13 112.38 104.38 111.94Q104.63 111.50 104.63 111L104.63 111Q104.63 110.25 104 109.69Q103.38 109.13 102.25 108.88L102.25 108.88L98.88 108Q98.13 107.75 97.38 107.38Q96.63 107 95.88 106.50L95.88 106.50Q95.13 105.88 94.75 105.13Q94.38 104.38 94.38 103.38L94.38 103.38Q94.38 102.25 94.88 101.38Q95.38 100.50 96.38 99.75L96.38 99.75Q97.38 99.13 98.56 98.75Q99.75 98.38 101 98.38L101 98.38Q102.13 98.38 103.13 98.63Q104.13 98.88 105 99.38L105 99.38Q105.88 99.88 106.50 100.63Q107.13 101.38 107.50 102.25L107.50 102.25L104.75 103.38Q104.25 102.25 103.31 101.69Q102.38 101.13 101 101.13L101 101.13Q100.25 101.13 99.69 101.31Q99.13 101.50 98.63 101.75L98.63 101.75Q98.13 102 97.88 102.44Q97.63 102.88 97.63 103.38L97.63 103.38Q97.63 104 98.19 104.50Q98.75 105 99.88 105.25L99.88 105.25L103.13 106Q104.38 106.38 105.19 106.81Q106 107.25 106.63 107.88L106.63 107.88Q107.25 108.63 107.50 109.38Q107.75 110.13 107.75 110.88L107.75 110.88Q107.75 112 107.31 112.94Q106.88 113.88 105.88 114.75L105.88 114.75Q105 115.50 103.81 115.81Q102.63 116.13 101.25 116.13L101.25 116.13ZM117.63 116.13L117.63 116.13Q115.63 116.13 114.13 115.50Q112.63 114.88 111.38 113.63L111.38 113.63Q110.25 112.38 109.63 110.81Q109 109.25 109 107.25L109 107.25Q109 105.50 109.63 103.88Q110.25 102.25 111.38 101L111.38 101Q112.50 99.63 114 99Q115.50 98.38 117.25 98.38L117.25 98.38Q119.13 98.38 120.56 98.94Q122 99.50 123.13 100.75L123.13 100.75Q124.25 102 124.81 103.63Q125.38 105.25 125.38 107.25L125.38 107.25L125.38 107.88L112.25 107.88Q112.25 109.13 112.69 110.13Q113.13 111.13 113.88 111.88L113.88 111.88Q114.63 112.63 115.56 112.94Q116.50 113.25 117.50 113.25L117.50 113.25Q119.13 113.25 120.31 112.56Q121.50 111.88 122.13 110.38L122.13 110.38L124.88 111.63Q124.50 112.63 123.81 113.38Q123.13 114.13 122.25 114.88L122.25 114.88Q121.25 115.50 120.13 115.81Q119 116.13 117.63 116.13ZM122.13 105.25L122.13 105.25Q122 104.50 121.69 103.81Q121.38 103.13 120.75 102.50L120.75 102.50Q120.13 101.88 119.25 101.56Q118.38 101.25 117.13 101.25L117.13 101.25Q116.25 101.25 115.50 101.50Q114.75 101.75 114.13 102.38L114.13 102.38Q113.50 102.88 113.06 103.63Q112.63 104.38 112.38 105.25L112.38 105.25L122.13 105.25ZM58.50 25L39.25 59.38L47 10.13Q47.13 8.88 48.38 8.69Q49.63 8.50 50.25 9.63L50.25 9.63L58.50 25ZM68.13 85.75L93.88 71.38L86.63 26Q86.38 25 85.38 24.63Q84.38 24.25 83.63 25L83.63 25L37.38 71.38L63 85.75Q64.13 86.38 65.50 86.38Q66.88 86.38 68.13 85.75L68.13 85.75ZM73.13 31.75L73.13 31.75L67.25 20.50Q66.75 19.63 65.69 19.63Q64.63 19.63 64.13 20.50L64.13 20.50L38 66.88L73.13 31.75Z"/></svg>