<svg xmlns="http://www.w3.org/2000/svg" xmlns:xlink="http://www.w3.org/1999/xlink" width="128" height="128"><path fill="#000000" d="M20.75 66L20.75 66Q20.75 65 21.25 64.19Q21.75 63.38 22.50 62.75L22.50 62.75Q23.13 62.13 24.06 61.75Q25 61.38 26.13 61.38L26.13 61.38Q27.13 61.38 28.06 61.75Q29 62.13 29.75 62.75L29.75 62.75Q30.50 63.38 30.94 64.19Q31.38 65 31.50 66L31.50 66Q31.50 67 31.13 67.88Q30.75 68.75 30 69.50L30 69.50Q29.38 70.13 28.31 70.56Q27.25 71 26.13 71L26.13 71Q25 71 23.94 70.56Q22.88 70.13 22.13 69.50L22.13 69.50Q21.50 68.75 21.06 67.88Q20.63 67 20.75 66ZM12.13 68.63L12.13 68.63Q12.25 69 12.31 69.63Q12.38 70.25 12.63 70.88L12.63 70.88Q13 72.13 13.69 73.25Q14.38 74.38 15.25 75.38L15.25 75.38L15.25 75.38Q16.25 76.38 17.38 77.19Q18.50 78 19.88 78.63L19.88 78.63Q21.25 79.13 22.75 79.44Q24.25 79.75 25.88 79.75L25.88 79.75Q25.88 79.75 25.88 79.75Q25.88 79.75 26 79.75L26 79.75L25.88 79.75Q26 79.75 26 79.75Q26 79.75 26 79.75L26 79.75Q27.63 79.75 29.19 79.44Q30.75 79.13 32.13 78.50L32.13 78.50L32 78.50Q33.38 78 34.50 77.19Q35.63 76.38 36.63 75.25L36.63 75.25L36.63 75.25Q37.50 74.25 38.19 73.13Q38.88 72 39.25 70.88L39.25 70.88Q39.50 70.25 39.63 69.63Q39.75 69 39.75 68.38L39.75 68.38Q39.75 68.13 39.75 67.88Q39.75 67.63 39.75 67.50L39.75 67.50Q39.75 65.75 39.31 64.19Q38.88 62.63 38 61.25L38 61.25L38 61.38Q37.38 60.38 36.63 59.56Q35.88 58.75 35 58L35 58L34.88 58L34.88 58L22.50 48.63Q22.50 48.63 22.50 48.63Q22.50 48.63 22.50 48.63L22.50 48.63Q21.88 48.25 20.94 48.25Q20 48.25 19.38 48.63L19.38 48.63Q18.75 49.13 18.69 49.81Q18.63 50.50 19.13 51L19.13 51L19.13 51L24.38 55.13L8.50 55.13Q7.50 55.13 6.69 55.69Q5.88 56.25 5.75 57L5.75 57Q5.50 57.75 6.13 58.38Q6.75 59 7.75 59L7.75 59L7.75 59L15.75 59L1.38 69.75Q1.38 69.75 1.38 69.75Q1.38 69.75 1.38 69.75L1.38 69.75L1.38 69.75Q0.38 70.50 0.06 71.56Q-0.25 72.63 0.38 73.50L0.38 73.50Q1.13 74.25 2.31 74.25Q3.50 74.25 4.50 73.50L4.50 73.50L12.25 67.25Q12.25 67.25 12.19 67.75Q12.13 68.25 12.13 68.63L12.13 68.63ZM32.25 71.38L32.25 71.38Q31 72.63 29.38 73.25Q27.75 73.88 25.88 73.88L25.88 73.88Q24.13 73.88 22.50 73.25Q20.88 72.63 19.63 71.38L19.63 71.38Q19.13 70.88 18.69 70.25Q18.25 69.63 18 68.88L18 68.88L17.88 68.75Q17.75 68.25 17.63 67.69Q17.50 67.13 17.50 66.50L17.50 66.50Q17.50 66.38 17.50 66.19Q17.50 66 17.50 65.88L17.50 65.88L17.50 65.88Q17.63 65.13 17.81 64.44Q18 63.75 18.38 63.13L18.38 63.13L18.38 63.13Q18.75 62.50 19.25 61.94Q19.75 61.38 20.25 60.88L20.25 60.88L20.25 60.88Q21.50 60 22.94 59.50Q24.38 59 25.88 59L25.88 59Q27.50 59 28.94 59.44Q30.38 59.88 31.63 60.88L31.63 60.88Q32.13 61.38 32.63 61.88Q33.13 62.38 33.50 63L33.50 63L33.50 63.13Q33.88 63.75 34.06 64.44Q34.25 65.13 34.38 65.88L34.38 65.88Q34.38 66 34.38 66.13Q34.38 66.25 34.38 66.50L34.38 66.50Q34.38 67.13 34.25 67.69Q34.13 68.25 33.88 68.88L33.88 68.88L34 68.75Q33.63 69.50 33.19 70.19Q32.75 70.88 32.25 71.38L32.25 71.38L32.25 71.38ZM111.38 66L105.88 66Q106 65 106.75 64.38Q107.50 63.75 108.63 63.75L108.63 63.75Q109.88 63.75 110.56 64.38Q111.25 65 111.38 66L111.38 66ZM114 70.75L111.25 69.13Q110.88 69.88 110.19 70.31Q109.50 70.75 108.50 70.75L108.50 70.75Q107.38 70.75 106.63 70.06Q105.88 69.38 105.75 68.13L105.75 68.13L115.13 68.13L115.13 67.75Q115.13 64.75 113.44 63.19Q111.75 61.63 108.50 61.63L108.50 61.63Q105.50 61.63 103.75 63.13Q102 64.63 102 67.25L102 67.25Q102 69.88 103.75 71.44Q105.50 73 108.50 73L108.50 73Q110.38 73 111.75 72.44Q113.13 71.88 114 70.75L114 70.75ZM70 66L64.50 66Q64.63 65 65.31 64.38Q66 63.75 67.25 63.75L67.25 63.75Q68.38 63.75 69.13 64.38Q69.88 65 70 66L70 66ZM72.63 70.75L69.75 69.13Q69.50 69.88 68.81 70.31Q68.13 70.75 67.13 70.75L67.13 70.75Q65.88 70.75 65.13 70.06Q64.38 69.38 64.38 68.13L64.38 68.13L73.75 68.13L73.75 67.75Q73.75 64.75 72 63.19Q70.25 61.63 67.13 61.63L67.13 61.63Q64.13 61.63 62.38 63.13Q60.63 64.63 60.63 67.25L60.63 67.25Q60.63 69.88 62.38 71.44Q64.13 73 67.13 73L67.13 73Q69 73 70.38 72.44Q71.75 71.88 72.63 70.75L72.63 70.75ZM56.38 72.63L56.38 59.25L59.75 59.25L59.75 72.63L56.38 72.63ZM74.50 72.63L74.50 62.75L78 62.75L78 63.63Q78.88 62.63 79.94 62.19Q81 61.75 82.25 61.75L82.25 61.75Q83.63 61.75 84.63 62.19Q85.63 62.63 86.25 63.38L86.25 63.38Q86.63 64.13 86.75 64.94Q86.88 65.75 86.88 66.75L86.88 66.75L86.88 72.63L83.50 72.63L83.50 67.50Q83.50 65.88 83 65.13Q82.50 64.38 81.13 64.38L81.13 64.38Q79.63 64.38 78.81 65.19Q78 66 78 67.38L78 67.38L78 72.63L74.50 72.63ZM97.75 67.50L97.75 67.50Q97.75 68.88 96.88 69.69Q96 70.50 94.50 70.50L94.50 70.50Q93.13 70.50 92.25 69.69Q91.38 68.88 91.38 67.50L91.38 67.50Q91.38 66 92.25 65.19Q93.13 64.38 94.50 64.38L94.50 64.38Q96 64.38 96.88 65.25Q97.75 66.13 97.75 67.50L97.75 67.50ZM97.75 59.25L97.75 63.25Q97.13 62.50 96.19 62.19Q95.25 61.88 94 61.88L94 61.88Q91.13 61.88 89.44 63.38Q87.75 64.88 87.75 67.50L87.75 67.50Q87.75 69.88 89.44 71.44Q91.13 73 93.88 73L93.88 73Q95.13 73 96.06 72.69Q97 72.38 97.75 71.63L97.75 71.63L97.75 72.63L101.13 72.63L101.13 58.38L97.75 59.25ZM48.63 64.38L48.63 64.38Q50.13 64.38 51 65.25Q51.88 66.13 51.88 67.50L51.88 67.50Q51.88 68.88 51 69.69Q50.13 70.50 48.63 70.50L48.63 70.50Q47.25 70.50 46.38 69.69Q45.50 68.88 45.50 67.50L45.50 67.50Q45.50 66.13 46.38 65.25Q47.25 64.38 48.63 64.38ZM45.50 63.25L45.50 59.25L42.13 58.38L42.13 72.63L45.50 72.63L45.50 71.63Q46.25 72.38 47.19 72.69Q48.13 73 49.38 73L49.38 73Q52.13 73 53.81 71.44Q55.50 69.88 55.50 67.50L55.50 67.50Q55.50 64.88 53.81 63.38Q52.13 61.88 49.25 61.88L49.25 61.88Q48 61.88 47.06 62.19Q46.13 62.50 45.50 63.25L45.50 63.25ZM119.38 72.63L116 72.63L116 62.75L119.38 62.75L119.38 63.38Q120.13 62.50 120.94 62.06Q121.75 61.63 122.63 61.63L122.63 61.63Q122.88 61.63 123.06 61.63Q123.25 61.63 123.63 61.75L123.63 61.75L123.63 64.50Q123.38 64.50 123.13 64.50Q122.88 64.50 122.50 64.50L122.50 64.50Q121 64.50 120.19 65.38Q119.38 66.25 119.38 67.88L119.38 67.88L119.38 72.63ZM125.13 60.38L125.13 60.88L125.25 60.88Q125.25 60.88 125.31 60.81Q125.38 60.75 125.38 60.75L125.38 60.75Q125.38 60.75 125.44 60.69Q125.50 60.63 125.50 60.63L125.50 60.63Q125.50 60.63 125.50 60.63Q125.50 60.63 125.50 60.63L125.50 60.63L125.50 60.63Q125.50 60.50 125.44 60.50Q125.38 60.50 125.38 60.38L125.38 60.38Q125.38 60.38 125.31 60.38Q125.25 60.38 125.13 60.38L125.13 60.38L125.13 60.38ZM125.75 60.63L125.75 60.63Q125.75 60.75 125.69 60.81Q125.63 60.88 125.50 61L125.50 61L125.88 61.63L125.50 61.63L125.25 61.13L125.13 61.13L125.13 61.63L124.75 61.63L124.75 60.13L125.25 60.13Q125.38 60.13 125.50 60.19Q125.63 60.25 125.63 60.25L125.63 60.25Q125.75 60.25 125.75 60.38Q125.75 60.50 125.75 60.63L125.75 60.63ZM123.88 60.88L123.88 60.88Q123.88 60.50 124.06 60.25Q124.25 60 124.63 59.75L124.63 59.75L124.63 59.75Q124.75 59.75 124.88 59.69Q125 59.63 125.25 59.63L125.25 59.63L125.25 59.63Q125.38 59.63 125.56 59.69Q125.75 59.75 125.88 59.75L125.88 59.75Q126 59.88 126.13 60Q126.25 60.13 126.38 60.25L126.38 60.25Q126.50 60.38 126.56 60.56Q126.63 60.75 126.63 60.88L126.63 60.88Q126.63 61 126.56 61.19Q126.50 61.38 126.38 61.50L126.38 61.50Q126.25 61.63 126.13 61.75Q126 61.88 125.88 62L125.88 62L125.88 62Q125.75 62.13 125.56 62.13Q125.38 62.13 125.25 62.13L125.25 62.13Q125 62.13 124.88 62.13Q124.75 62.13 124.63 62L124.63 62Q124.38 61.88 124.25 61.75Q124.13 61.63 124.13 61.50L124.13 61.50Q124 61.38 123.94 61.25Q123.88 61.13 123.88 60.88L123.88 60.88Q123.88 60.88 123.88 60.88Q123.88 60.88 123.88 60.88L123.88 60.88L123.88 60.88ZM124.13 60.88L124.13 60.88Q124.13 61 124.19 61.19Q124.25 61.38 124.25 61.38L124.25 61.38Q124.38 61.50 124.44 61.63Q124.50 61.75 124.63 61.88L124.63 61.88Q124.88 61.88 125 61.94Q125.13 62 125.25 62L125.25 62Q125.25 62 125.25 62Q125.25 62 125.25 62L125.25 62Q125.50 62 125.75 61.81Q126 61.63 126.25 61.50L126.25 61.50L126.25 61.38Q126.25 61.38 126.31 61.19Q126.38 61 126.38 60.88L126.38 60.88Q126.38 60.75 126.31 60.63Q126.25 60.50 126.13 60.38L126.13 60.38Q126.13 60.25 126 60.13Q125.88 60 125.75 60L125.75 60L125.75 60Q125.63 59.88 125.50 59.81Q125.38 59.75 125.25 59.75L125.25 59.75Q125.13 59.75 125 59.81Q124.88 59.88 124.75 60L124.75 60L124.75 60Q124.63 60 124.50 60.13Q124.38 60.25 124.25 60.38L124.25 60.38L124.25 60.38Q124.25 60.50 124.19 60.63Q124.13 60.75 124.13 60.88L124.13 60.88Z"/></svg>