<svg xmlns="http://www.w3.org/2000/svg" xmlns:xlink="http://www.w3.org/1999/xlink" width="128" height="128"><path fill="#000000" d="M66.38 70L66.38 70Q66.50 66.88 68 64.13Q69.50 61.38 71.88 59.38L71.88 59.38Q74.13 57.50 77.19 56.38Q80.25 55.25 83.63 55.25L83.63 55.25Q87 55.25 90.06 56.38Q93.13 57.50 95.38 59.38L95.38 59.38Q97.75 61.38 99.25 64.13Q100.75 66.88 100.88 70L100.88 70Q101.13 73.25 99.88 76.25Q98.63 79.25 96.25 81.50L96.25 81.50Q93.88 83.75 90.63 85.06Q87.38 86.38 83.63 86.38L83.63 86.38Q79.88 86.38 76.63 85.06Q73.38 83.75 71 81.50L71 81.50Q68.63 79.25 67.38 76.31Q66.13 73.38 66.38 70L66.38 70ZM39.13 78.88L39.25 79Q39.25 80.25 39.63 82.38Q40 84.50 40.63 86.38L40.63 86.38Q41.88 90.38 44 94.06Q46.13 97.75 49.13 101L49.13 101Q52.13 104.38 55.88 107.06Q59.63 109.75 64 111.63L64 111.63Q68.50 113.63 73.44 114.63Q78.38 115.63 83.50 115.63L83.50 115.63Q88.63 115.63 93.50 114.63Q98.38 113.63 103 111.50L103 111.50Q107.25 109.63 111 106.94Q114.75 104.25 117.75 100.88L117.75 100.88Q120.75 97.63 122.88 93.94Q125 90.25 126.25 86.25L126.25 86.25Q126.88 84.50 127.31 82.44Q127.75 80.38 127.88 78.25L127.88 78.25L127.88 78.13Q128 76.13 127.94 74.06Q127.88 72 127.63 70L127.63 70Q127 65.75 125.63 62.06Q124.25 58.38 122.13 55.13L122.13 55.13L122.25 55.25Q120.25 52.13 117.75 49.44Q115.25 46.75 112.38 44.38L112.38 44.38L112.38 44.38L72.38 13.88Q72.38 13.88 72.31 13.88Q72.25 13.88 72.25 13.88L72.25 13.88Q70.25 12.38 67.38 12.38Q64.50 12.38 62.38 13.88L62.38 13.88Q60.13 15.38 59.94 17.56Q59.75 19.75 61.75 21.38L61.75 21.38L61.75 21.38L78.38 34.88L27.50 34.88Q24.38 34.88 21.75 36.69Q19.13 38.50 18.50 41.13L18.50 41.13Q17.88 43.75 19.75 45.69Q21.63 47.63 24.88 47.63L24.88 47.63L24.88 47.63L50.63 47.50L4.63 82.50Q4.50 82.50 4.50 82.56Q4.50 82.63 4.38 82.63L4.38 82.63Q1.13 85.13 0.25 88.69Q-0.63 92.25 1.38 94.88L1.38 94.88Q3.50 97.50 7.31 97.56Q11.13 97.63 14.50 94.88L14.50 94.88L39.50 74.50Q39.50 74.50 39.31 76.06Q39.13 77.63 39.13 78.88L39.13 78.88ZM103.75 88.25L103.75 88.25Q99.88 92.13 94.63 94.25Q89.38 96.38 83.63 96.38L83.63 96.38Q77.75 96.50 72.50 94.38Q67.25 92.25 63.38 88.25L63.38 88.25Q61.38 86.38 60 84.19Q58.63 82 57.75 79.75L57.75 79.75Q57.13 78 56.81 76.06Q56.50 74.13 56.50 72L56.50 72Q56.50 71.50 56.50 71Q56.50 70.50 56.50 70L56.50 70L56.50 70.13Q56.75 67.63 57.50 65.31Q58.25 63 59.38 61L59.38 61L59.25 61Q60.50 59 62 57.19Q63.50 55.38 65.50 53.75L65.50 53.75Q69.25 50.75 73.88 49.13Q78.50 47.50 83.50 47.50L83.50 47.50Q88.63 47.50 93.25 49.13Q97.88 50.75 101.63 53.75L101.63 53.75Q103.63 55.25 105.13 57.13Q106.63 59 107.88 61L107.88 61Q108.88 63 109.63 65.25Q110.38 67.50 110.63 70L110.63 70L110.63 70Q110.63 70.50 110.63 71Q110.63 71.50 110.63 72L110.63 72Q110.63 74 110.31 76Q110 78 109.25 79.75L109.25 79.75L109.38 79.63Q108.50 82 107.06 84.19Q105.63 86.38 103.75 88.25L103.75 88.25Z"/></svg>