<svg xmlns="http://www.w3.org/2000/svg" xmlns:xlink="http://www.w3.org/1999/xlink" width="128" height="128"><path fill="#ffffff" d="M112.63 30.38L112.63 30.38L68.50 4.75Q66.50 3.50 63.94 3.50Q61.38 3.50 59.25 4.75L59.25 4.75L14.88 30.38Q12.63 31.63 11.31 33.75Q10 35.88 10 38.38L10 38.38L10 89.50Q10 92 11.38 94.19Q12.75 96.38 14.88 97.63L14.88 97.63L26.63 104.38Q30.75 106.38 32.56 106.75Q34.38 107.13 36.38 107.13L36.38 107.13Q42.63 107.13 45.81 103.50Q49 99.88 49 93.25L49 93.25L49 42.75Q49 42.25 49.13 41.63Q49.25 41 48.75 41L48.75 41L43.13 41Q42.63 41 41.81 41.63Q41 42.25 41 42.75L41 42.75L41 93.25Q41 96.13 38.38 98.19Q35.75 100.25 30.75 97.75L30.75 97.75L18.63 90.75Q18.38 90.50 18.19 90.19Q18 89.88 18 89.50L18 89.50L18 38.38Q18 38 18.31 37.69Q18.63 37.38 18.88 37.25L18.88 37.25L63.25 11.63Q63.63 11.50 64 11.50Q64.38 11.50 64.63 11.63L64.63 11.63L108.63 37.25Q109 37.38 109 37.69Q109 38 109 38.38L109 38.38L109 89.50Q109 89.88 109 90.25Q109 90.63 108.63 90.75L108.63 90.75L64.50 116.38Q64.25 116.50 63.94 116.50Q63.63 116.50 63.25 116.38L63.25 116.38L52 109.63Q51.63 109.38 51.38 109.38Q51.13 109.38 50.88 109.50L50.88 109.50Q48.50 110.88 47.44 111.31Q46.38 111.75 44.13 112.50L44.13 112.50Q43.63 112.75 43.25 113.13Q42.88 113.50 44.63 114.50L44.63 114.50L59.38 123.25Q60.50 123.88 61.69 124.19Q62.88 124.50 64 124.50L64 124.50Q65.25 124.50 66.44 124.19Q67.63 123.88 68.75 123.25L68.75 123.25L112.63 97.63Q114.88 96.38 115.94 94.19Q117 92 117 89.50L117 89.50L117 38.38Q117 35.88 115.94 33.75Q114.88 31.63 112.63 30.38L112.63 30.38ZM77.75 81.50L77.75 81.50Q68.88 81.50 66.06 79.13Q63.25 76.75 62.50 72.38L62.50 72.38Q62.50 71.88 62.13 71.44Q61.75 71 61.25 71L61.25 71L55.50 71Q55 71 54.63 71.50Q54.25 72 54.25 72.63L54.25 72.63Q54.25 78.13 58.69 83.63Q63.13 89.13 77.75 89.13L77.75 89.13Q88.25 89.13 94.06 85.19Q99.88 81.25 99.88 74L99.88 74Q99.88 66.75 94.94 64.06Q90 61.38 79.75 60.13L79.75 60.13Q69.38 58.75 67 57.63Q64.63 56.50 64.63 54.13L64.63 54.13Q64.63 52.13 66.44 50Q68.25 47.88 76 47.88L76 47.88Q82.75 47.88 85.75 49.63Q88.75 51.38 89.75 56L89.75 56Q89.88 56.50 90.25 56.75Q90.63 57 91 57L91 57L96.75 57Q97 57 97.25 56.88Q97.50 56.75 97.75 56.63L97.75 56.63Q97.88 56.38 98 56.13Q98.13 55.88 98 55.63L98 55.63Q97.38 47.75 92 43.94Q86.63 40.13 76 40.13L76 40.13Q66.50 40.13 61.13 43.94Q55.75 47.75 55.75 54.38L55.75 54.38Q55.75 61.63 61 64.38Q66.25 67.13 75.38 68L75.38 68Q86.25 69 88.63 70.63Q91 72.25 91 74.38L91 74.38Q91 78.13 87.88 79.81Q84.75 81.50 77.75 81.50Z"/></svg>