<svg xmlns="http://www.w3.org/2000/svg" xmlns:xlink="http://www.w3.org/1999/xlink" width="128" height="128"><path fill="#ffffff" d="M114.38 80.75L114.38 80.75Q114.13 80.75 113.88 80.69Q113.63 80.63 113.50 80.50L113.50 80.50L110.88 79Q110.50 78.75 110.56 78.69Q110.63 78.63 110.75 78.63L110.75 78.63Q111.13 78.50 111.31 78.38Q111.50 78.25 112 78.13L112 78.13Q112 78 112.06 78Q112.13 78 112.13 78.13L112.13 78.13L114.25 79.25Q114.25 79.38 114.31 79.38Q114.38 79.38 114.50 79.25L114.50 79.25L122.38 74.75Q122.50 74.63 122.50 74.56Q122.50 74.50 122.50 74.50L122.50 74.50L122.50 65.38Q122.50 65.25 122.50 65.19Q122.50 65.13 122.38 65.13L122.38 65.13L114.50 60.50Q114.38 60.50 114.31 60.50Q114.25 60.50 114.25 60.50L114.25 60.50L106.25 65.13Q106.25 65.13 106.19 65.19Q106.13 65.25 106.13 65.38L106.13 65.38L106.13 74.50Q106.13 74.50 106.19 74.56Q106.25 74.63 106.25 74.75L106.25 74.75L108.50 76Q109.38 76.38 109.88 76Q110.38 75.63 110.38 75.13L110.38 75.13L110.38 66.13Q110.38 66 110.44 65.94Q110.50 65.88 110.63 65.88L110.63 65.88L111.63 65.88Q111.63 65.88 111.75 65.94Q111.88 66 111.88 66.13L111.88 66.13L111.88 75.13Q111.88 76.38 111.25 77Q110.63 77.63 109.50 77.63L109.50 77.63Q109.13 77.63 108.75 77.56Q108.38 77.50 107.63 77.13L107.63 77.13L105.50 76Q105.13 75.75 104.94 75.38Q104.75 75 104.75 74.50L104.75 74.50L104.75 65.38Q104.75 64.88 104.94 64.50Q105.13 64.13 105.50 63.88L105.50 63.88L113.50 59.25Q113.88 59.13 114.31 59.13Q114.75 59.13 115.13 59.25L115.13 59.25L123.13 63.88Q123.50 64.13 123.69 64.50Q123.88 64.88 123.88 65.38L123.88 65.38L123.88 74.50Q123.88 75 123.69 75.38Q123.50 75.75 123.13 76L123.13 76L115.13 80.50Q115 80.63 114.75 80.69Q114.50 80.75 114.38 80.75L114.38 80.75ZM116.75 74.50L116.75 74.50Q114.13 74.50 113.38 73.50Q112.63 72.50 112.63 71.50L112.63 71.50Q112.63 71.38 112.69 71.31Q112.75 71.25 112.75 71.25L112.75 71.25L113.88 71.25Q113.88 71.25 113.94 71.31Q114 71.38 114 71.50L114 71.50Q114.13 72.25 114.69 72.63Q115.25 73 116.75 73L116.75 73Q118 73 118.56 72.75Q119.13 72.50 119.13 71.75L119.13 71.75Q119.13 71.38 118.69 71.13Q118.25 70.88 116.38 70.63L116.38 70.63Q114.75 70.50 113.81 70Q112.88 69.50 112.88 68.25L112.88 68.25Q112.88 67 113.81 66.31Q114.75 65.63 116.50 65.63L116.50 65.63Q118.38 65.63 119.31 66.31Q120.25 67 120.38 68.38L120.38 68.38Q120.38 68.50 120.38 68.50Q120.38 68.50 120.38 68.63L120.38 68.63Q120.38 68.63 120.31 68.63Q120.25 68.63 120.25 68.63L120.25 68.63L119.13 68.63Q119.13 68.63 119.06 68.63Q119 68.63 118.88 68.50L118.88 68.50Q118.75 67.63 118.19 67.31Q117.63 67 116.50 67L116.50 67Q115.13 67 114.75 67.38Q114.38 67.75 114.38 68.13L114.38 68.13Q114.38 68.63 114.81 68.81Q115.25 69 117.13 69.25L117.13 69.25Q119 69.50 119.88 69.94Q120.75 70.38 120.75 71.75L120.75 71.75Q120.75 73 119.69 73.75Q118.63 74.50 116.75 74.50L116.75 74.50ZM98 68.38L98 68.38Q98.25 68.25 98.38 68.06Q98.50 67.88 98.50 67.50L98.50 67.50L98.50 65.25Q98.50 64.88 98.38 64.69Q98.25 64.50 98 64.38L98 64.38L89.63 59.50Q89.38 59.38 89.13 59.38Q88.88 59.38 88.63 59.50L88.63 59.50L80.13 64.38Q80 64.50 79.81 64.69Q79.63 64.88 79.63 65.25L79.63 65.25L79.63 74.88Q79.63 75.25 79.81 75.44Q80 75.63 80.25 75.75L80.25 75.75L88.50 80.63Q88.75 80.75 89.06 80.75Q89.38 80.75 89.50 80.63L89.50 80.63L94.63 77.75Q94.75 77.75 94.81 77.63Q94.88 77.50 94.88 77.38L94.88 77.38Q94.88 77.13 94.81 77.06Q94.75 77 94.63 76.88L94.63 76.88L86.13 72Q86 72 85.94 71.88Q85.88 71.75 85.88 71.63L85.88 71.63L85.88 68.50Q85.88 68.38 85.94 68.25Q86 68.13 86.13 68.13L86.13 68.13L88.75 66.63Q88.88 66.50 89 66.50Q89.13 66.50 89.25 66.63L89.25 66.63L91.88 68.13Q92 68.13 92.06 68.25Q92.13 68.38 92.13 68.50L92.13 68.50L92.13 70.88Q92.13 71 92.25 71.13Q92.38 71.25 92.38 71.38L92.38 71.38Q92.50 71.38 92.69 71.38Q92.88 71.38 93 71.38L93 71.38L98 68.38ZM87.38 68.88L89 68Q89 68 89.06 68Q89.13 68 89.13 68L89.13 68L90.75 68.88Q90.88 68.88 90.88 68.94Q90.88 69 90.88 69.13L90.88 69.13L90.88 71Q90.88 71 90.88 71.06Q90.88 71.13 90.75 71.13L90.75 71.13L89.13 72Q89.13 72.13 89.06 72.13Q89 72.13 89 72L89 72L87.38 71.13Q87.38 71.13 87.31 71.06Q87.25 71 87.25 71L87.25 71L87.25 69.13Q87.25 69 87.31 68.94Q87.38 68.88 87.38 68.88L87.38 68.88ZM67.13 71.88L67.13 71.88Q67.13 71.88 67.06 71.94Q67 72 67 72.13L67 72.13L64.13 73.75Q64 73.75 63.94 73.75Q63.88 73.75 63.75 73.75L63.75 73.75L60.88 72.13Q60.88 72 60.81 71.94Q60.75 71.88 60.75 71.88L60.75 71.88L60.75 68.50Q60.75 68.50 60.81 68.44Q60.88 68.38 60.88 68.25L60.88 68.25L63.75 66.63Q63.88 66.63 63.94 66.63Q64 66.63 64.13 66.63L64.13 66.63L67 68.25Q67 68.38 67.06 68.44Q67.13 68.50 67.13 68.50L67.13 68.50L67.13 71.88ZM67.88 47.13L67.88 47.13Q67.75 47.13 67.63 47.13Q67.50 47.13 67.38 47.13L67.38 47.13Q67.25 47.25 67.19 47.38Q67.13 47.50 67.13 47.63L67.13 47.63L67.13 60.50Q67.13 60.63 67.06 60.69Q67 60.75 66.88 60.75L66.88 60.75Q66.88 60.88 66.75 60.88Q66.63 60.88 66.63 60.75L66.63 60.75L64.50 59.63Q64.25 59.50 64 59.50Q63.75 59.50 63.50 59.63L63.50 59.63L55 64.50Q54.75 64.63 54.63 64.81Q54.50 65 54.50 65.38L54.50 65.38L54.50 75Q54.50 75.38 54.63 75.56Q54.75 75.75 55 75.88L55 75.88L63.50 80.75Q63.63 80.88 63.94 80.88Q64.25 80.88 64.50 80.75L64.50 80.75L72.88 75.88Q73.13 75.75 73.25 75.56Q73.38 75.38 73.38 75L73.38 75L73.38 50.88Q73.38 50.50 73.25 50.31Q73.13 50.13 72.88 49.88L72.88 49.88L67.88 47.13ZM38.25 59.38L38.25 59.38Q38.50 59.25 38.75 59.25Q39 59.25 39.25 59.38L39.25 59.38L47.63 64.25Q47.88 64.38 48 64.63Q48.13 64.88 48.13 65.13L48.13 65.13L48.13 74.88Q48.13 75.13 48 75.38Q47.88 75.63 47.63 75.75L47.63 75.75L39.25 80.63Q39 80.75 38.75 80.75Q38.50 80.75 38.25 80.63L38.25 80.63L29.88 75.75Q29.63 75.63 29.50 75.38Q29.38 75.13 29.38 74.88L29.38 74.88L29.38 65.13Q29.38 64.88 29.50 64.63Q29.63 64.38 29.88 64.25L29.88 64.25L38.25 59.38ZM22.88 78.13L22.88 65.13Q22.88 64.75 22.75 64.56Q22.63 64.38 22.38 64.13L22.38 64.13L14 59.38Q13.88 59.25 13.75 59.25Q13.63 59.25 13.50 59.25L13.50 59.25L13.50 59.25Q13.38 59.25 13.25 59.25Q13.13 59.25 13 59.38L13 59.38L4.63 64.13Q4.38 64.38 4.25 64.56Q4.13 64.75 4.13 65.13L4.13 65.13L4.13 78.13Q4.13 78.25 4.19 78.38Q4.25 78.50 4.38 78.50L4.38 78.50Q4.50 78.63 4.63 78.63Q4.75 78.63 4.88 78.50L4.88 78.50L9.88 75.63Q10.13 75.50 10.25 75.31Q10.38 75.13 10.38 74.75L10.38 74.75L10.38 68.75Q10.38 68.38 10.50 68.19Q10.63 68 10.88 67.88L10.88 67.88L13 66.63Q13.13 66.50 13.25 66.50Q13.38 66.50 13.50 66.50L13.50 66.50Q13.63 66.50 13.75 66.50Q13.88 66.50 14 66.63L14 66.63L16.13 67.88Q16.38 68 16.50 68.19Q16.63 68.38 16.63 68.75L16.63 68.75L16.63 74.75Q16.63 75.13 16.75 75.31Q16.88 75.50 17.13 75.63L17.13 75.63L22.13 78.50Q22.25 78.63 22.38 78.63Q22.50 78.63 22.63 78.50L22.63 78.50Q22.75 78.50 22.81 78.38Q22.88 78.25 22.88 78.13L22.88 78.13Z"/></svg>