<svg xmlns="http://www.w3.org/2000/svg" xmlns:xlink="http://www.w3.org/1999/xlink" width="128" height="128"><path fill="#000000" d="M64 6.50L64 6.50Q50.88 6.50 39.13 11L39.13 11Q27.50 15.63 18.81 23.56Q10.13 31.50 5.13 42.13L5.13 42.13Q0 52.75 0 64.75L0 64.75Q2.63 66.63 4.50 67.63Q6.38 68.63 8.50 69.50L8.50 69.50Q12.75 66.75 17.63 65.38Q22.50 64 27.63 64L27.63 64Q29.13 64 30.69 64.13Q32.25 64.25 33.75 64.50L33.75 64.50Q38.50 65.25 45.50 68.88Q52.50 72.50 55.88 75.50L55.88 75.50Q56.75 73.63 57.75 72.13Q58.75 70.63 59.75 69.13L59.75 69.13L59.75 69.25Q60.13 68.63 60.63 68.06Q61.13 67.50 61.63 66.88L61.63 66.88Q57.25 63.63 49.31 59.75Q41.38 55.88 35.75 54.88L35.75 54.88Q33.88 54.50 31.81 54.38Q29.75 54.25 27.63 54.25L27.63 54.25L27.63 54.25Q23.50 54.25 19.44 54.94Q15.38 55.63 11.50 57L11.50 57Q13 48.25 17.75 40.75L17.75 40.75Q22.50 33.38 29.50 27.88Q36.50 22.38 45.38 19.38L45.38 19.38Q54.25 16.25 64.13 16.25L64.13 16.25Q69.38 16.25 74.50 17.13L74.50 17.13Q79.63 18.13 84.44 19.94Q89.25 21.75 93.50 24.38L93.50 24.38Q97.88 27 101.63 30.38L101.63 30.38Q107.63 35.88 111.44 42.63Q115.25 49.38 116.50 56.88L116.50 56.88Q112.63 55.50 108.56 54.81Q104.50 54.13 100.38 54.13L100.38 54.13L99.63 54.13Q98.38 54.13 97.13 54.19Q95.88 54.25 94.75 54.38L94.75 54.38L95 54.38Q94.75 54.38 94.56 54.44Q94.38 54.50 94.13 54.50L94.13 54.50Q93.63 54.50 93.13 54.56Q92.63 54.63 92 54.75L92 54.75Q91.88 54.75 91.63 54.81Q91.38 54.88 91.13 54.88L91.13 54.88Q90.63 55 90.13 55.13Q89.63 55.25 89.13 55.38L89.13 55.38Q88.88 55.38 88.69 55.44Q88.50 55.50 88.38 55.50L88.38 55.50Q87.75 55.63 87.13 55.81Q86.50 56 85.88 56.25L85.88 56.25Q85.75 56.25 85.75 56.25Q85.75 56.25 85.63 56.25L85.63 56.25Q84 56.75 82.56 57.31Q81.13 57.88 79.88 58.50L79.88 58.50L80.13 58.38Q80.13 58.38 80.06 58.38Q80 58.38 80 58.50L80 58.50L80 58.50Q79.38 58.75 78.75 59.06Q78.13 59.38 77.50 59.63L77.50 59.63L77.38 59.75Q74.13 61.50 71.31 63.75Q68.50 66 66.13 68.63L66.13 68.63L65.75 69Q65.25 69.63 64.75 70.19Q64.25 70.75 63.75 71.38L63.75 71.38Q63.38 72 62.94 72.63Q62.50 73.25 62.13 74L62.13 74L62 74.13Q61.75 74.50 61.44 75.06Q61.13 75.63 60.75 76.13L60.75 76.13L60.63 76.38Q60.13 77.38 59.50 78.63Q58.88 79.88 58.38 81.25L58.38 81.25L58.38 81.50L58.38 81.50Q57.25 84.38 56.69 87.56Q56.13 90.75 56.13 94.25L56.13 94.25Q56.13 94.38 56.13 94.56Q56.13 94.75 56.13 94.88L56.13 94.88L56.13 94.88Q56.13 95 56.13 95.13Q56.13 95.25 56.13 95.38L56.13 95.38Q56.13 95.63 56.13 95.94Q56.13 96.25 56.13 96.50L56.13 96.50Q56.13 96.88 56.19 97.31Q56.25 97.75 56.25 98.25L56.25 98.25Q56.38 98.50 56.38 98.75Q56.38 99 56.38 99.25L56.38 99.25Q56.50 99.50 56.50 99.69Q56.50 99.88 56.50 100L56.50 100Q56.63 100.50 56.69 100.94Q56.75 101.38 56.88 101.88L56.88 101.88Q58 107.50 60.81 112.44Q63.63 117.38 67.75 121.50L67.75 121.50Q69.25 119.25 69.81 117.88Q70.38 116.50 71.88 112.13L71.88 112.13Q68.25 108.13 67.56 104Q66.88 99.88 66.88 94.38L66.88 94.38Q66.88 88.38 69.25 83L69.25 83Q71.75 77.63 76 73.50Q80.25 69.38 86 66.88L86 66.88Q91.75 64.25 98.25 64L98.25 64L99.38 63.88Q104.75 63.75 109.94 65.19Q115.13 66.63 119.63 69.38L119.63 69.38L123.63 66.75L128 64.75Q128 58.88 126.75 53.25L126.75 53.25Q125.50 47.63 123.13 42.38Q120.75 37.13 117.25 32.38L117.25 32.38Q113.75 27.63 109.25 23.50L109.25 23.50Q104.75 19.38 99.50 16.25L99.50 16.25Q94.25 13 88.50 10.81Q82.75 8.63 76.63 7.50L76.63 7.50Q70.50 6.50 64 6.50L64 6.50Z"/></svg>