<svg xmlns="http://www.w3.org/2000/svg" xmlns:xlink="http://www.w3.org/1999/xlink" width="128" height="128"><path fill="#000000" d="M49.38 62L49.38 62L78.50 62Q84.63 62 88.81 57.56Q93 53.13 93 47L93 47L93 19.13Q93 13.25 88.69 9.13Q84.38 5 78.50 4L78.50 4Q74.63 3.38 70.81 3.06Q67 2.75 63.25 2.88L63.25 2.88Q59.50 2.88 56.06 3.19Q52.63 3.50 49.50 4L49.50 4Q40.13 5.63 37.56 9.25Q35 12.88 35 19.13L35 19.13L35 30L64 30L64 34L23.75 34Q17.38 34 12.31 37.75Q7.25 41.50 5.50 48.75L5.50 48.75Q3.50 57.13 3.50 63.38Q3.50 69.63 5.50 78.38L5.50 78.38Q7.13 84.88 10.94 88.94Q14.75 93 21 93L21 93L31 93L31 80Q31 72.75 36.44 67.38Q41.88 62 49.38 62L49.38 62ZM47.50 22.88L47.50 22.88Q45.25 22.88 43.63 21.25Q42 19.63 42 17.38L42 17.38Q42 15 43.63 13.38Q45.25 11.75 47.50 11.75L47.50 11.75Q49.75 11.75 51.38 13.38Q53 15 53 17.38L53 17.38Q53 19.63 51.38 21.25Q49.75 22.88 47.50 22.88ZM122.25 48.75L122.25 48.75Q120.75 42.50 117.38 38.25Q114 34 107.63 34L107.63 34L97 34L97 47Q97 54.50 91.38 59.75Q85.75 65 78.50 65L78.50 65L49.38 65Q43.38 65 39.19 69.69Q35 74.38 35 80.38L35 80.38L35 108.13Q35 114 39.31 117.63Q43.63 121.25 49.50 123L49.50 123Q56.38 125 63.31 125.19Q70.25 125.38 78.50 123L78.50 123Q84 121.38 88.50 117.94Q93 114.50 93 108.13L93 108.13L93 97L64 97L64 93L107.63 93Q114 93 117.06 89Q120.13 85 122.25 78.38L122.25 78.38Q124.63 71.50 124.56 64.56Q124.50 57.63 122.25 48.75L122.25 48.75ZM80.38 104.38L80.38 104.38Q82.63 104.38 84.19 106Q85.75 107.63 85.75 110L85.75 110Q85.75 112.25 84.19 113.88Q82.63 115.50 80.38 115.50L80.38 115.50Q78.13 115.50 76.50 113.88Q74.88 112.25 74.88 110L74.88 110Q74.88 107.63 76.50 106Q78.13 104.38 80.38 104.38Z"/></svg>