<svg xmlns="http://www.w3.org/2000/svg" xmlns:xlink="http://www.w3.org/1999/xlink" width="128" height="128"><path fill="#ffffff" d="M32.88 68L40 68L40 57.88Q40 52.75 44 48.88Q48 45 53.38 45L53.38 45L74.50 45Q78.88 45 81.44 41.75Q84 38.50 84 34L84 34L84 14Q84 9.63 81.13 6.63Q78.25 3.63 74 3L74 3Q71.25 2.50 68.56 2.31Q65.88 2.13 63.25 2.13L63.25 2.13Q60.50 2.13 57.81 2.31Q55.13 2.50 52.88 3L52.88 3Q46.13 4.13 44.06 6.75Q42 9.38 42 14L42 14L42 22L63 22L63 25L34.88 25Q30.25 25 26.63 27.63Q23 30.25 21.75 35.50L21.75 35.50Q20.25 41.63 20.19 46.25Q20.13 50.88 21.75 57.13L21.75 57.13Q22.88 61.88 25.63 64.94Q28.38 68 32.88 68L32.88 68ZM52 16.63L52 16.63Q50.38 16.63 49.25 15.44Q48.13 14.25 48.13 12.63L48.13 12.63Q48.13 11 49.25 9.81Q50.38 8.63 52 8.63L52 8.63Q53.75 8.63 54.88 9.81Q56 11 56 12.63L56 12.63Q56 14.25 54.88 15.44Q53.75 16.63 52 16.63ZM106.13 35.50L106.13 35.50Q105 31 102.63 28Q100.25 25 95.63 25L95.63 25L87 25L87 34Q87 39.50 83.38 43.75Q79.75 48 74.50 48L74.50 48L53.38 48Q49 48 45.50 50.94Q42 53.88 42 58.25L42 58.25L42 78.25Q42 82.63 45.38 85.25Q48.75 87.88 53 89L53 89Q58 90.50 62.88 90.63Q67.75 90.75 73.75 89L73.75 89Q77.75 87.88 80.88 85.38Q84 82.88 84 78.25L84 78.25L84 71L63 71L63 68L95.63 68Q100.25 68 102.44 65Q104.63 62 106.13 57.13L106.13 57.13Q107.88 52.25 107.81 47.06Q107.75 41.88 106.13 35.50ZM75.88 75.63L75.88 75.63Q77.50 75.63 78.63 76.81Q79.75 78 79.75 79.63L79.75 79.63Q79.75 81.25 78.63 82.44Q77.50 83.63 75.88 83.63L75.88 83.63Q74.13 83.63 73 82.44Q71.88 81.25 71.88 79.63L71.88 79.63Q71.88 78 73 76.81Q74.13 75.63 75.88 75.63ZM34.88 112L34.88 112Q34.88 109.25 34.06 107.81Q33.25 106.38 31.75 106.25L31.75 106.25Q31 106.25 30.38 106.31Q29.75 106.38 29.25 106.63L29.25 106.63Q28.75 106.88 28.44 107Q28.13 107.13 27.88 107.38L27.88 107.38L27.88 116.38Q28.88 117 29.81 117.31Q30.75 117.63 31.50 117.50L31.50 117.50Q33.25 117.38 34.06 116Q34.88 114.63 34.88 112L34.88 112ZM37.50 112.25L37.50 112.25Q37.50 113.63 37.19 114.81Q36.88 116 36.25 117L36.25 117Q35.50 118 34.44 118.56Q33.38 119.13 32 119.13L32 119.13Q31 119.25 30 118.88Q29 118.50 27.88 117.88L27.88 117.88L27.88 126L25.63 125.25L25.63 107.13Q25.88 106.75 26.25 106.50Q26.63 106.25 27 106L27 106Q28.13 105.38 29.38 105.06Q30.63 104.75 32 104.75L32 104.75L32.13 104.75Q33.38 104.75 34.44 105.31Q35.50 105.88 36.25 107L36.25 107Q36.88 108 37.19 109.31Q37.50 110.63 37.50 112.25L37.50 112.25ZM51.63 117.50L51.63 117.50Q51.63 119.50 51.44 120.81Q51.25 122.13 50.88 122.88L50.88 122.88Q50.50 123.63 49.75 124.19Q49 124.75 47.88 125.25L47.88 125.25Q47 125.63 46.06 125.81Q45.13 126 44.13 126L44.13 126L43.75 124.50Q44.75 124.38 45.50 124.25Q46.25 124.13 46.63 124L46.63 124Q47.50 123.75 48.06 123.31Q48.63 122.88 48.88 122.25L48.88 122.25Q49.13 121.75 49.25 120.88Q49.38 120 49.38 118.63L49.38 118.63L49.38 118Q48.25 118.63 47 118.88Q45.75 119.13 44.50 119.13L44.50 119.13Q43.63 119.13 42.88 118.88Q42.13 118.63 41.50 118L41.50 118Q40.75 117.50 40.38 116.75Q40 116 40 115.13L40 115.13L40 105.50L42.38 104.75L42.38 114.38Q42.38 115.13 42.63 115.69Q42.88 116.25 43.38 116.75L43.38 116.75Q43.88 117.13 44.50 117.31Q45.13 117.50 45.88 117.50L45.88 117.50Q46.75 117.50 47.56 117.19Q48.38 116.88 49.25 116.25L49.25 116.25L49.25 105.13L51.63 105.13L51.63 117.50ZM60.63 119L60.63 119Q60.38 119 60.19 119.06Q60 119.13 59.88 119.13L59.88 119.13Q58.88 119.13 58.13 118.88Q57.38 118.63 56.75 118.13L56.75 118.13Q56.25 117.63 56 117Q55.75 116.38 55.75 115.63L55.75 115.63L55.75 106.50L54.13 106.50L54.13 105.13L55.75 105.13L55.75 101.25L58 100.38L58 105.13L60.63 105.13L60.63 106.50L58 106.50L58 115.50Q58 116.13 58.19 116.63Q58.38 117.13 58.63 117.38L58.63 117.38Q59 117.50 59.44 117.63Q59.88 117.75 60.63 117.88L60.63 117.88L60.63 119ZM74.50 118.88L74.50 118.88L72.25 118.88L72.25 110Q72.25 109.25 72.06 108.69Q71.88 108.13 71.63 107.63L71.63 107.63Q71.25 107.13 70.75 106.81Q70.25 106.50 69.50 106.50L69.50 106.50Q68.75 106.50 67.75 106.94Q66.75 107.38 65.63 108.25L65.63 108.25L65.63 118.88L63.25 118.88L63.25 97.63L65.63 96.88L65.63 106.63Q66.75 105.75 67.94 105.38Q69.13 105 70.38 105L70.38 105Q71.38 105 72.06 105.31Q72.75 105.63 73.38 106.25L73.38 106.25Q73.88 106.75 74.19 107.56Q74.50 108.38 74.50 109.25L74.50 109.25L74.50 118.88ZM86.75 111.75L86.75 111.75Q86.75 110.63 86.50 109.75Q86.25 108.88 85.88 108.13L85.88 108.13Q85.38 107.25 84.63 106.81Q83.88 106.38 82.88 106.25L82.88 106.25Q81 106.38 80.06 107.75Q79.13 109.13 79.13 111.75L79.13 111.75Q79.13 112.88 79.31 113.88Q79.50 114.88 79.88 115.63L79.88 115.63Q80.38 116.75 81.13 117.25Q81.88 117.75 82.88 117.63L82.88 117.63Q84.88 117.63 85.81 116.13Q86.75 114.63 86.75 111.75L86.75 111.75ZM89.25 111.75L89.25 111.75Q89.25 113.25 88.88 114.50Q88.50 115.75 87.63 116.88L87.63 116.88Q86.75 118 85.56 118.56Q84.38 119.13 82.88 119.13L82.88 119.13Q81.38 119.13 80.19 118.56Q79 118 78.13 116.88L78.13 116.88Q77.38 115.75 77 114.50Q76.63 113.25 76.63 111.75L76.63 111.75Q76.63 110.25 77.06 109.06Q77.50 107.88 78.25 106.88L78.25 106.88Q79.13 105.75 80.31 105.25Q81.50 104.75 82.88 104.75L82.88 104.75Q84.38 104.75 85.50 105.25Q86.63 105.75 87.50 106.88L87.50 106.88Q88.38 107.88 88.81 109.06Q89.25 110.25 89.25 111.75ZM102.38 108.25L102.38 118.88L100.13 118.88L100.13 109.50Q100.13 108.75 99.88 108.13Q99.63 107.50 99.13 107L99.13 107Q98.75 106.63 98.13 106.44Q97.50 106.25 96.75 106.25L96.75 106.25Q95.88 106.25 95.13 106.50Q94.38 106.75 93.63 107.25L93.63 107.25L93.63 118.88L91.25 118.88L91.25 107Q92.25 106.25 93.19 105.81Q94.13 105.38 95 105.13L95 105.13Q95.75 104.88 96.44 104.81Q97.13 104.75 97.75 104.75L97.75 104.75Q98.13 104.75 98.50 104.75Q98.88 104.75 99.25 104.88L99.25 104.88Q99.88 105 100.44 105.31Q101 105.63 101.50 106L101.50 106Q101.88 106.50 102.13 107.06Q102.38 107.63 102.38 108.25L102.38 108.25Z"/></svg>