<svg xmlns="http://www.w3.org/2000/svg" xmlns:xlink="http://www.w3.org/1999/xlink" width="128" height="128"><path fill="#000000" d="M127 1L2 1L2 126L127 126L127 1ZM68.13 107.50L68.13 107.50Q66.75 110.38 64.25 112.19Q61.75 114 58.63 114.88L58.63 114.88Q54 116 49.63 115.44Q45.25 114.88 42 112.88L42 112.88Q39.75 111.50 38 109.44Q36.25 107.38 35 105L35 105L44.50 99.13Q44.63 99.13 44.81 99.44Q45 99.75 45.25 100.25L45.25 100.25Q46.13 101.75 47.06 102.81Q48 103.88 49.50 104.63L49.50 104.63Q51 105.25 53.69 105.06Q56.38 104.88 57.75 102.25L57.75 102.25Q58.50 100.88 58.44 96.94Q58.38 93 58.38 88.25L58.38 88.25Q58.38 80.63 58.44 73.06Q58.50 65.50 58.50 58L58.50 58L70.25 58Q70.25 66.25 70.25 74.19Q70.25 82.13 70.25 90.13L70.25 90.13Q70.25 95.13 70.19 99.50Q70.13 103.88 68.13 107.50ZM116.75 104.25L116.75 104.25Q115.13 109.38 110.63 112.13L110.63 112.13Q106.13 114.88 100.63 115.44Q95.13 116 89.75 114.38L89.75 114.38Q84.25 112.88 80.88 109.38L80.88 109.38Q79.38 107.75 78.44 106.63Q77.50 105.50 76.63 103.63L76.63 103.63Q80.25 101.50 81.44 100.81Q82.63 100.13 86.13 98.13L86.13 98.13Q88 101 90.06 102.69Q92.13 104.38 95.25 105L95.25 105Q99.50 105.63 103 103.94Q106.50 102.25 105.50 97.63L105.50 97.63Q104.50 93.88 98.25 92Q92 90.13 86.63 86.13L86.63 86.13Q81.25 82.50 80.25 75.19Q79.25 67.88 83.63 62.75L83.63 62.75Q85.13 61 87.50 59.63Q89.88 58.25 92.50 57.63L92.50 57.63L96.25 57.13Q101.50 57 105 58.38Q108.50 59.75 111 62.50L111 62.50Q111.63 63.13 112.31 64Q113 64.88 114 66.50L114 66.50Q111.13 68.25 110 69Q108.88 69.75 104.88 72.38L104.88 72.38Q104 70.50 102.63 69.31Q101.25 68.13 99.75 67.63L99.75 67.63Q97.38 66.88 94.88 67.69Q92.38 68.50 91.75 71L91.75 71Q91.63 71.88 91.63 72.69Q91.63 73.50 92 74.75L92 74.75Q93 76.88 95.75 78.13Q98.50 79.38 101.38 80.63L101.38 80.63Q109.63 84 113 87.69Q116.38 91.38 117.13 95.63L117.13 95.63Q117.75 99.25 117.31 101.56Q116.88 103.88 116.75 104.25L116.75 104.25Z"/></svg>