<svg xmlns="http://www.w3.org/2000/svg" xmlns:xlink="http://www.w3.org/1999/xlink" width="128" height="128"><path fill="#ffffff" d="M64 3.25L64 3.25Q51.38 3.25 40.38 8L40.38 8Q29.25 12.75 21 21Q12.75 29.25 8 40.38L8 40.38Q3.25 51.38 3.25 64L3.25 64Q3.25 76.63 8 87.63L8 87.63Q12.75 98.75 21 107Q29.25 115.25 40.38 120L40.38 120Q51.38 124.75 64 124.75L64 124.75Q76.63 124.75 87.63 120L87.63 120Q98.75 115.25 107 107Q115.25 98.75 120 87.63L120 87.63Q124.75 76.63 124.75 64L124.75 64Q124.75 51.38 120 40.38L120 40.38Q115.25 29.25 107 21Q98.75 12.75 87.63 8L87.63 8Q76.63 3.25 64 3.25L64 3.25ZM77.63 24.13L77.63 24.13Q79.25 21.25 82.50 20.38Q85.75 19.50 88.75 21.25L88.75 21.25Q91.63 22.88 92.50 26.13Q93.38 29.38 91.63 32.25L91.63 32.25Q90 35.13 86.75 36Q83.50 36.88 80.63 35.25L80.63 35.25Q77.75 33.63 76.88 30.38Q76 27.13 77.63 24.13L77.63 24.13ZM64 28.75L64 28.75Q66.50 28.75 68.81 29.06Q71.13 29.38 73.38 30L73.38 30Q73.75 32.50 75.19 34.63Q76.63 36.75 79 38.13L79 38.13Q81.25 39.38 83.81 39.56Q86.38 39.75 88.63 38.88L88.63 38.88Q93.13 43.25 95.94 49.13Q98.75 55 99.13 61.75L99.13 61.75L87.63 61.88Q86.75 52.88 80 46.56Q73.25 40.25 64 40.25L64 40.25Q61.38 40.25 58.81 40.88Q56.25 41.50 54 42.50L54 42.50L48.38 32.38Q51.88 30.63 55.81 29.69Q59.75 28.75 64 28.75L64 28.75ZM22.75 72.13L22.75 72.13Q19.38 72.13 17 69.75Q14.63 67.38 14.63 64L14.63 64Q14.63 60.63 17 58.25Q19.38 55.88 22.75 55.88L22.75 55.88Q26 55.88 28.38 58.25Q30.75 60.63 30.75 64L30.75 64Q30.75 67.38 28.38 69.75Q26 72.13 22.75 72.13ZM29.88 72.88L29.88 72.88Q31.75 71.25 32.94 68.94Q34.13 66.63 34.13 64L34.13 64Q34.13 61.38 32.94 59.06Q31.75 56.75 29.88 55.13L29.88 55.13Q31.50 48.75 35.31 43.50Q39.13 38.25 44.50 34.63L44.50 34.63L50.38 44.63Q45.88 47.88 43.06 52.94Q40.25 58 40.25 64L40.25 64Q40.25 70 43 75.06Q45.75 80.13 50.38 83.38L50.38 83.38L44.50 93.38Q39.13 89.75 35.31 84.50Q31.50 79.25 29.88 72.88L29.88 72.88ZM88.75 106.75L88.75 106.75Q85.75 108.50 82.56 107.63Q79.38 106.75 77.63 103.88L77.63 103.88Q76 100.88 76.88 97.63Q77.75 94.38 80.63 92.75L80.63 92.75Q83.50 91.13 86.75 92Q90 92.88 91.63 95.75L91.63 95.75Q93.38 98.63 92.50 101.88Q91.63 105.13 88.75 106.75ZM88.63 89.13L88.63 89.13Q86.38 88.25 83.81 88.44Q81.25 88.63 79 89.88L79 89.88Q76.63 91.25 75.19 93.38Q73.75 95.50 73.38 98L73.38 98Q71.13 98.63 68.81 98.94Q66.50 99.25 64 99.25L64 99.25Q59.75 99.25 55.81 98.31Q51.88 97.38 48.38 95.63L48.38 95.63L54 85.50Q56.25 86.50 58.81 87.13Q61.38 87.75 64 87.75L64 87.75Q73.25 87.75 80 81.44Q86.75 75.13 87.63 66.13L87.63 66.13L99.13 66.25Q98.75 73 95.94 78.88Q93.13 84.75 88.63 89.13L88.63 89.13Z"/></svg>