<svg xmlns="http://www.w3.org/2000/svg" xmlns:xlink="http://www.w3.org/1999/xlink" width="128" height="128"><path fill="#ffffff" d="M64 1.63L64 1.63Q54.88 1.63 46.88 5L46.88 5Q38.88 8.50 32.88 14.50Q26.88 20.50 23.38 28.50L23.38 28.50Q19.88 36.63 19.88 45.75L19.88 45.75Q19.88 54.88 23.38 62.88L23.38 62.88Q26.88 70.88 32.88 76.88Q38.88 82.88 46.88 86.38L46.88 86.38Q54.88 89.75 64 89.75L64 89.75Q73.13 89.75 81.25 86.38L81.25 86.38Q89.25 82.88 95.25 76.88Q101.25 70.88 104.63 62.88L104.63 62.88Q108.13 54.88 108.13 45.75L108.13 45.75Q108.13 36.63 104.63 28.50L104.63 28.50Q101.25 20.50 95.25 14.50Q89.25 8.50 81.25 5L81.25 5Q73.13 1.63 64 1.63L64 1.63ZM73.88 16.75L73.88 16.75Q75.13 14.63 77.50 14Q79.88 13.38 82 14.63L82 14.63Q84.13 15.88 84.75 18.19Q85.38 20.50 84.13 22.63L84.13 22.63Q82.88 24.75 80.50 25.38Q78.13 26 76.13 24.88L76.13 24.88Q74 23.63 73.38 21.25Q72.75 18.88 73.88 16.75ZM64 20.13L64 20.13Q65.75 20.13 67.50 20.38Q69.25 20.63 70.88 21L70.88 21Q71.13 22.88 72.19 24.38Q73.25 25.88 74.88 26.88L74.88 26.88Q76.50 27.88 78.38 28Q80.25 28.13 82 27.50L82 27.50Q85.25 30.63 87.25 34.94Q89.25 39.25 89.50 44L89.50 44L81.13 44.13Q80.63 37.63 75.69 33.06Q70.75 28.50 64 28.50L64 28.50Q62.13 28.50 60.25 28.94Q58.38 29.38 56.75 30.13L56.75 30.13L52.63 22.75Q55.25 21.50 58.13 20.81Q61 20.13 64 20.13L64 20.13ZM34 51.63L34 51.63Q31.63 51.63 29.88 49.88Q28.13 48.13 28.13 45.75L28.13 45.75Q28.13 43.25 29.88 41.50Q31.63 39.75 34 39.75L34 39.75Q36.50 39.75 38.19 41.50Q39.88 43.25 39.88 45.75L39.88 45.75Q39.88 48.13 38.19 49.88Q36.50 51.63 34 51.63ZM39.25 52.13L39.25 52.13Q40.63 51 41.44 49.31Q42.25 47.63 42.25 45.75L42.25 45.75Q42.25 43.75 41.44 42.06Q40.63 40.38 39.25 39.25L39.25 39.25Q40.50 34.63 43.25 30.81Q46 27 49.88 24.38L49.88 24.38L54.13 31.63Q50.88 34 48.88 37.69Q46.88 41.38 46.88 45.75L46.88 45.75Q46.88 50.13 48.88 53.81Q50.88 57.50 54.13 59.75L54.13 59.75L49.88 67Q46 64.38 43.25 60.56Q40.50 56.75 39.25 52.13ZM82 76.75L82 76.75Q79.88 78 77.50 77.38Q75.13 76.75 73.88 74.63L73.88 74.63Q72.75 72.50 73.38 70.13Q74 67.75 76.13 66.63L76.13 66.63Q78.13 65.38 80.50 66Q82.88 66.63 84.13 68.75L84.13 68.75Q85.38 70.88 84.75 73.19Q84.13 75.50 82 76.75ZM82 64L82 64Q80.25 63.25 78.38 63.38Q76.50 63.50 74.88 64.50L74.88 64.50Q73.25 65.50 72.19 67.06Q71.13 68.63 70.88 70.38L70.88 70.38Q69.25 70.75 67.50 71Q65.75 71.25 64 71.25L64 71.25Q61 71.25 58.13 70.56Q55.25 69.88 52.63 68.63L52.63 68.63L56.75 61.25Q58.38 62.13 60.25 62.50Q62.13 62.88 64 62.88L64 62.88Q70.75 62.88 75.69 58.38Q80.63 53.88 81.13 47.25L81.13 47.25L89.50 47.38Q89.25 52.25 87.25 56.50Q85.25 60.75 82 64L82 64ZM16 121.63L16 121.63Q15.25 121.75 15.31 121.75Q15.38 121.75 15.13 121.75L15.13 121.75Q15 121.88 14.69 121.88Q14.38 121.88 14 121.88L14 121.88Q13.75 122 13.44 122Q13.13 122 12.75 122L12.75 122Q12.50 122 12.13 122.06Q11.75 122.13 11.50 122.13L11.50 122.13Q10 122.13 8.94 121.69Q7.88 121.25 7.25 120.38L7.25 120.38Q6.63 119.50 6.31 118.13Q6 116.75 6 114.75L6 114.75L6 104L3 104L3 115.63Q3 116.75 2.94 117.69Q2.88 118.63 3.13 119.63L3.13 119.63Q3.25 120.50 3.56 121.25Q3.88 122 4.38 122.63L4.38 122.63Q4.88 123.38 5.50 123.88Q6.13 124.38 7 124.75L7 124.75Q7.88 125.13 8.88 125.31Q9.88 125.50 11.13 125.50L11.13 125.50Q12.50 125.50 13.63 125.38Q14.75 125.25 15.88 125.13L15.88 125.13Q16.88 124.88 17.56 124.69Q18.25 124.50 19 124.38L19 124.38L19 104L16 104L16 121.63ZM41.38 106.25L41.38 106.25Q40.75 105.50 40 104.94Q39.25 104.38 38.38 103.88L38.38 103.88Q37.50 103.50 36.44 103.31Q35.38 103.13 34.25 103.13L34.25 103.13Q33.38 103.13 32.56 103.25Q31.75 103.38 31 103.63L31 103.63Q30.38 103.88 30.06 104.13Q29.75 104.38 29 104.50L29 104.50L29 93.13L25 93.75L25 124.38Q25 124.50 26.19 124.69Q27.38 124.88 28.38 125.13L28.38 125.13Q29.38 125.25 30.56 125.38Q31.75 125.50 33.13 125.50L33.13 125.50Q34.38 125.50 35.50 125.31Q36.63 125.13 37.63 124.75L37.63 124.75Q38.63 124.25 39.44 123.75Q40.25 123.25 41 122.50L41 122.50Q41.63 121.75 42.19 120.88Q42.75 120 43.13 119L43.13 119Q43.50 117.88 43.69 116.75Q43.88 115.63 43.88 114.25L43.88 114.25Q43.88 113 43.75 111.88Q43.63 110.75 43.25 109.75L43.25 109.75Q42.88 108.75 42.44 107.88Q42 107 41.38 106.25L41.38 106.25ZM38 120.13L38 120.13Q37.13 121.13 35.88 121.63Q34.63 122.13 33.13 122.13L33.13 122.13Q32.38 122.13 31.75 122.06Q31.13 122 30.50 122L30.50 122Q30 121.88 29.88 121.81Q29.75 121.75 29 121.63L29 121.63L29 108.13Q29.75 107.88 30 107.56Q30.25 107.25 31 107L31 107Q31.63 106.75 32.31 106.63Q33 106.50 33.75 106.50L33.75 106.50Q34.63 106.50 35.31 106.63Q36 106.75 36.63 107.13L36.63 107.13Q37.13 107.38 37.63 107.81Q38.13 108.25 38.50 108.75L38.50 108.75Q38.88 109.25 39.13 109.88Q39.38 110.50 39.63 111.25L39.63 111.25Q39.75 111.88 39.81 112.69Q39.88 113.50 39.88 114.25L39.88 114.25Q39.88 116.13 39.44 117.56Q39 119 38 120.13L38 120.13ZM61 121.63L61 121.63Q61 121.75 60.88 121.75Q60.75 121.75 60.50 121.75L60.50 121.75Q60.25 121.88 60.06 121.88Q59.88 121.88 59.63 121.88L59.63 121.88Q59.25 122 59 122Q58.75 122 58.38 122L58.38 122Q58.13 122 57.81 122.06Q57.50 122.13 57.13 122.13L57.13 122.13Q55.63 122.13 54.69 121.69Q53.75 121.25 53.13 120.38L53.13 120.38Q52.50 119.50 52.25 118.13Q52 116.75 52 114.75L52 114.75L52 104L48 104L48 115.63Q48 116.75 48.13 117.69Q48.25 118.63 48.38 119.63L48.38 119.63Q48.63 120.50 49 121.25Q49.38 122 49.88 122.63L49.88 122.63Q50.38 123.38 51.06 123.88Q51.75 124.38 52.63 124.75L52.63 124.75Q53.50 125.13 54.50 125.31Q55.50 125.50 56.75 125.50L56.75 125.50Q58.13 125.50 59.38 125.38Q60.63 125.25 61.63 125.13L61.63 125.13Q62.75 124.88 63.50 124.69Q64.25 124.50 65 124.38L65 124.38L65 104L61 104L61 121.63ZM86.25 105.88L86.25 105.88Q85.63 105.25 85 104.75Q84.38 104.25 83.50 103.88L83.50 103.88Q82.63 103.50 81.56 103.31Q80.50 103.13 79.25 103.13L79.25 103.13Q77.88 103.13 76.44 103.25Q75 103.38 73.88 103.50L73.88 103.50Q72.75 103.75 71.75 103.88Q70.75 104 70 104.25L70 104.25L70 124L74 124L74 106.88L75 106.75Q75.25 106.75 75.56 106.75Q75.88 106.75 76.13 106.63L76.13 106.63Q76.50 106.63 76.81 106.63Q77.13 106.63 77.50 106.50L77.50 106.50Q77.88 106.50 78.19 106.50Q78.50 106.50 78.75 106.50L78.75 106.50Q79.63 106.50 80.25 106.63Q80.88 106.75 81.38 106.88L81.38 106.88Q81.88 107.13 82.31 107.44Q82.75 107.75 83 108.13L83 108.13Q83.38 108.63 83.56 109.19Q83.75 109.75 83.88 110.38L83.88 110.38Q84 111.13 84 112Q84 112.88 84 113.75L84 113.75L84 124L88 124L88 113Q88 111.88 87.88 110.88Q87.75 109.88 87.63 109L87.63 109Q87.38 108.13 87.06 107.31Q86.75 106.50 86.25 105.88L86.25 105.88ZM103.63 121.63L103.63 121.63Q103.13 121.88 102.44 122Q101.75 122.13 100.75 122.13L100.75 122.13Q100.38 122.13 99.94 122.06Q99.50 122 99.13 121.88L99.13 121.88Q98.75 121.75 98.44 121.50Q98.13 121.25 97.88 121L97.88 121Q97.63 120.63 97.19 120.25Q96.75 119.88 96.63 119.38L96.63 119.38Q96.50 118.75 96.25 118.13Q96 117.50 96 116.63L96 116.63L96 107L105 107L105 104L96 104L96 97L93 97.63L93 116.75Q93 117.75 93.13 118.69Q93.25 119.63 93.38 120.50L93.38 120.50Q93.50 121.25 93.81 121.94Q94.13 122.63 94.63 123.25L94.63 123.25Q95 123.75 95.56 124.19Q96.13 124.63 96.88 124.88L96.88 124.88Q97.63 125.13 98.50 125.31Q99.38 125.50 100.50 125.50L100.50 125.50Q101.38 125.50 102.25 125.38Q103.13 125.25 103.75 125L103.75 125Q104.50 124.75 105 124.56Q105.50 124.38 105.88 124.25L105.88 124.25L105 121.13Q104.88 121.25 104.50 121.38Q104.13 121.50 103.63 121.63L103.63 121.63ZM122 104L122 104L122 121.63Q122 121.75 121.75 121.75Q121.50 121.75 121.25 121.75L121.25 121.75Q121.13 121.88 120.81 121.88Q120.50 121.88 120.25 121.88L120.25 121.88Q120 122 119.69 122Q119.38 122 119 122L119 122Q118.63 122 118.31 122.06Q118 122.13 117.75 122.13L117.75 122.13Q116.25 122.13 115.13 121.69Q114 121.25 113.38 120.38L113.38 120.38Q112.75 119.50 112.38 118.13Q112 116.75 112 114.75L112 114.75L112 104L109 104L109 115.63Q109 116.75 109 117.69Q109 118.63 109.25 119.63L109.25 119.63Q109.38 120.50 109.69 121.25Q110 122 110.50 122.63L110.50 122.63Q111.13 123.38 111.75 123.88Q112.38 124.38 113.25 124.75L113.25 124.75Q114 125.13 115.06 125.31Q116.13 125.50 117.38 125.50L117.38 125.50Q118.75 125.50 119.81 125.38Q120.88 125.25 121.88 125.13L121.88 125.13Q123 124.88 123.63 124.69Q124.25 124.50 125 124.38L125 124.38L125 104L122 104Z"/></svg>