<svg xmlns="http://www.w3.org/2000/svg" xmlns:xlink="http://www.w3.org/1999/xlink" width="128" height="128"><path fill="#000000" d="M72.63 80.50L72.63 80.50Q72.75 80.63 73 80.81Q73.25 81 73.50 81L73.50 81L78.75 81Q79 81 79.25 80.81Q79.50 80.63 79.75 80.50L79.75 80.50L81.13 79Q81.25 78.88 81.31 78.69Q81.38 78.50 81.38 78.38L81.38 78.38L82.88 73.25Q83 72.88 82.94 72.56Q82.88 72.25 82.63 72L82.63 72L81.50 71.13Q81.38 71 81.13 71Q80.88 71 80.63 71L80.63 71L75.75 71L75.50 70.75Q75.38 70.75 75.19 70.69Q75 70.63 74.88 70.75L74.88 70.75L73 72Q72.88 72 72.75 72.25Q72.63 72.50 72.63 72.75L72.63 72.75L71 77.63Q70.88 78 70.94 78.38Q71 78.75 71.25 79.13L71.25 79.13L72.63 80.50ZM73.38 106.88L73.38 106.88L73 107L71.75 107L79 85.88Q79.13 85.38 78.94 84.88Q78.75 84.38 78.25 84.25L78.25 84.25L77.75 84.13L65.75 84.13Q65.38 84.13 65.06 84.44Q64.75 84.75 64.75 85.13L64.75 85.13L64 87.63Q63.88 88.13 64.19 88.56Q64.50 89 65 89.13L65 89.13L65.25 89L67.13 89L59.75 109.88Q59.63 110.38 59.88 111Q60.13 111.63 60.63 111.75L60.63 111.75L61 112.13L72.25 112.13Q72.63 112.13 73 111.81Q73.38 111.50 73.50 111L73.50 111L74.25 108.63Q74.38 108.13 74.13 107.56Q73.88 107 73.38 106.88L73.38 106.88ZM126.50 87.25L126.50 87.25L124.63 84.75L124.63 84.63Q124.38 84.38 124.13 84.19Q123.88 84 123.63 84L123.63 84L116.38 84Q116.13 84 115.88 84.25Q115.63 84.50 115.38 84.63L115.38 84.63L113.38 87L110.25 87L108.25 84.63L108.25 84.50Q108 84.25 107.75 84.13Q107.50 84 107.25 84L107.25 84L103.25 84L123.38 63.75L100.75 41.38L121 20.63L121 11.63L118.25 8L77.25 8L74 11.50L74 14.38L62.75 3L55 10.50L52.63 8L12.25 8L9 11.75L9 21.13L12 24L15 24L15 50.13L1 64.13L15 78.13L15 110.13L20.25 113L31.75 113L40.88 103.50L62.50 125.13L77 110.63Q77.13 110.88 77.31 111Q77.50 111.13 77.88 111.25L77.88 111.25L78.25 111.13L87.75 111.13Q88.13 111.13 88.50 111Q88.88 110.88 88.88 110.50L88.88 110.50L89.63 108.50Q89.75 108 89.56 107.56Q89.38 107.13 88.75 107L88.75 107L88.38 107.13L88 107.13L91.38 96.38L93.75 94.13L98.75 94.13L93.75 110Q93.50 110.50 93.81 110.81Q94.13 111.13 94.63 111.38L94.63 111.38L95 111.25L104.13 111.25Q104.50 111.25 104.81 111.13Q105.13 111 105.25 110.63L105.25 110.63L106.13 108.75Q106.38 108.25 106.13 107.81Q105.88 107.38 105.38 107.25L105.38 107.25Q105.38 107.13 105.19 107.19Q105 107.25 104.88 107.25L104.88 107.25L104.50 107.25L108.75 94.25L114.75 94.25L109.75 110.13Q109.50 110.63 109.81 110.94Q110.13 111.25 110.63 111.38L110.63 111.38L111 111.13L121 111.13Q121.38 111.13 121.69 111Q122 110.88 122.25 110.50L122.25 110.50L123 108.50Q123.25 108 123 107.56Q122.75 107.13 122.25 107L122.25 107Q122.13 106.88 122 107Q121.88 107.13 121.75 107.13L121.75 107.13L121 107.13L126.63 88.63Q126.75 88.25 126.69 87.81Q126.63 87.38 126.50 87.25L126.50 87.25ZM62.75 4.88L62.75 4.88L74 16.25L74 20.88L77.38 25L79 25L50 53L50 25L53.25 25L56 20.75L56 11.88L55.75 11.63L62.75 4.88ZM2.88 64.13L2.88 64.13L15 52L15 76.25L2.88 64.13ZM41.75 102.38L41.75 102.38L100.25 42.38L121.63 63.88L101.38 84.13L101.25 84.13Q101.13 84.13 100.94 84.31Q100.75 84.50 100.63 84.63L100.63 84.63L98.50 87L95.63 87L93.38 84.63Q93.25 84.38 93 84.19Q92.75 84 92.38 84L92.38 84L83.63 84Q83.13 84 82.81 84.25Q82.50 84.50 82.25 85L82.25 85L81.50 87.50Q81.38 88 81.56 88.44Q81.75 88.88 82.25 89.13L82.25 89.13L83.75 89.13L77.38 108L62.25 123.25L41.75 102.38Z"/></svg>