<svg xmlns="http://www.w3.org/2000/svg" xmlns:xlink="http://www.w3.org/1999/xlink" width="128" height="128"><path fill="#000000" d="M59.75 95.25L59.75 95.25Q54.50 95 49.25 94.38L49.25 94.38Q44.13 93.63 39.25 92.50Q34.38 91.38 29.88 89.75L29.88 89.75Q25.38 88.13 21.50 86L21.50 86Q20.75 85.63 19.50 85Q18.25 84.38 18.25 84.25L18.25 84.25Q18.25 84.25 18.50 84.38Q18.75 84.50 19.13 84.63L19.13 84.63Q22.88 86.63 27.63 88.25Q32.38 89.88 37.25 91L37.25 91Q45 92.75 53.38 93.19Q61.75 93.63 70.13 92.75L70.13 92.75Q78 91.88 85.31 90Q92.63 88.13 98.88 85.13L98.88 85.13Q104.50 82.50 109 79.19Q113.50 75.88 116.50 72L116.50 72Q121.13 66.13 121.69 59.63Q122.25 53.13 118.75 47.13L118.75 47.13Q116.50 43.13 112.69 39.69Q108.88 36.25 103.63 33.38L103.63 33.38Q103.13 33.13 102.75 32.94Q102.38 32.75 102.38 32.75L102.38 32.75Q102.50 32.75 104.13 33.50Q105.75 34.25 106.38 34.63L106.38 34.63Q109.75 36.50 112.50 38.44Q115.25 40.38 117.63 42.75L117.63 42.75Q120.63 45.63 122.50 48.63Q124.38 51.63 125.25 54.88L125.25 54.88Q126.13 57.88 126 61.13Q125.88 64.38 124.75 67.38L124.75 67.38Q123.25 71.38 120.19 75.06Q117.13 78.75 112.63 82L112.63 82Q108.88 84.50 104.50 86.75L104.50 86.75Q100.13 88.88 95.13 90.50Q90.13 92.13 84.63 93.25L84.63 93.25Q79.13 94.38 73.25 94.88L73.25 94.88Q69.88 95.13 66.50 95.19Q63.13 95.25 59.75 95.25L59.75 95.25ZM95.50 76L95.50 76.88L95.38 76.88Q95.38 76.88 95.31 76.81Q95.25 76.75 95.25 76.75L95.25 76.75L95.25 76.75L95 76.75Q94.88 76.75 94.81 76.81Q94.75 76.88 94.63 76.88L94.63 76.88L94.75 76.88L94.38 76.88L94.38 78.75L93.50 78.75L93.50 76L94.38 76L94.38 76.38Q94.38 76.38 94.44 76.31Q94.50 76.25 94.50 76.25L94.50 76.25L94.50 76.25Q94.63 76.25 94.69 76.19Q94.75 76.13 94.75 76.13L94.75 76.13L94.75 76.13Q94.75 76.13 94.81 76.06Q94.88 76 95 76L95 76L95 76Q95 76 95.06 76Q95.13 76 95.25 76L95.25 76Q95.25 76 95.25 76Q95.25 76 95.25 76L95.25 76L95.38 76Q95.38 76 95.38 76Q95.38 76 95.50 76L95.50 76ZM92.13 78.88L92.13 78.88Q91.75 78.88 91.38 78.81Q91 78.75 90.88 78.50L90.88 78.50Q90.63 78.25 90.50 78Q90.38 77.75 90.38 77.38L90.38 77.38Q90.38 77.13 90.50 76.81Q90.63 76.50 90.75 76.38L90.75 76.38Q91 76.13 91.31 76Q91.63 75.88 92 75.88L92 75.88Q92.25 75.88 92.50 76Q92.75 76.13 93 76.25L93 76.25Q93.13 76.38 93.25 76.63Q93.38 76.88 93.38 77.25L93.38 77.25L93.38 77.63L91.25 77.63Q91.38 77.63 91.38 77.75Q91.38 77.88 91.38 77.88L91.38 77.88Q91.38 78 91.44 78Q91.50 78 91.63 78.13L91.63 78.13L91.63 78.13Q91.63 78.13 91.69 78.19Q91.75 78.25 91.88 78.25L91.88 78.25L91.88 78.25Q91.88 78.25 92 78.25Q92.13 78.25 92.13 78.25L92.13 78.25Q92.25 78.25 92.25 78.25Q92.25 78.25 92.25 78.25L92.25 78.25L92.25 78.25Q92.25 78.25 92.25 78.25Q92.25 78.25 92.25 78.25L92.25 78.25Q92.25 78.25 92.38 78.25Q92.50 78.25 92.50 78.25L92.50 78.25L92.50 78.25Q92.63 78.25 92.69 78.19Q92.75 78.13 92.75 78.13L92.75 78.13L92.75 78.13Q92.88 78.13 92.94 78.06Q93 78 93 78L93 78L93.13 77.88L93.25 77.88L93.25 78.63L93 78.75Q93 78.75 92.94 78.75Q92.88 78.75 92.75 78.75L92.75 78.75L92.75 78.75L92.50 78.88Q92.38 78.88 92.31 78.88Q92.25 78.88 92.13 78.88L92.13 78.88Q92.13 78.88 92.13 78.88Q92.13 78.88 92.13 78.88L92.13 78.88L92.13 78.88ZM91.25 77L92.38 77Q92.38 76.88 92.38 76.81Q92.38 76.75 92.25 76.63L92.25 76.63Q92.25 76.50 92.13 76.50Q92 76.50 91.88 76.50L91.88 76.50Q91.75 76.50 91.63 76.50Q91.50 76.50 91.50 76.63L91.50 76.63Q91.38 76.75 91.31 76.81Q91.25 76.88 91.25 77L91.25 77ZM89.63 76L90.63 76L89.13 79.88L88.13 79.88L88.50 78.75L87.50 76L88.50 76L89 77.75L89.63 76ZM86.63 78.13L86.63 78.13L86.63 77.50L86.25 77.50Q86.13 77.50 86.06 77.56Q86 77.63 85.88 77.63L85.88 77.63L85.88 77.63Q85.88 77.63 85.81 77.63Q85.75 77.63 85.75 77.75L85.75 77.75Q85.63 77.75 85.63 77.81Q85.63 77.88 85.63 77.88L85.63 77.88Q85.63 78 85.69 78.06Q85.75 78.13 85.75 78.25L85.75 78.25Q85.88 78.25 85.94 78.25Q86 78.25 86.13 78.25L86.13 78.25Q86.13 78.25 86.19 78.25Q86.25 78.25 86.38 78.25L86.38 78.25L86.38 78.25Q86.38 78.25 86.44 78.19Q86.50 78.13 86.63 78.13L86.63 78.13L86.63 78.13ZM86.63 78.75L86.63 78.50L86.38 78.63Q86.38 78.63 86.31 78.69Q86.25 78.75 86.25 78.75L86.25 78.75L86.25 78.75Q86.13 78.75 86.06 78.81Q86 78.88 86 78.88L86 78.88L86 78.88Q85.88 78.88 85.81 78.88Q85.75 78.88 85.63 78.88L85.63 78.88Q85.63 78.88 85.63 78.88Q85.63 78.88 85.63 78.88L85.63 78.88L85.63 78.88Q85.63 78.88 85.63 78.88Q85.63 78.88 85.63 78.88L85.63 78.88Q85.38 78.88 85.25 78.81Q85.13 78.75 85 78.63L85 78.63L85 78.63Q84.88 78.50 84.81 78.38Q84.75 78.25 84.75 78L84.75 78Q84.75 78 84.75 78Q84.75 78 84.75 78L84.75 78L84.75 78Q84.75 77.88 84.75 77.75Q84.75 77.63 84.88 77.50L84.88 77.50Q84.88 77.38 85 77.31Q85.13 77.25 85.25 77.25L85.25 77.25Q85.38 77.13 85.50 77.06Q85.63 77 85.88 77L85.88 77L86.63 77L86.63 77Q86.63 76.88 86.56 76.75Q86.50 76.63 86.38 76.63L86.38 76.63Q86.25 76.63 86.13 76.56Q86 76.50 85.88 76.50L85.88 76.50Q85.75 76.50 85.69 76.56Q85.63 76.63 85.50 76.63L85.50 76.63Q85.38 76.63 85.25 76.69Q85.13 76.75 85 76.75L85 76.75L85 76.75L85 76.75L85 76Q85 76 85.13 76Q85.25 76 85.38 76L85.38 76L85.38 76Q85.50 76 85.69 75.94Q85.88 75.88 86 75.88L86 75.88L86 75.88Q86.38 75.88 86.69 75.94Q87 76 87.13 76.13L87.13 76.13Q87.25 76.25 87.38 76.44Q87.50 76.63 87.50 76.88L87.50 76.88L87.50 78.75L86.63 78.75ZM84.88 78.13L84.88 78.75L82.25 78.75L82.25 75.13L83.25 75.13L83.25 78.13L84.88 78.13ZM79.63 78.13L79.63 78.13L79.63 77.50L79.25 77.50Q79.25 77.50 79.19 77.56Q79.13 77.63 79 77.63L79 77.63L79 77.63Q79 77.63 78.94 77.63Q78.88 77.63 78.88 77.75L78.88 77.75Q78.75 77.75 78.75 77.81Q78.75 77.88 78.75 77.88L78.75 77.88Q78.75 78 78.81 78.06Q78.88 78.13 78.88 78.25L78.88 78.25Q78.88 78.25 79 78.25Q79.13 78.25 79.25 78.25L79.25 78.25Q79.25 78.25 79.31 78.25Q79.38 78.25 79.50 78.25L79.50 78.25L79.50 78.25Q79.50 78.25 79.56 78.19Q79.63 78.13 79.63 78.13L79.63 78.13L79.63 78.13ZM79.63 78.75L79.63 78.50L79.50 78.63Q79.50 78.63 79.44 78.69Q79.38 78.75 79.38 78.75L79.38 78.75L79.25 78.75Q79.25 78.75 79.19 78.81Q79.13 78.88 79.13 78.88L79.13 78.88L79.13 78.88Q79 78.88 78.94 78.88Q78.88 78.88 78.75 78.88L78.75 78.88Q78.75 78.88 78.75 78.88Q78.75 78.88 78.75 78.88L78.75 78.88L78.75 78.88Q78.75 78.88 78.75 78.88Q78.75 78.88 78.75 78.88L78.75 78.88Q78.50 78.88 78.38 78.81Q78.25 78.75 78.13 78.63L78.13 78.63L78.13 78.63Q78 78.50 77.94 78.38Q77.88 78.25 77.88 78L77.88 78Q77.88 78 77.88 78Q77.88 78 77.88 78L77.88 78L77.88 78Q77.88 77.88 77.88 77.75Q77.88 77.63 78 77.50L78 77.50Q78 77.38 78.13 77.31Q78.25 77.25 78.38 77.25L78.38 77.25Q78.50 77.13 78.63 77.06Q78.75 77 78.88 77L78.88 77L79 77L79.63 77L79.63 77Q79.63 76.88 79.63 76.75Q79.63 76.63 79.50 76.63L79.50 76.63Q79.38 76.63 79.25 76.56Q79.13 76.50 79 76.50L79 76.50Q78.88 76.50 78.75 76.56Q78.63 76.63 78.63 76.63L78.63 76.63L78.63 76.63Q78.50 76.63 78.38 76.69Q78.25 76.75 78.13 76.75L78.13 76.75L78.13 76.75L78.13 76.75L78.13 76Q78.13 76 78.25 76Q78.38 76 78.50 76L78.50 76L78.50 76Q78.63 76 78.81 75.94Q79 75.88 79.13 75.88L79.13 75.88L79.13 75.88Q79.50 75.88 79.81 75.94Q80.13 76 80.25 76.13L80.25 76.13Q80.38 76.25 80.50 76.44Q80.63 76.63 80.63 76.88L80.63 76.88L80.63 78.75L79.63 78.75ZM77.63 76L77.63 78.75L76.75 78.75L76.75 76L77.63 76ZM77.75 74.88L77.75 75.63L76.75 75.63L76.75 74.88L77.75 74.88ZM76.38 74.88L76.38 78.75L75.50 78.75L75.50 78.50L75.25 78.63Q75.25 78.75 75.19 78.75Q75.13 78.75 75.13 78.75L75.13 78.75L75.13 78.75Q75 78.88 74.88 78.88Q74.75 78.88 74.63 78.88L74.63 78.88Q74.63 78.88 74.63 78.88Q74.63 78.88 74.63 78.88L74.63 78.88L74.63 78.88Q74.63 78.88 74.63 78.88Q74.63 78.88 74.50 78.88L74.50 78.88Q74.38 78.88 74.13 78.75Q73.88 78.63 73.75 78.50L73.75 78.50L73.75 78.50Q73.63 78.25 73.56 78Q73.50 77.75 73.50 77.38L73.50 77.38Q73.50 77.25 73.50 77.06Q73.50 76.88 73.63 76.75L73.63 76.75Q73.63 76.63 73.69 76.50Q73.75 76.38 73.88 76.38L73.88 76.38Q74 76.25 74.06 76.19Q74.13 76.13 74.25 76L74.25 76L74.25 76Q74.38 76 74.50 75.94Q74.63 75.88 74.75 75.88L74.75 75.88Q74.75 75.88 74.75 75.88Q74.75 75.88 74.75 75.88L74.75 75.88Q74.88 75.88 74.94 75.94Q75 76 75.13 76L75.13 76L75.13 76Q75.25 76 75.31 76.06Q75.38 76.13 75.50 76.13L75.50 76.13L75.50 74.88L76.38 74.88ZM75.50 78L75.50 78L75.50 76.63Q75.38 76.63 75.38 76.63Q75.38 76.63 75.25 76.63L75.25 76.63L75.25 76.63Q75.25 76.63 75.19 76.63Q75.13 76.63 75.13 76.63L75.13 76.63L75.13 76.63Q75 76.63 74.88 76.69Q74.75 76.75 74.63 76.75L74.63 76.75Q74.50 76.88 74.50 77.06Q74.50 77.25 74.50 77.38L74.50 77.38Q74.50 77.63 74.50 77.75Q74.50 77.88 74.63 78L74.63 78Q74.63 78.13 74.75 78.19Q74.88 78.25 75 78.25L75 78.25Q75.13 78.25 75.19 78.19Q75.25 78.13 75.25 78.13L75.25 78.13L75.25 78.13Q75.25 78.13 75.31 78.13Q75.38 78.13 75.50 78L75.50 78L75.50 78ZM72.38 78.88L72.38 78.88Q72 78.88 71.63 78.81Q71.25 78.75 71.13 78.50L71.13 78.50Q70.88 78.25 70.75 78Q70.63 77.75 70.63 77.38L70.63 77.38Q70.63 77.13 70.75 76.81Q70.88 76.50 71 76.38L71 76.38Q71.25 76.13 71.56 76Q71.88 75.88 72.25 75.88L72.25 75.88Q72.50 75.88 72.75 76Q73 76.13 73.25 76.25L73.25 76.25Q73.38 76.38 73.50 76.63Q73.63 76.88 73.63 77.25L73.63 77.25L73.63 77.63L71.50 77.63Q71.63 77.63 71.63 77.75Q71.63 77.88 71.63 77.88L71.63 77.88Q71.63 78 71.69 78Q71.75 78 71.88 78.13L71.88 78.13L71.88 78.13Q71.88 78.13 71.94 78.19Q72 78.25 72.13 78.25L72.13 78.25Q72.25 78.25 72.31 78.25Q72.38 78.25 72.50 78.25L72.50 78.25Q72.50 78.25 72.50 78.25Q72.50 78.25 72.50 78.25L72.50 78.25Q72.50 78.25 72.63 78.25Q72.75 78.25 72.75 78.25L72.75 78.25L72.75 78.25Q72.88 78.25 72.94 78.19Q73 78.13 73 78.13L73 78.13L73 78.13Q73.13 78.13 73.19 78.06Q73.25 78 73.25 78L73.25 78L73.38 77.88L73.50 77.88L73.50 78.63L73.25 78.75Q73.25 78.75 73.19 78.75Q73.13 78.75 73 78.75L73 78.75L73 78.75L72.75 78.88Q72.63 78.88 72.56 78.88Q72.50 78.88 72.38 78.88L72.38 78.88Q72.38 78.88 72.38 78.88Q72.38 78.88 72.38 78.88L72.38 78.88L72.38 78.88ZM71.50 77L72.63 77Q72.63 76.88 72.63 76.81Q72.63 76.75 72.50 76.63L72.50 76.63Q72.50 76.50 72.38 76.50Q72.25 76.50 72.13 76.50L72.13 76.50Q72 76.50 71.88 76.50Q71.75 76.50 71.75 76.63L71.75 76.63Q71.63 76.75 71.56 76.81Q71.50 76.88 71.50 77L71.50 77ZM70.50 78.75L69.63 78.75L69.63 77.38L69.50 77Q69.50 77 69.50 76.94Q69.50 76.88 69.50 76.88L69.50 76.88L69.50 76.88Q69.50 76.75 69.44 76.75Q69.38 76.75 69.38 76.75L69.38 76.75L69.38 76.75Q69.38 76.63 69.31 76.63Q69.25 76.63 69.13 76.63L69.13 76.63Q69.13 76.63 69.13 76.63Q69.13 76.63 69.13 76.63L69.13 76.63L69.13 76.63Q69.13 76.63 69.06 76.63Q69 76.63 69 76.75L69 76.75L69 76.75Q68.88 76.75 68.81 76.75Q68.75 76.75 68.75 76.88L68.75 76.88L68.75 76.88L68.75 78.75L67.75 78.75L67.75 77.38L67.75 77Q67.75 77 67.75 76.94Q67.75 76.88 67.75 76.88L67.75 76.88L67.75 76.88Q67.75 76.75 67.69 76.75Q67.63 76.75 67.63 76.75L67.63 76.75L67.63 76.75Q67.63 76.63 67.56 76.63Q67.50 76.63 67.38 76.63L67.38 76.63Q67.38 76.63 67.38 76.63Q67.38 76.63 67.38 76.63L67.38 76.63L67.38 76.63Q67.38 76.63 67.31 76.63Q67.25 76.63 67.13 76.75L67.13 76.75L67.13 76.75L67 76.88L67 78.75L66 78.75L66 76L67 76L67 76.25Q67.13 76.25 67.19 76.19Q67.25 76.13 67.38 76L67.38 76Q67.50 76 67.63 75.94Q67.75 75.88 67.88 75.88L67.88 75.88Q67.88 75.88 67.88 75.88Q67.88 75.88 67.88 75.88L67.88 75.88L67.88 75.88Q67.88 75.88 67.88 75.88Q67.88 75.88 67.88 75.88L67.88 75.88Q68 75.88 68.13 75.94Q68.25 76 68.38 76L68.38 76L68.38 76Q68.38 76.13 68.50 76.19Q68.63 76.25 68.63 76.38L68.63 76.38L68.63 76.38Q68.75 76.25 68.88 76.19Q69 76.13 69.13 76L69.13 76Q69.25 76 69.38 75.94Q69.50 75.88 69.63 75.88L69.63 75.88L69.63 75.88Q69.75 75.88 69.81 75.94Q69.88 76 70 76L70 76Q70 76 70.13 76.06Q70.25 76.13 70.25 76.13L70.25 76.13L70.25 76.13Q70.25 76.25 70.31 76.31Q70.38 76.38 70.38 76.50L70.38 76.50L70.38 76.50Q70.50 76.63 70.50 76.75Q70.50 76.88 70.50 77L70.50 77Q70.50 77 70.50 77Q70.50 77 70.50 77L70.50 77L70.50 77L70.50 78.75ZM65.25 78.88L65.25 78.88Q65 78.88 64.81 78.81Q64.63 78.75 64.50 78.63L64.50 78.63Q64.38 78.50 64.31 78.31Q64.25 78.13 64.25 77.88L64.25 77.88L64.25 76.63L63.88 76.63L63.88 76L64.25 76L64.25 75.25L65.13 75.25L65.13 76L66 76L66 76.63L65.13 76.63L65.13 77.88Q65.13 77.88 65.13 77.94Q65.13 78 65.13 78L65.13 78L65.13 78Q65.13 78.13 65.19 78.13Q65.25 78.13 65.25 78.25L65.25 78.25L65.25 78.25Q65.38 78.25 65.44 78.25Q65.50 78.25 65.50 78.25L65.50 78.25Q65.50 78.25 65.50 78.25Q65.50 78.25 65.63 78.25L65.63 78.25L65.63 78.25Q65.63 78.25 65.69 78.25Q65.75 78.25 65.75 78.25L65.75 78.25L65.75 78.25Q65.75 78.25 65.81 78.19Q65.88 78.13 65.88 78.13L65.88 78.13L65.88 78.13L66 78.13L66 78.75L65.63 78.88Q65.63 78.88 65.50 78.88Q65.38 78.88 65.25 78.88L65.25 78.88Q65.25 78.88 65.25 78.88Q65.25 78.88 65.25 78.88L65.25 78.88L65.25 78.88ZM63.13 78.88L63.13 78.88Q63.13 78.88 63.13 78.88Q63.13 78.88 63.13 78.88L63.13 78.88Q62.88 78.88 62.69 78.88Q62.50 78.88 62.38 78.75L62.38 78.75L62.38 78.75Q62.25 78.75 62.13 78.69Q62 78.63 61.88 78.50L61.88 78.50L61.88 78.50Q61.75 78.38 61.69 78.31Q61.63 78.25 61.50 78.13L61.50 78.13L61.50 78.13Q61.50 77.88 61.44 77.75Q61.38 77.63 61.38 77.50L61.38 77.50Q61.38 77.50 61.38 77.44Q61.38 77.38 61.38 77.38L61.38 77.38L61.38 77.38Q61.38 77.25 61.44 77.06Q61.50 76.88 61.63 76.75L61.63 76.75Q61.63 76.63 61.69 76.50Q61.75 76.38 61.88 76.25L61.88 76.25L61.88 76.25Q62 76.13 62.13 76.06Q62.25 76 62.38 76L62.38 76L62.50 76Q62.63 76 62.75 75.94Q62.88 75.88 63 75.88L63 75.88L63 75.88Q63.13 75.88 63.13 75.88Q63.13 75.88 63.13 75.88L63.13 75.88Q63.38 75.88 63.63 75.94Q63.88 76 64 76.13L64 76.13L64 76.13L64 76.88L63.88 76.88Q63.88 76.88 63.88 76.88Q63.88 76.88 63.75 76.75L63.75 76.75L63.75 76.75Q63.75 76.75 63.69 76.75Q63.63 76.75 63.63 76.63L63.63 76.63Q63.50 76.63 63.50 76.63Q63.50 76.63 63.38 76.63L63.38 76.63Q63.38 76.63 63.31 76.56Q63.25 76.50 63.13 76.50L63.13 76.50Q63.13 76.50 63.13 76.50Q63.13 76.50 63.13 76.50L63.13 76.50L63.13 76.50Q62.88 76.50 62.75 76.56Q62.63 76.63 62.63 76.75L62.63 76.75Q62.50 76.88 62.44 77.06Q62.38 77.25 62.38 77.38L62.38 77.38Q62.38 77.63 62.44 77.81Q62.50 78 62.63 78L62.63 78Q62.63 78.13 62.81 78.19Q63 78.25 63.13 78.25L63.13 78.25Q63.13 78.25 63.13 78.25Q63.13 78.25 63.13 78.25L63.13 78.25Q63.25 78.25 63.31 78.25Q63.38 78.25 63.38 78.25L63.38 78.25L63.38 78.25Q63.50 78.25 63.56 78.19Q63.63 78.13 63.63 78.13L63.63 78.13Q63.75 78.13 63.75 78.06Q63.75 78 63.75 78L63.75 78L63.88 77.88L64 77.88L64 78.63L63.88 78.75Q63.88 78.75 63.81 78.75Q63.75 78.75 63.63 78.75L63.63 78.75L63.63 78.75L63.38 78.88Q63.38 78.88 63.25 78.88Q63.13 78.88 63.13 78.88L63.13 78.88Q63.13 78.88 63.13 78.88Q63.13 78.88 63.13 78.88L63.13 78.88L63.13 78.88ZM60.25 78.88L60.25 78.88Q59.88 78.88 59.56 78.81Q59.25 78.75 59 78.50L59 78.50Q58.75 78.25 58.69 78Q58.63 77.75 58.63 77.38L58.63 77.38Q58.63 77.13 58.69 76.81Q58.75 76.50 59 76.38L59 76.38Q59.25 76.13 59.50 76Q59.75 75.88 60.13 75.88L60.13 75.88Q60.50 75.88 60.75 76Q61 76.13 61.13 76.25L61.13 76.25Q61.38 76.50 61.44 76.69Q61.50 76.88 61.50 77.25L61.50 77.25L61.50 77.63L59.50 77.63Q59.50 77.63 59.50 77.75Q59.50 77.88 59.63 77.88L59.63 77.88Q59.63 78 59.69 78.06Q59.75 78.13 59.75 78.13L59.75 78.13L59.75 78.13Q59.88 78.13 59.94 78.19Q60 78.25 60 78.25L60 78.25Q60.13 78.25 60.19 78.25Q60.25 78.25 60.38 78.25L60.38 78.25Q60.38 78.25 60.38 78.25Q60.38 78.25 60.38 78.25L60.38 78.25L60.38 78.25Q60.38 78.25 60.38 78.25Q60.38 78.25 60.38 78.25L60.38 78.25Q60.50 78.25 60.56 78.25Q60.63 78.25 60.75 78.25L60.75 78.25L60.75 78.25Q60.75 78.25 60.81 78.19Q60.88 78.13 61 78.13L61 78.13L61.25 78L61.38 77.88L61.50 77.88L61.50 78.63L61.25 78.75Q61.25 78.75 61.19 78.75Q61.13 78.75 61 78.75L61 78.75L61 78.75Q60.88 78.88 60.81 78.88Q60.75 78.88 60.75 78.88L60.75 78.88L60.63 78.88Q60.63 78.88 60.50 78.88Q60.38 78.88 60.38 78.88L60.38 78.88Q60.38 78.88 60.31 78.88Q60.25 78.88 60.25 78.88L60.25 78.88L60.25 78.88ZM59.50 77L60.63 77Q60.63 76.88 60.56 76.81Q60.50 76.75 60.50 76.63L60.50 76.63Q60.38 76.50 60.31 76.50Q60.25 76.50 60.13 76.50L60.13 76.50Q60 76.50 59.88 76.50Q59.75 76.50 59.63 76.63L59.63 76.63Q59.63 76.75 59.56 76.81Q59.50 76.88 59.50 77L59.50 77L59.50 77ZM58.75 76L58.75 76.88L58.63 76.88Q58.63 76.88 58.63 76.81Q58.63 76.75 58.50 76.75L58.50 76.75L58.50 76.75L58.25 76.75Q58.25 76.75 58.25 76.75Q58.25 76.75 58.25 76.75L58.25 76.75Q58.25 76.75 58.19 76.81Q58.13 76.88 58 76.88L58 76.88L58 76.88Q57.88 76.88 57.81 76.88Q57.75 76.88 57.75 76.88L57.75 76.88L57.75 78.75L56.75 78.75L56.75 76L57.75 76L57.75 76.38Q57.75 76.38 57.81 76.31Q57.88 76.25 57.88 76.25L57.88 76.25L57.88 76.25Q57.88 76.25 57.94 76.19Q58 76.13 58.13 76.13L58.13 76.13L58.13 76.13Q58.13 76.13 58.19 76.06Q58.25 76 58.25 76L58.25 76Q58.38 76 58.44 76Q58.50 76 58.50 76L58.50 76L58.50 76L58.63 76Q58.63 76 58.69 76Q58.75 76 58.75 76L58.75 76L58.75 76ZM56.38 76L56.38 78.75L55.50 78.75L55.50 76L56.38 76ZM56.38 74.88L56.38 75.63L55.50 75.63L55.50 74.88L56.38 74.88ZM55.25 77L55.25 77Q55.25 77 55.25 77Q55.25 77 55.25 77L55.25 77Q55.25 77.25 55.19 77.50Q55.13 77.75 55 77.88L55 77.88L55 77.88Q54.88 78.13 54.75 78.25Q54.63 78.38 54.50 78.50L54.50 78.50L54.50 78.50Q54.25 78.63 54.13 78.69Q54 78.75 53.75 78.75L53.75 78.75Q53.63 78.75 53.44 78.75Q53.25 78.75 53 78.75L53 78.75Q53 78.75 53 78.75Q53 78.75 53 78.75L53 78.75L51.75 78.75L51.75 75.13L53 75.13Q53 75.13 53 75.13Q53 75.13 53 75.13L53 75.13Q53.25 75.13 53.44 75.13Q53.63 75.13 53.75 75.13L53.75 75.13L53.75 75.13Q54 75.13 54.13 75.19Q54.25 75.25 54.50 75.38L54.50 75.38L54.50 75.38Q54.63 75.50 54.81 75.69Q55 75.88 55 76L55 76L55 76Q55.13 76.25 55.19 76.44Q55.25 76.63 55.25 77L55.25 77ZM54.25 77L54.25 77Q54.25 76.75 54.25 76.63Q54.25 76.50 54.13 76.38L54.13 76.38Q54.13 76.13 54 76.06Q53.88 76 53.75 75.88L53.75 75.88L53.75 75.88Q53.63 75.88 53.50 75.81Q53.38 75.75 53.38 75.75L53.38 75.75L53.38 75.75L52.75 75.75L52.75 78.13L52.75 78.13L53.38 78.13Q53.50 78.13 53.63 78.06Q53.75 78 53.75 78L53.75 78L53.75 78Q53.88 77.88 54 77.81Q54.13 77.75 54.13 77.63L54.13 77.63L54.13 77.63Q54.25 77.50 54.25 77.31Q54.25 77.13 54.25 77L54.25 77Q54.25 77 54.25 77Q54.25 77 54.25 77L54.25 77L54.25 77ZM49.13 78.88L49.13 78.88Q48.75 78.88 48.44 78.81Q48.13 78.75 47.88 78.50L47.88 78.50Q47.63 78.25 47.50 78Q47.38 77.75 47.38 77.38L47.38 77.38Q47.38 77.13 47.50 76.81Q47.63 76.50 47.88 76.38L47.88 76.38Q48 76.13 48.31 76Q48.63 75.88 49 75.88L49 75.88Q49.38 75.88 49.63 76Q49.88 76.13 50 76.25L50 76.25Q50.13 76.50 50.25 76.69Q50.38 76.88 50.38 77.25L50.38 77.25L50.38 77.63L48.38 77.63Q48.38 77.63 48.38 77.75Q48.38 77.88 48.38 77.88L48.38 77.88Q48.50 78 48.50 78.06Q48.50 78.13 48.63 78.13L48.63 78.13L48.63 78.13Q48.63 78.13 48.75 78.19Q48.88 78.25 48.88 78.25L48.88 78.25L48.88 78.25Q49 78.25 49.06 78.25Q49.13 78.25 49.25 78.25L49.25 78.25Q49.25 78.25 49.25 78.25Q49.25 78.25 49.25 78.25L49.25 78.25L49.25 78.25Q49.25 78.25 49.25 78.25Q49.25 78.25 49.25 78.25L49.25 78.25Q49.38 78.25 49.44 78.25Q49.50 78.25 49.50 78.25L49.50 78.25L49.50 78.25Q49.63 78.25 49.69 78.19Q49.75 78.13 49.88 78.13L49.88 78.13Q49.88 78.13 49.94 78.06Q50 78 50 78L50 78L50 78L50.25 77.88L50.25 77.88L50.25 78.63L50.13 78.75Q50 78.75 49.94 78.75Q49.88 78.75 49.88 78.75L49.88 78.75L49.88 78.75L49.50 78.88Q49.50 78.88 49.38 78.88Q49.25 78.88 49.25 78.88L49.25 78.88Q49.13 78.88 49.13 78.88Q49.13 78.88 49.13 78.88L49.13 78.88L49.13 78.88ZM48.38 77L49.50 77Q49.50 76.88 49.44 76.81Q49.38 76.75 49.25 76.63L49.25 76.63Q49.25 76.50 49.13 76.50Q49 76.50 48.88 76.50L48.88 76.50Q48.75 76.50 48.69 76.50Q48.63 76.50 48.50 76.63L48.50 76.63Q48.38 76.75 48.38 76.81Q48.38 76.88 48.38 77L48.38 77ZM47.25 74.88L47.25 78.75L46.38 78.75L46.38 74.88L47.25 74.88ZM46.13 77.38L46.13 77.38Q46.13 77.75 46.06 78Q46 78.25 45.75 78.50L45.75 78.50Q45.63 78.63 45.44 78.75Q45.25 78.88 44.88 78.88L44.88 78.88Q44.88 78.88 44.75 78.88Q44.63 78.88 44.50 78.88L44.50 78.88Q44.50 78.75 44.38 78.75Q44.25 78.75 44.25 78.63L44.25 78.63L44.25 78.63L44.25 79.88L43.25 79.88L43.25 76L44.25 76L44.25 76.25Q44.25 76.25 44.38 76.19Q44.50 76.13 44.63 76L44.63 76L44.63 76Q44.75 76 44.88 75.94Q45 75.88 45.13 75.88L45.13 75.88Q45.13 75.88 45.13 75.88Q45.13 75.88 45.13 75.88L45.13 75.88L45.13 75.88Q45.38 75.88 45.56 76Q45.75 76.13 45.88 76.38L45.88 76.38Q46 76.50 46.06 76.75Q46.13 77 46.13 77.38ZM45.25 77.38L45.25 77.38Q45.25 77.13 45.19 77Q45.13 76.88 45.13 76.75L45.13 76.75Q45 76.75 44.94 76.69Q44.88 76.63 44.63 76.63L44.63 76.63Q44.63 76.63 44.56 76.63Q44.50 76.63 44.38 76.63L44.38 76.63L44.50 76.63Q44.38 76.63 44.31 76.69Q44.25 76.75 44.25 76.75L44.25 76.75L44.25 78.13Q44.25 78.13 44.31 78.19Q44.38 78.25 44.38 78.25L44.38 78.25Q44.38 78.25 44.44 78.25Q44.50 78.25 44.63 78.25L44.63 78.25Q44.75 78.25 44.88 78.19Q45 78.13 45.13 78L45.13 78Q45.13 77.88 45.19 77.75Q45.25 77.63 45.25 77.38L45.25 77.38ZM42.88 78.75L42 78.75L42 77.38L42 77Q42 77 42 76.94Q42 76.88 42 76.88L42 76.88Q41.88 76.75 41.88 76.75Q41.88 76.75 41.88 76.75L41.88 76.75Q41.75 76.63 41.69 76.63Q41.63 76.63 41.63 76.63L41.63 76.63Q41.63 76.63 41.63 76.63Q41.63 76.63 41.63 76.63L41.63 76.63L41.63 76.63Q41.50 76.63 41.44 76.63Q41.38 76.63 41.38 76.75L41.38 76.75L41.38 76.75Q41.38 76.75 41.31 76.75Q41.25 76.75 41.13 76.88L41.13 76.88L41.13 76.88L41.13 78.75L40.25 78.75L40.25 77.38L40.25 77Q40.25 77 40.25 76.94Q40.25 76.88 40.13 76.88L40.13 76.88L40.13 76.88Q40.13 76.75 40.13 76.75Q40.13 76.75 40.13 76.75L40.13 76.75L40.13 76.75Q40 76.63 39.94 76.63Q39.88 76.63 39.88 76.63L39.88 76.63Q39.88 76.63 39.88 76.63Q39.88 76.63 39.88 76.63L39.88 76.63L39.88 76.63Q39.75 76.63 39.69 76.63Q39.63 76.63 39.63 76.75L39.63 76.75L39.63 76.75Q39.50 76.75 39.50 76.75Q39.50 76.75 39.38 76.88L39.38 76.88L39.38 76.88L39.38 78.75L38.50 78.75L38.50 76L39.38 76L39.38 76.38Q39.50 76.25 39.63 76.19Q39.75 76.13 39.88 76L39.88 76Q39.88 76 40 75.94Q40.13 75.88 40.25 75.88L40.25 75.88Q40.25 75.88 40.25 75.88Q40.25 75.88 40.25 75.88L40.25 75.88L40.25 75.88Q40.38 75.88 40.50 75.94Q40.63 76 40.75 76L40.75 76Q40.88 76.13 40.94 76.19Q41 76.25 41.13 76.38L41.13 76.38Q41.13 76.38 41.25 76.25Q41.38 76.13 41.50 76L41.50 76L41.63 76Q41.63 76 41.75 75.94Q41.88 75.88 42 75.88L42 75.88L42 75.88Q42 75.88 42 75.88Q42 75.88 42 75.88L42 75.88Q42.13 75.88 42.25 75.94Q42.38 76 42.38 76L42.38 76L42.38 76Q42.50 76 42.56 76.06Q42.63 76.13 42.63 76.13L42.63 76.13L42.63 76.13Q42.75 76.25 42.81 76.31Q42.88 76.38 42.88 76.50L42.88 76.50L42.88 76.50Q42.88 76.63 42.88 76.75Q42.88 76.88 42.88 77L42.88 77L42.88 78.75ZM38.13 76L38.13 78.75L37.25 78.75L37.25 76L38.13 76ZM38.13 74.88L38.13 75.63L37.13 75.63L37.13 74.88L38.13 74.88ZM35.38 78.88L35.38 78.88Q35.13 78.88 34.94 78.88Q34.75 78.88 34.63 78.75L34.63 78.75Q34.38 78.75 34.25 78.69Q34.13 78.63 34 78.63L34 78.63L34 77.75L34 77.75Q34.25 77.88 34.38 77.94Q34.50 78 34.75 78.13L34.75 78.13Q34.88 78.13 35.06 78.19Q35.25 78.25 35.38 78.25L35.38 78.25L35.38 78.25Q35.38 78.25 35.44 78.19Q35.50 78.13 35.63 78.13L35.63 78.13Q35.63 78.13 35.69 78.13Q35.75 78.13 35.88 78.13L35.88 78.13L35.88 78.13Q35.88 78.13 35.94 78.06Q36 78 36 78L36 78L36 78Q36 78 36.06 77.94Q36.13 77.88 36.13 77.88L36.13 77.88Q36.13 77.88 36.13 77.81Q36.13 77.75 36.13 77.75L36.13 77.75L36.13 77.75Q36.13 77.75 36.13 77.75Q36.13 77.75 36.13 77.75L36.13 77.75Q36.13 77.75 36.06 77.69Q36 77.63 36 77.63L36 77.63L36 77.63Q35.88 77.50 35.81 77.50Q35.75 77.50 35.63 77.50L35.63 77.50L35.63 77.50L35.25 77.38Q35.13 77.38 35 77.31Q34.88 77.25 34.75 77.25L34.75 77.25L34.88 77.25Q34.63 77.13 34.44 77.06Q34.25 77 34.13 76.88L34.13 76.88Q34.13 76.75 34.06 76.56Q34 76.38 34 76.25L34 76.25Q34 75.88 34.13 75.69Q34.25 75.50 34.50 75.38L34.50 75.38Q34.63 75.13 34.94 75.06Q35.25 75 35.63 75L35.63 75Q35.63 75 35.63 75Q35.63 75 35.63 75L35.63 75Q35.75 75 35.94 75.06Q36.13 75.13 36.38 75.13L36.38 75.13L36.25 75.13Q36.50 75.13 36.63 75.19Q36.75 75.25 36.88 75.25L36.88 75.25L36.88 76.13L36.88 76.13Q36.75 76 36.63 75.94Q36.50 75.88 36.25 75.88L36.25 75.88L36.25 75.88Q36.13 75.75 36 75.75Q35.88 75.75 35.63 75.75L35.63 75.75L35.63 75.75Q35.63 75.75 35.63 75.75Q35.63 75.75 35.63 75.75L35.63 75.75Q35.63 75.75 35.56 75.75Q35.50 75.75 35.38 75.75L35.38 75.75L35.38 75.75Q35.38 75.75 35.31 75.75Q35.25 75.75 35.25 75.75L35.25 75.75L35.25 75.75Q35.13 75.75 35.13 75.81Q35.13 75.88 35 75.88L35 75.88L35 75.88Q35 76 35 76Q35 76 35 76.13L35 76.13Q35 76.13 35 76.13Q35 76.13 35 76.13L35 76.13L35 76.13Q35 76.13 35 76.19Q35 76.25 35.13 76.25L35.13 76.25Q35.13 76.38 35.25 76.38Q35.38 76.38 35.50 76.50L35.50 76.50L35.88 76.50Q36 76.63 36.13 76.63Q36.25 76.63 36.25 76.63L36.25 76.63L36.25 76.63Q36.50 76.75 36.63 76.81Q36.75 76.88 36.88 77L36.88 77Q37 77.13 37.06 77.31Q37.13 77.50 37.13 77.63L37.13 77.63Q37.13 77.88 37 78.13Q36.88 78.38 36.63 78.50L36.63 78.50Q36.38 78.75 36.06 78.81Q35.75 78.88 35.38 78.88L35.38 78.88ZM95.13 65.75L95.13 72.63L69.88 72.63L69.88 36.63L79.38 36.63L79.38 65.75L95.13 65.75ZM67.50 54.63L67.50 54.63Q67.50 57.13 66.88 59.38Q66.25 61.63 65.13 63.63L65.13 63.63Q64 65.63 62.56 67.13Q61.13 68.63 59.38 69.75L59.38 69.75Q58 70.63 56.38 71.19Q54.75 71.75 53 72L53 72L52.88 72Q51.25 72.25 49.38 72.38Q47.50 72.50 45.63 72.50L45.63 72.50L33.75 72.50L33.75 36.63L45.50 36.63Q47.50 36.63 49.31 36.75Q51.13 36.88 52.88 37.13L52.88 37.13Q54.75 37.38 56.38 38Q58 38.63 59.50 39.50L59.50 39.50L59.38 39.50Q61.25 40.63 62.75 42.13Q64.25 43.63 65.25 45.50L65.25 45.50L65.25 45.63Q66.38 47.50 66.94 49.75Q67.50 52 67.50 54.63L67.50 54.63ZM57.75 54.63L57.75 54.63Q57.75 52.75 57.44 51.25Q57.13 49.75 56.50 48.50L56.50 48.50Q55.75 47.25 54.81 46.25Q53.88 45.25 52.50 44.50L52.50 44.50Q51.63 44.13 50.63 43.81Q49.63 43.50 48.50 43.50L48.50 43.50L48.50 43.50L43.25 43.38L43.25 65.88L43.38 65.88L48.75 65.75Q49.88 65.63 50.94 65.31Q52 65 53 64.38L53 64.38Q54.13 63.75 55 62.75Q55.88 61.75 56.50 60.63L56.50 60.63Q57.13 59.38 57.44 57.88Q57.75 56.38 57.75 54.63L57.75 54.63ZM15.63 73.25L15.63 73.25Q13.50 73.25 11.63 73Q9.75 72.75 8.13 72.38L8.13 72.38Q6.38 72 4.88 71.50Q3.38 71 2 70.38L2 70.38L2 61.88L2.88 61.88Q4.25 63 5.81 63.88Q7.38 64.75 9.13 65.38L9.13 65.38Q10.75 66 12.44 66.31Q14.13 66.63 15.75 66.63L15.75 66.63Q16.13 66.63 16.69 66.56Q17.25 66.50 17.88 66.50L17.88 66.50Q18.50 66.38 19.06 66.25Q19.63 66.13 20 66L20 66Q20.50 65.75 20.94 65.44Q21.38 65.13 21.63 64.75L21.63 64.75L21.75 64.75Q22 64.38 22.19 63.94Q22.38 63.50 22.38 62.88L22.38 62.88Q22.38 62.13 22.13 61.63Q21.88 61.13 21.25 60.63L21.25 60.63Q20.75 60.25 20.06 59.94Q19.38 59.63 18.63 59.38L18.63 59.38L14.50 58.50Q13.25 58.25 12.19 58Q11.13 57.75 10.13 57.38L10.13 57.38L10.38 57.50Q8.25 56.75 6.63 55.75Q5 54.75 4.13 53.50L4.13 53.50Q3.13 52.25 2.69 50.69Q2.25 49.13 2.25 47.25L2.25 47.25Q2.25 44.75 3.38 42.69Q4.50 40.63 6.75 39.13L6.75 39.13Q8.88 37.50 11.69 36.75Q14.50 36 17.88 36L17.88 36Q19.63 36 21.38 36.19Q23.13 36.38 24.75 36.63L24.75 36.63L24.63 36.63Q26.25 37 27.75 37.44Q29.25 37.88 30.50 38.38L30.50 38.38L30.50 46.63L29.75 46.63Q28.63 45.75 27.38 45Q26.13 44.25 24.63 43.75L24.63 43.75Q23.13 43.13 21.56 42.81Q20 42.50 18.38 42.50L18.38 42.50Q18.38 42.50 18.31 42.50Q18.25 42.50 18.25 42.50L18.25 42.50Q17.75 42.50 17.19 42.56Q16.63 42.63 16.13 42.75L16.13 42.75L16.13 42.75Q15.50 42.75 15 42.94Q14.50 43.13 14 43.38L14 43.38L14 43.38Q13.63 43.50 13.25 43.81Q12.88 44.13 12.50 44.50L12.50 44.50L12.50 44.50Q12.25 44.88 12.06 45.31Q11.88 45.75 11.88 46.25L11.88 46.25Q11.88 46.88 12.13 47.44Q12.38 48 12.88 48.38L12.88 48.38Q13.38 48.75 14.38 49.13Q15.38 49.50 16.88 49.88L16.88 49.88L20.50 50.63Q21.38 50.88 22.31 51.13Q23.25 51.38 24.25 51.75L24.25 51.75Q26.25 52.38 27.69 53.25Q29.13 54.13 30.13 55.38L30.13 55.38Q31.13 56.50 31.56 58Q32 59.50 32 61.38L32 61.38Q32 64 30.94 66.19Q29.88 68.38 27.63 70L27.63 70Q25.38 71.63 22.44 72.44Q19.50 73.25 15.63 73.25L15.63 73.25ZM31.13 89.13L31.13 89.13Q31 89.13 30.88 89.25Q30.75 89.38 30.75 89.50L30.75 89.50Q30.75 89.63 30.88 89.75Q31 89.88 31.13 89.88L31.13 89.88Q31.38 89.88 31.50 89.75Q31.63 89.63 31.63 89.50L31.63 89.50Q31.63 89.38 31.50 89.25Q31.38 89.13 31.13 89.13ZM49.25 92.38L49.25 92.38Q49 92.38 48.81 92.56Q48.63 92.75 48.63 93L48.63 93Q48.63 93.25 48.81 93.38Q49 93.50 49.25 93.50L49.25 93.50Q49.50 93.50 49.69 93.38Q49.88 93.25 49.88 93L49.88 93Q49.88 92.75 49.69 92.56Q49.50 92.38 49.25 92.38ZM39.88 91.13L39.88 91.13Q39.63 91.13 39.50 91.25Q39.38 91.38 39.38 91.63L39.38 91.63Q39.38 91.88 39.50 92Q39.63 92.13 39.88 92.13L39.88 92.13Q40.13 92.13 40.25 91.94Q40.38 91.75 40.38 91.63L40.38 91.63Q40.38 91.38 40.25 91.25Q40.13 91.13 39.88 91.13ZM59.50 92.75L59.50 92.75Q59.25 92.75 59 93Q58.75 93.25 58.75 93.50L58.75 93.50Q58.75 93.75 59 94Q59.25 94.25 59.50 94.25L59.50 94.25Q59.88 94.25 60.13 94Q60.38 93.75 60.38 93.50L60.38 93.50Q60.38 93.25 60.13 93Q59.88 92.75 59.50 92.75ZM70.13 92.25L70.13 92.25Q69.75 92.25 69.44 92.50Q69.13 92.75 69.13 93.13L69.13 93.13Q69.13 93.50 69.44 93.75Q69.75 94 70.13 94L70.13 94Q70.63 94 70.94 93.75Q71.25 93.50 71.25 93.13L71.25 93.13Q71.25 92.75 70.94 92.50Q70.63 92.25 70.13 92.25ZM80.88 90.38L80.88 90.38Q80.25 90.38 79.88 90.69Q79.50 91 79.50 91.50L79.50 91.50Q79.50 92 79.88 92.31Q80.25 92.63 80.88 92.63L80.88 92.63Q81.38 92.63 81.75 92.31Q82.13 92 82.13 91.50L82.13 91.50Q82.13 91 81.75 90.69Q81.38 90.38 80.88 90.38ZM91.50 87L91.50 87Q90.88 87 90.38 87.44Q89.88 87.88 89.88 88.50L89.88 88.50Q89.88 89 90.38 89.44Q90.88 89.88 91.50 89.88L91.50 89.88Q92.13 89.88 92.63 89.44Q93.13 89 93.13 88.50L93.13 88.50Q93.13 87.88 92.63 87.44Q92.13 87 91.50 87ZM101.75 82.63L101.75 82.63Q101 82.63 100.44 83.06Q99.88 83.50 99.88 84.13L99.88 84.13Q99.88 84.88 100.44 85.31Q101 85.75 101.75 85.75L101.75 85.75Q102.38 85.75 102.94 85.31Q103.50 84.88 103.50 84.13L103.50 84.13Q103.50 83.50 102.94 83.06Q102.38 82.63 101.75 82.63ZM111 76.25L111 76.25Q110.13 76.25 109.56 76.75Q109 77.25 109 78L109 78Q109 78.63 109.56 79.19Q110.13 79.75 111 79.75L111 79.75Q111.88 79.75 112.44 79.19Q113 78.63 113 78L113 78Q113 77.25 112.44 76.75Q111.88 76.25 111 76.25ZM118.63 67.25L118.63 67.25Q117.63 67.25 116.88 67.94Q116.13 68.63 116.13 69.50L116.13 69.50Q116.13 70.50 116.88 71.13Q117.63 71.75 118.63 71.75L118.63 71.75Q119.75 71.75 120.50 71.06Q121.25 70.38 121.25 69.50L121.25 69.50Q121.25 68.63 120.50 67.94Q119.75 67.25 118.63 67.25ZM122 57.88L122 57.88Q121.13 57.88 120.56 58.44Q120 59 120 59.63L120 59.63Q120 60.38 120.56 60.88Q121.13 61.38 122 61.38L122 61.38Q122.75 61.38 123.38 60.88Q124 60.38 124 59.63L124 59.63Q124 59 123.38 58.44Q122.75 57.88 122 57.88ZM120.88 52.13L120.88 52.13Q121.38 52.13 121.81 51.75Q122.25 51.38 122.25 50.88L122.25 50.88Q122.25 50.38 121.81 50Q121.38 49.63 120.88 49.63L120.88 49.63Q120.25 49.63 119.81 50Q119.38 50.38 119.38 50.88L119.38 50.88Q119.38 51.38 119.81 51.75Q120.25 52.13 120.88 52.13ZM117.38 45.38L117.38 45.38Q117.75 45.38 118.06 45.13Q118.38 44.88 118.38 44.50L118.38 44.50Q118.38 44.13 118.06 43.88Q117.75 43.63 117.38 43.63L117.38 43.63Q117 43.63 116.69 43.88Q116.38 44.13 116.38 44.50L116.38 44.50Q116.38 44.88 116.69 45.13Q117 45.38 117.38 45.38ZM113.50 39.75L113.50 39.75Q113.25 39.75 113.06 39.94Q112.88 40.13 112.88 40.38L112.88 40.38Q112.88 40.63 113.06 40.81Q113.25 41 113.50 41L113.50 41Q113.88 41 114.06 40.81Q114.25 40.63 114.25 40.38L114.25 40.38Q114.25 40.13 114.06 39.94Q113.88 39.75 113.50 39.75ZM109.50 37.50L109.50 37.50Q109.63 37.50 109.81 37.38Q110 37.25 110 37.13L110 37.13Q110 36.88 109.81 36.75Q109.63 36.63 109.50 36.63L109.50 36.63Q109.25 36.63 109.13 36.75Q109 36.88 109 37.13L109 37.13Q109 37.25 109.13 37.38Q109.25 37.50 109.50 37.50Z"/></svg>