<svg xmlns="http://www.w3.org/2000/svg" xmlns:xlink="http://www.w3.org/1999/xlink" width="128" height="128"><path fill="#ffffff" d="M49.50 79.13L49.50 79.13L23 79.13L29.88 62.75L48.38 62.75L69 15.13L46.88 15.13L30.75 52.88L40.75 52.88Q41.25 53.75 42.13 54.31Q43 54.88 44.13 54.88L44.13 54.88Q45.75 54.88 46.94 53.69Q48.13 52.50 48.13 50.88L48.13 50.88Q48.13 49.25 46.94 48.13Q45.75 47 44.13 47L44.13 47Q42.88 47 41.94 47.63Q41 48.25 40.50 49.25L40.50 49.25L35.75 49.25L49.25 18.75L63.75 18.75L46.25 59.25L27.88 59.25L17.75 82.75L51.75 82.75L56.25 73L71.13 73L76 82.75L110.25 82.75L79.25 15.13L49.50 79.13ZM58.25 69.25L58.25 69.25L63.50 57.63L69.25 69.25L58.25 69.25ZM78.25 79.50L78.25 79.50L74.88 72.75L85.38 72.75Q85.88 73.63 86.81 74.19Q87.75 74.75 88.88 74.75L88.88 74.75Q90.50 74.75 91.69 73.63Q92.88 72.50 92.88 70.75L92.88 70.75Q92.88 69.13 91.69 67.94Q90.50 66.75 88.88 66.75L88.88 66.75Q87.75 66.75 86.75 67.44Q85.75 68.13 85.25 69.25L85.25 69.25L73.25 69.25L65.25 53.63L71.25 40.63L77.88 54.13L81 54.13Q81.50 55.13 82.44 55.75Q83.38 56.38 84.63 56.38L84.63 56.38Q86.25 56.38 87.44 55.19Q88.63 54 88.63 52.38L88.63 52.38Q88.63 50.75 87.44 49.56Q86.25 48.38 84.63 48.38L84.63 48.38Q83.38 48.38 82.38 49.06Q81.38 49.75 80.88 50.88L80.88 50.88L79.75 50.88L72.75 36.88L79.25 22.50L105 79.50Q105 79.50 100.88 79.50L100.88 79.50Q96.63 79.50 91.63 79.50Q86.63 79.50 82.50 79.50L82.50 79.50Q78.25 79.50 78.25 79.50L78.25 79.50ZM19.25 99.75L19.25 99.75L17 99.75L17 107.50L14.38 107.50L14.38 99.75L12.25 99.75L12.25 97.50L19.25 97.50L19.25 99.75ZM27.38 107.63L27.25 107.63L24.88 107.63L24.88 104.25Q24.88 103.75 24.81 103.44Q24.75 103.13 24.75 103L24.75 103Q24.50 102.75 24.31 102.69Q24.13 102.63 23.75 102.63L23.75 102.63Q23.50 102.63 23.25 102.69Q23 102.75 22.88 103L22.88 103Q22.75 103.13 22.69 103.44Q22.63 103.75 22.63 104.13L22.63 104.13L22.63 107.75L20.25 107.75L20.25 96.75L22.63 96.75L22.63 101.75Q22.88 101.63 23 101.44Q23.13 101.25 23.38 101.13L23.38 101.13Q23.75 101 24.06 100.88Q24.38 100.75 24.75 100.75L24.75 100.75Q25.38 100.75 25.81 100.94Q26.25 101.13 26.63 101.38L26.63 101.38Q27 101.75 27.19 102.25Q27.38 102.75 27.38 103.38L27.38 103.38L27.38 107.63ZM36.25 104.63L36.13 104.63L31.13 104.63Q31.13 105.38 31.50 105.75Q31.88 106.13 32.63 106.13L32.63 106.13Q33 106.13 33.31 105.94Q33.63 105.75 33.75 105.50L33.75 105.50L36 105.50Q35.88 106 35.63 106.31Q35.38 106.63 35.25 106.88L35.25 106.88Q34.63 107.38 34 107.56Q33.38 107.75 32.63 107.75L32.63 107.75Q31.50 107.75 30.75 107.44Q30 107.13 29.50 106.50L29.50 106.50Q29.13 106 28.94 105.44Q28.75 104.88 28.75 104.25L28.75 104.25Q28.75 103.38 28.94 102.69Q29.13 102 29.75 101.63L29.75 101.63Q30.25 101.13 30.94 100.88Q31.63 100.63 32.50 100.63L32.50 100.63Q33.63 100.63 34.38 101Q35.13 101.38 35.75 102.25L35.75 102.25Q36 102.63 36.13 103.19Q36.25 103.75 36.25 104.25L36.25 104.25L36.25 104.63ZM33.88 103.25L33.88 103.25Q33.75 102.63 33.44 102.38Q33.13 102.13 32.50 102.13L32.50 102.13Q32.25 102.13 32 102.19Q31.75 102.25 31.50 102.50L31.50 102.50Q31.38 102.63 31.25 102.88Q31.13 103.13 31.13 103.25L31.13 103.25L33.88 103.25ZM51.38 107.63L51.38 107.63L48.63 107.63L48 105.88L44.38 105.88L43.75 107.63L41 107.63L44.75 97.63L47.63 97.63L51.38 107.63ZM45 103.75L47.25 103.75L46.13 100.63L45 103.75ZM54.75 96.63L54.75 107.63L52.25 107.63L52.25 96.63L54.75 96.63ZM64 107.13L63.88 107.13Q63.88 107.50 63.88 107.88Q63.88 108.25 63.75 108.50L63.75 108.50Q63.75 109 63.44 109.38Q63.13 109.75 62.75 110.13L62.75 110.13Q62.25 110.50 61.56 110.75Q60.88 111 60 111L60 111Q59.13 111 58.38 110.75Q57.63 110.50 57.13 110L57.13 110Q56.75 109.75 56.50 109.38Q56.25 109 56.25 108.75L56.25 108.75Q56.25 108.75 56.19 108.63Q56.13 108.50 56.13 108.38L56.13 108.38L58.75 108.38Q58.88 108.50 58.94 108.69Q59 108.88 59.13 108.88L59.13 108.88Q59.25 109 59.44 109.06Q59.63 109.13 59.88 109.13L59.88 109.13Q60.38 109.13 60.69 108.94Q61 108.75 61.25 108.50L61.25 108.50Q61.38 108.38 61.44 108.06Q61.50 107.75 61.50 107.38L61.50 107.38L61.50 106.75Q61.25 107 61.13 107.13Q61 107.25 60.75 107.38L60.75 107.38Q60.50 107.50 60.13 107.63Q59.75 107.75 59.38 107.75L59.38 107.75Q58.88 107.75 58.44 107.56Q58 107.38 57.50 107.25L57.50 107.25Q57 106.88 56.75 106.50Q56.50 106.13 56.25 105.75L56.25 105.75Q56.13 105.38 56.13 105Q56.13 104.63 56.13 104.25L56.13 104.25Q56.13 103.50 56.38 102.81Q56.63 102.13 57.25 101.63L57.25 101.63Q57.75 101.13 58.31 100.88Q58.88 100.63 59.63 100.63L59.63 100.63Q60 100.63 60.31 100.69Q60.63 100.75 60.88 100.88L60.88 100.88Q61 101 61.25 101.13Q61.50 101.25 61.63 101.50L61.63 101.50L61.63 100.75L64 100.75L64 107.13ZM61.63 104.13L61.63 104.13Q61.63 103.75 61.50 103.50Q61.38 103.25 61.25 103L61.25 103Q61 102.75 60.69 102.63Q60.38 102.50 60.13 102.50L60.13 102.50Q59.75 102.50 59.44 102.63Q59.13 102.75 58.88 103.13L58.88 103.13Q58.75 103.38 58.63 103.56Q58.50 103.75 58.50 104.13L58.50 104.13Q58.50 104.38 58.56 104.69Q58.63 105 58.88 105.25L58.88 105.25Q59.13 105.38 59.44 105.56Q59.75 105.75 60 105.75L60 105.75Q60.25 105.75 60.56 105.56Q60.88 105.38 61.13 105.25L61.13 105.25Q61.38 105 61.50 104.75Q61.63 104.50 61.63 104.13ZM73.50 104.25L73.50 104.25Q73.50 104.88 73.25 105.50Q73 106.13 72.63 106.63L72.63 106.63Q72 107.25 71.25 107.50Q70.50 107.75 69.38 107.75L69.38 107.75Q68.38 107.75 67.56 107.50Q66.75 107.25 66.25 106.63L66.25 106.63Q65.75 106.13 65.50 105.50Q65.25 104.88 65.25 104.13L65.25 104.13Q65.25 103.38 65.50 102.81Q65.75 102.25 66.25 101.75L66.25 101.75Q66.75 101.13 67.56 100.81Q68.38 100.50 69.38 100.50L69.38 100.50Q70.38 100.50 71.13 100.81Q71.88 101.13 72.50 101.75L72.50 101.75Q73 102.25 73.25 102.88Q73.50 103.50 73.50 104.25L73.50 104.25ZM71 104.25L71 104.25Q71 103.88 70.88 103.63Q70.75 103.38 70.50 103.13L70.50 103.13Q70.25 102.88 70 102.75Q69.75 102.63 69.38 102.63L69.38 102.63Q69 102.63 68.69 102.75Q68.38 102.88 68.25 103.25L68.25 103.25Q68 103.38 67.88 103.63Q67.75 103.88 67.75 104.25L67.75 104.25Q67.75 104.50 67.88 104.75Q68 105 68.25 105.25L68.25 105.25Q68.38 105.50 68.69 105.63Q69 105.75 69.38 105.75L69.38 105.75Q69.75 105.75 70 105.63Q70.25 105.50 70.50 105.25L70.50 105.25Q70.75 105.13 70.88 104.81Q71 104.50 71 104.25ZM80 103L79.88 103Q79.63 102.88 79.38 102.81Q79.13 102.75 78.88 102.75L78.88 102.75Q78.25 102.75 77.88 103Q77.50 103.25 77.38 103.75L77.38 103.75Q77.38 104 77.31 104.19Q77.25 104.38 77.25 104.75L77.25 104.75L77.25 107.63L74.88 107.63L74.88 100.75L77.25 100.75L77.25 101.88Q77.50 101.63 77.69 101.38Q77.88 101.13 78.13 101L78.13 101Q78.38 100.88 78.75 100.75Q79.13 100.63 79.50 100.63L79.50 100.63Q79.63 100.63 79.75 100.63Q79.88 100.63 80 100.63L80 100.63L80 103ZM83.63 98.25L83.63 98.25Q83.63 98.50 83.50 98.75Q83.38 99 83.25 99.25L83.25 99.25Q83 99.38 82.75 99.50Q82.50 99.63 82.25 99.63L82.25 99.63Q81.88 99.63 81.63 99.50Q81.38 99.38 81.25 99.25L81.25 99.25Q81 99 80.88 98.75Q80.75 98.50 80.75 98.25L80.75 98.25Q80.75 97.88 80.88 97.63Q81 97.38 81.25 97.25L81.25 97.25Q81.38 97 81.63 96.88Q81.88 96.75 82.25 96.75L82.25 96.75Q82.50 96.75 82.75 96.88Q83 97 83.25 97.25L83.25 97.25Q83.38 97.38 83.50 97.63Q83.63 97.88 83.63 98.25ZM83.38 100.75L83.38 107.63L81 107.63L81 100.75L83.38 100.75ZM89.13 100.75L89.13 102.75L87.75 102.75L87.75 107.50L85.25 107.50L85.25 102.75L84.50 102.75L84.50 100.75L85.25 100.75L85.25 98.75L87.75 98.75L87.75 100.75L89.13 100.75ZM97.25 107.63L97.25 107.63L94.75 107.63L94.75 104.25Q94.75 103.75 94.69 103.44Q94.63 103.13 94.63 103L94.63 103Q94.50 102.75 94.25 102.69Q94 102.63 93.75 102.63L93.75 102.63Q93.38 102.63 93.19 102.69Q93 102.75 92.75 103L92.75 103Q92.63 103.13 92.56 103.44Q92.50 103.75 92.50 104.13L92.50 104.13L92.50 107.75L90 107.75L90 96.75L92.38 96.75L92.38 101.75Q92.63 101.63 92.81 101.44Q93 101.25 93.25 101.13L93.25 101.13Q93.50 101 93.88 100.88Q94.25 100.75 94.63 100.75L94.63 100.75Q95.13 100.75 95.56 100.94Q96 101.13 96.38 101.38L96.38 101.38Q96.75 101.75 97 102.25Q97.25 102.75 97.25 103.38L97.25 103.38L97.25 107.63ZM110.25 107.63L110.25 107.63L107.88 107.63L107.88 104.25Q107.88 103.75 107.81 103.44Q107.75 103.13 107.75 103L107.75 103Q107.50 102.75 107.31 102.63Q107.13 102.50 106.88 102.50L106.88 102.50Q106.63 102.50 106.38 102.63Q106.13 102.75 106 103L106 103Q105.88 103.13 105.81 103.44Q105.75 103.75 105.75 104.25L105.75 104.25L105.75 107.63L103.38 107.63L103.38 104.25Q103.38 103.75 103.38 103.44Q103.38 103.13 103.25 103.13L103.25 103.13Q103.13 102.75 102.94 102.69Q102.75 102.63 102.38 102.63L102.38 102.63Q102.13 102.63 101.88 102.75Q101.63 102.88 101.50 103.13L101.50 103.13Q101.38 103.13 101.38 103.25Q101.38 103.38 101.25 103.50L101.25 103.50Q101.25 103.63 101.25 103.81Q101.25 104 101.25 104.25L101.25 104.25L101.25 107.75L98.75 107.75L98.75 100.88L101.25 100.88L101.25 101.75Q101.38 101.50 101.56 101.31Q101.75 101.13 102 101.13L102 101.13Q102.25 101 102.63 100.88Q103 100.75 103.38 100.75L103.38 100.75Q103.88 100.75 104.31 100.94Q104.75 101.13 105.13 101.25L105.13 101.25Q105.25 101.50 105.38 101.63Q105.50 101.75 105.75 102L105.75 102Q105.88 101.75 106 101.63Q106.13 101.50 106.25 101.25L106.25 101.25Q106.63 101 107.06 100.88Q107.50 100.75 108 100.75L108 100.75Q108.38 100.75 108.75 100.81Q109.13 100.88 109.38 101.13L109.38 101.13Q109.75 101.38 109.94 101.63Q110.13 101.88 110.25 102.25L110.25 102.25Q110.25 102.38 110.25 102.63Q110.25 102.88 110.25 103.25L110.25 103.25L110.25 107.63ZM117.50 105.25L117.50 105.25Q117.50 105.88 117.31 106.31Q117.13 106.75 116.75 107.13L116.75 107.13Q116.25 107.50 115.63 107.69Q115 107.88 114.25 107.88L114.25 107.88Q113.50 107.88 112.81 107.69Q112.13 107.50 111.50 107.13L111.50 107.13L112.38 105.38Q112.88 105.75 113.38 105.94Q113.88 106.13 114.25 106.13L114.25 106.13Q114.63 106.13 114.88 106Q115.13 105.88 115.13 105.63L115.13 105.63Q115.13 105.50 115.06 105.38Q115 105.25 114.75 105.25L114.75 105.25Q114.75 105.13 114.50 105.13Q114.25 105.13 114 105L114 105Q113.75 104.88 113.50 104.81Q113.25 104.75 113.13 104.75L113.13 104.75Q112.75 104.63 112.50 104.44Q112.25 104.25 112.13 103.88L112.13 103.88Q112 103.75 112 103.56Q112 103.38 112 103.13L112 103.13Q112 102.63 112.13 102.25Q112.25 101.88 112.63 101.50L112.63 101.50Q113 101 113.56 100.81Q114.13 100.63 115 100.63L115 100.63Q115.63 100.63 116.13 100.69Q116.63 100.75 117.25 101L117.25 101L116.38 102.63Q116.13 102.50 115.75 102.38Q115.38 102.25 115.13 102.25L115.13 102.25Q114.75 102.25 114.56 102.38Q114.38 102.50 114.38 102.75L114.38 102.75Q114.38 102.88 114.44 102.94Q114.50 103 114.75 103.13L114.75 103.13Q114.75 103.13 114.94 103.19Q115.13 103.25 115.50 103.25L115.50 103.25Q116 103.38 116.31 103.50Q116.63 103.63 116.88 103.88L116.88 103.88Q117.25 104.13 117.38 104.50Q117.50 104.88 117.50 105.25L117.50 105.25Z"/></svg>