<svg xmlns="http://www.w3.org/2000/svg" xmlns:xlink="http://www.w3.org/1999/xlink" width="128" height="128"><path fill="#ffffff" d="M85.25 17.13L43.88 105.88L7.25 105.88L16.75 83.38L42.38 83.38L71 17.13L40.25 17.13L17.75 69.50L31.63 69.50Q32.38 70.75 33.56 71.50Q34.75 72.25 36.25 72.25L36.25 72.25Q38.50 72.25 40.13 70.63Q41.75 69 41.75 66.75L41.75 66.75Q41.75 64.50 40.13 62.88Q38.50 61.25 36.25 61.25L36.25 61.25Q34.63 61.25 33.31 62.13Q32 63 31.25 64.38L31.25 64.38L24.75 64.38L43.38 22.13L63.50 22.13L39.38 78.25L14 78.50L0 110.88L47.25 110.88L53.38 97.38L73.88 97.38L80.75 110.88L128 110.88L85.25 17.13ZM56 92.13L56 92.13L63.38 76L71.38 92.13L56 92.13ZM83.75 106.50L83.75 106.50L79.13 97.13L93.75 97.13Q94.50 98.50 95.75 99.31Q97 100.13 98.63 100.13L98.63 100.13Q100.88 100.13 102.50 98.50Q104.13 96.88 104.13 94.63L104.13 94.63Q104.13 92.38 102.50 90.75Q100.88 89.13 98.63 89.13L98.63 89.13Q97 89.13 95.56 90.06Q94.13 91 93.50 92.38L93.50 92.38L76.88 92.38L65.75 70.63L74 52.63L83.25 71.38L87.50 71.38Q88.13 72.75 89.50 73.69Q90.88 74.63 92.50 74.63L92.50 74.63Q94.75 74.63 96.38 73Q98 71.38 98 69.13L98 69.13Q98 66.88 96.38 65.25Q94.75 63.63 92.50 63.63L92.50 63.63Q90.75 63.63 89.38 64.56Q88 65.50 87.38 67.13L87.38 67.13L85.75 67.13L76.25 47.75L85.38 27.75L121 106.50Q121 106.50 115.13 106.50L115.13 106.50Q109.38 106.50 102.38 106.50Q95.38 106.50 89.63 106.50L89.63 106.50Q83.75 106.50 83.75 106.50L83.75 106.50Z"/></svg>