<svg xmlns="http://www.w3.org/2000/svg" xmlns:xlink="http://www.w3.org/1999/xlink" width="128" height="128"><path fill="#000000" d="M123.50 17L0 17L0 50.63Q6.50 47.88 14.13 45.13L14.13 45.13Q21.63 42.50 30.31 39.75Q39 37 48.75 34.25L48.75 34.25Q58.63 31.63 69.50 28.88L69.50 28.88Q76.50 27.13 83.38 25.50L83.38 25.50Q90.25 23.88 97 22.38Q103.75 20.88 110.38 19.50L110.38 19.50Q117 18.25 123.50 17L123.50 17ZM128 49.63L128 24.13Q121.63 25.13 115.63 26.13L115.63 26.13Q109.63 27.13 104 28.25Q98.38 29.38 93 30.50L93 30.50Q87.63 31.75 82.75 33L82.75 33Q71.25 35.88 62.06 38.75Q52.88 41.63 45.88 44.63L45.88 44.63Q38.88 47.50 35.69 49.88Q32.50 52.25 32.88 54L32.88 54Q33.25 55.63 36.19 56.38Q39.13 57.13 44.63 56.88L44.63 56.88Q47.38 56.88 51.94 56.56Q56.50 56.25 62.75 55.75L62.75 55.75L95.25 52.50Q105.13 51.50 113.31 50.81Q121.50 50.13 128 49.63L128 49.63ZM90.50 66.75L90.50 66.75Q87.75 66.75 83.88 67Q80 67.25 75.13 67.63L75.13 67.63Q70.13 67.88 64 68.44Q57.88 69 50.50 69.75L50.50 69.75L12.63 73.50Q9 73.75 5.88 74Q2.75 74.25 0 74.38L0 74.38L0 101.63Q7.50 100.50 14.63 99.25L14.63 99.25Q21.75 98.13 28.50 96.81Q35.25 95.50 41.63 94.13L41.63 94.13Q48 92.63 54 91.13L54 91.13Q65.88 88.25 75 85.31Q84.13 82.38 90.50 79.63L90.50 79.63Q97 76.88 99.94 74.50Q102.88 72.13 102.38 70.13L102.38 70.13Q102 68.50 99 67.63Q96 66.75 90.50 66.75L90.50 66.75ZM128 109.75L128 76.25Q121.38 78.88 114.13 81.38L114.13 81.38Q106.75 84 98.56 86.50Q90.38 89 81.50 91.50L81.50 91.50Q72.50 94 62.75 96.38L62.75 96.38Q53.63 98.75 45.25 100.63L45.25 100.63Q36.75 102.63 28.94 104.25Q21.13 105.88 13.88 107.25L13.88 107.25Q6.63 108.50 0 109.50L0 109.50L0 109.75L128 109.75ZM5.38 82L5.38 82Q5.38 82 5.44 82Q5.50 82 5.50 82L5.50 82Q5.75 82 6 82.13Q6.25 82.25 6.38 82.38L6.38 82.38Q6.63 82.50 6.69 82.75Q6.75 83 6.75 83.25L6.75 83.25Q6.75 83.75 6.38 84.13Q6 84.50 5.50 84.50L5.50 84.50Q5.50 84.50 5.44 84.50Q5.38 84.50 5.25 84.50L5.25 84.50L5.25 84.50Q4.88 84.38 4.56 84Q4.25 83.63 4.25 83.13L4.25 83.13Q4.25 82.75 4.56 82.44Q4.88 82.13 5.38 82L5.38 82ZM9.88 82L9.88 82Q10.13 82 10.31 82.06Q10.50 82.13 10.63 82.25L10.63 82.25Q10.88 82.50 11 82.75Q11.13 83 11.13 83.25L11.13 83.25Q11.13 83.38 11.06 83.50Q11 83.63 11 83.75L11 83.75L11 83.75Q10.88 84.13 10.50 84.31Q10.13 84.50 9.75 84.50L9.75 84.50Q9.50 84.50 9.19 84.31Q8.88 84.13 8.75 83.75L8.75 83.75Q8.50 83.38 8.63 82.88Q8.75 82.38 9.25 82.25L9.25 82.25Q9.38 82.13 9.56 82.06Q9.75 82 9.88 82L9.88 82ZM5.50 90L5.50 90Q5.88 90 6.25 90.25Q6.63 90.50 6.75 90.88L6.75 90.88Q6.88 91.38 6.69 91.81Q6.50 92.25 6.13 92.38L6.13 92.38Q5.63 92.63 5.19 92.50Q4.75 92.38 4.50 92L4.50 92Q4.25 91.63 4.25 91.13Q4.25 90.63 4.63 90.38L4.63 90.38Q4.88 90.25 5.06 90.13Q5.25 90 5.50 90L5.50 90ZM9.88 90L9.88 90Q10.25 90 10.50 90.19Q10.75 90.38 10.88 90.63L10.88 90.63Q11 90.75 11.06 90.94Q11.13 91.13 11.13 91.25L11.13 91.25Q11.13 91.63 11 91.88Q10.88 92.13 10.63 92.25L10.63 92.25L10.63 92.25Q10.25 92.50 9.69 92.50Q9.13 92.50 8.88 92.13L8.88 92.13Q8.50 91.75 8.56 91.19Q8.63 90.63 9 90.38L9 90.38Q9.25 90.13 9.44 90.06Q9.63 90 9.88 90L9.88 90Z"/></svg>