<svg xmlns="http://www.w3.org/2000/svg" xmlns:xlink="http://www.w3.org/1999/xlink" width="128" height="128"><path fill="#ffffff" d="M50.25 29.63L50.25 29.63Q59.13 28.88 63.94 24.81Q68.75 20.75 79 19.75L79 19.75Q84 19.38 87.06 20.25Q90.13 21.13 90.38 22.88L90.38 22.88Q90.75 24.50 88.63 25.56Q86.50 26.63 83.38 26.88L83.38 26.88Q79.25 27.38 77.25 26.13Q75.25 24.88 75 23.50L75 23.50Q71.88 23.75 71.06 24.88Q70.25 26 70.38 27L70.38 27Q70.75 28.75 74.38 30.13Q78 31.50 84.50 30.88L84.50 30.88Q91.88 30.25 94.56 27.81Q97.25 25.38 96.75 22.38L96.75 22.38Q96 18.63 90.44 16.06Q84.88 13.50 74.75 14.38L74.75 14.38Q61.75 15.63 58.19 19.88Q54.63 24.13 45.75 24.88L45.75 24.88Q42.25 25.25 40.19 24.50Q38.13 23.75 37.75 22.25L37.75 22.25Q37.63 20.88 39.06 20.19Q40.50 19.50 42.63 19.25L42.63 19.25Q44.50 19.13 46.56 19.44Q48.63 19.75 49.75 20.25L49.75 20.25Q50.63 19.88 50.94 19.44Q51.25 19 51.13 18.50L51.13 18.50Q50.75 17.13 48.38 16.56Q46 16 42.63 16.25L42.63 16.25Q36.13 16.88 35.06 19.13Q34 21.38 34.25 22.75L34.25 22.75Q35 26.25 39.56 28.25Q44.13 30.25 50.25 29.63L50.25 29.63ZM108.88 49.38L108.88 49.38Q104.88 50.38 100.25 51.13L100.25 51.13Q95.63 51.88 90.50 52.38Q85.38 52.88 79.63 53.25L79.63 53.25Q73.88 53.50 67.75 53.50L67.75 53.50Q61.38 53.50 55.63 53.13L55.63 53.13Q49.88 52.88 44.69 52.31Q39.50 51.75 34.88 51L34.88 51Q30.25 50.25 26.25 49.38L26.25 49.38Q19 47.50 15 45.50Q11 43.50 9.63 41.38L9.63 41.38Q10.25 46.13 11.44 50.69Q12.63 55.25 14.25 59.63L14.25 59.63Q12.38 60.75 10.69 62.25Q9 63.75 7.50 65.63L7.50 65.63Q4.63 69.25 3.38 73.31Q2.13 77.38 2.25 81.50L2.25 81.50Q2.50 85.63 4.44 89Q6.38 92.38 9.63 95L9.63 95Q13 97.63 16.63 98.44Q20.25 99.25 24.38 98.50L24.38 98.50Q26 98.25 27.69 97.56Q29.38 96.88 31 96.38L31 96.38Q27.63 96.38 24.69 95.25Q21.75 94.13 18.88 91.88L18.88 91.88Q15.88 89.63 13.81 86.50Q11.75 83.38 11.25 79.50L11.25 79.50Q10.50 75.88 11.25 72.56Q12 69.25 14 66.25L14 66.25Q14.50 65.75 14.94 65.25Q15.38 64.75 15.88 64.25L15.88 64.25Q17 67.13 18.31 69.88Q19.63 72.63 21.13 75.25L21.13 75.25Q24.13 79.88 27.25 84.19Q30.38 88.50 33.50 92.88L33.50 92.88Q34.88 95.50 35.81 98.13Q36.75 100.75 37.25 103.25L37.25 103.25Q39.38 106.13 42.25 108.13Q45.13 110.13 48.75 111.25L48.75 111.25Q53.13 112.75 57.75 113.44Q62.38 114.13 67.13 114.13L67.13 114.13L67.75 114.13Q72.50 114.13 77.38 113.38Q82.25 112.63 86.75 111.13L86.75 111.13Q90.13 110 92.94 108.06Q95.75 106.13 97.88 103.13L97.88 103.13L98.25 103.13Q98.75 100.88 99.56 98.13Q100.38 95.38 101.75 92.75L101.75 92.75Q104.75 88.38 107.88 84.13Q111 79.88 114.13 75.13L114.13 75.13Q118.25 67.63 121.06 59.13Q123.88 50.63 125.50 41.50L125.50 41.50Q123.88 43.75 119.88 45.81Q115.88 47.88 108.88 49.38L108.88 49.38ZM26.25 40.75L26.25 40.75Q30.25 41.75 34.88 42.50L34.88 42.50Q39.50 43.25 44.63 43.75Q49.75 44.25 55.50 44.50L55.50 44.50Q61.13 44.75 67.38 44.75L67.38 44.75Q73.75 44.75 79.50 44.50L79.50 44.50Q85.13 44.25 90.25 43.75Q95.38 43.25 100 42.50L100 42.50Q104.50 41.63 108.63 40.75L108.63 40.75Q117.13 38.63 121.31 36.13Q125.50 33.63 125.50 31.13L125.50 31.13Q125.50 29.25 123.69 27.56Q121.88 25.88 118.50 24.50L118.50 24.50Q119.25 25 119.75 25.81Q120.25 26.63 120.25 27.50L120.25 27.50Q120.25 30.13 116.38 32.25Q112.50 34.38 104.75 36.13L104.75 36.13Q97.50 37.63 88.25 38.69Q79 39.75 67.75 39.75L67.75 39.75Q56.88 39.75 47.44 38.75Q38 37.75 31 36.25L31 36.25Q23.50 34.38 19.63 32.25Q15.75 30.13 15.75 27.63L15.75 27.63Q15.75 26.50 16.31 25.50Q16.88 24.50 18.38 23.50L18.38 23.50Q13.63 25.38 11.19 27.06Q8.75 28.75 8.75 31.13L8.75 31.13Q9 33.75 13.31 36.25Q17.63 38.75 26.25 40.75L26.25 40.75Z"/></svg>