<svg xmlns="http://www.w3.org/2000/svg" xmlns:xlink="http://www.w3.org/1999/xlink" width="128" height="128"><path fill="#ffffff" d="M113.75 105.75L113.75 105.75Q112.63 105.75 111.88 106.13Q111.13 106.50 110.50 107L110.50 107L110.88 104.88L107.13 105.13L105 114.88Q104.75 115.63 104.06 116.38Q103.38 117.13 102.63 117.13L102.63 117.13Q102.13 117.13 101.81 116.88Q101.50 116.63 101.50 116L101.50 116Q101.50 115.88 101.50 115.63Q101.50 115.38 101.63 115.13L101.63 115.13L103.63 105.88L99.63 105.88L97.75 114.63Q97.75 115.13 97.69 115.56Q97.63 116 97.63 116.38L97.63 116.38Q97.63 118.13 98.44 118.88Q99.25 119.63 100.50 119.63L100.50 119.63Q101.25 119.63 102.38 119.25Q103.50 118.88 104.50 117.63L104.50 117.63L102.75 126.25L106.75 125.25L108.25 118.63Q108.38 119 108.94 119.31Q109.50 119.63 110.50 119.63L110.50 119.63Q114.38 119.63 115.75 116.19Q117.13 112.75 117.13 110L117.13 110Q117 107.63 116.06 106.69Q115.13 105.75 113.75 105.75L113.75 105.75ZM109.50 117.25L109.50 117.25Q109 117.25 108.81 117.06Q108.63 116.88 108.50 116.75L108.50 116.75L110.13 109.13Q110.50 108.50 111 108.13Q111.50 107.75 112 107.75L112 107.75Q112.38 107.75 112.81 108.06Q113.25 108.38 113.25 110L113.25 110Q113.25 112 112.44 114.63Q111.63 117.25 109.50 117.25L109.50 117.25ZM123.50 105.88L123.50 106Q123.88 103.75 124.13 102.75Q124.38 101.75 124.38 101.75L124.38 101.75L120.38 102.25L119.63 106L118.75 106L118.50 107L119.38 107L117.75 115.13Q117.63 115.50 117.56 115.88Q117.50 116.25 117.50 116.50L117.50 116.50Q117.50 117.88 118.13 118.75Q118.75 119.63 120.25 119.63L120.25 119.63Q120.88 119.63 121.69 119.19Q122.50 118.75 123.13 116.88L123.13 116.88Q123 117 122.75 117Q122.50 117 122.38 117L122.38 117Q121.88 117 121.69 116.75Q121.50 116.50 121.50 116L121.50 116L121.63 115.13L123.25 106.88L124.88 106.88L125.13 105.88L123.50 105.88ZM100.25 102.25L100.25 102.25Q100.25 103.25 100.81 103.81Q101.38 104.38 102.25 104.38L102.25 104.38Q103.25 104.38 103.81 103.81Q104.38 103.25 104.38 102.25L104.38 102.25Q104.38 101.38 103.75 100.81Q103.13 100.25 102.25 100.25L102.25 100.25Q101.50 100.25 100.88 100.81Q100.25 101.38 100.25 102.25ZM61.75 108.25L61.75 108.25Q61.75 107.38 61.19 106.56Q60.63 105.75 58.75 105.75L58.75 105.75Q54.75 105.75 53.19 109.25Q51.63 112.75 51.50 115.13L51.50 115.13Q50.63 116.13 49.56 116.75Q48.50 117.38 47.13 117.38L47.13 117.38Q46.13 117.38 45.69 116.94Q45.25 116.50 45.25 115.13L45.25 115.13Q45.25 114.88 45.25 114.56Q45.25 114.25 45.25 114L45.25 114Q47.75 113.88 49.63 112.25Q51.50 110.63 51.50 108.25L51.50 108.25Q51.50 107.38 50.88 106.56Q50.25 105.75 48.50 105.75L48.50 105.75Q44.25 105.75 42.75 109.38Q41.25 113 41.25 115.25L41.25 115.25Q41.25 117.63 42.38 118.63Q43.50 119.63 45.38 119.63L45.38 119.63Q47.50 119.63 49 118.63Q50.50 117.63 51.63 116.25L51.63 116.25Q51.88 118 52.94 118.81Q54 119.63 55.75 119.63L55.75 119.63Q57.38 119.63 58.69 118.75Q60 117.88 60.38 115.63L60.38 115.63Q59.75 116.13 58.88 116.56Q58 117 57.25 117L57.25 117Q56.50 117 56 116.50Q55.50 116 55.50 114.75L55.50 114.75Q55.50 114.50 55.50 114.31Q55.50 114.13 55.63 113.88L55.63 113.88Q58 113.88 59.88 112.31Q61.75 110.75 61.75 108.25L61.75 108.25ZM59 107.25L59 107.25Q59.38 107.25 59.56 107.50Q59.75 107.75 59.75 108.25L59.75 108.25Q59.75 110 58.56 111.38Q57.38 112.75 55.75 112.75L55.75 112.75Q56.13 110.88 57.06 109.06Q58 107.25 59 107.25ZM48.63 107.25L48.63 107.25Q49 107.25 49.13 107.50Q49.25 107.75 49.25 108.25L49.25 108.25Q49.25 110 48.13 111.31Q47 112.63 45.38 112.75L45.38 112.75Q45.75 110.75 46.69 109Q47.63 107.25 48.63 107.25L48.63 107.25ZM73 104.63L73 104.63Q73.25 104.88 73.56 105.06Q73.88 105.25 74.25 105.25L74.25 105.25Q75.25 105.25 75.88 104.44Q76.50 103.63 76.50 102.38L76.50 102.38Q76.50 100.13 74.81 99.69Q73.13 99.25 72.13 99.25L72.13 99.25Q69.50 99.25 67.63 100.56Q65.75 101.88 65.75 104.13L65.75 104.13Q65.75 107.13 68.50 109Q71.25 110.88 71.25 114.38L71.25 114.38Q71.25 116.13 70.38 117.06Q69.50 118 68.13 118L68.13 118Q66.88 118 66.19 117.19Q65.50 116.38 65.50 115.38L65.50 115.38Q65.50 114 66.56 113.44Q67.63 112.88 68.75 112.88L68.75 112.88Q68.63 111.88 67.81 111.50Q67 111.13 66.25 111.13L66.25 111.13Q64.88 111.13 63.56 112.25Q62.25 113.38 62.25 115.50L62.25 115.50Q62.25 118 64 119.13Q65.75 120.25 68.13 120.25L68.13 120.25Q71.13 120.25 73.44 118.56Q75.75 116.88 75.75 113.38L75.75 113.38Q75.75 109 72.69 107.50Q69.63 106 69.63 103L69.63 103Q69.63 101.75 70.31 101.19Q71 100.63 72.13 100.63L72.13 100.63Q73.25 100.63 73.69 101.19Q74.13 101.75 74.13 102.38L74.13 102.38Q74.25 103 73.94 103.63Q73.63 104.25 73 104.63ZM42.75 106L42.75 106L40 106L40.50 103.75Q40.75 102.38 41.31 102Q41.88 101.63 42.25 101.63L42.25 101.63Q42.63 101.63 42.94 101.81Q43.25 102 43.25 102.38L43.25 102.38Q43.25 102.50 43.25 102.75Q43.25 103 43.25 103L43.25 103L44.50 103Q44.63 103 44.63 102.69Q44.63 102.38 44.63 102L44.63 102Q44.63 100.63 43.63 99.88Q42.63 99.13 41.38 99.13L41.38 99.13Q40.50 99.13 39.50 99.50Q38.50 99.88 37.75 100.75L37.75 100.75Q37.38 100 36.56 99.56Q35.75 99.13 34.75 99.13L34.75 99.13Q33.50 99.13 32 100Q30.50 100.88 29.88 103.75L29.88 103.75L28.75 109.38Q28.13 109.63 27.56 109.75Q27 109.88 26.50 109.88L26.50 109.88Q26.38 109.88 26.31 109.88Q26.25 109.88 26.25 109.75L26.25 109.75Q26.25 107.75 25.38 106.63Q24.50 105.50 22.75 105.38L22.75 105.38Q18.63 105.38 17 108.88Q15.38 112.38 15.25 114.75L15.25 114.75Q14.38 115.88 13.13 116.44Q11.88 117 10.38 117L10.38 117Q8.50 117 7.88 115.81Q7.25 114.63 7.25 112.75L7.25 112.75Q7.25 108.63 8.94 104.44Q10.63 100.25 12.75 100.25L12.75 100.25Q13.75 100.25 14.13 100.75Q14.50 101.25 14.50 101.88L14.50 101.88Q14.50 102.63 14.13 103.38Q13.75 104.13 13.25 104.38L13.25 104.38Q13.63 104.88 14 105Q14.38 105.13 14.75 105.13L14.75 105.13Q15.88 105.13 16.31 104.44Q16.75 103.75 16.75 102.63L16.75 102.63Q16.75 100.63 15.44 99.81Q14.13 99 12.25 99L12.25 99Q6.88 99 4.81 104.19Q2.75 109.38 2.75 113.13L2.75 113.13Q2.75 116.75 4.25 118.25Q5.75 119.75 8.75 119.75L8.75 119.75Q10.25 119.75 12.19 118.94Q14.13 118.13 15.50 116.25L15.50 116.25Q15.75 117.88 16.94 118.56Q18.13 119.25 19.75 119.25L19.75 119.25Q22.13 119.25 24 117.13Q25.88 115 26.25 111.25L26.25 111.25Q26.75 111.13 27.38 111Q28 110.88 28.50 110.63L28.50 110.63L26.75 119.13Q24.75 119.75 23.38 120.56Q22 121.38 22 123.25L22 123.25Q22 124.50 23 125.31Q24 126.13 25.25 126.13L25.25 126.13Q26.13 126.13 27.13 125.81Q28.13 125.50 28.88 124.38L28.88 124.38Q29.25 125.13 29.94 125.63Q30.63 126.13 31.75 126.13L31.75 126.13Q33.13 126.13 34.63 125.25Q36.13 124.38 36.75 121.50L36.75 121.50L39.75 106.88L42.50 106.88L42.75 106ZM24 111.50L24 111.50Q23.75 113.88 22.81 115.50Q21.88 117.13 20.88 117.13L20.88 117.13Q20.13 117.13 19.81 116.69Q19.50 116.25 19.50 114.88L19.50 114.88Q19.50 112.88 20.56 110.06Q21.63 107.25 23.13 107.25L23.13 107.25Q23.63 107.25 23.88 107.63Q24.13 108 24.13 108.88L24.13 108.88Q23.75 109 23.50 109.38Q23.25 109.75 23.25 110.38L23.25 110.38Q23.25 110.75 23.38 111.06Q23.50 111.38 24 111.50L24 111.50ZM26.38 121.75L26.38 121.75Q26.13 123 25.69 123.44Q25.25 123.88 24.75 123.88L24.75 123.88Q24.38 123.88 24.06 123.56Q23.75 123.25 23.75 123L23.75 123Q23.75 121.88 24.56 121.25Q25.38 120.63 26.75 120.25L26.75 120.25L26.38 121.75ZM32.75 121.75L32.75 121.75Q32.50 123 32.06 123.44Q31.63 123.88 31.25 123.88L31.25 123.88Q30.63 123.88 30.25 123.81Q29.88 123.75 29.63 123.38L29.63 123.38Q29.75 123 29.88 122.63Q30 122.25 30.13 121.75L30.13 121.75L30.63 119.25L33.38 118.75L32.75 121.75ZM33.63 118L33.63 118L30.75 118.50L33.25 107L35.88 107L33.63 118ZM36.75 103.13L36.75 103.13L36.13 106L33.38 106L33.88 103.75Q34.25 102.50 34.81 102.13Q35.38 101.75 35.75 101.75L35.75 101.75Q36.13 101.75 36.44 101.94Q36.75 102.13 36.75 102.63L36.75 102.63Q36.75 102.63 36.75 102.81Q36.75 103 36.75 103.13L36.75 103.13ZM98.13 108L98.13 108Q98.13 107.13 97.63 106.50Q97.13 105.88 96.25 105.88L96.25 105.88Q95.25 105.88 94.44 106.44Q93.63 107 92.88 107.63L92.88 107.63L93.25 105.88L89.38 106L87.63 114.63Q86.63 115.75 85.50 116.50Q84.38 117.25 82.75 117.25L82.75 117.25Q81.88 117.25 81.31 116.81Q80.75 116.38 80.75 115L80.75 115Q80.75 112.75 81.88 109.88Q83 107 84.25 107L84.25 107Q84.63 107 84.81 107.31Q85 107.63 85 108.13L85 108.13Q85 108.50 84.94 108.88Q84.88 109.25 84.75 109.75L84.75 109.75Q84.88 109.88 85.13 109.94Q85.38 110 85.63 110L85.63 110Q86.25 110 86.63 109.50Q87 109 87 108L87 108Q87 107.13 86.38 106.31Q85.75 105.50 84 105.50L84 105.50Q79.88 105.50 78.31 109.13Q76.75 112.75 76.75 115.13L76.75 115.13Q76.75 117.38 77.88 118.38Q79 119.38 80.88 119.38L80.88 119.38Q82.88 119.38 84.38 118.56Q85.88 117.75 87 116.50L87 116.50L86.25 119.75L90.25 119.75L92.25 109.25Q92.88 108.88 93.31 108.56Q93.75 108.25 94.25 108.25L94.25 108.25Q94.88 108.25 94.81 109.06Q94.75 109.88 95.88 109.88L95.88 109.88Q97.13 110 97.63 109.31Q98.13 108.63 98.13 108L98.13 108ZM52.25 18L52.25 18Q59.75 17.38 63.94 13.94Q68.13 10.50 76.88 9.75L76.88 9.75Q81.25 9.38 83.81 10.13Q86.38 10.88 86.75 12.38L86.75 12.38Q87 13.88 85.19 14.75Q83.38 15.63 80.75 15.88L80.75 15.88Q77.25 16.25 75.56 15.25Q73.88 14.25 73.63 13L73.63 13Q70.88 13.25 70.19 14.19Q69.50 15.13 69.75 16L69.75 16Q70 17.50 73.13 18.69Q76.25 19.88 81.75 19.38L81.75 19.38Q88 18.88 90.38 16.75Q92.75 14.63 92.25 12.13L92.25 12.13Q91.63 8.88 86.88 6.69Q82.13 4.50 73.50 5.25L73.50 5.25Q62.38 6.25 59.31 10Q56.25 13.75 48.75 14.25L48.75 14.25Q45.63 14.63 43.94 13.94Q42.25 13.25 41.88 12.13L41.88 12.13Q41.63 10.88 42.94 10.25Q44.25 9.63 46 9.50L46 9.50Q47.63 9.38 49.44 9.63Q51.25 9.88 52.13 10.38L52.13 10.38Q52.88 10 53.06 9.63Q53.25 9.25 53.25 8.88L53.25 8.88Q53 7.75 50.94 7.25Q48.88 6.75 46 7L46 7Q40.38 7.50 39.50 9.44Q38.63 11.38 38.75 12.50L38.75 12.50Q39.25 15.13 43.13 16.81Q47 18.50 52.25 18ZM31.63 27.50L31.63 27.50Q38.50 29.25 47.31 30.19Q56.13 31.13 66.75 31.13L66.75 31.13Q77.63 31.13 86.38 30.19Q95.13 29.25 102 27.50L102 27.50Q109.38 25.75 112.94 23.56Q116.50 21.38 116.50 19.25L116.50 19.25Q116.50 17.63 115 16.19Q113.50 14.75 110.63 13.50L110.63 13.50Q111.25 14 111.69 14.63Q112.13 15.25 112.13 16.13L112.13 16.13Q112.13 18.38 108.81 20.19Q105.50 22 98.75 23.50L98.75 23.50Q92.63 24.88 84.69 25.75Q76.75 26.63 67.13 26.63L67.13 26.63Q57.75 26.63 49.75 25.81Q41.75 25 35.75 23.63L35.75 23.63Q29.38 22 26 20.25Q22.63 18.50 22.63 16.25L22.63 16.25Q22.63 15.25 23.13 14.44Q23.63 13.63 24.88 12.63L24.88 12.63Q20.88 14.13 18.75 15.63Q16.63 17.13 16.63 19.13L16.63 19.13Q16.88 21.38 20.56 23.56Q24.25 25.75 31.63 27.50L31.63 27.50ZM17.50 73.88L17.50 73.88Q20.38 76.13 23.50 76.81Q26.63 77.50 30.25 76.88L30.25 76.88Q31.50 76.63 33 76.06Q34.50 75.50 35.88 75.13L35.88 75.13Q33 75.13 30.50 74.19Q28 73.25 25.50 71.25L25.50 71.25Q22.75 69.38 21.13 66.69Q19.50 64 19 60.63L19 60.63Q18.38 57.50 19 54.63Q19.63 51.75 21.25 49.25L21.25 49.25L22.88 47.50Q23.88 49.88 25 52.25Q26.13 54.63 27.25 56.75L27.25 56.75Q30 60.88 32.63 64.50Q35.25 68.13 38 72L38 72Q39.13 74.25 39.94 76.44Q40.75 78.63 41.25 80.88L41.25 80.88Q43 83.38 45.50 85.06Q48 86.75 51.13 87.63L51.13 87.63Q54.88 89 58.88 89.50Q62.88 90 66.75 90L66.75 90L67.38 90Q71.50 90 75.63 89.44Q79.75 88.88 83.63 87.63L83.63 87.63Q86.50 86.75 88.88 85Q91.25 83.25 93.13 81L93.13 81L93.38 81Q93.88 78.75 94.56 76.50Q95.25 74.25 96.38 72L96.38 72Q99.13 68.13 101.75 64.50Q104.38 60.88 107.13 56.75L107.13 56.75Q110.63 50.38 113.06 43.13Q115.50 35.88 116.88 28L116.88 28Q115.50 30 112.06 31.75Q108.63 33.50 102.63 34.75L102.63 34.75Q95.75 36.38 86.88 37.31Q78 38.25 67.38 38.25L67.38 38.25Q56.50 38.25 47.63 37.25Q38.75 36.25 31.88 34.75L31.88 34.75Q25.63 33.13 22.25 31.44Q18.88 29.75 17.75 27.88L17.75 27.88Q18.25 32 19.25 35.88Q20.25 39.75 21.63 43.50L21.63 43.50Q20 44.50 18.56 45.75Q17.13 47 15.88 48.63L15.88 48.63Q13.38 51.63 12.31 55.13Q11.25 58.63 11.50 62.25L11.50 62.25Q11.75 65.75 13.25 68.69Q14.75 71.63 17.50 73.88L17.50 73.88Z"/></svg>