<svg xmlns="http://www.w3.org/2000/svg" xmlns:xlink="http://www.w3.org/1999/xlink" width="128" height="128"><path fill="#000000" d="M60.38 0L60.38 0Q60.13 0 59.63 0.06Q59.13 0.13 58.63 0.25L58.63 0.25Q51 1 43.75 4.13Q36.50 7.25 30.38 12.38L30.38 12.38Q29.25 13.25 27.19 15.31Q25.13 17.38 24.13 18.50L24.13 18.50Q19.13 24.63 16.13 31.44Q13.13 38.25 12 46.25L12 46.25Q11.88 48.13 11.88 52.69Q11.88 57.25 12 59L12 59Q13.13 67.13 16.13 73.94Q19.13 80.75 24.13 86.88L24.13 86.88Q25.13 88 27.19 90Q29.25 92 30.38 93L30.38 93Q36.38 98 43.25 101Q50.13 104 58.13 105.13L58.13 105.13Q59.88 105.38 64.50 105.38Q69.13 105.38 70.88 105.13L70.88 105.13Q78.88 104 85.75 101Q92.63 98 98.63 93L98.63 93Q99.75 92 101.81 90Q103.88 88 104.75 86.88L104.75 86.88Q109.88 80.75 112.88 73.94Q115.88 67.13 116.88 59L116.88 59Q117.13 57.25 117.13 52.69Q117.13 48.13 116.88 46.25L116.88 46.25Q115.88 38.25 112.88 31.44Q109.88 24.63 104.75 18.50L104.75 18.50Q103.88 17.38 101.81 15.31Q99.75 13.25 98.63 12.38L98.63 12.38Q92.63 7.38 85.75 4.38Q78.88 1.38 71 0.25L71 0.25Q70.13 0.13 68.75 0.06Q67.38 0 65.13 0L65.13 0Q63.38 0 61.94 0Q60.50 0 60.38 0ZM61 4.63L61 5.63Q61 6.75 61.06 9Q61.13 11.25 61.25 13.50L61.25 13.50Q61.25 14.75 61.31 16.13Q61.38 17.50 61.50 18.38L61.50 18.38Q61.50 21.50 61.75 27.38Q62 33.25 62.13 34L62.13 34L62.13 35L61.63 34.88Q61.38 34.88 61.13 34.81Q60.88 34.75 60.88 34.75L60.88 34.75Q60.88 34.75 60.81 34.13Q60.75 33.50 60.75 32.75L60.75 32.75Q60.50 29.25 60.13 19.44Q59.75 9.63 59.63 7.63L59.63 7.63L59.50 4.75L59.88 4.75Q60.13 4.63 60.31 4.63Q60.50 4.63 60.63 4.63L60.63 4.63L61 4.63ZM73.38 5.25L73.38 5.25Q73.38 5.38 73.44 7.88Q73.50 10.38 73.50 14L73.50 14Q73.50 17.63 73.56 20.44Q73.63 23.25 73.63 23.50L73.63 23.50Q73.63 23.88 73.63 24.19Q73.63 24.50 73.63 24.50L73.63 24.50Q73.50 24.50 73.31 24.50Q73.13 24.50 72.88 24.50L72.88 24.50L72.25 24.38L72.25 20.63Q72.13 19.13 72.13 17.56Q72.13 16 72.13 15.50L72.13 15.50Q72 13.75 71.94 9.56Q71.88 5.38 72 5.25L72 5.25Q72 5.13 72.13 5.13Q72.25 5.13 72.75 5.13L72.75 5.13Q73 5.25 73.19 5.25Q73.38 5.25 73.38 5.25L73.38 5.25ZM43.38 9.63L43.38 9.63Q43.50 9.75 43.88 14.50Q44.25 19.25 44.88 26.25L44.88 26.25Q45 28.63 45.19 30.50Q45.38 32.38 45.38 32.75L45.38 32.75Q45.50 33.13 45.44 33.31Q45.38 33.50 45 33.63L45 33.63Q44.88 33.75 44.69 33.81Q44.50 33.88 44.50 33.88L44.50 33.88Q44.50 33.88 44.44 33.69Q44.38 33.50 44.38 33.13L44.38 33.13Q44.25 31.88 43.81 26.88Q43.38 21.88 43 17.50L43 17.50Q42.63 12.38 42.44 10.06Q42.25 7.75 42.13 6L42.13 6L42.38 10.50Q42.38 10.13 42.38 10Q42.38 9.88 42.75 9.75L42.75 9.75Q43 9.63 43.19 9.56Q43.38 9.50 43.38 9.63L43.38 9.63ZM79.13 12.25L79.13 12.25Q79.38 12.38 79.44 12.50Q79.50 12.63 79.63 13.25L79.63 13.25Q79.63 14.13 79.63 17.38Q79.63 20.63 79.50 20.63L79.50 20.63Q79.25 20.63 78.81 20.38Q78.38 20.13 78.25 20L78.25 20Q78.25 19.88 78.25 18.69Q78.25 17.50 78.25 15.88L78.25 15.88Q78.25 12.75 78.31 12.38Q78.38 12 79.13 12.25L79.13 12.25ZM55.13 12.88L55.13 12.88Q55.13 13.13 55.19 14.38Q55.25 15.63 55.38 17.13L55.38 17.13Q55.38 18.75 55.50 20.44Q55.63 22.13 55.63 22.88L55.63 22.88Q55.75 24.63 55.63 24.88Q55.50 25.13 54.88 25.13L54.88 25.13Q54.50 25.13 54.50 25.06Q54.50 25 54.38 24.50L54.38 24.50Q54.38 24.25 54.38 23.50Q54.38 22.75 54.25 22L54.25 22Q54.25 21.25 54.13 19.75Q54 18.25 53.88 17L53.88 17Q53.88 15.75 53.81 14.63Q53.75 13.50 53.63 13.25L53.63 13.25Q53.63 12.75 53.63 12.63Q53.63 12.50 54 12.38L54 12.38Q54.13 12.38 54.38 12.31Q54.63 12.25 54.75 12.25L54.75 12.25Q55 12.25 55.06 12.31Q55.13 12.38 55.13 12.88L55.13 12.88ZM91.13 14.63L91.13 14.63L91.50 14.88L91.63 16.50Q91.63 17.25 91.69 18.63Q91.75 20 91.63 21.13L91.63 21.13L91.63 23.88L91.13 23.63L90.50 23.38L90.50 19.13Q90.50 17.25 90.50 15.94Q90.50 14.63 90.50 14.63L90.50 14.63Q90.50 14.50 90.63 14.50Q90.75 14.50 91.13 14.63L91.13 14.63ZM67.50 16.38L67.50 16.38Q67.50 16.38 67.63 19.94Q67.75 23.50 67.75 25.88L67.75 25.88L67.75 27.75L67.13 27.75Q66.88 27.63 66.69 27.63Q66.50 27.63 66.50 27.63L66.50 27.63Q66.50 27.63 66.25 22.69Q66 17.75 66 17.13L66 17.13L66 16.13L66.75 16.13Q67 16.25 67.19 16.25Q67.38 16.25 67.50 16.38ZM97.25 17.25L97.25 17.25Q97.38 17.38 97.44 20.81Q97.50 24.25 97.50 35.88L97.50 35.88Q97.50 49.38 97.50 51.88Q97.50 54.38 97.38 54.38L97.38 54.38Q97.13 54.38 97.06 54.31Q97 54.25 96.88 54.13L96.88 54.13L96.88 54.25Q96.75 54.13 96.69 51.38Q96.63 48.63 96.63 37.13L96.63 37.13Q96.50 30.13 96.50 24.63Q96.50 19.13 96.38 18.38L96.38 18.38L96.38 16.50L96.75 16.75Q96.88 16.88 97 17Q97.13 17.13 97.25 17.25L97.25 17.25ZM85.63 19.88L85.63 19.88Q85.75 20 85.75 20.44Q85.75 20.88 85.75 21.50L85.75 21.50Q85.88 23.75 85.88 32.88Q85.88 42 85.88 42L85.88 42Q85.75 42 85.63 42Q85.50 42 85.25 41.88L85.25 41.88L84.88 41.63L84.88 19.63L85.25 19.75Q85.38 19.75 85.50 19.81Q85.63 19.88 85.63 19.88L85.63 19.88ZM49.88 20.63L49.88 20.63Q49.88 20.88 49.94 21.44Q50 22 50 22.38L50 22.38Q50.13 22.88 50.19 23.81Q50.25 24.75 50.25 25.63L50.25 25.63Q50.38 27.38 50.31 27.75Q50.25 28.13 49.63 28.13L49.63 28.13Q49.38 28.13 49.31 28Q49.25 27.88 49.13 27.63L49.13 27.63Q49 27.13 48.81 23.81Q48.63 20.50 48.63 20.38L48.63 20.38Q48.63 20.38 49.06 20.25Q49.50 20.13 49.63 20L49.63 20Q49.75 20 49.81 20.19Q49.88 20.38 49.88 20.63ZM28.50 24L28.50 24Q28.63 25 28.81 26.88Q29 28.75 29.13 30.38L29.13 30.38Q29.25 31.88 29.38 33.06Q29.50 34.25 29.50 34.38L29.50 34.38Q29.50 34.50 29 34.75Q28.50 35 28.38 34.88L28.38 34.88Q28.38 34.88 27.69 29.06Q27 23.25 27 22.88L27 22.88Q27 22.63 27.56 21.94Q28.13 21.25 28.13 21.38L28.13 21.38Q28.25 21.38 28.31 22.13Q28.38 22.88 28.50 24ZM79.25 25.25L79.25 25.25L79.63 25.50L79.63 28.38Q79.63 29.50 79.69 30.63Q79.75 31.75 79.75 32.13L79.75 32.13Q79.75 33 79.56 33.19Q79.38 33.38 78.88 33.25L78.88 33.25L78.50 33.13L78.50 32Q78.50 31.50 78.44 30.31Q78.38 29.13 78.38 28L78.38 28L78.38 25.13L78.63 25.13Q78.75 25.13 78.94 25.19Q79.13 25.25 79.25 25.25L79.25 25.25ZM34.13 30.38L34.13 30.38Q34.38 32.25 34.63 34.94Q34.88 37.63 35 39.63L35 39.63L35.50 44.50L35 45L34.50 45.50L34.38 44.50Q34.38 44 34.19 42.25Q34 40.50 33.75 38.50L33.75 38.50Q34 41.38 33.81 40Q33.63 38.63 33.50 36.50L33.50 36.50L32.88 30L32.63 26.25L33.13 25.75Q33.38 25.50 33.50 25.44Q33.63 25.38 33.63 25.50L33.63 25.50Q33.75 25.63 33.88 27.06Q34 28.50 34.13 30.38L34.13 30.38ZM24.50 31.88L24.50 31.88Q24.63 33.75 25.13 38.19Q25.63 42.63 26.13 47L26.13 47Q26.63 51.25 27 54.88Q27.38 58.50 27.50 59.25L27.50 59.25Q27.63 60 27.75 61.06Q27.88 62.13 27.88 62.75L27.88 62.75Q28 63.88 28 64.19Q28 64.50 27.88 64.50L27.88 64.50Q27.63 64.75 27.56 64.75Q27.50 64.75 27.50 64.50L27.50 64.50Q27.50 64.38 27.38 63.75Q27.25 63.13 27.13 62.38L27.13 62.38Q27 61 26.69 58.44Q26.38 55.88 25.75 50.75L25.75 50.75Q25.75 52.25 25.63 51.19Q25.50 50.13 25.38 48.63L25.38 48.63L24.88 44.75Q24.75 43.25 24.50 41.38Q24.25 39.50 24.13 38.25L24.13 38.25Q23.88 37.13 23.69 35.31Q23.50 33.50 23.25 32.13L23.25 32.13Q23.13 30.88 23 29.81Q22.88 28.75 23 28.63L23 28.63Q23 28.38 23.44 27.75Q23.88 27.13 23.88 27.13L23.88 27.13Q23.88 27.25 24.06 28.63Q24.25 30 24.50 31.88L24.50 31.88ZM20.50 37.50L20.50 37.50Q20.63 38.63 20.88 40.50Q21.13 42.38 21.25 43.75L21.25 43.75Q21.50 45.25 21.69 46.81Q21.88 48.38 22 49.13L22 49.13L22.25 50.88L22 51.13Q21.88 51.25 21.75 51.31Q21.63 51.38 21.63 51.25L21.63 51.25Q21.63 51.25 21.50 50.94Q21.38 50.63 21.38 50.13L21.38 50.13Q21.38 49.75 21 47.56Q20.63 45.38 20.25 42.75L20.25 42.75L19.38 36.38L19.63 35.50Q19.75 35.13 19.88 34.88Q20 34.63 20 34.63L20 34.63Q20.13 34.63 20.25 35.50Q20.38 36.38 20.50 37.50ZM91.63 35.75L91.63 35.75Q91.75 35.88 91.81 37.06Q91.88 38.25 91.88 42.75L91.88 42.75L91.88 49.50L91.50 49.50Q90.88 49.50 90.75 48.63Q90.63 47.75 90.63 42.25L90.63 42.25L90.63 35.63L91 35.63Q91.13 35.63 91.31 35.69Q91.50 35.75 91.63 35.75ZM63.25 38.13L63.25 38.13Q65.50 38.38 67.44 39Q69.38 39.63 71.25 40.63L71.25 40.63Q72.50 41.25 73.31 41.88Q74.13 42.50 75.50 43.88L75.50 43.88Q77.50 45.75 78.88 47.63Q80.25 49.50 81.38 51.88L81.38 51.88Q83.13 55.38 84 59.38Q84.88 63.38 85.63 71.63L85.63 71.63Q86 75.25 86.44 80.81Q86.88 86.38 87 89.13L87 89.13Q87 90 87.06 91.13Q87.13 92.25 87.13 93L87.13 93Q87.25 94.75 87.13 95Q87 95.25 85.50 96L85.50 96Q83.38 97 81.25 97.75Q79.13 98.50 76.50 99.13L76.50 99.13Q73.25 99.88 70.75 100.19Q68.25 100.50 65.13 100.50L65.13 100.50L62 100.50L62 99Q62 98.50 62.06 97.25Q62.13 96 62.13 94.88L62.13 94.88Q62.50 89.38 62.44 83.31Q62.38 77.25 62 73.50L62 73.50Q61.75 71.25 61.38 69.06Q61 66.88 60.75 66.25L60.75 66.25Q60.75 66.13 61.06 66Q61.38 65.88 62.38 65.50L62.38 65.50Q64.13 64.88 65.44 64.19Q66.75 63.50 67 63.13L67 63.13Q67.38 62.50 66.81 61.69Q66.25 60.88 65.25 60.88L65.25 60.88Q65.13 60.88 64.69 61Q64.25 61.13 63.75 61.38L63.75 61.38Q61.63 62.38 57.94 63.38Q54.25 64.38 51.75 64.63L51.75 64.63Q50 64.75 47.56 64.69Q45.13 64.63 43.25 64.25L43.25 64.25Q42.25 64 40.63 63.44Q39 62.88 37.50 62L37.50 62Q35.75 61.13 34.69 59.94Q33.63 58.75 33.25 57.25L33.25 57.25Q33.13 56.50 33.13 55.19Q33.13 53.88 33.38 53L33.38 53Q33.63 52 34.25 50.81Q34.88 49.63 35.50 48.75L35.50 48.75Q38.25 45.13 43.50 42.25Q48.75 39.38 54.63 38.25L54.63 38.25Q56.50 37.88 58.88 37.81Q61.25 37.75 63.25 38.13L63.25 38.13ZM103.25 38.50L103.25 38.50Q103.63 38.63 103.69 38.75Q103.75 38.88 103.75 39.25L103.75 39.25Q103.75 41.88 103.69 46.38Q103.63 50.88 103.63 51.13L103.63 51.13Q103.63 51.25 103.25 51.25Q102.88 51.25 102.63 51.13L102.63 51.13Q102.50 51.13 102.50 50.06Q102.50 49 102.50 44.75L102.50 44.75Q102.50 41.63 102.50 39.94Q102.50 38.25 102.63 38.25L102.63 38.25Q102.63 38.25 102.81 38.31Q103 38.38 103.25 38.50L103.25 38.50ZM108.88 45.63L108.88 45.63L109.38 45.88L109.25 56.50Q109.25 66.75 109.13 68.81Q109 70.88 108.63 71.75L108.63 71.75Q108 73.25 107.94 72.63Q107.88 72 108 65.63L108 65.63Q108 62.50 108.06 59.69Q108.13 56.88 108.13 56.13L108.13 56.13Q108.13 55.38 108.13 53.56Q108.13 51.75 108.13 49.88L108.13 49.88Q108.13 47.63 108.19 46.50Q108.25 45.38 108.25 45.38L108.25 45.38Q108.38 45.38 108.56 45.44Q108.75 45.50 108.88 45.63L108.88 45.63ZM31 48.88L31 48.88Q31 49.63 30.94 49.94Q30.88 50.25 30.63 50.88L30.63 50.88L30.25 51.75L30.13 50.38Q29.88 48.88 29.94 48.50Q30 48.13 30.38 47.88L30.38 47.88Q30.50 47.88 30.63 47.75Q30.75 47.63 30.88 47.75L30.88 47.75Q30.88 47.75 30.94 48.06Q31 48.38 31 48.88L31 48.88ZM23 56.63L23 56.63Q23 57.50 23.56 61.56Q24.13 65.63 24.50 68.25L24.50 68.25Q25 72.25 25.06 73.25Q25.13 74.25 24.88 74L24.88 74Q24.88 74 24.69 72.81Q24.50 71.63 24.25 70L24.25 70Q22.75 59.50 22.50 57.81Q22.25 56.13 22.38 56L22.38 56Q22.63 55.88 22.75 56Q22.88 56.13 23 56.63ZM32.25 62.63L32.25 62.63Q32.38 62.88 32.56 64.69Q32.75 66.50 32.75 66.88L32.75 66.88Q32.75 67.13 32.50 67.31Q32.25 67.50 32.13 67.38L32.13 67.38Q32 67.25 31.88 66.56Q31.75 65.88 31.75 64.88L31.75 64.88Q31.63 64 31.50 63.13Q31.38 62.25 31.38 62L31.38 62L31.38 61.25L31.75 61.88Q32 62 32.13 62.25Q32.25 62.50 32.25 62.63L32.25 62.63ZM42.75 67.50L42.75 67.50Q42.88 67.63 42.94 68.06Q43 68.50 43.13 69.50L43.13 69.50Q43.25 71.38 43.25 71.63Q43.25 71.88 42.75 71.88L42.75 71.88Q42.38 71.88 42.31 71.63Q42.25 71.38 42.13 69.63L42.13 69.63Q42 67.88 42 67.63Q42 67.38 42.25 67.38L42.25 67.38Q42.38 67.38 42.50 67.38Q42.63 67.38 42.75 67.50L42.75 67.50ZM53 67.63L53 67.63Q53 67.75 53.06 68.25Q53.13 68.75 53.13 69.38L53.13 69.38Q53.13 70 53.25 71.19Q53.38 72.38 53.38 73.50L53.38 73.50Q53.63 77.38 53.69 78.38Q53.75 79.38 53.63 79.38L53.63 79.38Q53.38 79.38 53.31 78.81Q53.25 78.25 53 75.50L53 75.50Q52.88 73.50 52.75 72Q52.63 70.50 52.50 69.13L52.50 69.13L52.63 70.13Q52.50 69.13 52.44 68.31Q52.38 67.50 52.38 67.50L52.38 67.50Q52.50 67.38 52.75 67.44Q53 67.50 53 67.63L53 67.63ZM28.63 70.13L28.63 70.13Q28.75 70.25 29.06 73.06Q29.38 75.88 29.88 80.13L29.88 80.13Q30 81.38 30.13 82.44Q30.25 83.50 30.25 83.75L30.25 83.75L30.25 84.25L30 84.13Q29.75 84 29.69 83.81Q29.63 83.63 29.63 83.50L29.63 83.50Q29.63 82.88 29.31 79.69Q29 76.50 28.63 74L28.63 74Q28.50 72.63 28.38 71.50Q28.25 70.38 28.25 70.25L28.25 70.25Q28.25 70.13 28.44 70.06Q28.63 70 28.63 70.13ZM103.38 75.63L103.38 75.63L103.38 81L103 81.50Q102.50 82.25 102.44 81.75Q102.38 81.25 102.38 76.75L102.38 76.75L102.38 71.13L102.88 70.63Q103 70.50 103.19 70.31Q103.38 70.13 103.38 70.13L103.38 70.13Q103.50 70.13 103.50 71.75Q103.50 73.38 103.38 75.63L103.38 75.63ZM91.50 84.13L91.50 84.13Q91.50 89.75 91.44 91.06Q91.38 92.38 91.25 92.50L91.25 92.50Q91.13 92.63 91.06 92.69Q91 92.75 91 92.75L91 92.75Q90.88 92.63 90.81 84.38Q90.75 76.13 90.88 76.13L90.88 76.13Q90.88 76 91 76Q91.13 76 91.13 76L91.13 76Q91.25 76 91.31 77.38Q91.38 78.75 91.50 84.13L91.50 84.13ZM49.13 79L49.13 79Q49.25 79.63 49.44 81.88Q49.63 84.13 49.63 85.50L49.63 85.50Q49.75 86.38 49.69 86.56Q49.63 86.75 49.50 86.88L49.50 86.88Q49.38 86.88 49.25 86.88Q49.13 86.88 49.13 86.75L49.13 86.75Q49 86.75 48.81 84.75Q48.63 82.75 48.38 79.38L48.38 79.38L48.25 78.38L48.63 78.38Q49 78.38 49.06 78.44Q49.13 78.50 49.13 79ZM39 83.50L39 83.50Q39 83.63 39.06 83.81Q39.13 84 39.13 84.25L39.13 84.25Q39.13 84.50 39.19 85.69Q39.25 86.88 39.38 88.13L39.38 88.13Q39.75 91.88 39.81 92.81Q39.88 93.75 39.75 93.63L39.75 93.63Q39.50 93.50 39.31 93.31Q39.13 93.13 39.13 93.13L39.13 93.13Q39.13 93.13 39.13 92.69Q39.13 92.25 39 91.63L39 91.63Q39 91.25 38.94 90.56Q38.88 89.88 38.75 89.25L38.75 89.25L38.75 89Q38.75 88.38 38.69 87.50Q38.63 86.63 38.50 85.88L38.50 85.88Q38.38 84.25 38.38 83.81Q38.38 83.38 38.50 83.38L38.50 83.38Q38.63 83.38 38.75 83.44Q38.88 83.50 39 83.50L39 83.50ZM45.13 92.25L45.13 92.25Q45.13 92.50 45.19 93.19Q45.25 93.88 45.25 94.63L45.25 94.63Q45.25 96.13 45.19 96.38Q45.13 96.63 44.75 96.25L44.75 96.25Q44.63 96.25 44.56 95.81Q44.50 95.38 44.38 94.25L44.38 94.25Q44.13 92.25 44.19 91.94Q44.25 91.63 44.63 91.75L44.63 91.75Q44.88 91.75 44.94 91.81Q45 91.88 45.13 92.25L45.13 92.25ZM39.50 44.50L39.50 44.50Q38.50 45 38.44 46.25Q38.38 47.50 39.25 48.13L39.25 48.13Q40 48.50 40.63 48.31Q41.25 48.13 41.63 47.38L41.63 47.38Q42.38 46.13 41.50 45Q40.63 43.88 39.50 44.50ZM48.38 46L48.38 46Q47.38 46.63 47.38 47.94Q47.38 49.25 48.38 49.88L48.38 49.88Q49.25 50.63 50.25 49.94Q51.25 49.25 51.25 47.88L51.25 47.88Q51.25 46.63 50.25 46Q49.25 45.38 48.38 46ZM12.75 99.13L9.63 99.13L9.63 119.50L12.75 119.50Q15.38 119.50 17.38 118.88Q19.38 118.25 20.75 116.88L20.75 116.88Q22.13 115.63 22.88 113.69Q23.63 111.75 23.63 109.25L23.63 109.25Q23.63 106.75 22.94 104.88Q22.25 103 20.75 101.75L20.75 101.75Q19.38 100.38 17.38 99.75Q15.38 99.13 12.75 99.13L12.75 99.13ZM1 126L1 92.63L10.13 92.63Q13.88 92.63 16.75 92.88Q19.63 93.13 21.50 93.63L21.50 93.63Q23.38 94.25 24.94 95.13Q26.50 96 27.88 97.38L27.88 97.38Q29 98.50 29.88 99.81Q30.75 101.13 31.38 102.63L31.38 102.63Q31.88 104 32.19 105.69Q32.50 107.38 32.50 109.25L32.50 109.25Q32.50 111.13 32.19 112.81Q31.88 114.50 31.38 116L31.38 116Q30.75 117.50 29.88 118.81Q29 120.13 27.88 121.25L27.88 121.25Q26.50 122.63 24.88 123.50Q23.25 124.38 21.38 125L21.38 125Q19.50 125.50 16.69 125.75Q13.88 126 10.13 126L10.13 126L1 126ZM63 113.63L63 113.63L63 116L44.50 116Q44.63 117.38 45.13 118.44Q45.63 119.50 46.50 120.25L46.50 120.25Q47.38 120.88 48.56 121.25Q49.75 121.63 51.38 121.63L51.38 121.63Q52.63 121.63 53.88 121.44Q55.13 121.25 56.50 120.88L56.50 120.88Q57.75 120.50 59.13 119.94Q60.50 119.38 61.88 118.63L61.88 118.63L61.88 124.88Q60.63 125.38 59.25 125.75Q57.88 126.13 56.50 126.38L56.50 126.38L56.25 126.50Q55 126.75 53.56 126.88Q52.13 127 50.63 127L50.63 127L50.63 127Q47.25 127 44.63 126.13Q42 125.25 40.13 123.50L40.13 123.50Q38.25 121.75 37.31 119.31Q36.38 116.88 36.38 113.75L36.38 113.75Q36.38 110.63 37.31 108.19Q38.25 105.75 40.13 104L40.13 104Q41.88 102.25 44.44 101.38Q47 100.50 50.13 100.50L50.13 100.50Q53.13 100.50 55.44 101.38Q57.75 102.25 59.50 104L59.50 104Q61.25 105.88 62.13 108.25Q63 110.63 63 113.63L63 113.63ZM44.63 111L54.88 111Q54.88 109.75 54.56 108.88Q54.25 108 53.50 107.25L53.50 107.25Q52.88 106.50 52 106.19Q51.13 105.88 50.13 105.88L50.13 105.88Q49 105.88 48.06 106.19Q47.13 106.50 46.38 107.13L46.38 107.13Q45.63 107.75 45.19 108.75Q44.75 109.75 44.63 111L44.63 111ZM94.50 110.88L94.50 110.88L94.50 126L86.38 126L86.38 114.38Q86.38 112.75 86.31 111.63Q86.25 110.50 86.25 109.88L86.25 109.88Q86.13 109.25 86 108.81Q85.88 108.38 85.63 108.13L85.63 108.13Q85.50 107.75 85.13 107.44Q84.75 107.13 84.38 106.88L84.38 106.88L84.38 106.88Q84 106.63 83.50 106.56Q83 106.50 82.50 106.50L82.50 106.50Q81.25 106.50 80.25 106.94Q79.25 107.38 78.50 108.38L78.50 108.38Q77.75 109.38 77.44 110.69Q77.13 112 77.13 113.75L77.13 113.75L77.13 126L68.88 126L68.88 101L77 101L77 104.75Q78 103.63 79 102.81Q80 102 81 101.50L81 101.50Q82 101 83.13 100.75Q84.25 100.50 85.50 100.50L85.50 100.50Q87.75 100.50 89.44 101.13Q91.13 101.75 92.25 103.13L92.25 103.13Q93.38 104.38 93.94 106.31Q94.50 108.25 94.50 110.88L94.50 110.88ZM113.25 106.25L113.25 106.25Q112 106.25 110.94 106.75Q109.88 107.25 109.25 108.13L109.25 108.13Q108.50 109.13 108.19 110.50Q107.88 111.88 107.88 113.75L107.88 113.75Q107.88 115.50 108.19 116.94Q108.50 118.38 109.25 119.38L109.25 119.38Q109.88 120.25 110.94 120.75Q112 121.25 113.25 121.25L113.25 121.25Q114.63 121.25 115.63 120.75Q116.63 120.25 117.25 119.38L117.25 119.38Q118 118.38 118.31 116.94Q118.63 115.50 118.63 113.75L118.63 113.75Q118.63 111.88 118.31 110.50Q118 109.13 117.25 108.13L117.25 108.13Q116.63 107.25 115.63 106.75Q114.63 106.25 113.25 106.25L113.25 106.25ZM113.25 100.50L113.25 100.50Q116.50 100.50 119 101.38Q121.50 102.25 123.38 104L123.38 104Q125.25 105.75 126.13 108.19Q127 110.63 127 113.75L127 113.75Q127 116.88 126.13 119.31Q125.25 121.75 123.38 123.50L123.38 123.50Q121.50 125.25 119 126.13Q116.50 127 113.25 127L113.25 127Q110 127 107.50 126.13Q105 125.25 103.13 123.50L103.13 123.50Q101.25 121.75 100.38 119.31Q99.50 116.88 99.50 113.75L99.50 113.75Q99.50 110.63 100.38 108.19Q101.25 105.75 103.13 104L103.13 104Q105 102.25 107.50 101.38Q110 100.50 113.25 100.50Z"/></svg>