<svg xmlns="http://www.w3.org/2000/svg" xmlns:xlink="http://www.w3.org/1999/xlink" width="128" height="128"><path fill="#000000" d="M59 13.38L59 13.38Q58.88 13.38 58.38 13.44Q57.88 13.50 57.38 13.50L57.38 13.50Q50 14.25 43 17.25Q36 20.25 30.13 25.25L30.13 25.25Q29 26.13 27 28.13Q25 30.13 24.13 31.25L24.13 31.25Q19.25 37 16.38 43.63Q13.50 50.25 12.38 58L12.38 58Q12.13 59.75 12.13 64.19Q12.13 68.63 12.38 70.25L12.38 70.25Q13.50 78 16.38 84.63Q19.25 91.25 24.13 97.13L24.13 97.13Q25 98.13 27 100.13Q29 102.13 30.13 103L30.13 103Q35.88 107.88 42.50 110.81Q49.13 113.75 56.88 114.75L56.88 114.75Q58.63 115 63.06 115Q67.50 115 69.13 114.75L69.13 114.75Q76.88 113.75 83.50 110.81Q90.13 107.88 96 103L96 103Q97 102.13 99 100.13Q101 98.13 101.88 97.13L101.88 97.13Q106.75 91.25 109.69 84.63Q112.63 78 113.63 70.25L113.63 70.25Q113.88 68.63 113.88 64.19Q113.88 59.75 113.63 58L113.63 58Q112.63 50.25 109.69 43.63Q106.75 37 101.88 31.25L101.88 31.25Q101 30.13 99 28.13Q97 26.13 96 25.25L96 25.25Q90.13 20.38 83.50 17.50Q76.88 14.63 69.25 13.50L69.25 13.50Q68.38 13.50 67.06 13.44Q65.75 13.38 63.63 13.38L63.63 13.38Q61.88 13.25 60.56 13.25Q59.25 13.25 59 13.38L59 13.38ZM59.63 17.75L59.63 18.75Q59.63 19.88 59.69 22Q59.75 24.13 59.88 26.38L59.88 26.38Q59.88 27.50 59.94 28.88Q60 30.25 60.13 31.13L60.13 31.13Q60.13 34 60.38 39.75Q60.63 45.50 60.75 46.13L60.75 46.13L60.75 47L60.25 47Q60 47 59.81 46.94Q59.63 46.88 59.50 46.88L59.50 46.88Q59.50 46.75 59.44 46.19Q59.38 45.63 59.38 44.88L59.38 44.88Q59.25 41.63 58.81 32.06Q58.38 22.50 58.38 20.63L58.38 20.63L58.25 17.88L58.63 17.88Q58.75 17.88 58.94 17.81Q59.13 17.75 59.25 17.75L59.25 17.75L59.63 17.75ZM71.63 18.38L71.63 18.38Q71.63 18.50 71.63 20.94Q71.63 23.38 71.75 26.88L71.75 26.88Q71.75 30.25 71.81 32.94Q71.88 35.63 71.88 36L71.88 36Q71.88 36.38 71.88 36.63Q71.88 36.88 71.75 36.88L71.75 36.88Q71.75 36.88 71.56 36.88Q71.38 36.88 71.13 36.88L71.13 36.88L70.50 36.88L70.50 33.25Q70.38 31.25 70.38 29.81Q70.38 28.38 70.25 27.13L70.25 27.13L70.38 28.25Q70.25 26.63 70.19 22.56Q70.13 18.50 70.25 18.38L70.25 18.38Q70.25 18.25 70.38 18.25Q70.50 18.25 70.88 18.25L70.88 18.25Q71.25 18.38 71.44 18.38Q71.63 18.38 71.63 18.38ZM42.63 22.63L42.63 22.63Q42.75 22.75 43.13 27.31Q43.50 31.88 44.13 38.63L44.13 38.63Q44.25 40.88 44.38 42.75Q44.50 44.63 44.63 44.88L44.63 44.88Q44.63 45.38 44.56 45.50Q44.50 45.63 44.25 45.75L44.25 45.75Q44.13 45.88 43.94 45.94Q43.75 46 43.75 46L43.75 46Q43.75 46 43.69 45.81Q43.63 45.63 43.63 45.25L43.63 45.25Q43.50 44.13 43.06 39.25Q42.63 34.38 42.25 30.13L42.25 30.13Q42 27.63 41.88 25.69Q41.75 23.75 41.75 23.50L41.75 23.50Q41.63 23.13 41.69 23Q41.75 22.88 42 22.75L42 22.75Q42.25 22.50 42.44 22.50Q42.63 22.50 42.63 22.63L42.63 22.63ZM77.13 25.13L77.13 25.13Q77.38 25.25 77.44 25.38Q77.50 25.50 77.63 26L77.63 26Q77.63 27 77.63 30.13Q77.63 33.25 77.50 33.25L77.50 33.25Q77.25 33.25 76.81 33Q76.38 32.75 76.38 32.63L76.38 32.63Q76.38 32.50 76.31 31.31Q76.25 30.13 76.25 28.63L76.25 28.63Q76.25 25.63 76.38 25.25Q76.50 24.88 77.13 25.13ZM54 25.75L54 25.75Q54 26 54.06 27.19Q54.13 28.38 54.25 29.88L54.25 29.88Q54.25 31.38 54.31 33Q54.38 34.63 54.50 35.38L54.50 35.38Q54.50 37 54.44 37.25Q54.38 37.50 53.75 37.50L53.75 37.50Q53.38 37.63 53.38 37.50Q53.38 37.38 53.25 37L53.25 37Q53.25 36.63 53.25 35.94Q53.25 35.25 53.13 34.50L53.13 34.50Q53.13 33.75 53 32.31Q52.88 30.88 52.88 29.75L52.88 29.75Q52.75 28.50 52.69 27.50Q52.63 26.50 52.50 25.63L52.50 25.63L52.63 26Q52.50 25.63 52.56 25.50Q52.63 25.38 52.88 25.25L52.88 25.25Q53 25.25 53.25 25.19Q53.50 25.13 53.63 25.13L53.63 25.13Q53.88 25.13 53.94 25.19Q54 25.25 54 25.75L54 25.75ZM88.75 27.38L88.75 27.38L89.13 27.63L89.25 29.25Q89.25 30 89.25 31.25Q89.25 32.50 89.25 33.63L89.25 33.63L89.25 36.38L88.63 36.13L88.13 35.88L88.13 31.75Q88.13 30 88.13 28.75Q88.13 27.50 88.13 27.38L88.13 27.38Q88.13 27.25 88.19 27.25Q88.25 27.25 88.75 27.38ZM65.88 29.13L65.88 29.13Q65.88 29.13 66 32.56Q66.13 36 66.13 38.25L66.13 38.25L66.13 40.13L65.50 40Q65.25 40 65.13 40Q65 40 64.88 40L64.88 40Q64.88 40 64.69 35.25Q64.50 30.50 64.50 29.75L64.50 29.75L64.50 28.88L65.13 28.88Q65.38 29 65.63 29Q65.88 29 65.88 29.13ZM94.63 30L94.63 30Q94.75 30.13 94.81 33.38Q94.88 36.63 94.88 48L94.88 48Q94.88 61 94.88 63.38Q94.88 65.75 94.63 65.75L94.63 65.75Q94.50 65.75 94.44 65.69Q94.38 65.63 94.25 65.63L94.25 65.63L94.25 65.63Q94.13 65.50 94.06 62.88Q94 60.25 94 49.13L94 49.13Q93.88 42.38 93.88 37.06Q93.88 31.75 93.88 31L93.88 31L93.75 29.25L94.13 29.50Q94.25 29.63 94.44 29.75Q94.63 29.88 94.63 30ZM83.50 32.50L83.50 32.50Q83.50 32.50 83.56 33Q83.63 33.50 83.63 34.13L83.63 34.13Q83.63 36.13 83.63 45Q83.63 53.88 83.63 53.88L83.63 53.88Q83.63 53.88 83.44 53.81Q83.25 53.75 83.13 53.75L83.13 53.75L82.63 53.50L82.63 32.25L83 32.38Q83.13 32.38 83.25 32.44Q83.38 32.50 83.50 32.50L83.50 32.50ZM49 33.25L49 33.25Q49 33.50 49 34Q49 34.50 49.13 35L49.13 35Q49.13 35.38 49.19 36.31Q49.25 37.25 49.25 38L49.25 38Q49.38 39.75 49.31 40.06Q49.25 40.38 48.63 40.38L48.63 40.38Q48.38 40.38 48.31 40.31Q48.25 40.25 48.25 40L48.25 40Q48.13 39.38 47.88 36.19Q47.63 33 47.75 33L47.75 33Q47.75 32.88 48.13 32.75Q48.50 32.63 48.75 32.63L48.75 32.63Q48.75 32.63 48.81 32.81Q48.88 33 49 33.25L49 33.25ZM28.25 36.38L28.25 36.38Q28.38 37.38 28.56 39.19Q28.75 41 28.88 42.63L28.88 42.63Q29 44.13 29.13 45.25Q29.25 46.38 29.25 46.50L29.25 46.50Q29.25 46.63 28.75 46.81Q28.25 47 28.25 47L28.25 47Q28.13 47 27.50 41.38Q26.88 35.75 26.88 35.38L26.88 35.38Q26.88 35.13 27.38 34.50Q27.88 33.88 28 33.88L28 33.88Q28 34 28.06 34.69Q28.13 35.38 28.25 36.38ZM77.25 37.75L77.25 37.75L77.63 37.88L77.63 40.63Q77.63 41.75 77.69 42.81Q77.75 43.88 77.75 44.25L77.75 44.25Q77.75 45.13 77.56 45.31Q77.38 45.50 76.88 45.38L76.88 45.38L76.50 45.25L76.50 44.13Q76.50 43.75 76.50 42.63Q76.50 41.50 76.38 40.25L76.38 40.25L76.38 37.50L76.63 37.50Q76.75 37.50 76.94 37.56Q77.13 37.63 77.25 37.75ZM33.75 42.63L33.75 42.63Q33.88 44.38 34.13 47Q34.38 49.63 34.63 51.63L34.63 51.63L35 56.25L34.50 56.63L34 57.13L34 56.13Q33.88 55.75 33.75 54.13Q33.63 52.50 33.38 50.50L33.38 50.50Q33.50 53.13 33.38 51.75Q33.25 50.38 33 48.25L33 48.25L32.50 42.25L32.25 38.63L32.75 38.13Q33 37.88 33.13 37.81Q33.25 37.75 33.25 38L33.25 38Q33.25 38 33.44 39.38Q33.63 40.75 33.75 42.63L33.75 42.63ZM24.38 44.13L24.38 44.13Q24.63 45.88 25.06 50.19Q25.50 54.50 26 58.63L26 58.63Q26.50 62.75 26.88 66.25Q27.25 69.75 27.38 70.50L27.38 70.50Q27.38 71.25 27.50 72.25Q27.63 73.25 27.75 73.88L27.75 73.88Q27.88 75 27.88 75.25Q27.88 75.50 27.63 75.63L27.63 75.63Q27.50 75.75 27.38 75.75Q27.25 75.75 27.25 75.50L27.25 75.50Q27.25 75.50 27.19 74.88Q27.13 74.25 27 73.50L27 73.50Q26.88 72.13 26.56 69.69Q26.25 67.25 25.63 62.38L25.63 62.38Q25.75 63.75 25.56 62.75Q25.38 61.75 25.25 60.25L25.25 60.25L24.88 56.50Q24.63 55.13 24.38 53.25Q24.13 51.38 24 50.25L24 50.25Q23.88 49.13 23.63 47.38Q23.38 45.63 23.25 44.38L23.25 44.38Q23.13 43.13 23 42.13Q22.88 41.13 22.88 41L22.88 41Q23 40.75 23.38 40.13Q23.75 39.50 23.88 39.50L23.88 39.50Q23.88 39.50 24 40.88Q24.13 42.25 24.38 44.13L24.38 44.13ZM20.50 49.50L20.50 49.50Q20.75 50.63 20.94 52.38Q21.13 54.13 21.38 55.63L21.38 55.63Q21.50 57 21.69 58.50Q21.88 60 22 60.75L22 60.75L22.25 62.50L22 62.63Q21.88 62.75 21.75 62.81Q21.63 62.88 21.63 62.75L21.63 62.75Q21.63 62.75 21.56 62.44Q21.50 62.13 21.38 61.75L21.38 61.75Q20.63 55.88 20.31 53.38Q20 50.88 19.63 49L19.63 49L20.38 54.63L19.50 48.50L19.75 47.63Q19.88 47.25 20 47Q20.13 46.75 20.13 46.75L20.13 46.75Q20.13 46.75 20.25 47.56Q20.38 48.38 20.50 49.50L20.50 49.50ZM89.25 47.88L89.25 47.88Q89.38 48 89.38 49.13Q89.38 50.25 89.38 54.50L89.38 54.50L89.38 61L89 61Q88.50 61 88.38 60.19Q88.25 59.38 88.25 54.13L88.25 54.13L88.25 47.63L88.63 47.63Q88.75 47.63 88.94 47.69Q89.13 47.75 89.25 47.88ZM61.88 50.13L61.88 50.13Q64 50.38 65.88 51Q67.75 51.63 69.50 52.50L69.50 52.50Q70.75 53.13 71.56 53.75Q72.38 54.38 73.63 55.63L73.63 55.63Q75.63 57.50 76.94 59.25Q78.25 61 79.38 63.38L79.38 63.38Q81 66.63 81.81 70.50Q82.63 74.38 83.50 82.38L83.50 82.38Q83.75 86 84.19 91.31Q84.63 96.63 84.75 99.38L84.75 99.38Q84.75 100.13 84.81 101.19Q84.88 102.25 84.88 103.13L84.88 103.13Q85 104.75 84.88 105Q84.75 105.25 83.25 105.88L83.25 105.88Q81.25 106.88 79.19 107.63Q77.13 108.38 74.63 109L74.63 109Q71.50 109.75 69.06 110.06Q66.63 110.38 63.63 110.38L63.63 110.38L60.63 110.38L60.63 108.88Q60.63 108.25 60.69 107.06Q60.75 105.88 60.75 104.88L60.75 104.88Q61 99.63 60.94 93.75Q60.88 87.88 60.63 84.25L60.63 84.25Q60.38 82.13 60 80Q59.63 77.88 59.50 77.25L59.50 77.25Q59.38 77.13 59.69 77Q60 76.88 60.88 76.50L60.88 76.50Q62.63 76 63.94 75.31Q65.25 74.63 65.50 74.25L65.50 74.25Q65.88 73.63 65.31 72.81Q64.75 72 63.75 72L63.75 72Q63.63 72 63.19 72.13Q62.75 72.25 62.38 72.50L62.38 72.50Q60.25 73.50 56.69 74.44Q53.13 75.38 50.75 75.63L50.75 75.63Q49 75.88 46.69 75.75Q44.38 75.63 42.63 75.25L42.63 75.25Q41.63 75.13 40 74.50Q38.38 73.88 37 73.13L37 73.13Q35.25 72.25 34.25 71.13Q33.25 70 32.88 68.63L32.88 68.63Q32.75 67.88 32.75 66.56Q32.75 65.25 33 64.50L33 64.50Q33.25 63.50 33.81 62.31Q34.38 61.13 35 60.38L35 60.38Q37.63 56.88 42.69 54.06Q47.75 51.25 53.50 50.25L53.50 50.25Q55.25 49.88 57.56 49.81Q59.88 49.75 61.88 50.13L61.88 50.13ZM100.38 50.50L100.38 50.50Q100.75 50.63 100.81 50.69Q100.88 50.75 100.88 51.13L100.88 51.13Q100.88 53.63 100.88 58Q100.88 62.38 100.75 62.63L100.75 62.63Q100.75 62.75 100.38 62.75Q100 62.75 99.88 62.75L99.88 62.75Q99.75 62.63 99.69 61.63Q99.63 60.63 99.63 56.38L99.63 56.38Q99.63 53.50 99.69 51.88Q99.75 50.25 99.75 50.25L99.75 50.25Q99.88 50.25 100.06 50.31Q100.25 50.38 100.38 50.50L100.38 50.50ZM105.88 57.38L105.88 57.38L106.38 57.50L106.25 67.88Q106.13 77.75 106.06 79.75Q106 81.75 105.63 82.63L105.63 82.63Q105 84 104.94 83.38Q104.88 82.75 105 76.63L105 76.63Q105 73.63 105.06 70.88Q105.13 68.13 105.13 67.50L105.13 67.50Q105.13 66.75 105.13 64.94Q105.13 63.13 105.13 61.38L105.13 61.38Q105.13 59.25 105.19 58.19Q105.25 57.13 105.25 57.13L105.25 57.13Q105.38 57.13 105.50 57.19Q105.63 57.25 105.88 57.38ZM30.63 60.50L30.63 60.50Q30.75 61.25 30.69 61.50Q30.63 61.75 30.38 62.38L30.38 62.38L30 63.25L29.75 62Q29.63 60.50 29.69 60.13Q29.75 59.75 30 59.63L30 59.63Q30.25 59.50 30.38 59.44Q30.50 59.38 30.50 59.38L30.50 59.38Q30.50 59.38 30.56 59.69Q30.63 60 30.63 60.50L30.63 60.50ZM23 68L23 68Q23 68.75 23.50 72.69Q24 76.63 24.38 79.13L24.38 79.13Q24.88 83 24.94 84Q25 85 24.75 84.75L24.75 84.75Q24.75 84.75 24.56 83.56Q24.38 82.38 24.13 80.88L24.13 80.88Q22.75 70.75 22.50 69.13Q22.25 67.50 22.38 67.38L22.38 67.38Q22.63 67.25 22.75 67.38Q22.88 67.50 23 68L23 68ZM32 73.75L32 73.75Q32 74 32.19 75.75Q32.38 77.50 32.38 77.88L32.38 77.88Q32.38 78.13 32.13 78.31Q31.88 78.50 31.75 78.25L31.75 78.25Q31.75 78.25 31.63 77.56Q31.50 76.88 31.38 76L31.38 76Q31.25 75 31.19 74.19Q31.13 73.38 31.13 73.13L31.13 73.13L31 72.50L31.38 73Q31.63 73.13 31.75 73.38Q31.88 73.63 32 73.75ZM42 78.38L42 78.38Q42.13 78.50 42.19 78.94Q42.25 79.38 42.38 80.38L42.38 80.38Q42.50 82.25 42.50 82.44Q42.50 82.63 42.13 82.63L42.13 82.63Q41.63 82.63 41.56 82.38Q41.50 82.13 41.38 80.50L41.38 80.50Q41.25 78.75 41.25 78.50Q41.25 78.25 41.50 78.25L41.50 78.25Q41.63 78.25 41.81 78.31Q42 78.38 42 78.38ZM52 78.63L52 78.63Q52 78.75 52 79.19Q52 79.63 52.13 80.25L52.13 80.25Q52.13 80.88 52.19 82Q52.25 83.13 52.38 84.25L52.38 84.25Q52.63 88 52.63 88.94Q52.63 89.88 52.50 89.88L52.50 89.88Q52.25 89.88 52.19 89.38Q52.13 88.88 51.88 86.13L51.88 86.13Q51.75 84.13 51.69 82.69Q51.63 81.25 51.50 79.88L51.50 79.88L51.50 81Q51.50 80 51.44 79.25Q51.38 78.50 51.38 78.50L51.38 78.50Q51.50 78.38 51.69 78.44Q51.88 78.50 52 78.63L52 78.63ZM28.38 81L28.38 81Q28.50 81.13 28.81 83.81Q29.13 86.50 29.63 90.63L29.63 90.63Q29.75 91.88 29.81 92.88Q29.88 93.88 30 94.13L30 94.13L30 94.63L29.75 94.50Q29.50 94.38 29.44 94.25Q29.38 94.13 29.38 93.88L29.38 93.88Q29.38 93.25 29.06 90.19Q28.75 87.13 28.38 84.75L28.38 84.75Q28.25 83.38 28.13 82.31Q28 81.25 28 81.13L28 81.13Q28 81 28.19 80.94Q28.38 80.88 28.38 81L28.38 81ZM100.63 86.25L100.63 86.25L100.50 91.50L100.13 91.88Q99.63 92.75 99.56 92.25Q99.50 91.75 99.50 87.38L99.50 87.38L99.63 82L100 81.50Q100.25 81.25 100.38 81.13Q100.50 81 100.63 81L100.63 81Q100.63 81 100.63 82.56Q100.63 84.13 100.63 86.25L100.63 86.25ZM89 94.50L89 94.50Q89.13 100 89.06 101.19Q89 102.38 88.88 102.63L88.88 102.63Q88.75 102.63 88.69 102.69Q88.63 102.75 88.63 102.75L88.63 102.75Q88.50 102.75 88.44 94.75Q88.38 86.75 88.50 86.75L88.50 86.75Q88.50 86.75 88.63 86.69Q88.75 86.63 88.75 86.63L88.75 86.63Q88.88 86.75 88.94 88.06Q89 89.38 89 94.50L89 94.50ZM48.25 89.50L48.25 89.50Q48.25 90.13 48.44 92.31Q48.63 94.50 48.75 95.75L48.75 95.75Q48.75 96.63 48.75 96.81Q48.75 97 48.50 97.13L48.50 97.13Q48.38 97.13 48.25 97.13Q48.13 97.13 48.13 97.13L48.13 97.13Q48.13 97 47.94 95.06Q47.75 93.13 47.38 89.88L47.38 89.88L47.38 88.88L47.75 88.88Q48 88.88 48.06 89Q48.13 89.13 48.25 89.50L48.25 89.50ZM38.38 93.88L38.38 93.88Q38.38 94 38.44 94.19Q38.50 94.38 38.50 94.63L38.50 94.63Q38.50 94.88 38.63 96Q38.75 97.13 38.88 98.38L38.88 98.38Q39.13 102 39.19 102.88Q39.25 103.75 39.13 103.75L39.13 103.75Q38.88 103.63 38.69 103.44Q38.50 103.25 38.63 103.13L38.63 103.13Q38.63 103.13 38.56 102.69Q38.50 102.25 38.50 101.75L38.50 101.75Q38.38 101.38 38.31 100.69Q38.25 100 38.25 99.38L38.25 99.38L38.25 99.13Q38.13 98.63 38.06 97.75Q38 96.88 37.88 96.25L37.88 96.25Q37.75 94.63 37.75 94.19Q37.75 93.75 38 93.75L38 93.75Q38.13 93.75 38.19 93.81Q38.25 93.88 38.38 93.88L38.38 93.88ZM44.25 102.38L44.25 102.38Q44.25 102.50 44.31 103.19Q44.38 103.88 44.38 104.63L44.38 104.63Q44.50 106 44.44 106.25Q44.38 106.50 44 106.25L44 106.25Q43.88 106.13 43.75 105.69Q43.63 105.25 43.63 104.25L43.63 104.25Q43.38 102.25 43.38 102Q43.38 101.75 43.75 101.75L43.75 101.75Q44 101.88 44.13 101.94Q44.25 102 44.25 102.38ZM39.75 56.13L39.75 56.13Q38.88 56.50 38.81 57.50Q38.75 58.50 39.63 59L39.63 59Q40.25 59.38 40.88 59.19Q41.50 59 41.88 58.50L41.88 58.50Q42.50 57.38 41.75 56.50Q41 55.63 39.75 56.13L39.75 56.13ZM48.25 57.25L48.25 57.25Q47.38 57.88 47.38 58.94Q47.38 60 48.25 60.50L48.25 60.50Q49.13 61 50.06 60.44Q51 59.88 51 58.88L51 58.88Q51 57.88 50.06 57.31Q49.13 56.75 48.25 57.25Z"/></svg>