<svg xmlns="http://www.w3.org/2000/svg" xmlns:xlink="http://www.w3.org/1999/xlink" width="128" height="128"><path fill="#000000" d="M68.88 127.38L68.75 127.38Q67.88 126.75 66.75 126.13Q65.63 125.50 64.50 124.88L64.50 124.88L64.38 124.88Q64.13 124.75 63.88 124.69Q63.63 124.63 63.38 124.50L63.38 124.50L63.38 124.50Q63.13 124.50 62.06 124.31Q61 124.13 59.75 123.88L59.75 123.88Q57.13 123.25 53.44 122.56Q49.75 121.88 47 121.25L47 121.25Q44.13 120.75 41.81 120.56Q39.50 120.38 32.75 120.25L32.75 120.25Q27.63 120.25 26.38 120.19Q25.13 120.13 25 120L25 120Q24.88 119.88 24.88 119.69Q24.88 119.50 25.13 119.50L25.13 119.50Q25.25 119.38 27.56 119.13Q29.88 118.88 32.38 118.63L32.38 118.63Q33 118.63 34.38 118.56Q35.75 118.50 38 118.50L38 118.50Q38.38 118.50 38.88 118.50Q39.38 118.50 39.75 118.50L39.75 118.50Q41.25 118.50 42.69 118.63Q44.13 118.75 45.50 118.88L45.50 118.88L45.25 118.88Q46.38 119 47.56 119.13Q48.75 119.25 49.25 119.25L49.25 119.25Q49.63 119.25 50 119.31Q50.38 119.38 50.63 119.50L50.63 119.50L50.63 119.50Q50.75 119.50 50.75 119.44Q50.75 119.38 50.75 119.25L50.75 119.25Q50.63 119.13 50.56 119Q50.50 118.88 50.50 118.75L50.50 118.75L50.50 118.75Q49.88 118.38 49.25 118.06Q48.63 117.75 47.88 117.63L47.88 117.63L47.88 117.50Q47.38 117.38 46.38 117.13Q45.38 116.88 44.38 116.50L44.38 116.50Q40.88 115.50 37.19 114.56Q33.50 113.63 32.13 113.50L32.13 113.50Q31.25 113.25 30 113.13Q28.75 113 28.38 113L28.38 113Q28.25 113 28.19 113Q28.13 113 28.13 113.13L28.13 113.13Q28.13 113.13 28.81 113.69Q29.50 114.25 30.50 115L30.50 115Q31.38 115.75 32.06 116.31Q32.75 116.88 32.75 116.88L32.75 116.88Q32.75 116.88 32.50 116.88Q32.25 116.88 31.75 116.75L31.75 116.75Q31.50 116.63 31 116.31Q30.50 116 30 115.75L30 115.75Q28.88 115.13 27.69 114.50Q26.50 113.88 25.25 113.38L25.25 113.38L25 113.25Q24.38 113 24.13 112.81Q23.88 112.63 24 112.25L24 112.25L24.13 112L25.88 112Q26.63 112 27.56 112Q28.50 112 29.13 112.13L29.13 112.13Q30.38 112.25 32.13 112.38Q33.88 112.50 34.13 112.50L34.13 112.50L39.13 113.50Q39.25 113.50 39.31 113.50Q39.38 113.50 39.38 113.50L39.38 113.50Q39.50 113.50 39.56 113.50Q39.63 113.50 39.63 113.50L39.63 113.50L39.63 113.50Q39.63 113.38 39.69 113.25Q39.75 113.13 39.75 113L39.75 113Q39.75 112.88 39.69 112.75Q39.63 112.63 39.63 112.50L39.63 112.50L39.63 112.50Q39.38 112.25 39.13 112.06Q38.88 111.88 38.63 111.63L38.63 111.63L38.63 111.63Q38 111.13 37.88 111Q37.75 110.88 37.88 110.63L37.88 110.63Q37.88 110.38 38 110.13Q38.13 109.88 38.25 109.63L38.25 109.63L38.13 109.63Q38.38 109.13 38.44 109Q38.50 108.88 38.38 108.75L38.38 108.75Q38.25 108.63 36.88 107.56Q35.50 106.50 33.50 105L33.50 105Q31.50 103.50 29.31 101.94Q27.13 100.38 26.13 99.50L26.13 99.50L23 97.38Q22.63 97.25 22.44 96.94Q22.25 96.63 22.25 96.25L22.25 96.25Q22.25 96.25 22.25 96.19Q22.25 96.13 22.25 96.13L22.25 96.13L22.25 96.13Q22.25 96.13 22.25 96.13Q22.25 96.13 22.25 96.13L22.25 96.13Q22.25 95.63 22.13 95.25Q22 94.88 21.75 94.63L21.75 94.63L21.75 94.63Q21.25 94.38 20.81 94.19Q20.38 94 19.88 93.75L19.88 93.75L19.75 93.75Q19.25 93.63 18.81 93.44Q18.38 93.25 18 93L18 93L18 93Q17.88 92.88 17.88 92.06Q17.88 91.25 17.88 89.63L17.88 89.63Q17.88 89.13 17.88 88.06Q17.88 87 17.88 85.75L17.88 85.75Q17.75 83.38 17.69 80.13Q17.63 76.88 17.50 72.38L17.50 72.38Q17.38 69.50 17.38 68.75Q17.38 68 17.50 67.75L17.50 67.75Q17.50 67.63 17.56 67.50Q17.63 67.38 17.63 67.25L17.63 67.25Q17.63 67.13 17.56 67Q17.50 66.88 17.50 66.75L17.50 66.75L17.50 66.75Q17.38 66.75 17.19 66.44Q17 66.13 16.75 65.75L16.75 65.75Q16.50 65.50 16.31 65.19Q16.13 64.88 16 64.63L16 64.63L16 64.50Q16 63.88 16.13 63.25Q16.25 62.63 16.38 62L16.38 62L16.38 62.25Q16.50 61.75 16.56 61.13Q16.63 60.50 16.63 60L16.63 60L16.63 60Q16 59.75 15.13 59.63Q14.25 59.50 13.38 59.38L13.38 59.38L13.25 59.38Q13.13 59.38 13 59.31Q12.88 59.25 12.75 59.13L12.75 59.13L12.75 59.13Q12.75 59 12.75 58.94Q12.75 58.88 12.75 58.75L12.75 58.75Q12.75 58.63 12.75 58.56Q12.75 58.50 12.75 58.38L12.75 58.38L12.75 58.38Q12.75 58.13 12.94 56.44Q13.13 54.75 13.25 52.63L13.25 52.63Q13.63 48.13 13.75 47.44Q13.88 46.75 14 46.75L14 46.75Q14.13 46.75 16.63 47.38Q19.13 48 19.50 48.13L19.50 48.13Q19.63 48.13 19.75 47.88Q19.88 47.63 20 46.75L20 46.75Q20.25 45.88 20.44 45.13Q20.63 44.38 20.88 43.63L20.88 43.63L20.88 43.75Q21 43.38 20.94 43.13Q20.88 42.88 20.38 41.75L20.38 41.75Q20.25 41.38 19.94 40.63Q19.63 39.88 19.25 39.25L19.25 39.25Q19 38.63 18.81 38.13Q18.63 37.63 18.63 37.63L18.63 37.63Q18.63 37.63 18.50 37.63Q18.38 37.63 18.25 37.75L18.25 37.75Q17.50 38.13 17.31 38.13Q17.13 38.13 17 37.75L17 37.75Q17 37.50 16.88 37.19Q16.75 36.88 16.63 36.75L16.63 36.75Q16.25 36 16.38 35.81Q16.50 35.63 17.13 35.25L17.13 35.25Q17.38 35.13 17.50 35Q17.63 34.88 17.63 34.88L17.63 34.88Q17.63 34.75 17.38 34Q17.13 33.25 16.75 32.13L16.75 32.13Q15.63 29.13 14.50 25.25Q13.38 21.38 12.50 17.38L12.50 17.38L12.38 16.38Q12.13 15 12.06 14.50Q12 14 12.25 13.38L12.25 13.38Q12.25 13.13 12.31 12.88Q12.38 12.63 12.50 12.50L12.50 12.50L12.50 12.50Q12.63 12.50 12.75 12.44Q12.88 12.38 13 12.38L13 12.38Q13.25 12.38 13.50 12.44Q13.75 12.50 14 12.63L14 12.63L14 12.63Q14.63 13 15.25 13.88Q15.88 14.75 17.88 18.38L17.88 18.38Q18.75 19.88 19.38 20.88Q20 21.88 20 21.88L20 21.88Q20.63 21.13 21.25 20.19Q21.88 19.25 22.38 18.38L22.38 18.38L22.50 18.25Q23.13 17 23.88 15.94Q24.63 14.88 25.38 13.88L25.38 13.88L25.38 14Q26.13 13 26.44 12.75Q26.75 12.50 27.25 12.25L27.25 12.25L27.88 12.13L28.50 12.50Q28.75 12.75 29 12.88Q29.25 13 29.38 13.25L29.38 13.25L29.38 13.25L29.88 13.63L30.75 13.38Q31.75 13.13 33.81 12.44Q35.88 11.75 37 11.25L37 11.25Q38.63 10.63 40 10Q41.38 9.38 42.63 8.75L42.63 8.75L42.38 8.88Q42.75 8.63 43.19 8.44Q43.63 8.25 44 8L44 8L44.13 8Q44.75 7.88 45.06 8.25Q45.38 8.63 45.25 9.25L45.25 9.25Q45.25 9.75 45.06 10.13Q44.88 10.50 44.63 10.88L44.63 10.88L44.63 10.88Q44.38 11.13 42.88 12.63Q41.38 14.13 40.25 15L40.25 15Q40 15.25 39.75 15.50Q39.50 15.75 39.25 16L39.25 16L39.25 16Q39.50 17.38 39.94 18.63Q40.38 19.88 40.88 21.13L40.88 21.13L40.75 20.88Q40.88 21.13 41 21.31Q41.13 21.50 41.13 21.50L41.13 21.50Q41.25 21.50 43.38 20.19Q45.50 18.88 48.50 17L48.50 17Q57.25 11.50 59.50 10.19Q61.75 8.88 61.88 8.88L61.88 8.88Q62.13 9 62.38 9.25Q62.63 9.50 62.75 9.75L62.75 9.75L62.75 9.88Q62.75 9.88 60.94 11.13Q59.13 12.38 52.25 16.88L52.25 16.88Q51.13 17.63 50.25 18.13Q49.38 18.63 49.38 18.75L49.38 18.75Q49.38 18.75 49.38 18.81Q49.38 18.88 49.63 18.88L49.63 18.88Q49.63 18.88 49.63 18.88Q49.63 18.88 49.75 18.88L49.75 18.88Q50.13 18.88 50.56 19.06Q51 19.25 51.25 19.63L51.25 19.63L51.25 19.63Q51.63 20 51.94 20.50Q52.25 21 52.25 21.50L52.25 21.50L52.25 21.50Q52.25 22.13 52 22.50Q51.75 22.88 51 23.50L51 23.50Q50.75 23.88 50.06 24.56Q49.38 25.25 48.75 25.88L48.75 25.88Q48 26.63 47.44 27.31Q46.88 28 46.38 28.75L46.38 28.75L46.38 28.75Q45.63 29.88 44.88 31.19Q44.13 32.50 43.50 33.88L43.50 33.88L43.38 34.13Q41.88 37.13 41.31 38.25Q40.75 39.38 40.25 39.75L40.25 39.75Q39.50 40.50 38.63 41Q37.75 41.50 36.75 42L36.75 42L36.75 42Q36.38 42.13 36.06 42.31Q35.75 42.50 35.50 42.75L35.50 42.75L35.50 42.75Q35.38 42.88 35.31 43Q35.25 43.13 35.25 43.38L35.25 43.38Q35.25 43.38 35.25 43.38Q35.25 43.38 35.25 43.50L35.25 43.50L35.25 43.50Q35.25 43.88 35.06 44.31Q34.88 44.75 34.50 45.13L34.50 45.13L34.50 45.13Q34.13 45.50 33.94 46.13Q33.75 46.75 33.25 48.63L33.25 48.63Q32.75 50.38 32.69 50.81Q32.63 51.25 32.75 51.38L32.75 51.38Q33 51.50 34 51.75Q35 52 36.38 52.38L36.38 52.38Q37.75 52.75 38.81 53Q39.88 53.25 40 53.38L40 53.38Q40.13 53.38 40.13 53.44Q40.13 53.50 40.13 53.63L40.13 53.63L40.13 53.63Q40.13 53.63 40 54.19Q39.88 54.75 39.63 55.50L39.63 55.50Q39.13 57.38 38.88 58.50Q38.63 59.63 38.38 60.88L38.38 60.88Q38.13 61.63 38 62.13Q37.88 62.63 37.88 62.63L37.88 62.63Q37.88 62.75 37.69 62.81Q37.50 62.88 36.88 62.75L36.88 62.75Q36.63 62.75 36.31 62.75Q36 62.75 35.75 62.63L35.75 62.63L35.75 62.63Q35.63 62.63 35.63 62.94Q35.63 63.25 35.88 64.88L35.88 64.88Q36.13 66.38 36.19 66.69Q36.25 67 36.25 67L36.25 67Q36.50 66.75 36.63 66.50Q36.75 66.25 36.88 66L36.88 66L36.88 66Q37.88 63.88 39.13 62Q40.38 60.13 41.88 58.38L41.88 58.38L41.88 58.50Q42.88 57.38 44.75 55.50Q46.63 53.63 47.13 53.13L47.13 53.13Q48.38 52.25 49.69 51.44Q51 50.63 52.50 49.88L52.50 49.88L52.63 49.75Q52.88 49.75 53.19 49.56Q53.50 49.38 53.75 49.25L53.75 49.25Q54.50 48.88 55.31 48.56Q56.13 48.25 57 48L57 48L57.13 48Q58.13 47.88 59.19 47.75Q60.25 47.63 61.38 47.63L61.38 47.63Q62.25 47.63 63.19 47.69Q64.13 47.75 65.13 47.88L65.13 47.88L65 47.88Q67 48.25 68.81 49.13Q70.63 50 72.13 51.25L72.13 51.25L72.13 51.25Q72.75 51.63 73.25 52.19Q73.75 52.75 74.25 53.38L74.25 53.38L74.25 53.38Q74.38 53.63 74.56 53.88Q74.75 54.13 75 54.38L75 54.38L75 54.38Q75.13 54.38 75.31 54.38Q75.50 54.38 76 54.25L76 54.25Q76.63 54.13 77.31 54Q78 53.88 78.75 53.88L78.75 53.88Q79.50 53.88 80.25 54Q81 54.13 81.75 54.25L81.75 54.25L81.63 54.25Q82.63 54.38 83.50 54.81Q84.38 55.25 85.13 55.75L85.13 55.75L85.13 55.75Q86.38 56.38 87.38 57.31Q88.38 58.25 89.25 59.25L89.25 59.25L89.25 59.38Q91.25 61.75 92.19 63.19Q93.13 64.63 93.63 66.25L93.63 66.25Q93.75 66.63 93.88 66.81Q94 67 94 67L94 67Q94.13 66.63 94.38 65.88Q94.63 65.13 94.63 65.13L94.63 65.13Q94.38 64.63 94.13 64.19Q93.88 63.75 93.63 63.38L93.63 63.38L93.63 63.38Q93.25 62.75 92.94 62.25Q92.63 61.75 92.63 61.63L92.63 61.63Q92.63 61.63 92.75 61.31Q92.88 61 93.25 60.38L93.25 60.38Q93.50 60 93.81 59.56Q94.13 59.13 94.25 59L94.25 59Q94.38 58.88 94.44 58.75Q94.50 58.63 94.38 58.38L94.38 58.38Q94.25 58.13 94.19 58.06Q94.13 58 94.13 58L94.13 58Q94 58.13 93.81 58.19Q93.63 58.25 93.50 58.38L93.50 58.38L93.50 58.25Q93 58.50 92.75 58.56Q92.50 58.63 92.25 58.38L92.25 58.38Q92.25 58.25 91.31 56.69Q90.38 55.13 89.13 52.88L89.13 52.88Q87.38 49.75 86.81 48.69Q86.25 47.63 86.38 47.50L86.38 47.50Q86.38 47.38 87.56 47Q88.75 46.63 91.50 45.75L91.50 45.75Q92.13 45.63 92.69 45.44Q93.25 45.25 93.75 45L93.75 45L93.63 45.13Q93.75 45 93.69 44.69Q93.63 44.38 93.13 42.88L93.13 42.88Q92.50 40.63 92.38 40.31Q92.25 40 91.50 39.75L91.50 39.75Q90.75 39.38 90.44 39.06Q90.13 38.75 90 38.13L90 38.13Q89.88 38 89.81 37.81Q89.75 37.63 89.63 37.50L89.63 37.50L89.75 37.50Q89.25 37.25 88.75 37.06Q88.25 36.88 87.63 36.75L87.63 36.75L87.63 36.75Q87 36.63 86.56 36.44Q86.13 36.25 85.75 36.13L85.75 36.13L85.75 36.13Q84.13 35.38 82.69 34.44Q81.25 33.50 80 32.38L80 32.38L80 32.50Q79.50 32 79 31.69Q78.50 31.38 77.88 31.13L77.88 31.13L77.75 31.13Q76.38 30.50 74.75 29.94Q73.13 29.38 71.38 28.88L71.38 28.88L71 28.75Q70.63 28.63 70.25 28.50Q69.88 28.38 69.63 28.25L69.63 28.25L69.63 28.38Q69.25 28.13 69.19 27.69Q69.13 27.25 69.38 26.50L69.38 26.50Q69.38 26.25 69.56 26Q69.75 25.75 69.88 25.50L69.88 25.50L69.88 25.50Q70.25 25.13 70.75 24.94Q71.25 24.75 73 24.38L73 24.38Q74.13 24.13 75.38 23.88Q76.63 23.63 77.88 23.63L77.88 23.63L78 23.63Q78.88 23.50 79 23.44Q79.13 23.38 78.75 22.75L78.75 22.75Q78.50 22.13 78 21.56Q77.50 21 75.75 19.38L75.75 19.38Q74.38 18 72.81 16.63Q71.25 15.25 69.50 14.13L69.50 14.13L69.38 14Q68.63 13.50 68.25 13.13Q67.88 12.75 67.75 12.25L67.75 12.25Q67.75 12.13 67.75 12Q67.75 11.88 67.75 11.75L67.75 11.75Q67.75 11.25 68.06 10.75Q68.38 10.25 68.75 10.13L68.75 10.13L68.75 10.13Q69.13 9.88 69.50 9.75Q69.88 9.63 70.25 9.63L70.25 9.63Q70.38 9.63 70.38 9.69Q70.38 9.75 70.38 9.75L70.38 9.75L70.38 9.75Q71.38 9.75 72.13 10.13Q72.88 10.50 75.50 12.25L75.50 12.25Q78.38 14.13 78.94 14.50Q79.50 14.88 79.50 14.88L79.50 14.88Q79.50 14.88 78.44 13.75Q77.38 12.63 75.75 11.13L75.75 11.13Q72.13 7.50 71.69 7Q71.25 6.50 71 6L71 6Q70.88 5.75 70.75 5.38Q70.63 5 70.63 4.63L70.63 4.63Q70.63 4.63 70.63 4.56Q70.63 4.50 70.63 4.50L70.63 4.50L70.63 4.50L70.63 3.50L71.13 3.13Q71.38 2.88 71.50 2.75Q71.63 2.63 71.88 2.63L71.88 2.63Q72.13 2.63 72.31 2.44Q72.50 2.25 72.63 1.75L72.63 1.75Q72.63 1.75 72.63 1.75Q72.63 1.75 72.63 1.75L72.63 1.75Q72.63 1.25 72.94 0.81Q73.25 0.38 73.75 0.25L73.75 0.25L73.75 0.25Q73.88 0.25 74 0.25Q74.13 0.25 74.25 0.25L74.25 0.25Q75 0.25 75.81 0.31Q76.63 0.38 77.50 0.63L77.50 0.63L77.38 0.63Q77.75 0.75 79.50 1.63Q81.25 2.50 82.63 3.25L82.63 3.25Q85.13 4.75 87.38 6.38Q89.63 8 91.63 9.75L91.63 9.75L91.63 9.75Q92 10.13 92.19 10.25Q92.38 10.38 92.25 10.25L92.25 10.25Q92.13 9.88 91.31 7.81Q90.50 5.75 90 4.63L90 4.63Q89.25 3 89.19 2.31Q89.13 1.63 89.63 0.88L89.63 0.88Q89.88 0.50 90.19 0.31Q90.50 0.13 90.88 0.13L90.88 0.13Q90.88 0.13 91 0.13Q91.13 0.13 91.13 0.25L91.13 0.25L91.13 0.25Q91.88 0.25 92.44 0.56Q93 0.88 93.50 1.38L93.50 1.38L93.50 1.38Q94.88 3.25 96.06 5.19Q97.25 7.13 98.38 9.25L98.38 9.25L98.50 9.63Q100.50 13.25 101.50 16.81Q102.50 20.38 103.13 25.50L103.13 25.50Q103.13 26 103.19 26.56Q103.25 27.13 103.25 27.63L103.25 27.63Q103.25 28.25 103.19 28.75Q103.13 29.25 103 29.75L103 29.75L103.13 29.75Q103 29.88 102.94 30.13Q102.88 30.38 102.88 30.63L102.88 30.63Q102.88 30.63 102.88 30.69Q102.88 30.75 102.88 30.75L102.88 30.75L102.88 30.75Q103 31.25 104.25 34.81Q105.50 38.38 106.25 40L106.25 40Q106.50 40.75 106.69 41Q106.88 41.25 107 41.25L107 41.25Q107.13 41.25 108.25 40.88Q109.38 40.50 111 40L111 40Q114.88 38.88 115.31 38.69Q115.75 38.50 115.88 38.63L115.88 38.63Q116 38.75 115.56 44.19Q115.13 49.63 115 49.88L115 49.88Q115 50.13 114.69 50.25Q114.38 50.38 113 50.88L113 50.88Q112.50 51 112.25 51.13Q112 51.25 111.88 51.25L111.88 51.25Q112 51.50 112.19 51.75Q112.38 52 112.50 52.13L112.50 52.13L112.50 52.13Q113.13 52.88 113.75 53.56Q114.38 54.25 115 55L115 55L115 55.13Q115.13 55.38 115.06 55.63Q115 55.88 114.75 56.13L114.75 56.13Q114.38 56.50 114.44 56.69Q114.50 56.88 114.75 57.63L114.75 57.63Q114.88 58 114.94 58.31Q115 58.63 115 58.88L115 58.88Q115 59 114.94 59.19Q114.88 59.38 114.88 59.50L114.88 59.50L114.88 59.50Q114.88 60 114.88 60.50Q114.88 61 114.75 61.25L114.75 61.25Q114.75 61.25 114.75 61.31Q114.75 61.38 114.75 61.38L114.75 61.38Q114.75 62 114.88 62.63Q115 63.25 115.25 63.75L115.25 63.75L115.25 63.75Q115.38 64 115.44 64.31Q115.50 64.63 115.50 65L115.50 65Q115.50 65.50 115.44 65.88Q115.38 66.25 115.13 66.63L115.13 66.63L115.13 66.63Q114.75 68.13 114.25 69.38Q113.75 70.63 113.25 71.75L113.25 71.75L113.25 71.63Q112.63 73.13 112.25 74.06Q111.88 75 111 77L111 77Q110.38 78.63 109.88 80.38Q109.38 82.13 109.13 84L109.13 84L109 84.13Q108.88 85 108.69 86.13Q108.50 87.25 108.25 87.88L108.25 87.88Q108.13 88.63 107.94 89.50Q107.75 90.38 107.63 91.38L107.63 91.38L107.63 91.50Q107.63 92.50 107.44 93.50Q107.25 94.50 107 95.50L107 95.50L107 95.25Q106.88 95.50 106.56 96.31Q106.25 97.13 105.88 98L105.88 98Q105.63 98.50 105.38 99.19Q105.13 99.88 104.88 100.50L104.88 100.50L104.88 100.63Q104.88 100.88 104.81 101.56Q104.75 102.25 104.63 102.88L104.63 102.88Q104.63 103.13 104.63 103.38Q104.63 103.63 104.63 103.88L104.63 103.88Q104.63 104.13 104.63 104.38Q104.63 104.63 104.63 104.75L104.63 104.75L104.63 104.75Q104.63 104.75 104.63 104.75Q104.63 104.75 104.63 104.75L104.63 104.75Q105.38 104.75 106 104.69Q106.63 104.63 107.25 104.38L107.25 104.38L107.13 104.38L109.50 103.88Q109.75 103.88 109.56 104.13Q109.38 104.38 108.88 104.63L108.88 104.63Q108.13 105.38 107.31 106.06Q106.50 106.75 105.88 107.50L105.88 107.50L105.88 107.50Q104.25 109.25 103.69 109.75Q103.13 110.25 103.13 110L103.13 110Q103.50 109.13 103.88 108.44Q104.25 107.75 104.63 107.13L104.63 107.13L104.63 107.25L105.25 106.25Q105.38 106.13 104.56 106.44Q103.75 106.75 99.25 108.75L99.25 108.75Q95 110.50 92.25 111.81Q89.50 113.13 86.75 114.63L86.75 114.63Q85.50 115.25 85.13 115.44Q84.75 115.63 84.75 115.75L84.75 115.75Q84.75 116 84.88 117.31Q85 118.63 85.13 118.63L85.13 118.63Q85.13 118.63 85.94 118.25Q86.75 117.88 88 117.25L88 117.25Q90.63 116 94.06 114.38Q97.50 112.75 99.38 112.13L99.38 112.13Q100.75 111.50 104.38 110.31Q108 109.13 108.63 109L108.63 109Q109 108.88 109.50 108.81Q110 108.75 110.63 108.75L110.63 108.75L110.63 108.75Q110 109.13 109.44 109.50Q108.88 109.88 108.25 110.25L108.25 110.25L108.13 110.25Q108 110.25 107.94 110.31Q107.88 110.38 107.88 110.38L107.88 110.38Q107.88 110.50 107.63 110.69Q107.38 110.88 107 111.25L107 111.25Q106.50 111.63 106.19 111.88Q105.88 112.13 105.88 112.13L105.88 112.13Q105.75 112.13 105.75 112.19Q105.75 112.25 105.63 112.25L105.63 112.25Q105.63 112.25 105.63 112.25Q105.63 112.25 105.63 112.25L105.63 112.25L105.63 112.25Q105.50 112.25 105.50 112.25Q105.50 112.25 105.63 112.13L105.63 112.13Q105.75 112 105.75 112Q105.75 112 105.88 112L105.88 112L105.88 112Q106 112 106 112Q106 112 106 111.88L106 111.88Q106.13 111.75 106.25 111.63Q106.38 111.50 106.50 111.38L106.50 111.38L106.50 111.38Q106.75 111.13 106.75 111.06Q106.75 111 106.75 111L106.75 111Q106.50 111.13 106.38 111.25Q106.25 111.38 106.13 111.50L106.13 111.50L106.13 111.50Q106 111.75 105.81 111.88Q105.63 112 105.50 112.13L105.50 112.13L105.50 112.13Q105.38 112.13 105.38 112.19Q105.38 112.25 105.38 112.25L105.38 112.25Q105.38 112.38 105.38 112.44Q105.38 112.50 105.25 112.50L105.25 112.50Q105.25 112.63 105.13 112.63Q105 112.63 105 112.50L105 112.50Q105 112.50 104.94 112.50Q104.88 112.50 105 112.50L105 112.50Q105 112.63 104.88 112.75Q104.75 112.88 104.63 113.13L104.63 113.13Q104.38 113.25 104.31 113.38Q104.25 113.50 104.25 113.50L104.25 113.50Q104.38 113.50 104.69 113.44Q105 113.38 105.50 113.38L105.50 113.38Q106 113.25 106.69 113.13Q107.38 113 107.88 113L107.88 113Q109.75 112.75 110.31 112.75Q110.88 112.75 110.88 112.75L110.88 112.75Q110.50 112.88 110.13 113Q109.75 113.13 109.38 113.25L109.38 113.25L109.25 113.25Q102.13 115 95.94 117Q89.75 119 83.88 121.38L83.88 121.38L85.13 121Q82.75 122 80.63 123.13Q78.50 124.25 78.50 124.38L78.50 124.38Q78.50 124.50 78.50 124.50Q78.50 124.50 78.50 124.50L78.50 124.50Q78.13 124.88 77.75 125.13Q77.38 125.38 77 125.75L77 125.75L77 125.75Q76.75 125.88 76.56 126.06Q76.38 126.25 76.13 126.38L76.13 126.38L76 126.38Q75.75 126.50 75.44 126.75Q75.13 127 74.88 127.13L74.88 127.13Q74.75 127.25 74.63 127.31Q74.50 127.38 74.25 127.38L74.25 127.38L74.25 127.50Q74.13 127.50 74 127.56Q73.88 127.63 73.75 127.63L73.75 127.63L73.88 127.63Q73.63 127.75 73.31 127.81Q73 127.88 72.75 127.88L72.75 127.88Q72.63 127.88 72.56 127.81Q72.50 127.75 72.38 127.75L72.38 127.75L72.38 127.75Q71.75 127.75 71.50 127.75Q71.25 127.75 71.38 127.63L71.38 127.63Q71.75 127.13 72.13 126.69Q72.50 126.25 72.88 125.88L72.88 125.88L72.88 125.88Q73.25 125.63 73.56 125.38Q73.88 125.13 74.25 125L74.25 125L74.25 125Q74.63 124.88 74.94 124.75Q75.25 124.63 75.50 124.38L75.50 124.38L75.50 124.50Q75.88 124.25 78.31 122.75Q80.75 121.25 81 121.13L81 121.13Q81.13 121 80.81 120.88Q80.50 120.75 79.50 120.38L79.50 120.38Q78.50 119.88 78.19 119.81Q77.88 119.75 77.75 119.75L77.75 119.75Q76.63 120.63 75.69 121.50Q74.75 122.38 73.88 123.38L73.88 123.38L73.75 123.38Q73.13 124 72.38 124.69Q71.63 125.38 71.38 125.63L71.38 125.63Q70.63 126.25 70.50 126.44Q70.38 126.63 70.38 127L70.38 127Q70.38 127.13 70.38 127.13Q70.38 127.13 70.38 127.13L70.38 127.13Q70.38 127.25 70.31 127.38Q70.25 127.50 70.25 127.63L70.25 127.63L70.25 127.63Q70.13 127.75 70.06 127.75Q70 127.75 69.75 127.75L69.75 127.75Q69.50 127.75 69.25 127.63Q69 127.50 68.88 127.38L68.88 127.38L68.88 127.38ZM70.75 123.25L70.75 123.25Q71.50 122.75 72.63 121.75Q73.75 120.75 75 119.88L75 119.88Q75.38 119.50 75.63 119.25Q75.88 119 75.88 119L75.88 119Q75.63 118.88 75.25 118.75Q74.88 118.63 74.50 118.50L74.50 118.50L74.50 118.38L72.13 117.38L71.13 117L70.63 117.25Q70.38 117.25 70.13 117.31Q69.88 117.38 69.63 117.38L69.63 117.38Q69.50 117.38 69.38 117.38Q69.25 117.38 69 117.38L69 117.38L69.13 117.38Q68.63 117.38 68.25 117.31Q67.88 117.25 67.75 117.25L67.75 117.25Q67.63 117.25 67.31 117.31Q67 117.38 66.25 117.63L66.25 117.63Q65.75 117.88 64.69 118.25Q63.63 118.63 62.75 119L62.75 119Q61.75 119.38 61.06 119.63Q60.38 119.88 60.38 119.88L60.38 119.88Q60.63 120 60.94 120.13Q61.25 120.25 61.50 120.25L61.50 120.25L61.63 120.25Q63.75 121 65.63 121.88Q67.50 122.75 69.25 123.88L69.25 123.88L69.13 123.75Q69.25 123.75 69.44 123.88Q69.63 124 69.75 124L69.75 124L69.75 124Q70.13 123.88 70.38 123.69Q70.63 123.50 70.75 123.25L70.75 123.25L70.75 123.25ZM62.75 122.75L62.63 122.75Q62.63 122.75 62.63 122.69Q62.63 122.63 62.63 122.63L62.63 122.63Q62.50 122.63 62.50 122.69Q62.50 122.75 62.50 122.75L62.50 122.75Q62.50 122.88 62.50 122.88Q62.50 122.88 62.63 122.88L62.63 122.88Q62.63 122.88 62.69 122.88Q62.75 122.88 62.75 122.75L62.75 122.75ZM61 122L61 122Q60.50 121.75 60.06 121.56Q59.63 121.38 59.38 121.25L59.38 121.25Q59 121.13 58.88 121.13Q58.75 121.13 58.50 121.25L58.50 121.25Q57.88 121.50 58.06 121.63Q58.25 121.75 59.88 122.13L59.88 122.13Q60.63 122.38 61.25 122.50Q61.88 122.63 62 122.63L62 122.63Q61.75 122.50 61.50 122.31Q61.25 122.13 61 122L61 122L61 122ZM55.38 121.25L55.38 121.38Q55.50 121.13 55.69 120.94Q55.88 120.75 56.13 120.63L56.13 120.63L56.13 120.63Q56.75 120.13 57.56 119.63Q58.38 119.13 59.13 118.63L59.13 118.63L59.25 118.63Q59.50 118.50 60.06 118.25Q60.63 118 61.13 117.75L61.13 117.75Q62 117.25 62.88 116.88Q63.75 116.50 64.75 116.25L64.75 116.25L64.88 116.25Q65.25 116.13 65.50 116.06Q65.75 116 65.88 116L65.88 116Q66.13 115.88 65.56 115.81Q65 115.75 64 115.75L64 115.75Q63.88 115.75 63.69 115.75Q63.50 115.75 63.38 115.75L63.38 115.75Q62.75 115.75 62.19 115.81Q61.63 115.88 61.13 115.88L61.13 115.88L61.25 115.88Q60.75 116 60.25 116Q59.75 116 59.25 116L59.25 116Q59.13 116 58.94 116Q58.75 116 58.63 116L58.63 116L58.63 116Q57.88 116 57.56 115.94Q57.25 115.88 57.38 115.63L57.38 115.63Q57.38 115.50 57.56 115.44Q57.75 115.38 58.38 115.25L58.38 115.25Q59.25 115 60.38 114.75Q61.50 114.50 62.75 114.50L62.75 114.50L62.88 114.50Q63.38 114.50 63.38 114.25Q63.38 114 62.88 114L62.88 114Q62 113.75 61.25 113.31Q60.50 112.88 59.88 112.50L59.88 112.50L59.88 112.50Q59.13 111.88 58.44 111.19Q57.75 110.50 57.25 109.75L57.25 109.75L57.25 109.63Q56.88 109 56.44 108.44Q56 107.88 55.50 107.25L55.50 107.25L55.50 107.25Q55.38 107.25 55.31 107.38Q55.25 107.50 55.25 107.75L55.25 107.75Q55.13 108 54.94 108.44Q54.75 108.88 54.63 109.38L54.63 109.38Q54.50 109.75 54.38 110.19Q54.25 110.63 54.25 111.13L54.25 111.13L54.25 111.13Q54.25 111.13 54.25 111.19Q54.25 111.25 54.25 111.25L54.25 111.25Q54.25 111.50 54.31 111.75Q54.38 112 54.38 112.25L54.38 112.25L54.38 112.25Q54.75 112.88 54.63 113.19Q54.50 113.50 53.63 114.50L53.63 114.50L52.50 115.63L52.63 116.25Q52.63 116.38 52.63 116.38Q52.63 116.38 52.63 116.38L52.63 116.38Q52.63 116.75 52.75 117.06Q52.88 117.38 53 117.63L53 117.63L53 117.63Q53.13 117.63 53.13 118Q53.13 118.38 53.13 119.38L53.13 119.38Q53.13 120.75 53.25 121.06Q53.38 121.38 53.88 121.50L53.88 121.50Q54.63 121.75 54.88 121.75Q55.13 121.75 55.38 121.25L55.38 121.25ZM82.63 119.25L82.50 119.25Q82.88 119 83.19 118.69Q83.50 118.38 83.63 118L83.63 118L83.63 118Q83.63 117.88 83.69 117.75Q83.75 117.63 83.75 117.50L83.75 117.50Q83.75 117.25 83.63 117Q83.50 116.75 83.38 116.50L83.38 116.50L83.38 116.50Q83.38 116.38 83.25 116.13Q83.13 115.88 83.13 115.50L83.13 115.50Q83.13 115.38 83.19 115.25Q83.25 115.13 83.25 115L83.25 115L83.25 115Q83.38 114.75 83.44 114.50Q83.50 114.25 83.75 114L83.75 114L83.63 114Q83.75 113.88 83.81 113.75Q83.88 113.63 84 113.50L84 113.50L84 113.38Q84 113.25 83 110.81Q82 108.38 81.88 108.25L81.88 108.25Q81.88 108.25 81.63 108.50Q81.38 108.75 80.88 109.50L80.88 109.50Q80.25 110.25 79.63 110.88Q79 111.50 78.38 112.13L78.38 112.13L78.38 112.13Q78 112.38 77.56 112.63Q77.13 112.88 76.75 113.13L76.75 113.13L76.63 113.13Q76.13 113.38 75.63 113.69Q75.13 114 74.63 114.25L74.63 114.25L74.63 114.25Q74.88 114.38 75.06 114.38Q75.25 114.38 75.50 114.38L75.50 114.38L75.50 114.38Q76.88 114.38 78.19 114.69Q79.50 115 80.75 115.38L80.75 115.38L80.63 115.38Q81.25 115.63 81.50 115.81Q81.75 116 81.88 116.38L81.88 116.38Q81.88 116.75 81.88 117.13Q81.88 117.50 81.88 117.50L81.88 117.50Q81.75 117.50 81.31 117.31Q80.88 117.13 80.25 117L80.25 117Q79.63 116.75 78.44 116.44Q77.25 116.13 76.25 115.88L76.25 115.88Q73.75 115.25 73.38 115.19Q73 115.13 72.88 115.25L72.88 115.25Q72.88 115.38 72.81 115.44Q72.75 115.50 72.75 115.63L72.75 115.63Q72.75 115.75 72.81 115.81Q72.88 115.88 72.88 116L72.88 116L72.88 116Q73 116 73.88 116.31Q74.75 116.63 75.88 117L75.88 117Q77.38 117.38 78.69 117.94Q80 118.50 81.25 119.13L81.25 119.13L81.13 119.13Q81.25 119.25 81.44 119.31Q81.63 119.38 81.88 119.50L81.88 119.50L81.88 119.50Q82.13 119.50 82.25 119.44Q82.38 119.38 82.63 119.25L82.63 119.25L82.63 119.25ZM50.75 115.88L50.75 115.88Q51 115.13 51.13 115Q51.25 114.88 51.63 114.63L51.63 114.63Q52.38 114 52.63 113.75Q52.88 113.50 53 113L53 113Q52.88 112.25 52.81 111.56Q52.75 110.88 52.50 110.25L52.50 110.25L52.50 110.25Q52.25 109.50 52.38 109Q52.50 108.50 53.13 107.50L53.13 107.50Q53.75 106.50 53.88 106.06Q54 105.63 53.75 105.38L53.75 105.38Q53.50 105 53.13 104.63Q52.75 104.25 52.50 103.88L52.50 103.88L52.50 103.88Q52 103.38 51.44 102.94Q50.88 102.50 50.25 102.13L50.25 102.13L50.13 102.13Q49 101.50 48.75 101.44Q48.50 101.38 48.50 101.50L48.50 101.50Q48.38 101.75 48.19 101.94Q48 102.13 47.88 102.38L47.88 102.38L47.88 102.38Q47.75 102.50 47.63 102.69Q47.50 102.88 47.50 103.13L47.50 103.13L47.50 103.13Q47.50 103.13 47.44 103.19Q47.38 103.25 47.25 103.25L47.25 103.25Q47.13 103.38 47.13 103.44Q47.13 103.50 47.13 103.50L47.13 103.50Q47.13 103.50 47.13 103.50Q47.13 103.50 47.13 103.50L47.13 103.50Q47.13 103.50 47.06 103.56Q47 103.63 47 103.75L47 103.75Q47 103.88 46.94 103.94Q46.88 104 46.75 104L46.75 104L46.75 104Q46.63 104.13 46.56 104.19Q46.50 104.25 46.38 104.38L46.38 104.38L46.38 104.38Q45.88 105.13 45.31 105.75Q44.75 106.38 44.13 106.88L44.13 106.88L44.13 107Q44 107 44 106.63Q44 106.25 44.13 105.38L44.13 105.38Q44.13 105.13 44.19 104.75Q44.25 104.38 44.38 104.13L44.38 104.13Q44.38 103.88 44.44 103.25Q44.50 102.63 44.50 101.88L44.50 101.88Q44.50 101.63 44.50 101.25Q44.50 100.88 44.50 100.63L44.50 100.63Q44.50 99.63 44.44 98.63Q44.38 97.63 44.13 96.75L44.13 96.75L44.13 96.88L43.88 96.25L42.50 95.50Q42 95.25 41.56 95.06Q41.13 94.88 41.13 94.75L41.13 94.75Q41 94.75 40.88 94.63Q40.75 94.50 40.63 94.38L40.63 94.38L40.63 94.38Q40.25 94.13 39.94 93.81Q39.63 93.50 39.38 93.25L39.38 93.25L39.38 93.25Q39 92.75 38.75 92.56Q38.50 92.38 38.50 92.50L38.50 92.50Q38.50 92.63 38.56 92.69Q38.63 92.75 38.63 92.75L38.63 92.75L38.63 92.75Q38.75 92.88 38.75 92.88Q38.75 92.88 38.63 92.88L38.63 92.88Q38.63 92.88 38.69 93.44Q38.75 94 38.88 94.38L38.88 94.38Q39 94.63 39.13 94.81Q39.25 95 39.38 95.13L39.38 95.13L39.38 95.13Q39.75 95.38 39.81 95.50Q39.88 95.63 39.63 95.75L39.63 95.75Q39.13 95.88 37.81 94.88Q36.50 93.88 35.63 92.50L35.63 92.50Q35.13 91.88 34.81 91.13Q34.50 90.38 34.50 89.50L34.50 89.50L34.50 89.50Q34.25 88.38 34.25 88.06Q34.25 87.75 34.13 87.38L34.13 87.38Q34.13 87.25 34.13 87.06Q34.13 86.88 34 86.75L34 86.75L34 86.75Q34 86.25 33.94 85.63Q33.88 85 33.88 84.38L33.88 84.38Q33.88 83.75 33.94 83.13Q34 82.50 34.13 81.88L34.13 81.88L34 82L34.13 81.63L33.75 82Q33.25 82.50 32.81 83.19Q32.38 83.88 32 84.50L32 84.50L32 84.63Q31.88 84.88 31.63 85.25Q31.38 85.63 31.25 85.75L31.25 85.75Q31.13 86.13 30.88 86.50Q30.63 86.88 30.38 87.25L30.38 87.25L30.38 87.38Q30 88.25 29.63 89Q29.25 89.75 28.88 90.38L28.88 90.38L28.88 90.25Q28.75 90.25 28.75 90Q28.75 89.75 28.88 88.25L28.88 88.25Q29 86.38 29.06 85.88Q29.13 85.38 29.38 84.75L29.38 84.75Q29.50 84.38 29.63 84.06Q29.75 83.75 29.88 83.38L29.88 83.38L29.88 83.38Q29.88 83.13 29.94 82.94Q30 82.75 30.13 82.63L30.13 82.63L30.13 82.63Q30.13 82.50 30.19 82.31Q30.25 82.13 30.38 82L30.38 82L30.38 82Q30.63 81.13 30.88 80.38Q31.13 79.63 31.50 78.88L31.50 78.88L31.50 79Q31.75 78.38 32.13 77.56Q32.50 76.75 32.88 76L32.88 76Q33.25 75 33.81 74.06Q34.38 73.13 35 72.25L35 72.25L35 72.25Q35.13 72.13 35.13 72Q35.13 71.88 35.13 71.25L35.13 71.25Q35 70.50 34.88 69.81Q34.75 69.13 34.63 68.50L34.63 68.50L34.63 68.63Q34.63 68.50 34.56 68.44Q34.50 68.38 34.50 68.25L34.50 68.25Q34.50 68.25 34.50 68.25Q34.50 68.25 34.50 68.25L34.50 68.25L34.50 68.25Q34.50 68 34.44 67.56Q34.38 67.13 34.25 66.63L34.25 66.63Q34.25 66.13 34.13 65.31Q34 64.50 33.88 63.88L33.88 63.88Q33.75 63.50 33.69 63.06Q33.63 62.63 33.50 62.25L33.50 62.25L33.50 62.38Q33.38 62.25 33.19 62.19Q33 62.13 32.75 62.13L32.75 62.13L32.75 62.13L31.88 62L31.13 61.88Q31 61.88 30.88 61.88Q30.75 61.88 30.63 61.75L30.63 61.75L30.63 61.75Q30.25 61.75 29.75 61.69Q29.25 61.63 28.75 61.50L28.75 61.50L28.63 61.50Q28.38 61.50 28.13 61.44Q27.88 61.38 27.63 61.38L27.63 61.38L27.63 61.38L27.13 61.25Q26.25 61.13 25.31 61Q24.38 60.88 24.13 60.88L24.13 60.88Q23.88 60.75 23.63 60.75Q23.38 60.75 23.13 60.75L23.13 60.75L22.25 60.63L21.63 60.50Q21.38 60.50 21.19 60.50Q21 60.50 21 60.50L21 60.50Q20.75 60.38 20.13 60.31Q19.50 60.25 19.38 60.25L19.38 60.25Q19.13 60.25 19.13 60.38Q19.13 60.50 19 60.75L19 60.75Q18.88 61 18.75 61.44Q18.63 61.88 18.63 62.38L18.63 62.38Q18.38 63.38 18.38 63.75Q18.38 64.13 18.75 64.50L18.75 64.50Q19.38 65.50 19.50 66.25Q19.63 67 19.63 69.13L19.63 69.13Q19.63 70.13 19.69 71.63Q19.75 73.13 19.88 74.25L19.88 74.25Q19.88 75.38 19.94 76.63Q20 77.88 20 78.38L20 78.38Q20 78.88 20.06 79.38Q20.13 79.88 20.13 80L20.13 80Q20.13 80.13 20.13 80.75Q20.13 81.38 20.25 82L20.25 82Q20.25 83.38 20.31 84.13Q20.38 84.88 20.38 85.25L20.38 85.25Q20.38 85.38 20.38 85.44Q20.38 85.50 20.38 85.50L20.38 85.50Q20.38 85.63 20.38 85.81Q20.38 86 20.38 86.13L20.38 86.13L20.38 86.13Q20.25 86.25 20.25 86.44Q20.25 86.63 20.25 86.88L20.25 86.88L20.25 86.88L20.13 87.50Q20 88 19.94 88.38Q19.88 88.75 19.75 89.13L19.75 89.13L19.75 89.13Q19.75 89.38 19.69 89.63Q19.63 89.88 19.63 90.25L19.63 90.25Q19.63 90.38 19.63 90.63Q19.63 90.88 19.75 91L19.75 91L19.75 91L19.88 91.38L20.88 91.88Q21.25 92.13 21.56 92.25Q21.88 92.38 21.88 92.38L21.88 92.38Q22.25 92.13 22.63 91.81Q23 91.50 23.25 91.25L23.25 91.25L23.25 91.25Q23.75 90.75 24 90.63Q24.25 90.50 24.38 90.63L24.38 90.63Q24.50 90.75 24.50 90.94Q24.50 91.13 24.25 91.75L24.25 91.75Q24 92.13 23.88 92.50Q23.75 92.88 23.63 93.25L23.63 93.25L23.63 93.38L23.38 94.13L23.88 95Q24.13 95.25 24.25 95.44Q24.38 95.63 24.63 95.88L24.63 95.88L24.63 95.88Q24.63 95.88 24.69 95.94Q24.75 96 24.75 96.13L24.75 96.13Q25.13 96.63 25.56 97Q26 97.38 26.50 97.75L26.50 97.75L26.50 97.75Q26.75 97.88 27 98.06Q27.25 98.25 27.25 98.25L27.25 98.25Q27.38 98.25 27.56 98.38Q27.75 98.50 28 98.75L28 98.75Q28.13 98.88 28.31 98.94Q28.50 99 28.75 99.13L28.75 99.13L28.75 99.13Q28.88 99.25 28.94 99.31Q29 99.38 29.13 99.38L29.13 99.38L29.13 99.38Q29.25 99.63 29.50 99.75Q29.75 99.88 30 100L30 100L30 100Q30.25 100.13 30.50 100.31Q30.75 100.50 31 100.63L31 100.63Q31.13 100.75 31.31 100.88Q31.50 101 31.63 101.13L31.63 101.13Q31.88 101.25 32.13 101.44Q32.38 101.63 32.50 101.75L32.50 101.75L32.50 101.75Q32.63 101.88 32.94 102.13Q33.25 102.38 33.63 102.63L33.63 102.63Q34 102.88 34.38 103.19Q34.75 103.50 35 103.63L35 103.63L36 104.38Q36.13 104.50 36.38 104.69Q36.63 104.88 36.75 105L36.75 105Q37 105.13 37.25 105.31Q37.50 105.50 37.63 105.63L37.63 105.63L37.75 105.63Q37.88 105.75 38.06 105.88Q38.25 106 38.50 106.13L38.50 106.13L38.38 106.13Q38.50 106.25 38.69 106.38Q38.88 106.50 39 106.63L39 106.63L39 106.63Q39.50 106.88 39.88 107.19Q40.25 107.50 40.63 107.88L40.63 107.88L40.63 107.88Q40.63 108 40.75 108.25Q40.88 108.50 40.88 108.75L40.88 108.75Q40.88 109 40.81 109.13Q40.75 109.25 40.75 109.38L40.75 109.38L40.75 109.38Q40.75 109.63 40.69 109.88Q40.63 110.13 40.63 110.38L40.63 110.38L40.63 110.50Q40.63 110.50 40.63 110.56Q40.63 110.63 40.63 110.75L40.63 110.75Q40.63 111 40.69 111.25Q40.75 111.50 41 111.63L41 111.63L41 111.63Q41.25 111.88 41.38 112.25Q41.50 112.63 41.50 113L41.50 113Q41.50 113 41.50 113Q41.50 113 41.50 113.13L41.50 113.13L41.50 113.13Q41.50 113.88 41.69 114Q41.88 114.13 43 114.38L43 114.38Q43.75 114.63 44.19 114.75Q44.63 114.88 45.25 115L45.25 115L46.50 115.25Q46.75 115.38 46.94 115.44Q47.13 115.50 47.38 115.50L47.38 115.50L47.25 115.50Q47.38 115.50 47.75 115.63Q48.13 115.75 48.50 116L48.50 116L50 116.50Q50.13 116.50 50.25 116.56Q50.38 116.63 50.50 116.63L50.50 116.63L50.50 116.63Q50.63 116.50 50.69 116.31Q50.75 116.13 50.75 115.88L50.75 115.88L50.75 115.88ZM71.25 115.75L71.25 115.75Q71.63 115.50 71.50 115.06Q71.38 114.63 70.88 114.75L70.88 114.75Q70.88 114.75 70.38 114.75Q69.88 114.75 69.25 114.88L69.25 114.88Q68.13 114.88 67.81 114.94Q67.50 115 67.63 115.25L67.63 115.25Q67.75 115.63 67.94 115.69Q68.13 115.75 68.63 115.75L68.63 115.75Q68.88 115.88 69.13 115.88Q69.38 115.88 69.63 115.88L69.63 115.88Q70.13 115.88 70.50 115.81Q70.88 115.75 71.25 115.75L71.25 115.75L71.25 115.75ZM68.25 113.25L67.88 113.38Q68 113.38 68.38 113.31Q68.75 113.25 69.25 113.13L69.25 113.13Q70.25 113 71.25 112.75Q72.25 112.50 73.13 112.25L73.13 112.25L73 112.25Q76 111.25 77.81 110Q79.63 108.75 81 106.63L81 106.63Q81.63 105.75 82.19 104.69Q82.75 103.63 83.25 102.50L83.25 102.50L83.38 102.38Q83.63 101.75 83.81 101.19Q84 100.63 84 100L84 100L84 99.88Q83.75 100 83.50 100.06Q83.25 100.13 83 100.25L83 100.25L83.13 100.25Q82.88 100.38 82.50 100.44Q82.13 100.50 81.88 100.63L81.88 100.63L81.75 100.63Q81.50 100.63 81.38 100.63Q81.25 100.63 81.13 100.38L81.13 100.38Q80.75 100.13 80.88 99.94Q81 99.75 81.63 99.50L81.63 99.50Q83.75 98.88 85.44 97.44Q87.13 96 88.13 94.13L88.13 94.13L88.13 94Q88.25 93.63 88.44 93.38Q88.63 93.13 88.75 92.88L88.75 92.88L88.75 92.88Q88.88 92.75 89.06 92.69Q89.25 92.63 89.50 92.63L89.50 92.63Q89.50 92.63 89.50 92.63Q89.50 92.63 89.50 92.63L89.50 92.63L89.50 92.63Q89.63 92.63 89.63 92.63Q89.63 92.63 89.75 92.63L89.75 92.63Q90.63 92.63 91.31 92.25Q92 91.88 92.38 91.13L92.38 91.13L92.38 91.13Q92.88 90.50 93.19 89.88Q93.50 89.25 93.75 88.50L93.75 88.50L93.75 88.50Q94.25 87.50 94.31 87.06Q94.38 86.63 94 86.50L94 86.50Q93.88 86.38 93.75 86.38Q93.63 86.38 93.38 86.38L93.38 86.38Q93.25 86.38 93.06 86.38Q92.88 86.38 92.75 86.50L92.75 86.50L92.75 86.50Q92.63 86.50 92.63 86.69Q92.63 86.88 92.63 87.13L92.63 87.13Q92.63 87.38 92.56 87.69Q92.50 88 92.38 88.13L92.38 88.13L92.38 88.13Q92.25 88.38 92.25 88.50Q92.25 88.63 92.25 88.63L92.25 88.63Q92.25 88.63 92.25 88.69Q92.25 88.75 92.13 88.75L92.13 88.75Q92 88.88 92 88.88Q92 88.88 92.13 88.88L92.13 88.88Q92.25 88.88 92.25 88.88Q92.25 88.88 92.13 88.88L92.13 88.88Q92.13 89 92.06 89.06Q92 89.13 92 89.13L92 89.13L92 89.13Q91.88 89.25 91.81 89.31Q91.75 89.38 91.75 89.50L91.75 89.50L91.75 89.50Q91.63 89.50 91.63 89.56Q91.63 89.63 91.50 89.75L91.50 89.75L91.50 89.75Q91.50 89.75 91.44 89.88Q91.38 90 91.25 90L91.25 90Q91.25 90 91.25 90Q91.25 90 91.25 90L91.25 90Q91.25 90 91.19 90.13Q91.13 90.25 91 90.50L91 90.50L90.63 90.75L90.63 90.50Q90.50 90.38 90.50 90.31Q90.50 90.25 90.50 90.13L90.50 90.13Q90.50 89.75 90.63 89.38Q90.75 89 91 88.75L91 88.75L91 88.75Q91.13 88.63 91.25 88.38Q91.38 88.13 91.38 87.88L91.38 87.88L91.38 87.88Q91.25 87.38 90.88 86.94Q90.50 86.50 90.13 86.25L90.13 86.25L90 86.25Q89.88 86.25 89.63 86.19Q89.38 86.13 89.13 86.13L89.13 86.13L89 86.13Q88 85.88 87.06 85.63Q86.13 85.38 85.13 84.88L85.13 84.88L85.25 85Q84.50 84.63 83.75 84.25Q83 83.88 82.38 83.38L82.38 83.38L82.50 83.38L81 82.38Q79.75 81.63 78.63 80.75Q77.50 79.88 76.50 79L76.50 79L76.50 79Q75.75 78.25 75.13 77.44Q74.50 76.63 74 75.63L74 75.63L74 75.63Q73.88 75.25 73.81 75.19Q73.75 75.13 73.63 75.38L73.63 75.38Q73.63 75.50 73.56 75.50Q73.50 75.50 73.50 75.50L73.50 75.50Q73.50 75.50 73.50 75.50Q73.50 75.50 73.50 75.63L73.50 75.63Q73.50 75.75 73.50 75.75Q73.50 75.75 73.50 75.75L73.50 75.75Q73.50 75.75 73.44 75.75Q73.38 75.75 73.50 75.75L73.50 75.75Q73.63 75.88 73.56 75.88Q73.50 75.88 73.50 75.88L73.50 75.88Q73.50 75.88 73.44 75.88Q73.38 75.88 73.50 76L73.50 76Q73.50 76 73.50 76.06Q73.50 76.13 73.50 76.13L73.50 76.13Q73.50 76 73.44 76.06Q73.38 76.13 73.50 76.13L73.50 76.13Q73.50 76.25 73.50 76.25Q73.50 76.25 73.50 76.25L73.50 76.25Q73.50 76.25 73.44 76.25Q73.38 76.25 73.50 76.38L73.50 76.38Q73.50 76.38 73.44 76.44Q73.38 76.50 73.38 76.38L73.38 76.38Q73.38 76.38 73.38 76.38Q73.38 76.38 73.38 76.38L73.38 76.38Q73.50 76.38 73.38 76.63Q73.25 76.88 73.13 76.88L73.13 76.88Q73 76.75 73.06 76.81Q73.13 76.88 73.13 76.88L73.13 76.88Q73.13 76.88 72.88 77.31Q72.63 77.75 72.63 77.63L72.63 77.63Q72.50 77.63 72.56 77.63Q72.63 77.63 72.63 77.63L72.63 77.63Q72.63 77.75 71.94 78.50Q71.25 79.25 70.38 79.88L70.38 79.88Q69.25 80.75 67.88 81.19Q66.50 81.63 65 81.63L65 81.63L64.88 81.63L64.38 81.63L65.13 81.13L66 80.25Q66 80.25 66.31 80Q66.63 79.75 66.88 79.63L66.88 79.63Q67.38 79.25 67.81 78.81Q68.25 78.38 68.50 77.88L68.50 77.88L68.63 77.75Q68.63 77.75 68.44 77.81Q68.25 77.88 68 78L68 78Q67.38 78.38 65.88 79.13Q64.38 79.88 63.75 80.25L63.75 80.25Q62.88 80.50 61.94 80.81Q61 81.13 59.88 81.38L59.88 81.38L59.75 81.38Q57.63 81.75 55.19 81.94Q52.75 82.13 50.13 82.25L50.13 82.25L50 82.25Q49.88 82.25 49.81 82.25Q49.75 82.25 49.63 82.25L49.63 82.25Q48.88 82.25 48.19 82.38Q47.50 82.50 46.88 82.75L46.88 82.75L46.88 82.75Q45 83.25 43.25 84.06Q41.50 84.88 40.13 86.13L40.13 86.13L40.13 86Q39.88 86.25 39.69 86.56Q39.50 86.88 39.50 87.25L39.50 87.25Q39.50 87.38 39.50 87.44Q39.50 87.50 39.50 87.50L39.50 87.50L39.50 87.50Q40.13 89.38 40.94 90.94Q41.75 92.50 42.75 93.88L42.75 93.88L42.75 93.88Q42.88 94.13 43.13 94.25Q43.38 94.38 43.75 94.50L43.75 94.50L43.75 94.50Q43.75 94.50 43.75 94.50Q43.75 94.50 43.75 94.50L43.75 94.50Q43.75 94.63 43.81 94.63Q43.88 94.63 43.88 94.63L43.88 94.63Q44.50 94.63 45 94.69Q45.50 94.75 46 95L46 95L45.88 95Q46.25 95.38 46.50 95.81Q46.75 96.25 46.88 96.75L46.88 96.75L46.88 96.88Q46.88 96.88 46.88 96.88Q46.88 96.88 46.88 96.88L46.88 96.88Q46.88 96.75 47 96.88Q47.13 97 47.25 97.13L47.25 97.13Q47.38 97.25 47.50 97.44Q47.63 97.63 47.75 97.75L47.75 97.75L47.75 97.75Q47.75 97.88 47.81 98Q47.88 98.13 48 98.25L48 98.25L48 98.25Q48 98.25 48.06 98.31Q48.13 98.38 48.13 98.50L48.13 98.50Q48.25 98.63 48.31 98.63Q48.38 98.63 48.38 98.63L48.38 98.63Q48.88 99 49.25 99.25Q49.63 99.50 50 99.88L50 99.88L50 99.88Q50 99.88 50.31 100.13Q50.63 100.38 51.13 100.63L51.13 100.63Q51.88 101.13 52.56 101.63Q53.25 102.13 53.88 102.75L53.88 102.75L53.88 102.75Q54 102.88 54.13 103Q54.25 103.13 54.38 103.13L54.38 103.13L54.38 103.25Q54.75 103.50 55.13 103.94Q55.50 104.38 55.88 104.75L55.88 104.75L55.88 104.88Q56.13 105.13 56.31 105.44Q56.50 105.75 56.75 106L56.75 106L56.75 106Q57.13 106.38 57.56 106.88Q58 107.38 58.13 107.75L58.13 107.75Q58.25 107.88 58.38 108.06Q58.50 108.25 58.63 108.38L58.63 108.38L58.63 108.38Q58.63 108.38 58.81 108.69Q59 109 59.38 109.63L59.38 109.63Q59.63 110.13 60 110.56Q60.38 111 60.75 111.25L60.75 111.25L60.88 111.25Q61.13 111.50 61.31 111.63Q61.50 111.75 61.50 111.88L61.50 111.88Q61.75 112 62.06 112.19Q62.38 112.38 62.75 112.50L62.75 112.50L62.88 112.50Q63.38 112.88 64.06 113.06Q64.75 113.25 65.50 113.38L65.50 113.38L65.50 113.38Q65.75 113.38 65.88 113.38Q66 113.38 66.25 113.38L66.25 113.38Q66.75 113.38 67.31 113.31Q67.88 113.25 68.38 113.25L68.38 113.25L68.25 113.25ZM86.63 112.75L86.63 112.88Q87 112.63 87.44 112.44Q87.88 112.25 88.63 111.88L88.63 111.88Q88.88 111.75 89.25 111.63Q89.63 111.50 89.88 111.38L89.88 111.38Q90.25 111.25 90.88 110.94Q91.50 110.63 92.13 110.50L92.13 110.50L93.13 110Q93.38 109.88 93.81 109.69Q94.25 109.50 94.50 109.38L94.50 109.38Q94.63 109.25 94.81 109.19Q95 109.13 95.13 109.13L95.13 109.13L95.25 109Q95.50 109 95.75 108.88Q96 108.75 96.25 108.63L96.25 108.63L96.25 108.63L97.50 108Q97.75 107.88 97.94 107.81Q98.13 107.75 98.38 107.63L98.38 107.63L98.50 107.63Q98.63 107.63 98.81 107.56Q99 107.50 99.13 107.38L99.13 107.38L99.13 107.38Q99.50 107.13 99.94 106.94Q100.38 106.75 100.75 106.63L100.75 106.63L100.88 106.63Q101.38 106.50 101.88 106.31Q102.38 106.13 102.75 105.88L102.75 105.88L102.75 105.88Q102.75 105.88 102.75 105.56Q102.75 105.25 102.75 104.75L102.75 104.75Q102.75 104.25 102.81 103.69Q102.88 103.13 102.88 102.75L102.88 102.75Q103 102.25 103 101.75Q103 101.25 103 100.75L103 100.75Q103 100.75 103 100.75Q103 100.75 103 100.63L103 100.63Q103 100.25 103.13 99.94Q103.25 99.63 103.38 99.25L103.38 99.25L103.38 99.25Q103.50 99.13 103.63 98.81Q103.75 98.50 103.75 98.25L103.75 98.25Q103.88 98 104.19 97.44Q104.50 96.88 104.75 96.25L104.75 96.25Q105.25 95.38 105.56 94.44Q105.88 93.50 106 92.38L106 92.38L106 92.38Q106 92.13 106 91.94Q106 91.75 106.13 91.63L106.13 91.63L106.13 91.63Q106.13 91.63 106.13 91.38Q106.13 91.13 106.13 91L106.13 91Q106.25 90.75 106.25 90.56Q106.25 90.38 106.25 90.13L106.25 90.13L106.25 90.25Q106.25 90.13 106.31 89.88Q106.38 89.63 106.38 89.25L106.38 89.25Q106.38 89 106.44 88.75Q106.50 88.50 106.50 88.38L106.50 88.38Q106.50 88.25 106.56 88.06Q106.63 87.88 106.63 87.75L106.63 87.75Q106.75 87.25 107 85.88Q107.25 84.50 107.50 83.75L107.50 83.75Q107.50 83.50 107.69 82.56Q107.88 81.63 108 81.13L108 81.13Q108 80.88 108.13 80.50Q108.25 80.13 108.38 79.88L108.38 79.88Q108.38 79.63 108.44 79.44Q108.50 79.25 108.50 79L108.50 79L108.50 79Q108.75 77.75 109.19 76.56Q109.63 75.38 110.13 74.38L110.13 74.38L110.13 74.50Q110.38 74 110.69 73.31Q111 72.63 111.25 72L111.25 72L111.25 71.75Q111.38 71.50 111.44 71.38Q111.50 71.25 111.63 71L111.63 71L111.63 71.13Q111.75 70.88 111.94 70.50Q112.13 70.13 112.25 69.88L112.25 69.88L112.25 69.75Q112.38 69.38 112.56 69.06Q112.75 68.75 112.88 68.38L112.88 68.38L112.88 68.38Q113.25 67.75 113.44 66.94Q113.63 66.13 113.75 65.38L113.75 65.38L113.75 65.25Q113.75 65.25 113.81 65Q113.88 64.75 113.88 64.63L113.88 64.63Q114 64.50 114 64.31Q114 64.13 114 64L114 64Q114 63.88 114 63.69Q114 63.50 113.88 63.38L113.88 63.38L113.88 63.38Q113 62.75 111.94 62.19Q110.88 61.63 109.88 61.13L109.88 61.13L109.63 61.13Q109.13 61 108.94 60.81Q108.75 60.63 108.88 60.50L108.88 60.50Q109.13 60.25 109.38 60.19Q109.63 60.13 110 60.13L110 60.13Q110.13 60.13 110.31 60.13Q110.50 60.13 110.63 60.25L110.63 60.25L110.63 60.25Q110.75 60.25 110.88 60.25Q111 60.25 111 60.25L111 60.25Q111.25 60.38 111.50 60.44Q111.75 60.50 112 60.63L112 60.63L112 60.50Q112.38 60.75 112.69 60.81Q113 60.88 113.13 60.88L113.13 60.88Q113.13 60.88 113.13 60.81Q113.13 60.75 113.13 60.75L113.13 60.75Q113.25 60.50 113.25 60.31Q113.25 60.13 113.38 59.88L113.38 59.88L113.38 60Q113.38 59.88 113.38 59.75Q113.38 59.63 113.38 59.38L113.38 59.38Q113.38 59.13 113.25 58.81Q113.13 58.50 112.88 58.25L112.88 58.25L112.88 58.25Q112.75 58 112.63 57.75Q112.50 57.50 112.50 57.13L112.50 57.13L112.50 57.13Q112.50 57.13 112.50 57Q112.50 56.88 112.50 56.88L112.50 56.88Q112.63 56.63 112.69 56.50Q112.75 56.38 112.88 56.25L112.88 56.25L112.88 56.25Q112.88 56.13 113 56Q113.13 55.88 113.13 55.75L113.13 55.75L113.13 55.63Q112.38 54.75 111.56 53.94Q110.75 53.13 109.88 52.38L109.88 52.38L109.75 52.38Q109.63 52.25 109.56 52.25Q109.50 52.25 109.38 52.25L109.38 52.25Q109.13 52.25 108.94 52.31Q108.75 52.38 108.63 52.38L108.63 52.38L108.63 52.38Q108.38 52.63 107.06 53.13Q105.75 53.63 105.13 53.75L105.13 53.75Q104.63 54 104.13 54.19Q103.63 54.38 103.13 54.63L103.13 54.63L103.25 54.50Q103.25 54.63 103.13 54.63Q103 54.63 103 54.63L103 54.63L102.88 54.63Q102.88 54.63 101 55.31Q99.13 56 98 56.50L98 56.50L96.88 56.88Q96.50 57 96.38 57.19Q96.25 57.38 96.38 57.63L96.38 57.63Q96.50 58.25 96.44 58.63Q96.38 59 95.75 59.88L95.75 59.88Q95.50 60.25 95.25 60.63Q95 61 94.88 61L94.88 61Q94.88 61.13 94.81 61.25Q94.75 61.38 94.75 61.50L94.75 61.50L94.75 61.50Q95 62.25 95.31 62.88Q95.63 63.50 96.13 64L96.13 64L96 64Q96.25 64.25 96.38 64.50Q96.50 64.75 96.63 65L96.63 65L96.63 65Q96.75 65.50 96.81 65.75Q96.88 66 96.75 65.88L96.75 65.88Q96.75 65.88 96.69 66Q96.63 66.13 96.63 66.38L96.63 66.38Q96.63 66.50 96.63 66.50Q96.63 66.50 96.63 66.50L96.63 66.50Q96.63 66.50 96.44 66.81Q96.25 67.13 96 67.75L96 67.75Q95.50 69.38 95.38 70.31Q95.25 71.25 95.38 71.63L95.38 71.63Q95.63 72.25 95.88 72.94Q96.13 73.63 96.38 74.38L96.38 74.38L96.38 74.50Q96.63 75.25 96.75 75.94Q96.88 76.63 96.88 77.38L96.88 77.38L96.88 77.50Q96.88 77.88 97 78.13Q97.13 78.38 97.38 78.38L97.38 78.38Q97.63 78.38 97.81 78.44Q98 78.50 98.13 78.50L98.13 78.50L98.13 78.50L99.50 79Q99.88 79.13 100.19 79.31Q100.50 79.50 100.88 79.63L100.88 79.63L100.75 79.63Q100.88 79.75 101.06 79.81Q101.25 79.88 101.38 80L101.38 80L101.38 80Q101.63 80.13 101.75 80.25Q101.88 80.38 102 80.50L102 80.50L102 80.50Q102.25 80.63 102.50 80.81Q102.75 81 102.75 81.13L102.75 81.13Q103.38 81.63 103.88 82.25Q104.38 82.88 104.88 83.50L104.88 83.50L104.88 83.50Q105.25 84.13 105.19 84.19Q105.13 84.25 104.50 84L104.50 84Q103.63 83.63 102.63 83.31Q101.63 83 100.63 82.88L100.63 82.88L100.50 82.88L97.63 82.75Q96.13 82.75 95.81 82.75Q95.50 82.75 95.63 82.88L95.63 82.88Q96.75 83.75 97.75 84.63Q98.75 85.50 99.63 86.50L99.63 86.50L99.63 86.50Q99.75 86.75 99.94 86.94Q100.13 87.13 100.13 87.13L100.13 87.13Q100.50 87.50 100.75 87.94Q101 88.38 101.25 88.75L101.25 88.75L101.25 88.88Q101.38 89 101.63 89.88Q101.88 90.75 102.13 91.50L102.13 91.50Q102.25 92.13 102.44 92.88Q102.63 93.63 102.63 94.38L102.63 94.38L102.63 94.50Q102.63 94.88 102.63 95Q102.63 95.13 102.50 95.13L102.50 95.13Q102.50 95.13 102.25 94.69Q102 94.25 101.50 93.13L101.50 93.13Q101.50 92.88 101.38 92.69Q101.25 92.50 101.13 92.25L101.13 92.25L101.13 92.25Q101 92.13 100.88 91.94Q100.75 91.75 100.75 91.50L100.75 91.50L100.63 91.50Q100.13 90.63 99.56 90Q99 89.38 98.25 88.75L98.25 88.75L98.25 88.75Q98 88.63 97.69 88.44Q97.38 88.25 97.13 88.13L97.13 88.13Q97 88 96.81 87.88Q96.63 87.75 96.38 87.63L96.38 87.63L96.38 87.63Q96.25 87.63 96.19 88.06Q96.13 88.50 96.13 88.75L96.13 88.75Q96.13 88.88 96.13 88.94Q96.13 89 96.13 89L96.13 89Q96.13 88.88 96.13 89.06Q96.13 89.25 96 89.50L96 89.50Q96 89.75 95.94 90.19Q95.88 90.63 95.88 91L95.88 91Q95.63 92 95.56 93.13Q95.50 94.25 95.50 95.50L95.50 95.50Q95.50 95.88 95.50 96.38Q95.50 96.88 95.50 97.25L95.50 97.25L95.50 97.25Q95.63 98 95.63 98.63Q95.63 99.25 95.75 99.38L95.75 99.38Q95.75 99.50 95.75 99.88Q95.75 100.25 95.88 100.75L95.88 100.75Q95.88 101.13 95.94 101.44Q96 101.75 96 102L96 102L96 102Q96.13 102.13 96.13 102.31Q96.13 102.50 96.13 102.63L96.13 102.63L96.13 102.63Q96.13 102.88 96.19 103.06Q96.25 103.25 96.25 103.38L96.25 103.38L96.25 103.38Q96.25 103.38 96.25 103.38Q96.25 103.38 96.13 103.38L96.13 103.38Q96.13 103.25 96.06 103.19Q96 103.13 96 103L96 103L96 103Q96 103 96 103Q96 103 96 103L96 103Q96 103 95.94 102.94Q95.88 102.88 95.88 102.88L95.88 102.88L95.88 102.88Q95.75 102.88 95.69 102.88Q95.63 102.88 95.63 102.75L95.63 102.75Q95.63 102.75 95.50 102.63Q95.38 102.50 95.25 102.25L95.25 102.25Q94.88 101.88 94.56 101.38Q94.25 100.88 94.13 100.25L94.13 100.25L94 100.25Q94 100 93.88 99.69Q93.75 99.38 93.75 99.25L93.75 99.25Q93.63 99 93.56 98.75Q93.50 98.50 93.50 98.25L93.50 98.25L93.50 98.25Q93.38 97.88 93.38 97.63Q93.38 97.38 93.38 97.25L93.38 97.25Q93.25 97.13 93.25 96.63Q93.25 96.13 93.25 95.63L93.25 95.63Q93.25 95.25 93.19 94.88Q93.13 94.50 93.13 94.25L93.13 94.25L93.13 94.25Q93 94.38 93 94.56Q93 94.75 93 95L93 95L93 95Q92.88 95.25 92.81 95.69Q92.75 96.13 92.63 96.38L92.63 96.38Q92.63 96.75 92.56 97Q92.50 97.25 92.50 97.38L92.50 97.38Q92.38 97.50 92.38 97.69Q92.38 97.88 92.38 98L92.38 98Q92.25 98.50 92.25 99.13Q92.25 99.75 92.25 100.38L92.25 100.38Q92.25 101 92.25 101.63Q92.25 102.25 92.38 102.88L92.38 102.88L92.38 102.88Q92.50 103.88 92.69 104.94Q92.88 106 93.25 106.88L93.25 106.88L93.13 106.75Q93.25 106.88 93.25 106.94Q93.25 107 93.13 107.13L93.13 107.13Q93 107.13 92.75 106.88Q92.50 106.63 92 105.88L92 105.88Q91.88 105.50 91.63 105.13Q91.38 104.75 91.25 104.50L91.25 104.50Q91 104.25 90.88 103.88Q90.75 103.50 90.63 103L90.63 103L90.50 103Q90.38 102.63 90.25 102.19Q90.13 101.75 90 101.50L90 101.50Q89.88 101.13 89.75 100.75Q89.63 100.38 89.63 99.88L89.63 99.88L89.63 99.88Q89.63 99.75 89.63 99.63Q89.63 99.50 89.50 99.38L89.50 99.38L89.50 99.38Q89.50 99.25 89.44 99Q89.38 98.75 89.38 98.63L89.38 98.63L89.38 98.63Q89.38 98.38 89.38 98.13Q89.38 97.88 89.25 97.75L89.25 97.75L89.25 97.75Q89.25 97.50 89.25 97.19Q89.25 96.88 89.25 96.50L89.25 96.50Q89.25 96.50 89.25 96.44Q89.25 96.38 89.25 96.25L89.25 96.25L89.25 96.25Q89.25 96.25 89.25 96.19Q89.25 96.13 89.25 96L89.25 96Q89.25 95.75 89.19 95.50Q89.13 95.25 89.13 95L89.13 95L89.13 95Q89.13 95 89.06 95Q89 95 88.88 95.13L88.88 95.13Q88.75 95.25 88.69 95.38Q88.63 95.50 88.75 95.38L88.75 95.38Q89 95.25 88.94 95.31Q88.88 95.38 88.75 95.38L88.75 95.38Q88.63 95.50 88.63 95.50Q88.63 95.50 88.63 95.50L88.63 95.50Q88.50 95.50 88.38 95.75Q88.25 96 88.25 96.13L88.25 96.13Q88.25 96.25 88.19 96.25Q88.13 96.25 88 96.25L88 96.25Q88 96.38 87.94 96.44Q87.88 96.50 87.88 96.50L87.88 96.50L87.88 96.50Q87.63 97 87.25 97.38Q86.88 97.75 86.38 98L86.38 98L86.38 98.13Q86.25 98.13 86.13 98.31Q86 98.50 86 98.63L86 98.63L86 98.63Q85.88 99 85.38 100.31Q84.88 101.63 84.75 102L84.75 102Q84.75 102.13 84.56 102.50Q84.38 102.88 84.25 103.25L84.25 103.25Q84.13 103.63 83.94 104.06Q83.75 104.50 83.63 104.75L83.63 104.75Q83.38 105.38 83.38 105.63Q83.38 105.88 83.63 106.50L83.63 106.50Q83.88 107.13 84.06 107.75Q84.25 108.38 84.38 109L84.38 109L84.38 109.13Q84.38 109.25 84.44 109.31Q84.50 109.38 84.50 109.50L84.50 109.50L84.50 109.50Q84.63 109.75 84.75 110.06Q84.88 110.38 85 110.63L85 110.63L85 110.75Q85.13 111.13 85.25 111.44Q85.38 111.75 85.50 112.13L85.50 112.13L85.50 112.13Q85.63 112.13 85.69 112.25Q85.75 112.38 85.75 112.50L85.75 112.50L85.75 112.50Q85.75 112.63 85.88 112.75Q86 112.88 86.13 112.88L86.13 112.88L86.13 112.88Q86.25 112.88 86.38 112.81Q86.50 112.75 86.63 112.75L86.63 112.75L86.63 112.75ZM46.50 102.13L46.38 102.13Q46.63 101.75 46.81 101.38Q47 101 47.13 100.50L47.13 100.50L47.13 100.50Q46.88 100.13 46.63 99.88Q46.38 99.63 46.13 99.38L46.13 99.38L46.13 99.38Q46 99.25 45.81 99.38Q45.63 99.50 45.63 99.63L45.63 99.63Q45.50 99.88 45.50 100.31Q45.50 100.75 45.50 101.38L45.50 101.38Q45.38 102 45.31 102.50Q45.25 103 45.25 103.25L45.25 103.25Q45.25 103.38 45.25 103.44Q45.25 103.50 45.50 103.50L45.50 103.50Q45.63 103.50 45.81 103.31Q46 103.13 46.50 102.13L46.50 102.13ZM91 98.50L91 98.50Q91.13 97.88 91.25 97.19Q91.38 96.50 91.50 95.63L91.50 95.63L91.50 95.50Q91.50 95.38 91.56 95.13Q91.63 94.88 91.63 94.75L91.63 94.75L91.63 94.75Q91.88 94.13 91.63 94Q91.38 93.88 90.75 94.25L90.75 94.25Q90.13 94.50 90 94.75Q89.88 95 90 95.88L90 95.88Q90 96.50 90.19 97.88Q90.38 99.25 90.38 99.63L90.38 99.63Q90.38 99.75 90.44 99.75Q90.50 99.75 90.75 99.38L90.75 99.38Q90.75 99.25 90.81 99Q90.88 98.75 91 98.63L91 98.63L91 98.50ZM37.63 85.75L37.63 85.75Q38 84.88 38.56 84.25Q39.13 83.63 39.88 83.13L39.88 83.13L39.88 83.13Q40.63 82.63 41.63 82.38Q42.63 82.13 44.88 81.88L44.88 81.88Q45.38 81.88 46 81.81Q46.63 81.75 46.88 81.75L46.88 81.75Q47.25 81.63 48.25 81.56Q49.25 81.50 50.50 81.38L50.50 81.38Q52.75 81.25 54.81 81Q56.88 80.75 58.88 80.38L58.88 80.38L58.50 80.38Q61.13 79.88 62.94 79.06Q64.75 78.25 67.75 76.25L67.75 76.25Q68.75 75.50 69.69 74.75Q70.63 74 71.38 73L71.38 73L71.38 73Q72.25 72 72.88 70.81Q73.50 69.63 73.88 68.38L73.88 68.38L73.88 68.25Q73.88 68 73.94 67.75Q74 67.50 74 67.25L74 67.25Q74 67 73.94 66.69Q73.88 66.38 73.88 66.13L73.88 66.13L73.88 66.25Q73.13 64.88 72.25 63.88Q71.38 62.88 70.25 62.13L70.25 62.13L70.13 62Q68.75 61.13 67.13 60.56Q65.50 60 63.75 59.88L63.75 59.88L63.63 59.88Q63.25 59.88 62.75 59.88Q62.25 59.88 61.75 59.88L61.75 59.88Q60.50 59.88 59.19 59.94Q57.88 60 56.63 60.13L56.63 60.13L56.88 60.13Q53.25 60.75 50.06 62.19Q46.88 63.63 44.25 65.88L44.25 65.88L44.38 65.75Q43 66.88 41.75 68Q40.50 69.13 39.38 70.38L39.38 70.38L39.38 70.38Q38.13 71.50 37.69 72.19Q37.25 72.88 35.75 75.25L35.75 75.25Q35.50 75.63 35.19 76.13Q34.88 76.63 34.63 77L34.63 77Q34.25 77.50 34 78Q33.75 78.50 33.50 79.13L33.50 79.13L33.50 79.25Q33.50 79.38 33.44 79.56Q33.38 79.75 33.38 79.75L33.38 79.75Q33.75 79.50 34.13 79.25Q34.50 79 34.88 78.75L34.88 78.75L34.88 78.75Q35.50 78.13 36.38 77.69Q37.25 77.25 38.13 76.88L38.13 76.88L38.25 76.88Q40.13 76 42.38 75.50Q44.63 75 47 74.88L47 74.88L47 74.88Q49.13 74.63 51 74.38Q52.88 74.13 54.75 73.63L54.75 73.63L54.38 73.75Q58.88 72.75 61 71.81Q63.13 70.88 65.50 68.75L65.50 68.75Q66 68.50 66.19 68.31Q66.38 68.13 66.50 68.25L66.50 68.25Q66.50 68.38 66.50 68.50Q66.50 68.63 66.50 68.75L66.50 68.75Q66.50 68.88 66.50 69Q66.50 69.13 66.50 69.25L66.50 69.25L66.50 69.25Q66.50 69.25 66.50 69.25Q66.50 69.25 66.50 69.38L66.50 69.38Q66.50 69.63 66.44 69.94Q66.38 70.25 66.13 70.63L66.13 70.63L66.25 70.63Q65.88 71.13 65.56 71.50Q65.25 71.88 64.88 72.25L64.88 72.25L64.88 72.25Q63.50 73.13 62.06 73.94Q60.63 74.75 59 75.38L59 75.38L58.75 75.50Q58.25 75.63 56.69 76.19Q55.13 76.75 54.50 76.88L54.50 76.88L53.75 77.13Q53.50 77.13 53.06 77.25Q52.63 77.38 52.13 77.50L52.13 77.50L49.38 78.13Q47.50 78.50 46.69 78.69Q45.88 78.88 44.75 79.13L44.75 79.13Q42.63 79.50 41.06 80.19Q39.50 80.88 38.50 81.75L38.50 81.75Q37.88 82.38 37.44 83.13Q37 83.88 36.75 84.88L36.75 84.88L36.75 84.88Q36.75 84.88 36.75 84.94Q36.75 85 36.75 85.13L36.75 85.13Q36.75 85.50 36.88 85.88Q37 86.25 37.13 86.63L37.13 86.63L37.13 86.63Q37.25 86.38 37.38 86.19Q37.50 86 37.63 85.75L37.63 85.75L37.63 85.75ZM92.75 84.38L92.75 84.38Q93.13 84.38 93.63 84.31Q94.13 84.25 94.38 84.25L94.38 84.25L95 84.13L94 83.50Q93.38 83.13 92.56 82.88Q91.75 82.63 90.88 82.63L90.88 82.63Q90.50 82.63 90.13 82.69Q89.75 82.75 89.38 82.88L89.38 82.88L89.38 82.88Q89 83 88.63 83Q88.25 83 87.88 83L87.88 83Q87.63 83 87.31 83Q87 83 86.75 83L86.75 83L86.75 83Q86.50 82.88 86.25 82.88Q86 82.88 85.75 82.88L85.75 82.88Q85.63 82.88 85.56 82.88Q85.50 82.88 85.38 82.88L85.38 82.88L85.38 82.88L84.63 82.88L85.88 83.50Q86.25 83.75 86.81 83.94Q87.38 84.13 88 84.25L88 84.25L88 84.25Q88.38 84.25 88.81 84.31Q89.25 84.38 89.50 84.38L89.50 84.38Q89.88 84.38 90.25 84.44Q90.63 84.50 91.13 84.50L91.13 84.50Q91.50 84.50 91.94 84.44Q92.38 84.38 92.75 84.38L92.75 84.38L92.75 84.38ZM88.75 81.25L88.88 81.25Q89.88 81.13 91.06 81.06Q92.25 81 93.50 81L93.50 81Q94.75 81 96 81.06Q97.25 81.13 98.38 81.25L98.38 81.25L98.25 81.25L99.50 81.38Q99.13 81 98.69 80.69Q98.25 80.38 97.88 80.25L97.88 80.25L97.75 80.25Q97.13 80 96.38 79.81Q95.63 79.63 94.75 79.63L94.75 79.63L94.75 79.63Q92.75 79.38 90.94 79.06Q89.13 78.75 88.88 78.75L88.88 78.75Q88.75 78.63 88.63 78.63Q88.50 78.63 88.38 78.63L88.38 78.63L88.38 78.63Q87.13 78.38 86.06 77.94Q85 77.50 84.13 76.88L84.13 76.88L84.13 76.88L83.63 76.38Q82.63 75.50 80.44 73.63Q78.25 71.75 77.25 70.75L77.25 70.75Q76.75 70.38 76.31 69.81Q75.88 69.25 75.63 68.63L75.63 68.63L75.50 68.63Q75.38 68.25 75.19 68.19Q75 68.13 74.88 68.25L74.88 68.25Q74.63 68.63 74.44 69.19Q74.25 69.75 74.13 70.25L74.13 70.25L74.13 70.25Q74.13 70.63 74.06 70.94Q74 71.25 74 71.63L74 71.63Q74 72.13 74.13 72.69Q74.25 73.25 74.38 73.63L74.38 73.63L74.38 73.63Q74.63 74.50 75.19 75.19Q75.75 75.88 76.38 76.38L76.38 76.38L76.38 76.38Q77.38 77.25 78.56 78Q79.75 78.75 81 79.38L81 79.38L81.13 79.38L82.13 79.88Q82.88 80.25 83.94 80.56Q85 80.88 86.13 81.25L86.13 81.25L86.25 81.25Q86.63 81.25 86.94 81.31Q87.25 81.38 87.50 81.38L87.50 81.38Q87.88 81.38 88.19 81.31Q88.50 81.25 88.88 81.25L88.88 81.25L88.75 81.25ZM37.25 80.63L37.13 80.63Q38.38 79.63 39.88 78.94Q41.38 78.25 43 77.88L43 77.88L43.13 77.88Q43.75 77.75 44.50 77.63Q45.25 77.50 47.75 77L47.75 77Q49.75 76.75 51.56 76.31Q53.38 75.88 55.13 75.38L55.13 75.38L54.75 75.50Q54.88 75.50 55.13 75.38Q55.38 75.25 55.88 75L55.88 75Q56.63 74.75 56.75 74.63Q56.88 74.50 56.50 74.63L56.50 74.63L54.25 75L51.75 75.38Q51.50 75.38 50.44 75.56Q49.38 75.75 48.13 75.88L48.13 75.88Q46.75 76 45.81 76.13Q44.88 76.25 44.75 76.25L44.75 76.25Q44.75 76.38 44.63 76.38Q44.50 76.38 44.38 76.38L44.38 76.38Q44.38 76.38 44.38 76.38Q44.38 76.38 44.38 76.38L44.38 76.38L44.38 76.38Q43.13 76.50 42 76.81Q40.88 77.13 39.88 77.63L39.88 77.63L40 77.50Q38.13 78.38 37.38 78.75Q36.63 79.13 36.50 79.38L36.50 79.38Q36.38 79.63 36.31 79.94Q36.25 80.25 36.25 80.50L36.25 80.50Q36.25 80.63 36.25 80.69Q36.25 80.75 36.25 80.88L36.25 80.88L36.25 80.88Q36.38 81 36.63 80.94Q36.88 80.88 37.25 80.63L37.25 80.63ZM95.25 78.25L95.25 78.25Q95.38 78.25 95.50 78.06Q95.63 77.88 95.63 77.63L95.63 77.63Q95.63 77.63 95.63 77.63Q95.63 77.63 95.63 77.63L95.63 77.63L95.63 77.63Q95.63 77.50 95.56 77.38Q95.50 77.25 95.50 77.25L95.50 77.25Q95.38 77 95.25 76.75Q95.13 76.50 95 76.38L95 76.38L95 76.38Q94.75 76 94.50 75.69Q94.25 75.38 94.13 75L94.13 75L94.13 74.88Q93.63 74 93.13 73.25Q92.63 72.50 91.88 71.75L91.88 71.75L91.88 71.75Q90.63 70.50 89.13 69.31Q87.63 68.13 86.13 67.13L86.13 67.13L85.88 67Q85.63 66.88 84.88 66.69Q84.13 66.50 82.75 66L82.75 66Q82.50 66 82.25 65.94Q82 65.88 81.75 65.75L81.75 65.75L81.88 65.75Q82.25 65.75 82.63 65.88Q83 66 83.38 66.13L83.38 66.13L84.13 66.25Q86.13 66.88 88 67.69Q89.88 68.50 91.50 69.63L91.50 69.63L91.38 69.50Q91.50 69.63 91.63 69.63Q91.75 69.63 91.88 69.63L91.88 69.63Q92 69.63 92.13 69.63Q92.25 69.63 92.25 69.63L92.25 69.63L92.25 69.63Q92.38 69.50 92.25 69.31Q92.13 69.13 91.25 68L91.25 68L90.38 66.88L88.50 65.75Q87.63 65.25 86.81 64.69Q86 64.13 85.25 63.50L85.25 63.50L85.25 63.50Q84.88 63.25 84.38 63Q83.88 62.75 83.38 62.63L83.38 62.63L83.38 62.63Q82.63 62.38 81.75 62.25Q80.88 62.13 79.88 62.13L79.88 62.13Q79.63 62.13 79.44 62.13Q79.25 62.13 79 62.25L79 62.25L79 62.25Q78.88 62.13 78.69 62.13Q78.50 62.13 78.38 62.13L78.38 62.13Q77.88 62.13 77.44 62.19Q77 62.25 76.63 62.25L76.63 62.25L76.63 62.25Q76.50 62.38 76.38 62.56Q76.25 62.75 76.25 63L76.25 63L76.25 63Q76.25 63 76.25 63.06Q76.25 63.13 76.13 63.13L76.13 63.13Q76.13 63.13 76.06 63.38Q76 63.63 76 64.13L76 64.13Q76 64.63 76 65.13Q76 65.63 75.88 65.63L75.88 65.63Q75.88 65.75 75.81 65.94Q75.75 66.13 75.75 66.25L75.75 66.25Q75.75 66.50 75.81 66.69Q75.88 66.88 75.88 67L75.88 67L75.88 67Q75.88 67.13 75.94 67.19Q76 67.25 76 67.38L76 67.38L76 67.38Q76.13 67.63 76.25 67.81Q76.38 68 76.38 67.88L76.38 67.88Q76.38 67.75 76.44 67.88Q76.50 68 76.63 68.25L76.63 68.25Q77 69 78.63 70.38Q80.25 71.75 83.25 74L83.25 74Q83.50 74.13 83.88 74.44Q84.25 74.75 84.50 74.88L84.50 74.88Q85 75.25 85.63 75.63Q86.25 76 86.88 76.25L86.88 76.25L87 76.25L88.75 76.88Q90.63 77.63 92.63 78.06Q94.63 78.50 95.25 78.25L95.25 78.25ZM38.25 68.63L38.25 68.63Q38.25 68.75 38.25 68.75Q38.25 68.75 38.38 68.75L38.38 68.75L38.88 68.38Q39.25 68 39.88 67.44Q40.50 66.88 41.75 65.75L41.75 65.75Q42.25 65.25 42.75 64.81Q43.25 64.38 43.75 63.88L43.75 63.88L43.88 63.88L46.13 62.50Q47 61.88 48 61.38Q49 60.88 50.13 60.38L50.13 60.38L50.38 60.38Q51.50 59.88 52.75 59.50Q54 59.13 55.25 59L55.25 59L55.38 59L57.75 58.63Q58.38 58.50 59.19 58.44Q60 58.38 60.75 58.38L60.75 58.38Q61.75 58.38 62.69 58.44Q63.63 58.50 64.50 58.75L64.50 58.75L64.38 58.75Q67 59.13 69.25 60.44Q71.50 61.75 73 63.75L73 63.75L73 63.75Q73.63 64.50 73.81 64.63Q74 64.75 74.13 64.75L74.13 64.75Q74.50 64.50 74.75 62.69Q75 60.88 74.75 59.75L74.75 59.75Q74.50 57.75 73.63 56.13Q72.75 54.50 71.50 53.25L71.50 53.25L71.50 53.25Q70.63 52.50 69.75 51.88Q68.88 51.25 67.75 50.75L67.75 50.75L67.75 50.63Q64.88 49.13 62.63 49Q60.38 48.88 56.88 49.88L56.88 49.88Q55.63 50.13 54.50 50.56Q53.38 51 52.25 51.50L52.25 51.50L52.38 51.50Q51.13 52.25 50.06 53Q49 53.75 48 54.63L48 54.63L48.13 54.50Q48.13 54.50 47.75 54.81Q47.38 55.13 46.88 55.63L46.88 55.63Q46.38 56 45.94 56.44Q45.50 56.88 45.38 57L45.38 57Q45.13 57.25 44.25 58.38Q43.38 59.50 43.13 60L43.13 60Q43 60.13 42.56 60.69Q42.13 61.25 41.63 62L41.63 62Q39.75 64.25 38.81 65.88Q37.88 67.50 37.50 69L37.50 69Q37.50 69.13 37.56 69.13Q37.63 69.13 37.88 68.75L37.88 68.75Q38.25 68.38 38.31 68.38Q38.38 68.38 38.25 68.63L38.25 68.63ZM90.75 64.50L90.75 64.63Q90.50 64.25 89.88 63.50Q89.25 62.75 88.63 62L88.63 62Q88 61 87.19 60.13Q86.38 59.25 85.50 58.50L85.50 58.50L85.50 58.50Q85.25 58.25 85 58Q84.75 57.75 84.63 57.75L84.63 57.75Q84.13 57.38 83.50 57.13Q82.88 56.88 82.25 56.75L82.25 56.75L82.25 56.75Q81.75 56.63 81.38 56.44Q81 56.25 80.75 56.13L80.75 56.13L80.75 56.13Q80.50 56 80.25 55.88Q80 55.75 79.63 55.63L79.63 55.63L79.63 55.63Q79.38 55.63 79.06 55.56Q78.75 55.50 78.38 55.50L78.38 55.50Q78 55.50 77.69 55.56Q77.38 55.63 77.13 55.63L77.13 55.63L77.13 55.63L76.25 55.88Q76.25 55.88 76.13 55.94Q76 56 76 56L76 56L76 56Q75.88 56.13 75.88 56.38Q75.88 56.63 76 57.38L76 57.38Q76 57.63 76.06 58.19Q76.13 58.75 76.13 59.38L76.13 59.38Q76.13 60.38 76.19 60.69Q76.25 61 76.38 61.13L76.38 61.13Q76.50 61.25 76.88 61.31Q77.25 61.38 79.50 61.38L79.50 61.38Q82.50 61.38 83.63 61.63Q84.75 61.88 86.88 62.88L86.88 62.88Q87.50 63.25 88.13 63.63Q88.75 64 89 64.13L89 64.13Q89.50 64.38 90.06 64.69Q90.63 65 91.13 65.13L91.13 65.13L91.25 65.25Q91.25 65.25 91.13 65.06Q91 64.88 90.75 64.50L90.75 64.50ZM36.75 60.63L36.75 60.75Q36.88 60.25 37.06 59.75Q37.25 59.25 37.38 58.75L37.38 58.75L37.38 58.63Q37.63 57.75 37.88 56.94Q38.13 56.13 38.25 55.75L38.25 55.75Q38.38 55.50 38.44 55.25Q38.50 55 38.50 54.75L38.50 54.75L38.50 54.75Q38.50 54.63 37.63 54.38Q36.75 54.13 33.13 53.25L33.13 53.25Q31.50 52.88 28.38 52Q25.25 51.13 22.50 50.50L22.50 50.50Q19.75 49.75 17.81 49.25Q15.88 48.75 15.75 48.75L15.75 48.75Q15.75 48.75 15.75 48.75Q15.75 48.75 15.75 48.75L15.75 48.75Q15.63 48.75 15.56 48.75Q15.50 48.75 15.50 48.75L15.50 48.75L15.50 48.75Q15.50 48.88 15.38 49.75Q15.25 50.63 15.13 51.75L15.13 51.75Q15 53 14.88 54.25Q14.75 55.50 14.75 56.13L14.75 56.13Q14.63 57 14.63 57.31Q14.63 57.63 14.75 57.63L14.75 57.63Q14.75 57.75 16.69 58.06Q18.63 58.38 23.13 58.88L23.13 58.88L33.75 60.38Q35.88 60.75 36.25 60.75Q36.63 60.75 36.75 60.63L36.75 60.63ZM96.75 55.38L96.75 55.25L106.38 52Q109.13 51 111.19 50.31Q113.25 49.63 113.25 49.50L113.25 49.50Q113.50 49.38 113.63 48.75Q113.75 48.13 114 44.63L114 44.63Q114.13 43.63 114.19 42.88Q114.25 42.13 114.25 42L114.25 42Q114.25 41.88 114.25 41.75Q114.25 41.63 114.13 41.63L114.13 41.63Q114 41.63 110.31 42.69Q106.63 43.75 101.63 45.25L101.63 45.25Q94.25 47.38 91.81 48.13Q89.38 48.88 89.38 49L89.38 49Q89.38 49.25 89.50 49.50Q89.63 49.75 89.75 50L89.75 50L89.75 50Q90.38 51.13 91.75 53.56Q93.13 56 93.25 56.13L93.25 56.13Q93.25 56.25 93.38 56.31Q93.50 56.38 93.63 56.38L93.63 56.38Q93.63 56.38 93.63 56.38Q93.63 56.38 93.63 56.38L93.63 56.38L93.63 56.38Q93.75 56.38 94.69 56.06Q95.63 55.75 96.75 55.38L96.75 55.38ZM31 50.75L31 50.88Q31 50.75 31.06 50.69Q31.13 50.63 31.13 50.63L31.13 50.63L31.13 50.63Q31.13 50.50 31.38 49.63Q31.63 48.75 32 47.63L32 47.63L32.75 44.88L33.25 44.38Q33.63 44 33.88 43.50Q34.13 43 34.13 42.38L34.13 42.38L34.13 42.38Q34.13 42 34.19 41.56Q34.25 41.13 34.50 40.75L34.50 40.75L34.50 40.75Q34.63 40.63 34.81 40.50Q35 40.38 35.25 40.25L35.25 40.25L35.25 40.25Q36.38 39.75 37.31 39.06Q38.25 38.38 39 37.50L39 37.50L39 37.50Q39.38 37.13 39.75 36.75Q40.13 36.38 40.50 36L40.50 36L40.50 36Q41.38 33.88 42.44 32.13Q43.50 30.38 44.63 28.63L44.63 28.63L44.50 28.88Q45.50 27.38 46.44 26.19Q47.38 25 48.50 23.88L48.50 23.88L48.50 23.88Q48.75 23.50 49.13 23.13Q49.50 22.75 49.75 22.38L49.75 22.38L49.75 22.38Q50.13 21.63 50.06 21.06Q50 20.50 49.50 20.13L49.50 20.13Q49 19.88 48.69 20Q48.38 20.13 47.50 20.75L47.50 20.75Q46.38 21.38 45.19 22.06Q44 22.75 42.63 23.25L42.63 23.25L42.50 23.38Q40.50 24.25 39.81 24.63Q39.13 25 38.88 25.50L38.88 25.50Q38.75 25.75 38.63 25.88Q38.50 26 38.25 26.13L38.25 26.13L38.25 26.13Q37.75 26.38 37.13 26.56Q36.50 26.75 35.88 26.88L35.88 26.88L35.88 27Q35.75 27 35.56 27Q35.38 27 35.25 27L35.25 27L35.25 27L32.38 28.75Q29.50 30.63 27.69 31.75Q25.88 32.88 24.25 33.88L24.25 33.88Q22.88 34.75 22.44 35Q22 35.25 21.63 35.50L21.63 35.50L20.75 36.13Q20.50 36.25 20.38 36.38Q20.25 36.50 20.25 36.50L20.25 36.50Q20.88 38.13 21.56 39.56Q22.25 41 23 42.25L23 42.25L22.88 42Q23 42.25 23.13 42.50Q23.25 42.75 23.25 43L23.25 43L23.25 43Q23.25 43.13 23.19 43.25Q23.13 43.38 23.13 43.50L23.13 43.50L23.13 43.50Q22.63 44.13 22.31 44.94Q22 45.75 21.75 46.50L21.75 46.50L21.75 46.63Q21.63 47.13 21.56 47.56Q21.50 48 21.38 48.13L21.38 48.13Q21.38 48.25 21.38 48.38Q21.38 48.50 21.38 48.50L21.38 48.50Q21.63 48.63 21.88 48.69Q22.13 48.75 22.38 48.75L22.38 48.75L22.38 48.75Q23.75 49.13 27 49.94Q30.25 50.75 30.38 50.75L30.38 50.75Q30.50 50.88 30.56 50.88Q30.63 50.88 30.75 50.88L30.75 50.88Q30.88 50.88 30.94 50.88Q31 50.88 31 50.75L31 50.75L31 50.75ZM98.13 44L98.13 44Q99 43.75 100.25 43.38Q101.50 43 102.38 42.75L102.38 42.75Q103.25 42.50 104 42.25Q104.75 42 104.88 42L104.88 42Q104.88 41.88 104.94 41.81Q105 41.75 105 41.75L105 41.75L105 41.75Q105 41.50 103.75 38.25Q102.50 35 101.50 32.88L101.50 32.88Q101.38 32.50 101.19 32.13Q101 31.75 101 31.38L101 31.38L101 31.25Q101 31 101.06 30.75Q101.13 30.50 101.25 30.25L101.25 30.25L101.25 30.25Q101.63 29.38 101.69 28.63Q101.75 27.88 101.75 25.88L101.75 25.88Q101.75 25.75 101.75 25.63Q101.75 25.50 101.75 25.38L101.75 25.38Q101.75 24.50 101.63 23.63Q101.50 22.75 101.38 22L101.38 22L101.38 22.13Q101.25 21.50 101.06 20.75Q100.88 20 100.75 19.50L100.75 19.50Q100.63 19.13 100.50 18.50Q100.38 17.88 100.25 17.50L100.25 17.50Q100 16.38 99.63 15.44Q99.25 14.50 98 11.75L98 11.75Q97.13 9.88 96.19 8.19Q95.25 6.50 94.25 5L94.25 5L94.25 5.13Q94 4.63 93.75 4.19Q93.50 3.75 93.38 3.63L93.38 3.63Q93 2.88 92.50 2.44Q92 2 91.25 1.88L91.25 1.88L91.25 1.75Q91.13 1.75 90.88 2.06Q90.63 2.38 90.63 2.75L90.63 2.75Q90.88 3.25 91.06 3.81Q91.25 4.38 91.50 4.88L91.50 4.88L91.50 4.75Q92.75 7.75 93.13 8.63Q93.50 9.50 93.63 10.13L93.63 10.13Q93.88 10.88 94.13 11.75Q94.38 12.63 94.50 13.50L94.50 13.50L94.50 13.63Q94.50 14 94.50 14.13Q94.50 14.25 94.38 14.50L94.38 14.50L94.25 14.63L93.75 14.13Q93.38 13.63 92.94 13.38Q92.50 13.13 91.88 13.13L91.88 13.13Q91.63 13.13 91.44 13.19Q91.25 13.25 91.13 13.25L91.13 13.25L91.13 13.25Q91 13.25 90.94 13.31Q90.88 13.38 90.75 13.38L90.75 13.38Q90.63 13.38 90.56 13.31Q90.50 13.25 90.38 13.25L90.38 13.25L90.38 13.25Q90 13.13 90 12.94Q90 12.75 90.38 12.50L90.38 12.50Q90.75 12.13 90.88 11.94Q91 11.75 90.75 11.38L90.75 11.38Q90.13 10.50 89.44 9.81Q88.75 9.13 87.88 8.50L87.88 8.50L87.88 8.50Q85.75 7 83.38 5.56Q81 4.13 78.50 2.88L78.50 2.88L78.13 2.75Q76.88 2.13 76.44 1.94Q76 1.75 75.63 1.75L75.63 1.75Q75.25 1.75 75.06 1.94Q74.88 2.13 74.88 2.50L74.88 2.50Q74.88 2.75 74.94 2.88Q75 3 75.25 3.38L75.25 3.38Q75.63 3.75 76.13 4Q76.63 4.25 77.13 4.50L77.13 4.50L77.13 4.50Q77.75 4.88 78.25 5.19Q78.75 5.50 78.88 5.50L78.88 5.50Q79.75 6.13 82.44 8.31Q85.13 10.50 86.13 11.38L86.13 11.38Q86.88 11.88 87.44 12.56Q88 13.25 88.50 14L88.50 14L88.63 14Q88.63 14.25 88.38 14.38Q88.13 14.50 87.88 14.38L87.88 14.38Q87.50 14.25 87.25 14Q87 13.75 86.75 13.50L86.75 13.50L86.75 13.50Q86.25 13 85 12Q83.75 11 81.38 9.25L81.38 9.25Q79.50 7.88 77.94 6.69Q76.38 5.50 76.13 5.25L76.13 5.25Q75.50 4.88 74.88 4.50Q74.25 4.13 73.63 3.88L73.63 3.88L73.50 3.88Q73.38 3.88 73.13 4.19Q72.88 4.50 72.75 4.75L72.75 4.75Q72.75 5.25 73.25 5.88Q73.75 6.50 74.88 7.50L74.88 7.50Q75.75 8.25 80.19 13.19Q84.63 18.13 85 18.63L85 18.63Q85 18.75 85 18.88Q85 19 85 19.25L85 19.25Q85 19.25 85 19.25Q85 19.25 85 19.25L85 19.25L85 19.25Q85 19.75 84.56 19.63Q84.13 19.50 82.50 18.50L82.50 18.50Q81.63 18 80.88 17.56Q80.13 17.13 79.88 17L79.88 17Q79.13 16.63 77.88 15.81Q76.63 15 75.63 14.38L75.63 14.38L73.63 13Q73 12.63 72.19 12.19Q71.38 11.75 70.63 11.38L70.63 11.38L70.50 11.38Q70.25 11.38 70.06 11.63Q69.88 11.88 69.88 12.13L69.88 12.13Q69.88 12.38 70.06 12.63Q70.25 12.88 70.75 13.25L70.75 13.25Q71 13.50 71.63 14.06Q72.25 14.63 72.88 15.13L72.88 15.13L76 17.88Q77.38 19 78.63 20.25Q79.88 21.50 80.88 22.88L80.88 22.88L80.88 23Q81.25 23.38 81.38 23.50Q81.50 23.63 81.75 23.63L81.75 23.63Q82.25 23.75 82.50 23.69Q82.75 23.63 83.63 23.25L83.63 23.25Q84.13 22.88 84.81 22.69Q85.50 22.50 86.25 22.50L86.25 22.50Q86.25 22.50 86.38 22.50Q86.50 22.50 86.50 22.50L86.50 22.50L86.50 22.50Q87.13 22.50 87.25 22.56Q87.38 22.63 87.38 22.75L87.38 22.75Q87.38 22.88 87.19 23Q87 23.13 86.63 23.38L86.63 23.38Q86 23.75 85.25 24.25Q84.50 24.75 83.75 25.25L83.75 25.25Q83.25 25.50 83.06 25.56Q82.88 25.63 82.63 25.63L82.63 25.63Q82.38 25.63 82.13 25.56Q81.88 25.50 81.63 25.38L81.63 25.38L81.63 25.38Q80.75 25.13 77.75 25.38Q74.75 25.63 72.13 26.13L72.13 26.13Q71.75 26.25 71.50 26.38Q71.25 26.50 71 26.63L71 26.63L71 26.63Q71 26.75 70.94 26.88Q70.88 27 70.88 27.13L70.88 27.13L70.88 27.13Q70.75 27.50 71 27.75Q71.25 28 71.88 28L71.88 28Q72.13 28.13 72.94 28.31Q73.75 28.50 74.63 28.63L74.63 28.63Q75.38 28.88 76.19 29Q77 29.13 77.25 29.25L77.25 29.25Q77.75 29.25 78.06 29.44Q78.38 29.63 79.38 30.25L79.38 30.25Q80 30.63 80.88 31.25Q81.75 31.88 82.38 32.25L82.38 32.25Q83.13 33 84.06 33.50Q85 34 86 34.25L86 34.25L86.13 34.25L89.63 35.13Q90.50 35.25 90.81 35.63Q91.13 36 91.63 37L91.63 37Q92 37.75 92.25 38Q92.50 38.25 92.88 38.13L92.88 38.13Q93.25 38.13 93.38 38.19Q93.50 38.25 93.50 38.50L93.50 38.50Q93.63 38.75 94.25 40.44Q94.88 42.13 95.25 43.25L95.25 43.25Q95.38 43.75 95.50 44.13Q95.63 44.50 95.63 44.50L95.63 44.50Q95.63 44.50 96.19 44.44Q96.75 44.38 98.13 44L98.13 44ZM25.75 30.38L25.75 30.38Q28.38 28.88 30.38 27.81Q32.38 26.75 32.63 26.63L32.63 26.63Q33.38 26.25 33.25 26.13Q33.13 26 31.75 25L31.75 25Q31.13 24.63 30.38 24.13Q29.63 23.63 29.38 23.38L29.38 23.38Q29.13 23.13 28.94 23Q28.75 22.88 28.50 22.88L28.50 22.88L28.50 22.75Q28.50 23 28.44 23.19Q28.38 23.38 28.38 23.63L28.38 23.63L28.25 23.63Q28.25 24.25 28.13 24.44Q28 24.63 27.75 24.50L27.75 24.50Q27.50 24.25 27.25 24Q27 23.75 27 23.38L27 23.38L27 23.38Q27 23.38 27.13 22.94Q27.25 22.50 27.50 21.88L27.50 21.88Q27.75 21 27.88 20.75Q28 20.50 28.13 20.50L28.13 20.50Q28.25 20.50 28.50 20.69Q28.75 20.88 29.25 21.25L29.25 21.25Q30.25 22.25 31.31 23.06Q32.38 23.88 33.63 24.50L33.63 24.50L33.75 24.50Q34.63 25 35.19 24.94Q35.75 24.88 36.38 24.38L36.38 24.38L36.75 24.25L36.50 23.75Q36.38 23.38 35.88 22.81Q35.38 22.25 33.38 20.25L33.38 20.25Q31.38 18.25 30.75 17.63Q30.13 17 29.75 16.38L29.75 16.38Q28.88 15 28.50 14.69Q28.13 14.38 27.50 14.38L27.50 14.38Q27.13 14.38 26.88 14.56Q26.63 14.75 26.38 15.13L26.38 15.13L26.38 15.13Q26.38 15.25 25.94 15.94Q25.50 16.63 25 17.38L25 17.38Q24.63 18 24.06 18.81Q23.50 19.63 23.25 20L23.25 20L22.25 21.88Q21.88 22.38 21.56 22.88Q21.25 23.38 21.13 24L21.13 24L21.13 24.13Q21.25 24.50 21.38 24.88Q21.50 25.25 21.63 25.63L21.63 25.63L21.63 25.50Q22.13 26.63 22.25 27.19Q22.38 27.75 22.25 27.75L22.25 27.75Q22.13 27.88 22.06 27.88Q22 27.88 22 27.88L22 27.88L22 27.88Q21.75 27.88 20.88 26.31Q20 24.75 18.38 21.63L18.38 21.63Q17.63 20 16.75 18.56Q15.88 17.13 15 15.75L15 15.75L15.13 16Q14.63 15.25 14.44 15.06Q14.25 14.88 14.13 15L14.13 15Q13.88 15 13.81 15.38Q13.75 15.75 14 17L14 17Q14.38 18.88 15.19 21.75Q16 24.63 18 30.63L18 30.63Q18.75 33.13 18.94 33.56Q19.13 34 19.25 34L19.25 34Q19.50 34 21.31 32.94Q23.13 31.88 25.75 30.38L25.75 30.38ZM38.25 23.38L38.25 23.38Q38.75 23.25 39.13 23Q39.50 22.75 39.75 22.50L39.75 22.50L39.75 22.50Q39.88 22.38 39.75 22Q39.63 21.63 39.13 20.13L39.13 20.13Q38.50 18.25 38.25 17.75Q38 17.25 37.88 17.25L37.88 17.25Q37.75 17.13 37.25 17.44Q36.75 17.75 36.13 18.13L36.13 18.13Q35.88 18.38 35.63 18.56Q35.38 18.75 35 19L35 19L35 19Q34.88 19.13 34.75 19.19Q34.63 19.25 34.50 19.38L34.50 19.38L34.50 19.50Q34.88 20 35.25 20.44Q35.63 20.88 36 21.25L36 21.25L36 21.25Q36.63 22 37.13 22.63Q37.63 23.25 37.75 23.25L37.75 23.25Q37.75 23.38 37.88 23.44Q38 23.50 38.25 23.38L38.25 23.38ZM34.63 17.75L34.63 17.75Q35.75 17.13 36.75 16.44Q37.75 15.75 38.63 14.88L38.63 14.88L38.63 14.88Q39.50 14.13 39.75 13.94Q40 13.75 40.63 13.13L40.63 13.13Q42.38 11.63 42.69 11.25Q43 10.88 43 10.38L43 10.38Q43 10 42.94 9.81Q42.88 9.63 42.63 9.63L42.63 9.63Q42.50 9.75 42.31 9.81Q42.13 9.88 42 10L42 10L42 10Q41.38 10.38 39.69 11.31Q38 12.25 37.38 12.50L37.38 12.50Q36.88 12.75 34.38 13.75Q31.88 14.75 31.38 15L31.38 15Q31.13 15 31.06 15.06Q31 15.13 31.13 15.25L31.13 15.25Q31.63 16 32.25 16.75Q32.88 17.50 33.50 18.25L33.50 18.25L33.50 18.25Q33.50 18.25 33.81 18.06Q34.13 17.88 34.63 17.75ZM39.63 94L39.63 94L39.38 93.75L39.75 94Q39.88 94.13 39.94 94.19Q40 94.25 40 94.25L40 94.25Q39.88 94.25 39.81 94.19Q39.75 94.13 39.63 94ZM61.63 109.50L61.63 109.50Q61.38 109.25 61.25 108.94Q61.13 108.63 61 108.25L61 108.25L61 108.25Q61 107.50 61.13 106.81Q61.25 106.13 61.50 105.50L61.50 105.50L61.50 105.50Q61.75 105.13 62 104.81Q62.25 104.50 62.63 104.38L62.63 104.38L62.63 104.38Q63.25 104 63.94 103.75Q64.63 103.50 65.38 103.38L65.38 103.38L65.50 103.38Q66.13 103.13 66.81 103.06Q67.50 103 68.25 103L68.25 103Q68.50 103 68.75 103Q69 103 69.13 103L69.13 103L69.13 103Q70 103.13 70.69 103.63Q71.38 104.13 71.88 104.75L71.88 104.75L71.88 104.75Q72 105 72 105.06Q72 105.13 71.75 105.13L71.75 105.13Q71.63 105.25 71.50 105.19Q71.38 105.13 71 105L71 105Q70.38 104.75 69.75 104.56Q69.13 104.38 68.38 104.38L68.38 104.38L68.38 104.38L67.38 104.25L66.13 104.75Q65.38 105 64.69 105.31Q64 105.63 63.50 106L63.50 106L63.50 106Q63.13 106.38 62.88 106.81Q62.63 107.25 62.50 107.75L62.50 107.75L62.50 107.75Q62.13 109 62 109.31Q61.88 109.63 61.63 109.50L61.63 109.50ZM65.75 101.75L65.75 101.75Q65.50 101.75 65.31 101.69Q65.13 101.63 65 101.50L65 101.50L65 101.50Q64.63 101.25 64.25 101.06Q63.88 100.88 63.38 100.88L63.38 100.88Q63.38 100.88 63.38 100.88Q63.38 100.88 63.38 100.88L63.38 100.88L63.38 100.88Q63.38 100.88 63.31 100.88Q63.25 100.88 63.25 100.88L63.25 100.88Q62.88 100.88 62.50 101Q62.13 101.13 61.88 101.25L61.88 101.25L61.88 101.25Q61.50 101.50 61.13 101.63Q60.75 101.75 60.38 101.75L60.38 101.75L60.25 101.75Q60.13 101.88 60.06 101.88Q60 101.88 59.88 101.88L59.88 101.88Q59.38 101.88 59 101.75Q58.63 101.63 58.25 101.38L58.25 101.38L58.25 101.38Q58.13 101.25 58.06 101.19Q58 101.13 58.13 101.13L58.13 101.13Q58.25 100.88 58.38 100.75Q58.50 100.63 58.63 100.63L58.63 100.63L58.63 100.50L59.25 100.13L60 100.13Q60.13 100.13 60.19 100.13Q60.25 100.13 60.25 100.13L60.25 100.13Q60.63 100.13 61 100Q61.38 99.88 61.75 99.63L61.75 99.63L61.75 99.63Q62 99.50 62.31 99.38Q62.63 99.25 63 99.25L63 99.25Q63.13 99.25 63.13 99.25Q63.13 99.25 63.25 99.25L63.25 99.25L63.25 99.25Q63.88 99.25 64.44 99.44Q65 99.63 65.50 100L65.50 100L65.50 100Q66.25 100.50 66.69 100.50Q67.13 100.50 67.75 100.13L67.75 100.13Q67.88 100 68 99.88Q68.13 99.75 68.38 99.75L68.38 99.75L68.38 99.75Q70.38 99.50 71.25 99.38Q72.13 99.25 72.50 99L72.50 99Q72.63 99 72.75 98.94Q72.88 98.88 73 98.88L73 98.88L73 98.88Q73.13 98.88 73.44 99.38Q73.75 99.88 73.75 100L73.75 100Q73.75 100.25 73.69 100.31Q73.63 100.38 73.38 100.50L73.38 100.50Q73.25 100.63 73.06 100.69Q72.88 100.75 72.63 100.75L72.63 100.75Q72.50 100.75 72.31 100.69Q72.13 100.63 72 100.50L72 100.50L72 100.50Q71.88 100.38 71.75 100.38Q71.63 100.38 71.13 100.50L71.13 100.50Q70.25 100.63 69.38 100.94Q68.50 101.25 67.75 101.50L67.75 101.50L67.88 101.50Q67.63 101.63 67.25 101.75Q66.88 101.88 66.50 101.88L66.50 101.88Q66.25 101.88 66.06 101.81Q65.88 101.75 65.63 101.75L65.63 101.75L65.75 101.75ZM66.13 99.63L66.13 99.50Q65.50 99.38 65 99Q64.50 98.63 64.13 98.13L64.13 98.13L64.13 98.13Q63.38 97.38 63 97.19Q62.63 97 62.13 96.88L62.13 96.88Q61.88 96.88 61.75 96.81Q61.63 96.75 61.63 96.75L61.63 96.75Q61.75 96.38 62 96Q62.25 95.63 62.63 95.38L62.63 95.38L62.63 95.38Q62.75 95.25 62.94 95.06Q63.13 94.88 63.25 94.63L63.25 94.63L63.25 94.63Q63.38 94.38 63.44 94.13Q63.50 93.88 63.50 93.13L63.50 93.13Q63.50 93.13 63.50 93.06Q63.50 93 63.50 93L63.50 93Q63.50 92 63.31 91.13Q63.13 90.25 62.63 89.38L62.63 89.38L62.75 89.50Q62.50 88.88 62.06 88.50Q61.63 88.13 61 88L61 88L61 88L58 87.63Q57 87.50 55.94 87.31Q54.88 87.13 54.50 87.13L54.50 87.13Q54.13 87.13 53.69 87.06Q53.25 87 52.75 87L52.75 87Q51.88 87 51 87.06Q50.13 87.13 49.38 87.25L49.38 87.25L49.50 87.25L48.50 87.50Q48.25 87.50 49.06 86.63Q49.88 85.75 50.63 85.13L50.63 85.13L51.13 84.75L52.63 84.88Q54.38 85 56.13 85.19Q57.88 85.38 60 85.63L60 85.63Q60.50 85.75 61.06 85.81Q61.63 85.88 62.13 85.88L62.13 85.88L62.13 85.88Q62.88 85.75 63.38 85.31Q63.88 84.88 64.50 83.88L64.50 83.88Q65.13 82.88 65.31 82.75Q65.50 82.63 65.75 82.88L65.75 82.88Q65.88 83 65.94 83.13Q66 83.25 65.88 83.50L65.88 83.50Q65.88 84.13 65.75 84.63Q65.63 85.13 65.38 85.63L65.38 85.63L65.38 85.50Q65.13 86 64.81 86.38Q64.50 86.75 64.13 87L64.13 87L64.13 87L63.38 87.75L63.63 88.13Q63.88 88.50 64.13 88.94Q64.38 89.38 64.63 89.88L64.63 89.88L64.63 90Q64.88 90.63 65.06 91.38Q65.25 92.13 65.25 93L65.25 93Q65.25 93.38 65.19 93.88Q65.13 94.38 65 94.75L65 94.75L65 94.75Q64.63 95.63 64.69 95.81Q64.75 96 65.50 96.63L65.50 96.63Q65.88 97 66.13 97.19Q66.38 97.38 66.50 97.38L66.50 97.38Q66.50 97.38 66.88 97.13Q67.25 96.88 67.88 96.13L67.88 96.13Q68.75 95.13 69.38 94.63Q70 94.13 70.63 94.13L70.63 94.13Q70.63 94.13 70.63 94.13Q70.63 94.13 70.63 94.13L70.63 94.13Q70.88 94.13 71 94.25Q71.13 94.38 71.25 94.50L71.25 94.50L71.25 94.50Q71.50 94.75 71.50 94.88Q71.50 95 71 95.25L71 95.25Q70.63 95.38 70.25 95.81Q69.88 96.25 69.13 97.25L69.13 97.25Q68.88 97.75 68.56 98.25Q68.25 98.75 68.13 98.88L68.13 98.88Q67.75 99.25 67.38 99.44Q67 99.63 66.50 99.63L66.50 99.63Q66.38 99.63 66.31 99.63Q66.25 99.63 66.13 99.63L66.13 99.63L66.13 99.63ZM43.75 92.63L43.75 92.63Q43.63 92.50 43.56 92.38Q43.50 92.25 43.38 92.13L43.38 92.13L43.38 92.13Q43.25 91.75 42.94 91.38Q42.63 91 42.25 90.88L42.25 90.88L42.25 90.88Q41.75 90.63 41.44 90.25Q41.13 89.88 40.88 89.50L40.88 89.50L40.88 89.50Q40.75 89.25 40.69 89Q40.63 88.75 40.63 88.50L40.63 88.50Q40.63 88.38 40.63 88.38Q40.63 88.38 40.63 88.38L40.63 88.38L40.63 88.38Q40.63 87.75 40.69 87.50Q40.75 87.25 41.13 87.13L41.13 87.13Q41.25 87 41.31 87.06Q41.38 87.13 41.63 87.25L41.63 87.25Q41.88 87.63 42.06 87.94Q42.25 88.25 42.25 88.63L42.25 88.63L42.25 88.63Q42.38 89.13 42.63 89.56Q42.88 90 43.25 90.38L43.25 90.38L43.25 90.38Q43.63 90.63 43.81 91.06Q44 91.50 44 91.88L44 91.88Q44 92 44 92Q44 92 44 92.13L44 92.13L44 92.13Q44 92.50 43.94 92.63Q43.88 92.75 43.75 92.63L43.75 92.63ZM78.88 92L78.88 92Q78.38 92 77.81 91.81Q77.25 91.63 76.75 91.25L76.75 91.25L76.75 91.38Q76.50 91.25 76.25 91.19Q76 91.13 75.75 91L75.75 91L75.75 91Q75.25 91 74.88 90.88Q74.50 90.75 74.13 90.63L74.13 90.63L74.13 90.63Q73.50 90.25 73.31 90Q73.13 89.75 73.13 89.38L73.13 89.38Q73.13 89.13 73.06 89Q73 88.88 73 88.63L73 88.63L73 88.75Q72.88 88.38 72.75 88.31Q72.63 88.25 71.88 88L71.88 88Q71.25 87.88 70.69 87.56Q70.13 87.25 69.75 86.75L69.75 86.75L69.75 86.75Q69.13 86.13 68.81 85.38Q68.50 84.63 68.50 83.63L68.50 83.63Q68.50 83.50 68.50 83.38Q68.50 83.25 68.50 83.13L68.50 83.13L68.50 83.13Q68.50 82.50 68.63 82.38Q68.75 82.25 69 82.50L69 82.50Q69.25 82.88 69.44 83.19Q69.63 83.50 69.75 84L69.75 84L69.75 84Q70.13 85.25 70.69 85.63Q71.25 86 73.63 86.25L73.63 86.25L75 86.50Q75.25 86.50 75.50 86.56Q75.75 86.63 75.88 86.63L75.88 86.63Q76.38 86.63 77 86.63Q77.63 86.63 78.38 86.63L78.38 86.63Q79 86.63 79.63 86.63Q80.25 86.63 81 86.63L81 86.63L80.88 86.63L82.38 86.50Q82.50 86.50 82.69 86.44Q82.88 86.38 83.13 86.38L83.13 86.38Q83.50 86.25 83.63 86.31Q83.75 86.38 84 86.50L84 86.50L84.13 86.75L83.63 86.88Q82.75 87.25 81.69 87.63Q80.63 88 79.50 88.38L79.50 88.38L79.13 88.38Q78.75 88.50 78.25 88.56Q77.75 88.63 77.25 88.63L77.25 88.63Q76.75 88.63 76.38 88.56Q76 88.50 75.63 88.50L75.63 88.50L75.63 88.50Q74.63 88.25 74.44 88.31Q74.25 88.38 74.50 88.88L74.50 88.88Q74.75 89.25 75.19 89.56Q75.63 89.88 76.13 90.13L76.13 90.13L76.25 90.13Q76.50 90.25 76.81 90.25Q77.13 90.25 77.38 90.25L77.38 90.25Q77.63 90.25 77.75 90.25Q77.88 90.25 78 90.25L78 90.25L77.88 90.25Q78 90.25 78 90.25Q78 90.25 78.13 90.25L78.13 90.25Q79.13 90.25 80.13 90.13Q81.13 90 82 89.63L82 89.63L81.88 89.75L83.38 89Q83.63 88.88 84 88.69Q84.38 88.50 84.75 88.38L84.75 88.38L84.75 88.38Q85 88.38 84.88 88.50Q84.75 88.63 84.13 89.25L84.13 89.25Q83.38 90 82.63 90.63Q81.88 91.25 81.13 91.88L81.13 91.88L81 91.88Q80.63 92.13 80.38 92.13Q80.13 92.13 78.88 92L78.88 92ZM54.38 91.75L54.38 91.63Q54.13 91.63 53.94 91.50Q53.75 91.38 53.63 91.25L53.63 91.25L53.63 91.25Q52.50 90.50 52 90.38Q51.50 90.25 50.38 90.63L50.38 90.63Q50.25 90.63 50.13 90.56Q50 90.50 49.75 90.38L49.75 90.38Q49.50 90.13 49.50 90.06Q49.50 90 49.63 89.88L49.63 89.88Q49.75 89.75 50 89.63Q50.25 89.50 50.50 89.38L50.50 89.38L50.50 89.38Q50.88 89.25 51.31 89.19Q51.75 89.13 52.25 89.13L52.25 89.13Q52.63 89.13 53 89.19Q53.38 89.25 53.75 89.38L53.75 89.38L53.63 89.25Q54.13 89.38 54.69 89.44Q55.25 89.50 55.88 89.50L55.88 89.50Q56.50 89.50 57.06 89.44Q57.63 89.38 58.25 89.25L58.25 89.25L58.13 89.25Q58.63 89.25 59.06 89.19Q59.50 89.13 59.63 89.13L59.63 89.13Q60.13 89.13 60.63 89.25Q61.13 89.38 61.50 89.63L61.50 89.63L61.50 89.63Q61.75 90 61.63 90.06Q61.50 90.13 61 90.25L61 90.25Q60.75 90.25 60.50 90.31Q60.25 90.38 60.13 90.38L60.13 90.38L59.13 90.50Q58.63 90.50 58.25 90.63Q57.88 90.75 57.50 91L57.50 91L57.50 91Q57 91.38 56.44 91.56Q55.88 91.75 55.25 91.75L55.25 91.75Q55 91.75 54.81 91.75Q54.63 91.75 54.38 91.63L54.38 91.63L54.38 91.75ZM18.13 56.25L18.13 56.25Q17.75 56 17.50 55.69Q17.25 55.38 17.13 55L17.13 55L17.13 54.88Q17 54.75 17 54.56Q17 54.38 17 54.13L17 54.13Q17 53.63 17.19 53.13Q17.38 52.63 17.75 52.25L17.75 52.25L17.75 52.25Q18 52.13 18.25 52Q18.50 51.88 18.88 51.88L18.88 51.88Q19.25 51.88 19.56 52Q19.88 52.13 20.13 52.25L20.13 52.25L20.13 52.25Q20.38 52.63 20.50 53Q20.63 53.38 20.75 53.75L20.75 53.75L20.75 53.75Q20.75 53.88 20.75 53.94Q20.75 54 20.75 54.13L20.75 54.13Q20.75 54.75 20.50 55.25Q20.25 55.75 19.75 56.13L19.75 56.13L19.75 56.13Q19.50 56.25 19.31 56.31Q19.13 56.38 18.88 56.38L18.88 56.38Q18.63 56.38 18.44 56.31Q18.25 56.25 18.13 56.25L18.13 56.25L18.13 56.25ZM111 46.63L111 46.63Q110.75 46.38 110.56 46.06Q110.38 45.75 110.38 45.38L110.38 45.38L110.38 45.25Q110.38 44.63 110.81 44.19Q111.25 43.75 111.88 43.75L111.88 43.75L112 43.75Q112.25 43.75 112.50 43.88Q112.75 44 113 44.13L113 44.13L113 44.13Q113 44.38 113.06 44.63Q113.13 44.88 113.13 45.13L113.13 45.13Q113.13 45.25 113.13 45.38Q113.13 45.50 113.13 45.63L113.13 45.63L113.13 45.63Q113 46 112.81 46.25Q112.63 46.50 112.25 46.63L112.25 46.63L112.25 46.63Q112.13 46.75 112 46.75Q111.88 46.75 111.63 46.75L111.63 46.75Q111.50 46.75 111.31 46.75Q111.13 46.75 111 46.63L111 46.63L111 46.63Z"/></svg>