<svg xmlns="http://www.w3.org/2000/svg" xmlns:xlink="http://www.w3.org/1999/xlink" width="128" height="128"><path fill="#ffffff" d="M45.63 127.38L45.75 127.38Q45.63 127.25 45.50 127.13Q45.38 127 45.38 126.75L45.38 126.75L45.38 126.75Q45.38 126.38 45.50 126.06Q45.63 125.75 46.25 125.13L46.25 125.13Q47.25 123.88 48.25 122.50Q49.25 121.13 50.13 119.63L50.13 119.63L50.13 119.50Q51.25 117.75 51.88 117.13Q52.50 116.50 53 116.50L53 116.50Q53.38 116.50 53.56 116.69Q53.75 116.88 53.88 117.25L53.88 117.25Q53.88 117.50 53.88 117.88Q53.88 118.25 53.88 118.50L53.88 118.50Q53.88 119.13 53.81 119.75Q53.75 120.38 53.75 121L53.75 121L53.75 120.88Q53.63 121.38 53.63 121.56Q53.63 121.75 53.75 121.88L53.75 121.88Q53.75 121.88 54 121.69Q54.25 121.50 54.63 121L54.63 121Q57.25 117.63 58.13 116.88Q59 116.13 59.63 116.63L59.63 116.63Q60.13 116.88 60.19 117.81Q60.25 118.75 59.88 120.75L59.88 120.75Q59.75 121.25 59.63 121.88Q59.50 122.50 59.50 123.13L59.50 123.13L59.50 123.25Q59.50 123.75 59.56 123.88Q59.63 124 59.88 124.25L59.88 124.25Q60.13 124.50 60.19 124.69Q60.25 124.88 60.25 125.25L60.25 125.25Q60.25 125.50 60.13 125.81Q60 126.13 59.75 126.25L59.75 126.25L59.75 126.25Q59.50 126.38 59.19 126.50Q58.88 126.63 58.50 126.63L58.50 126.63Q58.25 126.63 58.06 126.56Q57.88 126.50 57.63 126.38L57.63 126.38L57.75 126.38Q57.25 126.13 57.19 125.38Q57.13 124.63 57.25 122.50L57.25 122.50Q57.25 122.38 57.25 122.19Q57.25 122 57.25 121.75L57.25 121.75Q57.25 121.63 57.25 121.38Q57.25 121.13 57.13 121L57.13 121L57.25 121Q56.88 121.25 56.56 121.63Q56.25 122 56 122.38L56 122.38L56 122.38Q55.25 123.38 54.44 124.25Q53.63 125.13 52.63 125.75L52.63 125.75L52.63 125.88Q52.13 126 51.75 126Q51.38 126 51.13 125.75L51.13 125.75Q50.88 125.38 50.81 124.81Q50.75 124.25 50.88 123.13L50.88 123.13Q50.88 122.88 50.88 122.69Q50.88 122.50 50.88 122.25L50.88 122.25L50.88 122.25Q50.88 122.25 50.56 122.69Q50.25 123.13 49.75 123.75L49.75 123.75Q48.25 125.88 47.63 126.69Q47 127.50 46.88 127.50L46.88 127.50Q46.75 127.63 46.63 127.63Q46.50 127.63 46.38 127.63L46.38 127.63Q46.13 127.63 45.94 127.56Q45.75 127.50 45.63 127.38L45.63 127.38L45.63 127.38ZM39.75 126.75L39.75 126.75Q39.38 126.63 39.06 126.31Q38.75 126 38.50 125.63L38.50 125.63L38.50 125.63Q38.38 125.38 38.31 125Q38.25 124.63 38.25 124.25L38.25 124.25Q38.25 124.25 38.25 124.25Q38.25 124.25 38.25 124.25L38.25 124.25L38.25 124.25Q38.25 124.13 38.25 124Q38.25 123.88 38.25 123.75L38.25 123.75Q38.25 121.88 39 120.25Q39.75 118.63 41 117.38L41 117.38L41 117.38Q41.50 116.75 42.31 116.31Q43.13 115.88 44 115.88L44 115.88Q44.13 115.88 44.19 115.88Q44.25 115.88 44.38 115.88L44.38 115.88L44.25 115.88L45.13 115.88L45.25 115.63Q45.38 115.38 45.63 115.31Q45.88 115.25 46.25 115.38L46.25 115.38Q46.88 115.88 47.38 116.50Q47.88 117.13 48 118L48 118L48 118Q48 119.63 47.50 121.06Q47 122.50 46.13 123.63L46.13 123.63L46.13 123.63Q44.88 125.25 43 126.19Q41.13 127.13 39.75 126.75L39.75 126.75ZM42.75 124.38L42.75 124.38Q43.25 124 43.75 123.56Q44.25 123.13 44.63 122.63L44.63 122.63L44.63 122.50Q45 121.88 45.31 121Q45.63 120.13 45.63 119.13L45.63 119.13L45.63 119.13Q45.50 118.63 45 118.38Q44.50 118.13 43.75 118.13L43.75 118.13Q43 118.25 42.38 118.75Q41.75 119.25 41.25 120.38L41.25 120.38Q40.88 121.25 40.63 122.50Q40.38 123.75 40.50 124.13L40.50 124.13Q40.75 124.50 41.38 124.63Q42 124.75 42.75 124.38L42.75 124.38ZM70.88 126.88L70.75 126.75Q68.75 126.25 69.25 122.88L69.25 122.88Q69.25 122.13 69.50 121.38Q69.75 120.63 70.13 119.88L70.13 119.88L70 120Q70.63 118.75 71.56 117.75Q72.50 116.75 73.63 116.13L73.63 116.13L73.63 116.13Q73.88 116 76.69 114.38Q79.50 112.75 79.63 112.63L79.63 112.63Q79.13 112.25 78.44 112Q77.75 111.75 77 111.50L77 111.50L76.88 111.38Q75.75 112.25 74.75 113.06Q73.75 113.88 72.88 114.88L72.88 114.88L72.88 114.88Q72.13 115.50 71.50 116.19Q70.88 116.88 70.50 117.13L70.50 117.13Q70 117.50 69.88 117.69Q69.75 117.88 69.75 118.38L69.75 118.38Q69.63 119.13 69.13 119.81Q68.63 120.50 68 121L68 121L68 121Q67.38 121.50 66.63 121.88Q65.88 122.25 65.13 122.50L65.13 122.50L65 122.50Q64.38 122.75 63.94 122.94Q63.50 123.13 63.50 123.25L63.50 123.25Q63.38 123.50 63.31 123.75Q63.25 124 63.25 124.38L63.25 124.38L63.25 124.38Q63.13 124.75 63.06 125.13Q63 125.50 62.75 125.75L62.75 125.75L62.75 125.75Q62.63 126.13 62.31 126.25Q62 126.38 61.63 126.38L61.63 126.38Q61.38 126.38 61.19 126.31Q61 126.25 60.75 126.13L60.75 126.13L60.75 126.13Q60.50 125.88 60.50 125.50Q60.50 125.13 61 123.75L61 123.75Q61.63 121.50 62.06 120.19Q62.50 118.88 62.88 117.88L62.88 117.88Q63.25 117 63.38 116.81Q63.50 116.63 63.75 116.38L63.75 116.38Q64 116.25 64 116.19Q64 116.13 64 116.13L64 116.13Q63.88 116 61.44 115.44Q59 114.88 54.13 113.88L54.13 113.88Q48.50 112.88 46.69 112.56Q44.88 112.25 43.38 112.13L43.38 112.13Q42.63 112.13 42 112.06Q41.38 112 41.38 112L41.38 112Q41.25 112 39.31 111.94Q37.38 111.88 34.75 111.88L34.75 111.88Q32 111.88 30.06 111.81Q28.13 111.75 28 111.75L28 111.75Q27.88 111.75 27.81 111.63Q27.75 111.50 27.75 111.38L27.75 111.38L27.75 111.13L30.63 110.75L34.38 110.38Q34.88 110.25 36.25 110.25Q37.63 110.25 39.88 110.25L39.88 110.25Q40.25 110.25 40.69 110.25Q41.13 110.25 41.63 110.25L41.63 110.25Q42.75 110.25 43.94 110.31Q45.13 110.38 46.38 110.50L46.38 110.50L46.13 110.50L49.50 110.75Q50.13 110.88 50.63 110.94Q51.13 111 51.63 111.13L51.63 111.13L51.50 111Q51.63 111.13 51.69 111.13Q51.75 111.13 51.63 110.88L51.63 110.88Q51.63 110.63 51.56 110.56Q51.50 110.50 51.38 110.38L51.38 110.38L51.38 110.38Q51 110.13 50.50 109.88Q50 109.63 49.50 109.50L49.50 109.50L49.50 109.50Q45 108.13 40.63 107Q36.25 105.88 34.50 105.50L34.50 105.50Q33.63 105.38 32.75 105.25Q31.88 105.13 30.88 105.13L30.88 105.13L30.75 105.13Q30.75 105.13 31 105.31Q31.25 105.50 33 106.88L33 106.88Q33.50 107.38 34 107.81Q34.50 108.25 35 108.75L35 108.75L35 108.75Q35 109 34.31 108.75Q33.63 108.50 32.38 107.75L32.38 107.75Q31.38 107.13 30.31 106.63Q29.25 106.13 28.13 105.63L28.13 105.63L27.88 105.50Q27.63 105.38 27.31 105.25Q27 105.13 26.75 105L26.75 105L26.88 105Q26.75 105 26.75 104.88Q26.75 104.75 26.75 104.63L26.75 104.63Q26.75 104.50 26.75 104.44Q26.75 104.38 26.88 104.25L26.88 104.25L26.88 104.25Q27 104.13 31.13 104.38Q35.25 104.63 37 104.88L37 104.88Q37.38 105 38.13 105.13Q38.88 105.25 39.63 105.38L39.63 105.38Q40.88 105.63 41.13 105.56Q41.38 105.50 41.38 105.13L41.38 105.13Q41.38 104.88 41.19 104.63Q41 104.38 40.25 103.88L40.25 103.88Q40.13 103.75 39.94 103.56Q39.75 103.38 39.63 103.25L39.63 103.25L39.50 103.25Q39.63 102.88 39.69 102.69Q39.75 102.50 39.88 102.25L39.88 102.25L39.88 102.25Q40 102.13 40.06 101.88Q40.13 101.63 40.25 101.50L40.25 101.50L40.25 101.38Q40.25 101.25 39.38 100.63Q38.50 100 34.75 97.25L34.75 97.25Q32.75 95.75 30.75 94.31Q28.75 92.88 28.13 92.38L28.13 92.38L26 90.75Q25.88 90.63 25.69 90.50Q25.50 90.38 25.38 90.13L25.38 90.13L25.38 90.13Q25.38 90 25.31 89.81Q25.25 89.63 25.25 89.38L25.25 89.38L25.25 89.38Q25.25 89.38 25.25 89.38Q25.25 89.38 25.25 89.38L25.25 89.38Q25.25 88.88 25.06 88.50Q24.88 88.13 24.50 87.88L24.50 87.88L24.50 87.88Q24.38 87.75 24.25 87.69Q24.13 87.63 24 87.63L24 87.63L24 87.63Q23.13 87.38 22.44 87.13Q21.75 86.88 21.13 86.63L21.13 86.63L21.25 86.63Q21.13 86.63 21.13 86.13Q21.13 85.63 21.25 84L21.25 84Q21.25 82.63 21.19 81.38Q21.13 80.13 21.13 78.50L21.13 78.50Q21 76.50 20.94 73.50Q20.88 70.50 20.75 66.13L20.75 66.13Q20.75 64.38 20.75 63.88Q20.75 63.38 20.88 63.13L20.88 63.13Q20.88 63 20.94 62.88Q21 62.75 21 62.50L21 62.50Q21 62.50 21 62.50Q21 62.50 21 62.38L21 62.38L21 62.38Q20.75 62.13 20.56 61.81Q20.38 61.50 20.13 61.25L20.13 61.25L20.25 61.25Q19.75 60.63 19.63 60.38Q19.50 60.13 19.50 60L19.50 60Q19.50 59.75 19.56 59.13Q19.63 58.50 19.88 57.75L19.88 57.75Q20.13 56.38 20.13 56.06Q20.13 55.75 19.88 55.75L19.88 55.75Q19.75 55.75 18.13 55.50Q16.50 55.25 16.50 55.25L16.50 55.25Q16.38 55.13 16.44 54.25Q16.50 53.38 16.63 52L16.63 52Q16.88 50.63 17 49Q17.13 47.38 17.25 46.38L17.25 46.38Q17.25 45.63 17.31 44.88Q17.38 44.13 17.50 43.50L17.50 43.50L17.50 43.63Q17.63 43.50 18.06 43.63Q18.50 43.75 20.25 44.13L20.25 44.13Q20.75 44.25 21.44 44.44Q22.13 44.63 22.75 44.75L22.75 44.75L22.88 44.75Q23 44.50 23.06 44.25Q23.13 44 23.25 43.63L23.25 43.63L23.25 43.63Q23.38 42.88 23.56 42.13Q23.75 41.38 24 40.75L24 40.75L24 40.88Q24 40.75 24.06 40.63Q24.13 40.50 24.13 40.38L24.13 40.38L24.13 40.38Q23.88 39.63 23.63 39Q23.38 38.38 23 37.75L23 37.75L23.13 37.88Q22.63 36.88 22.38 36.19Q22.13 35.50 22 35.38L22 35.38Q21.88 35.13 21.75 35.19Q21.63 35.25 21.38 35.38L21.38 35.38Q21.13 35.63 20.94 35.69Q20.75 35.75 20.63 35.50L20.63 35.50Q20.50 35.38 20.44 35.25Q20.38 35.13 20.38 35L20.38 35L20.38 35Q20.25 34.75 20.19 34.56Q20.13 34.38 20 34.13L20 34.13L20 34.13Q19.88 34 19.88 33.88Q19.88 33.75 19.88 33.63L19.88 33.63Q19.88 33.50 19.88 33.50Q19.88 33.50 19.88 33.50L19.88 33.50L19.88 33.50Q19.88 33.25 19.94 33.19Q20 33.13 20.38 32.88L20.38 32.88Q20.63 32.75 20.75 32.69Q20.88 32.63 20.88 32.50L20.88 32.50Q20.88 32.50 20.69 31.75Q20.50 31 20.13 30.13L20.13 30.13Q19.13 27.38 18.13 23.88Q17.13 20.38 16.25 16.75L16.25 16.75L16.13 15.75Q16 15.38 15.94 14.88Q15.88 14.38 15.88 13.75L15.88 13.75Q15.88 13.50 15.88 13.19Q15.88 12.88 16 12.50L16 12.50L16 12.63Q16 12.38 16.06 12.19Q16.13 12 16.13 11.88L16.13 11.88L16.13 11.88Q16.25 11.75 16.81 11.75Q17.38 11.75 17.63 11.88L17.63 11.88Q18.13 12.13 18.75 13Q19.38 13.88 21.13 17L21.13 17Q22 18.38 22.56 19.44Q23.13 20.50 23.13 20.50L23.13 20.50Q23.75 19.63 24.38 18.75Q25 17.88 25.50 16.88L25.50 16.88L25.63 16.75Q26.50 15.38 27.44 14.19Q28.38 13 29.38 11.88L29.38 11.88L29.25 11.88Q29.50 11.75 29.63 11.69Q29.75 11.63 30 11.63L30 11.63L30 11.63Q30.38 11.50 30.50 11.56Q30.63 11.63 31 11.75L31 11.75Q31.25 12 31.50 12.19Q31.75 12.38 32 12.50L32 12.50L32 12.50L32.38 12.88L32.75 12.75Q33.50 12.63 35.75 11.88Q38 11.13 39 10.63L39 10.63Q40.50 10.13 41.75 9.50Q43 8.88 44.25 8.25L44.25 8.25L44 8.38Q45.25 7.75 45.75 7.69Q46.25 7.63 46.50 8.13L46.50 8.13Q46.63 8.25 46.63 8.44Q46.63 8.63 46.63 8.75L46.63 8.75Q46.63 9.13 46.50 9.50Q46.38 9.88 46.13 10.25L46.13 10.25L46.13 10.13Q45.25 11.25 44.19 12.25Q43.13 13.25 42 14.13L42 14.13L42 14.13Q41.38 14.75 41.19 14.88Q41 15 41 15.13L41 15.13Q41 15.38 41.50 16.88Q42 18.38 42.13 19L42.13 19Q42.25 19.13 42.38 19.38Q42.50 19.63 42.50 19.88L42.50 19.88L42.75 20.13L43 20Q43.13 20 45.13 18.75Q47.13 17.50 50 15.75L50 15.75Q57.63 11 59.75 9.69Q61.88 8.38 62 8.38L62 8.38Q62.25 8.50 62.50 8.75Q62.75 9 62.88 9.38L62.88 9.38L62.88 9.38Q62.88 9.38 62.88 9.44Q62.88 9.50 62.75 9.50L62.75 9.50Q62.75 9.63 59.31 11.81Q55.88 14 52.75 16L52.75 16Q51.75 16.75 51.06 17.19Q50.38 17.63 50.38 17.63L50.38 17.63Q50.38 17.63 50.50 17.69Q50.63 17.75 50.75 17.75L50.75 17.75Q51.25 17.75 51.63 17.94Q52 18.13 52.38 18.50L52.38 18.50L52.38 18.50Q52.63 18.88 52.81 19.25Q53 19.63 53 20.13L53 20.13Q53 20.25 53 20.25Q53 20.25 53 20.38L53 20.38L53 20.38Q53 20.88 52.75 21.25Q52.50 21.63 51.88 22.13L51.88 22.13Q50.75 23.25 49.69 24.38Q48.63 25.50 47.75 26.75L47.75 26.75L47.63 26.88Q47 27.88 46.31 29.06Q45.63 30.25 45 31.50L45 31.50L44.88 31.75Q43.50 34.50 42.88 35.63Q42.25 36.75 42 37.13L42 37.13Q41.25 37.75 40.44 38.25Q39.63 38.75 38.75 39.13L38.75 39.13L38.63 39.25Q38.38 39.38 38.06 39.56Q37.75 39.75 37.50 39.88L37.50 39.88L37.50 39.88Q37.50 40 37.44 40.19Q37.38 40.38 37.38 40.63L37.38 40.63Q37.25 41.13 37.13 41.44Q37 41.75 36.75 42L36.75 42L36.75 42Q36.25 42.50 36 43.19Q35.75 43.88 35.13 46.75L35.13 46.75Q35 47.38 34.94 47.56Q34.88 47.75 35 47.88L35 47.88Q35.13 47.88 36.06 48.13Q37 48.38 38.38 48.75L38.38 48.75Q39.63 49 40.63 49.25Q41.63 49.50 41.63 49.63L41.63 49.63Q41.75 49.63 41.81 49.69Q41.88 49.75 41.88 49.88L41.88 49.88Q41.88 49.88 41.88 49.88Q41.88 49.88 41.88 49.88L41.88 49.88L41.88 49.88Q41.88 50 41.69 50.69Q41.50 51.38 41.25 52.25L41.25 52.25Q40.88 53.63 40.63 54.69Q40.38 55.75 40 57.63L40 57.63Q39.88 58.25 39.69 58.38Q39.50 58.50 38.63 58.38L38.63 58.38Q38.38 58.38 38.19 58.38Q38 58.38 37.75 58.38L37.75 58.38Q37.75 58.38 37.69 58.38Q37.63 58.38 37.63 58.38L37.63 58.38L37.63 58.38Q37.63 58.38 37.69 58.94Q37.75 59.50 37.88 60.25L37.88 60.25Q38 61 38.06 61.63Q38.13 62.25 38.13 62.25L38.13 62.25Q38.13 62.38 38.25 62.19Q38.38 62 38.75 61.25L38.75 61.25Q39.50 59.75 40.25 58.50Q41 57.25 41.88 56L41.88 56L41.75 56.13Q43.25 54.38 44.81 52.75Q46.38 51.13 48 49.63L48 49.63L48 49.63Q49.13 48.63 50.44 47.81Q51.75 47 53.13 46.38L53.13 46.38L53.25 46.38Q53.50 46.25 53.75 46.19Q54 46.13 54.13 46L54.13 46L54.13 46Q54.50 45.75 55 45.50Q55.50 45.25 56 45.13L56 45.13L56.13 45.13Q57.50 44.75 59 44.56Q60.50 44.38 62.13 44.38L62.13 44.38Q62.38 44.38 62.56 44.38Q62.75 44.38 63 44.38L63 44.38L63 44.38Q65 44.50 66.81 45.13Q68.63 45.75 70.25 46.88L70.25 46.88L70.13 46.75Q71.25 47.38 72.13 48.25Q73 49.13 73.75 50.13L73.75 50.13L73.75 50.13Q74 50.63 74.19 50.69Q74.38 50.75 75 50.63L75 50.63Q75.50 50.38 76.13 50.31Q76.75 50.25 77.50 50.25L77.50 50.25Q77.63 50.25 77.75 50.25Q77.88 50.25 78 50.25L78 50.25L78 50.25Q78.88 50.38 79.81 50.50Q80.75 50.63 81.63 50.88L81.63 50.88L81.50 50.88Q82.50 51.38 83.44 51.94Q84.38 52.50 85.25 53.13L85.25 53.13L85.25 53Q86.50 54.25 87.56 55.50Q88.63 56.75 89.63 58.13L89.63 58.13L89.63 58.25Q90.13 59 90.56 59.81Q91 60.63 91.38 61.50L91.38 61.50L91.38 61.63L91.63 62.38L91.88 62Q91.88 61.75 92 61.50Q92.13 61.25 92.13 61L92.13 61L92.25 60.63L91.38 59.13Q91.13 58.75 90.88 58.31Q90.63 57.88 90.50 57.50L90.50 57.50L90.38 57.38Q90.63 56.75 90.94 56.25Q91.25 55.75 91.63 55.25L91.63 55.25L91.63 55.38Q91.88 55 92 54.81Q92.13 54.63 92 54.50L92 54.50Q92 54.13 91.88 54.13Q91.75 54.13 91.25 54.38L91.25 54.38Q90.75 54.63 90.44 54.63Q90.13 54.63 89.88 54.13L89.88 54.13Q89.38 53.38 86.94 48.94Q84.50 44.50 84.50 44.38L84.50 44.38Q84.63 44.38 84.63 44.31Q84.63 44.25 84.75 44.13L84.75 44.13L84.75 44.13Q84.75 44.13 87.13 43.38Q89.50 42.63 90.75 42.25L90.75 42.25Q90.88 42.25 91.06 42.19Q91.25 42.13 91.38 42L91.38 42L91.38 42Q91.38 42 91.38 42Q91.38 42 91.38 41.88L91.38 41.88Q91.38 41.75 91.38 41.63Q91.38 41.50 91.25 41.38L91.25 41.38L91.25 41.38Q90.63 39.13 90.44 38.44Q90.25 37.75 90.13 37.63L90.13 37.63Q90 37.38 89.75 37.25Q89.50 37.13 89.25 37.13L89.25 37.13L89.25 37Q88.63 36.75 88.31 36.44Q88 36.13 87.88 35.63L87.88 35.63Q87.88 35.25 87.63 35.06Q87.38 34.88 86.50 34.63L86.50 34.63Q85.13 34.25 83.94 33.75Q82.75 33.25 81.63 32.50L81.63 32.50L81.75 32.50Q80.88 32.13 80.13 31.56Q79.38 31 78.63 30.38L78.63 30.38L78.75 30.38Q78.13 29.88 77.69 29.63Q77.25 29.38 75.75 28.75L75.75 28.75Q74.75 28.38 73.50 27.94Q72.25 27.50 70.88 27.13L70.88 27.13L70.50 27Q70.13 26.88 69.75 26.75Q69.38 26.63 69 26.50L69 26.50L69.13 26.63Q68.88 26.38 68.75 26.19Q68.63 26 68.63 25.75L68.63 25.75Q68.63 25.63 68.69 25.56Q68.75 25.50 68.75 25.38L68.75 25.38L68.75 25.38Q68.88 24.63 69.19 24.13Q69.50 23.63 70 23.38L70 23.38Q70.25 23.25 71.88 22.88Q73.50 22.50 74.75 22.25L74.75 22.25Q75.13 22.25 75.69 22.19Q76.25 22.13 76.75 22.13L76.75 22.13Q77 22.13 77.31 22.06Q77.63 22 78 22L78 22L77.88 22Q77.88 21.75 77.75 21.56Q77.63 21.38 77.63 21.25L77.63 21.25L77.63 21.25Q77.13 20.63 76.56 20Q76 19.38 75.38 18.88L75.38 18.88L75.38 18.88Q74 17.38 72.44 16Q70.88 14.63 69.25 13.50L69.25 13.50L69.13 13.38Q68.75 13.13 68.44 12.88Q68.13 12.63 67.88 12.38L67.88 12.38L67.88 12.38Q67.63 12.13 67.50 11.88Q67.38 11.63 67.38 11.25L67.38 11.25Q67.38 10.75 67.56 10.44Q67.75 10.13 68.13 9.88L68.13 9.88L68.13 9.88Q68.38 9.50 68.81 9.38Q69.25 9.25 69.75 9.25L69.75 9.25Q69.88 9.25 69.94 9.25Q70 9.25 70.13 9.25L70.13 9.25L70.13 9.25Q71 9.38 71.69 9.69Q72.38 10 74.75 11.63L74.75 11.63Q76 12.50 76.94 13.06Q77.88 13.63 78 13.75L78 13.75Q78.13 13.75 77.06 12.69Q76 11.63 74.50 10.13L74.50 10.13Q71.25 7 70.75 6.38Q70.25 5.75 70.13 4.88L70.13 4.88Q70.13 4.75 70.06 4.56Q70 4.38 70 4.25L70 4.25Q70 4 70.13 3.69Q70.25 3.38 70.50 3.13L70.50 3.13L70.50 3.13Q70.63 3 70.81 2.88Q71 2.75 71.25 2.75L71.25 2.75L71.25 2.75Q71.50 2.63 71.63 2.50Q71.75 2.38 71.88 1.75L71.88 1.75Q71.88 1.63 71.94 1.38Q72 1.13 72.13 1L72.13 1L72.13 1Q72.38 0.75 72.69 0.56Q73 0.38 73.38 0.38L73.38 0.38L73.38 0.38Q74.25 0.38 75.06 0.50Q75.88 0.63 76.75 0.88L76.75 0.88L76.63 0.75Q77 1 78.44 1.75Q79.88 2.50 81.13 3.25L81.13 3.25Q83.50 4.50 85.56 6Q87.63 7.50 89.38 9L89.38 9L89.38 9Q89.50 9.25 89.75 9.38Q90 9.50 90.13 9.63L90.13 9.63L90.25 9.63Q89.75 8.63 89.13 7.06Q88.50 5.50 88 4.50L88 4.50Q87.50 3.38 87.44 3.06Q87.38 2.75 87.38 2.38L87.38 2.38Q87.38 2.38 87.38 2.31Q87.38 2.25 87.38 2.25L87.38 2.25Q87.38 1.75 87.56 1.38Q87.75 1 88 0.63L88 0.63L88.38 0.38L89.13 0.38Q90 0.38 90.81 0.94Q91.63 1.50 92.38 2.63L92.38 2.63Q93.25 4.13 94.75 6.75Q96.25 9.38 97 10.88L97 10.88Q98.38 13.75 99.25 17.06Q100.13 20.38 100.38 24L100.38 24L100.38 24.13Q100.38 24.50 100.44 25Q100.50 25.50 100.50 26L100.50 26Q100.50 26.50 100.44 26.94Q100.38 27.38 100.38 27.88L100.38 27.88L100.38 27.75Q100.13 28.38 100.31 29.19Q100.50 30 102 34.25L102 34.25Q102.50 35.38 102.94 36.44Q103.38 37.50 104 38.50L104 38.50L103.88 38.38Q103.88 38.38 105.06 38.06Q106.25 37.75 107.88 37.25L107.88 37.25Q109.38 36.75 110.63 36.38Q111.88 36 112 36L112 36L112.25 36L112.25 36.50Q112.25 36.63 112.13 38.19Q112 39.75 111.88 41.75L111.88 41.75Q111.63 45 111.56 45.81Q111.50 46.63 111.38 46.75L111.38 46.75Q111 46.88 110.69 47.06Q110.38 47.25 109.88 47.38L109.88 47.38L109.88 47.38Q109.50 47.50 109.13 47.63Q108.75 47.75 108.50 47.88L108.50 47.88L108.50 47.88Q108.50 47.88 108.81 48.19Q109.13 48.50 109.50 49L109.50 49Q110 49.63 110.50 50.25Q111 50.88 111.50 51.50L111.50 51.50L111.50 51.63Q111.50 51.75 111.44 51.94Q111.38 52.13 111.13 52.50L111.13 52.50Q110.75 52.75 110.81 52.81Q110.88 52.88 110.88 53L110.88 53Q111.13 53.63 111.25 54.19Q111.38 54.75 111.38 55.38L111.38 55.38Q111.38 55.75 111.38 56.06Q111.38 56.38 111.25 56.63L111.25 56.63L111.25 56.63Q111.25 56.75 111.19 56.94Q111.13 57.13 111.13 57.38L111.13 57.38Q111.13 57.50 111.19 57.69Q111.25 57.88 111.25 58.13L111.25 58.13L111.25 58Q111.38 58.38 111.44 58.69Q111.50 59 111.63 59.38L111.63 59.38L111.63 59.25Q111.75 59.50 111.81 59.81Q111.88 60.13 111.88 60.38L111.88 60.38Q111.88 60.38 111.88 60.38Q111.88 60.38 111.88 60.50L111.88 60.50L111.88 60.50Q111.63 61.88 111.25 63.19Q110.88 64.50 110.25 65.75L110.25 65.75L110.25 65.63Q109.25 68 108.81 69.06Q108.38 70.13 107.63 71.88L107.63 71.88Q107 73.38 106.56 75Q106.13 76.63 105.75 78.38L105.75 78.38L105.75 78.50Q105.63 79.25 105.44 80.31Q105.25 81.38 105.13 82L105.13 82Q104.88 82.63 104.75 83.38Q104.63 84.13 104.50 84.88L104.50 84.88L104.50 85Q104.25 87.25 104 88.13Q103.75 89 102.63 91.50L102.63 91.50Q102.25 92.38 101.94 93.44Q101.63 94.50 101.63 95.50L101.63 95.50Q101.63 95.63 101.63 95.81Q101.63 96 101.63 96.13L101.63 96.13L101.63 96Q101.63 97 101.69 97.25Q101.75 97.50 101.75 97.50L101.75 97.50Q101.75 97.50 102.44 97.38Q103.13 97.25 104 97L104 97Q105.38 96.75 105.75 96.69Q106.13 96.63 106.25 96.75L106.25 96.75Q106.38 96.75 106.38 96.81Q106.38 96.88 106.13 97L106.13 97Q105 97.75 104.06 98.69Q103.13 99.63 102.25 100.63L102.25 100.63L102.13 100.63Q101.75 101.13 101.31 101.56Q100.88 102 100.38 102.38L100.38 102.38L100.38 102.38Q100.25 102.38 100.19 102.38Q100.13 102.38 100.13 102.38L100.13 102.38Q100.50 101.50 100.94 100.69Q101.38 99.88 101.88 99.25L101.88 99.25L101.88 99.25Q102 99.13 102.06 99Q102.13 98.88 102.13 98.88L102.13 98.88Q102.13 98.88 100.94 99.31Q99.75 99.75 97.63 100.75L97.63 100.75Q96.50 101.25 95.13 101.81Q93.75 102.38 93 102.75L93 102.75Q91.25 103.50 87.38 105.44Q83.50 107.38 83.25 107.63L83.25 107.63Q83.25 108.38 83.31 109.06Q83.38 109.75 83.50 110.50L83.50 110.50L83.50 110.38Q83.88 110.13 84.25 109.94Q84.63 109.75 85 109.50L85 109.50L84.88 109.63Q86.25 108.88 88.19 108Q90.13 107.13 92.38 106.13L92.38 106.13Q93.88 105.38 95.63 104.63Q97.38 103.88 99.38 103.25L99.38 103.25L99.75 103.13L103 102Q103.75 101.75 104.50 101.56Q105.25 101.38 106 101.25L106 101.25L106 101.25Q106.63 101.13 106.88 101.06Q107.13 101 107.25 101.13L107.25 101.13Q107.38 101.13 107.38 101.25Q107.38 101.38 107.25 101.25L107.25 101.25Q107 101.25 106.88 101.38Q106.75 101.50 106.50 101.63L106.50 101.63Q106.25 101.88 105.88 102.13Q105.50 102.38 105.13 102.50L105.13 102.50L105 102.50Q104.88 102.50 104.81 102.56Q104.75 102.63 104.75 102.75L104.75 102.75Q104.63 102.88 104.38 103.06Q104.13 103.25 104 103.38L104 103.38L103.88 103.38Q103.63 103.63 103.25 103.88Q102.88 104.13 102.88 104.25L102.88 104.25Q102.75 104.38 102.63 104.44Q102.50 104.50 102.50 104.38L102.50 104.38Q102.50 104.25 102.44 104.31Q102.38 104.38 102.38 104.38L102.38 104.38Q102.38 104.38 102.38 104.38Q102.38 104.38 102.38 104.38L102.38 104.38Q102.38 104.50 102.38 104.50Q102.38 104.50 102.38 104.50L102.38 104.50L102.38 104.50Q102.38 104.50 102.25 104.69Q102.13 104.88 101.88 105.13L101.88 105.13Q101.63 105.38 101.50 105.50Q101.38 105.63 101.38 105.63L101.38 105.63Q102.75 105.25 104.31 105.06Q105.88 104.88 107.38 104.88L107.38 104.88L107.38 104.88Q107.63 105 107.38 105.06Q107.13 105.13 105.75 105.50L105.75 105.50Q96.75 107.75 89.69 110.25Q82.63 112.75 78.50 115.13L78.50 115.13L77.63 115.63L78.13 116.25Q78.25 116.38 78.44 116.63Q78.63 116.88 78.75 117.13L78.75 117.13L78.75 117.13Q79.25 118.13 78.75 120.06Q78.25 122 77.13 123.50L77.13 123.50Q76.63 124.13 76 124.75Q75.38 125.38 74.63 125.88L74.63 125.88L74.63 125.88Q73.88 126.38 73 126.63Q72.13 126.88 71.13 126.88L71.13 126.88Q71.13 126.88 71 126.88Q70.88 126.88 70.88 126.88L70.88 126.88L70.88 126.88ZM73.25 124.63L73.25 124.63Q73.88 124.38 74.31 124.06Q74.75 123.75 75.13 123.38L75.13 123.38L75.13 123.38Q76 122.38 76.50 120.94Q77 119.50 76.63 118.75L76.63 118.75Q76.38 118.25 75.50 118.13Q74.63 118 74 118.38L74 118.38Q73.13 118.75 72.38 120.31Q71.63 121.88 71.63 123.38L71.63 123.38Q71.63 123.75 71.63 123.88Q71.63 124 71.75 124.25L71.75 124.25Q72 124.38 72.19 124.50Q72.38 124.63 72.63 124.63L72.63 124.63L72.63 124.63Q72.88 124.63 73 124.63Q73.13 124.63 73.25 124.63L73.25 124.63L73.25 124.63ZM64.75 120.88L64.75 120.88Q65.88 120.38 66.69 119.63Q67.50 118.88 67.50 118.38L67.50 118.38Q67.50 117.88 66.69 117.69Q65.88 117.50 65.38 118L65.38 118Q65 118.50 64.75 119.06Q64.50 119.63 64.38 120.13L64.38 120.13L64.38 120.25Q64.25 120.50 64.13 120.75Q64 121 64 121.13L64 121.13Q64 121.13 64.13 121.06Q64.25 121 64.75 120.88L64.75 120.88ZM70.50 114.50L70.50 114.50Q71.13 114 72.19 113.13Q73.25 112.25 74.38 111.38L74.38 111.38Q74.63 111.13 74.81 110.94Q75 110.75 75.13 110.63L75.13 110.63L75.13 110.50Q74.88 110.38 74.56 110.25Q74.25 110.13 74 110L74 110L73.88 110L71.75 109.13L70.75 108.75L70.25 108.88Q70.13 109 69.88 109Q69.63 109 69.38 109L69.38 109Q69.25 109 69.13 109Q69 109 68.88 109L68.88 109L68.88 109L67.63 108.88Q67.50 108.88 67.19 108.94Q66.88 109 66.25 109.38L66.25 109.38Q65.75 109.50 64.81 109.88Q63.88 110.25 63 110.50L63 110.50Q62.13 110.88 61.50 111.13Q60.88 111.38 60.88 111.38L60.88 111.38Q61.13 111.50 61.38 111.56Q61.63 111.63 61.88 111.75L61.88 111.75L62 111.75Q64 112.50 65.75 113.31Q67.50 114.13 69.13 115L69.13 115L69 114.88Q69.13 115 69.25 115.06Q69.38 115.13 69.63 115.25L69.63 115.25L69.63 115.25Q69.88 115.13 70.06 114.94Q70.25 114.75 70.50 114.50L70.50 114.50L70.50 114.50ZM63 114L63 114Q63 114 62.94 113.94Q62.88 113.88 62.88 113.88L62.88 113.88Q62.75 113.88 62.75 113.88Q62.75 113.88 62.75 114L62.75 114Q62.75 114.13 62.75 114.13Q62.75 114.13 62.88 114.13L62.88 114.13Q62.88 114.13 62.94 114.13Q63 114.13 63 114ZM61.38 113.25L61.38 113.25Q60.88 113 60.44 112.81Q60 112.63 59.88 112.50L59.88 112.50Q59.50 112.38 59.38 112.38Q59.25 112.38 59 112.50L59 112.50Q58.38 112.75 58.56 112.88Q58.75 113 60.25 113.38L60.25 113.38Q61 113.50 61.63 113.69Q62.25 113.88 62.25 113.88L62.25 113.88Q62.13 113.63 61.88 113.50Q61.63 113.38 61.38 113.25L61.38 113.25L61.38 113.25ZM56.25 112.63L56.13 112.63Q56.25 112.38 56.44 112.25Q56.63 112.13 56.75 112L56.75 112L56.75 112Q57.50 111.50 58.19 111Q58.88 110.50 59.75 110.13L59.75 110.13L59.75 110.13Q60.13 110 60.63 109.75Q61.13 109.50 61.50 109.25L61.50 109.25Q62.25 108.88 63.13 108.56Q64 108.25 64.88 108L64.88 108L65 108Q65.38 107.88 65.63 107.81Q65.88 107.75 65.88 107.75L65.88 107.75Q66.13 107.75 65.63 107.69Q65.13 107.63 64.25 107.50L64.25 107.50Q64.13 107.50 63.94 107.50Q63.75 107.50 63.63 107.50L63.63 107.50Q63 107.50 62.50 107.56Q62 107.63 61.50 107.63L61.50 107.63L61.63 107.63Q61.25 107.75 60.75 107.81Q60.25 107.88 59.75 107.88L59.75 107.88Q59.63 107.88 59.50 107.88Q59.38 107.88 59.25 107.75L59.25 107.75L59.25 107.75Q58.50 107.75 58.25 107.69Q58 107.63 58 107.50L58 107.50Q58 107.25 58.25 107.25Q58.50 107.25 59 107.13L59 107.13Q59.88 106.88 60.94 106.63Q62 106.38 63.13 106.38L63.13 106.38L63.13 106.38Q63.63 106.38 63.69 106.13Q63.75 105.88 63.25 105.88L63.25 105.88Q62.50 105.63 61.75 105.25Q61 104.88 60.38 104.50L60.38 104.50L60.50 104.50Q59.75 104 59.13 103.38Q58.50 102.75 58 102L58 102L58 101.88Q57.63 101.25 57.25 100.69Q56.88 100.13 56.38 99.75L56.38 99.75L56.38 99.75Q56.25 99.75 56.19 99.81Q56.13 99.88 56.13 100.13L56.13 100.13Q56 100.38 55.88 100.81Q55.75 101.25 55.63 101.63L55.63 101.63Q55.38 102 55.31 102.38Q55.25 102.75 55.25 103.25L55.25 103.25L55.25 103.25Q55.25 103.25 55.25 103.31Q55.25 103.38 55.25 103.38L55.25 103.38Q55.25 103.63 55.25 103.81Q55.25 104 55.38 104.25L55.38 104.25L55.38 104.25Q55.63 104.75 55.50 105.06Q55.38 105.38 54.63 106.38L54.63 106.38L53.63 107.38L53.63 108Q53.63 108 53.63 108.06Q53.63 108.13 53.63 108.13L53.63 108.13Q53.63 108.50 53.75 108.75Q53.88 109 54.13 109.25L54.13 109.25L54.13 109.25Q54.13 109.25 54.19 109.56Q54.25 109.88 54.25 110.88L54.25 110.88Q54.25 112.13 54.31 112.44Q54.38 112.75 54.88 112.88L54.88 112.88Q55.63 113.13 55.81 113.06Q56 113 56.25 112.63L56.25 112.63ZM81.25 110.75L81.25 110.75Q81.63 110.50 81.88 110.19Q82.13 109.88 82.25 109.50L82.25 109.50L82.25 109.50Q82.38 109.38 82.38 109.25Q82.38 109.13 82.38 109L82.38 109Q82.38 108.88 82.31 108.63Q82.25 108.38 82.13 108.25L82.13 108.25L82.13 108.25Q82 108 81.94 107.75Q81.88 107.50 81.88 107.25L81.88 107.25Q81.88 107.13 81.88 107Q81.88 106.88 82 106.75L82 106.75L82 106.75Q82 106.50 82.13 106.25Q82.25 106 82.38 105.88L82.38 105.88L82.38 105.88Q82.50 105.75 82.56 105.63Q82.63 105.50 82.63 105.25L82.63 105.25L82.63 105.25Q82.63 105.13 81.69 102.88Q80.75 100.63 80.75 100.50L80.75 100.50Q80.63 100.50 80.44 100.69Q80.25 100.88 79.75 101.63L79.75 101.63Q79.13 102.25 78.56 102.88Q78 103.50 77.38 104.13L77.38 104.13L77.38 104.13Q77.13 104.38 76.69 104.56Q76.25 104.75 75.88 105L75.88 105L75.75 105Q75.25 105.25 74.81 105.50Q74.38 105.75 73.88 106L73.88 106L74 106Q74.13 106 74.31 106.06Q74.50 106.13 74.75 106.13L74.75 106.13L74.75 106.13Q76 106.13 77.25 106.44Q78.50 106.75 79.63 107.13L79.63 107.13L79.50 107.13Q80.13 107.38 80.31 107.56Q80.50 107.75 80.63 108L80.63 108Q80.75 108.25 80.75 108.63Q80.75 109 80.63 109L80.63 109Q80.50 109 80.13 108.88Q79.75 108.75 79.13 108.50L79.13 108.50Q78.50 108.38 77.44 108.06Q76.38 107.75 75.38 107.50L75.38 107.50Q73.13 107 72.75 106.94Q72.38 106.88 72.25 107L72.25 107Q72.25 107 72.19 107.13Q72.13 107.25 72.13 107.38L72.13 107.38Q72.13 107.38 72.19 107.50Q72.25 107.63 72.25 107.63L72.25 107.63L72.25 107.63Q72.38 107.75 73.19 108Q74 108.25 75 108.63L75 108.63Q76.38 109.13 77.63 109.63Q78.88 110.13 80 110.75L80 110.75L79.88 110.63Q80 110.75 80.19 110.88Q80.38 111 80.63 111L80.63 111L80.63 111Q80.75 111 80.94 110.94Q81.13 110.88 81.25 110.75L81.25 110.75L81.25 110.75ZM51.88 107.63L51.88 107.63Q52.13 106.88 52.19 106.75Q52.25 106.63 52.63 106.38L52.63 106.38Q53.38 105.88 53.63 105.63Q53.88 105.38 53.88 104.88L53.88 104.88Q53.88 104.25 53.75 103.56Q53.63 102.88 53.50 102.25L53.50 102.25L53.50 102.38Q53.25 101.63 53.38 101.19Q53.50 100.75 54.13 99.75L54.13 99.75Q54.63 98.88 54.75 98.50Q54.88 98.13 54.63 97.75L54.63 97.75Q54.38 97.38 54.06 97.06Q53.75 96.75 53.38 96.50L53.38 96.50L53.38 96.50Q53 95.88 52.44 95.50Q51.88 95.13 51.38 94.75L51.38 94.75L51.25 94.75Q50.25 94.25 50 94.19Q49.75 94.13 49.75 94.25L49.75 94.25Q49.63 94.38 49.50 94.63Q49.38 94.88 49.25 95L49.25 95L49.25 95Q49.13 95.13 49 95.31Q48.88 95.50 48.75 95.75L48.75 95.75L48.75 95.75Q48.75 95.75 48.75 95.81Q48.75 95.88 48.63 95.88L48.63 95.88Q48.50 95.88 48.50 95.94Q48.50 96 48.50 96.13L48.50 96.13Q48.50 96.13 48.50 96.13Q48.50 96.13 48.50 96.13L48.50 96.13Q48.50 96.13 48.44 96.19Q48.38 96.25 48.38 96.25L48.38 96.25Q48.38 96.38 48.31 96.44Q48.25 96.50 48.13 96.50L48.13 96.50L48.13 96.50Q48 96.63 47.94 96.69Q47.88 96.75 47.75 96.88L47.75 96.88L47.75 96.88Q47.38 97.63 46.81 98.19Q46.25 98.75 45.63 99.25L45.63 99.25L45.63 99.25Q45.50 99.25 45.50 98.94Q45.50 98.63 45.63 97.88L45.63 97.88Q45.75 97.50 45.81 97.13Q45.88 96.75 45.88 96.63L45.88 96.63Q45.88 96.50 45.94 95.88Q46 95.25 46 94.50L46 94.50Q46 94.25 46.06 94Q46.13 93.75 46.13 93.38L46.13 93.38Q46.13 92.50 46 91.63Q45.88 90.75 45.63 89.88L45.63 89.88L45.75 90L45.50 89.38L44.25 88.75Q43.88 88.63 43.56 88.44Q43.25 88.25 42.88 88L42.88 88L43 88.13Q42.88 88 42.75 87.88Q42.63 87.75 42.50 87.75L42.50 87.75L42.50 87.75Q42.13 87.50 41.88 87.19Q41.63 86.88 41.25 86.63L41.25 86.63L41.25 86.63Q40.88 86.25 40.69 86.06Q40.50 85.88 40.50 86L40.50 86Q40.50 86 40.56 86.06Q40.63 86.13 40.63 86.25L40.63 86.25L40.63 86.25Q40.63 86.25 40.63 86.31Q40.63 86.38 40.63 86.25L40.63 86.25Q40.63 86.25 40.63 86.81Q40.63 87.38 40.88 87.75L40.88 87.75Q40.88 87.88 41 88.06Q41.13 88.25 41.38 88.38L41.38 88.38L41.38 88.38Q41.63 88.63 41.69 88.75Q41.75 88.88 41.50 88.88L41.50 88.88Q41 89.13 39.81 88.19Q38.63 87.25 37.75 85.88L37.75 85.88Q37.38 85.38 37.06 84.69Q36.75 84 36.75 83.13L36.75 83.13L36.75 83.13Q36.63 82.13 36.56 81.88Q36.50 81.63 36.50 81.13L36.50 81.13Q36.50 81 36.44 80.81Q36.38 80.63 36.38 80.63L36.38 80.63Q36.38 80.13 36.31 79.56Q36.25 79 36.25 78.38L36.25 78.38Q36.25 77.75 36.31 77.19Q36.38 76.63 36.38 76.13L36.38 76.13L36.38 76.25L36.50 75.88L36.13 76.13Q35.63 76.63 35.25 77.25Q34.88 77.88 34.50 78.50L34.50 78.50L34.50 78.63Q34.25 78.88 34.06 79.19Q33.88 79.50 33.88 79.63L33.88 79.63Q33.63 80 33.38 80.38Q33.13 80.75 33 81.13L33 81.13L33 81.13Q32.63 82 32.25 82.63Q31.88 83.25 31.50 84L31.50 84L31.63 83.88Q31.50 83.88 31.50 83.63Q31.50 83.38 31.63 82L31.63 82Q31.63 80.25 31.69 79.81Q31.75 79.38 32.13 78.75L32.13 78.75Q32.25 78.38 32.38 78Q32.50 77.63 32.50 77.50L32.50 77.50Q32.50 77.25 32.56 77.13Q32.63 77 32.75 76.75L32.75 76.75L32.75 76.75Q32.75 76.63 32.81 76.50Q32.88 76.38 32.88 76.25L32.88 76.25L32.88 76.25Q33.13 75.38 33.44 74.69Q33.75 74 34 73.38L34 73.38L34 73.38Q34.25 72.88 34.63 72.06Q35 71.25 35.25 70.75L35.25 70.75Q35.63 69.75 36.13 68.88Q36.63 68 37.25 67.13L37.25 67.13L37.25 67.25Q37.38 67 37.38 66.88Q37.38 66.75 37.38 66.25L37.38 66.25Q37.25 65.63 37.13 64.94Q37 64.25 36.88 63.63L36.88 63.63L36.88 63.75Q36.88 63.75 36.88 63.63Q36.88 63.50 36.88 63.38L36.88 63.38L36.88 63.38Q36.88 63.25 36.81 62.81Q36.75 62.38 36.63 61.88L36.63 61.88Q36.50 61.38 36.38 60.69Q36.25 60 36.13 59.38L36.13 59.38Q36.13 59 36 58.63Q35.88 58.25 35.75 58L35.75 58L35.75 58Q35.63 57.88 35.44 57.88Q35.25 57.88 35.13 57.75L35.13 57.75L35.13 57.75L34.25 57.75Q34.25 57.75 34 57.69Q33.75 57.63 33.63 57.63L33.63 57.63Q33.50 57.63 33.38 57.56Q33.25 57.50 33.13 57.50L33.13 57.50L33.13 57.50Q33.13 57.50 32.75 57.44Q32.38 57.38 31.38 57.25L31.38 57.25Q31.13 57.25 30.88 57.19Q30.63 57.13 30.38 57.13L30.38 57.13L30.38 57.13Q30.25 57.13 30.13 57.06Q30 57 29.88 57L29.88 57L29.88 57Q29 56.88 28.13 56.81Q27.25 56.75 27 56.63L27 56.63Q26.88 56.63 26.63 56.56Q26.38 56.50 26.13 56.50L26.13 56.50L25.38 56.38L24.75 56.38L24.13 56.25Q24 56.25 23.44 56.19Q22.88 56.13 22.63 56.13L22.63 56.13Q22.50 56.13 22.44 56.19Q22.38 56.25 22.38 56.50L22.38 56.50Q22.25 56.75 22.13 57.19Q22 57.63 22 58.13L22 58.13Q21.75 59 21.81 59.31Q21.88 59.63 22.13 60.13L22.13 60.13Q22.63 61 22.81 61.69Q23 62.38 23 64.38L23 64.38Q23 65.25 23 66.63Q23 68 23.13 69.13L23.13 69.13Q23.13 70.13 23.19 71.31Q23.25 72.50 23.25 72.88L23.25 72.88Q23.25 73.38 23.31 73.81Q23.38 74.25 23.38 74.50L23.38 74.50Q23.38 74.63 23.38 75.13Q23.38 75.63 23.50 76.25L23.50 76.25Q23.50 77.50 23.56 78.19Q23.63 78.88 23.63 79.38L23.63 79.38Q23.63 79.38 23.63 79.44Q23.63 79.50 23.63 79.50L23.63 79.50Q23.63 79.63 23.63 79.75Q23.63 79.88 23.63 80.13L23.63 80.13L23.63 80Q23.63 80.13 23.56 80.38Q23.50 80.63 23.50 80.88L23.50 80.88Q23.38 81 23.38 81.19Q23.38 81.38 23.38 81.38L23.38 81.38Q23.38 81.88 23.25 82.25Q23.13 82.63 23.13 82.88L23.13 82.88L23.13 82.88Q23 83.13 23 83.38Q23 83.63 23 83.88L23 83.88Q23 84 23 84.19Q23 84.38 23 84.50L23 84.50L23 84.50L23.13 84.88L24.13 85.38Q24.50 85.50 24.81 85.63Q25.13 85.75 25.13 85.75L25.13 85.75Q25.50 85.50 25.81 85.25Q26.13 85 26.38 84.63L26.38 84.63L26.38 84.63Q26.75 84.25 27 84.13Q27.25 84 27.38 84.13L27.38 84.13Q27.63 84.25 27.56 84.44Q27.50 84.63 27.25 85.25L27.25 85.25Q27.13 85.50 27 85.88Q26.88 86.25 26.75 86.63L26.75 86.63L26.75 86.63L26.50 87.38L27 88.25Q27.13 88.50 27.31 88.69Q27.50 88.88 27.63 89L27.63 89L27.63 89Q27.63 89 27.69 89.06Q27.75 89.13 27.75 89.25L27.75 89.25Q28.13 89.75 28.50 90.13Q28.88 90.50 29.38 90.75L29.38 90.75L29.38 90.75Q29.63 91 29.88 91.13Q30.13 91.25 30.13 91.25L30.13 91.25L30.75 91.63Q30.88 91.75 31.06 91.88Q31.25 92 31.38 92.13L31.38 92.13L31.50 92.13Q31.50 92.13 31.63 92.19Q31.75 92.25 31.75 92.38L31.75 92.38L31.75 92.38Q32 92.50 32.19 92.63Q32.38 92.75 32.63 92.88L32.63 92.88L32.63 92.88L33.50 93.50Q33.63 93.63 33.81 93.75Q34 93.88 34.13 94L34.13 94Q34.38 94.13 34.56 94.25Q34.75 94.38 35 94.63L35 94.63L34.88 94.63Q35 94.63 35.31 94.88Q35.63 95.13 35.88 95.38L35.88 95.38L37.13 96.25L38.13 96.88Q38.38 97.13 38.56 97.25Q38.75 97.38 38.88 97.50L38.88 97.50L38.88 97.50Q39.13 97.75 39.31 97.88Q39.50 98 39.75 98.13L39.75 98.13L39.75 98.13Q40 98.25 40.13 98.38Q40.25 98.50 40.38 98.63L40.38 98.63L40.38 98.63Q40.50 98.75 40.63 98.88Q40.75 99 41 99L41 99L41 99Q41.38 99.25 41.75 99.56Q42.13 99.88 42.38 100.25L42.38 100.25L42.38 100.25Q42.50 100.38 42.56 100.63Q42.63 100.88 42.63 101.13L42.63 101.13Q42.63 101.25 42.63 101.38Q42.63 101.50 42.50 101.63L42.50 101.63L42.50 101.63Q42.50 101.75 42.50 102Q42.50 102.25 42.38 102.50L42.38 102.50L42.38 102.63Q42.38 102.63 42.38 102.69Q42.38 102.75 42.38 102.88L42.38 102.88Q42.38 103.13 42.50 103.31Q42.63 103.50 42.75 103.75L42.75 103.75L42.75 103.75Q43 104 43.13 104.31Q43.25 104.63 43.25 104.88L43.25 104.88Q43.25 105 43.25 105Q43.25 105 43.25 105L43.25 105L43.25 105Q43.25 105.75 43.44 105.94Q43.63 106.13 44.63 106.25L44.63 106.25Q45.38 106.38 45.81 106.50Q46.25 106.63 46.75 106.75L46.75 106.75L47.88 107.13Q48.13 107.13 48.31 107.19Q48.50 107.25 48.63 107.25L48.63 107.25L48.63 107.25L49.75 107.75Q50.25 107.88 50.63 108Q51 108.13 51.13 108.25L51.13 108.25Q51.25 108.25 51.38 108.25Q51.50 108.25 51.63 108.38L51.63 108.38L51.63 108.38Q51.75 108.13 51.81 107.94Q51.88 107.75 51.88 107.63L51.88 107.63L51.88 107.63ZM70.88 107.38L70.88 107.38Q71 107.38 71.06 107.25Q71.13 107.13 71.13 107L71.13 107Q71.13 106.75 71 106.63Q70.88 106.50 70.63 106.50L70.63 106.50Q70.63 106.50 70.63 106.50Q70.63 106.50 70.50 106.50L70.50 106.50L70.50 106.50Q70.25 106.50 69.81 106.56Q69.38 106.63 69 106.63L69 106.63L69 106.63Q67.88 106.63 67.63 106.69Q67.38 106.75 67.50 107L67.50 107Q67.63 107.25 67.81 107.31Q68 107.38 68.50 107.50L68.50 107.50Q68.75 107.50 69 107.50Q69.25 107.50 69.50 107.50L69.50 107.50Q69.88 107.50 70.25 107.50Q70.63 107.50 71 107.38L71 107.38L70.88 107.38ZM67.75 105.25L67.75 105.25Q67.88 105.25 68.19 105.19Q68.50 105.13 69 105L69 105Q70 104.88 70.88 104.69Q71.75 104.50 72.63 104.13L72.63 104.13L72.50 104.25Q75.25 103.25 76.94 102.13Q78.63 101 80 99L80 99Q80.50 98.13 81.06 97.19Q81.63 96.25 82 95.25L82 95.25L82.13 95Q82.38 94.50 82.50 93.94Q82.63 93.38 82.63 92.88L82.63 92.88L82.63 92.88Q82.38 92.88 82.19 92.94Q82 93 81.75 93.13L81.75 93.13L81.88 93.13Q81.63 93.25 81.31 93.31Q81 93.38 80.63 93.50L80.63 93.50L80.63 93.50Q80.38 93.50 80.25 93.44Q80.13 93.38 80 93.25L80 93.25Q79.63 93 79.75 92.88Q79.88 92.75 80.50 92.50L80.50 92.50Q82.50 91.88 84.06 90.56Q85.63 89.25 86.50 87.38L86.50 87.38L86.50 87.38Q86.63 87 86.81 86.75Q87 86.50 87.13 86.25L87.13 86.25L87.13 86.25Q87.25 86.25 87.44 86.19Q87.63 86.13 87.75 86.13L87.75 86.13Q87.75 86.13 87.81 86.13Q87.88 86.13 87.88 86.13L87.88 86.13L87.88 86.13Q87.88 86.13 87.94 86.13Q88 86.13 88 86.13L88 86.13Q88.75 86.13 89.44 85.75Q90.13 85.38 90.50 84.75L90.50 84.75L90.50 84.63Q90.88 84.13 91.19 83.56Q91.50 83 91.75 82.25L91.75 82.25L91.75 82.25Q92.13 81.38 92.19 80.94Q92.25 80.50 92 80.38L92 80.38Q91.88 80.38 91.75 80.31Q91.63 80.25 91.38 80.25L91.38 80.25Q91.25 80.25 91.13 80.31Q91 80.38 90.88 80.38L90.88 80.38L90.88 80.38Q90.75 80.38 90.69 80.56Q90.63 80.75 90.63 81L90.63 81Q90.63 81.25 90.56 81.50Q90.50 81.75 90.50 81.88L90.50 81.88L90.50 81.88Q90.38 82 90.38 82.13Q90.38 82.25 90.38 82.38L90.38 82.38L90.38 82.38Q90.38 82.38 90.31 82.38Q90.25 82.38 90.25 82.50L90.25 82.50Q90.13 82.50 90.13 82.56Q90.13 82.63 90.25 82.50L90.25 82.50Q90.25 82.50 90.25 82.56Q90.25 82.63 90.25 82.63L90.25 82.63Q90.13 82.63 90.13 82.69Q90.13 82.75 90.13 82.88L90.13 82.88L90.13 82.88Q90 82.88 89.94 83Q89.88 83.13 89.88 83.13L89.88 83.13L89.88 83.13Q89.75 83.13 89.75 83.19Q89.75 83.25 89.63 83.38L89.63 83.38L89.63 83.38Q89.63 83.38 89.56 83.50Q89.50 83.63 89.38 83.63L89.38 83.63Q89.38 83.50 89.38 83.56Q89.38 83.63 89.38 83.63L89.38 83.63Q89.38 83.63 89.31 83.75Q89.25 83.88 89.13 84L89.13 84L88.88 84.38L88.75 84Q88.75 84 88.75 83.94Q88.75 83.88 88.75 83.75L88.75 83.75Q88.75 83.38 88.88 83.06Q89 82.75 89.25 82.38L89.25 82.38L89.25 82.38Q89.38 82.25 89.44 82Q89.50 81.75 89.63 81.63L89.63 81.63L89.63 81.50Q89.38 81.13 89.06 80.75Q88.75 80.38 88.38 80.13L88.38 80.13L88.38 80.13Q88.13 80 87.88 80Q87.63 80 87.38 80L87.38 80L87.38 80Q86.50 79.75 85.56 79.50Q84.63 79.25 83.88 78.88L83.88 78.88L83.88 78.88Q83.13 78.63 82.50 78.25Q81.88 77.88 81.25 77.38L81.25 77.38L81.25 77.38L79.88 76.50Q78.75 75.75 77.69 74.94Q76.63 74.13 75.75 73.38L75.75 73.38L75.75 73.38Q75.13 72.63 74.56 71.88Q74 71.13 73.50 70.25L73.50 70.25L73.50 70.25Q73.38 69.88 73.31 69.88Q73.25 69.88 73.13 70L73.13 70Q73.13 70.13 73.06 70.13Q73 70.13 73 70.13L73 70.13Q73 70.13 73 70.13Q73 70.13 73 70.25L73 70.25Q73 70.25 73 70.31Q73 70.38 73 70.25L73 70.25Q73 70.25 72.94 70.31Q72.88 70.38 73 70.38L73 70.38Q73 70.50 73 70.50Q73 70.50 73 70.50L73 70.50Q73 70.50 72.94 70.50Q72.88 70.50 73 70.50L73 70.50Q73 70.63 73 70.63Q73 70.63 73 70.63L73 70.63Q73 70.63 72.94 70.63Q72.88 70.63 73 70.75L73 70.75Q73 70.75 73 70.81Q73 70.88 73 70.75L73 70.75Q73 70.75 72.94 70.81Q72.88 70.88 73 70.88L73 70.88Q73 71 73 71Q73 71 72.88 71L72.88 71Q72.88 70.88 72.88 70.94Q72.88 71 72.88 71L72.88 71Q73 71 72.88 71.19Q72.75 71.38 72.75 71.38L72.75 71.38Q72.63 71.25 72.69 71.31Q72.75 71.38 72.75 71.38L72.75 71.38Q72.75 71.38 72.50 71.75Q72.25 72.13 72.25 72.13L72.25 72.13Q72.13 72 72.19 72.06Q72.25 72.13 72.25 72.13L72.25 72.13Q72.25 72.25 71.56 72.94Q70.88 73.63 70.13 74.25L70.13 74.25Q69.13 74.88 67.81 75.31Q66.50 75.75 65.13 75.75L65.13 75.75L65.13 75.75L64.63 75.75L65.25 75.25L66.13 74.63L66.88 73.88Q67.25 73.50 67.50 73.13Q67.75 72.75 68 72.38L68 72.38L68 72.38Q68 72.38 67.81 72.38Q67.63 72.38 67.50 72.50L67.50 72.50Q66.88 72.88 65.50 73.56Q64.13 74.25 63.50 74.50L63.50 74.50Q62.75 74.88 61.81 75.13Q60.88 75.38 60 75.63L60 75.63L59.88 75.63Q57.88 76 55.56 76.19Q53.25 76.38 50.88 76.50L50.88 76.50L50.75 76.50Q50.63 76.50 50.56 76.50Q50.50 76.50 50.38 76.50L50.38 76.50Q49.75 76.50 49.06 76.56Q48.38 76.63 47.75 76.88L47.75 76.88L47.88 76.88Q46.13 77.38 44.56 78.19Q43 79 41.63 80L41.63 80L41.63 80Q41.38 80.25 41.19 80.50Q41 80.75 41 81.13L41 81.13Q41 81.25 41 81.31Q41 81.38 41 81.38L41 81.38L41 81.38Q41.63 83 42.38 84.50Q43.13 86 44.13 87.25L44.13 87.25L44 87.25Q44.13 87.50 44.38 87.63Q44.63 87.75 45 87.88L45 87.88L45 87.88Q45 87.88 45 87.88Q45 87.88 45 87.88L45 87.88Q45 87.88 45 87.88Q45 87.88 45 87.88L45 87.88Q45 87.88 45 87.88Q45 87.88 45 87.88L45 87.88L45 87.88Q45 87.88 45 87.94Q45 88 45.13 88L45.13 88Q45.63 88 46.13 88.06Q46.63 88.13 47.13 88.25L47.13 88.25L47 88.25Q47.38 88.63 47.56 89.06Q47.75 89.50 47.88 90L47.88 90L47.88 90Q47.88 90 47.88 90Q47.88 90 47.88 90L47.88 90Q47.88 90 48 90.06Q48.13 90.13 48.13 90.25L48.13 90.25Q48.25 90.38 48.38 90.56Q48.50 90.75 48.63 90.88L48.63 90.88L48.63 90.88Q48.75 91 48.81 91.13Q48.88 91.25 48.88 91.25L48.88 91.25Q48.88 91.38 48.94 91.44Q49 91.50 49.13 91.50L49.13 91.50Q49.13 91.63 49.19 91.69Q49.25 91.75 49.25 91.63L49.25 91.63Q49.75 92 50.06 92.25Q50.38 92.50 50.75 92.88L50.75 92.88L50.75 92.75Q50.75 92.75 51.06 93Q51.38 93.25 51.88 93.50L51.88 93.50Q52.50 94 53.19 94.50Q53.88 95 54.38 95.50L54.38 95.50L54.38 95.50Q54.50 95.63 54.63 95.75Q54.75 95.88 54.88 95.88L54.88 95.88L54.88 95.88Q55.25 96.25 55.56 96.63Q55.88 97 56.25 97.38L56.25 97.38L56.25 97.38Q56.50 97.75 56.69 98Q56.88 98.25 57.13 98.50L57.13 98.50L57.13 98.50Q57.38 98.88 57.75 99.38Q58.13 99.88 58.38 100.13L58.38 100.13Q58.50 100.25 58.63 100.44Q58.75 100.63 58.88 100.75L58.88 100.75L58.88 100.75Q58.88 100.75 59 101Q59.13 101.25 59.38 101.88L59.38 101.88Q59.63 102.38 60 102.75Q60.38 103.13 60.75 103.38L60.75 103.38L60.75 103.38L61.50 103.88Q61.75 104.13 62.06 104.25Q62.38 104.38 62.63 104.50L62.63 104.50L62.75 104.63Q63.25 104.88 63.88 105.06Q64.50 105.25 65.25 105.25L65.25 105.25L65.25 105.25Q65.38 105.38 65.56 105.38Q65.75 105.38 65.88 105.38L65.88 105.38Q66.38 105.38 66.88 105.31Q67.38 105.25 67.75 105.25L67.75 105.25L67.75 105.25ZM85.13 104.75L85.13 104.75Q85.38 104.63 85.81 104.44Q86.25 104.25 87 103.88L87 103.88Q87.25 103.75 87.56 103.63Q87.88 103.50 88.13 103.38L88.13 103.38Q88.50 103.25 89.13 103Q89.75 102.75 90.25 102.50L90.25 102.50Q90.38 102.50 90.69 102.38Q91 102.25 91.25 102.13L91.25 102.13Q91.50 102 91.81 101.81Q92.13 101.63 92.38 101.50L92.38 101.50Q92.63 101.50 92.75 101.38Q92.88 101.25 93.13 101.25L93.13 101.25L93.13 101.25Q93.38 101.13 93.63 101.06Q93.88 101 94 100.88L94 100.88L94 100.88L95.25 100.25Q95.50 100.25 95.69 100.13Q95.88 100 96 100L96 100L96.13 100Q96.25 99.88 96.44 99.81Q96.63 99.75 96.75 99.63L96.75 99.63L96.75 99.63Q97.13 99.50 97.50 99.31Q97.88 99.13 98.25 99L98.25 99L98.38 99Q98.88 98.88 99.31 98.69Q99.75 98.50 100.13 98.25L100.13 98.25L100 98.25Q100.13 98.25 100.13 98Q100.13 97.75 100.13 97.25L100.13 97.25Q100.13 96.75 100.19 96.25Q100.25 95.75 100.25 95.38L100.25 95.38Q100.25 95.13 100.31 94.56Q100.38 94 100.38 93.63L100.38 93.63Q100.38 93.63 100.38 93.56Q100.38 93.50 100.38 93.50L100.38 93.50Q100.38 93.13 100.44 92.81Q100.50 92.50 100.63 92.25L100.63 92.25L100.63 92.25Q100.75 92 100.88 91.75Q101 91.50 101.13 91.25L101.13 91.25Q101.13 91.13 101.44 90.56Q101.75 90 102 89.38L102 89.38Q102.38 88.63 102.69 87.75Q103 86.88 103 85.88L103 85.88L103 85.88Q103.13 85.63 103.13 85.44Q103.13 85.25 103.13 85.13L103.13 85.13L103.13 85.13Q103.13 85 103.19 84.81Q103.25 84.63 103.25 84.50L103.25 84.50L103.25 84.50Q103.25 84.25 103.25 84.06Q103.25 83.88 103.25 83.75L103.25 83.75Q103.38 83.75 103.38 83.50Q103.38 83.25 103.38 83L103.38 83Q103.50 82.63 103.50 82.38Q103.50 82.13 103.50 82.13L103.50 82.13Q103.63 82 103.63 81.81Q103.63 81.63 103.63 81.50L103.63 81.50Q103.75 81 104 79.75Q104.25 78.50 104.38 77.75L104.38 77.75Q104.38 77.63 104.56 76.75Q104.75 75.88 104.88 75.38L104.88 75.38Q105 75.13 105.06 74.81Q105.13 74.50 105.25 74.13L105.25 74.13Q105.25 74 105.31 73.81Q105.38 73.63 105.38 73.38L105.38 73.38L105.38 73.38Q105.63 72.25 106 71.19Q106.38 70.13 107 69.13L107 69.13L106.88 69.25Q107.13 68.63 107.44 68.06Q107.75 67.50 108 66.88L108 66.88L108 66.63Q108.13 66.50 108.19 66.31Q108.25 66.13 108.38 66L108.38 66L108.38 66Q108.50 65.75 108.63 65.50Q108.75 65.25 108.88 64.88L108.88 64.88L108.88 64.88Q109 64.50 109.19 64.19Q109.38 63.88 109.50 63.50L109.50 63.50L109.50 63.63Q109.75 63 110 62.25Q110.25 61.50 110.25 60.75L110.25 60.75L110.25 60.75Q110.25 60.63 110.31 60.44Q110.38 60.25 110.50 60L110.50 60Q110.50 59.88 110.50 59.75Q110.50 59.63 110.50 59.50L110.50 59.50Q110.50 59.38 110.50 59.19Q110.50 59 110.38 58.88L110.38 58.88L110.50 58.88Q109.63 58.38 108.63 57.81Q107.63 57.25 106.63 56.88L106.63 56.88L106.50 56.75Q106 56.63 105.81 56.50Q105.63 56.38 105.75 56.25L105.75 56.25Q105.88 56 106.19 55.94Q106.50 55.88 106.75 55.88L106.75 55.88Q106.88 55.88 107.06 55.88Q107.25 55.88 107.38 56L107.38 56L107.38 56Q107.38 56 107.50 56Q107.63 56 107.63 56L107.63 56Q107.63 56 107.63 56Q107.63 56 107.63 56L107.63 56L107.63 56Q108 56.13 108.25 56.19Q108.50 56.25 108.75 56.25L108.75 56.25L108.63 56.25Q109 56.38 109.31 56.50Q109.63 56.63 109.63 56.63L109.63 56.63Q109.63 56.63 109.69 56.56Q109.75 56.50 109.75 56.50L109.75 56.50Q109.75 56.25 109.81 56.06Q109.88 55.88 109.88 55.75L109.88 55.75L109.88 55.75Q109.88 55.63 109.94 55.50Q110 55.38 110 55.25L110 55.25Q110 54.88 109.88 54.63Q109.75 54.38 109.50 54.13L109.50 54.13L109.50 54.13Q109.38 53.88 109.25 53.63Q109.13 53.38 109.13 53.13L109.13 53.13L109.13 53.13Q109.13 53.13 109.13 53.06Q109.13 53 109.13 52.88L109.13 52.88Q109.13 52.75 109.25 52.56Q109.38 52.38 109.38 52.25L109.38 52.25L109.38 52.25Q109.50 52.13 109.56 52.06Q109.63 52 109.75 51.88L109.75 51.88L109.75 51.75Q109 51 108.25 50.19Q107.50 49.38 106.63 48.75L106.63 48.75L106.63 48.63Q106.50 48.63 106.38 48.63Q106.25 48.63 106.25 48.63L106.25 48.63Q106 48.63 105.88 48.69Q105.75 48.75 105.63 48.75L105.63 48.75L105.63 48.75Q105.25 48.88 104.06 49.38Q102.88 49.88 102.38 50L102.38 50Q101.75 50.25 101.31 50.44Q100.88 50.63 100.63 50.75L100.63 50.75Q100.50 50.75 100.44 50.81Q100.38 50.88 100.25 50.88L100.25 50.88L100.25 50.88Q100.25 50.88 98.50 51.50Q96.75 52.13 95.75 52.50L95.75 52.50Q95.38 52.63 95.06 52.75Q94.75 52.88 94.63 53L94.63 53Q94.25 53 94.19 53.19Q94.13 53.38 94.25 53.63L94.25 53.63Q94.38 54.25 94.25 54.56Q94.13 54.88 93.63 55.63L93.63 55.63Q93.38 56 93.13 56.38Q92.88 56.75 92.88 56.75L92.88 56.75Q92.75 56.88 92.75 57Q92.75 57.13 92.75 57.25L92.75 57.25L92.75 57.25Q92.88 57.88 93.19 58.44Q93.50 59 93.88 59.50L93.88 59.50L93.88 59.50Q94 59.75 94.13 59.94Q94.25 60.13 94.38 60.38L94.38 60.38L94.38 60.38Q94.50 61 94.56 61.19Q94.63 61.38 94.50 61.25L94.50 61.25Q94.50 61.25 94.44 61.38Q94.38 61.50 94.38 61.75L94.38 61.75Q94.38 61.75 94.38 61.81Q94.38 61.88 94.38 61.75L94.38 61.75Q94.38 61.75 94.19 62.06Q94 62.38 93.75 63L93.75 63Q93.38 64.50 93.25 65.31Q93.13 66.13 93.25 66.63L93.25 66.63Q93.50 67.13 93.75 67.81Q94 68.50 94.13 69.13L94.13 69.13L94.13 69.25Q94.38 69.88 94.50 70.56Q94.63 71.25 94.63 72L94.63 72L94.63 72Q94.63 72.38 94.75 72.56Q94.88 72.75 95.13 72.75L95.13 72.75Q95.25 72.88 95.44 72.88Q95.63 72.88 95.75 73L95.75 73L95.75 73L97 73.50Q97.38 73.63 97.69 73.75Q98 73.88 98.25 74L98.25 74L98.25 74Q98.38 74.13 98.50 74.19Q98.63 74.25 98.75 74.38L98.75 74.38L98.88 74.38Q99 74.50 99.13 74.56Q99.25 74.63 99.38 74.75L99.38 74.75L99.38 74.75Q99.63 75 99.81 75.13Q100 75.25 100.13 75.38L100.13 75.38Q100.63 75.88 101.06 76.38Q101.50 76.88 102 77.50L102 77.50L102 77.63Q102.38 78.13 102.31 78.19Q102.25 78.25 101.63 78L101.63 78Q100.88 77.63 99.94 77.38Q99 77.13 98 77L98 77L98 77Q97.75 77 96.94 76.94Q96.13 76.88 95.38 76.88L95.38 76.88Q93.88 76.88 93.63 76.88Q93.38 76.88 93.50 77L93.50 77Q94.50 77.75 95.38 78.56Q96.25 79.38 97.13 80.38L97.13 80.38L97.13 80.38L97.63 81Q97.88 81.25 98.13 81.63Q98.38 82 98.63 82.50L98.63 82.50L98.63 82.50Q98.75 82.75 99 83.50Q99.25 84.25 99.50 85L99.50 85Q99.63 85.50 99.75 86.25Q99.88 87 99.88 87.75L99.88 87.75L100 87.75Q100 88.25 99.94 88.31Q99.88 88.38 99.88 88.38L99.88 88.38Q99.75 88.38 99.50 87.94Q99.25 87.50 98.88 86.50L98.88 86.50Q98.75 86.38 98.63 86.13Q98.50 85.88 98.50 85.75L98.50 85.75L98.50 85.75Q98.38 85.63 98.25 85.44Q98.13 85.25 98 85L98 85L98 85Q97.50 84.25 96.94 83.63Q96.38 83 95.75 82.50L95.75 82.50L95.75 82.50L94.75 81.88Q94.63 81.75 94.44 81.69Q94.25 81.63 94 81.50L94 81.50L94 81.50Q94 81.63 93.94 81.88Q93.88 82.13 93.88 82.25L93.88 82.25Q93.88 82.38 93.88 82.44Q93.88 82.50 93.88 82.50L93.88 82.50L93.88 82.50Q93.88 82.63 93.88 82.69Q93.88 82.75 93.88 82.63L93.88 82.63Q93.88 82.63 93.81 82.81Q93.75 83 93.75 83.25L93.75 83.25Q93.75 83.38 93.69 83.81Q93.63 84.25 93.50 84.50L93.50 84.50Q93.38 85.50 93.31 86.56Q93.25 87.63 93.25 88.75L93.25 88.75Q93.25 89.13 93.25 89.56Q93.25 90 93.25 90.38L93.25 90.38L93.25 90.38Q93.25 91.13 93.31 91.69Q93.38 92.25 93.38 92.38L93.38 92.38Q93.38 92.50 93.44 92.88Q93.50 93.25 93.50 93.63L93.50 93.63Q93.63 94 93.63 94.25Q93.63 94.50 93.75 94.88L93.75 94.88L93.75 94.75Q93.75 94.88 93.75 95.06Q93.75 95.25 93.75 95.38L93.75 95.38L93.75 95.38Q93.88 95.63 93.88 95.75Q93.88 95.88 94 96L94 96L94 96Q94 96 94 96Q94 96 93.88 96L93.88 96Q93.88 96 93.81 95.88Q93.75 95.75 93.75 95.75L93.75 95.75L93.75 95.75Q93.75 95.75 93.75 95.75Q93.75 95.75 93.75 95.75L93.75 95.75Q93.75 95.63 93.69 95.63Q93.63 95.63 93.63 95.50L93.63 95.50L93.63 95.50Q93.50 95.50 93.50 95.50Q93.50 95.50 93.50 95.50L93.50 95.50Q93.38 95.38 93.25 95.25Q93.13 95.13 93 95L93 95L93 95Q92.63 94.63 92.38 94.19Q92.13 93.75 91.88 93.25L91.88 93.25L91.88 93.25Q91.88 92.88 91.75 92.63Q91.63 92.38 91.63 92.25L91.63 92.25Q91.50 92 91.44 91.81Q91.38 91.63 91.38 91.25L91.38 91.25L91.38 91.25Q91.38 91 91.31 90.75Q91.25 90.50 91.25 90.38L91.25 90.38Q91.25 90.25 91.19 89.88Q91.13 89.50 91.13 88.88L91.13 88.88Q91.13 88.88 91.13 88.88Q91.13 88.88 91.13 88.88L91.13 88.88Q91.13 88.50 91.13 88.19Q91.13 87.88 91 87.63L91 87.63L91 87.63Q91 87.75 90.94 87.94Q90.88 88.13 90.88 88.25L90.88 88.25L90.88 88.25Q90.88 88.63 90.75 89Q90.63 89.38 90.63 89.63L90.63 89.63Q90.50 89.88 90.44 90.19Q90.38 90.50 90.38 90.63L90.38 90.63Q90.38 90.63 90.38 90.81Q90.38 91 90.38 91.13L90.38 91.13Q90.25 91.63 90.25 92.19Q90.25 92.75 90.25 93.38L90.25 93.38Q90.25 93.88 90.25 94.50Q90.25 95.13 90.38 95.75L90.38 95.75L90.38 95.63Q90.50 96.63 90.69 97.56Q90.88 98.50 91.13 99.38L91.13 99.38L91.13 99.25Q91.13 99.38 91.13 99.44Q91.13 99.50 91.13 99.50L91.13 99.50Q91.13 99.63 90.81 99.38Q90.50 99.13 90.13 98.38L90.13 98.38Q90 98.13 89.75 97.75Q89.50 97.38 89.38 97.13L89.38 97.13Q89.25 96.88 89.06 96.50Q88.88 96.13 88.75 95.88L88.75 95.88L88.75 95.75Q88.63 95.38 88.44 94.94Q88.25 94.50 88.25 94.38L88.25 94.38Q88.13 94 88 93.63Q87.88 93.25 87.88 92.88L87.88 92.88L87.88 92.88Q87.88 92.75 87.88 92.63Q87.88 92.50 87.75 92.38L87.75 92.38L87.75 92.38Q87.75 92.25 87.69 92.06Q87.63 91.88 87.63 91.63L87.63 91.63L87.63 91.63Q87.63 91.50 87.63 91.31Q87.63 91.13 87.50 90.88L87.50 90.88L87.50 90.88Q87.50 90.88 87.50 90.44Q87.50 90 87.50 89.50L87.50 89.50Q87.50 89.50 87.50 89.44Q87.50 89.38 87.50 89.38L87.50 89.38Q87.50 89.13 87.50 88.88Q87.50 88.63 87.50 88.38L87.50 88.38L87.50 88.38Q87.50 88.38 87.38 88.38Q87.25 88.38 87.25 88.50L87.25 88.50Q87.13 88.63 87.06 88.75Q87 88.88 87.13 88.75L87.13 88.75Q87.25 88.63 87.25 88.63Q87.25 88.63 87.13 88.75L87.13 88.75Q87 88.75 87 88.81Q87 88.88 87 88.88L87 88.88Q86.88 88.88 86.75 89.06Q86.63 89.25 86.63 89.38L86.63 89.38Q86.63 89.50 86.56 89.50Q86.50 89.50 86.50 89.50L86.50 89.50Q86.38 89.63 86.31 89.69Q86.25 89.75 86.25 89.75L86.25 89.75L86.25 89.75Q86 90.13 85.69 90.50Q85.38 90.88 85 91.13L85 91.13L85 91.25Q84.75 91.25 84.69 91.44Q84.63 91.63 84.50 91.75L84.50 91.75L84.50 91.75Q84.50 92 84.06 93.25Q83.63 94.50 83.38 94.88L83.38 94.88Q83.38 95 83.25 95.31Q83.13 95.63 83 96L83 96Q82.88 96.38 82.69 96.75Q82.50 97.13 82.38 97.38L82.38 97.38Q82.13 98 82.13 98.19Q82.13 98.38 82.38 99L82.38 99Q82.50 99.50 82.69 100.13Q82.88 100.75 83 101.38L83 101.38L83 101.50Q83 101.50 83.06 101.63Q83.13 101.75 83.13 101.75L83.13 101.75L83.13 101.75Q83.25 102 83.38 102.31Q83.50 102.63 83.63 102.88L83.63 102.88L83.63 103Q83.63 103.38 83.81 103.63Q84 103.88 84.13 104.25L84.13 104.25L84.13 104.13Q84.13 104.25 84.19 104.38Q84.25 104.50 84.38 104.63L84.38 104.63L84.38 104.63Q84.38 104.75 84.44 104.88Q84.50 105 84.63 105L84.63 105Q84.75 104.88 84.88 104.88Q85 104.88 85.13 104.75L85.13 104.75L85.13 104.75ZM103.38 103.63L103.38 103.63Q103.63 103.38 103.69 103.25Q103.75 103.13 103.63 103.25L103.63 103.25Q103.38 103.38 103.19 103.63Q103 103.88 102.88 104.13L102.88 104.13L102.75 104.13Q103 104 103.13 103.88Q103.25 103.75 103.38 103.63L103.38 103.63L103.38 103.63ZM47.75 94.88L47.88 94.88Q48 94.50 48.19 94.13Q48.38 93.75 48.50 93.38L48.50 93.38L48.50 93.38Q48.25 93 48 92.75Q47.75 92.50 47.50 92.38L47.50 92.38L47.50 92.38Q47.38 92.25 47.19 92.38Q47 92.50 47 92.63L47 92.63Q47 92.88 46.94 93.25Q46.88 93.63 46.88 94.25L46.88 94.25Q46.88 94.63 46.81 95.13Q46.75 95.63 46.63 96L46.63 96L46.75 95.88Q46.63 96.13 46.63 96.19Q46.63 96.25 46.88 96.25L46.88 96.25Q47.13 96.25 47.25 96.06Q47.38 95.88 47.75 94.88L47.75 94.88ZM89.25 91.50L89.25 91.50Q89.38 91 89.50 90.31Q89.63 89.63 89.63 88.88L89.63 88.88L89.63 88.75Q89.75 88.50 89.75 88.31Q89.75 88.13 89.75 88L89.75 88L89.75 88Q90 87.50 89.75 87.38Q89.50 87.25 89 87.50L89 87.50Q88.38 87.75 88.31 88Q88.25 88.25 88.25 89L88.25 89Q88.25 89.63 88.44 90.94Q88.63 92.25 88.63 92.50L88.63 92.50Q88.63 92.63 88.69 92.63Q88.75 92.63 89 92.25L89 92.25Q89 92.13 89.06 91.94Q89.13 91.75 89.25 91.63L89.25 91.63L89.25 91.50ZM39.75 79.75L39.75 79.63Q40 78.88 40.50 78.25Q41 77.63 41.63 77.25L41.63 77.25L41.75 77.25Q42.38 76.88 43.31 76.63Q44.25 76.38 46.38 76.13L46.38 76.13L48.25 75.88Q48.63 75.88 49.56 75.81Q50.50 75.75 51.63 75.63L51.63 75.63Q53.63 75.50 55.56 75.25Q57.50 75 59.38 74.75L59.38 74.75L59 74.75Q61.50 74.25 63.19 73.50Q64.88 72.75 67.63 70.88L67.63 70.88Q68.63 70.25 69.44 69.50Q70.25 68.75 71 67.88L71 67.88L71 67.88Q71.75 67 72.38 65.88Q73 64.75 73.25 63.50L73.25 63.50L73.25 63.50Q73.25 63.25 73.31 63Q73.38 62.75 73.38 62.50L73.38 62.50Q73.38 62.25 73.31 62Q73.25 61.75 73.25 61.50L73.25 61.50L73.25 61.50Q72.63 60.38 71.75 59.44Q70.88 58.50 69.88 57.75L69.88 57.75L69.88 57.75Q68.50 56.88 67 56.31Q65.50 55.75 63.88 55.75L63.88 55.75L63.88 55.75Q63.50 55.75 63 55.69Q62.50 55.63 62.13 55.63L62.13 55.63Q60.88 55.63 59.69 55.75Q58.50 55.88 57.25 55.88L57.25 55.88L57.50 55.88Q54.13 56.50 51.19 57.88Q48.25 59.25 45.88 61.25L45.88 61.25L45.88 61.25Q44.63 62.25 43.44 63.31Q42.25 64.38 41.25 65.50L41.25 65.50L41.25 65.50Q40.13 66.50 39.69 67.13Q39.25 67.75 37.88 70L37.88 70Q37.63 70.38 37.31 70.81Q37 71.25 36.88 71.63L36.88 71.63Q36.50 72 36.25 72.50Q36 73 35.88 73.63L35.88 73.63L35.88 73.63Q35.75 73.88 35.75 74Q35.75 74.13 35.75 74.25L35.75 74.25Q36.13 74 36.44 73.75Q36.75 73.50 37 73.25L37 73.25L37 73.25Q37.75 72.63 38.50 72.19Q39.25 71.75 40.13 71.50L40.13 71.50L40.13 71.50Q42 70.75 44.06 70.25Q46.13 69.75 48.25 69.63L48.25 69.63L48.38 69.63Q50.25 69.50 52.06 69.25Q53.88 69 55.50 68.50L55.50 68.50L55.25 68.63Q59.38 67.75 61.38 66.88Q63.38 66 65.50 64L65.50 64Q66 63.75 66.19 63.63Q66.38 63.50 66.38 63.50L66.38 63.50Q66.50 63.63 66.50 63.75Q66.50 63.88 66.50 64L66.50 64Q66.50 64.13 66.50 64.19Q66.50 64.25 66.38 64.38L66.38 64.38L66.38 64.38Q66.38 64.50 66.38 64.50Q66.38 64.50 66.38 64.50L66.38 64.50Q66.38 64.88 66.31 65.19Q66.25 65.50 66.13 65.75L66.13 65.75L66.13 65.75Q65.88 66.13 65.56 66.50Q65.25 66.88 64.88 67.25L64.88 67.25L64.88 67.25Q63.63 68.13 62.31 68.81Q61 69.50 59.50 70.13L59.50 70.13L59.25 70.25Q58.75 70.38 57.31 70.88Q55.88 71.38 55.25 71.50L55.25 71.50L54.50 71.75Q54.38 71.75 53.94 71.88Q53.50 72 53.13 72.13L53.13 72.13Q52.75 72.25 51.94 72.38Q51.13 72.50 50.50 72.63L50.50 72.63L46.25 73.63Q44.63 73.75 43.19 74.44Q41.75 75.13 40.50 76L40.50 76L40.50 76Q39.88 76.63 39.50 77.31Q39.13 78 38.88 78.88L38.88 78.88L38.88 78.88Q38.88 79 38.88 79Q38.88 79 38.88 79.13L38.88 79.13Q38.88 79.50 38.94 79.88Q39 80.25 39.25 80.63L39.25 80.63L39.25 80.50Q39.38 80.38 39.50 80.19Q39.63 80 39.63 79.75L39.63 79.75L39.75 79.75ZM90.75 78.38L90.75 78.50Q91.13 78.50 91.63 78.38Q92.13 78.25 92.38 78.25L92.38 78.25L92.88 78.13L91.88 77.63Q91.38 77.25 90.63 77.06Q89.88 76.88 89 76.88L89 76.88Q88.63 76.88 88.31 76.88Q88 76.88 87.63 77L87.63 77L87.75 77Q87.38 77.13 87 77.13Q86.63 77.13 86.25 77.13L86.25 77.13Q86 77.13 85.75 77.13Q85.50 77.13 85.25 77.13L85.25 77.13L85.25 77.13Q85 77 84.69 77Q84.38 77 84.13 77L84.13 77Q84.13 77 84.06 77Q84 77 84 77L84 77L83.25 77L84.38 77.63Q84.88 77.88 85.38 78.06Q85.88 78.25 86.38 78.25L86.38 78.25L86.38 78.25L87.75 78.38Q88.13 78.38 88.50 78.44Q88.88 78.50 89.25 78.50L89.25 78.50Q89.75 78.50 90.13 78.44Q90.50 78.38 90.88 78.38L90.88 78.38L90.75 78.38ZM87.25 75.50L87.25 75.50Q88.13 75.38 89.25 75.31Q90.38 75.25 91.50 75.25L91.50 75.25Q92.75 75.25 93.88 75.31Q95 75.38 96.13 75.50L96.13 75.50L95.88 75.50Q96.38 75.50 96.75 75.56Q97.13 75.63 97.13 75.63L97.13 75.63Q96.75 75.25 96.38 75Q96 74.75 95.50 74.50L95.50 74.50L95.50 74.50Q94.88 74.25 94.19 74.13Q93.50 74 92.75 74L92.75 74L92.75 74Q90.88 73.75 89.19 73.50Q87.50 73.25 87.25 73.13L87.25 73.13Q87.13 73.13 87 73.06Q86.88 73 86.75 73L86.75 73L86.75 73Q85.63 72.88 84.69 72.44Q83.75 72 82.88 71.38L82.88 71.38L82.88 71.38L82.38 71Q81.38 70.25 79.38 68.44Q77.38 66.63 76.50 65.75L76.50 65.75Q76 65.38 75.63 64.88Q75.25 64.38 74.88 63.75L74.88 63.75L74.88 63.75Q74.75 63.50 74.56 63.38Q74.38 63.25 74.25 63.38L74.25 63.38Q74 63.88 73.88 64.31Q73.75 64.75 73.63 65.25L73.63 65.25L73.63 65.38Q73.50 65.63 73.50 65.94Q73.50 66.25 73.50 66.50L73.50 66.50Q73.50 67 73.56 67.50Q73.63 68 73.75 68.50L73.75 68.50L73.75 68.38Q74.13 69.25 74.56 69.88Q75 70.50 75.63 71L75.63 71L75.75 71Q76.63 71.88 77.69 72.56Q78.75 73.25 79.88 73.75L79.88 73.75L80 73.75L81 74.13Q81.75 74.50 82.75 74.81Q83.75 75.13 84.75 75.38L84.75 75.38L84.88 75.50Q85.25 75.50 85.50 75.56Q85.75 75.63 86.13 75.63L86.13 75.63Q86.38 75.63 86.69 75.56Q87 75.50 87.25 75.50L87.25 75.50L87.25 75.50ZM39.25 74.88L39.25 74.88Q40.38 74 41.75 73.38Q43.13 72.75 44.63 72.38L44.63 72.38L44.75 72.38L49 71.63Q50.88 71.25 52.56 70.88Q54.25 70.50 55.88 70L55.88 70L55.50 70.13L56.50 69.75Q57.25 69.38 57.38 69.31Q57.50 69.25 57.13 69.38L57.13 69.38L55 69.75L52.63 70.13L49.25 70.50Q48.13 70.63 47.19 70.75Q46.25 70.88 46.25 70.88L46.25 70.88Q46.13 71 46.06 71Q46 71 45.88 71L45.88 71Q45.88 71 45.88 71Q45.88 71 45.88 71L45.88 71L45.88 71Q44.75 71.13 43.69 71.38Q42.63 71.63 41.63 72.13L41.63 72.13L41.75 72Q40 72.75 39.38 73.19Q38.75 73.63 38.63 73.75L38.63 73.75Q38.50 74 38.44 74.25Q38.38 74.50 38.38 74.75L38.38 74.75Q38.38 74.88 38.38 75Q38.38 75.13 38.38 75.13L38.38 75.13L38.38 75.13Q38.50 75.25 38.69 75.19Q38.88 75.13 39.25 74.88L39.25 74.88ZM93.13 72.75L93.13 72.75Q93.25 72.63 93.38 72.50Q93.50 72.38 93.50 72.13L93.50 72.13Q93.50 72.13 93.50 72.13Q93.50 72.13 93.50 72.13L93.50 72.13L93.50 72.13Q93.50 72 93.44 71.94Q93.38 71.88 93.38 71.75L93.38 71.75Q93.25 71.50 93.13 71.31Q93 71.13 92.88 71L92.88 71L92.88 71Q92.63 70.63 92.44 70.31Q92.25 70 92.13 69.63L92.13 69.63L92 69.63Q91.63 68.75 91.13 68.06Q90.63 67.38 90 66.75L90 66.75L90 66.75Q88.75 65.50 87.44 64.44Q86.13 63.38 84.63 62.38L84.63 62.38L84.50 62.38Q84.13 62.25 83.50 62Q82.88 61.75 81.63 61.38L81.63 61.38Q81.38 61.25 81.13 61.19Q80.88 61.13 80.63 61L80.63 61L80.75 61Q81.13 61.13 81.44 61.19Q81.75 61.25 82.13 61.38L82.13 61.38L82.75 61.50Q84.75 62.13 86.44 62.88Q88.13 63.63 89.63 64.63L89.63 64.63L89.50 64.50Q89.63 64.63 89.75 64.63Q89.88 64.63 90 64.63L90 64.63Q90.13 64.63 90.19 64.63Q90.25 64.63 90.38 64.63L90.38 64.63L90.38 64.63Q90.50 64.50 90.38 64.38Q90.25 64.25 89.50 63.13L89.50 63.13L88.63 62.13L86.88 61.13Q86 60.63 85.25 60.13Q84.50 59.63 83.88 59L83.88 59L83.88 59Q83.50 58.63 83.06 58.44Q82.63 58.25 82.13 58.13L82.13 58.13L82.13 58.13Q81.38 57.88 80.56 57.81Q79.75 57.75 78.88 57.75L78.88 57.75Q78.63 57.75 78.44 57.75Q78.25 57.75 78.13 57.75L78.13 57.75L78.13 57.75Q78 57.75 77.81 57.75Q77.63 57.75 77.50 57.75L77.50 57.75Q77.13 57.75 76.69 57.75Q76.25 57.75 75.75 57.88L75.75 57.88L75.88 57.88Q75.75 57.88 75.63 58.06Q75.50 58.25 75.50 58.38L75.50 58.38L75.50 58.50Q75.50 58.50 75.50 58.56Q75.50 58.63 75.38 58.63L75.38 58.63Q75.38 58.63 75.31 58.81Q75.25 59 75.25 59.50L75.25 59.50Q75.25 60.25 75.25 60.56Q75.25 60.88 75.13 60.88L75.13 60.88Q75.13 61 75.06 61.19Q75 61.38 75 61.50L75 61.50Q75 61.75 75.06 61.94Q75.13 62.13 75.13 62.25L75.13 62.25L75.13 62.25Q75.25 62.25 75.25 62.38Q75.25 62.50 75.25 62.50L75.25 62.50L75.25 62.50Q75.38 62.88 75.50 63Q75.63 63.13 75.63 63L75.63 63Q75.63 62.88 75.69 63Q75.75 63.13 75.88 63.38L75.88 63.38Q76.13 64 77.69 65.31Q79.25 66.63 82 68.63L82 68.63L83.13 69.50Q83.63 69.88 84.19 70.19Q84.75 70.50 85.38 70.75L85.38 70.75L85.50 70.75L87.13 71.50Q88.88 72.13 90.75 72.50Q92.63 72.88 93.13 72.75L93.13 72.75ZM40.38 63.75L40.25 63.75Q40.25 64 40.25 64Q40.25 64 40.38 63.88L40.38 63.88L40.75 63.63Q41.13 63.25 41.75 62.75Q42.38 62.25 43.50 61.13L43.50 61.13Q43.88 60.75 44.38 60.31Q44.88 59.88 45.38 59.50L45.38 59.50L45.50 59.38L47.50 58.13Q48.38 57.63 49.38 57.13Q50.38 56.63 51.38 56.13L51.38 56.13L51.50 56.13Q52.63 55.63 53.75 55.31Q54.88 55 56.13 54.88L56.13 54.88L56.25 54.88Q56.75 54.75 57.38 54.63Q58 54.50 58.38 54.50L58.38 54.50Q59 54.38 59.75 54.31Q60.50 54.25 61.25 54.25L61.25 54.25Q62.13 54.25 63 54.31Q63.88 54.38 64.75 54.63L64.75 54.63L64.63 54.63Q67.13 54.88 69.13 56.13Q71.13 57.38 72.63 59.25L72.63 59.25L72.63 59.25Q73.13 59.88 73.31 60.06Q73.50 60.25 73.63 60.13L73.63 60.13Q74 59.88 74.19 58.25Q74.38 56.63 74.13 55.50L74.13 55.50Q73.88 53.75 73.13 52.25Q72.38 50.75 71.13 49.50L71.13 49.50L71.13 49.50Q70.38 48.88 69.50 48.25Q68.63 47.63 67.75 47.13L67.75 47.13L67.63 47.13Q65 45.75 62.94 45.63Q60.88 45.50 57.63 46.38L57.63 46.38Q56.38 46.63 55.31 47Q54.25 47.38 53.38 47.88L53.38 47.88L53.38 47.88Q52.25 48.63 51.25 49.31Q50.25 50 49.38 50.75L49.38 50.75L49.38 50.75L48.25 51.75Q47.88 52.13 47.44 52.50Q47 52.88 46.88 53L46.88 53Q46.63 53.25 45.88 54.31Q45.13 55.38 44.75 55.75L44.75 55.75Q44.75 55.88 44.31 56.44Q43.88 57 43.38 57.63L43.38 57.63Q41.75 59.63 40.81 61.19Q39.88 62.75 39.63 64.13L39.63 64.13Q39.63 64.25 39.69 64.25Q39.75 64.25 40 63.88L40 63.88Q40.25 63.63 40.31 63.56Q40.38 63.50 40.38 63.75L40.38 63.75ZM88.88 60L88.88 60Q88.75 59.75 88.19 59.06Q87.63 58.38 87 57.63L87 57.63Q86.38 56.63 85.69 55.81Q85 55 84.13 54.38L84.13 54.38L84.13 54.25L83.38 53.63Q82.88 53.38 82.31 53.13Q81.75 52.88 81.13 52.63L81.13 52.63L81 52.63Q80.63 52.50 80.31 52.38Q80 52.25 79.63 52.13L79.63 52.13L79.75 52.13Q79.50 52 79.25 51.88Q79 51.75 78.75 51.63L78.75 51.63L78.75 51.63Q78.38 51.63 78.13 51.56Q77.88 51.50 77.50 51.50L77.50 51.50Q77.25 51.50 76.94 51.56Q76.63 51.63 76.25 51.63L76.25 51.63L76.38 51.63L75.63 51.75Q75.50 51.88 75.44 51.88Q75.38 51.88 75.25 52L75.25 52L75.25 52Q75.13 52.13 75.13 52.31Q75.13 52.50 75.25 53.25L75.25 53.25Q75.25 53.50 75.31 54.06Q75.38 54.63 75.38 55.13L75.38 55.13Q75.38 56.13 75.44 56.44Q75.50 56.75 75.63 56.75L75.63 56.75Q75.75 56.88 76.13 56.94Q76.50 57 78.50 57L78.50 57Q81.25 57 82.31 57.19Q83.38 57.38 85.38 58.38L85.38 58.38Q86 58.75 86.56 59.06Q87.13 59.38 87.38 59.50L87.38 59.50Q87.75 59.75 88.25 60Q88.75 60.25 89.25 60.50L89.25 60.50L89.38 60.50Q89.38 60.63 89.25 60.44Q89.13 60.25 88.88 60L88.88 60ZM38.88 56.38L38.88 56.38Q39 56 39.13 55.56Q39.25 55.13 39.38 54.63L39.38 54.63L39.50 54.50Q39.75 53.75 39.94 52.94Q40.13 52.13 40.25 51.88L40.25 51.88Q40.38 51.63 40.38 51.44Q40.38 51.25 40.50 51L40.50 51L40.50 50.88Q40.50 50.88 39.69 50.63Q38.88 50.38 35.50 49.50L35.50 49.50Q34 49.13 31.06 48.38Q28.13 47.63 25.63 46.88L25.63 46.88Q23.13 46.25 21.25 45.75Q19.38 45.25 19.38 45.25L19.38 45.25Q19.38 45.25 19.38 45.25Q19.38 45.25 19.38 45.25L19.38 45.25Q19.25 45.25 19.25 45.31Q19.25 45.38 19.13 45.38L19.13 45.38L19.13 45.38Q19.13 45.38 19 46.19Q18.88 47 18.88 48.13L18.88 48.13Q18.75 49.25 18.63 50.44Q18.50 51.63 18.38 52.13L18.38 52.13Q18.25 53 18.25 53.25Q18.25 53.50 18.38 53.63L18.38 53.63Q18.50 53.63 20.31 53.94Q22.13 54.25 26.25 54.75L26.25 54.75L36.13 56.13Q38 56.38 38.38 56.44Q38.75 56.50 38.88 56.38L38.88 56.38ZM94.50 51.38L94.50 51.38L103.50 48.25Q106 47.38 107.88 46.75Q109.75 46.13 109.88 46L109.88 46Q110.13 45.88 110.19 45.31Q110.25 44.75 110.50 41.50L110.50 41.50Q110.63 40.63 110.69 39.88Q110.75 39.13 110.75 39L110.75 39Q110.75 38.88 110.75 38.81Q110.75 38.75 110.63 38.75L110.63 38.75Q110.50 38.75 107.13 39.69Q103.75 40.63 99 42L99 42Q92.13 44 89.88 44.69Q87.63 45.38 87.63 45.50L87.63 45.50Q87.63 45.75 87.75 45.94Q87.88 46.13 88 46.38L88 46.38L88 46.38Q88.63 47.50 89.88 49.75Q91.13 52 91.25 52.13L91.25 52.13Q91.25 52.25 91.38 52.25Q91.50 52.25 91.63 52.25L91.63 52.25Q91.63 52.25 91.63 52.25Q91.63 52.25 91.63 52.25L91.63 52.25L91.63 52.25Q91.75 52.38 92.63 52.06Q93.50 51.75 94.50 51.38L94.50 51.38ZM33.63 47.38L33.50 47.25Q33.63 47.25 33.63 47.19Q33.63 47.13 33.63 47L33.63 47L33.63 47Q33.63 47 33.88 46.19Q34.13 45.38 34.38 44.38L34.38 44.38L35.25 41.75L35.63 41.25Q36 41 36.19 40.50Q36.38 40 36.38 39.50L36.38 39.50L36.38 39.50Q36.38 39.13 36.50 38.75Q36.63 38.38 36.75 38L36.75 38L36.75 38Q36.88 37.88 37.06 37.75Q37.25 37.63 37.50 37.50L37.50 37.50L37.50 37.50Q38.50 37 39.38 36.38Q40.25 35.75 41 35L41 35L41 35Q41.38 34.63 41.69 34.25Q42 33.88 42.25 33.50L42.25 33.50L42.25 33.50Q43.13 31.63 44.13 29.94Q45.13 28.25 46.13 26.75L46.13 26.75L46.13 26.88Q46.88 25.63 47.81 24.44Q48.75 23.25 49.75 22.25L49.75 22.25L49.75 22.25Q50 22 50.31 21.63Q50.63 21.25 50.88 20.88L50.88 20.88L50.88 20.88Q51.25 20.13 51.19 19.63Q51.13 19.13 50.63 18.75L50.63 18.75Q50.25 18.50 49.94 18.63Q49.63 18.75 48.75 19.38L48.75 19.38Q47.75 20 46.63 20.56Q45.50 21.13 44.25 21.63L44.25 21.63L44.13 21.75Q42.25 22.63 41.63 22.94Q41 23.25 40.75 23.75L40.75 23.75Q40.63 23.88 40.50 24.06Q40.38 24.25 40.25 24.38L40.25 24.38L40.25 24.38Q39.75 24.63 39.19 24.81Q38.63 25 38 25.13L38 25.13L38 25.13Q37.88 25.13 37.75 25.13Q37.63 25.13 37.50 25.13L37.50 25.13L37.50 25.13L34.75 26.88Q32.13 28.50 30.44 29.56Q28.75 30.63 27.25 31.50L27.25 31.50L24.75 33L24 33.63Q23.75 33.75 23.63 33.81Q23.50 33.88 23.50 34L23.50 34Q24.13 35.50 24.75 36.81Q25.38 38.13 26.13 39.38L26.13 39.38L26 39.13Q26.13 39.38 26.25 39.56Q26.38 39.75 26.38 40L26.38 40L26.38 40Q26.38 40.13 26.31 40.25Q26.25 40.38 26.25 40.50L26.25 40.50L26.25 40.50Q25.75 41.13 25.50 41.88Q25.25 42.63 25 43.38L25 43.38L25 43.38Q24.88 43.88 24.81 44.25Q24.75 44.63 24.63 44.75L24.63 44.75Q24.63 44.88 24.63 45Q24.63 45.13 24.63 45.13L24.63 45.13Q24.88 45.25 25.06 45.31Q25.25 45.38 25.50 45.38L25.50 45.38L25.63 45.38Q26.75 45.75 29.81 46.50Q32.88 47.25 33 47.38L33 47.38Q33.13 47.38 33.19 47.38Q33.25 47.38 33.25 47.38L33.25 47.38Q33.38 47.38 33.44 47.38Q33.50 47.38 33.63 47.38L33.63 47.38L33.63 47.38ZM95.88 41L95.75 40.88L99.75 39.75Q100.63 39.50 101.31 39.25Q102 39 102 39L102 39Q102.13 39 102.13 38.94Q102.13 38.88 102.13 38.75L102.13 38.75L102.13 38.75Q102.13 38.50 101 35.56Q99.88 32.63 98.88 30.50L98.88 30.50Q98.75 30.25 98.63 29.88Q98.50 29.50 98.38 29.25L98.38 29.25L98.38 29.13Q98.38 28.88 98.44 28.63Q98.50 28.38 98.63 28.25L98.63 28.25L98.63 28.25Q99 27.25 99.06 26.56Q99.13 25.88 99.13 24L99.13 24Q99.13 24 99.13 23.94Q99.13 23.88 99.13 23.75L99.13 23.75Q99.13 22.88 99.06 22.06Q99 21.25 98.75 20.50L98.75 20.50L98.75 20.63Q98.75 20.13 98.56 19.44Q98.38 18.75 98.25 18.25L98.25 18.25Q98.13 17.75 98 17.19Q97.88 16.63 97.75 16.38L97.75 16.38Q97.50 15.38 97.19 14.44Q96.88 13.50 95.63 11L95.63 11Q94.88 9.25 94 7.69Q93.13 6.13 92.13 4.75L92.13 4.75L92.25 4.88Q92 4.38 91.75 4Q91.50 3.63 91.38 3.38L91.38 3.38Q91.13 2.88 90.56 2.44Q90 2 89.38 1.75L89.38 1.75L89.38 1.75Q89.13 1.75 88.94 2.06Q88.75 2.38 88.75 2.63L88.75 2.63Q89 3.13 89.19 3.63Q89.38 4.13 89.50 4.63L89.50 4.63L89.50 4.50Q90.75 7.38 91.06 8.13Q91.38 8.88 91.63 9.50L91.63 9.50Q91.88 10.25 92.06 11.06Q92.25 11.88 92.38 12.63L92.38 12.63L92.38 12.75Q92.38 13.13 92.38 13.25Q92.38 13.38 92.25 13.50L92.25 13.50L92.13 13.75L91.63 13.25Q91.38 12.75 90.94 12.50Q90.50 12.25 90 12.25L90 12.25Q89.75 12.25 89.56 12.31Q89.38 12.38 89.25 12.38L89.25 12.38L89.25 12.38Q89.13 12.50 89.06 12.50Q89 12.50 88.88 12.50L88.88 12.50Q88.75 12.50 88.69 12.50Q88.63 12.50 88.50 12.38L88.50 12.38L88.50 12.38Q88.13 12.25 88.13 12.06Q88.13 11.88 88.50 11.63L88.50 11.63Q88.88 11.38 89 11.19Q89.13 11 88.88 10.63L88.88 10.63Q88.38 9.88 87.75 9.19Q87.13 8.50 86.38 8L86.38 8L86.38 8Q84.38 6.63 82.19 5.25Q80 3.88 77.63 2.75L77.63 2.75L77.38 2.63Q76.13 2 75.69 1.81Q75.25 1.63 75 1.63L75 1.63Q74.63 1.63 74.44 1.81Q74.25 2 74.25 2.25L74.25 2.25Q74.25 2.50 74.31 2.63Q74.38 2.75 74.63 3.13L74.63 3.13Q75 3.50 75.44 3.75Q75.88 4 76.38 4.25L76.38 4.25L76.38 4.25Q76.88 4.50 77.38 4.81Q77.88 5.13 78 5.25L78 5.25Q78.75 5.75 81.31 7.75Q83.88 9.75 84.75 10.63L84.75 10.63Q85.38 11.13 85.94 11.75Q86.50 12.38 87 13L87 13L87 13.13Q87 13.25 86.81 13.38Q86.63 13.50 86.38 13.50L86.38 13.50Q86 13.25 85.75 13.06Q85.50 12.88 85.25 12.63L85.25 12.63L85.25 12.63Q84.88 12.13 83.69 11.19Q82.50 10.25 80.25 8.63L80.25 8.63Q78.50 7.38 77.06 6.31Q75.63 5.25 75.38 5L75.38 5Q74.88 4.63 74.31 4.31Q73.75 4 73.13 3.75L73.13 3.75L73 3.75Q72.88 3.75 72.63 4Q72.38 4.25 72.38 4.50L72.38 4.50Q72.25 4.88 72.75 5.56Q73.25 6.25 74.25 7.13L74.25 7.13Q75 7.75 79.19 12.38Q83.38 17 83.63 17.50L83.63 17.50Q83.63 17.50 83.69 17.63Q83.75 17.75 83.75 18L83.75 18Q83.75 18 83.75 18Q83.75 18 83.75 18L83.75 18L83.75 18Q83.75 18.38 83.31 18.25Q82.88 18.13 81.25 17.25L81.25 17.25L78.88 15.88Q78.13 15.50 77 14.81Q75.88 14.13 75 13.50L75 13.50L73.13 12.25Q72.50 11.75 71.75 11.38Q71 11 70.25 10.75L70.25 10.75L70.13 10.63Q69.88 10.63 69.75 10.88Q69.63 11.13 69.63 11.38L69.63 11.38Q69.63 11.63 69.75 11.81Q69.88 12 70.38 12.38L70.38 12.38Q70.63 12.63 71.19 13.13Q71.75 13.63 72.38 14.13L72.38 14.13L75.13 16.63Q76.50 17.75 77.63 18.94Q78.75 20.13 79.75 21.38L79.75 21.38L79.75 21.50Q80 21.75 80.13 21.88Q80.25 22 80.50 22L80.50 22Q80.88 22.13 81.19 22.06Q81.50 22 82.25 21.63L82.25 21.63Q82.75 21.38 83.38 21.19Q84 21 84.63 21L84.63 21Q84.75 21 84.81 21Q84.88 21 85 21L85 21L85 21Q85.50 21 85.63 21Q85.75 21 85.75 21.13L85.75 21.13Q85.75 21.38 85.63 21.44Q85.50 21.50 85.13 21.75L85.13 21.75Q84.50 22.13 83.81 22.56Q83.13 23 82.38 23.50L82.38 23.50Q82 23.75 81.81 23.81Q81.63 23.88 81.38 23.88L81.38 23.88Q81.13 23.88 80.94 23.81Q80.75 23.75 80.50 23.75L80.50 23.75L80.50 23.75Q79.75 23.50 76.94 23.69Q74.13 23.88 71.63 24.38L71.63 24.38Q71.38 24.38 71.13 24.56Q70.88 24.75 70.63 24.88L70.63 24.88L70.63 24.88Q70.63 25 70.56 25.06Q70.50 25.13 70.50 25.25L70.50 25.25L70.50 25.25Q70.50 25.75 70.69 25.94Q70.88 26.13 71.38 26.13L71.38 26.13Q71.63 26.25 72.38 26.38Q73.13 26.50 74 26.75L74 26.75L76.50 27.25Q76.88 27.25 77.19 27.44Q77.50 27.63 78.50 28.25L78.50 28.25Q79 28.63 79.81 29.19Q80.63 29.75 81.25 30.13L81.25 30.13Q82 30.75 82.81 31.19Q83.63 31.63 84.63 31.88L84.63 31.88L84.75 32Q86.38 32.38 87.06 32.50Q87.75 32.63 88 32.75L88 32.75Q88.75 32.88 89.06 33.19Q89.38 33.50 89.88 34.50L89.88 34.50Q90.25 35.25 90.44 35.38Q90.63 35.50 91 35.50L91 35.50Q91.38 35.50 91.44 35.56Q91.50 35.63 91.63 35.75L91.63 35.75Q91.75 36 92.31 37.56Q92.88 39.13 93.13 40.25L93.13 40.25Q93.38 40.63 93.44 41Q93.50 41.38 93.63 41.38L93.63 41.38Q93.63 41.50 94.13 41.38Q94.63 41.25 95.88 41L95.88 41ZM28.75 28.25L28.63 28.38L35 24.75Q35.63 24.50 35.56 24.38Q35.50 24.25 34.25 23.38L34.25 23.38Q33.63 23 32.94 22.50Q32.25 22 32 21.75L32 21.75Q31.88 21.63 31.69 21.50Q31.50 21.38 31.25 21.25L31.25 21.25L31.25 21.25Q31.13 21.38 31.06 21.56Q31 21.75 31 22L31 22L31 22Q30.88 22.50 30.75 22.69Q30.63 22.88 30.50 22.88L30.50 22.88Q30.25 22.63 30.06 22.38Q29.88 22.13 29.75 21.88L29.75 21.88L29.75 21.88Q29.75 21.75 29.88 21.38Q30 21 30.25 20.38L30.25 20.38Q30.50 19.63 30.63 19.38Q30.75 19.13 30.88 19.13L30.88 19.13Q31 19.13 31.19 19.31Q31.38 19.50 31.88 19.88L31.88 19.88Q32.75 20.75 33.75 21.50Q34.75 22.25 35.88 22.88L35.88 22.88L36 22.88Q36.88 23.25 37.38 23.25Q37.88 23.25 38.50 22.75L38.50 22.75L38.75 22.50L38.63 22.13Q38.50 21.88 38 21.31Q37.50 20.75 35.63 18.88L35.63 18.88Q34.75 18.13 33.94 17.19Q33.13 16.25 32.38 15.38L32.38 15.38L32.38 15.25Q31.63 14.13 31.25 13.75Q30.88 13.38 30.38 13.38L30.38 13.38Q30 13.50 29.75 13.69Q29.50 13.88 29.38 14.13L29.38 14.13L29.38 14.13Q29.25 14.38 28.88 14.94Q28.50 15.50 28.13 16.13L28.13 16.13Q27.63 16.75 27.13 17.56Q26.63 18.38 26.50 18.75L26.50 18.75L25.50 20.38Q25.13 20.75 24.88 21.31Q24.63 21.88 24.50 22.38L24.50 22.38L24.50 22.38Q24.50 22.88 24.63 23.19Q24.75 23.50 24.88 23.88L24.88 23.88L24.88 23.75Q25.38 24.75 25.50 25.25Q25.63 25.75 25.50 25.88L25.50 25.88Q25.38 25.88 25.38 25.88Q25.38 25.88 25.25 26L25.25 26L25.25 26Q25.13 26 24.25 24.50Q23.38 23 21.88 20.25L21.88 20.25Q21.13 18.63 20.38 17.31Q19.63 16 18.75 14.75L18.75 14.75L18.88 14.88Q18.38 14.13 18.25 14Q18.13 13.88 17.88 13.88L17.88 13.88Q17.75 14 17.69 14.31Q17.63 14.63 17.88 15.75L17.88 15.75Q18.13 17.50 18.94 20.19Q19.75 22.88 21.50 28.50L21.50 28.50Q22.25 30.88 22.44 31.25Q22.63 31.63 22.75 31.63L22.75 31.63Q22.88 31.63 24.63 30.63Q26.38 29.63 28.75 28.25L28.75 28.25ZM40.25 21.88L40.25 21.88Q40.63 21.63 41 21.44Q41.38 21.25 41.63 21L41.63 21L41.63 21Q41.75 20.88 41.69 20.56Q41.63 20.25 41 18.75L41 18.75Q40.50 17.13 40.31 16.63Q40.13 16.13 39.88 16.13L39.88 16.13Q39.75 16 39.31 16.25Q38.88 16.50 38.25 17L38.25 17Q38.13 17.13 37.81 17.31Q37.50 17.50 37.25 17.75L37.25 17.75L37.25 17.75Q37.13 17.88 37 17.94Q36.88 18 36.75 18.13L36.75 18.13L36.75 18.13Q37.13 18.63 37.50 19.06Q37.88 19.50 38.25 19.88L38.25 19.88L38.25 19.88Q38.75 20.63 39.25 21.13Q39.75 21.63 39.75 21.75L39.75 21.75Q39.88 21.88 39.94 21.94Q40 22 40.25 21.88L40.25 21.88ZM36.88 16.50L36.88 16.50Q37.88 16 38.81 15.38Q39.75 14.75 40.63 14L40.63 14L40.63 14Q41.38 13.38 41.63 13.13Q41.88 12.88 42.50 12.38L42.50 12.38Q44.13 11 44.44 10.63Q44.75 10.25 44.75 9.75L44.75 9.75Q44.75 9.50 44.63 9.31Q44.50 9.13 44.38 9.13L44.38 9.13Q44.13 9.25 44 9.31Q43.88 9.38 43.75 9.50L43.75 9.50L43.75 9.50Q43.13 9.88 41.56 10.69Q40 11.50 39.38 11.75L39.38 11.75Q38.88 12 36.63 12.94Q34.38 13.88 33.88 14L33.88 14Q33.63 14.13 33.56 14.19Q33.50 14.25 33.50 14.25L33.50 14.25Q34.13 15 34.63 15.69Q35.13 16.38 35.75 17L35.75 17L35.75 17Q35.75 17 36.06 16.88Q36.38 16.75 36.88 16.50L36.88 16.50ZM78.63 14L78.63 14Q78.63 14 78.56 13.94Q78.50 13.88 78.50 13.88L78.50 13.88Q78.38 13.88 78.38 13.88Q78.38 13.88 78.38 14L78.38 14Q78.50 14.13 78.56 14.06Q78.63 14 78.63 14ZM41.50 87.25L41.50 87.25L41.38 87L41.63 87.25Q41.63 87.25 41.69 87.38Q41.75 87.50 41.88 87.50L41.88 87.50L41.88 87.50Q41.88 87.63 41.81 87.56Q41.75 87.50 41.50 87.25L41.50 87.25ZM61.88 101.75L61.88 101.75Q61.75 101.50 61.63 101.19Q61.50 100.88 61.38 100.50L61.38 100.50L61.38 100.50Q61.38 99.88 61.50 99.19Q61.63 98.50 61.88 98L61.88 98L61.75 98Q62 97.63 62.25 97.38Q62.50 97.13 62.88 96.88L62.88 96.88L62.88 96.88Q63.50 96.63 64.13 96.44Q64.75 96.25 65.50 96L65.50 96L65.63 96Q66.13 95.88 66.75 95.81Q67.38 95.75 68.13 95.75L68.13 95.75Q68.25 95.75 68.50 95.75Q68.75 95.75 69 95.75L69 95.75L68.88 95.75Q69.75 95.88 70.38 96.31Q71 96.75 71.38 97.38L71.38 97.38L71.38 97.38Q71.50 97.50 71.50 97.56Q71.50 97.63 71.38 97.75L71.38 97.75Q71.25 97.75 71.13 97.75Q71 97.75 70.63 97.50L70.63 97.50Q70.13 97.25 69.50 97.13Q68.88 97 68.25 97L68.25 97L68.25 97L67.25 96.88L66.13 97.38Q65.38 97.63 64.75 97.88Q64.13 98.13 63.63 98.50L63.63 98.50L63.63 98.50Q63.38 98.88 63.13 99.25Q62.88 99.63 62.75 100.13L62.75 100.13L62.75 100.13Q62.50 101.38 62.31 101.63Q62.13 101.88 61.88 101.75L61.88 101.75ZM65.75 94.88L65.75 94.88Q65.50 94.88 65.31 94.75Q65.13 94.63 65 94.63L65 94.63L65 94.63Q64.75 94.38 64.38 94.19Q64 94 63.50 94L63.50 94L63.50 94Q63.50 94 63.50 94Q63.50 94 63.50 94L63.50 94Q63.13 94 62.75 94.13Q62.38 94.25 62.13 94.38L62.13 94.38L62.13 94.38Q61.88 94.50 61.50 94.63Q61.13 94.75 60.75 94.88L60.75 94.88L60.75 94.88Q60.63 94.88 60.50 94.88Q60.38 94.88 60.25 94.88L60.25 94.88Q59.88 94.88 59.50 94.75Q59.13 94.63 58.88 94.50L58.88 94.50L58.88 94.50Q58.75 94.38 58.69 94.31Q58.63 94.25 58.63 94.13L58.63 94.13Q58.63 94.13 58.81 94Q59 93.88 59.25 93.75L59.25 93.75L59.75 93.25L60.50 93.25Q60.50 93.25 60.56 93.31Q60.63 93.38 60.75 93.38L60.75 93.38Q61.13 93.38 61.44 93.25Q61.75 93.13 62 92.88L62 92.88L62 92.88Q62.25 92.75 62.56 92.63Q62.88 92.50 63.25 92.50L63.25 92.50Q63.25 92.50 63.31 92.50Q63.38 92.50 63.38 92.50L63.38 92.50L63.38 92.50Q64 92.50 64.50 92.69Q65 92.88 65.50 93.25L65.50 93.25L65.50 93.25Q66.13 93.63 66.56 93.63Q67 93.63 67.50 93.25L67.50 93.25Q67.75 93.13 67.88 93.06Q68 93 68.25 93L68.25 93L68.25 93Q69.25 93 70.25 92.81Q71.25 92.63 72.13 92.25L72.13 92.25L72.13 92.25Q72.13 92.25 72.25 92.19Q72.38 92.13 72.50 92.13L72.50 92.13L72.50 92.13Q72.63 92.13 72.88 92.63Q73.13 93.13 73.13 93.25L73.13 93.25Q73.13 93.50 73.06 93.56Q73 93.63 72.75 93.75L72.75 93.75Q72.63 93.75 72.50 93.81Q72.38 93.88 72.13 93.88L72.13 93.88Q72 93.88 71.88 93.81Q71.75 93.75 71.63 93.75L71.63 93.75L71.63 93.75Q71.50 93.63 71.38 93.63Q71.25 93.63 70.75 93.63L70.75 93.63Q69.88 93.88 69.13 94.13Q68.38 94.38 67.63 94.75L67.63 94.75L67.75 94.63Q67.50 94.88 67.19 94.94Q66.88 95 66.50 95L66.50 95Q66.25 95 66.06 95Q65.88 95 65.75 94.88L65.75 94.88L65.75 94.88ZM66 92.50L66 92.50Q65.50 92.25 65.06 91.94Q64.63 91.63 64.25 91.13L64.25 91.13L64.25 91.13Q63.63 90.50 63.25 90.31Q62.88 90.13 62.38 90L62.38 90Q62.13 90 62.06 89.94Q62 89.88 62 89.88L62 89.88Q62.13 89.50 62.31 89.19Q62.50 88.88 62.88 88.63L62.88 88.63L62.88 88.63Q63 88.50 63.19 88.31Q63.38 88.13 63.50 87.88L63.50 87.88L63.50 87.88Q63.63 87.63 63.63 87.44Q63.63 87.25 63.63 86.50L63.63 86.50Q63.63 86.50 63.63 86.44Q63.63 86.38 63.63 86.38L63.63 86.38Q63.63 85.50 63.44 84.69Q63.25 83.88 62.88 83.13L62.88 83.13L62.88 83.13Q62.75 82.63 62.31 82.25Q61.88 81.88 61.38 81.88L61.38 81.88L61.38 81.88Q61.13 81.88 60.31 81.69Q59.50 81.50 58.50 81.38L58.50 81.38Q57.50 81.25 56.56 81.13Q55.63 81 55.25 81L55.25 81Q54.88 80.88 54.50 80.88Q54.13 80.88 53.63 80.88L53.63 80.88Q52.88 80.88 52.06 80.94Q51.25 81 50.50 81.13L50.50 81.13L50.50 81.13L49.63 81.25Q49.38 81.25 50.13 80.44Q50.88 79.63 51.63 79.13L51.63 79.13L52.13 78.75L53.50 78.88Q55.13 79 56.75 79.13Q58.38 79.25 60.38 79.63L60.38 79.63Q60.75 79.63 61.25 79.69Q61.75 79.75 62.38 79.75L62.38 79.75L62.38 79.75Q63 79.63 63.44 79.25Q63.88 78.88 64.50 78L64.50 78Q65.13 77 65.31 76.88Q65.50 76.75 65.63 77L65.63 77Q65.75 77.13 65.81 77.25Q65.88 77.38 65.88 77.63L65.88 77.63Q65.75 78.13 65.63 78.63Q65.50 79.13 65.25 79.50L65.25 79.50L65.25 79.50Q65.13 79.88 64.88 80.25Q64.63 80.63 64.25 80.88L64.25 80.88L64.25 80.88L63.50 81.63L63.75 81.88Q64.13 82.25 64.31 82.69Q64.50 83.13 64.75 83.50L64.75 83.50L64.75 83.63Q65 84.25 65.13 84.88Q65.25 85.50 65.25 86.25L65.25 86.25Q65.25 86.75 65.19 87.19Q65.13 87.63 65 88L65 88L65 88Q64.75 88.88 64.75 89Q64.75 89.13 65.38 89.75L65.38 89.75Q65.75 90.13 66 90.31Q66.25 90.50 66.38 90.50L66.38 90.50Q66.63 90.50 66.88 90.25Q67.13 90 67.75 89.38L67.75 89.38Q68.50 88.38 69.13 87.94Q69.75 87.50 70.25 87.50L70.25 87.50Q70.25 87.50 70.25 87.50Q70.25 87.50 70.25 87.50L70.25 87.50Q70.38 87.50 70.56 87.56Q70.75 87.63 70.88 87.75L70.88 87.75L70.88 87.75Q71.13 88 71.06 88.13Q71 88.25 70.63 88.38L70.63 88.38Q70.25 88.63 69.88 89Q69.50 89.38 68.88 90.38L68.88 90.38Q68.63 90.88 68.31 91.31Q68 91.75 67.88 91.88L67.88 91.88Q67.63 92.13 67.19 92.31Q66.75 92.50 66.38 92.50L66.38 92.50Q66.25 92.50 66.19 92.50Q66.13 92.50 66 92.50L66 92.50L66 92.50ZM45.38 86.13L45.38 86Q45.25 86 45.19 85.88Q45.13 85.75 45 85.63L45 85.63L45 85.50Q44.88 85.25 44.56 84.94Q44.25 84.63 44 84.38L44 84.38L44 84.38Q43.50 84.25 43.19 83.88Q42.88 83.50 42.63 83.13L42.63 83.13L42.63 83.13Q42.50 83 42.44 82.75Q42.38 82.50 42.38 82.25L42.38 82.25Q42.38 82.13 42.38 82.13Q42.38 82.13 42.38 82.13L42.38 82.13L42.38 82.13Q42.38 81.63 42.50 81.38Q42.63 81.13 42.88 81L42.88 81Q43.13 80.88 43.19 80.88Q43.25 80.88 43.38 81.13L43.38 81.13Q43.63 81.38 43.75 81.69Q43.88 82 44 82.38L44 82.38L44 82.38Q44.13 82.88 44.38 83.25Q44.63 83.63 44.88 84L44.88 84L44.88 84Q45.25 84.25 45.38 84.63Q45.50 85 45.50 85.38L45.50 85.38Q45.50 85.38 45.50 85.44Q45.50 85.50 45.50 85.63L45.50 85.63L45.50 85.63Q45.50 85.88 45.50 86Q45.50 86.13 45.38 86.13L45.38 86.13ZM78 85.50L78 85.50Q77.50 85.50 76.94 85.31Q76.38 85.13 76 84.88L76 84.88L76 84.88Q75.75 84.75 75.50 84.69Q75.25 84.63 75 84.63L75 84.63L75 84.63Q74.63 84.63 74.25 84.50Q73.88 84.38 73.63 84.13L73.63 84.13L73.63 84.25Q73 83.88 72.81 83.63Q72.63 83.38 72.63 83L72.63 83Q72.63 82.88 72.56 82.75Q72.50 82.63 72.50 82.38L72.50 82.38L72.50 82.50Q72.50 82.25 72.31 82.13Q72.13 82 71.50 81.88L71.50 81.88Q70.88 81.63 70.38 81.38Q69.88 81.13 69.50 80.63L69.50 80.63L69.50 80.63Q69 80.13 68.69 79.38Q68.38 78.63 68.38 77.75L68.38 77.75Q68.38 77.63 68.38 77.50Q68.38 77.38 68.38 77.25L68.38 77.25L68.38 77.38Q68.38 76.63 68.50 76.50Q68.63 76.38 68.88 76.75L68.88 76.75Q69.13 77 69.31 77.31Q69.50 77.63 69.50 78L69.50 78L69.50 78Q69.88 79.25 70.44 79.56Q71 79.88 73.13 80.25L73.13 80.25L74.38 80.38L75.25 80.50Q75.75 80.50 76.44 80.56Q77.13 80.63 77.88 80.63L77.88 80.63Q78.38 80.63 78.88 80.56Q79.38 80.50 79.88 80.50L79.88 80.50L79.75 80.50Q80.38 80.50 80.81 80.44Q81.25 80.38 81.25 80.38L81.25 80.38L81.88 80.38Q82.38 80.25 82.44 80.31Q82.50 80.38 82.63 80.50L82.63 80.50L82.88 80.63L82.38 80.88Q81.63 81.13 80.63 81.50Q79.63 81.88 78.50 82.13L78.50 82.13L78.25 82.25Q77.88 82.25 77.38 82.31Q76.88 82.38 76.38 82.38L76.38 82.38Q76 82.38 75.63 82.38Q75.25 82.38 74.88 82.25L74.88 82.25L75 82.25Q74 82.13 73.81 82.19Q73.63 82.25 73.88 82.63L73.88 82.63Q74.25 83 74.63 83.31Q75 83.63 75.50 83.75L75.50 83.75L75.50 83.75Q75.75 83.88 76.06 83.94Q76.38 84 76.75 84L76.75 84Q76.75 84 76.88 84Q77 84 77 84L77 84L77 84Q77 84 77 84Q77 84 77.13 84L77.13 84Q78 84 78.94 83.88Q79.88 83.75 80.75 83.50L80.75 83.50L80.63 83.50L82.13 82.75Q82.38 82.50 82.69 82.38Q83 82.25 83.38 82.13L83.38 82.13L83.38 82.13Q83.63 82.13 83.50 82.25Q83.38 82.38 82.75 83L82.75 83Q82.13 83.63 81.44 84.25Q80.75 84.88 80 85.38L80 85.38L79.88 85.50Q79.63 85.63 79.38 85.63Q79.13 85.63 78 85.50L78 85.50ZM55.25 85.25L55.25 85.13Q55 85.13 54.81 85Q54.63 84.88 54.50 84.88L54.50 84.88L54.50 84.88Q53.50 84.13 53 84Q52.50 83.88 51.50 84.13L51.50 84.13Q51.38 84.13 51.25 84.13Q51.13 84.13 51 83.88L51 83.88Q50.75 83.75 50.69 83.69Q50.63 83.63 50.75 83.50L50.75 83.50Q51 83.38 51.19 83.25Q51.38 83.13 51.63 83.13L51.63 83.13L51.63 83Q52 83 52.38 82.94Q52.75 82.88 53.25 82.88L53.25 82.88Q53.50 82.88 53.88 82.88Q54.25 82.88 54.63 83L54.63 83L54.50 83Q55 83.13 55.56 83.13Q56.13 83.13 56.63 83.13L56.63 83.13Q57.13 83.13 57.69 83.13Q58.25 83.13 58.75 83L58.75 83L58.75 83Q59.13 82.88 59.56 82.88Q60 82.88 60.13 82.88L60.13 82.88Q60.63 82.88 61 83Q61.38 83.13 61.75 83.38L61.75 83.38L61.75 83.38Q62 83.63 61.94 83.75Q61.88 83.88 61.38 83.88L61.38 83.88L60.50 84Q60.38 84 60.13 84Q59.88 84 59.63 84.13L59.63 84.13Q59.13 84.13 58.75 84.25Q58.38 84.38 58.13 84.63L58.13 84.63L58.13 84.63Q57.63 85 57.13 85.13Q56.63 85.25 56 85.25L56 85.25Q55.75 85.25 55.56 85.25Q55.38 85.25 55.25 85.25L55.25 85.25L55.25 85.25ZM21.63 52.25L21.63 52.25Q21.25 52 21 51.75Q20.75 51.50 20.63 51.13L20.63 51.13L20.63 51.13Q20.63 50.88 20.56 50.69Q20.50 50.50 20.50 50.38L20.50 50.38Q20.50 49.88 20.69 49.44Q20.88 49 21.13 48.63L21.13 48.63L21.13 48.63Q21.38 48.50 21.69 48.38Q22 48.25 22.25 48.25L22.25 48.25Q22.63 48.25 22.88 48.38Q23.13 48.50 23.38 48.63L23.38 48.63L23.38 48.63Q23.63 48.88 23.81 49.25Q24 49.63 24 50L24 50L24 50Q24 50.13 24 50.19Q24 50.25 24 50.38L24 50.38Q24 50.88 23.75 51.38Q23.50 51.88 23.13 52.13L23.13 52.13L23.13 52.13Q22.88 52.25 22.69 52.31Q22.50 52.38 22.25 52.38L22.25 52.38Q22.13 52.38 21.94 52.38Q21.75 52.38 21.50 52.25L21.50 52.25L21.63 52.25ZM107.75 43.38L107.75 43.38Q107.50 43.13 107.31 42.81Q107.13 42.50 107.13 42.13L107.13 42.13L107.13 42.13Q107.13 41.63 107.56 41.19Q108 40.75 108.63 40.75L108.63 40.75L108.63 40.75Q108.63 40.75 108.63 40.75Q108.63 40.75 108.63 40.75L108.63 40.75Q108.88 40.75 109.13 40.81Q109.38 40.88 109.63 41.13L109.63 41.13L109.63 41.13Q109.75 41.38 109.81 41.56Q109.88 41.75 109.88 42L109.88 42Q109.88 42.13 109.81 42.25Q109.75 42.38 109.75 42.38L109.75 42.38L109.75 42.38Q109.63 42.75 109.44 43Q109.25 43.25 109 43.38L109 43.38L109 43.38Q108.88 43.50 108.69 43.50Q108.50 43.50 108.38 43.50L108.38 43.50Q108.25 43.50 108.06 43.50Q107.88 43.50 107.75 43.38L107.75 43.38L107.75 43.38ZM103.75 126.50L103.88 126.50Q102.88 125.88 102.06 125.13Q101.25 124.38 100.63 123.50L100.63 123.50L100.63 123.38Q100.13 122.75 99.75 122.31Q99.38 121.88 99.38 121.88L99.38 121.88Q99.13 122.38 99 122.94Q98.88 123.50 98.88 124.13L98.88 124.13L98.88 124.25Q98.63 125.25 98.50 125.69Q98.38 126.13 98 126.38L98 126.38Q97.75 126.50 97.56 126.56Q97.38 126.63 97.13 126.63L97.13 126.63Q97.13 126.63 97.06 126.63Q97 126.63 97 126.63L97 126.63L97 126.63Q96.63 126.63 96.50 126.56Q96.38 126.50 96.25 126.38L96.25 126.38Q96.13 126.13 96.06 126.06Q96 126 96 125.63L96 125.63Q96 125.25 97.06 121.06Q98.13 116.88 98.38 116.63L98.38 116.63Q98.50 116.25 98.81 116.06Q99.13 115.88 99.50 115.88L99.50 115.88L99.50 115.88Q99.75 115.88 99.94 115.94Q100.13 116 100.25 116L100.25 116L100.25 116Q100.38 116.13 100.50 116.06Q100.63 116 101 115.75L101 115.75Q101.13 115.63 101.38 115.50Q101.63 115.38 101.88 115.25L101.88 115.25L101.88 115.25Q102 115.25 102.25 115.19Q102.50 115.13 102.63 115.13L102.63 115.13Q103.38 115.13 103.88 115.50Q104.38 115.88 104.63 116.38L104.63 116.38L104.63 116.38Q104.75 116.75 104.81 117.06Q104.88 117.38 104.88 117.75L104.88 117.75Q104.88 118 104.81 118.38Q104.75 118.75 104.63 119L104.63 119L104.63 119Q104.50 119.63 104.13 120.13Q103.75 120.63 103.25 121L103.25 121L103.25 121Q103 121.13 102.81 121.31Q102.63 121.50 102.63 121.50L102.63 121.50Q103.13 122.13 103.56 122.69Q104 123.25 104.50 123.75L104.50 123.75L104.50 123.75Q105 124.25 105.25 124.38Q105.50 124.50 105.75 124.50L105.75 124.50Q106.38 124.50 106.56 125.19Q106.75 125.88 106.25 126.25L106.25 126.25Q106 126.63 105.69 126.75Q105.38 126.88 105 126.88L105 126.88Q105 126.88 105 126.88Q105 126.88 104.88 126.88L104.88 126.88L104.88 126.88Q104.88 126.88 104.88 126.88Q104.88 126.88 104.88 126.88L104.88 126.88Q104.63 126.88 104.31 126.81Q104 126.75 103.75 126.50L103.75 126.50L103.75 126.50ZM100.50 120.38L100.50 120.38Q101 120 101.44 119.56Q101.88 119.13 102.25 118.63L102.25 118.63L102.25 118.63Q102.38 118.50 102.38 118.38Q102.38 118.25 102.38 118.13L102.38 118.13Q102.38 118 102.38 117.88Q102.38 117.75 102.25 117.63L102.25 117.63L102.25 117.63Q102.13 117.63 102 117.56Q101.88 117.50 101.63 117.50L101.63 117.50Q100.88 117.63 100.31 118.38Q99.75 119.13 99.50 120.50L99.50 120.50L99.50 120.88L99.75 120.75L100.50 120.38ZM87.38 126.38L87.50 126.50Q87.25 126.38 87.06 126.13Q86.88 125.88 86.75 125.63L86.75 125.63L86.75 125.63Q86.75 125.50 87.56 122.69Q88.38 119.88 88.50 119.38L88.50 119.38Q88.63 119 88.94 118.63Q89.25 118.25 89.63 118L89.63 118L89.63 118Q89.88 118 90 117.81Q90.13 117.63 90.25 117.50L90.25 117.50L90.25 117.50Q90.50 117.13 90.88 116.81Q91.25 116.50 91.63 116.50L91.63 116.50L91.63 116.50Q92.13 116.38 92.63 116.31Q93.13 116.25 93.63 116.25L93.63 116.25Q93.88 116.25 94.06 116.31Q94.25 116.38 94.50 116.38L94.50 116.38L94.38 116.38Q96.13 116.38 96.63 116.44Q97.13 116.50 97.25 116.75L97.25 116.75Q97.25 117.13 97.06 117.38Q96.88 117.63 96.63 117.88L96.63 117.88L96.63 117.88Q95.88 118.25 95 118.38Q94.13 118.50 93.13 118.50L93.13 118.50Q93 118.50 92.81 118.50Q92.63 118.50 92.50 118.50L92.50 118.50L92.50 118.50L91.63 118.50Q91.38 118.50 91.25 118.69Q91.13 118.88 91 119L91 119L91 119Q91 119.25 90.94 119.38Q90.88 119.50 90.88 119.75L90.88 119.75L90.88 119.75Q90.75 119.75 90.69 119.88Q90.63 120 90.63 120.25L90.63 120.25L90.63 120.25Q90.75 120.25 90.94 120.25Q91.13 120.25 91.25 120.25L91.25 120.25Q91.38 120.25 91.56 120.25Q91.75 120.25 91.88 120.25L91.88 120.25L91.88 120.25Q93.13 120.13 93.69 120.13Q94.25 120.13 94.38 120.25L94.38 120.25Q94.38 120.38 94.44 120.50Q94.50 120.63 94.50 120.75L94.50 120.75Q94.50 120.88 94.44 121Q94.38 121.13 94.38 121.25L94.38 121.25L94.38 121.25Q94.13 121.88 93.25 122.13Q92.38 122.38 90.88 122.38L90.88 122.38Q90.38 122.38 90.25 122.38Q90.13 122.38 90 122.63L90 122.63Q89.88 122.75 89.75 123.13Q89.63 123.50 89.75 123.50L89.75 123.50Q90 123.50 90.25 123.50Q90.50 123.50 90.75 123.38L90.75 123.38L90.75 123.38Q91 123.38 91.44 123.38Q91.88 123.38 92.25 123.38L92.25 123.38Q92.38 123.38 92.50 123.38Q92.63 123.38 92.88 123.38L92.88 123.38L92.75 123.38Q93.63 123.38 94.06 123.50Q94.50 123.63 94.63 123.75L94.63 123.75Q94.63 123.88 94.63 124Q94.63 124.13 94.63 124.38L94.63 124.38Q94.63 124.50 94.63 124.69Q94.63 124.88 94.50 125L94.50 125L94.50 125Q94.38 125.38 94 125.50Q93.63 125.63 92.75 125.63L92.75 125.63Q91.75 125.63 90.75 125.81Q89.75 126 88.75 126.25L88.75 126.25L88.88 126.25Q88.38 126.25 88.06 126.38Q87.75 126.50 87.75 126.50L87.75 126.50L87.38 126.38ZM82.75 126.50L82.75 126.25Q81.50 126.13 80.38 125.50Q79.25 124.88 78.50 124L78.50 124L78.50 124Q78.38 123.88 78.31 123.63Q78.25 123.38 78.25 123.13L78.25 123.13Q78.25 122.88 78.31 122.69Q78.38 122.50 78.38 122.38L78.38 122.38L78.38 122.38Q78.63 122.13 78.81 122Q79 121.88 79.38 121.88L79.38 121.88Q79.75 121.88 79.94 122Q80.13 122.13 80.25 122.50L80.25 122.50Q80.75 123.25 81.44 123.75Q82.13 124.25 82.88 124.50L82.88 124.50L82.88 124.50Q83.13 124.50 83.44 124.44Q83.75 124.38 83.75 124.13L83.75 124.13Q83.75 124 83.56 123.69Q83.38 123.38 82.25 121.88L82.25 121.88Q81.38 120.88 81.06 120.25Q80.75 119.63 80.75 119L80.75 119Q80.75 118.88 80.75 118.81Q80.75 118.75 80.75 118.75L80.75 118.75Q80.75 118.50 80.81 118.31Q80.88 118.13 81 118L81 118L81 118Q81.25 117.50 81.63 117.13Q82 116.75 82.50 116.50L82.50 116.50L82.50 116.50Q82.88 116.25 83.25 116.19Q83.63 116.13 84.13 116.13L84.13 116.13Q84.50 116.13 84.94 116.25Q85.38 116.38 85.75 116.50L85.75 116.50L85.75 116.50Q86 116.63 86.25 116.81Q86.50 117 86.63 117.13L86.63 117.13L86.63 117.13Q86.88 117.38 86.94 117.50Q87 117.63 87 117.88L87 117.88Q87 118.38 86.69 118.69Q86.38 119 86 118.88L86 118.88Q85.75 118.75 85.63 118.69Q85.50 118.63 85.38 118.50L85.38 118.50L85.38 118.50Q85.13 118.38 84.81 118.25Q84.50 118.13 84.25 118.13L84.25 118.13Q84 118.13 83.75 118.19Q83.50 118.25 83.25 118.50L83.25 118.50L83.25 118.50Q83.13 118.50 83 118.63Q82.88 118.75 82.88 119L82.88 119Q82.88 119 82.94 119.06Q83 119.13 83 119.25L83 119.25L83 119.25Q83.38 119.75 83.69 120.25Q84 120.75 84.38 121.25L84.38 121.25L84.38 121.25Q84.88 122 85.31 122.63Q85.75 123.25 85.88 123.50L85.88 123.50Q86 123.63 86.06 123.88Q86.13 124.13 86.13 124.50L86.13 124.50Q86.13 124.75 86.06 125Q86 125.25 85.88 125.50L85.88 125.50L85.88 125.50Q85.50 126.25 84.75 126.50Q84 126.75 82.75 126.50L82.75 126.50ZM29.88 126.13L29.88 126.13Q29.38 125.75 29.06 125.19Q28.75 124.63 28.75 123.88L28.75 123.88Q28.75 123.75 28.75 123.69Q28.75 123.63 28.75 123.50L28.75 123.50L28.75 123.50Q29 121.88 29.63 120.50Q30.25 119.13 31.13 118L31.13 118L31.13 118Q32.50 116.38 34.25 115.88Q36 115.38 37.25 116.25L37.25 116.25Q37.50 116.38 37.50 116.44Q37.50 116.50 37.50 116.75L37.50 116.75Q37.50 117.25 37.13 117.69Q36.75 118.13 36.25 118.13L36.25 118.13L36.25 118.13Q36.13 118.13 35.94 118.06Q35.75 118 35.63 118L35.63 118L35.63 118Q35.50 117.88 35.31 117.88Q35.13 117.88 34.88 117.88L34.88 117.88Q34.50 117.88 34.13 118Q33.75 118.13 33.50 118.38L33.50 118.38L33.50 118.38Q32.88 119 32.38 119.75Q31.88 120.50 31.63 121.50L31.63 121.50L31.63 121.50Q31.38 122.25 31.31 122.56Q31.25 122.88 31.50 123.25L31.50 123.25Q31.50 123.50 31.56 123.50Q31.63 123.50 32 123.50L32 123.50Q32.63 123.25 33.19 123.06Q33.75 122.88 34.38 122.75L34.38 122.75L34.25 122.75Q35.63 122.25 36.19 122.13Q36.75 122 37 122.25L37 122.25Q37 122.38 37.06 122.50Q37.13 122.63 37.13 122.75L37.13 122.75Q37.13 122.88 37.06 123Q37 123.13 37 123.25L37 123.25L37 123.25Q36.63 124 35.19 124.75Q33.75 125.50 31.88 126L31.88 126Q30.88 126.25 30.50 126.31Q30.13 126.38 29.88 126.13L29.88 126.13Z"/></svg>