<svg xmlns="http://www.w3.org/2000/svg" xmlns:xlink="http://www.w3.org/1999/xlink" width="128" height="128"><path fill="#000000" d="M101.75 41.75L101.88 41.75L101.88 86L64.13 108.38L63.88 108.63L63.88 125.25L64.13 125.50L117.13 94.88L117.13 33.13L116.63 33L101.63 41.38L101.75 41.75ZM26.38 86.38L26.38 86.38L64.13 108.38L64.13 125.50L10.75 94.75L10.75 33.25L11.38 33.13L26.25 41.88L26.38 42.38L26.38 86.38ZM26.38 42.38L26.38 42.38L10.75 33.25L64 2.50L117.25 33.13L101.88 41.75L64 20.13L26.38 42.38ZM30 84L30 84L30 65.88L30.50 66.13L45.13 74.63L45.13 92.25L30 84ZM83.25 92.63L83.25 92.63L83.25 75L83.38 75L98.13 66.38L98.13 83.88L83.25 92.63ZM64.88 103.50L64.88 103.50L64.50 103L64.50 86L65 85.88L79.63 77.25L79.63 94.75L64.88 103.50ZM49.75 95.25L49.75 95.25L49.75 77.13L50.25 77.38L64.75 85.88L64.88 103.50L49.75 95.25ZM78.38 31.88L63.25 23L48.50 31.75L63.50 40.50L78.38 31.88ZM30 60.38L30 60.38L30 42.50L30.50 42.50L45 51L45.13 51.38L45.13 68.63L30 60.38ZM44.88 33.75L44.88 33.75L30 42.50L45.13 51.38L59.88 42.63L44.88 33.75ZM83.25 69L83.25 69L83.25 51.75L83.38 51.25L97.63 43L98.13 43.13L98.13 60.25L83.25 69ZM83 34.25L83 34.25L68.25 43L83.25 51.75L98.13 43.13L83 34.25ZM64.88 79.88L64.88 79.88L64.50 79.38L64.50 62.75L64.88 62.63L65 62.13L79.25 53.88L79.63 54L79.63 71.13L64.88 79.88ZM49.75 71.63L49.75 71.63L49.75 53.88L50.25 53.88L64.75 62.25L64.88 62.63L64.88 79.88L49.75 71.63ZM79.63 54L64.63 45L49.75 53.88L64.88 62.63L79.63 54Z"/></svg>