<svg xmlns="http://www.w3.org/2000/svg" xmlns:xlink="http://www.w3.org/1999/xlink" width="128" height="128"><path fill="#ffffff" d="M46.38 56.50L46.25 56.50Q43.13 56.50 43.13 58.88L43.13 58.88Q43.13 59 43.13 59.06Q43.13 59.13 43.13 59.25L43.13 59.25Q43.13 59.63 43.31 60.06Q43.50 60.50 43.88 60.75L43.88 60.75Q44.50 61.13 45.25 61.38Q46 61.63 46.75 61.75L46.75 61.75Q47.63 61.88 48.44 62.19Q49.25 62.50 50 63L50 63Q50.38 63.50 50.63 64.06Q50.88 64.63 50.88 65.25L50.88 65.25Q50.88 65.38 50.88 65.44Q50.88 65.50 50.88 65.63L50.88 65.63Q50.88 70 46.25 70L46.25 70Q45.25 70 44.25 69.94Q43.25 69.88 42.25 69.63L42.25 69.63L41.63 69.63L41.75 68.25Q42.75 68.38 43.88 68.50Q45 68.63 46.13 68.63L46.13 68.63Q49.25 68.63 49.25 65.75L49.25 65.75Q49.25 65.63 49.25 65.63Q49.25 65.63 49.25 65.50L49.25 65.50Q49.25 65.13 49.06 64.69Q48.88 64.25 48.63 64L48.63 64Q48 63.63 47.38 63.44Q46.75 63.25 46 63.13L46 63.13Q45 63 44.13 62.69Q43.25 62.38 42.50 61.75L42.50 61.75Q42 61.38 41.75 60.75Q41.50 60.13 41.50 59.38L41.50 59.38Q41.50 59.25 41.50 59.19Q41.50 59.13 41.50 59L41.50 59Q41.50 55.13 46.25 55.13L46.25 55.13Q47.13 55.13 48.13 55.19Q49.13 55.25 50 55.50L50 55.50L50.63 55.50L50.38 56.88Q49.50 56.75 48.50 56.69Q47.50 56.63 46.38 56.50L46.38 56.50ZM60.50 68.63L60.50 68.63L61.13 68.50L61.13 69.75Q60.25 69.88 59.19 70Q58.13 70.13 57.13 70.13L57.13 70.13Q57 70.13 56.88 70.13Q56.75 70.13 56.63 70.13L56.63 70.13Q55.88 70.13 55.13 69.75Q54.38 69.38 53.88 68.75L53.88 68.75Q53.38 68 53.13 67.13Q52.88 66.25 52.88 65.25L52.88 65.25Q52.88 65.13 52.88 65Q52.88 64.88 52.88 64.75L52.88 64.75Q52.88 59.25 57.25 59.25L57.25 59.25Q57.38 59.25 57.44 59.25Q57.50 59.25 57.63 59.25L57.63 59.25Q58.38 59.25 59.13 59.56Q59.88 59.88 60.50 60.38L60.50 60.38Q61 61.13 61.25 61.94Q61.50 62.75 61.50 63.63L61.50 63.63Q61.50 63.75 61.50 63.88Q61.50 64 61.50 64.13L61.50 64.13L61.38 65.38L54.50 65.38Q54.50 65.38 54.50 65.44Q54.50 65.50 54.50 65.63L54.50 65.63Q54.50 66.25 54.69 66.81Q54.88 67.38 55.13 67.88L55.13 67.88Q55.50 68.25 56 68.50Q56.50 68.75 57.13 68.75L57.13 68.75Q57.13 68.75 57.19 68.75Q57.25 68.75 57.38 68.75L57.38 68.75Q58.88 68.75 60.50 68.63L60.50 68.63ZM54.50 64L60 64Q60 63.88 60 63.81Q60 63.75 60 63.63L60 63.63Q60 63 59.81 62.38Q59.63 61.75 59.38 61.25L59.38 61.25Q59 60.88 58.56 60.69Q58.13 60.50 57.63 60.50L57.63 60.50Q57.50 60.50 57.44 60.50Q57.38 60.50 57.38 60.50L57.38 60.50Q57.38 60.50 57.31 60.50Q57.25 60.50 57.25 60.50L57.25 60.50Q56.63 60.50 56.13 60.69Q55.63 60.88 55.25 61.25L55.25 61.25Q54.88 61.88 54.69 62.50Q54.50 63.13 54.50 63.75L54.50 63.75Q54.50 63.88 54.50 63.94Q54.50 64 54.50 64L54.50 64ZM67.50 70.13L67.50 70.13Q67.38 70.13 67.31 70.13Q67.25 70.13 67.13 70.13L67.13 70.13Q66.38 70.13 65.69 69.81Q65 69.50 64.50 68.88L64.50 68.88Q64 68.13 63.75 67.19Q63.50 66.25 63.50 65.25L63.50 65.25Q63.50 65.13 63.50 64.94Q63.50 64.75 63.63 64.63L63.63 64.63Q63.50 64.50 63.50 64.38Q63.50 64.25 63.50 64.13L63.50 64.13Q63.50 63 63.81 62.13Q64.13 61.25 64.63 60.38L64.63 60.38Q65.75 59.13 68.50 59.13L68.50 59.13L72 59.38L72 74.50L70.50 74.50L70.50 69.38Q69.75 69.75 69 69.94Q68.25 70.13 67.50 70.13L67.50 70.13ZM68.50 60.50L68.50 60.50Q68.38 60.50 68.31 60.50Q68.25 60.50 68.13 60.50L68.13 60.50Q67.38 60.50 66.81 60.81Q66.25 61.13 65.75 61.50L65.75 61.50Q65.50 62.13 65.31 62.81Q65.13 63.50 65.13 64.25L65.13 64.25Q65.13 64.38 65.13 64.50Q65.13 64.63 65.13 64.75L65.13 64.75Q65.13 64.75 65.13 64.88Q65.13 65 65.13 65.13L65.13 65.13Q65.13 65.88 65.25 66.56Q65.38 67.25 65.75 67.75L65.75 67.75Q66 68.25 66.44 68.50Q66.88 68.75 67.38 68.75L67.38 68.75Q67.50 68.75 67.56 68.75Q67.63 68.75 67.63 68.75L67.63 68.75Q68.25 68.75 68.88 68.63Q69.50 68.50 70.13 68.25L70.13 68.25L70.38 68.13L70.38 60.63Q69.13 60.50 68.50 60.50L68.50 60.50ZM81.63 67.88L81.63 59.38L83.13 59.38L83.13 69.88L81.63 69.88L81.63 69.13Q80.88 69.63 80.13 69.88Q79.38 70.13 78.50 70.13L78.50 70.13Q76.38 70.13 75.63 69L75.63 69Q75.25 68.25 75.06 67.38Q74.88 66.50 74.88 65.63L74.88 65.63Q74.88 65.38 74.88 65.19Q74.88 65 74.88 64.88L74.88 64.88L74.88 59.38L76.50 59.38L76.50 64.88Q76.50 65 76.50 65.13Q76.50 65.25 76.50 65.38L76.50 65.38Q76.50 66.13 76.63 66.75Q76.75 67.38 76.88 68L76.88 68Q77.25 68.75 78.75 68.75L78.75 68.75Q79.13 68.75 79.50 68.69Q79.88 68.63 80.13 68.50L80.13 68.50Q80.50 68.38 80.75 68.31Q81 68.25 81.25 68.13L81.25 68.13L81.63 67.88ZM93.38 68.63L93.38 68.63L94 68.50L94 69.75Q93 69.88 92 70Q91 70.13 89.88 70.13L89.88 70.13Q89.75 70.13 89.69 70.13Q89.63 70.13 89.50 70.13L89.50 70.13Q88.63 70.13 87.88 69.75Q87.13 69.38 86.63 68.75L86.63 68.75Q86.13 68 85.88 67.13Q85.63 66.25 85.63 65.25L85.63 65.25Q85.63 65.13 85.63 65Q85.63 64.88 85.63 64.75L85.63 64.75Q85.63 59.25 90.13 59.25L90.13 59.25Q90.13 59.25 90.19 59.25Q90.25 59.25 90.38 59.25L90.38 59.25Q91.25 59.25 92 59.56Q92.75 59.88 93.25 60.38L93.25 60.38Q93.75 61.13 94 61.94Q94.25 62.75 94.25 63.63L94.25 63.63Q94.25 63.75 94.25 63.88Q94.25 64 94.25 64.13L94.25 64.13L94.25 65.38L87.38 65.38Q87.38 65.38 87.38 65.44Q87.38 65.50 87.38 65.50L87.38 65.50Q87.38 66.25 87.50 66.81Q87.63 67.38 88 67.88L88 67.88Q88.38 68.25 88.88 68.50Q89.38 68.75 89.88 68.75L89.88 68.75Q90 68.75 90.06 68.75Q90.13 68.75 90.25 68.75L90.25 68.75Q91.75 68.75 93.38 68.63L93.38 68.63ZM87.25 64L92.75 64Q92.75 63.88 92.75 63.81Q92.75 63.75 92.75 63.63L92.75 63.63Q92.75 63 92.63 62.38Q92.50 61.75 92.13 61.25L92.13 61.25Q91.75 60.88 91.31 60.69Q90.88 60.50 90.38 60.50L90.38 60.50Q90.25 60.50 90.19 60.50Q90.13 60.50 90.13 60.50L90.13 60.50Q90.13 60.50 90.06 60.50Q90 60.50 90 60.50L90 60.50Q89.38 60.50 88.88 60.69Q88.38 60.88 88 61.25L88 61.25Q87.75 61.88 87.50 62.44Q87.25 63 87.25 63.75L87.25 63.75Q87.25 63.75 87.25 63.88Q87.25 64 87.25 64L87.25 64ZM98.50 69.88L96.88 69.88L96.88 54.75L98.50 54.75L98.50 69.88ZM103.25 57L101.63 57L101.63 55.25L103.25 55.25L103.25 57ZM103.25 69.88L101.63 69.88L101.63 59.38L103.25 59.38L103.25 69.88ZM111.50 60.75L105.63 60.75L105.63 59.38L113.38 59.38L113.38 60.75L107.50 68.50L113.38 68.50L113.38 69.88L105.63 69.88L105.63 68.50L111.50 60.75ZM122.88 68.63L122.88 68.63L123.50 68.50L123.50 69.75Q122.63 69.88 121.56 70Q120.50 70.13 119.38 70.13L119.38 70.13Q119.25 70.13 119.19 70.13Q119.13 70.13 119 70.13L119 70.13Q118.13 70.13 117.44 69.75Q116.75 69.38 116.13 68.75L116.13 68.75Q115.75 68 115.50 67.13Q115.25 66.25 115.25 65.25L115.25 65.25Q115.25 65.13 115.25 65Q115.25 64.88 115.25 64.75L115.25 64.75Q115.25 59.25 119.63 59.25L119.63 59.25Q119.75 59.25 119.81 59.25Q119.88 59.25 119.88 59.25L119.88 59.25Q120.75 59.25 121.50 59.56Q122.25 59.88 122.75 60.38L122.75 60.38Q123.25 61.13 123.56 61.94Q123.88 62.75 123.88 63.63L123.88 63.63Q123.88 63.75 123.88 63.88Q123.88 64 123.88 64.13L123.88 64.13L123.75 65.38L116.88 65.38Q116.88 65.38 116.88 65.44Q116.88 65.50 116.88 65.63L116.88 65.63Q116.88 66.25 117 66.81Q117.13 67.38 117.50 67.88L117.50 67.88Q117.88 68.25 118.31 68.50Q118.75 68.75 119.38 68.75L119.38 68.75Q119.50 68.75 119.56 68.75Q119.63 68.75 119.63 68.75L119.63 68.75Q121.25 68.75 122.88 68.63L122.88 68.63ZM116.88 64L122.25 64Q122.38 63.88 122.38 63.81Q122.38 63.75 122.38 63.63L122.38 63.63Q122.38 63 122.19 62.38Q122 61.75 121.63 61.25L121.63 61.25Q121.38 60.88 120.88 60.69Q120.38 60.50 119.88 60.50L119.88 60.50Q119.88 60.50 119.81 60.50Q119.75 60.50 119.63 60.50L119.63 60.50Q119.63 60.50 119.56 60.50Q119.50 60.50 119.50 60.50L119.50 60.50Q118.88 60.50 118.44 60.69Q118 60.88 117.63 61.25L117.63 61.25Q117.25 61.75 117.06 62.38Q116.88 63 116.88 63.75L116.88 63.75Q116.88 63.75 116.88 63.81Q116.88 63.88 116.88 64L116.88 64ZM33 56.88L33 56.88L33 71L21 78.13L20.88 78.25L20.88 83.50L21 83.63L37.88 73.88L37.88 54.13L37.75 54.13L33 56.75L33 56.88ZM8.88 71.13L9 71.13L21 78.13L21 83.63L4 73.88L4 54.25L4.13 54.25L8.88 57L8.88 57.13L8.88 71.13ZM9 57.13L9 57.13L4 54.25L21 44.38L38 54.13L33 56.88L21 50L9 57.13ZM14.88 73L10.13 70.38L10.13 64.63L10.25 64.75L14.88 67.38L14.88 73ZM27 73.13L27.13 73.13L27.13 67.50L31.75 64.75L31.75 70.38L27 73.13ZM21.25 76.63L21.25 76.63L21.13 76.50L21.13 71L21.25 71L25.88 68.25L25.88 73.75L21.25 76.63ZM21.13 76.63L16.38 74L16.38 68.25L16.50 68.25L21.13 71L21.13 76.63ZM20.75 50.88L20.75 50.88L16 53.75L20.75 56.50L25.50 53.75L20.75 50.88ZM10 62.88L10.13 62.88L10.13 57.25L10.25 57.25L14.88 59.88L14.88 65.50L10 62.88ZM14.88 54.38L14.88 54.38L10.13 57.25L14.88 60L19.63 57.25L14.88 54.38ZM27 65.63L27.13 65.63L27.13 60L31.63 57.38L31.75 57.38L31.75 62.75L27 65.63ZM31.75 57.38L27 54.50L22.25 57.38L27.13 60.13L31.75 57.38ZM25.88 66.25L21.25 69.13L21.13 69L21.13 63.63L21.25 63.63L21.25 63.50L25.75 60.75L25.88 60.75L25.88 66.25ZM16.38 66.50L16.38 66.50L16.38 60.75L16.50 60.75L21.13 63.50L21.13 69.13L16.38 66.50ZM25.88 60.75L21.13 58L16.38 60.75L21.25 63.63L25.88 60.75Z"/></svg>