<svg xmlns="http://www.w3.org/2000/svg" xmlns:xlink="http://www.w3.org/1999/xlink" width="128" height="128"><path fill="#ffffff" d="M126.13 72.25L126.13 72.25L125.75 71.75L125.63 71.63L125.63 71.25L125.50 70.75L125.25 70.50L124.88 70.25L124.50 69.88L124.25 69.75L123.75 69.63L123.75 69.63L123.25 69.25L122.75 69L122.25 68.75L121.63 68.50L121.50 68.50L121 68L120.38 67.63L119.75 67.25L119.25 67.13L119.13 67.13L118.50 66.75L117.75 66.38L117.25 66.25L116.75 66L116.25 65.75L115.25 65.63L114.75 65.63L114.25 65.75L113.88 65.25L113.25 64.75L112.25 64.63L111.38 64.63L110.38 64.75L110.13 64.88L109.38 64.63L108.63 64.38L107.75 64.25L107 64.25L106.25 64.38L106.13 64.38L104.25 63.75L103.38 63.75L102.75 63.75L102 62.88L101.13 62.25L100.25 61.88L99.50 61.75L98.75 61.75L98.25 61.75L97.75 61.38L96.75 61L96 60.88L95.38 61L94.75 60.75L93.25 60.50L93 60.50L92 60.13L90.75 59.75L89.75 59.75L89.50 59.75L88.38 59L87.25 58.75L86.38 58.75L84.63 58.25L83.50 58.25L83 58.25L82.38 57.63L81.63 57.13L80.75 57L79.75 57.13L79.25 57.25L78.38 57.25L77 57.25L77 57.13L75.25 56.75L73.75 56.63L72.50 56.50L72 56.50L70 56.25L69.88 56.25L68.75 55.88L67.75 55.63L66.75 55.50L65.88 55.50L65 54.75L64.13 54.63L63.25 54.50L63 54.50L61.88 53.75L61 53.50L60.25 53.38L59.50 53L58.38 52.75L57.38 52.75L56.25 52.25L55.25 52L54.75 52L53.75 51.38L52.75 51.13L51.75 51L51.50 51L50 50.25L49 50L47.88 49.88L47.75 49.88L47.13 49.38L46.50 49.13L45.88 49L45.25 48.88L44.63 49L43.88 48.50L43.25 48.25L42.25 48L41.38 48L40.50 48.25L40.38 48.25L39.38 47.88L38.38 47.63L37.50 47.63L36.63 47L35.88 46.75L35.13 46.63L34.38 46.75L33.75 47L33.13 46.38L32.38 46L31.63 45.88L31 46L30.38 46.25L30 46L29.75 45.75L29.38 45.75L29 45.63L28.50 45.63L28.25 45.75L27.75 46L27.63 46.13L26.75 46L26 46L25.25 46.25L24.75 46.75L24.25 47.25L24 48L23.63 49.63L23.50 50.38L23.38 52L23.75 53.25L24 54L24 54.13Q23.25 54 23 53.88Q22.75 53.75 22.38 53.63L22.38 53.63L22.25 53L22.25 52.38L22.38 49.88L22.38 49.25L22.25 48.13L22.25 47.63L21.63 46.13L21 45.25L20.25 44.63L20.25 44.50L20.25 43.75L20.63 42.88L20.25 42.75L19.75 43.25L19.25 44L19 44.75L18.88 45.38L18.75 46L18.75 46.75L18.88 47.38L19 47.75L18.88 47.50L18.63 47.13L18.25 46.25L18 45.75L17.88 45.13L17.75 43.88L16.88 44.75L16.63 45.25L16.38 46L16.38 46.63L16.50 47.25L16.75 47.75L17 48.38L16.88 48.38L16.25 48.25L16.25 48.75L16.63 48.88L18 49.88L18.25 50.25L20.50 52.75L20.63 52.75Q16.38 51.13 11.75 49.06Q7.13 47 1.75 44.38L1.75 44.38Q2.88 46.25 6.06 48.06Q9.25 49.88 11 51.25L11 51.25Q12.75 52.13 15 53.13Q17.25 54.13 19.25 54.88L19.25 54.88L17 55.38L15.63 55.75L14.25 56.25L13.50 56.50L13 57L12.38 57.38L11.88 57.75L11.38 58.25L11 58.75L10.75 59.38L10.50 60.13L10.88 60.25L11.75 59.38L12.75 58.75L13.63 58.25L14 58.25L14.25 58.13L15.75 57.75L16.25 57.63L19.25 55.75L19.75 55.63L20 55.50L19.88 55.25Q20 55.38 20.19 55.38Q20.38 55.38 20.38 55.50L20.38 55.50L20.25 55.63L18 56.75L16.75 57.63L15.50 58.50L14.75 59L14.25 59.63L14 60.25L13.75 60.75L13.75 61.50L13.75 62.25L14.25 63.25L14.75 62.13L15.25 61.50L15.63 61L16 60.63L16.38 60.25L17.38 59.75L17.38 59.75L17.25 60.63L17.25 61.50L17.38 62.50L17.75 63.63L18.13 63.63L18.25 63.13L18.63 61.63L18.75 61.13L19.38 59.75L20.38 57.88L21.63 56Q21.88 56.13 22.13 56.19Q22.38 56.25 22.63 56.38L22.63 56.38L21.75 58.13L21.38 58.75L21 59.25L20.63 60.63L20.50 61.25L20.50 62L20.63 62.63L20.88 63.25L21.38 63.75L22.25 64.25L22.88 64.50L23.13 65L23.50 65.50L23.88 65.88L24.25 66.25L24.75 66.38L25.13 66.75L26 67L26.25 67L26.25 66.88L26.63 67.38L27.25 67.75L28 68L28.75 68L29.50 67.75L29.63 68L30.25 68.63L30.75 69L31.38 69.25L32.25 69.38L32.75 69.38L33.38 69.75L34.13 70.13L34.88 70.25L35.50 70.75L36.25 71.25L37.25 71.38L38.38 71.50L38.50 71.63L39.25 72.25L40 72.63L40.75 72.88L41.63 73L42.38 72.75L43.38 73.25L44 73.38L44.63 73.38L45.25 73.25L45.50 73.50L46.50 73.75L47.63 73.88L48.88 73.75L49.25 74L50.13 74.25L51.13 74.38L52.50 74.25L53.38 74.63L54.38 74.75L55.50 74.63L55.88 74.88L56.88 75.25L58 75.38L59.13 75.25L59.13 75.25L59.75 75.25L60.75 75.25L61.75 75.13L62.38 75.25L63.25 75.50L64 75.63L65 75.63L65.25 75.75L66.25 76L67.25 76.25L68.25 76.25L69.38 76.25L69.38 76.13L70 76.25L71.75 76.50L71.75 76.38L72.38 76.63L73.63 76.75L74.88 76.88L76.25 76.75L77 77L77.88 77.25L78.75 77.25L79.63 77.25L79.75 77.38L80.50 77.75L81.25 78L82.13 78L82.88 77.75L83.63 77.25L84.50 77.75L85.63 78L86.75 78L86.75 77.75L87.13 77.75L88.25 77.88L89.25 77.75L90.38 77.38L91.38 77.50L92.63 77.50L93.50 77.25L94.13 77.38L94.75 77.38L96.25 77.25L96.75 77.38L97.38 77.50L98 77.38L98.50 77.13L98.63 77.13L99.38 77.50L100.25 77.75L101 77.75L101.88 77.50L102.75 77L103.63 76.38L104.25 76.38L105.25 76.25L106 76.25L106.50 76.38L108.13 76.63L108.88 76.50L109.75 76.25L109.88 76.38L110.75 76.63L111.63 76.75L112.38 76.75L113.13 76.63L113.63 76.25L113.88 76.25L114.38 76.50L114.88 76.63L115.38 76.63L115.88 76.50L116.25 76.25L117 76.38L117.75 76.25L118.50 76L119.25 76L119.75 75.88L120.38 75.63L120.88 75.25L121.50 75.25L122.13 75.13L122.63 74.88L123.25 74.63L123.88 74.63L124.25 74.50L124.25 74.38L124.63 74.25L124.88 74.13L125.13 73.75L125.25 73.50L125.38 73.50L125.75 73.13L125.88 72.75L126 72.75L126.13 72.25ZM17.25 56.50L17.25 56.50L16 57.25L15.50 57.38L14.75 57.50L13.38 58L12.38 58.50L11.50 59.13L11.38 59.25L11.75 58.50L12.25 58L13.25 57.25L14.38 56.63L15.75 56.25L18.25 55.63L17.25 56.50ZM122.25 73.88L122.25 73.88L123.13 74.38L123.50 74.63L123.63 74.75L123.50 75L123.25 75L122.88 74.75L122.75 74.75L122.38 74.63L121.38 74.25L121.13 74.13L120.38 73.75L120 73.25L119.75 73.25L119.13 72.50L120.25 72.63L120.63 72.88L121 73.25L121.88 73.75L122.25 73.88ZM120.50 70.38L120.50 70.38L121 70.25L121.75 70L122.75 69.88L123.25 69.88L123.75 70L124.25 70.25L123.63 70.25L123.13 70.25L123 70.25L122.75 70.38L122 70.63L121 71.13L120.75 71.25L120.63 71.25L120.50 71.25L119.25 71.13L119.75 70.63L120 70.38L120.38 70.25L120.50 70.38ZM125.75 72.38L125.63 72.63L125.13 72.50L123.75 72.25L124.75 72L125.25 72L125.50 72.13L125.75 72.38ZM125.25 71.38L125.25 71.50L124.75 71.50L124.25 71.63L122.75 72L122.75 72.13L121.25 71.75L121.38 71.75L123 71L123.38 70.88L123.88 70.75L124.75 70.75L125 70.88L125.13 71.13L125.25 71.38ZM122.38 69.38L122.38 69.38L122.63 69.50L121.63 69.50L120.88 69.75L120.75 69.75L120.25 69.88L120.25 69.88L119.88 70L119.38 70.25L119 70.50L118.75 70.75L118.50 71.13L117.75 71L117.25 71L116.50 70.88L116.25 70.88L115.75 70.75L115.88 70.63L116.25 70.25L116.63 69.75L117 69.50L117.50 69.25L118 69L118.25 68.88L118.88 68.75L119.25 68.63L120.25 68.63L121 68.75L121.38 68.75L122 69L122.38 69.38ZM120.50 68.25L120.50 68.25L119.63 68.25L118.38 68.50L118.13 68.63L117.88 68.63L117.50 68.75L116.75 69.13L116.38 69.25L116.25 69.38L116.13 69.50L115.75 69.88L115.75 70L115.38 70.50L115.25 70.75L113 70.50L112.50 70.38L112.38 70.38L113 70L113.13 69.88L114.75 68.75L115.50 68.25L116.75 67.75L117.25 67.50L118.50 67.25L119.13 67.25L119.63 67.38L120.13 67.75L120.50 68.25ZM118.25 67.25L118 67L117 67.25L116.50 67.38L115.50 67.88L114.63 68.50L113.88 69L113.38 69.25L112.25 70.13L111.88 70.38L111.63 70.63L109.13 70.25L109.25 70.25L111 68.88L111.63 68.50L112.88 67.75L114.25 67.25L115 67L115.75 67L116.38 67.13L116.88 67.13L117.63 67L118.25 67.25ZM114.63 66L114.63 66L116 66L114.25 66.63L113.38 66.88L112.63 67.25L111.13 68.25L109.25 69.38L108.50 70.13L107.13 69.88L106.50 69.75L107.88 69.13L109 68.50L109.88 68L112.13 66.88L113.13 66.50L114.13 66.25L114.63 66ZM111.25 65L111.25 65L112.13 65L112.75 65.13L113.25 65.38L113.50 65.75L113.25 65.75L112.75 66L112 66.25L111.50 66.63L110.63 67L107.88 68.50L105.50 69.75L104.63 69.63L103 69.50L102.25 69.38L104.38 68L106.25 66.88L107.38 66.38L108.38 65.88L109.50 65.50L110.38 65.25L110.75 65.13L111.25 65ZM106.75 64.75L106.75 64.75L107.63 64.75L108.38 64.75L109.13 65L109.25 65.13L108.38 65.38L106.25 66.38L104.13 67.63L102.25 68.75L101.63 69.25L101.50 69.25L98.50 69L99.25 68.25L100.50 67.25L102 66.25L103.50 65.50L104.25 65.25L105.88 64.75L106.75 64.75ZM103.75 64.25L103.75 64.25L104.75 64.38L104.88 64.50L104.13 64.75L102.75 65.38L102 65.75L101.38 66.25L100.25 67L99 68.13L98.63 68.50L98 69L94.25 68.50L94.38 68.38L95.25 67.38L96.38 66.25L97 65.75L98.38 64.88L99.13 64.63L99.63 64.38L100.50 64.25L101.38 64.13L102.88 64.13L103.75 64.25ZM98.25 62L98.25 62L99 62L99.75 62.25L100.63 62.63L101.38 63.25L101.75 63.63L101.25 63.63L100.50 63.75L99.75 63.88L99.50 64L99.38 64L98.88 64.25L98.25 64.38L97.75 64.75L97.25 65L96.63 65.38L95.38 66.38L94.75 67L94.25 67.75L94.13 68L93.75 68.50L91.75 68.25L90.88 68.13L92.63 66L93.75 64.75L94.50 64.13L95 63.75L96 63L97.25 62.38L97.75 62.25L98.25 62ZM97.13 61.63L97.13 61.63L97.25 61.75L96.75 62L96 62.38L95.25 62.88L94.50 63.50L93.50 64.50L93 65.13L92.50 65.63L92 66.25L90.38 68L88 67.75L88.13 67.63L89.13 66.75L91.38 64.38L92.50 63.38L94 62.25L95.13 61.63L95.63 61.38L96.25 61.25L96.75 61.25L97.13 61.63ZM93.88 61L93.88 61L94.63 61.25L94.75 61.25L94.63 61.38L93.88 61.75L93.75 61.88L93 62.25L92.63 62.63L92.25 62.75L91.88 63.13L91.38 63.50L91 64.13L90.13 65L88.75 66.38L87.75 67.50L87.25 67.88L85 67.38L84.13 67.25L85.63 65.38L86.38 64.50L87.25 63.75L88 63L88.50 62.63L89.13 62.25L89.75 61.75L89.88 61.75L90.50 61.50L90.63 61.38L90.75 61.25L91.38 61.13L92.13 61L92.75 60.88L93.25 61L93.25 60.88L93.38 60.88L93.88 61ZM91.75 60.50L91.75 60.50L91.13 60.75L90.75 60.88L90.63 60.88L90.50 61L90.25 61L89.25 61.50L88.63 62L88.38 62.13L88.25 62.25L87.63 62.75L86.25 64L84.63 65.75L83.63 67.13L79.75 66.75L79.50 66.63L79.25 66.63L79.63 66.25L80.25 65.75L81.63 64.63L82.75 63.50L84.25 62.13L85.13 61.50L85.88 61L86.13 60.88L86.75 60.63L87.63 60.25L88.50 60L89 59.88L89.75 59.88L90.88 60L91.75 60.50ZM88.25 59.50L88.25 59.50L88.75 59.75L88.63 59.75L87.63 60L86.63 60.38L85.75 60.88L85.63 60.88L85.13 61.25L83.88 62L83.38 62.50L82.25 63.63L80.75 64.88L79.25 66.25L78.50 66.75L77.63 66.75L76.38 66.50L75.38 66.25L75.75 66.25L76.25 65.75L76.88 65.25L77.88 64.38L80.88 61.75L81.88 61L83 60.25L84.13 59.75L85.25 59.25L86.25 59.13L87.25 59.13L88.25 59.50ZM83.50 58.75L83.50 58.75L84.63 58.75L85 58.88L84.63 59L82.63 60L80.75 61.25L80 61.88L78.50 63.25L76.88 64.63L76.75 64.75L76.13 65.25L75.38 65.75L74.88 66L74 66L72.75 65.88L71.88 65.88L73.25 65L74.75 63.63L76.38 62.13L78 60.75L78.75 60.25L79.75 59.75L80.63 59.25L81.50 59L82.25 58.88L83.50 58.75ZM81.38 57.63L81.38 57.63L82.13 57.75L82.38 58L81.38 58.38L81.38 58.50L81.25 58.50L79.75 59.13L78.25 59.88L77 60.88L73.75 63.88L72.25 65.13L71.50 65.63L70.25 65.63L68.88 65.50L69 65.38L69.38 65.13L71.38 63.50L74.25 61.13L75.50 60L77 59L77.75 58.50L78.50 58.13L79.25 57.75L79.88 57.50L80.75 57.38L81.38 57.63ZM76.75 57.50L76.75 57.50L78.50 57.50L78 57.75L77.13 58.25L76.13 59L75.38 59.63L75.25 59.75L74.63 60.25L71.25 63.25L70 64.25L68.88 65L68.38 65.25L68.25 65.25L66.50 65L66 65L66.38 64.25L67 63.25L67.75 62.25L68.38 61.50L69.25 60.75L70.13 60L71.63 59L73 58.25L73.75 58L74 57.88L74.75 57.75L75.63 57.50L76.75 57.50ZM72.50 56.75L72.50 56.75L73.75 56.88L75 57L75.50 57.13L73.75 57.75L72.75 58.13L71.75 58.63L71.38 58.75L71.25 58.88L70.63 59.25L69.25 60.25L68.50 60.88L67.38 62L66.38 63.38L65.88 64.25L65.50 64.88L65.13 64.88L64.38 64.75L64 64.75L63.63 64.63L63.38 64.63L63.75 63.75L65 61.75L65.25 61.25L66.50 59.63L67.25 58.88L67.88 58.25L68.75 57.75L69.25 57.50L70.13 57.25L71 57L71.63 56.88L72.50 56.75ZM70.63 56.63L70.63 56.63L70.25 56.75L69.25 57.13L69.13 57.25L68.38 57.50L67.25 58.25L66.75 58.75L66.25 59.25L65.75 59.75L64.88 61L63.88 62.75L63.63 63.50L63 64.38L61.25 64.13L61 64.13L61.25 63.38L61.75 62L62.25 61.25L62.63 60.75L63.63 59.50L64.75 58.50L66.25 57.75L66.88 57.38L67.75 57.13L68.50 56.88L69.25 56.75L70.38 56.75L70.63 56.63ZM67.75 55.75L67.75 55.75L68.75 56.13L68.88 56.25L68.25 56.25L67.25 56.50L66.38 56.75L65.63 57.25L64 58.25L63.25 58.75L62.75 59.50L62 60.25L61 62.13L60.63 63.13L60.38 63.75L57.88 63.38L58.25 62.63L58.63 61.63L59.13 60.63L59.75 59.75L60.25 58.88L60.88 58.25L61.63 57.50L62.25 56.88L62.88 56.50L63 56.50L63.75 56.13L64.50 55.88L64.75 55.75L65.75 55.75L66.75 55.75L67.75 55.75ZM64.75 55.25L64.75 55.25L64.88 55.38L64.75 55.38L63.75 55.75L63 56L62.75 56.13L62.13 56.50L61.38 57L60.75 57.50L59.75 58.63L59 59.75L58.38 61L57.75 62.38L57.38 63.25L55.75 63L55 62.75L55.25 62.38L55.50 61.75L56.13 60.38L56.88 59.13L57 58.88L57.50 58.25L58.13 57.63L58.75 56.88L59.50 56.25L60.25 55.75L60.88 55.38L61.63 55.25L62.38 55L63.25 54.88L64 55L64.75 55.25ZM61.75 54.25L61.75 54.25L62.25 54.50L61.25 54.75L60.50 55.13L59.75 55.50L59.13 56L58.50 56.50L58 57L57 58.25L56.75 58.75L56.50 58.88L55.88 59.75L54.88 61.88L54.63 62.75L53 62.25L54.25 59.63L55.13 58.25L55.88 57L56.38 56.25L57.63 55.13L58.25 54.63L58.75 54.25L59.38 54L60 53.88L60.75 53.88L60.75 53.75L61.13 53.75L61.75 54.25ZM59.25 53.38L59.25 53.38L59.50 53.50L59.25 53.63L58.38 54L57.63 54.50L56.88 55.13L56.25 55.88L55.63 56.75L55 57.63L54.63 58L54.38 58.25L53.13 60.50L52.25 62.13L49.75 61.63L49.88 61.13L50.25 60.50L51.13 58.88L51.75 58L52.25 57.25L52.63 56.75L53.75 55.50L54.25 54.88L54.88 54.38L55.50 54L55.88 53.75L56.38 53.50L57.25 53.25L58.25 53.25L59.25 53.38ZM56.25 52.63L56.63 52.88L55.38 53.50L54.50 54.25L53.63 55L52 56.75L51.88 57L51.75 57.13L50.75 58.50L50.38 59.25L49.75 60.50L49.38 61.13L49.25 61.50L47.25 61L47.75 60.13L48.75 58.13L49.25 57.25L50.13 55.75L50.63 55L50.75 54.75L51.50 54L52.25 53.38L52.88 52.88L53.63 52.63L54.38 52.38L55.25 52.38L56.25 52.63ZM51.63 51.50L51.63 51.50L52.50 51.50L53.38 51.75L53.88 52L53.38 52.13L52.38 52.50L51.88 53L51.38 53.38L50.50 54.25L50.25 54.75L49.75 55.25L49.25 56.25L48.75 57L47.75 58.75L47 59.88L46.75 60.88L44.25 60.38L44.75 59.13L45.25 58.25L46.13 56.38L46.63 55.50L47.25 54.63L47.75 53.75L48.50 53.13L49.25 52.50L49.88 52.13L50 52L50.75 51.75L51.63 51.50ZM49.75 50.75L49.75 50.75L50.63 51.25L49.88 51.63L49.75 51.63L49.63 51.75L49 52.13L48.38 52.63L47.88 53.13L47 54.25L46.63 54.75L45.50 56.75L44 59.63L43.75 60.25L43.13 60.13L41.50 59.75L41.38 59.75L43.50 54.50L44 53.63L44.25 53.13L44.63 52.75L45 52.13L45.88 51.25L46.38 50.88L47.13 50.63L47.88 50.50L48.75 50.63L49.75 50.75ZM45.75 49.38L45.75 49.38L46.38 49.63L46.88 49.75L47 49.88L46.25 50.25L45.63 50.75L45.50 50.75L45.25 50.88L44.75 51.63L44.13 52.38L43.75 53L43.38 53.75L42.25 55.88L40.75 59.38L37.88 58.50L37.25 58.38L37.75 56.88L38.75 54.88L39.63 53.50L40.63 52.13L41.75 50.88L42.38 50.38L43 50L43.50 49.75L43.88 49.50L44.63 49.25L45.25 49.25L45.75 49.38ZM40.88 48.50L41.38 48.50L42.25 48.50L43 48.63L43.75 48.88L44 49.13L43.38 49.38L43 49.50L42.25 49.88L41.38 50.50L40.63 51.25L40 52L39.25 53L38.63 54.13L37.88 55.38L37.25 56.88L37 57.75L36.75 58.25L34.25 57.63L34.38 56.63L34.63 55.75L34.88 54.75L35.13 54.25L35.63 53.25L36.25 52.25L36.75 51.38L37.50 50.63L38.25 49.88L39.13 49.25L39.75 48.88L40.88 48.50ZM39.25 48.25L39.25 48.25L39.75 48.50L39.63 48.63L39.25 48.75L38.38 49.25L37.63 49.75L36.88 50.50L36.25 51.25L35.63 52L34.75 53.63L34.50 54.38L34.25 55.25L34.13 55.75L34.13 55.75L34 56.38L33.88 56.88L33.75 57.25L33.75 57.50L33.38 57.38L32.50 57L31.88 56.75L32.13 56.25L32.75 54.50L33.38 52.75L34 51.25L34.25 50.75L35.13 49.50L35.50 49L35.88 48.63L36.25 48.38L36.75 48.25L37.38 48.13L38.25 48.13L39.25 48.25ZM34.50 47.25L34.50 47.25L35.13 47.13L35.75 47.25L36.38 47.38L36.75 47.63L36.13 47.88L36 48L35.88 48L35.25 48.50L34.75 49.13L34.25 49.75L33.75 50.63L33.75 51L33.38 51.75L31.88 55.25L31.75 56L31.50 56.50L31 56.38L30.75 56.25L29.88 56L29.13 55.75L29.25 55L29.38 54L30 52L30.38 51.13L30.75 50.38L31.50 49.38L32.25 48.50L33.25 47.75L33.25 47.75L33.88 47.38L34.50 47.25ZM31.13 46.38L31.13 46.38L31.75 46.25L32.25 46.38L32.75 46.75L33.25 47.25L33 47.38L32.88 47.38L32.25 47.88L31.63 48.50L31 49.25L30.50 50L30.25 50.25L30 50.75L29.75 51.25L29.25 52.50L28.75 53.75L28.50 55.25L28.38 55.75L27.75 55.50L26.38 55L26.50 54.50L26.50 54.25L27 52.38L27.25 51.75L27.63 50.75L28.13 49.75L28.38 49.25L29 48.25L29.38 47.88L30.13 47.13L30.50 46.75L31.13 46.38ZM28.38 46.25L28.38 46.25L28.75 46.13L29.25 46.13L29.75 46.25L30 46.50L29.63 46.75L29 47.38L28.50 48.25L27.50 50L27.13 50.88L26.75 51.88L26.38 52.75L26.25 53.75L26.13 54.25L26 54.75L25.75 54.75L25.25 54.50L25.13 54.50L25.25 53.88L25.50 52.50L25.75 51.25L26.25 50L26.63 48.88L27 48L27.38 47.25L27.75 46.75L28.38 46.25ZM23.88 50.38L23.88 50.38L24 49.63L24.38 48.25L25 47L25.50 46.63L26.13 46.38L26.75 46.38L27.25 46.50L26.75 47.25L26.25 48.25L25.63 50L25 52.38L24.63 54.25L24 54L23.88 52L23.88 50.38ZM18.63 50L18.63 50L18.13 49.25L18.75 49.63L19.38 50.13L19.75 50.38L20.25 51.13L20.50 52L20.13 51.50L19.25 50.50L18.63 50ZM21.50 53.25L21.38 53L21.38 51.75L21.75 53.38L21.50 53.25ZM21.25 46.38L21.25 46.38L21.50 46.75L21.75 47.25L21.88 48.25L22 50L21.88 52.25L21.50 50L21.38 49.50L21.25 48L21.25 47.38L20.88 45.88L21.25 46.38ZM20.50 45.88L20.50 45.88L20.75 47.75L20.75 47.38L20.38 46.38L20.25 45.75L20.25 44.88L20.50 45.88ZM19.25 47.38L19.25 47.38L19 46.75L19 46L19.38 44.75L19.75 44L19.75 45L19.88 46.13L20 46.50L20.25 47.50L20.50 48.13L20.63 48.25L20.75 48.63L20.75 49.25L20.88 50.25L20.88 50.75L20.75 50.63L20.63 50L20.38 49.50L19.75 48.75L19.63 48.63L19.25 47.38ZM16.88 47.13L16.88 47.13L16.75 46.63L16.75 46L16.88 45.50L17.25 45L17.25 44.88L17.25 45.25L17.38 45.88L17.63 46.50L18.13 47.50L18.38 47.88L19.13 48.75L19.13 48.88L19.25 49.63L19.38 49.75L19 49.25L18.50 49L18 48.75L17.63 48.63L17.13 47.63L16.88 47.13ZM16 59.88L16 59.88L15.25 60.75L14.75 61.25L14.38 61.75L14.25 62.13L14.25 62L14.13 61.38L14.25 60.88L14.38 60.38L14.75 59.88L15.13 59.38L15.63 58.88L16.75 58L18.13 57.25L20.13 56.13L20 56.38L19.25 56.88L18.75 57.25L18 58L17.75 58.50L17.50 59L16 59.88ZM19.50 57.25L19.50 57.25L19 57.88L18.25 58.50L18.38 58.25L18.75 57.88L19.13 57.50L19.50 57.25ZM20.25 57.13L20.25 57.13L19.13 59L18.25 60.88L17.75 62.38L17.75 62.50L17.50 61.50L17.50 60.75L17.63 60L17.75 59.38L18.38 59L19.25 58.25L20.25 57.13L20.38 56.75L20.50 56.63L20.25 57.13ZM20.75 55.88L20.75 55.88L20.88 55.63L21 55.63L20.75 55.88ZM21.88 63.50L21.88 63.50L21.50 63L21.25 62.50L21 62L21 61.38L21.13 60.75L21.25 60.13L21.75 58.75L22.13 58.25L22.38 57.75L22.88 56.75L23.25 56.75L23.50 56.88L23.38 57.50L23.38 57.63L23 58.25L22.75 59.63L22.63 60.75L22.63 61.88L22.75 62.88L22.88 63.75L23 63.88L22.63 63.75L21.88 63.50ZM25.38 66.25L25.38 66.25L24.50 65.63L24.25 65.25L23.88 64.88L23.63 64L23.25 63L23.13 62.50L23.13 61.50L23.25 59.38L23.50 58.38L23.75 57.75L23.88 57L25.75 57.63L25.38 58.63L25.25 59.75L25.13 61L25.13 61.63L25.25 62.75L25.38 64.13L25.50 64.38L25.75 65.38L26 66L25.38 66.25ZM29.25 67.50L29.25 67.50L28.75 67.63L28.13 67.63L27.50 67.38L27.13 67L26.75 66.50L26.25 65.75L25.88 64.25L25.88 64.13L25.75 62.25L25.75 61.25L25.75 59.50L25.88 58.75L26.13 58L26.25 57.63L28.13 58.25L28 58.75L27.75 60L27.63 61.25L27.63 62.50L27.88 64.25L28.25 65.50L28.75 66.63L29.13 67.25L29.25 67.50ZM32.25 68.88L32.38 69L31.75 68.88L31.13 68.63L30.50 68.25L30 67.75L29.63 67.25L28.75 65.63L28.50 64.75L28.25 63.75L28.13 62L28.13 61.13L28.25 60.25L28.38 59.25L28.63 58.75L30.88 59.38L31 63.63L31.13 64.25L31.13 64.75L31.25 66.38L31.75 67.75L32 68.38L32.25 68.88ZM33.75 69.38L33.75 69.38L33.75 69.25L33.88 69.25L33 68.75L32.75 68.63L32.38 68.13L32 67.13L31.75 66.38L31.63 65L31.50 64L31.50 62.75L31.38 60L31.38 59.38L31.88 59.63L32.25 59.75L33.25 60L33.25 61.75L33 63.88L33 64.25L33.25 65.25L33.38 66.25L33.50 66.75L33.50 67.13L33.75 68L33.75 68.25L33.88 68.75L34.25 69.38L34.38 69.75L33.75 69.38ZM37.63 70.88L37.63 70.88L36.75 70.75L35.88 70.38L35.38 70L35.25 69.75L34.75 69.25L34.38 68.63L34.25 68L33.88 66.88L33.75 66.25L33.75 64L33.88 62.50L33.88 61.63L33.75 60.25L35.38 60.75L35.25 61.75L35.13 62.75L35.13 64.25L35.25 65L35.25 65.88L35.88 67.75L36.25 68.25L36.75 69.38L37.38 70.25L38 71.13L38.13 71.25L37.63 70.88ZM41.75 72.25L41.75 72.25L41 72.25L40.25 72L39.63 71.63L39 71.25L38.75 71L38 70.13L37.25 69.25L36.75 68.25L36.50 67.75L36.25 67L35.88 65.88L35.75 64.75L35.63 63.75L35.63 62.63L35.75 61.50L35.75 60.75L38 61.50L38 62.88L38.13 64.25L38.38 65.88L38.63 66.75L38.88 67.50L39 67.63L39.13 67.88L39.50 68.88L39.63 69.13L39.75 69.38L40 69.75L40.25 70.25L40.50 70.63L41.13 71.25L41.75 71.88L42 72.13L41.75 72.25ZM44.75 72.75L44.75 72.75L44.25 72.75L43.75 72.75L43.13 72.50L42.50 72.13L42 71.75L41.50 71.25L40.88 70.50L40.75 70.25L40.50 69.75L40.25 69.25L40 68.75L39.50 67.63L39.25 67L39.25 66.50L39 65.38L38.75 64.13L38.75 62.75L38.75 61.50L41.13 62.25L42.25 62.63L42.38 62.63L42.63 65.25L42.75 65.75L42.75 65.75L42.88 67.75L43 68.75L43.25 69.63L43.50 70.50L43.88 71.25L44.38 72L44.75 72.25L44.88 72.38L44.75 72.75ZM46.75 73.25L46.75 73.25L45.88 73L45.25 72.63L45 72.25L44.75 71.88L44.25 71.38L44 70.88L43.75 70.25L43.38 68.88L43.25 68.25L43.13 66.75L43 66L43 64.75L42.88 63.13L42.88 62.75L43.25 62.75L43.63 62.88L45.25 63.25L45.38 65.38L45.75 67.50L46 68.75L46.38 70L46.50 70.25L46.88 71.13L47.38 71.88L48 72.63L48.50 73.13L47.75 73.13L46.75 73.25ZM51.38 74L51.38 74L50.50 73.88L49.75 73.63L49.25 73.25L48.25 72.38L47.50 71.25L47 70.25L46.75 69.38L46.75 69.25L46.25 67.50L46 65.63L45.75 63.63L46.63 63.75L47.25 64L47.50 64L47.88 64.13L48.13 64.13L48 65L48.25 66.13L48.25 66.25L48.25 66.50L48.63 67.88L48.75 68.75L49.13 69.50L49.25 69.75L49.25 69.88L49.25 70.25L49.25 70.25L49.50 70.75L49.75 71.50L50.13 72.13L50.75 73L51.25 73.38L51.63 73.75L51.75 73.88L51.38 74ZM54.75 74.38L54.75 74.38L53.75 74.25L53 74L52.25 73.63L51.63 73L51 72.25L50.50 71.50L50.13 70.75L50 70.38L49.38 69L49.13 68L48.75 66.50L48.63 66.13L48.25 64.25L50.50 64.88L50.50 65.25L50.75 66.50L51.13 67.88L51.75 69.38L52 70.25L52.38 71L53.63 73L54.13 73.63L54.25 73.88L54.50 74.13L55 74.50L54.75 74.38ZM58.25 75.13L58.25 75.13L57.25 75L56.38 74.75L55.63 74.25L55 73.63L54.75 73.25L53.75 72L52.88 70.75L52.38 69.75L52 68.75L51.75 67.75L51.38 66.75L51.13 65L51.13 64.88L52.75 65.25L53.75 65.50L54.38 67.75L54.88 69.38L55.13 70.13L55.88 71.88L56.25 72.50L56.63 73.25L57 73.75L57.50 74.38L58 74.88L58.25 75.13L58.25 75.13ZM60.88 75L60.88 75L60 75L59.25 74.88L58.63 74.63L57.88 74L57.25 73.38L56.75 72.63L56.25 71.63L55.38 69.25L54.88 67.38L54.50 65.63L56 66L56.13 66.50L56.25 67.25L56.50 68.50L56.88 69.88L57.25 70.50L57.50 71L57.75 71.63L57.75 71.75L58.25 72.38L58.25 72.63L58.75 73.25L59.88 74.38L60.13 74.50L60.75 74.88L60.88 75ZM63.50 75.25L63.50 75.25L62.75 75.13L62 74.75L61.25 74.38L60.88 74.13L60.75 74L60.25 73.63L59.75 73.13L59.38 72.63L59 72.25L58.88 72.25L58.38 71.50L58.13 70.88L58 70.63L57.63 69.75L57.25 68.88L56.75 66.88L56.63 66.25L58.13 66.50L58.50 66.63L58.75 66.75L59 66.75L59.25 67.63L59.25 67.75L59.38 68.75L59.75 69.75L59.75 70L59.88 70.25L60.38 71.50L61.13 72.75L61.50 73.25L62 73.88L62.63 74.38L63 74.75L63.75 75.38L64.13 75.63L63.50 75.25ZM68.63 76L68.63 76L67.63 75.88L66.63 75.75L65.75 75.38L64.75 75L64.25 74.75L63.50 74.13L62.75 73.63L62 72.75L61.38 72L60.88 71.25L60.50 70.25L60.25 69.50L59.63 67.50L59.38 66.75L61.75 67.13L61.75 67.75L61.75 68.13L61.88 68.38L62.25 69L62 69L62 69.13L62.38 69.75L62.88 70.75L63.38 71.50L64 72.25L64.63 73L65.25 73.75L66 74.25L67.63 75.25L67.88 75.50L68 75.50L68.63 75.75L68.63 76ZM69.50 75.75L69.50 75.75L68.63 75.50L68.13 75.25L66.75 74.50L64.88 73L63.88 71.75L63.75 71L63.25 70.25L63 69.63L62.75 69L62.63 68.50L62.38 68L62.38 67.75L62.25 67.25L64.25 67.50L64.88 69.25L65.25 70.13L65.75 70.88L66.50 72.25L67.25 73.38L68.25 74.38L68.63 74.63L68.88 74.88L69.75 75.50L70.63 76L70.88 76.13L70.38 76L69.50 75.75ZM75.25 76.50L75.25 76.50L74 76.38L72.88 76.25L71.88 75.88L71.38 75.75L70.63 75.25L69.88 74.88L69.25 74.38L69 74.25L67.88 73.13L67.25 72.25L66.75 71.50L66.38 71L64.75 67.50L66.25 67.75L67.13 67.75L67.50 68.75L67.75 69.25L68.75 70.75L69.75 72.13L70.25 72.75L70.75 73.25L71.38 73.75L72.75 74.75L73.38 75.25L74.13 75.75L74.63 75.88L75.13 76.25L75.38 76.25L75.63 76.38L75.25 76.50ZM77.88 76.75L77.88 76.75L77.13 76.50L75.63 76L74.75 75.63L74.50 75.38L73.63 74.88L72.75 74.25L71.13 72.88L70.25 72.13L69.63 71.25L69 70.50L68.38 69.63L67.88 68.75L67.75 68.63L67.63 68L69.38 68.25L70 68.25L71.13 69.25L72.25 70.25L73.25 71.38L75 73.25L77.50 75.75L78.75 76.88L78.88 77L77.88 76.75ZM82.75 77.63L82.75 77.63L82 78L81.25 78L80.63 77.63L79.75 77.13L79 76.50L77.38 75.13L77.38 75L74 71.25L72.25 69.38L71.25 68.50L70.88 68.25L71.25 68.25L73.38 68.63L74.75 69.75L76.75 71.75L78.50 73.63L79.25 74.25L80 75L81.63 76.25L83 76.88L83.13 77L82.75 77.63ZM84.63 77.13L84.63 77.13L83.63 76.75L82.75 76.38L82.25 76.25L82 76.13L80.75 75.25L79.63 74.25L77.25 71.88L75.88 70.38L75.25 69.63L74.38 68.88L74.25 68.75L76 68.88L76.13 68.88L76.75 69.13L76.75 69.13L77.25 69.38L78.63 70.75L81 73.38L81.88 74.25L83.88 76.13L84.88 76.75L85.75 77.25L84.63 77.13ZM89.25 77.38L89.25 77.38L88.25 77.50L87.25 77.25L86.63 77L85.88 76.63L84.13 75.38L82.50 74L80.50 72L79.88 71.25L78.75 70L78.25 69.50L77.75 69.13L77.63 69L79.25 69.25L80.13 69.25L80.75 69.75L81.50 70.50L84.25 73.63L85.13 74.38L86.25 75.38L86.25 75.50L86.50 75.63L87.38 76.25L88.25 76.75L89.25 77.13L89.63 77.25L89.25 77.38ZM91.38 77.13L91.38 77.13L90.38 77L89.88 76.88L89.38 76.75L88.63 76.25L87.75 76L87.13 75.63L86.63 75.25L85.25 74.13L85 73.75L84 72.75L82.25 70.75L81.75 70.13L80.75 69.25L81.25 69.25L81.88 69.38L83.25 69.50L83.50 69.75L84.50 69.88L84.75 69.88L85 69.75L85.75 70.75L86.50 71.75L87.88 73.63L89.25 75L89.88 75.63L90.63 76.13L91 76.38L91.25 76.63L91.75 76.88L92.13 77.13L91.38 77.13ZM94.75 77.13L94.75 77.13L94.13 77.13L93.75 77L93.75 76.88L93.38 76.88L92.88 76.75L92.25 76.63L91.75 76.25L91.50 76.13L91 75.75L90.38 75.25L89 74L88.38 73.38L86.75 71.38L86.38 70.75L85.75 69.75L88 70L89 70L89.38 70.38L91.13 72.25L92.25 73.75L94 75.75L95.50 77L94.75 77.13ZM98.25 77L98.25 77L98 77.13L97.50 77.25L97 77.13L96.38 76.88L95.75 76.50L95.25 76L94.63 75.38L94 74.75L92.75 73.25L90.88 71.13L89.88 69.88L92.25 70.13L94.50 73.13L94.75 73.38L94.75 73.50L94.88 73.75L95 73.75L95.88 74.88L97.25 76.25L98 76.75L98.25 77ZM102.63 76.75L102.63 76.75L101.75 77.13L101 77.25L100.25 77.25L99.63 77.25L98.88 77L98.50 76.75L97.75 76.25L96.25 74.88L95.25 73.75L92.75 70.13L94 70L94.25 70L94.88 70.25L95.38 71.13L96.50 72.63L98.50 74.63L99 75L99.25 75.13L99.50 75.25L100.38 75.75L100.63 75.88L101.75 76.25L102.25 76.50L102.75 76.63L102.88 76.63L102.63 76.75ZM103.63 76.13L103.63 76.13L102.75 76L101.38 75.63L100.75 75.25L99.63 74.63L98.75 74L98.25 73.75L97.50 72.88L97 72.25L95.88 70.88L95.75 70.50L98.75 70.75L99.75 71.88L101.50 73.75L103.63 75.25L104.38 75.75L105.13 76.13L105.25 76.25L104.50 76.25L103.63 76.13ZM108.25 76.38L108.25 76.38L106.75 76.25L106.63 76.13L105.75 75.75L105 75.38L103.75 74.63L103.13 74.25L101.38 72.75L100.88 72.25L99.50 70.75L100.63 70.75L101.88 70.88L102 70.88L102.88 71.75L103.50 72.25L104.25 72.88L106 74.25L107 74.88L107.88 75.50L108.38 75.75L109 76.25L108.25 76.38ZM113 76.75L113 76.75L112.50 77L111.75 77L111 76.75L110.13 76.25L108.25 75.25L107.38 74.75L102.75 71.13L105.38 71.25L106.13 71.75L106.50 71.88L109.88 74.25L110.38 74.63L112.50 76L112.88 76.25L113.13 76.50L113 76.75ZM115 76.50L115 76.50L114.63 76.38L114.13 76.25L113.63 76.13L113.13 75.75L112.88 75.75L110.25 73.88L108.50 72.75L108.25 72.63L107.50 72.25L106.75 71.75L106.38 71.25L106.50 71L107 71L108.38 71.25L108.75 71.63L110.25 73.13L111.63 74.25L113.13 75.25L113.88 75.75L114.75 76.13L115.13 76.25L115.25 76.25L115.50 76.25L115 76.50ZM117.13 76.25L117.13 76.25L116.25 76.25L115.75 76.13L115.25 76L114.75 75.75L114.25 75.50L112.88 74.75L111.13 73.38L109.75 72.25L109.25 71.75L110.38 71.88L112.13 72L114.25 73.88L115.75 75.25L116.63 75.75L117.50 76.13L117.75 76.25L117.13 76.25ZM119.75 75.75L119.75 75.75L119.25 75.88L118.75 75.88L118.25 75.75L117.25 75.38L116.75 75.13L116.25 74.75L115.13 73.75L113 71.88L114 72L115.25 72.13L115.25 72.25L115.63 72.75L115.75 73L116.50 73.75L117 74.25L117.50 74.50L117.75 74.63L117.75 74.75L118 74.75L118.13 74.88L118.75 75.25L119.13 75.25L120 75.50L120.25 75.50L119.75 75.75ZM122.25 75L122.25 75L119.88 75L118.75 74.75L118.13 74.38L117.75 74.25L117.25 74L117.25 74L116.25 73.25L116.13 72.88L116 72.75L115.75 72.38L115.75 72.25L116.38 72.38L118.25 72.50L118.50 72.75L118.75 73.25L119.50 73.88L120 74.25L120.25 74.50L121.25 74.88L121.38 75L122.25 75.25L122.25 75ZM124.88 74L124.88 74L124.75 74.25L124.75 74.25L124.50 74.25L123.88 74.13L123.25 73.75L122.25 73.25L121.25 72.50L122.63 72.75L124.75 73.75L124.88 73.88L125 73.88L124.88 74ZM125.50 73.25L125.50 73.25L125.38 73.38L125.13 73.38L124.38 73.25L123.75 72.88L125 73L125.13 73L125.63 73.13L125.50 73.25Z"/></svg>