<svg xmlns="http://www.w3.org/2000/svg" xmlns:xlink="http://www.w3.org/1999/xlink" width="128" height="128"><path fill="#ffffff" d="M126 59.38L125.75 59L125.63 58.88L125.63 58.50L125.50 58.13L125.25 57.75L124.88 57.63L124.50 57.25L124.25 57L123.75 56.88L123.75 56.88L123.25 56.63L122.75 56.25L122.25 56L121.63 55.75L121.50 55.75L121 55.25L120.38 54.88L119.75 54.63L119.25 54.38L119.13 54.38L118.50 54L117.75 53.75L117.25 53.63L116.75 53.25L116.25 53.13L116.25 53.13L115.25 52.88L114.75 52.88L114 53L113.75 52.50L113 52L112.13 51.75L111.25 51.75L110.25 52L109.88 52.13L109.25 51.75L108.38 51.63L107.63 51.50L106.75 51.50L106 51.63L105.88 51.63L104.13 51L103.25 50.88L102.63 50.88L101.75 50.13L100.88 49.50L100.13 49.13L99.25 48.88L98.50 48.88L98 49L97.50 48.63L96.75 48.25L96 48.25L95.50 48.25L94.75 48L94 47.88L93.25 47.75L93 47.75L92 47.38L90.75 47L89.50 47L88.38 46.38L87.25 46.13L86.38 46.13L84.63 45.75L83.50 45.63L83 45.63L82.38 45L81.63 44.50L80.75 44.25L79.75 44.38L79.25 44.63L78.38 44.50L77 44.50L77 44.38L75.25 44.13L73.75 43.88L72.50 43.75L72 43.75L70 43.63L69.88 43.63L68.88 43L67.75 42.75L66.75 42.63L66 42.63L65 42.13L64.13 41.88L63.25 41.75L63 41.75L61.88 41.13L61 40.75L60.25 40.75L59.50 40.25L58.38 40L57.38 40L56.25 39.50L55.25 39.25L54.75 39.25L53.75 38.75L52.75 38.38L51.75 38.25L51.50 38.25L50 37.63L49 37.25L47.88 37.13L47.75 37.13L47.13 36.63L46.50 36.25L45.88 36.13L45.25 36L44.63 36.13L43.88 35.63L43.25 35.25L42.25 35.25L41.50 35.25L40.63 35.38L40.50 35.50L39.50 35.13L38.50 34.75L37.63 34.75L36.75 34.25L35.88 34L35.13 33.88L34.38 34L33.75 34.25L33.13 33.63L32.50 33.25L31.75 33.13L31 33.25L30.38 33.63L30 33.25L29.75 33.13L29.38 33L29 32.88L28.50 32.88L28.25 33L27.75 33.25L27.63 33.38L26.75 33.25L25.88 33.25L25.25 33.38L24.75 34L24.25 34.50L24 35.25L23.75 36L23.50 36.75L23.38 37.63L23.25 39.25L23.63 40.50L23.88 41.25L23.75 39.25L23.88 37.75L24 36.88L24.38 35.50L24.75 34.88L25.13 34.38L25.63 34L26.25 33.75L26.88 33.75L27.38 33.88L26.75 34.75L26.25 35.75L25.75 37.38L25 39.75L24.63 41.50L24 41.25L24 41.38Q23.25 41.25 23 41.13Q22.75 41 22.38 40.88L22.38 40.88L22.25 40.25L22.25 39.75L22.38 37.25L22.38 36.63L22.25 35.38L22.25 34.88L21.63 33.38L21.38 33L21.13 32.63L20.25 32L20.25 31.88L20.25 31.25L20.63 30.25L20.13 30L19.63 30.63L19 32L18.75 33.38L18.75 34.13L18.88 34.75L18.63 34.38L18.25 33.50L18 33L17.88 32.38L17.75 31.25L16.88 32L16.63 32.63L16.38 33.25L16.38 33.88L16.50 34.50L16.75 35.13L17 35.75L16.88 35.75L16.25 35.63L16.25 36L16.63 36.25L18 37.25L18.25 37.50L20.50 40L20.63 40.13Q16.50 38.50 11.88 36.50Q7.25 34.50 1.75 31.88L1.75 31.88Q2.88 33.75 6.13 35.56Q9.38 37.38 11.13 38.75L11.13 38.75Q12.88 39.63 15.06 40.63Q17.25 41.63 19.38 42.38L19.38 42.38L17.13 42.88L15.75 43.25L14.25 43.75L13.63 44L13 44.25L12.38 44.63L11.88 45L11.38 45.50L11 46L10.75 46.63L10.50 47.25L10.88 47.50L11.75 46.63L12.75 46L13.63 45.50L14 45.38L14.25 45.25L15.75 45L16.25 44.75L19.25 43L19.75 42.75L20 42.75L19.88 42.50Q20 42.63 20.19 42.63Q20.38 42.63 20.38 42.75L20.38 42.75L20.25 42.75L17.88 44L16.63 44.75L15.38 45.75L14.75 46.25L14.25 46.75L14 47.38L13.75 48L13.75 48.75L13.75 49.38L14.25 50.50L14.75 49.25L15.25 48.75L15.63 48.25L16 47.75L16.38 47.50L17.38 46.88L17.38 47L17.25 47.75L17.25 48.75L17.38 49.75L17.75 50.75L18.13 50.75L18.25 50.25L18.63 48.75L18.75 48.25L19.38 46.88L20.38 45.13L21.63 43.25Q21.88 43.25 22.13 43.38Q22.38 43.50 22.63 43.63L22.63 43.63L21.75 45.25L21.38 45.88L21 46.50L20.63 47.88L20.50 48.63L20.50 49.25L20.63 49.88L20.88 50.50L21.38 51.13L22.25 51.63L22.88 51.75L23.13 52.25L23.50 52.75L23.88 53.25L24.25 53.50L25.13 53.88L26 54L26.25 54L26.63 54.63L27.25 55.13L27.88 55.38L28.75 55.38L29.38 55.25L29.50 55.38L30.13 56L30.75 56.38L31.25 56.75L32.13 56.75L32.75 56.75L33.25 57.25L34 57.50L34.75 57.75L35.38 58.25L36.25 58.63L37.25 58.75L38.25 58.88L38.38 59L39.13 59.63L39.88 60L40.63 60.25L41.50 60.38L42.25 60.25L43.25 60.75L43.88 60.75L44.50 60.75L45.13 60.75L45.38 60.88L46.38 61.25L47.50 61.25L48.75 61.25L49.13 61.38L50 61.75L51 61.75L52.38 61.75L53.25 62L54.25 62.13L55.38 62L55.75 62.25L56.75 62.75L57.88 62.75L59 62.75L59 62.63L59.63 62.75L60.63 62.75L61.75 62.50L62.25 62.75L63.13 62.88L63.88 63L64.88 63L65.13 63.13L66.13 63.38L67.13 63.63L68.25 63.75L69.25 63.63L69.25 63.50L69.88 63.75L71.75 63.88L71.75 63.75L72.25 64L73.50 64.13L74.75 64L76.25 64.13L76.38 64.25L77.25 64.38L78.13 64.50L79 64.50L79.13 64.63L79.88 64.88L80.75 65L80.75 65L80.13 64.75L79.25 64.25L78.50 63.75L76.88 62.38L76.75 62.25L74 58.63L72.25 56.75L71.25 55.75L70.88 55.50L71.25 55.50L73.38 55.88L74.75 57.13L76.75 59.13L78.50 60.88L79.25 61.63L80 62.25L81.63 63.50L83 64.25L83.13 64.25L82.75 64.50L82 65L82.75 64.88L83.50 64.50L84.38 64.75L85.50 65L86.75 65L87 65.13L88.13 65.25L89.25 65.25L90.25 64.75L91.25 64.88L92.50 64.88L93.38 64.75L94 64.88L94.75 64.88L96.25 64.75L96.75 64.88L97.25 65L97.88 64.88L98.38 64.63L98.50 64.63L99.25 64.88L100.13 65L100.88 65L101.75 64.75L102.63 64.38L103.50 63.75L104.25 63.75L105.13 63.75L105.88 63.63L106.38 63.75L108 64L108.75 63.88L109.63 63.75L110 64L110.88 64.13L111.75 64L111.75 64L111 63.88L110.13 63.63L108.25 62.63L107.38 62L102.75 58.38L105.38 58.63L106.13 59L106.50 59.25L109.88 61.63L110.38 61.88L112.50 63.25L112.88 63.63L113.13 63.75L112.88 63.88L112.38 64L113.13 64.13L113.63 63.75L113.88 64L114.38 64.25L114.88 64.25L115.38 64.25L115.88 64.25L116.25 64.13L117 64.25L117.75 64.13L118.50 63.75L119.25 63.75L119.75 63.75L120.38 63.38L120.88 63L121.50 63L122.13 62.88L122.63 62.63L123.25 62.25L123.13 62.25L122.75 62.13L122.75 62L122.25 61.88L121.25 61.63L121 61.50L120.25 61.13L120 60.88L119.88 60.75L119.75 60.75L119 60L120.25 60.13L120.50 60.38L120.88 60.75L121.50 61.13L122 61L122.25 61.25L123.13 61.75L123.50 61.88L123.63 62L123.50 62.13L123.88 62.25L124.25 62.25L124.25 62.13L124.63 62L124.88 61.75L125.13 61.38L125.25 61L125.38 61L125.75 60.75L125.88 60.38L126 60.38L126 59.38ZM17.25 43.75L17.25 43.75L16 44.50L15.50 44.75L14.75 44.75L13.38 45.25L12.38 45.75L11.50 46.25L11.38 46.38L11.75 45.75L12.25 45.25L13.25 44.38L14.38 43.75L15.75 43.38L18.25 42.75L17.25 43.75ZM16 47.25L16 47.25L15.25 48L14.75 48.50L14.38 49.13L14.25 49.38L14.25 49.25L14.13 48.75L14.25 48.25L14.38 47.75L14.75 47.25L15.13 46.75L15.63 46.25L16.75 45.25L18.13 44.50L20.13 43.38L20 43.75L19.25 44.25L18.75 44.50L18 45.25L17.75 45.75L17.50 46.25L16 47.25ZM19.13 44.75L19.50 44.50L19 45.25L18.25 45.75L18.38 45.63L18.75 45.25L19.13 44.75ZM20.25 44.25L20.25 44.25L19.13 46.25L18.25 48.13L17.75 49.63L17.75 49.75L17.50 48.75L17.50 47.88L17.63 47.25L17.75 46.63L18.38 46.25L19.25 45.50L20.25 44.25L20.38 43.88L20.50 43.75L20.25 44.25ZM20.50 33.13L20.50 33.13L20.75 34.88L20.75 34.63L20.38 33.63L20.25 32.88L20.25 32.13L20.50 33.13ZM17.63 35.88L17.63 35.88L17.13 34.88L16.88 34.25L16.75 33.75L16.75 33.25L16.88 32.75L17.25 32.25L17.25 32.13L17.25 32.38L17.38 33.13L17.63 33.75L18.13 34.75L18.38 35.13L19.13 36L19.13 36.13L19.25 36.75L19.38 37L19 36.50L18.63 36.25L18.13 36L17.63 35.88ZM20.13 38.75L20.13 38.75L19.25 37.75L18.63 37.25L18.13 36.50L18.75 36.75L19.38 37.25L19.75 37.63L20.25 38.25L20.50 39.25L20.13 38.75ZM20.63 37.25L20.63 37.25L20.38 36.75L19.75 36L19.63 35.88L19.25 34.75L19 34L19 33.25L19.38 32.13L19.75 31.25L19.75 32.25L19.88 33.38L20 33.75L20.25 34.75L20.50 35.38L20.63 35.63L20.75 35.88L20.75 36.50L20.88 37.63L20.88 38.13L20.75 37.88L20.63 37.25ZM20.75 43.25L20.75 43.25L20.88 42.88L21 42.88L20.75 43.25ZM21.50 40.63L21.50 40.63L21.38 40.25L21.50 40.25L21.50 39L21.75 40.75Q21.63 40.75 21.56 40.69Q21.50 40.63 21.50 40.63L21.50 40.63ZM21.88 39.38L21.88 39.38L21.63 37.25L21.50 36.75L21.25 35.25L21.25 34.75L21 33.63L20.88 33.13L21.25 33.63L21.50 34L21.75 34.50L21.88 35.50L22 37.25L21.88 39.38ZM121 56.25L121 56.25L121.38 56.25L122 56.50L122.50 56.75L122.75 56.75L121.75 56.75L121 57L120.88 57L120.38 57.25L120.25 57.25L120 57.25L119.50 57.50L118.75 58.25L118.50 58.63L117.75 58.50L117.25 58.50L116.50 58.38L116.25 58.38L115.75 58.25L115.88 58.13L116.25 57.75L116.63 57.25L117 57L117.50 56.75L118 56.50L118.25 56.38L118.88 56.25L119.25 56.13L120.25 56.13L121 56.25ZM118.50 54.75L118.50 54.75L119.13 54.75L119.63 54.88L120.13 55.25L120.63 55.63L120.75 55.75L119.75 55.75L118.50 55.88L118.25 56L118 56L117.63 56.13L116.75 56.50L116.50 56.75L116.25 56.75L116.25 56.88L115.88 57.25L115.75 57.38L115.50 57.88L115.25 58.25L113.13 57.88L112.63 57.75L112.50 57.75L113.13 57.38L113.25 57.25L114.88 56.25L115.63 55.75L116.75 55.13L117.38 54.88L118 54.75L118.50 54.75ZM115.75 54.13L115.75 54.13L116.38 54L116.88 54L117.63 54.13L118.25 54.25L118.13 54.25L117.13 54.50L116.63 54.75L115.63 55.25L114.75 55.75L114 56.25L113.50 56.63L112.38 57.38L112 57.75L111.75 57.88L109.25 57.63L109.25 57.50L111.13 56.25L111.75 55.75L113 55L114.38 54.38L115.13 54.25L115.75 54.13ZM106 52.13L106 52.13L106.75 52L107.63 52L108.38 52.13L109.13 52.25L109.25 52.38L108.38 52.75L106.25 53.75L104.13 54.88L102.25 56L101.63 56.50L101.50 56.63L98.50 56.25L99.25 55.63L100.50 54.63L102 53.63L103.50 52.75L104.25 52.50L105.13 52.25L106 52.13ZM102.63 51.38L102.63 51.38L103 51.38L103.75 51.50L104.75 51.75L104.88 51.75L104.13 52.13L102.75 52.75L102 53.13L101.38 53.50L100.25 54.25L99 55.38L98.63 55.75L98 56.13L98 56L94.25 55.75L94.38 55.75L95.25 54.75L96.38 53.50L97 53L98.38 52.25L99.13 51.88L99.63 51.75L100.50 51.50L101.38 51.38L102.63 51.38ZM97.75 49.38L97.75 49.38L98.25 49.25L99 49.25L99.75 49.50L100.63 49.88L101.38 50.50L101.75 50.88L101.25 50.88L100.50 51L99.75 51.25L99.50 51.25L99.38 51.25L98.88 51.50L98.25 51.75L97.75 52L97.25 52.25L96.63 52.75L95.38 53.75L94.75 54.25L94.25 55L94.13 55.25L93.75 55.75L91.75 55.38L90.88 55.25L92.63 53.25L93.75 51.88L94.50 51.25L95 50.88L96 50.25L97.25 49.63L97.75 49.38ZM95.38 48.75L95.38 48.75L96 48.75L96.63 48.75L97.13 48.88L97.25 49.13L96.75 49.25L96 49.75L95.25 50.25L94.50 50.75L93.50 51.75L93 52.38L92.25 53L91.75 53.63L90.25 55.38L87.75 55.13L88 55L89 54.13L91.25 51.75L92.38 50.75L93.88 49.63L95 49L95.38 48.75ZM92.63 48.25L92.63 48.25L93.25 48.25L93.25 48.25L93.25 48.25L93.88 48.25L94.63 48.50L94.75 48.63L94.63 48.75L93.88 49.13L93.75 49.25L93 49.63L92.63 50L92.25 50.25L91.88 50.50L91.38 50.88L91 51.38L90.13 52.25L88.75 53.75L87.75 54.75L87.25 55L85 54.75L84.13 54.63L85.63 52.75L86.38 51.75L87.25 51L88 50.25L88.50 49.88L89.13 49.50L89.75 49.13L89.88 49.13L90.50 48.75L90.63 48.75L90.75 48.63L91.38 48.38L92.13 48.25L92.63 48.25ZM89.13 47.25L89.75 47.38L90.75 47.50L91.88 47.75L91.25 48L90.75 48.25L90.75 48.25L90.63 48.25L90.50 48.25L90.38 48.38L89.38 48.88L88.75 49.38L88.50 49.50L88.38 49.63L87.75 50.25L86.38 51.38L84.75 53.25L83.75 54.50L79.88 54.13L79.63 54L79.25 54L79.75 53.75L80.38 53.13L81.75 52L82.75 50.88L84.38 49.50L85.25 48.88L86 48.38L86.25 48.25L86.88 48L87.75 47.75L88.63 47.38L89.13 47.25ZM86.13 46.50L86.13 46.50L87.13 46.50L88.25 46.75L88.75 47L88.63 47L87.63 47.25L86.63 47.63L85.75 48.13L85.63 48.13L85.13 48.38L83.88 49.25L83.38 49.75L82.25 50.75L80.75 52.13L79.25 53.38L78.38 54L77.50 54L76.25 53.75L75.25 53.63L75.63 53.50L76.25 53.13L76.75 52.63L77.75 51.75L80.75 49.13L81.75 48.25L82.88 47.63L84 47L85.13 46.63L86.13 46.50ZM76.75 44.75L76.75 44.75L78.50 44.75L78 45L77.13 45.63L76.13 46.25L75.38 46.88L75.25 47L74.50 47.63L71.13 50.50L69.88 51.50L68.75 52.25L68.25 52.63L68.25 52.63L66.25 52.13L66.13 52.13L66.50 51.25L67.13 50.25L67.75 49.38L68.50 48.63L69.25 47.75L70.25 47.13L71.75 46.13L73.13 45.38L73.88 45.13L74.13 45L74.75 44.75L75.75 44.63L76.75 44.75ZM71.63 44.25L71.63 44.25L72.63 44.13L73.75 44.25L75.13 44.38L75.63 44.50L74.75 44.75L74 44.88L73.75 45L72.75 45.38L71.75 45.88L71.50 46L71.38 46.13L70.75 46.50L69.88 47L69.25 47.50L68.63 48L68 48.63L66.75 50L66.25 50.75L65.75 51.50L65.38 52.25L65 52.25L64.38 52L64 52L63.63 51.88L63.38 51.88L63.75 51.13L65 49L65.25 48.50L66.50 46.88L67.25 46.25L67.88 45.63L68.75 45.13L69.25 44.75L70.13 44.50L71 44.25L71.63 44.25ZM69.75 43.88L69.75 43.88L70.63 43.88L70.25 44L69.25 44.38L69.13 44.50L68.38 44.75L66.63 46L66.13 46.50L65.75 47L64.88 48.25L63.88 50.13L63.63 50.75L63 51.75L61.25 51.38L61 51.38L61.25 50.75L61.75 49.25L62.25 48.63L62.63 48L63.63 46.75L64.75 45.75L66.25 45L66.88 44.75L67.75 44.38L68.50 44.25L69.25 44.13L69.75 43.88ZM66.75 43L66.75 43L67.75 43.13L68.75 43.38L68.88 43.50L68.25 43.63L67.25 43.75L66.38 44.13L65.63 44.50L64 45.50L63.25 46.13L62.75 46.75L62 47.63L61 49.38L60.63 50.38L60.38 51.13L57.88 50.75L58.25 49.88L58.63 48.88L59.13 47.88L59.75 47L60.25 46.25L60.88 45.50L61.63 44.75L62.25 44.25L62.88 43.75L63 43.75L63.75 43.38L64.50 43.25L64.75 43.13L65.75 43L66.75 43ZM63.25 42.25L63.25 42.25L64 42.38L64.75 42.63L64.88 42.75L64.75 42.75L63.75 43L63 43.25L62.75 43.38L62.13 43.75L61.38 44.25L60.75 44.75L59.75 45.88L59 47.13L58.38 48.25L57.75 49.75L57.38 50.63L55.75 50.25L55 50.13L55.25 49.75L55.50 49L56.13 47.75L56.88 46.38L57 46.25L57.50 45.63L58.13 44.88L58.75 44.25L59.50 43.63L60.25 43.13L60.88 42.75L61.63 42.50L62.38 42.25L63.25 42.25ZM60.50 41.25L60.50 41.25L60.50 41.25L60.88 41.25L61.75 41.50L62.25 41.75L61.25 42.13L60.50 42.38L59.75 42.75L59.25 43.25L58.63 43.75L58 44.25L57 45.50L56.75 46L56.50 46.25L55.88 47L54.88 49.13L54.50 50L53 49.50L54.25 46.88L55.13 45.50L55.88 44.25L56.38 43.63L58 42L58.63 41.63L59.25 41.38L59.75 41.25L60.50 41.25ZM57.38 40.50L57.38 40.50L58.38 40.50L59.25 40.75L59.50 40.75L59.25 40.88L58.38 41.25L57.63 41.75L56.88 42.38L55.50 44L54.88 44.88L54.75 45.25L54.50 45.63L53.25 47.75L52.38 49.38L49.75 48.88L50 48.38L50.25 47.75L51.25 46.25L51.75 45.25L52.25 44.63L52.75 44L53.75 42.75L54.38 42.25L55 41.75L55.63 41.25L56 41L56.50 40.75L57.38 40.50ZM55.25 39.75L55.25 39.75L56.13 40L56.63 40.25L55.38 40.75L54.50 41.50L53.63 42.25L52 44.13L51.88 44.25L51.75 44.38L50.75 45.75L50.38 46.50L49.75 47.75L49.38 48.38L49.25 48.75L47.25 48.25L47.63 47.38L48.63 45.38L49.13 44.50L50 43L50.50 42.25L50.75 42L51.38 41.25L52.13 40.75L52.75 40.25L53.50 39.88L54.25 39.75L55.25 39.75ZM51.63 38.75L51.63 38.75L52.50 38.75L53.38 39.13L53.88 39.25L53.38 39.38L52.38 39.75L51.88 40.13L51.38 40.50L51 41.13L50.50 41.63L50.25 42L49.75 42.50L49.25 43.38L47.75 46.13L47 47.25L46.75 48.25L44.25 47.75L44.75 46.38L45.25 45.63L46.13 43.75L46.63 42.75L47.25 41.88L47.75 41.13L48.50 40.38L49.25 39.75L49.88 39.38L50 39.25L50.75 39L51.63 38.75ZM47.13 37.75L47.13 37.75L47.88 37.75L48.75 37.75L49.75 38.13L50.63 38.50L49.88 38.88L49.75 38.88L49.75 39L49.63 39L49 39.38L48.38 39.88L47.88 40.38L47 41.50L46.50 42L45.38 43.88L44 46.88L43.75 47.50L43.13 47.38L41.50 47L41.38 47L43.50 41.75L44 40.88L44.25 40.38L44.63 40L45 39.38L45.88 38.50L46.38 38.25L47.13 37.75ZM45.25 36.75L45.25 36.75L45.75 36.75L46.38 36.88L46.88 37.13L47 37.25L46.25 37.63L45.63 38L45.50 38.13L45.25 38.25L44.75 38.88L44.13 39.75L43.88 40.13L43.75 40.25L43.38 41L42.25 43.25L40.75 46.75L37.88 45.75L37.25 45.75L37.75 44.25L38.75 42.25L39.63 40.75L40.63 39.38L41.75 38.25L42.38 37.75L43.13 37.25L43.63 37L44 36.75L44.75 36.63L45.25 36.75ZM39.75 36.25L40.88 35.88L41.38 35.75L42.25 35.75L43 35.88L43.75 36.25L44 36.38L43.38 36.75L43 36.75L42.25 37.13L41.38 37.75L40.63 38.38L40 39.25L39.25 40.25L38.63 41.38L37.88 42.75L37.25 44.25L37 45.13L36.75 45.63L34.25 44.88L34.38 43.88L34.63 43.13L34.88 42.13L35.13 41.63L35.63 40.63L36.25 39.63L36.75 38.75L37.50 37.88L38.25 37.25L39.13 36.63L39.75 36.25ZM37.50 35.25L37.50 35.25L38.25 35.25L39.25 35.50L39.75 35.75L39.63 35.75L39.25 36L38.25 36.50L37.50 37.13L36.75 37.75L36.25 38.50L35.63 39.25L34.75 40.88L34.50 41.75L34.25 42.63L34.13 43L34.13 43.13L34 43.75L33.88 44.25L33.75 44.63L33.75 44.75L33.38 44.75L31.88 44.25L32.13 43.75L32.75 41.88L33.38 40.13L34 38.75L34.25 38.13L35.13 36.88L35.50 36.38L35.88 36L36.25 35.75L36.75 35.63L37.50 35.25ZM33.88 34.75L33.88 34.75L34.63 34.50L35.25 34.38L35.88 34.50L36.50 34.75L36.75 34.88L36 35.25L35.88 35.25L35.25 35.75L34.75 36.38L34.25 37.13L33.75 38L33.75 38.38L33.25 39L31.75 42.63L31.63 43.25L31.38 43.75L31 43.75L30.75 43.63L30 43.25L29.25 43.13L29.25 42.25L29.50 41.25L29.75 40.25L30.63 38.50L31 37.75L31.75 36.75L32.50 35.88L33.38 35.13L33.50 35.13L33.88 34.75ZM30.50 34L30.50 34L31.13 33.75L31.75 33.63L32.25 33.75L32.75 34L33.25 34.50L33 34.63L32.88 34.63L32.25 35.13L31.63 35.75L31 36.38L30.38 37.25L30.25 37.50L30.13 38L29.75 38.63L29.25 39.75L28.88 41.13L28.63 42.50L28.50 43L27.75 42.75L26.50 42.25L26.63 41.75L26.63 41.63L27.13 39.75L27.25 39.13L27.75 38L28.25 37L28.50 36.50L29.13 35.63L29.50 35.25L30.25 34.38L30.50 34ZM25.25 41.13L25.25 41.13L25.50 39.75L25.75 38.50L26.25 37.25L26.63 36.13L27 35.25L27.38 34.50L27.75 34L28.13 33.75L28.50 33.50L28.75 33.38L29.25 33.38L29.88 33.63L30.13 33.75L29.75 34.13L29.13 34.75L28.63 35.50L28 36.38L27.50 37.25L27.13 38.25L26.75 39.25L26.38 40L26.25 40.88L26.13 41.50L26 42L25.75 42L25.25 41.75L25.13 41.75L25.25 41.13ZM23 45.50L23 45.50L22.75 47L22.75 48.25L22.75 49.25L22.75 50.25L23 51.13L23.13 51.25L22.75 51.25L22 50.75L21.63 50.25L21 49.25L21 48.75L21.13 48.13L21.25 47.38L21.75 46.13L22.13 45.50L22.38 45L22.88 44L23.25 44.13L23.50 44.25L23.38 44.75L23.38 44.88L23 45.50ZM25.38 53.38L25.38 53.38L25 53.25L24.38 52.88L24.13 52.63L23.75 52.25L23.50 51.25L23.25 50.38L23.25 49.88L23.25 48.88L23.38 46.75L23.63 45.75L23.75 45.25L24 44.38L25.75 45L25.50 46L25.25 47.25L25.25 48.38L25.25 49L25.25 50.25L25.50 51.50L25.63 51.75L25.88 52.75L26.13 53.38L25.38 53.38ZM29 54.63L28.75 54.88L28.13 54.88L27.50 54.75L27 54.25L26.63 53.75L26.25 53.13L25.88 52.25L25.75 51.50L25.75 51.38L25.50 49.63L25.50 48.63L25.63 46.75L25.75 46L25.88 45.25L26 44.88L27.88 45.63L27.75 46L27.63 47.25L27.50 48.50L27.50 49.75L27.75 51.50L28.13 52.75L28.63 53.75L29 54.50L29 54.63ZM32.38 56.25L32.38 56.25L31.75 56.25L31.13 55.88L30.50 55.50L30 55L29.63 54.38L28.75 52.75L28.50 52L28.25 51.13L28.13 49.25L28.13 48.38L28.25 47.50L28.38 46.63L28.63 46L30.88 46.75L31 50.88L31.13 51.50L31.13 52.13L31.25 53.75L31.75 55.13L32 55.75L32.25 56.25L32.38 56.25ZM33.75 56.75L33.75 56.75L33.75 56.63L33.88 56.63L33 56.13L32.75 55.88L32.38 55.38L32 54.38L31.75 53.75L31.63 52.25L31.50 51.25L31.50 50L31.38 47.25L31.38 46.63L31.88 46.75L32.25 46.88L33.25 47.25L33.25 48.88L33 51.13L33 51.50L33.25 52.50L33.38 53.38L33.50 54L33.50 54.25L33.75 55.25L33.75 55.38L33.88 56L34.25 56.63L34.38 56.88L33.75 56.75ZM37.63 58.25L37.63 58.25L36.75 58L35.88 57.75L35.38 57.25L35.25 57.13L34.75 56.63L34.38 55.88L34.13 55.25L33.75 54.13L33.75 53.38L33.75 51.25L33.75 49.75L33.75 48.75L33.63 47.50L35.25 48L35.13 48.88L35 50L35 51.38L35.13 52.25L35.25 53.13L35.75 54.88L36.13 55.38L36.75 56.63L37.25 57.50L37.88 58.25L38 58.38L37.63 58.25ZM41.75 59.63L41.75 59.63L41 59.63L40.25 59.38L39.63 59L38 57.38L37.25 56.50L36.75 55.50L36.63 55L36.25 54.25L36 53.13L35.75 52L35.50 51L35.50 49.88L35.63 48.75L35.75 48.13L37.88 48.75L37.88 50.25L38 51.63L38.25 53.25L38.50 54L38.75 54.75L39 55L39.13 55.25L39.50 56.25L39.63 56.50L39.75 56.75L40 57.25L40.25 57.63L40.50 58L41.13 58.75L41.75 59.25L42 59.50L41.75 59.63ZM44.75 60.13L44.75 60.13L44.25 60.13L43.75 60L43.13 59.75L42.50 59.38L41.50 58.38L40.88 57.75L40.75 57.38L40.50 57L40.25 56.50L40 56.13L39.50 54.88L39.25 54.38L39.25 53.88L39 52.75L38.75 51.50L38.75 50.13L38.75 48.88L41.13 49.75L42.25 50L42.38 50L42.63 52.63L42.75 53.13L42.75 53.25L42.88 55.13L43 56.13L43.25 57L43.50 57.88L43.88 58.75L44.38 59.38L44.75 59.75L44.88 59.75L44.75 60.13ZM47.75 60.75L47.75 60.75L46.75 60.63L45.88 60.25L45.25 59.88L45 59.63L44.75 59.25L44.25 58.75L44 58.25L43.75 57.63L43.38 56.25L43.25 55.50L43.13 54L43 53.25L43 52.13L42.88 50.38L42.88 50L43.25 50.13L43.63 50.25L45.25 50.63L45.38 52.75L45.75 54.75L46 56.13L46.38 57.25L46.50 57.50L46.88 58.38L47.38 59.25L48 59.88L48.50 60.38L47.75 60.75ZM51.38 61.25L51.38 61.25L50.50 61.25L49.75 60.88L49.25 60.63L48.25 59.75L47.50 58.50L47 57.50L46.75 56.75L46.75 56.63L46.25 54.75L46 52.88L45.75 50.88L46.63 51.13L47.25 51.25L47.50 51.25L47.88 51.38L48.13 51.38L48.25 52.25L48.38 53.38L48.38 53.50L48.50 53.75L48.75 55.25L49 56L49.25 56.75L49.38 57.13L49.38 57.25L49.50 57.50L49.50 57.63L49.75 58.13L50 58.75L50.25 59.38L51 60.25L51.38 60.75L51.75 61L52 61.25L51.38 61.25ZM54.75 61.75L54.75 61.75L53.75 61.63L53 61.25L52.25 60.88L51.63 60.25L51 59.63L50.50 58.75L50.13 58L50 57.75L49.63 57L49.25 56.25L49 55.25L48.63 53.75L48.50 53.38L48.25 51.63L50.38 52.25L50.38 52.63L50.63 53.75L51 55.25L51.63 56.75L51.88 57.50L52.25 58.25L53.50 60.25L54 60.88L54.25 61.25L54.38 61.38L54.88 61.75L54.75 61.75ZM58.25 62.38L58.25 62.38L57.25 62.25L56.38 62L55.63 61.50L55 60.88L54.75 60.50L53.88 59.25L53.13 58L52.88 57.63L52.50 57L52.13 56L51.75 55L51.50 54.13L51.13 52.25L51.13 52.25L52.75 52.63L53.75 52.75L54.38 55.13L54.88 56.75L55.13 57.38L55.88 59.25L56.25 59.75L56.63 60.50L57 61.13L57.50 61.75L58 62.25L58.25 62.38L58.25 62.38ZM60.88 62L60.88 62L59.25 62L58.63 61.75L58 61.25L57.38 60.63L56.88 59.75L56.38 58.75L55.50 56.38L55 54.63L54.38 53L56.13 53.25L56.25 53.75L56.25 54.50L56.63 55.75L57 57.25L57.25 57.75L57.63 58.25L57.88 58.88L57.88 59.13L58.25 59.75L58.38 59.88L58.75 60.50L60 61.75L60.25 61.75L60.88 62ZM63.50 62.63L63.50 62.63L62.75 62.38L62 62.13L61.25 61.75L60.88 61.38L60.75 61.25L60.25 60.88L59.75 60.38L59.38 59.88L59 59.63L58.88 59.50L58.38 58.75L58.13 58.25L58 57.88L57.50 57L57.25 56.13L56.63 54.13L56.50 53.38L58 53.75L58.38 53.75L58.75 53.88L58.88 54L59.13 54.75L59.13 55L59.25 56L59.63 57L59.75 57.25L59.75 57.50L60.25 58.75L61 59.88L61.38 60.50L61.88 61.13L62.50 61.63L62.88 62L63.75 62.63L64 62.75L64.25 62.88L63.50 62.63ZM68.63 63.25L68.63 63.25L67.63 63.25L66.63 63L65.75 62.75L64.75 62.25L64.25 62L63.50 61.38L62.75 60.88L62 60.13L61.38 59.25L60.88 58.50L60.50 57.63L60.25 56.75L59.63 54.75L59.38 54L61.75 54.38L61.75 55L61.75 55.38L61.88 55.75L62 55.88L62.13 56L62 56L62 56.38L62.38 57.13L62.88 58L63.38 58.75L64 59.63L64.63 60.25L65.25 61L66 61.63L67.63 62.63L67.88 62.75L68 62.75L68.63 63.13L68.63 63.25ZM70.38 63.25L70.38 63.25L69.50 63.13L68.63 62.75L68.13 62.63L66.75 61.75L64.88 60.25L63.88 59.13L63.50 58.50L63.13 57.75L63 56.88L62.75 56.25L62.50 55.25L62.50 55L62.38 54.38L64.25 54.75L65 56.38L65.38 57.25L65.88 58.13L66.63 59.50L67.38 60.63L68.38 61.63L68.75 61.75L69 62.13L69.75 62.75L70.75 63.25L71 63.25L70.38 63.25ZM75.25 63.75L75.25 63.75L74 63.75L72.88 63.50L71.88 63.25L71.25 63L70.50 62.63L69.75 62.25L69.25 61.75L67.88 60.38L67.25 59.63L66.75 58.75L66.50 58.25L64.75 54.75L66.25 55L67.25 55.13L67.63 56L67.88 56.63L68.75 58.13L69.75 59.38L70.25 60L70.88 60.63L71.50 61.13L72.75 62.13L73.50 62.63L74.25 63L74.75 63.25L75.25 63.50L75.50 63.63L75.75 63.75L75.25 63.75ZM71.13 56.25L71.13 56.25L72.25 57.25L73.25 58.50L75 60.38L77.50 62.88L78.75 64L78.88 64.13L77.88 64L77.13 63.75L75.63 63.25L74.75 62.88L74.50 62.75L73.63 62.25L72.75 61.63L71.13 60.25L70.25 59.38L69.63 58.63L68.38 56.75L67.88 55.88L67.75 55.75L67.63 55.25L69.38 55.38L70 55.50L71.13 56.25ZM71.50 52.88L70.25 52.88L68.88 52.75L69 52.75L69.38 52.38L71.38 50.75L74.25 48.38L75.50 47.25L77 46.25L77.75 45.75L78.50 45.25L79.25 44.88L79.88 44.75L80.75 44.63L81.38 44.75L82.13 44.88L82.38 44.88L81.38 45.38L81.38 45.63L81.25 45.75L79.75 46.25L79 46.75L78.25 47.25L77 48.25L73.75 51.25L72.25 52.38L71.50 52.88ZM72.75 53.13L72.75 53.13L72.38 53.25L71.88 53.25L73.25 52.25L74.75 50.88L76.38 49.38L78 48.13L78.75 47.50L79.75 47L80.63 46.63L81.50 46.25L82.25 46.25L83.50 46.13L84.63 46.25L85 46.25L84.63 46.38L82.63 47.38L80.75 48.63L80 49.25L78.50 50.63L76.88 52L76.75 52.13L76.13 52.75L75.38 53.25L74.88 53.38L74.75 53.25L74.25 53L74 53L72.75 53.13ZM84.63 64.38L84.63 64.38L83.63 64.13L82.75 63.75L82.25 63.50L82 63.38L80.75 62.63L79.63 61.50L77.25 59.25L75.88 57.75L75.25 56.88L74.38 56.25L74.25 56L76 56.25L76.13 56.25L76.75 56.38L76.75 56.38L77.25 56.75L78.63 58L81 60.75L81.88 61.63L83.88 63.38L84.88 64.13L85.75 64.50L84.63 64.38ZM89.25 64.75L89.25 64.75L88.25 64.75L87.25 64.63L86.63 64.25L85.88 64L84.13 62.75L82.50 61.38L81.75 60.75L80.50 59.25L79.88 58.63L78.75 57.38L78.25 56.88L77.75 56.50L77.63 56.38L79.25 56.63L80.13 56.63L80.75 57.25L81.50 57.88L84.25 61L85.13 61.75L86.25 62.75L86.25 62.88L86.50 63L87.38 63.63L88.25 64.13L89.25 64.50L89.63 64.63L89.25 64.75ZM91.38 64.38L91.38 64.38L90.38 64.25L89.88 64.25L89.38 64L88.63 63.63L87.25 62.75L86.75 62.38L85.38 61.25L85.13 61L84.13 59.88L82.38 57.88L81.75 57.25L80.88 56.50L81.38 56.50L82 56.63L83.25 56.75L83.63 56.75L84.63 56.88L85.13 56.88L85.75 58L86.63 59L87.25 60L88 60.88L89.25 62.25L90 62.88L90.75 63.38L91.13 63.75L91.25 63.88L91.75 64.25L92.25 64.38L91.38 64.38ZM94.75 64.38L94.75 64.38L94.13 64.38L93.75 64.25L93.75 64.25L93.38 64.25L92.88 64.13L92.25 63.88L91.75 63.63L91.50 63.38L90.88 63L90.25 62.50L89 61.25L88.38 60.75L86.75 58.75L86.38 58.13L85.75 56.88L88 57L89 57L89.38 57.50L91.13 59.50L91.50 60.13L92.25 61.13L94 63L95.50 64.25L94.75 64.38ZM98 64.38L98 64.38L97.50 64.50L97 64.38L96.38 64.25L95.75 63.75L95.25 63.25L94.63 62.75L94 62L92.75 60.63L90.88 58.38L89.88 57.25L92.25 57.38L94.50 60.38L94.75 60.75L94.75 60.75L94.88 61L95 61.13L95.88 62.25L97.25 63.50L98 64L98.25 64.13L98 64.38ZM102.63 64L102.63 64L101.75 64.38L101 64.63L100.25 64.63L99.63 64.50L98.88 64.25L98.50 64.13L97.75 63.50L96.25 62.25L95.25 61L94.75 60.38L92.75 57.25L94 57L94.25 57L94.88 57.38L95.38 58.25L96.50 59.75L98.50 61.75L99 62.25L99.25 62.25L99.50 62.50L100.38 63L100.63 63.13L101.75 63.50L102.25 63.75L102.75 63.75L102.88 63.75L102.63 64ZM104.50 63.38L104.50 63.38L102.88 63.25L101.50 62.75L100.75 62.50L99.75 61.75L98.50 60.88L98 60.75L97.50 60.25L97 59.63L95.88 58.25L95.75 57.75L98.75 58.13L99.75 59.25L101.50 61L103.63 62.50L104.38 63L105.13 63.38L105.25 63.50L104.50 63.38ZM102.88 59.25L102.88 59.25L103.50 59.75L104.25 60.25L106 61.63L107 62.25L107.88 62.88L108.38 63.25L109 63.63L108.25 63.75L106.75 63.50L106.63 63.38L105.75 63L105 62.75L103.75 61.88L103.13 61.50L101.38 60.13L100.88 59.63L99.50 58.13L100.63 58.13L101.88 58.25L102 58.25L102.50 58.75L102.88 59.25ZM105.38 57.13L105.38 57.13L104.50 57L102.88 56.88L102.25 56.75L104.25 55.38L106.25 54.25L107.25 53.75L108.25 53.25L109.38 52.88L110.25 52.63L110.75 52.50L111.25 52.38L112.13 52.38L112.75 52.50L113.25 52.75L113.50 53.13L113.25 53.25L112.75 53.38L112 53.75L111.50 54L110.63 54.38L107.88 55.88L106.75 56.50L105.38 57.13ZM106.63 57.25L107.88 56.38L109 55.75L109.88 55.25L112.13 54.25L113.13 53.75L114.13 53.50L114.63 53.38L115.38 53.38L115.25 53.50L114.25 53.88L112.75 54.75L111.25 55.63L109.38 56.75L108.63 57.50L107.25 57.25L106.63 57.25ZM115 63.75L115 63.75L114.63 63.75L114.13 63.63L113.63 63.38L113.13 63.13L112.88 63L110.25 61.25L108.50 60.13L108.25 59.88L107.50 59.50L106.75 59L106.38 58.38L106.50 58L107 58L108.38 58.50L108.75 58.88L110.25 60.50L111.63 61.63L113.13 62.75L113.88 63.25L114.75 63.63L115.13 63.75L115.25 63.75L115.50 63.75L115 63.75ZM117.75 63.38L117.13 63.50L116.25 63.50L115.75 63.25L115.25 63.25L114.75 63L114.25 62.75L112.88 61.88L111.13 60.63L109.75 59.38L109.25 59L110.38 59.13L112.13 59.25L114.25 61.13L115.75 62.38L116.63 62.88L117.50 63.25L117.75 63.38ZM119.75 63L119.75 63L119.25 63.13L118.75 63.13L118.25 63L117.25 62.63L116.75 62.25L116 62L114.88 61.13L112.75 59.25L113.88 59.25L115.13 59.38L115.25 59.63L115.50 60.13L115.63 60.25L116.38 61.13L116.88 61.50L117.38 61.75L117.63 61.88L117.75 62L117.88 62.13L118 62.25L118.63 62.50L119 62.63L119.88 62.75L120.25 62.75L119.75 63ZM119.25 60.63L119.25 60.63L119.63 60.88L120.13 61.25L120.38 61.50L121.25 61.88L121.50 62L122.38 62.25L122.25 62.25L121.75 62.13L121.13 62.13L120.75 62.25L120.25 62.38L119.88 62.38L118.75 62.13L118.13 61.75L117.75 61.75L117.25 61.38L117.25 61.38L116.25 60.63L116.13 60.25L116 60.13L115.75 59.75L115.75 59.75L116.38 59.75L118.25 59.88L118.50 60.25L118.75 60.63L119.25 60.63ZM120.75 58.75L120.75 58.75L120.50 58.75L120.38 58.88L120.25 58.88L119 58.75L119.50 58.25L119.75 58L120.38 57.75L120.88 57.50L121.75 57.25L122.75 57.25L123.13 57.25L123.63 57.25L124.25 57.50L123.50 57.50L123 57.63L122.88 57.63L122.63 57.75L121.88 57.88L121.50 58.13L120.75 58.75ZM121.25 58.88L121.25 58.88L123 58.25L123.38 58.25L123.88 58.13L124.75 58.13L125 58.25L125.13 58.38L125.25 58.75L125.25 58.88L124.75 58.88L124.25 59L122.75 59.38L122.75 59.50L121.25 59.25L121.25 58.88ZM124.88 61.25L124.88 61.25L124.75 61.50L124.75 61.63L124.50 61.63L123.88 61.38L123.25 61.13L122.25 60.50L121.25 59.75L122.63 60L124.75 61.13L124.88 61.25L125 61.25L124.88 61.25ZM125.50 60.63L125.50 60.63L125.38 60.75L125.13 60.75L124.38 60.50L123.75 60.25L125 60.25L125.13 60.25L125.63 60.38L125.50 60.63ZM125.75 59.75L125.63 59.88L125.13 59.75L123.75 59.50L124.75 59.25L125.25 59.25L125.50 59.38L125.75 59.75ZM14.75 71L14.75 71L7.38 91L12.63 91L14 87L21.50 87L22.88 91L28.25 91L20.88 71L14.75 71ZM20.25 83L15.25 83L17.75 75.75L20.25 83ZM40.75 75.25L40.75 75.25Q40 75.25 39.38 75.38Q38.75 75.50 38.25 75.75L38.25 75.75Q37.63 76.13 37.19 76.50Q36.75 76.88 36 77.25L36 77.25L36 76L31 76L31 96L36 96L36 90.13Q36 90.38 36.63 90.56Q37.25 90.75 37.75 90.88L37.75 90.88Q38.13 91 38.69 91.13Q39.25 91.25 39.75 91.25L39.75 91.25Q40.50 91.25 41.13 91.06Q41.75 90.88 42.38 90.75L42.38 90.75Q43 90.50 43.56 90.06Q44.13 89.63 44.63 89.13L44.63 89.13Q45 88.63 45.38 88Q45.75 87.38 46.13 86.63L46.13 86.63Q46.38 85.88 46.56 85Q46.75 84.13 46.75 83.25L46.75 83.25Q46.75 81.38 46.31 79.94Q45.88 78.50 45.13 77.50L45.13 77.50Q44.25 76.50 43.25 75.88Q42.25 75.25 40.75 75.25L40.75 75.25ZM40.75 86.63L40.75 86.63Q40.38 87.25 39.63 87.50Q38.88 87.75 37.88 87.75L37.88 87.75Q37.63 87.75 37.44 87.69Q37.25 87.63 36.88 87.63L36.88 87.63Q36.63 87.63 36.31 87.56Q36 87.50 36 87.38L36 87.38L36 79.75Q36 79.63 36.44 79.44Q36.88 79.25 37.25 79.25L37.25 79.25Q37.63 79.13 38 79.06Q38.38 79 38.75 79L38.75 79Q39.50 79 40.13 79.25Q40.75 79.50 41.13 80L41.13 80Q41.50 80.50 41.63 81.31Q41.75 82.13 41.75 83.25L41.75 83.25Q41.75 84.38 41.50 85.19Q41.25 86 40.75 86.63L40.75 86.63ZM62.25 76.50L62.25 76.50Q61.38 75.88 59.88 75.56Q58.38 75.25 56.38 75.25L56.38 75.25Q55.50 75.25 54.56 75.31Q53.63 75.38 52.75 75.50L52.75 75.50Q51.75 75.63 51.25 75.75Q50.75 75.88 50 76L50 76L50 80L50.88 80Q51.25 80 51.75 79.69Q52.25 79.38 52.88 79.25L52.88 79.25Q53.63 79 54.25 78.88Q54.88 78.75 55.50 78.75L55.50 78.75Q56.50 78.75 57.13 78.81Q57.75 78.88 58.25 79.13L58.25 79.13Q58.88 79.38 58.94 79.81Q59 80.25 59 80.75L59 80.75L59 80.88Q58.25 81 57.19 81.06Q56.13 81.13 55.13 81.25L55.13 81.25Q54.13 81.50 53.38 81.69Q52.63 81.88 51.88 82.25L51.88 82.25Q51.25 82.50 50.75 82.94Q50.25 83.38 49.88 83.88L49.88 83.88Q49.50 84.38 49.38 85.06Q49.25 85.75 49.25 86.63L49.25 86.63Q49.25 87.63 49.63 88.50Q50 89.38 50.75 90L50.75 90Q51.50 90.63 52.38 90.94Q53.25 91.25 54.25 91.25L54.25 91.25Q54.75 91.25 55.19 91.19Q55.63 91.13 56 91.13L56 91.13Q56.38 91 56.75 90.88Q57.13 90.75 57.50 90.63L57.50 90.63Q57.75 90.50 57.94 90.31Q58.13 90.13 58.38 89.88L58.38 89.88Q58.75 89.63 58.94 89.50Q59.13 89.38 59.13 89.25L59.13 89.25L59.13 91L64.13 91L64.13 80.50Q64 79.13 63.63 78.13Q63.25 77.13 62.25 76.50L62.25 76.50ZM58.88 86.88L59 86.88Q59 87.13 58.63 87.31Q58.25 87.50 57.88 87.75L57.88 87.75Q57.50 87.88 57.19 87.94Q56.88 88 56.50 88L56.50 88Q56 88 55.69 88Q55.38 88 55.25 87.88L55.25 87.88Q55 87.88 54.81 87.75Q54.63 87.63 54.50 87.50L54.50 87.50Q54.38 87.38 54.25 87.19Q54.13 87 54.13 86.88L54.13 86.88Q54 86.75 54 86.56Q54 86.38 54 86.13L54 86.13Q54 85.75 54.06 85.44Q54.13 85.13 54.38 84.88L54.38 84.88Q54.63 84.63 54.88 84.50Q55.13 84.38 55.50 84.25L55.50 84.25Q55.75 84.13 56.06 84.06Q56.38 84 57 83.88L57 83.88L58.88 83.75L58.88 86.88ZM76.50 75.25L76.50 75.25Q75.63 75.25 74.81 75.31Q74 75.38 73.25 75.63L73.25 75.63Q72.38 75.88 71.69 76.19Q71 76.50 70.38 77L70.38 77Q69.75 77.50 69.25 78.13Q68.75 78.75 68.38 79.63L68.38 79.63Q68 80.38 67.88 81.31Q67.75 82.25 67.75 83.25L67.75 83.25Q67.75 84.25 67.88 85.13Q68 86 68.38 86.75L68.38 86.75Q68.75 87.50 69.25 88.13Q69.75 88.75 70.25 89.25L70.25 89.25Q70.88 89.88 71.63 90.19Q72.38 90.50 73.25 90.75L73.25 90.75Q74 91 74.94 91.13Q75.88 91.25 76.75 91.25L76.75 91.25Q77.50 91.25 78.25 91.19Q79 91.13 79.63 91L79.63 91Q80.25 90.88 80.81 90.63Q81.38 90.38 82.13 90.13L82.13 90.13L82.13 86L81.25 86Q81.13 86 81 86.25Q80.88 86.50 80.75 86.63L80.75 86.63Q80.50 86.75 80.31 86.88Q80.13 87 79.88 87.25L79.88 87.25Q79.63 87.38 79.38 87.44Q79.13 87.50 78.75 87.75L78.75 87.75Q78.38 87.75 77.94 87.81Q77.50 87.88 77 87.88L77 87.88Q76 87.88 75.25 87.63Q74.50 87.38 74 86.75L74 86.75Q73.50 86.25 73.19 85.38Q72.88 84.50 72.88 83.50L72.88 83.50Q72.88 82.50 73.13 81.63Q73.38 80.75 73.88 80.13L73.88 80.13Q74.38 79.50 75.13 79.19Q75.88 78.88 76.88 78.88L76.88 78.88Q77.38 78.88 77.75 78.94Q78.13 79 78.38 79.13L78.38 79.13Q78.75 79.13 79 79.31Q79.25 79.50 79.63 79.63L79.63 79.63Q79.88 79.75 80.13 80Q80.38 80.25 80.63 80.38L80.63 80.38Q80.88 80.50 81 80.50Q81.13 80.50 81.25 81.25L81.25 81.25L82 81.25L82 76.75Q81.25 76.38 80.69 76.19Q80.13 76 79.50 75.75L79.50 75.75Q78.88 75.50 78.13 75.38Q77.38 75.25 76.50 75.25L76.50 75.25ZM95.13 75.25L95.13 75.25Q94.38 75.25 93.75 75.38Q93.13 75.50 92.50 75.75L92.50 75.75Q91.88 76 91.31 76.38Q90.75 76.75 90 77.25L90 77.25L90 70L85 70L85 91L90 91L90 80.13Q90.75 79.88 90.94 79.69Q91.13 79.50 91.50 79.38L91.50 79.38Q91.88 79.38 92.19 79.31Q92.50 79.25 92.75 79.25L92.75 79.25Q93.25 79.25 93.63 79.31Q94 79.38 94.25 79.38L94.25 79.38Q94.50 79.50 94.75 79.69Q95 79.88 95.13 80.13L95.13 80.13Q95.25 80.38 95.19 80.69Q95.13 81 95.25 81.38L95.25 81.38Q95.25 81.88 95.19 82.31Q95.13 82.75 95.13 83.25L95.13 83.25L95.13 91L100.13 91L100.13 81Q100.13 79.63 99.88 78.56Q99.63 77.50 98.88 76.75L98.88 76.75Q98.13 76 97.25 75.63Q96.38 75.25 95.13 75.25L95.13 75.25ZM112.38 75.25L112.38 75.25Q110.38 75.25 108.81 75.75Q107.25 76.25 106.13 77.38L106.13 77.38Q105 78.50 104.38 80Q103.75 81.50 103.75 83.38L103.75 83.38Q103.75 85.25 104.38 86.75Q105 88.25 106.25 89.25L106.25 89.25Q107.38 90.38 109.19 90.88Q111 91.38 113.25 91.38L113.25 91.38Q114.13 91.38 115.06 91.31Q116 91.25 116.75 91.13L116.75 91.13Q117.50 91 118.06 90.75Q118.63 90.50 120.13 90.13L120.13 90.13L120.13 86.13L119.13 86.13Q118.63 86.88 118.06 87Q117.50 87.13 116.75 87.25L116.75 87.25Q116 87.63 115.25 87.75Q114.50 87.88 113.75 87.88L113.75 87.88Q112.63 87.88 111.69 87.63Q110.75 87.38 110.13 86.88L110.13 86.88Q109.50 86.50 109.13 85.69Q108.75 84.88 108.75 84.13L108.75 84.13L120 84.13L120 82.63Q120 80.88 119.50 79.50Q119 78.13 118 77.25L118 77.25Q117.13 76.13 115.69 75.69Q114.25 75.25 112.38 75.25L112.38 75.25ZM114.88 81L108.63 81Q108.63 80.25 108.88 79.69Q109.13 79.13 109.63 78.75L109.63 78.75Q110 78.38 110.63 78.25Q111.25 78.13 111.88 78.13L111.88 78.13Q112.63 78.13 113.19 78.25Q113.75 78.38 114.13 78.75L114.13 78.75Q114.50 79.13 114.69 79.69Q114.88 80.25 114.88 81L114.88 81Z"/></svg>