<svg xmlns="http://www.w3.org/2000/svg" xmlns:xlink="http://www.w3.org/1999/xlink" width="128" height="128"><path fill="#ffffff" d="M14.75 71L14.75 71L7.38 91L12.63 91L14 87L21.50 87L22.88 91L28.25 91L20.88 71L14.75 71ZM20.25 83L15.25 83L17.75 75.75L20.25 83ZM40.75 75.25L40.75 75.25Q40 75.25 39.38 75.38Q38.75 75.50 38.25 75.75L38.25 75.75Q37.63 76.13 37.19 76.50Q36.75 76.88 36 77.25L36 77.25L36 76L31 76L31 96L36 96L36 90.13Q36 90.38 36.63 90.56Q37.25 90.75 37.75 90.88L37.75 90.88Q38.13 91 38.69 91.13Q39.25 91.25 39.75 91.25L39.75 91.25Q40.50 91.25 41.13 91.06Q41.75 90.88 42.38 90.75L42.38 90.75Q43 90.50 43.56 90.06Q44.13 89.63 44.63 89.13L44.63 89.13Q45 88.63 45.38 88Q45.75 87.38 46.13 86.63L46.13 86.63Q46.38 85.88 46.56 85Q46.75 84.13 46.75 83.25L46.75 83.25Q46.75 81.38 46.31 79.94Q45.88 78.50 45.13 77.50L45.13 77.50Q44.25 76.50 43.25 75.88Q42.25 75.25 40.75 75.25L40.75 75.25ZM40.75 86.63L40.75 86.63Q40.38 87.25 39.63 87.50Q38.88 87.75 37.88 87.75L37.88 87.75Q37.63 87.75 37.44 87.69Q37.25 87.63 36.88 87.63L36.88 87.63Q36.63 87.63 36.31 87.56Q36 87.50 36 87.38L36 87.38L36 79.75Q36 79.63 36.44 79.44Q36.88 79.25 37.25 79.25L37.25 79.25Q37.63 79.13 38 79.06Q38.38 79 38.75 79L38.75 79Q39.50 79 40.13 79.25Q40.75 79.50 41.13 80L41.13 80Q41.50 80.50 41.63 81.31Q41.75 82.13 41.75 83.25L41.75 83.25Q41.75 84.38 41.50 85.19Q41.25 86 40.75 86.63L40.75 86.63ZM62.25 76.50L62.25 76.50Q61.38 75.88 59.88 75.56Q58.38 75.25 56.38 75.25L56.38 75.25Q55.50 75.25 54.56 75.31Q53.63 75.38 52.75 75.50L52.75 75.50Q51.75 75.63 51.25 75.75Q50.75 75.88 50 76L50 76L50 80L50.88 80Q51.25 80 51.75 79.69Q52.25 79.38 52.88 79.25L52.88 79.25Q53.63 79 54.25 78.88Q54.88 78.75 55.50 78.75L55.50 78.75Q56.50 78.75 57.13 78.81Q57.75 78.88 58.25 79.13L58.25 79.13Q58.88 79.38 58.94 79.81Q59 80.25 59 80.75L59 80.75L59 80.88Q58.25 81 57.19 81.06Q56.13 81.13 55.13 81.25L55.13 81.25Q54.13 81.50 53.38 81.69Q52.63 81.88 51.88 82.25L51.88 82.25Q51.25 82.50 50.75 82.94Q50.25 83.38 49.88 83.88L49.88 83.88Q49.50 84.38 49.38 85.06Q49.25 85.75 49.25 86.63L49.25 86.63Q49.25 87.63 49.63 88.50Q50 89.38 50.75 90L50.75 90Q51.50 90.63 52.38 90.94Q53.25 91.25 54.25 91.25L54.25 91.25Q54.75 91.25 55.19 91.19Q55.63 91.13 56 91.13L56 91.13Q56.38 91 56.75 90.88Q57.13 90.75 57.50 90.63L57.50 90.63Q57.75 90.50 57.94 90.31Q58.13 90.13 58.38 89.88L58.38 89.88Q58.75 89.63 58.94 89.50Q59.13 89.38 59.13 89.25L59.13 89.25L59.13 91L64.13 91L64.13 80.50Q64 79.13 63.63 78.13Q63.25 77.13 62.25 76.50L62.25 76.50ZM58.88 86.88L59 86.88Q59 87.13 58.63 87.31Q58.25 87.50 57.88 87.75L57.88 87.75Q57.50 87.88 57.19 87.94Q56.88 88 56.50 88L56.50 88Q56 88 55.69 88Q55.38 88 55.25 87.88L55.25 87.88Q55 87.88 54.81 87.75Q54.63 87.63 54.50 87.50L54.50 87.50Q54.38 87.38 54.25 87.19Q54.13 87 54.13 86.88L54.13 86.88Q54 86.75 54 86.56Q54 86.38 54 86.13L54 86.13Q54 85.75 54.06 85.44Q54.13 85.13 54.38 84.88L54.38 84.88Q54.63 84.63 54.88 84.50Q55.13 84.38 55.50 84.25L55.50 84.25Q55.75 84.13 56.06 84.06Q56.38 84 57 83.88L57 83.88L58.88 83.75L58.88 86.88ZM76.50 75.25L76.50 75.25Q75.63 75.25 74.81 75.31Q74 75.38 73.25 75.63L73.25 75.63Q72.38 75.88 71.69 76.19Q71 76.50 70.38 77L70.38 77Q69.75 77.50 69.25 78.13Q68.75 78.75 68.38 79.63L68.38 79.63Q68 80.38 67.88 81.31Q67.75 82.25 67.75 83.25L67.75 83.25Q67.75 84.25 67.88 85.13Q68 86 68.38 86.75L68.38 86.75Q68.75 87.50 69.25 88.13Q69.75 88.75 70.25 89.25L70.25 89.25Q70.88 89.88 71.63 90.19Q72.38 90.50 73.25 90.75L73.25 90.75Q74 91 74.94 91.13Q75.88 91.25 76.75 91.25L76.75 91.25Q77.50 91.25 78.25 91.19Q79 91.13 79.63 91L79.63 91Q80.25 90.88 80.81 90.63Q81.38 90.38 82.13 90.13L82.13 90.13L82.13 86L81.25 86Q81.13 86 81 86.25Q80.88 86.50 80.75 86.63L80.75 86.63Q80.50 86.75 80.31 86.88Q80.13 87 79.88 87.25L79.88 87.25Q79.63 87.38 79.38 87.44Q79.13 87.50 78.75 87.75L78.75 87.75Q78.38 87.75 77.94 87.81Q77.50 87.88 77 87.88L77 87.88Q76 87.88 75.25 87.63Q74.50 87.38 74 86.75L74 86.75Q73.50 86.25 73.19 85.38Q72.88 84.50 72.88 83.50L72.88 83.50Q72.88 82.50 73.13 81.63Q73.38 80.75 73.88 80.13L73.88 80.13Q74.38 79.50 75.13 79.19Q75.88 78.88 76.88 78.88L76.88 78.88Q77.38 78.88 77.75 78.94Q78.13 79 78.38 79.13L78.38 79.13Q78.75 79.13 79 79.31Q79.25 79.50 79.63 79.63L79.63 79.63Q79.88 79.75 80.13 80Q80.38 80.25 80.63 80.38L80.63 80.38Q80.88 80.50 81 80.50Q81.13 80.50 81.25 81.25L81.25 81.25L82 81.25L82 76.75Q81.25 76.38 80.69 76.19Q80.13 76 79.50 75.75L79.50 75.75Q78.88 75.50 78.13 75.38Q77.38 75.25 76.50 75.25L76.50 75.25ZM95.13 75.25L95.13 75.25Q94.38 75.25 93.75 75.38Q93.13 75.50 92.50 75.75L92.50 75.75Q91.88 76 91.31 76.38Q90.75 76.75 90 77.25L90 77.25L90 70L85 70L85 91L90 91L90 80.13Q90.75 79.88 90.94 79.69Q91.13 79.50 91.50 79.38L91.50 79.38Q91.88 79.38 92.19 79.31Q92.50 79.25 92.75 79.25L92.75 79.25Q93.25 79.25 93.63 79.31Q94 79.38 94.25 79.38L94.25 79.38Q94.50 79.50 94.75 79.69Q95 79.88 95.13 80.13L95.13 80.13Q95.25 80.38 95.19 80.69Q95.13 81 95.25 81.38L95.25 81.38Q95.25 81.88 95.19 82.31Q95.13 82.75 95.13 83.25L95.13 83.25L95.13 91L100.13 91L100.13 81Q100.13 79.63 99.88 78.56Q99.63 77.50 98.88 76.75L98.88 76.75Q98.13 76 97.25 75.63Q96.38 75.25 95.13 75.25L95.13 75.25ZM112.38 75.25L112.38 75.25Q110.38 75.25 108.81 75.75Q107.25 76.25 106.13 77.38L106.13 77.38Q105 78.50 104.38 80Q103.75 81.50 103.75 83.38L103.75 83.38Q103.75 85.25 104.38 86.75Q105 88.25 106.25 89.25L106.25 89.25Q107.38 90.38 109.19 90.88Q111 91.38 113.25 91.38L113.25 91.38Q114.13 91.38 115.06 91.31Q116 91.25 116.75 91.13L116.75 91.13Q117.50 91 118.06 90.75Q118.63 90.50 120.13 90.13L120.13 90.13L120.13 86.13L119.13 86.13Q118.63 86.88 118.06 87Q117.50 87.13 116.75 87.25L116.75 87.25Q116 87.63 115.25 87.75Q114.50 87.88 113.75 87.88L113.75 87.88Q112.63 87.88 111.69 87.63Q110.75 87.38 110.13 86.88L110.13 86.88Q109.50 86.50 109.13 85.69Q108.75 84.88 108.75 84.13L108.75 84.13L120 84.13L120 82.63Q120 80.88 119.50 79.50Q119 78.13 118 77.25L118 77.25Q117.13 76.13 115.69 75.69Q114.25 75.25 112.38 75.25L112.38 75.25ZM114.88 81L108.63 81Q108.63 80.25 108.88 79.69Q109.13 79.13 109.63 78.75L109.63 78.75Q110 78.38 110.63 78.25Q111.25 78.13 111.88 78.13L111.88 78.13Q112.63 78.13 113.19 78.25Q113.75 78.38 114.13 78.75L114.13 78.75Q114.50 79.13 114.69 79.69Q114.88 80.25 114.88 81L114.88 81ZM127.25 58.38L127.25 58.38L127.13 58.25L127.13 57.88L127 57.50L126.75 57.25L126.38 57L126.25 57L126.25 56.75L125.63 56.38L125.25 56.25L125 56.25L124.63 55.88L124.13 55.63L123.50 55.25L122.88 55.13L122.75 55.13L122.25 54.50L121.63 54.13L121 53.75L120.38 53.63L120.25 53.63L119.75 53.25L118.88 52.88L118.38 52.75L117.88 52.38L117.38 52.25L116.38 52L115.88 52L115.25 52.13L115.25 52.13L114.75 51.50L114.25 51.13L113.38 50.88L112.50 50.88L111.50 51.13L111.13 51.25L110.25 50.88L109.50 50.75L106.88 50.75L105.88 50.25L105 50L104.13 49.88L103.50 49.88L102.75 49.13L101.75 48.50L101 48.13L100.25 47.88L99.38 47.88L99 48.25L98.50 47.75L97.88 47.50L97.25 47.38L96.63 47.50L95.88 47.25L95.25 47L94.25 47L93.13 46.63L91.88 46.25L90.75 46.25L90.63 46.25L89.38 45.50L88.25 45.25L87.25 45.25L85.50 44.75L84.38 44.75L83.88 44.75L83.25 44L82.38 43.50L81.50 43.25L80.63 43.38L80 43.63L79.25 43.50L77.38 43.50L77.38 43.25L76 43L74.63 42.75L73.25 42.75L72.75 42.75L72.75 42.75L70.75 42.50L70.75 42.50L69.63 42L68.50 41.75L67.50 41.63L66.75 41.63L65.63 41.25L64.75 41L63.75 41L62.63 40.25L61.75 39.88L61 39.75L60.25 39.38L59 39.25L57.88 39.25L56.75 38.75L55.75 38.50L55.25 38.50L54 37.88L53 37.63L52 37.50L51.75 37.63L51.75 37.63L50.38 36.75L49.25 36.38L48.25 36.25L48.25 36.25L47.50 35.75L46.88 35.50L46.25 35.25L45.63 35.25L44.88 35.25L44.13 34.75L43.38 34.38L42.50 34.25L41.75 34.25L40.75 34.50L40.63 34.63L39.63 34.13L38.63 33.75L37.75 33.75L36.88 33.25L36.25 33L35.38 33L34.75 33.13L34 33.25L33.88 33.25L33.25 32.63L32.63 32.25L31.88 32.13L31.25 32.25L30.63 32.50L30.38 32.38L30.13 32.25L29.50 32L28.75 32L28.50 32.13L28 32.38L27.88 32.50L27 32.25L26.25 32.25L25.50 32.50L24.88 33L24.50 33.50L24.25 34.25L23.88 35L23.75 35.75L23.63 36.63L23.50 38.25L23.63 40L23.63 40.25Q23.25 40.13 22.88 40Q22.50 39.88 22 39.75L22 39.75L22 39.25L22.13 38.75L22.25 37.38L22.25 36.25L22.25 35L22.13 34.38L21.88 33.38L21.75 32.88L21.50 32.50L20.88 31.75L20.25 31.25L20.50 32.13L20.75 33.25L20.75 33.75L20.88 34.38L21 34.88L20.63 33.75L20.25 32.75L20.25 32.38L20 31.13L20 30.75L20.13 30L20.25 29.75L20.38 29L20.25 29L19.75 29.63L19.13 31L19 31.63L19 33L19.25 34.38L19.13 34.25L18.50 33.50L17.88 32L17.75 31.25L17.75 30.25L17 30.88L16.75 31.50L16.50 32.13L16.50 32.75L16.63 33.25L16.75 33.88L17.25 34.75L17 34.88L16.38 34.75L16.25 35L16.75 35.25L17.13 35.50L18.13 36.25L18.38 36.63L18.88 37.25L20.25 38.63L20.63 39L20.75 39.25Q16.50 37.50 11.88 35.44Q7.25 33.38 1.75 30.75L1.75 30.75L1.25 30.50L1.50 30.88Q2.25 32.13 4.13 33.44Q6 34.75 7.88 35.88L7.88 35.88Q8.75 36.38 9.56 36.94Q10.38 37.50 11 37.88L11 37.88Q12.75 38.88 15 39.88Q17.25 40.88 19.38 41.75L19.38 41.75L19.25 41.75L17.25 42.13L15.75 42.38L14.38 42.88L13.75 43.25L13 43.38L12.38 43.75L11.88 44.25L11.38 44.75L11 45.25L10.75 45.75L10.50 46.50L10.75 46.63L11.63 45.75L12.75 44.88L13.38 44.63L13.75 44.50L14.13 44.38L14.75 44.25L15.50 44.13L16.13 43.88L17.38 43.25L18.63 42.38L19.13 42.13L19.50 41.88L19.75 41.75L20.38 42L18 43.25L16.75 44L16 44.50L14.75 45.50L14.25 46.13L14 46.63L13.75 47.25L13.75 47.75L13.75 48.50L14.25 49.38L14.75 48.38L15.13 47.75L15.50 47.25L15.88 46.88L16.25 46.63L17.25 46L17.63 45.75L17.25 47L17.25 47.88L17.38 48.88L17.75 50L17.88 50L18.13 48.88L18.38 47.88L18.63 47.38L19 46.50L19.50 45.63L20.25 44.25L21.38 42.38Q21.75 42.50 22 42.63Q22.25 42.75 22.63 42.75L22.63 42.75L21.75 44.38L21.38 45L21.13 45.75L21 46.38L20.75 47.13L20.75 47.75L20.75 48.50L20.75 49.13L21.13 49.75L21.63 50.25L22.25 50.63L23.13 50.88L23.38 51.50L23.75 52L24.25 52.38L24.63 52.75L25 52.88L25.38 53L26.38 53L26.38 53.13L26.75 53.75L27.38 54.25L28.13 54.50L28.88 54.50L29.75 54.25L30.50 55.13L31.13 55.50L31.75 55.75L32.63 55.88L33.25 55.88L33.75 56.25L34.50 56.63L35.25 56.75L35.88 57.25L36.75 57.75L37.75 57.88L38.75 58L39 58L39.75 58.63L40.50 59L41.25 59.25L42 59.38L42.88 59.25L43.88 59.75L44.50 59.75L45.13 59.75L45.75 59.75L46 59.88L47 60.25L48.13 60.25L49.38 60.25L49.75 60.38L50.75 60.75L51.75 60.75L53.13 60.75L53.25 60.75L54.13 61L55.13 61.13L56.25 61L56.63 61.25L57.63 61.75L58.63 61.75L59.75 61.75L59.75 61.63L60.25 61.75L61.25 61.75L62.38 61.63L63.13 61.75L63.88 61.75L64.75 61.75L65.75 61.88L66.13 62.13L67.13 62.38L68.13 62.63L69.25 62.75L70.25 62.63L70.25 62.50L70.88 62.75L72.75 62.88L72.75 62.75L74.50 63.38L75.75 63.75L77.25 63.38L77.25 63.25L77.38 63.25L78.25 63.50L79.13 63.63L80 63.63L80.13 63.75L80.88 64.25L81.75 64.75L83 64.75L83.75 64.25L84.50 63.75L85.38 63.75L86.50 63.75L87.75 63.75L87.75 63.75L88 64L89.13 64.25L90.25 64.13L91.25 63.63L92.25 63.63L93.50 63.75L94.50 63.63L95.13 63.75L96.50 63.75L97.38 63.63L97.88 63.75L98.50 63.88L99.13 63.75L99.75 63.50L99.75 63.63L100.63 63.75L103.13 63.75L103.88 63.38L105 63L106.63 63L107.38 62.88L107.88 63.13L108.75 63.25L109.50 63.38L110.25 63.25L111.25 63.13L111.38 63.25L112.25 63.63L113.13 63.88L113.88 63.88L114.50 63.63L115 63.13L115.25 63.25L116.25 63.38L116.75 63.38L117.25 63.25L117.75 63.13L118.50 63.25L119.25 63.13L120 62.75L120.75 62.75L121.25 62.75L121.88 62.38L122.38 62L122.50 61.88L123.13 62L123.75 61.88L124.25 62L125.13 62L125.50 61.75L125.75 61.50L125.88 61.25L126 61.25L126.25 61.25L126.63 61L126.75 60.50L126.88 59.88L127.13 59.88L127.38 59.75L127.50 59.50L127.63 59.63L127.63 58.75L127.25 58.38ZM21.13 42.25L20.88 42.38L20.63 42.63L20.75 42.13L21.13 42.25ZM21.38 39.50L21.38 39.50L21.25 39.25L21 38.88L21 36.50L21.13 35.75L21.25 35.75L21.50 37.25L21.75 38.88L22 39.63Q21.75 39.63 21.63 39.56Q21.50 39.50 21.38 39.50L21.38 39.50Z"/></svg>