<svg xmlns="http://www.w3.org/2000/svg" xmlns:xlink="http://www.w3.org/1999/xlink" width="128" height="128"><path fill="#000000" d="M127.63 75.88L127.63 75.88L127.25 75.38L127.13 75.25L127.13 74.88L127 74.50L126.75 74.25L126.38 74L126.25 74L126.25 73.75L125.63 73.38L125.25 73.25L125 73.25L124.63 72.88L124.13 72.63L123.50 72.25L122.88 72.13L122.75 72.13L122.25 71.50L121.63 71.13L121 70.75L120.38 70.63L120.25 70.63L119.75 70.25L118.88 69.88L118.38 69.75L117.88 69.38L117.38 69.25L116.38 69L115.88 69L115.25 69.13L115.25 69.13L114.75 68.50L114.25 68.13L113.38 67.88L112.50 67.88L111.50 68.13L111.13 68.25L110.25 67.88L109.50 67.75L106.88 67.75L105.88 67.25L105 67L104.13 66.88L103.50 66.88L102.75 66.13L101.75 65.50L101 65.13L100.25 64.88L99.38 64.88L99 65.25L98.50 64.75L97.88 64.50L97.25 64.38L96.63 64.50L95.88 64.25L95.25 64L94.25 64L93.13 63.63L91.88 63.25L90.75 63.25L90.63 63.25L89.38 62.50L88.25 62.25L87.25 62.25L85.50 61.75L84.38 61.75L83.88 61.75L83.25 61L82.38 60.50L81.50 60.25L80.63 60.38L80 60.63L79.25 60.50L77.38 60.50L77.38 60.25L76 60L74.63 59.75L73.25 59.75L72.75 59.75L72.75 59.75L70.75 59.50L70.75 59.50L69.63 59L68.50 58.75L67.50 58.63L66.75 58.63L65.63 58.25L64.75 58L63.75 58L62.63 57.25L61.75 56.88L61 56.75L60.25 56.38L59 56.25L57.88 56.25L56.75 55.75L55.75 55.50L55.25 55.50L54 54.88L53 54.63L52 54.50L51.75 54.63L51.75 54.63L50.38 53.75L49.25 53.38L48.25 53.25L48.25 53.25L47.50 52.75L46.88 52.50L46.25 52.25L45.63 52.25L44.88 52.25L44.13 51.75L43.38 51.38L42.50 51.25L41.75 51.25L40.75 51.50L40.63 51.63L39.63 51.13L38.63 50.75L37.75 50.75L36.88 50.25L36.25 50L35.38 50L34.75 50.13L34 50.25L33.88 50.25L33.25 49.63L32.63 49.25L31.88 49.13L31.25 49.25L30.63 49.50L30.38 49.38L30.13 49.25L29.50 49L28.75 49L28.50 49.13L28 49.38L27.88 49.50L27 49.25L26.25 49.25L25.50 49.50L24.88 50L24.50 50.50L24.25 51.25L23.88 52L23.75 52.75L23.63 53.63L23.50 55.25L23.63 57L23.63 57.25Q23.25 57.13 22.88 57Q22.50 56.88 22 56.75L22 56.75L22 56.25L22.13 55.75L22.25 54.38L22.25 53.25L22.25 52L22.13 51.38L21.88 50.38L21.75 49.88L21.50 49.50L20.88 48.75L20.25 48.25L20.50 49.13L20.75 50.25L20.75 50.75L20.88 51.38L21 51.88L20.63 50.75L20.25 49.75L20.25 49.38L20 48.13L20 47.75L20.13 47L20.25 46.75L20.38 46L20.25 46L19.75 46.63L19.13 48L19 48.63L19 50L19.25 51.38L19.13 51.25L18.50 50.50L17.88 49L17.75 48.25L17.75 47.25L17 47.88L16.75 48.50L16.50 49.13L16.50 49.75L16.63 50.25L16.75 50.88L17.25 51.75L17 51.88L16.38 51.75L16.25 52L16.75 52.25L17.13 52.50L18.13 53.25L18.38 53.63L18.88 54.25L20.25 55.63L20.63 56L20.75 56.25Q16.50 54.50 11.88 52.44Q7.25 50.38 1.75 47.75L1.75 47.75L1.25 47.50L1.50 47.88Q2.25 49.13 4.13 50.44Q6 51.75 7.88 52.88L7.88 52.88Q8.75 53.38 9.56 53.94Q10.38 54.50 11 54.88L11 54.88Q12.75 55.88 15 56.88Q17.25 57.88 19.38 58.75L19.38 58.75L19.25 58.75L17.25 59.13L15.75 59.38L14.38 59.88L13.75 60.25L13 60.38L12.38 60.75L11.88 61.25L11.38 61.75L11 62.25L10.75 62.75L10.50 63.50L10.75 63.63L11.63 62.75L12.75 61.88L13.38 61.63L13.75 61.50L14.13 61.38L14.75 61.25L15.50 61.13L16.13 60.88L17.38 60.25L18.63 59.38L19.13 59.13L19.50 58.88L19.75 58.75L20.38 59L18 60.25L16.75 61L16 61.50L14.75 62.50L14.25 63.13L14 63.63L13.75 64.25L13.75 64.75L13.75 65.50L14.25 66.38L14.75 65.38L15.13 64.75L15.50 64.25L15.88 63.88L16.25 63.63L17.25 63L17.63 62.75L17.25 64L17.25 64.88L17.38 65.88L17.75 67L17.88 67L18.13 65.88L18.38 64.88L18.63 64.38L19 63.50L19.50 62.63L20.25 61.25L21.38 59.38Q21.75 59.50 22 59.63Q22.25 59.75 22.63 59.75L22.63 59.75L21.75 61.38L21.38 62L21.13 62.75L21 63.38L20.75 64.13L20.75 64.75L20.75 65.50L20.75 66.13L21.13 66.75L21.63 67.25L22.25 67.63L23.13 67.88L23.38 68.50L23.75 69L24.25 69.38L24.63 69.75L25 69.88L25.38 70L26.38 70L26.38 70.13L26.75 70.75L27.38 71.25L28.13 71.50L28.88 71.50L29.75 71.25L30.50 72.13L31.13 72.50L31.75 72.75L32.63 72.88L33.25 72.88L33.75 73.25L34.50 73.63L35.25 73.75L35.88 74.25L36.75 74.75L37.75 74.88L38.75 75L39 75L39.75 75.63L40.50 76L41.25 76.25L42 76.38L42.88 76.25L43.88 76.75L44.50 76.75L45.13 76.75L45.75 76.75L46 76.88L47 77.25L48.13 77.25L49.38 77.25L49.75 77.38L50.75 77.75L51.75 77.75L53.13 77.75L53.25 77.75L54.13 78L55.13 78.13L56.25 78L56.63 78.25L57.63 78.75L58.63 78.75L59.75 78.75L59.75 78.63L60.25 78.75L61.25 78.75L62.38 78.63L63.13 78.75L63.88 78.75L64.75 78.75L65.75 78.88L66.13 79.13L67.13 79.38L68.13 79.63L69.25 79.75L70.25 79.63L70.25 79.50L70.88 79.75L72.75 79.88L72.75 79.75L74.50 80.38L75.75 80.75L77.25 80.38L77.25 80.25L77.38 80.25L78.25 80.50L79.13 80.63L80 80.63L80.13 80.75L80.88 81.25L81.75 81.75L83 81.75L83.75 81.25L84.50 80.75L85.38 80.75L86.50 80.75L87.75 80.75L87.75 80.75L88 81L89.13 81.25L90.25 81.13L91.25 80.63L92.25 80.63L93.50 80.75L94.50 80.63L95.13 80.75L96.50 80.75L97.38 80.63L97.88 80.75L98.50 80.88L99.13 80.75L99.75 80.50L99.75 80.63L100.63 80.75L103.13 80.75L103.88 80.38L105 80L106.63 80L107.38 79.88L107.88 80.13L108.75 80.25L109.50 80.38L110.25 80.25L111.25 80.13L111.38 80.25L112.25 80.63L113.13 80.88L113.88 80.88L114.50 80.63L115 80.13L115.25 80.25L116.25 80.38L116.75 80.38L117.25 80.25L117.75 80.13L118.50 80.25L119.25 80.13L120 79.75L120.75 79.75L121.25 79.75L121.88 79.38L122.38 79L122.50 78.88L123.13 79L123.75 78.88L124.25 79L125.13 79L125.50 78.75L125.75 78.50L125.88 78.25L126 78.25L126.25 78.25L126.63 78L126.75 77.50L126.88 76.88L127.13 76.88L127.38 76.75L127.50 76.50L127.63 76.63L127.63 75.88ZM20.63 59.63L20.63 59.63L20.75 59.13L21.13 59.25L20.88 59.38L20.63 59.63ZM21.25 52.75L21.25 52.75L21.50 54.25L21.75 55.88L22 56.63L21.63 56.38L21.75 56.38L21.50 56.25L21 55.88L21 53.50L21.13 52.75L21.25 52.75Z"/></svg>