<svg xmlns="http://www.w3.org/2000/svg" xmlns:xlink="http://www.w3.org/1999/xlink" width="128" height="128"><path fill="#ffffff" d="M113.88 104.63L113.88 104.63Q112.50 103.50 111.13 102.38Q109.75 101.25 108.50 100.13L108.50 100.13Q107.13 98.75 106.31 97.13Q105.50 95.50 105.75 93.38L105.75 93.38Q105.88 92.25 105.44 91.31Q105 90.38 103.63 90L103.63 90Q104 89.13 104.25 88.44Q104.50 87.75 104.63 87.13L104.63 87.13Q104.75 86.50 104.81 85.81Q104.88 85.13 104.88 84.38L104.88 84.38Q105 76.88 102.56 70.25Q100.13 63.63 96.13 57.50L96.13 57.50Q94.38 54.75 92.44 51.94Q90.50 49.13 88.50 46.50L88.50 46.50Q85.50 42.13 84.25 37.38Q83 32.63 82.88 27.50L82.88 27.50Q82.88 25.13 82.63 22.75Q82.38 20.38 81.88 18L81.88 18Q80.88 13.50 78.38 10.06Q75.88 6.63 71.38 4.75L71.38 4.75Q68 3.25 64.56 2.94Q61.13 2.63 57.50 3.63L57.50 3.63Q52.38 5 49.44 8.69Q46.50 12.38 46.50 17.75L46.50 17.75Q46.63 22.88 46.88 28.06Q47.13 33.25 47.50 38.38L47.50 38.38Q47.63 41.25 47.06 43.81Q46.50 46.38 44.50 48.75L44.50 48.75Q42.75 50.88 41 53.25Q39.25 55.63 37.75 58.13L37.75 58.13Q36.75 59.50 35.94 61Q35.13 62.50 34.63 64L34.63 64Q33.13 68.25 31.50 72.44Q29.88 76.63 27.38 80.50L27.38 80.50Q26.38 82 26.31 83.56Q26.25 85.13 26.88 86.75L26.88 86.75Q27 87.13 27.06 87.69Q27.13 88.25 26.88 88.63L26.88 88.63Q25.13 91.50 22.88 93.81Q20.63 96.13 16.88 96.75L16.88 96.75Q13.88 97.13 13.31 98.06Q12.75 99 12.88 102.13L12.88 102.13Q12.88 104.63 12.81 107.13Q12.75 109.63 12.50 112.13L12.50 112.13Q12.25 114.75 12.81 115.81Q13.38 116.88 16 117.50L16 117.50Q21.88 119 27.81 120.50Q33.75 122 39.50 124.38L39.50 124.38Q41.88 125.38 44.25 125Q46.63 124.63 48.50 122.63L48.50 122.63Q50.63 120.50 53.13 119.63Q55.63 118.75 58.38 118.75L58.38 118.75Q63.13 118.75 67.81 118.88Q72.50 119 77.25 119.13L77.25 119.13Q78.50 119.13 79.31 119.63Q80.13 120.13 80.63 121.25L80.63 121.25Q81.25 122.75 82.31 123.69Q83.38 124.63 85 124.88L85 124.88Q88.25 125.13 91.06 124.50Q93.88 123.88 96.25 121.50L96.25 121.50Q99.13 118.50 102.56 116.19Q106 113.88 109.88 112.25L109.88 112.25Q111 111.75 112 111.06Q113 110.38 114 109.63L114 109.63Q115.63 108.13 115.56 107.06Q115.50 106 113.88 104.63ZM62.38 24.13L62.38 24.13Q63 22.13 64.31 20.94Q65.63 19.75 67.63 19.38L67.63 19.38Q69.38 19 70.81 19.81Q72.25 20.63 73.25 22.63L73.25 22.63Q74.50 24.63 74.75 26.81Q75 29 74 31.25L74 31.25Q73.25 33.13 72.56 33.44Q71.88 33.75 69.88 33.13L69.88 33.13Q69.63 33 69.19 32.81Q68.75 32.63 68.13 32.50L68.13 32.50Q68.63 32 69 31.69Q69.38 31.38 69.75 31L69.75 31Q70.63 30.50 70.94 29.69Q71.25 28.88 71.13 27.88L71.13 27.88Q71 26.63 70.19 25.69Q69.38 24.75 68.38 24.75L68.38 24.75Q67.38 24.75 66.69 25.56Q66 26.38 65.88 27.63L65.88 27.63Q65.88 28.50 65.94 29.38Q66 30.25 66.13 31.25L66.13 31.25Q63.50 30.50 62.56 28.69Q61.63 26.88 62.38 24.13L62.38 24.13ZM49.63 21.88L49.63 21.88Q50.63 20.38 52 20.13Q53.38 19.88 54.75 20.88L54.75 20.88Q56.25 21.88 57.19 24.25Q58.13 26.63 57.50 28.38L57.50 28.38Q57.38 29 56.81 29.56Q56.25 30.13 55.88 30.63L55.88 30.63L55.25 30.25Q55 29.38 54.94 28.38Q54.88 27.38 54.50 26.50L54.50 26.50Q54.25 26 53.63 25.63Q53 25.25 52.50 24.75L52.50 24.75Q52.13 25.38 51.50 25.88Q50.88 26.38 50.75 27L50.75 27Q50.75 27.88 51.06 28.75Q51.38 29.63 51.75 30.38L51.75 30.38Q52 30.88 52.44 31.31Q52.88 31.75 53.50 32.25L53.50 32.25L51.50 33.75Q49.25 31.75 48.69 27.94Q48.13 24.13 49.63 21.88L49.63 21.88ZM87.38 86.13L87.38 86.13Q87.25 88 86.69 88.44Q86.13 88.88 84.25 89.13L84.25 89.13Q82.88 89.38 82.38 89.94Q81.88 90.50 81.75 92.13L81.75 92.13Q81.75 94.13 81.75 96.06Q81.75 98 81.75 99.88L81.75 99.88Q81.75 101.25 81.31 102.31Q80.88 103.38 80 104.25L80 104.25Q74.88 109.38 68.81 111.75Q62.75 114.13 55.50 113.25L55.50 113.25Q52.38 112.88 50.19 111.06Q48 109.25 46.38 106.63L46.38 106.63Q47.13 106.25 47.69 106.06Q48.25 105.88 48.75 105.63L48.75 105.63Q51.13 104.75 51.50 102.94Q51.88 101.13 50 99.38L50 99.38Q48.63 98.13 47.06 96.94Q45.50 95.75 44 94.50L44 94.50Q42.50 93.38 41.06 92.19Q39.63 91 38.13 89.88L38.13 89.88Q36.88 88.88 36.31 87.56Q35.75 86.25 35.75 84.75L35.75 84.75Q35.75 80.75 36.50 77.13Q37.25 73.50 38.88 70L38.88 70Q40.38 66.75 41.56 63.50Q42.75 60.25 44.13 57L44.13 57Q44.88 55.38 45.63 53.75Q46.38 52.13 47.38 50.63L47.38 50.63Q48.38 49.25 48.94 47.81Q49.50 46.38 49.38 44.75L49.38 44.75Q49.38 43.75 49.38 42.81Q49.38 41.88 49.38 40.88L49.38 40.88L50.13 40.50Q51 41.25 51.88 42Q52.75 42.75 53.50 43.50L53.50 43.50Q56.63 46.25 59.56 46.38Q62.50 46.50 65.88 44.13L65.88 44.13Q67.25 43.13 68.75 42.25Q70.25 41.38 71.75 40.50L71.75 40.50Q72.13 40.25 72.63 40.13Q73.13 40 73.75 39.75L73.75 39.75Q75.38 43.63 76.94 47.31Q78.50 51 80.13 54.75L80.13 54.75Q80.88 56.63 81.63 58.56Q82.38 60.50 83.38 62.38L83.38 62.38Q85.38 65.88 86.44 69.69Q87.50 73.50 87.38 77.63L87.38 77.63Q87.38 79.75 87.44 81.88Q87.50 84 87.38 86.13L87.38 86.13Z"/></svg>