<svg xmlns="http://www.w3.org/2000/svg" xmlns:xlink="http://www.w3.org/1999/xlink" width="128" height="128"><path fill="#000000" d="M26.25 75L26.25 75Q21.63 75 19.19 72.69Q16.75 70.38 15.88 67.63L15.88 67.63Q16.88 72.25 23.50 76.38Q30.13 80.50 47.13 82.50L47.13 82.50Q55.25 83.50 61.88 82.88L61.88 82.88Q68.50 82.38 73.56 81.13Q78.63 79.88 82.13 78.38L82.13 78.38Q85.63 76.75 87.38 75.63L87.38 75.63Q87.38 75.63 88.75 75.25Q90.13 74.88 88.63 76.38L88.63 76.38Q88.63 76.38 86.13 78.25L86.13 78.25Q83.63 80.25 78.56 82.50Q73.50 84.75 66 86.75L66 86.75Q58.50 88.63 48.50 88.75L48.50 88.75Q38.63 88.75 29.88 86.50L29.88 86.50Q21.25 84.38 14.81 80.69Q8.38 77 4.75 72.25L4.75 72.25Q1 67.63 1.13 62.63L1.13 62.63Q1 57.75 4.75 53L4.75 53Q8.38 48.38 14.81 44.69Q21.25 41 29.88 38.75L29.88 38.75Q38.63 36.63 48.50 36.63L48.50 36.63Q58.50 36.63 66 38.63L66 38.63Q73.50 40.50 78.56 42.81Q83.63 45.13 86.13 47L86.13 47Q88.63 48.88 88.63 48.88L88.63 48.88Q90.13 50.50 88.75 50.06Q87.38 49.63 87.38 49.63L87.38 49.63Q85.63 48.50 82.13 47L82.13 47Q78.63 45.50 73.56 44.31Q68.50 43.13 61.88 42.63L61.88 42.63Q55.25 42.13 47.13 42.75L47.13 42.75Q31.25 44.25 24.88 48.63Q18.50 53 16.75 56.50L16.75 56.50Q16.13 57.63 15.81 58.94Q15.50 60.25 15.38 61.63L15.38 61.63L15.38 61.75Q15.75 58.38 18.19 55.13Q20.63 51.88 26.25 51.88L26.25 51.88Q32.50 51.88 34.88 55.94Q37.25 60 37.25 63.50L37.25 63.50Q37.25 67 34.88 71Q32.50 75 26.25 75L26.25 75ZM111.88 70.50L111.88 70.50L123 70.50L123 74.50L107.13 74.50L107.13 52.50L111.88 52.50L111.88 70.50ZM94.50 62.63L94.63 62.63L104 62.63L104 74.50L100.88 74.50L100.38 71.75Q99.50 72.75 97.94 73.94Q96.38 75.13 93.38 75.13L93.38 75.13Q89.25 75.13 86.13 72.25Q83 69.38 83 63.63L83 63.63Q83 59.13 85.63 55.56Q88.25 52 94 52L94 52Q99.13 52 101.38 54.56Q103.63 57.13 103.88 59.38L103.88 59.38L99.13 59.38Q99.13 58.75 97.94 57.25Q96.75 55.75 94.25 55.75L94.25 55.75Q91.75 55.75 89.75 57.56Q87.75 59.38 87.75 63.63L87.75 63.63Q87.75 68.13 89.88 69.63Q92 71.13 94.38 71.13L94.38 71.13Q95.13 71.13 97.13 70.38Q99.13 69.63 99.75 66.38L99.75 66.38L94.50 66.38L94.50 62.63ZM26.25 54.63L26.25 54.63Q22.50 54.63 20.44 57.13Q18.38 59.63 18.38 63.50L18.38 63.50Q18.38 67.38 20.44 69.94Q22.50 72.50 26.25 72.50L26.25 72.50Q29.88 72.50 32 70Q34.13 67.50 34.13 63.50L34.13 63.50Q34.13 59.75 32 57.19Q29.88 54.63 26.25 54.63L26.25 54.63ZM39 60.50L38.88 60.50L41.25 60.50L41.25 62.50L41.25 62.50Q41.75 61.88 42.69 60.94Q43.63 60 45.63 60L45.63 60Q48.50 60 50.31 62.13Q52.13 64.25 52.13 67.13L52.13 67.13Q52.13 69.63 50.50 72.25Q48.88 74.88 45.25 74.88L45.25 74.88Q43.75 74.88 42.81 74.31Q41.88 73.75 41.38 73L41.38 73L41.38 73L41.38 80L39 80L39 60.50ZM45.13 72.88L45.13 72.88Q47 72.88 48.25 71.38Q49.50 69.88 49.50 67.50L49.50 67.50Q49.50 66.25 48.69 64.25Q47.88 62.25 45 62.25L45 62.25Q42.38 62.25 41.75 64.31Q41.13 66.38 41.13 68.13L41.13 68.13Q41.13 70.88 42.50 71.88Q43.88 72.88 45.13 72.88L45.13 72.88ZM66.75 70.13L66.75 70.13Q66.75 70.63 66.19 71.81Q65.63 73 64.25 73.88L64.25 73.88Q63.75 74.25 62.94 74.56Q62.13 74.88 60.38 74.88L60.38 74.88Q57.25 74.88 55.56 72.88Q53.88 70.88 53.88 67.88L53.88 67.88Q53.88 64.63 55.56 62.38Q57.25 60.13 60.88 60.13L60.88 60.13Q64 60.13 65.50 62.31Q67 64.50 67 68.25L67 68.25L56.50 68.25Q56.50 70.50 57.56 71.69Q58.63 72.88 60.63 72.88L60.63 72.88Q62.38 72.88 63.38 71.88Q64.38 70.88 64.38 70.13L64.38 70.13L66.75 70.13ZM56.25 66.38L64.25 66.38Q64.13 64.75 63.25 63.50Q62.38 62.25 60.25 62.25L60.25 62.25Q58.50 62.25 57.38 63.50Q56.25 64.75 56.25 66.38L56.25 66.38ZM80.38 74.38L80.38 74.50L78 74.50L78 65.88Q78 64 77.31 63.13Q76.63 62.25 74.88 62.25L74.88 62.25Q73.88 62.25 72.50 63.13Q71.13 64 71.13 66.88L71.13 66.88L71.13 74.50L68.63 74.50L68.63 60.50L70.88 60.50L70.88 62.38L71 62.38Q71.38 61.88 72.44 60.94Q73.50 60 75.38 60L75.38 60Q77 60 78.69 60.94Q80.38 61.88 80.38 64.88L80.38 64.88L80.38 74.38ZM127.75 73.75L127.75 73.75Q127.75 73.75 127.75 73.75Q127.75 73.75 127.75 73.75L127.75 73.75Q127.75 74 127.69 74.25Q127.63 74.50 127.50 74.75L127.50 74.75L127.50 74.75Q127.38 75 127.19 75.19Q127 75.38 126.75 75.50L126.75 75.50L126.75 75.50Q126.50 75.63 126.25 75.69Q126 75.75 125.75 75.75L125.75 75.75Q125.75 75.75 125.69 75.75Q125.63 75.75 125.63 75.75L125.63 75.75L125.63 75.75Q125.38 75.75 125.13 75.69Q124.88 75.63 124.63 75.50L124.63 75.50Q124.38 75.38 124.19 75.19Q124 75 123.88 74.75L123.88 74.75Q123.75 74.50 123.69 74.25Q123.63 74 123.63 73.75L123.63 73.75Q123.63 73.75 123.63 73.75Q123.63 73.75 123.63 73.75L123.63 73.75L123.63 73.75Q123.63 73.50 123.69 73.25Q123.75 73 123.88 72.75L123.88 72.75Q124 72.50 124.19 72.31Q124.38 72.13 124.63 72L124.63 72L124.63 72Q124.88 71.88 125.13 71.81Q125.38 71.75 125.63 71.75L125.63 71.75Q125.63 71.75 125.63 71.75Q125.63 71.75 125.63 71.75L125.63 71.75L125.63 71.75Q126 71.75 126.25 71.81Q126.50 71.88 126.75 72L126.75 72Q127 72.13 127.19 72.31Q127.38 72.50 127.50 72.75L127.50 72.75Q127.63 72.88 127.69 73.13Q127.75 73.38 127.75 73.75L127.75 73.75Q127.75 73.75 127.75 73.75Q127.75 73.75 127.75 73.75L127.75 73.75L127.75 73.75ZM127.38 73.75L127.38 73.75Q127.38 73.75 127.38 73.75Q127.38 73.75 127.38 73.75L127.38 73.75Q127.38 73.38 127.25 73.06Q127.13 72.75 126.88 72.63L126.88 72.63L126.88 72.63Q126.63 72.38 126.31 72.25Q126 72.13 125.75 72.13L125.75 72.13Q125.38 72.13 125.06 72.25Q124.75 72.38 124.50 72.63L124.50 72.63Q124.25 72.75 124.13 73.06Q124 73.38 124 73.75L124 73.75Q124 73.75 124 73.75Q124 73.75 124 73.75L124 73.75L124 73.75Q124 73.75 124 73.75Q124 73.75 124 73.75L124 73.75Q124 74.13 124.13 74.38Q124.25 74.63 124.50 74.88L124.50 74.88L124.50 74.88Q124.75 75.13 125.06 75.25Q125.38 75.38 125.63 75.38L125.63 75.38Q125.63 75.38 125.63 75.38Q125.63 75.38 125.75 75.38L125.75 75.38L125.75 75.38Q126 75.38 126.31 75.25Q126.63 75.13 126.88 74.88L126.88 74.88Q127.13 74.63 127.25 74.38Q127.38 74.13 127.38 73.75L127.38 73.75Q127.38 73.75 127.38 73.75Q127.38 73.75 127.38 73.75L127.38 73.75L127.38 73.75ZM124.75 74.75L124.75 72.63L125.75 72.63Q126 72.63 126.13 72.69Q126.25 72.75 126.38 72.75L126.38 72.75Q126.50 72.88 126.50 73Q126.50 73.13 126.50 73.25L126.50 73.25Q126.50 73.38 126.50 73.44Q126.50 73.50 126.38 73.63L126.38 73.63Q126.38 73.75 126.25 73.81Q126.13 73.88 126 73.88L126 73.88Q126 73.88 126.06 73.88Q126.13 73.88 126.13 74L126.13 74L126.13 74Q126.13 74 126.19 74.06Q126.25 74.13 126.25 74.13L126.25 74.13L126.25 74.13Q126.25 74.13 126.38 74.25Q126.50 74.38 126.50 74.63L126.50 74.63L126.63 74.75L126 74.75L125.63 74.13Q125.50 74 125.44 74Q125.38 74 125.38 74L125.38 74Q125.38 74 125.38 74Q125.38 74 125.25 74L125.25 74L125.25 74.75L124.75 74.75ZM125.25 73L125.25 73.50L125.50 73.50Q125.63 73.50 125.75 73.50Q125.88 73.50 125.88 73.50L125.88 73.50Q125.88 73.50 125.94 73.44Q126 73.38 126 73.25L126 73.25Q126 73.25 126 73.25Q126 73.25 126 73.25L126 73.25L126 73.25Q126 73.25 126 73.25Q126 73.25 126 73.25L126 73.25Q126 73.25 125.94 73.19Q125.88 73.13 125.88 73.13L125.88 73.13L125.88 73.13Q125.88 73 125.75 73Q125.63 73 125.50 73L125.50 73L125.25 73Z"/></svg>