<svg xmlns="http://www.w3.org/2000/svg" xmlns:xlink="http://www.w3.org/1999/xlink" width="128" height="128"><path fill="#ffffff" d="M16.25 15.75L16.25 15.75Q15.75 15.75 15.44 16.06Q15.13 16.38 15.13 16.88L15.13 16.88Q15.13 17 15.13 17.06Q15.13 17.13 15.13 17.13L15.13 17.13L15.13 17.13L39.50 115.88Q39.63 116.25 39.94 116.50Q40.25 116.75 40.63 116.75L40.63 116.75Q40.88 116.75 41.06 116.69Q41.25 116.63 41.38 116.50L41.38 116.50L41.38 116.50L114.75 45.88Q115 45.75 115.06 45.50Q115.13 45.25 115.13 45L115.13 45Q115.13 44.63 114.94 44.38Q114.75 44.13 114.38 44L114.38 44L114.38 44L16.50 15.75Q16.50 15.75 16.44 15.75Q16.38 15.75 16.25 15.75L16.25 15.75Q16.25 15.75 16.25 15.75Q16.25 15.75 16.25 15.75L16.25 15.75L16.25 15.75ZM17.75 18.50L17.75 18.50L111.88 45.63L41.25 113.50L17.75 18.50ZM65.13 29.88L65.13 29.88Q65.13 29.88 65.13 29.88Q65.13 29.88 65.13 29.88L65.13 29.88Q64.88 29.88 64.69 29.94Q64.50 30 64.38 30.13L64.38 30.13L64.38 30.13L27.63 65.50Q27.50 65.63 27.38 65.81Q27.25 66 27.25 66.25L27.25 66.25Q27.25 66.63 27.50 66.94Q27.75 67.25 28.13 67.38L28.13 67.38L28.13 67.38L77 81.50Q77 81.50 77.13 81.50Q77.25 81.50 77.25 81.50L77.25 81.50Q77.75 81.50 78.06 81.19Q78.38 80.88 78.38 80.38L78.38 80.38Q78.38 80.25 78.38 80.19Q78.38 80.13 78.38 80.13L78.38 80.13L78.38 80.13L66.25 30.75Q66.13 30.38 65.81 30.13Q65.50 29.88 65.13 29.88L65.13 29.88L65.13 29.88ZM64.50 33.13L64.50 33.13L75.75 78.75L30.63 65.75L64.50 33.13ZM46.88 47.38L46.88 47.38Q46.50 47.38 46.13 47.69Q45.75 48 45.75 48.50L45.75 48.50Q45.75 48.50 45.81 48.56Q45.88 48.63 45.88 48.75L45.88 48.75L45.88 48.75L51.88 73.25Q52 73.63 52.31 73.88Q52.63 74.13 53 74.13L53 74.13Q53.25 74.13 53.44 74Q53.63 73.88 53.75 73.75L53.75 73.75L53.75 73.75L72 56.25Q72.13 56.13 72.25 55.88Q72.38 55.63 72.38 55.38L72.38 55.38Q72.38 55 72.13 54.69Q71.88 54.38 71.50 54.38L71.50 54.38L71.50 54.38L47.25 47.38Q47.13 47.38 47.06 47.38Q47 47.38 46.88 47.38L46.88 47.38Q46.88 47.38 46.88 47.38Q46.88 47.38 46.88 47.38L46.88 47.38L46.88 47.38ZM48.50 50.13L48.50 50.13L69 56L53.63 70.75L48.50 50.13ZM40.88 22.75L40.88 22.75Q40.88 22.75 40.88 22.75Q40.88 22.75 40.88 22.75L40.88 22.75Q40.63 22.75 40.44 22.88Q40.25 23 40.13 23.13L40.13 23.13L40.13 23.13L21.88 40.63Q21.75 40.88 21.63 41.06Q21.50 41.25 21.50 41.50L21.50 41.50Q21.50 41.88 21.75 42.19Q22 42.50 22.38 42.63L22.38 42.63L22.38 42.63L46.63 49.50Q46.75 49.63 46.81 49.63Q46.88 49.63 46.88 49.63L46.88 49.63Q47.38 49.63 47.69 49.25Q48 48.88 48 48.50L48 48.50Q48 48.38 48 48.31Q48 48.25 48 48.25L48 48.25L48 48.25L42 23.63Q41.88 23.25 41.56 23.06Q41.25 22.88 40.88 22.75L40.88 22.75L40.88 22.75ZM40.25 26.13L40.25 26.13L45.38 46.88L24.88 41L40.25 26.13ZM89.50 36.75L89.50 36.75Q89.50 36.75 89.44 36.75Q89.38 36.75 89.38 36.75L89.38 36.75Q89.25 36.75 89 36.88Q88.75 37 88.63 37.13L88.63 37.13L88.63 37.13L70.38 54.63Q70.25 54.88 70.19 55.06Q70.13 55.25 70.13 55.50L70.13 55.50Q70.13 55.88 70.31 56.19Q70.50 56.50 70.88 56.63L70.88 56.63L70.88 56.63L95.13 63.50Q95.25 63.50 95.31 63.56Q95.38 63.63 95.50 63.63L95.50 63.63Q96 63.63 96.31 63.25Q96.63 62.88 96.63 62.50L96.63 62.50Q96.63 62.38 96.63 62.31Q96.63 62.25 96.63 62.13L96.63 62.13L96.63 62.13L90.50 37.63Q90.38 37.25 90.13 37Q89.88 36.75 89.50 36.75L89.50 36.75L89.50 36.75ZM88.75 40.13L88.75 40.13L93.88 60.88L73.38 55L88.75 40.13ZM53 71.88L53 71.88Q52.75 71.88 52.56 71.94Q52.38 72 52.25 72.13L52.25 72.13L52.25 72.13L34 89.75Q33.88 89.88 33.75 90.13Q33.63 90.38 33.63 90.50L33.63 90.50Q33.63 91 33.88 91.25Q34.13 91.50 34.50 91.63L34.50 91.63L34.50 91.63L58.75 98.63Q58.75 98.63 58.88 98.63Q59 98.63 59 98.63L59 98.63Q59.50 98.63 59.81 98.31Q60.13 98 60.13 97.50L60.13 97.50Q60.13 97.50 60.13 97.38Q60.13 97.25 60.13 97.25L60.13 97.25L60.13 97.25L54.13 72.75Q54 72.38 53.69 72.13Q53.38 71.88 53 71.88L53 71.88Q53 71.88 53 71.88Q53 71.88 53 71.88L53 71.88L53 71.88ZM52.38 75.13L52.38 75.13L57.50 95.88L37 90L52.38 75.13Z"/></svg>