<svg xmlns="http://www.w3.org/2000/svg" xmlns:xlink="http://www.w3.org/1999/xlink" width="128" height="128"><path fill="#ffffff" d="M23.13 6.88L23.13 6.88Q22.63 6.88 22.38 7.13Q22.13 7.38 22.13 7.75L22.13 7.75Q22.13 7.88 22.13 7.94Q22.13 8 22.13 8L22.13 8L22.13 8L43 92.50Q43.13 92.88 43.38 93.06Q43.63 93.25 44 93.25L44 93.25Q44.13 93.25 44.31 93.19Q44.50 93.13 44.63 93L44.63 93L44.63 93L107.38 32.63Q107.50 32.50 107.63 32.31Q107.75 32.13 107.75 31.88L107.75 31.88Q107.75 31.63 107.56 31.31Q107.38 31 107 31L107 31L107 31L23.38 6.88Q23.25 6.88 23.19 6.88Q23.13 6.88 23.13 6.88L23.13 6.88Q23.13 6.88 23.13 6.88Q23.13 6.88 23 6.88L23 6.88L23.13 6.88ZM24.50 9.25L24.50 9.25L104.88 32.38L44.50 90.38L24.50 9.25ZM64.88 18.88L64.88 18.88Q64.75 18.88 64.56 18.94Q64.38 19 64.25 19.13L64.25 19.13L64.25 19.13L32.88 49.38Q32.75 49.50 32.69 49.69Q32.63 49.88 32.63 50L32.63 50Q32.63 50.38 32.81 50.63Q33 50.88 33.25 51L33.25 51L33.25 51L75.13 63Q75.13 63 75.19 63.06Q75.25 63.13 75.38 63.13L75.38 63.13Q75.75 63.13 76 62.81Q76.25 62.50 76.25 62.13L76.25 62.13Q76.25 62 76.25 61.94Q76.25 61.88 76.25 61.88L76.25 61.88L76.25 61.88L65.88 19.63Q65.75 19.25 65.50 19.06Q65.25 18.88 64.88 18.88L64.88 18.88Q64.88 18.88 64.88 18.88Q64.88 18.88 64.88 18.88L64.88 18.88L64.88 18.88ZM35.38 49.63L64.38 21.75L74 60.75L35.38 49.63ZM49.38 33.88L49.38 33.88Q49 33.88 48.69 34.13Q48.38 34.38 48.38 34.75L48.38 34.75Q48.38 34.88 48.38 34.94Q48.38 35 48.38 35L48.38 35L48.38 35L53.63 56Q53.63 56.38 53.94 56.56Q54.25 56.75 54.50 56.75L54.50 56.75Q54.75 56.75 54.94 56.69Q55.13 56.63 55.25 56.50L55.25 56.50L55.25 56.50L70.75 41.50Q70.88 41.38 71 41.19Q71.13 41 71.13 40.75L71.13 40.75Q71.13 40.50 70.94 40.19Q70.75 39.88 70.38 39.88L70.38 39.88L70.38 39.88L49.63 33.88Q49.63 33.88 49.50 33.88Q49.38 33.88 49.38 33.88L49.38 33.88Q49.38 33.88 49.38 33.88Q49.38 33.88 49.38 33.88L49.38 33.88L49.38 33.88ZM50.75 36.25L50.75 36.25L68.25 41.25L55.13 53.88L50.75 36.25ZM44.13 12.88L44.13 12.88Q44 12.88 43.81 12.94Q43.63 13 43.50 13.13L43.50 13.13L43.50 13.13L27.88 28.13Q27.75 28.25 27.69 28.44Q27.63 28.63 27.63 28.88L27.63 28.88Q27.63 29.25 27.81 29.50Q28 29.75 28.38 29.75L28.38 29.75L28.38 29.75L49.13 35.75Q49.13 35.75 49.19 35.75Q49.25 35.75 49.38 35.75L49.38 35.75Q49.75 35.75 50.06 35.50Q50.38 35.25 50.38 34.88L50.38 34.88Q50.38 34.75 50.31 34.69Q50.25 34.63 50.25 34.63L50.25 34.63L50.25 34.63L45.13 13.63Q45 13.25 44.75 13.06Q44.50 12.88 44.13 12.88L44.13 12.88Q44.13 12.88 44.13 12.88Q44.13 12.88 44.13 12.88L44.13 12.88L44.13 12.88ZM43.63 15.75L43.63 15.75L48 33.50L30.50 28.38L43.63 15.75ZM85.75 24.88L85.75 24.88Q85.50 24.88 85.31 24.94Q85.13 25 85 25.13L85 25.13L85 25.13L69.50 40.13Q69.38 40.25 69.25 40.44Q69.13 40.63 69.13 40.88L69.13 40.88Q69.13 41.13 69.31 41.38Q69.50 41.63 69.88 41.75L69.88 41.75L69.88 41.75L90.63 47.75Q90.63 47.75 90.75 47.75Q90.88 47.75 90.88 47.75L90.88 47.75Q91.25 47.75 91.56 47.50Q91.88 47.25 91.88 46.75L91.88 46.75Q91.88 46.75 91.88 46.69Q91.88 46.63 91.88 46.50L91.88 46.50L91.88 46.50L86.63 25.63Q86.63 25.25 86.31 25.06Q86 24.88 85.75 24.88L85.75 24.88Q85.75 24.88 85.75 24.88Q85.75 24.88 85.75 24.88L85.75 24.88L85.75 24.88ZM72 40.38L85.13 27.63L89.50 45.38L72 40.38ZM54.50 54.88L54.50 54.88Q54.38 54.88 54.19 54.94Q54 55 53.88 55.13L53.88 55.13L53.88 55.13L38.25 70.13Q38.13 70.25 38.06 70.44Q38 70.63 38 70.88L38 70.88Q38 71.13 38.19 71.38Q38.38 71.63 38.63 71.75L38.63 71.75L38.63 71.75L59.50 77.75Q59.50 77.75 59.56 77.75Q59.63 77.75 59.75 77.75L59.75 77.75Q60.13 77.75 60.44 77.50Q60.75 77.25 60.75 76.75L60.75 76.75Q60.75 76.75 60.69 76.69Q60.63 76.63 60.63 76.50L60.63 76.50L60.63 76.63L55.50 55.63Q55.38 55.25 55.13 55.06Q54.88 54.88 54.50 54.88L54.50 54.88Q54.50 54.88 54.50 54.88Q54.50 54.88 54.50 54.88L54.50 54.88L54.50 54.88ZM54 57.63L54 57.63L58.38 75.38L40.88 70.38L54 57.63ZM27.38 115.38L26 114.75Q25.63 115.50 25.06 115.88Q24.50 116.25 23.88 116.25L23.88 116.25Q23.13 116.25 22.50 115.69Q21.88 115.13 21.88 114L21.88 114L21.88 108.63L26.13 108.63L26.13 107.25L21.88 107.25L21.88 103.50L20.38 103.38L20.38 107.25L18.63 107.25L18.63 108.63L20.38 108.63L20.38 114Q20.38 115.75 21.44 116.75Q22.50 117.75 23.88 117.75L23.88 117.75Q24.88 117.75 25.81 117.19Q26.75 116.63 27.38 115.38L27.38 115.38ZM38.75 116.25L38.75 116.25L38.75 112.13Q38.75 110.25 37.88 108.63Q37 107 35 107L35 107Q34.13 107 33.19 107.38Q32.25 107.75 32 108.50L32 108.50L32 103.50L30.38 103.38L30.38 117.38L31.88 117.38L31.88 110.13Q32.25 109.38 32.81 108.94Q33.38 108.50 34.25 108.50L34.25 108.50Q35.63 108.50 36.38 109.44Q37.13 110.38 37.13 111.75L37.13 111.75L37.13 117.38L38.88 117.38Q38.75 117.13 38.75 116.81Q38.75 116.50 38.75 116.25L38.75 116.25ZM50.38 108.88L50.38 108.88L51.38 107.50Q50.50 107.13 50.13 107.06Q49.75 107 49.50 107L49.50 107Q48.88 107 47.88 107.25Q46.88 107.50 46.38 108.50L46.38 108.50Q46.38 108.25 46.44 107.81Q46.50 107.38 46.63 107.25L46.63 107.25L42.88 107.25L42.88 108.38L45 108.50L45 116.13L41.88 116.13L41.88 117.38L49.50 117.38Q49.50 117.13 49.50 116.81Q49.50 116.50 49.50 116.25L49.50 116.25L49.50 116.13L46.38 116.13L46.38 110.38Q46.75 109.25 47.94 108.75Q49.13 108.25 50.38 108.88L50.38 108.88ZM58.13 107L58.13 107Q56 107 54.81 108.38Q53.63 109.75 53.63 112.13L53.63 112.13L53.63 113.13Q53.63 115.13 54.94 116.44Q56.25 117.75 58.25 117.75L58.25 117.75Q59.38 117.75 60.38 117.25Q61.38 116.75 62.13 116L62.13 116L61.25 114.88Q60.38 115.75 59.63 116Q58.88 116.25 58.13 116.25L58.13 116.25Q56.88 116.25 56 115.38Q55.13 114.50 55.13 113.13L55.13 113.13L62.38 113L62.38 112.13Q62.50 109.63 61.38 108.31Q60.25 107 58.13 107L58.13 107ZM60.75 111.75L60.75 111.75L55.13 111.75Q55.25 110.13 55.88 109.19Q56.50 108.25 58 108.25L58 108.25Q59.50 108.25 60.19 109.19Q60.88 110.13 60.75 111.75ZM69.88 107L69.88 107Q67.75 107 66.63 108.38Q65.50 109.75 65.38 112.13L65.38 112.13L65.38 113.13Q65.38 115.13 66.69 116.44Q68 117.75 70 117.75L70 117.75Q71.13 117.75 72.13 117.25Q73.13 116.75 73.88 116L73.88 116L73.88 116L73 114.88Q72.13 115.75 71.38 116Q70.63 116.25 69.88 116.25L69.88 116.25Q68.63 116.25 67.75 115.38Q66.88 114.50 66.88 113.13L66.88 113.13L74.13 113L74.13 112.13Q74.25 109.63 73.13 108.31Q72 107 69.88 107L69.88 107ZM72.50 111.75L72.50 111.75L66.88 111.75Q67 110.13 67.63 109.19Q68.25 108.25 69.75 108.25L69.75 108.25Q71.25 108.25 71.94 109.19Q72.63 110.13 72.50 111.75L72.50 111.75ZM80.50 116.50L80.50 116.50Q80.50 117.13 80.75 117.44Q81 117.75 81.63 117.75L81.63 117.75Q82.13 117.75 82.44 117.44Q82.75 117.13 82.75 116.50L82.75 116.50Q82.75 116 82.44 115.75Q82.13 115.50 81.63 115.50L81.63 115.50Q81 115.50 80.75 115.75Q80.50 116 80.50 116.50ZM95.13 105.50L95.13 105.50Q95.63 105.50 95.94 105.19Q96.25 104.88 96.25 104.38L96.25 104.38Q96.25 103.75 95.94 103.50Q95.63 103.25 95.13 103.25L95.13 103.25Q94.63 103.25 94.31 103.50Q94 103.75 94 104.38L94 104.38Q94 104.88 94.31 105.19Q94.63 105.50 95.13 105.50L95.13 105.50ZM96.13 107.25L92.38 107.25L92.38 108.38L94.50 108.50L94.50 117.38Q94.50 118.50 93.88 119.06Q93.25 119.63 92.50 119.63L92.50 119.63Q91.88 119.63 91.31 119.31Q90.75 119 90.38 118.13L90.38 118.13L89 118.75Q89.63 120 90.56 120.56Q91.50 121.13 92.50 121.13L92.50 121.13Q93.88 121.13 94.94 120.19Q96 119.25 96 117.38L96 117.38L96.13 107.25ZM105.75 111.63L105.75 111.63Q104.25 111.38 103.56 110.94Q102.88 110.50 102.88 110L102.88 110Q102.88 109.25 103.63 108.81Q104.38 108.38 105.50 108.38L105.50 108.38Q106.38 108.38 107 108.63Q107.63 108.88 108.25 109.63L108.25 109.63L109.25 108.63Q108.63 107.88 107.63 107.44Q106.63 107 105.38 107L105.38 107Q103.63 107 102.50 107.81Q101.38 108.63 101.38 110L101.38 110Q101.38 111.13 102.38 111.88Q103.38 112.63 105.63 113.13L105.63 113.13Q106.88 113.38 107.38 113.63Q107.88 113.88 107.88 114.50L107.88 114.50Q107.88 115.25 107.13 115.81Q106.38 116.38 105.25 116.38L105.25 116.38Q104.38 116.38 103.56 115.88Q102.75 115.38 102 114.50L102 114.50L101 115.50Q101.75 116.63 102.81 117.19Q103.88 117.75 105.25 117.75L105.25 117.75Q107.13 117.75 108.25 116.81Q109.38 115.88 109.38 114.38L109.38 114.38Q109.38 113.25 108.50 112.63Q107.63 112 105.75 111.63L105.75 111.63Z"/></svg>