<svg xmlns="http://www.w3.org/2000/svg" xmlns:xlink="http://www.w3.org/1999/xlink" width="128" height="128"><path fill="#000000" d="M53.38 127.50L53.38 127.50Q48.13 126.63 43.25 125L43.25 125Q38.38 123.25 33.94 120.88Q29.50 118.50 25.38 115.38L25.38 115.38Q21.38 112.38 17.63 108.50L17.63 108.50Q11.38 102 7.13 93.94Q2.88 85.88 0.88 76.75L0.88 76.75Q0 72.88 0 64Q0 55.13 0.88 51.25L0.88 51.25Q2.13 45 4.69 39Q7.25 33 10.75 27.75L10.75 27.75Q13.13 24.13 18.63 18.63Q24.13 13.13 27.75 10.75L27.75 10.75Q33 7.25 39 4.69Q45 2.13 51.25 0.88L51.25 0.88Q55.13 0 64 0Q72.88 0 76.75 0.88L76.75 0.88Q86.38 2.88 94.44 7.31Q102.50 11.75 109.38 18.63L109.38 18.63Q116.25 25.50 120.69 33.56Q125.13 41.63 127.13 51.25L127.13 51.25Q128 55.13 128 64Q128 72.88 127.13 76.75L127.13 76.75Q125.13 86.38 120.69 94.44Q116.25 102.50 109.38 109.38L109.38 109.38Q102.63 116.13 94.69 120.50Q86.75 124.88 77.25 127L77.25 127Q73.88 127.75 65.38 127.94Q56.88 128.13 53.38 127.50L53.38 127.50ZM64.88 114.75L64.88 114.75Q64.88 111.63 64.75 110.94Q64.63 110.25 64 110.25L64 110.25Q63.38 110.25 63.25 110.88Q63.13 111.50 63.13 114.13L63.13 114.13Q63.13 117.38 63.44 118.50Q63.75 119.63 64.38 119.38L64.38 119.38Q64.63 119.38 64.75 118.25Q64.88 117.13 64.88 114.75L64.88 114.75ZM58.13 116.25L58.13 116.25Q59 115.25 59.38 114.63Q59.75 114 59.75 113L59.75 113Q59.75 112 59.56 111.69Q59.38 111.38 58.88 111.50L58.88 111.50Q58.63 111.50 58.31 111.94Q58 112.38 57.88 113L57.88 113Q57.63 113.50 57.13 114.25Q56.63 115 56 115.50L56 115.50Q55 116.38 54.94 117.06Q54.88 117.75 55.88 117.75L55.88 117.75Q56.25 117.75 56.88 117.31Q57.50 116.88 58.13 116.25L58.13 116.25ZM73.13 117.25L73.13 117.25Q73.25 117 72.88 116.50Q72.50 116 72 115.50L72 115.50Q71.38 115 70.88 114.25Q70.38 113.50 70.13 113L70.13 113Q70 112.38 69.69 111.94Q69.38 111.50 69.13 111.50L69.13 111.50Q68.63 111.38 68.44 111.69Q68.25 112 68.25 113L68.25 113Q68.25 114.88 70.31 116.69Q72.38 118.50 73.13 117.25L73.13 117.25ZM52.38 109.13L52.38 109.13Q52.38 108.88 52 108.50Q51.63 108.13 51 107.88L51 107.88Q47.25 105.75 43.25 102.75Q39.25 99.75 36.75 97.25L36.75 97.25Q31.88 92.25 29.63 87Q27.38 81.75 27.38 75.50L27.38 75.50Q27.25 71.38 27.94 68.63Q28.63 65.88 30.75 62L30.75 62Q32.63 58.25 35.50 54.63Q38.38 51 44.63 44.50L44.63 44.50Q51.63 37.25 54.06 34.38Q56.50 31.50 57.75 29L57.75 29Q58.50 27.25 58.75 25.88Q59 24.50 59.13 20.75L59.13 20.75Q59.25 16.13 59 13.19Q58.75 10.25 58.25 10.25L58.25 10.25Q58 10.25 57.94 11.50Q57.88 12.75 58 15.50L58 15.50Q58.50 24.13 55.81 28.63Q53.13 33.13 43.13 40.38L43.13 40.38Q36.25 45.38 32.56 48.50Q28.88 51.63 26.50 54.63L26.50 54.63Q23.13 58.88 21.50 62.81Q19.88 66.75 19.50 71.63L19.50 71.63Q19 77.63 20.63 83.13L20.63 83.13Q22.25 88.63 25.69 93.31Q29.13 98 34.25 101.75L34.25 101.75Q39.38 105.50 46.13 108.13L46.13 108.13Q49 109.25 50.69 109.50Q52.38 109.75 52.38 109.13L52.38 109.13ZM83.13 107.75L83.13 107.75Q87.75 105.88 91.38 103.50Q95 101.13 98.25 97.75L98.25 97.75Q103.25 92.75 105.50 87.63Q107.75 82.50 108.13 75.50L108.13 75.50Q108.38 69.50 106.88 65Q105.38 60.50 101.63 56L101.63 56Q99.13 52.88 95.56 50Q92 47.13 84.50 42.13L84.50 42.13Q74.38 35.38 71.13 31.75Q67.88 28.13 67.88 23.38L67.88 23.38Q67.88 22.13 68.06 20.63Q68.25 19.13 68.50 18.13L68.50 18.13Q69 16.63 69 15.88Q69 15.13 68.50 16.38L68.50 16.38Q68 17.50 67.19 17.06Q66.38 16.63 65.88 14.88L65.88 14.88L65.13 12.75L65.38 14.75Q66.13 20.25 66.25 23.44Q66.38 26.63 66 31.38L66 31.38Q65.63 37.88 64.69 43.19Q63.75 48.50 61.50 56.50L61.50 56.50Q59.38 64.38 58.81 68.63Q58.25 72.88 58.50 79L58.50 79Q58.75 84.13 59.50 88.31Q60.25 92.50 62 97.50L62 97.50Q63.50 102.25 64.44 103.38Q65.38 104.50 68.25 105.13L68.25 105.13Q69.75 105.63 71.19 106.25Q72.63 106.88 73.88 107.75L73.88 107.75Q74.88 108.50 75.94 109Q77 109.50 77.63 109.50L77.63 109.50Q78.13 109.50 79.75 109Q81.38 108.50 83.13 107.75L83.13 107.75ZM81.75 104.75L81.75 104.75Q81.38 104.25 81.69 103.69Q82 103.13 83.63 101.25L83.63 101.25Q88.88 95.50 91.31 89.25Q93.75 83 93.88 75.38L93.88 75.38Q93.88 70.13 92.56 66.06Q91.25 62 87.63 56.75L87.63 56.75Q86 54.38 81.56 49.69Q77.13 45 74.38 42.88L74.38 42.88Q72.38 41.25 70.63 38.94Q68.88 36.63 68.50 35.13L68.50 35.13Q68.13 33.50 68.94 33.88Q69.75 34.25 71 36.13L71 36.13Q71.63 37 72.75 38.19Q73.88 39.38 74.75 40.13L74.75 40.13Q75.75 40.75 78.25 42.63Q80.75 44.50 83.38 46.38L83.38 46.38Q92.13 52.88 96.31 58.88Q100.50 64.88 101.38 72.13L101.38 72.13Q101.88 76.25 101.06 80.50Q100.25 84.75 98.25 88.75L98.25 88.75Q96.13 92.88 92.69 96.94Q89.25 101 85.88 103.25L85.88 103.25Q83.88 104.50 83.06 104.81Q82.25 105.13 81.75 104.75ZM58.88 105.38L58.88 105.38Q59 105 58.25 103.63Q57.50 102.25 56.38 100.50L56.38 100.50Q53.25 95.75 51.63 92.69Q50 89.63 48.75 86L48.75 86Q47.63 82.88 47.44 81.31Q47.25 79.75 47.25 75.13L47.25 75.13Q47.25 68 48.69 63.81Q50.13 59.63 55.75 50.25L55.75 50.25Q61 41.50 62.25 35.50Q63.50 29.50 63 16L63 16Q62.75 11.13 62.50 7.63Q62.25 4.13 62.25 4L62.25 4Q61.63 3.50 61.50 5.13Q61.38 6.75 61.63 11.63L61.63 11.63Q62 21.38 61.31 27.31Q60.63 33.25 58.63 37.75L58.63 37.75Q57.13 40.75 55.19 43.63Q53.25 46.50 49 51.75L49 51.75Q43.25 59 41.19 63.81Q39.13 68.63 39.13 74.88L39.13 74.88Q39.13 79.13 39.81 82.25Q40.50 85.38 42.25 89.13L42.25 89.13Q44.13 93 47.44 96.94Q50.75 100.88 55.13 104.13L55.13 104.13Q57.13 105.63 57.88 105.81Q58.63 106 58.88 105.38L58.88 105.38Z"/></svg>