<svg xmlns="http://www.w3.org/2000/svg" xmlns:xlink="http://www.w3.org/1999/xlink" width="128" height="128"><path fill="#ffffff" d="M40.13 23.75L40.13 23.75Q34.13 24.25 28.63 26.50L28.63 26.50Q23.25 28.75 18.69 32.38Q14.13 36 10.75 40.88L10.75 40.88Q7.38 45.63 5.50 51.50L5.50 51.50Q4.38 54.75 3.94 57.50Q3.50 60.25 3.50 64L3.50 64Q3.50 67.75 3.94 70.50Q4.38 73.25 5.50 76.63L5.50 76.63Q8.38 85.38 14.38 91.75L14.38 91.75Q20.50 98.13 28.31 101.38Q36.13 104.63 44.88 104.38L44.88 104.38Q53.63 104.25 62 100.13L62 100.13L64 99.13L66.13 100.13Q72.88 103.50 80.25 104.25L80.25 104.25Q87.63 104.88 94.56 103.06Q101.50 101.25 107.50 97L107.50 97Q113.50 92.88 117.75 86.50L117.75 86.50Q120 83.13 121.63 79.06Q123.25 75 124 70.88L124 70.88Q124.25 69.38 124.38 67.88Q124.50 66.38 124.50 64L124.50 64Q124.50 60.25 124.06 57.50Q123.63 54.75 122.50 51.50L122.50 51.50Q119.63 42.63 113.63 36.25L113.63 36.25Q107.50 30 99.69 26.75Q91.88 23.50 83.13 23.63L83.13 23.63Q74.38 23.75 66.13 27.88L66.13 27.88L64 29L62 27.88Q58.63 26.25 54.94 25.19Q51.25 24.13 47.25 23.75L47.25 23.75L47 23.75Q44.63 23.50 43.56 23.50Q42.50 23.50 40.13 23.75L40.13 23.75ZM50.25 32.38L50.25 32.38Q52 32.75 54.88 33.88Q57.75 35 59.88 36.13L59.88 36.13Q62.63 37.63 65.50 40.31Q68.38 43 70.38 45.88L70.38 45.88Q71.38 47.38 72.63 49.94Q73.88 52.50 74.63 54.75L74.63 54.75Q75.88 58 75.88 64.06Q75.88 70.13 74.63 73.25L74.63 73.25Q73.25 77.13 71.50 80.25Q69.75 83.38 67.38 85.88L67.38 85.88Q64.50 88.88 61.63 90.81Q58.75 92.75 54.88 94.25L54.88 94.25Q52.38 95.25 50.50 95.63Q48.63 96 45.63 96.13L45.63 96.13Q42.13 96.38 38.94 95.94Q35.75 95.50 33.25 94.50L33.25 94.50Q32.50 94.25 31.94 94Q31.38 93.75 31.25 93.75L31.25 93.75Q30.88 93.63 28.50 92.31Q26.13 91 25 90.25L25 90.25Q23.88 89.50 21.56 87.25Q19.25 85 18.25 83.63L18.25 83.63Q17.63 82.88 17.25 82.31Q16.88 81.75 16.88 81.75L16.88 81.75Q16.88 81.63 16.50 81Q16.13 80.38 15.63 79.50L15.63 79.50Q14.75 78 14.25 76.94Q13.75 75.88 13.88 75.88L13.88 75.88Q13.88 75.88 13.75 75.38Q13.63 74.88 13.25 74.25L13.25 74.25Q12.38 72.13 12.06 69.94Q11.75 67.75 11.75 64L11.75 64Q11.75 60.25 12.06 58.13Q12.38 56 13.25 53.88L13.25 53.88Q13.63 53.13 13.75 52.63Q13.88 52.13 13.88 52.13L13.88 52.13Q13.75 52.13 14.25 51.06Q14.75 50 15.63 48.50L15.63 48.50Q16.13 47.63 16.50 47Q16.88 46.38 16.88 46.38L16.88 46.38Q16.88 46.25 17.25 45.69Q17.63 45.13 18.25 44.38L18.25 44.38Q19.25 43 21.56 40.75Q23.88 38.50 25 37.75L25 37.75Q26.13 37 28.50 35.69Q30.88 34.38 31.25 34.25L31.25 34.25Q31.38 34.25 32.06 34Q32.75 33.75 33.38 33.50L33.38 33.50Q35 32.88 36.31 32.56Q37.63 32.25 39.50 32L39.50 32Q41.38 31.88 45 31.94Q48.63 32 50.25 32.38L50.25 32.38ZM45 49.75L45 49.75Q44.88 49.88 44.50 51.44Q44.13 53 43.63 55.13L43.63 55.13Q43.13 57.25 42.44 60.25Q41.75 63.25 41.25 65.25L41.25 65.25Q40.38 68.88 39.88 71.19Q39.38 73.50 39.38 73.75L39.38 73.75Q39.38 73.88 39.88 73.94Q40.38 74 41 74L41 74L42.63 74L43.38 70.75Q43.63 69.38 44.25 66.69Q44.88 64 45.50 61.63L45.50 61.63Q46.13 59.25 46.69 56.69Q47.25 54.13 47.50 53L47.50 53Q47.75 51.88 48 50.94Q48.25 50 48.38 49.88L48.38 49.88Q48.38 49.75 48 49.69Q47.63 49.63 46.75 49.63L46.75 49.63Q46 49.63 45.50 49.63Q45 49.63 45 49.75L45 49.75ZM32.25 60L32.25 60L30.13 62.38L30.75 63.13Q31 63.50 31.63 64.19Q32.25 64.88 32.88 65.50L32.88 65.50L34.38 67.13L38.75 67.13L36.63 64.88Q35.88 64 35.25 63.25Q34.63 62.50 34.63 62.50L34.63 62.50Q34.63 62.38 35.19 61.63Q35.75 60.88 36.50 60.13L36.50 60.13Q37.25 59.25 37.81 58.56Q38.38 57.88 38.38 57.75L38.38 57.75Q38.38 57.75 37.81 57.69Q37.25 57.63 36.38 57.63L36.38 57.63L34.50 57.63L32.25 60ZM48.88 57.75L48.88 57.75Q48.88 57.88 49.13 58.13Q49.38 58.38 49.75 58.75L49.75 58.75Q51.13 60.13 52 61.19Q52.88 62.25 52.88 62.50L52.88 62.50Q52.75 62.63 52.19 63.38Q51.63 64.13 50.75 65L50.75 65L48.75 67.13L51 67.13L53.25 67.13L55.25 64.88Q56.13 64 56.69 63.25Q57.25 62.50 57.25 62.38L57.25 62.38Q57.25 62.38 56.63 61.63Q56 60.88 55.13 59.88L55.13 59.88L53 57.63L50.88 57.63Q50 57.63 49.44 57.69Q48.88 57.75 48.88 57.75L48.88 57.75Z"/></svg>