<svg xmlns="http://www.w3.org/2000/svg" xmlns:xlink="http://www.w3.org/1999/xlink" width="128" height="128"><path fill="#000000" d="M46.63 65.25L46.63 65.25L46.63 57L48.25 56.88L48.25 58.13L48.25 59.38L48.50 59Q49 58.13 49.88 57.56Q50.75 57 51.88 56.88L51.88 56.88Q54 56.50 55.56 57.50Q57.13 58.50 57.75 60.50L57.75 60.50Q58 61.38 58 62.69Q58 64 57.63 64.75L57.63 64.75Q57.38 65.63 56.88 66.31Q56.38 67 55.75 67.50L55.75 67.50Q55.38 67.75 55.06 67.94Q54.75 68.13 54.25 68.25L54.25 68.25Q53.75 68.38 52.69 68.38Q51.63 68.38 51.13 68.25L51.13 68.25Q50.25 68 49.63 67.50Q49 67 48.63 66.38L48.63 66.38L48.25 66L48.25 69.75L48.25 73.50L46.63 73.50L46.63 65.25ZM53.63 66.75L53.63 66.75Q54 66.63 54.38 66.44Q54.75 66.25 55 66L55 66L55 66Q55.25 65.75 55.56 65.38Q55.88 65 55.88 64.88L55.88 64.88Q55.88 64.88 55.88 64.75Q55.88 64.63 56 64.50L56 64.50Q56.13 64.25 56.25 63.69Q56.38 63.13 56.38 62.63L56.38 62.63Q56.38 61.13 55.63 60Q54.88 58.88 53.63 58.50L53.63 58.50Q53.38 58.38 53.06 58.38Q52.75 58.38 52.25 58.38L52.25 58.38Q51.50 58.38 51.06 58.44Q50.63 58.50 50.13 58.88L50.13 58.88Q48.75 59.75 48.38 61.50Q48 63.25 48.75 64.88L48.75 64.88Q49.13 65.63 49.88 66.19Q50.63 66.75 51.63 66.88L51.63 66.88Q52 67 52.63 66.94Q53.25 66.88 53.63 66.75L53.63 66.75ZM60.50 65.25L60.50 65.25L60.50 57L62.13 56.88L62.13 59.38L62.38 59Q63 58 63.94 57.44Q64.88 56.88 66.13 56.75L66.13 56.75Q67.38 56.75 68.44 57.13Q69.50 57.50 70.38 58.25L70.38 58.25Q70.75 58.63 71.06 59.19Q71.38 59.75 71.50 60.38L71.50 60.38Q71.75 60.88 71.81 62Q71.88 63.13 71.75 63.88L71.75 63.88Q71.75 64.25 71.56 64.75Q71.38 65.25 71.38 65.38L71.38 65.38Q71.38 65.38 71.31 65.50Q71.25 65.63 71.25 65.63L71.25 65.63Q71.13 66 70.63 66.63Q70.13 67.25 69.63 67.63L69.63 67.63Q69.25 67.88 68.69 68.06Q68.13 68.25 67.63 68.38L67.63 68.38Q67.25 68.38 66.25 68.38Q65.25 68.38 64.88 68.25L64.88 68.25Q64.63 68.13 64.13 67.88Q63.63 67.63 63.50 67.50L63.50 67.50Q63.13 67.25 62.81 66.81Q62.50 66.38 62.25 66.13L62.25 66.13Q62.25 65.88 62.19 66.44Q62.13 67 62.13 69.75L62.13 69.75L62.13 73.50L60.50 73.50L60.50 65.25ZM67.50 66.75L67.50 66.75Q68.50 66.50 69.13 65.81Q69.75 65.13 70 64L70 64Q70.13 63.50 70.13 62.50Q70.13 61.50 70 61.13L70 61.13Q69.88 60.75 69.69 60.31Q69.50 59.88 69.38 59.75L69.38 59.75Q69.25 59.63 69.19 59.56Q69.13 59.50 69 59.38L69 59.38Q68.88 59.13 68.44 58.88Q68 58.63 67.75 58.50L67.75 58.50Q67.63 58.50 67.56 58.50Q67.50 58.50 67.50 58.38L67.50 58.38L67.50 58.38Q67.38 58.38 67.06 58.38Q66.75 58.38 66.25 58.38L66.25 58.38L65.13 58.38L64.50 58.63Q63.88 58.88 63.63 59.13Q63.38 59.38 63 59.75L63 59.75Q62.75 60.13 62.56 60.56Q62.38 61 62.25 61.63L62.25 61.63Q62.13 62.50 62.19 63.31Q62.25 64.13 62.63 64.88L62.63 64.88Q63 65.63 63.75 66.19Q64.50 66.75 65.50 66.88L65.50 66.88Q65.75 67 66.44 66.94Q67.13 66.88 67.50 66.75ZM10 65L10 65Q10 65 10 64.88Q10 64.75 10 64.63L10 64.63Q10.13 64.38 10.25 63.81Q10.38 63.25 10.50 62.75L10.50 62.75Q10.50 62.50 10.63 62.19Q10.75 61.88 10.75 61.63L10.75 61.63Q10.75 61.50 10.81 61.25Q10.88 61 11 60.88L11 60.88Q11 60.63 11.06 60.44Q11.13 60.25 11.13 60L11.13 60L11.13 60.13L11.25 59.88L11.63 59.88Q11.75 59.88 11.88 59.88Q12 59.88 12 59.88L12 59.88Q11.88 60.25 11.81 60.56Q11.75 60.88 11.75 61.25L11.75 61.25L11.75 61Q11.75 61.25 11.63 61.63Q11.50 62 11.50 62.25L11.50 62.25Q11.38 62.50 11.31 62.81Q11.25 63.13 11.25 63.38L11.25 63.38Q11.13 63.50 11.06 63.81Q11 64.13 11 64.25L11 64.25Q10.88 64.88 10.81 64.94Q10.75 65 10.38 65L10.38 65Q10.25 65 10.13 65Q10 65 10 65ZM8.50 63.13L8.50 63.13L8 62.63L8.50 62L9 61.50L9.50 61.50Q9.75 61.50 9.88 61.50Q10 61.50 10 61.63L10 61.63Q10 61.63 9.94 61.75Q9.88 61.88 9.75 62L9.75 62Q9.25 62.50 9.25 62.56Q9.25 62.63 9.63 63L9.63 63Q9.75 63.25 9.88 63.38Q10 63.50 10 63.63L10 63.63Q10 63.63 9.88 63.63Q9.75 63.63 9.50 63.63L9.50 63.63L9 63.63L8.50 63.13ZM11.88 63.63L11.88 63.63Q11.88 63.50 12 63.38Q12.13 63.25 12.38 63L12.38 63Q12.75 62.63 12.75 62.56Q12.75 62.50 12.25 62L12.25 62Q12.13 61.88 12 61.75Q11.88 61.63 11.88 61.63L11.88 61.63Q11.88 61.50 12.06 61.50Q12.25 61.50 12.50 61.50L12.50 61.50L13 61.50L13.50 62Q13.75 62.50 13.81 62.56Q13.88 62.63 13.75 62.75L13.75 62.75Q13.75 62.75 13.63 62.94Q13.50 63.13 13.25 63.25L13.25 63.25L12.88 63.63L12.38 63.63Q12.25 63.63 12.06 63.63Q11.88 63.63 11.88 63.63L11.88 63.63ZM36.38 68.38L36.38 68.38Q36 68.25 35.63 68.13Q35.25 68 34.88 67.88L34.88 67.88L35 67.88Q34.50 67.63 34.38 67.50Q34.25 67.38 33.75 66.88L33.75 66.88Q33.38 66.63 33.19 66.38Q33 66.13 32.88 65.63L32.88 65.63Q32.50 64.88 32.38 64.25Q32.25 63.63 32.25 62.63L32.25 62.63Q32.25 61.50 32.38 60.94Q32.50 60.38 32.88 59.50L32.88 59.50Q33 59.13 33.19 58.88Q33.38 58.63 33.75 58.38L33.75 58.38Q34.13 57.88 34.38 57.69Q34.63 57.50 35 57.25L35 57.25Q36.25 56.75 37.69 56.81Q39.13 56.88 40.13 57.38L40.13 57.38Q40.63 57.75 41.06 58.13Q41.50 58.50 41.75 59.13L41.75 59.13L42 59.50L42 56.88L43.63 56.88L43.63 62.63L43.50 68.25L42 68.38L42 67Q42 66.13 42 65.94Q42 65.75 41.88 66L41.88 66Q41.50 66.63 40.75 67.25Q40 67.88 39.13 68.25L39.13 68.25Q38.88 68.38 37.81 68.38Q36.75 68.38 36.38 68.38ZM39.13 66.75L39.13 66.75Q39.63 66.50 40 66.31Q40.38 66.13 40.63 65.88L40.63 65.88Q41.13 65.38 41.19 65.25Q41.25 65.13 41.50 64.63L41.50 64.63Q41.63 64.38 41.75 64.06Q41.88 63.75 41.88 63.38L41.88 63.38Q42 62.88 42 62.63Q42 62.38 41.88 62L41.88 62Q41.75 60.88 41.19 60Q40.63 59.13 39.75 58.75L39.75 58.75Q39.63 58.63 39.38 58.56Q39.13 58.50 39.13 58.38L39.13 58.38Q38.88 58.38 38.06 58.31Q37.25 58.25 36.88 58.38L36.88 58.38Q36.38 58.50 35.94 58.75Q35.50 59 35.13 59.38L35.13 59.38Q34.63 59.88 34.44 60.13Q34.25 60.38 34.13 61L34.13 61Q33.88 61.63 33.88 62.63Q33.88 63.63 34.13 64.25L34.13 64.25Q34.38 65.25 35.19 65.94Q36 66.63 37.13 66.88L37.13 66.88Q37.50 67 38.13 66.94Q38.75 66.88 39.13 66.75L39.13 66.75ZM118.38 68.38L118.38 68.38Q117.63 68.25 116.75 67.81Q115.88 67.38 115.38 66.88L115.38 66.88Q115.13 66.63 114.81 66.06Q114.50 65.50 114.38 65.25L114.38 65.25Q114 64.63 113.94 64.06Q113.88 63.50 113.88 62.50L113.88 62.50Q113.88 61.75 113.88 61.38Q113.88 61 114 60.63L114 60.63Q114.50 59 115.56 58.06Q116.63 57.13 118.13 56.75L118.13 56.75Q119.50 56.50 120.81 56.69Q122.13 56.88 123.13 57.63L123.13 57.63Q123.38 57.88 123.81 58.25Q124.25 58.63 124.25 58.88L124.25 58.88Q124.25 58.88 124.31 58.94Q124.38 59 124.38 59L124.38 59Q124.38 59 124.44 59.06Q124.50 59.13 124.50 59.13L124.50 59.13Q124.50 59.13 124.56 59.25Q124.63 59.38 124.63 59.38L124.63 59.38Q124.75 59.50 124.81 59.75Q124.88 60 125 60.38L125 60.38Q125.13 60.75 125.19 61.63Q125.25 62.50 125.25 62.88L125.25 62.88L125.13 63.25L116.88 63.25L116.88 63.38Q116.88 63.63 117 64.06Q117.13 64.50 117.38 64.75L117.38 64.75Q117.63 65.25 118.19 65.56Q118.75 65.88 119.50 65.88L119.50 65.88Q120.25 65.88 120.94 65.44Q121.63 65 121.75 64.38L121.75 64.38L121.88 64L123.38 64Q124.13 64 124.56 64.06Q125 64.13 125 64.13L125 64.13Q125.13 64.25 125.06 64.56Q125 64.88 124.88 65.25L124.88 65.25Q124.75 65.38 124.75 65.44Q124.75 65.50 124.75 65.50L124.75 65.50Q124.75 65.63 124.38 66.06Q124 66.50 123.75 66.75L123.75 66.75Q123.38 67.25 122.75 67.63Q122.13 68 121.50 68.25L121.50 68.25Q121.13 68.25 120.81 68.31Q120.50 68.38 119.75 68.38L119.75 68.38Q119.25 68.38 118.88 68.38Q118.50 68.38 118.38 68.38L118.38 68.38ZM122.13 61.13L122.13 61.13Q122 60.50 121.63 60.06Q121.25 59.63 120.63 59.38L120.63 59.38Q120.13 59.13 119.50 59.13Q118.88 59.13 118.50 59.38L118.50 59.38Q117.88 59.63 117.56 60Q117.25 60.38 117 61L117 61Q116.88 61.50 117.06 61.56Q117.25 61.63 119.50 61.63L119.50 61.63L122.13 61.63L122.13 61.13ZM76 68.25L76 68.25Q76 68.25 75.94 67.94Q75.88 67.63 75.75 67.25L75.75 67.25Q75.63 66.88 75.50 66.38Q75.38 65.88 75.25 65.50L75.25 65.50Q75.38 66.13 75.25 65.69Q75.13 65.25 74.88 64.63L74.88 64.63L74.50 62.88Q74.38 62 74.25 61.50Q74.13 61 74 60.63L74 60.63L74.13 61.25Q74.13 61.13 74 60.88Q73.88 60.63 73.88 60.25L73.88 60.25L73.75 59.88Q73.38 58.75 73.19 57.94Q73 57.13 73 57L73 57L73 56.75L76.13 56.75L76.13 57.25Q76.25 57.50 76.31 57.75Q76.38 58 76.38 58.25L76.38 58.25Q76.50 58.88 76.63 59.44Q76.75 60 76.88 60.50L76.88 60.50Q76.88 60.75 76.94 61.06Q77 61.38 77 61.50L77 61.50Q77.13 61.75 77.19 62.06Q77.25 62.38 77.25 62.63L77.25 62.63Q77.38 63.13 77.50 63.63Q77.63 64.13 77.75 64.63L77.75 64.63Q77.75 65 77.81 64.94Q77.88 64.88 78.13 64.13L78.13 64.13Q78.38 63.13 78.63 62.38Q78.88 61.63 79.13 60.63L79.13 60.63Q79.38 59.50 79.63 58.63Q79.88 57.75 80 57.25L80 57.25Q80.13 57.13 80.13 57Q80.13 56.88 80.25 56.88L80.25 56.88L80.25 56.88Q80.25 56.75 80.63 56.75Q81 56.75 81.88 56.75L81.88 56.75L83.50 56.75L83.50 57.13Q83.63 57.25 83.69 57.63Q83.75 58 83.88 58.38L83.88 58.38Q84.25 59.38 84.38 59.81Q84.50 60.25 84.75 61.38L84.75 61.38Q85 62.38 85.13 62.75Q85.25 63.13 85.50 63.88L85.50 63.88L85.75 64.63Q85.75 64.75 85.81 64.88Q85.88 65 85.88 65L85.88 65Q85.88 65 85.94 64.81Q86 64.63 86 64.38L86 64.38Q86.13 64.13 86.19 63.81Q86.25 63.50 86.25 63.25L86.25 63.25Q86.25 63.13 86.31 62.75Q86.38 62.38 86.50 62.13L86.50 62.13Q86.50 61.88 86.56 61.56Q86.63 61.25 86.75 61L86.75 61Q86.88 60.38 87 59.63Q87.13 58.88 87.25 58.50L87.25 58.50Q87.38 57.88 87.50 57.38Q87.63 56.88 87.63 56.88L87.63 56.88Q87.63 56.75 88.06 56.75Q88.50 56.75 89.13 56.75L89.13 56.75L90.50 56.75L90.50 57.13Q90.50 57.25 90.44 57.44Q90.38 57.63 90.38 57.75L90.38 57.75Q90.25 58.13 90.06 58.75Q89.88 59.38 89.88 59.63L89.88 59.63Q89.75 59.75 89.69 60Q89.63 60.25 89.63 60.38L89.63 60.38Q89.50 60.63 89.38 61.13Q89.25 61.63 89.13 62.13L89.13 62.13Q89 62.63 88.81 63.25Q88.63 63.88 88.63 64.25L88.63 64.25Q88.50 64.63 88.38 65.13Q88.25 65.63 88.13 66.13L88.13 66.13Q88 66.50 87.88 66.94Q87.75 67.38 87.75 67.50L87.75 67.50Q87.63 67.63 87.63 67.81Q87.63 68 87.50 68.13L87.50 68.13L87.50 68.38L84.13 68.38L84 68Q84 67.88 83.94 67.69Q83.88 67.50 83.75 67.25L83.75 67.25Q83.75 67.13 83.69 66.81Q83.63 66.50 83.50 66.38L83.50 66.38Q83.50 66.13 83.44 65.88Q83.38 65.63 83.25 65.50L83.25 65.50Q83.75 67.38 83.63 67Q83.50 66.63 83.25 65.88L83.25 65.88L82.38 62.38Q82.25 62.13 82.19 61.88Q82.13 61.63 82.13 61.50L82.13 61.50Q82.13 61.38 82.06 61.19Q82 61 81.88 60.88L81.88 60.88Q81.88 60.75 81.81 60.63Q81.75 60.50 81.75 60.50L81.75 60.50Q81.75 60.50 81.63 60.81Q81.50 61.13 81.38 61.88L81.38 61.88Q81.25 62.13 81.13 62.50Q81 62.88 80.88 63.13L80.88 63.13Q80.75 63.75 80.63 64.13Q80.50 64.50 80.25 65.50L80.25 65.50Q80.13 65.88 80.06 66.13Q80 66.38 79.88 66.50L79.88 66.50Q79.88 66.50 79.88 66.56Q79.88 66.63 79.88 66.63L79.88 66.63Q79.88 66.75 79.81 67Q79.75 67.25 79.63 67.50L79.63 67.50L79.38 68.38L77.63 68.38Q76.75 68.38 76.38 68.31Q76 68.25 76 68.25L76 68.25ZM92 68.25L92 68.25Q91.88 68.25 91.88 66.56Q91.88 64.88 91.88 62.50L91.88 62.50L91.88 56.75L95 56.75L95 58.63L95.63 58Q96.25 57.25 97 56.94Q97.75 56.63 98.63 56.63L98.63 56.63L99 56.63L99 58.25L99 59.88L98.13 59.88Q97.75 60 97.44 60Q97.13 60 97 60L97 60Q96.38 60.13 95.94 60.44Q95.50 60.75 95.25 61.25L95.25 61.25Q95.13 61.75 95.06 62.44Q95 63.13 95 65.38L95 65.38L95 68.38L93.50 68.38Q92.88 68.38 92.44 68.31Q92 68.25 92 68.25L92 68.25ZM100.50 68.13L100.50 68.13Q100.50 68.13 100.50 66.44Q100.50 64.75 100.50 62.38L100.50 62.38L100.50 56.75L103.63 56.75L103.63 68.25L102.13 68.38L100.50 68.38L100.50 68.13ZM109.63 68.25L109.63 68.25Q108.75 68 108.13 67.63Q107.50 67.25 107.25 66.63L107.25 66.63Q106.88 65.88 106.81 65.19Q106.75 64.50 106.75 62.25L106.75 62.25L106.75 59.38L105.13 59.38L105.13 58.13L105.25 56.75L106.75 56.75L106.75 53.88L108.38 54L109.88 54L109.88 55.38L109.88 56.75L112.38 56.75L112.38 59.38L109.88 59.38L109.88 62.13Q109.88 64.38 109.94 64.75Q110 65.13 110.38 65.38L110.38 65.38Q110.50 65.50 110.69 65.50Q110.88 65.50 111.50 65.63L111.50 65.63L112.38 65.63L112.38 68.25L111.38 68.38Q110.88 68.38 110.44 68.31Q110 68.25 109.63 68.25L109.63 68.25ZM101.38 55.13L101.38 55.13Q100.75 55 100.44 54.50Q100.13 54 100.25 53.38L100.25 53.38Q100.25 52.88 100.56 52.56Q100.88 52.25 101.25 52L101.25 52Q101.63 51.88 102.19 51.94Q102.75 52 103 52.13L103 52.13Q103.38 52.25 103.56 52.56Q103.75 52.88 103.88 53.25L103.88 53.25Q104 53.50 104 53.63Q104 53.75 103.88 54.13L103.88 54.13Q103.63 54.75 102.94 55.13Q102.25 55.50 101.38 55.13L101.38 55.13ZM10.38 54.38L10.38 54.38Q7.88 54.63 5.94 56.19Q4 57.75 3.13 60.13L3.13 60.13L3.13 60.13Q3 60.88 2.88 61.44Q2.75 62 2.75 62.75L2.75 62.75Q2.75 63.50 2.88 64.06Q3 64.63 3.13 65.38L3.13 65.38Q4.38 69 7.88 70.50Q11.38 72 14.88 70.25L14.88 70.25L15.25 70L15.75 70.25Q16.50 70.63 17.50 70.88Q18.50 71.13 19.50 71.13L19.50 71.13Q21.63 71.13 23.44 70.13Q25.25 69.13 26.38 67.38L26.38 67.38L26.38 67.38Q26.88 66.75 27.25 65.88Q27.63 65 27.75 64.13L27.75 64.13Q27.75 63.88 27.81 63.56Q27.88 63.25 27.88 62.75L27.88 62.75Q27.88 62 27.75 61.44Q27.63 60.88 27.38 60.13L27.38 60.13Q26.25 56.50 22.69 55Q19.13 53.50 15.75 55.25L15.75 55.25L15.25 55.50L14.88 55.25Q14.25 54.88 13.44 54.69Q12.63 54.50 11.75 54.38L11.75 54.38L11.75 54.38Q11.25 54.38 11.06 54.38Q10.88 54.38 10.38 54.38L10.38 54.38ZM12.50 56.25L12.50 56.25Q12.88 56.25 13.44 56.50Q14 56.75 14.38 57L14.38 57Q15 57.25 15.63 57.81Q16.25 58.38 16.63 59L16.63 59Q16.88 59.25 17.13 59.81Q17.38 60.38 17.50 60.88L17.50 60.88Q17.75 61.50 17.75 62.75Q17.75 64 17.50 64.63L17.50 64.63Q17.25 65.50 16.88 66.13Q16.50 66.75 16 67.25L16 67.25Q15.38 67.88 14.81 68.31Q14.25 68.75 13.38 69L13.38 69Q12.88 69.25 12.50 69.31Q12.13 69.38 11.50 69.38L11.50 69.38Q10.75 69.50 10.06 69.38Q9.38 69.25 8.88 69L8.88 69Q8.88 69 8.75 69Q8.63 69 8.50 68.88L8.50 68.88L8.50 68.88Q8.38 68.88 7.88 68.63Q7.38 68.38 7.25 68.25L7.25 68.25Q7 68 6.50 67.56Q6 67.13 5.75 66.75L5.75 66.75Q5.75 66.75 5.69 66.63Q5.63 66.50 5.50 66.38L5.50 66.38L5.50 66.38Q5.50 66.38 5.44 66.25Q5.38 66.13 5.25 66L5.25 66Q5.13 65.63 5 65.44Q4.88 65.25 4.88 65.25L4.88 65.25Q4.88 65.25 4.88 65.13Q4.88 65 4.75 64.88L4.75 64.88Q4.63 64.38 4.56 63.94Q4.50 63.50 4.50 62.75L4.50 62.75Q4.50 62 4.56 61.56Q4.63 61.13 4.75 60.63L4.75 60.63Q4.88 60.50 4.88 60.38Q4.88 60.25 4.88 60.25L4.88 60.25Q4.88 60.25 5 60.06Q5.13 59.88 5.25 59.50L5.25 59.50Q5.38 59.38 5.44 59.25Q5.50 59.13 5.50 59.13L5.50 59.13Q5.50 59.13 5.63 59Q5.75 58.88 5.75 58.75L5.75 58.75Q6 58.38 6.50 57.94Q7 57.50 7.25 57.25L7.25 57.25Q7.38 57.13 7.88 56.88Q8.38 56.63 8.50 56.63L8.50 56.63Q8.63 56.50 8.75 56.50Q8.88 56.50 9 56.38L9 56.38L9 56.38Q9.25 56.25 9.56 56.19Q9.88 56.13 10.25 56.13L10.25 56.13Q10.63 56.13 11.38 56.13Q12.13 56.13 12.50 56.25L12.50 56.25ZM47 39.25L47 39.25L47 39.38L47 39.38L47 39.50L47 39.50L47 39.50L47 39.50L47 39.38L47 39.38L47 39.25Q47 39.25 47 39.25Q47 39.25 47 39.25L47 39.25L47 39.25ZM46.88 39.38L46.88 39.38L46.88 39.38L46.88 39.38L46.88 39.38L46.88 39.50L47 39.50L46.88 39.38Q46.88 39.38 46.88 39.38Q46.88 39.38 46.88 39.38L46.88 39.38L46.88 39.38L46.88 39.38Q46.88 39.38 46.94 39.38Q47 39.38 47 39.38L47 39.38L47 39.38L46.88 39.38L46.88 39.38L46.88 39.38ZM47 39.38L47 39.38L47 39.38Q47 39.38 47 39.38Q47 39.38 47 39.38L47 39.38Q47 39.38 47 39.38Q47 39.38 47 39.38L47 39.38L47 39.50L47 39.50L47 39.50L47.13 39.38L47.13 39.38Q47.13 39.38 47.13 39.38Q47.13 39.38 47.13 39.38L47.13 39.38L47.13 39.38L47 39.38L47 39.38Z"/></svg>