<svg xmlns="http://www.w3.org/2000/svg" xmlns:xlink="http://www.w3.org/1999/xlink" width="128" height="128"><path fill="#000000" d="M124.75 52.13L124.75 52.13Q121.63 50.25 117.63 49.94Q113.63 49.63 110 50.75L110 50.75Q109.50 46.75 107.25 43.50Q105 40.25 102 37.75L102 37.75L100.38 36.50L99 38.13Q97 40.38 96.31 43.88Q95.63 47.38 95.88 50.38L95.88 50.38Q96.13 52.63 96.81 54.75Q97.50 56.88 98.88 58.75L98.88 58.75Q97.88 59.25 96.75 60Q95.63 60.75 94.63 61.13L94.63 61.13Q92.50 61.88 90.25 62.50Q88 63.13 85.75 63.13L85.75 63.13L79 63.13L79 49L66 49L66 24L51 24L51 36L26 36L26 49L13 49L13 63L1.75 63L1.63 64.50Q1.25 69.25 1.94 73.94Q2.63 78.63 4.63 83L4.63 83L5.75 85.38Q8.75 90.38 12.75 94L12.75 94Q16.75 97.63 21.50 99.94Q26.25 102.25 31.63 103.38L31.63 103.38Q36.88 104.38 42.63 104.38L42.63 104.38Q53.50 104.38 63.38 101.88L63.38 101.88Q73.25 99.50 81.56 94.44Q89.88 89.38 96.38 81.75L96.38 81.75Q102.75 74.13 106.88 63.75L106.88 63.75Q112.50 64.13 117.63 62.19Q122.75 60.25 125.50 54.88L125.50 54.88L126.38 53.13L124.75 52.13ZM28 50L28 39L38 39L38 50L28 50ZM41.13 83.25L41.13 83.25Q41.13 84.50 40.19 85.38Q39.25 86.25 38 86.25L38 86.25Q36.75 86.25 35.81 85.38Q34.88 84.50 34.88 83.25L34.88 83.25Q34.88 81.88 35.81 81Q36.75 80.13 38 80.13L38 80.13Q39.25 80.13 40.19 81Q41.13 81.88 41.13 83.25ZM28 63L28 52L38 52L38 63L28 63ZM15 63L15 52L26 52L26 63L15 63ZM46.13 102.25L42.75 102.25Q30.88 102.13 23.75 98.56Q16.63 95 11.38 89.75L11.38 89.75Q13 89.88 14.50 89.94Q16 90 17.25 90L17.25 90Q18.50 90 19.69 90Q20.88 90 22 89.88L22 89.88Q24.88 89.75 27.44 89.38Q30 89 32.13 88.38L32.13 88.38Q33.88 92.38 37.19 95.94Q40.50 99.50 46.13 102.25L46.13 102.25ZM51 52L51 63L40 63L40 52L51 52ZM51 39L51 50L40 50L40 39L51 39ZM64 52L64 63L53 63L53 52L64 52ZM64 39L64 50L53 50L53 39L64 39ZM64 26L64 37L53 37L53 26L64 26ZM77 52L77 63L66 63L66 52L77 52ZM38.75 81.25L38.75 81.25Q38.63 81.13 38.44 81.06Q38.25 81 38 81L38 81Q37.13 81 36.44 81.63Q35.75 82.25 35.75 83.25L35.75 83.25Q35.75 84.13 36.44 84.75Q37.13 85.38 38 85.38L38 85.38Q38.88 85.38 39.56 84.75Q40.25 84.13 40.25 83.25L40.25 83.25Q40.25 83 40.19 82.75Q40.13 82.50 40 82.38L40 82.38Q39.88 82.63 39.69 82.75Q39.50 82.88 39.25 82.88L39.25 82.88Q38.88 82.88 38.56 82.63Q38.25 82.38 38.25 82L38.25 82Q38.38 81.75 38.50 81.50Q38.63 81.25 38.75 81.25L38.75 81.25Z"/></svg>