<svg xmlns="http://www.w3.org/2000/svg" xmlns:xlink="http://www.w3.org/1999/xlink" width="128" height="128"><path fill="#ffffff" d="M86 118.38L86 118.38Q86 118.13 86.06 117.94Q86.13 117.75 86 117.50L86 117.50Q85.88 117.25 85.75 117.13Q85.63 117 85.50 116.75L85.50 116.75Q85.13 116.38 84.75 115.94Q84.38 115.50 83.88 115.13L83.88 115.13L78 109.13L82.63 104.38L85.13 101.75Q85.38 101.38 85.69 100.88Q86 100.38 86 99.88L86 99.88L86 99.50Q86 98.88 85.69 98.44Q85.38 98 84.75 97.88L84.75 97.88L84.88 98L84.25 98Q83.75 98 82.75 98.88Q81.75 99.75 81.50 100.13L81.50 100.13Q80.38 101.25 79.44 102.31Q78.50 103.38 77 104.50L77 104.50L77 92.63Q77 91.75 76.56 91.38Q76.13 91 75.25 91L75.25 91L75 91Q74.13 91 73.56 91.38Q73 91.75 73 92.63L73 92.63L73 118.50Q73 119.38 73.56 119.69Q74.13 120 75 120L75 120L75.25 120Q76.13 120 76.56 119.63Q77 119.25 77 118.50L77 118.50L77 113.88L80 116.75Q80.63 117.50 81.31 118Q82 118.50 82.63 119.13L82.63 119.13Q82.88 119.38 83.44 119.69Q84 120 84.38 120L84.38 120L84.75 120Q85.50 120 85.75 119.63Q86 119.25 86.25 118.75L86.25 118.75L86 118.75L86 118.38ZM125.13 98L125.13 98L124.75 98Q123 98 121.50 98.44Q120 98.88 118.75 99.88L118.75 99.88Q116.50 101.50 115.25 103.75Q114 106 114 108.75L114 108.75L114 118.63Q114 119.38 114.31 119.69Q114.63 120 115.50 120L115.50 120L115.75 120Q116.63 120 117.31 119.69Q118 119.38 118 118.63L118 118.63L118 109.38Q118 107.88 118.38 106.50Q118.75 105.13 119.88 104L119.88 104Q120.75 103.13 121.88 102.44Q123 101.75 124.25 101.75L124.25 101.75Q125.25 101.75 126.19 101.44Q127.13 101.13 127.13 99.88L127.13 99.88Q127.13 99 126.50 98.50Q125.88 98 125.13 98L125.13 98ZM109.75 103.25L109.75 103Q108.88 101.63 107.75 100.63Q106.63 99.63 105.25 98.88L105.25 98.88Q102.63 97.63 99.88 97.56Q97.13 97.50 94.63 99L94.63 99L94.13 99.25Q93 99.88 92.13 100.63Q91.25 101.38 90.63 102.38L90.63 102.38Q88.63 105.25 88.44 108.38Q88.25 111.50 90 114.50L90 114.50L90.25 114.88Q91 116.13 91.94 117.19Q92.88 118.25 94.25 118.88L94.25 118.88Q96.88 120.38 99.75 120.50Q102.63 120.63 105.25 119.13L105.25 119.13L105.63 118.88Q106.38 118.50 106.50 117.75Q106.63 117 106.25 116.25L106.25 116.25Q106.13 116 105.88 115.75Q105.63 115.50 105.25 115.38L105.25 115.38L105.13 115.38Q104.63 115.38 103.50 115.75Q102.38 116.13 101.75 116.38L101.75 116.38Q100.75 116.50 99.63 116.56Q98.50 116.63 97.38 116.25L97.38 116.25L105 109.63Q105.88 108.88 106.75 108.06Q107.63 107.25 108.50 106.63L108.50 106.63Q109.25 106 109.75 105.19Q110.25 104.38 109.75 103.25L109.75 103.25ZM102.75 106.63L102.75 106.63L94.25 113.88Q94.13 113.63 93.94 113.38Q93.75 113.13 93.63 112.88L93.63 112.88Q93.13 112.13 92.88 111.25Q92.63 110.38 92.63 109.50L92.63 109.50Q92.50 107.25 93.38 105.44Q94.25 103.63 96.25 102.50L96.25 102.50Q97.75 101.63 99.38 101.44Q101 101.25 102.75 101.88L102.75 101.88Q103.50 102.25 104.38 102.75Q105.25 103.25 105.75 104L105.75 104Q105 104.63 104.25 105.25Q103.50 105.88 102.75 106.63L102.75 106.63ZM22 91L22 91L21.75 91Q20.88 91 20.44 91.31Q20 91.63 20 92.50L20 92.50L20 100.63Q18.50 99.25 16.69 98.69Q14.88 98.13 12.75 98.13L12.75 98.13L12 98.13Q10.63 98.13 9.25 98.38Q7.88 98.63 6.63 99.38L6.63 99.38Q3.88 101 2.44 103.31Q1 105.63 1 108.75L1 108.75L1 109.63Q1 111 1.38 112.25Q1.75 113.50 2.50 114.75L2.50 114.75Q4.13 117.50 6.50 118.88Q8.88 120.25 12 120.25L12 120.25L12.75 120.25Q14.25 120.25 15.69 119.94Q17.13 119.63 18.25 119L18.25 119Q21 117.38 22.50 115.06Q24 112.75 24 109.75L24 109.75L24 92.75Q24 91.75 23.44 91.38Q22.88 91 22 91ZM18.88 112.75L18.88 112.75Q17.75 114.63 16.13 115.69Q14.50 116.75 12.25 116.75L12.25 116.75Q11.38 116.75 10.50 116.50Q9.63 116.25 8.88 115.75L8.88 115.75Q7 114.75 5.88 113.06Q4.75 111.38 4.75 109.13L4.75 109.13Q4.75 108.25 4.94 107.50Q5.13 106.75 5.50 106L5.50 106Q6.50 103.88 8.25 102.69Q10 101.50 12.38 101.50L12.38 101.50Q13.63 101.50 14.69 101.88Q15.75 102.25 16.63 102.88L16.63 102.88Q18.13 104 19 105.50Q19.88 107 19.88 109L19.88 109Q20 110 19.69 110.94Q19.38 111.88 18.88 112.75ZM37.63 98L37.63 98L37 98Q35.63 98 34.19 98.25Q32.75 98.50 31.63 99.25L31.63 99.25Q28.88 100.88 27.44 103.19Q26 105.50 26 108.75L26 108.75L26 109.50Q26 110.88 26.38 112.13Q26.75 113.38 27.50 114.75L27.50 114.75Q29.13 117.38 31.56 118.75Q34 120.13 37.13 120.13L37.13 120.13L37.88 120.13Q39.38 120.13 40.75 119.88Q42.13 119.63 43.38 118.88L43.38 118.88Q46.13 117.38 47.63 115Q49.13 112.63 49.13 109.63L49.13 109.63L49.13 108.75Q49.13 107.50 48.69 106.31Q48.25 105.13 47.75 104L47.75 104Q46 101 43.44 99.50Q40.88 98 37.63 98L37.63 98ZM44 112.75L44 112.75Q42.88 114.63 41.25 115.69Q39.63 116.75 37.50 116.75L37.50 116.75Q36.50 116.75 35.56 116.50Q34.63 116.25 33.75 115.75L33.75 115.75Q31.88 114.63 30.81 113Q29.75 111.38 29.75 109.25L29.75 109.25Q29.75 108.38 29.94 107.63Q30.13 106.88 30.50 106.13L30.50 106.13Q31.50 103.88 33.25 102.75Q35 101.63 37.38 101.63L37.38 101.63Q38.50 101.63 39.50 101.94Q40.50 102.25 41.38 102.75L41.38 102.75Q43 103.88 43.94 105.50Q44.88 107.13 44.88 109.13L44.88 109.13Q45 110 44.75 110.94Q44.50 111.88 44 112.75L44 112.75ZM68.50 99.38L68.50 99.38L68.38 99.50Q67.13 98.63 65.69 98.31Q64.25 98 62.75 98L62.75 98L62 98Q60.63 98 59.19 98.25Q57.75 98.50 56.63 99.25L56.63 99.25Q53.88 100.88 52.44 103.19Q51 105.50 51 108.63L51 108.63L51 109.38Q51 110.13 51.13 110.81Q51.25 111.50 51.38 112.25L51.38 112.25Q52.63 116.38 55.69 118.56Q58.75 120.75 63.13 120.50L63.13 120.50Q64.25 120.38 66.63 119.81Q69 119.25 69 117.50L69 117.50L69 117.13Q69 116.38 68.56 115.88Q68.13 115.38 67.50 115.25L67.50 115.25L67.38 115L66.75 115L66.50 115.25Q65.88 115.63 64.88 116.06Q63.88 116.50 63.13 116.50L63.13 116.50Q62.25 116.50 61.31 116.44Q60.38 116.38 59.50 115.88L59.50 115.88Q57.38 114.88 56.13 113.13Q54.88 111.38 54.88 109L54.88 109Q54.88 108.13 55.06 107.38Q55.25 106.63 55.63 105.88L55.63 105.88Q56.63 103.75 58.38 102.56Q60.13 101.38 62.50 101.38L62.50 101.38Q63 101.38 63.69 101.56Q64.38 101.75 64.75 102L64.75 102Q65.13 102.13 65.94 102.56Q66.75 103 67.25 103L67.25 103L67.38 103L67.50 102.75Q68.13 102.63 68.63 102.13Q69.13 101.63 69.13 101L69.13 101L69.13 100.63Q69.13 100.25 69 100.06Q68.88 99.88 68.75 99.63L68.75 99.63L68.50 99.38ZM5.75 68.25L5.75 68.25L5.88 68.38Q8.88 73.38 12.88 77L12.88 77Q16.88 80.63 21.63 82.94Q26.38 85.25 31.75 86.38L31.75 86.38Q37 87.38 42.75 87.38L42.75 87.38Q53.63 87.38 63.50 84.88L63.50 84.88Q73.38 82.50 81.69 77.44Q90 72.38 96.38 64.75L96.38 64.75Q102.88 57.13 107 46.75L107 46.75Q112.50 47.13 117.69 45.19Q122.88 43.25 125.63 37.88L125.63 37.88L126.50 36.13L124.75 35.13Q121.50 33.25 117.50 32.94Q113.50 32.63 109.88 33.75L109.88 33.75Q109.50 29.75 107.19 26.50Q104.88 23.25 101.88 20.75L101.88 20.75L100.25 19.50L99 21.13Q97 23.38 96.31 26.88Q95.63 30.38 95.88 33.38L95.88 33.38Q96.13 35.63 96.81 37.75Q97.50 39.88 98.88 41.75L98.88 41.75Q97.88 42.25 96.75 43Q95.63 43.75 94.63 44.13L94.63 44.13Q92.50 44.88 90.25 45.50Q88 46.13 85.75 46.13L85.75 46.13L79 46.13L79 32L66 32L66 7L51 7L51 19L26 19L26 32L13 32L13 46L1.75 46L1.63 47.50Q1.25 52.25 1.94 56.94Q2.63 61.63 4.63 66L4.63 66L5.75 68.25ZM66 46L66 35L77 35L77 46L66 46ZM53 20L53 9L64 9L64 20L53 20ZM53 33L53 22L64 22L64 33L53 33ZM53 46L53 35L64 35L64 46L53 46ZM40 33L40 22L51 22L51 33L40 33ZM40 46L40 35L51 35L51 46L40 46ZM41.13 66.25L41.13 66.25Q41.13 67.50 40.19 68.38Q39.25 69.25 38 69.25L38 69.25Q36.75 69.25 35.81 68.38Q34.88 67.50 34.88 66.25L34.88 66.25Q34.88 64.88 35.81 64Q36.75 63.13 38 63.13L38 63.13Q39.25 63.13 40.19 64Q41.13 64.88 41.13 66.25ZM28 33L28 22L38 22L38 33L28 33ZM28 46L28 35L38 35L38 46L28 46ZM15 46L15 35L26 35L26 46L15 46ZM17.38 73L17.38 73Q18.63 73 19.81 73Q21 73 22.13 72.88L22.13 72.88Q25 72.75 27.56 72.38Q30.13 72 32.25 71.38L32.25 71.38Q33.88 75.38 37.25 78.94Q40.63 82.50 46.25 85.25L46.25 85.25L42.75 85.25Q30.88 85.25 23.75 81.69Q16.63 78.13 11.38 72.88L11.38 72.88Q13 73 14.50 73Q16 73 17.38 73L17.38 73ZM38 68.38L38 68.38Q38.88 68.38 39.56 67.75Q40.25 67.13 40.25 66.25L40.25 66.25Q40.25 66 40.19 65.75Q40.13 65.50 40 65.38L40 65.38Q39.88 65.63 39.69 65.75Q39.50 65.88 39.25 65.88L39.25 65.88Q38.88 65.88 38.56 65.63Q38.25 65.38 38.25 65L38.25 65Q38.25 64.75 38.38 64.56Q38.50 64.38 38.75 64.25L38.75 64.25Q38.63 64.13 38.44 64.06Q38.25 64 38 64L38 64Q37.13 64 36.44 64.63Q35.75 65.25 35.75 66.25L35.75 66.25Q35.88 67.13 36.50 67.75Q37.13 68.38 38 68.38Z"/></svg>