<svg xmlns="http://www.w3.org/2000/svg" xmlns:xlink="http://www.w3.org/1999/xlink" width="128" height="128"><path fill="#000000" d="M66.88 110.63L66.88 101.25L61.88 101.25L61.88 110.63Q61.88 112.63 60.94 114.06Q60 115.50 57.88 115.50L57.88 115.50Q55.88 115.50 54.94 114.06Q54 112.63 54 110.63L54 110.63L54 101.25L49 101.25L49 110.63Q49 114.63 51.44 117.50Q53.88 120.38 57.88 120.38L57.88 120.38Q62 120.38 64.44 117.50Q66.88 114.63 66.88 110.63L66.88 110.63ZM112 119.88L112 95.50L117 95.50L117 119.88L112 119.88ZM44.88 101L44.88 101Q41.75 100.25 39.81 102.31Q37.88 104.38 37.75 104.50L37.75 104.50Q37.75 104.63 37.75 104.63Q37.75 104.63 37.50 104.63L37.50 104.63Q37.50 104.63 37.44 104.56Q37.38 104.50 37.38 104.50L37.38 104.50L36.88 101.25L32.38 101.25L32.38 119.88L37.38 119.88L37.38 109.75Q37.38 109.13 39.06 107.19Q40.75 105.25 43.88 106L43.88 106Q45.50 106.38 46.25 106.94Q47 107.50 47 107.50L47 107.50L47 101.75Q46.38 101.50 45.94 101.31Q45.50 101.13 44.88 101L44.88 101ZM73.63 126L73.63 126L73.63 119.25L73.63 119.25L73.63 116.75Q73.63 116.75 73.63 116.69Q73.63 116.63 73.88 116.63L73.88 116.63Q74 116.63 74 116.69Q74 116.75 74 116.75L74 116.75Q74.38 117.50 76 119.25Q77.63 121 81.13 120.25L81.13 120.25Q84.25 119.38 86.31 116.75Q88.38 114.13 88.38 110.75L88.38 110.75Q88.38 106.63 85.44 103.75Q82.50 100.88 78.50 100.88L78.50 100.88Q74.38 100.88 71.50 103.75Q68.63 106.63 68.63 110.75L68.63 110.75L68.63 126L73.63 126ZM78.50 105.75L78.50 105.75Q80.50 105.75 82 107.19Q83.50 108.63 83.50 110.75L83.50 110.75Q83.50 112.75 82 114.25Q80.50 115.75 78.50 115.75L78.50 115.75Q76.38 115.75 74.94 114.25Q73.50 112.75 73.50 110.75L73.50 110.75Q73.50 108.63 74.94 107.19Q76.38 105.75 78.50 105.75ZM105 116.75L105 119.88L110 119.88L110 110.75Q110 106.63 107.13 103.75Q104.25 100.88 100.13 100.88L100.13 100.88Q96 100.88 93.13 103.75Q90.25 106.63 90.25 110.75L90.25 110.75Q90.25 114.13 92.31 116.75Q94.38 119.38 97.38 120.25L97.38 120.25Q100.88 121 102.56 119.25Q104.25 117.50 104.50 116.75L104.50 116.75Q104.50 116.75 104.56 116.69Q104.63 116.63 104.75 116.63L104.75 116.63Q104.88 116.63 104.94 116.69Q105 116.75 105 116.75L105 116.75ZM105.13 110.75L105.13 110.75Q105.13 112.75 103.63 114.25Q102.13 115.75 100.13 115.75L100.13 115.75Q98 115.75 96.56 114.25Q95.13 112.75 95.13 110.75L95.13 110.75Q95.13 108.63 96.56 107.19Q98 105.75 100.13 105.75L100.13 105.75Q102.13 105.75 103.63 107.19Q105.13 108.63 105.13 110.75ZM16.75 119.88L16.75 119.88L11 119.88L11 95.50L17.13 95.50Q22.63 95.50 26.38 97.50Q30.13 99.50 30.13 107.63L30.13 107.63Q30.13 115.75 26.25 117.81Q22.38 119.88 16.75 119.88ZM18.13 99.75L18.13 99.75L16 99.75L16 115.63L18.13 115.63Q21.25 115.63 23.19 114.50Q25.13 113.38 25.13 107.63L25.13 107.63Q25.13 102.13 23.31 100.94Q21.50 99.75 18.13 99.75L18.13 99.75ZM83.75 18.88L83.75 18.88Q80.25 16.75 76.94 15.44Q73.63 14.13 70.38 12L70.38 12Q68.38 10.63 65.75 7.75Q63.13 4.88 60.75 2L60.75 2Q60.25 6.50 59 8.69Q57.75 10.88 56.25 12.25L56.25 12.25Q52.88 14.88 50.44 16.06Q48 17.25 45.13 18.88L45.13 18.88Q43.88 19.50 40.50 21.88L40.50 21.88Q37.13 24.13 33.50 28.38Q29.88 32.63 27.13 38.88L27.13 38.88Q24.25 45.13 24.25 53.63L24.25 53.63Q24.25 62 27.63 69.25L27.63 69.25Q30.88 76.38 36.44 81.63Q42 86.88 49.25 89.75L49.25 89.75Q56.50 92.75 64.38 92.75L64.38 92.75Q72.25 92.75 79.38 90L79.38 90Q86.50 87.25 91.94 82.19Q97.38 77.13 100.50 70.13L100.50 70.13Q103.75 63 103.75 54.25L103.75 54.25Q103.75 45.63 101 39.25L101 39.25Q98.25 32.88 94.75 28.56Q91.25 24.25 88 21.88L88 21.88Q84.75 19.50 83.75 18.88L83.75 18.88ZM84.25 84.50L84.25 84.50Q83.88 84.88 81.25 86.38Q78.63 87.88 75.13 88.25L75.13 88.25Q71.50 88.50 67.25 88.25Q63 88 60.13 85.38L60.13 85.38Q59.63 84.88 59.69 84.38Q59.75 83.88 60.13 83.50L60.13 83.50Q60.50 83.25 60.75 83.13Q61 83 61.50 83L61.50 83Q61.88 83 61.94 83Q62 83 62.13 83.13L62.13 83.13Q63.50 84.13 65.69 84.88Q67.88 85.63 72.13 85.63L72.13 85.63Q76.25 85.63 79.19 84.69Q82.13 83.75 83.38 82.75L83.38 82.75Q84 82.38 84.25 82.56Q84.50 82.75 84.63 83L84.63 83Q84.63 83.25 84.69 83.63Q84.75 84 84.25 84.50L84.25 84.50ZM69 76.63L69 76.63Q69.63 75.88 70.75 75Q71.88 74.13 73 73.63L73 73.63Q74.13 73.25 74.88 73.19Q75.63 73.13 76.63 73.13L76.63 73.13Q77.75 73.13 78.75 73.25Q79.75 73.38 80.63 74L80.63 74Q81.38 74.50 81.88 75.44Q82.38 76.38 82.63 77.13L82.63 77.13Q82.88 77.75 82.63 78.19Q82.38 78.63 81.88 78.88L81.88 78.88Q81.50 79.13 81.25 78.94Q81 78.75 80.63 77.88L80.63 77.88Q80.13 77 79.44 76.31Q78.75 75.63 76.38 75.63L76.38 75.63Q74.13 75.63 73.06 76.31Q72 77 70.88 77.88L70.88 77.88Q69.75 78.75 69.25 79.06Q68.75 79.38 68.38 78.88L68.38 78.88Q68 78.38 68.13 77.81Q68.25 77.25 69 76.63L69 76.63ZM92.13 77.25L92.13 77.25Q89.75 77.13 85.69 72.13Q81.63 67.13 78.63 67L78.63 67Q74.88 66.88 67.63 72.25Q60.38 77.63 53.88 77.63L53.88 77.63Q50 77.63 48.31 77.06Q46.63 76.50 45.38 75.75L45.38 75.75Q43.38 74.38 42.44 72.25Q41.50 70.13 41.50 67.25L41.50 67.25Q41.63 62.13 45.81 58.06Q50 54 56 53.88L56 53.88Q63.75 53.88 69.19 58.94Q74.63 64 78.50 64L78.50 64Q81.75 63.88 87 59.63Q92.25 55.38 95.38 55.38L95.38 55.38Q98.63 55.38 99.81 57.94Q101 60.50 101 62.63L101 62.63Q101 64.63 100.25 67.81Q99.50 71 98 73.25L98 73.25Q96.38 75.50 95.19 76.44Q94 77.38 92.13 77.25L92.13 77.25Z"/></svg>