<svg xmlns="http://www.w3.org/2000/svg" xmlns:xlink="http://www.w3.org/1999/xlink" width="128" height="128"><path fill="#ffffff" d="M91.13 24.88L91.13 24.88Q86.38 22 81.81 20.19Q77.25 18.38 72.75 15.50L72.75 15.50Q70 13.63 66.38 9.63Q62.75 5.63 59.63 1.75L59.63 1.75Q58.88 8 57.19 11Q55.50 14 53.38 15.88L53.38 15.88Q48.75 19.38 45.44 21.06Q42.13 22.75 38.13 24.88L38.13 24.88Q36.50 25.75 31.75 29L31.75 29Q27.13 32.13 22.19 37.94Q17.25 43.75 13.38 52.38L13.38 52.38Q9.63 60.88 9.63 72.50L9.63 72.50Q9.63 84.13 14.13 94L14.13 94Q18.63 103.75 26.19 110.94Q33.75 118.13 43.75 122.13L43.75 122.13Q53.63 126.25 64.50 126.25L64.50 126.25Q75.25 126.25 85.13 122.38L85.13 122.38Q94.88 118.63 102.25 111.75Q109.63 104.88 114 95.13L114 95.13Q118.38 85.38 118.38 73.50L118.38 73.50Q118.38 61.50 114.63 52.88L114.63 52.88Q111 44.13 106.19 38.19Q101.38 32.25 97 29L97 29Q92.50 25.88 91.13 24.88L91.13 24.88ZM91.75 114.88L91.75 114.88Q91.38 115.38 87.69 117.44Q84 119.50 79.25 120L79.25 120Q74.38 120.38 68.50 120.06Q62.63 119.75 58.75 116.13L58.75 116.13Q58.13 115.50 58.19 114.75Q58.25 114 58.75 113.63L58.75 113.63Q59.13 113.25 59.56 113Q60 112.75 60.50 112.75L60.50 112.75Q61 112.75 61.13 112.81Q61.25 112.88 61.50 113L61.50 113Q63.25 114.50 66.31 115.50Q69.38 116.50 75.13 116.50L75.13 116.50Q80.88 116.50 84.81 115.19Q88.75 113.88 90.63 112.50L90.63 112.50Q91.38 111.88 91.75 112.19Q92.13 112.50 92.25 112.88L92.25 112.88Q92.38 113.25 92.38 113.75Q92.38 114.25 91.75 114.88ZM70.75 104L70.75 104Q71.75 103.13 73.25 101.94Q74.75 100.75 76.38 100L76.38 100Q77.88 99.38 78.88 99.38Q79.88 99.38 81.38 99.38L81.38 99.38Q82.75 99.38 84.19 99.56Q85.63 99.75 86.75 100.38L86.75 100.38Q87.88 101.13 88.50 102.50Q89.13 103.88 89.50 104.75L89.50 104.75Q89.88 105.63 89.56 106.19Q89.25 106.75 88.50 107.13L88.50 107.13Q87.88 107.50 87.63 107.25Q87.38 107 86.75 105.88L86.75 105.88Q86.13 104.63 85.13 103.69Q84.13 102.75 81 102.75L81 102.75Q77.88 102.75 76.44 103.63Q75 104.50 73.50 105.88L73.50 105.88Q71.88 107.13 71.19 107.50Q70.50 107.88 70 107.13L70 107.13Q69.38 106.38 69.63 105.63Q69.88 104.88 70.75 104L70.75 104ZM102.63 105L102.63 105Q99.38 104.75 93.81 97.94Q88.25 91.13 84.13 91L84.13 91Q81.50 90.88 77.50 93.13L77.50 93.13Q73.63 95.38 69 98.13Q64.38 100.88 59.50 103.13L59.50 103.13Q54.63 105.50 50.25 105.50L50.25 105.50Q44.75 105.50 42.50 104.75Q40.25 104 38.50 102.88L38.50 102.88Q35.75 100.88 34.44 98Q33.13 95.13 33.13 91.25L33.13 91.25Q33.25 84.13 39 78.63Q44.75 73.13 53.13 73L53.13 73Q58.38 72.88 62.75 75.13L62.75 75.13Q67.25 77.25 71.06 79.88Q74.88 82.50 78 84.63L78 84.63Q81.25 86.75 83.88 86.75L83.88 86.75Q88.38 86.63 95.56 80.75Q102.75 74.88 107 74.88L107 74.88Q111.50 74.88 113.06 78.44Q114.63 82 114.63 84.88L114.63 84.88Q114.63 87.63 113.69 92Q112.75 96.38 110.63 99.50L110.63 99.50Q108.50 102.63 106.81 103.88Q105.13 105.13 102.63 105L102.63 105Z"/></svg>