<svg xmlns="http://www.w3.org/2000/svg" xmlns:xlink="http://www.w3.org/1999/xlink" width="128" height="128"><path fill="#000000" d="M123.25 76.75L123.25 76.75Q122.88 74.63 121.25 73.25Q119.63 71.88 117.50 71.88L117.50 71.88Q116.75 71.75 115.94 71.81Q115.13 71.88 114.38 72L114.38 72Q113.50 72.13 112.56 72.31Q111.63 72.50 110.63 72.63L110.63 72.63Q110 72.75 109.38 72.81Q108.75 72.88 108.13 72.88L108.13 72.88L108.13 72.75Q109.25 70.50 110.50 68.25Q111.75 66 112.88 63.75L112.88 63.75Q113.75 62 114.50 60.19Q115.25 58.38 116 56.50L116 56.50Q117.25 53.50 118.31 50.44Q119.38 47.38 120.25 44.25L120.25 44.25Q121 41.25 121.63 38.19Q122.25 35.13 122.50 32L122.50 32Q122.63 30.75 122.63 29.50Q122.63 28.25 122.63 27L122.63 27Q122.63 26 122.56 25Q122.50 24 122.38 23L122.38 23Q122.25 21.88 121.94 20.81Q121.63 19.75 121.13 18.75L121.13 18.75Q120.50 17.38 119.56 16.19Q118.63 15 117.63 14L117.63 14Q116.88 13.13 116 12.31Q115.13 11.50 114.13 10.75L114.13 10.75Q112.88 9.63 111.50 8.75Q110.13 7.88 108.63 7L108.63 7Q106.88 6.13 105.13 5.44Q103.38 4.75 101.50 4.25L101.50 4.25Q100.38 4 99.25 3.81Q98.13 3.63 97 3.38L97 3.38Q96.50 3.25 96.13 3.13Q95.75 3 95.38 3L95.38 3L85.13 3Q84.75 3 84.50 3.13Q84.25 3.25 84 3.25L84 3.25Q82.13 3.50 80.31 3.81Q78.50 4.13 76.75 4.75L76.75 4.75Q76.13 4.88 75.50 4.81Q74.88 4.75 74.25 4.75L74.25 4.75Q73.75 4.63 73.25 4.56Q72.75 4.50 72.38 4.50L72.38 4.50Q70.50 4.38 68.69 4.25Q66.88 4.13 65 4.13L65 4.13Q63.25 4.25 61.50 4.50Q59.75 4.75 58.13 5.25L58.13 5.25Q56.63 5.63 55.25 6.13Q53.88 6.63 52.63 7.38L52.63 7.38Q52.13 7.75 51.63 7.75Q51.13 7.75 50.63 7.50L50.63 7.50Q48.63 7 46.75 6.50Q44.88 6 42.88 5.63L42.88 5.63Q41.75 5.25 40.50 5.13Q39.25 5 38 4.88L38 4.88Q36.88 4.75 35.69 4.69Q34.50 4.63 33.38 4.63L33.38 4.63Q32.13 4.50 31 4.56Q29.88 4.63 28.75 4.63L28.75 4.63Q26.88 4.88 25.06 5.25Q23.25 5.63 21.50 6.13L21.50 6.13Q19.63 6.88 17.88 7.81Q16.13 8.75 14.50 10L14.50 10Q12.88 11.38 11.56 12.94Q10.25 14.50 9.13 16.25L9.13 16.25Q8 18.13 7.25 20.13Q6.50 22.13 6 24.25L6 24.25Q5.75 25.50 5.63 26.69Q5.50 27.88 5.25 29L5.25 29Q5.25 29.38 5.50 29.75Q5.75 30.13 5 30.50L5 30.50L5 37.25Q5.75 37.63 5.50 37.94Q5.25 38.25 5.25 38.63L5.25 38.63Q5.38 39.38 5.50 40.19Q5.63 41 5.75 41.88L5.75 41.88Q5.88 43.13 6.13 44.44Q6.38 45.75 6.75 47L6.75 47Q7.13 48.75 7.50 50.56Q7.88 52.38 8.25 54.13L8.25 54.13Q8.50 55.38 8.88 56.69Q9.25 58 9.63 59.25L9.63 59.25Q10.13 61.13 10.69 63.06Q11.25 65 11.75 67L11.75 67Q12.38 68.75 13 70.56Q13.63 72.38 14.25 74.13L14.25 74.13Q15.25 76.50 16.31 78.88Q17.38 81.25 18.63 83.50L18.63 83.50Q19.75 85.50 21.06 87.31Q22.38 89.13 24 90.63L24 90.63Q25.13 91.63 26.44 92.31Q27.75 93 29.13 93.50L29.13 93.50Q30.25 93.75 31.44 93.75Q32.63 93.75 33.75 93.63L33.75 93.63Q35.13 93.25 36.31 92.69Q37.50 92.13 38.63 91.25L38.63 91.25Q38.75 91.13 38.88 91.13Q39 91.13 39.13 91.25L39.13 91.25Q39.63 92 40.38 92.50Q41.13 93 41.88 93.38L41.88 93.38Q44 94.50 46.25 94.88Q48.50 95.25 50.75 95.38L50.75 95.38Q51.38 95.50 51.94 95.44Q52.50 95.38 53 95.38L53 95.38Q54.13 95.25 55.19 95.06Q56.25 94.88 57.25 94.63L57.25 94.63Q57.88 94.50 58.38 94.25Q58.88 94 59.50 93.88L59.50 93.88Q59.50 94.50 59.56 95.06Q59.63 95.63 59.63 96.25L59.63 96.25L59.75 100.38Q59.75 100.88 59.75 101.31Q59.75 101.75 59.75 102.25L59.75 102.25Q59.88 103.50 60 104.69Q60.13 105.88 60.25 107.13L60.25 107.13Q60.38 108 60.50 108.81Q60.63 109.63 60.88 110.50L60.88 110.50Q61.25 112.13 61.75 113.75Q62.25 115.38 63 116.88L63 116.88Q63.63 118.38 64.63 119.69Q65.63 121 66.88 122.13L66.88 122.13Q68.50 123.50 70.44 124.13Q72.38 124.75 74.50 124.88L74.50 124.88Q75.38 124.88 76.25 124.81Q77.13 124.75 78 124.63L78 124.63Q79.38 124.38 80.75 124.06Q82.13 123.75 83.38 123.38L83.38 123.38Q86.13 122.50 88.38 121.06Q90.63 119.63 92.38 117.38L92.38 117.38Q93.38 116.13 94.19 114.69Q95 113.25 95.50 111.75L95.50 111.75Q96 110.50 96.38 109.19Q96.75 107.88 97 106.63L97 106.63Q97.38 105.50 97.50 104.50Q97.63 103.50 97.75 102.38L97.75 102.38Q97.88 101.75 97.94 101Q98 100.25 98.13 99.63L98.13 99.63Q98.13 98.50 98.25 97.31Q98.38 96.13 98.50 95L98.50 95Q98.50 94.25 98.50 93.44Q98.50 92.63 98.63 91.88L98.63 91.88Q98.63 91.63 98.63 91.38Q98.63 91.13 98.63 90.88L98.63 90.88Q98.75 90.63 98.81 90.56Q98.88 90.50 99.13 90.50L99.13 90.50Q100 90.50 100.81 90.50Q101.63 90.50 102.38 90.50L102.38 90.50Q103.25 90.50 104.19 90.44Q105.13 90.38 106 90.25L106 90.25Q107.25 90 108.50 89.75Q109.75 89.50 110.88 89.13L110.88 89.13Q112.38 88.75 113.75 88.13Q115.13 87.50 116.38 86.63L116.38 86.63Q117.88 85.75 119.25 84.69Q120.63 83.63 121.63 82.25L121.63 82.25Q122.63 81 123.06 79.63Q123.50 78.25 123.25 76.75L123.25 76.75ZM119.88 77.75L119.88 77.75Q119.75 78.50 119.50 79.06Q119.25 79.63 118.75 80.13L118.75 80.13Q116.63 82.50 113.94 84Q111.25 85.50 108.13 86.13L108.13 86.13Q107 86.38 105.81 86.56Q104.63 86.75 103.38 86.88L103.38 86.88Q102.38 87 101.31 87Q100.25 87 99.25 87L99.25 87Q98.50 86.88 97.75 86.75Q97 86.63 96.25 86.50L96.25 86.50Q96.13 87.25 96.06 88Q96 88.75 95.88 89.38L95.88 89.38L95.50 93.13Q95.38 94.13 95.25 95Q95.13 95.88 95 96.75L95 96.75Q94.88 97.63 94.75 98.50Q94.63 99.38 94.50 100.25L94.50 100.25Q94.50 101 94.38 101.81Q94.25 102.63 94.13 103.38L94.13 103.38Q94 104.63 93.81 105.88Q93.63 107.13 93.38 108.38L93.38 108.38Q93 109.75 92.56 111.19Q92.13 112.63 91.38 113.88L91.38 113.88Q90.50 115.50 89.25 116.75Q88 118 86.50 118.88L86.50 118.88Q84.88 119.88 83.06 120.38Q81.25 120.88 79.50 121.38L79.50 121.38Q78.25 121.63 76.94 121.69Q75.63 121.75 74.25 121.63L74.25 121.63Q72 121.38 70.13 120.44Q68.25 119.50 66.75 117.75L66.75 117.75Q65.38 116 64.50 114.13Q63.63 112.25 63.25 110.13L63.25 110.13Q63.13 109 63 108Q62.88 107 62.75 105.88L62.75 105.88Q62.63 104.75 62.56 103.63Q62.50 102.50 62.50 101.25L62.50 101.25Q62.38 99.88 62.31 98.38Q62.25 96.88 62.25 95.50L62.25 95.50Q62.25 93.63 62.19 91.81Q62.13 90 62.13 88.25L62.13 88.25L62.13 88.13Q61.25 88.63 60.31 89.25Q59.38 89.88 58.38 90.38L58.38 90.38Q57.25 90.88 56.06 91.25Q54.88 91.63 53.63 91.63L53.63 91.63Q52.63 91.75 51.63 91.81Q50.63 91.88 49.63 91.75L49.63 91.75Q48 91.63 46.44 91.31Q44.88 91 43.50 90.25L43.50 90.25Q42.88 89.88 42.31 89.50Q41.75 89.13 41.25 88.50L41.25 88.50Q40.38 87.38 40.75 86Q41.13 84.63 42.63 83.88L42.63 83.88Q43.63 83.38 44.69 83.06Q45.75 82.75 46.88 82.50L46.88 82.50Q47.75 82.25 48.69 82Q49.63 81.75 50.63 81.50L50.63 81.50Q51.50 81.13 52.13 80.50Q52.75 79.88 53.38 79.13L53.38 79.13L54.63 77.63Q54.25 77.50 53.88 77.50Q53.50 77.50 53.13 77.38L53.13 77.38Q52 77.38 51 77.06Q50 76.75 49 76.25L49 76.25Q48.13 75.88 47.88 75.94Q47.63 76 47 76.63L47 76.63Q46 77.75 45 78.88Q44 80 43 81.25L43 81.25Q42.25 82 41.50 82.88Q40.75 83.75 40 84.50L40 84.50Q39.25 85.38 38.56 86.25Q37.88 87.13 37 87.88L37 87.88Q35.88 89 34.44 89.63Q33 90.25 31.38 90.25L31.38 90.25Q30.25 90.13 29.25 89.75Q28.25 89.38 27.38 88.75L27.38 88.75Q25.63 87.50 24.25 85.81Q22.88 84.13 21.75 82.25L21.75 82.25Q20.38 79.75 19.25 77.19Q18.13 74.63 17.13 72L17.13 72Q16.50 70.25 15.81 68.44Q15.13 66.63 14.63 64.75L14.63 64.75Q14 62.75 13.44 60.69Q12.88 58.63 12.38 56.63L12.38 56.63Q11.88 55.13 11.50 53.56Q11.13 52 10.88 50.38L10.88 50.38Q10.50 48.63 10.13 46.88Q9.75 45.13 9.38 43.38L9.38 43.38Q9.13 42.13 9 40.94Q8.88 39.75 8.63 38.50L8.63 38.50Q8.38 36.88 8.31 35.25Q8.25 33.63 8.38 32L8.38 32Q8.50 30.50 8.69 29.06Q8.88 27.63 9.13 26.13L9.13 26.13Q9.38 24.13 10 22.19Q10.63 20.25 11.63 18.50L11.63 18.50Q12.25 17.38 12.94 16.38Q13.63 15.38 14.50 14.38L14.50 14.38Q15.88 12.88 17.56 11.75Q19.25 10.63 21.13 9.75L21.13 9.75Q22.38 9.25 23.75 8.88Q25.13 8.50 26.50 8.13L26.50 8.13Q28.63 7.75 30.69 7.69Q32.75 7.63 34.88 7.75L34.88 7.75Q35.75 7.75 36.69 7.88Q37.63 8 38.50 8.13L38.50 8.13Q40.50 8.25 42.44 8.69Q44.38 9.13 46.25 9.63L46.25 9.63Q47.75 10 49.13 10.44Q50.50 10.88 51.88 11.25L51.88 11.25Q52 11.38 52.19 11.31Q52.38 11.25 52.38 11.25L52.38 11.25Q54.25 10 56.31 9.19Q58.38 8.38 60.50 7.88L60.50 7.88Q61.38 7.75 62.25 7.63Q63.13 7.50 63.88 7.50L63.88 7.50Q65 7.50 66 7.44Q67 7.38 68 7.38L68 7.38Q69.25 7.50 70.50 7.63Q71.75 7.75 73 8L73 8Q73.50 8 74.13 8.19Q74.75 8.38 75.25 8.38L75.25 8.38Q75.63 8.50 75.88 8.31Q76.13 8.13 76.50 8.13L76.50 8.13Q78 7.75 79.56 7.38Q81.13 7 82.63 6.75L82.63 6.75Q83.75 6.50 84.94 6.38Q86.13 6.25 87.38 6.25L87.38 6.25Q88.63 6.13 89.94 6.13Q91.25 6.13 92.50 6.13L92.50 6.13Q94.25 6.25 95.88 6.44Q97.50 6.63 99.13 7L99.13 7Q101.13 7.50 103.06 8.19Q105 8.88 106.75 9.88L106.75 9.88Q108.13 10.50 109.44 11.38Q110.75 12.25 111.88 13.25L111.88 13.25Q112.75 13.88 113.50 14.56Q114.25 15.25 114.88 15.88L114.88 15.88Q115.75 16.88 116.56 17.81Q117.38 18.75 117.88 19.88L117.88 19.88Q118.38 20.75 118.63 21.69Q118.88 22.63 119 23.50L119 23.50Q119 24.75 119.13 25.94Q119.25 27.13 119.25 28.25L119.25 28.25Q119.25 29.50 119.13 30.63Q119 31.75 118.88 32.88L118.88 32.88Q118.63 35.50 118.06 38Q117.50 40.50 116.88 43L116.88 43Q116.25 45.13 115.63 47.13Q115 49.13 114.25 51.25L114.25 51.25Q113.63 53 112.88 54.88Q112.13 56.75 111.38 58.50L111.38 58.50Q110.75 59.88 110.19 61.19Q109.63 62.50 108.88 63.88L108.88 63.88Q107.63 66.25 106.31 68.69Q105 71.13 103.50 73.50L103.50 73.50Q103.25 73.88 103 74.31Q102.75 74.75 102.50 75.13L102.50 75.13Q103.13 75.50 103.88 75.69Q104.63 75.88 105.38 76L105.38 76Q106 76.13 106.75 76.13Q107.50 76.13 108.25 76.13L108.25 76.13Q109.38 76 110.50 75.88Q111.63 75.75 112.75 75.50L112.75 75.50Q113.88 75.38 115 75.19Q116.13 75 117.25 75L117.25 75Q118.50 75.13 119.19 75.88Q119.88 76.63 119.88 77.75L119.88 77.75ZM97.88 74.38L97.88 74.38Q97.38 73.75 96.88 73.13Q96.38 72.50 95.88 71.88L95.88 71.88Q95.13 70.88 94.56 69.75Q94 68.63 93.38 67.50L93.38 67.50Q92.88 66.50 92.31 65.44Q91.75 64.38 91.13 63.38L91.13 63.38Q90.25 61.50 89.31 59.63Q88.38 57.75 87.50 55.88L87.50 55.88Q86.38 53.50 85.56 51.06Q84.75 48.63 84.50 46L84.50 46Q84.38 44.88 84.38 43.75Q84.38 42.63 84.50 41.50L84.50 41.50Q84.88 39.75 85.81 38.38Q86.75 37 88.38 36.13L88.38 36.13Q89.75 35.25 91.31 34.88Q92.88 34.50 94.50 34.50L94.50 34.50Q95.50 34.38 96.56 34.44Q97.63 34.50 98.63 34.50L98.63 34.50L98.63 34.25Q97.88 32.88 97.25 31.50Q96.63 30.13 96 28.75L96 28.75Q95 26.88 93.69 25.19Q92.38 23.50 91 21.88L91 21.88Q89.88 20.75 88.75 19.63Q87.63 18.50 86.38 17.63L86.38 17.63Q85.13 16.63 83.81 15.81Q82.50 15 81 14.25L81 14.25Q79.38 13.50 77.63 12.88Q75.88 12.25 74.13 11.88L74.13 11.88Q72.38 11.50 70.56 11.25Q68.75 11 67 11L67 11Q65.50 11 63.94 11.06Q62.38 11.13 61 11.50L61 11.50Q58.75 12 56.69 12.94Q54.63 13.88 52.75 15.38L52.75 15.38Q51.75 16.25 50.88 17.19Q50 18.13 49.25 19.25L49.25 19.25Q48.38 20.38 47.63 21.75Q46.88 23.13 46.25 24.50L46.25 24.50Q45.50 26.38 44.88 28.38Q44.25 30.38 43.88 32.38L43.88 32.38Q43.63 33.50 43.50 34.50Q43.38 35.50 43.13 36.50L43.13 36.50Q43.13 36.88 43.13 37.25Q43.13 37.63 43 38L43 38Q43.38 37.88 43.56 37.75Q43.75 37.63 44 37.63L44 37.63L44.88 37.13Q47.13 36.13 49.44 35.56Q51.75 35 54.25 35L54.25 35Q55.38 35 56.38 35.25Q57.38 35.50 58.25 36L58.25 36Q60.13 36.88 61.19 38.38Q62.25 39.88 62.75 41.75L62.75 41.75Q63.13 43.13 63.31 44.44Q63.50 45.75 63.75 47.13L63.75 47.13Q63.88 48.13 64.06 49.19Q64.25 50.25 64.25 51.38L64.25 51.38Q64.25 52.88 64.19 54.44Q64.13 56 64 57.63L64 57.63Q64 58.88 63.69 60.19Q63.38 61.50 63 62.75L63 62.75Q62.13 65 61.19 67.19Q60.25 69.38 59.38 71.63L59.38 71.63Q59.13 72.38 58.88 73.13Q58.63 73.88 58.38 74.75L58.38 74.75Q58.75 74.75 59.13 74.75Q59.50 74.75 59.88 74.75L59.88 74.75Q60 74.75 60.13 74.75Q60.25 74.75 60.38 74.75L60.38 74.75Q61.38 75 62.25 75.50Q63.13 76 63.88 76.75L63.88 76.75Q64.75 77.75 65.25 78.94Q65.75 80.13 65.75 81.50L65.75 81.50Q65.88 82.38 65.81 83.13Q65.75 83.88 65.75 84.63L65.75 84.63Q65.75 88.25 65.75 91.81Q65.75 95.38 65.88 99L65.88 99Q65.88 99.63 65.88 100.19Q65.88 100.75 65.88 101.38L65.88 101.38Q66 102.63 66.13 103.81Q66.25 105 66.38 106.25L66.38 106.25Q66.38 107.13 66.50 108Q66.63 108.88 66.75 109.75L66.75 109.75Q67 110.88 67.50 112Q68 113.13 68.63 114.13L68.63 114.13Q69.13 115 69.88 115.75Q70.63 116.50 71.50 117.13L71.50 117.13Q73.13 118 74.81 118.13Q76.50 118.25 78.13 117.88L78.13 117.88Q79.38 117.75 80.50 117.38Q81.63 117 82.75 116.63L82.75 116.63Q83.88 116.25 84.88 115.69Q85.88 115.13 86.63 114.25L86.63 114.25Q87.50 113.50 88.06 112.63Q88.63 111.75 89 110.63L89 110.63Q89.75 108.63 90.06 106.56Q90.38 104.50 90.63 102.38L90.63 102.38Q90.75 101.63 90.88 100.88Q91 100.13 91.13 99.25L91.13 99.25Q91.25 98.38 91.31 97.50Q91.38 96.63 91.50 95.75L91.50 95.75Q91.63 95.13 91.69 94.44Q91.75 93.75 91.88 93.13L91.88 93.13Q92 92.13 92.13 91.19Q92.25 90.25 92.38 89.25L92.38 89.25Q92.38 88.50 92.50 87.81Q92.63 87.13 92.63 86.38L92.63 86.38Q92.75 85.38 92.88 84.44Q93 83.50 93 82.63L93 82.63Q93.13 81.88 93.13 81.13Q93.13 80.38 93.25 79.75L93.25 79.75Q93.50 78.38 94.13 77.31Q94.75 76.25 95.88 75.63L95.88 75.63Q96.38 75.25 96.88 75.06Q97.38 74.88 98 74.63L98 74.63L97.88 74.38ZM40.25 67.38L40.25 67.38Q39.63 66 39.31 64.63Q39 63.25 38.88 61.75L38.88 61.75Q38.75 60.38 38.88 59Q39 57.63 39.13 56.25L39.13 56.25Q39.25 55 39.38 53.63Q39.50 52.25 39.50 51L39.50 51Q39.63 48.75 39.50 46.63Q39.38 44.50 39.25 42.25L39.25 42.25Q39.25 41 39.38 39.69Q39.50 38.38 39.63 37L39.63 37Q39.63 35.88 39.81 34.69Q40 33.50 40.13 32.38L40.13 32.38Q40.50 30.50 41 28.56Q41.50 26.63 42.25 24.75L42.25 24.75Q42.88 23 43.69 21.31Q44.50 19.63 45.63 18.13L45.63 18.13Q46.38 17.13 47.19 16.13Q48 15.13 48.75 14L48.75 14L48.50 13.88Q45.88 13.13 43.19 12.50Q40.50 11.88 37.75 11.63L37.75 11.63Q36.50 11.50 35.19 11.38Q33.88 11.25 32.50 11.13L32.50 11.13Q32.13 11.13 31.75 11.19Q31.38 11.25 31 11.25L31 11.25Q30 11.38 29 11.44Q28 11.50 27 11.75L27 11.75Q25.38 12 23.75 12.56Q22.13 13.13 20.75 14L20.75 14Q19.38 14.75 18.25 15.75Q17.13 16.75 16.25 18L16.25 18Q15.13 19.25 14.44 20.75Q13.75 22.25 13.25 23.88L13.25 23.88Q12.63 25.75 12.31 27.69Q12 29.63 12 31.63L12 31.63Q11.88 33.38 11.94 35.06Q12 36.75 12.25 38.50L12.25 38.50Q12.50 39.75 12.69 41.06Q12.88 42.38 13.13 43.63L13.13 43.63Q13.38 45.38 13.75 47.06Q14.13 48.75 14.50 50.50L14.50 50.50Q15.13 53 15.75 55.44Q16.38 57.88 17 60.25L17 60.25Q17.75 62.63 18.50 64.94Q19.25 67.25 20 69.50L20 69.50Q20.63 71.38 21.44 73.19Q22.25 75 23 76.88L23 76.88Q23.50 78 24.13 79.13Q24.75 80.25 25.50 81.38L25.50 81.38Q26.13 82.50 27 83.56Q27.88 84.63 29 85.50L29 85.50Q30.38 86.50 31.56 86.63Q32.75 86.75 34.13 85.63L34.13 85.63Q34.75 85.13 35.31 84.50Q35.88 83.88 36.38 83.25L36.38 83.25Q37.25 82.38 38.06 81.44Q38.88 80.50 39.63 79.50L39.63 79.50Q40.75 78.25 41.81 77.06Q42.88 75.88 43.88 74.75L43.88 74.75Q44.13 74.50 44.38 74.25Q44.63 74 44.88 73.75L44.88 73.75L44.38 73.25Q43 72 42 70.50Q41 69 40.25 67.38L40.25 67.38ZM93.88 19.75L93.88 19.75Q94.75 20.75 95.63 21.81Q96.50 22.88 97.25 24L97.25 24Q98.75 26.13 99.94 28.38Q101.13 30.63 102 33.13L102 33.13Q102.38 34.13 102.63 35.25Q102.88 36.38 102.75 37.50L102.75 37.50Q102.63 38.38 102.63 39.19Q102.63 40 102.50 40.88L102.50 40.88Q102.50 41.50 102.38 42.19Q102.25 42.88 102.25 43.63L102.25 43.63Q102.13 44.63 101.94 45.63Q101.75 46.63 101.63 47.75L101.63 47.75Q101.63 48.75 101.69 49.75Q101.75 50.75 101.75 51.63L101.75 51.63Q101.88 52.63 102 53.69Q102.13 54.75 102.13 55.75L102.13 55.75Q102.25 56.88 102.38 58Q102.50 59.13 102.50 60.25L102.50 60.25Q102.50 61.25 102.44 62.19Q102.38 63.13 102.38 64L102.38 64Q102.25 65.13 102 66.19Q101.75 67.25 101.25 68.38L101.25 68.38Q101 69.13 100.63 69.81Q100.25 70.50 100 71.25L100 71.25L100.13 71.50L100.38 71.63L100.63 71.13Q102.38 68.38 103.94 65.50Q105.50 62.63 106.88 59.75L106.88 59.75Q107.75 57.75 108.56 55.81Q109.38 53.88 110.13 51.88L110.13 51.88Q111.38 48.88 112.38 45.75Q113.38 42.63 114.13 39.38L114.13 39.38Q114.38 38 114.69 36.56Q115 35.13 115.13 33.63L115.13 33.63Q115.38 32.50 115.50 31.31Q115.63 30.13 115.63 29L115.63 29Q115.63 27.88 115.63 26.63Q115.63 25.38 115.50 24.13L115.50 24.13Q115.38 23.25 115.13 22.38Q114.88 21.50 114.25 20.75L114.25 20.75Q113.38 19.50 112.31 18.38Q111.25 17.25 110.13 16.38L110.13 16.38Q109 15.63 108 14.88Q107 14.13 105.88 13.38L105.88 13.38Q104.13 12.38 102.19 11.69Q100.25 11 98.25 10.50L98.25 10.50Q96.38 10.13 94.44 9.88Q92.50 9.63 90.50 9.63L90.50 9.63Q89.25 9.63 88.13 9.69Q87 9.75 85.75 9.88L85.75 9.88Q84.75 10 83.69 10.13Q82.63 10.25 81.63 10.50L81.63 10.50Q82.75 11.13 83.88 11.69Q85 12.25 86 13L86 13Q88.25 14.38 90.25 16.06Q92.25 17.75 93.88 19.75L93.88 19.75ZM55.25 72.50L55.25 72.50Q56 70.25 56.94 68Q57.88 65.75 58.88 63.50L58.88 63.50Q59.63 61.75 60.06 59.88Q60.50 58 60.63 56L60.63 56Q60.63 55.13 60.63 54.13Q60.63 53.13 60.63 52.25L60.63 52.25Q60.63 51.13 60.50 50.06Q60.38 49 60.25 48L60.25 48Q60 46.63 59.75 45.25Q59.50 43.88 59.25 42.63L59.25 42.63Q58.88 41.13 58 40.19Q57.13 39.25 55.63 38.88L55.63 38.88Q54.75 38.63 53.81 38.63Q52.88 38.63 52 38.75L52 38.75Q49.75 39.13 47.69 39.94Q45.63 40.75 43.63 42L43.63 42Q43.25 42.13 43.06 42.44Q42.88 42.75 42.88 43.25L42.88 43.25Q43.13 44.50 43.13 45.69Q43.13 46.88 43.13 48L43.13 48Q43.13 49.63 43.06 51.31Q43 53 43 54.75L43 54.75Q43 55.25 42.94 55.81Q42.88 56.38 42.75 56.88L42.75 56.88Q42.63 57.75 42.50 58.56Q42.38 59.38 42.38 60.25L42.38 60.25Q42.38 61.13 42.50 61.94Q42.63 62.75 42.88 63.63L42.88 63.63Q43.50 66.25 44.94 68.38Q46.38 70.50 48.63 72L48.63 72Q50 73 51.56 73.44Q53.13 73.88 54.88 74L54.88 74Q55 73.63 55.06 73.25Q55.13 72.88 55.25 72.50ZM51.75 42.38L51.75 42.38Q51.38 41.75 51.56 41.25Q51.75 40.75 52.50 40.50L52.50 40.50Q52.63 40.50 52.81 40.44Q53 40.38 53.13 40.38L53.13 40.38Q53.38 40.38 53.63 40.38Q53.88 40.38 54.13 40.38L54.13 40.38Q55 40.38 55.88 40.56Q56.75 40.75 57.50 41.25L57.50 41.25Q57.88 41.63 58 42.13Q58.13 42.63 57.88 43.13L57.88 43.13Q57.38 43.75 56.75 44.13Q56.13 44.50 55.25 44.50L55.25 44.50Q54 44.63 53.13 44.06Q52.25 43.50 51.75 42.38L51.75 42.38ZM98.75 42.13L98.75 42.13Q98.88 41.25 98.94 40.44Q99 39.63 99.13 38.75L99.13 38.75Q99.13 38.38 99 38.25Q98.88 38.13 98.63 38.13L98.63 38.13Q97.63 38.13 96.75 38.13Q95.88 38.13 95 38L95 38Q94 38 93 38.19Q92 38.38 91.13 38.75L91.13 38.75Q90.13 39.25 89.38 39.94Q88.63 40.63 88.25 41.75L88.25 41.75Q88 42.63 87.94 43.44Q87.88 44.25 88 45.13L88 45.13Q88.13 46.50 88.38 47.81Q88.63 49.13 89.13 50.38L89.13 50.38Q89.75 52 90.44 53.63Q91.13 55.25 91.88 56.88L91.88 56.88Q93 59 94.13 61.13Q95.25 63.25 96.38 65.38L96.38 65.38Q96.75 66 97 66.56Q97.25 67.13 97.63 67.88L97.63 67.88Q98.25 66.50 98.56 65.06Q98.88 63.63 98.88 62.25L98.88 62.25Q99 61 98.88 59.81Q98.75 58.63 98.75 57.38L98.75 57.38Q98.75 56.63 98.63 55.88Q98.50 55.13 98.50 54.38L98.50 54.38Q98.38 53.38 98.25 52.38Q98.13 51.38 98.13 50.38L98.13 50.38Q98 49.25 98.06 48.19Q98.13 47.13 98.25 46.13L98.25 46.13Q98.38 45.13 98.50 44.13Q98.63 43.13 98.75 42.13L98.75 42.13ZM96.13 41L96.13 41Q95.75 42 95.06 42.50Q94.38 43 93.50 43.13L93.50 43.13Q92.63 43.25 91.88 43Q91.13 42.75 90.50 42L90.50 42Q90.13 41.50 90.25 41Q90.38 40.50 91 40.13L91 40.13Q91.75 39.75 92.50 39.63Q93.25 39.50 94.13 39.38L94.13 39.38Q94.38 39.50 94.69 39.56Q95 39.63 95.38 39.63L95.38 39.63Q95.88 39.88 96.06 40.19Q96.25 40.50 96.13 41ZM60.63 78.75L60.63 78.75Q60.13 78.25 59.56 78.25Q59 78.25 58.50 78.75L58.50 78.75Q57.88 79.25 57.38 79.88Q56.88 80.50 56.38 81.13L56.38 81.13Q55.75 81.88 55.19 82.56Q54.63 83.25 53.88 83.75L53.88 83.75Q52.75 84.63 51.50 85Q50.25 85.38 48.88 85.75L48.88 85.75Q47.88 86 46.88 86.25Q45.88 86.50 44.75 86.63L44.75 86.63L44.75 86.88Q45.13 87 45.38 87.19Q45.63 87.38 46 87.38L46 87.38Q47.63 87.88 49.19 88.13Q50.75 88.38 52.50 88.25L52.50 88.25Q53.63 88.13 54.81 87.88Q56 87.63 57 87L57 87Q58.50 86.38 59.69 85.25Q60.88 84.13 61.88 82.88L61.88 82.88Q62 82.63 62.06 82.38Q62.13 82.13 62.25 81.75L62.25 81.75Q62.25 80.75 61.81 80Q61.38 79.25 60.63 78.75L60.63 78.75ZM112.38 79.25L112.38 79.25Q111.13 79.38 109.88 79.50Q108.63 79.63 107.38 79.75L107.38 79.75Q106.75 79.75 106.13 79.69Q105.50 79.63 104.88 79.50L104.88 79.50Q103.75 79.38 102.75 79.13Q101.75 78.88 100.88 78.38L100.88 78.38Q100.38 78 99.94 78Q99.50 78 99 78.13L99 78.13Q98.25 78.38 97.63 78.81Q97 79.25 96.88 80.13L96.88 80.13Q96.75 80.63 96.69 81.25Q96.63 81.88 96.50 82.38L96.50 82.38Q96.50 82.50 96.63 82.63Q96.75 82.75 96.88 82.88L96.88 82.88Q97.50 83 98.06 83.13Q98.63 83.25 99.25 83.38L99.25 83.38Q100 83.38 100.75 83.38Q101.50 83.38 102.25 83.38L102.25 83.38Q103.13 83.38 103.94 83.31Q104.75 83.25 105.50 83.13L105.50 83.13Q107.38 82.75 109.19 82.19Q111 81.63 112.63 80.50L112.63 80.50Q113.25 80.13 113.81 79.75Q114.38 79.38 114.88 79L114.88 79L114.88 78.88Q114.25 79 113.63 79.06Q113 79.13 112.38 79.25L112.38 79.25Z"/></svg>