<svg xmlns="http://www.w3.org/2000/svg" xmlns:xlink="http://www.w3.org/1999/xlink" width="128" height="128"><path fill="#000000" d="M63.38 100.25L63.38 100.25Q64.75 101.38 66.31 101.88Q67.88 102.38 69.63 102.50L69.63 102.50Q70.25 102.50 71 102.44Q71.75 102.38 72.38 102.25L72.38 102.25Q73.50 102.13 74.56 101.88Q75.63 101.63 76.75 101.25L76.75 101.25Q78.88 100.63 80.75 99.44Q82.63 98.25 84 96.38L84 96.38Q84.88 95.38 85.50 94.25Q86.13 93.13 86.50 91.88L86.50 91.88Q86.88 90.88 87.19 89.81Q87.50 88.75 87.75 87.75L87.75 87.75Q88 86.88 88.13 86Q88.25 85.13 88.38 84.38L88.38 84.38Q88.38 83.75 88.44 83.19Q88.50 82.63 88.63 82L88.63 82Q88.63 81.13 88.75 80.19Q88.88 79.25 88.88 78.38L88.88 78.38Q89 77.75 89 77.13Q89 76.50 89 75.88L89 75.88Q89 75.63 89 75.44Q89 75.25 89.13 75L89.13 75Q89.13 74.88 89.19 74.81Q89.25 74.75 89.50 74.75L89.50 74.75Q90.13 74.75 90.75 74.75Q91.38 74.75 92 74.75L92 74.75Q92.75 74.63 93.50 74.63Q94.25 74.63 95 74.50L95 74.50Q96 74.25 97 74.06Q98 73.88 99 73.63L99 73.63Q100.13 73.25 101.25 72.75Q102.38 72.25 103.38 71.63L103.38 71.63Q104.63 70.88 105.69 70Q106.75 69.13 107.63 68L107.63 68Q108.38 67.13 108.75 66Q109.13 64.88 108.88 63.63L108.88 63.63Q108.63 61.88 107.31 60.81Q106 59.75 104.25 59.63L104.25 59.63Q103.63 59.63 103 59.69Q102.38 59.75 101.75 59.75L101.75 59.75Q101 59.88 100.25 60.06Q99.50 60.25 98.75 60.25L98.75 60.25Q98.25 60.38 97.75 60.44Q97.25 60.50 96.63 60.50L96.63 60.50L96.63 60.38Q97.63 58.63 98.63 56.81Q99.63 55 100.50 53.13L100.50 53.13Q101.25 51.75 101.88 50.25Q102.50 48.75 103.13 47.25L103.13 47.25Q104.13 44.88 104.94 42.38Q105.75 39.88 106.50 37.38L106.50 37.38Q107.13 35 107.63 32.50Q108.13 30 108.25 27.50L108.25 27.50Q108.38 26.50 108.44 25.50Q108.50 24.50 108.50 23.50L108.50 23.50Q108.50 22.63 108.38 21.81Q108.25 21 108.25 20.25L108.25 20.25Q108.13 19.38 107.88 18.50Q107.63 17.63 107.25 16.75L107.25 16.75Q106.75 15.63 106 14.69Q105.25 13.75 104.38 12.88L104.38 12.88Q103.75 12.25 103 11.63Q102.25 11 101.63 10.38L101.63 10.38Q100.50 9.50 99.38 8.75Q98.25 8 97.13 7.38L97.13 7.38Q95.75 6.63 94.31 6.06Q92.88 5.50 91.38 5.13L91.38 5.13Q90.50 4.88 89.56 4.69Q88.63 4.50 87.63 4.25L87.63 4.25Q87.38 4.25 87.06 4.13Q86.75 4 86.38 4L86.38 4L78.13 4Q77.88 4 77.63 4.13Q77.38 4.25 77.25 4.25L77.25 4.25Q75.75 4.38 74.25 4.69Q72.75 5 71.38 5.38L71.38 5.38Q70.88 5.63 70.38 5.56Q69.88 5.50 69.38 5.50L69.38 5.50Q69 5.38 68.56 5.31Q68.13 5.25 67.75 5.25L67.75 5.25Q66.38 5.13 64.88 5.06Q63.38 5 61.88 5L61.88 5Q60.50 5 59.06 5.25Q57.63 5.50 56.25 5.88L56.25 5.88Q55.13 6.25 54 6.63Q52.88 7 51.88 7.63L51.88 7.63Q51.50 7.88 51.13 7.88Q50.75 7.88 50.25 7.75L50.25 7.75Q48.75 7.38 47.19 6.94Q45.63 6.50 44.13 6.13L44.13 6.13Q43.13 6 42.13 5.88Q41.13 5.75 40.13 5.63L40.13 5.63Q39.13 5.50 38.19 5.44Q37.25 5.38 36.38 5.38L36.38 5.38Q35.38 5.38 34.44 5.38Q33.50 5.38 32.63 5.38L32.63 5.38Q31.13 5.63 29.69 5.88Q28.25 6.13 26.88 6.63L26.88 6.63Q25.25 7.25 23.81 8Q22.38 8.75 21.13 9.75L21.13 9.75Q19.75 10.88 18.69 12.13Q17.63 13.38 16.88 14.75L16.88 14.75Q15.88 16.25 15.25 17.94Q14.63 19.63 14.25 21.25L14.25 21.25Q14.13 22.25 14.13 23.19Q14.13 24.13 14 25.13L14 25.13Q13.88 25.38 13.94 25.69Q14 26 14 26.25L14 26.25L14 31.75Q14 32 13.94 32.25Q13.88 32.50 14 32.88L14 32.88Q14 33.50 14 34.13Q14 34.75 14.13 35.50L14.13 35.50Q14.38 36.50 14.50 37.50Q14.63 38.50 14.88 39.63L14.88 39.63Q15.25 41 15.50 42.44Q15.75 43.88 16.13 45.38L16.13 45.38Q16.38 46.38 16.63 47.44Q16.88 48.50 17.13 49.50L17.13 49.50Q17.63 51 18.06 52.56Q18.50 54.13 19 55.75L19 55.75Q19.38 57.13 19.94 58.56Q20.50 60 21 61.50L21 61.50Q21.63 63.50 22.50 65.38Q23.38 67.25 24.50 69.13L24.50 69.13Q25.38 70.63 26.44 72.13Q27.50 73.63 28.88 74.75L28.88 74.75Q29.75 75.63 30.75 76.19Q31.75 76.75 33 77.13L33 77.13Q33.88 77.38 34.81 77.38Q35.75 77.38 36.63 77.25L36.63 77.25Q37.75 77 38.75 76.50Q39.75 76 40.63 75.38L40.63 75.38Q40.63 75.25 40.75 75.25Q40.88 75.25 41 75.38L41 75.38Q41.50 75.88 42.06 76.31Q42.63 76.75 43.25 77L43.25 77Q44.88 77.88 46.69 78.25Q48.50 78.63 50.38 78.75L50.38 78.75Q50.88 78.75 51.31 78.69Q51.75 78.63 52.25 78.63L52.25 78.63Q53.13 78.63 54 78.44Q54.88 78.25 55.63 78L55.63 78Q56.13 77.88 56.56 77.75Q57 77.63 57.38 77.50L57.38 77.50Q57.50 77.88 57.50 78.38Q57.50 78.88 57.50 79.38L57.50 79.38L57.63 82.63Q57.63 83.13 57.63 83.50Q57.63 83.88 57.63 84.25L57.63 84.25Q57.75 85.25 57.88 86.19Q58 87.13 58.13 88.13L58.13 88.13Q58.13 88.88 58.25 89.50Q58.38 90.13 58.50 90.88L58.50 90.88Q58.88 92.13 59.31 93.44Q59.75 94.75 60.25 96L60.25 96Q60.75 97.25 61.56 98.31Q62.38 99.38 63.38 100.25L63.38 100.25ZM59.88 83.50L59.88 83.50Q59.75 82.25 59.69 81.06Q59.63 79.88 59.63 78.75L59.63 78.75Q59.63 77.25 59.63 75.81Q59.63 74.38 59.63 72.88L59.63 72.88L59.63 72.75Q58.88 73.25 58.13 73.69Q57.38 74.13 56.63 74.63L56.63 74.63Q55.63 75 54.69 75.31Q53.75 75.63 52.75 75.63L52.75 75.63Q51.88 75.75 51.06 75.75Q50.25 75.75 49.50 75.75L49.50 75.75Q48.25 75.63 46.94 75.38Q45.63 75.13 44.50 74.50L44.50 74.50Q44 74.25 43.56 73.94Q43.13 73.63 42.75 73.13L42.75 73.13Q42 72.13 42.31 71.06Q42.63 70 43.75 69.38L43.75 69.38Q44.63 68.88 45.50 68.69Q46.38 68.50 47.25 68.25L47.25 68.25Q48 68.13 48.75 67.94Q49.50 67.75 50.25 67.50L50.25 67.50Q51 67.25 51.50 66.69Q52 66.13 52.50 65.50L52.50 65.50L53.50 64.25L52.25 64.13Q51.38 64.13 50.56 63.88Q49.75 63.63 49 63.25L49 63.25Q48.25 63 48.06 63Q47.88 63 47.38 63.50L47.38 63.50Q46.50 64.50 45.69 65.38Q44.88 66.25 44.13 67.25L44.13 67.25Q43.50 67.88 42.88 68.56Q42.25 69.25 41.75 69.88L41.75 69.88Q41.13 70.63 40.56 71.31Q40 72 39.38 72.63L39.38 72.63Q38.38 73.50 37.25 74Q36.13 74.50 34.75 74.50L34.75 74.50Q33.88 74.50 33.06 74.19Q32.25 73.88 31.50 73.38L31.50 73.38Q30 72.38 28.94 70.94Q27.88 69.50 27 68L27 68Q25.88 66.13 24.94 64.06Q24 62 23.25 59.88L23.25 59.88Q22.75 58.38 22.19 56.88Q21.63 55.38 21.25 53.88L21.25 53.88Q20.75 52.25 20.25 50.63Q19.75 49 19.38 47.38L19.38 47.38Q19 46.13 18.75 44.88Q18.50 43.63 18.13 42.38L18.13 42.38Q17.88 41 17.56 39.56Q17.25 38.13 17 36.63L17 36.63Q16.75 35.63 16.63 34.69Q16.50 33.75 16.38 32.75L16.38 32.75Q16.25 31.50 16.19 30.13Q16.13 28.75 16.25 27.50L16.25 27.50Q16.25 26.25 16.38 25.06Q16.50 23.88 16.75 22.75L16.75 22.75Q17 21.13 17.50 19.56Q18 18 18.75 16.50L18.75 16.50Q19.25 15.63 19.88 14.81Q20.50 14 21.13 13.25L21.13 13.25Q22.25 12 23.56 11.13Q24.88 10.25 26.38 9.50L26.38 9.50Q27.50 9.13 28.56 8.81Q29.63 8.50 30.75 8.25L30.75 8.25Q32.50 7.88 34.19 7.88Q35.88 7.88 37.63 7.88L37.63 7.88Q38.25 7.88 39 8Q39.75 8.13 40.50 8.13L40.50 8.13Q42.13 8.38 43.69 8.69Q45.25 9 46.75 9.38L46.75 9.38Q47.88 9.75 49 10.06Q50.13 10.38 51.25 10.75L51.25 10.75Q51.38 10.75 51.50 10.75Q51.63 10.75 51.75 10.75L51.75 10.75Q53.25 9.75 54.88 9.06Q56.50 8.38 58.25 8L58.25 8Q59 7.88 59.69 7.81Q60.38 7.75 61 7.75L61 7.75Q61.88 7.63 62.69 7.63Q63.50 7.63 64.38 7.63L64.38 7.63Q65.38 7.75 66.31 7.88Q67.25 8 68.25 8.13L68.25 8.13Q68.75 8.13 69.25 8.25Q69.75 8.38 70.25 8.50L70.25 8.50Q70.38 8.50 70.63 8.38Q70.88 8.25 71.13 8.25L71.13 8.25Q72.38 7.88 73.63 7.63Q74.88 7.38 76.13 7.13L76.13 7.13Q77 6.88 78 6.81Q79 6.75 79.88 6.75L79.88 6.75Q81 6.63 82.06 6.63Q83.13 6.63 84.13 6.63L84.13 6.63Q85.50 6.63 86.81 6.81Q88.13 7 89.38 7.38L89.38 7.38Q91 7.75 92.56 8.31Q94.13 8.88 95.63 9.63L95.63 9.63Q96.75 10.13 97.81 10.81Q98.88 11.50 99.75 12.38L99.75 12.38Q100.38 12.88 101 13.38Q101.63 13.88 102.13 14.50L102.13 14.50Q102.88 15.25 103.50 16Q104.13 16.75 104.63 17.75L104.63 17.75Q105 18.38 105.19 19.13Q105.38 19.88 105.50 20.63L105.50 20.63Q105.50 21.63 105.56 22.56Q105.63 23.50 105.63 24.50L105.63 24.50Q105.63 25.38 105.56 26.31Q105.50 27.25 105.38 28.25L105.38 28.25Q105.13 30.25 104.75 32.31Q104.38 34.38 103.75 36.38L103.75 36.38Q103.25 38.13 102.75 39.75Q102.25 41.38 101.63 43L101.63 43Q101.13 44.50 100.56 46Q100 47.50 99.38 48.88L99.38 48.88Q98.88 50 98.38 51.06Q97.88 52.13 97.38 53.25L97.38 53.25Q96.38 55.25 95.25 57.19Q94.13 59.13 93 61L93 61Q92.75 61.25 92.56 61.63Q92.38 62 92.13 62.25L92.13 62.25Q92.63 62.63 93.25 62.81Q93.88 63 94.50 63L94.50 63Q95 63.13 95.63 63.13Q96.25 63.13 96.75 63.13L96.75 63.13Q97.75 63 98.63 62.88Q99.50 62.75 100.50 62.63L100.50 62.63Q101.38 62.50 102.25 62.31Q103.13 62.13 104.13 62.25L104.13 62.25Q105 62.25 105.63 62.94Q106.25 63.63 106.13 64.50L106.13 64.50Q106.13 65 105.88 65.50Q105.63 66 105.25 66.38L105.25 66.38Q103.50 68.25 101.38 69.44Q99.25 70.63 96.75 71.25L96.75 71.25Q95.75 71.50 94.81 71.63Q93.88 71.75 92.88 71.75L92.88 71.75Q92 71.88 91.19 71.88Q90.38 71.88 89.50 71.88L89.50 71.88Q89 71.88 88.38 71.75Q87.75 71.63 87.13 71.50L87.13 71.50Q87 72.13 86.94 72.69Q86.88 73.25 86.88 73.88L86.88 73.88L86.50 76.88Q86.38 77.63 86.31 78.31Q86.25 79 86.13 79.75L86.13 79.75Q86 80.50 85.94 81.19Q85.88 81.88 85.75 82.50L85.75 82.50Q85.63 83.25 85.56 83.88Q85.50 84.50 85.38 85.13L85.38 85.13Q85.25 86.13 85.13 87.13Q85 88.13 84.75 89.13L84.75 89.13Q84.50 90.25 84.13 91.38Q83.75 92.50 83.25 93.63L83.25 93.63Q82.50 94.88 81.50 95.88Q80.50 96.88 79.25 97.63L79.25 97.63Q77.88 98.38 76.44 98.81Q75 99.25 73.63 99.63L73.63 99.63Q72.50 99.88 71.44 99.88Q70.38 99.88 69.38 99.88L69.38 99.88Q67.63 99.63 66.06 98.88Q64.50 98.13 63.38 96.75L63.38 96.75Q62.25 95.38 61.50 93.81Q60.75 92.25 60.50 90.50L60.50 90.50Q60.38 89.75 60.25 88.88Q60.13 88 60 87.13L60 87.13Q60 86.25 59.94 85.31Q59.88 84.38 59.88 83.50L59.88 83.50ZM62.50 67.50L62.50 67.50Q62.50 68.13 62.50 68.75Q62.50 69.38 62.50 70L62.50 70Q62.50 72.88 62.50 75.75Q62.50 78.63 62.50 81.63L62.50 81.63Q62.50 82 62.56 82.50Q62.63 83 62.63 83.50L62.63 83.50Q62.75 84.50 62.81 85.50Q62.88 86.50 63 87.38L63 87.38Q63 88.13 63.13 88.81Q63.25 89.50 63.38 90.25L63.38 90.25Q63.50 91.25 63.88 92.13Q64.25 93 64.75 93.88L64.75 93.88Q65.25 94.50 65.81 95.13Q66.38 95.75 67.13 96.13L67.13 96.13Q68.38 96.88 69.75 97Q71.13 97.13 72.50 96.88L72.50 96.88Q73.50 96.63 74.38 96.38Q75.25 96.13 76.25 95.88L76.25 95.88Q77.13 95.50 77.94 95.06Q78.75 94.63 79.38 93.88L79.38 93.88Q80 93.38 80.50 92.63Q81 91.88 81.25 91L81.25 91Q81.88 89.38 82.13 87.69Q82.38 86 82.63 84.38L82.63 84.38Q82.75 83.75 82.81 83.13Q82.88 82.50 83 81.88L83 81.88Q83 81.13 83.13 80.38Q83.25 79.63 83.38 79L83.38 79Q83.38 78.38 83.44 77.88Q83.50 77.38 83.63 76.88L83.63 76.88Q83.63 76 83.75 75.25Q83.88 74.50 84 73.75L84 73.75Q84 73.13 84.06 72.56Q84.13 72 84.25 71.38L84.25 71.38Q84.25 70.63 84.38 69.88Q84.50 69.13 84.50 68.38L84.50 68.38Q84.63 67.75 84.63 67.19Q84.63 66.63 84.75 66L84.75 66Q84.88 65 85.38 64.13Q85.88 63.25 86.88 62.63L86.88 62.63Q87.25 62.50 87.69 62.31Q88.13 62.13 88.50 61.88L88.50 61.88L88.38 61.75Q88 61.25 87.63 60.75Q87.25 60.25 86.75 59.75L86.75 59.75Q86.25 58.88 85.75 58Q85.25 57.13 84.88 56.13L84.88 56.13Q84.38 55.25 83.94 54.44Q83.50 53.63 83 52.75L83 52.75Q82.25 51.25 81.50 49.75Q80.75 48.25 80 46.75L80 46.75Q79.13 44.88 78.50 42.88Q77.88 40.88 77.63 38.75L77.63 38.75Q77.50 37.88 77.50 37Q77.50 36.13 77.63 35.25L77.63 35.25Q78 33.75 78.75 32.69Q79.50 31.63 80.75 30.88L80.75 30.88Q81.88 30.13 83.13 29.81Q84.38 29.50 85.75 29.50L85.75 29.50Q86.50 29.38 87.38 29.44Q88.25 29.50 89 29.50L89 29.50L89 29.25Q88.50 28.13 88 27.06Q87.50 26 86.88 24.88L86.88 24.88Q86 23.38 85 22Q84 20.63 82.88 19.38L82.88 19.38Q82 18.38 81.06 17.50Q80.13 16.63 79.13 15.88L79.13 15.88Q78.13 15.13 77.06 14.44Q76 13.75 74.88 13.25L74.88 13.25Q73.50 12.50 72.13 12Q70.75 11.50 69.25 11.25L69.25 11.25Q67.75 10.88 66.38 10.69Q65 10.50 63.50 10.50L63.50 10.50Q62.25 10.50 61.06 10.56Q59.88 10.63 58.63 11L58.63 11Q56.75 11.38 55.13 12.13Q53.50 12.88 52 14.13L52 14.13Q51.25 14.75 50.56 15.56Q49.88 16.38 49.25 17.13L49.25 17.13Q48.50 18.13 47.88 19.19Q47.25 20.25 46.75 21.38L46.75 21.38Q46.13 23 45.63 24.56Q45.13 26.13 44.88 27.88L44.88 27.88Q44.63 28.63 44.50 29.50Q44.38 30.38 44.25 31.13L44.25 31.13Q44.25 31.50 44.25 31.75Q44.25 32 44.13 32.38L44.13 32.38L44.88 32L45.63 31.63Q47.38 30.88 49.31 30.38Q51.25 29.88 53.25 30L53.25 30Q54.13 30 54.94 30.19Q55.75 30.38 56.50 30.75L56.50 30.75Q58 31.38 58.88 32.63Q59.75 33.88 60.13 35.38L60.13 35.38Q60.38 36.50 60.56 37.56Q60.75 38.63 60.88 39.75L60.88 39.75Q61 40.50 61.13 41.38Q61.25 42.25 61.25 43.13L61.25 43.13Q61.25 44.38 61.19 45.63Q61.13 46.88 61.13 48.13L61.13 48.13Q61 49.25 60.81 50.25Q60.63 51.25 60.25 52.25L60.25 52.25Q59.50 54.13 58.81 55.94Q58.13 57.75 57.38 59.50L57.38 59.50Q57.13 60.13 56.94 60.75Q56.75 61.38 56.50 62L56.50 62L57.75 62Q57.88 62 57.94 62Q58 62 58.13 62L58.13 62Q59 62.25 59.69 62.63Q60.38 63 61 63.63L61 63.63Q61.75 64.38 62.13 65.38Q62.50 66.38 62.50 67.50L62.50 67.50ZM41.88 56L41.88 56Q41.38 55 41.13 53.81Q40.88 52.63 40.75 51.50L40.75 51.50Q40.75 50.38 40.81 49.31Q40.88 48.25 41 47.13L41 47.13Q41.13 46 41.19 44.94Q41.25 43.88 41.38 42.88L41.38 42.88Q41.38 41 41.31 39.25Q41.25 37.50 41.13 35.75L41.13 35.75Q41.13 34.75 41.19 33.69Q41.25 32.63 41.38 31.63L41.38 31.63Q41.50 30.63 41.56 29.69Q41.63 28.75 41.88 27.88L41.88 27.88Q42.13 26.25 42.56 24.69Q43 23.13 43.50 21.63L43.50 21.63Q44.13 20.25 44.75 18.88Q45.38 17.50 46.25 16.25L46.25 16.25Q46.88 15.50 47.50 14.69Q48.13 13.88 48.75 13L48.75 13L48.50 12.88Q46.38 12.25 44.25 11.75Q42.13 11.25 39.88 11L39.88 11Q38.88 10.88 37.81 10.81Q36.75 10.75 35.75 10.75L35.75 10.75Q35.38 10.63 35.06 10.69Q34.75 10.75 34.38 10.75L34.38 10.75Q33.63 10.88 32.81 10.94Q32 11 31.25 11.13L31.25 11.13Q29.88 11.38 28.56 11.81Q27.25 12.25 26.13 13L26.13 13Q25 13.63 24.13 14.44Q23.25 15.25 22.50 16.13L22.50 16.13Q21.63 17.25 21.06 18.44Q20.50 19.63 20.13 20.88L20.13 20.88Q19.63 22.50 19.38 24.06Q19.13 25.63 19.13 27.13L19.13 27.13Q19 28.63 19 30Q19 31.38 19.25 32.75L19.25 32.75Q19.50 33.75 19.63 34.81Q19.75 35.88 20 36.88L20 36.88Q20.25 38.25 20.50 39.63Q20.75 41 21.13 42.50L21.13 42.50Q21.63 44.38 22.13 46.38Q22.63 48.38 23.13 50.38L23.13 50.38Q23.75 52.25 24.31 54.13Q24.88 56 25.63 57.75L25.63 57.75Q26.13 59.25 26.75 60.75Q27.38 62.25 28 63.63L28 63.63Q28.38 64.63 28.88 65.56Q29.38 66.50 30 67.38L30 67.38Q30.50 68.25 31.19 69.13Q31.88 70 32.75 70.63L32.75 70.63Q33.88 71.50 34.88 71.63Q35.88 71.75 37 70.75L37 70.75Q37.50 70.38 37.94 69.88Q38.38 69.38 38.75 68.88L38.75 68.88Q39.38 68.13 40.06 67.38Q40.75 66.63 41.38 65.88L41.38 65.88Q42.25 64.88 43.13 63.94Q44 63 44.88 62L44.88 62Q45 61.75 45.19 61.56Q45.38 61.38 45.63 61.13L45.63 61.13L45.25 60.88Q44.13 59.75 43.31 58.56Q42.50 57.38 41.88 56ZM85.25 17.63L85.25 17.63Q86 18.50 86.63 19.31Q87.25 20.13 87.88 21L87.88 21Q89.13 22.75 90.06 24.56Q91 26.38 91.75 28.38L91.75 28.38Q92.13 29.25 92.31 30.13Q92.50 31 92.38 32L92.38 32Q92.25 32.63 92.25 33.31Q92.25 34 92.25 34.63L92.25 34.63Q92.13 35.13 92.06 35.69Q92 36.25 91.88 36.88L91.88 36.88Q91.75 37.63 91.63 38.50Q91.50 39.38 91.50 40.13L91.50 40.13Q91.50 41 91.50 41.81Q91.50 42.63 91.63 43.38L91.63 43.38Q91.63 44.25 91.75 45Q91.88 45.75 91.88 46.63L91.88 46.63Q92 47.50 92.06 48.44Q92.13 49.38 92.13 50.25L92.13 50.25Q92.25 51 92.19 51.81Q92.13 52.63 92 53.38L92 53.38Q92 54.25 91.75 55.13Q91.50 56 91.13 56.88L91.13 56.88Q90.88 57.50 90.63 58.06Q90.38 58.63 90.13 59.25L90.13 59.25L90.25 59.38L90.50 59.50L90.75 59.13Q92.13 56.88 93.38 54.56Q94.63 52.25 95.75 49.88L95.75 49.88Q96.38 48.25 97.06 46.69Q97.75 45.13 98.38 43.63L98.38 43.63Q99.38 41.13 100.13 38.63Q100.88 36.13 101.50 33.50L101.50 33.50Q101.75 32.38 102 31.19Q102.25 30 102.38 28.75L102.38 28.75Q102.50 27.88 102.63 26.94Q102.75 26 102.75 25.13L102.75 25.13Q102.75 24.13 102.75 23.13Q102.75 22.13 102.63 21.13L102.63 21.13Q102.50 20.38 102.31 19.69Q102.13 19 101.63 18.38L101.63 18.38Q100.88 17.38 100.06 16.50Q99.25 15.63 98.25 14.88L98.25 14.88Q97.50 14.25 96.63 13.63Q95.75 13 94.88 12.50L94.88 12.50Q93.50 11.63 91.94 11.06Q90.38 10.50 88.75 10.13L88.75 10.13Q87.25 9.75 85.63 9.63Q84 9.50 82.50 9.38L82.50 9.38Q81.50 9.38 80.56 9.50Q79.63 9.63 78.63 9.63L78.63 9.63Q77.88 9.75 77 9.88Q76.13 10 75.25 10.13L75.25 10.13Q76.13 10.63 77.06 11.13Q78 11.63 78.88 12.13L78.88 12.13Q80.63 13.25 82.25 14.63Q83.88 16 85.25 17.63L85.25 17.63ZM54 60.25L54 60.25Q54.63 58.38 55.38 56.56Q56.13 54.75 56.88 53L56.88 53Q57.50 51.50 57.88 50Q58.25 48.50 58.38 46.88L58.38 46.88Q58.38 46.13 58.38 45.38Q58.38 44.63 58.38 43.75L58.38 43.75Q58.25 43 58.19 42.13Q58.13 41.25 58 40.38L58 40.38Q57.88 39.25 57.69 38.19Q57.50 37.13 57.25 36L57.25 36Q57 34.88 56.25 34.06Q55.50 33.25 54.25 33L54.25 33Q53.63 32.88 52.88 32.88Q52.13 32.88 51.38 32.88L51.38 32.88Q49.50 33.25 47.88 33.88Q46.25 34.50 44.63 35.50L44.63 35.50Q44.38 35.75 44.19 35.94Q44 36.13 44.13 36.63L44.13 36.63Q44.25 37.50 44.25 38.50Q44.25 39.50 44.25 40.38L44.25 40.38Q44.25 41.75 44.19 43.13Q44.13 44.50 44.13 45.88L44.13 45.88Q44.13 46.25 44.06 46.69Q44 47.13 43.88 47.63L43.88 47.63Q43.88 48.25 43.75 48.94Q43.63 49.63 43.63 50.25L43.63 50.25Q43.63 51 43.69 51.69Q43.75 52.38 44 53L44 53Q44.50 55.13 45.63 56.88Q46.75 58.63 48.63 59.75L48.63 59.75Q49.75 60.63 51.06 61Q52.38 61.38 53.75 61.38L53.75 61.38Q53.75 61.13 53.88 60.81Q54 60.50 54 60.25ZM51.13 35.88L51.13 35.88Q50.88 35.38 51.06 35Q51.25 34.63 51.75 34.38L51.75 34.38Q51.88 34.38 52.06 34.31Q52.25 34.25 52.38 34.25L52.38 34.25Q52.50 34.25 52.69 34.25Q52.88 34.25 53.13 34.25L53.13 34.25Q53.88 34.25 54.56 34.38Q55.25 34.50 55.75 35L55.75 35Q56.13 35.25 56.25 35.63Q56.38 36 56.13 36.38L56.13 36.38Q55.75 37 55.25 37.31Q54.75 37.63 54 37.63L54 37.63Q53 37.75 52.31 37.25Q51.63 36.75 51.13 35.88L51.13 35.88ZM89.13 35.63L89.13 35.63L89.50 33Q89.50 32.63 89.38 32.56Q89.25 32.50 89 32.50L89 32.50Q88.25 32.50 87.56 32.44Q86.88 32.38 86.13 32.38L86.13 32.38Q85.25 32.38 84.50 32.50Q83.75 32.63 83 33L83 33Q82.13 33.25 81.50 33.88Q80.88 34.50 80.63 35.38L80.63 35.38Q80.50 36 80.44 36.69Q80.38 37.38 80.38 38.13L80.38 38.13Q80.50 39.25 80.75 40.25Q81 41.25 81.38 42.25L81.38 42.25Q81.88 43.63 82.44 44.94Q83 46.25 83.63 47.63L83.63 47.63Q84.50 49.38 85.44 51.06Q86.38 52.75 87.25 54.50L87.25 54.50Q87.50 54.88 87.69 55.38Q87.88 55.88 88.13 56.38L88.13 56.38Q88.75 55.25 89 54.13Q89.25 53 89.25 51.88L89.25 51.88Q89.25 50.88 89.19 49.94Q89.13 49 89.13 48L89.13 48Q89.13 47.38 89.06 46.81Q89 46.25 88.88 45.63L88.88 45.63Q88.75 44.75 88.69 43.94Q88.63 43.13 88.63 42.25L88.63 42.25Q88.63 41.38 88.63 40.56Q88.63 39.75 88.75 38.88L88.75 38.88Q88.75 38.13 88.88 37.31Q89 36.50 89.13 35.63L89.13 35.63ZM87 34.75L87 34.75Q86.75 35.50 86.19 35.94Q85.63 36.38 84.88 36.50L84.88 36.50Q84.13 36.63 83.56 36.38Q83 36.13 82.50 35.63L82.50 35.63Q82.25 35.13 82.31 34.75Q82.38 34.38 82.88 34.13L82.88 34.13Q83.50 33.75 84.06 33.63Q84.63 33.50 85.38 33.50L85.38 33.50Q85.63 33.50 85.88 33.56Q86.13 33.63 86.38 33.75L86.38 33.75Q86.88 33.75 87 34.06Q87.13 34.38 87 34.75ZM58.38 65.25L58.38 65.25Q58 64.88 57.50 64.88Q57 64.88 56.63 65.25L56.63 65.25Q56.13 65.63 55.75 66.13Q55.38 66.63 54.88 67.13L54.88 67.13Q54.50 67.75 54 68.31Q53.50 68.88 52.88 69.25L52.88 69.25Q52 70 51 70.31Q50 70.63 48.88 70.88L48.88 70.88Q48.13 71.13 47.25 71.31Q46.38 71.50 45.63 71.63L45.63 71.63L45.50 71.75Q45.75 71.88 46 72Q46.25 72.13 46.50 72.25L46.50 72.25Q47.88 72.63 49.13 72.81Q50.38 73 51.75 72.88L51.75 72.88Q52.75 72.75 53.69 72.56Q54.63 72.38 55.50 72L55.50 72Q56.63 71.38 57.56 70.50Q58.50 69.63 59.38 68.63L59.38 68.63Q59.50 68.38 59.56 68.13Q59.63 67.88 59.63 67.75L59.63 67.75Q59.63 66.88 59.31 66.25Q59 65.63 58.38 65.25L58.38 65.25ZM89.38 64.75L89.38 64.75Q88.75 65 88.25 65.31Q87.75 65.63 87.63 66.38L87.63 66.38Q87.50 66.75 87.44 67.25Q87.38 67.75 87.38 68.25L87.38 68.25Q87.38 68.25 87.44 68.38Q87.50 68.50 87.63 68.50L87.63 68.50Q88.13 68.63 88.56 68.75Q89 68.88 89.50 69L89.50 69Q90.13 69 90.75 69Q91.38 69 92 69L92 69Q92.63 69 93.31 68.94Q94 68.88 94.63 68.75L94.63 68.75Q96.13 68.50 97.56 68Q99 67.50 100.38 66.63L100.38 66.63Q100.75 66.38 101.25 66.06Q101.75 65.75 102.25 65.38L102.25 65.38L102.13 65.38Q101.63 65.38 101.13 65.50Q100.63 65.63 100.13 65.63L100.13 65.63Q99.13 65.75 98.13 65.88Q97.13 66 96 66L96 66Q95.50 66 95 65.94Q94.50 65.88 94 65.88L94 65.88Q93.25 65.75 92.44 65.56Q91.63 65.38 90.88 64.88L90.88 64.88Q90.50 64.63 90.13 64.63Q89.75 64.63 89.38 64.75L89.38 64.75ZM2.88 103.13L2.88 103.13Q3.63 103 4.69 102.94Q5.75 102.88 7.13 102.88L7.13 102.88Q8.88 102.88 10.06 103.25Q11.25 103.63 12.13 104.25L12.13 104.25Q12.88 104.88 13.25 105.81Q13.63 106.75 13.63 108L13.63 108Q13.63 109.13 13.25 110.06Q12.88 111 12.25 111.75L12.25 111.75Q11.38 112.63 10 113.13Q8.63 113.63 6.88 113.63L6.88 113.63Q6.38 113.63 5.94 113.63Q5.50 113.63 5.13 113.50L5.13 113.50L5.13 120.50L2.88 120.50L2.88 103.13ZM5.13 111.63L5.13 111.63Q5.50 111.75 5.94 111.81Q6.38 111.88 7 111.88L7 111.88Q9 111.88 10.19 110.88Q11.38 109.88 11.38 108.13L11.38 108.13Q11.38 106.38 10.25 105.50Q9.13 104.63 7.25 104.63L7.25 104.63Q6.50 104.63 5.94 104.69Q5.38 104.75 5.13 104.88L5.13 104.88L5.13 111.63ZM27.38 114.13L27.38 114.13Q27.38 117.63 25.38 119.19Q23.38 120.75 21 120.75L21 120.75Q18.50 120.75 16.75 119Q15 117.25 15 114.25L15 114.25Q15 111.13 16.81 109.38Q18.63 107.63 21.25 107.63L21.25 107.63Q24 107.63 25.69 109.44Q27.38 111.25 27.38 114.13L27.38 114.13ZM17.38 114.25L17.38 114.25Q17.38 116.25 18.44 117.69Q19.50 119.13 21.13 119.13L21.13 119.13Q22.75 119.13 23.88 117.69Q25 116.25 25 114.13L25 114.13Q25 112.63 24.13 111Q23.25 109.38 21.25 109.38L21.25 109.38Q19.25 109.38 18.31 110.94Q17.38 112.50 17.38 114.25ZM29.88 118.13L29.88 118.13Q30.38 118.50 31.19 118.81Q32 119.13 32.88 119.13L32.88 119.13Q34.13 119.13 34.75 118.56Q35.38 118 35.38 117.25L35.38 117.25Q35.38 116.38 34.81 115.88Q34.25 115.38 33 114.88L33 114.88Q31.38 114.25 30.56 113.38Q29.75 112.50 29.75 111.38L29.75 111.38Q29.75 109.75 30.88 108.69Q32 107.63 34 107.63L34 107.63Q35 107.63 35.81 107.88Q36.63 108.13 37.13 108.38L37.13 108.38L36.50 110.13Q36.25 109.88 35.56 109.63Q34.88 109.38 34 109.38L34 109.38Q33 109.38 32.44 109.88Q31.88 110.38 31.88 111L31.88 111Q31.88 111.88 32.44 112.31Q33 112.75 34.25 113.25L34.25 113.25Q35.88 113.88 36.75 114.75Q37.63 115.63 37.63 117L37.63 117Q37.63 118.63 36.38 119.69Q35.13 120.75 32.88 120.75L32.88 120.75Q31.88 120.75 30.94 120.50Q30 120.25 29.38 119.88L29.38 119.88L29.88 118.13ZM43.25 104.25L43.25 104.25L43.25 107.88L46.50 107.88L46.50 109.63L43.25 109.63L43.25 116.50Q43.25 117.63 43.63 118.25Q44 118.88 45 118.88L45 118.88Q45.38 118.88 45.75 118.81Q46.13 118.75 46.25 118.75L46.25 118.75L46.38 120.50Q46.13 120.63 45.56 120.69Q45 120.75 44.38 120.75L44.38 120.75Q43.63 120.75 43 120.50Q42.38 120.25 41.88 119.75L41.88 119.75Q41.38 119.25 41.19 118.44Q41 117.63 41 116.50L41 116.50L41 109.63L39.13 109.63L39.13 107.88L41 107.88L41 104.88L43.25 104.25ZM59.75 107.88L59.75 107.88Q59.75 108.63 59.75 109.44Q59.75 110.25 59.75 111.38L59.75 111.38L59.75 118.63Q59.75 120.88 59.31 122.25Q58.88 123.63 57.88 124.38L57.88 124.38Q57 125.25 55.75 125.56Q54.50 125.88 53.38 125.88L53.38 125.88Q52.25 125.88 51.06 125.63Q49.88 125.38 49.13 124.88L49.13 124.88L49.75 123.13Q50.38 123.50 51.31 123.81Q52.25 124.13 53.38 124.13L53.38 124.13Q55.13 124.13 56.31 123.13Q57.50 122.13 57.50 119.75L57.50 119.75L57.50 118.38L57.38 118.38Q56.88 119.25 55.88 119.88Q54.88 120.50 53.38 120.50L53.38 120.50Q51.13 120.50 49.56 118.69Q48 116.88 48 114.25L48 114.25Q48 111.13 49.75 109.38Q51.50 107.63 53.75 107.63L53.75 107.63Q55.38 107.63 56.31 108.31Q57.25 109 57.63 109.88L57.63 109.88L57.75 109.88L57.75 107.88L59.75 107.88ZM57.38 112.88L57.38 112.88Q57.38 112.63 57.38 112.38Q57.38 112.13 57.25 111.88L57.25 111.88Q57 110.88 56.19 110.13Q55.38 109.38 54.13 109.38L54.13 109.38Q52.50 109.38 51.44 110.69Q50.38 112 50.38 114.13L50.38 114.13Q50.38 116 51.31 117.38Q52.25 118.75 54.13 118.75L54.13 118.75Q55.13 118.75 56 118.13Q56.88 117.50 57.25 116.38L57.25 116.38Q57.38 116.13 57.38 115.75Q57.38 115.38 57.38 115.13L57.38 115.13L57.38 112.88ZM63.38 120.50L63.38 111.88Q63.38 110.75 63.31 109.75Q63.25 108.75 63.25 107.88L63.25 107.88L65.25 107.88L65.38 110.38L65.38 110.38Q65.88 109.13 66.81 108.38Q67.75 107.63 68.88 107.63L68.88 107.63Q69.13 107.63 69.25 107.63Q69.38 107.63 69.50 107.75L69.50 107.75L69.50 109.88Q69.38 109.88 69.19 109.81Q69 109.75 68.75 109.75L68.75 109.75Q67.50 109.75 66.69 110.63Q65.88 111.50 65.75 112.75L65.75 112.75Q65.63 113 65.63 113.25Q65.63 113.50 65.63 113.75L65.63 113.75L65.63 120.50L63.38 120.50ZM72.88 114.63L72.88 114.63Q72.88 117 74.19 118Q75.50 119 77.13 119L77.13 119Q78.38 119 79.19 118.81Q80 118.63 80.63 118.38L80.63 118.38L81 120Q80.50 120.25 79.44 120.50Q78.38 120.75 76.88 120.75L76.88 120.75Q74 120.75 72.31 119Q70.63 117.25 70.63 114.38L70.63 114.38Q70.63 111.63 72.25 109.63Q73.88 107.63 76.63 107.63L76.63 107.63Q79.63 107.63 80.69 109.75Q81.75 111.88 81.75 113.50L81.75 113.50Q81.75 113.88 81.75 114.19Q81.75 114.50 81.75 114.63L81.75 114.63L72.88 114.63ZM79.50 113L79.50 113Q79.63 111.88 79 110.56Q78.38 109.25 76.38 109.25L76.38 109.25Q74.63 109.25 73.81 110.50Q73 111.75 72.88 113L72.88 113L79.50 113ZM84.38 117.75L84.38 117.75Q85.13 118.25 86.19 118.56Q87.25 118.88 88.38 118.88L88.38 118.88Q90.13 118.88 91.13 118.06Q92.13 117.25 92.13 115.88L92.13 115.88Q92.13 114.63 91.38 113.88Q90.63 113.13 88.75 112.38L88.75 112.38Q86.63 111.63 85.38 110.44Q84.13 109.25 84.13 107.50L84.13 107.50Q84.13 105.38 85.69 104.06Q87.25 102.75 89.88 102.75L89.88 102.75Q91.13 102.75 92.13 103Q93.13 103.25 93.75 103.50L93.75 103.50L93.13 105.38Q92.63 105.13 91.81 104.81Q91 104.50 89.75 104.50L89.75 104.50Q88 104.50 87.25 105.38Q86.50 106.25 86.50 107.25L86.50 107.25Q86.50 108.38 87.31 109.13Q88.13 109.88 89.88 110.63L89.88 110.63Q92.13 111.38 93.25 112.56Q94.38 113.75 94.38 115.75L94.38 115.75Q94.38 117.75 92.88 119.25Q91.38 120.75 88.25 120.75L88.25 120.75Q87 120.75 85.75 120.44Q84.50 120.13 83.75 119.63L83.75 119.63L84.38 117.75ZM112 123.13L112 123.13Q110.13 122.63 108.44 122.13Q106.75 121.63 105.25 121L105.25 121Q105 121 104.69 120.88Q104.38 120.75 104.13 120.75L104.13 120.75Q101.13 120.63 98.81 118.38Q96.50 116.13 96.50 111.88L96.50 111.88Q96.50 107.75 98.81 105.25Q101.13 102.75 104.63 102.75L104.63 102.75Q108.25 102.75 110.38 105.19Q112.50 107.63 112.50 111.50L112.50 111.50Q112.50 114.88 111.06 117.06Q109.63 119.25 107.50 120L107.50 120L107.50 120Q108.75 120.38 110.13 120.69Q111.50 121 112.63 121.13L112.63 121.13L112 123.13ZM110.13 111.63L110.13 111.63Q110.13 109 108.75 106.75Q107.38 104.50 104.50 104.50L104.50 104.50Q101.63 104.50 100.25 106.75Q98.88 109 98.88 111.88L98.88 111.88Q98.88 114.63 100.31 116.81Q101.75 119 104.50 119L104.50 119Q107.13 119 108.63 116.81Q110.13 114.63 110.13 111.63L110.13 111.63ZM115.38 120.50L115.38 103L117.63 103L117.63 118.63L125.13 118.63L125.13 120.50L115.38 120.50Z"/></svg>