<svg xmlns="http://www.w3.org/2000/svg" xmlns:xlink="http://www.w3.org/1999/xlink" width="128" height="128"><path fill="#000000" d="M25.75 44L25.75 44Q25.75 44.13 25.75 44.13Q25.75 44.13 25.75 44.25L25.75 44.25Q25.75 44.25 25.75 44.31Q25.75 44.38 25.75 44.38L25.75 44.38Q25.75 45.13 25.56 45.38Q25.38 45.63 25.25 46.13L25.25 46.13Q25 46.63 25.06 47.25Q25.13 47.88 25.38 48.25L25.38 48.25Q25.38 48.38 25.44 48.44Q25.50 48.50 25.50 48.50L25.50 48.50Q25.25 46.38 26.38 45.69Q27.50 45 27.88 44.38L27.88 44.38Q27.88 43.75 27.50 43.38Q27.13 43 26.75 42.75L26.75 42.75Q26.38 42.63 26.06 42.50Q25.75 42.38 25.50 42.38L25.50 42.38Q25.25 42.38 25.06 42.44Q24.88 42.50 24.63 42.63L24.63 42.63Q25 42.88 25.25 43.25Q25.50 43.63 25.75 44L25.75 44ZM37.25 51L37.25 51Q37.25 51 37.25 51Q37.25 51 37.25 51L37.25 51Q37.25 51 37.25 51Q37.25 51 37.25 51L37.25 51Q37.25 51.13 37.25 51.25Q37.25 51.38 37.25 51.38L37.25 51.38Q37.25 51.63 37.19 51.81Q37.13 52 37.13 52.13L37.13 52.13Q37 52.25 37 52.44Q37 52.63 36.88 52.75L36.88 52.75Q36.88 53 36.75 53.19Q36.63 53.38 36.63 53.50L36.63 53.50Q36.50 53.63 36.44 53.81Q36.38 54 36.25 54.25L36.25 54.25Q36.25 54.38 36.13 54.50Q36 54.63 35.88 54.75L35.88 54.75Q35.88 55 35.69 55.13Q35.50 55.25 35.38 55.38L35.38 55.38Q35.25 55.50 35.13 55.69Q35 55.88 34.88 56L34.88 56Q34.88 56.13 34.75 56.19Q34.63 56.25 34.63 56.25L34.63 56.25Q34.50 56.38 34.44 56.38Q34.38 56.38 34.25 56.50L34.25 56.50Q34.13 56.63 34 56.75Q33.88 56.88 33.75 56.88L33.75 56.88Q33.50 57 33.38 57.13Q33.25 57.25 33 57.25L33 57.25Q32.88 57.38 32.69 57.44Q32.50 57.50 32.25 57.63L32.25 57.63Q32.13 57.63 31.94 57.69Q31.75 57.75 31.63 57.75L31.63 57.75Q31.50 57.88 31.25 57.88Q31 57.88 30.88 58L30.88 58Q30.63 58 30.50 58.06Q30.38 58.13 30.13 58.13L30.13 58.13Q30 58.13 29.81 58.13Q29.63 58.13 29.63 58.13L29.63 58.13Q29.38 58.13 29.19 58.13Q29 58.13 28.75 58.13L28.75 58.13Q28.63 58.13 28.44 58.06Q28.25 58 28 58L28 58Q27.75 58 27.63 57.94Q27.50 57.88 27.25 57.75L27.25 57.75L27.25 57.75Q27.50 57.75 27.69 57.75Q27.88 57.75 28 57.75L28 57.75Q28.25 57.75 28.38 57.69Q28.50 57.63 28.75 57.50L28.75 57.50Q28.88 57.38 29.06 57.38Q29.25 57.38 29.38 57.25L29.38 57.25Q29.50 57.25 29.75 57.19Q30 57.13 30.13 57L30.13 57Q30.25 56.88 30.44 56.81Q30.63 56.75 30.75 56.63L30.75 56.63Q31 56.50 31.13 56.38Q31.25 56.25 31.38 56.25L31.38 56.25Q31.50 56 31.69 55.94Q31.88 55.88 32 55.75L32 55.75Q32.13 55.50 32.25 55.38Q32.38 55.25 32.50 55.25L32.50 55.25Q32.63 55 32.75 54.88Q32.88 54.75 33 54.63L33 54.63Q33 54.63 33 54.56Q33 54.50 33.13 54.50L33.13 54.50Q33.13 54.38 33.25 54.25Q33.38 54.13 33.38 54L33.38 54Q33.50 53.88 33.56 53.69Q33.63 53.50 33.75 53.25L33.75 53.25Q33.75 53.13 33.81 52.94Q33.88 52.75 34 52.63L34 52.63Q34.13 52.50 34.13 52.25Q34.13 52 34.25 51.88L34.25 51.88Q34.25 51.63 34.25 51.50Q34.25 51.38 34.25 51.25L34.25 51.25Q34.25 51 34.25 50.81Q34.25 50.63 34.25 50.38L34.25 50.38Q34.25 50.25 34.25 50.13Q34.25 50 34.25 49.88L34.25 49.88Q34.25 49.63 34.25 49.50Q34.25 49.38 34.25 49.25L34.25 49.25Q34.25 49 34.19 48.81Q34.13 48.63 34 48.50L34 48.50Q33.88 48.38 33.81 48.19Q33.75 48 33.75 47.75L33.75 47.75Q33.75 47.63 33.69 47.44Q33.63 47.25 33.50 47.13L33.50 47.13Q33.38 47 33.31 46.81Q33.25 46.63 33.13 46.38L33.13 46.38Q33 46.25 32.88 46.13Q32.75 46 32.75 45.75L32.75 45.75Q32.50 45.63 32.44 45.50Q32.38 45.38 32.25 45.25L32.25 45.25Q32.13 45.13 32.06 45.06Q32 45 31.88 44.88L31.88 44.88Q31.50 44.63 31.13 44.31Q30.75 44 30.25 43.75L30.25 43.75Q30.25 43.75 30.19 43.75Q30.13 43.75 30.13 43.75L30.13 43.75Q29.75 43.50 29.50 43.38Q29.25 43.25 29 43.25L29 43.25L29 43.25Q29 43.38 29 43.38Q29 43.38 29 43.50L29 43.50Q29 43.63 29 43.69Q29 43.75 29 43.75L29 43.75Q29 43.88 29 43.94Q29 44 28.88 44.13L28.88 44.13Q28.88 44.13 28.81 44.25Q28.75 44.38 28.75 44.38L28.75 44.38Q28.75 44.50 28.75 44.56Q28.75 44.63 28.75 44.75L28.75 44.75Q28.75 44.75 28.69 44.75Q28.63 44.75 28.63 44.75L28.63 44.75Q28.63 44.75 28.63 44.81Q28.63 44.88 28.50 44.88L28.50 44.88Q28.38 44.88 28.38 45Q28.38 45.13 28.25 45.13L28.25 45.13Q28.25 45.13 28.19 45.19Q28.13 45.25 28.13 45.25L28.13 45.25L28.13 45.25Q28 45.38 28 45.38Q28 45.38 27.88 45.50L27.88 45.50Q27.75 45.63 27.56 45.75Q27.38 45.88 27.25 46L27.25 46Q27.13 46.13 27.06 46.13Q27 46.13 27 46.25L27 46.25Q26.88 46.25 26.88 46.31Q26.88 46.38 26.75 46.38L26.75 46.38Q26.75 46.50 26.69 46.50Q26.63 46.50 26.63 46.63L26.63 46.63Q26.50 46.63 26.50 46.69Q26.50 46.75 26.38 46.75L26.38 46.75Q26.38 46.88 26.31 46.94Q26.25 47 26.25 47L26.25 47Q26.25 47.13 26.19 47.19Q26.13 47.25 26.13 47.25L26.13 47.25Q26.13 47.38 26.06 47.44Q26 47.50 26 47.63L26 47.63Q26 47.63 25.94 47.75Q25.88 47.88 25.88 47.88L25.88 47.88Q25.88 47.88 25.88 47.94Q25.88 48 25.88 48L25.88 48Q25.88 48 25.88 48.06Q25.88 48.13 25.88 48.13L25.88 48.13Q25.88 48.13 25.88 48.25Q25.88 48.38 25.88 48.38L25.88 48.38Q25.88 48.50 25.88 48.50Q25.88 48.50 25.88 48.63L25.88 48.63Q25.88 48.63 25.88 48.75Q25.88 48.88 25.88 48.88L25.88 48.88Q25.88 49 25.88 49.06Q25.88 49.13 26 49.25L26 49.25Q26 49.25 26.06 49.31Q26.13 49.38 26.13 49.50L26.13 49.50Q26.13 49.63 26.19 49.63Q26.25 49.63 26.25 49.75L26.25 49.75L23.63 48.75Q23.25 48.63 22.94 48.56Q22.63 48.50 22.25 48.38L22.25 48.38Q22.13 48.38 21.94 48.31Q21.75 48.25 21.63 48.25L21.63 48.25Q21.13 48.13 20.56 48.06Q20 48 19.63 47.88L19.63 47.88Q19.63 47.88 19.63 47.88Q19.63 47.88 19.50 47.88L19.50 47.88Q19 47.88 18.50 47.81Q18 47.75 17.50 47.75L17.50 47.75Q17.13 47.75 16.75 47.81Q16.38 47.88 16 47.88L16 47.88Q15.50 47.88 15 47.94Q14.50 48 14 48.13L14 48.13Q13.88 48.13 13.75 48.19Q13.63 48.25 13.50 48.25L13.50 48.25Q13.25 48.25 13 48.31Q12.75 48.38 12.50 48.38L12.50 48.38Q12.38 48.38 12.25 48.44Q12.13 48.50 12 48.50L12 48.50Q11.88 48.63 11.75 48.63Q11.63 48.63 11.50 48.75L11.50 48.75Q11.38 48.75 11.31 48.81Q11.25 48.88 11.13 48.88L11.13 48.88Q11.13 48.88 11.13 48.88Q11.13 48.88 11 48.88L11 48.88Q10.88 49 10.81 49Q10.75 49 10.75 49.13L10.75 49.13Q10.75 49.13 10.69 49.13Q10.63 49.13 10.63 49.13L10.63 49.13Q10.50 49.13 10.44 49.19Q10.38 49.25 10.25 49.25L10.25 49.25Q10.25 49.25 10.19 49.31Q10.13 49.38 10.13 49.38L10.13 49.38Q10.13 49.38 10.06 49.38Q10 49.38 10 49.50L10 49.50Q10 49.63 9.88 49.63Q9.75 49.63 9.75 49.75L9.75 49.75Q9.63 49.75 9.56 49.81Q9.50 49.88 9.38 49.88L9.38 49.88Q9.38 50 9.31 50Q9.25 50 9.25 50.13L9.25 50.13Q9.25 50.13 9.25 50.13Q9.25 50.13 9.25 50.13L9.25 50.13Q9.13 50.13 9.13 50.19Q9.13 50.25 9 50.25L9 50.25Q9 50.25 9 50.25Q9 50.25 9 50.25L9 50.25Q8.88 50.25 8.88 50.31Q8.88 50.38 8.75 50.38L8.75 50.38Q8.75 50.38 8.75 50.38Q8.75 50.38 8.75 50.38L8.75 50.38Q8.63 50.38 8.63 50.44Q8.63 50.50 8.50 50.50L8.50 50.50Q8.50 50.50 8.50 50.50Q8.50 50.50 8.50 50.50L8.50 50.50Q8.38 50.63 8.38 50.63Q8.38 50.63 8.25 50.75L8.25 50.75Q8.25 50.75 8.25 50.75Q8.25 50.75 8.25 50.75L8.25 50.75Q8.25 50.75 8.19 50.81Q8.13 50.88 8.13 50.88L8.13 50.88Q8.13 50.88 8.13 50.88Q8.13 50.88 8.13 50.88L8.13 50.88Q8 50.75 8 50.75Q8 50.75 7.88 50.75L7.88 50.75Q7.88 50.75 7.81 50.81Q7.75 50.88 7.75 50.88L7.75 50.88Q7.75 51 7.69 51Q7.63 51 7.63 51.13L7.63 51.13Q7.63 51.13 7.63 51.13Q7.63 51.13 7.63 51.25L7.63 51.25Q7.50 51.25 7.44 51.31Q7.38 51.38 7.25 51.50L7.25 51.50Q7.25 51.50 7.25 51.50Q7.25 51.50 7.25 51.50L7.25 51.50Q7.13 51.63 7 51.75Q6.88 51.88 6.75 52L6.75 52Q6.50 52.13 6.38 52.25Q6.25 52.38 6.13 52.50L6.13 52.50Q6 52.63 5.81 52.75Q5.63 52.88 5.38 52.88L5.38 52.88Q5.25 53 5.06 53.06Q4.88 53.13 4.75 53.25L4.75 53.25Q4.50 53.25 4.31 53.31Q4.13 53.38 4 53.50L4 53.50Q3.63 53.63 3.25 53.69Q2.88 53.75 2.63 53.75L2.63 53.75Q2.50 53.75 2.44 53.75Q2.38 53.75 2.25 53.75L2.25 53.75Q2.25 53.75 2.19 53.81Q2.13 53.88 2 53.88L2 53.88Q2 54 1.94 54Q1.88 54 1.75 54L1.75 54Q1.75 54 1.69 54.06Q1.63 54.13 1.50 54.13L1.50 54.13Q1.38 54.13 1.31 54.19Q1.25 54.25 1.25 54.25L1.25 54.25Q1.25 54.38 1.19 54.38Q1.13 54.38 1.13 54.50L1.13 54.50Q1 54.63 0.94 54.63Q0.88 54.63 0.88 54.75L0.88 54.75Q0.88 54.75 0.81 54.81Q0.75 54.88 0.75 54.88L0.75 54.88Q0.63 55 0.63 55.06Q0.63 55.13 0.50 55.25L0.50 55.25Q0.38 55.25 0.38 55.31Q0.38 55.38 0.25 55.50L0.25 55.50Q0.25 55.63 0.25 55.69Q0.25 55.75 0.25 55.75L0.25 55.75Q0.25 55.88 0.19 55.94Q0.13 56 0.13 56.13L0.13 56.13Q0.13 56.13 0.13 56.25Q0.13 56.38 0 56.38L0 56.38Q0 56.38 0 56.38Q0 56.38 0 56.38L0 56.38Q0 56.50 0 56.56Q0 56.63 0 56.75L0 56.75Q0 56.75 0 56.81Q0 56.88 0 56.88L0 56.88Q0 56.88 0 56.94Q0 57 0 57L0 57Q0 57.13 0 57.13Q0 57.13 0 57.25L0 57.25Q0 57.25 0 57.31Q0 57.38 0.13 57.38L0.13 57.38L0.13 57.38Q0.13 57.50 0.19 57.50Q0.25 57.50 0.25 57.63L0.25 57.63Q0.25 57.63 0.25 57.69Q0.25 57.75 0.25 57.75L0.25 57.75Q0.25 57.88 0.31 57.88Q0.38 57.88 0.50 58L0.50 58Q0.63 58.13 0.63 58.13Q0.63 58.13 0.75 58.25L0.75 58.25Q0.88 58.38 1 58.44Q1.13 58.50 1.38 58.75L1.38 58.75Q1.50 58.75 1.50 58.75Q1.50 58.75 1.63 58.75L1.63 58.75Q1.63 58.75 1.63 58.75Q1.63 58.75 1.63 58.75L1.63 58.75Q1.63 58.75 1.63 58.81Q1.63 58.88 1.63 58.88L1.63 58.88Q1.63 59 1.63 59.06Q1.63 59.13 1.75 59.25L1.75 59.25Q1.75 59.25 1.75 59.31Q1.75 59.38 1.75 59.50L1.75 59.50Q1.75 59.63 1.81 59.63Q1.88 59.63 1.88 59.75L1.88 59.75Q1.88 59.75 1.88 59.75Q1.88 59.75 1.88 59.75L1.88 59.75Q1.88 59.88 1.94 59.94Q2 60 2 60L2 60Q2 60 2.06 60.13Q2.13 60.25 2.25 60.25L2.25 60.25Q2.25 60.25 2.31 60.31Q2.38 60.38 2.38 60.38L2.38 60.38Q2.50 60.50 2.50 60.50Q2.50 60.50 2.63 60.63L2.63 60.63Q2.63 60.63 2.63 60.63Q2.63 60.63 2.63 60.63L2.63 60.63Q2.63 60.63 2.69 60.69Q2.75 60.75 2.75 60.75L2.75 60.75Q2.88 60.88 2.94 60.88Q3 60.88 3 60.88L3 60.88Q3 60.88 3.13 60.94Q3.25 61 3.25 61L3.25 61Q3.50 61 3.56 61Q3.63 61 3.63 61L3.63 61Q3.63 61 3.63 61Q3.63 61 3.63 61L3.63 61Q3.63 61 3.69 61Q3.75 61 3.75 61L3.75 61Q3.75 61.50 3.75 61.88Q3.75 62.25 3.75 62.38L3.75 62.38Q3.88 62.63 4.25 62.19Q4.63 61.75 5 61.25L5 61.25Q4.88 61.75 4.88 62.38Q4.88 63 5 63.13L5 63.13Q5.13 63.38 5.56 62.81Q6 62.25 6.38 61.50L6.38 61.50Q12.38 60.13 17.06 63.56Q21.75 67 22.25 72.88L22.25 72.88Q22.25 72 21.38 71.50Q20.50 71 20 71.25L20 71.25Q19.75 71.75 19.31 72.50Q18.88 73.25 18.25 73.75L18.25 73.75Q18.25 73.13 18.19 72.56Q18.13 72 18.13 71.50L18.13 71.50Q18 72.25 17.63 73Q17.25 73.75 16.75 74.25L16.75 74.25Q15.88 74.38 15.19 74.06Q14.50 73.75 14 73.13L14 73.13Q14 73.13 13.94 73.06Q13.88 73 13.88 73L13.88 73Q13.88 72.88 13.81 72.81Q13.75 72.75 13.75 72.75L13.75 72.75Q13.75 72.75 13.75 72.69Q13.75 72.63 13.75 72.63L13.75 72.63Q13.75 72.50 13.75 72.44Q13.75 72.38 13.75 72.38L13.75 72.38Q13.75 72.38 13.75 72.31Q13.75 72.25 13.75 72.25L13.75 72.25Q13.75 72.13 13.75 72.06Q13.75 72 13.75 72L13.75 72Q13.75 71.88 13.81 71.81Q13.88 71.75 13.88 71.75L13.88 71.75Q13.88 71.75 13.94 71.69Q14 71.63 14 71.63L14 71.63Q14.13 71.25 14.13 70.88Q14.13 70.50 13.75 70.38L13.75 70.38Q13.75 70.38 13.69 70.31Q13.63 70.25 13.63 70.25L13.63 70.25Q13.63 70.25 13.56 70.25Q13.50 70.25 13.50 70.25L13.50 70.25Q13.50 70.25 13.44 70.25Q13.38 70.25 13.38 70.25L13.38 70.25Q13.38 70.25 13.31 70.25Q13.25 70.25 13.25 70.25L13.25 70.25Q13.13 70.25 13.06 70.25Q13 70.25 13 70.25L13 70.25Q12.88 70.25 12.81 70.25Q12.75 70.25 12.75 70.25L12.75 70.25Q12.75 70.25 12.69 70.25Q12.63 70.25 12.63 70.25L12.63 70.25Q12.50 70.25 12.44 70.25Q12.38 70.25 12.38 70.25L12.38 70.25Q12.38 70.25 12.31 70.25Q12.25 70.25 12.25 70.25L12.25 70.25Q12.25 70.25 12.13 70.25Q12 70.25 12 70.25L12 70.25Q11.88 70.25 11.88 70.31Q11.88 70.38 11.75 70.38L11.75 70.38Q11.75 70.38 11.69 70.44Q11.63 70.50 11.63 70.50L11.63 70.50Q9.38 71.63 10.06 73.94Q10.75 76.25 12 77.13L12 77.13Q11.50 77.13 11.06 77.25Q10.63 77.38 10.50 77.50L10.50 77.50Q10.50 77.50 10.50 77.50Q10.50 77.50 10.50 77.50L10.50 77.50Q10.88 77.75 11.25 77.88Q11.63 78 12 78.25L12 78.25Q12.50 78.38 13.06 78.50Q13.63 78.63 13.75 78.75L13.75 78.75L13.75 78.75Q14.50 78.88 15.19 78.94Q15.88 79 16.63 78.88L16.63 78.88Q20.38 78.63 23.06 76.06Q25.75 73.50 26.38 69.75L26.38 69.75Q26.38 69.88 26.38 69.94Q26.38 70 26.50 70.13L26.50 70.13Q26.50 70.25 26.56 70.38Q26.63 70.50 26.63 70.75L26.63 70.75L26.63 70.75Q26.63 70.75 26.63 70.81Q26.63 70.88 26.63 71L26.63 71L26.63 71Q26.63 71.13 26.63 71.19Q26.63 71.25 26.63 71.25L26.63 71.25Q26.63 71.38 26.63 71.44Q26.63 71.50 26.63 71.75L26.63 71.75L26.63 71.88Q26.63 72 26.63 72Q26.63 72 26.63 72.13L26.63 72.13Q26.63 72.13 26.63 72.19Q26.63 72.25 26.63 72.25L26.63 72.25L26.63 72.50Q26.63 72.63 26.63 72.63Q26.63 72.63 26.63 72.75L26.63 72.75Q26.63 72.75 26.63 72.75Q26.63 72.75 26.63 72.75L26.63 72.75Q26.63 72.88 26.63 72.94Q26.63 73 26.63 73L26.63 73Q26.63 73 26.63 73.06Q26.63 73.13 26.63 73.13L26.63 73.13Q26.63 73.13 26.63 73.25Q26.63 73.38 26.63 73.38L26.63 73.38Q26.63 73.38 26.63 73.44Q26.63 73.50 26.63 73.50L26.63 73.50Q26.63 73.63 26.63 73.69Q26.63 73.75 26.63 73.75L26.63 73.75L26.63 73.75L26.63 73.75Q26.63 73.88 26.63 73.94Q26.63 74 26.50 74.13L26.50 74.13L26.50 74.13Q26.50 74.13 26.50 74.25Q26.50 74.38 26.38 74.38L26.38 74.38Q26.38 74.38 26.38 74.38Q26.38 74.38 26.38 74.38L26.38 74.38Q26.38 74.50 26.38 74.56Q26.38 74.63 26.25 74.75L26.25 74.75L26.25 74.75Q26.25 74.75 26.25 74.81Q26.25 74.88 26.25 75L26.25 75Q26.25 75 26.25 75Q26.25 75 26.25 75L26.25 75Q26.25 75.13 26.19 75.19Q26.13 75.25 26.13 75.25L26.13 75.25Q26.13 75.38 26.06 75.44Q26 75.50 26 75.63L26 75.63Q26 75.63 25.94 75.75Q25.88 75.88 25.88 75.88L25.88 75.88Q25.88 76 25.81 76.06Q25.75 76.13 25.75 76.25L25.75 76.25L25.75 76.25Q25.75 76.25 25.75 76.31Q25.75 76.38 25.75 76.50L25.75 76.50Q25.75 76.50 25.75 76.56Q25.75 76.63 25.75 76.63L25.75 76.63Q25.75 76.63 25.75 76.63Q25.75 76.63 25.75 76.63L25.75 76.63Q25.13 77.75 24.38 78.69Q23.63 79.63 22.63 80.38L22.63 80.38Q22.50 80.50 22.44 80.50Q22.38 80.50 22.25 80.63L22.25 80.63Q22.25 80.63 22.25 80.63Q22.25 80.63 22.25 80.75L22.25 80.75Q22.13 80.75 22.06 80.81Q22 80.88 22 80.88L22 80.88L22 81Q22.13 81 22.25 81Q22.38 81 22.50 80.88L22.50 80.88L22.50 80.88Q22.75 80.88 22.94 80.81Q23.13 80.75 23.38 80.75L23.38 80.75Q23.50 80.75 23.56 80.69Q23.63 80.63 23.63 80.63L23.63 80.63Q23.63 80.63 23.69 80.63Q23.75 80.63 23.75 80.63L23.75 80.63Q23.88 80.63 23.94 80.63Q24 80.63 24 80.63L24 80.63Q24 80.63 24.06 80.63Q24.13 80.63 24.25 80.50L24.25 80.50Q25 80.25 25.81 80Q26.63 79.75 27.38 79.38L27.38 79.38Q26 81.25 24.25 82.69Q22.50 84.13 20.50 85.13L20.50 85.13Q21.50 85 22.44 84.88Q23.38 84.75 24.25 84.38L24.25 84.38Q27.63 83.38 30.38 81.19Q33.13 79 34.88 76L34.88 76Q34.50 78 33.75 79.75Q33 81.50 31.88 83.25L31.88 83.25Q32.75 82.63 33.50 82.06Q34.25 81.50 34.88 80.75L34.88 80.75Q36.75 78.75 37.94 76.31Q39.13 73.88 39.63 71.25L39.63 71.25Q39.88 72.50 39.94 73.88Q40 75.25 39.88 76.63L39.88 76.63Q45.75 68.50 42.63 60.94Q39.50 53.38 37.25 51L37.25 51Q37.25 51 37.25 51Q37.25 51 37.25 51L37.25 51ZM75.25 71L75.25 71Q75.50 63.25 75.13 61.50Q74.75 59.75 74.75 59.75L74.75 59.75Q71.38 54.38 67.13 57.06Q62.88 59.75 62.88 59.75L62.88 59.75L62.88 55.63L61.75 55.63Q60.63 57.63 58.31 58.19Q56 58.75 56 58.75L56 58.75L56 59.88Q58.13 60.38 58.31 61.06Q58.50 61.75 58.50 61.75L58.50 61.75Q58.50 61.75 58.56 65.38Q58.63 69 58.63 70.63L58.63 70.63Q58.63 72.13 58.25 72.19Q57.88 72.25 57.88 72.25L57.88 72.25L56 72.75L56 73.88Q57.50 73.50 61.31 73.69Q65.13 73.88 65.13 73.88L65.13 73.88L65.25 72.75Q63.63 72.50 63.25 71.81Q62.88 71.13 62.88 71.13L62.88 71.13L62.88 61.25Q64.38 59.88 65.50 59.38Q66.63 58.88 66.63 58.88L66.63 58.88Q69.38 58.25 70 59.94Q70.63 61.63 70.63 61.63L70.63 61.63L70.75 70.75Q71.25 72.50 69.56 72.63Q67.88 72.75 67.88 72.75L67.88 72.75L68 73.88L73.50 73.50L77.25 73.88L77.25 72.75Q75.88 72.50 75.56 72.25Q75.25 72 75.25 71L75.25 71ZM88.25 56.25L88.25 56.25Q82.25 56.25 81 59.81Q79.75 63.38 79.75 63.38L79.75 63.38Q79.75 63.38 80.31 68.81Q80.88 74.25 88.25 74.25L88.25 74.25Q92.88 74.25 94.63 72.50Q96.38 70.75 96.38 70.75L96.38 70.75L95.25 69.63Q95.25 69.63 90.38 71.38Q85.50 73.13 84.63 63.50L84.63 63.50L96.50 63.50Q96.38 63.38 95.31 59.81Q94.25 56.25 88.25 56.25L88.25 56.25ZM91.88 61.25L91.88 62.13L84.50 62.13L84.50 61.63Q84.50 60 85.63 58.88Q86.75 57.75 88.38 57.75L88.38 57.75Q89.88 57.75 90.88 58.75Q91.88 59.75 91.88 61.25L91.88 61.25ZM109.38 63.75L109.38 63.75Q107.38 63.38 106.13 62.94Q104.88 62.50 104.88 62.50L104.88 62.50Q104.88 62.50 103.25 61.31Q101.63 60.13 104.38 58.25L104.38 58.25Q107.50 56.75 109.19 59.50Q110.88 62.25 110.88 62.25L110.88 62.25Q110.88 62.25 111.44 62.25Q112 62.25 112.38 61.88L112.38 61.88Q112.50 61.50 112.19 59.63Q111.88 57.75 111.88 57.75L111.88 57.75Q111.88 57.75 110.44 57Q109 56.25 104.13 56.63L104.13 56.63Q104.13 56.63 102.31 57.44Q100.50 58.25 100 60.75L100 60.75Q99.50 63.13 100.50 64.44Q101.50 65.75 101.50 65.75L101.50 65.75Q101.50 65.75 102.31 66.44Q103.13 67.13 105.50 67.38L105.50 67.38Q107.50 67.63 108.44 68.19Q109.38 68.75 109.38 68.75L109.38 68.75Q109.38 68.75 109.88 69.63Q110.38 70.50 109.25 71.75L109.25 71.75Q108.13 72.88 106.94 72.81Q105.75 72.75 105.75 72.75L105.75 72.75Q105.75 72.75 104.31 72.19Q102.88 71.63 100.75 68.13L100.75 68.13L99.50 68.25L100 72.88Q100 72.88 103.81 74.25Q107.63 75.63 111.25 72.88L111.25 72.88Q115 69.50 113.19 66.81Q111.38 64.13 109.38 63.75L109.38 63.75ZM127.13 70.63L127.13 70.63Q124.75 72.50 124.06 71.31Q123.38 70.13 123.38 70.13L123.38 70.13L123.38 59.50L127.63 59.50L127.63 57.50L123.63 57.50L123.63 53.25L122.25 53.25Q121 56 118.75 57.13Q116.50 58.25 116.50 58.25L116.50 58.25Q116.50 58.25 116.50 58.50Q116.50 58.75 116.50 59.13L116.50 59.13Q116.50 59.50 116.69 59.56Q116.88 59.63 116.88 59.63L116.88 59.63L118.88 59.63Q118.88 59.63 118.81 63.81Q118.75 68 118.75 70L118.75 70Q118.88 72 119.81 72.75Q120.75 73.50 120.75 73.50L120.75 73.50Q120.75 73.50 121.69 73.81Q122.63 74.13 124.25 74L124.25 74Q125.75 73.88 126.75 72.81Q127.75 71.75 127.75 71.75L127.75 71.75L127.13 70.63Z"/></svg>