<svg xmlns="http://www.w3.org/2000/svg" xmlns:xlink="http://www.w3.org/1999/xlink" width="128" height="128"><path fill="#000000" d="M75.38 0.25L75.38 0.25Q74.75 0.25 74.06 0.44Q73.38 0.63 72.75 0.75L72.75 0.75Q74.13 1.63 74.81 2.75Q75.50 3.88 75.88 5.13L75.88 5.13Q75.88 5.25 75.94 5.38Q76 5.50 76 5.75L76 5.75Q76 5.88 76.06 6Q76.13 6.13 76.13 6.25L76.13 6.25Q76.13 8.50 75.63 9.25Q75.13 10 74.75 11.25L74.75 11.25Q74 13 74.13 14.69Q74.25 16.38 75.25 17.75L75.25 17.75Q75.25 18 75.38 18.19Q75.50 18.38 75.63 18.50L75.63 18.50Q74.63 12.25 78.13 10.25Q81.63 8.25 82.63 6.25L82.63 6.25Q82.63 4.63 81.50 3.44Q80.38 2.25 79.25 1.38L79.25 1.38Q78.13 0.75 77.19 0.50Q76.25 0.25 75.38 0.25L75.38 0.25L75.38 0.25ZM85.88 2.13L85.88 2.13Q85.88 2.75 85.88 2.75Q85.88 2.75 85.75 3.13L85.75 3.13Q85.75 3.38 85.75 3.56Q85.75 3.75 85.75 4L85.75 4Q85.63 4.25 85.63 4.44Q85.63 4.63 85.50 4.75L85.50 4.75Q85.38 5 85.31 5.19Q85.25 5.38 85.25 5.63L85.25 5.63Q85.13 5.75 85.06 5.94Q85 6.13 84.88 6.25L84.88 6.25Q84.88 6.38 84.75 6.50Q84.63 6.63 84.63 6.75L84.63 6.75Q84.50 6.75 84.50 6.81Q84.50 6.88 84.38 7L84.38 7Q84.25 7.13 84.13 7.31Q84 7.50 83.88 7.75L83.88 7.75Q83.75 7.88 83.63 8Q83.50 8.13 83.25 8.25L83.25 8.25L83.25 8.25Q83.13 8.50 83 8.63Q82.88 8.75 82.75 8.75L82.75 8.75Q82.13 9.13 81.56 9.50Q81 9.88 80.50 10.25L80.50 10.25Q80.38 10.38 80.19 10.44Q80 10.50 79.75 10.75L79.75 10.75Q79.63 10.88 79.50 10.94Q79.38 11 79.25 11.25L79.25 11.25Q79 11.38 78.88 11.50Q78.75 11.63 78.63 11.75L78.63 11.75Q78.50 12 78.31 12.13Q78.13 12.25 78.13 12.50L78.13 12.50Q78 12.63 77.88 12.81Q77.75 13 77.63 13.25L77.63 13.25Q77.50 13.38 77.44 13.56Q77.38 13.75 77.25 14L77.25 14Q77.13 14.25 77.06 14.44Q77 14.63 76.88 14.75L76.88 14.75Q76.88 15 76.81 15.25Q76.75 15.50 76.75 15.63L76.75 15.63Q76.75 15.63 76.69 15.75Q76.63 15.88 76.63 16L76.63 16Q76.63 16.13 76.63 16.25Q76.63 16.38 76.50 16.38L76.50 16.38Q76.50 16.63 76.50 16.81Q76.50 17 76.50 17.25L76.50 17.25Q76.50 17.38 76.50 17.50Q76.50 17.63 76.50 17.75L76.50 17.75Q76.50 18 76.50 18.19Q76.50 18.38 76.63 18.63L76.63 18.63Q76.63 18.88 76.69 19Q76.75 19.13 76.75 19.38L76.75 19.38Q76.88 19.63 76.94 19.81Q77 20 77.13 20.25L77.13 20.25Q77.13 20.38 77.19 20.44Q77.25 20.50 77.25 20.75L77.25 20.75L69.75 17.75Q68.75 17.50 67.81 17.25Q66.88 17 65.88 16.75L65.88 16.75Q65.38 16.63 64.88 16.56Q64.38 16.50 63.75 16.25L63.75 16.25Q62.25 16 60.75 15.75Q59.25 15.50 57.75 15.38L57.75 15.38Q57.75 15.38 57.69 15.38Q57.63 15.38 57.63 15.38L57.63 15.38Q56.13 15.25 54.69 15.19Q53.25 15.13 51.75 15.13L51.75 15.13Q50.63 15.13 49.56 15.19Q48.50 15.25 47.38 15.25L47.38 15.25Q45.88 15.38 44.38 15.56Q42.88 15.75 41.38 16L41.38 16Q41 16.13 40.63 16.19Q40.25 16.25 39.88 16.25L39.88 16.25Q39.13 16.50 38.38 16.63Q37.63 16.75 36.88 17L36.88 17Q36.50 17.13 36.13 17.25Q35.75 17.38 35.38 17.38L35.38 17.38Q35 17.50 34.63 17.69Q34.25 17.88 34 18L34 18Q33.75 18.13 33.50 18.25Q33.25 18.38 32.88 18.50L32.88 18.50Q32.88 18.50 32.81 18.50Q32.75 18.50 32.75 18.63L32.75 18.63Q32.50 18.75 32.25 18.88Q32 19 31.75 19.13L31.75 19.13Q31.75 19.13 31.69 19.19Q31.63 19.25 31.63 19.25L31.63 19.25Q31.25 19.38 31.06 19.50Q30.88 19.63 30.63 19.75L30.63 19.75Q30.50 19.75 30.25 19.81Q30 19.88 29.88 20L29.88 20Q29.88 20.13 29.75 20.13Q29.63 20.13 29.63 20.25L29.63 20.25Q29.38 20.38 29.13 20.44Q28.88 20.50 28.75 20.75L28.75 20.75Q28.50 20.88 28.25 20.94Q28 21 27.88 21.25L27.88 21.25Q27.75 21.38 27.56 21.44Q27.38 21.50 27.25 21.75L27.25 21.75Q27.25 21.75 27.19 21.75Q27.13 21.75 27.13 21.75L27.13 21.75Q27 21.88 26.81 22Q26.63 22.13 26.50 22.25L26.50 22.25Q26.50 22.25 26.50 22.31Q26.50 22.38 26.38 22.38L26.38 22.38Q26.25 22.50 26.13 22.63Q26 22.75 25.88 22.75L25.88 22.75Q25.88 22.75 25.81 22.81Q25.75 22.88 25.75 22.88L25.75 22.88Q25.50 23 25.44 23.13Q25.38 23.25 25.25 23.25L25.25 23.25Q25.25 23.38 25.19 23.38Q25.13 23.38 25.13 23.38L25.13 23.38Q25 23.50 24.81 23.69Q24.63 23.88 24.50 24L24.50 24Q24.50 24 24.50 24Q24.50 24 24.38 24.13L24.38 24.13Q24.25 24.25 24.13 24.38Q24 24.50 23.75 24.75L23.75 24.75Q23.75 24.75 23.75 24.75Q23.75 24.75 23.75 24.75L23.75 24.75Q23.50 25 23.44 25.06Q23.38 25.13 23.25 25.25L23.25 25.25Q23.13 25.38 23.06 25.38Q23 25.38 23 25.50L23 25.50Q22.88 25.63 22.69 25.81Q22.50 26 22.38 26.13L22.38 26.13Q22.38 26.13 22.31 26.19Q22.25 26.25 22.25 26.25L22.25 26.25Q22.13 26.50 21.94 26.69Q21.75 26.88 21.50 27.13L21.50 27.13Q21.50 27.13 21.44 27.19Q21.38 27.25 21.38 27.25L21.38 27.25Q21 27.63 20.56 28Q20.13 28.38 19.75 28.75L19.75 28.75Q19.25 29.13 18.81 29.50Q18.38 29.88 17.75 30.25L17.75 30.25Q17.25 30.63 16.81 30.94Q16.38 31.25 15.75 31.63L15.75 31.63Q15.25 31.88 14.75 32.13Q14.25 32.38 13.75 32.63L13.75 32.63Q13.13 32.88 12.63 33.06Q12.13 33.25 11.63 33.38L11.63 33.38Q10.50 33.63 9.50 34Q8.50 34.38 7.63 34.38L7.63 34.38Q7.63 34 7.44 34Q7.25 34 7 34L7 34Q6.75 34.13 6.56 34.13Q6.38 34.13 6.25 34.25L6.25 34.25Q6 34.25 5.81 34.31Q5.63 34.38 5.38 34.50L5.38 34.50Q5.13 34.63 5 34.69Q4.88 34.75 4.63 34.88L4.63 34.88Q4.50 35 4.25 35.13Q4 35.25 3.88 35.38L3.88 35.38Q3.75 35.50 3.56 35.69Q3.38 35.88 3.25 36L3.25 36Q3 36.13 2.81 36.31Q2.63 36.50 2.50 36.63L2.50 36.63Q2.38 36.75 2.19 36.94Q2 37.13 1.88 37.25L1.88 37.25Q1.75 37.50 1.63 37.69Q1.50 37.88 1.38 38.13L1.38 38.13Q1.25 38.25 1.13 38.44Q1 38.63 0.88 38.88L0.88 38.88Q0.88 39.13 0.75 39.38Q0.63 39.63 0.50 39.75L0.50 39.75Q0.38 40 0.31 40.25Q0.25 40.50 0.25 40.75L0.25 40.75Q0.13 40.88 0.13 41.06Q0.13 41.25 0 41.50L0 41.50Q0 41.50 0 41.56Q0 41.63 0 41.63L0 41.63Q-0.13 41.88-0.13 42.13Q-0.13 42.38-0.13 42.50L-0.13 42.50Q0 42.38 0 42.50Q0 42.63 0 42.75L0 42.75Q0 42.88 0 43Q0 43.13 0 43.25L0 43.25Q0 43.38 0.06 43.50Q0.13 43.63 0.13 43.75L0.13 43.75Q0.13 44 0.19 44.13Q0.25 44.25 0.25 44.38L0.25 44.38L0.25 44.38Q0.38 44.50 0.44 44.69Q0.50 44.88 0.75 45L0.75 45Q0.75 45.13 0.88 45.31Q1 45.50 1.13 45.63L1.13 45.63Q1.25 45.75 1.38 45.88Q1.50 46 1.75 46.13L1.75 46.13Q1.88 46.25 2 46.38Q2.13 46.50 2.25 46.63L2.25 46.63Q2.88 47.13 3.19 47.38Q3.50 47.63 4.25 48.13L4.25 48.13Q4.50 48.13 4.56 48.25Q4.63 48.38 4.75 48.38L4.75 48.38Q4.75 48.38 4.81 48.38Q4.88 48.38 4.88 48.38L4.88 48.38Q4.88 48.50 4.88 48.50Q4.88 48.50 4.88 48.63L4.88 48.63Q4.88 48.88 4.94 49Q5 49.13 5.13 49.38L5.13 49.38Q5.13 49.63 5.25 49.81Q5.38 50 5.38 50.25L5.38 50.25Q5.50 50.38 5.56 50.50Q5.63 50.63 5.75 50.75L5.75 50.75Q5.75 50.88 5.75 50.88Q5.75 50.88 5.75 51L5.75 51Q5.88 51.25 6 51.38Q6.13 51.50 6.25 51.75L6.25 51.75Q6.38 51.88 6.44 52.06Q6.50 52.25 6.75 52.38L6.75 52.38Q6.88 52.50 7 52.69Q7.13 52.88 7.25 53L7.25 53Q7.50 53.13 7.63 53.31Q7.75 53.50 7.88 53.63L7.88 53.63Q7.88 53.63 7.88 53.63Q7.88 53.63 8 53.63L8 53.63Q8.13 53.75 8.31 53.88Q8.50 54 8.63 54.13L8.63 54.13Q8.75 54.25 8.94 54.31Q9.13 54.38 9.25 54.50L9.25 54.50Q9.50 54.63 9.69 54.75Q9.88 54.88 10.13 54.88L10.13 54.88Q10.25 55 10.44 55.06Q10.63 55.13 10.75 55.13L10.75 55.13Q10.75 55.13 10.81 55.13Q10.88 55.13 10.88 55.25L10.88 55.25Q11 55.25 11.13 55.25Q11.25 55.25 11.25 55.25L11.25 55.25Q11.25 56.63 11.25 57.81Q11.25 59 11.38 59.38L11.38 59.38Q11.63 59.88 12.56 58.63Q13.50 57.38 14.63 55.75L14.63 55.75Q14.50 57.38 14.44 59.13Q14.38 60.88 14.63 61.50L14.63 61.50Q14.88 62.13 16.13 60.56Q17.38 59 18.75 56.88L18.75 56.88Q27.50 54.88 35.63 56.63L35.63 56.63Q43.75 58.50 50.19 63.19Q56.63 67.88 60.75 74.88L60.75 74.88Q65 82 65.75 90.63L65.75 90.63Q65.50 87.88 63 86.50Q60.50 85.13 58.88 85.50L58.88 85.50Q58.13 87.25 56.81 89.44Q55.50 91.63 53.50 93L53.50 93Q53.63 91.38 53.56 89.69Q53.50 88 53.25 86.38L53.25 86.38Q52.63 88.63 51.63 90.75Q50.63 92.88 49.13 94.75L49.13 94.75Q46.75 94.88 44.56 93.88Q42.38 92.88 41.25 91.13L41.25 91.13Q41.13 91 41.06 90.88Q41 90.75 40.88 90.75L40.88 90.75Q40.88 90.50 40.75 90.31Q40.63 90.13 40.63 90L40.63 90Q40.50 89.88 40.44 89.69Q40.38 89.50 40.38 89.25L40.38 89.25Q40.38 89.13 40.38 88.94Q40.38 88.75 40.38 88.63L40.38 88.63Q40.38 88.50 40.38 88.38Q40.38 88.25 40.38 88.13L40.38 88.13Q40.38 88 40.44 87.75Q40.50 87.50 40.63 87.38L40.63 87.38Q40.63 87.25 40.69 87.06Q40.75 86.88 40.75 86.75L40.75 86.75Q40.88 86.50 40.94 86.31Q41 86.13 41.25 86L41.25 86Q41.63 84.75 41.56 83.81Q41.50 82.88 40.75 82.38L40.75 82.38Q40.50 82.38 40.38 82.25Q40.25 82.13 40.13 82.13L40.13 82.13Q40 82.13 39.88 82.06Q39.75 82 39.75 82L39.75 82Q39.63 82 39.56 81.94Q39.50 81.88 39.38 81.88L39.38 81.88Q39.38 81.88 39.13 81.81Q38.88 81.75 38.75 81.75L38.75 81.75Q38.50 81.63 38.31 81.63Q38.13 81.63 38 81.63L38 81.63Q37.88 81.63 37.69 81.56Q37.50 81.50 37.25 81.50L37.25 81.50Q37.13 81.50 37.06 81.50Q37 81.50 36.75 81.50L36.75 81.50Q36.63 81.50 36.44 81.50Q36.25 81.50 36.13 81.63L36.13 81.63Q36 81.63 35.75 81.69Q35.50 81.75 35.38 81.75L35.38 81.75Q35.25 81.75 35.06 81.81Q34.88 81.88 34.75 81.88L34.75 81.88Q34.50 82 34.38 82.06Q34.25 82.13 34 82.25L34 82.25Q33.88 82.25 33.69 82.31Q33.50 82.38 33.38 82.50L33.38 82.50Q27.63 86.25 29.63 93.19Q31.63 100.13 35.50 102.75L35.50 102.75Q34 103 32.69 103.31Q31.38 103.63 30.88 103.88L30.88 103.88Q30.88 103.88 30.81 103.94Q30.75 104 30.75 104L30.75 104Q31.88 104.63 33 105.19Q34.13 105.75 35.25 106.25L35.25 106.25Q36.88 106.75 38.44 107.19Q40 107.63 40.75 107.75L40.75 107.75L40.75 107.75Q42.75 108.25 44.81 108.38Q46.88 108.50 49 108.38L49 108.38Q54.50 108 59.38 105.88L59.38 105.88Q64.25 103.63 68.06 100.06Q71.88 96.50 74.38 91.75L74.38 91.75Q77 87.13 77.75 81.63L77.75 81.63Q77.88 81.88 77.88 82.06Q77.88 82.25 78 82.50L78 82.50Q78.13 83 78.19 83.44Q78.25 83.88 78.25 84.38L78.25 84.38L78.25 84.38Q78.38 84.63 78.38 84.88Q78.38 85.13 78.38 85.25L78.38 85.25L78.38 85.38Q78.38 85.63 78.44 85.88Q78.50 86.13 78.50 86.25L78.50 86.25Q78.50 86.63 78.56 86.88Q78.63 87.13 78.63 87.38L78.63 87.38L78.63 87.88Q78.63 88 78.63 88.19Q78.63 88.38 78.63 88.38L78.63 88.38Q78.63 88.50 78.63 88.69Q78.63 88.88 78.63 89L78.63 89L78.63 89.50Q78.63 89.63 78.63 89.81Q78.63 90 78.63 90.25L78.63 90.25Q78.63 90.25 78.63 90.38Q78.63 90.50 78.63 90.63L78.63 90.63Q78.63 90.75 78.63 90.94Q78.63 91.13 78.63 91.25L78.63 91.25Q78.63 91.38 78.63 91.44Q78.63 91.50 78.63 91.63L78.63 91.63Q78.63 91.88 78.56 92Q78.50 92.13 78.50 92.38L78.50 92.38Q78.50 92.50 78.50 92.56Q78.50 92.63 78.50 92.75L78.50 92.75Q78.50 92.88 78.44 93.13Q78.38 93.38 78.38 93.75L78.38 93.75L78.38 93.75L78.38 93.75Q78.38 93.88 78.31 94.13Q78.25 94.38 78.25 94.63L78.25 94.63L78.25 94.75Q78.13 94.88 78.13 95.13Q78.13 95.38 78 95.63L78 95.63Q78 95.63 78 95.69Q78 95.75 78 95.75L78 95.75Q77.88 95.88 77.88 96.13Q77.88 96.38 77.75 96.63L77.75 96.63L77.75 96.75Q77.75 96.88 77.69 97.13Q77.63 97.38 77.50 97.63L77.50 97.63Q77.50 97.63 77.50 97.69Q77.50 97.75 77.50 97.75L77.50 97.75Q77.38 97.88 77.31 98.19Q77.25 98.50 77.25 98.75L77.25 98.75Q77.13 98.88 77.06 99.13Q77 99.38 76.75 99.75L76.75 99.75Q76.75 99.88 76.63 100.19Q76.50 100.50 76.38 100.75L76.38 100.75Q76.38 100.88 76.25 101.13Q76.13 101.38 76 101.75L76 101.75L76 101.75Q75.88 101.88 75.75 102.13Q75.63 102.38 75.63 102.63L75.63 102.63Q75.63 102.63 75.56 102.69Q75.50 102.75 75.50 102.75L75.50 102.75Q75.50 102.75 75.50 102.81Q75.50 102.88 75.38 102.88L75.38 102.88Q73.88 106.13 71.50 108.94Q69.13 111.75 66.13 114L66.13 114Q65.88 114.13 65.69 114.31Q65.50 114.50 65.25 114.63L65.25 114.63Q65.25 114.63 65.19 114.69Q65.13 114.75 65.13 114.75L65.13 114.75Q65 115 64.75 115.06Q64.50 115.13 64.38 115.25L64.38 115.25L64.50 115.50Q64.88 115.38 65.19 115.38Q65.50 115.38 65.88 115.25L65.88 115.25L65.88 115.25Q66.63 115.25 67.25 115.13Q67.88 115 68.50 114.75L68.50 114.75Q68.63 114.75 68.81 114.69Q69 114.63 69.25 114.63L69.25 114.63Q69.38 114.63 69.44 114.56Q69.50 114.50 69.75 114.50L69.75 114.50Q69.88 114.50 70.06 114.44Q70.25 114.38 70.38 114.38L70.38 114.38Q70.50 114.38 70.69 114.31Q70.88 114.25 71 114.25L71 114.25Q73.50 113.63 75.88 112.81Q78.25 112 80.63 111L80.63 111Q76.63 116.38 71.44 120.69Q66.25 125 60.13 127.75L60.13 127.75Q63 127.63 65.81 127.13Q68.63 126.63 71.38 125.75L71.38 125.75Q76.38 124.38 81 122L81 122Q85.50 119.63 89.50 116.44Q93.50 113.25 96.75 109.25L96.75 109.25Q100.13 105.38 102.63 100.75L102.63 100.75Q101.50 106.50 99.31 111.88Q97.13 117.25 93.75 122.13L93.75 122.13Q96.13 120.50 98.31 118.69Q100.50 116.88 102.50 114.75L102.50 114.75Q108 109 111.63 101.81Q115.25 94.63 116.38 86.75L116.38 86.75Q117.25 90.63 117.50 94.63Q117.75 98.63 117.38 102.63L117.38 102.63Q126.38 90.13 127.63 77.88L127.63 77.88Q129 65.50 126.25 55.06Q123.50 44.63 118.63 36.88L118.63 36.88Q113.63 29.13 110.25 25.75L110.25 25.75Q110.25 25.63 110.19 25.63Q110.13 25.63 110.13 25.50L110.13 25.50Q110.13 25.50 110.13 25.50Q110.13 25.50 110.13 25.63L110.13 25.63Q110.13 25.63 110.13 25.63Q110.13 25.63 110.13 25.50L110.13 25.50Q110.13 25.75 110.13 26.06Q110.13 26.38 110 26.75L110 26.75Q109.88 27.25 109.81 27.81Q109.75 28.38 109.75 28.88L109.75 28.88Q109.50 29.38 109.38 30Q109.25 30.63 109.13 31.13L109.13 31.13Q109 31.63 108.75 32.13Q108.50 32.63 108.25 33.25L108.25 33.25Q108.13 33.75 107.88 34.25Q107.63 34.75 107.25 35.25L107.25 35.25Q107 35.63 106.69 36.13Q106.38 36.63 106.13 37.13L106.13 37.13Q105.75 37.50 105.44 38Q105.13 38.50 104.75 38.88L104.75 38.88Q104.38 39.38 103.94 39.75Q103.50 40.13 103.13 40.63L103.13 40.63Q102.88 40.88 102.63 41.06Q102.38 41.25 102.13 41.38L102.13 41.38Q101.88 41.50 101.69 41.69Q101.50 41.88 101.25 42.13L101.25 42.13Q100.88 42.50 100.38 42.81Q99.88 43.13 99.38 43.38L99.38 43.38Q99 43.75 98.44 44Q97.88 44.25 97.38 44.50L97.38 44.50Q96.88 44.75 96.38 44.94Q95.88 45.13 95.25 45.38L95.25 45.38Q94.75 45.63 94.25 45.81Q93.75 46 93.25 46.13L93.25 46.13Q92.63 46.25 92.06 46.38Q91.50 46.50 91 46.63L91 46.63Q90.38 46.63 89.88 46.75Q89.38 46.88 88.75 46.88L88.75 46.88Q88.38 46.88 88 46.94Q87.63 47 87.25 47L87.25 47Q86.63 47 86.06 46.94Q85.50 46.88 85 46.88L85 46.88Q84.38 46.88 83.88 46.75Q83.38 46.63 82.75 46.63L82.75 46.63Q82.25 46.50 81.69 46.38Q81.13 46.25 80.63 46L80.63 46L80.63 46Q81.13 45.88 81.69 45.88Q82.25 45.88 82.75 45.75L82.75 45.75Q83.38 45.63 83.94 45.50Q84.50 45.38 85 45.25L85 45.25Q85.50 45 86.06 44.88Q86.63 44.75 87.13 44.50L87.13 44.50Q87.63 44.25 88.13 44.06Q88.63 43.88 89.25 43.63L89.25 43.63Q89.75 43.38 90.19 43.06Q90.63 42.75 91.25 42.50L91.25 42.50Q91.63 42.25 92.13 41.88Q92.63 41.50 93.13 41.25L93.13 41.25Q93.50 40.88 93.94 40.50Q94.38 40.13 94.75 39.75L94.75 39.75Q95.25 39.38 95.63 38.94Q96 38.50 96.38 38.13L96.38 38.13Q96.75 37.63 97.13 37.19Q97.50 36.75 97.75 36.25L97.75 36.25Q97.88 36.25 97.88 36.19Q97.88 36.13 98 36L98 36Q98.25 35.63 98.50 35.19Q98.75 34.75 99 34.38L99 34.38Q99.25 33.88 99.50 33.38Q99.75 32.88 100 32.38L100 32.38Q100.25 31.88 100.44 31.38Q100.63 30.88 100.75 30.25L100.75 30.25Q101 29.75 101.13 29.25Q101.25 28.75 101.38 28.25L101.38 28.25Q101.50 27.63 101.63 27.06Q101.75 26.50 101.75 26L101.75 26Q101.75 25.38 101.75 24.88Q101.75 24.38 101.75 23.75L101.75 23.75Q101.75 23.38 101.75 23Q101.75 22.63 101.75 22.25L101.75 22.25Q101.63 21.63 101.56 21.06Q101.50 20.50 101.38 20L101.38 20Q101.38 19.38 101.19 18.88Q101 18.38 100.88 17.75L100.88 17.75Q100.75 17.25 100.56 16.75Q100.38 16.25 100.25 15.75L100.25 15.75Q100 15.13 99.75 14.63Q99.50 14.13 99.25 13.75L99.25 13.75Q99 13.13 98.75 12.69Q98.50 12.25 98.25 11.75L98.25 11.75Q97.88 11.25 97.56 10.81Q97.25 10.38 96.88 9.88L96.88 9.88Q96.50 9.50 96.13 9.06Q95.75 8.63 95.38 8.25L95.38 8.25Q95.13 8 94.94 7.75Q94.75 7.50 94.50 7.38L94.50 7.38Q93.38 6.50 92.25 5.75Q91.13 5 89.88 4.25L89.88 4.25Q89.75 4.13 89.56 4.06Q89.38 4 89.25 3.88L89.25 3.88Q88.25 3.13 87.44 2.75Q86.63 2.38 85.88 2.13L85.88 2.13L85.88 2.13Z"/></svg>