<svg xmlns="http://www.w3.org/2000/svg" xmlns:xlink="http://www.w3.org/1999/xlink" width="128" height="128"><path fill="#ffffff" d="M115.75 17L17.75 17L0 34.75L0 111L110.25 111L128 93.25L128 17L115.75 17ZM47.63 33.50L47.63 33.50Q53.88 33.50 58.25 35.25Q62.63 37 65.13 40.50L65.13 40.50Q67.63 44 68.88 49.50Q70.13 55 70.13 62.38L70.13 62.38Q70.13 67.13 69.63 71.06Q69.13 75 68.13 78L68.13 78Q67 81 65.38 83.25Q63.75 85.50 61.38 87.13L61.38 87.13L68.13 98L59.75 101.88L52.63 90.13Q51.88 90.38 50.63 90.50Q49.38 90.63 47.63 90.63L47.63 90.63Q41.38 90.63 36.94 88.94Q32.50 87.25 30 83.88L30 83.88Q27.50 80.38 26.25 75Q25 69.63 25 62.38L25 62.38Q25 55 26.31 49.56Q27.63 44.13 30.13 40.63L30.13 40.63Q32.63 37 37 35.25Q41.38 33.50 47.63 33.50L47.63 33.50ZM81.50 48.38L81.50 36.63L90.25 36.63L90.25 48.38L101.38 48.38L101.38 55.75L90.25 55.75L90.25 73.63Q90.25 76.13 90.44 77.75Q90.63 79.38 91 80.13L91 80.13Q91.38 81 92.31 81.38Q93.25 81.75 94.63 81.75L94.63 81.75L101.25 81.50L101.75 88.50Q99 89.13 96.94 89.38Q94.88 89.63 93.38 89.63L93.38 89.63Q90 89.63 87.63 88.81Q85.25 88 84 86.50L84 86.50Q82.75 84.88 82.06 81.94Q81.38 79 81.38 74.63L81.38 74.63L81.38 55.88L75.25 55.88L75.25 48.38L81.50 48.38ZM47.63 41.38L47.63 41.38Q43.88 41.38 41.25 42.56Q38.63 43.75 37.25 46.38L37.25 46.38Q35.75 48.88 35.06 52.81Q34.38 56.75 34.38 62.38L34.38 62.38Q34.38 67.75 35.06 71.69Q35.75 75.63 37.13 78L37.13 78Q38.50 80.38 41.13 81.56Q43.75 82.75 47.63 82.75L47.63 82.75Q51.63 82.75 54.25 81.56Q56.88 80.38 58.25 78.13L58.25 78.13Q59.50 75.75 60.19 71.81Q60.88 67.88 60.88 62.38L60.88 62.38Q60.88 56.88 60.19 52.88Q59.50 48.88 58.13 46.38L58.13 46.38Q56.75 43.75 54.13 42.56Q51.50 41.38 47.63 41.38L47.63 41.38Z"/></svg>