<svg xmlns="http://www.w3.org/2000/svg" xmlns:xlink="http://www.w3.org/1999/xlink" width="128" height="128"><path fill="#000000" d="M61 13.63L61 13.63Q57.25 13.63 53.81 14.06Q50.38 14.50 48.13 15.50L48.13 15.50Q48.13 15.50 48.06 15.50Q48 15.50 48 15.50L48 15.50Q41.88 17.75 37.50 23.38Q33.13 29 31.75 36.38L31.75 36.38L31.75 36.38Q31.75 36.38 31.75 36.38Q31.75 36.38 31.75 36.38L31.75 36.38Q30.50 42.25 29.94 47.25Q29.38 52.25 28.75 56.63L28.75 56.63Q28.13 61.13 26.94 65.19Q25.75 69.25 23.25 73.38L23.25 73.38L25 74.38Q27.63 70.13 28.88 65.81Q30.13 61.50 30.75 57L30.75 57Q31.50 52.38 32 47.44Q32.50 42.50 33.75 36.75L33.75 36.75L33.75 36.75Q35 29.88 39.13 24.63Q43.25 19.38 48.75 17.38L48.75 17.38L48.75 17.38L48.88 17.38Q50.75 16.63 54.06 16.19Q57.38 15.75 61 15.75L61 15.75Q64.63 15.75 68.06 16.19Q71.50 16.63 73.75 17.38L73.75 17.38L73.75 17.38Q79.38 19.38 83.44 24.63Q87.50 29.88 88.88 36.75L88.88 36.75L88.88 36.75L88.88 36.75Q90.13 42.50 90.63 47.44Q91.13 52.38 91.75 57L91.75 57Q92.50 61.50 93.75 65.81Q95 70.13 97.63 74.38L97.63 74.38L99.38 73.38Q96.88 69.25 95.69 65.19Q94.50 61.13 93.88 56.63L93.88 56.63Q93.13 52.25 92.63 47.25Q92.13 42.25 90.88 36.38L90.88 36.38L90.88 36.38Q89.50 29 85.13 23.38Q80.75 17.75 74.50 15.38L74.50 15.38L74.50 15.38Q71.88 14.50 68.31 14.06Q64.75 13.63 61 13.63L61 13.63ZM82.25 51.50L82.25 51.50Q82.25 50.13 81.25 49.06Q80.25 48 78.88 48L78.88 48Q77.50 48 76.56 49.06Q75.63 50.13 75.63 51.50L75.63 51.50Q75.63 53 76.56 54Q77.50 55 78.88 55L78.88 55Q80.25 55 81.25 54Q82.25 53 82.25 51.50ZM48.50 51.50L48.50 51.50Q48.50 50.13 47.56 49.06Q46.63 48 45.25 48L45.25 48Q43.75 48 42.81 49.06Q41.88 50.13 41.88 51.50L41.88 51.50Q41.88 53 42.81 54Q43.75 55 45.25 55L45.25 55Q46.63 55 47.56 54Q48.50 53 48.50 51.50L48.50 51.50ZM51.13 50.25L50.75 48.88L38.38 52.25L38.75 53.63L51.13 50.25ZM52.75 52.13L52 50.88L39.63 58.13L40.25 59.25L52.75 52.13ZM53.88 54.25L53 53.25L40.25 65.88L41.25 66.88L53.88 54.25ZM54.50 57.13L53.38 56.38L46.88 67.63L48.13 68.25L54.50 57.13ZM74 50.25L74.25 48.88L86.75 52.25L86.38 53.63L74 50.25ZM72.38 52.13L73 50.88L85.50 58.13L84.88 59.25L72.38 52.13ZM71.13 54.25L72.13 53.25L84.75 65.88L83.88 66.88L71.13 54.25ZM70.50 57.13L71.75 56.38L78.25 67.63L77 68.25L70.50 57.13ZM62.38 37.88L62.38 37.88Q57.63 37.88 54.13 41.13Q50.63 44.38 50.63 49.13L50.63 49.13Q50.63 53.75 54.13 57Q57.63 60.25 62.38 60.25L62.38 60.25Q67.25 60.25 70.69 57Q74.13 53.75 74.13 49.13L74.13 49.13Q74.13 44.38 70.69 41.13Q67.25 37.88 62.38 37.88L62.38 37.88ZM62.38 40L62.38 40Q66.50 40 69.31 42.63Q72.13 45.25 72.13 49.13L72.13 49.13Q72.13 52.88 69.31 55.50Q66.50 58.13 62.38 58.13L62.38 58.13Q58.38 58.13 55.56 55.50Q52.75 52.88 52.75 49.13L52.75 49.13Q52.75 45.25 55.56 42.63Q58.38 40 62.38 40L62.38 40ZM73.63 40.38L73.63 40.38Q73.63 38.25 75.13 36.69Q76.63 35.13 78.88 35.13L78.88 35.13Q81 35.13 82.50 36.69Q84 38.25 84 40.38L84 40.38Q84 42.63 82.50 44.13Q81 45.63 78.88 45.63L78.88 45.63Q76.63 45.63 75.13 44.13Q73.63 42.63 73.63 40.38ZM79.13 26.13L79.13 26.13Q79 26.13 78.94 26.06Q78.88 26 78.88 26L78.88 26Q77.50 26 76.25 26.56Q75 27.13 74 28L74 28L74 28L73.25 28.75L74.75 30.25L75.50 29.50Q76.13 28.88 77 28.50Q77.88 28.13 78.88 28.13L78.88 28.13Q78.88 28.13 78.94 28.13Q79 28.13 79 28.13L79 28.13L79 28.13Q80.13 28.13 81.06 28.63Q82 29.13 82.63 30L82.63 30L83.25 30.75L84.88 29.50L84.25 28.75Q83.38 27.63 82.06 26.88Q80.75 26.13 79.13 26.13L79.13 26.13L79.13 26.13L79.13 26.13ZM62.38 47.38L61.38 47.25L61.13 52Q60.88 52.13 60.44 52.44Q60 52.75 59.38 53L59.38 53Q58.88 53.13 58.50 53.19Q58.13 53.25 57.75 53.13L57.75 53.13Q57.38 53 57.13 52.75Q56.88 52.50 56.50 52.13L56.50 52.13Q56.50 52 56.50 51.88Q56.50 51.75 56.63 51.50L56.63 51.50Q56.63 51 56.69 50.50Q56.75 50 56.88 49.88L56.88 49.88L54.88 49.38Q54.75 49.75 54.69 50.19Q54.63 50.63 54.50 51.13L54.50 51.13Q54.50 51.63 54.44 52Q54.38 52.38 54.38 52.38L54.38 52.38L54.38 52.75L54.50 53Q55.13 53.88 55.81 54.38Q56.50 54.88 57.25 55.13L57.25 55.13Q58 55.25 58.69 55.19Q59.38 55.13 60 55L60 55Q61 54.63 61.56 54.19Q62.13 53.75 62.38 53.63L62.38 53.63Q62.63 53.75 63.19 54.19Q63.75 54.63 64.75 55L64.75 55Q65.38 55.13 66.06 55.19Q66.75 55.25 67.50 55.13L67.50 55.13Q68.25 54.88 68.94 54.38Q69.63 53.88 70.25 53L70.25 53L70.38 52.75L70.38 52.38Q70.38 52.38 70.31 52Q70.25 51.63 70.25 51.13L70.25 51.13Q70.13 50.63 70.06 50.19Q70 49.75 69.88 49.38L69.88 49.38L67.88 49.88Q68 50 68.06 50.50Q68.13 51 68.13 51.50L68.13 51.50Q68.25 51.75 68.25 51.88Q68.25 52 68.25 52.13L68.25 52.13Q67.88 52.50 67.56 52.75Q67.25 53 67 53.13L67 53.13Q66.63 53.25 66.25 53.19Q65.88 53.13 65.38 53L65.38 53Q64.75 52.75 64.31 52.44Q63.88 52.13 63.63 52L63.63 52L63.38 47.25L62.38 47.38ZM62.38 42.75L62.38 42.75Q61.88 42.75 61.38 42.88Q60.88 43 60.50 43.13L60.50 43.13Q60.13 43.25 59.81 43.31Q59.50 43.38 59.25 43.38L59.25 43.38Q58.88 43.38 58.50 43.63Q58.13 43.88 57.88 44.13L57.88 44.13Q57.63 44.38 57.50 44.63Q57.38 44.88 57.25 45.25L57.25 45.25Q57.13 45.75 57.06 46.19Q57 46.63 56.88 46.88L56.88 46.88Q56.75 47.25 56.81 47.63Q56.88 48 57 48.25L57 48.25Q57.13 48.38 57.31 48.56Q57.50 48.75 57.63 49L57.63 49Q58 49.38 58.44 49.69Q58.88 50 59.38 50.38L59.38 50.38Q60.25 51 61.06 51.50Q61.88 52 61.88 52L61.88 52L62.38 52.38L63 52Q63 52 63.75 51.50Q64.50 51 65.50 50.38L65.50 50.38Q65.88 50 66.31 49.69Q66.75 49.38 67.13 49L67.13 49Q67.38 48.75 67.50 48.56Q67.63 48.38 67.75 48.25L67.75 48.25Q67.88 48 68 47.63Q68.13 47.25 68 46.88L68 46.88Q67.88 46.63 67.75 46.19Q67.63 45.75 67.50 45.25L67.50 45.25Q67.50 44.88 67.38 44.63Q67.25 44.38 67 44.13L67 44.13Q66.75 43.88 66.38 43.63Q66 43.38 65.50 43.38L65.50 43.38Q65.25 43.38 65 43.31Q64.75 43.25 64.25 43.13L64.25 43.13Q63.88 43 63.44 42.88Q63 42.75 62.38 42.75L62.38 42.75ZM62.38 44.75L62.38 44.75Q62.63 44.75 62.94 44.88Q63.25 45 63.63 45.13L63.63 45.13Q64 45.25 64.44 45.31Q64.88 45.38 65.38 45.50L65.38 45.50Q65.38 45.50 65.44 45.56Q65.50 45.63 65.50 45.75L65.50 45.75Q65.63 46.13 65.69 46.50Q65.75 46.88 65.88 47.25L65.88 47.25Q65.88 47.38 65.81 47.44Q65.75 47.50 65.63 47.50L65.63 47.50L65.63 47.50Q65.38 47.75 65 48.06Q64.63 48.38 64.25 48.75L64.25 48.75Q63.50 49.25 63.13 49.50Q62.75 49.75 62.38 49.88L62.38 49.88Q62.13 49.75 61.69 49.50Q61.25 49.25 60.63 48.75L60.63 48.75Q60.13 48.38 59.75 48.06Q59.38 47.75 59.13 47.50L59.13 47.50Q59 47.38 58.94 47.31Q58.88 47.25 58.88 47.25L58.88 47.25Q59 46.88 59.13 46.50Q59.25 46.13 59.25 45.75L59.25 45.75Q59.25 45.75 59.31 45.63Q59.38 45.50 59.38 45.38L59.38 45.38L59.38 45.50Q60 45.38 60.44 45.31Q60.88 45.25 61.13 45.13L61.13 45.13Q61.63 45 61.88 44.88Q62.13 44.75 62.38 44.75L62.38 44.75ZM50.63 40.38L50.63 40.38Q50.63 38.25 49.06 36.69Q47.50 35.13 45.38 35.13L45.38 35.13Q43.25 35.13 41.75 36.69Q40.25 38.25 40.25 40.38L40.25 40.38Q40.25 42.63 41.75 44.13Q43.25 45.63 45.38 45.63L45.38 45.63Q47.50 45.63 49.06 44.13Q50.63 42.63 50.63 40.38ZM46.25 38.88L46.25 38.88Q46.25 37.88 45.50 37.06Q44.75 36.25 43.63 36.25L43.63 36.25Q42.63 36.25 41.88 37.06Q41.13 37.88 41.13 38.88L41.13 38.88Q41.13 40 41.88 40.75Q42.63 41.50 43.63 41.50L43.63 41.50Q44.75 41.50 45.50 40.75Q46.25 40 46.25 38.88ZM45.13 26.13L45.13 26.13Q43.50 26.13 42.19 26.81Q40.88 27.50 40 28.75L40 28.75L40 28.75L39.38 29.50L41 30.75L41.63 30Q42.25 29.13 43.19 28.63Q44.13 28.13 45.13 28.13L45.13 28.13L45.25 28.13Q45.25 28.13 45.31 28.13Q45.38 28.13 45.38 28.13L45.38 28.13Q46.38 28.13 47.25 28.50Q48.13 28.88 48.75 29.50L48.75 29.50L49.50 30.25L51 28.75L50.25 28Q49.25 27.13 48 26.56Q46.75 26 45.38 26L45.38 26Q45.25 26 45.19 26.06Q45.13 26.13 45.13 26.13L45.13 26.13L45.13 26.13L45.13 26.13ZM79.63 38.88L79.63 38.88Q79.63 37.88 78.88 37.06Q78.13 36.25 77.13 36.25L77.13 36.25Q76 36.25 75.25 37.06Q74.50 37.88 74.50 38.88L74.50 38.88Q74.50 40 75.25 40.75Q76 41.50 77.13 41.50L77.13 41.50Q78.13 41.50 78.88 40.75Q79.63 40 79.63 38.88L79.63 38.88ZM39.75 60.63L39.75 60.63Q37.25 60.63 35.06 60.88Q32.88 61.13 31.25 61.75L31.25 61.75Q27.25 63.25 24.38 66.94Q21.50 70.63 20.63 75.38L20.63 75.38L20.63 75.38Q19.88 79.13 19.50 82.31Q19.13 85.50 18.75 88.38L18.75 88.38L20.75 88.63Q21.25 85.75 21.56 82.56Q21.88 79.38 22.63 75.75L22.63 75.75L22.63 75.75L22.63 75.75Q23.50 71.50 26.06 68.19Q28.63 64.88 32 63.63L32 63.63L32 63.63L32 63.63Q33.25 63.13 35.31 62.88Q37.38 62.63 39.75 62.63L39.75 62.63Q42 62.63 44.19 62.88Q46.38 63.13 47.75 63.63L47.75 63.63L47.75 63.63Q51.25 64.88 53.81 68.19Q56.38 71.50 57.13 75.75L57.13 75.75L57.13 75.75L57.13 75.75Q57.88 79.38 58.25 82.56Q58.63 85.75 59 88.63L59 88.63L61.13 88.38Q60.63 85.50 60.31 82.31Q60 79.13 59.25 75.38L59.25 75.38L59.25 75.38Q58.25 70.63 55.38 66.94Q52.50 63.25 48.50 61.75L48.50 61.75L48.50 61.75L48.50 61.75Q46.75 61.13 44.44 60.88Q42.13 60.63 39.75 60.63L39.75 60.63ZM53.38 85.13L53.38 85.13Q53.38 84.13 52.75 83.50Q52.13 82.88 51.13 82.88L51.13 82.88Q50.25 82.88 49.63 83.50Q49 84.13 49 85.13L49 85.13Q49 86 49.63 86.69Q50.25 87.38 51.13 87.38L51.13 87.38Q52.13 87.38 52.75 86.69Q53.38 86 53.38 85.13ZM31.75 85.13L31.75 85.13Q31.75 84.13 31.13 83.50Q30.50 82.88 29.63 82.88L29.63 82.88Q28.75 82.88 28.13 83.50Q27.50 84.13 27.50 85.13L27.50 85.13Q27.50 86 28.13 86.69Q28.75 87.38 29.63 87.38L29.63 87.38Q30.50 87.38 31.13 86.69Q31.75 86 31.75 85.13ZM47.50 83.50L47.50 83.50Q47.50 80.88 45.50 78.94Q43.50 77 40.63 77L40.63 77Q37.75 77 35.75 78.94Q33.75 80.88 33.75 83.50L33.75 83.50Q33.75 86.25 35.75 88.13Q37.75 90 40.63 90L40.63 90Q43.50 90 45.50 88.13Q47.50 86.25 47.50 83.50L47.50 83.50ZM40.63 76L40.63 76Q37.38 76 35.06 78.19Q32.75 80.38 32.75 83.50L32.75 83.50Q32.75 86.63 35.06 88.81Q37.38 91 40.63 91L40.63 91Q43.88 91 46.19 88.81Q48.50 86.63 48.50 83.50L48.50 83.50Q48.50 80.38 46.19 78.19Q43.88 76 40.63 76ZM40.63 78.13L40.63 78.13Q43 78.13 44.69 79.69Q46.38 81.25 46.38 83.50L46.38 83.50Q46.38 85.75 44.69 87.38Q43 89 40.63 89L40.63 89Q38.13 89 36.44 87.38Q34.75 85.75 34.75 83.50L34.75 83.50Q34.75 81.25 36.44 79.69Q38.13 78.13 40.63 78.13ZM47.88 78L47.88 78Q47.88 76.63 48.81 75.63Q49.75 74.63 51.13 74.63L51.13 74.63Q52.50 74.63 53.44 75.63Q54.38 76.63 54.38 78L54.38 78Q54.38 79.38 53.44 80.38Q52.50 81.38 51.13 81.38L51.13 81.38Q49.75 81.38 48.81 80.38Q47.88 79.38 47.88 78ZM51.38 68.50L51.38 68.50Q51.25 68.50 51.19 68.50Q51.13 68.50 51.13 68.50L51.13 68.50Q50.13 68.50 49.25 68.88Q48.38 69.25 47.75 69.88L47.75 69.88L47.75 69.88L47 70.50L48.50 72L49.25 71.25Q49.63 71 50.13 70.75Q50.63 70.50 51.13 70.50L51.13 70.50Q51.13 70.50 51.19 70.50Q51.25 70.50 51.25 70.50L51.25 70.50L51.25 70.50Q51.88 70.50 52.38 70.81Q52.88 71.13 53.25 71.63L53.25 71.63L53.88 72.38L55.50 71.13L54.88 70.25Q54.25 69.50 53.31 69Q52.38 68.50 51.38 68.50L51.38 68.50L51.38 68.50L51.38 68.50ZM43.50 82.38L43.50 82.38Q43.38 81.88 43.25 81.25Q43.13 80.63 42.63 80.63L42.63 80.63Q42.13 80.63 41.63 80.38Q41.13 80.13 40.63 80.13L40.63 80.13Q40.13 80.13 39.63 80.38Q39.13 80.63 38.63 80.63L38.63 80.63Q38.13 80.63 38 81.25Q37.88 81.88 37.75 82.38L37.75 82.38Q37.50 82.75 39.06 83.81Q40.63 84.88 40.63 84.88L40.63 84.88Q40.63 84.88 42.19 83.81Q43.75 82.75 43.50 82.38ZM40.63 79.13L40.63 79.13Q40.25 79.13 39.88 79.19Q39.50 79.25 39.25 79.38L39.25 79.38Q39 79.50 38.88 79.50Q38.75 79.50 38.63 79.50L38.63 79.50Q38.25 79.50 37.94 79.69Q37.63 79.88 37.38 80.13L37.38 80.13Q37.25 80.25 37.13 80.50Q37 80.75 37 80.88L37 80.88L37 81Q36.88 81.38 36.81 81.63Q36.75 81.88 36.75 82L36.75 82Q36.63 82.38 36.69 82.69Q36.75 83 36.88 83.13L36.88 83.13Q37 83.38 37.13 83.50Q37.25 83.63 37.38 83.75L37.38 83.75Q37.63 84 37.88 84.25Q38.13 84.50 38.50 84.63L38.50 84.63Q39.13 85.13 39.63 85.44Q40.13 85.75 40.13 85.75L40.13 85.75L40.63 86.13L41.13 85.75Q41.13 85.75 41.63 85.44Q42.13 85.13 42.75 84.63L42.75 84.63Q43.13 84.50 43.38 84.25Q43.63 84 43.88 83.75L43.88 83.75Q44 83.63 44.13 83.50Q44.25 83.38 44.38 83.13L44.38 83.13Q44.50 83 44.56 82.69Q44.63 82.38 44.50 82L44.50 82L44.50 82Q44.50 81.88 44.44 81.63Q44.38 81.38 44.25 81L44.25 81Q44.13 80.75 44.06 80.50Q44 80.25 43.88 80.13L43.88 80.13L43.88 80.13Q43.63 79.88 43.31 79.69Q43 79.50 42.63 79.50L42.63 79.50Q42.50 79.50 42.38 79.50Q42.25 79.50 42 79.38L42 79.38Q41.75 79.25 41.38 79.19Q41 79.13 40.63 79.13L40.63 79.13ZM40.63 81.13L40.63 81.13Q40.75 81.13 40.88 81.19Q41 81.25 41.25 81.38L41.25 81.38Q41.50 81.38 41.75 81.44Q42 81.50 42.25 81.50L42.25 81.50Q42.25 81.50 42.25 81.50Q42.25 81.50 42.25 81.50L42.25 81.50Q42.25 81.63 42.31 81.88Q42.38 82.13 42.50 82.25L42.50 82.25L42.50 82.25Q42.25 82.50 42 82.69Q41.75 82.88 41.63 83L41.63 83L41.50 83Q41.25 83.25 41.06 83.38Q40.88 83.50 40.63 83.63L40.63 83.63Q40.38 83.50 40.19 83.38Q40 83.25 39.63 83L39.63 83Q39.38 82.88 39.19 82.69Q39 82.50 38.75 82.25L38.75 82.25L38.75 82.25Q38.75 82.25 38.75 82.25Q38.75 82.25 38.75 82.25L38.75 82.25Q38.88 82.13 38.88 81.88Q38.88 81.63 39 81.50L39 81.50L39 81.50Q39.25 81.50 39.50 81.44Q39.75 81.38 40 81.38L40 81.38Q40.25 81.25 40.38 81.19Q40.50 81.13 40.63 81.13L40.63 81.13ZM42.63 82.75L42.63 82.75Q42.63 82.75 42.63 82.75Q42.63 82.75 42.63 82.75L42.63 82.75L42.63 82.75Q42.63 82.75 42.63 82.75Q42.63 82.75 42.63 82.75ZM33 78L33 78Q33 76.63 32.06 75.63Q31.13 74.63 29.75 74.63L29.75 74.63Q28.38 74.63 27.44 75.63Q26.50 76.63 26.50 78L26.50 78Q26.50 79.38 27.44 80.38Q28.38 81.38 29.75 81.38L29.75 81.38Q31.13 81.38 32.06 80.38Q33 79.38 33 78L33 78ZM30.25 77L30.25 77Q30.25 76.38 29.81 75.88Q29.38 75.38 28.63 75.38L28.63 75.38Q28 75.38 27.50 75.88Q27 76.38 27 77L27 77Q27 77.75 27.50 78.25Q28 78.75 28.63 78.75L28.63 78.75Q29.38 78.75 29.81 78.25Q30.25 77.75 30.25 77L30.25 77ZM29.50 68.50L29.50 68.50Q28.50 68.50 27.56 69Q26.63 69.50 26 70.25L26 70.25L26 70.25L25.38 71.13L27 72.38L27.63 71.63Q28 71.13 28.50 70.81Q29 70.50 29.63 70.50L29.63 70.50L29.63 70.50Q29.63 70.50 29.63 70.50Q29.63 70.50 29.75 70.50L29.75 70.50Q30.25 70.50 30.75 70.75Q31.25 71 31.63 71.25L31.63 71.25L31.63 71.25L32.38 72L33.88 70.50L33.13 69.88Q32.38 69.25 31.56 68.88Q30.75 68.50 29.75 68.50L29.75 68.50Q29.63 68.50 29.63 68.50Q29.63 68.50 29.50 68.50L29.50 68.50L29.50 68.50L29.50 68.50ZM51.88 77.25L51.88 77.25Q51.88 76.63 51.38 76.13Q50.88 75.63 50.25 75.63L50.25 75.63Q49.50 75.63 49.06 76.13Q48.63 76.63 48.63 77.25L48.63 77.25Q48.63 78 49.06 78.50Q49.50 79 50.25 79L50.25 79Q50.88 79 51.38 78.50Q51.88 78 51.88 77.25ZM91.50 0L91.50 0L35.88 0.13Q35.63 0.13 35.31 0.31Q35 0.50 34.88 0.63L34.88 0.63L34.88 0.63L0.25 44.13Q0.13 44.25 0.06 44.50Q0 44.75 0 45L0 45Q0 45.13 0 45.19Q0 45.25 0 45.25L0 45.25L0 45.25L12.63 99.38Q12.63 99.63 12.81 99.88Q13 100.13 13.25 100.25L13.25 100.25L13.38 100.25L63.50 124.13Q63.63 124.25 63.81 124.25Q64 124.25 64.13 124.25L64.13 124.25Q64.25 124.25 64.44 124.25Q64.63 124.25 64.75 124.13L64.75 124.13L64.75 124.13L114.75 99.88Q115 99.75 115.19 99.56Q115.38 99.38 115.50 99L115.50 99L115.50 99L127.75 44.88Q127.75 44.88 127.75 44.81Q127.75 44.75 127.75 44.63L127.75 44.63Q127.75 44.38 127.69 44.13Q127.63 43.88 127.50 43.75L127.50 43.75L127.50 43.75L92.63 0.50Q92.50 0.25 92.19 0.13Q91.88 0 91.50 0L91.50 0Q91.50 0 91.50 0Q91.50 0 91.50 0L91.50 0L91.50 0ZM36.63 2.88L90.88 2.75L124.88 45L113 97.75L64.13 121.38L15.13 98L2.88 45.38L36.63 2.88ZM67.50 83.38L15.88 83.38L15.88 86.13L67.50 86.13L67.50 83.38ZM112 93.63L40.38 93.63L40.38 96.38L112 96.38L112 93.63ZM84.75 63.88L84.75 63.88Q82.13 63.88 79.75 64.19Q77.38 64.50 75.75 65.13L75.75 65.13L75.75 65.13Q71.38 66.75 68.31 70.69Q65.25 74.63 64.38 79.63L64.38 79.63L64.38 79.75Q63.50 83.63 63.13 87.06Q62.75 90.50 62.25 93.50L62.25 93.50L64.38 93.88Q64.88 90.75 65.19 87.38Q65.50 84 66.38 80.13L66.38 80.13L66.38 80.13L66.38 80.13Q67.25 75.50 70 71.94Q72.75 68.38 76.50 67L76.50 67L76.50 67L76.50 67Q77.75 66.50 80 66.25Q82.25 66 84.75 66L84.75 66Q87.13 66 89.50 66.25Q91.88 66.50 93.38 67.13L93.38 67.13L93.38 67.13Q97.13 68.38 99.81 71.94Q102.50 75.50 103.38 80.13L103.38 80.13L103.38 80.13L103.38 80.13Q104.25 84 104.63 87.38Q105 90.75 105.38 93.88L105.38 93.88L107.50 93.50Q107 90.50 106.63 87.06Q106.25 83.63 105.50 79.75L105.50 79.75L105.50 79.63Q104.50 74.63 101.44 70.69Q98.38 66.75 94 65.13L94 65.13L94 65.13L94 65.13Q92.25 64.50 89.75 64.19Q87.25 63.88 84.75 63.88L84.75 63.88ZM99.25 90L99.25 90Q99.25 89.13 98.56 88.38Q97.88 87.63 97 87.63L97 87.63Q96 87.63 95.31 88.38Q94.63 89.13 94.63 90L94.63 90Q94.63 91 95.31 91.75Q96 92.50 97 92.50L97 92.50Q97.88 92.50 98.56 91.75Q99.25 91 99.25 90ZM76.13 90L76.13 90Q76.13 89.13 75.50 88.38Q74.88 87.63 73.88 87.63L73.88 87.63Q72.88 87.63 72.25 88.38Q71.63 89.13 71.63 90L71.63 90Q71.63 91 72.25 91.75Q72.88 92.50 73.88 92.50L73.88 92.50Q74.88 92.50 75.50 91.75Q76.13 91 76.13 90ZM78 89.38L77.63 88.13L69.13 90.38L69.50 91.63L78 89.38ZM79.13 90.63L78.50 89.50L69.88 94.38L70.63 95.50L79.13 90.63ZM93.50 89.38L93.88 88.13L102.38 90.38L102 91.63L93.50 89.38ZM92.38 90.63L93 89.50L101.63 94.38L100.88 95.50L92.38 90.63ZM85.63 80.38L85.63 80.38Q82.25 80.38 79.75 82.75Q77.25 85.13 77.25 88.38L77.25 88.38Q77.25 91.75 79.75 94.06Q82.25 96.38 85.63 96.38L85.63 96.38Q89.13 96.38 91.56 94.06Q94 91.75 94 88.38L94 88.38Q94 85.13 91.56 82.75Q89.13 80.38 85.63 80.38ZM85.63 82.50L85.63 82.50Q88.25 82.50 90.13 84.25Q92 86 92 88.38L92 88.38Q92 90.75 90.13 92.50Q88.25 94.25 85.63 94.25L85.63 94.25Q83 94.25 81.19 92.50Q79.38 90.75 79.38 88.38L79.38 88.38Q79.38 86 81.19 84.25Q83 82.50 85.63 82.50ZM93.38 82.50L93.38 82.50Q93.38 81 94.38 79.94Q95.38 78.88 96.88 78.88L96.88 78.88Q98.38 78.88 99.38 79.94Q100.38 81 100.38 82.50L100.38 82.50Q100.38 84 99.38 85Q98.38 86 96.88 86L96.88 86Q95.38 86 94.38 85Q93.38 84 93.38 82.50L93.38 82.50ZM97.13 72.38L97.13 72.38Q97 72.38 97 72.38Q97 72.38 96.88 72.38L96.88 72.38Q95.88 72.38 94.94 72.75Q94 73.13 93.38 73.75L93.38 73.75L93.38 73.75L92.63 74.50L94.13 76L94.75 75.25Q95.25 74.88 95.75 74.63Q96.25 74.38 96.88 74.38L96.88 74.38Q96.88 74.38 96.94 74.38Q97 74.38 97 74.38L97 74.38L97 74.38Q97.63 74.50 98.25 74.81Q98.88 75.13 99.25 75.50L99.25 75.50L99.25 75.63L99.88 76.38L101.50 75.13L100.88 74.25Q100.13 73.50 99.19 72.94Q98.25 72.38 97.13 72.38L97.13 72.38L97.13 72.38L97.13 72.38ZM85.63 87.25L84.63 87.13L84.50 90.25Q84.25 90.25 84.06 90.44Q83.88 90.63 83.50 90.75L83.50 90.75Q83.25 90.88 83 90.88Q82.75 90.88 82.50 90.88L82.50 90.88Q82.38 90.75 82.25 90.63Q82.13 90.50 82 90.38L82 90.38Q82 90.25 82 90.19Q82 90.13 82 90L82 90Q82 89.75 82.06 89.44Q82.13 89.13 82.13 89L82.13 89L80.13 88.50Q80.13 88.75 80.06 89.06Q80 89.38 80 89.75L80 89.75Q79.88 90.13 79.88 90.38Q79.88 90.63 79.88 90.63L79.88 90.63L79.75 91L80 91.25Q80.38 91.88 80.94 92.25Q81.50 92.63 82 92.88L82 92.88Q82.63 93 83.13 92.94Q83.63 92.88 84.13 92.75L84.13 92.75Q84.75 92.50 85.06 92.25Q85.38 92 85.63 91.88L85.63 91.88Q85.88 92 86.19 92.25Q86.50 92.50 87.13 92.75L87.13 92.75Q87.63 92.88 88.13 92.94Q88.63 93 89.25 92.88L89.25 92.88Q89.88 92.63 90.38 92.25Q90.88 91.88 91.25 91.25L91.25 91.25L91.50 91L91.38 90.63Q91.38 90.63 91.31 89.81Q91.25 89 91.13 88.50L91.13 88.50L89.13 89Q89.13 89.13 89.19 89.56Q89.25 90 89.25 90.38L89.25 90.38Q89.13 90.50 89 90.63Q88.88 90.75 88.75 90.88L88.75 90.88Q88.50 90.88 88.31 90.88Q88.13 90.88 87.88 90.75L87.88 90.75Q87.50 90.63 87.25 90.44Q87 90.25 86.88 90.25L86.88 90.25L86.75 87.13L85.63 87.25ZM85.63 83.75L85.63 83.75Q85.25 83.75 84.88 83.81Q84.50 83.88 84.25 84L84.25 84Q84 84.13 83.81 84.19Q83.63 84.25 83.50 84.25L83.50 84.25Q83.13 84.25 82.81 84.38Q82.50 84.50 82.25 84.75L82.25 84.75Q82.13 85 82 85.25Q81.88 85.50 81.88 85.63L81.88 85.63Q81.75 86 81.69 86.31Q81.63 86.63 81.50 86.75L81.50 86.75Q81.38 87.13 81.50 87.44Q81.63 87.75 81.75 88L81.75 88Q81.75 88.13 81.88 88.25Q82 88.38 82.13 88.50L82.13 88.50Q82.50 88.75 82.75 89Q83 89.25 83.38 89.50L83.38 89.50Q83.75 89.75 84.19 90.06Q84.63 90.38 85 90.63L85 90.63L85.13 90.75L85.63 91L86.25 90.75Q86.25 90.75 86.75 90.38Q87.25 90 87.88 89.50L87.88 89.50Q88.25 89.25 88.56 89Q88.88 88.75 89.13 88.50L89.13 88.50Q89.25 88.38 89.38 88.25Q89.50 88.13 89.63 88L89.63 88L89.63 88Q89.75 87.75 89.81 87.44Q89.88 87.13 89.75 86.75L89.75 86.75Q89.75 86.63 89.69 86.31Q89.63 86 89.50 85.63L89.50 85.63Q89.38 85.50 89.31 85.25Q89.25 85 89 84.75L89 84.75Q88.88 84.50 88.50 84.38Q88.13 84.25 87.75 84.25L87.75 84.25Q87.63 84.25 87.50 84.19Q87.38 84.13 87 84L87 84Q86.75 83.88 86.44 83.81Q86.13 83.75 85.63 83.75L85.63 83.75ZM85.63 85.75L85.63 85.75Q85.75 85.75 85.94 85.81Q86.13 85.88 86.38 86L86.38 86Q86.63 86 86.88 86.06Q87.13 86.13 87.50 86.25L87.50 86.25Q87.50 86.25 87.50 86.25Q87.50 86.25 87.50 86.25L87.50 86.25Q87.50 86.38 87.56 86.63Q87.63 86.88 87.75 87L87.75 87Q87.63 87.13 87.63 87.13Q87.63 87.13 87.63 87.13L87.63 87.13Q87.50 87.25 87.25 87.44Q87 87.63 86.75 87.88L86.75 87.88Q86.38 88.13 86.13 88.31Q85.88 88.50 85.63 88.63L85.63 88.63Q85.38 88.50 85.19 88.31Q85 88.13 84.63 87.88L84.63 87.88Q84.38 87.75 84.13 87.50Q83.88 87.25 83.63 87.13L83.63 87.13L83.63 87.13Q83.63 87.13 83.63 87.13Q83.63 87.13 83.63 87L83.63 87Q83.63 86.88 83.69 86.63Q83.75 86.38 83.88 86.25L83.88 86.25Q83.88 86.25 83.88 86.25Q83.88 86.25 83.88 86.25L83.88 86.25Q84.13 86.13 84.44 86.06Q84.75 86 85 86L85 86L84.88 86Q85.13 85.88 85.31 85.81Q85.50 85.75 85.63 85.75ZM77.50 82.50L77.50 82.50Q77.50 81 76.50 79.94Q75.50 78.88 74 78.88L74 78.88Q72.63 78.88 71.56 79.94Q70.50 81 70.50 82.50L70.50 82.50Q70.50 84 71.56 85Q72.63 86 74 86L74 86Q75.50 86 76.50 85Q77.50 84 77.50 82.50L77.50 82.50ZM74.63 81.50L74.63 81.50Q74.63 80.75 74.13 80.19Q73.63 79.63 72.88 79.63L72.88 79.63Q72.13 79.63 71.63 80.19Q71.13 80.75 71.13 81.50L71.13 81.50Q71.13 82.25 71.63 82.75Q72.13 83.25 72.88 83.25L72.88 83.25Q73.63 83.25 74.13 82.75Q74.63 82.25 74.63 81.50L74.63 81.50ZM73.75 72.38L73.75 72.38Q72.63 72.38 71.69 72.94Q70.75 73.50 70 74.25L70 74.25L70 74.25L69.38 75.13L71 76.38L71.63 75.63Q72.13 75.13 72.69 74.81Q73.25 74.50 73.88 74.38L73.88 74.38L73.88 74.38Q73.88 74.38 73.94 74.38Q74 74.38 74 74.38L74 74.38Q74.63 74.38 75.13 74.63Q75.63 74.88 76.13 75.25L76.13 75.25L76.88 76L78.25 74.50L77.50 73.75Q76.88 73.13 75.94 72.75Q75 72.38 74 72.38L74 72.38Q74 72.38 73.94 72.38Q73.88 72.38 73.75 72.38L73.75 72.38L73.75 72.38ZM97.75 81.63L97.75 81.63Q97.75 81 97.25 80.44Q96.75 79.88 96 79.88L96 79.88Q95.38 79.88 94.88 80.44Q94.38 81 94.38 81.63L94.38 81.63Q94.38 82.38 94.88 82.94Q95.38 83.50 96 83.50L96 83.50Q96.75 83.50 97.25 82.94Q97.75 82.38 97.75 81.63ZM68 100.50L34.88 100.50L34.88 103.13L68 103.13L68 100.50ZM81.50 107.25L54.25 107.25L54.25 110L81.50 110L81.50 107.25Z"/></svg>