<svg xmlns="http://www.w3.org/2000/svg" xmlns:xlink="http://www.w3.org/1999/xlink" width="128" height="128"><path fill="#ffffff" d="M44.13 59.25L44.13 59.25Q42.88 59.25 41.88 59.75Q40.88 60.25 40.25 61.25L40.25 61.25L40.25 59.25L37.88 59.25L37.88 74.50L40.25 74.50L40.25 68.50Q40.88 69.50 41.88 70Q42.88 70.50 44.25 70.50L44.25 70.50Q46.63 70.50 48.06 68.94Q49.50 67.38 49.50 64.88L49.50 64.88Q49.50 62.38 48 60.81Q46.50 59.25 44.13 59.25L44.13 59.25ZM43.63 68.50L43.63 68.50Q42.25 68.50 41.25 67.44Q40.25 66.38 40.25 64.75L40.25 64.75Q40.25 63.25 41.25 62.25Q42.25 61.25 43.63 61.25L43.63 61.25Q45.13 61.25 46.13 62.25Q47.13 63.25 47.13 64.75L47.13 64.75Q47.13 66.38 46.13 67.44Q45.13 68.50 43.63 68.50ZM56.75 59.25L56.75 59.25Q54.13 59.25 52.56 60.81Q51 62.38 51 64.88L51 64.88Q51 67.38 52.56 68.94Q54.13 70.50 56.75 70.50L56.75 70.50Q59.38 70.50 60.94 68.94Q62.50 67.38 62.50 64.88L62.50 64.88Q62.50 62.38 60.94 60.81Q59.38 59.25 56.75 59.25L56.75 59.25ZM56.75 61.25L56.75 61.25Q58.25 61.25 59.19 62.25Q60.13 63.25 60.13 64.88L60.13 64.88Q60.13 66.50 59.19 67.50Q58.25 68.50 56.75 68.50L56.75 68.50Q55.25 68.50 54.31 67.50Q53.38 66.50 53.38 64.88L53.38 64.88Q53.38 63.25 54.31 62.25Q55.25 61.25 56.75 61.25L56.75 61.25ZM75.63 54.88L73.25 54.88L73.25 61.25Q72.63 60.25 71.63 59.69Q70.63 59.13 69.25 59.13L69.25 59.13Q67 59.13 65.50 60.69Q64 62.25 64 64.75L64 64.75Q64 67.38 65.50 68.94Q67 70.50 69.38 70.50L69.38 70.50Q70.63 70.50 71.63 70Q72.63 69.50 73.25 68.50L73.25 68.50L73.25 70.38L75.63 70.38L75.63 54.88ZM69.88 68.50L69.88 68.50Q68.38 68.50 67.38 67.50Q66.38 66.50 66.38 64.88L66.38 64.88Q66.38 63.25 67.38 62.25Q68.38 61.25 69.88 61.25L69.88 61.25Q71.38 61.25 72.31 62.25Q73.25 63.25 73.25 64.88L73.25 64.88Q73.25 66.50 72.31 67.50Q71.38 68.50 69.88 68.50ZM93.88 59.25L93.88 59.25Q92.25 59.25 91.19 59.88Q90.13 60.50 89.63 61.88L89.63 61.88Q89.25 60.63 88.25 59.94Q87.25 59.25 85.75 59.25L85.75 59.25Q84.38 59.25 83.31 59.75Q82.25 60.25 81.75 61.50L81.75 61.50L81.75 59.25L79.38 59.25L79.38 70.38L81.75 70.38L81.75 64.88Q81.75 63.50 82.56 62.50Q83.38 61.50 84.75 61.50L84.75 61.50Q86 61.50 86.69 62.19Q87.38 62.88 87.38 64.13L87.38 64.13L87.38 70.38L89.75 70.38L89.75 64.88Q89.75 63.50 90.56 62.50Q91.38 61.50 92.88 61.50L92.88 61.50Q94.13 61.50 94.81 62.19Q95.50 62.88 95.50 64.13L95.50 64.13L95.50 70.38L97.88 70.38L97.88 63.50Q97.88 61.50 96.81 60.38Q95.75 59.25 93.88 59.25L93.88 59.25ZM107.75 70.38L110.13 70.38L110.13 63.13Q110.13 61.25 108.94 60.25Q107.75 59.25 105.63 59.25L105.63 59.25Q104 59.25 103 59.56Q102 59.88 100.88 60.63L100.88 60.63L101.88 62.25Q102.63 61.75 103.50 61.44Q104.38 61.13 105.13 61.13L105.13 61.13Q106.38 61.13 107.06 61.75Q107.75 62.38 107.75 63.38L107.75 63.38L107.75 63.75L104.38 63.75Q102.38 63.75 101.31 64.63Q100.25 65.50 100.25 67.13L100.25 67.13Q100.25 68.50 101.25 69.50Q102.25 70.50 104.13 70.50L104.13 70.50Q105.38 70.50 106.31 70.13Q107.25 69.75 107.75 69L107.75 69L107.75 70.38ZM104.63 68.63L104.63 68.63Q103.63 68.63 103.06 68.19Q102.50 67.75 102.50 67L102.50 67Q102.50 66.13 103.06 65.81Q103.63 65.50 104.75 65.50L104.75 65.50L107.75 65.50L107.75 66.50Q107.63 67.38 106.75 68Q105.88 68.63 104.63 68.63ZM119.88 59.25L119.88 59.25Q118.50 59.25 117.44 59.75Q116.38 60.25 115.75 61.38L115.75 61.38L115.75 59.25L113.38 59.25L113.38 70.38L115.75 70.38L115.75 64.50Q115.88 63.25 116.69 62.38Q117.50 61.50 118.88 61.50L118.88 61.50Q120.13 61.50 120.88 62.19Q121.63 62.88 121.63 64.13L121.63 64.13L121.63 70.38L124 70.38L124 63.50Q124 61.50 122.94 60.38Q121.88 59.25 119.88 59.25L119.88 59.25ZM16 54.38L16 54.38Q15.25 54.38 14.50 54.44Q13.75 54.50 13.25 54.75L13.25 54.75Q11.88 55.25 10.94 56.44Q10 57.63 9.75 59.25L9.75 59.25L9.75 59.25Q9.50 60.50 9.38 61.56Q9.25 62.63 9.13 63.63L9.13 63.63Q9 64.50 8.75 65.38Q8.50 66.25 7.88 67.13L7.88 67.13L8.25 67.38Q8.88 66.50 9.13 65.56Q9.38 64.63 9.50 63.63L9.50 63.63Q9.63 62.63 9.75 61.56Q9.88 60.50 10.13 59.38L10.13 59.38L10.13 59.38Q10.38 57.88 11.25 56.75Q12.13 55.63 13.38 55.13L13.38 55.13L13.38 55.13L13.38 55.13Q13.75 55 14.50 54.88Q15.25 54.75 16 54.75L16 54.75Q16.75 54.75 17.50 54.88Q18.25 55 18.75 55.13L18.75 55.13Q19.88 55.63 20.75 56.75Q21.63 57.88 22 59.38L22 59.38L22 59.38L22 59.38Q22.25 60.50 22.31 61.56Q22.38 62.63 22.63 63.63L22.63 63.63Q22.75 64.63 23 65.56Q23.25 66.50 23.88 67.38L23.88 67.38L24.25 67.13Q23.63 66.25 23.38 65.38Q23.13 64.50 23 63.63L23 63.63Q22.88 62.63 22.75 61.56Q22.63 60.50 22.38 59.25L22.38 59.25L22.38 59.25Q22.13 57.63 21.19 56.44Q20.25 55.25 18.88 54.75L18.88 54.75L18.88 54.75Q18.38 54.50 17.56 54.44Q16.75 54.38 16 54.38L16 54.38ZM20.50 62.50L20.50 62.50Q20.50 62.13 20.31 61.94Q20.13 61.75 19.88 61.75L19.88 61.75Q19.50 61.75 19.31 61.94Q19.13 62.13 19.13 62.50L19.13 62.50Q19.13 62.75 19.31 63Q19.50 63.25 19.88 63.25L19.88 63.25Q20.13 63.25 20.31 63Q20.50 62.75 20.50 62.50L20.50 62.50ZM13.38 62.50L13.38 62.50Q13.38 62.13 13.13 61.94Q12.88 61.75 12.63 61.75L12.63 61.75Q12.38 61.75 12.13 61.94Q11.88 62.13 11.88 62.50L11.88 62.50Q11.88 62.75 12.13 63Q12.38 63.25 12.63 63.25L12.63 63.25Q12.88 63.25 13.13 63Q13.38 62.75 13.38 62.50ZM13.88 62.25L13.88 61.88L11.13 62.63L11.25 62.88L13.88 62.25ZM14.25 62.63L14.13 62.38L11.38 63.88L11.50 64.13L14.25 62.63ZM14.50 63.13L14.25 62.88L11.63 65.63L11.75 65.75L14.50 63.13ZM14.63 63.63L14.38 63.50L13 65.88L13.25 66.13L14.63 63.63ZM18.75 62.25L18.88 61.88L21.50 62.63L21.38 62.88L18.75 62.25ZM18.38 62.63L18.63 62.38L21.25 63.88L21.13 64.13L18.38 62.63ZM18.13 63.13L18.38 62.88L21.13 65.63L20.88 65.75L18.13 63.13ZM18 63.63L18.25 63.50L19.63 65.88L19.38 66.13L18 63.63ZM16.25 59.50L16.25 59.50Q15.25 59.50 14.50 60.25Q13.75 61 13.75 62L13.75 62Q13.75 63 14.50 63.69Q15.25 64.38 16.25 64.38L16.25 64.38Q17.38 64.38 18.06 63.69Q18.75 63 18.75 62L18.75 62Q18.75 61 18.06 60.25Q17.38 59.50 16.25 59.50L16.25 59.50ZM16.25 60L16.25 60Q17.13 60 17.75 60.56Q18.38 61.13 18.38 62L18.38 62Q18.38 62.75 17.75 63.31Q17.13 63.88 16.25 63.88L16.25 63.88Q15.38 63.88 14.81 63.31Q14.25 62.75 14.25 62L14.25 62Q14.25 61.13 14.81 60.56Q15.38 60 16.25 60L16.25 60ZM18.75 60.13L18.75 60.13Q18.75 59.63 19.06 59.31Q19.38 59 19.75 59L19.75 59Q20.25 59 20.56 59.31Q20.88 59.63 20.88 60.13L20.88 60.13Q20.88 60.63 20.56 60.94Q20.25 61.25 19.75 61.25L19.75 61.25Q19.38 61.25 19.06 60.88Q18.75 60.50 18.75 60.13L18.75 60.13ZM19.88 57L19.88 57Q19.88 57 19.88 57Q19.88 57 19.75 57L19.75 57Q19.50 57 19.25 57.13Q19 57.25 18.75 57.50L18.75 57.50L18.75 57.50L18.63 57.63L18.88 57.88L19.13 57.75Q19.25 57.63 19.44 57.56Q19.63 57.50 19.88 57.50L19.88 57.50Q20.13 57.50 20.31 57.56Q20.50 57.63 20.63 57.88L20.63 57.88L20.75 58L21.13 57.75L21 57.63Q20.75 57.38 20.50 57.19Q20.25 57 19.88 57L19.88 57L19.88 57ZM16.25 61.63L16 61.63L16 62.63Q16 62.63 15.88 62.69Q15.75 62.75 15.63 62.75L15.63 62.75Q15.63 62.88 15.56 62.88Q15.50 62.88 15.38 62.88L15.38 62.88Q15.38 62.88 15.38 62.88Q15.38 62.88 15.25 62.88L15.25 62.88L15.25 62.88Q15.25 62.75 15.19 62.75Q15.13 62.75 15 62.63L15 62.63Q15 62.50 15.06 62.31Q15.13 62.13 15.13 62.13L15.13 62.13L14.63 62Q14.63 62.13 14.63 62.31Q14.63 62.50 14.63 62.63L14.63 62.63L14.63 62.63L14.63 62.75L14.63 62.75Q14.75 63 14.88 63.13Q15 63.25 15.13 63.25L15.13 63.25L15.25 63.25Q15.38 63.25 15.50 63.25Q15.63 63.25 15.75 63.25L15.75 63.25Q16 63.13 16.13 63.06Q16.25 63 16.25 62.88L16.25 62.88Q16.38 63 16.50 63.06Q16.63 63.13 16.75 63.25L16.75 63.25Q16.88 63.25 17.06 63.25Q17.25 63.25 17.38 63.25L17.38 63.25Q17.63 63.25 17.75 63.13Q17.88 63 18 62.88L18 62.88L18 62.75L18 62.75L18 62.63Q18 62.63 17.94 62.38Q17.88 62.13 17.88 62L17.88 62L17.50 62.13Q17.50 62.13 17.50 62.31Q17.50 62.50 17.50 62.63L17.50 62.63Q17.50 62.75 17.44 62.75Q17.38 62.75 17.25 62.88L17.25 62.88Q17.25 62.88 17.19 62.88Q17.13 62.88 17.13 62.88L17.13 62.88Q17.13 62.88 17.06 62.88Q17 62.88 16.88 62.75L16.88 62.75L16.88 62.75Q16.75 62.75 16.69 62.69Q16.63 62.63 16.63 62.63L16.63 62.63L16.50 61.63L16.25 61.63ZM16.25 60.63L16.25 60.63Q16.13 60.63 16.06 60.63Q16 60.63 15.88 60.63L15.88 60.63Q15.88 60.75 15.81 60.75Q15.75 60.75 15.63 60.75L15.63 60.75L15.63 60.75Q15.50 60.75 15.44 60.81Q15.38 60.88 15.38 60.88L15.38 60.88L15.38 60.88Q15.25 61 15.25 61Q15.25 61 15.25 61.13L15.25 61.13L15.25 61.13Q15.13 61.25 15.13 61.38Q15.13 61.50 15.13 61.50L15.13 61.50L15.13 61.50L15.13 61.50Q15.13 61.63 15.13 61.69Q15.13 61.75 15.13 61.75L15.13 61.75Q15.13 61.88 15.19 61.88Q15.25 61.88 15.25 61.88L15.25 61.88L15.25 61.88Q15.38 62 15.44 62.06Q15.50 62.13 15.63 62.25L15.63 62.25Q15.88 62.38 16 62.50Q16.13 62.63 16.13 62.63L16.13 62.63L16.25 62.63L16.38 62.63Q16.38 62.63 16.56 62.50Q16.75 62.38 17 62.25L17 62.25Q17 62.13 17.13 62.06Q17.25 62 17.25 61.88L17.25 61.88Q17.38 61.88 17.38 61.88Q17.38 61.88 17.38 61.75L17.38 61.75L17.38 61.75Q17.50 61.75 17.50 61.69Q17.50 61.63 17.50 61.63L17.50 61.63Q17.50 61.50 17.50 61.50Q17.50 61.50 17.50 61.50L17.50 61.50L17.50 61.50Q17.50 61.50 17.44 61.38Q17.38 61.25 17.38 61.13L17.38 61.13Q17.38 61 17.31 61Q17.25 61 17.25 60.88L17.25 60.88L17.25 60.88Q17.25 60.88 17.13 60.81Q17 60.75 17 60.75L17 60.75L17 60.75Q16.88 60.75 16.81 60.75Q16.75 60.75 16.63 60.63L16.63 60.63L16.75 60.63Q16.63 60.63 16.50 60.63Q16.38 60.63 16.25 60.63L16.25 60.63ZM16.25 61L16.25 61Q16.38 61 16.44 61.06Q16.50 61.13 16.50 61.13L16.50 61.13L16.50 61.13Q16.63 61.13 16.75 61.13Q16.88 61.13 16.88 61.13L16.88 61.13Q16.88 61.13 16.94 61.19Q17 61.25 17 61.25L17 61.25Q17 61.38 17 61.44Q17 61.50 17 61.63L17 61.63Q17 61.63 17 61.63Q17 61.63 17 61.63L17 61.63L17 61.63Q16.88 61.75 16.81 61.81Q16.75 61.88 16.63 61.88L16.63 61.88L16.63 61.88Q16.50 62 16.44 62.06Q16.38 62.13 16.25 62.13L16.25 62.13Q16.25 62.13 16.13 62.06Q16 62 15.88 61.88L15.88 61.88Q15.88 61.88 15.75 61.81Q15.63 61.75 15.63 61.63L15.63 61.63L15.63 61.63Q15.63 61.63 15.56 61.63Q15.50 61.63 15.50 61.63L15.50 61.63L15.50 61.63Q15.50 61.50 15.56 61.44Q15.63 61.38 15.63 61.25L15.63 61.25Q15.63 61.25 15.63 61.25Q15.63 61.25 15.63 61.13L15.63 61.13L15.63 61.13Q15.75 61.13 15.88 61.13Q16 61.13 16 61.13L16 61.13Q16.13 61.13 16.19 61.06Q16.25 61 16.25 61L16.25 61L16.25 61ZM15.50 61.63L15.50 61.63Q15.50 61.63 15.50 61.63Q15.50 61.63 15.50 61.63L15.50 61.63L15.50 61.63Q15.50 61.63 15.50 61.63Q15.50 61.63 15.50 61.63ZM13.75 60.13L13.75 60.13Q13.75 59.63 13.44 59.31Q13.13 59 12.63 59L12.63 59Q12.25 59 11.88 59.31Q11.50 59.63 11.50 60.13L11.50 60.13Q11.50 60.63 11.88 60.94Q12.25 61.25 12.63 61.25L12.63 61.25Q13.13 61.25 13.44 60.88Q13.75 60.50 13.75 60.13L13.75 60.13ZM12.88 59.75L12.88 59.75Q12.88 59.75 12.88 59.75Q12.88 59.75 12.88 59.75L12.88 59.75Q12.88 59.50 12.69 59.38Q12.50 59.25 12.25 59.25L12.25 59.25L12.25 59.25Q12.13 59.25 11.94 59.38Q11.75 59.50 11.75 59.75L11.75 59.75Q11.75 60 11.94 60.19Q12.13 60.38 12.25 60.38L12.25 60.38Q12.50 60.38 12.69 60.19Q12.88 60 12.88 59.75L12.88 59.75ZM12.63 57L12.63 57Q12.25 57 11.94 57.19Q11.63 57.38 11.50 57.63L11.50 57.63L11.50 57.63L11.38 57.75L11.75 58L11.88 57.88Q12 57.63 12.19 57.56Q12.38 57.50 12.63 57.50L12.63 57.50L12.63 57.50Q12.88 57.50 13.06 57.56Q13.25 57.63 13.38 57.75L13.38 57.75L13.50 57.88L13.88 57.63L13.63 57.50Q13.50 57.25 13.25 57.13Q13 57 12.63 57L12.63 57Q12.63 57 12.63 57Q12.63 57 12.63 57L12.63 57L12.63 57L12.63 57ZM20 59.75L20 59.75Q20 59.75 20 59.75Q20 59.75 20 59.75L20 59.75Q20 59.50 19.81 59.38Q19.63 59.25 19.38 59.25L19.38 59.25L19.38 59.25Q19.25 59.25 19.06 59.38Q18.88 59.50 18.88 59.75L18.88 59.75Q18.88 59.75 18.88 59.75Q18.88 59.75 18.88 59.75L18.88 59.75L18.88 59.75Q18.88 60 19.06 60.19Q19.25 60.38 19.38 60.38L19.38 60.38Q19.63 60.38 19.81 60.19Q20 60 20 59.75L20 59.75Q20 59.75 20 59.75Q20 59.75 20 59.75L20 59.75L20 59.75ZM11.38 64.38L11.38 64.38Q10.88 64.38 10.44 64.44Q10 64.50 9.63 64.63L9.63 64.63Q8.75 65 8.13 65.81Q7.50 66.63 7.38 67.63L7.38 67.63L7.38 67.63Q7.13 68.38 7.06 69.06Q7 69.75 7 70.38L7 70.38L7.38 70.50Q7.50 69.88 7.56 69.19Q7.63 68.50 7.75 67.75L7.75 67.75L7.75 67.75Q8 66.75 8.50 66.06Q9 65.38 9.75 65.13L9.75 65.13L9.75 65.13L9.75 65.13Q10 65 10.50 64.94Q11 64.88 11.38 64.88L11.38 64.88Q11.88 64.88 12.38 64.94Q12.88 65 13.13 65.13L13.13 65.13L13.13 65.13Q13.88 65.38 14.44 66.06Q15 66.75 15.13 67.75L15.13 67.75L15.13 67.75L15.13 67.75Q15.38 68.50 15.44 69.19Q15.50 69.88 15.63 70.50L15.63 70.50L16 70.38Q15.88 69.75 15.81 69.06Q15.75 68.38 15.63 67.63L15.63 67.63Q15.38 66.63 14.75 65.81Q14.13 65 13.25 64.63L13.25 64.63L13.25 64.63L13.25 64.63Q12.88 64.50 12.44 64.44Q12 64.38 11.38 64.38L11.38 64.38ZM14.38 69.75L14.38 69.75Q14.38 69.75 14.38 69.69Q14.38 69.63 14.38 69.63L14.38 69.63Q14.38 69.50 14.25 69.38Q14.13 69.25 13.88 69.25L13.88 69.25L13.88 69.25Q13.75 69.25 13.56 69.38Q13.38 69.50 13.38 69.63L13.38 69.63Q13.38 69.63 13.38 69.69Q13.38 69.75 13.38 69.75L13.38 69.75L13.38 69.75Q13.38 69.88 13.56 70Q13.75 70.13 13.88 70.13L13.88 70.13Q14.13 70.13 14.25 70Q14.38 69.88 14.38 69.75L14.38 69.75Q14.38 69.75 14.38 69.75Q14.38 69.75 14.38 69.75L14.38 69.75L14.38 69.75ZM9.75 69.75L9.75 69.75Q9.75 69.75 9.75 69.69Q9.75 69.63 9.75 69.63L9.75 69.63Q9.75 69.50 9.63 69.38Q9.50 69.25 9.25 69.25L9.25 69.25L9.25 69.25Q9.13 69.25 9 69.38Q8.88 69.50 8.88 69.63L8.88 69.63Q8.88 69.63 8.88 69.69Q8.88 69.75 8.88 69.75L8.88 69.75L8.88 69.75Q8.88 69.88 9 70Q9.13 70.13 9.25 70.13L9.25 70.13Q9.50 70.13 9.63 70Q9.75 69.88 9.75 69.75L9.75 69.75ZM13.13 69.38L13.13 69.38Q13.13 68.75 12.69 68.38Q12.25 68 11.63 68L11.63 68Q11 68 10.56 68.38Q10.13 68.75 10.13 69.38L10.13 69.38Q10.13 69.88 10.56 70.31Q11 70.75 11.63 70.75L11.63 70.75Q12.25 70.75 12.69 70.31Q13.13 69.88 13.13 69.38ZM11.63 67.75L11.63 67.75Q10.88 67.75 10.44 68.25Q10 68.75 10 69.38L10 69.38Q10 70 10.44 70.50Q10.88 71 11.63 71L11.63 71Q12.38 71 12.88 70.50Q13.38 70 13.38 69.38L13.38 69.38Q13.38 68.75 12.88 68.25Q12.38 67.75 11.63 67.75ZM11.63 68.25L11.63 68.25Q12.13 68.25 12.50 68.56Q12.88 68.88 12.88 69.38L12.88 69.38Q12.88 69.88 12.50 70.19Q12.13 70.50 11.63 70.50L11.63 70.50Q11.13 70.50 10.75 70.19Q10.38 69.88 10.38 69.38L10.38 69.38Q10.38 68.88 10.75 68.56Q11.13 68.25 11.63 68.25L11.63 68.25ZM13.13 68.13L13.13 68.13Q13.13 67.88 13.38 67.69Q13.63 67.50 13.88 67.50L13.88 67.50Q14.13 67.50 14.38 67.69Q14.63 67.88 14.63 68.13L14.63 68.13Q14.63 68.13 14.63 68.13Q14.63 68.13 14.63 68.13L14.63 68.13Q14.63 68.50 14.38 68.69Q14.13 68.88 13.88 68.88L13.88 68.88L13.88 68.88Q13.63 68.88 13.38 68.69Q13.13 68.50 13.13 68.13L13.13 68.13Q13.13 68.13 13.13 68.13Q13.13 68.13 13.13 68.13L13.13 68.13L13.13 68.13ZM13.88 66.13L13.88 66.13Q13.88 66.13 13.88 66.13Q13.88 66.13 13.88 66.13L13.88 66.13Q13.63 66.13 13.44 66.19Q13.25 66.25 13.13 66.38L13.13 66.38L13.13 66.38L13 66.63L13.38 66.88L13.50 66.75Q13.50 66.63 13.63 66.63Q13.75 66.63 13.88 66.63L13.88 66.63Q13.88 66.63 13.88 66.63Q13.88 66.63 13.88 66.63L13.88 66.63L13.88 66.63Q14 66.63 14.13 66.69Q14.25 66.75 14.38 66.75L14.38 66.75L14.38 66.75L14.50 67L14.88 66.75L14.63 66.50Q14.50 66.38 14.31 66.25Q14.13 66.13 13.88 66.13L13.88 66.13L13.88 66.13ZM12.25 69.13L12.25 69.13Q12.25 69 12.19 68.88Q12.13 68.75 12 68.75L12 68.75Q12 68.75 11.88 68.69Q11.75 68.63 11.63 68.63L11.63 68.63Q11.50 68.63 11.38 68.69Q11.25 68.75 11.25 68.75L11.25 68.75Q11.13 68.75 11.06 68.88Q11 69 11 69.13L11 69.13Q11 69.25 11.31 69.44Q11.63 69.63 11.63 69.63L11.63 69.63Q11.63 69.63 11.94 69.44Q12.25 69.25 12.25 69.13L12.25 69.13ZM11.63 68.38L11.63 68.38Q11.50 68.38 11.44 68.44Q11.38 68.50 11.38 68.50L11.38 68.50Q11.25 68.50 11.25 68.50Q11.25 68.50 11.25 68.50L11.25 68.50L11.25 68.50Q11.13 68.50 11.06 68.56Q11 68.63 11 68.63L11 68.63L11 68.63Q10.88 68.63 10.88 68.69Q10.88 68.75 10.88 68.75L10.88 68.75L10.88 68.75Q10.88 68.88 10.81 68.94Q10.75 69 10.75 69L10.75 69L10.75 69L10.75 69Q10.75 69 10.75 69.06Q10.75 69.13 10.75 69.13L10.75 69.13Q10.75 69.13 10.75 69.19Q10.75 69.25 10.88 69.25L10.88 69.25L10.88 69.25Q10.88 69.38 10.88 69.38Q10.88 69.38 10.88 69.38L10.88 69.38L10.88 69.38Q11 69.50 11.06 69.50Q11.13 69.50 11.13 69.63L11.13 69.63Q11.25 69.75 11.38 69.81Q11.50 69.88 11.50 69.88L11.50 69.88L11.63 69.88L11.75 69.88Q11.75 69.88 11.88 69.81Q12 69.75 12.13 69.63L12.13 69.63Q12.13 69.50 12.19 69.50Q12.25 69.50 12.38 69.38L12.38 69.38Q12.38 69.38 12.38 69.38Q12.38 69.38 12.38 69.25L12.38 69.25L12.38 69.25Q12.50 69.25 12.50 69.19Q12.50 69.13 12.50 69.13L12.50 69.13Q12.50 69.13 12.50 69.06Q12.50 69 12.50 69L12.50 69L12.50 69L12.50 69Q12.50 69 12.44 68.94Q12.38 68.88 12.38 68.75L12.38 68.75Q12.38 68.75 12.38 68.69Q12.38 68.63 12.25 68.63L12.25 68.63L12.25 68.63Q12.25 68.63 12.19 68.56Q12.13 68.50 12 68.50L12 68.50L12 68.50Q12 68.50 12 68.50Q12 68.50 11.88 68.50L11.88 68.50L11.88 68.50Q11.88 68.50 11.81 68.44Q11.75 68.38 11.63 68.38L11.63 68.38ZM11.63 68.88L11.63 68.88Q11.63 68.88 11.69 68.88Q11.75 68.88 11.75 68.88L11.75 68.88Q11.75 68.88 11.81 68.88Q11.88 68.88 12 68.88L12 68.88L12 68.88Q12 69 12 69Q12 69 12 69.13L12 69.13Q12 69.13 12 69.13Q12 69.13 12 69.13L12 69.13Q12 69.13 11.94 69.19Q11.88 69.25 11.88 69.25L11.88 69.25L11.88 69.25Q11.75 69.25 11.69 69.31Q11.63 69.38 11.63 69.38L11.63 69.38Q11.63 69.38 11.56 69.31Q11.50 69.25 11.38 69.25L11.38 69.25Q11.38 69.25 11.31 69.19Q11.25 69.13 11.25 69.13L11.25 69.13L11.25 69.13Q11.25 69 11.25 69Q11.25 69 11.25 68.88L11.25 68.88L11.25 68.88L11.25 68.88Q11.38 68.88 11.44 68.88Q11.50 68.88 11.50 68.88L11.50 68.88Q11.50 68.88 11.56 68.88Q11.63 68.88 11.63 68.88L11.63 68.88L11.63 68.88ZM11.25 69.25L11.25 69.13L11.25 69.13L11.25 69.25ZM10 68.13L10 68.13Q10 68.13 10 68.13Q10 68.13 10 68.13L10 68.13Q10 67.88 9.81 67.69Q9.63 67.50 9.25 67.50L9.25 67.50L9.25 67.50Q9 67.50 8.81 67.69Q8.63 67.88 8.63 68.13L8.63 68.13Q8.63 68.13 8.63 68.13Q8.63 68.13 8.63 68.13L8.63 68.13L8.63 68.13Q8.63 68.50 8.81 68.69Q9 68.88 9.25 68.88L9.25 68.88Q9.63 68.88 9.81 68.69Q10 68.50 10 68.13ZM9.38 68L9.38 68Q9.38 67.88 9.31 67.75Q9.25 67.63 9.13 67.63L9.13 67.63Q8.88 67.63 8.81 67.75Q8.75 67.88 8.75 68L8.75 68Q8.75 68 8.75 68Q8.75 68 8.75 68L8.75 68L8.75 68Q8.75 68.13 8.81 68.25Q8.88 68.38 9.13 68.38L9.13 68.38Q9.25 68.38 9.31 68.25Q9.38 68.13 9.38 68L9.38 68Q9.38 68 9.38 68Q9.38 68 9.38 68L9.38 68ZM9.25 66.13L9.25 66.13Q9 66.13 8.81 66.25Q8.63 66.38 8.50 66.50L8.50 66.50L8.50 66.50L8.38 66.75L8.75 67L8.88 66.75Q8.88 66.75 9 66.69Q9.13 66.63 9.25 66.63L9.25 66.63Q9.38 66.63 9.50 66.63Q9.63 66.63 9.75 66.75L9.75 66.75L9.75 66.75L9.88 66.88L10.13 66.63L10 66.38Q9.88 66.25 9.69 66.19Q9.50 66.13 9.25 66.13L9.25 66.13Q9.25 66.13 9.25 66.13Q9.25 66.13 9.25 66.13L9.25 66.13L9.25 66.13ZM14 68L14 68Q14 68 14 68Q14 68 14 68L14 68Q14 67.88 13.94 67.75Q13.88 67.63 13.63 67.63L13.63 67.63L13.63 67.63Q13.50 67.63 13.44 67.75Q13.38 67.88 13.38 68L13.38 68Q13.38 68 13.38 68Q13.38 68 13.38 68L13.38 68L13.38 68Q13.38 68.13 13.44 68.25Q13.50 68.38 13.63 68.38L13.63 68.38Q13.88 68.38 13.94 68.25Q14 68.13 14 68L14 68Q14 68 14 68Q14 68 14 68L14 68L14 68ZM22.50 51.38L22.50 51.38L10.63 51.50Q10.50 51.50 10.50 51.50Q10.50 51.50 10.38 51.50L10.38 51.50L10.38 51.63L3 60.88Q3 60.88 3 60.94Q3 61 3 61.13L3 61.13Q3 61.13 3 61.13Q3 61.13 3 61.13L3 61.13L3 61.13L5.63 72.75Q5.63 72.88 5.69 72.88Q5.75 72.88 5.75 73L5.75 73L5.75 73L16.50 78.13Q16.50 78.13 16.56 78.13Q16.63 78.13 16.63 78.13L16.63 78.13Q16.75 78.13 16.75 78.13Q16.75 78.13 16.75 78.13L16.75 78.13L16.75 78.13L27.50 72.88Q27.50 72.88 27.56 72.81Q27.63 72.75 27.63 72.75L27.63 72.75L27.63 72.63L30.25 61.13Q30.25 61 30.25 61Q30.25 61 30.25 61L30.25 61Q30.25 61 30.25 60.94Q30.25 60.88 30.25 60.88L30.25 60.88L30.25 60.88L22.75 51.50Q22.75 51.50 22.69 51.44Q22.63 51.38 22.50 51.38L22.50 51.38Q22.50 51.38 22.50 51.38Q22.50 51.38 22.50 51.38L22.50 51.38L22.50 51.38ZM10.75 52L22.38 52L29.63 61.13L27.13 72.38L16.63 77.50L6.13 72.50L3.50 61.13L10.75 52ZM17.38 69.38L6.38 69.38L6.38 69.88L17.38 69.88L17.38 69.38ZM26.88 71.50L11.63 71.50L11.63 72.13L26.88 72.13L26.88 71.50ZM21 65.13L21 65.13Q20.50 65.13 20 65.19Q19.50 65.25 19.13 65.38L19.13 65.38L19.13 65.38Q18.25 65.75 17.56 66.63Q16.88 67.50 16.75 68.50L16.75 68.50L16.75 68.50Q16.50 69.38 16.44 70.13Q16.38 70.88 16.25 71.50L16.25 71.50L16.75 71.63Q16.75 70.88 16.88 70.19Q17 69.50 17.13 68.63L17.13 68.63L17.13 68.63L17.13 68.63Q17.38 67.63 17.94 66.88Q18.50 66.13 19.25 65.88L19.25 65.88L19.25 65.88L19.25 65.88Q19.63 65.75 20.06 65.69Q20.50 65.63 21 65.63L21 65.63Q21.63 65.63 22.13 65.69Q22.63 65.75 22.88 65.88L22.88 65.88Q23.75 66.13 24.31 66.88Q24.88 67.63 25 68.63L25 68.63L25 68.63Q25.25 69.50 25.31 70.19Q25.38 70.88 25.50 71.63L25.50 71.63L25.88 71.50Q25.88 70.88 25.75 70.13Q25.63 69.38 25.50 68.50L25.50 68.50L25.50 68.50Q25.25 67.50 24.63 66.63Q24 65.75 23 65.38L23 65.38L23 65.38Q22.63 65.25 22.13 65.19Q21.63 65.13 21 65.13L21 65.13ZM24.13 70.75L24.13 70.75Q24.13 70.75 24.13 70.75Q24.13 70.75 24.13 70.75L24.13 70.75Q24.13 70.50 24 70.38Q23.88 70.25 23.63 70.25L23.63 70.25L23.63 70.25Q23.50 70.25 23.38 70.38Q23.25 70.50 23.25 70.75L23.25 70.75Q23.25 70.75 23.25 70.75Q23.25 70.75 23.25 70.75L23.25 70.75L23.25 70.75Q23.25 71 23.38 71.13Q23.50 71.25 23.63 71.25L23.63 71.25Q23.88 71.25 24 71.13Q24.13 71 24.13 70.75ZM19.25 70.75L19.25 70.75Q19.25 70.75 19.25 70.75Q19.25 70.75 19.25 70.75L19.25 70.75Q19.25 70.50 19.13 70.38Q19 70.25 18.75 70.25L18.75 70.25L18.75 70.25Q18.50 70.25 18.38 70.38Q18.25 70.50 18.25 70.75L18.25 70.75Q18.25 70.75 18.25 70.75Q18.25 70.75 18.25 70.75L18.25 70.75L18.25 70.75Q18.25 71 18.38 71.13Q18.50 71.25 18.75 71.25L18.75 71.25Q19 71.25 19.13 71.13Q19.25 71 19.25 70.75ZM19.63 70.63L19.50 70.38L17.75 70.88L17.75 71.13L19.63 70.63ZM19.88 70.88L19.75 70.63L17.88 71.75L18 72L19.88 70.88ZM22.88 70.63L23 70.38L24.88 70.88L24.75 71.13L22.88 70.63ZM22.75 70.88L22.88 70.63L24.63 71.75L24.50 72L22.75 70.88ZM21.25 68.75L21.25 68.75Q20.50 68.75 20 69.25Q19.50 69.75 19.50 70.38L19.50 70.38Q19.50 71.13 20 71.63Q20.50 72.13 21.25 72.13L21.25 72.13Q22 72.13 22.50 71.63Q23 71.13 23 70.38L23 70.38Q23 69.75 22.50 69.25Q22 68.75 21.25 68.75L21.25 68.75ZM21.25 69.13L21.25 69.13Q21.88 69.13 22.25 69.50Q22.63 69.88 22.63 70.38L22.63 70.38Q22.63 70.88 22.25 71.25Q21.88 71.63 21.25 71.63L21.25 71.63Q20.75 71.63 20.31 71.25Q19.88 70.88 19.88 70.38L19.88 70.38Q19.88 69.88 20.31 69.50Q20.75 69.13 21.25 69.13L21.25 69.13ZM22.88 69.13L22.88 69.13Q22.88 68.88 23.13 68.63Q23.38 68.38 23.63 68.38L23.63 68.38Q24 68.38 24.19 68.63Q24.38 68.88 24.38 69.13L24.38 69.13Q24.38 69.50 24.19 69.69Q24 69.88 23.63 69.88L23.63 69.88Q23.38 69.88 23.13 69.69Q22.88 69.50 22.88 69.13ZM23.75 67L23.75 67Q23.50 67 23.31 67.06Q23.13 67.13 22.88 67.25L22.88 67.25L22.75 67.38L23.13 67.75L23.25 67.63Q23.25 67.50 23.38 67.44Q23.50 67.38 23.63 67.38L23.63 67.38Q23.63 67.38 23.63 67.38Q23.63 67.38 23.75 67.38L23.75 67.38L23.75 67.38Q23.88 67.38 24 67.44Q24.13 67.50 24.13 67.63L24.13 67.63L24.25 67.88L24.63 67.50L24.50 67.38Q24.38 67.25 24.19 67.13Q24 67 23.75 67L23.75 67L23.75 67ZM21.25 70.13L21 70.13L21 70.75Q21 70.88 20.94 70.88Q20.88 70.88 20.75 70.88L20.75 70.88Q20.75 70.88 20.75 70.88Q20.75 70.88 20.63 70.88L20.63 70.88Q20.63 70.88 20.63 70.88Q20.63 70.88 20.63 70.88L20.63 70.88L20.63 70.88Q20.63 70.88 20.56 70.88Q20.50 70.88 20.50 70.88L20.50 70.88L20.50 70.75Q20.50 70.75 20.50 70.63Q20.50 70.50 20.50 70.50L20.50 70.50L20.13 70.38Q20.13 70.50 20.06 70.56Q20 70.63 20 70.75L20 70.75L20 70.88L20 71L20 71Q20.13 71.13 20.25 71.25Q20.38 71.38 20.50 71.38L20.50 71.38L20.50 71.38Q20.50 71.38 20.56 71.38Q20.63 71.38 20.63 71.38L20.63 71.38Q20.75 71.38 20.81 71.38Q20.88 71.38 20.88 71.38L20.88 71.38L20.88 71.38Q21.13 71.25 21.19 71.19Q21.25 71.13 21.25 71.13L21.25 71.13Q21.25 71.13 21.31 71.19Q21.38 71.25 21.63 71.38L21.63 71.38Q21.63 71.38 21.69 71.38Q21.75 71.38 21.88 71.38L21.88 71.38Q21.88 71.38 21.94 71.38Q22 71.38 22 71.38L22 71.38L22 71.38Q22.13 71.38 22.25 71.25Q22.38 71.13 22.50 71L22.50 71L22.50 71L22.50 71L22.50 70.88L22.50 70.75Q22.50 70.63 22.44 70.56Q22.38 70.50 22.38 70.38L22.38 70.38L22 70.50Q22 70.50 22 70.63Q22 70.75 22 70.75L22 70.75L22 70.88Q22 70.88 22 70.88Q22 70.88 21.88 70.88L21.88 70.88Q21.88 70.88 21.88 70.88Q21.88 70.88 21.88 70.88L21.88 70.88Q21.88 70.88 21.81 70.88Q21.75 70.88 21.75 70.88L21.75 70.88L21.75 70.88Q21.63 70.88 21.56 70.88Q21.50 70.88 21.50 70.75L21.50 70.75L21.50 70.13L21.25 70.13ZM21.25 69.38L21.25 69.38Q21.13 69.38 21.06 69.44Q21 69.50 21 69.50L21 69.50Q20.88 69.50 20.88 69.50Q20.88 69.50 20.75 69.50L20.75 69.50L20.75 69.50Q20.75 69.50 20.69 69.56Q20.63 69.63 20.50 69.63L20.50 69.63L20.50 69.63Q20.50 69.63 20.50 69.69Q20.50 69.75 20.50 69.75L20.50 69.75L20.50 69.88Q20.38 69.88 20.38 69.94Q20.38 70 20.38 70L20.38 70L20.38 70Q20.38 70.13 20.38 70.13Q20.38 70.13 20.38 70.13L20.38 70.13Q20.38 70.25 20.38 70.25Q20.38 70.25 20.38 70.38L20.38 70.38L20.38 70.38Q20.50 70.38 20.50 70.38Q20.50 70.38 20.50 70.50L20.50 70.50Q20.63 70.50 20.69 70.56Q20.75 70.63 20.75 70.63L20.75 70.63Q20.88 70.75 21 70.81Q21.13 70.88 21.13 70.88L21.13 70.88L21.25 71L21.38 70.88Q21.38 70.88 21.50 70.81Q21.63 70.75 21.75 70.63L21.75 70.63Q21.88 70.63 21.94 70.56Q22 70.50 22 70.50L22 70.50Q22 70.38 22 70.38Q22 70.38 22.13 70.38L22.13 70.38L22.25 70.38L22.13 70L22.13 70Q22.13 70 22.13 69.94Q22.13 69.88 22.13 69.88L22.13 69.88Q22 69.75 22 69.69Q22 69.63 22 69.63L22 69.63L22 69.63Q21.88 69.63 21.81 69.56Q21.75 69.50 21.75 69.50L21.75 69.50L21.75 69.50Q21.63 69.50 21.63 69.50Q21.63 69.50 21.50 69.50L21.50 69.50L21.63 69.50Q21.50 69.50 21.44 69.44Q21.38 69.38 21.25 69.38L21.25 69.38ZM21.25 69.88L21.25 69.88Q21.25 69.88 21.31 69.88Q21.38 69.88 21.38 69.88L21.38 69.88Q21.50 69.88 21.50 69.88Q21.50 69.88 21.63 69.88L21.63 69.88L21.75 70.13Q21.63 70.13 21.56 70.19Q21.50 70.25 21.50 70.25L21.50 70.25Q21.38 70.38 21.31 70.38Q21.25 70.38 21.25 70.50L21.25 70.50Q21.25 70.38 21.19 70.38Q21.13 70.38 21 70.25L21 70.25Q21 70.25 20.94 70.19Q20.88 70.13 20.88 70.13L20.88 70.13L20.88 70.13Q20.88 70.13 20.88 70.06Q20.88 70 20.88 70L20.88 70Q20.88 69.88 20.88 69.88Q20.88 69.88 20.88 69.88L20.88 69.88Q21 69.88 21.06 69.88Q21.13 69.88 21.13 69.88L21.13 69.88Q21.13 69.88 21.19 69.88Q21.25 69.88 21.25 69.88L21.25 69.88L21.25 69.88ZM19.50 69.13L19.50 69.13Q19.50 68.88 19.31 68.63Q19.13 68.38 18.75 68.38L18.75 68.38Q18.50 68.38 18.25 68.63Q18 68.88 18 69.13L18 69.13Q18 69.50 18.25 69.69Q18.50 69.88 18.75 69.88L18.75 69.88Q19.13 69.88 19.31 69.69Q19.50 69.50 19.50 69.13L19.50 69.13ZM18.88 68.88L18.88 68.88Q18.88 68.88 18.88 68.88Q18.88 68.88 18.88 68.88L18.88 68.88Q18.88 68.75 18.75 68.63Q18.63 68.50 18.50 68.50L18.50 68.50L18.50 68.50Q18.38 68.50 18.25 68.63Q18.13 68.75 18.13 68.88L18.13 68.88Q18.13 68.88 18.13 68.88Q18.13 68.88 18.13 68.88L18.13 68.88L18.13 68.88Q18.13 69.13 18.25 69.19Q18.38 69.25 18.50 69.25L18.50 69.25Q18.63 69.25 18.75 69.19Q18.88 69.13 18.88 68.88L18.88 68.88Q18.88 68.88 18.88 68.88Q18.88 68.88 18.88 68.88L18.88 68.88L18.88 68.88ZM18.75 67L18.75 67Q18.50 67 18.31 67.13Q18.13 67.25 17.88 67.38L17.88 67.38L17.88 67.38L17.75 67.50L18.13 67.88L18.25 67.63Q18.38 67.50 18.50 67.44Q18.63 67.38 18.75 67.38L18.75 67.38L18.75 67.38Q18.75 67.38 18.75 67.38Q18.75 67.38 18.75 67.38L18.75 67.38Q18.88 67.38 19 67.44Q19.13 67.50 19.25 67.63L19.25 67.63L19.38 67.75L19.63 67.38L19.50 67.25Q19.38 67.13 19.19 67.06Q19 67 18.75 67L18.75 67Q18.75 67 18.75 67Q18.75 67 18.75 67L18.75 67L18.75 67ZM23.88 69L23.88 69Q23.88 69 23.88 69Q23.88 69 23.88 69L23.88 69Q23.88 68.75 23.75 68.69Q23.63 68.63 23.50 68.63L23.50 68.63L23.50 68.63Q23.38 68.63 23.25 68.69Q23.13 68.75 23.13 69L23.13 69Q23.13 69 23.13 69Q23.13 69 23.13 69L23.13 69L23.13 69Q23.13 69 23.13 69Q23.13 69 23.13 69L23.13 69Q23.13 69.13 23.25 69.25Q23.38 69.38 23.50 69.38L23.50 69.38L23.50 69.38Q23.63 69.38 23.75 69.25Q23.88 69.13 23.88 69L23.88 69Q23.88 69 23.88 69Q23.88 69 23.88 69L23.88 69L23.88 69ZM17.50 73L10.38 73L10.38 73.63L17.50 73.63L17.50 73ZM20.38 74.50L14.50 74.50L14.50 75L20.38 75L20.38 74.50Z"/></svg>