<svg xmlns="http://www.w3.org/2000/svg" xmlns:xlink="http://www.w3.org/1999/xlink" width="128" height="128"><path fill="#ffffff" d="M100.63 72.88L100.63 72.88Q99.88 76.75 95.44 84.81Q91 92.88 79.75 98.25L79.75 98.25L73.75 91.50L63.50 101.75Q54.38 101.63 46.63 97.50Q38.88 93.38 33.75 86.50L33.75 86.50L33.75 86.38Q34.50 86.63 35.31 86.81Q36.13 87 37 87L37 87Q38.25 87.13 39.38 86.44Q40.50 85.75 40.50 83.63L40.50 83.63L40.50 56Q40.50 56 40.50 55.94Q40.50 55.88 40.50 55.88L40.50 55.88Q40.50 53.88 39.19 52.56Q37.88 51.25 36 51.25L36 51.25Q35.63 51.25 35.31 51.31Q35 51.38 34.75 51.38L34.75 51.38L34.75 51.38Q31.25 52.25 28.75 58.25Q26.25 64.25 26.25 64.25L26.25 64.25Q26.25 64.25 26.25 64.13Q26.25 64 26.25 63.88L26.25 63.88Q26.25 55.50 29.75 48.13Q33.25 40.75 39.25 35.63L39.25 35.63L39.25 35.50Q43.13 32.13 47.94 29.88Q52.75 27.63 58.25 26.75L58.25 26.75L58.38 26.75Q54.50 28.88 52.44 32.19Q50.38 35.50 50.38 38.50L50.38 38.50Q50.38 43.38 52.44 43.63Q54.50 43.88 55.38 43.25L55.38 43.25L55.38 80.63Q55.50 81 55.69 81.31Q55.88 81.63 56.13 81.88L56.13 81.88Q56.88 83 58.06 83.63Q59.25 84.25 60.63 84.25L60.63 84.25Q60.63 84.25 60.63 84.25Q60.63 84.25 60.63 84.25L60.63 84.25L60.63 84.25Q63.63 84.25 66.63 82Q69.63 79.75 69.63 79.75L69.63 79.75L69.63 49.50Q69.63 47.13 68.19 44.75Q66.75 42.38 65 41.38L65 41.38Q65 41.38 67.56 41.31Q70.13 41.25 72.63 43.13L72.63 43.13Q73.13 42.63 73.63 42.06Q74.13 41.50 74.63 41L74.63 41L74.63 41Q80.38 35.25 85.75 33.13Q91.13 31 95.75 30.13L95.75 30.13Q95.75 30.13 90.19 35.94Q84.63 41.75 84.63 50.50L84.63 50.50Q84.63 53.75 84.75 58.75L84.75 58.75Q84.75 63.88 84.81 68.63Q84.88 73.38 84.88 76.88L84.88 76.88Q84.88 80.25 84.88 80.25L84.88 80.25Q88 83.25 92.25 80.19Q96.50 77.13 100.63 72.88L100.63 72.88ZM64 2.38L64 2.38Q51.25 2.38 40 7.25L40 7.25Q28.75 12.13 20.44 20.44Q12.13 28.75 7.25 40L7.25 40Q2.38 51.25 2.38 64L2.38 64Q2.38 76.75 7.25 88L7.25 88Q12.13 99.25 20.44 107.56Q28.75 115.88 40 120.75L40 120.75Q51.25 125.63 64 125.63L64 125.63Q76.75 125.63 88 120.75L88 120.75Q99.25 115.88 107.56 107.56Q115.88 99.25 120.75 88L120.75 88Q125.63 76.75 125.63 64L125.63 64Q125.63 51.25 120.75 40L120.75 40Q115.88 28.75 107.56 20.44Q99.25 12.13 88 7.25L88 7.25Q76.75 2.38 64 2.38L64 2.38ZM64 123.13L64 123.13Q51.75 123.13 41 118.50L41 118.50Q30.25 113.88 22.19 105.81Q14.13 97.75 9.50 87L9.50 87Q4.88 76.25 4.88 64L4.88 64Q4.88 51.75 9.50 41L9.50 41Q14.13 30.25 22.19 22.19Q30.25 14.13 41 9.50L41 9.50Q51.75 4.88 64 4.88L64 4.88Q76.25 4.88 87 9.50L87 9.50Q97.75 14.13 105.81 22.19Q113.88 30.25 118.50 41L118.50 41Q123.13 51.75 123.13 64L123.13 64Q123.13 76.25 118.50 87L118.50 87Q113.88 97.75 105.81 105.81Q97.75 113.88 87 118.50L87 118.50Q76.25 123.13 64 123.13L64 123.13Z"/></svg>