<svg xmlns="http://www.w3.org/2000/svg" xmlns:xlink="http://www.w3.org/1999/xlink" width="128" height="128"><path fill="#ffffff" d="M41.38 111L41.38 111L31.88 111L31.88 102.38L41.25 102.38L41.25 104.25L34.38 104.25L34.38 105.75L40.88 105.75L40.88 107.50L34.38 107.50L34.38 109.13L41.38 109.13L41.38 111ZM96.13 109.13L96.13 111L86.75 111L86.75 102.50L96 102.50L96 104.38L89.25 104.38L89.25 105.75L95.63 105.75L95.63 107.63L89.25 107.63L89.25 109.13L96.13 109.13ZM54.25 111L54.25 111L50.50 111L45.38 104.50L45.38 104.50L45.38 111L42.75 111L42.75 102.38L46.75 102.38L51.75 108.88L51.75 108.88L51.75 102.38L54.25 102.38L54.25 111ZM84.75 102.38L84.75 111L81 111L75.88 104.50L75.88 104.50L75.88 111L73.25 111L73.25 102.38L77.25 102.38L82.25 108.88L82.25 108.88L82.25 102.38L84.75 102.38ZM62.13 111.13L61.75 111.13Q61.13 111.13 60.63 111.13Q60.13 111.13 59.63 111.13L59.63 111.13Q59.25 111.13 58.88 111.06Q58.50 111 58.13 110.88L58.13 110.88L58.13 110.88Q57.88 110.88 57.63 110.75Q57.38 110.63 57.13 110.38L57.13 110.38Q57 110.25 56.81 110.06Q56.63 109.88 56.50 109.63L56.50 109.63L56.50 109.63Q56.38 109.38 56.31 109.06Q56.25 108.75 56.25 108.50L56.25 108.50L56.25 108.50Q56.25 108.13 56.19 107.75Q56.13 107.38 56.13 107L56.13 107Q56.13 106.88 56.13 106.88Q56.13 106.88 56.13 106.88L56.13 106.88L56.13 106.88L56.13 106.63Q56.13 106.63 56.13 106.56Q56.13 106.50 56.13 106.50L56.13 106.50Q56.13 106.13 56.19 105.75Q56.25 105.38 56.25 104.88L56.25 104.88L56.25 105Q56.25 104.63 56.31 104.38Q56.38 104.13 56.50 103.88L56.50 103.88Q56.63 103.63 56.81 103.44Q57 103.25 57.13 103L57.13 103Q57.38 102.88 57.63 102.75Q57.88 102.63 58.13 102.63L58.13 102.63L58.13 102.63Q58.50 102.50 58.88 102.44Q59.25 102.38 59.63 102.38L59.63 102.38L59.63 102.38Q60.13 102.38 60.63 102.31Q61.13 102.25 61.63 102.25L61.63 102.25Q61.63 102.25 61.69 102.25Q61.75 102.25 61.75 102.25L61.75 102.25L62.13 102.25Q62.63 102.25 63.06 102.31Q63.50 102.38 63.88 102.38L63.88 102.38Q64.25 102.38 64.56 102.44Q64.88 102.50 65.13 102.50L65.13 102.50Q65.38 102.50 65.63 102.63Q65.88 102.75 66.13 102.88L66.13 102.88Q66.25 102.88 66.38 103Q66.50 103.13 66.63 103.38L66.63 103.38Q66.75 103.50 66.81 103.69Q66.88 103.88 66.88 104.13L66.88 104.13Q67 104.38 67 104.63Q67 104.88 67 105.13L67 105.13L67 105.38L64.50 105.38L64.50 105.25Q64.50 105.25 64.50 105.25Q64.50 105.25 64.50 105.25L64.50 105.25Q64.50 105.13 64.50 105Q64.50 104.88 64.50 104.75L64.50 104.75L64.50 104.75Q64.38 104.63 64.31 104.56Q64.25 104.50 64.13 104.50L64.13 104.50L64.13 104.50Q63.88 104.38 63.69 104.38Q63.50 104.38 63.38 104.25L63.38 104.25L63.38 104.25Q63 104.25 62.69 104.25Q62.38 104.25 62.13 104.25L62.13 104.25Q62.13 104.25 62.06 104.25Q62 104.25 62 104.25L62 104.25L61.88 104.25Q61.50 104.25 61.19 104.25Q60.88 104.25 60.63 104.25L60.63 104.25Q60.38 104.25 60.13 104.31Q59.88 104.38 59.75 104.38L59.75 104.38L59.75 104.38Q59.63 104.38 59.44 104.44Q59.25 104.50 59.13 104.63L59.13 104.63L59.25 104.63Q59.13 104.75 59.06 104.81Q59 104.88 58.88 105L58.88 105L58.88 105Q58.88 105.25 58.81 105.38Q58.75 105.50 58.75 105.75L58.75 105.75L58.75 105.75Q58.75 105.88 58.75 106.13Q58.75 106.38 58.75 106.63L58.75 106.63L58.75 106.88Q58.75 107.13 58.75 107.31Q58.75 107.50 58.75 107.75L58.75 107.75Q58.75 107.88 58.81 108.06Q58.88 108.25 58.88 108.38L58.88 108.38Q58.88 108.50 59 108.63Q59.13 108.75 59.25 108.75L59.25 108.75Q59.25 108.88 59.44 108.94Q59.63 109 59.75 109L59.75 109Q60 109.13 60.19 109.13Q60.38 109.13 60.63 109.13L60.63 109.13Q60.88 109.13 61.19 109.13Q61.50 109.13 61.88 109.13L61.88 109.13L62 109.13Q62.38 109.13 62.63 109.13Q62.88 109.13 63 109.13L63 109.13Q63.25 109.13 63.44 109.13Q63.63 109.13 63.75 109.13L63.75 109.13Q63.88 109.13 64 109.06Q64.13 109 64.25 109L64.25 109Q64.38 108.88 64.44 108.88Q64.50 108.88 64.50 108.75L64.50 108.75L64.50 108.75Q64.50 108.75 64.56 108.63Q64.63 108.50 64.63 108.50L64.63 108.50L64.63 108.50Q64.63 108.38 64.63 108.25Q64.63 108.13 64.63 108L64.63 108L64.63 107.75L61.38 107.75L61.38 106.13L67.13 106.13L67.13 108.13Q67.13 108.38 67.13 108.63Q67.13 108.88 67 109.13L67 109.13Q67 109.38 66.94 109.56Q66.88 109.75 66.75 110L66.75 110Q66.63 110.13 66.50 110.31Q66.38 110.50 66.13 110.50L66.13 110.50Q66 110.63 65.75 110.75Q65.50 110.88 65.25 110.88L65.25 110.88Q65 111 64.63 111.06Q64.25 111.13 64 111.13L64 111.13L63.88 111.13Q63.50 111.13 63.06 111.13Q62.63 111.13 62.13 111.13L62.13 111.13ZM71.50 102.38L71.50 111.13L68.88 111.13L68.88 102.38L71.50 102.38ZM12.75 97.75L12.25 97.75Q11.38 97.75 10.56 97.75Q9.75 97.75 9 97.63L9 97.63Q8.38 97.63 7.75 97.50Q7.13 97.38 6.50 97.25L6.50 97.25L6.63 97.25Q6.13 97.25 5.69 97.06Q5.25 96.88 4.88 96.63L4.88 96.63L4.88 96.63Q4.63 96.50 4.31 96.25Q4 96 3.88 95.63L3.88 95.63L3.88 95.63Q3.63 95.25 3.50 94.94Q3.38 94.63 3.25 94.13L3.25 94.13L3.25 94.13Q3.25 93.75 3.19 93.25Q3.13 92.75 3.13 92.25L3.13 92.25Q3.13 92.25 3.13 92.19Q3.13 92.13 3.13 92.13L3.13 92.13L3.13 92.13L3.13 82.25L7.63 82.25L7.63 90.75Q7.63 91.13 7.63 91.44Q7.63 91.75 7.63 92L7.63 92Q7.75 92.25 7.75 92.50Q7.75 92.75 7.88 93L7.88 93Q8 93.13 8.13 93.31Q8.25 93.50 8.38 93.63L8.38 93.63Q8.50 93.75 8.75 93.88Q9 94 9.25 94L9.25 94Q9.50 94.13 9.81 94.13Q10.13 94.13 10.50 94.13L10.50 94.13Q10.88 94.25 11.31 94.25Q11.75 94.25 12.25 94.25L12.25 94.25L12.63 94.25Q13.25 94.25 13.69 94.25Q14.13 94.25 14.50 94.13L14.50 94.13Q14.88 94.13 15.19 94.13Q15.50 94.13 15.75 94L15.75 94Q16 94 16.19 93.88Q16.38 93.75 16.63 93.63L16.63 93.63Q16.75 93.50 16.88 93.31Q17 93.13 17.13 93L17.13 93L17.13 93Q17.13 92.75 17.19 92.50Q17.25 92.25 17.38 92L17.38 92Q17.38 91.75 17.38 91.44Q17.38 91.13 17.38 90.75L17.38 90.75L17.38 82.25L21.88 82.25L21.88 92.13Q21.88 92.63 21.81 93.13Q21.75 93.63 21.75 94.13L21.75 94.13Q21.63 94.50 21.50 94.88Q21.38 95.25 21.13 95.63L21.13 95.63L21.13 95.63Q21 95.88 20.69 96.19Q20.38 96.50 20.13 96.63L20.13 96.63L20.13 96.63Q19.75 96.88 19.31 97.06Q18.88 97.25 18.50 97.25L18.50 97.25L18.38 97.25Q17.88 97.50 17.25 97.56Q16.63 97.63 16 97.63L16 97.63Q15.25 97.75 14.50 97.75Q13.75 97.75 12.88 97.75L12.88 97.75Q12.88 97.75 12.81 97.75Q12.75 97.75 12.75 97.75L12.75 97.75L12.75 97.75ZM44.88 97.50L45 97.50L38.25 97.50L29.38 86.13L29.25 86.13L29.25 97.50L24.88 97.50L24.88 82.25L31.75 82.25L40.50 93.75L40.50 93.75L40.50 82.25L44.88 82.25L44.88 97.50ZM52.63 90L58.13 90Q58.75 90 59.19 90Q59.63 90 60 89.88L60 89.88Q60.25 89.88 60.56 89.81Q60.88 89.75 61.13 89.63L61.13 89.63L61.13 89.63Q61.25 89.50 61.38 89.38Q61.50 89.25 61.50 89L61.50 89Q61.63 88.75 61.63 88.50Q61.63 88.25 61.63 88L61.63 88Q61.63 88 61.63 88Q61.63 88 61.63 88L61.63 88L61.63 88L61.63 87.63Q61.63 87.63 61.63 87.63Q61.63 87.63 61.63 87.63L61.63 87.63Q61.63 87.38 61.63 87.13Q61.63 86.88 61.50 86.63L61.50 86.63L61.50 86.63Q61.50 86.50 61.38 86.31Q61.25 86.13 61.13 86L61.13 86L61 86Q60.88 85.88 60.56 85.81Q60.25 85.75 60 85.75L60 85.75L60 85.75Q59.63 85.75 59.19 85.69Q58.75 85.63 58.38 85.63L58.38 85.63Q58.38 85.63 58.31 85.63Q58.25 85.63 58.13 85.63L58.13 85.63L58.13 85.63L52.63 85.63L52.63 90ZM66.13 97.50L66.13 97.50L61.75 97.50L61.75 96.38Q61.75 96 61.75 95.75Q61.75 95.50 61.63 95.13L61.63 95.13Q61.63 95 61.56 94.75Q61.50 94.50 61.50 94.38L61.50 94.38L61.50 94.38Q61.38 94.13 61.25 94Q61.13 93.88 61 93.88L61 93.88L61 93.88Q60.75 93.75 60.56 93.63Q60.38 93.50 60.13 93.50L60.13 93.50L60.13 93.50Q59.88 93.50 59.56 93.44Q59.25 93.38 58.88 93.38L58.88 93.38L58.88 93.38Q58.50 93.38 58.06 93.38Q57.63 93.38 57.25 93.38L57.25 93.38Q57.13 93.38 57.13 93.38Q57.13 93.38 57 93.38L57 93.38L52.63 93.38L52.63 97.50L48.13 97.50L48.13 82.25L60 82.25Q60 82.25 60.13 82.25Q60.25 82.25 60.25 82.25L60.25 82.25Q61 82.25 61.75 82.31Q62.50 82.38 63.13 82.50L63.13 82.50L63 82.50Q63.63 82.63 64.06 82.81Q64.50 83 65 83.25L65 83.25L64.88 83.25Q65.25 83.50 65.50 83.88Q65.75 84.25 65.88 84.75L65.88 84.75Q66 85.25 66.06 85.81Q66.13 86.38 66.13 86.88L66.13 86.88L66.13 87.50Q66.13 87.50 66.13 87.50Q66.13 87.50 66.13 87.63L66.13 87.63Q66.13 88 66.13 88.38Q66.13 88.75 66 89.13L66 89.13L66 89Q66 89.38 65.88 89.63Q65.75 89.88 65.63 90.25L65.63 90.25Q65.38 90.50 65.19 90.69Q65 90.88 64.75 91L64.75 91L64.75 91Q64.50 91.13 64.19 91.25Q63.88 91.38 63.50 91.50L63.50 91.50L63.50 91.63Q63.88 91.63 64.19 91.69Q64.50 91.75 64.88 91.88L64.88 91.88Q65.13 92 65.31 92.13Q65.50 92.25 65.63 92.50L65.63 92.50Q65.75 92.75 65.88 93Q66 93.25 66 93.63L66 93.63Q66.13 94 66.13 94.38Q66.13 94.75 66.13 95.25L66.13 95.25L66.13 97.50ZM85.63 94.13L85.63 97.50L69.13 97.50L69.13 82.25L85.38 82.25L85.38 85.63L73.50 85.63L73.50 88.25L84.75 88.25L84.75 91.50L73.50 91.50L73.50 94.13L85.63 94.13ZM94.38 91.63L100.63 91.63L97.50 85.50L97.50 85.50L94.38 91.63ZM100.25 82.25L108.50 97.63L103.63 97.63L102.25 94.88L92.75 94.88L91.38 97.63L86.63 97.63L94.75 82.25L100.25 82.25ZM124.88 97.63L124.88 97.63L110.13 97.63L110.13 82.25L114.63 82.25L114.63 94L124.88 94L124.88 97.63ZM82.38 47L82.38 47Q82 49 79.81 53.06Q77.63 57.13 71.88 59.75L71.88 59.75L68.88 56.38L63.75 61.50Q59.13 61.50 55.25 59.44Q51.38 57.38 48.88 53.88L48.88 53.88L48.88 53.88Q49.25 54 49.63 54.06Q50 54.13 50.50 54.13L50.50 54.13L50.50 54.13Q51.13 54.13 51.69 53.81Q52.25 53.50 52.25 52.50L52.25 52.50L52.25 38.63Q52.25 38.63 52.25 38.56Q52.25 38.50 52.25 38.50L52.25 38.50Q52.25 38 52 37.50Q51.75 37 51.38 36.75L51.38 36.75L51.38 36.75Q51.13 36.50 50.75 36.38Q50.38 36.25 50 36.25L50 36.25Q49.75 36.25 49.63 36.25Q49.50 36.25 49.38 36.25L49.38 36.25L49.38 36.25Q47.63 36.75 46.38 39.75Q45.13 42.75 45.13 42.75L45.13 42.75Q45.13 42.75 45.13 42.69Q45.13 42.63 45.13 42.63L45.13 42.63Q45.13 38.38 46.88 34.69Q48.63 31 51.63 28.38L51.63 28.38L51.63 28.38Q54.25 26.13 56.75 25.19Q59.25 24.25 61.25 23.88L61.25 23.88Q59.25 25 58.19 26.63Q57.13 28.25 57.13 29.88L57.13 29.88Q57.13 32.25 58.19 32.38Q59.25 32.50 59.75 32.25L59.75 32.25L59.75 50.88Q59.75 51.13 59.88 51.31Q60 51.50 60.13 51.63L60.13 51.63Q60.50 52.13 61.06 52.44Q61.63 52.75 62.25 52.75L62.25 52.75Q62.38 52.75 62.38 52.75Q62.38 52.75 62.38 52.75L62.38 52.75L62.38 52.75Q63.75 52.75 65.31 51.63Q66.88 50.50 66.88 50.50L66.88 50.50L66.88 35.38Q66.88 34.13 66.13 32.94Q65.38 31.75 64.50 31.25L64.50 31.25Q64.50 31.25 65.81 31.25Q67.13 31.25 68.38 32.13L68.38 32.13Q68.63 31.88 68.88 31.63Q69.13 31.38 69.38 31.13L69.38 31.13Q72.25 28.25 74.94 27.19Q77.63 26.13 79.88 25.63L79.88 25.63Q79.88 25.63 77.13 28.56Q74.38 31.50 74.38 35.88L74.38 35.88Q74.38 39.13 74.44 44.94Q74.50 50.75 74.50 50.75L74.50 50.75Q76 52.25 78.13 50.69Q80.25 49.13 82.38 47L82.38 47ZM64 11.75L64 11.75Q57.63 11.75 52 14.13L52 14.13Q46.38 16.63 42.19 20.81Q38 25 35.50 30.63L35.50 30.63Q33.13 36.25 33.13 42.63L33.13 42.63Q33.13 49 35.50 54.63L35.50 54.63Q38 60.25 42.19 64.44Q46.38 68.63 52 71.13L52 71.13Q57.63 73.50 64 73.50L64 73.50Q70.38 73.50 76 71.13L76 71.13Q81.63 68.63 85.81 64.44Q90 60.25 92.50 54.63L92.50 54.63Q94.88 49 94.88 42.63L94.88 42.63Q94.88 36.25 92.50 30.63L92.50 30.63Q90 25 85.81 20.81Q81.63 16.63 76 14.13L76 14.13Q70.38 11.75 64 11.75ZM64 72.25L64 72.25Q57.88 72.25 52.50 69.88L52.50 69.88Q47 67.63 43 63.56Q39 59.50 36.63 54.13L36.63 54.13Q34.38 48.75 34.38 42.63L34.38 42.63Q34.38 36.50 36.63 31.13L36.63 31.13Q39 25.63 43 21.63Q47 17.63 52.50 15.25L52.50 15.25Q57.88 13 64 13L64 13Q70.13 13 75.50 15.25L75.50 15.25Q81 17.63 85 21.63Q89 25.63 91.38 31.13L91.38 31.13Q93.63 36.50 93.63 42.63L93.63 42.63Q93.63 48.75 91.38 54.13L91.38 54.13Q89 59.50 85 63.56Q81 67.63 75.50 69.88L75.50 69.88Q70.13 72.25 64 72.25Z"/></svg>