<svg xmlns="http://www.w3.org/2000/svg" xmlns:xlink="http://www.w3.org/1999/xlink" width="128" height="128"><path fill="#ffffff" d="M100.50 61.25L100.50 61.25Q100.38 59.50 100.13 57.69Q99.88 55.88 99.38 54L99.38 54Q98.25 49.63 96 45.63Q93.75 41.63 90.38 37.75L90.38 37.75Q88.75 35.88 87 34Q85.25 32.13 83.63 30.25L83.63 30.25L80.63 27L75.88 21.88Q72.50 18.13 68.94 14.31Q65.38 10.50 61.88 6.75L61.88 6.75Q61 5.75 59.94 4.69Q58.88 3.63 57.75 2.75L57.75 2.75Q55.63 1 53.06 0.56Q50.50 0.13 47.75 1L47.75 1Q46.88 1.25 46.19 1.63Q45.50 2 44.75 2.25L44.75 2.25Q44.25 2.63 43.75 3.06Q43.25 3.50 42.88 3.88L42.88 3.88Q41.50 5.50 41 7.50Q40.50 9.50 40.75 12L40.75 12Q41 13.63 41.75 15.19Q42.50 16.75 43.88 18.25L43.88 18.25L50.63 25.63L53.13 28.38Q48.88 30.38 45.25 32.94Q41.63 35.50 38.50 38.50L38.50 38.50Q35.75 41 33.94 43.56Q32.13 46.13 30.88 48.75L30.88 48.75Q28.88 53 28.13 57.75Q27.38 62.50 27.75 68L27.75 68Q27.88 70 28.31 72.13Q28.75 74.25 29.63 76.25L29.63 76.25Q30.75 79.38 32.63 82.19Q34.50 85 37 87.75L37 87.75Q42 93.13 48.19 96Q54.38 98.88 61.63 99.25L61.63 99.25L63.50 99.38Q64.50 99.38 65.38 99.31Q66.25 99.25 67.25 99.25L67.25 99.25Q68.88 99.25 70.75 98.94Q72.63 98.63 74.75 98.13L74.75 98.13Q79.88 96.75 84.25 94Q88.63 91.25 92 87.13L92 87.13Q96.38 81.50 98.56 75Q100.75 68.50 100.50 61.25L100.50 61.25ZM89.50 85.13L89.50 85.13Q86.38 88.88 82.44 91.38Q78.50 93.88 73.75 95.13L73.75 95.13Q71.88 95.50 70.19 95.81Q68.50 96.13 66.88 96.25L66.88 96.25Q65.50 96.25 64.25 96.31Q63 96.38 61.63 96.25L61.63 96.25Q54.88 95.88 49.25 93.25Q43.63 90.63 39.13 85.75L39.13 85.75Q36.75 83.13 35.06 80.56Q33.38 78 32.25 75.25L32.25 75.25Q31.50 73.38 31.13 71.50Q30.75 69.63 30.63 67.75L30.63 67.75Q30.25 62.75 31 58.31Q31.75 53.88 33.50 50L33.50 50Q34.63 47.63 36.31 45.38Q38 43.13 40.50 40.75L40.50 40.75Q43.63 37.63 47.31 35.13Q51 32.63 55.25 30.63L55.25 30.63L55.88 30.25Q56.13 30.25 56.25 30.13Q56.38 30 56.50 29.75L56.50 29.75L57.50 28.75L52.75 23.63L46 16.25Q45 15.13 44.44 14Q43.88 12.88 43.75 11.75L43.75 11.75Q43.50 9.88 43.88 8.38Q44.25 6.88 45.13 5.75L45.13 5.75Q45.38 5.63 45.63 5.31Q45.88 5 46.25 4.88L46.25 4.88Q46.75 4.63 47.31 4.31Q47.88 4 48.38 3.75L48.38 3.75Q49.13 3.63 49.81 3.50Q50.50 3.38 51.13 3.38L51.13 3.38Q52.38 3.38 53.50 3.81Q54.63 4.25 55.63 5.13L55.63 5.13Q56.63 5.88 57.56 6.88Q58.50 7.88 59.38 8.75L59.38 8.75L78.13 29.13L81.13 32.38Q82.75 34.25 84.50 36.06Q86.25 37.88 87.88 39.75L87.88 39.75Q91 43.38 93.13 47.13Q95.25 50.88 96.25 54.75L96.25 54.75Q96.75 56.50 97 58.13Q97.25 59.75 97.25 61.25L97.25 61.25Q97.63 68 95.69 73.94Q93.75 79.88 89.50 85.13L89.50 85.13ZM81.50 53.50L81.50 53.50L75.25 47.25L72.25 44.13Q70.88 42.88 69.63 41.50Q68.38 40.13 67 38.88L67 38.88Q65.50 37.50 63.88 36.88Q62.25 36.25 60.50 36.25L60.50 36.25Q58.38 36.50 56.69 37.38Q55 38.25 54 40L54 40Q53.50 40.75 53.25 41.63Q53 42.50 53.13 43.38L53.13 43.38Q53.13 45 53.81 46.44Q54.50 47.88 55.75 49.25L55.75 49.25L60 53.38Q60.50 53.88 61.06 54.44Q61.63 55 62.13 55.38L62.13 55.38L47 55.38Q46.13 55.38 45.44 55.38Q44.75 55.38 44.13 55.50L44.13 55.50Q42.88 55.63 41.69 56.06Q40.50 56.50 39.75 57.38L39.75 57.38Q38.13 58.88 37.56 60.88Q37 62.88 37.38 65.13L37.38 65.13Q37.88 67.38 39.19 68.81Q40.50 70.25 42.75 70.75L42.75 70.75Q43.50 70.88 44.19 70.88Q44.88 70.88 45.50 71L45.50 71Q47.25 71.13 49.06 71.19Q50.88 71.25 52.75 71.25L52.75 71.25L62.13 71.25L57.88 75.38Q56.63 76.63 55.69 77.88Q54.75 79.13 54.25 80.38L54.25 80.38Q53.63 81.63 53.50 82.88Q53.38 84.13 53.75 85.25L53.75 85.25Q54.50 87.38 56.50 88.75Q58.50 90.13 60.88 90.13L60.88 90.13Q62 90.13 63 89.81Q64 89.50 64.75 88.88L64.75 88.88Q65.75 88.25 66.56 87.56Q67.38 86.88 68 86.25L68 86.25L81.50 73.50Q83.38 71.75 84.69 69.75Q86 67.75 86.75 65.75L86.75 65.75Q87 65.13 87.13 64.50Q87.25 63.88 87.25 63.25L87.25 63.25Q87.25 62 86.81 61Q86.38 60 85.88 59.25L85.88 59.25Q84.88 57.38 83.69 55.94Q82.50 54.50 81.50 53.50L81.50 53.50ZM84 64.63L84 64.63Q83.38 66.38 82.19 68.06Q81 69.75 79.38 71.25L79.38 71.25Q76 74.50 72.63 77.69Q69.25 80.88 65.88 84L65.88 84Q65.25 84.63 64.50 85.31Q63.75 86 63 86.50L63 86.50Q62.50 86.75 62 86.94Q61.50 87.13 60.75 87.13L60.75 87.13Q59.63 87.13 58.31 86.44Q57 85.75 56.50 84.25L56.50 84.25Q56.25 83.63 56.31 83Q56.38 82.38 56.75 81.63L56.75 81.63Q57.38 80.50 58.13 79.50Q58.88 78.50 59.88 77.38L59.88 77.38Q61 76.25 62.06 75.19Q63.13 74.13 64.25 73.13L64.25 73.13L66.25 71.25L66.50 70.75L69.13 68L63.75 68L62 68.13Q61 68.13 60.06 68.13Q59.13 68.13 58.13 68.25L58.13 68.25Q57.63 68.25 57.13 68.25Q56.63 68.25 56.13 68.25L56.13 68.25L53.25 68.38L52.63 68.38Q50.75 68.38 49 68.31Q47.25 68.25 45.50 68.25L45.50 68.25Q45 68.25 44.38 68.19Q43.75 68.13 43.25 68L43.25 68Q42 67.75 41.25 66.94Q40.50 66.13 40.25 64.75L40.25 64.75Q40 63.25 40.38 62Q40.75 60.75 41.75 59.75L41.75 59.75Q42.25 59.25 42.94 59Q43.63 58.75 44.25 58.75L44.25 58.75Q44.75 58.75 45.44 58.75Q46.13 58.75 46.88 58.75L46.88 58.75L48.75 58.88Q49.13 58.88 49.63 59Q50.13 59.13 50.63 59.13L50.63 59.13L69.13 58.88L66 55.38L64.38 53.63L62.13 51.38Q61 50.38 60 49.38Q59 48.38 58 47.25L58 47.25Q57.13 46.38 56.69 45.44Q56.25 44.50 56.25 43.38L56.25 43.38Q56.25 43 56.31 42.56Q56.38 42.13 56.75 41.75L56.75 41.75Q57.38 40.63 58.38 40.06Q59.38 39.50 60.75 39.38L60.75 39.38Q61.88 39.38 62.94 39.81Q64 40.25 65 41.25L65 41.25Q66.25 42.50 67.56 43.75Q68.88 45 70.13 46.25L70.13 46.25L73.25 49.38Q74.75 51 76.31 52.56Q77.88 54.13 79.38 55.75L79.38 55.75Q80.25 56.63 81.38 57.88Q82.50 59.13 83.25 60.75L83.25 60.75Q83.75 61.50 84 62.19Q84.25 62.88 84.25 63.50L84.25 63.50Q84.25 63.75 84.19 64Q84.13 64.25 84 64.63L84 64.63ZM13 102.13L13 110.38Q12.25 109.25 11 108.69Q9.75 108.13 8.38 108.13L8.38 108.13Q6.88 108.13 5.69 108.63Q4.50 109.13 3.38 110.25L3.38 110.25Q2.38 111.38 1.88 113Q1.38 114.63 1.38 116.75L1.38 116.75Q1.38 118.88 1.94 120.50Q2.50 122.13 3.50 123.25L3.50 123.25Q4.50 124.50 5.75 125.06Q7 125.63 8.50 125.63L8.50 125.63Q9.13 125.63 9.94 125.44Q10.75 125.25 11.38 124.88L11.38 124.88Q12.13 124.50 12.69 124Q13.25 123.50 14 122.75L14 122.75L14 125.13L18 125.13L18 102.13L13 102.13ZM12.38 120.75L12.38 120.75Q11.88 121.38 11.19 121.69Q10.50 122 9.75 122L9.75 122Q8.88 122 8.13 121.56Q7.38 121.13 6.75 120.25L6.75 120.25Q6.38 119.75 6.25 118.75Q6.13 117.75 6.13 116.38L6.13 116.38Q6.13 115.13 6.38 114.19Q6.63 113.25 7.25 112.63L7.25 112.63Q7.75 112 8.38 111.63Q9 111.25 9.75 111.25L9.75 111.25Q10.63 111.25 11.31 111.56Q12 111.88 12.50 112.63L12.50 112.63Q13 113.25 13.25 114.25Q13.50 115.25 13.50 116.75L13.50 116.75Q13.50 118.13 13.19 119.13Q12.88 120.13 12.38 120.75ZM29.88 108L29.88 108Q28.75 108 27.63 108.31Q26.50 108.63 25.38 109.13L25.38 109.13Q24.38 109.63 23.63 110.44Q22.88 111.25 22.25 112.25L22.25 112.25Q21.75 113.38 21.50 114.44Q21.25 115.50 21.25 116.63L21.25 116.63Q21.25 118 21.50 119.25Q21.75 120.50 22.25 121.50L22.25 121.50Q22.88 122.50 23.69 123.31Q24.50 124.13 25.50 124.63L25.50 124.63Q26.50 125.13 27.63 125.38Q28.75 125.63 29.88 125.63L29.88 125.63Q31.75 125.63 33.31 125Q34.88 124.38 36.13 123.13L36.13 123.13Q37.25 121.88 37.94 120.25Q38.63 118.63 38.63 116.75L38.63 116.75Q38.63 114.88 38 113.31Q37.38 111.75 36.25 110.63L36.25 110.63Q34.88 109.25 33.31 108.63Q31.75 108 29.88 108L29.88 108ZM32.75 120.63L32.75 120.63Q32.25 121.25 31.50 121.56Q30.75 121.88 29.88 121.88L29.88 121.88Q29 121.88 28.31 121.56Q27.63 121.25 27 120.63L27 120.63Q26.38 119.88 26.06 118.94Q25.75 118 25.75 116.75L25.75 116.75Q25.75 115.63 26.06 114.63Q26.38 113.63 27 113L27 113Q27.63 112.38 28.38 112.06Q29.13 111.75 29.88 111.75L29.88 111.75Q30.75 111.75 31.50 112.06Q32.25 112.38 32.75 113L32.75 113Q33.38 113.63 33.69 114.56Q34 115.50 34 116.75L34 116.75Q34 118 33.69 118.94Q33.38 119.88 32.75 120.63ZM51.38 121.25L51.38 121.25Q51 121.63 50.50 121.75Q50 121.88 49.25 121.88L49.25 121.88Q48.50 121.88 47.81 121.56Q47.13 121.25 46.63 120.75L46.63 120.75Q46.13 120.13 45.88 119.06Q45.63 118 45.63 116.50L45.63 116.50Q45.63 115.13 45.88 114.19Q46.13 113.25 46.63 112.75L46.63 112.75Q47.13 112.13 47.75 111.88Q48.38 111.63 49.25 111.63L49.25 111.63Q49.75 111.63 50.31 111.75Q50.88 111.88 51.25 112.25L51.25 112.25Q51.63 112.63 51.88 113.13Q52.13 113.63 52.25 114.25L52.25 114.25L56.63 113.50Q56.25 112.13 55.56 111.13Q54.88 110.13 54 109.50L54 109.50Q53.13 108.88 51.88 108.56Q50.63 108.25 49.13 108.25L49.13 108.25Q47.25 108.25 45.75 108.81Q44.25 109.38 43.25 110.50L43.25 110.50Q42.13 111.63 41.56 113.25Q41 114.88 41 117L41 117Q41 119 41.56 120.63Q42.13 122.25 43.25 123.38L43.25 123.38Q44.38 124.50 45.81 125.13Q47.25 125.75 49.13 125.75L49.13 125.75Q50.75 125.75 52.06 125.38Q53.38 125 54.25 124.25L54.25 124.25Q55.25 123.50 55.94 122.38Q56.63 121.25 56.88 119.75L56.88 119.75L52.50 119Q52.38 119.63 52.06 120.25Q51.75 120.88 51.38 121.25L51.38 121.25ZM65.88 121.88L65.88 121.88Q65.63 121.88 65.50 121.81Q65.38 121.75 65.13 121.75L65.13 121.75Q65 121.63 64.94 121.50Q64.88 121.38 64.88 121.13L64.88 121.13Q64.88 121 64.94 120.38Q65 119.75 65 118.75L65 118.75L65 112L68 112L68 108L65 108L65 102.50L60 105.13L60 108L58 108L58 112L60 112L60 119.25Q60 120.50 60.13 121.25Q60.25 122 60.25 122.38L60.25 122.38Q60.25 122.88 60.44 123.31Q60.63 123.75 60.88 124.13L60.88 124.13Q61.13 124.38 61.50 124.69Q61.88 125 62.25 125.13L62.25 125.13Q62.75 125.38 63.31 125.44Q63.88 125.50 64.50 125.50L64.50 125.50Q65.50 125.50 66.38 125.31Q67.25 125.13 68 124.75L68 124.75L67.63 121.38Q67.13 121.63 66.69 121.75Q66.25 121.88 65.88 121.88L65.88 121.88ZM76.75 108.63L76.75 108.63Q76.38 108.88 75.69 109.44Q75 110 75 110.75L75 110.75L75 108L71 108L71 125L75 125L75 120Q75 117.88 75.06 116.50Q75.13 115.13 75.38 114.38L75.38 114.38Q75.63 113.75 75.88 113.25Q76.13 112.75 76.38 112.50L76.38 112.50Q76.75 112.25 77.13 112.13Q77.50 112 78 112L78 112Q78.50 112 79 112.19Q79.50 112.38 80.13 112.75L80.13 112.75L81.50 108.75Q80.88 108.38 80.13 108.19Q79.38 108 78.63 108L78.63 108Q78.13 108 77.63 108.13Q77.13 108.25 76.75 108.63ZM83 106L83 102L88 102L88 106L83 106ZM83 125L83 108L88 108L88 125L83 125ZM106.50 109.88L106.50 109.88Q106.25 109.50 105.75 109.13Q105.25 108.75 104.75 108.50L104.75 108.50Q104.13 108.25 103.31 108.13Q102.50 108 101.75 108L101.75 108Q100.13 108 98.81 108.69Q97.50 109.38 96 110.75L96 110.75L96 108L92 108L92 125L97 125L97 117.63Q97 116.13 97 115.19Q97 114.25 97.25 113.75L97.25 113.75Q97.38 113.13 97.69 112.69Q98 112.25 98.38 112L98.38 112Q98.88 111.75 99.38 111.56Q99.88 111.38 100.38 111.38L100.38 111.38Q100.88 111.38 101.25 111.50Q101.63 111.63 101.88 111.75L101.88 111.75Q102.25 112 102.38 112.31Q102.50 112.63 102.75 113L102.75 113Q102.88 113.38 102.88 114.25Q102.88 115.13 102.88 116.50L102.88 116.50L102.88 124.88L107.88 124.88L107.88 114.75Q107.88 113.75 107.75 113Q107.63 112.25 107.50 111.75L107.50 111.75Q107.38 111.25 107.06 110.81Q106.75 110.38 106.50 109.88ZM120.75 121.75L120.75 121.75Q120.38 122 119.94 122.13Q119.50 122.25 119 122.25L119 122.25Q118.25 122.25 117.56 122Q116.88 121.75 116.38 121.25L116.38 121.25Q115.88 120.63 115.63 119.75Q115.38 118.88 115.25 118.13L115.25 118.13L126.38 118.13Q126.50 115.88 125.94 113.81Q125.38 111.75 124.25 110.63L124.25 110.63Q123.25 109.38 121.75 108.75Q120.25 108.13 118.38 108.13L118.38 108.13Q116.75 108.13 115.38 108.69Q114 109.25 112.88 110.50L112.88 110.50Q111.75 111.75 111.25 113.38Q110.75 115 110.75 117L110.75 117Q110.75 118.75 111.19 120.19Q111.63 121.63 112.38 122.75L112.38 122.75Q113.50 124.25 115.13 125Q116.75 125.75 118.88 125.75L118.88 125.75Q120.25 125.75 121.44 125.44Q122.63 125.13 123.50 124.38L123.50 124.38Q124.38 123.75 125.06 122.81Q125.75 121.88 126.25 120.75L126.25 120.75L121.75 120Q121.63 120.50 121.38 120.94Q121.13 121.38 120.75 121.75L120.75 121.75ZM116.38 112.25L116.38 112.25Q116.88 111.75 117.44 111.50Q118 111.25 118.75 111.25L118.75 111.25Q119.50 111.25 120.06 111.44Q120.63 111.63 121.13 112.25L121.13 112.25Q121.50 112.75 121.81 113.50Q122.13 114.25 122.13 115L122.13 115L115.50 115Q115.38 114.25 115.69 113.56Q116 112.88 116.38 112.25L116.38 112.25Z"/></svg>