<svg xmlns="http://www.w3.org/2000/svg" xmlns:xlink="http://www.w3.org/1999/xlink" width="128" height="128"><path fill="#000000" d="M110.13 78.50L110.13 78.50Q110 76.38 109.63 74.13Q109.25 71.88 108.75 69.50L108.75 69.50Q107.25 64 104.44 58.94Q101.63 53.88 97.25 48.88L97.25 48.88Q95.25 46.50 93 44.06Q90.75 41.63 88.63 39.25L88.63 39.25Q87.63 38.25 86.69 37.19Q85.75 36.13 84.75 35.13L84.75 35.13L78.75 28.50L61 9.25Q59.75 7.88 58.50 6.56Q57.25 5.25 55.75 4.13L55.75 4.13Q53.13 2 49.94 1.50Q46.75 1 43.25 2L43.25 2Q42.38 2.25 41.44 2.75Q40.50 3.25 39.75 3.75L39.75 3.75Q39 4.13 38.44 4.63Q37.88 5.13 37.38 5.63L37.38 5.63Q35.75 7.50 35.13 10Q34.50 12.50 34.75 15.75L34.75 15.75Q35 17.75 35.94 19.69Q36.88 21.63 38.63 23.50L38.63 23.50L46.75 32.38L50.75 36.75Q45.38 39.38 40.56 42.69Q35.75 46 31.75 49.88L31.75 49.88Q28.38 53.25 26 56.31Q23.63 59.38 22 62.75L22 62.75Q19.50 68.25 18.50 74.25Q17.50 80.25 17.88 87.25L17.88 87.25Q18 89.75 18.69 92.38Q19.38 95 20.25 97.63L20.25 97.63Q21.75 101.50 24.06 105.06Q26.38 108.63 29.63 112.13L29.63 112.13Q35.88 118.88 43.69 122.50Q51.50 126.13 60.75 126.75L60.75 126.75Q61.25 126.75 61.81 126.75Q62.38 126.75 63.13 126.75L63.13 126.75Q64.25 126.75 65.44 126.69Q66.63 126.63 67.75 126.63L67.75 126.63Q70 126.50 72.31 126.13Q74.63 125.75 77.25 125.13L77.25 125.13Q83.75 123.50 89.25 120Q94.75 116.50 99.13 111.25L99.13 111.25Q105 104.13 107.75 95.94Q110.50 87.75 110.13 78.50L110.13 78.50ZM96.88 109.25L96.88 109.25Q92.88 114.13 87.75 117.38Q82.63 120.63 76.63 122.13L76.63 122.13Q74.25 122.75 72 123.06Q69.75 123.38 67.75 123.50L67.75 123.50Q66 123.63 64.31 123.63Q62.63 123.63 60.88 123.63L60.88 123.63Q52.25 123.13 44.94 119.69Q37.63 116.25 31.75 109.88L31.75 109.88Q28.75 106.63 26.63 103.25Q24.50 99.88 23.13 96.25L23.13 96.25Q22.25 93.88 21.63 91.44Q21 89 20.88 86.75L20.88 86.75Q20.50 80.13 21.38 74.50Q22.25 68.88 24.75 63.75L24.75 63.75Q26.13 60.75 28.31 57.81Q30.50 54.88 33.75 51.75L33.75 51.75Q37.75 47.88 42.44 44.69Q47.13 41.50 52.75 38.88L52.75 38.88L53.63 38.50Q53.88 38.38 54 38.25Q54.13 38.13 54.25 38L54.25 38L55.13 37L48.75 30.25L40.75 21.25Q39.38 19.75 38.63 18.25Q37.88 16.75 37.75 15.25L37.75 15.25Q37.50 12.75 37.94 10.88Q38.38 9 39.63 7.50L39.63 7.50Q39.88 7.13 40.31 6.81Q40.75 6.50 41.25 6.25L41.25 6.25Q41.88 5.88 42.63 5.44Q43.38 5 44.25 4.75L44.25 4.75Q45.13 4.50 46.06 4.38Q47 4.25 47.75 4.25L47.75 4.25Q49.50 4.25 51 4.81Q52.50 5.38 53.88 6.50L53.88 6.50Q55.25 7.50 56.44 8.75Q57.63 10 58.75 11.25L58.75 11.25L76.50 30.63L82.63 37.25L86.50 41.38Q88.63 43.75 90.81 46.13Q93 48.50 95.25 50.88L95.25 50.88Q99.25 55.50 101.94 60.31Q104.63 65.13 106 70.25L106 70.25Q106.63 72.50 106.94 74.56Q107.25 76.63 107.25 78.75L107.25 78.75Q107.50 87.25 104.94 94.94Q102.38 102.63 96.88 109.25L96.88 109.25ZM86 68.88L86 68.88Q84 66.88 82.06 64.94Q80.13 63 78.13 61L78.13 61L76.50 59.38Q75.88 58.75 75.31 58.19Q74.75 57.63 74.13 56.88L74.13 56.88Q72.50 55.25 70.81 53.63Q69.13 52 67.50 50.25L67.50 50.25Q65.75 48.63 63.75 47.81Q61.75 47 59.63 47.13L59.63 47.13Q57 47.25 55 48.38Q53 49.50 51.63 51.75L51.63 51.75Q51 52.63 50.69 53.69Q50.38 54.75 50.50 55.75L50.50 55.75Q50.63 57.75 51.44 59.56Q52.25 61.38 53.75 62.88L53.75 62.88Q55.13 64.25 56.50 65.56Q57.88 66.88 59.13 68.25L59.13 68.25L62 71L62.50 71.50L42.25 71.50Q41.13 71.50 40.25 71.50Q39.38 71.50 38.50 71.63L38.50 71.63Q36.88 71.63 35.50 72.25Q34.13 72.88 33.13 73.88L33.13 73.88Q31.25 75.75 30.50 78.19Q29.75 80.63 30.25 83.38L30.25 83.38Q30.88 86.13 32.50 87.88Q34.13 89.63 36.75 90.25L36.75 90.25Q37.63 90.38 38.50 90.44Q39.38 90.50 40.25 90.50L40.25 90.50L49.38 90.75L50.25 90.75Q51.13 90.75 52.06 90.75Q53 90.75 53.88 90.75L53.88 90.75L62.38 90.75L62 91.25Q60.63 92.50 59.25 93.94Q57.88 95.38 56.38 96.75L56.38 96.75Q54.88 98.50 53.69 100Q52.50 101.50 51.75 103.13L51.75 103.13Q51 104.63 50.88 106.13Q50.75 107.63 51.25 109L51.25 109Q52.25 111.75 54.63 113.38Q57 115 60 115L60 115Q61.25 115 62.50 114.63Q63.75 114.25 64.75 113.63L64.75 113.63Q65.88 112.88 66.88 111.94Q67.88 111 68.75 110.25L68.75 110.25Q73.25 106.13 77.56 102Q81.88 97.88 86.13 93.88L86.13 93.88Q88.50 91.63 90.19 89.19Q91.88 86.75 92.75 84.13L92.75 84.13Q93 83.38 93.13 82.69Q93.25 82 93.25 81.25L93.25 81.25Q93.25 79.75 92.75 78.44Q92.25 77.13 91.75 76.25L91.75 76.25Q90.38 73.88 88.88 72.06Q87.38 70.25 86 68.88L86 68.88ZM89.88 82.88L89.88 82.88Q89 85.25 87.56 87.44Q86.13 89.63 83.88 91.63L83.88 91.63Q79.75 95.63 75.38 99.69Q71 103.75 66.75 107.88L66.75 107.88Q65.75 108.75 64.88 109.56Q64 110.38 63 111.13L63 111.13Q62.38 111.50 61.63 111.75Q60.88 112 60 112L60 112Q58.38 112 56.63 111Q54.88 110 54.13 108L54.13 108Q53.75 107.13 53.88 106.25Q54 105.38 54.50 104.38L54.50 104.38Q55.13 103 56.13 101.69Q57.13 100.38 58.63 98.88L58.63 98.88Q60 97.50 61.38 96.13Q62.75 94.75 64.25 93.38L64.25 93.38L67.13 90.50L69.75 87.75L54.13 87.75L50.38 87.88L49.63 87.88Q47.38 87.88 45.13 87.81Q42.88 87.75 40.50 87.63L40.50 87.63Q39.75 87.63 39 87.56Q38.25 87.50 37.50 87.25L37.50 87.25Q35.75 86.88 34.75 85.81Q33.75 84.75 33.38 82.88L33.38 82.88Q33 80.75 33.50 79.13Q34 77.50 35.38 76.13L35.38 76.13Q36.25 75.25 37.19 75Q38.13 74.75 38.88 74.75L38.88 74.75Q39.63 74.63 40.50 74.63Q41.38 74.63 42.38 74.63L42.38 74.63L69.63 74.63L66.25 71.25L64.25 69Q63.50 68.25 62.75 67.56Q62 66.88 61.25 66.25L61.25 66.25L56 61Q54.88 59.75 54.25 58.44Q53.63 57.13 53.63 55.75L53.63 55.75Q53.63 55.25 53.75 54.63Q53.88 54 54.25 53.38L54.25 53.38Q55.13 51.88 56.50 51.13Q57.88 50.38 59.75 50.25L59.75 50.25Q61.38 50.13 62.75 50.75Q64.13 51.38 65.50 52.63L65.50 52.63Q67.13 54.13 68.81 55.81Q70.50 57.50 72.13 59.13L72.13 59.13Q72.75 59.75 73.31 60.31Q73.88 60.88 74.50 61.63L74.50 61.63L76.13 63.25Q78 65.13 80 67.13Q82 69.13 84 71.13L84 71.13Q85.25 72.25 86.63 73.88Q88 75.50 89 77.50L89 77.50Q89.63 78.63 89.94 79.50Q90.25 80.38 90.25 81.25L90.25 81.25Q90.25 81.63 90.13 82.06Q90 82.50 89.88 82.88L89.88 82.88Z"/></svg>