<svg xmlns="http://www.w3.org/2000/svg" xmlns:xlink="http://www.w3.org/1999/xlink" width="128" height="128"><path fill="#ffffff" d="M89.25 86.75L89.25 86.75Q93.75 81.38 95.81 75.06Q97.88 68.75 97.75 61.63L97.75 61.63Q97.63 59.75 97.31 58.06Q97 56.38 96.63 54.63L96.63 54.63Q95.38 50 93.06 46.06Q90.75 42.13 87.75 38.75L87.75 38.75Q85.25 35.88 82.69 33.19Q80.13 30.50 77.75 27.75L77.75 27.75L58.75 7Q57.75 6 56.75 5Q55.75 4 54.75 3.13L54.75 3.13Q52.63 1.50 50.44 1.19Q48.25 0.88 45.75 1.63L45.75 1.63Q45.13 1.88 44.44 2.13Q43.75 2.38 43.25 2.75L43.25 2.75Q42.75 3 42.38 3.38Q42 3.75 41.75 4.13L41.75 4.13Q40.38 5.63 40 7.50Q39.63 9.38 39.88 11.25L39.88 11.25Q40 12.75 40.75 14.13Q41.50 15.50 42.63 16.75L42.63 16.75Q44.75 19 46.75 21.25Q48.75 23.50 50.88 25.75L50.88 25.75L53.25 28.50Q53.25 28.63 53.19 28.69Q53.13 28.75 53.13 28.75L53.13 28.75L52.50 29Q48.25 31 44.31 33.63Q40.38 36.25 37 39.50L37 39.50Q34.75 41.63 32.81 44.06Q30.88 46.50 29.50 49.38L29.50 49.38Q27.38 53.88 26.69 58.63Q26 63.38 26.38 68.25L26.38 68.25Q26.50 70.38 27 72.38Q27.50 74.38 28.25 76.25L28.25 76.25Q29.38 79.50 31.25 82.25Q33.13 85 35.38 87.50L35.38 87.50Q40.25 92.75 46.25 95.56Q52.25 98.38 59.38 98.75L59.38 98.75Q60.75 98.88 62.19 98.81Q63.63 98.75 65 98.75L65 98.75Q66.88 98.63 68.69 98.31Q70.50 98 72.25 97.50L72.25 97.50Q77.50 96.25 81.69 93.56Q85.88 90.88 89.25 86.75L89.25 86.75ZM83.75 65.50L83.75 65.50Q83 67.63 81.69 69.50Q80.38 71.38 78.75 72.88L78.75 72.88L64.88 85.88Q64.13 86.63 63.38 87.31Q62.63 88 61.75 88.50L61.75 88.50Q59.63 90 56.75 89.06Q53.88 88.13 52.88 85.38L52.88 85.38Q52.63 84.38 52.75 83.44Q52.88 82.50 53.25 81.63L53.25 81.63Q54 80.25 54.88 79.13Q55.75 78 56.75 76.88L56.75 76.88Q58.38 75.25 60 73.69Q61.63 72.13 63.25 70.50L63.25 70.50Q63.25 70.38 63.38 70.25Q63.50 70.13 63.63 70L63.63 70L56 70L50.38 70.13Q48.63 70.13 46.81 70.06Q45 70 43.13 69.88L43.13 69.88Q42.38 69.88 41.75 69.81Q41.13 69.75 40.50 69.75L40.50 69.75Q38.75 69.38 37.69 68.19Q36.63 67 36.25 65.25L36.25 65.25Q35.88 63.38 36.38 61.69Q36.88 60 38.25 58.75L38.25 58.75Q39 58 39.88 57.63Q40.75 57.25 41.75 57.25L41.75 57.25Q43.38 57.13 45 57.19Q46.63 57.25 48.25 57.25L48.25 57.25L63.63 57.25Q63.13 56.63 62.50 56Q61.88 55.38 61.25 54.75L61.25 54.75Q59.50 53.13 57.88 51.56Q56.25 50 54.75 48.25L54.75 48.25Q53.75 47.25 53.13 46.06Q52.50 44.88 52.38 43.38L52.38 43.38Q52.38 42.75 52.56 42.06Q52.75 41.38 53.13 40.75L53.13 40.75Q54 39.25 55.38 38.50Q56.75 37.75 58.50 37.75L58.50 37.75Q60.13 37.63 61.50 38.25Q62.88 38.88 64 39.88L64 39.88Q65.88 41.63 67.63 43.44Q69.38 45.25 71.25 47.13L71.25 47.13Q73.13 49 75 50.88Q76.88 52.75 78.75 54.75L78.75 54.75Q79.88 55.88 81 57.25Q82.13 58.63 82.88 60.13L82.88 60.13Q83.38 60.88 83.69 61.81Q84 62.75 84 63.63L84 63.63Q84.13 64.13 84.06 64.56Q84 65 83.75 65.50ZM15 102.13L15 110.38Q14.25 109.25 13 108.69Q11.75 108.13 10.38 108.13L10.38 108.13Q8.88 108.13 7.69 108.63Q6.50 109.13 5.38 110.25L5.38 110.25Q4.38 111.38 3.88 113Q3.38 114.63 3.38 116.75L3.38 116.75Q3.38 118.88 3.94 120.50Q4.50 122.13 5.50 123.25L5.50 123.25Q6.50 124.50 7.75 125.06Q9 125.63 10.50 125.63L10.50 125.63Q11.13 125.63 11.94 125.44Q12.75 125.25 13.38 124.88L13.38 124.88Q14.13 124.50 14.69 124Q15.25 123.50 16 122.75L16 122.75L16 125.13L20 125.13L20 102.13L15 102.13ZM14.38 120.75L14.38 120.75Q13.88 121.38 13.19 121.69Q12.50 122 11.75 122L11.75 122Q10.88 122 10.13 121.56Q9.38 121.13 8.75 120.25L8.75 120.25Q8.38 119.75 8.25 118.75Q8.13 117.75 8.13 116.38L8.13 116.38Q8.13 115.13 8.38 114.19Q8.63 113.25 9.25 112.63L9.25 112.63Q9.75 112 10.38 111.63Q11 111.25 11.75 111.25L11.75 111.25Q12.63 111.25 13.31 111.56Q14 111.88 14.50 112.63L14.50 112.63Q15 113.25 15.25 114.25Q15.50 115.25 15.50 116.75L15.50 116.75Q15.50 118.13 15.19 119.13Q14.88 120.13 14.38 120.75ZM31.88 108L31.88 108Q30.75 108 29.63 108.31Q28.50 108.63 27.38 109.13L27.38 109.13Q26.38 109.63 25.63 110.44Q24.88 111.25 24.25 112.25L24.25 112.25Q23.75 113.38 23.50 114.44Q23.25 115.50 23.25 116.63L23.25 116.63Q23.25 118 23.50 119.25Q23.75 120.50 24.25 121.50L24.25 121.50Q24.88 122.50 25.69 123.31Q26.50 124.13 27.50 124.63L27.50 124.63Q28.50 125.13 29.63 125.38Q30.75 125.63 31.88 125.63L31.88 125.63Q33.75 125.63 35.31 125Q36.88 124.38 38.13 123.13L38.13 123.13Q39.25 121.88 39.94 120.25Q40.63 118.63 40.63 116.75L40.63 116.75Q40.63 114.88 40 113.31Q39.38 111.75 38.25 110.63L38.25 110.63Q36.88 109.25 35.31 108.63Q33.75 108 31.88 108L31.88 108ZM34.75 120.63L34.75 120.63Q34.25 121.25 33.50 121.56Q32.75 121.88 31.88 121.88L31.88 121.88Q31 121.88 30.31 121.56Q29.63 121.25 29 120.63L29 120.63Q28.38 119.88 28.06 118.94Q27.75 118 27.75 116.75L27.75 116.75Q27.75 115.63 28.06 114.63Q28.38 113.63 29 113L29 113Q29.63 112.38 30.38 112.06Q31.13 111.75 31.88 111.75L31.88 111.75Q32.75 111.75 33.50 112.06Q34.25 112.38 34.75 113L34.75 113Q35.38 113.63 35.69 114.56Q36 115.50 36 116.75L36 116.75Q36 118 35.69 118.94Q35.38 119.88 34.75 120.63ZM53.38 121.25L53.38 121.25Q53 121.63 52.50 121.75Q52 121.88 51.25 121.88L51.25 121.88Q50.50 121.88 49.81 121.56Q49.13 121.25 48.63 120.75L48.63 120.75Q48.13 120.13 47.88 119.06Q47.63 118 47.63 116.50L47.63 116.50Q47.63 115.13 47.88 114.19Q48.13 113.25 48.63 112.75L48.63 112.75Q49.13 112.13 49.75 111.88Q50.38 111.63 51.25 111.63L51.25 111.63Q51.75 111.63 52.31 111.75Q52.88 111.88 53.25 112.25L53.25 112.25Q53.63 112.63 53.88 113.13Q54.13 113.63 54.25 114.25L54.25 114.25L58.63 113.50Q58.25 112.13 57.56 111.13Q56.88 110.13 56 109.50L56 109.50Q55.13 108.88 53.88 108.56Q52.63 108.25 51.13 108.25L51.13 108.25Q49.25 108.25 47.75 108.81Q46.25 109.38 45.25 110.50L45.25 110.50Q44.13 111.63 43.56 113.25Q43 114.88 43 117L43 117Q43 119 43.56 120.63Q44.13 122.25 45.25 123.38L45.25 123.38Q46.38 124.50 47.81 125.13Q49.25 125.75 51.13 125.75L51.13 125.75Q52.75 125.75 54.06 125.38Q55.38 125 56.25 124.25L56.25 124.25Q57.25 123.50 57.94 122.38Q58.63 121.25 58.88 119.75L58.88 119.75L54.50 119Q54.38 119.63 54.06 120.25Q53.75 120.88 53.38 121.25L53.38 121.25ZM67.88 121.88L67.88 121.88Q67.63 121.88 67.50 121.81Q67.38 121.75 67.13 121.75L67.13 121.75Q67 121.63 66.94 121.50Q66.88 121.38 66.88 121.13L66.88 121.13Q66.88 121 66.94 120.38Q67 119.75 67 118.75L67 118.75L67 112L70 112L70 108L67 108L67 102.50L62 105.13L62 108L60 108L60 112L62 112L62 119.25Q62 120.50 62.13 121.25Q62.25 122 62.25 122.38L62.25 122.38Q62.25 122.88 62.44 123.31Q62.63 123.75 62.88 124.13L62.88 124.13Q63.13 124.38 63.50 124.69Q63.88 125 64.25 125.13L64.25 125.13Q64.75 125.38 65.31 125.44Q65.88 125.50 66.50 125.50L66.50 125.50Q67.50 125.50 68.38 125.31Q69.25 125.13 70 124.75L70 124.75L69.63 121.38Q69.13 121.63 68.69 121.75Q68.25 121.88 67.88 121.88L67.88 121.88ZM78.75 108.63L78.75 108.63Q78.38 108.88 77.69 109.44Q77 110 77 110.75L77 110.75L77 108L73 108L73 125L77 125L77 120Q77 117.88 77.06 116.50Q77.13 115.13 77.38 114.38L77.38 114.38Q77.63 113.75 77.88 113.25Q78.13 112.75 78.38 112.50L78.38 112.50Q78.75 112.25 79.13 112.13Q79.50 112 80 112L80 112Q80.50 112 81 112.19Q81.50 112.38 82.13 112.75L82.13 112.75L83.50 108.75Q82.88 108.38 82.13 108.19Q81.38 108 80.63 108L80.63 108Q80.13 108 79.63 108.13Q79.13 108.25 78.75 108.63ZM85 125L85 108L90 108L90 125L85 125ZM85 106L85 102L90 102L90 106L85 106ZM108.50 109.88L108.50 109.88Q108.25 109.50 107.75 109.13Q107.25 108.75 106.75 108.50L106.75 108.50Q106.13 108.25 105.31 108.13Q104.50 108 103.75 108L103.75 108Q102.13 108 100.81 108.69Q99.50 109.38 98 110.75L98 110.75L98 108L94 108L94 125L99 125L99 117.63Q99 116.13 99 115.19Q99 114.25 99.25 113.75L99.25 113.75Q99.38 113.13 99.69 112.69Q100 112.25 100.38 112L100.38 112Q100.88 111.75 101.38 111.56Q101.88 111.38 102.38 111.38L102.38 111.38Q102.88 111.38 103.25 111.50Q103.63 111.63 103.88 111.75L103.88 111.75Q104.25 112 104.38 112.31Q104.50 112.63 104.75 113L104.75 113Q104.88 113.38 104.88 114.25Q104.88 115.13 104.88 116.50L104.88 116.50L104.88 124.88L109.88 124.88L109.88 114.75Q109.88 113.75 109.75 113Q109.63 112.25 109.50 111.75L109.50 111.75Q109.38 111.25 109.06 110.81Q108.75 110.38 108.50 109.88ZM122.75 121.75L122.75 121.75Q122.38 122 121.94 122.13Q121.50 122.25 121 122.25L121 122.25Q120.25 122.25 119.56 122Q118.88 121.75 118.38 121.25L118.38 121.25Q117.88 120.63 117.63 119.75Q117.38 118.88 117.25 118.13L117.25 118.13L128.38 118.13Q128.50 115.88 127.94 113.81Q127.38 111.75 126.25 110.63L126.25 110.63Q125.25 109.38 123.75 108.75Q122.25 108.13 120.38 108.13L120.38 108.13Q118.75 108.13 117.38 108.69Q116 109.25 114.88 110.50L114.88 110.50Q113.75 111.75 113.25 113.38Q112.75 115 112.75 117L112.75 117Q112.75 118.75 113.19 120.19Q113.63 121.63 114.38 122.75L114.38 122.75Q115.50 124.25 117.13 125Q118.75 125.75 120.88 125.75L120.88 125.75Q122.25 125.75 123.44 125.44Q124.63 125.13 125.50 124.38L125.50 124.38Q126.38 123.75 127.06 122.81Q127.75 121.88 128.25 120.75L128.25 120.75L123.75 120Q123.63 120.50 123.38 120.94Q123.13 121.38 122.75 121.75L122.75 121.75ZM118.38 112.25L118.38 112.25Q118.88 111.75 119.44 111.50Q120 111.25 120.75 111.25L120.75 111.25Q121.50 111.25 122.06 111.44Q122.63 111.63 123.13 112.25L123.13 112.25Q123.50 112.75 123.81 113.50Q124.13 114.25 124.13 115L124.13 115L117.50 115Q117.38 114.25 117.69 113.56Q118 112.88 118.38 112.25L118.38 112.25Z"/></svg>