<svg xmlns="http://www.w3.org/2000/svg" xmlns:xlink="http://www.w3.org/1999/xlink" width="128" height="128"><path fill="#000000" d="M112.25 79.13L112.25 79.13Q112.25 76.75 111.88 74.50Q111.50 72.25 110.88 70.13L110.88 70.13Q109.38 64.25 106.38 59.13Q103.38 54 99.38 49.50L99.38 49.50Q96.25 45.88 93 42.38Q89.75 38.88 86.50 35.25L86.50 35.25L61.88 8.50Q60.75 7.13 59.44 5.88Q58.13 4.63 56.75 3.38L56.75 3.38Q54.13 1.25 51.25 0.88Q48.38 0.50 45.25 1.38L45.25 1.38Q44.25 1.75 43.44 2.13Q42.63 2.50 41.75 3L41.75 3Q41.25 3.25 40.75 3.69Q40.25 4.13 39.75 4.75L39.75 4.75Q38.13 6.75 37.69 9.06Q37.25 11.38 37.50 13.88L37.50 13.88Q37.75 16 38.69 17.75Q39.63 19.50 41 21L41 21Q43.75 23.88 46.44 26.81Q49.13 29.75 51.75 32.75L51.75 32.75L54.75 36.13L54.63 36.25L53.75 36.75Q48.25 39.38 43.19 42.69Q38.13 46 33.75 50.25L33.75 50.25Q30.75 53.13 28.25 56.31Q25.75 59.50 24 63.25L24 63.25Q21.25 69 20.38 75.13Q19.50 81.25 19.88 87.63L19.88 87.63Q20.13 90.25 20.75 92.81Q21.38 95.38 22.25 97.88L22.25 97.88Q23.88 102 26.25 105.56Q28.63 109.13 31.63 112.38L31.63 112.38Q37.88 119.13 45.69 122.81Q53.50 126.50 62.75 127L62.75 127Q64.50 127.13 66.31 127.06Q68.13 127 69.88 126.88L69.88 126.88Q72.25 126.75 74.63 126.38Q77 126 79.38 125.38L79.38 125.38Q86 123.75 91.44 120.25Q96.88 116.75 101.25 111.50L101.25 111.50Q107.25 104.50 109.94 96.38Q112.63 88.25 112.25 79.13L112.25 79.13ZM94.38 84.13L94.38 84.13Q93.38 86.88 91.69 89.25Q90 91.63 87.75 93.75L87.75 93.75Q83.38 97.88 78.94 102.06Q74.50 106.25 70 110.50L70 110.50Q69 111.38 68 112.25Q67 113.13 66 113.88L66 113.88Q63.25 115.88 59.50 114.69Q55.75 113.50 54.50 109.88L54.50 109.88Q54 108.75 54.19 107.50Q54.38 106.25 55 105L55 105Q55.88 103.25 57 101.75Q58.13 100.25 59.50 98.88L59.50 98.88Q61.50 96.75 63.63 94.75Q65.75 92.75 67.75 90.63L67.75 90.63L68.38 90L58.50 90Q56.75 90 54.94 90.06Q53.13 90.13 51.25 90.13L51.25 90.13Q48.88 90.13 46.50 90.06Q44.13 90 41.75 89.75L41.75 89.75Q41 89.75 40.13 89.69Q39.25 89.63 38.38 89.50L38.38 89.50Q36.13 89 34.75 87.50Q33.38 86 33 83.75L33 83.75Q32.50 81.25 33.13 79.13Q33.75 77 35.50 75.25L35.50 75.25Q36.50 74.38 37.69 73.94Q38.88 73.50 40.13 73.38L40.13 73.38Q42.25 73.38 44.38 73.31Q46.50 73.25 48.63 73.25L48.63 73.25L68.38 73.25Q67.63 72.50 66.88 71.69Q66.13 70.88 65.38 70.13L65.38 70.13Q63.25 68 61.13 65.94Q59 63.88 56.88 61.75L56.88 61.75Q55.63 60.38 54.81 58.75Q54 57.13 53.88 55.25L53.88 55.25Q53.88 54.38 54.13 53.56Q54.38 52.75 54.75 51.88L54.75 51.88Q56 50 57.75 49Q59.50 48 61.75 47.88L61.75 47.88Q63.88 47.75 65.63 48.56Q67.38 49.38 68.88 50.75L68.88 50.75Q71.25 53 73.56 55.38Q75.88 57.75 78.25 60.13L78.25 60.13Q80.63 62.63 83.06 65Q85.50 67.38 87.88 69.88L87.88 69.88Q89.50 71.50 90.88 73.25Q92.25 75 93.38 76.88L93.38 76.88Q94 78 94.44 79.13Q94.88 80.25 94.88 81.50L94.88 81.50Q94.88 82.25 94.75 82.94Q94.63 83.63 94.38 84.13L94.38 84.13Z"/></svg>