<svg xmlns="http://www.w3.org/2000/svg" xmlns:xlink="http://www.w3.org/1999/xlink" width="128" height="128"><path fill="#000000" d="M61 0.25L61 0.25Q48.38 0.25 37.25 5.25L37.25 5.25Q26.13 10.25 17.88 18.88Q9.63 27.50 4.88 39.13L4.88 39.13Q0.13 50.63 0.13 63.75L0.13 63.75Q0.13 77 4.88 88.50L4.88 88.50Q9.63 100.13 17.94 108.75Q26.25 117.38 37.25 122.38L37.25 122.38Q48.38 127.38 61 127.38L61 127.38Q73.50 127.38 84.63 122.38L84.63 122.38Q95.75 117.38 104 108.75Q112.25 100.13 117 88.50L117 88.50Q121.88 77 121.88 63.75L121.88 63.75Q121.88 50.63 117 39.13L117 39.13Q112.25 27.50 104 18.88Q95.75 10.25 84.63 5.25L84.63 5.25Q73.50 0.25 61 0.25ZM61 6.38L61 6.38Q72.38 6.38 82.38 10.88L82.38 10.88Q92.38 15.38 99.88 23.19Q107.38 31 111.63 41.50L111.63 41.50Q116 51.88 116 63.75L116 63.75Q116 65.63 115.88 67.50Q115.75 69.38 115.50 71.13L115.50 71.13Q114.38 75.75 112.44 79Q110.50 82.25 108.13 84.38L108.13 84.38Q104.38 87.63 99.69 88.81Q95 90 90.50 90L90.50 90Q90.50 90 90.44 90Q90.38 90 90.38 90L90.38 90Q89.13 90 87.81 89.94Q86.50 89.88 85.25 89.75L85.25 89.75L85.50 89.75Q90 85.13 92.63 79.38L92.63 79.38Q95.13 73.50 95.75 67.31Q96.38 61.13 94.88 55L94.88 55Q93.38 48.75 89.88 43.38L89.88 43.38Q86.25 37.88 81.38 34.13L81.38 34.13Q76.38 30.50 70.63 28.75Q64.88 27 58.75 27.38L58.75 27.38Q52.63 27.75 46.88 30.38L46.88 30.38Q46.50 30.13 46.13 29.88Q45.75 29.63 45.25 29.38L45.25 29.38L45.25 29.25Q43.38 28.25 39.75 27.06Q36.13 25.88 31.38 25.75L31.38 25.75Q27.38 25.75 23.50 26.94Q19.63 28.13 16.25 30.38L16.25 30.38Q20.13 24.75 25.13 20.25L25.13 20.25Q30 15.88 35.81 12.75Q41.63 9.63 47.88 8L47.88 8Q54.25 6.38 61 6.38L61 6.38L61 6.38ZM51.38 84.63L51.38 84.63Q52 81.50 53.63 77.19Q55.25 72.88 56.88 69L56.88 69Q57.38 67.88 57.81 66.81Q58.25 65.75 58.63 64.88L58.63 64.88Q61.25 74.50 63.25 80.56Q65.25 86.63 68.25 90.50L68.25 90.50Q68.63 91.13 69.13 91.63Q69.63 92.13 70.13 92.63L70.13 92.63L70.13 92.63Q68.13 93.38 65.75 93.75Q63.38 94.13 61 94.13L61 94.13L61 94.13Q58.25 94.13 55.69 93.63Q53.13 93.13 50.75 92.25L50.75 92.25L50.88 92.25Q50.88 91.75 50.88 91.13Q50.88 90.50 50.88 89.88L50.88 89.88Q50.88 89.75 50.88 89.69Q50.88 89.63 50.88 89.63L50.88 89.63Q50.88 88.25 51 87Q51.13 85.75 51.38 84.50L51.38 84.50L51.38 84.63L51.38 84.63ZM43.88 88.38L43.88 88.38Q38.25 84.13 35.06 77.63Q31.88 71.13 31.88 63.75L31.88 63.75Q31.88 56.38 35.13 49.81Q38.38 43.25 44.25 39L44.25 39Q45.50 39.75 46.56 40.63Q47.63 41.50 48.63 42.50L48.63 42.50Q50.38 44.38 52.25 48.13Q54.13 51.88 55.50 55.50L55.50 55.50Q55.88 56.50 56.25 57.44Q56.63 58.38 56.88 59.25L56.88 59.25Q51.88 70 48.56 76.25Q45.25 82.50 43.88 88.38L43.88 88.38ZM65.75 70.13L65.75 70.13Q64.63 67.13 64 65.13Q63.38 63.13 63.38 63L63.38 63L63.38 63Q61.25 54.75 58.75 47.50Q56.25 40.25 51.88 35L51.88 35Q53.88 34.25 56.19 33.88Q58.50 33.50 61 33.50L61 33.50L61 33.50Q67 33.50 72.25 35.88L72.25 35.88Q77.63 38.25 81.56 42.38Q85.50 46.50 87.75 52L87.75 52Q90 57.50 90 63.75L90 63.75Q90 71 86.88 77.50Q83.75 84 78.13 88.25L78.13 88.25Q77.50 88.13 76.94 87.94Q76.38 87.75 75.88 87.50L75.88 87.50L76 87.50Q75.13 87.13 73.94 85.88Q72.75 84.63 71.63 82.75L71.63 82.75Q69.88 80.13 68.31 76.63Q66.75 73.13 65.75 70.13L65.75 70.13L65.75 70.13ZM61 121.25L61 121.25Q49.50 121.25 39.50 116.75L39.50 116.75Q29.50 112.25 22.06 104.44Q14.63 96.63 10.25 86.13L10.25 86.13Q5.88 75.75 5.88 63.75L5.88 63.75Q5.88 62.25 6 60.69Q6.13 59.13 6.25 57.63L6.25 57.63Q9.63 45.63 16.88 40.63Q24.13 35.63 31.88 35.63L31.88 35.63Q33.38 35.63 34.94 35.81Q36.50 36 37.88 36.38L37.88 36.38Q33 40.88 30 46.75L30 46.75Q27.13 52.63 26.31 59.06Q25.50 65.50 26.88 71.88L26.88 71.88Q28.25 78.38 31.88 84.13L31.88 84.13Q35.63 89.75 40.75 93.63L40.75 93.63Q46 97.38 51.94 99.06Q57.88 100.75 64.25 100.13L64.25 100.13Q70.63 99.50 76.50 96.50L76.50 96.50Q78.50 97.25 80.94 97.75Q83.38 98.25 86.25 98.63L86.25 98.63Q87.38 98.75 88.56 98.81Q89.75 98.88 91 98.88L91 98.88Q95 98.88 98.88 98.31Q102.75 97.75 106.38 96.75L106.38 96.75L106 96.75Q102.13 102.50 97.13 107.13L97.13 107.13Q92.13 111.63 86.31 114.75Q80.50 117.88 74.13 119.50L74.13 119.50Q67.63 121.25 61 121.25L61 121.25Z"/></svg>