<svg xmlns="http://www.w3.org/2000/svg" xmlns:xlink="http://www.w3.org/1999/xlink" width="128" height="128"><path fill="#000000" d="M6.25 52.75L6.25 52.75Q8.75 53.88 16 56.88L16 56.88Q23.13 60 31.25 63.31Q39.38 66.63 46.50 69.63L46.50 69.63Q53.50 72.50 55.75 73.63L55.75 73.63Q60 75.75 63.75 75.63Q67.50 75.50 73.13 72.63L73.13 72.63Q75.88 71.13 82.88 68.13L82.88 68.13Q90 65 97.81 61.63Q105.63 58.25 112.63 55.25L112.63 55.25Q119.50 52.38 122 51L122 51Q124.50 49.63 125.69 48.56Q126.88 47.50 126.88 46.63L126.88 46.63L126.88 34.13Q126.88 33.13 125.63 32.25Q124.38 31.38 121.88 30.50L121.88 30.50Q119.50 29.63 112.63 26.88L112.63 26.88Q105.75 24.25 98.06 21.25Q90.38 18.25 83.50 15.50L83.50 15.50Q76.63 12.88 74.25 11.88L74.25 11.88Q69.25 10.13 66.13 10.19Q63 10.25 57.13 12.38L57.13 12.38Q54.13 13.50 46.75 16.25L46.75 16.25Q39.38 19.13 31.13 22.38Q22.88 25.63 15.63 28.38L15.63 28.38Q8.50 31.25 6 32.25L6 32.25Q3.63 33.13 2.31 34Q1 34.88 1 35.88L1 35.88L0.75 35.88L0.75 48.63Q1 49.50 2.38 50.50Q3.75 51.50 6.25 52.75L6.25 52.75ZM66.63 54.50L66.63 54.50L46.25 46.13L75.38 41.63L66.63 54.50ZM93.50 27.75L110.75 34.50L93.50 41.25L91.63 42L74.38 35.25L93.50 27.75ZM60.13 22L60.13 22L57.25 16.75L66.13 20.25L74.38 17.50L72.25 22.88L80.63 26.13L69.75 27.25L67.25 33.13L63.38 26.63L50.75 25.50L60.13 22ZM38.38 29.25L38.38 29.25Q44.88 29.25 49.44 31.06Q54 32.88 54 35.25L54 35.25Q54 37.75 49.44 39.50Q44.88 41.25 38.38 41.25L38.38 41.25Q32 41.25 27.38 39.50Q22.75 37.75 22.75 35.25L22.75 35.25Q22.75 32.88 27.38 31.06Q32 29.25 38.38 29.25ZM122 59.75L122 59.75Q119.50 61.13 112.63 64.13L112.63 64.13Q105.75 67.13 97.88 70.50Q90 73.88 83 76.88L83 76.88Q76 80 73.25 81.38L73.25 81.38Q67.63 84.38 63.94 84.44Q60.25 84.50 55.88 82.38L55.88 82.38Q53.75 81.38 46.63 78.38L46.63 78.38Q39.50 75.50 31.38 72.13Q23.25 68.75 16 65.75L16 65.75Q8.75 62.75 6.25 61.50L6.25 61.50Q3.75 60.25 2.38 59.25Q1 58.25 1 57.25L1 57.25L1 70Q1 71 2.38 72Q3.75 73 6.25 74.25L6.25 74.25Q8.75 75.38 16 78.38L16 78.38Q23.13 81.50 31.25 84.81Q39.38 88.13 46.50 91.13L46.50 91.13Q53.50 94 55.75 95.13L55.75 95.13Q60 97.25 63.75 97.13Q67.50 97 73.13 94.13L73.13 94.13Q75.88 92.63 82.88 89.63L82.88 89.63Q90 86.50 97.81 83.13Q105.63 79.75 112.63 76.75L112.63 76.75Q119.50 73.88 122 72.50L122 72.50Q124.50 71.13 125.69 70.06Q126.88 69 126.88 68.13L126.88 68.13L126.88 55.63Q126.88 56.38 125.69 57.44Q124.50 58.50 122 59.75ZM122 80.50L122 80.50Q119.50 81.75 112.63 84.88L112.63 84.88Q105.75 87.88 97.88 91.19Q90 94.50 83 97.63L83 97.63Q76 100.63 73.25 102.13L73.25 102.13Q67.63 105 63.94 105.13Q60.25 105.25 55.88 103.13L55.88 103.13Q53.75 102 46.63 99.13L46.63 99.13Q39.50 96.13 31.38 92.81Q23.25 89.50 16 86.38L16 86.38Q8.75 83.38 6.25 82.25L6.25 82.25Q3.75 81.13 2.38 80.06Q1 79 1 78L1 78L1 90.75Q1 91.63 2.38 92.69Q3.75 93.75 6.25 94.88L6.25 94.88Q8.75 96.13 16 99.13L16 99.13Q23.13 102.13 31.25 105.50Q39.38 108.88 46.50 111.75L46.50 111.75Q53.50 114.75 55.75 115.75L55.75 115.75Q60 117.88 63.75 117.75Q67.50 117.63 73.13 114.75L73.13 114.75Q75.88 113.38 82.88 110.25L82.88 110.25Q90 107.25 97.81 103.88Q105.63 100.50 112.63 97.50L112.63 97.50Q119.50 94.50 122 93.25L122 93.25Q124.50 91.88 125.69 90.81Q126.88 89.75 126.88 88.75L126.88 88.75L126.88 76.25Q126.88 77.25 125.69 78.25Q124.50 79.25 122 80.50L122 80.50Z"/></svg>