<svg xmlns="http://www.w3.org/2000/svg" xmlns:xlink="http://www.w3.org/1999/xlink" width="128" height="128"><path fill="#000000" d="M21.75 31.88L21.75 31.88Q23.63 32.75 28.88 35L28.88 35Q34 37.13 39.88 39.56Q45.75 42 50.88 44.13L50.88 44.13Q56 46.25 57.63 47L57.63 47Q60.75 48.50 63.44 48.44Q66.13 48.38 70.25 46.25L70.25 46.25Q72.13 45.25 77.25 43L77.25 43Q82.38 40.88 88.06 38.44Q93.75 36 98.75 33.75L98.75 33.75Q103.75 31.63 105.50 30.75L105.50 30.75Q107.38 29.75 108.25 28.94Q109.13 28.13 109.13 27.50L109.13 27.50L109.13 18.38Q109.13 17.75 108.19 17.13Q107.25 16.50 105.50 15.75L105.50 15.75L71 2.38Q67.38 1 65.13 1.13Q62.88 1.25 58.75 2.75L58.75 2.75Q56.50 3.50 51.13 5.50L51.13 5.50Q45.75 7.63 39.81 9.94Q33.88 12.25 28.63 14.25L28.63 14.25Q23.50 16.38 21.75 17L21.75 17Q20 17.63 19.06 18.31Q18.13 19 18.13 19.75L18.13 19.75L18 19.75L18 28.75Q18 29.50 19 30.31Q20 31.13 21.75 31.88L21.75 31.88ZM71.75 23.88L65.38 33.25L50.75 27.13L71.75 23.88ZM84.88 13.75L97.25 18.75L83.50 24.13L71.13 19.25L84.88 13.75ZM60.75 9.75L60.75 9.75L58.75 5.88L65.13 8.38L71.13 6.38L69.50 10.25L75.63 12.63L67.75 13.38L65.88 17.63L63.13 13L54 12.25L60.75 9.75ZM45.13 15L45.13 15Q49.75 15 53.06 16.31Q56.38 17.63 56.38 19.38L56.38 19.38Q56.38 21.25 53.13 22.50Q49.88 23.75 45.13 23.75L45.13 23.75Q40.50 23.75 37.13 22.50Q33.75 21.25 33.75 19.38L33.75 19.38Q33.75 17.63 37.13 16.31Q40.50 15 45.13 15L45.13 15ZM21.75 47.50L21.75 47.50Q23.63 48.38 28.88 50.50L28.88 50.50Q34 52.75 39.88 55.19Q45.75 57.63 50.88 59.75L50.88 59.75Q56 61.88 57.63 62.63L57.63 62.63Q60.75 64.13 63.44 64Q66.13 63.88 70.25 61.88L70.25 61.88Q72.13 60.88 77.25 58.63L77.25 58.63Q82.38 56.38 88.06 53.94Q93.75 51.50 98.75 49.38L98.75 49.38Q103.75 47.25 105.50 46.25L105.50 46.25Q107.38 45.38 108.25 44.56Q109.13 43.75 109.13 43.13L109.13 43.13L109.13 34Q109.13 34.63 108.25 35.38Q107.38 36.13 105.63 37.13L105.63 37.13Q103.75 38 98.75 40.25L98.75 40.25Q93.75 42.38 88.13 44.81Q82.50 47.25 77.38 49.50L77.38 49.50Q72.25 51.63 70.25 52.75L70.25 52.75Q66.38 54.75 63.69 54.88Q61 55 57.75 53.38L57.75 53.38Q56.25 52.63 51.13 50.50L51.13 50.50Q46 48.38 40.06 45.94Q34.13 43.50 29 41.38L29 41.38Q23.75 39.13 21.88 38.25L21.88 38.25Q20.13 37.50 19.13 36.75Q18.13 36 18.13 35.25L18.13 35.25L18.13 44.50Q18 45.13 19 45.88Q20 46.63 21.75 47.50L21.75 47.50ZM21.75 62.50L21.75 62.50Q23.63 63.38 28.88 65.50L28.88 65.50Q34 67.75 39.88 70.19Q45.75 72.63 50.88 74.75L50.88 74.75Q56 76.88 57.63 77.63L57.63 77.63Q60.75 79.13 63.44 79Q66.13 78.88 70.25 76.88L70.25 76.88Q72.13 75.88 77.25 73.63L77.25 73.63Q82.38 71.38 88.06 68.94Q93.75 66.50 98.75 64.38L98.75 64.38Q103.75 62.25 105.50 61.25L105.50 61.25Q107.38 60.38 108.25 59.56Q109.13 58.75 109.13 58.13L109.13 58.13L109.13 49Q109.13 49.63 108.25 50.38Q107.38 51.13 105.63 52.13L105.63 52.13Q103.75 53 98.75 55.25L98.75 55.25Q93.75 57.38 88.13 59.81Q82.50 62.25 77.38 64.50L77.38 64.50Q72.25 66.63 70.25 67.75L70.25 67.75Q66.38 69.75 63.69 69.88Q61 70 57.75 68.38L57.75 68.38Q56.25 67.63 51.13 65.50L51.13 65.50Q46 63.38 40.06 60.94Q34.13 58.50 29 56.38L29 56.38Q23.75 54.13 21.88 53.25L21.88 53.25Q20.13 52.50 19.13 51.75Q18.13 51 18.13 50.25L18.13 50.25L18.13 59.50Q18 60.13 19 60.88Q20 61.63 21.75 62.50L21.75 62.50ZM21.38 97.63L21.38 97.63Q21.38 96.13 20.38 95.19Q19.38 94.25 17.88 94.25L17.88 94.25Q15.38 94.13 13.25 94.88Q11.13 95.63 9.50 96.75L9.50 96.75Q9.13 97 8.94 97.38Q8.75 97.75 8 98L8 98L8 97.50Q8 96.13 6.94 95.13Q5.88 94.13 4.38 94.13L4.38 94.13Q3 94.13 2 95.13Q1 96.13 1 97.50L1 97.50L1 123.38Q1 124.88 2 125.88Q3 126.88 4.38 126.88L4.38 126.88Q5.88 126.88 6.94 125.88Q8 124.88 8 123.38L8 123.38L8 111Q8.75 110.38 9.19 108.75Q9.63 107.13 10.75 105.50L10.75 105.50Q11.38 104.50 12.13 103.69Q12.88 102.88 13.88 102.25L13.88 102.25Q14.75 101.63 15.75 101.31Q16.75 101 17.88 101L17.88 101Q19.38 101.13 20.38 100.06Q21.38 99 21.38 97.63L21.38 97.63ZM35.25 94.13L35.25 94.13Q28.50 94.13 23.94 99Q19.38 103.88 19.25 110.63L19.25 110.63Q19.38 117.38 24 122.19Q28.63 127 35.38 127.13L35.38 127.13Q38.88 127.13 41.81 126.06Q44.75 125 47.25 122.75L47.25 122.75Q48.38 121.75 48.13 120.44Q47.88 119.13 47.25 118.50L47.25 118.50Q46.50 117.63 44.94 117.63Q43.38 117.63 42.25 118.75L42.25 118.75Q41.13 119.63 39.19 120.06Q37.25 120.50 35.50 120.25L35.50 120.25Q33.75 120.13 32 119.38Q30.25 118.63 29.25 117.38L29.25 117.38Q28.25 116.63 27.75 115.25Q27.25 113.88 27 113.13L27 113.13L47.88 113.13Q49.25 113.13 50.13 112.38Q51 111.63 51.13 110.38L51.13 110.38Q51.13 110.38 51.06 110.13Q51 109.88 51 109.75L51 109.75L51 109.50Q51 102.75 46.38 98.44Q41.75 94.13 35.25 94.13L35.25 94.13ZM45.25 107L26.63 107Q27 105.50 29.13 102.88Q31.25 100.25 35.50 100L35.50 100Q39.75 100.38 42.25 102.94Q44.75 105.50 45.25 107L45.25 107ZM85 110.63L85 110.63L85 84.50Q85 83.13 84 82Q83 80.88 81.50 80.88L81.50 80.88Q80 80.88 79 81.94Q78 83 78 84.50L78 84.50L78 96.88Q75.75 95.63 73.63 94.88Q71.50 94.13 69.13 94.13L69.13 94.13Q62.38 94.13 57.69 99Q53 103.88 53 110.63L53 110.63Q53 117.25 57.69 122.13Q62.38 127 69 127L69 127Q71.50 127 73.75 126.25Q76 125.50 77.88 124.25L77.88 124.25Q78.13 125.38 79.06 126.19Q80 127 81.38 127L81.38 127Q82.88 127 83.94 125.94Q85 124.88 85 123.38L85 123.38L85 110.63ZM75.13 117.13L75.13 117.13Q73.88 118.38 72.31 119.06Q70.75 119.75 68.88 119.75L68.88 119.75Q67.13 119.75 65.56 119.06Q64 118.38 62.75 117.13L62.75 117.13Q61.50 115.88 60.81 114.19Q60.13 112.50 60.13 110.63L60.13 110.63Q60.13 108.63 60.81 106.94Q61.50 105.25 62.75 104L62.75 104Q63.88 102.75 65.50 102Q67.13 101.25 68.88 101.25L68.88 101.25Q70.75 101.25 72.31 102Q73.88 102.75 75.13 104L75.13 104Q76.25 105.25 77 106.94Q77.75 108.63 77.75 110.63L77.75 110.63Q77.75 112.50 77.06 114.19Q76.38 115.88 75.13 117.13ZM93.50 80.88L93.50 80.88Q92 80.88 91 81.94Q90 83 90 84.50L90 84.50L90 85.88Q90 87.38 91 88.44Q92 89.50 93.50 89.50L93.50 89.50Q95 89.50 96 88.44Q97 87.38 97 85.88L97 85.88L97 84.50Q97 83 96 81.94Q95 80.88 93.50 80.88ZM93.50 94.13L93.50 94.13Q92 94.13 91 95.13Q90 96.13 90 97.75L90 97.75L90 123.38Q90 124.88 91 125.94Q92 127 93.50 127L93.50 127Q95 127 96 125.94Q97 124.88 97 123.38L97 123.38L97 97.75Q97 96.25 96 95.19Q95 94.13 93.50 94.13L93.50 94.13ZM125.63 112.38L125.63 112.38Q124.75 111 123.50 110.13Q122.25 109.25 120.88 108.75L120.88 108.75Q119.50 108 118 107.50Q116.50 107 114.75 107L114.75 107L114.75 107L114.63 106.75Q113 106.38 111.75 105.94Q110.50 105.50 109.75 105L109.75 105Q109.38 104.75 109.25 104.56Q109.13 104.38 109.13 104.25L109.13 104.25Q109 104.13 109 104Q109 103.88 109 103.75L109 103.75Q109 103.50 109.19 103.06Q109.38 102.63 110.13 102.25L110.13 102.25Q110.75 101.63 111.81 101.31Q112.88 101 114.13 101L114.13 101Q115.63 101 117.13 101.69Q118.63 102.38 120.25 103.38L120.25 103.38Q121.38 104.25 122.81 104Q124.25 103.75 125.13 102.50L125.13 102.50Q125.88 101.25 125.56 99.81Q125.25 98.38 124 97.63L124 97.63Q122.38 96.50 119.94 95.25Q117.50 94 114.13 94L114.13 94Q111.88 94 109.81 94.63Q107.75 95.25 106 96.38L106 96.38Q104.38 97.63 103.25 99.50Q102.13 101.38 102.13 103.63L102.13 103.63Q102.13 104.75 102.38 105.81Q102.63 106.88 103.25 107.75L103.25 107.75Q104.13 109 105.25 109.81Q106.38 110.63 107.75 111.25L107.75 111.25Q109 111.88 110.44 112.31Q111.88 112.75 113.38 112.75L113.38 112.75L113.50 112.75Q115.25 113.50 116.63 113.94Q118 114.38 118.75 114.88L118.75 114.88Q119.13 115.13 119.38 115.38Q119.63 115.63 119.75 115.75L119.75 115.75Q119.75 116 119.81 116.13Q119.88 116.25 119.88 116.50L119.88 116.50Q119.88 116.88 119.63 117.38Q119.38 117.88 118.75 118.50L118.75 118.50Q117.88 119 116.69 119.38Q115.50 119.75 114.25 119.75L114.25 119.75Q112.25 119.88 110.25 118.94Q108.25 118 107 116.88L107 116.88Q106 115.88 104.44 116.06Q102.88 116.25 102.13 117.38L102.13 117.38Q101.25 118.50 101.38 119.94Q101.50 121.38 102.63 122.25L102.63 122.25Q104.50 123.88 107.50 125.31Q110.50 126.75 114.25 126.75L114.25 126.75Q116.75 126.75 118.94 126.06Q121.13 125.38 122.88 124.25L122.88 124.25Q124.75 122.88 125.88 120.94Q127 119 127 116.63L127 116.63Q126.88 115.50 126.56 114.44Q126.25 113.38 125.63 112.38L125.63 112.38Z"/></svg>