<svg xmlns="http://www.w3.org/2000/svg" xmlns:xlink="http://www.w3.org/1999/xlink" width="128" height="128"><path fill="#ffffff" d="M29.75 9.63L29.75 9.63Q26.50 9.50 24.13 11.50Q21.75 13.50 21.75 16.38L21.75 16.38L21.75 28.88L3.50 28.88Q2.13 28.88 1.06 29.94Q0 31 0 32.50L0 32.50L0 32.50L0 33.88Q0 35.25 1.06 36.31Q2.13 37.38 3.50 37.38L3.50 37.38Q3.50 37.38 3.50 37.38Q3.50 37.38 3.50 37.38L3.50 37.38L21.75 37.38L21.75 65L3.50 65Q2.13 65 1.06 66.06Q0 67.13 0 68.50L0 68.50L0 68.50L0 69.88Q0 71.38 1.06 72.38Q2.13 73.38 3.50 73.38L3.50 73.38L3.50 73.38L21.75 73.38L21.75 85.88Q21.75 89.75 25.69 91.75Q29.63 93.75 33.50 91.75L33.50 91.75L103 57Q103.63 56.75 104.19 56.31Q104.75 55.88 105.25 55.38L105.25 55.38L124.50 55.38Q125.88 55.38 126.94 54.38Q128 53.38 128 51.88L128 51.88L128 51.88L128 50.50Q128 49 126.94 48Q125.88 47 124.50 47L124.50 47L124.50 47L105.25 47Q104.88 46.50 104.31 46.06Q103.75 45.63 103 45.25L103 45.25L33.50 10.50Q32.75 10.13 31.75 9.88Q30.75 9.63 29.75 9.63L29.75 9.63L29.75 9.63ZM46.50 48.13L46.50 36.13L52.63 36.13L52.63 48.13L64.50 48.13L64.50 54.25L52.63 54.25L52.63 66.25L46.50 66.25L46.50 54.25L34.50 54.25L34.50 48.13L46.50 48.13ZM93.50 102.50L93.50 102.50Q92.88 102.50 92.81 103.50Q92.75 104.50 93.38 104.75L93.38 104.75Q93.50 104.75 93.75 104.88Q94 105 94 105.13L94 105.13Q94.13 105.25 94.56 106.81Q95 108.38 95.63 110.50L95.63 110.50Q97 115.88 97.94 119.31Q98.88 122.75 99 123.25L99 123.25Q99.13 123.50 99.38 123.56Q99.63 123.63 100.50 123.63L100.50 123.63L101.63 123.50L103.25 118.25Q105.25 111.25 105.88 109.44Q106.50 107.63 106.63 107.63L106.63 107.63Q106.75 107.63 107.13 108.81Q107.50 110 109.38 116.75L109.38 116.75L111.13 123.50L112.38 123.63Q113.25 123.63 113.44 123.56Q113.63 123.50 113.88 123.25L113.88 123.25Q114 122.88 115 119.25Q116 115.63 117.38 110.13L117.38 110.13Q118.25 106.88 118.56 106.06Q118.88 105.25 119.25 104.75L119.25 104.75Q119.63 104.38 119.75 104.13Q119.88 103.88 119.88 103.50L119.88 103.50Q119.88 102.88 119.56 102.69Q119.25 102.50 118.38 102.63L118.38 102.63Q117.25 102.75 116.69 104.19Q116.13 105.63 114.50 111.75L114.50 111.75Q113.25 116.63 112.81 118.06Q112.38 119.50 112.25 119.25L112.25 119.25Q112.13 119.13 111.50 116.75Q110.88 114.38 110 111.13L110 111.13Q109.13 107.88 108.44 105.50Q107.75 103.13 107.63 103L107.63 103Q107.63 102.88 107.31 102.81Q107 102.75 106.63 102.75L106.63 102.75Q106 102.75 105.81 102.81Q105.63 102.88 105.50 103.38L105.50 103.38Q105.25 103.75 103.56 109.56Q101.88 115.38 100.88 118.88L100.88 118.88Q100.75 119 100.69 119.13Q100.63 119.25 100.50 119.25L100.50 119.25Q100.38 119.38 100 118.25Q99.63 117.13 98.38 111.88L98.38 111.88Q97.13 107.13 96.56 105.38Q96 103.63 95.75 103.25L95.75 103.25Q95.50 103 94.75 102.75Q94 102.50 93.50 102.50L93.50 102.50ZM73.38 102.63L73.38 102.50Q72.88 102.50 72.13 102.50Q71.38 102.50 70.50 102.63L70.50 102.63Q68.50 102.63 67.06 102.69Q65.63 102.75 65.50 102.75L65.50 102.75Q65.38 102.88 65.13 103.19Q64.88 103.50 64.63 104L64.63 104Q64.25 104.75 62.50 109.50Q60.75 114.25 59.50 117.75L59.50 117.75Q59.13 118.63 58.88 119.25Q58.63 119.88 58.50 119.88L58.50 119.88Q58.38 119.88 58.25 119.63Q58.13 119.38 58 119L58 119Q54.25 108.88 53.13 106.06Q52 103.25 51.63 103L51.63 103Q51.13 102.75 50.44 102.63Q49.75 102.50 49.50 102.75L49.50 102.75Q49.25 102.88 49.19 103.13Q49.13 103.38 49.13 103.75L49.13 103.75Q49.13 104.13 49.25 104.31Q49.38 104.50 49.50 104.63L49.50 104.63Q50 104.75 50.69 106.38Q51.38 108 53.88 114.50L53.88 114.50Q55.13 117.75 56.06 120.25Q57 122.75 57.13 123L57.13 123Q57.25 123.50 57.44 123.56Q57.63 123.63 58.50 123.63L58.50 123.63L59.75 123.63L66.75 104.75L71.38 104.75L71.38 121.63L70.63 121.63Q70 121.63 69.75 121.88Q69.50 122.13 69.50 122.63L69.50 122.63Q69.50 123.38 70 123.50Q70.50 123.63 72.75 123.63L72.75 123.63L75.63 123.63L75.63 122.63Q75.63 121.88 75.50 121.75Q75.38 121.63 74.88 121.63L74.88 121.63Q74.63 121.63 74.38 121.63Q74.13 121.63 74.13 121.50L74.13 121.50Q74 121.50 73.88 119.44Q73.75 117.38 73.75 113L73.75 113L73.63 104.75L74.38 104.75Q75 104.75 75.31 104.50Q75.63 104.25 75.63 103.63L75.63 103.63Q75.63 103 75.31 102.81Q75 102.63 73.38 102.63L73.38 102.63ZM80 102.63L80 102.50Q79.13 102.63 78.63 102.63Q78.13 102.63 78 102.63L78 102.63Q77.63 102.75 77.44 103.31Q77.25 103.88 77.50 104.25L77.50 104.25Q77.63 104.50 77.81 104.63Q78 104.75 78.38 104.75L78.38 104.75L79 104.75L79.13 113.50Q79.25 120.50 79.44 121.88Q79.63 123.25 80.25 123.50L80.25 123.50Q80.50 123.50 82.19 123.56Q83.88 123.63 86 123.63L86 123.63L91.25 123.63L91.75 123.13Q92 122.75 92.06 122.38Q92.13 122 92.13 121.13L92.13 121.13L92.13 119.75L91.38 119.75Q90.63 119.75 90.44 119.88Q90.25 120 90 120.63L90 120.63Q89.88 121.13 89.69 121.25Q89.50 121.38 89 121.50L89 121.50Q88.38 121.63 85.25 121.56Q82.13 121.50 81.88 121.38L81.88 121.38Q81.88 121.38 81.81 120.31Q81.75 119.25 81.75 117.75L81.75 117.75L81.63 114.13L89.38 114.13L89.38 113.63Q89.38 113.38 89.38 113.06Q89.38 112.75 89.38 112.50L89.38 112.50L89.38 112L81.63 112L81.63 104.75L84.88 104.75Q87.50 104.75 88.31 104.88Q89.13 105 89.13 105.50L89.13 105.50Q89.13 106.13 89.44 106.44Q89.75 106.75 90.38 106.75L90.38 106.75L91.13 106.75L91.25 105.75Q91.38 104.63 91.19 103.94Q91 103.25 90.63 103L90.63 103Q90.25 102.75 89.13 102.69Q88 102.63 84.25 102.63L84.25 102.63Q83 102.63 81.94 102.63Q80.88 102.63 80 102.63L80 102.63ZM36.38 102.63L36.38 102.50Q35.75 102.63 35.56 102.88Q35.38 103.13 35.38 103.63L35.38 103.63Q35.38 104.13 35.50 104.25Q35.63 104.38 36 104.50L36 104.50Q36.88 104.50 37.06 105.69Q37.25 106.88 37.25 114.38L37.25 114.38L37.38 123.63L38.38 123.63Q39.13 123.50 39.25 123.44Q39.38 123.38 39.50 122.88L39.50 122.88Q39.50 122.25 39.81 122.25Q40.13 122.25 40.75 122.75L40.75 122.75Q40.88 123 41.38 123.25Q41.88 123.50 42.25 123.63L42.25 123.63Q44.63 124.50 46.75 123.56Q48.88 122.63 50.13 120.38L50.13 120.38Q51.50 117.75 51 114.69Q50.50 111.63 48.50 109.75L48.50 109.75Q47 108.38 44.75 108.31Q42.50 108.25 40.63 109.50L40.63 109.50Q40.25 109.88 39.94 110.06Q39.63 110.25 39.63 110.25L39.63 110.25Q39.63 110.25 39.56 109.25Q39.50 108.25 39.50 106.88L39.50 106.88Q39.38 103.88 39.13 103.31Q38.88 102.75 37.38 102.63L37.38 102.63Q37.13 102.63 36.88 102.56Q36.63 102.50 36.38 102.63L36.38 102.63ZM6.13 102.63L6.13 102.50Q5.88 102.63 5.69 102.63Q5.50 102.63 5.38 102.75L5.38 102.75Q5.13 102.88 5.06 103.06Q5 103.25 5 103.63L5 103.63Q5 104.13 5.19 104.31Q5.38 104.50 5.88 104.63L5.88 104.63L6.63 104.88L6.75 107.38Q6.88 108.50 6.94 111.13Q7 113.75 7 116.38L7 116.38Q7 120.75 7 121.81Q7 122.88 7.25 123.13L7.25 123.13Q7.38 123.25 7.56 123.38Q7.75 123.50 7.88 123.50L7.88 123.50Q8 123.50 9.63 123.56Q11.25 123.63 13.38 123.63L13.38 123.63Q17.13 123.63 17.88 123.56Q18.63 123.50 18.88 123.25L18.88 123.25Q19.25 122.88 19.31 122.56Q19.38 122.25 19.38 121.25L19.38 121.25L19.38 119.75L18.38 119.75Q17.75 119.75 17.56 119.81Q17.38 119.88 17.25 120.25L17.25 120.25Q17.13 121 16.81 121.19Q16.50 121.38 15.25 121.50L15.25 121.50Q13.88 121.63 11.81 121.56Q9.75 121.50 9.50 121.38L9.50 121.38Q9.38 121.25 9.31 118.88Q9.25 116.50 9.13 112.25L9.13 112.25Q9.13 106.38 9 104.81Q8.88 103.25 8.75 103L8.75 103Q8.50 102.75 7.63 102.63Q6.75 102.50 6.13 102.63L6.13 102.63ZM122.50 102.75L121.50 102.75L121.75 103.50Q121.88 104.13 122.06 104.25Q122.25 104.38 122.38 103.88L122.38 103.88Q122.38 103.50 122.63 103.38Q122.88 103.25 122.88 103.63L122.88 103.63Q122.88 103.88 123.06 104Q123.25 104.13 124 104.25L124 104.25Q124.63 104.38 124.88 104.13Q125.13 103.88 124.88 103.25L124.88 103.25Q124.88 103 124.75 102.94Q124.63 102.88 124.25 103L124.25 103Q124 103 123.81 103Q123.63 103 123.63 102.88L123.63 102.88Q123.50 102.88 123.19 102.81Q122.88 102.75 122.50 102.75L122.50 102.75ZM27.38 108.50L27.38 108.50Q25.75 108.50 25.13 108.56Q24.50 108.63 24 108.88L24 108.88Q23.13 109.25 22.81 109.69Q22.50 110.13 22.38 111.13L22.38 111.13L22.25 112.25L23.25 112.13Q23.88 112.13 24.06 112Q24.25 111.88 24.50 111.38L24.50 111.38Q24.88 110.75 25.50 110.44Q26.13 110.13 27.38 110.13L27.38 110.13Q28 110.13 28.50 110.25Q29 110.38 29.50 110.63L29.50 110.63Q30 111 30.25 111.25Q30.50 111.50 30.75 112.25L30.75 112.25Q31.13 113.38 30.88 113.75Q30.63 114.13 29.38 114.25L29.38 114.25Q26.25 114.63 24.94 115Q23.63 115.38 22.50 116.25L22.50 116.25Q21.50 117.13 21.19 118.69Q20.88 120.25 21.63 121.50L21.63 121.50Q22 122.13 22.88 122.81Q23.75 123.50 24.50 123.75L24.50 123.75Q25.25 124 26.31 124Q27.38 124 28 123.75L28 123.75Q28.38 123.63 28.94 123.31Q29.50 123 29.88 122.63L29.88 122.63L31 121.88L31.25 122.50Q31.25 122.75 31.44 123Q31.63 123.25 31.88 123.38L31.88 123.38Q32.25 123.63 33.50 123.63Q34.75 123.63 35 123.25L35 123.25Q35.50 122.88 35.25 122.38Q35 121.88 34.13 121.63L34.13 121.63L33.38 121.50L33.25 117Q33.25 115.13 33.13 113.56Q33 112 33 111.63L33 111.63Q32.75 110.88 32.06 110.06Q31.38 109.25 30.63 108.88L30.63 108.88Q30.13 108.63 29.50 108.56Q28.88 108.50 27.38 108.50L27.38 108.50ZM44.25 110.38L44.13 110.38Q45.63 110.38 46.56 111Q47.50 111.63 48.25 113.13L48.25 113.13Q48.63 114.13 48.63 116Q48.63 117.88 48.13 119L48.13 119Q47.75 120 46.88 120.81Q46 121.63 45.25 121.88L45.25 121.88Q44.50 122 44 122Q43.50 122 42.75 121.75L42.75 121.75Q41.75 121.38 41.13 120.69Q40.50 120 40.13 118.88L40.13 118.88Q39.63 117.75 39.56 116.50Q39.50 115.25 39.75 114L39.75 114Q40.25 112.13 41.31 111.25Q42.38 110.38 44.25 110.38L44.25 110.38ZM28.88 116.25L31 116L30.88 117.25Q30.75 118.88 29.81 120.19Q28.88 121.50 27.63 121.88L27.63 121.88Q26.13 122.25 24.94 121.69Q23.75 121.13 23.63 119.88L23.63 119.88Q23.50 119.13 23.63 118.63Q23.75 118.13 24.38 117.50L24.38 117.50Q25 116.88 26 116.56Q27 116.25 28.88 116.25L28.88 116.25Z"/></svg>