<svg xmlns="http://www.w3.org/2000/svg" xmlns:xlink="http://www.w3.org/1999/xlink" width="128" height="128"><path fill="#000000" d="M29.75 22.50L29.75 22.50Q26.50 22.38 24.13 24.38Q21.75 26.38 21.75 29.25L21.75 29.25L21.75 41.75L3.50 41.75Q2.13 41.75 1.06 42.81Q0 43.88 0 45.38L0 45.38L0 46.75Q0 48.13 1.06 49.19Q2.13 50.25 3.50 50.25L3.50 50.25Q3.50 50.25 3.50 50.25Q3.50 50.25 3.50 50.25L3.50 50.25L21.75 50.25L21.75 77.88L3.50 77.88Q2.13 77.88 1.06 78.94Q0 80 0 81.38L0 81.38L0 81.38L0 82.75Q0 84.25 1.06 85.25Q2.13 86.25 3.50 86.25L3.50 86.25L3.50 86.25L21.75 86.25L21.75 98.75Q21.75 102.63 25.69 104.63Q29.63 106.63 33.50 104.63L33.50 104.63L103 69.88Q103.63 69.63 104.19 69.19Q104.75 68.75 105.25 68.25L105.25 68.25L124.50 68.25Q125.88 68.25 126.94 67.19Q128 66.13 128 64.75L128 64.75L128 63.38Q128 61.88 126.94 60.88Q125.88 59.88 124.50 59.88L124.50 59.88L124.50 59.88L105.25 59.88Q104.88 59.38 104.31 58.94Q103.75 58.50 103 58.13L103 58.13L33.50 23.38Q32.75 23 31.75 22.75Q30.75 22.50 29.75 22.50L29.75 22.50L29.75 22.50ZM46.50 61L46.50 49L52.63 49L52.63 61L64.50 61L64.50 67.13L52.63 67.13L52.63 79L46.50 79L46.50 67.13L34.50 67.13L34.50 61L46.50 61Z"/></svg>