<svg xmlns="http://www.w3.org/2000/svg" xmlns:xlink="http://www.w3.org/1999/xlink" width="128" height="128"><path fill="#ffffff" d="M116.25 56.38L116.25 74.25L119.25 74.25Q120.63 74.25 121.50 73.38Q122.38 72.50 122.38 71.25L122.38 71.25Q122.38 71.25 122.38 71.25Q122.38 71.25 122.38 71.25L122.38 71.25L122.38 71.25L126.50 71.25Q126.50 74.25 124.38 76.31Q122.25 78.38 119.25 78.38L119.25 78.38L112.13 78.38L112.13 56.38L116.25 56.38ZM102 56.38L102 56.38Q99 56.38 96.88 58.50Q94.75 60.63 94.75 63.63L94.75 63.63L94.75 78.38L98.88 78.38Q98.88 76.75 98.88 74.94Q98.88 73.13 98.88 71.25L98.88 71.25Q98.88 70.88 98.88 70.50Q98.88 70.13 98.88 69.75L98.88 69.75L98.88 69.88L105 69.88L105 78.38L109.13 78.38Q109.13 78.38 109.13 75.69Q109.13 73 109.13 69.88L109.13 69.88L109.13 63.63Q109.13 60.63 107 58.50Q104.88 56.38 102 56.38L102 56.38ZM102 60.50L102 60.50Q103.25 60.50 104.13 61.44Q105 62.38 105 63.63L105 63.63Q105 63.63 105 63.63Q105 63.63 105 63.63L105 63.63L105 63.63L105 65.75L98.88 65.75L98.88 63.63Q98.88 63.63 98.88 63.63Q98.88 63.63 98.88 63.63L98.88 63.63Q98.88 62.38 99.81 61.44Q100.75 60.50 102 60.50L102 60.50L102 60.50ZM32.63 63.63L32.63 63.63L32.63 71.25Q32.63 74.25 30.50 76.31Q28.38 78.38 25.38 78.38L25.38 78.38Q25.38 78.38 25.38 78.38Q25.38 78.38 25.38 78.38L25.38 78.38Q24.63 78.38 23.81 78.19Q23 78 22.38 77.75L22.38 77.75L22.38 77.75L22.38 84.88L18.25 84.88L18.25 58Q18.25 58 19.25 58Q20.25 58 21 58L21 58Q22.38 57.75 22.94 57.06Q23.50 56.38 25.38 56.38L25.38 56.38Q28.38 56.38 30.50 58.50Q32.63 60.63 32.63 63.63L32.63 63.63ZM28.50 71.25L28.50 63.63Q28.50 63.63 28.50 63.63Q28.50 63.63 28.50 63.63L28.50 63.63Q28.50 62.38 27.63 61.44Q26.75 60.50 25.38 60.50L25.38 60.50L25.38 60.50Q24.13 60.50 23.25 61.44Q22.38 62.38 22.38 63.63L22.38 63.63Q22.38 63.63 22.38 63.63Q22.38 63.63 22.38 63.63L22.38 63.63L22.38 63.63L22.38 71.25Q22.38 71.25 22.38 71.25Q22.38 71.25 22.38 71.25L22.38 71.25Q22.38 72.50 23.25 73.38Q24.13 74.25 25.38 74.25L25.38 74.25L25.38 74.25Q26.75 74.25 27.63 73.38Q28.50 72.50 28.50 71.25L28.50 71.25Q28.50 71.25 28.50 71.25Q28.50 71.25 28.50 71.25L28.50 71.25L28.50 71.25ZM15.88 63.63L15.88 63.63L15.88 71.25Q15.88 74.25 13.75 76.31Q11.63 78.38 8.75 78.38L8.75 78.38Q5.75 78.38 3.63 76.31Q1.50 74.25 1.50 71.25L1.50 71.25L1.50 63.63Q1.50 60.63 3.63 58.50Q5.75 56.38 8.75 56.38L8.75 56.38Q11.63 56.38 13.75 58.50Q15.88 60.63 15.88 63.63L15.88 63.63ZM11.75 71.25L11.75 63.63Q11.75 62.38 10.88 61.44Q10 60.50 8.75 60.50L8.75 60.50Q7.38 60.50 6.50 61.44Q5.63 62.38 5.63 63.63L5.63 63.63Q5.63 63.63 5.63 63.63Q5.63 63.63 5.63 63.63L5.63 63.63L5.63 63.63L5.63 71.25Q5.63 71.25 5.63 71.25Q5.63 71.25 5.63 71.25L5.63 71.25Q5.63 72.50 6.50 73.38Q7.38 74.25 8.75 74.25L8.75 74.25L8.75 74.25Q10 74.25 10.88 73.38Q11.75 72.50 11.75 71.25L11.75 71.25Q11.75 71.25 11.75 71.25Q11.75 71.25 11.75 71.25L11.75 71.25L11.75 71.25ZM65.50 78.38L65.50 78.38L61.38 78.38L61.38 63.63Q61.38 62.38 60.50 61.44Q59.63 60.50 58.38 60.50L58.38 60.50Q57 60.50 56.13 61.44Q55.25 62.38 55.25 63.63L55.25 63.63Q55.25 63.63 55.25 63.63Q55.25 63.63 55.25 63.63L55.25 63.63L55.25 63.63L55.25 78.38L51.13 78.38L51.13 63.63Q51.13 60.63 53.25 58.50Q55.38 56.38 58.38 56.38L58.38 56.38Q61.25 56.38 63.38 58.50Q65.50 60.63 65.50 63.63L65.50 63.63L65.50 78.38ZM41.88 56.38L41.88 56.38Q39 56.38 36.88 58.50Q34.75 60.63 34.75 63.63L34.75 63.63L34.75 71.25Q34.75 74.25 36.88 76.31Q39 78.38 41.88 78.38L41.88 78.38Q44.88 78.38 47 76.31Q49.13 74.25 49.13 71.25L49.13 71.25L45 71.25Q45 71.25 45 71.25Q45 71.25 45 71.25L45 71.25Q45 72.50 44.13 73.38Q43.25 74.25 41.88 74.25L41.88 74.25L41.88 74.25Q40.63 74.25 39.75 73.38Q38.88 72.50 38.88 71.25L38.88 71.25Q38.88 71.25 38.88 71.25Q38.88 71.25 38.88 71.25L38.88 71.25L38.88 71.25L38.88 69.50L45 69.50L45 65.38L38.88 65.38L38.88 63.63Q38.88 63.63 38.88 63.63Q38.88 63.63 38.88 63.63L38.88 63.63Q38.88 62.38 39.75 61.44Q40.63 60.50 41.88 60.50L41.88 60.50L41.88 60.50Q43.25 60.50 44.13 61.44Q45 62.38 45 63.63L45 63.63Q45 63.63 45 63.63Q45 63.63 45 63.63L45 63.63L45 63.63L49.13 63.63Q49.13 60.63 47 58.50Q44.88 56.38 41.88 56.38L41.88 56.38ZM80 30.25L80 30.25Q77 30.25 74.94 32.38Q72.88 34.50 72.88 37.50L72.88 37.50L72.88 56.38L71.38 56.38L71.38 58L72.88 58L72.88 78.50Q72.88 81.38 74.94 83.50Q77 85.63 80 85.63L80 85.63Q83 85.63 85.06 83.50Q87.13 81.38 87.13 78.50L87.13 78.50L87.13 58L88.75 58L88.75 56.38L87.13 56.38L87.13 37.50Q87.13 34.50 85.06 32.38Q83 30.25 80 30.25L80 30.25ZM80 33.63L80 33.63L80 56.38L75.63 56.38L75.63 38Q75.63 38 75.63 38Q75.63 38 75.63 38L75.63 38Q75.63 36.13 76.94 34.88Q78.25 33.63 80 33.63L80 33.63L80 33.63ZM67.88 41.50L69.25 36.38L60.25 36.63L67.63 41.50L67.88 41.50L67.88 41.50ZM67.88 46.75L67.88 41.50L67.88 41.63L67.63 41.50L59.13 44.13L67.63 46.88L67.88 46.75L67.88 46.75ZM69.25 51.88L67.88 46.75L67.88 46.88L67.63 46.88L60.25 51.75L69.25 51.88ZM99.88 36.63L90.75 36.38L92.25 41.63L92.25 41.50L92.38 41.50L99.88 36.63ZM100.88 44.13L92.38 41.50L92.25 41.63L92.25 41.50L92.25 46.75L92.25 46.75L92.38 46.88L100.88 44.13ZM99.88 51.75L92.38 46.88L92.25 46.88L92.25 46.75L90.75 51.88L99.88 51.75ZM77.88 41.50L77.88 41.50Q77.25 41.50 76.81 42Q76.38 42.50 76.38 43.13L76.38 43.13Q76.38 43.13 76.38 43.13Q76.38 43.13 76.38 43.13L76.38 43.13Q76.38 43.75 76.81 44.19Q77.25 44.63 77.88 44.63L77.88 44.63L77.88 44.63Q78.50 44.63 78.94 44.19Q79.38 43.75 79.38 43.13L79.38 43.13Q79.38 43.13 79.38 43.13Q79.38 43.13 79.38 43.13L79.38 43.13Q79.38 42.50 78.94 42.06Q78.50 41.63 77.88 41.50L77.88 41.50ZM82.25 41.50L82.25 41.50Q82.88 41.50 83.31 42Q83.75 42.50 83.75 43.13L83.75 43.13Q83.75 43.75 83.31 44.19Q82.88 44.63 82.25 44.63L82.25 44.63Q81.50 44.63 81.06 44.19Q80.63 43.75 80.63 43.13L80.63 43.13Q80.63 43.13 80.63 43.13Q80.63 43.13 80.63 43.13L80.63 43.13L80.63 43.13Q80.63 42.50 81.06 42Q81.50 41.50 82.25 41.50ZM77.88 45.63L77.88 45.63Q77.25 45.63 76.81 46.06Q76.38 46.50 76.38 47.25L76.38 47.25Q76.38 47.25 76.38 47.25Q76.38 47.25 76.38 47.25L76.38 47.25Q76.38 47.88 76.81 48.31Q77.25 48.75 77.88 48.75L77.88 48.75L77.88 48.75Q78.50 48.75 78.94 48.31Q79.38 47.88 79.38 47.25L79.38 47.25Q79.38 47.25 79.38 47.25Q79.38 47.25 79.38 47.25L79.38 47.25Q79.38 46.50 78.94 46.06Q78.50 45.63 77.88 45.63L77.88 45.63ZM82.25 45.63L82.25 45.63Q82.88 45.63 83.31 46.06Q83.75 46.50 83.75 47.25L83.75 47.25Q83.75 47.88 83.31 48.31Q82.88 48.75 82.25 48.75L82.25 48.75Q81.50 48.75 81.06 48.31Q80.63 47.88 80.63 47.25L80.63 47.25Q80.63 47.25 80.63 47.25Q80.63 47.25 80.63 47.25L80.63 47.25L80.63 47.25Q80.63 46.50 81.06 46.06Q81.50 45.63 82.25 45.63ZM77.88 49.75L77.88 49.75Q77.25 49.75 76.81 50.19Q76.38 50.63 76.38 51.25L76.38 51.25Q76.38 51.38 76.38 51.38Q76.38 51.38 76.38 51.50L76.38 51.50L76.38 51.38Q76.38 52 76.81 52.44Q77.25 52.88 77.88 52.88L77.88 52.88L77.88 52.88Q78.50 52.88 78.94 52.44Q79.38 52 79.38 51.50L79.38 51.50L79.38 51.50L79.38 51.38Q79.38 51.38 79.38 51.38Q79.38 51.38 79.38 51.25L79.38 51.25L79.38 51.25Q79.38 51.25 79.38 51.25Q79.38 51.25 79.38 51.25L79.38 51.25Q79.38 50.63 78.94 50.19Q78.50 49.75 77.88 49.75L77.88 49.75L77.88 49.75ZM82.25 49.75L82.25 49.75Q82.88 49.75 83.31 50.19Q83.75 50.63 83.75 51.25L83.75 51.25Q83.75 51.25 83.75 51.25Q83.75 51.25 83.75 51.25L83.75 51.25L83.75 51.25Q83.75 51.38 83.75 51.38Q83.75 51.38 83.75 51.50L83.75 51.50L83.75 51.38Q83.63 52 83.19 52.44Q82.75 52.88 82.25 52.88L82.25 52.88Q81.63 52.88 81.19 52.44Q80.75 52 80.63 51.50L80.63 51.50L80.63 51.38Q80.63 51.38 80.63 51.38Q80.63 51.38 80.63 51.25L80.63 51.25L80.63 51.25Q80.63 50.63 81.06 50.19Q81.50 49.75 82.25 49.75L82.25 49.75ZM69.50 56.38L68 56.38L68 78.75Q68 83.75 71.50 87.25Q75 90.75 80 90.75L80 90.75Q85 90.75 88.50 87.25Q92 83.75 92 78.75L92 78.75L92 56.38L90.50 56.38L90.50 78.75Q90.50 83 87.44 86.13Q84.38 89.25 80 89.25L80 89.25Q75.63 89.25 72.56 86.13Q69.50 83 69.50 78.75L69.50 78.75L69.50 56.38ZM84.38 63.13L80 58L84.38 58L84.38 73.25L84.38 73.25L84.38 73.38L84.38 77.63L84.25 78.38L80 73.25L84.38 73.25L80 68.13L84.38 68.13L80 63.13L84.38 63.13ZM80 78.38L84.25 78.38Q84.13 79.25 83.75 79.88Q83.38 80.50 82.75 81L82.75 81L82.75 81L80 78.38ZM86.38 93.63L73.63 93.63L73.63 97.75L86.38 97.75L86.38 93.63Z"/></svg>