<svg xmlns="http://www.w3.org/2000/svg" xmlns:xlink="http://www.w3.org/1999/xlink" width="128" height="128"><path fill="#ffffff" d="M100.75 13.88L27.25 13.88Q21.88 13.88 18.31 17.88Q14.75 21.88 15 27L15 27Q15.13 31.88 14.75 37.81Q14.38 43.75 12.75 48.88L12.75 48.88Q11.13 54.13 8.31 57.25Q5.50 60.38 1.13 60.75L1.13 60.75L1.13 67.25Q5.50 67.63 8.31 70.75Q11.13 73.88 12.75 79.13L12.75 79.13Q14.38 84.25 14.75 90.19Q15.13 96.13 15 101L15 101Q14.75 106.13 18.31 110.13Q21.88 114.13 27.25 114.13L27.25 114.13L100.75 114.13Q106.13 114.13 109.69 110.13Q113.25 106.13 113 101L113 101Q112.88 96.13 113.25 90.19Q113.63 84.25 115.25 79.13L115.25 79.13Q116.88 73.88 119.69 70.75Q122.50 67.63 126.88 67.25L126.88 67.25L126.88 60.75Q122.50 60.38 119.69 57.25Q116.88 54.13 115.25 48.88L115.25 48.88Q113.63 43.75 113.25 37.81Q112.88 31.88 113 27L113 27Q113.25 21.88 109.69 17.88Q106.13 13.88 100.75 13.88L100.75 13.88ZM85.38 75.63L85.38 75.63Q85.38 82.63 80.44 86.63Q75.50 90.63 66.75 90.63L66.75 90.63L45.25 90.63Q45.13 90.63 45 90.50Q44.88 90.38 44.88 90.13L44.88 90.13L44.88 90.13L44.88 37.88Q44.88 37.88 44.88 37.88Q44.88 37.88 44.88 37.88L44.88 37.88Q44.88 37.63 45 37.50Q45.13 37.38 45.25 37.38L45.25 37.38Q45.25 37.38 45.25 37.38Q45.25 37.38 45.25 37.38L45.25 37.38L66.63 37.38Q73.88 37.38 78.25 41Q82.63 44.63 82.63 50.63L82.63 50.63Q82.63 54.88 79.81 58.25Q77 61.63 72.88 62.25L72.88 62.25L72.88 62.50Q78.50 63.13 81.94 66.69Q85.38 70.25 85.38 75.63ZM64.63 44.13L64.63 44.13L53.25 44.13L53.25 60L62.75 60Q68.25 60 71.19 57.88Q74.13 55.75 74.13 51.75L74.13 51.75Q74.13 48.13 71.63 46.13Q69.13 44.13 64.63 44.13ZM64.50 66.38L53.25 66.38L53.25 83.88L65 83.88Q70.75 83.88 73.69 81.63Q76.63 79.38 76.63 75L76.63 75Q76.63 70.75 73.56 68.56Q70.50 66.38 64.50 66.38L64.50 66.38Z"/></svg>