<svg xmlns="http://www.w3.org/2000/svg" xmlns:xlink="http://www.w3.org/1999/xlink" width="128" height="128"><path fill="#000000" d="M100.75 2L27.25 2Q21.88 2 18.31 6Q14.75 10 15 15.13L15 15.13Q15.13 20 14.75 25.94Q14.38 31.88 12.75 37.13L12.75 37.13Q11.13 42.25 8.31 45.38Q5.50 48.50 1.13 49L1.13 49L1.13 55.38Q5.50 55.75 8.31 58.88Q11.13 62 12.75 67.25L12.75 67.25Q14.38 72.38 14.75 78.31Q15.13 84.25 15 89.13L15 89.13Q14.75 94.25 18.31 98.25Q21.88 102.25 27.25 102.25L27.25 102.25L100.75 102.25Q106.13 102.25 109.69 98.25Q113.25 94.25 113 89.13L113 89.13Q112.88 84.25 113.25 78.31Q113.63 72.38 115.25 67.25L115.25 67.25Q116.88 62 119.69 58.88Q122.50 55.75 126.88 55.38L126.88 55.38L126.88 49Q122.50 48.50 119.69 45.38Q116.88 42.25 115.25 37.13L115.25 37.13Q113.63 31.88 113.25 25.94Q112.88 20 113 15.13L113 15.13Q113.25 10 109.69 6Q106.13 2 100.75 2L100.75 2ZM85.38 63.75L85.38 63.75Q85.38 70.75 80.44 74.75Q75.50 78.75 66.75 78.75L66.75 78.75L45.25 78.75Q45.13 78.75 45 78.63Q44.88 78.50 44.88 78.38L44.88 78.38L44.88 78.38L44.88 26Q44.88 26 44.88 26Q44.88 26 44.88 26L44.88 26Q44.88 25.75 45 25.63Q45.13 25.50 45.25 25.50L45.25 25.50Q45.25 25.50 45.25 25.50Q45.25 25.50 45.25 25.50L45.25 25.50L66.63 25.50Q73.88 25.50 78.25 29.13Q82.63 32.75 82.63 38.75L82.63 38.75Q82.63 43 79.81 46.38Q77 49.75 72.88 50.38L72.88 50.38L72.88 50.75Q78.50 51.25 81.94 54.81Q85.38 58.38 85.38 63.75ZM64.63 32.25L64.63 32.25L53.25 32.25L53.25 48.13L62.75 48.13Q68.25 48.13 71.19 46Q74.13 43.88 74.13 40L74.13 40Q74.13 36.25 71.63 34.25Q69.13 32.25 64.63 32.25ZM64.50 54.50L53.25 54.50L53.25 72L65 72Q70.75 72 73.69 69.75Q76.63 67.50 76.63 63.25L76.63 63.25Q76.63 58.88 73.56 56.69Q70.50 54.50 64.50 54.50L64.50 54.50ZM16.63 121.38L11.38 121.38L11.38 103.75L16.50 103.75Q18.75 103.75 20.13 104.88L20.13 104.88Q21.50 106 21.50 107.75L21.50 107.75Q21.50 109.25 20.63 110.38L20.63 110.38Q19.75 111.50 18.38 112L18.38 112L18.38 112Q20.13 112.25 21.25 113.38L21.25 113.38Q22.38 114.50 22.38 116.38L22.38 116.38Q22.38 118.63 20.75 120L20.75 120Q19 121.38 16.63 121.38L16.63 121.38ZM15.88 105.63L13.50 105.63L13.50 111.25L15.63 111.25Q17.25 111.25 18.25 110.50L18.25 110.50Q19.25 109.63 19.25 108.13L19.25 108.13Q19.25 105.63 15.88 105.63L15.88 105.63ZM15.88 113.13L13.50 113.13L13.50 119.50L16.25 119.50Q18.13 119.50 19.13 118.63L19.13 118.63Q20.13 117.88 20.13 116.25L20.13 116.25Q20.13 113.13 15.88 113.13L15.88 113.13ZM31 121.75L31 121.75Q28.13 121.75 26.50 120L26.50 120Q24.75 118.13 24.75 115.25L24.75 115.25Q24.75 112 26.50 110.25L26.50 110.25Q28.25 108.50 31.25 108.50L31.25 108.50Q34.13 108.50 35.63 110.25L35.63 110.25Q37.25 112 37.25 115L37.25 115Q37.25 118.13 35.50 119.88L35.50 119.88Q33.88 121.75 31 121.75L31 121.75ZM31.13 110.13L31.13 110.13Q29.13 110.13 28 111.50L28 111.50Q26.88 112.88 26.88 115.13L26.88 115.13Q26.88 117.38 28 118.75L28 118.75Q29.13 120 31.13 120L31.13 120Q33 120 34.13 118.75L34.13 118.75Q35.13 117.50 35.13 115.13L35.13 115.13Q35.13 112.75 34.13 111.50L34.13 111.50Q33 110.13 31.13 110.13L31.13 110.13ZM45.75 121.75L45.75 121.75Q43 121.75 41.25 120L41.25 120Q39.63 118.13 39.63 115.25L39.63 115.25Q39.63 112 41.38 110.25L41.38 110.25Q43.13 108.50 46.13 108.50L46.13 108.50Q48.88 108.50 50.50 110.25L50.50 110.25Q52.13 112 52.13 115L52.13 115Q52.13 118.13 50.38 119.88L50.38 119.88Q48.63 121.75 45.75 121.75L45.75 121.75ZM45.88 110.13L45.88 110.13Q44 110.13 42.88 111.50L42.88 111.50Q41.75 112.88 41.75 115.13L41.75 115.13Q41.75 117.38 42.88 118.75L42.88 118.75Q44 120 45.88 120L45.88 120Q47.88 120 49 118.75L49 118.75Q50 117.50 50 115.13L50 115.13Q50 112.75 49 111.50L49 111.50Q47.88 110.13 45.88 110.13L45.88 110.13ZM61.25 119.63L61.25 121.25Q60.50 121.75 59.38 121.75L59.38 121.75Q56 121.75 56 118L56 118L56 110.50L53.88 110.50L53.88 108.75L56 108.75L56 105.63L58 105L58 108.75L61.25 108.75L61.25 110.50L58 110.50L58 117.63Q58 118.88 58.50 119.50L58.50 119.50Q58.88 120 59.88 120L59.88 120Q60.63 120 61.25 119.63L61.25 119.63ZM63.13 121L63.13 121L63.13 118.75Q64.75 120 66.75 120L66.75 120Q69.50 120 69.50 118.25L69.50 118.25Q69.50 117.75 69.25 117.38L69.25 117.38Q69 117 68.63 116.75L68.63 116.75Q68.25 116.50 67.75 116.25L67.75 116.25Q67.13 116 66.63 115.75L66.63 115.75Q65.75 115.50 65.13 115.13L65.13 115.13Q64.50 114.75 64 114.38L64 114.38Q63.63 114 63.38 113.38L63.38 113.38Q63.13 112.88 63.13 112.13L63.13 112.13Q63.13 111.25 63.63 110.50L63.63 110.50Q64 109.88 64.63 109.38L64.63 109.38Q65.38 108.88 66.25 108.75L66.25 108.75Q67.13 108.50 68 108.50L68 108.50Q69.63 108.50 71 109L71 109L71 111.13Q69.63 110.13 67.75 110.13L67.75 110.13Q67.13 110.13 66.75 110.25L66.75 110.25Q66.25 110.38 65.88 110.63L65.88 110.63Q65.63 110.88 65.38 111.25L65.38 111.25Q65.25 111.50 65.25 112L65.25 112Q65.25 112.50 65.38 112.75L65.38 112.75Q65.63 113.13 66 113.38L66 113.38Q66.25 113.63 66.75 113.88L66.75 113.88Q67.25 114 67.88 114.25L67.88 114.25Q68.75 114.63 69.38 115L69.38 115Q70.13 115.25 70.63 115.75L70.63 115.75Q71 116.13 71.25 116.75L71.25 116.75Q71.50 117.25 71.50 118L71.50 118Q71.50 119 71.13 119.63L71.13 119.63Q70.75 120.38 70 120.88L70 120.88Q69.38 121.25 68.38 121.50L68.38 121.50Q67.50 121.75 66.50 121.75L66.50 121.75Q64.63 121.75 63.13 121L63.13 121ZM80.50 119.63L80.50 121.25Q79.88 121.75 78.63 121.75L78.63 121.75Q75.38 121.75 75.38 118L75.38 118L75.38 110.50L73.13 110.50L73.13 108.75L75.38 108.75L75.38 105.63L77.38 105L77.38 108.75L80.50 108.75L80.50 110.50L77.38 110.50L77.38 117.63Q77.38 118.88 77.75 119.50L77.75 119.50Q78.25 120 79.25 120L79.25 120Q80 120 80.50 119.63L80.50 119.63ZM89.88 108.75L89.88 110.88Q89.38 110.38 88.38 110.38L88.38 110.38Q87 110.38 86.13 111.63L86.13 111.63Q85.25 112.88 85.25 115L85.25 115L85.25 121.38L83.25 121.38L83.25 108.75L85.25 108.75L85.25 111.38L85.38 111.38Q85.75 110 86.63 109.25L86.63 109.25Q87.50 108.50 88.63 108.50L88.63 108.50Q89.50 108.50 89.88 108.75L89.88 108.75ZM101.13 113.25L101.13 121.38L99.13 121.38L99.13 119.50L99 119.50Q97.75 121.75 95.13 121.75L95.13 121.75Q93.25 121.75 92.13 120.75L92.13 120.75Q91.13 119.75 91.13 118.13L91.13 118.13Q91.13 114.50 95.25 113.88L95.25 113.88L99.13 113.38Q99.13 110.13 96.50 110.13L96.50 110.13Q94.25 110.13 92.38 111.75L92.38 111.75L92.38 109.63Q94.25 108.50 96.63 108.50L96.63 108.50Q101.13 108.50 101.13 113.25L101.13 113.25ZM99.13 116.25L99.13 115L96 115.50Q94.63 115.63 93.88 116.13L93.88 116.13Q93.25 116.63 93.25 117.88L93.25 117.88Q93.25 118.88 93.88 119.50L93.88 119.50Q94.50 120 95.63 120L95.63 120Q97.13 120 98.13 119L98.13 119Q99.13 117.88 99.13 116.25L99.13 116.25ZM107 119.63L107 119.63L107 119.63L107 127.25L105 127.25L105 108.75L107 108.75L107 111L107 111Q108.50 108.50 111.38 108.50L111.38 108.50Q113.88 108.50 115.25 110.13L115.25 110.13Q116.63 111.88 116.63 114.75L116.63 114.75Q116.63 117.88 115 119.88L115 119.88Q113.50 121.75 110.88 121.75L110.88 121.75Q108.38 121.75 107 119.63L107 119.63ZM107 114.50L107 114.50L107 116.25Q107 117.88 108 118.88L108 118.88Q109 120 110.63 120L110.63 120Q112.38 120 113.50 118.63L113.50 118.63Q114.50 117.25 114.50 114.75L114.50 114.75Q114.50 112.63 113.50 111.38L113.50 111.38Q112.63 110.13 110.88 110.13L110.88 110.13Q109.13 110.13 108 111.38L108 111.38Q107 112.63 107 114.50L107 114.50Z"/></svg>