<svg xmlns="http://www.w3.org/2000/svg" xmlns:xlink="http://www.w3.org/1999/xlink" width="128" height="128"><path fill="#000000" d="M52.75 55.13L52.75 55.13Q52.88 55.13 52.94 55.13Q53 55.13 53 55.13L53 55.13Q53.13 55.25 53.19 55.25Q53.25 55.25 53.38 55.38L53.38 55.38Q53.38 55.38 53.44 55.50Q53.50 55.63 53.63 55.63L53.63 55.63L61.88 66Q61.75 65.63 61.75 65.13Q61.75 64.63 61.75 64.25L61.75 64.25L61.75 55L65.25 55L65.25 72.25L63.13 72.25Q63.13 72.25 63.13 72.25Q63.13 72.25 63.13 72.25L63.13 72.25Q62.88 72.25 62.69 72.25Q62.50 72.25 62.38 72.13L62.38 72.13L62.38 72.13Q62.25 72.13 62.06 71.94Q61.88 71.75 61.75 71.63L61.75 71.63L61.75 71.63L53.63 61.38Q53.63 61.63 53.63 61.81Q53.63 62 53.75 62.25L53.75 62.25Q53.75 62.50 53.75 62.69Q53.75 62.88 53.75 63L53.75 63L53.75 72.38L50.13 72.38L50.13 55L52.25 55Q52.38 55 52.50 55Q52.63 55 52.75 55.13L52.75 55.13ZM66.75 60L70.50 60L70.50 67.75Q70.50 68.25 70.56 68.63Q70.63 69 70.88 69.25L70.88 69.25Q71.13 69.50 71.44 69.63Q71.75 69.75 72.13 69.75L72.13 69.75Q72.38 69.75 72.69 69.69Q73 69.63 73.25 69.50L73.25 69.50Q73.50 69.38 73.75 69.19Q74 69 74.25 68.75L74.25 68.75L74.25 60L77.88 60L77.88 72.25L75.63 72.25Q75.63 72.25 75.63 72.25Q75.63 72.25 75.50 72.25L75.50 72.25Q75.25 72.25 75.06 72.13Q74.88 72 74.75 71.75L74.75 71.75L74.75 71.75L74.50 71Q74.38 71.13 74.19 71.31Q74 71.50 73.75 71.63L73.75 71.63Q73.38 71.88 72.94 72.06Q72.50 72.25 72 72.38L72 72.38L72 72.38Q71.75 72.50 71.50 72.50Q71.25 72.50 71 72.50L71 72.50Q71 72.50 71 72.50Q71 72.50 70.88 72.50L70.88 72.50L70.88 72.50Q70.88 72.50 70.88 72.50Q70.88 72.50 70.88 72.50L70.88 72.50Q70.38 72.50 69.94 72.44Q69.50 72.38 69.13 72.13L69.13 72.13L69.13 72.13Q68.75 72 68.44 71.75Q68.13 71.50 67.88 71.13L67.88 71.13L67.88 71.13Q67.63 70.88 67.38 70.50Q67.13 70.13 67 69.75L67 69.75L67 69.75Q66.88 69.25 66.81 68.81Q66.75 68.38 66.75 67.88L66.75 67.88Q66.75 67.88 66.75 67.88Q66.75 67.88 66.75 67.88L66.75 67.88L66.75 67.88L66.75 60ZM84 72.38L80.25 72.25L80.25 60L82.50 60Q82.75 60 82.88 60.06Q83 60.13 83.13 60.13L83.13 60.13Q83.25 60.25 83.31 60.38Q83.38 60.50 83.50 60.63L83.50 60.63L83.63 61.25Q83.75 61.13 83.94 61Q84.13 60.88 84.25 60.75L84.25 60.75Q84.50 60.63 84.69 60.50Q84.88 60.38 85 60.25L85 60.25Q85.38 60 85.81 59.94Q86.25 59.88 86.75 59.88L86.75 59.88Q86.75 59.88 86.81 59.88Q86.88 59.88 86.88 59.88L86.88 59.88L86.88 59.88Q86.88 59.88 86.88 59.88Q86.88 59.88 87 59.88L87 59.88Q87.38 59.88 87.88 60Q88.38 60.13 88.63 60.38L88.63 60.38L88.63 60.38Q89 60.75 89.31 61.13Q89.63 61.50 89.75 61.88L89.75 61.88Q89.88 61.63 90.06 61.38Q90.25 61.13 90.50 61L90.50 61Q90.75 60.75 91 60.56Q91.25 60.38 91.50 60.25L91.50 60.25Q91.75 60.13 92 60.06Q92.25 60 92.50 60L92.50 60L92.63 59.88Q92.88 59.88 93.13 59.88Q93.38 59.88 93.75 59.88L93.75 59.88Q93.75 59.88 93.75 59.88Q93.75 59.88 93.75 59.88L93.75 59.88L93.75 59.88Q93.75 59.88 93.75 59.88Q93.75 59.88 93.88 59.88L93.88 59.88Q94.25 59.88 94.75 59.94Q95.25 60 95.63 60.13L95.63 60.13L95.63 60.13Q96 60.25 96.31 60.50Q96.63 60.75 97 61L97 61Q97.25 61.38 97.44 61.75Q97.63 62.13 97.75 62.50L97.75 62.50Q98 63 98.06 63.50Q98.13 64 98.13 64.50L98.13 64.50L98.13 72.25L94.38 72.25L94.38 64.50Q94.38 63.50 94 63.06Q93.63 62.63 92.75 62.63L92.75 62.63Q92.38 62.63 92.06 62.75Q91.75 62.88 91.50 63.13L91.50 63.13Q91.25 63.38 91.13 63.69Q91 64 91 64.50L91 64.50L91 72.25L87.38 72.25L87.38 64.50Q87.38 64 87.25 63.63Q87.13 63.25 87 63L87 63Q86.75 62.75 86.44 62.69Q86.13 62.63 85.75 62.63L85.75 62.63Q85.50 62.63 85.25 62.69Q85 62.75 84.75 62.88L84.75 62.88Q84.50 62.88 84.31 63.06Q84.13 63.25 84 63.38L84 63.38L84 72.38ZM106.38 66.50L104.25 66.50L104.25 72.25L100.25 72.25L100.25 55L106.38 55Q106.38 55 106.44 55Q106.50 55 106.50 55L106.50 55Q107.38 55 108.13 55.13Q108.88 55.25 109.50 55.50L109.50 55.50L109.50 55.50Q110.13 55.63 110.63 55.94Q111.13 56.25 111.63 56.63L111.63 56.63L111.63 56.63Q112 57 112.31 57.44Q112.63 57.88 112.88 58.38L112.88 58.38L112.88 58.50Q113.13 59 113.19 59.56Q113.25 60.13 113.25 60.63L113.25 60.63Q113.25 60.63 113.25 60.69Q113.25 60.75 113.25 60.75L113.25 60.75Q113.25 61.38 113.13 61.94Q113 62.50 112.88 63.13L112.88 63.13L112.88 63Q112.63 63.63 112.31 64.06Q112 64.50 111.63 64.88L111.63 64.88L111.63 64.88Q111.13 65.25 110.56 65.56Q110 65.88 109.38 66.13L109.38 66.13Q108.63 66.38 107.88 66.44Q107.13 66.50 106.38 66.50L106.38 66.50ZM104.25 58L104.25 63.50L106.38 63.50Q107.13 63.50 107.69 63.31Q108.25 63.13 108.63 62.75L108.63 62.75Q108.88 62.38 109.06 61.88Q109.25 61.38 109.25 60.63L109.25 60.63Q109.25 60.63 109.25 60.63Q109.25 60.63 109.25 60.63L109.25 60.63Q109.25 60.38 109.19 60.13Q109.13 59.88 109.13 59.63L109.13 59.63L109.13 59.63Q109 59.38 108.88 59.13Q108.75 58.88 108.50 58.75L108.50 58.75L108.50 58.75Q108.38 58.63 108.13 58.50Q107.88 58.38 107.63 58.25L107.63 58.25L107.63 58.25Q107.38 58.13 107.06 58.06Q106.75 58 106.38 58L106.38 58Q106.38 58 106.38 58Q106.38 58 106.25 58L106.25 58L104.25 58ZM127 60L120.38 75.50Q120.38 75.63 120.25 75.75Q120.13 75.88 120 76L120 76Q119.88 76.13 119.69 76.19Q119.50 76.25 119.38 76.25L119.38 76.25Q119.25 76.25 119.25 76.25Q119.25 76.25 119.25 76.25L119.25 76.25L119.25 76.25L116.50 76.25L118.88 71.25L113.88 60L117.13 60Q117.38 60 117.56 60.06Q117.75 60.13 117.88 60.25L117.88 60.25Q118 60.25 118.06 60.38Q118.13 60.50 118.13 60.63L118.13 60.63L120.25 66Q120.38 66.38 120.50 66.69Q120.63 67 120.63 67.38L120.63 67.38Q120.75 67.25 120.81 67.06Q120.88 66.88 120.88 66.63L120.88 66.63Q121 66.50 121.06 66.31Q121.13 66.13 121.25 65.88L121.25 65.88L123 60.63Q123.13 60.50 123.19 60.38Q123.25 60.25 123.38 60.25L123.38 60.25L123.38 60.25Q123.50 60.13 123.69 60.06Q123.88 60 124 60L124 60L127 60ZM11.25 53.50L19.13 49.38L11.75 45.75L3.75 49.75L11.25 53.50ZM14.63 55.25L22.50 51.13L30.13 55L22.25 59L14.63 55.25ZM25.88 49.38L32.75 45.75L40.63 49.75L33.63 53.25L25.88 49.38ZM22.50 47.75L29.38 44L22.25 40.50L15.25 44L22.50 47.75ZM32.38 70.38L23.75 74.75L23.75 84.38L32.38 80.13L32.38 70.38ZM23.75 71.25L32.38 67L32.38 57.38L23.75 61.63L23.75 71.25ZM35.38 68.88L42.75 65.25L42.75 75L35.38 78.63L35.38 68.88ZM35.38 65.50L42.75 61.75L42.75 52.25L35.38 55.88L35.38 65.50ZM20.75 84.25L20.75 61.63L15 58.75L15 71.38Q15 71.38 11.31 63.63Q7.63 55.88 7.13 54.88L7.13 54.88Q7.13 54.75 6.94 54.63Q6.75 54.50 6.63 54.50L6.63 54.50Q5.75 54 3.69 52.94Q1.63 51.88 1.63 51.88L1.63 51.88L1.63 74.25L6.75 77L6.75 65.38Q6.75 65.38 10.31 72.13Q13.88 78.88 13.88 79L13.88 79Q14 79.13 14.44 79.88Q14.88 80.63 15.38 81L15.38 81Q16.25 81.50 18.50 82.88Q20.75 84.25 20.75 84.25L20.75 84.25Z"/></svg>