<svg xmlns="http://www.w3.org/2000/svg" xmlns:xlink="http://www.w3.org/1999/xlink" width="128" height="128"><path fill="#ffffff" d="M31.88 38.88L54.38 27.13L33.25 16.50L10.25 28.13L31.88 38.88ZM41.50 43.75L64 32L86 43.13L63.13 54.63L41.50 43.75ZM73.75 27.13L93.38 16.75L116 28.13L95.75 38.25L73.75 27.13ZM64.13 22.25L83.63 11.88L63.25 1.63L43.13 11.63L64.13 22.25ZM92.38 87.25L67.75 99.63L67.75 127.38L92.38 115.13L92.38 87.25ZM67.75 89.88L92.38 77.50L92.38 50L67.75 62.25L67.75 89.88ZM101 83L122 72.38L122 100.38L101 110.88L101 83ZM100.88 73.38L122 62.63L122 35.25L100.88 45.75L100.88 73.38ZM59 127.13L59 62.25L42.38 53.88L42.38 90Q42.38 90 39.13 83.25L39.13 83.25Q36 76.38 32 67.88Q28 59.38 24.38 51.88L24.38 51.88Q20.88 44.38 20.13 42.88L20.13 42.88Q20 42.50 19.44 42.13Q18.88 41.75 18.63 41.63L18.63 41.63Q15.88 40.25 10.06 37.31Q4.25 34.38 4.25 34.38L4.25 34.38L4.25 98.25L19.13 106.13L19.13 72.75Q19.13 72.75 22.25 78.75L22.25 78.75Q25.38 84.88 29.19 92.13Q33 99.38 36.13 105.63L36.13 105.63Q39.38 111.75 39.38 111.88L39.38 111.88Q39.63 112.13 40.88 114.44Q42.13 116.75 43.75 117.75L43.75 117.75Q46 119.25 52.50 123.19Q59 127.13 59 127.13L59 127.13Z"/></svg>