<svg xmlns="http://www.w3.org/2000/svg" xmlns:xlink="http://www.w3.org/1999/xlink" width="128" height="128"><path fill="#ffffff" d="M18 59.13L18 59.13Q18.88 59.13 19.63 59.44Q20.38 59.75 21.13 60.25L21.13 60.25L22.25 58.88Q21.38 58.13 20.25 57.75Q19.13 57.38 18 57.38L18 57.38Q18 57.38 18 57.38Q18 57.38 18 57.38L18 57.38L18 57.38Q15.25 57.38 13.31 59.31Q11.38 61.25 11.38 64L11.38 64Q11.38 66.75 13.31 68.69Q15.25 70.63 18 70.63L18 70.63Q18 70.63 18 70.63Q18 70.63 18 70.63L18 70.63Q19.13 70.63 20.25 70.19Q21.38 69.75 22.25 69L22.25 69L22.25 69L21.13 67.63Q20.50 68.25 19.69 68.50Q18.88 68.75 18 68.75L18 68.75Q18 68.75 18 68.75Q18 68.75 18 68.75L18 68.75L18 68.75Q16 68.75 14.56 67.38Q13.13 66 13.13 64L13.13 64L13.13 64Q13.13 62 14.56 60.56Q16 59.13 18 59.13L18 59.13L18 59.13ZM54.63 68.38L54.63 68.38L51.88 68.38L51.88 59.50L54.63 59.50Q56.50 59.50 57.75 60.81Q59 62.13 59 64L59 64L59 64Q59 65.88 57.75 67.13Q56.50 68.38 54.63 68.38L54.63 68.38ZM54.63 57.75L54.63 57.75L51 57.75Q50.63 57.75 50.38 58Q50.13 58.25 50.13 58.63L50.13 58.63L50.13 69.38Q50.13 69.63 50.38 69.94Q50.63 70.25 51 70.25L51 70.25L54.63 70.25Q57.13 70.25 59 68.38Q60.88 66.50 60.88 64L60.88 64L60.88 64Q60.88 61.38 59 59.56Q57.13 57.75 54.63 57.75L54.63 57.75L54.63 57.75ZM65.63 58.63L65.63 58.63L65.63 69.38Q65.63 69.63 65.88 69.94Q66.13 70.25 66.50 70.25L66.50 70.25L74 70.25L74 68.38L67.50 68.38L67.50 64.88L71.63 64.88L71.63 63.13L67.50 63.13L67.50 59.50L74 59.50L74 57.75L66.50 57.75Q66.13 57.75 65.88 58Q65.63 58.25 65.63 58.63L65.63 58.63L65.63 58.63ZM92.63 58.63L92.63 58.63L92.63 69.38Q92.63 69.63 92.88 69.94Q93.13 70.25 93.50 70.25L93.50 70.25L101 70.25L101 68.38L94.38 68.38L94.38 64.88L98.63 64.88L98.63 63.13L94.38 63.13L94.38 59.50L101 59.50L101 57.75L93.50 57.75Q93.13 57.75 92.88 58Q92.63 58.25 92.63 58.63L92.63 58.63L92.63 58.63ZM84.13 63.13L84.13 63.13L81.13 63.13L81.13 59.50L84.13 59.50Q84.88 59.50 85.38 60Q85.88 60.50 85.88 61.25L85.88 61.25Q85.88 62 85.38 62.56Q84.88 63.13 84.13 63.13ZM84.13 57.75L84.13 57.75L80.25 57.75Q79.88 57.75 79.63 58Q79.38 58.25 79.38 58.63L79.38 58.63L79.38 58.63L79.38 70.25L81.13 70.25L81.13 64.88L84.13 64.88Q85.63 64.88 86.69 63.81Q87.75 62.75 87.75 61.25L87.75 61.25L87.75 61.25Q87.75 59.88 86.69 58.81Q85.63 57.75 84.13 57.75L84.13 57.75ZM116.63 57.75L114.88 57.75L114.88 66.88L107.50 58Q107.38 57.88 107.25 57.81Q107.13 57.75 106.88 57.75L106.88 57.75Q106.50 57.75 106.25 58Q106 58.25 106 58.63L106 58.63Q106 58.63 106 58.63Q106 58.63 106 58.63L106 58.63L106 58.63L106 70.25L107.75 70.25L107.75 61.13L115.13 69.88Q115.25 70 115.44 70.13Q115.63 70.25 115.75 70.25L115.75 70.25Q116.13 70.25 116.38 69.94Q116.63 69.63 116.63 69.38L116.63 69.38L116.63 57.75ZM40 63L40 63L36.38 60.63L36.38 56.75L42.75 61.13L40 63ZM41.38 64L41.38 64L43.50 62.63L43.50 65.38L41.38 64ZM36.38 67.38L36.38 67.38L40 65L42.75 66.88L36.38 71.13L36.38 67.38ZM31.25 65L31.25 65L34.75 67.38L34.75 71.13L28.38 66.88L31.25 65ZM29.75 64L29.75 64L27.75 65.38L27.75 62.63L29.75 64ZM34.75 60.63L34.75 60.63L31.25 63L28.38 61.13L34.75 56.75L34.75 60.63ZM35.63 65.88L35.63 65.88L32.75 64L35.63 62L38.50 64L35.63 65.88ZM45.13 60.88L45.13 60.88Q45.13 60.88 45.13 60.88Q45.13 60.88 45.13 60.88L45.13 60.88L45 60.88Q45 60.75 45 60.75Q45 60.75 45 60.75L45 60.75L45 60.75Q45 60.75 45 60.69Q45 60.63 45 60.63L45 60.63L45 60.63L45 60.63Q44.88 60.63 44.88 60.56Q44.88 60.50 44.75 60.38L44.75 60.38L44.75 60.38L44.75 60.38L44.75 60.38L36 54.63Q36 54.50 35.88 54.50Q35.75 54.50 35.63 54.50L35.63 54.50Q35.50 54.50 35.38 54.50Q35.25 54.50 35.13 54.63L35.13 54.63L35.13 54.63L26.38 60.38Q26.38 60.50 26.31 60.50Q26.25 60.50 26.25 60.50L26.25 60.50L26.25 60.50Q26.25 60.63 26.25 60.63Q26.25 60.63 26.25 60.63L26.25 60.63L26.25 60.63L26.25 60.63Q26.13 60.63 26.13 60.69Q26.13 60.75 26.13 60.75L26.13 60.75L26.13 60.75Q26.13 60.75 26.13 60.75Q26.13 60.75 26.13 60.75L26.13 60.75Q26.13 60.75 26.13 60.75Q26.13 60.75 26.13 60.88L26.13 60.88L26.13 60.88Q26.13 60.88 26.13 60.88Q26.13 60.88 26.13 60.88L26.13 60.88Q26.13 60.88 26.13 60.88Q26.13 60.88 26.13 60.88L26.13 60.88L26.13 60.88L26.13 61Q26.13 61 26.13 61Q26.13 61 26.13 61.13L26.13 61.13Q26.13 61.13 26.13 61.13Q26.13 61.13 26.13 61.13L26.13 61.13L26.13 61.13L26.13 66.88Q26.13 66.88 26.13 66.94Q26.13 67 26.13 67L26.13 67L26.13 67Q26.13 67 26.13 67.06Q26.13 67.13 26.13 67.13L26.13 67.13L26.13 67.13L26.13 67.13L26.13 67.13Q26.13 67.13 26.13 67.19Q26.13 67.25 26.13 67.25L26.13 67.25Q26.13 67.25 26.19 67.25Q26.25 67.25 26.25 67.25L26.25 67.25L26.25 67.25Q26.25 67.38 26.31 67.44Q26.38 67.50 26.38 67.50L26.38 67.50L26.38 67.50Q26.38 67.50 26.38 67.50Q26.38 67.50 26.38 67.50L26.38 67.50L26.50 67.50L35.13 73.38Q35.25 73.38 35.38 73.44Q35.50 73.50 35.63 73.50L35.63 73.50Q35.75 73.50 35.88 73.44Q36 73.38 36 73.38L36 73.38L36 73.38L44.75 67.50Q44.75 67.50 44.81 67.50Q44.88 67.50 44.88 67.50L44.88 67.50L44.88 67.50L44.88 67.38Q44.88 67.38 44.94 67.31Q45 67.25 45 67.25L45 67.25L45 67.25L45 67.13Q45 67.13 45 67.13Q45 67.13 45 67.13L45 67.13L45 67.13L45.13 67.13Q45.13 67 45.13 67Q45.13 67 45.13 67L45.13 67Q45.13 67 45.13 67Q45.13 67 45.13 67L45.13 67Q45.13 67 45.13 66.94Q45.13 66.88 45.13 66.88L45.13 66.88L45.13 61.13Q45.13 61 45.13 61Q45.13 61 45.13 61L45.13 61L45.13 61L45.13 60.88Z"/></svg>