<svg xmlns="http://www.w3.org/2000/svg" xmlns:xlink="http://www.w3.org/1999/xlink" width="128" height="128"><path fill="#ffffff" d="M125.63 39.88L125.63 39.88L67.13 0.88Q65.63 0 64.06 0Q62.50 0 60.88 0.88L60.88 0.88L2.38 39.88Q1.25 40.63 0.63 41.88Q0 43.13 0 44.50L0 44.50L0 83.50Q0 84.88 0.63 86.13Q1.25 87.38 2.38 88.13L2.38 88.13L60.88 127.13Q62.38 128 63.94 128Q65.50 128 67.13 127.13L67.13 127.13L125.63 88.13Q126.75 87.38 127.38 86.13Q128 84.88 128 83.50L128 83.50L128 44.50Q128 43.13 127.38 41.88Q126.75 40.63 125.63 39.88L125.63 39.88ZM69.50 15.75L69.50 15.75L112.63 44.50L93.38 57.38L69.50 41.38L69.50 15.75ZM58.50 15.75L58.50 15.75L58.50 41.38L34.63 57.38L15.38 44.50L58.50 15.75ZM11 54.75L11 54.75L24.75 64L11 73.25L11 54.75ZM58.50 112.25L58.50 112.25L15.38 83.50L34.63 70.63L58.50 86.63L58.50 112.25ZM83.38 64L64 77L44.63 64L64 51L83.38 64ZM69.50 112.25L69.50 112.25L69.50 86.63L93.38 70.63L112.63 83.50L69.50 112.25ZM117 54.75L117 73.25L103.25 64L117 54.75Z"/></svg>