<svg xmlns="http://www.w3.org/2000/svg" xmlns:xlink="http://www.w3.org/1999/xlink" width="128" height="128"><path fill="#ffffff" d="M125 80.50L125 80.50Q123.75 80.50 122.81 81.38Q121.88 82.25 121.88 83.50L121.88 83.50Q121.88 84.75 122.75 85.63Q123.63 86.50 125 86.50L125 86.50Q126.25 86.50 127.13 85.63Q128 84.75 128 83.50L128 83.50Q128 82.25 127.13 81.38Q126.25 80.50 125 80.50ZM124.88 81L124.88 81Q126 81 126.63 81.75Q127.25 82.50 127.25 83.50L127.25 83.50Q127.25 84.50 126.63 85.25Q126 86 125 86L125 86Q124 86 123.31 85.25Q122.63 84.50 122.63 83.50L122.63 83.50Q122.63 82.50 123.25 81.81Q123.88 81.13 124.88 81ZM123.88 81.75L123.88 81.75L123.88 85.25L124.50 85.25L124.50 83.75L125.13 83.75L126 85.25L126.63 85.25L125.75 83.63Q126.13 83.63 126.31 83.38Q126.50 83.13 126.50 82.75L126.50 82.75Q126.50 82.25 126.19 82Q125.88 81.75 125.25 81.75L125.25 81.75L123.88 81.75ZM124.38 83.25L124.38 83.25L124.38 82.25L125.13 82.25Q125.50 82.25 125.63 82.38Q125.75 82.50 125.75 82.75L125.75 82.75Q125.75 83.13 125.56 83.25Q125.38 83.38 125.25 83.38L125.25 83.38L124.38 83.25ZM31.25 93.75L31.25 93.75Q30.13 92.75 28.63 92Q27.13 91.25 25.25 90.75L25.25 90.75Q22.75 89.88 19.69 89.13Q16.63 88.38 15.25 87.75L15.25 87.75Q14.25 87.38 13.88 86.88Q13.50 86.38 13.50 85.63L13.50 85.63Q13.50 84.50 14.63 83.94Q15.75 83.38 17.25 83.25L17.25 83.25Q19.63 83.38 20.56 84.50Q21.50 85.63 21.75 86.63L21.75 86.63L31.25 86.63L31.25 93.75ZM43.25 102.63L43.25 102.63L50.38 102.63Q55 102.50 58.63 100.38Q62.25 98.25 64.13 94.88L64.13 94.88Q64.25 94.63 64.38 94.38Q64.50 94.13 64.75 93.75L64.75 93.75Q65 94.13 65.25 94.38Q65.50 94.63 65.75 94.88L65.75 94.88Q67.13 96 68.69 96.81Q70.25 97.63 72 98.25L72 98.25Q74.75 99.13 76.81 99.81Q78.88 100.50 79.63 100.75L79.63 100.75Q81 101.38 81.88 102Q82.75 102.63 82.75 103.88L82.75 103.88Q82.75 105.38 81.31 106.06Q79.88 106.75 78.25 106.75L78.25 106.75Q75.88 106.75 73.94 105.56Q72 104.38 72.13 102.13L72.13 102.13L60 102.13Q60.50 108.13 65.75 112.31Q71 116.50 78 116.63L78 116.63Q82.25 116.50 86.06 115.19Q89.88 113.88 92.38 110.75L92.38 110.75Q95 113.38 98.13 114.94Q101.25 116.50 105.38 116.63L105.38 116.63Q112.13 116.50 117.81 113.13Q123.50 109.75 123.63 102.75L123.63 102.75Q123.63 100.50 123 98.50Q122.38 96.50 120.88 94.88L120.88 94.88Q119.63 93.38 117.81 92.38Q116 91.38 113.50 90.75L113.50 90.75Q111 89.88 107.94 89.13Q104.88 88.38 103.50 87.75L103.50 87.75Q102.63 87.38 102.19 86.88Q101.75 86.38 101.75 85.63L101.75 85.63Q101.75 84.50 102.88 83.94Q104 83.38 105.50 83.25L105.50 83.25Q108 83.38 108.94 84.50Q109.88 85.63 110 86.63L110 86.63L121.63 86.63Q121.63 80.63 117.13 76.94Q112.63 73.25 105.50 73.25L105.50 73.25Q100.13 73.25 96.56 75.13Q93 77 91.25 79.88L91.25 79.88Q89.25 76.88 85.50 75.06Q81.75 73.25 76.88 73.25L76.88 73.25Q71.75 73.25 68.25 75.06Q64.75 76.88 62.88 79.63L62.88 79.63Q60.75 76.88 57.44 75.31Q54.13 73.75 49.88 73.75L49.88 73.75L31.25 73.75L31.25 79.75Q29.38 76.75 25.63 75Q21.88 73.25 17.13 73.25L17.13 73.25Q9.63 73.25 5.63 76.81Q1.63 80.38 1.25 85.13L1.25 85.13Q1.25 88 2.56 90.56Q3.88 93.13 6.13 95L6.13 95Q7.38 96.13 8.88 96.94Q10.38 97.75 12.13 98.25L12.13 98.25Q14.88 99.25 16.94 99.94Q19 100.63 19.75 100.88L19.75 100.88Q21.13 101.50 21.94 102.13Q22.75 102.75 22.75 104L22.75 104Q22.75 105.50 21.38 106.19Q20 106.88 18.25 106.88L18.25 106.88Q16 106.88 14.06 105.69Q12.13 104.50 12.25 102.25L12.25 102.25L-0.13 102.25Q0.38 108.25 5.63 112.44Q10.88 116.63 17.88 116.75L17.88 116.75Q21.75 116.63 25.25 115.56Q28.75 114.50 31.13 112.25L31.13 112.25L31.13 116L43.13 116L43.25 102.63ZM43.25 92.75L43.25 83.75L49.75 83.75Q51.63 83.75 52.94 85.06Q54.25 86.38 54.25 88.25L54.25 88.25Q54.25 90.13 52.94 91.44Q51.63 92.75 49.75 92.75L49.75 92.75L43.25 92.75ZM92.50 95L92.50 95Q91.25 93.50 89.44 92.50Q87.63 91.50 85.13 90.75L85.13 90.75Q82.63 90 79.56 89.19Q76.50 88.38 75.25 87.88L75.25 87.88Q74.25 87.50 73.75 87Q73.25 86.50 73.25 85.75L73.25 85.75Q73.25 84.63 74.38 84.06Q75.50 83.50 77 83.38L77 83.38Q79.50 83.50 80.44 84.63Q81.38 85.75 81.50 86.75L81.50 86.75L89.75 86.75Q90.13 89.13 91.31 91.25Q92.50 93.38 94.38 95L94.38 95Q95.63 96.13 97.19 96.94Q98.75 97.75 100.50 98.25L100.50 98.25Q103.25 99.25 105.31 99.94Q107.38 100.63 108 100.88L108 100.88Q109.50 101.50 110.31 102.13Q111.13 102.75 111.13 104L111.13 104Q111.13 105.50 109.69 106.19Q108.25 106.88 106.63 106.88L106.63 106.88Q104.25 106.88 102.31 105.69Q100.38 104.50 100.50 102.25L100.50 102.25L95 102.25Q95 100 94.38 98.19Q93.75 96.38 92.50 95L92.50 95ZM0.13 11.25L0.13 11.25L0.13 14.75L25 14.75L25 11.25L0.13 11.25ZM28.38 11.25L28.38 11.25L28.38 14.75L64 14.75Q64 14.75 61.63 13Q59.25 11.25 55.63 11.25L55.63 11.25L28.38 11.25ZM91.25 11.25L71 11.25L71 14.75L92.50 14.75L91.25 11.25ZM127.88 11.25L107.88 11.25L106.63 14.75L127.88 14.75L127.88 11.25ZM0.13 18L0.13 18L0.13 21.50L25 21.50L25 18L0.13 18ZM28.38 18L28.38 18L28.38 21.50L68 21.50Q68 21.50 67.63 20.06Q67.25 18.63 66.75 18L66.75 18L28.38 18ZM93.63 18L71 18L71 21.50L94.75 21.50L93.63 18ZM127.75 18L105.25 18L104.13 21.50L127.75 21.50L127.75 18ZM7.25 24.75L7.25 24.75L7.25 28.25L18 28.25L18 24.75L7.25 24.75ZM35.63 24.75L35.63 24.75L35.63 28.25L46.38 28.25L46.38 24.75L35.63 24.75ZM68.50 24.75L57 24.75L57 28.25L67.75 28.25Q67.75 28.25 68.13 27.13Q68.50 26 68.50 24.75L68.50 24.75ZM78.25 24.75L78.25 24.75L78.25 28.25L97.25 28.25L96 24.75L78.25 24.75ZM120.88 24.75L103 24.75L101.75 28.25L120.88 28.25L120.88 24.75ZM7.25 31.75L7.25 31.75L7.25 35.25L18 35.25L18 31.75L7.25 31.75ZM66.25 31.75L35.63 31.75L35.63 35.25L63.25 35.25Q63.25 35.25 64.44 34.13Q65.63 33 66.25 31.75L66.25 31.75ZM78.25 31.75L78.25 31.75L78.25 35.25L89 35.25L89 33.25L89.75 35.25L109.50 35.25L110.25 33.25L110.25 35.25L121 35.25L121 31.75L100.75 31.75L99.63 34.75L98.50 31.75L78.25 31.75ZM7.25 38.50L7.25 38.50L7.25 42L18 42L18 38.50L7.25 38.50ZM63.25 38.50L35.63 38.50L35.63 42L66.25 42Q65.63 40.75 64.44 39.63Q63.25 38.50 63.25 38.50L63.25 38.50ZM89 38.50L78.25 38.50L78.25 42L89 42L89 38.50ZM108.25 38.50L90.88 38.50L92.25 42L107 42L108.25 38.50ZM121 38.50L110.25 38.50L110.25 42L121 42L121 38.50ZM7.25 45.25L7.25 45.25L7.25 48.75L18 48.75L18 45.25L7.25 45.25ZM35.63 45.25L35.63 45.25L35.63 48.75L46.38 48.75L46.38 45.25L35.63 45.25ZM67.75 45.25L57 45.25L57 48.75L68.50 48.75Q68.50 47.50 68.13 46.38Q67.75 45.25 67.75 45.25L67.75 45.25ZM89 45.25L78.25 45.25L78.25 48.75L89 48.75L89 45.25ZM105.88 45.25L93.38 45.25L94.75 48.75L104.63 48.75L105.88 45.25ZM121 45.25L110.25 45.25L110.25 48.75L121 48.75L121 45.25ZM0.25 52.13L0.25 52.13L0.25 55.63L25.25 55.63L25.25 52.13L0.25 52.13ZM28.38 52.13L28.38 52.13L28.38 55.63L66.75 55.63Q67.38 55 67.75 53.56Q68.13 52.13 68.13 52.13L68.13 52.13L28.38 52.13ZM89 52.13L71.25 52.13L71.25 55.63L89 55.63L89 52.13ZM103.38 52.13L95.75 52.13L97.13 55.63L102.25 55.63L103.38 52.13ZM110.25 52.13L110.25 52.13L110.25 55.63L128.13 55.63L128.13 52.13L110.25 52.13ZM0.25 58.88L0.25 58.88L0.25 62.38L25.25 62.38L25.25 58.88L0.25 58.88ZM63.88 58.88L28.38 58.88L28.38 62.38L55.50 62.38Q59.13 62.38 61.50 60.63Q63.88 58.88 63.88 58.88L63.88 58.88ZM89 58.88L71.25 58.88L71.25 62.38L89 62.38L89 58.88ZM101.13 58.88L98.25 58.88L99.63 62.38L99.75 62.38L101.13 58.88ZM110.25 58.88L110.25 58.88L110.25 62.38L128.13 62.38L128.13 58.88L110.25 58.88Z"/></svg>