<svg xmlns="http://www.w3.org/2000/svg" xmlns:xlink="http://www.w3.org/1999/xlink" width="128" height="128"><path fill="#ffffff" d="M9 61.88L17.63 53.25L22.88 55.38L22.88 72.63L17.50 74.75L9 66.25L3.63 70.50L1.50 69.38L1.50 58.63L3.63 57.63L9 61.88ZM6.88 64L3.63 60.88L3.63 67.38L6.88 64ZM17.50 59.63L12 64L17.50 68.38L17.50 59.63ZM38.88 57.50L40.50 57.50L35.75 70.50L34.13 70.50L29.38 57.50L31 57.50L34.63 67.75Q34.75 68 34.81 68.31Q34.88 68.63 34.88 68.88L34.88 68.88Q35 68.63 35.06 68.31Q35.13 68 35.25 67.75L35.25 67.75L38.88 57.50ZM42.38 58.88L42.38 58.88Q42.38 58.88 42.38 58.88Q42.38 58.88 42.38 58.88L42.38 58.88Q42.13 58.88 42 58.81Q41.88 58.75 41.75 58.63L41.75 58.63Q41.63 58.50 41.56 58.31Q41.50 58.13 41.50 58L41.50 58Q41.50 57.88 41.50 57.88Q41.50 57.88 41.50 57.88L41.50 57.88Q41.50 57.88 41.50 57.88Q41.50 57.88 41.50 57.88L41.50 57.88Q41.50 57.50 41.75 57.19Q42 56.88 42.38 56.88L42.38 56.88Q42.38 56.88 42.38 56.88Q42.38 56.88 42.50 56.88L42.50 56.88Q42.63 56.88 42.81 56.94Q43 57 43.13 57.25L43.13 57.25Q43.25 57.38 43.31 57.50Q43.38 57.63 43.38 57.88L43.38 57.88Q43.38 58.13 43.31 58.25Q43.25 58.38 43.13 58.50L43.13 58.50Q43 58.75 42.81 58.81Q42.63 58.88 42.38 58.88L42.38 58.88Q42.38 58.88 42.38 58.88Q42.38 58.88 42.38 58.88L42.38 58.88ZM43.13 61.25L43.13 70.50L41.63 70.50L41.63 61.25L43.13 61.25ZM45 70.13L45 70.13L45 68.50Q45.50 69 46.19 69.19Q46.88 69.38 47.63 69.38L47.63 69.38Q47.63 69.38 47.63 69.38Q47.63 69.38 47.63 69.38L47.63 69.38Q49.63 69.38 49.63 68.13L49.63 68.13Q49.63 68.13 49.63 68.13Q49.63 68.13 49.63 68.13L49.63 68.13Q49.63 67.88 49.63 67.75Q49.63 67.63 49.50 67.50L49.50 67.50Q49.38 67.38 49.25 67.25Q49.13 67.13 49 67L49 67Q48.88 66.88 48.69 66.81Q48.50 66.75 48.38 66.63L48.38 66.63L47.50 66.25Q47.13 66.13 46.88 66Q46.63 65.88 46.38 65.75L46.38 65.75Q46.13 65.75 45.94 65.56Q45.75 65.38 45.63 65.25L45.63 65.25Q45.50 65.13 45.38 64.94Q45.25 64.75 45.13 64.63L45.13 64.63Q45.13 64.38 45.06 64.13Q45 63.88 45 63.63L45 63.63Q45 63.63 45 63.63Q45 63.63 45 63.63L45 63.63Q45 63.63 45 63.63Q45 63.63 45 63.63L45 63.63Q45 63.25 45.06 63Q45.13 62.75 45.38 62.50L45.38 62.50Q45.50 62.25 45.69 62Q45.88 61.75 46.13 61.63L46.13 61.63Q46.38 61.50 46.63 61.38Q46.88 61.25 47.25 61.13L47.25 61.13Q47.50 61 47.75 61Q48 61 48.38 61L48.38 61Q48.38 61 48.44 61Q48.50 61 48.63 61L48.63 61Q48.63 61 48.63 61Q48.63 61 48.63 61L48.63 61Q49.25 61 49.75 61.13Q50.25 61.25 50.75 61.38L50.75 61.38L50.75 62.88Q50.25 62.63 49.69 62.44Q49.13 62.25 48.50 62.25L48.50 62.25Q48.38 62.25 48.38 62.25Q48.38 62.25 48.38 62.25L48.38 62.25Q48.38 62.25 48.38 62.25Q48.38 62.25 48.25 62.25L48.25 62.25Q48.13 62.25 47.94 62.25Q47.75 62.25 47.63 62.38L47.63 62.38Q47.50 62.38 47.31 62.44Q47.13 62.50 47 62.63L47 62.63Q46.88 62.63 46.81 62.75Q46.75 62.88 46.63 63L46.63 63Q46.63 63.13 46.56 63.25Q46.50 63.38 46.50 63.50L46.50 63.50Q46.50 63.50 46.50 63.50Q46.50 63.50 46.50 63.50L46.50 63.50Q46.50 63.50 46.50 63.56Q46.50 63.63 46.50 63.63L46.50 63.63Q46.50 63.75 46.56 63.88Q46.63 64 46.63 64.13L46.63 64.13Q46.75 64.25 46.81 64.38Q46.88 64.50 47 64.63L47 64.63Q47.13 64.63 47.31 64.75Q47.50 64.88 47.63 64.88L47.63 64.88L48.50 65.25Q48.88 65.38 49.13 65.50Q49.38 65.63 49.63 65.75L49.63 65.75Q49.88 65.88 50.06 66Q50.25 66.13 50.38 66.25L50.38 66.25Q50.63 66.50 50.75 66.63Q50.88 66.75 50.88 67L50.88 67Q51 67.25 51.06 67.44Q51.13 67.63 51.13 67.88L51.13 67.88Q51.13 67.88 51.13 67.94Q51.13 68 51.13 68L51.13 68Q51.13 68 51.13 68Q51.13 68 51.13 68.13L51.13 68.13Q51.13 68.38 51.06 68.69Q51 69 50.88 69.25L50.88 69.25Q50.63 69.50 50.44 69.69Q50.25 69.88 50 70L50 70Q49.75 70.13 49.44 70.25Q49.13 70.38 48.88 70.50L48.88 70.50Q48.50 70.63 48.19 70.63Q47.88 70.63 47.50 70.63L47.50 70.63Q47.50 70.63 47.50 70.63Q47.50 70.63 47.50 70.63L47.50 70.63Q47.38 70.63 47.38 70.63Q47.38 70.63 47.25 70.63L47.25 70.63Q46.63 70.63 46.06 70.50Q45.50 70.38 45 70.13L45 70.13ZM60.38 61.25L60.38 70.50L58.88 70.50L58.88 69Q58.50 69.75 57.75 70.19Q57 70.63 56.13 70.63L56.13 70.63Q56.13 70.63 56.06 70.63Q56 70.63 56 70.63L56 70.63Q52.75 70.63 52.75 66.75L52.75 66.75L52.75 61.25L54.13 61.25L54.13 66.50Q54.13 69.38 56.38 69.38L56.38 69.38Q56.38 69.38 56.44 69.38Q56.50 69.38 56.50 69.38L56.50 69.38Q57 69.38 57.44 69.19Q57.88 69 58.13 68.63L58.13 68.63Q58.50 68.25 58.69 67.75Q58.88 67.25 58.88 66.63L58.88 66.63Q58.88 66.63 58.88 66.63Q58.88 66.63 58.88 66.50L58.88 66.50L58.88 61.25L60.38 61.25ZM69.38 64.50L69.38 70.50L67.88 70.50L67.88 69Q67.50 69.75 66.75 70.19Q66 70.63 65.13 70.63L65.13 70.63Q65.13 70.63 65.06 70.63Q65 70.63 65 70.63L65 70.63Q65 70.63 64.94 70.63Q64.88 70.63 64.75 70.63L64.75 70.63Q64.25 70.63 63.75 70.44Q63.25 70.25 62.88 70L62.88 70Q62.50 69.63 62.31 69.13Q62.13 68.63 62.13 68.13L62.13 68.13Q62.13 68.13 62.13 68.06Q62.13 68 62.13 68L62.13 68Q62.13 65.38 65.13 65L65.13 65L67.88 64.63Q67.88 62.25 66 62.25L66 62.25Q65.13 62.25 64.38 62.56Q63.63 62.88 63 63.38L63 63.38L63 61.88Q63.63 61.50 64.38 61.25Q65.13 61 66 61L66 61Q66 61 66.06 61Q66.13 61 66.13 61L66.13 61Q69.38 61 69.38 64.50L69.38 64.50ZM67.88 66.63L67.88 65.75L65.63 66.13Q65.25 66.13 64.88 66.25Q64.50 66.38 64.13 66.63L64.13 66.63Q63.88 66.75 63.75 67.06Q63.63 67.38 63.63 67.75L63.63 67.75Q63.63 67.75 63.63 67.81Q63.63 67.88 63.63 67.88L63.63 67.88Q63.63 67.88 63.63 67.88Q63.63 67.88 63.63 68L63.63 68Q63.63 68.25 63.75 68.50Q63.88 68.75 64.13 69L64.13 69Q64.25 69.25 64.56 69.31Q64.88 69.38 65.25 69.38L65.25 69.38Q65.25 69.38 65.31 69.38Q65.38 69.38 65.38 69.38L65.38 69.38Q65.38 69.38 65.38 69.38Q65.38 69.38 65.38 69.38L65.38 69.38Q66 69.38 66.44 69.19Q66.88 69 67.13 68.63L67.13 68.63Q67.50 68.25 67.69 67.81Q67.88 67.38 67.88 66.75L67.88 66.75Q67.88 66.75 67.88 66.75Q67.88 66.75 67.88 66.63L67.88 66.63ZM73.13 56.75L73.13 70.50L71.63 70.50L71.63 56.75L73.13 56.75ZM77.75 69.88L77.75 70L77.75 68.13Q77.88 68.25 78.06 68.38Q78.25 68.50 78.38 68.63L78.38 68.63Q78.63 68.75 78.88 68.81Q79.13 68.88 79.25 69L79.25 69Q79.50 69.13 79.75 69.19Q80 69.25 80.25 69.25L80.25 69.25Q80.50 69.25 80.75 69.31Q81 69.38 81.25 69.38L81.25 69.38Q81.25 69.38 81.31 69.38Q81.38 69.38 81.50 69.38L81.50 69.38Q82 69.38 82.44 69.19Q82.88 69 83.38 68.75L83.38 68.75Q83.63 68.50 83.81 68.13Q84 67.75 84 67.25L84 67.25Q84 67 83.94 66.81Q83.88 66.63 83.75 66.38L83.75 66.38Q83.63 66.13 83.50 66Q83.38 65.88 83.13 65.63L83.13 65.63Q82.88 65.50 82.63 65.38Q82.38 65.25 82.13 65.13L82.13 65.13L81 64.50Q80.25 64.13 79.63 63.75L79.63 63.75Q79.38 63.63 79.13 63.38Q78.88 63.13 78.63 63L78.63 63Q78.50 62.75 78.31 62.50Q78.13 62.25 78 62L78 62Q77.88 61.75 77.81 61.44Q77.75 61.13 77.75 60.75L77.75 60.75Q77.75 60.38 77.88 59.94Q78 59.50 78.13 59.13L78.13 59.13Q78.38 58.88 78.63 58.63Q78.88 58.38 79.13 58.13L79.13 58.13Q79.50 57.88 79.81 57.75Q80.13 57.63 80.50 57.50L80.50 57.50Q81 57.38 81.38 57.31Q81.75 57.25 82.25 57.25L82.25 57.25Q82.25 57.25 82.25 57.25Q82.25 57.25 82.25 57.25L82.25 57.25Q82.38 57.25 82.44 57.25Q82.50 57.25 82.63 57.25L82.63 57.25Q83.25 57.25 83.88 57.38Q84.50 57.50 85 57.75L85 57.75L85 59.50Q84.50 59.13 83.75 58.88Q83 58.63 82.25 58.63L82.25 58.63Q82.25 58.63 82.19 58.63Q82.13 58.63 82.13 58.63L82.13 58.63Q82.13 58.63 82.13 58.63Q82.13 58.63 82 58.63L82 58.63Q81.75 58.63 81.50 58.69Q81.25 58.75 81 58.75L81 58.75Q80.88 58.88 80.63 58.94Q80.38 59 80.13 59.13L80.13 59.13Q80 59.25 79.88 59.38Q79.75 59.50 79.63 59.75L79.63 59.75Q79.50 59.88 79.44 60.06Q79.38 60.25 79.38 60.50L79.38 60.50Q79.38 60.50 79.38 60.56Q79.38 60.63 79.38 60.63L79.38 60.63Q79.38 60.63 79.38 60.63Q79.38 60.63 79.38 60.63L79.38 60.63Q79.38 60.88 79.38 61.06Q79.38 61.25 79.50 61.50L79.50 61.50Q79.63 61.63 79.75 61.81Q79.88 62 80.13 62.13L80.13 62.13Q80.25 62.25 80.50 62.44Q80.75 62.63 80.88 62.63L80.88 62.63L82.13 63.25Q82.88 63.63 83.50 64L83.50 64Q83.75 64.25 84.06 64.44Q84.38 64.63 84.50 64.88L84.50 64.88Q84.75 65.13 84.94 65.38Q85.13 65.63 85.25 65.88L85.25 65.88Q85.38 66.13 85.50 66.44Q85.63 66.75 85.63 67.13L85.63 67.13Q85.63 67.13 85.63 67.13Q85.63 67.13 85.63 67.13L85.63 67.13Q85.63 67.13 85.63 67.19Q85.63 67.25 85.63 67.25L85.63 67.25Q85.63 67.63 85.50 68.06Q85.38 68.50 85.25 68.75L85.25 68.75Q85 69.13 84.75 69.38Q84.50 69.63 84.25 69.88L84.25 69.88Q83.88 70 83.50 70.19Q83.13 70.38 82.75 70.50L82.75 70.50Q82.38 70.50 81.94 70.56Q81.50 70.63 81 70.63L81 70.63Q81 70.63 81 70.63Q81 70.63 81 70.63L81 70.63Q80.88 70.63 80.81 70.63Q80.75 70.63 80.63 70.63L80.63 70.63Q80.50 70.63 80.38 70.63Q80.25 70.63 80.25 70.63L80.25 70.63Q80 70.63 79.75 70.56Q79.50 70.50 79.25 70.50L79.25 70.50Q79 70.50 78.81 70.44Q78.63 70.38 78.38 70.25L78.38 70.25Q78.25 70.25 78.06 70.13Q77.88 70 77.75 69.88L77.75 69.88ZM91.38 69.13L91.38 70.38Q91.13 70.50 90.81 70.56Q90.50 70.63 90.13 70.63L90.13 70.63Q90.13 70.63 90.06 70.63Q90 70.63 90 70.63L90 70.63Q87.50 70.63 87.50 68L87.50 68L87.50 62.50L86 62.50L86 61.25L87.63 61.25L87.63 59L89 58.50L89 61.25L91.38 61.25L91.38 62.50L89 62.50L89 67.63Q89 67.75 89 67.75Q89 67.75 89 67.88L89 67.88Q89 68.13 89.06 68.44Q89.13 68.75 89.38 69L89.38 69Q89.50 69.25 89.75 69.31Q90 69.38 90.25 69.38L90.25 69.38Q90.25 69.38 90.31 69.38Q90.38 69.38 90.38 69.38L90.38 69.38Q90.38 69.38 90.38 69.38Q90.38 69.38 90.38 69.38L90.38 69.38Q90.63 69.38 90.88 69.31Q91.13 69.25 91.38 69.13L91.38 69.13ZM100.63 70.50L100.50 70.50L99 70.50L99 69Q98.63 69.75 97.94 70.19Q97.25 70.63 96.38 70.63L96.38 70.63Q96.38 70.63 96.31 70.63Q96.25 70.63 96.25 70.63L96.25 70.63Q92.88 70.63 92.88 66.75L92.88 66.75L92.88 61.25L94.38 61.25L94.38 66.50Q94.38 69.38 96.63 69.38L96.63 69.38Q96.63 69.38 96.63 69.38Q96.63 69.38 96.63 69.38L96.63 69.38Q97.13 69.38 97.63 69.19Q98.13 69 98.38 68.63L98.38 68.63Q98.75 68.25 98.94 67.75Q99.13 67.25 99.13 66.63L99.13 66.63Q99.13 66.63 99.13 66.63Q99.13 66.63 99.13 66.50L99.13 66.50L99.13 61.25L100.63 61.25L100.63 70.50ZM111.13 56.75L111.13 70.50L109.63 70.50L109.63 68.88Q109.25 69.75 108.44 70.19Q107.63 70.63 106.63 70.63L106.63 70.63Q106.63 70.63 106.56 70.63Q106.50 70.63 106.50 70.63L106.50 70.63Q106.38 70.63 106.38 70.63Q106.38 70.63 106.38 70.63L106.38 70.63Q105.50 70.63 104.81 70.31Q104.13 70 103.63 69.50L103.63 69.50Q103.25 68.75 102.94 68Q102.63 67.25 102.63 66.38L102.63 66.38Q102.63 66.25 102.63 66.19Q102.63 66.13 102.63 66L102.63 66Q102.63 66 102.63 65.94Q102.63 65.88 102.63 65.75L102.63 65.75Q102.63 64.88 102.94 64Q103.25 63.13 103.88 62.38L103.88 62.38Q104.38 61.75 105.13 61.38Q105.88 61 106.75 61L106.75 61Q106.75 61 106.81 61Q106.88 61 106.88 61L106.88 61Q106.88 61 106.94 61Q107 61 107 61L107 61Q107.88 61 108.56 61.44Q109.25 61.88 109.63 62.50L109.63 62.50L109.63 56.75L111.13 56.75ZM109.63 66.25L109.63 66.25L109.63 64.88Q109.63 64.88 109.63 64.88Q109.63 64.88 109.63 64.88L109.63 64.88Q109.63 64.38 109.44 63.88Q109.25 63.38 108.88 63L108.88 63Q108.63 62.63 108.13 62.44Q107.63 62.25 107.13 62.25L107.13 62.25Q107.13 62.25 107.06 62.25Q107 62.25 107 62.25L107 62.25Q107 62.25 107 62.25Q107 62.25 106.88 62.25L106.88 62.25Q106.38 62.25 105.81 62.50Q105.25 62.75 104.88 63.25L104.88 63.25Q104.50 63.75 104.31 64.38Q104.13 65 104.13 65.75L104.13 65.75Q104.13 65.75 104.13 65.81Q104.13 65.88 104.13 66L104.13 66Q104.13 66 104.13 66.06Q104.13 66.13 104.13 66.25L104.13 66.25Q104.13 66.88 104.31 67.44Q104.50 68 104.88 68.50L104.88 68.50Q105.25 68.88 105.75 69.13Q106.25 69.38 106.75 69.38L106.75 69.38Q106.75 69.38 106.81 69.38Q106.88 69.38 106.88 69.38L106.88 69.38Q106.88 69.38 106.88 69.38Q106.88 69.38 106.88 69.38L106.88 69.38Q107.50 69.38 108 69.19Q108.50 69 108.88 68.50L108.88 68.50Q109.25 68.13 109.44 67.56Q109.63 67 109.63 66.38L109.63 66.38Q109.63 66.38 109.63 66.31Q109.63 66.25 109.63 66.25L109.63 66.25ZM114.63 58.88L114.63 58.88Q114.63 58.88 114.63 58.88Q114.63 58.88 114.63 58.88L114.63 58.88Q114.38 58.88 114.19 58.81Q114 58.75 113.88 58.63L113.88 58.63Q113.75 58.50 113.69 58.31Q113.63 58.13 113.63 58L113.63 58Q113.63 57.88 113.63 57.88Q113.63 57.88 113.63 57.88L113.63 57.88Q113.63 57.50 113.94 57.19Q114.25 56.88 114.63 56.88L114.63 56.88Q114.88 56.88 115.06 56.94Q115.25 57 115.38 57.25L115.38 57.25Q115.50 57.38 115.56 57.50Q115.63 57.63 115.63 57.88L115.63 57.88Q115.63 58.13 115.56 58.25Q115.50 58.38 115.38 58.50L115.38 58.50Q115.25 58.75 115.06 58.81Q114.88 58.88 114.63 58.88L114.63 58.88Q114.63 58.88 114.63 58.88Q114.63 58.88 114.63 58.88L114.63 58.88ZM115.38 61.25L115.38 70.50L113.88 70.50L113.88 61.25L115.38 61.25ZM121.88 70.63L121.88 70.63Q121.88 70.63 121.81 70.63Q121.75 70.63 121.75 70.63L121.75 70.63Q120.88 70.63 120.06 70.31Q119.25 70 118.63 69.38L118.63 69.38Q118.13 68.75 117.75 67.94Q117.38 67.13 117.38 66.13L117.38 66.13Q117.38 66.13 117.38 66.06Q117.38 66 117.38 66L117.38 66Q117.38 65.88 117.38 65.81Q117.38 65.75 117.38 65.63L117.38 65.63Q117.38 64.63 117.75 63.81Q118.13 63 118.75 62.25L118.75 62.25Q119.25 61.75 120.13 61.38Q121 61 121.88 61L121.88 61Q122 61 122.06 61Q122.13 61 122.13 61L122.13 61Q122.13 61 122.19 61Q122.25 61 122.38 61L122.38 61Q123.25 61 124 61.31Q124.75 61.63 125.38 62.25L125.38 62.25Q125.88 62.88 126.19 63.75Q126.50 64.63 126.50 65.50L126.50 65.50Q126.50 65.63 126.50 65.69Q126.50 65.75 126.50 65.88L126.50 65.88Q126.50 65.88 126.50 65.94Q126.50 66 126.50 66L126.50 66Q126.50 67 126.19 67.81Q125.88 68.63 125.25 69.38L125.25 69.38Q124.63 70 123.81 70.31Q123 70.63 122.13 70.63L122.13 70.63Q122 70.63 122 70.63Q122 70.63 121.88 70.63L121.88 70.63ZM122 62.25L122 62.25Q122 62.25 122 62.25Q122 62.25 121.88 62.25L121.88 62.25Q121.25 62.25 120.69 62.50Q120.13 62.75 119.75 63.25L119.75 63.25Q119.38 63.75 119.13 64.38Q118.88 65 118.88 65.75L118.88 65.75Q118.88 65.75 118.88 65.81Q118.88 65.88 118.88 66L118.88 66Q118.88 66 118.88 66.06Q118.88 66.13 118.88 66.13L118.88 66.13Q118.88 66.88 119.13 67.44Q119.38 68 119.75 68.50L119.75 68.50Q120.13 69 120.69 69.25Q121.25 69.50 121.88 69.50L121.88 69.50Q121.88 69.50 121.94 69.50Q122 69.50 122 69.50L122 69.50Q122 69.50 122.06 69.50Q122.13 69.50 122.13 69.50L122.13 69.50Q122.75 69.50 123.31 69.25Q123.88 69 124.25 68.50L124.25 68.50Q124.63 68 124.81 67.44Q125 66.88 125 66.13L125 66.13Q125 66.13 125 66.06Q125 66 125 65.88L125 65.88Q125 65.88 125 65.81Q125 65.75 125 65.63L125 65.63Q125 65 124.81 64.38Q124.63 63.75 124.25 63.25L124.25 63.25Q123.88 62.75 123.31 62.50Q122.75 62.25 122.13 62.25L122.13 62.25Q122.13 62.25 122.06 62.25Q122 62.25 122 62.25L122 62.25Z"/></svg>