<svg xmlns="http://www.w3.org/2000/svg" xmlns:xlink="http://www.w3.org/1999/xlink" width="128" height="128"><path fill="#ffffff" d="M53.63 57.75L53.63 57.75Q47.38 57.88 41.19 57.94Q35 58 28.88 58L28.88 58L27.63 58Q32 52 36.25 46.13L36.25 46.13Q40.50 40.25 44.69 34.44Q48.88 28.63 53.13 22.88L53.13 22.88Q57.38 17.13 61.63 11.25L61.63 11.25Q61.38 11.25 61.19 11.19Q61 11.13 60.88 11.13L60.88 11.13Q54.13 11.13 47.50 11.13L47.50 11.13Q40.75 11.13 34.06 11.13Q27.38 11.13 20.75 11.13L20.75 11.13Q14 11.13 7.38 11.13L7.38 11.13Q6.88 11.13 6.69 11.25Q6.50 11.38 6.50 11.88L6.50 11.88Q6.50 14.63 6.50 17.38Q6.50 20.13 6.50 22.88L6.50 22.88Q6.50 23.75 6.63 23.88Q6.75 24 7.63 24L7.63 24Q14.38 24 21.13 24Q27.88 24 34.63 24L34.63 24Q34.88 24 35.19 24Q35.50 24 35.88 24.13L35.88 24.13Q31.63 29.88 27.38 35.75L27.38 35.75Q23.13 41.63 18.88 47.44Q14.63 53.25 10.25 59L10.25 59Q6 64.88 1.75 70.63L1.75 70.63L2.38 70.63Q8.75 70.63 15.25 70.63L15.25 70.63Q21.63 70.63 28.06 70.63Q34.50 70.63 41 70.75L41 70.75Q47.38 70.75 53.75 70.75L53.75 70.75Q54.38 70.75 54.50 70.50Q54.63 70.25 54.63 69.88L54.63 69.88Q54.63 67 54.63 64.25Q54.63 61.50 54.63 58.75L54.63 58.75Q54.63 58.13 54.44 57.94Q54.25 57.75 53.63 57.75ZM60.38 27.50L60.38 27.50Q60.38 28 60.63 28Q60.88 28 61.25 28L61.25 28L86 28Q89.25 28 92.38 28.06Q95.50 28.13 98.63 28.13L98.63 28.13Q102 28.13 105.44 28.13Q108.88 28.13 112.25 28L112.25 28Q115.75 27.75 118.56 26.13Q121.38 24.50 123.25 21.50L123.25 21.50Q124.63 19.38 125.25 17.19Q125.88 15 126.25 12.63L126.25 12.63Q126.25 12 125.94 11.94Q125.63 11.88 125.25 11.88L125.25 11.88Q119.13 11.88 113.13 11.88L113.13 11.88Q107 11.88 100.94 11.88Q94.88 11.88 88.88 11.88L88.88 11.88Q82.75 11.88 76.75 11.88L76.75 11.88Q75.38 11.88 74 12Q72.63 12.13 71.38 12.50L71.38 12.50Q66.63 13.75 63.38 18.19Q60.13 22.63 60.38 27.50L60.38 27.50ZM76 33L76 33Q74 33 72.13 33.44Q70.25 33.88 68.50 34.75L68.50 34.75Q64.50 37 62.69 40.56Q60.88 44.13 60.38 48.50L60.38 48.50Q60.38 49.13 60.63 49.19Q60.88 49.25 61.25 49.25L61.25 49.25Q64.50 49.25 67.75 49.25Q71 49.25 74.25 49.25L74.25 49.25Q75.38 49.25 76.44 49.25Q77.50 49.25 78.63 49.25L78.63 49.25Q81 49.25 83.44 49.25Q85.88 49.25 88.25 49L88.25 49Q91.38 48.63 93.88 47.13Q96.38 45.63 98.25 43.13L98.25 43.13Q99.63 41 100.38 38.75Q101.13 36.50 101.38 34L101.38 34Q101.50 33.25 101.38 33.13Q101.25 33 100.63 33L100.63 33Q94.38 33 88.25 33Q82.13 33 76 33L76 33ZM84.88 54.75L84.88 54.75Q84.88 54.25 84.69 54.13Q84.50 54 84.13 54L84.13 54Q82.25 54 80.38 54Q78.50 54 76.63 54L76.63 54Q75.75 54.13 74.94 54.19Q74.13 54.25 73.25 54.38L73.25 54.38Q66.50 55.38 63.63 60.13Q60.75 64.88 60.38 69.63L60.38 69.63Q60.38 70.13 60.50 70.25Q60.63 70.38 61.13 70.38L61.13 70.38Q62.25 70.38 63.38 70.38Q64.50 70.38 65.63 70.38L65.63 70.38L65.63 70.50Q67.13 70.38 68.63 70.38Q70.13 70.38 71.63 70.13L71.63 70.13Q77.25 69.38 81.06 64.94Q84.88 60.50 84.88 54.75ZM33.75 103.38L33.75 103.38Q33.63 103.13 33.50 103.06Q33.38 103 33.25 103L33.25 103Q32.50 103 31.81 103Q31.13 103 30.38 103L30.38 103Q30.13 103 30 103.06Q29.88 103.13 29.75 103.38L29.75 103.38Q28.88 106.13 27.94 108.94Q27 111.75 26.13 114.50L26.13 114.50Q26 114.88 25.81 115.38Q25.63 115.88 25.50 116.38L25.50 116.38L21.25 110.88L21.50 110.63Q22.50 110.13 23.06 109.31Q23.63 108.50 23.75 107.38L23.75 107.38Q23.88 106 23.38 104.94Q22.88 103.88 21.38 103.25L21.38 103.25Q21 103.13 20.63 103.06Q20.25 103 19.75 103L19.75 103Q18.25 103 16.75 103Q15.25 103 13.75 103L13.75 103Q13.50 103 13.38 103.06Q13.25 103.13 13.25 103.38L13.25 103.38Q13.38 106.63 13.38 109.81Q13.38 113 13.25 116.25L13.25 116.25Q13.25 116.50 13.38 116.63Q13.50 116.75 13.75 116.63L13.75 116.63Q14.38 116.63 14.94 116.63Q15.50 116.63 16.13 116.75L16.13 116.75Q16.38 116.75 16.50 116.63Q16.63 116.50 16.63 116.13L16.63 116.13Q16.63 115.13 16.63 114.13Q16.63 113.13 16.63 112.13L16.63 112.13Q16.63 112 16.69 111.88Q16.75 111.75 16.75 111.63L16.75 111.63Q17 111.50 17.50 111.63Q18 111.75 18.13 112L18.13 112Q19 113.13 19.81 114.19Q20.63 115.25 21.38 116.38L21.38 116.38Q21.50 116.50 21.69 116.56Q21.88 116.63 22 116.63L22 116.63Q23.63 116.63 25.19 116.63Q26.75 116.63 28.38 116.63L28.38 116.63Q28.63 116.75 28.69 116.63Q28.75 116.50 28.88 116.38L28.88 116.38L29.38 114.25Q29.50 114 29.63 113.94Q29.75 113.88 30 113.88L30 113.88Q30.88 113.88 31.75 113.88Q32.63 113.88 33.50 113.88L33.50 113.88Q33.75 113.88 33.88 113.94Q34 114 34 114.25L34 114.25Q34.13 114.75 34.31 115.31Q34.50 115.88 34.63 116.38L34.63 116.38Q34.75 116.38 34.81 116.50Q34.88 116.63 35 116.63L35 116.63Q35.75 116.63 36.50 116.63Q37.25 116.63 38.13 116.63L38.13 116.63L38 116.38Q37 113.13 35.88 109.88Q34.75 106.63 33.75 103.38L33.75 103.38ZM19.25 109L19.25 109Q18.75 109.13 18.13 109.13Q17.50 109.13 16.88 109.25L16.88 109.25Q16.88 109.25 16.75 109.13Q16.63 109 16.63 108.88L16.63 108.88Q16.63 108.50 16.63 108.06Q16.63 107.63 16.63 107.25L16.63 107.25Q16.63 106.88 16.63 106.50Q16.63 106.13 16.63 105.75L16.63 105.75Q16.63 105.63 16.69 105.50Q16.75 105.38 17 105.38L17 105.38Q17.50 105.38 18 105.38Q18.50 105.38 19 105.50L19 105.50Q19.63 105.63 19.94 106Q20.25 106.38 20.38 106.88L20.38 106.88Q20.38 107.63 20.13 108.19Q19.88 108.75 19.25 109L19.25 109ZM33.13 111L30.25 111Q30.63 110.25 31 109.06Q31.38 107.88 31.63 106.75L31.63 106.75L31.75 106.63Q32.13 107.75 32.50 109Q32.88 110.25 33.13 111L33.13 111ZM84.63 103L84.63 103Q84 103 83.38 103Q82.75 103 82.13 103L82.13 103Q81.88 103 81.75 103.13Q81.63 103.25 81.50 103.50L81.50 103.50Q81.25 105.13 80.88 106.88Q80.50 108.63 80.13 110.38L80.13 110.38Q80 110.75 79.94 111.19Q79.88 111.63 79.75 112.13L79.75 112.13Q79.63 112 79.56 111.88Q79.50 111.75 79.50 111.63L79.50 111.63Q79 109.63 78.50 107.56Q78 105.50 77.63 103.38L77.63 103.38Q77.50 103.13 77.38 103.06Q77.25 103 77.13 103L77.13 103Q76.50 103 75.88 103Q75.25 103 74.63 103L74.63 103Q74.38 103 74.25 103.06Q74.13 103.13 74 103.38L74 103.38Q73.63 105.13 73.25 106.81Q72.88 108.50 72.38 110.13L72.38 110.13Q72.25 110.63 72.13 111.06Q72 111.50 71.88 112L71.88 112L71.75 112Q71.75 111.63 71.63 111.25Q71.50 110.88 71.50 110.50L71.50 110.50Q71.13 108.75 70.75 106.94Q70.38 105.13 70 103.38L70 103.38Q70 103.25 69.88 103.13Q69.75 103 69.75 103L69.75 103Q69 103 68.19 103Q67.38 103 66.63 103L66.63 103L66.63 103.38Q67.38 106.63 68.19 109.88Q69 113.13 69.88 116.38L69.88 116.38Q69.88 116.50 70 116.63Q70.13 116.75 70.25 116.75L70.25 116.75Q71 116.63 71.69 116.63Q72.38 116.63 73.13 116.75L73.13 116.75Q73.38 116.75 73.50 116.63Q73.63 116.50 73.75 116.25L73.75 116.25Q74.13 114.63 74.50 112.94Q74.88 111.25 75.38 109.63L75.38 109.63Q75.38 109.25 75.50 108.94Q75.63 108.63 75.63 108.25L75.63 108.25L75.75 108.38L75.88 108.75Q76.38 110.63 76.88 112.50Q77.38 114.38 77.88 116.25L77.88 116.25Q77.88 116.50 78 116.63Q78.13 116.75 78.38 116.75L78.38 116.75Q79.13 116.63 79.81 116.63Q80.50 116.63 81.13 116.75L81.13 116.75Q81.38 116.75 81.50 116.63Q81.63 116.50 81.75 116.25L81.75 116.25Q82.50 113 83.31 109.81Q84.13 106.63 84.88 103.38L84.88 103.38Q85 103.13 84.94 103.06Q84.88 103 84.63 103L84.63 103ZM53.25 103.38L53.25 103.38Q53.25 103.13 53.19 103.06Q53.13 103 52.88 103L52.88 103Q52.13 103 51.38 103Q50.63 103 49.88 103L49.88 103Q49.63 103 49.50 103.06Q49.38 103.13 49.25 103.38L49.25 103.38Q48.63 104.75 48.06 106.13Q47.50 107.50 46.88 108.88L46.88 108.88L46.50 109.75L46.13 109.25Q45.50 107.75 44.88 106.31Q44.25 104.88 43.63 103.38L43.63 103.38Q43.50 103.13 43.38 103.06Q43.25 103 43 103L43 103Q42.25 103 41.50 103Q40.75 103 40 103L40 103Q39.75 103 39.63 103.06Q39.50 103.13 39.50 103.38L39.50 103.38Q39.63 106.63 39.63 109.81Q39.63 113 39.50 116.25L39.50 116.25Q39.50 116.50 39.63 116.63Q39.75 116.75 40 116.75L40 116.75Q40.50 116.63 41.06 116.63Q41.63 116.63 42.25 116.75L42.25 116.75Q42.50 116.75 42.69 116.63Q42.88 116.50 42.88 116.13L42.88 116.13Q42.88 114.13 42.94 112.13Q43 110.13 43 108.13L43 108.13L43 107.75Q43 107.88 43.06 107.94Q43.13 108 43.13 108.13L43.13 108.13Q43.63 109.38 44.13 110.56Q44.63 111.75 45.13 113L45.13 113Q45.25 113.25 45.38 113.31Q45.50 113.38 45.75 113.38L45.75 113.38Q46.13 113.38 46.44 113.38Q46.75 113.38 47.13 113.38L47.13 113.38Q47.38 113.38 47.50 113.31Q47.63 113.25 47.63 113L47.63 113Q48 112.25 48.31 111.50Q48.63 110.75 48.88 110.13L48.88 110.13L49.88 107.75L50 107.75L50 108.13Q50 110.13 50 112.13Q50 114.13 50 116.13L50 116.13Q50 116.50 50.06 116.63Q50.13 116.75 50.50 116.75L50.50 116.75Q51.13 116.63 51.69 116.63Q52.25 116.63 52.88 116.75L52.88 116.75Q53.13 116.75 53.19 116.63Q53.25 116.50 53.25 116.25L53.25 116.25Q53.25 113 53.25 109.81Q53.25 106.63 53.25 103.38L53.25 103.38ZM109.13 110.75L109.13 110.75L109.25 110.75Q110.25 110.13 110.88 109.25Q111.50 108.38 111.50 107.25L111.50 107.25Q111.63 106 111.25 105.13Q110.88 104.25 109.75 103.63L109.75 103.63Q109.25 103.25 108.69 103.13Q108.13 103 107.63 103L107.63 103Q106.13 103 104.63 103Q103.13 103 101.50 103L101.50 103Q101.38 103 101.25 103.06Q101.13 103.13 101.13 103.38L101.13 103.38Q101.13 106.63 101.13 109.81Q101.13 113 101.13 116.25L101.13 116.25Q101.13 116.50 101.19 116.63Q101.25 116.75 101.50 116.75L101.50 116.75Q102.13 116.63 102.75 116.63Q103.38 116.63 104 116.75L104 116.75Q104.25 116.75 104.38 116.63Q104.50 116.50 104.38 116.13L104.38 116.13Q104.38 115.13 104.38 114.13Q104.38 113.13 104.38 112L104.38 112Q104.38 111.88 104.44 111.81Q104.50 111.75 104.50 111.63L104.50 111.63Q104.75 111.50 105.25 111.63Q105.75 111.75 105.88 112L105.88 112Q106.75 113 107.56 114.13Q108.38 115.25 109.13 116.38L109.13 116.38Q109.25 116.50 109.44 116.63Q109.63 116.75 109.88 116.75L109.88 116.75Q110.63 116.63 111.44 116.63Q112.25 116.63 113 116.63L113 116.63L113.50 116.63L109 110.88L109.13 110.75ZM106.50 109.13L106.50 109.13Q106.13 109.25 105.69 109.25Q105.25 109.25 104.88 109.25L104.88 109.25Q104.63 109.25 104.50 109.13Q104.38 109 104.38 108.88L104.38 108.88Q104.38 108.50 104.38 108.06Q104.38 107.63 104.38 107.25L104.38 107.25Q104.38 106.88 104.38 106.50Q104.38 106.13 104.50 105.75L104.50 105.75Q104.50 105.63 104.56 105.50Q104.63 105.38 104.75 105.38L104.75 105.38Q105.25 105.38 105.75 105.38Q106.25 105.38 106.88 105.50L106.88 105.50Q107.50 105.63 107.81 106.06Q108.13 106.50 108.13 107.25L108.13 107.25Q108.13 108 107.69 108.50Q107.25 109 106.50 109.13L106.50 109.13ZM94.63 103L94.63 103Q93.88 102.75 93.06 102.69Q92.25 102.63 91.50 102.75L91.50 102.75Q90.38 102.88 89.44 103.31Q88.50 103.75 87.75 104.50L87.75 104.50Q86.75 105.63 86.38 107Q86 108.38 86 109.75L86 109.75Q86 110.38 86.06 110.88Q86.13 111.38 86.25 111.88L86.25 111.88Q86.50 113.50 87.44 114.69Q88.38 115.88 89.88 116.50L89.88 116.50Q90.63 116.88 91.38 116.94Q92.13 117 93 117L93 117Q94.88 116.88 96.31 115.88Q97.75 114.88 98.50 113.13L98.50 113.13Q99 111.50 99 109.94Q99 108.38 98.50 106.75L98.50 106.75Q98 105.38 97.06 104.38Q96.13 103.38 94.63 103L94.63 103ZM95 112.88L95 112.88Q94.50 113.63 93.94 114Q93.38 114.38 92.50 114.38L92.50 114.38Q91.63 114.50 91 114.06Q90.38 113.63 90 112.88L90 112.88Q89.88 112.38 89.69 111.88Q89.50 111.38 89.50 111L89.50 111Q89.38 109.88 89.44 108.88Q89.50 107.88 90 106.88L90 106.88Q90.25 106.25 90.69 105.81Q91.13 105.38 91.88 105.25L91.88 105.25Q92.88 105 93.69 105.38Q94.50 105.75 94.88 106.75L94.88 106.75Q95.38 107.50 95.50 108.25Q95.63 109 95.50 109.88L95.50 109.88Q95.63 110.63 95.50 111.38Q95.38 112.13 95 112.88ZM125.88 116L125.88 116Q124.88 114.50 123.81 112.88Q122.75 111.25 121.63 109.75L121.63 109.75Q121.50 109.50 121.50 109.31Q121.50 109.13 121.63 109L121.63 109Q122.63 107.63 123.63 106.25Q124.63 104.88 125.63 103.63L125.63 103.63L126.13 103Q125.13 103 124.25 103Q123.38 103 122.50 103L122.50 103Q122.38 103 122.25 103.13Q122.13 103.25 122.13 103.25L122.13 103.25Q121.38 104.38 120.63 105.44Q119.88 106.50 119.13 107.50L119.13 107.50L118.13 109L118 108.88L118 108.50Q118 107.25 118 106Q118 104.75 118 103.50L118 103.50Q118 103.13 117.88 103.06Q117.75 103 117.38 103L117.38 103Q116.88 103 116.31 103Q115.75 103 115.13 103L115.13 103Q114.88 103 114.75 103.06Q114.63 103.13 114.63 103.50L114.63 103.50Q114.63 106.63 114.63 109.81Q114.63 113 114.63 116.13L114.63 116.13Q114.63 116.50 114.69 116.63Q114.75 116.75 115.13 116.75L115.13 116.75Q115.63 116.63 116.25 116.63Q116.88 116.63 117.38 116.75L117.38 116.75Q117.75 116.75 117.81 116.63Q117.88 116.50 117.88 116.13L117.88 116.13Q117.88 115.38 117.94 114.50Q118 113.63 117.88 112.75L117.88 112.75Q117.88 112.25 118.06 111.88Q118.25 111.50 118.63 111.13L118.63 111.13L118.88 111.50Q119.63 112.63 120.44 113.75Q121.25 114.88 121.88 116.13L121.88 116.13Q122.13 116.38 122.38 116.56Q122.63 116.75 123 116.75L123 116.75Q123.88 116.63 124.69 116.63Q125.50 116.63 126.38 116.63L126.38 116.63L125.88 116ZM64.75 103L64.75 103Q62.75 103 60.75 103Q58.75 103 56.63 103L56.63 103Q56.38 103 56.25 103.13Q56.13 103.25 56.13 103.50L56.13 103.50Q56.13 105.13 56.13 106.69Q56.13 108.25 56.13 109.88L56.13 109.88Q56.13 111.50 56.13 113.06Q56.13 114.63 56.13 116.25L56.13 116.25Q56.13 116.38 56.19 116.56Q56.25 116.75 56.50 116.75L56.50 116.75Q58.63 116.63 60.75 116.63Q62.88 116.63 65 116.75L65 116.75Q65.13 116.75 65.25 116.63Q65.38 116.50 65.38 116.25L65.38 116.25Q65.25 115.88 65.25 115.44Q65.25 115 65.38 114.63L65.38 114.63Q65.38 114.38 65.25 114.25Q65.13 114.13 64.88 114.13L64.88 114.13Q63.63 114.13 62.38 114.13Q61.13 114.13 60 114.13L60 114.13Q59.75 114.13 59.63 114.06Q59.50 114 59.50 113.75L59.50 113.75Q59.50 113 59.50 112.38Q59.50 111.75 59.50 111L59.50 111Q59.50 110.75 59.63 110.63Q59.75 110.50 60 110.50L60 110.50Q61.13 110.50 62.19 110.50Q63.25 110.50 64.38 110.50L64.38 110.50Q64.63 110.50 64.75 110.44Q64.88 110.38 64.75 110.13L64.75 110.13Q64.75 109.63 64.75 109.25Q64.75 108.88 64.75 108.50L64.75 108.50Q64.88 108.13 64.75 108.06Q64.63 108 64.38 108L64.38 108Q63.25 108 62.31 108Q61.38 108 60.38 108L60.38 108Q59.88 108 59.94 107.94Q60 107.88 60 107.38L60 107.38L60 106.13Q60 105.63 59.94 105.56Q59.88 105.50 60.38 105.50L60.38 105.50Q61.63 105.50 62.69 105.50Q63.75 105.50 65 105.50L65 105.50Q65.25 105.50 65.31 105.38Q65.38 105.25 65.38 105L65.38 105Q65.38 104.63 65.38 104.25Q65.38 103.88 65.38 103.50L65.38 103.50Q65.38 103.13 65.25 103.06Q65.13 103 64.75 103L64.75 103ZM11.50 103.50L11.50 103.50Q11.50 103.13 11.38 103.06Q11.25 103 11 103L11 103Q9 103 7 103Q5 103 3 103L3 103Q2.63 103 2.56 103.06Q2.50 103.13 2.50 103.50L2.50 103.50Q2.50 105 2.50 106.63Q2.50 108.25 2.50 109.88L2.50 109.88Q2.50 111.38 2.50 113Q2.50 114.63 2.50 116.13L2.50 116.13Q2.50 116.50 2.56 116.63Q2.63 116.75 3 116.75L3 116.75Q3.63 116.63 4.19 116.63Q4.75 116.63 5.38 116.75L5.38 116.75Q5.63 116.75 5.75 116.63Q5.88 116.50 5.88 116.13L5.88 116.13Q5.88 114.88 5.88 113.63Q5.88 112.38 5.88 111.13L5.88 111.13Q5.88 110.88 5.94 110.81Q6 110.75 6.25 110.75L6.25 110.75L10.63 110.75Q10.88 110.75 10.94 110.63Q11 110.50 11 110.25L11 110.25Q11 109.88 11 109.44Q11 109 11 108.63L11 108.63Q11 108.38 10.94 108.25Q10.88 108.13 10.50 108.13L10.50 108.13L6.38 108.13Q6 108.25 5.88 108.13Q5.75 108 5.88 107.75L5.88 107.75Q5.88 107.25 5.88 106.88Q5.88 106.50 5.88 106L5.88 106Q5.88 105.63 5.94 105.56Q6 105.50 6.38 105.50L6.38 105.50Q7.50 105.50 8.69 105.50Q9.88 105.50 11 105.50L11 105.50Q11.25 105.50 11.38 105.38Q11.50 105.25 11.50 105L11.50 105Q11.50 104.63 11.50 104.25Q11.50 103.88 11.50 103.50L11.50 103.50ZM31.38 95.38L31.38 95.38L31.25 95.38L31 95Q29.75 92.50 28.56 90Q27.38 87.50 26.13 85L26.13 85Q26 84.75 25.81 84.69Q25.63 84.63 25.38 84.63L25.38 84.63Q25 84.63 24.63 84.63Q24.25 84.63 23.88 84.63L23.88 84.63Q23.63 84.63 23.50 84.69Q23.38 84.75 23.38 85.13L23.38 85.13Q23.38 88.13 23.38 91.19Q23.38 94.25 23.38 97.25L23.38 97.25Q23.38 98 23.56 98.19Q23.75 98.38 24.50 98.38L24.50 98.38Q24.88 98.38 24.94 98.25Q25 98.13 25 97.75L25 97.75Q25 95.13 25 92.50Q25 89.88 25 87.13L25 87.13L25 86.63L25.13 86.63L25.38 87Q26.63 89.50 27.88 92.06Q29.13 94.63 30.38 97.13L30.38 97.13Q30.75 97.88 31.19 98.19Q31.63 98.50 32.38 98.38L32.38 98.38Q32.88 98.25 32.94 98.19Q33 98.13 33 97.75L33 97.75L33 85.63Q33 84.88 32.88 84.75Q32.75 84.63 32 84.63L32 84.63Q31.63 84.63 31.50 84.75Q31.38 84.88 31.38 85.13L31.38 85.13Q31.50 87.63 31.44 90.06Q31.38 92.50 31.38 94.88L31.38 94.88L31.38 95.38ZM35.88 97.88L35.88 97.88Q35.88 98 35.94 98.19Q36 98.38 36.25 98.38L36.25 98.38Q37.50 98.25 38.69 98.25Q39.88 98.25 41 98.13L41 98.13Q42.50 98.13 43.56 97.38Q44.63 96.63 45.38 95.38L45.38 95.38Q46.25 94.13 46.38 92.69Q46.50 91.25 46.25 89.88L46.25 89.88Q45.88 87.63 44.44 86.25Q43 84.88 40.50 84.75L40.50 84.75Q39.50 84.63 38.50 84.63Q37.50 84.63 36.38 84.63L36.38 84.63Q36.13 84.63 36 84.69Q35.88 84.75 35.88 85.13L35.88 85.13Q35.88 86.75 35.88 88.31Q35.88 89.88 35.88 91.50L35.88 91.50Q35.88 93 35.88 94.63Q35.88 96.25 35.88 97.88L35.88 97.88ZM37.63 86.38L37.63 86.38L37.63 86.13Q38.63 86.13 39.69 86.13Q40.75 86.13 41.63 86.50L41.63 86.50Q43 87 43.69 87.94Q44.38 88.88 44.50 90.13L44.50 90.13Q44.75 91 44.69 91.88Q44.63 92.75 44.38 93.63L44.38 93.63Q44 94.88 43 95.75Q42 96.63 40.63 96.75L40.63 96.75Q39.88 96.75 39.25 96.75Q38.63 96.75 38 96.88L38 96.88Q37.75 96.88 37.69 96.81Q37.63 96.75 37.63 96.50L37.63 96.50Q37.63 94 37.63 91.44Q37.63 88.88 37.63 86.38L37.63 86.38ZM20.38 98.25L20.38 98.25Q21.13 98.25 21.19 98.25Q21.25 98.25 21.38 97.38L21.38 97.38Q21.38 97 21.25 96.88Q21.13 96.75 20.75 96.75L20.75 96.75Q19.38 96.88 18 96.81Q16.63 96.75 15.13 96.88L15.13 96.88Q14.88 96.88 14.75 96.75Q14.63 96.63 14.63 96.38L14.63 96.38Q14.63 95.25 14.63 94.19Q14.63 93.13 14.63 92L14.63 92L14.75 91.88Q14.88 91.75 15 91.88Q15.13 92 15.25 92L15.25 92L19.88 92Q20.63 92 20.75 91.75Q20.88 91.50 20.88 90.75L20.88 90.75Q20.88 90.50 20.75 90.31Q20.63 90.13 20.38 90.13L20.38 90.13Q19 90.13 17.69 90.13Q16.38 90.13 15.13 90.13L15.13 90.13Q14.88 90.13 14.75 90Q14.63 89.88 14.63 89.63L14.63 89.63Q14.63 88.88 14.63 88.13Q14.63 87.38 14.63 86.63L14.63 86.63Q14.63 86.38 14.75 86.25Q14.88 86.13 15.13 86.13L15.13 86.13Q16.38 86.13 17.69 86.13Q19 86.13 20.25 86.13L20.25 86.13Q21 86.13 21.19 86Q21.38 85.88 21.38 85.13L21.38 85.13Q21.38 84.75 21.25 84.69Q21.13 84.63 20.88 84.63L20.88 84.63Q19 84.63 17.13 84.63Q15.25 84.63 13.50 84.63L13.50 84.63Q13.13 84.63 13 84.69Q12.88 84.75 12.88 85.13L12.88 85.13Q13 88.25 13 91.44Q13 94.63 12.88 97.75L12.88 97.75Q12.88 98.13 13 98.25Q13.13 98.38 13.50 98.38L13.50 98.38Q15.13 98.25 16.88 98.31Q18.63 98.38 20.38 98.25L20.38 98.25ZM10 98.38L10 98.38Q10.75 98.38 10.88 98.25Q11 98.13 11 97.38L11 97.38Q11 97 10.88 96.88Q10.75 96.75 10.50 96.75L10.50 96.75Q8.88 96.88 7.31 96.81Q5.75 96.75 4.13 96.75L4.13 96.75Q4 96.75 3.88 96.75Q3.75 96.75 3.50 96.75L3.50 96.75L3.88 96.25Q5.38 94 7 91.75Q8.63 89.50 10.25 87.13L10.25 87.13Q10.50 86.75 10.69 86.25Q10.88 85.75 10.88 85.13L10.88 85.13Q10.88 84.75 10.75 84.69Q10.63 84.63 10.38 84.63L10.38 84.63Q8.50 84.63 6.69 84.63Q4.88 84.63 3 84.63L3 84.63Q2.25 84.63 2.13 84.75Q2 84.88 2 85.63L2 85.63Q2 86 2.06 86.06Q2.13 86.13 2.50 86.13L2.50 86.13Q3.88 86.13 5.38 86.06Q6.88 86 8.25 86L8.25 86L8.88 86Q8.88 86 8.81 86.25Q8.75 86.50 8.63 86.63L8.63 86.63Q7 88.88 5.44 91.19Q3.88 93.50 2.25 95.75L2.25 95.75Q2 96.13 1.81 96.63Q1.63 97.13 1.63 97.75L1.63 97.75Q1.75 98.13 1.81 98.25Q1.88 98.38 2.25 98.38L2.25 98.38Q4.25 98.25 6.19 98.31Q8.13 98.38 10 98.38L10 98.38Z"/></svg>