<svg xmlns="http://www.w3.org/2000/svg" xmlns:xlink="http://www.w3.org/1999/xlink" width="128" height="128"><path fill="#ffffff" d="M53.63 80.88L53.63 80.88Q47.38 80.88 41.19 80.94Q35 81 28.88 81L28.88 81L27.63 81Q32 75 36.25 69.13L36.25 69.13Q40.50 63.25 44.69 57.50Q48.88 51.75 53.13 45.88L53.13 45.88Q57.38 40.13 61.63 34.38L61.63 34.38Q61.38 34.38 61.19 34.31Q61 34.25 60.88 34.25L60.88 34.25Q54.13 34.25 47.50 34.25L47.50 34.25Q40.75 34.25 34.06 34.25Q27.38 34.25 20.75 34.25L20.75 34.25Q14 34.25 7.38 34.25L7.38 34.25Q6.88 34.25 6.69 34.38Q6.50 34.50 6.50 35L6.50 35Q6.50 37.75 6.50 40.50Q6.50 43.25 6.50 46L6.50 46Q6.50 46.88 6.63 47Q6.75 47.13 7.63 47.13L7.63 47.13Q14.38 47.13 21.13 47.13Q27.88 47.13 34.63 47.13L34.63 47.13Q34.88 47.13 35.19 47.13Q35.50 47.13 35.88 47.25L35.88 47.25Q31.63 53 27.38 58.88L27.38 58.88Q23.13 64.75 18.88 70.56Q14.63 76.38 10.25 82.13L10.25 82.13Q6 88 1.75 93.75L1.75 93.75L2.38 93.88Q8.75 93.88 15.25 93.88L15.25 93.88Q21.63 93.88 28.06 93.88Q34.50 93.88 41 93.88L41 93.88Q47.38 93.88 53.75 93.88L53.75 93.88Q54.38 93.88 54.50 93.63Q54.63 93.38 54.63 93L54.63 93Q54.63 90.13 54.63 87.38Q54.63 84.63 54.63 81.75L54.63 81.75Q54.63 81.25 54.44 81.06Q54.25 80.88 53.63 80.88L53.63 80.88ZM125.25 35L125.25 35Q119.13 35 113.13 35L113.13 35Q107 35 100.94 35Q94.88 35 88.88 35L88.88 35Q82.75 35 76.75 35L76.75 35Q75.38 35 74 35.19Q72.63 35.38 71.38 35.75L71.38 35.75Q66.63 36.88 63.38 41.31Q60.13 45.75 60.38 50.50L60.38 50.50Q60.38 51.13 60.63 51.06Q60.88 51 61.25 51L61.25 51L86 51Q89.25 51 92.38 51.06Q95.50 51.13 98.63 51.13L98.63 51.13Q102 51.13 105.44 51.19Q108.88 51.25 112.25 51L112.25 51Q115.75 50.88 118.56 49.25Q121.38 47.63 123.25 44.63L123.25 44.63Q124.63 42.50 125.25 40.31Q125.88 38.13 126.25 35.75L126.25 35.75Q126.25 35.13 125.94 35.06Q125.63 35 125.25 35L125.25 35ZM100.63 56.13L100.63 56.13Q94.38 56.13 88.25 56.13Q82.13 56.13 76 56.13L76 56.13Q74 56.13 72.13 56.56Q70.25 57 68.50 57.88L68.50 57.88Q64.50 60.13 62.69 63.69Q60.88 67.25 60.38 71.63L60.38 71.63Q60.38 72.25 60.63 72.31Q60.88 72.38 61.25 72.38L61.25 72.38Q64.50 72.38 67.75 72.38Q71 72.38 74.25 72.38L74.25 72.38Q75.38 72.38 76.44 72.38Q77.50 72.38 78.63 72.38L78.63 72.38Q81 72.38 83.44 72.38Q85.88 72.38 88.25 72.13L88.25 72.13Q91.38 71.75 93.88 70.31Q96.38 68.88 98.25 66.25L98.25 66.25Q99.63 64.13 100.38 61.88Q101.13 59.63 101.38 57.13L101.38 57.13Q101.50 56.38 101.38 56.25Q101.25 56.13 100.63 56.13L100.63 56.13ZM84.13 77.13L84.13 77.13Q82.25 77.13 80.38 77.13Q78.50 77.13 76.63 77.13L76.63 77.13Q75.75 77.25 74.94 77.31Q74.13 77.38 73.25 77.50L73.25 77.50Q66.50 78.50 63.63 83.25Q60.75 88 60.38 92.75L60.38 92.75Q60.38 93.25 60.50 93.38Q60.63 93.50 61.13 93.50L61.13 93.50Q62.25 93.50 63.38 93.50Q64.50 93.50 65.63 93.50L65.63 93.50L65.63 93.63Q67.13 93.50 68.63 93.50Q70.13 93.50 71.63 93.25L71.63 93.25Q77.25 92.63 81.06 88.13Q84.88 83.63 84.88 77.88L84.88 77.88Q84.88 77.38 84.69 77.25Q84.50 77.13 84.13 77.13L84.13 77.13Z"/></svg>