<svg xmlns="http://www.w3.org/2000/svg" xmlns:xlink="http://www.w3.org/1999/xlink" width="128" height="128"><path fill="#000000" d="M59.50 31.88L59.50 0L80.38 0L80.38 96.88Q72.38 98.38 66 99.06Q59.63 99.75 53.25 99.75L53.25 99.75Q43.63 99.75 36.38 97.63L36.38 97.63Q29.13 95.38 24.19 91.19Q19.25 87 16.75 80.63L16.75 80.63Q14.38 74.38 14.38 66L14.38 66Q14.38 58 16.88 51.50L16.88 51.50Q19.38 45 24.13 40.44Q28.88 35.88 35.50 33.38L35.50 33.38Q42.13 30.88 50.38 30.88L50.38 30.88Q52.88 30.88 55 31.06Q57.13 31.25 59.50 31.88L59.50 31.88ZM59.50 82.38L59.50 48.75Q57.63 48.13 56 47.88Q54.38 47.63 52.38 47.63L52.38 47.63Q44.38 47.63 40 52.31Q35.63 57 35.63 65.63L35.63 65.63Q35.63 74 39.94 78.44Q44.25 82.88 52.25 82.88L52.25 82.88Q54 82.88 55.63 82.75Q57.25 82.63 59.50 82.38L59.50 82.38ZM92.75 32.38L113.63 32.38L113.63 80.88Q113.63 93.38 112.56 100.31Q111.50 107.25 108.75 112.50L108.75 112.50Q106.25 117.50 102.44 121Q98.63 124.50 91.63 128L91.63 128L72.25 118.75Q79.13 115.50 82.88 112.31Q86.63 109.13 88.75 104.75L88.75 104.75Q91 100.25 91.88 93.75Q92.75 87.25 92.75 73.63L92.75 73.63L92.75 32.38ZM92.75 21.63L92.75 0.13L113.63 0.13L113.63 21.63L92.75 21.63Z"/></svg>