<svg xmlns="http://www.w3.org/2000/svg" xmlns:xlink="http://www.w3.org/1999/xlink" width="128" height="128"><path fill="#000000" d="M15.13 52.38L15.13 41.63L22.13 41.63L22.13 74Q19.38 74.50 17.25 74.75Q15.13 75 13 75L13 75Q6.63 75 3.31 72.13Q0 69.25 0 63.75L0 63.75Q0 58.38 3.25 55.19Q6.50 52 12 52L12 52Q12.88 52 13.56 52.06Q14.25 52.13 15.13 52.38L15.13 52.38ZM15.13 69.13L15.13 58Q14.50 57.75 13.94 57.69Q13.38 57.63 12.75 57.63L12.75 57.63Q10.13 57.63 8.63 59.19Q7.13 60.75 7.13 63.63L7.13 63.63Q7.13 66.38 8.56 67.88Q10 69.38 12.63 69.38L12.63 69.38Q13.25 69.38 13.81 69.31Q14.38 69.25 15.13 69.13L15.13 69.13ZM26.25 52.50L33.25 52.50L33.25 68.63Q33.25 72.88 32.88 75.19Q32.50 77.50 31.63 79.25L31.63 79.25Q30.75 81 29.44 82.13Q28.13 83.25 25.88 84.50L25.88 84.50L19.38 81.38Q21.63 80.25 22.94 79.19Q24.25 78.13 24.88 76.63L24.88 76.63Q25.63 75.13 25.94 73Q26.25 70.88 26.25 66.25L26.25 66.25L26.25 52.50ZM26.25 48.88L26.25 41.63L33.25 41.63L33.25 48.88L26.25 48.88ZM37.50 54L37.50 54Q39.75 53 42 52.50Q44.25 52 46.75 52L46.75 52Q49.38 52 51.19 52.69Q53 53.38 53.75 54.75L53.75 54.75Q54.13 55.50 54.31 56.69Q54.50 57.88 54.50 60.13L54.50 60.13L54.50 74.38Q52.13 74.63 49.38 74.88Q46.63 75.13 44.50 75.13L44.50 75.13Q40.13 75.13 38.06 73.50Q36 71.88 36 68.50L36 68.50Q36 64.88 38.81 63Q41.63 61.13 48.13 60.63L48.13 60.63L48.13 59Q48.13 58.13 47.56 57.75Q47 57.38 45.63 57.38L45.63 57.38Q43.75 57.38 41.63 57.88Q39.50 58.38 37.50 59.50L37.50 59.50L37.50 54ZM48.38 69.88L48.38 65.13Q44.88 65.50 43.56 66.19Q42.25 66.88 42.25 68.13L42.25 68.13Q42.25 69.25 42.94 69.69Q43.63 70.13 45 70.13L45 70.13Q45.88 70.13 46.63 70.06Q47.38 70 48.38 69.88L48.38 69.88ZM57.88 74.75L57.88 53.50Q61 52.75 63.69 52.38Q66.38 52 68.88 52L68.88 52Q71.63 52 73.56 52.56Q75.50 53.13 76.63 54.38L76.63 54.38Q77.75 55.50 78.13 56.94Q78.50 58.38 78.50 61L78.50 61L78.50 74.75L71.50 74.75L71.50 61.25Q71.50 59.25 70.75 58.44Q70 57.63 68.13 57.63L68.13 57.63Q67.38 57.63 66.69 57.69Q66 57.75 64.88 58.13L64.88 58.13L64.88 74.75L57.88 74.75ZM81.25 78.50L81.25 78.50Q83.13 79.50 85 79.94Q86.88 80.38 88.75 80.38L88.75 80.38Q92.25 80.38 93.81 78.88Q95.38 77.38 95.38 74.13L95.38 74.13L95.38 74Q94.25 74.50 93.19 74.69Q92.13 74.88 90.75 74.88L90.75 74.88Q86.13 74.88 83.44 72.06Q80.75 69.25 80.75 64.50L80.75 64.50Q80.75 58.50 84.88 55.25Q89 52 96.75 52L96.75 52Q99 52 101.19 52.25Q103.38 52.50 105.88 53L105.88 53L103.50 58Q102.13 57.75 102.56 57.88Q103 58 101.88 57.88L101.88 57.88L101.88 58.63L102 61.50L102 65.38Q102.13 66.13 102.13 66.81Q102.13 67.50 102.13 68.25L102.13 68.25L102.13 70.13Q102.13 74.63 101.69 77.06Q101.25 79.50 100.13 81.25L100.13 81.25Q98.50 83.88 95.69 85.13Q92.88 86.38 88.88 86.38L88.88 86.38Q86.75 86.38 84.94 86.06Q83.13 85.75 81.25 85L81.25 85L81.25 78.50ZM95.13 57.63L95.13 57.63L94.50 57.63Q93.38 57.63 92.31 57.88Q91.25 58.13 90.38 58.63L90.38 58.63Q89.13 59.38 88.50 60.63Q87.88 61.88 87.88 63.75L87.88 63.75Q87.88 66.38 89.13 67.81Q90.38 69.25 92.63 69.25L92.63 69.25Q93.38 69.25 94 69.13Q94.63 69 95.38 68.88L95.38 68.88L95.38 66.38Q95.38 65.75 95.31 65.13Q95.25 64.50 95.25 63.75L95.25 63.75L95.25 60.50L95.13 58.13L95.13 57.63ZM116.75 51.88L116.75 51.88Q122 51.88 125 54.94Q128 58 128 63.38L128 63.38Q128 68.88 124.88 72.13Q121.75 75.38 116.50 75.38L116.50 75.38Q111.25 75.38 108.19 72.25Q105.13 69.13 105.13 63.88L105.13 63.88Q105.13 58.25 108.25 55.06Q111.38 51.88 116.75 51.88L116.75 51.88ZM116.63 69.63L116.63 69.63Q118.63 69.63 119.75 68.06Q120.88 66.50 120.88 63.63L120.88 63.63Q120.88 60.75 119.75 59.13Q118.63 57.50 116.63 57.50L116.63 57.50Q114.50 57.50 113.38 59.13Q112.25 60.75 112.25 63.63L112.25 63.63Q112.25 66.50 113.38 68.06Q114.50 69.63 116.63 69.63Z"/></svg>