<svg xmlns="http://www.w3.org/2000/svg" xmlns:xlink="http://www.w3.org/1999/xlink" width="128" height="128"><path fill="#000000" d="M8.50 83.38L3.75 81.13L3.75 86.38L8 90.63L9.63 90.63L8.25 87.88L8.50 83.38ZM28.63 70.75L28.63 70.75L20.88 69.75L9.25 72.75L4.75 79.75L9.25 82.38L28 74.50L18.63 74.50L28.63 70.75ZM11.25 79.25L11.25 79.75L8.75 78.63L5.88 79.63L5.75 79.25L8.75 77.25L11.25 79.25ZM24.13 68.25L32.75 69.38L33.13 66L24.13 68.25ZM25.50 73.25L32.50 73.25L32.75 70.38L25.50 73.25ZM31.63 80.25L32.25 74.38L9.25 84.25L21.25 80.25L31.63 80.25ZM36.13 48.25L28.50 60.25L34.63 55.75L36.13 48.25ZM49.75 115.75L49.25 123.50L52.50 120L52.75 115.50L50.38 110.75L44.88 113L48.88 112.50L50.63 113.25L46.25 115.75L46.25 116.88L47.75 115.75L49.75 115.75ZM54.50 117.88L58.75 118.50L59.25 103.75L57.25 104.63L57.63 111.50L53.88 114.75L54.50 117.88ZM51 98.50L52.63 94.63L59.13 94.63L58.75 99.38L54.75 105.13L46.13 101.75L46.13 98.50L51 98.50ZM41.38 99L41.38 106.13L44.63 102.25L44.75 98.25L43 93.75L37 96.13L41.50 94.63L43 96.25L38.50 98.88L37.50 100.63L40.13 99L41.38 99ZM38.63 83.25L32.75 81.75L37 80.75L56 92.75L51 92.75L38.63 83.25ZM61.25 97.50L61.25 123.88L71 112.88L63.38 98.13L61.25 97.50ZM93 65.75L66.75 73.25L80.50 72.50L93 65.75ZM68.63 77.50L76.88 78L73.75 76.25L68.63 77.50ZM63.75 77.13L33.50 79.63L35 76.63L81.63 73.88L75.88 75.75L74.38 75L63.75 77.13ZM91.13 98.13L55.75 79.25L64 78.38L68.75 78.75L87.13 89.88L95.13 100.25L96.50 105L91.13 98.13ZM85.88 118.63L86.25 122.75L89.88 112L90.38 99.63L69.25 88.38L74.63 91.88L85.88 118.63ZM73 113.75L71.75 126.75L80.75 110.50L72.25 91.75L52.88 79.25L39.50 80.63L65.75 97.13L73 113.75ZM57.88 60.50L34.88 66.25L34.13 75.38L43.63 74.75L60.75 66.25L57.88 60.50ZM61.88 67.25L47.38 74.63L59.75 73.88L85.75 66.38L103.25 55L61.88 67.25ZM121.88 24.88L59.50 59.88L62.25 65.75L78.88 60.63L111.75 38.25L121.88 24.88ZM106.25 43.63L83.75 59.25L96.75 55.25L114.25 41.38L106.25 43.63ZM92 10.63L60.63 40.25L77.75 31.88L89.88 18.13L92 10.63ZM83.13 16.88L88.13 0.63L38.88 40.38L34.38 62.75L83.13 16.88ZM57 43.75L34.75 64.75L58 59.25L109.38 30.63L124.75 10.75L57 43.75Z"/></svg>