<svg xmlns="http://www.w3.org/2000/svg" xmlns:xlink="http://www.w3.org/1999/xlink" width="128" height="128"><path fill="#ffffff" d="M19.63 26L19.63 26L27.75 116.50L64 126.50L100.25 116.50L108.38 26L19.63 26ZM88.88 76.50L88.88 76.50L86.50 98.38L86.50 100.25L64 106.63L41.25 100.38L39.75 83L50.88 83L51.63 91.75L64 95L64 95.13L64 95L76.38 91.50L77.75 77L51.75 77L51.63 74.63L51.13 69L50.75 66L78.75 66L79.75 55L37.25 55L37 52.38L36.50 46.38L36.25 43L91.88 43L91.63 46.38L88.88 76.50ZM89 18L89 14.38L81.88 6L89 6L89 1L73 1L73 5.38L81.38 13L73 13L73 18L89 18ZM70 18L70 14.38L63.25 6L70 6L70 1L55 1L55 5.38L62.75 13L55 13L55 18L70 18ZM52 18L52 13L44 13L44 6L52 6L52 1L38 1L38 18L52 18Z"/></svg>