<svg xmlns="http://www.w3.org/2000/svg" xmlns:xlink="http://www.w3.org/1999/xlink" width="128" height="128"><path fill="#000000" d="M12 24.38L12 24.38Q7.63 24.38 4.50 27.50Q1.38 30.63 1.38 35L1.38 35L1.38 93Q1.38 97.38 4.50 100.50Q7.63 103.63 12 103.63L12 103.63L116 103.63Q120.38 103.63 123.50 100.50Q126.63 97.38 126.63 93L126.63 93L126.63 35Q126.63 30.63 123.50 27.50Q120.38 24.38 116 24.38L116 24.38L12 24.38ZM12 33.88L12 33.88L116 33.88Q116.50 33.88 116.81 34.19Q117.13 34.50 117.13 35L117.13 35L117.13 93Q117.13 93.50 116.81 93.81Q116.50 94.13 116 94.13L116 94.13L12 94.13Q11.50 94.13 11.19 93.81Q10.88 93.50 10.88 93L10.88 93L10.88 35Q10.88 34.50 11.19 34.19Q11.50 33.88 12 33.88L12 33.88ZM20.75 84.13L20.75 84.13L20.75 43.88L32.38 43.88L44.13 58.63L55.75 43.88L67.50 43.88L67.50 84.13L55.75 84.13L55.75 61L44.13 75.88L32.38 61L32.38 84.13L20.75 84.13ZM111.38 64.63L93.88 84.13L76.25 64.63L88 64.63L88 43.88L99.63 43.88L99.63 64.63L111.38 64.63Z"/></svg>