<svg xmlns="http://www.w3.org/2000/svg" xmlns:xlink="http://www.w3.org/1999/xlink" width="128" height="128"><path fill="#ffffff" d="M0.88 51.75L0.88 51.75L5.75 51.75L5.75 69.75L14.88 69.75L14.88 74.25L0.88 74.25L0.88 51.75ZM17.13 74.25L17.13 59L21.88 59L21.88 74.25L17.13 74.25ZM19.50 51.38L19.50 51.38Q20.63 51.38 21.44 52.19Q22.25 53 22.25 54.13L22.25 54.13Q22.25 55.25 21.44 56.06Q20.63 56.88 19.50 56.88L19.50 56.88Q18.38 56.88 17.56 56.06Q16.75 55.25 16.75 54.13L16.75 54.13Q16.75 53 17.56 52.19Q18.38 51.38 19.50 51.38ZM41.75 51.75L41.75 51.75L46.38 51.75L46.38 65.25L51.75 59L57.63 59L51.38 66L57.50 74.25L51.50 74.25L46.50 66.75L46.38 66.75L46.38 74.25L41.75 74.25L41.75 51.75ZM24.50 74.25L24.50 59L29 59L29 61.13L29 61.13Q29.75 60 30.88 59.31Q32 58.63 33.38 58.63L33.38 58.63Q33.38 58.63 33.44 58.63Q33.50 58.63 33.50 58.63L33.50 58.63Q37.13 58.63 38.19 60.69Q39.25 62.75 39.25 65.88L39.25 65.88L39.25 74.25L34.50 74.25L34.50 66.88Q34.50 65.50 34.19 64.19Q33.88 62.88 32.13 62.88L32.13 62.88Q30.25 62.88 29.75 64.06Q29.25 65.25 29.25 66.75L29.25 66.75L29.25 74.25L24.50 74.25ZM61.38 64.88L67.63 64.88Q67.63 64.88 67.63 64.81Q67.63 64.75 67.63 64.75L67.63 64.75Q67.63 63.63 66.81 62.81Q66 62 64.75 62L64.75 62Q64.75 62 64.75 62Q64.75 62 64.75 62L64.75 62Q64.63 61.88 64.56 61.88Q64.50 61.88 64.50 61.88L64.50 61.88Q63.25 61.88 62.38 62.75Q61.50 63.63 61.38 64.88L61.38 64.88ZM68.25 69.13L71.63 71.63Q70.50 73 68.81 73.81Q67.13 74.63 65.25 74.63L65.25 74.63Q65.13 74.63 65.13 74.63Q65.13 74.63 65.13 74.63L65.13 74.63Q61.63 74.63 59.13 72.44Q56.63 70.25 56.63 66.50L56.63 66.50Q56.63 62.88 59.13 60.69Q61.63 58.50 65.13 58.50L65.13 58.50Q68.50 58.50 70.44 60.69Q72.38 62.88 72.38 66.50L72.38 66.50L72.38 68L61.38 68Q61.50 69.38 62.50 70.19Q63.50 71 64.88 71L64.88 71Q64.88 71 64.88 71Q64.88 71 64.88 71L64.88 71Q66 71 66.88 70.50Q67.75 70 68.25 69.13L68.25 69.13ZM82.25 62.63L82.25 62.63Q82.25 62.63 82.19 62.63Q82.13 62.63 82.13 62.63L82.13 62.63Q80.50 62.63 79.38 63.81Q78.25 65 78.25 66.63L78.25 66.63Q78.25 68.13 79.38 69.31Q80.50 70.50 82.13 70.50L82.13 70.50Q83.75 70.50 84.88 69.31Q86 68.13 86 66.63L86 66.63Q86 66.50 86 66.44Q86 66.38 86 66.25L86 66.25Q86 64.75 84.94 63.69Q83.88 62.63 82.38 62.63L82.38 62.63Q82.38 62.63 82.31 62.63Q82.25 62.63 82.25 62.63L82.25 62.63ZM90.38 51.75L90.38 74.25L86 74.25L86 72.25Q85.13 73.38 83.94 74Q82.75 74.63 81.25 74.63L81.25 74.63Q77.88 74.63 75.81 72.44Q73.75 70.25 73.75 66.75L73.75 66.75Q73.75 63.50 75.63 61Q77.50 58.50 80.75 58.50L80.75 58.50Q80.88 58.50 81 58.50Q81.13 58.50 81.25 58.50L81.25 58.50Q82.50 58.50 83.63 59.06Q84.75 59.63 85.63 60.50L85.63 60.50L85.63 60.50L85.63 51.75L90.38 51.75ZM124.63 47L124.63 47L97.38 47Q97.38 47 97.38 47Q97.38 47 97.38 47L97.38 47Q96.38 47 95.69 47.69Q95 48.38 95 49.38L95 49.38Q95 49.38 95 49.38Q95 49.38 95 49.38L95 49.38L95 76.75Q95 77.63 95.69 78.31Q96.38 79 97.38 79L97.38 79Q97.38 79 97.38 79Q97.38 79 97.38 79L97.38 79L124.63 79Q124.63 79 124.63 79Q124.63 79 124.63 79L124.63 79Q125.63 79 126.31 78.31Q127 77.63 127 76.75L127 76.75L127 49.38Q127 49.38 127 49.38Q127 49.38 127 49.38L127 49.38Q127 48.38 126.31 47.69Q125.63 47 124.63 47L124.63 47Q124.63 47 124.63 47Q124.63 47 124.63 47L124.63 47ZM104.50 59L104.50 74.25L99.75 74.25L99.75 59L104.50 59ZM102.13 56.88L102.13 56.88Q101 56.88 100.19 56.13Q99.38 55.38 99.38 54.13L99.38 54.13Q99.38 53 100.19 52.19Q101 51.38 102.13 51.38L102.13 51.38Q103.25 51.38 104.06 52.19Q104.88 53 104.88 54.13L104.88 54.13Q104.88 55.38 104.06 56.13Q103.25 56.88 102.13 56.88ZM122.25 65.88L122.25 74.25L117.50 74.25L117.50 66.88Q117.50 65.50 117.19 64.19Q116.88 62.88 115 62.88L115 62.88Q113.25 62.88 112.75 64.06Q112.25 65.25 112.25 66.75L112.25 66.75L112.25 74.38L107.50 74.38L107.50 59L112 59L112 61.13L112 61.13Q112.75 60 113.88 59.31Q115 58.63 116.38 58.63L116.38 58.63Q116.38 58.63 116.44 58.63Q116.50 58.63 116.50 58.63L116.50 58.63Q120.13 58.63 121.19 60.75Q122.25 62.88 122.25 65.88L122.25 65.88Z"/></svg>