<svg xmlns="http://www.w3.org/2000/svg" xmlns:xlink="http://www.w3.org/1999/xlink" width="128" height="128"><path fill="#000000" d="M116 3L116 3L12 3Q12 3 11.94 3Q11.88 3 11.88 3L11.88 3Q8.25 3 5.63 5.56Q3 8.13 3 11.75L3 11.75L3 116.25Q3 119.88 5.63 122.44Q8.25 125 11.88 125L11.88 125Q11.88 125 11.94 125Q12 125 12 125L12 125L116 125Q116 125 116 125Q116 125 116.13 125L116.13 125Q119.75 125 122.38 122.44Q125 119.88 125 116.25L125 116.25L125 11.75Q124.88 8.13 122.31 5.56Q119.75 3 116.13 3L116.13 3Q116 3 116 3Q116 3 116 3L116 3ZM39.13 48.75L39.13 107L21 107L21 48.75L39.13 48.75ZM30.13 40.75L30.13 40.75Q30.13 40.75 30.13 40.75Q30.13 40.75 30.13 40.75L30.13 40.75Q25.75 40.75 22.69 37.69Q19.63 34.63 19.63 30.25L19.63 30.25Q19.63 26 22.69 22.88Q25.75 19.75 30.13 19.75L30.13 19.75Q34.50 19.75 37.56 22.88Q40.63 26 40.63 30.25L40.63 30.25Q40.63 34.63 37.56 37.69Q34.50 40.75 30.13 40.75L30.13 40.75Q30.13 40.75 30.13 40.75Q30.13 40.75 30.13 40.75L30.13 40.75ZM107 75L107 107L88.88 107L88.88 78.63Q88.88 73.63 87.69 68.44Q86.50 63.25 79.50 63.25L79.50 63.25Q72.50 63.25 70.56 67.88Q68.63 72.50 68.63 78.25L68.63 78.25L68.63 107L50.50 107L50.50 48.75L67.88 48.75L67.88 56.75L68.13 56.75Q70 53.25 74.31 50.31Q78.63 47.38 85.25 47.38L85.25 47.38Q99 47.25 103 55.25Q107 63.25 107 75L107 75Z"/></svg>