<svg xmlns="http://www.w3.org/2000/svg" xmlns:xlink="http://www.w3.org/1999/xlink" width="128" height="128"><path fill="#000000" d="M25.13 17.75L25.13 17.75L38.50 17.75Q34.88 21.50 32.69 26.13Q30.50 30.75 29.75 36.13L29.75 36.13L24.63 36Q20.50 35.88 17.69 33.19Q14.88 30.50 14.88 26.75L14.88 26.75Q14.88 22.88 17.88 20.31Q20.88 17.75 25.13 17.75ZM65.25 94.88L65.25 94.88Q66 96.50 69.13 102.88Q72.25 109.25 72.25 109.25L72.25 109.25L55.13 109.25Q55.13 109.25 58 103.19Q60.88 97.13 61.75 94.88L61.75 94.88Q62.50 93.25 63.50 93.19Q64.50 93.13 65.25 94.88L65.25 94.88ZM114.88 47.88L114.88 47.88Q114.13 51.13 111.06 53.25Q108 55.38 104 55.38L104 55.38L99 55.38Q98.75 55.50 98.63 55.63Q98.50 55.75 98.63 56L98.63 56L98.63 109.25L89.50 109.25L72 73.13Q73.38 71.63 74.13 69.63Q74.88 67.63 74.88 65.50L74.88 65.50Q74.88 61.88 72.94 58.94Q71 56 67.88 54.75L67.88 54.75L67.88 49.75Q67.88 48.25 66.75 47.25Q65.63 46.25 64 46.25L64 46.25L63.75 46.25Q62.25 46.25 61.06 47.38Q59.88 48.50 59.88 50.13L59.88 50.13L59.88 54.75Q56.50 55.88 54.19 58.81Q51.88 61.75 51.88 65.75L51.88 65.75Q51.88 68 52.75 70Q53.63 72 55 73.50L55 73.50L38 109.38L23.13 109.38Q18.88 109.38 15.88 106.38Q12.88 103.38 12.88 99.13L12.88 99.13L12.88 29.75Q12.88 29.75 12.88 29.50Q12.88 29.25 13 29.75L13 29.75Q13.63 33.25 16.44 35.75Q19.25 38.25 23.13 38.25L23.13 38.25L100 38.25Q99.88 38.25 107.25 39Q114.63 39.75 114.88 47.88ZM63.25 59.75L63.25 59.75Q65.63 59.75 67.31 61.50Q69 63.25 68.88 65.63L68.88 65.63Q68.88 67.88 67.19 69.56Q65.50 71.25 63.13 71.25L63.13 71.25Q60.75 71.25 59.13 69.56Q57.50 67.88 57.50 65.50L57.50 65.50Q57.50 64.38 57.94 63.38Q58.38 62.38 59.25 61.50L59.25 61.50Q60.13 60.63 61.13 60.19Q62.13 59.75 63.25 59.75L63.25 59.75ZM65.63 56.50L65.63 56.50L65.63 50.50Q65.63 50 65.38 49.56Q65.13 49.13 64.75 48.88L64.75 48.88Q64 48.50 63.31 48.69Q62.63 48.88 62.25 49.63L62.25 49.63Q62 49.88 61.94 50.06Q61.88 50.25 62 50.63L62 50.63L62 56.38Q58.25 57 56 60.06Q53.75 63.13 54.25 67L54.25 67L54.25 67.13Q54.63 68.88 55.56 70.44Q56.50 72 58 73.13L58 73.13L36.75 118.75Q36.13 120 36.19 121.38Q36.25 122.75 37.13 123.88L37.13 123.88Q38.25 125.63 40.31 126Q42.38 126.38 44.13 125.25L44.13 125.25Q44.75 124.88 45.19 124.31Q45.63 123.75 45.88 123.13L45.88 123.13L60 92.50Q60.63 91 62.25 90.44Q63.88 89.88 65.38 90.63L65.38 90.63Q66 90.88 66.50 91.38Q67 91.88 67.25 92.50L67.25 92.50L81.75 122.75Q82.75 124.63 84.69 125.31Q86.63 126 88.50 125.13L88.50 125.13Q90.38 124.25 91.06 122.25Q91.75 120.25 90.75 118.38L90.75 118.38L69 72.88Q72 70.50 72.44 66.63Q72.88 62.75 70.50 59.75L70.50 59.75Q69.63 58.63 68.38 57.81Q67.13 57 65.63 56.50L65.63 56.50ZM79.63 12.88L79.63 12.88L79.50 12.88L84.75 3.75Q85 3.38 84.88 2.94Q84.75 2.50 84.50 2.25L84.50 2.25Q84.13 2 83.75 2.13Q83.38 2.25 83.25 2.50L83.25 2.50L77.63 12Q71.13 9.13 63.94 9.13Q56.75 9.13 50.13 12L50.13 12L44.75 2.63Q44.50 2.38 44.25 2.19Q44 2 43.75 2L43.75 2Q43.38 2 43.13 2.13Q42.88 2.25 42.75 2.63L42.75 2.63Q42.50 2.88 42.50 3.19Q42.50 3.50 42.75 3.75L42.75 3.75L48.13 12.88Q41.50 16.63 37.31 22.63Q33.13 28.63 32.13 36L32.13 36L95.88 36Q94.75 28.63 90.50 22.63Q86.25 16.63 79.63 12.88L79.63 12.88ZM51.25 28L51.25 28L50.75 28.38Q50.38 28.75 49.88 29Q49.38 29.25 48.88 29.25L48.88 29.25L49 29.25Q47.88 29.25 47.06 28.44Q46.25 27.63 46.25 26.63L46.25 26.63L46.25 26.50Q46.25 26 46.50 25.50Q46.75 25 47.13 24.63L47.13 24.63Q47.75 23.75 48.88 23.63Q50 23.50 50.75 24.25L50.75 24.25Q51.75 24.88 51.88 26Q52 27.13 51.25 28ZM78.63 29L78.63 29Q77.50 29.13 76.69 28.31Q75.88 27.50 75.88 26.38L75.88 26.38L75.88 26.25Q75.88 25.75 76.13 25.25Q76.38 24.75 76.75 24.38L76.75 24.38Q77.50 23.63 78.56 23.63Q79.63 23.63 80.50 24.38L80.50 24.38Q80.88 24.75 81.06 25.25Q81.25 25.75 81.25 26.25L81.25 26.25Q81.25 27.50 80.50 28.25Q79.75 29 78.63 29L78.63 29ZM105.75 58.13L105.75 58L101.50 58Q101.38 58.13 101.25 58.25Q101.13 58.38 101.13 58.63L101.13 58.63L101.13 125.13Q101.13 125.38 101.25 125.50Q101.38 125.63 101.63 125.63L101.63 125.63L106 125.63Q109.88 125.63 112.56 122.88Q115.25 120.13 115.25 116.38L115.25 116.38Q115.25 116.38 115.13 106.88L115.13 106.88Q115.13 97.25 115.13 85.56Q115.13 73.88 115.13 63.88L115.13 63.88Q115.13 53.88 115.25 53L115.25 53Q115.25 51.25 114.94 51.81Q114.63 52.38 114.50 52.75L114.50 52.75Q113.38 55.25 111.06 56.69Q108.75 58.13 105.88 58.13L105.88 58.13L105.75 58.13ZM66.50 65.50L66.50 65.50Q66.50 66.88 65.56 67.81Q64.63 68.75 63.25 68.75L63.25 68.75Q62 68.75 61.06 67.81Q60.13 66.88 60.13 65.50L60.13 65.50Q60.13 64.13 61.06 63.19Q62 62.25 63.25 62.25L63.25 62.25Q64.63 62.25 65.56 63.19Q66.50 64.13 66.50 65.50Z"/></svg>