<svg xmlns="http://www.w3.org/2000/svg" xmlns:xlink="http://www.w3.org/1999/xlink" width="128" height="128"><path fill="#ffffff" d="M7.63 50L7.63 50Q8.63 50 9.63 50.44Q10.63 50.88 11.25 51.75L11.25 51.75L11.25 50.25L13.75 50.25L13.75 61.88L12.13 61.88Q11.75 61.88 11.50 61.69Q11.25 61.50 11.25 61.13L11.25 61.13L11.25 60.25Q10.63 61.13 9.69 61.63Q8.75 62.13 7.63 62.13L7.63 62.13Q5.25 62 3.63 60.31Q2 58.63 2 56.25L2 56.25L2 56.13Q1.88 53.63 3.50 51.88Q5.13 50.13 7.63 50L7.63 50ZM8.25 52.25L8 52.25Q6.63 52.25 5.56 53.31Q4.50 54.38 4.63 55.75L4.63 55.75L4.63 56Q4.50 57.38 5.44 58.50Q6.38 59.63 7.75 59.75L7.75 59.75Q9.25 59.88 10.31 58.88Q11.38 57.88 11.50 56.50L11.50 56.50L11.50 56Q11.63 54.63 10.69 53.56Q9.75 52.50 8.25 52.25L8.25 52.25ZM16.63 61L16.63 50.25L19.13 50.25L19.13 51.75Q19.75 50.75 20.63 50.31Q21.50 49.88 22.63 49.88L22.63 49.88Q24.63 49.88 25.81 51.19Q27 52.50 27 54.75L27 54.75L27 61.75L25.25 61.75Q25 61.75 24.75 61.50Q24.50 61.25 24.50 60.88L24.50 60.88L24.50 55.25Q24.50 53.88 23.88 53.06Q23.25 52.25 22.13 52.25L22.13 52.25Q20.88 52.25 20 53.25Q19.13 54.25 19.13 56.13L19.13 56.13L19.13 61.75L17.38 61.75Q17.13 61.75 16.88 61.50Q16.63 61.25 16.63 61L16.63 61ZM34.63 49.88L34.63 49.88Q35.63 49.88 36.63 50.31Q37.63 50.75 38.25 51.63L38.25 51.63L38.25 44.25L40.75 44.25L40.75 61.63L39.25 61.63Q38.88 61.63 38.63 61.38Q38.38 61.13 38.38 60.75L38.38 60.75L38.38 60Q37.75 60.88 36.75 61.31Q35.75 61.75 34.75 61.75L34.75 61.75Q32.25 61.75 30.63 60Q29 58.25 29.25 55.88L29.25 55.88L29.25 55.75Q29 53.50 30.63 51.75Q32.25 50 34.63 49.88ZM35.25 52.25L35.25 52.25Q33.75 52.25 32.75 53.25Q31.75 54.25 31.75 55.75L31.75 55.75L31.75 55.88Q31.63 57.38 32.63 58.44Q33.63 59.50 35 59.63L35 59.63Q36.38 59.75 37.50 58.81Q38.63 57.88 38.75 56.38L38.75 56.38L38.75 55.88Q38.75 54.50 37.81 53.44Q36.88 52.38 35.50 52.25L35.50 52.25L35.25 52.25ZM43.75 50.13L43.75 50.13L46.25 50.13L46.25 52.25Q46.63 51.25 47.50 50.63Q48.38 50 49.25 50L49.25 50Q49.50 50 49.81 50Q50.13 50 50.25 50.13L50.25 50.13L50.25 52.75Q50 52.63 49.69 52.56Q49.38 52.50 49 52.50L49 52.50Q48 52.50 47.13 53.38Q46.25 54.25 46.25 56L46.25 56L46.25 61.63L44.38 61.63Q44.13 61.63 43.88 61.38Q43.63 61.13 43.63 60.75L43.63 60.75L43.75 50.13ZM57.25 62L57.25 62Q54.75 62 53 60.25Q51.25 58.50 51.25 56L51.25 56Q51.25 53.50 53.06 51.81Q54.88 50.13 57.25 50.13L57.25 50.13Q59.75 50.13 61.50 51.88Q63.25 53.63 63.25 56.13L63.25 56.13Q63.25 58.50 61.50 60.25Q59.75 62 57.25 62L57.25 62ZM57 59.63L57.25 59.63Q58.63 59.63 59.69 58.63Q60.75 57.63 60.75 56.13L60.75 56.13L60.75 56Q60.75 54.63 59.69 53.56Q58.63 52.50 57.25 52.50L57.25 52.50Q55.75 52.50 54.75 53.56Q53.75 54.63 53.75 56L53.75 56Q53.63 57.38 54.63 58.44Q55.63 59.50 57 59.63L57 59.63ZM66.63 47.75L66.63 47.75Q65.88 47.75 65.38 47.19Q64.88 46.63 64.88 46L64.88 46Q64.88 45.38 65.38 44.81Q65.88 44.25 66.63 44.25L66.63 44.25Q67.25 44.25 67.75 44.81Q68.25 45.38 68.25 46L68.25 46Q68.25 46.63 67.75 47.19Q67.25 47.75 66.63 47.75ZM65.25 60.88L65.25 50.25L67.75 50.25L67.75 61.75L66.13 61.75Q66 61.75 65.81 61.69Q65.63 61.63 65.50 61.50L65.50 61.50Q65.38 61.38 65.31 61.19Q65.25 61 65.25 60.88L65.25 60.88ZM75.50 50L75.50 50Q76.63 50 77.63 50.44Q78.63 50.88 79.25 51.75L79.25 51.75L79.25 44.38L81.75 44.38L81.75 61.75L80 61.75Q79.75 61.75 79.50 61.50Q79.25 61.25 79.25 60.88L79.25 60.88L79.25 60.13Q78.50 60.88 77.56 61.38Q76.63 61.88 75.50 61.88L75.50 61.88Q73.13 61.88 71.50 60.13Q69.88 58.38 69.88 56L69.88 56L69.88 55.88Q69.88 53.50 71.44 51.81Q73 50.13 75.50 50L75.50 50Q75.38 49.88 75.38 49.88Q75.38 49.88 75.50 50ZM76.25 52.25L75.88 52.25Q74.50 52.25 73.50 53.25Q72.50 54.25 72.50 55.75L72.50 55.75L72.50 55.88Q72.38 57.38 73.31 58.44Q74.25 59.50 75.75 59.63L75.75 59.63Q77.13 59.75 78.25 58.81Q79.38 57.88 79.38 56.38L79.38 56.38L79.38 55.88Q79.50 54.50 78.56 53.44Q77.63 52.38 76.25 52.25L76.25 52.25ZM29.75 79.75L29.75 79.75L29.75 74.13L27.38 74.13L27.38 71.75L29.75 71.75L29.75 68.63L32.38 68.63L32.38 71.75L35.75 71.75L35.75 74.13L32.38 74.13L32.38 79.25Q32.38 80.38 32.88 80.81Q33.38 81.25 34.38 81.25L34.38 81.25Q34.75 81.25 35.06 81.19Q35.38 81.13 35.75 81.13L35.75 81.13L35.75 83.38Q35.38 83.50 34.88 83.63Q34.38 83.75 33.88 83.75L33.88 83.75Q32.38 83.88 31.19 82.94Q30 82 29.88 80.50L29.88 80.50Q29.88 80.25 29.81 80.06Q29.75 79.88 29.75 79.75L29.75 79.75ZM69.50 77.63L69.50 77.63Q69.50 75 71.25 73.25Q73 71.50 75.63 71.50L75.63 71.50Q78.13 71.50 79.94 73.25Q81.75 75 81.75 77.63L81.75 77.63Q81.75 80.13 79.94 81.94Q78.13 83.75 75.63 83.75L75.63 83.75Q73.13 83.75 71.31 82Q69.50 80.25 69.50 77.75L69.50 77.75L69.50 77.63ZM79.13 77.75L79.13 77.63Q79 76.13 77.94 75.06Q76.88 74 75.38 74.13L75.38 74.13Q73.88 74.13 72.88 75.19Q71.88 76.25 71.88 77.75L71.88 77.75Q72 79.25 73.06 80.31Q74.13 81.38 75.63 81.25L75.63 81.25Q77 81.25 78.06 80.25Q79.13 79.25 79.13 77.75L79.13 77.75ZM19.75 79.88L19.75 79.88Q20 80.75 20.69 81.25Q21.38 81.75 22.25 81.63L22.25 81.63Q23 81.63 23.56 81.25Q24.13 80.88 24.13 80.38L24.13 80.38Q24.13 79.88 23.69 79.50Q23.25 79.13 22.38 78.88L22.38 78.88L20.50 78.38Q19.25 78.13 18.38 77.13Q17.50 76.13 17.50 74.88L17.50 74.88Q17.50 73.38 18.69 72.50Q19.88 71.63 21.75 71.63L21.75 71.63Q23.75 71.63 24.94 72.56Q26.13 73.50 26.25 75.13L26.25 75.13L23.75 75.13Q23.63 74.38 23.13 74Q22.63 73.63 21.88 73.75L21.88 73.75Q21.13 73.75 20.69 74Q20.25 74.25 20.25 74.88L20.25 74.88Q20.25 75.38 20.63 75.75Q21 76.13 21.75 76.25L21.75 76.25L23.75 76.75Q25.38 77.13 26.13 78.06Q26.88 79 26.88 80.25L26.88 80.25Q26.88 82 25.63 82.88Q24.38 83.75 22.25 83.75L22.25 83.75Q21.38 83.75 20.44 83.50Q19.50 83.25 18.75 82.63L18.75 82.63Q18.13 82.13 17.69 81.44Q17.25 80.75 17.25 79.88L17.25 79.88L19.75 79.88ZM45.25 81.75L45.25 81.75Q44.63 82.75 43.75 83.19Q42.88 83.63 41.75 83.63L41.75 83.63Q39.75 83.63 38.63 82.31Q37.50 81 37.50 78.75L37.50 78.75L37.50 71.75L40.13 71.75L40.13 78.25Q40.13 79.63 40.69 80.44Q41.25 81.25 42.38 81.25L42.38 81.25Q43.63 81.25 44.44 80.25Q45.25 79.25 45.25 77.38L45.25 77.38L45.25 71.75L47.75 71.75L47.75 83.25L45.25 83.25L45.25 81.75ZM59.25 83.38L59.25 81.75Q58.50 82.63 57.56 83.13Q56.63 83.63 55.63 83.63L55.63 83.63Q53.25 83.50 51.56 81.81Q49.88 80.13 50 77.75L50 77.75L50 77.63Q49.88 75.25 51.50 73.50Q53.13 71.75 55.38 71.63L55.38 71.63L55.63 71.63Q56.63 71.63 57.63 72.06Q58.63 72.50 59.25 73.38L59.25 73.38L59.25 66.13L61.75 66.13L61.75 83.38L59.25 83.38ZM53.50 80.25L53.50 80.25Q54 80.88 54.63 81.13Q55.25 81.38 56 81.38L56 81.38Q56.63 81.38 57.31 81.13Q58 80.88 58.50 80.25L58.50 80.25Q59.50 79.13 59.50 77.63Q59.50 76.13 58.50 75L58.50 75Q58 74.50 57.38 74.19Q56.75 73.88 56 73.88L56 73.88Q55.38 73.88 54.69 74.13Q54 74.38 53.50 75L53.50 75Q52.50 76.13 52.50 77.63Q52.50 79.13 53.50 80.25ZM65.88 65.88L65.88 65.88Q66.63 66 67.06 66.50Q67.50 67 67.50 67.75L67.50 67.75Q67.38 68.25 67 68.75Q66.63 69.25 65.88 69.25L65.88 69.25Q65.50 69.25 65.06 69.06Q64.63 68.88 64.38 68.50L64.38 68.50Q64.13 68.13 64.13 67.63Q64.13 67.13 64.38 66.75L64.38 66.75Q64.75 66.38 65.13 66.13Q65.50 65.88 65.88 65.88L65.88 65.88ZM64.75 71.75L67.25 71.75L67.25 83.38L64.75 83.38L64.75 71.75ZM97.25 49.25L97.25 49.25L101.63 49.25Q100.38 50.50 99.69 51.94Q99 53.38 98.75 55.13L98.75 55.13L97.13 55.13Q95.75 55.13 94.88 54.19Q94 53.25 94 52.13L94 52.13Q94.13 50.88 95.06 50.06Q96 49.25 97.25 49.25ZM110.13 73.75L110.13 73.75Q110.38 74.38 111.31 76.38Q112.25 78.38 112.25 78.38L112.25 78.38L106.88 78.38Q106.88 78.38 107.81 76.44Q108.75 74.50 109 73.75L109 73.75Q109.25 73.25 109.56 73.25Q109.88 73.25 110.13 73.75L110.13 73.75ZM125.88 58.88L125.88 58.88Q125.63 60 124.63 60.63Q123.63 61.25 122.38 61.25L122.38 61.25L120.75 61.25Q120.75 61.25 120.69 61.31Q120.63 61.38 120.75 61.50L120.75 61.50L120.75 78.38L117.75 78.38L112.25 66.88Q112.63 66.50 112.88 65.81Q113.13 65.13 113.13 64.50L113.13 64.50Q113.13 63.38 112.50 62.44Q111.88 61.50 110.88 61.13L110.88 61.13L110.88 59.50Q110.88 59 110.50 58.63Q110.13 58.25 109.75 58.25L109.75 58.25L109.63 58.25Q109.13 58.25 108.75 58.63Q108.38 59 108.38 59.50L108.38 59.50L108.38 61Q107.25 61.38 106.56 62.31Q105.88 63.25 105.88 64.50L105.88 64.50Q105.88 65.25 106.19 65.88Q106.50 66.50 106.88 67L106.88 67L101.50 78.38L96.75 78.38Q95.50 78.38 94.50 77.44Q93.50 76.50 93.50 75.13L93.50 75.13L93.50 53.13Q93.50 53.13 93.50 53.06Q93.50 53 93.50 53.13L93.50 53.13Q93.75 54.25 94.63 55Q95.50 55.75 96.75 55.75L96.75 55.75L121.25 55.75Q121.25 55.75 123.56 56Q125.88 56.25 125.88 58.88L125.88 58.88ZM109.50 62.75L109.50 62.75Q110.25 62.75 110.75 63.25Q111.25 63.75 111.25 64.50L111.25 64.50Q111.25 65.25 110.75 65.75Q110.25 66.25 109.50 66.25L109.50 66.25Q108.75 66.25 108.25 65.75Q107.75 65.25 107.75 64.50L107.75 64.50Q107.75 64.13 107.88 63.81Q108 63.50 108.25 63.25L108.25 63.25Q108.50 63 108.81 62.88Q109.13 62.75 109.50 62.75ZM110.25 61.63L110.25 61.63L110.25 59.75Q110.25 59.50 110.13 59.38Q110 59.25 109.88 59.25L109.88 59.25Q109.63 59 109.44 59.06Q109.25 59.13 109.13 59.38L109.13 59.38Q109 59.50 109 59.56Q109 59.63 109 59.75L109 59.75L109 61.63Q107.75 61.75 107.06 62.75Q106.38 63.75 106.50 65L106.50 65Q106.63 65.63 106.88 66.13Q107.13 66.63 107.75 66.88L107.75 66.88L101 81.38Q100.75 81.75 100.81 82.19Q100.88 82.63 101.13 83L101.13 83Q101.50 83.50 102.13 83.63Q102.75 83.75 103.25 83.38L103.25 83.38Q103.50 83.25 103.63 83.06Q103.75 82.88 103.88 82.75L103.88 82.75L108.38 73Q108.63 72.50 109.13 72.31Q109.63 72.13 110.13 72.38L110.13 72.38Q110.38 72.50 110.50 72.63Q110.63 72.75 110.75 73L110.75 73L115.25 82.63Q115.63 83.25 116.19 83.44Q116.75 83.63 117.38 83.25L117.38 83.25Q118 83 118.19 82.38Q118.38 81.75 118.13 81.25L118.13 81.25L111.13 66.75Q112.13 66 112.25 64.75Q112.38 63.50 111.63 62.50L111.63 62.50Q111.50 62.25 111.13 62Q110.75 61.75 110.25 61.63L110.25 61.63ZM114.75 47.75L114.75 47.75L116.38 44.88Q116.50 44.75 116.44 44.63Q116.38 44.50 116.25 44.38L116.25 44.38Q116.25 44.38 116.13 44.38Q116 44.38 115.88 44.50L115.88 44.50L114.13 47.50Q112 46.50 109.69 46.50Q107.38 46.50 105.38 47.50L105.38 47.50L103.75 44.50Q103.63 44.38 103.56 44.31Q103.50 44.25 103.38 44.25L103.38 44.25Q103.38 44.25 103.25 44.31Q103.13 44.38 103.13 44.50L103.13 44.50Q103 44.63 103 44.75Q103 44.88 103.13 44.88L103.13 44.88L104.75 47.75Q102.75 48.88 101.38 50.81Q100 52.75 99.75 55.13L99.75 55.13L120 55.13Q119.50 52.75 118.13 50.81Q116.75 48.88 114.75 47.75L114.75 47.75ZM105.63 52.50L105.63 52.50L105.50 52.63Q105.38 52.75 105.19 52.75Q105 52.75 104.88 52.75L104.88 52.75Q104.50 52.75 104.31 52.50Q104.13 52.25 104 52L104 52Q104 51.88 104.06 51.69Q104.13 51.50 104.25 51.38L104.25 51.38Q104.50 51.13 104.88 51.13Q105.25 51.13 105.50 51.25L105.50 51.25Q105.75 51.50 105.81 51.88Q105.88 52.25 105.63 52.50ZM114.38 52.88L114.38 52.88Q114 52.88 113.75 52.69Q113.50 52.50 113.50 52.13L113.50 52.13Q113.50 52 113.56 51.81Q113.63 51.63 113.75 51.50L113.75 51.50Q114 51.25 114.38 51.25Q114.75 51.25 115 51.50L115 51.50Q115.13 51.63 115.19 51.81Q115.25 52 115.25 52.13L115.25 52.13Q115.25 52.38 115 52.63Q114.75 52.88 114.38 52.88L114.38 52.88ZM123 62.13L123 62.13L121.75 62.13Q121.63 62.13 121.63 62.19Q121.63 62.25 121.63 62.25L121.63 62.25L121.63 83.50Q121.63 83.63 121.69 83.69Q121.75 83.75 121.75 83.75L121.75 83.75L123.25 83.75Q124.38 83.75 125.25 82.88Q126.13 82 126.13 80.75L126.13 80.75L126.13 60.63Q126.13 60 126.06 60.19Q126 60.38 125.88 60.50L125.88 60.50Q125.50 61.13 124.69 61.63Q123.88 62.13 123 62.13L123 62.13ZM110.50 64.50L110.50 64.50Q110.50 64.88 110.19 65.19Q109.88 65.50 109.50 65.50L109.50 65.50Q109.13 65.50 108.81 65.19Q108.50 64.88 108.50 64.50L108.50 64.50Q108.50 64.13 108.81 63.81Q109.13 63.50 109.50 63.50L109.50 63.50Q109.88 63.50 110.19 63.81Q110.50 64.13 110.50 64.50Z"/></svg>