<svg xmlns="http://www.w3.org/2000/svg" xmlns:xlink="http://www.w3.org/1999/xlink" width="128" height="128"><path fill="#000000" d="M81.13 102.13L81.13 102.13Q77.38 102.13 75.06 104.56Q72.75 107 72.75 110.75L72.75 110.75Q72.75 114.25 75.06 116.75Q77.38 119.25 81.13 119.25L81.13 119.25Q84.75 119.25 87.06 116.75Q89.38 114.25 89.38 110.75L89.38 110.75Q89.38 107 87.13 104.56Q84.88 102.13 81.13 102.13ZM81.13 116.75L81.13 116.75Q78.38 116.75 77.19 114.81Q76 112.88 76 110.75L76 110.75Q76 108.38 77.38 106.50Q78.75 104.63 81.13 104.63L81.13 104.63Q83.50 104.63 84.88 106.50Q86.25 108.38 86.25 110.75L86.25 110.75Q86.25 112.88 85 114.81Q83.75 116.75 81.13 116.75ZM65 101.25L65 101.25L65 102L61 102L61 103.75Q61 104.25 61.44 104.56Q61.88 104.88 62.38 104.88L62.38 104.88L65 104.88L65 118.88L66.63 118.88Q67.13 118.88 67.56 118.44Q68 118 68 117.63L68 117.63L68 105L71 105Q71.50 105 71.75 104.56Q72 104.13 72 103.63L72 103.63L72 102L68 102L68 100.88Q68 99.25 68.50 98.13Q69 97 70.88 97L70.88 97L71 97Q71.50 97.13 71.94 96.69Q72.38 96.25 72.38 95.75L72.38 95.75L72.50 94.75Q72 94.63 71.56 94.56Q71.13 94.50 70.50 94.50L70.50 94.50Q67.13 94.63 66.06 96.44Q65 98.25 65 101.25L65 101.25ZM32.13 102.25L32.13 102.25L32.13 102.25Q31.63 102.25 31.19 102.63Q30.75 103 30.63 103.38L30.63 103.38L26.38 116L26.25 116L22.25 103.50Q22 103 21.56 102.63Q21.13 102.25 20.75 102.25L20.75 102.25L20.75 102L18.63 102L24.25 117.50Q24.38 117.88 24.56 118.50Q24.75 119.13 24.75 119.38L24.75 119.38Q24.75 119.63 24 121.56Q23.25 123.50 21.25 123.50L21.25 123.50L21 123.50Q20.50 123.50 20.13 123.81Q19.75 124.13 19.75 124.75L19.75 124.75L19.63 125.75Q20 125.88 20.50 125.94Q21 126 21.75 126L21.75 126Q24.75 126 25.94 123.69Q27.13 121.38 28 119L28 119L34 102L32.13 102L32.13 102.25ZM12.88 105.75L12.88 105.75Q11 104.88 9.31 103.94Q7.63 103 7.63 101.13L7.63 101.13Q7.63 99.13 9.13 98.44Q10.63 97.75 12 97.75L12 97.75Q12.63 97.75 13.13 97.81Q13.63 97.88 14.25 97.88L14.25 97.88Q14.75 98 15.13 97.63Q15.50 97.25 15.63 96.75L15.63 96.75L15.75 95.75Q14.75 95.50 13.81 95.38Q12.88 95.25 12 95.25L12 95.25Q8.88 95.25 6.81 96.81Q4.75 98.38 4.75 101.38L4.75 101.38Q4.75 104 6.25 105.31Q7.75 106.63 9.63 107.50L9.63 107.50Q11.50 108.38 13.19 109.38Q14.88 110.38 14.88 112.63L14.88 112.63Q14.88 114.88 13.19 115.81Q11.50 116.75 9.88 116.75L9.88 116.75Q9 116.75 8.06 116.56Q7.13 116.38 6.38 116.25L6.38 116.25Q5.88 116.13 5.50 116.50Q5.13 116.88 5.13 117.50L5.13 117.50L5 118.25Q6.13 118.63 7.25 118.88Q8.38 119.13 9.50 119.13L9.50 119.13Q13 119.13 15.44 117.63Q17.88 116.13 17.88 112.38L17.88 112.38Q17.88 109.50 16.31 108.13Q14.75 106.75 12.88 105.75L12.88 105.75ZM54.25 102.13L54.25 102.13Q53.13 102.13 51.56 102.81Q50 103.50 49.25 105.25L49.25 105.25Q48.50 103.63 47.19 102.94Q45.88 102.25 44.50 102.25L44.50 102.25Q42.75 102.25 41.44 102.88Q40.13 103.50 39.25 105L39.25 105L39 105L39 103.75Q39 103.25 38.63 102.75Q38.25 102.25 37.75 102.25L37.75 102.25L37.75 102L36 102L36 119L38 119Q38.63 119 38.94 118.56Q39.25 118.13 39.25 117.63L39.25 117.63L39 117.50L39 110.75Q39 108.38 40.19 106.50Q41.38 104.63 43.75 104.63L43.75 104.63Q45.50 104.63 46.25 106.13Q47 107.63 47 109.25L47 109.25L47 119.13L48.25 119.13Q48.88 119.13 49.44 118.69Q50 118.25 50 117.75L50 117.75L50 110.75Q50 108.38 50.94 106.50Q51.88 104.63 54.25 104.63L54.25 104.63Q56 104.63 56.50 106.13Q57 107.63 57 109.25L57 109.25L57 119.13L58.63 119.13Q59.13 119.13 59.56 118.75Q60 118.38 60 117.88L60 117.88L60 108.50Q60 105.75 58.75 103.94Q57.50 102.13 54.25 102.13ZM100.75 102L100.75 102Q99 102 97.44 102.75Q95.88 103.50 95.25 105L95.25 105L95 105L95 103.75Q95 103.25 94.63 102.75Q94.25 102.25 93.63 102.25L93.63 102.25L93.63 102L92 102L92 119L93.75 119Q94.38 119 94.69 118.56Q95 118.13 95 117.63L95 117.63L95 111.25Q95 108.25 96.31 106.38Q97.63 104.50 100.25 104.50L100.25 104.50Q102.25 104.63 103.13 106.06Q104 107.50 104 110.25L104 110.25L104 118.88L105.25 118.88Q105.88 118.88 106.44 118.44Q107 118 107 117.50L107 117.50L107 109.13Q107 105.75 105.44 103.88Q103.88 102 100.75 102L100.75 102ZM121.63 102L121.63 102L121.63 102.25Q121.13 102.25 120.69 102.63Q120.25 103 120.13 103.38L120.13 103.38L115.88 116L115.75 116L111.75 103.50Q111.50 103 111.06 102.63Q110.63 102.25 110.25 102.25L110.25 102.25L110.25 102L108.13 102L113.75 117.50Q113.88 117.88 114.06 118.50Q114.25 119.13 114.25 119.38L114.25 119.38Q114.25 119.63 113.50 121.56Q112.75 123.50 110.75 123.50L110.75 123.50L110.50 123.50Q110 123.50 109.63 123.81Q109.25 124.13 109.25 124.75L109.25 124.75L109.13 125.75Q109.50 125.88 110 125.94Q110.50 126 111.25 126L111.25 126Q114.25 126 115.44 123.69Q116.63 121.38 117.50 119L117.50 119L123.50 102L121.63 102ZM64 90.25L64 90.25Q73.25 90.25 81.38 86.75L81.38 86.75Q89.50 83.13 95.56 77.13Q101.63 71.13 105.13 63L105.13 63Q108.63 54.88 108.63 45.63L108.63 45.63Q108.63 36.38 105.13 28.25L105.13 28.25Q101.63 20.13 95.56 14.06Q89.50 8 81.38 4.50L81.38 4.50Q73.25 1 64 1L64 1Q54.75 1 46.63 4.50L46.63 4.50Q38.50 8 32.44 14.06Q26.38 20.13 22.88 28.25L22.88 28.25Q19.38 36.38 19.38 45.63L19.38 45.63Q19.38 54.88 22.88 63L22.88 63Q26.38 71.13 32.44 77.13Q38.50 83.13 46.63 86.75L46.63 86.75Q54.75 90.25 64 90.25L64 90.25ZM34.38 48.75L34.38 48.75Q34.88 47.13 36.06 46.75Q37.25 46.38 38.63 46.75L38.63 46.75Q40 47.13 40.50 48.50Q41 49.88 40.63 51.25L40.63 51.25Q40.50 51.38 40.44 51.56Q40.38 51.75 40.25 52.13L40.25 52.13L39.50 53.50Q39.25 54.50 40.25 55.19Q41.25 55.88 42.25 56.25L42.25 56.25Q44.38 56.88 46.25 55.94Q48.13 55 48.63 53.25L48.63 53.25Q49.13 51.50 48.44 50.44Q47.75 49.38 47.25 49L47.25 49L44.63 46.13Q43.63 45 42.25 42.38Q40.88 39.75 41.88 36.38L41.88 36.38Q42.25 35.13 43.06 33.88Q43.88 32.63 45.13 31.75L45.13 31.75Q47.63 29.88 50.31 29.44Q53 29 55.50 29.75L55.50 29.75Q58.88 30.75 60.81 32.69Q62.75 34.63 64.88 36.25L64.88 36.25Q66.13 32.88 67.75 29.56Q69.38 26.25 71.88 23.38L71.88 23.38Q74.13 20.75 77 19.13Q79.88 17.50 83.25 17.25L83.25 17.25Q86.63 17.25 88.94 18.63Q91.25 20 91.38 22.38L91.38 22.38Q91.38 23.50 90.69 25Q90 26.50 87.88 26.63L87.88 26.63Q86.38 26.63 85.38 25.81Q84.38 25 84.25 23.63L84.25 23.63Q84.25 23.13 84.44 22.63Q84.63 22.13 84.88 21.63L84.88 21.63Q85.25 20.88 85.38 20.69Q85.50 20.50 85.38 20.25L85.38 20.25Q85.38 19.25 84.44 19.13Q83.50 19 83.13 19L83.13 19Q78.13 19.13 76.19 24.63Q74.25 30.13 73.25 35.63L73.25 35.63L72.50 39.50Q75.38 40 77.44 39.56Q79.50 39.13 80.63 38.38L80.63 38.38Q82.13 37.38 81.13 36.31Q80.13 35.25 80.25 34L80.25 34Q80.63 32.75 81.50 32.19Q82.38 31.63 83.25 31.63L83.25 31.63Q84.50 31.63 85.31 32.69Q86.13 33.75 86.13 35L86.13 35Q86 37.13 83.19 39.44Q80.38 41.75 74.75 41.63L74.75 41.63Q74 41.63 73.38 41.56Q72.75 41.50 72.13 41.38L72.13 41.38L71 49.25Q70 53.75 68.25 59.44Q66.50 65.13 62 70.50L62 70.50Q58.13 75.13 54.50 76.44Q50.88 77.75 49.13 77.75L49.13 77.75Q45.75 77.75 43.69 76.25Q41.63 74.75 41.63 72.25L41.63 72.25Q41.50 70 43.06 68.81Q44.63 67.63 46 67.50L46 67.50Q47.75 67.38 48.88 68.50Q50 69.63 50.13 71.13L50.13 71.13Q50.13 72.38 49.63 72.88Q49.13 73.38 48.75 73.63L48.75 73.63Q48.38 73.88 48.06 74.13Q47.75 74.38 47.75 74.88L47.75 74.88Q47.75 75.13 48.06 75.50Q48.38 75.88 49.13 75.75L49.13 75.75Q50.50 75.75 51.44 75.19Q52.38 74.63 53.13 74.25L53.13 74.25Q56.38 71.50 58 66.50Q59.63 61.50 61.25 52.88L61.25 52.88L61.75 50.13Q62.38 47.38 63.06 44.31Q63.75 41.25 64.63 38.13L64.63 38.13Q62.38 36.38 60.50 34.56Q58.63 32.75 55.63 31.88L55.63 31.88Q53.50 31.25 52.13 31.69Q50.75 32.13 49.88 33.25L49.88 33.25Q48.88 34.63 49.06 36.19Q49.25 37.75 50.25 38.75L50.25 38.75L52.63 41.25Q54.75 43.75 55.75 45.81Q56.75 47.88 56.25 50.38L56.25 50.38Q55.63 54.50 51.38 56.94Q47.13 59.38 41.38 57.63L41.38 57.63Q36.50 56.38 35.13 53.50Q33.75 50.63 34.38 48.75L34.38 48.75Z"/></svg>