<svg xmlns="http://www.w3.org/2000/svg" xmlns:xlink="http://www.w3.org/1999/xlink" width="128" height="128"><path fill="#ffffff" d="M64 2.25L64 2.25Q51.25 2.25 40 7.13L40 7.13Q28.75 12 20.38 20.38Q12 28.75 7.13 40L7.13 40Q2.25 51.25 2.25 64L2.25 64Q2.25 76.75 7.13 88L7.13 88Q12 99.25 20.38 107.63Q28.75 116 40 120.88L40 120.88Q51.25 125.75 64 125.75L64 125.75Q76.75 125.75 88 120.88L88 120.88Q99.25 116 107.63 107.63Q116 99.25 120.88 88L120.88 88Q125.75 76.75 125.75 64L125.75 64Q125.75 51.25 120.88 40L120.88 40Q116 28.75 107.63 20.38Q99.25 12 88 7.13L88 7.13Q76.75 2.25 64 2.25ZM97.25 38L97.25 38Q95.13 38.13 93.81 36.94Q92.50 35.75 92.38 33.75L92.38 33.75Q92.38 33 92.56 32.38Q92.75 31.75 93.25 31L93.25 31Q93.75 30.13 93.94 29.81Q94.13 29.50 94.13 29.13L94.13 29.13Q94 27.88 92.69 27.63Q91.38 27.38 90.88 27.38L90.88 27.38Q83.88 27.63 81.31 35.19Q78.75 42.75 77.25 50.38L77.25 50.38L76.25 55.75Q80.13 56.38 83 55.81Q85.88 55.25 87.38 54.25L87.38 54.25Q89.63 52.88 88.19 51.38Q86.75 49.88 87 48.25L87 48.25Q87.38 46.50 88.63 45.69Q89.88 44.88 91.13 44.75L91.13 44.75Q92.88 44.75 93.94 46.25Q95 47.75 94.88 49.50L94.88 49.50Q94.88 52.38 90.94 55.63Q87 58.88 79.13 58.63L79.13 58.63Q78.13 58.63 77.25 58.56Q76.38 58.50 75.63 58.38L75.63 58.38L73.63 69.25Q72.25 75.50 69.81 83.38Q67.38 91.25 61.13 98.63L61.13 98.63Q55.75 105 50.75 106.75Q45.75 108.50 43.25 108.63L43.25 108.63Q38.75 108.75 35.94 106.56Q33.13 104.38 33 101.25L33 101.25Q32.88 98 35.06 96.31Q37.25 94.63 39 94.63L39 94.63Q41.50 94.50 43 96.06Q44.50 97.63 44.63 99.63L44.63 99.63Q44.63 101.38 43.94 102.06Q43.25 102.75 42.75 103.13L42.75 103.13Q42.38 103.38 41.88 103.81Q41.38 104.25 41.38 104.88L41.38 104.88Q41.38 105.25 41.81 105.75Q42.25 106.25 43.25 106.25L43.25 106.25Q45.13 106.13 46.44 105.38Q47.75 104.63 48.75 104L48.75 104Q53.25 100.25 55.50 93.31Q57.75 86.38 60 74.63L60 74.63L60.63 70.75Q61.38 67 62.31 62.75Q63.25 58.50 64.50 54.25L64.50 54.25Q61.38 51.75 58.88 49.25Q56.38 46.75 52.13 45.63L52.13 45.63Q49.13 44.75 47.31 45.31Q45.50 45.88 44.25 47.50L44.25 47.50Q42.75 49.38 43.06 51.50Q43.38 53.63 44.75 55.13L44.75 55.13L47.88 58.63Q50.88 62 52.31 64.81Q53.75 67.63 53.13 71.25L53.13 71.25Q52.25 76.63 46.38 80Q40.50 83.38 32.63 81L32.63 81Q25.88 78.88 24.06 74.94Q22.25 71 23.13 68.38L23.13 68.38Q23.75 66.13 25.44 65.50Q27.13 64.88 28.88 65.50L28.88 65.50Q30.88 66.13 31.56 68.06Q32.25 70 31.75 71.75L31.75 71.75Q31.63 72 31.50 72.31Q31.38 72.63 31.25 73L31.25 73Q31 73.50 30.69 73.94Q30.38 74.38 30.13 75L30.13 75Q29.63 76.38 31.06 77.38Q32.50 78.38 33.88 78.75L33.88 78.75Q36.88 79.75 39.44 78.44Q42 77.13 42.75 74.75L42.75 74.75Q43.50 72.50 42.56 70.94Q41.63 69.38 41.13 68.75L41.13 68.75L37.25 64.75Q36 63.25 34.06 59.56Q32.13 55.88 33.63 51.25L33.63 51.25Q34.13 49.63 35.25 47.88Q36.38 46.13 38 44.88L38 44.88Q41.50 42.25 45.19 41.75Q48.88 41.25 52.50 42.25L52.50 42.25Q57.13 43.63 59.88 46.31Q62.63 49 65.63 51.38L65.63 51.38Q67.25 46.63 69.56 42.06Q71.88 37.50 75.25 33.63L75.25 33.63Q78.38 30 82.38 27.69Q86.38 25.38 91.13 25.13L91.13 25.13Q95.88 25 99 26.94Q102.13 28.88 102.25 32.25L102.25 32.25Q102.25 33.75 101.19 35.81Q100.13 37.88 97.25 38L97.25 38Z"/></svg>