<svg xmlns="http://www.w3.org/2000/svg" xmlns:xlink="http://www.w3.org/1999/xlink" width="128" height="128"><path fill="#000000" d="M45.50 129L45.50 129Q54.38 129 60.69 122.69Q67 116.38 67 107.50L67 107.50L67 86L45.50 86Q36.63 86 30.31 92.31Q24 98.63 24 107.50L24 107.50Q24 116.38 30.31 122.69Q36.63 129 45.50 129ZM24 64.50L24 64.50Q24 55.63 30.31 49.31Q36.63 43 45.50 43L45.50 43L67 43L67 86L45.50 86Q36.63 86 30.31 79.69Q24 73.38 24 64.50ZM24 21.50L24 21.50Q24 12.63 30.31 6.31Q36.63 0 45.50 0L45.50 0L67 0L67 43L45.50 43Q36.63 43 30.31 36.69Q24 30.38 24 21.50ZM67 43L67 0L88.50 0Q97.38 0 103.69 6.31Q110 12.63 110 21.50L110 21.50Q110 30.38 103.69 36.69Q97.38 43 88.50 43L88.50 43L67 43ZM110 64.50L110 64.50Q110 73.38 103.69 79.69Q97.38 86 88.50 86L88.50 86Q79.63 86 73.31 79.69Q67 73.38 67 64.50L67 64.50Q67 55.63 73.31 49.31Q79.63 43 88.50 43L88.50 43Q97.38 43 103.69 49.31Q110 55.63 110 64.50Z"/></svg>