<svg xmlns="http://www.w3.org/2000/svg" xmlns:xlink="http://www.w3.org/1999/xlink" width="128" height="128"><path fill="#000000" d="M15.88 30.50L38.50 23.88L23.38 42.25L15.88 30.50ZM0 23.88L38.50 23.88L27.63 33L23.38 42.25L18.38 42.25L18.38 84.88L25.88 84.88L16.75 89.13L10 103.38L0 103.38L0 23.88ZM3.38 94.13L25.88 84.88L10 103.38L3.38 94.13ZM31 42.25L46.88 23.88L51.88 35.50L31 42.25ZM46.88 32.25L46.88 23.88L92.88 23.88L92.88 42.25L31 42.25L46.88 32.25ZM75.25 92.50L97 84.88L81.13 103.38L75.25 92.50ZM35.13 84.88L97 84.88L83.63 92.50L81.13 103.38L35.13 103.38L35.13 84.88ZM84.50 23.88L125.50 5.50L43.50 103.38L2.50 122.50L84.50 23.88ZM102.13 43.13L118 23.88L117.13 38.88L102.13 43.13ZM118 23.88L128 23.88L128 103.38L88.63 103.38L100.38 93.25L104.63 84.88L109.63 84.88L109.63 43.13L102.13 43.13L110.38 35.50L118 23.88ZM88.63 103.38L104.63 84.88L108.75 97.50L88.63 103.38Z"/></svg>