<svg xmlns="http://www.w3.org/2000/svg" xmlns:xlink="http://www.w3.org/1999/xlink" width="128" height="128"><path fill="#000000" d="M9 55.63L6.13 51.13L14.88 48.50L9 55.63ZM10.63 52L9 55.63L7.13 55.63L7.13 72.13L10 72.13L6.50 73.75L3.88 79.25L0 79.25L0 48.50L14.88 48.50L10.63 52ZM3.88 79.25L1.25 75.63L10 72.13L3.88 79.25ZM20 53L12 55.63L18.13 48.50L20 53ZM35.88 48.50L35.88 55.63L12 55.63L18.13 51.75L18.13 48.50L35.88 48.50ZM31.38 79.25L29.13 75L37.50 72.13L31.38 79.25ZM32.38 75L31.38 79.25L13.63 79.25L13.63 72.13L37.50 72.13L32.38 75ZM16.75 79.25L1 86.63L32.63 48.50L48.50 41.38L16.75 79.25ZM45.25 54.25L39.38 55.88L45.63 48.50L45.25 54.25ZM49.50 79.25L34.25 79.25L38.75 75.25L40.38 72.13L42.38 72.13L42.38 55.88L39.38 55.88L42.63 53L45.63 48.50L49.50 48.50L49.50 79.25ZM42 76.88L34.25 79.25L40.38 72.13L42 76.88ZM84 53.38L74 54.25L57.25 54.25L57.25 48.50L84 48.50L84 53.38ZM66.88 73.38L66.88 74.63L56.88 74.63L74 54.25L74 53.38L84 53.38L66.88 73.38ZM84.38 79.25L56.88 79.25L56.88 74.63L66.63 73.38L84.38 73.38L84.38 79.25ZM87.88 79.25L87.88 48.50L95 48.50L95 79.25L87.88 79.25ZM127.38 75.63L121.50 75.63L121.50 67.50L116.38 64L111.75 63L127.38 63L127.38 75.63ZM121.50 67.50L111.75 63L116.38 63.38L121.50 67.50ZM121.63 71.88L127.38 75.63Q124.88 77.38 121.69 78.44Q118.50 79.50 115.13 79.50L115.13 79.50Q108.13 79.50 103.38 75.06Q98.63 70.63 98.63 63.88L98.63 63.88Q98.63 57.25 103.44 52.81Q108.25 48.38 115.38 48.38L115.38 48.38Q118.88 48.38 122.25 49.63Q125.63 50.88 128 52.88L128 52.88L123.75 57.75Q122.13 56.25 119.88 55.38Q117.63 54.50 115.38 54.50L115.38 54.50Q111.25 54.50 108.44 57.25Q105.63 60 105.63 64L105.63 64Q105.63 68.13 108.50 70.88Q111.38 73.63 115.50 73.63L115.50 73.63Q116.88 73.63 118.50 73.13Q120.13 72.63 121.63 71.88L121.63 71.88Z"/></svg>