<svg xmlns="http://www.w3.org/2000/svg" xmlns:xlink="http://www.w3.org/1999/xlink" width="128" height="128"><path fill="#000000" d="M18.75 52.88L18.75 52.88Q18.88 53.13 19.06 53.31Q19.25 53.50 19.50 53.63L19.50 53.63L64 86L108.50 53.63Q109.13 53.25 109.50 52.50Q109.88 51.75 109.88 50.88L109.88 50.88Q109.88 50.50 109.88 50.25Q109.88 50 109.75 49.75L109.75 49.75L94.38 2.63Q94.38 2.63 94.38 2.63Q94.38 2.63 94.38 2.63L94.38 2.63Q94.13 1.75 93.38 1.50Q92.63 1.25 92 1.63L92 1.63Q91.75 1.75 91.50 2Q91.25 2.25 91.13 2.63L91.13 2.63L80.88 34L47.13 34L36.88 2.63Q36.63 1.75 35.75 1.50Q34.88 1.25 34.25 1.75L34.25 1.75Q34 1.88 33.81 2.06Q33.63 2.25 33.63 2.63L33.63 2.63L18.25 49.75Q18.13 50 18.13 50.25Q18.13 50.50 18.13 50.88L18.13 50.88Q18.13 51.38 18.25 51.94Q18.38 52.50 18.75 52.88L18.75 52.88ZM65.38 123L65.38 94L60.88 94L60.88 127L79 127L79 123L65.38 123ZM91.88 101.25L91.88 101.25Q91.88 101.25 91.88 101.25Q91.88 101.25 91.88 101.25L91.88 101.25Q89.13 101.25 86.63 102.19Q84.13 103.13 82.25 104.75L82.25 104.75L83.75 107.50Q85.13 106.63 86.81 105.94Q88.50 105.25 90.88 105.25L90.88 105.25Q93.63 105.25 94.81 106.63Q96 108 96 110.38L96 110.38L96 112Q96 111.88 94.88 111.81Q93.75 111.75 93.13 111.75L93.13 111.75Q87.13 111.75 84.25 113.81Q81.38 115.88 81.38 120.25L81.38 120.25Q81.38 124.13 83.56 126.06Q85.75 128 89.38 128L89.38 128Q91.75 128 93.88 126.88Q96 125.75 96.75 123.88L96.75 123.88L97.63 127L101 127L101 110.25Q101 106.25 98.94 103.75Q96.88 101.25 91.88 101.25L91.88 101.25ZM96 121.50L96 121.50Q95.25 122.38 93.88 123.13Q92.50 123.88 90.63 123.88L90.63 123.88Q88 123.88 86.94 122.75Q85.88 121.63 85.88 120L85.88 120Q85.88 117.50 87.56 116.31Q89.25 115.13 93 115.13L93 115.13Q93.63 115.13 94.81 115.19Q96 115.25 96 115.38L96 115.38L96 121.50ZM117.13 101.25L117.13 101.25Q114.13 101.25 112.56 102.63Q111 104 111 104L111 104L111 99.75L110.88 94L106.50 94L106.50 126.63Q108.25 127.25 110.44 127.63Q112.63 128 115 128L115 128Q121.25 128 124.31 124.19Q127.38 120.38 127.38 113.38L127.38 113.38Q127.50 108 124.81 104.63Q122.13 101.25 117.13 101.25L117.13 101.25ZM115.25 124L115.25 124Q114 124 112.88 123.88Q111.75 123.75 111 123.25L111 123.25L111 107.88Q111.75 106.88 113.38 106.25Q115 105.63 116.75 105.63L116.75 105.63Q120 105.63 121.38 107.81Q122.75 110 122.75 113.63L122.75 113.63Q122.75 119 120.81 121.50Q118.88 124 115.25 124L115.25 124ZM16.63 97.63L16.63 97.63Q19.63 97.63 21.56 98.44Q23.50 99.25 24.75 100.25L24.75 100.25L26.75 96.88Q24.75 95.13 22.19 94.25Q19.63 93.38 16.75 93.38L16.75 93.38Q9.63 93.38 5.13 97.75Q0.63 102.13 0.63 110.88L0.63 110.88Q0.63 120.13 5.25 124.06Q9.88 128 16 128L16 128Q19.13 128 21.75 127.38Q24.38 126.75 26 126L26 126L26 112.88L26 109L14 109L14 113L21.50 113L21.50 122.88Q20.75 123.38 19.44 123.63Q18.13 123.88 16.38 123.88L16.38 123.88Q11.38 123.88 8.31 120.69Q5.25 117.50 5.25 110.88L5.25 110.88Q5.25 104.13 8.38 100.88Q11.50 97.63 16.63 97.63ZM48.13 102L48.13 94L43.75 94L44 99.63L44 119Q44 123 46.06 125.50Q48.13 128 53.13 128L53.13 128Q53.88 128 54.56 127.94Q55.25 127.88 56 127.75L56 127.75L56 123.88Q55.25 123.88 54.69 123.94Q54.13 124 53.63 124L53.63 124Q50.88 124 49.44 122.63Q48 121.25 48 118.88L48 118.88L48 106L56 106L56 102L48.13 102ZM33 127L33 102L37 102L37 127L33 127ZM33 98L33 94L37 94L37 98L33 98Z"/></svg>