<svg xmlns="http://www.w3.org/2000/svg" xmlns:xlink="http://www.w3.org/1999/xlink" width="128" height="128"><path fill="#ffffff" d="M126.63 72.25L126.63 72.25L105.63 7.75Q105.25 6.50 104.06 6.19Q102.88 5.88 102 6.50L102 6.50Q101.63 6.75 101.44 7.13Q101.25 7.50 101.13 7.88L101.13 7.88L87.13 51L40.88 51L26.88 7.88Q26.88 7.63 26.75 7.44Q26.63 7.25 26.50 7.13L26.50 7.13Q26.50 7 26.44 6.94Q26.38 6.88 26.25 6.75L26.25 6.75Q25.63 6.13 24.63 6.13Q23.63 6.13 22.88 6.88L22.88 6.88Q22.75 7 22.63 7.25Q22.50 7.50 22.38 7.75L22.38 7.75L1.38 72.25Q1.25 72.63 1.19 73Q1.13 73.38 1.13 73.75L1.13 73.75Q1.13 74.63 1.44 75.44Q1.75 76.25 2.25 76.88L2.25 76.88Q2.38 77 2.63 77.25Q2.88 77.50 3.13 77.63L3.13 77.63L64 121.88L124.88 77.63Q125.75 77 126.31 76Q126.88 75 126.88 73.75L126.88 73.75Q126.88 73.38 126.81 73Q126.75 72.63 126.63 72.25L126.63 72.25Z"/></svg>