<svg xmlns="http://www.w3.org/2000/svg" xmlns:xlink="http://www.w3.org/1999/xlink" width="157.5" height="128"><path fill="#000000" d="M49.50 128L49.50 128Q71.88 128 89 119.63L89 119.63Q106.13 111.25 117.81 98.06Q129.50 84.88 135.50 68.50L135.50 68.50Q141.50 52.13 141.50 36.13L141.50 36.13Q141.50 35 141.50 33.94Q141.50 32.88 141.38 31.88L141.38 31.88Q146.13 28.38 150.13 24.25Q154.13 20.13 157.38 15.38L157.38 15.38Q153.38 17.13 148.81 18.38Q144.25 19.63 139.25 20.25L139.25 20.25Q144 17.25 147.63 12.69Q151.25 8.13 153.13 2.63L153.13 2.63Q148.75 5.13 143.63 7.06Q138.50 9 133 10.13L133 10.13Q128.25 5.50 122.13 2.75Q116 0 109.13 0L109.13 0Q102.38 0 96.50 2.63L96.50 2.63Q90.63 5.13 86.25 9.50Q81.88 13.88 79.25 19.75L79.25 19.75Q76.75 25.63 76.75 32.38L76.75 32.38Q76.75 34.38 76.94 36.25Q77.13 38.13 77.63 39.88L77.63 39.88Q67.50 39.25 58.13 36.63L58.13 36.63Q48.63 34 40.19 29.63Q31.75 25.25 24.38 19.38L24.38 19.38Q17 13.38 11.13 6.13L11.13 6.13Q8.88 9.50 7.75 13.63Q6.63 17.75 6.63 22.13L6.63 22.13Q6.63 30.50 10.50 37.56Q14.38 44.63 20.88 49L20.88 49Q16.88 48.88 13.19 47.81Q9.50 46.75 6.25 44.88L6.25 44.88Q6.38 45.13 6.38 45.25Q6.38 45.38 6.38 45.38L6.38 45.38Q6.38 45.38 6.38 45.38Q6.38 45.38 6.38 45.38L6.38 45.38Q6.38 51.25 8.38 56.50L8.38 56.50Q10.25 61.75 13.69 65.94Q17.13 70.13 21.88 73L21.88 73Q26.50 75.88 32 77.13L32 77.13Q30.25 77.63 28.13 77.94Q26 78.25 23.75 78.25L23.75 78.25Q22.13 78.25 20.56 78.06Q19 77.88 17.50 77.63L17.50 77.63Q19.13 82.50 22.13 86.63L22.13 86.63Q25.13 90.63 29.06 93.63Q33 96.63 37.75 98.25L37.75 98.25Q42.50 100 47.88 100.13L47.88 100.13Q43.75 103.38 39.13 105.88L39.13 105.88Q34.50 108.50 29.44 110.25Q24.38 112 19 113L19 113Q13.50 113.88 7.88 113.88L7.88 113.88Q7.75 113.88 7.75 113.88Q7.75 113.88 7.75 113.88L7.75 113.88Q7.75 113.88 7.69 113.88Q7.63 113.88 7.63 113.88L7.63 113.88Q5.63 113.88 3.63 113.75Q1.63 113.63-0.38 113.38L-0.38 113.38Q5 116.88 10.88 119.50L10.88 119.50Q16.75 122.25 23 124.13Q29.25 126 35.88 127L35.88 127Q42.50 128 49.50 128L49.50 128Q49.50 128 49.50 128Q49.50 128 49.50 128L49.50 128Z"/></svg>