<svg xmlns="http://www.w3.org/2000/svg" xmlns:xlink="http://www.w3.org/1999/xlink" width="128" height="128"><path fill="#ffffff" d="M111.63 1.75L16.88 1.75Q16.13 1.75 15.25 1.81Q14.38 1.88 13.63 2.13L13.63 2.13Q11.88 2.63 10.25 3.44Q8.63 4.25 7.25 5.38L7.25 5.38Q6.38 6.13 5.69 6.88Q5 7.63 4.38 8.63L4.38 8.63Q3.38 10 2.75 11.50Q2.13 13 1.75 14.75L1.75 14.75Q2 14.88 2.13 15.13Q2.25 15.38 2.38 15.63L2.38 15.63Q3.25 17.13 4.19 18.69Q5.13 20.25 6 21.75L6 21.75L9.25 27.13Q10 28.25 10.75 29.50Q11.50 30.75 12.25 32L12.25 32L16.75 39.75Q17.63 41 18.38 42.31Q19.13 43.63 20 44.88L20 44.88Q21.13 46.88 22.25 48.75Q23.38 50.63 24.50 52.63L24.50 52.63L30.13 62Q31.38 64 32.56 66Q33.75 68 35 70L35 70L35.25 70.38Q35.38 70.38 35.50 70.38Q35.63 70.38 35.88 70.38L35.88 70.38Q37.38 69.88 39 69.50Q40.63 69.13 42.25 68.75L42.25 68.75Q44.88 68.13 47.44 67.50Q50 66.88 52.63 66.25L52.63 66.25L58 65Q60.63 64.38 63.25 63.75Q65.88 63.13 68.50 62.50L68.50 62.50Q71.13 61.88 73.81 61.25Q76.50 60.63 79.13 60L79.13 60Q80.50 59.63 81.81 59.31Q83.13 59 84.50 58.63L84.50 58.63Q87.13 58 89.69 57.44Q92.25 56.88 94.88 56.25L94.88 56.25L106.25 53.50L106.75 53.38L106.63 53L103.50 48.63L100.50 44.38L97.25 39.75L94.13 35.38L87.88 26.50Q87.13 25.38 86.31 24.25Q85.50 23.13 84.75 22L84.75 22L83.13 19.75Q82.88 19.50 82.75 19.19Q82.63 18.88 82.50 18.50L82.50 18.50Q82.25 17.75 82.44 17.25Q82.63 16.75 83.13 16.38L83.13 16.38Q83.38 16.13 83.75 15.94Q84.13 15.75 84.38 15.63L84.38 15.63Q84.88 15.50 85.38 15.38Q85.88 15.25 86.38 15.13L86.38 15.13Q87.50 15 88.50 14.81Q89.50 14.63 90.50 14.50L90.50 14.50L95.13 13.75Q95.88 13.63 96.63 13.50Q97.38 13.38 98.13 13.25L98.13 13.25Q99.13 13 100.06 12.88Q101 12.75 102 12.50L102 12.50Q103 12.38 104 12.19Q105 12 105.88 11.88L105.88 11.88L110.13 11.25L113 10.75Q113.88 10.63 114.69 10.44Q115.50 10.25 116.38 10.13L116.38 10.13Q117.38 10 118.44 9.81Q119.50 9.63 120.50 9.50L120.50 9.50Q121.13 9.38 121.75 9.38Q122.38 9.38 123 9.50L123 9.50Q123.50 9.75 123.94 9.94Q124.38 10.13 124.75 10.38L124.75 10.38L125.38 10.88Q125.50 10.75 125.44 10.69Q125.38 10.63 125.38 10.50L125.38 10.50Q124.63 9 123.50 7.63Q122.38 6.25 121.13 5.13L121.13 5.13Q119.88 4.13 118.44 3.31Q117 2.50 115.50 2L115.50 2Q114.50 1.75 113.56 1.75Q112.63 1.75 111.63 1.75L111.63 1.75ZM17 126.63L55.75 127Q55.63 127 55.56 126.75Q55.50 126.50 55.50 126.38L55.50 126.38Q54.38 124.50 53.25 122.50Q52.13 120.50 51 118.50L51 118.50Q49.63 116.13 48.25 113.69Q46.88 111.25 45.50 108.88L45.50 108.88Q44 106.25 42.50 103.63Q41 101 39.63 98.38L39.63 98.38Q38.25 95.88 36.81 93.38Q35.38 90.88 34 88.38L34 88.38Q33.25 86.88 32.38 85.38Q31.50 83.88 30.75 82.38L30.75 82.38L30.38 81.88L29.88 82Q29 82.25 28.25 82.44Q27.50 82.63 26.63 82.88L26.63 82.88Q25.50 83.13 24.38 83.44Q23.25 83.75 22.13 84L22.13 84Q19.63 84.75 17.13 85.38Q14.63 86 12.13 86.63L12.13 86.63Q9.63 87.38 7 88Q4.38 88.63 1.75 89.38L1.75 89.38Q1.63 89.38 1.69 89.38Q1.75 89.38 1 89.38L1 89.38L1 110.63Q1.25 111 1.31 111Q1.38 111 1.38 111.13L1.38 111.13Q1.50 111.63 1.56 112.06Q1.63 112.50 1.75 113L1.75 113Q2 114.75 2.69 116.31Q3.38 117.88 4.38 119.38L4.38 119.38Q5.88 121.50 7.81 123Q9.75 124.50 12.13 125.50L12.13 125.50Q13 125.75 13.94 126Q14.88 126.25 15.75 126.38L15.75 126.38L17 126.63ZM1.63 78.50L5 77.75Q7.88 77 10.88 76.31Q13.88 75.63 16.75 74.88L16.75 74.88Q18.13 74.63 19.38 74.31Q20.63 74 22 73.75L22 73.75Q22.63 73.50 23.25 73.38Q23.88 73.25 24.63 73.13L24.63 73.13Q25.13 72.88 25.25 72.69Q25.38 72.50 25 71.88L25 71.88Q24.63 71.13 24.19 70.44Q23.75 69.75 23.38 69L23.38 69L13.25 51.50Q11.88 49.25 10.63 47.06Q9.38 44.88 8 42.63L8 42.63Q6.88 40.75 5.81 38.88Q4.75 37 3.63 35L3.63 35Q3.13 34.25 2.56 33.44Q2 32.63 1.63 31.75L1.63 31.75Q1.50 31.63 1.63 31.44Q1.75 31.25 1 31.25L1 31.25L1 78.63Q1 78.63 1.25 78.56Q1.50 78.50 1.63 78.50L1.63 78.50ZM126.25 111.63L126.25 111.63Q125.13 112 123.94 112.44Q122.75 112.88 121.63 113.25L121.63 113.25Q119 114.25 116.31 115.19Q113.63 116.13 111 117L111 117Q109.63 117.63 108.13 118.13Q106.63 118.63 105.25 119.13L105.25 119.13Q102.25 120.25 99.25 121.31Q96.25 122.38 93.25 123.38L93.25 123.38Q91.50 124 89.75 124.75Q88 125.50 86.38 126.13L86.38 126.13Q85.88 126.25 85.38 126.63Q84.88 127 84.38 127L84.38 127L110.88 127L111.50 126.63Q112 126.63 112.50 126.50Q113 126.38 113.50 126.38L113.50 126.38Q115.50 126 117.38 125.13Q119.25 124.25 120.75 122.88L120.75 122.88Q122 122 123.06 120.75Q124.13 119.50 124.88 118.13L124.88 118.13Q125.63 116.75 126.13 115.19Q126.63 113.63 126.88 112L126.88 112Q126.88 111.88 126.94 111.75Q127 111.63 126.88 111.50L126.88 111.50Q126.63 111.50 126.50 111.56Q126.38 111.63 126.25 111.63L126.25 111.63ZM124 76L124 76Q123.13 74.88 122.25 73.69Q121.38 72.50 120.50 71.25L120.50 71.25Q119.25 69.63 118.06 67.94Q116.88 66.25 115.63 64.63L115.63 64.63Q115.13 64 114.63 63.31Q114.13 62.63 113.63 62L113.63 62Q113.50 61.75 113.31 61.69Q113.13 61.63 113 61.63L113 61.63L112.75 61.75Q110.63 62.25 108.38 62.81Q106.13 63.38 103.88 63.88L103.88 63.88L98.63 65.13Q96 65.75 93.44 66.38Q90.88 67 88.25 67.63L88.25 67.63Q85.63 68.25 83.06 68.88Q80.50 69.50 78 70.13L78 70.13L67.38 72.75Q64.75 73.38 62.13 74Q59.50 74.63 56.88 75.25L56.88 75.25L46.75 77.75Q45.38 78.13 44 78.44Q42.63 78.75 41.38 79.13L41.38 79.13Q41.13 79.13 40.94 79.19Q40.75 79.25 40.50 79.38L40.50 79.38L40.75 79.88Q41.88 81.75 43 83.69Q44.13 85.63 45.25 87.63L45.25 87.63Q46.50 89.75 47.81 91.94Q49.13 94.13 50.38 96.38L50.38 96.38Q51.75 98.75 53.19 101.19Q54.63 103.63 56 106L56 106Q56.75 107.38 57.56 108.75Q58.38 110.13 59.25 111.50L59.25 111.50Q60.13 113 61.06 114.56Q62 116.13 62.88 117.63L62.88 117.63Q63.13 118.13 63.44 118.56Q63.75 119 64.13 119.38L64.13 119.38Q64.25 119.63 64.50 119.88Q64.75 120.13 65.13 120.38L65.13 120.38Q65.50 120.50 65.81 120.56Q66.13 120.63 66.50 120.63L66.50 120.63Q66.63 120.50 66.81 120.44Q67 120.38 67.25 120.38L67.25 120.38L68.13 120Q70.50 119.25 72.94 118.38Q75.38 117.50 77.88 116.75L77.88 116.75Q79.75 116.13 81.63 115.44Q83.50 114.75 85.38 114.13L85.38 114.13Q87.25 113.50 89.13 112.88Q91 112.25 93 111.63L93 111.63L100.38 109.13Q102.38 108.38 104.25 107.75Q106.13 107.13 108 106.50L108 106.50Q110.38 105.63 112.75 104.88Q115.13 104.13 117.38 103.25L117.38 103.25Q119.75 102.50 122 101.75Q124.25 101 126.50 100.25L126.50 100.25Q126.63 100.25 126.75 100.19Q126.88 100.13 127 100L127 100L127 99.50Q127 94.88 127 90.19Q127 85.50 127 80.75L127 80.75Q127 80.50 126.94 80.31Q126.88 80.13 126.75 79.88L126.75 79.88Q126 78.88 125.31 77.94Q124.63 77 124 76L124 76ZM123.38 17.13L123.38 17.13Q122.88 16.50 122.19 16.25Q121.50 16 120.75 16.25L120.75 16.25Q120.38 16.38 120 16.44Q119.63 16.50 119.25 16.50L119.25 16.50Q118.13 16.75 116.94 16.94Q115.75 17.13 114.50 17.38L114.50 17.38Q112.75 17.75 111 18.06Q109.25 18.38 107.50 18.63L107.50 18.63Q106.13 18.88 104.75 19.13Q103.38 19.38 102 19.63L102 19.63L94.50 21Q94.25 21 94.06 21.06Q93.88 21.13 93.63 21.13L93.63 21.13Q93.25 21.25 93.19 21.44Q93.13 21.63 93.25 22L93.25 22Q93.38 22.25 93.50 22.50Q93.63 22.75 93.88 22.88L93.88 22.88Q95 24.50 96.13 26.06Q97.25 27.63 98.50 29.25L98.50 29.25Q100 31.50 101.63 33.63Q103.25 35.75 104.88 38L104.88 38Q106.13 39.88 107.50 41.69Q108.88 43.50 110.25 45.38L110.25 45.38Q111.25 46.88 112.31 48.31Q113.38 49.75 114.50 51.13L114.50 51.13L114.75 51.50L127 48.50L127 47.88Q127 41.50 127 35.06Q127 28.63 127 22.25L127 22.25Q127 22 126.94 21.75Q126.88 21.50 126.75 21.38L126.75 21.38Q126 20.38 125.19 19.38Q124.38 18.38 123.63 17.38L123.63 17.38L123.38 17.13ZM126.75 58.38L126.75 58.38Q125.38 58.63 123.94 59Q122.50 59.38 121.13 59.75L121.13 59.75Q121.25 60 123.94 63.63Q126.63 67.25 126.88 67.50L126.88 67.50L127 67.50L127 67.13L127 64.13Q127 62.88 127 61.56Q127 60.25 127 59L127 59Q127 58.88 127.06 58.69Q127.13 58.50 127 58.38L127 58.38L126.75 58.38Z"/></svg>