<svg xmlns="http://www.w3.org/2000/svg" xmlns:xlink="http://www.w3.org/1999/xlink" width="128" height="128"><path fill="#ffffff" d="M14.88 18.38L14.88 18.38L17.63 22.88L20.13 27Q21.13 28.63 22.06 30.25Q23 31.88 24 33.50L24 33.50L26.63 38L30.50 44.38L35.25 52.38Q36.38 54.13 37.38 55.81Q38.38 57.50 39.38 59.25L39.38 59.25L39.63 59.50Q39.75 59.50 39.88 59.50Q40 59.50 40.13 59.50L40.13 59.50Q41.50 59.13 42.88 58.81Q44.25 58.50 45.50 58.13L45.50 58.13Q47.75 57.63 49.94 57.13Q52.13 56.63 54.38 56.13L54.38 56.13L58.88 55Q61.13 54.50 63.38 53.94Q65.63 53.38 67.88 52.88L67.88 52.88Q70.13 52.25 72.31 51.75Q74.50 51.25 76.75 50.75L76.75 50.75Q78 50.38 79.13 50.13Q80.25 49.88 81.38 49.63L81.38 49.63L100.25 45.13L100.13 44.75Q99.50 43.88 98.81 42.94Q98.13 42 97.50 41.13L97.50 41.13L94.88 37.50L92.13 33.63L89.50 29.88L80.13 16.63Q80 16.38 79.88 16.13Q79.75 15.88 79.63 15.63L79.63 15.63Q79.38 15 79.56 14.56Q79.75 14.13 80.13 13.75L80.13 13.75Q80.38 13.63 80.69 13.44Q81 13.25 81.25 13.25L81.25 13.25Q81.75 13.13 82.13 13Q82.50 12.88 83 12.75L83 12.75Q83.88 12.63 84.75 12.50Q85.63 12.38 86.50 12.13L86.50 12.13Q87.38 12 88.38 11.88Q89.38 11.75 90.38 11.50L90.38 11.50Q91 11.38 91.63 11.31Q92.25 11.25 92.88 11.13L92.88 11.13L96.25 10.50Q97 10.38 97.81 10.25Q98.63 10.13 99.50 10L99.50 10L103 9.38L105.50 9Q106.25 8.88 106.94 8.75Q107.63 8.63 108.38 8.50L108.38 8.50Q109.25 8.38 110.13 8.25Q111 8.13 111.88 8L111.88 8Q112.38 7.88 112.88 7.88Q113.38 7.88 114 8L114 8Q114.38 8.13 114.69 8.31Q115 8.50 115.38 8.75L115.38 8.75L116 9.13Q116 9 116 8.94Q116 8.88 115.88 8.88L115.88 8.88Q115.25 7.50 114.38 6.38Q113.50 5.25 112.38 4.25L112.38 4.25Q111.25 3.38 110.06 2.69Q108.88 2 107.50 1.63L107.50 1.63Q106.75 1.38 105.94 1.25Q105.13 1.13 104.38 1.13L104.38 1.13L103.88 1L24.13 1.13Q23.38 1.13 22.69 1.25Q22 1.38 21.38 1.50L21.38 1.50Q19.75 2 18.44 2.69Q17.13 3.38 15.88 4.38L15.88 4.38Q15.25 5 14.63 5.69Q14 6.38 13.50 7.13L13.50 7.13Q12.63 8.38 12.13 9.63Q11.63 10.88 11.38 12.38L11.38 12.38L11.75 13.13Q12.50 14.38 13.31 15.69Q14.13 17 14.88 18.38L14.88 18.38ZM20.13 106.13L20.13 106.13Q20.88 106.38 21.63 106.56Q22.38 106.75 23.13 106.88L23.13 106.88L24.13 107Q24.25 107 24.38 107Q24.50 107 24.63 107L24.63 107L57 107Q56.88 107 56.88 106.94Q56.88 106.88 56.75 106.75L56.75 106.75Q55.88 105.13 54.88 103.50Q53.88 101.88 53 100.25L53 100.25Q51.75 98.25 50.63 96.19Q49.50 94.13 48.25 92L48.25 92Q47 89.88 45.75 87.63Q44.50 85.38 43.25 83.25L43.25 83.25Q42.13 81.13 40.94 79Q39.75 76.88 38.63 74.75L38.63 74.75Q37.88 73.50 37.19 72.25Q36.50 71 35.75 69.75L35.75 69.75L35.50 69.25L35.13 69.38Q34.38 69.63 33.69 69.75Q33 69.88 32.38 70.13L32.38 70.13Q31.38 70.38 30.44 70.63Q29.50 70.88 28.63 71.13L28.63 71.13Q26.50 71.63 24.38 72.19Q22.25 72.75 20.13 73.25L20.13 73.25Q17.88 73.88 15.75 74.44Q13.63 75 11.50 75.50L11.50 75.50Q11.38 75.63 11.56 75.63Q11.75 75.63 11 75.63L11 75.63L11 93.50Q11.75 93.63 11.44 93.75Q11.13 93.88 11.13 94L11.13 94Q11.25 94.38 11.25 94.81Q11.25 95.25 11.38 95.63L11.38 95.63Q11.63 97.13 12.19 98.44Q12.75 99.75 13.50 101L13.50 101Q14.75 102.75 16.44 104.06Q18.13 105.38 20.13 106.13L20.13 106.13ZM14 65.75L14 65.75Q16.50 65.13 19 64.56Q21.50 64 24 63.38L24 63.38L28.38 62.38Q29 62.25 29.50 62.13Q30 62 30.63 61.75L30.63 61.75Q31.13 61.63 31.19 61.44Q31.25 61.25 31 60.88L31 60.88Q30.63 60.25 30.25 59.56Q29.88 58.88 29.50 58.25L29.50 58.25L21 43.50Q19.88 41.63 18.81 39.75Q17.75 37.88 16.63 36L16.63 36L12.88 29.63L11.25 26.88Q11.25 26.63 11.50 26.50Q11.75 26.38 11 26.38L11 26.38L11 66.50Q11 66.50 11.13 66.44Q11.25 66.38 11.38 66.38L11.38 66.38L14 65.75ZM116.63 94.50L116.63 94.50Q115.75 94.75 114.75 95.13Q113.75 95.50 112.75 95.88L112.75 95.88Q110.50 96.63 108.25 97.44Q106 98.25 103.88 99L103.88 99Q102.63 99.50 101.38 99.94Q100.13 100.38 98.88 100.88L98.88 100.88Q96.38 101.75 93.81 102.63Q91.25 103.50 88.75 104.38L88.75 104.38Q87.25 105 85.81 105.44Q84.38 105.88 82.88 106.50L82.88 106.50Q82.50 106.63 82.13 106.81Q81.75 107 81.25 107L81.25 107L103.75 107L104.25 107Q104.63 106.88 105.06 106.88Q105.50 106.88 105.88 106.75L105.88 106.75Q107.63 106.50 109.19 105.75Q110.75 105 112.13 104L112.13 104Q113.13 103.13 114 102.13Q114.88 101.13 115.50 100L115.50 100Q116.25 98.75 116.63 97.44Q117 96.13 117.25 94.75L117.25 94.75Q117.25 94.63 117.25 94.50Q117.25 94.38 117.25 94.25L117.25 94.25Q117 94.25 116.88 94.31Q116.75 94.38 116.63 94.50L116.63 94.50ZM114.75 64.38L114.75 64.38Q114 63.25 113.25 62.25Q112.50 61.25 111.75 60.25L111.75 60.25Q110.75 58.88 109.75 57.44Q108.75 56 107.75 54.63L107.75 54.63Q107.25 54.13 106.88 53.56Q106.50 53 106 52.38L106 52.38Q105.88 52.25 105.75 52.19Q105.63 52.13 105.50 52.13L105.50 52.13L105.25 52.25Q103.38 52.63 101.50 53.06Q99.63 53.50 97.75 54L97.75 54L84.50 57.25Q82.38 57.75 80.19 58.31Q78 58.88 75.88 59.38L75.88 59.38Q73.63 59.88 71.31 60.44Q69 61 66.75 61.50L66.75 61.50Q64.63 62.13 62.38 62.63Q60.13 63.13 57.88 63.75L57.88 63.75Q55.75 64.25 53.63 64.75Q51.50 65.25 49.38 65.75L49.38 65.75Q48.25 66 47.06 66.31Q45.88 66.63 44.75 66.88L44.75 66.88Q44.63 66.88 44.44 66.94Q44.25 67 44.13 67.13L44.13 67.13L44.25 67.50Q45.25 69.13 46.19 70.81Q47.13 72.50 48.13 74.13L48.13 74.13Q49.13 75.88 50.25 77.75Q51.38 79.63 52.38 81.50L52.38 81.50Q53.63 83.50 54.81 85.56Q56 87.63 57.13 89.63L57.13 89.63Q57.88 90.88 58.56 92Q59.25 93.13 59.88 94.38L59.88 94.38Q60.75 95.63 61.50 96.94Q62.25 98.25 63 99.50L63 99.50Q63.25 99.88 63.50 100.25Q63.75 100.63 64 101L64 101Q64.25 101.25 64.44 101.44Q64.63 101.63 64.88 101.88L64.88 101.88Q65.25 102 65.50 102.06Q65.75 102.13 66.13 102L66.13 102Q66.25 102 66.38 101.94Q66.50 101.88 66.75 101.88L66.75 101.88L67.50 101.50Q69.50 100.88 71.56 100.19Q73.63 99.50 75.75 98.75L75.75 98.75Q77.25 98.25 78.88 97.69Q80.50 97.13 82.13 96.63L82.13 96.63Q83.75 96 85.31 95.50Q86.88 95 88.50 94.38L88.50 94.38Q90.13 93.88 91.69 93.38Q93.25 92.88 94.88 92.25L94.88 92.25Q96.38 91.75 98 91.19Q99.63 90.63 101.25 90.13L101.25 90.13Q103.25 89.38 105.25 88.75Q107.25 88.13 109.25 87.38L109.25 87.38Q111.13 86.75 113.06 86.13Q115 85.50 116.88 84.75L116.88 84.75Q117 84.75 117.13 84.75Q117.25 84.75 117.38 84.63L117.38 84.63L117.38 84.25Q117.38 80.25 117.38 76.25Q117.38 72.25 117.38 68.25L117.38 68.25Q117.38 68.13 117.31 67.94Q117.25 67.75 117.13 67.50L117.13 67.50Q116.50 66.75 115.94 65.94Q115.38 65.13 114.75 64.38L114.75 64.38ZM114.50 14.63L114.25 14.38Q113.88 13.88 113.31 13.69Q112.75 13.50 112 13.63L112 13.63Q111.75 13.75 111.44 13.81Q111.13 13.88 110.75 13.88L110.75 13.88Q109.75 14.13 108.75 14.31Q107.75 14.50 106.75 14.63L106.75 14.63Q105.25 14.88 103.75 15.19Q102.25 15.50 100.88 15.75L100.88 15.75Q99.63 15.88 98.44 16.13Q97.25 16.38 96.13 16.50L96.13 16.50L89.88 17.63Q89.63 17.63 89.44 17.69Q89.25 17.75 89 17.88L89 17.88Q88.75 17.88 88.69 18.06Q88.63 18.25 88.75 18.50L88.75 18.50Q88.88 18.75 89 18.94Q89.13 19.13 89.25 19.38L89.25 19.38Q90.25 20.63 91.19 22Q92.13 23.38 93.13 24.75L93.13 24.75Q94.50 26.50 95.88 28.38Q97.25 30.25 98.50 32.13L98.50 32.13Q99.75 33.63 100.88 35.19Q102 36.75 103.13 38.38L103.13 38.38Q104 39.63 104.94 40.81Q105.88 42 106.75 43.25L106.75 43.25L107 43.50Q109.50 42.88 112.13 42.25Q114.75 41.63 117.38 41L117.38 41L117.38 40.38Q117.38 35 117.38 29.63Q117.38 24.25 117.38 18.75L117.38 18.75Q117.38 18.63 117.31 18.38Q117.25 18.13 117.13 18L117.13 18Q116.50 17.13 115.81 16.31Q115.13 15.50 114.50 14.63L114.50 14.63ZM117.25 49.38L117.13 49.38Q115.88 49.63 114.69 49.88Q113.50 50.13 112.38 50.50L112.38 50.50Q112.50 50.75 114.75 53.81Q117 56.88 117.25 57L117.25 57L117.38 57.13L117.38 56.75L117.38 54.25Q117.38 53.13 117.38 52.06Q117.38 51 117.38 49.88L117.38 49.88Q117.38 49.75 117.38 49.63Q117.38 49.50 117.25 49.38L117.25 49.38ZM23.50 127L12.88 127L12.88 109.88L16.63 109.88L16.63 124L23.50 124L23.50 127ZM40.88 127L37 127L35.75 122.88L29.50 122.88L28.25 127L24.38 127L30.38 109.75L34.88 109.75L40.88 127ZM34.88 119.88L34.88 119.88Q34 117.13 33.50 115.56Q33 114 32.88 113.63L32.88 113.63Q32.88 113.25 32.75 112.94Q32.63 112.63 32.63 112.50L32.63 112.50Q32.38 113.25 31.88 115.06Q31.38 116.88 30.38 119.88L30.38 119.88L34.88 119.88ZM46.63 120.38L46.63 120.38L46.63 127L43 127L43 109.88L48 109.88Q49.75 109.88 51.06 110.19Q52.38 110.50 53.25 111.13L53.25 111.13Q54 111.75 54.44 112.75Q54.88 113.75 54.88 115L54.88 115Q54.88 115.75 54.69 116.44Q54.50 117.13 54 117.75L54 117.75Q53.63 118.25 53.06 118.75Q52.50 119.25 51.75 119.50L51.75 119.50Q53.63 122.38 54.88 124.25Q56.13 126.13 56.75 127L56.75 127L52.75 127L48.63 120.38L46.63 120.38ZM46.63 117.50L46.63 117.50L47.88 117.50Q48.75 117.50 49.38 117.31Q50 117.13 50.38 116.88L50.38 116.88Q50.75 116.63 51 116.19Q51.25 115.75 51.25 115.13L51.25 115.13Q51.25 114.50 51 114.06Q50.75 113.63 50.38 113.38L50.38 113.38Q50 113.13 49.31 113Q48.63 112.88 47.75 112.88L47.75 112.88L46.63 112.88L46.63 117.50ZM69.38 127L69.38 127L68.13 122.88L61.88 122.88L60.63 127L56.75 127L62.75 109.75L67.25 109.75L73.25 127L69.38 127ZM67.25 119.88L67.25 119.88Q66.38 117.13 65.94 115.56Q65.50 114 65.38 113.63L65.38 113.63Q65.25 113.25 65.19 112.94Q65.13 112.63 65 112.50L65 112.50Q64.88 113.25 64.31 115.06Q63.75 116.88 62.75 119.88L62.75 119.88L67.25 119.88ZM85.25 109.88L85.25 109.88L88.88 109.88L83.13 127L79.13 127L73.25 109.88L77 109.88L80.13 120Q80.38 120.50 80.50 121.06Q80.63 121.63 80.75 122.13L80.75 122.13Q80.88 122.75 81 123.19Q81.13 123.63 81.13 123.88L81.13 123.88Q81.13 123.25 81.38 122.31Q81.63 121.38 82 120.13L82 120.13L85.25 109.88ZM100.88 127L100.88 127L91 127L91 109.88L100.88 109.88L100.88 112.88L94.63 112.88L94.63 116.63L100.50 116.63L100.50 119.63L94.63 119.63L94.63 124L100.88 124L100.88 127ZM115.13 127L104.50 127L104.50 109.88L108.13 109.88L108.13 124L115.13 124L115.13 127Z"/></svg>