<svg xmlns="http://www.w3.org/2000/svg" xmlns:xlink="http://www.w3.org/1999/xlink" width="128" height="128"><path fill="#000000" d="M116.50 6.63L116.50 6.63Q115.13 9.88 113.38 12.94Q111.63 16 109.63 18.75L109.63 18.75Q105.13 14.25 99.88 10.75L99.88 10.75Q94.63 7.25 88.81 4.88Q83 2.50 76.75 1.25L76.75 1.25Q70.63 0 64.25 0L64.25 0Q51 0 39.38 5L39.38 5Q27.63 10.13 18.88 18.88Q10.13 27.63 5.13 39.38L5.13 39.38Q0 51 0 64.25L0 64.25Q0 70.88 1.38 77.25L1.38 77.25Q2.63 83.63 5.19 89.56Q7.75 95.50 11.50 100.88L11.50 100.88Q15.13 106.25 20 110.75L20 110.75L22.38 112.88Q26.63 116.50 31.50 119.38L31.50 119.38Q36.38 122.25 41.63 124.13Q46.88 126 52.50 127L52.50 127Q58 128 63.63 128L63.63 128Q76.25 128 87.50 123.38L87.50 123.38Q98.75 118.75 107.38 110.69Q116 102.63 121.38 91.75L121.38 91.75Q126.75 80.88 127.75 68.38L127.75 68.38Q128.38 62.25 127.88 55.25L127.88 55.25Q127.25 48.38 125.75 40.63Q124.25 32.88 121.88 24.38L121.88 24.38Q119.50 15.88 116.50 6.63L116.50 6.63ZM29.13 111.13L29.13 111.13Q28.25 112.13 27.13 112.69Q26 113.25 24.75 113.25L24.75 113.25Q22.50 113.25 20.88 111.63Q19.25 110 19.25 107.75L19.25 107.75Q19.25 105.50 20.88 103.88Q22.50 102.25 24.75 102.25L24.75 102.25Q25.75 102.25 26.63 102.56Q27.50 102.88 28.25 103.38L28.25 103.38Q30 104.88 30.25 107.13Q30.50 109.38 29.13 111.13L29.13 111.13ZM116.13 91.88L116.13 91.88Q110.25 99.88 101.38 103L101.38 103Q92.50 106.25 82.69 107Q72.88 107.75 62.88 107.13L62.88 107.13Q53 106.63 44.75 107L44.75 107Q44.75 107 42.38 107.19Q40 107.38 37.13 107.88L37.13 107.88Q37.13 107.88 38.06 107.44Q39 107 40.38 106.50L40.38 106.50Q51.88 102.50 58.50 100.75Q65.13 99 72.13 95.38L72.13 95.38Q78.63 92.13 84.88 86.88L84.88 86.88Q91.25 81.75 96.44 75.38Q101.63 69 105.25 61.75L105.25 61.75Q109 54.50 110.38 46.88L110.38 46.88Q107.88 54.25 103.13 60.88L103.13 60.88Q98.25 67.50 92.19 73.13Q86.13 78.75 79.13 83L79.13 83Q72.13 87.25 65.25 89.88L65.25 89.88Q60.63 91.63 54.50 93.25L54.50 93.25Q48.38 94.88 42.94 96.13Q37.50 97.38 33.75 98.25L33.75 98.25Q30 99 30 99L30 99L29.13 98.50Q23.38 95.63 20.50 88.75L20.50 88.75Q17.75 81.88 18.88 73.88Q20 65.88 25.38 58.25L25.38 58.25Q30.75 50.75 41.25 46.75L41.25 46.75Q50.50 43.13 59.56 43.44Q68.63 43.75 78.63 41.38L78.63 41.38Q83.88 40.13 89.50 37.63L89.50 37.63Q95 35 100 31.38Q105 27.75 109.25 23.25L109.25 23.25Q113.38 18.75 115.88 13.50L115.88 13.50Q118.63 21.88 121.25 32.13L121.25 32.13Q124 42.38 124.88 53Q125.75 63.63 124 73.75L124 73.75Q122.25 83.88 116.13 91.88L116.13 91.88Z"/></svg>