<svg xmlns="http://www.w3.org/2000/svg" xmlns:xlink="http://www.w3.org/1999/xlink" width="128" height="128"><path fill="#ffffff" d="M9.38 70.88L9.38 70.88Q9.13 70.88 8.63 70.75Q8.13 70.63 7.63 70.50L7.63 70.50L6.25 70.13L7.63 67.75L7.13 67.13Q6.50 66.38 5.94 65.19Q5.38 64 5.38 63.50L5.38 63.50Q5.38 62.38 6.63 60.94Q7.88 59.50 9.75 58.63L9.75 58.63Q11 58 12.06 58Q13.13 58 14.38 58.63L14.38 58.63L15.63 59.13L16 58.63Q16.13 58.38 16.25 58.19Q16.38 58 16.38 57.88L16.38 57.88Q16.38 57.75 16.44 57.63Q16.50 57.50 16.63 57.50L16.63 57.50Q16.88 57.50 16.94 57.56Q17 57.63 17 57.63L17 57.63Q17 57.75 16.31 59.56Q15.63 61.38 15.50 61.50L15.50 61.50Q15.50 61.50 15.25 61.38Q15 61.25 14.63 61.13L14.63 61.13Q13.75 60.50 12.63 60.19Q11.50 59.88 10.63 59.88L10.63 59.88Q8.50 59.75 7.88 61.44Q7.25 63.13 8.75 65L8.75 65L9.50 65.88L11.38 64.25Q13 63 13.63 62.88Q14.25 62.75 15.50 63.63L15.50 63.63Q16.88 64.63 16.94 66.06Q17 67.50 15.63 69L15.63 69Q14.38 70.38 13 70.81Q11.63 71.25 9.38 70.88L9.38 70.88L9.38 70.88ZM14.25 68.88L14.25 68.88Q15 68.38 14.94 67.44Q14.88 66.50 14.13 65.75L14.13 65.75Q13.13 64.75 12.50 64.81Q11.88 64.88 10.13 66.25L10.13 66.25Q8.50 67.75 8.56 68.06Q8.63 68.38 10.63 69L10.63 69Q12 69.38 12.88 69.38Q13.75 69.38 14.25 68.88L14.25 68.88ZM32.50 76.13L32.50 76.13Q32 76 30.88 75.50Q29.75 75 28.63 74.50L28.63 74.50Q25.63 73.25 24.69 73.19Q23.75 73.13 22.88 74.25L22.88 74.25Q22.75 74.50 22.56 74.63Q22.38 74.75 22.25 74.63L22.25 74.63Q22.13 74.50 22.56 73.75Q23 73 23.63 72.38L23.63 72.38Q24.25 71.88 24.56 71.75Q24.88 71.63 25.50 71.75L25.50 71.75Q25.88 71.75 27 72.13Q28.13 72.50 29.38 73.13L29.38 73.13Q32.13 74.25 33.25 74.56Q34.38 74.88 35.38 74.88L35.38 74.88Q36.63 74.88 37.25 74.13Q37.88 73.38 37.38 72.25L37.38 72.25Q37.38 71.88 37.38 71.75Q37.38 71.63 37.63 71.63L37.63 71.63Q38 71.63 38.13 72.69Q38.25 73.75 38 74.50L38 74.50Q37.88 74.88 37.56 75.31Q37.25 75.75 37 76L37 76Q36.63 76.38 36.19 76.44Q35.75 76.50 35 76.50L35 76.50Q34.50 76.50 33.75 76.38Q33 76.25 32.50 76.13L32.50 76.13L32.50 76.13ZM23.13 70.50L23.13 70.50Q22.13 70 21.13 69.06Q20.13 68.13 19.63 67L19.63 67Q18.63 65.13 18.94 63.75Q19.25 62.38 21.13 60.75L21.13 60.75Q22.50 59.38 23.88 58.81Q25.25 58.25 26.88 58.25L26.88 58.25Q28 58.25 28.50 58.38Q29 58.50 29.75 59L29.75 59Q31.50 60.13 31.94 62.13Q32.38 64.13 31.25 66.38L31.25 66.38Q30 69.13 27.63 70.31Q25.25 71.50 23.13 70.50L23.13 70.50ZM28.13 68.75L28.13 68.75Q29 68.38 29.50 66.81Q30 65.25 29.75 63.63L29.75 63.63Q29.38 61.63 27.25 60.56Q25.13 59.50 23.25 60.38L23.25 60.38Q21.25 61.13 21.25 63.13Q21.25 65.13 23.13 67.25L23.13 67.25Q24.50 68.63 25.69 69Q26.88 69.38 28.13 68.75L28.13 68.75L28.13 68.75ZM33.25 71L33.25 71Q33.25 70.88 33.50 70.75Q33.75 70.63 34.13 70.63L34.13 70.63L35 70.38L35.25 67Q35.38 64.25 35.31 61.94Q35.25 59.63 34.88 59.25L34.88 59.25Q34.75 59.13 34.50 59Q34.25 58.88 34 58.75L34 58.75Q32.75 58.50 33.44 58.31Q34.13 58.13 36.50 58.13L36.50 58.13Q38.88 58.13 39.63 58.31Q40.38 58.50 39.25 58.75L39.25 58.75Q38.25 59 38.06 59.69Q37.88 60.38 37.88 64.38L37.88 64.38Q37.88 66.50 37.94 68Q38 69.50 38.13 69.75L38.13 69.75Q38.38 70 38.69 70.13Q39 70.25 39.88 70.25L39.88 70.25Q41.75 70.25 42.56 69.69Q43.38 69.13 43.88 67.50L43.88 67.50Q44 67 44.31 67.06Q44.63 67.13 44.50 67.63L44.50 67.63Q44.38 67.75 44.31 68.38Q44.25 69 44.13 69.63L44.13 69.63L44 71.25L38.63 71.25Q36.38 71.25 34.81 71.19Q33.25 71.13 33.25 71L33.25 71L33.25 71L33.25 71ZM61.38 71L61.38 71Q61.38 70.75 61.50 70.63Q61.63 70.50 61.75 70.38L61.75 70.38Q62 70.38 62.19 70.06Q62.38 69.75 62.38 69.25L62.38 69.25Q62.50 68.25 62.44 63.75Q62.38 59.25 62.13 58.63L62.13 58.63Q62 58.38 62.38 58.06Q62.75 57.75 64.13 57.13L64.13 57.13Q65.25 56.50 65.81 56.31Q66.38 56.13 66.50 56.25L66.50 56.25Q66.50 56.38 66.38 56.63Q66.25 56.88 65.88 57L65.88 57L65.25 57.63L65.13 69.75L65.75 70.25Q66 70.50 66.13 70.69Q66.25 70.88 66.25 71.13L66.25 71.13Q66.13 71.38 65.63 71.44Q65.13 71.50 63.75 71.50L63.75 71.50Q62 71.50 61.69 71.44Q61.38 71.38 61.38 71L61.38 71L61.38 71ZM69.25 71L69.25 71Q68.88 70.88 68.50 70.38Q68.13 69.88 67.88 69.38L67.88 69.38Q67.50 68.75 67.44 68.25Q67.38 67.75 67.38 66.75L67.38 66.75Q67.50 65.75 67.63 65.31Q67.75 64.88 68.25 64.25L68.25 64.25Q68.88 63.50 70 62.69Q71.13 61.88 71.75 61.63L71.75 61.63Q72.63 61.50 73.88 62.56Q75.13 63.63 74.88 64.38L74.88 64.38Q74.75 64.50 74.44 64.75Q74.13 65 73.63 65.25L73.63 65.25L72.63 65.63L72.25 64.88Q71.88 64.25 71.25 63.81Q70.63 63.38 70.38 63.63L70.38 63.63Q70.25 63.75 70.13 64.13Q70 64.50 70 64.88L70 64.88Q69.75 65.88 70 66.81Q70.25 67.75 70.75 68.50L70.75 68.50Q71.38 69.25 72 69.31Q72.63 69.38 73.63 68.88L73.63 68.88Q74.13 68.63 74.38 68.56Q74.63 68.50 74.75 68.75L74.75 68.75Q74.88 68.88 74.69 69.19Q74.50 69.50 74 70L74 70Q72.63 71.25 71.44 71.50Q70.25 71.75 69.25 71L69.25 71L69.25 71ZM75.75 70.25L75.75 70.25Q76 70.13 76.19 69.88Q76.38 69.63 76.38 69L76.38 69Q76.50 68.13 76.44 63.63Q76.38 59.13 76.13 58.50L76.13 58.50Q76 58.25 76.38 57.94Q76.75 57.63 78.13 56.88L78.13 56.88Q79.88 56 80.38 56.06Q80.88 56.13 79.88 57L79.88 57Q79.38 57.50 79.25 57.94Q79.13 58.38 79.13 60.13L79.13 60.13Q79.13 61.25 79.06 62.19Q79 63.13 79 63.50L79 63.50L78.75 64.25L79.75 63.38Q80.63 62.63 81.38 62.19Q82.13 61.75 82.50 61.75L82.50 61.75Q82.88 61.75 83.63 62.44Q84.38 63.13 84.75 63.75L84.75 63.75Q85 64.13 85 64.81Q85 65.50 85 67.13L85 67.13Q84.88 69.13 84.88 69.50Q84.88 69.88 85.38 70.13L85.38 70.13Q85.88 70.38 85.94 70.50Q86 70.63 85.88 70.88L85.88 70.88Q85.75 71.13 85.31 71.19Q84.88 71.25 83.38 71.25L83.38 71.25Q81.50 71.25 81.19 71.06Q80.88 70.88 81.63 70.25L81.63 70.25Q82.38 69.50 82.44 67.25Q82.50 65 81.75 64.25L81.75 64.25Q81.38 64 81.25 63.94Q81.13 63.88 80.63 64.13L80.63 64.13Q79.88 64.63 79.50 65.50Q79.13 66.38 79 67.88L79 67.88Q79 69.25 79.19 69.69Q79.38 70.13 80.13 70.38L80.13 70.38Q80.25 70.38 80.25 70.56Q80.25 70.75 80.13 70.88L80.13 70.88Q80.13 71.13 79.63 71.19Q79.13 71.25 77.63 71.25L77.63 71.25Q77.13 71.50 75.88 71.25Q74.63 71 75.75 70.25L75.75 70.25L75.75 70.25ZM89 71L89 71Q86 68.75 87.31 65.44Q88.63 62.13 92 61.63L92 61.63Q92.25 61.63 92.75 61.94Q93.25 62.25 93.63 62.63L93.63 62.63Q94.75 63.63 94.50 64.19Q94.25 64.75 92.13 65.75L92.13 65.75Q91.25 66.13 90.56 66.50Q89.88 66.88 89.75 67.13L89.75 67.13Q89.75 67.50 90.25 68.19Q90.75 68.88 91.38 69.13L91.38 69.13Q91.88 69.25 92.19 69.25Q92.50 69.25 93.13 68.88L93.13 68.88Q93.63 68.50 93.94 68.44Q94.25 68.38 94.38 68.63L94.38 68.63Q94.75 69 93.13 70.25Q91.50 71.50 90.50 71.50L90.50 71.50Q90.25 71.50 89.81 71.38Q89.38 71.25 89 71L89 71ZM90.88 65.25L90.88 65.25Q91.75 64.75 91.81 64.44Q91.88 64.13 91.13 63.75L91.13 63.75Q90.63 63.50 90.44 63.50Q90.25 63.50 90 63.88L90 63.88Q89.63 64.25 89.56 65Q89.50 65.75 89.75 65.75L89.75 65.75Q89.75 65.75 90.06 65.63Q90.38 65.50 90.88 65.25L90.88 65.25ZM95.38 71L95.38 71Q95.38 70.88 95.50 70.63Q95.63 70.38 95.88 70.25L95.88 70.25Q96.38 69.75 96.50 68Q96.63 66.25 96.25 64.75L96.25 64.75Q95.88 63.50 96 63.25Q96.13 63 97.38 62.25L97.38 62.25Q98.25 61.75 98.63 61.94Q99 62.13 99 63.13L99 63.13L99 64.13L99.88 63.38Q100.13 63.13 100.63 62.75Q101.13 62.38 101.50 62.13L101.50 62.13Q102 61.88 102.25 61.88Q102.50 61.88 103 62.13L103 62.13Q103.25 62.25 103.63 62.63Q104 63 104.25 63.38L104.25 63.38L104.75 64.25L105.88 63.13Q106.38 62.75 106.94 62.38Q107.50 62 107.75 61.88L107.75 61.88Q108.25 61.75 108.94 62.13Q109.63 62.50 110.13 63.38L110.13 63.38Q110.50 64 110.56 64.50Q110.63 65 110.63 67L110.63 67Q110.50 69 110.56 69.38Q110.63 69.75 111 70.13L111 70.13Q111.38 70.38 111.50 70.63Q111.63 70.88 111.50 71L111.50 71Q111.38 71.25 110.94 71.31Q110.50 71.38 109.13 71.38L109.13 71.38Q107.50 71.38 107.19 71.31Q106.88 71.25 106.88 70.88L106.88 70.88Q106.88 70.75 107 70.56Q107.13 70.38 107.25 70.38L107.25 70.38Q107.75 70.13 107.88 69.50Q108 68.88 108 67L108 67Q108 65.75 107.94 65.25Q107.88 64.75 107.50 64.50L107.50 64.50Q107.13 64 106.75 64Q106.38 64 105.88 64.63L105.88 64.63Q104.75 65.75 104.69 68.06Q104.63 70.38 105.75 70.38L105.75 70.38Q105.88 70.38 105.94 70.50Q106 70.63 106 70.88L106 70.88Q105.88 71.25 105.50 71.31Q105.13 71.38 103.50 71.38L103.50 71.38Q101.50 71.38 101.19 71.13Q100.88 70.88 101.75 70L101.75 70Q102.13 69.63 102.19 69.19Q102.25 68.75 102.25 67.38L102.25 67.38Q102.25 66 102.19 65.50Q102.13 65 101.75 64.63L101.75 64.63Q101.38 64 101 64Q100.63 64 100.13 64.63L100.13 64.63Q99.50 65.25 99.25 66.06Q99 66.88 99 68.25L99 68.25Q99 69 99.13 69.38Q99.25 69.75 99.63 70.13L99.63 70.13Q100.38 70.88 100 71.13Q99.63 71.38 97.63 71.38L97.63 71.38Q96.25 71.38 95.81 71.31Q95.38 71.25 95.38 71L95.38 71L95.38 71ZM120 77.63L120 77.63Q120 77.63 120.13 77.31Q120.25 77 120.38 76.63L120.38 76.63Q120.50 76.25 120.63 75.94Q120.75 75.63 120.75 75.50L120.75 75.50Q120.75 75.13 117 75.31Q113.25 75.50 112.38 76L112.38 76Q112.25 76.13 112.06 76.31Q111.88 76.50 111.75 76.75L111.75 76.75Q111.63 77.13 111.31 77.19Q111 77.25 111 76.88L111 76.88Q111 76.75 111.13 76.31Q111.25 75.88 111.38 75.50L111.38 75.50Q111.63 74.75 112.06 74.25Q112.50 73.75 113.63 72.75L113.63 72.75Q114.50 72.13 115.06 71.63Q115.63 71.13 115.75 71L115.75 71Q115.75 70.88 115.19 69.75Q114.63 68.63 113.88 67.13L113.88 67.13L111.88 63.38L113.88 62.38Q114.75 62 115.44 61.75Q116.13 61.50 116.25 61.50L116.25 61.50Q116.50 61.50 116.44 61.81Q116.38 62.13 115.88 62.50L115.88 62.50Q115.63 62.63 115.44 62.88Q115.25 63.13 115.25 63.25L115.25 63.25Q115.25 63.63 116.56 66.25Q117.88 68.88 118.13 68.88L118.13 68.88Q118.13 68.88 118.38 68.56Q118.63 68.25 118.88 67.88L118.88 67.88Q119.25 67.25 119.38 66.88Q119.50 66.50 119.50 65.88L119.50 65.88Q119.50 65.25 119.31 65Q119.13 64.75 118.38 64.25L118.38 64.25Q118 64 117.69 63.69Q117.38 63.38 117.38 63.25L117.38 63.25Q117.38 63.13 117.69 62.81Q118 62.50 118.38 62.25L118.38 62.25L119.38 61.63L120.25 62.13Q121.50 62.75 121.88 64.13Q122.25 65.50 121.50 66.88L121.50 66.88Q121.13 67.50 119.50 69.19Q117.88 70.88 116.13 72.38L116.13 72.38L114.88 73.38L115.88 73.25Q116.25 73.13 117.31 73.13Q118.38 73.13 119.50 73L119.50 73Q121.63 73 122.13 73.19Q122.63 73.38 122.63 74.13L122.63 74.13Q122.63 74.50 121.69 76.06Q120.75 77.63 120.38 77.63L120.38 77.63Q120.25 77.63 120.13 77.63Q120 77.63 120 77.63L120 77.63L120 77.63ZM45.38 70.88L45.38 70.88Q45.38 70.75 45.50 70.56Q45.63 70.38 45.88 70.38L45.88 70.38Q46.25 70.13 46.56 69.69Q46.88 69.25 47.63 67.75L47.63 67.75Q48.75 65.50 50.25 62.38Q51.75 59.25 51.88 58.63L51.88 58.63Q52 58.13 52.13 58.06Q52.25 58 52.75 57.88L52.75 57.88Q53.13 57.88 53.31 57.88Q53.50 57.88 53.50 57.88L53.50 57.88Q53.50 57.88 53.88 58.63Q54.25 59.38 54.75 60.50L54.75 60.50Q55.25 61.63 56.06 63.38Q56.88 65.13 57.63 66.63L57.63 66.63Q58.88 69 59.19 69.56Q59.50 70.13 60 70.38L60 70.38Q60.25 70.50 60.38 70.63Q60.50 70.75 60.50 70.88L60.50 70.88Q60.50 71.13 60.06 71.13Q59.63 71.13 57.88 71.13L57.88 71.13Q56 71.13 55.56 71.13Q55.13 71.13 55.13 70.88L55.13 70.88Q55.13 70.75 55.25 70.63Q55.38 70.50 55.63 70.50L55.63 70.50Q55.88 70.38 56.06 70.25Q56.25 70.13 56.25 70L56.25 70Q56.25 70 56 69.44Q55.75 68.88 55.50 68.13L55.50 68.13L54.75 66.50L49.38 66.50L48.88 67.63Q48.13 69.25 48.13 69.75Q48.13 70.25 48.75 70.50L48.75 70.50Q49.13 70.50 49.25 70.63Q49.38 70.75 49.38 70.88L49.38 70.88Q49.25 71.13 48.94 71.13Q48.63 71.13 47.25 71.13L47.25 71.13Q46 71.13 45.69 71.13Q45.38 71.13 45.38 70.88L45.38 70.88L45.38 70.88ZM54.25 65.50L54.25 65.50Q54.38 65.50 53.31 63.25Q52.25 61 52.13 60.88L52.13 60.88Q52 60.88 50.94 63.06Q49.88 65.25 49.88 65.50L49.88 65.50Q49.88 65.63 52 65.63Q54.13 65.63 54.25 65.50L54.25 65.50Z"/></svg>