<svg xmlns="http://www.w3.org/2000/svg" xmlns:xlink="http://www.w3.org/1999/xlink" width="128" height="128"><path fill="#ffffff" d="M15.63 77.38L15.63 77.38Q15.13 77.38 14 77.06Q12.88 76.75 11.88 76.50L11.88 76.50L9.25 75.75L10.63 73.38L11.88 70.88L10.88 69.63Q9.63 68.13 8.50 65.69Q7.38 63.25 7.38 62.25L7.38 62.25Q7.38 60 10 57.06Q12.63 54.13 16.25 52.25L16.25 52.25Q18.75 51 20.94 51Q23.13 51 25.75 52.13L25.75 52.13L28.25 53.38L29 52.25Q29.25 51.88 29.50 51.38Q29.75 50.88 29.75 50.63L29.75 50.63Q29.75 50.38 29.94 50.19Q30.13 50 30.50 50L30.50 50Q30.75 50 31 50.06Q31.25 50.13 31.25 50.25L31.25 50.25Q31.25 50.50 29.75 54.25Q28.25 58 28 58.13L28 58.13Q28 58.25 27.50 58Q27 57.75 26.25 57.38L26.25 57.38Q24.38 56.25 22.13 55.56Q19.88 54.88 18 54.75L18 54.75Q13.63 54.63 12.38 58.06Q11.13 61.50 14.25 65.25L14.25 65.25L15.63 67L19.63 63.88Q23 61.13 24.19 60.94Q25.38 60.75 28 62.63L28 62.63Q30.88 64.63 30.94 67.50Q31 70.38 28.25 73.63L28.25 73.63Q25.75 76.38 22.88 77.25Q20 78.13 15.63 77.38L15.63 77.38ZM25.50 73.38L25.50 73.38Q27 72.25 26.94 70.38Q26.88 68.50 25.25 66.75L25.25 66.75Q23.25 64.75 21.94 64.94Q20.63 65.13 17.25 68L17.25 68Q13.75 70.88 13.88 71.50Q14 72.13 18.13 73.38L18.13 73.38Q20.75 74.38 22.56 74.31Q24.38 74.25 25.50 73.38ZM62.88 88.13L62.88 88.13Q61.88 87.75 59.56 86.81Q57.25 85.88 55 84.88L55 84.88Q48.88 82.13 46.94 82.06Q45 82 43.25 84.13L43.25 84.13Q42.75 84.63 42.38 84.94Q42 85.25 41.88 85.13L41.88 85.13Q41.50 84.75 42.44 83.19Q43.38 81.63 44.75 80.38L44.75 80.38Q45.88 79.38 46.56 79.19Q47.25 79 48.50 79.13L48.50 79.13Q49.25 79.13 51.56 79.94Q53.88 80.75 56.38 81.88L56.38 81.88Q62 84.25 64.31 84.94Q66.63 85.63 68.75 85.63L68.75 85.63Q71.38 85.63 72.56 84.06Q73.75 82.50 72.88 80L72.88 80Q72.75 79.50 72.81 79.25Q72.88 79 73.25 79L73.25 79Q74 79 74.31 81.13Q74.63 83.25 74 84.88L74 84.88Q73.88 85.63 73.25 86.44Q72.63 87.25 72 87.75L72 87.75Q71.13 88.50 70.38 88.75Q69.63 89 67.88 89L67.88 89Q66.75 89 65.31 88.75Q63.88 88.50 62.88 88.13L62.88 88.13ZM43.75 76.63L43.75 76.63Q41.50 75.63 39.56 73.69Q37.63 71.75 36.38 69.38L36.38 69.38Q34.50 65.63 35.19 62.81Q35.88 60 39.50 56.75L39.50 56.75Q42.50 53.88 45.19 52.75Q47.88 51.63 51.25 51.63L51.25 51.63Q53.63 51.63 54.63 51.88Q55.63 52.13 57.13 53L57.13 53Q60.88 55.25 61.69 59.38Q62.50 63.50 60.38 68.13L60.38 68.13Q57.75 73.75 52.94 76.19Q48.13 78.63 43.75 76.63ZM53.88 73.13L53.88 73.13Q55.63 72.25 56.63 69Q57.63 65.75 57.13 62.50L57.13 62.50Q56.50 58.50 52.19 56.31Q47.88 54.13 43.88 55.75L43.88 55.75Q39.75 57.50 39.75 61.56Q39.75 65.63 43.75 69.88L43.75 69.88Q46.50 72.75 49 73.56Q51.50 74.38 53.88 73.13ZM64.25 77.63L64.25 77.63Q64.25 77.50 64.81 77.19Q65.38 76.88 66.13 76.75L66.13 76.75L68 76.25L68.38 69.50Q68.75 63.88 68.56 59.06Q68.38 54.25 67.75 53.63L67.75 53.63Q67.50 53.25 66.94 53Q66.38 52.75 65.75 52.63L65.75 52.63Q63.25 52 64.75 51.69Q66.25 51.38 71 51.38L71 51.38Q75.88 51.38 77.31 51.69Q78.75 52 76.50 52.63L76.50 52.63Q74.50 53.13 74.19 54.56Q73.88 56 73.88 64L73.88 64Q73.88 68.50 74 71.56Q74.13 74.63 74.38 75L74.38 75Q74.63 75.63 75.31 75.81Q76 76 77.88 76L77.88 76Q81.75 76 83.38 74.88Q85 73.75 86.13 70.38L86.13 70.38Q86.38 69.38 86.94 69.50Q87.50 69.63 87.25 70.63L87.25 70.63Q87.13 71.13 86.94 72.38Q86.75 73.63 86.63 74.88L86.63 74.88L86.25 78L75.25 78Q70.75 78 67.50 77.88Q64.25 77.75 64.25 77.63L64.25 77.63ZM89.25 77.25L89.25 77.25Q89.25 77 89.50 76.69Q89.75 76.38 90.25 76.25L90.25 76.25Q90.88 75.88 91.56 74.94Q92.25 74 93.75 71L93.75 71Q96.13 66.25 99.13 59.88Q102.13 53.50 102.50 52.25L102.50 52.25Q102.75 51.38 103.06 51.13Q103.38 50.88 104.38 50.75L104.38 50.75Q105 50.75 105.44 50.69Q105.88 50.63 105.88 50.63L105.88 50.63Q105.88 50.75 106.56 52.31Q107.25 53.88 108.38 56.13L108.38 56.13Q109.38 58.38 111.13 62Q112.88 65.63 114.25 68.63L114.25 68.63Q116.75 73.50 117.50 74.69Q118.25 75.88 119 76.25L119 76.25Q119.50 76.50 119.88 76.81Q120.25 77.13 120.25 77.38L120.25 77.38Q120.25 77.75 119.31 77.81Q118.38 77.88 114.63 77.88L114.63 77.88Q111 77.88 110.06 77.81Q109.13 77.75 109.13 77.38L109.13 77.38Q109.13 77.13 109.44 76.88Q109.75 76.63 110.25 76.50L110.25 76.50Q110.75 76.38 111.06 76.13Q111.38 75.88 111.38 75.63L111.38 75.63Q111.38 75.38 110.94 74.25Q110.50 73.13 109.88 71.75L109.88 71.75L108.50 68.25L97.38 68.25L96.38 70.63Q94.88 73.88 94.81 75Q94.75 76.13 96.13 76.50L96.13 76.50Q96.88 76.63 97.13 76.81Q97.38 77 97.25 77.38L97.25 77.38Q97.13 77.75 96.44 77.81Q95.75 77.88 93.13 77.88L93.13 77.88Q90.38 77.88 89.81 77.81Q89.25 77.75 89.25 77.25L89.25 77.25ZM107.38 66.50L107.38 66.50Q107.50 66.25 105.38 61.63Q103.25 57 103 57L103 57Q102.75 56.88 100.56 61.38Q98.38 65.88 98.38 66.38L98.38 66.38Q98.38 66.63 102.81 66.69Q107.25 66.75 107.38 66.50L107.38 66.50Z"/></svg>