<svg xmlns="http://www.w3.org/2000/svg" xmlns:xlink="http://www.w3.org/1999/xlink" width="128" height="128"><path fill="#ffffff" d="M90.63 76.13L90.63 76.13Q88.63 76 87.44 74.88Q86.25 73.75 85.88 71.50L85.88 71.50Q85.75 71 85.75 70.25Q85.75 69.50 85.75 65.75L85.75 65.75L85.75 61L88.13 61L88.13 65.63Q88.13 68.75 88.19 69.56Q88.25 70.38 88.25 70.63L88.25 70.63Q88.38 71.50 88.63 72.13Q88.88 72.75 89.25 73.25L89.25 73.25Q89.63 73.63 90 73.81Q90.38 74 91 74.13L91 74.13Q91.25 74.13 91.81 74.13Q92.38 74.13 92.63 74.13L92.63 74.13Q93.13 74 93.56 73.75Q94 73.50 94.38 73.13L94.38 73.13L94.38 73.13Q94.88 72.63 95.19 72.06Q95.50 71.50 95.63 70.75L95.63 70.75L95.75 70.38L95.75 61L98.13 61L98.13 75.88L95.75 75.88L95.75 74.63Q95.75 74 95.75 73.75Q95.75 73.50 95.75 73.50L95.75 73.50Q95.63 73.50 95.63 73.56Q95.63 73.63 95.63 73.63L95.63 73.63L95.63 73.75Q95.25 74.25 94.75 74.75Q94.25 75.25 93.75 75.50L93.75 75.50L93.75 75.63Q93 76 92.25 76.13Q91.50 76.25 90.63 76.13L90.63 76.13ZM118.25 76.13L118.25 76.13Q117.38 76.13 116.69 75.88Q116 75.63 115.38 75.25L115.38 75.25L115.38 75.25Q114.13 74.50 113.31 73.13Q112.50 71.75 112.38 70L112.38 70Q112.25 69.38 112.25 68.56Q112.25 67.75 112.25 67.25L112.25 67.25Q112.50 66.13 112.94 65Q113.38 63.88 114 63L114 63Q114.13 62.75 114.50 62.44Q114.88 62.13 115 61.88L115 61.88Q115.63 61.50 116.25 61.19Q116.88 60.88 117.63 60.63L117.63 60.63L117.75 60.63Q118.13 60.63 118.75 60.56Q119.38 60.50 119.88 60.50L119.88 60.50Q121 60.63 122 61.13Q123 61.63 123.63 62.50L123.63 62.50Q124.38 63.38 124.75 64.56Q125.13 65.75 125.25 67.13L125.25 67.13Q125.25 67.38 125.25 67.75Q125.25 68.13 125.25 68.38L125.25 68.38L125.25 69L114.63 69L114.63 69.25Q114.75 69.88 114.88 70.44Q115 71 115.13 71.50L115.13 71.50L115.13 71.50Q115.38 71.88 115.69 72.31Q116 72.75 116.25 73L116.25 73Q116.75 73.50 117.44 73.81Q118.13 74.13 118.88 74.13L118.88 74.13L118.88 74.13Q119.13 74.13 119.75 74.13Q120.38 74.13 120.63 74.13L120.63 74.13Q121.63 73.88 122.44 73.56Q123.25 73.25 124 72.75L124 72.75L123.88 72.75Q124 72.63 124.06 72.56Q124.13 72.50 124.13 72.50L124.13 72.50Q124.13 72.50 124.19 72.75Q124.25 73 124.25 73.63L124.25 73.63L124.25 74.75L124 74.88Q123.25 75.38 122.31 75.69Q121.38 76 120.50 76.13L120.50 76.13L120.38 76.13Q120.13 76.13 119.31 76.19Q118.50 76.25 118.25 76.13ZM122.75 67L122.75 66.75Q122.75 65.88 122.44 64.94Q122.13 64 121.50 63.50L121.50 63.50Q121.13 63.13 120.69 62.94Q120.25 62.75 119.75 62.63L119.75 62.63L119.75 62.63Q119.38 62.63 118.94 62.63Q118.50 62.63 118.25 62.63L118.25 62.63Q117.63 62.75 117.13 63.06Q116.63 63.38 116.25 63.75L116.25 63.75L116.25 63.75Q115.88 64.13 115.56 64.63Q115.25 65.13 115 65.75L115 65.75L115 65.75Q114.88 66 114.81 66.31Q114.75 66.63 114.75 66.88L114.75 66.88L114.75 67L122.75 67ZM51.38 75.75L51.38 75.75L59.25 55L61.88 55L62 55.25Q62.13 55.50 63.38 58.75L63.38 58.75Q64.63 62 66.06 65.81Q67.50 69.63 68.63 72.75L68.63 72.75Q69.88 75.75 69.88 75.75L69.88 75.75Q69.88 75.88 69.50 75.88Q69.13 75.88 68.50 75.88L68.50 75.88L67.13 75.88L66.13 72.88L65 70L56.13 70L56.13 70.13Q56.13 70.13 55.81 71Q55.50 71.88 55.13 73L55.13 73L54.13 75.88L52.75 75.88Q51.88 75.88 51.63 75.81Q51.38 75.75 51.38 75.75L51.38 75.75ZM64.13 67.75L64.13 67.75Q64.13 67.75 63.69 66.44Q63.25 65.13 62.50 63.38L62.50 63.38Q61.25 59.88 61 59.06Q60.75 58.25 60.63 57.75L60.63 57.75Q60.63 57.50 60.56 57.50Q60.50 57.50 60.50 57.75L60.50 57.75Q60.50 58 60.44 58.25Q60.38 58.50 60.25 58.75L60.25 58.75L60.25 58.75Q60.25 58.88 59.75 60.19Q59.25 61.50 58.63 63.38L58.63 63.38Q59.38 60.88 59.13 61.38Q58.88 61.88 58.50 62.88L58.50 62.88L57 67.75Q57 67.75 58.06 67.75Q59.13 67.75 60.63 67.75L60.63 67.75Q62 67.75 63.06 67.75Q64.13 67.75 64.13 67.75L64.13 67.75ZM70.75 75.88L70.75 75.50L70.75 75.13L79.50 63L71.50 63L71.50 62L71.50 61L83 61L83 61.63L78.63 67.75Q76.88 70.25 75.56 72Q74.25 73.75 74.25 73.75L74.25 73.75Q74.25 73.75 75.50 73.75Q76.75 73.75 78.63 73.75L78.63 73.75L82.88 73.75L82.88 75.88L70.75 75.88ZM103 75.75L103 75.75Q103 75.75 103 73.56Q103 71.38 103 68.38L103 68.38L103 61L105.38 61L105.38 62.50Q105.38 63.13 105.38 63.56Q105.38 64 105.38 64L105.38 64Q105.38 64 105.44 63.94Q105.50 63.88 105.50 63.75L105.50 63.75Q105.75 63.13 106.06 62.56Q106.38 62 106.88 61.63L106.88 61.63L106.88 61.63Q107.25 61.25 107.75 61Q108.25 60.75 108.75 60.75L108.75 60.75L108.75 60.63Q108.88 60.63 109.06 60.63Q109.25 60.63 109.50 60.63L109.50 60.63Q109.88 60.63 110.13 60.69Q110.38 60.75 110.63 60.75L110.63 60.75L110.75 60.88L110.75 63.38L110.50 63.25Q110.13 63 109.81 62.94Q109.50 62.88 109.13 62.88L109.13 62.88Q109 62.88 108.94 62.88Q108.88 62.88 108.88 62.88L108.88 62.88L108.88 62.88Q108.63 62.88 108.38 62.94Q108.13 63 107.88 63L107.88 63Q107.50 63.25 107.06 63.56Q106.63 63.88 106.38 64.25L106.38 64.25L106.38 64.25Q106 64.88 105.75 65.63Q105.50 66.38 105.38 67.13L105.38 67.13L105.38 67.13Q105.38 67.38 105.38 68.44Q105.38 69.50 105.38 71.63L105.38 71.63L105.38 75.88L104.13 75.88Q103.63 75.88 103.31 75.81Q103 75.75 103 75.75L103 75.75ZM30.38 44.63L16.88 44.63Q17.50 44.63 18 45Q18.50 45.38 18.75 45.88L18.75 45.88L18.75 45.88L30.50 80.75Q30.50 80.88 30.56 81Q30.63 81.13 30.63 81.38L30.63 81.38Q30.63 82.13 30 82.69Q29.38 83.25 28.63 83.25L28.63 83.25Q28.63 83.25 28.63 83.25Q28.63 83.25 28.63 83.25L28.63 83.25L42.13 83.25Q42.88 83.25 43.44 82.81Q44 82.38 44.13 81.63L44.13 81.63L44.13 81.63Q44.13 81.50 44.13 81.44Q44.13 81.38 44.13 81.38L44.13 81.38Q44.13 81.13 44.06 81Q44 80.88 44 80.75L44 80.75L44 80.75L32.25 45.88Q32 45.38 31.50 45Q31 44.63 30.38 44.63L30.38 44.63Q30.38 44.63 30.38 44.63Q30.38 44.63 30.38 44.63L30.38 44.63L30.38 44.63ZM16.50 44.75L16.50 44.75Q15.88 44.75 15.38 45.13Q14.88 45.50 14.63 46L14.63 46L14.63 46L2.88 80.88Q2.88 81 2.81 81.13Q2.75 81.25 2.75 81.50L2.75 81.50Q2.75 82.25 3.31 82.81Q3.88 83.38 4.75 83.38L4.75 83.38Q4.75 83.38 4.75 83.38Q4.75 83.38 4.75 83.38L4.75 83.38L14.13 83.38Q14.13 83.38 14.13 83.38Q14.13 83.38 14.13 83.38L14.13 83.38Q14.75 83.38 15.25 83Q15.75 82.63 16 82.13L16 82.13L16 82.13L18.25 75.38L13.88 71.13Q13.88 71 13.69 70.63Q13.50 70.25 13.75 69.75L13.75 69.75Q14 69.38 14.38 69.31Q14.75 69.25 14.75 69.25L14.75 69.25L20.38 69.25L23.38 60.75L18.25 45.75Q18.25 45.75 18.06 45.50Q17.88 45.25 17.50 45L17.50 45Q17.25 44.88 16.88 44.81Q16.50 44.75 16.50 44.75L16.50 44.75ZM26.50 69.50L14.88 69.50Q14.88 69.50 14.88 69.50Q14.88 69.50 14.88 69.50L14.88 69.50Q14.50 69.50 14.25 69.75Q14 70 14 70.38L14 70.38Q14 70.63 14.06 70.75Q14.13 70.88 14.25 71L14.25 71L14.25 71L26.63 82.63Q26.88 82.88 27.19 83Q27.50 83.13 27.88 83.13L27.88 83.13Q27.88 83.13 28.13 83.13Q28.38 83.13 28.63 83.13L28.63 83.13Q29 83 29.38 82.75Q29.75 82.50 30 82.38L30 82.38Q30.25 81.88 30.25 81.31Q30.25 80.75 30.25 80.75L30.25 80.75L26.50 69.50Z"/></svg>