<svg xmlns="http://www.w3.org/2000/svg" xmlns:xlink="http://www.w3.org/1999/xlink" width="128" height="128"><path fill="#000000" d="M85.38 4.63L44 4.63Q45.88 4.63 47.44 5.75Q49 6.88 49.63 8.63L49.63 8.63L49.63 8.63L85.50 115.13Q85.63 115.50 85.69 116Q85.75 116.50 85.75 117L85.75 117Q85.75 119.38 84.06 121.13Q82.38 122.88 79.88 122.88L79.88 122.88Q79.88 122.88 79.88 122.88Q79.88 122.88 79.88 122.88L79.88 122.88L121.25 122.88Q122.75 122.88 124 122.19Q125.25 121.50 126 120.38L126 120.38L126.13 120.38Q126.63 119.75 126.88 118.81Q127.13 117.88 127.13 117L127.13 117Q127.13 116.50 127.06 116Q127 115.50 126.88 115L126.88 115L126.88 115.13L91 8.63Q90.38 6.88 88.81 5.75Q87.25 4.63 85.38 4.63L85.38 4.63Q85.38 4.63 85.38 4.63Q85.38 4.63 85.38 4.63L85.38 4.63L85.38 4.63ZM42.63 5.13L42.63 5.13Q42.63 5.13 42.63 5.13Q42.63 5.13 42.63 5.13L42.63 5.13Q40.75 5.13 39.19 6.25Q37.63 7.38 37 9.13L37 9.13L37 9.13L1.13 115.50Q1 116 0.94 116.44Q0.88 116.88 0.88 117.50L0.88 117.50Q0.88 119.88 2.56 121.63Q4.25 123.38 6.75 123.38L6.75 123.38Q6.75 123.38 6.75 123.38Q6.75 123.38 6.75 123.38L6.75 123.38L35.63 123.38Q36.50 123.38 37.44 123.06Q38.38 122.75 39.13 122.25L39.13 122.25Q39.88 121.75 40.38 121Q40.88 120.25 41.25 119.38L41.25 119.38L41.25 119.38L48.25 98.63L34.88 85.75Q34.63 85.50 34.19 84.25Q33.75 83 34.50 81.75L34.50 81.75Q35.25 80.50 36.31 80.31Q37.38 80.13 37.38 80.13L37.38 80.13L54.75 80.13L63.75 54L48.25 8.38Q48.25 8.13 47.63 7.44Q47 6.75 46 6L46 6Q45 5.38 43.81 5.25Q42.63 5.13 42.63 5.13L42.63 5.13ZM73.25 80.88L37.75 80.88Q37.75 80.88 37.75 80.88Q37.75 80.88 37.75 80.88L37.75 80.88Q36.63 80.88 35.81 81.69Q35 82.50 35 83.63L35 83.63Q35 84.13 35.25 84.69Q35.50 85.25 35.88 85.63L35.88 85.63L35.88 85.63L73.75 120.88Q74.63 121.63 75.63 122.06Q76.63 122.50 77.75 122.50L77.75 122.50Q77.75 122.50 78.50 122.56Q79.25 122.63 79.75 122.50L79.75 122.50Q81.13 122.25 82.31 121.44Q83.50 120.63 83.88 120.13L83.88 120.13Q85 118.63 84.81 116.88Q84.63 115.13 84.63 115.13L84.63 115.13L73.25 80.88Z"/></svg>