<svg xmlns="http://www.w3.org/2000/svg" xmlns:xlink="http://www.w3.org/1999/xlink" width="128" height="128"><path fill="#000000" d="M34 22L34 22Q24 22 17 29Q10 36 10 46L10 46Q10 48.50 10.50 50.88Q11 53.25 12 55.50L12 55.50Q7.38 58.25 4.56 63Q1.75 67.75 1.75 73.38L1.75 73.38Q1.75 73.38 1.75 73.44Q1.75 73.50 1.75 73.50L1.75 73.50L1.75 73.50Q1.75 82.13 7.75 88.19Q13.75 94.25 22.25 94.25L22.25 94.25Q23.38 94.25 24.44 94.13Q25.50 94 26.50 93.88L26.50 93.88Q28.88 100.13 34.50 104.25Q40.13 108.38 47.25 108.38L47.25 108.38Q54.13 108.38 59.63 104.56Q65.13 100.75 67.75 94.88L67.75 94.88Q69.63 95.75 71.75 96.25Q73.88 96.75 76.13 96.75L76.13 96.75Q76.25 96.75 76.25 96.75Q76.25 96.75 76.25 96.75L76.25 96.75L76.25 96.75Q81.63 96.75 86.13 94Q90.63 91.25 93.13 86.88L93.13 86.88Q94.50 87.13 95.81 87.25Q97.13 87.38 98.38 87.38L98.38 87.38Q103.88 87.38 108.75 85.25L108.75 85.25Q113.63 83.13 117.25 79.50Q120.88 75.88 122.88 71L122.88 71Q125 66.13 125 60.50L125 60.50Q125 55 122.88 50.13L122.88 50.13Q120.88 45.25 117.25 41.56Q113.63 37.88 108.75 35.88L108.75 35.88Q103.88 33.75 98.38 33.75L98.38 33.75Q95.50 33.75 92.81 34.31Q90.13 34.88 87.63 36L87.63 36Q84.88 31 79.81 27.88Q74.75 24.75 68.63 24.75L68.63 24.75Q64 24.75 60 26.56Q56 28.38 53 31.50L53 31.50Q49.75 27.13 44.75 24.56Q39.75 22 34 22L34 22ZM73.50 52.13L73.50 52.13Q73.75 52.13 74 52.19Q74.25 52.25 74.50 52.25L74.50 52.25Q74.63 52.25 74.81 52.31Q75 52.38 75.13 52.38L75.13 52.38Q75.25 52.38 75.31 52.44Q75.38 52.50 75.25 52.63L75.25 52.63L74.75 54.13Q74.75 54.25 74.69 54.31Q74.63 54.38 74.50 54.25L74.50 54.25Q74.38 54.25 74.31 54.25Q74.25 54.25 74.13 54.13L74.13 54.13Q74 54.13 73.81 54.13Q73.63 54.13 73.50 54.13L73.50 54.13Q73.50 54.13 73.50 54.13Q73.50 54.13 73.50 54.13L73.50 54.13L73.50 54.13Q73.25 54.13 73.06 54.13Q72.88 54.13 72.75 54.25L72.75 54.25Q72.50 54.25 72.38 54.38Q72.25 54.50 72.13 54.63L72.13 54.63Q72 54.75 71.88 54.94Q71.75 55.13 71.63 55.38L71.63 55.38Q71.38 55.88 71.31 56.38Q71.25 56.88 71.25 57L71.25 57L73.50 57Q73.63 57 73.69 57.06Q73.75 57.13 73.75 57.25L73.75 57.25L73.50 58.75Q73.50 58.88 73.38 58.88Q73.25 58.88 73.25 58.88L73.25 58.88L70.88 58.88L69.25 68Q69.13 68.75 69 69.31Q68.88 69.88 68.63 70.38L68.63 70.38Q68.50 70.88 68.25 71.25Q68 71.63 67.75 72L67.75 72Q67.50 72.38 67.13 72.56Q66.75 72.75 66.38 72.88L66.38 72.88Q66 73.13 65.56 73.19Q65.13 73.25 64.63 73.25L64.63 73.25Q64.38 73.25 64.13 73.19Q63.88 73.13 63.63 73.13L63.63 73.13Q63.38 73 63.25 73Q63.13 73 62.88 72.88L62.88 72.88L63 72.88Q62.88 72.88 62.88 72.81Q62.88 72.75 62.88 72.63L62.88 72.63Q62.88 72.50 63.13 71.88Q63.38 71.25 63.38 71.13L63.38 71.13Q63.50 71 63.56 71Q63.63 71 63.63 71L63.63 71Q63.75 71.13 63.81 71.13Q63.88 71.13 64 71.13L64 71.13Q64.13 71.25 64.31 71.25Q64.50 71.25 64.63 71.25L64.63 71.25Q64.88 71.25 65.06 71.19Q65.25 71.13 65.50 71.13L65.50 71.13Q65.63 71 65.81 70.88Q66 70.75 66.13 70.63L66.13 70.63Q66.25 70.38 66.38 70.13Q66.50 69.88 66.63 69.63L66.63 69.63Q66.75 69.25 66.81 68.81Q66.88 68.38 67 67.88L67 67.88L68.63 58.88L67 58.88Q66.88 58.88 66.81 58.81Q66.75 58.75 66.75 58.63L66.75 58.63L67.13 57.13Q67.13 57 67.25 57Q67.38 57 67.38 57L67.38 57L69 57L69 56.50Q69.25 55.38 69.63 54.56Q70 53.75 70.50 53.25L70.50 53.25Q71 52.75 71.75 52.44Q72.50 52.13 73.50 52.13L73.50 52.13ZM41.13 52.38L41.13 52.38L43 52.38Q43.13 52.38 43.19 52.44Q43.25 52.50 43.25 52.63L43.25 52.63L43.25 67.88Q43.25 68 43.19 68.06Q43.13 68.13 43 68.13L43 68.13L41.13 68.13Q41 68.13 41 68.06Q41 68 41 67.88L41 67.88L41 52.63Q41 52.50 41 52.44Q41 52.38 41.13 52.38ZM98.63 56.75L98.63 56.75Q99 56.75 99.44 56.75Q99.88 56.75 100.13 56.88L100.13 56.88Q100.50 56.88 100.94 57Q101.38 57.13 101.63 57.25L101.63 57.25Q101.63 57.25 101.69 57.31Q101.75 57.38 101.75 57.50L101.75 57.50Q101.63 57.88 101.50 58.19Q101.38 58.50 101.25 58.88L101.25 58.88Q101.13 59 101.06 59Q101 59 101 59L101 59Q100.38 58.88 99.88 58.81Q99.38 58.75 98.75 58.75L98.75 58.75Q98 58.75 97.38 59Q96.75 59.25 96.38 59.75L96.38 59.75Q96 60.25 95.81 60.94Q95.63 61.63 95.63 62.50L95.63 62.50Q95.63 63.50 95.81 64.25Q96 65 96.50 65.38L96.50 65.38Q96.88 65.88 97.50 66.06Q98.13 66.25 98.88 66.25L98.88 66.25Q99.25 66.25 99.50 66.25Q99.75 66.25 100 66.25L100 66.25Q100.38 66.25 100.56 66.13Q100.75 66 101 66L101 66Q101 66 101.13 65.94Q101.25 65.88 101.25 66.13L101.25 66.13L101.88 67.50Q101.88 67.63 101.81 67.69Q101.75 67.75 101.75 67.75L101.75 67.75Q101.13 68 100.38 68.13Q99.63 68.25 98.75 68.25L98.75 68.25Q97.38 68.25 96.31 67.88Q95.25 67.50 94.63 66.75L94.63 66.75Q93.88 66 93.50 64.94Q93.13 63.88 93.13 62.50L93.13 62.50Q93.13 61.88 93.25 61.31Q93.38 60.75 93.50 60.25L93.50 60.25Q93.75 59.75 94 59.25Q94.25 58.75 94.50 58.38L94.50 58.38Q94.88 58 95.31 57.69Q95.75 57.38 96.25 57.13L96.25 57.13Q96.75 57 97.31 56.88Q97.88 56.75 98.63 56.75L98.63 56.75ZM23.75 56.75L23.75 56.75L24 56.75Q25 56.75 25.94 57Q26.88 57.25 27.63 57.75L27.63 57.75Q27.75 57.75 27.75 57.81Q27.75 57.88 27.75 58L27.75 58Q27.75 58.13 27.50 58.69Q27.25 59.25 27.25 59.38L27.25 59.38Q27.13 59.50 27 59.50Q26.88 59.50 26.88 59.50L26.88 59.50Q26.25 59.13 25.38 58.88Q24.50 58.63 23.75 58.63L23.75 58.63Q23 58.63 22.56 59Q22.13 59.38 22.13 59.88L22.13 59.88L22.13 59.88Q22.13 60.50 22.81 60.81Q23.50 61.13 24.50 61.50L24.50 61.50L24.63 61.50Q25.88 62 27 62.63Q28.13 63.25 28.13 64.75L28.13 64.75L28.13 64.88Q28.13 66.50 27 67.44Q25.88 68.38 24 68.38L24 68.38Q23.13 68.38 22.19 68.19Q21.25 68 20.25 67.50L20.25 67.50Q20.13 67.38 19.94 67.31Q19.75 67.25 19.63 67L19.63 67Q19.63 67 19.56 66.94Q19.50 66.88 19.50 66.75L19.50 66.75L20 65.38Q20.13 65.25 20.25 65.25Q20.38 65.25 20.38 65.25L20.38 65.25Q20.50 65.38 20.56 65.44Q20.63 65.50 20.75 65.50L20.75 65.50Q21.88 66.25 22.81 66.38Q23.75 66.50 24 66.50L24 66.50Q24.88 66.50 25.38 66.13Q25.88 65.75 25.88 65.13L25.88 65.13L25.88 65.13Q25.88 64.50 25.19 64.19Q24.50 63.88 23.50 63.50L23.50 63.50L23.25 63.50Q22 63.13 20.94 62.44Q19.88 61.75 19.88 60.13L19.88 60.13L19.88 60.13Q19.88 58.63 20.94 57.69Q22 56.75 23.75 56.75L23.75 56.75ZM34.25 56.75L34.25 56.75Q35.25 56.75 36.06 57Q36.88 57.25 37.50 57.75L37.50 57.75Q38 58.25 38.31 59Q38.63 59.75 38.63 60.88L38.63 60.88L38.63 67.38Q38.63 67.38 38.63 67.50Q38.63 67.63 38.50 67.63L38.50 67.63Q38.50 67.63 38.31 67.69Q38.13 67.75 38 67.75L38 67.75Q37.75 67.88 37.19 67.94Q36.63 68 36.13 68.13L36.13 68.13Q35.63 68.25 35.06 68.25Q34.50 68.25 34 68.25L34 68.25Q34 68.25 33.94 68.25Q33.88 68.25 33.88 68.25L33.88 68.25Q33.38 68.25 32.94 68.25Q32.50 68.25 32 68.13L32 68.13L32.13 68.13Q31.63 68 31.31 67.88Q31 67.75 30.63 67.50L30.63 67.50Q30.38 67.25 30.13 67Q29.88 66.75 29.75 66.38L29.75 66.38Q29.50 66 29.44 65.63Q29.38 65.25 29.38 64.75L29.38 64.75Q29.38 64.25 29.50 63.88Q29.63 63.50 29.75 63.13L29.75 63.13Q30 62.75 30.25 62.44Q30.50 62.13 30.75 61.88L30.75 61.88Q31.13 61.63 31.50 61.50Q31.88 61.38 32.25 61.25L32.25 61.25Q32.75 61.13 33.19 61.06Q33.63 61 34 61L34 61Q34.38 61 34.69 61Q35 61 35.13 61L35.13 61Q35.13 61 35.50 61.06Q35.88 61.13 36.38 61.13L36.38 61.13L36.38 60.88Q36.38 60.13 36.19 59.75Q36 59.38 35.75 59.13L35.75 59.13Q35.50 58.88 35.06 58.81Q34.63 58.75 34 58.75L34 58.75Q34 58.75 32.94 58.81Q31.88 58.88 30.88 59.38L30.88 59.38Q30.88 59.50 30.81 59.50Q30.75 59.50 30.75 59.50L30.75 59.50Q30.75 59.50 30.69 59.50Q30.63 59.50 30.50 59.38L30.50 59.38L30 58Q30 57.88 30.06 57.81Q30.13 57.75 30.13 57.75L30.13 57.75Q30.63 57.38 31.44 57.13Q32.25 56.88 32.25 56.88L32.25 56.88Q32.63 56.88 33.19 56.81Q33.75 56.75 34.25 56.75L34.25 56.75ZM60.75 56.75L60.75 56.75L61 56.75Q62.13 56.75 63.06 57Q64 57.25 64.63 57.75L64.63 57.75Q64.75 57.75 64.81 57.81Q64.88 57.88 64.75 58L64.75 58Q64.75 58.13 64.56 58.69Q64.38 59.25 64.25 59.38L64.25 59.38Q64.25 59.50 64.13 59.50Q64 59.50 64 59.50L64 59.50Q63.38 59.13 62.44 58.88Q61.50 58.63 60.75 58.63L60.75 58.63Q60 58.63 59.56 59Q59.13 59.38 59.13 59.88L59.13 59.88L59.13 59.88Q59.13 60.50 59.81 60.81Q60.50 61.13 61.50 61.50L61.50 61.50L61.75 61.50Q63 62 64.06 62.63Q65.13 63.25 65.13 64.75L65.13 64.75L65.13 64.88Q65.13 66.50 64 67.44Q62.88 68.38 61 68.38L61 68.38Q60.13 68.38 59.19 68.19Q58.25 68 57.38 67.50L57.38 67.50Q57.13 67.38 57 67.31Q56.88 67.25 56.63 67L56.63 67Q56.63 67 56.56 66.94Q56.50 66.88 56.63 66.75L56.63 66.75L57.13 65.38Q57.13 65.25 57.25 65.25Q57.38 65.25 57.38 65.25L57.38 65.25Q57.50 65.38 57.56 65.44Q57.63 65.50 57.88 65.50L57.88 65.50Q58.88 66.25 59.81 66.38Q60.75 66.50 61.13 66.50L61.13 66.50Q61.88 66.50 62.38 66.13Q62.88 65.75 62.88 65.13L62.88 65.13L62.88 65.13Q62.88 64.50 62.19 64.19Q61.50 63.88 60.63 63.50L60.63 63.50L60.38 63.50Q59.13 63.13 58 62.44Q56.88 61.75 56.88 60.13L56.88 60.13L56.88 60.13Q56.88 58.63 58 57.69Q59.13 56.75 60.75 56.75L60.75 56.75ZM50.50 56.75L50.50 56.75Q51.13 56.75 51.63 56.88Q52.13 57 52.63 57.13L52.63 57.13Q53 57.25 53.31 57.56Q53.63 57.88 54 58.25L54 58.25Q54.13 58.38 54.44 58.88Q54.75 59.38 54.88 59.88L54.88 59.88Q55.25 61.13 55.19 62Q55.13 62.88 55.13 63L55.13 63Q55.13 63.13 55 63.13Q54.88 63.13 54.88 63.13L54.88 63.13L47.75 63.13Q47.75 64 47.94 64.56Q48.13 65.13 48.63 65.50L48.63 65.50Q49 65.88 49.56 66.13Q50.13 66.38 51 66.38L51 66.38Q52.25 66.38 52.88 66.19Q53.50 66 54 65.88L54 65.88Q54 65.88 54.06 65.88Q54.13 65.88 54.25 66L54.25 66L54.63 67.25Q54.75 67.38 54.69 67.50Q54.63 67.63 54.63 67.63L54.63 67.63Q54.25 67.75 53.44 68.06Q52.63 68.38 51 68.38L51 68.38Q50.25 68.38 49.63 68.25Q49 68.13 48.38 67.88L48.38 67.88Q47.88 67.75 47.44 67.44Q47 67.13 46.63 66.75L46.63 66.75Q46.25 66.38 46 65.88Q45.75 65.38 45.63 64.88L45.63 64.88L45.63 64.88Q45.50 64.38 45.38 63.81Q45.25 63.25 45.25 62.63L45.25 62.63Q45.25 62.63 45.25 62.63Q45.25 62.63 45.25 62.63L45.25 62.63L45.25 62.63Q45.25 62 45.31 61.44Q45.38 60.88 45.63 60.38L45.63 60.38Q45.75 59.75 46 59.31Q46.25 58.88 46.50 58.50L46.50 58.50Q46.88 58.13 47.31 57.81Q47.75 57.50 48.25 57.25L48.25 57.25Q48.75 57 49.31 56.88Q49.88 56.75 50.50 56.75L50.50 56.75ZM79.13 56.75L79.13 56.75Q79.75 56.75 80.31 56.88Q80.88 57 81.38 57.25L81.38 57.25Q81.88 57.38 82.25 57.69Q82.63 58 83 58.50L83 58.50Q83.38 58.88 83.56 59.31Q83.75 59.75 84 60.25L84 60.25Q84.13 60.75 84.19 61.31Q84.25 61.88 84.25 62.50L84.25 62.50Q84.25 63.13 84.19 63.69Q84.13 64.25 84 64.75L84 64.75Q83.88 65.38 83.63 65.81Q83.38 66.25 83 66.63L83 66.63Q82.75 67 82.31 67.31Q81.88 67.63 81.38 67.88L81.38 67.88Q80.88 68.13 80.31 68.19Q79.75 68.25 79.13 68.25L79.13 68.25Q78.50 68.25 77.94 68.19Q77.38 68.13 76.88 67.88L76.88 67.88Q76.38 67.63 76 67.31Q75.63 67 75.25 66.63L75.25 66.63L75.25 66.63Q74.88 66.25 74.69 65.81Q74.50 65.38 74.25 64.75L74.25 64.75Q74.13 64.38 74.06 63.81Q74 63.25 74 62.63L74 62.63Q74 62.63 74 62.56Q74 62.50 74 62.50L74 62.50L74 62.50Q74 61.88 74.06 61.31Q74.13 60.75 74.25 60.25L74.25 60.25Q74.50 59.75 74.69 59.31Q74.88 58.88 75.25 58.50L75.25 58.50Q75.63 58 76 57.69Q76.38 57.38 76.88 57.25L76.88 57.25Q77.38 57 77.94 56.88Q78.50 56.75 79.13 56.75L79.13 56.75ZM107.75 56.75L107.75 56.75Q108.38 56.75 108.88 56.88Q109.38 57 109.88 57.13L109.88 57.13Q110.13 57.25 110.50 57.56Q110.88 57.88 111.25 58.25L111.25 58.25Q111.38 58.38 111.69 58.88Q112 59.38 112.13 59.88L112.13 59.88Q112.50 61.13 112.44 62Q112.38 62.88 112.38 63L112.38 63Q112.25 63.13 112.19 63.13Q112.13 63.13 112.13 63.13L112.13 63.13L105 63.13Q105 64 105.19 64.56Q105.38 65.13 105.75 65.50L105.75 65.50Q106.13 65.88 106.75 66.13Q107.38 66.38 108.25 66.38L108.25 66.38Q109.50 66.38 110.13 66.19Q110.75 66 111.13 65.88L111.13 65.88Q111.13 65.88 111.25 65.88Q111.38 65.88 111.38 66L111.38 66L111.88 67.25Q112 67.38 111.94 67.50Q111.88 67.63 111.88 67.63L111.88 67.63Q111.50 67.75 110.63 68.06Q109.75 68.38 108.25 68.38L108.25 68.38Q107.50 68.38 106.88 68.25Q106.25 68.13 105.63 67.88L105.63 67.88Q105.13 67.75 104.69 67.44Q104.25 67.13 103.88 66.75L103.88 66.75Q103.50 66.38 103.25 65.88Q103 65.38 102.75 64.88L102.75 64.88Q102.63 64.38 102.56 63.81Q102.50 63.25 102.50 62.63L102.50 62.63Q102.50 62.63 102.50 62.63Q102.50 62.63 102.50 62.63L102.50 62.63L102.50 62.63Q102.50 62 102.56 61.44Q102.63 60.88 102.75 60.38L102.75 60.38Q103 59.75 103.25 59.31Q103.50 58.88 103.75 58.50L103.75 58.50Q104.13 58.13 104.50 57.81Q104.88 57.50 105.38 57.25L105.38 57.25Q105.88 57 106.50 56.88Q107.13 56.75 107.75 56.75L107.75 56.75ZM90.88 56.88L90.88 56.88Q91 56.88 91.19 56.88Q91.38 56.88 91.50 56.88L91.50 56.88Q91.88 56.88 92.25 56.94Q92.63 57 92.75 57.13L92.75 57.13Q92.75 57.13 92.81 57.19Q92.88 57.25 92.75 57.38L92.75 57.38Q92.75 57.50 92.56 58.06Q92.38 58.63 92.25 58.88L92.25 58.88Q92.25 58.88 92.19 58.94Q92.13 59 92 59L92 59Q92 59 91.75 58.94Q91.50 58.88 91.25 58.88L91.25 58.88Q91 58.88 90.75 58.94Q90.50 59 90.25 59L90.25 59Q90 59.13 89.81 59.25Q89.63 59.38 89.38 59.63L89.38 59.63Q89.25 59.75 89.06 60Q88.88 60.25 88.75 60.63L88.75 60.63Q88.63 61 88.56 61.50Q88.50 62 88.50 62.50L88.50 62.50L88.50 67.88Q88.50 68 88.44 68.06Q88.38 68.13 88.25 68.13L88.25 68.13L86.38 68.13Q86.38 68.13 86.31 68.06Q86.25 68 86.25 67.88L86.25 67.88L86.25 57.25Q86.25 57.13 86.31 57.06Q86.38 57 86.38 57L86.38 57L88.25 57Q88.38 57 88.44 57.06Q88.50 57.13 88.50 57.25L88.50 57.25L88.50 58Q88.63 57.75 89 57.56Q89.38 57.38 89.63 57.13L89.63 57.13Q89.88 57 90.19 56.94Q90.50 56.88 90.88 56.88ZM50.38 58.63L50.38 58.63Q49.63 58.63 49.13 58.88Q48.63 59.13 48.38 59.63L48.38 59.63Q48.13 60 48 60.44Q47.88 60.88 47.75 61.38L47.75 61.38L52.88 61.38Q52.88 60.88 52.75 60.44Q52.63 60 52.38 59.63L52.38 59.63Q52 59.13 51.56 58.88Q51.13 58.63 50.38 58.63L50.38 58.63ZM107.63 58.63L107.63 58.63Q106.88 58.63 106.38 58.88Q105.88 59.13 105.63 59.63L105.63 59.63Q105.38 60 105.25 60.44Q105.13 60.88 105 61.38L105 61.38L110.13 61.38Q110 60.88 109.94 60.44Q109.88 60 109.63 59.63L109.63 59.63Q109.25 59.13 108.81 58.88Q108.38 58.63 107.63 58.63L107.63 58.63ZM79.13 58.75L79.13 58.75Q78.38 58.75 77.88 58.94Q77.38 59.13 77.13 59.63L77.13 59.63Q76.75 60.25 76.56 60.94Q76.38 61.63 76.38 62.50L76.38 62.50Q76.38 63.50 76.56 64.19Q76.75 64.88 77.13 65.38L77.13 65.38Q77.38 65.88 77.88 66.13Q78.38 66.38 79.13 66.38L79.13 66.38Q79.88 66.38 80.38 66.13Q80.88 65.88 81.13 65.38L81.13 65.38Q81.50 64.88 81.69 64.19Q81.88 63.50 81.88 62.50L81.88 62.50Q81.88 61.63 81.69 60.88Q81.50 60.13 81.25 59.63L81.25 59.63Q80.88 59.13 80.38 58.94Q79.88 58.75 79.13 58.75L79.13 58.75ZM34.38 62.75L34.38 62.75Q33.38 62.75 32.88 63Q32.38 63.25 32.38 63.25L32.38 63.25Q32 63.50 31.88 63.88Q31.75 64.25 31.75 64.75L31.75 64.75Q31.75 65 31.75 65.25Q31.75 65.50 31.88 65.63L31.88 65.63Q32 65.75 32.06 65.81Q32.13 65.88 32.38 66L32.38 66Q32.38 66 32.88 66.25Q33.38 66.50 34.38 66.50L34.38 66.50Q35.13 66.38 35.75 66.31Q36.38 66.25 36.38 66.25L36.38 66.25L36.38 63Q36.38 63 35.75 62.88Q35.13 62.75 34.38 62.75L34.38 62.75Z"/></svg>