<svg xmlns="http://www.w3.org/2000/svg" xmlns:xlink="http://www.w3.org/1999/xlink" width="128" height="128"><path fill="#000000" d="M82.13 75.25L82.13 75.25Q81.75 75.50 81.44 75.75Q81.13 76 80.88 76.13L80.88 76.13Q79.63 77 78.31 77.81Q77 78.63 75.75 79.38L75.75 79.38Q75 79.88 74.06 79.88Q73.13 79.88 72.25 79.50L72.25 79.50Q71.50 79.25 70.63 78.94Q69.75 78.63 69 78.13L69 78.13Q67.75 77.50 67.19 76.31Q66.63 75.13 66.25 73.88L66.25 73.88Q65.63 71.75 66.25 69.88Q66.88 68 67.63 66.25L67.63 66.25Q67.88 65.88 68.06 65.56Q68.25 65.25 68.38 64.88L68.38 64.88Q68.63 64.50 68.50 64.25Q68.38 64 67.88 64L67.88 64Q67.50 64 67.19 64.13Q66.88 64.25 66.63 64.38L66.63 64.38Q64.25 65.50 62.25 67.13Q60.25 68.75 58.63 70.88L58.63 70.88Q57.63 72.38 56.94 74.06Q56.25 75.75 55.75 77.50L55.75 77.50Q55.50 78.63 54.75 79.13Q54 79.63 53.25 79.50L53.25 79.50Q52 79.13 51.31 77.75Q50.63 76.38 51.25 75.25L51.25 75.25Q51.25 75.13 51.38 74.94Q51.50 74.75 51.63 74.63L51.63 74.63Q53 73 53.63 71Q54.25 69 54.88 67.13L54.88 67.13Q55.25 65.88 55.56 64.75Q55.88 63.63 56.25 62.50L56.25 62.50Q56.38 61.88 56.50 61.31Q56.63 60.75 56.25 60.13L56.25 60.13Q56.13 59.75 56.31 59.44Q56.50 59.13 56.88 59.13L56.88 59.13Q57.63 59 58.31 58.94Q59 58.88 59.63 59.13L59.63 59.13Q60.38 59.38 60.56 60.06Q60.75 60.75 60.88 61.38L60.88 61.38Q60.88 61.88 60.88 62.31Q60.88 62.75 60.88 63.25L60.88 63.25Q61.13 63.13 61.38 63Q61.63 62.88 61.75 62.75L61.75 62.75Q62.88 62.25 63.88 61.63Q64.88 61 66 60.38L66 60.38Q67 59.88 68.06 60.06Q69.13 60.25 70.13 60.75L70.13 60.75Q70.63 61 70.94 60.94Q71.25 60.88 71.63 60.50L71.63 60.50Q72.50 59.50 73.38 58.56Q74.25 57.63 75.25 56.88L75.25 56.88Q76.13 56.13 77.13 55.88Q78.13 55.63 79.13 55.75L79.13 55.75Q79.88 55.75 80.56 55.88Q81.25 56 81.88 56.25L81.88 56.25Q82.75 56.38 83.19 57Q83.63 57.63 83.75 58.50L83.75 58.50Q83.88 60.13 83.31 61.50Q82.75 62.88 81.88 64.13L81.88 64.13Q79.63 67 77.06 69.56Q74.50 72.13 71.38 74L71.38 74Q70.88 74.25 70.81 74.56Q70.75 74.88 71 75.25L71 75.25Q71.25 75.88 71.94 76.13Q72.63 76.38 73.25 76.25L73.25 76.25Q75.25 75.63 76.81 74.44Q78.38 73.25 79.88 72.13L79.88 72.13Q80.75 71.38 81.63 70.75Q82.50 70.13 83.13 69.50L83.13 69.50Q83.63 69 83.88 68.44Q84.13 67.88 84.38 67.25L84.38 67.25Q85.38 65.25 86.38 63.13Q87.38 61 88.50 58.88L88.50 58.88Q89.63 56.75 90.88 54.63Q92.13 52.50 93.25 50.38L93.25 50.38Q93.63 49.75 93.88 49.13Q94.13 48.50 94.38 47.88L94.38 47.88Q94.75 47 95.44 46.50Q96.13 46 97.13 46L97.13 46Q97.38 46.13 97.56 46.06Q97.75 46 98 46L98 46Q99.38 46 99.94 47Q100.50 48 99.88 49.25L99.88 49.25Q99.25 50.38 98.56 51.38Q97.88 52.38 97.25 53.50L97.25 53.50Q95.25 56.50 93.25 59.56Q91.25 62.63 89.75 66L89.75 66Q89 67.50 88.31 69.13Q87.63 70.75 87.13 72.38L87.13 72.38Q86.88 73.13 86.81 74Q86.75 74.88 86.63 75.75L86.63 75.75Q86.63 76.25 86.94 76.44Q87.25 76.63 87.75 76.25L87.75 76.25Q88.50 75.63 89.19 74.94Q89.88 74.25 90.50 73.63L90.50 73.63Q91.13 73.13 91.81 72.63Q92.50 72.13 93 71.63L93 71.63Q93.38 71.25 93.56 70.88Q93.75 70.50 93.88 70L93.88 70Q95 67.13 96.31 64.31Q97.63 61.50 99.13 58.75L99.13 58.75Q100.25 56.88 101.38 54.88Q102.50 52.88 103.50 51L103.50 51Q104 50 104.50 49.06Q105 48.13 105.50 47.13L105.50 47.13Q105.75 46.63 106.31 46.31Q106.88 46 107.50 46L107.50 46Q107.75 46.13 108 46.13Q108.25 46.13 108.50 46L108.50 46Q110.13 45.88 110.63 47.06Q111.13 48.25 110.50 49.25L110.50 49.25Q110 50.13 109.50 50.94Q109 51.75 108.50 52.50L108.50 52.50Q106.13 56 103.88 59.56Q101.63 63.13 99.88 67L99.88 67Q99.13 68.50 98.56 70.06Q98 71.63 97.50 73.25L97.50 73.25Q97.25 73.88 97.25 74.50Q97.25 75.13 97.25 75.75L97.25 75.75Q97.25 76.25 97.56 76.44Q97.88 76.63 98.38 76.25L98.38 76.25Q99.13 75.63 99.75 74.94Q100.38 74.25 101.13 73.63L101.13 73.63L103.38 71.75Q103.50 71.63 103.63 71.44Q103.75 71.25 103.75 71.13L103.75 71.13Q104.25 68.13 105.63 65.56Q107 63 108.88 60.63L108.88 60.63Q109.50 59.88 110.13 59.13Q110.75 58.38 111.50 57.75L111.50 57.75Q113 56.50 114.63 56.63Q116.25 56.75 117.38 57.88L117.38 57.88Q117.75 58.13 117.94 58.56Q118.13 59 118.25 59.38L118.25 59.38Q118.63 60.13 119 60.44Q119.38 60.75 120.38 60.75L120.38 60.75Q121.50 60.75 122.56 60.69Q123.63 60.63 124.75 60.75L124.75 60.75Q125.13 60.75 125.56 60.94Q126 61.13 126.38 61.25L126.38 61.25Q126.88 61.63 126.81 62Q126.75 62.38 126.25 62.63L126.25 62.63Q124.88 63.25 123.44 63.69Q122 64.13 120.50 64.13L120.50 64.13Q120 64.13 119.75 64.31Q119.50 64.50 119.38 65L119.38 65Q118.50 68.38 117.19 71.50Q115.88 74.63 113.25 77.13L113.25 77.13Q112.75 77.63 112.13 78.13Q111.50 78.63 110.88 79L110.88 79Q109.63 79.50 108.50 79.06Q107.38 78.63 106.38 78L106.38 78Q106 77.75 105.56 77.38Q105.13 77 104.75 76.63L104.75 76.63Q104.50 76.25 104.31 76.25Q104.13 76.25 103.88 76.63L103.88 76.63Q103 77.50 102.19 78.25Q101.38 79 100.25 79.50L100.25 79.50Q99.50 79.75 98.88 79.88Q98.25 80 97.38 79.88L97.38 79.88Q96.25 79.50 95.25 78.94Q94.25 78.38 93.50 77.50L93.50 77.50Q93.25 77.13 93 77.13Q92.75 77.13 92.50 77.38L92.50 77.38Q91.88 77.88 91.25 78.44Q90.63 79 89.88 79.38L89.88 79.38Q88.50 80.25 87.13 79.94Q85.75 79.63 84.50 78.88L84.50 78.88Q83.50 78.25 82.88 77.38Q82.25 76.50 82.13 75.25L82.13 75.25ZM107.63 73.13L107.63 73.13Q107.75 73.38 107.81 73.75Q107.88 74.13 108 74.50L108 74.50Q108.13 74.75 108.31 75.06Q108.50 75.38 108.75 75.50L108.75 75.50Q109 75.50 109.31 75.25Q109.63 75 109.88 74.75L109.88 74.75Q110.63 73.50 111.44 72.31Q112.25 71.13 112.88 69.88L112.88 69.88Q113.88 68.25 114.44 66.50Q115 64.75 115.13 62.88L115.13 62.88Q115.13 62.50 115.06 62.13Q115 61.75 114.88 61.50L114.88 61.50Q114.50 60.63 114.13 60.63Q113.75 60.63 113.38 61.25L113.38 61.25Q112.38 62.75 111.44 64.19Q110.50 65.63 109.63 67.13L109.63 67.13Q108.88 68.50 108.38 69.94Q107.88 71.38 107.63 73.13L107.63 73.13ZM79.25 59.88L79.25 59.88Q79.25 59.50 79.06 59.31Q78.88 59.13 78.50 59.25L78.50 59.25Q78.38 59.25 78.25 59.38Q78.13 59.50 78.13 59.50L78.13 59.50Q75.88 61.38 74.13 63.56Q72.38 65.75 71.25 68.50L71.25 68.50Q71.25 68.63 71.25 68.75Q71.25 68.88 71.38 69L71.38 69Q71.50 69 71.63 69Q71.75 69 71.88 68.88L71.88 68.88Q72.38 68.50 72.88 68Q73.38 67.50 73.88 67L73.88 67Q75.38 65.63 76.69 64Q78 62.38 79 60.50L79 60.50Q79 60.25 79.06 60.13Q79.13 60 79.25 59.88L79.25 59.88ZM47.75 55.88L47.75 55.88Q47.38 55.75 47.06 55.75Q46.75 55.75 46.50 55.75L46.50 55.75Q45.63 55.63 44.81 55.63Q44 55.63 43.25 55.50L43.25 55.50Q42.63 55.38 42.31 54.94Q42 54.50 42 53.88L42 53.88L42 53.38Q42 52.25 42.50 51.94Q43 51.63 44.25 51.75L44.25 51.75Q45.38 52 46.69 51.94Q48 51.88 49.13 51.75L49.13 51.75Q50.75 51.63 52.38 51.38Q54 51.13 55.63 50.88L55.63 50.88Q56.63 50.75 57.63 50.69Q58.63 50.63 59.63 50.63L59.63 50.63Q60.88 50.50 61.94 51.06Q63 51.63 63.88 52.38L63.88 52.38Q64.13 52.63 64.25 53.06Q64.38 53.50 64.25 53.75L64.25 53.75Q64.13 54.50 63 54.94Q61.88 55.38 61.25 54.75L61.25 54.75Q60.88 54.38 60.25 54.19Q59.63 54 59 54.13L59 54.13Q57.88 54.25 56.63 54.38Q55.38 54.50 54.13 54.63L54.13 54.63Q53.88 54.63 53.69 54.81Q53.50 55 53.38 55.38L53.38 55.38Q53.25 56 52.88 56.63Q52.50 57.25 52.25 57.88L52.25 57.88Q50.75 60.50 49.56 63.25Q48.38 66 47.63 68.88L47.63 68.88Q47.13 70.75 46.69 72.56Q46.25 74.38 45.75 76.13L45.75 76.13Q45.75 76.63 45.75 77Q45.75 77.38 45.75 77.88L45.75 77.88Q45.75 79.38 45 79.69Q44.25 80 43 79.63L43 79.63Q42.63 79.50 42.31 79.31Q42 79.13 41.63 79L41.63 79Q41.13 78.88 40.94 78.50Q40.75 78.13 40.75 77.75L40.75 77.75Q40.88 76.75 41 75.69Q41.13 74.63 41.38 73.63L41.38 73.63Q41.88 71.75 42.38 70Q42.88 68.25 43.50 66.38L43.50 66.38Q44 64.75 44.63 63.19Q45.25 61.63 46 60L46 60Q46.38 59 46.81 58Q47.25 57 47.75 55.88L47.75 55.88ZM36 77L36 52Q36 50.38 34.81 49.19Q33.63 48 32 48L32 48L7 48Q5.38 48 4.19 49.19Q3 50.38 3 52L3 52L3 77Q3 78.63 4.19 79.81Q5.38 81 7 81L7 81L32 81Q33.63 81 34.81 79.81Q36 78.63 36 77L36 77ZM19 52.75L19 73Q19 73.75 17.81 74.38Q16.63 75 15.88 75L15.88 75L8.63 75Q7.88 75 7.44 74.38Q7 73.75 7 73L7 73L7 52.75Q7 52 7.44 52Q7.88 52 8.63 52L8.63 52L15.88 52Q16.63 52 17.81 52Q19 52 19 52.75L19 52.75ZM33 52.75L33 55.50L33 64Q33 64.75 32.25 65.38Q31.50 66 30.75 66L30.75 66L23.38 66Q22.63 66 22.31 65.38Q22 64.75 22 64L22 64L22 52.75Q22 52 22.31 52Q22.63 52 23.38 52L23.38 52L30.75 52Q31.50 52 32.25 52Q33 52 33 52.75L33 52.75Z"/></svg>