<svg xmlns="http://www.w3.org/2000/svg" xmlns:xlink="http://www.w3.org/1999/xlink" width="128" height="128"><path fill="#ffffff" d="M127 111.88L127 16.13Q127 9.88 122.56 5.44Q118.13 1 111.88 1L111.88 1L16.13 1Q9.88 1 5.44 5.44Q1 9.88 1 16.13L1 16.13L1 111.88Q1 118.13 5.44 122.56Q9.88 127 16.13 127L16.13 127L111.88 127Q118.13 127 122.56 122.56Q127 118.13 127 111.88L127 111.88ZM58 23.25L58 99.50Q58 102.38 55.88 104.19Q53.75 106 50.88 106L50.88 106L23.63 106Q20.75 106 18.88 104.19Q17 102.38 17 99.50L17 99.50L17 23.25Q17 20.38 18.88 18.19Q20.75 16 23.63 16L23.63 16L50.88 16Q53.75 16 55.88 18.19Q58 20.38 58 23.25L58 23.25ZM113 22.88L113 33.13L113 65Q113 67.88 111.06 69.94Q109.13 72 106.25 72L106.25 72L78.88 72Q76.13 72 74.06 69.94Q72 67.88 72 65L72 65L72 22.88Q72 20 74.06 18Q76.13 16 78.88 16L78.88 16L106.25 16Q109.13 16 111.06 18Q113 20 113 22.88L113 22.88Z"/></svg>