<svg xmlns="http://www.w3.org/2000/svg" xmlns:xlink="http://www.w3.org/1999/xlink" width="128" height="128"><path fill="#000000" d="M21.63 38.50L21.63 38.50Q21.50 38.50 21.50 44.19Q21.50 49.88 21.50 57.75L21.50 57.75L21.50 77L30.38 76.88Q38.13 76.88 40.31 76.63Q42.50 76.38 44.75 75.38L44.75 75.38L45.38 75L45.50 74.13Q45.75 71 47.94 68.88Q50.13 66.75 53.13 66.63L53.13 66.63Q53.75 66.63 53.94 66.44Q54.13 66.25 54.63 65.13L54.63 65.13Q55.63 62.63 55.81 58.81Q56 55 55.25 51.88L55.25 51.88Q54 46.38 50.19 42.94Q46.38 39.50 40.50 38.63L40.50 38.63Q39.63 38.50 30.69 38.44Q21.75 38.38 21.63 38.50L21.63 38.50ZM61.75 57L61.75 57L61.75 75.50L61.38 76.75Q60.25 81.13 56 82.50Q51.75 83.88 48.25 80.88L48.25 80.88Q48.13 80.75 47.88 80.44Q47.63 80.13 47.38 79.88L47.38 79.88L46.75 79.13L46 79.50Q44.75 80 42.69 80.56Q40.63 81.13 40 81.13L40 81.13Q39.13 81.13 40.56 83.38Q42 85.63 43.88 87.13L43.88 87.13Q46.25 89 48.44 89.75Q50.63 90.50 54 90.50L54 90.50Q60 90.50 63.94 87.63Q67.88 84.75 69.50 79L69.50 79Q70.13 77.13 70.19 74.31Q70.25 71.50 70.25 56.63L70.25 56.63L70.25 38.50L61.75 38.38L61.75 57ZM93 38.50L93 38.50Q86.13 38.88 81.81 42.75Q77.50 46.63 77.50 52.63L77.50 52.63Q77.50 57.38 79.88 60.50Q82.25 63.63 87.63 66L87.63 66Q88.38 66.25 89.31 66.69Q90.25 67.13 90.88 67.38L90.88 67.38Q92.38 68.13 93 68.38Q93.63 68.63 94.38 68.88L94.38 68.88Q99.25 71 100.75 72.44Q102.25 73.88 102.25 76.38L102.25 76.38Q102.25 82.38 94.94 82.94Q87.63 83.50 81.13 78.13L81.13 78.13Q80.75 77.75 80.44 77.56Q80.13 77.38 80.13 77.38L80.13 77.38L76.25 82Q76.13 82.25 75.88 82.44Q75.63 82.63 75.50 82.75L75.50 82.75Q75.25 83.13 75.38 83.38Q75.50 83.63 76.38 84.50L76.38 84.50Q83 90 91.75 90.56Q100.50 91.13 106.25 86.38L106.25 86.38Q110.25 83.13 111.13 77.81Q112 72.50 109.25 68.25L109.25 68.25Q108.13 66.63 106.13 65Q104.13 63.38 102.13 62.63L102.13 62.63Q102 62.50 101.81 62.44Q101.63 62.38 101.50 62.38L101.50 62.38Q101.50 62.25 101.31 62.19Q101.13 62.13 100.88 62L100.88 62Q100.25 61.75 99.88 61.63Q99.50 61.50 99.13 61.25L99.13 61.25L99.38 61.38Q98.50 61 97.81 60.69Q97.13 60.38 96 60L96 60Q95.75 59.88 95.25 59.69Q94.75 59.50 94.38 59.25L94.38 59.25Q94.25 59.25 93.94 59.13Q93.63 59 93.25 58.75L93.25 58.75L92.88 58.75Q89.75 57.50 88.06 55.94Q86.38 54.38 86.25 52.38L86.25 52.38Q86 47.63 91.44 46.38Q96.88 45.13 102.63 48.50L102.63 48.50Q102.88 48.63 103.25 48.94Q103.63 49.25 104.13 49.50L104.13 49.50Q104.50 49.88 104.81 50.06Q105.13 50.25 105.13 50.25L105.13 50.25Q105.25 50.25 107 48.19Q108.75 46.13 109.38 45.25L109.38 45.25L109.75 44.75L109.13 44.25Q108.25 43.38 107 42.50Q105.75 41.63 104.88 41.13L104.88 41.13Q104.25 40.88 103.94 40.69Q103.63 40.50 103.13 40.38L103.13 40.38Q100.88 39.38 98.19 38.88Q95.50 38.38 93 38.50L93 38.50ZM38.38 46.75L38.38 46.75Q42 47.25 44 49.88Q46 52.50 46.13 57L46.13 57Q46.38 61.63 44.38 64.69Q42.38 67.75 38.75 68.50L38.75 68.50Q37.88 68.75 34.69 68.88Q31.50 69 30.88 68.88L30.88 68.88L30.63 68.75L30.63 57.75Q30.63 53.25 30.63 50Q30.63 46.75 30.63 46.63L30.63 46.63Q30.75 46.63 34.13 46.63Q37.50 46.63 38.38 46.75ZM52 70L52 70Q48 71.63 48.69 75.69Q49.38 79.75 53.63 79.63L53.63 79.63Q57.63 79.63 58.44 75.75Q59.25 71.88 55.63 70.13L55.63 70.13Q55 69.88 53.81 69.81Q52.63 69.75 52 70L52 70Z"/></svg>