<svg xmlns="http://www.w3.org/2000/svg" xmlns:xlink="http://www.w3.org/1999/xlink" width="128" height="128"><path fill="#000000" d="M125.50 111.88L125.50 111.88L67.75 11.88Q67.13 10.88 66.13 10.25Q65.13 9.63 64 9.63L64 9.63Q62.88 9.63 61.88 10.25Q60.88 10.88 60.25 11.88L60.25 11.88L2.50 111.88Q2 112.88 2 113.94Q2 115 2.50 116L2.50 116Q3.13 117 4.13 117.50Q5.13 118 6.25 118L6.25 118L121.75 118Q122.88 118 123.88 117.50Q124.88 117 125.50 116L125.50 116Q126 115 126 113.94Q126 112.88 125.50 111.88ZM88.75 103.75L88.75 103.75L88.88 99.50L72.25 102.38L71.50 101.75L71.63 96L71.25 96Q71.25 96 67.69 99.75Q64.13 103.50 56.50 103.50L56.50 103.50Q50.88 103.50 46.44 100.50Q42 97.50 42 88.38L42 88.38Q42 79.13 47.81 75.56Q53.63 72 60.88 72L60.88 72L71 72L71 67Q71 63.25 68.63 61.25Q66.25 59.25 61.63 59.25L61.63 59.25Q56.50 59.25 51.56 59.81Q46.63 60.38 46.63 60.38L46.63 60.38L46 59.50L46 51.25Q46 51.25 51.50 50.75Q57 50.25 63.75 50.25L63.75 50.25Q70 50.25 76 52.81Q82 55.38 82 64.50L82 64.50L82 92.63L87.63 91.50L86.13 87.50L100 93.63L88.75 103.75ZM52.50 87.50L52.50 87.50Q52.50 91.75 54.94 93.13Q57.38 94.50 60.25 94.50L60.25 94.50Q62.88 94.50 65.81 93.44Q68.75 92.38 71 89L71 89L71 80L63.75 80Q58.25 80 55.38 81.56Q52.50 83.13 52.50 87.50L52.50 87.50Z"/></svg>