<svg xmlns="http://www.w3.org/2000/svg" xmlns:xlink="http://www.w3.org/1999/xlink" width="128" height="128"><path fill="#000000" d="M108.75 86.38L108.75 86.38L66.13 12.50Q65.63 11.75 64.94 11.31Q64.25 10.88 63.38 10.88L63.38 10.88Q62.50 10.88 61.75 11.31Q61 11.75 60.63 12.50L60.63 12.50L18 86.38Q17.50 87 17.50 87.88Q17.50 88.75 18 89.50L18 89.50Q18.38 90.25 19.13 90.63Q19.88 91 20.75 91L20.75 91L106 91Q106.88 91 107.56 90.63Q108.25 90.25 108.75 89.50L108.75 89.50Q109.13 88.75 109.13 87.88Q109.13 87 108.75 86.38ZM81.63 80.38L81.63 80.38L81.75 77.13L69.38 79.38L68.88 79L69 75L68.75 75Q68.75 75 66.13 77.69Q63.50 80.38 57.88 80.38L57.88 80.38Q53.75 80.38 50.44 78.13Q47.13 75.88 47.13 69.13L47.13 69.13Q47.13 62.38 51.44 59.69Q55.75 57 61 57L61 57L69 57L69 53.13Q69 50.50 67.13 49Q65.25 47.50 61.88 47.50L61.88 47.50Q58.13 47.50 54.38 47.88Q50.63 48.25 50.63 48.25L50.63 48.25L50 47.75L50 41.63Q50 41.63 54.19 41.19Q58.38 40.75 63.38 40.75L63.38 40.75Q67.88 40.75 72.44 42.69Q77 44.63 77 51.38L77 51.38L77 72.13L81 71.25L79.75 68.38L90 72.75L81.63 80.38ZM54.88 68.50L54.88 68.50Q54.88 71.63 56.81 72.56Q58.75 73.50 60.88 73.50L60.88 73.50Q62.75 73.50 64.75 72.69Q66.75 71.88 69 69.50L69 69.50L69 63L63.13 63Q59 63 56.94 64.13Q54.88 65.25 54.88 68.50ZM10.88 112.75L10.88 112.75L8.50 112.75L8.38 112.63L8.38 111.25L8.38 111.25Q8.38 111.25 7.50 112.13Q6.63 113 4.88 113L4.88 113Q3.63 113 2.56 112.31Q1.50 111.63 1.50 109.50L1.50 109.50Q1.50 107.25 2.88 106.44Q4.25 105.63 5.88 105.63L5.88 105.63L8.38 105.63L8.38 104.50Q8.38 103.63 7.81 103.13Q7.25 102.63 6.13 102.63L6.13 102.63Q4.88 102.63 3.75 102.75Q2.63 102.88 2.63 102.88L2.63 102.88L2.38 102.75L2.38 100.75Q2.38 100.75 3.69 100.63Q5 100.50 6.63 100.50L6.63 100.50Q8 100.50 9.44 101.13Q10.88 101.75 10.88 103.88L10.88 103.88L10.88 112.75ZM8.38 107.50L8.38 107.50L6.63 107.50Q5.25 107.50 4.63 107.88Q4 108.25 4 109.25L4 109.25Q4 110.25 4.56 110.56Q5.13 110.88 5.75 110.88L5.75 110.88Q6.38 110.88 7.06 110.63Q7.75 110.38 8.38 109.63L8.38 109.63L8.38 107.50ZM14.25 100.75L14.25 100.75L16.63 100.75L16.75 101L16.75 102.38L16.75 102.38Q16.75 102.38 17.63 101.44Q18.50 100.50 20.25 100.50L20.25 100.50Q21.63 100.50 22.56 101.25Q23.50 102 23.50 104.13L23.50 104.13L23.50 109.38Q23.50 111.50 22 112.25Q20.50 113 19 113L19 113Q18.25 113 17.75 113Q17.25 113 16.75 112.88L16.75 112.88L16.75 117.13L14.25 117.13L14.25 100.75ZM16.75 110.75L16.75 110.75Q17.25 110.88 17.88 110.88Q18.50 110.88 19.13 110.75L19.13 110.75Q19.88 110.75 20.44 110.31Q21 109.88 21 108.75L21 108.75L21 104.25Q21 103.38 20.63 103Q20.25 102.63 19.50 102.63L19.50 102.63Q18.88 102.63 18.19 102.94Q17.50 103.25 16.75 104.25L16.75 104.25L16.75 110.75ZM26.63 100.75L26.63 100.75L28.88 100.75L29.13 101L29 102.38L29.13 102.38Q29.13 102.38 29.94 101.44Q30.75 100.50 32.63 100.50L32.63 100.50Q34 100.50 34.94 101.25Q35.88 102 35.88 104.13L35.88 104.13L35.88 109.38Q35.88 111.50 34.38 112.25Q32.88 113 31.25 113L31.25 113Q30.63 113 30.13 113Q29.63 113 29.13 112.88L29.13 112.88L29.13 117.13L26.63 117.13L26.63 100.75ZM29.13 110.75L29.13 110.75Q29.63 110.88 30.25 110.88Q30.88 110.88 31.38 110.75L31.38 110.75Q32.25 110.75 32.81 110.31Q33.38 109.88 33.38 108.75L33.38 108.75L33.38 104.25Q33.38 103.38 32.94 103Q32.50 102.63 31.88 102.63L31.88 102.63Q31.13 102.63 30.50 102.94Q29.88 103.25 29.13 104.25L29.13 104.25L29.13 110.75ZM47 102.88L46.88 103Q46.88 103 45.94 102.88Q45 102.75 43.75 102.75L43.75 102.75Q42.75 102.75 41.94 103.06Q41.13 103.38 41.13 104.75L41.13 104.75L41.13 108.75Q41.13 110.13 41.94 110.50Q42.75 110.88 43.75 110.88L43.75 110.88Q45 110.88 45.94 110.75Q46.88 110.63 46.88 110.63L46.88 110.63L47 110.75L47 112.75Q47 112.75 45.88 112.88Q44.75 113 43.13 113L43.13 113Q41.63 113 40.13 112.31Q38.63 111.63 38.63 109.50L38.63 109.50L38.63 104.13Q38.63 102 40.13 101.25Q41.63 100.50 43.13 100.50L43.13 100.50Q44.75 100.50 45.88 100.63Q47 100.75 47 100.75L47 100.75L47 102.88ZM58.25 107.50L58.25 107.50L51.88 107.50L51.88 108.75Q51.88 110.13 52.63 110.50Q53.38 110.88 54.50 110.88L54.50 110.88Q55.63 110.88 56.63 110.75Q57.63 110.63 57.63 110.63L57.63 110.63L57.88 110.75L57.88 112.75Q57.88 112.75 56.69 112.88Q55.50 113 53.88 113L53.88 113Q52.25 113 50.81 112.31Q49.38 111.63 49.38 109.50L49.38 109.50L49.38 104.38Q49.38 102.13 50.88 101.31Q52.38 100.50 54 100.50L54 100.50Q55.75 100.50 57.25 101.25Q58.75 102 58.75 104.38L58.75 104.38Q58.75 105.38 58.63 106.25Q58.50 107.13 58.50 107.25L58.50 107.25L58.25 107.50ZM51.88 104.13L51.88 104.13L51.88 105.63L56 105.63Q56.13 105.38 56.13 105Q56.13 104.63 56.13 104.13L56.13 104.13Q56.13 103.38 55.56 103Q55 102.63 54 102.63L54 102.63Q53.13 102.63 52.50 103Q51.88 103.38 51.88 104.13L51.88 104.13ZM61.63 96L64.13 96L64.13 112.75L61.63 112.75L61.63 96ZM76 107.50L76 107.50L69.63 107.50L69.63 108.75Q69.63 110.13 70.44 110.50Q71.25 110.88 72.25 110.88L72.25 110.88Q73.50 110.88 74.50 110.75Q75.50 110.63 75.50 110.63L75.50 110.63L75.63 110.75L75.63 112.75Q75.63 112.75 74.44 112.88Q73.25 113 71.63 113L71.63 113Q70.13 113 68.63 112.31Q67.13 111.63 67.13 109.50L67.13 109.50L67.13 104.38Q67.13 102.13 68.63 101.31Q70.13 100.50 71.88 100.50L71.88 100.50Q73.50 100.50 75 101.25Q76.50 102 76.50 104.38L76.50 104.38Q76.50 105.38 76.44 106.25Q76.38 107.13 76.25 107.25L76.25 107.25L76 107.50ZM69.63 104.13L69.63 104.13L69.63 105.63L73.88 105.63Q73.88 105.38 73.94 105Q74 104.63 74 104.13L74 104.13Q73.88 103.38 73.31 103Q72.75 102.63 71.88 102.63L71.88 102.63Q70.88 102.63 70.25 103Q69.63 103.38 69.63 104.13ZM85.63 103L85.63 103Q84.75 103 83.81 103.19Q82.88 103.38 81.88 104.25L81.88 104.25L81.88 112.75L79.38 112.75L79.38 100.75L81.75 100.75L81.88 101L81.88 102.38L81.88 102.38Q81.75 102.38 82.81 101.38Q83.88 100.38 85.75 100.50L85.75 100.50L85.75 102.88L85.63 103ZM96.63 112.75L96.63 112.75L94.38 112.75L94.25 112.63L94.25 111.25L94.13 111.25Q94.13 111.25 93.31 112.13Q92.50 113 90.75 113L90.75 113Q89.38 113 88.31 112.31Q87.25 111.63 87.25 109.50L87.25 109.50Q87.25 107.25 88.63 106.44Q90 105.63 91.75 105.63L91.75 105.63L94.25 105.63L94.25 104.50Q94.25 103.63 93.63 103.13Q93 102.63 92 102.63L92 102.63Q90.75 102.63 89.56 102.75Q88.38 102.88 88.38 102.88L88.38 102.88L88.25 102.75L88.25 100.75Q88.25 100.75 89.50 100.63Q90.75 100.50 92.38 100.50L92.38 100.50Q93.88 100.50 95.25 101.13Q96.63 101.75 96.63 103.88L96.63 103.88L96.63 112.75ZM94.25 107.50L94.25 107.50L92.38 107.50Q91.13 107.50 90.44 107.88Q89.75 108.25 89.75 109.25L89.75 109.25Q89.75 110.25 90.38 110.56Q91 110.88 91.63 110.88L91.63 110.88Q92.25 110.88 92.94 110.63Q93.63 110.38 94.25 109.63L94.25 109.63L94.25 107.50ZM100.25 102.75L100.25 102.75L99 102.75L99 100.75L100.25 100.75L100.25 98.25L102.75 98.25L102.75 100.75L105.63 100.75L105.63 102.75L102.75 102.75L102.75 109.50Q102.75 110.25 103.13 110.56Q103.50 110.88 104.13 110.88L104.13 110.88Q104.75 110.88 105.25 110.81Q105.75 110.75 105.75 110.75L105.75 110.75L105.88 111L105.88 112.75Q105.88 112.75 105.25 112.88Q104.63 113 103.63 113L103.63 113Q102 113 101.13 112.13Q100.25 111.25 100.25 109.50L100.25 109.50L100.25 102.75ZM117 104.38L117 109.25Q117 111.63 115.56 112.31Q114.13 113 112.38 113L112.38 113Q110.63 113 109.13 112.25Q107.63 111.50 107.63 109.25L107.63 109.25L107.63 104.38Q107.63 102.13 109.13 101.31Q110.63 100.50 112.38 100.50L112.38 100.50Q114.13 100.50 115.56 101.25Q117 102 117 104.38L117 104.38ZM114.63 108.88L114.63 104.63Q114.63 103.63 114 103.13Q113.38 102.63 112.38 102.63L112.38 102.63Q111.25 102.63 110.69 103.13Q110.13 103.63 110.13 104.63L110.13 104.63L110.13 108.88Q110.13 110 110.75 110.44Q111.38 110.88 112.38 110.88L112.38 110.88Q113.50 110.88 114.06 110.38Q114.63 109.88 114.63 108.88L114.63 108.88ZM126.38 103L126.38 103Q125.63 103 124.63 103.19Q123.63 103.38 122.63 104.25L122.63 104.25L122.63 112.75L120.13 112.75L120.13 100.75L122.50 100.75L122.63 101L122.63 102.38L122.63 102.38Q122.63 102.38 123.63 101.38Q124.63 100.38 126.50 100.50L126.50 100.50L126.50 102.88L126.38 103Z"/></svg>