<svg xmlns="http://www.w3.org/2000/svg" xmlns:xlink="http://www.w3.org/1999/xlink" width="128" height="128"><path fill="#ffffff" d="M0.50 55.25L0.50 55.25L10.38 53.88L10.38 63.38L0.50 63.50L0.50 55.25ZM0.50 64.50L10.38 64.50L10.38 74L0.50 72.63L0.50 64.50ZM11.50 53.75L11.50 53.75L24.63 51.75L24.63 63.25L11.50 63.38L11.50 53.75ZM24.63 64.63L24.63 64.63L24.63 76L11.50 74.13L11.50 64.63L24.63 64.63ZM51.13 56.75L51.13 56.75L47.13 71.25L44.75 71.13L41.63 59.75Q41.63 59.25 41.63 59.44Q41.63 59.63 41.63 59.63L41.63 59.63L38.50 71.13L36.13 71.13L31.88 56.75L34.13 56.75L37.38 68.75L37.25 68.75L40.63 56.75L42.88 56.75L46 69L46 68.75L49 56.75L51.13 56.75ZM53.25 58.38L53.25 58.38Q52.88 58.38 52.69 58.31Q52.50 58.25 52.25 58.13L52.25 58.13Q52.13 57.88 52 57.69Q51.88 57.50 51.88 57.13L51.88 57.13Q51.88 56.88 52 56.69Q52.13 56.50 52.25 56.25L52.25 56.25Q52.50 56.13 52.69 56Q52.88 55.88 53.25 55.88L53.25 55.88Q53.50 55.88 53.69 56Q53.88 56.13 54.13 56.25L54.13 56.25Q54.25 56.50 54.38 56.69Q54.50 56.88 54.50 57.13L54.50 57.13Q54.50 57.38 54.38 57.63Q54.25 57.88 54.13 58.13L54.13 58.13Q53.88 58.25 53.69 58.31Q53.50 58.38 53.25 58.38L53.25 58.38ZM54.13 60.88L54.13 71.25L52.13 71.13L52.13 60.88L54.13 60.88ZM65.25 71.25L65.25 71.25L63.38 71.25L63.38 65.50Q63.38 63.88 62.81 63.06Q62.25 62.25 61.13 62.25L61.13 62.25Q60.63 62.25 60.13 62.50Q59.63 62.75 59.25 63.13L59.25 63.13Q58.75 63.63 58.63 64.06Q58.50 64.50 58.50 65.50L58.50 65.50L58.50 71.25L56.50 71.25L56.50 60.88L58.38 60.88L58.50 63.25L58.13 62.88Q58.75 62 59.56 61.31Q60.38 60.63 61.75 60.63L61.75 60.63Q62.63 60.63 63.31 60.88Q64 61.13 64.50 61.63L64.50 61.63Q64.88 62.25 65.06 63.13Q65.25 64 65.25 65L65.25 65L65.25 71.25ZM76.88 71.38L76.88 71.38L74.88 71.38L74.88 69.63L75.13 69.63Q74.63 70.63 73.69 71.13Q72.75 71.63 71.50 71.63L71.50 71.63Q70.50 71.63 69.69 71.25Q68.88 70.88 68.25 70.13L68.25 70.13Q67.75 69.50 67.44 68.50Q67.13 67.50 67.13 66.38L67.13 66.38Q67.13 65 67.44 64Q67.75 63 68.38 62.13L68.38 62.13Q69.13 61.38 70 61Q70.88 60.63 72 60.63L72 60.63Q73.13 60.63 73.88 61Q74.63 61.38 75.13 62.25L75.13 62.25L74.88 62.25L74.88 55.88L76.88 55.88L76.88 71.38ZM74.88 66.63L74.88 66.63L74.88 65.13Q74.88 64.50 74.69 64Q74.50 63.50 74.13 63.13L74.13 63.13Q73.75 62.75 73.25 62.56Q72.75 62.38 72.13 62.38L72.13 62.38Q71.50 62.38 70.94 62.63Q70.38 62.88 70 63.38L70 63.38Q69.63 63.88 69.44 64.63Q69.25 65.38 69.25 66.25L69.25 66.25Q69.25 67.13 69.44 67.75Q69.63 68.38 70 68.88L70 68.88Q70.38 69.38 70.88 69.63Q71.38 69.88 72 69.88L72 69.88Q72.63 69.88 73.13 69.63Q73.63 69.38 74 68.88L74 68.88Q74.50 68.50 74.69 67.88Q74.88 67.25 74.88 66.63L74.88 66.63ZM83.63 71.50L83.63 71.50Q82.50 71.50 81.56 71.13Q80.63 70.75 79.88 70L79.88 70Q79.25 69.25 78.88 68.31Q78.50 67.38 78.50 66.13L78.50 66.13Q78.50 64.88 78.88 63.81Q79.25 62.75 80 62L80 62Q80.75 61.25 81.69 60.88Q82.63 60.50 83.88 60.50L83.88 60.50Q85.13 60.50 86.06 60.88Q87 61.25 87.63 62L87.63 62Q88.25 62.75 88.63 63.75Q89 64.75 89 66L89 66Q89 67.25 88.63 68.25Q88.25 69.25 87.50 70L87.50 70Q86.75 70.75 85.81 71.13Q84.88 71.50 83.63 71.50L83.63 71.50ZM83.75 62.25L83.75 62.25Q83 62.25 82.44 62.50Q81.88 62.75 81.50 63.25L81.50 63.25Q81 63.75 80.81 64.50Q80.63 65.25 80.63 66.13L80.63 66.13Q80.63 67 80.81 67.63Q81 68.25 81.50 68.75L81.50 68.75Q81.88 69.25 82.50 69.50Q83.13 69.75 83.75 69.75L83.75 69.75Q84.50 69.75 85.06 69.50Q85.63 69.25 86 68.75L86 68.75Q86.50 68.38 86.69 67.69Q86.88 67 86.88 66L86.88 66Q86.88 65.13 86.69 64.44Q86.50 63.75 86 63.25L86 63.25Q85.63 62.75 85.06 62.50Q84.50 62.25 83.75 62.25L83.75 62.25ZM104.38 60.88L104.38 60.88L101.25 71.25L99.13 71.25L97 63.13L97 63.25L94.50 71.25L92.50 71.25L89.38 60.88L91.50 60.88L93.75 69.25L93.63 69.38L96.13 60.88L98 60.88L100.38 69.63L100.25 69.25L102.25 60.88L104.38 60.88ZM105.13 70.88L105.13 70.88L105.13 68.88Q105.75 69.38 106.50 69.63Q107.25 69.88 107.88 69.88L107.88 69.88Q108.75 69.88 109.19 69.56Q109.63 69.25 109.63 68.63L109.63 68.63Q109.63 68.38 109.56 68.25Q109.50 68.13 109.50 68L109.50 68Q109.38 67.88 109.25 67.75Q109.13 67.63 109 67.63L109 67.63Q108.88 67.50 108.75 67.38Q108.63 67.25 108.38 67.25L108.38 67.25L107.63 66.88Q107.38 66.75 107.06 66.56Q106.75 66.38 106.50 66.25L106.50 66.25Q106.38 66.13 106.13 66Q105.88 65.88 105.75 65.63L105.75 65.63Q105.63 65.50 105.50 65.25Q105.38 65 105.25 64.75L105.25 64.75Q105.13 64.63 105.13 64.31Q105.13 64 105.13 63.75L105.13 63.75Q105.13 63.38 105.19 63Q105.25 62.63 105.38 62.38L105.38 62.38Q105.63 62 105.81 61.75Q106 61.50 106.25 61.38L106.25 61.38Q106.50 61.13 106.81 61Q107.13 60.88 107.38 60.75L107.38 60.75Q107.75 60.63 108.06 60.63Q108.38 60.63 108.75 60.63L108.75 60.63Q109.38 60.63 109.94 60.75Q110.50 60.88 111 61.13L111 61.13L111 63.13Q110.38 62.75 109.75 62.56Q109.13 62.38 108.50 62.38L108.50 62.38Q108.38 62.38 108.19 62.38Q108 62.38 107.88 62.38L107.88 62.38Q107.75 62.50 107.63 62.56Q107.50 62.63 107.38 62.75L107.38 62.75Q107.25 62.75 107.19 62.88Q107.13 63 107.13 63.13L107.13 63.13Q107 63.25 107 63.31Q107 63.38 107 63.63L107 63.63Q107 63.75 107 63.88Q107 64 107.13 64.13L107.13 64.13Q107.13 64.25 107.19 64.38Q107.25 64.50 107.38 64.50L107.38 64.50Q107.50 64.63 107.63 64.75Q107.75 64.88 108 64.88L108 64.88L108.75 65.25Q109.13 65.38 109.38 65.50Q109.63 65.63 109.88 65.88L109.88 65.88Q110.13 66 110.31 66.13Q110.50 66.25 110.75 66.50L110.75 66.50Q110.88 66.63 111 66.88Q111.13 67.13 111.25 67.38L111.25 67.38Q111.38 67.50 111.44 67.81Q111.50 68.13 111.50 68.50L111.50 68.50Q111.50 68.88 111.38 69.19Q111.25 69.50 111.13 69.88L111.13 69.88Q111 70.13 110.81 70.38Q110.63 70.63 110.25 70.88L110.25 70.88Q110 71 109.75 71.19Q109.50 71.38 109.13 71.38L109.13 71.38Q108.75 71.50 108.44 71.56Q108.13 71.63 107.75 71.63L107.75 71.63Q107 71.63 106.31 71.44Q105.63 71.25 105.13 70.88L105.13 70.88ZM117.88 67.25L117.88 67.25Q117.88 66.88 117.94 66.56Q118 66.25 118 66L118 66Q118.13 65.75 118.25 65.44Q118.38 65.13 118.63 64.88L118.63 64.88Q118.75 64.63 118.94 64.38Q119.13 64.13 119.38 64L119.38 64Q119.75 63.75 120 63.63Q120.25 63.50 120.50 63.38L120.50 63.38Q120 63.25 119.69 62.94Q119.38 62.63 119 62.25L119 62.25Q118.75 61.75 118.63 61.31Q118.50 60.88 118.50 60.38L118.50 60.38Q118.50 59.88 118.56 59.50Q118.63 59.13 118.75 58.75L118.75 58.75Q119 58.50 119.19 58.19Q119.38 57.88 119.63 57.63L119.63 57.63Q120 57.38 120.31 57.13Q120.63 56.88 121 56.75L121 56.75Q121.38 56.63 121.81 56.56Q122.25 56.50 122.63 56.50L122.63 56.50Q123.13 56.50 123.56 56.56Q124 56.63 124.38 56.75L124.38 56.75Q124.75 57 125.06 57.19Q125.38 57.38 125.75 57.63L125.75 57.63Q126 57.88 126.19 58.19Q126.38 58.50 126.63 58.88L126.63 58.88Q126.75 59.13 126.81 59.50Q126.88 59.88 126.88 60.38L126.88 60.38Q126.88 60.88 126.75 61.31Q126.63 61.75 126.38 62.25L126.38 62.25Q126 62.63 125.69 62.94Q125.38 63.25 124.88 63.38L124.88 63.38Q125.13 63.50 125.44 63.63Q125.75 63.75 126 64L126 64Q126.25 64.13 126.44 64.38Q126.63 64.63 126.75 64.88L126.75 64.88Q127 65.13 127.13 65.44Q127.25 65.75 127.38 66L127.38 66Q127.38 66.25 127.44 66.56Q127.50 66.88 127.50 67.25L127.50 67.25Q127.50 67.63 127.44 68.13Q127.38 68.63 127.13 69L127.13 69Q127 69.38 126.75 69.75Q126.50 70.13 126.13 70.38L126.13 70.38Q125.88 70.63 125.50 70.88Q125.13 71.13 124.63 71.25L124.63 71.25Q124.25 71.50 123.75 71.56Q123.25 71.63 122.63 71.63L122.63 71.63Q122.13 71.63 121.63 71.56Q121.13 71.50 120.75 71.25L120.75 71.25Q120.25 71.13 119.88 70.88Q119.50 70.63 119.25 70.38L119.25 70.38Q118.88 70.13 118.63 69.75Q118.38 69.38 118.25 69L118.25 69Q118 68.63 117.94 68.19Q117.88 67.75 117.88 67.25ZM120 67.13L120 67.13Q120 67.38 120.06 67.69Q120.13 68 120.25 68.25L120.25 68.25Q120.38 68.50 120.50 68.69Q120.63 68.88 120.75 69L120.75 69Q121 69.25 121.19 69.38Q121.38 69.50 121.63 69.63L121.63 69.63Q121.88 69.63 122.13 69.69Q122.38 69.75 122.75 69.75L122.75 69.75Q123 69.75 123.25 69.69Q123.50 69.63 123.75 69.63L123.75 69.63Q124 69.50 124.19 69.38Q124.38 69.25 124.63 69L124.63 69Q124.75 68.88 124.88 68.69Q125 68.50 125.13 68.13L125.13 68.13Q125.25 67.88 125.31 67.63Q125.38 67.38 125.38 67.13L125.38 67.13Q125.38 66.75 125.31 66.50Q125.25 66.25 125.13 66L125.13 66Q125 65.75 124.88 65.56Q124.75 65.38 124.63 65.13L124.63 65.13Q124.38 65 124.19 64.88Q124 64.75 123.75 64.63L123.75 64.63Q123.50 64.50 123.25 64.44Q123 64.38 122.75 64.38L122.75 64.38Q122.38 64.38 122.13 64.44Q121.88 64.50 121.63 64.63L121.63 64.63Q121.38 64.63 121.19 64.81Q121 65 120.88 65.13L120.88 65.13Q120.63 65.25 120.50 65.50Q120.38 65.75 120.25 66L120.25 66Q120.13 66.25 120.06 66.50Q120 66.75 120 67.13ZM120.63 60.50L120.63 60.50Q120.63 60.75 120.63 60.94Q120.63 61.13 120.75 61.38L120.75 61.38Q120.88 61.50 120.94 61.69Q121 61.88 121.25 62L121.25 62Q121.38 62.13 121.50 62.25Q121.63 62.38 121.88 62.50L121.88 62.50Q122.13 62.50 122.31 62.56Q122.50 62.63 122.75 62.63L122.75 62.63Q122.88 62.63 123.13 62.56Q123.38 62.50 123.50 62.50L123.50 62.50Q123.75 62.38 123.88 62.25Q124 62.13 124.25 62L124.25 62Q124.38 61.88 124.50 61.69Q124.63 61.50 124.63 61.38L124.63 61.38Q124.75 61.13 124.81 60.94Q124.88 60.75 124.88 60.50L124.88 60.50Q124.88 60.25 124.81 60Q124.75 59.75 124.63 59.63L124.63 59.63Q124.63 59.38 124.50 59.19Q124.38 59 124.25 58.88L124.25 58.88Q124.13 58.75 123.94 58.63Q123.75 58.50 123.50 58.50L123.50 58.50Q123.38 58.38 123.13 58.31Q122.88 58.25 122.75 58.25L122.75 58.25Q122.50 58.25 122.25 58.31Q122 58.38 121.88 58.50L121.88 58.50Q121.63 58.50 121.44 58.63Q121.25 58.75 121.13 58.88L121.13 58.88Q121 59 120.88 59.19Q120.75 59.38 120.75 59.63L120.75 59.63Q120.63 59.75 120.63 60Q120.63 60.25 120.63 60.50L120.63 60.50Z"/></svg>