<svg xmlns="http://www.w3.org/2000/svg" xmlns:xlink="http://www.w3.org/1999/xlink" width="128" height="128"><path fill="#ffffff" d="M0 62.50L0 42.63L20.25 42.63L0 62.50ZM0 63.88L0 85.38L42.75 42.63L21.63 42.63L0 63.88ZM1.38 85.38L42.75 85.38L21.63 65.25L1.38 85.38ZM55.13 75.25L50 75.25L50 52.38L55.13 52.38L55.13 62.13L64.38 52.38L70.25 52.38L60.88 62.13L70.25 75.25L64.38 75.25L57.63 65.75L55.13 68.25L55.13 75.25ZM77.50 57.75L77.50 57.75Q73.63 57.75 70.94 60.31Q68.25 62.88 68.25 66.50L68.25 66.50Q68.25 70.13 70.94 72.69Q73.63 75.25 77.50 75.25L77.50 75.25Q81.38 75.25 84.06 72.69Q86.75 70.13 86.75 66.50L86.75 66.50Q86.75 62.88 84.06 60.31Q81.38 57.75 77.50 57.75ZM77.50 71.38L77.50 71.38Q75.50 71.38 74.06 69.94Q72.63 68.50 72.63 66.50L72.63 66.50Q72.63 64.50 74.06 63.06Q75.50 61.63 77.50 61.63L77.50 61.63Q79.50 61.63 80.94 63.06Q82.38 64.50 82.38 66.50L82.38 66.50Q82.38 68.50 80.94 69.94Q79.50 71.38 77.50 71.38ZM87.88 57.75L87.88 53.38L93 53.38L93 57.88L97 57.88L97 62.13L93 62.13L93 70.25Q93 70.25 94.06 71.06Q95.13 71.88 97 70.25L97 70.25L97 74.75Q97 74.75 94.56 75.50Q92.13 76.25 89.50 74.75L89.50 74.75Q89.50 74.75 88.69 73.75Q87.88 72.75 87.88 71.25L87.88 71.25Q87.88 70 87.88 66.06Q87.88 62.13 87.88 62.13L87.88 62.13L85.88 62.13L85.88 57.75L87.88 57.75ZM98.50 51.38L98.50 51.38L103.38 51.38L103.38 75.13L98.50 75.13L98.50 51.38ZM105.25 55.63L105.25 51.38L110.25 51.38L110.25 55.63L105.25 55.63ZM105.25 57.88L105.25 57.88L110.25 57.88L110.25 75.25L105.25 75.25L105.25 57.88ZM111.88 57.88L111.88 57.88L117 57.88L117 60.63Q117 60.63 120.06 57.94Q123.13 55.25 127.38 60.63L127.38 60.63L127.88 62.13L127.88 75.25L122.88 75.25L122.88 64.63Q122.88 64.63 121.13 62.63Q119.38 60.63 117 64.63L117 64.63L117 75.25L111.88 75.25L111.88 57.88Z"/></svg>