<svg xmlns="http://www.w3.org/2000/svg" xmlns:xlink="http://www.w3.org/1999/xlink" width="128" height="128"><path fill="#ffffff" d="M126.38 90.63L126.38 90.63Q126.38 90.25 126.38 89.88Q126.38 89.50 126.50 89L126.50 89Q126.50 88.75 120.38 82.75L120.38 82.75Q114.13 76.75 106.75 69.69Q99.38 62.63 93.25 56.75L93.25 56.75Q87.13 50.88 87.13 50.88L87.13 50.88L86.13 50.88Q86.13 50.88 92.38 57.50L92.38 57.50Q98.63 64 106.13 71.69Q113.63 79.38 120 85.38L120 85.38Q126.25 91.50 126.38 90.63L126.38 90.63ZM42.25 77.63L42.25 77.63Q42.13 77.88 42.06 78.06Q42 78.25 41.88 78.50L41.88 78.50Q41.38 79.38 44.13 82.75L44.13 82.75Q46.88 86.13 50.44 89.56Q54 93 57.25 95.50L57.25 95.50Q60.50 98 61 97.13L61 97.13Q61.13 97 61.19 96.94Q61.25 96.88 61.25 96.88L61.25 96.88Q61.25 96.75 61.31 96.69Q61.38 96.63 61.50 96.50L61.50 96.50Q61.88 95.75 59 92.63L59 92.63Q56.13 89.38 52.50 85.88Q48.88 82.38 45.63 79.75L45.63 79.75Q42.50 77.13 42.25 77.63L42.25 77.63ZM68.88 103.50L68.88 103.50Q68.88 103.63 68.63 104Q68.38 104.38 68.13 104.63L68.13 104.63Q68.13 104.63 71 107.50L71 107.50Q73.88 110.38 77.31 113.88Q80.75 117.38 83.63 120.13L83.63 120.13Q86.50 123 86.50 123L86.50 123L88.13 123Q88.13 123 85.38 120.13L85.38 120.13Q82.63 117.13 79.25 113.56Q75.88 110 72.75 106.88L72.75 106.88Q69.63 103.75 68.88 103.50L68.88 103.50ZM126.50 88.75L126.50 88.63Q126.13 95.75 123.25 102L123.25 102Q120.25 108.38 115.38 113Q110.50 117.63 104.13 120.38L104.13 120.38Q97.75 123 90.50 123L90.50 123L87.88 123L68.50 104Q69.63 102.50 70.69 100.81Q71.75 99.13 72.75 97.38L72.75 97.38L90.50 97Q94.63 97 97.56 94.06Q100.50 91.13 100.50 87L100.50 87Q100.50 82.75 97.56 79.81Q94.63 76.88 90.50 76.88L90.50 76.88L80.13 76.88Q80.63 74 80.94 70.69Q81.25 67.38 81.25 64L81.25 64Q81.25 60.63 80.94 57.38Q80.63 54.13 80 50.88L80 50.88L86.50 50.88L126.38 90.25Q126.38 89.88 126.44 89.50Q126.50 89.13 126.50 88.75L126.50 88.75ZM12 4.75L12 4.75L1.50 4.75L1.50 30.75L12 30.75Q18.88 30.75 24.88 33.38L24.88 33.38Q30.88 36 35.44 40.50Q40 45 42.63 51.13L42.63 51.13Q45.25 57.13 45.25 64L45.25 64Q45.25 67.75 44.44 71.25Q43.63 74.75 42.13 78L42.13 78L61.25 96.88Q65.88 89.88 68.56 81.56Q71.25 73.25 71.25 64L71.25 64Q71.25 64 71.25 64Q71.25 64 71.25 64L71.25 64Q71.25 51.75 66.50 41L66.50 41Q61.88 30.13 53.81 22.13Q45.75 14.13 35 9.38L35 9.38Q24.25 4.75 12 4.75L12 4.75ZM90.50 4.75L90.50 4.75L48 4.75Q55.75 9.63 62 16.13Q68.25 22.63 72.63 30.38L72.63 30.38L90.50 30.75Q94.63 30.75 97.56 33.69Q100.50 36.63 100.50 40.88L100.50 40.88Q100.50 45 97.56 47.94Q94.63 50.88 90.50 50.88L90.50 50.88L86.50 50.88L126.38 90.25Q126.50 89.50 126.50 88.69Q126.50 87.88 126.50 87L126.50 87Q126.50 80.38 124.31 74.50Q122.13 68.63 118.13 63.88L118.13 63.88Q122.13 59.25 124.31 53.31Q126.50 47.38 126.50 40.88L126.50 40.88Q126.50 33.38 123.75 26.88L123.75 26.88Q120.88 20.25 115.94 15.38Q111 10.50 104.50 7.63L104.50 7.63Q97.88 4.75 90.50 4.75L90.50 4.75ZM68.38 104.25L87.88 123L48.25 123Q54.38 119.25 59.38 114.50Q64.38 109.75 68.38 104.25L68.38 104.25ZM61.25 96.88L61.25 96.88L42.13 78Q38.13 86.50 30.06 91.88Q22 97.25 12 97.25L12 97.25L1.50 97.25L1.50 123.25L12 123.25Q19.63 123.25 26.88 121.38L26.88 121.38Q34 119.50 40.31 116Q46.63 112.50 52 107.63L52 107.63Q57.25 102.75 61.25 96.88L61.25 96.88Z"/></svg>