<svg xmlns="http://www.w3.org/2000/svg" xmlns:xlink="http://www.w3.org/1999/xlink" width="128" height="128"><path fill="#ffffff" d="M118.13 64L118.13 64Q122.13 59.25 124.31 53.38Q126.50 47.50 126.50 41L126.50 41Q126.50 33.50 123.75 27L123.75 27Q120.88 20.38 115.94 15.50Q111 10.63 104.50 7.88L104.50 7.88Q97.88 5 90.50 5L90.50 5L48 5Q55.75 10.25 62.06 16.88Q68.38 23.50 72.75 31L72.75 31L90.50 31Q94.63 31 97.56 33.94Q100.50 36.88 100.50 41L100.50 41Q100.50 45.13 97.56 48.06Q94.63 51 90.50 51L90.50 51L80 51Q80.63 54.75 80.94 57.75Q81.25 60.75 81.25 64.13L81.25 64.13Q81.25 67.38 80.94 70.69Q80.63 74 80.13 77L80.13 77L90.50 77Q94.63 77 97.56 80.19Q100.50 83.38 100.50 87.50L100.50 87.50Q100.50 91.63 97.56 94.81Q94.63 98 90.50 98L90.50 98L72.88 98Q71.88 99.50 70.81 101.38Q69.75 103.25 68.50 105L68.50 105Q64.50 110.75 59.38 115.50Q54.25 120.25 48.25 124L48.25 124L90.50 124Q97.75 124 104.13 121.25L104.13 121.25Q110.50 118.50 115.38 113.75Q120.25 109 123.25 102.63L123.25 102.63Q126.13 96.25 126.50 89.13L126.50 89.13Q126.50 89.38 126.50 89.50Q126.50 89.63 126.38 89.88L126.38 89.88Q126.50 89.13 126.50 88.44Q126.50 87.75 126.50 87.13L126.50 87.13Q126.50 80.63 124.31 74.63Q122.13 68.63 118.13 64L118.13 64ZM61 97.50L61 97.50L61 97.38Q61.13 97.25 61.19 97.13Q61.25 97 61.25 97L61.25 97Q61.25 96.88 61.31 96.75Q61.38 96.63 61.50 96.63L61.50 96.63Q61.50 96.63 61.50 96.56Q61.50 96.50 61.50 96.50L61.50 96.50Q66.13 89.50 68.69 81.31Q71.25 73.13 71.25 64.13L71.25 64.13Q71.25 51.88 66.50 41.13L66.50 41.13Q61.88 30.38 53.81 22.31Q45.75 14.25 35 9.63L35 9.63Q24.25 5 12 5L12 5L1 5L1 31L12 31Q18.88 31 24.88 33.63L24.88 33.63Q30.88 36.25 35.44 40.75Q40 45.25 42.63 51.25L42.63 51.25Q45.25 57.25 45.25 64.13L45.25 64.13Q45.25 67.88 44.44 71.38Q43.63 74.88 42.13 78.13L42.13 78.13Q42.13 78.13 42.13 78.25Q42.13 78.38 42.13 78.50L42.13 78.50Q38.13 87 30.06 92.50Q22 98 12 98L12 98L1 98L1 124L12 124Q19.63 124 26.75 122.13L26.75 122.13Q33.88 120.13 40.13 116.63Q46.38 113.13 51.75 108.38L51.75 108.38Q57 103.50 61 97.50Z"/></svg>