<svg xmlns="http://www.w3.org/2000/svg" xmlns:xlink="http://www.w3.org/1999/xlink" width="128" height="128"><path fill="#000000" d="M126.25 0.75L126.25 0.75Q112.63 0.75 99.13 0.75L99.13 0.75Q85.50 0.75 71.94 0.75Q58.38 0.75 44.88 0.75L44.88 0.75Q31.25 0.75 17.75 0.75L17.75 0.75Q13.75 0.75 9.81 0.75Q5.88 0.75 2.13 0.75L2.13 0.75Q1.75 0.75 1.38 0.81Q1 0.88 1 1L1 1L1 127L127 127L127 1Q127 0.88 126.75 0.81Q126.50 0.75 126.25 0.75ZM113.50 114.75L113.50 114.75Q101.25 114.75 89 114.75L89 114.75Q76.75 114.75 64.50 114.75Q52.25 114.75 40.13 114.75L40.13 114.75Q27.88 114.75 15.63 114.75L15.63 114.75Q14.38 114.75 14.19 114.50Q14 114.25 14 113.13L14 113.13L14 15.25Q14 14 14.19 14Q14.38 14 15.63 14L15.63 14L113.38 14Q114.63 14 114.81 14Q115 14 115 15.25L115 15.25L115 64.13Q115 70.25 115 76.38L115 76.38Q115 82.50 115 88.56Q115 94.63 115 100.88L115 100.88Q115 107 115 113.13L115 113.13Q115 114 114.69 114.38Q114.38 114.75 113.50 114.75L113.50 114.75ZM76.75 87.88L76.75 87.88Q80.88 89.13 85.06 88.81Q89.25 88.50 93.50 88L93.50 88Q94.38 87.88 94.63 87.38Q94.88 86.88 94.88 86L94.88 86Q94.88 80.38 94.88 74.63L94.88 74.63Q94.88 69 94.88 63.31Q94.88 57.63 94.88 52L94.88 52Q94.88 46.25 94.88 40.63L94.88 40.63L94.88 39.75L87.38 39.75L87.38 57.63Q84.25 57.25 81.38 57.50Q78.50 57.75 75.75 58.88L75.75 58.88Q71.25 60.75 69 64.88Q66.75 69 67 75L67 75Q67.13 79.88 69.69 83.25Q72.25 86.63 76.75 87.88ZM77.88 66L77.88 66Q80 64.75 82.19 64.69Q84.38 64.63 86.50 64.88L86.50 64.88Q86.63 64.88 86.88 65.19Q87.13 65.50 87.13 65.75L87.13 65.75Q87.13 69.63 87.13 73.69Q87.13 77.75 87.13 81.75L87.13 81.75Q85.13 82.13 83.13 82.25Q81.13 82.38 79.25 81.75L79.25 81.75Q76.88 81.13 75.56 79.38Q74.25 77.63 73.88 74.88L73.88 74.88Q73.63 72 74.69 69.63Q75.75 67.25 77.88 66L77.88 66ZM44 88.13L44 88.13L52.13 70.63L59.88 88.13L68.75 88.13L57.13 63.25L68.88 39.75L60.25 39.75L51.75 56.13L45 39.75L35.75 39.75L46.63 64.63L35 88.13L44 88.13Z"/></svg>