<svg xmlns="http://www.w3.org/2000/svg" xmlns:xlink="http://www.w3.org/1999/xlink" width="128" height="128"><path fill="#000000" d="M127 64L127 3.25Q127 1.75 126.75 1.38Q126.50 1 125 1L125 1L3.50 1Q2 1 1.50 1.38Q1 1.75 1 3.25L1 3.25L1 124.75Q1 126.25 1.38 126.50Q1.75 126.75 3.25 126.75L3.25 126.75Q18.38 126.75 33.63 126.75L33.63 126.75Q48.88 126.75 64.13 126.75Q79.38 126.75 94.50 126.75L94.50 126.75Q109.75 126.75 125 126.75L125 126.75Q126.25 126.75 126.63 126.31Q127 125.88 127 124.75L127 124.75Q127 117.13 127 109.50L127 109.50Q127 102 127 94.38Q127 86.75 127 79.13L127 79.13Q127 71.63 127 64L127 64ZM58.75 94L58.75 94L49 72.25L38.75 94L27.63 94L42.13 64.75L28.63 33.75L40.13 33.75L48.63 54.13L59 33.75L69.75 33.75L55.25 63.13L69.75 94L58.75 94ZM102.25 34.75L102.25 34.75Q102.25 41.88 102.25 49L102.25 49Q102.25 56 102.25 63.13Q102.25 70.25 102.25 77.25L102.25 77.25Q102.25 84.38 102.25 91.38L102.25 91.38Q102.25 92.50 102 93.19Q101.75 93.88 100.63 93.88L100.63 93.88Q95.38 94.63 90.13 94.94Q84.88 95.25 79.75 93.75L79.75 93.75Q74.13 92.25 71 88Q67.88 83.75 67.63 77.75L67.63 77.75Q67.25 70.25 70.06 65.13Q72.88 60 78.38 57.63L78.38 57.63Q81.88 56.13 85.44 55.88Q89 55.63 93 56L93 56L93 33.75L102.25 33.75L102.25 34.75ZM82.75 86.25L82.75 86.25Q85.25 86.88 87.75 86.75Q90.25 86.63 92.75 86.25L92.75 86.25Q92.75 81.13 92.75 76.13Q92.75 71.13 92.75 66.25L92.75 66.25Q92.75 66 92.56 65.63Q92.38 65.25 92.13 65.25L92.13 65.25Q89.38 64.75 86.56 64.94Q83.75 65.13 81.13 66.50L81.13 66.50Q78.38 68 77.06 70.94Q75.75 73.88 76 77.63L76 77.63Q76.25 81 78 83.13Q79.75 85.25 82.75 86.25L82.75 86.25Z"/></svg>