<svg xmlns="http://www.w3.org/2000/svg" xmlns:xlink="http://www.w3.org/1999/xlink" width="128" height="128"><path fill="#ffffff" d="M126.25 0.75L126.25 0.75Q112.63 0.75 99.13 0.75L99.13 0.75Q85.50 0.75 71.94 0.75Q58.38 0.75 44.88 0.75L44.88 0.75Q31.25 0.75 17.75 0.75L17.75 0.75Q13.88 0.75 9.94 0.75Q6 0.75 2.13 0.75L2.13 0.75Q1.88 0.75 1.44 0.81Q1 0.88 1 1L1 1L1 127L127 127L127 1Q127 0.88 126.75 0.81Q126.50 0.75 126.25 0.75ZM113.50 114.63L113.50 114.63Q101.25 114.63 89 114.63L89 114.63Q76.75 114.63 64.50 114.63Q52.25 114.63 40 114.63L40 114.63Q27.75 114.63 15.63 114.63L15.63 114.63Q14.38 114.63 14.19 114.44Q14 114.25 14 113L14 113L14 15.25Q14 14 14.19 14Q14.38 14 15.63 14L15.63 14L113.38 14Q114.63 14 114.81 14Q115 14 115 15.25L115 15.25L115 64.13Q115 70.25 115 76.38L115 76.38Q115 82.50 115 88.63Q115 94.75 115 100.88L115 100.88Q115 107 115 113.13L115 113.13Q115 114 114.69 114.31Q114.38 114.63 113.50 114.63L113.50 114.63ZM56.88 39.63L56.88 39.63Q51.88 38.50 46.81 38.75Q41.75 39 36.75 39.50L36.75 39.50Q35.63 39.63 35.31 40.13Q35 40.63 35 41.50L35 41.50Q35 47.25 35 53L35 53Q35 58.63 35 64.38Q35 70.13 35 75.75L35 75.75Q35 81.50 35 87.13L35 87.13L35 88L44 88L44 70.13Q47.75 70.38 51.25 70.19Q54.75 70 58 68.88L58 68.88Q63.38 66.88 66.06 62.81Q68.75 58.75 68.38 52.63L68.38 52.63Q68.13 47.75 65.19 44.31Q62.25 40.88 56.88 39.63L56.88 39.63ZM54.88 62L54.88 62Q52.50 63.13 49.94 63.25Q47.38 63.38 44.88 63L44.88 63Q44.63 63 44.38 62.75Q44.13 62.50 44.13 62.25L44.13 62.25Q44.13 58.25 44.13 54.25Q44.13 50.25 44.13 46.13L44.13 46.13Q46.50 45.75 48.75 45.69Q51 45.63 53.25 46.13L53.25 46.13Q56 46.88 57.56 48.63Q59.13 50.38 59.38 53L59.38 53Q59.75 56 58.56 58.38Q57.38 60.75 54.88 62L54.88 62ZM88.13 69.13L88.13 69.13Q87.13 68.50 85.94 68.06Q84.75 67.63 83.50 67L83.50 67Q82.50 66.50 81.44 66Q80.38 65.50 79.38 65L79.38 65Q78.63 64.50 78.31 63.88Q78 63.25 78 62.38L78 62.38Q78 60.88 78.94 59.88Q79.88 58.88 81.50 58.75L81.50 58.75Q82.75 58.63 84 58.75Q85.25 58.88 86.50 59.13L86.50 59.13Q87.50 59.25 88.50 59.69Q89.50 60.13 90.63 60.50L90.63 60.50L92.38 54.25Q89.88 53 87.31 52.50Q84.75 52 82.13 52.13L82.13 52.13Q79.88 52.25 77.75 52.81Q75.63 53.38 73.75 54.75L73.75 54.75Q70.13 57.13 69.31 62.38Q68.50 67.63 73.75 71.13L73.75 71.13Q75.13 72 76.63 72.63Q78.13 73.25 79.63 74L79.63 74Q80.50 74.38 81.44 74.81Q82.38 75.25 83.25 75.75L83.25 75.75Q84.38 76.38 84.75 77.44Q85.13 78.50 85 79.63L85 79.63Q84.75 80.88 84 81.63Q83.25 82.38 82.13 82.50L82.13 82.50Q80.88 82.75 79.56 82.81Q78.25 82.88 77 82.75L77 82.75Q75.25 82.38 73.56 81.81Q71.88 81.25 70 80.75L70 80.75Q69.75 81.88 69.44 83.19Q69.13 84.50 68.63 85.75L68.63 85.75Q68.38 86.50 68.56 86.88Q68.75 87.25 69.50 87.50L69.50 87.50Q73.63 89.25 77.94 89.50Q82.25 89.75 86.50 88.25L86.50 88.25Q89.75 87.13 91.63 84.88Q93.50 82.63 93.75 79.13L93.75 79.13Q94 75.75 92.56 73.25Q91.13 70.75 88.13 69.13L88.13 69.13Z"/></svg>