<svg xmlns="http://www.w3.org/2000/svg" xmlns:xlink="http://www.w3.org/1999/xlink" width="128" height="128"><path fill="#000000" d="M50.25 41.63L50.25 41.63Q47.50 40.88 44.69 41Q41.88 41.13 39 41.63L39 41.63Q39 46.75 39 51.69Q39 56.63 39 61.63L39 61.63Q39 61.88 39.31 62.25Q39.63 62.63 39.88 62.63L39.88 62.63Q43 63 46.19 62.88Q49.38 62.75 52.25 61.25L52.25 61.25Q55.38 59.75 56.88 56.81Q58.38 53.88 58 50.25L58 50.25Q57.63 46.88 55.63 44.69Q53.63 42.50 50.25 41.63L50.25 41.63ZM127 64L127 64L127 3.25Q127 1.75 126.75 1.38Q126.50 1 125 1L125 1L3.50 1Q2 1 1.50 1.38Q1 1.75 1 3.13L1 3.13L1 124.75Q1 126.25 1.38 126.50Q1.75 126.75 3.25 126.75L3.25 126.75Q18.38 126.75 33.63 126.75L33.63 126.75Q48.88 126.75 64.13 126.75Q79.38 126.75 94.50 126.75L94.50 126.75Q109.75 126.75 125 126.75L125 126.75Q126.13 126.75 126.56 126.38Q127 126 127 124.75L127 124.75Q127 117.25 127 109.63L127 109.63Q127 102 127 94.38Q127 86.75 127 79.13L127 79.13Q127 71.63 127 64L127 64ZM56.38 69.75L56.38 69.75Q52.13 71.25 47.81 71.50Q43.50 71.75 39 71.38L39 71.38L39 94L28 94L28 92.63Q28 85.50 28 78.38L28 78.38Q28 71.38 27.94 64.25Q27.88 57.13 27.88 50.13L27.88 50.13Q27.88 43 27.88 35.88L27.88 35.88Q27.88 34.75 28.19 34.13Q28.50 33.50 29.88 33.38L29.88 33.38Q36.13 32.75 42.31 32.44Q48.50 32.13 54.75 33.50L54.75 33.50Q61.50 35.13 65.19 39.31Q68.88 43.50 69.25 49.63L69.25 49.63Q69.63 57.25 66.31 62.31Q63 67.38 56.38 69.75L56.38 69.75ZM100.63 82.50L100.63 82.50Q100.38 86.88 98 89.75Q95.63 92.63 91.63 94L91.63 94Q86.25 95.75 80.94 95.44Q75.63 95.13 70.38 93L70.38 93Q69.63 92.75 69.38 92.25Q69.13 91.75 69.38 90.88L69.38 90.88Q70 89.25 70.38 87.63Q70.75 86 71.13 84.63L71.13 84.63Q73.38 85.25 75.50 85.94Q77.63 86.63 79.88 87L79.88 87Q81.38 87.25 83 87.19Q84.63 87.13 86.13 86.88L86.13 86.88Q87.63 86.63 88.56 85.69Q89.50 84.75 89.75 83.25L89.75 83.25Q89.88 81.75 89.44 80.50Q89 79.25 87.63 78.38L87.63 78.38Q86.50 77.75 85.38 77.25Q84.25 76.75 83.13 76.13L83.13 76.13Q81.25 75.38 79.38 74.56Q77.50 73.75 75.75 72.63L75.75 72.63Q69.13 68.38 70.25 61.81Q71.38 55.25 75.75 52.25L75.75 52.25Q78.13 50.63 80.75 49.88Q83.38 49.13 86.13 49L86.13 49Q89.38 48.88 92.56 49.50Q95.75 50.13 98.88 51.63L98.88 51.63L96.75 59.50Q95.38 59 94.13 58.50Q92.88 58 91.63 57.75L91.63 57.75Q90.13 57.38 88.56 57.25Q87 57.13 85.38 57.25L85.38 57.25Q83.38 57.50 82.25 58.75Q81.13 60 81.13 61.75L81.13 61.75Q81.13 62.75 81.50 63.63Q81.88 64.50 82.75 65L82.75 65Q84 65.75 85.31 66.38Q86.63 67 88 67.63L88 67.63Q89.38 68.25 90.81 68.81Q92.25 69.38 93.63 70.13L93.63 70.13Q97.38 72.13 99.19 75.25Q101 78.38 100.63 82.50Z"/></svg>