<svg xmlns="http://www.w3.org/2000/svg" xmlns:xlink="http://www.w3.org/1999/xlink" width="128" height="128"><path fill="#ffffff" d="M92.25 8.25L92.25 8.25Q91.50 7.88 90.75 7.44Q90 7 89.25 6.63L89.25 6.63Q88.38 6.25 87.56 5.88Q86.75 5.50 85.88 5.13L85.88 5.13Q85.63 5 85.38 4.88Q85.13 4.75 84.75 4.75L84.75 4.75Q84 4.38 83.31 4.13Q82.63 3.88 81.88 3.63L81.88 3.63Q77.88 2.25 73.56 1.56Q69.25 0.88 64.75 0.88L64.75 0.88Q53.38 0.88 43.38 5.25L43.38 5.25Q33.25 9.63 25.81 17.06Q18.38 24.50 14 34.63L14 34.63Q9.75 44.63 9.75 56.13L9.75 56.13Q9.75 66.13 13.13 75.25L13.13 75.25Q16.50 84.25 22.44 91.44Q28.38 98.63 36.63 103.50L36.63 103.50Q44.75 108.38 54.25 110.25L54.25 110.25L54.25 126.13Q66.50 124.25 77.88 118.63L77.88 118.63Q89.13 112.88 97.88 104.31Q106.63 95.75 112.13 84.50L112.13 84.50Q117.63 73.38 118.50 60.50L118.50 60.50Q119 52.75 117.38 45L117.38 45Q115.75 37.25 112.31 30.38Q108.88 23.50 103.75 17.88L103.75 17.88Q98.75 12.13 92.25 8.25L92.25 8.25ZM51.63 21.63L51.63 21.63Q53 21.50 54.38 22Q55.75 22.50 56.75 23.75L56.75 23.75Q57.50 24.50 58 25.44Q58.50 26.38 59 27.38L59 27.38Q60.50 30.88 60.06 34.50Q59.63 38.13 57.63 40.88L57.63 40.88Q54.13 40.13 51.13 37.94Q48.13 35.75 46.63 32.25L46.63 32.25Q46.13 31.25 45.81 30Q45.50 28.75 45.50 27.75L45.50 27.75Q45.63 25.25 47.44 23.56Q49.25 21.88 51.63 21.63L51.63 21.63ZM35.13 37.88L35.13 37.88Q35.38 37.88 35.63 37.88Q35.88 37.88 36.25 37.88L36.25 37.88Q37.50 37.88 38.56 38.19Q39.63 38.50 40.88 39L40.88 39Q44.38 40.50 46.81 43.31Q49.25 46.13 50 49.38L50 49.38Q47 51.38 43.19 51.81Q39.38 52.25 35.75 50.75L35.75 50.75Q34.88 50.25 33.88 49.69Q32.88 49.13 31.75 48.38L31.75 48.38Q28.50 45.75 29.81 41.88Q31.13 38 35.13 37.88L35.13 37.88ZM36.25 72.63L36.25 72.63Q31.63 72.88 29.94 68.94Q28.25 65 31.63 62.25L31.63 62.25Q32.38 61.50 33.38 60.94Q34.38 60.38 35.63 59.75L35.63 59.75Q37 59.25 38.31 58.94Q39.63 58.63 41.13 58.63L41.13 58.63Q43.38 58.50 45.63 59.19Q47.88 59.88 49.75 61.13L49.75 61.13Q49.13 64.38 46.81 67.19Q44.50 70 41 71.50L41 71.50Q39.88 72.13 38.63 72.38Q37.38 72.63 36.25 72.63ZM59.38 82.38L59.38 82.38Q58.88 83.38 58.38 84.38Q57.88 85.38 57.13 86.38L57.13 86.38Q54.50 89.75 50.25 88Q46 86.25 46.25 82L46.25 82Q46.25 81 46.56 79.81Q46.88 78.63 47.38 77.75L47.38 77.75Q48.88 74.13 51.75 71.94Q54.63 69.75 58.13 69L58.13 69Q60 72 60.44 75.56Q60.88 79.13 59.38 82.38L59.38 82.38ZM68.50 27.38L68.50 27.38Q69 26.38 69.50 25.38Q70 24.38 70.75 23.38L70.75 23.38Q71.88 22.25 73.25 21.69Q74.63 21.13 76.13 21.25L76.13 21.25Q78.38 21.50 80.25 23.25Q82.13 25 82 27.75L82 27.75Q82 28.63 81.69 29.88Q81.38 31.13 80.88 32.13L80.88 32.13Q79.38 35.63 76.56 37.81Q73.75 40 70.25 40.75L70.25 40.75Q68 38.13 67.50 34.56Q67 31 68.50 27.38ZM71.50 86.38L71.50 86.38Q70.75 85.63 70.25 84.69Q69.75 83.75 69.25 82.75L69.25 82.75Q67.75 79.13 68.19 75.56Q68.63 72 70.63 69.25L70.63 69.25Q74.13 70 77.13 72.19Q80.13 74.38 81.63 77.88L81.63 77.88Q82.13 78.88 82.44 80.13Q82.75 81.38 82.75 82.25L82.75 82.25Q82.88 86.25 78.56 87.88Q74.25 89.50 71.50 86.38ZM92.13 72.25L92.13 72.25Q90.88 72.25 89.75 72Q88.63 71.75 87.38 71.25L87.38 71.25Q83.88 69.75 81.44 66.94Q79 64.13 78.25 60.75L78.25 60.75Q80.13 59.50 82.38 58.88Q84.63 58.25 87 58.25L87 58.25Q88.38 58.25 89.75 58.56Q91.13 58.88 92.50 59.50L92.50 59.50Q93.50 60 94.50 60.50Q95.50 61 96.50 61.75L96.50 61.75Q100 64.38 98.31 68.50Q96.63 72.63 92.13 72.25L92.13 72.25Z"/></svg>