<svg xmlns="http://www.w3.org/2000/svg" xmlns:xlink="http://www.w3.org/1999/xlink" width="128" height="128"><path fill="#000000" d="M111.13 65.88L111.13 65.88Q110 65.88 109.25 66.38Q108.50 66.88 108 67.75L108 67.75Q108 67.63 108.06 67.38Q108.13 67.13 108.13 66.88L108.13 66.88L108.13 66.38L105.63 66.38L105.63 78.75L108.13 78.75L108.13 71.75Q108.13 70.25 108.88 69.31Q109.63 68.38 111.13 68.38L111.13 68.38L111.63 68.38L111.63 65.88L111.13 65.88ZM10.75 70.50L10.75 70.50Q10.13 69.63 9.38 69.19Q8.63 68.75 7.63 68.75L7.63 68.75Q5.88 68.75 4.81 69.88Q3.75 71 3.75 72.63L3.75 72.63Q3.75 74.25 4.81 75.38Q5.88 76.50 7.63 76.50L7.63 76.50Q8.63 76.50 9.38 76Q10.13 75.50 10.75 74.75L10.75 74.75L13 76Q12.13 77.25 10.75 78.06Q9.38 78.88 7.63 78.88L7.63 78.88Q4.50 78.88 2.75 76.88Q1 74.88 1 72.63L1 72.63Q1 70.25 2.75 68.25Q4.50 66.25 7.63 66.25L7.63 66.25Q9.50 66.25 10.81 67.06Q12.13 67.88 13 69.25L13 69.25L10.75 70.50ZM15.25 73.38L15.25 66.50L17.75 66.50L17.75 73.25Q17.75 74.50 18.63 75.38Q19.50 76.25 20.75 76.25L20.75 76.25Q21.88 76.25 22.75 75.38Q23.63 74.50 23.63 73.25L23.63 73.25L23.63 66.50L26.25 66.50L26.25 73.38Q26.25 76 24.56 77.38Q22.88 78.75 20.75 78.75L20.75 78.75Q18.50 78.75 16.88 77.38Q15.25 76 15.25 73.38L15.25 73.38ZM38.25 70.50L38.25 70.50Q37.63 69.63 36.88 69.19Q36.13 68.75 35.13 68.75L35.13 68.75Q33.38 68.75 32.31 69.88Q31.25 71 31.25 72.63L31.25 72.63Q31.25 74.25 32.31 75.38Q33.38 76.50 35.13 76.50L35.13 76.50Q36.13 76.50 36.88 76Q37.63 75.50 38.25 74.75L38.25 74.75L40.50 76Q39.63 77.25 38.25 78.06Q36.88 78.88 35.13 78.88L35.13 78.88Q32 78.88 30.25 76.88Q28.50 74.88 28.50 72.63L28.50 72.63Q28.50 70.25 30.25 68.25Q32 66.25 35.13 66.25L35.13 66.25Q37 66.25 38.31 67.06Q39.63 67.88 40.50 69.25L40.50 69.25L38.25 70.50ZM42.63 73.38L42.63 66.50L45.25 66.50L45.25 73.25Q45.25 74.50 46.06 75.38Q46.88 76.25 48.13 76.25L48.13 76.25Q49.25 76.25 50.13 75.38Q51 74.50 51 73.25L51 73.25L51 66.50L53.63 66.50L53.63 73.38Q53.63 76 51.94 77.38Q50.25 78.75 48.13 78.75L48.13 78.75Q45.88 78.75 44.25 77.38Q42.63 76 42.63 73.38L42.63 73.38ZM56.75 71L56.75 71Q56.75 68.63 58.06 67.44Q59.38 66.25 61.25 66.25L61.25 66.25Q62.50 66.25 63.44 66.81Q64.38 67.38 64.75 68.25L64.75 68.25L64.75 68.25Q65.13 67.38 66.06 66.81Q67 66.25 68.38 66.25L68.38 66.25Q70.25 66.25 71.50 67.50Q72.75 68.75 72.75 71L72.75 71L72.75 78.50L70.25 78.50L70.25 71Q70.25 70 69.63 69.38Q69 68.75 68.25 68.75L68.25 68.75Q67.25 68.75 66.69 69.31Q66.13 69.88 66.13 71.25L66.13 71.25L66.13 78.38L63.50 78.38L63.50 71.25Q63.50 69.88 62.88 69.31Q62.25 68.75 61.38 68.75L61.38 68.75Q60.63 68.75 60 69.31Q59.38 69.88 59.38 71L59.38 71L59.38 78.50L56.75 78.50L56.75 71L56.75 71ZM76 78.50L76 63L78.63 63L78.63 68Q79 67.25 80.13 66.75Q81.25 66.25 82.50 66.25L82.50 66.25Q84.88 66.25 86.81 67.88Q88.75 69.50 88.75 72.50L88.75 72.50Q88.75 75.50 86.81 77.13Q84.88 78.75 82.50 78.75L82.50 78.75Q81.25 78.75 80.13 78.25Q79 77.75 78.63 77L78.63 77L78.63 77L78.63 78.50L76 78.50ZM82.25 68.75L82.25 68.75Q80.75 68.75 79.69 69.88Q78.63 71 78.63 72.63L78.63 72.63Q78.63 74.25 79.69 75.38Q80.75 76.50 82.25 76.50L82.25 76.50Q84 76.50 85.06 75.38Q86.13 74.25 86.13 72.63L86.13 72.63Q86 70.88 85 69.81Q84 68.75 82.25 68.75L82.25 68.75ZM102.63 75.88L102.63 75.88Q101.50 77.25 100.06 78Q98.63 78.75 97 78.75L97 78.75Q93.88 78.75 92.13 76.81Q90.38 74.88 90.38 72.50L90.38 72.50Q90.38 70.13 92.13 68.19Q93.88 66.25 97 66.25L97 66.25Q98.88 66.25 101.06 67.88Q103.25 69.50 103.25 72.88L103.25 72.88L103.25 73.25L93.25 73.25Q93.38 74.63 94.50 75.56Q95.63 76.50 97 76.50L97 76.50Q98 76.50 98.94 76Q99.88 75.50 100.50 74.63L100.50 74.63L102.63 75.88ZM93.25 71.25L100.25 71.25Q99.88 70 98.88 69.25Q97.88 68.50 96.63 68.50L96.63 68.50Q95.38 68.50 94.44 69.25Q93.50 70 93.25 71.25L93.25 71.25ZM122.75 48.88L122.75 48.88Q122.63 48.88 122.50 48.81Q122.38 48.75 122.25 48.75L122.25 48.75Q122.13 48.63 122.06 48.56Q122 48.50 121.75 48.50L121.75 48.50Q121.75 48.50 121.69 48.50Q121.63 48.50 121.63 48.38L121.63 48.38Q121.50 48.38 121.38 48.31Q121.25 48.25 121.25 48.25L121.25 48.25Q120.63 48 120 47.88Q119.38 47.75 118.75 47.75L118.75 47.75Q115.38 47.75 113 50.13Q110.63 52.50 110.63 55.88L110.63 55.88Q110.63 58.88 112.50 61.06Q114.38 63.25 117.13 63.88L117.13 63.88L117.13 66.25Q120.75 65.63 123.50 63Q126.25 60.38 126.50 56.63L126.50 56.63Q126.63 54.25 125.63 52.13Q124.63 50 122.75 48.88L122.75 48.88ZM116.75 50.88L116.75 50.88Q116.88 50.88 117.13 50.94Q117.38 51 117.50 51.25L117.50 51.25Q117.63 51.25 117.69 51.38Q117.75 51.50 117.75 51.75L117.75 51.75Q118 52.25 117.94 52.75Q117.88 53.25 117.63 53.75L117.63 53.75Q117.13 53.63 116.69 53.25Q116.25 52.88 116 52.38L116 52.38Q115.88 52.25 115.81 52.06Q115.75 51.88 115.75 51.75L115.75 51.75Q115.75 51.38 116.06 51.13Q116.38 50.88 116.75 50.88ZM114.25 53.25L114.25 53.25Q114.38 53.25 114.38 53.25Q114.38 53.25 114.50 53.25L114.50 53.25Q114.63 53.25 114.81 53.31Q115 53.38 115.25 53.50L115.25 53.50Q115.75 53.75 116.06 54.13Q116.38 54.50 116.50 55L116.50 55Q116 55.25 115.44 55.31Q114.88 55.38 114.38 55.25L114.38 55.25Q114.25 55.13 114.13 55.06Q114 55 113.75 54.75L113.75 54.75Q113.38 54.38 113.56 53.81Q113.75 53.25 114.25 53.25L114.25 53.25ZM114.38 58.38L114.38 58.38Q113.75 58.38 113.50 57.81Q113.25 57.25 113.75 56.88L113.75 56.88Q113.75 56.88 113.94 56.75Q114.13 56.63 114.25 56.50L114.25 56.50Q114.50 56.38 114.69 56.31Q114.88 56.25 115.13 56.25L115.13 56.25Q115.50 56.25 115.81 56.38Q116.13 56.50 116.38 56.75L116.38 56.75Q116.38 57.13 116 57.56Q115.63 58 115.13 58.25L115.13 58.25Q115 58.25 114.81 58.31Q114.63 58.38 114.38 58.38L114.38 58.38ZM117.88 59.75L117.88 59.75Q117.88 60 117.75 60.13Q117.63 60.25 117.63 60.38L117.63 60.38Q117.25 60.88 116.63 60.63Q116 60.38 116 59.75L116 59.75Q116 59.50 116.06 59.38Q116.13 59.25 116.25 59.13L116.25 59.13Q116.38 58.63 116.81 58.31Q117.25 58 117.75 57.75L117.75 57.75Q118 58.25 118 58.81Q118 59.38 117.88 59.75ZM119.25 51.75L119.25 51.75Q119.25 51.50 119.31 51.38Q119.38 51.25 119.50 51.13L119.50 51.13Q119.63 51 119.88 50.88Q120.13 50.75 120.25 50.75L120.25 50.75Q120.63 50.75 120.94 51.06Q121.25 51.38 121.25 51.75L121.25 51.75Q121.25 51.88 121.19 52.06Q121.13 52.25 121 52.38L121 52.38Q120.75 52.88 120.31 53.19Q119.88 53.50 119.38 53.75L119.38 53.75Q119.13 53.38 119.06 52.81Q119 52.25 119.25 51.75ZM119.63 60.38L119.63 60.38Q119.50 60.38 119.44 60.19Q119.38 60 119.25 59.88L119.25 59.88Q119.13 59.38 119.19 58.88Q119.25 58.38 119.50 57.88L119.50 57.88Q120 58 120.44 58.31Q120.88 58.63 121.13 59.25L121.13 59.25Q121.13 59.38 121.19 59.56Q121.25 59.75 121.25 59.75L121.25 59.75Q121.25 60.38 120.63 60.63Q120 60.88 119.63 60.38ZM122.75 58.25L122.75 58.25Q122.50 58.25 122.38 58.19Q122.25 58.13 122 58.13L122 58.13Q121.50 57.88 121.13 57.44Q120.75 57 120.75 56.63L120.75 56.63Q121 56.50 121.31 56.38Q121.63 56.25 122 56.25L122 56.25Q122.25 56.25 122.44 56.31Q122.63 56.38 122.75 56.38L122.75 56.38Q123 56.50 123.13 56.56Q123.25 56.63 123.38 56.75L123.38 56.75Q123.88 57.13 123.56 57.75Q123.25 58.38 122.75 58.25L122.75 58.25Z"/></svg>