<svg xmlns="http://www.w3.org/2000/svg" xmlns:xlink="http://www.w3.org/1999/xlink" width="128" height="128"><path fill="#000000" d="M65.13 127.75L65.13 127.75Q63.38 127.63 61.38 127.31Q59.38 127 58.38 126.63L58.38 126.63L57.50 126.38L56.75 124.25Q56.38 123.38 55.88 121.69Q55.38 120 54.88 118.50L54.88 118.50Q54.50 117 54.13 115.69Q53.75 114.38 53.63 114L53.63 114L53.25 113.13L52.38 113.13Q51.13 113.13 49.38 112.81Q47.63 112.50 46.25 112L46.25 112Q45.13 111.63 44 111.13Q42.88 110.63 41 109.75L41 109.75Q40.13 109.25 39.06 108.75Q38 108.25 37.38 108L37.38 108Q35.25 107.25 34.81 106.50Q34.38 105.75 34.25 102.75L34.25 102.75Q34.25 101.63 34.19 100.50Q34.13 99.38 34 98.88L34 98.88L34 97.88L32.75 96.75Q31.63 95.75 30.19 94.19Q28.75 92.63 27.75 91.25L27.75 91.25Q23.25 85.38 20.63 78.38Q18 71.38 17.75 64.13L17.75 64.13Q17.63 59 18.31 54.44Q19 49.88 20.75 45.13L20.75 45.13Q22.50 40.13 25.75 35.25Q29 30.38 33 26.75L33 26.75L34.63 25.38L34.63 24.25Q34.75 22.63 35.19 20.94Q35.63 19.25 36.25 18.25L36.25 18.25Q36.63 17.63 37.38 16.88Q38.13 16.13 38.63 15.88L38.63 15.88Q39 15.63 39.19 15.50Q39.38 15.38 39.50 14.88L39.50 14.88Q39.63 14.25 40.19 13.19Q40.75 12.13 41.13 11.50L41.13 11.50Q42 10.50 43.44 9.31Q44.88 8.13 46.63 7.13L46.63 7.13Q48.25 6.13 50.19 5.06Q52.13 4 53 3.63L53 3.63Q54.38 3 57.06 2.06Q59.75 1.13 59.88 1.13L59.88 1.13Q59.88 1.25 59.94 1.19Q60 1.13 60 1.13L60 1.13Q60.38 0.88 62.69 0.56Q65 0.25 67 0.13L67 0.13Q71.63 0 75.88 1Q80.13 2 83 3.88L83 3.88Q85 5.25 87.50 7.81Q90 10.38 91.50 12.50L91.50 12.50Q93 14.75 93.94 18.25Q94.88 21.75 95.38 26.38L95.38 26.38L95.38 27.25L96.88 28.88Q98 29.88 99.19 31.38Q100.38 32.88 101.38 34.25L101.38 34.25Q102 35.13 102.88 36.50Q103.75 37.88 103.75 38.13L103.75 38.13Q103.75 38.13 103.81 38.19Q103.88 38.25 103.88 38.25L103.88 38.25Q104 38.38 105.31 40.94Q106.63 43.50 106.63 44L106.63 44Q106.75 44.13 106.81 44.31Q106.88 44.50 107 44.75L107 44.75Q107.13 45 107.31 45.63Q107.50 46.25 107.75 46.88L107.75 46.88Q109.88 53.38 110.13 60.19Q110.38 67 108.75 73.50L108.75 73.50Q108.13 76 107.31 78.19Q106.50 80.38 105.38 82.75L105.38 82.75Q105 83.50 104.75 84.06Q104.50 84.63 104.38 84.63L104.38 84.63Q104.38 84.63 104.25 84.88Q104.13 85.13 104 85.38L104 85.38L103.63 86L104.13 86.25Q105.13 86.75 105.88 88Q106.63 89.25 107.50 91.75L107.50 91.75Q108.25 94 108.50 95.19Q108.75 96.38 108.88 97.38L108.88 97.38Q109 99.75 108.25 101.94Q107.50 104.13 106.38 105.38L106.38 105.38Q105.88 105.75 105.56 105.94Q105.25 106.13 104.75 106.38L104.75 106.38Q104.38 106.50 103.81 106.63Q103.25 106.75 103 106.75L103 106.75Q102 106.88 100.25 106.88Q98.50 106.88 97.25 106.63L97.25 106.63Q96.13 106.50 95.75 106.25Q95.38 106 95 105.38L95 105.38L94.88 105L93.13 105Q91.75 105.13 90.94 105.25Q90.13 105.38 89.13 105.75L89.13 105.75L88.38 106L88.38 106.63Q88.25 107.25 87.94 107.63Q87.63 108 86.88 108.25L86.88 108.25Q86.50 108.38 86.38 108.50Q86.25 108.63 86.13 108.88L86.13 108.88Q86 109.50 86.19 110.94Q86.38 112.38 86.75 114L86.75 114Q87.25 116.25 87.31 117.25Q87.38 118.25 87.25 118.88L87.25 118.88Q86.88 119.88 86.06 120.38Q85.25 120.88 83.63 121.25L83.63 121.25L82.50 121.63L82.38 122Q82.38 122.25 82.38 122.69Q82.38 123.13 82.50 123.63L82.50 123.63Q82.63 124.50 82.56 124.69Q82.50 124.88 82.38 125.38L82.38 125.38Q81.50 126.75 79.06 127.25Q76.63 127.75 70.38 127.75L70.38 127.75Q68.38 127.88 66.88 127.88Q65.38 127.88 65.13 127.75L65.13 127.75ZM72.38 125.38L72.38 125.38Q72.63 125.25 73 125.25Q73.38 125.25 73.50 125.25L73.50 125.25Q73.75 125.25 73.94 125.25Q74.13 125.25 74.13 125.25L74.13 125.25Q74.13 125.25 74.25 125.19Q74.38 125.13 74.63 125.13L74.63 125.13Q75.63 125.13 77.94 124.63Q80.25 124.13 80.38 123.88L80.38 123.88Q80.38 123.88 80.31 123.44Q80.25 123 80.25 122.50L80.25 122.50Q80 121 79.88 119.25Q79.75 117.50 79.50 113.50L79.50 113.50Q79.50 111.50 79.38 109.50Q79.25 107.50 79.13 106.50L79.13 106.50Q79.13 105.75 79 103.69Q78.88 101.63 78.75 99.75L78.75 99.75Q78.50 95.75 78.38 94.31Q78.25 92.88 78 92.88L78 92.88Q77.88 92.75 77.50 92.69Q77.13 92.63 76.50 92.63L76.50 92.63Q72.63 92 66.94 92.19Q61.25 92.38 55.13 93.38L55.13 93.38Q53.25 93.75 53 93.81Q52.75 93.88 52.75 94.38L52.75 94.38Q52.75 94.50 52.75 94.63Q52.75 94.75 52.75 94.75L52.75 94.75Q52.88 94.88 53 96.31Q53.13 97.75 53.13 97.88L53.13 97.88Q53 97.88 53.06 97.94Q53.13 98 53.13 98L53.13 98Q53.13 98 53.19 98.25Q53.25 98.50 53.25 98.88L53.25 98.88Q53.38 99.25 53.38 99.56Q53.38 99.88 53.38 99.88L53.38 99.88Q53.50 100 53.50 100.13Q53.50 100.25 53.50 100.38L53.50 100.38Q53.50 100.50 53.50 100.63Q53.50 100.75 53.50 100.75L53.50 100.75Q53.63 100.75 53.88 102.63Q54.13 104.50 54 104.63L54 104.63Q54 104.63 54.06 104.69Q54.13 104.75 54.13 104.75L54.13 104.75Q54.13 104.75 54.19 104.81Q54.25 104.88 54.25 105L54.25 105Q54.25 105.25 54.63 107.25Q55 109.25 55.38 111L55.38 111Q55.50 111.75 55.63 112.31Q55.75 112.88 55.63 112.88L55.63 112.88Q55.63 112.88 55.63 112.94Q55.63 113 55.75 113L55.75 113Q55.75 113 55.88 113.38Q56 113.75 56.13 114.25L56.13 114.25Q56.38 115.50 57.06 117.94Q57.75 120.38 58.25 122L58.25 122L58.75 123.63L59.38 123.75Q60.25 124 61.63 124.31Q63 124.63 63.88 124.75L63.88 124.75Q64.25 124.88 64.56 124.94Q64.88 125 64.88 125L64.88 125Q64.88 125 65.13 125.06Q65.38 125.13 65.75 125.13L65.75 125.13Q66.13 125.13 66.44 125.13Q66.75 125.13 66.88 125.25L66.88 125.25Q67 125.25 67.31 125.25Q67.63 125.25 68 125.25L68 125.25Q68.38 125.25 68.75 125.25Q69.13 125.25 69.13 125.38L69.13 125.38Q69.25 125.38 69.56 125.38Q69.88 125.38 70.13 125.38L70.13 125.38Q70.50 125.38 70.81 125.44Q71.13 125.50 71.25 125.50L71.25 125.50Q71.38 125.50 71.44 125.56Q71.50 125.63 71.63 125.50L71.63 125.50Q71.75 125.50 71.94 125.44Q72.13 125.38 72.38 125.38L72.38 125.38ZM82.38 119.13L82.38 119.13Q82.75 119.13 83.31 119Q83.88 118.88 84.25 118.75L84.25 118.75L85 118.38L85 117.13Q85 116.13 84.88 115.13Q84.75 114.13 84.38 112L84.38 112Q84.25 111.38 84.13 110.69Q84 110 83.88 109.63L83.88 109.63L83.75 108.75L83.25 108.75Q83.13 108.75 82.75 108.81Q82.38 108.88 82.13 109L82.13 109Q81.75 109 81.44 109.06Q81.13 109.13 81 109.13L81 109.13L80.63 109.13L80.63 111.63Q80.75 114.75 80.88 117Q81 119.25 81.13 119.25L81.13 119.25Q81.25 119.25 81.56 119.19Q81.88 119.13 82.38 119.13L82.38 119.13ZM53.63 110.13L53.63 110.13Q53.63 110 53.50 108.81Q53.38 107.63 53.13 106.25L53.13 106.25Q52.63 102.50 52.31 99.94Q52 97.38 51.88 96.25L51.88 96.25Q51.88 95.75 51.81 95.44Q51.75 95.13 51.75 95L51.75 95Q51.75 95 51.69 94.88Q51.63 94.75 51.63 94.50L51.63 94.50Q51.63 94.13 51.56 94.06Q51.50 94 51 93.88L51 93.88Q50.63 93.75 49.94 93.75Q49.25 93.75 48 93.75L48 93.75Q46.38 93.88 46.06 93.88Q45.75 93.88 45.75 93.63L45.75 93.63Q45.75 93.38 46 93.13Q46.25 92.88 46.63 92.75L46.63 92.75Q47.50 92.50 47.88 92.31Q48.25 92.13 48.38 91.88L48.38 91.88Q48.50 91.63 48.44 91.25Q48.38 90.88 48.13 90.63L48.13 90.63Q48 90.50 47.88 90.31Q47.75 90.13 47.63 90L47.63 90Q47.50 89.75 47.50 89.50Q47.50 89.25 47.63 89.25L47.63 89.25Q47.63 89.25 48 89.44Q48.38 89.63 48.88 90L48.88 90Q49.88 90.63 50.31 90.81Q50.75 91 50.88 90.88L50.88 90.88Q51 90.75 51.19 89.94Q51.38 89.13 51.50 88.25L51.50 88.25Q51.50 87.75 51.44 86.81Q51.38 85.88 51.38 85L51.38 85Q51.13 82.25 51.19 80.88Q51.25 79.50 51.63 79.13L51.63 79.13Q51.88 79 52.06 79.06Q52.25 79.13 52.25 79.38L52.25 79.38Q52.25 79.50 52.31 79.63Q52.38 79.75 52.38 79.88L52.38 79.88Q52.50 79.88 52.38 81.81Q52.25 83.75 52.13 84.38L52.13 84.38Q52.13 84.50 52.13 85.31Q52.13 86.13 52.13 87.13L52.13 87.13Q52.13 88.88 52.19 89.75Q52.25 90.63 52.50 91.13L52.50 91.13L52.63 91.50L53.63 91.38Q54.13 91.38 55 91.31Q55.88 91.25 56.75 91.13L56.75 91.13Q57.63 91 58.44 90.94Q59.25 90.88 59.63 90.88L59.63 90.88Q60 90.75 60.75 90.69Q61.50 90.63 62.25 90.63L62.25 90.63Q63 90.50 63.56 90.44Q64.13 90.38 64.25 90.38L64.25 90.38Q64.38 90.38 64.94 90.38Q65.50 90.38 66.25 90.25L66.25 90.25Q67.38 90.13 70.25 90Q73.13 89.88 73.75 89.88L73.75 89.88Q74 89.88 73.88 89.69Q73.75 89.50 73.38 89.38L73.38 89.38Q72 88.88 68.44 87.13Q64.88 85.38 64.13 84.88L64.13 84.88Q63.25 84.25 63.19 83.56Q63.13 82.88 63.88 81.88L63.88 81.88Q64.38 81.25 64.63 80.81Q64.88 80.38 64.88 80.13L64.88 80.13Q64.88 79.88 64.75 79.88Q64.63 79.88 64.13 80.13L64.13 80.13Q63.13 80.50 62.44 80.13Q61.75 79.75 61.13 78.63L61.13 78.63Q60.75 77.75 59.94 75Q59.13 72.25 58.88 71L58.88 71L58.75 70L55.75 68.63Q52.25 66.88 50.81 65.81Q49.38 64.75 47.75 63L47.75 63Q47.25 62.50 46.88 62.06Q46.50 61.63 46.25 61.50L46.25 61.50L45.88 61.13L44.75 61.63Q42 62.88 39.06 64.63Q36.13 66.38 32.50 69.13L32.50 69.13L30 71L30.38 71.75Q30.50 72.13 30.63 72.38Q30.75 72.63 30.63 72.63L30.63 72.63Q30.63 72.63 30.69 72.69Q30.75 72.75 30.75 72.88L30.75 72.88Q31.38 73.75 32.56 77.50Q33.75 81.25 34.38 84.63L34.38 84.63Q34.75 86 35.13 88.06Q35.50 90.13 35.50 90.38L35.50 90.38Q35.50 90.38 35.50 90.50Q35.50 90.63 35.50 90.63L35.50 90.63Q35.63 90.75 35.63 90.88Q35.63 91 35.63 91.13L35.63 91.13Q35.63 91.25 35.63 91.38Q35.63 91.50 35.63 91.50L35.63 91.50Q35.75 91.63 36.13 95.31Q36.50 99 36.50 101.25L36.50 101.25Q36.63 103.38 36.69 103.81Q36.75 104.25 37.13 104.38L37.13 104.38Q37.25 104.50 37.44 104.56Q37.63 104.63 37.63 104.63L37.63 104.63Q37.88 104.88 40.38 106.19Q42.88 107.50 44.13 108L44.13 108Q46.13 109 48.38 109.69Q50.63 110.38 52.13 110.50L52.13 110.50Q52.50 110.50 52.75 110.50Q53 110.50 53 110.50L53 110.50Q53 110.63 53.13 110.56Q53.25 110.50 53.25 110.50L53.25 110.50Q53.50 110.50 53.56 110.44Q53.63 110.38 53.63 110.13ZM83 106.75L83 106.75Q84.88 106.38 85.06 106.25Q85.25 106.13 85.25 105.25L85.25 105.25Q85.13 104.88 85.06 103.88Q85 102.88 85 101.88L85 101.88Q84.75 99.13 84.56 97.25Q84.38 95.38 84.25 95.25L84.25 95.25Q84.25 95.13 84.19 94.81Q84.13 94.50 84 94.25L84 94.25Q84 93.88 83.88 93.50Q83.75 93.13 83.75 93L83.75 93L83.63 92.50L82.38 92.50Q81.88 92.63 81.31 92.69Q80.75 92.75 80.50 92.75L80.50 92.75L79.75 92.88L79.75 96.13Q79.88 98.38 80.06 101.56Q80.25 104.75 80.38 106.25L80.38 106.25Q80.38 106.75 80.44 106.88Q80.50 107 80.75 107L80.75 107Q81 107 81.63 106.94Q82.25 106.88 83 106.75ZM100.75 105.25L100.75 105.25Q100.75 105.13 100.88 105.13Q101 105.13 101.13 105.13L101.13 105.13Q101.63 105.13 102.44 104.94Q103.25 104.75 103.75 104.50L103.75 104.50Q105 104 105.81 102.44Q106.63 100.88 106.63 99.25L106.63 99.25Q106.63 97.75 105.75 94.25Q104.88 90.75 104.25 89.75L104.25 89.75Q103.75 88.88 102.81 88.31Q101.88 87.75 101.13 87.75L101.13 87.75Q100.75 87.75 100.38 87.88Q100 88 99.25 88.38L99.25 88.38Q98.75 88.63 97.81 89Q96.88 89.38 96 89.63L96 89.63Q94.25 90.25 93.06 90.81Q91.88 91.38 91.50 91.75L91.50 91.75L91.25 92.13L91.50 93.25Q91.75 94.50 91.94 95.94Q92.13 97.38 92.38 99.88L92.38 99.88Q92.63 101.13 92.69 102.06Q92.75 103 92.75 103L92.75 103Q92.75 103.13 93.44 103.13Q94.13 103.13 95.38 103L95.38 103Q96.38 103 97.56 103Q98.75 103 99.25 103L99.25 103Q100.25 103 101.19 103.13Q102.13 103.25 101.88 103.38L101.88 103.38Q101.75 103.38 101.13 103.56Q100.50 103.75 99.75 103.88L99.75 103.88Q98.88 104 98.13 104.19Q97.38 104.38 97.13 104.50L97.13 104.50L96.63 104.75L96.88 105Q97.13 105 97.31 105.06Q97.50 105.13 97.63 105.13L97.63 105.13Q97.75 105.13 97.81 105.13Q97.88 105.13 97.88 105.25L97.88 105.25Q98 105.25 98.38 105.25Q98.75 105.25 99.38 105.25L99.38 105.25Q99.88 105.25 100.31 105.25Q100.75 105.25 100.75 105.25L100.75 105.25ZM88.75 104.25L88.88 104.25Q89 104.25 89.44 104.13Q89.88 104 90.25 103.88L90.25 103.88L91.13 103.63L91.13 102.13Q91.13 101.13 90.94 99.13Q90.75 97.13 90.50 96.13L90.50 96.13Q90.25 95.25 90 94.44Q89.75 93.63 89.50 93L89.50 93L89.13 92.13L86.38 92.13L86.38 92.50Q86.38 92.75 86.56 94.06Q86.75 95.38 87.13 97.63L87.13 97.63Q87.25 98.50 87.31 99.13Q87.38 99.75 87.38 99.88L87.38 99.88Q87.25 99.88 87.31 99.94Q87.38 100 87.38 100.13L87.38 100.13Q87.50 100.13 87.50 100.44Q87.50 100.75 87.63 101.13L87.63 101.13Q87.63 101.50 87.69 102.13Q87.75 102.75 87.75 103.25L87.75 103.25Q87.88 104.13 87.94 104.31Q88 104.50 88.13 104.38L88.13 104.38Q88.25 104.38 88.44 104.31Q88.63 104.25 88.75 104.25L88.75 104.25ZM33.50 92.13L33.50 92.13Q33 88.75 32.44 86.31Q31.88 83.88 30.88 81.25L30.88 81.25Q30.25 79.63 29.25 76.88Q28.25 74.13 27.88 73.13L27.88 73.13Q27.63 72.38 27.56 71.81Q27.50 71.25 27.38 70.75L27.38 70.75Q27.38 69.38 27.88 68.75Q28.38 68.13 30.13 67.13L30.13 67.13Q30.75 66.88 31.56 66.44Q32.38 66 32.88 65.63L32.88 65.63Q34 64.88 35.50 63.94Q37 63 39.50 61.63L39.50 61.63Q42.38 59.88 43.19 59.38Q44 58.88 44.38 58.50L44.38 58.50Q44.63 58.25 44.69 58.13Q44.75 58 44.75 57.50L44.75 57.50Q44.75 57 44.56 56.50Q44.38 56 43.75 55L43.75 55Q43 53.88 42.56 52.56Q42.13 51.25 41.88 50L41.88 50L41.88 49.25L40.88 49Q39.63 48.50 38.69 48Q37.75 47.50 36.88 46.63L36.88 46.63Q34.25 44 33.50 39.19Q32.75 34.38 34.50 31.88L34.50 31.88Q34.88 31.38 34.94 31.13Q35 30.88 35 30.50L35 30.50Q35 29.88 34.94 29.38Q34.88 28.88 34.75 28.88L34.75 28.88Q34.63 28.88 34.25 29.25Q33.88 29.63 33.38 30.13L33.38 30.13Q28.75 34.75 25.75 40.38Q22.75 46 21.38 52.38L21.38 52.38Q20.88 55 20.69 56.88Q20.50 58.75 20.50 61.75L20.50 61.75Q20.50 64.50 20.56 65.88Q20.63 67.25 21 69.50L21 69.50Q21.88 74.88 24.13 80.06Q26.38 85.25 29.75 89.50L29.75 89.50Q30.63 90.63 32.06 92.25Q33.50 93.88 33.63 93.88L33.63 93.88Q33.63 93.75 33.56 93.31Q33.50 92.88 33.50 92.13ZM82.63 89.75L82.63 89.75Q82.88 89.63 83.63 89.56Q84.38 89.50 85.25 89.50L85.25 89.50Q87.25 89.38 88.13 89.19Q89 89 89.38 88.63L89.38 88.63Q89.63 88.13 89.94 87.50Q90.25 86.88 91.25 84.50L91.25 84.50Q93.25 79.50 94.63 74.63Q96 69.75 96 67.88L96 67.88Q96 66.75 95.56 66.13Q95.13 65.50 93.50 64.13L93.50 64.13Q93.13 63.88 92.13 62.94Q91.13 62 90.13 61.13L90.13 61.13Q89.13 60.13 88.38 59.44Q87.63 58.75 87.63 58.75L87.63 58.75Q87.63 58.75 87.44 58.88Q87.25 59 87 59.25L87 59.25Q86.75 59.50 86.31 59.88Q85.88 60.25 85.50 60.63L85.50 60.63Q85 61 84.69 61.25Q84.38 61.50 84.38 61.63L84.38 61.63Q84.38 61.75 84.56 61.75Q84.75 61.75 84.88 61.63L84.88 61.63Q84.88 61.50 85.06 61.50Q85.25 61.50 85.50 61.50L85.50 61.50Q86 61.50 86.19 61.56Q86.38 61.63 86.75 61.88L86.75 61.88Q87.13 62.13 87.44 62.56Q87.75 63 87.75 63.13L87.75 63.13Q87.63 63.13 87.75 63.38Q87.88 63.63 88 63.88L88 63.88Q88.75 65.63 88.81 68.56Q88.88 71.50 88.13 73.25L88.13 73.25Q88.13 73.38 88.06 73.56Q88 73.75 88 73.88L88 73.88Q88 74.13 88.31 74.63Q88.63 75.13 89 75.50L89 75.50Q89.13 75.63 89.25 75.75Q89.38 75.88 89.38 76L89.38 76Q89.50 76.25 88.69 77.69Q87.88 79.13 85.38 83.25L85.38 83.25Q83 87.13 82.19 88.50Q81.38 89.88 81.38 90.13L81.38 90.13Q81.38 90.13 81.44 90.13Q81.50 90.13 81.88 90L81.88 90Q82 90 82.25 89.88Q82.50 89.75 82.63 89.75L82.63 89.75ZM78 88.50L78 88.50Q78 88.38 76.75 85.44Q75.50 82.50 74.88 81.38L74.88 81.38Q74 79.50 72.88 77.75Q71.75 76 71.50 76.13L71.50 76.13Q71.50 76.13 70.94 76.44Q70.38 76.75 69.75 77.25L69.75 77.25Q67.88 78.50 66.81 79.69Q65.75 80.88 65.38 82.25L65.38 82.25Q65.25 82.50 65.19 82.69Q65.13 82.88 65.13 82.88L65.13 82.88Q65.25 83 67.13 84Q69 85 70.13 85.50L70.13 85.50Q70.88 85.88 71.31 86.13Q71.75 86.38 71.75 86.50L71.75 86.50Q71.75 86.50 71.75 86.50Q71.75 86.50 71.88 86.50L71.88 86.50Q71.88 86.38 72.31 86.50Q72.75 86.63 73.25 86.88L73.25 86.88Q74 87.25 75.88 87.94Q77.75 88.63 77.88 88.63L77.88 88.63Q78 88.63 78 88.56Q78 88.50 78 88.50L78 88.50ZM81.88 87.13L81.88 87.13Q82.88 85.75 83.75 84.38Q84.63 83 86.38 80.13L86.38 80.13Q87.50 78.13 87.88 77.44Q88.25 76.75 88.13 76.63L88.13 76.63Q87.88 76.25 87.25 75.69Q86.63 75.13 86.13 74.88L86.13 74.88Q85.75 74.63 85.38 74.63Q85 74.63 84.38 74.63L84.38 74.63Q83.88 74.63 83.50 74.63Q83.13 74.63 83 74.75L83 74.75L82.63 74.88L82.38 77.25Q82.25 80.38 81.88 82.94Q81.50 85.50 81.13 87.25L81.13 87.25Q80.88 87.75 80.81 88.13Q80.75 88.50 80.75 88.63L80.75 88.63Q80.75 88.63 80.94 88.44Q81.13 88.25 81.88 87.13L81.88 87.13ZM93.38 87.75L93.38 87.75Q95.38 86.88 97.06 86.31Q98.75 85.75 100.25 85.63L100.25 85.63L100.88 85.50L101.50 84.38Q104.25 79.63 105.75 74.38L105.75 74.38Q107.13 69 107.38 63.63Q107.63 58.25 106.50 52.88L106.50 52.88Q105.50 47.50 103.13 42.50L103.13 42.50Q101.63 39.50 99.94 36.94Q98.25 34.38 96 31.75L96 31.75L95.50 31.25L95.50 32Q95.38 32.38 95.38 33.25Q95.38 34.13 95.25 34.88L95.25 34.88Q95 38.38 94.38 41.88Q93.75 45.38 92.63 48.75L92.63 48.75Q92.25 50 91.88 50.81Q91.50 51.63 90.25 54L90.25 54Q89.50 55.25 89.50 55.75Q89.50 56.25 90 56.88L90 56.88Q90.38 57.38 91.13 58Q91.88 58.63 94.75 61.25L94.75 61.25Q97.25 63.38 97.88 64.19Q98.50 65 98.50 66.25L98.50 66.25Q98.50 66.63 98.44 67.19Q98.38 67.75 98.25 68.13L98.25 68.13Q97.88 70 95.44 77.38Q93 84.75 92 87.50L92 87.50Q91.88 87.88 91.75 88.19Q91.63 88.50 91.63 88.50L91.63 88.50Q91.75 88.50 92.25 88.25Q92.75 88 93.38 87.75L93.38 87.75ZM80.25 86.88L80.25 86.88Q80.63 85.38 80.81 83.38Q81 81.38 81.13 78.38L81.13 78.38Q81.25 77.63 81.25 76.88Q81.25 76.13 81.38 75.75L81.38 75.75L81.38 74.75L80.75 74.63Q80.38 74.63 79.94 74.38Q79.50 74.13 79 73.75L79 73.75Q77.88 73.13 77.44 73.06Q77 73 76.13 73.38L76.13 73.38Q75.63 73.63 75.25 73.69Q74.88 73.75 74.63 73.75L74.63 73.75Q74.13 73.75 74 73.81Q73.88 73.88 73.50 74.25L73.50 74.25L73 74.75L73.75 75.75Q74 76.13 74.38 76.75Q74.75 77.38 75.13 77.88L75.13 77.88Q75.63 78.75 76.63 80.94Q77.63 83.13 77.63 83.50L77.63 83.50Q77.63 83.50 77.69 83.63Q77.75 83.75 77.75 83.75L77.75 83.75Q77.88 83.88 78.63 85.56Q79.38 87.25 79.38 87.38L79.38 87.38Q79.38 87.38 79.44 87.44Q79.50 87.50 79.50 87.50L79.50 87.50Q79.63 87.50 79.63 87.50Q79.63 87.50 79.63 87.63L79.63 87.63Q79.50 87.63 79.63 87.81Q79.75 88 79.88 88L79.88 88Q79.88 88 80 87.69Q80.13 87.38 80.25 86.88L80.25 86.88ZM65.13 78L65.25 78Q66.88 77.38 68.13 76.63Q69.38 75.88 71 74.50L71 74.50Q71.50 74.13 72 73.69Q72.50 73.25 72.63 73.25L72.63 73.25Q72.88 73 72.94 72.81Q73 72.63 73 72.13L73 72.13L73 71.25L72.38 70.88Q72 70.75 71.50 70.63Q71 70.50 70.75 70.50L70.75 70.50Q70.38 70.38 70.13 70.31Q69.88 70.25 70 70.25L70 70.25Q70 70.25 70.31 70.13Q70.63 70 71.13 69.88L71.13 69.88Q72.25 69.63 72.56 69.44Q72.88 69.25 72.88 68.88L72.88 68.88Q72.88 68.63 72.75 68.56Q72.63 68.50 72.13 68.38L72.13 68.38Q71.75 68.38 71.31 68.13Q70.88 67.88 70.38 67.63L70.38 67.63Q68.13 66.25 65.38 65.31Q62.63 64.38 61.75 64.63L61.75 64.63Q60.88 64.88 60.50 66Q60.13 67.13 60.13 69.63L60.13 69.63Q60.13 71.50 60.38 72.63Q60.63 73.75 61.50 76L61.50 76Q62.13 78 62.31 78.19Q62.50 78.38 63.25 78.38L63.25 78.38Q63.63 78.38 64.19 78.25Q64.75 78.13 65.13 78L65.13 78ZM86.88 73L86.88 73Q87.25 72.38 87.31 71.69Q87.38 71 87.38 69.63L87.38 69.63Q87.25 67.50 86.81 65.94Q86.38 64.38 85.75 64L85.75 64Q85.38 63.75 84.69 63.81Q84 63.88 83.25 64.25L83.25 64.25Q82.88 64.38 82.06 64.81Q81.25 65.25 80.63 65.75L80.63 65.75Q79.88 66.13 79.25 66.50Q78.63 66.88 78.50 67L78.50 67Q78.38 67.13 78.25 67.13Q78.13 67.13 78.13 67.13L78.13 67.13Q78.13 67.25 78.19 67.50Q78.25 67.75 78.38 68L78.38 68L78.63 68.88L79.38 68.75Q79.75 68.75 80.13 68.81Q80.50 68.88 80.75 68.88L80.75 68.88L81.38 69.13L80.63 69.13Q80.25 69.25 79.88 69.31Q79.50 69.38 79.38 69.50L79.38 69.50Q79 69.63 78.88 69.94Q78.75 70.25 78.75 71.38L78.75 71.38Q78.88 72.13 79.06 72.31Q79.25 72.50 81.25 72.75L81.25 72.75Q82.38 73 83.75 73.19Q85.13 73.38 86.13 73.38L86.13 73.38Q86.50 73.38 86.63 73.31Q86.75 73.25 86.88 73L86.88 73ZM76.38 71.63L76.38 71.63Q77.25 71.13 77.19 69.88Q77.13 68.63 76.25 68.13L76.25 68.13Q75.88 68 75.38 68.06Q74.88 68.13 74.38 68.38L74.38 68.38Q74.13 68.50 74.06 68.63Q74 68.75 74 69L74 69Q73.88 69.38 74.13 70.50Q74.38 71.63 74.50 71.75L74.50 71.75Q74.63 72 75.31 71.94Q76 71.88 76.38 71.63L76.38 71.63ZM58.50 66.75L58.50 66.75Q58.75 65.75 58.75 65.44Q58.75 65.13 58.50 65.13L58.50 65.13Q58.38 65 57.69 64.94Q57 64.88 56.13 64.88L56.13 64.88Q55.13 64.75 54.44 64.63Q53.75 64.50 53.38 64.38L53.38 64.38Q52.63 64.13 52.44 64.13Q52.25 64.13 52.13 64.50L52.13 64.50Q52.13 64.75 52.19 64.94Q52.25 65.13 52.50 65.38L52.50 65.38Q53.13 65.88 54.38 66.50Q55.63 67.13 57.13 67.50L57.13 67.50Q58 67.75 58.19 67.69Q58.38 67.63 58.50 66.75L58.50 66.75ZM77.88 65.38L77.88 65.38Q78.50 64.88 79 64.50Q79.50 64.13 79.63 64.13L79.63 64.13Q79.63 64.13 79.69 64.06Q79.75 64 79.75 64L79.75 64Q79.75 63.88 78.94 64Q78.13 64.13 76.63 64.50L76.63 64.50Q74.88 64.88 73.81 65Q72.75 65.13 72 65L72 65Q70.63 64.75 70.50 64.88Q70.38 65 71.13 65.50L71.13 65.50Q72 66.13 72.94 66.38Q73.88 66.63 75 66.63L75 66.63L76.38 66.63L77.88 65.38ZM59.88 63.38L59.88 63.38Q60.38 62.75 61.44 62.56Q62.50 62.38 64.13 62.50L64.13 62.50Q64.63 62.63 64.75 62.63Q64.88 62.63 64.75 62.50L64.75 62.50Q63 61.75 59.88 58.56Q56.75 55.38 55.63 53.13L55.63 53.13Q55.38 52.63 55.13 51.81Q54.88 51 54.88 50.88L54.88 50.88Q54.88 50.75 55.25 51.19Q55.63 51.63 56.13 52.38L56.13 52.38Q59.25 56.63 62 58.88Q64.75 61.13 68.25 62.38L68.25 62.38Q70.38 63 72.75 62.94Q75.13 62.88 77.75 61.88L77.75 61.88Q79.75 61.25 82 59.94Q84.25 58.63 85.13 57.63L85.13 57.63Q85.75 56.88 87.25 54.63Q88.75 52.38 89.50 51.25L89.50 51.25Q90.88 48.50 91.88 45.25Q92.88 42 93.38 38.25L93.38 38.25Q93.63 36.50 93.69 33.25Q93.75 30 93.63 27.50L93.63 27.50Q93.38 23.25 92.94 21.50Q92.50 19.75 91.25 18.50L91.25 18.50Q89.75 17.13 88 16.69Q86.25 16.25 84.88 17L84.88 17Q84.63 17.13 84.44 17.19Q84.25 17.25 84.25 17.25L84.25 17.25Q84.25 17.25 84.31 16.75Q84.38 16.25 84.50 16L84.50 16Q84.88 15 86.06 14.56Q87.25 14.13 88.75 14.38L88.75 14.38L89.38 14.50L89.25 14.25Q89 13.75 87.31 11.69Q85.63 9.63 84.88 8.88L84.88 8.88Q83.88 7.88 83.06 7.31Q82.25 6.75 81.13 6.13L81.13 6.13Q78.88 5 76.19 4.13Q73.50 3.25 71 3L71 3Q69.75 2.88 67.56 2.94Q65.38 3 64.50 3.13L64.50 3.13Q63 3.50 60.88 4.56Q58.75 5.63 56.50 7.13L56.50 7.13Q53.75 9 52.06 10.63Q50.38 12.25 49.50 14L49.50 14L49 14.88L49.25 16Q49.75 17.75 49.69 19.13Q49.63 20.50 48.88 24L48.88 24Q48.50 25.88 48.44 26.63Q48.38 27.38 48.38 28.50L48.38 28.50Q48.38 29.75 48.44 30.31Q48.50 30.88 48.88 32.38L48.88 32.38Q49.38 34.25 49.44 34.94Q49.50 35.63 49.38 35.88L49.38 35.88Q49.13 36.25 48.38 36.50Q47.63 36.75 46.75 36.88L46.75 36.88L45.50 36.88L45.25 35.75Q44.75 33.63 43.69 32.56Q42.63 31.50 41.13 31.50L41.13 31.50Q39.25 31.50 37.81 32.63Q36.38 33.75 35.63 35.63L35.63 35.63Q35.50 36.25 35.44 37.38Q35.38 38.50 35.63 39.38L35.63 39.38Q35.75 40.25 36.25 41.38Q36.75 42.50 37.25 43.13L37.25 43.13Q38 44.38 39.13 45.19Q40.25 46 41.38 46.13L41.38 46.13Q42.25 46.25 42.75 46.13Q43.25 46 44.13 45.38L44.13 45.38Q44.75 44.88 45.31 44.63Q45.88 44.38 46 44.50L46 44.50Q46 44.63 46.06 45.13Q46.13 45.63 46 45.75L46 45.75Q45.88 45.88 45.63 46.19Q45.38 46.50 45.13 46.88L45.13 46.88Q44.50 47.50 44.38 47.94Q44.25 48.38 44.38 49.38L44.38 49.38Q44.75 51.63 46 54.81Q47.25 58 48.50 59.88L48.50 59.88Q49.25 61 50.38 61.75Q51.50 62.50 53 62.88L53 62.88Q54 63.25 55.69 63.50Q57.38 63.75 58.75 63.75L58.75 63.75Q59.25 63.75 59.38 63.69Q59.50 63.63 59.88 63.38L59.88 63.38ZM45.88 31.50L45.88 31.50Q45.88 31.50 45.75 31.31Q45.63 31.13 45.38 31L45.38 31L44.88 30.50L45.25 31Q45.63 31.38 45.75 31.44Q45.88 31.50 45.88 31.50ZM41.25 29.13L41.25 29.13Q41.13 29.13 40.94 29.13Q40.75 29.13 40.63 29.13L40.63 29.13Q40.50 29.13 40.56 29.19Q40.63 29.25 40.88 29.25L40.88 29.25Q41.25 29.25 41.31 29.19Q41.38 29.13 41.25 29.13ZM96.38 98.88L96.38 98.88L95.25 98.88L95.63 98.63Q95.88 98.50 96.19 98.44Q96.50 98.38 96.75 98.38L96.75 98.38Q97 98.38 97.19 98.31Q97.38 98.25 97.38 98.25L97.38 98.25Q97.38 98.13 97.94 98.13Q98.50 98.13 98.50 98.25L98.50 98.25Q98.63 98.25 98.81 98.25Q99 98.25 99.25 98.25L99.25 98.25Q99.50 98.25 99.63 98.25Q99.75 98.25 99.75 98.38L99.75 98.38Q99.63 98.50 99.69 98.50Q99.75 98.50 99.88 98.50L99.88 98.50Q100 98.38 101.19 98.63Q102.38 98.88 102.38 99L102.38 99Q102.38 99 100 99Q97.63 99 96.38 98.88ZM95.50 95.63L95.50 95.63Q95.75 95.38 96.44 95.19Q97.13 95 97.38 95L97.38 95Q97.50 95.13 97.63 95.06Q97.75 95 97.75 95L97.75 95Q97.88 94.88 98.25 94.88Q98.63 94.88 98.63 95L98.63 95Q98.63 95 98.88 95Q99.13 95 99.50 95L99.50 95Q99.88 95.13 100.31 95.19Q100.75 95.25 101 95.25L101 95.25L101.63 95.38L101.13 95.50Q100.13 95.63 98.69 95.75Q97.25 95.88 96.50 95.88L96.50 95.88Q95.63 95.88 95.50 95.81Q95.38 95.75 95.50 95.63ZM94.25 94L94.25 94Q95 93 96.38 92.38Q97.75 91.75 99.25 91.63L99.25 91.63L100 91.50L99.63 91.75Q99.38 91.88 98.81 92.19Q98.25 92.50 97.63 92.88L97.63 92.88Q96.50 93.50 95.81 93.81Q95.13 94.13 94.50 94.25L94.50 94.25L94 94.25L94.25 94ZM78.50 81.75L78.50 81.75Q78 81.38 78.25 80.81Q78.50 80.25 79 80.25L79 80.25Q79.63 80.25 79.81 80.81Q80 81.38 79.63 81.75L79.63 81.75Q79.38 82 79.06 82Q78.75 82 78.50 81.75ZM77.50 77.38L77.50 77.38Q77.38 77.25 77.31 77.06Q77.25 76.88 77.25 76.75L77.25 76.75Q77.25 76.50 77.50 76.19Q77.75 75.88 78.13 75.88L78.13 75.88Q78.38 75.88 78.69 76.19Q79 76.50 79 76.75L79 76.75Q79 77 78.69 77.31Q78.38 77.63 78.13 77.63L78.13 77.63Q78 77.63 77.81 77.56Q77.63 77.50 77.50 77.38ZM73.75 55.50L73.75 55.50Q72.13 55.13 71.19 54.38Q70.25 53.63 69 51.88L69 51.88Q68.75 51.50 68.38 51Q68 50.50 67.63 50.25L67.63 50.25Q67.38 49.88 67.19 49.69Q67 49.50 67 49.38L67 49.38Q67 49.25 67.31 49.13Q67.63 49 67.88 49L67.88 49Q68 49 68.13 49.19Q68.25 49.38 68.38 49.75L68.38 49.75Q69.13 51.13 70.69 52Q72.25 52.88 74.75 53.13L74.75 53.13Q75.38 53.25 76.56 53.31Q77.75 53.38 79.50 53.38L79.50 53.38L82.75 53.38L82.38 54Q82 54.50 81.44 54.81Q80.88 55.13 79.75 55.25L79.75 55.25Q78.88 55.50 76.69 55.56Q74.50 55.63 73.75 55.50L73.75 55.50ZM78.38 50.50L78.38 50.50Q75.63 50.38 73.38 49.63Q71.13 48.88 70 47.75L70 47.75Q69.75 47.38 69.44 47.06Q69.13 46.75 69.13 46.63L69.13 46.63L68.88 46.25L69.38 46.50Q70.63 47 72.75 47.31Q74.88 47.63 77.88 47.75L77.88 47.75L80.88 47.75L80.88 48.25Q81 48.38 81 48.81Q81 49.25 81 49.63L81 49.63L81 50.63L80 50.63Q79.50 50.63 79.06 50.56Q78.63 50.50 78.38 50.50ZM82.25 49L82.25 49L82.25 47.63L83.50 47.38Q84.63 47.13 85.63 46.69Q86.63 46.25 88.25 45.38L88.25 45.38Q89 45 89.56 44.75Q90.13 44.50 90.13 44.50L90.13 44.50Q90.25 44.50 89.81 45.19Q89.38 45.88 88.88 46.63L88.88 46.63Q88.38 47.25 87.50 48.13Q86.63 49 86 49.38L86 49.38Q85.38 49.75 84.56 50Q83.75 50.25 83 50.38L83 50.38L82.25 50.38L82.25 49ZM76 45.88L75.63 45.50Q75.25 45 75.06 44.38Q74.88 43.75 74.88 43.13L74.88 43.13Q74.88 42.63 75.06 42.06Q75.25 41.50 75.38 41.50L75.38 41.50Q75.38 41.50 75.50 41.81Q75.63 42.13 75.75 42.50L75.75 42.50Q75.88 43.13 76 43.44Q76.13 43.75 76.38 44L76.38 44Q76.63 44.25 76.88 44.25Q77.13 44.25 78.38 44.25L78.38 44.25Q79.50 44.25 79.88 44.19Q80.25 44.13 81.13 43.88L81.13 43.88Q81.50 43.75 82.44 43.38Q83.38 43 84.25 42.63L84.25 42.63Q86 41.75 86.38 41.44Q86.75 41.13 86.88 40.13L86.88 40.13Q86.88 39.50 86.56 38.88Q86.25 38.25 85.25 37.13L85.25 37.13Q83 34.38 81.81 32.75Q80.63 31.13 80 29.38L80 29.38Q79.38 28.13 79.19 26.75Q79 25.38 79.38 25.25L79.38 25.25Q79.50 25.25 79.69 25.50Q79.88 25.75 80 26.13L80 26.13Q80.38 27.75 82.63 30.88Q84.88 34 87.50 36.75L87.50 36.75Q88.13 37.38 88.56 37.94Q89 38.50 89.13 38.63L89.13 38.63Q89.13 38.75 89.06 39.06Q89 39.38 88.88 39.75L88.88 39.75Q88.75 40.13 88.63 40.56Q88.50 41 88.50 41.25L88.50 41.25Q88.38 41.75 88.19 41.94Q88 42.13 86.88 42.75L86.88 42.75Q84.25 44.38 82.25 45.06Q80.25 45.75 77.88 45.88L77.88 45.88L76 45.88ZM40 41L40 41Q39.50 40 39.44 38.69Q39.38 37.38 39.75 36.50L39.75 36.50Q39.88 35.75 39.81 35.63Q39.75 35.50 39.38 35.50L39.38 35.50Q39 35.50 38.81 35.56Q38.63 35.63 38.38 35.88L38.38 35.88Q38.13 36.25 38.06 36.25Q38 36.25 38 36L38 36Q38.25 35.50 38.56 35Q38.88 34.50 39.25 34.25L39.25 34.25Q39.75 34 40.25 33.94Q40.75 33.88 41.38 34L41.38 34Q42.63 34.50 43.50 35.75Q44.38 37 44.38 38.63L44.38 38.63Q44.38 39 44.31 39.19Q44.25 39.38 44.25 39.38L44.25 39.38Q44.13 39.38 43.88 39Q43.63 38.63 43.38 38L43.38 38Q42.88 37 42.56 36.69Q42.25 36.38 41.75 36.38L41.75 36.38Q41.38 36.38 41.19 36.44Q41 36.50 40.88 36.63L40.88 36.63Q40.63 37 40.50 37.81Q40.38 38.63 40.38 40L40.38 40Q40.38 40.63 40.31 41.13Q40.25 41.63 40.25 41.63L40.25 41.63Q40.25 41.63 40.19 41.44Q40.13 41.25 40 41L40 41ZM67.75 33.13L67.63 33.13Q66.25 32.75 65.69 32.25Q65.13 31.75 65.38 31L65.38 31Q65.50 30.63 65.81 30.63Q66.13 30.63 67.25 30.75L67.25 30.75Q68.38 31 69.31 31Q70.25 31 70.75 30.75L70.75 30.75Q70.88 30.63 71.06 30.50Q71.25 30.38 71.25 30.38L71.25 30.38Q71.25 30.25 71.13 30Q71 29.75 70.88 29.50L70.88 29.50Q70 28.25 69.50 26.88Q69 25.50 68.88 24.63L68.88 24.63Q68.88 23.88 69 23.88Q69.13 23.88 69.38 24.50L69.38 24.50Q70.38 26.63 70.75 27.31Q71.13 28 71.88 28.75L71.88 28.75Q72.63 29.63 72.88 30.06Q73.13 30.50 73 31.25L73 31.25Q72.88 31.63 72.38 32.13Q71.88 32.63 71.25 32.88L71.25 32.88Q70.88 33 70.50 33.06Q70.13 33.13 69.38 33.25L69.38 33.25Q68.75 33.25 68.25 33.25Q67.75 33.25 67.75 33.13L67.75 33.13ZM87.50 31.88L87.50 31.88Q87.13 31.75 86.75 31.38Q86.38 31 86.25 30.63L86.25 30.63Q86.25 30 86.50 29.88Q86.75 29.75 88.63 29.63L88.63 29.63Q89.63 29.50 90.19 29.38Q90.75 29.25 90.75 29.13L90.75 29.13Q90.75 29 90.63 28.63Q90.50 28.25 90.25 27.63L90.25 27.63Q89.75 26.38 89.56 25.56Q89.38 24.75 89.38 24.13L89.38 24.13L89.38 23.50L90.50 25.88Q91 26.88 91.50 27.75Q92 28.63 92.13 29L92.13 29Q92.50 29.38 92.56 29.63Q92.63 29.88 92.50 30L92.50 30Q92.25 30.50 91.31 31Q90.38 31.50 89.38 31.75L89.38 31.75Q88.75 32 88.38 32Q88 32 87.50 31.88L87.50 31.88ZM57.75 22.63L57.75 22.63Q57.38 22.13 57.63 21.06Q57.88 20 58.50 19.13L58.50 19.13Q59.63 17.50 61.25 16.44Q62.88 15.38 64.25 15.38L64.25 15.38Q65.25 15.38 66.06 16.06Q66.88 16.75 66.63 17.50L66.63 17.50Q66.63 17.75 66.38 17.75Q66.13 17.75 64.75 17.75L64.75 17.75Q63.50 17.75 63.19 17.81Q62.88 17.88 62.25 18.25L62.25 18.25Q61.13 18.75 60.25 19.63Q59.38 20.50 58.63 22L58.63 22Q58.38 22.38 58.19 22.63Q58 22.88 58 22.88L58 22.88Q58 22.88 57.88 22.81Q57.75 22.75 57.75 22.63L57.75 22.63Z"/></svg>