<svg xmlns="http://www.w3.org/2000/svg" xmlns:xlink="http://www.w3.org/1999/xlink" width="128" height="128"><path fill="#000000" d="M62.75 124.25L62.75 124.25Q60.13 124 59.38 123.19Q58.63 122.38 57.50 118.75L57.50 118.75Q56.25 114.25 54.50 104.63Q52.75 95 53.25 94.50L53.25 94.50Q53.88 93.75 57.50 93.38L57.50 93.38Q61.13 92.88 65.31 92.81Q69.50 92.75 73 93L73 93Q76.50 93.25 76.88 93.88L76.88 93.88Q77.25 94.50 77.75 99.13L77.75 99.13Q78.13 103.75 78.44 109.06Q78.75 114.38 78.88 118.88L78.88 118.88Q79 123.38 78.75 123.75L78.75 123.75Q78.13 124.25 72.13 124.50Q66.13 124.75 62.75 124.25L62.75 124.25ZM81.63 117.75L81.63 117.75Q80.75 115.25 80.69 113Q80.63 110.75 81.25 110.25L81.25 110.25Q82.25 109.75 83.13 111.25Q84 112.75 84 115.25L84 115.25Q84 117.38 83.06 118.44Q82.13 119.50 81.63 117.75L81.63 117.75ZM47 109.13L47 109.13Q44.25 108.25 41.13 106.56Q38 104.88 37.50 104L37.50 104Q37.25 103.50 36.88 101.25Q36.50 99 36.25 96.25L36.25 96.25Q36.13 93.38 35.38 89.25Q34.63 85.13 33.75 82L33.75 82Q33 78.88 32.25 76.13Q31.50 73.38 31.25 72.50L31.25 72.50Q30.88 70.25 37.38 65.88Q43.88 61.50 45.75 62.75L45.75 62.75Q46.50 63.38 48.56 64.63Q50.63 65.88 52.75 67.13L52.75 67.13Q56 69 57.19 70.31Q58.38 71.63 59.13 74.25L59.13 74.25Q59.50 76 60.31 77.63Q61.13 79.25 61.75 79.75L61.75 79.75Q62.50 80.38 63 81.31Q63.50 82.25 63.50 83.13L63.50 83.13Q63.50 84.50 65.31 85.88Q67.13 87.25 71 88.75L71 88.75Q72.50 89.25 71 89.63Q69.50 90 63.75 90.38L63.75 90.38Q59.75 90.75 56.56 90.75Q53.38 90.75 52.88 90.38L52.88 90.38Q52.38 90.13 52.19 88.88Q52 87.63 52.25 86.13L52.25 86.13Q52.38 84.63 52.31 83Q52.25 81.38 51.88 80.50L51.88 80.50Q51.50 79.50 51.31 80.38Q51.13 81.25 51.13 84.13L51.13 84.13Q51 88.75 50.44 89.94Q49.88 91.13 48.25 89.75L48.25 89.75Q47.25 89 47.06 89.06Q46.88 89.13 47.25 90L47.25 90Q47.38 90.63 47.06 91.38Q46.75 92.13 46.13 92.75L46.13 92.75Q45 93.50 45.31 93.69Q45.63 93.88 47.75 94L47.75 94Q49.88 94 50.44 94.63Q51 95.25 51.38 98L51.38 98Q51.63 99.63 52 102Q52.38 104.38 52.63 106L52.63 106Q53 109.25 52.06 109.75Q51.13 110.25 47 109.13L47 109.13ZM80.13 100L80.13 100Q80 96 80.31 94.50Q80.63 93 81.38 93L81.38 93Q82.13 93 82.75 94.31Q83.38 95.63 83.88 98L83.88 98Q85 103 84.94 104.44Q84.88 105.88 83.38 106.38L83.38 106.38Q81.25 107.25 80.69 106.25Q80.13 105.25 80.13 100ZM101.63 103.63L101.63 103.63Q101.88 102.88 100.94 102.63Q100 102.38 97.38 102.38L97.38 102.38L92.75 102.50L92 91.50L96.75 89.75Q100.88 88.25 102.31 89.06Q103.75 89.88 104.88 94.50L104.88 94.50Q105.75 98.13 105.13 100.81Q104.50 103.50 102.63 104.25L102.63 104.25Q101.88 104.63 101.63 104.44Q101.38 104.25 101.63 103.63L101.63 103.63ZM100 98.38L100 98.38Q100 98.25 99.19 98.13Q98.38 98 97.25 98L97.25 98Q95.75 98 95.44 98.25Q95.13 98.50 95.88 98.88L95.88 98.88Q96.88 99.50 98.44 99.31Q100 99.13 100 98.38L100 98.38ZM100 95.13L100 95.13Q100 94.75 99.25 94.56Q98.50 94.38 97.50 94.63L97.50 94.63Q95.13 95 95.06 94.44Q95 93.88 97.25 93.13L97.25 93.13Q98.13 92.75 98.44 92.38Q98.75 92 98.38 91.75L98.38 91.75Q97.38 91.13 95.63 92.56Q93.88 94 94.50 94.88L94.50 94.88Q95.13 95.88 97.56 96Q100 96.13 100 95.13ZM87.63 99.25L87.63 99.25Q87.38 97.75 87.19 96.06Q87 94.38 87 93.50L87 93.50Q87.13 92 87.31 92Q87.50 92 88.50 93.38L88.50 93.38Q89.75 95 90 99Q90.25 103 89.13 103L89.13 103Q88.75 103 88.31 101.88Q87.88 100.75 87.63 99.25ZM82 89.38L82 89.38Q82 89.38 83 87.63Q84 85.88 85.38 83.63L85.38 83.63Q87.75 79.63 88.25 77.63Q88.75 75.63 88.63 70.50L88.63 70.50Q88.50 67.38 88.06 64.81Q87.63 62.25 87.13 61.63L87.13 61.63Q86.63 61 86.50 60.44Q86.38 59.88 86.75 59.63L86.75 59.63Q87.13 59.50 88.44 60.44Q89.75 61.38 91.25 62.88L91.25 62.88Q94.25 66 94.88 68.88Q95.50 71.75 93.75 75.75L93.75 75.75Q93.38 76.88 92.94 78.13Q92.50 79.38 92.38 80L92.38 80Q92.25 80.63 91.75 82.19Q91.25 83.75 90.63 85.25L90.63 85.25Q89.63 87.50 88.69 88.19Q87.75 88.88 85.50 89.25L85.50 89.25Q84.13 89.38 83.06 89.44Q82 89.50 82 89.38L82 89.38ZM69.13 84.63L69.13 84.63L64.63 82.25L67.25 79.63Q68.38 78.50 69.44 77.75Q70.50 77 70.88 77L70.88 77Q71.50 77 73.75 81.06Q76 85.13 76 86.25L76 86.25Q76 87.25 74.25 86.81Q72.50 86.38 69.13 84.63L69.13 84.63ZM76.75 80.38L76.75 80.38Q75.13 77.25 74.75 75.81Q74.38 74.38 75.13 73.88L75.13 73.88Q76.13 73.25 78 74.19Q79.88 75.13 80.25 76.50L80.25 76.50Q80.50 76.88 80.44 78.50Q80.38 80.13 80.13 81.88L80.13 81.88L79.50 86.25L76.75 80.38ZM82 85.50L82.38 81.50Q82.63 79.88 82.75 78.31Q82.88 76.75 82.88 76.25L82.88 76.25Q83 75.13 84.44 75.06Q85.88 75 86.50 76L86.50 76Q86.75 76.38 86.19 77.94Q85.63 79.50 84.50 81.25L84.50 81.25L82 85.50ZM61.13 74.88L61.13 74.88Q60 71.88 60 69Q60 66.13 61.13 65.50L61.13 65.50Q62.50 64.63 66.69 66.50Q70.88 68.38 70.25 69.63L70.25 69.63Q70.13 70.25 70.31 70.63Q70.50 71 70.88 71L70.88 71Q73.25 71 70.56 73.63Q67.88 76.25 64.38 77.38L64.38 77.38Q63 77.75 62.38 77.31Q61.75 76.88 61.13 74.88L61.13 74.88ZM79 71.25L79 71.25Q79 70.88 79.38 70.38Q79.75 69.88 80.25 69.75L80.25 69.75Q81 69.38 80.94 69.06Q80.88 68.75 80.13 68.25L80.13 68.25Q79.38 67.63 79.56 67.13Q79.75 66.63 81.13 65.63L81.13 65.63Q83.50 64 84.38 64.19Q85.25 64.38 86.13 66.63L86.13 66.63Q87.25 69.88 86.38 71.38Q85.50 72.88 82.50 72.75L82.50 72.75Q81.13 72.63 80.06 72.25Q79 71.88 79 71.25ZM54.50 66L54.50 66Q54.25 65.63 54.69 65.31Q55.13 65 56 65L56 65Q56.88 65 57.31 65.31Q57.75 65.63 57.50 66L57.50 66Q57.25 66.50 56.81 66.75Q56.38 67 56 67L56 67Q55.63 67 55.19 66.75Q54.75 66.50 54.50 66ZM52.50 62.25L52.50 62.25Q49.63 60.75 48.25 58.94Q46.88 57.13 45.63 53L45.63 53Q44.88 50.88 44.81 49.38Q44.75 47.88 45.25 47.25L45.25 47.25Q46.38 45.88 45.50 45Q44.63 44.13 43 45L43 45Q41.13 46 40.44 45.81Q39.75 45.63 38 43.75L38 43.75Q37.13 42.88 36.56 41.38Q36 39.88 36 38.38L36 38.38Q36 34.38 38.69 32.63Q41.38 30.88 43 33.88L43 33.88Q44 35.75 44 36.63Q44 37.50 42.88 35.75L42.88 35.75Q42.50 35 41.69 34.50Q40.88 34 40.13 34L40.13 34Q39 34 38.75 34.63Q38.50 35.25 38.75 37.25L38.75 37.25Q39.13 39.63 39.31 39.69Q39.50 39.75 40.25 38L40.25 38Q40.88 36.25 41.19 36.13Q41.50 36 42.63 37.38L42.63 37.38Q43.25 38.25 43.63 38.50Q44 38.75 44 38.25L44 38.25Q44 37.75 44.81 37.38Q45.63 37 46.75 36.75L46.75 36.75Q48.38 36.63 48.88 36.13Q49.38 35.63 49.25 34.50L49.25 34.50Q48.88 32.38 48.88 28.56Q48.88 24.75 49.25 19.75L49.25 19.75Q49.50 16.13 50.13 14.44Q50.75 12.75 52.63 10.88L52.63 10.88Q57.88 5.38 64.63 4.13Q71.38 2.88 78.75 6L78.75 6Q83.63 8.13 86.13 11.06Q88.63 14 85.50 14L85.50 14Q84.50 14 84.19 14.69Q83.88 15.38 84.25 16.75L84.25 16.75Q84.38 17 85.06 17.13Q85.75 17.25 86.63 17.25L86.63 17.25Q89.75 16.75 91.69 21.69Q93.63 26.63 93.25 34L93.25 34Q93.13 35.38 93 37.25Q92.88 39.13 92.88 40.25L92.88 40.25Q92.88 41.38 92.56 42.19Q92.25 43 91.88 43L91.88 43Q91.63 43 91.19 43.88Q90.75 44.75 90.50 45.88L90.50 45.88Q89.13 52.50 83.63 57.25Q78.13 62 72 62L72 62Q68 62 64.88 60.31Q61.75 58.63 58.13 54.25L58.13 54.25Q56.13 51.88 55.06 51.13Q54 50.38 54 51.25L54 51.25Q54 52.38 57.06 56.38Q60.13 60.38 62.50 62.25L62.50 62.25Q63 62.63 62.63 62.69Q62.25 62.75 61.25 62.50L61.25 62.50Q60.38 62.25 59.56 62.38Q58.75 62.50 58.50 63L58.50 63Q57.88 64 56.50 63.88Q55.13 63.75 52.50 62.25L52.50 62.25ZM80.13 55L80.13 55Q80.88 55 81.44 54.81Q82 54.63 82 54.25L82 54.25Q82 53.88 80.50 53.63Q79 53.38 76.88 53.25L76.88 53.25Q74.13 53.25 72.44 52.69Q70.75 52.13 69.38 50.88L69.38 50.88Q68.38 50 67.69 49.63Q67 49.25 67 49.75L67 49.75Q67 51.63 70.75 53.88Q74.50 56.13 76.75 55.38L76.75 55.38Q77.38 55.25 78.31 55.13Q79.25 55 80.13 55ZM80.88 48.75L80.88 48.75Q80.75 48.50 78.88 48.19Q77 47.88 74.50 47.75L74.50 47.75Q70.88 47.38 70.06 47.44Q69.25 47.50 70.50 48.25L70.50 48.25Q72.63 49.50 76.13 50Q79.63 50.50 80.38 49.75L80.38 49.75Q80.75 49.50 80.94 49.19Q81.13 48.88 80.88 48.75ZM86.75 48.38L86.75 48.38Q87.75 47.75 88.38 47.06Q89 46.38 89 46L89 46Q89 45.13 85.81 46.50Q82.63 47.88 82.25 48.88L82.25 48.88Q81.88 50.13 83.38 49.94Q84.88 49.75 86.75 48.38ZM83 44.38L83 44.38Q87.50 42.63 88.25 40.56Q89 38.50 86.25 35.63L86.25 35.63Q84.88 34.38 83.44 32.38Q82 30.38 81.13 29L81.13 29Q80.25 27.63 79.63 27Q79 26.38 79 27.13L79 27.13Q79 27.75 79.75 29.19Q80.50 30.63 81.50 32.13L81.50 32.13Q82.50 33.50 83.69 35.19Q84.88 36.88 85.63 37.75L85.63 37.75Q87.13 39.88 86.31 41Q85.50 42.13 81.38 43.50L81.38 43.50Q78.88 44.38 77.88 44.31Q76.88 44.25 75.75 43.25L75.75 43.25Q74.25 42 74 42.69Q73.75 43.38 75.25 44.75L75.25 44.75Q76.38 46 77.88 45.94Q79.38 45.88 83 44.38L83 44.38ZM71.75 31.75L71.75 31.75Q72.38 31.13 72.19 30.25Q72 29.38 70.88 28.13L70.88 28.13Q70.13 27.13 69.56 26.75Q69 26.38 69 26.75L69 26.75Q69 27.25 69.31 27.75Q69.63 28.25 70 28.50L70 28.50Q71.50 29.38 70.81 30.19Q70.13 31 67.88 31L67.88 31Q66.63 31 65.94 31.25Q65.25 31.50 65.50 32L65.50 32Q66.13 33 68.50 32.94Q70.88 32.88 71.75 31.75L71.75 31.75ZM90.75 31.13L90.75 31.13Q91.50 30.75 91.63 29.88Q91.75 29 91.38 27.63L91.38 27.63Q90.75 24.63 89.81 24.31Q88.88 24 89.50 26.88L89.50 26.88Q90 28.88 89.69 29.44Q89.38 30 88 30L88 30Q87.13 30 86.69 30.31Q86.25 30.63 86.50 31L86.50 31Q87 31.88 88.25 31.94Q89.50 32 90.75 31.13L90.75 31.13ZM63.75 18L63.75 18Q65.50 18 65.94 17.19Q66.38 16.38 65 15.50L65 15.50Q64.38 15.13 61.19 16.44Q58 17.75 58 18.38L58 18.38Q58 18.63 57.81 19.31Q57.63 20 57.25 20.75L57.25 20.75Q56.88 21.88 57.25 21.81Q57.63 21.75 59.25 20.25L59.25 20.25Q60.13 19.38 61.50 18.69Q62.88 18 63.75 18ZM44.50 29.88L44.50 29.88Q44.25 29.50 43.13 29.25Q42 29 40.75 29.25L40.75 29.25Q38.63 29.38 38 29Q37.38 28.63 37.25 26.88L37.25 26.88Q36.88 23.63 38.25 21.13Q39.63 18.63 42.63 17.38L42.63 17.38Q45.63 16.13 46.44 16.44Q47.25 16.75 47.13 19.25L47.13 19.25Q47 20.13 46.94 22.19Q46.88 24.25 46.88 26.25L46.88 26.25Q46.88 29.63 46.19 30.63Q45.50 31.63 44.50 29.88ZM43 13L43 13Q43 12.25 44.44 11.13Q45.88 10 49.25 8.13L49.25 8.13L53.13 6L50.25 9.50Q49.13 10.88 48.19 11.94Q47.25 13 47 13.13L47 13.13Q46.75 13.13 46.13 13.25Q45.50 13.38 44.75 13.50L44.75 13.50Q44 13.63 43.50 13.50Q43 13.38 43 13Z"/></svg>