<svg xmlns="http://www.w3.org/2000/svg" xmlns:xlink="http://www.w3.org/1999/xlink" width="128" height="128"><path fill="#ffffff" d="M56.88 127.63L56.88 127.63Q55.38 127.38 54.06 127.19Q52.75 127 52.38 126.88L52.38 126.88Q52 126.88 51.44 126.75Q50.88 126.63 50.25 126.50L50.25 126.50L50 126.38Q49.13 126.25 48.44 126.06Q47.75 125.88 47 125.75L47 125.75L47.25 125.75Q44.25 124.88 43.19 124.56Q42.13 124.25 39.75 123.25L39.75 123.25Q37.63 122.38 34.38 120.69Q31.13 119 29.75 118.13L29.75 118.13Q29.38 117.88 29.06 117.69Q28.75 117.50 28.75 117.50L28.75 117.50Q28.63 117.50 27.88 116.94Q27.13 116.38 26.13 115.63L26.13 115.63Q19.75 110.88 14.88 105.06Q10 99.25 6.50 92.13L6.50 92.13Q5.88 90.88 5.44 89.94Q5 89 5 88.88L5 88.88Q5 88.75 4.94 88.56Q4.88 88.38 4.75 88.13L4.75 88.13Q4.50 87.63 4.13 86.63Q3.75 85.63 3.38 84.63L3.38 84.63Q3.25 84 3.06 83.56Q2.88 83.13 2.75 82.63L2.75 82.63L2.75 82.75Q2.63 82.50 2.56 82.13Q2.50 81.75 2.50 81.50L2.50 81.50Q2.50 81.38 2.31 80.88Q2.13 80.38 2 79.88L2 79.88Q1.88 79.38 1.75 78.88Q1.63 78.38 1.63 78.13L1.63 78.13Q1.63 77.88 1.50 77.25Q1.38 76.63 1.13 75.88L1.13 75.88Q0.75 74.13 0.38 70.31Q0 66.50 0 64L0 64Q0 61.38 0.38 57.63Q0.75 53.88 1.13 52L1.13 52Q1.38 51.38 1.50 50.69Q1.63 50 1.63 49.75L1.63 49.75Q1.63 49.50 1.69 49.06Q1.75 48.63 1.88 48.38L1.88 48.38Q2 48 2.19 47.50Q2.38 47 2.38 46.50L2.38 46.50Q2.50 46.13 2.69 45.56Q2.88 45 3 44.50L3 44.50L3.63 42.75Q3.88 41.75 4.19 41Q4.50 40.25 4.63 40L4.63 40Q4.63 39.75 4.94 39.13Q5.25 38.50 5.50 37.75L5.50 37.75Q6 36.63 6.94 34.81Q7.88 33 8.50 31.88L8.50 31.88Q8.75 31.38 9.06 30.94Q9.38 30.50 10.63 28.50L10.63 28.50Q12.63 25.38 15.75 21.81Q18.88 18.25 22 15.50L22 15.50Q23.13 14.50 25.81 12.50Q28.50 10.50 28.63 10.50L28.63 10.50Q28.75 10.50 29.06 10.31Q29.38 10.13 29.75 9.88L29.75 9.88Q30.75 9.13 31.81 8.56Q32.88 8 34.13 7.25L34.13 7.25Q34.75 7 35.25 6.75Q35.75 6.50 36.25 6.25L36.25 6.25L36 6.38Q36.13 6.25 36.81 5.94Q37.50 5.63 39.50 4.75L39.50 4.75Q40 4.50 40.63 4.25Q41.25 4 42.63 3.50L42.63 3.50Q43 3.38 43.50 3.19Q44 3 44.50 2.88L44.50 2.88Q45 2.75 45.44 2.63Q45.88 2.50 46 2.50L46 2.50Q46.25 2.50 46.69 2.38Q47.13 2.25 47.63 2L47.63 2Q48 1.88 48.69 1.69Q49.38 1.50 49.88 1.50L49.88 1.50Q50.38 1.38 51 1.25Q51.63 1.13 51.88 1L51.88 1Q52.25 1 53 0.88Q53.75 0.75 54.50 0.63L54.50 0.63Q55.75 0.50 56.81 0.38Q57.88 0.25 58.88 0.13L58.88 0.13L58.50 0.13Q60.50-0.13 64.06-0.13Q67.63-0.13 69.63 0.13L69.63 0.13Q70.38 0.25 71.25 0.38Q72.13 0.50 73.13 0.63L73.13 0.63L73.50 0.63Q74.13 0.63 74.94 0.75Q75.75 0.88 76.13 1L76.13 1Q76.50 1.13 77.13 1.25Q77.75 1.38 78.25 1.50L78.25 1.50Q78.63 1.50 79.31 1.69Q80 1.88 80.38 2L80.38 2Q80.88 2.25 81.38 2.38Q81.88 2.50 82 2.50L82 2.50Q82.25 2.50 82.56 2.56Q82.88 2.63 83.13 2.75L83.13 2.75Q83.38 2.88 83.94 3.06Q84.50 3.25 84.88 3.38L84.88 3.38Q85.38 3.50 86.06 3.75Q86.75 4 87.25 4.13L87.25 4.13Q87.63 4.38 88.25 4.63Q88.88 4.88 89.13 5L89.13 5Q89.75 5.13 92.75 6.69Q95.75 8.25 96.38 8.63L96.38 8.63Q101.13 11.50 104.06 13.81Q107 16.13 110.25 19.50L110.25 19.50Q114.13 23.63 117 27.81Q119.88 32 122.50 37.63L122.50 37.63Q122.63 38.13 122.88 38.63Q123.13 39.13 123.38 39.50L123.38 39.50Q123.50 39.75 123.63 40.06Q123.75 40.38 123.75 40.63L123.75 40.63Q123.75 40.75 123.88 41.13Q124 41.50 124.13 41.88L124.13 41.88Q124.63 42.88 124.94 44Q125.25 45.13 125.50 46L125.50 46Q125.63 46.50 125.75 46.94Q125.88 47.38 126 47.63L126 47.63Q126.13 47.88 126.25 48.38Q126.38 48.88 126.38 49.38L126.38 49.38Q126.38 49.75 126.56 50.44Q126.75 51.13 126.88 51.63L126.88 51.63Q127.63 54.25 127.94 60.44Q128.25 66.63 127.75 70.13L127.75 70.13Q127.63 71.13 127.50 72.19Q127.38 73.25 127.25 73.75L127.25 73.75Q127.25 74.63 126.88 76.44Q126.50 78.25 126.13 79.75L126.13 79.75L125.50 81.75Q124.88 84.75 123.13 88.69Q121.38 92.63 119.25 96.63L119.25 96.63Q118.38 98.13 116.13 101.25Q113.88 104.38 113.38 104.88L113.38 104.88Q113.25 105 113.06 105.25Q112.88 105.50 112.63 105.75L112.63 105.75Q112.38 106.13 111.69 106.88Q111 107.63 110.25 108.38L110.25 108.38Q107 111.75 103.94 114.13Q100.88 116.50 96.38 119.38L96.38 119.38Q95.88 119.63 92.56 121.25Q89.25 122.88 88.38 123.25L88.38 123.25Q87.88 123.38 87.25 123.69Q86.63 124 86.13 124.13L86.13 124.13Q85.75 124.38 85.31 124.50Q84.88 124.63 84.63 124.63L84.63 124.63Q84.50 124.63 84.13 124.75Q83.75 124.88 83.38 125L83.38 125Q83 125.25 82.63 125.38Q82.25 125.50 82 125.50L82 125.50Q81.88 125.50 81.38 125.63Q80.88 125.75 80.38 125.88L80.38 125.88Q79.75 126 79.19 126.19Q78.63 126.38 78.25 126.38L78.25 126.38Q77.88 126.50 77.19 126.63Q76.50 126.75 76 126.88L76 126.88Q75.38 127 73.88 127.25Q72.38 127.50 70.75 127.63L70.75 127.63Q69.25 127.75 67.50 127.88Q65.75 128 63.88 128L63.88 128Q62 128 60.19 127.88Q58.38 127.75 56.50 127.50L56.50 127.50L56.88 127.63ZM61.50 115.13L61.50 115.13Q61.75 114.88 61.94 114.56Q62.13 114.25 62.25 114L62.25 114Q62.25 113.75 66.88 104.50L66.88 104.50Q71.50 95.25 77 84.19Q82.50 73.13 87.13 63.88L87.13 63.88Q91.75 54.63 92 54.38L92 54.38Q92.38 53.88 92.38 53.25Q92.38 52.63 92.13 52.38L92.13 52.38Q91.88 52.25 89.56 52.19Q87.25 52.13 81.63 52.13L81.63 52.13Q77.50 52.13 74.44 52.13Q71.38 52.13 71.25 52.13L71.25 52.13Q71.13 52.13 71.06 48.31Q71 44.50 71 32.50L71 32.50Q71 24.38 70.94 18.56Q70.88 12.75 70.88 12.63L70.88 12.63Q70.75 12.50 70.56 12.44Q70.38 12.38 70.25 12.38L70.25 12.38Q69.88 12.38 69.69 12.56Q69.50 12.75 69.38 13.25L69.38 13.25Q69 14.13 67.44 17.19Q65.88 20.25 61 29.75L61 29.75Q67 17 67.13 16.50Q67.25 16 66.25 17.88L66.25 17.88L56.88 37.63Q56 39.25 54.81 41.56Q53.63 43.88 52.88 45.50L52.88 45.50Q68 13.38 68.69 11.50Q69.38 9.63 67.25 13.75L67.25 13.75L44.25 62.25Q40.63 69.50 39.69 71.31Q38.75 73.13 38.50 73.25L38.50 73.25Q38.25 73.63 38.13 74.31Q38 75 38.13 75.38L38.13 75.38Q38.25 75.63 39.81 75.69Q41.38 75.75 49.13 75.75L49.13 75.75Q53.63 75.75 56.81 75.75Q60 75.75 60.13 75.75L60.13 75.75Q60.13 75.88 60.13 81.75L60.13 81.75Q60.13 87.50 60.13 94.56Q60.13 101.63 60.13 107.63L60.13 107.63Q60.13 113.63 60 114L60 114Q60 114.38 60.06 114.69Q60.13 115 60.25 115.13L60.25 115.13Q60.63 115.50 60.81 115.50Q61 115.50 61.50 115.13L61.50 115.13Z"/></svg>