<svg xmlns="http://www.w3.org/2000/svg" xmlns:xlink="http://www.w3.org/1999/xlink" width="128" height="128"><path fill="#ffffff" d="M14.13 74.75L14.13 74.75Q12.38 74.63 10.69 73.75Q9 72.88 7.75 71.50L7.75 71.50Q6.75 70.63 6.19 69.63Q5.63 68.63 5.25 67.50L5.25 67.50Q4.88 66.63 4.81 66.06Q4.75 65.50 4.75 64L4.75 64Q4.75 62.38 4.81 61.88Q4.88 61.38 5.25 60.50L5.25 60.50Q6.75 56.25 10.75 54.25Q14.75 52.25 19 53.63L19 53.63Q21.63 54.50 23.50 56.56Q25.38 58.63 26.13 61.38L26.13 61.38Q26.38 62.38 26.38 63.94Q26.38 65.50 26.13 66.50L26.13 66.50Q25.13 70.63 21.63 73Q18.13 75.38 14.13 74.75L14.13 74.75ZM17.63 67.50L17.63 67.50Q18.75 65.25 19.50 63.69Q20.25 62.13 20.25 62.13L20.25 62.13Q20.25 62 19.75 61.94Q19.25 61.88 18.50 61.88L18.50 61.88L16.63 61.88L16.63 58.63Q16.63 57.25 16.63 56.25Q16.63 55.25 16.50 55.38L16.50 55.38Q16.38 55.50 13.75 60.69Q11.13 65.88 11.13 65.88L11.13 65.88Q11.25 66 11.75 66Q12.25 66 13 66L13 66L14.88 66L14.88 69.38Q14.88 70.75 14.88 71.75Q14.88 72.75 15 72.75L15 72.75Q15 72.75 15.81 71.19Q16.63 69.63 17.63 67.50ZM50.88 73.50L50.88 73.50Q50.25 73.25 49.50 72.88Q48.75 72.50 48.50 72.25L48.50 72.25Q47.75 71.38 47.56 69.88Q47.38 68.38 47.88 67.38L47.88 67.38Q48.25 66.38 49.25 65.81Q50.25 65.25 51.75 65L51.75 65Q52.50 64.88 53.69 64.88Q54.88 64.88 55.63 65.13L55.63 65.13Q55.88 65.13 55.94 65.06Q56 65 56 64.38L56 64.38Q56 63.25 55.63 62.50Q55.25 61.75 54.50 61.25L54.50 61.25Q54.13 61.13 53.69 61.06Q53.25 61 52.38 61L52.38 61Q51.75 61 51.13 61.06Q50.50 61.13 50.13 61.25L50.13 61.25L49.25 61.50L49.13 60.75Q49 59.75 49.06 59.56Q49.13 59.38 49.75 59.25L49.75 59.25Q50 59.13 50.81 59.06Q51.63 59 52.38 59L52.38 59Q53.38 58.88 53.94 58.94Q54.50 59 55 59.13L55 59.13Q56.38 59.50 57.19 60.38Q58 61.25 58.25 62.63L58.25 62.63Q58.38 63.13 58.44 64.50Q58.50 65.88 58.50 68.38L58.50 68.38L58.50 73.13L57.25 73.25Q56.13 73.50 53.75 73.56Q51.38 73.63 50.88 73.50L50.88 73.50ZM55.38 71.50L55.38 71.50L56 71.50L56 69.25Q56 68.13 56 67.56Q56 67 55.88 67L55.88 67Q55.75 67 55.25 66.94Q54.75 66.88 54.13 66.88L54.13 66.88Q52.63 66.75 51.81 67Q51 67.25 50.50 67.75L50.50 67.75Q50.13 68.13 50.06 68.38Q50 68.63 50 69.13L50 69.13Q50 70.13 50.38 70.63Q50.75 71.13 51.75 71.38L51.75 71.38Q52.25 71.63 53.38 71.63Q54.50 71.63 55.38 71.50L55.38 71.50ZM63 73.25L63 73.25Q62.50 73.13 62.19 73.06Q61.88 73 61.75 72.88L61.75 72.88Q61.75 72.75 61.88 71.88Q62 71 62.13 70.88L62.13 70.88Q62.13 70.88 62.44 70.94Q62.75 71 63.13 71.25L63.13 71.25Q64.13 71.50 65.81 71.56Q67.50 71.63 68.13 71.25L68.13 71.25Q68.63 71 68.81 70.63Q69 70.25 69 69.88L69 69.88Q69 69 68.25 68.38Q67.50 67.75 65.38 66.88L65.38 66.88Q63.38 66 62.63 65.19Q61.88 64.38 61.88 62.88L61.88 62.88Q61.88 61.50 62.63 60.56Q63.38 59.63 64.88 59.25L64.88 59.25Q65.50 59 66 58.94Q66.50 58.88 67.50 59L67.50 59Q68.88 59 69.81 59.19Q70.75 59.38 70.75 59.63L70.75 59.63Q70.75 59.75 70.56 60.56Q70.38 61.38 70.38 61.50L70.38 61.50Q70.38 61.50 70 61.38Q69.63 61.25 69.13 61.13L69.13 61.13Q68.13 60.88 67.31 60.88Q66.50 60.88 65.75 61.13L65.75 61.13Q65 61.38 64.69 61.69Q64.38 62 64.38 62.75L64.38 62.75Q64.38 63.63 65 64.13Q65.63 64.63 68 65.63L68 65.63Q69.75 66.25 70.50 67Q71.25 67.75 71.50 68.88L71.50 68.88Q71.75 70.63 70.94 71.75Q70.13 72.88 68.38 73.38L68.38 73.38Q67.50 73.63 65.69 73.63Q63.88 73.63 63 73.25L63 73.25ZM77.50 73.38L77.50 73.38Q76.88 73.13 76.25 72.63Q75.63 72.13 75.38 71.38L75.38 71.38L74.88 70.50L74.88 55.25L75.63 55.13Q76.13 55 76.44 54.94Q76.75 54.88 77 54.88L77 54.88L76.75 54.88L77.25 54.75L77.25 59.25L82.50 59.25L82.50 61.13L77.25 61.13L77.25 65.50Q77.25 68.38 77.31 69.13Q77.38 69.88 77.63 70.38L77.63 70.38Q77.75 70.63 78 70.88Q78.25 71.13 78.50 71.25L78.50 71.25Q79 71.50 80 71.50Q81 71.50 81.88 71.25L81.88 71.25L82.63 70.88L82.88 71.88Q83 72.63 83 72.75Q83 72.88 82.88 73L82.88 73Q82 73.38 80.25 73.50Q78.50 73.63 77.50 73.38L77.50 73.38ZM35.25 73.25L35.25 63.88L35.25 54.50L46.63 54.50L46.63 56.63L37.88 56.63L37.88 59.50L37.88 62.50L45.75 62.50L45.75 64.63L37.88 64.63L37.88 73.25L35.25 73.25ZM84 73.25L84 73.25Q84 73.13 85.56 69.06Q87.13 65 87.88 63L87.88 63Q88.75 60.75 89.38 59.19Q90 57.63 90.63 56.25L90.63 56.25L90.25 57.38L91.50 54.50L92.75 54.50Q93.50 54.50 93.75 54.56Q94 54.63 94.13 54.75L94.13 54.75Q94.13 54.88 94.50 55.69Q94.88 56.50 95.25 57.50L95.25 57.50Q96.38 59.75 97.56 62.81Q98.75 65.88 100.13 69.50L100.13 69.50Q100.63 71 101.06 72.13Q101.50 73.25 101.50 73.25L101.50 73.25Q101.50 73.25 101.06 73.25Q100.63 73.25 100.13 73.25L100.13 73.25L98.63 73.25L97.88 70.88L97 68.50L88.38 68.50L87.50 70.88L86.63 73.25L85.38 73.25Q84.88 73.25 84.44 73.25Q84 73.25 84 73.25L84 73.25ZM96.13 66.25L96.13 66.25Q96.13 65.88 94.50 61.69Q92.88 57.50 92.63 57.50L92.63 57.50Q92.50 57.50 90.88 61.63Q89.25 65.75 89.25 66.25L89.25 66.25Q89.25 66.38 89.88 66.44Q90.50 66.50 92.63 66.50L92.63 66.50Q94.75 66.50 95.44 66.44Q96.13 66.38 96.13 66.25L96.13 66.25ZM104.25 73.25L104.25 64L104.25 54.75L104.63 54.63Q105.50 54.50 108.31 54.44Q111.13 54.38 111.75 54.50L111.75 54.50Q113.38 54.75 114.63 55.44Q115.88 56.13 116.38 57L116.38 57Q117.50 58.50 117.38 60.75Q117.25 63 116 64.25L116 64.25Q115 65.25 113.38 65.75Q111.75 66.25 109.13 66.25L109.13 66.25L106.75 66.38L106.75 73.25L104.25 73.25ZM112.13 63.75L112.13 63.75Q113.50 63.38 114.06 62.50Q114.63 61.63 114.63 60.25L114.63 60.25Q114.63 58.38 113.25 57.44Q111.88 56.50 109 56.50L109 56.50Q108.38 56.50 107.88 56.50Q107.38 56.50 107.25 56.63L107.25 56.63L106.75 56.63L106.75 64.25L109 64.13Q110.13 64.13 110.88 64Q111.63 63.88 112.13 63.75L112.13 63.75ZM120.88 73.25L120.88 63.88L120.88 54.50L123.38 54.50L123.38 73.25L120.88 73.25Z"/></svg>