<svg xmlns="http://www.w3.org/2000/svg" xmlns:xlink="http://www.w3.org/1999/xlink" width="128" height="128"><path fill="#000000" d="M75.38 64L75.38 64Q75.38 68.75 72.06 72.06Q68.75 75.38 64 75.38L64 75.38Q59.25 75.38 55.94 72.06Q52.63 68.75 52.63 64L52.63 64Q52.63 59.25 55.94 55.94Q59.25 52.63 64 52.63L64 52.63Q68.75 52.63 72.06 55.94Q75.38 59.25 75.38 64ZM107.25 45.25L107.25 45.25Q105.63 44.63 103.94 44Q102.25 43.38 100.38 42.88L100.38 42.88Q100.88 41.13 101.25 39.31Q101.63 37.50 101.88 35.75L101.88 35.75Q103.50 25.88 101.81 19.13Q100.13 12.38 95.25 9.75L95.25 9.75Q93.88 8.88 92.31 8.50Q90.75 8.13 88.88 8.13L88.88 8.13Q83.63 8.13 77.19 11.81Q70.75 15.50 64 22L64 22Q57.25 15.50 50.81 11.81Q44.38 8.13 39.13 8.13L39.13 8.13Q37.25 8.13 35.69 8.50Q34.13 8.88 32.75 9.75L32.75 9.75Q27.88 12.50 26.19 19.25Q24.50 26 26.13 35.75L26.13 35.75Q26.38 37.50 26.75 39.31Q27.13 41.13 27.63 42.88L27.63 42.88Q25.75 43.38 24.06 43.94Q22.38 44.50 20.75 45.25L20.75 45.25Q11.38 48.75 6.38 53.63Q1.38 58.50 1.38 64L1.38 64Q1.38 69.50 6.38 74.38Q11.38 79.25 20.75 82.75L20.75 82.75Q22.38 83.38 24.06 84Q25.75 84.63 27.63 85.13L27.63 85.13Q27.13 86.88 26.75 88.69Q26.38 90.50 26.13 92.25L26.13 92.25Q24.50 102.13 26.19 108.88Q27.88 115.63 32.75 118.25L32.75 118.25Q34.13 119.13 35.69 119.50Q37.25 119.88 39.13 119.88L39.13 119.88Q44.38 119.88 50.88 116.19Q57.38 112.50 64 106L64 106Q70.75 112.50 77.19 116.19Q83.63 119.88 88.88 119.88L88.88 119.88Q90.75 119.88 92.31 119.50Q93.88 119.13 95.25 118.25L95.25 118.25Q100.13 115.50 101.81 108.75Q103.50 102 101.88 92.25L101.88 92.25Q101.63 90.50 101.25 88.69Q100.88 86.88 100.38 85.13L100.38 85.13Q102.25 84.63 103.94 84.06Q105.63 83.50 107.25 82.75L107.25 82.75Q116.63 79.25 121.63 74.38Q126.63 69.50 126.63 64L126.63 64Q126.63 58.50 121.63 53.63Q116.63 48.75 107.25 45.25ZM92.50 14.75L92.50 14.75Q95.63 16.50 96.63 21.81Q97.63 27.13 96.25 35L96.25 35Q96.13 36.63 95.75 38.25Q95.38 39.88 94.88 41.63L94.88 41.63Q91 40.75 86.88 40.13Q82.75 39.50 78.38 39.13L78.38 39.13Q75.88 35.50 73.25 32.25Q70.63 29 68 26.13L68 26.13Q73.50 20.63 78.94 17.19Q84.38 13.75 89 13.75L89 13.75Q90 13.75 90.88 14Q91.75 14.25 92.50 14.75L92.50 14.75ZM81.25 74L81.25 74Q80 76.38 78.44 78.81Q76.88 81.25 75.25 83.63L75.25 83.63Q72.38 83.88 69.63 83.94Q66.88 84 64 84L64 84Q61.13 84 58.31 83.94Q55.50 83.88 52.75 83.63L52.75 83.63Q51.13 81.25 49.63 78.81Q48.13 76.38 46.75 74L46.75 74Q45.38 71.50 44.06 69Q42.75 66.50 41.50 64L41.50 64Q42.75 61.50 44.06 59Q45.38 56.50 46.75 54L46.75 54Q48.13 51.63 49.69 49.19Q51.25 46.75 52.88 44.38L52.88 44.38Q55.63 44.13 58.44 44.06Q61.25 44 64.13 44L64.13 44Q67 44 69.81 44.06Q72.63 44.13 75.25 44.38L75.25 44.38Q77 46.75 78.50 49.19Q80 51.63 81.25 54L81.25 54Q82.75 56.50 84.06 59Q85.38 61.50 86.63 64L86.63 64Q85.38 66.50 84.06 69Q82.75 71.50 81.25 74ZM89.63 70.75L89.63 70.75Q90.75 73.38 91.69 75.94Q92.63 78.50 93.38 81L93.38 81Q90.88 81.63 88.19 82.06Q85.50 82.50 82.63 82.88L82.63 82.88Q83.50 81.50 84.44 80Q85.38 78.50 86.25 76.88L86.25 76.88Q87.13 75.38 87.94 73.81Q88.75 72.25 89.63 70.75ZM64 97.75L64 97.75Q62.25 95.88 60.50 93.75Q58.75 91.63 57.13 89.50L57.13 89.50Q58.88 89.63 60.56 89.69Q62.25 89.75 64 89.75L64 89.75Q65.75 89.75 67.44 89.69Q69.13 89.63 70.88 89.50L70.88 89.50Q69.25 91.63 67.50 93.75Q65.75 95.88 64 97.75ZM45.38 82.75L45.38 82.75Q42.50 82.38 39.81 81.94Q37.13 81.50 34.63 80.88L34.63 80.88Q35.38 78.38 36.31 75.81Q37.25 73.25 38.38 70.63L38.38 70.63Q39.25 72.13 40.06 73.69Q40.88 75.25 41.75 76.75L41.75 76.75Q42.75 78.38 43.63 79.81Q44.50 81.25 45.38 82.75L45.38 82.75ZM38.38 57.25L38.38 57.25Q37.25 54.63 36.31 52.06Q35.38 49.50 34.63 47L34.63 47Q37.13 46.38 39.81 45.94Q42.50 45.50 45.38 45.13L45.38 45.13Q44.50 46.50 43.56 48Q42.63 49.50 41.75 51.13L41.75 51.13Q40.88 52.63 40.06 54.19Q39.25 55.75 38.38 57.25L38.38 57.25ZM64 30.25L64 30.25Q65.75 32.13 67.50 34.25Q69.25 36.38 70.88 38.50L70.88 38.50Q69.13 38.38 67.44 38.31Q65.75 38.25 64 38.25L64 38.25Q62.25 38.25 60.56 38.31Q58.88 38.38 57.13 38.50L57.13 38.50Q58.75 36.38 60.50 34.25Q62.25 32.13 64 30.25ZM86.25 51.25L86.25 51.25L82.63 45.25Q85.50 45.63 88.19 46.06Q90.88 46.50 93.38 47.13L93.38 47.13Q92.63 49.63 91.69 52.19Q90.75 54.75 89.63 57.38L89.63 57.38Q88.75 55.88 87.94 54.31Q87.13 52.75 86.25 51.25ZM31.75 35L31.75 35Q30.38 27.13 31.38 21.81Q32.38 16.50 35.50 14.75L35.50 14.75Q36.25 14.25 37.13 14Q38 13.75 39 13.75L39 13.75Q43.50 13.75 48.94 17.13Q54.38 20.50 60 26.13L60 26.13Q57.38 29 54.75 32.25Q52.13 35.50 49.63 39.13L49.63 39.13Q45.25 39.50 41.13 40.13Q37 40.75 33.13 41.63L33.13 41.63Q32.63 39.88 32.31 38.25Q32 36.63 31.75 35L31.75 35ZM7 64L7 64Q7 60.50 11.13 56.94Q15.25 53.38 22.75 50.63L22.75 50.63Q24.25 50 25.88 49.50Q27.50 49 29.13 48.50L29.13 48.50Q30.25 52.25 31.75 56.19Q33.25 60.13 35.13 64.13L35.13 64.13Q33.25 68.13 31.75 72Q30.25 75.88 29.13 79.63L29.13 79.63Q18.75 76.63 12.88 72.44Q7 68.25 7 64L7 64ZM35.50 113.25L35.50 113.25Q32.38 111.50 31.38 106.19Q30.38 100.88 31.75 93L31.75 93Q31.88 91.38 32.25 89.75Q32.63 88.13 33.13 86.38L33.13 86.38Q37 87.25 41.13 87.88Q45.25 88.50 49.63 88.88L49.63 88.88Q52.13 92.50 54.75 95.75Q57.38 99 60 101.88L60 101.88Q54.50 107.38 49.06 110.81Q43.63 114.25 39 114.25L39 114.25Q38 114.25 37.13 114Q36.25 113.75 35.50 113.25ZM96.25 93L96.25 93Q97.63 100.88 96.63 106.19Q95.63 111.50 92.50 113.25L92.50 113.25Q91.75 113.75 90.88 114Q90 114.25 89 114.25L89 114.25Q84.50 114.25 79.06 110.88Q73.63 107.50 68 101.88L68 101.88Q70.63 99 73.25 95.75Q75.88 92.50 78.38 88.88L78.38 88.88Q82.75 88.50 86.88 87.88Q91 87.25 94.88 86.38L94.88 86.38Q95.38 88.13 95.69 89.75Q96 91.38 96.25 93L96.25 93ZM105.25 77.38L105.25 77.38Q103.75 78 102.13 78.50Q100.50 79 98.88 79.50L98.88 79.50Q97.75 75.75 96.25 71.81Q94.75 67.88 92.88 63.88L92.88 63.88Q94.75 59.88 96.25 56Q97.75 52.13 98.88 48.38L98.88 48.38Q109.25 51.38 115.13 55.56Q121 59.75 121 64L121 64Q121 67.50 116.88 71.06Q112.75 74.63 105.25 77.38Z"/></svg>