<svg xmlns="http://www.w3.org/2000/svg" xmlns:xlink="http://www.w3.org/1999/xlink" width="128" height="128"><path fill="#000000" d="M73.25 47.50L73.25 47.50Q73.25 51.38 70.56 54.06Q67.88 56.75 64 56.75L64 56.75Q60.13 56.75 57.44 54.06Q54.75 51.38 54.75 47.50L54.75 47.50Q54.75 43.63 57.44 40.94Q60.13 38.25 64 38.25L64 38.25Q67.88 38.25 70.56 40.94Q73.25 43.63 73.25 47.50ZM64 81.75L64 81.75Q69.50 87 74.75 90Q80 93 84.25 93L84.25 93Q85.75 93 87.06 92.69Q88.38 92.38 89.50 91.75L89.50 91.75Q93.38 89.50 94.75 84Q96.13 78.50 94.75 70.50L94.75 70.50Q94.63 69.13 94.31 67.69Q94 66.25 93.63 64.75L93.63 64.75Q95.13 64.25 96.50 63.81Q97.88 63.38 99.25 62.88L99.25 62.88Q106.75 60 110.81 56.06Q114.88 52.13 114.88 47.75L114.88 47.75Q114.88 43.25 110.81 39.31Q106.75 35.38 99.25 32.50L99.25 32.50Q97.88 32 96.50 31.56Q95.13 31.13 93.63 30.75L93.63 30.75Q94 29.25 94.31 27.81Q94.63 26.38 94.75 24.88L94.75 24.88Q96.13 16.75 94.69 11.19Q93.25 5.63 89.38 3.38L89.38 3.38Q88.25 2.75 86.94 2.44Q85.63 2.13 84.25 2.13L84.25 2.13Q79.88 2.13 74.63 5.13Q69.38 8.13 63.88 13.38L63.88 13.38Q58.50 8.13 53.25 5.13Q48 2.13 43.75 2.13L43.75 2.13Q42.25 2.13 40.94 2.44Q39.63 2.75 38.50 3.38L38.50 3.38Q34.63 5.63 33.25 11.13Q31.88 16.63 33.25 24.63L33.25 24.63Q33.38 26 33.69 27.44Q34 28.88 34.38 30.38L34.38 30.38Q32.88 30.88 31.50 31.31Q30.13 31.75 28.75 32.25L28.75 32.25Q21.25 35.13 17.19 39.06Q13.13 43 13.13 47.38L13.13 47.38Q13.13 51.88 17.19 55.81Q21.25 59.75 28.75 62.63L28.75 62.63Q30.13 63.13 31.50 63.56Q32.88 64 34.38 64.38L34.38 64.38Q34 65.88 33.69 67.31Q33.38 68.75 33.25 70.25L33.25 70.25Q31.88 78.25 33.25 83.75Q34.63 89.25 38.50 91.38L38.50 91.38Q39.63 92.13 40.94 92.44Q42.25 92.75 43.75 92.75L43.75 92.75Q48 92.88 53.25 89.94Q58.50 87 64 81.75L64 81.75ZM58.38 68.25L58.38 68.25Q59.75 68.25 61.19 68.25Q62.63 68.25 64 68.25L64 68.25Q65.38 68.25 66.81 68.25Q68.25 68.25 69.63 68.25L69.63 68.25Q68.25 70 66.81 71.69Q65.38 73.38 64 74.88L64 74.88Q62.63 73.38 61.19 71.69Q59.75 70 58.38 68.25L58.38 68.25ZM46 57.88L46 57.88Q46.75 59.13 47.44 60.38Q48.13 61.63 49 62.75L49 62.75Q46.63 62.50 44.44 62.13Q42.25 61.75 40.25 61.25L40.25 61.25Q40.88 59.25 41.63 57.19Q42.38 55.13 43.25 53L43.25 53Q43.88 54.25 44.56 55.50Q45.25 56.75 46 57.88L46 57.88ZM40.25 33.75L40.25 33.75Q42.25 33.38 44.44 33Q46.63 32.63 49 32.25L49 32.25Q48.25 33.50 47.50 34.69Q46.75 35.88 46 37.25L46 37.25Q45.25 38.50 44.56 39.69Q43.88 40.88 43.25 42.25L43.25 42.25Q42.38 40 41.56 37.94Q40.75 35.88 40.25 33.75L40.25 33.75ZM45.75 47.50L45.75 47.50Q46.63 45.50 47.69 43.44Q48.75 41.38 50 39.38L50 39.38Q51.13 37.50 52.38 35.50Q53.63 33.50 54.88 31.63L54.88 31.63Q57.13 31.50 59.38 31.38Q61.63 31.25 64 31.25L64 31.25Q66.38 31.25 68.63 31.38Q70.88 31.50 73.13 31.63L73.13 31.63Q74.50 33.50 75.69 35.50Q76.88 37.50 78 39.38L78 39.38Q79.25 41.38 80.31 43.44Q81.38 45.50 82.25 47.50L82.25 47.50Q81.38 49.50 80.31 51.56Q79.25 53.63 78 55.63L78 55.63Q76.88 57.50 75.63 59.50Q74.38 61.50 73.13 63.38L73.13 63.38Q70.88 63.50 68.63 63.63Q66.38 63.75 64 63.75L64 63.75Q61.63 63.75 59.38 63.63Q57.13 63.50 54.88 63.38L54.88 63.38Q53.50 61.50 52.31 59.50Q51.13 57.50 50 55.63L50 55.63Q48.75 53.63 47.69 51.56Q46.63 49.50 45.75 47.50L45.75 47.50ZM84.75 42.13L84.75 42.13L82.13 37.13Q81.38 35.88 80.63 34.63Q79.88 33.38 79.13 32.25L79.13 32.25Q81.38 32.50 83.56 32.88Q85.75 33.25 87.88 33.75L87.88 33.75Q87.25 35.75 86.50 37.88Q85.75 40 84.75 42.13ZM84.75 52.88L84.75 52.88Q85.75 55 86.50 57.06Q87.25 59.13 87.88 61.25L87.88 61.25Q85.75 61.63 83.56 62Q81.38 62.38 79.13 62.75L79.13 62.75Q79.88 61.50 80.63 60.31Q81.38 59.13 82.13 57.75L82.13 57.75Q82.75 56.63 83.44 55.38Q84.13 54.13 84.75 52.88ZM87.13 87.63L87.13 87.63Q86.50 88 85.75 88.13Q85 88.25 84.25 88.25L84.25 88.25Q80.50 88.25 76.13 85.50Q71.75 82.75 67.25 78.25L67.25 78.25Q69.38 76 71.50 73.38Q73.63 70.75 75.75 67.75L75.75 67.75Q79.25 67.50 82.63 67Q86 66.50 89.13 65.75L89.13 65.75Q89.50 67 89.75 68.38Q90 69.75 90.25 71.13L90.25 71.13Q91.25 77.50 90.44 81.81Q89.63 86.13 87.13 87.63L87.13 87.63ZM92.25 34.88L92.25 34.88Q100.75 37.25 105.50 40.69Q110.25 44.13 110.25 47.50L110.25 47.50Q110.25 50.38 106.94 53.25Q103.63 56.13 97.50 58.38L97.50 58.38Q96.25 58.88 94.94 59.31Q93.63 59.75 92.25 60.13L92.25 60.13Q91.38 57 90.13 53.88Q88.88 50.75 87.38 47.50L87.38 47.50Q88.88 44.25 90.13 41.13Q91.38 38 92.25 34.88L92.25 34.88ZM84.25 6.75L84.25 6.75Q85.13 6.75 85.81 6.88Q86.50 7 87.25 7.38L87.25 7.38Q89.63 8.88 90.50 13.19Q91.38 17.50 90.25 23.88L90.25 23.88Q90.13 25.13 89.81 26.50Q89.50 27.88 89.25 29.25L89.25 29.25Q86 28.63 82.69 28.13Q79.38 27.63 75.75 27.25L75.75 27.25Q73.75 24.25 71.63 21.63Q69.50 19 67.25 16.75L67.25 16.75Q71.75 12.25 76.19 9.50Q80.63 6.75 84.25 6.75L84.25 6.75ZM69.63 26.75L69.63 26.75Q68.25 26.75 66.81 26.75Q65.38 26.75 64 26.75L64 26.75Q62.63 26.75 61.19 26.75Q59.75 26.75 58.38 26.75L58.38 26.75Q59.75 25 61.19 23.31Q62.63 21.63 64 20.13L64 20.13Q65.38 21.63 66.81 23.38Q68.25 25.13 69.63 26.75ZM40.88 7.38L40.88 7.38Q41.50 7 42.25 6.88Q43 6.75 43.75 6.75L43.75 6.75Q47.50 6.75 51.88 9.50Q56.25 12.25 60.75 16.75L60.75 16.75Q58.63 19 56.50 21.63Q54.38 24.25 52.25 27.25L52.25 27.25Q48.75 27.50 45.38 28Q42 28.50 38.88 29.25L38.88 29.25Q38.50 28 38.25 26.63Q38 25.25 37.75 23.88L37.75 23.88Q36.75 17.50 37.56 13.19Q38.38 8.88 40.88 7.38ZM35.75 60.13L35.75 60.13Q27.25 57.75 22.50 54.31Q17.75 50.88 17.75 47.50L17.75 47.50Q17.75 44.63 21.06 41.75Q24.38 38.88 30.50 36.63L30.50 36.63Q31.75 36.13 33.06 35.69Q34.38 35.25 35.75 34.88L35.75 34.88Q36.63 38 37.88 41.13Q39.13 44.25 40.63 47.50L40.63 47.50Q39.13 50.75 37.88 53.94Q36.63 57.13 35.75 60.13ZM37.75 71.13L37.75 71.13Q38 69.88 38.31 68.50Q38.63 67.13 38.88 65.75L38.88 65.75Q42 66.38 45.38 66.88Q48.75 67.38 52.25 67.75L52.25 67.75Q54.38 70.75 56.50 73.38Q58.63 76 60.75 78.25L60.75 78.25Q56.25 82.75 51.88 85.50Q47.50 88.25 43.75 88.25L43.75 88.25Q43 88.25 42.31 88.13Q41.63 88 40.88 87.63L40.88 87.63Q38.38 86.13 37.56 81.81Q36.75 77.50 37.75 71.13L37.75 71.13ZM33.63 112.25L33.63 112.25Q35.25 110.25 35.44 108.06Q35.63 105.88 34.75 103.63L34.75 103.63Q33.75 101.38 32 100.25Q30.25 99.13 27.88 99.13L27.88 99.13Q25.13 99 22.31 99.06Q19.50 99.13 16.75 99.13L16.75 99.13L16 99.13L16 125L19 125L19 115.25L23.75 115.25Q24.13 115.25 24.50 115.38Q24.88 115.50 25.13 115.88L25.13 115.88L31.13 125.25Q31.13 125.38 31.31 125.56Q31.50 125.75 31.75 125.75L31.75 125.75L35.63 125.75Q33.75 122.88 32 120.25Q30.25 117.63 28.50 114.88L28.50 114.88Q30.13 114.63 31.44 114.06Q32.75 113.50 33.63 112.25L33.63 112.25ZM19 112.13L19 112.13L19 102.25L20.13 102.25Q21.88 102.25 23.63 102.19Q25.38 102.13 27.13 102.25L27.13 102.25Q29.13 102.38 30.44 103.75Q31.75 105.13 31.75 107.25L31.75 107.25Q31.75 109.25 30.31 110.63Q28.88 112 26.75 112.13L26.75 112.13Q25 112.13 23.13 112.13Q21.25 112.13 19 112.13L19 112.13ZM57.75 113.38L57.75 113.38Q56.50 108.13 52.50 106.63Q48.50 105.13 44.75 106.75L44.75 106.75Q42 108.13 40.63 110.50Q39.25 112.88 39.25 115.88L39.25 115.88Q39.13 118.25 39.88 120.31Q40.63 122.38 42.38 123.88L42.38 123.88Q44.38 125.75 46.81 126.13Q49.25 126.50 51.75 126L51.75 126Q53.25 125.75 54.50 125.06Q55.75 124.38 56.75 123.25L56.75 123.25Q56.38 122.75 56 122.25Q55.63 121.75 55.25 121.25L55.25 121.25Q53.13 123.13 50.81 123.63Q48.50 124.13 45.88 122.88L45.88 122.88Q44.25 122.13 43.38 120.38Q42.50 118.63 42.38 117.13L42.38 117.13L57.88 117.13L57.88 115.75Q58 115.13 57.94 114.50Q57.88 113.88 57.75 113.38L57.75 113.38ZM42.63 115L42.63 115Q42.38 112.75 44.25 110.75Q46.13 108.75 48.63 108.75L48.63 108.75Q51.50 108.75 53.19 110.38Q54.88 112 54.88 115L54.88 115L42.63 115ZM73.25 106.25L73.25 106.25Q72.13 106.13 71 106Q69.88 105.88 68.75 106L68.75 106Q66.88 106.13 65.31 106.94Q63.75 107.75 62.50 109.13L62.50 109.13Q62.88 109.63 63.19 110.19Q63.50 110.75 64 111.25L64 111.25Q64.13 111.13 64.31 111Q64.50 110.88 64.63 110.75L64.63 110.75Q65.75 109.63 67.19 109.06Q68.63 108.50 70.38 108.75L70.38 108.75Q71.75 108.75 72.88 109.31Q74 109.88 74.38 111.25L74.38 111.25Q74.75 112.25 74.75 113.38Q74.75 114.50 74.75 115.63L74.75 115.63Q74.63 115.63 74.50 115.56Q74.38 115.50 74.25 115.38L74.25 115.38Q72.50 113.88 70.50 113.50Q68.50 113.13 66.25 113.75L66.25 113.75Q64.25 114.25 63.06 115.69Q61.88 117.13 61.75 119.25L61.75 119.25Q61.50 121.50 62.56 123.19Q63.63 124.88 65.63 125.75L65.63 125.75Q66.88 126.25 68.25 126.25Q69.63 126.25 71 126L71 126Q72 125.75 72.75 125.19Q73.50 124.63 75 123.75L75 123.75L75 125.13L77.75 125.13Q77.75 122.13 77.81 118.56Q77.88 115 77.75 111.63L77.75 111.63Q77.75 109.38 76.56 108.06Q75.38 106.75 73.25 106.25ZM74.75 118.88L74.75 118.88Q74.63 119.13 74.69 119.38Q74.75 119.63 74.75 119.75L74.75 119.75Q74.75 121.38 74.25 122.06Q73.75 122.75 72.25 123.38L72.25 123.38Q71.13 123.75 70 123.88Q68.88 124 67.75 123.63L67.75 123.63Q66.50 123.25 65.69 122.19Q64.88 121.13 64.88 119.88L64.88 119.88Q64.88 118.63 65.63 117.50Q66.38 116.38 67.63 116L67.63 116Q69.38 115.38 70.94 115.69Q72.50 116 73.88 117.13L73.88 117.13Q74.38 117.50 74.63 117.88Q74.88 118.25 74.75 118.88L74.75 118.88ZM90.25 109L90.25 109Q92.25 108.38 94 108.81Q95.75 109.25 97.13 110.88L97.13 110.88L97.38 111.13Q97.88 110.63 98.38 110.19Q98.88 109.75 99.50 109.25L99.50 109.25Q99.25 109 99.13 108.81Q99 108.63 98.88 108.38L98.88 108.38Q96.75 106.13 93.06 105.81Q89.38 105.50 86.75 107.38L86.75 107.38Q83.13 110.13 82.88 114.50Q82.63 118.88 84.38 121.75L84.38 121.75Q86.13 124.38 88.56 125.31Q91 126.25 93.88 125.88L93.88 125.88Q95.63 125.63 97.06 124.81Q98.50 124 99.63 122.63L99.63 122.63Q99.13 122.13 98.56 121.69Q98 121.25 97.50 120.75L97.50 120.75Q97.38 120.88 97.25 120.94Q97.13 121 97.13 121.25L97.13 121.25Q95.13 123.50 92.19 123.31Q89.25 123.13 87.50 120.75L87.50 120.75Q86.50 119.25 86.19 117.63Q85.88 116 86.25 114.38L86.25 114.38Q86.38 112.50 87.38 111.06Q88.38 109.63 90.25 109ZM111.13 122.63L111.13 122.63Q111 122.63 110.88 122.69Q110.75 122.75 110.75 122.75L110.75 122.75Q110.25 123.25 109.63 123.31Q109 123.38 108.25 123.25L108.25 123.25Q107.63 122.88 107.44 122.31Q107.25 121.75 107.25 121.25L107.25 121.25L107.25 109.75Q107.25 109.63 107.25 109.69Q107.25 109.75 107.25 109L107.25 109L111.13 109L111.13 106L107.13 106L107.13 101L104.13 101L104.13 106.38L101.50 106.38Q101.38 106.38 101.19 106.50Q101 106.63 101 106.75L101 106.75Q100.88 107.38 100.94 107.81Q101 108.25 101 109L101 109L104.25 109L104.25 121.75Q104.25 123 104.63 124Q105 125 106 125.63L106 125.63Q107.13 126.25 108.94 126.13Q110.75 126 111.75 125.25L111.75 125.25Q111.88 125.13 111.94 124.88Q112 124.63 112 124.63L112 124.63Q111.75 124.13 111.56 123.63Q111.38 123.13 111.13 122.63L111.13 122.63Z"/></svg>