<svg xmlns="http://www.w3.org/2000/svg" xmlns:xlink="http://www.w3.org/1999/xlink" width="128" height="128"><path fill="#ffffff" d="M40.13 125.88L40.13 125.88Q40 125.88 39.81 125.81Q39.63 125.75 39.50 125.50L39.50 125.50L32.63 116.50L32.63 125.75L31 125.75L31 114.50Q31 114.13 31.25 113.88Q31.50 113.63 31.75 113.63L31.75 113.63Q32 113.63 32.19 113.69Q32.38 113.75 32.38 114L32.38 114L39.25 123L39.25 113.75L40.88 113.75L40.88 125Q40.88 125.38 40.63 125.63Q40.38 125.88 40.13 125.88ZM53 126L53 126Q51.75 126 50.56 125.75Q49.38 125.50 48.25 125L48.25 125L48.75 123.75Q49.75 124.13 50.88 124.31Q52 124.50 53.13 124.50L53.13 124.50Q54.63 124.50 55.38 124.06Q56.13 123.63 56.13 122.88L56.13 122.88Q56.13 122.13 55.38 121.63Q54.63 121.13 52.50 120.13L52.50 120.13Q50.38 119.13 49.56 118.38Q48.75 117.63 48.75 116.38L48.75 116.38Q48.75 114.88 49.88 114.19Q51 113.50 53.25 113.50L53.25 113.50Q54.13 113.50 55.38 113.69Q56.63 113.88 57.38 114L57.38 114L57.25 115.38Q56.25 115.13 55.25 115Q54.25 114.88 53.25 114.88L53.25 114.88Q51.75 114.88 51.06 115.19Q50.38 115.50 50.38 116.25L50.38 116.25Q50.38 117 51.06 117.50Q51.75 118 53.88 119L53.88 119Q56.25 120 57 120.69Q57.75 121.38 57.75 122.50L57.75 122.50Q57.75 124.38 56.38 125.19Q55 126 53 126L53 126ZM65.13 125.75L65.13 113.75L66.75 113.75L66.75 125.75L65.13 125.75ZM82 119.50L82 119.50Q82.63 119 83.06 118.38Q83.50 117.75 83.50 117L83.50 117Q83.50 115.50 82.44 114.69Q81.38 113.88 79.63 113.88L79.63 113.88L75.63 113.88Q75.25 113.88 75 114.13Q74.75 114.38 74.75 114.63L74.75 114.63L74.75 125Q74.75 125.38 75 125.63Q75.25 125.88 75.63 125.88L75.63 125.88L80.38 125.88Q82.13 125.88 83.19 124.88Q84.25 123.88 84.25 122.38L84.25 122.38Q84.25 121.25 83.63 120.50Q83 119.75 82 119.50L82 119.50ZM76.50 119L76.50 115.13L79.75 115.13Q80.75 115.13 81.31 115.63Q81.88 116.13 81.88 117L81.88 117Q81.88 118 81.25 118.50Q80.63 119 79.75 119L79.75 119L76.50 119ZM80.50 124.50L80.50 124.50L76.50 124.50L76.50 120.38L80.50 120.38Q81.50 120.38 82.13 120.94Q82.75 121.50 82.75 122.38L82.75 122.38Q82.75 123.25 82.13 123.88Q81.50 124.50 80.50 124.50ZM99.25 125.88L92.13 125.75Q91.75 125.75 91.50 125.50Q91.25 125.25 91.25 125L91.25 125L91.25 113.75L92.88 113.75L92.88 124.38L99.25 124.38L99.25 125.88ZM110.38 126L110.38 126Q107.88 126 106.50 125.06Q105.13 124.13 105.13 122.25L105.13 122.25Q105.13 121.38 105.63 120.63Q106.13 119.88 107 119.50L107 119.50Q106.25 118.88 105.81 118.25Q105.38 117.63 105.38 116.88L105.38 116.88Q105.38 115.25 106.63 114.38Q107.88 113.50 110.38 113.50L110.38 113.50Q111.25 113.50 112.31 113.63Q113.38 113.75 114.25 114L114.25 114L114.13 115.25Q113 115.13 112.13 115.06Q111.25 115 110.25 115L110.25 115Q108.75 115 107.94 115.44Q107.13 115.88 107.13 117L107.13 117Q107.13 117.75 107.81 118.38Q108.50 119 109.50 119L109.50 119L112.25 119Q112.63 119 112.81 119.19Q113 119.38 113 119.63L113 119.63Q113 120 112.81 120.19Q112.63 120.38 112.25 120.38L112.25 120.38L109.25 120.38Q108.13 120.38 107.44 120.94Q106.75 121.50 106.75 122.38L106.75 122.38Q106.75 123.75 107.75 124.19Q108.75 124.63 110.25 124.63L110.25 124.63Q111.13 124.63 112.19 124.56Q113.25 124.50 114.13 124.25L114.13 124.25L114.25 125.50Q113.50 125.75 112.44 125.88Q111.38 126 110.38 126L110.38 126ZM24 124.75L24 124.75L19.63 114Q19.50 113.88 19.31 113.69Q19.13 113.50 18.88 113.50L18.88 113.50Q18.63 113.50 18.44 113.69Q18.25 113.88 18.25 114L18.25 114L13.38 125.75L15 125.75L16.88 121L22.63 125.50Q22.75 125.75 22.88 125.81Q23 125.88 23.25 125.88L23.25 125.88Q23.50 125.88 23.75 125.63Q24 125.38 24 125L24 125Q24.13 125 24.13 124.94Q24.13 124.88 24 124.75L24 124.75ZM17.50 119.63L17.50 119.63L18.88 116L21.75 123L17.50 119.63ZM64.13 2L64.13 2Q53.63 2 44.50 6L44.50 6Q35.38 9.88 28.50 16.75Q21.63 23.63 17.63 32.75L17.63 32.75Q13.75 42 13.75 52.38L13.75 52.38Q13.75 62.88 17.63 72L17.63 72Q21.63 81.13 28.50 88Q35.38 94.88 44.50 98.88L44.50 98.88Q53.63 102.75 64.13 102.75L64.13 102.75Q74.50 102.75 83.75 98.88L83.75 98.88Q92.88 94.88 99.75 88Q106.63 81.13 110.50 72L110.50 72Q114.50 62.88 114.50 52.38L114.50 52.38Q114.50 42 110.50 32.75L110.50 32.75Q106.63 23.63 99.75 16.75Q92.88 9.88 83.75 6L83.75 6Q74.50 2 64.13 2ZM84.75 77.50L84.75 77.50Q84 77.50 83.44 77.19Q82.88 76.88 82 76.25L82 76.25L56 55.25L47.25 77.13L39.75 77.13L61.75 24.13Q62.25 23 63.13 22.50Q64 22 65 22L65 22Q66 22 66.81 22.50Q67.63 23 68.13 24.13L68.13 24.13L88.25 72.38Q88.38 72.88 88.50 73.25Q88.63 73.63 88.63 73.88L88.63 73.88Q88.50 75.50 87.38 76.50Q86.25 77.50 84.75 77.50L84.75 77.50ZM58.25 49.50L64.88 32.75L78 65L58.25 49.50Z"/></svg>