<svg xmlns="http://www.w3.org/2000/svg" xmlns:xlink="http://www.w3.org/1999/xlink" width="128" height="128"><path fill="#ffffff" d="M64 2L64 2Q51.13 2 39.88 6.88L39.88 6.88Q28.63 11.75 20.19 20.19Q11.75 28.63 6.88 39.88L6.88 39.88Q2 51.13 2 64L2 64Q2 76.88 6.88 88.13L6.88 88.13Q11.75 99.38 20.19 107.81Q28.63 116.25 39.88 121.13L39.88 121.13Q51.13 126 64 126L64 126Q76.88 126 88.13 121.13L88.13 121.13Q99.38 116.25 107.81 107.81Q116.25 99.38 121.13 88.13L121.13 88.13Q126 76.88 126 64L126 64Q126 51.13 121.13 39.88L121.13 39.88Q116.25 28.63 107.81 20.19Q99.38 11.75 88.13 6.88L88.13 6.88Q76.88 2 64 2ZM89.38 94.75L89.38 94.75Q88.50 94.75 87.75 94.38Q87 94 86 93.25L86 93.25L54 67.50L43.25 94.25L34 94.25L61.13 29.25Q61.63 27.88 62.69 27.25Q63.75 26.63 65 26.63L65 26.63Q66.25 26.63 67.25 27.25Q68.25 27.88 68.75 29.25L68.75 29.25L93.50 88.63Q93.75 89.13 93.81 89.63Q93.88 90.13 93.88 90.38L93.88 90.38Q94 92.38 92.63 93.56Q91.25 94.75 89.38 94.75ZM56.75 60.38L65 39.88L81.13 79.50L56.75 60.38Z"/></svg>