<svg xmlns="http://www.w3.org/2000/svg" xmlns:xlink="http://www.w3.org/1999/xlink" width="128" height="128"><path fill="#000000" d="M20.50 110.13L20.50 110.13L18 110.13Q18 110.13 18 110.13Q18 110.13 18 110.13L18 110.13Q17.88 110.13 17.75 110.13Q17.63 110.13 17.63 110.25L17.63 110.25L17.63 110.25Q16.50 111.88 14.81 112.81Q13.13 113.75 11.13 113.75L11.13 113.75Q7.75 113.75 5.44 111.44Q3.13 109.13 3.13 105.75L3.13 105.75Q3.13 105.75 3.13 105.75Q3.13 105.75 3.13 105.75L3.13 105.75Q3.13 102.50 5.44 100.19Q7.75 97.88 11 97.88L11 97.88Q11 97.88 11 97.88Q11 97.88 11.13 97.88L11.13 97.88L11.13 97.88Q13.13 97.88 14.81 98.81Q16.50 99.75 17.63 101.25L17.63 101.25Q17.63 101.38 17.75 101.44Q17.88 101.50 18 101.50L18 101.50Q18 101.50 18 101.50Q18 101.50 18 101.50L18 101.50L20.50 101.50Q20.75 101.50 20.88 101.31Q21 101.13 21 101L21 101Q21 101 21 100.88Q21 100.75 20.88 100.75L20.88 100.75Q19.63 98 16.94 96.31Q14.25 94.63 11.13 94.63L11.13 94.63Q6.50 94.63 3.25 97.88Q0 101.13 0 105.75L0 105.75Q0 110.38 3.25 113.56Q6.50 116.75 11.13 116.75L11.13 116.75Q14.38 116.75 17 115.06Q19.63 113.38 20.88 110.75L20.88 110.75Q21 110.63 21 110.56Q21 110.50 21 110.50L21 110.50Q21 110.38 20.88 110.25Q20.75 110.13 20.50 110.13L20.50 110.13ZM27.88 91.13L27.88 91.13Q27.88 92 27.25 92.63Q26.63 93.25 25.75 93.25L25.75 93.25L25.75 93.25Q24.88 93.25 24.25 92.63Q23.63 92 23.63 91.13L23.63 91.13L23.63 91.13Q23.63 90.25 24.25 89.63Q24.88 89 25.75 89L25.75 89L25.75 89Q25.75 89 25.75 89Q25.75 89 25.75 89L25.75 89Q26.63 89 27.25 89.63Q27.88 90.25 27.88 91.13L27.88 91.13Q27.88 91.13 27.88 91.13Q27.88 91.13 27.88 91.13L27.88 91.13ZM27.38 115.88L27.38 115.88L27.38 95.38L24.25 95.38L24.25 115.88Q24.25 116.13 24.38 116.25Q24.50 116.38 24.75 116.38L24.75 116.38L26.88 116.38Q27 116.38 27.19 116.25Q27.38 116.13 27.38 115.88L27.38 115.88ZM41 94.88L41 94.88Q38.63 95 36.75 96.06Q34.88 97.13 33.63 98.88L33.63 98.88L33.63 96Q33.63 95.88 33.63 95.88Q33.63 95.88 33.63 95.88L33.63 95.88Q33.63 95.75 33.50 95.56Q33.38 95.38 33.13 95.38L33.13 95.38Q33.13 95.38 33.13 95.38Q33.13 95.38 33.13 95.38L33.13 95.38L31 95.38Q31 95.38 31 95.38Q31 95.38 31 95.38L31 95.38Q30.88 95.38 30.69 95.56Q30.50 95.75 30.50 95.88L30.50 95.88Q30.50 95.88 30.50 95.88Q30.50 95.88 30.50 95.88L30.50 95.88L30.50 95.88L30.50 116Q30.50 116.25 30.69 116.38Q30.88 116.50 31 116.50L31 116.50L33.13 116.50Q33.38 116.50 33.50 116.31Q33.63 116.13 33.63 116L33.63 116L33.63 105.88Q33.63 102.75 35.81 100.50Q38 98.25 41 98L41 98Q41.25 98 41.38 97.88Q41.50 97.75 41.50 97.50L41.50 97.50L41.50 95.38Q41.63 95.13 41.44 95Q41.25 94.88 41 94.88L41 94.88ZM62.13 110.13L62.13 110.13L59.63 110.13Q59.63 110.13 59.63 110.13Q59.63 110.13 59.63 110.13L59.63 110.13Q59.50 110.13 59.38 110.13Q59.25 110.13 59.25 110.25L59.25 110.25L59.25 110.25Q58.13 111.88 56.38 112.81Q54.63 113.75 52.63 113.75L52.63 113.75Q49.38 113.75 47.06 111.44Q44.75 109.13 44.75 105.75L44.75 105.75Q44.75 105.75 44.75 105.75Q44.75 105.75 44.75 105.75L44.75 105.75Q44.75 102.50 47.06 100.19Q49.38 97.88 52.63 97.88L52.63 97.88Q52.63 97.88 52.63 97.88Q52.63 97.88 52.63 97.88L52.63 97.88L52.63 97.88Q54.75 97.88 56.44 98.81Q58.13 99.75 59.25 101.25L59.25 101.25Q59.25 101.38 59.38 101.44Q59.50 101.50 59.63 101.50L59.63 101.50Q59.63 101.50 59.63 101.50Q59.63 101.50 59.63 101.50L59.63 101.50L62.13 101.50Q62.38 101.50 62.50 101.31Q62.63 101.13 62.63 101L62.63 101Q62.63 101 62.63 100.88Q62.63 100.75 62.50 100.75L62.50 100.75Q61.13 98 58.50 96.31Q55.88 94.63 52.63 94.63L52.63 94.63Q48.13 94.63 44.88 97.88Q41.63 101.13 41.63 105.75L41.63 105.75Q41.63 105.75 41.63 105.75Q41.63 105.75 41.63 105.75L41.63 105.75Q41.63 110.38 44.88 113.56Q48.13 116.75 52.63 116.75L52.63 116.75Q52.63 116.75 52.63 116.75Q52.63 116.75 52.63 116.75L52.63 116.75L52.63 116.75Q55.88 116.75 58.50 115.06Q61.13 113.38 62.50 110.75L62.50 110.75Q62.63 110.63 62.63 110.56Q62.63 110.50 62.63 110.50L62.63 110.50Q62.63 110.38 62.44 110.25Q62.25 110.13 62.13 110.13L62.13 110.13ZM68.38 88.50L68.38 88.50L66.25 88.50Q66.25 88.50 66.25 88.50Q66.25 88.50 66.25 88.50L66.25 88.50Q66.13 88.50 65.94 88.63Q65.75 88.75 65.75 89L65.75 89Q65.75 89 65.75 89Q65.75 89 65.75 89L65.75 89L65.75 89L65.75 115.88Q65.75 116.13 65.94 116.25Q66.13 116.38 66.25 116.38L66.25 116.38L68.38 116.38Q68.63 116.38 68.75 116.25Q68.88 116.13 68.88 115.88L68.88 115.88L68.88 89Q68.88 89 68.88 89Q68.88 89 68.88 89L68.88 89Q68.88 88.75 68.75 88.63Q68.63 88.50 68.38 88.50L68.38 88.50Q68.38 88.50 68.38 88.50Q68.38 88.50 68.38 88.50L68.38 88.50L68.38 88.50ZM83.13 94.75L83.13 94.75Q83.13 94.75 83.13 94.75Q83.13 94.75 83.13 94.75L83.13 94.75Q78.50 94.75 75.25 98Q72 101.25 72 105.88L72 105.88Q72 105.88 72 105.88Q72 105.88 72 105.88L72 105.88L72 105.88Q72 110.50 75.25 113.69Q78.50 116.88 83.13 116.88L83.13 116.88Q86.38 116.88 89 115.19Q91.63 113.50 93 110.88L93 110.88Q93 110.75 93 110.69Q93 110.63 93 110.63L93 110.63Q93 110.63 93 110.63Q93 110.63 93 110.63L93 110.63Q93 110.38 92.88 110.25Q92.75 110.13 92.50 110.13L92.50 110.13Q92.50 110.13 92.50 110.13Q92.50 110.13 92.50 110.13L92.50 110.13L90.13 110.13Q90.13 110.13 90.13 110.13Q90.13 110.13 90.13 110.13L90.13 110.13Q90 110.13 89.88 110.13Q89.75 110.13 89.63 110.25L89.63 110.25L89.63 110.25Q88.63 111.88 86.88 112.81Q85.13 113.75 83.13 113.75L83.13 113.75Q80.13 113.75 77.94 111.75Q75.75 109.75 75.38 106.88L75.38 106.88L93.75 106.88Q93.75 106.88 93.75 106.88Q93.75 106.88 93.75 106.88L93.75 106.88Q93.88 106.88 94.06 106.75Q94.25 106.63 94.25 106.38L94.25 106.38Q94.25 106.38 94.25 106.38Q94.25 106.38 94.25 106.38L94.25 106.38L94.25 106.38L94.25 105.75Q94.25 101.25 91 98Q87.75 94.75 83.13 94.75L83.13 94.75ZM90.75 103.75L75.50 103.75Q76.25 101.25 78.31 99.63Q80.38 98 83.13 98L83.13 98Q85.88 98 88 99.63Q90.13 101.25 90.75 103.75L90.75 103.75ZM124.88 88L124.88 88Q123.63 88 122.69 88.88Q121.75 89.75 121.75 91.13L121.75 91.13L121.75 91.13Q121.75 92.38 122.69 93.31Q123.63 94.25 124.88 94.25L124.88 94.25Q126.13 94.25 127.06 93.31Q128 92.38 128 91.13L128 91.13L128 91.13Q128 89.88 127.06 88.94Q126.13 88 124.88 88ZM122.25 95.38L127.50 95.38L127.50 115.88Q127.50 116.13 127.31 116.25Q127.13 116.38 127 116.38L127 116.38L122.75 116.38Q122.75 116.38 122.75 116.38Q122.75 116.38 122.75 116.38L122.75 116.38Q122.50 116.38 122.38 116.25Q122.25 116.13 122.25 115.88L122.25 115.88Q122.25 115.88 122.25 115.88Q122.25 115.88 122.25 115.88L122.25 115.88L122.25 115.88L122.25 95.38ZM108.50 116.88L108.50 116.88Q112.38 116.88 115.31 114.56Q118.25 112.25 119.25 108.63L119.25 108.63L119.25 108.50Q119.25 108.50 119.25 108.50Q119.25 108.50 119.25 108.50L119.25 108.50Q119.25 108.25 119.06 108.13Q118.88 108 118.75 108L118.75 108Q118.75 108 118.75 108Q118.75 108 118.75 108L118.75 108L114.25 108Q114.13 108 114 108.06Q113.88 108.13 113.75 108.25L113.75 108.25L113.75 108.25Q113.13 109.75 111.69 110.69Q110.25 111.63 108.50 111.63L108.50 111.63Q106.13 111.63 104.44 109.94Q102.75 108.25 102.75 105.88L102.75 105.88Q102.75 103.50 104.44 101.75Q106.13 100 108.50 100L108.50 100Q110.38 100 111.75 100.94Q113.13 101.88 113.75 103.38L113.75 103.38Q113.88 103.63 114 103.69Q114.13 103.75 114.25 103.75L114.25 103.75L118.75 103.75Q119 103.75 119.13 103.56Q119.25 103.38 119.25 103.25L119.25 103.25L119.25 103.13Q118.38 99.50 115.38 97.13Q112.38 94.75 108.50 94.75L108.50 94.75Q108.50 94.75 108.50 94.75Q108.50 94.75 108.50 94.75L108.50 94.75Q103.88 94.75 100.63 98Q97.38 101.25 97.38 105.88L97.38 105.88Q97.38 105.88 97.38 105.88Q97.38 105.88 97.38 105.88L97.38 105.88L97.38 105.88Q97.38 110.50 100.63 113.69Q103.88 116.88 108.50 116.88L108.50 116.88ZM55.50 44.75L55.50 44.75Q55.50 41.38 57.81 39.06Q60.13 36.75 63.50 36.75L63.50 36.75Q66.75 36.75 69.13 39.06Q71.50 41.38 71.50 44.75L71.50 44.75Q71.50 48 69.13 50.38Q66.75 52.75 63.50 52.75L63.50 52.75Q60.13 52.75 57.81 50.38Q55.50 48 55.50 44.75ZM63.50 11.13L63.50 11.13Q57.63 11.13 52.25 13L52.25 13Q47 14.88 42.69 18.25Q38.38 21.63 35.25 26.25L35.25 26.25Q32.25 31 30.88 36.38L30.88 36.38Q30.88 36.50 30.81 36.56Q30.75 36.63 30.75 36.75L30.75 36.75Q30.75 37.38 31.25 37.88Q31.75 38.38 32.38 38.38L32.38 38.38L46 38.38Q46.38 38.38 46.81 38.06Q47.25 37.75 47.38 37.38L47.38 37.38Q49.50 32.88 53.81 30Q58.13 27.13 63.50 27.13L63.50 27.13Q70.75 27.13 75.94 32.31Q81.13 37.50 81.13 44.75L81.13 44.75Q81.13 52 75.94 57.19Q70.75 62.38 63.50 62.38L63.50 62.38Q58.13 62.38 53.81 59.50Q49.50 56.63 47.38 52.13L47.38 52.13Q47.25 51.63 46.88 51.38Q46.50 51.13 46 51.13L46 51.13L32.38 51.13Q31.75 51.13 31.25 51.63Q30.75 52.13 30.75 52.75L30.75 52.75Q30.75 52.88 30.75 52.94Q30.75 53 30.88 53L30.88 53Q32.25 58.50 35.25 63.13L35.25 63.13Q38.38 67.88 42.69 71.25Q47 74.63 52.25 76.50L52.25 76.50Q57.63 78.38 63.50 78.38L63.50 78.38Q70.50 78.38 76.63 75.75L76.63 75.75Q82.75 73.13 87.31 68.56Q91.88 64 94.63 57.75L94.63 57.75Q97.25 51.63 97.25 44.63L97.25 44.63Q97.25 37.75 94.63 31.63L94.63 31.63Q91.88 25.50 87.31 20.94Q82.75 16.38 76.63 13.75L76.63 13.75Q70.50 11.13 63.50 11.13L63.50 11.13Z"/></svg>