<svg xmlns="http://www.w3.org/2000/svg" xmlns:xlink="http://www.w3.org/1999/xlink" width="128" height="128"><path fill="#000000" d="M47.75 64L47.75 64Q47.75 57.63 52.25 53.19Q56.75 48.75 63 48.75L63 48.75Q69.38 48.75 73.81 53.25Q78.25 57.75 78.25 64L78.25 64Q78.25 70.25 73.81 74.75Q69.38 79.25 63 79.25L63 79.25Q56.75 79.25 52.25 74.75Q47.75 70.25 47.75 64L47.75 64ZM63 0L63 0Q51.88 0 41.75 3.63L41.75 3.63Q31.63 7.25 23.50 13.69Q15.38 20.13 9.50 29L9.50 29Q3.75 37.75 1 48.13L1 48.13Q1 48.25 1 48.44Q1 48.63 1 48.75L1 48.75Q1 50 1.88 50.94Q2.75 51.88 4 51.88L4 51.88L4 51.88L29.88 51.88Q30.75 51.88 31.50 51.38Q32.25 50.88 32.63 50L32.63 50Q36.50 41.38 44.69 35.94Q52.88 30.50 63 30.50L63 30.50Q70 30.50 76.13 33.13L76.13 33.13Q82.25 35.75 86.75 40.31Q91.25 44.88 93.88 51L93.88 51Q96.63 57.13 96.63 64L96.63 64Q96.63 70.88 93.88 77L93.88 77Q91.25 83.13 86.75 87.69Q82.25 92.25 76.13 94.88L76.13 94.88Q70 97.50 63 97.50L63 97.50Q52.88 97.50 44.69 92.06Q36.50 86.63 32.63 78L32.63 78Q32.25 77.13 31.50 76.63Q30.75 76.13 29.88 76.13L29.88 76.13L4 76.13Q2.75 76.13 1.88 77.06Q1 78 1 79.25L1 79.25L1 79.25Q1 79.38 1 79.50Q1 79.63 1 79.88L1 79.88Q3.63 90.25 9.50 99L9.50 99Q15.25 107.88 23.44 114.31Q31.63 120.75 41.75 124.38L41.75 124.38Q51.88 128 63 128L63 128Q76.25 128 88 123L88 123Q99.63 117.88 108.31 109.19Q117 100.50 122 88.88L122 88.88Q127 77.25 127 64L127 64Q127 50.75 122 39.13L122 39.13Q117 27.50 108.31 18.81Q99.63 10.13 88 5L88 5Q76.25 0 63 0L63 0Z"/></svg>