<svg xmlns="http://www.w3.org/2000/svg" xmlns:xlink="http://www.w3.org/1999/xlink" width="128" height="128"><path fill="#ffffff" d="M114.38 11.88L114.38 11.88L13.50 11.88Q8 11.88 4 15.88Q0 19.88 0 25.38L0 25.38L0 103.13Q0 108.75 4 112.69Q8 116.63 13.50 116.63L13.50 116.63L114.38 116.63Q120 116.63 124 112.69Q128 108.75 128 103.13L128 103.13L128 25.38Q128 19.88 124 15.88Q120 11.88 114.38 11.88L114.38 11.88ZM54.13 88.13L54.13 88.13L29.50 102.38Q28.75 102.88 27.88 103.06Q27 103.25 26.13 103.25L26.13 103.25Q24.38 103.25 22.88 102.38Q21.38 101.50 20.50 100L20.50 100L20.50 100Q20 99.25 19.75 98.44Q19.50 97.63 19.50 96.75L19.50 96.75Q19.50 94.88 20.44 93.38Q21.38 91.88 22.75 91L22.75 91L22.88 91L47.50 76.75Q48.13 76.25 49 76Q49.88 75.75 50.75 75.75L50.75 75.75Q52.63 75.75 54.13 76.69Q55.63 77.63 56.50 79L56.50 79L56.50 79.13Q56.88 79.75 57.13 80.63Q57.38 81.50 57.38 82.38L57.38 82.38Q57.38 84.25 56.50 85.75Q55.63 87.25 54.13 88.13L54.13 88.13L54.13 88.13ZM63.75 66.25L63.75 66.25L63.75 66.25Q61 66.25 59.06 64.31Q57.13 62.38 57.13 59.75L57.13 59.75Q57.13 59.75 57.13 59.69Q57.13 59.63 57.13 59.63L57.13 59.63L57.13 59.63L57.25 31.25Q57.25 28.63 59.19 26.69Q61.13 24.75 63.88 24.75L63.88 24.75L63.88 24.75Q66.63 24.75 68.56 26.69Q70.50 28.63 70.50 31.38L70.50 31.38Q70.50 31.38 70.50 31.38Q70.50 31.38 70.50 31.38L70.50 31.38L70.50 31.38L70.38 59.75Q70.38 62.50 68.44 64.38Q66.50 66.25 63.75 66.25L63.75 66.25L63.75 66.25ZM107.38 100L107.38 100Q106.50 101.50 105 102.38Q103.50 103.25 101.63 103.25L101.63 103.25Q100.75 103.25 99.88 103.06Q99 102.88 98.25 102.38L98.25 102.38L98.38 102.38L73.63 88.13Q72.13 87.25 71.19 85.75Q70.25 84.25 70.25 82.38L70.25 82.38Q70.25 79.63 72.19 77.75Q74.13 75.88 76.88 75.88L76.88 75.88Q77.88 75.88 78.69 76.13Q79.50 76.38 80.25 76.75L80.25 76.75L80.25 76.75L104.88 91Q106.38 91.88 107.31 93.38Q108.25 94.88 108.25 96.75L108.25 96.75Q108.25 97.63 108 98.44Q107.75 99.25 107.25 100L107.25 100L107.38 100Z"/></svg>