<svg xmlns="http://www.w3.org/2000/svg" xmlns:xlink="http://www.w3.org/1999/xlink" width="128" height="128"><path fill="#000000" d="M72.63 74.75L72.63 53.13L78 53.13L78 59.25Q78 59.75 77.94 60.38Q77.88 61 77.75 61.63L77.75 61.63L77.88 61.63Q78.25 61.13 78.56 60.63Q78.88 60.13 79.25 59.63L79.25 59.63L84.50 53.13L90.25 53.13L83.25 61.63L90.63 74.75L84.50 74.75L79.50 65.75L77.88 67.63L77.88 74.75L72.63 74.75ZM91.38 68.63L95.88 68Q95.50 69.50 96.25 70.44Q97 71.38 98.38 71.38L98.38 71.38Q99.88 71.38 100.63 70.31Q101.38 69.25 101.38 67.50L101.38 67.50Q101.38 65.63 100.56 64.88Q99.75 64.13 98.50 64.13L98.50 64.13Q98.50 64.13 98.50 64.13Q98.50 64.13 98.50 64.13L98.50 64.13Q97.75 64.13 97.06 64.44Q96.38 64.75 95.88 65.13L95.88 65.13L95.88 65.13L93.50 62.63L100.25 57.13L92.25 57.13L92.25 53.13L105.63 53.13L105.63 57.38L100.50 61.63Q102.88 61.38 104.88 62.94Q106.88 64.50 106.88 67.63L106.88 67.63Q106.88 71 104.44 73.06Q102 75.13 98.50 75.13L98.50 75.13Q95.25 75.13 92.94 73.31Q90.63 71.50 91.38 68.63L91.38 68.63ZM108.75 68.13L113.50 67.63Q113.13 69 113.88 70.19Q114.63 71.38 117.13 71.38L117.13 71.38Q118.88 71.38 119.50 70.81Q120.13 70.25 120.13 69.25L120.13 69.25Q120.13 68 119 67.44Q117.88 66.88 116.25 66.25L116.25 66.25Q113.88 65.50 111.50 64Q109.13 62.50 109.13 59.13L109.13 59.13Q109.13 56.13 111.38 54.38Q113.63 52.63 117.50 52.75L117.50 52.75Q122.38 52.88 124 55.19Q125.63 57.50 125.13 60L125.13 60L120.25 60.50Q120.50 58.63 119.75 57.56Q119 56.50 117.13 56.50L117.13 56.50Q115.88 56.50 115.19 57Q114.50 57.50 114.50 58.50L114.50 58.50Q114.50 59.88 115.63 60.50Q116.75 61.13 118.38 61.63L118.38 61.63Q120.75 62.38 123.13 63.75Q125.50 65.13 125.50 68.50L125.50 68.50Q125.50 71.38 123.31 73.25Q121.13 75.13 117 75.13L117 75.13Q113 75.13 110.63 73.38Q108.25 71.63 108.75 68.13L108.75 68.13ZM54.50 40.13L54.50 40.13L8.63 40.13Q6.13 40.13 4.31 41.94Q2.50 43.75 2.50 46.25L2.50 46.25L2.50 81.63Q2.50 84.25 4.31 86Q6.13 87.75 8.63 87.75L8.63 87.75L54.50 87.75Q57 87.75 58.81 86Q60.63 84.25 60.63 81.63L60.63 81.63L60.63 46.25Q60.63 43.75 58.81 41.94Q57 40.13 54.50 40.13L54.50 40.13L54.50 40.13ZM27 74.75L27 74.75L15.88 81.25Q15.50 81.50 15.13 81.63Q14.75 81.75 14.38 81.75L14.38 81.75Q13.13 81.75 12.25 80.88Q11.38 80 11.38 78.75L11.38 78.75Q11.38 77.88 11.75 77.19Q12.13 76.50 12.88 76.13L12.88 76.13L12.88 76.13L24 69.63Q24.38 69.38 24.75 69.31Q25.13 69.25 25.50 69.25L25.50 69.25Q26.38 69.25 27.06 69.63Q27.75 70 28.13 70.63L28.13 70.63L28.13 70.75Q28.38 71 28.44 71.38Q28.50 71.75 28.50 72.25L28.50 72.25Q28.50 73 28.13 73.69Q27.75 74.38 27.13 74.75L27.13 74.75L27 74.75ZM31.50 64.88L31.50 64.88L31.50 64.88Q30.25 64.88 29.38 64Q28.50 63.13 28.50 61.88L28.50 61.88Q28.50 61.88 28.50 61.88Q28.50 61.88 28.50 61.88L28.50 61.88L28.50 61.88L28.50 49Q28.50 47.75 29.38 46.88Q30.25 46 31.50 46L31.50 46L31.50 46Q32.75 46 33.63 46.88Q34.50 47.75 34.50 49L34.50 49Q34.50 49 34.50 49Q34.50 49 34.50 49L34.50 49L34.50 49L34.50 61.88Q34.50 63.13 33.63 64Q32.75 64.88 31.50 64.88L31.50 64.88L31.50 64.88ZM51.25 80.25L51.25 80.25Q50.88 80.88 50.19 81.31Q49.50 81.75 48.63 81.75L48.63 81.75Q48.25 81.75 47.88 81.63Q47.50 81.50 47.13 81.25L47.13 81.25L47.13 81.25L36 74.88Q35.25 74.38 34.88 73.75Q34.50 73.13 34.50 72.25L34.50 72.25Q34.50 71.88 34.56 71.44Q34.63 71 34.88 70.75L34.88 70.75L34.88 70.75Q35.25 70 35.94 69.63Q36.63 69.25 37.50 69.25L37.50 69.25Q37.88 69.25 38.25 69.38Q38.63 69.50 39 69.63L39 69.63L39 69.63L50.13 76.13Q50.88 76.50 51.25 77.19Q51.63 77.88 51.63 78.75L51.63 78.75Q51.63 79.13 51.56 79.50Q51.50 79.88 51.25 80.25L51.25 80.25L51.25 80.25Z"/></svg>