<svg xmlns="http://www.w3.org/2000/svg" xmlns:xlink="http://www.w3.org/1999/xlink" width="128" height="128"><path fill="#000000" d="M120.25 65.38L120.25 65.38Q121.25 65.38 121.81 64.81Q122.38 64.25 122.38 63.25L122.38 63.25Q122.38 62.88 122.25 62.56Q122.13 62.25 121.88 62L121.88 62Q121.88 61.88 117.50 57.88L117.50 57.88Q113.13 53.88 107.88 49.06Q102.63 44.25 98.25 40.25L98.25 40.25Q93.88 36.25 93.88 36.25L93.88 36.25L118.50 64.25Q118.75 64.88 119.25 65.13Q119.75 65.38 120.25 65.38ZM126 79.75L126 79.75L125.75 79.50L65 24L120.88 84.75Q121.38 85.25 122 85.50Q122.63 85.75 123.38 85.75L123.38 85.75Q124.88 85.75 125.94 84.75Q127 83.75 127 82.25L127 82.25Q127 81.50 126.75 80.88Q126.50 80.25 126 79.75ZM99.13 117.25L99.13 117.25L11.13 35.75L92.25 124.25Q92.88 125 93.81 125.50Q94.75 126 95.88 126L95.88 126Q97.88 126 99.31 124.56Q100.75 123.13 100.75 121.13L100.75 121.13Q100.75 120 100.31 119Q99.88 118 99.13 117.25ZM1 2L1 2L108.75 116.75Q109.38 117.38 110.25 117.75Q111.13 118.13 112.13 118.13L112.13 118.13Q114.13 118.13 115.56 116.69Q117 115.25 117 113.25L117 113.25Q117 112.50 116.75 111.75Q116.50 111 116.13 110.38L116.13 110.38Q116 110.25 98 93.25L98 93.25Q80 76.25 58.44 56Q36.88 35.75 19 18.88L19 18.88Q1 2 1 2L1 2ZM123.38 94.75L123.38 94.75L35.38 13.25L116.50 101.75Q117.13 102.50 118.13 103Q119.13 103.50 120.25 103.50L120.25 103.50Q122.25 103.50 123.69 102.06Q125.13 100.63 125.13 98.63L125.13 98.63Q125.13 97.38 124.63 96.44Q124.13 95.50 123.38 94.75ZM80.88 119.63L80.88 119.63L80.75 119.38L19.88 63.88L75.75 124.75Q76.25 125.13 76.88 125.44Q77.50 125.75 78.25 125.75L78.25 125.75Q79.75 125.75 80.81 124.69Q81.88 123.63 81.88 122.13L81.88 122.13Q81.88 121.38 81.63 120.75Q81.38 120.13 80.88 119.63ZM34.13 91.75L34.13 91.75L58.75 119.75Q59 120.25 59.44 120.56Q59.88 120.88 60.50 120.88L60.50 120.88Q61.38 120.88 62 120.31Q62.63 119.75 62.63 118.75L62.63 118.75Q62.63 118.38 62.50 118.06Q62.38 117.75 62.13 117.50L62.13 117.50Q62 117.50 57.63 113.38L57.63 113.38Q53.25 109.38 48 104.56Q42.75 99.75 38.50 95.75L38.50 95.75Q34.13 91.75 34.13 91.75L34.13 91.75Z"/></svg>