<svg xmlns="http://www.w3.org/2000/svg" xmlns:xlink="http://www.w3.org/1999/xlink" width="128" height="128"><path fill="#ffffff" d="M10.25 67.75L10.25 67.75Q8.88 65.88 7.69 63.69Q6.50 61.50 5.25 60L5.25 60L1 60L1 79L5 79L5 66Q5.75 66.63 6 67.31Q6.25 68 6.75 68.63L6.75 68.63Q7.13 69.25 7.56 69.94Q8 70.63 8.50 71.25L8.50 71.25Q9 71.75 9.31 72.44Q9.63 73.13 10.13 73.75L10.13 73.75Q11.38 71.75 12.50 69.81Q13.63 67.88 15.13 65.75L15.13 65.75Q15 69 15 72.50Q15 76 15 79L15 79L20 79L20 60L15 60Q13.75 61.50 12.56 63.69Q11.38 65.88 10.25 67.75L10.25 67.75ZM122.75 71.88L122.75 71.88Q123.25 71.63 123.69 71.25Q124.13 70.88 124.50 70.63L124.50 70.63Q125.50 69.88 126 68.81Q126.50 67.75 126.75 66.63L126.75 66.63Q126.75 66.13 126.75 65.50Q126.75 64.88 126.75 64.38L126.75 64.38L126.63 63.75Q126.50 63.13 126.19 62.56Q125.88 62 125.50 61.50L125.50 61.50Q125.13 60.88 124.56 60.63Q124 60.38 123.63 60L123.63 60Q122.75 59.75 121.94 59.50Q121.13 59.25 120.25 59.25L120.25 59.25Q118.13 59.38 116.06 59.31Q114 59.25 111.88 59.25L111.88 59.25L111.13 59.25L111.13 78.88L116.13 78.88L116.13 72.88L118.63 72.88Q119.63 74.38 120.63 75.88Q121.63 77.38 122.50 78.88L122.50 78.88L127.25 78.88Q126.13 77.50 125 75.50Q123.88 73.50 122.75 71.88L122.75 71.88ZM122.25 66.88L122.25 66.88Q121.88 67.38 121.50 67.75Q121.13 68.13 120.38 68.25L120.38 68.25Q120 68.25 119.75 68.31Q119.50 68.38 119 68.38L119 68.38L115.88 68.38L115.88 62.88L119.75 62.88Q120.13 62.88 120.38 62.94Q120.63 63 121 63.25L121 63.25Q121.50 63.38 121.81 63.81Q122.13 64.25 122.38 64.75L122.38 64.75Q122.75 65.38 122.69 65.81Q122.63 66.25 122.25 66.88L122.25 66.88ZM25 60L25 79L39 79L39 75L29 75L29 71L38 71L38 68L29 68L29 64L39 64L39 60L25 60ZM65 60L65 79L79 79L79 74.25L68.75 74.25L69 74.25L69 71L78 71L78 68L69 68L69 64L79 64L79 60L65 60ZM44 59.88L44 63.13L49.75 63.13Q49.75 63.13 49.88 63.13Q50 63.13 50 63.25L50 63.25L50 77.75L54 77.75L54 63.88L59 63.88L59 59.88L44 59.88ZM105.63 64.25L105.63 64.25Q105.88 64.25 106 64.13Q106.13 64 106.13 63.75L106.13 63.75Q106.13 63.75 106.13 63.69Q106.13 63.63 106 63.50L106 63.50L99.38 57.38L105.25 64Q105.25 64.13 105.38 64.19Q105.50 64.25 105.63 64.25L105.63 64.25ZM106.88 67.75L106.88 67.75L92.63 54.63L105.75 68.88Q105.88 69 106 69.06Q106.13 69.13 106.25 69.13L106.25 69.13Q106.63 69.13 106.88 68.88Q107.13 68.63 107.13 68.25L107.13 68.25Q107.13 68.13 107.06 67.94Q107 67.75 106.88 67.75L106.88 67.75ZM100.75 76.50L79.88 57.38L99 78.25Q99.13 78.38 99.38 78.50Q99.63 78.63 99.88 78.63L99.88 78.63Q100.38 78.63 100.75 78.25Q101.13 77.88 101.13 77.38L101.13 77.38Q101.13 77.13 101 76.88Q100.88 76.63 100.75 76.50L100.75 76.50ZM77.50 49.38L77.50 49.38L102.75 76.25Q103 76.50 103.19 76.56Q103.38 76.63 103.63 76.63L103.63 76.63Q104 76.63 104.38 76.25Q104.75 75.88 104.75 75.38L104.75 75.38Q104.75 75.25 104.69 75.06Q104.63 74.88 104.63 74.75L104.63 74.75Q104.63 74.75 100.38 70.75L100.38 70.75Q96.13 66.88 91.06 62.13Q86 57.38 81.75 53.38L81.75 53.38Q77.50 49.38 77.50 49.38L77.50 49.38ZM106.38 71.25L85.63 52.13L104.75 72.88Q104.88 73 105.06 73.13Q105.25 73.25 105.63 73.25L105.63 73.25Q106 73.25 106.38 72.94Q106.75 72.63 106.75 72.13L106.75 72.13Q106.75 71.75 106.63 71.56Q106.50 71.38 106.38 71.25L106.38 71.25ZM96.25 77.13L96.25 77.13L82 64L95.13 78.25Q95.25 78.38 95.38 78.44Q95.50 78.50 95.75 78.50L95.75 78.50Q96.13 78.50 96.31 78.25Q96.50 78 96.50 77.75L96.50 77.75Q96.50 77.50 96.44 77.31Q96.38 77.13 96.25 77.13L96.25 77.13ZM85.25 70.50L85.25 70.50L91.13 77.13Q91.13 77.13 91.25 77.25Q91.38 77.38 91.50 77.38L91.50 77.38Q91.75 77.38 91.88 77.25Q92 77.13 92 76.88L92 76.88Q92 76.88 92 76.75Q92 76.63 91.88 76.63L91.88 76.63Q91.88 76.50 88.56 73.50Q85.25 70.50 85.25 70.50L85.25 70.50Z"/></svg>