<svg xmlns="http://www.w3.org/2000/svg" xmlns:xlink="http://www.w3.org/1999/xlink" width="128" height="128"><path fill="#000000" d="M108 54.25L108 54.25L109.25 54.75L109.38 54.50Q108.88 53.88 108.25 53.25Q107.63 52.63 106.75 52.50L106.75 52.50Q106.13 52.50 105.44 52.50Q104.75 52.50 104 52.38L104 52.38Q104 52.13 103.88 52Q103.75 51.88 103.50 52L103.50 52Q103.13 52.13 102.81 52.25Q102.50 52.38 102.25 52.50L102.25 52.50Q101.50 52.75 100.75 53Q100 53.25 99.25 53.50L99.25 53.50Q99.13 53.63 99 53.56Q98.88 53.50 98.75 53.50L98.75 53.50Q98.75 53.38 98.75 53.25Q98.75 53.13 98.75 53L98.75 53Q98.88 52.50 99.06 52Q99.25 51.50 99.38 51L99.38 51Q99.38 50.88 99.44 50.69Q99.50 50.50 99.50 50.38L99.50 50.38L100.38 51.13Q100.50 49.38 100.19 47.81Q99.88 46.25 98.88 44.88L98.88 44.88L100.13 44.88Q99.75 44 99.13 43.25Q98.50 42.50 97.63 42L97.63 42Q96.63 41.38 95.44 41.25Q94.25 41.13 93 41.13L93 41.13Q92.88 41 92.69 41Q92.50 41 92.25 41L92.25 41Q93.13 42.50 93.44 44.63Q93.75 46.75 93.25 47.63L93.25 47.63L92.75 46.88Q92.13 48 91.44 49.13Q90.75 50.25 90 51.38L90 51.38Q89.25 52.38 88.31 53.31Q87.38 54.25 86 54.75L86 54.75L86.25 53.75Q86.13 53.88 85.94 53.88Q85.75 53.88 85.63 53.88L85.63 53.88Q85.38 54 85.06 54.06Q84.75 54.13 84.38 54.13L84.38 54.13Q83.88 54 83.25 53.81Q82.63 53.63 82.13 53.50L82.13 53.50Q81.75 53.38 81.38 53.25Q81 53.13 80.63 53L80.63 53L80.63 53L80.50 52.88Q80 52.63 80 52.25Q80 51.88 80.25 51.50L80.25 51.50Q80.38 51.13 80.50 50.81Q80.63 50.50 80.75 50.25L80.75 50.25Q81 49.50 81.25 48.81Q81.50 48.13 81.88 47.50L81.88 47.50Q82.13 47.13 82.38 46.88Q82.63 46.63 82.88 46.25L82.88 46.25Q83.13 45.88 83.31 45.50Q83.50 45.13 83.75 44.75L83.75 44.75Q83.88 44.38 84.06 44.19Q84.25 44 84.50 43.88L84.50 43.88Q84.75 43.75 84.88 43.63Q85 43.50 85.13 43.38L85.13 43.38Q85.25 43 85.38 42.69Q85.50 42.38 85.63 42L85.63 42Q85.63 41.75 85.56 41.56Q85.50 41.38 85.25 41.25L85.25 41.25L84.75 41.13Q84.75 41 84.81 40.88Q84.88 40.75 84.88 40.63L84.88 40.63Q85.75 38.88 86.56 37.13Q87.38 35.38 88.25 33.63L88.25 33.63Q89.13 31.75 90.06 30Q91 28.25 91.88 26.50L91.88 26.50Q92.13 26.13 92.38 25.81Q92.63 25.50 92.88 25.13L92.88 25.13Q93.25 25.13 93.69 25.19Q94.13 25.25 94.50 25.25L94.50 25.25Q96.38 25.25 98.06 24.75Q99.75 24.25 101.13 22.88L101.13 22.88Q102.63 21.50 103.63 19.81Q104.63 18.13 105.38 16.25L105.38 16.25L105.50 15.75L105.13 16Q103.25 17.25 101.25 17.88Q99.25 18.50 97 18.13L97 18.13Q97 18 97 17.94Q97 17.88 97.13 17.75L97.13 17.75Q97.88 16.75 98.69 15.69Q99.50 14.63 100.25 13.50L100.25 13.50Q100.63 13.13 100.94 12.75Q101.25 12.38 101.50 12L101.50 12Q101.38 11.88 101.19 11.81Q101 11.75 100.88 11.75L100.88 11.75Q100.13 11.50 99.38 11.25Q98.63 11 97.88 10.75L97.88 10.75Q97.50 10.63 97.44 10.50Q97.38 10.38 97.50 10L97.50 10Q97.88 9.38 98.19 8.69Q98.50 8 98.75 7.25L98.75 7.25Q98.88 7.13 98.81 6.88Q98.75 6.63 98.88 6.38L98.88 6.38Q97 6.13 95.13 6.06Q93.25 6 91 6.25L91 6.25L91 4.75Q90.25 4.88 89.69 4.94Q89.13 5 88.50 5.13L88.50 5.13Q87.75 5.38 87.19 5.56Q86.63 5.75 85.88 6L85.88 6L85.88 5.88L88 2.13Q87.25 2.25 86.50 2.31Q85.75 2.38 85 2.50L85 2.50Q83.38 2.88 81.81 3.13Q80.25 3.38 78.75 3.75L78.75 3.75Q78.13 3.88 77.44 4.06Q76.75 4.25 76 4.50L76 4.50L76 2.88Q74.50 3 73.88 3.44Q73.25 3.88 72.13 4.25L72.13 4.25Q72.38 3.63 72.63 3.06Q72.88 2.50 73 1.88L73 1.88Q73 1.75 73 1.63Q73 1.50 73 1.38L73 1.38L72.88 1.25Q72.38 1.38 71.94 1.44Q71.50 1.50 71 1.63L71 1.63Q68.63 2.13 66.38 2.88Q64.13 3.63 62 4.88L62 4.88L60.88 5.50L60.63 2Q59.38 2.50 58.19 3.19Q57 3.88 56.13 5L56.13 5L55.38 2.38L55.38 2.13L55.38 2L55.25 2.13Q55.25 2.25 55.13 2.38Q55 2.50 54.88 2.63L54.88 2.63Q53.88 4 53.31 5.63Q52.75 7.25 52.63 9L52.63 9L51.63 6.63L50 13.88L47.50 10.50Q46.75 12.38 46.31 14.19Q45.88 16 45.75 17.88L45.75 17.88L43.88 15.88Q43 18.63 42.31 21.44Q41.63 24.25 41.25 27.13L41.25 27.13Q40.63 26.63 40.19 26.13Q39.75 25.63 39.38 24.88L39.38 24.88Q39 24 38.88 22.94Q38.75 21.88 38.75 20.88L38.75 20.88Q38.75 20.75 38.75 20.56Q38.75 20.38 38.75 20.25L38.75 20.25L38.63 20.25Q37.25 25 36.81 29.81Q36.38 34.63 36.63 39.50L36.63 39.50L34.38 35.25L34.25 35.25Q34.13 36.50 34 37.75Q33.88 39 33.75 40.13L33.75 40.13Q33.75 41 33.69 41.06Q33.63 41.13 32.88 41.25L32.88 41.25Q30.63 41.88 28.44 42.75Q26.25 43.63 24.38 45L24.38 45Q24.25 45.13 24.13 45.19Q24 45.25 23.88 45.38L23.88 45.38L24 45.50L26.63 46.50Q25.75 47.38 24.94 48.31Q24.13 49.25 23.38 50.13L23.38 50.13Q22.63 51.13 22 52.19Q21.38 53.25 20.88 54.38L20.88 54.38Q21.38 54.25 21.69 54.06Q22 53.88 22.38 53.75L22.38 53.75Q22.75 53.63 23.13 53.50Q23.50 53.38 23.88 53.38L23.88 53.38Q23.13 54 22.63 54.81Q22.13 55.63 21.63 56.50L21.63 56.50Q20.13 59.38 19.44 62.63Q18.75 65.88 18.63 69.13L18.63 69.13Q18.50 71.25 18.56 73.38Q18.63 75.50 19 77.63L19 77.63Q19.13 78 19.19 78.38Q19.25 78.75 19.25 79.13L19.25 79.13L19.50 79.13L20.75 76.13Q21.25 78.50 21.38 80.94Q21.50 83.38 21.50 85.75L21.50 85.75L21.63 85.88L22.75 84.50Q22.88 84.75 22.94 84.88Q23 85 23 85.13L23 85.13Q23.50 86.75 23.63 88.38Q23.75 90 23.63 91.75L23.63 91.75Q23.50 92.63 23.56 93.44Q23.63 94.25 23.88 95.13L23.88 95.13Q24.25 97.25 25.25 99.06Q26.25 100.88 27.75 102.38L27.75 102.38Q28 102.75 28.38 102.94Q28.75 103.13 29.13 103.38L29.13 103.38Q29.25 103.50 29.38 103.50Q29.50 103.50 29.50 103.25L29.50 103.25L29.38 103.25L29.50 103.25L30.38 103.50L31.75 104L31.88 103.88L30.88 102L30.88 101.88L30.88 101.88L30.88 102L31.13 102Q31.75 102.75 32.56 103.13Q33.38 103.50 34.25 103.88L34.25 103.88Q34.50 104.38 34.88 104.81Q35.25 105.25 35.63 105.63L35.63 105.63L36.63 105L37 105.38Q37.63 106.38 38.50 106.75Q39.38 107.13 40.50 107.13L40.50 107.13Q41.13 107.13 41.81 107.06Q42.50 107 43.13 107L43.13 107Q45.50 107 47.88 106.94Q50.25 106.88 52.63 106.88L52.63 106.88Q54.25 106.75 55.88 106.69Q57.50 106.63 59.13 106.63L59.13 106.63Q59.88 106.50 60.63 106.44Q61.38 106.38 62.25 106.38L62.25 106.38Q61 103.13 58.63 101.25Q56.25 99.38 53.50 98.25L53.50 98.25L56.63 97.38Q60.13 99.25 63.81 100.88Q67.50 102.50 70.63 105L70.63 105L70.88 105L70.50 101.13Q70.75 101.25 70.94 101.38Q71.13 101.50 71.25 101.75L71.25 101.75Q72.13 102.25 72.88 102.81Q73.63 103.38 74.38 104L74.38 104L74.63 104.13L74.63 104.25Q75.75 105.25 77.06 105.88Q78.38 106.50 80 106.50L80 106.50Q82.25 106.50 84.50 106.50Q86.75 106.50 89 106.50L89 106.50Q89.13 106.50 89.38 106.38Q89.63 106.25 89.63 106.13L89.63 106.13Q90.13 105.38 90.63 104.50Q91.13 103.63 91.63 102.88L91.63 102.88Q92.75 100.75 93.81 98.63Q94.88 96.50 96 94.25L96 94.25L96.50 93.50Q96 93.63 95.56 93.88Q95.13 94.13 94.63 94.25L94.63 94.25L92.75 95.25L92.75 95.25L92.75 95.25Q92.88 95.13 92.88 94.94Q92.88 94.75 93 94.63L93 94.63Q94 93 95 91.31Q96 89.63 97 88L97 88Q98.13 86.38 99.25 84.75Q100.38 83.13 101 81.38L101 81.38Q101.25 80.50 101.50 79.63Q101.75 78.75 102 77.88L102 77.88L102 77.88L101.88 77.88Q101.50 78.25 101 78.56Q100.50 78.88 100 79.25L100 79.25Q99.38 79.50 98.75 79.81Q98.13 80.13 97.50 80.38L97.50 80.38L97.50 80.50L97.50 80.38L97.50 80.38L97.63 79.88L98.25 77.38Q98.13 77.38 98 77.44Q97.88 77.50 97.88 77.50L97.88 77.50Q96.50 78.25 95.13 78.94Q93.75 79.63 92.38 80.25L92.38 80.25Q90.50 81.13 88.75 82.19Q87 83.25 85.38 84.50L85.38 84.50Q84.75 85 84.25 85.44Q83.75 85.88 83.13 86.38L83.13 86.38L83 86.25Q82.50 85.75 81.94 85.31Q81.38 84.88 80.88 84.38L80.88 84.38Q80.50 84 80.19 83.75Q79.88 83.50 79.50 83.13L79.50 83.13Q80.75 81.63 81.63 80Q82.50 78.38 83.13 76.50L83.13 76.50Q83.50 75.38 83.75 74.19Q84 73 84.25 71.75L84.25 71.75L84.75 71.63Q85.63 71.38 86.56 71.13Q87.50 70.88 88.50 71L88.50 71Q88.88 71 89.31 71.06Q89.75 71.13 90.13 71.25L90.13 71.25L89.75 70.25L89.63 70.25L89.75 70.25L89.75 70.25L90 70.38Q90.75 70.75 91.50 71.06Q92.25 71.38 92.88 71.63L92.88 71.63Q94.13 72.13 95.44 72.38Q96.75 72.63 98 72.50L98 72.50Q98.13 72.50 98.25 72.44Q98.38 72.38 98.25 72.25L98.25 72.25Q98.38 72.25 98.50 72.25Q98.63 72.25 98.75 72.38L98.75 72.38Q99.75 72.75 100.75 72.88Q101.75 73 102.75 72.88L102.75 72.88Q103.63 72.75 104.38 72.31Q105.13 71.88 105.63 70.88L105.63 70.88L106 71.13Q106.25 70.38 106.13 69.69Q106 69 105.88 68.25L105.88 68.25Q105.88 68.13 105.88 68Q105.88 67.88 105.88 67.75L105.88 67.75Q106.13 67.50 106.44 67.25Q106.75 67 107 66.75L107 66.75L107.25 67.25Q107.63 66.63 107.75 65.88Q107.88 65.13 107.88 64.38L107.88 64.38L108.38 65L108.63 64.88Q108.50 64.25 108.44 63.63Q108.38 63 108.13 62.50L108.13 62.50Q107.75 61.75 107.75 61.13Q107.75 60.50 108.25 59.75L108.25 59.75Q108.50 59.38 108.69 58.88Q108.88 58.38 109.13 57.75L109.13 57.75L109.25 58L109.50 58.13Q109.38 57.13 108.94 56.19Q108.50 55.25 108 54.25L108 54.25ZM14 126L14 126L12.38 126L12.38 111.75L20.38 111.75L20.38 113.25L14 113.25L14 118.38L20 118.38L20 119.88L14 119.88L14 126ZM31.75 120.63L31.75 120.63Q31.75 122 31.38 123Q31 124 30.38 124.75L30.38 124.75Q29.75 125.50 28.81 125.88Q27.88 126.25 26.75 126.25L26.75 126.25Q26 126.25 25.38 126.06Q24.75 125.88 24.25 125.50L24.25 125.50Q23.63 125.13 23.19 124.69Q22.75 124.25 22.50 123.63L22.50 123.63Q22.13 123 22 122.25Q21.88 121.50 21.88 120.63L21.88 120.63Q21.88 119.38 22.19 118.31Q22.50 117.25 23.13 116.50L23.13 116.50Q23.88 115.88 24.75 115.50Q25.63 115.13 26.75 115.13L26.75 115.13Q27.88 115.13 28.81 115.50Q29.75 115.88 30.38 116.63L30.38 116.63Q31 117.38 31.38 118.38Q31.75 119.38 31.75 120.63L31.75 120.63ZM23.50 120.63L23.50 120.63Q23.50 121.63 23.75 122.44Q24 123.25 24.38 123.75L24.38 123.75Q24.75 124.25 25.38 124.56Q26 124.88 26.75 124.88L26.75 124.88Q27.63 124.88 28.19 124.56Q28.75 124.25 29.25 123.75L29.25 123.75Q29.63 123.25 29.81 122.44Q30 121.63 30 120.63L30 120.63Q30 119.63 29.81 118.88Q29.63 118.13 29.25 117.50L29.25 117.50Q28.75 117 28.19 116.75Q27.63 116.50 26.75 116.50L26.75 116.50Q26 116.50 25.38 116.75Q24.75 117 24.38 117.50L24.38 117.50Q24 118 23.75 118.81Q23.50 119.63 23.50 120.63ZM36.13 115.25L36.13 115.25L36.13 122.25Q36.13 122.88 36.25 123.38Q36.38 123.88 36.63 124.25L36.63 124.25Q37 124.50 37.44 124.69Q37.88 124.88 38.50 124.88L38.50 124.88Q39.38 124.88 40 124.63Q40.63 124.38 41 123.88L41 123.88Q41.38 123.50 41.56 122.75Q41.75 122 41.75 120.88L41.75 120.88L41.75 115.25L43.38 115.25L43.38 126L42 126L41.75 124.63L41.75 124.63Q41.50 125 41.13 125.31Q40.75 125.63 40.38 125.75L40.38 125.75Q39.88 126 39.38 126.13Q38.88 126.25 38.38 126.25L38.38 126.25Q37.38 126.25 36.63 126Q35.88 125.75 35.38 125.25L35.38 125.25Q34.88 124.75 34.63 124.06Q34.38 123.38 34.38 122.25L34.38 122.25L34.38 115.25L36.13 115.25ZM54.13 126L54.13 126L54.13 119.13Q54.13 118.38 54 117.94Q53.88 117.50 53.50 117.13L53.50 117.13Q53.25 116.75 52.81 116.63Q52.38 116.50 51.63 116.50L51.63 116.50Q50.88 116.50 50.25 116.69Q49.63 116.88 49.25 117.38L49.25 117.38Q48.88 117.88 48.69 118.63Q48.50 119.38 48.50 120.38L48.50 120.38L48.50 126L46.88 126L46.88 115.25L48.13 115.25L48.38 116.75L48.50 116.75Q48.75 116.38 49.06 116.06Q49.38 115.75 49.88 115.50L49.88 115.50Q50.38 115.38 50.88 115.25Q51.38 115.13 51.88 115.13L51.88 115.13Q52.88 115.13 53.56 115.38Q54.25 115.63 54.75 116L54.75 116Q55.25 116.50 55.50 117.25Q55.75 118 55.75 119L55.75 119L55.75 126L54.13 126ZM66.38 124.63L66.38 124.63L66.25 124.63Q65.75 125.38 64.88 125.81Q64 126.25 62.88 126.25L62.88 126.25Q61.88 126.25 61.06 125.88Q60.25 125.50 59.63 124.75L59.63 124.75Q59.13 124 58.81 123Q58.50 122 58.50 120.63L58.50 120.63Q58.50 119.38 58.81 118.31Q59.13 117.25 59.63 116.63L59.63 116.63Q60.25 115.88 61.06 115.50Q61.88 115.13 62.88 115.13L62.88 115.13Q64 115.13 64.88 115.50Q65.75 115.88 66.25 116.63L66.25 116.63L66.38 116.63L66.38 115.88L66.25 115.13L66.25 110.75L67.88 110.75L67.88 126L66.63 126L66.38 124.63ZM63.13 124.88L63.13 124.88Q64 124.88 64.56 124.63Q65.13 124.38 65.50 123.88L65.50 123.88Q65.88 123.50 66.06 122.75Q66.25 122 66.25 121L66.25 121L66.25 120.63Q66.25 119.50 66.06 118.69Q65.88 117.88 65.50 117.38L65.50 117.38Q65.13 117 64.56 116.75Q64 116.50 63.13 116.50L63.13 116.50Q62.38 116.50 61.81 116.75Q61.25 117 60.88 117.63L60.88 117.63Q60.50 118.13 60.31 118.88Q60.13 119.63 60.13 120.75L60.13 120.75Q60.13 121.75 60.31 122.50Q60.50 123.25 60.88 123.75L60.88 123.75Q61.25 124.38 61.81 124.63Q62.38 124.88 63.13 124.88ZM77.88 126L77.88 126L77.63 124.50L77.50 124.50Q77.13 125 76.75 125.31Q76.38 125.63 75.88 125.88L75.88 125.88Q75.50 126 75 126.13Q74.50 126.25 74 126.25L74 126.25Q73.13 126.25 72.50 126Q71.88 125.75 71.50 125.38L71.50 125.38Q71 125 70.75 124.38Q70.50 123.75 70.50 123L70.50 123Q70.50 121.38 71.81 120.56Q73.13 119.75 75.75 119.63L75.75 119.63L77.50 119.63L77.50 118.88Q77.50 118.25 77.38 117.81Q77.25 117.38 77 117L77 117Q76.75 116.75 76.31 116.63Q75.88 116.50 75.25 116.50L75.25 116.50Q74.63 116.50 73.88 116.69Q73.13 116.88 72.25 117.25L72.25 117.25L71.75 116Q72.13 115.88 72.56 115.69Q73 115.50 73.50 115.38L73.50 115.38Q74 115.25 74.44 115.19Q74.88 115.13 75.38 115.13L75.38 115.13Q76.38 115.13 77.06 115.31Q77.75 115.50 78.25 116L78.25 116Q78.63 116.38 78.88 117.06Q79.13 117.75 79.13 118.75L79.13 118.75L79.13 126L77.88 126ZM74.25 124.88L74.25 124.88Q75 124.88 75.63 124.69Q76.25 124.50 76.63 124L76.63 124Q77.13 123.63 77.31 123.06Q77.50 122.50 77.50 121.75L77.50 121.75L77.50 120.75L75.88 120.75Q74.88 120.88 74.19 121Q73.50 121.13 73.13 121.38L73.13 121.38Q72.63 121.63 72.44 122.06Q72.25 122.50 72.25 123L72.25 123Q72.25 123.50 72.38 123.81Q72.50 124.13 72.75 124.38L72.75 124.38Q73 124.63 73.38 124.75Q73.75 124.88 74.25 124.88L74.25 124.88ZM85.88 124.88L85.88 124.88Q86.13 124.88 86.31 124.88Q86.50 124.88 86.75 124.75L86.75 124.75Q87 124.75 87.13 124.75Q87.25 124.75 87.38 124.63L87.38 124.63L87.38 125.88Q87.25 126 87.06 126.06Q86.88 126.13 86.63 126.13L86.63 126.13Q86.38 126.13 86.13 126.19Q85.88 126.25 85.75 126.25L85.75 126.25Q84.13 126.25 83.38 125.38Q82.63 124.50 82.63 122.88L82.63 122.88L82.63 116.50L81 116.50L81 115.75L82.63 115.13L83.25 112.88L84.25 112.88L84.25 115.25L87.38 115.25L87.38 116.50L84.25 116.50L84.25 122.88Q84.25 123.38 84.38 123.75Q84.50 124.13 84.63 124.38L84.63 124.38Q84.88 124.63 85.19 124.75Q85.50 124.88 85.88 124.88L85.88 124.88ZM89.38 112.38L89.38 112.38Q89.38 112.13 89.44 111.94Q89.50 111.75 89.63 111.63L89.63 111.63Q89.75 111.50 89.94 111.44Q90.13 111.38 90.38 111.38L90.38 111.38Q90.50 111.38 90.69 111.44Q90.88 111.50 91 111.63L91 111.63Q91.13 111.75 91.19 111.94Q91.25 112.13 91.25 112.38L91.25 112.38Q91.25 112.63 91.19 112.88Q91.13 113.13 91 113.25L91 113.25Q90.88 113.38 90.69 113.44Q90.50 113.50 90.38 113.50L90.38 113.50Q90.13 113.50 89.94 113.44Q89.75 113.38 89.63 113.25L89.63 113.25Q89.50 113.13 89.44 112.88Q89.38 112.63 89.38 112.38ZM91.13 115.25L91.13 126L89.50 126L89.50 115.25L91.13 115.25ZM103.88 120.63L103.88 120.63Q103.88 122 103.50 123Q103.13 124 102.50 124.75L102.50 124.75Q101.88 125.50 100.94 125.88Q100 126.25 98.88 126.25L98.88 126.25Q98.13 126.25 97.50 126.06Q96.88 125.88 96.38 125.50L96.38 125.50Q95.75 125.13 95.31 124.69Q94.88 124.25 94.63 123.63L94.63 123.63Q94.25 123 94.13 122.25Q94 121.50 94 120.63L94 120.63Q94 119.38 94.31 118.31Q94.63 117.25 95.25 116.50L95.25 116.50Q96 115.88 96.88 115.50Q97.75 115.13 98.88 115.13L98.88 115.13Q100 115.13 100.94 115.50Q101.88 115.88 102.50 116.63L102.50 116.63Q103.13 117.38 103.50 118.38Q103.88 119.38 103.88 120.63L103.88 120.63ZM95.63 120.63L95.63 120.63Q95.63 121.63 95.88 122.44Q96.13 123.25 96.50 123.75L96.50 123.75Q96.88 124.25 97.50 124.56Q98.13 124.88 98.88 124.88L98.88 124.88Q99.75 124.88 100.31 124.56Q100.88 124.25 101.38 123.75L101.38 123.75Q101.75 123.25 101.94 122.44Q102.13 121.63 102.13 120.63L102.13 120.63Q102.13 119.63 101.94 118.88Q101.75 118.13 101.38 117.50L101.38 117.50Q100.88 117 100.31 116.75Q99.75 116.50 98.88 116.50L98.88 116.50Q98.13 116.50 97.50 116.75Q96.88 117 96.50 117.50L96.50 117.50Q96.13 118 95.88 118.81Q95.63 119.63 95.63 120.63ZM114 126L114 126L114 119.13Q114 118.38 113.88 117.94Q113.75 117.50 113.38 117.13L113.38 117.13Q113.13 116.75 112.63 116.63Q112.13 116.50 111.50 116.50L111.50 116.50Q110.75 116.50 110.13 116.69Q109.50 116.88 109.13 117.38L109.13 117.38Q108.63 117.88 108.44 118.63Q108.25 119.38 108.25 120.38L108.25 120.38L108.25 126L106.63 126L106.63 115.25L108 115.25L108.25 116.75L108.38 116.75Q108.63 116.38 108.94 116.06Q109.25 115.75 109.75 115.50L109.75 115.50Q110.13 115.38 110.63 115.25Q111.13 115.13 111.75 115.13L111.75 115.13Q112.75 115.13 113.44 115.38Q114.13 115.63 114.63 116L114.63 116Q115.13 116.50 115.38 117.25Q115.63 118 115.63 119L115.63 119L115.63 126L114 126Z"/></svg>