<svg xmlns="http://www.w3.org/2000/svg" xmlns:xlink="http://www.w3.org/1999/xlink" width="128" height="128"><path fill="#ffffff" d="M116.13 64.13L116.13 64.13L117.63 64.63L117.75 64.38Q117.13 63.63 116.44 62.88Q115.75 62.13 114.75 62L114.75 62Q113.88 61.88 113.06 61.88Q112.25 61.88 111.50 61.88L111.50 61.88Q111.50 61.50 111.38 61.38Q111.25 61.25 110.75 61.38L110.75 61.38Q110.50 61.50 110.13 61.63Q109.75 61.75 109.38 61.88L109.38 61.88Q108.50 62.25 107.63 62.56Q106.75 62.88 105.88 63.25L105.88 63.25Q105.75 63.25 105.56 63.25Q105.38 63.25 105.13 63.25L105.13 63.25Q105.13 63 105.13 62.88Q105.13 62.75 105.25 62.63L105.25 62.63Q105.38 62 105.56 61.44Q105.75 60.88 105.88 60.25L105.88 60.25Q106 60 106 59.81Q106 59.63 106.13 59.50L106.13 59.50L107.13 60.38Q107.38 58.25 106.94 56.44Q106.50 54.63 105.38 52.88L105.38 52.88L106.88 53Q106.38 51.88 105.63 51Q104.88 50.13 103.88 49.50L103.88 49.50Q102.63 48.75 101.25 48.63Q99.88 48.50 98.38 48.38L98.38 48.38Q98.25 48.38 98 48.38Q97.75 48.38 97.50 48.38L97.50 48.38Q98.50 50.13 98.88 52.63Q99.25 55.13 98.63 56.13L98.63 56.13L98.13 55.25Q97.38 56.63 96.56 57.94Q95.75 59.25 94.88 60.63L94.88 60.63Q94 61.88 92.81 62.94Q91.63 64 90.13 64.63L90.13 64.63L90.38 63.50Q90.13 63.50 90 63.56Q89.88 63.63 89.75 63.63L89.75 63.63Q89.38 63.75 88.94 63.81Q88.50 63.88 88.13 63.88L88.13 63.88Q87.50 63.75 86.81 63.56Q86.13 63.38 85.50 63.13L85.50 63.13Q85 63 84.56 62.88Q84.13 62.75 83.63 62.63L83.63 62.63L83.63 62.63L83.50 62.50Q83 62.13 83 61.69Q83 61.25 83.25 60.75L83.25 60.75Q83.50 60.38 83.63 60Q83.75 59.63 83.88 59.25L83.88 59.25Q84.25 58.50 84.56 57.69Q84.88 56.88 85.13 56L85.13 56Q85.50 55.63 85.81 55.31Q86.13 55 86.38 54.63L86.38 54.63Q86.63 54.13 86.88 53.69Q87.13 53.25 87.38 52.75L87.38 52.75Q87.50 52.38 87.75 52.13Q88 51.88 88.38 51.75L88.38 51.75Q88.50 51.63 88.69 51.44Q88.88 51.25 89 51.13L89 51.13Q89.25 50.75 89.38 50.31Q89.50 49.88 89.63 49.50L89.63 49.50Q89.75 49.25 89.63 49Q89.50 48.75 89.13 48.63L89.13 48.63L88.63 48.50Q88.63 48.38 88.63 48.19Q88.63 48 88.75 47.88L88.75 47.88Q89.75 45.88 90.69 43.75Q91.63 41.63 92.75 39.50L92.75 39.50Q93.75 37.50 94.88 35.38Q96 33.25 97.13 31.13L97.13 31.13Q97.25 30.75 97.56 30.31Q97.88 29.88 98.25 29.50L98.25 29.50Q98.75 29.50 99.25 29.56Q99.75 29.63 100.25 29.63L100.25 29.63Q102.38 29.63 104.38 29Q106.38 28.38 108.13 26.88L108.13 26.88Q109.75 25.13 111 23.13Q112.25 21.13 113 18.88L113 18.88L113.25 18.38L112.75 18.63Q110.63 20.13 108.19 20.88Q105.75 21.63 103.13 21.13L103.13 21.13Q103.13 21.13 103.13 21Q103.13 20.88 103.25 20.88L103.25 20.88Q104.13 19.50 105.13 18.25Q106.13 17 107 15.75L107 15.75Q107.38 15.25 107.75 14.81Q108.13 14.38 108.50 13.88L108.50 13.88Q108.25 13.88 108.06 13.75Q107.88 13.63 107.75 13.63L107.75 13.63Q106.88 13.38 105.94 13.06Q105 12.75 104.13 12.50L104.13 12.50Q103.75 12.38 103.63 12.19Q103.50 12 103.75 11.63L103.75 11.63Q104.13 10.88 104.50 10Q104.88 9.13 105.25 8.38L105.25 8.38L105.75 7.38Q103.50 6.88 101.38 6.88Q99.25 6.88 97 7.13L97 7.13L97 5.38Q95.50 5.50 94.88 5.56Q94.25 5.63 93.50 5.88L93.50 5.88Q92.63 6 91.81 6.25Q91 6.50 90.25 6.75L90.25 6.75L90 6.63L92.63 2.38Q91.63 2.38 90.69 2.50Q89.75 2.63 88.88 2.75L88.88 2.75Q87.13 3.13 85.13 3.44Q83.13 3.75 81.38 4.13L81.38 4.13Q80.63 4.38 79.69 4.56Q78.75 4.75 78 5L78 5L78 3.13Q77.25 3.38 76 3.88Q74.75 4.38 73.50 4.75L73.50 4.75Q73.75 4 74.06 3.31Q74.38 2.63 74.63 2L74.63 2Q74.63 1.88 74.69 1.69Q74.75 1.50 74.75 1.38L74.75 1.38Q74.63 1.38 74.56 1.31Q74.50 1.25 74.50 1.25L74.50 1.25Q73.88 1.38 73.38 1.44Q72.88 1.50 72.25 1.63L72.25 1.63Q69.50 2.13 66.81 3.13Q64.13 4.13 61.63 5.50L61.63 5.50Q61.25 5.63 60.94 5.81Q60.63 6 60.25 6.13L60.25 6.13L60 2.13Q58.50 2.63 57.06 3.44Q55.63 4.25 54.63 5.63L54.63 5.63L53.75 2.50L53.75 2.25L53.75 2.13L53.75 2.25Q53.63 2.38 53.44 2.50Q53.25 2.63 53.13 2.88L53.13 2.88Q52 4.50 51.31 6.38Q50.63 8.25 50.63 10.38L50.63 10.38L49.25 7.50L47.50 16.13L44.38 12.25Q43.63 14.38 43.13 16.56Q42.63 18.75 42.38 21L42.38 21L40.13 18.50Q39.13 21.88 38.25 25.13Q37.38 28.38 37.13 31.88L37.13 31.88Q36.25 31.38 35.75 30.69Q35.25 30 34.88 29.25L34.88 29.25Q34.38 28.13 34.25 26.94Q34.13 25.75 34.13 24.50L34.13 24.50Q34.13 24.38 34.13 24.19Q34.13 24 34.13 23.75L34.13 23.75L33.88 23.75Q32.25 29.38 31.75 35.06Q31.25 40.75 31.50 46.50L31.50 46.50L28.88 41.50L28.63 41.50Q28.50 43 28.38 44.44Q28.25 45.88 28.13 47.38L28.13 47.38Q28.13 48.25 28.06 48.31Q28 48.38 27.13 48.63L27.13 48.63Q24.38 49.38 21.81 50.38Q19.25 51.38 17 53.13L17 53.13Q16.88 53.25 16.69 53.31Q16.50 53.38 16.38 53.50L16.38 53.50L16.63 53.63L19.75 54.88Q18.75 56 17.75 57.06Q16.75 58.13 15.88 59.13L15.88 59.13Q14.88 60.25 14.13 61.50Q13.38 62.75 12.88 64.25L12.88 64.25Q13.38 64 13.81 63.81Q14.25 63.63 14.75 63.50L14.75 63.50Q15.13 63.38 15.56 63.25Q16 63.13 16.38 63L16.38 63Q15.63 63.75 14.94 64.69Q14.25 65.63 13.75 66.63L13.75 66.63Q12 70.13 11.19 73.94Q10.38 77.75 10.25 81.63L10.25 81.63Q10.13 84.25 10.19 86.75Q10.25 89.25 10.63 91.75L10.63 91.75Q10.75 92.25 10.81 92.69Q10.88 93.13 11 93.50L11 93.50L11.25 93.50L12.75 90Q13.25 92.88 13.44 95.69Q13.63 98.50 13.50 101.38L13.50 101.38L13.75 101.50L15.13 99.88Q15.25 100.13 15.31 100.31Q15.38 100.50 15.38 100.63L15.38 100.63Q16 102.50 16.13 104.50Q16.25 106.50 16.13 108.50L16.13 108.50Q16 109.50 16.06 110.50Q16.13 111.50 16.38 112.50L16.38 112.50Q17 115 18.19 117.13Q19.38 119.25 21 121.13L21 121.13Q21.38 121.50 21.81 121.75Q22.25 122 22.63 122.38L22.63 122.38Q22.88 122.50 22.94 122.44Q23 122.38 23 122.13L23 122.13L23 122.13L23 122.13L24.13 122.50L25.75 123L25.88 122.88L24.75 120.63L24.63 120.50L24.75 120.50L24.75 120.63Q24.88 120.63 24.94 120.63Q25 120.63 25 120.63L25 120.63Q25.75 121.50 26.75 121.94Q27.75 122.38 28.75 122.88L28.75 122.88Q29 123.50 29.44 124.06Q29.88 124.63 30.38 125L30.38 125L31.63 124.25Q31.75 124.38 31.88 124.50Q32 124.63 32 124.75L32 124.75Q32.75 125.75 33.75 126.25Q34.75 126.75 36.13 126.75L36.13 126.75Q36.88 126.63 37.69 126.63Q38.50 126.63 39.38 126.63L39.38 126.63Q42.13 126.50 44.88 126.50Q47.63 126.50 50.50 126.38L50.50 126.38Q52.38 126.25 54.31 126.19Q56.25 126.13 58.13 126.13L58.13 126.13Q59.13 126 60 125.94Q60.88 125.88 61.88 125.88L61.88 125.88Q60.50 122 57.69 119.81Q54.88 117.63 51.50 116.13L51.50 116.13L55.25 115.13Q59.50 117.38 63.81 119.31Q68.13 121.25 71.88 124.25L71.88 124.25L72.13 124.13L71.75 119.63Q71.88 119.75 72.13 119.94Q72.38 120.13 72.63 120.25L72.63 120.25Q73.63 121 74.50 121.69Q75.38 122.38 76.25 123L76.25 123L76.50 123.13L76.63 123.25Q78 124.50 79.50 125.25Q81 126 83 126L83 126Q85.63 125.88 88.31 125.94Q91 126 93.63 126L93.63 126Q93.88 126 94.06 125.88Q94.25 125.75 94.38 125.50L94.38 125.50Q95 124.63 95.56 123.63Q96.13 122.63 96.75 121.63L96.75 121.63Q98 119.13 99.31 116.56Q100.63 114 102 111.50L102 111.50L102.50 110.63Q101.88 110.75 101.38 111Q100.88 111.25 100.38 111.50L100.38 111.50Q99.75 111.75 99.19 112.06Q98.63 112.38 98.13 112.63L98.13 112.63L98 112.75L98.13 112.63Q98.13 112.50 98.19 112.31Q98.25 112.13 98.38 111.88L98.38 111.88Q99.50 110 100.69 108Q101.88 106 103.13 104L103.13 104Q104.38 102.13 105.75 100.25Q107.13 98.38 107.88 96.13L107.88 96.13Q108.25 95.13 108.50 94.13Q108.75 93.13 109.13 92L109.13 92L109.13 92L109 92Q108.38 92.50 107.81 92.88Q107.25 93.25 106.75 93.63L106.75 93.63Q106 94 105.25 94.38Q104.50 94.75 103.75 95L103.75 95L103.75 95.13L103.63 95.13L103.75 95L103.88 94.50L104.63 91.50Q104.38 91.50 104.31 91.56Q104.25 91.63 104.13 91.63L104.13 91.63Q102.50 92.50 100.88 93.31Q99.25 94.13 97.63 94.88L97.63 94.88Q95.38 95.88 93.31 97.13Q91.25 98.38 89.25 100L89.25 100Q88.63 100.50 88 101.06Q87.38 101.63 86.75 102.13L86.75 102.13L86.50 102Q85.88 101.38 85.25 100.81Q84.63 100.25 84 99.75L84 99.75Q83.63 99.38 83.19 99Q82.75 98.63 82.38 98.25L82.38 98.25Q83.75 96.50 84.88 94.56Q86 92.63 86.63 90.50L86.63 90.50Q87.13 89.13 87.38 87.69Q87.63 86.25 88 84.88L88 84.88L88.50 84.63Q89.63 84.25 90.75 84Q91.88 83.75 93 83.88L93 83.88Q93.50 83.88 94 84Q94.50 84.13 95 84.25L95 84.25L94.50 83.13L94.50 83L94.50 83L94.50 83.13Q94.63 83.13 94.69 83.13Q94.75 83.13 94.88 83.13L94.88 83.13Q95.75 83.50 96.56 83.94Q97.38 84.38 98.25 84.75L98.25 84.75Q99.75 85.25 101.25 85.50Q102.75 85.75 104.38 85.75L104.38 85.75Q104.50 85.63 104.63 85.63Q104.75 85.63 104.63 85.38L104.63 85.38Q104.75 85.38 104.88 85.38Q105 85.38 105.13 85.50L105.13 85.50Q106.38 85.88 107.56 86.06Q108.75 86.25 109.88 86.13L109.88 86.13Q111 86 111.88 85.44Q112.75 84.88 113.25 83.75L113.25 83.75L113.75 84Q114.13 83.13 113.94 82.31Q113.75 81.50 113.63 80.75L113.63 80.75Q113.63 80.50 113.63 80.38Q113.63 80.25 113.63 80.13L113.63 80.13Q114 79.75 114.31 79.50Q114.63 79.25 115 78.88L115 78.88L115.25 79.50Q115.75 78.75 115.88 77.88Q116 77 116 76L116 76L116.63 76.75L116.88 76.63Q116.75 75.88 116.63 75.19Q116.50 74.50 116.25 73.75L116.25 73.75Q115.88 72.88 115.88 72.13Q115.88 71.38 116.38 70.63L116.38 70.63Q116.75 70.13 116.94 69.50Q117.13 68.88 117.50 68.13L117.50 68.13Q117.50 68.25 117.56 68.38Q117.63 68.50 117.63 68.50L117.63 68.50Q117.63 68.63 117.69 68.63Q117.75 68.63 117.88 68.75L117.88 68.75Q117.88 67.38 117.38 66.31Q116.88 65.25 116.13 64.13L116.13 64.13Z"/></svg>