<svg xmlns="http://www.w3.org/2000/svg" xmlns:xlink="http://www.w3.org/1999/xlink" width="128" height="128"><path fill="#000000" d="M64.63 4L64.63 4Q63.38 3.75 62.13 7.25L62.13 7.25Q60.75 10.75 59.25 16.63Q57.75 22.50 56 30L56 30Q54.25 37.63 52.25 45.50L52.25 45.50Q51.38 48.75 48.13 60.25L48.13 60.25Q44.75 71.88 41.19 84.44Q37.63 97 34.75 107L34.75 107Q31.88 116.88 31.88 116.88L31.88 116.88Q31.88 116.88 38 119.38L38 119.38Q44.13 121.88 53.56 123.25Q63 124.63 74.38 123.13L74.38 123.13Q85.63 121.50 96.13 113.50L96.13 113.50Q93.38 106.13 89.88 93L89.88 93Q86.25 79.88 82.44 65.19Q78.63 50.50 75 36.38L75 36.38Q71.38 22.25 68.63 12.88L68.63 12.88Q67.38 8.88 66.94 7.81Q66.50 6.75 66 5.63L66 5.63Q65.75 4.88 65.38 4.50Q65 4.13 64.63 4L64.63 4ZM59.25 48L59.25 48L62.25 53.88L58.75 61.50L56 53.63L59.25 48ZM77.38 70.38L77.38 70.38L80.38 76.25L76.88 83.75L74.13 75.88L77.38 70.38ZM50.88 91.50L50.88 91.50L53.88 97.38L50.50 105L47.63 97.13L50.88 91.50Z"/></svg>