<svg xmlns="http://www.w3.org/2000/svg" xmlns:xlink="http://www.w3.org/1999/xlink" width="128" height="128"><path fill="#ffffff" d="M114.13 13.88L114 13.88Q114 9 110.50 5.50Q107 2 102.13 2L102.13 2L25.88 2Q21 2 17.50 5.50Q14 9 14 13.88L14 13.88L14 114.25Q14 119.13 17.50 122.63Q21 126.13 25.88 126.13L25.88 126.13L102.25 126.13Q107.13 126.13 110.63 122.63Q114.13 119.13 114.13 114.25L114.13 114.25L114.13 13.88ZM110 14L110 14L110 113.25Q110 116.88 107.69 119.44Q105.38 122 101.75 122L101.75 122L26.50 122Q23 122 20.50 119.44Q18 116.88 18 113.25L18 113.25L18 14Q18 10.50 20.50 8.25Q23 6 26.50 6L26.50 6L101.75 6Q105.25 6 107.69 8.38Q110.13 10.75 110.13 14.25L110.13 14.25L110 14ZM37 80.50L37 108.75L51.13 94.63L37 80.50ZM51 47.75L51 47.75L51 18.38L37.13 18.50Q37.13 18.50 37.13 25.63L37.13 25.63Q37.13 32.88 37.19 41.44Q37.25 50 37.25 57.13L37.25 57.13Q37.25 64.25 37.25 64.25L37.25 64.25Q69.38 51.63 73.19 55.50Q77 59.38 77 59.38L77 59.38L77 108.75L76.88 109L90 109L90 59.50Q90 49.38 83.88 46.25L83.88 46.25Q77.88 43.13 70.56 43.50Q63.25 43.88 57.13 45.88L57.13 45.88Q51 47.75 51 47.75L51 47.75ZM70 36L70 36L84.75 36Q90.75 28.50 93.13 23.75Q95.50 19 95.50 19L95.50 19L80.25 19Q80.25 19 77.13 25.25Q74 31.50 70 36Z"/></svg>