<svg xmlns="http://www.w3.org/2000/svg" xmlns:xlink="http://www.w3.org/1999/xlink" width="128" height="128"><path fill="#000000" d="M35.25 101.75L35.25 101.75Q32.25 101.75 29.81 102.13Q27.38 102.50 25.63 103.25L25.63 103.25Q24.88 105.63 24.56 108.19Q24.25 110.75 24.25 113.63L24.25 113.63Q24.25 118.88 25.88 121.88Q27.50 124.88 33.50 124.88L33.50 124.88Q36.25 124.88 38.56 124.19Q40.88 123.50 42.75 122.63L42.75 122.63L42 119Q40.25 119.63 38.06 120.19Q35.88 120.75 33.75 120.75L33.75 120.75Q31.13 120.75 30.13 119.50Q29.13 118.25 29 113.75L29 113.75L44 113.75L44 111.63Q44 107 42.06 104.38Q40.13 101.75 35.25 101.75L35.25 101.75ZM29 111L29 111Q29.13 108.75 29.25 107.88Q29.38 107 29.50 106.25L29.50 106.25Q30.88 106 32.44 105.94Q34 105.88 35.13 105.88L35.13 105.88Q37.63 105.88 38.31 107.31Q39 108.75 39 111L39 111L29 111ZM13.88 101.75L13.88 101.75Q11.88 101.75 10.06 102.25Q8.25 102.75 6 103.25L6 103.25L6 93L2 93L2 124L6 124L6 107.38Q8.25 106.63 9.88 106.25Q11.50 105.88 13 105.88L13 105.88Q13.75 105.88 14.38 106.31Q15 106.75 15 107.63L15 107.63L15 124.50L15.38 124.13L20 124.13L20 108.25Q20 105.50 18.56 103.63Q17.13 101.75 13.88 101.75ZM126 102L122 102L122 119.38Q119.75 120.13 117.81 120.50Q115.88 120.88 114.25 120.88L114.25 120.88Q113.50 120.88 112.75 120.50Q112 120.13 112 119.25L112 119.25L112 102L108 102L108 118.75Q108 121.50 109.19 123.25Q110.38 125 113.63 125L113.63 125Q115.63 125 118.94 124.44Q122.25 123.88 126 121.50L126 121.50L126 102ZM103.75 102L103.75 102L98.38 102Q97.38 104.25 96 106.88Q94.63 109.50 92.75 111L92.75 111L91 111L91 93L86 93L86 124L91 124L91 114L93.13 114Q95.25 116.25 96.63 119Q98 121.75 99.13 124L99.13 124L104.75 124Q103.13 121 101.25 117.81Q99.38 114.63 97 111.63L97 111.63Q99 109.63 100.75 107.31Q102.50 105 103.75 102L103.75 102ZM48 105.25L48 124L52 124L52 107.38Q53.50 106.75 55.50 106.50Q57.50 106.25 59 106.25L59 106.25L59 102.25Q56.75 102.38 53.88 103Q51 103.63 48 105.25L48 105.25ZM71.38 101.75L71.38 101.75Q66.88 101.75 64 104.44Q61.13 107.13 61.13 113.50L61.13 113.50Q61.13 119.50 63.63 122.25Q66.13 125 71.38 125L71.38 125Q76 125 78.88 122.31Q81.75 119.63 81.75 113.25L81.75 113.25Q81.75 107.25 79.25 104.50Q76.75 101.75 71.38 101.75ZM71.38 121L71.38 121Q68.38 121 67.06 119.56Q65.75 118.13 65.75 113.50L65.75 113.50Q65.75 109.25 67.19 107.50Q68.63 105.75 71.38 105.75L71.38 105.75Q74.38 105.75 75.75 107.25Q77.13 108.75 77.13 113.25L77.13 113.25Q77 117.50 75.56 119.25Q74.13 121 71.38 121ZM99 80.75L99 10.25Q99 6.88 96.56 4.44Q94.13 2 90.75 2L90.75 2L37.25 2Q33.88 2 31.44 4.44Q29 6.88 29 10.25L29 10.25L29 80.75Q29 84.13 31.44 86.56Q33.88 89 37.25 89L37.25 89L90.75 89Q94.13 89 96.56 86.56Q99 84.13 99 80.75L99 80.75ZM32 10.75L32 10.75Q32 8.38 33.63 6.69Q35.25 5 37.75 5L37.75 5L90.25 5Q92.63 5 94.31 6.69Q96 8.38 96 10.75L96 10.75L96 80.25Q96 82.63 94.38 84.38Q92.75 86.13 90.25 86.13L90.25 86.13L37.75 86.13Q35.25 86.13 33.63 84.38Q32 82.63 32 80.25L32 80.25L32 10.75ZM85.88 14L85.88 14L75.25 14Q75.25 14 73.06 18.50Q70.88 23 68.13 26L68.13 26L78.50 26Q82.75 20.75 84.31 17.38Q85.88 14 85.88 14L85.88 14ZM45 57.25L45 76.88L54.75 67L45 57.25ZM73 42.38L73 42.38L73 76.88L72.88 77L82 77L82 42.50Q82 35.38 77.75 33.25L77.75 33.25Q73.63 31.13 68.56 31.31Q63.50 31.50 59.25 32.88L59.25 32.88Q55 34.25 55 34.25L55 34.25L55 13.75L45.25 13.88Q45.25 13.88 45.25 18.88L45.25 18.88Q45.25 23.88 45.25 29.88Q45.25 35.88 45.25 40.88L45.25 40.88Q45.25 45.88 45.25 45.75L45.25 45.75Q67.75 37.13 70.38 39.75Q73 42.38 73 42.38Z"/></svg>