<svg xmlns="http://www.w3.org/2000/svg" xmlns:xlink="http://www.w3.org/1999/xlink" width="128" height="128"><path fill="#000000" d="M102.13 2L102.13 2L25.88 2Q21 2 17.50 5.50Q14 9 14 13.88L14 13.88L14 114.25Q14 119.13 17.50 122.63Q21 126.13 25.88 126.13L25.88 126.13L102.25 126.13Q107.13 126.13 110.63 122.63Q114.13 119.13 114.13 114.25L114.13 114.25L114.13 13.88Q114 9 110.50 5.50Q107 2 102.13 2ZM37 108.75L37 108.75L37 80.50L51.13 94.63L37 108.75ZM90 59.50L90 109L76.88 109L77 108.75L77 59.38Q77 59.38 73.19 55.56Q69.38 51.75 37.25 64.25L37.25 64.25Q37.25 64.25 37.25 57.13L37.25 57.13Q37.25 50 37.19 41.44Q37.13 32.88 37.13 25.63L37.13 25.63Q37.13 18.50 37.13 18.50L37.13 18.50L51 18.38L51 47.75Q51 47.75 57.13 45.88L57.13 45.88Q63.13 43.88 70.44 43.50Q77.75 43.13 83.88 46.25L83.88 46.25Q90 49.38 90 59.50L90 59.50ZM84.75 36L84.75 36L70 36Q74 31.50 77.13 25.25Q80.25 19 80.25 19L80.25 19L95.50 19Q95.50 19 93.19 23.75Q90.88 28.50 84.75 36Z"/></svg>