<svg xmlns="http://www.w3.org/2000/svg" xmlns:xlink="http://www.w3.org/1999/xlink" width="128" height="128"><path fill="#000000" d="M39.25 89L39.25 89L92.63 89Q96 89 98.44 86.56Q100.88 84.13 100.88 80.75L100.88 80.75L100.88 10.25Q100.88 6.88 98.44 4.44Q96 2 92.63 2L92.63 2L39.25 2Q35.88 2 33.44 4.44Q31 6.88 31 10.25L31 10.25L31 80.63Q31 84.13 33.44 86.56Q35.88 89 39.25 89ZM77.50 14L77.50 14L88.25 14Q88.25 14 86.69 17.38Q85.13 20.75 80.75 26L80.75 26L70.38 26Q73.13 23 75.31 18.50Q77.50 14 77.50 14L77.50 14ZM47.13 13.63L57 13.63L57 34.25Q57 34.25 61.25 32.88L61.25 32.88Q65.38 31.50 70.44 31.25Q75.50 31 79.75 33.25L79.75 33.25Q84 35.38 84 42.50L84 42.50L84 77L75.25 77L75 77.13L75 42.25Q75 42.25 72.38 39.56Q69.75 36.88 47.25 45.75L47.25 45.75Q47.13 45.75 47.13 40.75L47.13 40.75Q47.13 35.75 47.13 29.69Q47.13 23.63 47.13 18.63L47.13 18.63Q47.13 13.63 47.13 13.63L47.13 13.63ZM47 57.25L47 57.25L56.88 67.13L47 77L47 57.25ZM35.25 102.75L35.25 102.75Q32.25 102.75 29.81 103.13Q27.38 103.50 25.63 104.25L25.63 104.25Q24.88 106.63 24.56 109.19Q24.25 111.75 24.25 114.63L24.25 114.63Q24.25 119.88 25.88 122.88Q27.50 125.88 33.50 125.88L33.50 125.88Q36.25 125.88 38.56 125.19Q40.88 124.50 42.75 123.63L42.75 123.63L42 120Q40.25 120.63 38.06 121.19Q35.88 121.75 33.75 121.75L33.75 121.75Q31.13 121.75 30.13 120.50Q29.13 119.25 29 114.75L29 114.75L44 114.75L44 112.63Q44 108 42.06 105.38Q40.13 102.75 35.25 102.75L35.25 102.75ZM29 112L29 112Q29.13 109.75 29.25 108.88Q29.38 108 29.50 107.25L29.50 107.25Q30.88 107 32.44 106.94Q34 106.88 35.13 106.88L35.13 106.88Q37.63 106.88 38.31 108.31Q39 109.75 39 112L39 112L29 112ZM13.88 102.75L13.88 102.75Q11.88 102.75 10.06 103.25Q8.25 103.75 6 104.25L6 104.25L6 94L2 94L2 125L6 125L6 108.38Q8.25 107.63 9.88 107.25Q11.50 106.88 13 106.88L13 106.88Q13.75 106.88 14.38 107.31Q15 107.75 15 108.63L15 108.63L15 125.50L15.38 125.13L20 125.13L20 109.25Q20 106.50 18.56 104.63Q17.13 102.75 13.88 102.75ZM126 103L122 103L122 120.38Q119.75 121.13 117.81 121.50Q115.88 121.88 114.25 121.88L114.25 121.88Q113.50 121.88 112.75 121.50Q112 121.13 112 120.25L112 120.25L112 103L108 103L108 119.75Q108 122.50 109.19 124.25Q110.38 126 113.63 126L113.63 126Q115.63 126 118.94 125.44Q122.25 124.88 126 122.50L126 122.50L126 103ZM103.75 103L103.75 103L98.38 103Q97.38 105.25 96 107.88Q94.63 110.50 92.75 112L92.75 112L91 112L91 94L86 94L86 125L91 125L91 115L93.13 115Q95.25 117.25 96.63 120Q98 122.75 99.13 125L99.13 125L104.75 125Q103.13 122 101.25 118.81Q99.38 115.63 97 112.63L97 112.63Q99 110.63 100.75 108.31Q102.50 106 103.75 103L103.75 103ZM48 106.25L48 125L52 125L52 108.38Q53.50 107.75 55.50 107.50Q57.50 107.25 59 107.25L59 107.25L59 103.25Q56.75 103.38 53.88 104Q51 104.63 48 106.25L48 106.25ZM71.38 102.75L71.38 102.75Q66.88 102.75 64 105.44Q61.13 108.13 61.13 114.50L61.13 114.50Q61.13 120.50 63.63 123.25Q66.13 126 71.38 126L71.38 126Q76 126 78.88 123.31Q81.75 120.63 81.75 114.25L81.75 114.25Q81.75 108.25 79.25 105.50Q76.75 102.75 71.38 102.75ZM71.38 122L71.38 122Q68.38 122 67.06 120.56Q65.75 119.13 65.75 114.50L65.75 114.50Q65.75 110.25 67.19 108.50Q68.63 106.75 71.38 106.75L71.38 106.75Q74.38 106.75 75.75 108.25Q77.13 109.75 77.13 114.25L77.13 114.25Q77 118.50 75.56 120.25Q74.13 122 71.38 122Z"/></svg>