<svg xmlns="http://www.w3.org/2000/svg" xmlns:xlink="http://www.w3.org/1999/xlink" width="128" height="128"><path fill="#ffffff" d="M19.63 27L19.63 27L27.63 116.88L64 126.63L100.38 117.13L108.38 27L19.63 27ZM91.63 47.50L91.63 47.50L91.13 53.25L90.88 56L48.25 56L49.38 68L89.88 68L89.63 70.25L87 99.13L86.75 100.88L64 107L41.25 101L39.63 84L50.88 84L51.63 92.50L64 95.63L64 95.38L64 95.38L76.38 92.75L77.75 79L39.13 79L36.38 48.13L36.13 45L91.88 45L91.63 47.50ZM28 18.50L28 1.63L33.63 1.63L33.63 7.13L38.75 7.13L38.75 1.63L44.38 1.63L44.38 18.50L38.75 18.50L38.75 12.88L33.63 12.88L33.63 18.50L28 18.50ZM51.75 18.50L51.75 7.25L46.75 7.25L46.75 1.63L62.38 1.63L62.38 7.25L57.38 7.25L57.38 18.50L51.75 18.50ZM64.75 1.63L64.75 1.63L70.63 1.63L74.25 7.50L77.88 1.63L83.75 1.63L83.75 18.50L78.13 18.50L78.13 10.13L74.25 16.13L74.13 16.13L70.25 10.13L70.25 18.50L64.75 18.50L64.75 1.63ZM86.50 1.63L86.50 1.63L92.13 1.63L92.13 12.88L100 12.88L100 18.50L86.50 18.50L86.50 1.63Z"/></svg>