<svg xmlns="http://www.w3.org/2000/svg" xmlns:xlink="http://www.w3.org/1999/xlink" width="128" height="128"><path fill="#ffffff" d="M42.50 64.25L38.50 77.63L30.25 64.25L38.50 50.75L42.50 64.25ZM34.50 79.75L20 76.25L9.50 66.38L26.25 66.38L34.50 79.75ZM9.50 62L20 52L34.50 48.63L26.13 62L9.50 62ZM46.38 59.63L41.25 42L22.38 46.75L19.50 51.38L13.88 51.25L0 64.25L13.88 77.13L19.50 77.13L22.38 81.63L41.25 86.38L46.38 68.75L43.50 64.25L46.38 59.63ZM84.13 55L84.13 55Q82.25 55 80.94 55.75Q79.63 56.50 78.63 58L78.63 58L78.63 58L78.63 55.50L74.13 55.50L74.13 73.25L78.63 73.25L78.63 63.25Q78.63 61.38 79.69 60.25Q80.75 59.13 82.38 59.13L82.38 59.13Q84 59.13 85 60Q86 60.88 86 62.38L86 62.38L86 73.25L90.50 73.25L90.50 61.75Q90.63 58.75 88.81 56.88Q87 55 84.13 55L84.13 55ZM67.38 65.75L67.25 65.75Q67.25 67.50 66.25 68.63Q65.25 69.75 63.63 69.75L63.63 69.75Q62 69.75 61.06 68.94Q60.13 68.13 60.13 66.63L60.13 66.63L60.13 55.50L55.63 55.50L55.63 67.38Q55.63 70.25 57.31 72Q59 73.75 62.13 73.75L62.13 73.75Q64 73.75 65.25 73.13Q66.50 72.50 67.38 71.25L67.38 71.25L67.50 71.25L67.50 73.25L71.88 73.25L71.88 55.50L67.38 55.50L67.38 65.75ZM93 73.25L93 55.50L97.50 55.50L97.50 73.25L93 73.25ZM93 53.63L93 50L97.50 50L97.50 53.63L93 53.63ZM123.13 55.63L123.13 55.50L120.50 63.50Q120 64.75 119.69 66.06Q119.38 67.38 119.38 67.38L119.38 67.38L119.25 67.38L118 63.50L115 55.50L110.13 55.50L115.13 68.13Q116 70.13 116.31 71.19Q116.63 72.25 116.63 73L116.63 73Q116.63 74.13 115.94 74.75Q115.25 75.38 113.88 75.38L113.88 75.38L112.13 75.38L112.13 79.13L115 79.13Q117.75 79.13 119.06 77.94Q120.38 76.75 121.50 73.75L121.50 73.75L128 55.63L123.13 55.63ZM106 68.13L106 68.13L106 58.63L108.88 58.63L108.88 55.63L106 55.63L106 50L101.38 50L101.38 55.50L98.88 55.50L98.88 58.63L101.38 58.63L101.38 69Q101.38 71.63 103 72.44Q104.63 73.25 106.50 73.25L106.50 73.25L108.88 73.25L108.88 69.75L107.75 69.75Q107 69.88 106.50 69.44Q106 69 106 68.13L106 68.13Z"/></svg>