<svg xmlns="http://www.w3.org/2000/svg" xmlns:xlink="http://www.w3.org/1999/xlink" width="128" height="128"><path fill="#000000" d="M13.88 100.13L13.88 100.13Q13 99.25 11.75 98.88Q10.50 98.50 8.63 98.50L8.63 98.50Q7.13 98.50 5.94 98.56Q4.75 98.63 4 98.88L4 98.88L4 118L6 118L6 110.13Q6.75 110.25 7.13 110.25Q7.50 110.25 8.13 110.25L8.13 110.25Q9.88 110.25 11.44 109.75Q13 109.25 14 108.25L14 108.25Q14.75 107.50 15.13 106.44Q15.50 105.38 15.50 104.13L15.50 104.13Q15.50 102.75 15.06 101.75Q14.63 100.75 13.88 100.13L13.88 100.13ZM8.13 108.25L8.13 108.25Q7.50 108.25 7.13 108.25Q6.75 108.25 6 108.13L6 108.13L6 100.63Q6.75 100.50 7.19 100.44Q7.63 100.38 8.38 100.38L8.38 100.38Q10.50 100.38 11.75 101.31Q13 102.25 13 104.25L13 104.25Q13 106.25 11.69 107.25Q10.38 108.25 8.13 108.25L8.13 108.25ZM25.38 103.75L25.38 103.75Q24.63 103.75 24.06 103.88Q23.50 104 22.88 104.38L22.88 104.38Q22.38 104.63 21.94 104.94Q21.50 105.25 21.25 106L21.25 106L21 106L21 98L19 98L19 118L21 118L21 109.50Q21 109.13 21.06 108.88Q21.13 108.63 21.25 108.25L21.25 108.25Q21.63 107.25 22.56 106.50Q23.50 105.75 24.75 105.75L24.75 105.75Q26.50 105.75 27.25 107Q28 108.25 28 109.88L28 109.88L28 118L30 118L30 109.63Q30 106 28.38 104.88Q26.75 103.75 25.38 103.75L25.38 103.75ZM41.63 103.50L41.63 103.50Q40 103.50 38.75 104.38Q37.50 105.25 36.75 106L36.75 106L36.75 106L36.63 104L34.38 104Q34.38 104.75 34.19 106Q34 107.25 34 108.50L34 108.50L34 123L37 123L37 116L37 116Q37.63 116.75 38.75 117.44Q39.88 118.13 41.25 118.13L41.25 118.13Q43.75 118.13 45.63 116.25Q47.50 114.38 47.50 110.63L47.50 110.63Q47.50 107.50 45.81 105.50Q44.13 103.50 41.63 103.50L41.63 103.50ZM40.88 116.13L40.88 116.13Q39.50 116.13 38.44 115.31Q37.38 114.50 37.13 113.25L37.13 113.25Q37 113 37 112.75Q37 112.50 37 112.25L37 112.25Q37 112.25 37 112.25Q37 112.25 37 112.25L37 112.25L37 109.88Q37 109.63 37.06 109.31Q37.13 109 37.13 108.88L37.13 108.88Q37.50 107.38 38.56 106.56Q39.63 105.75 40.88 105.75L40.88 105.75Q42.88 105.75 43.94 107.25Q45 108.75 45 110.88L45 110.88Q45 113.25 43.88 114.69Q42.75 116.13 40.88 116.13L40.88 116.13ZM58 106.38L58 106.38Q56.13 105.75 55.25 105.19Q54.38 104.63 54.38 103.75L54.38 103.75Q54.38 103 55.06 102.44Q55.75 101.88 57.25 101.88L57.25 101.88Q57.25 101.88 57.25 101.88Q57.25 101.88 57.25 101.88L57.25 101.88Q58.38 101.88 59.38 102.13Q60.38 102.38 61.25 102.75L61.25 102.75L62.25 99.25Q61.38 98.88 60.13 98.56Q58.88 98.25 57.25 98.25L57.25 98.25Q53.88 98.25 51.94 99.94Q50 101.63 50 104.13L50 104.13Q50 106.13 51.44 107.50Q52.88 108.88 55.25 109.75L55.25 109.75Q57 110.38 57.75 111Q58.50 111.63 58.50 112.50L58.50 112.50Q58.50 113.38 57.75 113.94Q57 114.50 55.50 114.50L55.50 114.50Q54.13 114.50 52.81 114.13Q51.50 113.75 50.63 113.38L50.63 113.38L49.75 117Q50.50 117.38 52 117.75Q53.50 118.13 55.25 118.13L55.25 118.13Q59.13 118.13 61.06 116.38Q63 114.63 63 112.13L63 112.13Q63 110.13 61.75 108.75Q60.50 107.38 58 106.38L58 106.38ZM70 99.88L70 99.88L66 100.88L66 104L64 104L64 107L66 107L66 112.75Q66 114.25 66.38 115.25Q66.75 116.25 67.25 116.88L67.25 116.88Q67.88 117.50 68.69 117.81Q69.50 118.13 70.63 118.13L70.63 118.13Q71.50 118.13 72.25 118Q73 117.88 73.50 117.75L73.50 117.75L73.50 114.50Q73.25 114.50 72.81 114.56Q72.38 114.63 71.88 114.63L71.88 114.63Q71 114.63 70.50 114Q70 113.38 70 112.13L70 112.13L70 107L74 107L74 104L70 104L70 99.88ZM82.63 103.63L82.63 103.63Q79.25 103.63 77.19 105.63Q75.13 107.63 75.13 111L75.13 111Q75.13 114.38 77.19 116.25Q79.25 118.13 82.38 118.13L82.38 118.13Q85.13 118.13 87.44 116.31Q89.75 114.50 89.75 110.75L89.75 110.75Q89.75 107.50 87.75 105.56Q85.75 103.63 82.63 103.63ZM82.50 115L82.50 115Q81.13 115 80.38 113.81Q79.63 112.63 79.63 110.88L79.63 110.88Q79.63 109.25 80.25 107.94Q80.88 106.63 82.50 106.63L82.50 106.63Q84 106.63 84.63 107.94Q85.25 109.25 85.25 110.88L85.25 110.88Q85.25 112.75 84.50 113.88Q83.75 115 82.50 115L82.50 115ZM96.25 106L96.25 106L96.13 106L96 104L92.25 104Q92.38 104.75 92.19 105.88Q92 107 92 108.50L92 108.50L92 118L97 118L97 110.75Q97 110.50 96.94 110.25Q96.88 110 97 109.75L97 109.75Q97.13 108.75 97.88 108.19Q98.63 107.63 99.88 107.63L99.88 107.63Q100.25 107.63 100.63 107.63Q101 107.63 101 107.75L101 107.75L101 103.63Q101 103.63 100.69 103.50Q100.38 103.38 100 103.38L100 103.38Q99 103.38 97.88 103.94Q96.75 104.50 96.25 106L96.25 106ZM119.50 103.63L119.50 103.63Q118.63 103.63 118.06 103.81Q117.50 104 116.88 104.25L116.88 104.25Q116.38 104.63 115.94 104.94Q115.50 105.25 115.13 106L115.13 106L115.13 106Q114.63 104.50 113.63 104.13Q112.63 103.75 111.25 103.75L111.25 103.75Q109.50 103.75 108.50 104.50Q107.50 105.25 107 106L107 106L107 106L106.75 104L103.13 104Q103.13 104.75 103.06 105.88Q103 107 103 108.38L103 108.38L103 118L107 118L107 109.75Q107 109.50 107.13 109.19Q107.25 108.88 107.38 108.63L107.38 108.63Q107.63 108.13 108.25 107.56Q108.88 107 109.75 107L109.75 107Q110.75 107 111.38 107.88Q112 108.75 112 110L112 110L112 118L116 118L116 109.63Q116 109.38 116 109.06Q116 108.75 116.13 108.63L116.13 108.63Q116.38 108 116.81 107.50Q117.25 107 118 107L118 107Q119.13 107 119.56 107.88Q120 108.75 120 110.25L120 110.25L120 118L124 118L124 109.63Q124 106.50 122.75 105.06Q121.50 103.63 119.50 103.63L119.50 103.63ZM34 65L34 65L34 56.88Q34 55.50 33.50 54.81Q33 54.13 32 54.13L32 54.13Q31.13 54.13 30.56 54.81Q30 55.50 30 56.88L30 56.88L30 65Q30 66.25 30.56 66.94Q31.13 67.63 32 67.63L32 67.63Q33 67.63 33.50 66.94Q34 66.25 34 65L34 65ZM78.50 77.50L78.50 77.50Q79 76.88 79.50 76.38Q80 75.88 80.50 75.38L80.50 75.38Q81.38 74.38 82.25 73.31Q83.13 72.25 84.63 70.38L84.63 70.38Q86 68.38 86.81 66.69Q87.63 65 87.50 62.63L87.50 62.63Q87.38 61.38 87.19 60.38Q87 59.38 86.25 58.38L86.25 58.38Q85.75 57.75 84.88 56.88Q84 56 83 55.13L83 55.13Q82 54.13 81 53.06Q80 52 78.75 50.75L78.75 50.75Q77.50 49.50 76.19 47.06Q74.88 44.63 74.88 44.63L74.88 44.63Q74.38 43.38 73.50 40.81Q72.63 38.25 72.63 35.88L72.63 35.88L72.63 34Q72.63 34 72.63 34Q72.63 34 72.63 34L72.63 34L48 34L48 51.13Q48.75 49.88 50.19 49.44Q51.63 49 52.88 49L52.88 49Q54.88 49 56.44 50.19Q58 51.38 58 54L58 54L58 72L52 72L52 56.25Q52 55.13 51.44 54.63Q50.88 54.13 50 54.13L50 54.13Q49.13 54.13 48.56 54.69Q48 55.25 48 56.25L48 56.25L48 72L42 72L42 34L19 34L19 84L24 84L24 50L30 50L30 52.25Q30.75 50.50 32.13 49.75Q33.50 49 34.88 49L34.88 49Q37.25 49 38.63 50.81Q40 52.63 40 56L40 56L40 66.25Q40 69.13 38.38 70.88Q36.75 72.63 34.50 72.63L34.50 72.63Q33.25 72.63 32.38 72Q31.50 71.38 30 70L30 70L30 84L60 84L60 50L66 50L66 52.25Q66.75 50.50 68.13 49.75Q69.50 49 70.75 49L70.75 49Q73.25 49 74.63 50.81Q76 52.63 76 56L76 56L76 66.25Q76 69.13 74.38 70.88Q72.75 72.63 70.50 72.63L70.50 72.63Q69.25 72.63 68.38 72Q67.50 71.38 66 70L66 70L66 84L72.75 84L74.75 81.88Q75.38 81.13 76.13 80.19Q76.88 79.25 77.88 78.25L77.88 78.25L78.50 77.50ZM70 65L70 65L70 56.88Q70 55.50 69.50 54.81Q69 54.13 68 54.13L68 54.13Q67 54.13 66.50 54.81Q66 55.50 66 56.88L66 56.88L66 65Q66 66.25 66.50 66.94Q67 67.63 68 67.63L68 67.63Q68.88 67.63 69.44 66.94Q70 66.25 70 65L70 65ZM78.38 44.13L78.38 44.13Q78.63 44.75 79.44 46Q80.25 47.25 80.88 48L80.88 48L80.75 48Q81 48 81.13 48.25Q81.25 48.50 81.25 48.50L81.25 48.50Q83 50.63 85.31 52.69Q87.63 54.75 88.75 56.25L88.75 56.25Q90.25 58 90.50 59.56Q90.75 61.13 90.88 62.38L90.88 62.38Q91 65.75 89.88 68Q88.75 70.25 87.25 72.25L87.25 72.25Q85.13 75.38 83.94 76.56Q82.75 77.75 81 79.75L81 79.75Q79.88 81 79 82.13Q78.13 83.25 77.38 84L77.38 84L100.13 84Q101.13 82.50 102.44 80.44Q103.75 78.38 104.88 76.25L104.88 76.25Q106.50 73.38 107.56 70.63Q108.63 67.88 108.75 62.63L108.75 62.63L108.75 60.38Q108.75 57.88 107.50 54.94Q106.25 52 106.25 52L106.25 52Q106 51.38 105.25 50.06Q104.50 48.75 103.88 48L103.88 48L103.88 48Q103.63 48 103.56 47.81Q103.50 47.63 103.50 47.63L103.50 47.63Q101.63 45.50 99.38 43.44Q97.13 41.38 95.88 39.88L95.88 39.88Q94.50 38.25 94.25 36.69Q94 35.13 93.88 33.88L93.88 33.88Q93.63 30.50 94.75 28.25Q95.88 26 97.38 24L97.38 24Q99.63 20.88 100.81 19.63Q102 18.38 103.75 16.38L103.75 16.38Q104.75 15.13 105.69 14.31Q106.63 13.50 107.38 12L107.38 12L85.25 12Q84.25 13.50 82.56 15.63Q80.88 17.75 79.75 19.88L79.75 19.88Q78.25 22.75 77.13 25.56Q76 28.38 75.88 33.63L75.88 33.63L76 35.88Q76 38.38 77.19 41.25Q78.38 44.13 78.38 44.13L78.38 44.13Z"/></svg>