<svg xmlns="http://www.w3.org/2000/svg" xmlns:xlink="http://www.w3.org/1999/xlink" width="128" height="128"><path fill="#000000" d="M72 82.38L72 82.38L72 71.13Q72 69.25 71.38 68.31Q70.75 67.38 69.50 67.38L69.50 67.38Q68.25 67.38 67.63 68.31Q67 69.25 67 71.13L67 71.13L67 82.38Q67 84.25 67.63 85.19Q68.25 86.13 69.50 86.13L69.50 86.13Q70.75 86.13 71.38 85.19Q72 84.25 72 82.38ZM84.13 100L84.13 100Q85 99 85.63 98.31Q86.25 97.63 86.88 96.88L86.88 96.88Q88.13 95.50 89.44 94.06Q90.75 92.63 92.75 89.88L92.75 89.88Q94.63 87.25 95.75 84.94Q96.88 82.63 96.75 79.13L96.75 79.13Q96.63 77.38 96.38 76.06Q96.13 74.75 95 73.25L95 73.25Q94.25 72.38 93.06 71.19Q91.88 70 90.50 68.75L90.50 68.75Q89 67.38 87.63 65.94Q86.25 64.50 84.50 62.63L84.50 62.63Q82.75 60.88 81 57.50Q79.25 54.13 79.25 54.13L79.25 54.13Q78.38 52.25 77.19 48.75Q76 45.25 76 42L76 42L76 39.13Q76 39.13 76 39.06Q76 39 76 39L76 39L42 39L42 63.13Q43.50 61.50 45.25 60.81Q47 60.13 48.75 60.13L48.75 60.13Q51.63 60.13 53.81 61.81Q56 63.50 56 67.25L56 67.25L56 92L47 92L47 70.25Q47 68.75 46.38 68.06Q45.75 67.38 44.50 67.38L44.50 67.38Q43.25 67.38 42.63 68.13Q42 68.88 42 70.25L42 70.25L42 92L33 92L33 39L2 39L2 109L8 109L8 61L16 61L16 64.75Q17.50 62.38 19.44 61.25Q21.38 60.13 23.25 60.13L23.25 60.13Q26.63 60.13 28.81 62.69Q31 65.25 31 70L31 70L31 84.25Q31 88.25 28.69 90.69Q26.38 93.13 23.25 93.13L23.25 93.13Q21.50 93.13 20 92.25Q18.50 91.38 17 89.50L17 89.50L17 109L58 109L58 61L66 61L66 64.75Q67.50 62.38 69.44 61.25Q71.38 60.13 73.25 60.13L73.25 60.13Q76.63 60.13 78.81 62.69Q81 65.25 81 70L81 70L81 84.25Q81 88.25 78.69 90.69Q76.38 93.13 73.25 93.13L73.25 93.13Q71.50 93.13 70 92.25Q68.50 91.38 67 89.50L67 89.50L67 109L76.25 109L79 106.13Q79.88 105 80.94 103.69Q82 102.38 83.25 101L83.25 101L84.13 100ZM22 82.38L22 82.38L22 71.13Q22 69.25 21.38 68.31Q20.75 67.38 19.50 67.38L19.50 67.38Q18.25 67.38 17.63 68.31Q17 69.25 17 71.13L17 71.13L17 82.38Q17 84.25 17.63 85.19Q18.25 86.13 19.50 86.13L19.50 86.13Q20.75 86.13 21.38 85.19Q22 84.25 22 82.38ZM126.25 76L126.25 76Q126.25 72.50 124.63 68.50Q123 64.50 123 64.50L123 64.50Q122.63 63.50 121.50 62Q120.38 60.50 119.50 59L119.50 59L119.63 59Q119.38 59 119.19 58.69Q119 58.38 119 58.38L119 58.38Q116.50 55.50 113.31 52.56Q110.13 49.63 108.38 47.63L108.38 47.63Q106.50 45.25 106.13 43.06Q105.75 40.88 105.63 39.13L105.63 39.13Q105.38 34.38 106.94 31.25Q108.50 28.13 110.50 25.25L110.50 25.25Q113.63 21.13 115.31 19.44Q117 17.75 119.38 15L119.38 15Q120.88 13.25 122.13 11.75Q123.38 10.25 124.38 9L124.38 9L93.63 9Q92.25 10.75 89.88 13.81Q87.50 16.88 86 19.88L86 19.88Q83.88 23.75 82.31 27.63Q80.75 31.50 80.63 38.88L80.63 38.88L80.75 42Q80.75 45.50 82.38 49.50Q84 53.50 84 53.50L84 53.50Q84.38 54.50 85.50 56Q86.63 57.50 87.50 59L87.50 59L87.38 59Q87.75 59 87.88 59.31Q88 59.63 88 59.63L88 59.63Q90.50 62.50 93.69 65.44Q96.88 68.38 98.63 70.38L98.63 70.38Q100.50 72.75 100.88 74.94Q101.25 77.13 101.38 78.88L101.38 78.88Q101.63 83.63 100.06 86.75Q98.50 89.88 96.50 92.75L96.50 92.75Q93.38 96.88 91.75 98.56Q90.13 100.25 87.63 103L87.63 103Q86.13 104.75 84.88 106.25Q83.63 107.75 82.63 109L82.63 109L114.38 109Q115.75 107.25 117.63 104.19Q119.50 101.13 121 98.13L121 98.13Q123.13 94.25 124.69 90.38Q126.25 86.50 126.38 79.13L126.38 79.13L126.25 76Z"/></svg>