<svg xmlns="http://www.w3.org/2000/svg" xmlns:xlink="http://www.w3.org/1999/xlink" width="128" height="128"><path fill="#ffffff" d="M109.75 24.63L109.75 24.63Q106.63 23 103.56 21.50Q100.50 20 97.38 18.50L97.38 18.50Q91.25 15.63 85.31 12.56Q79.38 9.50 73.38 6.63L73.38 6.63Q71.38 5.75 69.44 4.75Q67.50 3.75 65.50 2.75L65.50 2.75Q64.88 2.38 64.31 2.38Q63.75 2.38 63 2.75L63 2.75Q60.50 4 57.94 5.25Q55.38 6.50 52.88 7.75L52.88 7.75Q46.88 10.63 40.75 13.69Q34.63 16.75 28.63 19.63L28.63 19.63Q26 20.88 23.50 22.19Q21 23.50 18 24.75L18 24.75L18 78Q18.75 78 18.63 78Q18.50 78 18.63 78.13L18.63 78.13Q20.50 79 22.50 79.94Q24.50 80.88 26.38 81.88L26.38 81.88Q28.25 82.88 30.25 83.81Q32.25 84.75 34.25 85.63L34.25 85.63Q40.38 88.50 46.38 91.56Q52.38 94.63 58.50 97.63L58.50 97.63Q59.63 98.25 60.81 98.75Q62 99.25 63.25 99.88L63.25 99.88Q63.75 100.25 64.25 100.25Q64.75 100.25 65.38 99.88L65.38 99.88Q67.13 99.13 68.94 98.25Q70.75 97.38 72.63 96.50L72.63 96.50Q79.50 93.13 86.44 89.63Q93.38 86.13 100.38 82.75L100.38 82.75Q102.75 81.63 105.25 80.38Q107.75 79.13 110 77.88L110 77.88L110 24.63L109.75 24.63ZM97.75 73.75L97.75 73.75Q96.38 75.38 94.69 76.50Q93 77.63 91.13 78.63L91.13 78.63Q90.63 78.75 90.13 79Q89.63 79.25 89.13 79.38L89.13 79.38Q88.38 79.50 88 80Q87.63 80.50 87.25 81L87.25 81Q86.63 81.88 85.38 82.63Q84.13 83.38 83.13 83.38L83.13 83.38Q82.88 83.38 82.56 83.38Q82.25 83.38 82 83.38L82 83.38Q80.88 83.38 79.88 83.13Q78.88 82.88 77.88 82.38L77.88 82.38Q76.50 81.75 75.06 81.56Q73.63 81.38 72 81.38L72 81.38Q71.25 81.50 70.56 81.69Q69.88 81.88 69.13 82.25L69.13 82.25Q68.25 82.75 67.81 83.75Q67.38 84.75 67.63 85.75L67.63 85.75Q67.63 86 67.44 86.31Q67.25 86.63 67.13 87L67.13 87Q66.88 86.63 66.56 86.50Q66.25 86.38 66.25 86.13L66.25 86.13Q66.13 84.88 66.19 83.69Q66.25 82.50 67.13 81.50L67.13 81.50Q68.38 80.13 69.88 79.38Q71.38 78.63 73.25 78.50L73.25 78.50Q73.75 78.38 74.19 78.44Q74.63 78.50 75.13 78.38L75.13 78.38Q76.25 78.38 77.31 78.56Q78.38 78.75 79.50 79.13L79.50 79.13Q80.50 79.38 81.50 79.31Q82.50 79.25 83.38 78.75L83.38 78.75Q83.75 77.50 83.25 76.63Q82.75 75.75 81.88 75.13L81.88 75.13Q80.88 74.50 79.88 73.94Q78.88 73.38 77.75 73.13L77.75 73.13Q76.88 72.88 76.13 72.44Q75.38 72 74.63 71.63L74.63 71.63Q73.75 71.38 72.94 71.06Q72.13 70.75 71.38 70.38L71.38 70.38Q70.63 70.13 69.75 70Q68.88 69.88 68.25 69.38L68.25 69.38Q66.88 69.50 65.63 69.13Q64.38 68.75 63.13 69L63.13 69Q61.38 69.38 59.69 69.69Q58 70 56.38 70.63L56.38 70.63Q55.25 71.13 54 71.63Q52.75 72.13 51.63 72.75L51.63 72.75Q51 73.13 50.25 73.38Q49.50 73.63 48.75 73.88L48.75 73.88Q48.25 74.25 47.69 74.56Q47.13 74.88 46.63 75.25L46.63 75.25Q45.88 75.88 45.38 76.69Q44.88 77.50 45.13 78.75L45.13 78.75Q46.13 79.13 47.19 79.19Q48.25 79.25 49.38 78.88L49.38 78.88Q50.50 78.50 51.75 78.50Q53 78.50 54.25 78.38L54.25 78.38Q55.75 78.25 57.13 78.75Q58.50 79.25 59.75 80L59.75 80Q61 80.75 61.75 81.81Q62.50 82.88 62.38 84.38L62.38 84.38Q62.38 84.75 62.44 85.06Q62.50 85.38 62.38 85.75L62.38 85.75Q62.38 86 62.19 86.31Q62 86.63 61.75 87L61.75 87Q61.38 86.63 61 86.38Q60.63 86.13 61.25 85.50L61.25 85.50Q60.88 84.75 60.81 83.94Q60.75 83.13 60 82.63L60 82.63Q59.38 82.25 58.69 81.81Q58 81.38 57.13 81.50L57.13 81.50Q56.63 81.50 56.13 81.50Q55.63 81.50 55 81.50L55 81.50Q53.88 81.38 52.75 81.69Q51.63 82 50.63 82.50L50.63 82.50Q49.25 83.25 47.75 83.31Q46.25 83.38 44.75 83.38L44.75 83.38Q43.88 82.88 42.94 82.50Q42 82.13 41.38 81.38L41.38 81.38Q41.13 80.88 40.88 80.31Q40.63 79.75 40.25 79.63L40.25 79.63Q39.75 79.50 39.31 79.19Q38.88 78.88 38.38 78.88L38.38 78.88Q37.13 78.63 36.19 77.94Q35.25 77.25 34.25 76.63L34.25 76.63Q33.38 76.25 32.63 75.50Q31.88 74.75 31.13 74.13L31.13 74.13Q30.38 73.38 29.88 72.38Q29.38 71.38 29.25 70.38L29.25 70.38Q29 68.75 29.50 67.31Q30 65.88 30.88 64.88L30.88 64.88Q32 63.63 33.44 62.94Q34.88 62.25 36.38 61.63L36.38 61.63Q36 60.88 35.69 60.13Q35.38 59.38 34.88 58.63L34.88 58.63Q34.38 58 34.19 57.25Q34 56.50 33.88 55.88L33.88 55.88Q33.63 55.13 33.63 54.19Q33.63 53.25 33.88 52.50L33.88 52.50Q34 51.75 34.44 51Q34.88 50.25 35.38 49.63L35.38 49.63Q35.88 49 36.44 48.50Q37 48 37.50 47.50L37.50 47.50Q37.63 47.25 37.94 47.19Q38.25 47.13 38.50 47.13L38.50 47.13Q38.75 47.50 38.69 47.81Q38.63 48.13 38.38 48.50L38.38 48.50Q38 48.75 37.75 49.13Q37.50 49.50 37.13 49.88L37.13 49.88Q36.38 50.88 36.38 52Q36.38 53.13 36.50 54.25L36.50 54.25Q36.50 55 36.81 55.63Q37.13 56.25 37.63 56.75L37.63 56.75Q38.38 57.88 39.25 58.88Q40.13 59.88 41.50 60.38L41.50 60.38Q42.25 60.75 42.94 60.94Q43.63 61.13 44.38 61.13L44.38 61.13Q45.13 61.13 45.88 61.13Q46.63 61.13 47.63 61.13L47.63 61.13Q47.13 60.88 46.75 60.69Q46.38 60.50 46 60.38L46 60.38Q43.88 59.38 42.81 57.69Q41.75 56 41.75 53.75L41.75 53.75Q41.75 53 41.75 52.19Q41.75 51.38 41.63 50.63L41.63 50.63Q41.63 49.88 41.88 49.31Q42.13 48.75 42.13 48.13L42.13 48.13Q42.13 47.50 42 46.88Q41.88 46.25 42.50 45.75L42.50 45.75Q42.25 44.75 42.44 43.63Q42.63 42.50 42.13 41.38L42.13 41.38Q41.88 40.88 41.94 40.25Q42 39.63 41.75 38.88L41.75 38.88Q41.25 37.75 40.69 36.69Q40.13 35.63 38.50 35.50L38.50 35.50Q38.38 35.50 38.19 35.25Q38 35 37.88 34.88L37.88 34.88Q38.13 34.25 38.50 34.13Q38.88 34 39.50 34.13L39.50 34.13Q41.13 34.63 42.19 35.69Q43.25 36.75 44 38.25L44 38.25Q44.88 39.75 45.25 41.44Q45.63 43.13 45.88 44.88L45.88 44.88Q46.25 46.50 46.19 48.19Q46.13 49.88 46.25 51.63L46.25 51.63Q46.25 52.25 46.38 52.81Q46.50 53.38 46.75 53.88L46.75 53.88Q46.88 54.38 47.25 54.69Q47.63 55 48.25 55.13L48.25 55.13Q49 55.13 49.63 55Q50.25 54.88 51 54.13L51 54.13L51 52.25Q50.25 51.88 50.06 51.38Q49.88 50.88 49 50.88L49 50.88Q48.75 50.88 48.56 50.50Q48.38 50.13 48.50 49.75L48.50 49.75Q48.50 48.50 48.50 47.25Q48.50 46 48.38 44.88L48.38 44.88Q48.38 43.50 48.56 42.25Q48.75 41 49 39.75L49 39.75Q49.13 38.63 49.31 37.50Q49.50 36.38 50 35.25L50 35.25Q50.38 34.25 50.56 33.13Q50.75 32 51.13 31L51.13 31Q51.88 29.13 52.75 27.31Q53.63 25.50 54.63 23.88L54.63 23.88Q55.25 22.88 55.94 21.94Q56.63 21 57.13 20L57.13 20Q57.13 19.88 57.19 19.81Q57.25 19.75 57.38 19.63L57.38 19.63Q58.13 18.88 58.81 18Q59.50 17.13 60.25 16.38L60.25 16.38Q61.25 15.50 62.25 14.63Q63.25 13.75 64.25 12.75L64.25 12.75Q65.38 13.75 66.44 14.63Q67.50 15.50 68.38 16.50L68.38 16.50Q70.88 19.25 73 22.31Q75.13 25.38 76.50 28.75L76.50 28.75Q77.13 30.38 77.75 32Q78.38 33.63 78.63 35.38L78.63 35.38Q79 37 79.25 38.56Q79.50 40.13 79.88 41.75L79.88 41.75Q80.13 43.75 80.06 45.81Q80 47.88 80.13 49.88L80.13 49.88Q80.13 50.25 79.81 50.56Q79.50 50.88 79.25 50.88L79.25 50.88Q78.50 50.88 78.13 51.38Q77.75 51.88 77 52.25L77 52.25L77 54.13Q77.75 54.75 78.38 54.94Q79 55.13 79.75 55.13L79.75 55.13Q80.63 55.13 81.13 54.63Q81.63 54.13 81.88 53.25L81.88 53.25Q82.13 52.25 82.25 51.25Q82.38 50.25 82.25 49.25L82.25 49.25Q82.13 47.75 82.38 46.38Q82.63 45 82.75 43.50L82.75 43.50Q83 41.88 83.56 40.31Q84.13 38.75 85 37.38L85 37.38Q85.63 36.38 87 35.31Q88.38 34.25 89.38 34L89.38 34Q89.88 33.88 90.19 34.06Q90.50 34.25 90.75 34.88L90.75 34.88Q90.50 35 90.31 35.25Q90.13 35.50 90 35.50L90 35.50Q88.50 35.63 87.94 36.56Q87.38 37.50 86.88 38.63L86.88 38.63Q86.63 39.13 86.63 39.81Q86.63 40.50 86.50 41L86.50 41Q86.13 42 86.13 42.94Q86.13 43.88 86.13 44.88L86.13 44.88Q86.13 45.38 86.25 45.94Q86.38 46.50 86.50 47.13L86.50 47.13Q86.63 47.63 86.50 48.19Q86.38 48.75 86.88 49.25L86.88 49.25Q87 49.38 86.94 49.69Q86.88 50 86.88 50.13L86.88 50.13Q86.88 51.13 86.88 52Q86.88 52.88 86.88 53.75L86.88 53.75Q87 56 85.50 58.13Q84 60.25 81.25 61L81.25 61Q83 61.13 84.63 61.06Q86.25 61 87.88 60L87.88 60Q89.38 59.13 90.31 57.75Q91.25 56.38 92.13 54.88L92.13 54.88Q92.25 53.13 92.13 51.50Q92 49.88 90.38 48.63L90.38 48.63Q90.13 48.38 90 48Q89.88 47.63 90 47.13L90 47.13Q90.25 47.13 90.56 47.13Q90.88 47.13 90.88 47.25L90.88 47.25Q91.75 48.25 92.75 49.06Q93.75 49.88 94.13 51.25L94.13 51.25Q94.25 51.63 94.50 51.94Q94.75 52.25 94.75 52.63L94.75 52.63Q94.75 53.50 94.81 54.44Q94.88 55.38 94.63 56.38L94.63 56.38Q94.38 57 94.13 57.69Q93.88 58.38 93.63 59.13L93.63 59.13Q93.25 59.75 92.88 60.38Q92.50 61 92.13 61.63L92.13 61.63Q92.63 61.88 93.19 62.13Q93.75 62.38 94.25 62.63L94.25 62.63Q95.50 63 96.38 63.75Q97.25 64.50 98 65.25L98 65.25Q98.88 66.13 99.13 67.19Q99.38 68.25 99.75 69.38L99.75 69.38Q99.25 70.50 98.94 71.69Q98.63 72.88 97.75 73.75L97.75 73.75ZM39.13 67.50L39.13 67.50Q38.75 67.50 38.25 67.50Q37.75 67.50 37.25 67.50L37.25 67.50Q36.50 67.63 35.81 67.88Q35.13 68.13 34.50 68.50L34.50 68.50Q33.88 68.88 33.81 69.38Q33.75 69.88 34 70.63L34 70.63Q34.25 71.25 34.69 71.88Q35.13 72.50 35.75 73L35.75 73Q36.75 74 37.81 74.94Q38.88 75.88 40 76.50L40 76.50Q40.50 74.13 41.81 72.31Q43.13 70.50 45.13 69.25L45.13 69.25Q44.88 69.13 44.56 68.94Q44.25 68.75 44 68.63L44 68.63Q42.88 68 41.69 67.69Q40.50 67.38 39.13 67.50ZM94.25 68.63L94.25 68.63Q93.88 68.38 92.88 67.94Q91.88 67.50 91.25 67.50L91.25 67.50Q90.63 67.50 90 67.50Q89.38 67.50 88.63 67.50L88.63 67.50Q87.75 67.38 86.88 67.69Q86 68 85.13 68.38L85.13 68.38Q84.63 68.63 84.25 68.81Q83.88 69 83.38 69.25L83.38 69.25Q85.50 70.50 86.81 72.31Q88.13 74.13 88.50 76.63L88.50 76.63Q89.13 76.13 89.63 75.81Q90.13 75.50 90.63 75L90.63 75Q91.50 74.25 92.38 73.44Q93.25 72.63 94 71.88L94 71.88Q94.25 71.50 94.44 71.13Q94.63 70.75 94.75 70.38L94.75 70.38Q94.88 69.88 94.75 69.44Q94.63 69 94.25 68.63L94.25 68.63ZM58.63 50.63L58.63 50.63Q58 50.63 57.75 50.94Q57.50 51.25 57.50 52.13L57.50 52.13Q57.50 52.75 57.81 53Q58.13 53.25 58.75 53.25L58.75 53.25Q59.25 53.13 59.75 52.69Q60.25 52.25 60.13 51.75L60.13 51.75Q60.13 51.38 59.63 50.94Q59.13 50.50 58.63 50.63ZM70 50.63L70 50.63Q69.50 50.50 68.94 50.94Q68.38 51.38 68.50 51.88L68.50 51.88Q68.50 52.38 68.94 52.81Q69.38 53.25 70 53.25L70 53.25Q70.63 53.25 70.88 52.94Q71.13 52.63 71.13 51.88L71.13 51.88Q71.13 51.13 70.88 50.88Q70.63 50.63 70 50.63ZM25.50 114.13L25.50 114.13L25.50 114.13Q25.75 113.75 26 113.44Q26.25 113.13 26.50 112.75L26.50 112.75L30 108.75L32.50 108.75L28 113.50L33.13 120.50L30.63 120.50L26.50 114.88L25.50 116L25.50 120.50L23.38 120.50L23.38 103.25L25.50 103.25L25.50 114.13ZM35.13 112.38L35.13 112.38Q35.13 111.38 35.13 110.44Q35.13 109.50 35 108.75L35 108.75L36.88 108.75L37 111L37.13 111Q37.50 109.88 38.38 109.19Q39.25 108.50 40.38 108.50L40.38 108.50Q40.50 108.50 40.69 108.50Q40.88 108.50 41 108.50L41 108.50L41 110.50Q40.75 110.50 40.56 110.50Q40.38 110.50 40.25 110.50L40.25 110.50Q39.13 110.50 38.31 111.25Q37.50 112 37.38 113.25L37.38 113.25Q37.25 113.38 37.25 113.69Q37.25 114 37.25 114.25L37.25 114.25L37.25 120.50L35.13 120.50L35.13 112.38ZM51.25 117.63L51.25 117.63Q51.25 118.38 51.25 119.13Q51.25 119.88 51.38 120.50L51.38 120.50L49.50 120.50L49.25 119L49.25 119Q48.75 119.75 47.81 120.25Q46.88 120.75 45.63 120.75L45.63 120.75Q43.88 120.75 42.94 119.69Q42 118.63 42 117.38L42 117.38Q42 115.25 43.81 114.13Q45.63 113 49.13 113L49.13 113L49.13 112.75Q49.13 112 48.69 111Q48.25 110 46.38 110L46.38 110Q45.63 110 44.81 110.25Q44 110.50 43.38 110.88L43.38 110.88L42.88 109.50Q43.63 109 44.63 108.75Q45.63 108.50 46.75 108.50L46.75 108.50Q49.50 108.50 50.38 110Q51.25 111.50 51.25 113.25L51.25 113.25L51.25 117.63ZM49.13 114.50L49.13 114.50Q47.38 114.50 45.75 114.94Q44.13 115.38 44.13 117.13L44.13 117.13Q44.13 118.13 44.75 118.63Q45.38 119.13 46.13 119.13L46.13 119.13Q47.25 119.13 48 118.56Q48.75 118 49 117.25L49 117.25Q49.13 117 49.13 116.81Q49.13 116.63 49.13 116.50L49.13 116.50L49.13 114.50ZM56.75 114.13L56.75 114.13L56.88 114.13Q57 113.75 57.31 113.44Q57.63 113.13 57.88 112.75L57.88 112.75L61.38 108.75L63.88 108.75L59.38 113.50L64.50 120.50L61.88 120.50L57.88 114.88L56.75 116L56.75 120.50L54.63 120.50L54.63 103.25L56.75 103.25L56.75 114.13ZM67.50 115L67.50 115Q67.50 117.13 68.69 118.06Q69.88 119 71.50 119L71.50 119Q72.63 119 73.38 118.88Q74.13 118.75 74.75 118.50L74.75 118.50L75.13 120Q74.50 120.25 73.56 120.50Q72.63 120.75 71.13 120.75L71.13 120.75Q68.50 120.75 66.94 119.13Q65.38 117.50 65.38 114.75L65.38 114.75Q65.38 112.13 66.88 110.25Q68.38 108.38 70.88 108.38L70.88 108.38Q73.75 108.38 74.75 110.38Q75.75 112.38 75.75 114L75.75 114Q75.75 114.25 75.75 114.50Q75.75 114.75 75.63 115L75.63 115L67.50 115ZM73.75 113.38L73.75 113.38Q73.75 112.38 73.13 111.19Q72.50 110 70.75 110L70.75 110Q69.13 110 68.38 111.19Q67.63 112.38 67.50 113.38L67.50 113.38L73.75 113.38ZM78.38 111.88L78.38 111.88Q78.38 111 78.38 110.25Q78.38 109.50 78.25 108.75L78.25 108.75L80.25 108.75L80.38 110.63L80.38 110.63Q80.75 109.88 81.75 109.19Q82.75 108.50 84.25 108.50L84.25 108.50Q85.50 108.50 86.94 109.44Q88.38 110.38 88.38 113.50L88.38 113.50L88.38 120.50L86.25 120.50L86.25 113.75Q86.25 112.25 85.69 111.25Q85.13 110.25 83.50 110.25L83.50 110.25Q82.50 110.25 81.75 110.88Q81 111.50 80.75 112.38L80.75 112.38Q80.63 112.63 80.56 112.88Q80.50 113.13 80.50 113.38L80.50 113.38L80.50 120.50L78.38 120.50L78.38 111.88ZM89 123.88L89 123.88Q89.75 123.88 90.38 123.69Q91 123.50 91.38 123L91.38 123Q91.75 122.50 91.94 121.63Q92.13 120.75 92.13 118.63L92.13 118.63L92.13 108.75L94.25 108.75L94.25 119.50Q94.25 121.13 93.94 122.31Q93.63 123.50 92.88 124.25L92.88 124.25Q92.13 125 91.13 125.31Q90.13 125.63 89.25 125.63L89.25 125.63L89 123.88ZM93.25 106.50L93.13 106.50Q92.63 106.50 92.25 106.13Q91.88 105.75 91.88 105.13L91.88 105.13Q91.88 104.63 92.25 104.19Q92.63 103.75 93.25 103.75L93.25 103.75Q93.88 103.75 94.25 104.19Q94.63 104.63 94.63 105.13L94.63 105.13Q94.63 105.75 94.25 106.13Q93.88 106.50 93.25 106.50L93.25 106.50ZM97.50 118.38L97.50 118.38Q98 118.63 98.75 118.88Q99.50 119.13 100.38 119.13L100.38 119.13Q101.50 119.13 102.06 118.63Q102.63 118.13 102.63 117.38L102.63 117.38Q102.63 116.63 102.13 116.13Q101.63 115.63 100.50 115.25L100.50 115.25Q98.88 114.63 98.13 113.81Q97.38 113 97.38 111.88L97.38 111.88Q97.38 110.50 98.44 109.50Q99.50 108.50 101.38 108.50L101.38 108.50Q102.25 108.50 103 108.69Q103.75 108.88 104.25 109.13L104.25 109.13L103.75 110.75Q103.38 110.50 102.75 110.25Q102.13 110 101.38 110L101.38 110Q100.38 110 99.88 110.50Q99.38 111 99.38 111.63L99.38 111.63Q99.38 112.38 99.94 112.81Q100.50 113.25 101.63 113.63L101.63 113.63Q103.13 114.25 103.88 115.06Q104.63 115.88 104.63 117.25L104.63 117.25Q104.63 118.75 103.50 119.75Q102.38 120.75 100.25 120.75L100.25 120.75Q99.38 120.75 98.50 120.50Q97.63 120.25 97 119.88L97 119.88L97.50 118.38Z"/></svg>