<svg xmlns="http://www.w3.org/2000/svg" xmlns:xlink="http://www.w3.org/1999/xlink" width="128" height="128"><path fill="#000000" d="M120.50 30.63L120.50 30.63Q116.75 28.75 112.88 26.81Q109 24.88 105.13 23L105.13 23Q97.63 19.50 90.19 15.63Q82.75 11.75 75.13 8.25L75.13 8.25Q72.63 7.13 70.25 5.88Q67.88 4.63 65.38 3.38L65.38 3.38Q64.63 3 63.88 2.94Q63.13 2.88 62.25 3.38L62.25 3.38Q59.13 5 55.94 6.50Q52.75 8 49.63 9.50L49.63 9.50Q42 13.25 34.44 17.06Q26.88 20.88 19.25 24.38L19.25 24.38Q16 26 12.50 27.63Q9 29.25 6 30.75L6 30.75L6 97.25Q6 97.38 6.38 97.38Q6.75 97.38 6.75 97.38L6.75 97.38Q9.13 98.63 11.63 99.75Q14.13 100.88 16.50 102.13L16.50 102.13Q18.88 103.38 21.38 104.56Q23.88 105.75 26.38 106.88L26.38 106.88Q34 110.50 41.50 114.31Q49 118.13 56.63 121.88L56.63 121.88Q58 122.63 59.50 123.25Q61 123.88 62.50 124.75L62.50 124.75Q63.25 125.13 63.81 125.06Q64.38 125 65.13 124.75L65.13 124.75Q67.38 123.63 69.69 122.56Q72 121.50 74.25 120.38L74.25 120.38Q82.88 116.13 91.50 111.75Q100.13 107.38 108.88 103.25L108.88 103.25Q111.88 101.88 114.56 100.31Q117.25 98.75 121 97.25L121 97.25L121 30.75Q120.25 30.75 120.44 30.69Q120.63 30.63 120.50 30.63L120.50 30.63ZM105.63 92.13L105.63 92.13Q103.88 94 101.75 95.44Q99.63 96.88 97.25 98L97.25 98Q96.75 98.38 96.13 98.63Q95.50 98.88 94.88 99L94.88 99Q93.88 99.13 93.44 99.75Q93 100.38 92.50 101L92.50 101Q91.75 102.13 90.19 103.06Q88.63 104 87.38 104L87.38 104Q87 104 86.63 104Q86.25 104 86 104L86 104Q84.63 104.13 83.31 103.81Q82 103.50 80.75 102.88L80.75 102.88Q79.13 102 77.25 101.75Q75.38 101.50 73.50 101.63L73.50 101.63Q72.50 101.63 71.63 101.88Q70.75 102.13 69.88 102.63L69.88 102.63Q68.88 103.25 68.31 104.50Q67.75 105.75 68 107L68 107Q68 107.25 67.81 107.63Q67.63 108 67.38 108.50L67.38 108.50Q67 108.13 66.63 107.94Q66.25 107.75 66.25 107.50L66.25 107.50Q66.13 106 66.19 104.44Q66.25 102.88 67.38 101.63L67.38 101.63Q68.88 99.88 70.81 98.94Q72.75 98 75 97.88L75 97.88Q75.63 97.88 76.19 97.88Q76.75 97.88 77.38 97.88L77.38 97.88Q78.75 97.88 80.13 98.06Q81.50 98.25 82.88 98.63L82.88 98.63Q84 99 85.31 98.94Q86.63 98.88 87.75 98.25L87.75 98.25Q88.13 96.63 87.50 95.56Q86.88 94.50 85.75 93.75L85.75 93.75Q84.50 93 83.31 92.25Q82.13 91.50 80.63 91.25L80.63 91.25Q79.63 91 78.69 90.38Q77.75 89.75 76.75 89.38L76.75 89.38Q75.75 89 74.69 88.63Q73.63 88.25 72.63 87.88L72.63 87.88Q71.63 87.50 70.63 87.38Q69.63 87.25 68.75 86.63L68.75 86.63Q67.13 86.63 65.56 86.25Q64 85.88 62.38 86.13L62.38 86.13Q60.25 86.50 58.13 86.94Q56 87.38 54 88.13L54 88.13Q52.50 88.75 51 89.38Q49.50 90 48 90.75L48 90.75Q47.25 91.25 46.31 91.56Q45.38 91.88 44.38 92.25L44.38 92.25Q43.75 92.63 43.06 93Q42.38 93.38 41.75 93.88L41.75 93.88Q40.75 94.63 40.19 95.69Q39.63 96.75 40 98.13L40 98.13Q41.25 98.75 42.50 98.81Q43.75 98.88 45.13 98.50L45.13 98.50Q46.63 98 48.19 97.94Q49.75 97.88 51.25 97.88L51.25 97.88Q53.25 97.75 54.94 98.25Q56.63 98.75 58.25 99.75L58.25 99.75Q59.75 100.75 60.63 102.06Q61.50 103.38 61.50 105.38L61.50 105.38Q61.50 105.75 61.50 106.19Q61.50 106.63 61.50 107L61.50 107Q61.38 107.38 61.19 107.69Q61 108 60.75 108.50L60.75 108.50Q60.25 108 59.75 107.69Q59.25 107.38 60 106.63L60 106.63Q59.50 105.75 59.44 104.75Q59.38 103.75 58.50 103.13L58.50 103.13Q57.75 102.50 56.88 102Q56 101.50 54.88 101.63L54.88 101.63Q54.25 101.63 53.63 101.63Q53 101.63 52.38 101.63L52.38 101.63Q50.75 101.50 49.38 101.94Q48 102.38 46.75 103L46.75 103Q45 103.88 43.13 103.94Q41.25 104 39.38 104L39.38 104Q38.38 103.38 37.25 102.94Q36.13 102.50 35.25 101.50L35.25 101.50Q34.88 101 34.63 100.25Q34.38 99.50 33.88 99.38L33.88 99.38Q33.25 99.13 32.69 98.81Q32.13 98.50 31.50 98.38L31.50 98.38Q30 98.13 28.75 97.25Q27.50 96.38 26.25 95.63L26.25 95.63Q25.13 95.13 24.25 94.19Q23.38 93.25 22.50 92.38L22.50 92.38Q21.50 91.50 20.94 90.31Q20.38 89.13 20.13 87.75L20.13 87.75Q19.75 85.75 20.38 83.94Q21 82.13 22.13 81L22.13 81Q23.63 79.50 25.38 78.56Q27.13 77.63 29 77L29 77Q28.63 76 28.19 75Q27.75 74 27.13 73.13L27.13 73.13Q26.50 72.38 26.31 71.44Q26.13 70.50 25.88 69.63L25.88 69.63Q25.63 68.75 25.63 67.63Q25.63 66.50 25.88 65.50L25.88 65.50Q26.13 64.50 26.63 63.56Q27.13 62.63 27.75 61.88L27.75 61.88Q28.25 61.13 29 60.44Q29.75 59.75 30.38 59.13L30.38 59.13Q30.63 59 30.94 58.94Q31.25 58.88 31.63 58.75L31.63 58.75Q32 59.25 31.94 59.69Q31.88 60.13 31.50 60.50L31.50 60.50Q31 60.88 30.69 61.31Q30.38 61.75 30 62.25L30 62.25Q29 63.50 29.06 64.88Q29.13 66.25 29.13 67.75L29.13 67.75Q29.13 68.63 29.56 69.38Q30 70.13 30.50 70.88L30.50 70.88Q31.50 72.25 32.63 73.44Q33.75 74.63 35.38 75.38L35.38 75.38Q36.38 75.75 37.25 76Q38.13 76.25 39 76.25L39 76.25Q39.88 76.25 40.81 76.25Q41.75 76.25 43.13 76.25L43.13 76.25Q42.38 75.88 41.94 75.69Q41.50 75.50 41.13 75.38L41.13 75.38Q38.38 74.13 37 72Q35.63 69.88 35.63 67.13L35.63 67.13Q35.63 66.13 35.69 65.13Q35.75 64.13 35.63 63.13L35.63 63.13Q35.50 62.25 35.81 61.50Q36.13 60.75 36.13 60L36.13 60Q36.13 59.25 36 58.50Q35.88 57.75 36.63 57.13L36.63 57.13Q36.38 55.75 36.63 54.38Q36.88 53 36.25 51.63L36.25 51.63Q35.88 50.88 35.94 50.13Q36 49.38 35.75 48.50L35.75 48.50Q35.13 47 34.38 45.69Q33.63 44.38 31.63 44.25L31.63 44.25Q31.38 44.25 31.19 43.94Q31 43.63 30.88 43.50L30.88 43.50Q31.25 42.75 31.63 42.56Q32 42.38 32.88 42.63L32.88 42.63Q34.88 43.25 36.19 44.56Q37.50 45.88 38.50 47.75L38.50 47.75Q39.50 49.63 40 51.69Q40.50 53.75 40.88 55.88L40.88 55.88Q41.25 58 41.19 60.13Q41.13 62.25 41.25 64.38L41.25 64.38Q41.38 65.13 41.56 65.81Q41.75 66.50 41.88 67.25L41.88 67.25Q42.13 67.88 42.56 68.25Q43 68.63 43.63 68.75L43.63 68.75Q44.63 68.75 45.44 68.56Q46.25 68.38 47 67.50L47 67.50L47 65.13Q46.25 64.75 46 64.13Q45.75 63.50 44.63 63.50L44.63 63.50Q44.25 63.50 44.13 63Q44 62.50 44 62L44 62Q44 60.50 44.06 58.94Q44.13 57.38 44 55.88L44 55.88Q43.88 54.25 44.13 52.69Q44.38 51.13 44.63 49.50L44.63 49.50Q44.88 48.13 45.13 46.75Q45.38 45.38 45.88 44L45.88 44Q46.50 42.75 46.69 41.38Q46.88 40 47.38 38.75L47.38 38.75Q48.38 36.38 49.44 34.13Q50.50 31.88 51.75 29.75L51.75 29.75Q52.50 28.50 53.38 27.38Q54.25 26.25 54.88 24.88L54.88 24.88Q55 24.75 55.06 24.69Q55.13 24.63 55.13 24.50L55.13 24.50Q56.13 23.50 57 22.44Q57.88 21.38 58.88 20.38L58.88 20.38Q60 19.25 61.25 18.13Q62.50 17 63.88 15.88L63.88 15.88Q65.13 17.13 66.50 18.19Q67.88 19.25 69 20.63L69 20.63Q72.13 24 74.75 27.75Q77.38 31.50 79.13 35.88L79.13 35.88Q79.88 37.88 80.63 39.94Q81.38 42 81.75 44.13L81.75 44.13Q82.13 46.13 82.50 48.13Q82.88 50.13 83.25 52L83.25 52Q83.63 54.63 83.50 57.13Q83.38 59.63 83.63 62.25L83.63 62.25Q83.63 62.75 83.31 63.13Q83 63.50 82.75 63.50L82.75 63.50Q81.63 63.38 81.19 64.06Q80.75 64.75 80 65.13L80 65.13L80 67.50Q80.75 68.25 81.50 68.50Q82.25 68.75 83.25 68.75L83.25 68.75Q84.38 68.75 85 68.13Q85.63 67.50 85.88 66.38L85.88 66.38Q86.25 65.13 86.38 63.88Q86.50 62.63 86.38 61.38L86.38 61.38Q86.13 59.63 86.44 57.81Q86.75 56 87 54.25L87 54.25Q87.25 52.25 87.94 50.31Q88.63 48.38 89.75 46.50L89.75 46.50Q90.38 45.38 92.13 44Q93.88 42.63 95.13 42.38L95.13 42.38Q95.75 42.25 96.19 42.50Q96.63 42.75 96.75 43.50L96.75 43.50Q96.63 43.75 96.38 44Q96.13 44.25 95.88 44.25L95.88 44.25Q94.13 44.38 93.38 45.56Q92.63 46.75 92.13 48.13L92.13 48.13Q91.75 48.88 91.75 49.69Q91.75 50.50 91.50 51.13L91.50 51.13Q91.13 52.38 91.13 53.56Q91.13 54.75 91.13 55.88L91.13 55.88Q91.13 56.63 91.31 57.38Q91.50 58.13 91.63 58.75L91.63 58.75Q91.75 59.50 91.56 60.19Q91.38 60.88 92 61.50L92 61.50Q92.13 61.63 92.06 61.94Q92 62.25 92 62.63L92 62.63Q92 63.75 92 64.81Q92 65.88 92 67L92 67Q92.13 69.88 90.31 72.56Q88.50 75.25 85 76L85 76Q87.13 76.25 89.19 76.19Q91.25 76.13 93.25 74.88L93.25 74.88Q95.13 73.75 96.31 72Q97.50 70.25 98.63 68.50L98.63 68.50Q98.63 66.38 98.50 64.31Q98.38 62.25 96.50 60.63L96.50 60.63Q96 60.38 95.88 59.94Q95.75 59.50 95.88 58.75L95.88 58.75Q96.25 58.88 96.63 58.88Q97 58.88 97.13 59L97.13 59Q98.13 60.13 99.38 61.19Q100.63 62.25 101.13 63.88L101.13 63.88Q101.25 64.38 101.56 64.81Q101.88 65.25 101.88 65.63L101.88 65.63Q101.88 66.75 101.94 67.94Q102 69.13 101.63 70.25L101.63 70.25Q101.38 71.13 101.06 72Q100.75 72.88 100.38 73.75L100.38 73.75Q100 74.50 99.56 75.25Q99.13 76 98.63 76.88L98.63 76.88Q99.25 77.13 99.94 77.50Q100.63 77.88 101.25 78.13L101.25 78.13Q102.75 78.50 103.88 79.44Q105 80.38 106 81.50L106 81.50Q107 82.50 107.31 83.81Q107.63 85.13 108 86.50L108 86.50Q107.50 87.88 107.13 89.38Q106.75 90.88 105.63 92.13L105.63 92.13ZM32.50 84.25L32.50 84.25Q31.88 84.25 31.31 84.25Q30.75 84.25 30.13 84.25L30.13 84.25Q29.25 84.25 28.38 84.63Q27.50 85 26.63 85.50L26.63 85.50Q25.88 86 25.75 86.56Q25.63 87.13 26 88L26 88Q26.38 88.88 26.94 89.69Q27.50 90.50 28.13 91.13L28.13 91.13Q29.38 92.38 30.75 93.50Q32.13 94.63 33.63 95.50L33.63 95.50Q34.13 92.38 35.75 90.19Q37.38 88 40 86.38L40 86.38Q39.50 86.13 39.13 86Q38.75 85.88 38.50 85.63L38.50 85.63Q37.13 84.88 35.63 84.50Q34.13 84.13 32.50 84.25L32.50 84.25ZM101.25 85.63L101.25 85.63Q100.75 85.25 99.50 84.75Q98.25 84.25 97.50 84.25L97.50 84.25Q96.75 84.25 95.94 84.25Q95.13 84.25 94.25 84.25L94.25 84.25Q93 84.13 91.94 84.50Q90.88 84.88 89.75 85.38L89.75 85.38Q89.25 85.50 88.75 85.81Q88.25 86.13 87.75 86.38L87.75 86.38Q90.25 88 91.94 90.25Q93.63 92.50 94.13 95.50L94.13 95.50Q94.75 95 95.44 94.56Q96.13 94.13 96.75 93.63L96.75 93.63Q97.88 92.63 98.94 91.63Q100 90.63 101 89.63L101 89.63Q101.25 89.25 101.44 88.81Q101.63 88.38 101.75 87.88L101.75 87.88Q102.13 87.25 101.94 86.69Q101.75 86.13 101.25 85.63ZM56.75 63.13L56.75 63.13Q55.88 63.13 55.63 63.50Q55.38 63.88 55.38 65L55.38 65Q55.38 65.75 55.75 66.06Q56.13 66.38 57 66.38L57 66.38Q57.63 66.38 58.19 65.75Q58.75 65.13 58.63 64.63L58.63 64.63Q58.63 64 58 63.50Q57.38 63 56.75 63.13L56.75 63.13ZM71 63.13L71 63.13Q70.25 63 69.63 63.56Q69 64.13 69 64.75L69 64.75Q69 65.38 69.63 65.88Q70.25 66.38 70.88 66.38L70.88 66.38Q71.75 66.38 72 66Q72.25 65.63 72.25 64.75L72.25 64.75Q72.38 63.88 72.06 63.50Q71.75 63.13 71 63.13Z"/></svg>