<svg xmlns="http://www.w3.org/2000/svg" xmlns:xlink="http://www.w3.org/1999/xlink" width="128" height="128"><path fill="#000000" d="M70.88 49.38L68.50 52.75L59 52.75L56.50 49.38L56.50 23.75L70.88 23.75L70.88 49.38ZM55.75 55.13L55.75 55.13L52.75 64.13L48.88 65.50L24.38 57.50L28.88 43.88L53.38 51.75L55.75 55.13ZM54 67.75L54 67.75L61.63 73.25L61.75 77.38L46.75 98.25L35 89.75L50.25 69L54 67.75ZM65.75 73.38L65.75 73.38L73.38 67.75L77.38 69L92.50 89.75L80.88 98.25L65.75 77.38L65.75 73.38ZM74.88 64.25L74.88 64.25L71.88 55.25L74.25 51.75L98.75 43.88L103.13 57.50L78.75 65.50L74.88 64.25ZM64 1.38L64 1.38Q51 1.38 39.63 6.38L39.63 6.38Q28.25 11.25 19.75 19.75Q11.25 28.25 6.38 39.63L6.38 39.63Q1.38 51 1.38 64L1.38 64Q1.38 77 6.38 88.38L6.38 88.38Q11.25 99.75 19.75 108.25Q28.25 116.75 39.63 121.63L39.63 121.63Q51 126.63 64 126.63L64 126.63Q77 126.63 88.38 121.63L88.38 121.63Q99.75 116.75 108.25 108.25Q116.75 99.75 121.63 88.38L121.63 88.38Q126.63 77 126.63 64L126.63 64Q126.63 51 121.63 39.63L121.63 39.63Q116.75 28.25 108.25 19.75Q99.75 11.25 88.38 6.38L88.38 6.38Q77 1.38 64 1.38ZM63.63 112.88L63.63 112.88Q53.38 112.88 44.38 109L44.38 109Q35.38 105.13 28.69 98.44Q22 91.75 18 82.63L18 82.63Q14.13 73.63 14.13 63.38L14.13 63.38Q14.13 53.13 18 44.13L18 44.13Q22 35.13 28.69 28.44Q35.38 21.75 44.38 17.75L44.38 17.75Q53.38 13.88 63.63 13.88L63.63 13.88Q73.88 13.88 82.88 17.75L82.88 17.75Q92 21.75 98.69 28.44Q105.38 35.13 109.25 44.13L109.25 44.13Q113.13 53.13 113.13 63.38L113.13 63.38Q113.13 63.38 113.13 63.38Q113.13 63.38 113.13 63.38L113.13 63.38Q113.13 73.63 109.25 82.75L109.25 82.75Q105.38 91.75 98.69 98.44Q92 105.13 82.88 109L82.88 109Q73.88 112.88 63.63 112.88L63.63 112.88ZM61.63 102.50L61.63 83L65.50 83L65.50 102.50L61.63 102.50ZM101.38 77L82.88 71L84 67.25L102.63 73.25L101.38 77ZM89.25 31.25L77.75 47L74.63 44.75L86 29L89.25 31.25ZM41.88 29L53.38 44.75L50.13 47.13L38.75 31.25L41.88 29ZM43.38 67.25L43.38 67.25L44.63 71L26 77L24.88 73.25L43.38 67.25Z"/></svg>