<svg xmlns="http://www.w3.org/2000/svg" xmlns:xlink="http://www.w3.org/1999/xlink" width="128" height="128"><path fill="#ffffff" d="M68.88 40.63L67.13 42.88L60.50 42.88L58.75 40.63L58.75 22.50L68.88 22.50L68.88 40.63ZM58.13 44.63L58.13 44.63L56.13 51L53.38 52L36.13 46.38L39.25 36.75L56.50 42.25L58.13 44.63ZM54.25 54.38L57 53.50L62.38 57.50L62.50 60.38L51.75 75.13L43.63 69.13L54.25 54.38ZM65.25 57.50L65.25 57.50L70.63 53.63L73.50 54.38L84.13 69.13L75.88 75L65.25 60.38L65.25 57.50ZM71.63 51.13L71.63 51.13L69.63 44.75L71.25 42.25L88.50 36.75L91.63 46.38L74.38 52L71.63 51.13ZM64 6.75L64 6.75Q54.88 6.75 46.75 10.25L46.75 10.25Q38.75 13.63 32.75 19.63Q26.75 25.63 23.25 33.75L23.25 33.75Q19.88 41.75 19.88 50.88L19.88 50.88Q19.88 60 23.25 68.13L23.25 68.13Q26.75 76.13 32.75 82.13Q38.75 88.13 46.75 91.63L46.75 91.63Q54.88 95.13 64 95.13L64 95.13Q73.13 95.13 81.25 91.63L81.25 91.63Q89.25 88.13 95.25 82.13Q101.25 76.13 104.75 68.13L104.75 68.13Q108.13 60 108.13 50.88L108.13 50.88Q108.13 41.75 104.75 33.75L104.75 33.75Q101.25 25.63 95.25 19.63Q89.25 13.63 81.25 10.25L81.25 10.25Q73.13 6.75 64 6.75L64 6.75ZM63.75 85.38L63.75 85.38Q56.50 85.38 50.13 82.63L50.13 82.63Q43.75 80 39.06 75.25Q34.38 70.50 31.63 64.13L31.63 64.13Q28.88 57.75 28.88 50.50L28.88 50.50Q28.88 43.25 31.63 36.88L31.63 36.88Q34.38 30.50 39.06 25.75Q43.75 21 50.13 18.38L50.13 18.38Q56.50 15.63 63.75 15.63L63.75 15.63Q71 15.63 77.38 18.38L77.38 18.38Q83.75 21 88.50 25.75Q93.25 30.50 96 36.88L96 36.88Q98.75 43.25 98.75 50.50L98.75 50.50Q98.75 57.75 96 64.13L96 64.13Q93.25 70.50 88.50 75.25Q83.75 80 77.38 82.63L77.38 82.63Q71 85.38 63.75 85.38ZM62.25 78.13L62.25 64.25L65 64.25L65 78.13L62.25 78.13ZM90.38 60L77.25 55.75L78.13 53.13L91.25 57.50L90.38 60ZM81.75 27.75L73.75 39L71.50 37.38L79.63 26.13L81.75 27.75ZM48.38 26.13L56.50 37.38L54.25 39L46.13 27.75L48.38 26.13ZM49.50 53.13L49.50 53.13L50.25 55.75L37.25 60L36.38 57.38L49.50 53.13ZM5.13 114.63L5.13 114.63Q5.13 114.75 5.13 114.75Q5.13 114.75 5.13 114.88L5.13 114.88Q5.13 115.88 5.81 116.63Q6.50 117.38 7.50 117.38L7.50 117.38Q7.50 117.38 7.50 117.38Q7.50 117.38 7.50 117.38L7.50 117.38Q8.13 117.38 8.69 117.06Q9.25 116.75 9.50 116.25L9.50 116.25Q9.75 115.75 9.88 115.13Q10 114.50 10 113.88L10 113.88Q10 113.75 10 113.63Q10 113.50 10 113.38L10 113.38L10 102.38L7.63 102.38L7.63 98.88L16.63 98.88L16.63 102.38L14.13 102.38L14.13 114Q14.13 115.50 13.88 116.69Q13.63 117.88 12.63 119L12.63 119Q11.63 120.13 10.31 120.69Q9 121.25 7.50 121.25L7.50 121.25Q7.50 121.25 7.50 121.25Q7.50 121.25 7.50 121.25L7.50 121.25Q4.50 121.25 2.50 119.44Q0.50 117.63 0.75 114.63L0.75 114.63L5.13 114.63ZM30.50 112.50L30.50 112.50Q30.50 110.50 29.06 109.06Q27.63 107.63 25.50 107.63L25.50 107.63Q25.50 107.63 25.50 107.63Q25.50 107.63 25.50 107.63L25.50 107.63Q25.50 107.63 25.50 107.63Q25.50 107.63 25.50 107.63L25.50 107.63Q23.38 107.63 21.94 109.06Q20.50 110.50 20.50 112.63L20.50 112.63Q20.50 112.63 20.50 112.69Q20.50 112.75 20.50 112.75L20.50 112.75Q20.50 114.75 21.94 116.13Q23.38 117.50 25.38 117.63L25.38 117.63Q25.38 117.63 25.44 117.63Q25.50 117.63 25.50 117.63L25.50 117.63Q27.50 117.63 29 116.13Q30.50 114.63 30.50 112.63L30.50 112.63Q30.50 112.63 30.50 112.56Q30.50 112.50 30.50 112.50L30.50 112.50ZM30.38 118.63L30.38 118.63Q29.63 119.88 28.31 120.56Q27 121.25 25.38 121.25L25.38 121.25Q25.38 121.25 25.31 121.25Q25.25 121.25 25.13 121.25L25.13 121.25Q21.63 121.25 19.19 118.75Q16.75 116.25 16.75 112.75L16.75 112.75Q16.75 112.75 16.75 112.75Q16.75 112.75 16.75 112.75L16.75 112.75Q16.75 112.75 16.75 112.75Q16.75 112.75 16.75 112.75L16.75 112.75Q16.75 109.13 19.25 106.56Q21.75 104 25.38 104L25.38 104Q25.38 104 25.38 104Q25.38 104 25.38 104L25.38 104Q27 104 28.31 104.75Q29.63 105.50 30.38 106.75L30.38 106.75L30.38 104.38L36.25 104.38L36.25 107.88L34.25 107.88L34.25 117.38L36.25 117.38L36.25 120.88L30.38 120.88L30.38 118.63ZM41.25 116L41.25 116Q41.25 117.13 42 117.81Q42.75 118.50 43.75 118.50L43.75 118.50Q43.75 118.50 43.81 118.50Q43.88 118.50 43.88 118.50L43.88 118.50Q43.88 118.50 43.94 118.50Q44 118.50 44 118.50L44 118.50Q44.88 118.50 45.50 117.94Q46.13 117.38 46.13 116.50L46.13 116.50Q46.13 115.25 45.19 114.88Q44.25 114.50 43.38 114.25L43.38 114.25Q41.25 113.75 39.31 112.75Q37.38 111.75 37.38 109L37.38 109Q37.38 106.63 39.06 105.31Q40.75 104 42.88 104L42.88 104Q43 104 43.13 104Q43.25 104 43.38 104L43.38 104Q44.38 104 45.19 104.44Q46 104.88 46.63 105.50L46.63 105.50L46.63 104.38L49.38 104.38L49.38 108.88L45.75 108.88Q45.75 108 45.19 107.44Q44.63 106.88 43.75 106.88L43.75 106.88Q43.75 106.88 43.75 106.88Q43.75 106.88 43.63 106.88L43.63 106.88Q43.63 106.88 43.56 106.88Q43.50 106.88 43.50 106.88L43.50 106.88Q42.75 106.88 42.19 107.38Q41.63 107.88 41.63 108.63L41.63 108.63Q41.63 109.75 42.50 110.19Q43.38 110.63 44.25 110.75L44.25 110.75Q46.50 111.25 48.44 112.31Q50.38 113.38 50.38 116.13L50.38 116.13Q50.38 118.63 48.63 119.94Q46.88 121.25 44.50 121.25L44.50 121.25Q44.50 121.25 44.44 121.25Q44.38 121.25 44.25 121.25L44.25 121.25Q43.13 121.25 42.06 120.75Q41 120.25 40.25 119.50L40.25 119.50L40.25 120.88L37.38 120.88L37.38 116L41.25 116ZM53.50 107.88L53.50 107.88L51.38 107.88L51.38 104.38L57 104.38L57 106.88Q57.75 105.63 58.94 104.81Q60.13 104 61.63 104L61.63 104Q63.38 104 64.75 104.94Q66.13 105.88 66.75 107.38L66.75 107.38Q67.50 105.88 68.94 104.94Q70.38 104 72.13 104L72.13 104Q72.13 104 72.13 104Q72.13 104 72.25 104L72.25 104Q72.25 104 72.25 104Q72.25 104 72.25 104L72.25 104Q73.63 104 74.81 104.56Q76 105.13 76.88 106.13L76.88 106.13Q77.88 107.25 78.06 108.50Q78.25 109.75 78.25 111.13L78.25 111.13L78.25 117.25L80.38 117.25L80.38 120.88L72.38 120.88L72.38 117.25L74.50 117.25L74.50 112Q74.50 111.88 74.50 111.75Q74.50 111.63 74.50 111.50L74.50 111.50Q74.50 110.75 74.38 110.13Q74.25 109.50 74 109L74 109Q73.50 108.38 72.81 108Q72.13 107.63 71.38 107.63L71.38 107.63Q71.38 107.63 71.31 107.63Q71.25 107.63 71.25 107.63L71.25 107.63Q71.25 107.63 71.25 107.63Q71.25 107.63 71.25 107.63L71.25 107.63Q70.38 107.63 69.69 107.94Q69 108.25 68.50 108.88L68.50 108.88Q68.13 109.38 67.94 110.06Q67.75 110.75 67.75 111.38L67.75 111.38Q67.75 111.63 67.75 111.75Q67.75 111.88 67.75 112L67.75 112L67.75 117.25L69.88 117.25L69.88 120.75L61.88 120.75L61.88 117.25L64 117.25L64 112.25Q64 112.13 64 112Q64 111.88 64 111.75L64 111.75Q64 111 63.88 110.38Q63.75 109.75 63.50 109.13L63.50 109.13Q63.13 108.50 62.44 108.13Q61.75 107.75 60.88 107.75L60.88 107.75Q60.88 107.75 60.88 107.75Q60.88 107.75 60.75 107.75L60.75 107.75Q60.75 107.75 60.75 107.75Q60.75 107.75 60.63 107.75L60.63 107.75Q59.88 107.75 59.25 108.06Q58.63 108.38 58.13 108.88L58.13 108.88Q57.75 109.50 57.50 110.19Q57.25 110.88 57.25 111.75L57.25 111.75Q57.25 111.88 57.25 112Q57.25 112.13 57.25 112.25L57.25 112.25L57.25 117.38L59.38 117.38L59.38 120.88L51.38 120.88L51.38 117.38L53.50 117.38L53.50 107.88ZM87.50 98.88L87.50 102.88L83.75 102.88L83.75 98.88L87.50 98.88ZM87.50 104.38L87.50 117.38L89.63 117.38L89.63 120.88L81.63 120.88L81.63 117.38L83.75 117.38L83.75 107.88L81.63 107.88L81.63 104.38L87.50 104.38ZM92.75 107.88L92.88 107.88L90.75 107.88L90.75 104.38L96.63 104.38L96.63 106.75Q97.25 105.50 98.50 104.75Q99.75 104 101.25 104L101.25 104Q101.25 104 101.31 104Q101.38 104 101.50 104L101.50 104Q101.50 104 101.50 104Q101.50 104 101.50 104L101.50 104Q102.88 104 104.06 104.56Q105.25 105.13 106.25 106L106.25 106Q107.25 107.13 107.44 108.31Q107.63 109.50 107.63 110.88L107.63 110.88L107.63 117.25L109.75 117.25L109.75 120.75L101.75 120.75L101.75 117.25L103.75 117.25L103.75 112Q103.88 111.88 103.88 111.75Q103.88 111.63 103.88 111.50L103.88 111.50Q103.88 110.75 103.69 110.13Q103.50 109.50 103.13 109L103.13 109Q102.63 108.38 101.94 108Q101.25 107.63 100.38 107.63L100.38 107.63Q100.38 107.63 100.31 107.63Q100.25 107.63 100.25 107.63L100.25 107.63Q100.25 107.63 100.19 107.63Q100.13 107.63 100.13 107.63L100.13 107.63Q99.25 107.63 98.50 108Q97.75 108.38 97.25 109L97.25 109Q96.88 109.63 96.69 110.38Q96.50 111.13 96.50 111.88L96.50 111.88Q96.50 112 96.50 112.19Q96.50 112.38 96.50 112.50L96.50 112.50L96.50 117.25L98.63 117.25L98.63 120.75L90.63 120.75L90.63 117.25L92.75 117.25L92.75 107.88ZM113.88 111.13L123.88 111.13Q123.38 109.50 121.94 108.38Q120.50 107.25 118.75 107.25L118.75 107.25Q118.75 107.25 118.69 107.25Q118.63 107.25 118.63 107.25L118.63 107.25Q116.88 107.25 115.56 108.38Q114.25 109.50 113.88 111.13L113.88 111.13ZM126.75 116L126.63 116Q125.75 118.38 123.63 119.81Q121.50 121.25 118.88 121.25L118.88 121.25Q118.88 121.25 118.88 121.25Q118.88 121.25 118.88 121.25L118.88 121.25Q115.25 121.25 112.75 118.69Q110.25 116.13 110.25 112.63L110.25 112.63Q110.25 109 112.75 106.44Q115.25 103.88 118.88 103.88L118.88 103.88Q120.63 103.88 122.25 104.63Q123.88 105.38 125 106.50L125 106.50Q126.13 107.75 126.69 109.25Q127.25 110.75 127.25 112.38L127.25 112.38Q127.25 112.50 127.25 112.56Q127.25 112.63 127.25 112.75L127.25 112.75L127.13 114L113.88 114Q114.25 115.75 115.63 116.88Q117 118 118.75 118L118.75 118Q118.88 118 118.94 118Q119 118 119 118L119 118Q120.25 118 121.19 117.44Q122.13 116.88 122.75 116L122.75 116L126.75 116Z"/></svg>