<svg xmlns="http://www.w3.org/2000/svg" xmlns:xlink="http://www.w3.org/1999/xlink" width="128" height="128"><path fill="#000000" d="M11.50 77.25L11.50 50.75L0 57.38L0 63.63L6.50 59.88L6.50 74.38L6.63 74.38L11.50 77.25ZM23.25 57.38L11.88 50.75L11.88 77.25L12.25 77L16.75 74.38L16.75 67.63L20 69.50L20 63.88L16.75 62L16.75 59.88L23.25 63.63L23.25 57.38ZM0.63 57.75L10.88 51.88L10.88 76.13L7.13 74L7.13 58.75L0.63 62.63L0.63 57.75ZM12.50 76.13L12.50 51.88L22.63 57.75L22.63 62.63L16.13 58.75L16.13 62.38L19.38 64.25L19.38 68.38L16.13 66.50L16.13 74L12.50 76.13ZM35.38 57.13L35.38 59.13L31.38 59.13L31.38 71.38L29 71.38L29 59.13L24.88 59.13L24.88 57.13L35.38 57.13ZM43.88 66.13L43.88 67L37 67Q37 67.63 37.19 68.19Q37.38 68.75 37.88 69.13L37.88 69.13Q38.25 69.50 38.81 69.69Q39.38 69.88 40.13 69.88L40.13 69.88Q40.88 69.88 41.63 69.63Q42.38 69.38 43.13 68.88L43.13 68.88L43.13 70.75Q42.38 71.25 41.50 71.44Q40.63 71.63 39.38 71.63L39.38 71.63Q38.25 71.63 37.38 71.31Q36.50 71 35.88 70.25L35.88 70.25Q35.25 69.63 34.94 68.63Q34.63 67.63 34.63 66.38L34.63 66.38Q34.63 65.13 34.94 64.19Q35.25 63.25 36 62.50L36 62.50Q36.75 61.75 37.63 61.38Q38.50 61 39.50 61L39.50 61Q40.63 61 41.38 61.31Q42.13 61.63 42.75 62.38L42.75 62.38Q43.38 63 43.63 63.94Q43.88 64.88 43.88 66.13L43.88 66.13ZM37 65.38L41.63 65.38Q41.63 64.75 41.50 64.25Q41.38 63.75 41.13 63.38L41.13 63.38Q40.75 63 40.38 62.88Q40 62.75 39.50 62.75L39.50 62.75Q39 62.75 38.56 62.88Q38.13 63 37.75 63.38L37.75 63.38Q37.50 63.75 37.25 64.25Q37 64.75 37 65.38L37 65.38ZM55.13 65.25L55.13 71.38L52.88 71.38L52.88 65.63Q52.88 64.25 52.38 63.56Q51.88 62.88 50.88 62.88L50.88 62.88Q50.38 62.88 49.94 63.06Q49.50 63.25 49.13 63.63L49.13 63.63Q48.75 64 48.56 64.50Q48.38 65 48.38 65.63L48.38 65.63L48.38 71.38L46.13 71.38L46.13 61.25L48.38 61.25L48.38 62.88L48.50 62.88Q49 62 49.88 61.50Q50.75 61 51.75 61L51.75 61Q52.63 61 53.25 61.25Q53.88 61.50 54.25 62.13L54.25 62.13Q54.75 62.63 54.94 63.38Q55.13 64.13 55.13 65.25L55.13 65.25ZM57.38 71.13L57.38 71.13L57.38 69Q58 69.50 58.75 69.75Q59.50 70 60.25 70L60.25 70Q61.25 70 61.81 69.69Q62.38 69.38 62.38 68.75L62.38 68.75Q62.38 68.75 62.38 68.75Q62.38 68.75 62.38 68.63L62.38 68.63Q62.38 68.50 62.31 68.38Q62.25 68.25 62.13 68.13L62.13 68.13L62.13 68.13Q62 68 61.88 67.88Q61.75 67.75 61.63 67.75L61.63 67.75L61.63 67.75Q61.50 67.63 61.31 67.50Q61.13 67.38 61 67.38L61 67.38L60.88 67.38Q60.13 67.13 59.81 67Q59.50 66.88 59.25 66.75L59.25 66.75L60 67Q59.63 66.88 59.38 66.75Q59.13 66.63 58.88 66.50L58.88 66.50L58.88 66.50Q58.63 66.38 58.44 66.19Q58.25 66 58 65.88L58 65.88L58 65.88Q57.88 65.75 57.75 65.50Q57.63 65.25 57.50 65.13L57.50 65.13L57.50 65Q57.50 64.88 57.44 64.56Q57.38 64.25 57.38 64L57.38 64Q57.38 63.63 57.44 63.31Q57.50 63 57.75 62.75L57.75 62.75Q57.88 62.38 58.13 62.19Q58.38 62 58.63 61.75L58.63 61.75Q59 61.63 59.31 61.44Q59.63 61.25 60 61.25L60 61.25L60 61.13Q60.38 61.13 60.75 61.06Q61.13 61 61.50 61L61.50 61Q62.25 61 62.88 61.13Q63.50 61.25 64.13 61.38L64.13 61.38L64.13 63.50Q63.50 63.13 62.88 62.94Q62.25 62.75 61.63 62.75L61.63 62.75Q61.63 62.75 61.63 62.75Q61.63 62.75 61.50 62.75L61.50 62.75Q61.38 62.75 61.19 62.75Q61 62.75 60.75 62.75L60.75 62.75L60.75 62.75Q60.63 62.88 60.50 62.94Q60.38 63 60.25 63L60.25 63Q60.13 63.13 60 63.19Q59.88 63.25 59.88 63.38L59.88 63.38L59.88 63.38Q59.75 63.50 59.69 63.63Q59.63 63.75 59.63 63.88L59.63 63.88Q59.63 63.88 59.63 63.88Q59.63 63.88 59.63 63.88L59.63 63.88L59.63 63.88Q59.63 63.88 59.63 63.94Q59.63 64 59.63 64L59.63 64Q59.63 64.13 59.69 64.25Q59.75 64.38 59.88 64.50L59.88 64.50L59.88 64.50Q59.88 64.63 60 64.69Q60.13 64.75 60.25 64.88L60.25 64.88Q60.38 65 60.56 65.06Q60.75 65.13 60.88 65.25L60.88 65.25Q61.13 65.25 61.31 65.31Q61.50 65.38 61.75 65.50L61.75 65.50Q62.13 65.63 62.38 65.75Q62.63 65.88 63 66L63 66Q63.25 66.25 63.44 66.38Q63.63 66.50 63.88 66.75L63.88 66.75Q64 66.88 64.13 67.06Q64.25 67.25 64.38 67.50L64.38 67.50Q64.50 67.75 64.56 68Q64.63 68.25 64.63 68.63L64.63 68.63Q64.63 69 64.50 69.31Q64.38 69.63 64.25 70L64.25 70Q64.13 70.25 63.88 70.50Q63.63 70.75 63.25 70.88L63.25 70.88Q63 71.13 62.63 71.25Q62.25 71.38 61.88 71.50L61.88 71.50L61.88 71.50Q61.50 71.63 61.13 71.63Q60.75 71.63 60.25 71.63L60.25 71.63Q60.25 71.63 60.25 71.63Q60.25 71.63 60.25 71.63L60.25 71.63L60.25 71.63Q59.38 71.63 58.69 71.50Q58 71.38 57.38 71.13L57.38 71.13ZM71.38 71.63L71.38 71.63Q70.13 71.63 69.19 71.31Q68.25 71 67.50 70.25L67.50 70.25Q66.88 69.50 66.50 68.56Q66.13 67.63 66.13 66.50L66.13 66.50Q66.13 65.13 66.50 64.13Q66.88 63.13 67.63 62.38L67.63 62.38Q68.38 61.75 69.38 61.38Q70.38 61 71.63 61L71.63 61Q72.75 61 73.69 61.38Q74.63 61.75 75.25 62.38L75.25 62.38Q76 63.13 76.31 64.06Q76.63 65 76.63 66.25L76.63 66.25Q76.63 67.50 76.25 68.50Q75.88 69.50 75.13 70.25L75.13 70.25Q74.50 70.88 73.50 71.25Q72.50 71.63 71.38 71.63L71.38 71.63ZM71.38 62.88L71.38 62.88Q70.75 62.88 70.19 63.06Q69.63 63.25 69.25 63.75L69.25 63.75Q68.88 64.25 68.69 64.88Q68.50 65.50 68.50 66.38L68.50 66.38Q68.50 67.25 68.69 67.88Q68.88 68.50 69.25 68.88L69.25 68.88Q69.75 69.38 70.25 69.63Q70.75 69.88 71.38 69.88L71.38 69.88Q72.13 69.88 72.63 69.63Q73.13 69.38 73.50 68.88L73.50 68.88Q73.88 68.50 74.06 67.81Q74.25 67.13 74.25 66.38L74.25 66.38Q74.25 65.50 74.06 64.88Q73.88 64.25 73.50 63.75L73.50 63.75Q73.13 63.25 72.63 63.06Q72.13 62.88 71.38 62.88L71.38 62.88ZM84.88 61.25L84.88 63.38Q84.63 63.25 84.38 63.19Q84.13 63.13 83.75 63.13L83.75 63.13Q83.13 63.13 82.75 63.38Q82.38 63.63 82 64L82 64Q81.63 64.50 81.44 65.13Q81.25 65.75 81.25 66.50L81.25 66.50L81.25 71.38L79 71.38L79 61.25L81.25 61.25L81.25 63.38L81.38 63.38Q81.50 62.75 81.75 62.38Q82 62 82.38 61.63L82.38 61.63Q82.75 61.38 83.13 61.19Q83.50 61 84 61L84 61Q84.25 61 84.50 61.06Q84.75 61.13 84.88 61.25L84.88 61.25ZM94.50 57.13L94.50 59.13L89.13 59.13L89.13 63.50L94.13 63.50L94.13 65.50L89.13 65.50L89.13 71.38L86.75 71.38L86.75 57.13L94.50 57.13ZM99.13 56.38L99.13 71.38L96.75 71.38L96.75 56.38L99.13 56.38ZM106.63 71.63L106.63 71.63Q105.50 71.63 104.50 71.31Q103.50 71 102.88 70.25L102.88 70.25Q102.13 69.50 101.81 68.56Q101.50 67.63 101.50 66.50L101.50 66.50Q101.50 65.13 101.81 64.13Q102.13 63.13 102.88 62.38L102.88 62.38Q103.63 61.75 104.63 61.38Q105.63 61 106.88 61L106.88 61Q108.13 61 109 61.38Q109.88 61.75 110.63 62.38L110.63 62.38Q111.25 63.13 111.56 64.06Q111.88 65 111.88 66.25L111.88 66.25Q111.88 67.50 111.56 68.50Q111.25 69.50 110.50 70.25L110.50 70.25Q109.75 70.88 108.81 71.25Q107.88 71.63 106.63 71.63L106.63 71.63ZM106.75 62.88L106.75 62.88Q106 62.88 105.50 63.06Q105 63.25 104.63 63.75L104.63 63.75Q104.25 64.25 104 64.88Q103.75 65.50 103.75 66.38L103.75 66.38Q103.75 67.25 104 67.88Q104.25 68.50 104.63 68.88L104.63 68.88Q105 69.38 105.56 69.63Q106.13 69.88 106.75 69.88L106.75 69.88Q107.38 69.88 107.94 69.63Q108.50 69.38 108.88 68.88L108.88 68.88Q109.25 68.50 109.44 67.81Q109.63 67.13 109.63 66.38L109.63 66.38Q109.63 65.50 109.44 64.88Q109.25 64.25 108.88 63.75L108.88 63.75Q108.50 63.25 107.94 63.06Q107.38 62.88 106.75 62.88L106.75 62.88ZM125.75 61.25L128 61.25L125 71.38L122.63 71.38L120.75 64.50Q120.63 64.38 120.63 64.13Q120.63 63.88 120.63 63.63L120.63 63.63L120.63 63.63L120.50 63.63Q120.50 63.88 120.44 64.06Q120.38 64.25 120.38 64.50L120.38 64.50L120.38 64.50L118.38 71.38L116 71.38L113 61.25L115.38 61.25L117.25 68.63Q117.25 68.75 117.31 68.94Q117.38 69.13 117.38 69.50L117.38 69.50L117.38 69.50Q117.38 69.25 117.44 69Q117.50 68.75 117.63 68.50L117.63 68.50L119.63 61.25L121.75 61.25L123.63 68.63Q123.63 68.75 123.69 69Q123.75 69.25 123.75 69.50L123.75 69.50L123.88 69.50Q123.88 69.25 123.88 69.06Q123.88 68.88 124 68.63L124 68.63L125.75 61.25Z"/></svg>