<svg xmlns="http://www.w3.org/2000/svg" xmlns:xlink="http://www.w3.org/1999/xlink" width="128" height="128"><path fill="#000000" d="M62.13 0L62.13 0L7.13 31.38L7.13 60.50L39.50 41.75L39.50 114.88L62.13 128L62.13 0ZM120.88 31.38L65.88 0L65.88 128L88.50 114.88L88.50 80L104.75 89.38L104.63 63.88L88.50 54.63L88.50 41.75L120.88 60.50L120.88 31.38ZM61.13 1.75L61.13 1.75L61.13 126.25L40.50 114.38L40.50 40L8.13 58.75L8.13 32L61.13 1.75ZM66.88 1.75L66.88 1.75L119.88 32L119.88 58.75L87.50 40L87.50 55.25L103.63 64.50L103.75 87.63L87.50 78.25L87.50 114.38L66.88 126.25L66.88 1.75Z"/></svg>