<svg xmlns="http://www.w3.org/2000/svg" xmlns:xlink="http://www.w3.org/1999/xlink" width="128" height="128"><path fill="#000000" d="M10.88 76.75L6.50 74.25L6.50 59.38L0 63.13L0 57.50L10.88 51.25L10.88 76.75ZM11.88 51.25L11.88 76.75L16.25 74.25L16.25 67L19.50 68.88L19.38 64L16.25 62.13L16.25 59.38L22.75 63.13L22.75 57.50L11.88 51.25ZM35.13 57.13L35.13 59.13L31.13 59.13L31.13 71.50L28.75 71.50L28.75 59.13L24.63 59.13L24.63 57.13L35.13 57.13ZM43.75 66.13L43.75 67L36.75 67Q36.75 67.63 36.94 68.19Q37.13 68.75 37.63 69.13L37.63 69.13Q38 69.50 38.56 69.69Q39.13 69.88 39.88 69.88L39.88 69.88Q40.75 69.88 41.50 69.63Q42.25 69.38 42.88 69L42.88 69L42.88 70.75Q42.25 71.25 41.31 71.50Q40.38 71.75 39.25 71.75L39.25 71.75Q38.13 71.75 37.19 71.38Q36.25 71 35.63 70.25L35.63 70.25Q35 69.63 34.69 68.63Q34.38 67.63 34.38 66.38L34.38 66.38Q34.38 65.13 34.75 64.19Q35.13 63.25 35.75 62.50L35.75 62.50Q36.50 61.75 37.38 61.38Q38.25 61 39.25 61L39.25 61Q40.38 61 41.19 61.31Q42 61.63 42.50 62.38L42.50 62.38Q43.13 63 43.44 63.94Q43.75 64.88 43.75 66.13L43.75 66.13ZM36.75 65.38L41.50 65.38Q41.50 64.75 41.31 64.25Q41.13 63.75 40.88 63.38L40.88 63.38Q40.63 63 40.19 62.88Q39.75 62.75 39.25 62.75L39.25 62.75Q38.75 62.75 38.31 62.88Q37.88 63 37.63 63.38L37.63 63.38Q37.25 63.75 37 64.25Q36.75 64.75 36.75 65.38L36.75 65.38ZM55 65.25L55 71.50L52.63 71.50L52.63 65.75Q52.63 64.25 52.13 63.56Q51.63 62.88 50.63 62.88L50.63 62.88Q50.13 62.88 49.69 63.06Q49.25 63.25 48.88 63.63L48.88 63.63Q48.63 64 48.44 64.50Q48.25 65 48.25 65.63L48.25 65.63L48.25 71.50L45.88 71.50L45.88 61.25L48.25 61.25L48.25 62.88L48.25 62.88Q48.88 62 49.69 61.50Q50.50 61 51.63 61L51.63 61Q52.38 61 53.06 61.25Q53.75 61.50 54.13 62.13L54.13 62.13Q54.63 62.63 54.81 63.38Q55 64.13 55 65.25L55 65.25ZM57.25 71.13L57.25 71.13L57.25 69Q57.88 69.50 58.56 69.75Q59.25 70 60 70L60 70Q61.13 70 61.63 69.69Q62.13 69.38 62.13 68.75L62.13 68.75Q62.13 68.75 62.13 68.75Q62.13 68.75 62.13 68.75L62.13 68.75Q62.13 68.50 62.06 68.38Q62 68.25 62 68.13L62 68.13L62 68.13Q61.88 68 61.75 67.88Q61.63 67.75 61.50 67.75L61.50 67.75L61.50 67.75Q61.38 67.63 61.19 67.56Q61 67.50 60.75 67.38L60.75 67.38L60.75 67.38Q60 67.13 59.63 67Q59.25 66.88 59.13 66.75L59.13 66.75L59.88 67Q59.50 66.88 59.19 66.75Q58.88 66.63 58.63 66.50L58.63 66.50L58.75 66.50Q58.50 66.38 58.25 66.19Q58 66 57.88 65.88L57.88 65.88L57.88 65.88Q57.75 65.75 57.63 65.50Q57.50 65.25 57.38 65.13L57.38 65.13L57.38 65Q57.25 64.88 57.25 64.56Q57.25 64.25 57.25 64L57.25 64Q57.25 63.63 57.31 63.31Q57.38 63 57.50 62.75L57.50 62.75Q57.75 62.38 58 62.19Q58.25 62 58.50 61.75L58.50 61.75Q58.75 61.63 59.13 61.44Q59.50 61.25 59.75 61.25L59.75 61.25L59.88 61.13Q60.25 61.13 60.63 61.06Q61 61 61.38 61L61.38 61Q62.13 61 62.75 61.13Q63.38 61.25 63.88 61.38L63.88 61.38L63.88 63.50Q63.38 63.13 62.75 62.94Q62.13 62.75 61.38 62.75L61.38 62.75Q61.38 62.75 61.38 62.75Q61.38 62.75 61.38 62.75L61.38 62.75Q61.25 62.75 61 62.75Q60.75 62.75 60.63 62.75L60.63 62.75L60.63 62.75Q60.50 62.88 60.31 62.94Q60.13 63 60 63L60 63Q59.88 63.13 59.81 63.19Q59.75 63.25 59.63 63.38L59.63 63.38L59.63 63.38Q59.63 63.50 59.56 63.63Q59.50 63.75 59.50 63.88L59.50 63.88Q59.50 63.88 59.50 63.88Q59.50 63.88 59.50 63.88L59.50 63.88L59.50 63.88Q59.50 63.88 59.50 63.94Q59.50 64 59.50 64L59.50 64Q59.50 64.13 59.56 64.25Q59.63 64.38 59.63 64.50L59.63 64.50L59.63 64.50Q59.75 64.63 59.81 64.69Q59.88 64.75 60 64.88L60 64.88Q60.25 65 60.38 65.06Q60.50 65.13 60.75 65.25L60.75 65.25Q60.88 65.25 61.13 65.31Q61.38 65.38 61.63 65.50L61.63 65.50Q61.88 65.63 62.19 65.75Q62.50 65.88 62.75 66.13L62.75 66.13Q63 66.25 63.25 66.38Q63.50 66.50 63.63 66.75L63.63 66.75Q63.88 66.88 64 67.06Q64.13 67.25 64.25 67.50L64.25 67.50Q64.38 67.75 64.44 68Q64.50 68.25 64.50 68.63L64.50 68.63Q64.50 69 64.38 69.38Q64.25 69.75 64.13 70L64.13 70Q63.88 70.25 63.63 70.50Q63.38 70.75 63.13 71L63.13 71Q62.88 71.13 62.50 71.25Q62.13 71.38 61.75 71.50L61.75 71.50L61.75 71.50Q61.38 71.63 60.94 71.69Q60.50 71.75 60.13 71.75L60.13 71.75Q60.13 71.75 60.13 71.75Q60.13 71.75 60.13 71.75L60.13 71.75L60.13 71.75Q59.25 71.75 58.50 71.56Q57.75 71.38 57.25 71.13L57.25 71.13ZM71.13 71.75L71.13 71.75Q70 71.75 69.06 71.38Q68.13 71 67.38 70.25L67.38 70.25Q66.75 69.50 66.38 68.56Q66 67.63 66 66.50L66 66.50Q66 65.13 66.38 64.13Q66.75 63.13 67.50 62.38L67.50 62.38Q68.25 61.75 69.19 61.38Q70.13 61 71.38 61L71.38 61Q72.63 61 73.56 61.38Q74.50 61.75 75.13 62.38L75.13 62.38Q75.88 63.13 76.19 64.06Q76.50 65 76.50 66.25L76.50 66.25Q76.50 67.50 76.13 68.50Q75.75 69.50 75 70.25L75 70.25Q74.38 71 73.38 71.38Q72.38 71.75 71.13 71.75L71.13 71.75ZM71.25 62.88L71.25 62.88Q70.63 62.88 70.06 63.06Q69.50 63.25 69.13 63.75L69.13 63.75Q68.75 64.25 68.56 64.94Q68.38 65.63 68.38 66.38L68.38 66.38Q68.38 67.25 68.56 67.88Q68.75 68.50 69.13 68.88L69.13 68.88Q69.50 69.38 70.06 69.63Q70.63 69.88 71.25 69.88L71.25 69.88Q72 69.88 72.50 69.63Q73 69.38 73.38 69L73.38 69Q73.75 68.50 73.94 67.88Q74.13 67.25 74.13 66.38L74.13 66.38Q74.13 65.50 73.94 64.88Q73.75 64.25 73.38 63.75L73.38 63.75Q73 63.25 72.50 63.06Q72 62.88 71.25 62.88L71.25 62.88ZM84.75 61.25L84.75 63.38Q84.63 63.25 84.31 63.19Q84 63.13 83.63 63.13L83.63 63.13Q83.13 63.13 82.69 63.38Q82.25 63.63 81.88 64L81.88 64Q81.50 64.50 81.31 65.13Q81.13 65.75 81.13 66.50L81.13 66.50L81.13 71.50L78.88 71.50L78.88 61.25L81.13 61.25L81.13 63.38L81.25 63.38Q81.38 62.75 81.63 62.38Q81.88 62 82.25 61.63L82.25 61.63Q82.63 61.38 83 61.19Q83.38 61 83.88 61L83.88 61Q84.13 61 84.38 61.06Q84.63 61.13 84.75 61.25L84.75 61.25ZM94.38 57.13L94.38 59.13L89 59.13L89 63.50L94 63.50L94 65.50L89 65.50L89 71.50L86.63 71.50L86.63 57.13L94.38 57.13ZM99 56.25L99 71.50L96.75 71.50L96.75 56.25L99 56.25ZM106.63 71.75L106.63 71.75Q105.38 71.75 104.44 71.38Q103.50 71 102.75 70.25L102.75 70.25Q102.13 69.50 101.75 68.56Q101.38 67.63 101.38 66.50L101.38 66.50Q101.38 65.13 101.75 64.13Q102.13 63.13 102.88 62.38L102.88 62.38Q103.63 61.75 104.63 61.38Q105.63 61 106.88 61L106.88 61Q108 61 108.94 61.38Q109.88 61.75 110.50 62.38L110.50 62.38Q111.25 63.13 111.56 64.06Q111.88 65 111.88 66.25L111.88 66.25Q111.88 67.50 111.50 68.50Q111.13 69.50 110.50 70.25L110.50 70.25Q109.75 71 108.75 71.38Q107.75 71.75 106.63 71.75L106.63 71.75ZM106.63 62.88L106.63 62.88Q106 62.88 105.44 63.06Q104.88 63.25 104.50 63.75L104.50 63.75Q104.13 64.25 103.94 64.94Q103.75 65.63 103.75 66.38L103.75 66.38Q103.75 67.25 103.94 67.88Q104.13 68.50 104.50 68.88L104.50 68.88Q105 69.38 105.50 69.63Q106 69.88 106.63 69.88L106.63 69.88Q107.38 69.88 107.88 69.63Q108.38 69.38 108.75 69L108.75 69Q109.13 68.50 109.31 67.88Q109.50 67.25 109.50 66.38L109.50 66.38Q109.50 65.50 109.31 64.88Q109.13 64.25 108.75 63.75L108.75 63.75Q108.38 63.25 107.88 63.06Q107.38 62.88 106.63 62.88L106.63 62.88ZM125.75 61.25L128 61.25L125 71.50L122.50 71.50L120.75 64.50Q120.63 64.38 120.63 64.13Q120.63 63.88 120.63 63.63L120.63 63.63L120.50 63.63L120.50 63.63Q120.50 63.88 120.44 64.13Q120.38 64.38 120.38 64.50L120.38 64.50L120.38 64.50L118.38 71.50L116 71.50L113 61.25L115.38 61.25L117.25 68.63Q117.25 68.75 117.25 69Q117.25 69.25 117.38 69.50L117.38 69.50L117.38 69.50Q117.38 69.25 117.44 69Q117.50 68.75 117.50 68.63L117.50 68.63L119.63 61.25L121.75 61.25L123.63 68.63Q123.63 68.75 123.69 69Q123.75 69.25 123.75 69.50L123.75 69.50L123.88 69.50Q123.88 69.38 123.88 69.13Q123.88 68.88 124 68.63L124 68.63L125.75 61.25Z"/></svg>