<svg xmlns="http://www.w3.org/2000/svg" xmlns:xlink="http://www.w3.org/1999/xlink" width="128" height="128"><path fill="#ffffff" d="M66.25 76.75L66.25 76.75Q63.88 76.25 61.88 74.56Q59.88 72.88 59 70.63L59 70.63Q58.63 69.88 58.50 69.06Q58.38 68.25 58.38 66.88L58.38 66.88Q58.38 65.25 58.50 64.56Q58.63 63.88 59.38 62.50L59.38 62.50Q60.13 60.88 61.31 59.75Q62.50 58.63 64.13 57.75L64.13 57.75Q65.13 57.25 65.81 57.13Q66.50 57 68.63 57L68.63 57Q70.75 57 71.44 57.13Q72.13 57.25 73.25 57.88L73.25 57.88Q74 58.25 74.69 58.69Q75.38 59.13 75.63 59.38L75.63 59.38L76.38 60.13L75 61.63L73.63 63.13L72.50 62.38Q70.25 60.75 67.56 61.25Q64.88 61.75 63.75 64.13L63.75 64.13Q62.13 67.25 63.94 70.13Q65.75 73 69.25 72.63L69.25 72.63Q70.25 72.50 71.25 72.13Q72.25 71.75 72.88 71.13L72.88 71.13Q73.25 70.75 73.56 70.88Q73.88 71 74.88 72.13L74.88 72.13L76.38 73.63L75.25 74.75Q73.63 76.13 71.13 76.69Q68.63 77.25 66.25 76.75L66.25 76.75ZM81.50 76.75L81.50 76.75Q80.13 76.25 79.13 75.56Q78.13 74.88 77.50 73.63L77.50 73.63Q76.63 71.88 76.94 70.13Q77.25 68.38 78.63 67.13L78.63 67.13Q79.63 66.13 80.94 65.63Q82.25 65.13 85 64.75L85 64.75Q86.13 64.63 87.13 64.44Q88.13 64.25 88.38 64.13L88.38 64.13Q89.38 63.63 89.31 62.63Q89.25 61.63 88.13 61.13L88.13 61.13Q86.75 60.50 85 60.94Q83.25 61.38 82 62.50L82 62.50L81.38 63.13L80.38 62.38Q78.75 61.13 78.63 60.94Q78.50 60.75 78.88 60.13L78.88 60.13Q79.25 59.63 80.06 58.94Q80.88 58.25 82.13 57.63L82.13 57.63Q82.75 57.25 83.50 57.13Q84.25 57 85.75 57L85.75 57Q87.88 56.88 89.06 57.13Q90.25 57.38 91.50 58.13L91.50 58.13Q92.25 58.63 92.63 59.06Q93 59.50 93.38 60.38L93.38 60.38Q93.88 61.25 93.94 62.19Q94 63.13 94 66.88L94 66.88Q94 71 94.19 71.81Q94.38 72.63 95.13 72.75L95.13 72.75Q95.50 72.88 95.63 73.13Q95.75 73.38 95.75 74.38L95.75 74.38Q95.88 76 95.50 76.38Q95.13 76.75 93.63 76.75L93.63 76.75Q92.38 76.75 92 76.63Q91.63 76.50 91.13 75.88L91.13 75.88L90.38 75L89.38 75.63Q88.38 76.25 87.44 76.56Q86.50 76.88 84.88 77L84.88 77Q83.88 77 83.06 76.94Q82.25 76.88 81.50 76.75L81.50 76.75ZM86.75 72.63L86.75 72.63Q87.25 72.50 87.75 72.19Q88.25 71.88 88.50 71.50L88.50 71.50Q89.13 70.88 89.25 70.50Q89.38 70.13 89.38 69.13L89.38 69.13L89.38 67.50L88.38 67.88Q88.13 68.13 87.69 68.19Q87.25 68.25 87 68.25L87 68.25Q85.75 68.25 84.31 68.69Q82.88 69.13 82.38 69.50L82.38 69.50Q81.38 70.25 81.63 71.31Q81.88 72.38 83.13 72.75L83.13 72.75Q83.63 73 84.81 72.94Q86 72.88 86.75 72.63L86.75 72.63ZM100.38 76.75L100.38 76.75Q99.88 76.63 99.25 76.25Q98.63 75.88 98.25 75.50L98.25 75.50Q97 74.38 96.81 72.44Q96.63 70.50 96.63 61.25L96.63 61.25L96.63 50.13L101.25 50.13L101.38 71.75L102 72.25Q102.25 72.50 102.75 72.63Q103.25 72.75 103.75 72.75L103.75 72.75L104.88 72.75L104.88 76.75L104.13 77Q103.25 77.13 102.38 77.06Q101.50 77 100.38 76.75L100.38 76.75ZM111 76.88L111 76.88Q108.63 76.38 107.25 74.81Q105.88 73.25 105.88 71.13L105.88 71.13Q105.88 69.63 106.50 68.38Q107.13 67.13 108.25 66.50L108.25 66.50Q109.38 65.75 110.38 65.44Q111.38 65.13 113.88 64.75L113.88 64.75Q116.25 64.50 117.06 64.19Q117.88 63.88 118.13 63.25L118.13 63.25Q118.38 62.88 118.31 62.63Q118.25 62.38 118 62L118 62Q117.13 60.63 115.06 60.75Q113 60.88 111.25 62.25L111.25 62.25L110 63.13L108.63 61.88L107.13 60.63L108.63 59.38Q110.13 58 111.56 57.44Q113 56.88 115.25 56.88L115.25 56.88Q117.25 56.88 118.50 57.25Q119.75 57.63 120.88 58.50L120.88 58.50Q122.13 59.63 122.44 60.88Q122.75 62.13 122.75 66.38L122.75 66.38Q122.75 70.50 123 71.63Q123.25 72.75 124 72.75L124 72.75Q124.38 72.75 124.50 73Q124.63 73.25 124.63 74.50L124.63 74.50Q124.63 76 124.25 76.44Q123.88 76.88 122.50 76.88L122.50 76.88Q121.63 76.88 120.81 76.50Q120 76.13 119.63 75.50L119.63 75.50Q119.38 75.13 119.13 75.19Q118.88 75.25 118 75.75L118 75.75Q116.63 76.63 114.69 76.94Q112.75 77.25 111 76.88L111 76.88ZM116.50 72.38L116.50 72.38Q117.38 71.88 117.75 71.13Q118.13 70.38 118.25 69L118.25 69Q118.38 67.88 118.31 67.69Q118.25 67.50 117.88 67.75L117.88 67.75Q117.75 67.88 116.88 68.06Q116 68.25 114.88 68.38L114.88 68.38Q113.88 68.50 112.94 68.75Q112 69 111.63 69.25L111.63 69.25Q110.38 69.88 110.38 70.94Q110.38 72 111.75 72.63L111.75 72.63Q112.50 73 114.06 72.88Q115.63 72.75 116.50 72.38L116.50 72.38ZM44.88 76.63L44.88 76.63Q44 76.38 42.56 75.69Q41.13 75 40.50 74.38L40.50 74.38Q39.88 73.75 38.94 72.56Q38 71.38 38 71.13L38 71.13Q38 70.88 38.38 70.63Q38.75 70.38 39.25 70L39.25 70Q39.75 69.63 40.25 69.31Q40.75 69 41 68.88L41 68.88Q41.38 68.63 41.56 68.75Q41.75 68.88 42.38 69.75L42.38 69.75Q43.25 71 44.50 71.63Q45.75 72.25 47.75 72.38L47.75 72.38Q49.63 72.50 50.56 72.06Q51.50 71.63 52.13 70.50L52.13 70.50Q53 68.88 51.88 67.56Q50.75 66.25 47.25 64.88L47.25 64.88Q44.88 64 43.13 62.94Q41.38 61.88 40.75 60.75L40.75 60.75Q39.75 59.38 39.63 57.31Q39.50 55.25 40.38 53.75L40.38 53.75Q40.75 52.88 41.94 51.88Q43.13 50.88 44.25 50.38L44.25 50.38Q44.88 50 45.63 49.88Q46.38 49.75 47.88 49.75L47.88 49.75Q49.50 49.75 50.19 49.88Q50.88 50 51.88 50.50L51.88 50.50Q53 51 54.44 52.25Q55.88 53.50 55.88 54L55.88 54Q55.88 54.13 55.38 54.50Q54.88 54.88 54.13 55.38L54.13 55.38L52.50 56.50L52.13 55.88Q51 54.38 48.25 54.25Q45.50 54.13 44.75 55.63L44.75 55.63Q44.38 56.25 44.50 57Q44.63 57.75 45.13 58.38L45.13 58.38Q45.63 58.88 46.44 59.38Q47.25 59.88 50.75 61.25L50.75 61.25Q54 62.75 55.44 64.13Q56.88 65.50 57.25 67.75L57.25 67.75Q57.63 70.75 56.31 73.06Q55 75.38 52.13 76.25L52.13 76.25Q51 76.75 48.56 76.81Q46.13 76.88 44.88 76.63L44.88 76.63ZM3 88L3 82.13L3 76.13L7.50 76Q11.13 75.88 14.06 75.50Q17 75.13 20.88 74.50L20.88 74.50Q25.25 73.75 28.94 72.56Q32.63 71.38 33.13 70.63L33.13 70.63Q33.25 70.50 33.31 71.94Q33.38 73.38 33.38 76.25L33.38 76.25L33.38 82.25L32.63 82.75Q32.13 83.25 30.25 83.88Q28.38 84.50 26 85.13L26 85.13Q22.25 86 15 87Q7.75 88 4.63 88L4.63 88L3 88ZM3 73L3 67L3 61.13L7.50 61Q11.25 60.75 14.50 60.44Q17.75 60.13 21.63 59.38L21.63 59.38Q26 58.50 29.44 57.38Q32.88 56.25 33.13 55.50L33.13 55.50Q33.25 55.38 33.25 57.06Q33.25 58.75 33.25 61.13L33.25 61.13Q33.38 65 33.25 66.13Q33.13 67.25 32.88 67.63L32.88 67.63Q32.25 68.38 27.69 69.50Q23.13 70.63 17.75 71.50L17.75 71.50Q14.50 72 10.06 72.50Q5.63 73 4.13 73L4.13 73L3 73ZM3 57.88L3 52.13L3 46.25L3.75 46.13Q4.13 46.13 4.81 46.06Q5.50 46 6.25 46L6.25 46Q9.50 46 15.81 45.13Q22.13 44.25 26 43.25L26 43.25Q28.63 42.63 30.44 41.94Q32.25 41.25 32.88 40.63L32.88 40.63Q33.25 40.38 33.31 41.13Q33.38 41.88 33.38 46.13L33.38 46.13Q33.38 50.38 33.31 51.31Q33.25 52.25 32.88 52.63L32.88 52.63Q32.38 53.13 29.38 54Q26.38 54.88 23.63 55.50L23.63 55.50Q19.13 56.38 12.88 57.13Q6.63 57.88 4.13 57.88L4.13 57.88L3 57.88Z"/></svg>