<svg xmlns="http://www.w3.org/2000/svg" xmlns:xlink="http://www.w3.org/1999/xlink" width="128" height="128"><path fill="#ffffff" d="M25.38 126L25.38 110.63L25.38 95.13L37.25 94.63Q46.50 94.25 54.25 93.38Q62 92.50 72.13 90.88L72.13 90.88Q77.75 89.88 83.25 88.50L83.25 88.50Q88.75 87.25 93.13 85.81Q97.50 84.38 100.38 83.13L100.38 83.13Q103.38 81.75 103.88 80.75L103.88 80.75Q104.25 80.25 104.44 84Q104.63 87.75 104.63 95.38L104.63 95.38L104.63 111L102.88 112.38Q101.38 113.50 96.44 115.19Q91.50 116.88 85.25 118.50L85.25 118.50Q80.38 119.75 72.63 121L72.63 121Q64.88 122.38 56.69 123.50Q48.50 124.63 41.13 125.25L41.13 125.25Q33.75 126 29.75 126L29.75 126L25.38 126ZM25.38 86.75L25.38 71.38L25.38 55.88L37.25 55.38Q47.13 55 55.56 54.06Q64 53.13 74.13 51.25L74.13 51.25Q85.50 49.13 94.44 46.13Q103.38 43.13 104.13 41.25L104.13 41.25Q104.25 40.88 104.38 45.19Q104.50 49.50 104.50 55.88L104.50 55.88Q104.50 66 104.38 68.94Q104.25 71.88 103.38 72.63L103.38 72.63Q102.50 73.63 98.88 75L98.88 75Q95.25 76.38 89.88 77.75Q84.50 79.13 77.75 80.50L77.75 80.50Q71 81.88 64 83L64 83Q59.75 83.63 54.38 84.25L54.38 84.25Q49 85 43.88 85.56Q38.75 86.13 34.50 86.38L34.50 86.38Q30.25 86.75 28.38 86.75L28.38 86.75L25.38 86.75ZM25.38 47.50L25.38 32.38L25.38 17.25L27.50 16.75Q28.38 16.63 30.25 16.50Q32.13 16.38 33.75 16.38L33.75 16.38Q38.13 16.38 44.75 15.75L44.75 15.75Q51.50 15.13 58.88 14.13Q66.25 13.13 73.38 11.88L73.38 11.88Q80.50 10.50 85.38 9.25L85.38 9.25Q92.38 7.50 97 5.69Q101.63 3.88 103.38 2.38L103.38 2.38Q104.25 1.63 104.44 3.69Q104.63 5.75 104.63 16.88L104.63 16.88Q104.63 27.75 104.44 30.25Q104.25 32.75 103.25 33.63L103.25 33.63Q101.88 34.88 94.19 37.25Q86.50 39.63 79.25 41.13L79.25 41.13Q73.25 42.25 65.88 43.38L65.88 43.38Q58.38 44.50 51.19 45.44Q44 46.38 37.88 47L37.88 47Q31.63 47.50 28.38 47.50L28.38 47.50L25.38 47.50Z"/></svg>