<svg xmlns="http://www.w3.org/2000/svg" xmlns:xlink="http://www.w3.org/1999/xlink" width="128" height="128"><path fill="#000000" d="M104 4.50L63.50 27.63L23 4.50L23 105.38L63.50 82.25L104 105.38L104 4.50ZM64.75 66.50L44.50 55L64.75 43.38L85 55L64.75 66.50ZM37 43.13L37 26.63L51.50 34.88L37 43.13ZM37 82L37 66.75L50.38 74.38L37 82ZM91 66.75L91 82L77.63 74.38L91 66.75ZM76.50 34.88L76.50 34.88L91 26.63L91 43.13L76.50 34.88ZM11.88 110.63L11.88 110.63L15.25 110.63Q16.50 110.63 17.38 110.81Q18.25 111 18.75 111.38L18.75 111.38Q19.25 111.75 19.56 112.31Q19.88 112.88 19.88 113.63L19.88 113.63Q19.88 114.13 19.69 114.56Q19.50 115 19.25 115.38L19.25 115.38Q18.88 115.75 18.44 115.94Q18 116.13 17.50 116.25L17.50 116.25L17.50 116.38Q18.88 116.63 19.56 117.31Q20.25 118 20.25 119.25L20.25 119.25Q20.25 120 19.94 120.63Q19.63 121.25 19.13 121.75L19.13 121.75Q18.63 122.13 17.88 122.38Q17.13 122.63 16.13 122.63L16.13 122.63L11.88 122.63L11.88 110.63ZM13.25 115.75L13.25 115.75L15.63 115.75Q16.38 115.75 16.88 115.63Q17.38 115.50 17.75 115.25L17.75 115.25Q18 115.13 18.19 114.69Q18.38 114.25 18.38 113.75L18.38 113.75Q18.38 113.25 18.19 112.88Q18 112.50 17.63 112.25L17.63 112.25Q17.25 112 16.69 111.94Q16.13 111.88 15.38 111.88L15.38 111.88L13.25 111.88L13.25 115.75ZM13.25 117L13.25 117L13.25 121.38L15.75 121.38Q16.50 121.38 17.06 121.25Q17.63 121.13 18 120.88L18 120.88Q18.38 120.63 18.56 120.19Q18.75 119.75 18.75 119.13L18.75 119.13Q18.75 118.50 18.56 118.13Q18.38 117.75 18 117.50L18 117.50Q17.63 117.25 17.06 117.13Q16.50 117 15.75 117L15.75 117L13.25 117ZM31.75 122.63L30.38 122.63L28.88 118.75L24 118.75L22.63 122.63L21.13 122.63L25.88 110.63L27.13 110.63L31.75 122.63ZM28.38 117.50L28.38 117.50L27 113.88Q26.88 113.50 26.75 113.06Q26.63 112.63 26.50 112.13L26.50 112.13Q26.38 112.50 26.25 112.94Q26.13 113.38 26 113.88L26 113.88L24.50 117.50L28.38 117.50ZM38.63 111.75L38.63 111.75Q37.63 111.75 36.81 112.06Q36 112.38 35.50 113L35.50 113Q34.88 113.63 34.56 114.56Q34.25 115.50 34.25 116.63L34.25 116.63Q34.25 117.75 34.56 118.69Q34.88 119.63 35.38 120.25L35.38 120.25Q36 120.88 36.75 121.19Q37.50 121.50 38.50 121.50L38.50 121.50Q39.13 121.50 39.88 121.44Q40.63 121.38 41.38 121.13L41.38 121.13L41.38 122.38Q40.75 122.50 40 122.63Q39.25 122.75 38.38 122.75L38.38 122.75Q37 122.75 36 122.38Q35 122 34.25 121.13L34.25 121.13Q33.50 120.38 33.19 119.25Q32.88 118.13 32.88 116.63L32.88 116.63Q32.88 115.63 33 114.81Q33.13 114 33.50 113.38L33.50 113.38Q33.88 112.63 34.38 112.13Q34.88 111.63 35.50 111.25L35.50 111.25Q36.13 110.88 36.94 110.69Q37.75 110.50 38.63 110.50L38.63 110.50Q39.50 110.50 40.31 110.63Q41.13 110.75 41.88 111.13L41.88 111.13L41.25 112.38Q40.63 112 39.94 111.88Q39.25 111.75 38.63 111.75L38.63 111.75ZM52.75 122.63L52.75 122.63L51.13 122.63L46.75 116.75L45.38 117.88L45.38 122.63L44 122.63L44 110.63L45.38 110.63L45.38 116.63L50.88 110.63L52.50 110.63L47.75 115.88L52.75 122.63ZM54.38 110.63L54.38 110.63L57.75 110.63Q59 110.63 59.81 110.81Q60.63 111 61.25 111.38L61.25 111.38Q61.75 111.75 62 112.31Q62.25 112.88 62.25 113.63L62.25 113.63Q62.25 114.13 62.13 114.56Q62 115 61.63 115.38L61.63 115.38Q61.38 115.75 60.94 115.94Q60.50 116.13 59.88 116.25L59.88 116.25L59.88 116.38Q61.25 116.63 61.94 117.31Q62.63 118 62.63 119.25L62.63 119.25Q62.63 120 62.38 120.63Q62.13 121.25 61.63 121.75L61.63 121.75Q61 122.13 60.25 122.38Q59.50 122.63 58.50 122.63L58.50 122.63L54.38 122.63L54.38 110.63ZM55.75 115.75L55.75 115.75L58 115.75Q58.75 115.75 59.31 115.63Q59.88 115.50 60.13 115.25L60.13 115.25Q60.50 115.13 60.69 114.69Q60.88 114.25 60.88 113.75L60.88 113.75Q60.88 113.25 60.69 112.88Q60.50 112.50 60.13 112.25L60.13 112.25Q59.75 112 59.19 111.94Q58.63 111.88 57.75 111.88L57.75 111.88L55.75 111.88L55.75 115.75ZM58.13 117L55.75 117L55.75 121.38L58.25 121.38Q59 121.38 59.56 121.25Q60.13 121.13 60.50 120.88L60.50 120.88Q60.75 120.63 60.94 120.19Q61.13 119.75 61.13 119.13L61.13 119.13Q61.13 118.50 60.94 118.13Q60.75 117.75 60.38 117.50L60.38 117.50Q60 117.25 59.44 117.13Q58.88 117 58.13 117L58.13 117ZM75.63 116.63L75.63 116.63Q75.63 118 75.25 119.13Q74.88 120.25 74.25 121.13L74.25 121.13Q73.50 122 72.50 122.38Q71.50 122.75 70.13 122.75L70.13 122.75Q68.88 122.75 67.81 122.38Q66.75 122 66.13 121.13L66.13 121.13Q65.38 120.38 65 119.25Q64.63 118.13 64.63 116.63L64.63 116.63Q64.63 115.13 65 114Q65.38 112.88 66.13 112L66.13 112Q66.75 111.25 67.81 110.81Q68.88 110.38 70.13 110.38L70.13 110.38Q71.50 110.38 72.50 110.81Q73.50 111.25 74.25 112.13L74.25 112.13Q74.88 112.88 75.25 114Q75.63 115.13 75.63 116.63L75.63 116.63ZM66.13 116.63L66.13 116.63Q66.13 117.88 66.38 118.75Q66.63 119.63 67.13 120.25L67.13 120.25Q67.63 120.88 68.38 121.19Q69.13 121.50 70.13 121.50L70.13 121.50Q71.13 121.50 71.88 121.19Q72.63 120.88 73.13 120.25L73.13 120.25Q73.63 119.63 73.88 118.75Q74.13 117.88 74.13 116.63L74.13 116.63Q74.13 115.38 73.88 114.44Q73.63 113.50 73.13 112.88L73.13 112.88Q72.63 112.25 71.88 111.94Q71.13 111.63 70.13 111.63L70.13 111.63Q69.13 111.63 68.38 111.94Q67.63 112.25 67.13 113L67.13 113Q66.63 113.63 66.38 114.50Q66.13 115.38 66.13 116.63L66.13 116.63ZM87.75 110.63L87.75 122.63L86.13 122.63L79.50 112.50L79.50 112.50Q79.50 113.38 79.56 114.19Q79.63 115 79.63 115.75L79.63 115.75L79.63 122.63L78.38 122.63L78.38 110.63L79.88 110.63L86.50 120.63L86.50 120.63Q86.50 120.50 86.50 120.19Q86.50 119.88 86.50 119.25L86.50 119.25Q86.38 118.63 86.38 118.19Q86.38 117.75 86.38 117.50L86.38 117.50L86.38 110.63L87.75 110.63ZM97.75 122.63L97.75 122.63L91 122.63L91 110.63L97.75 110.63L97.75 111.88L92.38 111.88L92.38 115.75L97.38 115.75L97.38 117L92.38 117L92.38 121.38L97.75 121.38L97.75 122.63ZM100 121.75L100 121.75Q100 121.50 100.06 121.25Q100.13 121 100.25 120.88L100.25 120.88Q100.38 120.75 100.56 120.69Q100.75 120.63 100.88 120.63L100.88 120.63Q101.13 120.63 101.31 120.69Q101.50 120.75 101.63 120.88L101.63 120.88Q101.75 121 101.81 121.25Q101.88 121.50 101.88 121.75L101.88 121.75Q101.88 122 101.81 122.19Q101.75 122.38 101.63 122.63L101.63 122.63Q101.50 122.75 101.31 122.81Q101.13 122.88 100.88 122.88L100.88 122.88Q100.75 122.88 100.56 122.81Q100.38 122.75 100.25 122.63L100.25 122.63Q100.13 122.50 100.06 122.25Q100 122 100 121.75L100 121.75ZM103.13 125.75L103.13 125.75Q102.75 125.75 102.44 125.69Q102.13 125.63 101.88 125.50L101.88 125.50L101.88 124.38Q102.13 124.50 102.44 124.50Q102.75 124.50 103.13 124.50L103.13 124.50Q103.50 124.50 103.81 124.38Q104.13 124.25 104.38 124L104.38 124Q104.50 123.75 104.63 123.44Q104.75 123.13 104.75 122.63L104.75 122.63L104.75 110.63L106.13 110.63L106.13 122.50Q106.13 123.25 105.94 123.88Q105.75 124.50 105.38 124.88L105.38 124.88Q105 125.38 104.44 125.56Q103.88 125.75 103.13 125.75L103.13 125.75ZM116.13 119.38L116.13 119.38Q116.13 120.25 115.81 120.88Q115.50 121.50 115 121.88L115 121.88Q114.38 122.38 113.56 122.56Q112.75 122.75 111.88 122.75L111.88 122.75Q110.75 122.75 109.94 122.63Q109.13 122.50 108.50 122.25L108.50 122.25L108.50 120.88Q108.88 121 109.31 121.13Q109.75 121.25 110.13 121.38L110.13 121.38Q110.63 121.50 111.06 121.50Q111.50 121.50 111.88 121.50L111.88 121.50Q112.63 121.50 113.13 121.38Q113.63 121.25 114 121L114 121Q114.38 120.75 114.50 120.38Q114.63 120 114.63 119.50L114.63 119.50Q114.63 119.25 114.56 119Q114.50 118.75 114.38 118.50L114.38 118.50Q114.25 118.38 114.06 118.19Q113.88 118 113.63 117.75L113.63 117.75Q113.25 117.63 112.81 117.44Q112.38 117.25 111.75 117L111.75 117Q111 116.75 110.38 116.38Q109.75 116 109.38 115.63L109.38 115.63Q109 115.25 108.88 114.69Q108.75 114.13 108.75 113.50L108.75 113.50Q108.75 112.75 109 112.19Q109.25 111.63 109.75 111.25L109.75 111.25Q110.25 110.88 110.94 110.69Q111.63 110.50 112.50 110.50L112.50 110.50Q113.38 110.50 114.19 110.63Q115 110.75 115.75 111.13L115.75 111.13L115.38 112.38Q114.63 112 113.88 111.88Q113.13 111.75 112.50 111.75L112.50 111.75Q111.88 111.75 111.44 111.81Q111 111.88 110.75 112.13L110.75 112.13Q110.38 112.38 110.25 112.75Q110.13 113.13 110.13 113.50L110.13 113.50Q110.13 113.75 110.19 114.06Q110.25 114.38 110.38 114.50L110.38 114.50Q110.50 114.75 110.69 114.94Q110.88 115.13 111.13 115.25L111.13 115.25Q111.38 115.38 111.81 115.56Q112.25 115.75 112.75 116L112.75 116Q113.75 116.38 114.38 116.69Q115 117 115.38 117.38L115.38 117.38Q115.75 117.75 115.94 118.25Q116.13 118.75 116.13 119.38L116.13 119.38Z"/></svg>