<svg xmlns="http://www.w3.org/2000/svg" xmlns:xlink="http://www.w3.org/1999/xlink" width="128" height="128"><path fill="#ffffff" d="M64 1.50L64 1.50Q55.25 1.50 47.50 4.88L47.50 4.88Q39.75 8.25 33.94 14Q28.13 19.75 24.75 27.50L24.75 27.50Q21.50 35.25 21.50 44L21.50 44Q21.50 51.13 23.63 57.50L23.63 57.50Q25.75 63.88 29.63 69.19Q33.50 74.50 38.88 78.38L38.88 78.38Q44.25 82.38 50.50 84.38L50.50 84.38Q52.13 84.75 52.81 84Q53.50 83.25 53.50 82.38L53.50 82.38Q53.50 81.63 53.44 79.38Q53.38 77.13 53.38 74.50L53.38 74.50Q44.50 76.38 41.81 72.94Q39.13 69.50 39.13 69.50L39.13 69.50Q37.63 65.75 36 64.50Q34.38 63.25 34.38 63.25L34.38 63.25Q31.50 61.25 33.06 60.94Q34.63 60.63 34.63 60.63L34.63 60.63Q37.88 60.88 39.50 62.94Q41.13 65 41.13 65L41.13 65Q44 69.88 47.88 69.63Q51.75 69.38 53.50 68.50L53.50 68.50Q53.88 66.50 54.63 65.06Q55.38 63.63 56.25 62.88L56.25 62.88Q49.13 62 43 58Q36.88 54 36.88 41.88L36.88 41.88Q36.88 38.38 38.06 35.50Q39.25 32.63 41.25 30.38L41.25 30.38Q40.88 29.63 40.38 26.56Q39.88 23.50 41.63 19.13L41.63 19.13Q41.63 19.13 44.44 19.25Q47.25 19.38 53.38 23.50L53.38 23.50Q55.88 22.75 58.56 22.44Q61.25 22.13 64 22.13L64 22.13Q66.75 22.13 69.44 22.44Q72.13 22.75 74.63 23.50L74.63 23.50Q80.75 19.38 83.56 19.25Q86.38 19.13 86.38 19.13L86.38 19.13Q88.13 23.50 87.63 26.56Q87.13 29.63 86.75 30.38L86.75 30.38Q88.75 32.63 89.94 35.50Q91.13 38.38 91.13 41.88L91.13 41.88Q91.13 54.13 85 58.06Q78.88 62 71.75 62.88L71.75 62.88Q72.88 63.88 73.75 65.81Q74.63 67.75 74.63 70.75L74.63 70.75Q74.63 75 74.56 78.19Q74.50 81.38 74.50 82.38L74.50 82.38Q74.50 83.25 75.19 84Q75.88 84.75 77.50 84.38L77.50 84.38Q83.75 82.25 89.13 78.38L89.13 78.38Q94.50 74.50 98.38 69.19Q102.25 63.88 104.38 57.50L104.38 57.50Q106.50 51.13 106.50 44L106.50 44Q106.50 35.25 103.25 27.50L103.25 27.50Q99.88 19.75 94.06 14Q88.25 8.25 80.50 4.88L80.50 4.88Q72.75 1.50 64 1.50L64 1.50ZM37.63 62.63L37.63 62.63Q37.50 62.75 37.31 62.81Q37.13 62.88 36.88 62.75L36.88 62.75Q36.63 62.63 36.50 62.44Q36.38 62.25 36.50 62.13L36.50 62.13Q36.50 61.88 36.75 61.88Q37 61.88 37.25 62L37.25 62Q37.38 62 37.50 62.19Q37.63 62.38 37.63 62.63L37.63 62.63ZM39.25 64.50L39.25 64.50Q39.13 64.63 38.88 64.56Q38.63 64.50 38.38 64.38L38.38 64.38Q38.25 64.13 38.19 63.88Q38.13 63.63 38.25 63.50L38.25 63.50Q38.50 63.25 38.75 63.31Q39 63.38 39.13 63.63L39.13 63.63Q39.38 63.88 39.44 64.13Q39.50 64.38 39.25 64.50L39.25 64.50ZM41 67L41 67Q40.75 67.13 40.50 67Q40.25 66.88 40 66.63L40 66.63Q39.88 66.38 39.88 66.06Q39.88 65.75 40 65.63L40 65.63Q40.25 65.50 40.50 65.56Q40.75 65.63 41 66L41 66Q41.13 66.25 41.13 66.56Q41.13 66.88 41 67L41 67ZM43.25 69.38L43.25 69.38Q43.13 69.50 42.81 69.44Q42.50 69.38 42.13 69.13L42.13 69.13Q41.88 68.88 41.81 68.56Q41.75 68.25 41.88 68.13L41.88 68.13Q42.13 67.88 42.44 67.94Q42.75 68 43 68.25L43 68.25Q43.25 68.50 43.38 68.81Q43.50 69.13 43.25 69.38L43.25 69.38ZM46.50 70.75L46.50 70.75Q46.38 71 46.06 71.06Q45.75 71.13 45.38 71L45.38 71Q45 71 44.81 70.69Q44.63 70.38 44.63 70.13L44.63 70.13Q44.75 69.88 45.06 69.81Q45.38 69.75 45.75 69.88L45.75 69.88Q46.13 70 46.31 70.25Q46.50 70.50 46.50 70.75L46.50 70.75ZM49.88 71L49.88 71Q49.88 71.25 49.63 71.44Q49.38 71.63 49 71.63L49 71.63Q48.63 71.63 48.38 71.44Q48.13 71.25 48.13 71L48.13 71Q48.13 70.75 48.38 70.56Q48.63 70.38 49 70.38L49 70.38Q49.38 70.38 49.63 70.56Q49.88 70.75 49.88 71ZM53.13 70.38L53.13 70.38Q53.25 70.63 53 70.88Q52.75 71.13 52.38 71.25L52.38 71.25Q52 71.25 51.69 71.13Q51.38 71 51.38 70.75L51.38 70.75Q51.25 70.50 51.50 70.25Q51.75 70 52.13 70L52.13 70Q52.50 69.88 52.81 70Q53.13 70.13 53.13 70.38L53.13 70.38ZM24.88 108.25L24.88 108.25L14.13 108.25Q14 108.25 13.81 108.44Q13.63 108.63 13.63 108.75L13.63 108.75L13.63 114Q13.63 114.25 13.81 114.38Q14 114.50 14.13 114.50L14.13 114.50L18.38 114.50L18.38 121Q18.38 121 17.56 121.19Q16.75 121.38 14.75 121.38L14.75 121.38Q12.50 121.38 10 119.63Q7.50 117.88 7.50 110.88L7.50 110.88Q7.50 103.75 10.25 102Q13 100.25 16.13 100.25L16.13 100.25Q18.75 100.25 20.13 100.56Q21.50 100.88 22.25 101.13L22.25 101.13Q22.50 101.25 22.69 101.06Q22.88 100.88 22.88 100.63L22.88 100.63L24 95.63Q24 95.63 24 95.63Q24 95.63 24 95.63L24 95.63Q24 95.50 24 95.38Q24 95.25 23.88 95.25L23.88 95.25Q23.50 95 21.50 94.25Q19.50 93.50 14.75 93.50L14.75 93.50Q9.50 93.50 4.94 96.88Q0.38 100.25 0.38 111.25L0.38 111.25Q0.38 122.13 5.44 125.06Q10.50 128 15.75 128L15.75 128Q20.13 128 22.69 126.75Q25.25 125.50 25.25 125.50L25.25 125.50Q25.25 125.38 25.31 125.31Q25.38 125.25 25.38 125.13L25.38 125.13L25.38 108.75Q25.38 108.63 25.19 108.44Q25 108.25 24.88 108.25L24.88 108.25ZM79.50 94.75L79.50 94.75L73.50 94.75Q73.25 94.75 73.13 94.94Q73 95.13 73 95.25L73 95.25Q73 95.25 73 95.25Q73 95.25 73 95.38L73 95.38L73 107L63.63 107L63.63 95.38Q63.63 95.25 63.63 95.25Q63.63 95.25 63.63 95.25L63.63 95.25Q63.63 95.13 63.44 94.94Q63.25 94.75 63.13 94.75L63.13 94.75L57.13 94.75Q56.88 94.75 56.75 94.94Q56.63 95.13 56.63 95.25L56.63 95.25Q56.63 95.25 56.63 95.25Q56.63 95.25 56.63 95.38L56.63 95.38L56.63 126.88Q56.63 127 56.75 127.19Q56.88 127.38 57.13 127.38L57.13 127.38L63.13 127.38Q63.25 127.38 63.44 127.19Q63.63 127 63.63 126.88L63.63 126.88Q63.63 126.88 63.63 126.88Q63.63 126.88 63.63 126.88L63.63 126.88L63.63 113.38L73 113.38L73 126.88Q73 127 73.13 127.19Q73.25 127.38 73.50 127.38L73.50 127.38L79.50 127.38Q79.75 127.38 79.88 127.19Q80 127 80 126.88L80 126.88Q80 126.88 80 126.88Q80 126.88 80 126.88L80 126.88L80 95.25Q80 95.13 79.88 94.94Q79.75 94.75 79.50 94.75L79.50 94.75ZM32.38 95.50L32.38 95.50Q30.75 95.50 29.63 96.69Q28.50 97.88 28.50 99.50L28.50 99.50Q28.50 101.13 29.63 102.25Q30.75 103.38 32.38 103.38L32.38 103.38Q34 103.38 35.13 102.25Q36.25 101.13 36.25 99.50L36.25 99.50Q36.25 97.88 35.13 96.69Q34 95.50 32.38 95.50ZM35.25 105.13L35.25 105.13L29.25 105.13Q29.13 105.13 28.94 105.31Q28.75 105.50 28.75 105.75L28.75 105.75L28.75 126.50Q28.75 127 29 127.19Q29.25 127.38 29.63 127.38L29.63 127.38L35 127.38Q35.50 127.38 35.63 127.13Q35.75 126.88 35.75 126.50L35.75 126.50L35.75 105.63Q35.75 105.63 35.75 105.63Q35.75 105.63 35.75 105.63L35.75 105.63Q35.75 105.38 35.63 105.25Q35.50 105.13 35.25 105.13L35.25 105.13ZM102.88 105.13L102.88 105.13L96.88 105.13Q96.75 105.13 96.56 105.31Q96.38 105.50 96.38 105.63L96.38 105.63Q96.38 105.63 96.38 105.63Q96.38 105.63 96.38 105.63L96.38 105.63L96.38 121.13Q96.38 121.13 95.38 121.69Q94.38 122.25 92.75 122.25L92.75 122.25Q91.13 122.25 90.56 121.50Q90 120.75 90 119.13L90 119.13L90 105.63Q90 105.63 90 105.63Q90 105.63 90 105.63L90 105.63Q90 105.50 89.88 105.31Q89.75 105.13 89.50 105.13L89.50 105.13L83.50 105.13Q83.25 105.13 83.13 105.31Q83 105.50 83 105.63L83 105.63Q83 105.63 83 105.63Q83 105.63 83 105.63L83 105.63L83 120.25Q83 124.88 85.31 126.44Q87.63 128 91.25 128L91.25 128Q94.25 128 96.31 126.88Q98.38 125.75 98.38 125.75L98.38 125.75Q98.38 125.75 98.44 126.38Q98.50 127 98.63 127.13L98.63 127.13Q98.63 127.25 98.75 127.31Q98.88 127.38 99 127.38L99 127.38L102.88 127.38Q103.13 127.38 103.25 127.19Q103.38 127 103.38 126.88L103.38 126.88Q103.38 126.88 103.38 126.88Q103.38 126.88 103.38 126.88L103.38 126.88L103.38 105.63Q103.38 105.50 103.25 105.31Q103.13 105.13 102.88 105.13L102.88 105.13ZM119.25 104.50L119.25 104.50Q116.75 104.50 115.13 105.25Q113.50 106 113.50 106L113.50 106L113.50 95.25Q113.50 95.25 113.50 95.25Q113.50 95.25 113.50 95.25L113.50 95.25Q113.50 95.13 113.38 94.94Q113.25 94.75 113 94.75L113 94.75L107 94.75Q107 94.75 107 94.75Q107 94.75 107 94.75L107 94.75Q106.75 94.75 106.63 94.94Q106.50 95.13 106.50 95.25L106.50 95.25Q106.50 95.25 106.50 95.25Q106.50 95.25 106.50 95.25L106.50 95.25L106.50 126.88Q106.50 126.88 106.50 126.88Q106.50 126.88 106.50 126.88L106.50 126.88Q106.50 127 106.63 127.19Q106.75 127.38 107 127.38L107 127.38Q107 127.38 107 127.38Q107 127.38 107 127.38L107 127.38L111.25 127.38Q111.38 127.38 111.44 127.31Q111.50 127.25 111.63 127.13L111.63 127.13Q111.75 127 111.81 126.31Q111.88 125.63 111.88 125.63L111.88 125.63Q111.88 125.63 113.69 126.81Q115.50 128 119 128L119 128Q123.13 128 125.38 125.38Q127.63 122.75 127.63 115.50L127.63 115.50Q127.63 108.13 124.69 106.31Q121.75 104.50 119.25 104.50L119.25 104.50ZM116.88 122.25L116.88 122.25Q115.38 122.25 114.38 121.75Q113.38 121.25 113.38 121.25L113.38 121.25L113.38 111.25Q113.38 111.25 114.31 110.81Q115.25 110.38 116.50 110.25L116.50 110.25Q118.13 110.13 119.44 111.06Q120.75 112 120.75 115.88L120.75 115.88Q120.75 119.88 119.88 121.06Q119 122.25 116.88 122.25L116.88 122.25ZM53.25 122.13L53.25 122.13Q53 122.13 52.56 122.19Q52.13 122.25 51.63 122.25L51.63 122.25Q49.88 122.25 49.25 121.56Q48.63 120.88 48.63 119.88L48.63 119.88L48.63 111L53.13 111Q53.13 111 53.13 111Q53.13 111 53.13 111L53.13 111Q53.38 111 53.50 110.88Q53.63 110.75 53.63 110.50L53.63 110.50Q53.63 110.50 53.63 110.50Q53.63 110.50 53.63 110.50L53.63 110.50L53.63 105.63Q53.63 105.63 53.63 105.63Q53.63 105.63 53.63 105.63L53.63 105.63Q53.63 105.38 53.50 105.25Q53.38 105.13 53.13 105.13L53.13 105.13Q53.13 105.13 53.13 105.13Q53.13 105.13 53.13 105.13L53.13 105.13L48.63 105.13L48.63 99.13Q48.63 99 48.50 98.94Q48.38 98.88 48.25 98.88L48.25 98.88L42 98.88Q41.88 98.88 41.75 98.94Q41.63 99 41.63 99.13L41.63 99.13L41.63 105.38Q41.63 105.38 40.06 105.75Q38.50 106.13 38.38 106.13L38.38 106.13Q38.25 106.13 38.13 106.31Q38 106.50 38 106.63L38 106.63Q38 106.63 38 106.63Q38 106.63 38 106.63L38 106.63L38 110.50Q38 110.50 38 110.50Q38 110.50 38 110.50L38 110.50Q38 110.75 38.19 110.88Q38.38 111 38.50 111L38.50 111L41.63 111L41.63 120.38Q41.63 125.50 44.50 126.69Q47.38 127.88 49.88 127.88L49.88 127.88Q51 127.88 52.06 127.63Q53.13 127.38 53.38 127.38L53.38 127.38Q53.50 127.25 53.63 127.13Q53.75 127 53.75 126.88L53.75 126.88L53.75 122.63Q53.75 122.38 53.56 122.25Q53.38 122.13 53.25 122.13L53.25 122.13Z"/></svg>