<svg xmlns="http://www.w3.org/2000/svg" xmlns:xlink="http://www.w3.org/1999/xlink" width="128" height="128"><path fill="#000000" d="M64 5.13L64 5.13Q51.50 5.13 40.50 9.88L40.50 9.88Q29.50 14.63 21.31 22.81Q13.13 31 8.38 42L8.38 42Q3.63 53 3.63 65.50L3.63 65.50Q3.63 75.50 6.75 84.63L6.75 84.63Q9.75 93.63 15.25 101.13Q20.75 108.63 28.38 114.25L28.38 114.25Q35.88 119.75 44.88 122.75L44.88 122.75Q47.13 123.25 48.06 122.19Q49 121.13 49 119.88L49 119.88Q49 118.75 49 115.56Q49 112.38 49 108.63L49 108.63Q36.38 111.38 32.50 106.44Q28.63 101.50 28.63 101.50L28.63 101.50Q26.50 96.25 24.19 94.44Q21.88 92.63 21.88 92.63L21.88 92.63Q17.75 89.88 20.06 89.44Q22.38 89 22.38 89L22.38 89Q26.88 89.38 29.25 92.31Q31.63 95.25 31.63 95.25L31.63 95.25Q35.63 102.13 41.06 101.75Q46.50 101.38 49.13 100.25L49.13 100.25Q49.50 97.38 50.56 95.38Q51.63 93.38 53 92.13L53 92.13Q48 91.63 43 90.13L43 90.13Q38.13 88.63 34.19 85.38Q30.25 82.13 27.88 76.50L27.88 76.50Q25.50 71 25.50 62.38L25.50 62.38Q25.50 57.38 27.13 53.31Q28.75 49.25 31.75 46.13L31.75 46.13Q31.25 45 30.56 40.69Q29.88 36.38 32.25 30.13L32.25 30.13Q32.25 30.13 36.25 30.31Q40.25 30.50 48.88 36.38L48.88 36.38Q52.50 35.38 56.31 34.88Q60.13 34.38 64 34.25L64 34.25Q67.88 34.38 71.69 34.88Q75.50 35.38 79.13 36.38L79.13 36.38Q87.75 30.50 91.75 30.31Q95.75 30.13 95.75 30.13L95.75 30.13Q98.13 36.38 97.44 40.69Q96.75 45 96.25 46.13L96.25 46.13Q99.25 49.25 100.88 53.31Q102.50 57.38 102.50 62.38L102.50 62.38Q102.50 71 100.13 76.63L100.13 76.63Q97.75 82.13 93.81 85.38Q89.88 88.63 84.88 90.13L84.88 90.13Q80 91.63 75 92.13L75 92.13Q76.63 93.50 77.81 96.31Q79 99.13 79 103.38L79 103.38Q79 109.38 79 113.88Q79 118.38 79 119.88L79 119.88Q79 121.13 79.94 122.19Q80.88 123.25 83.13 122.75L83.13 122.75Q92.13 119.75 99.75 114.25L99.75 114.25Q107.25 108.63 112.75 101.13Q118.25 93.63 121.38 84.63L121.38 84.63Q124.38 75.50 124.38 65.50L124.38 65.50Q124.38 53 119.63 42L119.63 42Q114.88 31 106.69 22.81Q98.50 14.63 87.50 9.88L87.50 9.88Q76.50 5.13 64 5.13L64 5.13ZM26.50 91.75L26.50 91.75Q26.38 92 26.06 92.06Q25.75 92.13 25.50 92L25.50 92Q25.13 91.88 24.94 91.56Q24.75 91.25 24.88 91.13L24.88 91.13Q25 90.88 25.31 90.81Q25.63 90.75 26 90.88L26 90.88Q26.25 91 26.44 91.31Q26.63 91.63 26.50 91.75L26.50 91.75ZM28.88 94.50L28.88 94.50Q28.75 94.75 28.38 94.69Q28 94.63 27.75 94.25L27.75 94.25Q27.38 94 27.31 93.63Q27.25 93.25 27.50 93L27.50 93Q27.75 92.75 28.13 92.88Q28.50 93 28.75 93.25L28.75 93.25Q29 93.63 29.06 94Q29.13 94.38 28.88 94.50L28.88 94.50ZM31.25 98L31.25 98Q31 98.25 30.63 98.06Q30.25 97.88 30 97.50L30 97.50Q29.63 97.13 29.63 96.69Q29.63 96.25 30 96L30 96Q30.25 95.88 30.63 96Q31 96.13 31.38 96.50L31.38 96.50Q31.63 97 31.63 97.44Q31.63 97.88 31.25 98L31.25 98ZM34.63 101.38L34.63 101.38Q34.38 101.63 33.88 101.56Q33.38 101.50 33 101.13L33 101.13Q32.63 100.75 32.50 100.31Q32.38 99.88 32.63 99.63L32.63 99.63Q32.88 99.38 33.38 99.44Q33.88 99.50 34.25 99.88L34.25 99.88Q34.63 100.25 34.75 100.69Q34.88 101.13 34.63 101.38L34.63 101.38ZM39.13 103.38L39.13 103.38Q39 103.63 38.56 103.81Q38.13 104 37.63 103.75L37.63 103.75Q37 103.63 36.75 103.25Q36.50 102.88 36.63 102.63L36.63 102.63Q36.63 102.25 37.13 102.06Q37.63 101.88 38.13 102.13L38.13 102.13Q38.63 102.25 38.88 102.63Q39.13 103 39.13 103.38ZM44 103.63L44 103.63Q44 104 43.63 104.31Q43.25 104.63 42.75 104.63L42.75 104.63Q42.25 104.63 41.81 104.38Q41.38 104.13 41.38 103.75L41.38 103.75Q41.38 103.38 41.75 103.13Q42.13 102.88 42.75 102.75L42.75 102.75Q43.25 102.75 43.63 103.06Q44 103.38 44 103.63L44 103.63ZM48.63 102.88L48.63 102.88Q48.63 103.25 48.31 103.56Q48 103.88 47.50 104L47.50 104Q47 104.13 46.56 103.94Q46.13 103.75 46 103.38L46 103.38Q46 103 46.31 102.69Q46.63 102.38 47.13 102.25L47.13 102.25Q47.75 102.13 48.13 102.31Q48.50 102.50 48.63 102.88L48.63 102.88Z"/></svg>