<svg xmlns="http://www.w3.org/2000/svg" xmlns:xlink="http://www.w3.org/1999/xlink" width="128" height="128"><path fill="#000000" d="M4.25 7.38L4.25 7.38L14.50 95.50L63.88 120.63L64.13 120.63L113.50 95.50L123.75 7.38L4.25 7.38ZM5.38 8.38L5.38 8.38L122.63 8.38L112.63 94.75L64 119.63L15.38 94.75L5.38 8.38ZM59.63 37L59.63 37L55.75 38.75L21.75 54.50Q21 54.75 20.56 55.38Q20.13 56 20 56.88L20 56.88L20 56.88L20 62.75L20 62.75Q20.13 63.63 20.63 64.25Q21.13 64.88 21.75 65.13L21.75 65.13L21.75 65.13Q21.75 65.13 21.75 65.13Q21.75 65.13 21.75 65.13L21.75 65.13L55.38 80.75L57.88 81.75L59.38 79.13L64.75 68.63L73.75 50.88L93.88 59.75L70.38 70.25L70 72.25L70 78.50L70.38 82.38L73.50 80.88L106.25 65.13Q106.63 65 106.88 64.69Q107.13 64.38 107.13 64L107.13 64Q107.25 63.75 107.25 63.38Q107.25 63 107.25 62.75L107.25 62.75L107.25 56.88Q107.25 56.63 107.25 56.25Q107.25 55.88 107.13 55.50L107.13 55.50Q107 55.25 106.75 54.94Q106.50 54.63 106.25 54.50L106.25 54.50L106.25 54.50L106.25 54.50L73.75 39L71.50 37.88L70.13 40.50L63.88 53.25L56.13 68.75L35.75 59.75L60 49L59.63 47.38L59.63 37ZM58.63 38.50L58.63 38.50L58.63 47.50L58.88 48.50L57.63 49L33.25 59.75L56.50 70.13L64.75 53.63L71 41L71.88 39.13L73.25 39.88L105.75 55.38Q106 55.38 106.06 55.50Q106.13 55.63 106.13 55.88L106.13 55.88Q106.25 56 106.25 56.31Q106.25 56.63 106.25 56.88L106.25 56.88L106.25 62.75Q106.25 63 106.25 63.31Q106.25 63.63 106.25 63.75L106.25 63.75Q106.13 64 106.06 64.06Q106 64.13 105.75 64.25L105.75 64.25L105.75 64.25L71.25 80.88L71 78.38L71 72.25L71.25 71L72.13 70.63L96.25 59.75L73.25 49.50L63.88 68.13L58.50 78.63L57.50 80.50L55.88 79.75L22.25 64.25Q21.75 64 21.44 63.63Q21.13 63.25 21 62.63L21 62.63L21 62.63L21 57Q21.13 56.38 21.44 56Q21.75 55.63 22.13 55.38L22.13 55.38L22.13 55.38L58.63 38.50Z"/></svg>