<svg xmlns="http://www.w3.org/2000/svg" xmlns:xlink="http://www.w3.org/1999/xlink" width="128" height="128"><path fill="#000000" d="M64 26.75L11.63 26.75L20.63 103.88L63.88 126L64.13 126L107.38 103.88L116.38 26.75L64 26.75ZM21.50 103.38L12.63 27.63L115.38 27.63L106.50 103.38L64 125L21.50 103.38ZM60.25 61.75L60.25 52.75L56.75 54.25L27 68Q26.38 68.25 26 68.81Q25.63 69.38 25.50 70.13L25.50 70.13L25.50 70.13L25.50 75.25L25.50 75.25Q25.63 76 26 76.56Q26.38 77.13 27 77.38L27 77.38L27 77.38L27 77.38L56.50 91L58.63 92L59.88 89.63L64.75 80.38L72.50 64.88L90.13 72.75L69.50 81.88L69.25 83.50L69.25 89L69.63 92.38L72.25 91.13L100.88 77.38Q101.25 77.25 101.50 77Q101.75 76.75 101.75 76.38L101.75 76.38Q101.88 76.13 101.88 75.81Q101.88 75.50 101.88 75.25L101.88 75.25L101.88 70.13Q101.88 69.88 101.88 69.56Q101.88 69.25 101.75 69L101.75 69Q101.63 68.63 101.44 68.38Q101.25 68.13 101 68L101 68L101 68L101 68L72.50 54.50L70.50 53.50L69.38 55.88L63.88 66.88L57 80.50L39.25 72.75L60.50 63.25L60.25 61.75ZM57.13 55L59.38 54.13L59.38 61.88L59.50 62.75L58.50 63.25L37 72.75L57.50 81.75L64.75 67.25L70.13 56.25L70.88 54.63L72.13 55.25L100.63 68.75Q100.75 68.88 100.81 68.94Q100.88 69 100.88 69.25L100.88 69.25Q101 69.38 101 69.63Q101 69.88 101 70.13L101 70.13L101 75.25Q101 75.50 101 75.75Q101 76 100.88 76.13L100.88 76.13Q100.88 76.38 100.81 76.44Q100.75 76.50 100.63 76.63L100.63 76.63L100.63 76.63L70.38 91.13L70.13 89L70.13 83.63L70.38 82.50L71.13 82.25L92.25 72.75L72.13 63.75L63.88 80L59.13 89.13L58.25 90.88L56.88 90.25L27.38 76.63Q27 76.38 26.75 76Q26.50 75.63 26.38 75.25L26.38 75.25L26.38 75.25L26.38 70.25Q26.50 69.75 26.75 69.38Q27 69 27.38 68.88L27.38 68.88L27.38 68.88L57.13 55ZM33.50 1.38L33.50 1.38Q33.50 1.38 33.50 1.38Q33.50 1.38 33.50 1.38L33.50 1.38Q32.63 1.38 31.81 1.44Q31 1.50 30.25 1.75L30.25 1.75L30.38 1.63Q29.63 1.88 28.88 2.06Q28.13 2.25 27.50 2.63L27.50 2.63Q26.75 2.88 26.13 3.19Q25.50 3.50 25 3.88L25 3.88L25 3.88Q24.38 4.25 23.88 4.63Q23.38 5 23 5.50L23 5.50L23 5.50Q22.63 5.88 22.25 6.31Q21.88 6.75 21.63 7.13L21.63 7.13L21.63 7.13L21.63 7.13Q21.38 7.63 21.25 8.06Q21.13 8.50 21.13 8.88L21.13 8.88Q21.13 9.25 21.25 9.56Q21.38 9.88 21.63 10.13L21.63 10.13Q21.88 10.25 22.19 10.38Q22.50 10.50 22.88 10.50L22.88 10.50Q23.25 10.50 23.63 10.38Q24 10.25 24.38 10.13L24.38 10.13Q24.63 9.88 24.88 9.69Q25.13 9.50 25.38 9.13L25.38 9.13Q25.50 8.88 25.75 8.63Q26 8.38 26.25 8L26.25 8L26.25 8Q26.38 7.75 26.63 7.44Q26.88 7.13 27.13 6.88L27.13 6.88Q27.38 6.63 27.69 6.44Q28 6.25 28.25 6L28.25 6L28.25 6Q28.63 5.88 29 5.69Q29.38 5.50 29.88 5.38L29.88 5.38Q30.13 5.25 30.56 5.13Q31 5 31.50 4.88L31.50 4.88L31.50 4.88L31.50 4.88L31.50 4.88Q31.88 4.75 32.38 4.75Q32.88 4.75 33.25 4.75L33.25 4.75L33.38 4.75Q33.75 4.75 34.13 4.81Q34.50 4.88 34.88 5L34.88 5Q35.13 5.13 35.44 5.31Q35.75 5.50 35.88 5.75L35.88 5.75L35.88 5.75Q36.13 6 36.25 6.31Q36.38 6.63 36.50 7L36.50 7L36.50 7L36.50 7Q36.63 7.38 36.69 7.75Q36.75 8.13 36.75 8.50L36.75 8.50Q36.75 8.50 36.75 8.56Q36.75 8.63 36.75 8.63L36.75 8.63L36.75 8.63Q36.75 9.13 36.63 9.69Q36.50 10.25 36.38 10.75L36.38 10.75L36.38 10.88L36.38 10.88Q36.13 11.38 35.88 12Q35.63 12.63 35.25 13.25L35.25 13.25L35.25 13.25L35.25 13.25Q34.88 13.88 34.44 14.44Q34 15 33.50 15.63L33.50 15.63Q33 16.13 32.44 16.63Q31.88 17.13 31.38 17.63L31.38 17.63L31.25 17.63Q30.75 18 30.13 18.38Q29.50 18.75 28.75 19.13L28.75 19.13L28.75 19.13Q28.38 19.25 27.94 19.38Q27.50 19.50 27.13 19.50L27.13 19.50Q27.25 19.38 27.38 19.19Q27.50 19 27.63 18.75L27.63 18.75L27.63 18.75Q27.88 18.38 28.19 17.94Q28.50 17.50 28.88 17L28.88 17L29 16.75L29 16.75Q29.25 16.13 29.56 15.63Q29.88 15.13 30.25 14.63L30.25 14.63L30.25 14.63Q30.50 14.13 30.75 13.63Q31 13.13 31.38 12.63L31.38 12.63L31.38 12.63Q31.63 12.25 31.81 11.81Q32 11.38 32.25 11L32.25 11L32.25 11L32.88 9.88L32.88 9.88Q33 9.63 33.13 9.38Q33.25 9.13 33.25 8.88L33.25 8.88Q33.38 8.63 33.44 8.38Q33.50 8.13 33.50 7.88L33.50 7.88Q33.50 7.88 33.50 7.88Q33.50 7.88 33.50 7.88L33.50 7.88Q33.50 7.50 33.38 7.19Q33.25 6.88 33.13 6.63L33.13 6.63L33.13 6.63Q32.88 6.38 32.50 6.25Q32.13 6.13 31.75 6.13L31.75 6.13Q31.63 6.13 31.50 6.13Q31.38 6.13 31.25 6.13L31.25 6.13Q31 6.25 30.81 6.31Q30.63 6.38 30.50 6.50L30.50 6.50L30.50 6.50L30.50 6.50Q30.25 6.63 30.06 6.81Q29.88 7 29.63 7.13L29.63 7.13L29.63 7.13L29.63 7.13Q29.38 7.38 29.13 7.69Q28.88 8 28.75 8.25L28.75 8.25L28.75 8.25L28.75 8.38L22.75 20L22.88 20Q22.75 20.13 22.63 20.38Q22.50 20.63 22.38 20.75L22.38 20.75L22.38 20.88Q22.38 21 22.31 21.25Q22.25 21.50 22.25 21.75L22.25 21.75Q22.25 22.13 22.38 22.44Q22.50 22.75 22.75 23L22.75 23Q23 23.25 23.31 23.38Q23.63 23.50 24 23.50L24 23.50Q25.38 23.50 26.63 23.38Q27.88 23.25 29 22.88L29 22.88Q30.13 22.63 31.19 22.19Q32.25 21.75 33.25 21.13L33.25 21.13Q34.25 20.63 35.06 20Q35.88 19.38 36.63 18.63L36.63 18.63L36.63 18.63Q37.38 17.88 38 17.13Q38.63 16.38 39.13 15.63L39.13 15.63L39.13 15.50L39.13 15.50Q39.63 14.75 40 13.94Q40.38 13.13 40.63 12.25L40.63 12.25L40.75 12.13Q41 11.38 41.13 10.56Q41.25 9.75 41.25 8.88L41.25 8.88Q41.25 8.88 41.25 8.88Q41.25 8.88 41.25 8.88L41.25 8.88Q41.25 8 41.13 7.31Q41 6.63 40.75 5.88L40.75 5.88L40.75 6Q40.50 5.25 40.13 4.63Q39.75 4 39.38 3.50L39.38 3.50L39.38 3.50Q38.88 3 38.25 2.63Q37.63 2.25 36.88 1.88L36.88 1.88Q36.13 1.63 35.31 1.50Q34.50 1.38 33.50 1.38L33.50 1.38ZM33.50 2.38L33.50 2.38Q34.38 2.38 35.13 2.50Q35.88 2.63 36.50 2.88L36.50 2.88Q37.13 3.13 37.69 3.44Q38.25 3.75 38.63 4.25L38.63 4.25L38.63 4.25L38.63 4.25Q39 4.63 39.31 5.13Q39.63 5.63 39.88 6.25L39.88 6.25L39.88 6.25L39.88 6.25L39.88 6.25Q40 6.88 40.13 7.50Q40.25 8.13 40.25 8.88L40.25 8.88Q40.25 8.88 40.25 8.88Q40.25 8.88 40.25 8.88L40.25 8.88L40.25 8.88Q40.25 9.63 40.13 10.38Q40 11.13 39.75 11.88L39.75 11.88L39.75 11.88L39.75 11.88Q39.50 12.75 39.13 13.56Q38.75 14.38 38.25 15L38.25 15L38.38 15L38.38 15L38.38 15Q37.75 15.75 37.19 16.50Q36.63 17.25 36 17.88L36 17.88L36 17.88L36 17.88Q35.25 18.50 34.50 19.13Q33.75 19.75 32.88 20.25L32.88 20.25L32.75 20.25L32.75 20.25Q31.88 20.75 30.88 21.19Q29.88 21.63 28.75 22L28.75 22L28.75 22Q27.63 22.25 26.44 22.38Q25.25 22.50 24 22.50L24 22.50Q23.75 22.50 23.63 22.50Q23.50 22.50 23.50 22.38L23.50 22.38L23.50 22.38L23.50 22.38Q23.38 22.25 23.31 22.13Q23.25 22 23.25 21.75L23.25 21.75Q23.25 21.63 23.25 21.50Q23.25 21.38 23.38 21.13L23.38 21.13Q23.38 21 23.50 20.88Q23.63 20.75 23.63 20.50L23.63 20.50L23.75 20.50L29.63 8.88Q29.75 8.50 29.94 8.31Q30.13 8.13 30.25 7.88L30.25 7.88Q30.50 7.75 30.63 7.63Q30.75 7.50 31 7.38L31 7.38L31 7.38Q31.13 7.25 31.25 7.19Q31.38 7.13 31.50 7.13L31.50 7.13L31.50 7.13L31.50 7.13Q31.50 7.13 31.56 7.13Q31.63 7.13 31.75 7.13L31.75 7.13L31.75 7.13Q32 7.13 32.13 7.19Q32.25 7.25 32.25 7.25L32.25 7.25Q32.38 7.38 32.44 7.50Q32.50 7.63 32.50 7.88L32.50 7.88Q32.50 8 32.44 8.19Q32.38 8.38 32.38 8.63L32.38 8.63Q32.25 8.75 32.19 9Q32.13 9.25 32 9.38L32 9.38L32 9.38L32 9.38L32 9.38L31.38 10.50L31.38 10.50Q31 11.13 30.75 11.56Q30.50 12 30.25 12.50L30.25 12.50L30.50 12.13L30.50 12.13L30.50 12.13Q30.25 12.63 29.94 13.13Q29.63 13.63 29.38 14.13L29.38 14.13L29.38 14.13Q28.88 14.88 28.56 15.44Q28.25 16 28 16.50L28 16.50L28.13 16.13L28.13 16.13L28.13 16.13Q27.75 16.88 27.38 17.44Q27 18 26.75 18.38L26.75 18.38L26.88 18.25L26.88 18.25Q26.50 18.75 26.13 19.25Q25.75 19.75 25.50 20.25L25.50 20.25L25.50 20.13L24.88 21L26 20.88Q26.88 20.75 27.69 20.56Q28.50 20.38 29.25 20L29.25 20L29.13 20Q29.88 19.63 30.63 19.25Q31.38 18.88 32 18.38L32 18.38L31.88 18.38L31.88 18.38Q32.63 17.88 33.19 17.38Q33.75 16.88 34.25 16.25L34.25 16.25L34.25 16.25Q34.75 15.63 35.19 15.06Q35.63 14.50 36.13 13.75L36.13 13.75L36.13 13.75L36.13 13.75Q36.50 13.13 36.75 12.50Q37 11.88 37.25 11.25L37.25 11.25L37.25 11.13Q37.50 10.50 37.63 9.88Q37.75 9.25 37.75 8.63L37.75 8.63Q37.75 8.13 37.69 7.63Q37.63 7.13 37.50 6.75L37.50 6.75L37.50 6.75Q37.38 6.25 37.13 5.88Q36.88 5.50 36.63 5.13L36.63 5.13L36.63 5.13Q36.38 4.75 36.06 4.50Q35.75 4.25 35.25 4.13L35.25 4.13L35.25 4.13Q34.88 3.88 34.38 3.81Q33.88 3.75 33.25 3.75L33.25 3.75Q32.88 3.75 32.38 3.75Q31.88 3.75 31.38 3.88L31.38 3.88Q30.88 4 30.38 4.13Q29.88 4.25 29.50 4.38L29.50 4.38Q29 4.50 28.56 4.75Q28.13 5 27.75 5.13L27.75 5.13L27.75 5.13L27.75 5.13Q27.38 5.38 27.06 5.63Q26.75 5.88 26.50 6.13L26.50 6.13L26.50 6.13L26.50 6.13Q26.13 6.50 25.88 6.81Q25.63 7.13 25.38 7.38L25.38 7.38L25.38 7.38Q25.13 7.75 24.94 8Q24.75 8.25 24.63 8.50L24.63 8.50L24.63 8.50L24.63 8.50Q24.38 8.75 24.19 8.94Q24 9.13 23.75 9.25L23.75 9.25Q23.63 9.38 23.38 9.44Q23.13 9.50 22.88 9.50L22.88 9.50Q22.63 9.50 22.50 9.44Q22.38 9.38 22.25 9.38L22.25 9.38Q22.25 9.25 22.19 9.19Q22.13 9.13 22.13 8.88L22.13 8.88Q22.13 8.63 22.25 8.31Q22.38 8 22.50 7.63L22.50 7.63L22.50 7.63L22.50 7.63Q22.75 7.25 23.06 6.88Q23.38 6.50 23.75 6.25L23.75 6.25Q24.13 5.75 24.56 5.44Q25 5.13 25.50 4.75L25.50 4.75L25.50 4.75L25.50 4.75Q26 4.38 26.56 4.06Q27.13 3.75 27.75 3.50L27.75 3.50L27.88 3.50L27.88 3.50L27.88 3.50Q28.38 3.25 29.06 3.06Q29.75 2.88 30.50 2.63L30.50 2.63L30.63 2.63Q31.25 2.50 32 2.44Q32.75 2.38 33.50 2.38L33.50 2.38Q33.50 2.38 33.50 2.38Q33.50 2.38 33.50 2.38L33.50 2.38L33.50 2.38ZM67.63 7.63L67.63 7.63Q67.63 7.63 67.63 7.63Q67.63 7.63 67.50 7.63L67.50 7.63Q67.25 7.63 67 7.69Q66.75 7.75 66.50 7.88L66.50 7.88L66.50 7.88L66.50 7.88Q66.13 8.13 65.81 8.50Q65.50 8.88 65.25 9.25L65.25 9.25L65.25 9.25L65.25 9.25Q65.25 9.50 65.19 9.69Q65.13 9.88 65.13 10.13L65.13 10.13L65.13 10.13L65.13 10.13Q65.13 10.50 65.31 10.75Q65.50 11 65.75 11.25L65.75 11.25L65.75 11.25L65.75 11.25Q66 11.50 66.38 11.56Q66.75 11.63 67.25 11.63L67.25 11.63Q67.25 11.63 67.31 11.63Q67.38 11.63 67.38 11.63L67.38 11.63Q67.63 11.63 67.88 11.56Q68.13 11.50 68.38 11.38L68.38 11.38L68.38 11.38Q68.50 11.25 68.69 11.13Q68.88 11 69 10.75L69 10.75L69 10.75L69 10.75Q69.25 10.63 69.31 10.44Q69.38 10.25 69.50 10L69.50 10Q69.50 9.88 69.56 9.69Q69.63 9.50 69.63 9.25L69.63 9.25Q69.63 9.25 69.63 9.25Q69.63 9.25 69.63 9.25L69.63 9.25Q69.63 8.88 69.50 8.63Q69.38 8.38 69.13 8.13L69.13 8.13L69.13 8.13Q68.88 7.88 68.50 7.75Q68.13 7.63 67.63 7.63L67.63 7.63ZM67.63 8.63L67.63 8.63Q68 8.63 68.19 8.69Q68.38 8.75 68.38 8.88L68.38 8.88L68.38 8.88Q68.50 8.88 68.56 9Q68.63 9.13 68.63 9.25L68.63 9.25Q68.63 9.38 68.56 9.50Q68.50 9.63 68.50 9.75L68.50 9.75L68.50 9.75L68.50 9.75Q68.50 9.88 68.44 10Q68.38 10.13 68.25 10.25L68.25 10.25L68.25 10.25Q68.25 10.25 68.13 10.38Q68 10.50 67.88 10.50L67.88 10.50Q67.75 10.63 67.63 10.63Q67.50 10.63 67.25 10.63L67.25 10.63Q66.88 10.63 66.63 10.56Q66.38 10.50 66.38 10.50L66.38 10.50Q66.25 10.38 66.19 10.31Q66.13 10.25 66.13 10.13L66.13 10.13L66.13 10.13Q66.13 10 66.13 9.88Q66.13 9.75 66.25 9.63L66.25 9.63Q66.25 9.50 66.31 9.38Q66.38 9.25 66.50 9.13L66.50 9.13L66.50 9.13Q66.63 9 66.75 8.94Q66.88 8.88 67 8.75L67 8.75Q67.13 8.75 67.25 8.69Q67.38 8.63 67.63 8.63L67.63 8.63ZM47.13 11.63L47.13 11.63Q46.50 11.63 45.94 11.69Q45.38 11.75 44.75 11.88L44.75 11.88L44.75 11.88Q44.25 12.13 43.75 12.38Q43.25 12.63 42.88 12.88L42.88 12.88L42.88 12.88Q42.38 13.13 42 13.50Q41.63 13.88 41.25 14.25L41.25 14.25Q40.88 14.63 40.63 15Q40.38 15.38 40.13 15.75L40.13 15.75Q39.88 16.13 39.69 16.50Q39.50 16.88 39.38 17.25L39.38 17.25L39.38 17.38Q39.25 17.63 39.19 18Q39.13 18.38 39 18.88L39 18.88L39 18.88Q39 19.25 39.13 19.69Q39.25 20.13 39.38 20.50L39.38 20.50Q39.50 20.88 39.69 21.25Q39.88 21.63 40.13 22L40.13 22L40.13 22L40.13 22Q40.38 22.25 40.69 22.50Q41 22.75 41.38 23L41.38 23L41.38 23L41.38 23Q41.75 23.13 42.25 23.25Q42.75 23.38 43.13 23.38L43.13 23.38Q43.75 23.38 44.25 23.31Q44.75 23.25 45.38 23.13L45.38 23.13Q45.88 22.88 46.44 22.75Q47 22.63 47.50 22.38L47.50 22.38L47.38 22.38Q47.88 22.13 48.38 21.94Q48.88 21.75 49.38 21.50L49.38 21.50L49.25 21.50L49.25 21.50Q49.38 21.38 49.56 21.25Q49.75 21.13 50 21L50 21Q50 21.13 50 21.25Q50 21.38 50 21.50L50 21.50L50 21.50L50 21.50Q50.13 21.75 50.31 22Q50.50 22.25 50.75 22.50L50.75 22.50Q50.88 22.75 51.13 22.88Q51.38 23 51.75 23.13L51.75 23.13Q52 23.25 52.25 23.31Q52.50 23.38 52.88 23.38L52.88 23.38Q53.38 23.38 54 23.19Q54.63 23 55.13 22.63L55.13 22.63Q55.50 22.38 55.94 21.94Q56.38 21.50 56.75 21L56.75 21Q57 21.13 57.19 21.19Q57.38 21.25 57.63 21.38L57.63 21.38Q57.88 21.50 58.13 21.50Q58.38 21.50 58.63 21.50L58.63 21.50Q59.25 21.50 59.81 21.38Q60.38 21.25 60.88 21.13L60.88 21.13Q61 21.63 61.13 22Q61.25 22.38 61.63 22.63L61.63 22.63L61.63 22.63L61.63 22.63Q62 23 62.56 23.19Q63.13 23.38 63.75 23.38L63.75 23.38Q64.25 23.38 64.69 23.31Q65.13 23.25 65.63 23L65.63 23Q66.13 22.88 66.50 22.63Q66.88 22.38 67.25 22.13L67.25 22.13L67.25 22.13L67.25 22.13Q67.50 22 67.69 21.88Q67.88 21.75 68 21.63L68 21.63Q68.13 21.75 68.25 22Q68.38 22.25 68.50 22.38L68.50 22.38L68.50 22.38Q68.75 22.63 69.06 22.81Q69.38 23 69.63 23.13L69.63 23.13L69.63 23.13L69.63 23.13Q70 23.25 70.38 23.31Q70.75 23.38 71.13 23.38L71.13 23.38Q71.63 23.38 72.19 23.31Q72.75 23.25 73.25 23L73.25 23L73.25 23Q73.75 22.88 74.25 22.69Q74.75 22.50 75.25 22.25L75.25 22.25L75.25 22.25L75.25 22.25Q75.75 22 76.19 21.75Q76.63 21.50 77 21.25L77 21.25L77 21.25L77 21.25Q77 21.25 77.06 21.25Q77.13 21.25 77.13 21.25L77.13 21.25Q77.13 21.25 77.13 21.31Q77.13 21.38 77.25 21.50L77.25 21.50Q77.38 21.75 77.63 22.06Q77.88 22.38 78.13 22.63L78.13 22.63L78.13 22.63L78.13 22.63Q78.38 22.75 78.69 22.94Q79 23.13 79.25 23.13L79.25 23.13L79.38 23.25Q79.63 23.25 79.88 23.31Q80.13 23.38 80.38 23.38L80.38 23.38Q81 23.38 81.50 23.31Q82 23.25 82.50 23.13L82.50 23.13L82.50 23.13Q83 22.88 83.50 22.69Q84 22.50 84.38 22.25L84.38 22.25L84.38 22.25Q84.88 22 85.25 21.69Q85.63 21.38 86 21.13L86 21.13L86 21.13Q86.25 20.88 86.50 20.56Q86.75 20.25 86.88 19.88L86.88 19.88Q87 20 87.13 20.06Q87.25 20.13 87.38 20.13L87.38 20.13L87.38 20.13L87.38 20.13Q87.50 20.25 87.75 20.25Q88 20.25 88.25 20.25L88.25 20.25Q88.50 20.25 88.75 20.19Q89 20.13 89.25 20L89.25 20Q89.13 20.25 89.06 20.44Q89 20.63 88.88 20.88L88.88 20.88Q88.75 21.13 88.75 21.31Q88.75 21.50 88.75 21.75L88.75 21.75Q88.75 22.13 88.81 22.38Q88.88 22.63 89.13 22.88L89.13 22.88Q89.38 23.13 89.63 23.25Q89.88 23.38 90.25 23.38L90.25 23.38Q90.63 23.38 90.88 23.25Q91.13 23.13 91.38 22.88L91.38 22.88Q91.63 22.75 91.81 22.50Q92 22.25 92.13 22L92.13 22L92.13 22L92.13 22L92.13 22Q92.25 21.75 92.38 21.50Q92.50 21.25 92.63 21L92.63 21L92.63 21Q92.75 20.75 92.88 20.50Q93 20.25 93.13 20L93.13 20Q93.38 19.75 93.63 19.31Q93.88 18.88 94.13 18.50L94.13 18.50Q94.38 18 94.75 17.63Q95.13 17.25 95.38 16.88L95.38 16.88L95.38 16.88L95.38 16.88Q95.75 16.50 96.13 16.19Q96.50 15.88 96.88 15.63L96.88 15.63L96.88 15.63Q97.25 15.38 97.56 15.25Q97.88 15.13 98.38 15.13L98.38 15.13L98.38 15.13Q98.38 15.13 98.31 15.25Q98.25 15.38 98.13 15.50L98.13 15.50Q98 15.88 97.88 16.06Q97.75 16.25 97.63 16.50L97.63 16.50L97.75 16.38L97.75 16.38L97.75 16.38Q97.63 16.63 97.44 16.88Q97.25 17.13 97.13 17.50L97.13 17.50Q97 17.75 96.81 18Q96.63 18.25 96.50 18.63L96.50 18.63L96.50 18.63L96.50 18.63Q96.38 18.88 96.25 19.13Q96.13 19.38 96 19.75L96 19.75L96 19.75L96 19.75Q95.88 20 95.81 20.31Q95.75 20.63 95.75 20.88L95.75 20.88L95.75 20.75L95.63 21L95.63 21L95.63 21.25Q95.63 21.75 95.75 22.13Q95.88 22.50 96.13 22.75L96.13 22.75L96.13 22.75L96.13 22.75Q96.38 23.13 96.75 23.25Q97.13 23.38 97.63 23.38L97.63 23.38Q97.75 23.38 97.94 23.38Q98.13 23.38 98.25 23.25L98.25 23.25Q98.50 23.25 98.69 23.19Q98.88 23.13 99 23.13L99 23.13Q99.63 23 100.13 22.81Q100.63 22.63 101 22.38L101 22.38L101 22.38L101 22.38L101 22.38Q101.50 22.25 101.88 22Q102.25 21.75 102.63 21.63L102.63 21.63L102.50 21.63L102.50 21.63Q102.88 21.38 103.25 21.13Q103.63 20.88 104 20.63L104 20.63L104 20.63Q104.25 20.38 104.63 20.13Q105 19.88 105.50 19.63L105.50 19.63L105.50 19.63L105.50 19.63Q105.88 19.38 106.13 19.06Q106.38 18.75 106.50 18.38L106.50 18.38Q106.63 18.13 106.75 17.81Q106.88 17.50 106.88 17.13L106.88 17.13Q106.88 17 106.81 16.81Q106.75 16.63 106.63 16.38L106.63 16.38Q106.50 16.25 106.25 16.13Q106 16 105.88 16L105.88 16L105.88 16Q105.75 16 105.63 16.06Q105.50 16.13 105.38 16.13L105.38 16.13Q105.38 16.13 105.25 16.19Q105.13 16.25 105 16.38L105 16.38L105 16.38L105 16.38Q104.88 16.50 104.63 16.75Q104.38 17 104 17.25L104 17.25Q103.75 17.38 103.44 17.63Q103.13 17.88 102.75 18.13L102.75 18.13L102.75 18.13Q102.38 18.38 102 18.56Q101.63 18.75 101.13 19L101.13 19L101.13 19L101.13 19Q100.88 19.13 100.50 19.31Q100.13 19.50 99.75 19.63L99.75 19.63L99.63 19.75L99.63 19.75Q99.75 19.63 99.81 19.44Q99.88 19.25 100 19.13L100 19.13L100 19.13Q100.13 19 100.25 18.75Q100.38 18.50 100.50 18.25L100.50 18.25Q100.75 18 100.88 17.75Q101 17.50 101.13 17.25L101.13 17.25L101.13 17.25Q101.38 17 101.50 16.69Q101.63 16.38 101.75 16.13L101.75 16.13Q101.88 15.88 102 15.56Q102.13 15.25 102.13 15L102.13 15L102.13 14.88Q102.25 14.63 102.31 14.31Q102.38 14 102.38 13.75L102.38 13.75Q102.38 13.25 102.19 12.81Q102 12.38 101.63 12.13L101.63 12.13Q101.25 11.88 100.88 11.75Q100.50 11.63 100.13 11.63L100.13 11.63Q99.63 11.63 99.25 11.69Q98.88 11.75 98.50 11.88L98.50 11.88L98.50 11.88L98.50 11.88Q98 12 97.63 12.13Q97.25 12.25 96.88 12.50L96.88 12.50L97 12.38Q96.63 12.63 96.25 12.81Q95.88 13 95.63 13.25L95.63 13.25L95.63 13.25L95.63 13.25Q95.63 13.25 95.63 13.25Q95.63 13.25 95.50 13.25L95.50 13.25Q95.50 13 95.44 12.81Q95.38 12.63 95.25 12.50L95.25 12.50Q95 12.25 94.81 12.19Q94.63 12.13 94.25 12.13L94.25 12.13Q94 12.13 93.69 12.19Q93.38 12.25 93.13 12.50L93.13 12.50Q92.88 12.63 92.69 12.94Q92.50 13.25 92.25 13.63L92.25 13.63L92.25 13.63L92.25 13.63Q92.25 13.75 92.19 13.81Q92.13 13.88 92.13 14L92.13 14Q92.13 14 92.06 14Q92 14 92 14L92 14L92 14L92 14Q91.88 14.13 91.75 14.25Q91.63 14.38 91.50 14.63L91.50 14.63L91.50 14.63Q91.25 14.88 90.94 15.25Q90.63 15.63 90.25 15.88L90.25 15.88L90.25 15.88Q90 16 89.81 16.19Q89.63 16.38 89.50 16.50L89.50 16.50Q89.38 16.63 89.19 16.69Q89 16.75 88.88 16.88L88.88 16.88L88.75 16.88L88.75 16.88L88.75 16.88Q88.75 16.88 88.63 16.94Q88.50 17 88.38 17L88.38 17L88.38 17Q88.25 17 88.25 17Q88.25 17 88.25 17L88.25 17Q88.25 16.75 88.31 16.56Q88.38 16.38 88.50 16.13L88.50 16.13L88.50 16.13Q88.50 15.88 88.56 15.56Q88.63 15.25 88.63 15L88.63 15Q88.63 14.63 88.50 14.19Q88.38 13.75 88.13 13.38L88.13 13.38Q88 13 87.75 12.75Q87.50 12.50 87.13 12.38L87.13 12.38L87.13 12.25Q86.88 12.13 86.56 12Q86.25 11.88 85.88 11.75L85.88 11.75L85.75 11.75Q85.50 11.63 85.19 11.63Q84.88 11.63 84.50 11.63L84.50 11.63L84.50 11.63Q83.88 11.63 83.25 11.75Q82.63 11.88 82 12L82 12Q81.50 12.25 81 12.56Q80.50 12.88 80.13 13.25L80.13 13.25L80.13 13.25L80.13 13.25Q79.63 13.50 79.25 13.94Q78.88 14.38 78.63 14.75L78.63 14.75L78.63 14.75L78.63 14.75Q78.38 15.25 78.13 15.63Q77.88 16 77.63 16.50L77.63 16.50L77.63 16.63L77.63 16.63L77.63 16.63Q77.50 16.88 77.38 17.13Q77.25 17.38 77.25 17.63L77.25 17.63L77.13 17.75L77.13 17.75Q77 17.88 76.69 18.06Q76.38 18.25 76.13 18.38L76.13 18.38L76 18.50Q75.63 18.63 75.31 18.81Q75 19 74.63 19.25L74.63 19.25L74.63 19.25Q74.25 19.38 73.88 19.50Q73.50 19.63 73.25 19.75L73.25 19.75Q72.88 19.75 72.56 19.81Q72.25 19.88 72 19.88L72 19.88Q71.75 19.88 71.56 19.81Q71.38 19.75 71.38 19.75L71.38 19.75Q71.25 19.63 71.19 19.56Q71.13 19.50 71.13 19.38L71.13 19.38Q71.13 19.25 71.19 19.06Q71.25 18.88 71.25 18.63L71.25 18.63Q71.38 18.50 71.50 18.25Q71.63 18 71.75 17.75L71.75 17.75Q71.88 17.50 72.06 17.25Q72.25 17 72.38 16.75L72.38 16.75L72.38 16.75Q72.63 16.50 72.81 16.31Q73 16.13 73.13 15.88L73.13 15.88L73.13 15.88L73.13 15.88Q73.38 15.75 73.56 15.56Q73.75 15.38 73.88 15.38L73.88 15.38L73.88 15.38L73.88 15.38Q74 15.25 74.06 15.25Q74.13 15.25 74.25 15.13L74.25 15.13L74.25 15.13Q74.25 15.25 74.25 15.25Q74.25 15.25 74.25 15.25L74.25 15.25Q74.25 15.38 74.25 15.50Q74.25 15.63 74.25 15.75L74.25 15.75L74.25 16.13Q74.25 16.25 74.31 16.44Q74.38 16.63 74.50 16.75L74.50 16.75L74.50 16.75L74.50 16.75Q74.75 17 74.88 17Q75 17 75.25 17L75.25 17Q75.63 17 75.94 16.88Q76.25 16.75 76.50 16.63L76.50 16.63Q76.63 16.38 76.81 16.13Q77 15.88 77.13 15.63L77.13 15.63Q77.25 15.38 77.38 15.13Q77.50 14.88 77.50 14.50L77.50 14.50L77.50 14.50L77.50 14.50Q77.63 14.25 77.63 13.94Q77.63 13.63 77.63 13.38L77.63 13.38Q77.63 13.25 77.56 13Q77.50 12.75 77.50 12.63L77.50 12.63Q77.38 12.38 77.25 12.25Q77.13 12.13 77 12L77 12L77 12Q76.88 11.88 76.69 11.81Q76.50 11.75 76.38 11.75L76.38 11.75L76.38 11.63Q76.13 11.63 75.94 11.63Q75.75 11.63 75.63 11.63L75.63 11.63Q75.63 11.63 75.63 11.63Q75.63 11.63 75.63 11.63L75.63 11.63L75.63 11.63Q75 11.63 74.50 11.75Q74 11.88 73.50 12L73.50 12L73.50 12L73.50 12L73.50 12Q73 12.25 72.56 12.56Q72.13 12.88 71.75 13.13L71.75 13.13L71.75 13.13L71.75 13.13L71.75 13.13Q71.25 13.50 70.88 13.88Q70.50 14.25 70.13 14.75L70.13 14.75Q69.75 15.13 69.44 15.56Q69.13 16 68.88 16.50L68.88 16.50L68.75 16.50Q68.63 16.88 68.44 17.19Q68.25 17.50 68.13 17.88L68.13 17.88L68.13 18Q68 18 68 18Q68 18 68 18L68 18L68 18L68 18Q67.75 18.25 67.56 18.44Q67.38 18.63 67.25 18.75L67.25 18.75Q67 18.88 66.81 19Q66.63 19.13 66.38 19.25L66.38 19.25L66.38 19.38Q66.25 19.50 66 19.56Q65.75 19.63 65.63 19.75L65.63 19.75L65.63 19.75L65.63 19.75Q65.38 19.75 65.25 19.81Q65.13 19.88 65 19.88L65 19.88Q64.88 19.88 64.88 19.88Q64.88 19.88 64.88 19.88L64.88 19.88Q64.88 19.88 64.81 19.88Q64.75 19.88 64.63 19.88L64.63 19.88L64.63 19.88Q64.75 19.88 64.75 19.88Q64.75 19.88 64.75 19.75L64.75 19.75Q64.75 19.63 64.75 19.44Q64.75 19.25 64.75 19.13L64.75 19.13L64.75 19.13Q64.88 18.88 64.94 18.69Q65 18.50 65.13 18.25L65.13 18.25Q65.25 18 65.31 17.81Q65.38 17.63 65.50 17.50L65.50 17.50L65.50 17.38Q65.63 17.25 65.75 17.06Q65.88 16.88 65.88 16.63L65.88 16.63L65.88 16.63Q66 16.50 66.06 16.38Q66.13 16.25 66.13 16.13L66.13 16.13L66.13 16.13L66.38 15.75L66.63 15.25Q66.63 15.13 66.69 14.94Q66.75 14.75 66.88 14.63L66.88 14.63L66.88 14.63Q67 14.50 67 14.38Q67 14.25 67 14.13L67 14.13Q67.13 14.13 67.13 14.06Q67.13 14 67.13 13.88L67.13 13.88L67.13 13.88L67.13 13.88Q67.13 13.88 67.13 13.88Q67.13 13.88 67.13 13.88L67.13 13.88Q67.13 13.50 66.94 13.19Q66.75 12.88 66.50 12.63L66.50 12.63L66.50 12.63Q66.25 12.38 65.94 12.25Q65.63 12.13 65.25 12.13L65.25 12.13Q65 12.13 64.81 12.19Q64.63 12.25 64.38 12.38L64.38 12.38L64.38 12.38Q64.13 12.50 63.94 12.69Q63.75 12.88 63.63 13.13L63.63 13.13L63.63 13.13L63.63 13.13L63.13 14.13Q63 14.38 62.94 14.56Q62.88 14.75 62.75 14.88L62.75 14.88L62.75 14.88L62.75 14.88Q62.63 15.13 62.56 15.25Q62.50 15.38 62.50 15.50L62.50 15.50Q62.38 15.75 62.25 16Q62.13 16.25 62 16.50L62 16.50Q61.88 16.75 61.81 16.94Q61.75 17.13 61.63 17.38L61.63 17.38Q61.38 17.50 61.19 17.63Q61 17.75 60.75 17.88L60.75 17.88Q60.63 17.88 60.38 18Q60.13 18.13 59.88 18.13L59.88 18.13L59.75 18.13L59.75 18.13Q59.63 18.25 59.38 18.25Q59.13 18.25 58.88 18.25L58.88 18.25L58.88 18.25Q59 18 59.19 17.69Q59.38 17.38 59.50 17.25L59.50 17.25L59.50 17.25Q59.75 16.88 59.94 16.56Q60.13 16.25 60.25 16L60.25 16L60.25 16L60.25 16Q60.50 15.75 60.63 15.50Q60.75 15.25 60.88 14.88L60.88 14.88L60.88 14.88Q61 14.50 61.06 14.19Q61.13 13.88 61.13 13.63L61.13 13.63Q61.13 13.25 61.06 12.94Q61 12.63 60.75 12.38L60.75 12.38Q60.63 12.13 60.25 11.94Q59.88 11.75 59.50 11.75L59.50 11.75Q59.25 11.75 59 11.88Q58.75 12 58.50 12.25L58.50 12.25Q58.25 12.50 58.06 12.75Q57.88 13 57.75 13.25L57.75 13.25L57.75 13.25L57.75 13.25Q57.63 13.50 57.44 13.81Q57.25 14.13 57 14.50L57 14.50L57 14.50L57 14.50Q56.75 15.13 56.56 15.50Q56.38 15.88 56.25 16.13L56.25 16.13L56.38 15.88L56.38 15.88L56.38 15.88Q56.13 16.25 55.94 16.63Q55.75 17 55.50 17.25L55.50 17.25L55.50 17.25L55.50 17.25Q55.38 17.63 55.13 17.88Q54.88 18.13 54.75 18.38L54.75 18.38L54.75 18.38L54.75 18.38L54.63 18.50Q54.50 18.75 54.25 19Q54 19.25 53.75 19.50L53.75 19.50L53.75 19.50Q53.63 19.63 53.56 19.63Q53.50 19.63 53.38 19.75L53.38 19.75Q53.38 19.63 53.38 19.63Q53.38 19.63 53.38 19.50L53.38 19.50L53.38 19.50Q53.38 19.50 53.38 19.44Q53.38 19.38 53.38 19.38L53.38 19.38L53.38 19.38Q53.38 19.13 53.44 18.75Q53.50 18.38 53.50 18L53.50 18Q53.63 17.63 53.75 17.25Q53.88 16.88 54 16.50L54 16.50Q54.13 16.13 54.25 15.69Q54.38 15.25 54.50 14.88L54.50 14.88L54.50 14.88Q54.63 14.50 54.75 14.13Q54.88 13.75 55 13.38L55 13.38L55 13.50Q55 13.38 55.06 13.25Q55.13 13.13 55.13 13L55.13 13Q55.13 12.75 55.06 12.63Q55 12.50 54.88 12.38L54.88 12.38L54.88 12.38Q54.75 12.13 54.56 11.94Q54.38 11.75 54 11.63L54 11.63L54 11.63Q53.88 11.63 53.75 11.63Q53.63 11.63 53.50 11.63L53.50 11.63L53.50 11.63Q53.25 11.63 52.94 11.69Q52.63 11.75 52.38 11.88L52.38 11.88Q52.13 12.13 51.88 12.38Q51.63 12.63 51.50 13L51.50 13L51.50 13L51.50 13Q51.38 13.25 51.25 13.56Q51.13 13.88 51 14.38L51 14.38L51 14.38Q50.88 14.75 50.75 15.19Q50.63 15.63 50.50 16.13L50.50 16.13Q50.38 16.38 50.31 16.81Q50.25 17.25 50.13 17.63L50.13 17.63L50.13 17.75Q50 17.88 49.81 17.94Q49.63 18 49.50 18.13L49.50 18.13L49.50 18.13L49.50 18.13Q49.25 18.25 48.94 18.44Q48.63 18.63 48.25 18.75L48.25 18.75Q47.88 19 47.56 19.13Q47.25 19.25 46.88 19.38L46.88 19.38L46.88 19.38Q46.50 19.50 46.13 19.63Q45.75 19.75 45.38 19.88L45.38 19.88Q45.13 20 44.81 20Q44.50 20 44.13 20L44.13 20L44.13 20Q43.88 20 43.69 20Q43.50 20 43.38 19.88L43.38 19.88Q43.38 19.88 43.38 19.88Q43.38 19.88 43.38 19.88L43.38 19.88Q44.25 19.63 44.94 19.31Q45.63 19 46.25 18.63L46.25 18.63L46.25 18.63L46.25 18.63Q46.88 18.25 47.44 17.94Q48 17.63 48.38 17.25L48.38 17.25L48.38 17.25Q48.75 16.88 49.06 16.50Q49.38 16.13 49.63 15.75L49.63 15.75Q49.75 15.38 49.88 15Q50 14.63 50 14.25L50 14.25Q50 13.63 49.81 13.13Q49.63 12.63 49.25 12.25L49.25 12.25Q48.88 11.88 48.31 11.75Q47.75 11.63 47.13 11.63L47.13 11.63ZM47.13 12.63L47.13 12.63Q47.63 12.63 47.94 12.75Q48.25 12.88 48.50 13L48.50 13Q48.75 13.25 48.88 13.50Q49 13.75 49 14.25L49 14.25Q49 14.50 48.94 14.75Q48.88 15 48.63 15.25L48.63 15.25Q48.50 15.50 48.31 15.81Q48.13 16.13 47.75 16.50L47.75 16.50Q47.38 16.75 46.88 17.13Q46.38 17.50 45.75 17.75L45.75 17.75Q45.13 18.13 44.31 18.50Q43.50 18.88 42.50 19.25L42.50 19.25L42.13 19.38L42.25 19.75Q42.25 20 42.44 20.31Q42.63 20.63 42.88 20.75L42.88 20.75L42.88 20.75L42.88 20.75Q43.13 20.88 43.44 20.94Q43.75 21 44.13 21L44.13 21Q44.63 21 45 20.94Q45.38 20.88 45.75 20.88L45.75 20.88L45.63 20.88L45.63 20.88Q46.13 20.75 46.56 20.63Q47 20.50 47.38 20.25L47.38 20.25L47.25 20.38Q47.75 20.13 48.13 19.94Q48.50 19.75 48.88 19.63L48.88 19.63L48.75 19.63L48.75 19.63L48.75 19.63Q49.13 19.50 49.44 19.31Q49.75 19.13 50 19L50 19L50 19Q50.25 18.88 50.44 18.75Q50.63 18.63 50.75 18.50L50.75 18.50L51 18.38L51 18.25Q51.13 17.75 51.25 17.31Q51.38 16.88 51.50 16.38L51.50 16.38Q51.63 15.88 51.75 15.44Q51.88 15 52 14.63L52 14.63L52.38 13.38Q52.50 13.13 52.63 13Q52.75 12.88 52.88 12.75L52.88 12.75L52.88 12.75Q53.13 12.63 53.25 12.63Q53.38 12.63 53.50 12.63L53.50 12.63Q53.50 12.63 53.56 12.63Q53.63 12.63 53.75 12.63L53.75 12.63L53.75 12.63L53.75 12.63Q53.75 12.63 53.81 12.69Q53.88 12.75 54 12.75L54 12.75L54 12.75Q54 12.75 54 12.81Q54 12.88 54.13 12.88L54.13 12.88Q54.13 12.88 54.13 12.88Q54.13 12.88 54.13 13L54.13 13Q54.13 13 54.13 13Q54.13 13 54.13 13L54.13 13L54.13 13L54.13 13.13Q54 13.38 53.88 13.75Q53.75 14.13 53.50 14.50L53.50 14.50L53.50 14.50L53.50 14.50Q53.50 14.75 53.38 15.13Q53.25 15.50 53.13 15.88L53.13 15.88L53 16.13Q52.88 16.63 52.75 17Q52.63 17.38 52.50 17.88L52.50 17.88L52.50 17.88L52.50 17.88Q52.50 18.13 52.44 18.56Q52.38 19 52.38 19.38L52.38 19.38L52.38 19.38Q52.38 19.50 52.38 19.56Q52.38 19.63 52.38 19.75L52.38 19.75L52.38 19.75L52.38 19.75Q52.38 19.75 52.44 19.88Q52.50 20 52.50 20.13L52.50 20.13L52.50 20.13L52.50 20.13Q52.50 20.25 52.56 20.31Q52.63 20.38 52.63 20.50L52.63 20.50L52.63 20.50L52.63 20.50Q52.75 20.63 52.88 20.69Q53 20.75 53.25 20.75L53.25 20.75Q53.63 20.75 53.88 20.63Q54.13 20.50 54.38 20.25L54.38 20.25Q54.63 20 54.88 19.69Q55.13 19.38 55.50 19.13L55.50 19.13Q55.75 18.75 55.94 18.44Q56.13 18.13 56.38 17.88L56.38 17.88L56.38 17.88Q56.63 17.50 56.81 17.13Q57 16.75 57.25 16.38L57.25 16.38L57.25 16.38Q57.38 16 57.56 15.69Q57.75 15.38 57.88 15L57.88 15L58 15Q58.13 14.63 58.31 14.31Q58.50 14 58.63 13.75L58.63 13.75L58.63 13.75Q58.75 13.50 58.94 13.31Q59.13 13.13 59.25 13L59.25 13L59.25 13L59.25 13Q59.38 12.88 59.44 12.81Q59.50 12.75 59.50 12.75L59.50 12.75Q59.75 12.75 59.81 12.81Q59.88 12.88 59.88 12.88L59.88 12.88L59.88 13L60 13Q60 13 60.06 13.19Q60.13 13.38 60.13 13.63L60.13 13.63Q60.13 13.88 60.06 14.06Q60 14.25 59.88 14.50L59.88 14.50L59.88 14.50Q59.88 14.75 59.75 15Q59.63 15.25 59.50 15.50L59.50 15.50L59.50 15.50Q59.25 15.75 59.06 16Q58.88 16.25 58.63 16.63L58.63 16.63L58.63 16.63Q58.50 17 58.25 17.38Q58 17.75 57.75 18.25L57.75 18.25L57.50 18.50L57.75 18.75Q57.88 19 58.19 19.13Q58.50 19.25 58.88 19.25L58.88 19.25Q59.13 19.25 59.44 19.19Q59.75 19.13 60 19.13L60 19.13Q60.25 19 60.56 18.94Q60.88 18.88 61.25 18.75L61.25 18.75L61.25 18.75Q61.50 18.63 61.75 18.44Q62 18.25 62.25 18.13L62.25 18.13L62.25 18.13L62.38 18.13L62.50 18Q62.50 17.75 62.63 17.50Q62.75 17.25 62.88 17L62.88 17L62.88 17L62.88 17Q63 16.75 63.13 16.44Q63.25 16.13 63.38 15.88L63.38 15.88L63.38 15.88L63.38 15.88Q63.50 15.75 63.56 15.63Q63.63 15.50 63.63 15.38L63.63 15.38Q63.75 15.13 63.81 14.94Q63.88 14.75 64 14.63L64 14.63L64 14.63L64 14.63L64.50 13.63Q64.63 13.50 64.69 13.38Q64.75 13.25 64.88 13.25L64.88 13.25Q65 13.13 65.06 13.13Q65.13 13.13 65.25 13.13L65.25 13.13L65.25 13.13Q65.50 13.13 65.63 13.19Q65.75 13.25 65.88 13.38L65.88 13.38L65.88 13.38L65.88 13.38Q66 13.50 66.06 13.56Q66.13 13.63 66.13 13.88L66.13 13.88Q66.13 13.88 66.13 13.94Q66.13 14 66.13 14L66.13 14L66.13 14L66.13 14L66 14Q66 14.13 66 14.13Q66 14.13 66 14.13L66 14.13L66 14.13L66 14.13L66 14.13Q65.88 14.25 65.81 14.44Q65.75 14.63 65.75 14.75L65.75 14.75L65.50 15.25L65.25 15.75Q65.25 15.75 65.19 15.88Q65.13 16 65 16.25L65 16.25Q64.88 16.38 64.81 16.56Q64.75 16.75 64.63 17L64.63 17Q64.50 17.25 64.38 17.44Q64.25 17.63 64.25 17.88L64.25 17.88L64.25 17.88L64.25 17.88Q64.13 18.13 64 18.31Q63.88 18.50 63.88 18.75L63.88 18.75L63.88 18.75L63.88 18.75Q63.75 19 63.75 19.25Q63.75 19.50 63.75 19.75L63.75 19.75Q63.75 20 63.81 20.25Q63.88 20.50 64.13 20.63L64.13 20.63L64.13 20.63L64.13 20.63Q64.38 20.75 64.56 20.81Q64.75 20.88 64.88 20.88L64.88 20.88Q65.25 20.88 65.50 20.81Q65.75 20.75 66 20.63L66 20.63L66 20.63Q66.25 20.50 66.50 20.38Q66.75 20.25 67 20.13L67 20.13L66.88 20.13Q67.13 20 67.38 19.88Q67.63 19.75 67.88 19.50L67.88 19.50L67.88 19.50L67.88 19.50Q68.13 19.38 68.31 19.19Q68.50 19 68.63 18.75L68.63 18.75L68.63 18.75Q68.75 18.75 68.75 18.69Q68.75 18.63 68.88 18.63L68.88 18.63L68.88 18.50L69 18.50Q69.13 18.13 69.25 17.75Q69.38 17.38 69.63 17L69.63 17Q69.88 16.63 70.19 16.19Q70.50 15.75 70.88 15.38L70.88 15.38Q71.25 15 71.56 14.63Q71.88 14.25 72.38 14L72.38 14L72.38 14Q72.63 13.63 73.06 13.38Q73.50 13.13 73.88 13L73.88 13L74 13Q74.38 12.75 74.75 12.69Q75.13 12.63 75.63 12.63L75.63 12.63L75.63 12.63Q75.75 12.63 75.88 12.63Q76 12.63 76.13 12.63L76.13 12.63L76.13 12.63Q76.13 12.63 76.19 12.69Q76.25 12.75 76.38 12.75L76.38 12.75L76.38 12.75L76.38 12.88Q76.50 12.88 76.50 12.94Q76.50 13 76.50 13L76.50 13L76.50 13L76.50 13L76.63 13Q76.63 13.13 76.63 13.19Q76.63 13.25 76.63 13.38L76.63 13.38Q76.63 13.38 76.63 13.38Q76.63 13.38 76.63 13.38L76.63 13.38L76.63 13.38Q76.63 13.63 76.63 13.81Q76.63 14 76.50 14.38L76.50 14.38Q76.50 14.50 76.44 14.75Q76.38 15 76.25 15.13L76.25 15.13Q76.13 15.38 76.06 15.50Q76 15.63 75.75 15.88L75.75 15.88L75.75 15.88Q75.75 15.88 75.63 15.94Q75.50 16 75.25 16L75.25 16L75.25 15.75Q75.25 15.63 75.25 15.50Q75.25 15.38 75.25 15.25L75.25 15.25Q75.25 15.13 75.25 14.94Q75.25 14.75 75.25 14.63L75.25 14.63Q75.13 14.50 75.06 14.44Q75 14.38 74.88 14.25L74.88 14.25L74.88 14.25Q74.75 14.25 74.63 14.19Q74.50 14.13 74.38 14.13L74.38 14.13Q74.38 14.13 74.38 14.13Q74.38 14.13 74.38 14.13L74.38 14.13L74.38 14.13Q74.13 14.13 73.88 14.25Q73.63 14.38 73.38 14.50L73.38 14.50Q73.13 14.63 72.88 14.81Q72.63 15 72.50 15.25L72.50 15.25L72.50 15.25Q72.25 15.38 72.06 15.63Q71.88 15.88 71.63 16.13L71.63 16.13Q71.38 16.38 71.19 16.69Q71 17 70.88 17.25L70.88 17.25L70.88 17.25L70.88 17.25Q70.75 17.50 70.63 17.75Q70.50 18 70.38 18.25L70.38 18.25L70.38 18.38L70.38 18.38Q70.25 18.63 70.19 18.88Q70.13 19.13 70.13 19.38L70.13 19.38Q70.13 19.63 70.25 19.94Q70.38 20.25 70.75 20.50L70.75 20.50L70.75 20.50L70.75 20.50Q71 20.75 71.31 20.81Q71.63 20.88 72 20.88L72 20.88Q72.38 20.88 72.75 20.81Q73.13 20.75 73.50 20.63L73.50 20.63Q73.88 20.50 74.25 20.38Q74.63 20.25 75 20.13L75 20.13L75 20.13Q75.50 19.88 75.81 19.69Q76.13 19.50 76.50 19.38L76.50 19.38L76.50 19.38Q76.75 19.13 77.06 18.94Q77.38 18.75 77.63 18.63L77.63 18.63L77.63 18.63Q77.75 18.63 77.75 18.56Q77.75 18.50 77.88 18.50L77.88 18.50L78 18.38L78.13 18.25Q78.13 17.88 78.25 17.56Q78.38 17.25 78.50 17L78.50 17L78.50 17L78.50 17Q78.75 16.63 78.94 16.19Q79.13 15.75 79.38 15.38L79.38 15.38L79.38 15.38Q79.75 15 80.06 14.63Q80.38 14.25 80.75 14L80.75 14L80.75 14L80.75 14Q81.13 13.63 81.50 13.38Q81.88 13.13 82.38 13L82.38 13L82.38 13L82.38 13L82.38 13Q82.88 12.75 83.44 12.69Q84 12.63 84.50 12.63L84.50 12.63Q84.75 12.63 85 12.63Q85.25 12.63 85.63 12.75L85.63 12.75L85.63 12.75L85.63 12.75Q85.88 12.75 86.13 12.88Q86.38 13 86.63 13.13L86.63 13.13L86.63 13.13Q86.75 13.25 86.94 13.44Q87.13 13.63 87.25 13.88L87.25 13.88L87.25 13.88Q87.50 14.13 87.56 14.38Q87.63 14.63 87.63 15L87.63 15Q87.63 15.25 87.56 15.44Q87.50 15.63 87.50 15.88L87.50 15.88Q87.38 16.13 87.31 16.44Q87.25 16.75 87.13 17L87.13 17L87 17.25L87.25 17.50Q87.38 17.63 87.50 17.75Q87.63 17.88 87.75 17.88L87.75 17.88Q87.88 17.88 88.06 17.94Q88.25 18 88.38 18L88.38 18Q88.63 18 88.81 17.94Q89 17.88 89.25 17.75L89.25 17.75Q89.38 17.63 89.63 17.50Q89.88 17.38 90 17.25L90 17.25Q90.25 17.13 90.50 16.94Q90.75 16.75 90.88 16.63L90.88 16.63L90.88 16.63Q91.25 16.25 91.56 15.94Q91.88 15.63 92.25 15.25L92.25 15.25L92.25 15.25L92.25 15.25Q92.38 15.13 92.50 15Q92.63 14.88 92.75 14.75L92.75 14.75L92.88 14.75L93 14.50Q93 14.50 93.06 14.38Q93.13 14.25 93.13 14.13L93.13 14.13L93.25 14Q93.38 13.75 93.50 13.56Q93.63 13.38 93.75 13.25L93.75 13.25Q93.88 13.25 94 13.19Q94.13 13.13 94.25 13.13L94.25 13.13Q94.38 13.13 94.44 13.13Q94.50 13.13 94.63 13.25L94.63 13.25L94.63 13.25L94.63 13.25Q94.63 13.25 94.69 13.31Q94.75 13.38 94.75 13.63L94.75 13.63Q94.63 13.75 94.63 13.94Q94.63 14.13 94.50 14.25L94.50 14.25L94.50 14.25L95.38 14.75Q95.50 14.63 95.69 14.44Q95.88 14.25 96.13 14L96.13 14L96.13 14L96.13 14Q96.50 13.88 96.75 13.69Q97 13.50 97.38 13.38L97.38 13.38L97.38 13.38L97.38 13.38L97.38 13.38Q97.63 13.13 98 13Q98.38 12.88 98.75 12.75L98.75 12.75L98.75 12.75Q99.13 12.75 99.44 12.69Q99.75 12.63 100.13 12.63L100.13 12.63Q100.38 12.63 100.63 12.69Q100.88 12.75 101 12.88L101 12.88L101 12.88L101 12.88Q101.25 13 101.31 13.19Q101.38 13.38 101.38 13.75L101.38 13.75Q101.38 13.88 101.31 14.13Q101.25 14.38 101.25 14.63L101.25 14.63Q101.13 15 101 15.25Q100.88 15.50 100.75 15.75L100.75 15.75L100.88 15.63L100.88 15.63L100.88 15.75Q100.63 16 100.50 16.25Q100.38 16.50 100.25 16.75L100.25 16.75L100.25 16.75L100.25 16.75L100.25 16.75Q100.13 17 100 17.25Q99.88 17.50 99.75 17.75L99.75 17.75Q99.50 18 99.38 18.19Q99.25 18.38 99.13 18.63L99.13 18.63L99.13 18.63Q99 18.75 98.94 18.88Q98.88 19 98.75 19.25L98.75 19.25L98.75 19.25L98.75 19.25Q98.63 19.38 98.56 19.56Q98.50 19.75 98.50 20L98.50 20L98.50 20Q98.50 20.13 98.56 20.31Q98.63 20.50 98.63 20.63L98.63 20.63Q98.75 20.75 98.94 20.81Q99.13 20.88 99.25 20.88L99.25 20.88Q99.38 20.88 99.44 20.88Q99.50 20.88 99.63 20.88L99.63 20.88L99.63 20.88L99.63 20.75Q99.75 20.75 99.88 20.69Q100 20.63 100.13 20.63L100.13 20.63L100 20.63Q100.50 20.50 100.94 20.31Q101.38 20.13 101.75 19.88L101.75 19.88L101.63 19.88Q102.13 19.63 102.56 19.38Q103 19.13 103.38 18.88L103.38 18.88L103.25 19L103.25 19L103.25 19Q103.63 18.75 104 18.50Q104.38 18.25 104.63 18L104.63 18L104.63 18Q104.88 17.75 105.19 17.50Q105.50 17.25 105.75 17.13L105.75 17.13L105.75 17.13L105.75 17.13Q105.75 17.13 105.75 17.06Q105.75 17 105.75 17L105.75 17L105.75 17L105.75 17Q105.75 17 105.81 17.06Q105.88 17.13 105.88 17.13L105.88 17.13Q105.88 17.38 105.81 17.56Q105.75 17.75 105.63 17.88L105.63 17.88L105.63 18L105.63 18Q105.50 18.13 105.31 18.38Q105.13 18.63 104.88 18.75L104.88 18.75Q104.88 18.75 104.88 18.75Q104.88 18.75 104.88 18.75L104.88 18.75Q104.50 19.13 104.13 19.38Q103.75 19.63 103.38 19.88L103.38 19.88L103.38 19.88Q103 20.13 102.69 20.31Q102.38 20.50 102 20.75L102 20.75L102 20.75Q101.63 21 101.31 21.19Q101 21.38 100.50 21.50L100.50 21.50Q100.13 21.63 99.69 21.81Q99.25 22 98.88 22.13L98.88 22.13L98.75 22.13L98.75 22.13L98.75 22.13Q98.63 22.25 98.44 22.25Q98.25 22.25 98.13 22.25L98.13 22.25L98.13 22.38L98.13 22.38L98.13 22.38Q98 22.38 97.88 22.38Q97.75 22.38 97.63 22.38L97.63 22.38L97.63 22.38Q97.38 22.38 97.19 22.31Q97 22.25 96.88 22.13L96.88 22.13Q96.75 22 96.69 21.81Q96.63 21.63 96.63 21.25L96.63 21.25L96.63 21.13L96.75 20.88L96.75 20.88L96.75 20.88Q96.75 20.63 96.81 20.44Q96.88 20.25 96.88 20L96.88 20L96.88 20.13L96.88 20.13Q97 19.88 97.13 19.56Q97.25 19.25 97.38 19L97.38 19Q97.50 18.75 97.69 18.50Q97.88 18.25 98 18L98 18L98 18L98 18Q98.13 17.63 98.31 17.38Q98.50 17.13 98.63 16.88L98.63 16.88L98.63 16.88Q98.75 16.63 98.88 16.38Q99 16.13 99.13 16L99.13 16Q99.13 15.75 99.25 15.56Q99.38 15.38 99.38 15.13L99.38 15.13Q99.38 15 99.25 14.81Q99.13 14.63 99.13 14.50L99.13 14.50Q98.88 14.25 98.69 14.19Q98.50 14.13 98.38 14.13L98.38 14.13L98.38 14.13Q97.75 14.13 97.25 14.25Q96.75 14.38 96.25 14.75L96.25 14.75L96.25 14.75L96.25 14.75Q95.88 15 95.44 15.38Q95 15.75 94.63 16.13L94.63 16.13L94.63 16.13L94.63 16.13Q94.38 16.63 94 17Q93.63 17.38 93.38 17.88L93.38 17.88L93.25 17.88Q93 18.38 92.75 18.75Q92.50 19.13 92.25 19.50L92.25 19.50L92.25 19.50L92.25 19.50Q92.13 19.75 91.94 20Q91.75 20.25 91.63 20.63L91.63 20.63L91.63 20.63L91.63 20.63Q91.63 20.88 91.50 21.13Q91.38 21.38 91.25 21.50L91.25 21.50Q91.13 21.75 91 21.94Q90.88 22.13 90.75 22.13L90.75 22.13L90.75 22.25L90.75 22.25Q90.63 22.25 90.50 22.31Q90.38 22.38 90.25 22.38L90.25 22.38Q90.13 22.38 90 22.31Q89.88 22.25 89.88 22.25L89.88 22.25Q89.75 22.13 89.69 22Q89.63 21.88 89.63 21.75L89.63 21.75Q89.63 21.75 89.69 21.56Q89.75 21.38 89.88 21.13L89.88 21.13Q90 20.88 90.13 20.56Q90.25 20.25 90.38 19.88L90.38 19.88Q90.50 19.75 90.63 19.44Q90.75 19.13 90.88 18.88L90.88 18.88L90 18.38L90 18.38Q89.75 18.50 89.50 18.69Q89.25 18.88 89 19L89 19Q88.88 19.13 88.63 19.19Q88.38 19.25 88.13 19.25L88.13 19.25Q88 19.25 87.88 19.25Q87.75 19.25 87.63 19.13L87.63 19.13L87.63 19.13L87.63 19.13Q87.50 19.13 87.38 19.06Q87.25 19 87.13 18.88L87.13 18.88L87.13 18.88L86.63 18.50L86.38 19Q86.13 19.38 85.81 19.75Q85.50 20.13 85.25 20.38L85.25 20.38L85.25 20.38Q85 20.63 84.63 20.94Q84.25 21.25 83.88 21.38L83.88 21.38L83.88 21.38L83.88 21.38L83.88 21.38Q83.50 21.63 83.13 21.81Q82.75 22 82.25 22.13L82.25 22.13L82.25 22.13L82.25 22.13L82.25 22.13Q81.88 22.25 81.38 22.31Q80.88 22.38 80.50 22.38L80.50 22.38Q80.38 22.38 80.38 22.38Q80.38 22.38 80.38 22.38L80.38 22.38L80.38 22.38Q80.25 22.38 80.06 22.31Q79.88 22.25 79.63 22.25L79.63 22.25Q79.38 22.13 79.13 22Q78.88 21.88 78.75 21.75L78.75 21.75L78.75 21.75Q78.50 21.63 78.38 21.44Q78.25 21.25 78.13 21L78.13 21L78.13 21Q78 20.88 77.94 20.69Q77.88 20.50 77.88 20.38L77.88 20.38L77.88 20.38L77.75 19.50L77.13 20Q76.88 20.13 76.75 20.25Q76.63 20.38 76.38 20.50L76.38 20.50Q76 20.75 75.63 20.94Q75.25 21.13 74.75 21.38L74.75 21.38L74.75 21.38L74.75 21.38Q74.38 21.63 73.94 21.75Q73.50 21.88 73 22.13L73 22.13L72.88 22.13L72.88 22.13Q72.50 22.25 72.06 22.31Q71.63 22.38 71.13 22.38L71.13 22.38L71.13 22.38Q70.75 22.38 70.50 22.31Q70.25 22.25 70 22.13L70 22.13L70 22.13Q69.75 22.13 69.56 22Q69.38 21.88 69.25 21.63L69.25 21.63L69.25 21.63Q69.13 21.50 69 21.31Q68.88 21.13 68.75 20.88L68.75 20.88L68.75 20.88Q68.75 20.88 68.75 20.81Q68.75 20.75 68.63 20.75L68.63 20.75L68.63 20.63L68.50 20L67.88 20.38Q67.63 20.63 67.31 20.88Q67 21.13 66.75 21.25L66.75 21.25Q66.38 21.50 66 21.69Q65.63 21.88 65.25 22.13L65.25 22.13L65.25 22.13Q64.88 22.25 64.50 22.31Q64.13 22.38 63.75 22.38L63.75 22.38Q63.25 22.38 62.88 22.25Q62.50 22.13 62.25 21.88L62.25 21.88Q62 21.75 61.88 21.38Q61.75 21 61.75 20.50L61.75 20.50L61.75 19.63L61.13 20Q61 20 60.94 20.06Q60.88 20.13 60.75 20.13L60.75 20.13L60.75 20.13L60.75 20.13Q60.25 20.38 59.75 20.44Q59.25 20.50 58.63 20.50L58.63 20.50Q58.38 20.50 58.25 20.50Q58.13 20.50 58 20.38L58 20.38Q57.63 20.25 57.38 20.13Q57.13 20 57 19.88L57 19.88L57 19.88L56.63 19.63L56.38 20Q55.88 20.63 55.44 21.06Q55 21.50 54.50 21.75L54.50 21.75L54.50 21.75L54.50 21.75Q54.13 22.13 53.69 22.25Q53.25 22.38 52.88 22.38L52.88 22.38Q52.88 22.38 52.88 22.38Q52.88 22.38 52.88 22.38L52.88 22.38Q52.63 22.38 52.44 22.31Q52.25 22.25 52 22.25L52 22.25L52 22.25L52 22.25L52 22.25Q51.88 22.13 51.69 22.06Q51.50 22 51.38 21.75L51.38 21.75L51.38 21.75Q51.25 21.63 51.19 21.44Q51.13 21.25 51 21.13L51 21.13L51 21.13Q50.88 20.88 50.88 20.69Q50.88 20.50 50.88 20.25L50.88 20.25L50.88 20.25L50.75 19.38L50 19.88Q49.75 20 49.44 20.19Q49.13 20.38 48.75 20.63L48.75 20.63Q48.38 20.88 47.94 21.06Q47.50 21.25 47 21.50L47 21.50L47 21.50Q46.50 21.63 46.06 21.81Q45.63 22 45.13 22.13L45.13 22.13L45.13 22.13Q44.63 22.25 44.13 22.31Q43.63 22.38 43.13 22.38L43.13 22.38L43.13 22.38Q42.75 22.38 42.44 22.31Q42.13 22.25 41.88 22.13L41.88 22.13Q41.63 22 41.38 21.81Q41.13 21.63 40.88 21.38L40.88 21.38L40.88 21.38L40.88 21.38Q40.75 21.13 40.56 20.81Q40.38 20.50 40.25 20.25L40.25 20.25L40.25 20.25Q40.13 19.88 40.06 19.56Q40 19.25 40 18.88L40 18.88Q40 18.88 40 18.88Q40 18.88 40 18.88L40 18.88L40 18.88Q40.13 18.50 40.13 18.19Q40.13 17.88 40.25 17.63L40.25 17.63L40.25 17.63L40.25 17.63Q40.38 17.25 40.56 16.94Q40.75 16.63 40.88 16.25L40.88 16.25Q41.13 15.88 41.44 15.56Q41.75 15.25 42 14.88L42 14.88L42 14.88Q42.25 14.50 42.63 14.25Q43 14 43.38 13.75L43.38 13.75Q43.75 13.50 44.19 13.25Q44.63 13 45 12.88L45 12.88L45.13 12.88Q45.50 12.75 46 12.69Q46.50 12.63 47 12.63L47 12.63Q47 12.63 47.06 12.63Q47.13 12.63 47.13 12.63L47.13 12.63L47.13 12.63ZM46.38 13.50L46.25 13.50Q46.25 13.50 46.25 13.50Q46.25 13.50 46.25 13.50L46.25 13.50Q46 13.50 45.69 13.56Q45.38 13.63 45 13.75L45 13.75L45.13 13.75Q44.75 14 44.50 14.13Q44.25 14.25 44.13 14.50L44.13 14.50L44.13 14.50Q43.88 14.63 43.69 14.88Q43.50 15.13 43.38 15.38L43.38 15.38L43.25 15.38L43.25 15.38L43.25 15.38Q43.13 15.63 43 15.81Q42.88 16 42.75 16.25L42.75 16.25Q42.63 16.50 42.50 16.69Q42.38 16.88 42.38 17.13L42.38 17.13L42.25 17.13L42.25 17.13L42.25 17.13Q42.25 17.38 42.19 17.56Q42.13 17.75 42 17.88L42 17.88L41.63 19L42.75 18.50Q43 18.38 43.25 18.19Q43.50 18 43.75 17.88L43.75 17.88Q44.13 17.63 44.38 17.50Q44.63 17.38 44.88 17.25L44.88 17.25Q45 17.13 45.25 16.94Q45.50 16.75 45.63 16.63L45.63 16.63L45.63 16.63Q45.88 16.50 46 16.44Q46.13 16.38 46.13 16.38L46.13 16.38L46.13 16.38L46.13 16.38Q46.50 16.13 46.75 15.94Q47 15.75 47.13 15.50L47.13 15.50L47.13 15.50Q47.38 15.25 47.44 15Q47.50 14.75 47.50 14.50L47.50 14.50Q47.50 14.38 47.44 14.19Q47.38 14 47.25 13.88L47.25 13.88L47.25 13.88Q47.13 13.75 47 13.69Q46.88 13.63 46.63 13.63L46.63 13.63L46.63 13.63Q46.63 13.50 46.56 13.50Q46.50 13.50 46.38 13.50L46.38 13.50L46.38 13.50ZM83.75 14.13L83.75 14.13Q83.38 14.13 83 14.25Q82.63 14.38 82.25 14.50L82.25 14.50Q81.88 14.75 81.56 15Q81.25 15.25 81 15.50L81 15.50L81 15.50Q80.75 15.88 80.56 16.19Q80.38 16.50 80.13 16.88L80.13 16.88L80.13 16.88Q80 17.25 79.94 17.69Q79.88 18.13 79.88 18.50L79.88 18.50Q79.88 18.50 79.88 18.50Q79.88 18.50 79.88 18.50L79.88 18.50L79.88 18.50Q79.88 18.63 79.88 18.81Q79.88 19 79.88 19.13L79.88 19.13L79.88 19.13Q79.88 19.38 79.94 19.56Q80 19.75 80.13 19.88L80.13 19.88L80.13 19.88L80.13 20Q80.25 20.13 80.38 20.31Q80.50 20.50 80.63 20.63L80.63 20.63Q80.88 20.75 81.13 20.81Q81.38 20.88 81.63 20.88L81.63 20.88Q82 20.88 82.38 20.75Q82.75 20.63 83.13 20.50L83.13 20.50L83.13 20.50Q83.50 20.25 83.81 20Q84.13 19.75 84.38 19.38L84.38 19.38L84.38 19.38Q84.63 19.13 84.88 18.75Q85.13 18.38 85.25 18L85.25 18Q85.38 17.63 85.50 17.19Q85.63 16.75 85.63 16.38L85.63 16.38Q85.63 16.25 85.63 16.06Q85.63 15.88 85.50 15.75L85.50 15.75L85.50 15.75Q85.50 15.50 85.44 15.31Q85.38 15.13 85.25 15L85.25 15L85.38 15Q85.25 14.75 85.06 14.63Q84.88 14.50 84.75 14.38L84.75 14.38L84.75 14.38Q84.50 14.25 84.25 14.19Q84 14.13 83.75 14.13L83.75 14.13ZM46.25 14.50L46.25 14.50L46.38 14.50Q46.38 14.50 46.44 14.50Q46.50 14.50 46.50 14.50L46.50 14.50L46.50 14.50L46.50 14.50Q46.50 14.50 46.50 14.50Q46.50 14.50 46.50 14.63L46.50 14.63Q46.50 14.63 46.44 14.75Q46.38 14.88 46.38 14.88L46.38 14.88L46.38 14.88Q46.25 15 46.06 15.13Q45.88 15.25 45.63 15.50L45.63 15.50Q45.50 15.50 45.38 15.63Q45.25 15.75 45.13 15.88L45.13 15.88L45.13 15.88L45.13 15.88Q44.88 16 44.69 16.13Q44.50 16.25 44.25 16.38L44.25 16.38Q44.13 16.50 43.94 16.63Q43.75 16.75 43.63 16.88L43.63 16.88L43.63 16.75L43.63 16.75L43.63 16.75Q43.75 16.50 43.88 16.31Q44 16.13 44.13 15.88L44.13 15.88L44.13 15.88L44.13 15.88Q44.25 15.75 44.44 15.56Q44.63 15.38 44.75 15.25L44.75 15.25L44.75 15.25Q44.88 15 45.06 14.88Q45.25 14.75 45.50 14.75L45.50 14.75Q45.63 14.63 45.88 14.56Q46.13 14.50 46.25 14.50L46.25 14.50ZM83.75 15.13L83.75 15.13Q84 15.13 84.06 15.13Q84.13 15.13 84.25 15.25L84.25 15.25L84.25 15.25L84.25 15.25Q84.25 15.25 84.31 15.31Q84.38 15.38 84.38 15.38L84.38 15.38L84.38 15.38L84.38 15.38L84.50 15.50Q84.50 15.50 84.50 15.63Q84.50 15.75 84.50 15.88L84.50 15.88L84.50 15.88L84.50 15.88L84.50 15.88Q84.63 16 84.63 16.13Q84.63 16.25 84.63 16.38L84.63 16.38Q84.63 16.75 84.56 17.06Q84.50 17.38 84.38 17.63L84.38 17.63L84.38 17.63Q84.25 18 84.06 18.25Q83.88 18.50 83.63 18.75L83.63 18.75L83.63 18.75Q83.50 19 83.25 19.19Q83 19.38 82.75 19.63L82.75 19.63L82.63 19.63Q82.50 19.75 82.19 19.81Q81.88 19.88 81.63 19.88L81.63 19.88L81.63 19.88Q81.50 19.88 81.38 19.81Q81.25 19.75 81.25 19.75L81.25 19.75Q81.13 19.75 81.06 19.69Q81 19.63 81 19.50L81 19.50L81 19.50Q81 19.38 80.94 19.25Q80.88 19.13 80.88 19L80.88 19L80.88 19L80.88 19Q80.88 18.88 80.88 18.75Q80.88 18.63 80.88 18.50L80.88 18.50Q80.88 18.25 80.94 17.94Q81 17.63 81.13 17.25L81.13 17.25L81.13 17.25L81.13 17.25Q81.25 17 81.38 16.69Q81.50 16.38 81.75 16.13L81.75 16.13L81.75 16.13Q82 15.88 82.25 15.69Q82.50 15.50 82.75 15.38L82.75 15.38L82.75 15.38L82.75 15.38Q83 15.25 83.25 15.19Q83.50 15.13 83.75 15.13L83.75 15.13L83.75 15.13Z"/></svg>