<svg xmlns="http://www.w3.org/2000/svg" xmlns:xlink="http://www.w3.org/1999/xlink" width="128" height="128"><path fill="#ffffff" d="M123.25 7.88L64 7.88L4.75 7.88L15 95.13L64 120.13L113.13 95.13L123.25 7.88ZM106.75 56.88L106.75 62.75Q106.75 63.38 106.69 63.94Q106.63 64.50 106 64.75L106 64.75L70.88 81.63L70.50 78.38L70.50 72.25L70.75 70.63L71.88 70.25L95.13 59.75L73.50 50.25L64.38 68.38L58.88 78.88L57.63 81.13L55.63 80.25L22 64.75Q21.38 64.50 21 63.94Q20.63 63.38 20.50 62.75L20.50 62.75L20.50 62.75L20.50 56.88Q20.63 56.25 21 55.69Q21.38 55.13 22 54.88L22 54.88L22 54.88L56 39.13L59.13 37.75L59.13 47.38L59.38 48.75L57.88 49.50L34.50 59.75L56.25 69.38L64.38 53.38L70.50 40.75L71.75 38.50L73.50 39.38L106 54.88Q106.50 55.13 106.63 55.69Q106.75 56.25 106.75 56.88L106.75 56.88Z"/></svg>