<svg xmlns="http://www.w3.org/2000/svg" xmlns:xlink="http://www.w3.org/1999/xlink" width="128" height="128"><path fill="#ffffff" d="M116.38 26.75L64 26.75L11.63 26.75L20.63 103.88L64 126L107.38 103.88L116.38 26.75ZM101.75 70.13L101.75 75.25Q101.75 75.75 101.69 76.25Q101.63 76.75 101.13 77L101.13 77L70 91.88L69.75 89.13L69.75 83.63L70 82.25L71 81.88L91.50 72.63L72.38 64.25L64.25 80.25L59.50 89.50L58.38 91.50L56.63 90.75L26.88 77Q26.38 76.75 26 76.31Q25.63 75.88 25.63 75.25L25.63 75.25L25.63 75.25L25.63 70.13Q25.63 69.50 26 69.06Q26.38 68.63 26.88 68.38L26.88 68.38L26.88 68.38L56.88 54.50L59.75 53.13L59.75 61.75L60 62.88L58.63 63.50L37.88 72.63L57.25 81.13L64.25 67L69.75 55.88L70.75 53.88L72.38 54.63L101.13 68.38Q101.63 68.63 101.69 69.06Q101.75 69.50 101.75 70.13L101.75 70.13ZM33.50 1.88L33.50 1.88Q32.75 1.88 32 1.94Q31.25 2 30.50 2.13L30.50 2.13Q29.63 2.38 28.94 2.56Q28.25 2.75 27.50 3.13L27.50 3.13L27.63 3Q27 3.38 26.38 3.69Q25.75 4 25.25 4.38L25.25 4.38Q24.75 4.75 24.25 5.13Q23.75 5.50 23.38 5.88L23.38 5.88Q23 6.25 22.69 6.63Q22.38 7 22.13 7.38L22.13 7.38Q21.88 7.75 21.75 8.13Q21.63 8.50 21.63 8.88L21.63 8.88Q21.63 9.38 21.94 9.69Q22.25 10 22.88 10L22.88 10Q23.25 10 23.50 9.94Q23.75 9.88 24 9.63L24 9.63Q24.25 9.50 24.50 9.31Q24.75 9.13 25 8.88L25 8.88Q25.13 8.63 25.38 8.31Q25.63 8 25.75 7.75L25.75 7.75Q26 7.38 26.25 7.06Q26.50 6.75 26.88 6.50L26.88 6.50Q27.13 6.25 27.44 6Q27.75 5.75 28 5.63L28 5.63L28 5.63Q28.38 5.38 28.75 5.19Q29.13 5 29.63 4.88L29.63 4.88L29.63 4.88Q30.13 4.75 30.56 4.63Q31 4.50 31.38 4.38L31.38 4.38Q31.88 4.25 32.38 4.25Q32.88 4.25 33.25 4.25L33.25 4.25L33.38 4.25Q33.88 4.25 34.31 4.31Q34.75 4.38 35 4.50L35 4.50Q35.38 4.75 35.69 4.94Q36 5.13 36.25 5.50L36.25 5.50Q36.50 5.75 36.69 6.13Q36.88 6.50 37 6.88L37 6.88Q37.13 7.25 37.19 7.69Q37.25 8.13 37.25 8.63L37.25 8.63Q37.25 9.13 37.13 9.75Q37 10.38 36.88 11L36.88 11Q36.63 11.63 36.31 12.25Q36 12.88 35.63 13.50L35.63 13.50Q35.25 14.13 34.81 14.75Q34.38 15.38 33.88 15.88L33.88 15.88L33.88 15.88Q33.38 16.50 32.81 17Q32.25 17.50 31.63 18L31.63 18L31.63 18Q31 18.50 30.38 18.88Q29.75 19.25 29 19.50L29 19.50L28.88 19.63Q28.25 19.88 27.50 20.06Q26.75 20.25 26 20.38L26 20.38L26 20.38Q26.25 19.88 26.56 19.44Q26.88 19 27.25 18.50L27.25 18.50Q27.63 18 27.94 17.50Q28.25 17 28.50 16.50L28.50 16.50Q28.88 15.88 29.19 15.38Q29.50 14.88 29.75 14.38L29.75 14.38Q30.13 13.88 30.38 13.38Q30.63 12.88 30.88 12.38L30.88 12.38Q31.13 12 31.38 11.56Q31.63 11.13 31.75 10.75L31.75 10.75L32.38 9.63Q32.50 9.38 32.63 9.19Q32.75 9 32.88 8.75L32.88 8.75Q32.88 8.50 32.94 8.31Q33 8.13 33 7.88L33 7.88Q33 7.63 32.94 7.38Q32.88 7.13 32.63 7L32.63 7Q32.50 6.75 32.31 6.69Q32.13 6.63 31.75 6.63L31.75 6.63Q31.75 6.63 31.63 6.63Q31.50 6.63 31.38 6.63L31.38 6.63Q31.13 6.75 31 6.81Q30.88 6.88 30.75 7L30.75 7L30.75 7Q30.50 7 30.31 7.19Q30.13 7.38 30 7.50L30 7.50Q29.75 7.75 29.56 8Q29.38 8.25 29.13 8.63L29.13 8.63L23.25 20.25Q23.13 20.50 23.06 20.63Q23 20.75 22.88 21L22.88 21Q22.88 21.13 22.81 21.38Q22.75 21.63 22.75 21.75L22.75 21.75L22.75 21.75Q22.75 22 22.81 22.25Q22.88 22.50 23.13 22.63L23.13 22.63Q23.25 22.88 23.50 22.94Q23.75 23 24 23L24 23Q25.25 23 26.50 22.88Q27.75 22.75 28.88 22.38L28.88 22.38Q30 22.13 31.06 21.69Q32.13 21.25 33 20.75L33 20.75Q34 20.13 34.81 19.56Q35.63 19 36.38 18.25L36.38 18.25L36.38 18.25Q37 17.63 37.63 16.88Q38.25 16.13 38.75 15.25L38.75 15.25L38.75 15.25Q39.25 14.50 39.56 13.75Q39.88 13 40.25 12.13L40.25 12.13L40.25 12Q40.50 11.25 40.63 10.44Q40.75 9.63 40.75 8.88L40.75 8.88Q40.75 8.88 40.75 8.88Q40.75 8.88 40.75 8.88L40.75 8.88Q40.75 8.13 40.63 7.44Q40.50 6.75 40.25 6.13L40.25 6.13L40.25 6.13Q40.13 5.50 39.75 4.94Q39.38 4.38 39 3.88L39 3.88L39 3.88Q38.50 3.38 37.94 3Q37.38 2.63 36.75 2.38L36.75 2.38Q36 2.13 35.25 2Q34.50 1.88 33.50 1.88L33.50 1.88ZM67.63 8.13L67.63 8.13Q67.38 8.13 67.13 8.19Q66.88 8.25 66.75 8.38L66.75 8.38Q66.50 8.38 66.38 8.50Q66.25 8.63 66.13 8.75L66.13 8.75Q66 9 65.94 9.13Q65.88 9.25 65.75 9.38L65.75 9.38L65.75 9.50Q65.75 9.63 65.69 9.81Q65.63 10 65.63 10.13L65.63 10.13Q65.63 10.38 65.75 10.56Q65.88 10.75 66 10.88L66 10.88Q66.25 11 66.56 11.06Q66.88 11.13 67.25 11.13L67.25 11.13Q67.50 11.13 67.69 11.06Q67.88 11 68.13 11L68.13 11Q68.25 10.88 68.38 10.75Q68.50 10.63 68.63 10.50L68.63 10.50Q68.75 10.38 68.81 10.19Q68.88 10 69 9.88L69 9.88Q69 9.75 69.06 9.56Q69.13 9.38 69.13 9.25L69.13 9.25Q69.13 9 69 8.81Q68.88 8.63 68.75 8.50L68.75 8.50Q68.63 8.25 68.31 8.19Q68 8.13 67.63 8.13L67.63 8.13ZM47.13 12.13L47.13 12.13Q46.50 12.13 46 12.19Q45.50 12.25 45 12.38L45 12.38Q44.38 12.63 43.94 12.81Q43.50 13 43.13 13.25L43.13 13.25L43.13 13.25Q42.75 13.63 42.38 13.94Q42 14.25 41.63 14.50L41.63 14.50L41.63 14.50Q41.25 14.88 41 15.25Q40.75 15.63 40.50 16L40.50 16Q40.25 16.38 40.06 16.75Q39.88 17.13 39.75 17.50L39.75 17.50Q39.75 17.75 39.69 18.13Q39.63 18.50 39.50 18.88L39.50 18.88L39.50 18.88Q39.50 19.25 39.56 19.63Q39.63 20 39.75 20.38L39.75 20.38Q39.88 20.75 40.06 21.06Q40.25 21.38 40.50 21.63L40.50 21.63Q40.75 21.88 41 22.13Q41.25 22.38 41.63 22.50L41.63 22.50Q42 22.75 42.38 22.81Q42.75 22.88 43.13 22.88L43.13 22.88Q43.63 22.88 44.13 22.81Q44.63 22.75 45.25 22.63L45.25 22.63Q45.75 22.50 46.25 22.31Q46.75 22.13 47.13 22L47.13 22Q47.75 21.75 48.19 21.50Q48.63 21.25 49.13 21L49.13 21L49 21.13Q49.38 20.88 49.69 20.69Q50 20.50 50.38 20.25L50.38 20.25Q50.38 20.50 50.38 20.75Q50.38 21 50.50 21.25L50.50 21.25Q50.63 21.50 50.75 21.75Q50.88 22 51.13 22.13L51.13 22.13Q51.25 22.38 51.44 22.50Q51.63 22.63 51.88 22.63L51.88 22.63Q52.13 22.75 52.38 22.81Q52.63 22.88 52.88 22.88L52.88 22.88Q53.38 22.88 53.88 22.69Q54.38 22.50 54.88 22.25L54.88 22.25Q55.25 21.88 55.75 21.44Q56.25 21 56.75 20.38L56.75 20.38Q57 20.50 57.25 20.69Q57.50 20.88 57.75 20.88L57.75 20.88Q58 21 58.19 21Q58.38 21 58.63 21L58.63 21Q59.25 21 59.81 20.94Q60.38 20.88 61 20.63L61 20.63Q61 20.50 61.13 20.50Q61.25 20.50 61.25 20.50L61.25 20.50Q61.25 21.13 61.44 21.56Q61.63 22 62 22.25L62 22.25Q62.25 22.63 62.75 22.75Q63.25 22.88 63.75 22.88L63.75 22.88Q64.25 22.88 64.63 22.81Q65 22.75 65.38 22.50L65.38 22.50L65.38 22.50Q65.88 22.38 66.25 22.19Q66.63 22 67 21.75L67 21.75L67 21.75Q67.25 21.50 67.56 21.31Q67.88 21.13 68.25 20.88L68.25 20.88Q68.25 20.88 68.25 20.94Q68.25 21 68.25 21.13L68.25 21.13Q68.38 21.38 68.50 21.63Q68.63 21.88 68.88 22L68.88 22Q69.13 22.25 69.31 22.38Q69.50 22.50 69.88 22.63L69.88 22.63Q70.13 22.75 70.44 22.81Q70.75 22.88 71.13 22.88L71.13 22.88Q71.63 22.88 72.13 22.81Q72.63 22.75 73.13 22.63L73.13 22.63Q73.63 22.38 74.13 22.19Q74.63 22 75 21.75L75 21.75L75 21.88Q75.50 21.63 75.94 21.38Q76.38 21.13 76.75 20.88L76.75 20.88L76.75 20.88Q76.88 20.75 77.06 20.63Q77.25 20.50 77.38 20.38L77.38 20.38Q77.38 20.63 77.44 20.81Q77.50 21 77.63 21.25L77.63 21.25Q77.75 21.50 78 21.75Q78.25 22 78.50 22.25L78.50 22.25Q78.75 22.38 79 22.50Q79.25 22.63 79.50 22.75L79.50 22.75Q79.75 22.75 80 22.81Q80.25 22.88 80.38 22.88L80.38 22.88Q80.38 22.88 80.38 22.88Q80.38 22.88 80.50 22.88L80.50 22.88Q81 22.88 81.50 22.81Q82 22.75 82.38 22.63L82.38 22.63L82.38 22.63Q82.88 22.50 83.31 22.31Q83.75 22.13 84.13 21.88L84.13 21.88L84.13 21.88Q84.50 21.63 84.88 21.31Q85.25 21 85.63 20.75L85.63 20.75L85.63 20.75Q85.88 20.38 86.19 20Q86.50 19.63 86.75 19.25L86.75 19.25Q87 19.38 87.13 19.50Q87.25 19.63 87.50 19.63L87.50 19.63Q87.63 19.75 87.81 19.75Q88 19.75 88.25 19.75L88.25 19.75Q88.50 19.75 88.75 19.69Q89 19.63 89.25 19.50L89.25 19.50Q89.63 19.25 89.88 19.06Q90.13 18.88 90.38 18.75L90.38 18.75L90.38 18.75L90.38 18.75Q90.25 19 90.13 19.25Q90 19.50 89.88 19.75L89.88 19.75Q89.75 20.13 89.63 20.44Q89.50 20.75 89.38 21L89.38 21Q89.25 21.25 89.19 21.44Q89.13 21.63 89.13 21.75L89.13 21.75Q89.13 22 89.25 22.19Q89.38 22.38 89.50 22.50L89.50 22.50Q89.63 22.75 89.81 22.81Q90 22.88 90.25 22.88L90.25 22.88Q90.50 22.88 90.69 22.81Q90.88 22.75 91 22.50L91 22.50Q91.25 22.38 91.38 22.19Q91.50 22 91.63 21.75L91.63 21.75Q91.75 21.50 91.88 21.25Q92 21 92.13 20.75L92.13 20.75Q92.25 20.50 92.38 20.25Q92.50 20 92.63 19.75L92.63 19.75Q92.88 19.38 93.13 19Q93.38 18.63 93.75 18.13L93.75 18.13Q94 17.75 94.31 17.31Q94.63 16.88 95 16.50L95 16.50Q95.38 16.13 95.75 15.81Q96.13 15.50 96.50 15.13L96.50 15.13L96.63 15.13Q97 14.88 97.44 14.75Q97.88 14.63 98.38 14.63L98.38 14.63Q98.50 14.63 98.56 14.69Q98.63 14.75 98.63 14.75L98.63 14.75Q98.75 14.88 98.75 14.94Q98.75 15 98.75 15.13L98.75 15.13Q98.75 15.13 98.75 15.13Q98.75 15.13 98.75 15.13L98.75 15.13L98.75 15.13Q98.75 15.25 98.75 15.44Q98.75 15.63 98.63 15.75L98.63 15.75Q98.50 16 98.38 16.19Q98.25 16.38 98.13 16.63L98.13 16.63Q98 16.88 97.88 17.13Q97.75 17.38 97.50 17.75L97.50 17.75Q97.38 18 97.25 18.25Q97.13 18.50 96.88 18.75L96.88 18.75Q96.75 19.13 96.63 19.38Q96.50 19.63 96.38 19.88L96.38 19.88Q96.38 20.13 96.31 20.38Q96.25 20.63 96.25 20.88L96.25 20.88L96.25 20.88L96.13 21.13L96.13 21.25Q96.13 21.63 96.25 21.94Q96.38 22.25 96.50 22.50L96.50 22.50Q96.63 22.63 96.94 22.75Q97.25 22.88 97.63 22.88L97.63 22.88Q97.75 22.88 97.88 22.88Q98 22.88 98.13 22.75L98.13 22.75Q98.38 22.75 98.56 22.69Q98.75 22.63 98.88 22.63L98.88 22.63L98.88 22.63Q99.38 22.50 99.88 22.31Q100.38 22.13 100.75 22L100.75 22Q101.25 21.75 101.63 21.56Q102 21.38 102.38 21.13L102.38 21.13L102.25 21.13Q102.63 21 103 20.75Q103.38 20.50 103.63 20.25L103.63 20.25Q104 20 104.38 19.75Q104.75 19.50 105.13 19.25L105.13 19.25Q105.50 19 105.69 18.75Q105.88 18.50 106 18.13L106 18.13Q106.13 17.88 106.25 17.63Q106.38 17.38 106.38 17.13L106.38 17.13Q106.38 17.13 106.38 17.13Q106.38 17.13 106.38 17.13L106.38 17.13Q106.38 17 106.31 16.88Q106.25 16.75 106.13 16.75L106.13 16.75L106.25 16.75Q106.13 16.63 106.06 16.56Q106 16.50 105.88 16.50L105.88 16.50Q105.88 16.50 105.88 16.50Q105.88 16.50 105.88 16.50L105.88 16.50L105.88 16.50Q105.75 16.50 105.69 16.50Q105.63 16.50 105.63 16.63L105.63 16.63L105.63 16.63Q105.50 16.63 105.44 16.63Q105.38 16.63 105.38 16.75L105.38 16.75L105.38 16.75Q105.13 16.88 104.88 17.13Q104.63 17.38 104.38 17.63L104.38 17.63Q104 17.88 103.69 18.06Q103.38 18.25 103 18.50L103 18.50Q102.63 18.75 102.25 19Q101.88 19.25 101.38 19.50L101.38 19.50Q101.13 19.63 100.75 19.81Q100.38 20 99.88 20.13L99.88 20.13L99.88 20.13Q99.75 20.25 99.69 20.25Q99.63 20.25 99.50 20.38L99.50 20.38L99.50 20.38Q99.50 20.38 99.44 20.38Q99.38 20.38 99.25 20.38L99.25 20.38Q99.25 20.38 99.19 20.31Q99.13 20.25 99 20.25L99 20.25Q99 20.25 99 20.19Q99 20.13 99 20L99 20Q99 20 99 20Q99 20 99 20L99 20L99 20Q99 20 99 20Q99 20 99 20L99 20Q99 19.88 99.06 19.75Q99.13 19.63 99.13 19.50L99.13 19.50L99.13 19.50Q99.25 19.38 99.31 19.25Q99.38 19.13 99.50 18.88L99.50 18.88Q99.63 18.63 99.81 18.44Q100 18.25 100.13 18L100.13 18Q100.25 17.75 100.44 17.50Q100.63 17.25 100.75 17L100.75 17Q100.88 16.75 101 16.44Q101.13 16.13 101.25 15.88L101.25 15.88Q101.38 15.63 101.50 15.31Q101.63 15 101.75 14.75L101.75 14.75Q101.75 14.50 101.81 14.25Q101.88 14 101.88 13.75L101.88 13.75L101.88 13.75Q101.88 13.25 101.75 12.94Q101.63 12.63 101.38 12.50L101.38 12.50Q101.13 12.25 100.81 12.19Q100.50 12.13 100.13 12.13L100.13 12.13Q99.75 12.13 99.38 12.19Q99 12.25 98.63 12.38L98.63 12.38Q98.25 12.38 97.88 12.56Q97.50 12.75 97.13 12.88L97.13 12.88L97.13 12.88Q96.75 13 96.44 13.19Q96.13 13.38 95.88 13.63L95.88 13.63L95.88 13.63Q95.63 13.88 95.38 14.06Q95.13 14.25 95 14.50L95 14.50Q95.13 14.25 95.13 14.06Q95.13 13.88 95.25 13.63L95.25 13.63L95.25 13.63Q95.25 13.38 95.13 13.19Q95 13 94.88 12.88L94.88 12.88Q94.75 12.75 94.63 12.69Q94.50 12.63 94.25 12.63L94.25 12.63L94.25 12.63Q94.13 12.63 93.88 12.69Q93.63 12.75 93.50 12.88L93.50 12.88Q93.25 13 93.06 13.25Q92.88 13.50 92.75 13.88L92.75 13.88Q92.75 13.88 92.69 14Q92.63 14.13 92.50 14.25L92.50 14.25Q92.50 14.38 92.44 14.38Q92.38 14.38 92.38 14.38L92.38 14.38L92.38 14.38Q92.25 14.50 92.13 14.69Q92 14.88 91.88 15L91.88 15L91.88 14.88Q91.63 15.25 91.25 15.56Q90.88 15.88 90.63 16.25L90.63 16.25L90.50 16.25Q90.38 16.38 90.19 16.56Q90 16.75 89.75 16.88L89.75 16.88Q89.63 17 89.44 17.13Q89.25 17.25 89 17.25L89 17.25Q88.88 17.38 88.69 17.44Q88.50 17.50 88.38 17.50L88.38 17.50Q88.38 17.50 88.38 17.50Q88.38 17.50 88.38 17.50L88.38 17.50Q88.25 17.50 88.13 17.50Q88 17.50 88 17.38L88 17.38L88 17.38Q87.88 17.38 87.81 17.31Q87.75 17.25 87.63 17.13L87.63 17.13L87.63 17.13Q87.75 16.88 87.81 16.56Q87.88 16.25 88 16L88 16Q88 15.75 88.06 15.50Q88.13 15.25 88.13 15L88.13 15Q88.13 14.63 88 14.25Q87.88 13.88 87.75 13.63L87.75 13.63Q87.50 13.38 87.31 13.13Q87.13 12.88 86.88 12.75L86.88 12.75L86.88 12.75Q86.63 12.63 86.31 12.50Q86 12.38 85.75 12.25L85.75 12.25L85.75 12.25Q85.38 12.13 85.13 12.13Q84.88 12.13 84.50 12.13L84.50 12.13L84.50 12.13Q83.88 12.13 83.31 12.19Q82.75 12.25 82.25 12.50L82.25 12.50Q81.75 12.75 81.25 13Q80.75 13.25 80.38 13.63L80.38 13.63L80.38 13.63Q80 13.88 79.63 14.25Q79.25 14.63 79 15.13L79 15.13Q78.75 15.50 78.50 15.88Q78.25 16.25 78.13 16.75L78.13 16.75L78 16.75Q77.88 17 77.81 17.31Q77.75 17.63 77.63 18L77.63 18L77.63 18.13Q77.50 18.13 77.50 18.13Q77.50 18.13 77.38 18.25L77.38 18.25Q77.13 18.38 76.81 18.56Q76.50 18.75 76.25 18.88L76.25 18.88Q75.88 19.13 75.50 19.31Q75.13 19.50 74.75 19.63L74.75 19.63Q74.38 19.75 74.06 19.94Q73.75 20.13 73.38 20.25L73.38 20.25Q73 20.25 72.69 20.31Q72.38 20.38 72 20.38L72 20.38L72 20.38Q71.63 20.38 71.44 20.31Q71.25 20.25 71 20.13L71 20.13Q70.88 20 70.75 19.81Q70.63 19.63 70.63 19.38L70.63 19.38Q70.63 19.13 70.69 18.94Q70.75 18.75 70.88 18.50L70.88 18.50Q70.88 18.25 71 18Q71.13 17.75 71.38 17.50L71.38 17.50Q71.50 17.25 71.69 17Q71.88 16.75 72 16.50L72 16.50Q72.25 16.25 72.44 16Q72.63 15.75 72.88 15.50L72.88 15.50Q73 15.38 73.19 15.19Q73.38 15 73.63 14.88L73.63 14.88Q73.88 14.75 74.06 14.69Q74.25 14.63 74.38 14.63L74.38 14.63Q74.50 14.63 74.63 14.69Q74.75 14.75 74.75 14.88L74.75 14.88Q74.75 14.88 74.75 15Q74.75 15.13 74.75 15.25L74.75 15.25Q74.75 15.38 74.75 15.50Q74.75 15.63 74.75 15.75L74.75 15.75L74.75 16.13Q74.75 16.25 74.81 16.31Q74.88 16.38 74.88 16.38L74.88 16.38Q74.88 16.50 75 16.50Q75.13 16.50 75.25 16.50L75.25 16.50Q75.50 16.50 75.75 16.44Q76 16.38 76.13 16.25L76.13 16.25Q76.25 16 76.44 15.81Q76.63 15.63 76.75 15.38L76.75 15.38Q76.88 15.13 76.94 14.88Q77 14.63 77 14.38L77 14.38Q77.13 14.13 77.13 13.88Q77.13 13.63 77.13 13.38L77.13 13.38Q77.13 13.38 77.13 13.38Q77.13 13.38 77.13 13.38L77.13 13.38Q77.13 13.25 77.13 13.06Q77.13 12.88 77 12.75L77 12.75L77 12.75Q77 12.63 76.88 12.56Q76.75 12.50 76.63 12.38L76.63 12.38L76.63 12.38Q76.63 12.38 76.50 12.31Q76.38 12.25 76.25 12.13L76.25 12.13L76.25 12.13Q76.13 12.13 75.94 12.13Q75.75 12.13 75.63 12.13L75.63 12.13Q75.63 12.13 75.63 12.13Q75.63 12.13 75.63 12.13L75.63 12.13L75.63 12.13Q75.13 12.13 74.69 12.19Q74.25 12.25 73.75 12.50L73.75 12.50Q73.25 12.75 72.81 13Q72.38 13.25 72 13.63L72 13.63L72 13.50Q71.63 13.88 71.25 14.25Q70.88 14.63 70.50 15.13L70.50 15.13Q70.13 15.50 69.81 15.88Q69.50 16.25 69.25 16.75L69.25 16.75L69.25 16.75Q69 17.13 68.81 17.50Q68.63 17.88 68.50 18.25L68.50 18.25L68.50 18.25Q68.50 18.25 68.44 18.31Q68.38 18.38 68.38 18.38L68.38 18.38Q68.13 18.63 67.94 18.81Q67.75 19 67.50 19.13L67.50 19.13Q67.38 19.25 67.13 19.44Q66.88 19.63 66.63 19.75L66.63 19.75Q66.38 19.88 66.19 20Q66 20.13 65.75 20.25L65.75 20.25Q65.63 20.25 65.38 20.31Q65.13 20.38 65 20.38L65 20.38L65 20.38Q64.75 20.38 64.63 20.31Q64.50 20.25 64.38 20.25L64.38 20.25Q64.25 20.13 64.25 20Q64.25 19.88 64.25 19.75L64.25 19.75Q64.25 19.50 64.25 19.31Q64.25 19.13 64.38 19L64.38 19Q64.38 18.75 64.44 18.50Q64.50 18.25 64.63 18.13L64.63 18.13Q64.75 17.75 64.88 17.56Q65 17.38 65.13 17.13L65.13 17.13L65.13 17.25Q65.13 17.13 65.25 16.88Q65.38 16.63 65.50 16.25L65.50 16.25L65.75 15.88L65.88 15.50L66.13 15Q66.25 14.88 66.31 14.69Q66.38 14.50 66.50 14.38L66.50 14.38Q66.50 14.25 66.50 14.19Q66.50 14.13 66.50 14.13L66.50 14.13L66.50 14.13Q66.63 14 66.63 13.94Q66.63 13.88 66.63 13.88L66.63 13.88L66.63 13.88Q66.63 13.63 66.50 13.38Q66.38 13.13 66.25 13L66.25 13Q66 12.75 65.75 12.69Q65.50 12.63 65.25 12.63L65.25 12.63Q65.25 12.63 65.25 12.63Q65.25 12.63 65.25 12.63L65.25 12.63L65.25 12.63Q65.13 12.63 64.94 12.63Q64.75 12.63 64.63 12.75L64.63 12.75Q64.50 12.88 64.31 13Q64.13 13.13 64.13 13.38L64.13 13.38L63.63 14.38Q63.50 14.50 63.38 14.75Q63.25 15 63.25 15.13L63.25 15.13Q63.13 15.38 63.06 15.50Q63 15.63 63 15.75L63 15.75Q62.88 16 62.75 16.25Q62.63 16.50 62.50 16.75L62.50 16.75Q62.38 17 62.25 17.25Q62.13 17.50 62 17.75L62 17.75Q61.75 17.88 61.50 18Q61.25 18.13 61 18.25L61 18.25L61 18.25Q60.75 18.38 60.50 18.44Q60.25 18.50 60 18.63L60 18.63L59.88 18.63Q59.63 18.75 59.38 18.75Q59.13 18.75 58.88 18.75L58.88 18.75L58.88 18.75Q58.63 18.75 58.44 18.69Q58.25 18.63 58.13 18.50L58.13 18.50Q58.38 18 58.63 17.63Q58.88 17.25 59.13 16.88L59.13 16.88Q59.38 16.63 59.56 16.31Q59.75 16 59.88 15.75L59.88 15.75Q60 15.50 60.13 15.19Q60.25 14.88 60.38 14.63L60.38 14.63Q60.50 14.38 60.56 14.13Q60.63 13.88 60.63 13.63L60.63 13.63Q60.63 13.25 60.56 13.06Q60.50 12.88 60.38 12.63L60.38 12.63Q60.25 12.50 60.06 12.38Q59.88 12.25 59.50 12.25L59.50 12.25Q59.38 12.25 59.19 12.38Q59 12.50 58.88 12.63L58.88 12.63Q58.63 12.75 58.50 13Q58.38 13.25 58.13 13.50L58.13 13.50Q58 13.75 57.81 14.06Q57.63 14.38 57.50 14.75L57.50 14.75Q57.38 15.13 57.19 15.44Q57 15.75 56.75 16.13L56.75 16.13Q56.63 16.50 56.38 16.88Q56.13 17.25 56 17.63L56 17.63Q55.75 17.88 55.50 18.19Q55.25 18.50 55.13 18.75L55.13 18.75L55.13 18.75Q54.75 19.13 54.50 19.38Q54.25 19.63 54.13 19.88L54.13 19.88Q53.88 20.13 53.63 20.19Q53.38 20.25 53.25 20.25L53.25 20.25Q53.25 20.25 53.19 20.25Q53.13 20.25 53.13 20.25L53.13 20.25Q53 20.13 53 20.06Q53 20 53 20L53 20L53 20Q53 19.88 52.94 19.81Q52.88 19.75 52.88 19.63L52.88 19.63L52.88 19.63Q52.88 19.63 52.88 19.50Q52.88 19.38 52.88 19.38L52.88 19.38L52.88 19.38Q52.88 19 52.94 18.69Q53 18.38 53 18L53 18Q53.13 17.50 53.25 17.13Q53.38 16.75 53.50 16.38L53.50 16.38Q53.63 15.88 53.75 15.50Q53.88 15.13 54 14.75L54 14.75Q54.13 14.25 54.25 13.88Q54.38 13.50 54.50 13.25L54.50 13.25Q54.63 13.13 54.63 13.06Q54.63 13 54.63 13L54.63 13Q54.63 13 54.63 13Q54.63 13 54.63 13L54.63 13L54.63 13Q54.63 13 54.63 13Q54.63 13 54.63 13L54.63 13Q54.63 12.88 54.56 12.75Q54.50 12.63 54.50 12.63L54.50 12.63L54.50 12.63Q54.50 12.50 54.44 12.44Q54.38 12.38 54.25 12.38L54.25 12.38L54.25 12.38Q54.13 12.25 54.06 12.19Q54 12.13 53.88 12.13L53.88 12.13L53.88 12.13Q53.75 12.13 53.69 12.13Q53.63 12.13 53.50 12.13L53.50 12.13L53.50 12.13Q53.25 12.13 53.06 12.19Q52.88 12.25 52.63 12.38L52.63 12.38Q52.38 12.50 52.25 12.69Q52.13 12.88 51.88 13.25L51.88 13.25Q51.88 13.50 51.75 13.81Q51.63 14.13 51.50 14.50L51.50 14.50Q51.38 14.88 51.25 15.31Q51.13 15.75 51 16.25L51 16.25Q50.88 16.63 50.75 17.06Q50.63 17.50 50.50 18L50.50 18L50.50 18.13Q50.38 18.25 50.19 18.31Q50 18.38 49.75 18.50L49.75 18.50Q49.50 18.75 49.19 18.88Q48.88 19 48.50 19.25L48.50 19.25Q48.13 19.38 47.75 19.56Q47.38 19.75 47 19.88L47 19.88Q46.63 20 46.31 20.13Q46 20.25 45.50 20.38L45.50 20.38Q45.25 20.50 44.88 20.50Q44.50 20.50 44.13 20.50L44.13 20.50L44.13 20.50Q43.88 20.50 43.63 20.44Q43.38 20.38 43.13 20.38L43.13 20.38Q43 20.25 42.88 20.06Q42.75 19.88 42.75 19.63L42.75 19.63L42.75 19.63Q43.75 19.25 44.56 18.94Q45.38 18.63 46 18.25L46 18.25Q46.63 17.88 47.13 17.56Q47.63 17.25 48 16.88L48 16.88Q48.38 16.50 48.69 16.19Q49 15.88 49.13 15.50L49.13 15.50Q49.25 15.13 49.38 14.81Q49.50 14.50 49.50 14.25L49.50 14.25Q49.50 13.75 49.31 13.38Q49.13 13 48.88 12.63L48.88 12.63Q48.50 12.38 48.06 12.25Q47.63 12.13 47.13 12.13L47.13 12.13ZM46.25 14L46.25 14L46.38 14Q46.50 14 46.50 14Q46.50 14 46.63 14L46.63 14Q46.63 14.13 46.69 14.13Q46.75 14.13 46.88 14.25L46.88 14.25L46.88 14.25Q46.88 14.25 46.94 14.38Q47 14.50 47 14.50L47 14.50Q47 14.50 47 14.50Q47 14.50 47 14.50L47 14.50L47 14.50Q47 14.75 46.94 14.88Q46.88 15 46.75 15.13L46.75 15.13Q46.63 15.38 46.44 15.56Q46.25 15.75 45.88 15.88L45.88 15.88Q45.75 16 45.63 16.13Q45.50 16.25 45.38 16.25L45.38 16.25L45.38 16.25Q45.25 16.38 45 16.50Q44.75 16.63 44.50 16.75L44.50 16.75Q44.38 17 44.06 17.13Q43.75 17.25 43.50 17.38L43.50 17.38Q43.25 17.63 43 17.75Q42.75 17.88 42.50 18L42.50 18Q42.50 17.88 42.56 17.69Q42.63 17.50 42.75 17.38L42.75 17.38Q42.88 17.13 42.94 16.94Q43 16.75 43.13 16.50L43.13 16.50Q43.25 16.25 43.38 16.06Q43.50 15.88 43.75 15.63L43.75 15.63Q43.88 15.38 44.06 15.19Q44.25 15 44.38 14.88L44.38 14.88L44.38 14.88Q44.63 14.63 44.81 14.50Q45 14.38 45.25 14.25L45.25 14.25L45.25 14.25Q45.50 14.13 45.75 14.06Q46 14 46.25 14L46.25 14Q46.25 14 46.25 14Q46.25 14 46.25 14L46.25 14L46.25 14ZM83.75 14.63L83.75 14.63Q84 14.63 84.19 14.69Q84.38 14.75 84.50 14.75L84.50 14.75Q84.63 14.88 84.69 15Q84.75 15.13 84.88 15.25L84.88 15.25Q85 15.38 85 15.50Q85 15.63 85 15.75L85 15.75Q85.13 15.88 85.13 16.06Q85.13 16.25 85.13 16.38L85.13 16.38Q85.13 16.75 85.06 17.13Q85 17.50 84.75 17.88L84.75 17.88L84.75 17.88Q84.63 18.13 84.44 18.50Q84.25 18.88 84 19.13L84 19.13L84 19.13Q83.75 19.38 83.50 19.63Q83.25 19.88 82.88 20L82.88 20L82.88 20Q82.63 20.25 82.31 20.31Q82 20.38 81.63 20.38L81.63 20.38Q81.38 20.38 81.25 20.31Q81.13 20.25 81 20.13L81 20.13Q80.88 20.13 80.75 20Q80.63 19.88 80.50 19.75L80.50 19.75L80.50 19.75Q80.50 19.63 80.44 19.44Q80.38 19.25 80.38 19.13L80.38 19.13L80.38 19.13Q80.38 19 80.38 18.81Q80.38 18.63 80.38 18.50L80.38 18.50L80.38 18.50Q80.38 18.13 80.44 17.81Q80.50 17.50 80.63 17.13L80.63 17.13Q80.75 16.75 80.94 16.44Q81.13 16.13 81.38 15.88L81.38 15.88Q81.63 15.63 81.88 15.38Q82.13 15.13 82.50 15L82.50 15L82.50 15Q82.75 14.75 83.13 14.69Q83.50 14.63 83.75 14.63Z"/></svg>