<svg xmlns="http://www.w3.org/2000/svg" xmlns:xlink="http://www.w3.org/1999/xlink" width="128" height="128"><path fill="#000000" d="M25.13 51.63L25.13 51.63Q20 51.63 16.88 54.69Q13.75 57.75 13.75 63.75L13.75 63.75L13.75 69.38Q14.25 69.13 14.81 69Q15.38 68.88 16 68.88L16 68.88L16 68.88Q16.63 68.88 17.19 69Q17.75 69.13 18.25 69.38L18.25 69.38L18.25 63.75Q18.25 59.88 20.13 57.88Q22 55.88 25.13 55.88L25.13 55.88Q28.25 55.88 30.13 57.88Q32 59.88 32 63.75L32 63.75L32 76.13L36.38 76.13L36.38 63.75Q36.38 57.75 33.25 54.69Q30.13 51.63 25.13 51.63L25.13 51.63ZM38.88 64.25L38.88 64.25Q38.88 58.75 42.31 55.19Q45.75 51.63 51.13 51.63L51.13 51.63Q56.63 51.63 60 55.19Q63.38 58.75 63.38 64.25L63.38 64.25L63.38 65.88L43.50 65.88Q43.88 69.13 46 70.81Q48.13 72.50 51.13 72.50L51.13 72.50Q53.38 72.50 54.94 71.75Q56.50 71 57.50 69.50L57.50 69.50L62.38 69.50Q61.13 72.75 58.13 74.75Q55.13 76.75 51.13 76.75L51.13 76.75Q45.75 76.75 42.31 73.19Q38.88 69.63 38.88 64.25L38.88 64.25ZM43.63 61.75L58.75 61.75Q58.13 58.88 56.06 57.38Q54 55.88 51.13 55.88L51.13 55.88Q48.38 55.88 46.31 57.44Q44.25 59 43.63 61.75L43.63 61.75ZM65.75 64.25L65.75 64.25Q65.75 58.75 69.19 55.19Q72.63 51.63 78.13 51.63L78.13 51.63Q83.50 51.63 86.94 55.19Q90.38 58.75 90.38 64.25L90.38 64.25Q90.38 69.63 86.94 73.19Q83.50 76.75 78.13 76.75L78.13 76.75Q72.63 76.75 69.19 73.19Q65.75 69.63 65.75 64.25L65.75 64.25ZM86 64.25L86 64.25Q86 60.63 83.81 58.25Q81.63 55.88 78.13 55.88L78.13 55.88Q74.50 55.88 72.38 58.25Q70.25 60.63 70.25 64.25L70.25 64.25Q70.25 67.88 72.38 70.19Q74.50 72.50 78.13 72.50L78.13 72.50Q81.63 72.50 83.81 70.19Q86 67.88 86 64.25ZM115.63 80.88L115.63 80.88L116.13 80.88Q118.25 80.88 119.13 79.81Q120 78.75 120 76.25L120 76.25L120 52.50L124.38 52.50L124.38 75.88Q124.38 80.38 122.56 82.63Q120.75 84.88 116.50 84.88L116.50 84.88L115.63 84.88L115.63 80.88ZM113.38 78.38L113.38 78.38L109 78.38L109 72.75L97.88 72.75Q97.75 72.75 97.75 72.75Q97.75 72.75 97.63 72.75L97.63 72.75Q96.88 72.75 96.19 72.56Q95.50 72.38 94.88 72L94.88 72L94.88 72Q94.25 71.63 93.69 71.06Q93.13 70.50 92.88 69.88L92.88 69.88L92.75 69.75Q92.63 69.25 92.50 68.69Q92.38 68.13 92.38 67.63L92.38 67.63Q92.38 67.38 92.38 67.25Q92.38 67.13 92.38 67L92.38 67L92.38 67Q92.38 66.25 92.69 65.56Q93 64.88 93.38 64.38L93.38 64.38L93.38 64.38L103.38 50.63Q103.88 50 104.63 49.44Q105.38 48.88 106.13 48.63L106.13 48.63L106.25 48.63Q106.63 48.50 107 48.44Q107.38 48.38 107.88 48.38L107.88 48.38Q108.38 48.38 108.81 48.44Q109.25 48.50 109.63 48.63L109.63 48.63L109.63 48.63Q110.50 48.88 111.19 49.44Q111.88 50 112.38 50.75L112.38 50.75L112.38 50.75Q112.88 51.38 113.13 52.25Q113.38 53.13 113.38 54.13L113.38 54.13L113.38 68.75L116.75 68.75L116.75 72.75L113.38 72.75L113.38 78.38ZM97.13 66.88L97.13 66.88Q97 67 96.94 67.19Q96.88 67.38 96.88 67.50L96.88 67.50Q96.88 67.63 96.88 67.75Q96.88 67.88 97 68L97 68L97 68Q97 68.13 97.06 68.19Q97.13 68.25 97.13 68.38L97.13 68.38Q97.38 68.50 97.56 68.56Q97.75 68.63 98 68.63L98 68.63Q98 68.63 98 68.63Q98 68.63 98 68.63L98 68.63L109 68.63L109 54Q109 54 109 53.94Q109 53.88 109 53.88L109 53.88Q109 53.75 108.94 53.56Q108.88 53.38 108.75 53.25L108.75 53.25L108.75 53.25Q108.75 53.13 108.56 53Q108.38 52.88 108.25 52.88L108.25 52.88L108.25 52.88Q108.13 52.88 108.06 52.81Q108 52.75 107.88 52.75L107.88 52.75L107.88 52.75Q107.75 52.75 107.63 52.81Q107.50 52.88 107.38 52.88L107.38 52.88Q107.25 53 107.13 53.06Q107 53.13 107 53.25L107 53.25L107 53.25L97.13 66.88ZM122.25 42.63L122.25 42.63Q122.25 42.63 122.25 42.63Q122.25 42.63 122.25 42.63L122.25 42.63Q121.63 42.63 121.13 42.81Q120.63 43 120.13 43.38L120.13 43.38L120.13 43.38Q119.63 43.63 119.31 44.06Q119 44.50 118.75 45.13L118.75 45.13L118.75 45.13Q118.63 45.50 118.56 45.88Q118.50 46.25 118.50 46.63L118.50 46.63Q118.50 46.88 118.50 47.06Q118.50 47.25 118.50 47.38L118.50 47.38L118.50 47.38Q118.63 48 118.88 48.50Q119.13 49 119.50 49.38L119.50 49.38L119.50 49.38Q120 49.75 120.50 50.06Q121 50.38 121.50 50.50L121.50 50.50Q121.63 50.50 121.81 50.50Q122 50.50 122.25 50.50L122.25 50.50Q122.63 50.50 123 50.44Q123.38 50.38 123.75 50.25L123.75 50.25L123.63 50.25Q124.25 50 124.69 49.63Q125.13 49.25 125.38 48.88L125.38 48.88L125.38 48.75Q125.63 48.38 125.81 47.81Q126 47.25 126 46.63L126 46.63Q126 46.63 126 46.63Q126 46.63 126 46.63L126 46.63L126 46.63Q126 46.63 126 46.63Q126 46.63 126 46.63L126 46.63Q126 45.75 125.69 45.06Q125.38 44.38 124.88 43.88L124.88 43.88L124.88 43.88Q124.38 43.25 123.69 43Q123 42.75 122.25 42.63L122.25 42.63L122.25 42.63ZM15.75 70.38L15.75 70.38Q15.25 70.38 14.63 70.56Q14 70.75 13.50 71.13L13.50 71.13L9.38 68.13Q9.50 67.88 9.50 67.63Q9.50 67.38 9.50 67.13L9.50 67.13Q9.50 67.13 9.50 67.13Q9.50 67.13 9.50 67.13L9.50 67.13Q9.50 66.50 9.38 65.94Q9.25 65.38 8.88 64.88L8.88 64.88L8.88 64.88Q8.63 64.50 8.19 64.13Q7.75 63.75 7.25 63.50L7.25 63.50L7.25 63.50Q6.88 63.25 6.50 63.19Q6.13 63.13 5.75 63.13L5.75 63.13Q5.63 63.13 5.44 63.13Q5.25 63.13 5 63.25L5 63.25L5 63.25Q4.50 63.38 4 63.63Q3.50 63.88 3.13 64.25L3.13 64.25L3.13 64.25Q2.75 64.63 2.50 65.19Q2.25 65.75 2.13 66.25L2.13 66.25L2.13 66.25Q2 66.50 2 66.69Q2 66.88 2 67.13L2 67.13Q2 67.50 2.06 67.88Q2.13 68.25 2.25 68.63L2.25 68.63L2.25 68.50Q2.50 69.13 2.88 69.56Q3.25 70 3.63 70.38L3.63 70.38Q4.13 70.63 4.69 70.81Q5.25 71 5.75 71L5.75 71Q6.38 71 6.94 70.81Q7.50 70.63 8 70.25L8 70.25L12.13 73.13Q12.13 73.38 12.06 73.69Q12 74 12 74.25L12 74.25Q12 74.50 12.06 74.81Q12.13 75.13 12.13 75.38L12.13 75.38L12.13 75.25L8 78.25Q7.50 77.88 6.94 77.69Q6.38 77.50 5.75 77.50L5.75 77.50L5.75 77.50Q5.75 77.50 5.75 77.50Q5.75 77.50 5.75 77.50L5.75 77.50Q5.13 77.50 4.63 77.63Q4.13 77.75 3.63 78.13L3.63 78.13L3.63 78.13Q3.25 78.50 2.88 78.94Q2.50 79.38 2.25 79.88L2.25 79.88L2.25 79.88Q2.13 80.25 2.06 80.63Q2 81 2 81.38L2 81.38Q2 81.63 2 81.81Q2 82 2 82.13L2 82.13L2 82.13Q2.13 82.75 2.44 83.25Q2.75 83.75 3.13 84.13L3.13 84.13L3.13 84.13Q3.50 84.63 4 84.88Q4.50 85.13 5 85.25L5 85.25Q5.13 85.25 5.31 85.31Q5.50 85.38 5.75 85.38L5.75 85.38Q6.13 85.38 6.50 85.25Q6.88 85.13 7.25 85L7.25 85L7.25 85Q7.75 84.75 8.19 84.38Q8.63 84 8.88 83.63L8.88 83.63L8.88 83.63Q9.25 83.13 9.38 82.56Q9.50 82 9.50 81.38L9.50 81.38Q9.50 81.13 9.50 80.88Q9.50 80.63 9.38 80.38L9.38 80.38L13.50 77.38Q14 77.75 14.63 77.94Q15.25 78.13 15.75 78.13L15.75 78.13Q16.50 78.13 17.19 77.81Q17.88 77.50 18.25 77L18.25 77L18.25 76.88Q18.75 76.38 19.06 75.69Q19.38 75 19.38 74.25L19.38 74.25Q19.38 74.25 19.38 74.25Q19.38 74.25 19.38 74.25L19.38 74.25L19.38 74.25Q19.38 73.50 19.06 72.81Q18.75 72.13 18.25 71.63L18.25 71.63Q17.88 71 17.19 70.69Q16.50 70.38 15.88 70.38L15.88 70.38L15.75 70.38Z"/></svg>