<svg xmlns="http://www.w3.org/2000/svg" xmlns:xlink="http://www.w3.org/1999/xlink" width="128" height="128"><path fill="#000000" d="M63.38 32.63L63.38 32.63Q59.38 33.25 56.19 34.81Q53 36.38 50.50 38.88L50.50 38.88Q47.63 41.75 46.06 45.38Q44.50 49 44 54.25L44 54.25Q43.75 56.50 43.69 63.06Q43.63 69.63 43.75 69.63L43.75 69.63Q43.88 69.63 44.25 69.50Q44.63 69.38 45.25 69.13L45.25 69.13Q46.38 68.63 48.63 68.63Q50.88 68.63 52.25 69.13L52.25 69.13L53.63 69.63L53.75 61.63Q53.88 55.13 54.19 53Q54.50 50.88 55.75 48.50L55.75 48.50Q56.50 46.88 58.31 45.25Q60.13 43.63 61.75 42.88L61.75 42.88Q63.75 41.88 66.31 41.56Q68.88 41.25 71.13 41.63L71.13 41.63Q75.75 42.38 78.63 45Q81.50 47.63 82.63 52.13L82.63 52.13Q83.13 54 83.25 56.56Q83.38 59.13 83.38 69.25L83.38 69.25L83.38 83.63L93.38 83.63L93.25 67.88Q93.13 56.75 93 54.06Q92.88 51.38 92.38 49.38L92.38 49.38Q91 43.75 87.63 39.88Q84.25 36 79.38 34.13L79.38 34.13Q76.88 33.13 74.25 32.75Q71.63 32.38 68.25 32.38L68.25 32.38Q66.50 32.38 65.06 32.44Q63.63 32.50 63.38 32.63L63.38 32.63ZM22.75 57.25L22.75 57.25Q20.63 58.25 19.50 60.19Q18.38 62.13 18.38 64.63L18.38 64.63Q18.38 65.50 18.50 66.44Q18.63 67.38 18.75 67.75L18.75 67.75Q19.25 69 20.44 70.25Q21.63 71.50 22.75 72.13L22.75 72.13Q24.25 72.88 26.50 72.88Q28.75 72.88 30.13 72.13L30.13 72.13L31.50 71.38L35.75 74.38L40.13 77.25L40.13 81.75L35.75 84.63L31.50 87.63L30.38 86.88Q29.25 86.25 27.25 86.13Q25.25 86 23.75 86.50L23.75 86.50Q22.25 87.13 20.88 88.31Q19.50 89.50 19 90.88L19 90.88Q18.38 92.13 18.38 94.31Q18.38 96.50 19 97.88L19 97.88Q19.50 99 20.56 100.19Q21.63 101.38 22.75 101.88L22.75 101.88Q23.25 102.13 24.19 102.31Q25.13 102.50 26 102.63L26 102.63Q28.13 102.75 29.88 102.06Q31.63 101.38 32.88 99.88L32.88 99.88Q33.88 98.63 34.50 96.81Q35.13 95 34.88 93.50L34.88 93.50L34.75 92.13L43.38 86.38L44.88 87.13Q46.63 87.88 48.94 87.69Q51.25 87.50 52.88 86.50L52.88 86.50Q54.63 85.38 55.56 83.75Q56.50 82.13 56.63 79.88L56.63 79.88Q56.63 78.25 56.50 77.56Q56.38 76.88 55.75 75.63L55.75 75.63Q54.13 72.63 50.94 71.56Q47.75 70.50 44.63 72L44.63 72L43.38 72.63L34.88 66.88L34.88 64.50Q34.75 62.38 34.13 60.94Q33.50 59.50 32 58.25L32 58.25Q30.13 56.63 27.56 56.38Q25 56.13 22.75 57.25L22.75 57.25Z"/></svg>