<svg xmlns="http://www.w3.org/2000/svg" xmlns:xlink="http://www.w3.org/1999/xlink" width="128" height="128"><path fill="#000000" d="M116 2.75L116 2.75Q111.88-0.88 107 0.19Q102.13 1.25 97.25 5.63L97.25 5.63Q96.50 6.38 95.75 7.06Q95 7.75 94.38 8.50L94.38 8.50L94.25 8.50Q90.13 13 86.13 19.13L86.13 19.13Q82.13 25.25 78.81 32.13Q75.50 39 73 46L73 46Q70.63 53.13 69.38 59.38L69.38 59.38Q70.38 61.38 71.06 63.63Q71.75 65.88 72.25 67.75L72.25 67.75Q72.50 68.75 72.75 69.69Q73 70.63 73.13 71.50L73.13 71.50Q73.13 71.50 73.06 71.19Q73 70.88 72.63 69.88L72.63 69.88L72.38 69.13Q72.25 69 72.25 68.88Q72.25 68.75 72.13 68.63L72.13 68.63L72.25 68.75Q71.63 67.50 70.44 65.25Q69.25 63 68.50 61.88L68.50 61.88Q68.25 62.50 67.81 63.94Q67.38 65.38 66.88 66.88L66.88 66.88L66.50 68.13Q68.50 71.63 69.56 76.25Q70.63 80.88 70.63 80.88L70.63 80.88Q70.63 80.88 70.50 80.44Q70.38 80 69.88 78.63L69.88 78.63Q69.50 77.38 67.88 74.50Q66.25 71.63 65.75 70.75L65.75 70.75Q64.88 74 64.56 76.06Q64.25 78.13 64.63 78.63L64.63 78.63Q65.13 79.63 65.75 81.31Q66.38 83 66.88 85L66.88 85Q68 89.38 68.69 93.69Q69.38 98 69.38 98L69.38 98L69.50 99.13Q69.38 102.88 69.44 106.50Q69.50 110.13 69.75 113.88L69.75 113.88Q70.13 118.38 70.81 122.13Q71.50 125.88 72.50 128L72.50 128L73.25 127.50Q72 123.38 71.44 118Q70.88 112.63 71.13 106.38L71.13 106.38Q71.25 101.63 71.88 96.38L71.88 96.38Q72.63 91.13 73.69 85.50Q74.75 79.88 76.38 74L76.38 74Q77.88 68.13 80 62.13L80 62.13Q83.38 53 87.50 44.88L87.50 44.88Q91.50 36.75 95.81 29.94Q100.13 23.13 104.63 17.88L104.63 17.88Q109.13 12.50 113.50 9.13L113.50 9.13Q109.63 12.63 105.13 19.63L105.13 19.63Q100.63 26.63 96.50 34.44Q92.38 42.25 89.13 49.63L89.13 49.63Q85.88 57 84.25 61.25L84.25 61.25Q80.63 71 78.06 80.06Q75.50 89.13 73.88 97.88L73.88 97.88Q76.63 89.75 82.81 86.06Q89 82.38 89 82.38L89 82.38Q89 82.38 92.63 77.63Q96.25 72.88 101.25 65.38L101.25 65.38Q98.25 66.13 94.25 67.13Q90.25 68.13 88.63 68.75L88.63 68.75Q86.25 69.75 85.38 70.19Q84.50 70.63 84.50 70.63L84.50 70.63Q84.50 70.63 90.81 67.06Q97.13 63.50 103.75 61.38L103.75 61.38Q108.38 54.13 112.75 45.75L112.75 45.75Q117.13 37.38 119.50 29.31Q121.88 21.25 121.38 14.25L121.38 14.25Q121 7.25 116 2.75L116 2.75ZM93.38 5.63L16.88 5.63Q12.88 5.75 10 8.56Q7.13 11.38 7.13 15.50L7.13 15.50L7.13 104Q7.13 108.13 10 111Q12.88 113.88 16.88 113.88L16.88 113.88L67.13 113.88Q67 111.63 66.88 109.19Q66.75 106.75 66.75 104.25L66.75 104.25Q66.75 103 66.75 101.69Q66.75 100.38 66.88 99.13L66.88 99.13L66.88 99.38Q66.88 99.13 66.81 98.81Q66.75 98.50 66.75 98.38L66.75 98.38Q66.13 94.50 65.50 91.19Q64.88 87.88 64 84.63L64 84.63L64.25 85.63Q63.75 83.75 63.19 82.19Q62.63 80.63 62.25 80L62.25 80Q61.75 79.25 61.75 78.75Q61.75 78.25 61.75 77.75L61.75 77.75Q61.75 77.25 61.81 76.75Q61.88 76.25 62 75.63L62 75.63Q62.25 74.25 62.50 72.88Q62.75 71.50 63.25 70.13L63.25 70.13L64.38 69.88Q64.25 69.75 64.25 69.63Q64.25 69.50 64.25 69.38L64.25 69.38L64 67.38Q64.50 65.75 65 64.19Q65.50 62.63 66 61L66 61L67.13 60.88Q67 60.88 67 60.75Q67 60.63 67 60.63L67 60.63L66.75 58.88Q68 52.38 70.50 45.13L70.50 45.13Q73 37.88 76.38 30.94Q79.75 24 83.88 17.75L83.88 17.75Q87.88 11.38 92.38 6.75L92.38 6.75Q92.63 6.38 92.88 6.19Q93.13 6 93.38 5.63L93.38 5.63Z"/></svg>