<svg xmlns="http://www.w3.org/2000/svg" xmlns:xlink="http://www.w3.org/1999/xlink" width="128" height="128"><path fill="#000000" d="M48.63 63.63L48.63 63.63Q47.38 63.63 46.31 64Q45.25 64.38 44.50 65.13L44.50 65.13Q43.75 65.88 43.31 66.88Q42.88 67.88 42.88 69.13L42.88 69.13Q42.88 69.75 43 70.31Q43.13 70.88 43.25 71.50L43.25 71.50Q43.50 72 43.81 72.50Q44.13 73 44.50 73.38L44.50 73.38Q44.88 73.88 45.75 74.44Q46.63 75 47.88 75.88L47.88 75.88Q49.38 76.75 50.38 77.50Q51.38 78.25 51.75 78.88L51.75 78.88Q52.25 79.50 52.50 80.06Q52.75 80.63 52.75 81.38L52.75 81.38Q52.75 82.25 52.44 82.94Q52.13 83.63 51.63 84.13L51.63 84.13Q51 84.63 50.25 84.88Q49.50 85.13 48.50 85.13L48.50 85.13Q47.50 85.13 46.63 84.75Q45.75 84.38 45 83.63L45 83.63Q44.25 83 43.81 82.06Q43.38 81.13 43.38 79.88L43.38 79.88L42.75 79.88L42.75 85.63L43.38 85.63Q43.63 85.25 43.81 85Q44 84.75 44.25 84.75L44.25 84.75Q44.38 84.75 44.69 84.88Q45 85 45.38 85.13L45.38 85.13Q46.50 85.50 47.44 85.69Q48.38 85.88 49.13 85.88L49.13 85.88Q50.25 85.88 51.31 85.44Q52.38 85 53.25 84.13L53.25 84.13Q54.25 83.25 54.69 82.19Q55.13 81.13 55.13 79.88L55.13 79.88Q55.13 78.88 54.81 78Q54.50 77.13 53.88 76.38L53.88 76.38Q53.38 75.63 52.25 74.75Q51.13 73.88 49.38 72.88L49.38 72.88Q48 72 47.06 71.31Q46.13 70.63 45.63 70.13L45.63 70.13Q45.25 69.50 45 68.88Q44.75 68.25 44.75 67.63L44.75 67.63Q44.75 66.88 45.06 66.31Q45.38 65.75 45.88 65.25L45.88 65.25Q46.38 64.88 47.06 64.63Q47.75 64.38 48.63 64.38L48.63 64.38Q49.63 64.38 50.38 64.69Q51.13 65 51.75 65.63L51.75 65.63Q52.50 66.13 52.81 66.94Q53.13 67.75 53.25 68.88L53.25 68.88L53.88 68.88L53.88 63.88L53.38 63.88Q53.25 64 53.19 64.13Q53.13 64.25 53.13 64.38L53.13 64.38Q53.13 64.38 53 64.44Q52.88 64.50 52.75 64.50L52.75 64.50Q52.63 64.50 52.38 64.38Q52.13 64.25 51.75 64.13L51.75 64.13Q50.88 63.88 50.13 63.75Q49.38 63.63 48.63 63.63L48.63 63.63ZM69.25 63.63L69.25 63.63Q67.63 63.63 66.25 64Q64.88 64.38 63.63 65.13L63.63 65.13Q62.25 65.88 61.25 66.88Q60.25 67.88 59.50 69.13L59.50 69.13Q58.75 70.50 58.38 71.88Q58 73.25 58 74.75L58 74.75Q58 76.75 58.69 78.50Q59.38 80.25 60.63 81.88L60.63 81.88Q61.88 83.38 63.44 84.31Q65 85.25 66.88 85.63L66.88 85.63Q67.25 85.88 67.88 86.44Q68.50 87 69.25 87.88L69.25 87.88Q70.13 88.88 70.88 89.63Q71.63 90.38 72.25 90.88L72.25 90.88Q72.75 91.25 73.38 91.56Q74 91.88 74.75 92.13L74.75 92.13L74.75 92.13Q75.50 92.38 76.25 92.50Q77 92.63 77.75 92.63L77.75 92.63Q78.75 92.63 79.63 92.44Q80.50 92.25 81.38 91.88L81.38 91.88L81.13 91.25Q80.63 91.50 80.19 91.56Q79.75 91.63 79.25 91.63L79.25 91.63Q79.25 91.63 79.25 91.63Q79.25 91.63 79.13 91.63L79.13 91.63L79.13 91.63Q78.50 91.63 77.81 91.38Q77.13 91.13 76.38 90.75L76.38 90.75Q75.75 90.25 74.88 89.38Q74 88.50 73 87.25L73 87.25Q72.50 86.63 72.13 86.25Q71.75 85.88 71.63 85.63L71.63 85.63Q73.63 85.25 75.25 84.31Q76.88 83.38 78.13 81.75L78.13 81.75Q79.38 80.25 80 78.50Q80.63 76.75 80.63 74.75L80.63 74.75Q80.63 72.38 79.81 70.44Q79 68.50 77.38 66.88L77.38 66.88Q75.75 65.25 73.69 64.44Q71.63 63.63 69.25 63.63L69.25 63.63ZM89.25 63.63L82.13 63.63L82.13 64.25Q83.13 64.25 83.75 64.56Q84.38 64.88 84.50 65.50L84.50 65.50Q84.50 65.75 84.56 66.19Q84.63 66.63 84.63 67.13L84.63 67.13L84.50 82.13Q84.50 83 84.38 83.56Q84.25 84.13 84.13 84.25L84.13 84.25Q83.88 84.50 83.50 84.69Q83.13 84.88 82.50 84.88L82.50 84.88L82.50 85.50L96.25 85.50L96.63 82.13L96 82.13Q95.88 82.88 95.56 83.38Q95.25 83.88 94.75 84.13L94.75 84.13Q94.25 84.38 93.38 84.50Q92.50 84.63 91.25 84.63L91.25 84.63L89.88 84.63Q88.75 84.63 88.13 84.25Q87.50 83.88 87.38 83L87.38 83Q87.25 82.88 87.25 82.69Q87.25 82.50 87.25 82.38L87.25 82.38Q87.25 82.38 87.25 82.38Q87.25 82.38 87.25 82.38L87.25 82.38L87.25 82.38L87.25 67.13Q87.25 66.38 87.38 65.81Q87.50 65.25 87.75 64.88L87.75 64.88Q88 64.63 88.38 64.50Q88.75 64.38 89.38 64.25L89.38 64.25L89.25 63.63ZM69.50 64.38L69.50 64.38Q71.25 64.38 72.69 65.13Q74.13 65.88 75.25 67.25L75.25 67.25Q76.25 68.63 76.81 70.56Q77.38 72.50 77.38 74.88L77.38 74.88Q77.38 77.25 76.81 79.13Q76.25 81 75.13 82.38L75.13 82.38Q74.13 83.75 72.63 84.44Q71.13 85.13 69.25 85.13L69.25 85.13Q67.50 85.13 66.06 84.44Q64.63 83.75 63.50 82.25L63.50 82.25Q62.38 80.88 61.81 79Q61.25 77.13 61.25 74.75L61.25 74.75Q61.25 72.38 61.81 70.50Q62.38 68.63 63.50 67.25L63.50 67.25Q64.63 65.88 66.13 65.13Q67.63 64.38 69.50 64.38L69.50 64.38ZM101.25 67.63L101.25 67.63Q101 67.63 100.75 67.75Q100.50 67.88 100.38 68L100.38 68Q100.25 68.13 100.19 68.38Q100.13 68.63 100.25 68.88L100.25 68.88Q100.25 69.13 100.38 69.31Q100.50 69.50 100.75 69.75L100.75 69.75Q101 69.88 101.25 70Q101.50 70.13 101.75 70.13L101.75 70.13Q101.75 70.13 101.75 70.13Q101.75 70.13 101.75 70.13L101.75 70.13Q102 70.13 102.19 70Q102.38 69.88 102.50 69.75L102.50 69.75L102.50 69.75Q102.63 69.50 102.63 69.31Q102.63 69.13 102.63 68.88L102.63 68.88Q102.50 68.63 102.38 68.38Q102.25 68.13 102.13 68L102.13 68L102.13 68Q101.88 67.88 101.69 67.75Q101.50 67.63 101.25 67.63L101.25 67.63L101.25 67.63ZM110.88 70L110.25 70Q109.88 71.63 108.94 72.50Q108 73.38 106.63 73.63L106.63 73.63L106.63 74.25L108.88 74.25L108.75 81.75Q108.75 82.63 108.81 83.25Q108.88 83.88 108.88 84.25L108.88 84.25Q109.13 85 109.63 85.44Q110.13 85.88 110.88 85.88L110.88 85.88Q112.13 85.88 113.44 85.13Q114.75 84.38 116.13 82.88L116.13 82.88L115.50 82.38Q114.50 83.38 113.69 83.88Q112.88 84.38 112.13 84.38L112.13 84.38Q111.63 84.38 111.31 84.06Q111 83.75 111 83.25L111 83.25Q110.88 83.13 110.88 83Q110.88 82.88 110.88 82.75L110.88 82.75Q110.88 82.75 110.88 82.75Q110.88 82.75 110.88 82.63L110.88 82.63L110.88 82.63L110.88 74.25L114.25 74.25L114.25 73.25L110.88 73.25L110.88 70ZM123.38 72.75L123.38 72.75Q122 72.75 120.81 73.44Q119.63 74.13 118.75 75.50L118.75 75.50Q117.88 77 117.63 78.50Q117.38 80 117.63 81.75L117.63 81.75Q117.88 82.63 118.31 83.44Q118.75 84.25 119.38 84.75L119.38 84.75Q120 85.25 120.81 85.56Q121.63 85.88 122.50 85.88L122.50 85.88Q123.38 85.88 124.44 85.63Q125.50 85.38 126.13 84.88L126.13 84.88Q126.63 84.50 127.06 83.75Q127.50 83 128 82L128 82L127.50 81.50Q126.88 82.75 125.56 83.44Q124.25 84.13 123.25 84.13L123.25 84.13Q121.75 84.13 120.81 83.31Q119.88 82.50 119.63 80.88L119.63 80.88Q119.50 80.63 119.50 80.44Q119.50 80.25 119.50 80L119.50 80L119.50 80Q121.25 79.63 122.56 79.13Q123.88 78.63 124.75 78L124.75 78Q125.75 77.25 126.44 76.50Q127.13 75.75 127 74.88L127 74.88Q126.88 74.38 126.63 74Q126.38 73.63 126 73.38L126 73.38L126 73.38Q125.63 73.13 124.81 72.94Q124 72.75 123.38 72.75L123.38 72.75ZM103.38 72.88L102.63 72.88L98.63 73.75L98.63 74.50L100 74.38Q100.50 74.38 100.81 74.63Q101.13 74.88 101.25 75.25L101.25 75.25Q101.25 75.50 101.25 75.69Q101.25 75.88 101.25 76.13L101.25 76.13L101.25 82.88Q101.25 83.63 101.19 84Q101.13 84.38 100.88 84.50L100.88 84.50Q100.75 84.63 100.31 84.69Q99.88 84.75 99.25 84.75L99.25 84.75L99.25 85.38L105.75 85.38L105.75 84.75Q105 84.75 104.56 84.69Q104.13 84.63 104 84.63L104 84.63Q103.75 84.50 103.63 84.31Q103.50 84.13 103.50 83.75L103.50 83.75Q103.38 83.63 103.38 83.25Q103.38 82.88 103.38 82.38L103.38 82.38L103.38 72.88ZM122.38 74.13L122.38 74.13Q122.63 74.13 122.94 74.25Q123.25 74.38 123.50 74.63L123.50 74.63Q123.88 74.75 124 75Q124.13 75.25 124.25 75.63L124.25 75.63Q124.50 76.88 123.31 77.81Q122.13 78.75 119.50 79.25L119.50 79.25Q119.38 78.25 119.56 77.38Q119.75 76.50 120.13 75.75L120.13 75.75Q120.63 74.88 121.19 74.50Q121.75 74.13 122.38 74.13L122.38 74.13ZM11.50 76.75L11.50 76.50Q11.50 76.50 11.50 76.56Q11.50 76.63 11.50 76.63L11.50 76.63Q11.50 76.63 11.50 76.75Q11.50 76.88 11.50 76.88L11.50 76.88Q11.50 76.88 11.50 76.81Q11.50 76.75 11.50 76.75L11.50 76.75ZM47.75 36.63L47.75 36.63Q45.88 35 43.75 35.50Q41.63 36 39.50 37.88L39.50 37.88Q39.13 38.25 38.81 38.56Q38.50 38.88 38.25 39.25L38.25 39.25Q34.50 43.13 31.44 49.63Q28.38 56.13 27.25 61.63L27.25 61.63Q27.75 62.50 28.06 63.50Q28.38 64.50 28.63 65.38L28.63 65.38Q28.63 65.75 28.75 66.13Q28.88 66.50 29 67L29 67Q29 67 28.94 66.81Q28.88 66.63 28.75 66.25L28.75 66.25L28.63 65.88Q28.63 65.88 28.56 65.81Q28.50 65.75 28.50 65.75L28.50 65.75L28.50 65.75Q28.25 65.13 27.75 64.19Q27.25 63.25 26.88 62.75L26.88 62.75Q26.75 63 26.56 63.63Q26.38 64.25 26.13 65L26.13 65L26 65.50Q26.88 67 27.38 69.06Q27.88 71.13 27.88 71.13L27.88 71.13Q27.88 71.13 27.81 70.94Q27.75 70.75 27.50 70.13L27.50 70.13Q27.38 69.50 26.69 68.25Q26 67 25.75 66.63L25.75 66.63Q25.38 68 25.19 68.94Q25 69.88 25.13 70.13L25.13 70.13Q25.50 70.63 25.75 71.31Q26 72 26.13 72.88L26.13 72.88Q26.63 74.88 26.94 76.75Q27.25 78.63 27.25 78.63L27.25 78.63L27.38 79.13Q27.38 79.63 27.31 80.19Q27.25 80.75 27.25 81.38L27.25 81.38Q27.25 82.50 27.31 83.63Q27.38 84.75 27.50 85.88L27.50 85.88L27.50 85.63Q27.63 87.63 27.94 89.31Q28.25 91 28.63 91.88L28.63 91.88L29 91.75Q28.38 89.88 28.19 87.50Q28 85.13 28 82.38L28 82.38Q28.25 78.13 29.19 73.13Q30.13 68.13 31.88 62.88L31.88 62.88Q35 54.75 38.94 48.63Q42.88 42.50 46.63 39.38L46.63 39.38Q43.13 42.63 39.19 50.63Q35.25 58.63 33.75 62.50L33.75 62.50Q32.25 66.75 31.13 70.75Q30 74.75 29.25 78.63L29.25 78.63Q30.50 75 33.19 73.38Q35.88 71.75 35.88 71.75L35.88 71.75Q35.88 71.75 37.50 69.69Q39.13 67.63 41.25 64.25L41.25 64.25Q40 64.63 38.19 65.06Q36.38 65.50 35.75 65.75L35.75 65.75Q34.63 66.25 34.31 66.38Q34 66.50 34 66.50L34 66.50Q34 66.50 36.75 65Q39.50 63.50 42.38 62.50L42.38 62.50Q46.38 56.13 49.25 48.38Q52.13 40.63 47.75 36.63L47.75 36.63ZM37.88 37.88L4.25 37.88Q2.50 38 1.25 39.25Q0 40.50 0 42.25L0 42.25L0 81.38Q0 83.13 1.25 84.38Q2.50 85.63 4.25 85.63L4.25 85.63L26.25 85.63Q26.25 84.75 26.19 83.63Q26.13 82.50 26.13 81.38L26.13 81.38Q26.13 80.88 26.13 80.31Q26.13 79.75 26.25 79.13L26.25 79.13L26.25 79.25Q26.13 79.13 26.13 79Q26.13 78.88 26.13 78.75L26.13 78.75Q25.88 77.13 25.56 75.63Q25.25 74.13 25 72.75L25 72.75L25 73.25Q24.88 72.38 24.63 71.69Q24.38 71 24.13 70.75L24.13 70.75Q24 70.38 24 70.13Q24 69.88 24 69.75L24 69.75Q24 69.50 24 69.25Q24 69 24 68.75L24 68.75Q24.13 68.13 24.25 67.56Q24.38 67 24.63 66.38L24.63 66.38L25.13 66.25Q25.13 66.25 25.06 66.19Q25 66.13 25 66L25 66L24.88 65.13Q25.13 64.50 25.38 63.75Q25.63 63 25.88 62.38L25.88 62.38L26.25 62.25Q26.25 62.25 26.25 62.25Q26.25 62.25 26.25 62.13L26.25 62.13L26.13 61.38Q27.25 55.63 30.38 49.06Q33.50 42.50 37.38 38.38L37.38 38.38Q37.50 38.25 37.63 38.13Q37.75 38 37.88 37.88L37.88 37.88Z"/></svg>