<svg xmlns="http://www.w3.org/2000/svg" xmlns:xlink="http://www.w3.org/1999/xlink" width="128" height="128"><path fill="#000000" d="M71.38 38.75L71.38 38.75Q70.25 38.38 68.50 38.06Q66.75 37.75 64.50 37.75L64.50 37.75Q61.38 37.63 58.44 37.88Q55.50 38.13 55.25 38.25L55.25 38.25L55.25 58.25Q65.25 58.63 68 57.56Q70.75 56.50 70.75 56.50L70.75 56.50Q79.50 52.13 76.81 46Q74.13 39.88 71.38 38.75L71.38 38.75ZM64 0L64 0Q50.75 0 39.13 5L39.13 5Q27.38 10 18.69 18.69Q10 27.38 5 39.13L5 39.13Q0 50.75 0 64L0 64Q0 77.25 5 88.88L5 88.88Q10 100.63 18.69 109.31Q27.38 118 39.13 123L39.13 123Q50.75 128 64 128L64 128Q77.25 128 88.88 123L88.88 123Q100.63 118 109.31 109.31Q118 100.63 123 88.88L123 88.88Q128 77.25 128 64L128 64Q128 50.75 123 39.13L123 39.13Q117.88 27.38 109.19 18.69Q100.50 10 88.88 5L88.88 5Q77.25 0 64 0ZM92.63 89.75L92.63 89.75L82 89.75L64.38 63.50L55.38 63.50L55.38 84L64.38 84L64.38 89.75L41.50 89.75L41.50 84.13L49.13 84L49 38.13Q48.38 38 44.94 37.63Q41.50 37.25 41.50 37.25L41.50 37.25L41.50 32Q42.25 32.75 45.81 33Q49.38 33.25 49.38 33.25L49.38 33.25Q50.63 33.25 52.13 33.31Q53.63 33.38 54.63 33.13L54.63 33.13Q61.63 31.88 66.31 32.31Q71 32.75 71 32.75L71 32.75Q81.50 35.13 82.88 42.69Q84.25 50.25 81.25 55.25L81.25 55.25Q78.63 59.63 74.81 61.06Q71 62.50 71 62.50L71 62.50L85.38 84.25L92.63 84.25L92.63 89.75Z"/></svg>