<svg xmlns="http://www.w3.org/2000/svg" xmlns:xlink="http://www.w3.org/1999/xlink" width="128" height="128"><path fill="#000000" d="M60.13 65.63L49.13 58.25L56.50 54.88L60.13 65.63ZM49.75 66.25L41.63 62.13L45.88 59.63L49.75 66.25ZM38.88 71.50L33.25 67.63L37 64.75L38.88 71.50ZM93.38 88.13L99.50 85.25L96.88 82.75L93.38 88.13ZM96.75 93.13L104.50 91.13L102.38 88.88L96.75 93.13ZM92.88 39.88L95.50 30.63L88.75 30.88L92.88 39.88ZM74.25 47.50L68.38 48L67.75 44.13L74.25 47.50ZM73.25 52.75L70 53.75L69.25 51.13L73.25 52.75ZM110.75 48.88L115.25 49.50L116.13 46.63L110.75 48.88ZM109.88 54.38L113.13 55.63L114 53.13L109.88 54.38ZM65.50 63.25L65.50 63.25L78.50 63.25L78.50 64.75L65.50 64.75L65.50 63.25ZM65.50 61L65.50 59.38L78.50 59.38L78.50 61L65.50 61ZM105 63.25L105 63.25L117.88 63.25L117.88 64.75L105 64.75L105 63.25ZM105 61L105 59.38L117.88 59.38L117.88 61L105 61ZM100.38 49.88L100.38 49.88L79.38 49.88L79.38 48.50L85.88 48.50Q86.50 45.88 86.56 43.63Q86.63 41.38 85.88 40.13L85.88 40.13Q85.63 39.50 85.19 39.25Q84.75 39 84.13 39L84.13 39Q81.25 39 80 41Q78.75 43 78.75 43.13L78.75 43.13L78.75 43.13L77.38 42.63Q77.50 42.50 79 40.06Q80.50 37.63 84.13 37.63L84.13 37.63Q85.13 37.63 85.88 38.06Q86.63 38.50 87.13 39.38L87.13 39.38Q88 40.88 88 43.31Q88 45.75 87.38 48.50L87.38 48.50L98.88 48.50Q100 45.13 102.44 43.50Q104.88 41.88 108.88 41.88L108.88 41.88L108.88 43.38Q104.63 43.38 102.94 44.94Q101.25 46.50 100.38 48.50L100.38 48.50L106.63 48.50L106.63 49.88L100.38 49.88ZM101.38 57L101.38 57L101.38 57Q100.13 55.13 99.69 53.44Q99.25 51.75 99.88 49.88L99.88 49.88L98.38 49.88Q98 51.13 98.19 52.81Q98.38 54.50 99.38 56.13L99.38 56.13L84.75 56.13Q85.38 54.75 86 53.19Q86.63 51.63 87 49.88L87 49.88L85.50 49.88Q85 51.75 84.38 53.44Q83.75 55.13 82.88 56.50L82.88 56.50L82.63 57L90.75 62.25L86.13 65.25L87 66.50L92.13 63L97.63 66.63L98.38 65.50L93.25 62.25Q93.25 62.25 97.19 59.75Q101.13 57.25 101.38 57L101.38 57Q101.38 57 101.38 57Q101.38 57 101.38 57L101.38 57ZM92.13 61.38L92.13 61.38L86 57.50L97.88 57.50L92.13 61.38ZM118.38 34.63L118.38 34.63Q118.38 32.75 117.81 26.81Q117.25 20.88 116.25 18.75L116.25 18.75Q113.25 19.88 109.06 23.06Q104.88 26.25 103.75 29.88L103.75 29.88Q98 29 91.75 29.06Q85.50 29.13 79.88 30.13L79.88 30.13Q79 26.25 75.06 23.31Q71.13 20.38 67.50 18.63L67.50 18.63Q66 21.13 65.31 26.19Q64.63 31.25 64.88 35.50L64.88 35.50Q64.88 35.50 64.88 35.50Q64.88 35.50 64.88 35.50L64.88 35.50Q65.13 44.38 67.38 51.50L67.38 51.50Q69.63 58.75 73.25 64.50Q76.88 70.25 81.75 74.63L81.75 74.63Q86.63 79.13 92.25 82.50L92.25 82.50Q98.13 79.13 103 74.25L103 74.25Q107.88 69.50 111.31 63.38Q114.75 57.25 116.63 50L116.63 50Q118.50 42.75 118.38 34.63L118.38 34.63Q118.38 34.63 118.38 34.63Q118.38 34.63 118.38 34.63L118.38 34.63ZM105.50 30.13L105.50 30.13Q105.63 30.13 105.63 30.13Q105.63 30.13 105.75 30.25L105.75 30.25Q105.63 30.13 105.63 30.13Q105.63 30.13 105.50 30.13ZM104.50 30L104.50 30Q104.63 30 104.75 30Q104.88 30 105 30L105 30Q104.88 30 104.75 30Q104.63 30 104.50 30ZM116 36.38L116 36.38Q116.13 43.75 114.50 50.25L114.50 50.25Q112.75 56.75 109.63 62.25Q106.50 67.75 102.13 72.13L102.13 72.13Q97.75 76.38 92.50 79.38L92.50 79.38Q83.63 75 78.13 67.63L78.13 67.63Q72.75 60.38 70.06 52.19Q67.38 44 67.13 35.88L67.13 35.88Q66.88 27.75 68.38 21.75L68.38 21.75Q69.25 26.25 70.94 29.19Q72.63 32.13 76 33.63L76 33.63Q83.13 31.50 92.19 31.38Q101.25 31.25 108.50 33.25L108.50 33.25Q111.63 31.13 113 28Q114.38 24.88 115 21.88L115 21.88Q115.88 25.38 115.94 30.88Q116 36.38 116 36.38L116 36.38ZM126.13 103.88L126.13 103.88Q124.25 101.88 121.06 100.94Q117.88 100 114.88 100L114.88 100Q113.88 98.75 110.75 95.38L110.75 95.38Q107.63 92 104.31 88.44Q101 84.88 98.38 82.13L98.38 82.13Q95.75 79.38 95.75 79.38L95.75 79.38L94.63 80.88L114.38 102.13L115.25 102Q119.25 101.75 121.56 103.25Q123.88 104.75 124.50 105.38L124.50 105.38Q124.88 105.88 125.19 106.31Q125.50 106.75 125.63 107.13L125.63 107.13L114.75 107.13Q105.38 102.25 96.50 98.13L96.50 98.13Q87.75 94.13 79.13 91Q70.50 87.88 62 85.75L62 85.75Q53.38 83.75 44.75 83L44.75 83Q44.75 80.63 45.19 77.88Q45.63 75.13 46.50 72L46.50 72L44.38 71.50Q43.50 74.63 43.06 77.44Q42.63 80.25 42.50 82.88L42.50 82.88Q40.75 82.75 38.88 82.69Q37 82.63 35.25 82.63L35.25 82.63Q33.63 82.63 32.19 82.75Q30.75 82.88 29.50 83.13L29.50 83.13Q27.75 81.38 26.31 79.81Q24.88 78.25 23.63 76.63L23.63 76.63Q27.75 72.50 32.88 68.50L32.88 68.50Q38.13 64.63 43.94 61.31Q49.75 58 55.88 55.50L55.88 55.50Q61.88 52.88 67.75 51.50L67.75 51.50L67.25 49.38Q61 50.88 54.63 53.50L54.63 53.50Q48.25 56.25 42.31 59.63Q36.38 63 31.25 67L31.25 67Q26 70.88 22.25 74.88L22.25 74.88Q18.75 70 17.13 66.13Q15.50 62.25 15.13 59.25L15.13 59.25Q14.63 55.63 15.50 52.25Q16.38 48.88 18.63 46.13L18.63 46.13Q22 41.75 26.75 41Q31.50 40.25 36.50 41L36.50 41Q36.38 41.88 36.50 42.56Q36.63 43.25 37 43.75L37 43.75Q38.25 45.75 44 46.25Q49.75 46.75 54.13 44.75L54.13 44.75Q50.88 40.38 45.75 38.31Q40.63 36.25 38.88 37.13L38.88 37.13Q38.38 37.38 37.88 37.88Q37.38 38.38 37.13 39L37.13 39Q35.38 38.75 33.69 38.56Q32 38.38 30.75 38.38L30.75 38.38Q26.25 38.38 22.81 39.94Q19.38 41.50 16.88 44.63L16.88 44.63Q14.38 47.75 13.38 51.56Q12.38 55.38 12.88 59.63L12.88 59.63Q13.50 63.63 15.44 67.81Q17.38 72 20.75 76.50L20.75 76.50Q20.13 77 19.63 77.63Q19.13 78.25 18.63 78.75L18.63 78.75Q10.50 87.75 5.25 96Q0 104.25 0 105.88L0 105.88L0 106.88L14.13 106.88L13.88 105.63Q13.38 102.50 14.44 98.81Q15.50 95.13 18 92.13L18 92.13Q19.50 90.25 22.13 88.38Q24.75 86.50 28.75 85.50L28.75 85.50Q32.38 89 36.81 92.63Q41.25 96.25 46.38 99.88L46.38 99.88L56.88 99.88L56.88 98.75Q56.88 97.75 56.44 97Q56 96.25 55.13 95.63L55.13 95.63Q53.88 94.88 52.13 94.75Q50.38 94.63 48.50 95.25L48.50 95.25Q46.88 93.38 45.94 90.88Q45 88.38 44.75 85.25L44.75 85.25Q53.38 86 61.75 88L61.75 88Q70.25 90.13 78.81 93.25Q87.38 96.38 96.13 100.50L96.13 100.50Q104.88 104.50 114.25 109.38L114.25 109.38L127.75 109.38L128 108.50Q128.13 107.50 127.63 106.31Q127.13 105.13 126.13 103.88L126.13 103.88ZM16.25 90.75L16.25 90.75Q13.75 93.75 12.50 97.50Q11.25 101.25 11.63 104.75L11.63 104.75L2.63 104.75Q4 101.75 9.13 94.25Q14.25 86.75 22.13 78.25L22.13 78.25Q23.25 79.63 24.44 81Q25.63 82.38 27 83.75L27 83.75Q23.13 84.88 20.50 86.81Q17.88 88.75 16.25 90.75L16.25 90.75Z"/></svg>