<svg xmlns="http://www.w3.org/2000/svg" xmlns:xlink="http://www.w3.org/1999/xlink" width="128" height="128"><path fill="#000000" d="M49.13 42.25L56.50 38.88L60.13 49.63L49.13 42.25ZM41.63 46.13L45.88 43.63L49.75 50.25L41.63 46.13ZM33.25 51.63L37 48.75L38.88 55.50L33.25 51.63ZM99.50 69.25L96.88 66.75L93.38 72.13L99.50 69.25ZM104.50 75.13L102.38 72.88L96.75 77.13L104.50 75.13ZM95.50 14.63L88.75 14.88L92.88 23.88L95.50 14.63ZM68.38 32L67.75 28L74.25 31.50L68.38 32ZM70 37.75L69.25 35.13L73.25 36.75L70 37.75ZM115.25 33.50L116.13 30.63L110.75 32.88L115.25 33.50ZM113.13 39.63L114 37.13L109.88 38.38L113.13 39.63ZM65.50 48.75L65.50 47.25L78.50 47.25L78.50 48.75L65.50 48.75ZM65.50 45L65.50 43.38L78.50 43.38L78.50 45L65.50 45ZM105 48.75L105 47.25L117.88 47.25L117.88 48.75L105 48.75ZM105 45L105 43.38L117.88 43.38L117.88 45L105 45ZM100.38 33.88L100.38 33.88L79.38 33.88L79.38 32.50L85.88 32.50Q86.50 29.88 86.56 27.63Q86.63 25.38 85.88 24.13L85.88 24.13Q85.63 23.50 85.19 23.25Q84.75 23 84.13 23L84.13 23Q81.25 23 80 25Q78.75 27 78.75 27.13L78.75 27.13L78.75 27.13L77.38 26.63Q77.50 26.50 79 24.06Q80.50 21.63 84.13 21.63L84.13 21.63Q85.13 21.63 85.88 22.06Q86.63 22.50 87.13 23.38L87.13 23.38Q88 24.88 88 27.31Q88 29.75 87.38 32.50L87.38 32.50L98.88 32.50Q100 29.13 102.44 27.50Q104.88 25.88 108.88 25.88L108.88 25.88L108.88 27.38Q104.63 27.38 102.94 28.94Q101.25 30.50 100.38 32.50L100.38 32.50L106.63 32.50L106.63 33.88L100.38 33.88ZM101.38 41L101.38 41L101.38 41Q100.13 39.13 99.69 37.44Q99.25 35.75 99.88 33.88L99.88 33.88L98.38 33.88Q98 35.13 98.19 36.81Q98.38 38.50 99.38 40.13L99.38 40.13L84.75 40.13Q85.38 38.75 86 37.19Q86.63 35.63 87 33.88L87 33.88L85.50 33.88Q85 35.75 84.38 37.44Q83.75 39.13 82.88 40.50L82.88 40.50L82.63 41L90.75 46.25L86.13 49.25L87 50.50L92.13 47L97.63 50.63L98.38 49.50L93.25 46.25Q93.25 46.25 97.19 43.75Q101.13 41.25 101.38 41L101.38 41Q101.38 41 101.38 41Q101.38 41 101.38 41L101.38 41ZM92.13 45.38L92.13 45.38L86 41.50L97.88 41.50L92.13 45.38ZM118.38 18.63L118.38 18.63Q118.38 16.75 117.81 10.81Q117.25 4.88 116.25 2.75L116.25 2.75Q113.25 3.88 109.06 7.06Q104.88 10.25 103.63 13.88L103.63 13.88Q98 13 91.75 13.06Q85.50 13.13 79.88 14.13L79.88 14.13Q79 10.25 75.06 7.31Q71.13 4.38 67.50 2.63L67.50 2.63Q66 5.13 65.31 10.19Q64.63 15.25 64.88 19.50L64.88 19.50Q64.88 19.50 64.88 19.50Q64.88 19.50 64.88 19.50L64.88 19.50Q65.13 28.38 67.38 35.50L67.38 35.50Q69.63 42.75 73.25 48.50Q76.88 54.25 81.75 58.63L81.75 58.63Q86.63 63.13 92.25 66.50L92.25 66.50Q98.13 63.13 103 58.25L103 58.25Q107.88 53.50 111.31 47.38Q114.75 41.25 116.63 34L116.63 34Q118.50 26.75 118.38 18.63L118.38 18.63Q118.38 18.63 118.38 18.63Q118.38 18.63 118.38 18.63L118.38 18.63ZM105.50 14.13L105.50 14.13Q105.63 14.13 105.63 14.13Q105.63 14.13 105.75 14.13L105.75 14.13Q105.63 14.13 105.63 14.13Q105.63 14.13 105.50 14.13ZM104.50 14L104.50 14Q104.63 14 104.75 14Q104.88 14 105 14L105 14Q104.88 14 104.75 14Q104.63 14 104.50 14ZM116 20.38L116 20.38Q116.13 27.75 114.50 34.25L114.50 34.25Q112.75 40.75 109.63 46.25Q106.50 51.75 102.13 56.13L102.13 56.13Q97.75 60.38 92.50 63.38L92.50 63.38Q83.63 59 78.13 51.63L78.13 51.63Q72.75 44.38 70.06 36.13Q67.38 27.88 67.13 19.88L67.13 19.88Q66.88 11.75 68.38 5.75L68.38 5.75Q69.25 10.25 70.94 13.19Q72.63 16.13 76 17.63L76 17.63Q83.13 15.50 92.19 15.38Q101.25 15.25 108.50 17.25L108.50 17.25Q111.63 15.13 113 12Q114.38 8.88 115 5.88L115 5.88Q115.88 9.38 115.94 14.88Q116 20.38 116 20.38L116 20.38ZM126.13 87.88L126.13 87.88Q124.25 85.88 121.06 84.94Q117.88 84 114.88 84L114.88 84Q113.88 82.75 110.75 79.38L110.75 79.38Q107.63 76 104.31 72.44Q101 68.88 98.38 66.13L98.38 66.13Q95.75 63.38 95.75 63.38L95.75 63.38L94.63 64.88L114.38 86.13L115.25 86Q119.25 85.75 121.56 87.25Q123.88 88.75 124.50 89.38L124.50 89.38Q124.88 89.88 125.19 90.31Q125.50 90.75 125.63 91.13L125.63 91.13L114.75 91.13Q105.38 86.25 96.50 82.13L96.50 82.13Q87.75 78.13 79.13 75Q70.50 71.88 62 69.75L62 69.75Q53.38 67.75 44.75 67L44.75 67Q44.75 64.63 45.19 61.88Q45.63 59.13 46.50 56L46.50 56L44.38 55.50Q43.50 58.63 43.06 61.44Q42.63 64.25 42.50 66.88L42.50 66.88Q40.75 66.75 38.88 66.69Q37 66.63 35.25 66.63L35.25 66.63Q33.63 66.63 32.19 66.75Q30.75 66.88 29.50 67.13L29.50 67.13Q27.75 65.38 26.31 63.75Q24.88 62.13 23.63 60.63L23.63 60.63Q27.75 56.50 32.88 52.50L32.88 52.50Q38.13 48.63 43.94 45.31Q49.75 42 55.88 39.50L55.88 39.50Q61.88 36.88 67.75 35.50L67.75 35.50L67.25 33.38Q61 34.88 54.63 37.50L54.63 37.50Q48.25 40.25 42.31 43.63Q36.38 47 31.25 51L31.25 51Q26 54.88 22.25 58.88L22.25 58.88Q18.75 54 17.13 50.13Q15.50 46.25 15.13 43.25L15.13 43.25Q14.63 39.63 15.50 36.25Q16.38 32.88 18.63 30.13L18.63 30.13Q22 25.75 26.75 25Q31.50 24.25 36.50 25L36.50 25Q36.38 25.88 36.50 26.56Q36.63 27.25 37 27.75L37 27.75Q38.25 29.75 44 30.25Q49.75 30.75 54.13 28.75L54.13 28.75Q50.88 24.38 45.75 22.31Q40.63 20.25 38.88 21.13L38.88 21.13Q38.38 21.38 37.88 21.88Q37.38 22.38 37.13 23L37.13 23Q35.38 22.75 33.69 22.56Q32 22.38 30.75 22.38L30.75 22.38Q26.25 22.38 22.81 23.94Q19.38 25.50 16.88 28.63L16.88 28.63Q14.38 31.75 13.38 35.56Q12.38 39.38 12.88 43.63L12.88 43.63Q13.50 47.63 15.44 51.81Q17.38 56 20.75 60.50L20.75 60.50Q20.13 61 19.63 61.63Q19.13 62.25 18.63 62.75L18.63 62.75Q10.50 71.75 5.25 80Q0 88.25 0 89.88L0 89.88L0 90.88L14.13 90.88L13.88 89.63Q13.38 86.50 14.44 82.81Q15.50 79.13 18 76.13L18 76.13Q19.50 74.25 22.13 72.38Q24.75 70.50 28.75 69.50L28.75 69.50Q32.38 73 36.81 76.63Q41.25 80.25 46.38 83.88L46.38 83.88L56.88 83.88L56.88 82.75Q56.88 81.75 56.44 81Q56 80.25 55.13 79.63L55.13 79.63Q53.88 78.88 52.13 78.75Q50.38 78.63 48.50 79.25L48.50 79.25Q46.88 77.38 45.94 74.88Q45 72.38 44.75 69.25L44.75 69.25Q53.38 70 61.75 72L61.75 72Q70.25 74.13 78.81 77.25Q87.38 80.38 96.13 84.38L96.13 84.38Q104.88 88.50 114.13 93.38L114.13 93.38L127.75 93.38L128 92.50Q128.13 91.50 127.63 90.31Q127.13 89.13 126.13 87.88L126.13 87.88ZM16.25 74.75L16.25 74.75Q13.75 77.75 12.50 81.50Q11.25 85.25 11.63 88.75L11.63 88.75L2.63 88.75Q4 85.75 9.13 78.25Q14.25 70.75 22.13 62.25L22.13 62.25Q23.25 63.63 24.44 65Q25.63 66.38 27 67.75L27 67.75Q23.13 68.88 20.50 70.81Q17.88 72.75 16.25 74.75L16.25 74.75ZM28.88 98.50L11.88 98.50L11.88 101.75L18.63 101.75L18.63 121L22.13 121L22.13 101.75L28.88 101.75L28.88 98.50ZM109.13 100.25L109.13 100.25L108 103.75L105.63 104.88L105.63 106.75L107.88 106.75L107.88 115.88Q107.88 117.13 108.19 118.13Q108.50 119.13 109.25 119.88L109.25 119.88Q109.88 120.63 110.88 120.94Q111.88 121.25 113.13 121.25L113.13 121.25Q113.38 121.25 113.75 121.25Q114.13 121.25 114.50 121.13L114.50 121.13L114.50 121.13Q115 121.13 115.31 121Q115.63 120.88 115.88 120.75L115.88 120.75L116.13 120.63L116.13 117.75L115.50 118Q115.38 118 115.13 118.06Q114.88 118.13 114.63 118.13L114.63 118.13Q114.63 118.13 114.63 118.13Q114.63 118.13 114.63 118.13L114.63 118.13Q114.38 118.25 114.06 118.25Q113.75 118.25 113.50 118.25L113.50 118.25Q112.88 118.25 112.56 118.13Q112.25 118 111.88 117.63L111.88 117.63Q111.63 117.38 111.50 116.88Q111.38 116.38 111.38 115.75L111.38 115.75L111.38 106.75L116 106.75L116 103.88L111.38 103.88L111.38 100.25L109.13 100.25ZM37.75 103.63L37.75 103.63Q36 103.63 34.50 104.25Q33 104.88 32 106L32 106Q30.88 107.13 30.38 108.75Q29.88 110.38 29.88 112.38L29.88 112.38Q29.88 113.75 30.13 114.94Q30.38 116.13 30.88 117.13L30.88 117.13Q31.25 118.13 32 118.88Q32.75 119.63 33.63 120.13L33.63 120.13Q34.50 120.75 35.50 121Q36.50 121.25 37.63 121.25L37.63 121.25Q39.50 121.25 41 120.69Q42.50 120.13 43.50 118.88L43.50 118.88L43.50 118.88L43.50 118.88Q44.63 117.75 45.13 116.13Q45.63 114.50 45.63 112.38L45.63 112.38Q45.63 110.50 45.13 108.88Q44.63 107.25 43.50 106L43.50 106Q42.50 104.88 41 104.25Q39.50 103.63 37.75 103.63L37.75 103.63ZM56.63 103.63L56.63 103.63Q55.75 103.63 55 103.81Q54.25 104 53.50 104.38L53.50 104.38L53.50 104.38Q53.13 104.63 52.75 105Q52.38 105.38 52.13 105.75L52.13 105.75L51.75 103.88L48.88 103.88L48.88 121L52.25 121L52.25 112Q52.25 110.50 52.50 109.50Q52.75 108.50 53.25 107.88L53.25 107.88Q53.75 107.25 54.44 107Q55.13 106.75 56.25 106.75L56.25 106.75Q57 106.75 57.56 106.94Q58.13 107.13 58.38 107.50L58.38 107.50L58.38 107.50L58.38 107.50Q58.75 107.88 58.94 108.50Q59.13 109.13 59.13 110L59.13 110L59.13 121L62.50 121L62.50 111.50Q62.50 110.25 62.75 109.31Q63 108.38 63.50 107.88L63.50 107.88Q64 107.25 64.69 107Q65.38 106.75 66.50 106.75L66.50 106.75Q67.25 106.75 67.75 106.94Q68.25 107.13 68.63 107.50L68.63 107.50L68.63 107.50Q69 107.88 69.19 108.50Q69.38 109.13 69.38 110L69.38 110L69.38 121L72.75 121L72.75 110Q72.75 108.38 72.38 107.19Q72 106 71.25 105.13L71.25 105.13Q70.50 104.38 69.38 104Q68.25 103.63 66.88 103.63L66.88 103.63Q65.88 103.63 65.06 103.81Q64.25 104 63.50 104.38L63.50 104.38Q62.88 104.75 62.44 105.19Q62 105.63 61.63 106.13L61.63 106.13Q61 104.88 59.69 104.25Q58.38 103.63 56.63 103.63L56.63 103.63ZM83.88 103.63L83.88 103.63Q82 103.63 80.50 104.19Q79 104.75 77.88 106L77.88 106L77.88 106Q76.88 107.13 76.38 108.81Q75.88 110.50 75.88 112.50L75.88 112.50Q75.88 114.63 76.38 116.19Q76.88 117.75 77.88 119L77.88 119L77.88 119Q78.88 120.13 80.38 120.69Q81.88 121.25 83.63 121.25L83.63 121.25Q85 121.25 86.06 121.06Q87.13 120.88 88 120.38L88 120.38L88.25 120.25L88.25 117L87.50 117.38Q86.50 117.75 85.56 117.94Q84.63 118.13 83.63 118.13L83.63 118.13Q82.50 118.13 81.75 117.81Q81 117.50 80.50 116.75L80.50 116.75Q80 116 79.69 115Q79.38 114 79.38 112.50L79.38 112.50Q79.38 111 79.69 109.94Q80 108.88 80.50 108.13L80.50 108.13Q81 107.50 81.81 107.13Q82.63 106.75 83.75 106.75L83.75 106.75Q84.13 106.75 84.50 106.81Q84.88 106.88 85.38 107L85.38 107L85.38 107L85.38 107Q85.75 107.13 86.19 107.25Q86.63 107.38 87 107.50L87 107.50L87.50 107.63L88.63 104.75L88.25 104.50Q87.88 104.38 87.38 104.19Q86.88 104 86.25 103.88L86.25 103.88Q85.63 103.75 85.06 103.69Q84.50 103.63 83.88 103.63L83.88 103.63ZM97.63 103.63L97.63 103.63Q96.88 103.63 96.13 103.75Q95.38 103.88 94.63 104L94.63 104L94.63 104Q93.88 104.25 93.19 104.50Q92.50 104.75 91.88 105.13L91.88 105.13L91.50 105.25L92.63 108.13L93.13 107.88Q94.38 107.25 95.44 106.94Q96.50 106.63 97.50 106.63L97.50 106.63Q98.25 106.63 98.81 106.81Q99.38 107 99.63 107.38L99.63 107.38L99.63 107.38L99.63 107.38Q100 107.75 100.19 108.38Q100.38 109 100.38 109.88L100.38 109.88L100.38 110.38L98.13 110.50Q96.13 110.50 94.63 110.88Q93.13 111.25 92 111.88L92 111.88Q91 112.63 90.44 113.69Q89.88 114.75 89.88 116L89.88 116Q89.88 117.25 90.25 118.25Q90.63 119.25 91.38 119.88L91.38 119.88L91.38 119.88Q92.13 120.63 93.19 120.94Q94.25 121.25 95.50 121.25L95.50 121.25Q96.38 121.25 97.19 121.13Q98 121 98.63 120.75L98.63 120.75L98.63 120.75Q99.13 120.50 99.63 120Q100.13 119.50 100.63 119L100.63 119L101 121L103.75 121L103.75 109.50Q103.75 108 103.38 106.88Q103 105.75 102.13 105.13L102.13 105.13Q101.38 104.38 100.25 104Q99.13 103.63 97.63 103.63L97.63 103.63ZM37.75 106.75L37.75 106.75Q38.88 106.75 39.63 107.06Q40.38 107.38 41 108.13L41 108.13L41 108.13Q41.50 108.75 41.81 109.88Q42.13 111 42.13 112.38L42.13 112.38Q42.13 113.88 41.81 115Q41.50 116.13 41 116.88L41 116.88Q40.38 117.50 39.63 117.88Q38.88 118.25 37.75 118.25L37.75 118.25Q36.63 118.25 35.81 117.88Q35 117.50 34.50 116.88L34.50 116.88Q34 116.13 33.69 115Q33.38 113.88 33.38 112.38L33.38 112.38Q33.38 110.88 33.69 109.81Q34 108.75 34.50 108.13L34.50 108.13Q35 107.38 35.81 107.06Q36.63 106.75 37.75 106.75L37.75 106.75ZM100.25 113.13L100.25 113.13L100.25 114Q100.25 115.13 100 115.88Q99.75 116.63 99.13 117.13L99.13 117.13L99.13 117.13Q98.63 117.75 97.81 118Q97 118.25 95.88 118.25L95.88 118.25Q95.25 118.25 94.81 118.13Q94.38 118 94 117.75L94 117.75Q93.75 117.38 93.56 117Q93.38 116.63 93.38 116.13L93.38 116.13Q93.38 115.38 93.63 114.88Q93.88 114.38 94.50 114L94.50 114L94.50 114Q95 113.63 96 113.44Q97 113.25 98.38 113.13L98.38 113.13L98.38 113.13L100.25 113.13Z"/></svg>