<svg xmlns="http://www.w3.org/2000/svg" xmlns:xlink="http://www.w3.org/1999/xlink" width="128" height="128"><path fill="#ffffff" d="M47.63 98.13L47.63 98.13Q40.38 100.13 41.75 102.75L41.75 102.75Q43 105.50 49.31 107.06Q55.63 108.63 65.13 108.38L65.13 108.38Q74.63 108 83.75 104.13L83.75 104.13Q80.75 102.88 78.81 101.81Q76.88 100.75 76.88 100.75L76.88 100.75Q68.63 102.25 63.50 102.44Q58.38 102.63 51 101.88L51 101.88Q44.88 101.13 46.25 99.63Q47.63 98.13 47.63 98.13L47.63 98.13ZM80.75 87.63L80.75 87.63Q70 89.75 62.69 89.94Q55.38 90.13 47.50 89.25L47.50 89.25Q41.38 88.63 43 86.56Q44.63 84.50 44.63 84.50L44.63 84.50Q36.75 87.13 38 89.63L38 89.63Q39.38 92.13 46.31 93.50Q53.25 94.88 64 94.38L64 94.38Q74.88 94 86 90.75L86 90.75Q83.63 90 82.19 88.81Q80.75 87.63 80.75 87.63L80.75 87.63ZM92.13 27.13L92.13 27.13Q92.13 27.13 85.75 29.13L85.75 29.13Q79.38 31.13 73.31 35.38Q67.25 39.63 64.63 46L64.63 46Q62.13 52.50 69.75 61.25L69.75 61.25Q74.38 66.50 71.31 70.50Q68.25 74.50 68.25 74.50L68.25 74.50Q68.25 74.50 75 69.31Q81.75 64.13 76.50 56.63L76.50 56.63Q71.63 49.75 71.69 44.31Q71.75 38.88 92.13 27.13L92.13 27.13ZM102.13 108.25L102.13 108.25Q102.13 108.25 102.94 110Q103.75 111.75 98.25 113.38L98.25 113.38Q93 115 82.88 116L82.88 116Q72.88 117 62.06 117.13Q51.25 117.25 41.50 116.38L41.50 116.38Q31.75 115.63 27.13 113.50L27.13 113.50Q23.75 112.13 27.75 110.44Q31.75 108.75 33.63 108.38L33.63 108.38Q35.75 107.88 36.88 107.88Q38 107.88 38 107.88L38 107.88Q36.13 106.63 31.13 107.50L31.13 107.50Q26.25 108.50 22.44 110.38Q18.63 112.25 18 114.38L18 114.38Q17.38 116.63 24.25 117.75L24.25 117.75Q42.88 120.75 59.25 120.50L59.25 120.50Q75.50 120.13 86.69 118.19Q97.88 116.25 102.38 113.25L102.38 113.25Q107 110.38 102.13 108.25L102.13 108.25ZM85 77.88L85 77.88Q86.75 76.63 88.75 75.75Q90.75 74.88 90.75 74.88L90.75 74.88Q90.75 74.88 84.81 75.81Q78.88 76.75 71.88 77.38L71.88 77.38Q63.25 78 54.88 78.13Q46.50 78.25 41.88 77.63L41.88 77.63Q30.88 76.13 40.38 73.19Q49.88 70.25 49.88 70.25L49.88 70.25Q49.88 70.25 44.13 70.63Q38.38 71 30.25 75L30.25 75Q25.50 77.25 30.13 78.88L30.13 78.88Q34.88 80.50 44.19 81Q53.50 81.50 64.88 80.88L64.88 80.88Q76.38 80.13 85 77.88ZM90.63 93L90.63 93Q90.50 93.25 90.31 93.44Q90.13 93.63 90.13 93.63L90.13 93.63Q101.88 90.63 106.25 85.75L106.25 85.75Q110.50 80.88 109.88 76.75Q109.25 72.63 104.88 70.25L104.88 70.25Q100.63 68 95 69.88L95 69.88Q94 70.25 93.50 70.88Q93 71.50 93 71.50L93 71.50Q93 71.50 93.63 71.25Q94.25 71 95.63 70.75L95.63 70.75Q101.25 69.63 104.69 76.75Q108.13 83.88 90.63 93ZM64.13 70.13L64.13 70.13Q60.75 62.25 54.88 54.38Q49 46.50 64.25 34.50L64.25 34.50Q83.13 19.50 79.81 10.56Q76.50 1.63 76.50 1.63L76.50 1.63Q78.50 9.38 75.63 14.63L75.63 14.63Q72.88 20 68.13 24.31Q63.38 28.63 58 32.50L58 32.50Q52.75 36.50 49.50 41.25L49.50 41.25Q45.13 47.88 50.19 55Q55.25 62.13 64.13 70.13L64.13 70.13ZM91.50 121.88L91.50 121.88Q84.25 123.13 76.50 123.75L76.50 123.75Q68.63 124.38 61.06 124.44Q53.50 124.50 46.63 124L46.63 124Q39.88 123.50 34.63 122.75L34.63 122.75Q34.63 122.75 37.88 124Q41.13 125.25 52.25 126L52.25 126Q60.63 126.50 70.63 126.38L70.63 126.38Q80.63 126.13 89.25 124.81Q97.88 123.50 103.88 121L103.88 121Q109.75 118.63 110 114.63L110 114.63Q110 114.63 107.13 117Q104.25 119.38 91.50 121.88L91.50 121.88Z"/></svg>