<svg xmlns="http://www.w3.org/2000/svg" xmlns:xlink="http://www.w3.org/1999/xlink" width="128" height="128"><path fill="#ffffff" d="M53.63 67.88L53.63 67.88Q48.63 69.25 49.50 71L49.50 71Q50.38 72.88 54.75 74Q59.13 75.13 65.63 74.88L65.63 74.88Q72.13 74.63 78.50 71.88L78.50 71.88Q76.38 71.13 75.06 70.38Q73.75 69.63 73.75 69.63L73.75 69.63Q68.13 70.63 64.56 70.81Q61 71 55.88 70.38L55.88 70.38Q51.75 69.88 52.69 68.88Q53.63 67.88 53.63 67.88ZM76.50 60.63L76.50 60.63Q69 62 64 62.13Q59 62.25 53.50 61.75L53.50 61.75Q49.25 61.25 50.38 59.81Q51.50 58.38 51.50 58.38L51.50 58.38Q46.13 60.25 47 62L47 62Q47.88 63.75 52.69 64.63Q57.50 65.50 64.88 65.25L64.88 65.25Q72.38 65 80 62.75L80 62.75Q78.38 62.25 77.44 61.44Q76.50 60.63 76.50 60.63ZM84.25 18.88L84.25 18.88Q84.25 18.88 79.88 20.25L79.88 20.25Q75.50 21.63 71.31 24.56Q67.13 27.50 65.38 31.88L65.38 31.88Q63.63 36.38 68.88 42.38L68.88 42.38Q72 46 69.88 48.75Q67.75 51.50 67.75 51.50L67.75 51.50Q67.75 51.50 72.44 47.94Q77.13 44.38 73.50 39.25L73.50 39.25Q70.13 34.50 70.19 30.75Q70.25 27 84.25 18.88L84.25 18.88ZM37.50 81.25L37.50 81.25Q50.38 83.38 61.63 83.25L61.63 83.25Q72.88 83 80.56 81.63Q88.25 80.25 91.38 78.25L91.38 78.25Q94.50 76.25 91.13 74.75L91.13 74.75Q91.13 74.75 91.69 75.94Q92.25 77.13 88.50 78.38L88.50 78.38Q84.88 79.50 77.88 80.13L77.88 80.13Q71 80.75 63.50 80.88Q56 81 49.38 80.38L49.38 80.38Q42.75 79.88 39.50 78.50L39.50 78.50Q37.25 77.50 39.94 76.31Q42.63 75.13 44 74.88L44 74.88Q45.38 74.63 46.19 74.56Q47 74.50 47 74.50L47 74.50Q44.38 72.75 36.19 76.25Q28 79.75 37.50 81.25L37.50 81.25ZM79.38 53.88L79.38 53.88Q80.63 53 81.94 52.38Q83.25 51.75 83.25 51.75L83.25 51.75Q83.25 51.75 79.19 52.44Q75.13 53.13 70.38 53.50L70.38 53.50Q64.38 54 58.63 54.06Q52.88 54.13 49.63 53.75L49.63 53.75Q42.13 52.75 48.63 50.69Q55.13 48.63 55.13 48.63L55.13 48.63Q55.13 48.63 51.19 48.88Q47.25 49.13 41.63 51.88L41.63 51.88Q38.38 53.50 41.63 54.50L41.63 54.50Q44.88 55.63 51.25 56Q57.63 56.38 65.50 55.88L65.50 55.88Q73.38 55.50 79.38 53.88L79.38 53.88ZM83.25 64.38L83.25 64.38Q83.13 64.50 83 64.63Q82.88 64.75 82.88 64.75L82.88 64.75Q99 60.50 96.50 53.06Q94 45.63 86.25 48.38L86.25 48.38Q85.50 48.63 85.19 49.06Q84.88 49.50 84.88 49.50L84.88 49.50Q84.88 49.50 85.31 49.31Q85.75 49.13 86.63 49L86.63 49Q90.63 48.13 93 53.06Q95.38 58 83.25 64.38ZM65 48.50L65 48.50Q62.63 43.13 58.56 37.69Q54.50 32.25 65 24L65 24Q78.13 13.75 75.81 7.50Q73.50 1.25 73.50 1.25L73.50 1.25Q76.25 12 67.75 17Q59.25 22 54.88 28.63L54.88 28.63Q51.88 33.13 55.38 38.06Q58.88 43 65 48.50ZM83.75 84.13L83.75 84.13Q78.88 85.13 73.50 85.50L73.50 85.50Q68.13 86 62.88 86Q57.63 86 53 85.63L53 85.63Q48.25 85.38 44.63 84.75L44.63 84.75Q44.63 84.75 46.88 85.63Q49.13 86.50 56.75 87L56.75 87Q62.63 87.38 69.50 87.25L69.50 87.25Q76.25 87.13 82.25 86.25Q88.25 85.38 92.25 83.63L92.25 83.63Q96.38 81.88 96.63 79.13L96.63 79.13Q96.63 79.13 94.63 80.81Q92.63 82.50 83.75 84.13L83.75 84.13ZM51.13 99.50L51.13 99.50Q49 99.50 47.13 100Q45.25 100.50 43.75 101.13L43.75 101.13L44.38 103.63Q45.50 103.25 47 102.88Q48.50 102.50 50 102.50L50 102.50Q52.13 102.50 53.06 103.38Q54 104.25 54 106L54 106L54 108L52.75 108Q47.63 108 45.19 109.81Q42.75 111.63 42.75 114.63L42.75 114.63Q42.75 117.25 44.25 118.63Q45.75 120 48.75 120L48.75 120Q50.50 120 52 119.38Q53.50 118.75 54.75 117.63L54.75 117.63L55.13 120L58 120L58 105.50Q58 102.75 56.44 101.13Q54.88 99.50 51.13 99.50L51.13 99.50ZM54 110L54 115Q53.25 116 52 116.50Q50.75 117 49.75 117L49.75 117Q48.25 117 47.50 116.06Q46.75 115.13 46.75 113.75L46.75 113.75Q46.75 112.25 47.94 111.13Q49.13 110 52.50 110L52.50 110L54 110ZM69.63 115.63L69.63 115.63L68.75 112.13L65 100L60.63 100L66.63 120L71.75 120Q73.88 114.75 75.38 109.63Q76.88 104.50 77.75 100L77.75 100L73.50 100Q73 103.75 72 107.75Q71 111.75 69.63 115.63ZM88 99.50L88 99.50Q85.88 99.50 84 100Q82.13 100.50 80.50 101.13L80.50 101.13L81.13 103.63Q82.38 103.25 83.88 102.88Q85.38 102.50 86.88 102.50L86.88 102.50Q89 102.50 90 103.38Q91 104.25 91 106L91 106L91 108L89.63 108Q84.38 108 81.94 109.81Q79.50 111.63 79.50 114.63L79.50 114.63Q79.50 117.25 81 118.63Q82.50 120 85.50 120L85.50 120Q87.38 120 88.81 119.38Q90.25 118.75 91.50 117.63L91.50 117.63L91.88 120L95 120L95 105.50Q95 102.75 93.38 101.13Q91.75 99.50 88 99.50L88 99.50ZM86.63 117L86.63 117Q85.13 117 84.31 116.06Q83.50 115.13 83.50 113.75L83.50 113.75Q83.50 112.25 84.69 111.13Q85.88 110 89.25 110L89.25 110L91 110L91 115L90.88 115Q89.88 115.75 88.75 116.38Q87.63 117 86.63 117L86.63 117ZM36 93L36 115.38Q36 117.88 35.69 119.06Q35.38 120.25 35 121.13L35 121.13Q34.50 122 33.56 122.88Q32.63 123.75 31.38 124.38L31.38 124.38L33.38 126.75Q34.88 126.13 36.25 125.19Q37.63 124.25 38.50 122.88L38.50 122.88Q39.25 121.63 39.63 120Q40 118.38 40 115.13L40 115.13L40 93L36 93Z"/></svg>