<svg xmlns="http://www.w3.org/2000/svg" xmlns:xlink="http://www.w3.org/1999/xlink" width="128" height="128"><path fill="#ffffff" d="M64 0L64 0Q50.75 0 39.13 5L39.13 5Q27.50 10.13 18.81 18.81Q10.13 27.50 5 39.13L5 39.13Q0 50.75 0 64L0 64Q0 77.25 5 88.88L5 88.88Q10.13 100.50 18.81 109.19Q27.50 117.88 39.13 123L39.13 123Q50.75 128 64 128L64 128Q77.25 128 88.88 123L88.88 123Q100.50 117.88 109.19 109.19Q117.88 100.50 123 88.88L123 88.88Q128 77.25 128 64L128 64Q128 50.75 123 39.13L123 39.13Q117.88 27.50 109.19 18.81Q100.50 10.13 88.88 5L88.88 5Q77.25 0 64 0ZM96.75 114.38L96.75 114.38L48.38 41.75L41.63 41.75L41.63 91.88L48.38 91.88L48.38 55.25L92.63 116.75Q86.25 120.25 79 122.13Q71.75 124 64 124L64 124Q51.50 124 40.63 119.38L40.63 119.38Q29.63 114.63 21.50 106.50Q13.38 98.38 8.63 87.38L8.63 87.38Q3.88 76.50 3.88 64L3.88 64Q3.88 51.50 8.63 40.63L8.63 40.63Q13.38 29.63 21.50 21.50Q29.63 13.38 40.63 8.63L40.63 8.63Q51.50 3.88 64 3.88L64 3.88Q76.50 3.88 87.38 8.63L87.38 8.63Q98.38 13.38 106.50 21.50Q114.63 29.63 119.38 40.63L119.38 40.63Q124.13 51.50 124.13 64L124.13 64Q124.13 71.88 122.13 79.25L122.13 79.25Q120.13 86.63 116.56 93.13Q113 99.63 108 105L108 105Q102.88 110.38 96.75 114.38L96.75 114.38ZM78.63 41.75L78.63 73.25L86.13 84.63L86.13 41.75L78.63 41.75Z"/></svg>