<svg xmlns="http://www.w3.org/2000/svg" xmlns:xlink="http://www.w3.org/1999/xlink" width="128" height="128"><path fill="#000000" d="M64 0L64 0Q50.75 0 39.13 5L39.13 5Q27.50 10.13 18.81 18.81Q10.13 27.50 5 39.13L5 39.13Q0 50.75 0 64L0 64Q0 77.25 5 88.88L5 88.88Q10.13 100.50 18.81 109.19Q27.50 117.88 39.13 123L39.13 123Q50.75 128 64 128L64 128Q72.38 128 80.19 125.94Q88 123.88 94.75 120.13L94.75 120.13L48.38 55.25L48.38 91.88L41.63 91.88L41.63 41.75L48.38 41.75L98.88 117.63Q105.50 113.38 110.88 107.63L110.88 107.63Q116.25 101.88 120.06 95Q123.88 88.13 125.88 80.25L125.88 80.25Q128 72.50 128 64L128 64Q128 50.75 123 39.13L123 39.13Q117.88 27.50 109.19 18.81Q100.50 10.13 88.88 5L88.88 5Q77.25 0 64 0ZM86.13 41.75L86.13 84.63L78.63 73.25L78.63 41.75L86.13 41.75Z"/></svg>