<svg xmlns="http://www.w3.org/2000/svg" xmlns:xlink="http://www.w3.org/1999/xlink" width="128" height="128"><path fill="#000000" d="M30.25 45.88L30.25 45.88L54.25 45.88L54.25 47.75L32.38 47.75L32.38 62.25L53 62.25L53 64.13L32.38 64.13L32.38 79.88L54.63 79.88L54.63 81.75L30.25 81.75L30.25 45.88ZM56.50 45.88L56.50 45.88L59.13 45.88L70.50 61.75L82 45.88L97.75 25.88L71.75 63.38L85.25 81.75L82.50 81.75L70.38 65L58.25 81.75L55.63 81.75L69.13 63.38L56.50 45.88ZM98.75 47.75L86.25 47.75L86.25 45.88L113.75 45.88L113.75 47.75L101 47.75L101 81.75L98.75 81.75L98.75 47.75ZM0 81.75L0 45.88L2.75 45.88L40.88 102.75L25.13 81.75L2.25 48.63L2.25 81.75L0 81.75ZM113.50 79.25L113.50 79.25Q113.88 79.25 114.06 79.06Q114.25 78.88 114.25 78.50L114.25 78.50Q114.25 78.13 114.06 77.94Q113.88 77.75 113.50 77.75L113.50 77.75Q113.13 77.75 112.94 77.94Q112.75 78.13 112.75 78.50L112.75 78.50Q112.75 78.88 113 79.06Q113.25 79.25 113.50 79.25ZM115.75 77.13L115.75 77.25Q115.75 78.13 116.38 78.75Q117 79.38 118.13 79.38L118.13 79.38Q119.25 79.38 119.88 78.75Q120.50 78.13 120.50 76.88L120.50 76.88L120.50 71.38L119.25 71.38L119.25 76.88Q119.25 77.63 119 77.94Q118.75 78.25 118.13 78.25L118.13 78.25Q117.63 78.25 117.25 77.94Q116.88 77.63 116.88 77.13L116.88 77.13L115.75 77.13ZM122 77.13L122 77.13Q122.13 78.13 122.88 78.75Q123.63 79.38 125 79.38L125 79.38Q126.38 79.38 127.19 78.75Q128 78.13 128 77L128 77Q128 76.13 127.44 75.63Q126.88 75.13 125.75 74.75L125.75 74.75L124.88 74.63Q124.13 74.50 123.81 74.19Q123.50 73.88 123.50 73.50L123.50 73.50Q123.50 73 123.94 72.63Q124.38 72.25 125.13 72.25L125.13 72.25Q125.75 72.25 126.19 72.56Q126.63 72.88 126.75 73.50L126.75 73.50L127.88 73.50Q127.88 72.50 127.06 71.88Q126.25 71.25 125.13 71.25L125.13 71.25Q123.88 71.25 123.06 71.88Q122.25 72.50 122.25 73.63L122.25 73.63Q122.25 74.38 122.75 74.94Q123.25 75.50 124.25 75.75L124.25 75.75L125.25 75.88Q126 76 126.38 76.31Q126.75 76.63 126.75 77.13L126.75 77.13Q126.75 77.63 126.31 77.94Q125.88 78.25 125.13 78.25L125.13 78.25Q124.38 78.25 123.81 77.94Q123.25 77.63 123.25 77.13L123.25 77.13L122 77.13Z"/></svg>