<svg xmlns="http://www.w3.org/2000/svg" xmlns:xlink="http://www.w3.org/1999/xlink" width="128" height="128"><path fill="#ffffff" d="M57.25 43.13L57.25 43.13Q52.63 51 51.50 52.63Q50.38 54.25 49.75 54.50L49.75 54.50Q49.13 54.88 48.94 54.88Q48.75 54.88 48.50 54.75L48.50 54.75Q47.50 54 46.31 54.19Q45.13 54.38 44.25 55.38L44.25 55.38L43.50 56.25L43.38 55.38Q43.25 54.38 43.13 54.06Q43 53.75 42.63 53.25L42.63 53.25Q42.25 52.88 42.19 52.56Q42.13 52.25 42.38 51L42.38 51Q42.63 49.50 42.63 48.31Q42.63 47.13 42.38 46L42.38 46Q42 43.88 40.81 42.88Q39.63 41.88 37.63 41.88L37.63 41.88Q35.88 41.88 33.69 43.25Q31.50 44.63 28.88 47.63L28.88 47.63Q27.25 49.38 25.25 52.13Q23.25 54.88 22.75 56L22.75 56L22.50 56.63L11.38 56.50Q6.13 56.38 3.19 56.38Q0.25 56.38 0.38 56.50L0.38 56.50Q0.38 56.63 3.50 57.81Q6.63 59 11 60.63L11 60.63L21.38 64.50L21.75 65.38Q22.13 66.25 22.94 67.13Q23.75 68 24.50 68.50L24.50 68.50L25.25 69L24.38 69.38Q23.88 69.63 23.56 69.88Q23.25 70.13 23 70.63L23 70.63Q22.50 71.75 22.75 72.50Q23 73.25 24.13 74.63L24.13 74.63Q24.63 75.25 25.25 76.13Q25.88 77 26.25 77.75L26.25 77.75Q26.75 78.50 27.13 79.06Q27.50 79.63 27.75 79.75L27.75 79.75Q28.38 80.13 29.19 80.19Q30 80.25 30.50 80L30.50 80Q31 79.75 33.19 79.19Q35.38 78.63 35.25 78.75L35.25 78.75Q35.25 78.88 33.63 81.38Q32 83.88 29.88 87.38L29.88 87.38Q27.63 90.75 26.13 93.25Q24.63 95.75 24.63 95.75L24.63 95.75Q24.63 95.75 30.44 93.56Q36.25 91.38 44.38 88.25L44.38 88.25L64 80.63L83.50 88.25Q91.63 91.38 97.44 93.56Q103.25 95.75 103.25 95.75L103.25 95.75Q103.38 95.75 102.44 94.19Q101.50 92.63 100.25 90.50L100.25 90.50L96.88 85.38L98 85.13Q100 84.75 101.94 83.38Q103.88 82 105 80.25L105 80.25Q106.75 77.75 107 74.56Q107.25 71.38 106.13 67.13L106.13 67.13Q105.88 66.25 105.75 65.63Q105.63 65 105.63 64.88L105.63 64.88Q105.75 64.88 108.94 63.69Q112.13 62.50 116.63 60.75L116.63 60.75Q121.13 59.13 124.38 57.88Q127.63 56.63 127.63 56.50L127.63 56.50Q127.75 56.50 124.31 56.44Q120.88 56.38 115.75 56.50L115.75 56.50Q108.13 56.50 105.88 56.50Q103.63 56.50 103.63 56.25L103.63 56.25Q103.50 56.13 103.44 55.88Q103.38 55.63 103.38 55.50L103.38 55.50Q103.25 55 102.69 54.38Q102.13 53.75 101.63 53.50L101.63 53.50Q101.38 53.38 100.75 53.31Q100.13 53.25 99.50 53.25L99.50 53.25Q98.50 53.25 98.13 53.38Q97.75 53.50 97.25 53.88L97.25 53.88Q96.88 54.13 96.63 54.38Q96.38 54.63 96.38 54.88L96.38 54.88Q96.13 55.25 96 55.25Q95.88 55.25 95.63 54.75L95.63 54.75Q95 53.63 93.50 53.38Q92 53.13 91.13 54.13L91.13 54.13L90.38 54.75L89.25 54.13Q88 53.50 86.75 53.38Q85.50 53.25 84.63 53.63L84.63 53.63Q84.25 53.75 84 53.81Q83.75 53.88 83.38 53.75L83.38 53.75Q82.75 53.50 81.81 53.63Q80.88 53.75 80.50 54.25L80.50 54.25L79.88 54.88L78.88 54.25Q78.50 53.88 78 53.63Q77.50 53.38 77.25 53.38L77.25 53.38Q76.88 53.25 75.63 51.19Q74.38 49.13 70.38 42.63L70.38 42.63Q67.88 38.38 65.94 35.31Q64 32.25 64 32.25L64 32.25Q64 32.25 62 35.44Q60 38.63 57.25 43.13L57.25 43.13ZM38.63 44.88L38.63 44.88Q39.38 45.50 39.63 47.13Q39.88 48.75 39.38 51.13L39.38 51.13Q38.88 53.75 38.06 55.63Q37.25 57.50 35.75 59L35.75 59Q34.88 60 33.88 60.50Q32.88 61 32 61.13L32 61.13Q29.75 61.13 29.25 59.19Q28.75 57.25 30.25 54.25L30.25 54.25Q30.75 53.13 31.75 51.75Q32.75 50.38 33 50.38L33 50.38Q33.13 50.38 33.44 51.44Q33.75 52.50 33.75 53L33.75 53Q33.75 53.13 33.44 53.69Q33.13 54.25 32.75 54.88L32.75 54.88Q32.25 55.75 32.06 56.25Q31.88 56.75 31.88 57.38L31.88 57.38Q31.88 59.75 33.56 59.50Q35.25 59.25 36.38 56.75L36.38 56.75Q37.63 54.25 38.13 50.50Q38.63 46.75 37.88 45.88L37.88 45.88Q37.50 45.50 37.13 45.50Q36.75 45.50 35.63 46L35.63 46Q34 46.75 31.13 50.06Q28.25 53.38 27.13 55.88L27.13 55.88Q25.88 58.50 26.13 60.88Q26.38 63.25 28 64.75L28 64.75Q29.50 66.13 31.69 65.88Q33.88 65.63 35.75 63.88L35.75 63.88Q37.13 62.50 38.13 60.63Q39.13 58.75 39.50 56.63L39.50 56.63Q39.88 55.38 40.19 55.25Q40.50 55.13 40.63 56.25L40.63 56.25Q40.63 56.75 41 58Q41.38 59.25 41.75 60.63L41.75 60.63Q42.88 64 43.19 65.38Q43.50 66.75 43.50 68L43.50 68Q43.50 69.38 43 70.50Q42.50 71.63 41.38 72.63L41.38 72.63Q40.38 73.63 38.69 74.38Q37 75.13 34.25 75.88L34.25 75.88Q33 76.13 31.88 76.50Q30.75 76.88 30.38 76.88L30.38 76.88Q29.63 77.25 29.44 77.19Q29.25 77.13 29 76.75L29 76.75Q28.75 76 27.94 74.75Q27.13 73.50 26.38 72.88L26.38 72.88L25.50 71.88L26.38 71.75Q28.50 71.13 31.25 70.13Q34 69.13 35.50 68.38L35.50 68.38Q37.38 67.50 38.56 66.56Q39.75 65.63 40.25 64.63L40.25 64.63Q40.63 63.88 40.63 62.25Q40.63 60.63 40.13 59.75L40.13 59.75L39.75 58.75L39.50 59.38Q38.50 62.13 36.63 64Q34.75 65.88 32.38 66.63L32.38 66.63Q30.88 67 29.25 66.94Q27.63 66.88 26.50 66.25L26.50 66.25Q24.38 65.13 24.06 63Q23.75 60.88 25.13 58L25.13 58Q26.63 54.75 30.25 50.56Q33.88 46.38 36 45.25L36 45.25Q37.25 44.63 37.69 44.63Q38.13 44.63 38.63 44.88L38.63 44.88ZM76.50 56.25L76.50 56.25Q78.38 57.13 79.44 58.94Q80.50 60.75 80.50 62.88L80.50 62.88Q80.50 64.63 80.13 65.75Q79.75 66.88 78.75 67.88L78.75 67.88Q77.88 68.75 76.88 69.06Q75.88 69.38 74.50 69.25L74.50 69.25Q72.25 69 71 67.75Q69.75 66.50 69.63 64.25L69.63 64.25Q69.38 62 70.31 59.44Q71.25 56.88 72.63 56.13L72.63 56.13Q73.38 55.63 74.44 55.69Q75.50 55.75 76.50 56.25ZM65.88 56.75L65.88 56.75Q66.13 56.88 66.56 57.44Q67 58 67.25 58.63L67.25 58.63Q67.75 59.63 67.88 60.19Q68 60.75 68 62.25L68 62.25Q68 63.88 67.88 64.44Q67.75 65 67.25 66L67.25 66Q66.25 68 64.63 69.06Q63 70.13 61.13 69.88L61.13 69.88Q60 69.88 59.38 69.44Q58.75 69 58.25 68L58.25 68Q57.63 66.63 57.81 64.25Q58 61.88 59.13 59.63L59.13 59.63Q59.63 58.50 60.69 57.31Q61.75 56.13 62.38 56.13L62.38 56.13Q63.13 56 64.25 56.19Q65.38 56.38 65.88 56.75ZM100.38 56.25L100.38 56.25Q100.50 56.38 100.81 57.63Q101.13 58.88 101.50 60.63L101.50 60.63Q101.88 62.25 102.38 64.38Q102.88 66.50 103.25 67.63L103.25 67.63Q103.75 69.50 103.88 70.44Q104 71.38 104 73L104 73Q104 75.25 103.63 76.50Q103.25 77.75 102.25 79.25L102.25 79.25Q100.38 81.63 97.63 82.56Q94.88 83.50 90.50 83.25L90.50 83.25Q89.50 83.13 88.75 83.06Q88 83 88 82.88L88 82.88Q87.88 82.88 88.06 82.63Q88.25 82.38 88.50 82.25L88.50 82.25Q89.25 81.63 89.75 80.63Q90.25 79.63 90.38 78.38L90.38 78.38Q90.50 77.88 90.56 77.44Q90.63 77 90.63 77L90.63 77Q90.63 77 91.31 77.19Q92 77.38 92.88 77.63L92.88 77.63Q96.38 78.50 98.75 77.69Q101.13 76.88 102.25 74.38L102.25 74.38Q102.63 73.38 102.75 71.75Q102.88 70.13 102.50 68.38L102.50 68.38L102.25 66.63L102.25 68Q102.25 68.50 102.13 69.25Q102 70 101.88 70.63L101.88 70.63Q101.50 72.63 100.69 73.63Q99.88 74.63 98.75 74.63L98.75 74.63Q97.50 74.63 96.75 73.13Q96 71.63 95.50 68.25L95.50 68.25Q94.75 62.75 94.31 60.94Q93.88 59.13 93.13 58.13L93.13 58.13Q92.63 57.50 92.63 57.25Q92.63 57 92.88 56.63L92.88 56.63Q93.13 56.38 93.25 56.44Q93.38 56.50 93.75 57.25L93.75 57.25Q93.88 57.75 94.31 58.88Q94.75 60 95.13 61.13L95.13 61.13Q96.13 64.25 96.75 65.31Q97.38 66.38 98.38 66.75L98.38 66.75Q99 67 99.69 66.69Q100.38 66.38 100.75 65.75L100.75 65.75Q101.63 64.50 101.50 62.69Q101.38 60.88 100.13 58.50L100.13 58.50Q99.75 57.63 99.38 57Q99 56.38 99 56.25L99 56.25Q99 56.13 99.56 56.13Q100.13 56.13 100.38 56.25L100.38 56.25ZM72.38 56.88L72.38 56.88Q71.88 57.63 71.69 58.31Q71.50 59 71.50 60L71.50 60Q71.38 62.50 73.38 63.75Q75.38 65 77.75 63.88L77.75 63.88Q79.50 63.13 79.75 61.75Q80 60.38 78.50 58.50L78.50 58.50Q77.63 57.38 76.25 56.75Q74.88 56.13 74.38 56.50L74.38 56.50Q73.88 56.88 74.06 57.31Q74.25 57.75 75 58.38L75 58.38Q75.88 59.13 76 59.44Q76.13 59.75 75.75 60.13L75.75 60.13Q74.88 60.75 73.69 60Q72.50 59.25 72.50 58L72.50 58Q72.50 57.63 72.56 57.25Q72.63 56.88 72.75 56.75L72.75 56.75Q73 56.25 72.88 56.31Q72.75 56.38 72.38 56.88L72.38 56.88ZM87.75 56.63L87.75 56.63Q89.75 57.50 91.13 60.56Q92.50 63.63 92.25 67L92.25 67Q92.25 68.75 91.81 69.94Q91.38 71.13 90.50 71.88L90.50 71.88Q89.38 72.88 87.94 72.31Q86.50 71.75 85.63 69.88L85.63 69.88Q85.25 69.13 84.81 67.63Q84.38 66.13 83.75 63.25L83.75 63.25Q83.25 61.13 82.81 59.81Q82.38 58.50 81.88 58L81.88 58Q81.63 57.63 81.63 57.44Q81.63 57.25 81.88 57L81.88 57Q82 56.75 82.13 56.63Q82.25 56.50 82.38 56.50L82.38 56.50Q82.63 56.50 83.06 57.69Q83.50 58.88 83.88 60.50L83.88 60.50Q84.38 62.38 84.69 63.25Q85 64.13 85.50 64.75L85.50 64.75Q86.25 65.63 87.56 65.88Q88.88 66.13 89.63 65.38L89.63 65.38Q90.63 64.50 90.88 63.25Q91.13 62 90.50 60.38L90.50 60.38Q90.13 59 88.81 57.88Q87.50 56.75 87 57.38L87 57.38Q86.88 57.50 86.88 57.69Q86.88 57.88 87.13 58.13L87.13 58.13Q87.25 58.38 87.38 58.63Q87.50 58.88 87.50 59.13L87.50 59.13Q87.50 59.50 87.25 60.06Q87 60.63 86.75 60.63L86.75 60.63Q86.50 60.63 86 60.19Q85.50 59.75 85.25 59.25L85.25 59.25Q84.88 58.75 84.88 57.88Q84.88 57 85.13 56.63L85.13 56.63Q85.38 56.38 86.25 56.38Q87.13 56.38 87.75 56.63L87.75 56.63ZM63.13 57.13L63.13 57.13Q62.63 57.63 62.75 58Q62.88 58.38 63.75 59.25L63.75 59.25Q64.38 60.13 64.50 60.31Q64.63 60.50 64.25 60.88L64.25 60.88Q64.13 61 63.88 61.19Q63.63 61.38 63.38 61.50L63.38 61.50Q63 61.63 62.31 61.38Q61.63 61.13 61.38 60.75L61.38 60.75Q61.25 60.38 61.25 59.38Q61.25 58.38 61.50 57.75L61.50 57.75Q61.88 56.88 61.63 57Q61.38 57.13 60.75 58L60.75 58Q59.88 59.38 59.75 60.88Q59.63 62.38 60.25 63.63L60.25 63.63Q61.25 65.63 63.31 65.44Q65.38 65.25 67 63.13L67 63.13Q67.75 62.13 67.63 60.88Q67.50 59.63 66.38 58.25L66.38 58.25Q65.63 57.25 64.69 56.94Q63.75 56.63 63.13 57.13L63.13 57.13ZM47.25 58.75L47.25 58.75Q47.38 59.38 47.63 59.81Q47.88 60.25 47.88 60.38L47.88 60.38Q48.13 60.38 49 59.63Q49.88 58.88 50.50 58L50.50 58Q50.75 57.63 50.94 57.38Q51.13 57.13 51.25 57.13L51.25 57.13Q51.25 57.13 51.44 57.31Q51.63 57.50 51.75 57.88L51.75 57.88Q51.88 58.13 52.13 58.38Q52.38 58.63 52.63 58.75L52.63 58.75Q53 58.88 53.25 58.75Q53.50 58.63 54.13 58L54.13 58L54.88 57.13L55 57.75Q55.13 58.75 54.13 60.06Q53.13 61.38 52.13 61.63L52.13 61.63Q51.63 61.88 51.31 61.81Q51 61.75 50.13 61.25L50.13 61.25Q49.38 60.88 49 60.75Q48.63 60.63 48.38 60.75L48.38 60.75Q48 61 47.94 61.69Q47.88 62.38 48.13 63.38L48.13 63.38Q48.38 64.63 48.75 65.38Q49.13 66.13 49.75 66.75L49.75 66.75Q50.38 67.38 51.13 67.44Q51.88 67.50 53 66.88L53 66.88L54.13 66.38L54.13 68.88L54.13 71.25L53.25 71.63Q52.50 71.88 51.63 71.88Q50.75 71.88 50.13 71.63L50.13 71.63Q49.50 71.25 49 70.06Q48.50 68.88 48.13 66.25L48.13 66.25Q47.50 63.38 47.06 61.94Q46.63 60.50 46 59.75L46 59.75Q45.63 59.50 45.50 59.19Q45.38 58.88 45.38 58.75L45.38 58.75Q45.63 58.38 46.13 57.75Q46.63 57.13 46.63 57.25L46.63 57.25Q46.63 57.25 46.81 57.69Q47 58.13 47.25 58.75L47.25 58.75ZM93.63 73.63L93.63 73.63Q93.63 73.75 93.56 73.81Q93.50 73.88 93.38 73.88L93.38 73.88Q93.13 73.88 93.13 73.81Q93.13 73.75 93.13 73.63L93.13 73.63Q93.13 73.50 93.25 73.44Q93.38 73.38 93.50 73.38L93.50 73.38Q93.50 73.38 93.56 73.44Q93.63 73.50 93.63 73.63L93.63 73.63Z"/></svg>