<svg xmlns="http://www.w3.org/2000/svg" xmlns:xlink="http://www.w3.org/1999/xlink" width="128" height="128"><path fill="#ffffff" d="M13.25 56.13L13.25 56.13Q10.63 56.13 8.94 57.44Q7.25 58.75 6.63 61.38L6.63 61.38Q7.63 60 8.75 59.50Q9.88 59 11.25 59.38L11.25 59.38Q12 59.63 12.56 60.13Q13.13 60.63 13.75 61.25L13.75 61.25Q14.75 62.25 16.06 63.13Q17.38 64 19.88 64L19.88 64Q22.50 64 24.13 62.69Q25.75 61.38 26.50 58.75L26.50 58.75Q25.50 60.13 24.31 60.63Q23.13 61.13 21.88 60.75L21.88 60.75Q21.13 60.50 20.50 60Q19.88 59.50 19.25 58.88L19.25 58.88Q18.38 57.88 17 57Q15.63 56.13 13.25 56.13L13.25 56.13ZM6.63 64L6.63 64Q4 64 2.31 65.31Q0.63 66.63 0 69.25L0 69.25Q1 68 2.13 67.50Q3.25 67 4.63 67.38L4.63 67.38Q5.38 67.50 5.94 68Q6.50 68.50 7.13 69.13L7.13 69.13Q8.13 70.13 9.44 71.06Q10.75 72 13.25 72L13.25 72Q15.88 72 17.50 70.69Q19.13 69.38 19.88 66.63L19.88 66.63Q18.88 68 17.69 68.50Q16.50 69 15.25 68.63L15.25 68.63Q14.50 68.50 13.88 68Q13.25 67.50 12.63 66.88L12.63 66.88Q11.75 65.88 10.44 64.94Q9.13 64 6.63 64L6.63 64ZM39.63 62.75L39.63 62.75L37.38 62.75L37.38 67.25Q37.38 68.13 37.94 68.25Q38.50 68.38 39.63 68.38L39.63 68.38L39.63 70.13Q37.38 70.38 36.38 69.69Q35.38 69 35.38 67.25L35.38 67.25L35.38 62.75L33.63 62.75L33.63 60.88L35.38 60.88L35.38 58.38L37.38 57.75L37.38 60.88L39.63 60.88L39.63 62.75ZM48.50 62.13L48.50 60.88L50.50 60.88L50.50 70.13L48.50 70.13L48.50 68.75Q48 69.50 47.19 69.94Q46.38 70.38 45.25 70.38L45.25 70.38Q43.38 70.38 42 68.94Q40.63 67.50 40.63 65.50L40.63 65.50Q40.63 63.38 42 61.94Q43.38 60.50 45.25 60.50L45.25 60.50Q46.38 60.50 47.19 60.94Q48 61.38 48.50 62.13L48.50 62.13ZM45.50 68.50L45.50 68.50Q46.75 68.50 47.63 67.63Q48.50 66.75 48.50 65.50L48.50 65.50Q48.50 64.13 47.63 63.31Q46.75 62.50 45.50 62.50L45.50 62.50Q44.25 62.50 43.44 63.31Q42.63 64.13 42.63 65.50L42.63 65.50Q42.63 66.75 43.44 67.63Q44.25 68.50 45.50 68.50L45.50 68.50ZM53.88 59.38L53.88 59.38Q53.25 59.38 52.88 59Q52.50 58.63 52.50 58.13L52.50 58.13Q52.50 57.63 52.88 57.25Q53.25 56.88 53.88 56.88L53.88 56.88Q54.38 56.88 54.75 57.25Q55.13 57.63 55.13 58.13L55.13 58.13Q55.13 58.63 54.75 59Q54.38 59.38 53.88 59.38ZM54.88 70.13L52.88 70.13L52.88 60.88L54.88 60.88L54.88 70.13ZM59.13 70.13L57.13 70.13L57.13 56.50L59.13 56.50L59.13 70.13ZM70.38 67.25L72.25 60.88L74.38 60.88L71.38 70.13L69.50 70.13L67.50 63.88L65.63 70.13L63.63 70.13L60.63 60.88L62.75 60.88L64.63 67.25L66.50 60.88L68.50 60.88L70.38 67.25ZM76.88 59.38L76.88 59.38Q76.25 59.38 75.88 59Q75.50 58.63 75.50 58.13L75.50 58.13Q75.50 57.63 75.88 57.25Q76.25 56.88 76.88 56.88L76.88 56.88Q77.38 56.88 77.75 57.25Q78.13 57.63 78.13 58.13L78.13 58.13Q78.13 58.63 77.75 59Q77.38 59.38 76.88 59.38L76.88 59.38ZM77.88 70.13L75.88 70.13L75.88 60.88L77.88 60.88L77.88 70.13ZM85 60.63L85 60.63Q86.63 60.63 87.63 61.63Q88.63 62.63 88.63 64.38L88.63 64.38L88.63 70.13L86.63 70.13L86.63 64.63Q86.63 63.50 86.06 63Q85.50 62.50 84.50 62.50L84.50 62.50Q83.50 62.50 82.81 63.13Q82.13 63.75 82.13 65.13L82.13 65.13L82.13 70.13L80.13 70.13L80.13 60.88L82.13 60.88L82.13 62Q82.63 61.25 83.38 60.94Q84.13 60.63 85 60.63L85 60.63ZM98.13 62.13L98.13 57.13L100.13 57.13L100.13 70.13L98.13 70.13L98.13 68.75Q97.63 69.50 96.81 69.94Q96 70.38 94.88 70.38L94.88 70.38Q93 70.38 91.63 68.94Q90.25 67.50 90.25 65.50L90.25 65.50Q90.25 63.38 91.63 61.94Q93 60.50 94.88 60.50L94.88 60.50Q96 60.50 96.81 60.94Q97.63 61.38 98.13 62.13L98.13 62.13ZM95.25 68.50L95.25 68.50Q96.50 68.50 97.31 67.63Q98.13 66.75 98.13 65.50L98.13 65.50Q98.13 64.13 97.31 63.31Q96.50 62.50 95.25 62.50L95.25 62.50Q94 62.50 93.13 63.31Q92.25 64.13 92.25 65.50L92.25 65.50Q92.25 66.75 93.13 67.63Q94 68.50 95.25 68.50L95.25 68.50ZM106.88 70.38L106.88 70.38Q104.75 70.38 103.38 68.94Q102 67.50 102 65.50L102 65.50Q102 63.38 103.38 62Q104.75 60.63 106.88 60.63L106.88 60.63Q108.25 60.63 109.38 61.25Q110.50 61.88 111 63L111 63L109.38 64Q109 63.38 108.38 62.94Q107.75 62.50 106.88 62.50L106.88 62.50Q105.63 62.50 104.81 63.38Q104 64.25 104 65.50L104 65.50Q104 66.75 104.81 67.56Q105.63 68.38 106.88 68.38L106.88 68.38Q107.75 68.38 108.38 68Q109 67.63 109.38 67L109.38 67L111.13 68Q110.50 69 109.38 69.69Q108.25 70.38 106.88 70.38ZM114.38 63.38L114.38 63.38Q114.38 64.63 116.88 64.75Q119.38 64.88 119.38 67.50L119.38 67.50Q119.38 68.88 118.31 69.63Q117.25 70.38 115.75 70.38L115.75 70.38Q114.38 70.38 113.44 69.81Q112.50 69.25 112 68.25L112 68.25L113.75 67.25Q114 67.88 114.50 68.19Q115 68.50 115.75 68.50L115.75 68.50Q116.50 68.50 116.94 68.31Q117.38 68.13 117.38 67.50L117.38 67.50Q117.38 66.25 114.88 66.13Q112.38 66 112.38 63.50L112.38 63.50Q112.38 62.13 113.38 61.38Q114.38 60.63 115.75 60.63L115.75 60.63Q116.88 60.63 117.81 61.13Q118.75 61.63 119.25 62.50L119.25 62.50L117.50 63.50Q117.25 62.88 116.81 62.63Q116.38 62.38 115.75 62.38L115.75 62.38Q115.25 62.38 114.81 62.63Q114.38 62.88 114.38 63.38ZM123 63.38L123 63.38Q123 64.63 125.50 64.75Q128 64.88 128 67.50L128 67.50Q128 68.88 126.94 69.63Q125.88 70.38 124.38 70.38L124.38 70.38Q123 70.38 122 69.81Q121 69.25 120.63 68.25L120.63 68.25L122.25 67.25Q122.50 67.88 123.06 68.19Q123.63 68.50 124.38 68.50L124.38 68.50Q125 68.50 125.50 68.31Q126 68.13 126 67.50L126 67.50Q126 66.25 123.50 66.13Q121 66 121 63.50L121 63.50Q121 62.13 121.94 61.38Q122.88 60.63 124.38 60.63L124.38 60.63Q125.50 60.63 126.38 61.13Q127.25 61.63 127.75 62.50L127.75 62.50L126.13 63.50Q125.88 62.88 125.38 62.63Q124.88 62.38 124.38 62.38L124.38 62.38Q123.75 62.38 123.38 62.63Q123 62.88 123 63.38Z"/></svg>