<svg xmlns="http://www.w3.org/2000/svg" xmlns:xlink="http://www.w3.org/1999/xlink" width="128" height="128"><path fill="#ffffff" d="M64 25.63L64 25.63Q57.63 25.63 52.38 27.25L52.38 27.25Q47.25 28.75 43.25 32Q39.25 35.25 36.38 40L36.38 40Q33.63 44.75 32 51.25L32 51.25Q36.75 44.75 42.38 42.38Q48 40 54.38 41.63L54.38 41.63Q58 42.50 60.88 44.94Q63.75 47.38 66.63 50.25L66.63 50.25Q71.38 55 77.75 59.50Q84.13 64 96 64L96 64Q102.38 64 107.63 62.38L107.63 62.38Q112.75 60.75 116.75 57.56Q120.75 54.38 123.63 49.63L123.63 49.63Q126.38 44.75 128 38.38L128 38.38Q123.25 44.75 117.63 47.19Q112 49.63 105.63 48L105.63 48Q102 47.13 99.13 44.69Q96.25 42.25 93.38 39.38L93.38 39.38Q88.75 34.63 82.31 30.13Q75.88 25.63 64 25.63L64 25.63ZM32 64L32 64Q25.63 64 20.38 65.63L20.38 65.63Q15.25 67.25 11.25 70.44Q7.25 73.63 4.38 78.38L4.38 78.38Q1.63 83.25 0 89.63L0 89.63Q4.75 83.25 10.38 80.81Q16 78.38 22.38 80L22.38 80Q26 80.88 28.88 83.31Q31.75 85.75 34.63 88.63L34.63 88.63Q39.38 93.38 45.75 97.88Q52.13 102.38 64 102.38L64 102.38Q70.38 102.38 75.63 100.75L75.63 100.75Q80.75 99.25 84.75 96Q88.75 92.75 91.63 88L91.63 88Q94.38 83.25 96 76.75L96 76.75Q91.25 83.25 85.63 85.63Q80 88 73.63 86.38L73.63 86.38Q70 85.50 67.13 83.06Q64.25 80.63 61.38 77.75L61.38 77.75Q56.75 73 50.31 68.50Q43.88 64 32 64L32 64Z"/></svg>