<svg xmlns="http://www.w3.org/2000/svg" xmlns:xlink="http://www.w3.org/1999/xlink" width="128" height="128"><path fill="#000000" d="M45.75 71.38L45.75 71.38L47 68.38Q48.13 69.25 49.38 69.63Q50.63 70 52 70L52 70Q53 70 53.56 69.63Q54.13 69.25 54.13 68.75L54.13 68.75Q54.13 67.13 50.19 67Q46.25 66.88 46.13 62.75L46.13 62.75Q46.13 60.75 47.81 59.31Q49.50 57.88 52.13 57.88L52.13 57.88Q53.63 57.88 55.06 58.31Q56.50 58.75 57.63 59.63L57.63 59.63L56.50 62.63Q55.50 62 54.31 61.56Q53.13 61.13 51.88 61.13L51.88 61.13Q51 61.13 50.56 61.44Q50.13 61.75 50.13 62.25L50.13 62.25Q50.13 63.88 54.13 64.19Q58.13 64.50 58.13 68.38L58.13 68.38Q58.13 70.50 56.50 71.88Q54.88 73.25 52.38 73.25L52.38 73.25Q50.50 73.25 48.81 72.81Q47.13 72.38 45.75 71.38L45.75 71.38ZM94.25 67.38L94.25 67.38Q93.75 68.25 92.94 68.75Q92.13 69.25 91.13 69.25L91.13 69.25Q89.63 69.25 88.56 68.19Q87.50 67.13 87.50 65.63L87.50 65.63Q87.50 65.63 87.50 65.63Q87.50 65.63 87.50 65.63L87.50 65.63L87.50 65.63Q87.50 65.63 87.50 65.63Q87.50 65.63 87.50 65.63L87.50 65.63Q87.50 64 88.56 62.94Q89.63 61.88 91.13 61.88L91.13 61.88L91.13 61.88Q92.13 61.88 92.94 62.44Q93.75 63 94.25 63.75L94.25 63.75L97.75 61.88Q96.75 60.13 95 59Q93.25 57.88 91.13 57.88L91.13 57.88Q87.88 57.88 85.69 60.13Q83.50 62.38 83.50 65.63L83.50 65.63Q83.50 68.75 85.69 71Q87.88 73.25 91.13 73.25L91.13 73.25Q91.13 73.25 91.13 73.25Q91.13 73.25 91.13 73.25L91.13 73.25Q93.25 73.25 95 72.19Q96.75 71.13 97.75 69.38L97.75 69.38L97.75 69.25L94.25 67.38ZM59.88 51.50L59.88 51.50L64.25 51.50L64.25 73L59.88 73L59.88 51.50ZM99.50 51.50L99.50 51.50L99.50 73L103.88 73L103.88 66.50L109 73L114.63 73L108 65.38L114.13 58.25L108.75 58.25L103.88 64.13L103.88 51.50L99.50 51.50ZM77.25 67.38L77.25 67.38Q76.75 68.25 75.81 68.75Q74.88 69.25 73.88 69.25L73.88 69.25Q72.38 69.25 71.25 68.19Q70.13 67.13 70.13 65.63L70.13 65.63Q70.13 65.63 70.13 65.63Q70.13 65.63 70.13 65.63L70.13 65.63L70.13 65.63Q70.13 65.63 70.13 65.63Q70.13 65.63 70.13 65.63L70.13 65.63Q70.13 64 71.19 62.94Q72.25 61.88 73.88 61.88L73.88 61.88L73.88 61.88Q74.88 61.88 75.81 62.44Q76.75 63 77.25 63.75L77.25 63.75L77.25 67.38ZM81.63 58.25L77.25 58.25L77.25 60Q76.75 59 75.50 58.44Q74.25 57.88 72.88 57.88L72.88 57.88Q70 57.88 68 60.13Q66 62.38 66 65.50L66 65.50Q66 68.75 68 71Q70 73.25 72.88 73.25L72.88 73.25Q74.25 73.25 75.50 72.69Q76.75 72.13 77.25 71.25L77.25 71.25L77.25 72.88L81.63 72.88L81.63 58.25ZM18.75 67.38L18.75 67.38Q18.75 68.50 18 69.31Q17.25 70.13 16.13 70.13L16.13 70.13Q15 70.13 14.19 69.31Q13.38 68.50 13.38 67.38L13.38 67.38Q13.38 67.38 13.38 67.38Q13.38 67.38 13.38 67.38L13.38 67.38L13.38 67.38Q13.38 67.38 13.38 67.38Q13.38 67.38 13.38 67.38L13.38 67.38Q13.38 66.25 14.19 65.50Q15 64.75 16.13 64.75L16.13 64.75Q16.13 64.75 16.13 64.75Q16.13 64.75 16.13 64.75L16.13 64.75L18.75 64.75L18.75 67.38ZM20.13 67.38L20.13 67.38Q20.13 67.38 20.13 67.38Q20.13 67.38 20.13 67.38L20.13 67.38Q20.13 66.25 20.94 65.50Q21.75 64.75 22.88 64.75L22.88 64.75Q22.88 64.75 22.88 64.75Q22.88 64.75 22.88 64.75L22.88 64.75L22.88 64.75Q22.88 64.75 22.88 64.75Q22.88 64.75 22.88 64.75L22.88 64.75Q24 64.75 24.75 65.50Q25.50 66.25 25.50 67.38L25.50 67.38Q25.50 67.38 25.50 67.38Q25.50 67.38 25.50 67.38L25.50 67.38L25.50 67.38L25.50 74.13Q25.50 74.13 25.50 74.13Q25.50 74.13 25.50 74.13L25.50 74.13Q25.50 75.25 24.75 76.06Q24 76.88 22.88 76.88L22.88 76.88L22.88 76.88Q21.75 76.88 20.94 76.06Q20.13 75.25 20.13 74.13L20.13 74.13Q20.13 74.13 20.13 74.13Q20.13 74.13 20.13 74.13L20.13 74.13L20.13 74.13L20.13 67.38ZM22.88 56.50L22.88 56.50Q21.75 56.50 20.94 55.75Q20.13 55 20.13 53.88L20.13 53.88Q20.13 53.88 20.13 53.88Q20.13 53.88 20.13 53.88L20.13 53.88L20.13 53.88Q20.13 53.88 20.13 53.88Q20.13 53.88 20.13 53.88L20.13 53.88Q20.13 52.75 20.94 51.94Q21.75 51.13 22.88 51.13L22.88 51.13Q22.88 51.13 22.88 51.13Q22.88 51.13 22.88 51.13L22.88 51.13L22.88 51.13Q22.88 51.13 22.88 51.13Q22.88 51.13 22.88 51.13L22.88 51.13Q24 51.13 24.75 51.94Q25.50 52.75 25.50 53.88L25.50 53.88Q25.50 53.88 25.50 53.88Q25.50 53.88 25.50 53.88L25.50 53.88L25.50 53.88L25.50 56.50L22.88 56.50ZM22.88 57.88L22.88 57.88Q22.88 57.88 22.88 57.88Q22.88 57.88 22.88 57.88L22.88 57.88Q24 57.88 24.75 58.69Q25.50 59.50 25.50 60.63L25.50 60.63Q25.50 60.63 25.50 60.63Q25.50 60.63 25.50 60.63L25.50 60.63L25.50 60.63Q25.50 61.75 24.75 62.56Q24 63.38 22.88 63.38L22.88 63.38L16.13 63.38Q15 63.38 14.19 62.56Q13.38 61.75 13.38 60.63L13.38 60.63Q13.38 60.63 13.38 60.63Q13.38 60.63 13.38 60.63L13.38 60.63L13.38 60.63Q13.38 60.63 13.38 60.63Q13.38 60.63 13.38 60.63L13.38 60.63Q13.38 59.50 14.19 58.69Q15 57.88 16.13 57.88L16.13 57.88Q16.13 57.88 16.13 57.88Q16.13 57.88 16.13 57.88L16.13 57.88L22.88 57.88ZM33.63 60.63L33.63 60.63Q33.63 60.63 33.63 60.63Q33.63 60.63 33.63 60.63L33.63 60.63Q33.63 59.50 34.44 58.69Q35.25 57.88 36.38 57.88L36.38 57.88Q36.38 57.88 36.38 57.88Q36.38 57.88 36.38 57.88L36.38 57.88L36.38 57.88Q36.38 57.88 36.38 57.88Q36.38 57.88 36.38 57.88L36.38 57.88Q37.38 57.88 38.19 58.69Q39 59.50 39 60.63L39 60.63Q39 60.63 39 60.63Q39 60.63 39 60.63L39 60.63L39 60.63Q39 61.75 38.19 62.56Q37.38 63.38 36.38 63.38L36.38 63.38L33.63 63.38L33.63 60.63ZM32.25 60.63L32.25 60.63Q32.25 61.75 31.50 62.56Q30.75 63.38 29.63 63.38L29.63 63.38Q28.50 63.38 27.69 62.56Q26.88 61.75 26.88 60.63L26.88 60.63Q26.88 60.63 26.88 60.63Q26.88 60.63 26.88 60.63L26.88 60.63L26.88 60.63L26.88 53.88Q26.88 53.88 26.88 53.88Q26.88 53.88 26.88 53.88L26.88 53.88Q26.88 52.75 27.69 51.94Q28.50 51.13 29.63 51.13L29.63 51.13Q29.63 51.13 29.63 51.13Q29.63 51.13 29.63 51.13L29.63 51.13L29.63 51.13Q29.63 51.13 29.63 51.13Q29.63 51.13 29.63 51.13L29.63 51.13Q30.75 51.13 31.50 51.94Q32.25 52.75 32.25 53.88L32.25 53.88Q32.25 53.88 32.25 53.88Q32.25 53.88 32.25 53.88L32.25 53.88L32.25 53.88L32.25 60.63ZM29.63 71.50L29.63 71.50Q29.63 71.50 29.63 71.50Q29.63 71.50 29.63 71.50L29.63 71.50Q30.75 71.50 31.50 72.25Q32.25 73 32.25 74.13L32.25 74.13Q32.25 74.13 32.25 74.13Q32.25 74.13 32.25 74.13L32.25 74.13L32.25 74.13Q32.25 74.13 32.25 74.13Q32.25 74.13 32.25 74.13L32.25 74.13Q32.25 75.25 31.50 76.06Q30.75 76.88 29.63 76.88L29.63 76.88L29.63 76.88Q28.50 76.88 27.69 76.06Q26.88 75.25 26.88 74.13L26.88 74.13Q26.88 74.13 26.88 74.13Q26.88 74.13 26.88 74.13L26.88 74.13L26.88 74.13L26.88 71.50L29.63 71.50ZM29.63 70.13L29.63 70.13Q28.50 70.13 27.69 69.31Q26.88 68.50 26.88 67.38L26.88 67.38Q26.88 67.38 26.88 67.38Q26.88 67.38 26.88 67.38L26.88 67.38L26.88 67.38Q26.88 67.38 26.88 67.38Q26.88 67.38 26.88 67.38L26.88 67.38Q26.88 66.25 27.69 65.50Q28.50 64.75 29.63 64.75L29.63 64.75Q29.63 64.75 29.63 64.75Q29.63 64.75 29.63 64.75L29.63 64.75L36.38 64.75Q36.38 64.75 36.38 64.75Q36.38 64.75 36.38 64.75L36.38 64.75Q37.50 64.75 38.25 65.50Q39 66.25 39 67.38L39 67.38Q39 67.38 39 67.38Q39 67.38 39 67.38L39 67.38L39 67.38Q39 67.38 39 67.38Q39 67.38 39 67.38L39 67.38Q39 68.50 38.25 69.31Q37.50 70.13 36.38 70.13L36.38 70.13L29.63 70.13Z"/></svg>