<svg xmlns="http://www.w3.org/2000/svg" xmlns:xlink="http://www.w3.org/1999/xlink" width="128" height="128"><path fill="#000000" d="M27.13 67.38L27.13 80.75Q27.13 86.25 23.25 90.19Q19.38 94.13 13.75 94.13L13.75 94.13Q8.25 94.13 4.38 90.19Q0.50 86.25 0.50 80.75L0.50 80.75Q0.50 75.25 4.38 71.31Q8.25 67.38 13.75 67.38L13.75 67.38L27.13 67.38ZM33.88 80.75L33.88 80.75Q33.88 75.25 37.81 71.31Q41.75 67.38 47.25 67.38L47.25 67.38Q52.75 67.38 56.69 71.31Q60.63 75.25 60.63 80.75L60.63 80.75L60.63 114.25Q60.63 119.75 56.69 123.63Q52.75 127.50 47.25 127.50L47.25 127.50Q41.75 127.50 37.81 123.63Q33.88 119.75 33.88 114.25L33.88 114.25L33.88 80.75ZM60.63 27.13L47.25 27.13Q41.75 27.13 37.81 23.25Q33.88 19.38 33.88 13.75L33.88 13.75Q33.88 8.25 37.81 4.38Q41.75 0.50 47.25 0.50L47.25 0.50Q52.75 0.50 56.69 4.38Q60.63 8.25 60.63 13.75L60.63 13.75L60.63 27.13ZM47.25 33.88L47.25 33.88Q52.75 33.88 56.69 37.81Q60.63 41.75 60.63 47.25L60.63 47.25Q60.63 52.75 56.69 56.69Q52.75 60.63 47.25 60.63L47.25 60.63L13.75 60.63Q8.25 60.63 4.38 56.69Q0.50 52.75 0.50 47.25L0.50 47.25Q0.50 41.75 4.38 37.81Q8.25 33.88 13.75 33.88L13.75 33.88L47.25 33.88ZM100.88 60.63L100.88 47.25Q100.88 41.75 104.75 37.81Q108.63 33.88 114.25 33.88L114.25 33.88Q119.75 33.88 123.63 37.81Q127.50 41.75 127.50 47.25L127.50 47.25Q127.50 52.75 123.63 56.69Q119.75 60.63 114.25 60.63L114.25 60.63L100.88 60.63ZM94.13 13.75L94.13 47.25Q94.13 52.75 90.19 56.69Q86.25 60.63 80.75 60.63L80.75 60.63Q75.25 60.63 71.31 56.69Q67.38 52.75 67.38 47.25L67.38 47.25L67.38 13.75Q67.38 8.25 71.31 4.38Q75.25 0.50 80.75 0.50L80.75 0.50Q86.25 0.50 90.19 4.38Q94.13 8.25 94.13 13.75L94.13 13.75ZM67.38 100.88L80.75 100.88Q86.25 100.88 90.19 104.75Q94.13 108.63 94.13 114.25L94.13 114.25Q94.13 119.75 90.19 123.63Q86.25 127.50 80.75 127.50L80.75 127.50Q75.25 127.50 71.31 123.63Q67.38 119.75 67.38 114.25L67.38 114.25L67.38 100.88ZM114.25 94.13L80.75 94.13Q75.25 94.13 71.31 90.19Q67.38 86.25 67.38 80.75L67.38 80.75Q67.38 75.25 71.31 71.31Q75.25 67.38 80.75 67.38L80.75 67.38L114.25 67.38Q119.75 67.38 123.63 71.31Q127.50 75.25 127.50 80.75L127.50 80.75Q127.50 86.25 123.63 90.19Q119.75 94.13 114.25 94.13L114.25 94.13Z"/></svg>