<svg xmlns="http://www.w3.org/2000/svg" xmlns:xlink="http://www.w3.org/1999/xlink" width="128" height="128"><path fill="#000000" d="M39.50 49.25L39.50 49.25L63 35.63Q63.50 35.38 64 35.38Q64.50 35.38 64.88 35.63L64.88 35.63L88.50 49.25Q89 49.38 89.25 49.88Q89.50 50.38 89.50 50.75L89.50 50.75L89.50 78Q89.50 78.50 89.25 78.94Q89 79.38 88.50 79.75L88.50 79.75L65 93.25Q64.50 93.50 64 93.50Q63.50 93.50 63.13 93.25L63.13 93.25L39.50 79.75Q39 79.50 38.75 79Q38.50 78.50 38.50 78L38.50 78L38.50 50.75Q38.50 50.38 38.75 49.88Q39 49.38 39.50 49.25L39.50 49.25ZM125.25 61.63L125.25 61.63L97.13 12.63Q96.38 11.25 95 10.38Q93.63 9.50 92.13 9.50L92.13 9.50L35.88 9.50Q34.38 9.50 33.06 10.38Q31.75 11.25 30.88 12.63L30.88 12.63L2.75 61.50Q2 62.88 2 64.44Q2 66 2.75 67.25L2.75 67.25L30.88 115.88Q31.63 117.25 33 117.94Q34.38 118.63 35.88 118.63L35.88 118.63L92.25 118.63Q93.75 118.63 95.06 117.94Q96.38 117.25 97.25 116L97.25 116L125.25 67.38Q126 65.88 126 64.38Q126 62.88 125.25 61.63L125.25 61.63ZM102 85.13L101.88 85.13Q101.88 85.63 101.63 86.13Q101.38 86.63 100.75 86.75L100.75 86.75L65 107.50Q64.50 107.75 64 107.75Q63.50 107.75 63 107.50L63 107.50L27.13 86.88Q26.63 86.63 26.31 86.19Q26 85.75 26 85.25L26 85.25L26 43.75Q26 43.13 26.31 42.69Q26.63 42.25 27.13 42L27.13 42L63 21.25Q63.50 21 64 21Q64.50 21 65 21.25L65 21.25L100.88 42Q101.38 42.25 101.69 42.69Q102 43.13 102 43.75L102 43.75L102 85.13Z"/></svg>