<svg xmlns="http://www.w3.org/2000/svg" xmlns:xlink="http://www.w3.org/1999/xlink" width="128" height="128"><path fill="#ffffff" d="M13 55.25L13 55.25L19.88 51.25Q20 51.13 20.19 51.13Q20.38 51.13 20.50 51.25L20.50 51.25L27.38 55.25Q27.50 55.25 27.63 55.38Q27.75 55.50 27.75 55.75L27.75 55.75L27.75 63.75Q27.75 63.88 27.63 64Q27.50 64.13 27.38 64.25L27.38 64.25L20.50 68.25Q20.38 68.25 20.19 68.25Q20 68.25 19.88 68.25L19.88 68.25L13 64.25Q12.88 64.13 12.81 64Q12.75 63.88 12.75 63.75L12.75 63.75L12.75 55.75Q12.75 55.50 12.81 55.38Q12.88 55.25 13 55.25L13 55.25ZM38.13 58.88L38.13 58.88L29.88 44.63Q29.63 44.25 29.25 44Q28.88 43.75 28.50 43.75L28.50 43.75L11.88 43.75Q11.50 43.75 11.06 44Q10.63 44.25 10.38 44.63L10.38 44.63L2.25 58.75Q2 59.13 2 59.63Q2 60.13 2.25 60.50L2.25 60.50L10.38 74.75Q10.63 75.13 11.06 75.31Q11.50 75.50 11.88 75.50L11.88 75.50L28.38 75.50Q28.88 75.50 29.25 75.31Q29.63 75.13 29.75 74.75L29.75 74.75L38 60.50Q38.25 60.13 38.31 59.69Q38.38 59.25 38.13 58.88ZM31.25 53.75L31.25 65.75Q31.25 66 31.13 66.13Q31 66.25 30.88 66.25L30.88 66.25L20.38 72.38Q20.25 72.50 20.13 72.50Q20 72.50 19.75 72.38L19.75 72.38L9.38 66.25Q9.25 66.25 9.13 66.13Q9 66 9 65.75L9 65.75L9 53.75Q9 53.50 9.06 53.38Q9.13 53.25 9.25 53.25L9.25 53.25L19.75 47.13Q20 47 20.13 47Q20.25 47 20.38 47.13L20.38 47.13L30.88 53.25Q31 53.25 31.13 53.38Q31.25 53.50 31.25 53.75L31.25 53.75ZM47.50 49L47.50 49L60.25 49L60.25 51.38L50.25 51.38L50.25 58.38L58.75 58.38L58.75 60.75L50.25 60.75L50.25 68.88L60.63 68.88L60.63 71.25L47.50 71.25L47.50 49ZM62 68.38L62 68.38L63.63 66.63Q64.75 67.88 66.44 68.56Q68.13 69.25 69.75 69.25L69.75 69.25Q72 69.25 73.19 68.25Q74.38 67.25 74.38 65.75L74.38 65.75Q74.38 64 73.31 63.25Q72.25 62.50 70.75 61.75L70.75 61.75L67.50 60.38Q65.88 59.75 64.44 58.44Q63 57.13 63 54.75L63 54.75Q63 52.13 64.94 50.44Q66.88 48.75 70 48.75L70 48.75Q72 48.75 73.69 49.50Q75.38 50.25 76.63 51.50L76.63 51.50L75.13 53.25Q74 52.38 72.75 51.81Q71.50 51.25 70 51.25L70 51.25Q68.13 51.25 67 52.19Q65.88 53.13 65.88 54.63L65.88 54.63Q65.88 56.13 67.06 56.94Q68.25 57.75 69.63 58.25L69.63 58.25L72.75 59.75Q74.75 60.50 76.06 61.81Q77.38 63.13 77.38 65.63L77.38 65.63Q77.38 68.25 75.38 70.06Q73.38 71.88 69.75 71.88L69.75 71.88Q67.38 71.75 65.38 70.81Q63.38 69.88 62 68.38L62 68.38ZM79.88 71.25L79.88 49L82.75 49L82.75 68.75L92.38 68.75L92.38 71.25L79.88 71.25ZM93.88 49.63L93.88 49.63Q93.88 48.75 94.44 48.25Q95 47.75 95.75 47.75L95.75 47.75Q96.63 47.75 97.19 48.25Q97.75 48.75 97.75 49.63L97.75 49.63Q97.75 50.38 97.19 50.88Q96.63 51.38 95.75 51.38L95.75 51.38Q95 51.38 94.44 50.88Q93.88 50.38 93.88 49.63ZM94.38 71.25L94.38 54.75L97.25 54.75L97.25 71.25L94.38 71.25ZM101 54.75L101 54.75L103.25 54.75L103.50 57.25L103.63 57.25Q104.75 56 106.13 55.19Q107.50 54.38 109.13 54.38L109.13 54.38Q111.75 54.38 112.94 56Q114.13 57.63 114.13 60.75L114.13 60.75L114.13 71.25L111.25 71.25L111.25 61.25Q111.25 58.88 110.50 57.81Q109.75 56.75 108.25 56.75L108.25 56.75Q106.88 56.75 105.94 57.44Q105 58.13 103.75 59.25L103.75 59.25L103.75 71.25L101 71.25L101 54.75ZM118.25 66.13L118.25 66.13L118.25 57.13L115.75 57.13L115.75 55L118.38 54.75L118.75 49.50L121 49.50L121 54.75L125.38 54.75L125.38 57.13L121 57.13L121 66.25Q121 67.75 121.56 68.56Q122.13 69.38 123.50 69.38L123.50 69.38Q124 69.38 124.44 69.31Q124.88 69.25 125.38 69L125.38 69L126 71Q125.38 71.25 124.56 71.50Q123.75 71.75 122.88 71.75L122.88 71.75Q120.25 71.63 119.25 70.13Q118.25 68.63 118.25 66.13L118.25 66.13Z"/></svg>