<svg xmlns="http://www.w3.org/2000/svg" xmlns:xlink="http://www.w3.org/1999/xlink" width="128" height="128"><path fill="#ffffff" d="M74 49.75L74 49.75Q73.88 50 73.75 50.31Q73.63 50.63 73.50 51L73.50 51Q73.38 51.13 73.38 51.25Q73.38 51.38 73.25 51.50L73.25 51.50Q73.25 51.63 73.19 51.75Q73.13 51.88 73 52L73 52Q73 52.13 72.94 52.31Q72.88 52.50 72.88 52.63L72.88 52.63Q72.75 52.75 72.69 52.88Q72.63 53 72.63 53.13L72.63 53.13Q72.50 53.25 72.50 53.38Q72.50 53.50 72.38 53.63L72.38 53.63Q72.38 53.75 72.31 53.94Q72.25 54.13 72.13 54.25L72.13 54.25Q72.13 54.50 72 54.75Q71.88 55 71.75 55.25L71.75 55.25Q71.63 55.38 71.63 55.56Q71.63 55.75 71.50 55.88L71.50 55.88Q71.50 56 71.44 56.13Q71.38 56.25 71.25 56.38L71.25 56.38Q71.25 56.50 71.19 56.63Q71.13 56.75 71.13 56.88L71.13 56.88Q71 57 70.94 57.19Q70.88 57.38 70.88 57.50L70.88 57.50Q70.88 57.63 70.81 57.75Q70.75 57.88 70.63 58L70.63 58Q70.63 58.13 70.56 58.25Q70.50 58.38 70.38 58.50L70.38 58.50Q70.38 58.75 70.31 58.88Q70.25 59 70.25 59.13L70.25 59.13Q70.13 59.25 70.06 59.38Q70 59.50 70 59.63L70 59.63Q70 59.75 69.94 59.88Q69.88 60 69.75 60.13L69.75 60.13Q69.75 60.38 69.69 60.50Q69.63 60.63 69.63 60.75L69.63 60.75Q69.50 60.88 69.44 61Q69.38 61.13 69.38 61.25L69.38 61.25Q69.25 61.38 69.19 61.50Q69.13 61.63 69.13 61.75L69.13 61.75Q69.13 62 69.06 62.13Q69 62.25 68.88 62.38L68.88 62.38Q68.88 62.50 68.81 62.63Q68.75 62.75 68.75 62.88L68.75 62.88Q68.63 63 68.56 63.13Q68.50 63.25 68.50 63.50L68.50 63.50Q68.38 63.63 68.38 63.75Q68.38 63.88 68.25 64L68.25 64Q68.25 64.13 68.19 64.25Q68.13 64.38 68 64.50L68 64.50Q68 64.63 67.94 64.75Q67.88 64.88 67.88 65.13L67.88 65.13Q67.75 65.25 67.69 65.38Q67.63 65.50 67.63 65.63L67.63 65.63Q67.50 65.75 67.50 65.88Q67.50 66 67.38 66.13L67.38 66.13Q67.38 66.25 67.31 66.44Q67.25 66.63 67.13 66.75L67.13 66.75Q67.13 66.88 67.06 67Q67 67.13 67 67.25L67 67.25Q66.88 67.38 66.81 67.50Q66.75 67.63 66.75 67.75L66.75 67.75Q66.75 67.88 66.69 68.06Q66.63 68.25 66.50 68.38L66.50 68.38Q66.38 68.75 66.19 69.25Q66 69.75 66.25 70.13L66.25 70.13Q66.38 70.50 66.63 70.75Q66.88 71 67.13 71.13L67.13 71.13L67.13 71.13Q67.38 71.13 67.50 71.19Q67.63 71.25 67.75 71.25L67.75 71.25Q68 71.38 68.19 71.31Q68.38 71.25 68.63 71.13L68.63 71.13Q69.13 71 69.44 70.69Q69.75 70.38 70 70L70 70Q70.38 69.38 70.69 68.69Q71 68 71.25 67.38L71.25 67.38Q71.25 67.25 71.31 67.06Q71.38 66.88 71.50 66.75L71.50 66.75L71.50 66.75Q71.50 66.63 71.56 66.50Q71.63 66.38 71.63 66.25L71.63 66.25Q71.75 66.13 71.81 66Q71.88 65.88 71.88 65.75L71.88 65.75Q71.88 65.50 71.94 65.38Q72 65.25 72.13 65.13L72.13 65.13Q72.13 65 72.19 64.88Q72.25 64.75 72.38 64.63L72.38 64.63L72.25 64.50Q72.63 65 73.06 65.56Q73.50 66.13 73.75 66.75L73.75 66.75Q73.88 66.88 73.94 66.94Q74 67 74 67.13L74 67.13Q74.13 67.25 74.13 67.31Q74.13 67.38 74.25 67.50L74.25 67.50Q74.25 67.50 74.31 67.56Q74.38 67.63 74.50 67.75L74.50 67.75L76.38 70.63Q76.50 70.75 76.63 70.88Q76.75 71 77 71.13L77 71.13Q77.25 71.25 77.56 71.25Q77.88 71.25 78.13 71.13L78.13 71.13Q78.63 71 78.94 70.69Q79.25 70.38 79.50 69.88L79.50 69.88Q79.50 69.75 79.56 69.50Q79.63 69.25 79.63 69L79.63 69Q79.50 68.63 79.38 68.38Q79.25 68.13 79 67.75L79 67.75Q79 67.75 78.94 67.63Q78.88 67.50 78.88 67.50L78.88 67.50Q78.75 67.38 78.69 67.19Q78.63 67 78.50 66.88L78.50 66.88Q78.25 66.63 78.06 66.31Q77.88 66 77.75 65.75L77.75 65.75Q77.63 65.50 77.50 65.31Q77.38 65.13 77.25 64.88L77.25 64.88Q77.13 64.75 77.06 64.69Q77 64.63 77 64.50L77 64.50L76.63 64Q77.13 63.63 77.69 63.19Q78.25 62.75 78.75 62.38L78.75 62.38Q78.88 62.25 79 62.19Q79.13 62.13 79.25 62L79.25 62Q79.50 61.75 79.75 61.56Q80 61.38 80.13 61.13L80.13 61.13L80.13 61.13Q80.38 60.88 80.50 60.56Q80.63 60.25 80.63 59.88L80.63 59.88Q80.63 59.63 80.56 59.44Q80.50 59.25 80.50 59.13L80.50 59.13Q80.38 58.88 80.13 58.63Q79.88 58.38 79.63 58.25L79.63 58.25Q79.25 58.25 78.81 58.25Q78.38 58.25 78 58.38L78 58.38Q78 58.50 77.88 58.56Q77.75 58.63 77.63 58.63L77.63 58.63Q76.63 59.38 75.56 60.13Q74.50 60.88 73.50 61.75L73.50 61.75L73.50 61.63Q73.63 61.38 73.69 61.19Q73.75 61 73.88 60.75L73.88 60.75Q73.88 60.63 73.94 60.50Q74 60.38 74 60.25L74 60.25Q74.13 60.13 74.19 60Q74.25 59.88 74.25 59.75L74.25 59.75L74.25 59.63Q74.38 59.50 74.44 59.38Q74.50 59.25 74.50 59.13L74.50 59.13Q74.50 59 74.56 58.88Q74.63 58.75 74.75 58.63L74.75 58.63Q74.75 58.50 74.81 58.38Q74.88 58.25 74.88 58.13L74.88 58.13Q75 58 75.06 57.81Q75.13 57.63 75.13 57.50L75.13 57.50L75.13 57.50Q75.25 57.38 75.31 57.25Q75.38 57.13 75.38 57L75.38 57Q75.38 56.88 75.44 56.75Q75.50 56.63 75.63 56.50L75.63 56.50L75.63 56.38Q75.63 56.25 75.69 56.13Q75.75 56 75.75 55.88L75.75 55.88L75.75 55.88Q75.88 55.75 75.94 55.63Q76 55.50 76 55.38L76 55.38Q76 55.25 76.06 55.13Q76.13 55 76.25 54.88L76.25 54.88Q76.25 54.75 76.31 54.56Q76.38 54.38 76.50 54.25L76.50 54.25Q76.50 54.13 76.56 54Q76.63 53.88 76.63 53.75L76.63 53.75Q76.75 53.63 76.81 53.50Q76.88 53.38 76.88 53.25L76.88 53.25L76.88 53.13Q77 53 77 52.88Q77 52.75 77.13 52.63L77.13 52.63Q77.13 52.50 77.19 52.38Q77.25 52.25 77.25 52.13L77.25 52.13Q77.38 52 77.44 51.88Q77.50 51.75 77.50 51.63L77.50 51.63L77.50 51.50Q77.63 51.25 77.69 51.06Q77.75 50.88 77.88 50.75L77.88 50.75Q78 50.38 78 50Q78 49.63 77.88 49.25L77.88 49.25Q77.63 49 77.38 48.75Q77.13 48.50 76.75 48.25L76.75 48.25Q76.50 48.25 76.25 48.25Q76 48.25 75.75 48.25L75.75 48.25Q75.13 48.50 74.69 48.88Q74.25 49.25 74 49.75L74 49.75ZM6.63 51L6.63 51Q6.38 51.13 6.25 51.13Q6.13 51.13 6 51.25L6 51.25L5.75 51.25Q5.50 51.50 5.19 51.63Q4.88 51.75 4.63 51.88L4.63 51.88L4.63 51.88Q3.75 52.50 3.06 53.13Q2.38 53.75 1.75 54.50L1.75 54.50Q1.63 54.75 1.56 54.88Q1.50 55 1.38 55.13L1.38 55.13Q1.25 55.38 1.13 55.56Q1 55.75 0.88 55.88L0.88 55.88Q0.88 56.13 0.75 56.31Q0.63 56.50 0.63 56.75L0.63 56.75Q0.38 57.25 0.25 57.88Q0.13 58.50 0 59.13L0 59.13L0 59.13Q0 59.25 0 59.38Q0 59.50 0 59.75L0 59.75Q0 60.38 0.13 61Q0.25 61.63 0.38 62.25L0.38 62.25Q0.50 62.38 0.56 62.56Q0.63 62.75 0.63 63L0.63 63Q1.13 63.63 1.56 64.25Q2 64.88 2.63 65.25L2.63 65.25L2.75 65.38Q2.88 65.38 3 65.44Q3.13 65.50 3.25 65.63L3.25 65.63L3.25 65.63Q3.38 65.63 3.50 65.69Q3.63 65.75 3.75 65.88L3.75 65.88Q4.38 66 5.06 66Q5.75 66 6.38 65.88L6.38 65.88Q7 65.50 7.50 64.88Q8 64.25 7.88 63.50L7.88 63.50Q7.75 63.38 7.75 63.31Q7.75 63.25 7.63 63.13L7.63 63.13L7.63 62.88Q7.38 62.63 7.19 62.50Q7 62.38 6.75 62.25L6.75 62.25Q6.50 62.13 6.31 62.06Q6.13 62 6 62L6 62L6 61.88Q5.63 61.75 5.25 61.44Q4.88 61.13 4.75 60.75L4.75 60.75Q4.50 60.50 4.50 60.13Q4.50 59.75 4.38 59.50L4.38 59.50Q4.50 59.25 4.50 59Q4.50 58.75 4.50 58.50L4.50 58.50Q4.75 57.50 5.38 56.69Q6 55.88 6.88 55.38L6.88 55.38L6.88 55.38Q7 55.38 7.13 55.31Q7.25 55.25 7.38 55.13L7.38 55.13Q7.88 55 8.38 54.94Q8.88 54.88 9.38 54.88L9.38 54.88L9.38 54.88Q9.88 55 10.31 55.31Q10.75 55.63 11 56.13L11 56.13Q11.13 56.50 11.13 57Q11.13 57.50 11 57.88L11 57.88Q10.75 58.50 10.56 59.06Q10.38 59.63 10.13 60.13L10.13 60.13Q10.13 60.38 10.06 60.50Q10 60.63 9.88 60.75L9.88 60.75Q9.88 60.88 9.81 61Q9.75 61.13 9.75 61.25L9.75 61.25Q9.63 61.38 9.56 61.50Q9.50 61.63 9.50 61.75L9.50 61.75Q9.50 62 9.44 62.13Q9.38 62.25 9.25 62.38L9.25 62.38Q9.25 62.50 9.19 62.63Q9.13 62.75 9 62.88L9 62.88Q9 63 8.94 63.13Q8.88 63.25 8.88 63.50L8.88 63.50Q8.75 63.63 8.69 63.75Q8.63 63.88 8.63 64L8.63 64Q8.63 64.13 8.56 64.25Q8.50 64.38 8.38 64.50L8.38 64.50Q8.25 65 8.06 65.44Q7.88 65.88 7.63 66.38L7.63 66.38Q7.63 66.50 7.56 66.63Q7.50 66.75 7.38 66.88L7.38 66.88Q7.38 67 7.31 67.19Q7.25 67.38 7.25 67.50L7.25 67.50Q7.13 67.63 7.06 67.75Q7 67.88 7 68L7 68Q7 68.13 6.94 68.25Q6.88 68.38 6.75 68.50L6.75 68.50Q6.75 68.63 6.69 68.81Q6.63 69 6.63 69.13L6.63 69.13Q6.50 69.25 6.44 69.38Q6.38 69.50 6.38 69.63L6.38 69.63Q6.25 69.75 6.25 69.88Q6.25 70 6.13 70.13L6.13 70.13Q6.13 70.25 6.06 70.44Q6 70.63 5.88 70.75L5.88 70.75Q5.88 70.88 5.81 71Q5.75 71.13 5.75 71.25L5.75 71.25Q5.50 71.75 5.38 72.31Q5.25 72.88 5.38 73.38L5.38 73.38Q5.38 73.50 5.44 73.63Q5.50 73.75 5.63 73.88L5.63 73.88L5.63 73.88Q5.75 74 6 74.19Q6.25 74.38 6.50 74.50L6.50 74.50Q6.63 74.63 6.75 74.63Q6.88 74.63 7 74.63L7 74.63Q7.38 74.75 7.69 74.63Q8 74.50 8.38 74.38L8.38 74.38L8.50 74.25Q9 74 9.31 73.63Q9.63 73.25 9.88 72.88L9.88 72.88L10 72.38Q10.13 72.25 10.19 72.06Q10.25 71.88 10.25 71.75L10.25 71.75Q10.38 71.63 10.44 71.50Q10.50 71.38 10.50 71.25L10.50 71.25Q10.50 71.13 10.56 71Q10.63 70.88 10.75 70.75L10.75 70.75L10.75 70.63Q10.75 70.50 10.81 70.38Q10.88 70.25 11 70.13L11 70.13Q11 70 11.06 69.88Q11.13 69.75 11.13 69.63L11.13 69.63Q11.25 69.50 11.31 69.38Q11.38 69.25 11.38 69.13L11.38 69.13Q11.38 68.88 11.44 68.75Q11.50 68.63 11.63 68.50L11.63 68.50Q11.75 68.25 11.88 67.88Q12 67.50 12.13 67.25L12.13 67.25Q12.25 67.13 12.25 66.94Q12.25 66.75 12.38 66.63L12.38 66.63Q12.38 66.50 12.44 66.38Q12.50 66.25 12.63 66.13L12.63 66.13Q12.63 66 12.69 65.88Q12.75 65.75 12.75 65.63L12.75 65.63Q12.88 65.50 12.94 65.31Q13 65.13 13 65L13 65Q13 64.88 13.06 64.75Q13.13 64.63 13.25 64.50L13.25 64.50Q13.25 64.38 13.31 64.25Q13.38 64.13 13.50 64L13.50 64Q13.50 63.88 13.50 63.75Q13.50 63.63 13.50 63.50L13.50 63.50L13.50 63.38Q13.63 63.75 13.75 64.13Q13.88 64.50 14 64.88L14 64.88L14 64.88Q14.13 65.13 14.19 65.31Q14.25 65.50 14.38 65.75L14.38 65.75Q14.50 66 14.56 66.25Q14.63 66.50 14.75 66.75L14.75 66.75L14.75 67L14.75 67Q14.88 67.13 15 67.38Q15.13 67.63 15.13 67.88L15.13 67.88Q15.25 68.13 15.38 68.44Q15.50 68.75 15.63 69L15.63 69Q15.75 69.38 15.81 69.69Q15.88 70 16 70.25L16 70.25L16 70.25Q16.13 70.38 16.19 70.63Q16.25 70.88 16.38 71.13L16.38 71.13Q16.50 71.38 16.56 71.63Q16.63 71.88 16.75 72.13L16.75 72.13L16.75 72.38Q16.88 72.63 17 72.94Q17.13 73.25 17.25 73.50L17.25 73.50Q17.38 74 17.56 74.44Q17.75 74.88 17.88 75.38L17.88 75.38Q17.88 75.38 17.94 75.44Q18 75.50 18 75.63L18 75.63L17.88 75.50Q18 75.63 18.06 75.81Q18.13 76 18.25 76.25L18.25 76.25Q18.38 76.38 18.44 76.56Q18.50 76.75 18.63 77L18.63 77Q18.88 77.25 19.06 77.63Q19.25 78 19.63 78.13L19.63 78.13Q19.88 78.38 20.19 78.44Q20.50 78.50 20.88 78.63L20.88 78.63Q21.13 78.63 21.44 78.69Q21.75 78.75 22 78.75L22 78.75L119.38 78.75Q119.75 78.75 120.06 78.63Q120.38 78.50 120.75 78.50L120.75 78.50Q121.13 78.25 121.38 77.94Q121.63 77.63 121.88 77.38L121.88 77.38L121.88 77.25Q121.88 77.25 121.94 77.13Q122 77 122 77L122 77Q122 76.63 122 76.31Q122 76 122 75.75L122 75.75Q121.88 75.50 121.75 75.31Q121.63 75.13 121.50 75L121.50 75Q121.38 75 121.19 74.88Q121 74.75 120.88 74.75L120.88 74.75Q120.63 74.63 120.44 74.56Q120.25 74.50 120 74.50L120 74.50L23.63 74.50Q23.13 74.50 22.69 74.31Q22.25 74.13 22 73.75L22 73.75Q22 73.63 21.94 73.50Q21.88 73.38 21.75 73.38L21.75 73.38Q21.75 73.13 21.63 72.88Q21.50 72.63 21.38 72.38L21.38 72.38L21.38 72.13Q21.25 71.88 21.19 71.69Q21.13 71.50 21 71.25L21 71.25Q20.88 71 20.81 70.69Q20.75 70.38 20.63 70.13L20.63 70.13Q20.50 69.75 20.38 69.44Q20.25 69.13 20.13 68.88L20.13 68.88Q20 68.63 19.94 68.31Q19.88 68 19.75 67.63L19.75 67.63Q19.63 67.38 19.50 67.06Q19.38 66.75 19.25 66.50L19.25 66.50Q19.13 66.25 19.06 65.94Q19 65.63 18.88 65.25L18.88 65.25Q18.75 65 18.63 64.69Q18.50 64.38 18.50 64.13L18.50 64.13L18.25 63.63Q18.75 63.13 19.25 62.69Q19.75 62.25 20.13 61.63L20.13 61.63Q20.50 61.25 20.94 60.81Q21.38 60.38 21.75 60L21.75 60Q22.38 59.38 22.94 58.81Q23.50 58.25 24 57.63L24 57.63Q24.38 57.13 24.81 56.75Q25.25 56.38 25.63 56L25.63 56Q26 55.63 26.31 55.25Q26.63 54.88 26.88 54.50L26.88 54.50L26.88 54.50Q27 54.38 27.06 54.31Q27.13 54.25 27.13 54.25L27.13 54.25Q27.25 54 27.38 53.75Q27.50 53.50 27.63 53.25L27.63 53.25Q27.63 53 27.63 52.63Q27.63 52.25 27.50 52L27.50 52Q27.38 51.63 27.06 51.38Q26.75 51.13 26.38 50.88L26.38 50.88Q25.88 50.88 25.38 50.88Q24.88 50.88 24.50 51.13L24.50 51.13Q24.38 51.25 24.19 51.38Q24 51.50 23.88 51.63L23.88 51.63Q22.75 52.50 21.81 53.56Q20.88 54.63 19.88 55.63L19.88 55.63Q19.38 56.38 18.69 57Q18 57.63 17.50 58.25L17.50 58.25Q17 58.75 16.50 59.25Q16 59.75 15.50 60.25L15.50 60.25Q15.25 60.63 14.94 60.88Q14.63 61.13 14.38 61.50L14.38 61.50Q14.50 61.25 14.63 61Q14.75 60.75 14.88 60.50L14.88 60.50L14.88 60.38Q15 60.25 15.06 60Q15.13 59.75 15.25 59.63L15.25 59.63Q15.38 59 15.56 58.38Q15.75 57.75 15.75 57.13L15.75 57.13Q15.75 56.50 15.75 55.94Q15.75 55.38 15.63 54.88L15.63 54.88Q15.50 54.63 15.44 54.38Q15.38 54.13 15.25 53.88L15.25 53.88Q14.88 53.25 14.31 52.69Q13.75 52.13 13.25 51.63L13.25 51.63Q12.75 51.38 12.19 51.19Q11.63 51 11.13 50.75L11.13 50.75Q11 50.75 10.81 50.75Q10.63 50.75 10.50 50.63L10.50 50.63Q9.50 50.63 8.50 50.69Q7.50 50.75 6.63 51L6.63 51ZM117.13 54L117.13 54Q116.88 54.25 116.63 54.50Q116.38 54.75 116.13 55L116.13 55Q116.13 55.13 116 55.31Q115.88 55.50 115.88 55.63L115.88 55.63Q115.75 55.75 115.69 55.88Q115.63 56 115.63 56.13L115.63 56.13Q115.63 56.25 115.56 56.44Q115.50 56.63 115.38 56.75L115.38 56.75Q115.38 56.88 115.31 57Q115.25 57.13 115.13 57.25L115.13 57.25Q115 57.50 114.94 57.81Q114.88 58.13 114.63 58.25L114.63 58.25Q114.13 58.25 113.63 58.25Q113.13 58.25 112.75 58.38L112.75 58.38Q112.25 58.63 111.88 58.94Q111.50 59.25 111.38 59.63L111.38 59.63Q111.38 59.75 111.31 59.94Q111.25 60.13 111.25 60.25L111.25 60.25Q111.25 60.50 111.31 60.69Q111.38 60.88 111.38 61.13L111.38 61.13Q111.63 61.63 112.19 61.81Q112.75 62 113.38 62L113.38 62Q113.13 62.50 112.94 63Q112.75 63.50 112.50 64.13L112.50 64.13Q112.38 64.25 112.31 64.38Q112.25 64.50 112.25 64.63L112.25 64.63Q112.25 64.75 112.19 64.88Q112.13 65 112 65.13L112 65.13Q112 65.38 111.94 65.50Q111.88 65.63 111.88 65.75L111.88 65.75Q111.75 65.88 111.69 66Q111.63 66.13 111.63 66.25L111.63 66.25Q111.50 66.38 111.44 66.50Q111.38 66.63 111.38 66.75L111.38 66.75Q111.25 67.13 111.13 67.50Q111 67.88 110.88 68.25L110.88 68.25Q110.75 68.63 110.81 68.94Q110.88 69.25 110.88 69.63L110.88 69.63Q111.13 70 111.50 70.31Q111.88 70.63 112.25 70.88L112.25 70.88Q113 71 113.69 71Q114.38 71 115.13 71L115.13 71Q115.75 71 116.50 71Q117.25 71 117.88 70.88L117.88 70.88Q118.13 70.75 118.38 70.56Q118.63 70.38 118.75 70.25L118.75 70.25Q118.88 70.13 119 69.94Q119.13 69.75 119.13 69.63L119.13 69.63Q119.25 69.38 119.25 69Q119.25 68.63 119.25 68.38L119.25 68.38Q119.13 68.13 119.06 68Q119 67.88 118.88 67.75L118.88 67.75Q118.75 67.63 118.56 67.56Q118.38 67.50 118.25 67.38L118.25 67.38Q117.50 67.25 116.81 67.25Q116.13 67.25 115.38 67.25L115.38 67.25Q115.38 67.25 115.44 67.19Q115.50 67.13 115.50 67.13L115.50 67.13L115.50 67.13Q115.63 67 115.69 66.81Q115.75 66.63 115.75 66.50L115.75 66.50Q115.75 66.38 115.81 66.25Q115.88 66.13 116 66L116 66L116 66Q116 65.88 116.06 65.75Q116.13 65.63 116.25 65.50L116.25 65.50Q116.25 65.38 116.31 65.25Q116.38 65.13 116.38 64.88L116.38 64.88Q116.50 64.75 116.56 64.63Q116.63 64.50 116.63 64.38L116.63 64.38Q116.63 64.25 116.69 64.13Q116.75 64 116.88 63.88L116.88 63.88Q116.88 63.75 116.94 63.63Q117 63.50 117 63.25L117 63.25Q117.13 63.13 117.19 63Q117.25 62.88 117.25 62.75L117.25 62.75L117.25 62.75Q117.38 62.63 117.44 62.50Q117.50 62.38 117.50 62.25L117.50 62.25L117.50 62Q118.13 62 118.75 62Q119.38 62 120 61.88L120 61.88Q120.38 61.63 120.81 61.38Q121.25 61.13 121.38 60.63L121.38 60.63Q121.50 60.25 121.56 59.88Q121.63 59.50 121.50 59.13L121.50 59.13Q121.38 58.88 121.19 58.69Q121 58.50 120.75 58.38L120.75 58.38Q120.63 58.38 120.56 58.31Q120.50 58.25 120.38 58.25L120.38 58.25Q120 58.25 119.69 58.25Q119.38 58.25 119 58.25L119 58.25L119.25 57.88L119.25 57.75Q119.38 57.50 119.44 57.25Q119.50 57 119.63 56.75L119.63 56.75L119.75 56.75Q119.75 56.50 119.81 56.38Q119.88 56.25 119.88 56.13L119.88 56.13Q120 55.88 120 55.63Q120 55.38 120 55.13L120 55.13Q120 55 119.94 54.94Q119.88 54.88 119.88 54.75L119.88 54.75L119.75 54.50Q119.63 54.25 119.38 54.13Q119.13 54 118.88 53.88L118.88 53.88Q118.50 53.75 118.06 53.75Q117.63 53.75 117.13 54L117.13 54ZM33.25 58L33.25 58Q32.88 58.13 32.56 58.25Q32.25 58.38 31.88 58.50L31.88 58.50Q31.63 58.63 31.44 58.75Q31.25 58.88 31 59L31 59Q30.88 59 30.75 59.13Q30.63 59.25 30.50 59.25L30.50 59.25Q30.38 59 30.19 58.75Q30 58.50 29.75 58.38L29.75 58.38Q29.25 58.25 28.81 58.25Q28.38 58.25 28 58.25L28 58.25Q27.63 58.50 27.31 58.75Q27 59 26.75 59.25L26.75 59.25Q26.75 59.38 26.69 59.50Q26.63 59.63 26.50 59.75L26.50 59.75Q26.13 61 25.63 62.19Q25.13 63.38 24.63 64.63L24.63 64.63Q24.50 64.75 24.44 64.88Q24.38 65 24.38 65.13L24.38 65.13Q24.38 65.38 24.31 65.50Q24.25 65.63 24.13 65.75L24.13 65.75Q24.13 65.88 24.06 66Q24 66.13 24 66.25L24 66.25Q23.88 66.38 23.81 66.50Q23.75 66.63 23.75 66.75L23.75 66.75Q23.63 67 23.63 67.13Q23.63 67.25 23.50 67.38L23.50 67.38Q23.50 67.50 23.44 67.63Q23.38 67.75 23.25 67.88L23.25 67.88Q23.25 68 23.19 68.13Q23.13 68.25 23.13 68.38L23.13 68.38L23.13 68.38Q22.88 68.75 22.81 69.06Q22.75 69.38 22.75 69.75L22.75 69.75Q22.75 69.88 22.75 70Q22.75 70.13 22.88 70.25L22.88 70.25Q22.88 70.25 22.88 70.38Q22.88 70.50 23 70.50L23 70.50L23 70.50Q23.13 70.75 23.38 70.88Q23.63 71 23.88 71.13L23.88 71.13Q24 71.25 24.25 71.31Q24.50 71.38 24.63 71.25L24.63 71.25Q24.88 71.25 25 71.25Q25.13 71.25 25.25 71.13L25.25 71.13Q25.63 71 25.94 70.75Q26.25 70.50 26.63 70.13L26.63 70.13Q26.63 70 26.75 69.81Q26.88 69.63 27 69.50L27 69.50Q27.63 68 28.19 66.56Q28.75 65.13 29.38 63.63L29.38 63.63Q29.50 63.50 29.56 63.31Q29.63 63.13 29.75 63L29.75 63Q30.13 62.50 30.63 62.06Q31.13 61.63 31.75 61.75L31.75 61.75Q31.88 61.75 32 61.75Q32.13 61.75 32.25 61.75L32.25 61.75L32.25 61.75Q32.38 61.88 32.50 62Q32.63 62.13 32.88 62.25L32.88 62.25L32.88 62.25Q32.88 62.25 32.88 62.31Q32.88 62.38 32.88 62.50L32.88 62.50Q32.88 62.75 32.75 63.06Q32.63 63.38 32.50 63.63L32.50 63.63Q32.50 63.75 32.44 63.94Q32.38 64.13 32.25 64.25L32.25 64.25Q32.25 64.38 32.19 64.50Q32.13 64.63 32.13 64.75L32.13 64.75Q32 64.88 31.94 65Q31.88 65.13 31.88 65.25L31.88 65.25Q31.88 65.38 31.81 65.56Q31.75 65.75 31.63 65.88L31.63 65.88Q31.63 66 31.56 66.13Q31.50 66.25 31.38 66.38L31.38 66.38Q31.38 66.63 31.25 66.94Q31.13 67.25 31 67.50L31 67.50Q31 67.63 30.94 67.75Q30.88 67.88 30.88 68L30.88 68L30.75 68.13Q30.75 68.25 30.75 68.44Q30.75 68.63 30.63 68.75L30.63 68.75L30.63 68.75Q30.75 69 30.75 69.13Q30.75 69.25 30.75 69.50L30.75 69.50Q30.88 69.75 31 69.94Q31.13 70.13 31.25 70.38L31.25 70.38Q31.50 70.50 31.81 70.69Q32.13 70.88 32.38 71L32.38 71Q33.63 71 34.94 71Q36.25 71 37.50 71L37.50 71L37.50 71Q37.63 70.88 37.81 70.81Q38 70.75 38.13 70.75L38.13 70.75Q38.50 70.50 38.75 70.31Q39 70.13 39.13 69.88L39.13 69.88Q39.25 69.38 39.31 68.94Q39.38 68.50 39.25 68.13L39.25 68.13L39.25 68.13Q39 67.88 38.81 67.69Q38.63 67.50 38.25 67.38L38.25 67.38Q37.63 67.25 36.88 67.25Q36.13 67.25 35.38 67.25L35.38 67.25Q35.75 66.25 36.19 65.25Q36.63 64.25 37 63.25L37 63.25Q37.13 62.75 37.25 62.31Q37.38 61.88 37.50 61.50L37.50 61.50Q37.50 61.13 37.44 60.75Q37.38 60.38 37.25 60L37.25 60Q37 59.50 36.75 59.19Q36.50 58.88 36.13 58.63L36.13 58.63Q35.75 58.50 35.44 58.31Q35.13 58.13 34.75 58L34.75 58Q34.38 58 34 58Q33.63 58 33.25 58L33.25 58ZM45.75 58.13L45.75 58.13Q45.50 58.25 45.25 58.31Q45 58.38 44.75 58.50L44.75 58.50Q44.50 58.63 44.19 58.75Q43.88 58.88 43.63 59L43.63 59L43.25 59.25Q42.63 59.88 42 60.50Q41.38 61.13 40.88 61.88L40.88 61.88Q40.75 62.13 40.63 62.31Q40.50 62.50 40.50 62.75L40.50 62.75Q40.38 62.88 40.31 63.06Q40.25 63.25 40.25 63.38L40.25 63.38Q39.88 64.38 39.88 65.50Q39.88 66.63 40.13 67.75L40.13 67.75L40.13 67.75Q40.13 67.75 40.19 67.88Q40.25 68 40.25 68.13L40.25 68.13L40.25 68.13Q40.50 68.75 40.88 69.25Q41.25 69.75 41.75 70.13L41.75 70.13Q42.25 70.63 42.94 70.75Q43.63 70.88 44.25 71L44.25 71Q45.25 71 46.19 71Q47.13 71 48 70.88L48 70.88Q48.63 70.75 49.13 70.44Q49.63 70.13 50 69.88L50 69.88Q50.75 69.13 51.31 68.31Q51.88 67.50 52.38 66.63L52.38 66.63Q52.38 66.38 52.50 66.13Q52.63 65.88 52.63 65.63L52.63 65.63Q52.75 65.13 52.81 64.75Q52.88 64.38 52.88 64L52.88 64Q52.88 63.63 52.88 63.31Q52.88 63 52.88 62.63L52.88 62.63Q52.88 62.38 52.75 62Q52.63 61.63 52.50 61.25L52.50 61.25Q52.50 61.13 52.38 60.94Q52.25 60.75 52.25 60.63L52.25 60.63Q52.13 60.50 52 60.31Q51.88 60.13 51.75 60L51.75 60Q51.63 59.75 51.44 59.56Q51.25 59.38 51 59.13L51 59.13Q50.75 59 50.38 58.75Q50 58.50 49.75 58.38L49.75 58.38Q49.38 58.25 49 58.19Q48.63 58.13 48.25 58L48.25 58Q47.63 58 47 58Q46.38 58 45.75 58.13L45.75 58.13ZM57.88 58.63L57.88 58.63Q57.75 58.75 57.56 58.88Q57.38 59 57.25 59.13L57.25 59.13L57.13 59.13Q56.63 59.50 56.06 60.06Q55.50 60.63 55 61.25L55 61.25Q54.88 61.38 54.81 61.50Q54.75 61.63 54.63 61.75L54.63 61.75Q54.63 62 54.50 62.25Q54.38 62.50 54.25 62.63L54.25 62.63Q53.75 64 53.69 65.31Q53.63 66.63 54 68L54 68L54.13 68.13Q54.25 68.38 54.38 68.63Q54.50 68.88 54.63 69.13L54.63 69.13Q54.75 69.25 54.94 69.50Q55.13 69.75 55.38 70L55.38 70L55.38 69.88Q55.50 70.13 55.75 70.25Q56 70.38 56.25 70.63L56.25 70.63L56.25 70.63Q56.50 70.63 56.63 70.69Q56.75 70.75 56.88 70.88L56.88 70.88L56.88 70.88Q57 70.88 57.13 70.88Q57.25 70.88 57.38 71L57.38 71Q58.88 71 60.38 71Q61.88 71 63.50 71L63.50 71Q63.75 71 64.06 70.94Q64.38 70.88 64.63 70.75L64.63 70.75L64.88 70.63L64.88 70.63Q65 70.50 65.13 70.44Q65.25 70.38 65.38 70.25L65.38 70.25Q65.38 70.13 65.50 70Q65.63 69.88 65.75 69.88L65.75 69.88L65.63 69.88Q65.75 69.63 65.81 69.38Q65.88 69.13 65.88 68.88L65.88 68.88Q65.88 68.75 65.88 68.56Q65.88 68.38 65.75 68.25L65.75 68.25Q65.75 68.13 65.75 68.06Q65.75 68 65.75 68L65.75 68Q65.50 67.88 65.38 67.75Q65.25 67.63 65.13 67.50L65.13 67.50Q64.88 67.50 64.63 67.44Q64.38 67.38 64 67.25L64 67.25Q63 67.25 61.94 67.25Q60.88 67.25 59.75 67.25L59.75 67.25Q59.38 67.25 58.88 67.13Q58.38 67 58 66.63L58 66.63Q57.75 66.25 57.63 65.69Q57.50 65.13 57.63 64.63L57.63 64.63Q57.63 64.25 57.75 64Q57.88 63.75 58 63.38L58 63.38Q58.13 63.25 58.19 63.19Q58.25 63.13 58.25 63L58.25 63Q58.50 62.63 58.81 62.31Q59.13 62 59.50 61.88L59.50 61.88Q59.75 61.63 60.06 61.63Q60.38 61.63 60.75 61.63L60.75 61.63Q61 61.63 61.13 61.81Q61.25 62 61.38 62.25L61.38 62.25L61.38 62.25Q61.38 62.38 61.38 62.50Q61.38 62.63 61.38 62.75L61.38 62.75Q61.50 63.13 61.44 63.56Q61.38 64 61.63 64.25L61.63 64.25Q62 64.75 62.56 64.88Q63.13 65 63.75 64.75L63.75 64.75Q63.88 64.75 63.94 64.69Q64 64.63 64.13 64.50L64.13 64.50Q64.25 64.38 64.38 64.31Q64.50 64.25 64.63 64.13L64.63 64.13L64.63 64Q64.63 64 64.69 63.88Q64.75 63.75 64.88 63.75L64.88 63.75Q64.88 63.63 64.94 63.50Q65 63.38 65 63.25L65 63.25Q65.25 62.25 65.13 61.25Q65 60.25 64.38 59.50L64.38 59.50Q64 59.13 63.56 58.81Q63.13 58.50 62.63 58.25L62.63 58.25Q62 58 61.31 58Q60.63 58 60 58L60 58Q59.50 58.13 58.94 58.31Q58.38 58.50 57.88 58.63L57.88 58.63ZM87.25 58L87.25 58L87.25 58.13Q86.50 58.25 85.81 58.50Q85.13 58.75 84.63 59L84.63 59Q84.50 59.13 84.44 59.19Q84.38 59.25 84.25 59.25L84.25 59.25Q83.75 59.63 83.31 60.06Q82.88 60.50 82.50 60.88L82.50 60.88Q82.38 61 82.31 61.13Q82.25 61.25 82.13 61.38L82.13 61.38L82 61.75Q81.75 62 81.63 62.31Q81.50 62.63 81.25 63L81.25 63Q81.25 63.13 81.19 63.31Q81.13 63.50 81.13 63.63L81.13 63.63Q81 63.75 81 63.88Q81 64 81 64.13L81 64.13Q80.75 65.13 80.81 66.13Q80.88 67.13 81.13 68.13L81.13 68.13Q81.25 68.25 81.38 68.50Q81.50 68.75 81.63 69L81.63 69Q81.88 69.38 82.25 69.75Q82.63 70.13 83.13 70.38L83.13 70.38Q83.38 70.63 83.63 70.69Q83.88 70.75 84.13 70.88L84.13 70.88Q84.38 70.88 84.69 70.94Q85 71 85.25 71L85.25 71Q86.13 71 87.06 71Q88 71 89 70.88L89 70.88Q89.13 70.75 89.31 70.69Q89.50 70.63 89.63 70.63L89.63 70.63L90.38 70.25Q91 69.88 91.56 69.25Q92.13 68.63 92.63 67.88L92.63 67.88Q92.75 67.63 92.88 67.31Q93 67 93.13 66.75L93.13 66.75Q93.25 66.63 93.31 66.50Q93.38 66.38 93.38 66.25L93.38 66.25Q93.75 65.13 93.88 63.94Q94 62.75 93.63 61.63L93.63 61.63Q93.50 61.50 93.44 61.31Q93.38 61.13 93.38 61L93.38 61Q93.38 61 93.31 60.88Q93.25 60.75 93.25 60.75L93.25 60.75L93.25 60.75Q92.75 60 92.13 59.38Q91.50 58.75 90.63 58.38L90.63 58.38Q89.88 58.13 89 58.06Q88.13 58 87.25 58L87.25 58ZM98.88 58.13L98.88 58.13Q99.38 58 100 58Q100.63 58 101 58.38L101 58.38Q101.13 58.63 101.31 58.81Q101.50 59 101.63 59.25L101.63 59.25Q101.63 59.50 101.56 59.88Q101.50 60.25 101.38 60.63L101.38 60.63Q101.25 60.88 101.19 61.13Q101.13 61.38 101 61.63L101 61.63Q100.88 61.75 100.88 61.94Q100.88 62.13 100.75 62.25L100.75 62.25Q100.75 62.38 100.69 62.50Q100.63 62.63 100.63 62.75L100.63 62.75L100.50 62.75Q100.50 63 100.38 63.31Q100.25 63.63 100.13 63.88L100.13 63.88Q100 64 100 64.13Q100 64.25 99.88 64.38L99.88 64.38Q99.88 64.50 99.81 64.63Q99.75 64.75 99.63 65L99.63 65Q99.63 65 99.63 65.13Q99.63 65.25 99.50 65.25L99.50 65.25L99.38 65.63Q99.38 65.63 99.38 65.75Q99.38 65.88 99.38 65.88L99.38 65.88Q99.25 66 99.25 66.06Q99.25 66.13 99.25 66.25L99.25 66.25Q99.13 66.50 99.13 66.69Q99.13 66.88 99.25 67.13L99.25 67.13Q99.50 67.25 99.75 67.25Q100 67.25 100.25 67.25L100.25 67.25Q100.63 67.25 100.94 67.19Q101.25 67.13 101.63 66.88L101.63 66.88Q102 66.63 102.31 66.31Q102.63 66 102.75 65.50L102.75 65.50Q102.75 65.38 102.81 65.25Q102.88 65.13 102.88 65L102.88 65Q103 64.88 103.06 64.69Q103.13 64.50 103.13 64.38L103.13 64.38Q103.13 64.25 103.19 64.13Q103.25 64 103.38 63.88L103.38 63.88Q103.38 63.75 103.44 63.63Q103.50 63.50 103.50 63.38L103.50 63.38Q103.63 63.25 103.69 63.06Q103.75 62.88 103.75 62.75L103.75 62.75Q103.88 62.63 103.94 62.50Q104 62.38 104 62.25L104 62.25Q104 62.13 104.06 62Q104.13 61.88 104.25 61.75L104.25 61.75Q104.25 61.63 104.31 61.44Q104.38 61.25 104.38 61.13L104.38 61.13Q104.50 61.13 104.56 60.94Q104.63 60.75 104.63 60.63L104.63 60.63L104.63 60.63Q104.75 60.38 104.88 60.06Q105 59.75 105.13 59.50L105.13 59.50Q105.25 59.50 105.31 59.38Q105.38 59.25 105.38 59.13L105.38 59.13Q105.63 58.88 105.94 58.69Q106.25 58.50 106.63 58.25L106.63 58.25Q107 58.25 107.31 58.25Q107.63 58.25 107.88 58.25L107.88 58.25Q108.13 58.38 108.38 58.56Q108.63 58.75 108.88 59L108.88 59L108.88 59.25Q109 59.25 109 59.38Q109 59.50 109 59.50L109 59.50Q109.13 60.13 108.94 60.63Q108.75 61.13 108.63 61.63L108.63 61.63Q108.50 61.75 108.44 61.88Q108.38 62 108.38 62.13L108.38 62.13Q108.25 62.25 108.25 62.38Q108.25 62.50 108.13 62.63L108.13 62.63Q108.13 62.75 108.06 62.88Q108 63 108 63.13L108 63.13L107.88 63.25Q107.88 63.38 107.81 63.50Q107.75 63.63 107.75 63.75L107.75 63.75Q107.63 63.88 107.56 64Q107.50 64.13 107.50 64.25L107.50 64.25Q107.50 64.38 107.44 64.50Q107.38 64.63 107.25 64.88L107.25 64.88Q107 65.38 106.75 66Q106.50 66.63 106.25 67.25L106.25 67.25Q107.13 67.25 107.94 67.25Q108.75 67.25 109.50 67.50L109.50 67.50Q109.75 67.63 109.88 67.81Q110 68 110.13 68.13L110.13 68.13Q110.13 68.38 110.19 68.50Q110.25 68.63 110.25 68.75L110.25 68.75Q110.13 69 110.13 69.31Q110.13 69.63 110 69.88L110 69.88Q109.88 70.13 109.69 70.31Q109.50 70.50 109.25 70.63L109.25 70.63L109.25 70.63Q109.13 70.63 109 70.69Q108.88 70.75 108.75 70.88L108.75 70.88Q108.25 71 107.69 71Q107.13 71 106.63 71L106.63 71Q105.88 71 105.13 71Q104.38 71 103.75 71L103.75 71Q103.38 70.88 103.13 70.63Q102.88 70.38 102.63 70.13L102.63 70.13L102.63 70Q102.50 70.13 102.31 70.31Q102.13 70.50 102 70.63L102 70.63Q101.63 70.75 101.50 70.81Q101.38 70.88 101.25 70.88L101.25 70.88L101.50 70.88Q101.38 70.88 101.31 70.94Q101.25 71 101.13 71L101.13 71L101.13 71Q100.75 71 100.19 71Q99.63 71 99.13 71L99.13 71Q98.63 71 98.06 71Q97.50 71 97 71L97 71L97.13 71Q97 71 96.94 70.94Q96.88 70.88 96.75 70.88L96.75 70.88L96.75 70.88Q96.38 70.75 96.06 70.56Q95.75 70.38 95.50 70.13L95.50 70.13Q95.25 69.75 95.06 69.44Q94.88 69.13 94.75 68.88L94.75 68.88Q94.63 68.50 94.63 68.06Q94.63 67.63 94.63 67.25L94.63 67.25Q94.75 66.88 94.88 66.50Q95 66.13 95.13 65.75L95.13 65.75Q95.13 65.63 95.19 65.50Q95.25 65.38 95.25 65.13L95.25 65.13Q95.38 65 95.44 64.88Q95.50 64.75 95.50 64.63L95.50 64.63Q95.63 64.50 95.63 64.38Q95.63 64.25 95.75 64.13L95.75 64.13Q95.75 64 95.81 63.81Q95.88 63.63 96 63.50L96 63.50Q96 63.38 96.06 63.25Q96.13 63.13 96.13 63L96.13 63Q96.25 62.88 96.31 62.75Q96.38 62.63 96.38 62.50L96.38 62.50Q96.50 62.38 96.50 62.19Q96.50 62 96.63 61.88L96.63 61.88Q96.63 61.75 96.69 61.63Q96.75 61.50 96.88 61.38L96.88 61.38Q96.88 61.25 96.94 61.13Q97 61 97 60.88L97 60.88Q97.13 60.75 97.19 60.56Q97.25 60.38 97.25 60.25L97.25 60.25Q97.38 60.13 97.50 59.88Q97.63 59.63 97.63 59.38L97.63 59.38Q97.88 59 98.19 58.69Q98.50 58.38 98.88 58.25L98.88 58.25L98.88 58.13ZM45.63 62.13L45.63 62.13Q46 61.88 46.31 61.75Q46.63 61.63 47 61.63L47 61.63Q47.13 61.63 47.31 61.69Q47.50 61.75 47.75 61.75L47.75 61.75Q48.13 61.88 48.38 62.19Q48.63 62.50 48.75 62.75L48.75 62.75Q49 63.63 48.81 64.50Q48.63 65.38 48.13 66.13L48.13 66.13Q48 66.50 47.75 66.75Q47.50 67 47.13 67.13L47.13 67.13L47.13 67.13Q46.88 67.25 46.56 67.31Q46.25 67.38 46 67.38L46 67.38Q45.63 67.38 45.31 67.31Q45 67.25 44.75 67.13L44.75 67.13L44.75 67.13Q44.63 67 44.38 66.81Q44.13 66.63 44.13 66.38L44.13 66.38Q43.88 65.63 43.94 65Q44 64.38 44.38 63.75L44.38 63.75Q44.63 63.25 44.94 62.81Q45.25 62.38 45.63 62.13L45.63 62.13ZM87 61.88L87 61.88Q87.38 61.75 87.75 61.69Q88.13 61.63 88.38 61.75L88.38 61.75Q88.88 61.75 89.19 62.06Q89.50 62.38 89.75 62.75L89.75 62.75Q89.88 63.50 89.81 64.19Q89.75 64.88 89.50 65.50L89.50 65.50Q89.38 65.63 89.31 65.75Q89.25 65.88 89.25 65.88L89.25 65.88Q89.13 66 89.13 66.06Q89.13 66.13 89 66.25L89 66.25Q88.88 66.50 88.69 66.69Q88.50 66.88 88.13 67L88.13 67Q87.88 67.25 87.56 67.25Q87.25 67.25 87 67.38L87 67.38Q86.50 67.38 85.94 67.19Q85.38 67 85.13 66.50L85.13 66.50Q84.75 65.88 84.88 65.13Q85 64.38 85.25 63.75L85.25 63.75Q85.63 63.13 86.06 62.63Q86.50 62.13 87 61.88L87 61.88ZM122.75 67.13L122.75 67.13Q123.13 66.88 123.56 66.81Q124 66.75 124.50 66.75L124.50 66.75Q124.63 66.75 124.69 66.81Q124.75 66.88 124.88 66.88L124.88 66.88Q125.25 67.13 125.56 67.38Q125.88 67.63 126.13 68L126.13 68Q126.25 68.50 126.31 69Q126.38 69.50 126.25 69.88L126.25 69.88Q126.13 70 126.06 70.13Q126 70.25 126 70.38L126 70.38Q125.75 70.63 125.56 70.81Q125.38 71 125.25 71.13L125.25 71.13Q124.75 71.38 124.13 71.44Q123.50 71.50 123 71.25L123 71.25L122.75 71.13Q122.38 70.88 122.06 70.44Q121.75 70 121.63 69.50L121.63 69.50L121.63 69.50Q121.63 69.25 121.63 69Q121.63 68.75 121.63 68.63L121.63 68.63Q121.75 68.50 121.75 68.38Q121.75 68.25 121.75 68.25L121.75 68.25Q121.88 68.13 121.94 68Q122 67.88 122 67.75L122 67.75Q122.13 67.63 122.31 67.44Q122.50 67.25 122.75 67.13L122.75 67.13Z"/></svg>