<svg xmlns="http://www.w3.org/2000/svg" xmlns:xlink="http://www.w3.org/1999/xlink" width="128" height="128"><path fill="#000000" d="M67.25 108.75L67.25 108.75L90.63 108.75Q98.13 108.75 103.50 103.44Q108.88 98.13 108.88 90.50L108.88 90.50L108.88 37.38Q108.88 35.88 108.69 34.50Q108.50 33.13 108 31.75L108 31.75L108.13 31.75Q109.13 31.75 109.88 32.94Q110.63 34.13 111 35L111 35Q111.38 35.75 112.31 36.38Q113.25 37 114.25 37.38L114.25 37.38L114.25 92.25Q114.25 101.25 107.81 107.69Q101.38 114.13 92.25 114.13L92.25 114.13L64.75 114.13Q65.25 113 65.88 111.69Q66.50 110.38 67.25 108.75L67.25 108.75ZM73.38 13.75L73.38 13.75Q79.13 14 81.88 15.50Q84.63 17 85.75 19.25L85.75 19.25L37.50 19.25Q29.88 19.25 24.56 24.56Q19.25 29.88 19.25 37.50L19.25 37.50L19.25 90.63Q19.25 98.13 24.56 103.50Q29.88 108.88 37.50 108.88L37.50 108.88L41.25 108.88Q41 109.75 40.75 110.81Q40.50 111.88 40.50 112.63L40.50 112.63Q40.50 113 40.63 113.44Q40.75 113.88 40.88 114.25L40.88 114.25L35.75 114.25Q26.75 114.25 20.31 107.88Q13.88 101.50 13.88 92.38L13.88 92.38L13.88 35.75Q13.88 26.63 20.31 20.19Q26.75 13.75 35.75 13.75L35.75 13.75L73.38 13.75ZM89.88 106.38L89.88 106.38L68.50 106.38Q71 101.25 73.94 95.13Q76.88 89 79.63 83.25L79.63 83.25L85.25 93Q86.25 94.63 88.13 95.13Q90 95.63 91.63 94.75L91.63 94.75Q93.25 93.75 93.75 91.88Q94.25 90 93.25 88.38L93.25 88.38L84.38 73Q86.25 69.13 87.44 66.63Q88.63 64.13 88.75 63.75L88.75 63.75Q89.50 62.25 89.94 60.56Q90.38 58.88 91.25 57.13L91.25 57.13Q93.50 52.75 97.44 44.69Q101.38 36.63 103.38 34.75L103.38 34.75Q104.13 34.13 104.56 33.63Q105 33.13 105.50 32.75L105.50 32.75Q106 34.13 106.19 35.38Q106.38 36.63 106.38 38.13L106.38 38.13L106.38 89.75Q106.38 96.75 101.56 101.56Q96.75 106.38 89.88 106.38ZM95.25 71.25L95.25 71.25L86.25 71.25L91.63 80.63L95.25 80.63Q97.13 80.63 98.44 79.25Q99.75 77.88 99.75 76L99.75 76Q99.75 74 98.44 72.63Q97.13 71.25 95.25 71.25L95.25 71.25ZM21.63 89.75L21.63 89.75L21.63 38.13Q21.63 31.25 26.44 26.38Q31.25 21.50 38.25 21.50L38.25 21.50L86.63 21.50Q86.88 22.38 87 23.19Q87.13 24 87.25 24.88L87.25 24.88Q87.38 26.13 86.19 28.94Q85 31.75 84.75 32.25L84.75 32.25Q83.13 35.50 80.25 40.94Q77.38 46.38 75.50 49.75L75.50 49.75Q75 50.63 74.19 51.69Q73.38 52.75 73.25 52.88L73.25 52.88Q73.25 52.88 73.19 52.94Q73.13 53 73.13 53.25L73.13 53.25L70.88 49.38L65.63 58.75L67.75 62.50Q66.63 64.50 65.38 66.69Q64.13 68.88 62.75 71.25L62.75 71.25L32.75 71.25Q30.88 71.25 29.56 72.56Q28.25 73.88 28.25 75.75L28.25 75.75Q28.25 77.75 29.56 79.06Q30.88 80.38 32.75 80.38L32.75 80.38L57.25 80.38Q52.50 88.63 48.25 95.94Q44 103.25 42.38 106.25L42.38 106.25L38.25 106.25Q31.38 106.38 26.50 101.56Q21.63 96.75 21.63 89.75L21.63 89.75ZM62.13 34.25L62.13 34.25Q61.13 32.63 59.31 32.13Q57.50 31.63 55.75 32.63L55.75 32.63Q54.13 33.63 53.63 35.44Q53.13 37.25 54.13 38.88L54.13 38.88L57.38 44.75L62.75 35.38L62.13 34.25ZM56.88 68.75L56.88 68.75L74.25 38.75Q75.13 37.13 74.63 35.31Q74.13 33.50 72.50 32.50L72.50 32.50Q70.88 31.50 69 32Q67.13 32.50 66.25 34.25L66.25 34.25L46.25 68.75L56.88 68.75ZM43.13 92.88L43.13 92.88L48.75 83L38.13 83L35 88.25Q34 90 34.50 91.81Q35 93.63 36.75 94.63L36.75 94.63Q38.38 95.63 40.25 95.06Q42.13 94.50 43.13 92.88L43.13 92.88ZM69.25 9.25L69.25 9.25Q69.25 8.75 69.94 8.25Q70.63 7.75 72.13 7.13L72.13 7.13Q73.63 6.50 75.94 6Q78.25 5.50 81.63 5.50L81.63 5.50Q91.25 5.50 97.75 8.38Q104.25 11.25 108.25 13.25L108.25 13.25Q110.63 14.63 111.56 16.56Q112.50 18.50 114.50 19.88L114.50 19.88Q115.88 20.88 117.50 20.88Q119.13 20.88 120.63 20.63L120.63 20.63L120.75 20.63Q120.75 20.63 123.44 22Q126.13 23.38 126.13 23.38L126.13 23.38Q126.38 23.63 125.56 25.63Q124.75 27.63 123.50 30.25L123.50 30.25Q122.13 33.13 121 34.94Q119.88 36.75 119.63 36.63L119.63 36.63Q119.50 36.50 116.69 35Q113.88 33.50 113.88 33.50L113.88 33.50Q113.88 33.50 113.69 32.88Q113.50 32.25 113.13 31.63L113.13 31.63Q112.25 30.50 110.94 29.38Q109.63 28.25 108 28.25L108 28.25Q105.88 28.25 103.81 29.81Q101.75 31.38 100 33.50L100 33.50Q98 35.88 93.69 44.50Q89.38 53.13 87.38 57.38L87.38 57.38Q87.25 57.75 87 59.06Q86.75 60.38 86.38 61L86.38 61Q86.13 61.63 82.13 70.13L82.13 70.13Q78 78.50 73.13 88.63Q68.25 98.75 64 107.75L64 107.75Q59.75 116.63 58.88 118.25L58.88 118.25Q58.25 119.38 57.13 119.94Q56 120.50 54.50 120.50L54.50 120.50Q51.50 120.50 47.69 118.06Q43.88 115.63 43.75 112.63L43.75 112.63Q43.75 112.13 44 111.13Q44.25 110.13 44.50 109.50L44.50 109.50Q44.75 108.88 49.63 100.38L49.63 100.38Q54.63 91.88 60.44 81.81Q66.25 71.75 71.13 63.38L71.13 63.38Q76 55 76.25 54.75L76.25 54.75Q76.25 54.50 76.94 53.75Q77.63 53 78.13 52.13L78.13 52.13Q79.88 48.75 83.31 42.38Q86.75 36 88.38 32.75L88.38 32.75Q88.63 32.38 89.63 29.50Q90.63 26.63 90.63 25.38L90.63 25.38Q90.13 20.13 87 15.19Q83.88 10.25 71 9.88L71 9.88Q70.50 9.88 69.88 9.69Q69.25 9.50 69.25 9.25L69.25 9.25Z"/></svg>