<svg xmlns="http://www.w3.org/2000/svg" xmlns:xlink="http://www.w3.org/1999/xlink" width="128" height="128"><path fill="#ffffff" d="M8.13 67.13L8.13 67.13L2 67.75Q2.25 68.88 2.88 69.81Q3.50 70.75 4.38 71.25L4.38 71.25Q5.25 72 6.88 72.31Q8.50 72.63 10.75 72.63L10.75 72.63Q12.25 72.63 13.50 72.38Q14.75 72.13 15.63 71.75L15.63 71.75Q16.50 71.38 17.19 70.88Q17.88 70.38 18.25 69.75L18.25 69.75Q18.75 69 18.94 68.31Q19.13 67.63 19.13 66.88L19.13 66.88Q19.13 66.25 18.88 65.56Q18.63 64.88 18.25 64.25L18.25 64.25Q17.88 63.75 17.31 63.25Q16.75 62.75 16 62.50L16 62.50Q15.25 62.25 14.13 61.94Q13 61.63 11.38 61.50L11.38 61.50Q10.38 61.38 9.75 61.19Q9.13 61 8.75 60.88L8.75 60.88Q8.50 60.75 8.38 60.50Q8.25 60.25 8.25 60L8.25 60Q8.25 59.75 8.38 59.50Q8.50 59.25 8.75 59.13L8.75 59.13Q8.88 58.88 9.25 58.81Q9.63 58.75 10.25 58.75L10.25 58.75Q10.75 58.75 11.19 58.88Q11.63 59 12 59.25L12 59.25Q12.25 59.38 12.44 59.69Q12.63 60 12.75 60.38L12.75 60.38L18.75 59.75Q18.38 59 18 58.38Q17.63 57.75 17.25 57.25L17.25 57.25Q16.75 56.75 16.19 56.38Q15.63 56 14.88 55.75L14.88 55.75Q14.25 55.63 13.19 55.50Q12.13 55.38 10.63 55.38L10.63 55.38Q9.25 55.38 8.13 55.56Q7 55.75 6.25 56L6.25 56Q5.38 56.25 4.75 56.75Q4.13 57.25 3.63 57.75L3.63 57.75Q3.13 58.38 2.94 59.06Q2.75 59.75 2.75 60.63L2.75 60.63Q2.75 61.38 2.94 62Q3.13 62.63 3.63 63.25L3.63 63.25Q4 63.75 4.56 64.19Q5.13 64.63 5.75 64.75L5.75 64.75Q6.25 65 7.38 65.31Q8.50 65.63 10.25 65.88L10.25 65.88Q11.25 66.13 11.94 66.25Q12.63 66.38 12.88 66.50L12.88 66.50Q13.25 66.63 13.44 66.94Q13.63 67.25 13.63 67.63L13.63 67.63Q13.63 67.88 13.50 68.13Q13.38 68.38 13.13 68.63L13.13 68.63Q12.75 68.88 12.25 69Q11.75 69.13 11.25 69.13L11.25 69.13Q10.63 69.13 10.19 69Q9.75 68.88 9.38 68.63L9.38 68.63Q8.88 68.38 8.63 68Q8.38 67.63 8.13 67.13L8.13 67.13ZM37.75 64L37.75 64Q37.75 60.50 40.31 57.94Q42.88 55.38 46.75 55.38L46.75 55.38Q50.75 55.38 53.31 57.88Q55.88 60.38 55.88 64L55.88 64Q55.88 67.63 53.31 70.13Q50.75 72.63 46.75 72.63L46.75 72.63Q42.88 72.63 40.31 70.13Q37.75 67.63 37.75 64L37.75 64ZM70.25 64L70.25 64Q70.25 60.38 72.81 57.88Q75.38 55.38 79.38 55.38L79.38 55.38Q81.25 55.38 82.69 55.75Q84.13 56.13 84.88 56.50L84.88 56.50L85 56.50L85 60.63L84.75 60.50Q84 60.13 82.75 59.75Q81.50 59.38 79.75 59.38L79.75 59.38Q78.63 59.38 77.69 59.75Q76.75 60.13 76.25 60.75L76.25 60.75Q75.63 61.25 75.25 62.06Q74.88 62.88 74.88 63.75L74.88 63.75Q74.88 65.63 76.13 66.94Q77.38 68.25 79.63 68.25L79.63 68.25Q80 68.25 80.44 68.19Q80.88 68.13 81.25 68.13L81.25 68.13L81.25 63.88L85.75 63.88L85.75 71.13L85.63 71.13Q84.38 71.75 82.75 72Q81.13 72.25 79.63 72.25L79.63 72.25Q75.38 72.50 72.81 70.06Q70.25 67.63 70.25 64ZM20.75 55.75L20.75 55.75L25.38 55.75L25.38 62L31.25 62L31.25 55.75L36 55.75L36 72.25L31.25 72.25L31.25 65.75L25.38 65.75L25.38 72.25L20.75 72.25L20.75 55.75ZM56.25 59.63L56.25 55.75L70 55.75L70 59.63L65.50 59.63L65.50 72.25L60.75 72.25L60.75 59.63L56.25 59.63ZM87.75 55.75L87.75 55.75L94 55.75Q95.50 55.75 96.81 56.13Q98.13 56.50 99 57.25L99 57.25Q100 58 100.50 59Q101 60 101 61.38L101 61.38Q101 63.13 100.19 64.31Q99.38 65.50 98 66.13L98 66.13L101.50 72.25L96.63 72.25L93.88 67L92.25 67L92.25 72.25L87.75 72.25L87.75 55.75ZM103 72.25L103 55.75L107.63 55.75L107.63 72.25L103 72.25ZM110.25 55.75L110.38 55.75L116.25 55.75Q118.50 55.75 120.25 56.38Q122 57 123.25 58.13L123.25 58.13Q124.63 59.25 125.25 60.75Q125.88 62.25 125.88 64L125.88 64Q125.88 65.75 125.25 67.31Q124.63 68.88 123.25 69.88L123.25 69.88Q122 71 120.25 71.63Q118.50 72.25 116.25 72.25L116.25 72.25L110.25 72.25L110.25 55.75ZM46.88 59.63L46.88 59.63Q44.88 59.63 43.63 60.94Q42.38 62.25 42.38 64.13L42.38 64.13Q42.38 65.88 43.63 67.25Q44.88 68.63 46.88 68.63L46.88 68.63Q48.88 68.63 50.06 67.31Q51.25 66 51.25 64.13L51.25 64.13Q51.25 62.25 50.06 60.94Q48.88 59.63 46.88 59.63L46.88 59.63ZM94.25 59.63L92.25 59.63L92.25 63.38L94.25 63.38Q94.63 63.38 95.06 63.31Q95.50 63.25 95.75 63L95.75 63Q96 62.75 96.13 62.38Q96.25 62 96.25 61.50L96.25 61.50Q96.25 61 96.13 60.69Q96 60.38 95.75 60.13L95.75 60.13Q95.38 59.88 95 59.75Q94.63 59.63 94.25 59.63L94.25 59.63ZM115 68.50L115 68.50L116.25 68.50Q117.50 68.50 118.44 68.13Q119.38 67.75 120 67.25L120 67.25Q120.63 66.63 120.94 65.81Q121.25 65 121.25 64.13L121.25 64.13Q121.25 63.25 120.94 62.44Q120.63 61.63 120 61L120 61Q119.38 60.38 118.44 60.06Q117.50 59.75 116.25 59.75L116.25 59.75L115 59.75L115 68.50Z"/></svg>