<svg xmlns="http://www.w3.org/2000/svg" xmlns:xlink="http://www.w3.org/1999/xlink" width="128" height="128"><path fill="#000000" d="M64 2L64 2Q51.13 2 39.88 6.88L39.88 6.88Q28.63 11.75 20.19 20.19Q11.75 28.63 6.88 39.88L6.88 39.88Q2 51.13 2 64L2 64Q2 76.88 6.88 88.13L6.88 88.13Q11.75 99.38 20.19 107.81Q28.63 116.25 39.88 121.13L39.88 121.13Q51.13 126 64 126L64 126Q76.88 126 88.13 121.13L88.13 121.13Q99.38 116.25 107.81 107.81Q116.25 99.38 121.13 88.13L121.13 88.13Q126 76.88 126 64L126 64Q126 51.13 121.13 39.88L121.13 39.88Q116.25 28.63 107.81 20.19Q99.38 11.75 88.13 6.88L88.13 6.88Q76.88 2 64 2ZM61.63 77.25L61.63 77.25Q60.50 78.88 58.81 80.19Q57.13 81.50 54.88 82.63L54.88 82.63Q52.63 83.63 49.50 84.13Q46.38 84.63 42.38 84.63L42.38 84.63Q36.88 84.63 32.88 83.81Q28.88 83 26.50 81.38L26.50 81.38Q24.13 79.75 22.63 77.50Q21.13 75.25 20.38 72.25L20.38 72.25L36 70.75Q36.50 72.13 37.13 73.13Q37.75 74.13 38.75 74.75L38.75 74.75Q39.50 75.25 40.69 75.56Q41.88 75.88 43.25 75.88L43.25 75.88Q44.88 75.88 46.06 75.50Q47.25 75.13 48.25 74.50L48.25 74.50Q48.88 74 49.19 73.38Q49.50 72.75 49.50 72L49.50 72Q49.50 71.13 49.06 70.50Q48.63 69.88 47.75 69.25L47.75 69.25Q47.13 69 45.44 68.56Q43.75 68.13 41 67.75L41 67.75Q37 67 34.13 66.31Q31.25 65.63 29.75 65L29.75 65Q28.13 64.38 26.81 63.38Q25.50 62.38 24.38 60.88L24.38 60.88Q23.38 59.50 22.81 57.81Q22.25 56.13 22.25 54.25L22.25 54.25Q22.25 52.25 22.81 50.50Q23.38 48.75 24.50 47.25L24.50 47.25Q25.75 45.75 27.31 44.69Q28.88 43.63 30.88 42.88L30.88 42.88Q32.88 42.13 35.69 41.75Q38.50 41.38 41.88 41.38L41.88 41.38Q45.63 41.38 48.25 41.69Q50.88 42 52.75 42.50L52.75 42.50Q54.38 43.13 55.81 43.94Q57.25 44.75 58.50 46L58.50 46Q59.63 47.25 60.56 48.81Q61.50 50.38 62.25 52.38L62.25 52.38L47.50 53.88Q47.25 52.88 46.75 52.19Q46.25 51.50 45.63 51L45.63 51Q44.75 50.38 43.63 50.06Q42.50 49.75 41.13 49.75L41.13 49.75Q39.75 49.75 38.81 50Q37.88 50.25 37.25 50.75L37.25 50.75Q36.75 51.25 36.44 51.81Q36.13 52.38 36.13 53L36.13 53Q36.13 53.75 36.50 54.31Q36.88 54.88 37.63 55.25L37.63 55.25Q38.38 55.63 40 56Q41.63 56.38 44.25 56.75L44.25 56.75Q48.25 57.13 51.13 57.75Q54 58.38 55.88 59.25L55.88 59.25Q57.75 60 59.25 61.13Q60.75 62.25 61.75 63.75L61.75 63.75Q62.63 65.25 63.19 66.81Q63.75 68.38 63.75 70.25L63.75 70.25Q63.75 72 63.19 73.75Q62.63 75.50 61.63 77.25L61.63 77.25ZM105.75 81.25L105.88 81.25L105.75 81.38Q102.63 82.88 98.63 83.75Q94.63 84.63 90.75 84.63L90.75 84.63Q80.25 84.63 73.69 78.19Q67.13 71.75 67.13 62.50L67.13 62.50Q67.13 53.25 73.63 46.75Q80.13 40.25 90.25 40.25L90.25 40.25Q95 40.25 98.50 41.19Q102 42.13 104.25 43.13L104.25 43.13L104.38 43.25L104.38 53.75L103.75 53.50Q101.75 52.63 98.63 51.69Q95.50 50.75 91.25 50.75L91.25 50.75Q88.25 50.75 85.94 51.63Q83.63 52.50 82 54.25L82 54.25Q80.38 55.75 79.56 57.88Q78.75 60 78.75 62.25L78.75 62.25Q78.75 67 81.88 70.50Q85 74 90.63 74L90.63 74Q91.63 74 92.69 73.88Q93.75 73.75 94.63 73.63L94.63 73.63L94.63 62.75L105.75 62.75L105.75 81.25Z"/></svg>