<svg xmlns="http://www.w3.org/2000/svg" xmlns:xlink="http://www.w3.org/1999/xlink" width="128" height="128"><path fill="#ffffff" d="M2 82.25L2 38.50L126 38.50L126 82.25L64 82.25L64 89.50L36.50 89.50L36.50 82.25L2 82.25ZM8.88 45.75L8.88 74.88L22.63 74.88L22.63 53.13L29.50 53.13L29.50 74.88L36.50 74.88L36.50 45.75L8.88 45.75ZM70.88 45.75L43.38 45.75L43.38 82.25L57.13 82.25L57.13 74.88L70.88 74.88L70.88 45.75ZM57.13 67.63L57.13 53.13L64 53.13L64 67.63L57.13 67.63ZM119.13 45.75L77.75 45.75L77.75 74.88L91.50 74.88L91.50 53.13L98.50 53.13L98.50 74.88L105.38 74.88L105.38 53.13L112.25 53.13L112.25 74.88L119.13 74.88L119.13 45.75Z"/></svg>