<svg xmlns="http://www.w3.org/2000/svg" xmlns:xlink="http://www.w3.org/1999/xlink" width="128" height="128"><path fill="#ffffff" d="M104 59.63L85.88 49.25Q85.25 48.88 84.56 48.75Q83.88 48.63 83.25 48.63L83.25 48.63Q82.50 48.63 81.75 48.75Q81 48.88 80.50 49.25L80.50 49.25L80.50 49.25L68.25 56.50L59.75 61.25L47.50 68.38Q46.88 68.75 46.19 68.94Q45.50 69.13 44.75 69.13L44.75 69.13Q44.13 69.13 43.38 68.94Q42.63 68.75 42.13 68.38L42.13 68.38L42.13 68.38L32.38 62.75Q31.25 62.13 30.50 60.94Q29.75 59.75 29.63 58.25L29.63 58.25L29.63 58.25L29.63 47Q29.63 47 29.63 46.94Q29.63 46.88 29.63 46.88L29.63 46.88Q29.63 45.50 30.38 44.31Q31.13 43.13 32.38 42.50L32.38 42.50L32.38 42.50L42.13 37Q42.75 36.75 43.44 36.56Q44.13 36.38 44.75 36.38L44.75 36.38Q45.50 36.38 46.25 36.56Q47 36.75 47.50 37.13L47.50 37.13L47.50 37L57.25 42.50Q58.38 43.13 59.13 44.31Q59.88 45.50 59.88 47L59.88 47L59.88 47L59.88 54.25L68.25 49.25L68.25 42.25Q68.25 42.25 68.25 42.19Q68.25 42.13 68.25 42.13L68.25 42.13Q68.25 40.75 67.50 39.56Q66.75 38.38 65.63 37.75L65.63 37.75L65.63 37.75L47.75 27.38Q47.13 27 46.44 26.81Q45.75 26.63 45 26.63L45 26.63Q44.25 26.63 43.56 26.81Q42.88 27 42.25 27.38L42.25 27.38L42.38 27.38L24.25 37.75Q23 38.25 22.19 39.44Q21.38 40.63 21.38 42L21.38 42Q21.38 42.13 21.38 42.19Q21.38 42.25 21.38 42.25L21.38 42.25L21.38 42.25L21.38 63.25Q21.38 63.25 21.38 63.25Q21.38 63.25 21.38 63.25L21.38 63.25Q21.38 64.75 22.13 65.94Q22.88 67.13 24 67.75L24 67.75L24 67.75L42.13 78.13Q42.75 78.50 43.44 78.69Q44.13 78.88 44.75 78.88L44.75 78.88Q45.50 78.88 46.25 78.69Q47 78.50 47.50 78.13L47.50 78.13L47.50 78.13L59.75 71.13L68.13 66.13L80.25 59.25Q80.88 58.88 81.56 58.69Q82.25 58.50 83 58.50L83 58.50Q83.75 58.50 84.44 58.69Q85.13 58.88 85.75 59.25L85.75 59.25L85.63 59.25L95.38 64.63Q96.63 65.25 97.31 66.50Q98 67.75 98.13 69.13L98.13 69.13L98.13 69.13L98.13 80.25Q98.13 80.25 98.13 80.25Q98.13 80.25 98.13 80.25L98.13 80.25Q98.13 81.75 97.38 82.94Q96.63 84.13 95.38 84.75L95.38 84.75L95.38 84.75L85.63 90.38Q85.13 90.63 84.44 90.81Q83.75 91 83 91L83 91Q82.25 91 81.56 90.81Q80.88 90.63 80.25 90.38L80.25 90.38L80.25 90.38L70.50 84.88Q69.38 84.25 68.63 83.06Q67.88 81.88 67.88 80.38L67.88 80.38L67.88 80.38L67.88 73.13L59.75 77.88L59.75 85.13Q59.75 85.13 59.75 85.19Q59.75 85.25 59.75 85.25L59.75 85.25Q59.75 86.63 60.50 87.81Q61.25 89 62.38 89.63L62.38 89.63L62.50 89.63L80.50 100Q81.13 100.38 81.81 100.56Q82.50 100.75 83.25 100.75L83.25 100.75Q84 100.75 84.69 100.56Q85.38 100.38 86 100L86 100L85.88 100L104 89.63Q105.13 89 105.88 87.81Q106.63 86.63 106.63 85.13L106.63 85.13L106.63 85.13L106.63 64.13Q106.63 64.13 106.63 64.13Q106.63 64.13 106.63 64L106.63 64Q106.63 62.63 105.88 61.44Q105.13 60.25 104 59.63L104 59.63L104 59.63Z"/></svg>