<svg xmlns="http://www.w3.org/2000/svg" xmlns:xlink="http://www.w3.org/1999/xlink" width="128" height="128"><path fill="#000000" d="M44.50 18.25L44.50 18.25L81.25 18.25Q82 18.25 82.56 18.75Q83.13 19.25 83.13 20L83.13 20Q83.13 20.75 82.56 21.31Q82 21.88 81.25 21.88L81.25 21.88L44.50 21.88Q43.75 21.88 43.25 21.31Q42.75 20.75 42.75 20L42.75 20Q42.75 19.25 43.25 18.75Q43.75 18.25 44.50 18.25L44.50 18.25ZM44.88 16.25L44.88 14.63L52.25 14.63L52.25 16.25L44.88 16.25ZM54.50 16.25L54.50 14.63L61.88 14.63L61.88 16.25L54.50 16.25ZM64 16.25L64 14.63L71.38 14.63L71.38 16.25L64 16.25ZM73.50 16.25L73.50 14.63L81 14.63L81 16.25L73.50 16.25ZM73.50 36.25L73.50 23.75L81 23.75L81 36.25L73.50 36.25ZM64 44L64 23.75L71.50 23.75L71.50 44L64 44ZM54.50 54.13L54.50 23.75L61.88 23.75L61.88 54.13L54.50 54.13ZM44.88 60.75L44.88 23.75L52.25 23.75L52.25 60.75L44.88 60.75ZM21.63 100.13L21.63 100.13Q21 100.13 20.50 100.06Q20 100 19.63 99.88L19.63 99.88Q19.13 99.75 18.75 99.63Q18.38 99.50 18 99.25L18 99.25L18 99.25Q17.63 99.13 17.31 98.88Q17 98.63 16.75 98.38L16.75 98.38L16.75 98.38Q16.50 98.13 16.25 97.81Q16 97.50 15.75 97.25L15.75 97.25L15.75 97.25L15.50 97.25Q15.63 97.50 15.63 97.81Q15.63 98.13 15.63 98.38L15.63 98.38Q15.63 98.63 15.69 98.88Q15.75 99.13 15.75 99.38L15.75 99.38Q15.75 99.63 15.75 99.88Q15.75 100.13 15.75 100.25L15.75 100.25L15.75 108.88L12.38 108.88L12.38 79.38L15.13 79.38L15.63 82.13L15.75 82.13Q16 81.88 16.25 81.56Q16.50 81.25 16.75 81L16.75 81Q17 80.63 17.31 80.44Q17.63 80.25 18 80L18 80L18 80Q18.38 79.75 18.75 79.63Q19.13 79.50 19.50 79.38L19.50 79.38L19.63 79.38Q20 79.25 20.50 79.13Q21 79 21.50 79L21.50 79Q21.50 79 21.56 79Q21.63 79 21.63 79L21.63 79L21.63 79Q22.50 79 23.25 79.19Q24 79.38 24.75 79.75L24.75 79.75Q25.50 80.13 26.13 80.56Q26.75 81 27.25 81.75L27.25 81.75Q27.75 82.38 28.13 83.19Q28.50 84 28.75 85L28.75 85Q29 86 29.19 87.13Q29.38 88.25 29.38 89.63L29.38 89.63Q29.38 90.88 29.19 92Q29 93.13 28.75 94.13L28.75 94.13Q28.50 95.13 28.13 95.94Q27.75 96.75 27.25 97.50L27.25 97.50Q26.75 98.13 26.13 98.63Q25.50 99.13 24.75 99.50L24.75 99.50L24.75 99.50Q24 99.88 23.25 100Q22.50 100.13 21.63 100.13L21.63 100.13ZM21 81.88L21 81.88Q20.25 81.88 19.63 82Q19 82.13 18.50 82.25L18.50 82.25Q18.13 82.50 17.69 82.81Q17.25 83.13 17 83.63L17 83.63L17 83.63Q16.63 84 16.44 84.56Q16.25 85.13 16.13 85.75L16.13 85.75Q16 86.38 15.88 87.13Q15.75 87.88 15.75 88.88L15.75 88.88L15.75 89.63Q15.75 90.50 15.81 91.31Q15.88 92.13 16 92.88L16 92.88Q16.13 93.63 16.38 94.25Q16.63 94.88 16.88 95.38L16.88 95.38Q17.13 95.88 17.56 96.25Q18 96.63 18.50 96.88L18.50 96.88L18.50 96.88Q19 97.13 19.63 97.25Q20.25 97.38 21 97.38L21 97.38Q22.25 97.38 23.19 96.88Q24.13 96.38 24.63 95.38L24.63 95.38Q25.25 94.38 25.56 92.88Q25.88 91.38 25.88 89.50L25.88 89.50Q25.88 87.63 25.56 86.19Q25.25 84.75 24.63 83.75L24.63 83.75Q24.13 82.88 23.19 82.38Q22.25 81.88 21 81.88L21 81.88ZM39.38 100L31.63 79.38L35.13 79.38L39.13 90.75Q39.25 91.13 39.38 91.56Q39.50 92 39.63 92.38L39.63 92.38Q39.75 92.75 39.88 93.19Q40 93.63 40.13 94L40.13 94Q40.25 94.38 40.31 94.81Q40.38 95.25 40.50 95.63L40.50 95.63Q40.63 96 40.69 96.31Q40.75 96.63 40.75 97L40.75 97L40.88 97Q40.88 96.75 41 96.44Q41.13 96.13 41.13 95.75L41.13 95.75Q41.25 95.38 41.38 94.94Q41.50 94.50 41.63 94L41.63 94Q41.75 93.63 41.88 93.13Q42 92.63 42.13 92.25L42.13 92.25Q42.25 91.88 42.38 91.50Q42.50 91.13 42.63 90.75L42.63 90.75L46.25 79.50L49.75 79.50L41.75 102.50Q41.50 103.25 41.19 103.88Q40.88 104.50 40.63 105.13L40.63 105.13Q40.38 105.75 40 106.25Q39.63 106.75 39.25 107.13L39.25 107.13L39.25 107.13Q38.88 107.63 38.38 107.94Q37.88 108.25 37.38 108.50L37.38 108.50L37.38 108.50Q36.75 108.75 36.13 108.81Q35.50 108.88 34.75 108.88L34.75 108.88Q34.75 108.88 34.75 108.88Q34.75 108.88 34.63 108.88L34.63 108.88Q34.25 108.88 33.88 108.88Q33.50 108.88 33 108.75L33 108.75L33.13 108.88Q32.75 108.75 32.44 108.69Q32.13 108.63 31.75 108.63L31.75 108.63L31.88 108.63L31.88 105.88Q32.13 106 32.38 106Q32.63 106 32.88 106.13L32.88 106.13Q33.25 106.13 33.56 106.13Q33.88 106.13 34.13 106.13L34.13 106.13Q34.63 106.13 35 106.06Q35.38 106 35.63 105.88L35.63 105.88Q36 105.88 36.31 105.69Q36.63 105.50 36.75 105.25L36.75 105.25Q37 105.13 37.25 104.88Q37.50 104.63 37.63 104.25L37.63 104.25Q37.75 104 37.94 103.69Q38.13 103.38 38.25 103L38.25 103L39.38 100ZM59.38 97.38L59.38 97.38Q59.50 97.38 59.69 97.38Q59.88 97.38 60.13 97.38L60.13 97.38Q60.50 97.38 60.94 97.31Q61.38 97.25 61.75 97.13L61.75 97.13L61.63 97.13Q61.75 97.13 61.88 97.06Q62 97 62.13 97L62.13 97L62.13 99.63Q62 99.63 61.88 99.69Q61.75 99.75 61.50 99.75L61.50 99.75Q61.13 99.88 60.69 100Q60.25 100.13 59.75 100.13L59.75 100.13L59.75 100.13Q59.50 100.13 59.25 100.13Q59 100.13 58.88 100.13L58.88 100.13Q58.75 100.13 58.75 100.13Q58.75 100.13 58.75 100.13L58.75 100.13Q58.25 100.13 57.69 100.06Q57.13 100 56.63 99.88L56.63 99.88L56.63 99.88Q56.13 99.75 55.75 99.50Q55.38 99.25 55 98.88L55 98.88L55 98.88Q54.63 98.50 54.38 98Q54.13 97.50 53.88 96.88L53.88 96.88Q53.63 96.25 53.56 95.50Q53.50 94.75 53.50 93.75L53.50 93.75L53.50 82L50.63 82L50.63 80.50L53.50 79L54.88 74.75L56.88 74.75L56.88 79.50L62 79.50L62 82L56.88 82L56.88 93.75Q56.88 94.75 57 95.38Q57.13 96 57.50 96.50L57.50 96.50Q57.75 97 58.25 97.19Q58.75 97.38 59.38 97.38L59.38 97.38ZM74.13 100.13L74.13 100.13Q73.13 100.13 72.19 100Q71.25 99.88 70.38 99.50L70.38 99.50Q69.50 99.13 68.81 98.63Q68.13 98.13 67.50 97.50L67.50 97.50L67.50 97.50Q66.88 96.88 66.44 96Q66 95.13 65.63 94.25L65.63 94.25Q65.25 93.25 65.06 92.13Q64.88 91 64.88 89.75L64.88 89.75Q64.88 88.50 65.06 87.38Q65.25 86.25 65.50 85.25L65.50 85.25Q65.88 84.25 66.31 83.44Q66.75 82.63 67.25 81.88L67.25 81.88Q67.75 81.25 68.44 80.69Q69.13 80.13 69.88 79.75L69.88 79.75L69.88 79.75Q70.75 79.38 71.56 79.25Q72.38 79.13 73.38 79.13L73.38 79.13Q74.25 79.13 75.06 79.25Q75.88 79.38 76.63 79.75L76.63 79.75Q77.38 80 78 80.50Q78.63 81 79.13 81.63L79.13 81.63L79.13 81.63Q79.63 82.13 80 82.88Q80.38 83.63 80.75 84.50L80.75 84.50Q81 85.25 81.13 86.19Q81.25 87.13 81.25 88.13L81.25 88.13L81.25 90.25L68.38 90.25Q68.50 92 68.88 93.31Q69.25 94.63 69.88 95.50L69.88 95.50Q70.63 96.38 71.69 96.81Q72.75 97.25 74.13 97.25L74.13 97.25Q74.63 97.25 75.06 97.19Q75.50 97.13 75.88 97.13L75.88 97.13Q76.25 97.13 76.69 97.06Q77.13 97 77.50 96.88L77.50 96.88Q77.88 96.75 78.25 96.63Q78.63 96.50 78.88 96.38L78.88 96.38Q79.25 96.25 79.63 96.13Q80 96 80.38 95.75L80.38 95.75L80.38 98.88Q80 99 79.63 99.13Q79.25 99.25 78.88 99.38L78.88 99.38Q78.50 99.50 78.13 99.63Q77.75 99.75 77.38 99.88L77.38 99.88Q77.13 99.88 76.75 99.94Q76.38 100 75.88 100.13L75.88 100.13L75.88 100.13Q75.50 100.13 75.06 100.13Q74.63 100.13 74.13 100.13L74.13 100.13ZM73.25 81.88L73.25 81.88Q72.25 81.88 71.38 82.25Q70.50 82.63 69.88 83.25L69.88 83.25Q69.38 84 69 85.06Q68.63 86.13 68.50 87.50L68.50 87.50L77.63 87.50Q77.63 86.88 77.56 86.31Q77.50 85.75 77.38 85.25L77.38 85.25Q77.25 84.63 77.06 84.19Q76.88 83.75 76.63 83.38L76.63 83.38Q76.38 83 76 82.75Q75.63 82.50 75.25 82.25L75.25 82.25L75.25 82.25Q74.88 82.13 74.38 82Q73.88 81.88 73.25 81.88L73.25 81.88ZM98.63 94.25L98.63 94.25Q98.63 95 98.44 95.63Q98.25 96.25 98 96.88L98 96.88Q97.75 97.38 97.38 97.81Q97 98.25 96.50 98.63L96.50 98.63L96.50 98.63Q96 99 95.38 99.31Q94.75 99.63 94 99.75L94 99.75Q93.38 100 92.56 100.06Q91.75 100.13 90.88 100.13L90.88 100.13Q89.88 100.13 89 100.06Q88.13 100 87.38 99.88L87.38 99.88Q86.63 99.63 86 99.44Q85.38 99.25 84.88 98.88L84.88 98.88L84.88 95.75Q85.13 96 85.44 96.13Q85.75 96.25 86.13 96.38L86.13 96.38Q86.75 96.63 87.50 96.88Q88.25 97.13 89.13 97.25L89.13 97.25L89.25 97.25Q89.63 97.38 90 97.38Q90.38 97.38 90.88 97.38L90.88 97.38L90.88 97.38Q91.50 97.38 92 97.31Q92.50 97.25 92.88 97.25L92.88 97.25Q93.25 97.13 93.63 96.94Q94 96.75 94.25 96.63L94.25 96.63Q94.50 96.38 94.69 96.19Q94.88 96 95 95.75L95 95.75Q95.13 95.38 95.19 95.13Q95.25 94.88 95.25 94.50L95.25 94.50Q95.25 94.50 95.25 94.50Q95.25 94.50 95.25 94.50L95.25 94.50L95.25 94.50Q95.25 94.25 95.19 93.94Q95.13 93.63 95.13 93.38L95.13 93.38Q95 93.25 94.81 93Q94.63 92.75 94.38 92.50L94.38 92.50Q94.13 92.25 93.81 92.06Q93.50 91.88 93 91.63L93 91.63Q92.63 91.38 92.13 91.13Q91.63 90.88 91 90.63L91 90.63L90.88 90.50Q90.13 90.25 89.50 89.94Q88.88 89.63 88.25 89.38L88.25 89.38L88.50 89.38Q88 89.13 87.50 88.81Q87 88.50 86.63 88.13L86.63 88.13L86.63 88.25Q86.25 87.88 86 87.50Q85.75 87.13 85.50 86.63L85.50 86.63L85.50 86.63Q85.38 86.13 85.25 85.63Q85.13 85.13 85.13 84.50L85.13 84.50Q85.13 83.88 85.25 83.25Q85.38 82.63 85.63 82.13L85.63 82.13Q85.88 81.63 86.25 81.19Q86.63 80.75 87 80.50L87 80.50L87.13 80.50Q87.50 80.13 88.06 79.88Q88.63 79.63 89.25 79.38L89.25 79.38Q90 79.25 90.69 79.19Q91.38 79.13 92.25 79.13L92.25 79.13Q93.13 79.13 93.94 79.19Q94.75 79.25 95.50 79.50L95.50 79.50Q96.25 79.63 96.94 79.88Q97.63 80.13 98.25 80.50L98.25 80.50L97.13 83.25Q96.63 83 96.06 82.75Q95.50 82.50 94.88 82.25L94.88 82.25L94.63 82.25Q94.13 82.13 93.44 82Q92.75 81.88 92.13 81.88L92.13 81.88Q92.13 81.88 92.13 81.88Q92.13 81.88 92.13 81.88L92.13 81.88L92.13 81.88Q91.13 81.88 90.44 82Q89.75 82.13 89.25 82.50L89.25 82.50Q88.88 82.75 88.63 83.19Q88.38 83.63 88.38 84.25L88.38 84.25Q88.38 84.63 88.44 84.88Q88.50 85.13 88.63 85.38L88.63 85.38Q88.75 85.63 88.88 85.88Q89 86.13 89.38 86.25L89.38 86.25Q89.63 86.50 89.94 86.75Q90.25 87 90.75 87.13L90.75 87.13Q91.13 87.38 91.69 87.63Q92.25 87.88 92.88 88.13L92.88 88.13Q93.50 88.38 94.13 88.69Q94.75 89 95.25 89.25L95.25 89.25Q95.75 89.50 96.19 89.81Q96.63 90.13 97 90.50L97 90.50Q97.38 90.88 97.69 91.25Q98 91.63 98.13 92.13L98.13 92.13Q98.38 92.50 98.50 93.06Q98.63 93.63 98.63 94.25L98.63 94.25ZM109.63 97.38L109.63 97.38Q109.88 97.38 110.06 97.38Q110.25 97.38 110.38 97.38L110.38 97.38Q110.63 97.38 110.81 97.31Q111 97.25 111.25 97.25L111.25 97.25Q111.38 97.25 111.56 97.19Q111.75 97.13 112 97.13L112 97.13Q112.13 97.13 112.25 97.06Q112.38 97 112.50 97L112.50 97L112.50 99.63Q112.38 99.63 112.19 99.69Q112 99.75 111.88 99.75L111.88 99.75L111.88 99.75Q111.63 99.88 111.44 99.94Q111.25 100 111.13 100L111.13 100L111 100Q110.63 100.13 110.13 100.13Q109.63 100.13 109.13 100.13L109.13 100.13L109.13 100.13Q109.13 100.13 109.13 100.13Q109.13 100.13 109.13 100.13L109.13 100.13Q108.50 100.13 108 100.06Q107.50 100 107 99.88L107 99.88L107 99.88Q106.50 99.75 106.06 99.50Q105.63 99.25 105.38 98.88L105.38 98.88L105.38 98.88Q105 98.50 104.69 98Q104.38 97.50 104.25 96.88L104.25 96.88Q104 96.25 103.88 95.50Q103.75 94.75 103.75 93.75L103.75 93.75L103.75 82L100.88 82L100.88 80.50L103.75 79L105.25 74.75L107.13 74.75L107.13 79.50L112.25 79.50L112.25 82L107.13 82L107.13 93.75Q107.13 94.75 107.31 95.38Q107.50 96 107.75 96.50L107.75 96.50Q108 97 108.50 97.19Q109 97.38 109.63 97.38L109.63 97.38Z"/></svg>