<svg xmlns="http://www.w3.org/2000/svg" xmlns:xlink="http://www.w3.org/1999/xlink" width="128" height="128"><path fill="#ffffff" d="M31.50 30.38L31.50 30.38L92.88 30.38Q94 30.38 94.94 31.25Q95.88 32.13 95.88 33.38L95.88 33.38Q95.88 34.63 94.94 35.50Q94 36.38 92.88 36.38L92.88 36.38L31.50 36.38Q30.25 36.38 29.38 35.50Q28.50 34.63 28.50 33.38L28.50 33.38L28.50 33.38Q28.50 33.38 28.50 33.38Q28.50 33.38 28.50 33.38L28.50 33.38Q28.50 32.13 29.38 31.25Q30.25 30.38 31.50 30.38L31.50 30.38ZM32 27.13L32 24.38L44.38 24.38L44.38 27.13L32 27.13ZM48.13 27.13L48.13 24.38L60.50 24.38L60.50 27.13L48.13 27.13ZM64.13 27.13L64.13 24.38L76.38 24.38L76.38 27.13L64.13 27.13ZM79.88 27.13L79.88 24.38L92.25 24.38L92.25 27.13L79.88 27.13ZM79.88 60.38L79.88 39.50L92.25 39.50L92.25 60.38L79.88 60.38ZM64.13 73.38L64.13 39.50L76.38 39.50L76.38 73.38L64.13 73.38ZM48.13 90.25L48.13 39.50L60.50 39.50L60.50 90.25L48.13 90.25ZM32 101.38L32 39.50L44.38 39.50L44.38 101.38L32 101.38Z"/></svg>