<svg xmlns="http://www.w3.org/2000/svg" xmlns:xlink="http://www.w3.org/1999/xlink" width="128" height="128"><path fill="#ffffff" d="M26.88 1L26.88 1Q27.50 1.25 28.19 1.31Q28.88 1.38 29.50 1.38L29.50 1.38Q34.75 2 39 4.31Q43.25 6.63 46.88 10.25L46.88 10.25Q49.75 13.13 52.44 16.25Q55.13 19.38 57.88 22.50L57.88 22.50Q60 25 62.50 27.25Q65 29.50 67.88 31.38L67.88 31.38Q70.88 33.25 74.19 34.31Q77.50 35.38 81.13 35.38L81.13 35.38Q81.25 35.38 81.38 35.44Q81.50 35.50 81.63 35.50L81.63 35.50Q81.63 35.50 81.69 35.50Q81.75 35.50 81.75 35.63L81.75 35.63Q80.38 36.50 78.94 37.19Q77.50 37.88 75.88 38.25L75.88 38.25Q72.25 39 69 38.31Q65.75 37.63 62.88 35.25L62.88 35.25Q62.13 34.63 61.31 33.94Q60.50 33.25 59.75 32.63L59.75 32.63Q58.38 31.63 56.94 31.13Q55.50 30.63 53.88 30.75L53.88 30.75Q51.50 31.13 50.38 32.69Q49.25 34.25 49.75 36.50L49.75 36.50Q50.63 40 52.63 42.75Q54.63 45.50 57.50 47.75L57.50 47.75Q60.50 50.13 64 51.44Q67.50 52.75 71.38 53.38L71.38 53.38Q75.13 53.88 78.94 53.75Q82.75 53.63 86.50 52.50L86.50 52.50Q86.75 52.50 86.94 52.50Q87.13 52.50 87.25 52.75L87.25 52.75Q87.38 53 87.19 53.13Q87 53.25 86.88 53.25L86.88 53.25Q86 54 85.13 54.69Q84.25 55.38 83.38 56.13L83.38 56.13Q80.13 58.50 76.44 59.88Q72.75 61.25 68.63 61.50L68.63 61.50Q65.75 61.75 63.13 60.81Q60.50 59.88 58.25 58L58.25 58Q56.50 56.63 55 54.94Q53.50 53.25 52 51.50L52 51.50Q50.88 50 49.63 48.63Q48.38 47.25 47.13 45.75L47.13 45.75Q46.38 44.88 45.56 44.06Q44.75 43.25 43.75 42.63L43.75 42.63Q42.25 41.63 40.56 41.25Q38.88 40.88 37 41.25L37 41.25Q34.50 41.75 33.31 43.63Q32.13 45.50 32.75 47.88L32.75 47.88Q34.25 53.13 37.69 56.38Q41.13 59.63 46.63 60.75L46.63 60.75Q46.75 60.75 46.94 60.75Q47.13 60.75 47.25 61L47.25 61Q44.38 61.63 41.56 61.44Q38.75 61.25 36.13 60.38L36.13 60.38Q30.63 58.63 26.25 55.38Q21.88 52.13 19.25 47L19.25 47Q17.50 43.75 16.69 40.25Q15.88 36.75 15.75 33.13L15.75 33.13Q15.63 30.88 15.63 28.50Q15.63 26.13 15.25 23.88L15.25 23.88Q14.75 21.13 14 18.50Q13.25 15.88 11.63 13.63L11.63 13.63Q9.75 11 7.25 9.69Q4.75 8.38 1.50 8.38L1.50 8.38Q1.13 8.38 0.75 8.38Q0.38 8.38 0 8.38L0 8.38Q0 8.13 0.19 8.06Q0.38 8 0.50 7.88L0.50 7.88Q3.13 5.88 6.19 4.69Q9.25 3.50 12.50 2.50L12.50 2.50Q14.25 2 16.13 1.69Q18 1.38 19.88 1.13L19.88 1.13Q20 1.13 20.13 1.13Q20.25 1.13 20.38 1L20.38 1L26.88 1ZM14.63 6.13L14.63 6.13Q15.38 6.88 16.13 7.38Q16.88 7.88 17.88 8L17.88 8Q19 8.13 20.06 7.63Q21.13 7.13 21.50 6.13L21.50 6.13Q21.75 5.50 21.63 5.38Q21.50 5.25 20.88 5.25L20.88 5.25Q20.50 5.25 20.13 5.31Q19.75 5.38 19.38 5.38L19.38 5.38Q18.13 5.50 17 5.69Q15.88 5.88 14.63 6.13ZM127 60.13L127 60.13Q126.13 60.50 125.38 60.88Q124.63 61.25 123.63 61.38L123.63 61.38Q121.50 61.75 119.50 61.25Q117.50 60.75 115.88 59.25L115.88 59.25Q115.50 59 115.19 58.75Q114.88 58.50 114.63 58.13L114.63 58.13Q113.25 56.63 111.56 55.81Q109.88 55 107.88 54.75L107.88 54.75Q107.63 54.75 107.50 54.75Q107.38 54.75 107.13 54.63L107.13 54.63Q109.13 53 112.19 52.69Q115.25 52.38 117.63 53.63L117.63 53.63Q118.75 54.13 119.63 54.81Q120.50 55.50 121.25 56.38L121.25 56.38Q122.38 57.63 123.81 58.56Q125.25 59.50 127 60L127 60L127 60.13ZM83.13 87.38L83.13 87.38Q82.88 87.13 82.56 87.06Q82.25 87 81.88 86.88L81.88 86.88Q80.25 86.38 78.81 85.50Q77.38 84.63 76.13 83.38L76.13 83.38Q73.75 80.88 72.13 79.81Q70.50 78.75 67.50 77.63L67.50 77.63Q67.50 77.50 67.69 77.44Q67.88 77.38 68 77.38L68 77.38Q69.50 77.38 71 77.50Q72.50 77.63 73.88 78L73.88 78Q76.63 78.63 78.69 80.06Q80.75 81.50 82.13 83.88L82.13 83.88Q82.75 84.75 83.38 85.56Q84 86.38 85 86.88L85 86.88Q85.13 87 85.25 87.06Q85.38 87.13 85.38 87.38L85.38 87.38L83.13 87.38ZM77.38 76.38L77.38 76.38Q76.50 76.13 75.63 75.94Q74.75 75.75 73.88 75.50L73.88 75.50Q71.13 74.75 68.38 74.81Q65.63 74.88 62.88 75.25L62.88 75.25Q61.38 75.38 59.94 75.63Q58.50 75.88 57.13 76L57.13 76Q52.75 76.50 48.63 75.50Q44.50 74.50 40.75 72.38L40.75 72.38Q37 70.13 33.69 67.44Q30.38 64.75 27.75 61.13L27.75 61.13Q27.63 60.88 27.44 60.63Q27.25 60.38 27.13 60.13L27.13 60.13L27 60Q27 59.88 26.94 59.81Q26.88 59.75 26.75 59.63L26.75 59.63Q27.13 59.50 27.31 59.63Q27.50 59.75 27.75 59.88L27.75 59.88Q29.75 61 31.81 62.13Q33.88 63.25 36 64L36 64Q40 65.38 43.88 65.31Q47.75 65.25 51.63 63.63L51.63 63.63Q53.50 62.88 55.38 62.88Q57.25 62.88 59.13 63.88L59.13 63.88Q59.25 63.88 59.44 64Q59.63 64.13 59.75 64.38L59.75 64.38Q58.88 64.50 58.06 64.75Q57.25 65 56.50 65.25L56.50 65.25Q55.88 65.38 55.31 65.81Q54.75 66.25 54.75 67.13L54.75 67.13Q54.63 67.75 55.06 68.31Q55.50 68.88 56.38 69.25L56.38 69.25Q58.13 70 60 70.25Q61.88 70.50 63.75 70.63L63.75 70.63Q66 70.63 68.13 71Q70.25 71.38 72.38 72.25L72.38 72.25Q73.50 72.75 74.50 73.44Q75.50 74.13 76.50 75L76.50 75Q76.88 75.25 77.06 75.56Q77.25 75.88 77.38 76.38L77.38 76.38ZM109.13 37.75L109.13 37.75Q109 37.25 108.88 37Q108.75 36.75 108.63 36.50L108.63 36.50Q106.88 32.88 104.06 31.50Q101.25 30.13 97.38 31.13L97.38 31.13Q95.63 31.63 93.88 32.25Q92.13 32.88 90.38 33L90.38 33Q81.75 34.13 74.31 31.56Q66.88 29 61.13 21.88L61.13 21.88Q60.88 21.63 60.63 21.38Q60.38 21.13 60.63 21L60.63 21Q60.88 20.63 61.06 20.94Q61.25 21.25 61.50 21.38L61.50 21.38Q66 24.63 70.88 26.13Q75.75 27.63 81.25 27.25L81.25 27.25Q83.75 27 86.06 26.38Q88.38 25.75 90.75 25L90.75 25Q92.88 24.38 94.94 24.06Q97 23.75 99.25 24.25L99.25 24.25Q104 25.25 106.69 28.88Q109.38 32.50 109.13 37.75ZM80.38 62.38L80.38 62.38Q80.50 62.25 80.56 62.25Q80.63 62.25 80.63 62.25L80.63 62.25Q82.75 61.50 84.44 60.19Q86.13 58.88 87.75 57.38L87.75 57.38Q89.25 55.75 90.69 54.13Q92.13 52.50 93.75 51.13L93.75 51.13Q97.13 48 101.06 47.06Q105 46.13 109.38 47.13L109.38 47.13Q110.50 47.38 111.44 47.94Q112.38 48.50 113.13 49.25L113.13 49.25Q112.25 49.13 111.44 49.13Q110.63 49.13 109.88 49L109.88 49Q108.38 48.75 107.06 49.25Q105.75 49.75 104.75 50.88L104.75 50.88Q104 51.75 103.25 52.63Q102.50 53.50 101.63 54.38L101.63 54.38L101.50 54.63Q98.50 58 94.69 59.75Q90.88 61.50 86.50 62.13L86.50 62.13Q85.25 62.25 83.94 62.38Q82.63 62.50 81.25 62.50L81.25 62.50Q81.13 62.50 80.88 62.50Q80.63 62.50 80.38 62.38L80.38 62.38ZM107.13 44.25L107.13 44.25Q106.38 44.50 105.75 44.31Q105.13 44.13 104.50 44L104.50 44Q100.88 43.50 97.50 44.13Q94.13 44.75 90.88 46.75L90.88 46.75Q86.13 49.75 80.88 50.38Q75.63 51 70.13 49.63L70.13 49.63Q69.50 49.50 68.81 49.25Q68.13 49 67.50 48.38L67.50 48.38Q68.25 48.38 68.88 48.50Q69.50 48.63 70.13 48.75L70.13 48.75Q72.88 49.13 75.38 48.44Q77.88 47.75 80.13 46.25L80.13 46.25Q82 45 83.94 43.94Q85.88 42.88 88 42.13L88 42.13Q92.13 40.75 96.25 40.69Q100.38 40.63 104.38 42.63L104.38 42.63Q105.13 42.88 105.75 43.31Q106.38 43.75 107.13 44.25L107.13 44.25ZM83.38 21.88L83.38 21.88Q81.25 23.13 79.13 23.50Q77 23.88 74.75 23.75L74.75 23.75Q68.50 23.25 63.38 20.31Q58.25 17.38 53.88 12.75L53.88 12.75Q53.75 12.63 53.63 12.44Q53.50 12.25 53.63 12.13L53.63 12.13Q53.63 11.88 53.88 11.94Q54.13 12 54.25 12L54.25 12Q58.50 12 62.31 13.19Q66.13 14.38 69.38 17.25L69.38 17.25Q70.13 17.88 70.81 18.44Q71.50 19 72.25 19.63L72.25 19.63Q74.38 21.38 76.81 21.94Q79.25 22.50 81.88 22L81.88 22Q82.13 21.88 82.38 21.88Q82.63 21.88 82.88 21.88L82.88 21.88Q83 21.88 83.13 21.88Q83.25 21.88 83.38 21.88L83.38 21.88L83.38 21.88ZM52.88 101.75L52.88 101.75Q52.38 101.75 52 101.81Q51.63 101.88 51.25 102L51.25 102Q51 102.25 50.69 102.44Q50.38 102.63 50.25 103L50.25 103L50.25 103Q50 103.25 49.88 103.63Q49.75 104 49.63 104.50L49.63 104.50Q49.50 104.88 49.44 105.31Q49.38 105.75 49.38 106.25L49.38 106.25Q49.38 106.38 49.38 106.38Q49.38 106.38 49.38 106.38L49.38 106.38L49.38 106.38Q49.38 106.88 49.44 107.38Q49.50 107.88 49.63 108.25L49.63 108.25Q49.63 108.75 49.75 109.13Q49.88 109.50 50.13 109.75L50.13 109.75Q50.25 110.13 50.56 110.38Q50.88 110.63 51.13 110.75L51.13 110.75Q51.50 111 51.88 111.06Q52.25 111.13 52.75 111.13L52.75 111.13Q53.25 111.13 53.63 111.06Q54 111 54.25 110.75L54.25 110.75Q54.63 110.63 54.88 110.38Q55.13 110.13 55.38 109.88L55.38 109.88L55.38 109.88Q55.63 109.63 55.75 109.25Q55.88 108.88 56 108.38L56 108.38Q56.13 108 56.13 107.50Q56.13 107 56.13 106.50L56.13 106.50Q56.13 106 56.13 105.50Q56.13 105 56 104.63L56 104.63Q56 104.13 55.81 103.75Q55.63 103.38 55.50 103L55.50 103L55.50 103.13Q55.25 102.75 55 102.50Q54.75 102.25 54.50 102.13L54.50 102.13L54.50 102.13Q54.13 101.88 53.69 101.81Q53.25 101.75 52.88 101.75L52.88 101.75ZM69.25 101.38L69.25 101.38Q68.88 101.38 68.56 101.44Q68.25 101.50 68 101.63L68 101.63Q67.63 101.88 67.44 102.06Q67.25 102.25 67 102.38L67 102.38L67 102.38Q66.88 102.63 66.75 102.94Q66.63 103.25 66.50 103.50L66.50 103.50Q66.38 103.88 66.31 104.19Q66.25 104.50 66.25 104.88L66.25 104.88L66.25 104.88L72.13 104.88Q72.13 104.13 71.94 103.44Q71.75 102.75 71.38 102.38L71.38 102.38Q71.13 101.88 70.56 101.63Q70 101.38 69.25 101.38L69.25 101.38ZM105.63 98.88L105.63 98.88Q106 98.88 106.25 98.88Q106.50 98.88 106.75 98.88L106.75 98.88Q106.88 98.88 107.06 98.94Q107.25 99 107.38 99L107.38 99Q107.50 99 107.56 99.06Q107.63 99.13 107.75 99.13L107.75 99.13Q107.75 99.25 107.81 99.31Q107.88 99.38 107.88 99.38L107.88 99.38L107.88 99.38L110.38 104L112.75 99.38Q112.88 99.38 112.88 99.31Q112.88 99.25 113 99.13L113 99.13L113 99.13Q113 99.13 113.06 99.06Q113.13 99 113.25 99L113.25 99L113.25 99Q113.38 99 113.50 99Q113.63 99 113.75 98.88L113.75 98.88Q114 98.88 114.25 98.88Q114.50 98.88 114.75 98.88L114.75 98.88Q115.13 98.88 115.38 98.88Q115.63 98.88 115.88 98.88L115.88 98.88Q116 99 116.19 99Q116.38 99 116.38 99.13L116.38 99.13Q116.50 99.13 116.56 99.19Q116.63 99.25 116.63 99.38L116.63 99.38Q116.63 99.50 116.56 99.63Q116.50 99.75 116.38 99.88L116.38 99.88L113 106.13L116.75 113.13Q116.88 113.25 116.88 113.31Q116.88 113.38 116.88 113.50L116.88 113.50Q116.88 113.63 116.81 113.69Q116.75 113.75 116.63 113.75L116.63 113.75Q116.50 113.88 116.38 113.88Q116.25 113.88 116 113.88L116 113.88Q115.75 114 115.44 114Q115.13 114 114.75 114L114.75 114Q114.50 114 114.19 114Q113.88 114 113.63 114L113.63 114Q113.50 114 113.31 113.94Q113.13 113.88 113 113.88L113 113.88L113 113.88Q112.88 113.88 112.81 113.81Q112.75 113.75 112.63 113.63L112.63 113.63L112.63 113.63Q112.63 113.63 112.56 113.56Q112.50 113.50 112.50 113.38L112.50 113.38L112.50 113.38L109.88 108.50L107.38 113.38Q107.38 113.50 107.31 113.56Q107.25 113.63 107.25 113.63L107.25 113.63L107.25 113.63Q107.13 113.75 107.06 113.81Q107 113.88 106.88 113.88L106.88 113.88L106.88 113.88Q106.75 113.88 106.56 113.94Q106.38 114 106.25 114L106.25 114L106.25 114Q106 114 105.75 114Q105.50 114 105.13 114L105.13 114Q104.88 114 104.56 114Q104.25 114 104.13 113.88L104.13 113.88Q103.88 113.88 103.75 113.88Q103.63 113.88 103.50 113.75L103.50 113.75Q103.38 113.75 103.38 113.69Q103.38 113.63 103.25 113.50L103.25 113.50Q103.25 113.38 103.31 113.31Q103.38 113.25 103.50 113.13L103.50 113.13L107.25 106.25L103.75 99.88Q103.63 99.75 103.63 99.63Q103.63 99.50 103.63 99.38L103.63 99.38L103.63 99.38Q103.63 99.25 103.63 99.19Q103.63 99.13 103.75 99.13L103.75 99.13Q103.88 99 104.06 99Q104.25 99 104.38 99L104.38 99Q104.63 98.88 104.94 98.88Q105.25 98.88 105.63 98.88L105.63 98.88ZM98.75 98.88L98.75 98.88Q99 98.88 99.25 98.88Q99.50 98.88 99.75 99L99.75 99Q99.88 99 100.06 99Q100.25 99 100.38 99.13L100.38 99.13Q100.38 99.13 100.50 99.19Q100.63 99.25 100.63 99.25L100.63 99.25Q100.63 99.38 100.69 99.44Q100.75 99.50 100.75 99.50L100.75 99.50L100.75 113.38Q100.75 113.38 100.75 113.38Q100.75 113.38 100.75 113.38L100.75 113.38Q100.75 113.38 100.69 113.50Q100.63 113.63 100.63 113.63L100.63 113.63L100.63 113.63Q100.63 113.75 100.50 113.75Q100.38 113.75 100.38 113.88L100.38 113.88L100.38 113.88Q100.25 113.88 100.06 113.88Q99.88 113.88 99.75 113.88L99.75 113.88Q99.50 114 99.25 114Q99 114 98.75 114L98.75 114Q98.50 114 98.25 114Q98 114 97.88 113.88L97.88 113.88Q97.63 113.88 97.50 113.88Q97.38 113.88 97.25 113.75L97.25 113.75L97.25 113.88Q97.13 113.75 97.06 113.75Q97 113.75 96.88 113.63L96.88 113.63L96.88 113.63Q96.88 113.63 96.88 113.50Q96.88 113.38 96.88 113.38L96.88 113.38Q96.88 113.38 96.88 113.38Q96.88 113.38 96.88 113.38L96.88 113.38L96.88 113.38L96.88 99.50Q96.88 99.50 96.88 99.44Q96.88 99.38 96.88 99.25L96.88 99.25Q97 99.25 97.06 99.19Q97.13 99.13 97.25 99.13L97.25 99.13L97.25 99.13Q97.38 99 97.50 99Q97.63 99 97.88 99L97.88 99Q98 98.88 98.25 98.88Q98.50 98.88 98.75 98.88L98.75 98.88ZM88.13 98.63L88.13 98.63Q88.75 98.63 89.38 98.75Q90 98.88 90.50 99.13L90.50 99.13Q91 99.38 91.38 99.69Q91.75 100 92 100.38L92 100.38L92 100.38Q92.38 100.75 92.56 101.25Q92.75 101.75 92.88 102.25L92.88 102.25Q93 102.75 93.06 103.38Q93.13 104 93.13 104.75L93.13 104.75L93.13 113.38Q93.13 113.38 93.13 113.38Q93.13 113.38 93.13 113.38L93.13 113.38Q93.13 113.38 93.13 113.50Q93.13 113.63 93.13 113.63L93.13 113.63L93.13 113.63Q93 113.75 92.94 113.75Q92.88 113.75 92.75 113.88L92.75 113.88L92.75 113.88Q92.63 113.88 92.50 113.88Q92.38 113.88 92.13 113.88L92.13 113.88L92.13 113.88Q92 114 91.75 114Q91.50 114 91.25 114L91.25 114Q90.88 114 90.69 114Q90.50 114 90.25 113.88L90.25 113.88Q90.13 113.88 89.94 113.88Q89.75 113.88 89.63 113.75L89.63 113.75L89.63 113.88Q89.63 113.75 89.50 113.75Q89.38 113.75 89.38 113.63L89.38 113.63L89.38 113.63Q89.38 113.63 89.31 113.50Q89.25 113.38 89.25 113.38L89.25 113.38Q89.25 113.38 89.25 113.38Q89.25 113.38 89.25 113.38L89.25 113.38L89.25 113.38L89.25 105.50Q89.25 105 89.25 104.56Q89.25 104.13 89.13 103.88L89.13 103.88Q89 103.63 88.94 103.38Q88.88 103.13 88.75 102.88L88.75 102.88L88.75 102.88Q88.50 102.75 88.38 102.56Q88.25 102.38 88 102.25L88 102.25L88 102.25Q87.75 102.13 87.50 102.06Q87.25 102 87 102L87 102Q87 102 87 102Q87 102 87 102L87 102L87 102Q86.63 102 86.25 102.13Q85.88 102.25 85.50 102.63L85.50 102.63Q85 102.88 84.63 103.25Q84.25 103.63 83.88 104.13L83.88 104.13L83.88 113.38Q83.88 113.38 83.88 113.38Q83.88 113.38 83.88 113.38L83.88 113.38Q83.88 113.38 83.81 113.50Q83.75 113.63 83.75 113.63L83.75 113.63L83.75 113.63Q83.75 113.75 83.63 113.75Q83.50 113.75 83.50 113.88L83.50 113.88L83.50 113.88Q83.38 113.88 83.19 113.88Q83 113.88 82.88 113.88L82.88 113.88Q82.63 114 82.44 114Q82.25 114 81.88 114L81.88 114Q81.63 114 81.38 114Q81.13 114 81 113.88L81 113.88Q80.75 113.88 80.63 113.88Q80.50 113.88 80.38 113.75L80.38 113.75L80.38 113.88Q80.25 113.75 80.19 113.69Q80.13 113.63 80 113.63L80 113.63Q80 113.63 80 113.50Q80 113.38 80 113.38L80 113.38Q80 113.38 80 113.38Q80 113.38 80 113.38L80 113.38L80 113.38L80 99.50Q80 99.50 80 99.50Q80 99.50 80 99.50L80 99.50Q80 99.38 80 99.31Q80 99.25 80 99.25L80 99.25L80 99.25Q80.13 99.25 80.19 99.19Q80.25 99.13 80.25 99L80.25 99Q80.38 99 80.50 99Q80.63 99 80.88 99L80.88 99Q81 98.88 81.19 98.88Q81.38 98.88 81.63 98.88L81.63 98.88Q81.88 98.88 82.06 98.88Q82.25 98.88 82.50 99L82.50 99Q82.63 99 82.75 99Q82.88 99 83 99L83 99Q83 99.13 83.06 99.13Q83.13 99.13 83.25 99.25L83.25 99.25L83.25 99.25Q83.25 99.25 83.25 99.31Q83.25 99.38 83.25 99.50L83.25 99.50Q83.25 99.50 83.25 99.50Q83.25 99.50 83.25 99.50L83.25 99.50L83.25 99.50L83.25 101.13Q83.88 100.50 84.44 100.06Q85 99.63 85.63 99.25L85.63 99.25Q86.13 99 86.75 98.81Q87.38 98.63 88.13 98.63L88.13 98.63L88.13 98.63ZM69.38 98.63L69.38 98.63Q70.25 98.63 70.94 98.75Q71.63 98.88 72.25 99.13L72.25 99.13Q72.88 99.38 73.38 99.75Q73.88 100.13 74.38 100.63L74.38 100.63Q74.75 101 75 101.56Q75.25 102.13 75.50 102.63L75.50 102.63L75.50 102.75Q75.63 103.38 75.75 104Q75.88 104.63 75.88 105.38L75.88 105.38L75.88 106Q75.88 106.38 75.81 106.63Q75.75 106.88 75.50 107.13L75.50 107.13Q75.38 107.25 75.19 107.31Q75 107.38 74.63 107.38L74.63 107.38L66.25 107.38Q66.25 107.88 66.31 108.25Q66.38 108.63 66.50 109L66.50 109Q66.50 109.38 66.69 109.69Q66.88 110 67.13 110.25L67.13 110.25Q67.38 110.50 67.69 110.69Q68 110.88 68.25 111L68.25 111L68.25 111Q68.63 111.13 69.06 111.19Q69.50 111.25 70 111.25L70 111.25Q70.50 111.25 71 111.25Q71.50 111.25 71.88 111.13L71.88 111.13Q72.25 111.13 72.56 111Q72.88 110.88 73.13 110.88L73.13 110.88Q73.50 110.75 73.69 110.69Q73.88 110.63 74.13 110.50L74.13 110.50Q74.25 110.38 74.44 110.38Q74.63 110.38 74.75 110.38L74.75 110.38Q74.75 110.38 74.81 110.38Q74.88 110.38 75 110.38L75 110.38Q75 110.38 75.06 110.44Q75.13 110.50 75.13 110.63L75.13 110.63L75.13 110.63Q75.13 110.63 75.13 110.75Q75.13 110.88 75.13 111L75.13 111Q75.25 111.13 75.25 111.25Q75.25 111.38 75.25 111.63L75.25 111.63Q75.25 111.75 75.25 111.94Q75.25 112.13 75.25 112.25L75.25 112.25Q75.13 112.38 75.13 112.44Q75.13 112.50 75.13 112.63L75.13 112.63L75.13 112.63Q75.13 112.75 75.13 112.81Q75.13 112.88 75 112.88L75 112.88L75 112.88Q75 113 74.94 113.06Q74.88 113.13 74.88 113.13L74.88 113.13L74.88 113.13Q74.88 113.25 74.75 113.31Q74.63 113.38 74.38 113.38L74.38 113.38Q74.13 113.50 73.81 113.63Q73.50 113.75 73.25 113.75L73.25 113.75Q72.88 113.88 72.44 113.94Q72 114 71.63 114.13L71.63 114.13Q71.13 114.13 70.63 114.19Q70.13 114.25 69.63 114.25L69.63 114.25Q68.75 114.25 67.94 114.13Q67.13 114 66.50 113.75L66.50 113.75Q65.75 113.50 65.19 113.19Q64.63 112.88 64.13 112.38L64.13 112.38Q63.63 111.88 63.31 111.31Q63 110.75 62.75 110L62.75 110Q62.50 109.25 62.38 108.38Q62.25 107.50 62.25 106.63L62.25 106.63Q62.25 105.63 62.38 104.81Q62.50 104 62.75 103.25L62.75 103.25Q63 102.50 63.38 101.88Q63.75 101.25 64.13 100.75L64.13 100.75Q64.63 100.25 65.19 99.88Q65.75 99.50 66.38 99.25L66.38 99.25L66.38 99.13Q67 98.88 67.75 98.75Q68.50 98.63 69.38 98.63L69.38 98.63ZM53 98.63L53 98.63Q53.88 98.63 54.69 98.75Q55.50 98.88 56.13 99.13L56.13 99.13Q56.88 99.38 57.44 99.75Q58 100.13 58.50 100.63L58.50 100.63Q58.88 101.13 59.19 101.69Q59.50 102.25 59.75 103L59.75 103Q60 103.75 60.13 104.56Q60.25 105.38 60.25 106.25L60.25 106.25Q60.25 107.13 60.13 107.94Q60 108.75 59.75 109.50L59.75 109.50Q59.50 110.25 59.13 110.88Q58.75 111.50 58.38 112L58.38 112Q57.88 112.50 57.25 112.94Q56.63 113.38 56 113.63L56 113.63Q55.25 114 54.44 114.13Q53.63 114.25 52.63 114.25L52.63 114.25Q51.75 114.25 50.94 114.13Q50.13 114 49.38 113.75L49.38 113.75Q48.75 113.50 48.19 113.13Q47.63 112.75 47.13 112.25L47.13 112.25Q46.75 111.75 46.38 111.13Q46 110.50 45.75 109.88L45.75 109.88Q45.63 109.13 45.50 108.31Q45.38 107.50 45.38 106.63L45.38 106.63Q45.38 105.75 45.50 104.94Q45.63 104.13 45.88 103.38L45.88 103.38Q46.13 102.63 46.44 102Q46.75 101.38 47.25 100.88L47.25 100.88Q47.75 100.25 48.31 99.88Q48.88 99.50 49.63 99.25L49.63 99.25Q50.38 98.88 51.19 98.75Q52 98.63 53 98.63L53 98.63ZM18.50 97L16.75 97L16.75 103.75L18.63 103.75Q19.13 103.75 19.50 103.69Q19.88 103.63 20.25 103.50L20.25 103.50Q20.63 103.38 20.88 103.19Q21.13 103 21.38 102.75L21.38 102.75Q21.50 102.50 21.69 102.25Q21.88 102 22 101.63L22 101.63L22 101.63Q22.13 101.38 22.13 101Q22.13 100.63 22.13 100.25L22.13 100.25Q22.13 100.25 22.13 100.25Q22.13 100.25 22.13 100.25L22.13 100.25L22.13 100.25Q22.13 99.63 22.06 99.19Q22 98.75 21.75 98.50L21.75 98.50Q21.63 98.13 21.38 97.88Q21.13 97.63 20.88 97.50L20.88 97.50Q20.63 97.25 20.38 97.19Q20.13 97.13 19.75 97L19.75 97L19.75 97Q19.50 97 19.19 97Q18.88 97 18.50 97L18.50 97Q18.50 97 18.50 97Q18.50 97 18.50 97L18.50 97L18.50 97ZM14.13 93.88L14.13 93.88L18.88 93.88Q19.13 93.88 19.50 93.88Q19.88 93.88 20.13 93.88L20.13 93.88Q20.50 93.88 20.88 93.94Q21.25 94 21.75 94.13L21.75 94.13Q22.25 94.25 22.69 94.38Q23.13 94.50 23.63 94.75L23.63 94.75L23.50 94.75Q24 95 24.38 95.31Q24.75 95.63 25.13 96L25.13 96L25.13 96Q25.38 96.38 25.63 96.81Q25.88 97.25 26.13 97.63L26.13 97.63L26.13 97.75Q26.25 98.25 26.38 98.75Q26.50 99.25 26.50 99.88L26.50 99.88Q26.50 100.75 26.31 101.50Q26.13 102.25 25.88 102.88L25.88 102.88Q25.63 103.50 25.25 104.06Q24.88 104.63 24.38 105.13L24.38 105.13L24.38 105.13Q23.88 105.50 23.25 105.88Q22.63 106.25 21.88 106.50L21.88 106.50Q21.13 106.63 20.31 106.75Q19.50 106.88 18.50 106.88L18.50 106.88L16.75 106.88L16.75 113.38Q16.75 113.38 16.75 113.38Q16.75 113.38 16.75 113.38L16.75 113.38Q16.75 113.38 16.75 113.44Q16.75 113.50 16.75 113.63L16.75 113.63L16.75 113.63Q16.63 113.63 16.56 113.69Q16.50 113.75 16.38 113.75L16.38 113.75Q16.25 113.88 16.06 113.88Q15.88 113.88 15.75 113.88L15.75 113.88Q15.50 114 15.31 114Q15.13 114 14.88 114L14.88 114Q14.88 114 14.81 114Q14.75 114 14.75 114L14.75 114L14.75 114Q14.75 114 14.69 114Q14.63 114 14.63 114L14.63 114Q14.38 114 14.19 114Q14 114 13.75 113.88L13.75 113.88L13.75 113.88Q13.63 113.88 13.44 113.88Q13.25 113.88 13.13 113.75L13.13 113.75L13.13 113.75Q13 113.75 12.94 113.69Q12.88 113.63 12.75 113.63L12.75 113.63Q12.75 113.50 12.75 113.44Q12.75 113.38 12.75 113.38L12.75 113.38Q12.75 113.38 12.75 113.38Q12.75 113.38 12.75 113.38L12.75 113.38L12.75 113.38L12.75 95.25Q12.75 94.88 12.81 94.63Q12.88 94.38 13.13 94.13L13.13 94.13Q13.25 94 13.50 93.94Q13.75 93.88 14.13 93.88L14.13 93.88ZM98.75 92.88L98.75 92.88Q99.50 92.88 99.94 92.94Q100.38 93 100.50 93.25L100.50 93.25Q100.75 93.50 100.88 93.88Q101 94.25 101 94.88L101 94.88Q101 95.38 100.88 95.81Q100.75 96.25 100.50 96.50L100.50 96.50Q100.25 96.75 99.81 96.81Q99.38 96.88 98.75 96.88L98.75 96.88Q98.13 96.88 97.69 96.81Q97.25 96.75 97 96.50L97 96.50Q96.75 96.25 96.63 95.88Q96.50 95.50 96.50 94.88L96.50 94.88Q96.50 94.38 96.63 93.94Q96.75 93.50 97 93.25L97 93.25Q97.25 93 97.69 92.94Q98.13 92.88 98.75 92.88L98.75 92.88ZM31.25 92.25L31.25 92.25Q31.63 92.25 31.81 92.31Q32 92.38 32.25 92.38L32.25 92.38Q32.38 92.38 32.56 92.38Q32.75 92.38 32.88 92.50L32.88 92.50Q33 92.50 33.06 92.56Q33.13 92.63 33.13 92.63L33.13 92.63L33.13 92.63Q33.25 92.75 33.25 92.81Q33.25 92.88 33.25 93L33.25 93Q33.25 93 33.25 93Q33.25 93 33.25 93L33.25 93L33.25 93L33.25 100.63Q33.75 100.13 34.25 99.75Q34.75 99.38 35.25 99.13L35.25 99.13Q35.75 98.88 36.31 98.75Q36.88 98.63 37.50 98.63L37.50 98.63L37.50 98.63Q38.25 98.63 38.81 98.75Q39.38 98.88 39.88 99.13L39.88 99.13Q40.38 99.38 40.75 99.69Q41.13 100 41.38 100.38L41.38 100.38L41.38 100.38Q41.75 100.75 41.94 101.25Q42.13 101.75 42.25 102.25L42.25 102.25Q42.38 102.75 42.44 103.44Q42.50 104.13 42.50 104.88L42.50 104.88L42.50 113.38Q42.50 113.38 42.50 113.38Q42.50 113.38 42.50 113.38L42.50 113.38Q42.50 113.38 42.50 113.50Q42.50 113.63 42.50 113.63L42.50 113.63L42.50 113.63Q42.38 113.75 42.31 113.75Q42.25 113.75 42.13 113.88L42.13 113.88L42.13 113.88Q42 113.88 41.88 113.88Q41.75 113.88 41.63 113.88L41.63 113.88L41.50 113.88Q41.38 114 41.13 114Q40.88 114 40.63 114L40.63 114Q40.38 114 40.13 114Q39.88 114 39.63 113.88L39.63 113.88Q39.50 113.88 39.38 113.88Q39.25 113.88 39 113.75L39 113.75L39.13 113.88Q39 113.75 38.94 113.75Q38.88 113.75 38.75 113.63L38.75 113.63L38.75 113.63Q38.75 113.63 38.69 113.50Q38.63 113.38 38.63 113.38L38.63 113.38Q38.63 113.38 38.63 113.38Q38.63 113.38 38.63 113.38L38.63 113.38L38.63 113.38L38.63 105.50Q38.63 105 38.63 104.56Q38.63 104.13 38.50 103.88L38.50 103.88Q38.50 103.63 38.38 103.38Q38.25 103.13 38.13 102.88L38.13 102.88L38.13 102.88Q38 102.75 37.81 102.56Q37.63 102.38 37.38 102.25L37.38 102.25L37.38 102.25Q37.13 102.13 36.88 102.06Q36.63 102 36.38 102L36.38 102Q36.38 102 36.38 102Q36.38 102 36.38 102L36.38 102L36.38 102Q36 102 35.63 102.13Q35.25 102.25 34.88 102.63L34.88 102.63Q34.50 102.88 34.06 103.25Q33.63 103.63 33.25 104.13L33.25 104.13L33.25 113.38Q33.25 113.38 33.25 113.38Q33.25 113.38 33.25 113.38L33.25 113.38Q33.25 113.38 33.25 113.50Q33.25 113.63 33.13 113.63L33.13 113.63L33.13 113.63Q33.13 113.75 33.06 113.75Q33 113.75 32.88 113.88L32.88 113.88L32.88 113.88Q32.75 113.88 32.56 113.88Q32.38 113.88 32.25 113.88L32.25 113.88Q32 114 31.81 114Q31.63 114 31.38 114L31.38 114Q31.38 114 31.31 114Q31.25 114 31.25 114L31.25 114L31.25 114Q31 114 30.75 114Q30.50 114 30.38 113.88L30.38 113.88Q30.25 113.88 30.06 113.88Q29.88 113.88 29.75 113.75L29.75 113.75L29.75 113.88Q29.63 113.75 29.56 113.75Q29.50 113.75 29.50 113.63L29.50 113.63L29.50 113.63Q29.38 113.63 29.38 113.50Q29.38 113.38 29.38 113.38L29.38 113.38Q29.38 113.38 29.38 113.38Q29.38 113.38 29.38 113.38L29.38 113.38L29.38 113.38L29.38 93Q29.38 92.88 29.38 92.81Q29.38 92.75 29.50 92.63L29.50 92.63Q29.50 92.63 29.56 92.56Q29.63 92.50 29.75 92.50L29.75 92.50L29.75 92.50Q29.88 92.38 30 92.38Q30.13 92.38 30.38 92.38L30.38 92.38L30.38 92.38Q30.50 92.38 30.75 92.31Q31 92.25 31.25 92.25L31.25 92.25Z"/></svg>