<svg xmlns="http://www.w3.org/2000/svg" xmlns:xlink="http://www.w3.org/1999/xlink" width="128" height="128"><path fill="#ffffff" d="M27.25 20.25L27.25 20.25Q27.88 20.63 28.56 20.63Q29.25 20.63 29.88 20.75L29.88 20.75Q35.13 21.38 39.38 23.75Q43.63 26.13 47.25 29.63L47.25 29.63Q50.25 32.63 52.88 35.81Q55.50 39 58.25 42.13L58.25 42.13Q60.50 44.75 62.94 47.06Q65.38 49.38 68.25 51.25L68.25 51.25Q71.38 53.13 74.69 54.19Q78 55.25 81.63 55.38L81.63 55.38Q81.75 55.38 81.88 55.38Q82 55.38 82.13 55.38L82.13 55.38Q82.13 55.38 82.13 55.38Q82.13 55.38 82.25 55.50L82.25 55.50Q80.88 56.50 79.38 57.13Q77.88 57.75 76.25 58.13L76.25 58.13Q72.75 59 69.44 58.25Q66.13 57.50 63.25 55.13L63.25 55.13Q62.50 54.50 61.75 53.81Q61 53.13 60.13 52.38L60.13 52.38Q58.88 51.38 57.38 50.88Q55.88 50.38 54.25 50.63L54.25 50.63Q51.88 50.88 50.75 52.50Q49.63 54.13 50.25 56.38L50.25 56.38Q51 60 53 62.81Q55 65.63 57.88 67.88L57.88 67.88Q61 70.25 64.50 71.63Q68 73 71.88 73.50L71.88 73.50Q75.63 74.13 79.44 74Q83.25 73.88 86.88 72.75L86.88 72.75Q87.13 72.63 87.38 72.69Q87.63 72.75 87.75 73L87.75 73Q87.88 73.25 87.69 73.31Q87.50 73.38 87.38 73.50L87.38 73.50Q86.50 74.25 85.63 74.94Q84.75 75.63 83.75 76.38L83.75 76.38Q80.50 78.75 76.81 80.13Q73.13 81.50 69.13 81.88L69.13 81.88Q66.13 82 63.56 81.06Q61 80.13 58.63 78.38L58.63 78.38Q56.88 76.88 55.38 75.13Q53.88 73.38 52.50 71.63L52.50 71.63Q51.25 70.25 50 68.81Q48.75 67.38 47.50 65.88L47.50 65.88Q46.75 65 45.94 64.19Q45.13 63.38 44.13 62.63L44.13 62.63Q42.63 61.63 40.94 61.25Q39.25 60.88 37.38 61.25L37.38 61.25Q34.88 61.75 33.69 63.63Q32.50 65.50 33.13 68L33.13 68Q34.63 73.38 38.06 76.69Q41.50 80 47 81L47 81Q47.13 81.13 47.31 81.13Q47.50 81.13 47.63 81.38L47.63 81.38Q44.75 81.88 42 81.75Q39.25 81.63 36.50 80.75L36.50 80.75Q31 78.88 26.63 75.63Q22.25 72.38 19.63 67.13L19.63 67.13Q17.88 63.75 17.06 60.25Q16.25 56.75 16.13 53L16.13 53Q16 50.63 16 48.25Q16 45.88 15.63 43.63L15.63 43.63Q15.13 40.75 14.38 38.13Q13.63 35.50 12 33.13L12 33.13Q10.13 30.50 7.63 29.13Q5.13 27.75 1.88 27.88L1.88 27.88Q1.50 27.88 1.13 27.88Q0.75 27.88 0.38 27.88L0.38 27.88Q0.38 27.63 0.50 27.50Q0.63 27.38 0.75 27.25L0.75 27.25Q3.50 25.25 6.56 24Q9.63 22.75 12.88 21.88L12.88 21.88Q14.63 21.38 16.50 21Q18.38 20.63 20.25 20.50L20.25 20.50Q20.38 20.50 20.50 20.50Q20.63 20.50 20.75 20.25L20.75 20.25L27.25 20.25ZM15 25.63L15 25.63Q15.75 26.38 16.50 26.81Q17.25 27.25 18.25 27.38L18.25 27.38Q19.38 27.63 20.44 27.06Q21.50 26.50 21.88 25.50L21.88 25.50Q22.13 24.88 22 24.75Q21.88 24.63 21.25 24.63L21.25 24.63Q20.88 24.63 20.50 24.69Q20.13 24.75 19.75 24.75L19.75 24.75Q18.50 24.88 17.38 25.06Q16.25 25.25 15 25.63ZM127.88 80.25L127.88 80.25Q127.13 80.50 126.31 80.94Q125.50 81.38 124.50 81.50L124.50 81.50Q122.38 81.75 120.38 81.31Q118.38 80.88 116.63 79.25L116.63 79.25Q116.25 79 115.94 78.75Q115.63 78.50 115.38 78.13L115.38 78.13Q114 76.63 112.25 75.75Q110.50 74.88 108.50 74.75L108.50 74.75Q108.25 74.63 108.13 74.63Q108 74.63 107.75 74.63L107.75 74.63Q109.75 72.75 112.88 72.44Q116 72.13 118.50 73.50L118.50 73.50Q119.50 74 120.38 74.75Q121.25 75.50 122.13 76.25L122.13 76.25Q123.25 77.63 124.75 78.56Q126.25 79.50 127.88 80L127.88 80L127.88 80.25ZM83.50 107.75L83.50 107.75Q83.25 107.50 82.94 107.44Q82.63 107.38 82.38 107.25L82.38 107.25Q80.75 106.75 79.31 105.81Q77.88 104.88 76.63 103.63L76.63 103.63Q74.38 101.13 72.75 100Q71.13 98.88 68.13 97.75L68.13 97.75Q68.13 97.50 68.31 97.50Q68.50 97.50 68.63 97.50L68.63 97.50Q70.13 97.38 71.56 97.50Q73 97.63 74.50 98L74.50 98Q77.13 98.75 79.19 100.25Q81.25 101.75 82.63 104.13L82.63 104.13Q83.13 105.13 83.81 105.88Q84.50 106.63 85.38 107.25L85.38 107.25Q85.50 107.38 85.63 107.44Q85.75 107.50 85.75 107.75L85.75 107.75L83.50 107.75ZM77.88 96.38L77.88 96.38Q77 96.13 76.13 95.88Q75.25 95.63 74.38 95.38L74.38 95.38Q71.63 94.63 68.81 94.69Q66 94.75 63.13 95.13L63.13 95.13Q61.63 95.38 60.19 95.56Q58.75 95.75 57.25 95.88L57.25 95.88Q52.88 96.38 48.69 95.38Q44.50 94.38 40.75 92.25L40.75 92.25Q36.88 90.13 33.50 87.38Q30.13 84.63 27.50 81L27.50 81Q27.38 80.63 27.19 80.38Q27 80.13 26.75 79.88L26.75 79.88Q26.75 79.75 26.69 79.63Q26.63 79.50 26.50 79.38L26.50 79.38Q26.88 79.25 27.06 79.44Q27.25 79.63 27.50 79.75L27.50 79.75Q29.50 80.88 31.56 82Q33.63 83.13 35.88 83.88L35.88 83.88Q39.88 85.25 43.81 85.19Q47.75 85.13 51.75 83.50L51.75 83.50Q53.63 82.75 55.50 82.75Q57.38 82.75 59.25 83.75L59.25 83.75Q59.50 83.75 59.69 83.88Q59.88 84 60 84.25L60 84.25Q59.13 84.38 58.31 84.63Q57.50 84.88 56.75 85.13L56.75 85.13Q56 85.25 55.50 85.69Q55 86.13 54.88 87L54.88 87Q54.88 87.63 55.25 88.19Q55.63 88.75 56.50 89.13L56.50 89.13Q58.38 89.88 60.25 90.13Q62.13 90.38 64.13 90.50L64.13 90.50Q66.38 90.50 68.50 90.88Q70.63 91.25 72.75 92.13L72.75 92.13Q73.88 92.63 74.94 93.38Q76 94.13 77 94.88L77 94.88Q77.38 95.13 77.56 95.50Q77.75 95.88 77.88 96.38L77.88 96.38ZM110.25 57.38L110.25 57.38Q110 57 109.88 56.75Q109.75 56.50 109.63 56.25L109.63 56.25Q107.88 52.63 105 51.25Q102.13 49.88 98.25 51L98.25 51Q96.50 51.50 94.69 52.06Q92.88 52.63 91.13 52.88L91.13 52.88Q82.25 53.75 74.69 51.25Q67.13 48.75 61.13 41.88L61.13 41.88Q61 41.63 60.75 41.38Q60.50 41.13 60.63 41L60.63 41Q61 40.63 61.19 40.94Q61.38 41.25 61.63 41.38L61.63 41.38Q66.13 44.63 71.19 46.06Q76.25 47.50 81.75 47.13L81.75 47.13Q84.25 46.88 86.69 46.25Q89.13 45.63 91.50 45L91.50 45Q93.63 44.38 95.75 44.06Q97.88 43.75 100.13 44.13L100.13 44.13Q105 45.13 107.75 48.69Q110.50 52.25 110.25 57.38L110.25 57.38ZM80.63 82.63L80.63 82.63Q80.75 82.63 80.81 82.56Q80.88 82.50 80.88 82.50L80.88 82.50Q83.13 81.88 84.88 80.56Q86.63 79.25 88.25 77.63L88.25 77.63Q89.75 76 91.25 74.38Q92.75 72.75 94.38 71.38L94.38 71.38Q97.88 68.25 101.94 67.31Q106 66.38 110.50 67.38L110.50 67.38Q111.63 67.63 112.56 68.19Q113.50 68.75 114.38 69.50L114.38 69.50Q113.38 69.38 112.56 69.38Q111.75 69.38 111 69.25L111 69.25Q109.38 69 108.06 69.50Q106.75 70 105.75 71.13L105.75 71.13Q105 72 104.19 72.88Q103.38 73.75 102.50 74.63L102.50 74.63L102.38 74.88Q99.25 78.25 95.38 80.06Q91.50 81.88 87 82.38L87 82.38Q85.63 82.63 84.31 82.75Q83 82.88 81.63 82.75L81.63 82.75Q81.38 82.75 81.13 82.81Q80.88 82.88 80.63 82.63L80.63 82.63ZM107.63 64.25L107.63 64.25Q106.88 64.38 106.25 64.19Q105.63 64 105 63.88L105 63.88Q101.38 63.38 98 64Q94.63 64.63 91.50 66.63L91.50 66.63Q86.63 69.63 81.44 70.25Q76.25 70.88 70.88 69.50L70.88 69.50Q70.13 69.38 69.50 69.13Q68.88 68.88 68.13 68.38L68.13 68.38Q68.88 68.25 69.50 68.38Q70.13 68.50 70.75 68.63L70.75 68.63Q73.50 69 76 68.31Q78.50 67.63 80.75 66.13L80.75 66.13Q82.63 64.88 84.56 63.81Q86.50 62.75 88.63 62L88.63 62Q92.75 60.63 96.81 60.56Q100.88 60.50 104.88 62.50L104.88 62.50Q105.50 62.75 106.19 63.19Q106.88 63.63 107.63 64.25L107.63 64.25ZM84.38 41.50L84.38 41.50Q82.13 42.75 79.94 43.13Q77.75 43.50 75.50 43.25L75.50 43.25Q69 42.88 63.75 40Q58.50 37.13 54 32.63L54 32.63Q53.88 32.50 53.75 32.31Q53.63 32.13 53.75 32L53.75 32Q53.75 31.75 54 31.75Q54.25 31.75 54.38 31.75L54.38 31.75Q58.75 31.75 62.69 32.94Q66.63 34.13 70 37L70 37Q70.63 37.63 71.38 38.19Q72.13 38.75 72.88 39.25L72.88 39.25Q75.13 40.88 77.63 41.50Q80.13 42.13 82.88 41.50L82.88 41.50Q83.13 41.50 83.50 41.50Q83.88 41.50 84.38 41.50L84.38 41.50Z"/></svg>