<svg xmlns="http://www.w3.org/2000/svg" xmlns:xlink="http://www.w3.org/1999/xlink" width="128" height="128"><path fill="#000000" d="M126.63 98.50L126.63 98.50Q123.25 99.25 120.94 98.38Q118.63 97.50 116.75 94.75L116.75 94.75Q112.50 88.25 107.88 82.13Q103.25 76 98.75 69.75L98.75 69.75Q98.13 69 97.50 68.19Q96.88 67.38 96.13 66.38L96.13 66.38Q90.75 73.63 85.44 80.63Q80.13 87.63 75.13 94.75L75.13 94.75Q73.38 97.38 71.25 98.38Q69.13 99.38 65.75 98.50L65.75 98.50L92.63 62.38L67.63 29.75Q70.88 29.13 73.19 29.69Q75.50 30.25 77.50 33.13L77.50 33.13Q81.88 39.50 86.63 45.69Q91.38 51.88 96.25 58.38L96.25 58.38Q101 52 105.75 45.81Q110.50 39.63 115 33.25L115 33.25Q116.75 30.75 118.94 29.81Q121.13 28.88 124.38 29.75L124.38 29.75Q121.88 33 119.44 36.25Q117 39.50 114.63 42.63L114.63 42.63Q111.38 47 108.13 51.31Q104.88 55.63 101.50 59.88L101.50 59.88Q100.25 61.38 100.38 62.50Q100.50 63.63 101.50 65L101.50 65Q104.63 69.13 107.75 73.25L107.75 73.25Q110.88 77.38 114 81.56Q117.13 85.75 120.38 90L120.38 90Q123.50 94.13 126.63 98.50ZM1.38 61.75L1.38 61.75Q1.88 59 2.31 56.31Q2.75 53.63 3.50 50.88L3.50 50.88Q5.75 42.88 11.13 37.38L11.13 37.38Q16.38 31.75 23.19 29.31Q30 26.88 37.38 27.88L37.38 27.88Q44.75 28.88 51 33.88L51 33.88Q58.50 39.75 60.88 47.75Q63.25 55.75 62.88 65L62.88 65L7.13 65Q6.75 73.38 9.38 79.88L9.38 79.88Q12.13 86.38 16.94 90.31Q21.75 94.25 28.38 95.25L28.38 95.25Q35 96.38 42.63 93.75L42.63 93.75Q48 92 51.25 88Q54.50 84 56.13 78.75L56.13 78.75Q56.88 76.13 58.31 75.56Q59.75 75 62.25 75.75L62.25 75.75Q61 82.25 57.88 87.63Q54.75 93 48.75 96.38L48.75 96.38Q44.25 99 39 99.88L39 99.88Q33.75 100.75 28.56 100.06Q23.38 99.38 18.63 97.25L18.63 97.25Q14 95.13 10.63 91.50L10.63 91.50Q6.63 87.25 4.69 82.13Q2.75 77 2 71.38L2 71.38Q1.88 70.50 1.69 69.63Q1.50 68.75 1.25 67.88L1.25 67.88Q1.38 64.75 1.38 61.75L1.38 61.75ZM7.25 60.25L7.25 60.25L57.63 60.25Q57.50 54.25 55.63 49.13L55.63 49.13Q53.88 44.13 50.69 40.50Q47.50 36.88 43.13 34.75L43.13 34.75Q38.75 32.75 33.63 32.63L33.63 32.63Q28 32.63 23.25 34.63L23.25 34.63Q18.50 36.63 15 40.25Q11.50 43.88 9.50 49L9.50 49Q7.50 54 7.25 60.25L7.25 60.25Z"/></svg>