<svg xmlns="http://www.w3.org/2000/svg" xmlns:xlink="http://www.w3.org/1999/xlink" width="128" height="128"><path fill="#ffffff" d="M42.13 77.88L40.50 77.88L40.50 50.75L42 50.75L42 55Q42.13 54.88 42.25 54.75Q42.38 54.63 42.50 54.38L42.50 54.38Q43.38 52.50 45.13 51.38Q46.88 50.25 49 50.25L49 50.25Q49 50.25 49.06 50.25Q49.13 50.25 49.13 50.25L49.13 50.25Q51.63 50.25 53.63 51.19Q55.63 52.13 56.75 54.38L56.75 54.38Q57.63 55.75 58 57.38Q58.38 59 58.38 60.75L58.38 60.75Q58.38 62.38 58.06 63.81Q57.75 65.25 57.13 66.63L57.13 66.63Q56 69.13 53.50 70.25Q51 71.38 48 70.88L48 70.88Q46.13 70.75 44.56 69.69Q43 68.63 42.13 67.13L42.13 67.13L42.13 77.88ZM42 60.13L42 60.38Q42.13 61.25 42.19 62Q42.25 62.75 42.38 63.50L42.38 63.50Q42.75 66.25 44.31 67.81Q45.88 69.38 48.38 69.63L48.38 69.63Q48.63 69.75 48.94 69.75Q49.25 69.75 49.50 69.75L49.50 69.75Q51.75 69.75 53.50 68.50Q55.25 67.25 56 65.38L56 65.38Q56.38 64.25 56.63 63.13Q56.88 62 56.88 60.75L56.88 60.75Q56.88 59.38 56.56 58.06Q56.25 56.75 55.75 55.50L55.75 55.50Q54.88 53.75 53.25 52.69Q51.63 51.63 49.50 51.63L49.50 51.63Q49.25 51.63 49.06 51.63Q48.88 51.63 48.63 51.63L48.63 51.63Q46.50 51.75 44.88 53.13Q43.25 54.50 42.75 56.50L42.75 56.50Q42.50 57.25 42.31 58.19Q42.13 59.13 42 60.13L42 60.13ZM88.38 64L88.38 64Q88 67 85.81 69Q83.63 71 80.63 71L80.63 71Q76 71.25 73.75 68.63Q71.50 66 71.13 62.50L71.13 62.50Q71.13 62.13 71.06 61.69Q71 61.25 71 60.88L71 60.88Q71 59.25 71.38 57.75Q71.75 56.25 72.38 54.88L72.38 54.88Q73.38 52.88 75.38 51.56Q77.38 50.25 79.88 50.25L79.88 50.25Q80.25 50.25 80.56 50.25Q80.88 50.25 81.13 50.38L81.13 50.38Q83.63 50.50 85.56 52.19Q87.50 53.88 88.13 56.38L88.13 56.38Q88.38 57.38 88.56 58.50Q88.75 59.63 88.88 60.75L88.88 60.75L72.63 60.88Q72.50 64.13 74 66.50Q75.50 68.88 77.88 69.50L77.88 69.50Q81 70.25 83.38 69Q85.75 67.75 86.75 64.88L86.75 64.88Q86.88 64.13 87.31 63.94Q87.75 63.75 88.38 64L88.38 64ZM72.63 59.50L72.63 59.50L87.13 59.50Q87.13 56.13 85.19 53.88Q83.25 51.63 80.38 51.63L80.38 51.63Q77.13 51.63 75 53.81Q72.88 56 72.63 59.50ZM91.38 64.13L91.38 64.13L92.75 64.13Q92.88 65.75 93.81 67.06Q94.75 68.38 96.13 69L96.13 69Q96.88 69.38 97.81 69.56Q98.75 69.75 99.75 69.75L99.75 69.75Q100.88 69.75 101.88 69.50Q102.88 69.25 103.75 68.75L103.75 68.75Q104.63 68.38 105.19 67.56Q105.75 66.75 105.75 65.75L105.75 65.75Q105.75 65.63 105.75 65.56Q105.75 65.50 105.75 65.50L105.75 65.50Q105.75 65.38 105.75 65.38Q105.75 65.38 105.75 65.25L105.75 65.25Q105.75 64.25 105.19 63.44Q104.63 62.63 103.63 62.38L103.63 62.38Q102.50 61.88 101.25 61.63Q100 61.38 98.88 61L98.88 61Q97.38 60.50 96.19 60.06Q95 59.63 93.75 59.13L93.75 59.13Q92 58.25 92 55.44Q92 52.63 94.13 51.50L94.13 51.50Q95.25 50.88 96.56 50.56Q97.88 50.25 99.25 50.25L99.25 50.25Q100.50 50.25 101.69 50.56Q102.88 50.88 104 51.38L104 51.38Q105.13 52 105.88 53.19Q106.63 54.38 106.63 55.88L106.63 55.88Q106.63 56.13 106.63 56.31Q106.63 56.50 106.50 56.63L106.50 56.63L105.38 56.63Q105.38 56.63 105.31 56.56Q105.25 56.50 105.25 56.50L105.25 56.50Q105.13 53.50 103 52.44Q100.88 51.38 98.25 51.75L98.25 51.75Q97.50 51.75 96.75 52Q96 52.25 95.25 52.63L95.25 52.63Q94.50 53 94 53.69Q93.50 54.38 93.50 55.38L93.50 55.38Q93.50 55.38 93.50 55.44Q93.50 55.50 93.50 55.63L93.50 55.63Q93.63 56.63 94.13 57.38Q94.63 58.13 95.50 58.38L95.50 58.38Q96.75 58.88 97.94 59.19Q99.13 59.50 100.25 59.75L100.25 59.75Q101.25 60 102.19 60.25Q103.13 60.50 104.13 60.75L104.13 60.75Q105.38 61.25 106.25 62.31Q107.13 63.38 107.25 64.88L107.25 64.88Q107.25 65 107.25 65.19Q107.25 65.38 107.25 65.50L107.25 65.50Q107.25 67 106.50 68.13Q105.75 69.25 104.63 69.88L104.63 69.88Q102.13 71.25 98.63 70.94Q95.13 70.63 93.38 68.88L93.38 68.88Q92.38 68 91.88 66.75Q91.38 65.50 91.38 64.13L91.38 64.13Q91.38 64.13 91.38 64.13Q91.38 64.13 91.38 64.13L91.38 64.13ZM125.25 56.63L125.25 56.63L123.88 56.63Q123.88 56.50 123.81 56.38Q123.75 56.25 123.75 56.13L123.75 56.13Q123.75 54.50 122.75 53.38Q121.75 52.25 120.25 52L120.25 52Q119.75 51.75 119.13 51.69Q118.50 51.63 117.88 51.63L117.88 51.63Q117 51.63 116.19 51.75Q115.38 51.88 114.63 52.25L114.63 52.25Q113.50 52.50 112.81 53.38Q112.13 54.25 112.13 55.50L112.13 55.50Q112.13 55.50 112.13 55.50Q112.13 55.50 112.13 55.63L112.13 55.63Q112.13 56.63 112.81 57.50Q113.50 58.38 114.50 58.63L114.50 58.63Q116.13 59.13 117.63 59.44Q119.13 59.75 120.63 60.13L120.63 60.13Q121.25 60.38 121.75 60.50Q122.25 60.63 122.75 60.75L122.75 60.75Q124.13 61.38 125 62.63Q125.88 63.88 125.88 65.50L125.88 65.50Q125.88 67 125.06 68.25Q124.25 69.50 122.88 70.13L122.88 70.13Q121.88 70.50 120.69 70.81Q119.50 71.13 118.25 71.13L118.25 71.13Q117.13 71.13 116 70.88Q114.88 70.63 113.75 70.13L113.75 70.13Q112.13 69.38 111.13 67.88Q110.13 66.38 110.13 64.50L110.13 64.50Q110.13 64.38 110.13 64.25Q110.13 64.13 110.13 64.13L110.13 64.13L110.63 64.13L111.38 64.13Q111.88 66.63 113.88 68.25Q115.88 69.88 118.50 69.88L118.50 69.88Q119.63 69.88 120.63 69.56Q121.63 69.25 122.50 68.75L122.50 68.75Q123.38 68.25 123.88 67.44Q124.38 66.63 124.38 65.63L124.38 65.63Q124.38 65.50 124.38 65.50Q124.38 65.50 124.38 65.38L124.38 65.38Q124.38 65.38 124.38 65.31Q124.38 65.25 124.38 65.25L124.38 65.25Q124.38 64.25 123.81 63.44Q123.25 62.63 122.38 62.38L122.38 62.38Q121.13 61.88 119.94 61.63Q118.75 61.38 117.50 61L117.50 61Q116 60.50 114.81 60.06Q113.63 59.63 112.38 59.13L112.38 59.13Q110.75 58.25 110.69 55.50Q110.63 52.75 112.75 51.63L112.75 51.63Q113.88 51 115.19 50.63Q116.50 50.25 117.88 50.25L117.88 50.25Q119.13 50.25 120.38 50.56Q121.63 50.88 122.75 51.50L122.75 51.50Q123.88 52.13 124.56 53.31Q125.25 54.50 125.25 56L125.25 56Q125.25 56.13 125.25 56.31Q125.25 56.50 125.25 56.63L125.25 56.63ZM38.13 70.50L38.13 70.50Q37.88 70.63 37.69 70.63Q37.50 70.63 37.25 70.63L37.25 70.63Q36.63 70.63 36.06 70.31Q35.50 70 35.25 69.50L35.25 69.50Q34 67.63 32.69 65.88Q31.38 64.13 30.13 62.25L30.13 62.25L29.38 61.25Q27.75 63.38 26.25 65.38Q24.75 67.38 23.38 69.50L23.38 69.50Q23.13 70 22.56 70.31Q22 70.63 21.38 70.63L21.38 70.63Q21.25 70.63 21.06 70.56Q20.88 70.50 20.63 70.50L20.63 70.50L28.38 60.13L21.25 50.75Q21.38 50.75 21.56 50.69Q21.75 50.63 22 50.63L22 50.63Q22.63 50.63 23.19 50.94Q23.75 51.25 24 51.75L24 51.75Q25.25 53.63 26.63 55.38Q28 57.13 29.38 59L29.38 59Q30.75 57.13 32.13 55.38Q33.50 53.63 34.75 51.75L34.75 51.75Q35.13 51.25 35.63 50.94Q36.13 50.63 36.75 50.63L36.75 50.63Q36.88 50.63 37.06 50.69Q37.25 50.75 37.50 50.75L37.50 50.75L34.63 54.50Q33.75 55.75 32.81 57Q31.88 58.25 30.88 59.38L30.88 59.38Q30.75 59.50 30.69 59.69Q30.63 59.88 30.63 60.13L30.63 60.13Q30.63 60.38 30.69 60.56Q30.75 60.75 30.88 60.88L30.88 60.88Q32.75 63.25 34.50 65.69Q36.25 68.13 38.13 70.50L38.13 70.50ZM70.88 50.63L70.88 50.63L70.88 52Q70.88 52 70.75 52Q70.63 52 70.50 52L70.50 52Q67.50 52 65.38 54.13Q63.25 56.25 63.25 59.25L63.25 59.25Q63.25 59.38 63.25 59.44Q63.25 59.50 63.25 59.63L63.25 59.63Q63.25 64.50 63.25 69.38L63.25 69.38Q63.25 69.75 63.25 70Q63.25 70.25 63.25 70.50L63.25 70.50L61.75 70.50L61.75 50.75L63.13 50.75L63.13 54.75Q64.50 52.63 66.44 51.69Q68.38 50.75 70.88 50.63L70.88 50.63ZM2.13 60L2.13 60Q2.25 59.25 2.38 58.44Q2.50 57.63 2.75 56.88L2.75 56.88Q4 52.25 8.38 50.69Q12.75 49.13 16.38 52L16.38 52Q18.50 53.63 19.19 55.94Q19.88 58.25 19.75 61L19.75 61L3.75 61Q3.63 65.75 6.63 68.19Q9.63 70.63 14 69.13L14 69.13Q15.50 68.63 16.50 67.50Q17.50 66.38 17.88 64.88L17.88 64.88Q18.13 64.13 18.50 63.94Q18.88 63.75 19.63 64L19.63 64Q19.38 65.88 18.38 67.44Q17.38 69 15.75 69.88L15.75 69.88Q14.75 70.50 13.63 70.81Q12.50 71.13 11.25 71.13L11.25 71.13Q9.38 71.13 7.69 70.44Q6 69.75 4.75 68.50L4.75 68.50Q3.75 67.38 3.13 65.88Q2.50 64.38 2.38 62.75L2.38 62.75Q2.38 62.50 2.31 62.25Q2.25 62 2.13 61.75L2.13 61.75Q2.13 60.88 2.13 60L2.13 60ZM3.75 59.50L3.88 59.63L18.25 59.63Q18.25 56.13 16.31 53.88Q14.38 51.63 11.38 51.63L11.38 51.63Q8.13 51.63 6.06 53.81Q4 56 3.75 59.50L3.75 59.50Z"/></svg>