<svg xmlns="http://www.w3.org/2000/svg" xmlns:xlink="http://www.w3.org/1999/xlink" width="128" height="128"><path fill="#ffffff" d="M85.75 10.13L85.75 10.13Q85.88 10.13 87.38 11.25Q88.88 12.38 91.75 17.25L91.75 17.25Q93.63 20.63 95.88 25.44Q98.13 30.25 100.75 36.38L100.75 36.38Q103 42.13 105.38 48.38L105.38 48.38Q107.75 54.50 110 60.75Q112.25 67 114.38 72.88L114.38 72.88Q116.38 78.75 118.25 83.88L118.25 83.88Q119.38 87.25 120.31 90Q121.25 92.75 122 94.88L122 94.88Q121 94.13 120 93.25Q119 92.38 117.88 91.63L117.88 91.63Q112.50 87.38 108.44 85.31Q104.38 83.25 101.63 83.25L101.63 83.25L101.38 83.25Q96.13 83.50 91.56 87.69Q87 91.88 81.25 98.25L81.25 98.25Q79.50 100.25 77.44 102.56Q75.38 104.88 73.13 107.25L73.13 107.25Q67.13 113.63 63.19 115.88Q59.25 118.13 57.50 118.75L57.50 118.75Q54.75 110 51.75 103.56Q48.75 97.13 45.38 93.25L45.38 93.25Q43.50 90.88 41.50 89.31Q39.50 87.75 37.38 87L37.38 87L43.25 82.88L43.50 82.75Q46.25 80.50 49.13 77.13L49.13 77.13Q52 73.88 54.94 69.56Q57.88 65.25 60.88 60L60.88 60Q63.88 54.63 66.88 48.38L66.88 48.38Q71.38 39.13 74.06 32.19Q76.75 25.25 76.75 25.25L76.75 25.25L76.88 25L76.88 24.75Q79.25 14 82.38 12.06Q85.50 10.13 85.75 10.13L85.75 10.13ZM85.75 7.88L85.75 7.88Q84.75 7.88 80.94 10.25Q77.13 12.63 74.63 24.50L74.63 24.50Q74.63 24.50 71.88 31.38L71.88 31.38Q69.25 38.25 64.75 47.50Q60.25 56.75 54.38 66.25L54.38 66.25Q48.50 75.75 42 81L42 81L29.50 89.75Q30.13 89.38 31.19 89Q32.25 88.63 33.75 88.63L33.75 88.63Q37.63 88.63 43.69 94.63Q49.75 100.63 55.88 121.25L55.88 121.25L56.13 121.25Q56.88 121.25 61.69 119.44Q66.50 117.63 74.75 108.88L74.75 108.88Q84 99.13 89.69 92.44Q95.38 85.75 101.50 85.63L101.50 85.63L101.63 85.63Q104.38 85.63 108.50 88L108.50 88Q112.63 90.38 116.56 93.44Q120.50 96.50 123.63 99.38L123.63 99.38Q126.75 102.25 127.75 103.13L127.75 103.13Q126.38 100.88 121.25 85.88L121.25 85.88Q116.25 70.88 109.94 53.75Q103.63 36.63 97 22.50L97 22.50Q90.50 8.38 86 7.88L86 7.88L85.75 7.88ZM28.75 90.25L29.63 89.75Q29.25 89.88 29 90.06Q28.75 90.25 28.75 90.25L28.75 90.25ZM128 103.25L127.75 103Q127.75 103.13 127.81 103.19Q127.88 103.25 128 103.25L128 103.25ZM38.75 52.75L38.75 52.75L1.13 69.63L28.50 90.88L28.88 90.88Q29.38 90.88 29.88 90.75Q30.38 90.63 31 90.38L31 90.38Q31.63 90.13 32.38 89.69Q33.13 89.25 33.88 88.88L33.88 88.88Q35.63 87.88 37.69 86.50Q39.75 85.13 41.88 83.50L41.88 83.50Q46.25 80.13 50.31 75.88Q54.38 71.63 56.25 66.88L56.25 66.88L56.50 66.13L55.88 65.75L38.75 52.75ZM38.50 55L38.50 55L54 66.75Q52.25 70.88 48.50 74.81Q44.75 78.75 40.75 81.88L40.75 81.88Q38.63 83.50 36.63 84.81Q34.63 86.13 33 87.13L33 87.13Q32.13 87.50 31.44 87.88Q30.75 88.25 30.13 88.50L30.13 88.50Q29.75 88.63 29.50 88.69Q29.25 88.75 29.13 88.88L29.13 88.88L4.88 70.13L38.50 55ZM79 14L79 14Q79 14 79 14Q79 14 79 14L79 14Q78.75 14 78.50 14.13Q78.25 14.25 78.13 14.50L78.13 14.50L78.13 14.50Q73.13 23.25 69.31 28.06Q65.50 32.88 62.63 35.13L62.63 35.13Q59.63 37.50 57.38 38.06Q55.13 38.63 53.13 39.13L53.13 39.13L53.13 39.13Q51.88 39.38 50.63 40.13Q49.38 40.88 48.13 42L48.13 42Q46.88 43 45.63 44.25Q44.38 45.50 43.25 46.75L43.25 46.75Q42 48.25 40.69 49.81Q39.38 51.38 38.13 53.13L38.13 53.13L38 53.38Q37.88 53.50 37.81 53.63Q37.75 53.75 37.75 53.88L37.75 53.88Q37.75 54.13 37.88 54.38Q38 54.63 38.25 54.75L38.25 54.75L38.25 54.75Q38.38 54.75 38.50 54.81Q38.63 54.88 38.75 54.88L38.75 54.88Q39 54.88 39.25 54.75Q39.50 54.63 39.63 54.50L39.63 54.50L39.63 54.50Q39.63 54.50 41.13 52.50Q42.63 50.50 44.75 48.13L44.75 48.13Q45.88 46.88 47.06 45.69Q48.25 44.50 49.38 43.50L49.38 43.50Q50.50 42.50 51.63 41.88Q52.75 41.25 53.50 41.13L53.50 41.13Q53.50 41.13 53.50 41.13Q53.50 41.13 53.50 41.13L53.50 41.13L53.50 41.13Q55.50 40.63 58.06 39.94Q60.63 39.25 63.75 36.75L63.75 36.75Q67 34.25 70.94 29.31Q74.88 24.38 79.88 15.50L79.88 15.50Q79.88 15.38 79.94 15.25Q80 15.13 80 15L80 15Q80 14.75 79.88 14.50Q79.75 14.25 79.50 14.13L79.50 14.13L79.50 14.13Q79.38 14.13 79.25 14.06Q79.13 14 79 14L79 14L79 14Z"/></svg>