<svg xmlns="http://www.w3.org/2000/svg" xmlns:xlink="http://www.w3.org/1999/xlink" width="128" height="128"><path fill="#ffffff" d="M124 91.88L124 91.88Q121.25 85 118.75 78.13L118.75 78.13Q116.25 71.13 113.75 64.19Q111.25 57.25 108.88 50.25L108.88 50.25Q106.38 43.38 103.75 36.38L103.75 36.38Q101.50 30.50 99.13 24.69Q96.75 18.88 93.63 13.38L93.63 13.38Q92.38 11.38 91 9.38Q89.63 7.38 87.63 6.13L87.63 6.13Q87.13 5.88 86.63 5.69Q86.13 5.50 85.50 5.50L85.50 5.50Q85.50 5.50 85.44 5.50Q85.38 5.50 85.38 5.50L85.38 5.50L85.38 5.50Q84.50 5.50 83.56 5.94Q82.63 6.38 81.88 7L81.88 7Q79.13 9.13 77.31 12.06Q75.50 15 73.63 17.88L73.63 17.88Q70.50 23.25 66.81 28.50Q63.13 33.75 57.75 37.25L57.75 37.25Q55.25 39 52.19 39.75Q49.13 40.50 46.75 42.38L46.75 42.38Q43.38 44.88 40.88 48.19Q38.38 51.50 35.63 54.63L35.63 54.63Q35 55.38 34.13 55.75Q33.25 56.13 32.38 56.50L32.38 56.50Q24.25 59.88 16.13 63.19Q8 66.50 0 70L0 70Q6.88 75.25 14 80.13Q21.13 85 28 90L28 90Q30 89.63 31.88 89.13Q33.75 88.63 35.75 89L35.75 89Q38.88 90 40.88 92.56Q42.88 95.13 44.25 97.88L44.25 97.88Q47.13 103.88 49.44 110.06Q51.75 116.25 54.13 122.50L54.13 122.50Q58 122.25 61.56 120.44Q65.13 118.63 68.13 116.25L68.13 116.25Q74 111.50 78.75 105.69Q83.50 99.88 88.38 94.13L88.38 94.13Q90.75 91.75 93.31 89.25Q95.88 86.75 99.50 86L99.50 86Q103 85.13 106.63 86.25Q110.25 87.38 112.88 89.88L112.88 89.88Q116.63 93.13 120.13 96.69Q123.63 100.25 128 102.75L128 102.75Q127.38 99.88 126.19 97.25Q125 94.63 124 91.88L124 91.88ZM43 79L43 79Q39.50 81 35.94 82.75Q32.38 84.50 28.75 86.25L28.75 86.25Q23.25 82.50 17.75 78.63Q12.25 74.75 6.75 70.88L6.75 70.88Q14.13 67.63 21.63 64.56Q29.13 61.50 36.63 58.50L36.63 58.50Q40.25 61.25 43.88 63.94Q47.50 66.63 51 69.38L51 69.38Q49.38 72 47.38 74.44Q45.38 76.88 43 79L43 79ZM53.13 66.63L53.13 66.63Q49.63 64 46.06 61.38Q42.50 58.75 39 56L39 56Q41.25 52.88 43.75 50.06Q46.25 47.25 49.13 44.75L49.13 44.75Q51.13 43.50 53.31 42.94Q55.50 42.38 57.63 41.25L57.63 41.25Q62.38 38.75 65.88 34.75Q69.38 30.75 72.38 26.63L72.38 26.63Q70.38 31.75 68.38 37L68.38 37Q66.25 42.13 63.88 47.19Q61.50 52.25 58.88 57.13L58.88 57.13Q56.25 62 53.13 66.63L53.13 66.63Z"/></svg>