<svg xmlns="http://www.w3.org/2000/svg" xmlns:xlink="http://www.w3.org/1999/xlink" width="128" height="128"><path fill="#ffffff" d="M110 26.13L110 26.13L73.25 4.75Q68.38 2 62.69 2.06Q57 2.13 52.13 5.13L52.13 5.13L19.25 25.38Q14.38 28.50 11.56 33.44Q8.75 38.38 8.75 44.13L8.75 44.13L8.75 85.50Q8.75 91.25 11.63 96.19Q14.50 101.13 19.50 104L19.50 104L53 123.25Q55.38 124.63 57.88 125.31Q60.38 126 63 126L63 126Q65.50 126 68 125.31Q70.50 124.63 72.75 123.38L72.75 123.38L109.25 102.88Q113.88 100.25 116.56 95.63Q119.25 91 119.25 85.75L119.25 85.75L119.25 42Q119.25 37.13 116.75 32.88Q114.25 28.63 110 26.13L110 26.13ZM75.50 67.88L52.50 67.88L52.50 96.88L38.63 96.88L38.63 30.50L52.50 30.50L52.50 54.75L75.50 54.75L75.50 30.50L89.38 30.50L89.38 96.88L75.50 96.88L75.50 67.88Z"/></svg>