<svg xmlns="http://www.w3.org/2000/svg" xmlns:xlink="http://www.w3.org/1999/xlink" width="128" height="128"><path fill="#ffffff" d="M123.63 54.25L123.63 54.25L114.25 48.88Q113 48.13 111.50 48.13Q110 48.13 108.63 49L108.63 49L100.38 53.88Q99 54.75 98.13 56.25Q97.25 57.75 97.25 59.38L97.25 59.38L97.25 69.38Q97.25 71 98.06 72.31Q98.88 73.63 100.25 74.50L100.25 74.50L109 79.63Q109.50 79.88 110.13 80.06Q110.75 80.25 111.25 80.25L111.25 80.25Q111.88 80.25 112.44 80.06Q113 79.88 113.50 79.63L113.50 79.63L123.50 74.13Q124.50 73.50 125.13 72.44Q125.75 71.38 125.75 70.25L125.75 70.25L125.75 58.25Q126 57 125.38 55.88Q124.75 54.75 123.63 54.25L123.63 54.25ZM111.75 72.75L111.75 72.75Q108 72.75 105.38 70.19Q102.75 67.63 102.75 64L102.75 64Q102.75 60.38 105.38 57.75Q108 55.13 111.75 55.13L111.75 55.13Q115.38 55.13 118 57.75Q120.63 60.38 120.63 64L120.63 64Q120.63 67.63 118 70.19Q115.38 72.75 111.75 72.75ZM115.75 60.13L115.75 60.13Q116.50 60.88 116.88 61.88Q117.25 62.88 117.25 64L117.25 64Q117.25 66.38 115.63 68Q114 69.63 111.75 69.63L111.75 69.63Q109.38 69.63 107.75 68Q106.13 66.38 106.13 64L106.13 64Q106.13 61.63 107.75 60Q109.38 58.38 111.75 58.38L111.75 58.38Q112.88 58.38 113.88 58.88Q114.88 59.38 115.75 60.13L115.75 60.13ZM91.88 54.25L91.88 54.25L82.13 48.75Q81 48.13 79.69 48.06Q78.38 48 77.25 48.63L77.25 48.63Q77.25 48.63 77.13 48.69Q77 48.75 76.88 48.75L76.88 48.75L68.75 53.75Q67.25 54.63 66.31 56.19Q65.38 57.75 65.38 59.50L65.38 59.50L65.38 69.38Q65.38 70.88 66.19 72.25Q67 73.63 68.25 74.38L68.25 74.38L77.13 79.50Q77.63 79.75 78.25 79.94Q78.88 80.13 79.50 80.13L79.50 80.13Q80.13 80.13 80.69 79.94Q81.25 79.75 81.75 79.50L81.75 79.50L91.63 74.13Q92.75 73.38 93.44 72.25Q94.13 71.13 94.13 69.88L94.13 69.88L94.13 58.13Q94.13 56.88 93.56 55.81Q93 54.75 91.88 54.25L91.88 54.25ZM88.13 63.88L88.13 63.88Q88.13 66.88 87.56 68.13Q87 69.38 85.88 70.63L85.88 70.63Q84.75 71.75 83.25 72.31Q81.75 72.88 80 72.88L80 72.88Q78.38 72.88 77 72.31Q75.63 71.75 74.38 70.75L74.38 70.75Q73.13 69.63 72.25 67.88Q71.38 66.13 71.38 64.13L71.38 64.13Q71.38 62.13 72.13 60.44Q72.88 58.75 74.13 57.63L74.13 57.63Q75.25 56.50 76.88 55.88Q78.50 55.25 80.25 55.25L80.25 55.25Q82.25 55.25 84.31 56.19Q86.38 57.13 87.75 59.25L87.75 59.25L85 61.25Q84.13 59.75 82.94 59.13Q81.75 58.50 79.88 58.50L79.88 58.50Q78 58.38 76.25 60.06Q74.50 61.75 74.75 64.13L74.75 64.13Q74.75 65.50 75.75 67.38Q76.75 69.25 79.75 69.63L79.75 69.63Q81.50 69.88 82.94 68.56Q84.38 67.25 84.38 66.38L84.38 66.38L80.38 66.38L80.38 63.25L88.13 63.25L88.13 63.88ZM62.25 58L62.25 58Q62.25 56.75 61.63 55.75Q61 54.75 60 54.25L60 54.25L50.25 48.50Q49 47.75 47.56 47.75Q46.13 47.75 44.88 48.63L44.88 48.63L36.75 53.75Q35.25 54.63 34.50 56.06Q33.75 57.50 33.75 59.13L33.75 59.13L33.75 69.25Q33.75 70.75 34.50 72.13Q35.25 73.50 36.50 74.25L36.50 74.25L45.25 79.25Q45.88 79.63 46.50 79.81Q47.13 80 47.75 80L47.75 80Q48.38 80 49 79.88Q49.63 79.75 50.25 79.38L50.25 79.38L59.75 74.13Q61 73.38 61.69 72.19Q62.38 71 62.38 69.63L62.38 69.63L62.25 58ZM54.25 65L54.25 65Q54.25 66.63 54.19 67.69Q54.13 68.75 54 69.38L54 69.38Q53.88 70 53.63 70.56Q53.38 71.13 53 71.63L53 71.63Q52.63 72 52.19 72.38Q51.75 72.75 51.13 73L51.13 73Q50.50 73.25 49.75 73.38Q49 73.50 48 73.50L48 73.50Q46.75 73.50 45.94 73.38Q45.13 73.25 44.50 72.88L44.50 72.88Q43.88 72.63 43.44 72.25Q43 71.88 42.63 71.38L42.63 71.38Q42.25 71 42 70.50Q41.75 70 41.75 69.50L41.75 69.50Q41.50 68.75 41.44 67.63Q41.38 66.50 41.38 65.13L41.38 65.13L41.38 56L44.88 56L44.88 65.25Q44.88 66.38 44.88 67.13Q44.88 67.88 45 68.25L45 68.25Q45.13 68.75 45.31 69.13Q45.50 69.50 45.88 69.75L45.88 69.75Q46.25 70.13 46.75 70.19Q47.25 70.25 48 70.25L48 70.25Q48.63 70.25 49 70.13Q49.38 70 49.75 69.75L49.75 69.75Q50.13 69.50 50.31 69.19Q50.50 68.88 50.50 68.38L50.50 68.38Q50.63 68 50.69 67.25Q50.75 66.50 50.75 65.50L50.75 65.50L50.75 56L54.25 56L54.25 65ZM28.25 54.25L28.25 54.25L18.75 48.75Q17.50 48 16.06 48.06Q14.63 48.13 13.25 48.88L13.25 48.88L4.75 54.25Q3.50 55 2.75 56.25Q2 57.50 2 59L2 59L2 69.75Q2 71.25 2.75 72.56Q3.50 73.88 4.75 74.63L4.75 74.63L13.50 79.63Q14.13 80 14.75 80.13Q15.38 80.25 16.13 80.25L16.13 80.25Q16.75 80.25 17.44 80.13Q18.13 80 18.63 79.63L18.63 79.63L28 74.25Q29.25 73.63 29.94 72.44Q30.63 71.25 30.63 69.75L30.63 69.75L30.63 58.38Q30.63 57.13 30 56Q29.38 54.88 28.25 54.25ZM22.88 55.38L22.88 72.75L19.25 72.75L19.25 65.25L13.25 65.25L13.25 72.75L9.75 72.75L9.75 55.38L13.25 55.38L13.25 61.75L19.25 61.75L19.25 55.38L22.88 55.38Z"/></svg>