<svg xmlns="http://www.w3.org/2000/svg" xmlns:xlink="http://www.w3.org/1999/xlink" width="128" height="128"><path fill="#000000" d="M85.13 37.75L85.13 37.75Q80.50 32.13 72.56 30.69Q64.63 29.25 57.63 32.88L57.63 32.88L41.88 41.25Q38.63 42.88 36.56 45.56Q34.50 48.25 33.75 51.38L33.75 51.38Q33.25 53.88 33.75 56.50Q34.25 59.13 35.63 61.50L35.63 61.50Q34.63 62.75 34 64.19Q33.38 65.63 33 67.13L33 67.13Q32.38 70.38 33.19 73.50Q34 76.63 36.25 79.25L36.25 79.25Q40.88 84.88 48.81 86.31Q56.75 87.75 63.75 84.25L63.75 84.25L79.50 75.88Q82.63 74.25 84.75 71.56Q86.88 68.88 87.50 65.75L87.50 65.75Q88.13 63.25 87.63 60.63Q87.13 58 85.63 55.63L85.63 55.63Q88.75 51.50 88.63 46.63Q88.50 41.75 85.13 37.75L85.13 37.75ZM56 80L56 80Q52.25 80.88 48.56 79.75Q44.88 78.63 42.63 75.88L42.63 75.88Q41.38 74.25 40.88 72.38Q40.38 70.50 40.75 68.50L40.75 68.50L41 67.25L41.38 66.50L42.13 67Q43.50 67.88 45.06 68.50Q46.63 69.13 48.25 69.63L48.25 69.63L48.88 69.75L48.75 70.25Q48.75 70.75 48.94 71.25Q49.13 71.75 49.38 72.13L49.38 72.13Q50.13 73 51.25 73.38Q52.38 73.75 53.50 73.50L53.50 73.50Q53.75 73.38 54 73.31Q54.25 73.25 54.50 73.13L54.50 73.13L70.13 64.75Q70.63 64.50 71 64Q71.38 63.50 71.63 63L71.63 63Q71.75 62.38 71.56 61.81Q71.38 61.25 71 60.75L71 60.75Q70.38 59.88 69.25 59.56Q68.13 59.25 67 59.50L67 59.50Q66.75 59.63 66.44 59.69Q66.13 59.75 66 59.88L66 59.88L60 63Q55.88 65.13 51.06 64.25Q46.25 63.38 43.50 60L43.50 60Q42.13 58.38 41.63 56.50Q41.13 54.63 41.50 52.63L41.50 52.63Q42 50.75 43.25 49.19Q44.50 47.63 46.50 46.50L46.50 46.50L62.13 38.13Q62.88 37.75 63.69 37.50Q64.50 37.25 65.38 37L65.38 37Q69.13 36.13 72.81 37.31Q76.50 38.50 78.63 41.13L78.63 41.13Q80.25 43 80.69 45.25Q81.13 47.50 80.25 49.75L80.25 49.75L80 50.50L79.25 50Q77.88 49.25 76.38 48.56Q74.88 47.88 73.13 47.50L73.13 47.50L73 47.38L72.50 47.25L72.50 46.88Q72.50 46.75 72.50 46.69Q72.50 46.63 72.50 46.63L72.50 46.63Q72.50 46.13 72.31 45.69Q72.13 45.25 71.88 44.88L71.88 44.88L71.88 44.88Q71.25 44 70.13 43.69Q69 43.38 67.88 43.63L67.88 43.63Q67.63 43.63 67.38 43.69Q67.13 43.75 66.88 43.88L66.88 43.88L51.25 52.38Q50.63 52.75 50.25 53.19Q49.88 53.63 49.75 54.25L49.75 54.25Q49.63 54.75 49.75 55.31Q49.88 55.88 50.25 56.38L50.25 56.38Q51 57.25 52.13 57.56Q53.25 57.88 54.38 57.63L54.38 57.63Q54.63 57.63 54.88 57.50Q55.13 57.38 55.25 57.25L55.25 57.25L61.25 54.13Q62 53.75 62.81 53.44Q63.63 53.13 64.50 52.88L64.50 52.88Q68.25 52.13 71.94 53.25Q75.63 54.38 77.88 57.13L77.88 57.13Q79.25 58.63 79.75 60.56Q80.25 62.50 79.88 64.38L79.88 64.38Q79.50 66.25 78.19 67.88Q76.88 69.50 75 70.50L75 70.50L59.25 78.88Q58.50 79.25 57.69 79.56Q56.88 79.88 56 80L56 80ZM37.75 102.63L37.75 102.63Q36.63 102.63 35.81 102.38Q35 102.13 34.50 101.63L34.50 101.63Q33.88 101.13 33.63 100.50Q33.38 99.88 33.38 99.13L33.38 99.13L34.63 99.13Q34.75 99.75 34.94 100.13Q35.13 100.50 35.63 100.88L35.63 100.88Q36 101.13 36.50 101.25Q37 101.38 37.63 101.38L37.63 101.38Q38.25 101.38 38.69 101.25Q39.13 101.13 39.50 100.88L39.50 100.88Q39.75 100.63 39.94 100.31Q40.13 100 40.13 99.63L40.13 99.63Q40.13 99.25 39.94 98.94Q39.75 98.63 39.38 98.38L39.38 98.38Q39.13 98.25 38.50 98.06Q37.88 97.88 37 97.63L37 97.63Q36.13 97.50 35.50 97.25Q34.88 97 34.50 96.63L34.50 96.63Q34.13 96.25 33.94 95.81Q33.75 95.38 33.75 94.88L33.75 94.88Q33.75 94.25 34 93.75Q34.25 93.25 34.75 92.88L34.75 92.88Q35.13 92.50 35.81 92.25Q36.50 92 37.38 92L37.38 92Q38.13 92 38.88 92.25Q39.63 92.50 40.13 92.88L40.13 92.88Q40.63 93.25 40.88 93.81Q41.13 94.38 41.25 95.13L41.25 95.13L39.88 95.13Q39.75 94.13 39.13 93.69Q38.50 93.25 37.38 93.25L37.38 93.25Q36.88 93.25 36.44 93.38Q36 93.50 35.63 93.63L35.63 93.63Q35.38 93.88 35.19 94.19Q35 94.50 35 94.75L35 94.75Q35 95.13 35.13 95.38Q35.25 95.63 35.50 95.75L35.50 95.75Q35.75 95.88 36.19 96.06Q36.63 96.25 37.38 96.38L37.38 96.38Q38 96.50 38.56 96.69Q39.13 96.88 39.50 97L39.50 97Q39.88 97.13 40.25 97.38Q40.63 97.63 40.88 97.88L40.88 97.88Q41.13 98.13 41.31 98.56Q41.50 99 41.50 99.50L41.50 99.50Q41.50 100.13 41.25 100.69Q41 101.25 40.38 101.75L40.38 101.75Q39.88 102.13 39.19 102.38Q38.50 102.63 37.75 102.63ZM50.13 92.25L51.63 92.25L47.63 102.38L46.25 102.38L42.25 92.25L43.75 92.25L46.88 101L50.13 92.25ZM60.38 101.25L60.38 102.38L52.88 102.38L52.88 92.25L60.13 92.25L60.13 93.38L54.13 93.38L54.13 96.50L59.75 96.50L59.75 97.75L54.13 97.75L54.13 101.25L60.38 101.25ZM68.63 101.25L68.63 102.38L62.25 102.38L62.25 92.25L63.63 92.25L63.63 101.25L68.63 101.25ZM77.50 92.25L77.50 93.38L74.13 93.38L74.13 102.38L72.75 102.38L72.75 93.38L69.38 93.38L69.38 92.25L77.50 92.25ZM86.50 101.25L86.50 102.38L78.88 102.38L78.88 92.25L86.25 92.25L86.25 93.38L80.25 93.38L80.25 96.50L85.88 96.50L85.88 97.75L80.25 97.75L80.25 101.25L86.50 101.25Z"/></svg>