<svg xmlns="http://www.w3.org/2000/svg" xmlns:xlink="http://www.w3.org/1999/xlink" width="128" height="128"><path fill="#ffffff" d="M110.25 16.88L110.25 16.88Q105.88 10.50 99.63 6.50L99.63 6.50Q93.38 2.38 86.38 0.88Q79.38-0.63 72 0.50L72 0.50Q64.63 1.75 58 5.75L58 5.75L28.13 24.63Q22.13 28.50 18.06 34.38Q14 40.25 12.75 47.38L12.75 47.38L12.75 47.63Q12.50 49.13 12.31 50.75Q12.13 52.38 12.13 54L12.13 54Q12.13 58.63 13.25 62.88Q14.38 67.13 16.38 70.88L16.38 70.88L16.25 70.75Q14.50 73.50 13.19 76.69Q11.88 79.88 11.25 83.38L11.25 83.38L11.25 83.50Q11 85 10.81 86.63Q10.63 88.25 10.63 89.88L10.63 89.88Q10.63 95.88 12.44 101.25Q14.25 106.63 17.50 111.13L17.50 111.13L17.38 111Q21.88 117.38 28.13 121.50L28.13 121.50Q34.25 125.50 41.31 127Q48.38 128.50 55.75 127.38L55.75 127.38Q63.13 126.38 69.75 122.38L69.75 122.38L99.63 103.38Q105.63 99.50 109.63 93.63Q113.63 87.75 114.88 80.63L114.88 80.63L115 80.38Q115.25 79 115.38 77.38Q115.50 75.75 115.50 74L115.50 74Q115.50 69.50 114.38 65.25Q113.25 61 111.25 57.25L111.25 57.25L111.38 57.38Q114.38 52.75 115.75 47.50L115.75 47.50Q117.13 42.25 117 36.94Q116.88 31.63 115.25 26.50L115.25 26.50Q113.50 21.38 110.25 16.88L110.25 16.88ZM55 112.63L55 112.63Q53.75 113 52.19 113.25Q50.63 113.50 49.13 113.50L49.13 113.50Q43.13 113.50 38 110.69Q32.88 107.88 29.75 103.38L29.75 103.38L29.63 103.25Q27 99.63 26.06 95.38Q25.13 91.13 25.88 86.63L25.88 86.63L26.50 83.88L27 82.13L28.63 83.13Q31.25 85.13 34.19 86.56Q37.13 88 40.38 89L40.38 89L41.38 89.38L41.25 90.50Q41.25 91.63 41.56 92.75Q41.88 93.88 42.50 94.88L42.50 94.88Q43.75 96.75 45.88 97.56Q48 98.38 50.25 97.88L50.25 97.88Q50.63 97.63 51.13 97.50Q51.63 97.38 52 97L52 97L81.75 78.13Q82.88 77.38 83.56 76.31Q84.25 75.25 84.63 74L84.63 74Q84.88 72.63 84.56 71.31Q84.25 70 83.50 69L83.50 69Q82.25 67.13 80.13 66.38Q78 65.63 75.75 66.13L75.75 66.13Q75.25 66.25 74.81 66.50Q74.38 66.75 73.88 67L73.88 67L62.63 74.13Q54.63 78.88 45.56 76.88Q36.50 74.88 31.25 67.25L31.25 67.25Q29.25 64.63 28.19 61.38Q27.13 58.13 27.13 54.50L27.13 54.50Q27.13 53.50 27.19 52.50Q27.25 51.50 27.50 50.50L27.50 50.50L27.50 50.63Q28.25 46.25 30.75 42.69Q33.25 39.13 36.88 36.88L36.88 36.88L36.88 36.75L66.63 17.88Q68 16.88 69.50 16.25Q71 15.63 72.63 15.13L72.63 15.13Q79.88 13.25 86.88 15.88Q93.88 18.50 98.13 24.50L98.13 24.50Q100 27.25 101.06 30.50Q102.13 33.75 102.13 37.25L102.13 37.25Q102.13 39.13 101.88 40.81Q101.63 42.50 101.13 44.13L101.13 44.13L101.13 43.88L100.63 45.75L99 44.63Q96.50 42.75 93.63 41.31Q90.75 39.88 87.63 38.88L87.63 38.88L87.25 38.75L86.25 38.50L86.38 37.38Q86.38 36.25 86.06 35.06Q85.75 33.88 85.13 32.88L85.13 32.88Q83.88 31 81.75 30.25Q79.63 29.50 77.38 30.13L77.38 30.13Q77 30.25 76.50 30.44Q76 30.63 75.63 30.88L75.63 30.88L45.75 50Q44.63 50.75 43.94 51.75Q43.25 52.75 43 54.13L43 54.13Q42.75 55.38 43.06 56.69Q43.38 58 44.13 59.13L44.13 59.13Q45.38 61 47.50 61.75Q49.63 62.50 51.75 61.88L51.75 61.88Q52.25 61.75 52.75 61.56Q53.25 61.38 53.63 61.13L53.63 61.13L65 53.88Q66.38 53 67.94 52.31Q69.50 51.63 71.13 51.25L71.13 51.25Q78.38 49.25 85.31 51.88Q92.25 54.50 96.50 60.63L96.50 60.63Q99.13 64.25 100.06 68.50Q101 72.75 100.38 77.13L100.38 77.13Q99.50 81.63 97.06 85.19Q94.63 88.75 91.13 91L91.13 91L91 91L61.25 110Q59.88 110.75 58.38 111.44Q56.88 112.13 55.25 112.63L55.25 112.63L55 112.63Z"/></svg>