<svg xmlns="http://www.w3.org/2000/svg" xmlns:xlink="http://www.w3.org/1999/xlink" width="128" height="128"><path fill="#000000" d="M99.50 112.50L99.50 112.50Q99.25 112.50 99.13 112.50Q99 112.50 98.75 112.50L98.75 112.50Q95.38 112.50 92 112.50Q88.63 112.50 85.25 112.50L85.25 112.50Q84.88 112.50 84.63 112.38Q84.38 112.25 84.25 112L84.25 112Q81.75 109 79.13 106.31Q76.50 103.63 73.25 101.38L73.25 101.38Q71.75 100.25 70.06 99.31Q68.38 98.38 66.50 97.88L66.50 97.88Q65 97.50 63.44 97.31Q61.88 97.13 60.25 97.50L60.25 97.50Q58.75 97.88 57.38 98.75Q56 99.63 54.88 100.75L54.88 100.75Q53.50 102.13 52.50 103.81Q51.50 105.50 50.75 107.38L50.75 107.38Q50.25 108.50 49.88 109.63Q49.50 110.75 49.13 111.88L49.13 111.88Q49 112 49 112.19Q49 112.38 48.88 112.50L48.88 112.50Q46 112.50 43.19 112.50Q40.38 112.50 37.50 112.50L37.50 112.50Q37.38 112 37.31 111.56Q37.25 111.13 37.25 110.63L37.25 110.63Q36.88 109.13 36.44 107.63Q36 106.13 35.25 104.75L35.25 104.75Q34.63 103.75 33.94 102.88Q33.25 102 32.38 101.25L32.38 101.25Q31.38 100.38 30.25 99.94Q29.13 99.50 27.88 99.50L27.88 99.50Q26.88 99.50 26.06 99.81Q25.25 100.13 24.38 100.75L24.38 100.75Q23.25 101.50 22.38 102.44Q21.50 103.38 20.75 104.50L20.75 104.50Q19.75 106.13 19.06 108Q18.38 109.88 17.88 111.75L17.88 111.75Q17.88 111.88 17.81 112.06Q17.75 112.25 17.75 112.50L17.75 112.50Q14 112.50 10.25 112.50Q6.50 112.50 2.75 112.50L2.75 112.50Q2.75 112 2.69 111.44Q2.63 110.88 2.50 110.25L2.50 110.25Q2.13 106.75 1.94 103.25Q1.75 99.75 1.75 96.25L1.75 96.25Q1.88 92.13 2.38 88.06Q2.88 84 3.75 79.88L3.75 79.88Q4.75 76.25 6.06 72.81Q7.38 69.38 9.25 66.25L9.25 66.25Q12 61.88 15.63 58.81Q19.25 55.75 24 53.88L24 53.88Q24.13 53.88 24.25 53.81Q24.38 53.75 24.50 53.75L24.50 53.75Q24.50 53.75 24.56 53.75Q24.63 53.75 24.75 53.75L24.75 53.75Q24.75 53.88 24.81 54Q24.88 54.13 25 54.25L25 54.25Q26.38 57.25 27.81 60.19Q29.25 63.13 31 65.75L31 65.75Q32 67.50 33.50 68.75Q35 70 36.88 70.63L36.88 70.63Q38.88 71.25 40.88 71.06Q42.88 70.88 44.75 70.13L44.75 70.13Q46.50 69.38 48 68.25Q49.50 67.13 50.75 65.88L50.75 65.88Q52.38 64.38 53.69 62.75Q55 61.13 56.25 59.25L56.25 59.25Q56.38 59.25 56.38 59.19Q56.38 59.13 56.38 59L56.38 59Q56.25 59.13 56.06 59.31Q55.88 59.50 55.75 59.63L55.75 59.63Q53.88 61.50 51.81 63.13Q49.75 64.75 47.38 66L47.38 66Q46.25 66.63 45 67.13Q43.75 67.63 42.50 67.88L42.50 67.88Q40.63 68.25 38.94 67.94Q37.25 67.63 35.75 66.25L35.75 66.25Q35.13 65.75 34.63 65.19Q34.13 64.63 33.75 64L33.75 64Q31.50 60.50 29.50 56.81Q27.50 53.13 25.75 49.38L25.75 49.38Q25.38 48.63 25.06 47.88Q24.75 47.13 24.75 46.25L24.75 46.25Q24.50 44.88 24.88 43.75Q25.25 42.63 26.25 41.75L26.25 41.75Q26.88 41 27.63 40.50Q28.38 40 29.25 39.50L29.25 39.50Q31 38.63 32.69 38Q34.38 37.38 36.13 36.75L36.13 36.75Q38.63 36 41.25 35.38Q43.88 34.75 46.63 34.38L46.63 34.38Q49.63 34 52.81 33.94Q56 33.88 59.13 34.25L59.13 34.25Q65.88 34.88 71.88 37.31Q77.88 39.75 83.38 43.75L83.38 43.75Q85.25 45 87.25 46.13Q89.25 47.25 91.50 47.88L91.50 47.88Q100.38 50.75 106.94 46.06Q113.50 41.38 115.13 35.13L115.13 35.13Q115.50 33.38 115.56 31.69Q115.63 30 115 28.25L115 28.25Q114 25.75 112.25 23.88Q110.50 22 107.75 21.25L107.75 21.25Q105.63 20.75 103.56 21Q101.50 21.25 99.63 22.25L99.63 22.25Q99.25 22.50 98.88 22.69Q98.50 22.88 98.13 23L98.13 23Q97.25 23.25 96.63 23.06Q96 22.88 95.50 22L95.50 22Q94.88 21 94.38 19.94Q93.88 18.88 93.38 17.75L93.38 17.75Q93.13 17.25 93.19 16.88Q93.25 16.50 93.50 16.13L93.50 16.13Q93.75 15.63 94.13 15.19Q94.50 14.75 94.88 14.38L94.88 14.38Q96 13.50 97.38 12.88Q98.75 12.25 100.25 12L100.25 12Q103.88 11.13 107.31 11.63Q110.75 12.13 114.13 13.75L114.13 13.75Q116.75 15.13 118.75 17.06Q120.75 19 122.25 21.50L122.25 21.50Q123.75 23.88 124.69 26.44Q125.63 29 126.13 31.75L126.13 31.75Q126.38 34 126.38 36.13Q126.38 38.25 126.25 40.38L126.25 40.38Q125.75 44.13 124.75 47.69Q123.75 51.25 122.25 54.75L122.25 54.75Q120.25 59.25 117.94 63.56Q115.63 67.88 112.88 71.88L112.88 71.88Q111.50 73.88 110.13 75.75Q108.75 77.63 107.38 79.50L107.38 79.50Q106 81.50 104.63 83.56Q103.25 85.63 102.25 87.88L102.25 87.88Q100.75 90.88 99.94 93.88Q99.13 96.88 98.75 100.13L98.75 100.13Q98.63 102.88 98.75 105.63Q98.88 108.38 99.25 111.13L99.25 111.13Q99.38 111.50 99.44 111.88Q99.50 112.25 99.50 112.50L99.50 112.50ZM91.25 61.13L91.25 61.13Q91.50 62.88 90.88 64.13Q90.25 65.38 88.63 66L88.63 66Q87.38 66.50 86.06 66.13Q84.75 65.75 84 64.75L84 64.75Q82.75 63.13 83.06 61.69Q83.38 60.25 84.75 58.88L84.75 58.88Q83.38 58.50 82 58.06Q80.63 57.63 79.38 57.25L79.38 57.25Q79.13 58 79 59Q78.88 60 78.88 60.88L78.88 60.88Q79 62.75 79.75 64.19Q80.50 65.63 82 66.63L82 66.63Q83.63 67.63 85.38 68.06Q87.13 68.50 89 68.13L89 68.13Q91 67.75 92.50 66.63Q94 65.50 95 63.88L95 63.88Q95.25 63.63 95.38 63.31Q95.50 63 95.50 62.50L95.50 62.50Q94.50 62.25 93.44 61.88Q92.38 61.50 91.25 61.13L91.25 61.13Z"/></svg>