<svg xmlns="http://www.w3.org/2000/svg" xmlns:xlink="http://www.w3.org/1999/xlink" width="128" height="128"><path fill="#ffffff" d="M39.25 49.50L39.25 49.50Q40 50 40.75 50.50Q41.50 51 42.25 51.50L42.25 51.50Q42.38 51.63 42.63 51.69Q42.88 51.75 43.13 51.75L43.13 51.75Q45.38 51.38 47.63 51.81Q49.88 52.25 51.75 53.75L51.75 53.75Q52.88 54.63 53.69 55.94Q54.50 57.25 54.88 58.75L54.88 58.75Q55 59.13 54.88 59.31Q54.75 59.50 54.25 59.38L54.25 59.38Q54.13 59.38 53.94 59.38Q53.75 59.38 53.63 59.38L53.63 59.38Q52.50 59.50 51.63 59.25Q50.75 59 50.25 57.75L50.25 57.75Q49.50 56.13 47.88 55.50Q46.25 54.88 44.38 55.25L44.38 55.25Q44.38 56 44.38 56.81Q44.38 57.63 44.25 58.38L44.25 58.38Q43.63 60.88 42.31 62.88Q41 64.88 38.63 66.13L38.63 66.13Q38.25 66.25 38.19 66.50Q38.13 66.75 38.25 67L38.25 67Q39.13 70 41.50 71.50Q43.88 73 46.88 72.50L46.88 72.50Q47.75 72.38 49.44 71.63Q51.13 70.88 51.13 70.50L51.13 70.50Q51.13 69.75 51.13 69.06Q51.13 68.38 51.13 67.63L51.13 67.63Q51.13 67.13 50.94 66.94Q50.75 66.75 50.38 66.75L50.38 66.75Q49.25 66.75 48.19 66.75Q47.13 66.75 46 66.75L46 66.75Q45.50 66.75 45.38 66.63Q45.25 66.50 45.25 66L45.25 66Q45.25 65.50 45.25 65.06Q45.25 64.63 45.25 64.25L45.25 64.25Q45.25 63.88 45.38 63.69Q45.50 63.50 45.88 63.63L45.88 63.63Q48 63.63 50.13 63.63Q52.25 63.63 54.38 63.63L54.38 63.63Q54.75 63.63 54.88 63.75Q55 63.88 55 64.25L55 64.25Q55 66 55 67.88Q55 69.75 55 71.50L55 71.50Q55 72.50 54.38 73.13Q53.75 73.75 53.13 74.25L53.13 74.25Q51.88 75.25 50.38 75.63Q48.88 76 47.38 76.13L47.38 76.13Q45.63 76.25 43.81 76.13Q42 76 40.25 75.13L40.25 75.13Q38.13 74 36.69 72.25Q35.25 70.50 34.50 68.25L34.50 68.25Q34.25 67.50 34 67.44Q33.75 67.38 33.25 67.75L33.25 67.75Q32.63 68 32.44 68.50Q32.25 69 32.25 69.63L32.25 69.63Q32.13 71 32.13 72.38Q32.13 73.75 32.13 75.13L32.13 75.13Q32.13 75.38 32.13 75.56Q32.13 75.75 32.13 76L32.13 76Q31 76 30 76Q29 76 28 76L28 76Q27.88 76 27.69 75.81Q27.50 75.63 27.38 75.50L27.38 75.50Q26.38 74.63 25.50 73.69Q24.63 72.75 23.75 72L23.75 72Q22.25 70.75 20.88 71.13Q19.50 71.50 18.50 73.13L18.50 73.13Q18.13 73.75 17.81 74.50Q17.50 75.25 17.13 76.13L17.13 76.13Q16.25 76.13 15.31 76.13Q14.38 76.13 13.38 76.13L13.38 76.13Q13.25 75.63 13.19 75.19Q13.13 74.75 12.88 74.25L12.88 74.25Q12.63 73.88 12.38 73.44Q12.13 73 11.75 72.63L11.75 72.63Q11.13 71.88 10.31 71.88Q9.50 71.88 8.75 72.50L8.75 72.50Q7.88 73.13 7.50 74.06Q7.13 75 6.88 76.13L6.88 76.13Q5.75 76.13 4.50 76.13Q3.25 76.13 2 76.13L2 76.13Q1.88 75.50 1.81 74.88Q1.75 74.25 1.63 73.75L1.63 73.75Q1.63 72.63 1.63 71.56Q1.63 70.50 1.63 69.38L1.63 69.38Q1.63 68.88 1.75 68.31Q1.88 67.75 1.88 67.25L1.88 67.25Q2.25 65.13 2.94 63.25Q3.63 61.38 5 59.75L5 59.75Q5.88 58.63 6.88 57.94Q7.88 57.25 9.25 56.75L9.25 56.75Q9.75 57.75 10.19 58.69Q10.63 59.63 11.13 60.38L11.13 60.38Q11.63 61.38 12.44 62Q13.25 62.63 14.50 62.50L14.50 62.50Q15.75 62.38 17.06 61.50Q18.38 60.63 18.75 59.63L18.75 59.63Q18.50 59.75 18.38 59.81Q18.25 59.88 18.25 60L18.25 60Q17.63 60.38 17 60.75Q16.38 61.13 15.75 61.38L15.75 61.38Q14.75 61.75 13.88 61.56Q13 61.38 12.50 60.63L12.50 60.63Q11.63 59.25 10.88 57.81Q10.13 56.38 9.38 55L9.38 55Q9 54.25 9.25 53.56Q9.50 52.88 10.25 52.38L10.25 52.38Q10.38 52.25 10.63 52.13Q10.88 52 11.13 51.88L11.13 51.88Q12.63 51.50 14.25 51Q15.88 50.50 17.38 50.25L17.38 50.25Q21.38 49.50 24.94 50.56Q28.50 51.63 31.38 54.50L31.38 54.50Q32.13 55.25 33 55.94Q33.88 56.63 34.88 57.50L34.88 57.50Q35.63 56.13 36.63 55Q37.63 53.88 39 53L39 53Q38.50 52.75 38.13 52.50Q37.75 52.25 37.50 51.88L37.50 51.88Q37 51.50 37 51.25Q37 51 37.38 50.50L37.38 50.50Q37.75 50.25 38 50Q38.25 49.75 38.50 49.50L38.50 49.50Q38.75 49.50 38.88 49.50Q39 49.50 39.25 49.50L39.25 49.50ZM28.25 58.38L28.25 58.38Q27.88 58.25 27.44 58.13Q27 58 26.63 57.75L26.63 57.75Q26.13 59.13 26.63 60.06Q27.13 61 28.25 61.38L28.25 61.38Q29.38 61.75 30.50 61.19Q31.63 60.63 31.88 59.63L31.88 59.63Q31.63 59.50 31.31 59.38Q31 59.25 30.50 59.13L30.50 59.13Q30.63 59.75 30.38 60.19Q30.13 60.63 29.50 60.75L29.50 60.75Q29 60.88 28.63 60.75Q28.25 60.63 28 60.25L28 60.25Q27.75 59.75 27.81 59.31Q27.88 58.88 28.25 58.38L28.25 58.38ZM96.88 60.38L96.88 60.38Q96.88 60.13 96.88 59.94Q96.88 59.75 96.88 59.50L96.88 59.50Q96.88 57.88 96.88 56.25Q96.88 54.63 96.88 53L96.88 53Q96.88 52.50 97.06 52.38Q97.25 52.25 97.63 52.25L97.63 52.25Q98.25 52.25 98.81 52.25Q99.38 52.25 100 52.25L100 52.25Q100.50 52.25 100.63 52.38Q100.75 52.50 100.75 53L100.75 53Q100.75 55.25 100.75 57.50Q100.75 59.75 100.75 62.13L100.75 62.13Q100.75 63.88 100.75 65.63Q100.75 67.38 100.75 69.25L100.75 69.25Q100.75 70.75 100.69 72.25Q100.63 73.75 100.63 75.25L100.63 75.25Q100.63 75.63 100.44 75.75Q100.25 75.88 99.88 75.88L99.88 75.88Q99.38 75.88 98.81 75.88Q98.25 75.88 97.75 75.88L97.75 75.88Q97.13 75.88 96.94 75.75Q96.75 75.63 96.75 75L96.75 75Q96.75 74.88 96.75 74.75Q96.75 74.63 96.75 74.38L96.75 74.38Q96.50 74.50 96.38 74.50Q96.25 74.50 96.25 74.63L96.25 74.63Q94.13 76.75 90.81 76.19Q87.50 75.63 85.88 72.88L85.88 72.88Q84.38 70.25 84.75 66.44Q85.13 62.63 87.38 60.50L87.38 60.50Q89.13 58.88 91.88 58.69Q94.63 58.50 96.25 60.25L96.25 60.25Q96.38 60.25 96.56 60.25Q96.75 60.25 96.88 60.38L96.88 60.38ZM96.50 64.63L96.50 64.63Q96.13 63.38 95.25 62.75Q94.38 62.13 93.13 62.13L93.13 62.13Q92 62.13 91.13 62.56Q90.25 63 89.63 64.13L89.63 64.13Q88.75 65.88 88.75 67.56Q88.75 69.25 89.75 70.88L89.75 70.88Q90.75 72.88 92.94 72.81Q95.13 72.75 96.13 70.75L96.13 70.75Q96.75 69.88 96.88 67.69Q97 65.50 96.50 64.63ZM83.25 75.75L83.25 75.75Q82.25 75.75 81.31 75.75Q80.38 75.75 79.50 75.75L79.50 75.75Q79.13 75.75 79 75.56Q78.88 75.38 78.75 75.13L78.75 75.13Q78.75 75 78.75 74.81Q78.75 74.63 78.75 74.38L78.75 74.38Q78.50 74.50 78.25 74.63Q78 74.75 77.75 74.88L77.75 74.88Q76.13 75.75 74.44 76Q72.75 76.25 70.88 75.50L70.88 75.50Q69.38 74.88 68.56 73.75Q67.75 72.63 67.75 71L67.75 71Q67.75 69.63 68.38 68.44Q69 67.25 70.25 66.63L70.25 66.63Q71.38 66.13 72.44 65.88Q73.50 65.63 74.63 65.25L74.63 65.25Q75.38 65.13 76.19 64.94Q77 64.75 77.75 64.50L77.75 64.50Q78 64.38 78.25 64.06Q78.50 63.75 78.63 63.50L78.63 63.50Q78.75 63 78.56 62.63Q78.38 62.25 77.88 61.88L77.88 61.88Q76.88 61.25 75.38 61.38Q73.88 61.50 73.13 62.25L73.13 62.25Q72.88 62.38 72.69 62.63Q72.50 62.88 72.50 63.13L72.50 63.13Q72.38 63.63 72.13 63.69Q71.88 63.75 71.38 63.75L71.38 63.75Q70.88 63.75 70.31 63.75Q69.75 63.75 69.25 63.75L69.25 63.75Q68.63 63.75 68.50 63.56Q68.38 63.38 68.50 63L68.50 63Q68.75 61.88 69.31 61Q69.88 60.13 70.88 59.50L70.88 59.50Q72.25 58.75 73.69 58.56Q75.13 58.38 76.63 58.50L76.63 58.50Q77.25 58.63 77.88 58.69Q78.50 58.75 79.25 58.88L79.25 58.88Q81 59.38 81.88 60.50Q82.75 61.63 82.75 63.38L82.75 63.38Q82.75 65.38 82.75 67.31Q82.75 69.25 82.75 71.25L82.75 71.25Q82.75 72 82.75 72.69Q82.75 73.38 82.75 74.13L82.75 74.13Q82.88 74.50 83 74.88Q83.13 75.25 83.25 75.75L83.25 75.75ZM78.88 67.38L78.88 67.38Q77.88 67.63 77 67.88Q76.13 68.13 75.25 68.25L75.25 68.25Q74.63 68.50 74.13 68.56Q73.63 68.63 73.25 68.75L73.25 68.75Q72.50 69.13 72.19 69.63Q71.88 70.13 71.88 71L71.88 71Q72 71.63 72.38 72.06Q72.75 72.50 73.38 72.63L73.38 72.63Q74.50 72.88 75.44 72.75Q76.38 72.63 77.25 72.13L77.25 72.13Q78.50 71.50 78.88 70.25Q79.25 69 78.88 67.38ZM114 68.25L114 68.25Q113.88 69.38 114.69 70.50Q115.50 71.63 116.63 72.13L116.63 72.13Q117.88 72.63 119.75 72.44Q121.63 72.25 122.50 70.75L122.50 70.75Q122.63 70.50 122.81 70.44Q123 70.38 123.25 70.50L123.25 70.50Q123.88 70.75 124.50 71.13Q125.13 71.50 125.75 71.88L125.75 71.88Q125.38 72.88 124.69 73.56Q124 74.25 123.25 74.88L123.25 74.88Q121 76.50 117.13 76.13Q113.25 75.75 111.25 72.75L111.25 72.75Q110.63 71.63 110.31 70.44Q110 69.25 109.88 68L109.88 68Q109.88 66.38 110.13 64.94Q110.38 63.50 111.25 62.13L111.25 62.13Q112.25 60.63 113.69 59.81Q115.13 59 116.75 58.75L116.75 58.75Q118 58.50 119.19 58.69Q120.38 58.88 121.50 59.25L121.50 59.25Q123.63 60 124.69 61.69Q125.75 63.38 126.13 65.63L126.13 65.63Q126.13 66 126.19 66.44Q126.25 66.88 126.25 67.25L126.25 67.25Q126.38 67.75 126.19 67.94Q126 68.13 125.50 68.13L125.50 68.13Q122.88 68.13 120.25 68.13Q117.63 68.13 115 68.13L115 68.13Q114.75 68.13 114.50 68.19Q114.25 68.25 114 68.25ZM114.13 65.38L114.13 65.38Q116 65.38 118 65.38Q120 65.38 121.88 65.38L121.88 65.38Q122 64.13 121.06 63Q120.13 61.88 118.75 61.75L118.75 61.75Q116.88 61.63 115.50 62.63Q114.13 63.63 114.13 65.38ZM103.88 74.75L103.88 74.75Q103.88 75.38 104.06 75.56Q104.25 75.75 104.75 75.75L104.75 75.75Q105.38 75.63 105.88 75.69Q106.38 75.75 106.88 75.75L106.88 75.75Q107.38 75.75 107.56 75.56Q107.75 75.38 107.75 74.75L107.75 74.75Q107.75 72.50 107.75 70.25Q107.75 68 107.75 65.75L107.75 65.75Q107.75 62.50 107.81 59.19Q107.88 55.88 107.88 52.75L107.88 52.75Q107.88 52.38 107.75 52.25Q107.63 52.13 107.25 52.13L107.25 52.13Q106.75 52.13 106.13 52.13Q105.50 52.13 104.75 52.13L104.75 52.13Q104.25 52.13 104.06 52.31Q103.88 52.50 103.88 53L103.88 53Q103.88 55.75 103.88 58.44Q103.88 61.13 103.88 63.75L103.88 63.75Q103.88 66.63 103.88 69.38Q103.88 72.13 103.88 74.75ZM61.25 61.13L61.25 61.13Q61.25 60.75 61.25 60.38Q61.25 60 61.25 59.63L61.25 59.63Q61.25 59.25 61.13 59.13Q61 59 60.75 59L60.75 59Q60.13 59 59.50 59Q58.88 59 58.25 59L58.25 59Q57.88 59 57.69 59.19Q57.50 59.38 57.50 59.75L57.50 59.75Q57.50 63.50 57.50 67.38Q57.50 71.25 57.50 75.13L57.50 75.13Q57.50 75.50 57.69 75.63Q57.88 75.75 58.25 75.75L58.25 75.75Q58.75 75.75 59.25 75.75Q59.75 75.75 60.38 75.75L60.38 75.75Q60.88 75.88 61.06 75.63Q61.25 75.38 61.25 74.88L61.25 74.88Q61.25 73 61.31 71Q61.38 69 61.38 67L61.38 67Q61.50 65.50 62.38 64.38Q63.25 63.25 64.75 62.88L64.75 62.88Q65 62.88 65.38 62.81Q65.75 62.75 66.13 62.75L66.13 62.75Q66.50 62.63 66.63 62.44Q66.75 62.25 66.75 61.88L66.75 61.88Q66.75 61.25 66.75 60.63Q66.75 60 66.75 59.38L66.75 59.38Q66.75 59 66.63 58.88Q66.50 58.75 66.13 58.75L66.13 58.75Q64.88 58.75 63.81 59.19Q62.75 59.63 62 60.63L62 60.63Q61.88 60.75 61.75 60.88Q61.63 61 61.50 61.25L61.50 61.25Q61.50 61.13 61.44 61.13Q61.38 61.13 61.25 61.13L61.25 61.13Z"/></svg>