<svg xmlns="http://www.w3.org/2000/svg" xmlns:xlink="http://www.w3.org/1999/xlink" width="128" height="128"><path fill="#ffffff" d="M82 13L82 13Q81.75 13.25 81.56 13.50Q81.38 13.75 81.38 13.88L81.38 13.88Q81.50 14 81.38 14.06Q81.25 14.13 81.13 14.13L81.13 14.13Q81.13 14.13 81.06 14.19Q81 14.25 81 14.38L81 14.38Q81.13 14.50 81.06 14.63Q81 14.75 80.75 14.88L80.75 14.88Q80.63 14.88 80.50 15Q80.38 15.13 80.50 15.25L80.50 15.25Q80.50 15.38 80.50 15.50Q80.50 15.63 80.38 15.63L80.38 15.63Q80.25 15.75 80.19 15.88Q80.13 16 80.25 16.13L80.25 16.13Q80.25 16.25 80.25 16.31Q80.25 16.38 80.13 16.38L80.13 16.38Q79.88 16.38 79.81 16.50Q79.75 16.63 79.88 16.75L79.88 16.75Q79.88 16.88 79.88 17.06Q79.88 17.25 79.88 17.38L79.88 17.38Q79.75 17.38 79.69 17.69Q79.63 18 79.63 18.38L79.63 18.38Q79.50 19.63 79.38 23Q79.25 26.38 79.13 29.38L79.13 29.38Q79 32.38 78.88 34Q78.75 35.63 78.63 36L78.63 36Q78.63 36 78.63 36.19Q78.63 36.38 78.63 36.38L78.63 36.38Q78.63 36.75 78.44 36.63Q78.25 36.50 77.88 36.13L77.88 36.13Q77.63 35.88 77.50 35.69Q77.38 35.50 77.50 35.38L77.50 35.38Q77.50 35.38 77.44 35.31Q77.38 35.25 77.25 35.25L77.25 35.25Q77.13 35.25 77.06 35.19Q77 35.13 77.13 35L77.13 35Q77.13 34.88 77.13 34.75Q77.13 34.63 77 34.63L77 34.63Q76.88 34.63 76.44 33.75Q76 32.88 76.13 32.63L76.13 32.63Q76.13 32.50 76.06 32.44Q76 32.38 75.88 32.38L75.88 32.38Q75.75 32.38 75.69 32.31Q75.63 32.25 75.75 32.13L75.75 32.13Q75.75 32 75.69 31.94Q75.63 31.88 75.50 31.88L75.50 31.88Q75.38 31.88 75.38 31.75Q75.38 31.63 75.38 31.63L75.38 31.63Q75.50 31.50 75.44 31.38Q75.38 31.25 75.25 31.25L75.25 31.25Q75.13 31.25 75.13 31.19Q75.13 31.13 75.13 31L75.13 31Q75.25 30.88 75.19 30.81Q75.13 30.75 75 30.75L75 30.75Q74.88 30.75 74.81 30.63Q74.75 30.50 74.88 30.50L74.88 30.50Q74.88 30.38 74.88 30.25Q74.88 30.13 74.75 30.13L74.75 30.13Q74.63 30.13 74.56 30.06Q74.50 30 74.63 29.88L74.63 29.88Q74.63 29.75 74.56 29.69Q74.50 29.63 74.38 29.63L74.38 29.63Q74.25 29.63 74.25 29.50Q74.25 29.38 74.25 29.38L74.25 29.38Q74.38 29.25 74.31 29.13Q74.25 29 74.13 29L74.13 29Q74 29 74 28.94Q74 28.88 74 28.75L74 28.75Q74.13 28.63 74.06 28.56Q74 28.50 73.88 28.50L73.88 28.50Q73.75 28.50 73.69 28.38Q73.63 28.25 73.75 28.25L73.75 28.25Q73.75 28.13 73.75 28Q73.75 27.88 73.63 27.88L73.63 27.88Q73.50 27.88 73.44 27.81Q73.38 27.75 73.38 27.63L73.38 27.63Q73.50 27.50 73.44 27.38Q73.38 27.25 73.13 27.25L73.13 27.25Q73 27.13 72.88 27.06Q72.75 27 72.88 26.88L72.88 26.88Q72.88 26.75 72.81 26.63Q72.75 26.50 72.50 26.25L72.50 26.25Q72.25 26.13 72.25 26.06Q72.25 26 72.50 26.13L72.50 26.13Q72.63 26.13 72.50 26Q72.38 25.88 72 25.50L72 25.50Q71.75 25.25 71.63 25.06Q71.50 24.88 71.63 25L71.63 25Q71.75 25.13 71.38 24.63Q71 24.13 70.25 23.38L70.25 23.38Q69.50 22.63 68.88 22.13Q68.25 21.63 68.13 21.63L68.13 21.63Q68.13 21.63 68.06 21.56Q68 21.50 68 21.38L68 21.38Q68 21.25 67.88 21.25Q67.75 21.25 67.63 21.25L67.63 21.25Q67.50 21.38 67.44 21.38Q67.38 21.38 67.38 21.25L67.38 21.25Q67.38 21.13 67.19 21.06Q67 21 66.63 21L66.63 21Q66.38 21 66.19 21.06Q66 21.13 66 21.25L66 21.25Q66 21.38 65.88 21.38Q65.75 21.38 65.50 21.38L65.50 21.38Q65.38 21.25 65.25 21.31Q65.13 21.38 65.13 21.50L65.13 21.50Q65.13 21.63 65.06 21.63Q65 21.63 64.88 21.63L64.88 21.63Q64.75 21.50 64.63 21.56Q64.50 21.63 64.50 21.88L64.50 21.88Q64.38 22 64.25 22.13Q64.13 22.25 64 22.13L64 22.13Q63.50 21.75 62.94 23.50Q62.38 25.25 62.88 25.88L62.88 25.88Q63 26 63.06 26.31Q63.13 26.63 63 26.88L63 26.88Q63 27.25 63 27.56Q63 27.88 63.13 28L63.13 28Q63.13 28.13 63.25 28.56Q63.38 29 63.38 29.50L63.38 29.50Q63.38 31.13 63.38 35.81Q63.38 40.50 63.25 41.63L63.25 41.63Q63.25 42.13 63.19 42.81Q63.13 43.50 63.13 43.88L63.13 43.88Q63 44.13 62.94 44.50Q62.88 44.88 62.75 45L62.75 45Q62.63 45.25 62.63 45.50Q62.63 45.75 62.75 45.88L62.75 45.88Q62.75 46.13 62.75 46.38Q62.75 46.63 62.63 46.63L62.63 46.63Q62.50 46.75 62.44 46.94Q62.38 47.13 62.50 47.38L62.50 47.38Q62.50 47.63 62.44 47.81Q62.38 48 62.25 48.13L62.25 48.13Q62.13 48.13 62.13 48.38Q62.13 48.63 62.13 48.75L62.13 48.75Q62.25 49 62.19 49.19Q62.13 49.38 62 49.38L62 49.38Q61.88 49.38 61.81 49.50Q61.75 49.63 61.88 49.75L61.88 49.75Q61.88 50 61.88 50.19Q61.88 50.38 61.88 50.50L61.88 50.50Q61.63 50.88 61.63 52.06Q61.63 53.25 61.88 53.25L61.88 53.25Q62 53.25 62 53.31Q62 53.38 62 53.50L62 53.50Q61.88 53.50 61.94 53.69Q62 53.88 62.25 54L62.25 54Q62.50 54.25 62.50 54.31Q62.50 54.38 62.25 54.25L62.25 54.25Q62.13 54.13 62.13 54.25Q62.13 54.38 62.38 54.63L62.38 54.63Q62.88 55.13 63.06 55.25Q63.25 55.38 63 54.88L63 54.88Q62.88 54.75 63 54.81Q63.13 54.88 63.25 55.13L63.25 55.13Q63.50 55.38 63.69 55.50Q63.88 55.63 64 55.63L64 55.63Q64.13 55.63 64.19 55.69Q64.25 55.75 64.25 55.88L64.25 55.88Q64.25 56 64.38 56Q64.50 56 64.63 56L64.63 56Q64.75 55.88 64.81 55.94Q64.88 56 64.88 56.13L64.88 56.13Q64.88 56.25 64.94 56.25Q65 56.25 65.13 56.25L65.13 56.25Q65.25 56.13 65.31 56.19Q65.38 56.25 65.38 56.38L65.38 56.38Q65.38 56.50 65.50 56.56Q65.63 56.63 65.75 56.50L65.75 56.50Q65.88 56.50 65.94 56.50Q66 56.50 66 56.63L66 56.63Q66 56.75 66.06 56.81Q66.13 56.88 66.25 56.75L66.25 56.75Q66.38 56.75 66.44 56.81Q66.50 56.88 66.50 57L66.50 57Q66.50 57.13 66.63 57.13Q66.75 57.13 66.88 57.13L66.88 57.13Q67 57 67.06 57.06Q67.13 57.13 67.13 57.25L67.13 57.25Q67.13 57.38 67.25 57.38Q67.38 57.38 67.50 57.38L67.50 57.38Q67.75 57.25 67.88 57.31Q68 57.38 68 57.50L68 57.50Q68 57.88 68.63 57.75Q69.25 57.63 69.75 57.13L69.75 57.13Q70 56.88 70.19 56.63Q70.38 56.38 70.25 56.25L70.25 56.25Q70.25 56.25 70.25 56.19Q70.25 56.13 70.50 56.13L70.50 56.13Q70.63 56.13 70.69 56.06Q70.75 56 70.63 55.88L70.63 55.88Q70.50 55.75 70.56 55.63Q70.63 55.50 70.75 55.38L70.75 55.38Q70.88 55.38 70.94 55.19Q71 55 70.88 55L70.88 55Q70.88 54.88 70.88 54.81Q70.88 54.75 71 54.75L71 54.75Q71.13 54.75 71.19 54.63Q71.25 54.50 71.13 54.25L71.13 54.25Q71.13 54.13 71.13 54Q71.13 53.88 71.38 53.88L71.38 53.88Q71.50 53.88 71.56 53.75Q71.63 53.63 71.50 53.38L71.50 53.38Q71.38 53.25 71.44 53.13Q71.50 53 71.63 53L71.63 53Q71.75 53 71.81 52.88Q71.88 52.75 71.75 52.63L71.75 52.63Q71.75 52.38 71.75 52.25Q71.75 52.13 71.88 52.13L71.88 52.13Q72 52.13 72.06 52Q72.13 51.88 72.13 51.75L72.13 51.75Q72 51.63 72.06 51.50Q72.13 51.38 72.25 51.38L72.25 51.38Q72.38 51.38 72.38 51.25Q72.38 51.13 72.38 51L72.38 51Q72.25 51 72.31 50.88Q72.38 50.75 72.50 50.63L72.50 50.63Q72.63 50.50 72.63 50.38Q72.63 50.25 72.63 50.13L72.63 50.13Q72.50 50 72.56 49.94Q72.63 49.88 72.75 49.88L72.75 49.88Q72.88 49.88 72.94 49.81Q73 49.75 72.88 49.63L72.88 49.63Q72.88 49.25 73.31 49.25Q73.75 49.25 74.13 49.63L74.13 49.63Q74.38 49.88 74.38 49.88Q74.38 49.88 74.25 49.63L74.25 49.63Q74.25 49.50 74.50 49.69Q74.75 49.88 75.13 50.38L75.13 50.38Q75.50 50.75 75.81 51Q76.13 51.25 76 51L76 51Q75.88 50.88 76.31 51.25Q76.75 51.63 77.38 52.25L77.38 52.25Q78 53 78.44 53.38Q78.88 53.75 78.75 53.63L78.75 53.63Q78.75 53.38 78.88 53.44Q79 53.50 79.25 53.88L79.25 53.88Q79.50 54.13 79.75 54.31Q80 54.50 80.13 54.50L80.13 54.50Q80.25 54.50 80.38 54.63Q80.50 54.75 80.63 55L80.63 55Q80.75 55.13 80.81 55.19Q80.88 55.25 80.88 55.13L80.88 55.13Q80.88 55 81 55.06Q81.13 55.13 81.25 55.38L81.25 55.38Q81.38 55.50 81.50 55.63Q81.63 55.75 81.75 55.63L81.75 55.63Q81.88 55.63 81.94 55.69Q82 55.75 82 55.88L82 55.88Q82 56 82.13 56Q82.25 56 82.38 56L82.38 56Q82.50 55.88 82.56 55.94Q82.63 56 82.63 56.13L82.63 56.13Q82.63 56.25 82.75 56.25Q82.88 56.25 83 56.25L83 56.25Q83.25 56.13 83.38 56.19Q83.50 56.25 83.50 56.25L83.50 56.25Q83.50 56.50 84.25 56.63Q85 56.75 85.88 56.63L85.88 56.63Q86.25 56.63 87.06 55.88Q87.88 55.13 87.75 55L87.75 55Q87.75 55 87.75 54.94Q87.75 54.88 87.75 54.88L87.75 54.88Q87.88 54.63 87.94 50.75Q88 46.88 88 35.75L88 35.75Q88.13 22.88 88.06 20.50Q88 18.13 87.50 17.63L87.50 17.63Q87.25 17.50 87.13 17.25Q87 17 87 16.88L87 16.88Q87 16.75 86.88 16.63Q86.75 16.50 86.50 16.38L86.50 16.38Q86.38 16.25 86.31 16.19Q86.25 16.13 86.38 16.13L86.38 16.13Q86.50 16.13 86.38 15.94Q86.25 15.75 86 15.50L86 15.50Q85.75 15.25 85.63 15.13Q85.50 15 85.75 15.13L85.75 15.13Q85.88 15.13 85.81 15.06Q85.75 15 85.63 14.75L85.63 14.75Q85.38 14.63 85.19 14.44Q85 14.25 85 14.13L85 14.13Q85 13.88 84.13 13.06Q83.25 12.25 83 12.25L83 12.25Q82.88 12.25 82.63 12.44Q82.38 12.63 82 13L82 13ZM8.13 13.25L8.13 13.25Q8.13 13.38 8.06 13.44Q8 13.50 7.88 13.38L7.88 13.38Q7.88 13.38 7.75 13.44Q7.63 13.50 7.50 13.75L7.50 13.75Q7.38 13.88 7.25 13.94Q7.13 14 7.13 14L7.13 14Q6.88 13.88 6.56 14.19Q6.25 14.50 6.38 14.75L6.38 14.75Q6.50 14.88 6.44 14.94Q6.38 15 6.25 15L6.25 15Q6.13 15 6.06 15Q6 15 6 15.13L6 15.13Q6 15.25 5.94 15.44Q5.88 15.63 5.75 15.88L5.75 15.88Q5.75 16 5.75 16.75Q5.75 17.50 5.75 18.25L5.75 18.25Q5.88 19 5.88 19.88Q5.88 20.75 6 21.13L6 21.13Q6 21.50 6.06 21.94Q6.13 22.38 6.25 22.50L6.25 22.50Q6.38 22.63 6.38 22.88Q6.38 23.13 6.38 23.38L6.38 23.38Q6.25 23.63 6.31 23.81Q6.38 24 6.50 24.13L6.50 24.13Q6.63 24.25 6.69 24.50Q6.75 24.75 6.63 25L6.63 25Q6.63 25.25 6.63 25.50Q6.63 25.75 6.75 25.75L6.75 25.75Q6.88 25.88 6.94 26.06Q7 26.25 6.88 26.50L6.88 26.50Q6.88 26.75 6.88 26.94Q6.88 27.13 7 27.25L7 27.25Q7.13 27.25 7.19 27.50Q7.25 27.75 7.25 27.88L7.25 27.88Q7.13 28.13 7.19 28.31Q7.25 28.50 7.38 28.63L7.38 28.63Q7.50 28.75 7.50 28.94Q7.50 29.13 7.50 29.38L7.50 29.38Q7.38 29.50 7.44 29.75Q7.50 30 7.63 30L7.63 30Q7.75 30.13 7.81 30.31Q7.88 30.50 7.75 30.75L7.75 30.75Q7.75 31 7.75 31.19Q7.75 31.38 7.88 31.38L7.88 31.38Q8 31.50 8.06 31.69Q8.13 31.88 8 32.13L8 32.13Q8 32.38 8 32.56Q8 32.75 8.13 32.75L8.13 32.75Q8.25 32.75 8.38 32.81Q8.50 32.88 8.38 33L8.38 33Q8.38 33.38 11.63 36.75Q14.88 40.13 15.25 40.13L15.25 40.13Q15.50 40.13 15.56 41.63Q15.63 43.13 15.63 47L15.63 47Q15.63 49.75 15.69 51.88Q15.75 54 15.88 54L15.88 54Q16 54.13 16 54.38Q16 54.63 15.88 54.75L15.88 54.75Q15.88 55 15.88 55.13Q15.88 55.25 16.13 55.25L16.13 55.25Q16.25 55.25 16.25 55.31Q16.25 55.38 16.25 55.50L16.25 55.50Q16.13 55.63 16.19 55.75Q16.25 55.88 16.38 56L16.38 56Q16.50 56 16.50 56.13Q16.50 56.25 16.50 56.38L16.50 56.38Q16.38 56.50 16.44 56.56Q16.50 56.63 16.63 56.63L16.63 56.63Q16.75 56.63 16.81 56.75Q16.88 56.88 16.75 57L16.75 57Q16.75 57 16.75 57.13Q16.75 57.25 16.88 57.25L16.88 57.25Q17 57.25 17.06 57.31Q17.13 57.38 17 57.50L17 57.50Q17 57.63 17.06 57.69Q17.13 57.75 17.25 57.75L17.25 57.75Q17.38 57.75 17.38 57.88Q17.38 58 17.38 58L17.38 58Q17.25 58.13 17.38 58.25Q17.50 58.38 17.63 58.50L17.63 58.50Q17.75 58.50 17.88 58.63Q18 58.75 18 58.88L18 58.88Q18 59 18.13 59.25Q18.25 59.50 18.50 59.63L18.50 59.63Q18.75 59.88 18.75 59.94Q18.75 60 18.63 59.88L18.63 59.88Q18.50 59.75 18.69 60.06Q18.88 60.38 19.25 60.88L19.25 60.88Q19.75 61.38 20.13 61.63Q20.50 61.88 20.63 61.88L20.63 61.88Q20.75 61.75 20.88 61.88Q21 62 21 62.13L21 62.13Q21.13 62.38 21.25 62.44Q21.38 62.50 21.50 62.38L21.50 62.38Q21.50 62.38 21.63 62.44Q21.75 62.50 21.75 62.63L21.75 62.63Q21.75 62.75 21.81 62.75Q21.88 62.75 22 62.75L22 62.75Q22.13 62.63 22.19 62.69Q22.25 62.75 22.25 62.88L22.25 62.88Q22.25 63 22.31 63.06Q22.38 63.13 22.50 63L22.50 63Q22.63 63 22.75 63Q22.88 63 22.88 63.13L22.88 63.13Q22.88 63.25 23.13 63.31Q23.38 63.38 23.75 63.25L23.75 63.25Q24.13 63.25 24.38 63.13Q24.63 63 24.63 62.88L24.63 62.88Q24.63 62.75 24.63 62.69Q24.63 62.63 24.75 62.63L24.75 62.63Q24.88 62.63 24.94 62.31Q25 62 25.13 61.50L25.13 61.50Q25.13 60.75 25.19 59.31Q25.25 57.88 25.50 55.50L25.50 55.50Q25.63 53.75 25.81 51.56Q26 49.38 26.38 45.13L26.38 45.13Q26.63 42.25 26.69 41.50Q26.75 40.75 27.13 40.50L27.13 40.50Q27.25 40.25 27.25 40.13Q27.25 40 27.25 40L27.25 40Q27.13 40 27.25 39.88Q27.38 39.75 27.63 39.50L27.63 39.50Q27.88 39.25 28 39.13Q28.13 39 27.88 39.13L27.88 39.13Q27.75 39.13 27.88 38.94Q28 38.75 28.25 38.38L28.25 38.38Q28.63 38 28.94 37.81Q29.25 37.63 29.38 37.63L29.38 37.63Q29.38 37.75 29.63 37.56Q29.88 37.38 30 37.13L30 37.13Q30.50 36.63 30.50 36.63Q30.50 36.63 30 36.88L30 36.88Q29.75 37.13 29.94 36.94Q30.13 36.75 30.63 36.25L30.63 36.25Q31 35.88 31.38 35.44Q31.75 35 31.75 34.88L31.75 34.88Q31.75 34.88 31.88 34.69Q32 34.50 32.25 34.25L32.25 34.25Q32.50 34.13 32.63 34Q32.75 33.88 32.63 33.88L32.63 33.88Q32.50 33.88 32.56 33.75Q32.63 33.63 32.88 33.38L32.88 33.38Q33.13 33.25 33.13 33.13Q33.13 33 33 33.13L33 33.13Q32.75 33.25 32.75 33.19Q32.75 33.13 33 32.88L33 32.88Q33.25 32.75 33.38 32.56Q33.50 32.38 33.38 32.38L33.38 32.38Q33.25 32.25 33.31 32.19Q33.38 32.13 33.50 32.13L33.50 32.13Q33.63 32.13 33.69 32.06Q33.75 32 33.75 31.88L33.75 31.88Q33.63 31.75 33.69 31.69Q33.75 31.63 33.75 31.63L33.75 31.63Q33.88 31.63 34 31.56Q34.13 31.50 34.13 31.38L34.13 31.38Q34.13 31.25 34.13 31.19Q34.13 31.13 34.13 31L34.13 31Q34.25 30.75 34.25 29.88Q34.25 29 34.13 28.88L34.13 28.88Q34 28.88 34 28.69Q34 28.50 34 28.38L34 28.38Q34.13 28.13 34.06 28Q34 27.88 33.88 27.88L33.88 27.88Q33.75 27.88 33.69 27.81Q33.63 27.75 33.75 27.63L33.75 27.63Q33.75 27.50 33.69 27.44Q33.63 27.38 33.50 27.38L33.50 27.38Q33.38 27.38 33.31 27.31Q33.25 27.25 33.38 27.25L33.38 27.25Q33.50 27 32.31 25.88Q31.13 24.75 31 24.75L31 24.75Q30.88 24.75 30.81 24.69Q30.75 24.63 30.75 24.50L30.75 24.50Q30.75 24.38 30.69 24.31Q30.63 24.25 30.50 24.38L30.50 24.38Q30.38 24.38 30.25 24.31Q30.13 24.25 30 24.13L30 24.13Q30 23.88 29.88 23.81Q29.75 23.75 29.63 23.88L29.63 23.88Q29.50 23.88 29.44 23.81Q29.38 23.75 29.38 23.63L29.38 23.63Q29.38 23.50 29.25 23.50Q29.13 23.50 29 23.50L29 23.50Q28.88 23.63 28.81 23.56Q28.75 23.50 28.75 23.38L28.75 23.38Q28.75 23.25 28.69 23.25Q28.63 23.25 28.50 23.25L28.50 23.25Q28.38 23.38 28.31 23.31Q28.25 23.25 28.25 23.13L28.25 23.13Q28.25 23 28.13 22.94Q28 22.88 27.88 22.88L27.88 22.88Q27.63 22.88 27.06 23.44Q26.50 24 26.75 24L26.75 24Q26.88 24 26.69 24.19Q26.50 24.38 26.25 24.50L26.25 24.50Q25.88 24.75 25.81 24.88Q25.75 25 26 25L26 25Q26.13 24.88 25.94 25.06Q25.75 25.25 25.38 25.63L25.38 25.63Q25 26 24.81 26.19Q24.63 26.38 24.75 26.38L24.75 26.38Q25 26.25 24.69 26.63Q24.38 27 23.75 27.75L23.75 27.75Q23.13 28.38 22.56 28.81Q22 29.25 21.88 29.13L21.88 29.13Q21.88 29.13 21.75 29.19Q21.63 29.25 21.50 29.38L21.50 29.38Q21.50 29.63 21.38 29.69Q21.25 29.75 21.13 29.75L21.13 29.75Q21 29.63 20.94 29.69Q20.88 29.75 20.88 29.88L20.88 29.88Q20.88 30 19.94 30Q19 30 18.63 29.75L18.63 29.75Q18.50 29.75 18.44 29.56Q18.38 29.38 18.50 29.25L18.50 29.25Q18.50 29.25 18.50 29.13Q18.50 29 18.38 29L18.38 29Q18.25 29 18.19 28.94Q18.13 28.88 18.13 28.75L18.13 28.75Q18.25 28.63 18.19 28.50Q18.13 28.38 18 28.38L18 28.38Q17.88 28.25 17.88 28.13Q17.88 28 17.88 27.88L17.88 27.88Q18 27.75 18 27.56Q18 27.38 17.88 27.25L17.88 27.25Q17.63 27 17.56 26.19Q17.50 25.38 17.50 24.25L17.50 24.25Q17.50 23.88 17.38 23.50Q17.25 23.13 17.13 23L17.13 23Q17.13 22.75 17.06 22.44Q17 22.13 17.13 21.88L17.13 21.88Q17.13 21.50 17.13 21.31Q17.13 21.13 16.88 21.13L16.88 21.13Q16.75 21.13 16.75 21Q16.75 20.88 16.75 20.63L16.75 20.63Q16.88 20.38 16.81 20.19Q16.75 20 16.63 20L16.63 20Q16.50 20 16.44 19.94Q16.38 19.88 16.50 19.75L16.50 19.75Q16.50 19.63 16.50 19.50Q16.50 19.38 16.38 19.38L16.38 19.38Q16.25 19.25 16.19 19.13Q16.13 19 16.25 18.88L16.25 18.88Q16.25 18.75 16.25 18.69Q16.25 18.63 16.13 18.63L16.13 18.63Q16 18.63 15.94 18.50Q15.88 18.38 15.88 18.38L15.88 18.38Q16 18.25 15.94 18.13Q15.88 18 15.75 18L15.75 18Q15.63 18 15.63 17.94Q15.63 17.88 15.63 17.75L15.63 17.75Q15.75 17.63 15.69 17.50Q15.63 17.38 15.38 17.25L15.38 17.25Q15.25 17.25 15.13 17.13Q15 17 15.13 16.88L15.13 16.88Q15.13 16.75 15 16.63Q14.88 16.50 14.63 16.38L14.63 16.38Q14.38 16.25 14.25 16.06Q14.13 15.88 14.25 15.88L14.25 15.88Q14.25 15.75 14 15.38Q13.75 15 13.38 14.63L13.38 14.63Q13 14.25 12.69 14.06Q12.38 13.88 12.38 14L12.38 14Q12.38 14.13 12.31 14.06Q12.25 14 12.13 13.88L12.13 13.88Q12 13.63 11.81 13.50Q11.63 13.38 11.50 13.38L11.50 13.38Q11.50 13.38 11.38 13.31Q11.25 13.25 11.25 13.25L11.25 13.25Q11 13.13 9.56 13.13Q8.13 13.13 8.13 13.25L8.13 13.25ZM102.13 15.63L102.13 15.63Q102.13 15.63 101.94 15.63Q101.75 15.63 101.63 15.63L101.63 15.63Q101.50 15.50 101.38 15.56Q101.25 15.63 101.25 15.75L101.25 15.75Q101.25 15.88 101.13 15.94Q101 16 100.88 15.88L100.88 15.88Q100.88 15.88 100.75 15.94Q100.63 16 100.63 16.13L100.63 16.13Q100.63 16.25 100.56 16.25Q100.50 16.25 100.38 16.25L100.38 16.25Q100.25 16.13 100.06 16.25Q99.88 16.38 99.75 16.50L99.75 16.50Q99.50 16.75 99.38 16.81Q99.25 16.88 99.25 16.75L99.25 16.75Q99.25 16.63 99.13 16.75Q99 16.88 98.88 17.13L98.88 17.13Q98.63 17.25 98.50 17.38Q98.38 17.50 98.38 17.38L98.38 17.38Q98.38 17.25 98.19 17.38Q98 17.50 97.75 17.75L97.75 17.75Q97.63 18.13 97.50 18.19Q97.38 18.25 97.50 18L97.50 18Q97.50 17.88 97.25 18Q97 18.13 96.63 18.63L96.63 18.63Q96.25 19 96 19.38Q95.75 19.75 95.75 19.88L95.75 19.88Q95.88 20.13 95.81 20.19Q95.75 20.25 95.63 20.25L95.63 20.25Q95.50 20.25 95.44 20.38Q95.38 20.50 95.38 20.63L95.38 20.63Q95.50 20.63 95.44 20.75Q95.38 20.88 95.25 20.88L95.25 20.88Q95.13 20.88 95.13 20.94Q95.13 21 95.13 21.13L95.13 21.13Q95.25 21.25 95.19 21.38Q95.13 21.50 94.88 21.63L94.88 21.63Q94.75 21.63 94.63 21.75Q94.50 21.88 94.63 22L94.63 22Q94.63 22.13 94.50 22.25Q94.38 22.38 94.13 22.50L94.13 22.50Q93.88 22.63 93.75 22.81Q93.63 23 93.75 23.13L93.75 23.13Q93.88 23.25 93.81 23.31Q93.75 23.38 93.63 23.38L93.63 23.38Q93.50 23.38 93.44 23.44Q93.38 23.50 93.50 23.63L93.50 23.63Q93.50 23.75 93.50 23.88Q93.50 24 93.38 24L93.38 24Q93.25 24 93.19 24.06Q93.13 24.13 93.13 24.25L93.13 24.25Q93.25 24.38 93.19 24.44Q93.13 24.50 93 24.50L93 24.50Q92.88 24.50 92.88 24.56Q92.88 24.63 92.88 24.75L92.88 24.75Q93 24.88 92.94 25Q92.88 25.13 92.75 25.13L92.75 25.13Q92.63 25.13 92.63 25.25Q92.63 25.38 92.63 25.50L92.63 25.50Q92.75 25.63 92.69 25.81Q92.63 26 92.50 26L92.50 26Q92.38 26 92.31 26.13Q92.25 26.25 92.38 26.38L92.38 26.38Q92.50 26.50 92.44 26.63Q92.38 26.75 92.25 26.75L92.25 26.75Q92.13 26.75 92.06 26.81Q92 26.88 92 27L92 27Q92.13 27.13 92.06 27.25Q92 27.38 92 27.50L92 27.50Q91.88 27.50 91.81 27.69Q91.75 27.88 91.88 28L91.88 28Q91.88 28.25 91.81 28.38Q91.75 28.50 91.63 28.50L91.63 28.50Q91.50 28.50 91.44 28.63Q91.38 28.75 91.50 29L91.50 29Q91.63 29.25 91.56 29.44Q91.50 29.63 91.38 29.63L91.38 29.63Q91.25 29.63 91.19 29.75Q91.13 29.88 91.25 30.13L91.25 30.13Q91.25 30.38 91.25 30.56Q91.25 30.75 91.13 30.75L91.13 30.75Q90.88 30.75 90.81 30.94Q90.75 31.13 90.88 31.38L90.88 31.38Q91 31.75 90.94 31.94Q90.88 32.13 90.75 32.13L90.75 32.13Q90.63 32.13 90.56 32.31Q90.50 32.50 90.63 32.88L90.63 32.88Q90.75 33.13 90.69 33.44Q90.63 33.75 90.63 33.88L90.63 33.88Q90.38 34.25 90.38 37.38Q90.38 40.50 90.63 40.75L90.63 40.75Q90.75 41 90.75 41.19Q90.75 41.38 90.63 41.50L90.63 41.50Q90.50 41.63 90.56 41.81Q90.63 42 90.75 42.13L90.75 42.13Q90.88 42.38 90.94 42.56Q91 42.75 90.88 42.88L90.88 42.88Q90.88 43 90.94 43.06Q91 43.13 91.13 43.13L91.13 43.13Q91.25 43.13 91.31 43.25Q91.38 43.38 91.25 43.50L91.25 43.50Q91.13 43.75 91.19 43.88Q91.25 44 91.38 44L91.38 44Q91.50 44 91.50 44.06Q91.50 44.13 91.50 44.25L91.50 44.25Q91.38 44.38 91.44 44.44Q91.50 44.50 91.63 44.50L91.63 44.50Q91.75 44.50 91.81 44.63Q91.88 44.75 91.75 44.88L91.75 44.88Q91.75 44.88 91.75 45Q91.75 45.13 91.88 45.13L91.88 45.13Q92 45.13 92.06 45.19Q92.13 45.25 92.13 45.38L92.13 45.38Q92.13 45.50 92.25 45.69Q92.38 45.88 92.63 46.13L92.63 46.13Q92.88 46.25 92.88 46.31Q92.88 46.38 92.75 46.38L92.75 46.38Q92.63 46.25 92.81 46.56Q93 46.88 93.38 47.25L93.38 47.25Q93.88 47.75 94.25 48.06Q94.63 48.38 94.75 48.38L94.75 48.38Q94.88 48.25 95 48.38Q95.13 48.50 95.25 48.75L95.25 48.75Q95.38 49 95.56 49.13Q95.75 49.25 95.88 49.25L95.88 49.25Q96 49.13 96.13 49.19Q96.25 49.25 96.25 49.50L96.25 49.50Q96.38 49.63 96.50 49.75Q96.63 49.88 96.75 49.75L96.75 49.75Q96.75 49.75 96.88 49.81Q97 49.88 97.13 50.13L97.13 50.13Q97.13 50.25 97.25 50.31Q97.38 50.38 97.50 50.38L97.50 50.38Q97.63 50.25 97.75 50.31Q97.88 50.38 97.88 50.50L97.88 50.50Q97.88 50.63 97.94 50.63Q98 50.63 98.13 50.63L98.13 50.63Q98.25 50.50 98.31 50.56Q98.38 50.63 98.38 50.75L98.38 50.75Q98.38 50.88 98.50 50.94Q98.63 51 98.63 50.88L98.63 50.88Q98.75 50.88 98.88 50.88Q99 50.88 99 51L99 51Q99 51.13 99.13 51.19Q99.25 51.25 99.50 51.13L99.50 51.13Q99.75 51.13 99.94 51.13Q100.13 51.13 100.25 51.38L100.25 51.38Q100.38 51.63 102.31 51.63Q104.25 51.63 104.50 51.25L104.50 51.25Q104.50 51.13 104.75 51.13Q105 51.13 105.38 51.13L105.38 51.13Q105.63 51.25 105.81 51.19Q106 51.13 106 51L106 51Q106 50.88 106.06 50.88Q106.13 50.88 106.25 50.88L106.25 50.88Q106.38 51 106.50 50.94Q106.63 50.88 106.63 50.75L106.63 50.75Q106.63 50.63 106.69 50.56Q106.75 50.50 106.88 50.63L106.88 50.63Q107 50.63 107.19 50.50Q107.38 50.38 107.63 50L107.63 50Q107.75 49.75 107.94 49.63Q108.13 49.50 108.25 49.50L108.25 49.50Q108.38 49.63 108.44 49.56Q108.50 49.50 108.50 49.38L108.50 49.38Q108.50 49.25 108.63 49.19Q108.75 49.13 108.88 49.25L108.88 49.25Q109 49.25 109.06 49.19Q109.13 49.13 109.13 49L109.13 49Q109.13 48.88 109.19 48.81Q109.25 48.75 109.25 48.88L109.25 48.88Q109.38 49 110.44 48Q111.50 47 111.38 46.75L111.38 46.75Q111.38 46.63 111.50 46.50Q111.63 46.38 111.75 46.38L111.75 46.38Q112 46.25 112.06 46.13Q112.13 46 112 45.88L112 45.88Q112 45.88 112.06 45.75Q112.13 45.63 112.38 45.50L112.38 45.50Q112.50 45.50 112.56 45.38Q112.63 45.25 112.63 45.13L112.63 45.13Q112.50 45 112.56 44.94Q112.63 44.88 112.75 44.88L112.75 44.88Q112.88 44.88 112.94 44.75Q113 44.63 112.88 44.50L112.88 44.50Q112.88 44.38 112.88 44.31Q112.88 44.25 113 44.25L113 44.25Q113.13 44.25 113.19 44.19Q113.25 44.13 113.25 44L113.25 44Q113.13 43.88 113.13 43.81Q113.13 43.75 113.25 43.75L113.25 43.75Q113.50 43.75 113.50 43.63Q113.50 43.50 113.50 43.25L113.50 43.25Q113.38 43.13 113.44 43Q113.50 42.88 113.63 42.88L113.63 42.88Q113.75 42.88 113.81 42.69Q113.88 42.50 113.75 42.38L113.75 42.38Q113.75 42.13 113.75 41.88Q113.75 41.63 113.88 41.63L113.88 41.63Q114.13 41.50 114 34.19Q113.88 26.88 113.50 26.13L113.50 26.13Q113.38 26 113.38 25.69Q113.38 25.38 113.50 25.25L113.50 25.25Q113.50 25 113.50 24.75Q113.50 24.50 113.25 24.38L113.25 24.38Q113.13 24.25 113.13 24Q113.13 23.75 113.13 23.50L113.13 23.50Q113.25 23.38 113.19 23.19Q113.13 23 113 23L113 23Q112.88 22.88 112.88 22.69Q112.88 22.50 112.88 22.38L112.88 22.38Q113 22.25 112.94 22.13Q112.88 22 112.75 22L112.75 22Q112.63 22 112.56 21.88Q112.50 21.75 112.63 21.63L112.63 21.63Q112.63 21.38 112.63 21.25Q112.63 21.13 112.50 21.13L112.50 21.13Q112.38 21.13 112.31 21.06Q112.25 21 112.38 20.88L112.38 20.88Q112.38 20.75 112.38 20.69Q112.38 20.63 112.25 20.63L112.25 20.63Q112.13 20.63 112.06 20.50Q112 20.38 112 20.38L112 20.38Q112 20.25 111.88 20Q111.75 19.75 111.50 19.63L111.50 19.63Q111.25 19.38 111.25 19.31Q111.25 19.25 111.38 19.38L111.38 19.38Q111.50 19.38 111.38 19.19Q111.25 19 111 18.63L111 18.63Q110.25 18 110.06 17.81Q109.88 17.63 110.13 18.13L110.13 18.13Q110.13 18.25 110 18.13Q109.88 18 109.50 17.63L109.50 17.63Q109.25 17.25 109.06 17.06Q108.88 16.88 108.88 17L108.88 17Q108.88 17.13 108.75 17.06Q108.63 17 108.50 16.88L108.50 16.88Q108.38 16.63 108.25 16.50Q108.13 16.38 108 16.50L108 16.50Q107.88 16.63 107.81 16.56Q107.75 16.50 107.75 16.38L107.75 16.38Q107.75 16.25 107.63 16.19Q107.50 16.13 107.38 16.25L107.38 16.25Q107.38 16.25 107.25 16.25Q107.13 16.25 107.13 16.13L107.13 16.13Q107.13 16 107.06 15.94Q107 15.88 106.88 15.88L106.88 15.88Q106.75 16 106.63 15.94Q106.50 15.88 106.38 15.88L106.38 15.88Q106.38 15.75 106.19 15.69Q106 15.63 105.88 15.75L105.88 15.75Q105.75 15.75 105.63 15.75Q105.50 15.75 105.50 15.63L105.50 15.63Q105.50 15.38 103.94 15.38Q102.38 15.38 102.13 15.63L102.13 15.63ZM104.63 28.88L104.63 28.88Q104.63 29 104.69 29Q104.75 29 104.88 29L104.88 29Q104.88 28.88 105.13 29Q105.38 29.13 105.50 29.38L105.50 29.38Q105.75 29.63 105.81 29.75Q105.88 29.88 105.75 29.88L105.75 29.88Q105.75 29.88 105.75 30Q105.75 30.13 106 30.25L106 30.25Q106.25 30.50 106.25 31.19Q106.25 31.88 106 32L106 32Q105.88 32.13 105.81 32.31Q105.75 32.50 105.88 32.75L105.88 32.75Q106 33 105.94 33.13Q105.88 33.25 105.75 33.25L105.75 33.25Q105.63 33.25 105.56 33.38Q105.50 33.50 105.63 33.75L105.63 33.75Q105.75 33.88 105.69 34Q105.63 34.13 105.50 34.13L105.50 34.13Q105.38 34.13 105.31 34.19Q105.25 34.25 105.25 34.38L105.25 34.38Q105.38 34.50 105.31 34.56Q105.25 34.63 105.13 34.63L105.13 34.63Q105 34.63 104.94 34.75Q104.88 34.88 105 34.88L105 34.88Q105.13 35 105.06 35.13Q105 35.25 104.88 35.38L104.88 35.38Q104.75 35.50 104.69 35.63Q104.63 35.75 104.75 35.88L104.75 35.88Q104.88 36 104.75 36.13Q104.63 36.25 104.50 36.25L104.50 36.25Q104.25 36.38 104.19 36.50Q104.13 36.63 104.25 36.63L104.25 36.63Q104.25 36.75 104.19 36.81Q104.13 36.88 104 36.88L104 36.88Q103.88 36.88 103.81 37Q103.75 37.13 103.88 37.25L103.88 37.25Q103.88 37.25 103.81 37.38Q103.75 37.50 103.63 37.63L103.63 37.63Q103.50 37.63 103.38 37.75Q103.25 37.88 103.25 38L103.25 38Q103.38 38.25 102.75 38.81Q102.13 39.38 102 39.25L102 39.25Q101.88 39.13 101.81 39.19Q101.75 39.25 101.75 39.38L101.75 39.38Q101.75 39.75 101.44 39.69Q101.13 39.63 100.75 39.25L100.75 39.25Q100.63 39 100.56 39Q100.50 39 100.50 39.13L100.50 39.13Q100.63 39.38 100.63 39.44Q100.63 39.50 100.38 39.38L100.38 39.38Q100.25 39.25 100.19 39.13Q100.13 39 100.25 38.88L100.25 38.88Q100.25 38.88 100.19 38.69Q100.13 38.50 100 38.38L100 38.38Q99.63 38 99.56 37.06Q99.50 36.13 99.75 36L99.75 36Q99.88 35.88 99.94 35.69Q100 35.50 100 35.25L100 35.25Q99.88 35 99.88 34.81Q99.88 34.63 100 34.63L100 34.63Q100.13 34.63 100.19 34.50Q100.25 34.38 100.25 34.25L100.25 34.25Q100.13 34.13 100.19 34Q100.25 33.88 100.38 33.88L100.38 33.88Q100.50 33.88 100.56 33.75Q100.63 33.63 100.50 33.38L100.50 33.38Q100.50 33.25 100.50 33.13Q100.50 33 100.63 33L100.63 33Q100.75 33 100.81 32.94Q100.88 32.88 100.75 32.75L100.75 32.75Q100.75 32.63 100.75 32.50Q100.75 32.38 100.88 32.25L100.88 32.25Q101 32.25 101.06 32.06Q101.13 31.88 101.13 31.88L101.13 31.88Q101 31.75 101.06 31.69Q101.13 31.63 101.25 31.63L101.25 31.63Q101.38 31.63 101.38 31.50Q101.38 31.38 101.38 31.25L101.38 31.25Q101.25 31.13 101.31 31.06Q101.38 31 101.50 31L101.50 31Q101.63 31 101.69 30.94Q101.75 30.88 101.75 30.75L101.75 30.75Q101.75 30.75 101.75 30.63Q101.75 30.50 101.75 30.38L101.75 30.38Q101.75 30.25 101.81 30.13Q101.88 30 101.88 30L101.88 30Q101.88 29.88 102.06 29.63Q102.25 29.38 102.50 29.13L102.50 29.13Q102.88 28.75 103.75 28.63Q104.63 28.50 104.63 28.88L104.63 28.88ZM52.75 21.88L52.75 21.88Q52.63 22 52.63 22.06Q52.63 22.13 52.63 22.25L52.63 22.25Q52.63 22.38 52.50 22.56Q52.38 22.75 52.13 22.75L52.13 22.75Q52 22.88 51.94 23.06Q51.88 23.25 52 23.38L52 23.38Q52 23.50 52 23.63Q52 23.75 51.88 23.88L51.88 23.88Q51.75 23.88 51.69 24.13Q51.63 24.38 51.75 24.50L51.75 24.50Q51.88 24.75 51.81 25.06Q51.75 25.38 51.63 25.50L51.63 25.50Q51.38 25.75 51.38 26.25Q51.38 26.75 51.50 27.63L51.50 27.63Q51.50 28.50 51.50 28.94Q51.50 29.38 51.38 29.50L51.38 29.50Q51.13 29.50 51.13 29.75Q51.13 30 51.13 30.13L51.13 30.13Q51.25 30.38 51.19 30.56Q51.13 30.75 51 30.88L51 30.88Q50.88 31 50.88 31.19Q50.88 31.38 50.88 31.63L50.88 31.63Q51 31.75 50.94 32Q50.88 32.25 50.75 32.25L50.75 32.25Q50.63 32.38 50.56 32.56Q50.50 32.75 50.63 33L50.63 33Q50.75 33.25 50.69 33.38Q50.63 33.50 50.50 33.50L50.50 33.50Q50.38 33.50 50.31 33.63Q50.25 33.75 50.25 34L50.25 34Q50.38 34.13 50.31 34.31Q50.25 34.50 50.13 34.50L50.13 34.50Q50.13 34.63 50.06 34.75Q50 34.88 50.13 35.13L50.13 35.13Q50.13 35.25 50.06 35.38Q50 35.50 49.88 35.50L49.88 35.50Q49.75 35.50 49.69 35.63Q49.63 35.75 49.75 36L49.75 36Q49.75 36.13 49.75 36.25Q49.75 36.38 49.63 36.38L49.63 36.38Q49.50 36.38 49.44 36.50Q49.38 36.63 49.38 36.75L49.38 36.75Q49.50 37 49.50 37.13Q49.50 37.25 49.38 37.38L49.38 37.38Q49.25 37.38 49.19 37.56Q49.13 37.75 49.25 37.88L49.25 37.88Q49.38 38.13 49.31 38.25Q49.25 38.38 49 38.38L49 38.38Q48.88 38.38 48.81 38.50Q48.75 38.63 48.88 38.75L48.88 38.75Q49 38.88 48.94 39.06Q48.88 39.25 48.75 39.38L48.75 39.38Q48.63 39.38 48.63 39.50Q48.63 39.63 48.63 39.75L48.63 39.75Q48.75 39.88 48.69 40.06Q48.63 40.25 48.50 40.50L48.50 40.50Q48.38 40.63 48.31 40.81Q48.25 41 48.38 41.13L48.38 41.13Q48.38 41.25 48.38 41.50Q48.38 41.75 48.25 41.88L48.25 41.88Q48.13 42 48.06 42.25Q48 42.50 48.13 42.63L48.13 42.63Q48.13 42.63 48.06 42.75Q48 42.88 47.88 42.88L47.88 42.88Q47.75 42.88 47.75 42.94Q47.75 43 47.75 43.13L47.75 43.13Q47.88 43.25 47.75 43.38Q47.63 43.50 47.50 43.50L47.50 43.50Q47.25 43.63 47.19 43.75Q47.13 43.88 47.25 44L47.25 44Q47.38 44.13 47.38 44.19Q47.38 44.25 47.25 44.25L47.25 44.25Q47.13 44.13 46.88 44.13Q46.63 44.13 46.38 44.25L46.38 44.25Q45.88 44.50 45.31 44.25Q44.75 44 45 43.63L45 43.63Q45 43.63 45 43.50Q45 43.38 44.88 43.38L44.88 43.38Q44.75 43.38 44.69 43.31Q44.63 43.25 44.63 43.13L44.63 43.13Q44.75 43 44.75 42.81Q44.75 42.63 44.63 42.50L44.63 42.50Q44.50 42.38 44.44 41.50Q44.38 40.63 44.38 39.63L44.38 39.63Q44.25 37.50 44.13 34.31Q44 31.13 43.88 29.88L43.88 29.88Q43.88 29.50 43.81 29.06Q43.75 28.63 43.63 28.50L43.63 28.50Q43.50 28.38 43.50 28.19Q43.50 28 43.50 27.88L43.50 27.88Q43.63 27.75 43.56 27.69Q43.50 27.63 43.38 27.63L43.38 27.63Q43.25 27.63 43.19 27.56Q43.13 27.50 43.25 27.50L43.25 27.50Q43.25 27.38 43.13 27.13Q43 26.88 42.63 26.63L42.63 26.63Q42.25 26.25 42.25 26.19Q42.25 26.13 42.38 26.25L42.38 26.25Q42.75 26.50 42.81 26.50Q42.88 26.50 42.63 26.13L42.63 26.13Q42.50 26 42.31 25.88Q42.13 25.75 42 25.75L42 25.75Q41.88 25.88 41.69 25.69Q41.50 25.50 41.25 25.25L41.25 25.25Q41.13 25 40.88 24.81Q40.63 24.63 40.63 24.63L40.63 24.63Q40.50 24.75 40.31 24.63Q40.13 24.50 40 24.25L40 24.25Q39.88 24 39.75 23.88Q39.63 23.75 39.50 23.88L39.50 23.88Q39.38 23.88 39.31 23.81Q39.25 23.75 39.25 23.63L39.25 23.63Q39.25 23.50 39.13 23.50Q39 23.50 38.88 23.50L38.88 23.50Q38.75 23.63 38.69 23.56Q38.63 23.50 38.63 23.38L38.63 23.38Q38.63 23.25 38.56 23.25Q38.50 23.25 38.38 23.25L38.38 23.25Q38.25 23.38 38.13 23.31Q38 23.25 38 23.13L38 23.13Q38 22.88 37.75 22.94Q37.50 23 36.88 23.25L36.88 23.25Q36.63 23.38 36.56 23.50Q36.50 23.63 36.50 23.75L36.50 23.75Q36.63 23.88 36.56 23.94Q36.50 24 36.38 24L36.38 24Q36.25 24 36.25 24.13Q36.25 24.25 36.25 24.38L36.25 24.38Q36.38 24.50 36.31 24.63Q36.25 24.75 36.13 24.75L36.13 24.75Q36 24.75 35.94 24.88Q35.88 25 35.88 25.25L35.88 25.25Q36 25.38 36 25.56Q36 25.75 35.88 25.75L35.88 25.75Q35.75 25.88 35.69 26.13Q35.63 26.38 35.63 26.75L35.63 26.75Q35.38 29.63 35.31 31.69Q35.25 33.75 35.25 37.50L35.25 37.50Q35.25 42.63 35.31 44.50Q35.38 46.38 35.63 46.75L35.63 46.75Q35.75 46.88 35.75 47.06Q35.75 47.25 35.63 47.38L35.63 47.38Q35.63 47.50 35.63 47.69Q35.63 47.88 35.75 48.13L35.75 48.13Q36 48.25 36 48.38Q36 48.50 36 48.50L36 48.50Q35.88 48.50 35.88 48.63Q35.88 48.75 36 48.88L36 48.88Q36.13 49 36.19 49.19Q36.25 49.38 36.13 49.38L36.13 49.38Q36.13 49.50 36.19 49.56Q36.25 49.63 36.38 49.63L36.38 49.63Q36.50 49.63 36.56 49.69Q36.63 49.75 36.50 49.88L36.50 49.88Q36.50 50 36.50 50.06Q36.50 50.13 36.63 50.13L36.63 50.13Q36.75 50.13 36.81 50.25Q36.88 50.38 36.88 50.50L36.88 50.50Q36.75 50.50 36.81 50.63Q36.88 50.75 37.13 50.88L37.13 50.88Q37.25 50.88 37.31 51Q37.38 51.13 37.38 51.25L37.38 51.25Q37.25 51.38 37.31 51.50Q37.38 51.63 37.50 51.63L37.50 51.63Q37.63 51.63 37.69 51.69Q37.75 51.75 37.63 51.88L37.63 51.88Q37.63 52 37.75 52.19Q37.88 52.38 38 52.50L38 52.50Q38.25 52.63 38.38 52.75Q38.50 52.88 38.50 53L38.50 53Q38.50 53 38.69 53.31Q38.88 53.63 39.25 53.88L39.25 53.88Q39.50 54.13 39.75 54.38Q40 54.63 39.88 54.63L39.88 54.63Q39.88 54.75 40 55Q40.13 55.25 40.38 55.38L40.38 55.38L41 56L40.50 55.25Q40.25 55 40.44 55.13Q40.63 55.25 41 55.63L41 55.63Q41.50 56.13 41.88 56.44Q42.25 56.75 42.38 56.75L42.38 56.75Q42.50 56.75 42.56 56.81Q42.63 56.88 42.75 57.13L42.75 57.13Q42.75 57.25 42.88 57.31Q43 57.38 43.13 57.38L43.13 57.38Q43.25 57.25 43.31 57.31Q43.38 57.38 43.38 57.50L43.38 57.50Q43.38 57.63 43.50 57.69Q43.63 57.75 43.88 57.63L43.88 57.63Q44 57.50 44.13 57.56Q44.25 57.63 44.25 57.75L44.25 57.75Q44.25 57.88 44.38 57.94Q44.50 58 44.63 57.88L44.63 57.88Q44.88 57.88 45 57.88Q45.13 57.88 45.13 58L45.13 58Q45.13 58.13 46.81 58.19Q48.50 58.25 48.75 58.13L48.75 58.13Q48.75 58 48.88 58Q49 58 49 58L49 58Q49.13 57.88 49.31 57.88Q49.50 57.88 49.63 57.75L49.63 57.75Q49.63 57.75 49.75 57.75Q49.88 57.75 50 57.75L50 57.75Q50.13 57.75 50.13 57.69Q50.13 57.63 50.13 57.50L50.13 57.50Q50.13 57.38 50.25 57.31Q50.38 57.25 50.38 57.38L50.38 57.38Q50.50 57.38 50.63 57.31Q50.75 57.25 50.88 57.13L50.88 57.13Q50.88 56.88 51 56.81Q51.13 56.75 51.25 56.75L51.25 56.75Q51.38 56.88 51.50 56.81Q51.63 56.75 51.63 56.75L51.63 56.75Q51.63 56.63 51.69 56.50Q51.75 56.38 51.88 56.50L51.88 56.50Q52 56.50 52.19 56.38Q52.38 56.25 52.63 56L52.63 56Q52.75 55.75 52.81 55.69Q52.88 55.63 52.88 55.88L52.88 55.88Q52.75 56 52.94 55.88Q53.13 55.75 53.50 55.38L53.50 55.38Q54.25 54.75 54.38 54.56Q54.50 54.38 54.13 54.50L54.13 54.50Q53.88 54.63 54 54.50Q54.13 54.38 54.38 54.25L54.38 54.25Q54.63 54 54.75 53.75Q54.88 53.50 54.75 53.50L54.75 53.50Q54.75 53.38 54.75 53.31Q54.75 53.25 55 53.25L55 53.25Q55.13 53.25 55.13 53.19Q55.13 53.13 55.13 53L55.13 53Q55 52.88 55.06 52.81Q55.13 52.75 55.25 52.75L55.25 52.75Q55.38 52.75 55.44 52.63Q55.50 52.50 55.38 52.50L55.38 52.50Q55.38 52.38 55.38 52.25Q55.38 52.13 55.50 52.13L55.50 52.13Q55.63 52.13 55.69 52.06Q55.75 52 55.63 51.88L55.63 51.88Q55.63 51.75 55.69 51.69Q55.75 51.63 55.88 51.63L55.88 51.63Q56 51.63 56.06 51.50Q56.13 51.38 56 51.13L56 51.13Q55.88 51 55.94 50.88Q56 50.75 56.13 50.75L56.13 50.75Q56.25 50.75 56.31 50.63Q56.38 50.50 56.25 50.38L56.25 50.38Q56.25 50.13 56.25 50Q56.25 49.88 56.38 49.75L56.38 49.75Q56.50 49.75 56.56 49.56Q56.63 49.38 56.50 49.25L56.50 49.25Q56.38 49 56.44 48.88Q56.50 48.75 56.63 48.63L56.63 48.63Q56.75 48.63 56.81 48.44Q56.88 48.25 56.75 48.13L56.75 48.13Q56.75 47.88 56.81 47.75Q56.88 47.63 56.88 47.50L56.88 47.50Q57 47.50 57.06 47.31Q57.13 47.13 57.13 47L57.13 47Q57 47 57.06 46.75Q57.13 46.50 57.25 46.38L57.25 46.38Q57.38 46.25 57.38 46Q57.38 45.75 57.38 45.63L57.38 45.63Q57.25 45.38 57.31 45.19Q57.38 45 57.50 45L57.50 45Q57.63 44.88 57.69 44.69Q57.75 44.50 57.63 44.25L57.63 44.25Q57.63 44 57.63 43.88Q57.63 43.75 57.75 43.75L57.75 43.75Q57.88 43.75 57.94 43.50Q58 43.25 57.88 43L57.88 43Q57.88 42.63 57.88 42.44Q57.88 42.25 58.13 42.25L58.13 42.25Q58.25 42.25 58.31 42.06Q58.38 41.88 58.25 41.63L58.25 41.63Q58.13 41.38 58.19 41.06Q58.25 40.75 58.38 40.75L58.38 40.75Q58.50 40.63 58.56 40.44Q58.63 40.25 58.50 40L58.50 40Q58.38 39.75 58.44 39.50Q58.50 39.25 58.50 39.13L58.50 39.13Q58.63 39 58.75 38.63Q58.88 38.25 58.88 37.88L58.88 37.88Q58.88 37.50 58.94 36.75Q59 36 59.13 35.25L59.13 35.25Q59.25 33 59.19 30.88Q59.13 28.75 58.88 28.25L58.88 28.25Q58.75 28.13 58.75 27.94Q58.75 27.75 58.75 27.50L58.75 27.50Q58.88 27.38 58.81 27.25Q58.75 27.13 58.63 27.13L58.63 27.13Q58.50 27.13 58.44 26.94Q58.38 26.75 58.50 26.63L58.50 26.63Q58.50 26.50 58.50 26.38Q58.50 26.25 58.38 26.25L58.38 26.25Q58.25 26.25 58.19 26.13Q58.13 26 58.25 26L58.25 26Q58.25 25.75 58.25 25.69Q58.25 25.63 58.13 25.63L58.13 25.63Q58 25.63 57.94 25.56Q57.88 25.50 57.88 25.38L57.88 25.38Q58 25.25 57.94 25.19Q57.88 25.13 57.75 25.13L57.75 25.13Q57.63 25.13 57.56 25.06Q57.50 25 57.63 24.88L57.63 24.88Q57.63 24.75 57.31 24.38Q57 24 56.50 23.50L56.50 23.50Q56 23 55.63 22.75Q55.25 22.50 55.25 22.50L55.25 22.50Q55.25 22.63 55.19 22.56Q55.13 22.50 55 22.38L55 22.38Q54.88 22.13 53.81 21.94Q52.75 21.75 52.75 21.88L52.75 21.88ZM56.50 23.38L56.50 23.38Q56.75 23.63 56.94 23.81Q57.13 24 57.13 24L57.13 24Q57.25 24 57.13 23.81Q57 23.63 56.75 23.38L56.75 23.38Q56.63 23.13 56.44 23Q56.25 22.88 56.13 22.88L56.13 22.88Q56.13 22.88 56.25 23Q56.38 23.13 56.50 23.38ZM32.13 25.50L32.13 25.50Q32.13 25.50 32.25 25.69Q32.38 25.88 32.63 26L32.63 26Q33 26.25 33 26.25Q33 26.25 32.75 25.88L32.75 25.88Q32.50 25.50 32.31 25.44Q32.13 25.38 32.13 25.50ZM101.25 61.88L101.25 61.88Q101.25 62 101.19 62Q101.13 62 101 62L101 62Q100.88 61.75 100.38 62.19Q99.88 62.63 100 62.88L100 62.88Q100 63 99.94 63.06Q99.88 63.13 99.75 63.13L99.75 63.13Q99.63 63.13 99.63 63.19Q99.63 63.25 99.63 63.38L99.63 63.38Q99.75 63.50 99.69 63.63Q99.63 63.75 99.50 63.75L99.50 63.75Q99.38 63.75 99.31 63.81Q99.25 63.88 99.38 64L99.38 64Q99.50 64.13 99.44 64.25Q99.38 64.38 99.25 64.38L99.25 64.38Q99.13 64.50 99.13 64.69Q99.13 64.88 99.13 65L99.13 65Q99.25 65.13 99.19 65.25Q99.13 65.38 99 65.38L99 65.38Q98.88 65.38 98.81 65.56Q98.75 65.75 98.88 66.13L98.88 66.13Q98.88 66.38 98.88 66.63Q98.88 66.88 98.75 67L98.75 67Q98.63 67 98.56 67.25Q98.50 67.50 98.63 67.88L98.63 67.88Q98.63 68.13 98.56 68.44Q98.50 68.75 98.38 68.88L98.38 68.88Q98.25 69.13 98.19 69.50Q98.13 69.88 98.25 70.50L98.25 70.50Q98.38 71 98.31 71.44Q98.25 71.88 98.13 72L98.13 72Q98 72.25 97.94 72.63Q97.88 73 98 73.50L98 73.50Q98 74 98 74.19Q98 74.38 97.88 74.25L97.88 74.25Q97.75 74.25 97.63 74.25Q97.50 74.25 97.50 74.38L97.50 74.38Q97.50 74.63 97.38 74.63Q97.25 74.63 97 74.63L97 74.63Q96.75 74.50 96.56 74.56Q96.38 74.63 96.25 74.75L96.25 74.75Q96.25 74.88 96 74.88Q95.75 74.88 95.50 74.88L95.50 74.88Q95.38 74.75 95.19 74.81Q95 74.88 95 75L95 75Q95 75.13 94.88 75.19Q94.75 75.25 94.50 75.13L94.50 75.13Q94.25 75.13 94.06 75.13Q93.88 75.13 93.75 75.25L93.75 75.25Q93.63 75.38 93.44 75.44Q93.25 75.50 93 75.38L93 75.38Q92.88 75.38 92.63 75.38Q92.38 75.38 92.38 75.50L92.38 75.50Q92.25 75.63 92.13 75.69Q92 75.75 91.88 75.63L91.88 75.63Q91.75 75.63 91.56 75.63Q91.38 75.63 91.25 75.88L91.25 75.88Q91.13 76 90.88 76Q90.63 76 90.38 76L90.38 76Q90.25 75.88 90.13 75.94Q90 76 90 76.13L90 76.13Q90 76.25 89.81 76.31Q89.63 76.38 89.50 76.38L89.50 76.38Q89.38 76.25 89.19 76.25Q89 76.25 89 76.38L89 76.38Q88.88 76.50 88.75 76.56Q88.63 76.63 88.50 76.50L88.50 76.50Q88.38 76.50 88.13 76.69Q87.88 76.88 87.63 77.13L87.63 77.13Q87.13 77.50 87 77.81Q86.88 78.13 87 78.75L87 78.75Q87.13 79.25 87.06 79.50Q87 79.75 86.75 79.88L86.75 79.88Q86.50 80 86.38 79.94Q86.25 79.88 86.25 79.75L86.25 79.75Q86.25 79.63 86.19 79.56Q86.13 79.50 86 79.63L86 79.63Q85.88 79.63 85.75 79.56Q85.63 79.50 85.63 79.38L85.63 79.38Q85.50 79.13 85.38 79.06Q85.25 79 85.13 79L85.13 79Q85.13 79.13 84.94 79Q84.75 78.88 84.50 78.75L84.50 78.75Q84.25 78.50 84.25 78.44Q84.25 78.38 84.63 78.50L84.63 78.50Q84.75 78.63 84.75 78.56Q84.75 78.50 84.50 78.25L84.50 78.25Q84.38 78.13 84.25 77.94Q84.13 77.75 84.25 77.75L84.25 77.75Q84.25 77.63 84.25 77.56Q84.25 77.50 84.13 77.50L84.13 77.50Q83.63 77.50 83.75 76.94Q83.88 76.38 84.25 75.88L84.25 75.88Q84.50 75.63 84.69 75.50Q84.88 75.38 85 75.50L85 75.50Q85 75.63 85.06 75.56Q85.13 75.50 85.13 75.38L85.13 75.38Q85.13 75.25 85.81 75.13Q86.50 75 88.63 74.88L88.63 74.88Q89.25 74.88 89.63 74.69Q90 74.50 90.25 74.25L90.25 74.25Q90.75 73.75 90.81 73.25Q90.88 72.75 90.50 72.75L90.50 72.75Q90.38 72.75 90.31 72.56Q90.25 72.38 90.25 72.13L90.25 72.13Q90.25 72 90.13 71.81Q90 71.63 90 71.63L90 71.63Q89.75 71.63 89.75 71.56Q89.75 71.50 89.75 71.38L89.75 71.38Q89.75 71.25 88.50 69.94Q87.25 68.63 87.13 68.63L87.13 68.63Q87 68.63 86.81 68.50Q86.63 68.38 86.38 68.13L86.38 68.13Q86.25 67.88 86.13 67.81Q86 67.75 86.13 68L86.13 68Q86.25 68.13 86.19 68.13Q86.13 68.13 85.88 67.88L85.88 67.88Q85.75 67.63 85.56 67.56Q85.38 67.50 85.38 67.63L85.38 67.63Q85.25 67.63 85.19 67.56Q85.13 67.50 85.13 67.38L85.13 67.38Q85.13 67.25 85.06 67.19Q85 67.13 84.88 67.25L84.88 67.25Q84.75 67.25 84.69 67.25Q84.63 67.25 84.63 67.13L84.63 67.13Q84.63 67 84.50 66.94Q84.38 66.88 84.25 67L84.25 67Q84.25 67 84.13 67Q84 67 84 66.88L84 66.88Q84 66.75 83.94 66.69Q83.88 66.63 83.75 66.63L83.75 66.63Q83.63 66.75 83.50 66.69Q83.38 66.63 83.38 66.63L83.38 66.63Q83.25 66.50 83.06 66.44Q82.88 66.38 82.75 66.50L82.75 66.50Q82.63 66.50 82.50 66.50Q82.38 66.50 82.38 66.38L82.38 66.38Q82.38 66.25 82 66.19Q81.63 66.13 81 66.13L81 66.13Q80.50 66.13 80.13 66.19Q79.75 66.25 79.75 66.25L79.75 66.25Q79.75 66.38 79.63 66.38Q79.50 66.38 79.38 66.38L79.38 66.38Q79.25 66.25 79.13 66.31Q79 66.38 79 66.50L79 66.50Q79 66.63 78.88 66.69Q78.75 66.75 78.63 66.63L78.63 66.63Q78.50 66.63 78.44 66.69Q78.38 66.75 78.38 66.88L78.38 66.88Q78.38 67 78.31 67Q78.25 67 78.13 67L78.13 67Q78 66.88 77.94 66.94Q77.88 67 77.88 67.13L77.88 67.13Q77.88 67.25 77.75 67.25Q77.63 67.25 77.50 67.25L77.50 67.25Q77.38 67.13 77.31 67.19Q77.25 67.25 77.25 67.38L77.25 67.38Q77.25 67.50 77.19 67.56Q77.13 67.63 77 67.50L77 67.50Q76.88 67.50 76.75 67.50Q76.63 67.50 76.63 67.63L76.63 67.63Q76.63 67.75 76.56 67.81Q76.50 67.88 76.38 67.75L76.38 67.75Q76.25 67.75 76.19 67.81Q76.13 67.88 76.13 68L76.13 68Q76.13 68.13 76.06 68.13Q76 68.13 75.88 68.13L75.88 68.13Q75.75 68 75.63 68.06Q75.50 68.13 75.50 68.25L75.50 68.25Q75.50 68.38 75.44 68.44Q75.38 68.50 75.25 68.38L75.25 68.38Q75.25 68.38 75.13 68.44Q75 68.50 74.88 68.63L74.88 68.63Q74.75 68.88 74.69 68.94Q74.63 69 74.50 69L74.50 69Q74.50 68.88 74.31 69Q74.13 69.13 74 69.38L74 69.38Q73.75 69.63 73.56 69.75Q73.38 69.88 73.25 69.75L73.25 69.75Q73.13 69.63 73.06 69.69Q73 69.75 73.13 69.88L73.13 69.88Q73.25 70 73.13 70.19Q73 70.38 72.75 70.63L72.75 70.63Q72.50 70.75 72.38 70.94Q72.25 71.13 72.38 71.13L72.38 71.13Q72.38 71.25 72.38 71.31Q72.38 71.38 72.25 71.38L72.25 71.38Q72 71.38 72 71.44Q72 71.50 72 71.63L72 71.63Q72.13 71.75 72.06 71.81Q72 71.88 71.88 71.88L71.88 71.88Q71.75 71.88 71.69 72Q71.63 72.13 71.75 72.25L71.75 72.25Q71.75 72.50 71.75 72.63Q71.75 72.75 71.75 72.88L71.75 72.88Q71.63 73 71.56 75.25Q71.50 77.50 71.63 77.88L71.63 77.88Q71.63 77.88 71.63 78Q71.63 78.13 71.63 78.13L71.63 78.13Q71.63 78.25 71.69 78.31Q71.75 78.38 71.88 78.38L71.88 78.38Q72 78.38 72.06 78.44Q72.13 78.50 72.13 78.63L72.13 78.63Q72.13 78.75 72.31 79Q72.50 79.25 72.88 79.63L72.88 79.63Q73.25 80 73.38 80.13Q73.50 80.25 73.25 80.25L73.25 80.25Q73.13 80.13 74.06 81.13Q75 82.13 76.38 83.50L76.38 83.50Q77.88 84.88 78.75 85.81Q79.63 86.75 79.50 86.75L79.50 86.75Q79.38 86.63 79.50 86.81Q79.63 87 79.88 87.25L79.88 87.25Q80.25 87.63 80.50 87.94Q80.75 88.25 80.75 88.25L80.75 88.25Q80.75 88.38 80.88 88.56Q81 88.75 81.25 88.75L81.25 88.75Q81.38 88.88 81.44 89Q81.50 89.13 81.38 89.13L81.38 89.13Q81.25 89.13 81.31 89.25Q81.38 89.38 81.63 89.50L81.63 89.50Q81.88 89.63 81.94 89.81Q82 90 81.88 90L81.88 90Q81.88 90 81.94 90.13Q82 90.25 82.13 90.38L82.13 90.38Q82.38 90.50 82.44 90.75Q82.50 91 82.50 91.13L82.50 91.13Q82.38 91.25 82.44 91.31Q82.50 91.38 82.63 91.38L82.63 91.38Q82.75 91.38 82.75 91.50Q82.75 91.63 82.75 91.75L82.75 91.75Q82.63 91.88 82.69 92.06Q82.75 92.25 82.88 92.38L82.88 92.38Q83 92.50 83 92.63Q83 92.75 82.88 92.88L82.88 92.88Q82.75 93.13 82.69 93.25Q82.63 93.38 82.75 93.38L82.75 93.38Q82.88 93.38 82.69 93.56Q82.50 93.75 82.13 94L82.13 94Q81.63 94.38 80.56 94.56Q79.50 94.75 79.38 94.38L79.38 94.38Q79.38 94.38 79.25 94.25Q79.13 94.13 79 94.13L79 94.13Q78.63 94 77.88 93.31Q77.13 92.63 77.25 92.38L77.25 92.38Q77.25 92.25 77.19 92.25Q77.13 92.25 77 92.25L77 92.25Q76.88 92.25 76.81 92.13Q76.75 92 76.88 91.88L76.88 91.88Q76.88 91.75 76.88 91.69Q76.88 91.63 76.63 91.63L76.63 91.63Q76.50 91.63 76.50 91.50Q76.50 91.38 76.50 91.25L76.50 91.25Q76.63 91 76.50 90.81Q76.38 90.63 76.25 90.63L76.25 90.63Q75.75 90.38 75.13 90.75Q74.50 91.13 74.63 91.50L74.63 91.50Q74.75 91.63 74.69 91.75Q74.63 91.88 74.38 91.88L74.38 91.88Q74.25 91.88 74.25 92Q74.25 92.13 74.25 92.25L74.25 92.25Q74.38 92.25 74.38 92.50Q74.38 92.75 74.25 92.88L74.25 92.88Q74 93.13 74 95.63Q74 98.13 74.25 98.38L74.25 98.38Q74.38 98.38 74.38 98.56Q74.38 98.75 74.25 99L74.25 99Q74.25 99.25 74.25 99.38Q74.25 99.50 74.38 99.50L74.38 99.50Q74.50 99.50 74.56 99.56Q74.63 99.63 74.63 99.75L74.63 99.75Q74.50 99.88 74.56 100Q74.63 100.13 74.63 100.13L74.63 100.13Q74.75 100.13 74.88 100.19Q75 100.25 74.88 100.38L74.88 100.38Q74.88 100.50 75 100.69Q75.13 100.88 75.38 101.13L75.38 101.13Q75.63 101.25 75.69 101.38Q75.75 101.50 75.50 101.38L75.50 101.38Q75.38 101.25 75.56 101.50Q75.75 101.75 76.13 102.13L76.13 102.13Q76.50 102.38 76.69 102.63Q76.88 102.88 76.63 102.75L76.63 102.75Q76.50 102.63 76.81 103.06Q77.13 103.50 77.88 104.13L77.88 104.13Q79 105.38 79.31 105.63Q79.63 105.88 79.38 105.38L79.38 105.38Q79.25 105.25 79.31 105.25Q79.38 105.25 79.63 105.50L79.63 105.50Q79.75 105.75 79.94 105.81Q80.13 105.88 80.13 105.88L80.13 105.88Q80.25 105.75 80.31 105.81Q80.38 105.88 80.38 106L80.38 106Q80.38 106.13 80.50 106.13Q80.63 106.13 80.75 106.13L80.75 106.13Q81 106 81.13 106.06Q81.25 106.13 81.25 106.25L81.25 106.25Q81.25 106.38 81.50 106.50Q81.75 106.63 82.13 106.63L82.13 106.63Q82.63 106.63 82.88 106.50Q83.13 106.38 83.13 106.25L83.13 106.25Q83.13 106.13 83.25 106.06Q83.38 106 83.63 106.13L83.63 106.13Q83.75 106.13 83.94 106.13Q84.13 106.13 84.13 106L84.13 106Q84.25 105.88 84.38 105.81Q84.50 105.75 84.63 105.88L84.63 105.88Q84.75 106 84.81 105.94Q84.88 105.88 84.88 105.75L84.88 105.75Q84.88 105.63 84.94 105.56Q85 105.50 85.13 105.63L85.13 105.63Q85.25 105.63 85.31 105.63Q85.38 105.63 85.38 105.50L85.38 105.50Q85.38 105.38 85.50 105.31Q85.63 105.25 85.75 105.25L85.75 105.25Q85.88 105.38 85.94 105.31Q86 105.25 86 105.13L86 105.13Q86 105 86.06 105Q86.13 105 86.25 105L86.25 105Q86.38 105.13 86.50 105.06Q86.63 105 86.75 104.75L86.75 104.75Q86.75 104.63 86.88 104.50Q87 104.38 87.13 104.50L87.13 104.50Q87.25 104.50 87.38 104.38Q87.50 104.25 87.63 104L87.63 104Q87.75 103.75 87.94 103.63Q88.13 103.50 88.25 103.50L88.25 103.50Q88.38 103.63 88.56 103.44Q88.75 103.25 89.13 102.88L89.13 102.88Q89.38 102.63 89.50 102.56Q89.63 102.50 89.50 102.63L89.50 102.63Q89.38 102.75 89.75 102.50Q90.13 102.25 90.63 101.63L90.63 101.63Q91.25 101 91.63 100.56Q92 100.13 92 100L92 100Q91.88 99.88 92 99.81Q92.13 99.75 92.25 99.75L92.25 99.75Q92.38 99.75 92.38 99.69Q92.38 99.63 92.38 99.50L92.38 99.50Q92.25 99.38 92.31 99.31Q92.38 99.25 92.50 99.25L92.50 99.25Q92.63 99.25 92.63 99.19Q92.63 99.13 92.63 99L92.63 99Q92.50 98.88 92.50 98.69Q92.50 98.50 92.63 98.38L92.63 98.38Q93 97.75 93.06 94.69Q93.13 91.63 92.75 91.63L92.75 91.63Q92.63 91.63 92.56 91.50Q92.50 91.38 92.50 91.25L92.50 91.25Q92.63 91 92.63 90.88Q92.63 90.75 92.50 90.63L92.50 90.63Q92.38 90.50 92.31 90.44Q92.25 90.38 92.38 90.25L92.38 90.25Q92.38 90.13 92.38 90Q92.38 89.88 92.25 89.75L92.25 89.75Q92.13 89.75 92.06 89.63Q92 89.50 92 89.38L92 89.38Q92.13 89.25 92.06 89.13Q92 89 91.88 89L91.88 89Q91.75 88.88 91.75 88.75Q91.75 88.63 91.75 88.50L91.75 88.50Q91.88 88.38 91.81 88.31Q91.75 88.25 91.63 88.25L91.63 88.25Q91.50 88.25 91.44 88.19Q91.38 88.13 91.38 88L91.38 88Q91.38 87.88 91.75 87.81Q92.13 87.75 92.75 87.75L92.75 87.75Q93.25 87.75 94.06 87.69Q94.88 87.63 95.50 87.50L95.50 87.50Q96.25 87.38 96.63 87.44Q97 87.50 97 87.63L97 87.63Q97 87.75 97.19 87.88Q97.38 88 97.50 88.13L97.50 88.13Q97.75 88.25 97.88 88.31Q98 88.38 98 88.50L98 88.50Q97.88 88.63 97.94 88.75Q98 88.88 98.13 89L98.13 89Q98.25 89 98.31 89.25Q98.38 89.50 98.25 89.88L98.25 89.88Q98 90.63 98 93.81Q98 97 98.25 97L98.25 97Q98.25 97 98.31 97.19Q98.38 97.38 98.25 97.50L98.25 97.50Q98.13 97.75 98.19 97.94Q98.25 98.13 98.38 98.13L98.38 98.13Q98.50 98.13 98.56 98.19Q98.63 98.25 98.63 98.38L98.63 98.38Q98.63 98.63 98.88 99.19Q99.13 99.75 99.38 99.75L99.38 99.75Q99.50 99.75 99.50 99.81Q99.50 99.88 99.50 100L99.50 100Q99.38 100 99.50 100.25Q99.63 100.50 99.88 100.75L99.88 100.75Q100.13 101 100.19 101.06Q100.25 101.13 100.13 101L100.13 101Q99.88 101 100.13 101.31Q100.38 101.63 100.88 102.13L100.88 102.13Q101.38 102.75 101.81 103.06Q102.25 103.38 102.25 103.38L102.25 103.38Q102.38 103.25 102.50 103.31Q102.63 103.38 102.88 103.50L102.88 103.50Q103.25 103.88 103.94 103.94Q104.63 104 104.75 103.75L104.75 103.75Q104.88 103.63 105 103.56Q105.13 103.50 105.25 103.63L105.25 103.63Q105.25 103.75 105.38 103.69Q105.50 103.63 105.50 103.50L105.50 103.50Q105.50 103.38 105.56 103.31Q105.63 103.25 105.88 103.25L105.88 103.25Q106 103.38 106.19 103.31Q106.38 103.25 106.38 103L106.38 103Q106.50 102.88 106.63 102.75Q106.75 102.63 106.88 102.75L106.88 102.75Q106.88 102.75 107.06 102.69Q107.25 102.63 107.38 102.50L107.38 102.50Q107.63 102.38 107.63 102.25Q107.63 102.13 107.50 102.13L107.50 102.13Q107.38 102.13 107.50 101.94Q107.63 101.75 107.75 101.63L107.75 101.63Q108 101.50 108.13 101.38Q108.25 101.25 108.13 101.25L108.13 101.25Q108 101.25 108.06 101.13Q108.13 101 108.25 100.75L108.25 100.75Q108.38 100.63 108.44 100.44Q108.50 100.25 108.38 100.13L108.38 100.13Q108.38 100 108.38 99.75Q108.38 99.50 108.50 99.38L108.50 99.38Q108.75 99.13 108.75 98.56Q108.75 98 108.75 97.13L108.75 97.13Q108.50 94.63 108.38 93.38Q108.25 92.13 108.13 91.25L108.13 91.25Q108.13 90.75 108.06 90.31Q108 89.88 108 89.75L108 89.75Q108 89.63 107.94 89.19Q107.88 88.75 107.75 88.25L107.75 88.25Q107.75 87.75 107.69 87.13Q107.63 86.50 107.50 86.13L107.50 86.13Q107.50 85.63 107.56 85.31Q107.63 85 107.88 84.63L107.88 84.63Q108.13 84.38 108.31 84.25Q108.50 84.13 108.63 84.13L108.63 84.13Q108.63 84.25 108.75 84.19Q108.88 84.13 108.88 84L108.88 84Q108.88 83.88 108.94 83.88Q109 83.88 109.13 83.88L109.13 83.88Q109.25 84 109.31 83.94Q109.38 83.88 109.38 83.75L109.38 83.75Q109.38 83.63 109.44 83.56Q109.50 83.50 109.63 83.63L109.63 83.63Q109.75 83.63 109.88 83.63Q110 83.63 110.13 83.50L110.13 83.50Q110.13 83.38 110.31 83.31Q110.50 83.25 110.50 83.38L110.50 83.38Q110.63 83.38 110.69 83.31Q110.75 83.25 110.75 83.13L110.75 83.13Q110.75 83 110.88 82.94Q111 82.88 111.25 83L111.25 83Q111.38 83.13 111.50 83.06Q111.63 83 111.63 82.88L111.63 82.88Q111.63 82.75 111.75 82.69Q111.88 82.63 112.13 82.75L112.13 82.75Q112.25 82.75 112.38 82.75Q112.50 82.75 112.50 82.63L112.50 82.63Q112.50 82.50 112.63 82.44Q112.75 82.38 112.88 82.50L112.88 82.50Q113.13 82.50 113.25 82.44Q113.38 82.38 113.38 82.25L113.38 82.25Q113.38 82.13 113.50 82.13Q113.63 82.13 113.75 82.13L113.75 82.13Q113.88 82.25 114 82.19Q114.13 82.13 114.13 82L114.13 82Q114.13 81.88 114.31 81.81Q114.50 81.75 114.63 81.88L114.63 81.88Q114.75 82 114.88 81.94Q115 81.88 115 81.75L115 81.75Q115 81.63 115.13 81.56Q115.25 81.50 115.50 81.63L115.50 81.63Q115.63 81.63 115.75 81.63Q115.88 81.63 115.88 81.50L115.88 81.50Q115.88 81.38 116 81.31Q116.13 81.25 116.25 81.38L116.25 81.38Q116.50 81.50 116.63 81.44Q116.75 81.38 116.75 81.25L116.75 81.25Q116.75 81.13 116.81 81.06Q116.88 81 117 81L117 81Q117.13 81.13 117.19 81.06Q117.25 81 117.25 80.88L117.25 80.88Q117.25 80.75 117.38 80.69Q117.50 80.63 117.75 80.75L117.75 80.75Q117.88 80.75 118 80.75Q118.13 80.75 118.13 80.63L118.13 80.63Q118.13 80.50 118.19 80.44Q118.25 80.38 118.38 80.50L118.38 80.50Q118.50 80.50 118.63 80.50Q118.75 80.50 118.88 80.38L118.88 80.38Q118.88 80.25 119 80.19Q119.13 80.13 119.25 80.25L119.25 80.25Q119.38 80.25 119.44 80.25Q119.50 80.25 119.50 80.13L119.50 80.13Q119.50 80 119.63 79.94Q119.75 79.88 119.88 79.88L119.88 79.88Q120 80 120.06 79.94Q120.13 79.88 120.13 79.75L120.13 79.75Q120.13 79.63 120.19 79.63Q120.25 79.63 120.38 79.63L120.38 79.63Q120.50 79.75 120.56 79.69Q120.63 79.63 120.63 79.50L120.63 79.50Q120.63 79.38 120.75 79.31Q120.88 79.25 121 79.38L121 79.38Q121.13 79.38 121.19 79.38Q121.25 79.38 121.25 79.25L121.25 79.25Q121.25 79.13 121.31 79.06Q121.38 79 121.50 79.13L121.50 79.13Q121.63 79.13 121.69 79.13Q121.75 79.13 121.75 79L121.75 79Q121.75 78.88 121.81 78.81Q121.88 78.75 122 78.75L122 78.75Q122.13 78.75 122.44 78.56Q122.75 78.38 123 78L123 78Q123.50 77.50 123.69 77.06Q123.88 76.63 123.88 75.63L123.88 75.63Q123.88 75 123.81 74.56Q123.75 74.13 123.63 74.13L123.63 74.13Q123.63 74.13 123.63 74.06Q123.63 74 123.63 73.88L123.63 73.88Q123.75 73.75 123.63 73.50Q123.50 73.25 123.38 73.13L123.38 73.13Q123.13 73 123 72.88Q122.88 72.75 123 72.75L123 72.75Q123 72.75 122.75 72.38Q122.50 72 122 71.50L122 71.50Q121.50 71.13 121.13 70.75Q120.75 70.38 120.63 70.38L120.63 70.38Q120.50 70.50 120.44 70.38Q120.38 70.25 120.38 70.13L120.38 70.13Q120.38 70.13 120.31 70.06Q120.25 70 120.13 70L120.13 70Q120 70.13 119.94 70.13Q119.88 70.13 119.88 70L119.88 70Q119.88 69.88 118.38 69.81Q116.88 69.75 114.75 69.75L114.75 69.75Q111.50 69.75 110.56 69.69Q109.63 69.63 109.25 69.25L109.25 69.25Q109 69 108.94 68.69Q108.88 68.38 108.88 68L108.88 68Q109 67.63 108.94 67.38Q108.88 67.13 108.63 66.88L108.63 66.88Q108.38 66.63 108.38 66.63Q108.38 66.63 108.50 66.75L108.50 66.75Q108.75 66.88 108.25 66.31Q107.75 65.75 106.88 64.88L106.88 64.88Q106 64 105.31 63.44Q104.63 62.88 104.50 62.88L104.50 62.88Q104.38 62.88 104.31 62.75Q104.25 62.63 104.13 62.50L104.13 62.50Q104.13 62.25 104 62.19Q103.88 62.13 103.75 62.25L103.75 62.25Q103.63 62.25 103.56 62.19Q103.50 62.13 103.50 62L103.50 62Q103.50 61.88 103.44 61.81Q103.38 61.75 103.25 61.88L103.25 61.88Q103.13 62 103 61.94Q102.88 61.88 102.75 61.75L102.75 61.75Q102.63 61.50 101.94 61.50Q101.25 61.50 101.25 61.88L101.25 61.88ZM106.63 64.38L106.63 64.38Q106.88 64.75 107.13 64.94Q107.38 65.13 107.38 65.13L107.38 65.13Q107.38 65.13 107.25 64.94Q107.13 64.75 106.88 64.38L106.88 64.38Q106.63 64.13 106.38 63.94Q106.13 63.75 106.13 63.75L106.13 63.75Q106 63.75 106.13 63.94Q106.25 64.13 106.63 64.38ZM34 70.50L34 70.50Q33.88 70.63 33.69 70.69Q33.50 70.75 33.38 70.63L33.38 70.63Q33.25 70.63 33.13 70.63Q33 70.63 33 70.75L33 70.75Q33 70.88 32.94 70.94Q32.88 71 32.75 70.88L32.75 70.88Q32.63 70.88 32.38 71.06Q32.13 71.25 31.88 71.50L31.88 71.50Q31.63 71.75 31.50 71.94Q31.38 72.13 31.50 72.13L31.50 72.13Q31.63 72.13 31.50 72.25Q31.38 72.38 31.25 72.50L31.25 72.50Q31 72.63 30.88 72.75Q30.75 72.88 30.88 73L30.88 73Q30.88 73.13 30.88 73.25Q30.88 73.38 30.75 73.50L30.75 73.50Q30.63 73.50 30.56 73.63Q30.50 73.75 30.63 73.88L30.63 73.88Q30.63 74 30.63 74.06Q30.63 74.13 30.50 74.13L30.50 74.13Q30.25 74.13 30.25 74.25Q30.25 74.38 30.25 74.63L30.25 74.63Q30.38 74.75 30.31 74.94Q30.25 75.13 30.13 75.13L30.13 75.13Q30 75.25 30 75.38Q30 75.50 30 75.63L30 75.63Q30.13 75.75 30.06 75.94Q30 76.13 29.88 76.25L29.88 76.25Q29.75 76.38 29.69 76.63Q29.63 76.88 29.75 77L29.75 77Q29.88 77.13 29.81 77.38Q29.75 77.63 29.75 77.75L29.75 77.75Q29.50 78.13 29.38 79.44Q29.25 80.75 29.13 84.50L29.13 84.50Q29.13 86 29.06 87.38Q29 88.75 29 89.13L29 89.13Q29 89.63 28.88 89.94Q28.75 90.25 28.75 90.25L28.75 90.25Q28.63 90.25 28.56 90.31Q28.50 90.38 28.50 90.50L28.50 90.50Q28.63 90.88 28.19 91.38Q27.75 91.88 27.50 91.63L27.50 91.63Q27.50 91.63 27.44 91.69Q27.38 91.75 27.38 91.75L27.38 91.75Q27.38 91.88 26.88 91.94Q26.38 92 25.75 92L25.75 92Q24.88 92 24.38 91.94Q23.88 91.88 23.63 91.50L23.63 91.50Q23.25 91.13 23.19 90.31Q23.13 89.50 23.38 89.25L23.38 89.25Q23.50 89.13 23.56 88.94Q23.63 88.75 23.50 88.50L23.50 88.50Q23.50 88.25 23.50 88.13Q23.50 88 23.63 88L23.63 88Q23.88 88 23.88 87.81Q23.88 87.63 23.88 87.38L23.88 87.38Q23.75 87.13 23.81 87Q23.88 86.88 24 86.88L24 86.88Q24.13 86.88 24.19 86.69Q24.25 86.50 24.13 86.25L24.13 86.25Q24 86.13 24.06 85.88Q24.13 85.63 24.25 85.63L24.25 85.63Q24.50 85.38 24.50 83.69Q24.50 82 24.25 81.88L24.25 81.88Q24.13 81.75 24.06 81.56Q24 81.38 24.13 81.13L24.13 81.13Q24.25 81 24.19 80.81Q24.13 80.63 24 80.63L24 80.63Q23.88 80.63 23.81 80.50Q23.75 80.38 23.88 80.25L23.88 80.25Q23.88 80 23.88 79.88Q23.88 79.75 23.63 79.75L23.63 79.75Q23.50 79.75 23.50 79.69Q23.50 79.63 23.50 79.50L23.50 79.50Q23.63 79.38 23.56 79.31Q23.50 79.25 23.38 79.25L23.38 79.25Q23.25 79.25 23.25 79.13Q23.25 79 23.25 79L23.25 79Q23.38 78.88 23.31 78.75Q23.25 78.63 23.13 78.63L23.13 78.63Q23 78.63 22.94 78.56Q22.88 78.50 23 78.38L23 78.38Q23 78.25 22.94 78.13Q22.88 78 22.63 78L22.63 78Q22.50 77.88 22.44 77.75Q22.38 77.63 22.38 77.63L22.38 77.63Q22.50 77.38 21.75 76.63Q21 75.88 20.75 76L20.75 76Q20.75 76.13 20.63 76Q20.50 75.88 20.38 75.75L20.38 75.75Q20.38 75.50 20.25 75.44Q20.13 75.38 20 75.50L20 75.50Q19.88 75.50 19.81 75.44Q19.75 75.38 19.75 75.25L19.75 75.25Q19.75 75.13 19.69 75.06Q19.63 75 19.50 75L19.50 75Q19.38 75 19.31 75Q19.25 75 19.13 75L19.13 75Q18.63 74.75 17.31 74.69Q16 74.63 15.13 74.75L15.13 74.75Q14.63 74.88 14 75.44Q13.38 76 13.50 76.13L13.50 76.13Q13.50 76.25 13.44 76.31Q13.38 76.38 13.25 76.38L13.25 76.38Q13.13 76.38 13.13 76.50Q13.13 76.63 13.13 76.75L13.13 76.75Q13.25 77 13.19 77.13Q13.13 77.25 13 77.38L13 77.38Q12.88 77.50 12.81 77.75Q12.75 78 12.88 78.25L12.88 78.25Q12.88 78.50 12.88 78.81Q12.88 79.13 12.75 79.25L12.75 79.25Q12.63 79.38 12.56 80.56Q12.50 81.75 12.50 83.38L12.50 83.38Q12.38 87.88 12.25 90Q12.13 92.13 12 92.38L12 92.38Q11.88 92.50 11.88 92.69Q11.88 92.88 12 93L12 93Q12.13 93.25 11.63 93.81Q11.13 94.38 10.88 94.25L10.88 94.25Q10.88 94.13 10.81 94.19Q10.75 94.25 10.75 94.38L10.75 94.38Q10.75 94.63 10.63 94.69Q10.50 94.75 10.25 94.63L10.25 94.63Q10.13 94.50 10 94.56Q9.88 94.63 9.88 94.75L9.88 94.75Q9.88 94.88 9.75 94.94Q9.63 95 9.50 94.88L9.50 94.88Q9.25 94.88 9.13 94.88Q9 94.88 9 95L9 95Q9 95.13 8.88 95.19Q8.75 95.25 8.63 95.25L8.63 95.25Q8.38 95.13 8.25 95.19Q8.13 95.25 8 95.25L8 95.25Q8 95.38 7.81 95.44Q7.63 95.50 7.50 95.38L7.50 95.38Q7.25 95.38 7.13 95.38Q7 95.38 7 95.63L7 95.63Q7 95.75 6.94 95.75Q6.88 95.75 6.75 95.75L6.75 95.75Q6.75 95.63 6.56 95.69Q6.38 95.75 6.38 95.88L6.38 95.88Q6.25 96 6.13 96.06Q6 96.13 5.88 96L5.88 96Q5.75 95.88 5.69 95.94Q5.63 96 5.63 96.13L5.63 96.13Q5.63 96.38 5.56 96.38Q5.50 96.38 5.50 96.38L5.50 96.38Q5.38 96.25 5.19 96.44Q5 96.63 4.75 96.88L4.75 96.88Q4.38 97.13 4.25 97.56Q4.13 98 4.13 98.75L4.13 98.75Q4.13 99.38 4.19 99.75Q4.25 100.13 4.25 100.13L4.25 100.13Q4.38 100.13 4.38 100.25Q4.38 100.38 4.38 100.50L4.38 100.50Q4.25 100.63 4.31 100.75Q4.38 100.88 4.50 100.88L4.50 100.88Q4.63 100.88 4.69 101Q4.75 101.13 4.63 101.25L4.63 101.25Q4.63 101.38 4.63 101.44Q4.63 101.50 4.75 101.50L4.75 101.50Q4.88 101.50 4.94 101.56Q5 101.63 5 101.75L5 101.75Q5 101.75 5.19 102.06Q5.38 102.38 5.75 102.63L5.75 102.63Q6 103 6.25 103.19Q6.50 103.38 6.50 103.25L6.50 103.25Q6.50 103.13 6.63 103.25Q6.75 103.38 6.88 103.63L6.88 103.63Q7.13 103.88 7.31 104Q7.50 104.13 7.50 104.25L7.50 104.25Q7.75 104.25 9.69 106.19Q11.63 108.13 11.63 108.38L11.63 108.38Q11.75 108.38 11.88 108.56Q12 108.75 12.25 109L12.25 109Q12.50 109.13 12.56 109.25Q12.63 109.38 12.38 109.25L12.38 109.25Q12.25 109.13 12.25 109.25Q12.25 109.38 12.50 109.50L12.50 109.50Q12.75 109.75 12.81 109.88Q12.88 110 12.75 110L12.75 110Q12.75 110 12.81 110.06Q12.88 110.13 13 110.25L13 110.25Q13.25 110.38 13.38 110.56Q13.50 110.75 13.38 110.88L13.38 110.88Q13.25 110.88 13.31 111Q13.38 111.13 13.50 111.13L13.50 111.13Q13.63 111.13 13.69 111.19Q13.75 111.25 13.75 111.38L13.75 111.38Q13.75 111.38 13.94 111.63Q14.13 111.88 14.38 112.13L14.38 112.13Q14.63 112.50 14.75 112.63Q14.88 112.75 14.63 112.63L14.63 112.63Q14.50 112.50 14.63 112.69Q14.75 112.88 15 113.25L15 113.25Q15.38 113.63 15.69 113.88Q16 114.13 16.13 114L16.13 114Q16.25 114 16.38 114.06Q16.50 114.13 16.50 114.25L16.50 114.25Q16.63 114.50 16.75 114.56Q16.88 114.63 17 114.63L17 114.63Q17 114.50 17.13 114.63Q17.25 114.75 17.38 114.88L17.38 114.88Q17.38 115 17.50 115.13Q17.63 115.25 17.75 115.13L17.75 115.13Q17.88 115.13 17.94 115.13Q18 115.13 18 115.38L18 115.38Q18 115.50 18.13 115.56Q18.25 115.63 18.50 115.50L18.50 115.50Q18.63 115.38 18.75 115.44Q18.88 115.50 18.88 115.63L18.88 115.63Q18.88 115.63 19.19 115.69Q19.50 115.75 20 115.75L20 115.75Q20.50 115.75 20.81 115.69Q21.13 115.63 21.13 115.50L21.13 115.50Q21.13 115.38 21.19 115.31Q21.25 115.25 21.38 115.38L21.38 115.38Q21.50 115.50 22.13 114.88Q22.75 114.25 22.63 114.13L22.63 114.13Q22.63 114 22.63 113.94Q22.63 113.88 22.75 113.88L22.75 113.88Q23 113.88 23 111.81Q23 109.75 22.75 109.50L22.75 109.50Q22.63 109.25 22.63 109Q22.63 108.75 22.75 108.63L22.75 108.63Q22.75 108.38 22.69 108.13Q22.63 107.88 22.50 107.88L22.50 107.88Q22.38 107.75 22.38 107.50Q22.38 107.25 22.38 107L22.38 107Q22.50 106.75 22.44 106.50Q22.38 106.25 22.25 106.13L22.25 106.13Q21.75 105.75 22.25 104.75Q22.75 103.75 23.38 104L23.38 104Q23.50 104 23.56 103.94Q23.63 103.88 23.63 103.75L23.63 103.75Q23.63 103.63 23.81 103.56Q24 103.50 24.25 103.63L24.25 103.63Q24.50 103.75 24.63 103.69Q24.75 103.63 24.75 103.50L24.75 103.50Q24.75 103.38 24.94 103.31Q25.13 103.25 25.25 103.25L25.25 103.25Q25.38 103.38 25.50 103.31Q25.63 103.25 25.63 103.13L25.63 103.13Q25.63 103 25.75 102.94Q25.88 102.88 26.13 103L26.13 103Q26.25 103.13 26.38 103.06Q26.50 103 26.50 102.88L26.50 102.88Q26.50 102.75 26.56 102.75Q26.63 102.75 26.75 102.75L26.75 102.75Q26.88 102.88 27.13 102.69Q27.38 102.50 27.63 102.25L27.63 102.25Q28.38 101.50 29.25 101.63Q30.13 101.75 31.25 102.88L31.25 102.88Q31.75 103.50 32.13 103.88Q32.50 104.25 32.63 104.38L32.63 104.38Q32.63 104.38 32.81 104.63Q33 104.88 33.25 105.13L33.25 105.13Q33.63 105.38 33.69 105.50Q33.75 105.63 33.50 105.50L33.50 105.50Q33.38 105.50 33.38 105.56Q33.38 105.63 33.63 106L33.63 106Q33.88 106.25 34.13 106.38Q34.38 106.50 34.38 106.38L34.38 106.38Q34.50 106.38 34.56 106.44Q34.63 106.50 34.63 106.63L34.63 106.63Q34.63 106.75 34.75 106.75Q34.88 106.75 35 106.75L35 106.75Q35.13 106.63 35.19 106.69Q35.25 106.75 35.25 106.88L35.25 106.88Q35.25 107 35.31 107.06Q35.38 107.13 35.50 107L35.50 107Q35.63 107 35.88 107.19Q36.13 107.38 36.38 107.75L36.38 107.75Q36.63 108 36.75 108.06Q36.88 108.13 36.75 108L36.75 108Q36.75 107.88 36.81 107.88Q36.88 107.88 37.13 108.13L37.13 108.13Q37.25 108.38 37.50 108.50Q37.75 108.63 37.75 108.63L37.75 108.63Q37.88 108.63 37.94 108.69Q38 108.75 38 108.88L38 108.88Q38 109 38.13 109Q38.25 109 38.38 109L38.38 109Q38.50 108.88 38.56 108.94Q38.63 109 38.63 109.13L38.63 109.13Q38.63 109.25 38.69 109.31Q38.75 109.38 38.88 109.25L38.88 109.25Q39 109.25 39.13 109.25Q39.25 109.25 39.25 109.38L39.25 109.38Q39.25 109.88 40 109.69Q40.75 109.50 41.38 108.88L41.38 108.88Q41.75 108.50 42 108.19Q42.25 107.88 42.25 107.88L42.25 107.88Q42.25 107.75 42.25 107.69Q42.25 107.63 42.38 107.63L42.38 107.63Q42.38 107.25 42.38 106.06Q42.38 104.88 42.25 104.88L42.25 104.88Q42.13 104.88 42.13 104.75Q42.13 104.63 42.13 104.50L42.13 104.50Q42.25 104.25 42.19 104.13Q42.13 104 42 104L42 104Q41.88 104 41.81 103.94Q41.75 103.88 41.88 103.75L41.88 103.75Q41.88 103.63 41.88 103.56Q41.88 103.50 41.75 103.50L41.75 103.50Q41.63 103.50 41.56 103.38Q41.50 103.25 41.50 103L41.50 103Q41.63 102.88 41.56 102.75Q41.50 102.63 41.38 102.63L41.38 102.63Q41.25 102.63 41.19 102.50Q41.13 102.38 41.25 102.25L41.25 102.25Q41.38 102 41.31 101.88Q41.25 101.75 41.13 101.63L41.13 101.63Q41 101.50 40.94 101.38Q40.88 101.25 41 101L41 101Q41 100.88 41 100.75Q41 100.63 40.88 100.50L40.88 100.50Q40.75 100.38 40.69 100.19Q40.63 100 40.75 99.88L40.75 99.88Q40.75 99.75 40.75 99.50Q40.75 99.25 40.63 99.13L40.63 99.13Q40.50 98.88 40.44 98.69Q40.38 98.50 40.50 98.38L40.50 98.38Q40.50 98.25 40.50 98.06Q40.50 97.88 40.38 97.75L40.38 97.75Q40.13 97.50 40.13 97.25Q40.13 97 40.13 96.88L40.13 96.88Q40.25 96.63 40.25 96.38Q40.25 96.13 40.13 96L40.13 96Q40 95.88 39.94 95.56Q39.88 95.25 39.88 94.88L39.88 94.88Q39.75 93.63 39.63 92.06Q39.50 90.50 39.25 89.25L39.25 89.25Q39.25 88.50 39.25 88Q39.25 87.50 39.50 87.25L39.50 87.25Q39.63 87.13 39.63 86.88Q39.63 86.63 39.63 86.50L39.63 86.50Q39.50 86.25 39.56 86.13Q39.63 86 39.75 86L39.75 86Q39.88 86 39.94 85.88Q40 85.75 40 85.63L40 85.63Q39.88 85.38 39.94 85.25Q40 85.13 40.13 85L40.13 85Q40.13 84.88 40.19 84.75Q40.25 84.63 40.13 84.50L40.13 84.50Q40.13 84.50 40.13 84.25Q40.13 84 40.25 83.88L40.25 83.88Q40.38 83.75 40.44 83.50Q40.50 83.25 40.38 83L40.38 83Q40.38 82.88 40.44 82.75Q40.50 82.63 40.63 82.63L40.63 82.63Q40.75 82.63 40.81 82.44Q40.88 82.25 40.75 82L40.75 82Q40.63 81.75 40.69 81.50Q40.75 81.25 40.75 81.13L40.75 81.13Q41 80.75 41 78.06Q41 75.38 40.75 75L40.75 75Q40.75 74.88 40.69 74.81Q40.63 74.75 40.75 74.75L40.75 74.75Q40.88 74.75 40.81 74.63Q40.75 74.50 40.63 74.25L40.63 74.25Q40.50 74.13 40.44 74Q40.38 73.88 40.50 73.88L40.50 73.88Q40.63 73.88 40.50 73.75Q40.38 73.63 40.13 73.38L40.13 73.38Q40 73.25 39.94 73.19Q39.88 73.13 40 73.25L40 73.25Q40.25 73.25 40.13 73.06Q40 72.88 39.63 72.50L39.63 72.50Q39.25 72.13 38.94 71.94Q38.63 71.75 38.63 71.75L38.63 71.75Q38.50 71.88 38.44 71.81Q38.38 71.75 38.38 71.63L38.38 71.63Q38.38 71.50 38.31 71.44Q38.25 71.38 38.13 71.50L38.13 71.50Q38 71.50 37.88 71.50Q37.75 71.50 37.75 71.38L37.75 71.38Q37.75 71.25 37.69 71.19Q37.63 71.13 37.50 71.25L37.50 71.25Q37.38 71.25 37.31 71.19Q37.25 71.13 37.25 71L37.25 71Q37.25 70.88 37.19 70.88Q37.13 70.88 37 70.88L37 70.88Q36.88 71 36.75 70.94Q36.63 70.88 36.50 70.75L36.50 70.75Q36.50 70.63 36.31 70.63Q36.13 70.63 36 70.63L36 70.63Q35.75 70.75 35.63 70.69Q35.50 70.63 35.38 70.50L35.38 70.50Q35.38 70.38 35.13 70.31Q34.88 70.25 34.63 70.25L34.63 70.25Q34.50 70.25 34.25 70.31Q34 70.38 34 70.50L34 70.50ZM31.63 102.88L31.63 102.88Q31.88 103.13 31.88 103.19Q31.88 103.25 31.50 102.88L31.50 102.88Q31.25 102.75 31.13 102.63Q31 102.50 31 102.50L31 102.50Q31 102.25 31.19 102.38Q31.38 102.50 31.63 102.88L31.63 102.88ZM10 106L10 106Q10.25 106.25 10.38 106.44Q10.50 106.63 10.38 106.63L10.38 106.63Q10.25 106.63 10.13 106.44Q10 106.25 9.75 106L9.75 106Q9.50 105.75 9.38 105.63Q9.25 105.50 9.38 105.50L9.38 105.50Q9.38 105.50 9.56 105.63Q9.75 105.75 10 106ZM52.75 73.63L52.75 73.63Q52.75 73.75 52.63 73.81Q52.50 73.88 52.25 73.75L52.25 73.75Q52.13 73.75 52 73.75Q51.88 73.75 51.88 73.88L51.88 73.88Q51.88 74 51.75 74.06Q51.63 74.13 51.50 74L51.50 74Q51.25 74 51.13 74Q51 74 51 74.13L51 74.13Q51 74.25 50.94 74.31Q50.88 74.38 50.75 74.25L50.75 74.25Q50.63 74.25 50.56 74.25Q50.50 74.25 50.50 74.38L50.50 74.38Q50.50 74.50 50.44 74.56Q50.38 74.63 50.25 74.63L50.25 74.63Q50.13 74.50 49.94 74.56Q49.75 74.63 49.50 74.88L49.50 74.88Q49.38 75 49.19 75.06Q49 75.13 49 75.13L49 75.13Q48.88 75 48.81 75.06Q48.75 75.13 48.75 75.25L48.75 75.25Q48.75 75.38 48.69 75.44Q48.63 75.50 48.50 75.50L48.50 75.50Q48.38 75.38 48.25 75.44Q48.13 75.50 48.13 75.75L48.13 75.75Q48 75.88 47.94 76Q47.88 76.13 47.75 76.13L47.75 76.13Q47.63 75.88 46.44 77.06Q45.25 78.25 45.38 78.38L45.38 78.38Q45.38 78.50 45.31 78.56Q45.25 78.63 45.13 78.63L45.13 78.63Q45 78.63 44.94 78.75Q44.88 78.88 45 79L45 79Q45 79 45 79.13Q45 79.25 44.88 79.25L44.88 79.25Q44.75 79.25 44.69 79.31Q44.63 79.38 44.63 79.50L44.63 79.50Q44.75 79.63 44.69 79.69Q44.63 79.75 44.50 79.75L44.50 79.75Q44.38 79.75 44.38 79.88Q44.38 80 44.38 80.13L44.38 80.13Q44.50 80.13 44.44 80.25Q44.38 80.38 44.25 80.38L44.25 80.38Q44.13 80.38 44.06 80.50Q44 80.63 44.13 80.75L44.13 80.75Q44.13 81 44.13 81.13Q44.13 81.25 44 81.25L44 81.25Q43.88 81.25 43.81 81.38Q43.75 81.50 43.88 81.63L43.88 81.63Q44 81.75 43.94 81.88Q43.88 82 43.75 82L43.75 82Q43.50 82 43.50 82.13Q43.50 82.25 43.50 82.50L43.50 82.50Q43.63 82.63 43.56 82.81Q43.50 83 43.38 83L43.38 83Q43.25 83.13 43.25 83.25Q43.25 83.38 43.25 83.50L43.25 83.50Q43.38 83.63 43.31 83.81Q43.25 84 43.13 84.13L43.13 84.13Q43 84.25 43 84.50Q43 84.75 43 85L43 85Q43.13 85.13 43.06 85.31Q43 85.50 42.88 85.50L42.88 85.50Q42.75 85.63 42.69 85.94Q42.63 86.25 42.75 86.50L42.75 86.50Q42.75 86.88 42.75 87.13Q42.75 87.38 42.63 87.50L42.63 87.50Q42.50 87.63 42.50 90.56Q42.50 93.50 42.63 93.88L42.63 93.88Q42.75 94 42.75 94.19Q42.75 94.38 42.75 94.50L42.75 94.50Q42.63 94.50 42.69 94.63Q42.75 94.75 42.88 94.75L42.88 94.75Q43 94.75 43.06 94.81Q43.13 94.88 43 95L43 95Q42.88 95.13 43 95.31Q43.13 95.50 43.25 95.63L43.25 95.63Q43.38 95.88 43.50 96Q43.63 96.13 43.50 96.25L43.50 96.25Q43.38 96.38 43.44 96.38Q43.50 96.38 43.63 96.38L43.63 96.38Q43.75 96.38 43.88 96.50Q44 96.63 43.88 96.63L43.88 96.63Q43.88 96.75 44 97Q44.13 97.25 44.38 97.38L44.38 97.38Q44.63 97.63 44.69 97.69Q44.75 97.75 44.50 97.75L44.50 97.75Q44.38 97.63 44.50 97.81Q44.63 98 45 98.25L45 98.25Q45.38 98.50 45.44 98.69Q45.50 98.88 45.38 98.88L45.38 98.88Q45.25 98.75 45.44 99Q45.63 99.25 46.13 99.63L46.13 99.63Q46.50 100 47.13 100.63Q47.75 101.25 48.13 101.63L48.13 101.63Q48.50 102.13 48.75 102.31Q49 102.50 48.88 102.38L48.88 102.38Q48.88 102.13 48.94 102.19Q49 102.25 49.25 102.50L49.25 102.50Q49.50 102.75 49.69 102.88Q49.88 103 50 103L50 103Q50.13 102.88 50.19 103Q50.25 103.13 50.38 103.25L50.38 103.25Q50.38 103.50 50.50 103.56Q50.63 103.63 50.75 103.63L50.75 103.63Q50.88 103.50 51 103.63Q51.13 103.75 51.25 103.88L51.25 103.88Q51.25 104 51.38 104.13Q51.50 104.25 51.63 104.13L51.63 104.13Q51.75 104.13 51.81 104.19Q51.88 104.25 51.88 104.38L51.88 104.38Q51.88 104.50 51.94 104.50Q52 104.50 52.13 104.50L52.13 104.50Q52.25 104.38 52.38 104.44Q52.50 104.50 52.50 104.63L52.50 104.63Q52.50 104.75 52.56 104.81Q52.63 104.88 52.75 104.75L52.75 104.75Q52.75 104.63 52.88 104.69Q53 104.75 53.13 104.88L53.13 104.88Q53.25 105 53.38 105.06Q53.50 105.13 53.63 105L53.63 105Q53.63 105 53.75 105Q53.88 105 53.88 105.13L53.88 105.13Q54.13 105.38 55.88 105.31Q57.63 105.25 58 105L58 105Q58.13 105 58.44 105Q58.75 105 58.88 105L58.88 105Q59.13 105.13 59.31 105.06Q59.50 105 59.50 104.88L59.50 104.88Q59.50 104.75 59.63 104.69Q59.75 104.63 59.88 104.63L59.88 104.63Q60.13 104.75 60.25 104.75Q60.38 104.75 60.50 104.63L60.50 104.63Q60.50 104.50 60.63 104.44Q60.75 104.38 60.88 104.50L60.88 104.50Q61 104.50 61.13 104.50Q61.25 104.50 61.38 104.38L61.38 104.38Q61.38 104.25 61.50 104.19Q61.63 104.13 61.75 104.13L61.75 104.13Q61.88 104.25 61.94 104.19Q62 104.13 62 104L62 104Q62 103.88 62.13 103.88Q62.25 103.88 62.25 103.88L62.25 103.88Q62.38 104 62.50 103.94Q62.63 103.88 62.63 103.75L62.63 103.75Q62.63 103.63 62.69 103.56Q62.75 103.50 62.88 103.63L62.88 103.63Q63 103.63 63.06 103.63Q63.13 103.63 63.13 103.50L63.13 103.50Q63.13 103.38 63.19 103.31Q63.25 103.25 63.38 103.25L63.38 103.25Q63.63 103.38 64.31 102.63Q65 101.88 64.88 101.75L64.88 101.75Q64.88 101.63 64.94 101.56Q65 101.50 65.13 101.50L65.13 101.50Q65.25 101.50 65.31 101.44Q65.38 101.38 65.25 101.25L65.25 101.25Q65.25 101.13 65.31 101Q65.38 100.88 65.50 100.75L65.50 100.75Q65.75 100.75 65.81 100.63Q65.88 100.50 65.75 100.38L65.75 100.38Q65.75 100.25 65.81 100.19Q65.88 100.13 66 100.13L66 100.13Q66.13 100.13 66.13 100Q66.13 99.88 66.13 99.75L66.13 99.75Q66 99.63 66.13 99.50Q66.25 99.38 66.38 99.38L66.38 99.38Q66.50 99.25 66.63 99.13Q66.75 99 66.63 98.88L66.63 98.88Q66.63 98.88 66.69 98.75Q66.75 98.63 66.88 98.63L66.88 98.63Q67 98.63 67 98.56Q67 98.50 67 98.38L67 98.38Q66.88 98.25 66.94 98.19Q67 98.13 67.13 98.13L67.13 98.13Q67.25 98.13 67.25 98.06Q67.25 98 67.25 97.88L67.25 97.88Q67.13 97.75 67.19 97.63Q67.25 97.50 67.38 97.50L67.38 97.50Q67.50 97.50 67.56 97.44Q67.63 97.38 67.50 97.25L67.50 97.25Q67.50 97.13 67.50 97.06Q67.50 97 67.63 97L67.63 97Q67.75 97 67.81 96.88Q67.88 96.75 67.75 96.75L67.75 96.75Q67.75 96.63 67.81 96.50Q67.88 96.38 68 96.38L68 96.38Q68.13 96.38 68.13 96.31Q68.13 96.25 68.13 96.13L68.13 96.13Q68 96 68.06 95.94Q68.13 95.88 68.25 95.88L68.25 95.88Q68.38 95.88 68.38 95.75Q68.38 95.63 68.38 95.63L68.38 95.63Q68.25 95.50 68.31 95.38Q68.38 95.25 68.50 95.25L68.50 95.25Q68.63 95.25 68.69 95.19Q68.75 95.13 68.63 95L68.63 95Q68.63 94.88 68.63 94.75Q68.63 94.63 68.75 94.63L68.75 94.63Q68.88 94.50 68.94 94.38Q69 94.25 68.88 94.13L68.88 94.13Q68.88 94 68.94 93.94Q69 93.88 69.13 93.88L69.13 93.88Q69.25 93.88 69.25 93.81Q69.25 93.75 69.25 93.63L69.25 93.63Q69.13 93.50 69.19 93.44Q69.25 93.38 69.38 93.38L69.38 93.38Q69.50 93.38 69.50 93.25Q69.50 93.13 69.50 93L69.50 93Q69.38 92.88 69.44 92.81Q69.50 92.75 69.63 92.75L69.63 92.75Q69.75 92.75 69.81 92.69Q69.88 92.63 69.75 92.50L69.75 92.50Q69.75 92.38 69.75 92.31Q69.75 92.25 69.88 92.25L69.88 92.25Q70 92.25 70 91.94Q70 91.63 70 91.13L70 91.13Q70 90.75 69.94 90.19Q69.88 89.63 69.88 89.25L69.88 89.25Q69.88 88.88 69.75 88.56Q69.63 88.25 69.50 88L69.50 88Q69.50 87.88 69.50 87.56Q69.50 87.25 69.50 87L69.50 87Q69.63 86.75 69.56 86.50Q69.50 86.25 69.38 86.13L69.38 86.13Q69.25 86 69.19 85.81Q69.13 85.63 69.25 85.38L69.25 85.38Q69.25 85.13 69.25 84.88Q69.25 84.63 69.13 84.50L69.13 84.50Q69 84.25 68.94 84.06Q68.88 83.88 68.88 83.75L68.88 83.75Q69 83.63 68.94 83.44Q68.88 83.25 68.75 83L68.75 83Q68.63 82.88 68.56 82.69Q68.50 82.50 68.63 82.38L68.63 82.38Q68.75 82.25 68.69 82.13Q68.63 82 68.50 81.88L68.50 81.88Q68.38 81.88 68.31 81.69Q68.25 81.50 68.38 81.50L68.38 81.50Q68.50 81.38 68.44 81.31Q68.38 81.25 68.25 81.25L68.25 81.25Q68.13 81.25 68.06 81.13Q68 81 68.13 81L68.13 81Q68.13 80.88 68.06 80.63Q68 80.38 67.75 80.25L67.75 80.25Q67.63 80 67.56 79.88Q67.50 79.75 67.50 79.75L67.50 79.75Q67.63 79.75 67.44 79.56Q67.25 79.38 66.88 79L66.88 79Q66.63 78.75 66.31 78.50Q66 78.25 65.88 78.38L65.88 78.38Q65.75 78.38 65.69 78.25Q65.63 78.13 65.50 78L65.50 78Q65.50 77.75 65.38 77.69Q65.25 77.63 65.13 77.75L65.13 77.75Q65 77.75 64.94 77.69Q64.88 77.63 64.88 77.50L64.88 77.50Q64.88 77.38 64.81 77.38Q64.75 77.38 64.63 77.38L64.63 77.38Q64.50 77.50 64.38 77.44Q64.25 77.38 64.25 77.25L64.25 77.25Q64.25 77.13 64.19 77.06Q64.13 77 64 77.13L64 77.13Q63.88 77.13 63.81 77.13Q63.75 77.13 63.75 77L63.75 77Q63.75 76.88 63.69 76.81Q63.63 76.75 63.38 76.88L63.38 76.88Q63.38 76.88 63.25 76.88Q63.13 76.88 63.13 76.63L63.13 76.63Q63.13 76.50 63.06 76.50Q63 76.50 62.88 76.50L62.88 76.50Q62.75 76.63 62.69 76.56Q62.63 76.50 62.63 76.38L62.63 76.38Q62.63 76.25 62.50 76.25Q62.38 76.25 62.13 76.25L62.13 76.25Q62 76.38 61.88 76.31Q61.75 76.25 61.75 76.13L61.75 76.13Q61.75 76 61.69 75.94Q61.63 75.88 61.50 76L61.50 76Q61.38 76 61.25 76Q61.13 76 61.13 75.88L61.13 75.88Q61.13 75.75 61.06 75.69Q61 75.63 60.88 75.75L60.88 75.75Q60.75 75.75 60.69 75.69Q60.63 75.63 60.63 75.50L60.63 75.50Q60.63 75.38 60.56 75.38Q60.50 75.38 60.38 75.38L60.38 75.38Q60.25 75.50 60.13 75.44Q60 75.38 60 75.25L60 75.25Q60 75.13 59.88 75.06Q59.75 75 59.63 75.13L59.63 75.13Q59.50 75.13 59.38 75.13Q59.25 75.13 59.25 75L59.25 75Q59.25 74.88 59.13 74.81Q59 74.75 58.88 74.88L58.88 74.88Q58.88 74.88 58.75 74.88Q58.63 74.88 58.63 74.75L58.63 74.75Q58.63 74.63 58.50 74.56Q58.38 74.50 58.25 74.50L58.25 74.50Q58 74.63 57.88 74.56Q57.75 74.50 57.75 74.38L57.75 74.38Q57.75 74.25 57.69 74.25Q57.63 74.25 57.50 74.25L57.50 74.25Q57.50 74.38 57.31 74.31Q57.13 74.25 57.13 74.13L57.13 74.13Q57 74 56.88 74Q56.75 74 56.63 74L56.63 74Q56.63 74.13 56.50 74.06Q56.38 74 56.25 73.88L56.25 73.88Q56.13 73.75 56 73.75Q55.88 73.75 55.63 73.75L55.63 73.75Q55.50 73.88 55.38 73.81Q55.25 73.75 55.25 73.63L55.25 73.63Q55.25 73.38 54.13 73.38Q53 73.38 52.75 73.63L52.75 73.63ZM57.25 86L57.25 86Q57.50 86.38 57.69 86.63Q57.88 86.88 57.88 87L57.88 87Q57.75 87 57.81 87.06Q57.88 87.13 58 87.13L58 87.13Q58.25 87.13 58.25 87.19Q58.25 87.25 58.25 87.38L58.25 87.38Q58.13 87.50 58.19 87.56Q58.25 87.63 58.25 87.63L58.25 87.63Q58.38 87.63 58.44 88.88Q58.50 90.13 58.38 90.38L58.38 90.38Q58.38 90.50 58.38 90.56Q58.38 90.63 58.38 90.75L58.38 90.75Q58.38 90.75 58.19 91Q58 91.25 57.88 91.38L57.88 91.38Q57.75 91.63 57.63 91.75Q57.50 91.88 57.63 91.88L57.63 91.88Q57.63 91.88 57.50 92.06Q57.38 92.25 57.13 92.50L57.13 92.50Q56.88 92.88 56.63 93Q56.38 93.13 56.38 93.13L56.38 93.13Q56.25 93.13 56.19 93.19Q56.13 93.25 56.13 93.38L56.13 93.38Q56.13 93.50 56.06 93.50Q56 93.50 55.88 93.50L55.88 93.50Q55.75 93.38 55.63 93.44Q55.50 93.50 55.50 93.63L55.50 93.63Q55.50 93.75 55.44 93.81Q55.38 93.88 55.25 93.88L55.25 93.88Q55 93.88 54.81 93.88Q54.63 93.88 54.38 94L54.38 94Q54.13 94.13 53.81 93.94Q53.50 93.75 53.13 93.38L53.13 93.38Q52.63 92.88 52.44 92.44Q52.25 92 52.25 91.13L52.25 91.13Q52.25 90.50 52.31 90.06Q52.38 89.63 52.50 89.63L52.50 89.63Q52.63 89.63 52.69 89.50Q52.75 89.38 52.63 89.25L52.63 89.25Q52.50 89.13 52.56 88.94Q52.63 88.75 52.75 88.75L52.75 88.75Q52.88 88.75 52.88 88.69Q52.88 88.63 52.88 88.50L52.88 88.50Q52.75 88.38 52.81 88.31Q52.88 88.25 53 88.25L53 88.25Q53.13 88.25 53.19 88.19Q53.25 88.13 53.13 88L53.13 88Q53.13 87.88 53.13 87.75Q53.13 87.63 53.25 87.63L53.25 87.63Q53.38 87.63 53.44 87.56Q53.50 87.50 53.38 87.38L53.38 87.38Q53.38 87.25 53.50 87.13Q53.63 87 53.88 86.88L53.88 86.88Q54.13 86.75 54.19 86.56Q54.25 86.38 54.25 86.25L54.25 86.25Q54.13 86.13 54.19 86.06Q54.25 86 54.38 86.13L54.38 86.13Q54.50 86.25 54.63 86.13Q54.75 86 54.88 85.88L54.88 85.88Q54.88 85.75 55 85.63Q55.13 85.50 55.25 85.63L55.25 85.63Q55.38 85.63 55.44 85.56Q55.50 85.50 55.50 85.50L55.50 85.50Q55.50 85 56.06 85.19Q56.63 85.38 57.25 86L57.25 86ZM53 93.50L53 93.50Q53.25 93.88 53.25 93.88Q53.25 93.88 53 93.63L53 93.63Q52.63 93.38 52.50 93.19Q52.38 93 52.50 93L52.50 93Q52.63 93 52.75 93.19Q52.88 93.38 53 93.50L53 93.50ZM46.13 77L46.13 77L45.50 77.63L46.13 77.13Q46.38 76.88 46.56 76.69Q46.75 76.50 46.75 76.50L46.75 76.50Q46.75 76.38 46.63 76.50Q46.50 76.63 46.13 77L46.13 77Z"/></svg>