<svg xmlns="http://www.w3.org/2000/svg" xmlns:xlink="http://www.w3.org/1999/xlink" width="128" height="128"><path fill="#ffffff" d="M44.13 4.38L44.63 4.25Q35.25 7.50 27.38 13.38L27.38 13.38Q19.63 19.25 14 27.06Q8.38 34.88 5.13 44.25L5.13 44.25Q2 53.63 2 64L2 64Q2 74.88 5.50 84.75L5.50 84.75Q9 94.63 15.19 102.63Q21.38 110.63 29.88 116.50L29.88 116.50Q38.50 122.25 48.50 125L48.50 125Q52.63 126.13 56.94 126.69Q61.25 127.25 65.75 127.25L65.75 127.25Q69.88 127.25 73.88 126.75Q77.88 126.25 81.75 125.38L81.75 125.38Q89 123.75 95.44 120.31Q101.88 116.88 107.25 112L107.25 112Q112.75 106.75 116.81 100.19Q120.88 93.63 123.13 86.13L123.13 86.13Q124.50 81.25 125.25 76.06Q126 70.88 126 65.50L126 65.50Q126 62 125.69 58.50Q125.38 55 124.75 51.75L124.75 51.75L65.25 52.13Q65.25 58.38 65.25 64.50Q65.25 70.63 65.25 76.88L65.25 76.88L99.75 76.88Q98.63 83 95.31 88Q92 93 87.13 96.25L87.13 96.25Q84.13 98.38 80.63 99.75Q77.13 101.13 73.38 101.88L73.38 101.88Q71.50 102.25 69.56 102.44Q67.63 102.63 65.63 102.63L65.63 102.63Q63.63 102.63 61.69 102.44Q59.75 102.25 57.75 101.88L57.75 101.88Q54 101 50.50 99.44Q47 97.88 43.88 95.63L43.88 95.63Q39 92.13 35.31 87.25Q31.63 82.38 29.63 76.63L29.63 76.63Q28.50 73.63 28 70.44Q27.50 67.25 27.50 64L27.50 64Q27.50 60.75 28 57.56Q28.50 54.38 29.63 51.38L29.63 51.38Q31 47.25 33.31 43.56Q35.63 39.88 38.63 36.75L38.63 36.75Q43.75 31.50 50.63 28.44Q57.50 25.38 65.38 25.38L65.38 25.38Q68.25 25.38 71 25.81Q73.75 26.25 76.38 27.13L76.38 27.13Q80.25 28.25 83.63 30.31Q87 32.38 89.75 35L89.75 35Q95.63 29.25 101.38 23.38L101.38 23.38Q102.88 21.75 104.50 20.25Q106.13 18.75 107.50 17.13L107.50 17.13Q103.25 13.13 98.25 10Q93.25 6.88 87.63 4.75L87.63 4.75Q82.38 2.75 76.81 1.75Q71.25 0.75 65.38 0.75L65.38 0.75Q59.75 0.75 54.44 1.69Q49.13 2.63 44.13 4.38L44.13 4.38Z"/></svg>