<svg xmlns="http://www.w3.org/2000/svg" xmlns:xlink="http://www.w3.org/1999/xlink" width="128" height="128"><path fill="#000000" d="M31.88 57.88L31.88 57.88L17.13 57.88L17.13 62.25L27.50 62.25Q27.13 66.88 23.94 68.94Q20.75 71 17.13 71L17.13 71Q12.25 71 8.81 67.63Q5.38 64.25 5.38 59.38L5.38 59.38Q5.38 54.50 8.81 51.06Q12.25 47.63 17.13 47.63L17.13 47.63Q17.13 47.63 17.13 47.63Q17.13 47.63 17.13 47.63L17.13 47.63Q19.38 47.63 21.44 48.50Q23.50 49.38 25 50.88L25 50.88L28.13 47.63Q26 45.63 23.19 44.44Q20.38 43.25 17.25 43.25L17.25 43.25Q17.13 43.25 17.06 43.25Q17 43.25 17 43.25L17 43.25Q10.38 43.25 5.69 48Q1 52.75 1 59.38L1 59.38Q1 66 5.75 70.75Q10.50 75.50 17.13 75.50L17.13 75.50Q17.13 75.50 17.19 75.50Q17.25 75.50 17.25 75.50L17.25 75.50Q23.75 75.50 27.94 71.44Q32.13 67.38 32.13 60.75L32.13 60.75Q32.13 60.75 32.13 60.69Q32.13 60.63 32.13 60.63L32.13 60.63Q32.13 59.88 32.06 59.19Q32 58.50 31.88 57.88L31.88 57.88ZM43.88 54.75L44 54.75Q39.63 54.75 36.63 57.75Q33.63 60.75 33.63 65.13L33.63 65.13Q33.63 69.38 36.69 72.38Q39.75 75.38 44 75.38L44 75.38Q48.25 75.38 51.25 72.38Q54.25 69.38 54.38 65.13L54.38 65.13Q54.38 65.13 54.38 65.06Q54.38 65 54.38 65L54.38 65Q54.38 60.75 51.38 57.75Q48.38 54.75 44.13 54.75L44.13 54.75Q44 54.75 44 54.75Q44 54.75 43.88 54.75L43.88 54.75ZM44 58.75L44 58.75Q44.13 58.75 44.19 58.75Q44.25 58.75 44.38 58.75L44.38 58.75Q47 58.75 48.81 60.63Q50.63 62.50 50.63 65.13L50.63 65.13Q50.63 67.63 48.81 69.50Q47 71.38 44.38 71.38L44.38 71.38Q41.75 71.38 39.94 69.50Q38.13 67.63 38.13 65.13L38.13 65.13Q38.13 65.13 38.13 65.13Q38.13 65.13 38.13 65L38.13 65Q38.13 65 38.13 64.94Q38.13 64.88 38.13 64.75L38.13 64.75Q38.13 62.25 39.81 60.50Q41.50 58.75 44 58.75L44 58.75ZM66.50 54.75L66.50 54.75Q62.25 54.75 59.25 57.75Q56.25 60.75 56.25 65.13L56.25 65.13Q56.25 69.38 59.25 72.38Q62.25 75.38 66.63 75.38L66.63 75.38Q70.88 75.38 73.88 72.38Q76.88 69.38 76.88 65.13L76.88 65.13Q76.88 65.13 76.88 65.06Q76.88 65 76.88 65L76.88 65Q76.88 60.75 73.94 57.75Q71 54.75 66.75 54.75L66.75 54.75Q66.63 54.75 66.63 54.75Q66.63 54.75 66.50 54.75L66.50 54.75ZM66.63 58.75L66.63 58.75Q66.75 58.75 66.81 58.75Q66.88 58.75 67 58.75L67 58.75Q69.63 58.75 71.44 60.63Q73.25 62.50 73.25 65.13L73.25 65.13Q73.25 67.63 71.44 69.50Q69.63 71.38 67 71.38L67 71.38Q64.38 71.38 62.56 69.50Q60.75 67.63 60.75 65.13L60.75 65.13Q60.75 65.13 60.75 65.13Q60.75 65.13 60.75 65L60.75 65Q60.75 65 60.75 64.94Q60.75 64.88 60.75 64.75L60.75 64.75Q60.75 62.25 62.44 60.50Q64.13 58.75 66.63 58.75L66.63 58.75ZM88.75 54.75L88.75 54.75Q84.50 54.75 81.63 57.88Q78.75 61 78.75 65.13L78.75 65.13Q78.75 65.13 78.75 65.19Q78.75 65.25 78.75 65.25L78.75 65.25Q78.75 69.38 81.63 72.31Q84.50 75.25 88.63 75.38L88.63 75.38Q88.75 75.38 88.81 75.44Q88.88 75.50 89 75.50L89 75.50Q90.63 75.50 92 74.81Q93.38 74.13 94.25 72.88L94.25 72.88L94.25 74.88Q94.25 77.63 92.81 79.13Q91.38 80.63 88.88 80.63L88.88 80.63Q87.13 80.63 85.69 79.63Q84.25 78.63 83.63 77L83.63 77L79.63 78.63Q80.75 81.38 83.25 83.06Q85.75 84.75 88.75 84.75L88.75 84.75Q88.75 84.75 88.81 84.75Q88.88 84.75 88.88 84.75L88.88 84.75Q93 84.75 95.81 82.13Q98.63 79.50 98.63 74L98.63 74L98.63 55.38L94.25 55.38L94.25 57.13Q93.25 56 91.88 55.38Q90.50 54.75 88.88 54.75L88.88 54.75Q88.88 54.75 88.81 54.75Q88.75 54.75 88.75 54.75L88.75 54.75ZM89.13 58.75L89.13 58.75Q91.13 58.75 92.88 60.44Q94.63 62.13 94.63 65.13L94.63 65.13Q94.63 68.13 92.88 69.75Q91.13 71.38 89.13 71.38L89.13 71.38Q86.63 71.25 85 69.56Q83.38 67.88 83.38 65.50L83.38 65.50Q83.38 65.38 83.38 65.31Q83.38 65.25 83.38 65.13L83.38 65.13Q83.38 62.13 85.19 60.44Q87 58.75 89.13 58.75L89.13 58.75ZM117.88 54.75L117.88 54.75Q114 54.75 111.13 57.56Q108.25 60.38 108.25 65L108.25 65Q108.25 65.13 108.25 65.25Q108.25 65.38 108.25 65.38L108.25 65.38Q108.25 69.63 111.19 72.50Q114.13 75.38 118.25 75.38L118.25 75.38Q118.38 75.38 118.38 75.38Q118.38 75.38 118.50 75.38L118.50 75.38Q118.38 75.38 118.44 75.38Q118.50 75.38 118.50 75.38L118.50 75.38Q121.13 75.38 123.38 74.19Q125.63 73 127.13 70.88L127.13 70.88L123.50 68.50Q122.75 69.75 121.44 70.56Q120.13 71.38 118.50 71.38L118.50 71.38Q118.50 71.38 118.50 71.38Q118.50 71.38 118.38 71.38L118.38 71.38Q118.38 71.38 118.31 71.38Q118.25 71.38 118.25 71.38L118.25 71.38Q116.63 71.38 115.31 70.50Q114 69.63 113.38 68.25L113.38 68.25L127.25 62.50L126.50 60.75Q125.50 58.13 123.19 56.44Q120.88 54.75 117.88 54.75L117.88 54.75ZM118.13 58.75L118.13 58.75Q118.13 58.75 118.19 58.75Q118.25 58.75 118.25 58.75L118.25 58.75Q119.50 58.75 120.44 59.31Q121.38 59.88 121.88 60.88L121.88 60.88L112.63 64.75Q112.63 64.75 112.63 64.63Q112.63 64.50 112.63 64.50L112.63 64.50Q112.63 62.13 114.25 60.50Q115.88 58.88 118.13 58.75L118.13 58.75ZM101.63 44.38L101.63 74.88L106.25 74.88L106.25 44.38L101.63 44.38Z"/></svg>