<svg xmlns="http://www.w3.org/2000/svg" xmlns:xlink="http://www.w3.org/1999/xlink" width="128" height="128"><path fill="#ffffff" d="M30.38 0L25.63 0Q24.88 0 24.44 0.56Q24 1.13 24 2L24 2L24 13.25L17.75 13.25Q16.25 13.25 15.13 14.13Q14 15 14 16.25L14 16.25L14 24L2 24Q1.13 24 0.56 24.44Q0 24.88 0 25.63L0 25.63L0 30.38Q0 31.13 0.56 31.56Q1.13 32 2 32L2 32L14 32L14 42L2 42Q1.13 42 0.56 42.44Q0 42.88 0 43.63L0 43.63L0 48.38Q0 49.13 0.56 49.56Q1.13 50 2 50L2 50L14 50L14 60L2 60Q1.13 60 0.56 60.44Q0 60.88 0 61.63L0 61.63L0 66.38Q0 67.13 0.56 67.56Q1.13 68 2 68L2 68L14 68L14 78L2 78Q1.13 78 0.56 78.44Q0 78.88 0 79.63L0 79.63L0 84.38Q0 85.13 0.56 85.56Q1.13 86 2 86L2 86L14 86L14 96L2 96Q1.13 96 0.56 96.44Q0 96.88 0 97.63L0 97.63L0 102.38Q0 103.13 0.56 103.56Q1.13 104 2 104L2 104L14 104L14 111Q14 112.25 15.13 113.13Q16.25 114 17.75 114L17.75 114L24 114L24 126Q24 126.88 24.44 127.44Q24.88 128 25.63 128L25.63 128L30.38 128Q31.13 128 31.56 127.44Q32 126.88 32 126L32 126L32 114L42 114L42 126Q42 126.88 42.44 127.44Q42.88 128 43.63 128L43.63 128L48.38 128Q49.13 128 49.56 127.44Q50 126.88 50 126L50 126L50 114L60 114L60 126Q60 126.88 60.44 127.44Q60.88 128 61.63 128L61.63 128L66.38 128Q67.13 128 67.56 127.44Q68 126.88 68 126L68 126L68 114L78 114L78 126Q78 126.88 78.44 127.44Q78.88 128 79.63 128L79.63 128L84.38 128Q85.13 128 85.56 127.44Q86 126.88 86 126L86 126L86 114L96 114L96 126Q96 126.88 96.44 127.44Q96.88 128 97.63 128L97.63 128L102.38 128Q103.13 128 103.56 127.44Q104 126.88 104 126L104 126L104 114L110.25 114Q111.75 114 112.88 113.13Q114 112.25 114 111L114 111L114 104L126 104Q126.88 104 127.44 103.56Q128 103.13 128 102.38L128 102.38L128 97.63Q128 96.88 127.44 96.44Q126.88 96 126 96L126 96L114 96L114 86L126 86Q126.88 86 127.44 85.56Q128 85.13 128 84.38L128 84.38L128 79.63Q128 78.88 127.44 78.44Q126.88 78 126 78L126 78L114 78L114 68L126 68Q126.88 68 127.44 67.56Q128 67.13 128 66.38L128 66.38L128 61.63Q128 60.88 127.44 60.44Q126.88 60 126 60L126 60L114 60L114 50L126 50Q126.88 50 127.44 49.56Q128 49.13 128 48.38L128 48.38L128 43.63Q128 42.88 127.44 42.44Q126.88 42 126 42L126 42L114 42L114 32L126 32Q126.88 32 127.44 31.56Q128 31.13 128 30.38L128 30.38L128 25.63Q128 24.88 127.44 24.44Q126.88 24 126 24L126 24L114 24L114 16.25Q114 15 112.88 14.13Q111.75 13.25 110.25 13.25L110.25 13.25L104 13.25L104 2Q104 1.13 103.56 0.56Q103.13 0 102.38 0L102.38 0L97.63 0Q96.88 0 96.44 0.56Q96 1.13 96 2L96 2L96 13.25L86 13.25L86 2Q86 1.13 85.56 0.56Q85.13 0 84.38 0L84.38 0L79.63 0Q78.88 0 78.44 0.56Q78 1.13 78 2L78 2L78 13.25L68 13.25L68 2Q68 1.13 67.56 0.56Q67.13 0 66.38 0L66.38 0L61.63 0Q60.88 0 60.44 0.56Q60 1.13 60 2L60 2L60 13.25L50 13.25L50 2Q50 1.13 49.56 0.56Q49.13 0 48.38 0L48.38 0L43.63 0Q42.88 0 42.44 0.56Q42 1.13 42 2L42 2L42 13.25L32 13.25L32 2Q32 1.13 31.56 0.56Q31.13 0 30.38 0L30.38 0ZM23 20L23 20Q24.25 20 25.13 20.88Q26 21.75 26 23L26 23L26 23Q26 24.25 25.13 25.13Q24.25 26 23 26L23 26L23 26Q21.75 26 20.88 25.13Q20 24.25 20 23L20 23L20 23Q20 21.75 20.88 20.88Q21.75 20 23 20L23 20ZM64 24.50L64 24.50Q69.50 24.50 74.63 26L74.63 26Q79.75 27.38 84.13 30Q88.50 32.63 92.13 36.38L92.13 36.38Q95.75 40 98.25 44.50L98.25 44.50L85.25 52Q82.13 46.38 76.50 42.94Q70.88 39.50 64 39.50L64 39.50Q59 39.50 54.50 41.38L54.50 41.38Q50 43.38 46.69 46.69Q43.38 50 41.38 54.50L41.38 54.50Q39.50 58.88 39.50 64L39.50 64Q39.50 69 41.38 73.50L41.38 73.50Q43.38 78 46.69 81.31Q50 84.63 54.50 86.63L54.50 86.63Q58.88 88.50 64 88.50L64 88.50Q70.88 88.50 76.50 85.06Q82.13 81.63 85.25 76.13L85.25 76.13L98.25 83.75Q95.63 88.13 92 91.75L92 91.75Q88.38 95.38 84 98Q79.63 100.63 74.50 102.13L74.50 102.13Q69.50 103.50 64 103.50L64 103.50Q55.88 103.50 48.63 100.38L48.63 100.38Q41.50 97.25 36.13 91.88Q30.75 86.50 27.63 79.38L27.63 79.38Q24.50 72.13 24.50 64L24.50 64Q24.50 55.88 27.63 48.63L27.63 48.63Q30.75 41.38 36.06 36.06Q41.38 30.75 48.63 27.63L48.63 27.63Q55.88 24.50 64 24.50L64 24.50ZM64 71.63L64 56L66.63 56L66.63 62.63L66.63 62.63Q66.88 62.25 67.13 61.94Q67.38 61.63 67.50 61.50L67.50 61.50Q67.75 61.25 68 61.19Q68.25 61.13 68.63 61.13L68.63 61.13Q69.13 61.13 69.56 61.44Q70 61.75 70.38 62.50L70.38 62.50Q70.75 63.25 70.94 64.25Q71.13 65.25 71.13 66.63L71.13 66.63Q71.13 67.75 70.94 68.75Q70.75 69.75 70.50 70.50L70.50 70.50Q70.13 71.25 69.69 71.63Q69.25 72 68.63 72L68.63 72Q68.13 72 67.63 71.56Q67.13 71.13 66.63 70.38L66.63 70.38L66.63 70.38L66.63 71.63L64 71.63ZM84.50 62.63L84.50 56L87 56L87 71.63L84.50 71.63L84.50 70.25L84.38 70.25Q84 71.13 83.50 71.56Q83 72 82.50 72L82.50 72Q81.88 72 81.44 71.63Q81 71.25 80.63 70.50L80.63 70.50Q80.25 69.75 80.13 68.75Q80 67.75 80 66.50L80 66.50Q80 65.25 80.13 64.31Q80.25 63.38 80.63 62.63L80.63 62.63Q81 61.88 81.50 61.50Q82 61.13 82.50 61.13L82.50 61.13Q83 61.13 83.50 61.50Q84 61.88 84.50 62.63L84.50 62.63ZM93.13 62.63L93.13 56L95.63 56L95.63 71.63L93.13 71.63L93.13 70.25L93 70.25Q92.63 71.13 92.13 71.56Q91.63 72 91.13 72L91.13 72Q90.50 72 90.06 71.63Q89.63 71.25 89.25 70.50L89.25 70.50Q88.88 69.75 88.69 68.75Q88.50 67.75 88.50 66.50L88.50 66.50Q88.50 65.25 88.69 64.31Q88.88 63.38 89.25 62.63L89.25 62.63Q89.63 61.88 90.13 61.50Q90.63 61.13 91.13 61.13L91.13 61.13Q91.63 61.13 92.13 61.50Q92.63 61.88 93.13 62.63L93.13 62.63ZM109.50 62.63L109.50 56L112 56L112 71.63L109.38 71.63L109.38 70.25L109.38 70.25Q109 71.13 108.50 71.56Q108 72 107.38 72L107.38 72Q106.88 72 106.44 71.63Q106 71.25 105.63 70.50L105.63 70.50Q105.25 69.75 105.06 68.75Q104.88 67.75 104.88 66.50L104.88 66.50Q104.88 65.25 105.06 64.31Q105.25 63.38 105.63 62.63L105.63 62.63Q106 61.88 106.44 61.50Q106.88 61.13 107.50 61.13L107.50 61.13Q108 61.13 108.50 61.50Q109 61.88 109.50 62.63L109.50 62.63ZM44 71.63L44 56.88L49.50 56.88L49.50 60L46.75 60L46.75 62.75L49.13 62.75L49.13 65.75L46.75 65.75L46.75 68.50L49.50 68.50L49.50 71.63L44 71.63ZM56.13 61.13L56.13 61.13Q56.88 61.13 57.31 61.56Q57.75 62 57.88 62.88L57.88 62.88Q58.25 62.38 58.50 62.06Q58.75 61.75 59.13 61.50L59.13 61.50Q59.38 61.25 59.69 61.19Q60 61.13 60.38 61.13L60.38 61.13Q61.25 61.13 61.69 61.88Q62.13 62.63 62.13 64.25L62.13 64.25L62.13 71.63L59.50 71.63L59.50 65.63Q59.50 64.88 59.31 64.50Q59.13 64.13 58.75 64.13L58.75 64.13Q58.38 64.13 58.19 64.50Q58 64.88 58 65.63L58 65.63L58 71.63L55.38 71.63L55.38 65.50Q55.38 65.13 55.38 64.94Q55.38 64.75 55.25 64.50L55.25 64.50Q55.13 64.38 55 64.25Q54.88 64.13 54.75 64.13L54.75 64.13Q54.50 64.13 54.38 64.25Q54.25 64.38 54.13 64.50L54.13 64.50Q54 64.75 53.94 64.94Q53.88 65.13 53.88 65.50L53.88 65.50L53.88 71.63L51.38 71.63L51.38 61.50L53.88 61.50L53.88 62.75Q54.50 61.88 55.06 61.50Q55.63 61.13 56.13 61.13L56.13 61.13ZM75.50 61.13L75.50 61.13Q76 61.13 76.44 61.25Q76.88 61.38 77.25 61.75L77.25 61.75Q77.75 62.13 78 62.63Q78.25 63.13 78.50 63.63L78.50 63.63Q78.75 64.25 78.81 65.19Q78.88 66.13 78.88 67.38L78.88 67.38L74.63 67.38Q74.63 68.50 74.88 69.06Q75.13 69.63 75.63 69.63L75.63 69.63Q75.75 69.63 75.94 69.56Q76.13 69.50 76.25 69.38L76.25 69.38Q76.38 69.13 76.44 68.94Q76.50 68.75 76.50 68.50L76.50 68.50L78.75 68.50Q78.38 70.25 77.63 71.13Q76.88 72 75.63 72L75.63 72Q74.88 72 74.25 71.63Q73.63 71.25 73.13 70.50L73.13 70.50Q72.75 69.75 72.50 68.75Q72.25 67.75 72.25 66.38L72.25 66.38Q72.25 65.25 72.44 64.25Q72.63 63.25 73.13 62.50L73.13 62.50Q73.63 61.88 74.19 61.50Q74.75 61.13 75.50 61.13L75.50 61.13ZM100.50 61.13L100.50 61.13Q101 61.13 101.38 61.25Q101.75 61.38 102.25 61.75L102.25 61.75Q102.63 62.13 102.94 62.63Q103.25 63.13 103.50 63.63L103.50 63.63Q103.63 64.25 103.75 65.19Q103.88 66.13 103.88 67.38L103.88 67.38L99.63 67.38Q99.63 68.50 99.88 69.06Q100.13 69.63 100.63 69.63L100.63 69.63Q100.75 69.63 100.88 69.56Q101 69.50 101.13 69.38L101.13 69.38Q101.25 69.13 101.38 68.94Q101.50 68.75 101.50 68.50L101.50 68.50L103.63 68.50Q103.38 70.25 102.56 71.13Q101.75 72 100.50 72L100.50 72Q99.75 72 99.13 71.63Q98.50 71.25 98.13 70.50L98.13 70.50Q97.63 69.75 97.38 68.75Q97.13 67.75 97.13 66.38L97.13 66.38Q97.13 65.25 97.38 64.25Q97.63 63.25 98.13 62.50L98.13 62.50Q98.50 61.88 99.13 61.50Q99.75 61.13 100.50 61.13L100.50 61.13ZM75.63 63.50L75.63 63.50Q75.38 63.50 75.19 63.63Q75 63.75 74.88 64L74.88 64Q74.75 64.25 74.69 64.63Q74.63 65 74.63 65.63L74.63 65.63L76.50 65.63Q76.50 65 76.44 64.63Q76.38 64.25 76.25 64L76.25 64Q76.13 63.75 76 63.63Q75.88 63.50 75.63 63.50L75.63 63.50ZM100.50 63.50L100.50 63.50Q100.25 63.50 100.06 63.63Q99.88 63.75 99.88 64L99.88 64Q99.75 64.25 99.69 64.63Q99.63 65 99.63 65.63L99.63 65.63L101.50 65.63Q101.50 65 101.44 64.63Q101.38 64.25 101.25 64L101.25 64Q101.13 63.75 100.94 63.63Q100.75 63.50 100.50 63.50L100.50 63.50ZM67.63 64L67.63 64Q67.13 64 66.88 64.56Q66.63 65.13 66.63 66.38L66.63 66.38Q66.63 67.13 66.69 67.63Q66.75 68.13 66.88 68.50L66.88 68.50Q67 68.75 67.19 68.94Q67.38 69.13 67.63 69.13L67.63 69.13Q68.13 69.13 68.38 68.44Q68.63 67.75 68.63 66.50L68.63 66.50Q68.63 65.25 68.38 64.63Q68.13 64 67.63 64L67.63 64ZM83.50 64L83.50 64Q83 64 82.75 64.63Q82.50 65.25 82.50 66.63L82.50 66.63Q82.50 67.25 82.56 67.69Q82.63 68.13 82.75 68.50L82.75 68.50Q82.88 68.75 83.06 68.94Q83.25 69.13 83.50 69.13L83.50 69.13Q83.75 69.13 83.94 68.94Q84.13 68.75 84.25 68.38L84.25 68.38Q84.38 68.13 84.44 67.63Q84.50 67.13 84.50 66.50L84.50 66.50Q84.50 65.25 84.25 64.63Q84 64 83.50 64L83.50 64ZM92.13 64L92.13 64Q91.63 64 91.38 64.63Q91.13 65.25 91.13 66.63L91.13 66.63Q91.13 67.25 91.19 67.69Q91.25 68.13 91.38 68.50L91.38 68.50Q91.50 68.75 91.69 68.94Q91.88 69.13 92.13 69.13L92.13 69.13Q92.38 69.13 92.56 68.94Q92.75 68.75 92.88 68.38L92.88 68.38Q93 68.13 93.06 67.63Q93.13 67.13 93.13 66.50L93.13 66.50Q93.13 65.25 92.88 64.63Q92.63 64 92.13 64L92.13 64ZM108.50 64L108.50 64Q108 64 107.75 64.63Q107.50 65.25 107.50 66.63L107.50 66.63Q107.50 67.25 107.56 67.69Q107.63 68.13 107.75 68.50L107.75 68.50Q107.88 68.75 108.06 68.94Q108.25 69.13 108.50 69.13L108.50 69.13Q108.75 69.13 108.88 68.94Q109 68.75 109.25 68.38L109.25 68.38Q109.38 68.13 109.44 67.63Q109.50 67.13 109.50 66.50L109.50 66.50Q109.50 65.25 109.25 64.63Q109 64 108.50 64L108.50 64Z"/></svg>