<svg xmlns="http://www.w3.org/2000/svg" xmlns:xlink="http://www.w3.org/1999/xlink" width="128" height="128"><path fill="#ffffff" d="M30.75 0L25.63 0Q24.88 0 24.44 0.56Q24 1.13 24 2L24 2L24 13.25L17.75 13.25Q16.25 13.25 15.19 14.06Q14.13 14.88 14.13 16.25L14.13 16.25L14.13 24L2.13 24Q1.25 24 0.69 24.44Q0.13 24.88 0.13 25.63L0.13 25.63L0.13 30.38Q0.13 31.13 0.69 31.56Q1.25 32 2.13 32L2.13 32L14.13 32L14.13 42L2.13 42Q1.25 42 0.69 42.44Q0.13 42.88 0.13 43.63L0.13 43.63L0.13 48.38Q0.13 49.13 0.69 49.56Q1.25 50 2.13 50L2.13 50L14.13 50L14.13 60L2.13 60Q1.25 60 0.69 60.44Q0.13 60.88 0.13 61.63L0.13 61.63L0.13 66.38Q0.13 67.13 0.69 67.56Q1.25 68 2.13 68L2.13 68L14.13 68L14.13 78L2.13 78Q1.25 78 0.69 78.44Q0.13 78.88 0.13 79.63L0.13 79.63L0.13 84.38Q0.13 85.13 0.69 85.56Q1.25 86 2.13 86L2.13 86L14.13 86L14.13 96L2.13 96Q1.25 96 0.69 96.44Q0.13 96.88 0.13 97.63L0.13 97.63L0.13 102.38Q0.13 103.13 0.69 103.56Q1.25 104 2.13 104L2.13 104L14.13 104L14.13 111Q14.13 112.25 15.25 113.13Q16.38 114 17.88 114L17.88 114L24.25 114L24.25 126Q24.25 126.88 24.69 127.44Q25.13 128 25.75 128L25.75 128L30.63 128Q31.25 128 31.75 127.44Q32.25 126.88 32.25 126L32.25 126L32.25 114L42.25 114L42.25 126Q42.25 126.88 42.69 127.44Q43.13 128 43.75 128L43.75 128L48.63 128Q49.25 128 49.75 127.44Q50.25 126.88 50.25 126L50.25 126L50.25 114L60.25 114L60.25 126Q60.25 126.88 60.69 127.44Q61.13 128 61.75 128L61.75 128L66.63 128Q67.25 128 67.75 127.44Q68.25 126.88 68.25 126L68.25 126L68.25 114L78.25 114L78.25 126Q78.25 126.88 78.69 127.44Q79.13 128 79.75 128L79.75 128L84.63 128Q85.25 128 85.75 127.44Q86.25 126.88 86.25 126L86.25 126L86.25 114L96.25 114L96.25 126Q96.25 126.88 96.69 127.44Q97.13 128 97.75 128L97.75 128L102.63 128Q103.25 128 103.75 127.44Q104.25 126.88 104.25 126L104.25 126L104.25 114L110.50 114Q112.13 114 113.19 113.13Q114.25 112.25 114.25 111L114.25 111L114.25 104L126.25 104Q127.13 104 127.69 103.56Q128.25 103.13 128.25 102.38L128.25 102.38L128.25 97.63Q128.25 96.88 127.69 96.44Q127.13 96 126.25 96L126.25 96L114.25 96L114.25 86L126.25 86Q127.13 86 127.69 85.56Q128.25 85.13 128.25 84.38L128.25 84.38L128.25 79.63Q128.25 78.88 127.69 78.44Q127.13 78 126.25 78L126.25 78L114.25 78L114.25 68L126.25 68Q127.13 68 127.69 67.56Q128.25 67.13 128.25 66.38L128.25 66.38L128.25 61.63Q128.25 60.88 127.69 60.44Q127.13 60 126.25 60L126.25 60L114.25 60L114.25 50L126.25 50Q127.13 50 127.69 49.56Q128.25 49.13 128.25 48.38L128.25 48.38L128.25 43.63Q128.25 42.88 127.69 42.44Q127.13 42 126.25 42L126.25 42L114.25 42L114.25 32L126.25 32Q127.13 32 127.69 31.56Q128.25 31.13 128.25 30.38L128.25 30.38L128.25 25.63Q128.25 24.88 127.69 24.44Q127.13 24 126.25 24L126.25 24L114.25 24L114.25 16.25Q114.25 14.88 113.19 14.06Q112.13 13.25 110.63 13.25L110.63 13.25L104.38 13.25L104.38 2Q104.38 1.13 103.94 0.56Q103.50 0 102.75 0L102.75 0L98 0Q97.38 0 96.88 0.56Q96.38 1.13 96.38 2L96.38 2L96.38 13.25L86.38 13.25L86.38 2Q86.38 1.13 85.94 0.56Q85.50 0 84.75 0L84.75 0L80 0Q79.38 0 78.88 0.56Q78.38 1.13 78.38 2L78.38 2L78.38 13.25L68.38 13.25L68.38 2Q68.38 1.13 67.94 0.56Q67.50 0 66.75 0L66.75 0L62 0Q61.38 0 60.88 0.56Q60.38 1.13 60.38 2L60.38 2L60.38 13.25L50.38 13.25L50.38 2Q50.38 1.13 49.94 0.56Q49.50 0 48.75 0L48.75 0L44 0Q43.38 0 42.88 0.56Q42.38 1.13 42.38 2L42.38 2L42.38 13.25L32.38 13.25L32.38 2Q32.38 1.13 31.94 0.56Q31.50 0 30.75 0L30.75 0ZM23 20L23 20Q24.25 20 25.13 20.88Q26 21.75 26 23L26 23L26 23Q26 24.25 25.13 25.13Q24.25 26 23 26L23 26L23 26Q21.75 26 20.88 25.13Q20 24.25 20 23L20 23L20 23Q20 21.75 20.88 20.88Q21.75 20 23 20L23 20ZM64 24.50L64 24.50Q69.50 24.50 74.63 26L74.63 26Q79.75 27.38 84.13 30Q88.50 32.63 92.13 36.38L92.13 36.38Q95.75 40 98.25 44.50L98.25 44.50L85.25 52Q82.13 46.38 76.50 42.94Q70.88 39.50 64 39.50L64 39.50Q59 39.50 54.50 41.38L54.50 41.38Q50 43.38 46.69 46.69Q43.38 50 41.38 54.50L41.38 54.50Q39.50 58.88 39.50 64L39.50 64Q39.50 69 41.38 73.50L41.38 73.50Q43.38 78 46.69 81.31Q50 84.63 54.50 86.63L54.50 86.63Q58.88 88.50 64 88.50L64 88.50Q70.88 88.50 76.50 85.06Q82.13 81.63 85.25 76.13L85.25 76.13L98.25 83.75Q95.63 88.13 92 91.75L92 91.75Q88.38 95.38 84 98Q79.63 100.63 74.50 102.13L74.50 102.13Q69.50 103.50 64 103.50L64 103.50Q55.88 103.50 48.63 100.38L48.63 100.38Q41.50 97.25 36.13 91.88Q30.75 86.50 27.63 79.38L27.63 79.38Q24.50 72.13 24.50 64L24.50 64Q24.50 55.88 27.63 48.63L27.63 48.63Q30.75 41.38 36.06 36.06Q41.38 30.75 48.63 27.63L48.63 27.63Q55.88 24.50 64 24.50L64 24.50Z"/></svg>