<svg xmlns="http://www.w3.org/2000/svg" xmlns:xlink="http://www.w3.org/1999/xlink" width="128" height="128"><path fill="#000000" d="M104.13 70.63L104.13 70.63L84.13 70.63Q83.25 70.63 82.44 71.25Q81.63 71.88 81.50 72.88L81.50 72.88Q80.75 78.75 76.13 82.81Q71.50 86.88 65.38 86.88L65.38 86.88L70.75 111.63Q78 110.63 84.38 107.25L84.38 107.25Q90.75 104 95.50 98.94Q100.25 93.88 103.25 87.25L103.25 87.25Q106.25 80.75 106.75 73.38L106.75 73.38Q106.88 72.25 106.06 71.44Q105.25 70.63 104.13 70.63L104.13 70.63ZM69.75 70L69.75 70L98.50 45.25Q99.38 44.50 99.38 43.31Q99.38 42.13 98.50 41.38L98.50 41.38L69.75 16.63Q68.50 15.50 67 16.25Q65.50 17 65.50 18.63L65.50 18.63L65.50 67.88Q65.38 69.63 66.88 70.38Q68.38 71.13 69.75 70L69.75 70ZM48.88 70.63L24.25 76Q25.25 83.63 28.88 90.13L28.88 90.13Q32.38 96.75 37.88 101.63Q43.38 106.50 50.38 109.25L50.38 109.25Q57.50 112 65.38 112L65.38 112L65.38 86.88Q58.63 86.88 53.75 82.13Q48.88 77.38 48.88 70.63L48.88 70.63ZM24 70.25L24 70.25L24 70.63L49.13 70.63Q49.13 63.88 53.94 59.13Q58.75 54.38 65.50 54.38L65.50 54.38L60.13 29.63Q52.50 30.63 46 34.13L46 34.13Q39.38 37.75 34.50 43.13Q29.63 48.50 26.88 55.50L26.88 55.50Q24 62.38 24 70.25L24 70.25Z"/></svg>