<svg xmlns="http://www.w3.org/2000/svg" xmlns:xlink="http://www.w3.org/1999/xlink" width="128" height="128"><path fill="#000000" d="M103.75 58.50L103.75 58.50L83.38 58.50Q82.38 58.50 81.63 59.13Q80.88 59.75 80.75 60.75L80.75 60.75Q79.88 66.75 75.19 70.94Q70.50 75.13 64.25 75.13L64.25 75.13L69.75 100.13Q77.13 99.13 83.63 95.75L83.63 95.75Q90 92.38 94.94 87.25Q99.88 82.13 102.88 75.50L102.88 75.50Q105.88 68.88 106.38 61.25L106.38 61.25Q106.50 60.13 105.69 59.31Q104.88 58.50 103.75 58.50L103.75 58.50ZM68.75 57.88L68.75 57.88L98 32.75Q98.88 31.88 98.88 30.69Q98.88 29.50 98 28.75L98 28.75L68.75 3.63Q67.50 2.50 65.94 3.19Q64.38 3.88 64.38 5.63L64.38 5.63L64.38 55.75Q64.38 57.50 65.88 58.25Q67.38 59 68.75 57.88L68.75 57.88ZM47.63 58.50L22.50 64Q23.50 71.63 27.13 78.38L27.13 78.38Q30.75 85 36.31 89.94Q41.88 94.88 49.13 97.75L49.13 97.75Q56.25 100.63 64.25 100.63L64.25 100.63L64.25 75.13Q57.38 75.13 52.50 70.25Q47.63 65.38 47.63 58.50L47.63 58.50ZM22.25 58.13L22.25 58.13L22.25 58.50L47.75 58.50Q47.75 51.63 52.63 46.75Q57.50 41.88 64.38 41.88L64.38 41.88L59 16.88Q51.25 17.88 44.63 21.50L44.63 21.50Q37.88 25 32.94 30.50Q28 36 25.13 43.13L25.13 43.13Q22.25 50.13 22.25 58.13L22.25 58.13ZM11.38 123.38L11.38 104.13L19.50 104.13Q22.38 104.13 23.81 105.44Q25.25 106.75 25.25 109.13L25.25 109.13Q25.25 110.88 24.44 111.94Q23.63 113 22 113.38L22 113.38Q24.13 113.75 25.25 114.94Q26.38 116.13 26.38 118.13L26.38 118.13Q26.38 120.50 24.75 121.94Q23.13 123.38 19.88 123.38L19.88 123.38L11.38 123.38ZM14 106.63L14 106.63L14 112.38L19.13 112.38Q21 112.38 21.81 111.56Q22.63 110.75 22.63 109.38L22.63 109.38Q22.63 107.88 21.75 107.25Q20.88 106.63 19.13 106.63L19.13 106.63L14 106.63ZM20 114.75L14 114.75L14 120.75L20 120.75Q22 120.75 22.88 120.06Q23.75 119.38 23.75 117.88L23.75 117.88Q23.75 116.38 22.88 115.56Q22 114.75 20 114.75L20 114.75ZM39.25 123.38L39.25 120.75Q38.63 122.13 37.31 122.88Q36 123.63 34.38 123.63L34.38 123.63Q31.38 123.63 29.94 121.44Q28.50 119.25 28.50 116L28.50 116Q28.50 112.88 30 110.63Q31.50 108.38 34.63 108.38L34.63 108.38Q36.25 108.38 37.44 109.13Q38.63 109.88 39.25 111.25L39.25 111.25L39.25 108.75L41.88 108.75L41.88 123.38L39.25 123.38ZM35 121.25L35 121.25Q36.75 121.25 38 120.13Q39.25 119 39.25 116.63L39.25 116.63L39.25 115.38Q39.25 113 38.06 111.88Q36.88 110.75 35.25 110.75L35.25 110.75Q33.13 110.75 32.06 112.13Q31 113.50 31 116L31 116Q31 118.63 32 119.94Q33 121.25 35 121.25L35 121.25ZM58 123.38L58.13 123.38L55.50 123.38L55.50 114.50Q55.50 112.50 54.69 111.63Q53.88 110.75 52.13 110.75L52.13 110.75Q50.38 110.75 49.25 111.88Q48.13 113 48.13 115.25L48.13 115.25L48.13 123.38L45.63 123.38L45.63 108.75L48.13 108.75L48.13 111.13Q48.88 109.88 50.06 109.13Q51.25 108.38 52.75 108.38L52.75 108.38Q54.63 108.38 55.88 109.31Q57.13 110.25 57.75 112L57.75 112Q58.38 110.25 59.75 109.31Q61.13 108.38 62.88 108.38L62.88 108.38Q65.38 108.38 66.69 110.06Q68 111.75 68 114.75L68 114.75L68 123.38L65.50 123.38L65.50 115.25Q65.50 113 64.69 111.88Q63.88 110.75 62 110.75L62 110.75Q60.25 110.75 59.13 111.88Q58 113 58 115.25L58 115.25L58 123.38ZM74.13 120.75L74.13 120.75L74.13 123.38L71.63 123.38L71.63 102.50L74.13 102.50L74.13 111.25Q74.75 109.88 76.06 109.13Q77.38 108.38 79.13 108.38L79.13 108.38Q82 108.38 83.44 110.56Q84.88 112.75 84.88 116L84.88 116Q84.88 119.13 83.38 121.38Q81.88 123.63 78.75 123.63L78.75 123.63Q77.13 123.63 75.94 122.94Q74.75 122.25 74.13 120.75L74.13 120.75ZM78.38 110.75L78.38 110.75Q76.63 110.75 75.38 111.88Q74.13 113 74.13 115.38L74.13 115.38L74.13 116.63Q74.13 119 75.31 120.13Q76.50 121.25 78.13 121.25L78.13 121.25Q80.25 121.25 81.31 119.94Q82.38 118.63 82.38 116L82.38 116Q82.38 113.38 81.38 112.06Q80.38 110.75 78.38 110.75L78.38 110.75ZM87 116L87 116Q87 112.75 88.81 110.56Q90.63 108.38 93.88 108.38L93.88 108.38Q97.25 108.38 99.06 110.56Q100.88 112.75 100.88 116L100.88 116Q100.88 119.25 99.06 121.44Q97.25 123.63 94 123.63L94 123.63Q90.63 123.63 88.81 121.44Q87 119.25 87 116L87 116ZM89.38 116L89.38 116Q89.38 118.13 90.50 119.69Q91.63 121.25 94 121.25L94 121.25Q96.25 121.25 97.38 119.69Q98.50 118.13 98.50 116L98.50 116Q98.50 113.88 97.44 112.31Q96.38 110.75 94 110.75L94 110.75Q91.63 110.75 90.50 112.31Q89.38 113.88 89.38 116L89.38 116ZM103 116L103 116Q103 112.75 104.81 110.56Q106.63 108.38 109.88 108.38L109.88 108.38Q113.13 108.38 115 110.56Q116.88 112.75 116.88 116L116.88 116Q116.88 119.25 115 121.44Q113.13 123.63 109.88 123.63L109.88 123.63Q106.63 123.63 104.81 121.44Q103 119.25 103 116ZM105.38 116L105.38 116Q105.38 118.13 106.50 119.69Q107.63 121.25 110 121.25L110 121.25Q112.25 121.25 113.31 119.69Q114.38 118.13 114.38 116L114.38 116Q114.38 113.88 113.31 112.31Q112.25 110.75 110 110.75L110 110.75Q107.63 110.75 106.50 112.31Q105.38 113.88 105.38 116Z"/></svg>