<svg xmlns="http://www.w3.org/2000/svg" xmlns:xlink="http://www.w3.org/1999/xlink" width="128" height="128"><path fill="#000000" d="M92 99.25L92 99.25L115 99.25L115 5.50L84.63 5.50L64.63 53.50Q64.63 53.50 65.75 56.50Q66.88 59.50 68.13 63.13L68.13 63.13Q69.88 68.75 71.56 74.13Q73.25 79.50 73.25 79.50L73.25 79.50L71.63 81.13L73 81.13Q73.25 81.13 73.63 80.81Q74 80.50 74.63 79.50L74.63 79.50Q75.88 77.13 81.75 66.38L81.75 66.38Q87.50 55.50 94 43.44Q100.50 31.38 105.75 21.63L105.75 21.63Q110.88 12 110.88 12L110.88 12Q110.88 12 107.94 18.69Q105 25.38 100.13 34.88L100.13 34.88Q96 42.63 92.75 48.69Q89.50 54.75 89.50 54.75L89.50 54.75L89.50 93.25L92 99.25Q92 99.25 92.19 98.75Q92.38 98.25 92.75 96.75L92.75 96.75Q96.13 88.50 99 80.06Q101.88 71.63 104.25 63L104.25 63Q106.50 55.13 108.25 47.88L108.25 47.88Q109.88 40.75 111 35.31Q112.13 29.88 112.75 26.75L112.75 26.75Q113.25 23.50 113.25 23.50L113.25 23.50Q112.75 28.63 112 33.63L112 33.63Q111.25 38.75 110.31 43.81Q109.38 48.88 108.25 53.88L108.25 53.88Q107 58.88 105.75 63.75L105.75 63.75Q103.25 72.38 100 80.63Q96.75 88.88 92.75 96.75L92.75 96.75Q92.38 98 92.19 98.63Q92 99.25 92 99.25L92 99.25ZM73 81.13L73 81.13L55.75 81.13Q55.63 81.13 55.19 80.81Q54.75 80.50 54.25 79.50L54.25 79.50Q52.88 77.13 46.63 65.88L46.63 65.88Q40.38 54.63 33.50 42.13Q26.63 29.63 21 19.63L21 19.63Q15.50 9.63 15.50 9.63L15.50 9.63Q15.50 9.63 19.06 17.56Q22.63 25.50 26.75 32.75L26.75 32.75Q30.63 39.75 33.31 44.63Q36 49.50 36 49.50L36 49.50Q34 56 31.50 62.25Q29 68.50 26.25 74.75L26.25 74.75Q23 81.38 18.88 89.06Q14.75 96.75 14.75 96.75L14.75 96.75Q17.88 91.88 20.88 86.88Q23.88 81.88 26.63 76.63L26.63 76.63Q31.13 68 34 59.38Q36.88 50.75 36.88 50.75L36.88 50.75L37.75 52.25L37.75 95.13Q35.75 97.50 31.63 98.50L31.63 98.50Q27.50 99.63 23.38 99.88Q19.25 100.13 16.13 100L16.13 100Q13 99.75 13 99.75L13 99.75L13 5.75L42.63 3L73 79.50L73 81.13ZM65 106L61 106L56 120L51 106L47 106L47 125L50 125L50 111L55 125L57 125L62 111L62 125L65 125L65 106ZM96 106L99.50 106L93 117L93 125L90 125L90 117L83.63 106L87 106L91.50 114L96 106ZM103 120L109.88 120L111.38 125L115 125L109 106L104 106L98 125L101.50 125L103 120ZM109.25 117.25L103.88 117.25L106.63 108.38L109.25 117.25ZM73 120L79.88 120L81.38 125L85 125L79 106L74 106L68 125L71.50 125L73 120ZM79.25 117.25L73.88 117.25L76.63 108.38L79.25 117.25Z"/></svg>