<svg xmlns="http://www.w3.org/2000/svg" xmlns:xlink="http://www.w3.org/1999/xlink" width="128" height="128"><path fill="#000000" d="M98 121L98 121L126 121L126 7L89 7L64.63 65.38Q64.63 65.38 66 69Q67.38 72.63 68.88 77.13L68.88 77.13Q71.13 83.88 73.06 90.44Q75 97 75 97L75 97L73 99L75 99Q75.25 99 75.75 98.63Q76.25 98.25 77 97L77 97Q78.50 94.13 85.63 81L85.63 81Q92.63 67.88 100.50 53.19Q108.38 38.50 114.75 26.75L114.75 26.75Q121 15 121 15L121 15Q121 15 117.44 23.13Q113.88 31.25 107.88 42.88L107.88 42.88Q102.88 52.25 98.94 59.63Q95 67 95 67L95 67L95 114L98 121Q98 121 98.19 120.38Q98.38 119.75 99 118L99 118Q100.75 114 102.38 109.50L102.38 109.50Q104.13 105 105.81 100.19Q107.50 95.38 109.13 90.25L109.13 90.25Q110.75 85.13 112.25 79.88L112.25 79.88L113 77.13Q115.63 67.50 117.75 58.75L117.75 58.75Q119.75 50 121.19 43.44Q122.63 36.88 123.25 32.88L123.25 32.88Q124 29 124 29L124 29Q123.25 35.88 122.25 42.50L122.25 42.50Q121.25 49.13 120 55.50Q118.75 61.88 117.38 68L117.38 68Q115.88 74.25 114.25 80.25L114.25 80.25L114.75 78Q113.13 83.75 111.25 89.13L111.25 89.13Q109.38 94.63 107.38 99.69Q105.38 104.75 103.13 109.63L103.13 109.63Q100.88 114.50 98.38 119.25L98.38 119.25L99 118L98 121ZM75 97L75 99L54 99Q53.75 99 53.25 98.69Q52.75 98.38 52 97L52 97Q50.38 94.13 42.88 80.50L42.88 80.50Q35.25 66.75 26.88 51.56Q18.50 36.38 11.75 24.25L11.75 24.25Q5 12 5 12L5 12Q5 12 6.25 14.75L6.25 14.75Q7.38 17.50 9.31 21.69Q11.25 25.88 13.63 30.88L13.63 30.88Q16.13 35.75 18.63 40.25L18.63 40.25Q15.13 33.13 16.88 36.06Q18.63 39 21.38 44L21.38 44L29.88 60.50Q27 69.75 23.88 77.56Q20.75 85.38 17.25 92.75L17.25 92.75L18 91.13Q16 95.13 13.63 99.88L13.63 99.88Q11.25 104.63 9.06 108.63Q6.88 112.63 5.50 115.38L5.50 115.38Q4 118 4 118L4 118Q7.38 113 10.88 107.06Q14.38 101.13 17.75 95L17.75 95L18.50 93.50Q21.13 88.25 23.50 82.75L23.50 82.75Q25.75 77.13 27.44 72.50Q29.13 67.88 30 65L30 65Q31 62 31 62L31 62L32 64L32 116Q29.63 118.88 24.63 120.13L24.63 120.13Q19.63 121.38 14.63 121.75Q9.63 122.13 5.75 121.88L5.75 121.88Q2 121.75 2 121.75L2 121.75L2 7.38L38 4L75 97Z"/></svg>