<svg xmlns="http://www.w3.org/2000/svg" xmlns:xlink="http://www.w3.org/1999/xlink" width="128" height="128"><path fill="#ffffff" d="M29.25 25.13L86.63 25L89.63 25.13Q90.38 25.13 91.25 25.31Q92.13 25.50 93 25.63L93 25.63L90.50 18.25L75.75 3.50Q73.13 1 70.13 0.31Q67.13-0.38 65.25 1.25L65.25 1.25L29.25 25.13ZM92.75 28.63L92.75 28.63Q91.75 28.50 90.94 28.31Q90.13 28.13 89.38 28.13L89.38 28.13L86.50 28L30.50 28.13L109.13 106.75L115.25 92.88L92.75 28.63ZM28.88 92.25L28.88 92.25L93.25 114.88L107 108.75L28.38 30.25L28.38 86.25L28.50 89Q28.50 89.63 28.56 90.44Q28.63 91.25 28.88 92.25L28.88 92.25ZM127.25 54.75L106.88 34.25Q105 32.38 101.94 30.63Q98.88 28.88 95.63 27.75L95.63 27.75L118.38 93L111.50 108.75L127.25 103.50L127.25 54.75ZM109.13 111.25L93.38 118.13L28.38 95.25Q29.50 98.38 31.19 101.50Q32.88 104.63 34.88 106.63L34.88 106.63L56.25 127.75L103.75 127.88L109.13 111.25ZM25.50 89.13L25.50 89.13L25.38 86.38L25.38 28.88L1.75 65.13Q0.13 66.75 0.81 69.81Q1.50 72.88 4 75.50L4 75.50L18.75 90.25L26 92.88Q25.75 91.88 25.63 91Q25.50 90.13 25.50 89.13Z"/></svg>