<svg xmlns="http://www.w3.org/2000/svg" xmlns:xlink="http://www.w3.org/1999/xlink" width="128" height="128"><path fill="#000000" d="M65.25 55.38L65.25 55.38Q67.38 57.38 68.44 60Q69.50 62.63 69.50 66L69.50 66Q69.50 69.38 68.44 72.06Q67.38 74.75 65.38 76.75L65.38 76.75Q63.38 78.75 60.25 79.75Q57.13 80.75 53 80.75L53 80.75L43.25 80.75L43.25 51.75L53.25 51.75Q57.25 51.75 60.25 52.63Q63.25 53.50 65.25 55.38L65.25 55.38ZM60.50 72.75L60.50 72.75Q61.75 71.63 62.31 69.94Q62.88 68.25 62.88 66.13L62.88 66.13Q62.88 63.88 62.31 62.25Q61.75 60.63 60.50 59.38L60.50 59.38Q59.25 58.25 57.44 57.63Q55.63 57 53.13 57L53.13 57L49.25 57L49.25 75L53.50 75Q55.88 75 57.56 74.44Q59.25 73.88 60.50 72.75L60.50 72.75ZM92.63 80.75L92.63 80.75L86.75 80.75L86.75 78Q85.50 79.50 84.06 80.25Q82.63 81 80.75 81L80.75 81Q79 81 77.50 80.50Q76 80 74.75 78.88L74.75 78.88Q73.63 77.88 73 76.50Q72.38 75.13 72.38 73.38L72.38 73.38Q72.38 71.63 73 70.38Q73.63 69.13 74.88 68.25L74.88 68.25Q76.13 67.50 77.88 67.06Q79.63 66.63 81.75 66.63L81.75 66.63L86.38 66.63L86.38 66.38Q86.38 64.63 85.44 63.69Q84.50 62.75 82.63 62.75L82.63 62.75Q81.75 62.75 80.94 62.94Q80.13 63.13 79.25 63.38L79.25 63.38Q78.25 63.75 77.50 64.13Q76.75 64.50 76.13 65L76.13 65L73.25 60.88Q75.50 59.25 78 58.50Q80.50 57.75 83.38 57.75L83.38 57.75Q85.38 57.75 87.06 58.25Q88.75 58.75 90 59.75L90 59.75Q91.25 60.88 91.88 62.44Q92.50 64 92.50 66.25L92.50 66.25L92.50 80.75L92.63 80.75ZM86.25 72.25L86.25 72.25L86.25 71.25L82.38 71.25Q80.50 71.25 79.56 71.81Q78.63 72.38 78.63 73.50L78.63 73.50Q78.63 74.13 78.81 74.56Q79 75 79.50 75.25L79.50 75.25Q80 75.63 80.63 75.75Q81.25 75.88 82.13 75.88L82.13 75.88Q82.88 75.88 83.63 75.63Q84.38 75.38 85 74.88L85 74.88Q85.63 74.38 85.94 73.69Q86.25 73 86.25 72.25L86.25 72.25ZM109.13 63.75L109.13 63.75Q107.63 63.75 106.56 64.25Q105.50 64.75 104.75 65.75L104.75 65.75Q104.13 66.75 103.69 68.13Q103.25 69.50 103.25 71.13L103.25 71.13L103.25 80.88L97.13 80.88L97.13 58.38L103.25 58.38L103.25 61.25Q103.88 60.63 104.75 60.06Q105.63 59.50 106.50 59L106.50 59Q107.38 58.50 108.38 58.25Q109.38 58 110.38 58L110.38 58L110.38 63.88L109.13 63.75ZM120.38 62.88L120.38 62.88L120.38 72.75Q120.38 73.50 120.56 73.94Q120.75 74.38 121.13 74.75L121.13 74.75Q121.38 75.13 121.81 75.31Q122.25 75.50 122.75 75.50L122.75 75.50Q123.63 75.50 124.38 75.13Q125.13 74.75 125.75 73.88L125.75 73.88L128 78.25Q126.63 79.63 125.06 80.31Q123.50 81 121.88 81L121.88 81Q120.25 81 118.88 80.50Q117.50 80 116.38 78.88L116.38 78.88Q115.25 77.88 114.75 76.38Q114.25 74.88 114.25 73.13L114.25 73.13L114.25 51.75L120.38 51.75L120.38 58L127 58L123.63 63L120.38 62.88ZM23.13 76.50L23.13 76.50L25.88 75.25L7.13 56.38L7.13 70.25Q7.13 70.38 7.13 70.50Q7.13 70.63 7.25 70.75L7.25 70.75L23.13 76.50ZM22.75 55.38L22.75 55.38Q22.50 55.38 22.38 55.31Q22.25 55.25 22.13 55.25L22.13 55.25L8.25 55.25L27 74.13L28.25 71.25L22.75 55.38ZM21.50 53.75L21.50 53.75L22.25 53.75Q22.63 53.75 22.94 53.81Q23.25 53.88 23.50 54L23.50 54L23.63 54L23 52.50L19.25 48.75Q18.50 48 17.75 47.88Q17 47.75 16.50 48.13L16.50 48.13L8 53.75L21.50 53.75ZM27.25 56.63L27.25 56.63Q26.63 56.13 25.81 55.63Q25 55.13 24.13 54.88L24.13 54.88L29.88 71.25L28.25 75.25L28.63 75.63L32.50 74.25L32.50 61.88L27.25 56.63ZM5.75 70.25L5.75 70.25L5.75 56.25L0.25 64.38Q-0.13 64.88 0.06 65.63Q0.25 66.38 0.88 67.13L0.88 67.13L4.63 71L5.75 71.38Q5.75 71.13 5.75 70.88Q5.75 70.63 5.75 70.25L5.75 70.25ZM23.25 78.13L23.25 78.13L22.88 78L7.25 72.38Q7.50 73.13 7.88 73.88Q8.25 74.63 8.75 75.13L8.75 75.13L14.25 80.50L26.50 80.50L27.88 75.88L23.25 78.13Z"/></svg>