<svg xmlns="http://www.w3.org/2000/svg" xmlns:xlink="http://www.w3.org/1999/xlink" width="128" height="128"><path fill="#ffffff" d="M15.75 51.75L15.75 51.75Q17.38 50 19.38 48.94Q21.38 47.88 23.63 47.88L23.63 47.88Q28.75 47.88 32.38 52.69Q36 57.50 36 64.25L36 64.25Q36 71.13 32.38 75.88Q28.75 80.63 23.63 80.63L23.63 80.63Q21.38 80.63 19.38 79.63Q17.38 78.63 15.75 76.88L15.75 76.88Q18.25 79.88 21.88 81.75Q25.50 83.63 29.63 83.63L29.63 83.63Q32.25 83.63 34.63 82.88Q37 82.13 39.13 80.75L39.13 80.75L39 80.88Q42.63 77.75 44.75 73.50Q46.88 69.25 46.88 64.25L46.88 64.25Q46.88 59.38 44.75 55.06Q42.63 50.75 39 47.75L39 47.75Q37 46.50 34.63 45.75Q32.25 45 29.63 45L29.63 45Q29.63 45 29.63 45Q29.63 45 29.63 45L29.63 45L29.63 45Q25.50 45 21.88 46.81Q18.25 48.63 15.75 51.75L15.75 51.75ZM23.50 42.13L23.38 42.13Q13.75 42.13 6.88 48.63Q0 55.13 0 64.25L0 64.25Q0 73.25 6.50 79.69Q13 86.13 22.25 86.50L22.25 86.50Q22.63 86.50 22.88 86.50Q23.13 86.50 23.38 86.50L23.38 86.50Q27.88 86.50 31.88 85Q35.88 83.50 39 80.88L39 80.88Q37 82.13 34.63 82.88Q32.25 83.63 29.63 83.63L29.63 83.63L29.63 83.63Q25.50 83.63 21.88 81.75Q18.25 79.88 15.75 76.75L15.75 76.75Q13.75 74.63 12.56 71.50Q11.38 68.38 11.38 64.88L11.38 64.88L11.38 63.75Q11.38 60.13 12.56 57.06Q13.75 54 15.75 51.75L15.75 51.75Q18.25 48.63 21.88 46.81Q25.50 45 29.63 45L29.63 45Q32.25 45 34.63 45.75Q37 46.50 39 47.75L39 47.75Q35.88 45.13 31.94 43.63Q28 42.13 23.50 42.13L23.50 42.13ZM83.13 73.50L83.13 73.50Q80.88 73.50 79.31 71.88Q77.75 70.25 77.75 67.88L77.75 67.88Q77.75 65.63 79.31 64Q80.88 62.38 83.13 62.38L83.13 62.38Q85.25 62.38 86.81 64Q88.38 65.63 88.38 67.88L88.38 67.88Q88.38 70.25 86.81 71.88Q85.25 73.50 83.13 73.50ZM83.13 60.75L83.13 60.75Q83.13 60.75 83.06 60.75Q83 60.75 83 60.75L83 60.75Q81.50 60.75 80.19 61.44Q78.88 62.13 78 63.13L78 63.13L78 63.13L78 61.13L76.38 61.13L76.38 79.13L78 79.13L78 72.63Q78.88 73.75 80.19 74.38Q81.50 75 83 75L83 75Q83 75 83.06 75Q83.13 75 83.13 75L83.13 75L83.13 75Q86 75 88 72.94Q90 70.88 90 67.88L90 67.88Q90 65 88 62.88Q86 60.75 83.13 60.75L83.13 60.75ZM64.75 73.88L64.75 73.88Q61.25 73.88 58.75 71.44Q56.25 69 56.25 65.50L56.25 65.50Q56.25 62 58.75 59.50Q61.25 57 64.75 57L64.75 57Q68.13 57 70.63 59.50Q73.13 62 73.13 65.50L73.13 65.50Q73.13 69 70.63 71.44Q68.13 73.88 64.75 73.88ZM64.75 55.50L64.75 55.50Q60.50 55.50 57.56 58.44Q54.63 61.38 54.63 65.50L54.63 65.50Q54.63 69.63 57.56 72.50Q60.50 75.38 64.75 75.38L64.75 75.38Q68.88 75.38 71.81 72.50Q74.75 69.63 74.75 65.50L74.75 65.50Q74.75 61.38 71.81 58.44Q68.88 55.50 64.75 55.50ZM113.13 60.88L113.13 60.88Q112.75 60.88 112.31 61Q111.88 61.13 111.50 61.25L111.50 61.25L111.50 61.25Q110.75 61.63 110.19 62.25Q109.63 62.88 109.25 63.63L109.25 63.63L109.25 63.75L109.25 61.25L107.63 61.25L107.63 74.63L109.25 74.63L109.25 67.63Q109.25 66.88 109.38 66.25Q109.50 65.63 109.75 65L109.75 65Q110 64.50 110.31 64Q110.63 63.50 111.13 63.13L111.13 63.13Q111.63 62.75 112.13 62.56Q112.63 62.38 113.25 62.38L113.25 62.38Q113.38 62.38 113.50 62.38Q113.63 62.38 113.75 62.38L113.75 62.38L113.75 62.38L114.25 62.50Q114.25 62.13 114.44 61.75Q114.63 61.38 114.63 61L114.63 61Q114.38 60.88 114 60.88Q113.63 60.88 113.25 60.88L113.25 60.88Q113.25 60.88 113.25 60.88Q113.25 60.88 113.13 60.88L113.13 60.88L113.13 60.88ZM98.50 62.38L98.50 62.38Q100.75 62.38 102.19 63.63Q103.63 64.88 103.88 67.13L103.88 67.13L93.25 67.13Q93.50 65.13 95 63.75Q96.50 62.38 98.50 62.38L98.50 62.38ZM98.50 60.75L98.50 60.75Q95.63 60.75 93.56 62.88Q91.50 65 91.50 67.88L91.50 67.88Q91.50 70.88 93.56 73Q95.63 75.13 98.50 75.13L98.50 75.13Q100.63 75.13 102.31 74Q104 72.88 104.75 71L104.75 71L103.38 70.25Q102.75 71.75 101.44 72.63Q100.13 73.50 98.50 73.50L98.50 73.50Q96.38 73.50 94.88 72.06Q93.38 70.63 93.25 68.38L93.25 68.38L105.50 68.38L105.50 67.88Q105.50 64.75 103.56 62.75Q101.63 60.75 98.50 60.75L98.50 60.75ZM121.25 73.50L121.25 73.50Q119.13 73.50 117.50 71.88Q115.88 70.25 115.88 67.88L115.88 67.88Q115.88 65.63 117.50 64Q119.13 62.38 121.25 62.38L121.25 62.38Q123.50 62.38 125.06 64Q126.63 65.63 126.63 67.88L126.63 67.88Q126.63 70.25 125.06 71.88Q123.50 73.50 121.25 73.50ZM128 61.13L126.38 61.13L126.38 63.13Q125.50 62.13 124.19 61.44Q122.88 60.75 121.38 60.75L121.38 60.75Q121.25 60.75 121.25 60.75Q121.25 60.75 121.25 60.75L121.25 60.75L121.25 60.75Q118.38 60.75 116.31 62.88Q114.25 65 114.25 67.88L114.25 67.88Q114.25 70.88 116.31 72.94Q118.38 75 121.25 75L121.25 75Q121.25 75 121.25 75Q121.25 75 121.38 75L121.38 75Q122.88 75 124.19 74.38Q125.50 73.75 126.38 72.63L126.38 72.63L126.38 72.63L126.38 74.63L128 74.63L128 61.13Z"/></svg>