<svg xmlns="http://www.w3.org/2000/svg" xmlns:xlink="http://www.w3.org/1999/xlink" width="128" height="128"><path fill="#ffffff" d="M42.88 28L42.88 28Q47.38 22.75 52.94 19.81Q58.50 16.88 64.63 16.88L64.63 16.88Q71.63 16.88 77.75 20.50L77.75 20.50Q84 24.25 88.56 30.63Q93.13 37 95.75 45.63L95.75 45.63Q98.38 54.25 98.38 64L98.38 64Q98.38 73.75 95.75 82.38L95.75 82.38Q93.13 91 88.56 97.38Q84 103.75 77.75 107.50L77.75 107.50Q71.63 111.13 64.63 111.13L64.63 111.13Q58.50 111.13 52.94 108.19Q47.38 105.25 42.88 100.13L42.88 100.13Q46.38 104.50 50.63 108.13L50.63 108.13Q54.88 111.75 59.69 114.31Q64.50 116.88 69.88 118.25L69.88 118.25Q75.25 119.50 81 119.50L81 119.50Q88 119.50 94.50 117.50Q101 115.50 106.63 111.75L106.63 111.75Q111.50 107.38 115.50 102L115.50 102Q119.50 96.63 122.25 90.56Q125 84.50 126.50 77.75L126.50 77.75Q128 71.13 128 64L128 64Q128 56.88 126.50 50.25L126.50 50.25Q125 43.50 122.25 37.44Q119.50 31.38 115.50 26L115.50 26Q111.63 20.75 106.63 16.25L106.63 16.25Q101 12.63 94.50 10.56Q88 8.50 81 8.50L81 8.50Q75.25 8.50 69.88 9.88L69.88 9.88Q64.50 11.25 59.69 13.75Q54.88 16.25 50.63 19.88L50.63 19.88Q46.38 23.50 42.88 28L42.88 28ZM64.25 0L64 0Q50.75 0 39.13 5L39.13 5Q27.38 10.13 18.69 18.81Q10 27.50 5 39.13L5 39.13Q0 50.75 0 64L0 64Q0 76.88 4.75 88.25L4.75 88.25Q9.50 99.63 17.75 108.25Q26 116.88 37.13 122.13L37.13 122.13Q48.25 127.38 61 127.88L61 127.88Q61.63 128 62.44 128Q63.25 128 64 128L64 128L64 128Q64 128 64 128Q64 128 64.13 128L64.13 128Q70.25 128 76.13 126.88L76.13 126.88Q81.88 125.75 87.31 123.63Q92.75 121.50 97.63 118.50L97.63 118.50Q102.50 115.50 106.75 111.63L106.75 111.63L106.63 111.75Q101 115.50 94.50 117.50Q88 119.50 81 119.50L81 119.50Q75.25 119.50 69.88 118.13L69.88 118.13Q64.50 116.88 59.69 114.31Q54.88 111.75 50.63 108.13L50.63 108.13Q46.38 104.50 42.88 100.13L42.88 100.13Q37.63 93.75 34.44 84.81Q31.25 75.88 31 65.50L31 65.50L31 62.50Q31.25 52.13 34.44 43.19Q37.63 34.25 42.88 28L42.88 28Q46.38 23.50 50.63 19.88L50.63 19.88Q54.88 16.25 59.69 13.75Q64.50 11.25 69.88 9.88L69.88 9.88Q75.25 8.50 81 8.50L81 8.50Q88 8.50 94.50 10.56Q101 12.63 106.63 16.25L106.63 16.25Q102.38 12.50 97.50 9.50L97.50 9.50Q92.75 6.50 87.38 4.38Q82 2.25 76.13 1.13L76.13 1.13Q70.38 0 64.25 0L64.25 0Z"/></svg>