<svg xmlns="http://www.w3.org/2000/svg" xmlns:xlink="http://www.w3.org/1999/xlink" width="128" height="128"><path fill="#ffffff" d="M102.38 101.50L102.38 101.50Q98.63 105 101.44 107.50Q104.25 110 108 107.75L108 107.75Q108.88 106.88 107.75 104.63Q106.63 102.38 102.38 101.50ZM28.63 108.88L28.63 108.88Q31.63 111.50 35.44 109.13Q39.25 106.75 40.63 103.25L40.63 103.25Q37.63 99.38 30.75 102.06Q23.88 104.75 28.63 108.88ZM104.50 96.75L104.50 96.75Q104.50 98.50 112.88 99Q121.25 99.50 121.25 96.25L121.25 96.25Q119.50 91 112.75 91.25Q106 91.50 104.50 96.75ZM120.13 55.75L120.13 55.75L73.38 7.88Q69.13 3.75 63 3.75Q56.88 3.75 52.75 7.88L52.75 7.88L7.75 54Q2 61.13 3.13 64.63L3.13 64.63Q4.13 68.25 8.56 70.13Q13 72 18.88 73L18.88 73Q24.88 74.13 29 76.13L29 76.13Q31.88 79.13 23.38 81.63Q14.88 84.13 17.88 87.13L17.88 87.13Q19.38 88.63 23.38 90L23.38 90Q27.25 91.50 31.75 92.94Q36.25 94.38 40.13 95.88L40.13 95.88Q44.13 97.38 45.63 98.88L45.63 98.88L41.50 111.25Q44.38 114.25 49.63 114Q54.88 113.75 56.25 120.75L56.25 120.75Q57.13 125.63 65.81 123.88Q74.50 122.13 80 118.13L80 118.13Q82.88 115.13 78.19 114.31Q73.50 113.50 76.38 110.38L76.38 110.38Q83.75 102.88 89.94 103.56Q96.13 104.25 98.63 96.75L98.63 96.75Q99.88 93 92.50 90.56Q85.13 88.13 88.13 85L88.13 85Q92.38 82.63 100.50 80.25L100.50 80.25Q108.63 78 115.31 74.88Q122 71.75 124.50 67.13L124.50 67.13Q127 62.63 120.13 55.75ZM64.13 86.75L64.13 86.75Q62.25 87.25 57.75 86.13L57.75 86.13Q53.25 84.88 49 83.19Q44.75 81.50 42.25 80.13L42.25 80.13Q39.75 78.63 41.88 78.63L41.88 78.63Q42.38 78.88 45.50 79.63L45.50 79.63Q48.63 80.38 52.56 81.19Q56.50 82 60.38 82.75L60.38 82.75Q64.13 83.50 65.75 83.75L65.75 83.75Q67 84 66.38 85Q65.75 86 64.13 86.75L64.13 86.75ZM89.25 35.25L89.25 35.25L80.38 28.25L78.75 38.75L71.25 34.75L59.50 42.25L55.63 26.75L49.13 38L39.38 38Q36.38 38 36.13 34.88Q35.88 31.75 38.63 29.13L38.63 29.13Q43.38 24 48.25 19.13Q53.13 14.25 56 11.25L56 11.25Q58.88 8.25 63.31 8.25Q67.75 8.25 70.75 11.25L70.75 11.25L88.50 29.25Q89.75 30.63 89.88 32.56Q90 34.50 89.25 35.25L89.25 35.25Z"/></svg>