<svg xmlns="http://www.w3.org/2000/svg" xmlns:xlink="http://www.w3.org/1999/xlink" width="128" height="128"><path fill="#ffffff" d="M13.38 121.25L13.38 120.75Q14.13 120.63 14.56 120.25Q15 119.88 15 119.25L15 119.25L15 108.75Q15 108 14.81 107.69Q14.63 107.38 13.38 107.25L13.38 107.25L13.38 106.63L15 106.63Q16.50 106.63 17 106.56Q17.50 106.50 17.50 106.50L17.50 106.50L17.63 106.63Q17.63 106.63 17.25 107.25Q16.88 107.88 16.88 109.25L16.88 109.25L16.88 119.25Q16.88 119.75 16.81 120.06Q16.75 120.38 16.75 120.38L16.75 120.38L18.88 120.63L18.75 121.25L13.38 121.25ZM20.75 120.75L20.75 120.75Q21.50 120.63 21.88 120.25Q22.25 119.88 22.25 119.25L22.25 119.25L22.25 109.38Q22.25 108.25 21.88 107.81Q21.50 107.38 20.50 107.25L20.50 107.25L20.50 106.63L21.25 106.63Q22 106.63 22.69 106.56Q23.38 106.50 23.38 106.50L23.38 106.50Q23.38 106.50 23.63 106.81Q23.88 107.13 24.25 107.63L24.25 107.63L32.25 116.75L33.13 118L33.13 108.75Q33.13 108 32.88 107.63Q32.63 107.25 31.25 107.13L31.25 107.13L31.25 106.50L35.50 106.50L35.63 106.75Q35.63 106.75 34.88 107.19Q34.13 107.63 34.13 109L34.13 109L34.13 121.25L33.50 121.25L24.13 110.25Q23.88 110 23.69 109.69Q23.50 109.38 23.25 109.13L23.25 109.13L23.25 119.13Q23.25 119.63 23.25 119.94Q23.25 120.25 23.25 120.25L23.25 120.25L25.25 120.38L25.13 121L20.75 121.13L20.75 120.75ZM37.50 120.75L37.50 120.75Q38.25 120.63 38.69 120.25Q39.13 119.88 39.13 119.25L39.13 119.25L39.13 108.75Q39.13 108 38.94 107.69Q38.75 107.38 37.50 107.25L37.50 107.25L37.50 106.63L39.25 106.63Q40.75 106.63 41.25 106.56Q41.75 106.50 41.75 106.50L41.75 106.50L41.75 106.63Q41.75 106.63 41.44 107.25Q41.13 107.88 41.13 109.25L41.13 109.25L41.13 113.25L41.50 113.25Q41.50 113.25 41.75 113.06Q42 112.88 42.25 112.63L42.25 112.63L46.50 108.25Q46.75 108 46.69 107.63Q46.63 107.25 45.88 107.25L45.88 107.25L45.88 106.63L50 106.63L50.13 106.88Q50.13 106.88 49.31 107.25Q48.50 107.63 47.25 108.75L47.25 108.75L43.13 112.88L43.13 113.13L48.38 119.25Q49.13 120 49.44 120.19Q49.75 120.38 50.25 120.50L50.25 120.50L50.50 120.50L50.38 121.25L47.25 121.25L47.13 121.13Q47.13 121.13 46.81 120.56Q46.50 120 45.38 118.75L45.38 118.75L41.25 114L41 114L41 119.25Q41 119.63 40.94 119.94Q40.88 120.25 40.88 120.25L40.88 120.25L42.88 120.50L42.75 121.13L37.50 121.25L37.50 120.75ZM52 117.38L52 117.38L52.75 117.38Q52.75 119.38 53.75 120.06Q54.75 120.75 55.88 120.75L55.88 120.75Q57 120.75 57.88 120.25Q58.75 119.75 58.75 118.50L58.75 118.50Q58.75 115.63 55.25 114.63Q51.75 113.63 51.75 110.25L51.75 110.25Q51.75 108.63 53 107.56Q54.25 106.50 56.75 106.50L56.75 106.50Q57.88 106.50 58.88 106.69Q59.88 106.88 60.25 106.88L60.25 106.88L59.63 110.25L58.88 110.25Q59 109.13 58.44 108.19Q57.88 107.25 56.38 107.25L56.38 107.25Q55.25 107.25 54.50 107.81Q53.75 108.38 53.75 109.63L53.75 109.63Q53.75 112.50 57.19 113.38Q60.63 114.25 60.63 117.75L60.63 117.75Q60.63 119.75 59.13 120.75Q57.63 121.75 55.75 121.75L55.75 121.75Q54.25 121.75 52.88 121.19Q51.50 120.63 51.50 119.38L51.50 119.38Q51.38 119.13 51.50 118.75Q51.63 118.38 52 117.38L52 117.38ZM70.75 106.38L70.75 106.38Q71.88 106.38 73.25 106.63Q74.63 106.88 75.50 106.88L75.50 106.88L74.75 110.25L74 110.25Q74 108.50 72.81 107.88Q71.63 107.25 70.25 107.25L70.25 107.25Q67.75 107.25 66.25 109Q64.75 110.75 64.75 113.50L64.75 113.50Q64.75 116.50 66.56 118.31Q68.38 120.13 71.13 120.13L71.13 120.13Q73.25 120.13 74.38 119.31Q75.50 118.50 75.50 118.50L75.50 118.50L75.75 119Q75.75 119 74.44 120.31Q73.13 121.63 70.25 121.63L70.25 121.63Q67.38 121.63 65 119.69Q62.63 117.75 62.63 114.25L62.63 114.25Q62.63 110.88 64.88 108.63Q67.13 106.38 70.75 106.38L70.75 106.38ZM76.38 120.75L76.25 120.75Q77 120.63 77.31 120.38Q77.63 120.13 77.75 119.75L77.75 119.75L83 106.75L83.88 106.50L88.75 119Q89.25 120.13 89.63 120.38Q90 120.63 90.50 120.75L90.50 120.75L90.38 121.25L89.50 121.25Q88.88 121.25 87.56 121.31Q86.25 121.38 86.25 121.38L86.25 121.38L86.25 120.75Q86.63 120.75 87 120.56Q87.38 120.38 87.13 119.75L87.13 119.75L85.75 116.25L80.50 116.25L80.25 116.50L78.75 120.50L80.63 120.75L80.50 121.38L76.38 121.38L76.38 120.75ZM82.88 109L82.88 109L80.50 115.38L85.25 115.38L83.38 110.38Q83.25 110 83.13 109.63Q83 109.25 82.88 109L82.88 109ZM91.50 120.75L91.38 120.75Q92.13 120.63 92.56 120.25Q93 119.88 93 119.25L93 119.25L93 108.75Q93 108 92.75 107.69Q92.50 107.38 91.25 107.25L91.25 107.25L91.25 106.63L96.75 106.63Q98.63 106.63 100.38 107.44Q102.13 108.25 102.13 110.63L102.13 110.63Q102.13 113.25 100.19 114.25Q98.25 115.25 96.38 115.13L96.38 115.13L96.38 114.50Q98.38 114.38 99.13 113.38Q99.88 112.38 99.88 111.13L99.88 111.13Q99.88 109.13 98.56 108.25Q97.25 107.38 95.50 107.38L95.50 107.38L95.25 107.38L95 107.63L95 119.25Q95 119.63 94.94 119.94Q94.88 120.25 94.88 120.25L94.88 120.25L97 120.50L96.88 121.13L91.50 121.25L91.50 120.75ZM103.75 120.75L103.75 120.75Q104.50 120.63 104.94 120.25Q105.38 119.88 105.38 119.25L105.38 119.25L105.38 108.75Q105.38 108 105.13 107.69Q104.88 107.38 103.63 107.25L103.63 107.25L103.63 106.63L112.75 106.63Q113.38 106.63 113.81 106.56Q114.25 106.50 114.25 106.50L114.25 106.50L113.63 110.25L112.88 110.25Q113 108.50 112.44 108Q111.88 107.50 110.50 107.50L110.50 107.50L107.63 107.50L107.38 107.75L107.38 113.38L111.50 113.38L111.75 112.13L112.50 112L112.50 115.88L111.50 115.88L111.50 114.25L107.75 114.25L107.50 114.50L107.50 119.25Q107.50 119.75 107.44 120.06Q107.38 120.38 107.38 120.38L107.38 120.38L110.88 120.38Q112.38 120.38 112.88 119.88Q113.38 119.38 114.25 117.75L114.25 117.75L114.88 117.75L114.13 121.25L107 121.25Q106.13 121.25 104.94 121.31Q103.75 121.38 103.75 121.38L103.75 121.38L103.75 120.75ZM100.25 89.25L100.25 89.25Q101 88.63 100.06 86.75Q99.13 84.88 95.75 84.13L95.75 84.13Q92.50 87 94.81 89.06Q97.13 91.13 100.25 89.25ZM44.88 85.50L44.88 85.50Q42.50 82.38 36.81 84.63Q31.13 86.88 35 90.25L35 90.25Q37.50 92.25 40.63 90.38Q43.75 88.50 44.88 85.50ZM111.25 79.75L111.25 79.75Q109.75 75.50 104.19 75.69Q98.63 75.88 97.38 80.25L97.38 80.25Q97.38 81.63 104.31 82Q111.25 82.38 111.25 79.75ZM84 70.63L84 70.63Q87.50 68.63 94.13 66.63L94.13 66.63Q100.88 64.75 106.31 62.19Q111.75 59.63 113.88 55.88L113.88 55.88Q115.88 52.13 110.25 46.38L110.25 46.38L71.88 7.25Q68.38 3.88 63.31 3.81Q58.25 3.75 54.88 7.25L54.88 7.25L17.88 45.13Q13.25 50.88 14.13 53.88L14.13 53.88Q15 56.75 18.63 58.31Q22.25 59.88 27.13 60.75L27.13 60.75Q32 61.50 35.38 63.25L35.38 63.25L26.25 72.25Q28.63 74.63 37.56 77Q46.50 79.38 49 81.88L49 81.88L45.63 92Q48 94.50 52.31 94.31Q56.63 94.13 57.75 99.75L57.75 99.75Q58.50 103.88 65.63 102.44Q72.75 101 77.25 97.75L77.25 97.75L74.25 91.38Q80.25 85.25 85.38 85.81Q90.50 86.38 92.63 80.25L92.63 80.25Q93.63 77.13 87.63 75.13Q81.63 73.13 84 70.63L84 70.63ZM64.25 72L64.25 72Q62.88 72.38 59.13 71.38L59.13 71.38Q55.38 70.38 51.94 69Q48.50 67.63 46.38 66.50L46.38 66.50Q44.25 65.25 46.13 65.25L46.13 65.25Q46.88 65.75 54.88 67.44Q62.88 69.13 65.75 69.63L65.75 69.63Q66.63 69.75 66.13 70.56Q65.63 71.38 64.25 72L64.25 72ZM76.25 32.50L76.25 32.50L70.13 29.25L60.38 35.38L57.25 22.75L51.88 32L43.88 32Q41.38 32 41.19 29.44Q41 26.88 43.25 24.75L43.25 24.75Q47.13 20.50 51.13 16.50Q55.13 12.50 57.50 10L57.50 10Q59.88 7.50 63.56 7.50Q67.25 7.50 69.63 9.88L69.63 9.88L84.25 24.75Q85.25 25.75 85.31 27.38Q85.38 29 84.75 29.63L84.75 29.63L77.50 23.75L76.25 32.50Z"/></svg>