<svg xmlns="http://www.w3.org/2000/svg" xmlns:xlink="http://www.w3.org/1999/xlink" width="128" height="128"><path fill="#000000" d="M35.63 79.75L35.63 79.75Q32.75 79.75 30.56 78.94Q28.38 78.13 26.88 76.38L26.88 76.38Q25.38 74.75 24.63 72.31Q23.88 69.88 23.88 66.75L23.88 66.75Q23.88 63.63 24.63 61.13Q25.38 58.63 27 57L27 57Q28.50 55.25 30.75 54.38Q33 53.50 36 53.50L36 53.50Q38 53.50 39.81 53.88Q41.63 54.25 43.13 55L43.13 55L41.50 59.38Q39.88 58.63 38.44 58.31Q37 58 35.88 58L35.88 58Q32.63 58 31 60.19Q29.38 62.38 29.38 66.75L29.38 66.75Q29.38 68.88 29.81 70.44Q30.25 72 31 73.13L31 73.13Q31.88 74.13 33.06 74.69Q34.25 75.25 35.75 75.25L35.75 75.25Q37.63 75.25 39.31 74.81Q41 74.38 42.63 73.50L42.63 73.50L42.63 78.13Q41.88 78.63 41.13 78.88Q40.38 79.13 39.50 79.38L39.50 79.38Q38.75 79.50 37.75 79.63Q36.75 79.75 35.63 79.75ZM57.38 43.75L57.38 79.25L52 79.25L52 43.75L57.38 43.75ZM66 90.50L66 90.50Q64.75 90.50 63.75 90.38Q62.75 90.25 62 90L62 90L62 85.75Q62.63 85.88 63.44 86Q64.25 86.13 65.13 86.13L65.13 86.13L65.13 86.13Q66.88 86.13 67.75 85.13Q68.63 84.13 68.63 82.25L68.63 82.25L68.63 54L74 54L74 82.63Q74 84.50 73.44 86Q72.88 87.50 71.88 88.50L71.88 88.50Q70.88 89.50 69.38 90Q67.88 90.50 66 90.50L66 90.50ZM68.25 47.25L68.25 47.25Q68.25 46.50 68.44 46Q68.63 45.50 69 45.13L69 45.13Q69.38 44.75 69.94 44.50Q70.50 44.25 71.25 44.25L71.25 44.25Q72 44.25 72.56 44.50Q73.13 44.75 73.50 45.13L73.50 45.13Q73.88 45.50 74.06 46.06Q74.25 46.63 74.25 47.25L74.25 47.25Q74.25 48 74.06 48.50Q73.88 49 73.50 49.50L73.50 49.50Q73.13 49.88 72.56 50.06Q72 50.25 71.25 50.25L71.25 50.25Q70.63 50.25 70 50.06Q69.38 49.88 69 49.50L69 49.50Q68.63 49 68.44 48.50Q68.25 48 68.25 47.25L68.25 47.25ZM102 72.13L102 72.13Q102 74 101.38 75.38Q100.75 76.75 99.38 77.75L99.38 77.75Q98 78.75 96.06 79.25Q94.13 79.75 91.63 79.75L91.63 79.75Q89.13 79.75 87.13 79.38Q85.13 79 83.50 78.25L83.50 78.25L83.50 73.50Q85.75 74.63 87.81 75.13Q89.88 75.63 91.88 75.63L91.88 75.63Q94.25 75.63 95.50 74.88Q96.75 74.13 96.75 72.63L96.75 72.63Q96.75 72.13 96.63 71.75Q96.50 71.38 96.25 71L96.25 71Q96 70.75 95.50 70.38Q95 70 94.38 69.63L94.38 69.63Q93.75 69.38 92.88 69Q92 68.63 90.88 68.13L90.88 68.13Q88.75 67.25 87.25 66.44Q85.75 65.63 85 64.75L85 64.75Q84.25 63.88 83.88 62.81Q83.50 61.75 83.50 60.38L83.50 60.38Q83.50 58.75 84.13 57.50Q84.75 56.25 86.13 55.38L86.13 55.38Q87.38 54.38 89.19 53.94Q91 53.50 93.25 53.50L93.25 53.50Q95.38 53.50 97.50 54Q99.63 54.50 101.63 55.38L101.63 55.38L99.88 59.38Q97.88 58.63 96.13 58.19Q94.38 57.75 93 57.75L93 57.75Q90.88 57.75 89.81 58.31Q88.75 58.88 88.75 60.13L88.75 60.13Q88.75 60.75 89 61.25Q89.25 61.75 89.88 62.13L89.88 62.13Q90.38 62.63 91.63 63.19Q92.88 63.75 94.75 64.38L94.75 64.38Q96.25 65 97.38 65.56Q98.50 66.13 99.25 66.63L99.25 66.63Q100 67.13 100.50 67.69Q101 68.25 101.38 69L101.38 69Q101.75 69.63 101.88 70.38Q102 71.13 102 72.13L102 72.13ZM58.13 124L58.13 117.88Q47.88 117 38.88 112.38L38.88 112.38Q29.88 107.75 23.25 100.56Q16.63 93.38 12.88 84L12.88 84Q9 74.50 9 64L9 64Q9 53.38 12.88 44L12.88 44Q16.63 34.63 23.25 27.38Q29.88 20.13 38.88 15.63L38.88 15.63Q47.88 11 58.13 10.13L58.13 10.13L58.13 4Q46.63 5 36.50 10L36.50 10Q26.50 15 19.06 23.06Q11.63 31.13 7.25 41.63L7.25 41.63Q3 52.13 3 64L3 64Q3 75.88 7.25 86.38L7.25 86.38Q11.63 96.88 19.06 104.94Q26.50 113 36.50 118L36.50 118Q46.63 123 58.13 124L58.13 124ZM67.88 4L67.88 4L67.88 10.13Q78.13 11 87.13 15.63L87.13 15.63Q96.13 20.13 102.75 27.38Q109.38 34.63 113.13 44L113.13 44Q117 53.38 117 64L117 64Q117 74.63 113.13 84L113.13 84Q109.38 93.38 102.75 100.63Q96.13 107.88 87.13 112.38L87.13 112.38Q78.13 117 67.88 117.88L67.88 117.88L67.88 124Q79.38 123 89.50 118L89.50 118Q99.50 113 106.94 104.94Q114.38 96.88 118.75 86.38L118.75 86.38Q123 75.88 123 64L123 64Q123 52.13 118.75 41.63L118.75 41.63Q114.38 31.13 106.94 23.06Q99.50 15 89.50 10L89.50 10Q79.38 5 67.88 4ZM61.13 0.75L61.13 0.75L57.88 1Q45.75 2 35.25 7.38L35.25 7.38Q24.63 12.63 16.81 21.06Q9 29.50 4.50 40.63L4.50 40.63Q0 51.63 0 64L0 64Q0 76.38 4.50 87.38L4.50 87.38Q9 98.50 16.81 106.94Q24.63 115.38 35.25 120.63L35.25 120.63Q45.75 126 57.88 127L57.88 127L61.13 127.25L61.13 115.13L58.50 114.88Q48.75 114 40.25 109.75L40.25 109.75Q31.75 105.38 25.50 98.56Q19.25 91.75 15.63 82.88L15.63 82.88Q12 74 12 64L12 64Q12 54 15.63 45.13L15.63 45.13Q19.25 36.25 25.50 29.44Q31.75 22.63 40.25 18.25L40.25 18.25Q48.75 14 58.50 13.13L58.50 13.13L61.13 12.88L61.13 0.75ZM68.13 1L64.88 0.75L64.88 12.88L67.50 13.13Q77.25 14 85.75 18.25L85.75 18.25Q94.25 22.63 100.50 29.44Q106.75 36.25 110.38 45.13L110.38 45.13Q114 54 114 64L114 64Q114 74 110.38 82.88L110.38 82.88Q106.75 91.75 100.50 98.56Q94.25 105.38 85.75 109.75L85.75 109.75Q77.25 114 67.50 114.88L67.50 114.88L64.88 115.13L64.88 127.25L68.13 127Q80.25 126 90.75 120.63L90.75 120.63Q101.38 115.38 109.19 106.94Q117 98.50 121.50 87.38L121.50 87.38Q126 76.38 126 64L126 64Q126 51.63 121.50 40.63L121.50 40.63Q117 29.50 109.19 21.06Q101.38 12.63 90.75 7.38L90.75 7.38Q80.25 2 68.13 1L68.13 1ZM55.13 7.38L55.13 7.38L55.13 7.50Q44.75 8.88 35.75 13.88L35.75 13.88Q26.88 18.88 20.25 26.38Q13.63 33.88 9.75 43.50L9.75 43.50Q6 53.13 6 64L6 64Q6 74.75 9.75 84.38L9.75 84.38Q13.63 94 20.25 101.56Q26.88 109.13 35.75 114.13L35.75 114.13Q44.75 119 55.13 120.50L55.13 120.50L55.13 120.63Q44.75 119.13 35.75 114.13L35.75 114.13Q26.75 109.25 20.19 101.69Q13.63 94.13 9.75 84.50L9.75 84.50Q6 74.88 6 64L6 64Q6 53.13 9.75 43.50L9.75 43.50Q13.63 33.88 20.19 26.31Q26.75 18.75 35.75 13.88L35.75 13.88Q44.75 8.88 55.13 7.38L55.13 7.38ZM70.88 7.50L70.88 7.38Q81.25 8.88 90.25 13.88L90.25 13.88Q99.25 18.75 105.81 26.31Q112.38 33.88 116.25 43.50L116.25 43.50Q120 53.13 120 64L120 64Q120 74.88 116.25 84.50L116.25 84.50Q112.38 94.13 105.81 101.69Q99.25 109.25 90.25 114.13L90.25 114.13Q81.25 119.13 70.88 120.63L70.88 120.63L70.88 120.50Q81.25 119.13 90.25 114.13L90.25 114.13Q99.13 109.13 105.75 101.63Q112.38 94.13 116.25 84.38L116.25 84.38Q120 74.75 120 64L120 64Q120 53.25 116.25 43.63L116.25 43.63Q112.38 33.88 105.75 26.38Q99.13 18.88 90.25 13.88L90.25 13.88Q81.25 8.88 70.88 7.50L70.88 7.50L70.88 7.50Z"/></svg>