<svg xmlns="http://www.w3.org/2000/svg" xmlns:xlink="http://www.w3.org/1999/xlink" width="128" height="128"><path fill="#000000" d="M81.50 101.13L9.88 36Q9.88 36 9 34.75Q8.13 33.50 10.38 31.75L10.38 31.75L17.38 25.38Q17.38 25.38 18.69 24.56Q20 23.75 21.63 25.13L21.63 25.13L86.38 74.38L86.38 97.88Q86.38 97.88 85.75 99.69Q85.13 101.50 81.50 101.13L81.50 101.13ZM39.88 63.38L26.50 51.25L9.75 66.50Q9.75 66.50 9.06 67.44Q8.38 68.38 9.75 70.13L9.75 70.13L17.50 77.13Q17.50 77.13 18.75 77.88Q20 78.63 22.13 76.88L22.13 76.88L39.88 63.38ZM39.88 39L56 51.25L86.88 27.75L86.75 4.38Q86.75 4.38 85.50 2.19Q84.25 0 81 2L81 2L39.88 39ZM81.63 100.88L81.88 101.13Q83.25 102.50 84.56 102.38Q85.88 102.25 85.88 102.25L85.88 102.25L109.88 90.50Q112.13 88.88 112.31 87.38Q112.50 85.88 112.50 85.88L112.50 85.88L112.50 15.25Q112.50 13 110.94 12.06Q109.38 11.13 109.38 11.13L109.38 11.13L88.50 1.13Q85.13-1 83.06 0.31Q81 1.63 81 1.63L81 1.63Q81 1.63 83.13 0.88Q85.25 0.13 86.63 4.13L86.63 4.13L86.63 97.38Q86.63 97.75 86.56 98.25Q86.50 98.75 86.25 99.13L86.25 99.13Q85.88 100 84.81 100.56Q83.75 101.13 81.63 100.88L81.63 100.88ZM17.25 105.13L14.38 113.50Q14.38 113.50 14.31 113.56Q14.25 113.63 14.25 113.63L14.25 113.63L14.25 113.63Q14.25 113.63 14.19 113.69Q14.13 113.75 14.13 113.75L14.13 113.75L14.13 113.75Q14.13 113.75 14.06 113.75Q14 113.75 13.88 113.75L13.88 113.75Q13.88 113.75 13.75 113.75Q13.63 113.75 13.63 113.75L13.63 113.75Q13.50 113.75 13.44 113.75Q13.38 113.75 13.25 113.75L13.25 113.75L13.25 113.75Q13.25 113.75 13.19 113.75Q13.13 113.75 13.13 113.75L13.13 113.75Q13 113.75 13 113.75Q13 113.75 13 113.75L13 113.75Q12.88 113.75 12.88 113.69Q12.88 113.63 12.88 113.63L12.88 113.63L12.88 113.63Q12.88 113.63 12.81 113.63Q12.75 113.63 12.75 113.63L12.75 113.63L12.75 113.63Q12.75 113.63 12.75 113.56Q12.75 113.50 12.75 113.50L12.75 113.50L12.75 113.50L9.75 105.13Q9.75 105.13 9.75 105.06Q9.75 105 9.75 104.88L9.75 104.88L9.75 104.88Q9.75 104.88 9.75 104.81Q9.75 104.75 9.75 104.75L9.75 104.75Q9.88 104.75 9.94 104.69Q10 104.63 10 104.63L10 104.63L10 104.63Q10.13 104.63 10.19 104.63Q10.25 104.63 10.38 104.63L10.38 104.63Q10.50 104.63 10.56 104.63Q10.63 104.63 10.63 104.63L10.63 104.63Q10.75 104.63 10.81 104.63Q10.88 104.63 10.88 104.75L10.88 104.75Q10.88 104.75 10.88 104.75Q10.88 104.75 11 104.75L11 104.75Q11 104.75 11 104.81Q11 104.88 11 104.88L11 104.88L13.63 112.50L16.13 104.88L16.13 104.75Q16.13 104.75 16.19 104.75Q16.25 104.75 16.25 104.75L16.25 104.75L16.25 104.75Q16.25 104.63 16.31 104.63Q16.38 104.63 16.50 104.63L16.50 104.63Q16.50 104.63 16.50 104.63Q16.50 104.63 16.50 104.63L16.50 104.63L16.50 104.63Q16.50 104.63 16.63 104.63Q16.75 104.63 16.75 104.63L16.75 104.63Q16.88 104.63 17 104.63Q17.13 104.63 17.13 104.63L17.13 104.63L17.13 104.63Q17.25 104.63 17.25 104.69Q17.25 104.75 17.25 104.75L17.25 104.75Q17.38 104.75 17.38 104.81Q17.38 104.88 17.38 104.88L17.38 104.88Q17.38 104.88 17.31 105Q17.25 105.13 17.25 105.13L17.25 105.13L17.25 105.13ZM19.88 107.25L19.88 113.50Q19.88 113.63 19.81 113.63Q19.75 113.63 19.75 113.63L19.75 113.63L19.75 113.63Q19.75 113.63 19.75 113.63Q19.75 113.63 19.75 113.75L19.75 113.75L19.75 113.75Q19.63 113.75 19.63 113.75Q19.63 113.75 19.50 113.75L19.50 113.75L19.50 113.75Q19.50 113.75 19.44 113.75Q19.38 113.75 19.25 113.75L19.25 113.75Q19.13 113.75 19.06 113.75Q19 113.75 19 113.75L19 113.75L19 113.75Q18.88 113.75 18.88 113.75Q18.88 113.75 18.75 113.75L18.75 113.75L18.75 113.75Q18.75 113.63 18.75 113.63Q18.75 113.63 18.63 113.63L18.63 113.63L18.63 113.63Q18.63 113.63 18.63 113.63Q18.63 113.63 18.63 113.50L18.63 113.50Q18.63 113.50 18.63 113.50Q18.63 113.50 18.63 113.50L18.63 113.50L18.63 113.50L18.63 107.25Q18.63 107.25 18.63 107.25Q18.63 107.25 18.63 107.25L18.63 107.25Q18.63 107.25 18.63 107.25Q18.63 107.25 18.63 107.13L18.63 107.13L18.63 107.13Q18.75 107.13 18.75 107.13Q18.75 107.13 18.75 107.13L18.75 107.13L18.75 107.13Q18.88 107.13 18.88 107.13Q18.88 107.13 19 107L19 107L19 107Q19 107 19.06 107Q19.13 107 19.25 107L19.25 107Q19.38 107 19.44 107Q19.50 107 19.50 107L19.50 107L19.50 107Q19.63 107.13 19.63 107.13Q19.63 107.13 19.75 107.13L19.75 107.13Q19.75 107.13 19.75 107.13Q19.75 107.13 19.75 107.13L19.75 107.13Q19.75 107.25 19.81 107.25Q19.88 107.25 19.88 107.25L19.88 107.25ZM20 105.13L20 105.13Q20 105.38 19.94 105.50Q19.88 105.63 19.75 105.75L19.75 105.75Q19.75 105.75 19.63 105.81Q19.50 105.88 19.25 105.88L19.25 105.88Q19 105.88 18.88 105.81Q18.75 105.75 18.63 105.75L18.63 105.75Q18.63 105.63 18.56 105.50Q18.50 105.38 18.50 105.13L18.50 105.13Q18.50 105 18.56 104.88Q18.63 104.75 18.63 104.63L18.63 104.63Q18.75 104.50 18.88 104.50Q19 104.50 19.25 104.50L19.25 104.50Q19.50 104.50 19.63 104.50Q19.75 104.50 19.75 104.63L19.75 104.63Q19.88 104.63 19.94 104.81Q20 105 20 105.13L20 105.13ZM25.88 111.88L25.88 111.88Q25.88 112.13 25.81 112.31Q25.75 112.50 25.75 112.63L25.75 112.63Q25.63 112.88 25.50 113.06Q25.38 113.25 25.25 113.38L25.25 113.38Q25 113.50 24.81 113.56Q24.63 113.63 24.38 113.75L24.38 113.75Q24.25 113.75 24 113.81Q23.75 113.88 23.50 113.88L23.50 113.88Q23.50 113.88 23.44 113.88Q23.38 113.88 23.38 113.88L23.38 113.88L23.38 113.88Q23.38 113.88 23.38 113.88Q23.38 113.88 23.38 113.88L23.38 113.88Q23.13 113.88 22.81 113.81Q22.50 113.75 22.25 113.63L22.25 113.63L22.25 113.63Q22 113.63 21.88 113.56Q21.75 113.50 21.63 113.38L21.63 113.38L21.63 113.38Q21.50 113.25 21.50 113.25Q21.50 113.25 21.50 113.13L21.50 113.13L21.50 113.13Q21.50 113.13 21.50 113Q21.50 112.88 21.50 112.88L21.50 112.88Q21.50 112.88 21.50 112.88Q21.50 112.88 21.50 112.75L21.50 112.75L21.50 112.75Q21.50 112.75 21.50 112.75Q21.50 112.75 21.50 112.75L21.50 112.75Q21.50 112.63 21.50 112.56Q21.50 112.50 21.50 112.38L21.50 112.38L21.50 112.38Q21.50 112.38 21.50 112.38Q21.50 112.38 21.50 112.38L21.50 112.38Q21.63 112.38 21.63 112.38Q21.63 112.38 21.63 112.38L21.63 112.38L21.63 112.38Q21.63 112.38 21.69 112.38Q21.75 112.38 21.88 112.38L21.88 112.38Q22 112.50 22.06 112.56Q22.13 112.63 22.25 112.63L22.25 112.63Q22.38 112.75 22.50 112.75Q22.63 112.75 22.75 112.88L22.75 112.88L22.75 112.88Q22.88 112.88 23.06 112.88Q23.25 112.88 23.50 112.88L23.50 112.88Q23.63 112.88 23.75 112.88Q23.88 112.88 24 112.88L24 112.88Q24.13 112.88 24.19 112.81Q24.25 112.75 24.38 112.63L24.38 112.63Q24.50 112.63 24.56 112.56Q24.63 112.50 24.63 112.38L24.63 112.38L24.63 112.38Q24.75 112.25 24.75 112.13Q24.75 112 24.75 112L24.75 112Q24.75 111.88 24.75 111.88Q24.75 111.88 24.75 111.88L24.75 111.88L24.75 111.88Q24.75 111.88 24.75 111.88Q24.75 111.88 24.75 111.88L24.75 111.88Q24.75 111.75 24.69 111.63Q24.63 111.50 24.63 111.50L24.63 111.50L24.63 111.50Q24.50 111.38 24.44 111.31Q24.38 111.25 24.25 111.13L24.25 111.13L24.25 111.13Q24.13 111.13 24 111.06Q23.88 111 23.75 110.88L23.75 110.88L23.75 110.88L23.13 110.63Q23 110.63 22.88 110.56Q22.75 110.50 22.50 110.38L22.50 110.38L22.63 110.38Q22.50 110.38 22.38 110.25Q22.25 110.13 22.13 110L22.13 110L22.13 110Q22 109.88 21.88 109.75Q21.75 109.63 21.75 109.50L21.75 109.50L21.75 109.50Q21.63 109.38 21.63 109.19Q21.63 109 21.63 108.88L21.63 108.88Q21.63 108.88 21.63 108.88Q21.63 108.88 21.63 108.75L21.63 108.75L21.63 108.75Q21.63 108.63 21.63 108.44Q21.63 108.25 21.75 108.13L21.75 108.13Q21.88 107.88 21.94 107.75Q22 107.63 22.13 107.50L22.13 107.50L22.13 107.50Q22.25 107.38 22.44 107.25Q22.63 107.13 22.88 107.13L22.88 107.13Q23.13 107 23.38 107Q23.63 107 23.88 107L23.88 107Q24 107 24.13 107Q24.25 107 24.38 107L24.38 107L24.38 107Q24.50 107 24.63 107Q24.75 107 24.88 107.13L24.88 107.13Q24.88 107.13 25 107.19Q25.13 107.25 25.13 107.25L25.13 107.25Q25.25 107.25 25.31 107.31Q25.38 107.38 25.38 107.38L25.38 107.38Q25.38 107.38 25.44 107.44Q25.50 107.50 25.50 107.50L25.50 107.50Q25.50 107.50 25.50 107.50Q25.50 107.50 25.50 107.50L25.50 107.50Q25.50 107.63 25.50 107.63Q25.50 107.63 25.50 107.63L25.50 107.63L25.50 107.63Q25.63 107.75 25.63 107.81Q25.63 107.88 25.63 107.88L25.63 107.88Q25.63 108 25.56 108Q25.50 108 25.50 108.13L25.50 108.13L25.50 108.13Q25.50 108.13 25.50 108.13Q25.50 108.13 25.50 108.13L25.50 108.13Q25.50 108.13 25.50 108.19Q25.50 108.25 25.50 108.25L25.50 108.25L25.50 108.25Q25.50 108.25 25.50 108.25Q25.50 108.25 25.50 108.25L25.50 108.25Q25.50 108.38 25.44 108.38Q25.38 108.38 25.38 108.38L25.38 108.38Q25.38 108.38 25.38 108.38Q25.38 108.38 25.38 108.38L25.38 108.38L25.38 108.38Q25.38 108.38 25.31 108.31Q25.25 108.25 25.25 108.25L25.25 108.25Q25.13 108.25 25.06 108.19Q25 108.13 24.88 108.13L24.88 108.13L24.88 108.13Q24.75 108 24.69 108Q24.63 108 24.50 107.88L24.50 107.88L24.50 107.88Q24.38 107.88 24.19 107.88Q24 107.88 23.88 107.88L23.88 107.88Q23.88 107.88 23.88 107.88Q23.88 107.88 23.88 107.88L23.88 107.88L23.88 107.88Q23.88 107.88 23.88 107.88Q23.88 107.88 23.88 107.88L23.88 107.88Q23.75 107.88 23.63 107.88Q23.50 107.88 23.38 107.88L23.38 107.88L23.38 107.88Q23.25 108 23.19 108Q23.13 108 23 108.13L23 108.13L23 108.13Q22.88 108.25 22.81 108.38Q22.75 108.50 22.75 108.75L22.75 108.75Q22.75 108.75 22.75 108.75Q22.75 108.75 22.75 108.75L22.75 108.75L22.75 108.75Q22.75 108.75 22.75 108.75Q22.75 108.75 22.75 108.75L22.75 108.75Q22.75 108.88 22.75 109Q22.75 109.13 22.88 109.25L22.88 109.25L22.88 109.25Q22.88 109.25 23 109.38Q23.13 109.50 23.25 109.50L23.25 109.50Q23.38 109.63 23.50 109.69Q23.63 109.75 23.75 109.75L23.75 109.75Q24.13 109.88 24.38 110Q24.63 110.13 25 110.25L25 110.25L24.88 110.25Q25 110.38 25.13 110.44Q25.25 110.50 25.38 110.63L25.38 110.63Q25.50 110.75 25.56 110.88Q25.63 111 25.75 111.13L25.75 111.13Q25.88 111.25 25.88 111.44Q25.88 111.63 25.88 111.88L25.88 111.88ZM32.88 107.25L32.88 113.50Q32.88 113.63 32.88 113.63Q32.88 113.63 32.88 113.63L32.88 113.63L32.88 113.63Q32.88 113.63 32.88 113.63Q32.88 113.63 32.75 113.75L32.75 113.75Q32.75 113.75 32.69 113.75Q32.63 113.75 32.63 113.75L32.63 113.75L32.63 113.75Q32.63 113.75 32.56 113.75Q32.50 113.75 32.38 113.75L32.38 113.75Q32.38 113.75 32.25 113.75Q32.13 113.75 32.13 113.75L32.13 113.75Q32.13 113.75 32.06 113.75Q32 113.75 32 113.75L32 113.75L32 113.75Q32 113.63 31.94 113.63Q31.88 113.63 31.88 113.63L31.88 113.63L31.88 113.63Q31.88 113.63 31.88 113.63Q31.88 113.63 31.88 113.50L31.88 113.50Q31.88 113.50 31.88 113.50Q31.88 113.50 31.88 113.50L31.88 113.50L31.88 113.50L31.88 112.75Q31.63 113 31.38 113.25Q31.13 113.50 30.75 113.63L30.75 113.63Q30.63 113.75 30.31 113.81Q30 113.88 29.75 113.88L29.75 113.88L29.75 113.88Q29.50 113.88 29.19 113.81Q28.88 113.75 28.75 113.63L28.75 113.63Q28.50 113.50 28.31 113.38Q28.13 113.25 28 113.13L28 113.13L28 113.13Q27.88 112.88 27.75 112.69Q27.63 112.50 27.63 112.25L27.63 112.25L27.63 112.25Q27.50 112 27.50 111.75Q27.50 111.50 27.50 111.13L27.50 111.13Q27.50 111.13 27.50 111.13Q27.50 111.13 27.50 111.13L27.50 111.13L27.50 111.13L27.50 107.25Q27.50 107.25 27.50 107.25Q27.50 107.25 27.50 107.25L27.50 107.25Q27.50 107.25 27.50 107.25Q27.50 107.25 27.50 107.13L27.50 107.13L27.50 107.13Q27.50 107.13 27.56 107.13Q27.63 107.13 27.63 107.13L27.63 107.13L27.63 107.13Q27.63 107.13 27.69 107.13Q27.75 107.13 27.75 107L27.75 107L27.75 107Q27.88 107 27.94 107Q28 107 28.13 107L28.13 107Q28.13 107 28.19 107Q28.25 107 28.38 107L28.38 107L28.38 107Q28.38 107.13 28.44 107.13Q28.50 107.13 28.50 107.13L28.50 107.13Q28.63 107.13 28.63 107.13Q28.63 107.13 28.63 107.13L28.63 107.13Q28.63 107.25 28.63 107.25Q28.63 107.25 28.63 107.25L28.63 107.25L28.63 110.88Q28.63 111.25 28.69 111.44Q28.75 111.63 28.75 111.75L28.75 111.75Q28.75 112 28.81 112.13Q28.88 112.25 29 112.38L29 112.38Q29 112.50 29.13 112.56Q29.25 112.63 29.38 112.75L29.38 112.75Q29.50 112.75 29.69 112.81Q29.88 112.88 30 112.88L30 112.88Q30.25 112.88 30.44 112.81Q30.63 112.75 30.88 112.50L30.88 112.50Q31 112.38 31.25 112.19Q31.50 112 31.75 111.63L31.75 111.63L31.75 107.25Q31.75 107.25 31.75 107.25Q31.75 107.25 31.75 107.25L31.75 107.25Q31.75 107.25 31.75 107.25Q31.75 107.25 31.75 107.13L31.75 107.13L31.75 107.13Q31.75 107.13 31.81 107.13Q31.88 107.13 31.88 107.13L31.88 107.13L31.88 107.13Q31.88 107.13 31.94 107.13Q32 107.13 32 107L32 107L32 107Q32.13 107 32.19 107Q32.25 107 32.38 107L32.38 107Q32.38 107 32.44 107Q32.50 107 32.63 107L32.63 107L32.63 107Q32.63 107.13 32.69 107.13Q32.75 107.13 32.75 107.13L32.75 107.13Q32.88 107.13 32.88 107.13Q32.88 107.13 32.88 107.13L32.88 107.13Q32.88 107.25 32.88 107.25Q32.88 107.25 32.88 107.25L32.88 107.25ZM39.75 109.25L39.75 113.50Q39.75 113.63 39.75 113.63Q39.75 113.63 39.75 113.63L39.75 113.63Q39.63 113.75 39.63 113.75Q39.63 113.75 39.50 113.75L39.50 113.75L39.50 113.75Q39.50 113.75 39.44 113.75Q39.38 113.75 39.25 113.75L39.25 113.75Q39.25 113.75 39.25 113.75Q39.25 113.75 39.25 113.75L39.25 113.75L39.25 113.75Q39.25 113.75 39.25 113.75Q39.25 113.75 39.25 113.75L39.25 113.75Q39.13 113.75 39.06 113.75Q39 113.75 39 113.75L39 113.75L39 113.75Q39 113.75 38.94 113.75Q38.88 113.75 38.88 113.63L38.88 113.63L38.88 113.63Q38.75 113.63 38.75 113.63Q38.75 113.63 38.75 113.50L38.75 113.50L38.75 112.88Q38.63 113.13 38.38 113.31Q38.13 113.50 37.88 113.63L37.88 113.63L37.88 113.63Q37.63 113.75 37.38 113.81Q37.13 113.88 36.75 113.88L36.75 113.88Q36.75 113.88 36.75 113.88Q36.75 113.88 36.75 113.88L36.75 113.88L36.75 113.88Q36.50 113.88 36.31 113.81Q36.13 113.75 35.88 113.75L35.88 113.75Q35.75 113.63 35.56 113.56Q35.38 113.50 35.25 113.38L35.25 113.38L35.25 113.38Q35.13 113.25 35 113.06Q34.88 112.88 34.75 112.75L34.75 112.75L34.75 112.75Q34.75 112.63 34.69 112.38Q34.63 112.13 34.63 112L34.63 112Q34.63 112 34.63 112Q34.63 112 34.63 111.88L34.63 111.88L34.63 111.88Q34.63 111.63 34.69 111.44Q34.75 111.25 34.88 111L34.88 111Q35 110.88 35.13 110.69Q35.25 110.50 35.50 110.38L35.50 110.38Q35.63 110.25 35.88 110.13Q36.13 110 36.38 110L36.38 110L36.38 110Q36.75 109.88 37.06 109.88Q37.38 109.88 37.75 109.88L37.75 109.88Q37.75 109.88 37.75 109.88Q37.75 109.88 37.75 109.88L37.75 109.88L38.63 109.88L38.63 109.38Q38.63 109.13 38.63 109Q38.63 108.88 38.50 108.75L38.50 108.75Q38.50 108.63 38.44 108.50Q38.38 108.38 38.25 108.25L38.25 108.25L38.25 108.25Q38.25 108.13 38.13 108.06Q38 108 37.88 108L37.88 108L37.88 108Q37.75 107.88 37.56 107.88Q37.38 107.88 37.25 107.88L37.25 107.88Q37.25 107.88 37.25 107.88Q37.25 107.88 37.25 107.88L37.25 107.88L37.25 107.88Q37 107.88 36.81 107.94Q36.63 108 36.38 108L36.38 108Q36.25 108 36.13 108.06Q36 108.13 35.88 108.25L35.88 108.25Q35.75 108.25 35.63 108.31Q35.50 108.38 35.38 108.50L35.38 108.50L35.38 108.38Q35.38 108.50 35.31 108.50Q35.25 108.50 35.13 108.50L35.13 108.50Q35.13 108.50 35.13 108.50Q35.13 108.50 35.13 108.50L35.13 108.50Q35.13 108.50 35.13 108.50Q35.13 108.50 35 108.50L35 108.50L35 108.50Q35 108.50 35 108.50Q35 108.50 35 108.38L35 108.38L35 108.38Q35 108.38 34.94 108.38Q34.88 108.38 34.88 108.25L34.88 108.25L34.88 108.25L34.88 108.13Q34.88 108 34.88 107.94Q34.88 107.88 35 107.88L35 107.88Q35 107.75 35 107.69Q35 107.63 35.13 107.63L35.13 107.63Q35.13 107.50 35.19 107.50Q35.25 107.50 35.38 107.38L35.38 107.38L35.38 107.38Q35.50 107.38 35.63 107.31Q35.75 107.25 35.88 107.25L35.88 107.25Q36 107.13 36.19 107.06Q36.38 107 36.50 107L36.50 107L36.63 107Q36.75 107 36.94 107Q37.13 107 37.25 107L37.25 107Q37.63 107 37.94 107Q38.25 107 38.50 107.13L38.50 107.13Q38.63 107.13 38.81 107.25Q39 107.38 39.25 107.50L39.25 107.50Q39.38 107.75 39.50 107.94Q39.63 108.13 39.63 108.25L39.63 108.25Q39.75 108.50 39.75 108.75Q39.75 109 39.75 109.25L39.75 109.25ZM38.63 112L38.63 110.63L37.63 110.63Q37.38 110.63 37.19 110.69Q37 110.75 36.88 110.75L36.88 110.75Q36.63 110.75 36.50 110.81Q36.38 110.88 36.25 111L36.25 111Q36.13 111.13 36.06 111.19Q36 111.25 35.88 111.38L35.88 111.38L35.88 111.38Q35.88 111.50 35.81 111.63Q35.75 111.75 35.75 111.88L35.75 111.88Q35.75 112.13 35.88 112.31Q36 112.50 36.13 112.63L36.13 112.63Q36.25 112.75 36.50 112.88Q36.75 113 37 113L37 113Q37.25 113 37.44 112.94Q37.63 112.88 37.75 112.75L37.75 112.75Q38 112.50 38.25 112.38Q38.50 112.25 38.63 112L38.63 112L38.63 112ZM43 104.25L43 113.50Q43 113.63 43 113.63Q43 113.63 43 113.63L43 113.63L43 113.63Q43 113.63 43 113.63Q43 113.63 42.88 113.75L42.88 113.75L42.88 113.75Q42.88 113.75 42.81 113.75Q42.75 113.75 42.75 113.75L42.75 113.75L42.75 113.75Q42.63 113.75 42.56 113.75Q42.50 113.75 42.50 113.75L42.50 113.75Q42.38 113.75 42.31 113.75Q42.25 113.75 42.13 113.75L42.13 113.75L42.13 113.75Q42.13 113.75 42.06 113.75Q42 113.75 42 113.75L42 113.75L42 113.75Q42 113.63 41.94 113.63Q41.88 113.63 41.88 113.63L41.88 113.63L41.88 113.63Q41.88 113.63 41.88 113.63Q41.88 113.63 41.88 113.50L41.88 113.50Q41.88 113.50 41.88 113.50Q41.88 113.50 41.88 113.50L41.88 113.50L41.88 113.50L41.88 104.25Q41.88 104.25 41.88 104.19Q41.88 104.13 41.88 104.13L41.88 104.13Q41.88 104.13 41.94 104.13Q42 104.13 42 104L42 104L42 104Q42 104 42.06 104Q42.13 104 42.13 104L42.13 104L42.13 104Q42.25 104 42.31 104Q42.38 104 42.50 104L42.50 104Q42.50 104 42.56 104Q42.63 104 42.75 104L42.75 104L42.75 104Q42.75 104 42.81 104Q42.88 104 42.88 104L42.88 104L42.88 104Q43 104.13 43 104.13Q43 104.13 43 104.13L43 104.13Q43 104.13 43 104.19Q43 104.25 43 104.25L43 104.25ZM50.13 111.13L50.13 111.13Q50.13 111.50 50.06 111.81Q50 112.13 49.88 112.38L49.88 112.38Q49.75 112.63 49.63 112.81Q49.50 113 49.25 113.13L49.25 113.13L49.25 113.13Q49 113.38 48.81 113.50Q48.63 113.63 48.25 113.63L48.25 113.63Q48 113.75 47.69 113.81Q47.38 113.88 47.13 113.88L47.13 113.88Q47.13 113.88 47.13 113.88Q47.13 113.88 47.13 113.88L47.13 113.88L47.13 113.88Q47.13 113.88 47.13 113.88Q47.13 113.88 47 113.88L47 113.88Q46.88 113.88 46.63 113.81Q46.38 113.75 46.25 113.75L46.25 113.75L46.25 113.75Q46 113.75 45.81 113.69Q45.63 113.63 45.50 113.63L45.50 113.63L45.50 113.63Q45.38 113.50 45.25 113.44Q45.13 113.38 45 113.38L45 113.38L45 113.38Q45 113.25 44.94 113.25Q44.88 113.25 44.75 113.13L44.75 113.13L44.75 113.13Q44.75 113.13 44.69 113.06Q44.63 113 44.63 112.88L44.63 112.88L44.63 112.88Q44.63 112.88 44.63 112.81Q44.63 112.75 44.63 112.63L44.63 112.63Q44.63 112.63 44.63 112.63Q44.63 112.63 44.63 112.63L44.63 112.63L44.63 112.63L44.63 112.38Q44.63 112.25 44.63 112.25Q44.63 112.25 44.63 112.13L44.63 112.13L44.63 112.13Q44.63 112.13 44.69 112.13Q44.75 112.13 44.75 112.13L44.75 112.13Q44.75 112.13 44.75 112.06Q44.75 112 44.88 112L44.88 112Q44.88 112 44.88 112Q44.88 112 44.88 112L44.88 112L44.88 112Q44.88 112 44.94 112.06Q45 112.13 45.13 112.13L45.13 112.13Q45.13 112.25 45.25 112.31Q45.38 112.38 45.50 112.38L45.50 112.38Q45.75 112.50 45.88 112.56Q46 112.63 46.25 112.75L46.25 112.75Q46.38 112.75 46.63 112.81Q46.88 112.88 47.13 112.88L47.13 112.88Q47.38 112.88 47.50 112.81Q47.63 112.75 47.88 112.75L47.88 112.75Q48 112.63 48.13 112.56Q48.25 112.50 48.38 112.38L48.38 112.38Q48.50 112.38 48.63 112.25Q48.75 112.13 48.75 112L48.75 112Q48.88 111.75 48.88 111.63Q48.88 111.50 48.88 111.25L48.88 111.25Q48.88 111.13 48.81 110.94Q48.75 110.75 48.75 110.63L48.75 110.63Q48.63 110.50 48.50 110.38Q48.38 110.25 48.25 110.13L48.25 110.13L48.25 110.13Q48.13 110.13 47.94 110Q47.75 109.88 47.63 109.88L47.63 109.88L47.63 109.75Q47.38 109.75 47.19 109.63Q47 109.50 46.88 109.50L46.88 109.50Q46.63 109.38 46.44 109.25Q46.25 109.13 46.13 109L46.13 109Q45.88 109 45.75 108.88Q45.63 108.75 45.50 108.50L45.50 108.50L45.50 108.50Q45.38 108.38 45.25 108.25Q45.13 108.13 45 107.88L45 107.88L45 107.88Q44.88 107.63 44.88 107.44Q44.88 107.25 44.88 106.88L44.88 106.88Q44.88 106.63 44.88 106.38Q44.88 106.13 45 105.88L45 105.88Q45.13 105.75 45.25 105.56Q45.38 105.38 45.63 105.13L45.63 105.13Q45.75 105 46 104.88Q46.25 104.75 46.50 104.75L46.50 104.75Q46.75 104.63 47 104.56Q47.25 104.50 47.50 104.50L47.50 104.50Q47.50 104.50 47.50 104.50Q47.50 104.50 47.50 104.50L47.50 104.50L47.50 104.50Q47.75 104.50 47.88 104.56Q48 104.63 48.13 104.63L48.13 104.63Q48.25 104.63 48.44 104.69Q48.63 104.75 48.75 104.75L48.75 104.75Q48.88 104.75 49 104.81Q49.13 104.88 49.25 105L49.25 105Q49.38 105 49.44 105.06Q49.50 105.13 49.50 105.13L49.50 105.13Q49.50 105.13 49.50 105.19Q49.50 105.25 49.63 105.25L49.63 105.25L49.63 105.25Q49.63 105.25 49.63 105.25Q49.63 105.25 49.63 105.38L49.63 105.38Q49.63 105.38 49.63 105.38Q49.63 105.38 49.63 105.50L49.63 105.50Q49.63 105.50 49.63 105.56Q49.63 105.63 49.63 105.63L49.63 105.63Q49.63 105.75 49.63 105.81Q49.63 105.88 49.63 105.88L49.63 105.88L49.63 105.88Q49.63 106 49.63 106Q49.63 106 49.63 106.13L49.63 106.13L49.63 106.13Q49.63 106.13 49.56 106.13Q49.50 106.13 49.50 106.13L49.50 106.13L49.50 106.13Q49.50 106.13 49.50 106.19Q49.50 106.25 49.50 106.25L49.50 106.25Q49.50 106.25 49.50 106.25Q49.50 106.25 49.50 106.25L49.50 106.25L49.50 106.25Q49.38 106.25 49.31 106.19Q49.25 106.13 49.25 106.13L49.25 106.13Q49.13 106 49 106Q48.88 106 48.88 105.88L48.88 105.88L48.75 105.88Q48.63 105.88 48.50 105.81Q48.38 105.75 48.25 105.63L48.25 105.63L48.25 105.63Q48.13 105.63 47.94 105.56Q47.75 105.50 47.50 105.50L47.50 105.50Q47.38 105.50 47.19 105.56Q47 105.63 46.88 105.63L46.88 105.63Q46.75 105.75 46.63 105.81Q46.50 105.88 46.38 105.88L46.38 105.88L46.38 105.88Q46.25 106 46.19 106.13Q46.13 106.25 46.13 106.38L46.13 106.38L46.13 106.38Q46.13 106.50 46.06 106.56Q46 106.63 46 106.75L46 106.75Q46 107 46.06 107.19Q46.13 107.38 46.25 107.50L46.25 107.50Q46.25 107.63 46.38 107.75Q46.50 107.88 46.63 108L46.63 108Q46.75 108 46.94 108.13Q47.13 108.25 47.38 108.38L47.38 108.38Q47.50 108.38 47.69 108.50Q47.88 108.63 48.13 108.63L48.13 108.63Q48.25 108.75 48.44 108.88Q48.63 109 48.88 109.13L48.88 109.13Q49 109.13 49.19 109.25Q49.38 109.38 49.50 109.63L49.50 109.63L49.50 109.63Q49.63 109.75 49.75 109.88Q49.88 110 50 110.25L50 110.25Q50 110.50 50.06 110.69Q50.13 110.88 50.13 111.13L50.13 111.13ZM53.38 111.13L53.38 111.13Q53.38 111.50 53.31 111.81Q53.25 112.13 53.13 112.38L53.13 112.38Q53 112.63 52.88 112.81Q52.75 113 52.50 113.13L52.50 113.13L52.50 113.13Q52.25 113.38 52 113.50Q51.75 113.63 51.50 113.63L51.50 113.63Q51.25 113.75 50.94 113.81Q50.63 113.88 50.38 113.88L50.38 113.88Q50.38 113.88 50.38 113.88Q50.38 113.88 50.38 113.88L50.38 113.88L50.38 113.88Q50.25 113.88 50.25 113.88Q50.25 113.88 50.25 113.88L50.25 113.88Q50.13 113.88 49.88 113.81Q49.63 113.75 49.50 113.75L49.50 113.75L49.50 113.75Q49.25 113.75 49.06 113.69Q48.88 113.63 48.75 113.63L48.75 113.63L48.75 113.63Q48.63 113.50 48.50 113.44Q48.38 113.38 48.25 113.38L48.25 113.38L48.25 113.38Q48.25 113.25 48.13 113.25Q48 113.25 48 113.13L48 113.13L48 113.13Q48 113.13 47.94 113.06Q47.88 113 47.88 112.88L47.88 112.88L47.88 112.88Q47.88 112.88 47.88 112.81Q47.88 112.75 47.88 112.63L47.88 112.63Q47.88 112.63 47.88 112.63Q47.88 112.63 47.88 112.63L47.88 112.63L47.88 112.63L47.88 112.38Q47.88 112.25 47.88 112.25Q47.88 112.25 47.88 112.13L47.88 112.13L47.88 112.13Q47.88 112.13 47.88 112.13Q47.88 112.13 48 112.13L48 112.13Q48 112.13 48 112.06Q48 112 48 112L48 112Q48 112 48 112Q48 112 48 112L48 112L48 112Q48.13 112 48.19 112.06Q48.25 112.13 48.38 112.13L48.38 112.13Q48.38 112.25 48.50 112.31Q48.63 112.38 48.75 112.38L48.75 112.38Q48.88 112.50 49.06 112.56Q49.25 112.63 49.50 112.75L49.50 112.75Q49.63 112.75 49.88 112.81Q50.13 112.88 50.38 112.88L50.38 112.88Q50.50 112.88 50.69 112.81Q50.88 112.75 51.13 112.75L51.13 112.75Q51.25 112.63 51.38 112.56Q51.50 112.50 51.63 112.38L51.63 112.38Q51.75 112.38 51.88 112.25Q52 112.13 52 112L52 112Q52.13 111.75 52.13 111.63Q52.13 111.50 52.13 111.25L52.13 111.25Q52.13 111.13 52.06 110.94Q52 110.75 52 110.63L52 110.63Q51.88 110.50 51.75 110.38Q51.63 110.25 51.50 110.13L51.50 110.13L51.50 110.13Q51.38 110.13 51.19 110Q51 109.88 50.88 109.88L50.88 109.88L50.88 109.75Q50.63 109.75 50.44 109.63Q50.25 109.50 50.13 109.50L50.13 109.50Q49.88 109.38 49.69 109.25Q49.50 109.13 49.38 109L49.38 109Q49.13 109 49 108.88Q48.88 108.75 48.75 108.50L48.75 108.50L48.75 108.50Q48.50 108.38 48.44 108.25Q48.38 108.13 48.25 107.88L48.25 107.88L48.25 107.88Q48.13 107.63 48.06 107.44Q48 107.25 48 106.88L48 106.88Q48 106.63 48.06 106.38Q48.13 106.13 48.25 105.88L48.25 105.88Q48.38 105.75 48.50 105.56Q48.63 105.38 48.88 105.13L48.88 105.13Q49 105 49.25 104.88Q49.50 104.75 49.75 104.75L49.75 104.75Q49.88 104.63 50.19 104.56Q50.50 104.50 50.75 104.50L50.75 104.50Q50.75 104.50 50.75 104.50Q50.75 104.50 50.75 104.50L50.75 104.50L50.75 104.50Q51 104.50 51.13 104.56Q51.25 104.63 51.38 104.63L51.38 104.63Q51.50 104.63 51.69 104.69Q51.88 104.75 52 104.75L52 104.75Q52.13 104.75 52.25 104.81Q52.38 104.88 52.50 105L52.50 105Q52.50 105 52.63 105.06Q52.75 105.13 52.75 105.13L52.75 105.13Q52.75 105.13 52.75 105.19Q52.75 105.25 52.75 105.25L52.75 105.25L52.75 105.25Q52.88 105.25 52.88 105.25Q52.88 105.25 52.88 105.38L52.88 105.38Q52.88 105.38 52.88 105.38Q52.88 105.38 52.88 105.50L52.88 105.50Q52.88 105.50 52.88 105.56Q52.88 105.63 52.88 105.63L52.88 105.63Q52.88 105.75 52.88 105.81Q52.88 105.88 52.88 105.88L52.88 105.88L52.88 105.88Q52.88 106 52.88 106Q52.88 106 52.88 106.13L52.88 106.13L52.88 106.13Q52.75 106.13 52.75 106.13Q52.75 106.13 52.75 106.13L52.75 106.13L52.75 106.13Q52.75 106.13 52.75 106.19Q52.75 106.25 52.63 106.25L52.63 106.25Q52.63 106.25 52.63 106.25Q52.63 106.25 52.63 106.25L52.63 106.25L52.63 106.25Q52.63 106.25 52.56 106.19Q52.50 106.13 52.38 106.13L52.38 106.13Q52.38 106 52.25 106Q52.13 106 52 105.88L52 105.88L52 105.88Q51.88 105.88 51.75 105.81Q51.63 105.75 51.50 105.63L51.50 105.63L51.50 105.63Q51.38 105.63 51.19 105.56Q51 105.50 50.75 105.50L50.75 105.50Q50.63 105.50 50.44 105.56Q50.25 105.63 50.13 105.63L50.13 105.63Q50 105.75 49.88 105.81Q49.75 105.88 49.63 105.88L49.63 105.88L49.63 105.88Q49.50 106 49.44 106.13Q49.38 106.25 49.38 106.38L49.38 106.38L49.38 106.38Q49.38 106.50 49.31 106.56Q49.25 106.63 49.25 106.75L49.25 106.75Q49.25 107 49.31 107.19Q49.38 107.38 49.50 107.50L49.50 107.50Q49.50 107.63 49.63 107.75Q49.75 107.88 49.88 108L49.88 108Q50 108 50.19 108.13Q50.38 108.25 50.63 108.38L50.63 108.38Q50.75 108.38 50.94 108.50Q51.13 108.63 51.38 108.63L51.38 108.63Q51.50 108.75 51.69 108.88Q51.88 109 52.13 109.13L52.13 109.13Q52.25 109.13 52.44 109.25Q52.63 109.38 52.75 109.63L52.75 109.63L52.75 109.63Q52.88 109.75 53 109.88Q53.13 110 53.25 110.25L53.25 110.25Q53.25 110.50 53.31 110.69Q53.38 110.88 53.38 111.13L53.38 111.13ZM58.25 113.13L58.25 113.13Q58.25 113.13 58.25 113.25Q58.25 113.38 58.25 113.38L58.25 113.38Q58.25 113.50 58.19 113.50Q58.13 113.50 58.13 113.63L58.13 113.63L58.13 113.63Q58.13 113.63 58.06 113.63Q58 113.63 58 113.63L58 113.63L58 113.63Q57.88 113.75 57.81 113.75Q57.75 113.75 57.75 113.75L57.75 113.75L57.75 113.75Q57.63 113.75 57.56 113.75Q57.50 113.75 57.38 113.75L57.38 113.75Q57.25 113.88 57.19 113.88Q57.13 113.88 57.13 113.88L57.13 113.88L57.13 113.88Q56.88 113.88 56.63 113.81Q56.38 113.75 56.25 113.75L56.25 113.75Q56 113.63 55.88 113.56Q55.75 113.50 55.63 113.38L55.63 113.38L55.63 113.38Q55.50 113.13 55.44 113Q55.38 112.88 55.38 112.63L55.38 112.63L55.38 112.63Q55.25 112.50 55.25 112.25Q55.25 112 55.25 111.75L55.25 111.75Q55.25 111.75 55.25 111.75Q55.25 111.75 55.25 111.75L55.25 111.75L55.25 111.75L55.25 108L54.38 108Q54.25 108 54.25 108Q54.25 108 54.25 107.88L54.25 107.88Q54.13 107.88 54.13 107.75Q54.13 107.63 54.13 107.50L54.13 107.50Q54.13 107.50 54.13 107.44Q54.13 107.38 54.13 107.38L54.13 107.38Q54.13 107.25 54.13 107.25Q54.13 107.25 54.25 107.25L54.25 107.25L54.25 107.25Q54.25 107.13 54.25 107.13Q54.25 107.13 54.25 107.13L54.25 107.13Q54.25 107.13 54.31 107.13Q54.38 107.13 54.38 107.13L54.38 107.13Q54.38 107.13 54.38 107.13Q54.38 107.13 54.38 107.13L54.38 107.13L55.25 107.13L55.25 105.63Q55.25 105.63 55.25 105.56Q55.25 105.50 55.25 105.50L55.25 105.50Q55.25 105.50 55.31 105.50Q55.38 105.50 55.38 105.38L55.38 105.38L55.38 105.38Q55.38 105.38 55.44 105.38Q55.50 105.38 55.50 105.38L55.50 105.38L55.50 105.38Q55.63 105.38 55.69 105.38Q55.75 105.38 55.75 105.38L55.75 105.38Q55.88 105.38 55.94 105.38Q56 105.38 56.13 105.38L56.13 105.38L56.13 105.38Q56.13 105.38 56.19 105.38Q56.25 105.38 56.25 105.38L56.25 105.38L56.25 105.38Q56.25 105.50 56.31 105.50Q56.38 105.50 56.38 105.50L56.38 105.50Q56.38 105.50 56.38 105.56Q56.38 105.63 56.38 105.63L56.38 105.63L56.38 107.13L58 107.13Q58 107.13 58.06 107.13Q58.13 107.13 58.13 107.13L58.13 107.13Q58.13 107.13 58.13 107.13Q58.13 107.13 58.13 107.25L58.13 107.25Q58.13 107.25 58.19 107.25Q58.25 107.25 58.25 107.38L58.25 107.38Q58.25 107.38 58.25 107.44Q58.25 107.50 58.25 107.50L58.25 107.50Q58.25 107.63 58.25 107.63Q58.25 107.63 58.25 107.63L58.25 107.63Q58.25 107.75 58.25 107.81Q58.25 107.88 58.13 107.88L58.13 107.88L58.13 107.88Q58.13 108 58.06 108Q58 108 58 108L58 108L56.38 108L56.38 111.50Q56.38 111.88 56.44 112.13Q56.50 112.38 56.63 112.50L56.63 112.50Q56.63 112.75 56.81 112.81Q57 112.88 57.25 112.88L57.25 112.88Q57.38 112.88 57.44 112.88Q57.50 112.88 57.50 112.88L57.50 112.88Q57.63 112.75 57.69 112.75Q57.75 112.75 57.75 112.75L57.75 112.75Q57.88 112.75 57.88 112.75Q57.88 112.75 57.88 112.63L57.88 112.63Q58 112.63 58 112.63Q58 112.63 58.13 112.63L58.13 112.63L58.13 112.63Q58.13 112.63 58.13 112.63Q58.13 112.63 58.13 112.63L58.13 112.63Q58.13 112.63 58.13 112.69Q58.13 112.75 58.13 112.75L58.13 112.75Q58.13 112.75 58.19 112.81Q58.25 112.88 58.25 112.88L58.25 112.88Q58.25 112.88 58.25 112.94Q58.25 113 58.25 113.13L58.25 113.13ZM65.13 107.25L65.13 113.50Q65.13 113.63 65.13 113.63Q65.13 113.63 65.13 113.63L65.13 113.63L65.13 113.63Q65.13 113.63 65.06 113.63Q65 113.63 65 113.75L65 113.75Q65 113.75 64.94 113.75Q64.88 113.75 64.88 113.75L64.88 113.75L64.88 113.75Q64.75 113.75 64.69 113.75Q64.63 113.75 64.63 113.75L64.63 113.75Q64.50 113.75 64.44 113.75Q64.38 113.75 64.38 113.75L64.38 113.75Q64.25 113.75 64.25 113.75Q64.25 113.75 64.13 113.75L64.13 113.75L64.13 113.75Q64.13 113.63 64.13 113.63Q64.13 113.63 64.13 113.63L64.13 113.63L64.13 113.63Q64.13 113.63 64.13 113.63Q64.13 113.63 64.13 113.50L64.13 113.50Q64.13 113.50 64.13 113.50Q64.13 113.50 64.13 113.50L64.13 113.50L64.13 113.50L64.13 112.75Q63.75 113 63.50 113.25Q63.25 113.50 63 113.63L63 113.63Q62.75 113.75 62.50 113.81Q62.25 113.88 62 113.88L62 113.88L62 113.88Q61.63 113.88 61.38 113.81Q61.13 113.75 60.88 113.63L60.88 113.63Q60.75 113.50 60.56 113.38Q60.38 113.25 60.25 113.13L60.25 113.13L60.25 113.13Q60.13 112.88 60 112.69Q59.88 112.50 59.88 112.25L59.88 112.25L59.88 112.25Q59.75 112 59.75 111.75Q59.75 111.50 59.75 111.13L59.75 111.13Q59.75 111.13 59.75 111.13Q59.75 111.13 59.75 111.13L59.75 111.13L59.75 111.13L59.75 107.25Q59.75 107.25 59.75 107.25Q59.75 107.25 59.75 107.25L59.75 107.25Q59.75 107.25 59.75 107.25Q59.75 107.25 59.75 107.13L59.75 107.13L59.75 107.13Q59.75 107.13 59.75 107.13Q59.75 107.13 59.88 107.13L59.88 107.13L59.88 107.13Q59.88 107.13 59.94 107.13Q60 107.13 60 107L60 107L60 107Q60.13 107 60.19 107Q60.25 107 60.25 107L60.25 107Q60.38 107 60.44 107Q60.50 107 60.63 107L60.63 107L60.63 107Q60.63 107.13 60.69 107.13Q60.75 107.13 60.75 107.13L60.75 107.13Q60.75 107.13 60.81 107.13Q60.88 107.13 60.88 107.13L60.88 107.13Q60.88 107.25 60.88 107.25Q60.88 107.25 60.88 107.25L60.88 107.25L60.88 110.88Q60.88 111.25 60.88 111.44Q60.88 111.63 61 111.75L61 111.75Q61 112 61.06 112.13Q61.13 112.25 61.13 112.38L61.13 112.38Q61.25 112.50 61.38 112.56Q61.50 112.63 61.63 112.75L61.63 112.75Q61.75 112.75 61.88 112.81Q62 112.88 62.25 112.88L62.25 112.88Q62.38 112.88 62.63 112.81Q62.88 112.75 63 112.50L63 112.50Q63.25 112.38 63.50 112.19Q63.75 112 64 111.63L64 111.63L64 107.25Q64 107.25 64 107.25Q64 107.25 64 107.25L64 107.25Q64 107.25 64 107.25Q64 107.25 64 107.13L64 107.13L64 107.13Q64 107.13 64 107.13Q64 107.13 64.13 107.13L64.13 107.13L64.13 107.13Q64.13 107.13 64.19 107.13Q64.25 107.13 64.25 107L64.25 107L64.25 107Q64.38 107 64.44 107Q64.50 107 64.50 107L64.50 107Q64.63 107 64.69 107Q64.75 107 64.88 107L64.88 107L64.88 107Q64.88 107.13 64.94 107.13Q65 107.13 65 107.13L65 107.13Q65 107.13 65.06 107.13Q65.13 107.13 65.13 107.13L65.13 107.13Q65.13 107.25 65.13 107.25Q65.13 107.25 65.13 107.25L65.13 107.25ZM72.63 104.25L72.63 113.50Q72.63 113.63 72.63 113.63Q72.63 113.63 72.63 113.63L72.63 113.63L72.63 113.63Q72.63 113.63 72.56 113.69Q72.50 113.75 72.50 113.75L72.50 113.75L72.50 113.75Q72.50 113.75 72.44 113.75Q72.38 113.75 72.38 113.75L72.38 113.75L72.38 113.75Q72.25 113.75 72.19 113.75Q72.13 113.75 72.13 113.75L72.13 113.75Q72 113.75 71.94 113.75Q71.88 113.75 71.88 113.75L71.88 113.75L71.88 113.75Q71.88 113.75 71.81 113.75Q71.75 113.75 71.75 113.75L71.75 113.75Q71.75 113.75 71.69 113.69Q71.63 113.63 71.63 113.63L71.63 113.63L71.63 113.63Q71.63 113.63 71.63 113.63Q71.63 113.63 71.63 113.50L71.63 113.50Q71.63 113.50 71.63 113.50Q71.63 113.50 71.63 113.50L71.63 113.50L71.63 113.50L71.63 112.75Q71.38 113 71.13 113.19Q70.88 113.38 70.63 113.50L70.63 113.50L70.63 113.50Q70.38 113.63 70.06 113.75Q69.75 113.88 69.38 113.88L69.38 113.88Q69.38 113.88 69.38 113.88Q69.38 113.88 69.38 113.88L69.38 113.88L69.38 113.88Q69 113.88 68.75 113.81Q68.50 113.75 68.25 113.63L68.25 113.63Q68 113.50 67.81 113.31Q67.63 113.13 67.50 112.88L67.50 112.88L67.50 112.88Q67.25 112.63 67.19 112.38Q67.13 112.13 67 111.75L67 111.75L67 111.75Q66.88 111.50 66.88 111.19Q66.88 110.88 66.88 110.50L66.88 110.50Q66.88 110.50 66.88 110.50Q66.88 110.50 66.88 110.50L66.88 110.50L66.88 110.50Q66.88 110.13 66.94 109.75Q67 109.38 67 109L67 109Q67.13 108.75 67.25 108.44Q67.38 108.13 67.50 107.88L67.50 107.88L67.50 107.88Q67.75 107.63 67.94 107.50Q68.13 107.38 68.38 107.25L68.38 107.25Q68.63 107.13 68.94 107.06Q69.25 107 69.50 107L69.50 107Q69.50 107 69.50 107Q69.50 107 69.63 107L69.63 107L69.63 107Q69.88 107 70.13 107.06Q70.38 107.13 70.63 107.25L70.63 107.25Q70.75 107.38 71 107.50Q71.25 107.63 71.50 107.88L71.50 107.88L71.50 104.25Q71.50 104.25 71.50 104.19Q71.50 104.13 71.50 104.13L71.50 104.13Q71.50 104.13 71.50 104.13Q71.50 104.13 71.63 104.13L71.63 104.13L71.63 104.13Q71.63 104.13 71.69 104.06Q71.75 104 71.75 104L71.75 104L71.75 104Q71.88 104 71.94 104Q72 104 72 104L72 104Q72.13 104 72.19 104Q72.25 104 72.38 104L72.38 104L72.38 104Q72.38 104 72.44 104.06Q72.50 104.13 72.50 104.13L72.50 104.13Q72.50 104.13 72.56 104.13Q72.63 104.13 72.63 104.13L72.63 104.13Q72.63 104.13 72.63 104.19Q72.63 104.25 72.63 104.25L72.63 104.25L72.63 104.25ZM71.50 111.63L71.50 109.13Q71.25 108.88 71 108.63Q70.75 108.38 70.63 108.25L70.63 108.25Q70.38 108.13 70.13 108Q69.88 107.88 69.63 107.88L69.63 107.88L69.63 107.88Q69.38 107.88 69.19 107.94Q69 108 68.88 108.13L68.88 108.13Q68.75 108.25 68.63 108.38Q68.50 108.50 68.38 108.75L68.38 108.75Q68.38 108.88 68.25 109.06Q68.13 109.25 68.13 109.50L68.13 109.50Q68.13 109.63 68.06 109.88Q68 110.13 68 110.38L68 110.38Q68 110.38 68 110.38Q68 110.38 68 110.38L68 110.38L68 110.38Q68 110.63 68.06 110.81Q68.13 111 68.13 111.25L68.13 111.25Q68.13 111.50 68.19 111.69Q68.25 111.88 68.38 112.13L68.38 112.13Q68.50 112.25 68.63 112.38Q68.75 112.50 68.88 112.63L68.88 112.63Q69 112.75 69.19 112.81Q69.38 112.88 69.63 112.88L69.63 112.88Q69.75 112.88 69.88 112.88Q70 112.88 70 112.75L70 112.75Q70.13 112.75 70.25 112.69Q70.38 112.63 70.50 112.63L70.50 112.63Q70.63 112.50 70.75 112.44Q70.88 112.38 71 112.25L71 112.25Q71.13 112.13 71.25 111.94Q71.38 111.75 71.50 111.63L71.50 111.63L71.50 111.63ZM75.88 107.25L75.88 113.50Q75.88 113.63 75.88 113.63Q75.88 113.63 75.88 113.63L75.88 113.63L75.88 113.63Q75.88 113.63 75.88 113.63Q75.88 113.63 75.75 113.75L75.75 113.75L75.75 113.75Q75.75 113.75 75.69 113.75Q75.63 113.75 75.63 113.75L75.63 113.75L75.63 113.75Q75.50 113.75 75.44 113.75Q75.38 113.75 75.38 113.75L75.38 113.75Q75.25 113.75 75.19 113.75Q75.13 113.75 75 113.75L75 113.75L75 113.75Q75 113.75 74.94 113.75Q74.88 113.75 74.88 113.75L74.88 113.75L74.88 113.75Q74.88 113.63 74.81 113.63Q74.75 113.63 74.75 113.63L74.75 113.63L74.75 113.63Q74.75 113.63 74.75 113.63Q74.75 113.63 74.75 113.50L74.75 113.50Q74.75 113.50 74.75 113.50Q74.75 113.50 74.75 113.50L74.75 113.50L74.75 113.50L74.75 107.25Q74.75 107.25 74.75 107.25Q74.75 107.25 74.75 107.25L74.75 107.25Q74.75 107.25 74.75 107.25Q74.75 107.25 74.75 107.13L74.75 107.13L74.75 107.13Q74.75 107.13 74.81 107.13Q74.88 107.13 74.88 107.13L74.88 107.13L74.88 107.13Q74.88 107.13 74.94 107.13Q75 107.13 75 107L75 107L75 107Q75.13 107 75.19 107Q75.25 107 75.38 107L75.38 107Q75.38 107 75.44 107Q75.50 107 75.63 107L75.63 107L75.63 107Q75.63 107.13 75.69 107.13Q75.75 107.13 75.75 107.13L75.75 107.13Q75.88 107.13 75.88 107.13Q75.88 107.13 75.88 107.13L75.88 107.13Q75.88 107.25 75.88 107.25Q75.88 107.25 75.88 107.25L75.88 107.25ZM76 105.13L76 105.13Q76 105.38 76 105.50Q76 105.63 75.88 105.75L75.88 105.75Q75.88 105.75 75.69 105.81Q75.50 105.88 75.38 105.88L75.38 105.88Q75.13 105.88 75 105.81Q74.88 105.75 74.75 105.75L74.75 105.75Q74.75 105.63 74.69 105.50Q74.63 105.38 74.63 105.13L74.63 105.13Q74.63 105 74.69 104.88Q74.75 104.75 74.75 104.63L74.75 104.63Q74.88 104.50 75 104.50Q75.13 104.50 75.38 104.50L75.38 104.50Q75.50 104.50 75.69 104.50Q75.88 104.50 75.88 104.63L75.88 104.63Q76 104.63 76 104.81Q76 105 76 105.13L76 105.13ZM83.88 110.38L83.88 110.38Q83.88 110.75 83.81 111.06Q83.75 111.38 83.63 111.75L83.63 111.75Q83.63 112.13 83.44 112.38Q83.25 112.63 83.13 112.88L83.13 112.88L83.13 112.88Q82.88 113.13 82.63 113.31Q82.38 113.50 82.13 113.63L82.13 113.63L82.13 113.63Q81.75 113.75 81.44 113.81Q81.13 113.88 80.63 113.88L80.63 113.88Q80.25 113.88 79.94 113.81Q79.63 113.75 79.38 113.63L79.38 113.63Q79 113.50 78.75 113.31Q78.50 113.13 78.38 113L78.38 113L78.38 113Q78.13 112.75 78 112.50Q77.88 112.25 77.75 111.88L77.75 111.88L77.75 111.88Q77.75 111.63 77.69 111.25Q77.63 110.88 77.63 110.50L77.63 110.50Q77.63 110.50 77.63 110.50Q77.63 110.50 77.63 110.50L77.63 110.50L77.63 110.50Q77.63 110.13 77.69 109.75Q77.75 109.38 77.75 109L77.75 109Q77.88 108.75 78.06 108.44Q78.25 108.13 78.38 107.88L78.38 107.88Q78.63 107.75 78.88 107.56Q79.13 107.38 79.38 107.25L79.38 107.25L79.38 107.25Q79.75 107.13 80.06 107.06Q80.38 107 80.75 107L80.75 107Q81.25 107 81.56 107.06Q81.88 107.13 82.13 107.13L82.13 107.13Q82.38 107.25 82.63 107.44Q82.88 107.63 83.13 107.88L83.13 107.88Q83.25 108.13 83.44 108.38Q83.63 108.63 83.63 108.88L83.63 108.88Q83.75 109.25 83.81 109.63Q83.88 110 83.88 110.38L83.88 110.38ZM82.63 110.38L82.63 110.38Q82.63 110.13 82.63 109.88Q82.63 109.63 82.63 109.50L82.63 109.50Q82.50 109.25 82.44 109.06Q82.38 108.88 82.25 108.63L82.25 108.63L82.25 108.63Q82.13 108.50 82 108.38Q81.88 108.25 81.63 108.13L81.63 108.13L81.63 108.13Q81.50 108 81.25 107.94Q81 107.88 80.75 107.88L80.75 107.88Q80.50 107.88 80.25 107.94Q80 108 79.88 108.13L79.88 108.13Q79.63 108.25 79.50 108.38Q79.38 108.50 79.25 108.63L79.25 108.63L79.25 108.63Q79.13 108.75 79.06 108.94Q79 109.13 78.88 109.38L78.88 109.38L78.88 109.38Q78.88 109.63 78.81 109.88Q78.75 110.13 78.75 110.38L78.75 110.38Q78.75 110.38 78.75 110.38Q78.75 110.38 78.75 110.38L78.75 110.38L78.75 110.38Q78.75 110.63 78.81 110.88Q78.88 111.13 78.88 111.38L78.88 111.38Q79 111.63 79.06 111.81Q79.13 112 79.25 112.13L79.25 112.13Q79.38 112.38 79.50 112.50Q79.63 112.63 79.75 112.63L79.75 112.63Q80 112.75 80.25 112.81Q80.50 112.88 80.75 112.88L80.75 112.88Q81 112.88 81.19 112.81Q81.38 112.75 81.63 112.75L81.63 112.75Q81.75 112.63 81.94 112.50Q82.13 112.38 82.25 112.13L82.25 112.13Q82.38 112 82.44 111.81Q82.50 111.63 82.50 111.38L82.50 111.38L82.50 111.38Q82.63 111.13 82.63 110.88Q82.63 110.63 82.63 110.38L82.63 110.38ZM90.50 111.13L90.50 111.13Q90.50 111.50 90.50 111.81Q90.50 112.13 90.38 112.38L90.38 112.38Q90.25 112.63 90.06 112.81Q89.88 113 89.63 113.13L89.63 113.13L89.63 113.13Q89.50 113.38 89.25 113.50Q89 113.63 88.75 113.63L88.75 113.63Q88.38 113.75 88.13 113.81Q87.88 113.88 87.50 113.88L87.50 113.88Q87.50 113.88 87.50 113.88Q87.50 113.88 87.50 113.88L87.50 113.88L87.50 113.88Q87.50 113.88 87.50 113.88Q87.50 113.88 87.50 113.88L87.50 113.88Q87.25 113.88 87.06 113.81Q86.88 113.75 86.63 113.75L86.63 113.75L86.63 113.75Q86.50 113.75 86.31 113.69Q86.13 113.63 85.88 113.63L85.88 113.63L86 113.63Q85.75 113.50 85.63 113.44Q85.50 113.38 85.38 113.38L85.38 113.38L85.50 113.38Q85.38 113.25 85.31 113.25Q85.25 113.25 85.13 113.13L85.13 113.13L85.13 113.13Q85.13 113.13 85.13 113.06Q85.13 113 85 112.88L85 112.88L85 112.88Q85 112.88 85 112.81Q85 112.75 85 112.63L85 112.63Q85 112.63 85 112.63Q85 112.63 85 112.63L85 112.63L85 112.63L85 112.38Q85 112.25 85 112.25Q85 112.25 85 112.13L85 112.13L85 112.13Q85.13 112.13 85.13 112.13Q85.13 112.13 85.13 112.13L85.13 112.13Q85.13 112.13 85.19 112.06Q85.25 112 85.25 112L85.25 112Q85.25 112 85.25 112Q85.25 112 85.25 112L85.25 112L85.25 112Q85.25 112 85.31 112.06Q85.38 112.13 85.50 112.13L85.50 112.13Q85.63 112.25 85.75 112.31Q85.88 112.38 86 112.38L86 112.38Q86.13 112.50 86.31 112.56Q86.50 112.63 86.63 112.75L86.63 112.75Q86.88 112.75 87.06 112.81Q87.25 112.88 87.50 112.88L87.50 112.88Q87.75 112.88 87.94 112.81Q88.13 112.75 88.25 112.75L88.25 112.75Q88.38 112.63 88.56 112.56Q88.75 112.50 88.88 112.38L88.88 112.38Q89 112.38 89.06 112.25Q89.13 112.13 89.13 112L89.13 112Q89.25 111.75 89.25 111.63Q89.25 111.50 89.25 111.25L89.25 111.25Q89.25 111.13 89.25 110.94Q89.25 110.75 89.13 110.63L89.13 110.63Q89 110.50 88.88 110.38Q88.75 110.25 88.63 110.13L88.63 110.13L88.63 110.13Q88.50 110.13 88.38 110Q88.25 109.88 88 109.88L88 109.88L88 109.75Q87.88 109.75 87.69 109.63Q87.50 109.50 87.25 109.50L87.25 109.50Q87.13 109.38 86.94 109.25Q86.75 109.13 86.50 109L86.50 109Q86.38 109 86.19 108.88Q86 108.75 85.88 108.50L85.88 108.50L85.88 108.50Q85.75 108.38 85.63 108.25Q85.50 108.13 85.38 107.88L85.38 107.88L85.38 107.88Q85.38 107.63 85.31 107.44Q85.25 107.25 85.25 106.88L85.25 106.88Q85.25 106.63 85.31 106.38Q85.38 106.13 85.38 105.88L85.38 105.88Q85.50 105.75 85.69 105.56Q85.88 105.38 86 105.13L86 105.13Q86.13 105 86.38 104.88Q86.63 104.75 86.88 104.75L86.88 104.75Q87.13 104.63 87.38 104.56Q87.63 104.50 88 104.50L88 104.50Q88 104.50 88 104.50Q88 104.50 88 104.50L88 104.50L88 104.50Q88.13 104.50 88.25 104.56Q88.38 104.63 88.63 104.63L88.63 104.63Q88.75 104.63 88.88 104.69Q89 104.75 89.13 104.75L89.13 104.75Q89.25 104.75 89.38 104.81Q89.50 104.88 89.63 105L89.63 105Q89.75 105 89.81 105.06Q89.88 105.13 89.88 105.13L89.88 105.13Q89.88 105.13 89.94 105.19Q90 105.25 90 105.25L90 105.25L90 105.25Q90 105.25 90 105.25Q90 105.25 90 105.38L90 105.38Q90 105.38 90 105.38Q90 105.38 90 105.50L90 105.50Q90 105.50 90 105.56Q90 105.63 90 105.63L90 105.63Q90 105.75 90 105.81Q90 105.88 90 105.88L90 105.88L90 105.88Q90 106 90 106Q90 106 90 106.13L90 106.13L90 106.13Q90 106.13 90 106.13Q90 106.13 89.88 106.13L89.88 106.13L89.88 106.13Q89.88 106.13 89.88 106.19Q89.88 106.25 89.88 106.25L89.88 106.25Q89.88 106.25 89.88 106.25Q89.88 106.25 89.88 106.25L89.88 106.25L89.88 106.25Q89.88 106.25 89.81 106.19Q89.75 106.13 89.63 106.13L89.63 106.13Q89.50 106 89.44 106Q89.38 106 89.25 105.88L89.25 105.88L89.25 105.88Q89.13 105.88 89 105.81Q88.88 105.75 88.63 105.63L88.63 105.63L88.63 105.63Q88.50 105.63 88.31 105.56Q88.13 105.50 87.88 105.50L87.88 105.50Q87.75 105.50 87.56 105.56Q87.38 105.63 87.25 105.63L87.25 105.63Q87.13 105.75 87 105.81Q86.88 105.88 86.75 105.88L86.75 105.88L86.75 105.88Q86.75 106 86.69 106.13Q86.63 106.25 86.50 106.38L86.50 106.38L86.50 106.38Q86.50 106.50 86.50 106.56Q86.50 106.63 86.50 106.75L86.50 106.75Q86.50 107 86.50 107.19Q86.50 107.38 86.63 107.50L86.63 107.50Q86.75 107.63 86.81 107.75Q86.88 107.88 87.13 108L87.13 108Q87.25 108 87.38 108.13Q87.50 108.25 87.75 108.38L87.75 108.38Q87.88 108.38 88.06 108.50Q88.25 108.63 88.50 108.63L88.50 108.63Q88.75 108.75 88.94 108.88Q89.13 109 89.25 109.13L89.25 109.13Q89.38 109.13 89.56 109.25Q89.75 109.38 89.88 109.63L89.88 109.63L89.88 109.63Q90 109.75 90.13 109.88Q90.25 110 90.38 110.25L90.38 110.25Q90.50 110.50 90.50 110.69Q90.50 110.88 90.50 111.13L90.50 111.13ZM95.13 112.38L95.13 112.38Q95.13 112.50 95.13 112.56Q95.13 112.63 95.13 112.63L95.13 112.63Q95.13 112.63 95.13 112.69Q95.13 112.75 95.13 112.75L95.13 112.75L95.13 112.75Q95 112.75 95 112.81Q95 112.88 95 112.88L95 112.88L95 112.88Q95 112.88 95 112.94Q95 113 94.88 113L94.88 113L94.88 113Q94.88 113.13 94.81 113.13Q94.75 113.13 94.63 113.25L94.63 113.25L94.63 113.25Q94.50 113.25 94.38 113.38Q94.25 113.50 94.13 113.50L94.13 113.50L94.13 113.50Q93.88 113.63 93.69 113.63Q93.50 113.63 93.38 113.75L93.38 113.75L93.38 113.75Q93.13 113.75 92.88 113.81Q92.63 113.88 92.38 113.88L92.38 113.88Q92.38 113.88 92.38 113.88Q92.38 113.88 92.38 113.88L92.38 113.88L92.38 113.88Q92.38 113.88 92.38 113.88Q92.38 113.88 92.38 113.88L92.38 113.88Q91.88 113.88 91.50 113.75Q91.13 113.63 90.75 113.50L90.75 113.50L90.75 113.50Q90.38 113.38 90.13 113.19Q89.88 113 89.63 112.63L89.63 112.63L89.63 112.63Q89.38 112.38 89.19 112Q89 111.63 88.88 111.25L88.88 111.25Q88.63 110.88 88.56 110.38Q88.50 109.88 88.50 109.38L88.50 109.38Q88.50 108.75 88.63 108.25Q88.75 107.75 88.88 107.38L88.88 107.38Q89 106.88 89.19 106.50Q89.38 106.13 89.63 105.88L89.63 105.88L89.63 105.88Q89.88 105.50 90.19 105.31Q90.50 105.13 90.88 104.88L90.88 104.88L90.88 104.88Q91.25 104.75 91.63 104.69Q92 104.63 92.50 104.63L92.50 104.63Q92.50 104.63 92.50 104.63Q92.50 104.63 92.50 104.63L92.50 104.63L92.50 104.63Q92.75 104.63 92.94 104.63Q93.13 104.63 93.25 104.63L93.25 104.63Q93.50 104.75 93.69 104.75Q93.88 104.75 94 104.88L94 104.88Q94.13 104.88 94.25 104.94Q94.38 105 94.50 105.13L94.50 105.13Q94.63 105.13 94.75 105.19Q94.88 105.25 94.88 105.38L94.88 105.38Q94.88 105.38 94.94 105.44Q95 105.50 95 105.50L95 105.50Q95 105.50 95 105.56Q95 105.63 95 105.63L95 105.63L95 105.63Q95 105.63 95 105.69Q95 105.75 95 105.75L95 105.75L95 105.75Q95 105.75 95.06 105.81Q95.13 105.88 95.13 106L95.13 106Q95.13 106 95.06 106.06Q95 106.13 95 106.25L95 106.25Q95 106.25 95 106.31Q95 106.38 95 106.38L95 106.38L95 106.38Q95 106.38 95 106.44Q95 106.50 95 106.50L95 106.50L95 106.50Q94.88 106.50 94.88 106.50Q94.88 106.50 94.88 106.50L94.88 106.50Q94.75 106.50 94.69 106.44Q94.63 106.38 94.63 106.38L94.63 106.38Q94.50 106.25 94.38 106.19Q94.25 106.13 94.13 106.13L94.13 106.13L94.13 106.13Q94 106 93.81 105.94Q93.63 105.88 93.50 105.75L93.50 105.75L93.50 105.75Q93.25 105.75 93.06 105.69Q92.88 105.63 92.63 105.63L92.63 105.63Q92.63 105.63 92.56 105.63Q92.50 105.63 92.50 105.63L92.50 105.63L92.50 105.63Q92.25 105.63 91.94 105.69Q91.63 105.75 91.38 105.88L91.38 105.88Q91.13 106 90.94 106.19Q90.75 106.38 90.63 106.63L90.63 106.63Q90.38 106.75 90.25 107.06Q90.13 107.38 90 107.75L90 107.75Q90 108 89.94 108.44Q89.88 108.88 89.88 109.25L89.88 109.25Q89.88 109.63 89.94 110.06Q90 110.50 90 110.75L90 110.75Q90.13 111.13 90.25 111.38Q90.38 111.63 90.63 111.88L90.63 111.88Q90.75 112.13 90.94 112.25Q91.13 112.38 91.38 112.50L91.38 112.50Q91.63 112.63 91.94 112.69Q92.25 112.75 92.50 112.75L92.50 112.75Q92.88 112.75 93.06 112.75Q93.25 112.75 93.50 112.63L93.50 112.63Q93.75 112.63 93.88 112.50Q94 112.38 94.13 112.38L94.13 112.38Q94.38 112.25 94.44 112.19Q94.50 112.13 94.63 112L94.63 112Q94.75 112 94.81 111.94Q94.88 111.88 94.88 111.88L94.88 111.88Q95 111.88 95 111.88Q95 111.88 95 111.88L95 111.88Q95 112 95 112Q95 112 95 112L95 112Q95.13 112 95.13 112.06Q95.13 112.13 95.13 112.13L95.13 112.13Q95.13 112.25 95.13 112.31Q95.13 112.38 95.13 112.38L95.13 112.38ZM102.38 110.38L102.38 110.38Q102.38 110.75 102.31 111.06Q102.25 111.38 102.25 111.75L102.25 111.75Q102.13 112.13 101.94 112.38Q101.75 112.63 101.63 112.88L101.63 112.88L101.63 112.88Q101.38 113.13 101.13 113.31Q100.88 113.50 100.63 113.63L100.63 113.63L100.63 113.63Q100.25 113.75 99.94 113.81Q99.63 113.88 99.25 113.88L99.25 113.88Q98.75 113.88 98.44 113.81Q98.13 113.75 97.88 113.63L97.88 113.63Q97.50 113.50 97.31 113.31Q97.13 113.13 96.88 113L96.88 113L96.88 113Q96.63 112.75 96.50 112.50Q96.38 112.25 96.38 111.88L96.38 111.88L96.38 111.88Q96.25 111.63 96.19 111.25Q96.13 110.88 96.13 110.50L96.13 110.50Q96.13 110.50 96.13 110.50Q96.13 110.50 96.13 110.50L96.13 110.50L96.13 110.50Q96.13 110.13 96.19 109.75Q96.25 109.38 96.38 109L96.38 109Q96.38 108.75 96.56 108.44Q96.75 108.13 96.88 107.88L96.88 107.88Q97.13 107.75 97.38 107.56Q97.63 107.38 97.88 107.25L97.88 107.25L97.88 107.25Q98.25 107.13 98.56 107.06Q98.88 107 99.38 107L99.38 107Q99.75 107 100.06 107.06Q100.38 107.13 100.63 107.13L100.63 107.13Q101 107.25 101.25 107.44Q101.50 107.63 101.63 107.88L101.63 107.88Q101.88 108.13 102 108.38Q102.13 108.63 102.25 108.88L102.25 108.88Q102.25 109.25 102.31 109.63Q102.38 110 102.38 110.38L102.38 110.38ZM101.25 110.38L101.25 110.38Q101.25 110.13 101.19 109.88Q101.13 109.63 101.13 109.50L101.13 109.50Q101 109.25 100.94 109.06Q100.88 108.88 100.75 108.63L100.75 108.63L100.75 108.63Q100.63 108.50 100.50 108.38Q100.38 108.25 100.25 108.13L100.25 108.13L100.25 108.13Q100 108 99.75 107.94Q99.50 107.88 99.25 107.88L99.25 107.88Q99 107.88 98.81 107.94Q98.63 108 98.38 108.13L98.38 108.13Q98.25 108.25 98.06 108.38Q97.88 108.50 97.75 108.63L97.75 108.63L97.75 108.63Q97.63 108.75 97.56 108.94Q97.50 109.13 97.50 109.38L97.50 109.38L97.50 109.38Q97.38 109.63 97.38 109.88Q97.38 110.13 97.38 110.38L97.38 110.38Q97.38 110.38 97.38 110.38Q97.38 110.38 97.38 110.38L97.38 110.38L97.38 110.38Q97.38 110.63 97.38 110.88Q97.38 111.13 97.38 111.38L97.38 111.38Q97.50 111.63 97.56 111.81Q97.63 112 97.75 112.13L97.75 112.13Q97.88 112.38 98 112.50Q98.13 112.63 98.38 112.63L98.38 112.63Q98.50 112.75 98.75 112.81Q99 112.88 99.25 112.88L99.25 112.88Q99.50 112.88 99.75 112.81Q100 112.75 100.13 112.75L100.13 112.75Q100.38 112.63 100.50 112.50Q100.63 112.38 100.75 112.13L100.75 112.13Q100.88 112 100.94 111.81Q101 111.63 101.13 111.38L101.13 111.38L101.13 111.38Q101.13 111.13 101.19 110.88Q101.25 110.63 101.25 110.38L101.25 110.38ZM109.50 104.25L109.50 113.50Q109.50 113.63 109.50 113.63Q109.50 113.63 109.50 113.63L109.50 113.63L109.50 113.63Q109.38 113.63 109.38 113.69Q109.38 113.75 109.38 113.75L109.38 113.75L109.38 113.75Q109.38 113.75 109.31 113.75Q109.25 113.75 109.25 113.75L109.25 113.75L109.25 113.75Q109.13 113.75 109.06 113.75Q109 113.75 109 113.75L109 113.75Q108.88 113.75 108.81 113.75Q108.75 113.75 108.75 113.75L108.75 113.75L108.75 113.75Q108.63 113.75 108.63 113.75Q108.63 113.75 108.63 113.75L108.63 113.75Q108.50 113.75 108.50 113.69Q108.50 113.63 108.50 113.63L108.50 113.63L108.50 113.63Q108.50 113.63 108.50 113.63Q108.50 113.63 108.50 113.50L108.50 113.50Q108.50 113.50 108.50 113.50Q108.50 113.50 108.50 113.50L108.50 113.50L108.50 113.50L108.50 112.75Q108.25 113 108 113.19Q107.75 113.38 107.50 113.50L107.50 113.50L107.38 113.50Q107.13 113.63 106.88 113.75Q106.63 113.88 106.25 113.88L106.25 113.88Q106.25 113.88 106.25 113.88Q106.25 113.88 106.25 113.88L106.25 113.88L106.25 113.88Q105.88 113.88 105.63 113.81Q105.38 113.75 105.13 113.63L105.13 113.63Q104.88 113.50 104.69 113.31Q104.50 113.13 104.25 112.88L104.25 112.88L104.25 112.88Q104.13 112.63 104 112.38Q103.88 112.13 103.88 111.75L103.88 111.75L103.88 111.75Q103.75 111.50 103.75 111.19Q103.75 110.88 103.75 110.50L103.75 110.50Q103.75 110.50 103.75 110.50Q103.75 110.50 103.75 110.50L103.75 110.50L103.75 110.50Q103.75 110.13 103.75 109.75Q103.75 109.38 103.88 109L103.88 109Q104 108.75 104.13 108.44Q104.25 108.13 104.38 107.88L104.38 107.88L104.38 107.88Q104.63 107.63 104.81 107.50Q105 107.38 105.25 107.25L105.25 107.25Q105.50 107.13 105.81 107.06Q106.13 107 106.38 107L106.38 107Q106.38 107 106.38 107Q106.38 107 106.38 107L106.38 107L106.38 107Q106.63 107 106.88 107.06Q107.13 107.13 107.38 107.25L107.38 107.25Q107.63 107.38 107.88 107.50Q108.13 107.63 108.38 107.88L108.38 107.88L108.38 104.25Q108.38 104.25 108.38 104.19Q108.38 104.13 108.38 104.13L108.38 104.13Q108.38 104.13 108.38 104.13Q108.38 104.13 108.38 104.13L108.38 104.13L108.38 104.13Q108.50 104.13 108.50 104.06Q108.50 104 108.63 104L108.63 104L108.63 104Q108.63 104 108.75 104Q108.88 104 108.88 104L108.88 104Q109 104 109.06 104Q109.13 104 109.25 104L109.25 104L109.13 104Q109.25 104 109.31 104.06Q109.38 104.13 109.38 104.13L109.38 104.13Q109.38 104.13 109.38 104.13Q109.38 104.13 109.50 104.13L109.50 104.13Q109.50 104.13 109.50 104.19Q109.50 104.25 109.50 104.25L109.50 104.25L109.50 104.25ZM108.38 111.63L108.38 109.13Q108.13 108.88 107.88 108.63Q107.63 108.38 107.38 108.25L107.38 108.25Q107.25 108.13 107 108Q106.75 107.88 106.50 107.88L106.50 107.88L106.50 107.88Q106.25 107.88 106.06 107.94Q105.88 108 105.75 108.13L105.75 108.13Q105.63 108.25 105.50 108.38Q105.38 108.50 105.25 108.75L105.25 108.75Q105.13 108.88 105.06 109.06Q105 109.25 105 109.50L105 109.50Q104.88 109.63 104.88 109.88Q104.88 110.13 104.88 110.38L104.88 110.38Q104.88 110.38 104.88 110.38Q104.88 110.38 104.88 110.38L104.88 110.38L104.88 110.38Q104.88 110.63 104.88 110.81Q104.88 111 105 111.25L105 111.25Q105 111.50 105.06 111.69Q105.13 111.88 105.25 112.13L105.25 112.13Q105.38 112.25 105.44 112.38Q105.50 112.50 105.75 112.63L105.75 112.63Q105.88 112.75 106.06 112.81Q106.25 112.88 106.50 112.88L106.50 112.88Q106.63 112.88 106.69 112.88Q106.75 112.88 106.88 112.75L106.88 112.75Q107 112.75 107.13 112.69Q107.25 112.63 107.38 112.63L107.38 112.63Q107.50 112.50 107.56 112.44Q107.63 112.38 107.75 112.25L107.75 112.25Q108 112.13 108.13 111.94Q108.25 111.75 108.25 111.63L108.25 111.63L108.38 111.63ZM117 109.88L117 110.13Q117 110.25 116.94 110.38Q116.88 110.50 116.88 110.50L116.88 110.50Q116.75 110.63 116.69 110.63Q116.63 110.63 116.50 110.63L116.50 110.63Q116.50 110.63 116.50 110.63Q116.50 110.63 116.50 110.63L116.50 110.63L112.38 110.63Q112.38 110.88 112.44 111.13Q112.50 111.38 112.50 111.63L112.50 111.63Q112.63 111.75 112.69 111.94Q112.75 112.13 112.88 112.25L112.88 112.25Q113 112.50 113.13 112.56Q113.25 112.63 113.50 112.75L113.50 112.75Q113.75 112.88 113.94 112.88Q114.13 112.88 114.50 112.88L114.50 112.88Q114.63 112.88 114.81 112.88Q115 112.88 115.25 112.88L115.25 112.88Q115.38 112.75 115.56 112.75Q115.75 112.75 115.88 112.63L115.88 112.63L115.88 112.63Q116 112.63 116.06 112.56Q116.13 112.50 116.25 112.50L116.25 112.50L116.25 112.50Q116.38 112.50 116.44 112.50Q116.50 112.50 116.50 112.38L116.50 112.38L116.50 112.38Q116.50 112.38 116.56 112.44Q116.63 112.50 116.63 112.50L116.63 112.50Q116.63 112.50 116.63 112.50Q116.63 112.50 116.63 112.50L116.63 112.50Q116.63 112.63 116.63 112.63Q116.63 112.63 116.63 112.63L116.63 112.63Q116.63 112.63 116.63 112.63Q116.63 112.63 116.63 112.63L116.63 112.63L116.63 112.63Q116.75 112.75 116.75 112.81Q116.75 112.88 116.75 112.88L116.75 112.88Q116.75 112.88 116.75 112.88Q116.75 112.88 116.75 112.88L116.75 112.88Q116.75 112.88 116.75 112.94Q116.75 113 116.63 113L116.63 113L116.63 113Q116.63 113.13 116.63 113.13Q116.63 113.13 116.63 113.13L116.63 113.13L116.63 113.13Q116.63 113.25 116.63 113.25Q116.63 113.25 116.63 113.25L116.63 113.25L116.63 113.25Q116.63 113.25 116.63 113.31Q116.63 113.38 116.63 113.38L116.63 113.38L116.63 113.38Q116.50 113.38 116.44 113.38Q116.38 113.38 116.38 113.50L116.38 113.50L116.38 113.50Q116.25 113.50 116.13 113.56Q116 113.63 115.88 113.63L115.88 113.63Q115.75 113.63 115.56 113.69Q115.38 113.75 115.13 113.75L115.13 113.75Q115 113.75 114.75 113.81Q114.50 113.88 114.38 113.88L114.38 113.88Q114 113.88 113.63 113.81Q113.25 113.75 113 113.63L113 113.63Q112.63 113.50 112.38 113.38Q112.13 113.25 112 113L112 113L112 113Q111.75 112.75 111.63 112.50Q111.50 112.25 111.38 111.88L111.38 111.88L111.38 111.88Q111.25 111.63 111.25 111.25Q111.25 110.88 111.25 110.50L111.25 110.50Q111.25 110.50 111.25 110.50Q111.25 110.50 111.25 110.38L111.25 110.38L111.25 110.38Q111.25 110.38 111.25 110.38Q111.25 110.38 111.25 110.38L111.25 110.38Q111.25 110 111.25 109.63Q111.25 109.25 111.38 109L111.38 109L111.38 109Q111.50 108.63 111.63 108.38Q111.75 108.13 112 107.88L112 107.88L112 107.88Q112.25 107.63 112.44 107.50Q112.63 107.38 113 107.25L113 107.25Q113.25 107.13 113.56 107.06Q113.88 107 114.25 107L114.25 107Q114.63 107 114.94 107.06Q115.25 107.13 115.50 107.13L115.50 107.13Q115.75 107.25 115.94 107.44Q116.13 107.63 116.25 107.88L116.25 107.88Q116.50 108 116.63 108.25Q116.75 108.50 116.75 108.75L116.75 108.75Q116.88 109 116.94 109.31Q117 109.63 117 109.88L117 109.88ZM112.38 109.75L115.75 109.75Q115.88 109.38 115.75 109Q115.63 108.63 115.38 108.38L115.38 108.38Q115.25 108.13 114.94 108Q114.63 107.88 114.13 107.88L114.13 107.88Q114 107.88 113.81 107.88Q113.63 107.88 113.38 108L113.38 108Q113.25 108.13 113.13 108.19Q113 108.25 112.88 108.38L112.88 108.38L112.88 108.38Q112.75 108.63 112.69 108.75Q112.63 108.88 112.50 109L112.50 109Q112.50 109.25 112.44 109.44Q112.38 109.63 112.38 109.75L112.38 109.75Z"/></svg>