<svg xmlns="http://www.w3.org/2000/svg" xmlns:xlink="http://www.w3.org/1999/xlink" width="128" height="128"><path fill="#000000" d="M90.13 123.75L3.63 45Q3.63 45 2.56 43.56Q1.50 42.13 4.25 39.88L4.25 39.88L12.75 32.38Q12.75 32.38 14.25 31.38Q15.75 30.38 17.75 32L17.75 32L95.88 91.38L95.88 119.75Q95.88 119.75 95.13 121.94Q94.38 124.13 90.13 123.75L90.13 123.75ZM39.88 78L23.75 63.38L3.63 81.75Q3.63 81.75 2.88 82.88Q2.13 84 3.63 86L3.63 86L13 94.63Q13 94.63 14.50 95.44Q16 96.25 18.50 94.25L18.50 94.25L39.88 78ZM39.88 48.88L59.13 63.50L96.13 35.25L95.88 7Q95.88 7 94.44 4.31Q93 1.63 89 4L89 4L39.88 48.88ZM89.88 123.50L90.13 123.75Q91.75 125.50 93.31 125.38Q94.88 125.25 94.88 125.25L94.88 125.25L123.63 111Q126.50 109.13 126.69 107.25Q126.88 105.38 126.88 105.38L126.88 105.38L126.88 20.50Q126.88 17.63 124.94 16.56Q123 15.50 123 15.50L123 15.50L98.13 3.38Q94 0.88 91.50 2.44Q89 4 89 4L89 4Q89 4 91.63 3.13Q94.25 2.25 95.88 7L95.88 7L95.88 119.25Q95.88 119.88 95.75 120.44Q95.63 121 95.38 121.50L95.38 121.50Q94.88 122.50 93.69 123.19Q92.50 123.88 89.88 123.50L89.88 123.50Z"/></svg>