<svg xmlns="http://www.w3.org/2000/svg" xmlns:xlink="http://www.w3.org/1999/xlink" width="128" height="128"><path fill="#000000" d="M25.50 43.63L25.50 43.63L8.75 43.63Q5.38 43.63 2.94 46.06Q0.50 48.50 0.50 51.88L0.50 51.88L0.50 68.63Q0.50 72 2.94 74.44Q5.38 76.88 8.75 76.88L8.75 76.88L25.50 76.88Q29 76.88 31.38 74.44Q33.75 72 33.75 68.63L33.75 68.63L33.75 51.88Q33.75 48.50 31.31 46.06Q28.88 43.63 25.50 43.63L25.50 43.63ZM18.50 71.25L18.50 71.25Q13.88 72 10 69.19Q6.13 66.38 5.75 62L5.75 62Q5.13 56.88 8.13 53.25Q11.13 49.63 16.25 49.25L16.25 49.25Q18.50 49 20.75 49.06Q23 49.13 25.25 49.25L25.25 49.25Q25.63 49.25 26.56 49.25Q27.50 49.25 27.50 49.25L27.50 49.25Q27.50 49.25 27.50 49.63Q27.50 50 27.50 50.13L27.50 50.13Q27.63 50.75 27.38 51.56Q27.13 52.38 26.63 52.75L26.63 52.75Q25.88 53.38 24.88 53.75Q23.88 54.13 22.88 54.25L22.88 54.25Q21.63 54.50 20.31 54.44Q19 54.38 17.75 54.38L17.75 54.38Q14.88 54.50 13.06 55.69Q11.25 56.88 10.88 59L10.88 59Q10.50 61.13 11.25 62.88Q12 64.63 14.13 65.63L14.13 65.63Q16.38 66.75 18.69 66.06Q21 65.38 23 62.88L23 62.88Q20.50 62.38 17.81 62.44Q15.13 62.50 14.75 58.25L14.75 58.25Q18.25 58.25 21.69 58.25Q25.13 58.25 28.63 58.25L28.63 58.25Q29.38 63.25 26.56 66.94Q23.75 70.63 18.50 71.25ZM36.75 66.13L36.75 66.13Q36.75 65.75 36.81 65.50Q36.88 65.25 36.88 65L36.88 65Q37 64.75 37.13 64.38Q37.25 64 37.50 63.63L37.50 63.63Q37.75 63.13 38.06 62.75Q38.38 62.38 38.75 62.13L38.75 62.13Q39.13 61.75 39.69 61.50Q40.25 61.25 41 61L41 61Q41.75 60.75 42.63 60.63Q43.50 60.50 44.63 60.50L44.63 60.50Q45.38 60.50 46.13 60.56Q46.88 60.63 47.75 60.75L47.75 60.75Q47.75 59 46.81 58.13Q45.88 57.25 44 57.25L44 57.25Q42.50 57.25 41.19 57.50Q39.88 57.75 38.75 58.25L38.75 58.25L38.75 54.63Q40 54.13 41.38 53.94Q42.75 53.75 44.25 53.75L44.25 53.75Q46.13 53.75 47.56 54.25Q49 54.75 50.13 55.75L50.13 55.75Q51.13 56.63 51.63 58.06Q52.13 59.50 52.13 61.38L52.13 61.38L52.13 66.25Q52.13 67.63 51.63 68.69Q51.13 69.75 50.25 70.63L50.25 70.63Q49.25 71.50 47.88 71.94Q46.50 72.38 44.50 72.38L44.50 72.38Q42.50 72.38 41.06 71.94Q39.63 71.50 38.63 70.63L38.63 70.63Q37.75 69.63 37.25 68.50Q36.75 67.38 36.75 66.13L36.75 66.13ZM41.13 65.50L41.13 65.50Q41.13 66.88 41.94 67.63Q42.75 68.38 44.50 68.38L44.50 68.38Q44.50 68.38 44.50 68.38Q44.50 68.38 44.50 68.38L44.50 68.38Q46.13 68.38 46.94 67.69Q47.75 67 47.75 65.75L47.75 65.75L47.75 63.38Q47 63.38 46.31 63.31Q45.63 63.25 45.13 63.25L45.13 63.25Q43.13 63.25 42.13 63.81Q41.13 64.38 41.13 65.50ZM54.75 57.75L54.75 57.75L54.75 54L57.75 54L57.75 48.75L62.13 48.75L62.13 54L66.38 54L66.38 57.75L62.13 57.75L62.13 66.63Q62.13 67.25 62.25 67.63Q62.38 68 62.63 68.25L62.63 68.25Q62.88 68.38 63.31 68.50Q63.75 68.63 64.25 68.63L64.25 68.63Q64.88 68.63 65.44 68.50Q66 68.38 66.38 68.25L66.38 68.25L66.38 71.75Q65.75 72.13 65.06 72.19Q64.38 72.25 63.63 72.25L63.63 72.25Q63.63 72.25 63.56 72.25Q63.50 72.25 63.50 72.25L63.50 72.25Q62.13 72.25 61.06 71.88Q60 71.50 59.25 70.75L59.25 70.75Q58.50 69.88 58.13 68.81Q57.75 67.75 57.75 66.25L57.75 66.25L57.75 57.75L54.75 57.75ZM75.38 72L71.13 72L71.13 47.25L75.38 47.25L75.38 72ZM85.75 51.63L81.25 51.63L81.25 47.63L85.75 47.63L85.75 51.63ZM85.63 72L81.25 72L81.25 54L85.63 54L85.63 72ZM91.38 72L91.38 72L91.38 55.75Q93.38 54.75 95.44 54.25Q97.50 53.75 99.63 53.75L99.63 53.75Q101.50 53.75 103 54.25Q104.50 54.75 105.50 55.75L105.50 55.75Q106.50 56.63 107.06 58Q107.63 59.38 107.63 61.25L107.63 61.25L107.63 72L103.25 72L103.25 60.75Q103.25 60.38 103.25 60.13Q103.25 59.88 103.25 59.63L103.25 59.63Q103.13 59.38 103 59.13Q102.88 58.88 102.75 58.63L102.75 58.63Q102.50 58.38 102.19 58.19Q101.88 58 101.38 57.75L101.38 57.75Q101 57.63 100.38 57.56Q99.75 57.50 99.13 57.50L99.13 57.50Q98.25 57.50 97.44 57.56Q96.63 57.63 95.75 57.75L95.75 57.75L95.75 72L91.38 72ZM112.38 62.88L112.38 62.88Q112.38 61.75 112.56 60.69Q112.75 59.63 113 58.75L113 58.75Q113.25 58 113.63 57.25Q114 56.50 114.50 56.13L114.50 56.13Q115 55.63 115.44 55.25Q115.88 54.88 116.50 54.63L116.50 54.63Q117.13 54.25 117.56 54.13Q118 54 118.50 53.88L118.50 53.88Q119 53.88 119.38 53.81Q119.75 53.75 120.25 53.75L120.25 53.75Q122.13 53.75 123.50 54.19Q124.88 54.63 125.75 55.50L125.75 55.50Q126.75 56.38 127.19 57.38Q127.63 58.38 127.63 59.75L127.63 59.75L127.63 72.50Q127.63 73 127.56 73.38Q127.50 73.75 127.38 74.13L127.38 74.13Q127.38 74.50 127.19 74.94Q127 75.38 126.75 75.75L126.75 75.75Q126.38 76.25 126.06 76.69Q125.75 77.13 125.25 77.38L125.25 77.38Q124.88 77.75 124.25 78Q123.63 78.25 122.88 78.50L122.88 78.50Q122.13 78.75 121.25 78.88Q120.38 79 119.25 79L119.25 79Q117.88 79 116.56 78.81Q115.25 78.63 114.13 78.25L114.13 78.25L114.13 74.38Q115.13 74.75 116.31 74.94Q117.50 75.13 118.75 75.13L118.75 75.13Q119.50 75.13 120.13 75.06Q120.75 75 121.25 74.88L121.25 74.88Q121.75 74.75 122.13 74.56Q122.50 74.38 122.63 74.25L122.63 74.25Q122.75 74 122.88 73.75Q123 73.50 123 73.38L123 73.38Q123.13 73.25 123.13 73Q123.13 72.75 123.13 72.50L123.13 72.50L123.13 71.50Q122.38 71.63 121.69 71.69Q121 71.75 120.38 71.75L120.38 71.75Q118.50 71.75 117 71.19Q115.50 70.63 114.38 69.50L114.38 69.50Q113.38 68.25 112.88 66.69Q112.38 65.13 112.38 62.88L112.38 62.88ZM116.75 63L116.75 63Q116.75 64.50 116.94 65.56Q117.13 66.63 117.75 67.13L117.75 67.13Q118.25 67.63 118.94 67.94Q119.63 68.25 120.75 68.25L120.75 68.25Q121.38 68.25 122 68.19Q122.63 68.13 123.25 68L123.25 68L123.25 59.75Q123.25 58.75 122.50 58.25Q121.75 57.75 120.25 57.75L120.25 57.75Q120.25 57.75 120.25 57.75Q120.25 57.75 120.25 57.75L120.25 57.75Q119.38 57.75 118.69 58.06Q118 58.38 117.63 59L117.63 59Q117.13 59.63 116.94 60.63Q116.75 61.63 116.75 63L116.75 63Z"/></svg>