<svg xmlns="http://www.w3.org/2000/svg" xmlns:xlink="http://www.w3.org/1999/xlink" width="128" height="128"><path fill="#000000" d="M94.25 3.88L94.25 3.88L33.75 3.88Q27.50 3.88 22 6.25L22 6.25Q16.50 8.63 12.38 12.75Q8.25 16.88 5.88 22.38L5.88 22.38Q3.50 27.88 3.50 34.13L3.50 34.13L3.50 94.75Q3.50 100.88 5.88 106.38L5.88 106.38Q8.25 111.88 12.38 116Q16.50 120.13 22 122.50L22 122.50Q27.50 124.88 33.75 124.88L33.75 124.88L94.25 124.88Q100.50 124.88 106 122.50L106 122.50Q111.50 120.13 115.63 116Q119.75 111.88 122.13 106.38L122.13 106.38Q124.50 100.88 124.50 94.75L124.50 94.75L124.50 34.13Q124.50 27.88 122.13 22.38L122.13 22.38Q119.75 16.88 115.63 12.75Q111.50 8.63 106 6.25L106 6.25Q100.50 3.88 94.25 3.88ZM68.88 104.75L68.88 104.75Q60.50 105.88 52.50 103.63L52.50 103.63Q44.50 101.38 38.13 96.69Q31.75 92 27.50 85.25L27.50 85.25Q23.25 78.50 22.25 70.63L22.25 70.63Q21.25 61.25 23.63 53.13L23.63 53.13Q26 44.88 31.06 38.69Q36.13 32.50 43.63 28.63L43.63 28.63Q51.25 24.75 60.50 24.25L60.50 24.25Q68.63 23.63 76.81 23.75Q85 23.88 93.25 24.25L93.25 24.25Q94.50 24.25 97.94 24.25Q101.38 24.25 101.38 24.25L101.38 24.25Q101.38 24.25 101.38 25.63Q101.38 27 101.38 27.38L101.38 27.38Q101.50 29.88 100.69 32.88Q99.88 35.88 98.13 37.25L98.13 37.25Q95.38 39.50 91.81 40.81Q88.25 42.13 84.75 42.75L84.75 42.75Q80 43.38 75.31 43.13Q70.63 42.88 65.88 43L65.88 43Q55.50 43.25 49.06 47.63Q42.63 52 41.25 59.88L41.25 59.88Q40 67.88 42.69 74.06Q45.38 80.25 52.88 83.75L52.88 83.75Q61.25 87.75 69.50 85.38Q77.75 83 85.25 73.88L85.25 73.88Q75.88 72.13 66.06 72.31Q56.25 72.50 55 56.75L55 56.75Q61.50 56.75 67.75 56.75L67.75 56.75Q74.13 56.75 80.44 56.75Q86.75 56.75 93 56.75L93 56.75Q99.13 56.75 105.38 56.75L105.38 56.75Q106.88 66.13 105 74.38L105 74.38Q103.13 82.50 98.31 88.81Q93.50 95.13 86 99.25L86 99.25Q78.50 103.38 68.88 104.75L68.88 104.75Z"/></svg>