<svg xmlns="http://www.w3.org/2000/svg" xmlns:xlink="http://www.w3.org/1999/xlink" width="128" height="128"><path fill="#000000" d="M55.75 71.13L55.75 71.13L49.13 71.13Q48.50 71.13 48 71.06Q47.50 71 47 70.88L47 70.88L47.13 70.88Q46.13 70.50 45.38 69.81Q44.63 69.13 44 68L44 68Q43.50 67.13 43.25 65.94Q43 64.75 43 63.50L43 63.50Q43 62.25 43.25 61.13Q43.50 60 43.88 59L43.88 59Q44.38 57.88 45.13 57.19Q45.88 56.50 46.75 56L46.75 56Q47.38 55.75 48.13 55.63Q48.88 55.50 49.63 55.50L49.63 55.50L55.75 55.50L55.75 58.50L49.38 58.50Q48.63 58.50 48.06 58.88Q47.50 59.25 47.25 60.13L47.25 60.13Q46.88 60.88 46.75 61.75Q46.63 62.63 46.63 63.75L46.63 63.75Q46.63 64.63 46.81 65.38Q47 66.13 47.38 66.75L47.38 66.75Q47.75 67.50 48.31 67.88Q48.88 68.25 49.63 68.25L49.63 68.25L55.75 68.25L55.75 71.13ZM67 71.25L67 71.25L61.63 71.25Q60.75 71.25 59.88 70.81Q59 70.38 58.25 69.50L58.25 69.50Q57.63 68.63 57.25 67.63Q56.88 66.63 56.88 65.50L56.88 65.50Q56.88 64.25 57.25 63.25Q57.63 62.25 58.38 61.38L58.38 61.38Q59.25 60.38 60.13 59.94Q61 59.50 61.88 59.50L61.88 59.50L66.88 59.50L66.88 61.88L63.25 61.88Q62.88 61.88 62.56 61.94Q62.25 62 62 62L62 62Q61.75 62.13 61.56 62.25Q61.38 62.38 61.13 62.50L61.13 62.50Q60.75 62.88 60.56 63.31Q60.38 63.75 60.38 64.38L60.38 64.38L66.88 64.38L66.88 66.75L60.38 66.75Q60.38 67 60.44 67.25Q60.50 67.50 60.50 67.63L60.50 67.63Q60.63 67.88 60.75 68.06Q60.88 68.25 61 68.38L61 68.38Q61.25 68.63 61.44 68.75Q61.63 68.88 61.88 68.88L61.88 68.88Q62.13 69 62.44 69Q62.75 69 63 69L63 69Q63.13 69 63.13 69Q63.13 69 63.13 69L63.13 69L63.13 69L67 69L67 71.25ZM79.38 71.13L79.38 71.13L76.25 71.13L76.25 63.50Q76.25 63.50 76.25 63.50Q76.25 63.50 76.25 63.50L76.25 63.50Q76.25 63.38 76.25 63.25Q76.25 63.13 76.13 63L76.13 63L76.13 63Q76.13 62.88 76 62.75Q75.88 62.63 75.75 62.50L75.75 62.50L75.75 62.50Q75.63 62.38 75.38 62.25Q75.13 62.13 74.88 62.13L74.88 62.13Q74.88 62.13 74.81 62.13Q74.75 62.13 74.75 62.13L74.75 62.13L71.88 62.13L71.88 71.13L68.88 71.13L68.88 59.50L74.63 59.50Q75.38 59.50 75.94 59.56Q76.50 59.63 76.88 59.75L76.88 59.75Q77.38 59.88 77.81 60.13Q78.25 60.38 78.63 60.88L78.63 60.88Q78.88 61.38 79.13 62Q79.38 62.63 79.38 63.25L79.38 63.25Q79.38 63.25 79.38 63.25Q79.38 63.25 79.38 63.25L79.38 63.25L79.38 63.25L79.38 71.13ZM88 62L88 62L85 62L85 67.25Q85 67.63 85.13 67.88Q85.25 68.13 85.50 68.38L85.50 68.38Q85.75 68.63 86.13 68.75Q86.50 68.88 87 68.88L87 68.88L87.88 68.88L87.88 71.13L85 71.13Q85 71.13 85 71.13Q85 71.13 85 71.13L85 71.13Q84.38 71.13 83.81 70.88Q83.25 70.63 82.88 70.13L82.88 70.13L82.88 70.13Q82.63 69.88 82.50 69.63Q82.38 69.38 82.25 69L82.25 69L82.25 69Q82.13 68.63 82.13 68.25Q82.13 67.88 82.13 67.50L82.13 67.50Q82.13 67.50 82.13 67.44Q82.13 67.38 82.13 67.38L82.13 67.38L82.13 67.38L82.13 62L80.13 62L80.13 59.50L82.13 59.50L82.13 55.50L85 55.50L85 59.50L88 59.50L88 62ZM105.63 63.25L105.63 63.25Q105.63 65.50 105.06 67.19Q104.50 68.88 103.25 69.75L103.25 69.75Q102.25 70.63 100.81 71Q99.38 71.38 97.38 71.38L97.38 71.38Q95.25 71.38 93.69 70.94Q92.13 70.50 91.13 69.50L91.13 69.50Q90.13 68.50 89.56 66.94Q89 65.38 89 63.13L89 63.13Q89 61.25 89.50 59.81Q90 58.38 90.88 57.38L90.88 57.38Q92 56.25 93.63 55.69Q95.25 55.13 97.38 55.13L97.38 55.13Q99.75 55.13 101.38 55.69Q103 56.25 104 57.25L104 57.25Q104.88 58.25 105.25 59.75Q105.63 61.25 105.63 63.25ZM101.88 63.13L101.88 63.13Q101.88 62 101.56 61.06Q101.25 60.13 100.75 59.50L100.75 59.50Q100.13 58.75 99.25 58.38Q98.38 58 97.25 58L97.25 58Q96.13 58 95.25 58.38Q94.38 58.75 93.75 59.63L93.75 59.63Q93.25 60.25 93 61.19Q92.75 62.13 92.75 63.13L92.75 63.13Q92.75 64.50 92.94 65.38Q93.13 66.25 93.50 66.88L93.50 66.88Q94.13 67.75 95.13 68.19Q96.13 68.63 97.63 68.63L97.63 68.63Q98.75 68.63 99.63 68.19Q100.50 67.75 101 67L101 67Q101.38 66.38 101.63 65.38Q101.88 64.38 101.88 63.13L101.88 63.13ZM123 66.25L123 66.25Q123 67.25 122.69 68.13Q122.38 69 121.75 69.75L121.75 69.75Q121 70.50 120.19 70.81Q119.38 71.13 118.38 71.13L118.38 71.13L107.63 71.13L107.63 68.25L116.50 68.25Q116.88 68.25 117.25 68.19Q117.63 68.13 118 67.88L118 67.88Q118.38 67.63 118.50 67.31Q118.63 67 118.63 66.50L118.63 66.50Q118.63 65.50 117.94 65Q117.25 64.50 115.88 64.50L115.88 64.50L111.50 64.50Q110.50 64.50 109.63 64.19Q108.75 63.88 108.13 63.38L108.13 63.38Q107.38 62.75 107 61.94Q106.63 61.13 106.63 60.13L106.63 60.13Q106.63 59.13 107 58.25Q107.38 57.38 108 56.75L108 56.75Q108.75 56.13 109.69 55.81Q110.63 55.50 111.75 55.50L111.75 55.50L122 55.50L122 58.13L113 58.13Q112.75 58.13 112.44 58.25Q112.13 58.38 111.75 58.63L111.75 58.63Q111.50 58.88 111.31 59.19Q111.13 59.50 111.13 59.88L111.13 59.88Q111.13 59.88 111.13 59.88Q111.13 59.88 111.13 59.88L111.13 59.88Q111.13 60.38 111.31 60.69Q111.50 61 111.75 61.25L111.75 61.25L111.75 61.25Q112 61.50 112.38 61.63Q112.75 61.75 113.25 61.75L113.25 61.75L118.13 61.75Q119.25 61.75 120.19 62.06Q121.13 62.38 121.75 63L121.75 63Q122.38 63.63 122.69 64.44Q123 65.25 123 66.25L123 66.25ZM24.75 51.38L21.25 47.88L17.88 51.25L20.13 51.25L20.13 60.25L21.25 61.38L22.38 60.25L22.38 51.38L24.75 51.38ZM16 52L9.88 52L9.88 58.13L12.38 55.63L18.25 61.50L19.38 61.50L19.38 60.63L13.50 54.63L16 52ZM19.38 52L17.13 52L14.50 54.63L19.38 59.50L19.38 52ZM25.38 52.13L23.13 52.13L23.13 59.50L28 54.63L25.38 52.13ZM32.63 52.38L26.63 52.38L29 54.63L23.13 60.63L23.13 61.50L24.13 61.50L30 55.63L32.63 58.13L32.63 52.38ZM32.63 59.25L30 56.63L25.13 61.50L32.63 61.50L32.63 59.25ZM17.25 61.50L12.38 56.63L9.88 59.13L9.88 61.50L17.25 61.50ZM9.13 62.25L9.13 59.88L5.50 63.38L9.13 67L9.13 64.50L18.13 64.50L19.13 63.38L18 62.25L9.13 62.25ZM36.75 63.38L33.38 60L33.25 62.25L24.50 62.25L23.25 63.38L24.38 64.50L33.25 64.50L33.25 67L36.75 63.38ZM17.38 65.25L9.88 65.25L9.88 67.63L12.38 70.13L17.38 65.25ZM19.38 65.25L18.38 65.25L12.38 71.13L9.88 68.75L9.88 74.75L15.75 74.75L13.25 72.25L19.38 66.13L19.38 65.25ZM24 65.25L23 65.25L23 66.38L29 72.25L26.75 74.50L32.50 74.50L32.50 68.75L30.25 71L30 71.25L24 65.25ZM32.50 65.25L25.13 65.25L30 70.25L32.50 67.75L32.50 65.25ZM22.25 66.63L21.13 65.50L20.13 66.50L20.13 75.50L17.63 75.50L21.13 78.88L24.63 75.50L22.25 75.50L22.25 66.63ZM19.38 74.75L19.38 67.25L14.25 72.25L16.88 74.75L19.38 74.75ZM28 72.25L23 67.38L23 74.75L25.38 74.75L28 72.25Z"/></svg>