<svg xmlns="http://www.w3.org/2000/svg" xmlns:xlink="http://www.w3.org/1999/xlink" width="128" height="128"><path fill="#000000" d="M64.63 5.75L64.63 5.75L52 18.63L60.50 18.63L60.50 52.38L64.63 56.63L68.75 52.50L68.75 18.75L77.50 18.75L64.63 5.75ZM22.38 21.38L22.38 21.38L22.38 44.25L31.63 35L53.63 57L57.75 57L57.75 53.50L35.88 31.25L45.50 21.38L22.38 21.38ZM49.25 21.38L49.25 21.38L39.63 31.25L57.75 49.63L57.75 21.38L49.25 21.38ZM71.50 21.63L71.50 21.63L71.50 49.63L89.63 31.25L80.13 21.63L71.50 21.63ZM106.75 22.50L84.88 22.50L93.50 31.25L71.50 53.63L71.50 57.25L75.38 57.25L97.25 34.88L106.75 44.50L106.75 22.50ZM97.25 38.88L97.25 38.88L79.25 57.25L106.75 57.25L106.75 48.38L97.25 38.88ZM31.63 38.88L31.63 38.88L22.38 48.13L22.38 57L49.75 57L31.63 38.88ZM19.63 50.88L19.63 50.88L6.25 64.25L19.63 77.50L19.63 68.25L53 68.25L57 64.25L52.50 59.75L19.63 59.75L19.63 50.88ZM109.38 51.25L109.38 51.25L109.38 60L76.50 60L72.25 64.25L76.13 68.25L109.25 68.25L109.25 77.63L122.25 64.25L109.38 51.25ZM22.38 71L22.38 71L22.38 80.25L31.63 89.50L50.25 71L22.38 71ZM54.13 71L54.13 71L31.63 93.38L22.38 84.13L22.38 106.75L44.63 106.75L35 97.25L57.75 74.63L57.75 71L54.13 71ZM71.38 71L71.38 71L71.38 75.13L93.50 97.25L84.88 105.88L106.50 105.88L106.50 84.25L98.25 92.75L97.25 93.63L75 71L71.38 71ZM78.88 71L78.88 71L97.25 89.75L106.50 80.38L106.50 71L78.88 71ZM64.25 72L64.25 72L60.50 75.75L60.50 109.63L51.25 109.63L64.25 122.63L77.38 109.63L68.63 109.63L68.63 76.25L64.25 72ZM57.75 78.50L57.75 78.50L38.88 97.25L48.50 106.88L57.75 106.88L57.75 78.50ZM89.63 97.25L71.38 79L71.38 106.88L80.13 106.88L89.63 97.25Z"/></svg>