<svg xmlns="http://www.w3.org/2000/svg" xmlns:xlink="http://www.w3.org/1999/xlink" width="128" height="128"><path fill="#000000" d="M1 1L1 1L1 126.75Q1.75 126.88 1.94 126.94Q2.13 127 2.38 127L2.38 127Q16 127 29.63 127L29.63 127Q43.25 127 56.88 127Q70.50 127 84.13 127L84.13 127Q97.75 127 111.25 127L111.25 127Q115 127 118.69 127Q122.38 127 126.13 127L126.13 127Q126.38 127 126.69 126.94Q127 126.88 127 126.75L127 126.75Q127 111 127 95.38L127 95.38Q127 79.63 127 63.94Q127 48.25 127 32.50L127 32.50Q127 16.75 127 1L127 1L1 1ZM115 63.88L115 63.88L115 112.50Q115 113.75 114.69 113.88Q114.38 114 113.13 114L113.13 114L15.75 114Q14.50 114 14.25 113.88Q14 113.75 14 112.50L14 112.50L14 15.25Q14 14 14.31 13.50Q14.63 13 15.88 13L15.88 13L113 13Q114.25 13 114.63 13.50Q115 14 115 15.38L115 15.38L115 63.88ZM64.38 40.38L64.38 40.38Q64.25 39.88 63.94 39.75Q63.63 39.63 63.25 39.63L63.25 39.63Q60.88 39.75 58.56 39.75Q56.25 39.75 53.88 39.63L53.88 39.63Q53.13 39.63 52.75 39.94Q52.38 40.25 52.13 40.88L52.13 40.88Q50.50 46.13 48.88 51.25L48.88 51.25Q47.25 56.38 45.56 61.56Q43.88 66.75 42.25 71.88L42.25 71.88Q40.63 77.13 38.88 82.25L38.88 82.25Q38.38 83.88 37.88 85.63Q37.38 87.38 36.75 89.13L36.75 89.13Q38.88 89.13 40.94 89.13Q43 89.13 45 89.25L45 89.25Q45.63 89.25 46 89Q46.38 88.75 46.50 88.13L46.50 88.13Q47.38 85.13 48.25 82.19Q49.13 79.25 50 76.38L50 76.38Q50.25 75.63 50.56 75.38Q50.88 75.13 51.63 75.13L51.63 75.13Q55 75.25 58.31 75.25Q61.63 75.25 64.88 75.13L64.88 75.13Q65.50 75.13 65.81 75.38Q66.13 75.63 66.38 76.25L66.38 76.25Q67.25 79.25 68.19 82.19Q69.13 85.13 70.13 88L70.13 88Q70.25 88.63 70.56 88.88Q70.88 89.13 71.63 89.13L71.63 89.13Q72.50 89 73.50 89Q74.50 89 75.50 89L75.50 89L80.13 89L80.13 88.63Q78.13 82.63 76.13 76.63L76.13 76.63Q74.25 70.50 72.25 64.50Q70.25 58.50 68.38 52.50L68.38 52.50Q66.38 46.38 64.38 40.38L64.38 40.38ZM64.25 68L52 68Q53.50 62.75 55 57.63Q56.50 52.50 58 47.38L58 47.38Q59.63 52.38 61.19 57.56Q62.75 62.75 64.25 68L64.25 68ZM82 53L82 89L92 89L92 53L82 53ZM87.13 38.50L87.13 38.50Q84.88 38.50 83.38 39.94Q81.88 41.38 82 43.50L82 43.50Q82 45.63 83.38 47Q84.75 48.38 87 48.38L87 48.38Q89.25 48.38 90.75 47Q92.25 45.63 92.13 43.50L92.13 43.50Q92.13 41.38 90.69 39.94Q89.25 38.50 87.13 38.50Z"/></svg>