<svg xmlns="http://www.w3.org/2000/svg" xmlns:xlink="http://www.w3.org/1999/xlink" width="128" height="128"><path fill="#000000" d="M48 69L48 69L63.38 69Q61.38 62.25 59.38 55.94Q57.38 49.63 55.50 43.25L55.50 43.25Q53.63 49.63 51.75 55.94Q49.88 62.25 48 69ZM124.13 1L124.13 1L2.88 1Q1.25 1 1.13 1.50Q1 2 1 3.63L1 3.63L1 125Q1 126.50 1.13 126.75Q1.25 127 2.75 127L2.75 127L124.25 127Q125.75 127 126.38 126.75Q127 126.50 127 125L127 125L127 3.75Q127 2 126.38 1.50Q125.75 1 124.13 1L124.13 1ZM77.25 96L77.25 96Q76.13 96 74.88 95.94Q73.63 95.88 72.38 96L72.38 96Q71.50 96 71.13 95.69Q70.75 95.38 70.50 94.50L70.50 94.50Q69.38 90.88 68.19 87.19Q67 83.50 65.88 79.75L65.88 79.75Q65.63 79 65.25 78.69Q64.88 78.38 64 78.38L64 78.38Q59.88 78.50 55.75 78.50Q51.63 78.50 47.50 78.38L47.50 78.38Q46.63 78.38 46.19 78.69Q45.75 79 45.50 79.88L45.50 79.88Q44.38 83.50 43.25 87.19Q42.13 90.88 41.13 94.50L41.13 94.50Q40.88 95.38 40.44 95.69Q40 96 39.13 96L39.13 96Q36.75 95.88 34.19 95.88Q31.63 95.88 28.88 95.88L28.88 95.88Q29.63 93.63 30.31 91.50Q31 89.38 31.63 87.25L31.63 87.25Q33.75 80.75 35.75 74.38L35.75 74.38Q37.88 67.88 39.94 61.44Q42 55 44 48.50L44 48.50Q46.13 42.13 48.13 35.63L48.13 35.63Q48.50 34.75 48.94 34.44Q49.38 34.13 50.25 34.13L50.25 34.13Q53.25 34.13 56.13 34.13Q59 34.13 62 34.13L62 34.13Q62.50 34.13 62.88 34.25Q63.25 34.38 63.50 35L63.50 35Q65.88 42.50 68.38 50.13L68.38 50.13Q70.75 57.63 73.19 65.19Q75.63 72.75 78.13 80.38L78.13 80.38Q80.50 87.88 83 95.38L83 95.38Q83 95.50 83 95.75Q83 96 83 96L83 96L77.25 96ZM98 51L98 96L86 96L86 51L98 51ZM91.63 44.88L91.63 44.88Q88.88 44.88 87.13 43.19Q85.38 41.50 85.38 38.88L85.38 38.88Q85.38 36.25 87.19 34.50Q89 32.75 91.75 32.75L91.75 32.75Q94.50 32.75 96.31 34.44Q98.13 36.13 98.13 38.88L98.13 38.88Q98.13 41.50 96.31 43.19Q94.50 44.88 91.63 44.88L91.63 44.88Z"/></svg>