<svg xmlns="http://www.w3.org/2000/svg" xmlns:xlink="http://www.w3.org/1999/xlink" width="128" height="128"><path fill="#ffffff" d="M0.38 55.50L0.38 55.50L0.38 46Q0.50 45.88 0.50 45.69Q0.50 45.50 0.50 45.38L0.50 45.38Q2.75 35.63 8.88 29.63Q15 23.63 24.63 21.25L24.63 21.25Q25.50 21.13 26.38 21.06Q27.25 21 28.13 20.63L28.13 20.63L34.50 20.63Q34.63 20.88 34.75 20.88Q34.88 20.88 35.13 20.88L35.13 20.88Q39.88 21.38 44.25 23.06Q48.63 24.75 52.38 27.75L52.38 27.75Q55.63 30.25 58.31 33.31Q61 36.38 63.38 39.88L63.38 39.88Q63.63 40.25 63.81 40.25Q64 40.25 64.25 39.88L64.25 39.88Q65.63 37.88 67.06 36Q68.50 34.13 70.13 32.38L70.13 32.38Q74.13 28.13 79 25.25Q83.88 22.38 89.63 21.25L89.63 21.25Q90.50 21.13 91.44 21.06Q92.38 21 93.25 20.63L93.25 20.63L99.38 20.63Q99.50 20.88 99.63 20.88Q99.75 20.88 99.88 20.88L99.88 20.88Q101.38 21 102.69 21.25Q104 21.50 105.38 21.88L105.38 21.88Q110.38 23.38 114.63 26.25L114.63 26.25Q118.88 29.25 121.81 33.19Q124.75 37.13 126.25 42L126.25 42Q127.88 46.75 127.50 52L127.50 52Q127 60.75 122.69 67.06Q118.38 73.38 110.75 77.50L110.75 77.50Q106.88 79.50 102.69 80.19Q98.50 80.88 94.25 80.88L94.25 80.88Q88.50 80.75 83.50 78.75Q78.50 76.75 74.25 73L74.25 73Q71.25 70.50 68.88 67.44Q66.50 64.38 64.25 61L64.25 61Q64 60.50 63.81 60.56Q63.63 60.63 63.38 61L63.38 61Q62 63.13 60.50 65.13Q59 67.13 57.38 69L57.38 69Q54.50 72.38 51.06 74.94Q47.63 77.50 43.50 79L43.50 79Q38.25 80.88 33 80.94Q27.75 81 22.50 79.50L22.50 79.50Q14.88 77.38 9.69 72.63Q4.50 67.88 1.75 60.50L1.75 60.50Q1.25 59.25 1 58Q0.75 56.75 0.38 55.50L0.38 55.50ZM95.50 70.25L95.50 70.25Q97.13 70.25 98.81 70.13Q100.50 70 102 69.50L102 69.50Q107.88 67.75 111.69 63.94Q115.50 60.13 116.63 54L116.63 54Q117.75 48 115.50 43.13Q113.25 38.25 108.25 34.75L108.25 34.75Q102.63 30.88 95.25 31.19Q87.88 31.50 82.13 35.88L82.13 35.88Q78.38 38.63 75.63 42.31Q72.88 46 70.25 50L70.25 50Q70.13 50.13 70.19 50.31Q70.25 50.50 70.38 50.75L70.38 50.75Q72.38 54 74.50 57.13Q76.63 60.25 79.25 63.13L79.25 63.13Q82.50 66.63 86.50 68.50Q90.50 70.38 95.50 70.25L95.50 70.25ZM32.13 70.25L32.13 70.25Q36.38 70.38 40.06 68.94Q43.75 67.50 46.88 64.63L46.88 64.63Q50.13 61.63 52.56 58Q55 54.38 57.38 50.75L57.38 50.75Q57.50 50.50 57.50 50.31Q57.50 50.13 57.25 49.88L57.25 49.88Q55.38 46.75 53.19 43.81Q51 40.88 48.38 38.25L48.38 38.25Q43.25 33.38 37.19 31.81Q31.13 30.25 24.38 32.38L24.38 32.38Q18.63 34.25 15.19 38.25Q11.75 42.25 10.88 48.25L10.88 48.25Q10.13 53.75 12.19 58.25Q14.25 62.75 18.75 66.13L18.75 66.13Q21.63 68.38 25.06 69.31Q28.50 70.25 32.13 70.25L32.13 70.25ZM17.50 107L17.50 107Q15.75 107 15.38 106.69Q15 106.38 14.50 104.75L14.50 104.75Q14.13 103.38 13.81 103.13Q13.50 102.88 12.13 102.88L12.13 102.88Q11 102.88 9.88 102.94Q8.75 103 7.75 102.88L7.75 102.88Q7.25 102.88 7.06 103.06Q6.88 103.25 6.75 103.63L6.75 103.63Q6.63 104.25 6.38 104.94Q6.13 105.63 6 106.38L6 106.38Q5.88 106.75 5.69 106.88Q5.50 107 5.13 107L5.13 107Q4.88 106.88 4.50 106.88Q4.13 106.88 3.63 106.88L3.63 106.88Q3.25 106.88 2.88 106.88Q2.50 106.88 2.13 107L2.13 107L2.25 107Q1.75 107 1.63 106.81Q1.50 106.63 1.75 106.13L1.75 106.13Q2.75 102.63 3.88 99.06Q5 95.50 6 91.88L6 91.88Q6.38 90.75 6.81 89.50Q7.25 88.25 7.50 87L7.50 87Q7.63 86.63 7.81 86.44Q8 86.25 8.50 86.25L8.50 86.25Q9.63 86.25 10.75 86.25Q11.88 86.25 13 86.25L13 86.25Q13.38 86.25 13.56 86.38Q13.75 86.50 13.75 86.88L13.75 86.88Q15.25 91.75 16.75 96.56Q18.25 101.38 19.75 106.25L19.75 106.25Q19.88 106.63 19.75 106.81Q19.63 107 19.13 107L19.13 107Q18.75 106.88 18.31 106.94Q17.88 107 17.50 107L17.50 107ZM10.63 91.25L10.63 91.25L10.50 91.25Q9.88 93.25 9.31 95.25Q8.75 97.25 8.13 99.25L8.13 99.25Q8.25 99.38 8.31 99.38Q8.38 99.38 8.38 99.38L8.38 99.38Q9.13 99.38 9.81 99.38Q10.50 99.38 11.13 99.38L11.13 99.38Q12.50 99.38 12.69 99.19Q12.88 99 12.50 97.75L12.50 97.75Q12 96.13 11.56 94.50Q11.13 92.88 10.63 91.25L10.63 91.25ZM127.63 93.88L127.63 99.25Q127.50 99.88 127.25 100.63Q127 101.38 126.75 102L126.75 102Q125.13 106.25 120.38 107.19Q115.63 108.13 112.75 104.75L112.75 104.75Q111.75 103.50 111.25 102.19Q110.75 100.88 110.63 99.38L110.63 99.38Q110.38 97.25 110.50 95.25Q110.63 93.25 111.38 91.25L111.38 91.25Q112.50 88.50 114.75 87.13Q117 85.75 120.13 86L120.13 86Q123 86.13 124.81 87.81Q126.63 89.50 127.25 92.38L127.25 92.38Q127.38 92.75 127.44 93.13Q127.50 93.50 127.63 93.88L127.63 93.88ZM115.13 96.63L115 96.63Q115.13 97.75 115.19 98.88Q115.25 100 115.63 101L115.63 101Q116 101.88 116.56 102.44Q117.13 103 118 103.25L118 103.25Q119.63 103.75 120.88 103.06Q122.13 102.38 122.50 100.75L122.50 100.75Q123.25 98.75 123.19 96.63Q123.13 94.50 122.63 92.50L122.63 92.50Q122.13 91.13 121.31 90.50Q120.50 89.88 119.25 89.75L119.25 89.75Q117.88 89.75 117 90.38Q116.13 91 115.63 92.38L115.63 92.38Q115.25 93.38 115.19 94.44Q115.13 95.50 115.13 96.63L115.13 96.63ZM39 96.63L39 96.63Q39 94.25 39 91.88Q39 89.50 39 87.25L39 87.25Q39 86.63 39.13 86.44Q39.25 86.25 39.88 86.25L39.88 86.25Q41.75 86.38 43.63 86.25Q45.50 86.13 47.38 86.38L47.38 86.38Q50.88 86.88 52.81 88.75Q54.75 90.63 55.13 94.25L55.13 94.25Q55.25 96 55.13 97.75Q55 99.50 54.38 101.13L54.38 101.13Q53.50 103.75 51.50 105.06Q49.50 106.38 46.88 106.75L46.88 106.75Q45 107 43.19 106.94Q41.38 106.88 39.63 107L39.63 107Q39.13 107 39.06 106.75Q39 106.50 39 106.13L39 106.13L39 96.63ZM43.38 96.63L43.38 96.63L43.38 101.38Q43.38 102.88 43.63 103.13Q43.88 103.38 45.38 103.25L45.38 103.25Q47.38 103.25 48.56 102.25Q49.75 101.25 50.25 99.38L50.25 99.38Q50.63 97.88 50.56 96.31Q50.50 94.75 50.13 93.25L50.13 93.25Q49.75 91.88 48.81 91Q47.88 90.13 46.38 90L46.38 90Q45.75 89.88 45.19 89.88Q44.63 89.88 44.13 89.88L44.13 89.88Q43.63 89.88 43.50 90.06Q43.38 90.25 43.38 90.63L43.38 90.63Q43.38 92.13 43.38 93.63Q43.38 95.13 43.38 96.63L43.38 96.63ZM57.13 94L57.13 94Q57.13 92.25 57.13 90.50Q57.13 88.75 57.13 87L57.13 87Q57 86.63 57.19 86.44Q57.38 86.25 57.75 86.25L57.75 86.25Q58.50 86.25 59.25 86.25Q60 86.25 60.63 86.25L60.63 86.25Q61.13 86.25 61.31 86.44Q61.50 86.63 61.38 87.13L61.38 87.13Q61.38 90 61.38 92.94Q61.38 95.88 61.38 98.88L61.38 98.88Q61.38 99.38 61.44 99.88Q61.50 100.38 61.50 100.88L61.50 100.88Q61.63 102.25 62.44 102.94Q63.25 103.63 64.75 103.75L64.75 103.75Q66.38 103.75 67.19 103.06Q68 102.38 68.25 101L68.25 101Q68.25 100.50 68.31 100Q68.38 99.50 68.38 99L68.38 99Q68.38 96.13 68.38 93.19Q68.38 90.25 68.38 87.25L68.38 87.25Q68.38 86.75 68.56 86.50Q68.75 86.25 69.38 86.25L69.38 86.25Q70 86.38 70.69 86.31Q71.38 86.25 72 86.25L72 86.25Q72.38 86.25 72.56 86.38Q72.75 86.50 72.75 86.88L72.75 86.88Q72.75 90.25 72.75 93.63Q72.75 97 72.63 100.38L72.63 100.38Q72.63 103.25 70.81 105.06Q69 106.88 66.13 107.25L66.13 107.25Q64.88 107.38 63.63 107.25Q62.38 107.13 61.25 106.75L61.25 106.75Q59.25 106.13 58.19 104.63Q57.13 103.13 57.13 100.88L57.13 100.88Q57 99.13 57.06 97.44Q57.13 95.75 57.13 94L57.13 94ZM31.75 97.13L31.88 97.13Q33 98 33.56 99.25Q34.13 100.50 34.75 101.63L34.75 101.63Q35.25 102.75 35.81 103.88Q36.38 105 37 106.25L37 106.25Q37.25 106.63 37.19 106.81Q37.13 107 36.63 107L36.63 107Q36.13 106.88 35.69 106.88Q35.25 106.88 34.75 106.88L34.75 106.88Q34.25 106.88 33.75 106.88Q33.25 106.88 32.75 107L32.75 107L32.88 107Q32.50 107 32.31 106.81Q32.13 106.63 32 106.38L32 106.38Q31.25 104.88 30.63 103.38Q30 101.88 29.25 100.50L29.25 100.50Q29 99.63 28.38 99.13Q27.75 98.63 26.88 98.50L26.88 98.50Q26.25 98.50 26.13 98.69Q26 98.88 26 99.38L26 99.38Q26 101.13 26 102.75Q26 104.38 26 106.13L26 106.13Q26 106.63 25.81 106.81Q25.63 107 25.13 107L25.13 107Q24.50 106.88 23.75 106.88Q23 106.88 22.38 107L22.38 107Q22 107 21.81 106.88Q21.63 106.75 21.63 106.25L21.63 106.25Q21.63 101.38 21.63 96.56Q21.63 91.75 21.63 86.88L21.63 86.88Q21.63 86.75 21.63 86.50Q21.63 86.25 22 86.25L22 86.25Q24.38 86.38 26.75 86.25Q29.13 86.13 31.38 86.63L31.38 86.63Q34.63 87.38 35.31 89.63Q36 91.88 35.50 93.88L35.50 93.88Q35.13 95.25 34.13 96Q33.13 96.75 31.75 97.13L31.75 97.13ZM26 92.38L26 92.38L26 94.63Q26 94.88 26 95Q26 95.13 26.38 95.13L26.38 95.13Q27.25 95.13 28.13 95.13Q29 95.13 29.88 94.63L29.88 94.63Q30.63 94.25 30.94 93.56Q31.25 92.88 31.13 92L31.13 92Q31 91.25 30.56 90.75Q30.13 90.25 29.38 90.13L29.38 90.13Q28.88 90 28.38 89.94Q27.88 89.88 27.38 89.88L27.38 89.88L27.38 89.88Q26.13 89.88 26.06 90Q26 90.13 26 91.25L26 91.25Q26 91.50 26 91.81Q26 92.13 26 92.38L26 92.38ZM97.25 93.50L97.25 93.50L97.25 105.75Q97.25 106.63 97.13 106.75Q97 106.88 96 106.88L96 106.88Q95.63 106.88 95.13 106.88Q94.63 106.88 94.25 107L94.25 107Q93.63 107 93.44 106.81Q93.25 106.63 93.25 106.13L93.25 106.13Q93.38 103.38 93.38 100.63Q93.38 97.88 93.38 95.13L93.38 95.13Q93.38 93.13 93.38 91.13Q93.38 89.13 93.25 87L93.25 87Q93.25 86.63 93.44 86.44Q93.63 86.25 94.13 86.25L94.13 86.25Q95 86.25 95.94 86.25Q96.88 86.25 97.75 86.25L97.75 86.25Q98.13 86.25 98.38 86.44Q98.63 86.63 98.88 87L98.88 87Q100.25 90 101.69 93.06Q103.13 96.13 104.50 99.25L104.50 99.25Q104.63 99.25 104.69 99.38Q104.75 99.50 104.88 99.75L104.88 99.75L104.88 98.63Q104.88 95.75 104.88 92.88Q104.88 90 104.88 87.13L104.88 87.13Q104.88 86.63 105 86.44Q105.13 86.25 105.63 86.25L105.63 86.25Q106.25 86.25 106.94 86.25Q107.63 86.25 108.25 86.25L108.25 86.25Q108.63 86.25 108.75 86.38Q108.88 86.50 108.88 86.88L108.88 86.88Q108.88 91.75 108.88 96.56Q108.88 101.38 108.88 106.25L108.88 106.25Q108.88 106.63 108.75 106.81Q108.63 107 108.25 107L108.25 107Q107.88 106.88 107.38 106.88Q106.88 106.88 106.38 106.88L106.38 106.88Q105.75 106.88 105.25 106.88Q104.75 106.88 104.13 107L104.13 107L104.25 107Q103.88 107 103.69 106.75Q103.50 106.50 103.38 106.25L103.38 106.25Q95.38 87.38 92.81 81.75Q90.25 76.13 88.88 73.13L88.88 73.13L97.75 94.13Q97.75 93.88 97.69 93.75Q97.63 93.63 97.25 93.50L97.25 93.50ZM83 86.25L83 86.25Q84.50 86.25 86 86.25Q87.50 86.25 89.13 86.25L89.13 86.25Q89.50 86.25 89.69 86.44Q89.88 86.63 89.88 87L89.88 87Q89.75 87.25 89.75 87.50Q89.75 87.75 89.75 88.13L89.75 88.13Q89.75 88.38 89.75 88.63Q89.75 88.88 89.88 89.13L89.88 89.13L89.88 89.13Q89.88 89.50 89.69 89.69Q89.50 89.88 89.13 89.88L89.13 89.88Q88.25 89.75 87.50 89.81Q86.75 89.88 85.88 89.75L85.88 89.75Q85.50 89.75 85.31 89.88Q85.13 90 85.13 90.50L85.13 90.50Q85.25 93.50 85.25 96.56Q85.25 99.63 85.25 102.63L85.25 102.63Q85.13 103.13 85.31 103.25Q85.50 103.38 85.88 103.38L85.88 103.38Q86.75 103.38 87.50 103.38Q88.25 103.38 89.13 103.38L89.13 103.38Q89.50 103.38 89.69 103.56Q89.88 103.75 89.88 104.13L89.88 104.13Q89.75 104.63 89.75 105.19Q89.75 105.75 89.75 106.38L89.75 106.38Q89.88 106.63 89.69 106.81Q89.50 107 89.25 107L89.25 107Q86.13 106.88 83 106.88Q79.88 106.88 76.75 107L76.75 107Q76.50 107 76.31 106.81Q76.13 106.63 76.13 106.25L76.13 106.25Q76.13 106 76.13 105.75Q76.13 105.50 76.13 105.25L76.13 105.25Q76.13 104.88 76.13 104.63Q76.13 104.38 76.13 104L76.13 104L76.13 104.13Q76.13 103.63 76.25 103.50Q76.38 103.38 76.88 103.38L76.88 103.38Q77.63 103.38 78.44 103.38Q79.25 103.38 80.13 103.38L80.13 103.38Q80.50 103.38 80.63 103.25Q80.75 103.13 80.75 102.75L80.75 102.75Q80.75 99.63 80.75 96.56Q80.75 93.50 80.75 90.38L80.75 90.38Q80.75 90 80.63 89.88Q80.50 89.75 80.13 89.75L80.13 89.75Q79.38 89.88 78.56 89.81Q77.75 89.75 76.88 89.88L76.88 89.88Q76.38 89.88 76.25 89.69Q76.13 89.50 76.13 89L76.13 89Q76.25 88.38 76.06 87.63Q75.88 86.88 76.38 86.38L76.38 86.38Q76.75 86 77.44 86.13Q78.13 86.25 78.88 86.25L78.88 86.25Q79.88 86.25 80.88 86.25Q81.88 86.25 83 86.25L83 86.25ZM124.88 24.50L124.88 24.50Q124.75 24.63 124.69 24.69Q124.63 24.75 124.63 24.75L124.63 24.75Q124.50 25.13 124.44 25.50Q124.38 25.88 124 25.88L124 25.88Q123.50 25.88 123.50 25.50Q123.50 25.13 123.38 24.88L123.38 24.88Q123.38 24.75 123.31 24.69Q123.25 24.63 123.13 24.38L123.13 24.38Q123.13 24.75 123.13 25Q123.13 25.25 123.13 25.50L123.13 25.50Q123.13 25.63 123.06 25.75Q123 25.88 122.88 25.88L122.88 25.88Q122.63 25.88 122.56 25.75Q122.50 25.63 122.50 25.50L122.50 25.50Q122.50 25 122.50 24.50Q122.50 24 122.50 23.50L122.50 23.50Q122.50 23.25 122.56 23.13Q122.63 23 122.88 23L122.88 23Q123 23 123.19 23Q123.38 23 123.50 23.25L123.50 23.25Q123.63 23.63 123.69 23.94Q123.75 24.25 124 24.63L124 24.63Q124.25 24.25 124.31 23.94Q124.38 23.63 124.50 23.38L124.50 23.38Q124.50 23 124.69 23Q124.88 23 125.13 23L125.13 23Q125.38 23 125.38 23.13Q125.38 23.25 125.38 23.50L125.38 23.50Q125.38 24 125.38 24.50Q125.38 25 125.38 25.50L125.38 25.50Q125.38 25.63 125.38 25.75Q125.38 25.88 125.13 25.88L125.13 25.88Q124.88 25.88 124.88 25.75Q124.88 25.63 124.88 25.50L124.88 25.50Q124.88 25.25 124.88 25Q124.88 24.75 124.88 24.50ZM121.13 23L121.13 23Q121.25 23 121.31 22.94Q121.38 22.88 121.38 23L121.38 23Q121.63 23 121.94 22.94Q122.25 22.88 122.38 23.13L122.38 23.13Q122.50 23.50 122.19 23.50Q121.88 23.50 121.63 23.50L121.63 23.50Q121.50 23.63 121.50 23.75Q121.50 23.88 121.50 24L121.50 24Q121.50 24.38 121.50 24.75Q121.50 25.13 121.50 25.50L121.50 25.50Q121.50 25.63 121.44 25.75Q121.38 25.88 121.13 25.88L121.13 25.88Q120.88 25.88 120.81 25.75Q120.75 25.63 120.75 25.50L120.75 25.50Q120.75 25.13 120.75 24.81Q120.75 24.50 120.75 24.13L120.75 24.13Q120.75 23.88 120.69 23.69Q120.63 23.50 120.25 23.50L120.25 23.50Q120.13 23.50 120 23.44Q119.88 23.38 119.88 23.25L119.88 23.25Q119.88 23 120.06 23Q120.25 23 120.38 23L120.38 23Q120.50 23 120.75 23Q121 23 121.13 23L121.13 23ZM95 41.13L95 41.13Q95.63 41.13 96.19 41.13Q96.75 41.13 97.38 41.13L97.38 41.13Q97.75 41.13 97.88 41.25Q98 41.38 98 41.75L98 41.75Q98 42.88 98 43.94Q98 45 98 46L98 46Q97.88 46.50 98.06 46.69Q98.25 46.88 98.75 46.88L98.75 46.88Q99.75 46.88 100.81 46.88Q101.88 46.88 102.88 46.88L102.88 46.88Q103.38 46.88 103.56 47Q103.75 47.13 103.75 47.63L103.75 47.63Q103.75 48.13 103.75 48.75Q103.75 49.38 103.75 50L103.75 50Q103.75 50.50 103.75 51.13Q103.75 51.75 103.75 52.25L103.75 52.25L103.75 52.13Q103.75 52.63 103.56 52.75Q103.38 52.88 103 52.88L103 52.88Q101.88 52.88 100.81 52.88Q99.75 52.88 98.75 52.88L98.75 52.88Q98.25 52.88 98.06 53Q97.88 53.13 98 53.63L98 53.63Q98 54.63 98 55.69Q98 56.75 98 57.88L98 57.88Q98 58.25 97.81 58.44Q97.63 58.63 97.25 58.63L97.25 58.63Q96.63 58.63 96.06 58.63Q95.50 58.63 94.88 58.63L94.88 58.63Q94.25 58.63 93.69 58.63Q93.13 58.63 92.63 58.63L92.63 58.63L92.75 58.63Q92.25 58.63 92.06 58.50Q91.88 58.38 92 57.88L92 57.88Q92 56.75 92 55.69Q92 54.63 92 53.50L92 53.50Q92 53.13 91.88 53Q91.75 52.88 91.38 52.88L91.38 52.88Q90.25 52.88 89.19 52.88Q88.13 52.88 87.13 52.88L87.13 52.88Q86.50 52.88 86.31 52.69Q86.13 52.50 86.25 52L86.25 52Q86.25 50.88 86.25 49.88Q86.25 48.88 86.25 47.75L86.25 47.75Q86.13 47.25 86.38 47.06Q86.63 46.88 87.25 46.88L87.25 46.88Q88.25 46.88 89.25 46.88Q90.25 46.88 91.25 46.88L91.25 46.88Q91.63 46.88 91.81 46.75Q92 46.63 92 46.13L92 46.13Q92 45.13 92 44.06Q92 43 92 41.88L92 41.88Q91.88 41.50 92.06 41.31Q92.25 41.13 92.75 41.13L92.75 41.13Q93.25 41.13 93.88 41.13Q94.50 41.13 95 41.13L95 41.13ZM32 47.50L32 47.50Q34.38 47.50 36.81 47.50Q39.25 47.50 41.75 47.50L41.75 47.50Q42.25 47.50 42.44 47.69Q42.63 47.88 42.63 48.50L42.63 48.50Q42.63 48.75 42.56 49.13Q42.50 49.50 42.50 49.88L42.50 49.88Q42.50 50.25 42.56 50.56Q42.63 50.88 42.63 51.25L42.63 51.25L42.63 51.25Q42.63 51.75 42.44 52Q42.25 52.25 41.63 52.25L41.63 52.25Q38.38 52.13 35.19 52.13Q32 52.13 28.75 52.13L28.75 52.13Q27.13 52.13 25.50 52.13Q23.88 52.13 22.25 52.25L22.25 52.25Q21.63 52.25 21.44 52Q21.25 51.75 21.25 51.25L21.25 51.25Q21.38 50.50 21.38 49.81Q21.38 49.13 21.25 48.38L21.25 48.38Q21.25 47.88 21.44 47.69Q21.63 47.50 22.13 47.50L22.13 47.50Q24.63 47.50 27.06 47.50Q29.50 47.50 32 47.50L32 47.50Z"/></svg>