<svg xmlns="http://www.w3.org/2000/svg" xmlns:xlink="http://www.w3.org/1999/xlink" width="128" height="128"><path fill="#000000" d="M0.25 66.50L0.25 66.50L0.25 56.88Q0.50 56.88 0.50 56.69Q0.50 56.50 0.50 56.38L0.50 56.38Q2.75 46.63 8.88 40.63Q15 34.63 24.75 32.25L24.75 32.25Q25.50 32.13 26.38 32.06Q27.25 32 28.13 31.75L28.13 31.75L34.50 31.75Q34.63 31.88 34.81 31.81Q35 31.75 35.13 31.75L35.13 31.75Q39.88 32.38 44.25 34.06Q48.63 35.75 52.38 38.75L52.38 38.75Q55.75 41.25 58.38 44.31Q61 47.38 63.25 50.75L63.25 50.75Q63.63 51.25 63.81 51.25Q64 51.25 64.25 50.75L64.25 50.75Q65.63 48.88 67.06 47Q68.50 45.13 70.25 43.38L70.25 43.38Q74.13 39.13 79 36.25Q83.88 33.38 89.75 32.25L89.75 32.25Q90.50 32.13 91.44 32.06Q92.38 32 93.25 31.75L93.25 31.75L99.38 31.75Q99.50 31.88 99.63 31.81Q99.75 31.75 99.88 31.75L99.88 31.75Q101.38 32 102.69 32.25Q104 32.50 105.38 32.88L105.38 32.88Q110.38 34.38 114.63 37.25L114.63 37.25Q118.88 40.25 121.81 44.19Q124.75 48.13 126.25 53L126.25 53Q127.75 57.75 127.50 63L127.50 63Q127 71.75 122.69 78.06Q118.38 84.38 110.75 88.38L110.75 88.38Q106.88 90.50 102.69 91.19Q98.50 91.88 94.25 91.75L94.25 91.75Q88.50 91.75 83.56 89.81Q78.63 87.88 74.25 84.13L74.25 84.13Q71.25 81.50 68.88 78.38Q66.50 75.25 64.25 72L64.25 72Q64 71.50 63.81 71.56Q63.63 71.63 63.25 72.13L63.25 72.13Q62 74.13 60.50 76.13Q59 78.13 57.38 80.13L57.38 80.13Q54.50 83.38 51.06 86Q47.63 88.63 43.38 90L43.38 90Q38.25 91.75 33 91.88Q27.75 92 22.50 90.63L22.50 90.63Q14.88 88.38 9.69 83.63Q4.50 78.88 1.75 71.50L1.75 71.50Q1.25 70.25 0.94 69Q0.63 67.75 0.25 66.50L0.25 66.50ZM32.13 81.25L32.13 81.25Q36.38 81.38 40.06 79.94Q43.75 78.50 46.88 75.63L46.88 75.63Q50.13 72.63 52.63 69Q55.13 65.38 57.38 61.75L57.38 61.75Q57.50 61.50 57.50 61.31Q57.50 61.13 57.25 60.88L57.25 60.88Q55.38 57.88 53.25 54.88Q51.13 51.88 48.38 49.25L48.38 49.25Q43.25 44.38 37.19 42.81Q31.13 41.25 24.25 43.38L24.25 43.38Q18.63 45.25 15.19 49.25Q11.75 53.25 10.88 59.25L10.88 59.25Q10.13 64.88 12.19 69.38Q14.25 73.88 18.75 77.25L18.75 77.25Q21.75 79.38 25.06 80.31Q28.38 81.25 32.13 81.25L32.13 81.25ZM95.50 81.25L95.50 81.25Q97.13 81.25 98.75 81.13Q100.38 81 102 80.50L102 80.50Q107.88 78.75 111.69 74.94Q115.50 71.13 116.63 65L116.63 65Q117.75 58.88 115.50 54.06Q113.25 49.25 108.25 45.75L108.25 45.75Q102.63 41.88 95.25 42.19Q87.88 42.50 82.25 46.75L82.25 46.75Q78.38 49.63 75.63 53.31Q72.88 57 70.25 61L70.25 61Q70.13 61.25 70.19 61.44Q70.25 61.63 70.25 61.75L70.25 61.75Q72.38 65 74.50 68.19Q76.63 71.38 79.25 74.13L79.25 74.13Q82.50 77.63 86.50 79.50Q90.50 81.38 95.50 81.25L95.50 81.25ZM32 58.50L32 58.50Q34.38 58.50 36.81 58.56Q39.25 58.63 41.75 58.50L41.75 58.50Q42.25 58.50 42.44 58.69Q42.63 58.88 42.63 59.50L42.63 59.50Q42.50 60.13 42.50 60.81Q42.50 61.50 42.63 62.25L42.63 62.25Q42.63 62.75 42.44 63Q42.25 63.25 41.63 63.25L41.63 63.25L28.75 63.25Q27.13 63.25 25.50 63.19Q23.88 63.13 22.25 63.25L22.25 63.25Q21.63 63.25 21.44 63Q21.25 62.75 21.25 62.25L21.25 62.25Q21.38 61.50 21.38 60.81Q21.38 60.13 21.25 59.38L21.25 59.38Q21.25 58.88 21.44 58.69Q21.63 58.50 22.25 58.50L22.25 58.50Q24.63 58.63 27.06 58.56Q29.50 58.50 32 58.50L32 58.50ZM95 52.13L95 52.13Q95.63 52.13 96.19 52.13Q96.75 52.13 97.25 52.13L97.25 52.13Q97.63 52.13 97.81 52.25Q98 52.38 98 52.75L98 52.75Q97.88 53.88 97.94 54.94Q98 56 97.88 57L97.88 57Q97.88 57.50 98.06 57.69Q98.25 57.88 98.75 57.88L98.75 57.88Q99.75 57.88 100.81 57.88Q101.88 57.88 102.88 57.75L102.88 57.75Q103.38 57.75 103.56 57.94Q103.75 58.13 103.75 58.63L103.75 58.63L103.75 63.25Q103.75 63.63 103.56 63.75Q103.38 63.88 103 63.88L103 63.88Q102 63.88 100.94 63.88Q99.88 63.88 98.75 63.75L98.75 63.75Q98.25 63.75 98.06 63.94Q97.88 64.13 97.88 64.63L97.88 64.63Q98 65.63 97.94 66.69Q97.88 67.75 98 68.75L98 68.75Q98 69.25 97.81 69.50Q97.63 69.75 97.25 69.75L97.25 69.75Q96.13 69.63 95 69.63Q93.88 69.63 92.75 69.75L92.75 69.75Q92.25 69.75 92.06 69.56Q91.88 69.38 91.88 68.88L91.88 68.88Q92 67.75 91.94 66.69Q91.88 65.63 92 64.50L92 64.50Q92 64.13 91.81 63.94Q91.63 63.75 91.25 63.75L91.25 63.75Q90.25 63.88 89.19 63.88Q88.13 63.88 87.13 63.88L87.13 63.88Q86.50 63.88 86.38 63.69Q86.25 63.50 86.25 63L86.25 63Q86.25 62 86.25 60.94Q86.25 59.88 86.25 58.75L86.25 58.75Q86.13 58.25 86.38 58Q86.63 57.75 87.25 57.75L87.25 57.75Q88.25 57.88 89.25 57.88Q90.25 57.88 91.25 57.88L91.25 57.88Q91.63 57.88 91.81 57.75Q92 57.63 92 57.25L92 57.25Q91.88 56.13 91.94 55.06Q92 54 91.88 52.88L91.88 52.88Q91.88 52.50 92.06 52.31Q92.25 52.13 92.75 52.13L92.75 52.13Q93.25 52.13 93.81 52.13Q94.38 52.13 95 52.13L95 52.13ZM124.88 24.50L124.88 24.50Q124.75 24.63 124.69 24.69Q124.63 24.75 124.63 24.75L124.63 24.75Q124.50 25.13 124.44 25.50Q124.38 25.88 124 25.88L124 25.88Q123.50 25.88 123.50 25.50Q123.50 25.13 123.38 24.88L123.38 24.88Q123.38 24.75 123.31 24.69Q123.25 24.63 123.13 24.38L123.13 24.38Q123.13 24.75 123.13 25Q123.13 25.25 123.13 25.50L123.13 25.50Q123.13 25.63 123.06 25.75Q123 25.88 122.88 25.88L122.88 25.88Q122.63 25.88 122.56 25.75Q122.50 25.63 122.50 25.50L122.50 25.50Q122.50 25 122.50 24.50Q122.50 24 122.50 23.50L122.50 23.50Q122.50 23.25 122.56 23.13Q122.63 23 122.88 23L122.88 23Q123 23 123.19 23Q123.38 23 123.50 23.25L123.50 23.25Q123.63 23.63 123.69 23.94Q123.75 24.25 124 24.63L124 24.63Q124.25 24.25 124.31 23.94Q124.38 23.63 124.50 23.38L124.50 23.38Q124.50 23 124.69 23Q124.88 23 125.13 23L125.13 23Q125.38 23 125.38 23.13Q125.38 23.25 125.38 23.50L125.38 23.50Q125.38 24 125.38 24.50Q125.38 25 125.38 25.50L125.38 25.50Q125.38 25.63 125.38 25.75Q125.38 25.88 125.13 25.88L125.13 25.88Q124.88 25.88 124.88 25.75Q124.88 25.63 124.88 25.50L124.88 25.50Q124.88 25.25 124.88 25Q124.88 24.75 124.88 24.50ZM121.13 23L121.13 23Q121.25 23 121.31 22.94Q121.38 22.88 121.38 23L121.38 23Q121.63 23 121.94 22.94Q122.25 22.88 122.38 23.13L122.38 23.13Q122.50 23.50 122.19 23.50Q121.88 23.50 121.63 23.50L121.63 23.50Q121.50 23.63 121.50 23.75Q121.50 23.88 121.50 24L121.50 24Q121.50 24.38 121.50 24.75Q121.50 25.13 121.50 25.50L121.50 25.50Q121.50 25.63 121.44 25.75Q121.38 25.88 121.13 25.88L121.13 25.88Q120.88 25.88 120.81 25.75Q120.75 25.63 120.75 25.50L120.75 25.50Q120.75 25.38 120.75 25.13Q120.75 24.88 120.75 24.75L120.75 24.75Q120.75 24.63 120.75 24.44Q120.75 24.25 120.75 24.13L120.75 24.13L120.75 24.13Q120.75 23.88 120.69 23.69Q120.63 23.50 120.25 23.50L120.25 23.50Q120.13 23.50 120 23.44Q119.88 23.38 119.88 23.25L119.88 23.25Q119.88 23 120.06 23Q120.25 23 120.38 23L120.38 23Q120.50 23 120.75 23Q121 23 121.13 23L121.13 23Z"/></svg>