<svg xmlns="http://www.w3.org/2000/svg" xmlns:xlink="http://www.w3.org/1999/xlink" width="128" height="128"><path fill="#ffffff" d="M59.25 127.63L59.25 127.63Q50.88 126.75 43.44 124.31Q36 121.88 30 117.88L30 117.88L28.38 116.75L27.88 113.63Q27.63 111 27.31 107.56Q27 104.13 27 102.75L27 102.75L27 101.63L32.25 101.63Q34.38 101.50 36.50 101.44Q38.63 101.38 39.38 101.38L39.38 101.38Q40.75 101.13 41.19 101.19Q41.63 101.25 42.13 101.50L42.13 101.50Q46.38 104.25 52.38 105.88Q58.38 107.50 64 107.50L64 107.50Q72.88 107.50 80.69 104.25Q88.50 101 94.88 94.63L94.88 94.63Q97.63 91.75 99.44 89.31Q101.25 86.88 102.88 83.50L102.88 83.50Q105.25 79 106.38 74.13L106.38 74.13Q107.63 69.25 107.69 64.31Q107.75 59.38 106.63 54.50L106.63 54.50Q105.50 49.63 103.25 45L103.25 45Q101.13 40.38 97.88 36.50L97.88 36.50Q94.75 32.63 90.81 29.56Q86.88 26.50 82.25 24.38L82.25 24.38Q77.75 22.25 72.75 21.25L72.75 21.25Q70.25 20.75 67.13 20.50Q64 20.25 62 20.38L62 20.38L59.75 20.63L60.25 19.75Q60.50 19.38 61.88 17.94Q63.25 16.50 65 14.75L65 14.75L69.13 10.50L67.38 9Q65.63 7.25 63.38 5.38Q61.13 3.50 59.25 2.13L59.25 2.13L57.13 0.63L57.88 0.38Q59.13 0.13 64.31 0.19Q69.50 0.25 72 0.63L72 0.63Q82.13 1.88 91 6.13L91 6.13Q100 10.25 107.13 16.75Q114.25 23.25 119.25 31.75L119.25 31.75Q124.25 40.25 126.38 50.13L126.38 50.13Q127.88 56.63 127.88 63.56Q127.88 70.50 126.50 77.25L126.50 77.25Q124.75 85.75 120.50 93.75Q116.25 101.75 110.13 108.13L110.13 108.13Q106.25 112.13 101.63 115.50L101.63 115.50Q97.13 118.75 92.06 121.25Q87 123.75 81.50 125.38L81.50 125.38Q76 126.88 70.13 127.50L70.13 127.50L69.88 127.50Q68 127.63 64.38 127.69Q60.75 127.75 59.25 127.63L59.25 127.63ZM19.38 109.25L19.38 109.25Q16.63 106.50 13.75 103.06Q10.88 99.63 11.13 99.38L11.13 99.38Q11.13 99.38 12.06 99.50Q13 99.63 14.13 99.88L14.13 99.88Q16 100.25 19.13 100.75Q22.25 101.25 22.88 101.25L22.88 101.25Q23 101.25 23.06 101.94Q23.13 102.63 23.13 103.63L23.13 103.63Q23.13 105.25 23.31 107.44Q23.50 109.63 23.75 112L23.75 112Q23.88 112.75 23.81 113Q23.75 113.25 23.63 113.25L23.63 113.25Q23.50 113.25 22.25 112.06Q21 110.88 19.38 109.25L19.38 109.25ZM27 97.63L27 96.38Q27 94.88 27.25 91.69Q27.50 88.50 27.75 88.38L27.75 88.38Q27.75 88.38 28.25 88.88Q28.75 89.38 29.38 90.25L29.38 90.25Q30 91.13 31.25 92.50Q32.50 93.88 33.63 95L33.63 95L36.38 97.63L27 97.63ZM22 97.25L22 97.25Q19 96.88 14.31 95.94Q9.63 95 9.13 94.75L9.13 94.75Q9 94.63 9.19 93.88Q9.38 93.13 10 91.38L10 91.38Q10.88 89 12.25 85.63Q13.63 82.25 14 81.88L14 81.88Q14 81.75 14.88 82.13Q15.75 82.50 16.88 83.13L16.88 83.13Q18 83.75 19.44 84.44Q20.88 85.13 21.75 85.50L21.75 85.50L23.88 86.38L23.75 87.50Q23.50 89.38 23.31 91.69Q23.13 94 23.13 95.38L23.13 95.38Q23.13 96.25 23.06 96.81Q23 97.38 23 97.38L23 97.38Q22.88 97.38 22.63 97.31Q22.38 97.25 22 97.25L22 97.25ZM4.50 86.88L4.50 86.88Q3.63 84.63 2.88 82Q2.13 79.38 1.50 76.63L1.50 76.63L1.50 76.25Q0.88 73.38 1.06 73.13Q1.25 72.88 3 74.25L3 74.25Q3.88 74.88 5.19 75.88Q6.50 76.88 7.50 77.63L7.50 77.63Q8.63 78.25 9.38 78.81Q10.13 79.38 10.13 79.38L10.13 79.38Q10.13 79.50 9.81 80.13Q9.50 80.75 9.13 81.63L9.13 81.63Q8.75 82.38 8.31 83.50Q7.88 84.63 7.38 85.75L7.38 85.75L7 86.50Q6.63 87.63 6.25 88.50Q5.88 89.38 5.75 89.50L5.75 89.50Q5.75 89.63 5.38 88.81Q5 88 4.50 86.88L4.50 86.88ZM21.88 80.63L21.88 80.63Q20.50 80 18.50 79Q16.50 78 16.25 77.75L16.25 77.75Q16.13 77.63 17.50 75.38Q18.88 73.13 19.88 71.75L19.88 71.75L20.88 70.25L21 71Q21.88 74.50 22.44 76.44Q23 78.38 23.50 79.63L23.50 79.63Q23.75 80.50 24 81.13Q24.25 81.75 24.25 81.75L24.25 81.75Q24.25 81.75 23.56 81.44Q22.88 81.13 21.88 80.63ZM9.25 73.38L9.25 73.38Q7.25 72 4.75 70Q2.25 68 2 67.75L2 67.75Q1.88 67.38 6.31 63.06Q10.75 58.75 11.38 58.75L11.38 58.75Q11.38 58.75 12 59.44Q12.63 60.13 13.50 61.25L13.50 61.25Q14.25 62.25 15.19 63.44Q16.13 64.63 16.63 65.13L16.63 65.13Q17.13 65.75 17.50 66.19Q17.88 66.63 17.88 66.63L17.88 66.63Q17.88 66.75 17.31 67.63Q16.75 68.50 16 69.63L16 69.63Q15.13 70.75 14.38 72Q13.63 73.25 13.25 73.88L13.25 73.88Q13 74.38 12.63 74.81Q12.25 75.25 12.13 75.25L12.13 75.25Q12 75.25 11.19 74.69Q10.38 74.13 9.25 73.38L9.25 73.38ZM0.25 61.88L0.25 61.88Q0.25 59.50 0.88 55.19Q1.50 50.88 2.25 48L2.25 48Q3 45 3.25 45Q3.50 45 4.88 47.63L4.88 47.63Q5.50 48.88 6.31 50.31Q7.13 51.75 7.50 52.50L7.50 52.50L8.63 54.25L6.75 55.88Q6 56.50 4.75 57.63Q3.50 58.75 2.63 59.75L2.63 59.75Q1.63 60.75 0.94 61.31Q0.25 61.88 0.25 61.88L0.25 61.88ZM19.63 61L19.63 61Q18.25 59.38 16.88 57.44Q15.50 55.50 15.63 55.38L15.63 55.38Q15.75 55.25 17.44 54.06Q19.13 52.88 20.88 51.88L20.88 51.88Q22 51.13 22.19 51.06Q22.38 51 22.38 51.38L22.38 51.38Q21.88 52.88 21.38 55.38Q20.88 57.88 20.75 59.38L20.75 59.38Q20.63 60.38 20.56 61.13Q20.50 61.88 20.38 61.88L20.38 61.88Q20.38 61.88 20.13 61.63Q19.88 61.38 19.63 61L19.63 61ZM12.63 51.25L11.25 49Q9.38 45.75 7.69 42Q6 38.25 6.25 38.13L6.25 38.13Q6.63 37.75 11.63 36.31Q16.63 34.88 18.63 34.63L18.63 34.63L19.63 34.38L20.25 37.63Q20.38 39 20.69 40.63Q21 42.25 21.25 43.13L21.25 43.13L21.88 45.50L19.88 46.63Q19 47.13 17.69 47.94Q16.38 48.75 15.25 49.50L15.25 49.50L12.63 51.25ZM26.63 41.63L26.13 39Q26 38.75 25.81 37.81Q25.63 36.88 25.50 35.88L25.50 35.88L25.38 34.88L25.13 33.50L26.38 33.38Q26.88 33.38 28.06 33.25Q29.25 33.13 30.50 33.13L30.50 33.13L33.38 33L32.38 34Q31.13 35.38 29.88 37Q28.63 38.63 27.75 40L27.75 40L26.63 41.63ZM9.88 30.13L9.88 30.13Q11.13 28.13 14.19 24.25Q17.25 20.38 18.50 19.25L18.50 19.25L19 18.75L19 28.88L16.88 29.25Q15.50 29.50 13.19 30.13Q10.88 30.75 9.75 31L9.75 31Q9.50 31.13 9.50 31Q9.50 30.88 9.88 30.13L9.88 30.13ZM24.50 28L24.63 22Q24.63 19.50 24.69 17.69Q24.75 15.88 24.88 15.75L24.88 15.75Q25 15.63 30.75 16.75Q36.50 17.88 36.88 18.25L36.88 18.25Q36.88 18.25 36.63 19.06Q36.38 19.88 36.13 21L36.13 21Q35.75 22.13 35.38 23.50Q35 24.88 34.88 25.63L34.88 25.63L34.38 27.38L31 27.50Q29.63 27.63 28.19 27.69Q26.75 27.75 26.13 27.88L26.13 27.88L24.50 28ZM40.75 26.88L40.75 26.88Q40.75 26.88 41.31 24.88Q41.88 22.88 42.25 21.63L42.25 21.63L42.63 20L45.63 21.25Q48.50 22.50 48.88 22.69Q49.25 22.88 48.63 23.13L48.63 23.13Q47 23.75 44.94 24.75Q42.88 25.75 42.13 26.25L42.13 26.25Q41.38 26.75 41.06 26.88Q40.75 27 40.75 26.88ZM53.13 18L51.63 17.25Q51 16.88 49.75 16.38Q48.50 15.88 47.50 15.38L47.50 15.38L44.88 14.38L45.13 13.63Q45.38 13 47.25 9.19Q49.13 5.38 49.63 4.63L49.63 4.63L50.13 3.88L51.63 4.88Q53.13 5.88 55.31 7.50Q57.50 9.13 58.50 10L58.50 10L59.38 10.75L56.88 13.63Q55.88 14.88 54.94 15.94Q54 17 53.75 17.25L53.75 17.25L53.13 18ZM35.75 11.63L35.75 11.63Q35.38 11.50 34.31 11.25Q33.25 11 32.13 10.75L32.13 10.75L31.13 10.50L29.50 10.25L31.63 9Q32.25 8.63 33.19 8.06Q34.13 7.50 35.13 7L35.13 7L35.50 6.88Q36.88 6.13 39.94 4.88Q43 3.63 43.13 3.75L43.13 3.75Q43.13 3.75 42.81 4.38Q42.50 5 42.13 5.75L42.13 5.75Q41.75 6.63 41.13 7.88Q40.50 9.13 40.13 10L40.13 10Q39.75 10.88 39.44 11.56Q39.13 12.25 39.13 12.38L39.13 12.38Q39 12.38 38.06 12.19Q37.13 12 35.75 11.63Z"/></svg>