<svg xmlns="http://www.w3.org/2000/svg" xmlns:xlink="http://www.w3.org/1999/xlink" width="128" height="128"><path fill="#ffffff" d="M29.13 95.75L24.50 90.63Q22.63 88.50 21.25 87Q19.88 85.50 19.75 85.50L19.75 85.50Q19.75 85.50 19.75 86.94Q19.75 88.38 19.75 90.38L19.75 90.38Q19.75 93.63 19.75 94.44Q19.75 95.25 19.63 95.38L19.63 95.38Q19.50 95.50 18.38 95.50Q17.25 95.50 17.13 95.38L17.13 95.38Q17 95.25 17 94Q17 92.75 17 87.50L17 87.50Q17 81.88 17 80.88Q17 79.88 17.13 79.75L17.13 79.75Q17.13 79.75 17.25 79.75Q17.38 79.75 17.50 79.75L17.50 79.75L17.88 79.75L22.50 84.63Q24.38 86.63 25.75 88.06Q27.13 89.50 27.13 89.50L27.13 89.50Q27.13 89.50 27.13 88.13Q27.13 86.75 27.13 84.88L27.13 84.88L27.13 80.13L27.38 80Q27.50 79.88 28.56 79.88Q29.63 79.88 29.88 80L29.88 80L30 80.13L30 87.75Q30 93.25 30 94.38Q30 95.50 29.88 95.63L29.88 95.63Q29.88 95.63 29.75 95.69Q29.63 95.75 29.38 95.75L29.38 95.75L29.13 95.75ZM54.38 95.63L54.38 95.63Q52 95.25 50.25 93.63Q48.50 92 47.88 89.75L47.88 89.75L47.88 89.75Q47.75 89.13 47.69 88.19Q47.63 87.25 47.75 86.63L47.75 86.63Q48 85 48.81 83.63Q49.63 82.25 50.75 81.38L50.75 81.38L50.88 81.38Q51.25 81 52.13 80.56Q53 80.13 53.50 80L53.50 80Q54.88 79.63 56.31 79.75Q57.75 79.88 59 80.50L59 80.50Q59.75 80.75 60.44 81.31Q61.13 81.88 61.13 82.13L61.13 82.13Q61.13 82.25 60.38 83.06Q59.63 83.88 59.38 83.88L59.38 83.88Q59.38 83.88 59.19 83.81Q59 83.75 58.88 83.63L58.88 83.63Q58.13 83 57.25 82.75Q56.38 82.50 55.50 82.50L55.50 82.50Q54.50 82.50 53.75 82.88Q53 83.25 52.25 84L52.25 84Q51.38 84.75 51 85.94Q50.63 87.13 50.75 88.38L50.75 88.38Q50.88 89.25 51.25 90Q51.63 90.75 52.25 91.38L52.25 91.38Q53 92.13 53.81 92.44Q54.63 92.75 55.75 92.75L55.75 92.75Q56.63 92.75 57.31 92.56Q58 92.38 58.75 91.75L58.75 91.75Q59 91.63 59.19 91.56Q59.38 91.50 59.38 91.50L59.38 91.50Q59.63 91.50 60.38 92.25Q61.13 93 61.13 93.25L61.13 93.25Q61.13 93.50 60.50 94Q59.88 94.50 59.13 94.88L59.13 94.88Q58.13 95.38 56.88 95.56Q55.63 95.75 54.38 95.63L54.38 95.63ZM69.50 95.63L69.50 95.63Q68.25 95.38 67.13 94.81Q66 94.25 65.13 93.38L65.13 93.38L65.13 93.38Q62.88 91.13 62.81 87.88Q62.75 84.63 65 82.25L65 82.25Q67.25 79.75 70.69 79.75Q74.13 79.75 76.50 82.13L76.50 82.13Q77 82.63 77.31 83.13Q77.63 83.63 78 84.38L78 84.38Q78.75 85.88 78.75 87.56Q78.75 89.25 78.13 90.88L78.13 90.88Q77.88 91.50 77.38 92.19Q76.88 92.88 76.38 93.38L76.38 93.38Q75 94.75 73.19 95.31Q71.38 95.88 69.50 95.63L69.50 95.63ZM72 92.63L72 92.63Q73.38 92.38 74.38 91.38Q75.38 90.38 75.75 89L75.75 89Q75.88 88.50 75.88 87.69Q75.88 86.88 75.75 86.38L75.75 86.38Q75.50 85.63 75.19 85.13Q74.88 84.63 74.38 84.13L74.38 84.13Q73.50 83.38 72.69 83Q71.88 82.63 70.75 82.63L70.75 82.63Q70.25 82.63 70 82.63Q69.75 82.63 69.38 82.75L69.38 82.75Q68.25 83.13 67.31 84Q66.38 84.88 66 86L66 86Q65.75 86.63 65.69 87.44Q65.63 88.25 65.75 88.88L65.75 88.88Q66.13 90.38 67.31 91.44Q68.50 92.50 70.13 92.88L70.13 92.88Q70.38 92.88 71 92.81Q71.63 92.75 72 92.63L72 92.63ZM93.88 95.75L89.25 90.63L84.63 85.50L84.50 90.38Q84.50 93.63 84.50 94.44Q84.50 95.25 84.38 95.38L84.38 95.38Q84.38 95.50 84.13 95.50Q83.88 95.50 83.13 95.50L83.13 95.50Q82.38 95.50 82.13 95.50Q81.88 95.50 81.88 95.38L81.88 95.38Q81.75 95.25 81.69 94.25Q81.63 93.25 81.63 87.63L81.63 87.63Q81.63 82 81.69 81Q81.75 80 81.88 79.88L81.88 79.88Q81.88 79.75 82 79.75Q82.13 79.75 82.38 79.75L82.38 79.75L82.63 79.75L87.25 84.63Q89.13 86.63 90.50 88.06Q91.88 89.50 91.88 89.50L91.88 89.50Q92 89.50 92 88.13Q92 86.75 92 84.88L92 84.88Q92 81.50 92 80.81Q92 80.13 92.13 80L92.13 80Q92.25 80 92.44 79.94Q92.63 79.88 93.38 79.88L93.38 79.88Q94.13 79.88 94.38 79.94Q94.63 80 94.63 80.13L94.63 80.13Q94.75 80.13 94.81 81.19Q94.88 82.25 94.88 87.88L94.88 87.88Q94.88 93.50 94.81 94.50Q94.75 95.50 94.63 95.50L94.63 95.50Q94.63 95.63 94.50 95.69Q94.38 95.75 94.25 95.75L94.25 95.75L93.88 95.75ZM0.25 95.38L0.25 95.38Q0.13 95.25 0.13 95.19Q0.13 95.13 0.13 95.13L0.13 95.13Q0.13 95 3.56 87.50Q7 80 7.13 79.88L7.13 79.88Q7.25 79.75 7.50 79.69Q7.75 79.63 7.88 79.88L7.88 79.88Q8 80 11.44 87.50Q14.88 95 14.88 95.13L14.88 95.13Q14.88 95.13 14.88 95.25Q14.88 95.38 14.75 95.38L14.75 95.38Q14.75 95.50 14.50 95.50Q14.25 95.50 13.50 95.50L13.50 95.50Q12.75 95.50 12.50 95.50Q12.25 95.50 12.13 95.38L12.13 95.38Q12.13 95.25 11.94 94.88Q11.75 94.50 11.38 93.88L11.38 93.88L10.88 92.63L4.13 92.63L3.50 94Q3.25 94.75 3.06 95.06Q2.88 95.38 2.75 95.38L2.75 95.38Q2.63 95.50 2.38 95.50Q2.13 95.50 1.50 95.50L1.50 95.50Q0.75 95.50 0.56 95.50Q0.38 95.50 0.25 95.38L0.25 95.38ZM9.75 90.13L9.75 90.13Q9.75 90.13 8.63 87.69Q7.50 85.25 7.50 85.25L7.50 85.25Q7.38 85.38 6.31 87.75Q5.25 90.13 5.25 90.13L5.25 90.13Q5.25 90.25 5.94 90.25Q6.63 90.25 7.50 90.25L7.50 90.25Q8.38 90.25 9.06 90.25Q9.75 90.25 9.75 90.13L9.75 90.13ZM32.25 95.38L32.25 95.38Q32.13 95.38 32.13 95.31Q32.13 95.25 32.13 95.13L32.13 95.13Q32.13 95 35.56 87.44Q39 79.88 39.13 79.75L39.13 79.75Q39.25 79.75 39.50 79.75Q39.75 79.75 39.75 79.75L39.75 79.75Q39.88 79.88 43.38 87.44Q46.88 95 46.88 95.13L46.88 95.13Q46.88 95.25 46.81 95.31Q46.75 95.38 46.75 95.38L46.75 95.38L46.75 95.38Q46.63 95.50 46.25 95.50Q45.88 95.50 45.38 95.50L45.38 95.50Q44.63 95.50 44.44 95.50Q44.25 95.50 44.13 95.38L44.13 95.38Q44 95.25 43.81 94.81Q43.63 94.38 43.38 93.88L43.38 93.88L42.75 92.63L36.13 92.63L35.50 94Q35.13 94.75 34.94 95.06Q34.75 95.38 34.75 95.38L34.75 95.38Q34.50 95.50 33.44 95.50Q32.38 95.50 32.25 95.38L32.25 95.38ZM41.63 90.13L41.63 90.13Q41.63 90 40.56 87.69Q39.50 85.38 39.38 85.25L39.38 85.25Q39.38 85.25 38.25 87.69Q37.13 90.13 37.13 90.25L37.13 90.25Q37.13 90.25 37.81 90.25Q38.50 90.25 39.38 90.25L39.38 90.25Q40.75 90.25 41.19 90.25Q41.63 90.25 41.63 90.13L41.63 90.13ZM99 95.38L99 95.38Q99 95.25 98.94 94.06Q98.88 92.88 98.88 87.75L98.88 87.75Q98.88 82.50 98.94 81.31Q99 80.13 99 80L99 80Q99.13 80 99.69 79.94Q100.25 79.88 102.38 80L102.38 80Q105 80 105.69 80.06Q106.38 80.13 107.13 80.38L107.13 80.38Q108.88 81 110.13 82.25Q111.38 83.50 111.88 85.13L111.88 85.13Q112.13 85.88 112.25 86.38Q112.38 86.88 112.25 87.75L112.25 87.75Q112.25 88.63 112.13 89.31Q112 90 111.75 90.75L111.75 90.75Q111.13 92.25 109.88 93.38Q108.63 94.50 107.13 95L107.13 95Q106.25 95.38 105.63 95.44Q105 95.50 102.38 95.50L102.38 95.50Q100.25 95.50 99.69 95.50Q99.13 95.50 99 95.38L99 95.38ZM105.50 92.63L105.50 92.63Q105.63 92.63 106 92.50Q106.38 92.38 106.63 92.25L106.63 92.25Q107 92.13 107.25 91.94Q107.50 91.75 107.75 91.38L107.75 91.38Q108.25 90.88 108.56 90.44Q108.88 90 109 89.38L109 89.38Q109.25 89 109.25 88.75Q109.25 88.50 109.25 87.75L109.25 87.75Q109.25 87 109.25 86.69Q109.25 86.38 109 86L109 86Q108.63 84.88 107.88 84.13Q107.13 83.38 106 82.88L106 82.88L105.50 82.63L101.75 82.63L101.75 92.75L103.25 92.75Q104.25 92.75 104.69 92.75Q105.13 92.75 105.50 92.63L105.50 92.63ZM113.25 95.38L113.25 95.38Q113.13 95.25 113.13 95.19Q113.13 95.13 113.13 95.13L113.13 95.13Q113.13 94.88 116.63 87.38Q120.13 79.88 120.13 79.88L120.13 79.88Q120.25 79.75 120.31 79.75Q120.38 79.75 120.50 79.75L120.50 79.75Q120.63 79.75 120.75 79.75Q120.88 79.75 120.88 79.88L120.88 79.88Q121 80 124.44 87.50Q127.88 95 127.88 95.13L127.88 95.13Q127.88 95.13 127.88 95.25Q127.88 95.38 127.75 95.38L127.75 95.38Q127.75 95.50 127.50 95.50Q127.25 95.50 126.50 95.50L126.50 95.50Q125.75 95.50 125.56 95.50Q125.38 95.50 125.25 95.38L125.25 95.38Q125.13 95.25 124.94 94.88Q124.75 94.50 124.50 93.88L124.50 93.88L123.88 92.63L117.13 92.63L116.63 94Q116.25 94.75 116.06 95.06Q115.88 95.38 115.75 95.38L115.75 95.38Q115.75 95.50 115.44 95.50Q115.13 95.50 114.50 95.50L114.50 95.50Q113.75 95.50 113.56 95.50Q113.38 95.50 113.25 95.38L113.25 95.38ZM122.75 90.13L122.75 90.13Q122.75 90.13 121.63 87.69Q120.50 85.25 120.50 85.25L120.50 85.25Q120.50 85.25 119.38 87.69Q118.25 90.13 118.25 90.13L118.25 90.13Q118.25 90.25 118.94 90.25Q119.63 90.25 120.50 90.25L120.50 90.25Q121.38 90.25 122.06 90.25Q122.75 90.25 122.75 90.13ZM62.63 71L62.63 71Q60.13 70.75 57.88 70Q55.63 69.25 53.75 68L53.75 68L53.25 67.75L53.13 66.75Q53.13 66 53 64.94Q52.88 63.88 52.88 63.50L52.88 63.50L52.88 63.13L54.50 63.13Q55.13 63.13 55.75 63.06Q56.38 63 56.63 63L56.63 63Q57 63 57.19 63Q57.38 63 57.50 63.13L57.50 63.13Q58.75 63.88 60.56 64.38Q62.38 64.88 64.13 64.88L64.13 64.88Q66.75 64.88 69.13 63.88Q71.50 62.88 73.50 61L73.50 61Q74.38 60.13 74.88 59.38Q75.38 58.63 75.88 57.63L75.88 57.63Q77.25 54.88 77.31 51.81Q77.38 48.75 76 45.88L76 45.88Q74.63 43.13 72.19 41.25Q69.75 39.38 66.75 38.75L66.75 38.75Q66 38.63 65.06 38.50Q64.13 38.38 63.50 38.50L63.50 38.50L62.75 38.50L63 38.25Q63 38.13 63.44 37.69Q63.88 37.25 64.38 36.75L64.38 36.75L65.63 35.50L65.13 35Q64.63 34.50 64 34Q63.38 33.50 62.75 33L62.75 33L62.63 33L62 32.50L62.25 32.38Q62.63 32.38 64.19 32.38Q65.75 32.38 66.50 32.50L66.50 32.50Q72.63 33.25 77.19 37.38Q81.75 41.50 83 47.50L83 47.50Q83.50 49.50 83.50 51.56Q83.50 53.63 83 55.75L83 55.75Q82.50 58.25 81.25 60.69Q80 63.13 78.13 65.13L78.13 65.13Q75.75 67.50 72.63 69.06Q69.50 70.63 66 70.88L66 70.88L65.88 70.88Q65.38 71 64.25 71Q63.13 71 62.63 71L62.63 71ZM50.63 65.38L50.63 65.38Q49.75 64.63 48.88 63.56Q48 62.50 48.13 62.38L48.13 62.38Q48.13 62.38 48.38 62.44Q48.63 62.50 49 62.63L49 62.63Q49.50 62.75 50.50 62.88Q51.50 63 51.63 63L51.63 63Q51.63 63 51.69 63.19Q51.75 63.38 51.75 63.75L51.75 63.75Q51.75 64.13 51.81 64.81Q51.88 65.50 51.88 66.25L51.88 66.25Q52 66.50 51.94 66.56Q51.88 66.63 51.88 66.63L51.88 66.63Q51.88 66.63 51.50 66.25Q51.13 65.88 50.63 65.38L50.63 65.38ZM52.88 61.88L52.88 61.50Q52.88 61 52.94 60.06Q53 59.13 53.13 59.13L53.13 59.13Q53.13 59.13 53.25 59.25Q53.38 59.38 53.63 59.63L53.63 59.63Q53.75 59.88 54.19 60.31Q54.63 60.75 54.88 61.13L54.88 61.13L55.75 61.88L52.88 61.88ZM51.38 61.75L51.38 61.75Q50.50 61.63 49.06 61.38Q47.63 61.13 47.50 61L47.50 61Q47.50 61 47.56 60.75Q47.63 60.50 47.75 60L47.75 60Q48 59.25 48.44 58.25Q48.88 57.25 49 57.13L49 57.13Q49 57.13 49.25 57.19Q49.50 57.25 49.88 57.50L49.88 57.50Q50.13 57.63 50.56 57.88Q51 58.13 51.25 58.25L51.25 58.25L52 58.50L51.88 58.88Q51.88 59.38 51.81 60.06Q51.75 60.75 51.75 61.25L51.75 61.25Q51.75 61.50 51.75 61.63Q51.75 61.75 51.63 61.75L51.63 61.75Q51.63 61.75 51.56 61.75Q51.50 61.75 51.38 61.75L51.38 61.75ZM46.13 58.63L46.13 58.63Q45.88 58 45.63 57.19Q45.38 56.38 45.13 55.50L45.13 55.50L45.13 55.38Q45 54.50 45.06 54.44Q45.13 54.38 45.63 54.75L45.63 54.75Q45.88 55 46.25 55.31Q46.63 55.63 47 55.75L47 55.75Q47.38 56 47.56 56.19Q47.75 56.38 47.75 56.38L47.75 56.38Q47.75 56.38 47.69 56.56Q47.63 56.75 47.50 57L47.50 57Q47.38 57.25 47.25 57.56Q47.13 57.88 47 58.25L47 58.25L46.88 58.50Q46.75 58.88 46.63 59.13Q46.50 59.38 46.50 59.38L46.50 59.38Q46.50 59.50 46.38 59.25Q46.25 59 46.13 58.63L46.13 58.63ZM51.38 56.75L51.38 56.75Q50.88 56.50 50.31 56.19Q49.75 55.88 49.63 55.88L49.63 55.88Q49.63 55.88 50.06 55.19Q50.50 54.50 50.75 54L50.75 54L51 53.63L51.13 53.75Q51.38 54.88 51.50 55.44Q51.63 56 51.88 56.50L51.88 56.50Q51.88 56.75 52 56.88Q52.13 57 52.13 57L52.13 57Q52 57 51.81 56.94Q51.63 56.88 51.38 56.75ZM47.50 54.50L47.50 54.50Q46.88 54.13 46.13 53.50Q45.38 52.88 45.38 52.88L45.38 52.88Q45.25 52.75 46.63 51.44Q48 50.13 48.13 50.13L48.13 50.13Q48.13 50.13 48.31 50.31Q48.50 50.50 48.75 50.88L48.75 50.88Q49 51.13 49.31 51.50Q49.63 51.88 49.75 52L49.75 52Q49.88 52.25 50 52.38Q50.13 52.50 50.13 52.50L50.13 52.50Q50.13 52.50 49.94 52.75Q49.75 53 49.50 53.38L49.50 53.38Q49.38 53.63 49.19 53.94Q49 54.25 48.75 54.50L48.75 54.50L48.75 54.63Q48.63 54.88 48.56 55Q48.50 55.13 48.38 55.13L48.38 55.13Q48.38 55.13 48.13 54.94Q47.88 54.75 47.50 54.50ZM44.75 51L44.75 51Q44.75 50.38 44.94 49.06Q45.13 47.75 45.38 46.88L45.38 46.88Q45.63 45.88 45.69 45.88Q45.75 45.88 46.25 46.75L46.25 46.75Q46.38 47.13 46.63 47.56Q46.88 48 47 48.25L47 48.25L47.38 48.75L46.75 49.25Q46.38 49.50 46.06 49.81Q45.75 50.13 45.50 50.38L45.50 50.38L45.50 50.38Q45.25 50.75 45 50.88Q44.75 51 44.75 51L44.75 51ZM50.63 50.75L50.63 50.75Q50.25 50.25 49.81 49.69Q49.38 49.13 49.38 49.13L49.38 49.13Q49.50 49 50 48.69Q50.50 48.38 51 48L51 48Q51.38 47.75 51.44 47.75Q51.50 47.75 51.50 47.88L51.50 47.88Q51.38 48.38 51.25 49Q51.13 49.63 51 50.25L51 50.25L51 50.25Q51 50.63 50.94 50.81Q50.88 51 50.88 51L50.88 51Q50.88 51 50.81 50.94Q50.75 50.88 50.63 50.75L50.63 50.75ZM48.50 47.88L48.13 47.13Q47.50 46.13 47 45Q46.50 43.88 46.63 43.88L46.63 43.88Q46.75 43.75 48.25 43.31Q49.75 42.88 50.38 42.75L50.38 42.75L50.63 42.75L50.88 43.75Q50.88 44.13 51 44.63Q51.13 45.13 51.13 45.38L51.13 45.38L51.38 46.13L50.75 46.38Q50.25 46.63 49.94 46.88Q49.63 47.13 49.25 47.38L49.25 47.38L49.38 47.25L48.50 47.88ZM52.75 44.88L52.63 44.13Q52.63 44 52.56 43.69Q52.50 43.38 52.38 43.13L52.38 43.13L52.38 42.88L52.38 42.50L52.75 42.38Q52.88 42.38 53.25 42.38Q53.63 42.38 54 42.38L54 42.38L54.88 42.25L54.50 42.63Q54.13 43 53.81 43.44Q53.50 43.88 53.13 44.38L53.13 44.38L53.13 44.38L52.75 44.88ZM47.75 41.38L47.75 41.38Q48.13 40.75 49 39.63Q49.88 38.50 50.38 38.13L50.38 38.13L50.50 38L50.50 41L49.88 41.13Q49.13 41.25 48.56 41.44Q48 41.63 47.50 41.75L47.50 41.75L47.63 41.75Q47.63 41.75 47.63 41.69Q47.63 41.63 47.75 41.38ZM52.13 40.75L52.13 39Q52.25 38.25 52.25 37.69Q52.25 37.13 52.25 37.13L52.25 37.13Q52.25 37 54 37.38Q55.75 37.75 55.88 37.75L55.88 37.75Q55.88 37.88 55.81 38.13Q55.75 38.38 55.63 38.63L55.63 38.63Q55.63 38.88 55.50 39.19Q55.38 39.50 55.38 39.75L55.38 39.75L55.25 40L55.13 40.63L54.13 40.63Q53.63 40.63 53.25 40.69Q52.88 40.75 52.50 40.75L52.50 40.75L52.63 40.75L52.13 40.75ZM57 40.50L57 40.50Q57 40.38 57.19 39.81Q57.38 39.25 57.50 38.88L57.50 38.88L57.63 38.38L58.50 38.75Q59.38 39.13 59.50 39.19Q59.63 39.25 59.38 39.25L59.38 39.25Q59 39.50 58.38 39.81Q57.75 40.13 57.50 40.25L57.50 40.25Q57.25 40.38 57.13 40.44Q57 40.50 57 40.50ZM60.88 37.75L60.38 37.50Q60.13 37.38 59.81 37.25Q59.50 37.13 59.25 37L59.25 37L59.13 37L58.38 36.63L58.38 36.38Q58.50 36.25 59.06 35.06Q59.63 33.88 59.75 33.75L59.75 33.75L59.88 33.50L60.38 33.75Q60.88 34.13 61.50 34.63Q62.13 35.13 62.38 35.25L62.38 35.25L62.75 35.50L62 36.38Q61.63 36.75 61.38 37.06Q61.13 37.38 61 37.50L61 37.50L60.88 37.75ZM55.50 35.88L55.63 35.88Q55.50 35.75 55.13 35.69Q54.75 35.63 54.50 35.50L54.50 35.50L54.13 35.50L53.63 35.38L54.25 35Q54.63 34.88 54.94 34.69Q55.25 34.50 55.50 34.38L55.50 34.38Q55.88 34.13 56.81 33.75Q57.75 33.38 57.75 33.38L57.75 33.38Q57.75 33.38 57.69 33.56Q57.63 33.75 57.50 34L57.50 34Q57.38 34.25 57.19 34.63Q57 35 56.88 35.38L56.88 35.38Q56.75 35.63 56.69 35.81Q56.63 36 56.50 36L56.50 36Q56.50 36 56.25 35.94Q56 35.88 55.50 35.88L55.50 35.88Z"/></svg>