<svg xmlns="http://www.w3.org/2000/svg" xmlns:xlink="http://www.w3.org/1999/xlink" width="128" height="128"><path fill="#000000" d="M54.88 6.13L54.88 6.13Q48.13 6 40.94 8.63Q33.75 11.25 27.63 16.13L27.63 16.13Q21.25 21.25 17.06 27.69Q12.88 34.13 12.25 39.88L12.25 39.88Q12.13 41.75 12.50 43.69Q12.88 45.63 13.88 47.63L13.88 47.63Q14.50 48.88 15.25 49.94Q16 51 17.25 52.13L17.25 52.13Q19.38 54.25 22.38 56.19Q25.38 58.13 31.88 61.50L31.88 61.50Q34.25 62.75 35.19 63.19Q36.13 63.63 36.13 63.75L36.13 63.75Q36.13 63.75 35.75 64.06Q35.38 64.38 34.88 64.75L34.88 64.75Q29.75 69.13 25.44 73.13Q21.13 77.13 18.75 79.75L18.75 79.75Q15.25 83.63 13 87.44Q10.75 91.25 10.25 94.13L10.25 94.13Q10.13 94.88 10.13 97.06Q10.13 99.25 10.25 100.38L10.25 100.38Q10.38 102.13 10.81 103.63Q11.25 105.13 12 106.63L12 106.63Q13 108.38 14 109.75Q15 111.13 16.38 112.50L16.38 112.50Q19.25 115.38 22.63 116.81Q26 118.25 30.38 118.63L30.38 118.63Q31.13 118.75 33.31 118.69Q35.50 118.63 36.25 118.50L36.25 118.50Q41.25 117.75 47.19 115.69Q53.13 113.63 59.88 110.25L59.88 110.25Q66.50 106.88 73.63 102.38L73.63 102.38Q80.75 97.88 87.44 92.81Q94.13 87.75 100.13 82.38L100.13 82.38Q106.13 77.13 110.75 72L110.75 72Q112.50 70 114.06 67.94Q115.63 65.88 116.13 64.75L116.13 64.75Q116.88 63.25 117.19 61.38Q117.50 59.50 117.50 57L117.50 57Q117.50 54.88 117.25 53.19Q117 51.50 116.25 49.88L116.25 49.88Q114.75 46.38 111.25 42L111.25 42Q107.63 37.50 102.69 32.75Q97.75 28 91.88 23.38L91.88 23.38Q86 18.75 80 15L80 15Q77 13.25 73.50 11.38Q70 9.50 67.75 8.63L67.75 8.63Q65.13 7.63 62.44 7.06Q59.75 6.50 56.75 6.25L56.75 6.25Q56.25 6.13 55.81 6.13Q55.38 6.13 54.88 6.13L54.88 6.13ZM54.63 6.38L54.63 6.38Q55.63 6.38 56.69 6.44Q57.75 6.50 58.38 6.63L58.38 6.63Q61.88 7 64.88 7.94Q67.88 8.88 71.13 10.50L71.13 10.50Q75.13 12.63 79.63 15.50L79.63 15.50Q84.13 18.50 88.63 21.88Q93.13 25.25 97.38 28.88L97.38 28.88Q101.50 32.50 105 36.13L105 36.13Q109.88 41 112.56 45.13Q115.25 49.25 115.63 52L115.63 52Q115.88 54.75 113.94 58.50Q112 62.25 107.88 67L107.88 67Q106.75 68.25 103.81 71.13Q100.88 74 99.38 75.38L99.38 75.38Q93.63 80.50 87.38 85.13L87.38 85.13Q81 89.75 74.44 93.81Q67.88 97.88 61.38 101.13L61.38 101.13Q54.88 104.38 48.88 106.50L48.88 106.50Q45.25 107.88 41.19 108.88Q37.13 109.88 32.75 110.38L32.75 110.38L32.50 110.38Q31.25 110.50 29 110.56Q26.75 110.63 25.88 110.50L25.88 110.50Q24.25 110.38 22.94 110Q21.63 109.63 20.38 109L20.38 109Q18.75 108.25 17.50 107.13Q16.25 106 15.25 104.38L15.25 104.38Q14.13 102.75 13.38 100.88Q12.63 99 12.13 97L12.13 97L12.13 96.88Q12 95.88 12 94.38Q12 92.88 12.25 91.75L12.25 91.75Q12.63 89.25 14 86.75Q15.38 84.25 17.63 81.38L17.63 81.38Q20.25 78.25 25.88 73Q31.50 67.75 40.25 60.38L40.25 60.38L41.63 59.25L41.25 59Q41.13 59 40.44 58.69Q39.75 58.38 38.88 58L38.88 58Q31.25 54.75 26.06 51.69Q20.88 48.63 17.88 45.63L17.88 45.63Q16.50 44.25 15.63 42.94Q14.75 41.63 14.38 40.38L14.38 40.38Q13.88 38.88 14.13 36.63Q14.38 34.38 15.38 32L15.38 32Q17 27.75 20.56 23.38Q24.13 19 28.75 15.50L28.75 15.50Q33.75 11.75 39.31 9.50Q44.88 7.25 50.63 6.63L50.63 6.63Q51.38 6.50 52.44 6.44Q53.50 6.38 54.63 6.38L54.63 6.38ZM53.25 9L53.25 9Q52.38 9 51.44 9.06Q50.50 9.13 49.38 9.25L49.38 9.25Q44.25 9.88 41.06 11Q37.88 12.13 34.13 14.75L34.13 14.75Q32.75 15.75 30.19 17.69Q27.63 19.63 26.88 20.25L26.88 20.25Q23.75 23 21.31 26.31Q18.88 29.63 17.88 32.88L17.88 32.88Q17.13 34.88 17 36.31Q16.88 37.75 17.38 39L17.38 39Q17.75 40.25 18.75 41.31Q19.75 42.38 22.13 44L22.13 44Q24.88 45.88 28.81 47.94Q32.75 50 40.25 53.50L40.25 53.50Q44.25 55.38 45.19 55.88Q46.13 56.38 46.25 56.75L46.25 56.75Q46.50 57.38 46.25 58Q46 58.63 45.25 59.50L45.25 59.50Q44.63 60.38 43.25 61.63Q41.88 62.88 37.88 66.38L37.88 66.38Q32.38 71.13 29.69 73.56Q27 76 24.75 78.25L24.75 78.25Q20.88 82.13 18.88 85.19Q16.88 88.25 16.38 90.88L16.38 90.88Q16 93 16.50 95.44Q17 97.88 18.25 99.75L18.25 99.75Q19.63 102.13 21.88 103.38Q24.13 104.63 27.38 104.88L27.38 104.88Q31.50 105.25 37.38 104.19Q43.25 103.13 48.75 100.88L48.75 100.88Q53.63 98.88 59.50 95.75L59.50 95.75Q65.25 92.63 71.25 88.69Q77.25 84.75 83.13 80.38L83.13 80.38Q89 75.88 94 71.38L94 71.38Q99 67 103.63 62.25Q108.25 57.50 109.25 55.63L109.25 55.63Q109.50 55.13 109.69 54.06Q109.88 53 109.88 52L109.88 52Q109.75 50.75 109.44 49.69Q109.13 48.63 108.25 47.13L108.25 47.13Q106.88 44.75 104.75 42.13Q102.63 39.50 99.13 35.88L99.13 35.88Q94.50 31.13 89.56 26.94Q84.63 22.75 79.88 19.50L79.88 19.50Q75.88 16.75 71.13 14.25Q66.38 11.75 63.25 10.63L63.25 10.63Q60.63 9.63 58.25 9.25Q55.88 8.88 53.25 9L53.25 9ZM58.88 25.88L58.88 25.88Q59.50 25.88 60.19 25.94Q60.88 26 61.50 26.13L61.50 26.13Q66.75 27.25 71 30.38Q75.25 33.50 76.38 37.13L76.38 37.13Q76.63 38 76.63 39.13Q76.63 40.25 76.25 41L76.25 41Q76.13 41.38 76 41.69Q75.88 42 75.63 42.38L75.63 42.38L75.75 42.25Q75.38 42.88 74.38 43.88Q73.38 44.88 72.50 45.38L72.50 45.38Q71 46.38 69.19 47.19Q67.38 48 66.25 48.13L66.25 48.13Q66 48.25 65.69 48.25Q65.38 48.25 65.25 48.25L65.25 48.25Q61.88 48.13 58.19 46.50Q54.50 44.88 52.13 42.63L52.13 42.63Q50.63 41 49.94 39.56Q49.25 38.13 49.38 36.38L49.38 36.38Q49.63 32 51.44 29.38Q53.25 26.75 56.38 26L56.38 26Q56.88 25.88 57.50 25.88Q58.13 25.88 58.88 25.88L58.88 25.88ZM59.75 32.38L59.75 32.38Q58.88 32.38 58.06 32.63Q57.25 32.88 56.88 33.38L56.88 33.38Q56.63 33.75 56.19 34.56Q55.75 35.38 55.63 35.88L55.63 35.88Q55.13 37.25 55.31 38.50Q55.50 39.75 56.38 40.88L56.38 40.88Q56.63 41.13 56.88 41.38Q57.13 41.63 57.25 41.75L57.25 41.75L57.63 42.13L58 41.88Q58.25 41.63 58.75 41.50Q59.25 41.38 60.13 41.38L60.13 41.38Q61 41.38 61.69 41.50Q62.38 41.63 63.13 41.75L63.13 41.75Q64.88 42.25 66.06 42.81Q67.25 43.38 67.63 44L67.63 44Q67.75 44.25 67.81 44.25Q67.88 44.25 68.13 44.25L68.13 44.25Q68.13 44.13 68.44 43.88Q68.75 43.63 69.13 43.25L69.13 43.25Q69.88 42.50 70.31 41.75Q70.75 41 70.88 40.25L70.88 40.25Q71.13 38.63 69.75 36.88Q68.38 35.13 65.75 33.88L65.75 33.88Q64.25 33.13 62.69 32.75Q61.13 32.38 59.75 32.38Z"/></svg>