<svg xmlns="http://www.w3.org/2000/svg" xmlns:xlink="http://www.w3.org/1999/xlink" width="128" height="128"><path fill="#ffffff" d="M57.50 3.63L57.50 3.63Q51.63 3.50 45.31 5.81Q39 8.13 33.63 12.38L33.63 12.38Q27.88 16.88 24.25 22.50Q20.63 28.13 20.13 33.25L20.13 33.25Q19.88 34.88 20.25 36.56Q20.63 38.25 21.50 40L21.50 40Q22 41.25 22.69 42.13Q23.38 43 24.38 44L24.38 44Q26.25 45.88 28.88 47.56Q31.50 49.25 37.25 52.25L37.25 52.25Q39.38 53.25 40.19 53.69Q41 54.13 41 54.25L41 54.25Q41 54.25 40.69 54.50Q40.38 54.75 39.88 55.13L39.88 55.13Q35.38 59 31.56 62.50Q27.75 66 25.75 68.38L25.75 68.38Q22.75 71.63 20.75 75Q18.75 78.38 18.25 80.88L18.25 80.88Q18.13 81.50 18.13 83.44Q18.13 85.38 18.25 86.38L18.25 86.38Q18.38 87.88 18.75 89.19Q19.13 90.50 19.88 91.88L19.88 91.88Q20.63 93.50 21.50 94.69Q22.38 95.88 23.63 97L23.63 97Q26.13 99.50 29.13 100.81Q32.13 102.13 36 102.38L36 102.38Q36.63 102.50 38.50 102.44Q40.38 102.38 41.13 102.25L41.13 102.25Q45.50 101.63 50.75 99.81Q56 98 61.88 95.13L61.88 95.13Q67.75 92.13 73.88 88.13L73.88 88.13Q80.13 84.25 86.06 79.81Q92 75.38 97.25 70.63L97.25 70.63Q102.50 65.88 106.50 61.50L106.50 61.50Q108.13 59.75 109.44 57.94Q110.75 56.13 111.25 55.13L111.25 55.13Q111.88 53.75 112.19 52.06Q112.50 50.38 112.50 48.25L112.50 48.25Q112.50 46.38 112.25 44.88Q112 43.38 111.38 42.13L111.38 42.13Q110.13 39 106.88 35L106.88 35Q103.75 31.13 99.44 27Q95.13 22.88 90 18.75L90 18.75Q84.88 14.75 79.50 11.38L79.50 11.38Q76.88 9.88 73.81 8.25Q70.75 6.63 68.88 5.88L68.88 5.88Q66.50 4.88 64.13 4.38Q61.75 3.88 59.13 3.75L59.13 3.75Q58.63 3.63 58.25 3.63Q57.88 3.63 57.50 3.63L57.50 3.63ZM57.25 3.88L57.25 3.88Q58.13 3.88 59.06 3.88Q60 3.88 60.63 4L60.63 4Q63.63 4.38 66.25 5.19Q68.88 6 71.75 7.50L71.75 7.50Q75.25 9.38 79.13 11.88L79.13 11.88Q83.13 14.50 87.06 17.44Q91 20.38 94.75 23.63L94.75 23.63Q98.50 26.88 101.50 30L101.50 30Q105.75 34.25 108.13 37.88Q110.50 41.50 110.75 43.88L110.75 43.88Q111 46.25 109.31 49.56Q107.63 52.88 104 57.13L104 57.13Q103 58.25 100.44 60.75Q97.88 63.25 96.50 64.50L96.50 64.50Q91.50 68.88 86 73L86 73Q80.38 77.13 74.63 80.69Q68.88 84.25 63.13 87L63.13 87Q57.38 89.88 52.13 91.75L52.13 91.75Q49 93 45.44 93.88Q41.88 94.75 38.13 95.13L38.13 95.13L37.75 95.13Q36.75 95.25 34.75 95.31Q32.75 95.38 32 95.25L32 95.25Q30.63 95.13 29.44 94.81Q28.25 94.50 27.25 94L27.25 94Q25.75 93.25 24.63 92.25Q23.50 91.25 22.63 89.88L22.63 89.88Q21.75 88.50 21.06 86.88Q20.38 85.25 20 83.38L20 83.38L19.88 83.38Q19.75 82.38 19.75 81.06Q19.75 79.75 20 78.75L20 78.75Q20.38 76.63 21.56 74.44Q22.75 72.25 24.75 69.75L24.75 69.75Q27.13 67 32.06 62.38Q37 57.75 44.63 51.25L44.63 51.25L45.88 50.25L45.50 50.13Q45.25 50 44.81 49.75Q44.38 49.50 43.88 49.38L43.88 49.38L43.38 49.13Q36.63 46.25 32.13 43.63Q27.63 41 25 38.25L25 38.25Q23.75 37.13 23 36Q22.25 34.88 21.88 33.63L21.88 33.63Q21.50 32.38 21.69 30.38Q21.88 28.38 22.75 26.25L22.75 26.25Q24.25 22.63 27.38 18.75Q30.50 14.88 34.50 11.88L34.50 11.88Q38.88 8.63 43.75 6.63Q48.63 4.63 53.75 4L53.75 4Q54.38 3.88 55.31 3.88Q56.25 3.88 57.25 3.88L57.25 3.88ZM56 6.13L56 6.13Q55.13 6.13 54.25 6.19Q53.38 6.25 52.50 6.38L52.50 6.38L52.63 6.38Q48.13 6.88 45.31 7.88Q42.50 8.88 39.25 11.25L39.25 11.25Q38 12 35.75 13.75Q33.50 15.50 32.88 16L32.88 16Q30.13 18.38 28 21.31Q25.88 24.25 25 27.13L25 27.13Q24.38 28.88 24.25 30.13Q24.13 31.38 24.50 32.50L24.50 32.50Q24.88 33.63 25.75 34.50Q26.63 35.38 28.75 36.88L28.75 36.88Q31.13 38.50 34.56 40.31Q38 42.13 44.63 45.25L44.63 45.25Q48.13 46.88 48.94 47.31Q49.75 47.75 49.88 48.13L49.88 48.13Q50.13 48.63 49.88 49.19Q49.63 49.75 49 50.50L49 50.50Q48.50 51.25 47.25 52.38Q46 53.50 42.50 56.50L42.50 56.50Q37.63 60.63 35.31 62.75Q33 64.88 31 66.88L31 66.88Q27.63 70.38 25.88 73.06Q24.13 75.75 23.63 78L23.63 78Q23.38 79.88 23.81 82.06Q24.25 84.25 25.25 85.88L25.25 85.88Q26.50 87.88 28.50 88.94Q30.50 90 33.25 90.38L33.25 90.38Q37 90.75 42.13 89.75Q47.25 88.75 52 86.88L52 86.88Q56.38 85.13 61.50 82.38L61.50 82.38Q66.63 79.50 71.88 76.13Q77.13 72.75 82.25 68.75L82.25 68.75Q87.38 64.88 91.88 60.88L91.88 60.88Q96.13 57.13 100.19 52.88Q104.25 48.63 105.13 47.13L105.13 47.13Q105.50 46.63 105.63 45.69Q105.75 44.75 105.75 43.88L105.75 43.88Q105.63 42.75 105.31 41.81Q105 40.88 104.38 39.63L104.38 39.63Q103.13 37.63 101.25 35.31Q99.38 33 96.38 29.75L96.38 29.75Q92.25 25.50 87.94 21.81Q83.63 18.13 79.38 15.38L79.38 15.38Q75.88 13 71.75 10.75Q67.63 8.50 64.88 7.50L64.88 7.50Q62.50 6.75 60.44 6.38Q58.38 6 56 6.13L56 6.13ZM61 20.88L61 20.88Q61.50 20.88 62.13 20.94Q62.75 21 63.25 21.13L63.25 21.13Q67.88 22.13 71.56 24.88Q75.25 27.63 76.25 30.88L76.25 30.88Q76.50 31.63 76.50 32.56Q76.50 33.50 76.25 34.25L76.25 34.25Q76.13 34.50 76 34.81Q75.88 35.13 75.75 35.38L75.75 35.38L75.75 35.38Q75.38 35.88 74.50 36.75Q73.63 37.63 72.88 38.13L72.88 38.13Q71.63 39 70 39.69Q68.38 40.38 67.50 40.50L67.50 40.50Q67.25 40.50 66.94 40.56Q66.63 40.63 66.63 40.63L66.63 40.63Q63.63 40.50 60.38 39.06Q57.13 37.63 55.13 35.63L55.13 35.63Q53.75 34.25 53.13 32.94Q52.50 31.63 52.63 30.13L52.63 30.13Q52.88 26.38 54.44 24.06Q56 21.75 58.75 21.13L58.75 21.13Q59.25 21 59.81 20.94Q60.38 20.88 61 20.88ZM61.75 26.63L61.75 26.63Q60.88 26.63 60.25 26.88Q59.63 27.13 59.25 27.50L59.25 27.50Q59 27.88 58.63 28.56Q58.25 29.25 58.13 29.75L58.13 29.75Q57.75 31 57.88 32.06Q58 33.13 58.75 34.13L58.75 34.13Q59 34.38 59.19 34.63Q59.38 34.88 59.50 35L59.50 35L59.88 35.25L60.13 35Q60.50 34.75 60.88 34.69Q61.25 34.63 62.13 34.63L62.13 34.63Q62.75 34.63 63.38 34.69Q64 34.75 64.75 34.88L64.75 34.88Q66.25 35.25 67.31 35.81Q68.38 36.38 68.75 36.88L68.75 36.88Q68.75 37 68.81 37.06Q68.88 37.13 69 37L69 37Q69.13 37 69.44 36.75Q69.75 36.50 70 36.25L70 36.25Q70.63 35.50 71 34.88Q71.38 34.25 71.50 33.63L71.50 33.63Q71.75 32.13 70.56 30.56Q69.38 29 67 28L67 28Q65.63 27.25 64.25 26.94Q62.88 26.63 61.75 26.63L61.75 26.63ZM69.50 102.38L69.50 102.38L71 102.38L71 120.75Q70.63 120.75 70.19 120.75Q69.75 120.75 69.38 120.75L69.38 120.75L69.38 102.38Q69.38 102.38 69.44 102.38Q69.50 102.38 69.50 102.38ZM73.25 102.38L73.25 102.38L75 102.38L75 104.25L73.25 104.25Q73.25 103.75 73.25 103.25Q73.25 102.75 73.25 102.38ZM47.88 104.50L47.88 107.88L49.13 107.88L49.13 109.25L47.88 109.25Q47.88 111.38 47.88 113.69Q47.88 116 47.88 118.25L47.88 118.25Q47.88 118.63 47.88 118.94Q47.88 119.25 48 119.38L48 119.38Q48.13 119.63 48.44 119.69Q48.75 119.75 49.13 119.63L49.13 119.63L49.13 121Q48.38 121.13 47.69 121Q47 120.88 46.75 120.38L46.75 120.38Q46.50 119.88 46.44 119.19Q46.38 118.50 46.38 117.75L46.38 117.75L46.38 109.25L45.50 109.25L45.50 107.88L46.38 107.88L46.38 105.13Q46.75 104.88 47.13 104.75Q47.50 104.63 47.88 104.50L47.88 104.50ZM97.25 104.63L97.25 104.63L98.63 104.63L98.63 105L98.13 105Q98.13 106 98.13 107.06Q98.13 108.13 98.13 109.25L98.13 109.25Q98 109.25 97.88 109.25Q97.75 109.25 97.75 109.25L97.75 109.25L97.75 105L97.25 105Q97.25 104.88 97.25 104.81Q97.25 104.75 97.25 104.63L97.25 104.63ZM99 104.63L99 104.63L99.75 104.63Q99.88 105.75 99.94 106.75Q100 107.75 100.13 108.88L100.13 108.88Q100.25 108.63 100.25 108.38Q100.25 108.13 100.25 107.88L100.25 107.88Q100.38 107 100.44 106.25Q100.50 105.50 100.63 104.63L100.63 104.63L101.25 104.63L101.25 109.25Q101.25 109.25 101.13 109.25Q101 109.25 101 109.25L101 109.25Q101 108.13 101 107.06Q101 106 100.88 105L100.88 105Q100.88 105 100.88 105.06Q100.88 105.13 100.88 105.25L100.88 105.25Q100.75 106.25 100.63 107.25Q100.50 108.25 100.38 109.25L100.38 109.25L99.88 109.25Q99.75 108.13 99.63 107.06Q99.50 106 99.38 105L99.38 105Q99.38 106 99.38 107.06Q99.38 108.13 99.38 109.25L99.38 109.25L99 109.25Q99 108.13 99 106.94Q99 105.75 99 104.63L99 104.63ZM25.38 111.50L25.38 111.50L25.38 116.63Q25.38 117.25 25.38 117.88Q25.38 118.50 25.63 118.88L25.63 118.88Q25.75 119.13 26.19 119.19Q26.63 119.25 26.88 119.13L26.88 119.13Q27.25 118.88 27.31 118.19Q27.38 117.50 27.38 116.88L27.38 116.88L27.38 111.25Q27.38 110.50 27.31 109.88Q27.25 109.25 26.88 109L26.88 109Q26.75 108.88 26.50 108.88Q26.25 108.88 26.13 108.88L26.13 108.88Q25.50 109 25.44 109.88Q25.38 110.75 25.38 111.50L25.38 111.50ZM27.38 108.63L27.38 108.63Q27.38 108.50 27.44 108.31Q27.50 108.13 27.50 107.88L27.50 107.88L29 107.88L29 121.38Q29 122.25 28.94 123.06Q28.88 123.88 28.63 124.50L28.63 124.50Q28.38 125.13 27.88 125.44Q27.38 125.75 26.50 125.75L26.50 125.75Q25.63 125.75 25.06 125.50Q24.50 125.25 24.13 124.75L24.13 124.75Q23.88 124.25 23.81 123.50Q23.75 122.75 23.75 121.75L23.75 121.75L25.38 121.75Q25.38 122.38 25.38 123Q25.38 123.63 25.63 124.13L25.63 124.13Q25.75 124.50 26.31 124.50Q26.88 124.50 27.13 124.13L27.13 124.13Q27.38 123.75 27.38 123.13Q27.38 122.50 27.38 121.75L27.38 121.75L27.38 119.38Q27.25 119.50 27.19 119.63Q27.13 119.75 27 119.88L27 119.88Q26.50 120.50 25.50 120.44Q24.50 120.38 24.13 119.75L24.13 119.75Q23.88 119.25 23.81 118.56Q23.75 117.88 23.75 117.13L23.75 117.13L23.75 111Q23.75 109.75 23.94 108.75Q24.13 107.75 25.25 107.63L25.25 107.63Q26.13 107.50 26.63 107.81Q27.13 108.13 27.38 108.63L27.38 108.63ZM34.88 113.75L34.88 111.25Q34.88 110.38 34.75 109.63Q34.63 108.88 33.75 108.88L33.75 108.88Q33 109 32.94 109.69Q32.88 110.38 32.88 111.13L32.88 111.13L32.88 113.75Q33.25 113.75 33.81 113.75Q34.38 113.75 34.88 113.75L34.88 113.75ZM36.50 111.63L36.50 115L32.88 115L32.88 117.38Q32.88 118 32.88 118.56Q32.88 119.13 33.13 119.50L33.13 119.50Q33.38 119.75 33.81 119.75Q34.25 119.75 34.50 119.50L34.50 119.50Q34.88 119 34.81 118.06Q34.75 117.13 34.88 116.38L34.88 116.38L36.50 116.38Q36.50 117.38 36.44 118.31Q36.38 119.25 36.13 120L36.13 120Q35.75 120.50 35.25 120.75Q34.75 121 34 121L34 121Q33.38 121.13 32.75 120.94Q32.13 120.75 31.75 120.25L31.75 120.25Q31.38 119.75 31.31 118.81Q31.25 117.88 31.25 117L31.25 117L31.25 113.13Q31.25 112.13 31.25 111.13Q31.25 110.13 31.38 109.38L31.38 109.38Q31.63 108.50 32.06 108.06Q32.50 107.63 33.50 107.63L33.50 107.63Q34.50 107.50 35.13 107.75Q35.75 108 36 108.63L36 108.63Q36.38 109.13 36.44 109.94Q36.50 110.75 36.50 111.63L36.50 111.63ZM44 111.13L44 120.75L42.50 120.75L42.50 112Q42.50 111.25 42.50 110.50Q42.50 109.75 42.13 109.25L42.13 109.25Q41.88 108.88 41.38 108.88Q40.88 108.88 40.63 109.25L40.63 109.25Q40.25 109.75 40.25 110.50Q40.25 111.25 40.25 111.88L40.25 111.88L40.25 120.75L38.75 120.75L38.75 107.88L40.25 107.88Q40.25 108.13 40.25 108.31Q40.25 108.50 40.25 108.63L40.25 108.63Q40.50 108.25 40.94 107.94Q41.38 107.63 41.88 107.63L41.88 107.63Q43.50 107.50 43.75 108.63Q44 109.75 44 111.13L44 111.13ZM52.13 111.50L52.13 111.50L52.13 117Q52.13 117.63 52.13 118.38Q52.13 119.13 52.50 119.38L52.50 119.38Q52.63 119.75 53.13 119.75Q53.63 119.75 53.75 119.50L53.75 119.50Q54.13 119.25 54.19 118.50Q54.25 117.75 54.25 117.13L54.25 117.13L54.25 111.38Q54.25 110.50 54.13 109.63Q54 108.75 53 108.88L53 108.88Q52.25 109 52.19 109.88Q52.13 110.75 52.13 111.50L52.13 111.50ZM52.75 107.63L52.75 107.63Q53.50 107.63 54.06 107.75Q54.63 107.88 55 108.13L55 108.13Q55.75 108.88 55.75 110.25Q55.75 111.63 55.75 113L55.75 113L55.75 115.75Q55.75 117.13 55.75 118.50Q55.75 119.88 55 120.50L55 120.50Q54.63 120.88 54 121Q53.38 121.13 52.75 121L52.75 121Q52.13 121 51.69 120.75Q51.25 120.50 51 120L51 120Q50.75 119.50 50.69 118.81Q50.63 118.13 50.63 117.25L50.63 117.25Q50.50 116.50 50.56 115.75Q50.63 115 50.63 114.25L50.63 114.25Q50.63 113.38 50.56 112.63Q50.50 111.88 50.63 111.13L50.63 111.13Q50.63 110.38 50.69 109.69Q50.75 109 51 108.50L51 108.50Q51.25 108.13 51.75 107.88Q52.25 107.63 52.75 107.63ZM59.63 111.63L59.63 111.63L59.63 117.25Q59.63 118 59.69 118.69Q59.75 119.38 60.13 119.63L60.13 119.63Q60.38 119.75 60.75 119.75Q61.13 119.75 61.25 119.50L61.25 119.50Q61.63 119.25 61.63 118.50Q61.63 117.75 61.63 117L61.63 117L61.63 111.38Q61.63 110.50 61.50 109.63Q61.38 108.75 60.50 108.88L60.50 108.88Q59.75 109 59.69 109.88Q59.63 110.75 59.63 111.63L59.63 111.63ZM60.25 107.63L60.25 107.63Q61.13 107.50 61.81 107.75Q62.50 108 62.88 108.63L62.88 108.63Q63.13 109.25 63.19 110.31Q63.25 111.38 63.25 112.50L63.25 112.50L63.25 116.88Q63.25 117.88 63.13 118.88Q63 119.88 62.50 120.38L62.50 120.38Q62 120.88 61 121Q60 121.13 59.13 120.75L59.13 120.75Q58.50 120.38 58.31 119.50Q58.13 118.63 58 117.38L58 117.38Q58 116.63 58 115.88Q58 115.13 58 114.38L58 114.38Q58 113.50 58 112.75Q58 112 58 111.25L58 111.25Q58 110.50 58.13 109.81Q58.25 109.13 58.50 108.63L58.50 108.63Q58.75 108.13 59.19 107.88Q59.63 107.63 60.25 107.63L60.25 107.63ZM82.50 111.13L82.50 120.75L80.88 120.75L80.88 112Q80.88 111.38 80.94 110.56Q81 109.75 80.63 109.38L80.63 109.38Q80.50 109 80.06 108.94Q79.63 108.88 79.25 109L79.25 109Q78.88 109.38 78.81 110.13Q78.75 110.88 78.75 111.63L78.75 111.63L78.75 120.75Q78.38 120.75 78 120.75Q77.63 120.75 77.25 120.75L77.25 120.75L77.25 107.88L78.63 107.88Q78.75 108.13 78.75 108.31Q78.75 108.50 78.75 108.63L78.75 108.63Q79 108.25 79.38 107.94Q79.75 107.63 80.38 107.63L80.38 107.63Q82 107.50 82.25 108.63Q82.50 109.75 82.50 111.13L82.50 111.13ZM73.38 107.88L73.38 107.88L74.88 107.88Q74.88 111.13 74.88 114.31Q74.88 117.50 74.88 120.75L74.88 120.75L73.38 120.75Q73.38 117.63 73.38 114.38Q73.38 111.13 73.38 108L73.38 108Q73.38 108 73.38 107.94Q73.38 107.88 73.38 107.88ZM84.88 107.88L84.88 107.88L86.38 107.88L86.38 116.63Q86.38 117.50 86.38 118.50Q86.38 119.50 87 119.63L87 119.63Q87.38 119.75 87.69 119.69Q88 119.63 88.25 119.38L88.25 119.38Q88.50 118.88 88.50 118.13Q88.50 117.38 88.50 116.63L88.50 116.63L88.50 107.88L90 107.88L90 120.75Q89.75 120.75 89.38 120.75Q89 120.75 88.63 120.75L88.63 120.75Q88.50 120.50 88.50 120.31Q88.50 120.13 88.50 120L88.50 120Q88.25 120.38 87.69 120.69Q87.13 121 86.38 121L86.38 121Q85.25 121 85 119.88Q84.75 118.75 84.75 117.50L84.75 117.50Q84.75 115.13 84.75 112.69Q84.75 110.25 84.75 108L84.75 108Q84.75 108 84.75 107.94Q84.75 107.88 84.88 107.88L84.88 107.88ZM91.63 107.88L91.63 107.88L93.25 107.88Q93.50 109.13 93.75 110.25Q94 111.38 94.25 112.63L94.25 112.63Q94.63 111.50 94.88 110.31Q95.13 109.13 95.38 107.88L95.38 107.88L96.88 107.88Q96.38 109.38 96 110.81Q95.63 112.25 95.25 113.75L95.25 113.75Q95.25 113.75 95.19 113.88Q95.13 114 95.13 114.13L95.13 114.13Q95.13 114.25 95.19 114.50Q95.25 114.75 95.38 114.88L95.38 114.88Q95.75 116.38 96.19 117.81Q96.63 119.25 97 120.75L97 120.75L95.38 120.75Q95 119.38 94.69 118.06Q94.38 116.75 94.13 115.50L94.13 115.50Q93.75 116.75 93.44 118.06Q93.13 119.38 92.88 120.75L92.88 120.75L91.38 120.75Q91.75 119.25 92.19 117.81Q92.63 116.38 93 114.88L93 114.88Q93.13 114.63 93.19 114.44Q93.25 114.25 93.25 114.13L93.25 114.13Q93.25 113.88 93.19 113.69Q93.13 113.50 93.13 113.25L93.13 113.25Q92.75 112 92.38 110.63Q92 109.25 91.63 108L91.63 108Q91.63 107.88 91.63 107.88Q91.63 107.88 91.63 107.88Z"/></svg>