<svg xmlns="http://www.w3.org/2000/svg" xmlns:xlink="http://www.w3.org/1999/xlink" width="128" height="128"><path fill="#000000" d="M72.88 68.88L72.88 68.88Q73.25 68.63 73.50 68.31Q73.75 68 74 67.63L74 67.63Q74.38 66.88 74.19 66.38Q74 65.88 73.88 65.75L73.88 65.75L73.75 65.75Q73.25 66.25 73 66.44Q72.75 66.63 72.50 66.88L72.50 66.88Q71.75 67.50 71 67.13Q70.25 66.75 69.63 66.38L69.63 66.38Q68.38 65.63 67.50 65.94Q66.63 66.25 66.25 66.75L66.25 66.75Q66.13 67.38 66.31 67.88Q66.50 68.38 67.25 68.25L67.25 68.25Q68.13 68.13 68.44 68.31Q68.75 68.50 69.38 68.88L69.38 68.88Q70.63 69.75 71.56 69.50Q72.50 69.25 72.88 68.88ZM59.63 19.75L59.63 19.75Q58 19.75 56.75 19.88Q55.50 20 54.50 20L54.50 20Q53.50 20 52.75 19.44Q52 18.88 51.63 18.38L51.63 18.38Q51.25 18 50.50 17.88Q49.75 17.75 49.25 19L49.25 19Q48.63 20.25 49.38 21.31Q50.13 22.38 50.88 22.63L50.88 22.63Q50.88 22.63 51.94 24.06Q53 25.50 54 24.50L54 24.50Q54.75 23.75 55.75 23.31Q56.75 22.88 60.63 22.63L60.63 22.63Q62.38 22.50 62.81 22.13Q63.25 21.75 63.25 21.25L63.25 21.25Q63.25 20.75 62.19 20.25Q61.13 19.75 59.63 19.75L59.63 19.75ZM72.13 15L72.13 15Q72.13 15.50 71.31 15.94Q70.50 16.38 69.25 16.75L69.25 16.75Q69.13 16.75 69.06 16.81Q69 16.88 69 16.88L69 16.88Q69 17 69.06 17.06Q69.13 17.13 69.25 17.13L69.25 17.13Q69.75 17.25 70.38 17.31Q71 17.38 71.75 17.50L71.75 17.50Q73.75 17.63 75.31 17Q76.88 16.38 76.88 15.38L76.88 15.38Q76.88 14.38 75.44 13.75Q74 13.13 71.75 13.13L71.75 13.13L71.50 13.13Q71.13 13.13 70.75 13Q70.38 12.88 70 13L70 13Q68.75 13.13 67.63 13.38Q66.50 13.63 65.75 14L65.75 14L65.75 14Q65.75 14.13 65.75 14.06Q65.75 14 65.75 14L65.75 14Q66 14 66.25 14Q66.50 14 66.75 13.88L66.75 13.88Q69 13.75 70.50 14.06Q72 14.38 72.13 15L72.13 15ZM44.13 61.50L44.13 61.50Q44.38 61 44.06 60.63Q43.75 60.25 43.25 59.88L43.25 59.88Q42.25 59.50 41.88 58.94Q41.50 58.38 41 57.50L41 57.50Q40.50 56.63 39.75 55.94Q39 55.25 38.75 53.63L38.75 53.63Q38.63 52 39.81 50.56Q41 49.13 43.50 49.75L43.50 49.75Q45.25 50.13 46.38 51.81Q47.50 53.50 47.88 54.25L47.88 54.25Q48.13 54.63 48.75 54.88Q49.38 55.13 50.13 54.63L50.13 54.63Q50.75 54 51.31 54Q51.88 54 52.38 54.75L52.38 54.75Q52.75 55.38 55.38 58.19Q58 61 61.25 61.13L61.25 61.13Q64.50 61.13 66.44 60.63Q68.38 60.13 69.75 60.25L69.75 60.25Q70.75 60.25 71.38 60.56Q72 60.88 72.63 61L72.63 61Q73.63 61.13 74.44 60.56Q75.25 60 76.38 60.13L76.38 60.13Q77.25 60.13 78.25 60.56Q79.25 61 80.25 61L80.25 61Q81.38 61 82.94 60.25Q84.50 59.50 84.38 60L84.38 60Q84.38 60.88 83.88 62.19Q83.38 63.50 83.25 64.25L83.25 64.25Q83 64.75 83.06 65.81Q83.13 66.88 82.75 67.75L82.75 67.75Q82.50 68.75 81.81 69.81Q81.13 70.88 80.88 71.25L80.88 71.25Q80.13 72.50 79.44 73.19Q78.75 73.88 78.13 75.13L78.13 75.13Q77.38 76.50 76.38 77.69Q75.38 78.88 75.13 79.25L75.13 79.25Q74.75 79.88 76.63 79.44Q78.50 79 79.38 78.13L79.38 78.13Q80.25 77.38 81.69 75.63Q83.13 73.88 85.38 73.25L85.38 73.25Q86.88 73 87.31 72.44Q87.75 71.88 87.63 71.25L87.63 71.25L87.50 71Q87.50 70.75 87.63 70.63Q87.75 70.50 87.88 70.38L87.88 70.38Q89.50 69.75 91.56 69.38Q93.63 69 96 69L96 69Q97.38 69 98.69 69.13Q100 69.25 101.25 69.63L101.25 69.63Q104.63 64.38 106.50 58.25Q108.38 52.13 108.38 45.50L108.38 45.50Q108.38 36.38 104.88 28.25L104.88 28.25Q101.50 20.25 95.44 14.19Q89.38 8.13 81.38 4.75L81.38 4.75Q73.25 1.25 64.13 1.25L64.13 1.25Q54.88 1.25 46.88 4.75L46.88 4.75Q38.75 8.13 32.75 14.19Q26.75 20.25 23.25 28.25L23.25 28.25Q19.75 36.38 19.75 45.50L19.75 45.50Q19.75 49.13 20.38 52.56Q21 56 22.13 59.75L22.13 59.75L25.25 59.75Q27.25 59.75 29.13 59.25Q31 58.75 32.63 57.88L32.63 57.88Q33 57.63 33.44 57.50Q33.88 57.38 34.38 57.38L34.38 57.38Q35.50 57.38 36.31 57.81Q37.13 58.25 37.75 59.13L37.75 59.13Q38.13 59.88 38.63 60.38Q39.13 60.88 39.75 61.25L39.75 61.25Q40.13 61.63 40.81 61.81Q41.50 62 42.38 62L42.38 62Q42.88 62.25 43.44 62.13Q44 62 44.13 61.50L44.13 61.50ZM29 32.63L29 32.63Q29.75 29.88 33.75 28.75Q37.75 27.63 43.50 28.25L43.50 28.25Q42.63 30 43.13 32.06Q43.63 34.13 47.50 36.50L47.50 36.50Q52.13 39.13 58.50 41Q64.88 42.88 67.13 42.75L67.13 42.75Q67.88 42.63 68.38 42.25Q68.88 41.88 68.25 41.38L68.25 41.38Q67.50 41 66.88 40Q66.25 39 65.88 37.25L65.88 37.25Q65.63 36.38 64.63 35.19Q63.63 34 58.63 33.13L58.63 33.13Q47.88 31.13 46.38 28.44Q44.88 25.75 45.25 24L45.25 24Q45.25 24 45.94 20.88Q46.63 17.75 47 16.25L47 16.25Q47.38 14.75 49.31 12.50Q51.25 10.25 58.13 11.75L58.13 11.75Q62.13 12.63 64.38 11.94Q66.63 11.25 67.75 11L67.75 11Q70.75 10.25 73.75 10.81Q76.75 11.38 78.63 13.25L78.63 13.25Q80.50 15.13 82.75 20.19Q85 25.25 86.25 29.75L86.25 29.75Q86.88 32 86.81 33.25Q86.75 34.50 86.50 35.25L86.50 35.25Q86.25 35.88 86 36.38Q85.75 36.88 85 38.25L85 38.25Q84.88 38.38 85 38.63Q85.13 38.88 85.38 38.63L85.38 38.63Q87.50 37.50 88.19 36.19Q88.88 34.88 89.25 33.75L89.25 33.75Q94.88 35.13 97.94 37.94Q101 40.75 100.25 44.75L100.25 44.75Q99.38 49.13 95.75 52L95.75 52Q92 54.88 86.50 56.19Q81 57.50 74.25 57.13L74.25 57.13Q67.50 56.75 60.50 54.75L60.50 54.75Q53.88 52.75 47.88 49.88L47.88 49.88Q41.75 47.13 37.38 44.06Q33 41 30.63 38L30.63 38Q28.38 34.88 29 32.63ZM7.50 107L7.50 107L7.25 107L7.13 102L1.88 102Q2 103.50 2.06 105.44Q2.13 107.38 2.13 109.75L2.13 109.75L2 126L8 126L8 113.75Q8 113.25 8.06 112.75Q8.13 112.25 8.25 111.88L8.25 111.88Q8.63 109.88 9.94 108.56Q11.25 107.25 13.38 107.25L13.38 107.25Q13.88 107.25 14.44 107.31Q15 107.38 15 107.50L15 107.50L15 101.75Q15 101.75 14.63 101.75Q14.25 101.75 13.75 101.75L13.75 101.75Q11.88 101.75 10.13 102.88Q8.38 104 7.50 107L7.50 107ZM28.63 101.63L28.63 101.63Q22.88 101.63 19.88 105.56Q16.88 109.50 16.88 114.38L16.88 114.38Q16.88 119.88 20.13 123.19Q23.38 126.50 29.25 126.50L29.25 126.50Q31.88 126.50 33.94 126.06Q36 125.63 37.50 125L37.50 125L36.63 120.88Q35.25 121.38 33.69 121.69Q32.13 122 30 122L30 122Q27.13 122 24.94 120.50Q22.75 119 22.63 115.75L22.63 115.75L38.50 115.75Q38.63 115.38 38.69 114.69Q38.75 114 38.75 113.25L38.75 113.25Q38.75 109.25 36.56 105.44Q34.38 101.63 28.63 101.63ZM22.75 112L22.75 112Q22.88 109.75 24.13 108Q25.38 106.25 28.25 106.25L28.25 106.25Q31.25 106.25 32.25 108Q33.25 109.75 33.25 112L33.25 112L22.75 112ZM65 119.25L65 93L59 91.25L59 105L58.75 105Q57.88 103.50 56.19 102.63Q54.50 101.75 52 101.75L52 101.75Q47.75 101.75 44.50 105.13Q41.25 108.50 41.25 114.50L41.25 114.50Q41.25 120 44.25 123.25Q47.25 126.50 51.50 126.50L51.50 126.50Q54 126.50 56.06 125.38Q58.13 124.25 59.25 122L59.25 122L59.25 122L59.63 126L65 126Q64.88 124.50 64.94 122.81Q65 121.13 65 119.25L65 119.25ZM58.88 115.75L59 115.75Q59 116.13 58.88 116.56Q58.75 117 58.75 117.50L58.75 117.50Q58.25 119.50 56.75 120.63Q55.25 121.75 53.38 121.75L53.38 121.75Q50.50 121.75 48.94 119.63Q47.38 117.50 47.38 114.25L47.38 114.25Q47.38 110.88 48.94 108.63Q50.50 106.38 53.38 106.38L53.38 106.38Q55.38 106.38 56.88 107.63Q58.38 108.88 58.75 110.63L58.75 110.63Q58.75 111 58.81 111.44Q58.88 111.88 58.88 112.25L58.88 112.25L58.88 115.75ZM80.75 101.63L80.75 101.63Q79.38 101.63 78.19 101.88Q77 102.13 75.88 102.75L75.88 102.75Q74.88 103.38 74 104.31Q73.13 105.25 72.63 106L72.63 106L72 106L72 95.25L70 94.63L70 126L72 126L72 111.38Q72 110.63 72.25 110.13Q72.50 109.63 72.63 109.13L72.63 109.13Q73.38 106.88 75.44 105.31Q77.50 103.75 80.13 103.75L80.13 103.75Q83.75 103.75 85.38 106.19Q87 108.63 87 111.88L87 111.88L87 126L89 126L89 111.63Q89 104.88 85.69 103.25Q82.38 101.63 80.75 101.63L80.75 101.63ZM110.13 111L110 111Q110 107.75 108.56 104.69Q107.13 101.63 101.88 101.63L101.88 101.63Q100.25 101.63 98.38 102.13Q96.50 102.63 94.88 103.75L94.88 103.75L95.75 105.38Q97 104.50 98.63 104.06Q100.25 103.63 101.75 103.63L101.75 103.63Q106 103.63 107 106.25Q108 108.88 108 110.63L108 110.63L108 111.25Q100.50 111.13 96.94 113.44Q93.38 115.75 93.38 119.88L93.38 119.88Q93.38 122.25 95.06 124.50Q96.75 126.75 100.38 126.75L100.38 126.75Q103.25 126.75 105.19 125.19Q107.13 123.63 108 122.88L108 122.88L108.13 122.88L108.38 125.88L110.63 125.88Q110.38 124.38 110.25 123Q110.13 121.63 110.13 120.25L110.13 120.25L110.13 111ZM108 113.25L108 118.38Q108 118.75 107.88 119.06Q107.75 119.38 107.75 119.75L107.75 119.75Q107.13 121.50 105.38 123.06Q103.63 124.63 100.63 124.63L100.63 124.63Q98.75 124.63 97.31 123.44Q95.88 122.25 95.88 119.63L95.88 119.63Q95.88 115.38 100.06 114.25Q104.25 113.13 108 113.25L108 113.25ZM126 104L126 104L126 102L119 102L119 96.88L117 97.75L117 102L113 102L113 104L117 104L117 119.25Q117 121 117.38 122.44Q117.75 123.88 118.63 124.88L118.63 124.88Q119.25 125.75 120.38 126.19Q121.50 126.63 122.75 126.63L122.75 126.63Q123.88 126.63 124.69 126.44Q125.50 126.25 126.13 126L126.13 126L125.75 124.25Q125.38 124.38 124.56 124.50Q123.75 124.63 122.75 124.63L122.75 124.63Q120.88 124.63 119.94 123.31Q119 122 119 119.75L119 119.75L119 104L126 104Z"/></svg>