<svg xmlns="http://www.w3.org/2000/svg" xmlns:xlink="http://www.w3.org/1999/xlink" width="128" height="128"><path fill="#000000" d="M77.63 92.38L77.63 92.38Q77.50 92.38 77.50 92.38Q77.50 92.38 77.50 92.50L77.50 92.50Q76.88 93.13 76.50 93.50Q76.13 93.88 75.75 94.25L75.75 94.25Q74.75 95 73.63 94.50Q72.50 94 71.75 93.50L71.75 93.50Q70.13 92.50 68.88 92.88Q67.63 93.25 67.25 94L67.25 94Q66.88 94.75 67.25 95.50Q67.63 96.25 68.50 96.13L68.50 96.13Q69.75 96 70.19 96.13Q70.63 96.25 71.63 96.88L71.63 96.88Q73.38 98 74.63 97.69Q75.88 97.38 76.50 96.88L76.50 96.88Q77 96.50 77.38 96.06Q77.75 95.63 78 95.13L78 95.13Q78.50 94.13 78.25 93.38Q78 92.63 77.75 92.38L77.75 92.38L77.63 92.38ZM74.88 17L74.88 17L74.50 17Q74 17 73.44 17.19Q72.88 17.38 72.38 17.38L72.38 17.38Q70.63 17.50 69.06 18.06Q67.50 18.63 66.50 19.13L66.50 19.13Q66.38 19.13 66.38 19.06Q66.38 19 66.38 19L66.38 19L66.63 18.88L67.75 19.13Q70.75 18.75 72.88 19.25Q75 19.75 75.13 20.75L75.13 20.75Q75.13 21.38 74 22.06Q72.88 22.75 71 23.25L71 23.25Q70.88 23.25 70.81 23.31Q70.75 23.38 70.75 23.50L70.75 23.50Q70.75 23.63 70.81 23.69Q70.88 23.75 71 23.75L71 23.75Q71.75 24 72.69 24.13Q73.63 24.25 74.63 24.25L74.63 24.25Q77.63 24.38 79.75 23.31Q81.88 22.25 81.88 20.75L81.88 20.75Q82 19.50 79.94 18.25Q77.88 17 74.88 17ZM64 1.75L64 1.75Q51.13 1.75 39.75 6.75L39.75 6.75Q28.38 11.63 19.88 20.06Q11.38 28.50 6.50 39.88L6.50 39.88Q1.63 51.25 1.63 64.13L1.63 64.13Q1.63 69.38 2.44 74.44Q3.25 79.50 4.88 84L4.88 84L9.25 84Q12 84 14.69 83.38Q17.38 82.75 19.63 81.63L19.63 81.63Q20.25 81.25 20.81 81.13Q21.38 81 22.13 81L22.13 81Q23.50 81 24.75 81.63Q26 82.25 26.75 83.50L26.75 83.50Q27.38 84.75 28 85.44Q28.63 86.13 29.50 86.63L29.50 86.63Q30.13 87 31.06 87.31Q32 87.63 33.25 87.63L33.25 87.63Q33.88 87.63 34.69 87.38Q35.50 87.13 35.75 86.50L35.75 86.50Q36 85.75 35.63 85.19Q35.25 84.63 34.38 84.25L34.38 84.25Q33.13 83.75 32.63 83Q32.13 82.25 31.38 81L31.38 81Q30.75 79.75 29.63 78.81Q28.50 77.88 28.25 75.63L28.25 75.63Q28.13 73.38 29.81 71.31Q31.50 69.25 34.88 70.13L34.88 70.13Q37.38 70.75 38.94 73.06Q40.50 75.38 41.13 76.38L41.13 76.38Q41.38 76.88 42.31 77.31Q43.25 77.75 44.25 76.88L44.25 76.88Q45.13 76.13 45.94 76.13Q46.75 76.13 47.38 77.25L47.38 77.25Q48 78.13 51.69 82.06Q55.38 86 59.88 86.13L59.88 86.13Q64.50 86.25 67.31 85.50Q70.13 84.75 72.13 84.75L72.13 84.75Q73.50 84.88 74.31 85.38Q75.13 85.88 76 86L76 86Q77.38 86.25 78.56 85.44Q79.75 84.63 81.25 84.75L81.25 84.75Q82.63 84.75 83.94 85.31Q85.25 85.88 86.75 85.88L86.75 85.88Q88.13 85.88 90.38 84.88Q92.63 83.88 92.50 84.63L92.50 84.63Q92.38 85.88 91.69 87.69Q91 89.50 90.75 90.63L90.75 90.63Q90.63 91.25 90.63 92.75Q90.63 94.25 90.25 95.75L90.25 95.75Q89.88 97.13 88.88 98.63Q87.88 100.13 87.50 100.63L87.50 100.63Q86.38 102.38 85.50 103.31Q84.63 104.25 83.63 106L83.63 106Q82.50 108 81.13 109.69Q79.75 111.38 79.25 112L79.25 112Q78.75 112.75 81.38 112.19Q84 111.63 85.38 110.25L85.38 110.25Q86.50 109.25 88.56 106.75Q90.63 104.25 93.88 103.50L93.88 103.50Q96.13 103 96.69 102.25Q97.25 101.50 97 100.75L97 100.75Q96.88 100.63 96.88 100.50Q96.88 100.38 96.88 100.25L96.88 100.25Q96.88 100 97.06 99.75Q97.25 99.50 97.50 99.38L97.50 99.38Q99.75 98.50 102.69 97.94Q105.63 97.38 108.88 97.38L108.88 97.38Q110.88 97.38 112.75 97.63Q114.63 97.88 116.38 98.25L116.38 98.25Q121.13 91 123.75 82.38Q126.38 73.75 126.38 64.38L126.38 64.38Q126.38 51.38 121.50 40L121.50 40Q116.63 28.63 108.13 20.13Q99.63 11.63 88.25 6.75L88.25 6.75Q77 1.75 64 1.75L64 1.75ZM114.75 63L114.75 63Q113.63 69.13 108.50 73.25L108.50 73.25Q103.25 77.25 95.50 79.13Q87.75 81 78.13 80.50L78.13 80.50Q68.63 80 58.75 77L58.75 77Q49.38 74.25 41 70.13L41 70.13Q32.50 66.13 26.31 61.81Q20.13 57.50 16.88 53.25L16.88 53.25Q13.63 49 14.50 45.75L14.50 45.75Q15.63 41.88 21.19 40.31Q26.75 38.75 34.88 39.63L34.88 39.63Q33.75 42.13 34.44 45.06Q35.13 48 40.50 51.25L40.50 51.25Q47.13 55 56.13 57.69Q65.13 60.38 68.13 60.13L68.13 60.13Q69.25 60 69.94 59.50Q70.63 59 69.63 58.25L69.63 58.25Q68.63 57.63 67.75 56.25Q66.88 54.88 66.25 52.50L66.25 52.50Q66 51.25 64.50 49.56Q63 47.88 56 46.50L56 46.50Q40.88 43.63 38.81 39.88Q36.75 36.13 37.25 33.75L37.25 33.75Q37.25 33.75 38.19 29.31Q39.13 24.88 39.75 22.75L39.75 22.75Q40.25 20.75 42.94 17.50Q45.63 14.25 55.38 16.38L55.38 16.38Q61 17.63 64.25 16.75Q67.50 15.88 69 15.50L69 15.50Q73.25 14.50 77.50 15.25Q81.75 16 84.25 18.63L84.25 18.63Q87 21.38 90.19 28.50Q93.38 35.63 95.13 42L95.13 42Q96 45.25 95.94 46.94Q95.88 48.63 95.38 49.75L95.38 49.75Q95.13 50.50 94.75 51.25Q94.38 52 93.25 53.88L93.25 53.88Q93 54.25 93.19 54.50Q93.38 54.75 93.75 54.50L93.75 54.50Q96.63 53 97.63 51.13Q98.63 49.25 99.13 47.75L99.13 47.75Q107.13 49.50 111.44 53.44Q115.75 57.38 114.75 63ZM57.63 27.50L57.63 27.50Q55.38 27.50 53.63 27.69Q51.88 27.88 50.50 27.88L50.50 27.88Q49.13 27.88 48.06 27.13Q47 26.38 46.50 25.75L46.50 25.75Q46 25.13 44.94 25Q43.88 24.88 43.25 26.63L43.25 26.63Q42.50 28.38 43.44 29.88Q44.38 31.38 45.50 31.63L45.50 31.63Q45.50 31.63 47 33.69Q48.50 35.75 49.88 34.25L49.88 34.25Q50.88 33.13 52.31 32.50Q53.75 31.88 59.25 31.50L59.25 31.50Q61.75 31.25 62.38 30.75Q63 30.25 62.88 29.63L62.88 29.63Q62.75 28.88 61.31 28.19Q59.88 27.50 57.63 27.50L57.63 27.50Z"/></svg>