<svg xmlns="http://www.w3.org/2000/svg" xmlns:xlink="http://www.w3.org/1999/xlink" width="128" height="128"><path fill="#000000" d="M68.75 37.88L68.75 37.88L69.75 37.88L72.88 34.75L73.13 33.50Q71.25 31.88 68.88 30.94Q66.50 30 63.75 30L63.75 30Q59 30 55.25 32.94Q51.50 35.88 50.25 40.25L50.25 40.25Q50.50 40.13 50.94 40.19Q51.38 40.25 51.38 40.25L51.38 40.25L57.63 39.25Q57.63 39.25 57.81 39Q58 38.75 58.13 38.75L58.13 38.75Q60.25 36.50 63.25 36.25Q66.25 36 68.75 37.88ZM77.25 40.38L77.38 40.25Q76.75 38.38 75.69 36.63Q74.63 34.88 73.13 33.50L73.13 33.50L68.75 37.88Q70.13 39 70.88 40.63Q71.63 42.25 71.63 44L71.63 44L71.63 44.75Q73.13 44.75 74.31 45.88Q75.50 47 75.50 48.75L75.50 48.75Q75.50 50.25 74.38 51.38Q73.25 52.50 71.63 52.50L71.63 52.50L63.75 52.50L63 53.25L63 58L63.75 58.75L71.63 58.75Q75.75 58.75 78.75 55.81Q81.75 52.88 81.75 48.75L81.75 48.75Q81.75 46.13 80.56 43.94Q79.38 41.75 77.25 40.38L77.25 40.38ZM56.13 58.75L56.13 58.75L63.88 58.75L63.88 52.50L56.13 52.50Q55.63 52.50 55.25 52.44Q54.88 52.38 54.50 52.25L54.50 52.25L53.38 52.50L50.25 55.63L50 56.63Q51.25 57.63 52.88 58.19Q54.50 58.75 56.13 58.75ZM56.13 38.50L56.13 38.50Q51.88 38.50 48.94 41.44Q46 44.38 46 48.63L46 48.63Q46 51 47.06 53.13Q48.13 55.25 50 56.75L50 56.75L54.50 52.25Q53.50 51.63 52.88 50.69Q52.25 49.75 52.25 48.63L52.25 48.63Q52.25 47 53.38 45.88Q54.50 44.75 56.13 44.75L56.13 44.75Q57.25 44.75 58.19 45.38Q59.13 46 59.63 47L59.63 47L64.13 42.50Q62.75 40.75 60.63 39.63Q58.50 38.50 56.13 38.50L56.13 38.50ZM15.88 78.38L15.88 78.25Q14.38 78.25 13 77.69Q11.63 77.13 10.38 76L10.38 76Q9.25 74.88 8.69 73.56Q8.13 72.25 8.13 70.63L8.13 70.63Q8.13 69 8.69 67.69Q9.25 66.38 10.38 65.25L10.38 65.25Q11.50 64.13 12.94 63.50Q14.38 62.88 15.88 62.88L15.88 62.88Q17.38 63 18.69 63.50Q20 64 21.13 65.13L21.13 65.13L19.63 66.63Q18.88 65.88 17.88 65.50Q16.88 65.13 15.75 65.13L15.75 65.13Q14.63 65.13 13.69 65.50Q12.75 65.88 11.88 66.75L11.88 66.75Q11.13 67.50 10.75 68.50Q10.38 69.50 10.38 70.63L10.38 70.63Q10.38 71.75 10.75 72.75Q11.13 73.75 12 74.50L12 74.50Q12.75 75.38 13.75 75.81Q14.75 76.25 15.75 76.25L15.75 76.25Q17 76.25 17.94 75.88Q18.88 75.50 19.75 74.75L19.75 74.75Q20.13 74.25 20.44 73.56Q20.75 72.88 20.75 72.13L20.75 72.13L15.88 72.13L15.88 70L22.88 70Q23 70.25 23 70.56Q23 70.88 23 71.25L23 71.25Q23 72.88 22.56 74.06Q22.13 75.25 21.25 76.25L21.25 76.25Q20.13 77.25 18.81 77.81Q17.50 78.38 15.88 78.38L15.88 78.38ZM32.25 76.88L32.25 76.88Q31.50 77.63 30.69 77.94Q29.88 78.25 28.75 78.25L28.75 78.25Q27.75 78.25 26.88 77.94Q26 77.63 25.25 76.88L25.25 76.88Q24.63 76.25 24.25 75.38Q23.88 74.50 23.88 73.38L23.88 73.38Q23.88 72.38 24.25 71.50Q24.63 70.63 25.25 69.88L25.25 69.88Q26 69.25 26.88 68.88Q27.75 68.50 28.75 68.50L28.75 68.50Q29.88 68.50 30.75 68.88Q31.63 69.25 32.25 69.88L32.25 69.88Q33 70.63 33.38 71.50Q33.75 72.38 33.75 73.38L33.75 73.38Q33.75 74.50 33.38 75.38Q33 76.25 32.25 76.88ZM26.75 75.50L26.75 75.50Q27.13 76 27.63 76.19Q28.13 76.38 28.75 76.38L28.75 76.38Q29.25 76.38 29.75 76.19Q30.25 76 30.75 75.50L30.75 75.50Q31.13 75 31.31 74.50Q31.50 74 31.50 73.38L31.50 73.38Q31.50 72.75 31.31 72.19Q31.13 71.63 30.75 71.25L30.75 71.25Q30.38 70.75 29.81 70.56Q29.25 70.38 28.75 70.38L28.75 70.38Q28.13 70.38 27.63 70.63Q27.13 70.88 26.75 71.25L26.75 71.25Q26.38 71.63 26.13 72.19Q25.88 72.75 25.88 73.38L25.88 73.38Q25.88 74.13 26.13 74.63Q26.38 75.13 26.75 75.50L26.75 75.50ZM43.13 76.88L43.13 76.88Q42.38 77.63 41.50 77.94Q40.63 78.25 39.63 78.25L39.63 78.25Q38.50 78.25 37.63 77.94Q36.75 77.63 36.13 76.88L36.13 76.88Q35.38 76.25 35.06 75.38Q34.75 74.50 34.75 73.38L34.75 73.38Q34.75 72.38 35.06 71.50Q35.38 70.63 36.13 69.88L36.13 69.88Q36.75 69.25 37.63 68.88Q38.50 68.50 39.63 68.50L39.63 68.50Q40.63 68.50 41.50 68.88Q42.38 69.25 43.13 69.88L43.13 69.88Q43.75 70.63 44.13 71.50Q44.50 72.38 44.50 73.38L44.50 73.38Q44.50 74.50 44.13 75.38Q43.75 76.25 43.13 76.88ZM37.50 75.50L37.63 75.50Q38 76 38.50 76.19Q39 76.38 39.50 76.38L39.50 76.38Q40.13 76.38 40.56 76.19Q41 76 41.50 75.50L41.50 75.50Q42 75 42.13 74.50Q42.25 74 42.25 73.38L42.25 73.38Q42.25 72.75 42.06 72.19Q41.88 71.63 41.50 71.25L41.50 71.25Q41.13 70.75 40.63 70.56Q40.13 70.38 39.50 70.38L39.50 70.38Q39 70.38 38.44 70.63Q37.88 70.88 37.50 71.25L37.50 71.25Q37.13 71.63 36.94 72.19Q36.75 72.75 36.75 73.38L36.75 73.38Q36.75 74.13 36.94 74.63Q37.13 75.13 37.50 75.50L37.50 75.50ZM50.25 82.88L50.25 82.75Q49.38 82.75 48.69 82.50Q48 82.25 47.38 81.75L47.38 81.75Q46.75 81.38 46.38 80.88Q46 80.38 45.75 79.75L45.75 79.75L47.75 79Q47.88 79.38 48.06 79.69Q48.25 80 48.63 80.25L48.63 80.25Q48.88 80.38 49.25 80.56Q49.63 80.75 50.25 80.75L50.25 80.75Q50.75 80.75 51.25 80.50Q51.75 80.25 52.13 80L52.13 80Q52.38 79.75 52.56 79.13Q52.75 78.50 52.75 77.75L52.75 77.75L52.75 77.13L52.75 77.13Q52.25 77.63 51.56 77.94Q50.88 78.25 50.13 78.25L50.13 78.25Q49.13 78.25 48.31 77.88Q47.50 77.50 46.75 76.75L46.75 76.75Q46 76.25 45.69 75.31Q45.38 74.38 45.38 73.38L45.38 73.38Q45.38 72.38 45.69 71.50Q46 70.63 46.75 69.88L46.75 69.88Q47.50 69.13 48.31 68.81Q49.13 68.50 50.13 68.50L50.13 68.50Q50.50 68.50 50.88 68.56Q51.25 68.63 51.63 68.75L51.63 68.75Q51.88 69 52.19 69.19Q52.50 69.38 52.75 69.63L52.75 69.63L52.75 69.63L52.75 68.75L54.88 68.75L54.88 77.75Q54.88 79 54.56 79.94Q54.25 80.88 53.63 81.63L53.63 81.63Q52.88 82.25 52.06 82.56Q51.25 82.88 50.25 82.88L50.25 82.88ZM50.25 76.50L50.25 76.25Q50.88 76.38 51.31 76.19Q51.75 76 52.13 75.50L52.13 75.50Q52.50 75 52.69 74.50Q52.88 74 52.88 73.38L52.88 73.38Q52.88 72.75 52.69 72.19Q52.50 71.63 52.13 71.25L52.13 71.25Q51.75 70.88 51.31 70.63Q50.88 70.38 50.25 70.38L50.25 70.38Q49.75 70.38 49.25 70.63Q48.75 70.88 48.38 71.25L48.38 71.25Q48 71.75 47.81 72.31Q47.63 72.88 47.63 73.50L47.63 73.50Q47.63 74.13 47.81 74.69Q48 75.25 48.38 75.63L48.38 75.63Q48.75 76 49.25 76.25Q49.75 76.50 50.25 76.50L50.25 76.50ZM56.25 63.38L58.50 63.38L58.50 77.88L56.25 77.88L56.25 63.38ZM64.38 78.25L64.38 78.25Q63.38 78.25 62.50 77.88Q61.63 77.50 60.88 76.75L60.88 76.75Q60.25 76.13 59.88 75.25Q59.50 74.38 59.50 73.25L59.50 73.25Q59.50 72.25 59.88 71.38Q60.25 70.50 60.88 69.75L60.88 69.75Q61.50 69.13 62.38 68.75Q63.25 68.38 64.25 68.38L64.25 68.38Q64.63 68.38 65.06 68.44Q65.50 68.50 65.88 68.75L65.88 68.75Q66.25 68.88 66.50 69.06Q66.75 69.25 67.13 69.63L67.13 69.63Q67.38 69.88 67.56 70.06Q67.75 70.25 67.88 70.63L67.88 70.63Q68 70.88 68.19 71.06Q68.38 71.25 68.38 71.63L68.38 71.63L68.63 72.25L62 74.88Q62.38 75.63 63 76Q63.63 76.38 64.38 76.38L64.38 76.38Q65.13 76.38 65.75 76Q66.38 75.63 66.75 75L66.75 75L68.50 76.13Q68.25 76.50 67.81 76.88Q67.38 77.25 66.88 77.63L66.88 77.63Q66.38 77.88 65.75 78.06Q65.13 78.25 64.38 78.25L64.38 78.25ZM61.63 73.25L61.75 73.13L66.13 71.25Q66 71.13 65.81 70.88Q65.63 70.63 65.38 70.50L65.38 70.50Q65.13 70.38 64.81 70.31Q64.50 70.25 64.25 70.25L64.25 70.25Q63.75 70.25 63.31 70.50Q62.88 70.75 62.38 71.13L62.38 71.13Q62 71.50 61.81 72Q61.63 72.50 61.63 73.25L61.63 73.25ZM80 78.25L80 78.25Q78.50 78.25 77.25 77.69Q76 77.13 75 76.25L75 76.25Q74 75.25 73.50 74Q73 72.75 73 71.25L73 71.25Q73 69.75 73.50 68.44Q74 67.13 75 66.25L75 66.25Q76 65.25 77.25 64.75Q78.50 64.25 80 64.25L80 64.25Q81.50 64.25 82.75 64.75Q84 65.25 84.88 66.38L84.88 66.38L83.75 67.63Q83 66.75 82.06 66.31Q81.13 65.88 80 65.88L80 65.88Q78.88 65.88 77.94 66.25Q77 66.63 76.25 67.38L76.25 67.38Q75.50 68.13 75.13 69.13Q74.75 70.13 74.75 71.25L74.75 71.25Q74.75 72.50 75.13 73.50Q75.50 74.50 76.25 75.25L76.25 75.25Q77 76 77.94 76.38Q78.88 76.75 80 76.75L80 76.75Q81.25 76.75 82.25 76.25Q83.25 75.75 84.13 74.75L84.13 74.75L85.25 76Q84.88 76.50 84.25 76.94Q83.63 77.38 83 77.75L83 77.75Q82.25 78 81.50 78.13Q80.75 78.25 80 78.25L80 78.25ZM88.63 64.63L88.63 77.88L86.88 77.88L86.88 64.63L88.63 64.63ZM91.38 69.75L91.38 69.75Q92.13 69.13 92.94 68.75Q93.75 68.38 94.75 68.38L94.75 68.38Q95.88 68.38 96.69 68.75Q97.50 69.13 98.25 69.75L98.25 69.75Q98.88 70.50 99.19 71.38Q99.50 72.25 99.50 73.25L99.50 73.25Q99.50 74.38 99.19 75.25Q98.88 76.13 98.25 76.75L98.25 76.75Q97.50 77.50 96.69 77.88Q95.88 78.25 94.75 78.25L94.75 78.25Q93.75 78.25 92.94 77.88Q92.13 77.50 91.38 76.75L91.38 76.75Q90.75 76.13 90.44 75.25Q90.13 74.38 90.13 73.25L90.13 73.25Q90.13 72.25 90.44 71.38Q90.75 70.50 91.38 69.75ZM92.75 75.75L92.75 75.75Q93.13 76.13 93.69 76.38Q94.25 76.63 94.75 76.63L94.75 76.63Q95.38 76.63 95.94 76.38Q96.50 76.13 96.88 75.75L96.88 75.75Q97.38 75.25 97.56 74.63Q97.75 74 97.75 73.25L97.75 73.25Q97.75 72.50 97.56 71.94Q97.38 71.38 96.88 70.88L96.88 70.88Q96.50 70.50 95.94 70.25Q95.38 70 94.75 70L94.75 70Q94.25 70 93.69 70.25Q93.13 70.50 92.75 70.88L92.75 70.88Q92.25 71.38 92 71.94Q91.75 72.50 91.75 73.25L91.75 73.25Q91.75 74 92 74.63Q92.25 75.25 92.75 75.75ZM108.88 78.13L109 77.88L107.38 77.88L107.38 76.63L107.25 76.63Q107.13 76.88 106.81 77.19Q106.50 77.50 106.13 77.75L106.13 77.75Q105.75 77.88 105.31 78.06Q104.88 78.25 104.38 78.25L104.38 78.25Q103.63 78.25 102.94 78Q102.25 77.75 101.75 77.25L101.75 77.25Q101.38 76.63 101.13 75.94Q100.88 75.25 100.88 74.38L100.88 74.38L100.88 68.75L102.63 68.75L102.63 74.13Q102.63 75.38 103.19 76.06Q103.75 76.75 104.88 76.75L104.88 76.75Q105.38 76.75 105.81 76.50Q106.25 76.25 106.63 75.88L106.63 75.88Q106.88 75.50 107.06 74.94Q107.25 74.38 107.25 73.88L107.25 73.88L107.25 68.88L108.88 68.88L108.88 78.13ZM114.75 78L114.75 78.25Q113.88 78.25 113.13 77.88Q112.38 77.50 111.75 76.75L111.75 76.75Q111 76.13 110.69 75.25Q110.38 74.38 110.38 73.25L110.38 73.25Q110.38 72.25 110.69 71.38Q111 70.50 111.75 69.75L111.75 69.75Q112.38 69 113.13 68.69Q113.88 68.38 114.75 68.38L114.75 68.38Q115.38 68.38 115.81 68.50Q116.25 68.63 116.75 68.75L116.75 68.75Q117.13 69 117.44 69.31Q117.75 69.63 117.88 69.88L117.88 69.88L118 69.88L117.88 68.63L117.88 64.38L119.63 64.38L119.63 77.75L118 77.75L118 76.50L117.88 76.50Q117.63 76.75 117.38 77.06Q117.13 77.38 116.75 77.63L116.75 77.63Q116.25 77.88 115.81 77.94Q115.38 78 114.75 78L114.75 78ZM115.13 76.75L115.13 76.63Q115.63 76.63 116.19 76.44Q116.75 76.25 117.13 75.75L117.13 75.75Q117.50 75.38 117.69 74.75Q117.88 74.13 117.88 73.38L117.88 73.38Q117.88 72.63 117.69 72.06Q117.50 71.50 117.13 71L117.13 71Q116.75 70.63 116.19 70.38Q115.63 70.13 115.13 70.13L115.13 70.13Q114.50 70.13 114 70.31Q113.50 70.50 113 71L113 71Q112.50 71.50 112.31 72.06Q112.13 72.63 112.13 73.38L112.13 73.38Q112.13 74.13 112.31 74.75Q112.50 75.38 113 75.75L113 75.75Q113.38 76.25 113.94 76.50Q114.50 76.75 115.13 76.75L115.13 76.75Z"/></svg>