<svg xmlns="http://www.w3.org/2000/svg" xmlns:xlink="http://www.w3.org/1999/xlink" width="128" height="128"><path fill="#000000" d="M80.63 40.25L80.63 40.25L81 40.25L80.75 40.13L94.75 26.13L94.75 25.75Q90.38 21.88 85.25 19.25L85.25 19.25Q80 16.75 74.44 15.50Q68.88 14.25 63 14.38L63 14.38Q57.25 14.63 51.63 16.25L51.63 16.25Q46 18 41 21L41 21Q36 24 32.06 28.13Q28.13 32.25 25.13 37.25L25.13 37.25Q22.25 42.25 20.75 48L20.75 48Q20.88 47.88 21.06 47.81Q21.25 47.75 21.50 47.75L21.50 47.75Q25.38 45.25 29.94 43.81Q34.50 42.38 39.38 42.38L39.38 42.38Q41 42.38 42.63 42.56Q44.25 42.75 45.75 43L45.75 43Q45.88 42.88 45.94 42.88Q46 42.88 46.13 42.88L46.13 42.88Q49.50 39.25 53.88 37.13L53.88 37.13Q58.25 35 62.88 34.69Q67.50 34.38 72.13 35.75L72.13 35.75Q76.75 37.13 80.75 40.25L80.75 40.25L80.63 40.25ZM108.13 47.75L108.13 47.75Q106.38 41.38 102.88 35.75Q99.38 30.13 94.25 25.75L94.25 25.75L80 39.88Q84.50 43.63 87 48.88Q89.50 54.13 89.25 59.88L89.25 59.88L89.25 62.38Q95.63 62.38 98.75 66.38L98.75 66.38Q102 70.25 102 75Q102 79.75 98.75 83.63L98.75 83.63Q95.63 87.63 89.25 87.63L89.25 87.63L63.88 87.63L63.88 107.63L63.75 107.63L63.88 107.75L89.25 107.75Q94.75 107.88 99.88 106.13L99.88 106.13Q104.88 104.50 109.06 101.44Q113.25 98.38 116.38 94.13L116.38 94.13Q119.50 89.88 121.13 84.75L121.13 84.75Q122.75 79.50 122.63 74.25L122.63 74.25Q122.38 69 120.69 64.13Q119 59.25 115.75 55L115.75 55Q112.63 50.88 108.13 47.75L108.13 47.75L108.13 47.75ZM39.13 108L39 107.88L65.25 107.88L65.25 87.75L39 87.75Q37.63 87.75 36.25 87.44Q34.88 87.13 33.63 86.63L33.63 86.63L18.38 101.25L18.38 101.38Q22.88 104.63 28.19 106.31Q33.50 108 39.13 108L39.13 108L39.13 108ZM40.25 42.13L40.25 41.88Q34.63 41.88 29.50 43.63L29.50 43.63Q24.25 45.25 19.94 48.25Q15.63 51.25 12.38 55.50L12.38 55.50Q9.13 59.63 7.25 64.75L7.25 64.75Q5.50 69.75 5.50 75L5.50 75Q5.38 80.25 6.94 85.13Q8.50 90 11.63 94.38L11.63 94.38Q14.63 98.75 19.13 102L19.13 102L34.75 87.13Q28.25 84.38 27 77.69Q25.75 71 30.75 66.25L30.75 66.25Q35.63 61.50 42.56 62.75Q49.50 64 52.38 70.13L52.38 70.13L68 55.25Q63 49 55.69 45.50Q48.38 42 40.25 42.13L40.25 42.13L40.25 42.13Z"/></svg>