<svg xmlns="http://www.w3.org/2000/svg" xmlns:xlink="http://www.w3.org/1999/xlink" width="128" height="128"><path fill="#000000" d="M29.25 72.25L29.25 72.25Q28.63 72.25 28.19 72.19Q27.75 72.13 27.25 71.88L27.25 71.88Q26.25 71.50 25.38 70.63Q24.50 69.75 23.75 68.63L23.75 68.63Q23.88 68.25 24.06 67.88Q24.25 67.50 24.50 67.13L24.50 67.13Q25.25 65.38 25.63 63.50Q26 61.63 26 59.75L26 59.75L26 59.50Q26 58.75 25.88 58Q25.75 57.25 25.50 56.63L25.50 56.63Q25.25 55.75 24.75 55.06Q24.25 54.38 23.50 54.13L23.50 54.13Q23.38 54 23.25 54Q23.13 54 23 54L23 54Q22.13 52.25 22.06 50.63Q22 49 23 47.38L23 47.38L23.13 47.38Q24.25 47.38 25.31 47.75Q26.38 48.13 27.38 48.75L27.38 48.75Q30 50.38 31.31 53.31Q32.63 56.25 32.63 59.38L32.63 59.38L32.63 59.50Q32.50 62.88 31.69 66.19Q30.88 69.50 29.25 72.25L29.25 72.25ZM21.50 79.25L21.50 79.25Q19.13 80.25 16.44 80.19Q13.75 80.13 11.25 79.13L11.25 79.13Q8.50 77.88 6.44 75.50Q4.38 73.13 3 70.25L3 70.25Q0.75 65.38 0.69 59.88Q0.63 54.38 2.75 49.38L2.75 49.38Q4.38 50 5.56 49.44Q6.75 48.88 6.75 48.88L6.75 48.88Q6.75 48.88 7 50.06Q7.25 51.25 8.75 52L8.75 52Q7.25 55.63 7.31 59.69Q7.38 63.75 8.88 67.25L8.88 67.25Q9.63 69 10.75 70.50Q11.88 72 13.50 72.88L13.50 72.88Q14.13 73.25 14.69 73.44Q15.25 73.63 15.88 73.75L15.88 73.75Q17.13 75.38 18.50 76.81Q19.88 78.25 21.50 79.25L21.50 79.25ZM29.25 72.25L29.25 72.25Q28.63 72.25 28.19 72.19Q27.75 72.13 27.25 71.88L27.25 71.88Q26.25 71.50 25.38 70.63Q24.50 69.75 23.75 68.63L23.75 68.63Q23.88 68.25 24.06 67.88Q24.25 67.50 24.50 67.13L24.50 67.13Q24.75 66.63 24.94 66.06Q25.13 65.50 25.25 65L25.25 65Q25.63 63.75 28.75 64.94Q31.88 66.13 31.25 68.25L31.25 68.25Q30.75 69.25 30.25 70.31Q29.75 71.38 29.25 72.25L29.25 72.25ZM21.50 79.25L21.50 79.25Q19.13 80.25 16.44 80.19Q13.75 80.13 11.25 79.13L11.25 79.13Q8.50 77.88 10.19 74.88Q11.88 71.88 13.50 72.75L13.50 72.75Q14.13 73.13 14.69 73.31Q15.25 73.50 15.88 73.63L15.88 73.63Q17.13 75.38 18.50 76.81Q19.88 78.25 21.50 79.25ZM13.38 59.50L13.38 59.50L13.38 59.38Q13.38 56.25 14.69 53.31Q16 50.38 18.63 48.75L18.63 48.75Q19.63 48.13 20.69 47.75Q21.75 47.38 22.88 47.38L22.88 47.38L23 47.38L23 54Q22.88 54 22.69 54Q22.50 54 22.38 54.13L22.38 54.13Q21.63 54.38 21.19 55.13Q20.75 55.88 20.38 56.63L20.38 56.63Q20.13 57.25 20 58Q19.88 58.75 19.88 59.50L19.88 59.50L19.88 59.75Q19.88 61.63 20.25 63.50Q20.63 65.38 21.38 67.13L21.38 67.13Q22.25 69 23.56 70.69Q24.88 72.38 26.75 73.13L26.75 73.13Q28.13 73.75 29.63 73.63Q31.13 73.50 32.38 72.75L32.38 72.75Q34 71.88 35.13 70.38Q36.25 68.88 37 67.25L37 67.25Q38.63 63.63 38.63 59.63Q38.63 55.63 37.13 51.88L37.13 51.88Q38.63 51.13 38.88 49.94Q39.13 48.75 39.13 48.75L39.13 48.75Q39.13 48.75 40.31 49.38Q41.50 50 43.13 49.25L43.13 49.25Q45.25 54.25 45.19 59.81Q45.13 65.38 42.88 70.25L42.88 70.25Q41.63 73 39.56 75.38Q37.50 77.75 34.75 79L34.75 79Q32.25 80.13 29.50 80.19Q26.75 80.25 24.25 79.13L24.25 79.13Q22 78.25 20.25 76.56Q18.50 74.88 17.25 72.88L17.25 72.88Q15.25 70 14.31 66.50Q13.38 63 13.38 59.50L13.38 59.50ZM53.38 71.13L51.25 59.75L53.25 59.75L54.25 65.50L54.88 69.13L55 69.13Q55.13 68.63 55.25 68.19Q55.38 67.75 55.38 67.25L55.38 67.25Q55.50 66.88 55.56 66.44Q55.63 66 55.75 65.50L55.75 65.50L57.25 59.75L59 59.75L60.38 65.50Q60.50 66 60.63 66.44Q60.75 66.88 60.75 67.25L60.75 67.25Q60.88 67.75 61 68.19Q61.13 68.63 61.25 69.13L61.25 69.13L61 69.13L61.63 65.50L62.63 59.75L64.50 59.75L62.25 71.13L59.75 71.13L58.38 65.13Q58.38 64.75 58.25 64.44Q58.13 64.13 58.13 63.75L58.13 63.75Q58 63.50 57.94 63.13Q57.88 62.75 57.88 62.50L57.88 62.50L57.75 62.50Q57.75 62.75 57.69 63.13Q57.63 63.50 57.50 63.75L57.50 63.75Q57.38 64.13 57.31 64.44Q57.25 64.75 57.25 65.13L57.25 65.13L55.75 71.13L53.38 71.13ZM67.50 59.75L67.50 59.75L74.25 59.75L74.25 61.50L69.50 61.50L69.50 64.38L73.63 64.38L73.63 66.13L69.50 66.13L69.50 69.38L74.50 69.38L74.50 71.13L67.50 71.13L67.50 59.75ZM78.13 59.75L78.13 59.75L81.75 59.75Q82.13 59.75 82.50 59.81Q82.88 59.88 83.25 59.88L83.25 59.88Q83.63 60 83.94 60.13Q84.25 60.25 84.63 60.38L84.63 60.38Q84.88 60.50 85.06 60.75Q85.25 61 85.38 61.25L85.38 61.25Q85.50 61.63 85.63 61.94Q85.75 62.25 85.75 62.63L85.75 62.63Q85.75 63 85.63 63.38Q85.50 63.75 85.25 64.13L85.25 64.13Q85.13 64.50 84.81 64.75Q84.50 65 84.13 65.13L84.13 65.13L84.13 65.25Q84.50 65.25 84.94 65.50Q85.38 65.75 85.75 66.13L85.75 66.13Q86 66.38 86.13 66.81Q86.25 67.25 86.25 67.88L86.25 67.88Q86.25 68.38 86.19 68.75Q86.13 69.13 86 69.38L86 69.38Q85.88 69.75 85.63 70Q85.38 70.25 85.13 70.38L85.13 70.38Q84.75 70.63 84.44 70.75Q84.13 70.88 83.75 71L83.75 71Q83.25 71.13 82.88 71.19Q82.50 71.25 82 71.25L82 71.25L78.13 71.25L78.13 59.75ZM81.63 64.50L81.63 64.50Q82.25 64.50 82.69 64.44Q83.13 64.38 83.25 64.13L83.25 64.13Q83.63 63.88 83.69 63.56Q83.75 63.25 83.75 62.88L83.75 62.88Q83.75 62.50 83.63 62.19Q83.50 61.88 83.25 61.75L83.25 61.75Q82.88 61.50 82.50 61.44Q82.13 61.38 81.50 61.38L81.50 61.38L80 61.38L80 64.50L81.63 64.50ZM81.75 69.63L81.75 69.63Q82.38 69.63 82.88 69.50Q83.38 69.38 83.75 69.13L83.75 69.13Q84.13 68.88 84.25 68.50Q84.38 68.13 84.38 67.75L84.38 67.75Q84.38 67.25 84.25 66.94Q84.13 66.63 83.75 66.38L83.75 66.38Q83.38 66.13 82.88 66.06Q82.38 66 81.75 66L81.75 66L80.13 66L80.13 69.63L81.75 69.63ZM89.75 71.13L89.75 59.75L91.75 59.75L91.75 69.38L96.50 69.38L96.50 71.13L89.75 71.13ZM105 68L105 68L101.25 68L100.25 71.13L98.25 71.13L102 59.75L104.38 59.75L108.13 71.13L106 71.13L105 68ZM104.63 66.38L104.63 66.50L104.25 65.13Q104 64.63 103.88 64.19Q103.75 63.75 103.75 63.25L103.75 63.25Q103.50 62.75 103.44 62.25Q103.38 61.75 103.25 61.25L103.25 61.25L103.13 61.25Q103 61.75 102.88 62.25Q102.75 62.75 102.63 63.25L102.63 63.25Q102.50 63.63 102.38 64.06Q102.25 64.50 102.13 65L102.13 65L101.75 66.38L104.63 66.38ZM111.88 61.50L111.88 61.50L108.63 61.50L108.63 59.75L117.25 59.75L117.25 61.50L113.88 61.50L113.88 71.13L111.88 71.13L111.88 61.50ZM120.38 59.75L120.38 59.75L127.25 59.75L127.25 61.50L122.38 61.50L122.38 64.38L126.50 64.38L126.50 66.13L122.38 66.13L122.38 69.38L127.38 69.38L127.38 71.13L120.38 71.13L120.38 59.75Z"/></svg>