<svg xmlns="http://www.w3.org/2000/svg" xmlns:xlink="http://www.w3.org/1999/xlink" width="128" height="128"><path fill="#000000" d="M43.75 92.25L43.75 92.25Q43.50 92.25 43.25 92.19Q43 92.13 42.75 92.13L42.75 92.13Q42.50 92.13 42.31 92.06Q42.13 92 41.88 92L41.88 92Q41.63 91.88 41.31 91.81Q41 91.75 40.63 91.75L40.63 91.75Q40.50 91.63 40.31 91.63Q40.13 91.63 40.13 91.63L40.13 91.63Q39.75 91.50 39.50 91.38Q39.25 91.25 39 91.25L39 91.25Q38.88 91.13 38.69 91.06Q38.50 91 38.38 91L38.38 91L37.75 90.75Q37.50 90.50 37.25 90.44Q37 90.38 36.75 90.25L36.75 90.25Q32.13 87.63 28.81 83.31Q25.50 79 23.38 74.13L23.38 74.13Q21.13 69 20 63.50L20 63.50Q18.88 57.88 18.81 52.19Q18.75 46.50 19.88 40.88L19.88 40.88Q21 35.25 23.25 30L23.25 30Q18.88 27.75 18.13 24.38Q17.38 21 17.38 21L17.38 21Q17.38 21 13.94 22.63Q10.50 24.25 5.88 22.38L5.88 22.38Q2.88 29.50 1.38 37.25L1.38 37.25Q-0.13 44.88-0.06 52.63Q0 60.38 1.63 68L1.63 68Q3.25 75.63 6.50 82.63L6.50 82.63Q10.25 90.88 16.25 97.63Q22.25 104.38 30.25 108.13L30.25 108.13Q31 108.38 31.69 108.69Q32.38 109 33.13 109.25L33.13 109.25Q33.25 109.38 33.44 109.44Q33.63 109.50 33.75 109.63L33.75 109.63Q34 109.63 34.13 109.69Q34.25 109.75 34.38 109.75L34.38 109.75Q34.50 109.88 34.88 110Q35.25 110.13 35.63 110.25L35.63 110.25Q35.75 110.25 35.88 110.31Q36 110.38 36.25 110.38L36.25 110.38L37.38 110.75Q38.25 110.88 39.06 111.06Q39.88 111.25 40.75 111.25L40.75 111.25Q40.88 111.25 40.94 111.31Q41 111.38 41.25 111.38L41.25 111.38Q41.63 111.50 42 111.50Q42.38 111.50 42.75 111.50L42.75 111.50L43.13 111.50Q43.38 111.50 43.69 111.50Q44 111.50 44.25 111.63L44.25 111.63L46.88 111.63Q47.13 111.63 47.38 111.63Q47.63 111.63 47.75 111.50L47.75 111.50Q48 111.50 48.25 111.50Q48.50 111.50 48.75 111.38L48.75 111.38Q49 111.38 49.31 111.31Q49.63 111.25 49.88 111.25L49.88 111.25Q50 111.25 50.19 111.25Q50.38 111.25 50.50 111.25L50.50 111.25Q50.75 111.13 51.06 111.13Q51.38 111.13 51.75 111L51.75 111Q52 111 52.13 110.94Q52.25 110.88 52.38 110.88L52.38 110.88Q52.75 110.88 53 110.81Q53.25 110.75 53.50 110.75L53.50 110.75Q53.75 110.63 53.94 110.63Q54.13 110.63 54.25 110.50L54.25 110.50L55.50 110.25Q55.63 110.13 55.81 110.13Q56 110.13 56.25 110L56.25 110Q56.50 109.88 56.81 109.75Q57.13 109.63 57.38 109.63L57.38 109.63Q57.50 109.50 57.69 109.50Q57.88 109.50 58 109.38L58 109.38Q58.25 109.38 58.50 109.25Q58.75 109.13 59 109L59 109Q59.13 108.88 59.31 108.81Q59.50 108.75 59.75 108.75L59.75 108.75Q55.13 105.75 51.06 101.56Q47 97.38 43.75 92.25L43.75 92.25ZM122.13 22.25L122.13 22.25Q117.50 24.13 114.06 22.50Q110.63 20.88 110.63 20.88L110.63 20.88Q110.63 20.88 109.88 24.25Q109.13 27.63 104.75 29.88L104.75 29.88Q107 35.13 108.13 40.75L108.13 40.75Q109.25 46.38 109.19 52.06Q109.13 57.75 108 63.38L108 63.38Q106.88 68.88 104.63 74L104.63 74Q102.38 78.88 99.06 83.19Q95.75 87.50 91.25 90.13L91.25 90.13Q87.63 92.25 83.31 92.56Q79 92.88 75 91.13L75 91.13Q69.63 88.75 65.81 84.06Q62 79.38 59.63 73.75L59.63 73.75Q57.50 68.75 56.44 63.38Q55.38 58 55.25 52.63L55.25 52.63L55.25 51.75Q55.25 49.75 55.63 47.63Q56 45.50 56.75 43.50L56.75 43.50Q57.50 41.13 58.88 39.13Q60.25 37.13 62.38 36.25L62.38 36.25Q62.75 36 63.13 35.94Q63.50 35.88 64 35.88L64 35.88Q64.38 35.88 64.81 35.94Q65.25 36 65.63 36.25L65.63 36.25Q67.75 37.13 69.13 39.19Q70.50 41.25 71.25 43.50L71.25 43.50Q72 45.50 72.38 47.63Q72.75 49.75 72.75 51.75L72.75 51.75L72.75 52.63Q72.63 56.50 72.06 60.38Q71.50 64.25 70.38 68L70.38 68Q70.25 68.50 70.13 69Q70 69.50 69.75 70L69.75 70L69.50 70.88Q69.25 71.63 69 72.31Q68.75 73 68.38 73.75L68.38 73.75Q68.13 74.25 67.88 74.81Q67.63 75.38 67.38 75.88L67.38 75.88L67.38 76Q67.13 76.50 66.88 77.06Q66.63 77.63 66.25 78.13L66.25 78.13Q68.38 81.38 71 83.81Q73.63 86.25 76.63 87.50L76.63 87.50Q78 88.13 79.31 88.38Q80.63 88.63 82.13 88.75L82.13 88.75Q82.50 88.13 82.88 87.44Q83.25 86.75 83.50 86.25L83.50 86.25Q83.63 86 83.75 85.81Q83.88 85.63 83.88 85.50L83.88 85.50Q84.13 85 84.38 84.50Q84.63 84 84.88 83.50L84.88 83.50Q85 83.38 85.06 83.19Q85.13 83 85.25 82.75L85.25 82.75L86.38 80.13Q86.50 80 86.50 79.88Q86.50 79.75 86.63 79.75L86.63 79.75L87.50 77.25Q87.50 77.25 87.56 77.13Q87.63 77 87.63 76.88L87.63 76.88L87.63 76.75Q89.75 70.88 90.75 64.56Q91.75 58.25 91.75 51.88L91.75 51.88L91.63 51.88L91.63 51.50Q91.50 42.38 87.75 33.88Q84 25.38 76.50 20.63L76.50 20.63Q73.75 18.88 70.56 17.88Q67.38 16.88 64.25 16.88L64.25 16.88L63.75 16.88Q60.63 16.88 57.44 17.88Q54.25 18.88 51.50 20.63L51.50 20.63Q44 25.38 40.25 33.88Q36.50 42.38 36.38 51.50L36.38 51.50L36.38 51.88L36.25 51.88Q36.25 57 37 62L37 62Q37.63 67.13 38.94 72Q40.25 76.88 42.25 81.50L42.25 81.50Q44.25 86.25 47 90.38L47 90.38Q50.75 96.25 55.88 101.06Q61 105.88 67.50 108.63L67.50 108.63Q74.63 111.63 82.56 111.56Q90.50 111.50 97.63 108.25L97.63 108.25Q105.50 104.50 111.56 97.69Q117.63 90.88 121.38 82.75L121.38 82.75Q124.63 75.63 126.25 67.88L126.25 67.88Q127.88 60.25 128 52.50Q128.13 44.75 126.63 37.13L126.63 37.13Q125.13 29.38 122.13 22.25L122.13 22.25Z"/></svg>