<svg xmlns="http://www.w3.org/2000/svg" xmlns:xlink="http://www.w3.org/1999/xlink" width="128" height="128"><path fill="#000000" d="M90.50 57.25L90.50 57.25Q90.25 53.75 89.44 50.25Q88.63 46.75 87.38 43.38L87.38 43.38Q85 35.75 81.06 29.06Q77.13 22.38 71.63 16.63L71.63 16.63Q70.25 15.13 68.81 13.69Q67.38 12.25 66.38 10.50L66.38 10.50Q65.88 9.25 65.25 8.13Q64.63 7 64 5.88L64 5.88L63.50 4.50Q63.50 4.75 63.44 4.88Q63.38 5 63.38 5L63.38 5Q63.38 7 62.44 8.31Q61.50 9.63 60.13 10.88L60.13 10.88Q58.63 12.25 57.19 13.69Q55.75 15.13 54.38 16.50L54.38 16.50Q52.88 18.38 51.38 20.38Q49.88 22.38 48.50 24.25L48.50 24.25Q47.25 26.50 46.06 28.69Q44.88 30.88 43.63 33L43.63 33L40.50 41.63L40.38 41.75Q39.13 46.13 38.38 50.56Q37.63 55 37.38 59.50L37.38 59.50Q37.25 61.13 37.31 62.88Q37.38 64.63 37.50 66.25L37.50 66.25Q37.63 68.75 38.06 71.13Q38.50 73.50 39.13 75.75L39.13 75.75Q41.38 84.38 45.94 91.50Q50.50 98.63 56.88 104.63L56.88 104.63Q58 105.75 59.25 106.81Q60.50 107.88 61.75 108.88L61.75 108.88Q61.88 108.13 62.06 107.44Q62.25 106.75 62.50 106L62.50 106Q62.63 105.25 62.81 104.56Q63 103.88 63.13 103.13L63.13 103.13Q63 103.88 62.88 104.56Q62.75 105.25 62.63 106L62.63 106L61.75 108.88L62.50 111.38L63.13 115.25L63.50 119.38Q63.50 120 63.50 120.56Q63.50 121.13 63.50 121.75L63.50 121.75Q63.50 122 63.69 122.13Q63.88 122.25 64 122.38L64 122.38L65.38 122.88L66.75 123.50L66.50 119.88L66.50 116.25L67 110.88L67.38 109.75L68.38 107.88Q69.38 107.13 70.38 106.38Q71.38 105.63 72.13 104.75L72.13 104.75Q73.75 103.25 75.31 101.69Q76.88 100.13 78.25 98.38L78.25 98.38Q80 96.25 81.56 93.88Q83.13 91.50 84.38 88.88L84.38 88.88Q85.25 87.25 86.06 85.50Q86.88 83.75 87.50 81.88L87.50 81.88Q88 80.38 88.44 78.69Q88.88 77 89.38 75.38L89.38 75.38Q89.38 75.38 89.44 75.25Q89.50 75.13 89.50 75L89.50 75Q90.38 70.63 90.63 66.19Q90.88 61.75 90.50 57.25L90.50 57.25ZM66.88 106.63L66.88 106.63L66.88 106.63Z"/></svg>