<svg xmlns="http://www.w3.org/2000/svg" xmlns:xlink="http://www.w3.org/1999/xlink" width="128" height="128"><path fill="#ffffff" d="M82.75 34.25L82.75 34.25Q80.88 28.13 77.69 22.75Q74.50 17.38 70.13 12.75L70.13 12.75Q69 11.63 67.88 10.44Q66.75 9.25 66 7.88L66 7.88Q65.50 6.88 65 5.94Q64.50 5 64 4.13L64 4.13L63.63 3.13L63.50 3.50Q63.50 5 62.75 6.13Q62 7.25 60.88 8.13L60.88 8.13Q59.75 9.25 58.56 10.38Q57.38 11.50 56.25 12.63L56.25 12.63L51.50 18.88L47.75 26L45.13 32.88L45 33Q44 36.50 43.44 40Q42.88 43.50 42.63 47.13L42.63 47.13Q42.50 48.50 42.56 49.88Q42.63 51.25 42.75 52.63L42.75 52.63Q42.88 54.63 43.19 56.50Q43.50 58.38 44 60.25L44 60.25Q45.88 67.13 49.50 72.88Q53.13 78.63 58.25 83.38L58.25 83.38Q59.25 84.25 60.25 85.13Q61.25 86 62.25 86.88L62.25 86.88L62.75 88.88L63.38 92L63.63 95.25Q63.63 95.75 63.63 96.25Q63.63 96.75 63.63 97.13L63.63 97.13Q63.63 97.25 63.75 97.38Q63.88 97.50 64 97.63L64 97.63L65.13 98L66.25 98.50L66 95.63L66 92.75L66.38 88.38L66.75 87.50L67.50 86Q68.25 85.38 69.06 84.81Q69.88 84.25 70.63 83.50L70.63 83.50Q71.88 82.38 73.06 81.06Q74.25 79.75 75.38 78.38L75.38 78.38Q76.88 76.63 78.13 74.75Q79.38 72.88 80.38 70.75L80.38 70.75Q81.13 69.38 81.69 68Q82.25 66.63 82.88 65.13L82.88 65.13Q83.25 63.88 83.63 62.56Q84 61.25 84.38 60L84.38 60L84.50 59.63Q85.25 56.13 85.38 52.56Q85.50 49 85.25 45.38L85.25 45.38Q85 42.50 84.38 39.75Q83.75 37 82.75 34.25L82.75 34.25ZM62.88 84.50L62.88 84.50Q63 83.88 63.13 83.31Q63.25 82.75 63.38 82.25L63.38 82.25Q63.25 82.75 63.13 83.31Q63 83.88 62.88 84.50ZM66.38 85L66.38 85L66.38 85ZM106.50 103L106.50 103Q105.88 101.75 104.94 100.88Q104 100 102.88 99.38L102.88 99.38Q101.88 98.88 100.75 98.63Q99.63 98.38 98.63 98.38L98.63 98.38Q97.75 98.38 96.88 98.38Q96 98.38 95.25 98.38L95.25 98.38Q94.50 98.50 93.75 98.50Q93 98.50 92.25 98.50L92.25 98.50Q91.38 98.50 90.50 98.44Q89.63 98.38 88.75 98.38L88.75 98.38Q88.63 98.38 88.50 98.44Q88.38 98.50 88.38 98.63L88.38 98.63Q88.25 98.88 88.13 99.06Q88 99.25 87.88 99.50L87.88 99.50L88 99.63Q88.50 99.63 88.94 99.75Q89.38 99.88 89.75 99.88L89.75 99.88Q90.38 100 90.63 100.31Q90.88 100.63 90.88 101.13L90.88 101.13Q90.88 101.75 90.94 102.44Q91 103.13 91 103.75L91 103.75Q91 106.38 90.94 109Q90.88 111.63 90.88 114.25L90.88 114.25Q90.88 114.50 90.88 114.69Q90.88 114.88 90.88 115L90.88 115Q90.75 115.13 90.69 115.38Q90.63 115.63 90.50 115.75L90.50 115.75Q90.25 115.88 89.94 116Q89.63 116.13 89.38 116.13L89.38 116.13Q89 116.25 88.81 116.31Q88.63 116.38 88.50 116.75L88.50 116.75L88.50 117.13Q88.38 117.25 88.44 117.31Q88.50 117.38 88.75 117.38L88.75 117.38Q90.13 117.50 91.44 117.50Q92.75 117.50 94.13 117.50L94.13 117.50Q95.38 117.50 96.63 117.50Q97.88 117.50 99.13 117.25L99.13 117.25Q100.25 117 101.31 116.63Q102.38 116.25 103.38 115.63L103.38 115.63Q104.63 114.75 105.56 113.63Q106.50 112.50 107 111L107 111Q107.38 109.88 107.44 108.63Q107.50 107.38 107.38 106.13L107.38 106.13Q107.38 105.38 107.13 104.56Q106.88 103.75 106.50 103L106.50 103ZM103.38 112.63L103.38 112.63Q102.63 114 101.50 114.88Q100.38 115.75 98.88 115.88L98.88 115.88Q97.88 116.13 96.94 116.06Q96 116 95 115.63L95 115.63Q94.50 115.38 94.25 114.88Q94 114.38 94 113.88L94 113.88Q94 113.25 93.94 112.69Q93.88 112.13 93.88 111.50L93.88 111.50Q93.88 109.38 93.88 107.38Q93.88 105.38 93.88 103.25L93.88 103.25Q93.88 102.63 93.94 102Q94 101.38 94 100.75L94 100.75Q94 100.25 94.13 100.06Q94.25 99.88 94.75 99.88L94.75 99.88Q96.63 99.63 98.44 100Q100.25 100.38 101.88 101.75L101.88 101.75Q102.75 102.63 103.31 103.69Q103.88 104.75 104.13 106L104.13 106Q104.25 106.50 104.25 107Q104.25 107.50 104.38 108L104.38 108Q104.38 109.25 104.13 110.38Q103.88 111.50 103.38 112.63ZM125.13 109.63L125.13 109.63Q124.75 108.75 124.06 108.13Q123.38 107.50 122.38 107.13L122.38 107.13Q122.13 107 121.81 106.88Q121.50 106.75 121.13 106.63L121.13 106.63L121.25 106.50Q121.63 106.38 122 106.13Q122.38 105.88 122.75 105.63L122.75 105.63Q123.50 104.88 123.81 104Q124.13 103.13 124 102.13L124 102.13Q123.75 101.13 123.25 100.38Q122.75 99.63 121.88 99.25L121.88 99.25Q121.13 98.75 120.25 98.56Q119.38 98.38 118.50 98.38L118.50 98.38Q117 98.38 115.44 98.44Q113.88 98.50 112.25 98.50L112.25 98.50Q111.75 98.50 111.25 98.44Q110.75 98.38 110.13 98.38L110.13 98.38Q110.13 98.38 110 98.44Q109.88 98.50 109.75 98.50L109.75 98.50Q109.63 98.75 109.56 98.94Q109.50 99.13 109.38 99.38L109.38 99.38Q109.38 99.50 109.38 99.56Q109.38 99.63 109.63 99.63L109.63 99.63Q110 99.63 110.31 99.69Q110.63 99.75 111 99.88L111 99.88Q111.63 99.88 111.88 100.19Q112.13 100.50 112.13 101L112.13 101L112.13 101.38Q112.13 103 112.13 104.63Q112.13 106.25 112.13 107.88L112.13 107.88Q112.13 109.50 112.13 111.13Q112.13 112.75 112.13 114.38L112.13 114.38Q112.13 114.50 112.06 114.69Q112 114.88 112 115.13L112 115.13Q112 115.50 111.81 115.69Q111.63 115.88 111.25 115.88L111.25 115.88L110.13 116.13Q110 116.13 109.88 116.19Q109.75 116.25 109.75 116.25L109.75 116.25Q109.50 116.50 109.44 116.75Q109.38 117 109.38 117.38L109.38 117.38L109.50 117.38L113.38 117.50L114.25 117.50Q115.25 117.50 116.25 117.50Q117.25 117.50 118.38 117.38L118.38 117.38Q119.38 117.38 120.44 117.06Q121.50 116.75 122.50 116.13L122.50 116.13Q123.50 115.50 124.25 114.69Q125 113.88 125.25 112.75L125.25 112.75Q125.50 111.88 125.44 111.13Q125.38 110.38 125.13 109.63L125.13 109.63ZM115.13 100.50L115.13 100.50Q115.13 100.13 115.25 100Q115.38 99.88 115.75 99.88L115.75 99.88Q116.50 99.88 117.25 99.88Q118 99.88 118.88 100.25L118.88 100.25Q119.88 100.50 120.44 101.31Q121 102.13 121 103.25L121 103.25Q121 103.63 120.94 104Q120.88 104.38 120.75 104.75L120.75 104.75Q120.50 105.50 119.94 105.94Q119.38 106.38 118.50 106.38L118.50 106.38Q118.13 106.50 117.75 106.50Q117.38 106.50 117 106.50L117 106.50L115.25 106.50Q115.13 106.38 115.06 106.31Q115 106.25 115 106.13L115 106.13L115.13 100.50ZM121.88 114L121.88 114Q121.50 114.88 120.81 115.31Q120.13 115.75 119.13 116L119.13 116Q118.50 116.13 117.75 116.06Q117 116 116.25 115.88L116.25 115.88Q115.75 115.63 115.50 115.25Q115.25 114.88 115.13 114.50L115.13 114.50Q115.13 114.13 115.06 113.75Q115 113.38 115 113.13L115 113.13Q115 112.63 115 111.81Q115 111 115 111L115 111L115 111Q115 110.25 115 109.56Q115 108.88 115 108.13L115 108.13Q115 108 115.06 107.94Q115.13 107.88 115.38 107.88L115.38 107.88Q116 107.88 116.69 107.88Q117.38 107.88 118 108L118 108Q118.63 108 119.19 108.19Q119.75 108.38 120.25 108.63L120.25 108.63Q121.13 109 121.56 109.69Q122 110.38 122.13 111.25L122.13 111.25Q122.25 112 122.19 112.69Q122.13 113.38 121.88 114L121.88 114ZM23.25 115L23.25 115L23.25 109.63Q23.25 109 23.19 108.38Q23.13 107.75 22.88 107.25L22.88 107.25Q22.38 105.63 21 104.94Q19.63 104.25 18 104.88L18 104.88Q17.25 105.13 16.63 105.50Q16 105.88 15.38 106.38L15.38 106.38Q15 106.63 14.88 106.63Q14.75 106.63 14.50 106.25L14.50 106.25Q13.75 105.13 12.75 104.81Q11.75 104.50 10.50 104.88L10.50 104.88Q9.75 105.13 9.06 105.50Q8.38 105.88 7.63 106.38L7.63 106.38Q7.63 106.50 7.50 106.50Q7.38 106.50 7.38 106.50L7.38 106.50Q7.25 106.50 7.25 106.38Q7.25 106.25 7.25 106.25L7.25 106.25L7.25 105.25Q7.25 105.13 7.25 104.94Q7.25 104.75 7.25 104.63L7.25 104.63Q6.88 104.75 6.63 104.81Q6.38 104.88 6.13 105L6.13 105Q5.38 105.13 4.63 105.31Q3.88 105.50 3.13 105.63L3.13 105.63Q2.88 105.75 2.75 105.81Q2.63 105.88 2.63 106.13L2.63 106.13Q2.50 106.25 2.69 106.38Q2.88 106.50 3 106.50L3 106.50Q3.38 106.63 3.69 106.75Q4 106.88 4.38 107.13L4.38 107.13Q4.63 107.13 4.75 107.38Q4.88 107.63 4.88 107.88L4.88 107.88Q4.88 109.13 4.88 110.44Q4.88 111.75 4.88 113L4.88 113Q4.88 113.50 4.81 114Q4.75 114.50 4.75 115L4.75 115Q4.75 115.50 4.56 115.69Q4.38 115.88 4 116L4 116Q3.75 116.13 3.50 116.19Q3.25 116.25 3 116.25L3 116.25Q3 116.25 2.94 116.31Q2.88 116.38 2.88 116.38L2.88 116.38Q2.75 116.50 2.75 116.75Q2.75 117 2.88 117.25L2.88 117.25Q2.88 117.25 3.06 117.25Q3.25 117.25 3.38 117.25L3.38 117.25L3.50 117.25Q4.38 117.25 5.25 117.25Q6.13 117.25 7.13 117.25L7.13 117.25Q7.63 117.25 8.06 117.25Q8.50 117.25 9.13 117.25L9.13 117.25L9.13 116.25Q8.88 116.25 8.56 116.19Q8.25 116.13 8 116.13L8 116.13Q7.63 116 7.44 115.75Q7.25 115.50 7.25 115.13L7.25 115.13L7.25 114.25Q7.25 112.75 7.25 111.19Q7.25 109.63 7.25 108.13L7.25 108.13Q7.25 107.88 7.31 107.69Q7.38 107.50 7.63 107.38L7.63 107.38Q8 107.13 8.44 106.94Q8.88 106.75 9.38 106.63L9.38 106.63Q10.38 106.38 11.25 106.69Q12.13 107 12.50 107.88L12.50 107.88Q12.63 108.13 12.69 108.44Q12.75 108.75 12.88 109L12.88 109Q13 110.63 12.94 112.19Q12.88 113.75 12.88 115.25L12.88 115.25Q12.75 115.63 12.63 115.81Q12.50 116 12.13 116L12.13 116L11.13 116.25Q11 116.25 10.94 116.25Q10.88 116.25 10.88 116.25L10.88 116.25Q10.88 116.50 10.88 116.75Q10.88 117 10.88 117L10.88 117L11.13 117L14.25 117.13Q14.88 117.13 15.56 117.19Q16.25 117.25 16.88 117.25L16.88 117.25Q17 117.25 17.06 117.25Q17.13 117.25 17.13 117.13L17.13 117.13Q17.13 116.88 17.13 116.69Q17.13 116.50 17.13 116.25L17.13 116.25L17 116.25L16.13 116Q15.63 115.88 15.44 115.69Q15.25 115.50 15.25 115L15.25 115Q15.25 113.88 15.25 112.81Q15.25 111.75 15.25 110.63L15.25 110.63Q15.25 110 15.25 109.31Q15.25 108.63 15.25 108L15.25 108Q15.25 107.88 15.25 107.75Q15.25 107.63 15.38 107.50L15.38 107.50Q15.75 107.25 16.19 107.06Q16.63 106.88 17.13 106.75L17.13 106.75Q18.63 106.38 19.63 107.06Q20.63 107.75 20.75 109.25L20.75 109.25Q20.88 110.63 20.81 112.13Q20.75 113.63 20.75 115L20.75 115Q20.75 115.50 20.56 115.75Q20.38 116 19.88 116.13L19.88 116.13L19.63 116.13Q19.13 116.25 19.06 116.38Q19 116.50 19 117L19 117Q19 117.25 19.06 117.25Q19.13 117.25 19.38 117.25L19.38 117.25Q20.38 117.25 21.44 117.25Q22.50 117.25 23.50 117.25L23.50 117.25Q23.88 117.25 24.31 117.25Q24.75 117.25 25.25 117.25L25.25 117.25L25.38 116.25Q25 116.25 24.63 116.13Q24.25 116 23.88 115.88L23.88 115.88Q23.50 115.75 23.38 115.56Q23.25 115.38 23.25 115L23.25 115ZM70.75 106.88L70.75 106.88Q71.25 106.38 71.25 105.88Q71.25 105.38 71.13 104.88L71.13 104.88Q70.88 105.13 70.50 105.31Q70.13 105.50 69.63 105.50L69.63 105.50Q69.13 105.63 68.56 105.56Q68 105.50 67.38 105.25L67.38 105.25Q66 104.63 64.56 104.63Q63.13 104.63 61.63 105.38L61.63 105.38Q60.50 106 59.75 106.88Q59 107.75 59 109.13L59 109.13Q58.88 110 59.06 110.81Q59.25 111.63 59.88 112.38L59.88 112.38Q60.25 112.75 60.69 113Q61.13 113.25 61.63 113.50L61.63 113.50Q61.88 113.63 61.88 113.69Q61.88 113.75 61.75 113.88L61.75 113.88Q61.63 114 61.44 114.13Q61.25 114.25 61.13 114.25L61.13 114.25Q60.88 114.50 60.56 114.69Q60.25 114.88 59.88 115L59.88 115Q59.75 115.13 59.69 115.31Q59.63 115.50 59.63 115.63L59.63 115.63Q59.88 116.25 60.25 116.69Q60.63 117.13 61.25 117.38L61.25 117.38L61.50 117.50L61.25 117.75Q60.75 118.25 60.19 118.69Q59.63 119.13 59.13 119.50L59.13 119.50Q58.63 120 58.50 120.50Q58.38 121 58.50 121.63L58.50 121.63Q58.75 122.75 59.50 123.50Q60.25 124.25 61.38 124.50L61.38 124.50Q63.25 125.13 65.06 124.81Q66.88 124.50 68.50 123.38L68.50 123.38Q69.50 122.63 70.13 121.75Q70.75 120.88 71 119.63L71 119.63Q71.25 118.25 70.56 117.25Q69.88 116.25 68.50 116L68.50 116Q67.63 115.75 66.69 115.69Q65.75 115.63 64.88 115.50L64.88 115.50Q64.50 115.50 64.06 115.44Q63.63 115.38 63.25 115.38L63.25 115.38Q62.88 115.25 62.69 115Q62.50 114.75 62.63 114.50L62.63 114.50Q62.63 114.13 62.88 113.94Q63.13 113.75 63.50 113.75L63.50 113.75Q64.13 113.63 64.75 113.50Q65.38 113.38 66 113.13L66 113.13Q67.63 112.38 68.38 111.06Q69.13 109.75 69 108L69 108Q69 107.75 68.94 107.56Q68.88 107.38 68.75 107L68.75 107Q69.38 107.13 69.88 107.19Q70.38 107.25 70.75 106.88L70.75 106.88ZM64.13 117.88L64.13 117.88Q64.88 117.88 65.56 117.94Q66.25 118 67 118.25L67 118.25Q67.63 118.38 68.13 118.75Q68.63 119.13 68.75 119.88L68.75 119.88Q69 120.75 68.63 121.50Q68.25 122.25 67.38 122.75L67.38 122.75Q66.63 123.25 65.75 123.31Q64.88 123.38 64 123.25L64 123.25Q63.25 123.25 62.63 122.94Q62 122.63 61.50 122.13L61.50 122.13Q60.75 121.38 60.75 120.50Q60.75 119.63 61.50 118.88L61.50 118.88Q62.13 118.25 62.63 118.06Q63.13 117.88 64.13 117.88L64.13 117.88ZM66.38 110.88L66.38 110.88Q66 112.13 65.06 112.38Q64.13 112.63 63.13 112.25L63.13 112.25Q62.38 111.88 62 111.25Q61.63 110.63 61.50 109.88L61.50 109.88Q61.50 109.63 61.44 109.31Q61.38 109 61.38 108.75L61.38 108.75Q61.38 108.25 61.44 107.88Q61.50 107.50 61.75 107.13L61.75 107.13Q62.25 105.88 63.44 105.81Q64.63 105.75 65.38 106.25L65.38 106.25Q65.63 106.50 65.88 106.81Q66.13 107.13 66.25 107.50L66.25 107.50Q66.63 108.38 66.63 109.19Q66.63 110 66.38 110.88ZM57 116.13L57 116.13Q56.75 116.13 56.50 116.06Q56.25 116 56 115.88L56 115.88Q55.50 115.75 55.38 115.56Q55.25 115.38 55.25 115L55.25 115Q55.25 113.63 55.25 112.25Q55.25 110.88 55.25 109.63L55.25 109.63Q55.25 109 55.13 108.38Q55 107.75 54.88 107.25L54.88 107.25Q54.38 105.63 53.06 104.94Q51.75 104.25 50.25 104.63L50.25 104.63Q49.38 104.88 48.69 105.38Q48 105.88 47.25 106.38L47.25 106.38L47 106.63L47 106.25Q47 106 47 105.69Q47 105.38 47 105.13L47 105.13Q47 105 47 104.88Q47 104.75 46.88 104.63L46.88 104.63Q46.38 104.75 45.88 104.94Q45.38 105.13 44.75 105.25L44.75 105.25Q44.25 105.38 43.75 105.44Q43.25 105.50 42.75 105.63L42.75 105.63Q42.50 105.63 42.31 105.81Q42.13 106 42.13 106.13L42.13 106.13Q42.13 106.38 42.31 106.50Q42.50 106.63 42.63 106.63L42.63 106.63Q43 106.75 43.31 106.88Q43.63 107 44 107.25L44 107.25Q44.25 107.25 44.31 107.50Q44.38 107.75 44.38 108L44.38 108Q44.38 109.63 44.38 111.38Q44.38 113.13 44.38 114.88L44.38 114.88Q44.38 115.50 44.19 115.69Q44 115.88 43.38 116L43.38 116L43.13 116.13Q42.63 116.13 42.50 116.25Q42.38 116.38 42.50 116.88L42.50 116.88L42.50 117Q42.50 117.25 42.56 117.31Q42.63 117.38 42.88 117.38L42.88 117.38Q44.13 117.38 45.50 117.38Q46.88 117.38 48.13 117.38L48.13 117.38Q48.75 117.38 48.88 117.25Q49 117.13 49 116.50L49 116.50L49 116.25Q48.63 116.13 48.31 116.06Q48 116 47.75 116L47.75 116Q47.38 115.88 47.25 115.75Q47.13 115.63 47.13 115.25L47.13 115.25Q47.13 115 47.06 114.69Q47 114.38 47 114.13L47 114.13Q47 112.75 47 111.38Q47 110 47 108.63L47 108.63Q47 108.25 47.06 107.94Q47.13 107.63 47.50 107.38L47.50 107.38Q48 107.13 48.50 106.88Q49 106.63 49.63 106.63L49.63 106.63Q50.88 106.50 51.69 107.19Q52.50 107.88 52.50 109L52.50 109Q52.63 110.50 52.63 112Q52.63 113.50 52.63 114.88L52.63 114.88Q52.63 115 52.63 115.13Q52.63 115.25 52.63 115.38L52.63 115.38Q52.50 115.63 52.44 115.75Q52.38 115.88 52.13 116L52.13 116Q51.88 116 51.69 116.06Q51.50 116.13 51.25 116.13L51.25 116.13Q50.88 116.13 50.81 116.19Q50.75 116.25 50.75 116.63L50.75 116.63L50.75 116.88Q50.88 117.25 50.94 117.31Q51 117.38 51.38 117.38L51.38 117.38Q52.63 117.38 53.94 117.38Q55.25 117.38 56.50 117.38L56.50 117.38Q57 117.38 57.13 117.25Q57.25 117.13 57.25 116.63L57.25 116.63L57.25 116.38Q57.25 116.25 57.19 116.19Q57.13 116.13 57 116.13L57 116.13ZM81 104.75L81 104.75Q79.75 104.50 78.44 104.69Q77.13 104.88 75.88 105.50L75.88 105.50Q74.75 106.13 73.94 107.06Q73.13 108 72.88 109.38L72.88 109.38Q72.63 110.63 72.75 111.94Q72.88 113.25 73.50 114.50L73.50 114.50Q73.88 115.25 74.44 115.88Q75 116.50 75.75 116.88L75.75 116.88Q77.63 117.88 79.69 117.50Q81.75 117.13 83.25 115.88L83.25 115.88Q84.38 114.88 84.88 113.56Q85.38 112.25 85.38 110.63L85.38 110.63Q85.38 110.50 85.38 110.19Q85.38 109.88 85.25 109.63L85.25 109.63Q85.13 107.88 83.94 106.56Q82.75 105.25 81 104.75L81 104.75ZM82.38 114L82.38 114Q82.13 115.38 81 115.94Q79.88 116.50 78.50 116L78.50 116Q77.75 115.75 77.25 115.31Q76.75 114.88 76.38 114.25L76.38 114.25Q75.50 112.75 75.38 111.19Q75.25 109.63 75.75 108L75.75 108Q76 107 76.81 106.44Q77.63 105.88 78.63 106L78.63 106Q79.63 106 80.31 106.44Q81 106.88 81.63 107.63L81.63 107.63Q82.13 108.50 82.38 109.38Q82.63 110.25 82.63 111.25L82.63 111.25Q82.63 111.38 82.63 111.50Q82.63 111.63 82.63 111.88L82.63 111.88L82.75 111.88Q82.63 112.38 82.56 112.94Q82.50 113.50 82.38 114L82.38 114ZM35.63 104.75L35.63 104.75Q34.25 104.50 32.94 104.75Q31.63 105 30.38 105.75L30.38 105.75Q29.25 106.38 28.56 107.31Q27.88 108.25 27.63 109.50L27.63 109.50Q27.38 110.63 27.50 111.75Q27.63 112.88 28 113.88L28 113.88Q28.25 114.63 28.63 115.19Q29 115.75 29.50 116.25L29.50 116.25Q30.63 117.13 32 117.44Q33.38 117.75 34.75 117.50L34.75 117.50Q36 117.25 37.06 116.69Q38.13 116.13 38.88 115.13L38.88 115.13Q39.63 114.13 39.88 113.06Q40.13 112 40.25 110.88L40.25 110.88Q40.13 110.50 40.13 110.13Q40.13 109.75 40 109.38L40 109.38Q39.63 107.50 38.56 106.38Q37.50 105.25 35.63 104.75L35.63 104.75ZM37.25 114L37.25 114Q36.88 115.38 35.75 115.94Q34.63 116.50 33.25 116L33.25 116Q32.38 115.75 31.81 115.13Q31.25 114.50 30.88 113.63L30.88 113.63Q30.25 112.38 30.13 111Q30 109.63 30.38 108.25L30.38 108.25Q30.75 107.13 31.56 106.44Q32.38 105.75 33.75 106L33.75 106Q34.50 106.13 35.19 106.50Q35.88 106.88 36.25 107.50L36.25 107.50Q36.88 108.50 37.19 109.50Q37.50 110.50 37.50 111.50L37.50 111.50L37.50 111.88L37.50 111.88Q37.50 112.38 37.44 112.94Q37.38 113.50 37.25 114L37.25 114Z"/></svg>