<svg xmlns="http://www.w3.org/2000/svg" xmlns:xlink="http://www.w3.org/1999/xlink" width="128" height="128"><path fill="#000000" d="M39.25 109L39.25 109L39 108.38Q38.50 107.50 38.50 106.63Q38.50 105.75 38.75 104.75L38.75 104.75L8 104.75L53.50 24.13L72.50 58.50L78.75 53.88L59.75 19.63Q59.50 19.13 57.88 17.38Q56.25 15.63 53.50 15.63L53.50 15.63Q52.13 15.63 50.44 16.38Q48.75 17.13 47.25 19.88L47.25 19.88L1.25 101.25Q1 102 0.19 104.31Q-0.63 106.63 0.63 109L0.63 109Q1.50 110.25 3 111.31Q4.50 112.38 7.50 112.38L7.50 112.38L46.13 112.38Q43.13 112.38 41.50 111.31Q39.88 110.25 39.25 109L39.25 109ZM126.63 101.63L126.63 101.63L89.75 35.25Q89.38 34.75 87.81 32.88Q86.25 31 83.50 31L83.50 31Q82.25 31 80.50 31.81Q78.75 32.63 77.25 35.25L77.25 35.25L72.50 43.13L72.50 58.50L83.50 39.50L120.13 104.75L106.25 104.75Q106.25 105 106.31 105.25Q106.38 105.50 106.38 105.88L106.38 105.88Q106.38 106.63 106.19 107.38Q106 108.13 105.63 108.75L105.63 108.75L105.63 108.63L105.38 109Q104.13 111.25 101.69 111.81Q99.25 112.38 98.88 112.38L98.88 112.38L120.38 112.38Q121 112.38 123.38 111.81Q125.75 111.25 127.25 109L127.25 109Q127.88 107.88 128 106Q128.13 104.13 126.63 101.63L126.63 101.63ZM106.50 109L106.50 109L106.50 108.63L106.75 108.13Q107 107.25 107.13 106.44Q107.25 105.63 107.13 104.75L107.13 104.75L106 101.25L77 50.75L72.75 43.13L72.50 43.13L68.25 50.75L39.25 101.25L38.13 104.75Q38.13 105 38.06 105.31Q38 105.63 38 106L38 106Q38 106.75 38.19 107.56Q38.38 108.38 38.75 109L38.75 109L38.75 109Q39.50 110.25 41 111.31Q42.50 112.38 45.50 112.38L45.50 112.38L99.38 112.38Q100 112.38 102.50 111.81Q105 111.25 106.50 109L106.50 109ZM46.13 104.75L72.50 58.50L98.88 104.75L46.13 104.75Z"/></svg>