<svg xmlns="http://www.w3.org/2000/svg" xmlns:xlink="http://www.w3.org/1999/xlink" width="128" height="128"><path fill="#000000" d="M2 73.75L2 73.75L2 93Q2 97 6.88 100.50L6.88 100.50Q11.75 104 20.19 106.63Q28.63 109.25 39.88 110.88L39.88 110.88Q51.13 112.38 64 112.38L64 112.38L64 93Q51.13 93 39.88 91.50L39.88 91.50Q28.63 90 20.19 87.38Q11.75 84.75 6.88 81.25L6.88 81.25Q2 77.75 2 73.75ZM64 73.75L64 54.38L112.50 66.38Q118.88 63.88 122.44 60.81Q126 57.75 126 54.38L126 54.38L126 35Q126 31 121.13 27.50L121.13 27.50Q116.25 24 107.81 21.38Q99.38 18.75 88.13 17.13L88.13 17.13Q76.88 15.63 64 15.63L64 15.63Q51.13 15.63 39.88 17.13L39.88 17.13Q28.63 18.63 20.19 21.25Q11.75 23.88 6.88 27.50L6.88 27.50Q2 31 2 35L2 35L2 54.38Q2 58.38 6.88 61.88L6.88 61.88Q11.75 65.38 20.19 68Q28.63 70.63 39.88 72.13L39.88 72.13Q51.13 73.75 64 73.75L64 73.75ZM112.50 85.75L112.50 85.75L64 73.75L64 93L112.50 105Q118.88 102.63 122.44 99.56Q126 96.50 126 93L126 93L126 73.75Q126 77.13 122.44 80.19Q118.88 83.25 112.50 85.75Z"/></svg>