<svg xmlns="http://www.w3.org/2000/svg" xmlns:xlink="http://www.w3.org/1999/xlink" width="128" height="128"><path fill="#ffffff" d="M17.75 61.50L17.75 61.50L30.25 64.63Q31.88 64 32.81 63.19Q33.75 62.38 33.75 61.50L33.75 61.50L33.75 56.50Q33.75 54.50 29.06 53Q24.38 51.50 17.75 51.50L17.75 51.50Q11 51.50 6.38 52.94Q1.75 54.38 1.75 56.50L1.75 56.50L1.75 61.50Q1.75 63.63 6.38 65.06Q11 66.50 17.75 66.50L17.75 66.50L17.75 61.50ZM30.25 69.63L30.25 69.63L17.75 66.50L17.75 71.50L30.25 74.63Q31.88 74 32.81 73.19Q33.75 72.38 33.75 71.50L33.75 71.50L33.75 66.50Q33.75 67.38 32.81 68.19Q31.88 69 30.25 69.63ZM1.75 66.50L1.75 66.50L1.75 71.50Q1.75 73.50 6.44 75Q11.13 76.50 17.75 76.50L17.75 76.50L17.75 71.50Q11.13 71.50 6.44 70.06Q1.75 68.63 1.75 66.50L1.75 66.50ZM47.38 71L47.38 71Q47.38 71 47.38 71Q47.38 71 47.25 71L47.25 71Q44.50 71 42.56 69.06Q40.63 67.13 40.63 64.25L40.63 64.25Q40.63 64.25 40.63 64.25Q40.63 64.25 40.63 64.13L40.63 64.13L40.63 64.13Q40.63 64.13 40.63 64.13Q40.63 64.13 40.63 64.13L40.63 64.13Q40.63 61.25 42.63 59.31Q44.63 57.38 47.38 57.38L47.38 57.38Q47.38 57.38 47.44 57.38Q47.50 57.38 47.50 57.38L47.50 57.38Q47.63 57.38 47.69 57.38Q47.75 57.38 47.88 57.38L47.88 57.38Q49.38 57.38 50.63 57.88Q51.88 58.38 52.75 59.38L52.75 59.38L50.88 61.50Q50.25 60.88 49.38 60.44Q48.50 60 47.50 60L47.50 60Q45.88 60 44.75 61.19Q43.63 62.38 43.63 63.88L43.63 63.88Q43.63 64 43.63 64.06Q43.63 64.13 43.63 64.13L43.63 64.13L43.63 64.13Q43.63 64.13 43.63 64.19Q43.63 64.25 43.63 64.38L43.63 64.38Q43.63 66 44.75 67.13Q45.88 68.25 47.50 68.25L47.50 68.25Q47.50 68.25 47.50 68.25Q47.50 68.25 47.50 68.25L47.50 68.25Q48.50 68.25 49.44 67.88Q50.38 67.50 51 66.75L51 66.75L52.88 68.63Q51.88 69.75 50.56 70.38Q49.25 71 47.75 71L47.75 71Q47.63 71 47.56 71Q47.50 71 47.38 71L47.38 71ZM60.88 70.75L60.88 70.75L60.88 69.75Q60.25 70.25 59.50 70.63Q58.75 71 57.88 71L57.88 71Q57.88 71 57.81 71Q57.75 71 57.75 71L57.75 71Q56.38 71 55.31 70.19Q54.25 69.38 54.25 67.88L54.25 67.88L54.25 67.88Q54.25 66.25 55.38 65.44Q56.50 64.63 58.38 64.63L58.38 64.63Q58.38 64.63 58.38 64.63Q58.38 64.63 58.38 64.63L58.38 64.63Q59.13 64.63 59.69 64.75Q60.25 64.88 60.88 65.13L60.88 65.13L60.88 64.88Q60.88 64 60.31 63.50Q59.75 63 58.63 63L58.63 63Q57.88 63 57.19 63.19Q56.50 63.38 55.75 63.63L55.75 63.63L55.13 61.38Q56 61 56.94 60.81Q57.88 60.63 58.88 60.63L58.88 60.63Q59 60.63 59 60.63Q59 60.63 59.13 60.63L59.13 60.63Q61.50 60.63 62.56 61.75Q63.63 62.88 63.63 65L63.63 65L63.63 70.75L60.88 70.75ZM60.88 67.13L60.88 66.75Q60.50 66.50 60.06 66.44Q59.63 66.38 59.13 66.38L59.13 66.38Q59.13 66.38 59.06 66.38Q59 66.38 59 66.38L59 66.38Q58.13 66.38 57.56 66.69Q57 67 57 67.75L57 67.75L57 67.75Q57 68.38 57.44 68.69Q57.88 69 58.63 69L58.63 69Q59.63 69 60.25 68.50Q60.88 68 60.88 67.13L60.88 67.13ZM72.63 70.88L72.63 70.75L70 66.63L69 67.75L69 70.75L66.13 70.75L66.13 57L69 57L69 64.38L72.38 60.63L75.75 60.63L72 64.63L76 70.88L72.63 70.88ZM86.25 66.75L86.25 66.75L79.13 66.75Q79.25 67.63 79.94 68.19Q80.63 68.75 81.50 68.75L81.50 68.75Q81.50 68.75 81.56 68.75Q81.63 68.75 81.63 68.75L81.63 68.75Q81.63 68.75 81.69 68.75Q81.75 68.75 81.75 68.75L81.75 68.75Q82.50 68.75 83.06 68.50Q83.63 68.25 84.13 67.75L84.13 67.75L85.75 69.25Q85 70.13 83.94 70.63Q82.88 71.13 81.63 71.13L81.63 71.13Q79.50 71.13 77.94 69.56Q76.38 68 76.38 65.88L76.38 65.88L76.38 65.88Q76.38 65.75 76.38 65.69Q76.38 65.63 76.38 65.63L76.38 65.63Q76.38 63.50 77.81 62.06Q79.25 60.63 81.38 60.50L81.38 60.50Q83.88 60.50 85.06 62.19Q86.25 63.88 86.25 66.13L86.25 66.13L86.25 66.13Q86.25 66.25 86.25 66.38Q86.25 66.50 86.25 66.75ZM81.38 62.75L81.38 62.75Q80.50 62.75 79.81 63.38Q79.13 64 79.13 64.88L79.13 64.88L83.50 64.88Q83.50 64 82.88 63.38Q82.25 62.75 81.38 62.75L81.38 62.75ZM93.88 66.88L93.88 66.88L91.63 66.88L91.63 70.88L88.75 70.88L88.75 57.50L94.13 57.50Q96.50 57.50 97.88 58.81Q99.25 60.13 99.25 62.13L99.25 62.13L99.25 62.13Q99.25 64.50 97.69 65.69Q96.13 66.88 93.88 66.88ZM96.25 62.25L96.25 62.13Q96.25 61.25 95.63 60.69Q95 60.13 93.88 60.13L93.88 60.13L91.63 60.13L91.63 64.25L94 64.25Q94 64.25 94.06 64.25Q94.13 64.25 94.25 64.25L94.25 64.25Q95 64.25 95.63 63.69Q96.25 63.13 96.25 62.25L96.25 62.25L96.25 62.25ZM112.63 70.75L109.63 70.75L109.63 65.50L104.25 65.50L104.25 70.75L101.38 70.75L101.38 57.50L104.25 57.50L104.25 62.75L109.63 62.75L109.63 57.50L112.63 57.50L112.63 70.75ZM120.88 66.88L120.88 66.88L118.63 66.88L118.63 70.88L115.75 70.88L115.75 57.50L121.13 57.50Q123.50 57.50 124.88 58.81Q126.25 60.13 126.25 62.13L126.25 62.13L126.25 62.13Q126.25 64.50 124.69 65.69Q123.13 66.88 120.88 66.88ZM123.25 62.25L123.25 62.13Q123.25 61.25 122.63 60.69Q122 60.13 120.88 60.13L120.88 60.13L118.63 60.13L118.63 64.25L121 64.25Q121 64.25 121.13 64.25Q121.25 64.25 121.25 64.25L121.25 64.25Q122.13 64.25 122.69 63.69Q123.25 63.13 123.25 62.25L123.25 62.25L123.25 62.25Z"/></svg>