<svg xmlns="http://www.w3.org/2000/svg" xmlns:xlink="http://www.w3.org/1999/xlink" width="128" height="128"><path fill="#ffffff" d="M91.25 53.25L91.25 53.25Q93 52.25 94.69 51.19Q96.38 50.13 97.88 48.88L97.88 48.88Q100.25 46.63 100.06 43.81Q99.88 41 97.25 39.13L97.25 39.13Q96.75 38.75 96.25 38.25Q95.75 37.75 95.63 37.25L95.63 37.25Q95.13 35.13 95.06 33.06Q95 31 96.38 29L96.38 29Q96.88 28.38 97.13 27.63Q97.38 26.88 97.63 26.13L97.63 26.13Q98.38 23.75 97.38 21.88Q96.38 20 94 19.25L94 19.25Q93.63 19.13 93.19 19.06Q92.75 19 92.25 18.88L92.25 18.88Q91.63 18.75 91.38 18.50Q91.13 18.25 91 17.63L91 17.63Q90.63 15.25 91.38 13.88Q92.13 12.50 94.25 11.50L94.25 11.50Q95.38 11 96.63 10.63Q97.88 10.25 99 9.88L99 9.88Q97.38 7 93.25 5.56Q89.13 4.13 85.13 5.25L85.13 5.25Q81.88 6.13 79.50 8.06Q77.13 10 75.13 12.38L75.13 12.38Q74.88 12.63 74.44 12.75Q74 12.88 73.63 12.88L73.63 12.88Q72.63 12.75 72.50 12.13Q72.38 11.50 72.50 10.75L72.50 10.75Q72.88 9.38 73.25 8Q73.63 6.63 74.13 5.13L74.13 5.13Q72.25 5.25 70.81 6.06Q69.38 6.88 68 8L68 8Q67.88 7.88 67.81 8.06Q67.75 8.25 67.63 8.13L67.63 8.13Q67 6.50 67.06 5Q67.13 3.50 67.38 2L67.38 2L67.13 2Q64.50 2.75 62.50 4.38Q60.50 6 60 9.25L60 9.25L59.38 8.88L58.38 3.50Q56 5.13 54.75 7.13Q53.50 9.13 53.13 11.63L53.13 11.63Q53.13 12 52.94 12.31Q52.75 12.63 52.63 13L52.63 13Q52.25 12.88 51.88 12.69Q51.50 12.50 51.25 12.25L51.25 12.25Q48.88 9.50 46.13 7.50Q43.38 5.50 39.63 4.88L39.63 4.88Q36.25 4.38 32.69 5.81Q29.13 7.25 27.63 9.88L27.63 9.88Q29 10.38 30.38 10.81Q31.75 11.25 33.13 12L33.13 12Q34.63 12.75 35.25 14.06Q35.88 15.38 35.63 16.88L35.63 16.88Q35.50 17.88 35 18.38Q34.50 18.88 33.38 19L33.38 19Q31 19.38 29.69 21.13Q28.38 22.88 28.75 25.25L28.75 25.25Q28.88 26.13 29.13 27.06Q29.38 28 29.88 28.63L29.88 28.63Q31.13 30 31.25 31.69Q31.38 33.38 31.25 35L31.25 35Q31.25 36.38 30.75 37.38Q30.25 38.38 29.13 39.25L29.13 39.25Q26.63 41 26.44 43.81Q26.25 46.63 28.50 48.63L28.50 48.63Q29.88 50 31.63 51.06Q33.38 52.13 35.13 53.13L35.13 53.13Q36.38 54 37.19 55.06Q38 56.13 38.13 57.50L38.13 57.50Q38.13 59.75 38.06 62.06Q38 64.38 38 66.75L38 66.75Q37.88 67.63 37.75 68.63Q37.63 69.63 37.63 70.75L37.63 70.75Q35.63 68.88 34.44 66.81Q33.25 64.75 32.75 62.38L32.75 62.38Q30.63 64.38 29.63 66.81Q28.63 69.25 28.50 72.13L28.50 72.13Q28.38 77.13 30.50 80.69Q32.63 84.25 37.13 86.38L37.13 86.38Q37.50 86.50 37.81 86.88Q38.13 87.25 38.38 87.63L38.38 87.63Q40.25 90.88 43 93.06Q45.75 95.25 49.63 96L49.63 96Q50 96.13 50.44 96.19Q50.88 96.25 51.25 96.50L51.25 96.50Q53.25 98 55.63 98.81Q58 99.63 60.50 99.75L60.50 99.75Q64.38 100.13 68 99.56Q71.63 99 74.88 96.75L74.88 96.75Q75.25 96.50 75.56 96.31Q75.88 96.13 76.38 96.13L76.38 96.13Q80.25 95.50 83.13 93.31Q86 91.13 88 87.75L88 87.75Q88.38 87.25 88.88 86.81Q89.38 86.38 89.88 86.13L89.88 86.13Q92.13 85 93.88 83.38Q95.63 81.75 96.63 79.50L96.63 79.50Q97.63 77.13 97.94 74.63Q98.25 72.13 97.75 69.63L97.75 69.63Q97.38 67.63 96.44 65.75Q95.50 63.88 93.75 62.38L93.75 62.38Q93.13 64.88 92 66.88Q90.88 68.88 88.88 70.50L88.88 70.50Q88.63 67.13 88.50 63.81Q88.38 60.50 88.50 57.25L88.50 57.25Q88.50 56 89.31 54.94Q90.13 53.88 91.25 53.25L91.25 53.25ZM93.13 9L93.13 9Q92.50 9.13 91.81 9.31Q91.13 9.50 90.50 9.50L90.50 9.50Q87.25 9.50 84.88 10.94Q82.50 12.38 80.75 14.75L80.75 14.75L80.38 15.25L80.13 15.50L78.13 14.50Q80.63 10 84.94 8.44Q89.25 6.88 93.13 9L93.13 9ZM88.75 11.88L88.75 11.88Q88.50 13.25 88.25 14.63Q88 16 87.75 17.38L87.75 17.38Q87.63 18 87.44 18.56Q87.25 19.13 86.38 19.25L86.38 19.25Q85.63 19.50 85.13 19.31Q84.63 19.13 84 18.50L84 18.50Q83.25 17.75 83.25 17.13Q83.25 16.50 83.63 15.63L83.63 15.63Q84.50 14 85.75 13Q87 12 88.75 11.88L88.75 11.88ZM33.38 8.88L33.38 8.88Q37.25 6.88 41.50 8.38Q45.75 9.88 48.38 14.50L48.38 14.50L46.38 15.50L46.88 14.88Q45.88 14 44.81 13.19Q43.75 12.38 42.75 11.63L42.75 11.63Q41.25 10.50 39.56 10Q37.88 9.50 36.13 9.50L36.13 9.50Q35.38 9.50 34.69 9.31Q34 9.13 33.38 8.88ZM43.25 16.88L43.25 16.88Q43.25 17.50 42.63 18.25Q42 19 41.38 19.38L41.38 19.38Q41 19.63 40.19 19.19Q39.38 18.75 39 18.25L39 18.25Q38.63 17.75 38.63 17Q38.63 16.25 38.50 15.63L38.50 15.63Q38.38 15.13 38.31 14.63Q38.25 14.13 38.13 13.75L38.13 13.75Q38.13 13.25 37.94 12.88Q37.75 12.50 37.50 12L37.50 12Q39.50 12 41.31 13.50Q43.13 15 43.25 16.88ZM33.25 79.63L33.25 79.63Q31.38 76.88 31.31 74Q31.25 71.13 32 68.13L32 68.13Q34 72.88 37.88 74.50Q41.75 76.13 46.50 76.63L46.50 76.63Q44.88 78.50 43.88 80.44Q42.88 82.38 44 84.88L44 84.88Q40.63 84.63 37.81 83.50Q35 82.38 33.25 79.63L33.25 79.63ZM47.25 92L46.88 92.50L41.63 88Q44.63 87.13 45.50 88.81Q46.38 90.50 47.25 92L47.25 92ZM67.25 96.75L67.25 96.75Q59.75 98.25 54.19 94.88Q48.63 91.50 46.50 83.50L46.50 83.50Q45.88 81.50 47 80.25Q48.13 79 50.50 79L50.50 79Q53.63 78.88 56.88 78.94Q60.13 79 63.25 79L63.25 79Q66.38 79 69.50 79Q72.63 79 75.63 79L75.63 79Q76 79 76.38 79Q76.75 79 77.13 79.13L77.13 79.13Q79.13 79.63 79.81 80.69Q80.50 81.75 80 83.63L80 83.63Q78.50 88.50 75.56 92.13Q72.63 95.75 67.25 96.75L67.25 96.75ZM79.13 92.38L79.13 92.38Q79.63 91.25 80.06 90.31Q80.50 89.38 81 88.50L81 88.50Q81.13 88.25 81.50 88.13Q81.88 88 82.25 87.88L82.25 87.88Q82.88 87.75 83.44 87.75Q84 87.75 84.75 87.63L84.75 87.63Q83.63 89.25 82.31 90.38Q81 91.50 79.13 92.38L79.13 92.38ZM94.38 68L94.38 68Q96.50 75 93.06 79.81Q89.63 84.63 82.63 84.75L82.63 84.75Q83.50 82.25 82.56 80.38Q81.63 78.50 80 76.63L80 76.63Q84.63 76.13 88.50 74.50Q92.38 72.88 94.38 68ZM85.38 58.13L85.38 58.13Q85.38 61.13 85.56 64.06Q85.75 67 85.88 69.88L85.88 69.88Q86 71.88 85.75 72.31Q85.50 72.75 83.63 73.25L83.63 73.25Q82.50 73.38 81.38 73.50Q80.25 73.63 79.13 73.63L79.13 73.63Q78.88 73.63 78.50 73.25Q78.13 72.88 78 72.50L78 72.50Q76.75 69.63 75.56 66.81Q74.38 64 73.25 61.25L73.25 61.25Q73.13 60.88 72.94 60.56Q72.75 60.25 72.63 59.88L72.63 59.88L72.13 60.38Q73.25 64.50 74.31 68.88Q75.38 73.25 76.50 77L76.50 77L50 77Q51.13 73.25 52.19 68.94Q53.25 64.63 54.38 60.50L54.38 60.50L53.75 60.13Q53.13 61.63 52.44 63.06Q51.75 64.50 51.13 66L51.13 66Q50.50 67.75 49.81 69.38Q49.13 71 48.50 72.75L48.50 72.75Q48.25 73.25 47.94 73.50Q47.63 73.75 47 73.63L47 73.63Q45.75 73.50 44.50 73.31Q43.25 73.13 41.88 73L41.88 73Q41 72.88 40.75 72.31Q40.50 71.75 40.50 70.75L40.50 70.75Q40.75 67.63 40.88 64.50Q41 61.38 41 58.25L41 58.25Q41.13 55.75 40 53.81Q38.88 51.88 36.63 50.75L36.63 50.75Q35.25 50 34 49.25Q32.75 48.50 31.63 47.63L31.63 47.63Q29.75 46.13 29.88 44.06Q30 42 31.88 40.88L31.88 40.88L31.75 42.88Q33.75 40.50 34.50 36.06Q35.25 31.63 33.75 27L33.75 27L33.63 28.75L33.13 29Q32.63 27.88 32.13 26.75Q31.63 25.63 31.50 24.38L31.50 24.38Q31.25 23.25 32.31 22.50Q33.38 21.75 34.88 21.63L34.88 21.63Q37.75 21.50 40.38 22.19Q43 22.88 45.50 24.25L45.50 24.25Q48 25.63 50.38 27.19Q52.75 28.75 55 30.13L55 30.13Q54.63 28.50 52.38 26.38Q50.13 24.25 45 20.63L45 20.63Q47.75 17.75 52.88 16.25L52.88 16.25Q57.88 14.75 63.31 14.75Q68.75 14.75 73.75 16.25L73.75 16.25Q78.75 17.75 81.63 20.75L81.63 20.75Q78.38 22.38 75.75 24.75Q73.13 27.13 71.38 30.38L71.38 30.38Q72.25 29.88 73.06 29.25Q73.88 28.63 74.75 28L74.75 28Q77.88 25.75 81.25 24Q84.63 22.25 88.50 21.75L88.50 21.75Q89.63 21.63 90.81 21.69Q92 21.75 93.13 22L93.13 22Q94.38 22.25 94.81 23.19Q95.25 24.13 94.88 25.25L94.88 25.25Q94.63 26.25 94.19 27.13Q93.75 28 93.38 28.88L93.38 28.88L93 28.75L92.63 27Q91.50 31.38 91.94 35.31Q92.38 39.25 94.75 42.88L94.75 42.88L94.50 41Q96 41.63 96.50 43.25Q97 44.88 96 46.25L96 46.25Q95.38 47 94.63 47.69Q93.88 48.38 93.13 48.88L93.13 48.88Q92.38 49.50 91.56 49.94Q90.75 50.38 89.88 50.75L89.88 50.75Q87.63 51.88 86.56 53.81Q85.50 55.75 85.38 58.13L85.38 58.13ZM82.88 34.50L82.88 34.50Q80.13 35.25 77.88 36.81Q75.63 38.38 73.75 40.50L73.75 40.50Q72.88 41.50 71.81 42.13Q70.75 42.75 69.38 42.75L69.38 42.75Q68.75 42.88 68.13 42.75Q67.50 42.63 66.88 42.50L66.88 42.50Q67.13 44.25 68.19 45Q69.25 45.75 70.38 46L70.38 46Q71.13 47.63 71.75 49.06Q72.38 50.50 73 52L73 52L73.50 51.75Q73.13 50.38 73 48.94Q72.88 47.50 73.75 46L73.75 46Q75.88 47.50 78 47.38Q80.13 47.25 82.25 46.13L82.25 46.13Q84.50 45 85.50 43.06Q86.50 41.13 87 38.75L87 38.75L87.63 41Q88.50 39.50 88.56 38.06Q88.63 36.63 87.38 35.25L87.38 35.25L89.50 34.38Q87.75 34 86.13 34.06Q84.50 34.13 82.88 34.50L82.88 34.50ZM82 43.75L82 43.75Q80.63 45 78.56 45.19Q76.50 45.38 74.50 44.25L74.50 44.25Q76.13 42 78.31 40.38Q80.50 38.75 82.88 37.38L82.88 37.38Q83.63 38.63 83.31 40.69Q83 42.75 82 43.75ZM52.50 40.25L52.50 40.25Q50.88 38.38 48.88 37Q46.88 35.63 44.50 34.75L44.50 34.75Q42.75 34.13 40.88 34Q39 33.88 37 34.38L37 34.38L39.13 35.13Q37.88 36.63 37.94 38Q38 39.38 38.88 41L38.88 41L39.50 38.75Q40 41.13 40.69 43.06Q41.38 45 43.63 46.13L43.63 46.13Q45.75 47.25 47.75 47.38Q49.75 47.50 52 45.75L52 45.75L52 51.63Q52 51.63 52.50 51.69Q53 51.75 53.13 51.75L53.13 51.75Q53.63 50.38 54.38 49Q55.13 47.63 55.75 46L55.75 46Q57.75 45.38 58.56 44.63Q59.38 43.88 59.38 42.38L59.38 42.38Q57.25 43.13 55.63 42.50Q54 41.88 52.50 40.25L52.50 40.25ZM44.75 44L44.75 44Q43.63 43 43.25 41Q42.88 39 43.63 37.25L43.63 37.25Q46 38.75 48.19 40.38Q50.38 42 52 44.25L52 44.25Q50.25 45.38 48.25 45.25Q46.25 45.13 44.75 44L44.75 44ZM68.38 33.88L68.38 33.88Q65.75 35.25 63.25 35.25Q60.75 35.25 58.13 33.88L58.13 33.88Q61 37.13 63.19 37.13Q65.38 37.13 68.38 33.88ZM75.38 81.88L75.38 81.88Q74.63 81.88 73.31 81.88Q72 81.88 72 81.88L72 81.88L72 82L69.25 82L69 82Q68 82 67.63 82.56Q67.25 83.13 67.75 84.13L67.75 84.13Q68.25 85 68.81 85.88Q69.38 86.75 70.13 87.38L70.13 87.38Q70.50 87.88 71.31 88.06Q72.13 88.25 72.75 88.13L72.75 88.13Q74.50 88 75.38 86.75Q76.25 85.50 77 84.13L77 84.13Q77.50 83.25 77 82.63Q76.50 82 75.38 81.88ZM57.63 81.88L57.63 81.88Q56.75 81.88 55.88 81.88Q55 81.88 54.13 81.88L54.13 81.88Q53.38 81.88 52.50 81.88Q51.63 81.88 50.75 81.88L50.75 81.88Q50 82 49.56 82.38Q49.13 82.75 49.25 83.63L49.25 83.63Q49.38 84.75 50.75 86.31Q52.13 87.88 53.38 88.13L53.38 88.13Q54.25 88.38 55.13 88.19Q56 88 56.63 87.13L56.63 87.13Q57.25 86.38 57.75 85.63Q58.25 84.88 58.75 84L58.75 84Q59.25 83.13 58.94 82.56Q58.63 82 57.63 81.88L57.63 81.88ZM91.63 105.88L91.63 105.88L96.75 105.88L96.75 126.50Q95 126.75 93.50 126.50Q92 126.25 90.75 124.50L90.75 124.50Q88.88 122.13 86.81 119.75Q84.75 117.38 82.50 114.75L82.50 114.75L82.50 126.50L77.38 126.50L77.38 105.88Q79.13 105.63 80.63 105.88Q82.13 106.13 83.38 107.88L83.38 107.88Q85.25 110.38 87.31 112.75Q89.38 115.13 91.63 117.63L91.63 117.63L91.63 105.88ZM34.50 106L34.50 106Q37.13 106 39.69 105.94Q42.25 105.88 44.75 106.13L44.75 106.13Q46.88 106.25 48.50 107.38Q50.13 108.50 50.63 110.88L50.63 110.88Q51.13 112.88 50.25 114.63Q49.38 116.38 47.25 117.88L47.25 117.88L52.88 126.50Q51.25 126.50 49.81 126.56Q48.38 126.63 46.88 126.50L46.88 126.50Q46.50 126.50 46.13 126.06Q45.75 125.63 45.50 125.13L45.50 125.13Q44.63 124 43.94 122.81Q43.25 121.63 42.50 120.38L42.50 120.38Q42.13 119.75 41.56 119.38Q41 119 40.13 119.38L40.13 119.38L40.13 126.50L34.50 126.50L34.50 106ZM40.13 110.13L40.13 115.25Q41.50 115.25 42.69 115.19Q43.88 115.13 44.63 114L44.63 114Q45 113.38 45 112.50Q45 111.63 44.63 111.13L44.63 111.13Q43.88 110 42.63 110Q41.38 110 40.13 110.13L40.13 110.13ZM25.25 119.63L25.25 119.63L22.38 119.63L22.38 115.63L30.63 115.63Q30.63 117.75 30.63 119.81Q30.63 121.88 30.63 123.88L30.63 123.88Q30.63 124.25 30.38 124.56Q30.13 124.88 29.88 125L29.88 125Q26.25 126.88 22.63 127Q19 127.13 15.50 125L15.50 125Q12.75 123.38 11.56 120.38Q10.38 117.38 11 114.13L11 114.13Q11.63 110.88 13.75 108.69Q15.88 106.50 19.25 105.88L19.25 105.88Q21.88 105.38 24.50 105.69Q27.13 106 29.50 107.50L29.50 107.50Q29.88 107.63 30.19 107.94Q30.50 108.25 30.88 108.63L30.88 108.63L28.38 112.25Q27.63 111.88 27 111.50Q26.38 111.13 25.75 110.88L25.75 110.88Q22.75 109.50 20.19 110.50Q17.63 111.50 16.88 114.38L16.88 114.38Q15.88 117.88 17.75 120.25Q19.63 122.63 23.13 122.50L23.13 122.50Q24.88 122.38 25.19 121.94Q25.50 121.50 25.25 119.63L25.25 119.63ZM67.63 105.88L67.63 105.88L73.13 105.88Q73.13 105.88 73.25 105.94Q73.38 106 73.38 106.13L73.38 106.13Q73.25 109.50 73.31 112.88Q73.38 116.25 73.25 119.63L73.25 119.63Q73 122.50 70.88 124.38Q68.75 126.25 65.63 126.75L65.63 126.75Q63.75 127 61.88 126.75Q60 126.50 58.25 125.50L58.25 125.50Q56.50 124.50 55.50 122.94Q54.50 121.38 54.38 119.25L54.38 119.25Q54.25 116.38 54.25 113.38Q54.25 110.38 54.25 107.50L54.25 107.50L54.25 105.88L59.88 105.88Q59.88 106.25 59.88 106.63Q59.88 107 59.88 107.25L59.88 107.25Q60 110 59.94 112.63Q59.88 115.25 60 118L60 118Q60 119.88 60.88 120.94Q61.75 122 63.38 122.13L63.38 122.13Q65.38 122.25 66.50 121.25Q67.63 120.25 67.63 118.25L67.63 118.25Q67.63 115.63 67.63 112.88Q67.63 110.13 67.63 107.50L67.63 107.50L67.63 105.88ZM117.25 105.88L117.25 105.88L117.25 110.25L111.38 110.25Q111.38 113.38 111.38 116.44Q111.38 119.50 111.38 122.63L111.38 122.63Q111.38 123.63 111.50 124.75Q111.63 125.88 111.13 126.25L111.13 126.25Q110.50 126.75 109.38 126.69Q108.25 126.63 107.25 126.63L107.25 126.63L107.13 126.63Q106.25 126.75 105.88 126.44Q105.50 126.13 105.50 125.13L105.50 125.13Q105.63 121.50 105.56 117.81Q105.50 114.13 105.50 110.25L105.50 110.25L99.63 110.25L99.63 105.88L117.25 105.88Z"/></svg>