<svg xmlns="http://www.w3.org/2000/svg" xmlns:xlink="http://www.w3.org/1999/xlink" width="128" height="128"><path fill="#ffffff" d="M99.50 67.25L99.50 67.25Q101.63 66 103.81 64.69Q106 63.38 107.75 61.75L107.75 61.75Q110.88 59 110.56 55.44Q110.25 51.88 107 49.38L107 49.38Q106.38 48.88 105.75 48.31Q105.13 47.75 105 47L105 47Q104.38 44.38 104.25 41.75Q104.13 39.13 105.88 36.63L105.88 36.63Q106.50 35.88 106.88 34.88Q107.25 33.88 107.50 33L107.50 33Q108.38 30 107.06 27.63Q105.75 25.25 102.88 24.25L102.88 24.25Q102.38 24.13 101.81 24Q101.25 23.88 100.75 23.88L100.75 23.88Q100 23.75 99.56 23.38Q99.13 23 99.13 22.13L99.13 22.13Q98.63 19.25 99.56 17.44Q100.50 15.63 103.25 14.38L103.25 14.38Q104.63 13.75 106.19 13.31Q107.75 12.88 109.25 12.50L109.25 12.50Q107.13 8.75 101.94 7Q96.75 5.25 91.63 6.63L91.63 6.63Q87.63 7.63 84.63 10.13Q81.63 12.63 79 15.50L79 15.50Q78.63 15.88 78.13 16.06Q77.63 16.25 77.13 16.25L77.13 16.25Q75.88 16.13 75.75 15.31Q75.63 14.50 75.75 13.63L75.75 13.63Q76.13 11.88 76.69 10.06Q77.25 8.25 77.75 6.50L77.75 6.50Q75.38 6.50 73.50 7.63Q71.63 8.75 70 10.13L70 10.13Q69.88 9.88 69.75 10Q69.63 10.13 69.63 10L69.63 10Q68.75 7.88 68.81 6.06Q68.88 4.25 69.25 2L69.25 2L68.88 2Q65.63 3.50 63.06 5.44Q60.50 7.38 59.88 11.38L59.88 11.38L59.13 11Q58.88 9.50 58.50 7.81Q58.13 6.13 57.75 4.38L57.75 4.38Q54.88 6.38 53.31 8.88Q51.75 11.38 51.25 14.63L51.25 14.63Q51.25 15.13 51 15.50Q50.75 15.88 50.63 16.38L50.63 16.38Q50.13 16.13 49.69 15.94Q49.25 15.75 48.88 15.38L48.88 15.38Q45.88 11.88 42.38 9.38Q38.88 6.88 34.13 6.13L34.13 6.13Q29.88 5.50 25.38 7.31Q20.88 9.13 18.88 12.38L18.88 12.38Q20.63 13 22.44 13.63Q24.25 14.25 25.88 15L25.88 15Q27.88 16.13 28.63 17.69Q29.38 19.25 29.13 21.25L29.13 21.25Q29 22.63 28.38 23.25Q27.75 23.88 26.38 24L26.38 24Q23.25 24.38 21.56 26.63Q19.88 28.88 20.38 31.88L20.38 31.88Q20.50 33 20.81 34.13Q21.13 35.25 21.88 36L21.88 36Q23.38 37.88 23.50 40Q23.63 42.13 23.63 44.25L23.63 44.25Q23.63 45.88 22.94 47.19Q22.25 48.50 20.88 49.63L20.88 49.63Q17.75 51.75 17.44 55.31Q17.13 58.88 20 61.50L20 61.50Q21.88 63.13 24.06 64.50Q26.25 65.88 28.50 67.13L28.50 67.13Q30.13 68.13 31.13 69.50Q32.13 70.88 32.13 72.63L32.13 72.63Q32.38 75.50 32.25 78.44Q32.13 81.38 32 84.25L32 84.25Q32 85.50 31.81 86.69Q31.63 87.88 31.50 89.38L31.50 89.38Q29 87.13 27.56 84.50Q26.13 81.88 25.50 78.75L25.50 78.75Q22.75 81.38 21.50 84.44Q20.25 87.50 20.13 91.13L20.13 91.13Q19.88 97.38 22.56 101.88Q25.25 106.38 31 109.13L31 109.13Q31.50 109.25 31.94 109.75Q32.38 110.25 32.63 110.75L32.63 110.75Q35 114.88 38.44 117.56Q41.88 120.25 46.75 121.25L46.75 121.25Q47.25 121.38 47.81 121.44Q48.38 121.50 48.88 121.88L48.88 121.88Q51.38 123.88 54.38 124.88Q57.38 125.88 60.50 126.13L60.50 126.13Q65.38 126.50 69.94 125.75Q74.50 125 78.75 122.25L78.75 122.25Q79.13 122 79.56 121.75Q80 121.50 80.50 121.50L80.50 121.50Q85.50 120.63 89.13 117.94Q92.75 115.25 95.38 110.88L95.38 110.88Q95.75 110.25 96.38 109.69Q97 109.13 97.63 108.75L97.63 108.75Q100.50 107.38 102.69 105.38Q104.88 103.38 106.25 100.38L106.25 100.38Q107.50 97.38 107.81 94.25Q108.13 91.13 107.63 88L107.63 88Q107.13 85.38 105.94 83Q104.75 80.63 102.50 78.75L102.50 78.75Q101.88 81.88 100.44 84.44Q99 87 96.38 89L96.38 89Q96.13 84.88 95.94 80.69Q95.75 76.50 95.88 72.38L95.88 72.38Q95.88 70.75 96.88 69.44Q97.88 68.13 99.50 67.25L99.50 67.25ZM101.88 11.38L101.88 11.38Q101 11.50 100.13 11.75Q99.25 12 98.38 12L98.38 12Q94.38 11.88 91.38 13.69Q88.38 15.50 86 18.63L86 18.63L85.63 19.25L85.38 19.50L82.88 18.25Q85.88 12.63 91.38 10.63Q96.88 8.63 101.88 11.38L101.88 11.38ZM96.25 15L96.25 15Q95.88 16.75 95.56 18.50Q95.25 20.25 95 21.88L95 21.88Q94.88 22.75 94.56 23.38Q94.25 24 93.25 24.25L93.25 24.25Q92.38 24.50 91.69 24.31Q91 24.13 90.25 23.38L90.25 23.38Q89.25 22.38 89.25 21.56Q89.25 20.75 89.88 19.75L89.88 19.75Q90.88 17.63 92.44 16.38Q94 15.13 96.25 15ZM26.25 11.25L26.25 11.25Q31.13 8.63 36.50 10.56Q41.88 12.50 45.25 18.25L45.25 18.25L42.63 19.63L43.38 18.63Q42 17.63 40.69 16.63Q39.38 15.63 38 14.63L38 14.63Q36.13 13.25 34.06 12.63Q32 12 29.63 12L29.63 12Q28.88 12 28 11.75Q27.13 11.50 26.25 11.25L26.25 11.25ZM38.75 21.38L38.75 21.38Q38.75 22.13 38 23.06Q37.25 24 36.38 24.38L36.38 24.38Q35.88 24.63 34.88 24.13Q33.88 23.63 33.38 23L33.38 23Q33 22.38 32.94 21.44Q32.88 20.50 32.63 19.63L32.63 19.63Q32.63 19 32.56 18.44Q32.50 17.88 32.25 17.25L32.25 17.25Q32.13 16.75 31.94 16.19Q31.75 15.63 31.50 15.13L31.50 15.13Q34 15.13 36.31 17Q38.63 18.88 38.75 21.38L38.75 21.38ZM26 100.50L26 100.50Q23.75 97.13 23.63 93.50Q23.50 89.88 24.50 86L24.50 86Q27.13 92 32 94.06Q36.88 96.13 42.88 96.88L42.88 96.88Q40.88 99.13 39.63 101.56Q38.38 104 39.75 107.25L39.75 107.25Q35.38 107 31.88 105.50Q28.38 104 26 100.50L26 100.50ZM43.25 116.88L43.25 116.88L36.63 111.13Q40.50 110.13 41.56 112.19Q42.63 114.25 43.88 116.25L43.88 116.25L43.25 116.88ZM69 122.25L69 122.25Q59.63 124.13 52.63 119.88Q45.63 115.63 42.75 105.50L42.75 105.50Q42.13 103 43.50 101.38Q44.88 99.75 47.88 99.75L47.88 99.75Q51.88 99.75 55.94 99.75Q60 99.75 64 99.75L64 99.75Q68 99.75 71.88 99.75Q75.75 99.75 79.75 99.75L79.75 99.75Q80.13 99.75 80.63 99.81Q81.13 99.88 81.63 100L81.63 100Q84 100.50 84.94 101.88Q85.88 103.25 85.13 105.63L85.13 105.63Q83.38 111.88 79.63 116.44Q75.88 121 69 122.25ZM84 116.75L84 116.75Q84.75 115.38 85.31 114.13Q85.88 112.88 86.50 111.88L86.50 111.88Q86.63 111.50 87.13 111.31Q87.63 111.13 88 111L88 111Q88.75 110.88 89.50 110.88Q90.25 110.88 91.13 110.75L91.13 110.75Q89.88 112.75 88.13 114.19Q86.38 115.63 84 116.75L84 116.75ZM103.38 85.88L103.38 85.88Q106 94.63 101.69 100.81Q97.38 107 88.38 107.13L88.38 107.13Q89.63 104 88.44 101.56Q87.25 99.13 85.13 96.88L85.13 96.88Q91 96.13 95.94 94.06Q100.88 92 103.38 85.88ZM92 73.38L92 73.38Q92 77.13 92.19 80.88Q92.38 84.63 92.63 88.38L92.63 88.38Q92.88 90.75 92.50 91.38Q92.13 92 89.75 92.50L89.75 92.50Q88.38 92.75 86.94 92.88Q85.50 93 84.13 93L84.13 93Q83.75 93 83.25 92.50Q82.75 92 82.63 91.50L82.63 91.50Q81.13 88 79.63 84.44Q78.13 80.88 76.63 77.25L76.63 77.25Q76.50 76.88 76.25 76.50Q76 76.13 75.88 75.63L75.88 75.63L75.25 76.13Q76.63 81.38 78 86.94Q79.38 92.50 80.75 97L80.75 97L47.25 97Q48.63 92.50 50 86.94Q51.38 81.38 52.75 76.25L52.75 76.25L52 75.88Q51.25 77.75 50.38 79.63Q49.50 81.50 48.75 83.38L48.75 83.38Q47.88 85.50 47.06 87.63Q46.25 89.75 45.38 91.88L45.38 91.88Q45.13 92.50 44.69 92.88Q44.25 93.25 43.50 93.13L43.50 93.13Q41.88 92.88 40.25 92.63Q38.63 92.38 37.13 92.13L37.13 92.13Q35.75 92 35.44 91.31Q35.13 90.63 35.25 89.38L35.25 89.38Q35.50 85.50 35.69 81.50Q35.88 77.50 36 73.63L36 73.63Q36 70.38 34.63 68Q33.25 65.63 30.25 64L30.25 64Q28.63 63.13 27.06 62.19Q25.50 61.25 24 60.13L24 60.13Q21.63 58.25 21.81 55.63Q22 53 24.38 51.63L24.38 51.63L24.13 54.13Q26.63 51.13 27.56 45.56Q28.50 40 26.75 34.13L26.75 34.13L26.50 36.38L25.88 36.50Q25.38 35.13 24.75 33.69Q24.13 32.25 23.75 30.88L23.75 30.88Q23.50 29.38 24.88 28.38Q26.25 27.38 28.13 27.25L28.13 27.25Q31.75 27.13 35.13 28Q38.50 28.88 41.50 30.50L41.50 30.50Q44.75 32.25 47.75 34.25Q50.75 36.25 53.63 38L53.63 38Q53 36 50.19 33.31Q47.38 30.63 40.88 26L40.88 26Q44.50 22.38 50.88 20.50L50.88 20.50Q57.13 18.63 64.06 18.63Q71 18.63 77.25 20.50L77.25 20.50Q83.63 22.38 87.13 26.13L87.13 26.13Q83.13 28.25 79.81 31.25Q76.50 34.25 74.38 38.38L74.38 38.38Q75.38 37.63 76.44 36.88Q77.50 36.13 78.50 35.38L78.50 35.38Q82.50 32.50 86.75 30.31Q91 28.13 96 27.50L96 27.50Q97.38 27.25 98.88 27.38Q100.38 27.50 101.88 27.75L101.88 27.75Q103.38 28.13 103.94 29.31Q104.50 30.50 104 31.88L104 31.88Q103.63 33.13 103.06 34.19Q102.50 35.25 102 36.38L102 36.38L101.50 36.38L101.13 34.13Q99.75 39.63 100.31 44.56Q100.88 49.50 103.88 54.13L103.88 54.13L103.50 51.75Q105.50 52.50 106.06 54.56Q106.63 56.63 105.38 58.38L105.38 58.38Q104.75 59.38 103.75 60.19Q102.75 61 101.75 61.75L101.75 61.75Q100.75 62.50 99.75 63Q98.75 63.50 97.75 64.13L97.75 64.13Q94.75 65.50 93.38 67.94Q92 70.38 92 73.38L92 73.38ZM88.75 43.63L88.75 43.63Q85.25 44.50 82.44 46.50Q79.63 48.50 77.25 51.13L77.25 51.13Q76.13 52.38 74.81 53.19Q73.50 54 71.88 54L71.88 54Q71 54 70.19 53.88Q69.38 53.75 68.50 53.63L68.50 53.63Q68.88 56 70.25 56.88Q71.63 57.75 73.13 58.13L73.13 58.13L76.38 65.63L76.88 65.38Q76.50 63.50 76.38 61.69Q76.25 59.88 77.25 58.13L77.25 58.13Q80 60 82.69 59.81Q85.38 59.63 88 58.25L88 58.25Q91 56.88 92.19 54.38Q93.38 51.88 94.13 49L94.13 49L94.88 51.75Q96 49.88 96.06 48.06Q96.13 46.25 94.63 44.50L94.63 44.50L97.13 43.38Q94.88 42.88 92.81 42.94Q90.75 43 88.75 43.63L88.75 43.63ZM87.75 55.25L87.75 55.25Q86 56.88 83.38 57.13Q80.75 57.38 78.25 55.88L78.25 55.88Q80.38 53 83.13 50.94Q85.88 48.88 88.75 47.13L88.75 47.13Q89.75 48.88 89.38 51.44Q89 54 87.75 55.25ZM50.50 50.88L50.50 50.88Q48.38 48.50 45.88 46.69Q43.38 44.88 40.25 43.88L40.25 43.88Q38 43.13 35.69 42.94Q33.38 42.75 30.75 43.50L30.75 43.50L33.38 44.38Q32 46.13 32.06 47.94Q32.13 49.75 33.13 51.75L33.13 51.75L34 48.88Q34.63 51.88 35.81 54.38Q37 56.88 39.88 58.25L39.88 58.25Q42.50 59.63 44.88 59.81Q47.25 60 51 57.75L51 57.75L51 65.25Q51 65.25 51.31 65.31Q51.63 65.38 51.75 65.38L51.75 65.38Q52.50 63.63 53.25 61.88Q54 60.13 54.88 58.13L54.88 58.13Q57.38 57.38 58.31 56.38Q59.25 55.38 59.25 53.63L59.25 53.63Q56.63 54.38 54.44 53.63Q52.25 52.88 50.50 50.88L50.50 50.88ZM40.63 55.50L40.63 55.50Q39.25 54.38 38.75 51.81Q38.25 49.25 39.13 47L39.13 47Q42.13 49 44.94 51Q47.75 53 49.75 55.88L49.75 55.88Q47.50 57.25 45 57.13Q42.50 57 40.63 55.50L40.63 55.50ZM70.50 42.75L70.50 42.75Q67.13 44.50 64 44.50Q60.88 44.50 57.63 42.75L57.63 42.75Q61.13 46.75 63.94 46.88Q66.75 47 70.50 42.75ZM79.38 103.50L79.38 103.50Q78.38 103.50 77.06 103.50Q75.75 103.50 75 103.50L75 103.50L75 104L71.50 104L71.25 103.75Q69.88 103.88 69.44 104.50Q69 105.13 69.63 106.25L69.63 106.25Q70.25 107.50 71 108.56Q71.75 109.63 72.63 110.50L72.63 110.50Q73.25 111 74.19 111.25Q75.13 111.50 76 111.38L76 111.38Q78.25 111.13 79.38 109.63Q80.50 108.13 81.38 106.38L81.38 106.38Q81.88 105.13 81.31 104.38Q80.75 103.63 79.38 103.50L79.38 103.50ZM56.88 103.50L56.88 103.50Q55.75 103.50 54.69 103.50Q53.63 103.50 52.50 103.50L52.50 103.50Q51.50 103.50 50.44 103.50Q49.38 103.50 48.25 103.50L48.25 103.50Q47.25 103.63 46.75 104.06Q46.25 104.50 46.38 105.63L46.38 105.63Q46.50 107.13 48.25 109.06Q50 111 51.50 111.38L51.50 111.38Q52.75 111.75 53.81 111.44Q54.88 111.13 55.63 110.13L55.63 110.13Q56.38 109.25 57.06 108.25Q57.75 107.25 58.38 106.13L58.38 106.13Q59 105 58.56 104.31Q58.13 103.63 56.88 103.50Z"/></svg>