<svg xmlns="http://www.w3.org/2000/svg" xmlns:xlink="http://www.w3.org/1999/xlink" width="128" height="128"><path fill="#ffffff" d="M92.50 53.25L92.50 53.25Q94.13 52.38 95.75 51.38Q97.38 50.38 98.75 49.13L98.75 49.13Q101.25 47 101.06 44.13Q100.88 41.25 98.25 39.25L98.25 39.25Q97.88 38.88 97.38 38.50Q96.88 38.13 96.75 37.75L96.75 37.75Q96.25 35.63 96.06 33.63Q95.88 31.63 97.13 29.63L97.13 29.63Q97.63 28.88 98 28Q98.38 27.13 98.63 26.25L98.63 26.25Q99.25 23.75 98.19 21.88Q97.13 20 94.63 19.25L94.63 19.25Q94.25 19.13 93.81 19.13Q93.38 19.13 93 18.88L93 18.88Q92.75 18.88 92.44 18.63Q92.13 18.38 92.13 18.25L92.13 18.25Q91.63 15.75 92.06 14.44Q92.50 13.13 94.50 12L94.50 12Q95.38 11.50 96.38 11.19Q97.38 10.88 98.38 10.50L98.38 10.50Q98.75 10.38 99.19 10.31Q99.63 10.25 100.13 10.13L100.13 10.13Q97.75 6.88 94 5.63Q90.25 4.38 86.25 5.38L86.25 5.38Q83 6.13 80.63 8.06Q78.25 10 76.25 12.38L76.25 12.38Q76 12.63 75.63 12.88Q75.25 13.13 74.88 13.13L74.88 13.13Q73.88 13.13 73.63 12.50Q73.38 11.88 73.50 11.13L73.50 11.13Q73.88 9.75 74.25 8.25Q74.63 6.75 75 5.38L75 5.38Q73.25 5.25 71.75 6.19Q70.25 7.13 68.75 8.25L68.75 8.25Q68.50 7.25 68.31 6.44Q68.13 5.63 68 4.75L68 4.75Q68 3.88 68.06 3Q68.13 2.13 68.25 1.25L68.25 1.25Q65.50 2.25 63.50 4Q61.50 5.75 60.88 8.88L60.88 8.88L60.50 8.88L59.38 3.63Q59 3.88 58.63 4.06Q58.25 4.25 58 4.50L58 4.50Q56.38 6 55.38 7.88Q54.38 9.75 54.13 12L54.13 12Q54.13 12.25 53.94 12.63Q53.75 13 53.63 13L53.63 13Q53.38 13.13 53 12.94Q52.63 12.75 52.50 12.63L52.50 12.63Q52 12.13 51.63 11.63Q51.25 11.13 50.75 10.75L50.75 10.75Q48.13 8 45.06 6.38Q42 4.75 38 5L38 5Q35.13 5.13 32.63 6.31Q30.13 7.50 28.50 10L28.50 10Q30 10.50 31.38 11Q32.75 11.50 34.13 12.13L34.13 12.13Q35.75 13 36.25 14.25Q36.75 15.50 36.63 17.25L36.63 17.25Q36.50 18.25 36 18.63Q35.50 19 34.63 19.13L34.63 19.13Q31.63 19.63 30.38 21.69Q29.13 23.75 30 26.63L30 26.63Q30.13 27.25 30.38 27.88Q30.63 28.50 31 28.88L31 28.88Q32.38 30.63 32.38 32.50Q32.38 34.38 32.13 36.25L32.13 36.25Q32.13 37.13 31.69 37.81Q31.25 38.50 30.50 39.13L30.50 39.13Q27.50 41.38 27.44 44.38Q27.38 47.38 30.38 49.75L30.38 49.75Q31.63 50.75 33 51.56Q34.38 52.38 35.75 53.13L35.75 53.13Q37.63 54.13 38.44 55.63Q39.25 57.13 39.25 59.25L39.25 59.25Q39.25 60.88 39.19 62.50Q39.13 64.13 39 65.88L39 65.88Q39 67 38.88 68.19Q38.75 69.38 38.63 70.50L38.63 70.50L38.13 70.63Q37.50 69.75 36.75 68.81Q36 67.88 35.38 66.88L35.38 66.88Q34.88 65.88 34.50 64.81Q34.13 63.75 33.63 62.63L33.63 62.63Q29.25 66.25 29.56 74.44Q29.88 82.63 37 85.88L37 85.88Q38 86.25 38.69 86.94Q39.38 87.63 39.88 88.50L39.88 88.50Q41.88 91.75 44.63 93.63Q47.38 95.50 51.13 96.13L51.13 96.13Q51.50 96.25 51.88 96.38Q52.25 96.50 52.50 96.75L52.50 96.75Q57.50 100.13 64.25 100.13Q71 100.13 75.88 96.75L75.88 96.75Q76.13 96.63 76.50 96.44Q76.88 96.25 77.13 96.25L77.13 96.25Q81.25 95.50 84.19 93.31Q87.13 91.13 89.13 87.50L89.13 87.50Q89.25 87.25 89.56 86.94Q89.88 86.63 90.25 86.50L90.25 86.50Q94.38 84.75 96.50 81.56Q98.63 78.38 98.88 73.88L98.88 73.88Q99.13 70.63 98.13 67.75Q97.13 64.88 94.75 62.38L94.75 62.38Q94.13 64.88 93 66.94Q91.88 69 89.63 70.63L89.63 70.63Q89.63 67.50 89.44 64.38Q89.25 61.25 89.25 58.25L89.25 58.25Q89.25 56.63 90.13 55.38Q91 54.13 92.50 53.25L92.50 53.25ZM38.75 12.13L38.75 12.13Q40.63 12.13 42.56 13.81Q44.50 15.50 44.38 17.25L44.38 17.25Q44.25 17.88 43.56 18.63Q42.88 19.38 42.25 19.50L42.25 19.50Q41.63 19.75 40.81 19.44Q40 19.13 39.75 18.13L39.75 18.13Q39.75 17.63 39.63 17.06Q39.50 16.50 39.50 16L39.50 16Q39.25 15.13 39.06 14.13Q38.88 13.13 38.75 12.13L38.75 12.13ZM45 85.13L45 85.13Q43.88 84.88 42.94 84.75Q42 84.63 41 84.38L41 84.38Q36.88 83.25 34.63 80.38Q32.38 77.50 32.38 73.25L32.38 73.25Q32.25 72 32.50 70.81Q32.75 69.63 32.88 68.38L32.88 68.38Q32.88 68.38 33 68.38Q33.13 68.38 33.13 68.38L33.13 68.38Q33.25 68.38 33.25 68.44Q33.25 68.50 33.25 68.63L33.25 68.63Q35.38 73 39.06 74.63Q42.75 76.25 47.13 76.63L47.13 76.63L44.50 81.75L45 85.13ZM44 41L44 41L44 37.25Q46.25 38.63 48.31 40.06Q50.38 41.50 52 43.25L52 43.25Q52.13 43.50 52.31 43.63Q52.50 43.75 52.63 44L52.63 44Q52.75 44 52.75 44.19Q52.75 44.38 52.88 44.38L52.88 44.38Q50.75 46 47.38 45.06Q44 44.13 44 41L44 41ZM59.75 84.38L59.75 84.38Q59.25 85 58.81 85.63Q58.38 86.25 58 86.88L58 86.88Q56.88 88.25 55.38 88.31Q53.88 88.38 52.63 87.13L52.63 87.13Q52.13 86.75 51.75 86.38Q51.38 86 51 85.50L51 85.50L51 85.50L50.63 85.25Q50.13 82.88 50.50 82.44Q50.88 82 53.38 82L53.38 82Q54.63 82 55.81 82Q57 82 58.13 82L58.13 82Q59.50 82 59.81 82.50Q60.13 83 59.75 84.38ZM77.75 85L77.75 85L77.50 85.50L77.50 85.50L77.50 85.50L77.50 85.50Q77.13 85.88 76.81 86.25Q76.50 86.63 76.25 86.88L76.25 86.88Q74.75 88.38 73.19 88.31Q71.63 88.25 70.25 86.50L70.25 86.50Q69.88 86 69.50 85.44Q69.13 84.88 68.75 84.25L68.75 84.25Q68.38 83 68.69 82.50Q69 82 70.38 82L70.38 82Q71.75 82 73.13 82Q74.50 82 75.88 82L75.88 82Q77.63 82 78.06 82.63Q78.50 83.25 77.75 85L77.75 85ZM75.38 44.38L75.38 44.38L76.13 43.38Q77.75 41.50 79.38 40.06Q81 38.63 84 37.25L84 37.25L84 41Q84 44.13 80.75 45.13Q77.50 46.13 75.38 44.38L75.38 44.38ZM95 69L95 69L95.38 68.13Q96.25 71.13 96.19 74.06Q96.13 77 94.38 79.63L94.38 79.63Q92.50 82.50 89.69 83.63Q86.88 84.75 83.63 85L83.63 85L84 81.75L81.38 76.75Q85.50 76.25 89.19 74.81Q92.88 73.38 95 69L95 69ZM88.75 17.63L88.75 17.63Q88.63 18.25 88.38 18.75Q88.13 19.25 87.25 19.50L87.25 19.50Q86.13 19.88 85.56 19.25Q85 18.63 84.50 18L84.50 18Q84.25 17.75 84.31 17.13Q84.38 16.50 84.50 16.13L84.50 16.13Q85.13 14.75 86.06 13.69Q87 12.63 88.63 12.25L88.63 12.25Q88.88 12.13 89.19 12.13Q89.50 12.13 89.63 12L89.63 12Q89.38 13.63 89.19 14.94Q89 16.25 88.75 17.63L88.75 17.63ZM91.63 105.88L91.63 105.88L96.75 105.88L96.75 126.50Q95 126.75 93.50 126.50Q92 126.25 90.75 124.63L90.75 124.63Q88.88 122.13 86.81 119.75Q84.75 117.38 82.50 114.75L82.50 114.75L82.50 126.63L77.38 126.63L77.38 105.88Q79.13 105.75 80.63 106Q82.13 106.25 83.38 107.88L83.38 107.88Q85.25 110.38 87.31 112.75Q89.38 115.13 91.63 117.63L91.63 117.63L91.63 105.88ZM34.50 106L34.50 106Q37.13 106 39.69 105.94Q42.25 105.88 44.75 106.13L44.75 106.13Q46.88 106.25 48.50 107.38Q50.13 108.50 50.63 110.88L50.63 110.88Q51.13 113 50.25 114.69Q49.38 116.38 47.25 117.88L47.25 117.88L52.88 126.63Q51.25 126.63 49.81 126.63Q48.38 126.63 46.88 126.50L46.88 126.50Q46.50 126.50 46.13 126.06Q45.75 125.63 45.50 125.25L45.50 125.25Q44.63 124 43.94 122.81Q43.25 121.63 42.50 120.38L42.50 120.38Q42.13 119.75 41.56 119.44Q41 119.13 40.13 119.38L40.13 119.38L40.13 126.63L34.50 126.63L34.50 106ZM40.13 110.13L40.13 115.25Q41.50 115.25 42.69 115.25Q43.88 115.25 44.63 114L44.63 114Q45 113.50 45 112.56Q45 111.63 44.63 111.13L44.63 111.13Q43.88 110 42.63 110.06Q41.38 110.13 40.13 110.13L40.13 110.13ZM25.25 119.63L25.25 119.63L22.38 119.63L22.38 115.63L30.63 115.63Q30.63 117.75 30.63 119.81Q30.63 121.88 30.63 124L30.63 124Q30.63 124.25 30.38 124.56Q30.13 124.88 29.88 125L29.88 125Q26.25 126.88 22.63 127Q19 127.13 15.50 125L15.50 125Q12.75 123.38 11.56 120.38Q10.38 117.38 11 114.13L11 114.13Q11.63 110.88 13.75 108.69Q15.88 106.50 19.25 105.88L19.25 105.88Q21.88 105.38 24.50 105.69Q27.13 106 29.50 107.50L29.50 107.50Q29.88 107.75 30.19 108.06Q30.50 108.38 30.88 108.63L30.88 108.63L28.38 112.25Q27.63 111.88 27 111.56Q26.38 111.25 25.75 110.88L25.75 110.88Q22.75 109.50 20.19 110.56Q17.63 111.63 16.88 114.38L16.88 114.38Q15.88 117.88 17.75 120.25Q19.63 122.63 23.13 122.50L23.13 122.50Q24.88 122.38 25.19 122Q25.50 121.63 25.25 119.63L25.25 119.63ZM67.63 105.88L67.63 105.88L73.13 105.88Q73.13 106 73.25 106.06Q73.38 106.13 73.38 106.13L73.38 106.13Q73.25 109.50 73.31 112.94Q73.38 116.38 73.25 119.75L73.25 119.75Q73 122.63 70.88 124.50Q68.75 126.38 65.63 126.75L65.63 126.75Q63.75 127.13 61.88 126.81Q60 126.50 58.25 125.50L58.25 125.50Q56.50 124.50 55.50 122.94Q54.50 121.38 54.38 119.38L54.38 119.38Q54.25 116.38 54.25 113.44Q54.25 110.50 54.25 107.50L54.25 107.50L54.25 105.88L59.88 105.88Q59.88 106.25 59.88 106.63Q59.88 107 59.88 107.38L59.88 107.38Q60 110 59.94 112.69Q59.88 115.38 60 118L60 118Q60 119.88 60.88 121Q61.75 122.13 63.38 122.13L63.38 122.13Q65.38 122.38 66.50 121.38Q67.63 120.38 67.63 118.25L67.63 118.25Q67.63 115.63 67.63 112.94Q67.63 110.25 67.63 107.50L67.63 107.50L67.63 105.88ZM117.25 106L117.25 106L117.25 110.25L111.38 110.25Q111.38 113.50 111.38 116.56Q111.38 119.63 111.38 122.63L111.38 122.63Q111.38 123.63 111.50 124.75Q111.63 125.88 111.13 126.38L111.13 126.38Q110.50 126.88 109.38 126.75Q108.25 126.63 107.25 126.63L107.25 126.63L107.13 126.63Q106.25 126.88 105.88 126.50Q105.50 126.13 105.50 125.13L105.50 125.13Q105.63 121.50 105.56 117.81Q105.50 114.13 105.50 110.38L105.50 110.38L99.63 110.38L99.63 106L117.25 106Z"/></svg>