<svg xmlns="http://www.w3.org/2000/svg" xmlns:xlink="http://www.w3.org/1999/xlink" width="128" height="128"><path fill="#000000" d="M99.38 67.25L99.38 67.25Q101.38 66.13 103.38 64.88Q105.38 63.63 107.13 62.13L107.13 62.13Q110.25 59.38 110 55.81Q109.75 52.25 106.50 49.75L106.50 49.75Q106 49.25 105.38 48.81Q104.75 48.38 104.63 47.75L104.63 47.75Q104 45.25 103.75 42.69Q103.50 40.13 105.13 37.63L105.13 37.63Q105.75 36.75 106.19 35.69Q106.63 34.63 107 33.50L107 33.50Q107.88 30.38 106.50 28Q105.13 25.63 102.13 24.75L102.13 24.75Q101.63 24.63 101.06 24.56Q100.50 24.50 100 24.25L100 24.25Q99.63 24.13 99.25 23.88Q98.88 23.63 98.88 23.38L98.88 23.38Q98.25 20.25 98.81 18.69Q99.38 17.13 101.88 15.75L101.88 15.75Q103 15 104.25 14.63Q105.50 14.25 106.75 13.88L106.75 13.88Q107.25 13.63 107.75 13.56Q108.25 13.50 108.88 13.25L108.88 13.25Q106 9.25 101.25 7.69Q96.50 6.13 91.50 7.38L91.50 7.38Q87.50 8.38 84.50 10.75Q81.50 13.13 79 16L79 16Q78.63 16.38 78.19 16.69Q77.75 17 77.25 17L77.25 17Q76.13 17 75.75 16.25Q75.38 15.50 75.63 14.63L75.63 14.63Q76 12.75 76.50 10.94Q77 9.13 77.50 7.25L77.50 7.25Q75.25 7.25 73.38 8.44Q71.50 9.63 69.63 11L69.63 11Q69.38 9.75 69.13 8.69Q68.88 7.63 68.75 6.63L68.75 6.63Q68.75 5.50 68.81 4.44Q68.88 3.38 69 2.13L69 2.13Q65.50 3.38 63.06 5.56Q60.63 7.75 59.88 11.63L59.88 11.63L59.25 11.63L57.88 5.13Q57.50 5.50 57.06 5.69Q56.63 5.88 56.25 6.25L56.25 6.25Q54.13 8.13 52.88 10.44Q51.63 12.75 51.38 15.63L51.38 15.63Q51.38 16 51.13 16.44Q50.88 16.88 50.75 17L50.75 17Q50.38 17 49.94 16.81Q49.50 16.63 49.25 16.38L49.25 16.38Q48.63 15.75 48.19 15.19Q47.75 14.63 47.13 14L47.13 14Q43.88 10.63 40 8.63Q36.13 6.63 31.25 6.88L31.25 6.88Q27.50 7.13 24.44 8.56Q21.38 10 19.25 13.13L19.25 13.13Q21.13 13.75 22.88 14.31Q24.63 14.88 26.38 15.75L26.38 15.75Q28.38 16.88 29 18.44Q29.63 20 29.38 22.25L29.38 22.25Q29.25 23.50 28.69 23.94Q28.13 24.38 27 24.50L27 24.50Q23.25 25.13 21.63 27.75Q20 30.38 21.13 34L21.13 34Q21.38 34.75 21.63 35.50Q21.88 36.25 22.38 36.88L22.38 36.88Q24.13 38.88 24.13 41.25Q24.13 43.63 23.88 46L23.88 46Q23.75 47.13 23.25 47.94Q22.75 48.75 21.75 49.50L21.75 49.50Q18 52.38 17.94 56.13Q17.88 59.88 21.63 62.88L21.63 62.88Q23.13 64.13 24.88 65.13Q26.63 66.13 28.38 67L28.38 67Q30.75 68.25 31.75 70.19Q32.75 72.13 32.75 74.75L32.75 74.75Q32.75 76.75 32.69 78.81Q32.63 80.88 32.50 83L32.50 83Q32.38 84.50 32.19 85.94Q32 87.38 31.88 88.88L31.88 88.88L31.38 89Q30.50 87.88 29.56 86.75Q28.63 85.63 27.88 84.25L27.88 84.25Q27.25 83 26.75 81.69Q26.25 80.38 25.75 79L25.75 79Q23 81.25 21.63 85.38L21.63 85.38Q20.25 89.38 20.63 93.75Q21 98.13 23.25 102L23.25 102Q25.50 106 30 108L30 108Q31.25 108.63 32.06 109.44Q32.88 110.25 33.63 111.38L33.63 111.38Q36 115.38 39.50 117.75Q43 120.13 47.50 121L47.50 121Q48 121 48.50 121.25Q49 121.50 49.38 121.75L49.38 121.75Q55.50 125.88 64 125.88Q72.50 125.88 78.50 121.75L78.50 121.75Q78.88 121.50 79.31 121.31Q79.75 121.13 80.13 121L80.13 121Q85.25 120.25 88.94 117.44Q92.63 114.63 95.13 110.13L95.13 110.13Q95.38 109.75 95.75 109.38Q96.13 109 96.50 108.75L96.50 108.75Q101.75 106.63 104.38 102.63Q107 98.63 107.38 93.13L107.38 93.13Q107.63 89 106.44 85.38Q105.25 81.75 102.13 78.75L102.13 78.75Q101.50 81.88 100 84.38Q98.50 86.88 95.88 88.88L95.88 88.88Q95.75 85 95.56 81.19Q95.38 77.38 95.38 73.50L95.38 73.50Q95.38 71.38 96.44 69.81Q97.50 68.25 99.38 67.25L99.38 67.25ZM32.13 15.75L32.13 15.75Q34.50 15.75 36.88 17.88Q39.25 20 39.13 22.25L39.13 22.25Q39 23 38.13 23.94Q37.25 24.88 36.50 25.13L36.50 25.13Q35.75 25.38 34.69 24.94Q33.63 24.50 33.38 23.25L33.38 23.25Q33.25 22.63 33.19 22Q33.13 21.38 33 20.75L33 20.75Q32.75 19.50 32.56 18.31Q32.38 17.13 32.13 15.75ZM39.25 102.88L39.88 107.13Q38.63 106.88 37.38 106.69Q36.13 106.50 34.88 106.25L34.88 106.25Q29.75 104.75 26.94 101.19Q24.13 97.63 24 92.25L24 92.25Q24 90.75 24.31 89.25Q24.63 87.75 24.75 86.13L24.75 86.13Q24.75 86.13 24.88 86.13Q25 86.13 25.13 86.13L25.13 86.13Q25.13 86.13 25.19 86.25Q25.25 86.38 25.25 86.50L25.25 86.50Q27.88 92 32.50 94Q37.13 96 42.63 96.63L42.63 96.63L39.25 102.88ZM39 51.88L39 51.88L39 47.25Q41.25 48.88 44.06 50.69Q46.88 52.50 48.88 54.75L48.88 54.75Q49 55 49.19 55.19Q49.38 55.38 49.63 55.63L49.63 55.63Q49.63 55.75 49.75 55.94Q49.88 56.13 49.88 56.25L49.88 56.25Q47.25 58.25 43.13 57.06Q39 55.88 39 51.88L39 51.88ZM58.38 106.13L58.38 106.13Q57.88 106.88 57.31 107.69Q56.75 108.50 56.13 109.25L56.13 109.25Q54.75 111 52.94 111.13Q51.13 111.25 49.50 109.75L49.50 109.75Q48.88 109.25 48.38 108.69Q47.88 108.13 47.38 107.63L47.38 107.63L47.38 107.63L47 107.25Q46.38 104.38 46.88 103.81Q47.38 103.25 50.50 103.25L50.50 103.25Q52 103.25 53.44 103.19Q54.88 103.13 56.38 103.25L56.38 103.25Q58 103.25 58.44 103.88Q58.88 104.50 58.38 106.13L58.38 106.13ZM81 106.88L81 106.88L80.50 107.63L80.63 107.63L80.50 107.63L80.50 107.63Q80.13 108.13 79.75 108.56Q79.38 109 79 109.38L79 109.38Q77.13 111.25 75.13 111.13Q73.13 111 71.63 108.88L71.63 108.88Q71 108.25 70.56 107.50Q70.13 106.75 69.63 106.13L69.63 106.13Q69.13 104.50 69.56 103.88Q70 103.25 71.63 103.25L71.63 103.25Q73.38 103.13 75.06 103.19Q76.75 103.25 78.50 103.25L78.50 103.25Q80.88 103.25 81.31 104Q81.75 104.75 81 106.88L81 106.88ZM78 56.13L78 56.13L79.13 54.88Q81.13 52.50 83.56 50.75Q86 49 89 47.25L89 47.25L89 51.88Q89 55.75 84.88 57Q80.75 58.25 78 56.13ZM102.50 87L102.50 87L102.88 85.88Q104.13 89.63 104 93.25Q103.88 96.88 101.75 100.25L101.75 100.25Q99.38 103.75 95.88 105.25Q92.38 106.75 88.25 107L88.25 107L88.75 102.88L85.38 96.63Q90.63 96 95.25 94.19Q99.88 92.38 102.50 87L102.50 87ZM94.75 22.63L94.75 22.63Q94.50 23.50 94.19 24.06Q93.88 24.63 92.88 25L92.88 25Q91.38 25.50 90.63 24.75Q89.88 24 89.25 23.25L89.25 23.25Q89 22.88 89.06 22.13Q89.13 21.38 89.38 20.75L89.38 20.75Q90.13 19 91.31 17.69Q92.50 16.38 94.50 15.88L94.50 15.88Q94.88 15.88 95.25 15.81Q95.63 15.75 95.88 15.75L95.88 15.75Q95.50 17.63 95.25 19.31Q95 21 94.75 22.63Z"/></svg>