<svg xmlns="http://www.w3.org/2000/svg" xmlns:xlink="http://www.w3.org/1999/xlink" width="128" height="128"><path fill="#ffffff" d="M64.13 1.38L64.25 1.25Q51.25 1.25 39.88 6.25L39.88 6.25Q28.38 11.13 19.88 19.69Q11.38 28.25 6.50 39.75L6.50 39.75Q1.50 51.13 1.50 64.25L1.50 64.25L1.50 64.25L1.50 112.88L1.50 112.88Q1.50 118.88 5.69 123.06Q9.88 127.25 15.75 127.25L15.75 127.25L64.25 127.25Q77.25 127.25 88.63 122.25L88.63 122.25Q100 117.25 108.50 108.75Q117 100.25 122 88.75L122 88.75Q126.88 77.25 126.88 64.25L126.88 64.25Q126.88 51.25 122 39.75L122 39.75Q117 28.25 108.50 19.75Q100 11.25 88.63 6.25L88.63 6.25Q77.13 1.38 64.13 1.38L64.13 1.38ZM77 27.13L77 27.13Q84.88 27.13 91.13 32.63Q97.38 38.13 97.38 46.50L97.38 46.50Q97.38 47.25 97.38 48Q97.38 48.75 97.25 49.75L97.25 49.75Q97 51.88 95.25 53.31Q93.50 54.75 91.38 54.38L91.38 54.38Q89.13 54 87.81 52.19Q86.50 50.38 86.88 48.25L86.88 48.25Q87 48 87 47.56Q87 47.13 87 46.50L87 46.50Q87 41.75 83.81 39.69Q80.63 37.63 77 37.63L77 37.63Q73.25 37.63 70.50 40.31Q67.75 43 67.63 46.50L67.63 46.50Q67.75 50.50 67.69 54.50Q67.63 58.50 67.63 62.50L67.63 62.50L76.75 62.50Q82 62.38 82.06 67.69Q82.13 73 76.88 73L76.88 73L67.75 73Q67.63 76.25 67.69 76.69Q67.75 77.13 67.75 78.75L67.75 78.75Q67.75 78.75 67.75 81.94Q67.75 85.13 67.63 88.13L67.63 88.13Q66.75 97 60.13 103.19Q53.50 109.38 44.50 109.38L44.50 109.38Q35 109.38 28.13 102.50Q21.25 95.63 21.25 86L21.25 86Q21.50 76.13 28.44 69.31Q35.38 62.50 45.38 62.63L45.38 62.63L52.63 62.50L52.63 73L45.25 73.13Q39.88 73.25 35.81 76.69Q31.75 80.13 31.75 86L31.75 86Q31.75 86 31.75 86Q31.75 86 31.75 86.13L31.75 86.13Q31.75 91.38 35.44 95.13Q39.13 98.88 44.50 98.88L44.50 98.88Q44.50 98.88 44.50 98.88Q44.50 98.88 44.50 98.88L44.50 98.88L44.50 98.88Q49.88 98.88 53.56 95.31Q57.25 91.75 57.25 86L57.25 86L57.25 46.38Q57.25 45.88 57.25 45.38Q57.25 44.88 57.38 44.25L57.38 44.25Q58.25 37 63.94 32.06Q69.63 27.13 77 27.13L77 27.13Z"/></svg>