<svg xmlns="http://www.w3.org/2000/svg" xmlns:xlink="http://www.w3.org/1999/xlink" width="128" height="128"><path fill="#ffffff" d="M115.13 28.38L115.13 28.38L66.88 0.63Q66.13 0.13 65.06-0.06Q64-0.25 63-0.25L63-0.25Q62-0.25 60.94-0.06Q59.88 0.13 59.13 0.63L59.13 0.63L10.88 28.38Q9.25 29.38 8.13 31.31Q7 33.25 7 35.13L7 35.13L7 90.75Q7 92.63 8.13 94.63Q9.25 96.63 10.88 97.50L10.88 97.50L59.13 125.38Q59.88 125.88 60.94 126.06Q62 126.25 63 126.25L63 126.25Q64 126.25 65.06 126.06Q66.13 125.88 66.88 125.38L66.88 125.38L115.13 97.50Q116.63 96.63 117.81 94.63Q119 92.63 119 90.75L119 90.75L119 35.13Q119 33.25 117.88 31.31Q116.75 29.38 115.13 28.38L115.13 28.38ZM116 35.13L116 90.88Q116 92 115.25 93.25Q114.50 94.50 113.63 95L113.63 95L65.38 122.88Q65 123.13 64.31 123.25Q63.63 123.38 63 123.38L63 123.38Q62.38 123.38 61.69 123.25Q61 123.13 60.63 122.88L60.63 122.88L12.38 95Q11.50 94.50 10.75 93.25Q10 92 10 90.88L10 90.88L10 35.13Q10 34 10.75 32.75Q11.50 31.50 12.38 31L12.38 31L60.63 3.25Q61 3 61.69 2.88Q62.38 2.75 63 2.75L63 2.75Q63.63 2.75 64.31 2.88Q65 3 65.38 3.25L65.38 3.25L113.63 31Q114.50 31.50 115.25 32.75Q116 34 116 35.13L116 35.13ZM67 60.75L67 60.75Q66.38 59.75 65.44 59Q64.50 58.25 63.25 58.25L63.25 58.25L63 58Q61.25 58 59.88 59.38Q58.50 60.75 58.38 62.50L58.38 62.50Q58.38 63.13 58.50 63.88Q58.63 64.63 59 65.25L59 65.25Q59.63 66.13 60.56 66.75Q61.50 67.38 62.75 67.50L62.75 67.50L63 67.50Q64.75 67.50 66.13 66.25Q67.50 65 67.63 63.25L67.63 63.25Q67.63 62.63 67.44 61.94Q67.25 61.25 67 60.75ZM63 67.25L63 67.25L62.75 67.25Q61.63 67.25 60.69 66.69Q59.75 66.13 59.25 65.25L59.25 65.25Q58.88 64.63 58.75 64.13Q58.63 63.63 58.63 62.88L58.63 62.88Q58.75 61.13 59.94 60.06Q61.13 59 62.88 59L62.88 59L63.25 58.75Q64.25 58.88 65.19 59.38Q66.13 59.88 66.75 60.88L66.75 60.88Q67 61.38 67.13 62.06Q67.25 62.75 67.25 63.25L67.25 63.25Q67.25 65 66 66.13Q64.75 67.25 63 67.25L63 67.25ZM64.50 63L64.50 63Q64.50 63.63 64.06 64.06Q63.63 64.50 63 64.50L63 64.50Q62.38 64.50 61.94 64.06Q61.50 63.63 61.50 63L61.50 63Q61.50 62.38 61.94 61.94Q62.38 61.50 63 61.50L63 61.50Q63.63 61.50 64.06 61.94Q64.50 62.38 64.50 63ZM63 69L63 69L62.63 69Q61.13 68.88 59.81 68.13Q58.50 67.38 57.75 66L57.75 66Q57.25 65.13 57.06 64.31Q56.88 63.50 56.88 62.50L56.88 62.50Q57 61.50 57.44 60.50Q57.88 59.50 58.50 58.75L58.50 58.75L19 88.88L64.38 68.88L64.38 68.75Q64 69 63.69 69Q63.38 69 63 69L63 69ZM61.50 57.13L61.50 57.13Q62 57 62.44 56.94Q62.88 56.88 63.38 56.88L63.38 56.88Q64.88 57 66.19 57.81Q67.50 58.63 68.25 59.88L68.25 59.88Q68.75 60.75 68.94 61.63Q69.13 62.50 69.13 63.38L69.13 63.38Q69 64.50 68.56 65.50Q68.13 66.50 67.38 67.25L67.38 67.25L107.25 37.75L61.50 57.13Z"/></svg>