<svg xmlns="http://www.w3.org/2000/svg" xmlns:xlink="http://www.w3.org/1999/xlink" width="128" height="128"><path fill="#000000" d="M69.75 61.75L69.75 61.75Q69.13 60.88 68.25 60.31Q67.38 59.75 66.25 59.75L66.25 59.75L65.88 59.75Q64.13 59.75 62.94 60.88Q61.75 62 61.63 63.75L61.63 63.75Q61.50 64.38 61.69 65Q61.88 65.63 62.25 66.25L62.25 66.25Q62.75 67.13 63.69 67.69Q64.63 68.25 65.75 68.25L65.75 68.25L66 68.25Q67.75 68.25 69 67.13Q70.25 66 70.25 64.25L70.25 64.25Q70.38 63.63 70.25 63Q70.13 62.38 69.75 61.75L69.75 61.75ZM65.88 65.50L65.88 65.50Q65.25 65.38 64.81 64.94Q64.38 64.50 64.50 63.88L64.50 63.88Q64.63 63.25 65.06 62.81Q65.50 62.38 66.13 62.50L66.13 62.50Q66.75 62.63 67.19 63.06Q67.63 63.50 67.50 64.13L67.50 64.13Q67.50 64.75 67 65.19Q66.50 65.63 65.88 65.50ZM118.13 29.38L118.13 29.38L69.88 1.63Q68.38 0.75 66.06 0.75Q63.75 0.75 62.25 1.63L62.25 1.63L13.88 29.38Q12.38 30.25 11.19 32.25Q10 34.25 10 36.13L10 36.13L10 91.75Q10 93.63 11.13 95.63Q12.25 97.63 13.88 98.50L13.88 98.50L62.13 126.38Q63.63 127.25 65.94 127.25Q68.25 127.25 69.75 126.38L69.75 126.38L118 98.50Q119.63 97.63 120.75 95.63Q121.88 93.63 121.88 91.75L121.88 91.75L121.88 36.13Q122 34.25 120.81 32.31Q119.63 30.38 118.13 29.38L118.13 29.38ZM67.25 69.88L22 89.88L61.50 59.75L61.50 59.88Q60.88 60.63 60.44 61.56Q60 62.50 59.88 63.63L59.88 63.63Q59.88 64.50 60.06 65.38Q60.25 66.25 60.75 67.13L60.75 67.13Q61.50 68.50 62.75 69.25Q64 70 65.63 70.13L65.63 70.13L66 70.13Q66.38 70.13 66.69 70.06Q67 70 67.25 69.88L67.25 69.88ZM66 68.63L66 68.63L65.75 68.63Q64.63 68.50 63.63 67.94Q62.63 67.38 62 66.25L62 66.25Q61.63 65.75 61.50 65.06Q61.38 64.38 61.38 63.75L61.38 63.75Q61.50 61.88 62.88 60.63Q64.25 59.38 66 59.38L66 59.38L66.25 59.38Q67.38 59.50 68.38 60.13Q69.38 60.75 70 61.75L70 61.75Q70.38 62.25 70.50 62.94Q70.63 63.63 70.63 64.25L70.63 64.25Q70.50 66.13 69.13 67.38Q67.75 68.63 66 68.63ZM70.38 68.25L70.38 68.25Q71.13 67.50 71.56 66.50Q72 65.50 72.13 64.38L72.13 64.38Q72.13 63.50 71.94 62.63Q71.75 61.75 71.25 60.88L71.25 60.88Q70.50 59.50 69.19 58.75Q67.88 58 66.38 57.88L66.38 57.88Q66 57.88 65.50 57.94Q65 58 64.50 58.13L64.50 58.13L110.25 38.75L70.38 68.25Z"/></svg>