<svg xmlns="http://www.w3.org/2000/svg" xmlns:xlink="http://www.w3.org/1999/xlink" width="128" height="128"><path fill="#ffffff" d="M61 52.88L61 52.88Q61.50 53.63 62.19 54.06Q62.88 54.50 63.75 54.63L63.75 54.63L63.88 54.63Q65.25 54.63 66.25 53.69Q67.25 52.75 67.25 51.38L67.25 51.38Q67.25 50.88 67.19 50.38Q67.13 49.88 66.75 49.50L66.75 49.50Q66.38 48.75 65.63 48.38Q64.88 48 64.13 47.88L64.13 47.88Q64 47.88 63.94 47.94Q63.88 48 63.88 48L63.88 48Q62.50 48 61.56 48.88Q60.63 49.75 60.50 51.13L60.50 51.13Q60.50 51.63 60.63 52.06Q60.75 52.50 61 52.88L61 52.88ZM64.13 50L64.13 50Q64.63 50 64.94 50.38Q65.25 50.75 65.25 51.25L65.25 51.25Q65.25 51.88 64.81 52.19Q64.38 52.50 63.88 52.38L63.88 52.38Q63.38 52.38 63.06 52Q62.75 51.63 62.75 51.13L62.75 51.13Q62.75 50.63 63.19 50.25Q63.63 49.88 64.13 50ZM22.88 78.50L22.88 78.50L61 100.63Q62.25 101.38 64.06 101.38Q65.88 101.38 67.13 100.63L67.13 100.63L105.13 78.50Q106.38 77.75 107.19 76.19Q108 74.63 108 73.25L108 73.25L108 29.13Q108 27.63 107.19 26.06Q106.38 24.50 105.13 23.75L105.13 23.75L67 1.75Q65.75 1 63.94 1Q62.13 1 60.88 1.75L60.88 1.75L22.88 23.88Q21.63 24.63 20.81 26.19Q20 27.75 20 29.25L20 29.25L20 73.25Q20 74.75 20.81 76.31Q21.63 77.88 22.88 78.50L22.88 78.50ZM62.75 46.50L99.13 31.25L67.50 54.50Q68.13 53.88 68.44 53.13Q68.75 52.38 68.75 51.50L68.75 51.50Q68.88 50.75 68.69 50.06Q68.50 49.38 68.25 48.75L68.25 48.75Q67.63 47.75 66.56 47.13Q65.50 46.50 64.25 46.38L64.25 46.38Q63.88 46.38 63.50 46.38Q63.13 46.38 62.75 46.50L62.75 46.50ZM64 48L64 48L64.25 47.75Q65.25 47.88 66 48.25Q66.75 48.63 67.25 49.50L67.25 49.50Q67.50 50 67.63 50.50Q67.75 51 67.75 51.50L67.75 51.50Q67.63 52.88 66.56 53.88Q65.50 54.88 64.13 54.88L64.13 54.88L63.88 54.88Q63 54.88 62.25 54.38Q61.50 53.88 61 53.13L61 53.13Q60.75 52.63 60.63 52.25Q60.50 51.88 60.50 51.25L60.50 51.25Q60.50 49.75 61.56 48.88Q62.63 48 64 48ZM60.38 47.88L60.38 47.88Q59.88 48.50 59.50 49.25Q59.13 50 59.13 50.88L59.13 50.88Q59 51.63 59.19 52.31Q59.38 53 59.75 53.63L59.75 53.63Q60.25 54.63 61.31 55.25Q62.38 55.88 63.63 56L63.63 56L63.88 56Q64.25 56 64.44 56Q64.63 56 64.88 55.88L64.88 55.88L28.88 71.75L60.38 47.88ZM8.50 108.75L8.50 108.75Q7.63 108.75 7.06 108.94Q6.50 109.13 6 109.50L6 109.50Q5.75 109.75 5.31 110.13Q4.88 110.50 4.88 110.88L4.88 110.88L4.88 109L1 109L1 122L5 122L5 114.88Q5 114.25 5 113.81Q5 113.38 5.25 112.88L5.25 112.88Q5.50 112.13 6.06 111.81Q6.63 111.50 7.50 111.50L7.50 111.50Q8.13 111.50 8.69 111.75Q9.25 112 9.50 112.50L9.50 112.50Q9.63 112.75 9.75 113.19Q9.88 113.63 9.88 114.13L9.88 114.13L9.88 122L12.88 122L12.88 113.25Q12.88 112 12.56 111.13Q12.25 110.25 11.75 109.75L11.75 109.75Q11.13 109.13 10.31 108.94Q9.50 108.75 8.50 108.75ZM21.88 108.63L21.88 108.63Q20.25 108.63 19 109.13Q17.75 109.63 17 110.63L17 110.63Q16.13 111.63 15.75 112.81Q15.38 114 15.38 115.38L15.38 115.38Q15.38 116.88 15.75 118.06Q16.13 119.25 17 120.25L17 120.25Q17.88 121.13 19.06 121.69Q20.25 122.25 21.88 122.25L21.88 122.25Q23.50 122.25 24.75 121.69Q26 121.13 26.75 120.25L26.75 120.25Q27.63 119.25 28 118.06Q28.38 116.88 28.38 115.38L28.38 115.38Q28.38 114 28 112.81Q27.63 111.63 26.75 110.63L26.75 110.63Q26 109.63 24.75 109.13Q23.50 108.63 21.88 108.63ZM24.25 118.38L24.25 118.38Q23.88 118.88 23.25 119.13Q22.63 119.38 21.88 119.38L21.88 119.38Q21.13 119.38 20.56 119.13Q20 118.88 19.63 118.38L19.63 118.38Q19.13 117.88 18.94 117.13Q18.75 116.38 18.75 115.38L18.75 115.38Q18.75 114.38 19 113.63Q19.25 112.88 19.63 112.38L19.63 112.38Q20 111.88 20.56 111.63Q21.13 111.38 21.88 111.38L21.88 111.38Q22.63 111.38 23.19 111.63Q23.75 111.88 24.25 112.38L24.25 112.38Q24.63 112.88 24.81 113.63Q25 114.38 25 115.38L25 115.38Q25 116.38 24.81 117.19Q24.63 118 24.25 118.38ZM39 105.13L39 110.75Q39 110.25 38.50 109.88Q38 109.50 37.63 109.25L37.63 109.25Q37.13 109.13 36.63 108.94Q36.13 108.75 35.63 108.75L35.63 108.75Q34.38 108.75 33.38 109.25Q32.38 109.75 31.63 110.75L31.63 110.75Q30.88 111.63 30.50 112.94Q30.13 114.25 30.13 115.88L30.13 115.88Q30.13 117.38 30.50 118.56Q30.88 119.75 31.63 120.63L31.63 120.63Q32.38 121.50 33.31 121.94Q34.25 122.38 35.38 122.38L35.38 122.38Q36.13 122.38 36.56 122.25Q37 122.13 37.50 121.88L37.50 121.88Q38 121.63 38.50 121.19Q39 120.75 39 120.25L39 120.25L39 122.13L43 122.13L43 105.13L39 105.13ZM38.50 118.38L38.50 118.38Q38.13 118.88 37.56 119.19Q37 119.50 36.25 119.50L36.25 119.50Q35.50 119.50 35 119.19Q34.50 118.88 34.25 118.38L34.25 118.38Q33.88 117.88 33.69 117.13Q33.50 116.38 33.50 115.63L33.50 115.63Q33.50 114.75 33.69 114.06Q33.88 113.38 34.25 112.75L34.25 112.75Q34.63 112.25 35.13 112Q35.63 111.75 36.38 111.75L36.38 111.75Q36.88 111.75 37.31 111.88Q37.75 112 38.13 112.25L38.13 112.25Q38.75 112.88 39 113.69Q39.25 114.50 39.25 115.75L39.25 115.75Q39.25 116.50 39.06 117.19Q38.88 117.88 38.50 118.38L38.50 118.38ZM56.25 111.25L56.25 111.25Q55.75 110.50 55.19 110.06Q54.63 109.63 54 109.25L54 109.25Q53.38 109 52.63 108.88Q51.88 108.75 51 108.75L51 108.75Q49.63 108.75 48.44 109.19Q47.25 109.63 46.38 110.50L46.38 110.50Q45.50 111.38 45.06 112.69Q44.63 114 44.63 115.63L44.63 115.63Q44.63 117.38 45.13 118.69Q45.63 120 46.63 120.75L46.63 120.75Q47.63 121.50 48.75 121.88Q49.88 122.25 51.13 122.25L51.13 122.25Q52.63 122.25 53.88 121.75Q55.13 121.25 55.88 120.38L55.88 120.38Q56.38 119.75 56.75 119.25Q57.13 118.75 57.13 118L57.13 118L53.75 118Q53.50 118 53.38 118.38Q53.25 118.75 53 118.88L53 118.88Q52.63 119.25 52.19 119.38Q51.75 119.50 51.13 119.50L51.13 119.50Q50.63 119.50 50.13 119.31Q49.63 119.13 49.25 118.75L49.25 118.75Q48.63 118.38 48.25 117.88Q47.88 117.38 47.88 115.88L47.88 115.88L57.25 115.88Q57.25 115.13 57.19 114.56Q57.13 114 57.13 113.63L57.13 113.63Q57.13 112.88 56.88 112.31Q56.63 111.75 56.25 111.25L56.25 111.25ZM48.13 114L48.13 114Q48.13 113.25 48.38 112.88Q48.63 112.50 49 112.13L49 112.13Q49.38 111.75 49.88 111.56Q50.38 111.38 51 111.38L51 111.38Q51.63 111.38 52.13 111.56Q52.63 111.75 53 112L53 112Q53.38 112.38 53.63 112.81Q53.88 113.25 53.88 114L53.88 114L48.13 114ZM73 109L69.75 119.63L67 109L65.38 109L62.50 119.75L59.25 109L57.75 109L61.63 122L63.38 122L66.13 111L66.25 111L68.88 122L70.50 122L74.50 109L73 109ZM85.75 110.75L85.75 110.75Q85 109.88 84 109.44Q83 109 81.75 109L81.75 109Q81 109 80.44 109.13Q79.88 109.25 79.25 109.50L79.25 109.50Q78.75 109.75 78.31 110.13Q77.88 110.50 77.50 110.88L77.50 110.88Q77.13 111.38 76.81 111.88Q76.50 112.38 76.38 113L76.38 113Q76.13 113.63 76.06 114.25Q76 114.88 76 115.63L76 115.63Q76 116.25 76.06 116.94Q76.13 117.63 76.25 118.25L76.25 118.25Q76.50 118.75 76.75 119.31Q77 119.88 77.25 120.25L77.25 120.25Q77.63 120.75 78.13 121.06Q78.63 121.38 79.13 121.75L79.13 121.75Q79.63 121.88 80.31 122.06Q81 122.25 81.75 122.25L81.75 122.25Q82.25 122.25 82.81 122.13Q83.38 122 83.75 121.88L83.75 121.88Q84.25 121.75 84.63 121.50Q85 121.25 85.25 121L85.25 121Q85.63 120.75 85.88 120.44Q86.13 120.13 86.38 119.75L86.38 119.75Q86.63 119.38 86.81 119.06Q87 118.75 87.13 118L87.13 118L85.50 118Q85.38 118.75 85 119.25Q84.63 119.75 84.13 120.13L84.13 120.13Q83.63 120.50 83 120.69Q82.38 120.88 81.75 120.88L81.75 120.88Q81.13 120.88 80.69 120.81Q80.25 120.75 79.88 120.50L79.88 120.50Q79.50 120.25 79.19 120Q78.88 119.75 78.63 119.38L78.63 119.38Q78.38 119.13 78.19 118.75Q78 118.38 77.75 117.88L77.75 117.88Q77.63 117.50 77.56 117.13Q77.50 116.75 77.50 116L77.50 116L87.25 116Q87.25 114.50 86.88 113.13Q86.50 111.75 85.75 110.75L85.75 110.75ZM77.50 114.75L77.50 115Q77.63 114.25 77.69 113.94Q77.75 113.63 77.88 113.25L77.88 113.25Q78 112.88 78.25 112.44Q78.50 112 78.75 111.75L78.75 111.75Q78.88 111.38 79.25 111.13Q79.63 110.88 80 110.75L80 110.75Q80.38 110.50 80.81 110.38Q81.25 110.25 81.75 110.25L81.75 110.25Q82.13 110.25 82.56 110.38Q83 110.50 83.38 110.63L83.38 110.63Q83.75 110.75 84.06 111Q84.38 111.25 84.63 111.50L84.63 111.50Q84.88 111.75 85.06 112.19Q85.25 112.63 85.25 113L85.25 113Q85.50 113.38 85.56 113.69Q85.63 114 85.63 114.75L85.63 114.75L77.50 114.75ZM100.25 111L100.25 111Q99.88 110.50 99.50 110.19Q99.13 109.88 98.63 109.63L98.63 109.63Q98.13 109.25 97.50 109.19Q96.88 109.13 96.13 109.13L96.13 109.13Q95.38 109.13 94.88 109.25Q94.38 109.38 93.75 109.75L93.75 109.75Q93.13 110 92.56 110.44Q92 110.88 92 111.38L92 111.38L92 105L90 105L90 122L92 122L92 120L91.75 120Q91.88 120 92.06 120.31Q92.25 120.63 92.50 120.88L92.50 120.88Q92.75 121.13 93 121.31Q93.25 121.50 93.63 121.63L93.63 121.63Q93.88 121.75 94.19 121.81Q94.50 121.88 94.75 122L94.75 122Q95.13 122.13 95.44 122.13Q95.75 122.13 96 122.13L96 122.13Q96.75 122.13 97.44 122Q98.13 121.88 98.63 121.63L98.63 121.63Q99.13 121.38 99.56 121Q100 120.63 100.25 120.25L100.25 120.25Q100.63 119.75 100.88 119.25Q101.13 118.75 101.25 118.13L101.25 118.13Q101.50 117.50 101.56 116.81Q101.63 116.13 101.63 115.50L101.63 115.50Q101.63 114.88 101.56 114.25Q101.50 113.63 101.25 113L101.25 113Q101.13 112.50 100.88 112Q100.63 111.50 100.25 111L100.25 111ZM99.75 118.13L99.75 118.13Q99.63 118.50 99.44 118.88Q99.25 119.25 98.88 119.63L98.88 119.63Q98.63 119.88 98.31 120.13Q98 120.38 97.50 120.63L97.50 120.63Q97.13 120.75 96.69 120.81Q96.25 120.88 95.75 120.88L95.75 120.88Q95.25 120.88 94.81 120.81Q94.38 120.75 94 120.50L94 120.50Q93.63 120.25 93.25 120Q92.88 119.75 92.75 119.38L92.75 119.38Q92.38 119 92.19 118.63Q92 118.25 91.88 117.75L91.88 117.75Q91.75 117.13 91.69 116.63Q91.63 116.13 91.63 115.63L91.63 115.63Q91.63 115.13 91.69 114.56Q91.75 114 91.88 113.63L91.88 113.63Q92 113.13 92.25 112.69Q92.50 112.25 92.75 111.88L92.75 111.88Q93 111.50 93.31 111.25Q93.63 111 94 110.75L94 110.75Q94.38 110.63 94.81 110.50Q95.25 110.38 95.75 110.38L95.75 110.38Q96.38 110.38 96.88 110.50Q97.38 110.63 97.75 110.75L97.75 110.75Q98.13 111 98.44 111.31Q98.75 111.63 99.13 112L99.13 112Q99.38 112.38 99.56 112.81Q99.75 113.25 99.88 113.75L99.88 113.75Q100 114.38 100.06 114.88Q100.13 115.38 100.13 116L100.13 116Q100.13 116.63 100.06 117.13Q100 117.63 99.75 118.13ZM109.50 113.75L114.25 109L112.25 109L106 115.25L106 105L105 105L105 122L106 122L106 117.13L108.38 115L113.13 122L114.75 122L109.50 113.75ZM117 122L117 109L118 109L118 122L117 122ZM117 107L117 105L119 105L119 107L117 107ZM126.25 120.88L126.25 120.88L125.50 120.88Q125.25 120.88 125.06 120.88Q124.88 120.88 124.75 120.75L124.75 120.75Q124.50 120.75 124.44 120.69Q124.38 120.63 124.25 120.50L124.25 120.50Q124.25 120.38 124.19 120.25Q124.13 120.13 124.13 119.88L124.13 119.88Q124.13 119.75 124.06 119.56Q124 119.38 124 119.13L124 119.13L124 111L126 111L126 109L124 109L124 106L123 106L123 109L121 109L121 111L123 111L123 119.75Q123 120.38 123.06 120.88Q123.13 121.38 123.38 121.63L123.38 121.63Q123.75 121.88 124.06 122Q124.38 122.13 125 122.13L125 122.13Q125.25 122.13 125.63 122.13Q126 122.13 126.13 122L126.13 122Q126.38 121.88 126.31 121.88Q126.25 121.88 127 121.75L127 121.75L127 120.63Q126.25 120.75 126.31 120.81Q126.38 120.88 126.25 120.88L126.25 120.88Z"/></svg>