<svg xmlns="http://www.w3.org/2000/svg" xmlns:xlink="http://www.w3.org/1999/xlink" width="128" height="128"><path fill="#ffffff" d="M43 72.13L43 72.13L39.75 59.50L41.50 59.50L43 65.88Q43.25 67.13 43.50 68.25Q43.75 69.38 44 70.25L44 70.25L44 70.25Q44.13 69.38 44.38 68.25Q44.63 67.13 45 65.88L45 65.88L46.63 59.50L48.38 59.50L50 65.88Q50.25 67 50.50 68.13Q50.75 69.25 50.88 70.25L50.88 70.25L50.88 70.25Q51.13 69.25 51.38 68.19Q51.63 67.13 51.88 65.88L51.88 65.88L53.63 59.50L55.25 59.50L51.63 72.13L50 72.13L48.38 65.50Q48.13 64.75 47.94 63.69Q47.75 62.63 47.63 61.63L47.63 61.63L47.50 61.38Q47.38 62.63 47.06 63.69Q46.75 64.75 46.50 65.88L46.50 65.88L44.75 72.13L43 72.13ZM57.13 67.88L57.13 67.88Q57.13 68 57.13 68.06Q57.13 68.13 57.13 68.13L57.13 68.13Q57.13 69.38 58 70.25Q58.88 71.13 60 71.13L60 71.13Q60.13 71.13 60.19 71.13Q60.25 71.13 60.25 71.13L60.25 71.13Q60.25 71.13 60.31 71.13Q60.38 71.13 60.50 71.13L60.50 71.13Q61.13 71.13 61.69 71Q62.25 70.88 62.88 70.63L62.88 70.63L63.13 71.75Q62.50 72.13 61.75 72.25Q61 72.38 60.25 72.38L60.25 72.38Q60.13 72.38 60.13 72.38Q60.13 72.38 60 72.38L60 72.38Q60 72.38 59.94 72.38Q59.88 72.38 59.75 72.38L59.75 72.38Q58 72.38 56.75 71.13Q55.50 69.88 55.50 68.13L55.50 68.13Q55.50 68 55.56 67.94Q55.63 67.88 55.63 67.75L55.63 67.75Q55.63 65.75 56.75 64.31Q57.88 62.88 59.88 62.88L59.88 62.88Q62.13 62.88 62.88 64.38Q63.63 65.88 63.63 67.13L63.63 67.13Q63.63 67.38 63.63 67.56Q63.63 67.75 63.63 68L63.63 68L57.13 67.88ZM57.13 66.75L62 66.75Q62 66.63 62 66.56Q62 66.50 62 66.38L62 66.38Q62 65.38 61.31 64.69Q60.63 64 59.75 64L59.75 64Q58.63 64.13 57.88 64.88Q57.13 65.63 57.13 66.75L57.13 66.75ZM65.63 72.13L65.63 72.13Q65.63 71.75 65.63 71.06Q65.63 70.38 65.63 69.88L65.63 69.88L65.63 58.75L67.25 58.75L67.25 64.50Q67.75 63.75 68.50 63.31Q69.25 62.88 70.25 62.88L70.25 62.88Q70.25 62.88 70.31 62.88Q70.38 62.88 70.38 62.88L70.38 62.88Q72.13 62.88 73.19 64.13Q74.25 65.38 74.25 67.50L74.25 67.50Q74.25 70 73 71.19Q71.75 72.38 70.13 72.38L70.13 72.38Q70.13 72.38 70.06 72.38Q70 72.38 70 72.38L70 72.38Q69.13 72.38 68.31 71.94Q67.50 71.50 67.13 70.63L67.13 70.63L67 70.63L67 72.13L65.63 72.13ZM67.25 68.50L67.25 68.50Q67.25 68.63 67.31 68.81Q67.38 69 67.38 69.13L67.38 69.13Q67.63 70 68.31 70.50Q69 71 69.88 71L69.88 71Q71.13 71 71.88 70.06Q72.63 69.13 72.63 67.50L72.63 67.50Q72.63 66.13 71.94 65.13Q71.25 64.13 69.88 64.13L69.88 64.13Q69 64.13 68.31 64.69Q67.63 65.25 67.38 66.13L67.38 66.13Q67.38 66.25 67.38 66.44Q67.38 66.63 67.25 66.88L67.25 66.88L67.25 68.50ZM75.75 71.63L76.38 69.25Q77.13 69.63 77.88 69.81Q78.63 70 79.50 70L79.50 70Q80.50 70 81 69.63Q81.50 69.25 81.50 68.63L81.50 68.63Q81.50 68 81.06 67.63Q80.63 67.25 79.38 66.88L79.38 66.88Q77.88 66.25 76.88 65.38Q75.88 64.50 75.88 63.13L75.88 63.13Q75.88 61.50 77.19 60.38Q78.50 59.25 80.75 59.25L80.75 59.25Q80.75 59.25 80.81 59.25Q80.88 59.25 80.88 59.25L80.88 59.25Q81.75 59.25 82.56 59.44Q83.38 59.63 84 59.88L84 59.88L83.38 62.25Q82.75 61.88 82.06 61.75Q81.38 61.63 80.75 61.63L80.75 61.63Q80.75 61.63 80.75 61.63Q80.75 61.63 80.75 61.63L80.75 61.63Q79.75 61.63 79.31 62Q78.88 62.38 78.88 62.75L78.88 62.75Q78.88 63.38 79.44 63.75Q80 64.13 81.25 64.63L81.25 64.63Q82.88 65.25 83.69 66.13Q84.50 67 84.50 68.38L84.50 68.38Q84.50 70 83.25 71.19Q82 72.38 79.38 72.38L79.38 72.38Q79.38 72.38 79.31 72.38Q79.25 72.38 79.25 72.38L79.25 72.38Q78.25 72.38 77.38 72.19Q76.50 72 75.75 71.63L75.75 71.63ZM86.75 61L89.50 60.25L89.50 63L91.50 63L91.50 65.13L89.50 65.13L89.50 68.38Q89.50 69.25 89.75 69.63Q90 70 90.63 70L90.63 70Q90.88 70 91.06 70Q91.25 70 91.50 70L91.50 70L91.50 72.13Q91.13 72.25 90.69 72.31Q90.25 72.38 89.75 72.38L89.75 72.38Q89.75 72.38 89.69 72.38Q89.63 72.38 89.63 72.38L89.63 72.38Q89.63 72.38 89.56 72.38Q89.50 72.38 89.50 72.38L89.50 72.38Q88.88 72.38 88.38 72.19Q87.88 72 87.50 71.63L87.50 71.63Q87.13 71.13 86.88 70.50Q86.63 69.88 86.63 69.25L86.63 69.25Q86.63 69.13 86.63 69Q86.63 68.88 86.63 68.88L86.63 68.88L86.63 65L85.50 65L85.50 63L86.75 63L86.75 61ZM102.25 67.50L102.25 67.50Q102.25 67.50 102.25 67.56Q102.25 67.63 102.25 67.75L102.25 67.75Q102.25 69.63 100.88 71Q99.50 72.38 97.63 72.38L97.63 72.38Q97.63 72.38 97.50 72.38Q97.38 72.38 97.38 72.38L97.38 72.38Q97.38 72.38 97.31 72.38Q97.25 72.38 97.13 72.38L97.13 72.38Q95.25 72.38 93.94 71.06Q92.63 69.75 92.63 67.88L92.63 67.88Q92.63 67.75 92.63 67.69Q92.63 67.63 92.63 67.63L92.63 67.63Q92.63 67.50 92.63 67.44Q92.63 67.38 92.63 67.38L92.63 67.38Q92.63 65.38 93.94 64.06Q95.25 62.75 97.25 62.75L97.25 62.75Q97.25 62.75 97.38 62.75Q97.50 62.75 97.50 62.75L97.50 62.75Q97.63 62.75 97.69 62.75Q97.75 62.75 97.75 62.75L97.75 62.75Q99.63 62.75 100.94 64.06Q102.25 65.38 102.25 67.25L102.25 67.25Q102.25 67.25 102.25 67.31Q102.25 67.38 102.25 67.50L102.25 67.50ZM95.63 67.50L95.63 67.50Q95.63 68.75 96.06 69.56Q96.50 70.38 97.50 70.38L97.50 70.38Q98.38 70.38 98.81 69.56Q99.25 68.75 99.25 67.50L99.25 67.50Q99.25 66.50 98.81 65.63Q98.38 64.75 97.50 64.75L97.50 64.75Q96.50 64.75 96.06 65.63Q95.63 66.50 95.63 67.50ZM104 72.25L104 66Q104 65 104 64.31Q104 63.63 103.88 63L103.88 63L106.38 63L106.50 64.75L106.63 64.75Q106.88 63.88 107.50 63.38Q108.13 62.88 109 62.75L109 62.75Q109.13 62.75 109.19 62.75Q109.25 62.75 109.38 62.75L109.38 62.75Q109.50 62.75 109.56 62.75Q109.63 62.75 109.63 62.75L109.63 62.75L109.63 65.50Q109.50 65.50 109.31 65.44Q109.13 65.38 108.88 65.38L108.88 65.38Q108.88 65.38 108.81 65.38Q108.75 65.38 108.75 65.38L108.75 65.38Q108 65.38 107.50 65.81Q107 66.25 106.88 66.88L106.88 66.88Q106.88 67 106.88 67.19Q106.88 67.38 106.88 67.50L106.88 67.50Q106.88 67.50 106.88 67.50Q106.88 67.50 106.88 67.50L106.88 67.50L106.88 72.25L104 72.25ZM111.13 65.88L111.25 65.88Q111.25 65 111.25 64.25Q111.25 63.50 111.13 63L111.13 63L113.50 63L113.63 64.25L113.75 64.25Q114.13 63.50 114.88 63.13Q115.63 62.75 116.38 62.75L116.38 62.75Q116.50 62.75 116.50 62.75Q116.50 62.75 116.50 62.75L116.50 62.75Q116.63 62.75 116.63 62.75Q116.63 62.75 116.63 62.75L116.63 62.75Q117.50 62.75 118.13 63.19Q118.75 63.63 119.13 64.25L119.13 64.25L119.13 64.25Q119.25 64 119.56 63.69Q119.88 63.38 120.25 63.25L120.25 63.25Q120.63 63 121.06 62.88Q121.50 62.75 121.88 62.75L121.88 62.75Q122 62.75 122 62.75Q122 62.75 122 62.75L122 62.75Q123.38 62.75 124.25 63.69Q125.13 64.63 125.13 66.75L125.13 66.75L125.13 72.13L122.38 72.13L122.38 67.13Q122.38 66.13 122 65.56Q121.63 65 121 65L121 65Q120.50 65 120.13 65.31Q119.75 65.63 119.63 66L119.63 66Q119.63 66.25 119.56 66.44Q119.50 66.63 119.50 66.75L119.50 66.75Q119.50 66.75 119.50 66.75Q119.50 66.75 119.50 66.75L119.50 66.75L119.50 72.25L116.75 72.25L116.75 67Q116.75 66.13 116.44 65.56Q116.13 65 115.38 65L115.38 65Q115 65 114.63 65.31Q114.25 65.63 114.13 66L114.13 66Q114 66.13 114 66.31Q114 66.50 114 66.63L114 66.63Q114 66.63 114 66.69Q114 66.75 114 66.75L114 66.75L114 72.13L111.13 72.13L111.13 65.88ZM17.88 75.25L18.50 74.50Q18.63 74.25 18.88 74Q19.13 73.75 19.50 73.38L19.50 73.38L19.63 73.25Q19.88 73 20 72.81Q20.13 72.63 20.25 72.50L20.25 72.50Q20.63 72.13 20.94 71.75Q21.25 71.38 21.50 71L21.50 71Q22 70.50 22.25 69.88Q22.50 69.25 22.50 68.63L22.50 68.63Q22.50 68.63 22.50 68.56Q22.50 68.50 22.50 68.50L22.50 68.50Q22.50 68.50 22.50 68.44Q22.50 68.38 22.50 68.38L22.50 68.38Q22.50 68.13 22.38 67.81Q22.25 67.50 22.13 67.25L22.13 67.25Q21.88 66.88 21.63 66.69Q21.38 66.50 21.13 66.25L21.13 66.25Q20.75 65.88 20.44 65.56Q20.13 65.25 19.75 64.88L19.75 64.88Q19.38 64.38 19.13 63.94Q18.88 63.50 18.63 63L18.63 63Q18.38 62.38 18.19 61.81Q18 61.25 17.88 60.63L17.88 60.63L16.38 52.75L12 52.75L9.88 62.63L8 52.75L2.88 52.75L7.50 75.25L11.75 75.25L13.88 65.50L15.88 75.25L17.88 75.25ZM27.50 54.13L27.50 54.13Q27.88 53.75 28.13 53.38Q28.38 53 28.63 52.75L28.63 52.75L21.75 52.75Q21.25 53.38 20.81 53.94Q20.38 54.50 20 55.13L20 55.13Q19.50 56.13 19.13 57.19Q18.75 58.25 18.75 59.38L18.75 59.38Q18.75 59.38 18.75 59.44Q18.75 59.50 18.75 59.50L18.75 59.50L18.75 60.13Q18.88 60.88 19.06 61.56Q19.25 62.25 19.50 62.75L19.50 62.75Q19.75 63.13 19.94 63.38Q20.13 63.63 20.38 64L20.38 64L20.25 64L20.50 64.13Q21 64.75 21.69 65.44Q22.38 66.13 22.75 66.50L22.75 66.50Q23.13 66.88 23.31 67.38Q23.50 67.88 23.50 68.38L23.50 68.38Q23.50 68.38 23.50 68.38Q23.50 68.38 23.50 68.50L23.50 68.50Q23.50 68.50 23.50 68.56Q23.50 68.63 23.50 68.63L23.50 68.63Q23.50 69.50 23.19 70.25Q22.88 71 22.38 71.50L22.38 71.50Q21.88 72.25 21.38 72.81Q20.88 73.38 20.38 73.88L20.38 73.88Q20 74.25 19.69 74.63Q19.38 75 19.25 75.25L19.25 75.25L26.38 75.25Q26.75 74.63 27.13 74.06Q27.50 73.50 27.75 72.88L27.75 72.88Q28.38 71.88 28.69 70.81Q29 69.75 29 68.63L29 68.63Q29 68.63 29 68.56Q29 68.50 29 68.50L29 68.50L29 67.88Q29 67.13 28.75 66.44Q28.50 65.75 28.25 65.25L28.25 65.25Q28.13 64.88 27.94 64.56Q27.75 64.25 27.50 64L27.50 64L27.50 64L27.38 63.88Q26.88 63.25 26.13 62.56Q25.38 61.88 25 61.50L25 61.50Q24.75 61.13 24.56 60.63Q24.38 60.13 24.38 59.63L24.38 59.63Q24.38 59.63 24.38 59.63Q24.38 59.63 24.38 59.50L24.38 59.50Q24.38 59.50 24.38 59.44Q24.38 59.38 24.38 59.38L24.38 59.38Q24.38 58.50 24.69 57.75Q25 57 25.50 56.50L25.50 56.50Q26 55.75 26.50 55.19Q27 54.63 27.50 54.13L27.50 54.13Z"/></svg>