<svg xmlns="http://www.w3.org/2000/svg" xmlns:xlink="http://www.w3.org/1999/xlink" width="128" height="128"><path fill="#000000" d="M72.75 116L75.63 113Q76.63 111.88 77.69 110.50Q78.75 109.13 80.13 107.63L80.13 107.63L81 106.63Q81.88 105.75 82.56 104.94Q83.25 104.13 83.88 103.50L83.88 103.50Q85.50 101.75 86.94 100Q88.38 98.25 89.75 96.38L89.75 96.38Q91.88 93.50 93.06 91Q94.25 88.50 94.13 85L94.13 85Q94 83.13 93.75 81.75Q93.50 80.38 92.25 78.88L92.25 78.88Q91.13 77.63 90 76.44Q88.88 75.25 87.63 74.25L87.63 74.25Q86.13 72.63 84.69 71.13Q83.25 69.63 81.38 67.75L81.38 67.75Q79.63 65.88 77.75 62.38Q75.88 58.88 75.88 58.88L75.88 58.88Q74.75 56.63 74 54Q73.25 51.38 72.75 48.50L72.75 48.50L65.63 12L45.50 12L35.63 57.75L26.88 12L3 12L24.50 116L44.63 116L54.63 71L63.50 116L72.75 116ZM117.63 18.25L117.63 18.25Q119.25 16.38 120.50 14.88Q121.75 13.38 122.88 12L122.88 12L90.88 12Q89.50 13.75 87 16.94Q84.50 20.13 82.88 23.25L82.88 23.25Q80.75 27.38 79.13 31.38Q77.50 35.38 77.38 43L77.38 43L77.50 46.25Q77.50 49.88 79.19 54Q80.88 58.13 80.88 58.13L80.88 58.13Q81.75 59.75 82.63 61.13Q83.50 62.50 84.50 63.88L84.50 63.88L84.50 63.75L85.13 64.50Q87.63 67.50 91 70.56Q94.38 73.63 96.13 75.75L96.13 75.75Q98.13 78.25 98.50 80.50Q98.88 82.75 99 84.63L99 84.63Q99.25 89.50 97.63 92.81Q96 96.13 93.88 99L93.88 99Q90.63 103.50 88.88 105.25Q87.13 107 84.75 109.88L84.75 109.88Q83.13 111.63 81.81 113.19Q80.50 114.75 79.38 116L79.38 116L112.50 116Q114.25 113.63 115.94 110.88Q117.63 108.13 119.13 105.25L119.13 105.25Q121.50 100.75 123.13 96.69Q124.75 92.63 125 85L125 85L124.88 81.75Q124.88 78.13 123.13 73.94Q121.38 69.75 121.38 69.75L121.38 69.75Q120.50 68.25 119.63 66.81Q118.75 65.38 117.75 64.13L117.75 64.13L117.88 64.25L117.25 63.38Q114.63 60.38 111.31 57.38Q108 54.38 106.25 52.25L106.25 52.25Q104.25 49.75 103.81 47.44Q103.38 45.13 103.38 43.38L103.38 43.38Q103 38.50 104.63 35.19Q106.25 31.88 108.38 29L108.38 29Q111.63 24.63 113.38 22.81Q115.13 21 117.63 18.25L117.63 18.25Z"/></svg>