<svg xmlns="http://www.w3.org/2000/svg" xmlns:xlink="http://www.w3.org/1999/xlink" width="128" height="128"><path fill="#ffffff" d="M0 63.63L0 63.63Q0 75.50 3.88 79.38Q7.75 83.25 19.63 83.25L19.63 83.25Q31.50 83.25 35.38 79.38Q39.25 75.50 39.25 63.63L39.25 63.63Q39.25 51.75 35.38 47.88Q31.50 44 19.63 44L19.63 44Q7.75 44 3.88 47.88Q0 51.75 0 63.63L0 63.63ZM7.88 67.75L7.88 67.75L14.13 53.75Q14.88 52 16.31 51.06Q17.75 50.13 19.63 50.13L19.63 50.13Q21.50 50.13 22.94 51.06Q24.38 52 25.13 53.75L25.13 53.75L31.38 67.75Q31.50 68.25 31.69 68.88Q31.88 69.50 31.88 70L31.88 70Q31.88 72.63 30.19 74.25Q28.50 75.88 26 75.88L26 75.88Q25 75.88 24.31 75.69Q23.63 75.50 22.88 75.38L22.88 75.38Q22.13 75.13 21.38 74.94Q20.63 74.75 19.63 74.75L19.63 74.75Q18.63 74.75 17.88 74.94Q17.13 75.13 16.38 75.38L16.38 75.38Q15.63 75.50 14.88 75.69Q14.13 75.88 13.25 75.88L13.25 75.88Q10.75 75.88 9.06 74.25Q7.38 72.63 7.38 70L7.38 70Q7.38 69.50 7.56 68.88Q7.75 68.25 7.88 67.75L7.88 67.75ZM19.63 56.13L19.63 56.13L25.63 69.88Q24.38 69.25 22.81 68.94Q21.25 68.63 19.63 68.63L19.63 68.63Q18 68.63 16.44 68.94Q14.88 69.25 13.50 69.88L13.50 69.88L19.63 56.13ZM112.13 53.63L112.13 53.63Q113.25 53.63 113.88 54.25Q114.50 54.88 114.50 55.88L114.50 55.88Q114.50 56.88 113.88 57.56Q113.25 58.25 112.13 58.25L112.13 58.25Q111.13 58.25 110.50 57.56Q109.88 56.88 109.88 55.88L109.88 55.88Q109.88 54.88 110.50 54.25Q111.13 53.63 112.13 53.63L112.13 53.63ZM69.25 73.50L69.25 73.50Q70.50 73.50 71.44 73.06Q72.38 72.63 72.88 71.75L72.88 71.75L72.88 73.13L76.75 73.13L76.75 54.25L72.88 54.25L72.88 61.25Q72.38 60.38 71.44 60Q70.50 59.63 69.25 59.63L69.25 59.63Q66.50 59.63 64.75 61.50Q63 63.38 63 66.50L63 66.50Q63 69.75 64.75 71.63Q66.50 73.50 69.25 73.50ZM66.88 66.50L66.88 66.50Q66.88 64.75 67.75 63.69Q68.63 62.63 70 62.63L70 62.63Q71.50 62.63 72.38 63.69Q73.25 64.75 73.25 66.50L73.25 66.50Q73.25 68.25 72.38 69.31Q71.50 70.38 70 70.38L70 70.38Q68.63 70.38 67.75 69.31Q66.88 68.25 66.88 66.50L66.88 66.50ZM82.63 66.50L82.63 66.50Q82.63 64.75 83.50 63.75Q84.38 62.75 85.88 62.75L85.88 62.75Q87.25 62.75 88.13 63.75Q89 64.75 89 66.50L89 66.50Q89 68.25 88.13 69.31Q87.25 70.38 85.88 70.38L85.88 70.38Q84.38 70.38 83.50 69.31Q82.63 68.25 82.63 66.50ZM124.38 69.50L124.38 69.50Q124.38 69 123.94 68.69Q123.50 68.38 122.88 68.25L122.88 68.25L120.13 67.63Q118.50 67.25 117.44 66.38Q116.38 65.50 116.38 63.88L116.38 63.88Q116.38 61.88 117.94 60.75Q119.50 59.63 122 59.63L122 59.63Q124.75 59.63 126.19 60.88Q127.63 62.13 127.63 63.88L127.63 63.88L124.13 63.88Q124.13 63.25 123.63 62.81Q123.13 62.38 122 62.38L122 62.38Q121.13 62.38 120.63 62.69Q120.13 63 120.13 63.63L120.13 63.63Q120.13 64 120.44 64.31Q120.75 64.63 121.38 64.75L121.38 64.75L124.13 65.38Q126.13 65.75 127.06 66.75Q128 67.75 128 69.25L128 69.25Q128 71.25 126.50 72.38Q125 73.50 122.38 73.50L122.38 73.50Q119.75 73.50 118.06 72.19Q116.38 70.88 116.25 68.88L116.25 68.88L120 68.88Q120 69.63 120.69 70.13Q121.38 70.63 122.50 70.63L122.50 70.63Q123.50 70.63 123.94 70.31Q124.38 70 124.38 69.50L124.38 69.50ZM110.25 59.88L110.25 59.88L110.25 73.13L114.13 73.13L114.13 59.88L110.25 59.88ZM98.75 59.88L98.75 59.88L94.88 59.88L94.88 73.13L98.75 73.13L98.75 65.25Q98.75 64.13 99.38 63.44Q100 62.75 101.25 62.75L101.25 62.75Q102.38 62.75 103 63.44Q103.63 64.13 103.63 65.25L103.63 65.25L103.63 73.13L107.50 73.13L107.50 64.50Q107.50 62.25 106.13 60.94Q104.75 59.63 102.63 59.63L102.63 59.63Q101.38 59.63 100.44 60Q99.50 60.38 98.75 61.25L98.75 61.25L98.75 59.88ZM85.88 59.63L85.88 59.63Q82.75 59.63 80.75 61.56Q78.75 63.50 78.75 66.50L78.75 66.50Q78.75 69.50 80.75 71.50Q82.75 73.50 85.88 73.50L85.88 73.50Q88.88 73.50 90.88 71.50Q92.88 69.50 92.88 66.50L92.88 66.50Q92.88 63.50 90.88 61.56Q88.88 59.63 85.88 59.63L85.88 59.63ZM54.25 62.63L54.25 62.63Q55.75 62.63 56.63 63.69Q57.50 64.75 57.50 66.50L57.50 66.50Q57.50 68.25 56.63 69.31Q55.75 70.38 54.25 70.38L54.25 70.38Q52.75 70.38 51.88 69.31Q51 68.25 51 66.50L51 66.50Q51 64.75 51.88 63.69Q52.75 62.63 54.25 62.63L54.25 62.63ZM47.13 66.50L47.13 66.50Q47.13 69.75 48.94 71.63Q50.75 73.50 53.38 73.50L53.38 73.50Q54.75 73.50 55.69 73.06Q56.63 72.63 57.13 71.75L57.13 71.75L57.13 73.13L60.88 73.13L60.88 59.88L57.13 59.88L57.13 61.25Q56.50 60.38 55.63 60Q54.75 59.63 53.38 59.63L53.38 59.63Q50.75 59.63 48.94 61.50Q47.13 63.38 47.13 66.50L47.13 66.50Z"/></svg>