<svg xmlns="http://www.w3.org/2000/svg" xmlns:xlink="http://www.w3.org/1999/xlink" width="128" height="128"><path fill="#000000" d="M0 64L0 64Q0 83.38 2.75 95.75L2.75 95.75Q5.50 108.25 12.63 115.38Q19.75 122.50 32.25 125.25L32.25 125.25Q44.63 128 64 128L64 128Q83.38 128 95.75 125.25L95.75 125.25Q108.25 122.50 115.38 115.38Q122.50 108.25 125.25 95.75L125.25 95.75Q128 83.38 128 64L128 64Q128 44.63 125.25 32.25L125.25 32.25Q122.50 19.75 115.38 12.63Q108.25 5.50 95.75 2.75L95.75 2.75Q83.38 0 64 0L64 0Q44.63 0 32.25 2.75L32.25 2.75Q19.75 5.50 12.63 12.63Q5.50 19.75 2.75 32.25L2.75 32.25Q0 44.63 0 64ZM25.75 77.25L25.75 77.25L45.88 31.63Q48.38 25.88 53.13 22.88Q57.88 19.88 64 19.88L64 19.88Q70.13 19.88 74.88 22.88Q79.63 25.88 82.13 31.63L82.13 31.63L102.25 77.25Q102.88 79 103.38 81Q103.88 83 103.88 84.88L103.88 84.88Q103.88 93.38 98.50 98.75Q93.13 104.13 84.63 104.13L84.63 104.13Q81.75 104.13 79.31 103.50Q76.88 102.88 74.50 102.13L74.50 102.13Q72.13 101.38 69.63 100.75Q67.13 100.13 64 100.13L64 100.13Q60.88 100.13 58.31 100.75Q55.75 101.38 53.38 102.13L53.38 102.13Q51 102.88 48.63 103.50Q46.25 104.13 43.38 104.13L43.38 104.13Q34.88 104.13 29.50 98.75Q24.13 93.38 24.13 84.88L24.13 84.88Q24.13 83 24.63 81Q25.13 79 25.75 77.25L25.75 77.25ZM64 39.63L64 39.63L44.13 84.50Q48.63 82.38 53.63 81.38Q58.63 80.38 64 80.38L64 80.38Q69.13 80.38 74.25 81.38Q79.38 82.38 83.50 84.50L83.50 84.50L64 39.63Z"/></svg>