<svg xmlns="http://www.w3.org/2000/svg" xmlns:xlink="http://www.w3.org/1999/xlink" width="128" height="128"><path fill="#ffffff" d="M124.13 63L124.13 63Q124.13 57.25 120.25 52.81Q116.38 48.38 110.50 47L110.50 47L128 0.13L41.13 0.13L58.75 47.13Q53 48.63 49.25 53Q45.50 57.38 45.50 63L45.50 63Q45.50 67.25 47.63 70.75Q49.75 74.25 53.25 76.50L53.25 76.50Q51.88 78.38 50.31 80Q48.75 81.63 46.88 83.13L46.88 83.13Q43.50 86 39.75 88.25Q36 90.50 32 92L32 92Q28.25 89.75 26.81 86.13Q25.38 82.50 26.88 78.88L26.88 78.88Q32.50 77.38 36.13 73Q39.75 68.63 39.75 63.13L39.75 63.13Q39.75 56.25 34.38 51.38Q29 46.50 21.50 46.50L21.50 46.50Q14 46.50 8.63 51.38Q3.25 56.25 3.25 63.13L3.25 63.13Q3.25 66.50 4.69 69.50Q6.13 72.50 8.50 74.75L8.50 74.75Q8.38 75.13 8.13 75.50Q7.88 75.88 7.75 76.38L7.75 76.38Q5.63 80.13 3.63 84.50Q1.63 88.88 0.75 93.63L0.75 93.63Q-1.13 103.38 1.69 110.94Q4.50 118.50 11.50 122.88L11.50 122.88Q15.50 125.38 19.81 126.63Q24.13 127.88 28.88 127.88L28.88 127.88Q36.88 127.88 44.94 124.81Q53 121.75 60.88 118.25L60.88 118.25Q66.50 115.75 72.31 113.31Q78.13 110.88 83.75 109.63L83.75 109.63Q85.88 109.13 88.06 108.81Q90.25 108.50 92.63 108.25L92.63 108.25Q97.38 107.63 102.13 106.75Q106.88 105.88 111.25 103.50L111.25 103.50Q116.38 100.88 119.69 96.56Q123 92.25 124 87L124 87Q124.75 83.13 124.06 79.19Q123.38 75.25 121.38 71.75L121.38 71.75Q122.63 70 123.38 67.75Q124.13 65.50 124.13 63L124.13 63Q124.13 63 124.13 63Q124.13 63 124.13 63L124.13 63L124.13 63ZM116.13 63L116.13 63Q116.13 66.88 113.13 69.63Q110.13 72.38 105.88 72.38L105.88 72.38Q101.63 72.38 98.63 69.63Q95.63 66.88 95.63 63L95.63 63Q95.63 61.75 96 60.56Q96.38 59.38 97 58.38L97 58.38Q97.25 58 97.56 57.63Q97.88 57.25 98.13 56.88L98.13 56.88Q98.50 56.63 98.81 56.31Q99.13 56 99.50 55.75L99.50 55.75L99.50 55.75L99.63 55.63Q99.88 55.50 100.13 55.31Q100.38 55.13 100.63 55L100.63 55Q100.63 55 100.69 55Q100.75 55 100.75 55L100.75 55Q100.88 54.88 101 54.81Q101.13 54.75 101.25 54.75L101.25 54.75Q101.25 54.75 101.25 54.69Q101.25 54.63 101.25 54.63L101.25 54.63Q101.38 54.63 101.56 54.56Q101.75 54.50 101.88 54.50L101.88 54.50Q102.13 54.38 102.25 54.31Q102.38 54.25 102.50 54.25L102.50 54.25L102.50 54.25Q102.50 54.25 102.50 54.19Q102.50 54.13 102.63 54.13L102.63 54.13Q102.75 54.13 102.88 54.06Q103 54 103 54L103 54Q103.13 54 103.19 54Q103.25 54 103.25 54L103.25 54Q103.38 54 103.50 53.94Q103.63 53.88 103.75 53.88L103.75 53.88L103.88 53.88L104.50 53.75Q104.50 53.75 104.56 53.75Q104.63 53.75 104.63 53.75L104.63 53.75Q104.75 53.75 104.88 53.75Q105 53.75 105.13 53.75L105.13 53.75L105.25 53.75Q105.50 53.75 105.63 53.69Q105.75 53.63 106 53.63L106 53.63L106.50 53.63Q106.63 53.63 106.69 53.63Q106.75 53.63 106.88 53.75L106.88 53.75L107 53.75Q107.25 53.75 107.50 53.75Q107.75 53.75 108 53.88L108 53.88Q111.50 54.50 113.81 57.06Q116.13 59.63 116.13 63L116.13 63ZM67.13 46.75L52.50 7.50L116.63 7.50L101.88 46.88Q101.50 47 101 47.13Q100.50 47.25 100.13 47.38L100.13 47.38L84.63 18.75L69.13 47.25Q68.63 47 68.13 46.94Q67.63 46.88 67.13 46.75L67.13 46.75ZM88 59.75L81.63 59.75Q81.13 57.25 79.69 54.94Q78.25 52.63 76.13 50.88L76.13 50.88L84.63 35.50L93.13 51.25Q91.25 53 89.94 55.13Q88.63 57.25 88 59.75L88 59.75ZM61.25 54L61.25 54Q61.38 53.88 61.50 53.88Q61.63 53.88 61.88 53.88L61.88 53.88L62 53.88Q62.13 53.88 62.19 53.81Q62.25 53.75 62.38 53.75L62.38 53.75L62.63 53.75Q62.75 53.75 62.81 53.75Q62.88 53.75 63 53.75L63 53.75L64.63 53.75Q64.75 53.75 64.88 53.75Q65 53.75 65 53.75L65 53.75Q65.13 53.75 65.13 53.75Q65.13 53.75 65.25 53.75L65.25 53.75Q65.38 53.88 65.50 53.88Q65.63 53.88 65.75 53.88L65.75 53.88Q65.75 53.88 65.75 53.88Q65.75 53.88 65.88 53.88L65.88 53.88Q66 54 66.13 54Q66.25 54 66.38 54L66.38 54L66.50 54Q66.63 54 66.75 54.06Q66.88 54.13 67 54.13L67 54.13Q67 54.13 67 54.19Q67 54.25 67.13 54.25L67.13 54.25Q67.25 54.25 67.31 54.25Q67.38 54.25 67.50 54.38L67.50 54.38Q67.50 54.38 67.56 54.38Q67.63 54.38 67.63 54.38L67.63 54.38Q67.75 54.50 67.88 54.50Q68 54.50 68.13 54.63L68.13 54.63L68.13 54.63Q68.38 54.63 68.50 54.69Q68.63 54.75 68.75 54.88L68.75 54.88L68.75 54.88Q68.88 54.88 69 54.94Q69.13 55 69.25 55.13L69.25 55.13Q69.25 55.13 69.25 55.13Q69.25 55.13 69.38 55.13L69.38 55.13Q69.50 55.25 69.56 55.31Q69.63 55.38 69.75 55.38L69.75 55.38L69.75 55.38Q70.13 55.63 70.50 55.94Q70.88 56.25 71.25 56.50L71.25 56.50L71.25 56.50Q71.50 56.88 71.81 57.19Q72.13 57.50 72.38 57.88L72.38 57.88Q73.13 59 73.56 60.31Q74 61.63 74 63L74 63Q74 66.88 71 69.56Q68 72.25 63.75 72.25L63.75 72.25Q59.50 72.25 56.50 69.56Q53.50 66.88 53.50 63L53.50 63Q53.50 59.75 55.69 57.25Q57.88 54.75 61.25 54L61.25 54ZM21.13 53.75L21.13 53.75Q25.38 53.75 28.38 56.44Q31.38 59.13 31.38 63L31.38 63Q31.38 66.88 28.38 69.63Q25.38 72.38 21.13 72.38L21.13 72.38Q16.88 72.38 13.88 69.63Q10.88 66.88 10.88 63L10.88 63Q10.88 59.13 13.88 56.44Q16.88 53.75 21.13 53.75L21.13 53.75ZM116 85.75L116 85.75Q115.25 89.38 112.94 92.31Q110.63 95.25 107.13 97.13L107.13 97.13Q103.75 98.88 99.75 99.63Q95.75 100.38 91.50 100.88L91.50 100.88Q89.13 101.25 86.69 101.63Q84.25 102 81.88 102.50L81.88 102.50Q75.50 103.88 69.38 106.44Q63.25 109 57.25 111.63L57.25 111.63Q49.75 115 42.63 117.75Q35.50 120.50 28.88 120.50L28.88 120.50Q25.38 120.50 22.25 119.56Q19.13 118.63 16.13 116.75L16.13 116.75Q9.50 112.63 8.69 105.94Q7.88 99.25 8.75 94.88L8.75 94.88Q9.50 90.75 11.31 86.94Q13.13 83.13 15 79.50L15 79.50Q15.13 79.38 15.25 79.13Q15.38 78.88 15.50 78.75L15.50 78.75Q16.13 78.88 16.88 79.06Q17.63 79.25 18.25 79.38L18.25 79.38Q17.13 85.25 20.19 90.75Q23.25 96.25 29.75 99.25L29.75 99.25L31.25 100L32.88 99.50Q38.25 97.75 43.19 95Q48.13 92.25 52.50 88.50L52.50 88.50Q55 86.38 57.13 84.06Q59.25 81.75 61 79.38L61 79.38Q61.63 79.50 62.38 79.50Q63.13 79.50 63.75 79.50L63.75 79.50Q70.13 79.50 75 76Q79.88 72.50 81.38 67.13L81.38 67.13L88.25 67.13Q89.75 72.50 94.63 76Q99.50 79.50 105.88 79.50L105.88 79.50Q108.50 79.50 110.81 78.88Q113.13 78.25 115.13 77.25L115.13 77.25Q115.88 79.25 116.13 81.44Q116.38 83.63 116 85.75L116 85.75Z"/></svg>