<svg xmlns="http://www.w3.org/2000/svg" xmlns:xlink="http://www.w3.org/1999/xlink" width="128" height="128"><path fill="#000000" d="M64 12.13L64 12.13Q53.25 12.13 43.75 16.13L43.75 16.13Q34.38 20.25 27.31 27.31Q20.25 34.38 16.13 43.75L16.13 43.75Q12.13 53.25 12.13 64L12.13 64Q12.13 74.75 16.13 84.25L16.13 84.25Q20.25 93.63 27.31 100.69Q34.38 107.75 43.75 111.88L43.75 111.88Q53.25 115.88 64 115.88L64 115.88Q74.75 115.88 84.25 111.88L84.25 111.88Q93.63 107.75 100.69 100.69Q107.75 93.63 111.88 84.25L111.88 84.25Q115.88 74.75 115.88 64L115.88 64Q115.88 53.25 111.88 43.75L111.88 43.75Q107.75 34.38 100.69 27.31Q93.63 20.25 84.25 16.13L84.25 16.13Q74.75 12.13 64 12.13L64 12.13ZM91.50 37.13L91.50 37.13Q91.38 36.88 91.06 36.75Q90.75 36.63 90.50 36.50L90.50 36.50Q90.13 36.38 89.81 36.31Q89.50 36.25 89.13 36.13L89.13 36.13Q88.75 36 88.38 35.88Q88 35.75 87.75 35.50L87.75 35.50Q87.38 35.38 87.13 35.13Q86.88 34.88 86.63 34.50L86.63 34.50Q86.50 34.25 86.38 33.81Q86.25 33.38 86.25 32.88L86.25 32.88Q86.25 32.50 86.38 32.06Q86.50 31.63 86.63 31.25L86.63 31.25Q86.88 30.88 87.13 30.56Q87.38 30.25 87.63 30L87.63 30Q88 29.75 88.38 29.56Q88.75 29.38 89.13 29.25L89.13 29.25Q89.50 29.13 89.94 29.06Q90.38 29 90.88 29L90.88 29Q91.38 29 91.88 29.06Q92.38 29.13 92.88 29.38L92.88 29.38Q93.25 29.50 93.69 29.69Q94.13 29.88 94.50 30.25L94.50 30.25L92.75 32.13Q92.63 32 92.38 31.81Q92.13 31.63 91.88 31.63L91.88 31.63Q91.63 31.50 91.31 31.44Q91 31.38 90.75 31.38L90.75 31.38Q90.63 31.38 90.50 31.38Q90.38 31.38 90.13 31.50L90.13 31.50Q90 31.50 89.88 31.56Q89.75 31.63 89.63 31.63L89.63 31.63Q89.38 31.75 89.31 31.88Q89.25 32 89.13 32.13L89.13 32.13Q89 32.25 88.94 32.38Q88.88 32.50 88.88 32.75L88.88 32.75Q88.88 33 89 33.25Q89.13 33.50 89.38 33.63L89.38 33.63Q89.63 33.75 89.88 33.88Q90.13 34 90.38 34.13L90.38 34.13Q90.75 34.25 91.06 34.31Q91.38 34.38 91.75 34.50L91.75 34.50Q92.13 34.63 92.44 34.75Q92.75 34.88 93.13 35.13L93.13 35.13Q93.38 35.25 93.63 35.50Q93.88 35.75 94.13 36.13L94.13 36.13Q94.38 36.38 94.44 36.81Q94.50 37.25 94.50 37.75L94.50 37.75Q94.50 38.25 94.44 38.69Q94.38 39.13 94.13 39.50L94.13 39.50Q94 39.88 93.75 40.19Q93.50 40.50 93.13 40.75L93.13 40.75Q92.88 41 92.50 41.19Q92.13 41.38 91.63 41.50L91.63 41.50Q91.25 41.63 90.81 41.69Q90.38 41.75 89.88 41.75L89.88 41.75Q89.38 41.75 88.81 41.63Q88.25 41.50 87.75 41.38L87.75 41.38Q87.25 41.13 86.81 40.88Q86.38 40.63 85.88 40.25L85.88 40.25L87.75 38.25Q87.88 38.50 88.13 38.69Q88.38 38.88 88.75 39L88.75 39Q89 39.25 89.38 39.31Q89.75 39.38 90 39.38L90 39.38Q90.25 39.38 90.38 39.38Q90.50 39.38 90.75 39.25L90.75 39.25Q90.88 39.25 91.06 39.19Q91.25 39.13 91.38 39L91.38 39Q91.50 39 91.63 38.88Q91.75 38.75 91.75 38.63L91.75 38.63Q91.88 38.50 91.94 38.38Q92 38.25 92 38L92 38Q92 37.75 91.88 37.50Q91.75 37.25 91.50 37.13L91.50 37.13ZM77.25 29.38L77.25 29.38L79.75 29.38L79.75 39L84.75 39L84.75 41.38L77.25 41.38L77.25 29.38ZM71.63 41.38L71.63 29.38L74.25 29.38L74.25 41.38L71.63 41.38ZM57.50 41.38L62.75 29.38L64.88 29.38L70.13 41.38L67.25 41.38L66.13 38.75L61.38 38.75L60.38 41.38L57.50 41.38ZM47 29.38L47 29.38L51.63 29.38Q52 29.38 52.44 29.44Q52.88 29.50 53.38 29.50L53.38 29.50Q53.75 29.63 54.13 29.75Q54.50 29.88 54.75 30.13L54.75 30.13Q55.13 30.38 55.38 30.63Q55.63 30.88 55.75 31.25L55.75 31.25Q55.88 31.63 56 32.06Q56.13 32.50 56.13 33L56.13 33Q56.13 33.63 55.94 34.19Q55.75 34.75 55.50 35.13L55.50 35.13Q55.13 35.50 54.69 35.81Q54.25 36.13 53.63 36.25L53.63 36.25L53.50 36.25L56.50 41.38L53.50 41.38L50.88 36.50L49.50 36.50L49.50 41.38L47 41.38L47 29.38ZM33.50 32.75L33.50 32.75Q33.75 32.13 34.13 31.63Q34.50 31.13 34.88 30.75L34.88 30.75Q35.38 30.38 35.88 30.06Q36.38 29.75 37 29.50L37 29.50Q37.63 29.25 38.25 29.13Q38.88 29 39.63 29L39.63 29Q40.25 29 40.94 29.13Q41.63 29.25 42.25 29.38L42.25 29.38Q42.88 29.50 43.38 29.81Q43.88 30.13 44.38 30.50L44.38 30.50L42.50 32.50Q42.25 32.25 41.94 32.06Q41.63 31.88 41.38 31.63L41.38 31.63Q41 31.50 40.56 31.44Q40.13 31.38 39.63 31.38L39.63 31.38Q39.13 31.38 38.75 31.44Q38.38 31.50 38 31.63L38 31.63Q37.63 31.88 37.31 32.06Q37 32.25 36.75 32.50L36.75 32.50Q36.50 32.75 36.31 33.06Q36.13 33.38 36 33.75L36 33.75Q35.88 34.13 35.81 34.56Q35.75 35 35.75 35.38L35.75 35.38Q35.75 35.75 35.81 36.19Q35.88 36.63 36 37L36 37Q36.13 37.38 36.31 37.69Q36.50 38 36.75 38.25L36.75 38.25Q37 38.50 37.31 38.69Q37.63 38.88 38 39.13L38 39.13Q38.38 39.25 38.75 39.31Q39.13 39.38 39.63 39.38L39.63 39.38Q40 39.38 40.38 39.31Q40.75 39.25 41.13 39.13L41.13 39.13Q41.38 39.13 41.63 39Q41.88 38.88 42.13 38.75L42.13 38.75L42.13 38.75L42.13 38.75L42.13 38.75L42.13 36.63L40 36.63L40 34.25L44.63 34.25L44.63 40.50Q44 40.88 43.44 41.06Q42.88 41.25 42.25 41.38L42.25 41.38Q41.50 41.63 40.88 41.69Q40.25 41.75 39.63 41.75L39.63 41.75Q38.88 41.75 38.25 41.63Q37.63 41.50 37 41.25L37 41.25Q36.38 41 35.88 40.69Q35.38 40.38 34.88 40L34.88 40Q34.50 39.63 34.13 39.13Q33.75 38.63 33.50 38L33.50 38Q33.38 37.38 33.25 36.75Q33.13 36.13 33.13 35.38L33.13 35.38Q33.13 34.63 33.25 34Q33.38 33.38 33.50 32.75L33.50 32.75ZM50.13 74.13L50.13 74.13Q49.63 74.38 49 74.63Q48.38 74.88 48 75L48 75Q47.50 75.25 46.75 75.88Q46 76.50 45.63 77.25L45.63 77.25Q45.25 77.75 44.94 78.38Q44.63 79 44.50 79.50L44.50 79.50Q44.50 79.75 44.44 80.19Q44.38 80.63 44.38 81.13L44.38 81.13Q44.50 82.38 44.69 83.81Q44.88 85.25 45.25 86.38L45.25 86.38Q45.75 87.63 46.06 88.31Q46.38 89 47 90.25L47 90.25Q47.25 90.88 47.44 91.31Q47.63 91.75 47.75 92L47.75 92Q47.75 92.13 47.75 92.25Q47.75 92.38 47.63 92.38L47.63 92.38Q47.50 92.63 47.19 93Q46.88 93.38 46.38 93.63L46.38 93.63Q45.38 94.13 43.75 94.31Q42.13 94.50 41.13 94.63L41.13 94.63L41.13 94.63Q40.13 94.50 38.50 94.31Q36.88 94.13 36 93.63L36 93.63Q35.50 93.38 35.13 93Q34.75 92.63 34.63 92.38L34.63 92.38Q34.63 92.38 34.63 92.25Q34.63 92.13 34.63 92L34.63 92Q34.75 91.75 34.94 91.31Q35.13 90.88 35.38 90.25L35.38 90.25Q35.88 89 36.25 88.31Q36.63 87.63 37 86.38L37 86.38Q37.50 85.25 37.69 83.81Q37.88 82.38 37.88 81.13L37.88 81.13Q37.88 80.63 37.88 80.19Q37.88 79.75 37.75 79.50L37.75 79.50Q37.63 79 37.38 78.38Q37.13 77.75 36.75 77.25L36.75 77.25Q36.25 76.50 35.56 75.88Q34.88 75.25 34.25 75L34.25 75Q33.88 74.75 32.88 74.38Q31.88 74 31.38 73.75L31.38 73.75Q30.75 73.38 30 72.88Q29.25 72.38 28.63 71.88L28.63 71.88Q28 71.38 27 70.44Q26 69.50 25.50 68.88L25.50 68.88Q24.63 67.75 23.81 66.44Q23 65.13 22.63 63.63L22.63 63.63Q22.13 61.88 22.06 60.94Q22 60 21.88 59.50L21.88 59.50Q21.88 59.38 21.94 59.31Q22 59.25 22.13 59.25L22.13 59.25Q22.63 59.13 24.94 59.13Q27.25 59.13 33.38 59.13L33.38 59.13Q33.50 59.13 33.63 59.19Q33.75 59.25 33.75 59.38L33.75 59.38Q35.50 64 39.81 67.63Q44.13 71.25 50.13 73.38L50.13 73.38Q50.38 73.50 50.38 73.75Q50.38 74 50.13 74.13ZM70.50 91.63L70.50 91.63Q71.25 93.63 71.81 94.75Q72.38 95.88 73.25 97.88L73.25 97.88Q73.63 98.75 73.94 99.56Q74.25 100.38 74.50 100.75L74.50 100.75Q74.50 100.88 74.50 101.06Q74.50 101.25 74.38 101.38L74.38 101.38Q74.13 101.75 73.63 102.31Q73.13 102.88 72.25 103.38L72.25 103.38Q70.75 104.25 68.06 104.56Q65.38 104.88 63.88 104.88L63.88 104.88L63.88 104.88Q62.25 104.88 59.63 104.56Q57 104.25 55.50 103.38L55.50 103.38Q54.63 102.88 54.06 102.31Q53.50 101.75 53.25 101.38L53.25 101.38Q53.25 101.25 53.19 101.06Q53.13 100.88 53.25 100.75L53.25 100.75Q53.38 100.38 53.69 99.56Q54 98.75 54.38 97.88L54.38 97.88Q55.25 95.88 55.81 94.75Q56.38 93.63 57.13 91.63L57.13 91.63Q57.88 89.88 58.19 87.50Q58.50 85.13 58.50 83.13L58.50 83.13Q58.50 82.38 58.50 81.63Q58.50 80.88 58.38 80.38L58.38 80.38Q58.13 79.63 57.69 78.56Q57.25 77.50 56.63 76.63L56.63 76.63Q55.88 75.50 54.75 74.56Q53.63 73.63 52.75 73.13L52.75 73.13Q52 72.75 50.38 72.13Q48.75 71.50 48 71L48 71Q46.88 70.50 45.69 69.69Q44.50 68.88 43.50 68.13L43.50 68.13Q42.50 67.38 40.88 65.75Q39.25 64.13 38.50 63.13L38.50 63.13Q37 61.25 35.75 59.13Q34.50 57 33.75 54.63L33.75 54.63Q33 51.75 32.81 50.25Q32.63 48.75 32.63 47.88L32.63 47.88Q32.50 47.75 32.63 47.63Q32.75 47.50 32.88 47.50L32.88 47.50Q33.88 47.38 39.94 47.31Q46 47.25 63.88 47.25L63.88 47.25Q81.75 47.25 87.75 47.31Q93.75 47.38 94.75 47.50L94.75 47.50Q95 47.50 95.06 47.63Q95.13 47.75 95.13 47.88L95.13 47.88Q95 48.75 94.88 50.25Q94.75 51.75 93.88 54.63L93.88 54.63Q93.25 57 92 59.13Q90.75 61.25 89.25 63.13L89.25 63.13Q88.38 64.13 86.75 65.75Q85.13 67.38 84.13 68.13L84.13 68.13Q83.25 68.88 82 69.69Q80.75 70.50 79.75 71L79.75 71Q78.88 71.50 77.25 72.13Q75.63 72.75 75 73.13L75 73.13Q74.13 73.63 72.94 74.56Q71.75 75.50 71 76.63L71 76.63Q70.50 77.50 70 78.56Q69.50 79.63 69.38 80.38L69.38 80.38Q69.25 80.88 69.19 81.63Q69.13 82.38 69.13 83.13L69.13 83.13Q69.13 85.13 69.50 87.50Q69.88 89.88 70.50 91.63L70.50 91.63ZM102.50 68.88L102.50 68.88Q102 69.50 101 70.44Q100 71.38 99.38 71.88L99.38 71.88Q98.75 72.38 98 72.88Q97.25 73.38 96.63 73.75L96.63 73.75Q96.13 74 95.13 74.38Q94.13 74.75 93.75 75L93.75 75Q93.13 75.25 92.44 75.88Q91.75 76.50 91.25 77.25L91.25 77.25Q90.88 77.75 90.63 78.38Q90.38 79 90.25 79.50L90.25 79.50Q90.13 79.75 90.13 80.19Q90.13 80.63 90.13 81.13L90.13 81.13Q90.13 82.38 90.31 83.81Q90.50 85.25 91 86.38L91 86.38Q91.38 87.63 91.75 88.31Q92.13 89 92.63 90.25L92.63 90.25Q92.88 90.88 93.06 91.31Q93.25 91.75 93.38 92L93.38 92Q93.38 92.13 93.38 92.25Q93.38 92.38 93.38 92.38L93.38 92.38Q93.25 92.63 92.88 93Q92.50 93.38 92 93.63L92 93.63Q91.13 94.13 89.50 94.31Q87.88 94.50 86.88 94.63L86.88 94.63L86.88 94.63Q85.88 94.50 84.25 94.31Q82.63 94.13 81.63 93.63L81.63 93.63Q81.13 93.38 80.81 93Q80.50 92.63 80.38 92.38L80.38 92.38Q80.25 92.38 80.25 92.25Q80.25 92.13 80.25 92L80.25 92Q80.38 91.75 80.56 91.31Q80.75 90.88 81 90.25L81 90.25Q81.63 89 81.94 88.31Q82.25 87.63 82.75 86.38L82.75 86.38Q83.13 85.25 83.31 83.81Q83.50 82.38 83.63 81.13L83.63 81.13Q83.63 80.63 83.56 80.19Q83.50 79.75 83.50 79.50L83.50 79.50Q83.38 79 83.06 78.38Q82.75 77.75 82.38 77.25L82.38 77.25Q82 76.50 81.25 75.88Q80.50 75.25 80 75L80 75Q79.63 74.88 79 74.63Q78.38 74.38 77.88 74.13L77.88 74.13Q77.63 74 77.63 73.75Q77.63 73.50 77.88 73.38L77.88 73.38Q83.88 71.25 88.19 67.63Q92.50 64 94.25 59.38L94.25 59.38Q94.25 59.25 94.38 59.19Q94.50 59.13 94.63 59.13L94.63 59.13Q100.75 59.13 103.06 59.13Q105.38 59.13 105.88 59.25L105.88 59.25Q106 59.25 106.06 59.31Q106.13 59.38 106.13 59.50L106.13 59.50Q106 60 105.94 60.94Q105.88 61.88 105.38 63.63L105.38 63.63Q105 65.13 104.19 66.44Q103.38 67.75 102.50 68.88L102.50 68.88ZM53.50 33L53.50 33Q53.50 33.25 53.44 33.44Q53.38 33.63 53.25 33.75L53.25 33.75Q53.13 33.88 53 34Q52.88 34.13 52.63 34.25L52.63 34.25Q52.50 34.25 52.31 34.31Q52.13 34.38 51.88 34.38L51.88 34.38Q51.75 34.38 51.56 34.38Q51.38 34.38 51.13 34.38L51.13 34.38L49.50 34.38L49.50 31.50L51.38 31.50Q51.50 31.50 51.69 31.50Q51.88 31.50 52.13 31.50L52.13 31.50Q52.25 31.50 52.44 31.56Q52.63 31.63 52.75 31.75L52.75 31.75Q52.88 31.88 53 31.94Q53.13 32 53.25 32.13L53.25 32.13Q53.38 32.38 53.44 32.56Q53.50 32.75 53.50 33L53.50 33ZM62.13 36.63L63.75 32.63L65.38 36.63L62.13 36.63Z"/></svg>