<svg xmlns="http://www.w3.org/2000/svg" xmlns:xlink="http://www.w3.org/1999/xlink" width="128" height="128"><path fill="#ffffff" d="M49.13 32.63L49.13 32.63Q38.25 30.75 30.25 32.75Q22.25 34.75 18.88 40.63L18.88 40.63Q16.25 45 16.94 50.69Q17.63 56.38 21.13 62.50L21.13 62.50Q21.38 62.88 21.69 63.06Q22 63.25 22.50 63.25L22.50 63.25Q23 63.25 23.44 62.81Q23.88 62.38 23.88 61.88L23.88 61.88Q23.88 61.63 23.81 61.44Q23.75 61.25 23.75 61.13L23.75 61.13Q20.50 55.50 19.88 50.63Q19.25 45.75 21.38 42.13L21.38 42.13Q24.25 37.25 31.44 35.50Q38.63 33.75 48.50 35.50L48.50 35.50Q48.63 35.50 48.69 35.56Q48.75 35.63 48.75 35.63L48.75 35.63Q49.38 35.63 49.81 35.19Q50.25 34.75 50.25 34.13L50.25 34.13Q50.25 33.50 49.94 33.13Q49.63 32.75 49.13 32.63L49.13 32.63ZM28.63 72.63L28.63 72.63Q33.38 77.63 38.75 81.94Q44.13 86.25 50.13 89.75L50.13 89.75Q58.13 94.25 66.13 97.13L66.13 97.13Q74.13 100 81.31 101.06Q88.50 102.13 94.50 101.38L94.50 101.38Q100.50 100.50 104.63 97.75L104.63 97.75Q104.88 97.50 105.06 97.19Q105.25 96.88 105.25 96.50L105.25 96.50Q105.25 95.88 104.81 95.44Q104.38 95 103.75 95L103.75 95Q103.63 95 103.38 95.13Q103.13 95.25 103 95.38L103 95.38Q99.25 97.88 93.63 98.50L93.63 98.50Q88 99.25 81.25 98.19Q74.50 97.13 67 94.38L67 94.38Q59.50 91.75 52.13 87.38L52.13 87.38Q46 83.88 40.69 79.69Q35.38 75.50 30.88 70.63L30.88 70.63Q30.63 70.38 30.31 70.25Q30 70.13 29.75 70.13L29.75 70.13Q29.13 70.13 28.69 70.56Q28.25 71 28.25 71.63L28.25 71.63Q28.25 71.88 28.38 72.13Q28.50 72.38 28.63 72.63L28.63 72.63ZM101.13 70.88L101 70.75Q108.13 62.50 110.38 54.56Q112.63 46.63 109.25 40.75L109.25 40.75Q106.75 36.38 101.63 34.13Q96.50 31.88 89.50 31.75L89.50 31.75Q88.88 31.75 88.50 32.19Q88.13 32.63 88.13 33.25L88.13 33.25Q88.13 33.88 88.50 34.31Q88.88 34.75 89.50 34.75L89.50 34.75Q95.88 34.75 100.25 36.69Q104.63 38.63 106.75 42.13L106.75 42.13Q109.50 47 107.44 54.13Q105.38 61.25 98.88 68.88L98.88 68.88Q98.75 69.13 98.63 69.38Q98.50 69.63 98.50 69.88L98.50 69.88Q98.50 70.50 98.94 70.94Q99.38 71.38 100 71.38L100 71.38Q100.38 71.38 100.63 71.19Q100.88 71 101.13 70.88L101.13 70.88ZM76.88 33.13L76.88 33.13Q69.50 34.88 62.88 37.56Q56.25 40.25 50.25 43.75L50.25 43.75Q42.25 48.38 35.88 53.88L35.88 53.88Q29.38 59.50 24.94 65.31Q20.50 71.13 18.38 76.88L18.38 76.88Q16.25 82.63 17 87.63L17 87.63Q17.13 88.13 17.50 88.50Q17.88 88.88 18.50 88.88L18.50 88.88Q19.13 88.88 19.56 88.44Q20 88 20 87.38L20 87.38Q20 87.25 20 87.19Q20 87.13 20 87.13L20 87.13Q19.38 82.75 21.38 77.38L21.38 77.38Q23.38 72.13 27.63 66.69Q31.88 61.25 38.13 55.88L38.13 55.88Q44.38 50.63 52.13 46.13L52.13 46.13Q57.63 42.88 63.88 40.31Q70.13 37.75 76.88 36.13L76.88 36.13Q77.88 35.88 78.25 35.50Q78.63 35.13 78.63 34.50L78.63 34.50Q78.63 34 78.19 33.56Q77.75 33.13 77.25 33.13L77.25 33.13Q77.13 33.13 77.06 33.13Q77 33.13 76.88 33.13L76.88 33.13ZM42 96.75L42 96.75Q45.75 107.13 51.50 113.06Q57.25 119 64 119L64 119Q69 119 73.50 115.75Q78 112.50 81.50 106.63L81.50 106.63Q81.63 106.38 81.69 106.19Q81.75 106 81.75 105.75L81.75 105.75Q81.75 105.13 81.31 104.69Q80.88 104.25 80.25 104.25L80.25 104.25Q79.88 104.25 79.56 104.44Q79.25 104.63 79 105L79 105Q75.75 110.38 71.94 113.19Q68.13 116 64 116L64 116Q58.38 116 53.31 110.63Q48.25 105.25 44.88 95.75L44.88 95.75Q44.63 95.38 44.25 95.06Q43.88 94.75 43.38 94.75L43.38 94.75Q42.88 94.75 42.44 95.19Q42 95.63 42 96.25L42 96.25Q42 96.38 42 96.50Q42 96.63 42 96.75L42 96.75ZM87 94.13L87 94.13Q88.88 88.13 89.88 81.38Q90.88 74.63 90.88 67.50L90.88 67.50Q90.88 67.25 90.88 67.06Q90.88 66.88 90.88 66.75L90.88 66.75Q90.88 57.63 89.38 49.25L89.38 49.25Q87.88 41 85.13 34.25Q82.38 27.50 78.63 22.75L78.63 22.75Q74.75 18 70.25 16L70.25 16Q70.13 15.88 69.94 15.88Q69.75 15.88 69.63 15.88L69.63 15.88Q69 15.88 68.56 16.25Q68.13 16.63 68.13 17.25L68.13 17.25Q68.13 17.75 68.38 18.13Q68.63 18.50 69 18.63L69 18.63Q73.13 20.50 76.50 24.88L76.50 24.88Q80 29.38 82.56 35.75Q85.13 42.13 86.50 50.13L86.50 50.13Q88 58 88 66.75L88 66.75Q88 67 88 67.13Q88 67.25 88 67.50L88 67.50Q88 74.38 87 81Q86 87.63 84 93.88L84 93.88Q84.13 93.50 84.13 93.50Q84.13 93.50 84.13 93.63L84.13 93.63Q84.13 94.25 84.56 94.69Q85 95.13 85.63 95.13L85.63 95.13Q86.13 95.13 86.50 94.81Q86.88 94.50 87 94.13L87 94.13ZM114.75 92.63L114.75 92.63Q114.75 89.75 112.69 87.69Q110.63 85.63 107.63 85.63L107.63 85.63Q104.75 85.63 102.69 87.69Q100.63 89.75 100.63 92.63L100.63 92.63Q100.63 95.63 102.69 97.69Q104.75 99.75 107.63 99.75L107.63 99.75Q110.63 99.75 112.69 97.69Q114.75 95.63 114.75 92.63ZM111.75 92.63L111.75 92.63Q111.75 94.38 110.56 95.56Q109.38 96.75 107.63 96.75L107.63 96.75Q106 96.75 104.75 95.56Q103.50 94.38 103.50 92.63L103.50 92.63Q103.50 91 104.75 89.75Q106 88.50 107.63 88.50L107.63 88.50Q109.38 88.50 110.56 89.75Q111.75 91 111.75 92.63ZM20.38 99.75L20.38 99.75Q23.25 99.75 25.31 97.69Q27.38 95.63 27.38 92.63L27.38 92.63Q27.38 89.75 25.31 87.69Q23.25 85.63 20.38 85.63L20.38 85.63Q17.38 85.63 15.31 87.69Q13.25 89.75 13.25 92.63L13.25 92.63Q13.25 95.63 15.31 97.69Q17.38 99.75 20.38 99.75ZM20.38 96.75L20.38 96.75Q18.63 96.75 17.44 95.56Q16.25 94.38 16.25 92.63L16.25 92.63Q16.25 91 17.44 89.75Q18.63 88.50 20.38 88.50L20.38 88.50Q22 88.50 23.25 89.75Q24.50 91 24.50 92.63L24.50 92.63Q24.50 94.38 23.25 95.56Q22 96.75 20.38 96.75L20.38 96.75ZM64 23.13L64 23.13Q67 23.13 69.06 21.06Q71.13 19 71.13 16.13L71.13 16.13Q71.13 13.13 69.06 11.06Q67 9 64 9L64 9Q61.13 9 59.06 11.06Q57 13.13 57 16.13L57 16.13Q57 19 59.06 21.06Q61.13 23.13 64 23.13ZM64 20.13L64 20.13Q62.38 20.13 61.19 18.94Q60 17.75 60 16.13L60 16.13Q60 14.38 61.19 13.19Q62.38 12 64 12L64 12Q65.75 12 66.94 13.19Q68.13 14.38 68.13 16.13L68.13 16.13Q68.13 17.75 66.94 18.94Q65.75 20.13 64 20.13ZM65.13 71.75L65.13 71.75Q64.88 71.88 64.56 71.88Q64.25 71.88 64 71.88L64 71.88Q61.88 71.88 60.38 70.38Q58.88 68.88 58.88 66.75L58.88 66.75Q58.88 64.63 60.38 63.19Q61.88 61.75 64 61.75L64 61.75Q65.88 61.75 67.25 62.88Q68.63 64 69 65.63L69 65.63Q69 66 69.06 66.25Q69.13 66.50 69.13 66.75L69.13 66.75Q69.13 68.63 68 70Q66.88 71.38 65.13 71.75L65.13 71.75Z"/></svg>