<svg xmlns="http://www.w3.org/2000/svg" xmlns:xlink="http://www.w3.org/1999/xlink" width="128" height="128"><path fill="#000000" d="M29 69.63L29 69.63L35.63 69.63Q35.75 69.63 35.88 69.50Q36 69.38 36 69.25L36 69.25Q36 69.13 35.88 69Q35.75 68.88 35.63 68.88L35.63 68.88L29.38 68.88L29.38 64.75L35 64.75Q35.13 64.75 35.19 64.69Q35.25 64.63 35.25 64.50L35.25 64.50Q35.25 64.25 35.19 64.19Q35.13 64.13 35 64.13L35 64.13L29.38 64.13L29.38 60.13L35.63 60.13Q35.75 60.13 35.88 60Q36 59.88 36 59.75L36 59.75Q36 59.63 35.88 59.50Q35.75 59.38 35.63 59.38L35.63 59.38L29 59.38Q28.88 59.38 28.75 59.50Q28.63 59.63 28.63 59.75L28.63 59.75L28.63 69.25Q28.63 69.38 28.75 69.50Q28.88 69.63 29 69.63L29 69.63ZM40.63 59.75L40.63 69.25Q40.63 69.38 40.75 69.50Q40.88 69.63 41 69.63L41 69.63L47.13 69.63Q47.25 69.63 47.31 69.50Q47.38 69.38 47.38 69.25L47.38 69.25Q47.38 69.13 47.31 69Q47.25 68.88 47.13 68.88L47.13 68.88L41.38 68.88L41.38 59.75Q41.38 59.63 41.25 59.50Q41.13 59.38 41 59.38L41 59.38Q40.88 59.38 40.75 59.50Q40.63 59.63 40.63 59.75L40.63 59.75ZM52.25 69.63L52.25 69.63L58.88 69.63Q59 69.63 59.13 69.50Q59.25 69.38 59.25 69.25L59.25 69.25Q59.25 69.13 59.13 69Q59 68.88 58.88 68.88L58.88 68.88L52.63 68.88L52.63 64.75L58.25 64.75Q58.38 64.75 58.44 64.69Q58.50 64.63 58.50 64.50L58.50 64.50Q58.50 64.25 58.44 64.19Q58.38 64.13 58.25 64.13L58.25 64.13L52.63 64.13L52.63 60.13L58.88 60.13Q59 60.13 59.13 60Q59.25 59.88 59.25 59.75L59.25 59.75Q59.25 59.63 59.13 59.50Q59 59.38 58.88 59.38L58.88 59.38L52.25 59.38Q52.13 59.38 52 59.50Q51.88 59.63 51.88 59.75L51.88 59.75L51.88 69.25Q51.88 69.38 52 69.50Q52.13 69.63 52.25 69.63L52.25 69.63ZM68.50 69.75L68.50 69.75Q68.50 69.75 68.50 69.75Q68.50 69.75 68.63 69.75L68.63 69.75Q69.75 69.75 70.69 69.31Q71.63 68.88 72.38 68.13L72.38 68.13Q72.38 68.13 72.44 68.06Q72.50 68 72.50 67.88L72.50 67.88Q72.50 67.75 72.38 67.63Q72.25 67.50 72.13 67.50L72.13 67.50Q72 67.50 71.94 67.56Q71.88 67.63 71.88 67.63L71.88 67.63Q71.25 68.38 70.38 68.75Q69.50 69.13 68.63 69.13L68.63 69.13Q68.63 69.13 68.56 69.13Q68.50 69.13 68.50 69.13L68.50 69.13Q66.75 69 65.50 67.75Q64.25 66.50 64.25 64.75L64.25 64.75Q64.25 64.63 64.25 64.56Q64.25 64.50 64.25 64.50L64.25 64.50L64.25 64.50Q64.25 64.50 64.25 64.44Q64.25 64.38 64.25 64.25L64.25 64.25Q64.25 62.50 65.50 61.25Q66.75 60 68.50 59.88L68.50 59.88Q68.50 59.88 68.50 59.88Q68.50 59.88 68.63 59.88L68.63 59.88Q69.50 59.88 70.31 60.25Q71.13 60.63 71.75 61.25L71.75 61.25Q71.88 61.25 71.94 61.31Q72 61.38 72 61.38L72 61.38Q72.13 61.38 72.25 61.25Q72.38 61.13 72.38 61L72.38 61Q72.38 60.88 72.38 60.81Q72.38 60.75 72.25 60.63L72.25 60.63Q71.50 60 70.63 59.63Q69.75 59.25 68.63 59.25L68.63 59.25Q68.63 59.25 68.56 59.25Q68.50 59.25 68.50 59.25L68.50 59.25Q66.38 59.25 64.94 60.75Q63.50 62.25 63.50 64.38L63.50 64.38Q63.50 64.38 63.50 64.44Q63.50 64.50 63.50 64.50L63.50 64.50L63.50 64.50Q63.50 64.50 63.44 64.56Q63.38 64.63 63.38 64.63L63.38 64.63Q63.38 66.75 64.88 68.25Q66.38 69.75 68.50 69.75L68.50 69.75Q68.50 69.75 68.50 69.75Q68.50 69.75 68.50 69.75L68.50 69.75ZM79.75 60.13L79.75 69.25Q79.75 69.38 79.81 69.50Q79.88 69.63 80.13 69.63L80.13 69.63Q80.25 69.63 80.38 69.50Q80.50 69.38 80.50 69.25L80.50 69.25L80.50 60.13L83.75 60.13Q83.88 60.13 84 60Q84.13 59.88 84.13 59.75L84.13 59.75Q84.13 59.63 84 59.50Q83.88 59.38 83.75 59.38L83.75 59.38L76.50 59.38Q76.25 59.38 76.19 59.50Q76.13 59.63 76.13 59.75L76.13 59.75Q76.13 59.88 76.19 60Q76.25 60.13 76.50 60.13L76.50 60.13L79.75 60.13ZM88.50 59.88L88.50 69.25Q88.50 69.38 88.63 69.50Q88.75 69.63 88.88 69.63L88.88 69.63Q89.13 69.63 89.19 69.50Q89.25 69.38 89.25 69.25L89.25 69.25L89.25 65.38L92.63 65.38L95.75 69.50Q95.88 69.50 95.94 69.56Q96 69.63 96.13 69.63L96.13 69.63Q96.25 69.63 96.38 69.50Q96.50 69.38 96.50 69.25L96.50 69.25Q96.50 69.13 96.44 69.06Q96.38 69 96.38 69L96.38 69L93.50 65.25Q94.75 65.13 95.63 64.38Q96.50 63.63 96.50 62.38L96.50 62.38L96.50 62.38Q96.50 62.38 96.50 62.38Q96.50 62.38 96.50 62.38L96.50 62.38Q96.50 61.75 96.25 61.25Q96 60.75 95.75 60.50L95.75 60.50Q95.13 60 94.44 59.69Q93.75 59.38 93 59.38L93 59.38Q93 59.38 92.94 59.38Q92.88 59.38 92.88 59.50L92.88 59.50L88.88 59.50Q88.75 59.50 88.63 59.56Q88.50 59.63 88.50 59.88L88.50 59.88ZM92.75 64.63L89.25 64.63L89.25 60.13L92.75 60.13Q94.13 60.13 94.94 60.69Q95.75 61.25 95.75 62.38L95.75 62.38L95.75 62.38Q95.75 63.38 94.88 64Q94 64.63 92.75 64.63L92.75 64.63ZM106 69.75L106 69.75Q106 69.75 106 69.75Q106 69.75 106 69.75L106 69.75Q108.13 69.75 109.63 68.25Q111.13 66.75 111.13 64.63L111.13 64.63Q111.13 64.63 111.13 64.56Q111.13 64.50 111.13 64.50L111.13 64.50L111.13 64.50Q111.13 64.50 111.13 64.44Q111.13 64.38 111.13 64.25L111.13 64.25Q111.13 62.13 109.63 60.63Q108.13 59.13 106 59.13L106 59.13Q103.88 59.13 102.38 60.63Q100.88 62.13 100.88 64.25L100.88 64.25Q100.88 64.38 100.88 64.44Q100.88 64.50 100.88 64.50L100.88 64.50L100.88 64.50Q100.88 64.50 100.88 64.56Q100.88 64.63 100.88 64.63L100.88 64.63Q100.88 66.75 102.38 68.25Q103.88 69.75 106 69.75L106 69.75Q106 69.75 106 69.75Q106 69.75 106 69.75L106 69.75ZM106 69.13L106 69.13Q104.25 69 102.94 67.75Q101.63 66.50 101.63 64.63L101.63 64.63Q101.63 64.63 101.63 64.56Q101.63 64.50 101.63 64.50L101.63 64.50L101.63 64.50Q101.63 64.50 101.63 64.44Q101.63 64.38 101.63 64.25L101.63 64.25Q101.63 62.50 102.94 61.19Q104.25 59.88 106 59.88L106 59.88Q107.75 59.88 109.06 61.19Q110.38 62.50 110.38 64.38L110.38 64.38Q110.38 64.38 110.38 64.44Q110.38 64.50 110.38 64.50L110.38 64.50L110.38 64.50Q110.38 64.50 110.38 64.56Q110.38 64.63 110.38 64.75L110.38 64.75Q110.38 66.50 109.06 67.81Q107.75 69.13 106 69.13L106 69.13ZM115.88 59.75L115.88 69.25Q115.88 69.38 116 69.50Q116.13 69.63 116.25 69.63L116.25 69.63Q116.50 69.63 116.56 69.50Q116.63 69.38 116.63 69.25L116.63 69.25L116.63 60.50L123.63 69.38Q123.75 69.50 123.81 69.56Q123.88 69.63 124 69.63L124 69.63L124.13 69.63Q124.13 69.63 124.13 69.63Q124.13 69.63 124.13 69.63L124.13 69.63Q124.25 69.63 124.31 69.56Q124.38 69.50 124.38 69.38L124.38 69.38Q124.38 69.38 124.38 69.31Q124.38 69.25 124.38 69.25L124.38 69.25L124.38 59.75Q124.38 59.50 124.31 59.44Q124.25 59.38 124 59.38L124 59.38Q123.88 59.38 123.75 59.44Q123.63 59.50 123.63 59.75L123.63 59.75L123.63 68.25L116.75 59.63Q116.75 59.50 116.63 59.44Q116.50 59.38 116.38 59.38L116.38 59.38L116.25 59.38Q116.13 59.38 116 59.50Q115.88 59.63 115.88 59.75L115.88 59.75ZM9.63 58.75L9.63 58.75Q7.75 58.38 6.44 58.75Q5.13 59.13 4.50 60.13L4.50 60.13Q4.38 60.38 4.31 60.75Q4.25 61.13 4.25 61.63L4.25 61.63Q4.25 62.25 4.44 62.75Q4.63 63.25 4.88 63.75L4.88 63.75Q4.88 63.75 4.94 63.81Q5 63.88 5.13 63.88L5.13 63.88Q5.25 63.88 5.31 63.81Q5.38 63.75 5.38 63.63L5.38 63.63Q5.38 63.63 5.38 63.56Q5.38 63.50 5.38 63.50L5.38 63.50Q5 63.13 4.81 62.63Q4.63 62.13 4.63 61.63L4.63 61.63Q4.63 61.25 4.75 60.94Q4.88 60.63 5 60.25L5 60.25Q5.38 59.50 6.63 59.19Q7.88 58.88 9.50 59.25L9.50 59.25Q9.50 59.25 9.50 59.25Q9.50 59.25 9.50 59.25L9.50 59.25Q9.63 59.25 9.69 59.19Q9.75 59.13 9.75 59L9.75 59Q9.75 58.88 9.69 58.81Q9.63 58.75 9.63 58.75L9.63 58.75ZM6.13 65.50L6.13 65.50Q7 66.25 7.88 67Q8.75 67.75 9.75 68.25L9.75 68.25Q12.38 69.88 14.94 70.25Q17.50 70.63 18.88 69.63L18.88 69.63Q18.88 69.63 18.88 69.56Q18.88 69.50 18.88 69.50L18.88 69.50Q18.88 69.38 18.81 69.31Q18.75 69.25 18.63 69.25L18.63 69.25Q18.63 69.25 18.63 69.25Q18.63 69.25 18.50 69.25L18.50 69.25Q17.38 70.13 14.94 69.75Q12.50 69.38 10 67.88L10 67.88Q9 67.38 8.13 66.63Q7.25 65.88 6.50 65.13L6.50 65.13Q6.50 65.13 6.44 65.13Q6.38 65.13 6.38 65.13L6.38 65.13Q6.25 65.13 6.19 65.19Q6.13 65.25 6.13 65.38L6.13 65.38Q6.13 65.38 6.13 65.38Q6.13 65.38 6.13 65.50L6.13 65.50ZM18.25 65.25L18.25 65.13Q19.50 63.75 19.88 62.44Q20.25 61.13 19.63 60.13L19.63 60.13Q19.13 59.50 18.38 59.06Q17.63 58.63 16.75 58.63L16.75 58.63Q16.63 58.63 16.50 58.63Q16.38 58.63 16.38 58.63L16.38 58.63Q16.25 58.63 16.19 58.69Q16.13 58.75 16.13 58.88L16.13 58.88Q16.13 59 16.19 59.06Q16.25 59.13 16.38 59.13L16.38 59.13Q16.38 59.13 16.50 59.13Q16.63 59.13 16.75 59.13L16.75 59.13Q17.50 59.13 18.13 59.44Q18.75 59.75 19.25 60.38L19.25 60.38Q19.75 61.25 19.38 62.44Q19 63.63 17.88 64.88L17.88 64.88Q17.88 64.88 17.88 64.94Q17.88 65 17.88 65L17.88 65Q17.88 65.13 17.94 65.19Q18 65.25 18.13 65.25L18.13 65.25Q18.13 65.25 18.19 65.25Q18.25 65.25 18.25 65.25L18.25 65.25ZM14.25 58.88L14.25 58.88Q13 59.13 11.94 59.56Q10.88 60 9.88 60.63L9.88 60.63Q7.13 62.13 5.56 64.19Q4 66.25 4.25 68L4.25 68Q4.25 68 4.31 68.06Q4.38 68.13 4.50 68.13L4.50 68.13Q4.63 68.13 4.69 68.06Q4.75 68 4.75 67.88L4.75 67.88Q4.50 66.38 6 64.44Q7.50 62.50 10.13 61L10.13 61Q11 60.50 12.06 60.06Q13.13 59.63 14.25 59.38L14.25 59.38Q14.38 59.38 14.50 59.25Q14.63 59.13 14.63 59L14.63 59Q14.63 59 14.56 58.88Q14.50 58.75 14.38 58.75L14.38 58.75Q14.25 58.75 14.25 58.81Q14.25 58.88 14.25 58.88L14.25 58.88ZM8.38 69.50L8.38 69.50Q9 71.25 10 72.25Q11 73.25 12.13 73.25L12.13 73.25Q13 73.13 13.81 72.56Q14.63 72 15 71.13L15 71.13Q15 71.13 15.06 71.06Q15.13 71 15.13 71L15.13 71Q15.13 70.88 15 70.81Q14.88 70.75 14.88 70.75L14.88 70.75Q14.75 70.75 14.69 70.75Q14.63 70.75 14.63 70.88L14.63 70.88Q14.25 71.63 13.56 72.13Q12.88 72.63 12.13 72.75L12.13 72.75Q11.13 72.75 10.25 71.81Q9.38 70.88 8.88 69.38L8.88 69.38Q8.88 69.25 8.81 69.25Q8.75 69.25 8.63 69.25L8.63 69.25Q8.50 69.25 8.44 69.31Q8.38 69.38 8.38 69.50L8.38 69.50Q8.38 69.50 8.38 69.50Q8.38 69.50 8.38 69.50L8.38 69.50ZM15.88 69L15.88 69Q16.25 68 16.44 66.88Q16.63 65.75 16.63 64.50L16.63 64.50Q16.63 64.50 16.63 64.50Q16.63 64.50 16.63 64.38L16.63 64.38Q16.63 61.38 15.63 59Q14.63 56.63 13.13 55.88L13.13 55.88Q13.13 55.88 13.13 55.88Q13.13 55.88 13 55.88L13 55.88Q13 55.88 12.88 55.94Q12.75 56 12.75 56.13L12.75 56.13Q12.75 56.25 12.81 56.31Q12.88 56.38 12.88 56.38L12.88 56.38Q14.25 57 15.19 59.25Q16.13 61.50 16.13 64.38L16.13 64.38Q16.13 64.50 16.13 64.50Q16.13 64.50 16.13 64.50L16.13 64.50Q16.13 65.75 15.94 66.81Q15.75 67.88 15.38 69L15.38 69Q15.50 68.88 15.50 68.88Q15.50 68.88 15.50 68.88L15.50 68.88Q15.50 69 15.56 69.06Q15.63 69.13 15.75 69.13L15.75 69.13Q15.75 69.13 15.81 69.06Q15.88 69 15.88 69L15.88 69ZM20.63 68.88L20.63 68.75Q20.50 68.38 20.19 68Q19.88 67.63 19.38 67.63L19.38 67.63Q18.88 67.63 18.56 68Q18.25 68.38 18.25 68.88L18.25 68.88Q18.25 69.25 18.56 69.63Q18.88 70 19.38 70L19.38 70Q19.88 70 20.25 69.63Q20.63 69.25 20.63 68.88L20.63 68.88ZM20.13 68.75L20.13 68.75Q20.13 69.13 19.88 69.31Q19.63 69.50 19.38 69.50L19.38 69.50Q19.13 69.50 18.94 69.31Q18.75 69.13 18.75 68.75L18.75 68.75Q18.75 68.50 18.94 68.31Q19.13 68.13 19.38 68.13L19.38 68.13Q19.63 68.13 19.88 68.31Q20.13 68.50 20.13 68.75ZM4.75 70L4.75 70Q5.25 70 5.63 69.63Q6 69.25 6 68.88L6 68.88Q6 68.38 5.63 68Q5.25 67.63 4.75 67.63L4.75 67.63Q4.25 67.63 3.94 68Q3.63 68.38 3.63 68.75L3.63 68.75Q3.63 68.75 3.63 68.81Q3.63 68.88 3.63 68.88L3.63 68.88Q3.63 69.25 3.94 69.63Q4.25 70 4.75 70L4.75 70Q4.75 70 4.75 70Q4.75 70 4.75 70ZM4.75 69.50L4.75 69.50Q4.50 69.50 4.31 69.31Q4.13 69.13 4.13 68.88L4.13 68.88Q4.13 68.50 4.31 68.31Q4.50 68.13 4.75 68.13L4.75 68.13Q5 68.13 5.25 68.31Q5.50 68.50 5.50 68.88L5.50 68.88Q5.50 69.13 5.25 69.31Q5 69.50 4.75 69.50ZM12.13 57.13L12.13 57.13Q12.63 57.13 12.94 56.81Q13.25 56.50 13.25 56L13.25 56Q13.25 55.50 12.94 55.13Q12.63 54.75 12.13 54.75L12.13 54.75Q11.63 54.75 11.25 55.13Q10.88 55.50 10.88 56L10.88 56Q10.88 56 10.88 56Q10.88 56 10.88 56L10.88 56Q10.88 56.50 11.25 56.81Q11.63 57.13 12.13 57.13L12.13 57.13ZM12.13 56.63L12.13 56.63Q11.75 56.63 11.56 56.44Q11.38 56.25 11.38 56L11.38 56Q11.38 55.75 11.56 55.50Q11.75 55.25 12.13 55.25L12.13 55.25Q12.38 55.25 12.56 55.50Q12.75 55.75 12.75 56L12.75 56Q12.75 56.25 12.56 56.44Q12.38 56.63 12.13 56.63ZM12.25 65.25L12.25 65.25Q12.25 65.25 12.19 65.31Q12.13 65.38 12.13 65.38L12.13 65.38Q11.75 65.38 11.50 65.13Q11.25 64.88 11.25 64.50L11.25 64.50Q11.25 64.13 11.50 63.88Q11.75 63.63 12.13 63.63L12.13 63.63Q12.38 63.63 12.63 63.81Q12.88 64 12.88 64.25L12.88 64.25Q12.88 64.38 12.88 64.38Q12.88 64.38 12.88 64.50L12.88 64.50Q12.88 64.75 12.69 65Q12.50 65.25 12.25 65.25L12.25 65.25Z"/></svg>