<svg xmlns="http://www.w3.org/2000/svg" xmlns:xlink="http://www.w3.org/1999/xlink" width="128" height="128"><path fill="#000000" d="M64 1.25L64 1.25Q51 1.25 39.63 6.25L39.63 6.25Q28.13 11.13 19.63 19.69Q11.13 28.25 6.25 39.63L6.25 39.63Q1.25 51 1.25 64L1.25 64Q1.25 77 6.25 88.38L6.25 88.38Q11.13 99.75 19.63 108.31Q28.13 116.88 39.63 121.75L39.63 121.75Q51 126.75 64 126.75L64 126.75Q77 126.75 88.38 121.75L88.38 121.75Q99.75 116.88 108.31 108.38Q116.88 99.88 121.75 88.38L121.75 88.38Q126.75 77 126.75 64L126.75 64Q126.75 51 121.75 39.63L121.75 39.63Q116.88 28.25 108.31 19.69Q99.75 11.13 88.38 6.25L88.38 6.25Q77 1.25 64 1.25ZM64 124.75L64 124.75Q51.50 124.75 40.38 119.88L40.38 119.88Q29.38 115.13 21.13 106.88Q12.88 98.63 8.13 87.63L8.13 87.63Q3.25 76.63 3.25 64L3.25 64Q3.25 51.50 8.13 40.38L8.13 40.38Q12.88 29.38 21.13 21.13Q29.38 12.88 40.38 8.13L40.38 8.13Q51.38 3.25 64 3.25L64 3.25Q76.50 3.25 87.63 8.13L87.63 8.13Q98.63 12.88 106.88 21.13Q115.13 29.38 119.88 40.38L119.88 40.38Q124.75 51.38 124.75 64L124.75 64Q124.75 76.50 119.88 87.63L119.88 87.63Q115.13 98.63 106.88 106.88Q98.63 115.13 87.63 119.88L87.63 119.88Q76.63 124.75 64 124.75ZM64 17L64 8L65 8L65 17L64 17ZM64 119L64 110L65 110L65 119L64 119ZM71.63 18.13L73.25 9.25L74.13 9.38L72.63 18.38L71.63 18.13ZM56.38 109.50L54.75 118.50L53.88 118.38L55.38 109.38L56.38 109.50ZM79.38 20.13L82.50 11.63L83.38 12L80.25 20.50L79.38 20.13ZM48.63 107.63L45.50 116.13L44.63 115.75L47.63 107.25L48.63 107.63ZM53.88 9.38L54.88 9.13L56.50 18.13L55.50 18.25L53.88 9.38ZM74.13 118.38L73.13 118.63L71.63 109.63L72.50 109.50L74.13 118.38ZM44.63 11.88L45.50 11.50L48.63 20.13L47.63 20.38L44.63 11.88ZM83.38 115.75L82.50 116.13L79.38 107.63L80.25 107.25L83.38 115.75ZM35.75 16.13L36.63 15.63L41.25 23.50L40.38 24L35.75 16.13ZM92.25 111.63L91.38 112.13L86.88 104.25L87.75 103.75L92.25 111.63ZM28 21.63L28.75 21L34.63 28L33.88 28.63L28 21.63ZM100 106L99.25 106.63L93.38 99.75L94.25 99L100 106ZM21.13 28.50L21.75 27.75L28.75 33.63L28.13 34.38L21.13 28.50ZM106.75 99.13L106.13 99.88L99.25 94L99.88 93.25L106.75 99.13ZM15.75 36.63L16.25 35.75L24.13 40.25L23.63 41.13L15.75 36.63ZM112.25 91.25L111.75 92L103.88 87.50L104.38 86.63L112.25 91.25ZM11.63 45.38L12 44.50L20.63 47.63L20.25 48.50L11.63 45.38ZM116.25 82.38L116 83.25L107.38 80.13L107.75 79.25L116.25 82.38ZM9.25 54.75L9.50 53.75L18.38 55.25L18.25 56.25L9.25 54.75ZM118.75 73L118.50 74L109.63 72.38L109.75 71.50L118.75 73ZM9 64L9 63L18 63L18 64L9 64ZM111 64L111 63L120 63L120 64L111 64ZM9.50 74L9.25 73L18.25 71.38L18.38 72.38L9.50 74ZM118.50 53.75L118.75 54.75L109.75 56.25L109.63 55.25L118.50 53.75ZM12 83.38L11.75 82.38L20.25 79.25L20.63 80.25L12 83.38ZM115.88 44.38L116.25 45.38L107.75 48.38L107.38 47.50L115.88 44.38ZM16.25 92L15.75 91.13L23.63 86.63L24.13 87.50L16.25 92ZM111.75 35.75L112.25 36.63L104.38 41.13L103.88 40.25L111.75 35.75ZM21.13 99.25L28.13 93.38L28.75 94.13L21.75 100L21.13 99.25ZM106.13 27.88L106.88 28.63L99.88 34.50L99.25 33.75L106.13 27.88ZM28.75 106.75L28 106.13L33.75 99.13L34.63 99.75L28.75 106.75ZM99.25 21.13L100 21.75L94.25 28.63L93.50 28L99.25 21.13ZM36.75 112.13L35.88 111.63L40.38 103.75L41.25 104.25L36.75 112.13ZM91.25 15.50L92.13 16L87.63 23.88L86.75 23.38L91.25 15.50ZM58.63 8.63L59.63 8.63L60.13 13.50L59.13 13.50L58.63 8.63ZM69.38 119L68.38 119.13L68 114.25L69 114.13L69.38 119ZM49.13 10.38L50.13 10.13L51.38 15L50.50 15.25L49.13 10.38ZM78.88 117.38L77.88 117.63L76.50 112.75L77.50 112.50L78.88 117.38ZM40.13 13.75L41 13.38L43.13 17.88L42.25 18.25L40.13 13.75ZM87.88 113.88L87 114.38L84.88 109.88L85.75 109.38L87.88 113.88ZM31.75 18.75L32.50 18.13L35.38 22.25L34.63 22.88L31.75 18.75ZM96.25 109L95.50 109.63L92.63 105.50L93.38 104.88L96.25 109ZM24.38 25L25.13 24.25L28.50 27.75L27.88 28.38L24.38 25ZM103.63 102.75L102.88 103.38L99.50 100L100.13 99.25L103.63 102.75ZM18.25 32.50L18.75 31.63L22.88 34.50L22.38 35.38L18.25 32.50ZM109.75 95.25L109.25 96.13L105.13 93.25L105.63 92.38L109.75 95.25ZM13.50 40.88L13.88 40L18.50 42.13L18 43L13.50 40.88ZM114.50 86.88L114.13 87.75L109.63 85.63L110 84.75L114.50 86.88ZM10.25 49.88L10.50 49L15.38 50.25L15.13 51.25L10.25 49.88ZM117.75 77.75L117.50 78.75L112.63 77.38L112.88 76.38L117.75 77.75ZM8.63 59.50L8.75 58.50L13.63 58.88L13.50 59.88L8.63 59.50ZM119.38 68.25L119.25 69.25L114.38 68.75L114.38 67.75L119.38 68.25ZM8.75 69.25L8.63 68.25L13.50 67.75L13.63 68.75L8.75 69.25ZM119.25 58.50L119.38 59.50L114.50 60L114.38 59L119.25 58.50ZM10.50 78.75L10.25 77.75L15.13 76.50L15.38 77.38L10.50 78.75ZM117.50 49L117.75 50L112.88 51.38L112.63 50.38L117.50 49ZM14 87.75L13.50 86.88L18.13 84.75L18.50 85.63L14 87.75ZM114 39.88L114.38 40.88L109.88 43L109.50 42L114 39.88ZM18.88 96.13L18.25 95.25L22.38 92.50L23 93.25L18.88 96.13ZM109.13 31.63L109.75 32.38L105.63 35.25L105 34.38L109.13 31.63ZM35.50 105.50L32.63 109.63L31.75 109L34.63 104.88L35.50 105.50ZM92.50 22.25L95.38 18.13L96.25 18.75L93.38 22.88L92.50 22.25ZM43.13 109.88L41 114.38L40.13 113.88L42.25 109.38L43.13 109.88ZM84.88 18L87 13.38L87.88 13.88L85.75 18.38L84.88 18ZM51.38 112.75L50.13 117.50L49.13 117.25L50.38 112.50L51.38 112.75ZM76.50 15L77.88 10.13L78.88 10.38L77.50 15.25L76.50 15ZM60.13 114.25L59.63 119.13L58.63 119L59.13 114.13L60.13 114.25ZM67.88 13.50L68.38 8.63L69.38 8.63L68.88 13.50L67.88 13.50ZM106.13 21.63L58.75 58.75L21.63 106.13L69.75 69.75L106.13 21.63Z"/></svg>