<svg xmlns="http://www.w3.org/2000/svg" xmlns:xlink="http://www.w3.org/1999/xlink" width="128" height="128"><path fill="#ffffff" d="M32.75 112.63L32.75 112.63Q30.25 111.63 29.06 110.63Q27.88 109.63 27.88 107.88L27.88 107.88Q27.88 106.63 28.94 105.44Q30 104.25 32.50 104.25L32.50 104.25Q34.13 104.25 35.31 104.69Q36.50 105.13 37.13 105.50L37.13 105.50L38 102.88Q37.13 102.50 35.81 102.13Q34.50 101.75 32.63 101.75L32.63 101.75Q29.13 101.75 26.94 103.63Q24.75 105.50 24.75 108.25L24.75 108.25Q24.75 110.88 26.50 112.50Q28.25 114.13 31.25 115.25L31.25 115.25Q33.63 116.13 34.69 117.25Q35.75 118.38 35.75 120L35.75 120Q35.75 121.75 34.44 122.94Q33.13 124.13 30.75 124.13L30.75 124.13Q29 124.13 27.56 123.63Q26.13 123.13 25.13 122.50L25.13 122.50L24.25 125.13Q25.25 125.75 27 126.19Q28.75 126.63 30.50 126.63L30.50 126.63Q34.75 126.63 36.88 124.56Q39 122.50 39 119.63L39 119.63Q38.88 117 37.31 115.38Q35.75 113.75 32.75 112.63ZM55.25 115.63L55 115.63Q55 113 53.81 110.75Q52.63 108.50 48.63 108.50L48.63 108.50Q47 108.50 45.50 108.94Q44 109.38 43 110L43 110L43.75 112.13Q44.75 111.50 45.88 111.13Q47 110.75 48.25 110.75L48.25 110.75Q50.88 110.75 51.50 112.25Q52.13 113.75 52.13 114.75L52.13 114.75L52.13 115.25Q47.63 115.25 44.69 116.88Q41.75 118.50 41.75 121.75L41.75 121.75Q41.75 123.63 43.19 125.13Q44.63 126.63 47.25 126.63L47.25 126.63Q49.13 126.63 50.50 126Q51.88 125.38 52.63 123.88L52.63 123.88L52.75 123.88L53 125.88L55.88 125.88Q55.75 125.13 55.50 124.19Q55.25 123.25 55.25 122.13L55.25 122.13L55.25 115.63ZM52.13 120.50L52 120.50Q52 120.75 52.06 121Q52.13 121.25 52 121.50L52 121.50Q51.63 122.63 50.56 123.50Q49.50 124.38 47.88 124.38L47.88 124.38Q46.75 124.38 45.75 123.63Q44.75 122.88 44.75 121.38L44.75 121.38Q44.75 118.88 47.31 118.13Q49.88 117.38 52.13 117.50L52.13 117.50L52.13 120.50ZM67.38 102.88L67.38 102.88Q68.13 102.88 68.56 103Q69 103.13 69.38 103.25L69.38 103.25L69.75 100.88Q69.38 100.63 68.63 100.50Q67.88 100.38 67.13 100.38L67.13 100.38Q66 100.38 64.88 100.75Q63.75 101.13 62.88 102L62.88 102Q61.75 103 61.38 104.63Q61 106.25 61 108.13L61 108.13L61 109L58 109L58 111L61 111L61 126L64 126L64 111L68 111L68 109L64 109L64 108Q64 106 64.69 104.44Q65.38 102.88 67.38 102.88ZM83.25 115.63L83 115.63Q83 113 81.75 110.75Q80.50 108.50 76.50 108.50L76.50 108.50Q74.88 108.50 73.38 108.94Q71.88 109.38 70.75 110L70.75 110L71.63 112.13Q72.50 111.50 73.69 111.13Q74.88 110.75 76.13 110.75L76.13 110.75Q78.75 110.75 79.38 112.25Q80 113.75 80 114.75L80 114.75L80 115.25Q74.75 115.25 72.19 116.88Q69.63 118.50 69.63 121.75L69.63 121.75Q69.63 123.63 70.94 125.13Q72.25 126.63 75 126.63L75 126.63Q76.88 126.63 78.25 126Q79.63 125.38 80.38 123.88L80.38 123.88L80.50 123.88L80.75 125.88L83.75 125.88Q83.50 125.13 83.38 124.19Q83.25 123.25 83.25 122.13L83.25 122.13L83.25 115.63ZM79.88 120.50L80 120.50Q80 120.75 80 121Q80 121.25 79.88 121.50L79.88 121.50Q79.50 122.63 78.44 123.50Q77.38 124.38 75.75 124.38L75.75 124.38Q74.50 124.38 73.56 123.63Q72.63 122.88 72.63 121.38L72.63 121.38Q72.63 118.88 75.13 118.13Q77.63 117.38 79.88 117.50L79.88 117.50L79.88 120.50ZM91.25 112L91.25 112L91.25 112L91.13 109L88.25 109Q88.38 110.50 88.25 111.63Q88.13 112.75 88.13 114.25L88.13 114.25L88.13 126L92.13 126L92.13 117Q92.13 116.63 92 116.25Q91.88 115.88 92 115.50L92 115.50Q92.25 113.75 93.38 112.56Q94.50 111.38 96.13 111.38L96.13 111.38Q96.38 111.38 96.75 111.38Q97.13 111.38 97.13 111.50L97.13 111.50L97.13 108.50Q97.13 108.38 96.75 108.31Q96.38 108.25 96.25 108.25L96.25 108.25Q94.50 108.38 93.19 109.44Q91.88 110.50 91.25 112ZM100 126L100 109L103 109L103 126L100 126ZM101.88 102L101.88 102Q101 102 100.44 102.56Q99.88 103.13 99.88 104L99.88 104Q99.88 104.88 100.44 105.38Q101 105.88 101.75 105.88L101.75 105.88Q102.75 105.88 103.31 105.31Q103.88 104.75 103.75 104L103.75 104Q103.75 103.13 103.25 102.56Q102.75 102 101.88 102ZM64 2.25L64 2.25Q54.13 2.25 45.50 6L45.50 6Q36.88 9.75 30.44 16.19Q24 22.63 20.25 31.38L20.25 31.38Q16.50 40 16.50 49.75L16.50 49.75Q16.50 59.63 20.25 68.25L20.25 68.25Q24 76.88 30.44 83.38Q36.88 89.88 45.50 93.50L45.50 93.50Q54.13 97.25 64 97.25L64 97.25Q73.88 97.25 82.50 93.63L82.50 93.63Q91.13 89.88 97.56 83.38Q104 76.88 107.75 68.25L107.75 68.25Q111.50 59.63 111.50 49.75L111.50 49.75Q111.50 40 107.75 31.38L107.75 31.38Q104 22.63 97.56 16.19Q91.13 9.75 82.50 6L82.50 6Q73.88 2.25 64 2.25ZM64 95.75L64 95.75Q54.50 95.75 46.13 92.13L46.13 92.13Q37.75 88.50 31.56 82.25Q25.38 76 21.75 67.63L21.75 67.63Q18.13 59.25 18.13 49.75L18.13 49.75Q18.13 40.38 21.75 32L21.75 32Q25.38 23.63 31.56 17.31Q37.75 11 46.13 7.38L46.13 7.38Q54.50 3.75 64 3.75L64 3.75Q73.50 3.75 81.88 7.38L81.88 7.38Q90.25 11 96.44 17.25Q102.63 23.50 106.25 31.88L106.25 31.88Q109.88 40.25 109.88 49.75L109.88 49.75Q109.88 59.13 106.25 67.50L106.25 67.50Q102.63 75.88 96.44 82.19Q90.25 88.50 81.88 92.13L81.88 92.13Q73.50 95.75 64 95.75ZM64 14L64 7L65 7L65 14L64 14ZM64 91L64 85L65 85L65 91L64 91ZM69.75 15.13L70.88 8.25L71.63 8.38L70.38 15.25L69.75 15.13ZM58.25 84.38L57.13 91.13L56.38 91L57.63 84.25L58.25 84.38ZM75.63 16.50L78 10.13L78.63 10.38L76.25 16.75L75.63 16.50ZM52.38 82.88L50 89.25L49.38 89L51.75 82.63L52.38 82.88ZM56.38 8.38L57.13 8.25L58.25 15.13L57.63 15.25L56.38 8.38ZM71.63 91L70.88 91.13L69.75 84.25L70.38 84.13L71.63 91ZM49.38 10.38L50 10.13L52.38 16.63L51.63 16.88L49.38 10.38ZM78.75 89.13L78.13 89.38L75.75 82.88L76.38 82.63L78.75 89.13ZM42.75 13.50L43.38 13.13L46.75 19.13L46.25 19.50L42.75 13.50ZM85.25 85.88L84.63 86.25L81.25 80.25L81.88 79.88L85.25 85.88ZM36.75 17.75L37.25 17.25L41.75 22.63L41.13 23L36.75 17.75ZM91.25 81.63L90.75 82.13L86.25 76.75L86.75 76.38L91.25 81.63ZM31.63 22.88L32 22.38L37.38 26.88L36.88 27.38L31.63 22.88ZM96.38 76.50L96 77L90.63 72.63L91.13 72L96.38 76.50ZM27.50 29L27.88 28.38L33.88 31.75L33.50 32.38L27.50 29ZM100.50 70.38L100.13 71L94.13 67.63L94.50 67L100.50 70.38ZM24.38 35.63L24.63 35L31.13 37.25L30.88 38L24.38 35.63ZM103.63 63.75L103.38 64.38L96.88 62L97.13 61.38L103.63 63.75ZM22.63 42.75L22.75 42L29.50 43.25L29.38 43.88L22.63 42.75ZM105.50 56.75L105.38 57.38L98.50 56.25L98.63 55.50L105.50 56.75ZM22 50L22 49L29 49L29 50L22 50ZM99 50L99 49L106 49L106 50L99 50ZM22.75 57.25L22.63 56.63L29.38 55.38L29.50 56.13L22.75 57.25ZM105.38 42.13L105.50 42.75L98.63 44L98.50 43.25L105.38 42.13ZM24.63 64.38L24.38 63.75L30.88 61.38L31.13 62L24.63 64.38ZM103.38 35L103.63 35.75L97.13 38.13L96.88 37.38L103.38 35ZM27.75 71L27.50 70.38L33.38 66.88L33.75 67.50L27.75 71ZM100.25 28.50L100.50 29.13L94.63 32.50L94.25 31.88L100.25 28.50ZM31.63 76.38L36.88 72L37.38 72.50L32 77L31.63 76.38ZM96 22.50L96.50 23L91.13 27.38L90.75 26.88L96 22.50ZM37.25 82.13L36.75 81.63L41.13 76.38L41.75 76.75L37.25 82.13ZM90.75 17.25L91.25 17.75L86.75 23L86.25 22.63L90.75 17.25ZM43.25 86.25L42.63 85.88L46.13 79.88L46.75 80.25L43.25 86.25ZM84.75 13.25L85.38 13.50L81.88 19.50L81.25 19.13L84.75 13.25ZM60 7.88L60.75 7.75L61.13 11.50L60.38 11.50L60 7.88ZM68 91.50L67.25 91.63L67 87.88L67.63 87.88L68 91.50ZM52.75 9.25L53.38 9L54.38 12.63L53.75 12.88L52.75 9.25ZM75.25 90.25L74.50 90.38L73.50 86.75L74.25 86.50L75.25 90.25ZM46 11.75L46.63 11.50L48.25 14.88L47.63 15.25L46 11.75ZM82.13 87.63L81.38 87.88L79.75 84.50L80.50 84.13L82.13 87.63ZM39.63 15.50L40.25 15L42.38 18.13L41.88 18.50L39.63 15.50ZM88.38 83.88L87.75 84.25L85.63 81.13L86.13 80.75L88.38 83.88ZM34 20.13L34.50 19.63L37.13 22.25L36.63 22.75L34 20.13ZM94 79.13L93.50 79.63L90.88 77.13L91.38 76.63L94 79.13ZM29.38 25.88L29.75 25.25L32.88 27.50L32.50 28L29.38 25.88ZM98.63 73.63L98.25 74.13L95.13 72L95.50 71.38L98.63 73.63ZM25.75 32.13L26 31.50L29.38 33.13L29.13 33.75L25.75 32.13ZM102.25 67.13L101.88 67.75L98.50 66.13L98.75 65.50L102.25 67.13ZM23.38 39.13L23.63 38.38L27.25 39.38L27 40.13L23.38 39.13ZM104.63 60.25L104.50 61L100.75 60L101 59.25L104.63 60.25ZM22.13 46.38L22.13 45.63L25.88 46L25.75 46.63L22.13 46.38ZM105.88 53.13L105.88 53.75L102.13 53.38L102.25 52.75L105.88 53.13ZM22.13 53.63L22.13 53L25.75 52.63L25.88 53.38L22.13 53.63ZM105.88 45.75L105.88 46.38L102.25 46.75L102.13 46L105.88 45.75ZM23.50 60.88L23.38 60.25L27 59.25L27.25 59.88L23.50 60.88ZM104.50 38.50L104.63 39.25L101 40.25L100.88 39.50L104.50 38.50ZM26 67.75L25.75 67.13L29.13 65.63L29.38 66.25L26 67.75ZM102 31.63L102.25 32.25L98.88 33.88L98.63 33.25L102 31.63ZM29.75 74L29.25 73.50L32.38 71.25L32.88 71.88L29.75 74ZM98.25 25.25L98.63 25.88L95.50 28L95.13 27.50L98.25 25.25ZM42.38 81.25L40.25 84.38L39.63 83.88L41.75 80.88L42.38 81.25ZM85.63 18.13L87.75 15L88.38 15.38L86.13 18.50L85.63 18.13ZM48.13 84.50L46.50 87.88L45.88 87.63L47.50 84.13L48.13 84.50ZM79.88 14.88L81.50 11.38L82.13 11.75L80.50 15.13L79.88 14.88ZM54.50 86.63L53.50 90.38L52.88 90.13L53.88 86.50L54.50 86.63ZM73.50 12.75L74.50 9L75.13 9.25L74.13 12.88L73.50 12.75ZM61 87.88L60.75 91.63L60 91.50L60.38 87.88L61 87.88ZM67 11.50L67.25 7.75L68 7.88L67.63 11.50L67 11.50ZM95.88 17.75L60 45.75L31.88 81.75L68.38 54.25L95.88 17.75Z"/></svg>