<svg xmlns="http://www.w3.org/2000/svg" xmlns:xlink="http://www.w3.org/1999/xlink" width="128" height="128"><path fill="#000000" d="M32.75 112.25L32.75 112.25Q30.25 111.25 29.06 110.25Q27.88 109.25 27.88 107.50L27.88 107.50Q27.88 106.25 28.94 105.06Q30 103.88 32.50 103.88L32.50 103.88Q34.13 103.88 35.31 104.31Q36.50 104.75 37.13 105.13L37.13 105.13L38 102.50Q37.13 102 35.81 101.63Q34.50 101.25 32.63 101.25L32.63 101.25Q29.13 101.25 26.94 103.13Q24.75 105 24.75 107.88L24.75 107.88Q24.75 110.50 26.50 112.13Q28.25 113.75 31.25 114.75L31.25 114.75Q33.63 115.75 34.69 116.88Q35.75 118 35.75 119.63L35.75 119.63Q35.75 121.38 34.44 122.56Q33.13 123.75 30.75 123.75L30.75 123.75Q29 123.75 27.56 123.25Q26.13 122.75 25.13 122.13L25.13 122.13L24.25 124.75Q25.25 125.38 27 125.81Q28.75 126.25 30.50 126.25L30.50 126.25Q34.75 126.25 36.88 124.13Q39 122 39 119.25L39 119.25Q38.88 116.63 37.31 115Q35.75 113.38 32.75 112.25ZM55.25 115.25L55 115.25Q55 112.63 53.81 110.44Q52.63 108.25 48.63 108.25L48.63 108.25Q47 108.25 45.50 108.63Q44 109 43 109.75L43 109.75L43.75 111.75Q44.75 111.25 45.88 110.88Q47 110.50 48.25 110.50L48.25 110.50Q50.88 110.50 51.50 112Q52.13 113.50 52.13 114.50L52.13 114.50L52.13 114.88Q47.63 114.88 44.69 116.56Q41.75 118.25 41.75 121.38L41.75 121.38Q41.75 123.25 43.19 124.88Q44.63 126.50 47.25 126.50L47.25 126.50Q49.13 126.50 50.50 125.63Q51.88 124.75 52.63 124L52.63 124L52.75 124L53 126L55.88 126Q55.75 125.13 55.50 124Q55.25 122.88 55.25 121.75L55.25 121.75L55.25 115.25ZM52.13 120.13L52 120.13Q52 120.38 52.06 120.63Q52.13 120.88 52 121.13L52 121.13Q51.63 122.25 50.56 123.13Q49.50 124 47.88 124L47.88 124Q46.75 124 45.75 123.25Q44.75 122.50 44.75 121L44.75 121Q44.75 118.50 47.31 117.75Q49.88 117 52.13 117.13L52.13 117.13L52.13 120.13ZM67.38 102.63L67.38 102.63Q68.13 102.63 68.56 102.75Q69 102.88 69.38 103L69.38 103L69.75 100.63Q69.38 100.38 68.63 100.25Q67.88 100.13 67.13 100.13L67.13 100.13Q66 100.13 64.88 100.50Q63.75 100.88 62.88 101.75L62.88 101.75Q61.75 102.75 61.38 104.31Q61 105.88 61 107.75L61 107.75L61 109L58 109L58 111L61 111L61 126L64 126L64 111L68 111L68 109L64 109L64 107.63Q64 105.63 64.69 104.13Q65.38 102.63 67.38 102.63L67.38 102.63ZM83.25 115.25L83 115.25Q83 112.63 81.75 110.44Q80.50 108.25 76.50 108.25L76.50 108.25Q74.88 108.25 73.38 108.63Q71.88 109 70.75 109.75L70.75 109.75L71.63 111.75Q72.50 111.25 73.69 110.88Q74.88 110.50 76.13 110.50L76.13 110.50Q78.75 110.50 79.38 112Q80 113.50 80 114.50L80 114.50L80 114.88Q74.75 114.88 72.19 116.56Q69.63 118.25 69.63 121.38L69.63 121.38Q69.63 123.25 70.94 124.88Q72.25 126.50 75 126.50L75 126.50Q76.88 126.50 78.25 125.63Q79.63 124.75 80.38 124L80.38 124L80.50 124L80.75 126L83.75 126Q83.50 125.13 83.38 124Q83.25 122.88 83.25 121.75L83.25 121.75L83.25 115.25ZM79.88 120.13L80 120.13Q80 120.38 80 120.63Q80 120.88 79.88 121.13L79.88 121.13Q79.50 122.25 78.44 123.13Q77.38 124 75.75 124L75.75 124Q74.50 124 73.56 123.25Q72.63 122.50 72.63 121L72.63 121Q72.63 118.50 75.13 117.75Q77.63 117 79.88 117.13L79.88 117.13L79.88 120.13ZM91.25 112L91.25 112L91.25 112L91.13 109L88.25 109Q88.38 109.75 88.25 111.13Q88.13 112.50 88.13 114L88.13 114L88.13 126L92.13 126L92.13 116.75Q92.13 116.38 92 116Q91.88 115.63 92 115.25L92 115.25Q92.25 113.38 93.38 112.25Q94.50 111.13 96.13 111.13L96.13 111.13Q96.38 111.13 96.75 111.13Q97.13 111.13 97.13 111.25L97.13 111.25L97.13 108.25Q97.13 108.13 96.75 108.13Q96.38 108.13 96.25 108.13L96.25 108.13Q94.50 108.13 93.19 109.31Q91.88 110.50 91.25 112L91.25 112ZM101.88 101.75L101.88 101.75Q101 101.75 100.44 102.31Q99.88 102.88 99.88 103.75L99.88 103.75Q99.88 104.50 100.44 105.06Q101 105.63 101.75 105.63L101.75 105.63Q102.75 105.63 103.31 105.06Q103.88 104.50 103.75 103.75L103.75 103.75Q103.75 102.88 103.25 102.31Q102.75 101.75 101.88 101.75ZM100 126L100 109L103 109L103 126L100 126ZM64 1.50L64 1.50Q54.25 1.50 45.75 5.13L45.75 5.13Q37.13 8.88 30.75 15.25Q24.38 21.63 20.75 30.13L20.75 30.13Q17 38.75 17 48.50L17 48.50Q17 58.25 20.63 66.75L20.63 66.75Q24.38 75.38 30.75 81.75Q37.13 88.13 45.63 91.75L45.63 91.75Q54.25 95.50 64 95.50L64 95.50Q73.75 95.50 82.25 91.88L82.25 91.88Q90.88 88.13 97.25 81.75Q103.63 75.38 107.25 66.88L107.25 66.88Q111 58.25 111 48.50L111 48.50Q111 38.75 107.25 30.25L107.25 30.25Q103.63 21.63 97.25 15.25Q90.88 8.88 82.25 5.25L82.25 5.25Q73.75 1.50 64 1.50ZM106 44.38L106.13 45.13L102.25 45.38L102.25 44.75L106 44.38ZM99 48L106 48L106 49L99 49L99 48ZM105.63 40.75L105.75 41.38L98.88 42.63L98.75 41.88L105.63 40.75ZM104.75 37.13L104.88 37.75L101.25 38.75L101.13 38.13L104.75 37.13ZM103.50 33.63L103.75 34.25L97.25 36.75L97 36L103.50 33.63ZM102.50 30.75L102.50 30.75L99 32.38L98.75 31.75L102.13 30.13L102.50 30.75ZM100.38 26.88L100.75 27.63L94.75 31.13L94.38 30.38L100.38 26.88ZM95.25 26L98.38 23.75L98.75 24.38L95.75 26.63L95.25 26ZM96.13 20.88L96.63 21.50L91.25 25.88L90.75 25.25L96.13 20.88ZM90.75 15.75L91.38 16.25L87 21.50L86.38 21L90.75 15.75ZM85.75 16.63L87.88 13.50L88.50 13.88L86.25 17L85.75 16.63ZM84.75 11.63L85.50 12L82 18L81.25 17.63L84.75 11.63ZM79.88 13.25L81.50 9.88L82.25 10.25L80.63 13.63L79.88 13.25ZM75.75 15L78.13 8.50L78.75 8.75L76.38 15.25L75.75 15ZM73.63 11.13L74.63 7.50L75.25 7.75L74.25 11.25L73.63 11.13ZM69.75 13.50L71 6.75L71.75 6.75L70.50 13.63L69.75 13.50ZM67 10L67.25 6.25L68 6.25L67.75 10.13L67 10ZM63 13L63 7L64 7L64 13L63 13ZM60 6.25L60.75 6.25L61 10L60.25 10.13L60 6.25ZM56.25 6.75L57 6.75L58.25 13.50L57.50 13.63L56.25 6.75ZM52.75 7.75L53.38 7.50L54.38 11.13L53.75 11.25L52.75 7.75ZM49.25 8.75L49.88 8.50L52.25 15L51.63 15.25L49.25 8.75ZM45.75 10.25L46.50 9.88L48.13 13.25L47.38 13.63L45.75 10.25ZM42.50 12L43.25 11.63L46.75 17.63L46 18L42.50 12ZM40.13 13.50L40.13 13.50L42.25 16.63L41.75 17L39.38 14L40.13 13.50ZM36.63 16.25L37.13 15.75L41.50 21.13L41 21.50L36.63 16.25ZM33.88 18.75L34.38 18.25L37.13 20.88L36.63 21.38L33.88 18.75ZM31.88 20.88L31.88 20.88L37.25 25.25L36.75 25.88L31.38 21.50L31.88 20.88ZM29.25 24.38L29.63 23.75L32.75 26L32.25 26.63L29.25 24.38ZM27.25 27.50L27.63 26.88L33.63 30.38L33.25 31L27.25 27.50ZM25.88 30.25L25.88 30.25L29.25 31.75L29 32.38L25.63 30.75L25.88 30.25ZM24.13 34.25L24.38 33.63L30.88 36L30.63 36.75L24.13 34.25ZM23.13 37.75L23.25 37.13L26.88 38.13L26.75 38.75L23.13 37.75ZM22.38 41.38L22.50 40.75L29.25 41.88L29.25 42.63L22.38 41.38ZM21.75 45L21.88 44.25L25.75 44.63L25.63 45.25L21.75 45ZM22 48L28 48L28 49L22 49L22 48ZM22 52.38L21.88 51.75L25.75 51.38L25.75 52.13L22 52.38ZM22.38 56L22.25 55.25L29.13 54.13L29.25 54.75L22.38 56ZM23.25 59.75L23.13 59L26.75 58L26.88 58.75L23.25 59.75ZM24.50 63.25L24.25 62.50L30.75 60.13L31 60.75L24.50 63.25ZM25.75 66.63L25.50 65.88L28.88 64.25L29.25 65L25.75 66.63ZM27.25 69.25L27.25 69.25L33.25 65.75L33.63 66.38L27.63 69.88L27.25 69.25ZM32.75 70.75L29.63 72.88L29.25 72.25L32.25 70.13L32.75 70.75ZM31.38 75.25L36.75 70.75L37.25 71.38L31.88 75.75L31.38 75.25ZM37.13 81L36.63 80.50L41 75.25L41.63 75.75L37.13 81ZM42.25 80.13L40.13 83.25L39.50 82.75L41.75 79.75L42.25 80.13ZM43.25 85.25L42.50 84.75L46 78.75L46.75 79.25L43.25 85.25ZM48.13 83.38L46.50 86.75L45.75 86.50L47.38 83.13L48.13 83.38ZM52.25 81.75L49.88 88.25L49.25 87.88L51.63 81.38L52.25 81.75ZM54.38 85.75L53.38 89.25L52.75 89.13L53.75 85.50L54.38 85.75ZM58.25 83.25L57 90L56.25 89.88L57.50 83.13L58.25 83.25ZM61 86.75L60.75 90.50L60 90.38L60.25 86.63L61 86.75ZM64 84L64 91L63 91L63 84L64 84ZM68 90.38L67.25 90.50L67 86.75L67.75 86.63L68 90.38ZM31.75 80.63L31.75 80.63L60 44.50L96.13 16.25L68.38 52.88L31.75 80.63ZM71.75 89.88L71 90L69.75 83.25L70.50 83.13L71.75 89.88ZM75.25 89.13L74.63 89.25L73.63 85.75L74.25 85.50L75.25 89.13ZM78.75 87.88L78.13 88.25L75.75 81.75L76.38 81.38L78.75 87.88ZM82.25 86.50L81.50 86.75L79.88 83.38L80.63 83.13L82.25 86.50ZM85.50 84.75L84.75 85.25L81.25 79.25L82 78.75L85.50 84.75ZM88.50 82.75L87.88 83.25L85.75 80.13L86.25 79.75L88.50 82.75ZM91.50 80.50L90.88 81L86.50 75.75L87.13 75.25L91.50 80.50ZM93.63 78.50L93.63 78.50L91 75.88L91.50 75.38L94.25 78.13L93.63 78.50ZM96.63 75.25L96.13 75.75L90.75 71.38L91.25 70.75L96.63 75.25ZM98.75 72.25L98.38 72.88L95.25 70.75L95.75 70.13L98.75 72.25ZM100.75 69.13L100.38 69.75L94.38 66.25L94.75 65.63L100.75 69.13ZM102.38 65.88L102.13 66.63L98.75 65L99 64.25L102.38 65.88ZM103.88 62.50L103.63 63.25L97.13 60.75L97.38 60.13L103.88 62.50ZM104.88 59L104.75 59.75L101.13 58.75L101.25 58L104.88 59ZM105.63 55.38L105.50 56.13L98.75 54.88L98.75 54.25L105.63 55.38ZM106.25 51.75L106.13 52.38L102.25 52.13L102.38 51.38L106.25 51.75Z"/></svg>