<svg xmlns="http://www.w3.org/2000/svg" xmlns:xlink="http://www.w3.org/1999/xlink" width="128" height="128"><path fill="#ffffff" d="M64 1.50L64 1.50Q51.13 1.50 39.63 6.38L39.63 6.38Q28.25 11.38 19.81 19.81Q11.38 28.25 6.38 39.63L6.38 39.63Q1.50 51 1.50 64L1.50 64Q1.50 76.88 6.38 88.38L6.38 88.38Q11.38 99.75 19.81 108.19Q28.25 116.63 39.63 121.63L39.63 121.63Q51 126.50 64 126.50L64 126.50Q76.88 126.50 88.38 121.63L88.38 121.63Q99.75 116.63 108.19 108.19Q116.63 99.75 121.63 88.38L121.63 88.38Q126.50 77 126.50 64L126.50 64Q126.50 51.13 121.63 39.63L121.63 39.63Q116.63 28.25 108.19 19.81Q99.75 11.38 88.38 6.38L88.38 6.38Q77 1.50 64 1.50ZM119.88 58.38L120 59.38L115 59.75L114.88 58.75L119.88 58.38ZM111 63L120 63L120 64L111 64L111 63ZM119.25 53.63L119.38 54.63L110.25 56.25L110.13 55.25L119.25 53.63ZM118.13 48.75L118.38 49.75L113.50 51.13L113.25 50.13L118.13 48.75ZM116.75 44.25L117 45.13L108.38 48.25L108.13 47.38L116.75 44.25ZM114.75 39.63L115.25 40.50L110.75 42.63L110.25 41.75L114.75 39.63ZM112.38 35.25L112.88 36.25L104.88 40.75L104.38 39.88L112.38 35.25ZM105.75 34.13L109.75 31.25L110.38 32L106.25 34.88L105.75 34.13ZM107.38 28.13L107.38 28.13L100.25 34L99.75 33.25L106.75 27.25L107.38 28.13ZM99.75 20.50L100.50 21.13L94.63 28.25L93.75 27.63L99.75 20.50ZM92.88 21.63L95.75 17.50L96.63 18.13L93.75 22.25L92.88 21.63ZM91.75 14.88L92.63 15.38L88 23.38L87.13 22.88L91.75 14.88ZM85.25 17.25L87.25 12.75L88.25 13.13L86.13 17.63L85.25 17.25ZM79.63 19.50L82.75 10.88L83.75 11.25L80.50 19.75L79.63 19.50ZM76.75 14.25L78.13 9.38L79.13 9.75L77.75 14.63L76.75 14.25ZM71.75 17.50L73.25 8.38L74.25 8.63L72.75 17.75L71.75 17.50ZM68 12.75L68.38 7.75L69.38 7.88L69 12.88L68 12.75ZM63 17L63 8L64 8L64 17L63 17ZM58.63 7.88L59.63 7.75L60 12.75L59 12.88L58.63 7.88ZM53.75 8.63L54.75 8.38L56.25 17.50L55.25 17.75L53.75 8.63ZM49.88 9.38L49.88 9.38L51.25 14.25L50.25 14.63L49 9.75L49.88 9.38ZM44.25 11.25L45.25 10.88L48.38 19.50L47.50 19.75L44.25 11.25ZM39.75 13.13L40.75 12.75L42.75 17.25L41.88 17.63L39.75 13.13ZM35.38 15.38L36.25 14.88L40.88 22.88L40 23.38L35.38 15.38ZM31.38 18.13L32.25 17.50L35.13 21.63L34.25 22.25L31.38 18.13ZM28.25 20.50L28.25 20.50L34.25 27.63L33.38 28.25L27.50 21.13L28.25 20.50ZM23.88 24.50L24.63 23.75L28.13 27.25L27.38 28L23.88 24.50ZM21.25 27.25L21.25 27.25L28.25 33.25L27.75 34L20.63 28.13L21.25 27.25ZM18.25 31.25L18.25 31.25L22.25 34.13L21.75 34.88L17.63 32L18.25 31.25ZM15 36.25L15.63 35.25L23.63 39.88L23 40.75L15 36.25ZM13.25 39.63L13.25 39.63L17.75 41.75L17.38 42.63L12.88 40.50L13.25 39.63ZM11 45.13L11.38 44.25L20 47.38L19.75 48.25L11 45.13ZM9.50 49.75L9.75 48.75L14.75 50.13L14.38 51.13L9.50 49.75ZM8.75 53.63L8.75 53.63L17.75 55.25L17.63 56.25L8.50 54.63L8.75 53.63ZM7.88 59.50L8 58.50L13 58.88L12.88 59.88L7.88 59.50ZM8 63L17 63L17 64L8 64L8 63ZM8.13 69.25L8 68.25L13 67.88L13.13 68.88L8.13 69.25ZM8.75 74.13L8.63 73.13L17.75 71.50L17.88 72.50L8.75 74.13ZM9.88 78.88L9.63 77.88L14.50 76.63L14.75 77.63L9.88 78.88ZM11 82.63L11 82.63L19.63 79.38L19.88 80.25L11.25 83.50L11 82.63ZM12.75 87.25L12.75 87.25L17.25 85.13L17.75 86L13.25 88.13L12.75 87.25ZM15.13 91.63L15.13 91.63L23.13 87L23.63 87.88L15.63 92.50L15.13 91.63ZM18.25 96.50L18.25 96.50L17.63 95.75L21.75 92.75L22.25 93.63L18.25 96.50ZM27.75 93.75L27.75 93.75L28.25 94.50L21.25 100.38L20.63 99.63L27.75 93.75ZM27.50 106.63L27.50 106.63L33.38 99.50L34.25 100.13L28.25 107.25L27.50 106.63ZM35.13 106.13L32.25 110.25L31.38 109.63L34.25 105.50L35.13 106.13ZM36.25 112.75L35.38 112.25L40 104.25L40.88 104.75L36.25 112.75ZM42.75 110.50L40.75 115L39.75 114.63L41.88 110.13L42.75 110.50ZM48.38 108.25L45.25 116.88L44.25 116.63L47.50 108L48.38 108.25ZM51.25 113.38L49.88 118.25L48.88 118L50.25 113.13L51.25 113.38ZM56.25 110.25L54.75 119.25L53.75 119.13L55.25 110L56.25 110.25ZM60 114.88L59.63 119.88L58.63 119.75L59 114.75L60 114.88ZM64 111L64 120L63 120L63 111L64 111ZM69.38 119.75L68.38 119.88L68 114.88L69 114.75L69.38 119.75ZM21 106.75L21 106.75L58.75 58.75L106.75 21L69.88 69.88L21 106.75ZM74.25 119.13L73.25 119.25L71.75 110.25L72.75 110L74.25 119.13ZM79 118L78.13 118.25L76.75 113.38L77.75 113.13L79 118ZM83.75 116.63L82.75 116.88L79.63 108.25L80.50 108L83.75 116.63ZM88.25 114.63L87.25 115L85.25 110.50L86.13 110.13L88.25 114.63ZM92.63 112.25L91.75 112.75L87.13 104.75L88 104.25L92.63 112.25ZM96.63 109.63L95.75 110.25L92.88 106.13L93.75 105.50L96.63 109.63ZM100.50 106.75L99.75 107.25L93.75 100.25L94.63 99.63L100.50 106.75ZM104.13 103.25L103.38 104L99.88 100.50L100.63 99.75L104.13 103.25ZM107.38 99.63L106.75 100.38L99.75 94.50L100.25 93.75L107.38 99.63ZM110.38 95.75L109.75 96.50L105.75 93.63L106.25 92.75L110.38 95.75ZM112.88 91.50L112.38 92.38L104.38 87.75L104.88 86.88L112.88 91.50ZM115.13 87.25L114.75 88.13L110.25 86L110.63 85.13L115.13 87.25ZM116.88 82.75L116.63 83.63L108 80.38L108.25 79.50L116.88 82.75ZM118.50 77.88L118.25 78.88L113.25 77.63L113.63 76.63L118.50 77.88ZM119.50 73.13L119.25 74.13L110.25 72.50L110.38 71.50L119.50 73.13ZM120.13 68.25L120 69.25L115 68.88L115.13 67.88L120.13 68.25Z"/></svg>