<svg xmlns="http://www.w3.org/2000/svg" xmlns:xlink="http://www.w3.org/1999/xlink" width="128" height="128"><path fill="#000000" d="M64 0L64 0Q50.75 0 39.13 5L39.13 5Q27.50 10.13 18.81 18.81Q10.13 27.50 5 39.13L5 39.13Q0 50.75 0 64L0 64L0 64Q0 77.25 5 88.88L5 88.88Q10.13 100.50 18.81 109.19Q27.50 117.88 39.13 123L39.13 123Q50.75 128 64 128L64 128Q77.25 128 88.88 123L88.88 123Q100.50 117.88 109.19 109.19Q117.88 100.50 123 88.88L123 88.88Q128 77.25 128 64L128 64L128 64Q128 50.75 123 39.13L123 39.13Q117.88 27.50 109.19 18.81Q100.50 10.13 88.88 5L88.88 5Q77.25 0 64 0ZM13.25 64L13.25 64L64 114.75Q53.50 114.75 44.25 110.88L44.25 110.88Q35 106.88 28.06 99.94Q21.13 93 17.13 83.75L17.13 83.75Q13.25 74.50 13.25 64L13.25 64ZM75.38 113.50L75.38 113.50L14.50 52.50Q16.50 44.13 21 36.88L21 36.88Q25.63 29.63 32.19 24.38Q38.75 19.13 46.88 16.13L46.88 16.13Q55 13.25 64 13.25L64 13.25Q70.25 13.25 76 14.63L76 14.63Q81.88 16 87.06 18.69Q92.25 21.38 96.63 25L96.63 25Q101 28.75 104.50 33.38L104.50 33.38L97 40.63Q91.50 32.75 82.88 28.13Q74.25 23.50 64 23.50L64 23.50Q57.38 23.50 51.38 25.50L51.38 25.50Q45.38 27.50 40.44 31.06Q35.50 34.63 31.75 39.50L31.75 39.50Q28 44.50 25.88 50.25L25.88 50.25Q28.63 52.88 36.75 60.75L36.75 60.75Q44.88 68.75 53.69 77.50Q62.50 86.25 69.88 93.50L69.88 93.50Q77.13 100.75 78.13 102L78.13 102Q82.88 100.25 87 97.38L87 97.38Q91.13 94.50 94.38 90.81Q97.63 87.13 100 82.63L100 82.63Q102.38 78.13 103.50 73.13L103.50 73.13L81.88 73.13L81.88 63.75L114.88 63.88Q114.88 73 111.88 81.13L111.88 81.13Q108.88 89.38 103.56 95.94Q98.25 102.50 91.13 107L91.13 107Q83.88 111.63 75.38 113.50L75.38 113.50Z"/></svg>