<svg xmlns="http://www.w3.org/2000/svg" xmlns:xlink="http://www.w3.org/1999/xlink" width="128" height="128"><path fill="#000000" d="M17.38 47.25L17.38 47.25Q10.50 47.25 5.63 52.19Q0.75 57.13 0.75 64L0.75 64L0.75 64Q0.75 70.88 5.63 75.81Q10.50 80.75 17.38 80.75L17.38 80.75Q24.25 80.75 29.19 75.81Q34.13 70.88 34.13 64L34.13 64L34.13 64Q34.13 57.13 29.19 52.19Q24.25 47.25 17.38 47.25L17.38 47.25ZM4.13 64.13L4.13 64.13L17.38 77.38Q11.88 77.38 8 73.50Q4.13 69.63 4.13 64.13L4.13 64.13ZM20.25 77L20.25 77L4.38 61Q5.50 56.63 9.06 53.69Q12.63 50.75 17.38 50.75L17.38 50.75Q20.63 50.75 23.44 52.19Q26.25 53.63 28 56L28 56L26 57.88Q24.63 55.88 22.31 54.63Q20 53.38 17.25 53.38L17.25 53.38Q13.88 53.38 11.13 55.38Q8.38 57.38 7.25 60.38L7.25 60.38Q8.75 61.75 14.63 67.56Q20.50 73.38 21 74L21 74Q23.50 73.13 25.25 71.06Q27 69 27.75 66.38L27.75 66.38L22 66.38L22 64L30.63 64.13Q30.63 68.88 27.69 72.44Q24.75 76 20.25 77ZM57.13 63.88L57.13 63.88L57.13 66.75L61.75 66.75Q61.13 68.38 59.50 69.56Q57.88 70.75 55.88 70.75L55.88 70.75Q53.25 70.75 51.38 68.81Q49.50 66.88 49.50 64.25L49.50 64.25Q49.50 61.63 51.38 59.75Q53.25 57.88 55.88 57.88L55.88 57.88Q57.38 57.88 58.69 58.50Q60 59.13 60.88 60.25L60.88 60.25L63.75 58.25Q62.38 56.63 60.38 55.56Q58.38 54.50 56 54.50L56 54.50L55.75 54.50Q51.75 54.50 48.94 57.31Q46.13 60.13 46.13 64.25L46.13 64.25Q46.13 68.25 48.94 71.06Q51.75 73.88 55.75 73.88L55.75 73.88L56 73.88Q60 73.88 62.88 71.06Q65.75 68.25 65.75 64.25L65.75 64.25Q65.75 64 65.75 63.94Q65.75 63.88 65.75 63.75L65.75 63.75L57.13 63.88ZM75.88 63.38L75.88 63.38Q75.13 62.38 74.13 61.81Q73.13 61.25 71.75 61.25L71.75 61.25Q69.50 61.25 67.94 63.19Q66.38 65.13 66.38 67.75L66.38 67.75Q66.38 70.38 67.94 72.25Q69.50 74.13 71.75 74.13L71.75 74.13Q73.13 74.13 74.19 73.50Q75.25 72.88 76 71.75L76 71.75L76 73.38L79.25 73.38L79.25 61.63L75.88 61.63L75.88 63.38ZM73.25 70.88L73.25 70.88Q71.75 70.88 70.75 69.88Q69.75 68.88 69.75 67.50L69.75 67.50Q69.75 66.13 70.75 65.13Q71.75 64.13 73.25 64.13L73.25 64.13Q74.63 64.13 75.63 65.13Q76.63 66.13 76.63 67.50L76.63 67.50Q76.63 68.88 75.63 69.88Q74.63 70.88 73.25 70.88ZM107.63 61.25L107.63 61.25Q106.38 61.25 105.31 61.81Q104.25 62.38 103.50 63.25L103.50 63.25L103.50 53.63L100.13 53.63L100.13 73.25L103.38 73.25L103.38 71.75Q104.13 72.75 105.25 73.38Q106.38 74 107.63 74L107.63 74Q109.88 74 111.44 72.13Q113 70.25 113 67.63L113 67.63Q113 65 111.44 63.13Q109.88 61.25 107.63 61.25L107.63 61.25ZM106.25 70.88L106.25 70.88Q104.75 70.88 103.75 69.88Q102.75 68.88 102.75 67.50L102.75 67.50Q102.75 66.13 103.75 65.13Q104.75 64.13 106.25 64.13L106.25 64.13Q107.63 64.13 108.63 65.13Q109.63 66.13 109.63 67.50L109.63 67.50Q109.63 68.88 108.63 69.88Q107.63 70.88 106.25 70.88ZM85.75 61.63L85.75 57.63L82.50 57.63L82.50 61.63L81.25 61.63L81.25 64.25L82.50 64.25L82.50 73.25L85.75 73.25L85.75 64.25L88.13 64.25L88.13 61.63L85.75 61.63ZM93.25 65.50L93.25 65.50Q92.50 65.50 92.69 64.06Q92.88 62.63 96 64.38L96 64.38L97.63 62.50Q97.63 62.50 95.25 61.44Q92.88 60.38 90.38 62.50L90.38 62.50Q88.63 65.13 90.06 66.44Q91.50 67.75 91.50 67.75L91.50 67.75L93.63 68.63Q93.63 68.63 94.69 69.44Q95.75 70.25 93.63 71.38L93.63 71.38Q91.75 71.50 91.06 70.63Q90.38 69.75 90.38 69.75L90.38 69.75L88.75 71.75Q88.75 71.75 91.50 73.44Q94.25 75.13 97.75 71.75L97.75 71.75Q99.50 67.50 96.88 66.75Q94.25 66 93.25 65.50L93.25 65.50ZM127.50 61.63L123.75 61.63L120.38 68.25L116.75 61.63L113 61.63L118.50 71.75L114.25 79.75L118 79.75L127.50 61.63Z"/></svg>