<svg xmlns="http://www.w3.org/2000/svg" xmlns:xlink="http://www.w3.org/1999/xlink" width="128" height="128"><path fill="#ffffff" d="M88.75 88.25L88.75 88.13Q85.38 95 80.75 100.75L80.75 100.75Q76.13 106.50 70.38 110.94Q64.63 115.38 57.75 118.38L57.75 118.38Q50.88 121.38 43.13 123L43.13 123Q41 123.50 38.56 123.81Q36.13 124.13 33.63 124.13L33.63 124.13Q33.50 124.13 33.44 124.13Q33.38 124.13 33.25 124.13L33.25 124.13L33.25 124.13Q24.25 124.13 16.63 120.56Q9 117 5 110.88L5 110.88Q2.25 106.88 0.88 100.75L0.88 100.75Q-0.63 94.63 0.44 87.69Q1.50 80.75 5.88 73.38L5.88 73.38Q10.13 66.13 19 59.75L19 59.75Q19.38 61.75 20 64.13Q20.63 66.50 21.13 68.13L21.13 68.13Q17.63 70.63 14.88 73.88Q12.13 77.13 10.13 80.88L10.13 80.88L10 81.13Q6.75 87.63 7.06 94Q7.38 100.38 11.25 106.38L11.25 106.38Q14 110.38 18.19 112.81Q22.38 115.25 27.88 116L27.88 116Q29.13 116.13 30.56 116.25Q32 116.38 33.50 116.38L33.50 116.38Q39.25 116.38 44.63 114.94Q50 113.50 54.75 110.88L54.75 110.88L54.50 111Q64 106 70.50 99.81Q77 93.63 81.25 85.38L81.25 85.38Q80.13 84.25 79.38 82.75Q78.63 81.25 78.63 79.50L78.63 79.50L78.63 79.38Q78.63 79.38 78.63 79.31Q78.63 79.25 78.63 79.13L78.63 79.13Q78.63 75.38 81.19 72.75Q83.75 70.13 87.38 70L87.38 70L87.38 70L87.75 70Q87.75 70 87.75 70Q87.75 70 87.75 70L87.75 70Q91.50 70 94.19 72.69Q96.88 75.38 96.88 79.13L96.88 79.13Q96.88 82.75 94.56 85.31Q92.25 87.88 88.75 88.25L88.75 88.25L88.75 88.25ZM117.38 67.88L117.38 67.88Q122 73.13 124.38 78.63L124.38 78.63Q126.88 84.13 127.63 89.38Q128.38 94.63 127.63 99.25L127.63 99.25Q127 104 125.13 107.50L125.13 107.50Q121.88 114 113.56 119.38Q105.25 124.75 93.63 124.75L93.63 124.75Q87.88 124.63 82.50 123.31Q77.13 122 72.25 119.63L72.25 119.63L72.63 119.75Q74.25 118.50 76.44 116.75Q78.63 115 79.88 113.88L79.88 113.88Q83.50 115.38 87.50 116.31Q91.50 117.25 95.88 117.25L95.88 117.25L95.88 117.25Q103.50 117.25 109.13 113.81Q114.75 110.38 118.25 103.88L118.25 103.88Q120.38 99.63 120.50 94.75Q120.63 89.88 118.50 84.75L118.50 84.75Q115.88 78.13 111.50 72.88Q107.13 67.63 101.50 64L101.50 64L101.25 63.88Q94 58.88 85.19 56.06Q76.38 53.25 66.63 53.25L66.63 53.25Q66.63 53.25 66.56 53.25Q66.50 53.25 66.50 53.25L66.50 53.25L63.63 53.25Q62.63 55.63 60.44 57.13Q58.25 58.63 55.63 58.75L55.63 58.75L55.63 58.75L55.25 58.75Q51.50 58.75 48.88 56.06Q46.25 53.38 46.25 49.63L46.25 49.63Q46.25 46 48.81 43.38Q51.38 40.75 55 40.50L55 40.50L55 40.50L55.38 40.50Q57.88 40.50 60 41.88Q62.13 43.25 63.25 45.38L63.25 45.38L63.38 45.38L66 45.38Q73.75 45.38 81 46.88L81 46.88Q88.25 48.38 94.81 51.25Q101.38 54.13 107 58.25L107 58.25Q112.75 62.50 117.38 67.88L117.38 67.88ZM34.63 90.88L34.63 90.88Q34.63 90.75 34.63 90.56Q34.63 90.38 34.63 90.13L34.63 90.13Q34.63 89 34.94 88Q35.25 87 35.75 86.13L35.75 86.13L35.75 86.13Q32.38 80.25 29.88 73.63L29.88 73.63Q27.38 66.88 26.31 59.69Q25.25 52.50 25.88 44.88L25.88 44.88Q26.38 37.38 29.25 29.50L29.25 29.50Q31.25 23.63 34.63 18.75L34.63 18.75Q38.13 14 42.56 10.50Q47 7 52.13 5.13L52.13 5.13Q57.25 3.25 62.75 3.25L62.75 3.25Q68.63 3.25 74.38 5.75L74.38 5.75Q80.13 8.38 84.88 13.38Q89.63 18.38 92.75 25.88L92.75 25.88Q96 33.38 96.63 43.25L96.63 43.25Q94.88 42.75 92.50 42Q90.13 41.25 88.50 40.88L88.50 40.88Q88.38 37.63 86.88 32.50L86.88 32.50Q85.25 27.38 82.25 22.56Q79.25 17.75 74.63 14.38L74.63 14.38Q69.88 11 63.50 11L63.50 11Q58.75 11.13 52.88 13.38Q47 15.63 43.50 20.13L43.50 20.13Q39.25 25.38 36.69 31.75Q34.13 38.13 33.75 45.38L33.75 45.38L33.75 45.38Q33.75 46.63 33.69 47.94Q33.63 49.25 33.63 50.63L33.63 50.63Q33.63 59.25 35.94 67.13Q38.25 75 42.38 81.88L42.38 81.88L42.25 81.63Q42.50 81.50 42.75 81.44Q43 81.38 43.25 81.38L43.25 81.38Q43.25 81.38 43.31 81.38Q43.38 81.38 43.38 81.38L43.38 81.38L43.38 81.38L43.75 81.38Q43.75 81.38 43.81 81.38Q43.88 81.38 43.88 81.38L43.88 81.38Q47.63 81.38 50.31 84.06Q53 86.75 53 90.50L53 90.50Q53 94.25 50.38 96.94Q47.75 99.63 44.13 99.63L44.13 99.63L44 99.63L43.75 99.63Q40 99.63 37.38 97.06Q34.75 94.50 34.63 90.88L34.63 90.88L34.63 90.88Z"/></svg>