<svg xmlns="http://www.w3.org/2000/svg" xmlns:xlink="http://www.w3.org/1999/xlink" width="128" height="128"><path fill="#000000" d="M59.38 0.13L59.38 0.13Q59 0.25 58 0.31Q57 0.38 56 0.50L56 0.50Q52 1 47.63 2.19Q43.25 3.38 39.25 5L39.25 5Q32 8 25.75 12.75L25.75 12.75Q19.50 17.50 14.56 23.50Q9.63 29.50 6.25 36.50L6.25 36.50Q2.75 43.63 1.25 51.25L1.25 51.25Q0.63 54.88 0.38 57.38Q0.13 59.88 0.13 64L0.13 64Q0.13 69.38 0.75 73.56Q1.38 77.75 2.75 82.38L2.75 82.38Q5 90.13 9.13 96.88L9.13 96.88Q13.25 103.75 18.81 109.25Q24.38 114.75 31.13 118.88L31.13 118.88Q37.88 123 45.63 125.25L45.63 125.25Q50.25 126.75 54.44 127.31Q58.63 127.88 64 127.88L64 127.88Q69.38 127.88 73.56 127.25Q77.75 126.63 82.38 125.25L82.38 125.25Q90.13 123 96.88 118.88L96.88 118.88Q103.75 114.75 109.25 109.19Q114.75 103.63 118.88 96.88L118.88 96.88Q123 90.13 125.25 82.38L125.25 82.38Q126.75 77.75 127.31 73.56Q127.88 69.38 127.88 64L127.88 64Q127.88 61.75 127.75 59.44Q127.63 57.13 127.50 56.25L127.50 56.25Q126.75 50.63 125.25 45.50L125.25 45.50Q123.75 40.38 121.44 35.75Q119.13 31.13 116.13 26.88L116.13 26.88Q113 22.63 109.25 18.75L109.25 18.75Q105.38 15 101.13 12L101.13 12Q97 8.88 92.38 6.63Q87.75 4.38 82.63 2.88L82.63 2.88Q77.63 1.25 72.25 0.50L72.25 0.50Q70.75 0.25 65.63 0.13Q60.50 0 59.38 0.13L59.38 0.13ZM38.50 40.50L38.50 40.50Q39.50 40.75 40.13 41.13Q40.75 41.50 41.50 42.13L41.50 42.13Q42.75 43.50 43.19 44.63Q43.63 45.75 43.63 47.75L43.63 47.75Q43.63 49.25 43.50 49.88Q43.38 50.50 43 51.25L43 51.25Q42.13 52.75 40.38 53.94Q38.63 55.13 37.13 55.13L37.13 55.13Q36.13 55.13 36.19 54.69Q36.25 54.25 37.38 53L37.38 53Q38.75 51.50 39.13 50.50Q39.50 49.50 39.50 47.25L39.50 47.25Q39.50 45 39.19 44.06Q38.88 43.13 37.75 42.50L37.75 42.50Q37 42 36 42.06Q35 42.13 33.63 42.75L33.63 42.75Q30.13 44.38 26.81 49.31Q23.50 54.25 22 60L22 60Q20 67.50 22.94 72.69Q25.88 77.88 31.63 76.88L31.63 76.88Q33.25 76.50 35.88 75.19Q38.50 73.88 39.88 72.63L39.88 72.63Q41 71.50 41.19 71.13Q41.38 70.75 41.50 69.50L41.50 69.50Q41.75 66.75 43.50 64.31Q45.25 61.88 47.75 60.63L47.75 60.63Q49 60 49.63 59.88Q50.25 59.75 51.88 59.75L51.88 59.75Q53.38 59.75 53.94 59.88Q54.50 60 55.25 60.38L55.25 60.38Q57.63 61.75 57.25 64Q56.88 66.25 54.38 66.25L54.38 66.25Q52.88 66.25 52.31 65.69Q51.75 65.13 52.88 64.75L52.88 64.75Q53.88 64.38 53.56 63.31Q53.25 62.25 52.13 61.88L52.13 61.88Q50.63 61.50 49.19 62.38Q47.75 63.25 46.75 65.13L46.75 65.13Q45.50 67.38 45.44 69.69Q45.38 72 46.50 73.25L46.50 73.25Q47.63 74.50 48.94 73.56Q50.25 72.63 51.38 69.88L51.38 69.88Q52 68.50 52.81 67.81Q53.63 67.13 54.50 67.13L54.50 67.13Q55.38 67.13 55.56 67.69Q55.75 68.25 55.38 69.88L55.38 69.88Q54.88 72.25 55.25 73Q55.63 73.75 57.25 73L57.25 73Q57.75 72.75 58.44 72.25Q59.13 71.75 59.63 71.38L59.63 71.38L60.88 70.38L61.75 66Q62.38 62.25 62.94 61.25Q63.50 60.25 64.88 60L64.88 60Q66.25 59.75 66.63 60.50Q67 61.25 66.50 63.38L66.50 63.38L66.13 65L67.38 63.63Q69.75 61.25 72.25 60.19Q74.75 59.13 75.75 60.13L75.75 60.13Q76.38 60.75 76.25 61.69Q76.13 62.63 75.38 65L75.38 65Q75 66.13 74.56 67.63Q74.13 69.13 73.88 70.25L73.88 70.25Q73.63 71.75 73.56 72.31Q73.50 72.88 73.75 73.13L73.75 73.13Q74.38 73.75 76 73.13Q77.63 72.50 79.25 70.88L79.25 70.88L80.63 69.63L80.75 66.75Q80.88 64.25 81.13 63.13Q81.38 62 82 61.25L82 61.25Q82.63 60.50 83.56 60.06Q84.50 59.63 85.13 59.75L85.13 59.75Q85.75 59.88 85.75 60.56Q85.75 61.25 85.25 63L85.25 63Q84.50 65.25 84.56 69.25Q84.63 73.25 85.38 73.25L85.38 73.25Q85.63 73.25 86.94 71.88Q88.25 70.50 89.25 69.13L89.25 69.13L90.25 67.75L89.38 67Q88.38 65.88 88 64.94Q87.63 64 87.63 62.25L87.63 62.25Q87.63 60.88 87.75 60.25Q87.88 59.63 88.25 59L88.25 59Q88.75 58 89.56 57.31Q90.38 56.63 91.38 56.25L91.38 56.25Q92.50 56 93.63 56.44Q94.75 56.88 95.25 57.88L95.25 57.88Q95.88 58.88 95.75 60.75Q95.63 62.63 94.88 64.13L94.88 64.13L94.25 65.50L95.13 65.50Q96 65.50 96.69 65.13Q97.38 64.75 99 63.13L99 63.13Q99.88 62.38 100.81 61.69Q101.75 61 102.50 60.63L102.50 60.63Q105.50 59.25 108.38 59.88Q111.25 60.50 111.88 62.63L111.88 62.63Q112.25 64.25 111.38 65.31Q110.50 66.38 108.63 66.25L108.63 66.25Q107.25 66.13 107 65.75Q106.75 65.38 107.50 64.75L107.50 64.75Q108.88 63.63 107.88 62.56Q106.88 61.50 104.88 62L104.88 62Q103.75 62.25 102.69 63.38Q101.63 64.50 101 65.88L101 65.88Q99.75 68.63 100.25 71.31Q100.75 74 102.63 74L102.63 74Q103.38 74 104.44 72.81Q105.50 71.63 106 70.25L106 70.25Q106.63 68.63 107.69 67.69Q108.75 66.75 109.75 67.13L109.75 67.13Q110.25 67.38 110.31 68Q110.38 68.63 110 70.25L110 70.25Q109.63 72.13 109.56 73.63Q109.50 75.13 109.88 75.88L109.88 75.88Q110 76.25 110.25 76.69Q110.50 77.13 110.88 77.50L110.88 77.50Q111.50 78.25 111.50 78.56Q111.50 78.88 111 79.25L111 79.25Q110.75 79.38 110.38 79.31Q110 79.25 109.13 78.75L109.13 78.75Q108.13 78.13 107.19 77.19Q106.25 76.25 106 75.25L106 75.25L105.63 74.50L104.63 75.25Q104.25 75.63 103.63 75.94Q103 76.25 102.63 76.25L102.63 76.25Q101 76.75 99.25 75.75Q97.50 74.75 96.63 73L96.63 73Q96.25 72.25 96.19 70.63Q96.13 69 96.38 68.13L96.38 68.13Q96.50 67.75 96.44 67.69Q96.38 67.63 95.75 68L95.75 68Q95.38 68.13 94.81 68.31Q94.25 68.50 93.63 68.50L93.63 68.50Q92.75 68.63 92.38 68.88Q92 69.13 91.13 70.25L91.13 70.25Q89.88 71.88 88.06 73.56Q86.25 75.25 85.38 75.75L85.38 75.75Q83.38 76.63 82.56 76.31Q81.75 76 81.25 74L81.25 74L80.75 72.25L79.75 73.25Q78.63 74.13 76.88 75.06Q75.13 76 73.88 76.25L73.88 76.25Q72.75 76.50 71.63 76.19Q70.50 75.88 70 75.13L70 75.13Q69.25 74 69.50 71.63Q69.75 69.25 70.88 66L70.88 66Q71.88 63.50 71.19 63.44Q70.50 63.38 68.25 65.75L68.25 65.75Q66.63 67.50 65.81 68.94Q65 70.38 64.50 72.38L64.50 72.38Q64 74.38 63.38 75.25Q62.75 76.13 61.38 76.38L61.38 76.38Q60.63 76.63 60.25 76.13Q59.88 75.63 60 74.63L60 74.63L60.25 73.50L59.25 74.13Q58.25 74.88 57 75.44Q55.75 76 54.88 76.25L54.88 76.25Q54 76.50 53 76.31Q52 76.13 51.75 75.63L51.75 75.63Q51.25 74.75 51 74.69Q50.75 74.63 50 75.25L50 75.25Q48.25 76.63 46.06 76.31Q43.88 76 42.63 74.13L42.63 74.13L42.13 73.25L40.38 74.88Q36.75 78.25 32.56 79.63Q28.38 81 24.88 79.88L24.88 79.88Q20.63 78.63 18.31 75.06Q16 71.50 16.13 66.13L16.13 66.13Q16.13 60.88 18.38 55.50Q20.63 50.13 24.50 46L24.50 46Q26.75 43.63 28.94 42.25Q31.13 40.88 33.25 40.38L33.25 40.38Q34.75 40 35.88 40Q37 40 38.50 40.50L38.50 40.50ZM90.38 58.63L90.38 58.63Q90 59.13 90.13 60.50Q90.25 61.88 90.75 62.88L90.75 62.88Q91 63.50 91.25 63.88Q91.50 64.25 91.63 64.25L91.63 64.25Q91.75 64.25 91.88 63.88Q92 63.50 92.13 63L92.13 63Q92.63 61 92 59.38Q91.38 57.75 90.38 58.63Z"/></svg>