<svg xmlns="http://www.w3.org/2000/svg" xmlns:xlink="http://www.w3.org/1999/xlink" width="128" height="128"><path fill="#ffffff" d="M93.38 39L110.50 11.38L66.50 11.38L61.75 19.25L93.38 39ZM40.75 52.63L92.25 40.75L31.25 2.63L31.25 46.75L40.75 52.63ZM93.25 45.75L73.38 77.38L100.75 94.63L100.75 50.50L93.25 45.75ZM91.25 44.63L39.75 56.50L21.50 85.75L65.50 85.75L91.25 44.63ZM16.25 122.13L16.25 122.13L18.88 122.13L20.25 106.50L17.63 106.50L17.63 103.50L24.63 103.50L29.38 115.75Q29.75 116.50 29.81 117Q29.88 117.50 29.88 117.50L29.88 117.50L30 117.50Q30 117.50 30.13 117Q30.25 116.50 30.50 115.75L30.50 115.75L35.25 103.50L42.25 103.50L42.25 106.50L39.75 106.50L40.88 122.13L43.50 122.13L43.50 125.13L34.63 125.13L34.63 122.13L37 122.13L36.25 111.25Q36.13 110.63 36.19 109.94Q36.25 109.25 36.25 109.25L36.25 109.25L36.25 109.25Q36.25 109.25 36.06 109.94Q35.88 110.63 35.75 111.13L35.75 111.13L31.63 121.13L28.25 121.13L24.13 111.13Q23.88 110.63 23.75 109.94Q23.63 109.25 23.63 109.25L23.63 109.25L23.50 109.25Q23.50 109.25 23.56 109.94Q23.63 110.63 23.63 111.25L23.63 111.25L22.75 122.13L25.25 122.13L25.25 125.13L16.25 125.13L16.25 122.13ZM56.25 103L56.25 103Q61 103 64.19 106.19Q67.38 109.38 67.38 114L67.38 114Q67.38 118.75 64.19 122Q61 125.25 56.25 125.25L56.25 125.25Q51.38 125.25 48.19 122Q45 118.75 45 114L45 114Q45 109.38 48.19 106.19Q51.38 103 56.25 103ZM56.25 121.88L56.25 121.88Q59.13 121.88 61.19 119.63Q63.25 117.38 63.25 114.13L63.25 114.13Q63.25 110.88 61.19 108.75Q59.13 106.63 56.25 106.63L56.25 106.63Q53.25 106.63 51.19 108.81Q49.13 111 49.13 114.13L49.13 114.13Q49.13 117.38 51.19 119.63Q53.25 121.88 56.25 121.88ZM69.38 125.13L69.38 122.13L72 122.13L72 106.50L69.38 106.50L69.38 103.50L78.75 103.50Q80.13 103.50 81.19 103.63Q82.25 103.75 83.25 104L83.25 104Q86.50 104.88 88.38 107.63Q90.25 110.38 90.25 114.25L90.25 114.25Q90.25 118.13 88.44 120.81Q86.63 123.50 83.63 124.50L83.63 124.50Q82.50 124.88 81.31 125Q80.13 125.13 78.75 125.13L78.75 125.13L69.38 125.13ZM78.63 121.75L78.63 121.75Q79.63 121.75 80.50 121.69Q81.38 121.63 82.13 121.25L82.13 121.25Q84 120.50 85.06 118.69Q86.13 116.88 86.13 114.25L86.13 114.25Q86.13 111.38 85 109.56Q83.88 107.75 81.88 107.13L81.88 107.13Q81.13 106.75 80.31 106.69Q79.50 106.63 78.50 106.63L78.50 106.63L76 106.63L76 121.75L78.63 121.75ZM92.63 122.13L92.63 122.13L94.50 122.13L100 114.13L94.75 106.50L92.75 106.50L92.75 103.50L101 103.50L101 106.50L98.88 106.50L101.88 111Q102.25 111.38 102.38 111.63Q102.50 111.88 102.50 111.88L102.50 111.88L102.63 111.88Q102.63 111.88 102.75 111.63Q102.88 111.38 103.25 111L103.25 111L106.13 106.50L104 106.50L104 103.50L111.88 103.50L111.88 106.50L110 106.50L104.50 114.50L109.88 122.25L111.75 122.25L111.75 125.25L103.63 125.25L103.63 122.25L105.75 122.25L102.75 117.75Q102.38 117.38 102.25 117.06Q102.13 116.75 102.13 116.75L102.13 116.75L102 116.75Q101.88 116.75 101.81 117.06Q101.75 117.38 101.38 117.75L101.38 117.75L98.50 122.25L100.63 122.25L100.63 125.25L92.75 125.25L92.63 122.13Z"/></svg>