<svg xmlns="http://www.w3.org/2000/svg" xmlns:xlink="http://www.w3.org/1999/xlink" width="128" height="128"><path fill="#000000" d="M44.50 100.63L44.50 100.63Q41.25 98.13 38.06 95.56Q34.88 93 32.63 89.63L32.63 89.63Q27.75 83.63 24 76.88Q20.25 70.13 17.75 62.88L17.75 62.88Q16.13 58.13 15.19 53.25Q14.25 48.38 12.25 43.88L12.25 43.88Q10.13 40.63 12.06 37.50Q14 34.38 17.50 33.25L17.50 33.25Q19.13 33 20.69 32.13Q22.25 31.25 18.88 32.38L18.88 32.38Q15.88 34.63 15.69 32.06Q15.50 29.50 18.63 29.25L18.63 29.25Q20.75 29 21.50 27.50Q22.25 26 21.50 24.50L21.50 24.50Q19.25 23 23.44 21.25Q27.63 19.50 23.63 17.25L23.63 17.25Q19.50 12.88 25 12.44Q30.50 12 28.13 17L28.13 17Q27.50 20.88 32.13 19.19Q36.75 17.50 35 22L35 22Q36.75 24.13 40.25 23.88Q43.75 23.63 43.63 26.63L43.63 26.63Q46.13 26.88 47.56 28.38Q49 29.88 51.38 30L51.38 30Q53.88 31.13 57.44 32.38Q61 33.63 61.88 36.38L61.88 36.38Q59.38 38.38 55.13 35.63Q50.88 32.88 50.63 38.25L50.63 38.25Q51.38 46.25 51.81 54.38Q52.25 62.50 55.25 70.13L55.25 70.13Q56.63 74.75 59.56 78.56Q62.50 82.38 65.63 86L65.63 86Q68.50 89.50 72.25 92.06Q76 94.63 80.13 96.75L80.13 96.75Q83.63 98.38 87.38 99.50Q91.13 100.63 95 101.38L95 101.38Q96.50 100.13 99 97.31Q101.50 94.50 103.88 96.38L103.88 96.38Q104 98.50 101.50 100.31Q99 102.13 103.63 101.88L103.63 101.88Q106.25 101.13 108.31 102.44Q110.38 103.75 112.63 101.25L112.63 101.25Q114.75 103.63 119.13 102.19Q123.50 100.75 122 105.75L122 105.75Q120.13 107 117.50 107Q114.88 107 113 108.75L113 108.75Q109.75 107.13 106.88 108.81Q104 110.50 100.38 110.13L100.38 110.13Q96.38 110.88 92.38 111.19Q88.38 111.50 84.25 111.50L84.25 111.50Q77.63 111 70.94 110.38Q64.25 109.75 58 107.38L58 107.38Q54.38 106.38 50.94 104.50Q47.50 102.63 44.50 100.63L44.50 100.63L44.50 100.63ZM51.88 103.88L51.88 103.88Q55.38 105.38 58.88 106.75Q62.38 108.13 66.13 108.63L66.13 108.63Q72.13 109.50 78.31 110.31Q84.50 111.13 90.63 109.88L90.63 109.88Q87.88 108.63 85.06 109.38Q82.25 110.13 79.50 108.75L79.50 108.75Q76.25 109.38 72.81 108.88Q69.38 108.38 66 107.88L66 107.88Q62.25 106.25 58.31 104.81Q54.38 103.38 50.75 101.13L50.75 101.13Q46.38 99.50 50.31 101.75Q54.25 104 55.38 104.38L55.38 104.38Q58.25 105.88 54.69 104.44Q51.13 103 50.25 102.38L50.25 102.38Q48 101.13 47.81 101.31Q47.63 101.50 50 102.75L50 102.75Q50.50 103 50.94 103.31Q51.38 103.63 51.88 103.88L51.88 103.88ZM43.13 97.63L43.13 97.63Q46.50 98.88 44.56 96.69Q42.63 94.50 41 94.75L41 94.75Q40.38 93.63 39.19 92.81Q38 92 39.38 91.38L39.38 91.38Q36.88 92.13 36.19 89.69Q35.50 87.25 34.38 87.75L34.38 87.75Q31.88 87 31.94 84.63Q32 82.25 29 80.50L29 80.50Q28.63 78.63 26.63 76.75Q24.63 74.88 23.75 72L23.75 72Q23.25 70.63 21.69 68.25Q20.13 65.88 21.75 69.75L21.75 69.75Q23.25 73.50 25.50 76.75Q27.75 80 29.88 83.25L29.88 83.25Q31.50 86.25 33.56 89.19Q35.63 92.13 38.63 94L38.63 94Q39.63 95 40.63 96.19Q41.63 97.38 43.13 97.63L43.13 97.63L43.13 97.63ZM30.13 83.50L30.13 83.50Q30.25 83 30.50 83.75Q30.75 84.50 30.13 83.50L30.13 83.50ZM48.50 99.63L48.50 99.63Q49.25 99.25 48.31 99.25Q47.38 99.25 48.50 99.63L48.50 99.63ZM50.88 100.50L50.88 100.50Q50.75 99.63 50.44 100.31Q50.13 101 50.88 100.50L50.88 100.50ZM54 101.75L54 101.75Q55 100.75 53.63 100.94Q52.25 101.13 54 101.75L54 101.75ZM59.13 104.75L59.13 104.75Q59.88 103.75 58.50 104.06Q57.13 104.38 59.13 104.75L59.13 104.75ZM49.13 97.75L49.13 97.75Q50.88 96.63 48.94 97.19Q47 97.75 49.13 97.75L49.13 97.75ZM51.50 98.88L51.50 98.88Q51.38 98.25 51.13 98.69Q50.88 99.13 51.50 98.88L51.50 98.88ZM62.88 106L62.88 106Q64.25 106.88 68.25 107.44Q72.25 108 68 106.50L68 106.50Q67.38 106.63 63.19 105.50Q59 104.38 62.88 106L62.88 106L62.88 106ZM44.75 91.88L44.75 91.88Q44.63 91.25 43.63 91.25Q42.63 91.25 44.75 91.88L44.75 91.88ZM50 95L50 95Q51.13 94.25 49.50 94.31Q47.88 94.38 50 95L50 95ZM54.50 97.75L54.50 97.75Q56 97.13 54.06 97.13Q52.13 97.13 54.50 97.75L54.50 97.75ZM42.50 89.50L42.50 89.50Q44.13 90.75 47 90.06Q49.88 89.38 45.88 88.50L45.88 88.50Q44 87.50 41.38 87.25Q38.75 87 41.63 89.25L41.63 89.25L42.50 89.50ZM57.50 98.63L57.50 98.63Q58.25 97.50 56.50 97.75Q54.75 98 57.50 98.63L57.50 98.63ZM53 95L53 95Q57 96.13 53.19 94.25Q49.38 92.38 51.75 94.50L51.75 94.50L52.38 94.75L53 95ZM62.13 100.25L62.13 100.25Q65.88 100.38 62.31 100.06Q58.75 99.75 62.13 100.25L62.13 100.25ZM40.63 86.63L40.63 86.63Q40.50 85.88 40.13 86.25Q39.75 86.63 40.63 86.63L40.63 86.63ZM70.63 105L70.63 105Q70.63 103.75 70 104.88Q69.38 106 70.63 105L70.63 105ZM49.13 91.88L49.13 91.88Q48.88 91.13 48.44 91.44Q48 91.75 49.13 91.88L49.13 91.88ZM41.13 86L41.13 86Q43.25 85.88 40.69 85.50Q38.13 85.13 41.13 86L41.13 86ZM31.63 79.88L31.63 79.88Q31.25 78.88 30.25 78.44Q29.25 78 31.63 79.88L31.63 79.88ZM56.63 95.75L56.63 95.75Q56.25 95.25 56.31 95.56Q56.38 95.88 56.63 95.75L56.63 95.75ZM72.13 105.25L72.13 105.25Q72.13 104.63 71.81 105.06Q71.50 105.50 72.13 105.25L72.13 105.25ZM55.25 94.38L55.25 94.38Q55.38 93.38 54.38 93.69Q53.38 94 55.25 94.38L55.25 94.38ZM43.63 87L43.63 87Q45.25 86.75 43.13 86.31Q41 85.88 43.63 87L43.63 87ZM63.25 99.13L63.25 99.13Q65.75 98.13 63.31 98.38Q60.88 98.63 63.25 99.13L63.25 99.13ZM52.25 92L53 92.25Q55.88 92.63 52.63 91.44Q49.38 90.25 52.25 92L52.25 92ZM66.38 100.38L66.38 100.38Q69 98.88 69.31 101.63Q69.63 104.38 72.38 101L72.38 101Q75.13 99 72.75 101.31Q70.38 103.63 73.75 101.50L73.75 101.50Q76.13 99.88 79.31 101.31Q82.50 102.75 84.75 103.50L84.75 103.50Q86.38 103.50 88 104.31Q89.63 105.13 91.25 104.25L91.25 104.25Q94.50 103.38 89.13 102.69Q83.75 102 86.25 100.50L86.25 100.50Q83.25 101.38 81.06 99.94Q78.88 98.50 77.50 96.63L77.50 96.63Q74.13 95.88 70.81 94.13Q67.50 92.38 65.88 89.50L65.88 89.50Q65.13 88.38 65.88 88.75Q66.63 89.13 65 87.25L65 87.25Q63.13 85.50 61.88 83.50Q60.63 81.50 59.38 79.38L59.38 79.38Q57.75 78.63 57.31 77.31Q56.88 76 56.75 79.25L56.75 79.25Q56.75 77.25 55.38 76.06Q54 74.88 53.50 75.50L53.50 75.50Q53.50 73.50 54.69 73.56Q55.88 73.63 54.38 72.25L54.38 72.25Q54 70.13 53.25 68Q52.50 65.88 52.13 63.50L52.13 63.50Q51.75 62.38 51.63 61.06Q51.50 59.75 50 62.25L50 62.25Q49.38 64.88 49.69 61.69Q50 58.50 50.88 60.50L50.88 60.50Q52.13 58.50 51.25 58.38Q50.38 58.25 50.25 58.50L50.25 58.50Q51 56.75 50.81 55.06Q50.63 53.38 50 54.25L50 54.25Q50.38 52.50 50.44 49.13Q50.50 45.75 49.25 46.63L49.25 46.63Q50 44.75 50 40.38Q50 36 46.75 38.50L46.75 38.50Q45.38 38.50 43.44 38.94Q41.50 39.38 40.38 39.88L40.38 39.88Q43.88 41.75 41.69 41.25Q39.50 40.75 38.13 40.38L38.13 40.38Q37.88 42.13 36.63 41.94Q35.38 41.75 33.75 41.75L33.75 41.75Q36.50 42.13 33.94 43.69Q31.38 45.25 29.88 44.25L29.88 44.25Q27.75 45.25 29.69 47.13Q31.63 49 29.88 49.75L29.88 49.75Q30.13 51 27.94 50.56Q25.75 50.13 26 52.75L26 52.75Q24 51.88 25 54.19Q26 56.50 27 55.13L27 55.13Q30.38 56.13 30.31 58Q30.25 59.88 30.25 61.75L30.25 61.75Q29.75 63 28.56 60.63Q27.38 58.25 29.63 58.38L29.63 58.38Q27.88 55.50 27.19 56.50Q26.50 57.50 25.13 58.75L25.13 58.75Q24.75 58.88 27 60.25Q29.25 61.63 26.63 62.50L26.63 62.50Q28.88 62.88 29.38 64.44Q29.88 66 30.38 67.25L30.38 67.25Q31.75 68.75 32.06 67.25Q32.38 65.75 34 67.50L34 67.50Q32.88 66 30.38 64.06Q27.88 62.13 31.50 63L31.50 63Q31.38 61.50 31.19 60.38Q31 59.25 32 59.38L32 59.38Q33.13 57.38 32.25 61.13Q31.38 64.88 33.75 62.50L33.75 62.50Q34.50 62.13 34.88 61.31Q35.25 60.50 36.50 62.63L36.50 62.63Q38.25 64.38 37.38 65.25Q36.50 66.13 34 64.50L34 64.50Q34.50 66 36.38 67Q38.25 68 37.75 70.38L37.75 70.38Q38.25 72.50 39 72.31Q39.75 72.13 40.50 72L40.50 72Q41 74 41.31 73.19Q41.63 72.38 41.63 71.38L41.63 71.38Q44.13 71.88 44.31 73.13Q44.50 74.38 45.25 75.50L45.25 75.50Q47 76.25 45 72.94Q43 69.63 46 73L46 73Q49 75.88 47.81 77.06Q46.63 78.25 43.75 77.75L43.75 77.75Q45.50 77.63 46.56 79.25Q47.63 80.88 49.88 80.75L49.88 80.75Q51.88 81.75 52.56 84.13Q53.25 86.50 49.75 85L49.75 85Q48.50 83.88 46.06 83.13Q43.63 82.38 47.13 84.50L47.13 84.50Q50.25 86 53.06 87.13Q55.88 88.25 58.88 90.13L58.88 90.13Q61.13 91.75 62.31 93.31Q63.50 94.88 64.25 95.13L64.25 95.13Q62.38 96.13 60.06 95.13Q57.75 94.13 60.50 93.63L60.50 93.63Q58.75 93.25 57.44 93Q56.13 92.75 57.75 94.88L57.75 94.88Q59.25 96 62 96.19Q64.75 96.38 65.38 96.50L65.38 96.50Q64.88 97.63 64.38 97.94Q63.88 98.25 65.38 98.38L65.38 98.38Q63.75 99.25 65 99.56Q66.25 99.88 66.38 100.38L66.38 100.38L66.38 100.38ZM61.75 87.38L61.75 87.38Q60.75 86.38 60.56 85.13Q60.38 83.88 61.50 85.63L61.50 85.63Q62.13 85.88 62.75 87.63Q63.38 89.38 61.75 87.38L61.75 87.38ZM76.75 97L76.75 97Q77.38 96.88 77.06 97.13Q76.75 97.38 76.75 97L76.75 97ZM59.63 83.88L59.63 83.88Q59.50 82.25 59.75 83.69Q60 85.13 59.63 83.88L59.63 83.88ZM58.13 81.88L58.13 81.88Q56.75 79.38 58.25 81Q59.75 82.63 58.13 81.88L58.13 81.88ZM40 69.50L40 69.50Q40.75 69.25 40.56 70Q40.38 70.75 40 69.50L40 69.50ZM54.38 77.25L54.38 77.25Q54.88 75.50 54.94 77.13Q55 78.75 54.38 77.25L54.38 77.25ZM44.25 70.13L44.25 70.13Q43.75 69.25 44.56 70.19Q45.38 71.13 44.25 70.13L44.25 70.13ZM53.38 73.50L53 73Q51.75 70.25 52.81 70.94Q53.88 71.63 53.38 73.50L53.38 73.50ZM38 63L38 63Q37.38 62 36.75 60Q36.13 58 36.38 57.13L36.38 57.13Q36.63 58.50 38.13 60.94Q39.63 63.38 38 59.50L38 59.50Q36.38 56.38 38.63 58.81Q40.88 61.25 41.25 62L41.25 62Q41.50 62.88 40.81 62.63Q40.13 62.38 41 64.25L41 64.25Q39.50 62.13 39.44 63.63Q39.38 65.13 38 63L38 63ZM33.25 59.75L33.25 59.75Q33.50 57.63 33.81 59.38Q34.13 61.13 33.25 59.75L33.25 59.75ZM35.38 60.50L35.38 60.50Q36.13 58.88 36.38 60.75Q36.63 62.63 35.38 60.50L35.38 60.50ZM30.38 56.63L30.38 56.63Q29.13 55.25 28.63 54.56Q28.13 53.88 30.50 55.50L30.50 55.50Q31.38 55.50 29.94 54Q28.50 52.50 30.75 54.38L30.75 54.38Q33 54.75 32.38 56.69Q31.75 58.63 30.38 56.63L30.38 56.63ZM33 56.50L33 56.50Q33.75 55.75 33.56 56.50Q33.38 57.25 33 56.50L33 56.50ZM34.63 57L34.63 57Q33.50 54.88 34.75 56.38Q36 57.88 34.63 57L34.63 57ZM31.38 54L31.38 54Q27.63 50.63 32 53.25Q36.38 55.88 32.25 54.75L32.25 54.75L31.38 54ZM45.75 62.25L45.75 62.25Q44.13 61.38 44.75 57.94Q45.38 54.50 46 58.50L46 58.50Q47.50 58 46.88 59.63Q46.25 61.25 47.38 61.25L47.38 61.25Q47.25 62.88 46.75 63.31Q46.25 63.75 45.75 62.25L45.75 62.25ZM51.13 65.50L51.13 65.50Q51.25 63.63 51.38 65.13Q51.50 66.63 51.13 65.50L51.13 65.50ZM50.25 64.50L50.25 64.50Q50.38 63.75 50.31 64.63Q50.25 65.50 50.25 64.50L50.25 64.50ZM32.38 52.50L32.38 52.50Q30 49.13 35 52.63Q40 56.13 34.50 53.63L34.50 53.63Q33.88 53.50 33.25 53.31Q32.63 53.13 32.38 52.50L32.38 52.50ZM42.63 57.88L42.63 57.88Q42.38 55.13 42.75 56.75Q43.13 58.38 42.63 57.88L42.63 57.88ZM50.38 62.88L50.38 62.88Q50.88 61.25 50.69 62.63Q50.50 64 50.38 62.88L50.38 62.88ZM32.88 50.75L32.88 50.75Q34.38 50.50 36.94 52.06Q39.50 53.63 35.25 51.88L35.25 51.88Q34.88 51.38 34.06 51.31Q33.25 51.25 32.88 50.75L32.88 50.75ZM49.38 59.50L49.38 59Q49.50 56.13 49.88 56.75Q50.25 57.38 49.38 59.50L49.38 59.50ZM34.25 49.50L34.25 49.50Q34.88 48.63 33.88 46.94Q32.88 45.25 34.75 48L34.75 48Q35.50 48.63 36.44 49.06Q37.38 49.50 36 49.75L36 49.75Q38.13 51.63 36.63 50.94Q35.13 50.25 34.25 49.50L34.25 49.50ZM48.50 57.75L48.50 57.75Q49 54.50 48.94 57.13Q48.88 59.75 48.50 57.75L48.50 57.75ZM32.63 45.38L32.63 45.38Q33.13 45.25 33 45.63Q32.88 46 32.63 45.38L32.63 45.38ZM36.38 47.63L36.38 47.63Q37.13 46.13 37.44 47.69Q37.75 49.25 36.38 47.63L36.38 47.63ZM46.88 53.50L46.88 53.50Q46.88 52.88 46.94 53.56Q47 54.25 46.88 53.50L46.88 53.50ZM46.25 52.13L46.25 52.13Q45.13 49.38 46.19 51.44Q47.25 53.50 46.25 52.13L46.25 52.13ZM45.38 49.75L45.38 49.75Q45.13 48.63 45.56 49.88Q46 51.13 45.38 49.75L45.38 49.75ZM46.88 47.38L46.88 47.38Q46.13 46.13 47.13 43.38Q48.13 40.63 48.38 43.38L48.38 43.38Q47.50 45.50 47.88 46.19Q48.25 46.88 48.75 44L48.75 44Q49.75 41.75 48.88 45.56Q48 49.38 46.88 47.38L46.88 47.38ZM48.25 38.50L48.25 38.50Q48.63 38.13 48.50 38.56Q48.38 39 48.25 38.50L48.25 38.50ZM45.88 87.63L45.88 87.63Q45.38 87.25 45.63 87.56Q45.88 87.88 45.88 87.63L45.88 87.63ZM51 90.25L51 90.25Q53.13 90.75 53.13 90.19Q53.13 89.63 51.25 89.38L51.25 89.38Q50.13 88.50 48.25 87.94Q46.38 87.38 49.38 89.25L49.38 89.25Q49.50 89.75 50.06 89.88Q50.63 90 51 90.25L51 90.25ZM40.75 83.50L40.75 83.50Q42 84.38 43.94 85.19Q45.88 86 43 83.88L43 83.88Q44 82.88 42.50 82.19Q41 81.50 41.88 80.75L41.88 80.75Q39.63 79.38 39.81 79.19Q40 79 41.63 79.13L41.63 79.13Q38.88 77.88 40.50 77.63Q42.13 77.38 41.88 76.75L41.88 76.75Q40.88 76.50 38.31 75.69Q35.75 74.88 38.25 76.88L38.25 76.88Q35.63 75.63 36.38 76.56Q37.13 77.50 36.38 77.25L36.38 77.25Q33.75 76.63 36.13 78.19Q38.50 79.75 35.88 79L35.88 79Q37.38 80.25 38.69 81.38Q40 82.50 36.63 80.63L36.63 80.63Q36.25 81.38 38.19 82.19Q40.13 83 40.75 83.50L40.75 83.50L40.75 83.50ZM46.13 86.50L46.13 86.50Q51.13 88.13 47.44 86.38Q43.75 84.63 46.13 86.50L46.13 86.50ZM73.63 103.25L73.63 103.25Q73.75 102.25 73.38 103.13Q73 104 73.63 103.25L73.63 103.25ZM76.50 104.38L76.50 104.38Q77.63 103.25 77.38 104.63Q77.13 106 79 104L79 104Q79 102.63 78.63 102.06Q78.25 101.50 76.25 103.25L76.25 103.25Q75.63 103.63 75.56 104.44Q75.50 105.25 76.50 104.38L76.50 104.38ZM31.63 76.25L31.63 76.25Q31.25 74.88 30.25 74.88Q29.25 74.88 31.63 76.25L31.63 76.25ZM34.63 78.25L34.63 78.25Q33.88 76.75 32.75 76.88Q31.63 77 34.63 78.25L34.63 78.25ZM51.88 88.50L51.88 88.50Q53.13 89.63 55.63 89.50Q58.13 89.38 53.88 88.75L53.88 88.75Q53.25 87.75 51.31 87.88Q49.38 88 51.88 88.50L51.88 88.50ZM75.38 103.13L75.38 103.13Q77.38 101.50 75.44 102.69Q73.50 103.88 75.38 103.13L75.38 103.13ZM80.75 106.75L80.75 106.75Q80.75 106.25 80.38 106.63Q80 107 80.75 106.75L80.75 106.75ZM80.75 105.88L80.75 105.88Q83 103.63 80.88 104.81Q78.75 106 80.75 105.88L80.75 105.88ZM24.25 70L24.25 70Q22.38 67.38 22.25 65.81Q22.13 64.25 20.38 62.13L20.38 62.13Q20 60.50 18.44 58.44Q16.88 56.38 18.50 60.25L18.50 60.25Q20 62.50 20.94 65.50Q21.88 68.50 24.25 70L24.25 70ZM79.88 104.88L79.88 104.88Q83.88 102.38 81.06 103.06Q78.25 103.75 79.88 104.88L79.88 104.88ZM83.88 106.50L83.88 106.50Q85.88 104.75 84.25 105.44Q82.63 106.13 83.88 106.50L83.88 106.50ZM30.75 72.38L30.75 72.38Q31.38 71.50 30.31 71.88Q29.25 72.25 30.75 72.38L30.75 72.38ZM82.63 105.50L83.13 105.38Q85 104.13 83.75 104.25Q82.50 104.38 82.63 105.50L82.63 105.50ZM48.50 83.63L48.50 83.63Q48.38 82.75 47.94 83.19Q47.50 83.63 48.50 83.63L48.50 83.63ZM50.63 84.75L50.63 84.75Q50.13 83.75 50 84.38Q49.88 85 50.63 84.75L50.63 84.75ZM86.50 106.88L87.13 106.50Q89.63 104.75 87.56 105.50Q85.50 106.25 86.50 106.88L86.50 106.88ZM85.88 105.88L85.88 105.88Q87.88 104.25 85.81 105.44Q83.75 106.63 85.88 105.88L85.88 105.88ZM92.25 110.13L92.25 110.13Q93.63 109.25 92.13 109.56Q90.63 109.88 92.25 110.13L92.25 110.13ZM32.38 71.63L32.38 71.63Q34.13 72 37.50 74.06Q40.88 76.13 37.75 72L37.75 72Q36.13 71.50 36.19 68.88Q36.25 66.25 34.63 67L34.63 67Q35.75 68.75 35.44 69.44Q35.13 70.13 32.75 68.88L32.75 68.88Q29.75 67.50 30.25 68.75Q30.75 70 31.25 70.63L31.25 70.63Q30.50 70.88 31.56 71.19Q32.63 71.50 32.38 71.63L32.38 71.63L32.38 71.63ZM21.50 63L21.50 63Q21.75 61.63 19.88 58.13Q18 54.63 19.38 59L19.38 59Q19.88 59.88 20.13 61.25Q20.38 62.63 21.50 63L21.50 63ZM41.50 75.25L41.50 75.25Q40.63 74.50 41.06 74.81Q41.50 75.13 41.50 75.25L41.50 75.25ZM44.50 76L44.50 76Q44.50 74.63 43.25 75Q42 75.38 44.50 76L44.50 76ZM70.88 92.63L70.88 92.63Q70.50 91.63 69.94 92.13Q69.38 92.63 70.88 92.63L70.88 92.63ZM72.13 93.50L72.13 93.50Q72 93 71.75 93.31Q71.50 93.63 72.13 93.50L72.13 93.50ZM82.50 100.13L82.50 100.13Q83.25 99.50 82.44 99.75Q81.63 100 82.50 100.13L82.50 100.13ZM26.88 64.38L26.88 64.38Q29.13 63.50 26.88 63.63Q24.63 63.75 26.88 64.38L26.88 64.38ZM68.50 90.50L68.50 90.50Q68.50 89.13 67.81 90Q67.13 90.88 68.50 90.50L68.50 90.50ZM25.75 61.75L25.75 61.75Q27.13 61.25 25.81 61.31Q24.50 61.38 25.75 61.75L25.75 61.75ZM31.13 64.25L31.13 64.25Q31.13 63.88 30.94 64.19Q30.75 64.50 31.13 64.25L31.13 64.25ZM96.38 104.25L96.38 104.25Q98.13 103.88 101.25 104.44Q104.38 105 105 103.63L105 103.63Q102.88 103.63 98.94 102.94Q95 102.25 94.75 104.13L94.75 104.13L95.38 104.25L96.38 104.25ZM32.88 64.75L32.88 64.75Q32.88 63.38 32.31 64Q31.75 64.63 32.88 64.75L32.88 64.75ZM18.75 55L18.75 55Q18.25 52.25 17.63 53.44Q17 54.63 18.75 55L18.75 55ZM22.13 55.88L22.13 55.88Q22.13 55 21 55Q19.88 55 22.13 55.88L22.13 55.88ZM24 56.75L24 56.75Q23.63 56.38 23.69 56.75Q23.75 57.13 24 56.75L24 56.75ZM36.13 64.50L36.13 64.50Q36.50 64.13 35.81 64.19Q35.13 64.25 36.13 64.50L36.13 64.50ZM22.75 54.63L22.75 54.63Q22.50 52.63 21.19 53.50Q19.88 54.38 22.75 54.63L22.75 54.63ZM15.88 50.13L15.88 50.13Q15.88 49.25 15.63 49.88Q15.38 50.50 15.88 50.13L15.88 50.13ZM16.88 49.38L16.88 49.38Q16.75 48.25 16.50 48.88Q16.25 49.50 16.88 49.38L16.88 49.38ZM22.13 52.63L22.63 52.75Q24.38 52.13 21.81 51.69Q19.25 51.25 22.13 52.63L22.13 52.63ZM98.13 99.50L98.13 99.50Q99.38 98.38 98.06 98.75Q96.75 99.13 98.13 99.50L98.13 99.50ZM107.25 104.25L107.25 104.25Q107.75 102.88 106.94 103.63Q106.13 104.38 107.25 104.25L107.25 104.25ZM23.13 49.88L23.13 49.88Q23.38 48.50 22.56 49.31Q21.75 50.13 23.13 49.88L23.13 49.88ZM15.13 44.50L15.13 44.50Q14.75 42.63 15.25 40.31Q15.75 38 18.88 39.13L18.88 39.13Q14.75 39.88 18.56 42.31Q22.38 44.75 21.50 41.38L21.50 41.38Q23.25 41.50 24.50 41.06Q25.75 40.63 24.88 42.25L24.88 42.25Q28.25 41.88 30.94 39.94Q33.63 38 37 38.38L37 38.38Q39.50 38 42.31 37.63Q45.13 37.25 47.88 36.25L47.88 36.25Q50.13 36 51.75 34.13Q53.38 32.25 52.13 30.75L52.13 30.75Q49.13 30.50 45.81 30.81Q42.50 31.13 39.13 31.88L39.13 31.88Q35.25 32.63 31.69 33.88Q28.13 35.13 24.25 35.75L24.25 35.75Q20.50 36.25 22.69 36.94Q24.88 37.63 23.88 37.88L23.88 37.88Q21.88 38.50 24 39.06Q26.13 39.63 23.50 40.38L23.50 40.38Q21.88 40 20.63 39.31Q19.38 38.63 20 37L20 37Q16.50 37.38 14.25 39.06Q12 40.75 14.88 44.50L14.88 44.50L15.13 44.50ZM26.63 38.50L26.63 38.50Q27.50 35.50 29.56 38.38Q31.63 41.25 28.50 39.13L28.50 39.13Q28.13 38.88 27.56 38.69Q27 38.50 26.63 38.50L26.63 38.50ZM26.88 36.50L26.88 36.50Q28.13 35.63 27.81 36.31Q27.50 37 26.88 36.50L26.88 36.50ZM29.75 37.25L29 36.63Q29 35.13 30.81 36.31Q32.63 37.50 29.75 37.25L29.75 37.25ZM31.75 35.50L31.75 35.50Q32.50 34.50 32.25 35.38Q32 36.25 31.75 35.50L31.75 35.50ZM32.50 35L32.50 35Q33.75 33.38 37.25 33.63Q40.75 33.88 36.38 34.75L36.38 34.75Q35.13 33.88 34.19 34.63Q33.25 35.38 32.50 35L32.50 35ZM42.88 33.38L42.88 33.38Q42.75 29.13 44.75 32Q46.75 34.88 42.88 33.38L42.88 33.38ZM45.88 33.38L45.88 33.38Q46.63 31.25 47.88 31.81Q49.13 32.38 46.38 32.75L46.38 32.75Q46.38 33 46.25 33.50Q46.13 34 45.88 33.38L45.88 33.38ZM22 48.38L22 48.38Q24.38 46.88 21.88 47Q19.38 47.13 22 48.38L22 48.38ZM24.38 49L24.38 49Q25.25 48.13 23.88 48.38Q22.50 48.63 24.38 49L24.38 49ZM17.38 44L17.38 44Q18.75 43 17.25 43.31Q15.75 43.63 17.38 44L17.38 44ZM112.75 103.75L112.75 103.75Q112.75 102.50 112.19 103.38Q111.63 104.25 112.75 103.75L112.75 103.75ZM103 97.13L103 97.13Q103.25 95.63 102.69 96.44Q102.13 97.25 103 97.13L103 97.13ZM115.38 104.38L115.38 104.38Q117.25 104.38 119.50 103.94Q121.75 103.50 117.50 103.50L117.50 103.50Q116.88 103.63 115 103.69Q113.13 103.75 115.38 104.38L115.38 104.38ZM26.50 47.88L26.50 47.88Q28 47.75 28.44 46.69Q28.88 45.63 26.13 45.75L26.13 45.75Q21.75 45.25 25.69 46.38Q29.63 47.50 25.38 46.88L25.38 46.88Q24.75 47.25 25.63 47.63Q26.50 48 26.50 47.88L26.50 47.88ZM28.38 48.75L28.38 48.75Q28.13 47.75 28 48.56Q27.88 49.38 28.38 48.75L28.38 48.75ZM30.50 43L30.50 43Q31.13 42.13 30.31 42.44Q29.50 42.75 30.50 43L30.50 43ZM23.50 31.38L23.50 31.38Q26.38 30.38 29.56 29.94Q32.75 29.50 34.13 32L34.13 32Q32.75 30.38 33.31 29.44Q33.88 28.50 35.13 30.88L35.13 30.88Q36.88 33.25 37.56 31.19Q38.25 29.13 37.13 28.38L37.13 28.38Q38.50 30 39.38 30.44Q40.25 30.88 38.38 28.50L38.38 28.50Q40.50 26 36.31 27.50Q32.13 29 30.75 28.88L30.75 28.88Q30 29.25 25.88 30.19Q21.75 31.13 23.50 31.38L23.50 31.38ZM25.75 27.25L25.75 27.25Q27.38 26 29.81 26.75Q32.25 27.50 29.75 25.63L29.75 25.63Q29.50 25.38 26.38 26.44Q23.25 27.50 25.75 27.25L25.75 27.25ZM33.50 27.50L33.50 27.50Q35.38 27.63 34.25 26.13Q33.13 24.63 35.38 25.75L35.38 25.75Q35 24.50 33.31 24.06Q31.63 23.63 30.50 23.25L30.50 23.25Q29.88 24.25 31.19 25.88Q32.50 27.50 33.50 27.50L33.50 27.50ZM27.13 20.50L27.13 20.50Q27.75 19.63 26.88 20.25Q26 20.88 27.13 20.50L27.13 20.50ZM29.50 21.25L30.25 21.25Q33.25 20.88 31.25 20.44Q29.25 20 29.50 21.25L29.50 21.25ZM24.38 16.63L24.38 16.63Q22.25 13.88 25.63 15.06Q29 16.25 26.75 13.38L26.75 13.38Q25 12 23.81 13.88Q22.63 15.75 24.38 16.63L24.38 16.63ZM60.50 36.13L60.50 36.13Q61.50 34.38 58.94 34Q56.38 33.63 59.75 35.25L59.75 35.25Q60 35.38 60.06 35.81Q60.13 36.25 60.50 36.13L60.50 36.13Z"/></svg>