<svg xmlns="http://www.w3.org/2000/svg" xmlns:xlink="http://www.w3.org/1999/xlink" width="128" height="128"><path fill="#ffffff" d="M18.75 82.63L18.75 82.63Q17.25 81.50 15.69 80.25Q14.13 79 13 77.38L13 77.38Q10.75 74.50 8.94 71.25Q7.13 68 5.88 64.50L5.88 64.50Q5.13 62.13 4.69 59.81Q4.25 57.50 3.25 55.25L3.25 55.25Q2.25 53.63 3.13 52.13Q4 50.63 5.75 50.13L5.75 50.13Q6.50 50 7.31 49.56Q8.13 49.13 6.38 49.75L6.38 49.75Q5 50.75 4.88 49.56Q4.75 48.38 6.25 48.25L6.25 48.25Q7.38 48.13 7.69 47.38Q8 46.63 7.75 45.88L7.75 45.88Q6.63 45.13 8.63 44.31Q10.63 43.50 8.75 42.50L8.75 42.50Q6.75 40.25 9.38 40.06Q12 39.88 10.88 42.25L10.88 42.25Q10.63 44.13 12.81 43.31Q15 42.50 14.25 44.75L14.25 44.75Q15 45.75 16.69 45.63Q18.38 45.50 18.38 47L18.38 47Q19.63 47 20.31 47.75Q21 48.50 22.13 48.63L22.13 48.63Q23.38 49.13 25.06 49.75Q26.75 50.38 27.25 51.63L27.25 51.63Q26 52.63 23.94 51.31Q21.88 50 21.75 52.63L21.75 52.63Q22.13 56.50 22.38 60.38Q22.63 64.25 24 68L24 68Q24.63 70.25 26.06 72.06Q27.50 73.88 29 75.63L29 75.63Q30.38 77.25 32.19 78.50Q34 79.75 36 80.88L36 80.88Q37.63 81.63 39.50 82.19Q41.38 82.75 43.13 83L43.13 83Q43.88 82.50 45.13 81.13Q46.38 79.75 47.50 80.63L47.50 80.63Q47.50 81.63 46.31 82.50Q45.13 83.38 47.38 83.25L47.38 83.25Q48.63 82.88 49.63 83.56Q50.63 84.25 51.75 83L51.75 83Q52.75 84.13 54.88 83.44Q57 82.75 56.25 85.13L56.25 85.13Q55.25 85.75 54.06 85.75Q52.88 85.75 51.88 86.63L51.88 86.63Q50.25 85.75 48.88 86.63Q47.50 87.50 45.75 87.25L45.75 87.25Q43.88 87.63 41.94 87.75Q40 87.88 38 87.88L38 87.88Q34.75 87.63 31.56 87.38Q28.38 87.13 25.25 86L25.25 86Q23.63 85.50 21.94 84.56Q20.25 83.63 18.75 82.63L18.75 82.63L18.75 82.63ZM22.38 84.25L22.38 84.25Q24 85 25.69 85.63Q27.38 86.25 29.25 86.50L29.25 86.50Q32.13 87 35.13 87.38Q38.13 87.75 41 87.13L41 87.13Q39.75 86.50 38.38 86.88Q37 87.25 35.75 86.63L35.75 86.63Q34.13 86.88 32.44 86.63Q30.75 86.38 29.13 86.25L29.13 86.25Q27.38 85.38 25.44 84.69Q23.50 84 21.88 83L21.88 83Q19.63 82.13 21.56 83.25Q23.50 84.38 24.13 84.50L24.13 84.50Q25.38 85.25 23.69 84.56Q22 83.88 21.63 83.50L21.63 83.50Q20.50 82.88 20.38 83Q20.25 83.13 21.38 83.75L21.38 83.75Q21.63 83.88 21.88 84Q22.13 84.13 22.38 84.25L22.38 84.25L22.38 84.25ZM18.13 81.25L18.13 81.25Q19.75 81.88 18.81 80.81Q17.88 79.75 17.13 79.88L17.13 79.88Q16.75 79.25 16.19 78.88Q15.63 78.50 16.25 78.25L16.25 78.25Q15.13 78.63 14.81 77.44Q14.50 76.25 13.88 76.50L13.88 76.50Q12.63 76.13 12.69 75Q12.75 73.88 11.25 73L11.25 73Q11.13 72 10.13 71.13Q9.13 70.25 8.75 68.88L8.75 68.88Q8.50 68.25 7.75 67.06Q7 65.88 7.75 67.75L7.75 67.75Q8.50 69.63 9.63 71.19Q10.75 72.75 11.75 74.25L11.75 74.25Q12.50 75.75 13.50 77.19Q14.50 78.63 15.88 79.50L15.88 79.50Q16.38 80 16.88 80.56Q17.38 81.13 18.13 81.25L18.13 81.25L18.13 81.25ZM11.88 74.38L11.88 74.38Q11.88 74.13 12 74.50Q12.13 74.88 11.88 74.38L11.88 74.38ZM20.75 82.25L20.75 82.25Q21.13 82 20.69 82Q20.25 82 20.75 82.25L20.75 82.25ZM21.88 82.63L21.88 82.63Q21.75 82.25 21.63 82.56Q21.50 82.88 21.88 82.63L21.88 82.63ZM23.38 83.25L23.38 83.25Q23.88 82.75 23.19 82.81Q22.50 82.88 23.38 83.25L23.38 83.25ZM25.88 84.63L25.88 84.63Q26.25 84.13 25.56 84.31Q24.88 84.50 25.88 84.63L25.88 84.63ZM21 81.25L21 81.25Q21.88 80.75 20.94 81Q20 81.25 21 81.25L21 81.25ZM22.13 81.88L22.13 81.88Q22.13 81.50 22 81.75Q21.88 82 22.13 81.88L22.13 81.88ZM27.63 85.25L27.63 85.25Q28.38 85.75 30.25 86Q32.13 86.25 30.13 85.50L30.13 85.50Q29.88 85.63 27.81 85.06Q25.75 84.50 27.63 85.25L27.63 85.25ZM18.88 78.50L18.88 78.50Q18.88 78.13 18.38 78.13Q17.88 78.13 18.88 78.50L18.88 78.50ZM21.50 80L21.50 80Q22 79.63 21.19 79.63Q20.38 79.63 21.50 80L21.50 80ZM23.63 81.25L23.63 81.25Q24.38 81 23.44 81Q22.50 81 23.63 81.25L23.63 81.25ZM17.88 77.25L17.88 77.25Q18.63 77.88 20 77.56Q21.38 77.25 19.50 76.88L19.50 76.88Q18.50 76.38 17.25 76.25Q16 76.13 17.38 77.25L17.38 77.25L17.88 77.25ZM25.13 81.75L25.13 81.75Q25.38 81.13 24.56 81.25Q23.75 81.38 25.13 81.75L25.13 81.75ZM22.63 79.88L22.88 80Q24.75 80.50 22.94 79.63Q21.13 78.75 22.25 79.75L22.25 79.75L22.63 79.88ZM27.25 82.50L27.25 82.50Q29.13 82.50 27.38 82.38Q25.63 82.25 27.25 82.50L27.25 82.50L27.25 82.50ZM16.88 75.88L16.88 75.88Q16.88 75.63 16.69 75.81Q16.50 76 16.88 75.88L16.88 75.88ZM31.38 84.88L31.38 84.88Q31.50 84.25 31.13 84.75Q30.75 85.25 31.38 84.88L31.38 84.88ZM21 78.38L21 78.38Q20.88 78.13 20.69 78.25Q20.50 78.38 21 78.38L21 78.38ZM17.13 75.63L17.13 75.63Q18.25 75.63 17 75.38Q15.75 75.13 17.13 75.63L17.13 75.63ZM12.50 72.63L12.50 72.63Q12.38 72.13 11.88 71.94Q11.38 71.75 12.50 72.63L12.50 72.63ZM24.63 80.38L24.63 80.38Q24.50 80.13 24.50 80.25Q24.50 80.38 24.63 80.38L24.63 80.38ZM32.13 85L32.13 85Q32.13 84.63 32 84.88Q31.88 85.13 32.13 85L32.13 85ZM24 79.63L24 79.63Q24.13 79.25 23.63 79.38Q23.13 79.50 24 79.63L24 79.63ZM18.38 76.13L18.38 76.13Q19.13 76 18.13 75.75Q17.13 75.50 18.38 76.13L18.38 76.13ZM27.88 82L27.88 82Q29 81.50 27.81 81.63Q26.63 81.75 27.88 82L27.88 82ZM22.50 78.50L22.88 78.63Q24.25 78.75 22.69 78.19Q21.13 77.63 22.50 78.50L22.50 78.50ZM29.38 82.63L29.38 82.63Q30.63 81.75 30.81 83.13Q31 84.50 32.25 82.88L32.25 82.88Q33.63 81.88 32.44 83Q31.25 84.13 32.88 83.13L32.88 83.13Q34.13 82.38 35.63 83.06Q37.13 83.75 38.25 84.13L38.25 84.13Q39 84 39.81 84.44Q40.63 84.88 41.38 84.38L41.38 84.38Q42.88 84 40.31 83.69Q37.75 83.38 38.88 82.63L38.88 82.63Q37.50 83 36.44 82.31Q35.38 81.63 34.75 80.75L34.75 80.75Q33.13 80.38 31.50 79.56Q29.88 78.75 29.13 77.25L29.13 77.25Q28.75 76.75 29.13 76.94Q29.50 77.13 28.75 76.25L28.75 76.25Q27.75 75.38 27.19 74.44Q26.63 73.50 26 72.50L26 72.50Q25.25 72 25 71.44Q24.75 70.88 24.75 72.38L24.75 72.38Q24.75 71.38 24.06 70.81Q23.38 70.25 23.13 70.50L23.13 70.50Q23.13 69.63 23.69 69.63Q24.25 69.63 23.63 69L23.63 69Q23.38 68 23 66.94Q22.63 65.88 22.50 64.75L22.50 64.75Q22.25 64.25 22.25 63.56Q22.25 62.88 21.50 64.13L21.50 64.13Q21.13 65.38 21.31 63.88Q21.50 62.38 21.88 63.25L21.88 63.25Q22.50 62.38 22.06 62.31Q21.63 62.25 21.63 62.38L21.63 62.38Q22 61.50 21.88 60.69Q21.75 59.88 21.50 60.25L21.50 60.25Q21.63 59.38 21.63 57.75Q21.63 56.13 21.13 56.63L21.13 56.63Q21.38 55.63 21.44 53.56Q21.50 51.50 19.88 52.75L19.88 52.75Q19.25 52.75 18.31 52.94Q17.38 53.13 16.88 53.38L16.88 53.38Q18.50 54.25 17.44 54Q16.38 53.75 15.75 53.63L15.75 53.63Q15.63 54.50 15 54.38Q14.38 54.25 13.63 54.25L13.63 54.25Q14.88 54.38 13.69 55.13Q12.50 55.88 11.75 55.50L11.75 55.50Q10.75 55.88 11.69 56.81Q12.63 57.75 11.75 58.13L11.75 58.13Q11.88 58.75 10.81 58.50Q9.75 58.25 9.88 59.63L9.88 59.63Q8.88 59.13 9.38 60.25Q9.88 61.38 10.38 60.75L10.38 60.75Q12 61.13 11.94 62.06Q11.88 63 12 63.88L12 63.88Q11.63 64.50 11.06 63.38Q10.50 62.25 11.63 62.25L11.63 62.25Q10.75 60.88 10.44 61.38Q10.13 61.88 9.38 62.50L9.38 62.50Q9.25 62.50 10.31 63.19Q11.38 63.88 10.13 64.25L10.13 64.25Q11.25 64.50 11.50 65.25Q11.75 66 12 66.63L12 66.63Q12.63 67.25 12.75 66.56Q12.88 65.88 13.75 66.63L13.75 66.63Q13.25 66 12 65.06Q10.75 64.13 12.50 64.50L12.50 64.50Q12.50 63.75 12.38 63.25Q12.25 62.75 12.75 62.75L12.75 62.75Q13.25 61.75 12.88 63.63Q12.50 65.50 13.63 64.25L13.63 64.25Q14 64.13 14.19 63.75Q14.38 63.38 15 64.38L15 64.38Q15.75 65.13 15.38 65.56Q15 66 13.75 65.25L13.75 65.25Q14 66 14.88 66.44Q15.75 66.88 15.50 68.13L15.50 68.13Q15.88 69.13 16.19 69Q16.50 68.88 16.88 68.88L16.88 68.88Q17.13 69.75 17.25 69.38Q17.38 69 17.50 68.63L17.50 68.63Q18.63 68.88 18.69 69.44Q18.75 70 19.13 70.50L19.13 70.50Q20 70.88 19.06 69.25Q18.13 67.63 19.50 69.38L19.50 69.38Q21 70.75 20.38 71.31Q19.75 71.88 18.50 71.63L18.50 71.63Q19.25 71.63 19.81 72.38Q20.38 73.13 21.38 73.13L21.38 73.13Q22.38 73.63 22.69 74.75Q23 75.88 21.38 75.13L21.38 75.13Q20.75 74.63 19.56 74.25Q18.38 73.88 20 74.88L20 74.88Q21.63 75.63 22.94 76.19Q24.25 76.75 25.75 77.63L25.75 77.63Q26.88 78.38 27.44 79.13Q28 79.88 28.38 80L28.38 80Q27.50 80.50 26.31 80Q25.13 79.50 26.50 79.25L26.50 79.25Q25.75 79.13 25.06 79Q24.38 78.88 25.25 79.88L25.25 79.88Q25.88 80.50 27.25 80.56Q28.63 80.63 28.88 80.63L28.88 80.63Q28.63 81.25 28.38 81.38Q28.13 81.50 28.88 81.63L28.88 81.63Q28.13 82 28.69 82.19Q29.25 82.38 29.38 82.63L29.38 82.63L29.38 82.63ZM27.13 76.25L27.13 76.25Q26.63 75.75 26.56 75.19Q26.50 74.63 27 75.50L27 75.50Q27.25 75.50 27.56 76.38Q27.88 77.25 27.13 76.25L27.13 76.25L27.13 76.25ZM34.38 80.88L34.38 80.88Q34.63 80.88 34.50 81Q34.38 81.13 34.38 80.88L34.38 80.88ZM26.13 74.63L26.13 74.63Q26.13 73.88 26.19 74.56Q26.25 75.25 26.13 74.63L26.13 74.63ZM25.38 73.63L25.38 73.63Q24.75 72.38 25.44 73.19Q26.13 74 25.38 73.63L25.38 73.63ZM16.63 67.63L16.63 67.63Q17 67.50 16.94 67.88Q16.88 68.25 16.63 67.63L16.63 67.63ZM23.63 71.38L23.63 71.38Q23.75 70.50 23.81 71.31Q23.88 72.13 23.63 71.38L23.63 71.38ZM18.63 68L18.63 68Q18.38 67.50 18.81 67.94Q19.25 68.38 18.63 68L18.63 68ZM23.13 69.63L22.88 69.38Q22.25 68 22.81 68.31Q23.38 68.63 23.13 69.63L23.13 69.63ZM15.63 64.50L15.63 64.50Q15.38 64 15.06 63.06Q14.75 62.13 14.88 61.63L14.88 61.63Q15 62.38 15.69 63.56Q16.38 64.75 15.63 62.88L15.63 62.88Q14.88 61.25 16 62.44Q17.13 63.63 17.25 64L17.25 64Q17.38 64.38 17.06 64.31Q16.75 64.25 17.13 65.13L17.13 65.13Q16.38 64.13 16.31 64.81Q16.25 65.50 15.63 64.50L15.63 64.50L15.63 64.50ZM13.38 63L13.38 63Q13.50 61.88 13.63 62.75Q13.75 63.63 13.38 63L13.38 63ZM14.38 63.25L14.38 63.25Q14.75 62.50 14.88 63.44Q15 64.38 14.38 63.25L14.38 63.25ZM12 61.38L12 61.38Q11.38 60.75 11.13 60.44Q10.88 60.13 12 60.88L12 60.88Q12.50 60.88 11.81 60.19Q11.13 59.50 12.13 60.38L12.13 60.38Q13.25 60.50 12.94 61.44Q12.63 62.38 12 61.38L12 61.38ZM13.25 61.38L13.25 61.38Q13.63 61 13.56 61.38Q13.50 61.75 13.25 61.38L13.25 61.38ZM14 61.63L14 61.63Q13.50 60.63 14.13 61.31Q14.75 62 14 61.63L14 61.63ZM12.88 60.50L12.50 60.13Q10.63 58.50 12.75 59.81Q14.88 61.13 12.88 60.50L12.88 60.50ZM19.38 64.13L19.38 64.13Q18.63 63.75 18.94 62.06Q19.25 60.38 19.50 62.38L19.50 62.38Q20.25 62.13 19.94 62.88Q19.63 63.63 20.25 63.63L20.25 63.63Q20.13 64.50 19.88 64.69Q19.63 64.88 19.38 64.13L19.38 64.13ZM22 65.75L22 65.75Q22.13 64.88 22.13 65.56Q22.13 66.25 22 65.75L22 65.75ZM21.50 65.25L21.50 65.25Q21.63 64.88 21.56 65.31Q21.50 65.75 21.50 65.25L21.50 65.25ZM13 59.38L13 59.38Q11.75 57.88 14.19 59.56Q16.63 61.25 14 60L14 60Q13.63 59.88 13.38 59.81Q13.13 59.75 13 59.38L13 59.38ZM17.88 62L17.88 62Q17.75 60.75 17.94 61.50Q18.13 62.25 17.88 62L17.88 62L17.88 62ZM21.63 64.50L21.63 64.50Q21.88 63.75 21.75 64.38Q21.63 65 21.63 64.50L21.63 64.50ZM13.25 58.63L13.25 58.63Q13.88 58.50 15.13 59.25Q16.38 60 14.38 59.13L14.38 59.13Q14.13 58.88 13.75 58.88Q13.38 58.88 13.25 58.63L13.25 58.63L13.25 58.63ZM21.13 62.88L21.13 62.63Q21.25 61.13 21.38 61.44Q21.50 61.75 21.13 62.88L21.13 62.88ZM13.88 58L13.88 58Q14.13 57.50 13.63 56.69Q13.13 55.88 14.13 57.25L14.13 57.25Q14.50 57.63 14.94 57.81Q15.38 58 14.75 58.13L14.75 58.13Q15.75 59 15 58.69Q14.25 58.38 13.88 58L13.88 58ZM20.75 62L20.75 62Q21 60.38 20.94 61.63Q20.88 62.88 20.75 62L20.75 62ZM13.13 56L13.13 56Q13.25 55.88 13.25 56.06Q13.25 56.25 13.13 56L13.13 56ZM14.88 57.13L14.88 57.13Q15.25 56.38 15.38 57.13Q15.50 57.88 14.88 57.13L14.88 57.13ZM20 59.88L20 59.88Q19.88 59.63 19.94 59.94Q20 60.25 20 59.88L20 59.88ZM19.63 59.25L19.63 59.25Q19.13 58 19.63 58.94Q20.13 59.88 19.63 59.25L19.63 59.25ZM19.25 58.13L19.25 58.13Q19.13 57.63 19.31 58.19Q19.50 58.75 19.25 58.13L19.25 58.13L19.25 58.13ZM19.88 57L19.88 57Q19.50 56.38 20 55Q20.50 53.63 20.63 55L20.63 55Q20.25 56.13 20.44 56.44Q20.63 56.75 20.88 55.38L20.88 55.38Q21.38 54.25 20.94 56.06Q20.50 57.88 19.88 57L19.88 57L19.88 57ZM20.63 52.63L20.63 52.63Q20.75 52.50 20.69 52.69Q20.63 52.88 20.63 52.63L20.63 52.63ZM19.38 76.38L19.38 76.38Q19.25 76.25 19.38 76.38Q19.50 76.50 19.38 76.38L19.38 76.38ZM21.88 77.63L21.88 77.63Q23 77.88 23 77.63Q23 77.38 22 77.25L22 77.25Q21.50 76.75 20.63 76.50Q19.75 76.25 21.13 77.13L21.13 77.13Q21.25 77.38 21.50 77.44Q21.75 77.50 21.88 77.63L21.88 77.63ZM17 74.38L17 74.38Q17.63 74.88 18.50 75.25Q19.38 75.63 18.13 74.63L18.13 74.63Q18.50 74.13 17.81 73.75Q17.13 73.38 17.50 73.13L17.50 73.13Q16.38 72.38 16.50 72.31Q16.63 72.25 17.38 72.25L17.38 72.25Q16.13 71.63 16.88 71.56Q17.63 71.50 17.50 71.13L17.50 71.13Q17 71 15.81 70.63Q14.63 70.25 15.75 71.25L15.75 71.25Q14.50 70.63 14.88 71.06Q15.25 71.50 14.88 71.38L14.88 71.38Q13.63 71.13 14.75 71.88Q15.88 72.63 14.63 72.25L14.63 72.25Q15.38 72.88 16 73.38Q16.63 73.88 15 73L15 73Q14.75 73.38 15.69 73.75Q16.63 74.13 17 74.38L17 74.38L17 74.38ZM19.63 75.88L19.63 75.88Q22 76.63 20.25 75.81Q18.50 75 19.63 75.88L19.63 75.88ZM32.88 83.88L32.88 83.88Q32.88 83.50 32.75 83.94Q32.63 84.38 32.88 83.88L32.88 83.88ZM34.25 84.50L34.25 84.50Q34.75 84 34.69 84.63Q34.63 85.25 35.50 84.38L35.50 84.38Q35.50 83.63 35.31 83.38Q35.13 83.13 34.13 84L34.13 84Q33.88 84.13 33.81 84.50Q33.75 84.88 34.25 84.50L34.25 84.50L34.25 84.50ZM12.63 70.88L12.63 70.88Q12.38 70.25 11.88 70.25Q11.38 70.25 12.63 70.88L12.63 70.88ZM14 71.88L14 71.88Q13.63 71.13 13.13 71.19Q12.63 71.25 14 71.88L14 71.88ZM22.38 76.88L22.38 76.88Q23 77.38 24.19 77.31Q25.38 77.25 23.38 77L23.38 77Q23 76.50 22.06 76.56Q21.13 76.63 22.38 76.88L22.38 76.88ZM33.75 83.88L33.75 83.88Q34.63 83.13 33.75 83.69Q32.88 84.25 33.75 83.88L33.75 83.88ZM36.38 85.63L36.38 85.63Q36.38 85.38 36.13 85.56Q35.88 85.75 36.38 85.63L36.38 85.63ZM36.38 85.25L36.38 85.25Q37.38 84.13 36.38 84.69Q35.38 85.25 36.38 85.25L36.38 85.25L36.38 85.25ZM9 67.88L9 67.88Q8.13 66.63 8.06 65.88Q8 65.13 7.13 64.13L7.13 64.13Q7 63.25 6.25 62.25Q5.50 61.25 6.25 63.25L6.25 63.25Q7 64.25 7.44 65.69Q7.88 67.13 9 67.88L9 67.88ZM35.88 84.75L35.88 84.75Q37.75 83.50 36.44 83.88Q35.13 84.25 35.88 84.75L35.88 84.75ZM37.88 85.50L37.88 85.50Q38.75 84.63 38 85Q37.25 85.38 37.88 85.50L37.88 85.50ZM12.13 69L12.13 69Q12.38 68.63 11.94 68.81Q11.50 69 12.13 69L12.13 69ZM37.25 85L37.38 85Q38.38 84.38 37.75 84.44Q37.13 84.50 37.25 85L37.25 85ZM20.75 74.50L20.75 74.50Q20.75 74 20.50 74.25Q20.25 74.50 20.75 74.50L20.75 74.50ZM21.75 75L21.75 75Q21.50 74.50 21.44 74.81Q21.38 75.13 21.75 75L21.75 75ZM39.13 85.75L39.38 85.50Q40.63 84.63 39.63 85Q38.63 85.38 39.13 85.75L39.13 85.75ZM38.75 85.25L38.75 85.25Q39.75 84.38 38.75 85Q37.75 85.63 38.75 85.25L38.75 85.25ZM41.88 87.25L41.88 87.25Q42.50 86.88 41.81 87Q41.13 87.13 41.88 87.25L41.88 87.25ZM13 68.63L13 68.63Q13.88 68.88 15.44 69.88Q17 70.88 15.50 68.88L15.50 68.88Q14.75 68.63 14.81 67.38Q14.88 66.13 14 66.38L14 66.38Q14.63 67.38 14.44 67.63Q14.25 67.88 13.13 67.38L13.13 67.38Q11.75 66.63 11.94 67.25Q12.13 67.88 12.38 68.25L12.38 68.25Q12 68.25 12.50 68.44Q13 68.63 13 68.63L13 68.63L13 68.63ZM7.63 64.50L7.63 64.50Q7.88 63.88 6.94 62.19Q6 60.50 6.63 62.63L6.63 62.63Q6.88 63 7 63.63Q7.13 64.25 7.63 64.50L7.63 64.50ZM17.38 70.50L17.38 70.50Q16.88 70.13 17.13 70.25Q17.38 70.38 17.38 70.50L17.38 70.50ZM18.88 70.75L18.88 70.75Q18.88 70.13 18.25 70.31Q17.63 70.50 18.88 70.75L18.88 70.75ZM31.50 78.75L31.50 78.75Q31.38 78.38 31.06 78.56Q30.75 78.75 31.50 78.75L31.50 78.75L31.50 78.75ZM32.13 79.25L32.13 79.25Q32 79 31.94 79.13Q31.88 79.25 32.13 79.25L32.13 79.25ZM37.13 82.38L37.13 82.38Q37.50 82.13 37.13 82.25Q36.75 82.38 37.13 82.38L37.13 82.38ZM10.25 65.13L10.25 65.13Q11.38 64.75 10.31 64.81Q9.25 64.88 10.25 65.13L10.25 65.13ZM30.38 77.88L30.38 77.88Q30.38 77.13 30.06 77.56Q29.75 78 30.38 77.88L30.38 77.88ZM9.75 63.88L9.75 63.88Q10.38 63.63 9.75 63.69Q9.13 63.75 9.75 63.88L9.75 63.88ZM12.38 65.13L12.38 65.13Q12.38 64.88 12.25 65.06Q12.13 65.25 12.38 65.13L12.38 65.13ZM43.38 84.38L43.88 84.50Q44.75 84.25 46.25 84.56Q47.75 84.88 48 84.13L48 84.13Q47 84.13 45.06 83.81Q43.13 83.50 43 84.38L43 84.38L43.38 84.38ZM13.13 65.38L13.13 65.38Q13.13 64.63 12.88 65Q12.63 65.38 13.13 65.38L13.13 65.38ZM6.38 60.63L6.38 60.63Q6.13 59.38 5.81 59.94Q5.50 60.50 6.38 60.63L6.38 60.63ZM8 61L8 61Q8 60.63 7.44 60.63Q6.88 60.63 8 61L8 61ZM8.88 61.50L8.88 61.50Q8.75 61.38 8.75 61.56Q8.75 61.75 8.88 61.50L8.88 61.50ZM14.75 65.25L14.75 65.25Q15 65 14.63 65.06Q14.25 65.13 14.75 65.25L14.75 65.25ZM8.25 60.50L8.25 60.50Q8.25 59.50 7.56 59.94Q6.88 60.38 8.25 60.50L8.25 60.50ZM5 58.38L5 58.38Q5 57.88 4.88 58.19Q4.75 58.50 5 58.38L5 58.38ZM5.50 58L5.50 58Q5.38 57.38 5.25 57.69Q5.13 58 5.50 58L5.50 58ZM8 59.50L8.25 59.63Q9.13 59.25 7.88 59.06Q6.63 58.88 8 59.50L8 59.50ZM44.75 82.13L44.75 82.13Q45.25 81.63 44.63 81.81Q44 82 44.75 82.13L44.75 82.13ZM49.13 84.38L49.13 84.38Q49.38 83.75 49 84.13Q48.63 84.50 49.13 84.38L49.13 84.38ZM8.50 58.13L8.50 58.13Q8.63 57.50 8.19 57.88Q7.75 58.25 8.50 58.13L8.50 58.13ZM4.50 55.50L4.63 55.50Q4.50 54.63 4.69 53.50Q4.88 52.38 6.38 53L6.38 53Q4.38 53.38 6.25 54.56Q8.13 55.75 7.75 54.13L7.75 54.13Q8.50 54.13 9.13 53.88Q9.75 53.63 9.25 54.50L9.25 54.50Q11 54.38 12.31 53.38Q13.63 52.38 15.13 52.63L15.13 52.63Q16.38 52.50 17.75 52.25Q19.13 52 20.38 51.50L20.38 51.50Q21.50 51.50 22.31 50.56Q23.13 49.63 22.50 48.88L22.50 48.88Q21 48.75 19.44 48.94Q17.88 49.13 16.13 49.50L16.13 49.50Q14.38 49.88 12.63 50.44Q10.88 51 9 51.38L9 51.38Q7.25 51.63 8.31 51.94Q9.38 52.25 8.75 52.38L8.75 52.38Q7.88 52.75 8.88 53Q9.88 53.25 8.63 53.63L8.63 53.63Q7.88 53.38 7.25 53.06Q6.63 52.75 7 51.88L7 51.88Q5.25 52.13 4.19 52.94Q3.13 53.75 4.50 55.50L4.50 55.50ZM10.13 52.75L10.13 52.75Q10.63 51.25 11.63 52.63Q12.63 54 11.13 53L11.13 53Q10.88 52.88 10.63 52.75Q10.38 52.63 10.13 52.75L10.13 52.75ZM10.25 51.75L10.25 51.75Q10.88 51.25 10.75 51.63Q10.63 52 10.25 51.75L10.25 51.75ZM11.63 52.13L11.25 51.75Q11.38 51.13 12.25 51.69Q13.13 52.25 11.63 52.13L11.63 52.13ZM12.63 51.25L12.63 51.25Q13 50.75 12.88 51.19Q12.75 51.63 12.63 51.25L12.63 51.25ZM13 51L13 51Q13.63 50.25 15.31 50.38Q17 50.50 14.88 50.88L14.88 50.88Q14.25 50.50 13.81 50.81Q13.38 51.13 13 51L13 51ZM18 50.25L18 50.25Q17.88 48.13 18.88 49.50Q19.88 50.88 18 50.25L18 50.25ZM19.50 50.25L19.50 50.25Q19.88 49.13 20.44 49.44Q21 49.75 19.75 49.88L19.75 49.88Q19.75 50 19.69 50.25Q19.63 50.50 19.50 50.25L19.50 50.25ZM7.88 57.50L7.88 57.50Q9.13 56.75 7.88 56.81Q6.63 56.88 7.88 57.50L7.88 57.50L7.88 57.50ZM9.13 57.75L9.13 57.75Q9.50 57.38 8.81 57.50Q8.13 57.63 9.13 57.75L9.13 57.75ZM5.63 55.38L5.63 55.38Q6.38 54.88 5.63 55Q4.88 55.13 5.63 55.38L5.63 55.38ZM51.75 84.13L51.75 84.13Q51.75 83.63 51.50 84Q51.25 84.38 51.75 84.13L51.75 84.13ZM47 81L47 81Q47.13 80.25 46.88 80.63Q46.63 81 47 81L47 81ZM53 84.50L53 84.50Q54 84.50 55.06 84.31Q56.13 84.13 54.13 84.13L54.13 84.13Q53.75 84.13 52.88 84.19Q52 84.25 53 84.50L53 84.50L53 84.50ZM10.13 57.25L10.13 57.25Q10.88 57.13 11.06 56.63Q11.25 56.13 9.88 56.13L9.88 56.13Q7.88 56 9.75 56.50Q11.63 57 9.50 56.75L9.50 56.75Q9.25 56.88 9.69 57.06Q10.13 57.25 10.13 57.25L10.13 57.25ZM11 57.63L11 57.63Q10.88 57.13 10.81 57.50Q10.75 57.88 11 57.63L11 57.63ZM12 54.88L12 54.88Q12.38 54.50 12 54.63Q11.63 54.75 12 54.88L12 54.88ZM8.63 49.25L8.63 49.25Q10 48.75 11.56 48.56Q13.13 48.38 13.75 49.50L13.75 49.50Q13.13 48.75 13.38 48.31Q13.63 47.88 14.25 49L14.25 49Q15.13 50.13 15.44 49.13Q15.75 48.13 15.25 47.75L15.25 47.75Q15.88 48.63 16.31 48.81Q16.75 49 15.88 47.88L15.88 47.88Q16.88 46.63 14.88 47.31Q12.88 48 12.13 48L12.13 48Q11.75 48.25 9.75 48.69Q7.75 49.13 8.63 49.25L8.63 49.25L8.63 49.25ZM9.75 47.25L9.75 47.25Q10.50 46.63 11.69 47Q12.88 47.38 11.63 46.50L11.63 46.50Q11.50 46.38 10 46.88Q8.50 47.38 9.75 47.25L9.75 47.25ZM13.50 47.38L13.50 47.38Q14.38 47.38 13.88 46.69Q13.38 46 14.38 46.50L14.38 46.50Q14.25 45.88 13.38 45.69Q12.50 45.50 12 45.25L12 45.25Q11.75 45.88 12.38 46.63Q13 47.38 13.50 47.38L13.50 47.38L13.50 47.38ZM10.38 44L10.38 44Q10.75 43.50 10.31 43.88Q9.88 44.25 10.38 44L10.38 44ZM11.50 44.38L11.88 44.38Q13.38 44.13 12.44 43.94Q11.50 43.75 11.50 44.38L11.50 44.38ZM9.13 42.13L9.13 42.13Q8 40.75 9.63 41.38Q11.25 42 10.25 40.50L10.25 40.50Q9.38 39.88 8.81 40.81Q8.25 41.75 9.13 42.13L9.13 42.13L9.13 42.13ZM26.50 51.50L26.50 51.50Q27 50.75 25.75 50.50Q24.50 50.25 26.13 51.13L26.13 51.13Q26.25 51.13 26.31 51.38Q26.38 51.63 26.50 51.50L26.50 51.50ZM56.13 43.88L56.13 43.88Q55.88 44.50 55.81 45.63Q55.75 46.75 55.63 48.38L55.63 48.38Q55.63 48.63 55.50 48.81Q55.38 49 55.13 49L55.13 49Q54.88 49 54.63 48.81Q54.38 48.63 54.38 48.38L54.38 48.38Q54 47.63 53.75 47.13Q53.50 46.63 53.25 46.38L53.25 46.38Q52.88 46 52.44 45.81Q52 45.63 51.50 45.63L51.50 45.63Q51 45.50 49.56 45.44Q48.13 45.38 45.88 45.38L45.88 45.38Q45.38 45.38 45.06 45.44Q44.75 45.50 44.63 45.63L44.63 45.63Q44.50 45.75 44.44 45.88Q44.38 46 44.38 46.25L44.38 46.25L44.38 55.13Q44.38 55.38 44.50 55.50Q44.63 55.63 45 55.63L45 55.63Q45.88 55.63 47.13 55.56Q48.38 55.50 50 55.38L50 55.38Q50.38 55.38 50.56 55.25Q50.75 55.13 50.88 54.88L50.88 54.88Q51 54.75 51.13 54.31Q51.25 53.88 51.38 53.13L51.38 53.13Q51.38 52.75 51.63 52.63Q51.88 52.50 52.25 52.50L52.25 52.50Q52.63 52.63 52.75 52.75Q52.88 52.88 52.88 53.13L52.88 53.13Q52.63 54.50 52.50 56.25Q52.38 58 52.50 60.13L52.50 60.13Q52.50 60.38 52.38 60.50Q52.25 60.63 51.88 60.63L51.88 60.63Q51.63 60.75 51.44 60.56Q51.25 60.38 51.13 60.13L51.13 60.13Q50.88 58.88 50.44 58.19Q50 57.50 49.25 57.50L49.25 57.50Q48.63 57.38 47.44 57.31Q46.25 57.25 44.75 57.25L44.75 57.25Q44.50 57.25 44.44 57.31Q44.38 57.38 44.38 57.50L44.38 57.50L44.38 66.38Q44.38 66.88 44.56 67.25Q44.75 67.63 45.13 67.75L45.13 67.75Q45.38 67.88 46 68Q46.63 68.13 47.63 68.25L47.63 68.25Q48.13 68.38 48.31 68.56Q48.50 68.75 48.38 69.13L48.38 69.13Q48.38 69.50 47.94 69.63Q47.50 69.75 46.75 69.63L46.75 69.63Q44.38 69.50 42.44 69.50Q40.50 69.50 39 69.75L39 69.75Q38.50 69.75 38.31 69.56Q38.13 69.38 38.13 69L38.13 69Q38.13 68.75 38.31 68.63Q38.50 68.50 39 68.38L39 68.38Q40 68.25 40.44 67.44Q40.88 66.63 40.88 65L40.88 65L40.88 48.13Q40.88 47.50 40.75 47Q40.63 46.50 40.50 46.13L40.50 46.13Q40.25 45.75 39.81 45.44Q39.38 45.13 38.75 44.88L38.75 44.88Q38.38 44.63 38.19 44.44Q38 44.25 38.13 43.88L38.13 43.88Q38.13 43.75 38.25 43.63Q38.38 43.50 38.50 43.50L38.50 43.50Q38.50 43.50 38.81 43.50Q39.13 43.50 39.50 43.50L39.50 43.50Q40.13 43.63 41.56 43.69Q43 43.75 45.38 43.75L45.38 43.75Q48.13 43.75 50.44 43.69Q52.75 43.63 54.75 43.50L54.75 43.50Q55.38 43.50 55.75 43.56Q56.13 43.63 56.13 43.75L56.13 43.75Q56.13 43.75 56.13 43.81Q56.13 43.88 56.13 43.88L56.13 43.88L56.13 43.88ZM68.88 69L68.88 69Q68.88 69.38 68.69 69.56Q68.50 69.75 68 69.63L68 69.63Q66.63 69.50 64.94 69.56Q63.25 69.63 61.25 69.75L61.25 69.75Q60.88 69.75 60.63 69.75Q60.38 69.75 60.25 69.75L60.25 69.75Q60.13 69.63 60.13 69.44Q60.13 69.25 60.13 69L60.13 69Q60.13 68.75 60.38 68.56Q60.63 68.38 61.13 68.25L61.13 68.25Q61.63 68.13 61.94 67.63Q62.25 67.13 62.25 66.25L62.25 66.25L62.25 48.50Q62.25 47.63 62.13 47.06Q62 46.50 61.75 46.13L61.75 46.13Q61.50 45.75 61.13 45.44Q60.75 45.13 60.13 44.88L60.13 44.88Q59.88 44.88 59.69 44.69Q59.50 44.50 59.50 44.38L59.50 44.38Q59.50 44 59.75 43.81Q60 43.63 60.38 43.38L60.38 43.38Q61.13 43.25 61.81 42.88Q62.50 42.50 63.13 42.13L63.13 42.13Q63.75 41.75 64.13 41.56Q64.50 41.38 64.63 41.38L64.63 41.38Q65 41.38 65.19 41.63Q65.38 41.88 65.38 42.38L65.38 42.38Q65.38 42.38 65.38 42.88Q65.38 43.38 65.38 44.38L65.38 44.38Q65.25 45.38 65.25 46.31Q65.25 47.25 65.25 48.25L65.25 48.25L65.38 65.88Q65.38 66.38 65.50 66.81Q65.63 67.25 66 67.63L66 67.63Q66.25 67.88 66.75 68.06Q67.25 68.25 68 68.25L68 68.25Q68.50 68.38 68.69 68.50Q68.88 68.63 68.88 69L68.88 69L68.88 69ZM86.88 67.63L86.88 67.63Q86.88 67.88 86.50 68.19Q86.13 68.50 85.38 68.88L85.38 68.88Q84.63 69.38 84 69.56Q83.38 69.75 83 69.75L83 69.75Q82.63 69.75 82.25 69.56Q81.88 69.38 81.63 69L81.63 69Q81.25 68.63 81.06 68.44Q80.88 68.25 80.75 68.25L80.75 68.25Q80.63 68.25 80.19 68.44Q79.75 68.63 78.88 69L78.88 69Q78 69.50 77.19 69.69Q76.38 69.88 75.50 69.88L75.50 69.88Q74.63 69.88 74 69.63Q73.38 69.38 72.75 68.88L72.75 68.88Q72.13 68.38 71.88 67.69Q71.63 67 71.63 66.13L71.63 66.13Q71.63 64.38 73.56 63.13Q75.50 61.88 79.38 61.13L79.38 61.13Q80.13 61 80.44 60.75Q80.75 60.50 80.75 60.13L80.75 60.13L80.75 58.88Q80.88 57.25 80.13 56.44Q79.38 55.63 78 55.63L78 55.63Q77.50 55.63 77.13 56Q76.75 56.38 76.38 57.13L76.38 57.13Q76 57.88 75.44 58.25Q74.88 58.63 74.13 58.75L74.13 58.75Q73.38 58.88 72.94 58.50Q72.50 58.13 72.50 57.38L72.50 57.38Q72.50 56.88 73.13 56.31Q73.75 55.75 75 55.13L75 55.13Q76.25 54.50 77.44 54.19Q78.63 53.88 79.75 53.88L79.75 53.88Q81.75 53.88 82.75 54.81Q83.75 55.75 83.75 57.63L83.75 57.63L83.63 65.75Q83.63 66.38 83.94 66.75Q84.25 67.13 84.75 67.13L84.75 67.13Q84.88 67.13 85.06 67.06Q85.25 67 85.63 67L85.63 67Q85.88 66.88 86.06 66.88Q86.25 66.88 86.25 66.88L86.25 66.88Q86.63 66.88 86.75 67.06Q86.88 67.25 86.88 67.63L86.88 67.63L86.88 67.63ZM80.75 63.13L80.75 63.13Q80.88 62.88 80.81 62.75Q80.75 62.63 80.63 62.50L80.63 62.50Q80.50 62.38 80.31 62.38Q80.13 62.38 79.75 62.38L79.75 62.38Q77.38 62.88 76.19 63.63Q75 64.38 75 65.50L75 65.50Q75 66.63 75.63 67.19Q76.25 67.75 77.50 67.75L77.50 67.75Q78 67.75 78.50 67.69Q79 67.63 79.50 67.38L79.50 67.38Q80.13 67.25 80.44 66.94Q80.75 66.63 80.75 66.38L80.75 66.38L80.75 63.13ZM101.63 65.25L101.63 65.25Q101.63 66.38 101.19 67.19Q100.75 68 100 68.63L100 68.63Q99.25 69.25 98.13 69.56Q97 69.88 95.63 69.88L95.63 69.88Q94.63 69.88 93.75 69.75Q92.88 69.63 91.88 69.50L91.88 69.50Q91.13 69.25 90.63 69.13Q90.13 69 90 68.75L90 68.75Q90 68.63 89.94 68Q89.88 67.38 89.88 66.13L89.88 66.13Q89.88 65.63 90 65.31Q90.13 65 90.38 65L90.38 65Q90.63 65 90.81 65.13Q91 65.25 91.13 65.50L91.13 65.50Q91.88 66.88 93.06 67.50Q94.25 68.13 96 68.13L96 68.13Q97.38 68.13 98.06 67.63Q98.75 67.13 98.75 66.13L98.75 66.13Q98.75 65.75 98.56 65.38Q98.38 65 98.13 64.75L98.13 64.75Q97.75 64.38 97.06 64Q96.38 63.63 95.38 63.25L95.38 63.25Q94 62.63 93 62.06Q92 61.50 91.50 61L91.50 61Q91 60.50 90.75 59.81Q90.50 59.13 90.50 58.25L90.50 58.25Q90.50 57.13 90.94 56.31Q91.38 55.50 92.13 54.88L92.13 54.88Q92.88 54.38 93.94 54.06Q95 53.75 96.25 53.75L96.25 53.75Q97 53.75 97.75 53.81Q98.50 53.88 99.13 54L99.13 54Q99.88 54.13 100.25 54.31Q100.63 54.50 100.63 54.63L100.63 54.63Q100.75 55.25 100.88 56Q101 56.75 101.25 57.88L101.25 57.88Q101.25 58 101.13 58.13Q101 58.25 100.75 58.25L100.75 58.25Q100.38 58.38 100.19 58.31Q100 58.25 99.88 58L99.88 58Q99.13 56.75 98.13 56.13Q97.13 55.50 95.88 55.50L95.88 55.50Q94.50 55.50 93.88 55.94Q93.25 56.38 93.25 57.25L93.25 57.25Q93.25 57.75 93.38 58.13Q93.50 58.50 93.88 58.75L93.88 58.75Q94.25 59 95 59.38Q95.75 59.75 97 60.38L97 60.38Q98.25 60.88 99.13 61.38Q100 61.88 100.38 62.25L100.38 62.25Q101 62.88 101.31 63.63Q101.63 64.38 101.63 65.25L101.63 65.25L101.63 65.25ZM124.50 68.88L124.50 68.88Q124.50 69.25 124.25 69.38Q124 69.50 123.63 69.63L123.63 69.63Q122.88 69.63 122 69.63Q121.13 69.63 120 69.75L120 69.75Q119.38 69.88 119 69.81Q118.63 69.75 118.38 69.50L118.38 69.50Q116.88 67.88 115.50 66.06Q114.13 64.25 113.13 62.50L113.13 62.50Q113 62.38 112.88 62.25Q112.75 62.13 112.63 62.13L112.63 62.13Q112.50 62.13 112.19 62.31Q111.88 62.50 111.50 62.75L111.50 62.75Q111 63 110.75 63.38Q110.50 63.75 110.50 64.25L110.50 64.25Q110.50 64.50 110.50 65Q110.50 65.50 110.63 66.13L110.63 66.13Q110.63 66.75 110.75 67.19Q110.88 67.63 111.25 67.75L111.25 67.75Q111.38 68 111.88 68.06Q112.38 68.13 113.13 68.25L113.13 68.25Q113.63 68.25 113.81 68.44Q114 68.63 114 68.88L114 68.88Q114 69.13 114 69.25Q114 69.38 113.88 69.50L113.88 69.50Q113.88 69.50 113.69 69.56Q113.50 69.63 113.13 69.50L113.13 69.50Q112.13 69.50 110.44 69.50Q108.75 69.50 106.50 69.75L106.50 69.75Q105.88 69.75 105.56 69.69Q105.25 69.63 105.13 69.50L105.13 69.50Q105.13 69.38 105.13 69.25Q105.13 69.13 105.13 69L105.13 69Q105.13 68.75 105.44 68.50Q105.75 68.25 106.38 68.13L106.38 68.13Q106.88 68 107.13 67.38Q107.38 66.75 107.38 65.63L107.38 65.63L107.38 48.38Q107.38 47.50 107.31 46.94Q107.25 46.38 107.13 46.13L107.13 46.13Q106.88 45.63 106.44 45.31Q106 45 105.25 44.88L105.25 44.88Q105 44.75 104.81 44.56Q104.63 44.38 104.63 44.25L104.63 44.25Q104.63 43.88 104.88 43.69Q105.13 43.50 105.63 43.38L105.63 43.38Q106.25 43.13 107 42.75Q107.75 42.38 108.38 42L108.38 42Q108.88 41.63 109.25 41.44Q109.63 41.25 109.75 41.25L109.75 41.25Q110.13 41.25 110.31 41.50Q110.50 41.75 110.50 42.25L110.50 42.25Q110.50 42.25 110.50 42.69Q110.50 43.13 110.50 44.25L110.50 44.25Q110.50 45 110.50 45.94Q110.50 46.88 110.50 48.13L110.50 48.13L110.50 60.50Q110.50 60.75 110.56 60.88Q110.63 61 110.88 61L110.88 61Q111 61 111.19 60.88Q111.38 60.75 111.75 60.50L111.75 60.50Q112.50 59.75 113.50 58.94Q114.50 58.13 115.75 57.13L115.75 57.13Q116 56.88 116.13 56.69Q116.25 56.50 116.25 56.25L116.25 56.25Q116.25 56 115.81 55.81Q115.38 55.63 114.63 55.50L114.63 55.50Q114.25 55.50 114.13 55.31Q114 55.13 114 54.75L114 54.75Q114 54.38 114.19 54.25Q114.38 54.13 114.63 54.13L114.63 54.13Q115.38 54.25 116.44 54.31Q117.50 54.38 118.75 54.38L118.75 54.38Q119.75 54.38 120.69 54.38Q121.63 54.38 122.63 54.38L122.63 54.38Q122.88 54.38 123.06 54.56Q123.25 54.75 123.25 55.13L123.25 55.13Q123.25 55.50 123 55.69Q122.75 55.88 122.25 55.88L122.25 55.88Q121.50 55.88 120.75 56.06Q120 56.25 119.38 56.63L119.38 56.63Q118.38 57 117.38 57.75Q116.38 58.50 115.38 59.50L115.38 59.50Q115.25 59.63 115.25 59.69Q115.25 59.75 115.25 59.88L115.25 59.88Q115.25 60 115.38 60.31Q115.50 60.63 115.88 61.13L115.88 61.13Q117.13 63 118.25 64.44Q119.38 65.88 120.50 66.88L120.50 66.88Q121.25 67.38 121.88 67.69Q122.50 68 123.13 68L123.13 68Q123.63 68 123.88 68.06Q124.13 68.13 124.25 68.13L124.25 68.13Q124.38 68.25 124.44 68.44Q124.50 68.63 124.50 68.88L124.50 68.88L124.50 68.88Z"/></svg>