<svg xmlns="http://www.w3.org/2000/svg" xmlns:xlink="http://www.w3.org/1999/xlink" width="128" height="128"><path fill="#ffffff" d="M47.25 125.88L47.25 125.88Q41.25 124.25 35.88 121.75L35.88 121.75Q30.50 119.13 25.75 115.56Q21 112 16.88 107.50L16.88 107.50Q12.75 102.88 9.25 97.38L9.25 97.38Q6.63 93.25 6.56 91.13Q6.50 89 8.88 86.13L8.88 86.13Q10.75 83.88 11.75 83.69Q12.75 83.50 16.88 84.38L16.88 84.38Q20.25 85.25 21.75 86.19Q23.25 87.13 24.50 89.13L24.50 89.13Q27 93 32.94 98.31Q38.88 103.63 43.25 105.88L43.25 105.88Q50 109.25 57.38 110.25L57.38 110.25Q64.75 111.38 71.88 110.13Q79 108.88 85.63 105.50L85.63 105.50Q92.13 102.13 97.50 96.75L97.50 96.75Q99.75 94.38 101.81 91.69Q103.88 89 104.50 87.63L104.50 87.63Q105 86.25 105.69 85.25Q106.38 84.25 106.63 84.25L106.63 84.25Q107 84.25 107.81 85.56Q108.63 86.88 109.38 88.63L109.38 88.63L111.38 93L116.63 92.38Q121.13 91.88 121.13 93Q121.13 94.13 116.75 100.88L116.75 100.88Q113.75 105.25 109.63 109.25L109.63 109.25Q105.63 113.25 100.75 116.63Q95.88 120 90.38 122.50L90.38 122.50Q85 125 79.50 126.38L79.50 126.38Q73 128 63.69 127.88Q54.38 127.75 47.25 125.88L47.25 125.88ZM48 81L48 81Q41.88 73.38 36.81 66.75Q31.75 60.13 30.75 58.38L30.75 58.38L28.63 54.13L46.38 36.25L80.63 36.25L98.50 54.25L96 58.38Q95 60.13 89.88 66.75L89.88 66.75Q84.88 73.38 79.19 80.56Q73.50 87.75 68.88 93.38L68.88 93.38Q64.25 99.13 63.75 99.13L63.75 99.13Q63.50 99.13 58.88 93.81Q54.25 88.50 48 81L48 81ZM113.50 89.63L111.13 84.75Q109.63 81.50 109.44 79.94Q109.25 78.38 110 75.13L110 75.13Q110.50 73.13 110.69 69Q110.88 64.88 110.75 60.88L110.75 60.88Q110.50 55 109.75 51.94Q109 48.88 107 44.63L107 44.63Q104.50 39.75 101.25 35.50L101.25 35.50Q98 31.38 94.13 28.06Q90.25 24.75 85.88 22.38L85.88 22.38Q81.38 20 76.38 18.63L76.38 18.63L69.50 16.75L72.25 13.13Q74.25 10.50 74.38 9.50Q74.50 8.50 73.25 5.63L73.25 5.63Q72.50 4.13 72.13 2.81Q71.75 1.50 72 1.25L72 1.25Q72.88 0.38 79.88 2.38Q86.88 4.38 92.63 7.13L92.63 7.13Q96.75 9.13 101 12.13L101 12.13Q105.13 15.25 108.88 19Q112.63 22.75 115.75 26.88L115.75 26.88Q118.88 31.13 120.88 35.25L120.88 35.25Q123.63 40.63 125.25 46.13L125.25 46.13Q126.88 51.63 127.50 57.19Q128.13 62.75 127.75 68.38L127.75 68.38Q127.25 73.88 125.88 79.50L125.88 79.50Q125 82.88 124.31 85.44Q123.63 88 123.50 88L123.50 88Q123.38 88.13 121.88 88.38Q120.38 88.63 118.38 89L118.38 89L113.50 89.63ZM4.38 87.88L3.38 85.13Q1.75 81.13 1 75.75L1 75.75Q0.25 70.50 0.19 64.88Q0.13 59.25 0.88 53.75L0.88 53.75Q1.63 48.25 3.13 43.75L3.13 43.75Q6.25 34.63 11.88 26.88L11.88 26.88Q17.38 19.25 24.69 13.56Q32 7.88 40.63 4.38L40.63 4.38Q49.38 0.88 58.63 0.38L58.63 0.38L66.63-0.25L69.13 4.25L71.63 8.63L68.63 12.63Q66.63 15.50 65 16.31Q63.38 17.13 57.88 18L57.88 18Q49.75 19.25 43.44 22.44Q37.13 25.63 31.38 31.38L31.38 31.38Q26.50 36.25 23.38 41.75L23.38 41.75Q20.13 47.13 18.75 53.19Q17.38 59.25 17.63 65.88L17.63 65.88Q17.88 72.50 19.88 79.88L19.88 79.88Q20.38 81.63 20.06 81.94Q19.75 82.25 17.75 81.75L17.75 81.75L12.50 80.50Q11 80.13 9.94 80.81Q8.88 81.50 7.25 83.88L7.25 83.88L4.38 87.88Z"/></svg>