<svg xmlns="http://www.w3.org/2000/svg" xmlns:xlink="http://www.w3.org/1999/xlink" width="128" height="128"><path fill="#ffffff" d="M17.13 86.50L17.13 86.50Q12.75 85.38 9.31 82.81Q5.88 80.25 3.25 76.13L3.25 76.13Q2.38 74.63 2.38 73.88Q2.38 73.13 3.13 72L3.13 72Q3.88 71.25 4.25 71.19Q4.63 71.13 6.13 71.38L6.13 71.38Q7.25 71.75 7.81 72.06Q8.38 72.38 8.88 73.13L8.88 73.13Q9.75 74.50 11.94 76.50Q14.13 78.50 15.75 79.25L15.75 79.25Q20.63 81.75 26.13 80.81Q31.63 79.88 35.50 75.88L35.50 75.88Q36.38 75 37.13 74.06Q37.88 73.13 38 72.63L38 72.63Q38.25 72.13 38.50 71.75Q38.75 71.38 38.88 71.38L38.88 71.38Q39 71.38 39.25 71.81Q39.50 72.25 39.88 73L39.88 73L40.50 74.63L42.50 74.38Q44.13 74.13 44.13 74.56Q44.13 75 42.50 77.50L42.50 77.50Q40.38 80.63 36.69 83.19Q33 85.75 28.88 86.75L28.88 86.75Q26.63 87.38 23.19 87.31Q19.75 87.25 17.13 86.50L17.13 86.50ZM17.50 70.13L17.50 70.13Q15.13 67.38 13.31 65Q11.50 62.63 11.13 61.88L11.13 61.88L10.38 60.38L16.88 53.88L29.38 53.88L32.63 57.13L35.88 60.38L35 61.88Q34.13 63.25 28.81 70Q23.50 76.75 23.25 76.75L23.25 76.75Q23.13 76.75 21.44 74.81Q19.75 72.88 17.50 70.13L17.50 70.13ZM41.38 73.38L40.50 71.63Q39.88 70.38 39.81 69.81Q39.75 69.25 40 68L40 68Q40.25 67.38 40.31 65.81Q40.38 64.25 40.38 62.88L40.38 62.88Q40.25 60.75 40 59.63Q39.75 58.50 39 56.88L39 56.88Q37.13 53.25 34.25 50.81Q31.38 48.38 27.75 47.50L27.75 47.50L25.25 46.75L26.25 45.38Q27 44.50 27.06 44.13Q27.13 43.75 26.63 42.75L26.63 42.75Q26.38 42.13 26.25 41.69Q26.13 41.25 26.13 41.13L26.13 41.13Q26.50 40.75 29.06 41.50Q31.63 42.25 33.75 43.25L33.75 43.25Q36.75 44.63 39.63 47.56Q42.50 50.50 44 53.50L44 53.50Q46 57.50 46.44 61.50Q46.88 65.50 45.88 69.63L45.88 69.63Q45.50 70.88 45.25 71.81Q45 72.75 45 72.75L45 72.75Q44.88 72.75 44.38 72.88Q43.88 73 43.13 73.13L43.13 73.13L41.38 73.38ZM1.50 72.63L1.13 71.75Q0 68.75 0 64.31Q0 59.88 1.13 56.63L1.13 56.63Q3.38 50 8.94 45.63Q14.50 41.25 21.38 40.75L21.38 40.75L24.25 40.63L25.13 42.13L26 43.75L25 45.25Q24.25 46.25 23.63 46.56Q23 46.88 21 47.25L21 47.25Q18.13 47.63 15.81 48.81Q13.50 50 11.38 52.13L11.38 52.13Q7.75 55.63 6.75 60Q5.75 64.38 7.25 69.75L7.25 69.75Q7.38 70.38 7.25 70.50Q7.13 70.63 6.38 70.50L6.38 70.50Q6 70.38 5.44 70.25Q4.88 70.13 4.50 70L4.50 70Q4 69.88 3.56 70.13Q3.13 70.38 2.50 71.25L2.50 71.25L1.50 72.63ZM62.50 64.13L62.50 64.13Q62.88 64.25 63.25 64.56Q63.63 64.88 64 65.25L64 65.25Q64.38 65.75 64.75 66.38Q65.13 67 65.50 67.75L65.50 67.75L68 72.63L65.38 72.63L63.13 68Q62.63 67.13 62.19 66.50Q61.75 65.88 61.38 65.63L61.38 65.63Q60.88 65.25 60.31 65.13Q59.75 65 59 65L59 65L56.38 65L56.38 72.63L53.88 72.63L53.88 54.50L59.38 54.50Q61 54.50 62.19 54.81Q63.38 55.13 64.13 55.88L64.13 55.88Q64.88 56.50 65.25 57.44Q65.63 58.38 65.63 59.75L65.63 59.75Q65.63 60.63 65.44 61.31Q65.25 62 64.88 62.63L64.88 62.63Q64.38 63.13 63.81 63.56Q63.25 64 62.50 64.13ZM59.38 56.50L56.38 56.50L56.38 63L59.38 63Q60.38 63 61 62.81Q61.63 62.63 62.13 62.13L62.13 62.13Q62.63 61.75 62.81 61.13Q63 60.50 63 59.75L63 59.75Q63 59 62.81 58.38Q62.63 57.75 62.13 57.38L62.13 57.38Q61.63 57 61 56.75Q60.38 56.50 59.38 56.50L59.38 56.50ZM82.13 55.13L82.13 55.13L82.13 57.50Q81.50 57.25 80.88 57Q80.25 56.75 79.50 56.50L79.50 56.50L79.50 56.50Q78.88 56.38 78.31 56.31Q77.75 56.25 77 56.13L77 56.13L77 56.13Q76 56.13 75.25 56.38Q74.50 56.63 74 57L74 57Q73.38 57.38 73.13 57.94Q72.88 58.50 72.88 59.13L72.88 59.13Q72.88 59.75 73.06 60.25Q73.25 60.75 73.63 61L73.63 61Q74 61.25 74.69 61.50Q75.38 61.75 76.38 62L76.38 62L77.88 62.25Q79.25 62.50 80.25 63Q81.25 63.50 81.88 64.13L81.88 64.13Q82.50 64.75 82.81 65.63Q83.13 66.50 83.13 67.63L83.13 67.63Q83.13 69 82.69 70Q82.25 71 81.38 71.63L81.38 71.63Q80.50 72.38 79.19 72.69Q77.88 73 76.25 73L76.25 73Q75.63 73 74.94 72.94Q74.25 72.88 73.50 72.75L73.50 72.75Q72.63 72.50 71.81 72.31Q71 72.13 70.38 71.88L70.38 71.88L70.50 71.88L70.50 69.38Q71.25 69.75 71.94 70.06Q72.63 70.38 73.38 70.63L73.38 70.63Q74 70.75 74.75 70.88Q75.50 71 76.25 71L76.25 71L76.25 71Q77.25 71 78.06 70.81Q78.88 70.63 79.50 70.25L79.50 70.25Q80 69.75 80.31 69.19Q80.63 68.63 80.63 67.88L80.63 67.88Q80.63 67.13 80.44 66.63Q80.25 66.13 79.75 65.75L79.75 65.75Q79.38 65.38 78.69 65.06Q78 64.75 77.13 64.63L77.13 64.63L75.63 64.38Q74.25 64 73.25 63.63Q72.25 63.25 71.63 62.63L71.63 62.63Q71 62 70.69 61.19Q70.38 60.38 70.38 59.38L70.38 59.38Q70.38 58.13 70.81 57.19Q71.25 56.25 72.13 55.63L72.13 55.63Q72.88 54.88 74.06 54.50Q75.25 54.13 76.75 54.13L76.75 54.13Q77.38 54.13 78.06 54.19Q78.75 54.25 79.38 54.38L79.38 54.38Q80 54.50 80.69 54.69Q81.38 54.88 82.13 55.13L82.13 55.13ZM89.13 70.63L89.13 70.63L89.13 77.88L86.88 77.88L86.88 59L89.13 59L89.13 61.13Q89.38 60.50 89.88 60.06Q90.38 59.63 90.88 59.25L90.88 59.25Q91.38 59 92 58.88Q92.63 58.75 93.38 58.75L93.38 58.75Q94.63 58.75 95.63 59.25Q96.63 59.75 97.50 60.63L97.50 60.63Q98.25 61.63 98.63 62.94Q99 64.25 99 65.88L99 65.88Q99 67.50 98.63 68.81Q98.25 70.13 97.50 71L97.50 71Q96.63 72 95.63 72.50Q94.63 73 93.38 73L93.38 73Q92.63 73 92 72.88Q91.38 72.75 90.88 72.38L90.88 72.38Q90.38 72.13 89.88 71.69Q89.38 71.25 89.13 70.63ZM96.63 65.88L96.63 65.88Q96.63 64.63 96.38 63.69Q96.13 62.75 95.63 62L95.63 62Q95.13 61.25 94.44 60.94Q93.75 60.63 92.88 60.63L92.88 60.63Q92 60.63 91.31 60.94Q90.63 61.25 90.13 62L90.13 62Q89.63 62.75 89.38 63.69Q89.13 64.63 89.13 65.88L89.13 65.88Q89.13 67.13 89.38 68.06Q89.63 69 90.13 69.75L90.13 69.75Q90.63 70.50 91.31 70.81Q92 71.13 92.88 71.13L92.88 71.13Q93.75 71.13 94.44 70.81Q95.13 70.50 95.63 69.75L95.63 69.75Q96.13 69 96.38 68.06Q96.63 67.13 96.63 65.88ZM114.38 65.25L114.38 65.25L114.38 66.38L104.13 66.38Q104.13 67.50 104.50 68.38Q104.88 69.25 105.50 69.88L105.50 69.88Q106.13 70.50 107 70.81Q107.88 71.13 109 71.13L109 71.13Q109.63 71.13 110.25 71.06Q110.88 71 111.38 70.75L111.38 70.75Q112.13 70.63 112.75 70.38Q113.38 70.13 113.88 69.88L113.88 69.88L113.88 69.88L113.88 72Q113.25 72.25 112.69 72.44Q112.13 72.63 111.50 72.75L111.50 72.75L111.38 72.75Q110.75 72.88 110.13 72.94Q109.50 73 108.75 73L108.75 73Q107.13 73 105.88 72.56Q104.63 72.13 103.63 71.13L103.63 71.13Q102.75 70.25 102.25 68.94Q101.75 67.63 101.75 66L101.75 66Q101.75 64.38 102.19 63Q102.63 61.63 103.50 60.75L103.50 60.75Q104.50 59.75 105.69 59.25Q106.88 58.75 108.38 58.75L108.38 58.75Q109.75 58.75 110.88 59.19Q112 59.63 112.75 60.50L112.75 60.50Q113.50 61.38 113.94 62.56Q114.38 63.75 114.38 65.25L114.38 65.25ZM104.13 64.63L112.13 64.63Q112.13 63.75 111.88 63Q111.63 62.25 111.13 61.75L111.13 61.75Q110.63 61.13 109.94 60.88Q109.25 60.63 108.50 60.63L108.50 60.63Q107.50 60.63 106.75 60.88Q106 61.13 105.50 61.63L105.50 61.63Q104.88 62.25 104.56 63Q104.25 63.75 104.13 64.63L104.13 64.63ZM127.88 59.63L127.88 59.63L127.88 61.63Q127.38 61.38 126.94 61.19Q126.50 61 126 60.88L126 60.88L125.88 60.88Q125.50 60.75 125 60.69Q124.50 60.63 124 60.63L124 60.63L124 60.63Q122.88 60.63 122.06 61Q121.25 61.38 120.63 62L120.63 62Q120 62.63 119.69 63.63Q119.38 64.63 119.38 65.88L119.38 65.88Q119.38 67.13 119.69 68.06Q120 69 120.63 69.75L120.63 69.75Q121.25 70.38 122.06 70.75Q122.88 71.13 124 71.13L124 71.13Q124.50 71.13 125 71.06Q125.50 71 125.88 70.88L125.88 70.88Q126.50 70.75 127 70.50Q127.50 70.25 127.88 70L127.88 70L127.88 70.13L127.88 72.13Q127.38 72.38 126.94 72.56Q126.50 72.75 126 72.75L126 72.75L125.88 72.75Q125.38 72.88 124.88 72.94Q124.38 73 123.75 73L123.75 73Q123.75 73 123.75 73Q123.75 73 123.75 73L123.75 73L123.75 73Q122.25 73 121 72.56Q119.75 72.13 118.88 71.13L118.88 71.13Q118 70.13 117.50 68.81Q117 67.50 117 65.88L117 65.88Q117 64.25 117.50 62.94Q118 61.63 118.88 60.63L118.88 60.63Q119.75 59.63 121 59.19Q122.25 58.75 123.88 58.75L123.88 58.75Q124.38 58.75 124.88 58.81Q125.38 58.88 125.88 58.88L125.88 58.88Q126.38 59 126.88 59.19Q127.38 59.38 127.88 59.63L127.88 59.63Z"/></svg>