<svg xmlns="http://www.w3.org/2000/svg" xmlns:xlink="http://www.w3.org/1999/xlink" width="128" height="128"><path fill="#000000" d="M64 0.75L64 0.75Q50.88 0.75 39.38 5.75L39.38 5.75Q27.88 10.75 19.31 19.31Q10.75 27.88 5.75 39.38L5.75 39.38Q0.75 50.88 0.75 64L0.75 64Q0.75 77.13 5.75 88.63L5.75 88.63Q10.75 100.13 19.31 108.69Q27.88 117.25 39.38 122.25L39.38 122.25Q50.88 127.25 64 127.25L64 127.25Q77.13 127.25 88.63 122.25L88.63 122.25Q100.13 117.25 108.69 108.69Q117.25 100.13 122.25 88.63L122.25 88.63Q127.25 77.13 127.25 64L127.25 64Q127.25 50.88 122.25 39.38L122.25 39.38Q117.25 27.88 108.69 19.31Q100.13 10.75 88.63 5.75L88.63 5.75Q77.13 0.75 64 0.75L64 0.75ZM67.38 120.88L67.38 120.88L67.38 109.88L94.75 96Q95.25 95.75 95.56 95.31Q95.88 94.88 95.88 94.25L95.88 94.25Q95.88 94.25 95.88 94.25Q95.88 94.25 95.88 94.25L95.88 94.25L95.88 88Q97.63 87.38 98.75 85.81Q99.88 84.25 99.88 82.38L99.88 82.38Q99.88 82.13 99.88 82Q99.88 81.88 99.88 81.75L99.88 81.75Q99.63 79.38 97.94 77.81Q96.25 76.25 93.88 76.25L93.88 76.25Q91.38 76.25 89.63 78Q87.88 79.75 87.88 82.25L87.88 82.25Q87.88 82.38 87.88 82.56Q87.88 82.75 88 83L88 83Q88.13 84.75 89.19 86.06Q90.25 87.38 91.88 88L91.88 88L91.88 93L67.38 105.50L67.38 95.25L78.13 90.25Q78.63 90 79 89.56Q79.38 89.13 79.38 88.50L79.38 88.50L79.38 71.50L99.38 60.25Q99.88 60 100.13 59.50Q100.38 59 100.38 58.50L100.38 58.50L100.38 53.75Q102.13 53.13 103.25 51.63Q104.38 50.13 104.38 48.13L104.38 48.13Q104.38 45.63 102.63 43.88Q100.88 42.13 98.50 42.13L98.50 42.13Q98.25 42.13 98.13 42.13Q98 42.13 97.75 42.13L97.75 42.13Q95.50 42.38 94 44.06Q92.50 45.75 92.50 48.13L92.50 48.13Q92.50 50.13 93.63 51.63Q94.75 53.13 96.50 53.75L96.50 53.75L96.50 57.38L76.38 68.63Q76 68.88 75.69 69.31Q75.38 69.75 75.38 70.38L75.38 70.38L75.38 87.25L67.38 91L67.38 54.25L84.25 46Q84.75 45.75 85.06 45.25Q85.38 44.75 85.38 44.25L85.38 44.25Q85.38 44.25 85.38 44.25Q85.38 44.25 85.38 44.25L85.38 44.25L85.38 37.88Q87.13 37.25 88.25 35.75Q89.38 34.25 89.38 32.25L89.38 32.25Q89.38 32.13 89.38 31.94Q89.38 31.75 89.25 31.63L89.25 31.63Q89 29.38 87.31 27.81Q85.63 26.25 83.38 26.25L83.38 26.25Q83.25 26.25 83.06 26.25Q82.88 26.25 82.75 26.25L82.75 26.25Q80.50 26.50 78.94 28.25Q77.38 30 77.38 32.25L77.38 32.25Q77.38 32.38 77.38 32.56Q77.38 32.75 77.38 32.88L77.38 32.88Q77.63 34.63 78.69 36Q79.75 37.38 81.38 37.88L81.38 37.88L81.38 43L67.38 49.88L67.38 28.63Q69.13 28 70.25 26.44Q71.38 24.88 71.38 23L71.38 23Q71.38 20.50 69.63 18.75Q67.88 17 65.38 17L65.38 17Q62.88 17 61.13 18.75Q59.38 20.50 59.38 23L59.38 23Q59.38 23.13 59.38 23.25Q59.38 23.38 59.38 23.63L59.38 23.63Q59.63 25.38 60.69 26.69Q61.75 28 63.38 28.63L63.38 28.63L63.38 63.25L53.50 58L53.50 42.25Q53.50 42.25 53.50 42.25Q53.50 42.25 53.50 42.25L53.50 42.25Q53.50 41.75 53.25 41.38Q53 41 52.75 40.75L52.75 40.75L45.88 35.50Q46.13 35 46.25 34.44Q46.38 33.88 46.38 33.25L46.38 33.25Q46.38 30.75 44.63 29Q42.88 27.25 40.38 27.25L40.38 27.25Q37.88 27.25 36.13 29Q34.38 30.75 34.38 33.25L34.38 33.25Q34.38 35.75 36.13 37.50Q37.88 39.25 40.38 39.25L40.38 39.25Q41.25 39.25 41.94 39Q42.63 38.75 43.38 38.38L43.38 38.38L49.50 43.25L49.50 59.25Q49.50 59.75 49.81 60.19Q50.13 60.63 50.63 60.88L50.63 60.88L63.38 67.63L63.38 80.38L42 70.50L42.38 62.75Q42.38 62.75 42.38 62.75Q42.38 62.75 42.38 62.63L42.38 62.63Q42.38 62.13 42.06 61.69Q41.75 61.25 41.25 61L41.25 61L31.50 55.88Q31.63 55.50 31.63 55Q31.63 54.50 31.63 54L31.63 54Q31.38 51.75 29.69 50.19Q28 48.63 25.63 48.63L25.63 48.63Q23.25 48.63 21.50 50.38Q19.75 52.13 19.75 54.63L19.75 54.63Q19.75 54.75 19.75 54.88Q19.75 55 19.75 55.25L19.75 55.25Q20 57.50 21.69 59Q23.38 60.50 25.63 60.50L25.63 60.50Q25.88 60.50 26 60.50Q26.13 60.50 26.25 60.50L26.25 60.50Q27.13 60.38 27.94 60.06Q28.75 59.75 29.38 59.25L29.38 59.25L38.38 63.88L38.13 71.63Q38.13 72.25 38.38 72.75Q38.63 73.25 39.25 73.50L39.25 73.50L63.38 84.75L63.38 93.75Q63.38 93.88 63.38 93.94Q63.38 94 63.38 94L63.38 94Q63.38 94.13 63.38 94.19Q63.38 94.25 63.38 94.25L63.38 94.25L63.38 121Q61.75 121 60.19 120.88Q58.63 120.75 57 120.63L57 120.63L57.38 97.63Q57.38 97.13 57.06 96.63Q56.75 96.13 56.13 95.88L56.13 95.88L41 88.88Q41 88.75 41 88.63Q41 88.50 41 88.25L41 88.25Q41 85.88 39.25 84.13Q37.50 82.38 35 82.38L35 82.38Q34.88 82.38 34.75 82.38Q34.63 82.38 34.38 82.38L34.38 82.38Q32.13 82.63 30.63 84.31Q29.13 86 29.13 88.38L29.13 88.38Q29.13 90.75 30.88 92.50Q32.63 94.25 35 94.25L35 94.25Q36.38 94.25 37.44 93.75Q38.50 93.25 39.38 92.50L39.38 92.50L53.38 98.88L53.38 120Q43.50 118.13 35 113.13L35 113.13Q26.50 108 20.31 100.56Q14.13 93.13 10.50 83.75L10.50 83.75Q7 74.38 7 64L7 64Q7 52.25 11.50 41.88L11.50 41.88Q16 31.50 23.75 23.75Q31.50 16 41.88 11.50L41.88 11.50Q52.25 7 64 7L64 7Q75.75 7 86.13 11.50L86.13 11.50Q96.50 16 104.25 23.75Q112 31.50 116.50 41.88L116.50 41.88Q121 52.25 121 64L121 64Q121 75.38 116.88 85.38L116.88 85.38Q112.63 95.50 105.38 103.19Q98.13 110.88 88.38 115.50L88.38 115.50Q78.50 120.25 67.38 120.88L67.38 120.88Z"/></svg>