<svg xmlns="http://www.w3.org/2000/svg" xmlns:xlink="http://www.w3.org/1999/xlink" width="128" height="128"><path fill="#ffffff" d="M8.13 114.63L8.13 114.63Q5.63 114 5.19 113.63Q4.75 113.25 4.75 111.63L4.75 111.63Q4.75 110.38 5.25 109.94Q5.75 109.50 7.63 109.50L7.63 109.50Q8.75 109.50 10.06 109.69Q11.38 109.88 12.63 110.13L12.63 110.13Q12.63 110.13 12.63 110.13Q12.63 110.13 12.75 110.13L12.75 110.13Q12.88 110.13 13.06 110Q13.25 109.88 13.25 109.63L13.25 109.63L13.63 107Q13.63 107 13.63 107Q13.63 107 13.63 107L13.63 107Q13.63 106.75 13.50 106.63Q13.38 106.50 13.13 106.50L13.13 106.50Q11.88 106.13 10.44 106Q9 105.88 7.50 105.88L7.50 105.88Q3.75 105.88 2.13 107.19Q0.50 108.50 0.50 111.50L0.50 111.50Q0.50 113.13 0.69 114.19Q0.88 115.25 1.50 116L1.50 116Q2.13 116.63 3.19 117.13Q4.25 117.63 6.25 118L6.25 118Q8.88 118.63 9.31 119Q9.75 119.38 9.75 121L9.75 121Q9.75 122.38 9.25 122.81Q8.75 123.25 6.75 123.25L6.75 123.25Q5.50 123.25 4.25 123.06Q3 122.88 1.50 122.50L1.50 122.50Q1.38 122.50 1.38 122.50Q1.38 122.50 1.38 122.50L1.38 122.50Q1.13 122.50 1 122.56Q0.88 122.63 0.75 122.88L0.75 122.88L0.25 125.25Q0.25 125.25 0.25 125.31Q0.25 125.38 0.25 125.38L0.25 125.38Q0.25 125.50 0.31 125.69Q0.38 125.88 0.63 125.88L0.63 125.88Q1.50 126.25 3.19 126.63Q4.88 127 6.75 127L6.75 127Q11.25 127 12.63 125.44Q14 123.88 14 121L14 121Q14 119.50 13.88 118.50Q13.75 117.50 13.13 116.75L13.13 116.75Q12.50 116 11.31 115.56Q10.13 115.13 8.13 114.63L8.13 114.63ZM22.38 111.25L22.38 111.25Q19.13 111.25 17.44 112.81Q15.75 114.38 15.75 117.25L15.75 117.25L15.75 121Q15.75 123.88 17.44 125.44Q19.13 127 22.38 127L22.38 127Q25.63 127 27.31 125.44Q29 123.88 29 121L29 121L29 117.25Q29 114.38 27.31 112.81Q25.63 111.25 22.38 111.25L22.38 111.25ZM19.88 117.13L19.88 117.13Q19.88 115.88 20.50 115.38Q21.13 114.88 22.38 114.88L22.38 114.88Q23.75 114.88 24.31 115.38Q24.88 115.88 24.88 117.13L24.88 117.13L24.88 121.13Q24.88 122.38 24.31 122.88Q23.75 123.38 22.38 123.38L22.38 123.38Q21.13 123.38 20.50 122.88Q19.88 122.38 19.88 121.13L19.88 121.13L19.88 117.13ZM43.38 111.50L43.38 111.50L40.25 111.50Q40 111.50 39.88 111.69Q39.75 111.88 39.75 112.13L39.75 112.13Q39.75 112.13 39.75 112.13Q39.75 112.13 39.75 112.13L39.75 112.13L39.75 121.88Q38.88 122.25 37.81 122.63Q36.75 123 36.13 123L36.13 123Q35.63 123 35.38 122.75Q35.13 122.50 35.13 122L35.13 122L35.13 112.13Q35.13 111.88 35 111.69Q34.88 111.50 34.63 111.50L34.63 111.50Q34.63 111.50 34.63 111.50Q34.63 111.50 34.63 111.50L34.63 111.50L31.50 111.50Q31.38 111.50 31.19 111.69Q31 111.88 31 112.13L31 112.13Q31 112.13 31 112.13Q31 112.13 31 112.13L31 112.13L31 122.38Q31 124.75 31.88 125.88Q32.75 127 34.63 127L34.63 127Q35.75 127 37.31 126.63Q38.88 126.25 40.38 125.50L40.38 125.50L40.50 126.38Q40.63 126.50 40.75 126.63Q40.88 126.75 41 126.75L41 126.75L43.38 126.75Q43.50 126.75 43.69 126.56Q43.88 126.38 43.88 126.13L43.88 126.13L43.88 112.13Q43.88 112.13 43.88 112.13Q43.88 112.13 43.88 112.13L43.88 112.13Q43.88 111.88 43.69 111.69Q43.50 111.50 43.38 111.50L43.38 111.50ZM54.13 111.88L54.13 111.88Q54.13 111.63 53.94 111.50Q53.75 111.38 53.63 111.38L53.63 111.38Q53.50 111.38 53.50 111.38Q53.50 111.38 53.38 111.38L53.38 111.38Q52.63 111.63 51.69 112.13Q50.75 112.63 50.13 113L50.13 113L50 112Q50 111.75 49.81 111.63Q49.63 111.50 49.50 111.50L49.50 111.50L46.88 111.50Q46.75 111.50 46.56 111.69Q46.38 111.88 46.38 112.13L46.38 112.13Q46.38 112.13 46.38 112.13Q46.38 112.13 46.38 112.13L46.38 112.13L46.38 126.13Q46.38 126.38 46.56 126.56Q46.75 126.75 46.88 126.75L46.88 126.75L50 126.75Q50.25 126.75 50.38 126.56Q50.50 126.38 50.50 126.13L50.50 126.13L50.50 117.13Q51.38 116.63 52.25 116.13Q53.13 115.63 54.13 115.13L54.13 115.13Q54.25 115.13 54.31 115Q54.38 114.88 54.38 114.63L54.38 114.63Q54.38 114.63 54.38 114.63Q54.38 114.63 54.38 114.63L54.38 114.63L54.13 111.88ZM65.50 123.50L65.50 123.50Q65.50 123.38 65.31 123.19Q65.13 123 65 123L65 123Q64.88 123 64.88 123.06Q64.88 123.13 64.88 123.13L64.88 123.13Q64.25 123.25 63.56 123.31Q62.88 123.38 62.13 123.38L62.13 123.38Q60.75 123.38 60.19 122.94Q59.63 122.50 59.63 121.13L59.63 121.13L59.63 117.13Q59.63 115.75 60.19 115.31Q60.75 114.88 62.13 114.88L62.13 114.88Q62.50 114.88 63.25 114.94Q64 115 64.88 115.13L64.88 115.13Q64.88 115.13 64.94 115.19Q65 115.25 65 115.25L65 115.25Q65.13 115.25 65.31 115.06Q65.50 114.88 65.50 114.75L65.50 114.75L65.88 112.25Q65.88 112.25 65.88 112.25Q65.88 112.25 65.88 112.25L65.88 112.25Q65.88 112 65.75 111.88Q65.63 111.75 65.50 111.75L65.50 111.75Q64.63 111.50 63.69 111.38Q62.75 111.25 62.13 111.25L62.13 111.25Q58.63 111.25 57.06 112.63Q55.50 114 55.50 117.13L55.50 117.13L55.50 121.13Q55.50 124.25 57.06 125.63Q58.63 127 62.13 127L62.13 127Q62.88 127 63.81 126.88Q64.75 126.75 65.50 126.50L65.50 126.50Q65.63 126.50 65.75 126.38Q65.88 126.25 65.88 126L65.88 126Q65.88 126 65.88 126Q65.88 126 65.88 126L65.88 126L65.50 123.50ZM73.50 111.25L73.50 111.25Q70.38 111.25 68.75 112.75Q67.13 114.25 67.13 117.25L67.13 117.25L67.13 121.13Q67.13 124.13 68.69 125.56Q70.25 127 73.63 127L73.63 127Q74.88 127 76.25 126.75Q77.63 126.50 78.88 126.13L78.88 126.13Q79 126.13 79.06 126Q79.13 125.88 79.13 125.63L79.13 125.63Q79.13 125.63 79.13 125.63Q79.13 125.63 79.13 125.50L79.13 125.50L78.75 123.38Q78.63 123.13 78.50 123Q78.38 122.88 78.25 122.88L78.25 122.88Q78.13 122.88 78.13 122.88Q78.13 122.88 78 123L78 123Q77 123.25 76 123.38Q75 123.50 73.88 123.50L73.88 123.50Q72.25 123.50 71.75 122.94Q71.25 122.38 71.25 121.25L71.25 121.25L71.25 120.75L78.88 120.75Q79.13 120.75 79.31 120.63Q79.50 120.50 79.50 120.25L79.50 120.25L79.50 117.38Q79.50 114.25 78 112.75Q76.50 111.25 73.50 111.25L73.50 111.25ZM75.50 117.38L71.25 117.38L71.25 116.88Q71.25 115.75 71.81 115.25Q72.38 114.75 73.50 114.75L73.50 114.75Q74.75 114.75 75.13 115.31Q75.50 115.88 75.50 116.88L75.50 116.88L75.50 117.38ZM93.38 109.38L93.38 109.38L93.38 106.63Q93.38 106.50 93.25 106.31Q93.13 106.13 92.88 106.13L92.88 106.13Q92.88 106.13 92.88 106.13Q92.88 106.13 92.88 106.13L92.88 106.13L78.38 106.13Q78.38 106.13 78.38 106.13Q78.38 106.13 78.38 106.13L78.38 106.13Q78.25 106.13 78.06 106.31Q77.88 106.50 77.88 106.63L77.88 106.63Q77.88 106.63 77.88 106.63Q77.88 106.63 77.88 106.63L77.88 106.63L77.88 109.38Q77.88 109.63 78.06 109.81Q78.25 110 78.38 110L78.38 110L83.50 110L83.50 126.13Q83.50 126.38 83.63 126.56Q83.75 126.75 84 126.75L84 126.75L87.25 126.75Q87.50 126.75 87.63 126.56Q87.75 126.38 87.75 126.13L87.75 126.13L87.75 110L92.88 110Q92.88 110 92.88 110Q92.88 110 92.88 110L92.88 110Q93.13 110 93.25 109.81Q93.38 109.63 93.38 109.38L93.38 109.38Q93.38 109.38 93.38 109.38Q93.38 109.38 93.38 109.38L93.38 109.38ZM99.75 111.88L99.75 111.88Q99.75 111.63 99.56 111.50Q99.38 111.38 99.25 111.38L99.25 111.38Q99.13 111.38 99.06 111.38Q99 111.38 99 111.38L99 111.38Q98.13 111.63 97.25 112.13Q96.38 112.63 95.75 113L95.75 113L95.63 112Q95.63 111.75 95.44 111.63Q95.25 111.50 95.13 111.50L95.13 111.50Q95.13 111.50 95.13 111.50Q95.13 111.50 95.13 111.50L95.13 111.50L92.50 111.50Q92.50 111.50 92.50 111.50Q92.50 111.50 92.50 111.50L92.50 111.50Q92.38 111.50 92.19 111.69Q92 111.88 92 112.13L92 112.13Q92 112.13 92 112.13Q92 112.13 92 112.13L92 112.13L92 126.13Q92 126.38 92.19 126.56Q92.38 126.75 92.50 126.75L92.50 126.75L95.63 126.75Q95.88 126.75 96 126.56Q96.13 126.38 96.13 126.13L96.13 126.13L96.13 117.13Q97 116.63 97.88 116.13Q98.75 115.63 99.75 115.13L99.75 115.13Q99.88 115.13 99.94 115Q100 114.88 100 114.63L100 114.63Q100 114.63 100 114.63Q100 114.63 100 114.63L100 114.63L99.75 111.88ZM107.50 111.25L107.50 111.25Q104.38 111.25 102.81 112.75Q101.25 114.25 101.25 117.25L101.25 117.25L101.25 121.13Q101.25 124.13 102.81 125.56Q104.38 127 107.63 127L107.63 127Q109 127 110.38 126.75Q111.75 126.50 112.88 126.13L112.88 126.13Q113 126.13 113.13 126Q113.25 125.88 113.25 125.63L113.25 125.63Q113.25 125.63 113.25 125.63Q113.25 125.63 113.25 125.50L113.25 125.50L112.75 123.38Q112.75 123.13 112.56 123Q112.38 122.88 112.25 122.88L112.25 122.88Q112.25 122.88 112.19 122.88Q112.13 122.88 112.13 123L112.13 123Q111 123.25 110 123.38Q109 123.50 108 123.50L108 123.50Q106.25 123.50 105.81 122.94Q105.38 122.38 105.38 121.25L105.38 121.25L105.38 120.75L113 120.75Q113.25 120.75 113.38 120.63Q113.50 120.50 113.50 120.25L113.50 120.25L113.50 117.38Q113.50 114.25 112.06 112.75Q110.63 111.25 107.50 111.25L107.50 111.25ZM109.50 117.38L105.38 117.38L105.38 116.88Q105.38 115.75 105.88 115.25Q106.38 114.75 107.50 114.75L107.50 114.75Q108.75 114.75 109.13 115.31Q109.50 115.88 109.50 116.88L109.50 116.88L109.50 117.38ZM121.75 111.25L121.75 111.25Q118.63 111.25 117 112.75Q115.38 114.25 115.38 117.25L115.38 117.25L115.38 121.13Q115.38 124.13 117 125.56Q118.63 127 121.88 127L121.88 127Q123.25 127 124.63 126.75Q126 126.50 127.13 126.13L127.13 126.13Q127.25 126.13 127.38 126Q127.50 125.88 127.50 125.63L127.50 125.63Q127.50 125.63 127.50 125.63Q127.50 125.63 127.50 125.50L127.50 125.50L127 123.38Q127 123.13 126.81 123Q126.63 122.88 126.50 122.88L126.50 122.88Q126.50 122.88 126.44 122.88Q126.38 122.88 126.38 123L126.38 123Q125.25 123.25 124.25 123.38Q123.25 123.50 122.25 123.50L122.25 123.50Q120.50 123.50 120.06 122.94Q119.63 122.38 119.63 121.25L119.63 121.25L119.63 120.75L127.25 120.75Q127.50 120.75 127.63 120.63Q127.75 120.50 127.75 120.25L127.75 120.25L127.75 117.38Q127.75 114.25 126.31 112.75Q124.88 111.25 121.75 111.25L121.75 111.25ZM123.75 117.38L119.63 117.38L119.63 116.88Q119.63 115.75 120.13 115.25Q120.63 114.75 121.75 114.75L121.75 114.75Q123 114.75 123.38 115.31Q123.75 115.88 123.75 116.88L123.75 116.88L123.75 117.38ZM64 5L64 5Q54.13 5 45.50 8.75L45.50 8.75Q36.88 12.50 30.38 18.94Q23.88 25.38 20.13 34.13L20.13 34.13Q16.38 42.75 16.38 52.63L16.38 52.63Q16.38 62.38 20.13 71.13L20.13 71.13Q23.88 79.75 30.38 86.19Q36.88 92.63 45.50 96.38L45.50 96.38Q54.13 100.13 64 100.13L64 100.13Q73.88 100.13 82.50 96.38L82.50 96.38Q91.13 92.63 97.63 86.19Q104.13 79.75 107.88 71.13L107.88 71.13Q111.63 62.38 111.63 52.63L111.63 52.63Q111.63 42.75 107.88 34.13L107.88 34.13Q104.13 25.38 97.63 18.94Q91.13 12.50 82.50 8.75L82.50 8.75Q73.88 5 64 5L64 5ZM66.50 95.38L66.50 95.38L66.50 87.13L87.13 76.63Q87.50 76.50 87.75 76.13Q88 75.75 88 75.38L88 75.38Q88 75.38 88 75.38Q88 75.38 88 75.38L88 75.38L88 70.63Q89.25 70.13 90.13 69Q91 67.88 91 66.38L91 66.38Q91 66.25 91 66.13Q91 66 91 65.88L91 65.88Q90.75 64.13 89.50 62.94Q88.25 61.75 86.50 61.75L86.50 61.75Q84.63 61.75 83.31 63.06Q82 64.38 82 66.25L82 66.25Q82 66.38 82 66.56Q82 66.75 82 66.88L82 66.88Q82.13 68.13 82.94 69.13Q83.75 70.13 85 70.63L85 70.63L85 74.38L66.50 83.75L66.50 76.13L74.63 72.38Q75 72.13 75.25 71.75Q75.50 71.38 75.50 71L75.50 71L75.50 58.25L90.63 49.75Q91 49.50 91.19 49.19Q91.38 48.88 91.38 48.50L91.38 48.50L91.38 44.88Q92.75 44.38 93.56 43.25Q94.38 42.13 94.38 40.63L94.38 40.63Q94.38 38.75 93.06 37.44Q91.75 36.13 89.88 36.13L89.88 36.13Q89.75 36.13 89.63 36.13Q89.50 36.13 89.38 36.13L89.38 36.13Q87.75 36.38 86.56 37.63Q85.38 38.88 85.38 40.63L85.38 40.63Q85.38 40.75 85.38 40.88Q85.38 41 85.38 41.13L85.38 41.13Q85.63 42.38 86.44 43.44Q87.25 44.50 88.38 44.88L88.38 44.88L88.38 47.63L73.38 56Q73 56.25 72.81 56.63Q72.63 57 72.63 57.38L72.63 57.38L72.63 70.13L66.50 72.88L66.50 45.25L79.25 39Q79.63 38.88 79.81 38.50Q80 38.13 80 37.63L80 37.63L80 33Q81.38 32.50 82.19 31.31Q83 30.13 83 28.75L83 28.75Q83 26.88 81.69 25.56Q80.38 24.25 78.50 24.25L78.50 24.25Q78.38 24.25 78.31 24.25Q78.25 24.25 78.13 24.25L78.13 24.25Q76.38 24.38 75.19 25.69Q74 27 74 28.75L74 28.75Q74 28.88 74.06 29Q74.13 29.13 74.13 29.13L74.13 29.13Q74.25 30.50 75.06 31.50Q75.88 32.50 77 32.88L77 32.88L77.13 36.75L66.50 41.88L66.50 26Q67.88 25.50 68.69 24.31Q69.50 23.13 69.50 21.75L69.50 21.75Q69.50 19.88 68.19 18.56Q66.88 17.25 65 17.25L65 17.25Q63.13 17.25 61.81 18.56Q60.50 19.88 60.50 21.75L60.50 21.75Q60.50 21.88 60.50 22Q60.50 22.13 60.63 22.25L60.63 22.25Q60.75 23.50 61.56 24.50Q62.38 25.50 63.50 26L63.50 26L63.63 52L56.13 48.13L56.13 36.25Q56.13 35.88 55.94 35.56Q55.75 35.25 55.50 35.13L55.50 35.13L50.38 31.13Q50.63 30.75 50.69 30.31Q50.75 29.88 50.75 29.38L50.75 29.38Q50.75 27.63 49.44 26.25Q48.13 24.88 46.25 24.88L46.25 24.88Q44.38 24.88 43.06 26.25Q41.75 27.63 41.75 29.38L41.75 29.38Q41.75 31.25 43.06 32.56Q44.38 33.88 46.25 33.88L46.25 33.88Q46.88 33.88 47.44 33.75Q48 33.63 48.50 33.38L48.50 33.38L53.13 37L53.13 49Q53.13 49.38 53.38 49.75Q53.63 50.13 53.88 50.25L53.88 50.25L63.63 55.38L63.63 64.88L47.50 57.50L47.75 51.63Q47.75 51.63 47.75 51.63Q47.75 51.63 47.75 51.63L47.75 51.63Q47.75 51.13 47.50 50.81Q47.25 50.50 46.88 50.25L46.88 50.25L39.50 46.50Q39.63 46.13 39.69 45.75Q39.75 45.38 39.63 45L39.63 45Q39.38 43.38 38.13 42.25Q36.88 41.13 35.25 41.13L35.25 41.13Q33.38 41.13 32.06 42.44Q30.75 43.75 30.75 45.63L30.75 45.63Q30.75 45.63 30.75 45.75Q30.75 45.88 30.75 46L30.75 46Q30.88 47.63 32.19 48.81Q33.50 50 35.13 50L35.13 50Q35.25 50 35.38 50Q35.50 50 35.63 50L35.63 50Q36.38 49.88 36.94 49.63Q37.50 49.38 38 49L38 49L44.75 52.50L44.50 58.38Q44.50 58.38 44.50 58.38Q44.50 58.38 44.50 58.38L44.50 58.38Q44.50 58.88 44.75 59.19Q45 59.50 45.38 59.75L45.38 59.75L63.63 68.13L63.63 75Q63.50 75 63.50 75.06Q63.50 75.13 63.50 75.13L63.50 75.13Q63.50 75.25 63.50 75.31Q63.50 75.38 63.63 75.38L63.63 75.38L63.63 95.38Q62.38 95.38 61.19 95.31Q60 95.25 58.75 95.13L58.75 95.13L59 77.88Q59 77.50 58.75 77.13Q58.50 76.75 58.13 76.50L58.13 76.50L46.75 71.25Q46.75 71.25 46.75 71.13Q46.75 71 46.75 70.88L46.75 70.88Q46.75 69 45.44 67.69Q44.13 66.38 42.25 66.38L42.25 66.38Q42.13 66.38 42 66.38Q41.88 66.38 41.75 66.38L41.75 66.38Q40 66.63 38.88 67.88Q37.75 69.13 37.75 70.88L37.75 70.88Q37.75 72.75 39.06 74.06Q40.38 75.38 42.25 75.38L42.25 75.38Q43.25 75.38 44.06 75Q44.88 74.63 45.50 74L45.50 74L56 78.88L56 94.63Q48.63 93.25 42.25 89.50L42.25 89.50Q35.88 85.63 31.19 80.06Q26.50 74.50 23.75 67.50L23.75 67.50Q21.13 60.38 21.13 52.63L21.13 52.63Q21.13 43.75 24.50 35.88L24.50 35.88Q27.88 28.13 33.69 22.31Q39.50 16.50 47.38 13.13L47.38 13.13Q55.13 9.75 64 9.75L64 9.75Q72.88 9.75 80.63 13.13L80.63 13.13Q88.50 16.50 94.31 22.31Q100.13 28.13 103.50 35.88L103.50 35.88Q106.88 43.75 106.88 52.63L106.88 52.63Q106.88 61.13 103.75 68.75L103.75 68.75Q100.63 76.25 95.13 82Q89.63 87.75 82.25 91.38L82.25 91.38Q74.88 94.88 66.50 95.38L66.50 95.38Z"/></svg>