<svg xmlns="http://www.w3.org/2000/svg" xmlns:xlink="http://www.w3.org/1999/xlink" width="128" height="128"><path fill="#ffffff" d="M118.88 60.13L118.88 60.13Q117.88 59.75 116.94 59.31Q116 58.88 115 58.75L115 58.75Q109.38 57.50 103.69 56.25Q98 55 92.38 54L92.38 54Q88.13 53.25 83.94 52.75Q79.75 52.25 75.50 51.63L75.50 51.63Q76 48.75 76.81 47.94Q77.63 47.13 80.75 46.63L80.75 46.63Q82.38 49.38 83.19 49.75Q84 50.13 87.38 49.75L87.38 49.75Q94.13 49 98.31 45.13Q102.50 41.25 103.75 34.25L103.75 34.25Q104.63 29.13 106.13 24.31Q107.63 19.50 111.63 15.63L111.63 15.63Q111.63 15.63 111.56 15.50Q111.50 15.38 111.50 15.25L111.50 15.25Q104.38 13 96.06 17.44Q87.75 21.88 82 31.13L82 31.13Q79.38 30.75 77.63 29.69Q75.88 28.63 74.75 25.88L74.75 25.88Q71.63 18.50 65.88 14.25Q60.13 10 52 9.63L52 9.63Q44.63 9.38 37.63 11.38L37.63 11.38Q30.63 13.25 24.69 17.06Q18.75 20.88 14.13 26.38L14.13 26.38Q9.38 31.88 6.50 38.63L6.50 38.63Q3.63 45.50 2.50 52.13L2.50 52.13Q1.50 58.88 2.06 65.50Q2.63 72.13 4.63 78.63L4.63 78.63Q6.75 85.13 10 91.50L10 91.50Q12.63 96.75 16.19 101.25Q19.75 105.75 24.75 109L24.75 109Q29 111.75 32.88 110.94Q36.75 110.13 39.63 105.88L39.63 105.88Q39.75 105.75 39.94 105.63Q40.13 105.50 40.38 105.25L40.38 105.25L42.13 109.75Q42.50 110.88 42.94 112Q43.38 113.13 43.88 114.25L43.88 114.25Q44.88 116.50 47.19 117.50Q49.50 118.50 51.75 117.75L51.75 117.75Q52.38 117.50 53.06 117.50Q53.75 117.50 54.38 117.75L54.38 117.75Q57 118.50 59.31 118.31Q61.63 118.13 63.63 116L63.63 116Q64 115.75 64.63 115.63Q65.25 115.50 65.75 115.50L65.75 115.50Q69.25 115.63 71.38 114.31Q73.50 113 75.13 109.88L75.13 109.88Q75.25 109.63 75.44 109.31Q75.63 109 75.88 108.88L75.88 108.88Q78.13 107 78.75 104.94Q79.38 102.88 78.13 100.13L78.13 100.13Q77.50 98.50 76.63 96.94Q75.75 95.38 74.88 93.75L74.88 93.75Q74.25 92.63 73.63 91.44Q73 90.25 72.13 88.88L72.13 88.88Q76 90.13 79.56 90.75Q83.13 91.38 86.38 88.38L86.38 88.38Q87 88.75 87.56 89.06Q88.13 89.38 88.75 89.63L88.75 89.63Q92 91.13 95.69 90.69Q99.38 90.25 101.25 88L101.25 88Q102 87.13 102.75 86.94Q103.50 86.75 104.50 86.88L104.50 86.88Q108.63 87.13 112.50 85.56Q116.38 84 117.13 79.13L117.13 79.13Q121.38 78.38 123.44 76.31Q125.50 74.25 125.88 70.63L125.88 70.63Q126.25 66.75 124.63 64.25Q123 61.75 118.88 60.13L118.88 60.13ZM85.63 46.50L85.63 46.50Q85.13 46.50 84.63 45.94Q84.13 45.38 83.88 44.75L83.88 44.75Q83.63 44.13 83.50 43.19Q83.38 42.25 83 40.75L83 40.75L87.50 42.50Q89.13 41.38 90.81 42.38Q92.50 43.38 94.75 43.63L94.75 43.63Q92.38 45.25 90.13 45.88Q87.88 46.50 85.63 46.50ZM104.75 18.25L104.75 18.25Q103.13 24 101.44 29.81Q99.75 35.63 98 41.75L98 41.75Q95.88 40 94.19 38.56Q92.50 37.13 90.63 35.63L90.63 35.63L99 22.75Q95.50 24.88 93.25 28Q91 31.13 89.13 34.75L89.13 34.75L85.38 32.63Q87.38 27 93.38 22.69Q99.38 18.38 104.75 18.25L104.75 18.25ZM73.38 32.50L73.38 32.50Q78.13 32.75 82.19 34.63Q86.25 36.50 90 39.38L90 39.38Q90.25 39.50 90.38 40Q90.50 40.50 90.75 41.38L90.75 41.38Q86.50 39.88 82.75 40.19Q79 40.50 75.38 41.88L75.38 41.88Q74.25 42.25 73 42.19Q71.75 42.13 70.63 42.25L70.63 42.25L70.63 43L79.63 42.38L79.63 43.13Q77.38 44.13 75 45.19Q72.63 46.25 70.38 47.38L70.38 47.38Q68.50 44.88 69 40.13Q69.50 35.38 71.38 33.38L71.38 33.38Q71.75 33 72.31 32.75Q72.88 32.50 73.38 32.50L73.38 32.50ZM87.50 64.88L87.50 64.88L87.38 65.50Q94.63 67 101.94 68.44Q109.25 69.88 116.50 71.25L116.50 71.25Q115.63 73.63 113.63 74.44Q111.63 75.25 107.38 75.25L107.38 75.25Q107.25 79.25 104.94 80.50Q102.63 81.75 96.63 81.38L96.63 81.38Q95.50 85 92.19 85.75Q88.88 86.50 83.38 84.50L83.38 84.50Q80.38 87.75 77.06 87.25Q73.75 86.75 70.38 85.50L70.38 85.50Q69.63 90.75 67.06 94.88Q64.50 99 59.88 101.75L59.88 101.75Q55.50 104.25 50.88 104.31Q46.25 104.38 41.50 103.25L41.50 103.25Q32.13 101.25 24.88 95.88L24.88 95.88Q17.63 90.63 13.19 83.13Q8.75 75.63 7.50 66.50L7.50 66.50Q6.13 57.38 8.75 47.88L8.75 47.88Q10.63 40.63 14.38 34.75L14.38 34.75Q18.13 28.75 23.31 24.44Q28.50 20.13 34.88 17.50L34.88 17.50Q41.38 15 48.50 14.63L48.50 14.63Q55.50 14.25 61.25 17.63Q67 21 70 27.38L70 27.38Q70.25 27.88 70.25 28.81Q70.25 29.75 69.88 30.25L69.88 30.25Q66 35 65.75 40.19Q65.50 45.38 68 50.75L68 50.75Q68.50 52 68.38 52.81Q68.25 53.63 67.50 54.63L67.50 54.63Q64.13 58.75 59.81 61.38Q55.50 64 50.50 65.63L50.50 65.63L49.50 65.88Q55.38 65.75 60.69 64.31Q66 62.88 70 58.38L70 58.38Q71.13 57.13 72.19 56.75Q73.25 56.38 74.75 56.63L74.75 56.63Q82.50 57.88 90.31 59.06Q98.13 60.25 106 61.63L106 61.63Q108 61.88 109.94 62.44Q111.88 63 113.88 63.63L113.88 63.63Q115.38 64 116.38 65.06Q117.38 66.13 117.63 68L117.63 68Q110 67.25 102.50 66.44Q95 65.63 87.50 64.88L87.50 64.88ZM56.13 37.38L56.13 37.38Q56.13 34.75 54.19 32.88Q52.25 31 49.63 31.13L49.63 31.13Q47.25 31.13 45.38 33.13Q43.50 35.13 43.50 37.63L43.50 37.63Q43.63 40.13 45.50 41.94Q47.38 43.75 49.88 43.63L49.88 43.63Q52.50 43.63 54.31 41.81Q56.13 40 56.13 37.38L56.13 37.38ZM46.13 34.50L46.13 34.50Q46.13 32.88 47.44 32.44Q48.75 32 50.13 32.13L50.13 32.13Q51.38 32.13 52.56 32.63Q53.75 33.13 53.75 34.63L53.75 34.63Q53.63 36.25 52.25 36.69Q50.88 37.13 49.13 37.63L49.13 37.63Q48.25 36.88 47.19 36.06Q46.13 35.25 46.13 34.50L46.13 34.50Z"/></svg>