<svg xmlns="http://www.w3.org/2000/svg" xmlns:xlink="http://www.w3.org/1999/xlink" width="128" height="128"><path fill="#ffffff" d="M114.50 46.50L114.50 46.50Q113.63 46.13 112.75 45.75Q111.88 45.38 111 45.25L111 45.25Q106 44.13 100.94 43.06Q95.88 42 90.88 41L90.88 41Q87.13 40.38 83.44 39.94Q79.75 39.50 76 39L76 39Q76.38 36.38 77.13 35.63Q77.88 34.88 80.63 34.50L80.63 34.50Q82.13 36.88 82.81 37.25Q83.50 37.63 86.50 37.25L86.50 37.25Q92.50 36.63 96.25 33.13Q100 29.63 101 23.50L101 23.50Q101.88 19 103.19 14.69Q104.50 10.38 108 7L108 7Q108 7 108 6.88Q108 6.75 107.88 6.63L107.88 6.63Q101.50 4.63 94.19 8.63Q86.88 12.63 81.75 20.75L81.75 20.75Q79.38 20.38 77.88 19.44Q76.38 18.50 75.25 16L75.25 16Q72.50 9.50 67.44 5.75Q62.38 2 55 1.63L55 1.63Q48.50 1.38 42.25 3.13L42.25 3.13Q36.13 4.88 30.81 8.25Q25.50 11.63 21.38 16.50L21.38 16.50Q17.25 21.38 14.63 27.38L14.63 27.38Q12.13 33.50 11.13 39.38L11.13 39.38Q10.25 45.38 10.75 51.25Q11.25 57.13 13 62.88L13 62.88Q14.88 68.63 17.75 74.38L17.75 74.38Q20.13 79 23.25 83Q26.38 87 30.88 89.88L30.88 89.88Q34.63 92.38 38.06 91.63Q41.50 90.88 44 87.13L44 87.13Q44.13 87 44.31 86.88Q44.50 86.75 44.75 86.50L44.75 86.50L46.25 90.50Q46.63 91.50 47 92.56Q47.38 93.63 47.88 94.63L47.88 94.63Q48.75 96.63 50.81 97.50Q52.88 98.38 54.88 97.63L54.88 97.63Q55.38 97.50 56 97.50Q56.63 97.50 57.13 97.63L57.13 97.63Q59.50 98.38 61.56 98.19Q63.63 98 65.50 96.13L65.50 96.13Q65.75 95.88 66.25 95.75Q66.75 95.63 67.25 95.63L67.25 95.63Q70.38 95.75 72.31 94.63Q74.25 93.50 75.63 90.63L75.63 90.63Q75.63 90.38 75.81 90.19Q76 90 76.25 89.75L76.25 89.75Q78.38 88.13 78.88 86.31Q79.38 84.50 78.25 82L78.25 82Q77.63 80.63 76.88 79.19Q76.13 77.75 75.38 76.38L75.38 76.38Q74.88 75.38 74.25 74.31Q73.63 73.25 73 72L73 72Q76.38 73.13 79.50 73.69Q82.63 74.25 85.50 71.63L85.50 71.63Q86.13 71.88 86.63 72.19Q87.13 72.50 87.75 72.75L87.75 72.75Q90.63 74 93.88 73.63Q97.13 73.25 98.88 71.25L98.88 71.25Q99.50 70.50 100.19 70.31Q100.88 70.13 101.75 70.25L101.75 70.25Q105.38 70.50 108.81 69.06Q112.25 67.63 112.88 63.38L112.88 63.38Q116.63 62.63 118.50 60.88Q120.38 59.13 120.63 55.88L120.63 55.88Q121 52.38 119.56 50.13Q118.13 47.88 114.50 46.50L114.50 46.50ZM84.88 34.38L84.88 34.38Q84.50 34.38 84.06 33.88Q83.63 33.38 83.38 32.88L83.38 32.88Q83.13 32.25 83 31.44Q82.88 30.63 82.63 29.25L82.63 29.25L86.63 30.88Q88 29.88 89.50 30.75Q91 31.63 93 31.88L93 31.88Q90.88 33.25 88.88 33.81Q86.88 34.38 84.88 34.38ZM102 9.25L102 9.25L95.88 30.13Q94 28.63 92.50 27.38Q91 26.13 89.38 24.75L89.38 24.75L96.75 13.25Q93.63 15.25 91.69 18Q89.75 20.75 88 23.88L88 23.88L84.63 22Q86.50 17.13 91.81 13.25Q97.13 9.38 102 9.25ZM74 22L74 22Q78.25 22.25 81.88 23.88Q85.50 25.50 88.75 28L88.75 28Q89 28.25 89.13 28.63Q89.25 29 89.50 29.75L89.50 29.75Q85.75 28.50 82.38 28.81Q79 29.13 75.75 30.25L75.75 30.25Q74.88 30.63 73.75 30.56Q72.63 30.50 71.50 30.63L71.50 30.63L71.63 31.25L79.50 30.75L79.63 31.38Q77.50 32.25 75.44 33.25Q73.38 34.25 71.38 35.13L71.38 35.13Q69.75 33 70.19 28.75Q70.63 24.50 72.25 22.75L72.25 22.75Q72.63 22.38 73.13 22.19Q73.63 22 74 22L74 22ZM86.50 50.75L86.50 50.75L86.50 51.25L112.38 56.38Q111.63 58.50 109.81 59.25Q108 60 104.25 59.88L104.25 59.88Q104.13 63.38 102.13 64.56Q100.13 65.75 94.75 65.38L94.75 65.38Q93.63 68.50 90.75 69.19Q87.88 69.88 82.88 68.13L82.88 68.13Q80.25 71 77.31 70.56Q74.38 70.13 71.38 69L71.38 69Q70.75 73.75 68.50 77.38Q66.25 81 62 83.38L62 83.38Q58.13 85.63 54 85.69Q49.88 85.75 45.75 84.88L45.75 84.88Q37.38 83 31 78.25L31 78.25Q24.50 73.50 20.56 66.88Q16.63 60.25 15.50 52.13L15.50 52.13Q14.38 44.13 16.63 35.63L16.63 35.63Q18.25 29.25 21.63 23.88L21.63 23.88Q24.88 18.63 29.50 14.81Q34.13 11 39.88 8.63L39.88 8.63Q45.63 6.38 52 6.13L52 6.13Q58.13 5.75 63.31 8.75Q68.50 11.75 71 17.38L71 17.38Q71.25 17.88 71.25 18.69Q71.25 19.50 71 19.88L71 19.88Q67.50 24.25 67.25 28.81Q67 33.38 69.25 38.13L69.25 38.13Q69.75 39.25 69.63 40Q69.50 40.75 68.88 41.63L68.88 41.63Q65.88 45.25 62 47.56Q58.13 49.88 53.75 51.38L53.75 51.38L52.88 51.50Q58 51.50 62.75 50.25Q67.50 49 71.13 44.88L71.13 44.88Q72 43.88 73 43.50Q74 43.13 75.25 43.38L75.25 43.38Q82.13 44.50 89.06 45.56Q96 46.63 103 47.75L103 47.75Q104.75 48.13 106.50 48.56Q108.25 49 110 49.63L110 49.63Q111.38 50 112.25 50.88Q113.13 51.75 113.38 53.50L113.38 53.50Q106.50 52.75 99.88 52.06Q93.25 51.38 86.50 50.75L86.50 50.75ZM58.75 26.25L58.75 26.25Q58.75 24 57 22.31Q55.25 20.63 53 20.75L53 20.75Q50.88 20.75 49.19 22.56Q47.50 24.38 47.50 26.50L47.50 26.50Q47.63 28.75 49.31 30.31Q51 31.88 53.25 31.88L53.25 31.88Q55.50 31.88 57.13 30.25Q58.75 28.63 58.75 26.25L58.75 26.25ZM49.88 23.75L49.88 23.75Q49.88 22.25 51.06 21.88Q52.25 21.50 53.38 21.63L53.38 21.63Q54.50 21.63 55.56 22.06Q56.63 22.50 56.63 23.75L56.63 23.75Q56.50 25.25 55.25 25.63Q54 26 52.50 26.50L52.50 26.50Q51.75 25.75 50.81 25.06Q49.88 24.38 49.88 23.75ZM18.88 115.63L18.88 115.63Q19.25 115.25 19.56 114.88Q19.88 114.50 20.13 114L20.13 114Q20.38 113.63 20.50 113.13Q20.63 112.63 20.63 112.25L20.63 112.25Q20.63 112 20.63 111.81Q20.63 111.63 20.63 111.50L20.63 111.50Q20.50 111.25 20.44 111.06Q20.38 110.88 20.38 110.63L20.38 110.63Q20.25 110.38 20.13 110.13Q20 109.88 19.75 109.75L19.75 109.75Q19.63 109.50 19.44 109.31Q19.25 109.13 19 108.88L19 108.88Q18.75 108.63 18.44 108.44Q18.13 108.25 17.75 108.13L17.75 108.13Q17.38 108 17 107.75Q16.63 107.50 16.13 107.38L16.13 107.38Q15.63 107.38 15.06 107.19Q14.50 107 13.88 107L13.88 107L7 107L7 126L13.38 126Q14.13 126 14.88 126Q15.63 126 16.25 125.88L16.25 125.88Q16.88 125.75 17.44 125.63Q18 125.50 18.50 125.25L18.50 125.25Q18.88 125.13 19.25 124.88Q19.63 124.63 20 124.38L20 124.38Q20.38 124.13 20.63 123.88Q20.88 123.63 21.13 123.38L21.13 123.38Q21.25 123.13 21.44 122.81Q21.63 122.50 21.75 122.25L21.75 122.25Q21.88 121.88 21.94 121.63Q22 121.38 22.13 121.13L22.13 121.13Q22.13 121 22.13 120.75Q22.13 120.50 22.13 120.25L22.13 120.25Q22.13 119.50 21.94 118.81Q21.75 118.13 21.25 117.50L21.25 117.50Q20.88 116.88 20.25 116.38Q19.63 115.88 18.88 115.63L18.88 115.63ZM10 110L10 110L13.13 110Q13.75 110 14.25 110.13Q14.75 110.25 15.13 110.38L15.13 110.38Q15.50 110.50 15.81 110.69Q16.13 110.88 16.38 111L16.38 111Q16.50 111.25 16.63 111.44Q16.75 111.63 16.88 111.75L16.88 111.75Q16.88 112 16.94 112.19Q17 112.38 17 112.63L17 112.63L17 112.88Q16.88 113.75 16.13 114.31Q15.38 114.88 14 115.13L14 115.13Q13.50 115.25 12.50 115.31Q11.50 115.38 10 115.50L10 115.50L10 110ZM18.63 121.38L18.63 121.38Q18.50 121.63 18.38 121.81Q18.25 122 18 122.13L18 122.13Q17.88 122.25 17.63 122.38Q17.38 122.50 17.13 122.63L17.13 122.63Q16.88 122.75 16.63 122.81Q16.38 122.88 16.13 122.88L16.13 122.88Q15.88 123 15.56 123Q15.25 123 15 123L15 123Q14.63 123.13 14.38 123.06Q14.13 123 13.88 123L13.88 123L13 123L10 123L10 117.75Q11.50 117.63 12.38 117.56Q13.25 117.50 13.25 117.50L13.25 117.50Q14.63 117.50 15.63 117.75Q16.63 118 17.38 118.38L17.38 118.38Q18.13 118.75 18.50 119.25Q18.88 119.75 18.88 120.50L18.88 120.50Q18.88 120.75 18.81 121Q18.75 121.25 18.63 121.38L18.63 121.38ZM41.63 108.38L41.63 108.38Q40.50 107.88 39.25 107.56Q38 107.25 36.50 107.25L36.50 107.25Q35.13 107.25 33.81 107.56Q32.50 107.88 31.38 108.50L31.38 108.50Q30.25 109 29.38 109.88Q28.50 110.75 27.88 111.75L27.88 111.75Q27.25 112.88 26.94 114.13Q26.63 115.38 26.63 116.88L26.63 116.88Q26.63 118 26.81 119.06Q27 120.13 27.50 121L27.50 121Q27.88 122 28.44 122.69Q29 123.38 29.63 124L29.63 124Q30.38 124.63 31.13 125.06Q31.88 125.50 32.75 125.75L32.75 125.75Q33.63 126 34.56 126.19Q35.50 126.38 36.38 126.38L36.38 126.38Q37.88 126.38 39.19 126.06Q40.50 125.75 41.63 125.13L41.63 125.13Q42.75 124.50 43.63 123.63Q44.50 122.75 45.13 121.75L45.13 121.75Q45.75 120.63 46.06 119.31Q46.38 118 46.38 116.63L46.38 116.63Q46.38 115.25 46.06 114Q45.75 112.75 45.13 111.63L45.13 111.63Q44.50 110.63 43.63 109.81Q42.75 109 41.63 108.38ZM42.38 119.75L42.38 119.75Q42.13 120.38 41.75 120.88Q41.38 121.38 40.88 121.75L40.88 121.75Q40.50 122.13 39.94 122.44Q39.38 122.75 38.88 123L38.88 123Q38.38 123.13 37.81 123.25Q37.25 123.38 36.63 123.38L36.63 123.38Q35.25 123.38 34.06 122.88Q32.88 122.38 31.88 121.50L31.88 121.50Q31 120.50 30.50 119.31Q30 118.13 30 116.63L30 116.63Q30 116 30.13 115.38Q30.25 114.75 30.38 114.25L30.38 114.25Q30.63 113.75 30.88 113.31Q31.13 112.88 31.38 112.50L31.38 112.50Q31.75 112.13 32.06 111.81Q32.38 111.50 32.88 111.25L32.88 111.25Q33.25 111 33.69 110.81Q34.13 110.63 34.50 110.50L34.50 110.50Q35 110.38 35.44 110.38Q35.88 110.38 36.38 110.38L36.38 110.38Q36.88 110.38 37.31 110.38Q37.75 110.38 38.25 110.50L38.25 110.50Q38.75 110.63 39.19 110.81Q39.63 111 40 111.25L40 111.25Q40.50 111.50 40.88 111.81Q41.25 112.13 41.50 112.50L41.50 112.50Q41.88 112.88 42.13 113.38Q42.38 113.88 42.63 114.38L42.63 114.38Q42.75 115 42.88 115.56Q43 116.13 43 116.88L43 116.88Q43 117.63 42.88 118.38Q42.75 119.13 42.38 119.75L42.38 119.75ZM75.88 107L70.63 121.38L66.25 107L63.13 107L57.75 121.38L53.50 107L50 107L56.13 126L59.38 126L64.63 111.75L69.13 126L72.25 126L79.38 107L75.88 107ZM84 107L84 126L97 126L97 123L87 123L87 118L96 118L96 115L87 115L87 111L97 111L97 107L84 107ZM115 117.50L115 117.50Q115.38 117.13 115.69 116.81Q116 116.50 116.25 116.13L116.25 116.13Q116.50 115.75 116.69 115.38Q116.88 115 116.88 114.50L116.88 114.50Q117 114.13 117.06 113.69Q117.13 113.25 117.13 112.88L117.13 112.88Q117.13 112.38 117.06 111.88Q117 111.38 116.88 111L116.88 111Q116.75 110.50 116.63 110.19Q116.50 109.88 116.25 109.63L116.25 109.63Q116 109.25 115.81 109.06Q115.63 108.88 115.25 108.63L115.25 108.63Q115 108.38 114.69 108.25Q114.38 108.13 114.13 108L114.13 108Q113.88 107.88 113.56 107.81Q113.25 107.75 112.88 107.63L112.88 107.63Q112.50 107.63 112.25 107.44Q112 107.25 111.75 107.25L111.75 107.25Q111.50 107.25 111.19 107.13Q110.88 107 110.63 107L110.63 107L103 107L103 126L106 126L106 119L109.13 119L114.38 126L118.75 126L113 118.25Q113.63 118.13 114.06 117.94Q114.50 117.75 115 117.50L115 117.50ZM111.63 115.63L111.63 115.63Q111.38 115.63 111.06 115.75Q110.75 115.88 110.38 115.88L110.38 115.88Q110.13 115.88 109.75 115.94Q109.38 116 109 116L109 116L106 116L106 111L109.63 111Q111.63 111 112.63 111.56Q113.63 112.13 113.63 113.38L113.63 113.38Q113.63 113.75 113.56 114Q113.50 114.25 113.38 114.50L113.38 114.50Q113.25 114.75 113.06 114.88Q112.88 115 112.75 115.13L112.75 115.13Q112.50 115.38 112.25 115.44Q112 115.50 111.63 115.63L111.63 115.63Z"/></svg>