<svg xmlns="http://www.w3.org/2000/svg" xmlns:xlink="http://www.w3.org/1999/xlink" width="128" height="128"><path fill="#ffffff" d="M21.25 114.75L21.25 114.75Q21.50 114.50 21.81 114.13Q22.13 113.75 22.38 113.25L22.38 113.25Q22.63 112.88 22.75 112.44Q22.88 112 22.88 111.50L22.88 111.50Q22.88 111.38 22.88 111.19Q22.88 111 22.75 110.75L22.75 110.75Q22.75 110.63 22.69 110.38Q22.63 110.13 22.50 109.88L22.50 109.88Q22.50 109.75 22.38 109.50Q22.25 109.25 22 109L22 109Q21.88 108.88 21.69 108.63Q21.50 108.38 21.25 108.25L21.25 108.25Q21 108 20.69 107.81Q20.38 107.63 20 107.50L20 107.50Q19.75 107.38 19.31 107.06Q18.88 106.75 18.38 106.63L18.38 106.63Q17.88 106.50 17.38 106.25Q16.88 106 16.25 106L16.25 106L9 106L9 125L15.75 125Q16.50 125 17.19 125Q17.88 125 18.63 124.88L18.63 124.88Q19.25 124.75 19.75 124.63Q20.25 124.50 20.75 124.25L20.75 124.25Q21.13 124.13 21.50 123.88Q21.88 123.63 22.25 123.38L22.25 123.38Q22.63 123.13 22.88 122.88Q23.13 122.63 23.38 122.38L23.38 122.38Q23.50 122.13 23.69 121.88Q23.88 121.63 24 121.25L24 121.25Q24.13 121 24.19 120.75Q24.25 120.50 24.25 120.25L24.25 120.25Q24.38 120 24.38 119.81Q24.38 119.63 24.38 119.38L24.38 119.38Q24.38 118.63 24.13 117.94Q23.88 117.25 23.50 116.63L23.50 116.63Q23.13 116 22.50 115.56Q21.88 115.13 21.25 114.75L21.25 114.75ZM12 114.63L12 109L15.50 109Q16.13 109 16.63 109.19Q17.13 109.38 17.50 109.50L17.50 109.50Q17.88 109.63 18.19 109.88Q18.50 110.13 18.63 110.25L18.63 110.25Q18.88 110.50 19 110.69Q19.13 110.88 19.13 111L19.13 111Q19.25 111.25 19.25 111.44Q19.25 111.63 19.25 111.88L19.25 111.88L19.25 112.13Q19.25 113 18.38 113.56Q17.50 114.13 16.13 114.38L16.13 114.38Q15.63 114.50 14.56 114.56Q13.50 114.63 12 114.63L12 114.63ZM20.88 120.50L20.88 120.50Q20.75 120.75 20.63 120.88Q20.50 121 20.38 121.13L20.38 121.13Q20.13 121.25 19.94 121.38Q19.75 121.50 19.38 121.63L19.38 121.63Q19.13 121.75 18.88 121.81Q18.63 121.88 18.38 121.88L18.38 121.88Q18.13 122 17.88 122Q17.63 122 17.25 122.13L17.25 122.13Q17 122.13 16.75 122.06Q16.50 122 16.25 122.13L16.25 122.13L15.38 122L12 122L12 116.88Q14.25 116.75 14.81 116.75Q15.38 116.75 15.50 116.75L15.50 116.75Q16.75 116.75 17.75 116.94Q18.75 117.13 19.50 117.50L19.50 117.50Q20.25 117.88 20.69 118.38Q21.13 118.88 21.13 119.50L21.13 119.50Q21.13 119.75 21.06 120Q21 120.25 20.88 120.50ZM43.38 107.75L43.38 107.75Q42.25 107.25 41 107Q39.75 106.75 38.38 106.75L38.38 106.75Q37 106.75 35.75 107Q34.50 107.25 33.38 107.88L33.38 107.88Q32.25 108.38 31.44 109.19Q30.63 110 30 111.13L30 111.13Q29.38 112.13 29.06 113.38Q28.75 114.63 28.75 116L28.75 116Q28.75 117.13 28.94 118.19Q29.13 119.25 29.50 120.13L29.50 120.13Q29.88 121 30.44 121.75Q31 122.50 31.63 123L31.63 123Q32.38 123.63 33.13 124Q33.88 124.38 34.63 124.75L34.63 124.75Q35.50 125 36.44 125.13Q37.38 125.25 38.25 125.25L38.25 125.25Q39.75 125.25 41 125Q42.25 124.75 43.38 124.13L43.38 124.13Q44.38 123.50 45.25 122.69Q46.13 121.88 46.75 120.75L46.75 120.75Q47.38 119.63 47.69 118.44Q48 117.25 48 115.75L48 115.75Q48 114.38 47.69 113.19Q47.38 112 46.75 111L46.75 111Q46.13 109.88 45.25 109.13Q44.38 108.38 43.38 107.75L43.38 107.75ZM44.13 118.88L44.13 118.88Q43.88 119.50 43.50 120Q43.13 120.50 42.63 120.88L42.63 120.88Q42.25 121.25 41.75 121.50Q41.25 121.75 40.63 122L40.63 122Q40.13 122.13 39.56 122.25Q39 122.38 38.50 122.38L38.50 122.38Q37.13 122.38 35.94 121.94Q34.75 121.50 33.88 120.50L33.88 120.50Q33 119.63 32.50 118.44Q32 117.25 32 115.75L32 115.75Q32 115.13 32.13 114.56Q32.25 114 32.38 113.50L32.38 113.50Q32.63 113 32.81 112.56Q33 112.13 33.38 111.75L33.38 111.75Q33.63 111.38 34 111.13Q34.38 110.88 34.75 110.63L34.75 110.63Q35.13 110.38 35.56 110.19Q36 110 36.50 109.88L36.50 109.88Q36.88 109.75 37.31 109.69Q37.75 109.63 38.25 109.63L38.25 109.63Q38.75 109.63 39.19 109.69Q39.63 109.75 40 109.88L40 109.88Q40.50 110 40.94 110.19Q41.38 110.38 41.75 110.63L41.75 110.63Q42.25 110.88 42.63 111.19Q43 111.50 43.25 111.88L43.25 111.88Q43.63 112.13 43.88 112.63Q44.13 113.13 44.25 113.63L44.25 113.63Q44.50 114.13 44.56 114.75Q44.63 115.38 44.63 116L44.63 116Q44.63 116.88 44.50 117.56Q44.38 118.25 44.13 118.88L44.13 118.88ZM76.88 106L71.75 120L67.38 106L64.38 106L59.13 120L54.88 106L51.50 106L57.50 125L60.63 125L65.75 111L70.13 125L73.25 125L80.25 106L76.88 106ZM84 106L84 125L97 125L97 122L87 122L87 117L96 117L96 114L87 114L87 110L97 110L97 106L84 106ZM113.13 117.38L113.13 117.38Q113.63 117.25 114.06 117Q114.50 116.75 114.88 116.50L114.88 116.50Q115.38 116.25 115.69 115.94Q116 115.63 116.13 115.25L116.13 115.25Q116.38 114.88 116.56 114.50Q116.75 114.13 116.88 113.75L116.88 113.75Q117 113.38 117 112.94Q117 112.50 117 112.13L117 112.13Q117 111.63 116.94 111.13Q116.88 110.63 116.88 110.25L116.88 110.25Q116.75 109.88 116.56 109.56Q116.38 109.25 116.25 108.88L116.25 108.88Q116 108.63 115.75 108.44Q115.50 108.25 115.25 108L115.25 108Q115 107.75 114.69 107.63Q114.38 107.50 114.13 107.38L114.13 107.38Q113.88 107.25 113.56 107.19Q113.25 107.13 112.88 107.13L112.88 107.13Q112.63 107 112.31 106.75Q112 106.50 111.75 106.50L111.75 106.50Q111.50 106.50 111.25 106.25Q111 106 110.75 106L110.75 106L103 106L103 125L106 125L106 118L109.25 118L114.38 125L118.63 125L113.13 117.38ZM111.75 114.75L111.75 114.75Q111.38 114.88 111.06 114.94Q110.75 115 110.50 115L110.50 115Q110.25 115 109.88 115Q109.50 115 109.13 115L109.13 115L106 115L106 110L109.75 110Q111.75 110 112.69 110.63Q113.63 111.25 113.63 112.50L113.63 112.50Q113.63 112.88 113.56 113.13Q113.50 113.38 113.38 113.63L113.38 113.63Q113.25 113.88 113.13 114.06Q113 114.25 112.75 114.38L112.75 114.38Q112.50 114.50 112.25 114.63Q112 114.75 111.75 114.75ZM107.50 69.25L107.50 69.25Q108.88 68.38 109.75 67.19Q110.63 66 110.25 64.13L110.25 64.13Q111.75 64 113.13 63.56Q114.50 63.13 115.63 62.25L115.63 62.25Q116.63 61.50 117.06 60.50Q117.50 59.50 117.88 58.38L117.88 58.38Q117.88 58.13 117.94 57.88Q118 57.63 118 57.25L118 57.25L118 54.25Q118 54 117.94 53.63Q117.88 53.25 117.88 52.88L117.88 52.88Q117.50 51.38 116.69 50.19Q115.88 49 114.38 48.25L114.38 48.25Q111.63 46.75 108.69 45.94Q105.75 45.13 102.75 44.38L102.75 44.38Q96.50 42.88 90.06 41.94Q83.63 41 77.25 40.25L77.25 40.25Q76.50 40.13 75.75 40.06Q75 40 74.25 39.88L74.25 39.88Q74.50 37.75 75.44 36.88Q76.38 36 78.88 35.50L78.88 35.50Q79.13 36 79.38 36.63Q79.63 37.25 80 37.88L80 37.88Q80.13 38.13 80.31 38.31Q80.50 38.50 80.75 38.50L80.75 38.50Q84.50 38.63 87.94 37.75Q91.38 36.88 94.25 34.25L94.25 34.25Q96.50 32.13 97.63 29.50Q98.75 26.88 99.25 23.88L99.25 23.88Q99.50 22.88 99.69 21.81Q99.88 20.75 100 19.75L100 19.75Q100.50 16.38 102.13 13.69Q103.75 11 105.88 8.50L105.88 8.50Q106 8.38 106.13 8.25Q106.25 8.13 106.38 8L106.38 8Q104.63 7.38 102.88 7.31Q101.13 7.25 99.50 7.63L99.50 7.63Q92.88 8.75 88 12.25Q83.13 15.75 80 21.75L80 21.75L79.88 21.88Q78.75 21.63 77.63 21.38Q76.50 21.13 75.50 20.75L75.50 20.75Q75.25 20.63 75.13 20.38Q75 20.13 74.88 19.88L74.88 19.88Q73 14.75 69.81 10.88Q66.63 7 61.50 4.88L61.50 4.88Q60 4.25 58.38 3.94Q56.75 3.63 55.13 3.13L55.13 3.13L54.75 3L48.38 3Q47.25 3 46.19 3.25Q45.13 3.50 44.13 3.75L44.13 3.75Q37.75 5.13 32.13 8.13L32.13 8.13Q26.63 11.25 22.25 15.69Q17.88 20.13 14.88 25.63L14.88 25.63Q12 31.25 10.75 37.63L10.75 37.63Q9.50 44.50 9.88 51L9.88 51Q10.13 57.38 11.88 63.44Q13.63 69.50 16.88 75.13L16.88 75.13Q20 80.75 24.50 86L24.50 86Q25.88 87.50 27.50 88.81Q29.13 90.13 31 91L31 91Q34.50 92.75 37.94 91.63Q41.38 90.50 43.13 87L43.13 87L43.25 86.75Q44 88.75 44.81 90.69Q45.63 92.63 46.25 94.63L46.25 94.63Q46.88 96.50 48.75 97.38Q50.63 98.25 52.13 98.25L52.13 98.25Q52.38 98.25 52.69 98.31Q53 98.38 53.13 98.25L53.13 98.25Q54.38 97.25 55.44 98.13Q56.50 99 57.63 99L57.63 99L60 99Q61.25 98.25 62.38 97.75Q63.50 97.25 64.38 96.13L64.38 96.13Q64.50 96 64.81 95.94Q65.13 95.88 65.50 96L65.50 96Q67.13 96.13 68.56 95.75Q70 95.38 71.38 94.50L71.38 94.50Q72.50 93.75 73.19 92.69Q73.88 91.63 74 90.25L74 90.25Q75.50 89.88 76.31 88.75Q77.13 87.63 77.25 86L77.25 86Q77.25 85.13 77.13 84.13Q77 83.13 76.63 82.38L76.63 82.38Q75.38 79.88 74.06 77.50Q72.75 75.13 71.50 72.75L71.50 72.75L71.38 72.50L71.63 72.63Q73.63 73.50 75.63 73.94Q77.63 74.38 79.75 74.13L79.75 74.13Q81.13 74 82 73.56Q82.88 73.13 83.50 72L83.50 72Q85.13 73.25 87 73.81Q88.88 74.38 91 74.13L91 74.13Q93 74 94.81 73.38Q96.63 72.75 97.75 70.63L97.75 70.63Q99.13 70.63 100.63 70.69Q102.13 70.75 103.50 70.63L103.50 70.63Q104.63 70.50 105.56 70.13Q106.50 69.75 107.50 69.25L107.50 69.25ZM51.38 32.63L51.38 32.63Q49 32.63 47.31 31Q45.63 29.38 45.63 27L45.63 27Q45.63 24.63 47.31 22.94Q49 21.25 51.38 21.25L51.38 21.25Q53.75 21.25 55.38 22.94Q57 24.63 57 27L57 27Q57 29.38 55.38 31.06Q53.75 32.75 51.38 32.63ZM68.63 37.25L68.63 37.25Q68.13 36 67.81 34.63Q67.50 33.25 67.63 31.75L67.63 31.75Q67.50 29.50 68.25 27.56Q69 25.63 70.25 23.88L70.25 23.88Q70.38 23.63 70.88 23.56Q71.38 23.50 71.75 23.50L71.75 23.50Q75.88 23.88 79.56 25.44Q83.25 27 86.50 29.38L86.50 29.38Q87.25 29.88 87.88 30.44Q88.50 31 89.13 31.63L89.13 31.63Q87.75 31.38 86.50 31.06Q85.25 30.75 83.88 30.50L83.88 30.50Q81.88 30.13 79.94 30.25Q78 30.38 76.25 31.25L76.25 31.25Q74.25 32.13 72.13 32.25Q70 32.38 68 32.25L68 32.25Q69.13 33.25 70.44 33.38Q71.75 33.50 73.13 33.25L73.13 33.25Q74.38 33.13 75.50 32.81Q76.63 32.50 77.75 32.25L77.75 32.25L77.88 33.13L68.63 37.25Z"/></svg>