<svg xmlns="http://www.w3.org/2000/svg" xmlns:xlink="http://www.w3.org/1999/xlink" width="128" height="128"><path fill="#ffffff" d="M124.75 65.63L124.75 65.63Q124.38 63.88 123.44 62.50Q122.50 61.13 120.88 60.38L120.88 60.38Q117.75 58.75 114.44 57.75Q111.13 56.75 107.75 56L107.75 56Q100.63 54.38 93.38 53.25Q86.13 52.13 78.75 51.25L78.75 51.25Q77.88 51.13 77.06 51.06Q76.25 51 75.38 50.88L75.38 50.88Q75.75 48.50 76.81 47.50Q77.88 46.50 80.63 45.88L80.63 45.88Q81 46.50 81.25 47.25Q81.50 48 81.88 48.63L81.88 48.63Q82 48.88 82.31 49.13Q82.63 49.38 82.88 49.38L82.88 49.38Q87 49.38 90.94 48.44Q94.88 47.50 98.13 44.50L98.13 44.50Q100.63 42.13 101.88 39.13Q103.13 36.13 103.75 32.88L103.75 32.88Q104 31.63 104.19 30.44Q104.38 29.25 104.63 28L104.63 28Q105.13 24.25 106.94 21.19Q108.75 18.13 111.25 15.38L111.25 15.38Q111.38 15.25 111.50 15.13Q111.63 15 111.88 14.75L111.88 14.75Q109.88 14.13 107.88 14.06Q105.88 14 104 14.25L104 14.25Q96.63 15.63 91.06 19.63Q85.50 23.63 82 30.38L82 30.38L81.88 30.50Q80.63 30.25 79.31 29.94Q78 29.63 76.75 29.25L76.75 29.25Q76.63 29.13 76.44 28.81Q76.25 28.50 76.13 28.25L76.13 28.25Q74.13 22.38 70.44 18Q66.75 13.63 61 11.25L61 11.25Q59.38 10.50 57.50 10.38Q55.63 10.25 53.75 9.75L53.75 9.75Q53.75 9.75 53.63 9.88Q53.50 10 53.38 10L53.38 10L46.13 10Q44.88 10 43.69 10.06Q42.50 10.13 41.25 10.38L41.25 10.38Q34.13 11.88 27.75 15.38L27.75 15.38Q21.50 18.75 16.56 23.75Q11.63 28.75 8.25 35L8.25 35Q4.88 41.38 3.63 48.63L3.63 48.63Q2.25 56.38 2.50 63.63L2.50 63.63Q2.88 70.88 4.88 77.69Q6.88 84.50 10.38 90.88L10.38 90.88Q14 97.25 19.13 103.13L19.13 103.13Q20.63 105 22.50 106.38Q24.38 107.75 26.50 108.88L26.50 108.88Q30.50 110.75 34.31 109.50Q38.13 108.25 40.13 104.25L40.13 104.25L40.38 103.88Q41.25 106.13 42.13 108.38Q43 110.63 43.75 112.88L43.75 112.88Q44.50 115 46.63 116Q48.75 117 50.38 116.88L50.38 116.88Q50.63 116.88 51 117.06Q51.38 117.25 51.50 117L51.50 117Q53 116 54.19 117Q55.38 118 56.63 118L56.63 118L59.25 118Q60.75 117.25 62 116.56Q63.25 115.88 64.25 114.63L64.25 114.63Q64.38 114.50 64.75 114.44Q65.13 114.38 65.50 114.38L65.50 114.38Q67.38 114.63 69.06 114.19Q70.75 113.75 72.25 112.75L72.25 112.75Q73.50 111.88 74.25 110.69Q75 109.50 75.25 107.88L75.25 107.88Q76.88 107.50 77.81 106.25Q78.75 105 78.75 103.13L78.75 103.13Q78.88 102.13 78.75 101Q78.63 99.88 78.13 99L78.13 99Q76.75 96.25 75.25 93.56Q73.75 90.88 72.25 88.13L72.25 88.13L72.13 87.75L72.50 87.88Q74.63 89 76.94 89.44Q79.25 89.88 81.63 89.75L81.63 89.75Q83.13 89.63 84.13 89.06Q85.13 88.50 85.88 87.25L85.88 87.25Q87.75 88.63 89.88 89.25Q92 89.88 94.38 89.75L94.38 89.75Q96.63 89.50 98.69 88.81Q100.75 88.13 102 85.75L102 85.75Q103.63 85.75 105.31 85.81Q107 85.88 108.63 85.75L108.63 85.75Q109.75 85.50 110.88 85.06Q112 84.63 113 84.13L113 84.13Q114.63 83.13 115.63 81.75Q116.63 80.38 116.25 78.25L116.25 78.25Q117.88 78.13 119.44 77.69Q121 77.25 122.25 76.13L122.25 76.13Q123.38 75.25 123.94 74.19Q124.50 73.13 124.75 71.75L124.75 71.75Q124.88 71.50 124.94 71.19Q125 70.88 125 70.63L125 70.63L125 67.25Q125 66.75 124.94 66.38Q124.88 66 124.75 65.63L124.75 65.63ZM49.50 42.75L49.50 42.75Q46.75 42.75 44.88 40.88Q43 39 43.13 36.25L43.13 36.25Q43.13 33.63 45 31.75Q46.88 29.88 49.50 29.88L49.50 29.88Q52.25 29.88 54.06 31.75Q55.88 33.63 55.88 36.38L55.88 36.38Q55.88 39 54 40.88Q52.13 42.75 49.50 42.75ZM69.13 47.88L69.13 47.88Q68.50 46.50 68.13 44.94Q67.75 43.38 68 41.63L68 41.63Q67.88 39.13 68.69 36.94Q69.50 34.75 70.88 32.75L70.88 32.75Q71.13 32.50 71.63 32.44Q72.13 32.38 72.63 32.38L72.63 32.38Q77.25 32.75 81.44 34.50Q85.63 36.25 89.38 39L89.38 39Q90.13 39.63 90.88 40.25Q91.63 40.88 92.25 41.63L92.25 41.63Q90.75 41.25 89.31 40.94Q87.88 40.63 86.38 40.38L86.38 40.38Q84.13 39.88 81.94 40.06Q79.75 40.25 77.63 41.13L77.63 41.13Q75.38 42.13 73.06 42.25Q70.75 42.38 68.25 42.25L68.25 42.25Q69.63 43.38 71.13 43.50Q72.63 43.63 74.25 43.38L74.25 43.38Q75.50 43.13 76.81 42.81Q78.13 42.50 79.50 42.13L79.50 42.13L79.63 43.25L69.13 47.88Z"/></svg>