<svg xmlns="http://www.w3.org/2000/svg" xmlns:xlink="http://www.w3.org/1999/xlink" width="128" height="128"><path fill="#ffffff" d="M97.88 67.88L97.88 67.88Q98 82 106.25 87.50Q114.50 93 114.63 93L114.63 93Q114.50 93.38 112.50 98.75Q110.50 104.13 106 110.75L106 110.75Q102.13 116.38 97.75 121.13Q93.38 125.88 87 126L87 126Q80.75 126.13 77.19 123.56Q73.63 121 66.50 121L66.50 121Q59.38 121 55.69 123.44Q52 125.88 46.13 126.13L46.13 126.13Q40 126.38 35.19 121.19Q30.38 116 26.50 110.38L26.50 110.38Q22.50 104.63 19.25 96.75L19.25 96.75Q16 89 14.50 80.44Q13 71.88 13.75 63.38L13.75 63.38Q14.50 54.88 18.63 47.75L18.63 47.75Q22.75 40.75 29.56 36.56Q36.38 32.38 44.38 32.25L44.38 32.25Q50.38 32.13 55.75 34.88Q61.13 37.63 64.88 37.63L64.88 37.63Q68.50 37.63 74.94 34.38Q81.38 31.13 88.63 31.88L88.63 31.88Q91.63 32 98.75 34.13Q105.88 36.25 111.38 44.25L111.38 44.25Q110.88 44.50 104.31 50.31Q97.75 56.13 97.88 67.88L97.88 67.88ZM82.25 21.75L82.25 21.75Q85.50 17.75 87.44 12.56Q89.38 7.38 88.75 1.88L88.75 1.88Q84 2.13 78.88 4.75Q73.75 7.38 70.38 11.25L70.38 11.25Q67.38 14.75 65.25 19.94Q63.13 25.13 63.88 30.50L63.88 30.50Q69.13 30.88 74.06 28.25Q79 25.63 82.25 21.75L82.25 21.75Z"/></svg>