<svg xmlns="http://www.w3.org/2000/svg" xmlns:xlink="http://www.w3.org/1999/xlink" width="128" height="128"><path fill="#ffffff" d="M65.25 106.88L65.25 106.88Q64.63 106.75 64.06 106.56Q63.50 106.38 62.88 106.25L62.88 106.25L62.25 106Q61.63 105.88 61.06 105.69Q60.50 105.50 59.88 105.25L59.88 105.25L59.50 105.13Q59 105 58.50 104.81Q58 104.63 57.50 104.38L57.50 104.38L56.88 104.13Q56.38 104 55.81 103.75Q55.25 103.50 54.63 103.25L54.63 103.25L54.25 103Q53.75 102.88 53.25 102.63Q52.75 102.38 52.38 102.13L52.38 102.13L51.75 101.88Q51.38 101.75 51 101.56Q50.63 101.38 50.38 101.13L50.38 101.13Q50.13 101 49.88 100.88Q49.63 100.75 49.38 100.63L49.38 100.63Q48.88 100.38 48.44 100.13Q48 99.88 47.63 99.63L47.63 99.63L47 99.38Q46.38 99 45.81 98.63Q45.25 98.25 44.75 98L44.75 98L44.13 97.50Q43.75 97.25 43.31 97Q42.88 96.75 42.50 96.50L42.50 96.50L42 96.13Q41.63 95.88 41.19 95.56Q40.75 95.25 40.38 95L40.38 95L39.75 94.50Q39.38 94.25 39.06 93.94Q38.75 93.63 38.38 93.38L38.38 93.38L37.75 92.88Q37.38 92.50 36.94 92.13Q36.50 91.75 36 91.38L36 91.38L35.88 91.25Q35.38 90.88 34.94 90.44Q34.50 90 34 89.63L34 89.63L33.50 89.13Q33.13 88.88 32.81 88.56Q32.50 88.25 32.25 87.88L32.25 87.88L31.75 87.38Q31.25 86.88 30.88 86.50Q30.50 86.13 30.13 85.63L30.13 85.63L30 85.63Q29.63 85.13 29.19 84.69Q28.75 84.25 28.38 83.75L28.38 83.75L28 83.25Q27.63 82.88 27.38 82.50Q27.13 82.13 26.88 81.75L26.88 81.75L26.38 81.25Q26 80.75 25.69 80.31Q25.38 79.88 25 79.50L25 79.50Q20.50 73.25 17.50 66L17.50 66Q14.50 58.75 13.44 51.19Q12.38 43.63 13.50 36L13.50 36Q14.63 28.25 18.25 21.25L18.25 21.25L9.63 32.13Q5.50 38.13 3.63 44.88L3.63 44.88Q1.75 51.50 1.75 58.44Q1.75 65.38 3.50 72.25L3.50 72.25Q5.25 79.13 8.38 85.50L8.38 85.50Q8.50 85.75 8.69 86.06Q8.88 86.38 9 86.75L9 86.75L9.38 87.50L9.63 87.88L10.13 88.63Q10.25 89 10.50 89.38Q10.75 89.75 10.88 90L10.88 90L11.38 90.88Q11.63 91.13 11.81 91.50Q12 91.88 12.25 92.25L12.25 92.25L12.63 92.88Q13 93.38 13.38 93.88Q13.75 94.38 14 94.88L14 94.88L14.13 94.88L14.25 95.25Q14.63 95.63 14.94 96Q15.25 96.38 15.50 96.88L15.50 96.88L16 97.38Q16.25 97.75 16.56 98.13Q16.88 98.50 17.13 98.88L17.13 98.88L17.63 99.38Q18 99.75 18.38 100.25Q18.75 100.75 19.13 101.13L19.13 101.13L19.25 101.25L19.25 101.25Q19.63 101.75 20.06 102.13Q20.50 102.50 20.88 103L20.88 103L21.38 103.50Q21.75 103.75 22.06 104.06Q22.38 104.38 22.63 104.75L22.63 104.75L23.25 105.25Q23.63 105.63 24.06 106.06Q24.50 106.50 25 106.88L25 106.88L25 106.88L25.25 107.13Q25.75 107.50 26.13 107.81Q26.50 108.13 26.88 108.50L26.88 108.50L27.50 109Q27.88 109.25 28.19 109.50Q28.50 109.75 28.88 110L28.88 110L29.63 110.63Q30 110.88 30.38 111.13Q30.75 111.38 31.13 111.63L31.13 111.63L31.75 112.13Q32.13 112.38 32.50 112.63Q32.88 112.88 33.25 113.13L33.25 113.13L33.88 113.50Q34.50 113.88 35.06 114.25Q35.63 114.63 36.13 115L36.13 115L36.75 115.25Q37.25 115.50 37.69 115.75Q38.13 116 38.50 116.25L38.50 116.25Q38.75 116.38 39 116.50Q39.25 116.63 39.50 116.75L39.50 116.75Q39.75 116.88 40.06 117.06Q40.38 117.25 40.63 117.38L40.63 117.38L41.50 117.75Q42 118 42.44 118.25Q42.88 118.50 43.38 118.63L43.38 118.63L43.88 118.88Q44.38 119.13 44.94 119.38Q45.50 119.63 46.13 119.75L46.13 119.75L46.63 120Q47.13 120.25 47.69 120.44Q48.25 120.63 48.75 120.75L48.75 120.75L49 120.88Q49.63 121.13 50.25 121.31Q50.88 121.50 51.38 121.63L51.38 121.63L52 121.88Q52.63 122 53.25 122.19Q53.88 122.38 54.50 122.50L54.50 122.50Q74.50 126.13 87.75 121.63L87.75 121.63Q101 117.13 108.88 110.19Q116.75 103.25 120 96.88L120 96.88Q123.25 90.50 123.25 90.50L123.25 90.50Q118.38 96.88 111.75 100.88L111.75 100.88Q105.25 105 97.63 106.94Q90 108.88 81.75 108.88L81.75 108.88Q73.50 108.75 65.25 106.88L65.25 106.88ZM46.13 63.75L46.13 63.75Q47 65 48 66.38Q49 67.75 50.13 68.88L50.13 68.88Q50.63 69.25 51.06 69.75Q51.50 70.25 52 70.63L52 70.63L52.38 71.13Q52.88 71.63 53.31 72Q53.75 72.38 54.25 72.88L54.25 72.88L54.38 72.88L54.38 72.88Q54.88 73.38 55.44 73.81Q56 74.25 56.50 74.75L56.50 74.75L57 75.13Q57.50 75.50 58.06 75.88Q58.63 76.25 59.25 76.75L59.25 76.75L59.25 76.75Q59.50 76.88 59.75 77.06Q60 77.25 60.25 77.38L60.25 77.38L60.75 77.75Q61.13 78 61.56 78.25Q62 78.50 62.38 78.75L62.38 78.75L62.63 78.88Q63 79.13 63.38 79.31Q63.75 79.50 64.13 79.75L64.13 79.75L64.63 80Q64.88 80.13 65.13 80.25Q65.38 80.38 65.63 80.50L65.63 80.50L65.88 80.63Q66.38 80.88 66.88 81.13Q67.38 81.38 68 81.63L68 81.63L68.38 81.75Q68.88 82 69.31 82.19Q69.75 82.38 70.13 82.50L70.13 82.50L70.88 82.75Q71.38 82.88 71.75 83Q72.13 83.13 72.50 83.38L72.50 83.38L73.25 83.50Q73.88 83.75 74.44 83.94Q75 84.13 75.63 84.25L75.63 84.25Q91 86.75 100.88 83.25L100.88 83.25Q110.75 79.63 116.38 74.31Q122 69 124.13 64.13L124.13 64.13Q126.25 59.38 126.25 59.38L126.25 59.38Q123.13 64 118.50 67.38L118.50 67.38Q113.88 70.63 108.31 72.50Q102.75 74.38 96.38 74.50L96.38 74.50Q90 74.75 83.38 73L83.38 73Q82.88 72.88 82.25 72.69Q81.63 72.50 81.13 72.25L81.13 72.25L80.38 72.13Q80 71.88 79.56 71.75Q79.13 71.63 78.75 71.50L78.75 71.50L78 71.25Q77.50 71 77.06 70.88Q76.63 70.75 76.25 70.50L76.25 70.50L75.75 70.38Q75.25 70.13 74.69 69.88Q74.13 69.63 73.63 69.38L73.63 69.38Q73.38 69.25 73.13 69.06Q72.88 68.88 72.50 68.75L72.50 68.75L71.88 68.50Q71.63 68.25 71.25 68.06Q70.88 67.88 70.63 67.75L70.63 67.75L70.25 67.50Q69.88 67.25 69.44 67Q69 66.75 68.63 66.50L68.63 66.50L68.13 66.13Q67.88 66 67.56 65.81Q67.25 65.63 67 65.50L67 65.50Q66.50 65.13 65.94 64.69Q65.38 64.25 64.75 63.88L64.75 63.88L64.25 63.38Q58.50 58.88 54.06 52.75Q49.63 46.63 47.50 39.50L47.50 39.50Q45.13 32.13 45.75 24.25Q46.38 16.38 50.38 9.63L50.38 9.63L43.88 18.88Q40.88 23.13 39.38 28L39.38 28Q38 33 37.88 38.06Q37.75 43.13 39 48.25L39 48.25Q40.25 53.25 42.50 57.75L42.50 57.75Q43.38 59.38 44.25 60.81Q45.13 62.25 46.13 63.75L46.13 63.75ZM89.50 49.50L89.50 49.50Q89.75 49.63 90 49.69Q90.25 49.75 90.50 49.88L90.50 49.88L91 50Q91.25 50.13 91.63 50.25Q92 50.38 92.38 50.38L92.38 50.38Q109.50 53.75 115.63 45.94Q121.75 38.13 123 36.38L123 36.38Q118.88 42.25 112.31 43.81Q105.75 45.38 97.38 43.38L97.38 43.38Q96.63 43.13 95.94 42.94Q95.25 42.75 94.63 42.50L94.63 42.50Q93.88 42.25 93.06 41.88Q92.25 41.50 91.50 41.13L91.50 41.13Q90 40.50 88.56 39.63Q87.13 38.75 85.88 37.75L85.88 37.75Q82.13 34.88 79.25 30.88L79.25 30.88Q76.38 27 74.88 22.44Q73.38 17.88 73.50 13.13L73.50 13.13Q73.75 8.38 76.13 4L76.13 4L72.63 8.88Q69.13 14 68.69 20.13Q68.25 26.25 70.75 32L70.75 32Q73.38 38.13 78.31 42.69Q83.25 47.25 89.50 49.50L89.50 49.50Z"/></svg>