<svg xmlns="http://www.w3.org/2000/svg" xmlns:xlink="http://www.w3.org/1999/xlink" width="128" height="128"><path fill="#ffffff" d="M48 79L48 79L48.13 79.13L48.50 79.25Q48.88 79.38 49.19 79.56Q49.50 79.75 49.88 79.88L49.88 79.88L50.13 80Q50.50 80.25 50.88 80.38Q51.25 80.50 51.63 80.63L51.63 80.63L52 80.88Q52.38 81 52.75 81.13Q53.13 81.25 53.50 81.38L53.50 81.38L53.63 81.38Q54.13 81.50 54.50 81.69Q54.88 81.88 55.38 82L55.38 82L55.75 82.13Q56.13 82.25 56.56 82.38Q57 82.50 57.38 82.50L57.38 82.50Q71.13 85 80.25 81.88L80.25 81.88Q89.25 78.75 94.69 74.06Q100.13 69.38 102.38 65L102.38 65Q104.63 60.63 104.63 60.63L104.63 60.63Q101.25 64.88 96.75 67.75L96.75 67.75Q92.13 70.50 86.94 71.88Q81.75 73.25 76.13 73.13L76.13 73.13Q70.50 73.13 64.88 71.88L64.88 71.88Q64.38 71.75 64 71.63Q63.63 71.50 63.13 71.38L63.13 71.38L62.75 71.25Q62.38 71.13 61.94 71Q61.50 70.88 61.13 70.75L61.13 70.75L60.88 70.63Q60.50 70.50 60.19 70.38Q59.88 70.25 59.50 70.13L59.50 70.13L59.13 70Q58.75 69.88 58.31 69.69Q57.88 69.50 57.50 69.38L57.50 69.38L57.25 69.25Q56.88 69 56.56 68.88Q56.25 68.75 56 68.63L56 68.63L55.63 68.38Q55.38 68.25 55.13 68.13Q54.88 68 54.63 67.88L54.63 67.88L53.88 67.50Q53.63 67.38 53.31 67.19Q53 67 52.75 66.88L52.75 66.88L52.25 66.63Q51.88 66.38 51.50 66.19Q51.13 66 50.75 65.75L50.75 65.75L50.25 65.38Q50 65.25 49.75 65.06Q49.50 64.88 49.25 64.63L49.25 64.63L48.88 64.38Q48.63 64.25 48.31 64.06Q48 63.88 47.75 63.63L47.75 63.63L47.38 63.25Q47.13 63.13 46.88 62.94Q46.63 62.75 46.38 62.63L46.38 62.63L46 62.25Q45.63 62 45.38 61.75Q45.13 61.50 44.75 61.25L44.75 61.25L44.63 61.13Q44.38 60.88 44.06 60.56Q43.75 60.25 43.38 60L43.38 60L43 59.63Q42.88 59.50 42.63 59.25Q42.38 59 42.13 58.75L42.13 58.75L41.75 58.50Q41.50 58.13 41.25 57.88Q41 57.63 40.75 57.25L40.75 57.25L40.63 57.25Q40.38 56.88 40.13 56.56Q39.88 56.25 39.50 56L39.50 56L39.25 55.63Q39 55.38 38.81 55.13Q38.63 54.88 38.50 54.63L38.50 54.63L38.13 54.25Q37.88 54 37.69 53.69Q37.50 53.38 37.25 53L37.25 53Q34.13 48.75 32.13 43.88L32.13 43.88Q30 38.88 29.31 33.69Q28.63 28.50 29.38 23.25L29.38 23.25Q30.13 18 32.63 13.13L32.63 13.13L26.63 20.63Q21 28.75 21.25 38.63Q21.50 48.50 25.88 57.13L25.88 57.13L26.25 58L26.50 58.50L26.75 58.75L27 59.38Q27.13 59.63 27.25 59.81Q27.38 60 27.50 60.25L27.50 60.25L27.88 60.75Q28 61 28.19 61.25Q28.38 61.50 28.50 61.75L28.50 61.75L28.75 62.25Q29 62.63 29.25 62.94Q29.50 63.25 29.75 63.63L29.75 63.63L29.75 63.63L29.88 63.88Q30.13 64.13 30.31 64.38Q30.50 64.63 30.75 64.88L30.75 64.88L31 65.38Q31.25 65.63 31.44 65.81Q31.63 66 31.88 66.25L31.88 66.25L32.13 66.63Q32.38 67 32.63 67.31Q32.88 67.63 33.25 67.88L33.25 67.88L33.25 67.88L33.25 68Q33.50 68.25 33.81 68.56Q34.13 68.88 34.38 69.13L34.38 69.13L34.75 69.50Q35 69.75 35.19 69.94Q35.38 70.13 35.63 70.38L35.63 70.38L36 70.75Q36.25 71 36.56 71.25Q36.88 71.50 37.13 71.75L37.13 71.75L37.25 71.75L37.38 72Q37.63 72.25 37.94 72.50Q38.25 72.75 38.50 72.88L38.50 72.88L39 73.25Q39.25 73.50 39.44 73.69Q39.63 73.88 39.88 74L39.88 74L40.38 74.38Q40.63 74.50 40.88 74.69Q41.13 74.88 41.38 75.13L41.38 75.13L41.88 75.50Q42.13 75.63 42.38 75.81Q42.63 76 42.88 76.13L42.88 76.13L43.25 76.38Q43.75 76.63 44.13 76.88Q44.50 77.13 44.88 77.38L44.88 77.38L45.25 77.63Q45.63 77.75 45.88 77.94Q46.13 78.13 46.50 78.25L46.50 78.25L48 79ZM51.63 42.25L51.63 42.25Q52.25 43.13 52.94 44.06Q53.63 45 54.50 45.75L54.50 45.75Q54.75 46.13 55.06 46.44Q55.38 46.75 55.75 47L55.75 47L56 47.38Q56.38 47.63 56.69 47.94Q57 48.25 57.25 48.50L57.25 48.50L57.38 48.50L57.38 48.50Q57.75 48.88 58.06 49.19Q58.38 49.50 58.75 49.75L58.75 49.75L59.13 50Q59.50 50.25 59.88 50.56Q60.25 50.88 60.63 51.13L60.63 51.13L60.75 51.13L61.38 51.63L61.75 51.88Q62 52 62.31 52.19Q62.63 52.38 62.88 52.50L62.88 52.50L63 52.63Q63.25 52.75 63.50 52.94Q63.75 53.13 64 53.25L64 53.25L64.38 53.38L65.13 53.75L65.25 53.75Q65.50 54 65.88 54.19Q66.25 54.38 66.63 54.50L66.63 54.50L67 54.63Q67.25 54.75 67.56 54.88Q67.88 55 68.13 55.13L68.13 55.13L68.75 55.25Q69 55.38 69.25 55.50Q69.50 55.63 69.75 55.63L69.75 55.63L70.25 55.88Q70.75 56 71.13 56.13Q71.50 56.25 71.88 56.25L71.88 56.25Q82.50 58 89.25 55.63L89.25 55.63Q96 53.13 99.88 49.50Q103.75 45.88 105.13 42.50L105.13 42.50Q106.63 39.25 106.63 39.25L106.63 39.25Q102.25 45.63 94.31 48.31Q86.38 51 77.25 48.63L77.25 48.63Q76.88 48.50 76.44 48.38Q76 48.25 75.63 48.13L75.63 48.13L75.13 48Q74.88 47.88 74.63 47.75Q74.38 47.63 74 47.63L74 47.63L73.50 47.38Q73.25 47.25 72.94 47.13Q72.63 47 72.38 46.88L72.38 46.88L72 46.75Q71.63 46.63 71.25 46.44Q70.88 46.25 70.50 46.13L70.50 46.13L69.75 45.75L69.38 45.50Q69.13 45.38 68.88 45.25Q68.63 45.13 68.50 45L68.50 45L68.25 44.88Q67.88 44.63 67.63 44.50Q67.38 44.38 67.13 44.13L67.13 44.13L66.75 43.88L66 43.38Q65.63 43.13 65.25 42.88Q64.88 42.63 64.50 42.38L64.50 42.38L64.13 42Q60.13 38.88 57.13 34.69Q54.13 30.50 52.63 25.63L52.63 25.63Q51 20.63 51.44 15.19Q51.88 9.75 54.63 5.13L54.63 5.13L50.13 11.50Q46 17.38 46 24.69Q46 32 49.25 38.25L49.25 38.25Q49.75 39.25 50.38 40.25Q51 41.25 51.63 42.25L51.63 42.25ZM81.38 32.50L81.38 32.50L82.13 32.75L82.38 32.88Q82.63 32.88 82.88 33Q83.13 33.13 83.38 33.13L83.38 33.13Q95.13 35.38 99.31 30.06Q103.50 24.75 104.38 23.50L104.38 23.50Q101.63 27.50 97.06 28.56Q92.50 29.63 86.75 28.25L86.75 28.25Q86.38 28.13 85.88 28Q85.38 27.88 85 27.75L85 27.75Q84.38 27.50 83.81 27.25Q83.25 27 82.75 26.75L82.75 26.75Q81.75 26.25 80.75 25.69Q79.75 25.13 78.88 24.50L78.88 24.50Q73.75 20.50 71.38 13.94Q69 7.38 72.25 1.25L72.25 1.25L69.88 4.63Q67.50 8.25 67.19 12.44Q66.88 16.63 68.63 20.50L68.63 20.50Q70.38 24.63 73.75 27.81Q77.13 31 81.38 32.50L81.38 32.50ZM66.38 96.25L66.38 96.25L62.13 96.25Q62 96.25 61.81 96.38Q61.63 96.50 61.63 96.75L61.63 96.75L58.63 110.63Q58.63 110.75 58.44 110.88Q58.25 111 58.13 111L58.13 111L55.13 111Q52.88 111 52.75 109.63Q52.63 108.25 53.13 106.13L53.13 106.13L53.13 106.13L53.13 105.75L53.25 105.63L53.38 104.88L53.50 104.13L53.63 103.38L54.25 100L55 96.75Q55 96.50 54.94 96.38Q54.88 96.25 54.63 96.25L54.63 96.25L50.38 96.25Q50.13 96.25 50 96.38Q49.88 96.50 49.75 96.75L49.75 96.75L48.88 101.13L47.88 105.50L47.88 105.63L47.88 106Q47 109.63 47.75 112.63Q48.50 115.63 52.88 115.75L52.88 115.75L53.13 115.75L62.25 115.75Q62.38 115.75 62.56 115.63Q62.75 115.50 62.75 115.25L62.75 115.25L66.75 96.75Q66.75 96.50 66.63 96.38Q66.50 96.25 66.38 96.25L66.38 96.25ZM21.13 96.25L21.13 96.25L16.50 96.25Q16.25 96.25 16.13 96.38Q16 96.50 16 96.63L16 96.63L15 100.50Q15 100.75 15.13 100.88Q15.25 101 15.38 101L15.38 101L20.13 101Q20.25 101 20.38 100.88Q20.50 100.75 20.63 100.50L20.63 100.50L21.50 96.63Q21.50 96.50 21.38 96.38Q21.25 96.25 21.13 96.25L21.13 96.25ZM19.75 102.25L19.75 102.25L15.13 102.25Q14.88 102.25 14.75 102.38Q14.63 102.50 14.50 102.75L14.50 102.75L13.88 105.63L13.25 108.50L13.13 109.38L12.38 112.38L11.75 115.25Q11.75 115.50 11.69 115.75Q11.63 116 11.63 116.13L11.63 116.13Q11.63 116.13 11 117.44Q10.38 118.75 9.25 118.75L9.25 118.75L9 118.63L7.75 118.63Q7.63 118.63 7.44 118.75Q7.25 118.88 7.25 119.13L7.25 119.13L6.75 121.13L6.25 123.13Q6.25 123.38 6.31 123.50Q6.38 123.63 6.63 123.63L6.63 123.63Q7.25 123.63 8.44 123.63Q9.63 123.63 10.50 123.63L10.50 123.63Q13.25 123.63 14.81 121.88Q16.38 120.13 17.25 115.75L17.25 115.75L20.13 102.75Q20.13 102.50 20 102.38Q19.88 102.25 19.75 102.25ZM105.88 100.75L105.88 100.75L105.63 99.88L105.50 99.13L105.38 98.63Q105.13 97.63 104.19 97Q103.25 96.38 101.50 96.38L101.50 96.38L90.38 96.38Q90.13 96.38 90 96.50Q89.88 96.63 89.75 96.75L89.75 96.75L89.63 97.63L89.38 98.50L89.38 98.75L86 114.88Q85.88 115 85.88 115.19Q85.88 115.38 85.88 115.50L85.88 115.50Q85.88 115.63 86.19 115.69Q86.50 115.75 86.63 115.75L86.63 115.75L90.13 115.75Q90.38 115.75 90.56 115.69Q90.75 115.63 90.75 115.63L90.75 115.63Q90.88 115.63 91 115.31Q91.13 115 91.13 114.88L91.13 114.88L91.75 111.75L92.38 108.63L92.50 108.25L94 101.50Q94 101.38 94.13 101.25Q94.25 101.13 94.50 101.13L94.50 101.13L105.50 101.13Q105.75 101.13 105.81 101Q105.88 100.88 105.88 100.75L105.88 100.75ZM120.13 93.50L120.13 93.50L119.25 93.50L115.75 93.50Q115.63 93.50 115.38 93.56Q115.13 93.63 115.13 93.88L115.13 93.88L107.25 105.38Q107.13 105.50 107 105.50Q106.88 105.50 106.88 105.25L106.88 105.25L106.38 102.75Q106.25 102.63 106.13 102.50Q106 102.38 105.75 102.38L105.75 102.38L100.75 102.38Q100.63 102.38 100.50 102.44Q100.38 102.50 100.50 102.75L100.50 102.75L102.75 110.63Q102.75 110.88 102.75 111.06Q102.75 111.25 102.75 111.50L102.75 111.50L101.75 115.25Q101.63 115.50 101.75 115.63Q101.88 115.75 102 115.75L102 115.75L107 115.75Q107.25 115.75 107.38 115.63Q107.50 115.50 107.63 115.25L107.63 115.25L108.50 111.50Q108.63 111.25 108.69 111.06Q108.75 110.88 108.88 110.75L108.88 110.75L121.63 93.75Q121.75 93.63 121.69 93.56Q121.63 93.50 121.50 93.50L121.50 93.50L120.13 93.50ZM80.13 103.38L80.13 103.38L80.13 103.38Q80 103.63 79.88 103.75Q79.75 103.88 79.63 103.88L79.63 103.88L73.13 103.88Q73 103.88 72.94 103.75Q72.88 103.63 72.88 103.50L72.88 103.50L72.88 103.50L72.88 103.50L72.88 103.50L72.88 103.38Q73.38 102.13 74.38 101.38Q75.38 100.63 77.13 100.63L77.13 100.63Q79.13 100.63 79.69 101.44Q80.25 102.25 80.13 103.38L80.13 103.38ZM78.13 96L78.13 96Q72 96 69.88 99.13Q67.75 102.25 66.88 106L66.88 106Q66.13 109.88 67.13 112.94Q68.13 116 74.38 116L74.38 116L76.88 116Q78.50 115.88 80 115.88Q81.50 115.88 82.25 115.88L82.25 115.88Q82.38 115.88 82.56 115.75Q82.75 115.63 82.75 115.50L82.75 115.50L83.13 113.50L83.50 111.50Q83.63 111.25 83.50 111.13Q83.38 111 83.25 111L83.25 111L75.63 111Q73.25 111 72.50 110.31Q71.75 109.63 72 107.88L72 107.88L84.13 107.88Q84.38 107.88 84.50 107.81Q84.63 107.75 84.63 107.50L84.63 107.50L84.63 107.50L84.63 107.50Q86 102.38 85 99.19Q84 96 78.13 96L78.13 96ZM39.38 103.38L39.38 103.38L39.25 103.75L39.25 103.75L37.38 110.38Q37.38 110.50 37.19 110.63Q37 110.75 36.88 110.75L36.88 110.75L32 110.75Q29.25 110.75 28.44 108.75Q27.63 106.75 28.25 103.50L28.25 103.50Q29 100.25 30.44 98.31Q31.88 96.38 34.63 96.25L34.63 96.25Q38.38 95.88 39.31 98.13Q40.25 100.38 39.38 103.38L39.38 103.38ZM42.75 110.50L42.75 110.50Q42.75 110.50 43.94 107.31Q45.13 104.13 45.50 101.63L45.50 101.63Q46.13 98.38 44.06 94.75Q42 91.13 35.75 91.13L35.75 91.13Q29.50 91.13 26.50 94.88Q23.50 98.63 22.50 103.50L22.50 103.50Q21.38 108.50 23.19 112.19Q25 115.88 31.13 115.75L31.13 115.75L43.75 115.75Q43.88 115.75 44.06 115.63Q44.25 115.50 44.25 115.38L44.25 115.38L45.38 111.25Q45.38 111.13 45.31 111Q45.25 110.88 45 110.88L45 110.88L43 110.88Q42.88 110.88 42.75 110.81Q42.63 110.75 42.75 110.63L42.75 110.63L42.75 110.50ZM83.88 106.75L83.88 106.75Q83.88 106.88 83.75 106.94Q83.63 107 83.63 107L83.63 107Q83.50 107 83.38 106.94Q83.25 106.88 83.25 106.75L83.25 106.75Q83.25 106.63 83.38 106.56Q83.50 106.50 83.63 106.50L83.63 106.50Q83.63 106.50 83.75 106.56Q83.88 106.63 83.88 106.75Z"/></svg>