<svg xmlns="http://www.w3.org/2000/svg" xmlns:xlink="http://www.w3.org/1999/xlink" width="199.75" height="128"><path fill="#000000" d="M170.88 35.75L170.88 35.75Q170.75 35.75 170.69 35.75Q170.63 35.75 170.50 35.75L170.50 35.75Q169.13 35.75 167.88 36.25Q166.63 36.75 165.63 37.63L165.63 37.63L165.63 37.63Q164.63 38.63 164 39.88Q163.38 41.13 163.38 42.63L163.38 42.63L163.38 42.63Q163.25 45.63 165.31 47.81Q167.38 50 170.38 50.13L170.38 50.13Q170.38 50.13 170.44 50.13Q170.50 50.13 170.63 50.13L170.63 50.13Q172 50.13 173.31 49.63Q174.63 49.13 175.50 48.13L175.50 48.13L175.50 48.13Q176.50 47.25 177.13 45.94Q177.75 44.63 177.88 43.25L177.88 43.25L177.88 43.13Q177.88 40.25 175.88 38.06Q173.88 35.88 170.88 35.75L170.88 35.75ZM172 43.63L172 43.63Q170.63 43.63 169.69 43Q168.75 42.38 168.75 41.50L168.75 41.50Q168.75 40.63 169.69 40Q170.63 39.38 172 39.38L172 39.38Q173.38 39.38 174.31 40Q175.25 40.63 175.25 41.50L175.25 41.50Q175.25 42.38 174.31 43Q173.38 43.63 172 43.63ZM188.88 52.13L188.88 52.13Q189 52.13 189.06 52.06Q189.13 52 189.13 51.88L189.13 51.88Q188.75 50 186.50 43.31Q184.25 36.63 182.13 34.50L182.13 34.50Q181.50 33.88 180.94 33.31Q180.38 32.75 179.38 32.13L179.38 32.13Q175.63 30 169.75 28.25L169.75 28.25Q163.75 26.38 158.13 25.19Q152.50 24 148.38 23.25L148.38 23.25Q144.13 22.63 143.75 22.50L143.75 22.50Q143.75 22.50 143.69 22.50Q143.63 22.50 143.50 22.63L143.50 22.63Q143.50 22.63 143.50 22.69Q143.50 22.75 143.50 22.75L143.50 22.75L143.38 28.25Q142.38 28 138.88 26.88L138.88 26.88Q135.25 25.88 130.06 24.63Q124.88 23.38 118.63 22.38L118.63 22.38Q112.25 21.38 105.88 21.13L105.88 21.13Q100.50 21 94 20.88L94 20.88Q87.38 20.75 79.50 21.94Q71.63 23.13 62.50 26.25L62.50 26.25Q53.38 29.38 43 35.63L43 35.63L42.25 36.13Q32.38 42.13 25.69 49.56Q19 57 15.50 65.63L15.50 65.63Q14.38 68.38 13.44 73.88Q12.50 79.38 14 85.13L14 85.13Q14.63 87.63 15.81 90.13Q17 92.63 18.50 94.88L18.50 94.88Q22.13 100 27.88 103.25Q33.63 106.50 40.13 107L40.13 107Q49.38 107.88 55.94 104Q62.50 100.13 65 92.50L65 92.50Q66.63 87.13 64.69 80.44Q62.75 73.75 56.25 69.75L56.25 69.75Q51 66.63 45.75 66.94Q40.50 67.25 37.13 69.38L37.13 69.38Q34.25 71.25 32.69 74.06Q31.13 76.88 31.13 80.13L31.13 80.13Q31.25 85.75 35.19 88.75Q39.13 91.75 42.63 91.75L42.63 91.75Q43.75 91.75 44.81 91.56Q45.88 91.38 47 91L47 91Q47.38 90.88 47.81 90.75Q48.25 90.63 48.63 90.25L48.63 90.25L48.88 90.25L49 90.13L48.88 90.13Q49.75 89.63 50.19 88.81Q50.63 88 50.63 87L50.63 87L50.63 87Q50.63 86.63 50.63 86.38Q50.63 86.13 50.50 85.88L50.50 85.88Q50.13 84.38 48.81 83.63Q47.50 82.88 46 83.13L46 83.13L45.75 83.25L45.38 83.38L44.88 83.50Q44 83.75 43.44 83.75Q42.88 83.75 42.75 83.75L42.75 83.75Q42.38 83.75 40.94 83Q39.50 82.25 39.50 80L39.50 80L39.50 79.88Q39.50 79.13 39.75 78.56Q40 78 40.13 77.63L40.13 77.63Q40.75 76.63 42.44 75.88Q44.13 75.13 46.50 75.25L46.50 75.25Q49.63 75.63 51.88 77.19Q54.13 78.75 55.63 81.75L55.63 81.75Q57 84.50 56.69 87.63Q56.38 90.75 54.38 93.25L54.38 93.25Q52.50 95.75 49.13 96.75Q45.75 97.75 41.13 97.38L41.13 97.38Q36.50 96.88 32.75 94.31Q29 91.75 26.88 87.75L26.88 87.75Q24.75 83.75 24.63 79.31Q24.50 74.88 26.50 71.13L26.50 71.13Q31.13 62.50 38.56 61.19Q46 59.88 50.88 60.75L50.88 60.75Q58 62 65.13 67.81Q72.25 73.63 75.13 81.13L75.13 81.13Q75.63 82.38 75.88 83.38Q76.13 84.38 76.38 85.25L76.38 85.25L76.75 87L87.50 92.13Q87.75 92.25 87.81 92.25Q87.88 92.25 88 92.25L88 92.25Q88 92.13 88 92.06Q88 92 88 92L88 92Q88 91.75 87.88 91.25Q87.75 90.75 87.50 88.50L87.50 88.50Q87.38 86.50 87.63 82.13Q87.88 77.75 90.63 75L90.63 75Q91.63 74 93.13 73.13Q94.63 72.25 95.88 71.88L95.88 71.88Q101.25 70.63 107.25 72.13Q113.25 73.63 119.13 80.38L119.13 80.38Q122.13 83.88 123.75 85.63Q125.38 87.38 126.13 88.13L126.13 88.13Q126.13 88.13 126.25 88.19Q126.38 88.25 126.50 88.38L126.50 88.38Q126.63 88.50 126.69 88.56Q126.75 88.63 126.88 88.75L126.88 88.75Q127.13 88.88 133.75 91.88Q140.38 94.88 140.38 94.88L140.38 94.88Q140.38 94.88 140.44 94.88Q140.50 94.88 140.63 94.75L140.63 94.75Q140.75 94.75 140.69 94.63Q140.63 94.50 140.63 94.50L140.63 94.50Q140.63 94.50 136.63 88.13Q132.63 81.75 133.75 75.13L133.75 75.13Q134.63 70 138.50 69.56Q142.38 69.13 148.25 69.75L148.25 69.75Q150.13 70 152.19 70.19Q154.25 70.38 156.50 70.38L156.50 70.38Q162.75 70.50 168.88 69.44Q175 68.38 179.13 66.63L179.13 66.63Q181.88 65.50 183.63 64.63Q185.38 63.75 186.38 62.75L186.38 62.75Q186.75 62.50 187 62Q187.25 61.50 187.50 61L187.50 61L187.63 60.50Q187.88 60 188.06 59.25Q188.25 58.50 188.38 57.88L188.38 57.88Q188.38 57.75 188.38 57.50Q188.38 57.25 188.25 57.13L188.25 57.13Q188.13 57 187.81 57.13Q187.50 57.25 187.50 57.25L187.50 57.25Q185.63 58.38 181.63 59.94Q177.63 61.50 173.38 61.50L173.38 61.50Q168.13 61.63 160 58Q151.88 54.38 150.75 53.75L150.75 53.75Q150 52 149.31 50.31Q148.63 48.63 147.88 46.88L147.88 46.88Q155.38 51.75 161.69 54.50Q168 57.25 172.75 57.63L172.75 57.63Q178.13 58.13 182.13 56.06Q186.13 54 188 52.88L188 52.88Q188.25 52.63 188.50 52.50Q188.75 52.38 188.88 52.13L188.88 52.13ZM160.13 42.63L160.13 42.63Q160.25 40.50 161.13 38.69Q162 36.88 163.50 35.50L163.50 35.50L163.50 35.50Q164.88 34.25 166.69 33.50Q168.50 32.75 170.50 32.75L170.50 32.75Q170.63 32.75 170.75 32.75Q170.88 32.75 170.88 32.75L170.88 32.75L170.88 32.75Q175.25 32.88 178.19 36Q181.13 39.13 181 43.38L181 43.38Q180.88 45.50 180 47.38Q179.13 49.25 177.63 50.50L177.63 50.50L177.63 50.50Q176.25 51.88 174.44 52.56Q172.63 53.25 170.63 53.25L170.63 53.25Q170.50 53.25 170.38 53.25Q170.25 53.25 170.13 53.25L170.13 53.25L170.13 53.25Q165.88 53.13 162.94 50Q160 46.88 160.13 42.63L160.13 42.63ZM144.38 90.38L144.38 90.38Q145.38 90.38 146 91Q146.63 91.63 146.63 92.63L146.63 92.63Q146.63 93.50 146 94.19Q145.38 94.88 144.38 94.88L144.38 94.88Q144.38 94.88 144.38 94.88Q144.38 94.88 144.38 94.88L144.38 94.88Q143.38 94.88 142.75 94.19Q142.13 93.50 142.13 92.63L142.13 92.63Q142.13 92.63 142.13 92.63Q142.13 92.63 142.13 92.63L142.13 92.63L142.13 92.63Q142.13 91.63 142.75 91Q143.38 90.38 144.38 90.38L144.38 90.38ZM144.38 90.63L144.38 90.63Q143.63 90.63 143.06 91.19Q142.50 91.75 142.50 92.63L142.50 92.63Q142.50 93.38 143.06 93.94Q143.63 94.50 144.38 94.50L144.38 94.50Q145.13 94.50 145.69 93.94Q146.25 93.38 146.25 92.63L146.25 92.63Q146.25 91.75 145.69 91.19Q145.13 90.63 144.38 90.63L144.38 90.63ZM144 92.88L144 93.88L143.50 93.88L143.50 91.38Q143.75 91.38 143.88 91.38Q144 91.38 144.25 91.38L144.25 91.38Q144.50 91.38 144.75 91.38Q145 91.38 145 91.50L145 91.50Q145.13 91.63 145.19 91.75Q145.25 91.88 145.25 92L145.25 92Q145.25 92.25 145.13 92.44Q145 92.63 144.75 92.63L144.75 92.63L144.75 92.63Q145 92.75 145.06 92.88Q145.13 93 145.25 93.25L145.25 93.25Q145.25 93.63 145.31 93.75Q145.38 93.88 145.38 93.88L145.38 93.88L145 93.88Q144.88 93.88 144.88 93.69Q144.88 93.50 144.75 93.25L144.75 93.25Q144.75 93 144.63 92.94Q144.50 92.88 144.25 92.88L144.25 92.88L144 92.88ZM144 91.63L144 92.50L144.25 92.50Q144.50 92.50 144.69 92.44Q144.88 92.38 144.88 92.13L144.88 92.13Q144.88 91.88 144.75 91.75Q144.63 91.63 144.25 91.63L144.25 91.63Q144.13 91.63 144.06 91.63Q144 91.63 144 91.63L144 91.63Z"/></svg>