<svg xmlns="http://www.w3.org/2000/svg" xmlns:xlink="http://www.w3.org/1999/xlink" width="199.75" height="128"><path fill="#000000" d="M170.88 20.75L170.88 20.75Q170.75 20.75 170.69 20.75Q170.63 20.75 170.50 20.75L170.50 20.75Q169.13 20.75 167.88 21.25Q166.63 21.75 165.63 22.63L165.63 22.63L165.63 22.63Q164.63 23.63 164 24.94Q163.38 26.25 163.38 27.63L163.38 27.63Q163.25 30.63 165.31 32.81Q167.38 35 170.38 35.13L170.38 35.13Q170.38 35.13 170.44 35.13Q170.50 35.13 170.63 35.13L170.63 35.13Q172 35.13 173.31 34.63Q174.63 34.13 175.50 33.13L175.50 33.13L175.50 33.13Q176.50 32.25 177.13 30.94Q177.75 29.63 177.88 28.13L177.88 28.13L177.88 28.13Q177.88 25.25 175.88 23.06Q173.88 20.88 170.88 20.75L170.88 20.75ZM172 28.63L172 28.63Q170.63 28.63 169.69 28Q168.75 27.38 168.75 26.50L168.75 26.50Q168.75 25.63 169.69 25Q170.63 24.38 172 24.38L172 24.38Q173.38 24.38 174.31 25Q175.25 25.63 175.25 26.50L175.25 26.50Q175.25 27.38 174.31 28Q173.38 28.63 172 28.63L172 28.63ZM188.88 37.13L188.88 37.13Q189 37.13 189.06 37.06Q189.13 37 189.13 36.88L189.13 36.88Q188.75 35 186.50 28.31Q184.25 21.63 182.13 19.50L182.13 19.50Q181.50 18.88 180.94 18.31Q180.38 17.75 179.38 17.13L179.38 17.13Q175.63 15 169.75 13.25L169.75 13.25Q163.75 11.38 158.13 10.19Q152.50 9 148.38 8.25L148.38 8.25Q144.13 7.63 143.75 7.50L143.75 7.50Q143.75 7.50 143.69 7.50Q143.63 7.50 143.50 7.63L143.50 7.63Q143.50 7.63 143.50 7.69Q143.50 7.75 143.50 7.75L143.50 7.75L143.38 13.25Q142.38 13 138.88 11.88L138.88 11.88Q135.25 10.88 130.06 9.63Q124.88 8.38 118.63 7.38L118.63 7.38Q112.25 6.38 105.88 6.13L105.88 6.13Q100.50 5.88 94 5.75L94 5.75Q87.38 5.63 79.50 6.81Q71.63 8 62.50 11.25L62.50 11.25Q53.38 14.38 43 20.63L43 20.63L42.25 21.13Q32.38 27.13 25.69 34.56Q19 42 15.50 50.63L15.50 50.63Q14.38 53.38 13.44 58.88Q12.50 64.38 14 70.13L14 70.13Q14.63 72.63 15.81 75.13Q17 77.63 18.50 79.88L18.50 79.88Q22.13 85 27.88 88.25Q33.63 91.50 40.13 92L40.13 92Q49.38 92.88 55.94 89Q62.50 85.13 65 77.50L65 77.50Q66.63 72.13 64.69 65.44Q62.75 58.75 56.25 54.75L56.25 54.75Q51 51.63 45.75 51.94Q40.50 52.25 37.13 54.38L37.13 54.38Q34.25 56.25 32.69 59.06Q31.13 61.88 31.13 65.13L31.13 65.13Q31.25 70.75 35.19 73.75Q39.13 76.75 42.63 76.75L42.63 76.75Q43.75 76.75 44.81 76.56Q45.88 76.38 47 76L47 76Q47.38 75.88 47.81 75.69Q48.25 75.50 48.63 75.25L48.63 75.25L48.88 75.13L49 75.13L48.88 75.13Q49.75 74.63 50.19 73.75Q50.63 72.88 50.63 71.88L50.63 71.88Q50.63 71.63 50.63 71.38Q50.63 71.13 50.50 70.88L50.50 70.88Q50.13 69.63 49.13 68.88Q48.13 68.13 46.75 68.13L46.75 68.13Q46.63 68.13 46.44 68.13Q46.25 68.13 46 68.13L46 68.13L46 68.13L45.75 68.25L45.38 68.25L44.88 68.50Q44 68.75 43.44 68.75Q42.88 68.75 42.75 68.75L42.75 68.75Q42.38 68.75 40.94 68Q39.50 67.25 39.50 65L39.50 65L39.50 64.88Q39.50 64.13 39.75 63.56Q40 63 40.13 62.63L40.13 62.63Q40.75 61.63 42.44 60.88Q44.13 60.13 46.50 60.25L46.50 60.25Q49.63 60.50 51.88 62.13Q54.13 63.75 55.63 66.75L55.63 66.75Q57 69.50 56.69 72.63Q56.38 75.75 54.38 78.25L54.38 78.25Q52.50 80.75 49.13 81.75Q45.75 82.75 41.13 82.25L41.13 82.25Q36.50 81.75 32.75 79.25Q29 76.75 26.88 72.63L26.88 72.63Q24.75 68.63 24.63 64.19Q24.50 59.75 26.50 56.13L26.50 56.13Q31.13 47.50 38.56 46.19Q46 44.88 50.88 45.75L50.88 45.75Q58 47 65.13 52.81Q72.25 58.63 75.13 66.13L75.13 66.13Q75.63 67.38 75.88 68.38Q76.13 69.38 76.38 70.25L76.38 70.25L76.75 72L87.50 77.13Q87.75 77.25 87.81 77.25Q87.88 77.25 88 77.25L88 77.25Q88 77.13 88 77Q88 76.88 88 76.88L88 76.88Q88 76.75 87.88 76.25Q87.75 75.75 87.50 73.50L87.50 73.50Q87.38 71.50 87.63 67.06Q87.88 62.63 90.63 60L90.63 60Q91.63 58.88 93.13 58.06Q94.63 57.25 95.88 56.88L95.88 56.88Q101.25 55.63 107.25 57.13Q113.25 58.63 119.13 65.38L119.13 65.38Q122.13 68.88 123.75 70.63Q125.38 72.38 126.13 73.13L126.13 73.13Q126.13 73.13 126.25 73.19Q126.38 73.25 126.50 73.38L126.50 73.38Q126.63 73.50 126.69 73.56Q126.75 73.63 126.88 73.63L126.88 73.63Q127.13 73.88 133.75 76.88Q140.38 79.88 140.38 79.88L140.38 79.88Q140.38 79.88 140.44 79.88Q140.50 79.88 140.63 79.75L140.63 79.75Q140.75 79.63 140.69 79.56Q140.63 79.50 140.63 79.50L140.63 79.50Q140.63 79.38 136.63 73Q132.63 66.63 133.75 60.13L133.75 60.13Q134.63 55 138.50 54.56Q142.38 54.13 148.25 54.75L148.25 54.75Q150.13 55 152.19 55.19Q154.25 55.38 156.50 55.38L156.50 55.38Q162.75 55.50 168.88 54.44Q175 53.38 179.13 51.63L179.13 51.63Q181.88 50.50 183.63 49.63Q185.38 48.75 186.38 47.75L186.38 47.75Q186.75 47.50 187 47Q187.25 46.50 187.50 45.88L187.50 45.88L187.63 45.50Q187.88 45 188.06 44.19Q188.25 43.38 188.38 42.88L188.38 42.88Q188.38 42.75 188.38 42.50Q188.38 42.25 188.25 42.13L188.25 42.13Q188.13 42 187.81 42.13Q187.50 42.25 187.50 42.25L187.50 42.25Q185.63 43.38 181.63 44.94Q177.63 46.50 173.38 46.50L173.38 46.50Q168.13 46.63 160 43Q151.88 39.38 150.75 38.75L150.75 38.75Q150 37 149.31 35.31Q148.63 33.63 147.88 31.88L147.88 31.88Q155.38 36.75 161.69 39.50Q168 42.25 172.75 42.63L172.75 42.63Q178.13 43.13 182.13 41.06Q186.13 39 188 37.88L188 37.88Q188.25 37.63 188.50 37.50Q188.75 37.38 188.88 37.13L188.88 37.13ZM160.13 27.63L160.13 27.63Q160.25 25.50 161.13 23.69Q162 21.88 163.50 20.50L163.50 20.50L163.50 20.50Q165 19 166.94 18.31Q168.88 17.63 170.88 17.75L170.88 17.75Q175.25 17.88 178.19 21Q181.13 24.13 181 28.38L181 28.38Q180.88 30.50 180 32.31Q179.13 34.13 177.63 35.50L177.63 35.50L177.63 35.50Q176.25 36.88 174.44 37.56Q172.63 38.25 170.63 38.25L170.63 38.25Q170.50 38.25 170.38 38.25Q170.25 38.25 170.13 38.25L170.13 38.25L170.13 38.25Q165.88 38.13 162.94 35Q160 31.88 160.13 27.63L160.13 27.63ZM96.88 87.13L84.63 87.13Q81.25 87.13 79.38 89.38Q77.50 91.63 77.50 93.63L77.50 93.63L77.50 97Q77.50 100 79.50 101.69Q81.50 103.38 83.75 103.38L83.75 103.38L94.25 103.38Q95.25 103.38 95.50 103.88Q95.75 104.38 95.75 104.88L95.75 104.88L95.75 107.13Q95.75 107.25 95.56 108.31Q95.38 109.38 94.25 109.38L94.25 109.38L80 109.38Q78.88 109.38 78.19 110.06Q77.50 110.75 77.50 111.75L77.50 111.75L77.50 112.38Q77.50 113.38 78.19 114Q78.88 114.63 79.88 114.63L79.88 114.63L95 114.63Q97.88 114.63 99.69 112.75Q101.50 110.88 101.50 107.75L101.50 107.75L101.50 104.13Q101.50 101.13 99.69 99.75Q97.88 98.38 95.75 98.38L95.75 98.38L85.50 98.38Q84.25 98.38 83.75 97.69Q83.25 97 83.25 96.38L83.25 96.38L83.25 94.38Q83.25 93.50 83.88 92.94Q84.50 92.38 85.63 92.38L85.63 92.38L97 92.38Q98 92.38 98.69 91.75Q99.38 91.13 99.38 90.13L99.38 90.13L99.38 89.50Q99.38 88.50 98.69 87.81Q98 87.13 96.88 87.13L96.88 87.13ZM128.13 87.13L127.38 87.13Q126.38 87.13 125.69 87.88Q125 88.63 125 89.63L125 89.63L125 106.88Q125 108 124.25 108.69Q123.50 109.38 122.38 109.38L122.38 109.38L114.50 109.38Q113.38 109.38 112.69 108.69Q112 108 112 106.88L112 106.88L112 89.63Q112 88.63 111.25 87.88Q110.50 87.13 109.50 87.13L109.50 87.13L108.75 87.13Q108.75 87.13 108.75 87.13Q108.75 87.13 108.75 87.13L108.75 87.13Q107.75 87.13 107 87.88Q106.25 88.63 106.25 89.63L106.25 89.63Q106.25 89.63 106.25 89.63Q106.25 89.63 106.25 89.63L106.25 89.63L106.25 89.63L106.25 107.63Q106.25 110.75 108.50 112.75Q110.75 114.75 114.25 114.75L114.25 114.75L122.75 114.75Q126.13 114.75 128.38 112.75Q130.63 110.75 130.63 107.63L130.63 107.63L130.63 89.63Q130.63 88.63 129.94 87.88Q129.25 87.13 128.13 87.13L128.13 87.13ZM154.88 87.13L142.63 87.13Q139.13 87.13 137.31 89.38Q135.50 91.63 135.50 93.63L135.50 93.63L135.50 97Q135.50 100 137.50 101.69Q139.50 103.38 141.75 103.38L141.75 103.38L152.13 103.38Q153.13 103.38 153.44 103.88Q153.75 104.38 153.75 104.88L153.75 104.88L153.75 107.13Q153.75 107.25 153.56 108.31Q153.38 109.38 152.13 109.38L152.13 109.38L137.88 109.38Q136.88 109.38 136.19 110.06Q135.50 110.75 135.50 111.75L135.50 111.75L135.50 112.38Q135.50 113.38 136.19 114Q136.88 114.63 137.88 114.63L137.88 114.63L153 114.63Q155.88 114.63 157.63 112.75Q159.38 110.88 159.38 107.75L159.38 107.75L159.38 104.13Q159.38 101.13 157.63 99.75Q155.88 98.38 153.75 98.38L153.75 98.38L143.50 98.38Q142.25 98.38 141.69 97.69Q141.13 97 141.13 96.38L141.13 96.38L141.13 94.38Q141.13 93.50 141.75 92.94Q142.38 92.38 143.50 92.38L143.50 92.38L155 92.38Q156 92.38 156.69 91.75Q157.38 91.13 157.38 90.13L157.38 90.13L157.38 89.50Q157.38 88.50 156.69 87.81Q156 87.13 154.88 87.13L154.88 87.13ZM164.25 89.50L164.25 89.50L164.25 112.38Q164.25 113.38 164.94 114Q165.63 114.63 166.63 114.63L166.63 114.63L185 114.63Q186.13 114.63 186.81 114Q187.50 113.38 187.50 112.38L187.50 112.38L187.50 111.75Q187.50 110.75 186.81 110.06Q186.13 109.38 185 109.38L185 109.38L169.88 109.38L169.88 103.63L181 103.63Q182 103.63 182.69 102.94Q183.38 102.25 183.38 101.25L183.38 101.25L183.38 100.63Q183.38 99.63 182.69 99Q182 98.38 181 98.38L181 98.38L169.88 98.38L169.88 92.38L184.25 92.38Q185.25 92.38 185.94 91.75Q186.63 91.13 186.63 90.13L186.63 90.13L186.63 89.50Q186.63 88.50 185.94 87.81Q185.25 87.13 184.25 87.13L184.25 87.13L166.63 87.13Q165.63 87.13 164.94 87.81Q164.25 88.50 164.25 89.50L164.25 89.50ZM15.50 98L10.25 98Q8.50 98 7.25 99.19Q6 100.38 6 102L6 102L6 110.63Q6 112.25 7.19 113.44Q8.38 114.63 10 114.63L10 114.63L15.75 114.63Q17.38 114.63 18.56 113.44Q19.75 112.25 19.75 110.63L19.75 110.63L19.75 102Q19.75 100.38 18.50 99.19Q17.25 98 15.50 98L15.50 98ZM9 110.25L9 110.25L9 102.38Q9 101.75 9.50 101.25Q10 100.75 10.63 100.75L10.63 100.75L15.13 100.75Q15.75 100.75 16.25 101.25Q16.75 101.75 16.75 102.38L16.75 102.38L16.75 110.25Q16.75 111 16.25 111.50Q15.75 112 15.13 112L15.13 112L10.63 112Q10 112 9.50 111.50Q9 111 9 110.25L9 110.25ZM33 98L32.50 98Q31.25 98 30.31 98.31Q29.38 98.63 28.63 99L28.63 99Q28.25 99.25 27.88 99.38Q27.50 99.50 27.13 99.50L27.13 99.50Q27 99.50 26.88 99.44Q26.75 99.38 26.75 99.25L26.75 99.25L26.38 98.63Q26.25 98.38 26 98.19Q25.75 98 25.38 98L25.38 98L25.38 98L24.88 98Q24.50 98 24.19 98.31Q23.88 98.63 23.88 99.13L23.88 99.13L23.88 121Q23.88 121.50 24.25 121.88Q24.63 122.25 25.13 122.25L25.13 122.25L25.63 122.25Q25.63 122.25 25.63 122.25Q25.63 122.25 25.63 122.25L25.63 122.25Q26.13 122.25 26.50 121.88Q26.88 121.50 26.88 121L26.88 121L26.88 113.75Q26.88 113.50 26.94 113.38Q27 113.25 27.13 113.25L27.13 113.25Q27.50 113.25 27.88 113.44Q28.25 113.63 28.63 113.75L28.63 113.75Q29.38 114.13 30.31 114.44Q31.25 114.75 32.50 114.75L32.50 114.75L33 114.75Q35.13 114.75 36.38 113.63Q37.63 112.50 37.63 110.50L37.63 110.50L37.63 102.13Q37.63 100.25 36.38 99.13Q35.13 98 33 98L33 98ZM26.88 110.13L26.88 110.13L26.88 102.63Q26.88 102.63 26.88 102.63Q26.88 102.63 26.88 102.63L26.88 102.63Q26.88 101.88 27.38 101.31Q27.88 100.75 28.75 100.75L28.75 100.75Q28.75 100.75 28.75 100.75Q28.75 100.75 28.75 100.75L28.75 100.75L32.88 100.75Q33.63 100.75 34.19 101.31Q34.75 101.88 34.75 102.63L34.75 102.63L34.75 110.13Q34.75 110.88 34.19 111.44Q33.63 112 32.88 112L32.88 112L28.75 112Q28 112 27.44 111.44Q26.88 110.88 26.88 110.13L26.88 110.13ZM41.88 102L41.88 102L41.88 110.63Q41.88 112.25 43 113.44Q44.13 114.63 45.75 114.63L45.75 114.63L51.63 114.63Q52.13 114.63 52.50 114.31Q52.88 114 52.88 113.50L52.88 113.50L52.88 113.13Q52.88 112.63 52.50 112.31Q52.13 112 51.63 112L51.63 112L46.88 112Q45.88 112 45.31 111.50Q44.75 111 44.75 110.13L44.75 110.13L44.75 107.63L53.38 107.63Q54.50 107.63 55.06 107Q55.63 106.38 55.63 105.38L55.63 105.38L55.63 102Q55.63 100.38 54.38 99.19Q53.13 98 51.38 98L51.38 98L46 98Q44.25 98 43.06 99.19Q41.88 100.38 41.88 102L41.88 102ZM44.75 102.38L44.75 102.38Q44.75 101.75 45.25 101.25Q45.75 100.75 46.50 100.75L46.50 100.75L51 100.75Q51.63 100.75 52.13 101.25Q52.63 101.75 52.63 102.38L52.63 102.38L52.63 105L44.75 105L44.75 102.38ZM68.13 98L67.63 98Q66.38 98 65.44 98.31Q64.50 98.63 63.75 99L63.75 99Q63.25 99.25 62.88 99.38Q62.50 99.50 62.25 99.50L62.25 99.50Q62 99.50 61.94 99.44Q61.88 99.38 61.75 99.25L61.75 99.25L61.50 98.63Q61.25 98.38 61 98.19Q60.75 98 60.50 98L60.50 98L60 98Q59.50 98 59.25 98.31Q59 98.63 59 99.13L59 99.13L59 113.50Q59 114 59.38 114.31Q59.75 114.63 60.25 114.63L60.25 114.63L60.75 114.63Q60.75 114.63 60.75 114.63Q60.75 114.63 60.75 114.63L60.75 114.63Q61.25 114.63 61.63 114.31Q62 114 62 113.50L62 113.50L62 102.63Q62 101.88 62.50 101.31Q63 100.75 63.75 100.75L63.75 100.75L67.88 100.75Q68.75 100.75 69.25 101.31Q69.75 101.88 69.75 102.63L69.75 102.63L69.75 113.50Q69.75 114 70.13 114.31Q70.50 114.63 71 114.63L71 114.63L71.50 114.63Q71.50 114.63 71.50 114.63Q71.50 114.63 71.50 114.63L71.50 114.63Q72 114.63 72.38 114.31Q72.75 114 72.75 113.50L72.75 113.50L72.75 102.13Q72.75 100.25 71.50 99.13Q70.25 98 68.13 98L68.13 98ZM191.50 109.13L191.63 109.13Q192.50 109.13 193.19 109.81Q193.88 110.50 193.88 111.38L193.88 111.38Q193.88 112.38 193.19 113Q192.50 113.63 191.50 113.63L191.50 113.63Q191.50 113.63 191.50 113.63Q191.50 113.63 191.50 113.63L191.50 113.63Q190.63 113.63 189.94 113Q189.25 112.38 189.25 111.38L189.25 111.38Q189.25 111.38 189.25 111.38Q189.25 111.38 189.25 111.38L189.25 111.38L189.25 111.38Q189.25 110.38 189.94 109.75Q190.63 109.13 191.50 109.13L191.50 109.13ZM191.63 109.50L191.50 109.50Q190.75 109.50 190.25 110.06Q189.75 110.63 189.75 111.38L189.75 111.38Q189.75 112.25 190.25 112.75Q190.75 113.25 191.63 113.25L191.63 113.25Q192.38 113.38 192.88 112.81Q193.38 112.25 193.38 111.38L193.38 111.38Q193.38 110.63 192.88 110.06Q192.38 109.50 191.63 109.50L191.63 109.50ZM191.13 112.75L191.13 112.75L190.75 112.75L190.75 110.13Q190.88 110.13 191.06 110.13Q191.25 110.13 191.50 110.13L191.50 110.13Q191.75 110.13 191.94 110.19Q192.13 110.25 192.25 110.25L192.25 110.25Q192.38 110.38 192.44 110.50Q192.50 110.63 192.50 110.88L192.50 110.88Q192.50 111.13 192.31 111.25Q192.13 111.38 192 111.50L192 111.50L192 111.50Q192.13 111.50 192.25 111.63Q192.38 111.75 192.38 112.13L192.38 112.13Q192.50 112.38 192.50 112.50Q192.50 112.63 192.63 112.75L192.63 112.75L192.13 112.75Q192.13 112.63 192.06 112.44Q192 112.25 192 112L192 112Q191.88 111.88 191.75 111.75Q191.63 111.63 191.38 111.63L191.38 111.63L191.13 111.63L191.13 112.75ZM191.13 110.50L191.13 111.25L191.38 111.25Q191.63 111.25 191.81 111.19Q192 111.13 192 110.88L192 110.88Q192 110.75 191.88 110.56Q191.75 110.38 191.38 110.38L191.38 110.38Q191.38 110.38 191.25 110.38Q191.13 110.38 191.13 110.50L191.13 110.50Z"/></svg>