<svg xmlns="http://www.w3.org/2000/svg" xmlns:xlink="http://www.w3.org/1999/xlink" width="128" height="128"><path fill="#000000" d="M14.63 62.63L14.63 62.63Q15.38 62 16 61.13Q16.63 60.25 16.88 59.25L16.88 59.25Q17.25 57.75 16.94 56.31Q16.63 54.88 14.63 53.88L14.63 53.88Q9.50 51.38 6.38 54.13Q3.25 56.88 2.75 58L2.75 58Q2.25 59.13 1.75 61.06Q1.25 63 1.75 66.88L1.75 66.88Q2.38 70.75 4.63 74Q6.88 77.25 12.75 78.63L12.75 78.63Q14.50 79 16.38 79.19Q18.25 79.38 20.13 79.38L20.13 79.38Q24.13 79.38 27.88 78.50Q31.63 77.63 35 75.88L35 75.88Q40 73.50 47.63 70.19Q55.25 66.88 57.75 66.38L57.75 66.38Q59.13 66 60.81 65.81Q62.50 65.63 64.25 65.63L64.25 65.63L64.25 57.75Q61.88 53.63 57.69 51.06Q53.50 48.50 48.50 48.50L48.50 48.50Q48 48.50 47.56 48.56Q47.13 48.63 46.75 48.63L46.75 48.63Q37.50 49.38 33.13 53Q28.75 56.63 26.50 58.75L26.50 58.75Q24.25 60.75 20.63 64.19Q17 67.63 14.13 66.75L14.13 66.75Q11.25 65.88 10.44 63.25Q9.63 60.63 10.63 59.50L10.63 59.50Q11.63 58.50 12.44 58.56Q13.25 58.63 13.88 59.50L13.88 59.50Q14.13 60.25 14.38 61Q14.63 61.75 14.63 62.63L14.63 62.63Q14.63 62.63 14.63 62.63Q14.63 62.63 14.63 62.63L14.63 62.63ZM113.38 62.63L113.38 62.63Q112.63 62 112 61.13Q111.38 60.25 111.13 59.25L111.13 59.25Q110.75 57.75 111.06 56.31Q111.38 54.88 113.38 53.88L113.38 53.88Q118.50 51.38 121.63 54.13Q124.75 56.88 125.25 58L125.25 58Q125.75 59.13 126.25 61.06Q126.75 63 126.25 66.88L126.25 66.88Q125.63 70.75 123.38 74Q121.13 77.25 115.25 78.63L115.25 78.63Q113.50 79 111.63 79.19Q109.75 79.38 107.88 79.38L107.88 79.38Q103.88 79.38 100.13 78.50Q96.38 77.63 93 75.88L93 75.88Q88 73.50 80.38 70.19Q72.75 66.88 70.25 66.38L70.25 66.38Q68.88 66 67.19 65.81Q65.50 65.63 63.75 65.63L63.75 65.63L63.75 57.75Q66.13 53.63 70.31 51.06Q74.50 48.50 79.50 48.50L79.50 48.50Q80 48.50 80.44 48.56Q80.88 48.63 81.25 48.63L81.25 48.63Q90.50 49.38 94.88 53Q99.25 56.63 101.50 58.75L101.50 58.75Q103.75 60.75 107.44 64.19Q111.13 67.63 113.88 66.75L113.88 66.75Q116.75 65.88 117.56 63.25Q118.38 60.63 117.38 59.50L117.38 59.50Q116.38 58.38 115.56 58.50Q114.75 58.63 114.25 59.50L114.25 59.50Q113.88 60.13 113.63 60.94Q113.38 61.75 113.38 62.50L113.38 62.50Q113.38 62.63 113.38 62.63Q113.38 62.63 113.38 62.63L113.38 62.63Z"/></svg>