<svg xmlns="http://www.w3.org/2000/svg" xmlns:xlink="http://www.w3.org/1999/xlink" width="128" height="128"><path fill="#ffffff" d="M6.50 41.25L6.50 41.25L6.50 45.75Q6.75 45.38 7.06 45.13Q7.38 44.88 7.63 44.63L7.63 44.63Q7.88 44.50 8.19 44.31Q8.50 44.13 8.88 44.13L8.88 44.13Q9.13 44 9.50 43.94Q9.88 43.88 10.25 43.88L10.25 43.88Q10.25 43.88 10.25 43.88Q10.25 43.88 10.38 43.88L10.38 43.88Q10.38 43.88 10.38 43.88Q10.38 43.88 10.38 43.88L10.38 43.88Q10.88 43.88 11.38 44Q11.88 44.13 12.38 44.38L12.38 44.38Q13 44.75 13.50 45.44Q14 46.13 14.13 47L14.13 47Q14.25 47.38 14.25 47.75Q14.25 48.13 14.25 48.50L14.25 48.50Q14.25 48.50 14.25 48.50Q14.25 48.50 14.25 48.50L14.25 48.50L14.25 54.38Q14.25 54.38 14.25 54.44Q14.25 54.50 14.25 54.50L14.25 54.50Q14.25 54.88 14.19 55.19Q14.13 55.50 13.88 55.75L13.88 55.75Q13.63 56 13.38 56.13Q13.13 56.25 12.88 56.25L12.88 56.25Q12.88 56.25 12.81 56.25Q12.75 56.25 12.75 56.25L12.75 56.25Q11.25 56.25 11.25 54.38L11.25 54.38L11.25 49.25Q11.25 49.13 11.25 49.06Q11.25 49 11.25 49L11.25 49Q11.25 48.50 11.13 47.94Q11 47.38 10.88 47L10.88 47Q10.63 46.63 10.25 46.44Q9.88 46.25 9.38 46.25L9.38 46.25Q9.38 46.25 9.31 46.25Q9.25 46.25 9.25 46.25L9.25 46.25Q9.25 46.25 9.25 46.25Q9.25 46.25 9.13 46.25L9.13 46.25Q8.75 46.25 8.38 46.38Q8 46.50 7.75 46.63L7.75 46.63Q7.38 46.88 7.13 47.19Q6.88 47.50 6.75 47.88L6.75 47.88Q6.63 48.38 6.56 48.88Q6.50 49.38 6.50 50L6.50 50Q6.50 50 6.50 50.13Q6.50 50.25 6.50 50.38L6.50 50.38L6.50 54.38Q6.50 54.38 6.50 54.44Q6.50 54.50 6.50 54.50L6.50 54.50Q6.50 54.88 6.38 55.19Q6.25 55.50 6.13 55.75L6.13 55.75Q5.88 56 5.63 56.13Q5.38 56.25 5 56.25L5 56.25Q5 56.25 5 56.25Q5 56.25 5 56.25L5 56.25Q3.50 56.25 3.50 54.38L3.50 54.38L3.50 41.25Q3.50 41.13 3.50 41.13Q3.50 41.13 3.50 41L3.50 41Q3.50 40.75 3.63 40.44Q3.75 40.13 3.88 39.88L3.88 39.88Q4.13 39.63 4.38 39.50Q4.63 39.38 4.88 39.38L4.88 39.38Q5 39.38 5 39.38Q5 39.38 5 39.38L5 39.38Q5 39.38 5 39.38Q5 39.38 5.13 39.38L5.13 39.38Q5.38 39.38 5.63 39.50Q5.88 39.63 6.13 39.88L6.13 39.88Q6.38 40.13 6.44 40.44Q6.50 40.75 6.50 41L6.50 41Q6.50 41.13 6.50 41.13Q6.50 41.13 6.50 41.25L6.50 41.25ZM25 54.50L25 54.50Q24.50 54.88 24 55.19Q23.50 55.50 22.88 55.75L22.88 55.75Q22.38 56 21.81 56.13Q21.25 56.25 20.63 56.25L20.63 56.25Q20.63 56.25 20.63 56.25Q20.63 56.25 20.63 56.25L20.63 56.25Q20.50 56.25 20.50 56.25Q20.50 56.25 20.50 56.25L20.50 56.25Q20 56.25 19.50 56.13Q19 56 18.50 55.75L18.50 55.75Q18.13 55.50 17.81 55.19Q17.50 54.88 17.25 54.50L17.25 54.50Q17 54.13 16.88 53.69Q16.75 53.25 16.75 52.75L16.75 52.75Q16.75 52.75 16.75 52.75Q16.75 52.75 16.75 52.75L16.75 52.75Q16.75 52.75 16.75 52.75Q16.75 52.75 16.75 52.75L16.75 52.75Q16.75 52.13 16.94 51.63Q17.13 51.13 17.50 50.63L17.50 50.63Q18 50.25 18.50 49.94Q19 49.63 19.63 49.50L19.63 49.50L21.13 49.13Q22.25 49 23.13 48.75L23.13 48.75Q24 48.50 24.88 48.25L24.88 48.25Q24.88 48.25 24.88 48.25Q24.88 48.25 24.88 48.25L24.88 48.25Q24.88 47.75 24.75 47.31Q24.63 46.88 24.38 46.50L24.38 46.50Q24.13 46.25 23.75 46.13Q23.38 46 23 46L23 46Q22.88 46 22.75 46Q22.63 46 22.50 46L22.50 46Q22.50 46 22.44 46Q22.38 46 22.25 46L22.25 46Q21.88 46 21.50 46.06Q21.13 46.13 20.75 46.38L20.75 46.38Q20.50 46.50 20.25 46.75Q20 47 19.75 47.25L19.75 47.25Q19.38 48 19.13 48.13L19.13 48.13Q19 48.25 18.88 48.31Q18.75 48.38 18.50 48.38L18.50 48.38Q18.50 48.38 18.50 48.38Q18.50 48.38 18.38 48.38L18.38 48.38Q18.38 48.38 18.38 48.38Q18.38 48.38 18.38 48.38L18.38 48.38Q18.13 48.38 17.94 48.31Q17.75 48.25 17.50 48L17.50 48Q17.38 47.88 17.31 47.69Q17.25 47.50 17.25 47.25L17.25 47.25Q17.25 47.25 17.25 47.25Q17.25 47.25 17.25 47.25L17.25 47.25Q17.25 46.75 17.38 46.38Q17.50 46 17.75 45.63L17.75 45.63Q18.13 45.25 18.56 44.94Q19 44.63 19.50 44.38L19.50 44.38Q20.13 44.25 20.81 44.06Q21.50 43.88 22.25 43.88L22.25 43.88Q22.38 43.88 22.44 43.88Q22.50 43.88 22.50 43.88L22.50 43.88Q22.63 43.88 22.69 43.88Q22.75 43.88 22.88 43.88L22.88 43.88Q23.63 43.88 24.31 44Q25 44.13 25.75 44.38L25.75 44.38Q26.25 44.63 26.63 45Q27 45.38 27.25 45.88L27.25 45.88Q27.50 46.38 27.63 47Q27.75 47.63 27.75 48.38L27.75 48.38Q27.75 48.38 27.75 48.44Q27.75 48.50 27.75 48.63L27.75 48.63Q27.75 49.63 27.75 50.38L27.75 50.38Q27.75 51.13 27.75 52L27.75 52Q27.75 52.13 27.75 52.13Q27.75 52.13 27.75 52.13L27.75 52.13Q27.75 52.50 27.81 52.94Q27.88 53.38 28 53.88L28 53.88Q28.13 54 28.19 54.31Q28.25 54.63 28.25 55L28.25 55Q28.25 55.25 28.13 55.50Q28 55.75 27.88 55.88L27.88 55.88Q27.63 56 27.38 56.13Q27.13 56.25 26.88 56.25L26.88 56.25Q26.88 56.25 26.88 56.25Q26.88 56.25 26.88 56.25L26.88 56.25Q26.63 56.25 26.38 56.13Q26.13 56 25.88 55.75L25.88 55.75Q25.63 55.50 25.44 55.19Q25.25 54.88 25 54.50L25 54.50ZM24.75 50.50L24.75 50.13Q24.38 50.25 23.94 50.38Q23.50 50.50 23 50.63L23 50.63Q21.63 50.88 21.13 51L21.13 51Q20.88 51.13 20.63 51.25Q20.38 51.38 20.13 51.50L20.13 51.50Q20 51.75 19.88 52Q19.75 52.25 19.75 52.50L19.75 52.50Q19.75 52.50 19.75 52.50Q19.75 52.50 19.75 52.50L19.75 52.50Q19.75 52.50 19.75 52.50Q19.75 52.50 19.75 52.50L19.75 52.50Q19.75 52.88 19.88 53.19Q20 53.50 20.25 53.75L20.25 53.75Q20.50 53.88 20.81 54Q21.13 54.13 21.50 54.13L21.50 54.13Q21.50 54.13 21.56 54.13Q21.63 54.13 21.63 54.13L21.63 54.13Q21.63 54.13 21.63 54.13Q21.63 54.13 21.63 54.13L21.63 54.13Q22.13 54.13 22.50 54.06Q22.88 54 23.25 53.75L23.25 53.75Q23.63 53.63 23.94 53.38Q24.25 53.13 24.38 52.75L24.38 52.75Q24.63 52.38 24.75 51.88Q24.88 51.38 24.88 50.88L24.88 50.88Q24.88 50.75 24.88 50.69Q24.88 50.63 24.75 50.50L24.75 50.50ZM33.63 45.50L33.63 45.50L33.63 45.88Q33.88 45.50 34.31 45.06Q34.75 44.63 35.25 44.38L35.25 44.38Q35.75 44.13 36.31 44Q36.88 43.88 37.38 43.88L37.38 43.88Q37.38 43.88 37.44 43.88Q37.50 43.88 37.50 43.88L37.50 43.88Q37.50 43.88 37.50 43.88Q37.50 43.88 37.63 43.88L37.63 43.88Q38.13 43.88 38.69 44Q39.25 44.13 39.63 44.38L39.63 44.38Q40.13 44.63 40.44 45Q40.75 45.38 41 45.88L41 45.88Q41.13 46.13 41.25 46.44Q41.38 46.75 41.38 47L41.38 47Q41.38 47.38 41.44 47.75Q41.50 48.13 41.50 48.63L41.50 48.63Q41.50 48.63 41.50 48.69Q41.50 48.75 41.50 48.75L41.50 48.75L41.50 54.38Q41.50 54.38 41.50 54.44Q41.50 54.50 41.50 54.50L41.50 54.50Q41.50 54.88 41.38 55.19Q41.25 55.50 41 55.75L41 55.75Q40.88 56 40.56 56.13Q40.25 56.25 40 56.25L40 56.25Q39.63 56.25 39.38 56.13Q39.13 56 38.88 55.75L38.88 55.75Q38.63 55.50 38.56 55.19Q38.50 54.88 38.50 54.50L38.50 54.50Q38.50 54.50 38.50 54.44Q38.50 54.38 38.50 54.38L38.50 54.38L38.50 49.25Q38.50 49.25 38.50 49.13Q38.50 49 38.50 48.88L38.50 48.88Q38.50 48.38 38.38 47.88Q38.25 47.38 38.13 47L38.13 47Q37.88 46.63 37.50 46.44Q37.13 46.25 36.63 46.25L36.63 46.25Q36.63 46.25 36.56 46.25Q36.50 46.25 36.38 46.25L36.38 46.25Q36 46.25 35.63 46.38Q35.25 46.50 35 46.75L35 46.75Q34.63 47 34.38 47.31Q34.13 47.63 34 48L34 48Q33.88 48.50 33.81 49Q33.75 49.50 33.75 50.13L33.75 50.13Q33.75 50.25 33.75 50.31Q33.75 50.38 33.75 50.50L33.75 50.50L33.75 54.38Q33.75 54.38 33.75 54.38Q33.75 54.38 33.75 54.50L33.75 54.50Q33.75 54.88 33.63 55.19Q33.50 55.50 33.38 55.75L33.38 55.75Q33.13 55.88 32.88 56Q32.63 56.13 32.25 56.13L32.25 56.13Q32.25 56.13 32.25 56.13Q32.25 56.13 32.25 56.13L32.25 56.13Q32.25 56.13 32.25 56.13Q32.25 56.13 32.25 56.13L32.25 56.13Q31.88 56.13 31.63 56Q31.38 55.88 31.13 55.75L31.13 55.75Q31 55.50 30.88 55.13Q30.75 54.75 30.75 54.50L30.75 54.50Q30.75 54.38 30.75 54.38Q30.75 54.38 30.75 54.38L30.75 54.38L30.75 45.63Q30.75 45.63 30.75 45.56Q30.75 45.50 30.75 45.50L30.75 45.50Q30.75 45.13 30.88 44.81Q31 44.50 31.13 44.25L31.13 44.25Q31.25 44.13 31.50 44Q31.75 43.88 32.13 43.88L32.13 43.88Q32.13 43.88 32.13 43.88Q32.13 43.88 32.13 43.88L32.13 43.88Q32.13 43.88 32.13 43.88Q32.13 43.88 32.13 43.88L32.13 43.88Q32.38 43.88 32.56 43.94Q32.75 44 32.88 44.13L32.88 44.13Q33 44.13 33.13 44.31Q33.25 44.50 33.38 44.63L33.38 44.63Q33.50 44.88 33.56 45.06Q33.63 45.25 33.63 45.50L33.63 45.50Q33.63 45.50 33.63 45.50Q33.63 45.50 33.63 45.50L33.63 45.50ZM52.88 54.50L52.88 54.50L52.88 54.13Q52.63 54.50 52.31 54.75Q52 55 51.63 55.25L51.63 55.25Q51.38 55.50 51.06 55.69Q50.75 55.88 50.38 56L50.38 56Q50 56.13 49.63 56.19Q49.25 56.25 48.88 56.25L48.88 56.25Q48.88 56.25 48.88 56.25Q48.88 56.25 48.88 56.25L48.88 56.25Q48.88 56.25 48.88 56.25Q48.88 56.25 48.88 56.25L48.88 56.25Q48.25 56.25 47.75 56.13Q47.25 56 46.88 55.75L46.88 55.75Q46.38 55.50 45.94 55.19Q45.50 54.88 45.25 54.50L45.25 54.50Q44.88 54 44.63 53.50Q44.38 53 44.25 52.50L44.25 52.50Q44.13 51.88 44 51.25Q43.88 50.63 43.88 50L43.88 50Q43.88 50 43.88 50Q43.88 50 43.88 49.88L43.88 49.88Q43.88 49.88 43.88 49.75Q43.88 49.63 43.88 49.50L43.88 49.50Q43.88 48.38 44.25 47.38Q44.63 46.38 45.25 45.50L45.25 45.50Q45.88 44.75 46.81 44.31Q47.75 43.88 48.75 43.88L48.75 43.88Q48.75 43.88 48.81 43.88Q48.88 43.88 49 43.88L49 43.88Q49 43.88 49 43.88Q49 43.88 49.13 43.88L49.13 43.88Q49.63 43.88 50.19 44Q50.75 44.13 51.13 44.38L51.13 44.38Q51.63 44.63 52.06 45Q52.50 45.38 52.88 45.75L52.88 45.75L52.88 41.25Q52.88 41.25 52.88 41.19Q52.88 41.13 52.88 41.13L52.88 41.13Q52.88 40.75 53 40.44Q53.13 40.13 53.25 39.88L53.25 39.88Q53.38 39.63 53.69 39.50Q54 39.38 54.25 39.38L54.25 39.38Q54.25 39.38 54.25 39.38Q54.25 39.38 54.38 39.38L54.38 39.38Q54.38 39.38 54.38 39.38Q54.38 39.38 54.38 39.38L54.38 39.38Q54.75 39.38 55 39.50Q55.25 39.63 55.38 39.75L55.38 39.75Q55.50 40 55.63 40.31Q55.75 40.63 55.75 41L55.75 41Q55.75 41 55.75 41.06Q55.75 41.13 55.75 41.13L55.75 41.13L55.75 54.50Q55.75 54.50 55.75 54.56Q55.75 54.63 55.75 54.63L55.75 54.63Q55.75 55 55.63 55.25Q55.50 55.50 55.38 55.75L55.38 55.75Q55.13 56 54.88 56.13Q54.63 56.25 54.38 56.25L54.38 56.25Q54.38 56.25 54.38 56.25Q54.38 56.25 54.38 56.25L54.38 56.25Q54.38 56.25 54.38 56.25Q54.38 56.25 54.38 56.25L54.38 56.25Q54 56.25 53.75 56.13Q53.50 56 53.38 55.75L53.38 55.75Q53.13 55.50 53 55.19Q52.88 54.88 52.88 54.50L52.88 54.50Q52.88 54.50 52.88 54.50Q52.88 54.50 52.88 54.50L52.88 54.50ZM46.88 50L46.88 50Q46.88 50 46.88 50.06Q46.88 50.13 46.88 50.13L46.88 50.13Q46.88 50.75 46.94 51.25Q47 51.75 47.25 52.13L47.25 52.13Q47.38 52.50 47.63 52.81Q47.88 53.13 48.25 53.38L48.25 53.38Q48.50 53.63 48.88 53.75Q49.25 53.88 49.63 53.88L49.63 53.88Q49.63 53.88 49.63 53.88Q49.63 53.88 49.63 53.88L49.63 53.88Q49.63 53.88 49.69 53.88Q49.75 53.88 49.75 53.88L49.75 53.88Q50.13 53.88 50.50 53.75Q50.88 53.63 51.13 53.38L51.13 53.38Q51.50 53.25 51.75 52.88Q52 52.50 52.13 52.13L52.13 52.13Q52.38 51.75 52.50 51.19Q52.63 50.63 52.63 50L52.63 50Q52.63 50 52.63 49.94Q52.63 49.88 52.63 49.88L52.63 49.88Q52.63 49.38 52.56 48.88Q52.50 48.38 52.25 47.88L52.25 47.88Q52.13 47.50 51.88 47.19Q51.63 46.88 51.25 46.63L51.25 46.63Q50.88 46.38 50.50 46.25Q50.13 46.13 49.75 46.13L49.75 46.13Q49.75 46.13 49.75 46.13Q49.75 46.13 49.75 46.13L49.75 46.13Q49.75 46.13 49.75 46.13Q49.75 46.13 49.75 46.13L49.75 46.13Q49.25 46.13 48.88 46.25Q48.50 46.38 48.25 46.63L48.25 46.63Q47.88 46.88 47.63 47.19Q47.38 47.50 47.25 47.88L47.25 47.88Q47.13 48.38 47 48.88Q46.88 49.38 46.88 49.88L46.88 49.88Q46.88 49.88 46.88 49.94Q46.88 50 46.88 50L46.88 50ZM58.75 54.38L58.75 54.38L58.75 41.25Q58.75 41.13 58.75 41.13Q58.75 41.13 58.75 41L58.75 41Q58.75 40.75 58.88 40.44Q59 40.13 59.13 39.88L59.13 39.88Q59.38 39.63 59.63 39.50Q59.88 39.38 60.25 39.38L60.25 39.38Q60.25 39.38 60.25 39.38Q60.25 39.38 60.25 39.38L60.25 39.38Q60.25 39.38 60.25 39.38Q60.25 39.38 60.25 39.38L60.25 39.38Q60.63 39.38 60.88 39.50Q61.13 39.63 61.38 39.88L61.38 39.88Q61.50 40.13 61.63 40.44Q61.75 40.75 61.75 41L61.75 41Q61.75 41.13 61.75 41.13Q61.75 41.13 61.75 41.25L61.75 41.25L61.75 54.38Q61.75 54.38 61.75 54.44Q61.75 54.50 61.75 54.50L61.75 54.50Q61.75 54.88 61.63 55.19Q61.50 55.50 61.38 55.75L61.38 55.75Q61.13 56 60.88 56.13Q60.63 56.25 60.25 56.25L60.25 56.25Q60.25 56.25 60.25 56.25Q60.25 56.25 60.25 56.25L60.25 56.25Q60.25 56.25 60.25 56.25Q60.25 56.25 60.25 56.25L60.25 56.25Q59.88 56.25 59.63 56.13Q59.38 56 59.13 55.75L59.13 55.75Q59 55.50 58.88 55.19Q58.75 54.88 58.75 54.50L58.75 54.50Q58.75 54.50 58.75 54.44Q58.75 54.38 58.75 54.38L58.75 54.38ZM73.38 50.75L73.38 50.75L67.50 50.75Q67.50 50.75 67.50 50.75Q67.50 50.75 67.50 50.88L67.50 50.88Q67.50 51.25 67.56 51.75Q67.63 52.25 67.88 52.63L67.88 52.63Q68.25 53.38 68.88 53.81Q69.50 54.25 70.38 54.25L70.38 54.25Q70.38 54.25 70.38 54.25Q70.38 54.25 70.38 54.25L70.38 54.25Q70.50 54.25 70.50 54.25Q70.50 54.25 70.50 54.25L70.50 54.25Q70.75 54.25 71 54.19Q71.25 54.13 71.50 54L71.50 54Q71.63 54 71.88 53.88Q72.13 53.75 72.25 53.63L72.25 53.63Q72.50 53.50 72.69 53.38Q72.88 53.25 73.13 53.13L73.13 53.13Q73.50 52.75 74 52.25L74 52.25Q74.13 52.13 74.25 52.06Q74.38 52 74.63 52L74.63 52Q74.63 52 74.63 52Q74.63 52 74.63 52L74.63 52Q74.63 52 74.69 52Q74.75 52 74.75 52L74.75 52Q74.88 52 75.06 52.06Q75.25 52.13 75.38 52.25L75.38 52.25Q75.50 52.38 75.63 52.56Q75.75 52.75 75.75 53L75.75 53Q75.75 53 75.75 53Q75.75 53 75.75 53L75.75 53Q75.75 53.25 75.63 53.50Q75.50 53.75 75.38 54L75.38 54Q75.25 54.38 75 54.63Q74.75 54.88 74.38 55L74.38 55Q74 55.38 73.63 55.56Q73.25 55.75 72.75 55.88L72.75 55.88Q72.25 56.13 71.75 56.19Q71.25 56.25 70.63 56.25L70.63 56.25Q70.63 56.25 70.56 56.25Q70.50 56.25 70.50 56.25L70.50 56.25Q70.38 56.25 70.31 56.25Q70.25 56.25 70.25 56.25L70.25 56.25Q69 56.25 67.88 55.81Q66.75 55.38 66 54.50L66 54.50Q65.25 53.75 64.81 52.63Q64.38 51.50 64.38 50.25L64.38 50.25Q64.38 50.25 64.38 50.19Q64.38 50.13 64.38 50L64.38 50Q64.38 50 64.38 50Q64.38 50 64.38 49.88L64.38 49.88Q64.38 49.25 64.50 48.63Q64.63 48 64.75 47.50L64.75 47.50Q65 46.88 65.25 46.38Q65.50 45.88 65.88 45.50L65.88 45.50Q66.25 45.13 66.75 44.81Q67.25 44.50 67.75 44.25L67.75 44.25Q68.38 44 69 43.88Q69.63 43.75 70.25 43.75L70.25 43.75Q70.25 43.75 70.25 43.75Q70.25 43.75 70.25 43.75L70.25 43.75Q70.38 43.75 70.38 43.75Q70.38 43.75 70.38 43.75L70.38 43.75Q71.25 43.75 71.94 44Q72.63 44.25 73.38 44.63L73.38 44.63Q73.88 44.88 74.38 45.38Q74.88 45.88 75.25 46.50L75.25 46.50Q75.50 47 75.69 47.63Q75.88 48.25 75.88 49L75.88 49Q75.88 50.13 75.25 50.50L75.25 50.50Q74.88 50.63 74.50 50.69Q74.13 50.75 73.63 50.75L73.63 50.75Q73.63 50.75 73.56 50.75Q73.50 50.75 73.38 50.75L73.38 50.75ZM67.50 49L67.50 49L73 49Q73 48.38 72.75 47.81Q72.50 47.25 72.13 46.75L72.13 46.75Q71.75 46.38 71.31 46.19Q70.88 46 70.38 46L70.38 46Q70.25 46 70.25 46Q70.25 46 70.13 46L70.13 46Q70.13 46 70.13 46Q70.13 46 70.13 46L70.13 46Q69.63 46 69.13 46.19Q68.63 46.38 68.38 46.75L68.38 46.75Q68 47.25 67.75 47.81Q67.50 48.38 67.50 49L67.50 49ZM80.88 41.13L80.88 41.13L80.88 45.75Q81.25 45.38 81.69 45Q82.13 44.63 82.63 44.38L82.63 44.38Q83.13 44.13 83.63 44Q84.13 43.88 84.75 43.88L84.75 43.88Q84.75 43.88 84.81 43.88Q84.88 43.88 84.88 43.88L84.88 43.88Q84.88 43.88 84.88 43.88Q84.88 43.88 85 43.88L85 43.88Q85.63 43.88 86.31 44.06Q87 44.25 87.50 44.63L87.50 44.63Q88.13 45 88.56 45.50Q89 46 89.25 46.63L89.25 46.63Q89.63 47.38 89.75 48.13Q89.88 48.88 89.88 49.75L89.88 49.75Q89.88 49.75 89.88 49.81Q89.88 49.88 89.88 49.88L89.88 49.88Q89.88 50 89.88 50Q89.88 50 89.88 50L89.88 50Q89.88 50.63 89.81 51.25Q89.75 51.88 89.50 52.50L89.50 52.50Q89.38 53 89.13 53.50Q88.88 54 88.50 54.50L88.50 54.50Q88.25 54.88 87.81 55.19Q87.38 55.50 87 55.75L87 55.75Q86.50 56 86 56.13Q85.50 56.25 84.88 56.25L84.88 56.25Q84.88 56.25 84.88 56.25Q84.88 56.25 84.88 56.25L84.88 56.25Q84.50 56.25 84.13 56.19Q83.75 56.13 83.50 56L83.50 56Q83.25 55.88 83 55.81Q82.75 55.75 82.50 55.50L82.50 55.50Q82.25 55.38 82.13 55.25Q82 55.13 81.75 55L81.75 55Q81.50 54.75 81 54.13L81 54.13L81 54.38Q81 54.50 81 54.50Q81 54.50 81 54.50L81 54.50Q81 54.88 80.88 55.19Q80.75 55.50 80.63 55.75L80.63 55.75Q80.38 55.88 80.13 56Q79.88 56.13 79.63 56.13L79.63 56.13Q79.63 56.13 79.56 56.13Q79.50 56.13 79.50 56.13L79.50 56.13Q79.25 56.13 79 56Q78.75 55.88 78.63 55.75L78.63 55.75Q78.38 55.50 78.25 55.19Q78.13 54.88 78.13 54.63L78.13 54.63Q78.13 54.50 78.19 54.50Q78.25 54.50 78.25 54.38L78.25 54.38L78.25 41.25Q78.25 41.25 78.19 41.19Q78.13 41.13 78.13 41.13L78.13 41.13Q78.13 40.75 78.25 40.44Q78.38 40.13 78.63 39.88L78.63 39.88Q78.75 39.63 79 39.50Q79.25 39.38 79.50 39.38L79.50 39.38Q79.50 39.38 79.50 39.38Q79.50 39.38 79.50 39.38L79.50 39.38Q79.63 39.38 79.63 39.38Q79.63 39.38 79.63 39.38L79.63 39.38Q80 39.38 80.25 39.50Q80.50 39.63 80.63 39.88L80.63 39.88Q80.75 40 80.81 40.31Q80.88 40.63 80.88 40.88L80.88 40.88Q80.88 40.88 80.88 40.94Q80.88 41 80.88 41.13L80.88 41.13ZM81.13 50.13L81 50.13Q81 50.13 81 50.19Q81 50.25 81 50.38L81 50.38Q81 51.13 81.25 51.75Q81.50 52.38 81.88 52.88L81.88 52.88Q82.25 53.38 82.81 53.63Q83.38 53.88 84 53.88L84 53.88Q84 53.88 84 53.88Q84 53.88 84.13 53.88L84.13 53.88Q84 53.88 84.06 53.88Q84.13 53.88 84.13 53.88L84.13 53.88Q84.63 53.88 85.19 53.63Q85.75 53.38 86 52.88L86 52.88Q86.50 52.38 86.69 51.69Q86.88 51 86.88 50.38L86.88 50.38Q86.88 50.25 86.88 50.19Q86.88 50.13 86.88 50L86.88 50Q86.88 50 86.88 50Q86.88 50 86.88 49.88L86.88 49.88Q86.88 49.38 86.75 48.88Q86.63 48.38 86.50 48L86.50 48Q86.38 47.63 86.13 47.25Q85.88 46.88 85.50 46.63L85.50 46.63Q85.25 46.50 84.88 46.38Q84.50 46.25 84.13 46.25L84.13 46.25Q84.13 46.25 84.06 46.25Q84 46.25 84 46.25L84 46.25Q84 46.25 84 46.25Q84 46.25 84 46.25L84 46.25Q83.63 46.25 83.19 46.38Q82.75 46.50 82.50 46.63L82.50 46.63Q82.13 46.88 81.88 47.25Q81.63 47.63 81.50 48L81.50 48Q81.25 48.50 81.19 49Q81.13 49.50 81.13 50L81.13 50Q81.13 50 81.13 50.06Q81.13 50.13 81.13 50.13L81.13 50.13ZM100 54.50L100 54.50Q99.50 54.88 99 55.19Q98.50 55.50 97.88 55.75L97.88 55.75Q97.38 56 96.81 56.13Q96.25 56.25 95.63 56.25L95.63 56.25Q95.63 56.25 95.63 56.25Q95.63 56.25 95.63 56.25L95.63 56.25Q95.50 56.25 95.50 56.25Q95.50 56.25 95.50 56.25L95.50 56.25Q95 56.25 94.50 56.13Q94 56 93.50 55.75L93.50 55.75Q93.13 55.50 92.81 55.19Q92.50 54.88 92.25 54.50L92.25 54.50Q92 54.13 91.88 53.69Q91.75 53.25 91.75 52.75L91.75 52.75Q91.75 52.75 91.75 52.75Q91.75 52.75 91.75 52.75L91.75 52.75Q91.75 52.75 91.75 52.75Q91.75 52.75 91.75 52.75L91.75 52.75Q91.75 52.13 91.94 51.63Q92.13 51.13 92.50 50.63L92.50 50.63Q93 50.25 93.50 49.94Q94 49.63 94.63 49.50L94.63 49.50L96.13 49.13Q97.25 49 98.13 48.75L98.13 48.75Q99 48.50 99.88 48.25L99.88 48.25Q99.88 48.25 99.88 48.25Q99.88 48.25 99.88 48.25L99.88 48.25Q99.88 47.75 99.75 47.31Q99.63 46.88 99.38 46.50L99.38 46.50Q99.13 46.25 98.75 46.13Q98.38 46 98 46L98 46Q97.88 46 97.75 46Q97.63 46 97.50 46L97.50 46Q97.50 46 97.44 46Q97.38 46 97.38 46L97.38 46Q96.88 46 96.50 46.06Q96.13 46.13 95.75 46.38L95.75 46.38Q95.50 46.50 95.25 46.75Q95 47 94.75 47.25L94.75 47.25Q94.38 48 94.25 48.13L94.25 48.13Q94.13 48.25 93.94 48.31Q93.75 48.38 93.63 48.38L93.63 48.38Q93.50 48.38 93.50 48.38Q93.50 48.38 93.50 48.38L93.50 48.38Q93.25 48.38 93 48.25Q92.75 48.13 92.63 48L92.63 48Q92.38 47.88 92.31 47.63Q92.25 47.38 92.25 47.25L92.25 47.25Q92.25 47.13 92.25 47.13Q92.25 47.13 92.25 47.13L92.25 47.13Q92.25 46.75 92.38 46.31Q92.50 45.88 92.75 45.63L92.75 45.63Q93.13 45.25 93.56 44.94Q94 44.63 94.50 44.38L94.50 44.38Q95.13 44.13 95.88 44Q96.63 43.88 97.38 43.88L97.38 43.88Q97.38 43.88 97.44 43.88Q97.50 43.88 97.63 43.88L97.63 43.88Q97.63 43.88 97.75 43.88Q97.88 43.88 97.88 43.88L97.88 43.88Q98.63 43.88 99.38 44Q100.13 44.13 100.75 44.38L100.75 44.38Q101.25 44.50 101.69 44.94Q102.13 45.38 102.38 45.88L102.38 45.88Q102.50 46.38 102.63 47Q102.75 47.63 102.75 48.25L102.75 48.25Q102.75 48.38 102.75 48.44Q102.75 48.50 102.75 48.63L102.75 48.63Q102.75 49.63 102.75 50.38L102.75 50.38Q102.75 51.13 102.75 52L102.75 52Q102.75 52.50 102.88 52.94Q103 53.38 103.13 53.88L103.13 53.88Q103.13 54 103.25 54.31Q103.38 54.63 103.38 55L103.38 55Q103.38 55.25 103.25 55.44Q103.13 55.63 102.88 55.88L102.88 55.88Q102.75 56 102.50 56.13Q102.25 56.25 101.88 56.25L101.88 56.25Q101.88 56.25 101.88 56.25Q101.88 56.25 101.88 56.25L101.88 56.25Q101.63 56.25 101.38 56.13Q101.13 56 101 55.75L101 55.75Q100.75 55.50 100.50 55.19Q100.25 54.88 100 54.50L100 54.50ZM99.75 50.50L99.75 50.13Q99.38 50.25 98.94 50.38Q98.50 50.50 98 50.63L98 50.63Q96.63 50.88 96.13 51L96.13 51Q95.88 51.13 95.63 51.25Q95.38 51.38 95.13 51.50L95.13 51.50Q95 51.75 94.88 52Q94.75 52.25 94.75 52.50L94.75 52.50Q94.75 52.50 94.75 52.50Q94.75 52.50 94.75 52.50L94.75 52.50Q94.75 52.50 94.75 52.50Q94.75 52.50 94.75 52.50L94.75 52.50Q94.75 52.88 94.88 53.19Q95 53.50 95.25 53.75L95.25 53.75Q95.50 53.88 95.81 54Q96.13 54.13 96.50 54.13L96.50 54.13Q96.50 54.13 96.56 54.13Q96.63 54.13 96.63 54.13L96.63 54.13Q96.63 54.13 96.63 54.13Q96.63 54.13 96.63 54.13L96.63 54.13Q97.13 54.13 97.50 54.06Q97.88 54 98.25 53.75L98.25 53.75Q98.63 53.63 98.94 53.38Q99.25 53.13 99.38 52.75L99.38 52.75Q99.63 52.38 99.75 51.88Q99.88 51.38 99.88 50.88L99.88 50.88Q99.88 50.75 99.88 50.69Q99.88 50.63 99.75 50.50L99.75 50.50ZM108.88 51.88L108.88 51.88L108.88 54.38Q108.88 54.38 108.88 54.44Q108.88 54.50 108.88 54.50L108.88 54.50Q108.88 54.88 108.75 55.19Q108.63 55.50 108.38 55.75L108.38 55.75Q108.25 56 107.94 56.13Q107.63 56.25 107.38 56.25L107.38 56.25Q107.38 56.25 107.38 56.25Q107.38 56.25 107.38 56.25L107.38 56.25Q107.25 56.25 107.25 56.25Q107.25 56.25 107.25 56.25L107.25 56.25Q107 56.25 106.69 56.13Q106.38 56 106.25 55.75L106.25 55.75Q106 55.50 105.94 55.19Q105.88 54.88 105.88 54.50L105.88 54.50Q105.88 54.50 105.88 54.44Q105.88 54.38 105.88 54.38L105.88 54.38L105.88 45.88Q105.88 43.88 107.25 43.88L107.25 43.88Q107.38 43.88 107.38 43.88Q107.38 43.88 107.38 43.88L107.38 43.88Q107.75 43.88 108 44Q108.25 44.13 108.38 44.38L108.38 44.38Q108.63 44.63 108.69 45Q108.75 45.38 108.75 45.75L108.75 45.75Q108.75 45.75 108.75 45.75Q108.75 45.75 108.75 45.88L108.75 45.88Q109 45.38 109.25 45.06Q109.50 44.75 109.88 44.38L109.88 44.38Q110.13 44.13 110.50 44Q110.88 43.88 111.25 43.88L111.25 43.88Q111.38 43.88 111.38 43.88Q111.38 43.88 111.38 43.88L111.38 43.88Q111.88 43.88 112.38 44Q112.88 44.13 113.25 44.38L113.25 44.38Q113.63 44.50 113.88 44.88Q114.13 45.25 114.13 45.63L114.13 45.63Q114.13 45.63 114.13 45.69Q114.13 45.75 114.13 45.75L114.13 45.75Q114.13 46 114.06 46.19Q114 46.38 113.75 46.63L113.75 46.63Q113.63 46.75 113.44 46.88Q113.25 47 113 47L113 47Q112.75 46.88 112.56 46.81Q112.38 46.75 112.13 46.75L112.13 46.75Q111.88 46.63 111.63 46.56Q111.38 46.50 111 46.50L111 46.50Q111 46.50 111 46.50Q111 46.50 111 46.50L111 46.50Q110.63 46.50 110.38 46.63Q110.13 46.75 109.88 46.88L109.88 46.88Q109.75 47.13 109.56 47.38Q109.38 47.63 109.25 47.88L109.25 47.88Q109.13 48.25 109.06 48.63Q109 49 109 49.50L109 49.50Q108.88 50.50 108.88 51.88L108.88 51.88ZM125 52.25L125 52.25Q125 52.25 125 52.31Q125 52.38 125 52.38L125 52.38Q125 53.63 124.31 54.50Q123.63 55.38 122.63 55.75L122.63 55.75Q122 56 121.31 56.13Q120.63 56.25 119.88 56.25L119.88 56.25Q119.88 56.25 119.81 56.25Q119.75 56.25 119.63 56.25L119.63 56.25Q119.63 56.25 119.56 56.25Q119.50 56.25 119.50 56.25L119.50 56.25Q118.75 56.25 118.13 56.06Q117.50 55.88 116.88 55.63L116.88 55.63Q116.38 55.50 115.94 55.19Q115.50 54.88 115.13 54.50L115.13 54.50Q114.88 54.13 114.75 53.75Q114.63 53.38 114.63 53L114.63 53Q114.63 53 114.63 53Q114.63 53 114.63 52.88L114.63 52.88Q114.63 52.75 114.69 52.50Q114.75 52.25 115 52.13L115 52.13Q115.13 51.88 115.38 51.81Q115.63 51.75 115.88 51.75L115.88 51.75Q115.88 51.75 115.88 51.75Q115.88 51.75 115.88 51.75L115.88 51.75Q115.88 51.75 115.88 51.75Q115.88 51.75 116 51.75L116 51.75Q116.13 51.75 116.31 51.81Q116.50 51.88 116.63 52L116.63 52Q116.75 52.13 116.88 52.31Q117 52.50 117.13 52.63L117.13 52.63Q117.25 53 117.56 53.31Q117.88 53.63 118.13 53.88L118.13 53.88Q118.50 54 118.94 54.13Q119.38 54.25 119.75 54.25L119.75 54.25Q119.88 54.25 119.88 54.25Q119.88 54.25 120 54.25L120 54.25Q120 54.25 120 54.25Q120 54.25 120.13 54.25L120.13 54.25Q120.50 54.25 120.81 54.13Q121.13 54 121.50 53.88L121.50 53.88Q121.75 53.75 121.88 53.50Q122 53.25 122 52.88L122 52.88Q122 52.88 122 52.88Q122 52.88 122 52.88L122 52.88Q122 52.50 121.88 52.19Q121.75 51.88 121.38 51.75L121.38 51.75Q121 51.50 120.50 51.31Q120 51.13 119.50 51L119.50 51Q118.75 50.88 118.06 50.69Q117.38 50.50 116.75 50.13L116.75 50.13Q116.38 50 116 49.75Q115.63 49.50 115.38 49.13L115.38 49.13Q115 48.75 114.88 48.31Q114.75 47.88 114.75 47.50L114.75 47.50Q114.75 47.38 114.75 47.38Q114.75 47.38 114.75 47.38L114.75 47.38Q114.75 47.38 114.75 47.38Q114.75 47.38 114.75 47.38L114.75 47.38Q114.75 46.88 114.88 46.44Q115 46 115.25 45.63L115.25 45.63Q115.63 45.25 116 44.94Q116.38 44.63 116.88 44.38L116.88 44.38Q117.38 44.13 118 44Q118.63 43.88 119.25 43.88L119.25 43.88Q119.25 43.88 119.31 43.88Q119.38 43.88 119.38 43.88L119.38 43.88Q119.50 43.88 119.50 43.88Q119.50 43.88 119.50 43.88L119.50 43.88Q120.13 43.88 120.63 43.94Q121.13 44 121.63 44.13L121.63 44.13Q122 44.25 122.38 44.44Q122.75 44.63 123.13 44.75L123.13 44.75Q123.38 45 123.63 45.19Q123.88 45.38 124.13 45.63L124.13 45.63Q124.25 45.88 124.31 46.13Q124.38 46.38 124.38 46.75L124.38 46.75Q124.38 46.75 124.38 46.75Q124.38 46.75 124.38 46.75L124.38 46.75Q124.38 47 124.31 47.19Q124.25 47.38 124.13 47.50L124.13 47.50Q123.88 47.75 123.69 47.81Q123.50 47.88 123.13 47.88L123.13 47.88Q123.13 47.88 123.13 47.88Q123.13 47.88 123.13 47.88L123.13 47.88Q123.13 47.88 123.06 47.88Q123 47.88 123 47.88L123 47.88Q122.88 47.88 122.69 47.81Q122.50 47.75 122.25 47.63L122.25 47.63Q122.13 47.38 121.94 47.19Q121.75 47 121.50 46.88L121.50 46.88Q121.38 46.63 121.19 46.44Q121 46.25 120.75 46.13L120.75 46.13Q120.50 46 120.19 45.94Q119.88 45.88 119.63 45.88L119.63 45.88Q119.50 45.88 119.50 45.88Q119.50 45.88 119.50 45.88L119.50 45.88Q119.38 45.88 119.38 45.88Q119.38 45.88 119.38 45.88L119.38 45.88Q119 45.88 118.69 45.94Q118.38 46 118.13 46.13L118.13 46.13Q117.88 46.25 117.69 46.50Q117.50 46.75 117.50 47L117.50 47Q117.50 47 117.50 47Q117.50 47 117.50 47L117.50 47Q117.50 47.25 117.63 47.50Q117.75 47.75 118 47.88L118 47.88Q118.13 48 118.44 48.13Q118.75 48.25 119 48.38L119 48.38Q119.75 48.50 120.88 48.75L120.88 48.75Q121.50 49 122.13 49.19Q122.75 49.38 123.25 49.63L123.25 49.63Q123.63 49.88 123.94 50.13Q124.25 50.38 124.50 50.75L124.50 50.75Q124.75 51 124.88 51.38Q125 51.75 125 52.25L125 52.25Q125 52.25 125 52.25Q125 52.25 125 52.25L125 52.25ZM31 80.38L31 80.25Q31.50 79.88 31.88 79.25Q32.25 78.63 32.50 78L32.50 78Q32.63 77.75 32.69 77.50Q32.75 77.25 32.75 77L32.75 77Q32.75 76 32.25 75.31Q31.75 74.63 31 74.38L31 74.38Q27.50 72.63 25.38 74.50Q23.25 76.38 23 77.13L23 77.13Q22.63 77.88 22.25 79.19Q21.88 80.50 22.25 83.13L22.25 83.13Q22.63 85.75 24.19 87.94Q25.75 90.13 29.75 91.13L29.75 91.13Q30.88 91.38 32.13 91.56Q33.38 91.75 34.75 91.75L34.75 91.75Q37.50 91.75 40 91.13Q42.50 90.50 44.88 89.38L44.88 89.38Q48.25 87.75 53.44 85.44Q58.63 83.13 60.25 82.88L60.25 82.88Q61.25 82.63 62.38 82.50Q63.50 82.38 64.75 82.38L64.75 82.38L64.75 77Q63.13 74.13 60.31 72.44Q57.50 70.75 54 70.75L54 70.75Q53.75 70.75 53.44 70.75Q53.13 70.75 52.88 70.75L52.88 70.75Q46.50 71.25 43.56 73.75Q40.63 76.25 39 77.63L39 77.63Q37.50 79 35 81.31Q32.50 83.63 30.63 83.13L30.63 83.13Q28.75 82.50 28.19 80.75Q27.63 79 28.25 78.25L28.25 78.25Q29 77.50 29.50 77.56Q30 77.63 30.50 78.25L30.50 78.25Q30.63 78.63 30.81 79.13Q31 79.63 31 80.25L31 80.25Q31 80.25 31 80.25Q31 80.25 31 80.38L31 80.38ZM98.13 80.38L98.13 80.25Q97.63 79.88 97.25 79.25Q96.88 78.63 96.63 78L96.63 78Q96.50 77.75 96.44 77.50Q96.38 77.25 96.38 77L96.38 77Q96.38 76 96.88 75.31Q97.38 74.63 98.13 74.38L98.13 74.38Q101.63 72.63 103.75 74.50Q105.88 76.38 106.13 77.13L106.13 77.13Q106.50 77.88 106.88 79.19Q107.25 80.50 106.88 83.13L106.88 83.13Q106.50 85.75 104.94 87.94Q103.38 90.13 99.38 91.13L99.38 91.13Q98.25 91.38 97 91.56Q95.75 91.75 94.38 91.75L94.38 91.75Q91.63 91.75 89.13 91.13Q86.63 90.50 84.25 89.38L84.25 89.38Q80.88 87.75 75.69 85.44Q70.50 83.13 68.88 82.88L68.88 82.88Q67.88 82.63 66.75 82.50Q65.63 82.38 64.38 82.38L64.38 82.38L64.38 77Q66 74.13 68.81 72.44Q71.63 70.75 75.13 70.75L75.13 70.75Q75.38 70.75 75.69 70.75Q76 70.75 76.25 70.75L76.25 70.75Q82.63 71.25 85.56 73.75Q88.50 76.25 90 77.63L90 77.63Q91.63 79 94.06 81.31Q96.50 83.63 98.50 83.13L98.50 83.13Q100.38 82.50 100.94 80.75Q101.50 79 100.88 78.25L100.88 78.25Q100.13 77.50 99.63 77.56Q99.13 77.63 98.63 78.25L98.63 78.25Q98.38 78.63 98.25 79.13Q98.13 79.63 98.13 80.25L98.13 80.25Q98.13 80.25 98.13 80.25Q98.13 80.25 98.13 80.38L98.13 80.38Z"/></svg>