<svg xmlns="http://www.w3.org/2000/svg" xmlns:xlink="http://www.w3.org/1999/xlink" width="128" height="128"><path fill="#ffffff" d="M1 1L1 1L1 127L127 127L127 1L1 1ZM72.88 42.75L72.88 42.75Q72.88 42.75 73.50 47.38L73.50 47.38Q74.13 52.13 74.88 57.88Q75.63 63.63 76.25 68.63L76.25 68.63Q76.88 73.63 76.88 74.13L76.88 74.13L82.63 56L82.63 56Q84.50 50.88 88.56 46.81Q92.63 42.75 99.75 42.75L99.75 42.75L86.25 75.50Q84.38 81.13 79.63 84.69Q74.88 88.25 68.75 88.25L68.75 88.25L68.63 88.25Q68.63 88.25 68.13 83.88L68.13 83.88Q67.50 79.50 66.75 74.13Q66 68.75 65.38 64.25L65.38 64.25Q64.75 59.75 64.75 59.50L64.75 59.50L58.75 75Q56.75 80.13 52.63 84.19Q48.50 88.25 41.25 88.25L41.25 88.25L33.75 42.75Q39.50 42.88 43.63 46.75Q47.75 50.63 48.25 56.13L48.25 56.13L48.25 56.25Q48.25 56.25 48.75 64.75Q49.25 73.25 49.25 74.25L49.25 74.25L56.38 56Q58.25 50.88 62.13 46.81Q66 42.75 72.88 42.75Z"/></svg>