<svg xmlns="http://www.w3.org/2000/svg" xmlns:xlink="http://www.w3.org/1999/xlink" width="128" height="128"><path fill="#000000" d="M100.88 114.38L80.38 114.38L80.38 117.75L100.88 117.75L100.88 114.38ZM77 110.88L77 107.50L73.63 107.50L73.63 110.88L77 110.88ZM77 114.38L80.38 114.38L80.38 110.88L77 110.88L77 114.38ZM73.63 107.50L73.63 104.13L70.25 104.13L70.25 107.50L73.63 107.50ZM83.88 90.50L80.38 90.50L80.38 93.88L83.88 93.88L83.88 90.50ZM97.50 93.88L90.63 93.88L90.63 90.50L87.25 90.50L87.25 93.88L83.88 93.88L83.88 97.25L97.50 97.25L97.50 93.88ZM100.88 90.50L97.50 90.50L97.50 93.88L100.88 93.88L100.88 90.50ZM107.75 107.50L107.75 110.88L111.13 110.88L111.13 107.50L107.75 107.50ZM100.88 114.38L107.75 114.38L107.75 110.88L100.88 110.88L100.88 114.38ZM77 114.38L66.75 114.38L53.13 114.38L53.13 117.75L77 117.75L77 114.38ZM15.63 117.75L46.25 117.75L46.25 114.38L15.63 114.38L15.63 117.75ZM53.13 104.13L56.50 104.13L56.50 100.75L49.75 100.75L49.75 110.88L46.25 110.88L46.25 114.38L53.13 114.38L53.13 104.13ZM32.63 39.25L32.63 46.13L36 46.13L36 39.25L32.63 39.25ZM39.50 90.50L39.50 73.38L39.50 66.50L36 66.50L36 70L25.88 70L25.88 97.25L46.25 97.25L46.25 93.88L42.88 93.88L42.88 90.50L39.50 90.50L39.50 93.88L29.25 93.88L29.25 73.38L36 73.38L36 90.50L39.50 90.50ZM49.75 66.50L49.75 70L49.75 87L46.25 87L46.25 93.88L49.75 93.88L49.75 90.50L53.13 90.50L53.13 66.50L49.75 66.50ZM46.25 56.38L49.75 56.38L49.75 52.88L46.25 52.88L46.25 56.38ZM42.88 56.38L42.88 56.38L42.88 59.75L46.25 59.75L46.25 56.38L42.88 56.38ZM42.88 63.13L42.88 63.13L42.88 59.75L39.50 59.75L39.50 66.50L42.88 66.50L42.88 63.13ZM29.25 12L29.25 12L29.25 18.75L32.63 18.75L32.63 12L29.25 12ZM19 12L19 12L29.25 12L29.25 8.50L15.63 8.50L15.63 49.50L12.13 49.50L12.13 114.38L15.63 114.38L15.63 52.88L46.25 52.88L46.25 46.13L42.88 46.13L42.88 49.50L39.50 49.50L39.50 46.13L36 46.13L36 49.50L29.25 49.50L29.25 39.25L32.63 39.25L32.63 32.38L29.25 32.38L29.25 29L25.88 29L25.88 49.50L19 49.50L19 12ZM32.63 25.63L36 25.63L36 18.75L32.63 18.75L32.63 25.63ZM42.88 25.63L42.88 32.38L46.25 32.38L46.25 25.63L42.88 25.63ZM49.75 46.13L49.75 39.25L46.25 39.25L46.25 46.13L49.75 46.13ZM42.88 32.38L39.50 32.38L39.50 39.25L42.88 39.25L42.88 32.38ZM36 25.63L36 25.63L36 32.38L39.50 32.38L39.50 25.63L36 25.63ZM49.75 25.63L49.75 18.75L46.25 18.75L46.25 25.63L49.75 25.63ZM49.75 18.75L53.13 18.75L53.13 12L49.75 12L49.75 18.75ZM114.50 107.50L114.50 83.63L111.13 83.63L111.13 107.50L114.50 107.50ZM111.13 80.25L107.75 80.25L107.75 83.63L111.13 83.63L111.13 80.25ZM107.75 59.75L107.75 59.75L111.13 59.75L111.13 56.38L107.75 56.38L107.75 59.75ZM111.13 59.75L111.13 59.75L111.13 70L114.50 70L114.50 59.75L111.13 59.75ZM107.75 76.75L100.88 76.75L100.88 80.25L107.75 80.25L107.75 76.75ZM97.50 66.50L97.50 70L100.88 70L100.88 66.50L97.50 66.50ZM111.13 70L100.88 70L100.88 73.38L111.13 73.38L111.13 70ZM70.13 76.75L70.25 76.75L70.25 59.75L66.75 59.75L66.75 70L63.38 70L63.38 63.13L53.13 63.13L53.13 66.50L60 66.50L60 93.88L56.50 93.88L56.50 100.75L60 100.75L60 97.25L66.75 97.25L66.75 104.13L70.13 104.13L70.13 90.50L66.75 90.50L66.75 93.88L63.38 93.88L63.38 73.38L66.75 73.38L66.75 76.75L70.13 76.75ZM70.13 80.25L73.63 80.25L73.63 76.75L70.13 76.75L70.13 80.25ZM80.38 66.50L80.38 66.50L90.63 66.50L90.63 90.50L97.50 90.50L97.50 87L94.13 87L94.13 76.75L100.88 76.75L100.88 73.38L94.13 73.38L94.13 66.50L97.50 66.50L97.50 63.13L80.38 63.13L80.38 66.50ZM80.38 90.50L80.38 73.38L80.38 66.50L77 66.50L77 80.25L73.63 80.25L73.63 83.63L77 83.63L77 87L70.25 87L70.25 90.50L80.38 90.50ZM70.13 52.88L70.25 52.88L73.63 52.88L73.63 49.50L66.75 49.50L66.75 8.50L53.13 8.50L53.13 12L63.38 12L63.38 49.50L56.50 49.50L56.50 29L53.13 29L53.13 32.38L49.75 32.38L49.75 39.25L53.13 39.25L53.13 49.50L49.75 49.50L49.75 52.88L70.13 52.88ZM73.63 59.75L73.63 56.38L70.13 56.38L70.13 59.75L73.63 59.75ZM73.63 52.88L73.63 56.38L77 56.38L77 52.88L73.63 52.88ZM77 49.50L77 46.13L73.63 46.13L73.63 49.50L77 49.50ZM107.75 52.88L100.88 52.88L100.88 56.38L107.75 56.38L107.75 52.88ZM100.88 49.50L100.88 49.50L77 49.50L77 52.88L100.88 52.88L100.88 49.50ZM104.38 46.13L100.88 46.13L100.88 49.50L104.38 49.50L104.38 46.13ZM97.50 42.63L97.50 39.25L94.13 39.25L94.13 42.63L97.50 42.63ZM94.13 32.38L97.50 32.38L100.88 32.38L100.88 29L94.13 29L94.13 32.38ZM90.63 35.88L90.63 39.25L94.13 39.25L94.13 35.88L90.63 35.88ZM80.38 39.25L80.38 39.25L80.38 35.88L70.25 35.88L70.25 46.13L73.63 46.13L73.63 39.25L80.38 39.25ZM83.88 42.63L83.88 39.25L80.38 39.25L80.38 46.13L94.13 46.13L94.13 42.63L83.88 42.63ZM90.63 32.38L80.38 32.38L80.38 35.88L90.63 35.88L90.63 32.38ZM80.38 29L77 29L73.63 29L73.63 32.38L80.38 32.38L80.38 29ZM94.13 25.63L83.88 25.63L83.88 29L94.13 29L94.13 25.63ZM83.88 25.63L83.88 18.75L80.38 18.75L80.38 25.63L83.88 25.63ZM73.63 15.38L73.63 15.38L70.25 15.38L70.25 29L73.63 29L73.63 15.38ZM80.38 12L73.63 12L73.63 15.38L80.38 15.38L80.38 12ZM94.13 12L94.13 12L97.50 12L97.50 8.50L80.38 8.50L80.38 12L94.13 12ZM83.88 18.75L94.13 18.75L94.13 15.38L83.88 15.38L83.88 18.75ZM100.88 35.88L104.38 35.88L104.38 32.38L100.88 32.38L100.88 35.88ZM107.75 46.13L107.75 35.88L104.38 35.88L104.38 46.13L107.75 46.13ZM97.50 15.38L104.38 15.38L104.38 12L97.50 12L97.50 15.38ZM107.75 25.63L107.75 15.38L104.38 15.38L104.38 22.25L97.50 22.25L97.50 18.75L94.13 18.75L94.13 25.63L107.75 25.63Z"/></svg>