<svg xmlns="http://www.w3.org/2000/svg" xmlns:xlink="http://www.w3.org/1999/xlink" width="128" height="128"><path fill="#ffffff" d="M108.88 20.13L19.13 20Q17.63 20 16.69 21.13Q15.75 22.25 16 23.50L16 23.50L29 102.75Q29.25 104.38 30.44 105.38Q31.63 106.38 33.13 106.38L33.13 106.38L95.75 106.38Q96.88 106.38 97.75 105.63Q98.63 104.88 98.88 103.75L98.88 103.75L112 23.63Q112.25 22.25 111.31 21.19Q110.38 20.13 108.88 20.13L108.88 20.13ZM79 48.88L74.13 77.25L54.13 77.25L48.75 48.88L79 48.88ZM99 103.63L107.63 48.88L78.88 48.88L74.13 77.25L54.13 77.25L30.63 105.25Q30.63 105.25 31.38 105.69Q32.13 106.13 33.25 106.13L33.25 106.13L96 106.13Q97 106.13 97.88 105.38Q98.75 104.63 99 103.63L99 103.63Z"/></svg>