<svg xmlns="http://www.w3.org/2000/svg" xmlns:xlink="http://www.w3.org/1999/xlink" width="128" height="128"><path fill="#000000" d="M109.13 11.50L19.38 11.38Q17.88 11.38 16.94 12.44Q16 13.50 16.25 14.88L16.25 14.88L29.25 94.13Q29.50 95.63 30.69 96.63Q31.88 97.63 33.38 97.63L33.38 97.63L96.13 97.63Q97.13 97.63 98 96.88Q98.88 96.13 99.13 95.13L99.13 95.13L112.25 15Q112.50 13.50 111.56 12.50Q110.63 11.50 109.13 11.50L109.13 11.50ZM79.25 40.25L74.38 68.50L54.38 68.50L49.13 40.25L79.25 40.25ZM99.25 94.88L107.88 40.25L79.13 40.25L74.38 68.50L54.38 68.50L30.88 96.50Q30.88 96.50 31.63 97Q32.38 97.50 33.63 97.50L33.63 97.50L96.25 97.50Q97.25 97.50 98.13 96.75Q99 96 99.25 94.88L99.25 94.88ZM3.50 121.88L3.50 102.63L11.88 102.63Q15 102.63 16.44 103.94Q17.88 105.25 17.88 107.63L17.88 107.63Q17.88 109.38 17.06 110.44Q16.25 111.50 14.63 111.88L14.63 111.88Q16.75 112.25 17.88 113.44Q19 114.63 19 116.75L19 116.75Q19 119 17.38 120.44Q15.75 121.88 12.38 121.88L12.38 121.88L3.50 121.88ZM6.25 105L6.25 110.88L11.50 110.88Q13.50 110.88 14.38 110.06Q15.25 109.25 15.25 107.88L15.25 107.88Q15.25 106.38 14.31 105.69Q13.38 105 11.50 105L11.50 105L6.25 105ZM12.50 113.25L6.25 113.25L6.25 119.25L12.50 119.25Q14.50 119.25 15.38 118.56Q16.25 117.88 16.25 116.38L16.25 116.38Q16.25 114.88 15.38 114.06Q14.50 113.25 12.50 113.25L12.50 113.25ZM23.50 101.50L23.50 101.50Q24.25 101.50 24.81 102Q25.38 102.50 25.38 103.38L25.38 103.38Q25.38 104.13 24.81 104.63Q24.25 105.13 23.50 105.13L23.50 105.13Q22.75 105.13 22.19 104.63Q21.63 104.13 21.63 103.38L21.63 103.38Q21.63 102.50 22.19 102Q22.75 101.50 23.50 101.50ZM22.13 121.88L22.13 107.25L24.75 107.25L24.75 121.88L22.13 121.88ZM34.75 119.50L34.75 119.50Q35.25 119.50 35.63 119.44Q36 119.38 36.38 119.38L36.38 119.38L36.38 121.75Q36 121.88 35.63 121.94Q35.25 122 34.63 122L34.63 122Q32.25 122 31 120.75Q29.75 119.50 29.75 117.38L29.75 117.38L29.75 109.50L27.38 109.50L27.38 107.25L29.75 107.25L29.75 104.13L32.38 104.13L32.38 107.25L36.38 107.25L36.38 109.50L32.38 109.50L32.38 117.38Q32.38 118.25 32.94 118.88Q33.50 119.50 34.75 119.50L34.75 119.50ZM42.38 119.25L42.38 119.25L42.38 121.88L39.75 121.88L39.75 101L42.38 101L42.38 109.88Q43.13 108.38 44.44 107.63Q45.75 106.88 47.50 106.88L47.50 106.88Q50.50 106.88 52.06 109.06Q53.63 111.25 53.63 114.50L53.63 114.50Q53.63 117.63 52 119.94Q50.38 122.25 47.13 122.25L47.13 122.25Q45.50 122.25 44.25 121.50Q43 120.75 42.38 119.25ZM46.75 109.25L46.75 109.25Q45 109.25 43.69 110.38Q42.38 111.50 42.38 114L42.38 114L42.38 115.13Q42.38 117.63 43.63 118.75Q44.88 119.88 46.50 119.88L46.50 119.88Q48.75 119.88 49.88 118.50Q51 117.13 51 114.63L51 114.63Q51 111.88 49.94 110.56Q48.88 109.25 46.75 109.25L46.75 109.25ZM56.38 107.25L56.25 107.25L58.88 107.25L58.88 116.13Q58.88 118.13 59.75 119Q60.63 119.88 62.50 119.88L62.50 119.88Q64.38 119.88 65.50 118.75Q66.63 117.63 66.63 115.38L66.63 115.38L66.63 107.25L69.25 107.25L69.25 121.88L66.63 121.88L66.63 119.50Q65.88 120.75 64.63 121.50Q63.38 122.25 61.88 122.25L61.88 122.25Q59.25 122.25 57.81 120.56Q56.38 118.88 56.38 115.88L56.38 115.88L56.38 107.25ZM84 121.50L83.88 121.50Q83.25 121.88 82.25 122Q81.25 122.13 80.25 122.13L80.25 122.13Q76.13 122.13 74.19 120Q72.25 117.88 72.25 114.50L72.25 114.50Q72.25 111.13 74.19 109Q76.13 106.88 80.25 106.88L80.25 106.88Q81.25 106.88 82.13 107Q83 107.13 83.88 107.63L83.88 107.63L83.88 109.88Q83.13 109.63 82.31 109.44Q81.50 109.25 80.38 109.25L80.38 109.25Q77.50 109.25 76.19 110.81Q74.88 112.38 74.88 114.50L74.88 114.50Q74.88 116.63 76.19 118.19Q77.50 119.75 80.50 119.75L80.50 119.75Q81.63 119.75 82.44 119.63Q83.25 119.50 84 119.25L84 119.25L84 121.50ZM89.50 121.88L86.88 121.88L86.88 101L89.50 101L89.50 114.13L96 107.25L99.50 107.25L92.38 114.38L99.75 121.88L96.25 121.88L89.50 115L89.50 121.88ZM108.38 122.25L108.38 122.25Q104.13 122.25 102.19 120.06Q100.25 117.88 100.25 114.50L100.25 114.50Q100.25 111.25 102.13 109.06Q104 106.88 107.38 106.88L107.38 106.88Q111 106.88 112.50 109Q114 111.13 114 114.50L114 114.50L114 115.63L102.88 115.63Q103.13 117.50 104.50 118.63Q105.88 119.75 108.50 119.75L108.50 119.75Q109.88 119.75 111 119.56Q112.13 119.38 113.13 119L113.13 119L113.13 121.25Q112.25 121.75 110.94 122Q109.63 122.25 108.38 122.25L108.38 122.25ZM102.88 113.50L102.88 113.50L111.38 113.50Q111.25 111.38 110.25 110.31Q109.25 109.25 107.38 109.25L107.38 109.25Q105.25 109.25 104.19 110.44Q103.13 111.63 102.88 113.50L102.88 113.50ZM123.13 119.50L123.13 119.50Q123.63 119.50 124 119.44Q124.38 119.38 124.75 119.38L124.75 119.38L124.75 121.75Q124.38 121.88 124 121.94Q123.63 122 123 122L123 122Q120.63 122 119.38 120.75Q118.13 119.50 118.13 117.38L118.13 117.38L118.13 109.50L115.75 109.50L115.75 107.25L118.13 107.25L118.13 104.13L120.75 104.13L120.75 107.25L124.75 107.25L124.75 109.50L120.75 109.50L120.75 117.38Q120.75 118.25 121.31 118.88Q121.88 119.50 123.13 119.50L123.13 119.50Z"/></svg>