<svg xmlns="http://www.w3.org/2000/svg" xmlns:xlink="http://www.w3.org/1999/xlink" width="128" height="128"><path fill="#000000" d="M83.13 80.50L83.13 80.50Q79.63 80.38 76.88 82.75Q74.13 85.13 73.75 88.63L73.75 88.63Q73.75 88.75 73.88 88.81Q74 88.88 74.13 88.88L74.13 88.88L92.13 88.88Q92.25 88.88 92.31 88.81Q92.38 88.75 92.38 88.63L92.38 88.63Q92.13 85 89.44 82.63Q86.75 80.25 83.13 80.50ZM121.75 19.88L121.75 19.88L83.25 62.88Q83 63.25 82.50 63.25Q82 63.25 81.63 63L81.63 63L81.50 62.88L62.13 42.75Q61.75 42.50 61.75 42.06Q61.75 41.63 62 41.25L62 41.25L68.50 33Q68.75 32.63 69.25 32.50Q69.75 32.38 70.13 32.75L70.13 32.75Q70.13 32.75 70.19 32.81Q70.25 32.88 70.25 32.88L70.25 32.88L81.25 45Q81.63 45.38 82.13 45.38Q82.63 45.38 83 45.13L83 45.13L83.13 45L113.75 3.25Q114 3 113.94 2.69Q113.88 2.38 113.63 2.13L113.63 2.13Q113.50 2 113.38 2Q113.25 2 113.13 1.88L113.13 1.88L5.75 1.88Q5.38 2 5.06 2.25Q4.75 2.50 4.75 2.88L4.75 2.88L4.75 125.13Q4.75 125.50 5.06 125.75Q5.38 126 5.75 126L5.75 126L122.25 126Q122.63 126 122.94 125.75Q123.25 125.50 123.25 125.13L123.25 125.13L123.25 20.50Q123.25 20.13 123 19.94Q122.75 19.75 122.38 19.75L122.38 19.75Q122.13 19.63 122 19.69Q121.88 19.75 121.75 19.88ZM37.88 112.38L37.88 112.38Q32.13 112.63 26.69 110.75Q21.25 108.88 17 105L17 105Q16.75 104.75 16.69 104.31Q16.63 103.88 16.88 103.50L16.88 103.50L21.38 97.13Q21.75 96.75 22.19 96.69Q22.63 96.63 23 96.75L23 96.75L23.13 96.88Q26.25 99.88 30.19 101.38Q34.13 102.88 38.38 102.88L38.38 102.88Q42.88 102.88 45.06 101.13Q47.25 99.38 47.25 97.25L47.25 97.25Q47.25 93.75 42.75 92.63L42.75 92.63Q38.13 91.50 32.56 90Q27 88.50 22.38 85.38L22.38 85.38Q17.75 82.38 17.75 75.13L17.75 75.13Q17.75 68.75 23 64.13Q28.25 59.50 37.25 59.50L37.25 59.50Q42.38 59.38 47.31 61.06Q52.25 62.75 56.25 66L56.25 66Q56.63 66.25 56.69 66.75Q56.75 67.25 56.38 67.50L56.38 67.50L51.75 73.75Q51.38 74.13 50.94 74.19Q50.50 74.25 50.13 73.88L50.13 73.88Q47.13 71.50 43.50 70.25Q39.88 69 36.13 69.13L36.13 69.13Q32.63 69.13 30.69 70.56Q28.75 72 28.75 74.25L28.75 74.25Q28.75 77.25 33.38 78.38L33.38 78.38Q38 79.38 43.50 80.94Q49 82.50 53.63 85.63L53.63 85.63Q58.25 88.88 58.25 96L58.25 96Q58.25 103 53.19 107.69Q48.13 112.38 37.88 112.38L37.88 112.38ZM102.25 94.63L102.25 94.63Q102.25 95 101.94 95.31Q101.63 95.63 101.25 95.63L101.25 95.63L74.25 95.63Q74.13 95.63 74.06 95.69Q74 95.75 74 95.88L74 95.88Q74.63 99.75 77.75 102.19Q80.88 104.63 84.88 104.38L84.88 104.38Q87.50 104.38 89.81 103.56Q92.13 102.75 94.25 101.25L94.25 101.25Q94.50 101.13 94.94 101.13Q95.38 101.13 95.63 101.50L95.63 101.50L95.75 101.63L99 106.38Q99.25 106.75 99.19 107.13Q99.13 107.50 98.75 107.75L98.75 107.75Q95.63 110.25 91.75 111.38Q87.88 112.50 83.88 112.38L83.88 112.38Q75.25 112.38 69.44 106.94Q63.63 101.50 63.63 92.38L63.63 92.38Q63.38 84.38 68.88 78.56Q74.38 72.75 82.38 72.50L82.38 72.50L83.25 72.50Q91.75 72.50 97.06 78.31Q102.38 84.13 102.38 93.38L102.38 93.38L102.25 94.63Z"/></svg>