<svg xmlns="http://www.w3.org/2000/svg" xmlns:xlink="http://www.w3.org/1999/xlink" width="128" height="128"><path fill="#ffffff" d="M47.75 3L7 3L7 9.50L47.75 9.50L47.75 3ZM121 3L78.75 3L78.75 9.50L121 9.50L121 3ZM47.75 16.88L7 16.88L7 23.38L47.75 23.38L47.75 16.88ZM121 16.88L78.75 16.88L78.75 23.38L121 23.38L121 16.88ZM47.75 30.25L7 30.25L7 36.88L47.75 36.88L47.75 30.25ZM121 30.25L78.75 30.25L78.75 36.88L121 36.88L121 30.25ZM7 60.63L7 60.63Q7 77.50 7.38 81.75Q7.75 86 9.50 91.50L9.50 91.50Q11.50 97.50 14.31 102.13Q17.13 106.75 21.38 111L21.38 111Q25 114.63 29.25 117.25L29.25 117.25Q33.50 120 38.38 121.88Q43.25 123.75 48.88 124.75L48.88 124.75Q54.63 125.75 61.13 126L61.13 126Q68.50 126.13 75.13 125.38L75.13 125.38Q81.63 124.50 87.38 122.63Q93.13 120.75 97.88 117.75L97.88 117.75Q102.75 114.88 106.75 110.75L106.75 110.75Q110.88 106.63 113.94 101.50Q117 96.38 118.75 90.50L118.75 90.50Q120.38 85.38 120.69 81.13Q121 76.88 121 60.50L121 60.50L121 40.50L78.88 40.63Q78.88 40.63 78.81 44.31Q78.75 48 78.75 69.63L78.75 69.63Q78.75 94.38 74.63 101.44Q70.50 108.50 62.50 108.50L62.50 108.50Q54.50 108.50 51.13 101.44Q47.75 94.38 47.88 68.75L47.88 68.75Q48 47.63 47.88 44.06Q47.75 40.50 47.75 40.50L47.75 40.50L7 40.50L7 60.63Z"/></svg>