<svg xmlns="http://www.w3.org/2000/svg" xmlns:xlink="http://www.w3.org/1999/xlink" width="128" height="128"><path fill="#000000" d="M35.50 70.88L33.88 70.88L33.88 57.88L35.50 57.88L43.50 68.38L43.50 57.88L45 57.88L45 70.88L43.38 70.88L35.50 60.38L35.50 70.88ZM57.88 70.38L57.88 70.38Q57.13 70.63 56.31 70.81Q55.50 71 54.50 71L54.50 71Q51 71 49.25 69.31Q47.50 67.63 47.50 64.25L47.50 64.25Q47.50 61 49.19 59.38Q50.88 57.75 54.25 57.75L54.25 57.75Q55.25 57.75 56.19 57.94Q57.13 58.13 57.88 58.38L57.88 58.38L57.88 59.75Q57.13 59.50 56.25 59.31Q55.38 59.13 54.50 59.13L54.50 59.13Q51.88 59.13 50.50 60.38Q49.13 61.63 49.13 64.25L49.13 64.25Q49.13 66.88 50.44 68.25Q51.75 69.63 54.38 69.63L54.38 69.63Q54.75 69.63 55.25 69.56Q55.75 69.50 56.25 69.38L56.25 69.38L56.25 65L57.88 65L57.88 70.38L57.88 70.38ZM60.63 65.88L60.63 65.88L60.63 57.88L62.25 57.88L62.25 65.88Q62.25 67.75 63.19 68.69Q64.13 69.63 66 69.63L66 69.63Q67.88 69.63 68.81 68.69Q69.75 67.75 69.75 65.88L69.75 65.88L69.75 57.88L71.38 57.88L71.38 65.88Q71.38 68.38 70 69.69Q68.63 71 66 71L66 71Q63.25 71 61.94 69.69Q60.63 68.38 60.63 65.88ZM74.38 57.88L76 57.88L76 69.50L82.88 69.50L82.88 70.88L74.38 70.88L74.38 57.88ZM89.88 59.50L85.25 70.88L83.50 70.88L90 56.13L96.38 70.88L94.50 70.88L92.88 66.75L88.63 66.75L89 65.38L92.25 65.38L89.88 59.50ZM98.13 70.88L98.13 70.88L98.13 57.88L103.75 57.88Q105.50 57.88 106.44 58.69Q107.38 59.50 107.38 61L107.38 61Q107.38 62.25 106.50 63.19Q105.63 64.13 103.75 64.75L103.75 64.75L108.25 70.88L106 70.88L101.88 65L101.88 63.88Q103.75 63.63 104.69 62.94Q105.63 62.25 105.63 61.13L105.63 61.13Q105.63 60.13 105.13 59.69Q104.63 59.25 103.50 59.25L103.50 59.25L99.88 59.25L99.88 70.88L98.13 70.88ZM112.88 57.88L114.50 57.88L114.50 67.13Q114.50 69 113.38 69.94Q112.25 70.88 110.13 70.88L110.13 70.88L110.13 69.50Q111.50 69.50 112.19 68.88Q112.88 68.25 112.88 67.13L112.88 67.13L112.88 57.88ZM117.50 70.38L117.50 70.38L117.50 68.88Q118.50 69.25 119.63 69.44Q120.75 69.63 121.88 69.63L121.88 69.63Q123.63 69.63 124.44 69Q125.25 68.38 125.25 67.13L125.25 67.13Q125.25 66.13 124.63 65.56Q124 65 122.75 65L122.75 65L121.13 65Q119.13 65 118.06 64.13Q117 63.25 117 61.50L117 61.50Q117 59.63 118.31 58.69Q119.63 57.75 122.25 57.75L122.25 57.75Q123.38 57.75 124.44 57.94Q125.50 58.13 126.50 58.38L126.50 58.38L126.50 59.88Q125.50 59.50 124.44 59.31Q123.38 59.13 122.25 59.13L122.25 59.13Q120.50 59.13 119.63 59.75Q118.75 60.38 118.75 61.50L118.75 61.50Q118.75 62.50 119.31 63.06Q119.88 63.63 121.13 63.63L121.13 63.63L122.75 63.63Q124.88 63.63 125.88 64.50Q126.88 65.38 126.88 67.13L126.88 67.13Q126.88 69 125.63 70Q124.38 71 121.88 71L121.88 71Q120.75 71 119.63 70.81Q118.50 70.63 117.50 70.38L117.50 70.38ZM13.38 64L16.13 64L19.38 64L16.25 57.38L13.38 64ZM16.25 47.88L16.25 47.88L1.13 53.25L3.50 73.13L16.25 80.13L29 73L31.50 53.13L16.25 47.88ZM16.25 66.88L12.25 67L10.38 71.50L6.88 71.50L16.13 50.63L26 71.50L22.63 71.50L20.63 66.75L16.25 66.88Z"/></svg>