<svg xmlns="http://www.w3.org/2000/svg" xmlns:xlink="http://www.w3.org/1999/xlink" width="128" height="128"><path fill="#ffffff" d="M59.63 114.38L59.63 114.38Q57.88 114.25 56 114.25Q54.13 114.25 52.38 114.25L52.38 114.25Q52.13 114.25 51.94 114.38Q51.75 114.50 51.63 114.63L51.63 114.63Q51.75 114.75 51.94 114.88Q52.13 115 52.25 115L52.25 115Q53.13 115 53.50 115.50Q53.88 116 53.88 116.75L53.88 116.75Q53.88 118.38 53.88 120.06Q53.88 121.75 53.88 123.50L53.88 123.50Q53.75 124.50 53.19 124.94Q52.63 125.38 51.63 125.25L51.63 125.25Q51.13 125.13 50.56 124.94Q50 124.75 49.63 124.38L49.63 124.38Q48.75 123.63 47.88 122.81Q47 122 46.13 121.13L46.13 121.13L46.88 120.88Q48.25 120.25 48.94 119.44Q49.63 118.63 49.50 117.38L49.50 117.38Q49.38 116.25 48.50 115.38Q47.63 114.50 46.25 114.38L46.25 114.38Q44.50 114.25 42.69 114.25Q40.88 114.25 39.13 114.25L39.13 114.25Q38.88 114.25 38.75 114.38Q38.63 114.50 38.50 114.50L38.50 114.50Q38.63 114.63 38.75 114.81Q38.88 115 39.13 115L39.13 115Q40.13 115 40.44 115.56Q40.75 116.13 40.75 117L40.75 117Q40.75 118.63 40.75 120.19Q40.75 121.75 40.75 123.25L40.75 123.25Q40.75 124.13 40.38 124.63Q40 125.13 39.13 125.25L39.13 125.25Q39 125.25 38.81 125.38Q38.63 125.50 38.50 125.63L38.50 125.63Q38.75 125.75 38.94 125.88Q39.13 126 39.25 126L39.25 126Q40.63 126 42.06 126Q43.50 126 44.88 126L44.88 126Q45 126 45.19 125.88Q45.38 125.75 45.63 125.63L45.63 125.63L45 125.25Q44.63 125 44.13 124.81Q43.63 124.63 43.50 124.25L43.50 124.25Q43.38 123.50 43.38 122.75Q43.38 122 43.25 121.25L43.25 121.25L43.75 121.13Q43.88 121.38 44.13 121.56Q44.38 121.75 44.63 122L44.63 122Q45.25 122.88 45.88 123.69Q46.50 124.50 47.25 125.38L47.25 125.38Q47.38 125.63 47.63 125.81Q47.88 126 48.13 126L48.13 126Q51.13 126 54.13 126Q57.13 126 60.13 125.75L60.13 125.75Q61.75 125.63 63 124.69Q64.25 123.75 64.88 122L64.88 122Q65.75 119.13 64.25 116.88Q62.75 114.63 59.63 114.38L59.63 114.38ZM43 119.88L43 119.88L43 115.38Q43.75 115.25 44.75 115.31Q45.75 115.38 46.25 116.13L46.25 116.13Q46.50 116.75 46.50 117.50Q46.50 118.25 46.25 118.88L46.25 118.88Q45.88 119.88 44.81 119.94Q43.75 120 43 119.88L43 119.88ZM61.63 122.88L61.63 122.88Q61.13 124 59.69 124.56Q58.25 125.13 57.25 124.75L57.25 124.75Q56.88 124.63 56.63 124.25Q56.38 123.88 56.38 123.50L56.38 123.50Q56.38 121.50 56.38 119.50Q56.38 117.50 56.38 115.38L56.38 115.38Q57.88 115.38 59.25 115.50Q60.63 115.63 61.50 117L61.50 117Q62.38 118.38 62.38 119.88Q62.38 121.38 61.63 122.88ZM100.75 124.63L100.75 124.63Q100 124.88 99.13 124.88Q98.25 124.88 97.63 124.50L97.63 124.50Q96.38 123.88 96.63 122.69Q96.88 121.50 96.63 120.50L96.63 120.50Q98.25 120.38 98.63 120.56Q99 120.75 99.50 122.13L99.50 122.13Q99.63 122.25 99.75 122.31Q99.88 122.38 99.88 122.38L99.88 122.38Q100 122.25 100.13 122.13Q100.25 122 100.25 121.75L100.25 121.75Q100.25 120.75 100.25 119.69Q100.25 118.63 100.25 117.63L100.25 117.63Q100.25 117.50 100.13 117.38Q100 117.25 99.88 116.88L99.88 116.88Q99.63 117.50 99.50 118.06Q99.38 118.63 99.13 118.75L99.13 118.75Q98.63 119.13 97.81 119.19Q97 119.25 97 119.38L97 119.38L97 115.25Q97.75 115.38 98.56 115.44Q99.38 115.50 100.25 115.50L100.25 115.50Q101.25 115.50 101.44 116.31Q101.63 117.13 102.13 117.63L102.13 117.63L102.50 117.50L102.25 114.38Q100.13 114 96.25 114.13Q92.38 114.25 91.88 114.63L91.88 114.63Q92 114.75 92.13 114.88Q92.25 115 92.38 115L92.38 115Q93.38 115 93.75 115.56Q94.13 116.13 94.13 117L94.13 117Q94.13 118.50 94.13 119.94Q94.13 121.38 94.13 122.88L94.13 122.88Q94.13 124.63 93.19 125.13Q92.25 125.63 90.88 124.63L90.88 124.63Q89.75 123.88 88.94 123Q88.13 122.13 87.38 121.50L87.38 121.50Q88.13 120.63 88.88 120Q89.63 119.38 90 118.63L90 118.63Q90.75 117.25 89.75 115.88Q88.75 114.50 86.88 114.38L86.88 114.38Q85.25 114.25 83.50 114.25Q81.75 114.25 80 114.25L80 114.25Q79.88 114.25 79.69 114.38Q79.50 114.50 79.25 114.50L79.25 114.50Q79.50 114.63 79.63 114.81Q79.75 115 79.88 115L79.88 115Q80.88 115 81.25 115.63Q81.63 116.25 81.63 117L81.63 117Q81.63 118.25 81.63 119.50Q81.63 120.75 81.63 121.88L81.63 121.88Q81.63 123.88 81.31 124.31Q81 124.75 79.38 125.38L79.38 125.38L79.25 125.75Q79.50 125.75 79.69 125.88Q79.88 126 80.13 126L80.13 126Q81.50 126 82.81 126Q84.13 126 85.50 126L85.50 126Q85.75 126 85.94 125.88Q86.13 125.75 86.38 125.75L86.38 125.75Q86.13 125.63 85.94 125.44Q85.75 125.25 85.63 125.25L85.63 125.25Q84.88 125.13 84.56 124.69Q84.25 124.25 84.13 123.63L84.13 123.63Q84.13 123 84.13 122.38Q84.13 121.75 84.13 120.88L84.13 120.88Q84.50 121.25 84.75 121.44Q85 121.63 85.13 121.88L85.13 121.88Q85.88 122.63 86.56 123.50Q87.25 124.38 87.88 125.25L87.88 125.25Q88.25 125.75 88.63 125.88Q89 126 89.50 126L89.50 126Q92.63 126 95.75 126Q98.88 126 102 126L102 126Q102.25 126 102.63 126Q103 126 103 125.88L103 125.88L103 122.88Q102.25 123.25 101.81 123.81Q101.38 124.38 100.75 124.63L100.75 124.63ZM84 119.88L84 119.88L84 115.38Q85.50 115.25 86.50 115.75Q87.50 116.25 87.63 117.50L87.63 117.50Q87.63 118.88 86.94 119.44Q86.25 120 84 119.88ZM26.38 111.25L26.38 111.25Q25.75 110.63 22.88 110.69Q20 110.75 19.50 111.25L19.50 111.25Q19.88 111.38 20.13 111.44Q20.38 111.50 20.63 111.63L20.63 111.63Q21.38 111.63 21.63 112.06Q21.88 112.50 21.63 113.25L21.63 113.25Q21.13 115.13 20.50 117Q19.88 118.88 19.13 121L19.13 121Q19 120.63 18.88 120.44Q18.75 120.25 18.75 120L18.75 120Q18.13 118 17.44 115.94Q16.75 113.88 16 111.88L16 111.88Q15.88 111.63 15.69 111.31Q15.50 111 15.25 110.75L15.25 110.75Q15.13 111 14.88 111.25Q14.63 111.50 14.50 111.88L14.50 111.88Q13.75 114 13 116.25Q12.25 118.50 11.50 120.63L11.50 120.63L11.25 120.75Q10.75 119 10.19 117.38Q9.63 115.75 9.13 114L9.13 114Q8.63 112.75 8.88 112.31Q9.13 111.88 10.50 111.50L10.50 111.50Q10.63 111.50 10.75 111.38Q10.88 111.25 11 111.13L11 111.13Q10.88 111 10.75 110.88Q10.63 110.75 10.50 110.75L10.50 110.75Q8.75 110.75 7.06 110.75Q5.38 110.75 3.63 110.75L3.63 110.75Q3.50 110.75 3.44 110.88Q3.38 111 3.25 111.13L3.25 111.13Q3.25 111.25 3.38 111.38Q3.50 111.50 3.63 111.50L3.63 111.50Q5.13 111.50 5.69 112.50Q6.25 113.50 6.63 114.63L6.63 114.63Q7.50 117.38 8.38 120.06Q9.25 122.75 10.13 125.38L10.13 125.38Q10.13 125.75 10.31 126Q10.50 126.25 10.63 126.63L10.63 126.63L11 126.63L14.63 115.75Q15.50 118.63 16.38 121.31Q17.25 124 18.13 126.63L18.13 126.63L18.63 126.63Q18.75 126.25 18.88 126Q19 125.75 19 125.38L19 125.38Q20 122.63 20.94 119.75Q21.88 116.88 22.88 114L22.88 114Q23.25 112.88 23.88 112.19Q24.50 111.50 25.75 111.50L25.75 111.50Q25.88 111.50 26 111.38Q26.13 111.25 26.38 111.25L26.38 111.25ZM74.88 111L74.88 111Q72.75 110.75 70.50 110.75Q68.25 110.75 66.13 110.75L66.13 110.75Q66 110.75 65.88 110.94Q65.75 111.13 65.50 111.25L65.50 111.25Q65.75 111.38 65.94 111.44Q66.13 111.50 66.25 111.50L66.25 111.50Q67.38 111.50 67.88 112.13Q68.38 112.75 68.38 113.75L68.38 113.75Q68.38 116 68.38 118.31Q68.38 120.63 68.38 123L68.38 123Q68.38 123.88 67.88 124.50Q67.38 125.13 66.38 125.25L66.38 125.25Q66.13 125.25 66 125.38Q65.88 125.50 65.63 125.63L65.63 125.63Q65.88 125.75 66.06 125.88Q66.25 126 66.50 126L66.50 126Q68.13 126 69.75 126Q71.38 126 73 126L73 126Q73.25 126 73.44 125.88Q73.63 125.75 73.75 125.63L73.75 125.63Q73.63 125.50 73.44 125.38Q73.25 125.25 73.13 125.25L73.13 125.25Q72.25 125.13 71.75 124.75Q71.25 124.38 71.13 123.50L71.13 123.50Q71.13 122.50 71.06 121.50Q71 120.50 70.88 119.50L70.88 119.50Q71.63 119.50 72.31 119.50Q73 119.50 73.75 119.38L73.75 119.38Q75.25 119.25 76.56 118.63Q77.88 118 78.38 116.38L78.38 116.38Q79 114.50 78 112.88Q77 111.25 74.88 111L74.88 111ZM75.38 116.75L75.38 116.75Q74.88 117.63 74.06 117.88Q73.25 118.13 71 118L71 118L71 112.13Q71.75 112.13 73.13 112.06Q74.50 112 75.25 113.25L75.25 113.25Q75.75 114.13 75.81 115Q75.88 115.88 75.38 116.75L75.38 116.75ZM35.75 115.50L35.75 115.50Q33.75 113.75 30.88 113.81Q28 113.88 26 115.63L26 115.63Q24.13 117.25 23.94 119.56Q23.75 121.88 25.25 123.88L25.25 123.88Q26.38 125.13 27.81 125.75Q29.25 126.38 31.13 126.50L31.13 126.50Q31.38 126.38 31.81 126.38Q32.25 126.38 32.63 126.25L32.63 126.25Q34.63 125.75 36 124.63Q37.38 123.50 37.88 121.38L37.88 121.38Q38.25 119.63 37.69 118.13Q37.13 116.63 35.75 115.50L35.75 115.50ZM34 123.88L34 123.88Q32.63 125.50 30.50 125.25Q28.38 125 27.38 123.13L27.38 123.13Q26.75 121.88 26.69 120.56Q26.63 119.25 27 118L27 118Q27.50 116.50 28.50 115.75Q29.50 115 31 115L31 115Q32.50 115 33.50 115.75Q34.50 116.50 35 118L35 118Q35.13 118.50 35.19 119Q35.25 119.50 35.38 120.13L35.38 120.13L35.63 120.25Q35.25 121.13 34.94 122.13Q34.63 123.13 34 123.88L34 123.88ZM122.13 119.25L122.13 119.25Q121.25 118.88 120.44 118.50Q119.63 118.13 118.88 117.63L118.88 117.63Q118.63 117.38 118.38 116.94Q118.13 116.50 118.25 116.25L118.25 116.25Q118.38 115.88 118.75 115.56Q119.13 115.25 119.50 115.13L119.50 115.13Q120.50 114.75 121.44 115.38Q122.38 116 122.75 117.25L122.75 117.25Q122.88 117.50 123.13 117.69Q123.38 117.88 123.50 118.13L123.50 118.13Q123.63 118 123.81 118Q124 118 124 117.88L124 117.88L124 113.50Q123.25 113.88 123.13 114.06Q123 114.25 122.88 114.38L122.88 114.38Q121.88 114.25 121 114.06Q120.13 113.88 119.25 113.88L119.25 113.88Q118.13 113.88 117.31 114.56Q116.50 115.25 116.25 116.13L116.25 116.13Q116 117.25 116.31 118.19Q116.63 119.13 117.63 119.75L117.63 119.75Q117.88 120 118.13 120.13Q118.38 120.25 118.75 120.50L118.75 120.50Q119.38 120.75 120.06 121.13Q120.75 121.50 121.38 121.88L121.38 121.88Q122 122.13 122.44 122.63Q122.88 123.13 122.63 124L122.63 124Q122.38 124.88 121.69 125.06Q121 125.25 120.25 125.13L120.25 125.13Q118.88 125 118.13 124.25Q117.38 123.50 117 122.25L117 122.25Q116.88 122 116.69 121.88Q116.50 121.75 116.38 121.50L116.38 121.50Q116.38 121.63 116.25 121.75Q116.13 121.88 116.13 122L116.13 122Q116.13 123.13 116.13 124.19Q116.13 125.25 116.13 126.38L116.13 126.38L116.50 126.50L117.25 125.38Q117.75 125.63 118.19 125.81Q118.63 126 119 126.25L119 126.25Q120.63 126.75 122.25 126.13Q123.88 125.50 124.50 124L124.50 124Q125.13 122.63 124.50 121.38Q123.88 120.13 122.13 119.25L122.13 119.25ZM111.25 119.25L111.25 119.25Q110.50 118.88 109.81 118.50Q109.13 118.13 108.38 117.75L108.38 117.75Q107.88 117.50 107.50 117.06Q107.13 116.63 107.50 116L107.50 116Q107.75 115.63 108.25 115.38Q108.75 115.13 109.25 115L109.25 115Q110.25 114.88 110.94 115.50Q111.63 116.13 112 117.25L112 117.25Q112.13 117.50 112.31 117.69Q112.50 117.88 112.63 118.13L112.63 118.13L113 117.88Q113 117 113 116.06Q113 115.13 112.88 114.25L112.88 114.25Q112.88 114.13 112.88 114Q112.88 113.88 112.75 113.63L112.75 113.63L111.63 114.63Q111.50 114.50 111.31 114.38Q111.13 114.25 111 114.25L111 114.25Q109.38 113.50 107.75 114Q106.13 114.50 105.50 115.75L105.50 115.75Q104.88 117.13 105.56 118.38Q106.25 119.63 108 120.50L108 120.50Q108.75 120.88 109.50 121.25Q110.25 121.63 111 122L111 122Q111.50 122.38 111.81 122.88Q112.13 123.38 111.75 124L111.75 124Q111.63 124.38 111.06 124.69Q110.50 125 110 125.13L110 125.13Q108.88 125.25 107.94 124.63Q107 124 106.50 122.88L106.50 122.88Q106.38 122.75 106.31 122.44Q106.25 122.13 106.13 121.88L106.13 121.88Q106 121.75 105.88 121.69Q105.75 121.63 105.63 121.50L105.63 121.50Q105.50 121.63 105.38 121.75Q105.25 121.88 105.25 122L105.25 122Q105.25 123 105.25 124Q105.25 125 105.25 125.88L105.25 125.88Q105.25 126 105.38 126.19Q105.50 126.38 105.50 126.38L105.50 126.38Q105.63 126.38 105.81 126.31Q106 126.25 106 126.13L106 126.13Q106.13 126 106.25 125.81Q106.38 125.63 106.50 125.38L106.50 125.38Q107 125.63 107.38 125.81Q107.75 126 108.25 126.13L108.25 126.13Q109.88 126.75 111.50 126.13Q113.13 125.50 113.75 124.13L113.75 124.13Q114.38 122.63 113.75 121.38Q113.13 120.13 111.25 119.25L111.25 119.25ZM64.13 97.75L64.13 97.75Q74.13 97.63 82.88 93.88L82.88 93.88Q91.63 90.13 98.13 83.56Q104.63 77 108.38 68.25L108.38 68.25Q112.13 59.50 112.13 49.50L112.13 49.50Q112.13 39.75 108.38 31L108.38 31Q104.63 22.38 98.25 15.81Q91.88 9.25 83.38 5.38L83.38 5.38Q74.88 1.63 65.25 1.38L65.25 1.38Q55.25 1.25 46.25 4.88L46.25 4.88Q37.38 8.63 30.63 15.13Q23.88 21.63 20 30.38L20 30.38Q16.13 39.13 16.13 49L16.13 49Q16.13 59.13 19.88 68L19.88 68Q23.63 76.88 30.13 83.50Q36.63 90.13 45.38 93.88L45.38 93.88Q54.13 97.75 64.13 97.75ZM64.13 3.75L64.13 3.75Q73.63 3.75 82 7.38L82 7.38Q90.25 11 96.44 17.31Q102.63 23.63 106.25 32.13L106.25 32.13Q109.75 40.63 109.75 50.38L109.75 50.38Q109.75 59.50 106.13 67.63L106.13 67.63Q102.50 75.88 96.25 82Q90 88.13 81.75 91.75L81.75 91.75Q73.38 95.25 64.13 95.25L64.13 95.25Q54.63 95.25 46.25 91.63L46.25 91.63Q38 88.13 31.81 81.88Q25.63 75.63 22 67.25L22 67.25Q18.38 58.75 18.38 49.25L18.38 49.25Q18.38 39.88 22 31.63L22 31.63Q25.63 23.38 31.88 17.19Q38.13 11 46.38 7.38L46.38 7.38Q54.75 3.75 64.13 3.75ZM44.88 27.88L44.88 27.88Q45.25 28.88 44.56 29.31Q43.88 29.75 42.88 29.88L42.88 29.88Q42 29.88 40.94 30Q39.88 30.13 38.75 30.13L38.75 30.13Q40.63 35.75 42.50 41.25L42.50 41.25Q44.38 46.88 46.25 52.38Q48.13 57.88 50 63.50L50 63.50Q51.88 69 53.75 74.63L53.75 74.63Q54 74.25 54.13 74.06Q54.25 73.88 54.25 73.75L54.25 73.75Q56.38 67.50 58.44 61.31Q60.50 55.13 62.50 48.88L62.50 48.88Q62.75 48.38 62.69 47.69Q62.63 47 62.38 46.38L62.38 46.38Q61.38 43.38 60.19 40.31Q59 37.25 58 34.13L58 34.13Q57.38 32 56.25 30.75Q55.13 29.50 52.63 29.75L52.63 29.75Q52.25 29.75 51.75 29.06Q51.25 28.38 50.75 27.88L50.75 27.88Q51.38 27.63 51.94 27.13Q52.50 26.63 53.13 26.63L53.13 26.63Q58.25 26.50 63.38 26.50Q68.50 26.50 73.63 26.63L73.63 26.63Q74.25 26.63 74.81 27.13Q75.38 27.63 76 28L76 28Q75.50 28.50 75 29.06Q74.50 29.63 73.88 29.75L73.88 29.75Q73 30 71.94 30.06Q70.88 30.13 69.75 30.25L69.75 30.25Q71.63 35.75 73.38 41.38L73.38 41.38Q75.25 46.88 77.13 52.38Q79 57.88 80.88 63.50L80.88 63.50Q82.75 69 84.63 74.75L84.63 74.75Q86.38 69 87.94 63.75Q89.50 58.50 91.13 53.38L91.13 53.38Q92.50 48.75 91.75 44.38Q91 40 88.50 35.88L88.50 35.88Q87.75 34.75 86.94 33.50Q86.13 32.25 85.75 30.88L85.75 30.88Q85.25 29.38 84.94 27.75Q84.63 26.13 84.88 24.50L84.88 24.50Q85.38 22 87.19 20.63Q89 19.25 91.75 19L91.75 19Q84.38 12.25 75.38 9.88L75.38 9.88Q66.38 7.50 57.69 8.88Q49 10.25 41.63 15L41.63 15Q34.13 19.75 29.88 27.13L29.88 27.13Q33.13 27 36.31 26.81Q39.50 26.63 42.63 26.63L42.63 26.63Q43.25 26.63 44 27Q44.75 27.38 44.88 27.88L44.88 27.88ZM52.75 88.13L52.75 88.13Q52.63 88.38 52.63 88.63Q52.63 88.88 52.50 89.13L52.50 89.13Q58.88 90.88 65.13 90.75Q71.38 90.63 77.75 88.50L77.75 88.50Q74.50 79.63 71.31 70.81Q68.13 62 64.88 53L64.88 53Q61.75 62 58.75 70.75Q55.75 79.50 52.75 88.13ZM46.13 86.50L46.13 86.50L26.63 33Q23.38 39.38 22.88 47.13L22.88 47.13Q22.50 54.88 25 62.38Q27.50 69.88 32.75 76.38L32.75 76.38Q38.13 82.75 46.13 86.50ZM105.25 52.13L105.25 52.13Q105.75 46 104.13 39.13Q102.50 32.25 100.63 31.13L100.63 31.13Q100.38 33.38 100.38 35.81Q100.38 38.25 99.75 40.50L99.75 40.50Q98.13 45.88 96.38 51.19Q94.63 56.50 92.88 61.75L92.88 61.75Q90.88 67.50 88.88 73.19Q86.88 78.88 84.88 84.63L84.88 84.63Q94.25 79.13 99.31 71Q104.38 62.88 105.25 52.13L105.25 52.13Z"/></svg>