<svg xmlns="http://www.w3.org/2000/svg" xmlns:xlink="http://www.w3.org/1999/xlink" width="128" height="128"><path fill="#ffffff" d="M64.13 126.25L64.13 126.25Q77 126.25 88.25 121.25L88.25 121.25Q99.50 116.38 107.94 107.94Q116.38 99.50 121.25 88.13L121.25 88.13Q126.13 76.75 126.13 63.88L126.13 63.88Q126.13 51.25 121.25 40L121.25 40Q116.50 28.75 108.19 20.31Q99.88 11.88 88.88 6.88L88.88 6.88Q77.88 1.88 65.50 1.63L65.50 1.63Q52.50 1.38 41 6.13L41 6.13Q29.38 11 20.69 19.38Q12 27.75 7 39.13L7 39.13Q1.88 50.38 1.88 63.25L1.88 63.25Q1.88 76.38 6.75 87.88L6.75 87.88Q11.63 99.38 20 107.88Q28.38 116.38 39.75 121.38L39.75 121.38Q51.13 126.25 64.13 126.25ZM64 4.63L64 4.63Q76.38 4.63 87.13 9.38L87.13 9.38Q97.88 14 105.88 22.19Q113.88 30.38 118.50 41.38L118.50 41.38Q123.13 52.38 123.13 64.88L123.13 64.88Q123.13 76.75 118.38 87.38L118.38 87.38Q113.63 98 105.56 105.94Q97.50 113.88 86.88 118.50L86.88 118.50Q76.13 123.13 64 123.13L64 123.13Q51.75 123.13 41 118.38L41 118.38Q30.13 113.75 22.13 105.69Q14.13 97.63 9.50 86.75L9.50 86.75Q4.88 75.88 4.88 63.50L4.88 63.50Q4.88 51.38 9.63 40.75L9.63 40.75Q14.25 30 22.31 22Q30.38 14 41.13 9.25L41.13 9.25Q51.88 4.63 64 4.63L64 4.63ZM39.13 35.88L39.13 35.88Q39.50 37.25 38.63 37.81Q37.75 38.38 36.63 38.50L36.63 38.50Q35.38 38.50 34.06 38.63Q32.75 38.75 31.25 38.88L31.25 38.88Q33.63 46 36.13 53.25L36.13 53.25Q38.50 60.38 40.94 67.56Q43.38 74.75 45.75 82L45.75 82Q48.13 89.13 50.63 96.38L50.63 96.38Q50.88 95.88 51.06 95.63Q51.25 95.38 51.38 95.25L51.38 95.25Q54 87.13 56.69 79.13Q59.38 71.13 62 63.13L62 63.13Q62.25 62.38 62.13 61.50Q62 60.63 61.75 59.88L61.75 59.88Q60.38 55.88 58.88 51.94Q57.38 48 56.13 44L56.13 44Q55.25 41.13 53.88 39.56Q52.50 38 49.25 38.25L49.25 38.25Q48.63 38.38 48 37.50Q47.38 36.63 46.75 36L46.75 36Q47.50 35.50 48.25 34.88Q49 34.25 49.75 34.25L49.75 34.25Q56.38 34.13 63.06 34.13Q69.75 34.13 76.38 34.25L76.38 34.25Q77.13 34.25 77.88 34.88Q78.63 35.50 79.38 36L79.38 36Q78.75 36.63 78.13 37.38Q77.50 38.13 76.75 38.38L76.75 38.38Q75.50 38.75 74.13 38.75Q72.75 38.75 71.25 38.88L71.25 38.88Q73.63 46.13 76.13 53.25L76.13 53.25Q78.50 60.38 80.88 67.56Q83.25 74.75 85.75 82L85.75 82Q88.13 89.13 90.63 96.50L90.63 96.50Q92.75 89.13 94.81 82.31Q96.88 75.50 98.88 68.88L98.88 68.88Q100.63 62.88 99.69 57.25Q98.75 51.63 95.63 46.25L95.63 46.25Q94.63 44.75 93.56 43.13Q92.50 41.50 92 39.88L92 39.88Q91.38 37.88 91 35.69Q90.63 33.50 90.88 31.50L90.88 31.50Q91.50 28.25 93.88 26.50Q96.25 24.75 99.75 24.50L99.75 24.50Q90.25 15.63 78.63 12.50L78.63 12.50Q67 9.50 55.75 11.25Q44.50 13 34.88 19.13L34.88 19.13Q25.25 25.38 19.75 34.88L19.75 34.88Q24 34.75 28.06 34.50Q32.13 34.25 36.25 34.25L36.25 34.25Q37 34.25 38 34.75Q39 35.25 39.13 35.88L39.13 35.88ZM49.25 113.88L49.25 113.88Q49.13 114.13 49.13 114.44Q49.13 114.75 49 115.13L49 115.13Q57.25 117.50 65.38 117.25Q73.50 117 81.75 114.25L81.75 114.25L64.88 68.38Q62.88 74.13 61 79.88L61 79.88Q59 85.63 57.06 91.31Q55.13 97 53.13 102.63L53.13 102.63Q51.25 108.25 49.25 113.88ZM40.88 111.75L40.88 111.75L15.50 42.50Q11.25 50.75 10.75 60.88L10.75 60.88Q10.25 70.88 13.44 80.56Q16.63 90.25 23.50 98.63L23.50 98.63Q30.38 106.88 40.88 111.75ZM117.25 67.25L117.25 67.25Q117.88 59.38 115.75 50.50Q113.63 41.63 111.25 40.13L111.25 40.13Q111 43 110.94 46.13Q110.88 49.25 110 52.25L110 52.25Q108.13 59.13 105.81 66Q103.50 72.88 101.13 79.63L101.13 79.63Q98.63 87.13 96.06 94.50Q93.50 101.88 90.88 109.38L90.88 109.38Q96.88 105.75 101.63 101.38L101.63 101.38Q106.25 96.88 109.56 91.63Q112.88 86.38 114.75 80.25L114.75 80.25Q116.75 74.13 117.25 67.25L117.25 67.25Z"/></svg>