<svg xmlns="http://www.w3.org/2000/svg" xmlns:xlink="http://www.w3.org/1999/xlink" width="128" height="128"><path fill="#000000" d="M18 128L18 0L110 0L110 128L18 128ZM55.25 36.38L55.25 36.25L47 38.50Q46.25 38.63 45.94 39.19Q45.63 39.75 45.63 40.75L45.63 40.75L45.63 43.75Q45.63 44.75 45.94 45.38Q46.25 46 47.13 45.88L47.13 45.88L49.25 45.38L49.25 80.38Q49.25 81.75 49.56 82.50Q49.88 83.25 50.75 83.25L50.75 83.25L55.63 83.25Q56.50 83.25 56.88 82.50Q57.25 81.75 57.25 80.25L57.25 80.25L57.25 38.75Q57.25 37.63 56.88 37Q56.50 36.38 55.75 36.38L55.75 36.38L55.25 36.38ZM71.25 72.50L71.25 72.38L71.25 56.25L74.75 56.25Q75.63 56.25 76 55.63Q76.38 55 76.38 53.88L76.38 53.88L76.38 52.25Q76.38 51.13 76 50.50Q75.63 49.88 74.75 49.88L74.75 49.88L71.25 49.88L71.25 37.38Q71.25 36.25 70.88 35.56Q70.50 34.88 69.63 34.88L69.63 34.88L66.50 34.88Q65.75 34.88 65.38 35.56Q65 36.25 64.88 37.38L64.88 37.38L64.25 49.75L62.75 49.75Q62 49.75 61.63 50.38Q61.25 51 61.25 52.13L61.25 52.13L61.25 54Q61.25 55 61.63 55.63Q62 56.25 62.75 56.25L62.75 56.25L64.25 56.25L64.25 72.38Q64.25 73.75 64.38 74.94Q64.50 76.13 64.75 77.25L64.75 77.25Q64.88 78.13 65.19 78.94Q65.50 79.75 65.88 80.38L65.88 80.38Q66.25 81 66.75 81.50Q67.25 82 67.75 82.38L67.75 82.38L70 83.25L72.25 83.50L75.50 83.50Q76.38 83.50 76.81 82.88Q77.25 82.25 77.25 81.38L77.25 81.38L77.25 79.38Q77.25 78.63 76.81 78.06Q76.38 77.50 75.63 77.50L75.63 77.50L73.38 77.50L72.63 77.38L72 76.75Q71.88 76.63 71.69 76.25Q71.50 75.88 71.38 75.38L71.38 75.38L71.25 72.50ZM80.63 88.13L80.75 88.13Q80.75 88.75 80.75 89.25Q80.75 89.75 81.13 90L81.13 90Q81.75 90.88 82.75 91.31Q83.75 91.75 85.13 91.75L85.13 91.75L85.50 91.75Q86.38 91.75 87.13 91.50Q87.88 91.25 88.50 90.75L88.50 90.75Q89.13 90.38 89.63 89.63Q90.13 88.88 90.50 87.75L90.50 87.75Q91 86.88 91.38 85.44Q91.75 84 92.13 82.13L92.13 82.13L97.75 52.75L97.75 51.88Q97.75 51 97.44 50.44Q97.13 49.88 96.38 49.88L96.38 49.88L93.75 49.88Q93.38 49.88 93.06 50.06Q92.75 50.25 92.50 50.50L92.50 50.50Q92.25 50.75 92.13 51.19Q92 51.63 91.88 52.25L91.88 52.25L89.25 70L85.88 52Q85.88 51.50 85.69 51.13Q85.50 50.75 85.25 50.38L85.25 50.38Q85 50.13 84.69 50Q84.38 49.88 84 49.88L84 49.88L80 49.88Q79.38 49.88 79.06 50.38Q78.75 50.88 78.75 51.88L78.75 51.88L78.75 52.63L85 78.50L85.63 81.75Q85.63 82.88 85.50 83.63Q85.38 84.38 85.25 84.75L85.25 84.75Q85.13 85 85 85.19Q84.88 85.38 84.75 85.50L84.75 85.50L84.75 85.50L84.63 85.50Q84.25 85.50 84 85.44Q83.75 85.38 83.50 85.25L83.50 85.25L83.50 85.25L82.13 84.88Q81.25 84.88 80.94 85.69Q80.63 86.50 80.63 88.13L80.63 88.13ZM31.25 38.88L31.25 38.75Q30.50 39 30.19 39.56Q29.88 40.13 29.88 41L29.88 41L29.88 44Q29.88 45 30.25 45.63Q30.63 46.25 31.38 46.25L31.38 46.25L33.38 45.75L33.38 80.75Q33.38 82.13 33.81 82.94Q34.25 83.75 35.13 83.75L35.13 83.75L39.75 83.75Q40.75 83.75 41.06 82.94Q41.38 82.13 41.38 80.75L41.38 80.75L41.38 39Q41.38 38 41.06 37.38Q40.75 36.75 40 36.75L40 36.75L39.50 36.75L31.25 38.88Z"/></svg>