<svg xmlns="http://www.w3.org/2000/svg" xmlns:xlink="http://www.w3.org/1999/xlink" width="128" height="128"><path fill="#ffffff" d="M120.88 64.75L120.88 64.75Q120.88 74.50 120.94 84.13Q121 93.75 120.75 103.25L120.75 103.25Q120.63 106.75 118.31 108.25Q116 109.75 112.63 109.75L112.63 109.75Q106.50 109.75 100.38 109.75L100.38 109.75Q94.25 109.75 88.13 109.75Q82 109.75 75.88 109.75L75.88 109.75Q69.75 109.75 63.63 109.75L63.63 109.75L37.88 109.75Q40 107.38 43.44 104.19Q46.88 101 46.88 101L46.88 101Q46.88 101 49.19 100.25Q51.50 99.50 53.50 99.38L53.50 99.38Q56 99.13 59.31 98.38Q62.63 97.63 62.63 97.63L62.63 97.63Q62.63 97.63 63.81 94.56Q65 91.50 65.50 89.25L65.50 89.25Q65.75 87.75 66.56 85.75Q67.38 83.75 67.38 83.75L67.38 83.75L73.50 83.75L88.50 83.63Q88.50 83.63 89.94 79.38Q91.38 75.13 92.13 72.38L92.13 72.38Q98.13 71.63 106.75 68.88Q115.38 66.13 120.88 64.75ZM26.88 85.13L26.88 85.13Q26 87.88 26.19 91Q26.38 94.13 22.75 95.38L22.75 95.38Q19 96.63 15.44 98.94Q11.88 101.25 6.50 99.50L6.50 99.50Q8.38 98.50 9.50 97.06Q10.63 95.63 12.13 94.88L12.13 94.88Q12.50 94.63 13.19 94.19Q13.88 93.75 13.88 93.75L13.88 93.75L15.38 94.88Q15.38 94.88 16 94.63Q16.63 94.38 17 94.13L17 94.13Q18.25 93.38 19.56 91.88Q20.88 90.38 22 89.25L22 89.25Q23.25 88.25 24.50 87.25Q25.75 86.25 26.88 85.13L26.88 85.13ZM113.75 46.38L113.75 46.38Q113.63 45.88 113.44 45.50Q113.25 45.13 113.25 45.13L113.25 45.13Q113.25 45.13 110.69 46.69Q108.13 48.25 106.88 48.63L106.88 48.63Q105.75 49 104.75 49.50Q103.75 50 103 47.88L103 47.88Q102.25 46.13 103 45.69Q103.75 45.25 104.88 44.88L104.88 44.88Q107.38 44 109.81 43.06Q112.25 42.13 114.75 41.25L114.75 41.25Q116.25 40.75 117.94 40.88Q119.63 41 120.13 42.63L120.13 42.63Q120.38 43.13 120.25 43.63Q120.13 44.13 120.13 44.13L120.13 44.13Q120.13 44.13 118.88 44.56Q117.63 45 116.75 45.38L116.75 45.38Q116.13 45.63 115.25 45.88Q114.38 46.13 113.75 46.38ZM36.13 38.75L36.13 38.75Q35 39 34.81 38.38Q34.63 37.75 34.50 37.25L34.50 37.25Q34.38 35.63 35.50 35.25Q36.63 34.88 37.50 34.38L37.50 34.38Q38.25 34 38.69 34.50Q39.13 35 39.25 35.63L39.25 35.63Q39.63 37.25 38.19 37.75Q36.75 38.25 36.13 38.75ZM33.50 33L33.50 33Q32.63 33.13 32.19 32.69Q31.75 32.25 31.75 31.50L31.75 31.50Q31.63 30.38 32.31 29.63Q33 28.88 34.13 28.88L34.13 28.88Q35 28.88 35.81 29.31Q36.63 29.75 36.50 30.88L36.50 30.88Q36.25 31.88 35.25 32.19Q34.25 32.50 33.50 33ZM118 53.13L118 53.13Q115.75 52.75 113.44 52.44Q111.13 52.13 108.88 52.25L108.88 52.25Q104.25 52.50 101.81 50.38Q99.38 48.25 98.38 43.88L98.38 43.88Q97.88 41.63 97.94 39.31Q98 37 98 34.75L98 34.75Q98 34.13 97.88 33.38Q97.75 32.63 98.13 32.63L98.13 32.63Q101.38 31.88 102.31 30.88Q103.25 29.88 104.88 28L104.88 28Q105.13 27.75 106.25 27.50Q107.38 27.25 108.13 26.38L108.13 26.38Q108.13 26.38 108.25 24.31Q108.38 22.25 107.25 21.13L107.25 21.13Q107 20.88 105.06 21Q103.13 21.13 102.75 21.13L102.75 21.13Q100.38 20.50 99.94 20Q99.50 19.50 96.13 20.63L96.13 20.63Q95.75 20.75 94.50 21.56Q93.25 22.38 92.88 22.75L92.88 22.75Q91.88 23.38 90.63 23.63Q89.38 23.88 89.38 23.88L89.38 23.88Q89.38 23.88 89.50 24.44Q89.63 25 89.75 25.25L89.75 25.25Q85.75 28.13 81.94 31.13Q78.13 34.13 74.88 37.88L74.88 37.88Q74 39 73.06 40Q72.13 41 70.88 41.75L70.88 41.75Q65.50 44.63 60 47.50L60 47.50Q54.63 50.38 49.25 53.25Q43.88 56.13 38.50 59.13L38.50 59.13Q33.13 62 27.63 64.88L27.63 64.88Q25 66.38 22.75 66.13Q20.50 65.88 19 63.13L19 63.13Q17.38 60.13 18.75 58.19Q20.13 56.25 22.63 55L22.63 55Q25.50 53.50 28.31 52Q31.13 50.50 33.88 49L33.88 49Q36.25 47.63 37.81 45.50Q39.38 43.38 39.75 40L39.75 40Q34.13 43 28.81 45.81Q23.50 48.63 18.38 51.63L18.38 51.63Q14.50 53.88 13.50 57.75Q12.50 61.63 14.38 65.38L14.38 65.38Q16.25 69.25 20.25 70.63Q24.25 72 28.38 70.25L28.38 70.25Q29.75 69.63 31.19 68.81Q32.63 68 34.75 67L34.75 67Q34.38 69.75 34.94 71.94Q35.50 74.13 36.25 76.13L36.25 76.13Q37.13 78.38 36.50 80.31Q35.88 82.25 33.63 82.75L33.63 82.75Q31.13 83.38 30.50 84.88Q29.88 86.38 29.38 88.25L29.38 88.25Q28.75 91.38 28.31 94.88Q27.88 98.38 25.88 100.25L25.88 100.25Q25.50 100.63 25 101.31Q24.50 102 23.50 102L23.50 102Q23.38 103.25 23.19 104.38Q23 105.50 22.63 106.88L22.63 106.88Q22.50 107.63 22.63 108.19Q22.75 108.75 22.75 108.75L22.75 108.75Q23.38 108.88 24 108.81Q24.63 108.75 25.13 108.50L25.13 108.50Q26.38 108.13 26.94 107.13Q27.50 106.13 28 105.13L28 105.13Q29.88 101.88 31.69 98.63Q33.50 95.38 35.25 92.25L35.25 92.25Q35.88 91 36.69 90.19Q37.50 89.38 39 89.13L39 89.13Q46.13 87.88 49.94 83.56Q53.75 79.25 54.50 72.25L54.50 72.25Q54.75 70.50 55.38 69.63Q56 68.75 58.13 68.75L58.13 68.75Q65.63 68.50 72.19 65.75Q78.75 63 84.13 58.13L84.13 58.13Q87.50 55.13 90.25 53.69Q93 52.25 97.75 55.50L97.75 55.50Q100.75 57.38 104.31 57Q107.88 56.63 111.50 56.50L111.50 56.50Q112 56.50 113.19 55.88Q114.38 55.25 114.38 55.25L114.38 55.25Q114.38 55.25 114.38 55.81Q114.38 56.38 114.50 56.50L114.50 56.50Q115.38 56.63 116.06 56.81Q116.75 57 117.50 57.25L117.50 57.25Q117.88 57.38 119.06 57.38Q120.25 57.38 120.25 57.38L120.25 57.38Q120.25 57.38 120.31 57.13Q120.38 56.88 120.50 56.38L120.50 56.38Q120.88 55 120 54.19Q119.13 53.38 118 53.13L118 53.13ZM99.88 22L99.88 22Q100.50 22 100.81 22.38Q101.13 22.75 101.13 23.25L101.13 23.25Q101.13 23.75 100.88 24.19Q100.63 24.63 100 24.75L100 24.75Q99.50 24.75 99.13 24.44Q98.75 24.13 98.63 23.63L98.63 23.63Q98.38 22.88 98.81 22.44Q99.25 22 99.88 22L99.88 22ZM41.88 62.50L41.88 62.50Q42.75 62.38 42.94 62.94Q43.13 63.50 43.25 64L43.25 64Q43 64.50 42.81 64.94Q42.63 65.38 42 65.38L42 65.38Q41.13 65.38 40.94 64.88Q40.75 64.38 40.75 63.75L40.75 63.75Q40.75 63.25 41 62.88Q41.25 62.50 41.88 62.50L41.88 62.50ZM40.25 73.63L40.25 73.63Q39.63 73.50 39.31 73Q39 72.50 39.13 71.88L39.13 71.88Q39.38 71.50 39.75 71.13Q40.13 70.75 40.50 70.75L40.50 70.75Q41.13 70.63 41.50 71.13Q41.88 71.63 41.88 72.38L41.88 72.38Q41.75 73 41.38 73.44Q41 73.88 40.25 73.63L40.25 73.63ZM43 82.13L43 82.13Q42.50 82.25 42.13 81.94Q41.75 81.63 41.75 81.13L41.75 81.13Q41.63 80.50 41.81 79.94Q42 79.38 42.75 79.13L42.75 79.13Q43.38 79.13 43.63 79.44Q43.88 79.75 44 80.38L44 80.38Q44.13 81 43.94 81.50Q43.75 82 43 82.13ZM47.88 76.38L47.88 76.38Q47.25 76.38 47 75.94Q46.75 75.50 46.75 75L46.75 75Q46.75 74.38 47 73.81Q47.25 73.25 48.13 73.25L48.13 73.25Q48.63 73.25 48.88 73.75Q49.13 74.25 49.25 74.75L49.25 74.75Q49.13 75.38 48.94 75.88Q48.75 76.38 47.88 76.38ZM49.50 68.88L49.50 68.88Q49.25 68.88 48.81 68.50Q48.38 68.13 48.25 67.75L48.25 67.75Q48 67 48.31 66.50Q48.63 66 49.25 65.88L49.25 65.88Q50 65.63 50.31 66.13Q50.63 66.63 50.88 67.13L50.88 67.13Q51 67.88 50.56 68.31Q50.13 68.75 49.50 68.88ZM51.75 59L51.75 59Q51.63 59.25 51.25 59.63Q50.88 60 50.50 59.88L50.50 59.88Q49.88 59.88 49.44 59.38Q49 58.88 49.25 58.13L49.25 58.13Q49.38 57.75 49.81 57.25Q50.25 56.75 50.50 56.75L50.50 56.75Q51.13 56.88 51.50 57.44Q51.88 58 51.75 59L51.75 59ZM59 63.63L59 63.63Q58.88 63.88 58.69 64.13Q58.50 64.38 58.25 64.50L58.25 64.50Q58 64.75 57.69 64.75Q57.38 64.75 57.13 64.50L57.13 64.50Q56.88 64.38 56.69 64.13Q56.50 63.88 56.50 63.63L56.50 63.63Q56.38 63.13 56.63 62.69Q56.88 62.25 57.25 62L57.25 62Q57.50 61.88 57.75 61.88Q58 61.88 58.13 62L58.13 62Q58.63 62.25 58.88 62.69Q59.13 63.13 59 63.63L59 63.63ZM60.75 55.88L60.75 55.88Q60.63 56.25 60.25 56.50Q59.88 56.75 59.63 57L59.63 57Q58.75 56.63 58.44 56.13Q58.13 55.63 58.38 55L58.38 55Q58.50 54.63 58.94 54.31Q59.38 54 59.75 54L59.75 54Q60.38 54.13 60.69 54.69Q61 55.25 60.75 55.88L60.75 55.88ZM66.13 48.25L66.13 48.25Q66.75 48.25 67.13 48.75Q67.50 49.25 67.25 50.25L67.25 50.25Q67.25 50.63 66.88 51Q66.50 51.38 65.75 51.13L65.75 51.13Q65.38 51 65 50.56Q64.63 50.13 64.63 49.75L64.63 49.75Q64.63 49.13 65 48.63Q65.38 48.13 66.13 48.25ZM66.38 63.63L66.38 63.63Q65.75 63.63 65.50 63.25Q65.25 62.88 65.25 62.38L65.25 62.38Q65.25 61.75 65.44 61.19Q65.63 60.63 66.50 60.63L66.50 60.63Q67.13 60.63 67.38 61.06Q67.63 61.50 67.63 62L67.63 62Q67.63 62.63 67.44 63.13Q67.25 63.63 66.38 63.63L66.38 63.63ZM71.50 55.75L71.50 55.75Q71.50 56.38 71.13 56.63Q70.75 56.88 70.13 56.88L70.13 56.88Q69.38 56.63 69.25 56.06Q69.13 55.50 69.25 54.88L69.25 54.88Q69.25 54.38 69.63 54Q70 53.63 70.63 53.75L70.63 53.75Q71.38 54 71.50 54.56Q71.63 55.13 71.50 55.75ZM75.25 50L75.25 50Q74.50 50.25 74.13 49.75Q73.75 49.25 73.75 48.63L73.75 48.63Q73.63 47.88 74 47.50Q74.38 47.13 75.13 47L75.13 47Q75.75 47.13 76.19 47.56Q76.63 48 76.38 48.63L76.38 48.63Q76.25 49.13 75.94 49.56Q75.63 50 75.25 50ZM78.75 57.13L78.75 57.13Q78.63 57.75 78.31 58.06Q78 58.38 77.38 58.38L77.38 58.38Q76.75 58.25 76.38 57.81Q76 57.38 76.13 56.63L76.13 56.63Q76.13 56 76.50 55.69Q76.88 55.38 77.50 55.38L77.50 55.38Q78.25 55.38 78.50 55.88Q78.75 56.38 78.75 57.13L78.75 57.13ZM78.50 43.38L78.50 43.38Q77.75 43.50 77.38 43.06Q77 42.63 77 41.88L77 41.88Q77 41.38 77.38 40.81Q77.75 40.25 78.50 40.38L78.50 40.38Q78.88 40.50 79.13 40.94Q79.38 41.38 79.63 41.63L79.63 41.63Q79.50 42.38 79.31 42.81Q79.13 43.25 78.50 43.38ZM84.38 51.75L84.38 51.75Q84.25 52.25 83.88 52.63Q83.50 53 83 52.75L83 52.75Q82.25 52.63 82 52.06Q81.75 51.50 82 50.88L82 50.88Q82.13 50.38 82.44 50.06Q82.75 49.75 83.38 49.75L83.38 49.75Q84 50.13 84.31 50.63Q84.63 51.13 84.38 51.75ZM84.75 45.38L84.75 45.38Q84.13 45.38 83.94 44.94Q83.75 44.50 83.75 44L83.75 44Q83.88 43.38 84.19 42.81Q84.50 42.25 85.25 42.50L85.25 42.50Q85.63 42.63 85.88 43.06Q86.13 43.50 86.38 43.75L86.38 43.75Q86.25 44.63 85.94 45.06Q85.63 45.50 84.75 45.38ZM85.63 36.88L85.63 36.88Q85.13 37 84.75 36.69Q84.38 36.38 84.13 35.88L84.13 35.88Q83.88 35.13 84.19 34.63Q84.50 34.13 85 33.88L85 33.88Q85.75 33.88 86.13 34.06Q86.50 34.25 86.75 34.88L86.75 34.88Q86.88 35.50 86.63 36.06Q86.38 36.63 85.63 36.88ZM92 30.63L92 30.63Q92.63 30.63 93.06 30.88Q93.50 31.13 93.63 31.63L93.63 31.63Q93.75 32.25 93.50 32.81Q93.25 33.38 92.50 33.63L92.50 33.63Q92 33.75 91.63 33.44Q91.25 33.13 91.13 32.63L91.13 32.63Q90.88 31.88 91.13 31.38Q91.38 30.88 92 30.63ZM90.50 40L90.50 40Q90.50 39.50 90.75 39.06Q91 38.63 91.63 38.50L91.63 38.50Q92.38 38.38 92.69 38.88Q93 39.38 93 40.13L93 40.13Q93 40.63 92.81 41.06Q92.63 41.50 92 41.63L92 41.63Q91.13 41.75 90.81 41.25Q90.50 40.75 90.50 40ZM93.50 48.13L93.50 48.13Q93.13 48.13 92.75 47.69Q92.38 47.25 92.25 46.88L92.25 46.88Q92 46.25 92.38 45.81Q92.75 45.38 93.25 45.13L93.25 45.13Q94.13 45.13 94.50 45.50Q94.88 45.88 94.88 46.63L94.88 46.63Q94.88 47.25 94.50 47.75Q94.13 48.25 93.50 48.13Z"/></svg>