<svg xmlns="http://www.w3.org/2000/svg" xmlns:xlink="http://www.w3.org/1999/xlink" width="128" height="128"><path fill="#ffffff" d="M63.75 110.75L63.75 110.75L63.75 92.50Q71 92.50 77.13 89.25L77.13 89.25Q83.25 86 87.19 80.56Q91.13 75.13 92.25 68L92.25 68Q93.38 61 90.50 53.38L90.50 53.38Q88.50 47.88 84.25 43.56Q80 39.25 74.25 37.13L74.25 37.13Q66.75 34.50 59.75 35.63L59.75 35.63Q52.75 36.88 47.31 40.75Q41.88 44.63 38.50 50.75L38.50 50.75Q35.25 56.75 35.25 63.88L35.25 63.88L17 63.88Q17 52.50 22.13 42.75L22.13 42.75Q27.25 33 35.81 26.63Q44.38 20.25 55.63 18L55.63 18Q66.75 15.88 78.88 19.50L78.88 19.50Q84.25 21.25 88.88 24L88.88 24Q93.50 26.88 97.31 30.69Q101.13 34.50 104 39.13L104 39.13Q106.88 43.75 108.50 49L108.50 49Q112.25 61.13 110 72.25L110 72.25Q107.75 83.38 101.31 91.94Q94.88 100.50 85.13 105.63L85.13 105.63Q75.25 110.75 63.75 110.75L63.75 110.75L63.75 110.75ZM64 74.63L64 92.50L45.75 92.50L45.75 74.63L64 74.63ZM45.75 92.50L45.75 106.63L31.88 106.63L31.88 92.50L45.75 92.50ZM31.88 81L31.88 92.50L20.38 92.50L20.38 81L31.88 81Z"/></svg>