<svg xmlns="http://www.w3.org/2000/svg" xmlns:xlink="http://www.w3.org/1999/xlink" width="128" height="128"><path fill="#ffffff" d="M17.63 85.88L17.63 85.88Q16.50 85.25 15.19 84.81Q13.88 84.38 12.38 84.38L12.38 84.38L7.88 84.38L7.88 99L12.38 99Q13.88 99 15.19 98.63Q16.50 98.25 17.63 97.38L17.63 97.38Q18.13 97 18.63 96.44Q19.13 95.88 19.38 95.13L19.38 95.13Q19.75 94.38 19.88 93.50Q20 92.63 20 91.63L20 91.63Q20 90.75 19.88 89.88Q19.75 89 19.38 88.25L19.38 88.25Q19.13 87.50 18.63 86.88Q18.13 86.25 17.63 85.88L17.63 85.88L17.63 85.88ZM10.50 86.88L10.50 86.88L11.88 86.88Q13 86.88 14 87.13Q15 87.38 15.75 87.88L15.75 87.88Q16.63 88.38 17 89.31Q17.38 90.25 17.38 91.63L17.38 91.63Q17.38 93.13 16.94 94.13Q16.50 95.13 15.75 95.63L15.75 95.63Q15 96.13 14.06 96.38Q13.13 96.63 12 96.63L12 96.63L10.50 96.63L10.50 86.88ZM23.25 84.25L23.25 84.25Q22.88 84.25 22.63 84.31Q22.38 84.38 22.13 84.63L22.13 84.63Q21.88 84.88 21.75 85.13Q21.63 85.38 21.63 85.75L21.63 85.75Q21.63 86.13 21.69 86.38Q21.75 86.63 22 86.88L22 86.88Q22.25 87.13 22.50 87.25Q22.75 87.38 23.13 87.38L23.13 87.38Q23.50 87.38 23.75 87.25Q24 87.13 24.25 86.88L24.25 86.88Q24.38 86.63 24.50 86.38Q24.63 86.13 24.63 85.75L24.63 85.75Q24.63 85.38 24.50 85.13Q24.38 84.88 24.25 84.63L24.25 84.63Q24 84.38 23.75 84.31Q23.50 84.25 23.25 84.25L23.25 84.25L23.25 84.25ZM21.88 98.88L21.88 88.63L24.38 88.63L24.38 98.88L21.88 98.88ZM33.50 89.63L33.50 89.63Q33 89.13 32.38 88.81Q31.75 88.50 31 88.50L31 88.50Q30 88.50 29.13 88.88Q28.25 89.25 27.63 90L27.63 90Q26.88 90.63 26.50 91.56Q26.13 92.50 26.13 93.63L26.13 93.63Q26.13 94.63 26.50 95.56Q26.88 96.50 27.50 97.25L27.50 97.25Q28.13 98 29 98.38Q29.88 98.75 30.88 98.75L30.88 98.75Q31.63 98.75 32.25 98.50Q32.88 98.25 33.38 97.88L33.38 97.88L33.38 98.13Q33.38 98.75 33.25 99.25Q33.13 99.75 32.75 100L32.75 100Q32.38 100.38 31.94 100.56Q31.50 100.75 30.88 100.75L30.88 100.75Q30 100.75 29.44 100.38Q28.88 100 28.13 99L28.13 99L26.38 100.75L26.50 100.75Q26.75 101.13 27.19 101.56Q27.63 102 28.13 102.38L28.13 102.38Q28.75 102.75 29.44 102.94Q30.13 103.13 30.88 103.13L30.88 103.13Q32.13 103.13 33 102.75Q33.88 102.38 34.50 101.63L34.50 101.63Q35.13 101 35.50 100.06Q35.88 99.13 35.88 98L35.88 98L35.88 88.63L33.38 88.63L33.38 89.63L33.50 89.63ZM32.88 95.63L32.88 95.63Q32.63 96 32.19 96.19Q31.75 96.38 31.13 96.38L31.13 96.38Q30.63 96.38 30.19 96.19Q29.75 96 29.38 95.63L29.38 95.63Q29.13 95.25 28.94 94.75Q28.75 94.25 28.75 93.63L28.75 93.63Q28.75 93 28.94 92.50Q29.13 92 29.38 91.63L29.38 91.63Q29.75 91.25 30.19 91.06Q30.63 90.88 31.13 90.88L31.13 90.88Q31.75 90.88 32.19 91.06Q32.63 91.25 32.88 91.63L32.88 91.63Q33.25 92 33.38 92.50Q33.50 93 33.50 93.63L33.50 93.63Q33.50 94.25 33.38 94.75Q33.25 95.25 32.88 95.63ZM38.25 98.88L38.25 88.63L40.75 88.63L40.75 98.88L38.25 98.88ZM39.50 84.25L39.50 84.25Q39.13 84.25 38.88 84.31Q38.63 84.38 38.38 84.63L38.38 84.63Q38.13 84.88 38 85.13Q37.88 85.38 37.88 85.75L37.88 85.75Q37.88 86.13 38 86.38Q38.13 86.63 38.38 86.88L38.38 86.88Q38.63 87.13 38.88 87.25Q39.13 87.38 39.50 87.38L39.50 87.38Q39.75 87.38 40.06 87.25Q40.38 87.13 40.63 86.88L40.63 86.88Q40.75 86.63 40.88 86.38Q41 86.13 41 85.75L41 85.75Q41 85.38 40.88 85.13Q40.75 84.88 40.63 84.63L40.63 84.63Q40.38 84.38 40.06 84.31Q39.75 84.25 39.50 84.25ZM46.25 85.88L46.25 85.88L43.75 85.88L43.75 88.63L42.38 88.63L42.38 91L43.75 91L43.75 95.25Q43.75 96.25 44 97Q44.25 97.75 44.63 98.13L44.63 98.13Q45 98.50 45.69 98.69Q46.38 98.88 47.25 98.88L47.25 98.88Q47.63 98.88 47.94 98.88Q48.25 98.88 48.50 98.88L48.50 98.88L48.63 98.88L48.63 96.50L47.75 96.63Q47.38 96.63 47.06 96.56Q46.75 96.50 46.63 96.25L46.63 96.25Q46.50 96.13 46.44 95.81Q46.38 95.50 46.38 95L46.38 95L46.38 91.13L48.63 91.13L48.63 88.75L46.38 88.75L46.38 85.88L46.25 85.88ZM60.38 99L60.38 84.38L63 84.38L63 99L60.38 99ZM88.50 95.38L88.50 95.38Q88.13 95.75 87.75 96.06Q87.38 96.38 87.25 96.50L87.25 96.50Q86.88 96.75 86.56 96.81Q86.25 96.88 85.88 96.88L85.88 96.88Q85.38 96.88 84.94 96.69Q84.50 96.50 84.13 96.13L84.13 96.13Q83.63 95.63 83.50 95.13Q83.38 94.63 83.38 93.88L83.38 93.88Q83.38 93.25 83.50 92.75Q83.63 92.25 84.13 91.75L84.13 91.75Q84.50 91.25 84.94 91.06Q85.38 90.88 85.88 90.88L85.88 90.88Q86.50 90.88 87.13 91.25Q87.75 91.63 88.25 92.38L88.25 92.38L90 90.75Q89.13 89.63 88.13 89.13Q87.13 88.63 85.88 88.63L85.88 88.63Q84.75 88.63 83.88 89Q83 89.38 82.25 90.13L82.25 90.13Q81.50 91 81.13 91.94Q80.75 92.88 80.75 94L80.75 94Q80.75 95.13 81.13 96.13Q81.50 97.13 82.25 97.75L82.25 97.75Q83 98.63 83.88 99Q84.75 99.38 85.88 99.38L85.88 99.38Q87.13 99.38 88.25 98.75Q89.38 98.13 90.13 97L90.13 97L88.50 95.38ZM98.75 90.13L98.75 90.13Q98.50 89.75 98.13 89.50Q97.75 89.25 97.25 89L97.25 89Q96.88 88.75 96.31 88.63Q95.75 88.50 95.13 88.50L95.13 88.50Q94.13 88.50 93.25 88.94Q92.38 89.38 91.75 90.13L91.75 90.13Q91.13 90.88 90.81 91.81Q90.50 92.75 90.50 93.88L90.50 93.88Q90.50 95.13 90.81 96.06Q91.13 97 91.88 97.75L91.88 97.75Q92.63 98.50 93.50 98.88Q94.38 99.25 95.50 99.25L95.50 99.25Q96.75 99.25 97.81 98.75Q98.88 98.25 99.63 97.13L99.63 97.13L99.75 97L98.13 95.38Q98 95.63 97.81 95.75Q97.63 95.88 97.50 96L97.50 96Q97.38 96.13 97.13 96.31Q96.88 96.50 96.75 96.50L96.75 96.50Q96.50 96.75 96.19 96.81Q95.88 96.88 95.50 96.88L95.50 96.88Q95 96.88 94.56 96.69Q94.13 96.50 93.75 96.25L93.75 96.25Q93.50 96 93.31 95.56Q93.13 95.13 93 94.63L93 94.63L99.75 94.63L99.75 93.75Q99.75 93.13 99.69 92.69Q99.63 92.25 99.50 91.75L99.50 91.75Q99.38 91.38 99.19 90.94Q99 90.50 98.75 90.13L98.75 90.13L98.75 90.13ZM93.25 92.63L93.25 92.63Q93.38 92.13 93.56 91.88Q93.75 91.63 93.88 91.38L93.88 91.38Q94.25 91.13 94.56 91Q94.88 90.88 95.25 90.88L95.25 90.88Q95.63 90.88 96 91Q96.38 91.13 96.63 91.38L96.63 91.38Q96.88 91.63 97 91.94Q97.13 92.25 97.13 92.63L97.13 92.63L93.25 92.63ZM108.50 89.50L108.50 89.50Q107.88 89 107.06 88.75Q106.25 88.50 105.25 88.50L105.25 88.50Q104.75 88.50 104.13 88.69Q103.50 88.88 103 89L103 89Q102.50 89.38 102.06 89.75Q101.63 90.13 101.25 90.75L101.25 90.75L102.88 92.25Q103.38 91.38 103.94 91.06Q104.50 90.75 105.25 90.75L105.25 90.75Q105.75 90.75 106.06 90.88Q106.38 91 106.63 91.25L106.63 91.25Q106.88 91.50 107 91.75Q107.13 92 107.13 92.38L107.13 92.38L107.13 92.88Q106.63 92.75 106.19 92.69Q105.75 92.63 105.25 92.63L105.25 92.63Q104.38 92.63 103.63 92.81Q102.88 93 102.25 93.50L102.25 93.50Q101.63 93.88 101.38 94.56Q101.13 95.25 101.13 96L101.13 96Q101.13 96.75 101.31 97.31Q101.50 97.88 102 98.38L102 98.38Q102.50 98.75 103.13 98.94Q103.75 99.13 104.38 99.13L104.38 99.13Q105.13 99.13 105.81 98.88Q106.50 98.63 107.13 98.13L107.13 98.13L107.13 98.88L109.63 98.88L109.63 92.38Q109.63 91.50 109.31 90.75Q109 90 108.50 89.50L108.50 89.50L108.50 89.50ZM104 95L104 95Q104.25 94.88 104.50 94.81Q104.75 94.75 105.13 94.75L105.13 94.75Q105.63 94.75 106.13 94.88Q106.63 95 107 95.13L107 95.13L107 96.13Q106.63 96.50 106.06 96.69Q105.50 96.88 104.88 96.88L104.88 96.88Q104.50 96.88 104.25 96.81Q104 96.75 103.88 96.63L103.88 96.63Q103.63 96.38 103.56 96.25Q103.50 96.13 103.50 95.88L103.50 95.88Q103.50 95.63 103.63 95.44Q103.75 95.25 104 95L104 95L104 95ZM119.38 89.63L119.38 89.63Q118.75 89 118.06 88.75Q117.38 88.50 116.38 88.50L116.38 88.50Q115.63 88.50 115 88.69Q114.38 88.88 114 89.38L114 89.38L114 88.75L111.50 88.75L111.50 99L114.13 99L114.13 93.38Q114.13 92.75 114.19 92.25Q114.25 91.75 114.63 91.50L114.63 91.50Q114.88 91.13 115.25 90.94Q115.63 90.75 116 90.75L116 90.75Q116.50 90.75 116.81 90.94Q117.13 91.13 117.38 91.38L117.38 91.38Q117.63 91.63 117.75 92.06Q117.88 92.50 117.88 93L117.88 93L117.88 99L120.38 99L120.38 93Q120.38 92 120.13 91.13Q119.88 90.25 119.38 89.63L119.38 89.63L119.38 89.63ZM57.25 89.50L57.25 89.50Q56.75 89 55.94 88.75Q55.13 88.50 54.13 88.50L54.13 88.50Q53.50 88.50 52.94 88.69Q52.38 88.88 51.75 89L51.75 89Q51.38 89.38 50.88 89.75Q50.38 90.13 50.13 90.75L50.13 90.75L51.75 92.25Q52.25 91.38 52.81 91.06Q53.38 90.75 54.13 90.75L54.13 90.75Q54.50 90.75 54.81 90.88Q55.13 91 55.50 91.25L55.50 91.25Q55.75 91.50 55.88 91.75Q56 92 56 92.38L56 92.38L56 92.88Q55.50 92.75 55.06 92.69Q54.63 92.63 54.13 92.63L54.13 92.63Q53.25 92.63 52.44 92.81Q51.63 93 51.13 93.50L51.13 93.50Q50.50 93.88 50.19 94.56Q49.88 95.25 49.88 96L49.88 96Q49.88 96.75 50.13 97.31Q50.38 97.88 50.88 98.38L50.88 98.38Q51.38 98.75 51.94 98.94Q52.50 99.13 53.25 99.13L53.25 99.13Q54 99.13 54.63 98.88Q55.25 98.63 56 98.13L56 98.13L56 98.88L58.50 98.88L58.50 92.38Q58.50 91.50 58.19 90.75Q57.88 90 57.25 89.50L57.25 89.50L57.25 89.50ZM52.75 95L52.75 95Q53 94.88 53.25 94.81Q53.50 94.75 53.88 94.75L53.88 94.75Q54.38 94.75 54.88 94.88Q55.38 95 55.88 95.13L55.88 95.13L55.88 96.13Q55.38 96.50 54.81 96.69Q54.25 96.88 53.63 96.88L53.63 96.88Q53.25 96.88 53 96.81Q52.75 96.75 52.63 96.63L52.63 96.63Q52.50 96.38 52.38 96.25Q52.25 96.13 52.25 95.88L52.25 95.88Q52.38 95.63 52.50 95.44Q52.63 95.25 52.75 95L52.75 95L52.75 95ZM72.13 99.25L72.13 99.25Q69.13 99.25 66.94 97.06Q64.75 94.88 64.75 91.75L64.75 91.75Q64.75 88.63 66.94 86.44Q69.13 84.25 72.13 84.25L72.13 84.25Q75.13 84.25 77.25 86.44Q79.38 88.63 79.38 91.75L79.38 91.75Q79.38 94.88 77.25 97.06Q75.13 99.25 72.13 99.25ZM72.13 86.88L72.13 86.88Q70.13 86.88 68.75 88.25Q67.38 89.63 67.38 91.63L67.38 91.63Q67.38 93.75 68.75 95.13Q70.13 96.50 72.13 96.50L72.13 96.50Q74.13 96.50 75.50 95.13Q76.88 93.75 76.88 91.63L76.88 91.63Q76.88 89.63 75.50 88.25Q74.13 86.88 72.13 86.88ZM63.38 68.88L63.38 68.88L63.38 60Q70.38 60 74.69 54.13Q79 48.25 76.38 40.88L76.38 40.88Q75.38 38.25 73.31 36.13Q71.25 34 68.50 33L68.50 33Q61.25 30.38 55.50 34.75Q49.75 39.13 49.75 46L49.75 46L41 46Q41 40.50 43.50 35.75L43.50 35.75Q45.88 31 50 27.88Q54.13 24.75 59.50 23.63L59.50 23.63Q64.88 22.63 70.75 24.38L70.75 24.38Q75.88 26 79.63 29.81Q83.38 33.63 85 38.75L85 38.75Q86.75 44.63 85.63 50.13L85.63 50.13Q84.63 55.50 81.50 59.69Q78.38 63.88 73.63 66.38L73.63 66.38Q69 68.88 63.38 68.88L63.38 68.88L63.38 68.88ZM63.63 51.25L63.63 60L54.75 60L54.75 51.25L63.63 51.25ZM54.75 60L54.75 66.88L48.13 66.88L48.13 60L54.75 60ZM48.13 54.38L48.13 60L42.63 60L42.63 54.38L48.13 54.38Z"/></svg>