<svg xmlns="http://www.w3.org/2000/svg" xmlns:xlink="http://www.w3.org/1999/xlink" width="128" height="128"><path fill="#000000" d="M107.13 1.25L107.13 1.25Q101.75 1.38 96.25 4.63L96.25 4.63Q90.75 7.75 86.75 12.75Q82.75 17.75 81 23.88L81 23.88Q79.25 30.13 81.50 36.38L81.50 36.38Q83.88 42.63 85.75 48.13L85.75 48.13Q87.63 53.50 89.06 59Q90.50 64.50 91.38 70.38L91.38 70.38Q92.25 76.25 92.63 83.25L92.63 83.25Q98.25 77.50 103.50 71.50L103.50 71.50Q108.75 65.63 112.88 59.31Q117 53 119.63 46.38L119.63 46.38Q122.25 39.63 122.63 32.50L122.63 32.50Q122.88 20.88 118.19 12.69Q113.50 4.50 107.13 1.25ZM69.50 70L69.50 70Q68 72.88 65.88 76Q63.75 79.13 61 82.50L61 82.50Q58 86.13 55.38 90.88L55.38 90.88Q52.63 95.63 50.63 101.31Q48.63 107 47.88 113.38L47.88 113.38Q47 119.75 47.88 126.75L47.88 126.75Q59.75 125.50 67.88 120.88L67.88 120.88Q75.88 116.13 80.75 110.13Q85.63 104.13 87.88 97.63L87.88 97.63Q90.13 91.25 90.50 86.38L90.50 86.38Q86 79.50 79.31 75.38Q72.63 71.25 69.50 70ZM5.50 12.88L5.50 12.88Q5 18.25 6.25 24.75L6.25 24.75Q7.38 31.25 10.81 37.31Q14.25 43.38 20.25 48.38L20.25 48.38Q26.38 53.38 35.88 56L35.88 56Q43.88 58.38 49.94 60.13Q56 61.88 62 64L62 64Q70.88 67.25 77.94 71.69Q85 76.13 90.50 83.25L90.50 83.25Q90 77.13 88.50 70.75L88.50 70.75Q87 64.25 84.63 57.88Q82.25 51.50 79 45.38L79 45.38Q75.75 39.25 71.75 33.75L71.75 33.75Q66 26 58.38 20.38L58.38 20.38Q50.75 14.75 42.06 11.88Q33.38 9 24 9.13L24 9.13Q14.63 9.13 5.50 12.88L5.50 12.88Z"/></svg>