<svg xmlns="http://www.w3.org/2000/svg" xmlns:xlink="http://www.w3.org/1999/xlink" width="128" height="128"><path fill="#000000" d="M96.63 1.88L96.63 1.88Q92.63 2 88.38 4.38L88.38 4.38Q84.25 6.75 81.19 10.56Q78.13 14.38 76.88 19L76.88 19Q75.50 23.75 77.25 28.50L77.25 28.50Q80.75 37.88 82.94 45.63Q85.13 53.38 85.63 63.88L85.63 63.88Q89.88 59.63 93.88 55.13L93.88 55.13Q97.88 50.63 101 45.88Q104.13 41.13 106.13 36L106.13 36Q108.13 31 108.38 25.50L108.38 25.50Q108.63 16.75 105.06 10.56Q101.50 4.38 96.63 1.88ZM84 66.25L84 66.25Q80.63 61.13 75.56 58Q70.50 54.88 68.25 53.88L68.25 53.88Q67 56.13 65.38 58.50Q63.75 60.88 61.63 63.38L61.63 63.38Q57.25 68.88 53.81 77.63Q50.38 86.38 51.75 96.88L51.75 96.88Q60.75 95.88 66.88 92.38L66.88 92.38Q73 88.88 76.69 84.31Q80.38 79.75 82.13 74.88L82.13 74.88Q83.75 70 84 66.25L84 66.25ZM42.75 43.25L42.75 43.25Q48.75 45.13 53.31 46.44Q57.88 47.75 62.50 49.38L62.50 49.38Q69.25 51.88 74.56 55.25Q79.88 58.63 84 64L84 64Q83.63 59.38 82.50 54.50L82.50 54.50Q81.38 49.63 79.56 44.75Q77.75 39.88 75.38 35.25L75.38 35.25Q72.88 30.63 69.88 26.50L69.88 26.50Q65.50 20.63 59.75 16.38L59.75 16.38Q54 12.13 47.44 9.94Q40.88 7.75 33.75 7.75L33.75 7.75Q26.63 7.88 19.63 10.63L19.63 10.63Q19.38 14.75 20.25 19.63L20.25 19.63Q21.13 24.50 23.69 29.13Q26.25 33.75 30.88 37.50L30.88 37.50Q35.50 41.38 42.75 43.25L42.75 43.25ZM28.50 119.88L28.50 119.88L28.50 106Q28.50 105.88 28.38 105.75Q28.25 105.63 28.13 105.63L28.13 105.63L26.13 105.63Q25.88 105.63 25.75 105.75Q25.63 105.88 25.63 106L25.63 106L25.63 119.88Q25.63 120 25.75 120.19Q25.88 120.38 26.13 120.38L26.13 120.38L28.13 120.38Q28.25 120.38 28.38 120.19Q28.50 120 28.50 119.88ZM18 120.25L18 120.25L18 105.63Q17.13 105.75 16.13 106.31Q15.13 106.88 15.13 108L15.13 108L15.13 118Q14.63 118 14 118.06Q13.38 118.13 13 118.13L13 118.13Q11.63 118.13 11.13 117.25Q10.63 116.38 10.63 115L10.63 115L10.63 107.88Q10.63 106.63 9.50 106.13Q8.38 105.63 7.75 105.75L7.75 105.75L7.75 115Q7.75 117.63 9.06 119.06Q10.38 120.50 13 120.50L13 120.50Q13.38 120.50 14.06 120.44Q14.75 120.38 15.13 120.25L15.13 120.25L15.13 120.38Q15.38 122.63 13.50 122.38Q11.63 122.13 10.13 122L10.13 122Q9.13 122 8.44 122.75Q7.75 123.50 7.63 124.50L7.63 124.50Q8.25 124.63 9.88 124.88Q11.50 125.13 12.88 125.13L12.88 125.13Q15.38 125.13 16.69 123.88Q18 122.63 18 120.25L18 120.25ZM23.25 119.88L23.25 119.88L23.25 106Q23.25 105.88 23.13 105.75Q23 105.63 22.75 105.63L22.75 105.63L20.75 105.63Q20.63 105.63 20.50 105.75Q20.38 105.88 20.38 106L20.38 106L20.38 119.88Q20.38 120 20.50 120.19Q20.63 120.38 20.75 120.38L20.75 120.38L22.75 120.38Q23 120.38 23.13 120.19Q23.25 120 23.25 119.88ZM21.75 101.75L21.75 101.75Q22.38 101.75 22.81 102.19Q23.25 102.63 23.25 103.25L23.25 103.25Q23.25 103.75 22.81 104.19Q22.38 104.63 21.75 104.63L21.75 104.63Q21.13 104.63 20.69 104.19Q20.25 103.75 20.25 103.25L20.25 103.25Q20.25 102.63 20.69 102.19Q21.13 101.75 21.75 101.75ZM27.13 101.75L27.13 101.75Q27.75 101.75 28.19 102.19Q28.63 102.63 28.63 103.25L28.63 103.25Q28.63 103.75 28.19 104.19Q27.75 104.63 27.13 104.63L27.13 104.63Q26.50 104.63 26.06 104.19Q25.63 103.75 25.63 103.25L25.63 103.25Q25.63 102.63 26.06 102.19Q26.50 101.75 27.13 101.75ZM37.50 105.13L37.50 105.13L37.50 104.38Q37.50 104.13 37.38 104.06Q37.25 104 37 104L37 104Q36.75 103.88 36.19 103.88Q35.63 103.88 35.13 103.88L35.13 103.88Q33.50 103.88 32.63 104.50Q31.75 105.13 31.75 106.88L31.75 106.88L31.75 120Q31.75 120.25 31.88 120.38Q32 120.50 32.13 120.50L32.13 120.50L33.25 120.50Q33.38 120.50 33.50 120.38Q33.63 120.25 33.63 120L33.63 120L33.63 110L37 110Q37.25 110 37.38 109.88Q37.50 109.75 37.50 109.50L37.50 109.50L37.50 108.75Q37.50 108.63 37.38 108.50Q37.25 108.38 37 108.38L37 108.38L33.63 108.38L33.63 106.88Q33.63 105.88 33.88 105.63Q34.13 105.38 35.13 105.38L35.13 105.38L37 105.38Q37.25 105.38 37.38 105.31Q37.50 105.25 37.50 105.13L37.50 105.13ZM44.50 109.63L44.50 109.63L44.50 108.63Q44.50 108.38 44.38 108.31Q44.25 108.25 44 108.25L44 108.25Q42.63 108.25 41.50 108.38Q40.38 108.50 39.50 108.88L39.50 108.88Q39.25 109 39.13 109.13Q39 109.25 39 109.38L39 109.38L39 120Q39 120.25 39.13 120.38Q39.25 120.50 39.50 120.50L39.50 120.50L40.63 120.50Q40.75 120.50 40.88 120.31Q41 120.13 41 120L41 120L41 110.13Q41.63 110 42.25 110Q42.88 110 44 110L44 110Q44.38 110 44.44 109.88Q44.50 109.75 44.50 109.63L44.50 109.63ZM54 119.63L54 119.63L54 109.25Q54 109 53.88 108.94Q53.75 108.88 53.50 108.75L53.50 108.75Q52.63 108.50 51.56 108.38Q50.50 108.25 49.50 108.25L49.50 108.25Q47 108.25 45.88 109.75Q44.75 111.25 44.75 113.63L44.75 113.63L44.75 115.25Q44.75 117.63 45.88 119.13Q47 120.63 49.50 120.63L49.50 120.63Q50.50 120.63 51.56 120.50Q52.63 120.38 53.50 120.13L53.50 120.13Q53.75 120 53.88 119.94Q54 119.88 54 119.63L54 119.63ZM52 118.75L52 118.75Q51.63 118.88 50.88 118.94Q50.13 119 49.50 119L49.50 119Q47.88 119 47.25 117.94Q46.63 116.88 46.63 115.25L46.63 115.25L46.63 113.63Q46.63 111.88 47.25 110.88Q47.88 109.88 49.50 109.88L49.50 109.88Q50.13 109.88 50.88 109.94Q51.63 110 52 110.13L52 110.13L52 118.75ZM69.88 120L69.88 120L69.88 112.13Q69.88 110.38 68.94 109.31Q68 108.25 66 108.25L66 108.25L65.50 108.25Q64.50 108.25 63.81 108.44Q63.13 108.63 62.63 109L62.63 109Q62.13 108.63 61.44 108.44Q60.75 108.25 59.75 108.25L59.75 108.25L59.25 108.25Q57.25 108.25 56.31 109.31Q55.38 110.38 55.38 112.13L55.38 112.13L55.38 120Q55.38 120.25 55.50 120.38Q55.63 120.50 55.75 120.50L55.75 120.50L56.88 120.50Q57.13 120.50 57.19 120.38Q57.25 120.25 57.25 120L57.25 120L57.25 112.13Q57.25 110.63 57.81 110.31Q58.38 110 59.25 110L59.25 110L59.75 110Q60.88 110 61.25 110.25Q61.63 110.50 61.63 111.38L61.63 111.38L61.63 120Q61.63 120.25 61.75 120.38Q61.88 120.50 62 120.50L62 120.50L63.25 120.50Q63.38 120.50 63.50 120.38Q63.63 120.25 63.63 120L63.63 120L63.63 111.38Q63.63 110.50 64 110.25Q64.38 110 65.50 110L65.50 110L66 110Q66.88 110 67.44 110.31Q68 110.63 68 112.13L68 112.13L68 120Q68 120.25 68.06 120.38Q68.13 120.50 68.38 120.50L68.38 120.50L69.50 120.50Q69.63 120.50 69.75 120.38Q69.88 120.25 69.88 120ZM80.63 114.63L80.63 114.63L80.63 113.38Q80.63 111 79.38 109.63Q78.13 108.25 75.75 108.25L75.75 108.25Q73.38 108.25 72.13 109.63Q70.88 111 70.88 113.38L70.88 113.38L70.88 115.38Q70.88 118.38 72.44 119.50Q74 120.63 75.88 120.63L75.88 120.63Q77 120.63 77.94 120.50Q78.88 120.38 79.75 120.25L79.75 120.25Q80 120.25 80.13 120.13Q80.25 120 80.25 119.75L80.25 119.75L80.25 119Q80.25 118.88 80.13 118.75Q80 118.63 79.88 118.63L79.88 118.63L79.75 118.63Q79 118.75 77.94 118.81Q76.88 118.88 75.88 118.88L75.88 118.88Q74.38 118.88 73.63 118.06Q72.88 117.25 72.88 115.38L72.88 115.38L72.88 115L80.13 115Q80.38 115 80.50 114.88Q80.63 114.75 80.63 114.63L80.63 114.63ZM78.63 113.38L78.63 113.63L72.88 113.63L72.88 113.38Q72.88 111.63 73.63 110.81Q74.38 110 75.75 110L75.75 110Q77.25 110 77.94 110.75Q78.63 111.50 78.63 113.38L78.63 113.38ZM96.50 115.75L96.50 115.75L96.50 108.88Q96.50 108.63 96.38 108.50Q96.25 108.38 96.13 108.38L96.13 108.38L95 108.38Q94.88 108.38 94.75 108.50Q94.63 108.63 94.63 108.88L94.63 108.88L94.63 115.75Q94.63 117.50 93.94 118.25Q93.25 119 91.88 119L91.88 119Q91.50 119 91.06 118.88Q90.63 118.75 90.13 118.63L90.13 118.63L90.13 108.88Q90.13 108.63 90 108.50Q89.88 108.38 89.75 108.38L89.75 108.38L88.63 108.38Q88.50 108.38 88.38 108.50Q88.25 108.63 88.25 108.88L88.25 108.88L88.25 118.63Q87.75 118.75 87.31 118.88Q86.88 119 86.50 119L86.50 119Q85.13 119 84.44 118.25Q83.75 117.50 83.75 115.75L83.75 115.75L83.75 108.88Q83.75 108.63 83.63 108.50Q83.50 108.38 83.38 108.38L83.38 108.38L82.25 108.38Q82.13 108.38 82 108.50Q81.88 108.63 81.88 108.88L81.88 108.88L81.88 115.75Q81.88 118.63 83.25 119.63Q84.63 120.63 86.25 120.63L86.25 120.63Q87.13 120.63 87.81 120.50Q88.50 120.38 89.25 120.13L89.25 120.13Q89.88 120.38 90.56 120.50Q91.25 120.63 92.13 120.63L92.13 120.63Q93.75 120.63 95.13 119.63Q96.50 118.63 96.50 115.75L96.50 115.75ZM107.75 115.25L107.75 115.25L107.75 113.63Q107.75 111.13 106.50 109.69Q105.25 108.25 102.88 108.25L102.88 108.25Q100.38 108.25 99.19 109.69Q98 111.13 98 113.63L98 113.63L98 115.25Q98 117.63 99.19 119.13Q100.38 120.63 102.88 120.63L102.88 120.63Q105.25 120.63 106.50 119.13Q107.75 117.63 107.75 115.25ZM105.75 113.63L105.75 115.25Q105.75 117 105.06 117.94Q104.38 118.88 102.88 118.88L102.88 118.88Q101.25 118.88 100.56 117.94Q99.88 117 99.88 115.25L99.88 115.25L99.88 113.63Q99.88 111.88 100.56 110.94Q101.25 110 102.88 110L102.88 110Q104.38 110 105.06 110.94Q105.75 111.88 105.75 113.63L105.75 113.63ZM114.63 109.63L114.63 109.63L114.63 108.63Q114.63 108.38 114.50 108.31Q114.38 108.25 114.13 108.25L114.13 108.25Q112.75 108.25 111.63 108.38Q110.50 108.50 109.50 108.88L109.50 108.88Q109.38 109 109.25 109.13Q109.13 109.25 109.13 109.38L109.13 109.38L109.13 120Q109.13 120.25 109.25 120.38Q109.38 120.50 109.50 120.50L109.50 120.50L110.75 120.50Q110.88 120.50 111 120.31Q111.13 120.13 111.13 120L111.13 120L111.13 110.13Q111.75 110 112.38 110Q113 110 114.13 110L114.13 110Q114.50 110 114.56 109.88Q114.63 109.75 114.63 109.63ZM124.38 120.13L124.38 120.13Q124.38 120.13 124.38 120.06Q124.38 120 124.38 120L124.38 120L119.50 114.13L124.25 108.88Q124.38 108.88 124.38 108.81Q124.38 108.75 124.38 108.63L124.38 108.63Q124.38 108.50 124.31 108.44Q124.25 108.38 124.13 108.38L124.13 108.38L122.50 108.38Q122.38 108.38 122.31 108.44Q122.25 108.50 122.13 108.63L122.13 108.63L117.75 113.50L117.75 104.38Q117.75 104.25 117.63 104.13Q117.50 104 117.25 104L117.25 104L116.25 104Q116 104 115.88 104.13Q115.75 104.25 115.75 104.38L115.75 104.38L115.75 120Q115.75 120.25 115.88 120.38Q116 120.50 116.25 120.50L116.25 120.50L117.25 120.50Q117.50 120.50 117.63 120.38Q117.75 120.25 117.75 120L117.75 120L117.75 114.75L122.13 120.13Q122.25 120.38 122.31 120.44Q122.38 120.50 122.63 120.50L122.63 120.50L124.13 120.50Q124.25 120.50 124.31 120.38Q124.38 120.25 124.38 120.13L124.38 120.13Z"/></svg>