<svg xmlns="http://www.w3.org/2000/svg" xmlns:xlink="http://www.w3.org/1999/xlink" width="128" height="128"><path fill="#000000" d="M53.63 90.25L53.63 90.25Q45.88 90.25 40.94 95.69Q36 101.13 35.50 109.75L35.50 109.75Q35.13 116.25 38.81 121.50Q42.50 126.75 51.50 126.75L51.50 126.75Q57.13 126.75 60.44 124.75Q63.75 122.75 63.88 120.13L63.88 120.13Q64 118.88 63.56 117.75Q63.13 116.63 62.13 115.63L62.13 115.63Q62.13 115.63 59.56 117.06Q57 118.50 53.25 118.50L53.25 118.50Q48.38 118.50 46.56 115.75Q44.75 113 44.88 110.13L44.88 110.13Q44.88 109.63 45.31 109.56Q45.75 109.50 45.88 110L45.88 110Q46.25 111 47.63 112Q49 113 52.13 113L52.13 113Q57.13 113 61.56 109.88Q66 106.75 66.13 101.25L66.13 101.25Q66.38 96.75 63.44 93.50Q60.50 90.25 53.63 90.25L53.63 90.25ZM49.75 106.50L49.75 106.50Q47.88 106.50 46.81 106.19Q45.75 105.88 45.50 105.75L45.50 105.75Q45.50 105.75 45.56 105.31Q45.63 104.88 45.63 104.50L45.63 104.50Q46.13 102.38 47.88 100.25Q49.63 98.13 52.88 98.13L52.88 98.13Q54.88 98.13 55.94 99.13Q57 100.13 57 101.75L57 101.75Q56.88 104.25 54.75 105.38Q52.63 106.50 49.75 106.50L49.75 106.50ZM85.63 90.25L85.63 90.25Q77.88 90.25 72.94 95.69Q68 101.13 67.50 109.75L67.50 109.75Q67.13 116.25 70.81 121.50Q74.50 126.75 83.38 126.75L83.38 126.75Q89 126.75 92.31 124.75Q95.63 122.75 95.88 120.13L95.88 120.13Q95.88 118.88 95.50 117.75Q95.13 116.63 94.13 115.63L94.13 115.63Q94.13 115.63 91.50 117.06Q88.88 118.50 85.25 118.50L85.25 118.50Q80.38 118.50 78.50 115.75Q76.63 113 76.75 110.13L76.75 110.13Q76.75 109.63 77.19 109.56Q77.63 109.50 77.88 110L77.88 110Q78.13 111 79.50 112Q80.88 113 84 113L84 113Q89.13 113 93.56 109.88Q98 106.75 98.13 101.25L98.13 101.25Q98.38 96.75 95.38 93.50Q92.38 90.25 85.63 90.25L85.63 90.25ZM81.75 106.50L81.75 106.50Q79.88 106.50 78.75 106.19Q77.63 105.88 77.38 105.75L77.38 105.75Q77.38 105.75 77.44 105.31Q77.50 104.88 77.63 104.50L77.63 104.50Q78 102.38 79.81 100.25Q81.63 98.13 84.75 98.13L84.75 98.13Q86.75 98.13 87.88 99.13Q89 100.13 88.88 101.75L88.88 101.75Q88.88 104.25 86.69 105.38Q84.50 106.50 81.75 106.50L81.75 106.50ZM112.63 99L112.63 99L116.75 99Q119 99 120.13 97.69Q121.25 96.38 121.25 95.25L121.25 95.25Q121.25 93.25 120.25 92.06Q119.25 90.88 116.88 90.88L116.88 90.88Q115.25 90.88 114.94 90.94Q114.63 91 113.63 90.88L113.63 90.88Q113.75 90.13 113.94 89.13Q114.13 88.13 114.25 87L114.25 87Q114.50 85.38 113.88 84.69Q113.25 84 112.25 84L112.25 84L109 84Q108.25 84 107.75 84.38Q107.25 84.75 107 85.63L107 85.63Q106.63 87 105.94 89Q105.25 91 102.13 91.50L102.13 91.50Q101.13 91.75 100.19 92.94Q99.25 94.13 99.25 95.13L99.25 95.13Q99.25 96.25 99.63 97.63Q100 99 103.38 99L103.38 99Q103.38 99 102.44 105.69Q101.50 112.38 101.25 115L101.25 115Q100.63 120 102.94 123.38Q105.25 126.75 110.25 126.75L110.25 126.75Q117.13 126.75 118.31 122.94Q119.50 119.13 117.38 116.63L117.38 116.63Q116.75 117 115.50 117.63Q114.25 118.25 113.25 118.25L113.25 118.25Q111.88 118.25 111.06 117.56Q110.25 116.88 110.50 114.88L110.50 114.88Q110.75 112 111.38 107.38Q112 102.75 112.63 99L112.63 99ZM32.88 83L32.88 83L22.38 83Q21.50 83 19.38 83.56Q17.25 84.13 17.13 87.13L17.13 87.13Q16.88 89.63 18.25 90.88Q19.63 92.13 22.50 92.13L22.50 92.13Q24.13 92.13 25.50 91.25Q26.88 90.38 27.63 90L27.63 90Q28.50 89.50 28.81 89.94Q29.13 90.38 28.63 90.88L28.63 90.88Q27.50 91.75 26.56 93.13Q25.63 94.50 25 97.88L25 97.88L22.88 110.88Q22.38 114.13 20.94 115.75Q19.50 117.38 17.13 117.38L17.13 117.38Q15 117.38 13.44 116.31Q11.88 115.25 10.50 113.50L10.50 113.50Q8 114.38 7 117.25Q6 120.13 7.88 122.38L7.88 122.38Q8.75 123.50 10.81 125.13Q12.88 126.75 17.25 126.75L17.25 126.75Q21.88 126.75 26.38 123.75Q30.88 120.75 32.25 111.88L32.25 111.88Q32.88 107.50 34.19 98.94Q35.50 90.38 35.75 88.25L35.75 88.25Q36 86.50 35.81 84.75Q35.63 83 32.88 83L32.88 83ZM92.13 27L92.13 27L92.13 27Q86.88 26.38 83.13 22.63Q79.38 18.88 78.75 13.63L78.75 13.63L78.75 13.63Q77.88 8.13 73.63 4.44Q69.38 0.75 63.75 0.75L63.75 0.75Q57.38 0.75 52.94 5.19Q48.50 9.63 48.50 15.88L48.50 15.88Q48.50 16.13 48.50 16.31Q48.50 16.50 48.50 16.63L48.50 16.63Q47.38 20.13 44.75 22.69Q42.13 25.25 38.63 26.38L38.63 26.38Q38.38 26.38 38.25 26.38Q38.13 26.38 38.13 26.38L38.13 26.38Q31.75 26.38 27.31 30.81Q22.88 35.25 22.88 41.50L22.88 41.50Q22.88 47.63 27.13 52.06Q31.38 56.50 37.50 56.75L37.50 56.75Q41.88 57.75 44.94 60.94Q48 64.13 49 68.50L49 68.50Q49.38 74.38 53.69 78.50Q58 82.63 64.13 82.63L64.13 82.63Q70.13 82.63 74.56 78.44Q79 74.25 79.25 68.25L79.25 68.25Q80.13 64.38 82.75 61.44Q85.38 58.50 89 57.25L89 57.25Q89.25 57.25 89.50 57.25Q89.75 57.25 89.88 57.25L89.88 57.25Q96.25 57.25 100.69 52.81Q105.13 48.38 105.13 42L105.13 42Q105.13 36.25 101.38 32Q97.63 27.75 92.13 27L92.13 27ZM53.63 41.50L53.63 41.50Q53.63 37.50 56.31 34.56Q59 31.63 62.88 31.13L62.88 31.13Q63 31.13 63.06 31.13Q63.13 31.13 63.13 31.13L63.13 31.13Q63.25 31.13 63.31 31.13Q63.38 31.13 63.50 31.13L63.50 31.13Q63.50 31.13 63.56 31.13Q63.63 31.13 63.75 31.13L63.75 31.13Q63.88 31.13 64.06 31.13Q64.25 31.13 64.50 31.13L64.50 31.13Q68.63 31.25 71.56 34.25Q74.50 37.25 74.50 41.50L74.50 41.50Q74.50 41.63 74.50 41.69Q74.50 41.75 74.50 41.75L74.50 41.75Q74.50 45.88 71.63 48.81Q68.75 51.75 64.75 52L64.75 52Q64.63 52 64.56 52Q64.50 52 64.38 52.13L64.38 52.13Q64.25 52 64.19 52Q64.13 52 64 52L64 52Q59.88 52 56.88 49.13Q53.88 46.25 53.63 42.13L53.63 42.13Q53.63 42.13 53.63 42.06Q53.63 42 53.63 41.88L53.63 41.88Q53.63 41.88 53.63 41.81Q53.63 41.75 53.63 41.63L53.63 41.63Q53.63 41.63 53.63 41.63Q53.63 41.63 53.63 41.50L53.63 41.50Z"/></svg>