<svg xmlns="http://www.w3.org/2000/svg" xmlns:xlink="http://www.w3.org/1999/xlink" width="128" height="128"><path fill="#000000" d="M107.50 41.38L107.50 41.38L107.38 41.25Q99.25 40.38 93.50 34.56Q87.75 28.75 86.75 20.63L86.75 20.63L86.75 20.63Q85.38 12.13 78.88 6.44Q72.38 0.75 63.50 0.75L63.50 0.75Q53.75 0.75 46.88 7.63Q40 14.50 40 24.25L40 24.25Q40 24.50 40.06 24.75Q40.13 25 40.13 25.25L40.13 25.25Q38.25 30.75 34.19 34.69Q30.13 38.63 24.75 40.25L24.75 40.25Q24.50 40.25 24.31 40.25Q24.13 40.25 24 40.25L24 40.25Q14.25 40.25 7.38 47.13Q0.50 54 0.50 63.75L0.50 63.75Q0.50 73.25 7.06 80.06Q13.63 86.88 23.13 87.25L23.13 87.25Q29.75 88.75 34.56 93.69Q39.38 98.63 40.75 105.38L40.75 105.38Q41.38 114.50 48.13 120.88Q54.88 127.25 64.13 127.25L64.13 127.25Q73.50 127.25 80.31 120.81Q87.13 114.38 87.63 105L87.63 105Q89 99 93 94.50Q97 90 102.63 88L102.63 88Q103 88 103.38 88Q103.75 88 104 88L104 88Q113.75 88 120.63 81.13Q127.50 74.25 127.50 64.50L127.50 64.50Q127.50 55.75 121.75 49.19Q116 42.63 107.50 41.38L107.50 41.38ZM48 63.75L48 63.75Q48 57.50 52.13 52.94Q56.25 48.38 62.38 47.75L62.38 47.75Q62.38 47.75 62.50 47.69Q62.63 47.63 62.75 47.63L62.75 47.63Q62.88 47.63 62.94 47.63Q63 47.63 63.13 47.63L63.13 47.63Q63.25 47.63 63.31 47.63Q63.38 47.63 63.50 47.63L63.50 47.63Q63.88 47.63 64.13 47.63Q64.38 47.63 64.75 47.63L64.75 47.63Q71.25 47.88 75.75 52.56Q80.25 57.25 80.25 63.75L80.25 63.75Q80.25 63.88 80.25 63.94Q80.25 64 80.25 64.13L80.25 64.13Q80.13 70.50 75.75 75Q71.38 79.50 65.13 79.88L65.13 79.88Q65 80 64.88 80Q64.75 80 64.50 80.13L64.50 80.13Q64.38 80 64.25 80Q64.13 80 64 79.88L64 79.88Q57.63 79.88 53 75.50Q48.38 71.13 48 64.75L48 64.75Q48 64.63 47.94 64.56Q47.88 64.50 47.88 64.38L47.88 64.38Q47.88 64.25 47.94 64.19Q48 64.13 48 64L48 64Q48 64 48 63.94Q48 63.88 48 63.75L48 63.75Z"/></svg>