<svg xmlns="http://www.w3.org/2000/svg" xmlns:xlink="http://www.w3.org/1999/xlink" width="128" height="128"><path fill="#000000" d="M40.38 90.38L40.38 90.50Q39.63 90.25 38.94 90Q38.25 89.75 37.50 89.38L37.50 89.38Q36 91.88 33.31 97.25Q30.63 102.63 30.13 108.25L30.13 108.25L42.50 108.25Q41.50 104.63 40.94 100.63Q40.38 96.63 40.38 92.38L40.38 92.38Q40.38 91.88 40.38 91.38Q40.38 90.88 40.38 90.38L40.38 90.38ZM80.25 83.88L80.25 83.88Q78.63 87.63 77.19 91.81Q75.75 96 74.75 100.50L74.75 100.50Q74.25 102.75 74.94 104.63Q75.63 106.50 75.38 108.25L75.38 108.25L90.88 108.25Q89.25 104 88.25 99L88.25 99Q87.25 94.13 86.50 89.38Q85.75 84.63 85.13 80.50L85.13 80.50Q84.50 76.50 83.75 74L83.75 74Q83.63 74 82 79Q80.38 84 80.25 83.88ZM124.38 45.25L124.38 45.25Q121.63 41.50 116.94 38.06Q112.25 34.63 110.88 30.25L110.88 30.25Q110.50 29.13 110.56 27.31Q110.63 25.50 111.25 24.38L111.25 24.38Q112 23.38 111.38 23.38Q110.75 23.38 110.75 23.38L110.75 23.38Q109.25 24 108.56 23Q107.88 22 107.88 22L107.88 22Q107.63 21.38 107.56 20.31Q107.50 19.25 106.25 20.13L106.25 20.13Q103.88 21.88 104.13 25.31Q104.38 28.75 104.75 30.38L104.75 30.38Q105.63 33.50 107.13 36.06Q108.63 38.63 110.63 40.75L110.63 40.75Q111.38 41.50 114.56 45.50Q117.75 49.50 117.13 52.13L117.13 52.13Q117 53.13 116.44 53.88Q115.88 54.63 115 54.75L115 54.75Q111.50 55.50 110.19 52.81Q108.88 50.13 108.88 50.13L108.88 50.13Q106.25 39.13 103.06 34.69Q99.88 30.25 99.88 30.25L99.88 30.25Q99 30.25 98 30.25Q97 30.25 95.88 30.25L95.88 30.25Q89.88 30.25 83.94 30.88Q78 31.50 72.25 32.75L72.25 32.75Q59.63 32.25 48.75 33.63L48.75 33.63Q37.88 35 29.88 36.81Q21.88 38.63 17.38 40.25L17.38 40.25Q12.75 41.88 12.75 41.88L12.75 41.88Q9.88 46 7.75 51.25L7.75 51.25Q5.50 56.63 3.94 61.44Q2.38 66.25 1.63 69.63L1.63 69.63Q0.75 72.88 0.75 72.88L0.75 72.88Q0.75 72.88 0.75 72.94Q0.75 73 0.88 73L0.88 73Q0.88 73 0.88 73Q0.88 73 0.88 73L0.88 73Q1 73 1.06 72.94Q1.13 72.88 1.13 72.88L1.13 72.88Q3.25 70.13 5.63 67.75Q8 65.38 10.50 63.25L10.50 63.25Q10.38 73.75 11.25 82.13L11.25 82.13Q12.13 90.38 13.25 96.19Q14.38 102 15.25 105.13L15.25 105.13Q16.25 108.25 16.25 108.25L16.25 108.25L28.25 108.25Q28.88 100.63 32.94 93.81Q37 87 37 87L37 87Q40.38 89.50 46 89.44Q51.63 89.38 51.63 89.38L51.63 89.38Q52.88 94.38 54.94 101.31Q57 108.25 57 108.25L57 108.25L71.50 108.25Q72.50 100.75 74.56 94Q76.63 87.25 79.63 81L79.63 81Q82.50 74.75 82.69 73.81Q82.88 72.88 83 71L83 71Q83.13 67.75 85.44 66.63Q87.75 65.50 89.38 65.50L89.38 65.50Q91.13 65.50 97.25 68.19Q103.38 70.88 109 70.63L109 70.63Q118.63 70.13 122.81 66.25Q127 62.38 127.25 57.25L127.25 57.25Q127.38 53.75 126.56 50.50Q125.75 47.25 124.38 45.25L124.38 45.25ZM82.88 59.63L82.88 59.63Q82.75 59.75 82.69 59.88Q82.63 60 82.50 60.13L82.50 60.13Q82.50 60.25 82.38 60.38Q82.25 60.50 82 60.63L82 60.63Q81.88 60.75 81.75 60.75Q81.63 60.75 81.38 60.75L81.38 60.75Q81.38 60.75 81.38 60.75Q81.38 60.75 81.38 60.75L81.38 60.75Q81.13 60.75 80.94 60.75Q80.75 60.75 80.63 60.63L80.63 60.63Q80.13 60.38 79.63 60.06Q79.13 59.75 78.75 59.38L78.75 59.38Q78.63 59.13 78.44 58.94Q78.25 58.75 78 58.50L78 58.50L77.38 57.88Q77 57.63 76.63 57.38Q76.25 57.13 75.88 57L75.88 57Q75.38 56.88 74.94 56.75Q74.50 56.63 74 56.50L74 56.50Q73.50 56.38 72.94 56.25Q72.38 56.13 71.88 55.88L71.88 55.88Q71.75 55.88 71.63 55.81Q71.50 55.75 71.25 55.63L71.25 55.63L71 55.50Q70.88 55.50 70.81 55.44Q70.75 55.38 70.63 55.25L70.63 55.25Q70.50 55.13 70.31 54.94Q70.13 54.75 70.13 54.63L70.13 54.63Q70 54.38 69.94 54.19Q69.88 54 69.75 53.88L69.75 53.88Q69.75 53.63 69.69 53.38Q69.63 53.13 69.63 52.75L69.63 52.75Q69.63 52.75 69.63 52.69Q69.63 52.63 69.63 52.50L69.63 52.50Q69.75 52.25 69.75 51.94Q69.75 51.63 69.88 51.25L69.88 51.25Q69.88 50.75 70.06 50.19Q70.25 49.63 70.38 49.13L70.38 49.13Q70.75 48.25 71.13 47.25L71.13 47.25Q71.25 47 71.31 46.75Q71.38 46.50 71.50 46.25L71.50 46.25Q71.63 45.88 71.75 45.63Q71.88 45.38 72 45.13L72 45.13Q72.63 44.25 73.31 43.44Q74 42.63 74.88 42L74.88 42Q75.38 41.75 75.81 41.44Q76.25 41.13 76.63 40.88L76.63 40.88Q77.13 40.63 77.63 40.44Q78.13 40.25 78.63 40.13L78.63 40.13Q77.88 40.63 77.13 41.31Q76.38 42 75.63 42.75L75.63 42.75Q75 43.50 74.44 44.25Q73.88 45 73.50 45.88L73.50 45.88Q73.38 46.13 73.31 46.38Q73.25 46.63 73.13 46.88L73.13 46.88L72.88 47.88Q72.63 48.38 72.50 48.88Q72.38 49.38 72.25 49.88L72.25 49.88Q72.13 50.25 72.06 50.69Q72 51.13 71.88 51.63L71.88 51.63Q71.88 51.88 71.81 52.13Q71.75 52.38 71.75 52.63L71.75 52.63Q71.75 52.63 71.75 52.69Q71.75 52.75 71.75 52.75L71.75 52.75Q71.75 53 71.75 53.13Q71.75 53.25 71.88 53.38L71.88 53.38Q71.88 53.50 71.88 53.56Q71.88 53.63 72 53.75L72 53.75L72 53.75L72.13 53.88L72.50 54Q73 54.13 73.50 54.25Q74 54.38 74.50 54.63L74.50 54.63Q75 54.75 75.56 54.94Q76.13 55.13 76.63 55.38L76.63 55.38Q77.13 55.63 77.63 55.94Q78.13 56.25 78.50 56.75L78.50 56.75Q78.63 57 78.81 57.19Q79 57.38 79.13 57.63L79.13 57.63L79.75 58.38Q79.88 58.63 80.06 58.81Q80.25 59 80.38 59.13L80.38 59.13Q80.50 59.25 80.69 59.44Q80.88 59.63 81 59.75L81 59.75Q81.13 59.75 81.25 59.81Q81.38 59.88 81.50 59.88L81.50 59.88Q81.63 59.88 81.63 59.88Q81.63 59.88 81.63 59.88L81.63 59.88Q81.88 59.88 82 59.69Q82.13 59.50 82.25 59.38L82.25 59.38Q82.38 59.25 82.50 59Q82.63 58.75 82.63 58.50L82.63 58.50Q82.75 58.25 82.88 58Q83 57.75 83 57.50L83 57.50Q83 57.63 83 57.75Q83 57.88 83 58L83 58Q83 58.50 82.94 58.88Q82.88 59.25 82.88 59.63L82.88 59.63ZM95.63 50.75L95.63 50.75Q95.38 51.38 94.81 51.81Q94.25 52.25 93.50 52.25L93.50 52.25Q92.63 52.25 92 51.56Q91.38 50.88 91.38 50L91.38 50Q91.38 49.13 92 48.50Q92.63 47.88 93.50 47.88L93.50 47.88Q93.88 47.88 94.19 47.94Q94.50 48 94.75 48.13L94.75 48.13Q95.25 48.38 95.50 48.88Q95.75 49.38 95.75 49.88L95.75 49.88Q95.75 50.13 95.75 50.31Q95.75 50.50 95.63 50.75L95.63 50.75Z"/></svg>