<svg xmlns="http://www.w3.org/2000/svg" xmlns:xlink="http://www.w3.org/1999/xlink" width="128" height="128"><path fill="#000000" d="M82.13 78.38L82.13 78.38Q82.50 77.50 82.88 76.56Q83.25 75.63 83.50 74.75L83.50 74.75Q85.25 69.38 86.94 64.06Q88.63 58.75 90.38 53.38L90.38 53.38Q91 51.38 91.81 49.38Q92.63 47.38 93.88 45.63L93.88 45.63Q95.88 42.88 98.63 41.38Q101.38 39.88 104.75 39.38L104.75 39.38Q106 39.13 107.38 39Q108.75 38.88 110 38.88L110 38.88Q114 38.88 117.94 38.88Q121.88 38.88 125.88 38.88L125.88 38.88Q126 38.88 126.25 38.94Q126.50 39 126.75 39L126.75 39Q126.63 39.25 126.56 39.38Q126.50 39.50 126.50 39.63L126.50 39.63Q125 42.25 123.56 44.88Q122.13 47.50 120.63 50.13L120.63 50.13Q118 54.63 115.31 59.13Q112.63 63.63 110 68.13L110 68.13Q108.25 71 106.31 73.75Q104.38 76.50 102.25 79.13L102.25 79.13Q100.63 81 98.94 82.75Q97.25 84.50 95.13 85.88L95.13 85.88Q93.63 86.75 92.06 87.31Q90.50 87.88 88.75 87.75L88.75 87.75Q82.63 87.75 76.38 87.75Q70.13 87.75 64 87.75L64 87.75Q62.13 87.75 60.56 87.06Q59 86.38 57.63 85.13L57.63 85.13Q55.75 83.38 54.50 81.19Q53.25 79 52.25 76.63L52.25 76.63Q50.50 72.25 49.44 67.69Q48.38 63.13 47.25 58.50L47.25 58.50Q46.75 56.38 46.19 54.31Q45.63 52.25 45 50.13L45 50.13Q45 50 44.94 49.81Q44.88 49.63 44.75 49.50L44.75 49.50L44.25 50Q41.75 52.38 39.63 55.06Q37.50 57.75 35.63 60.50L35.63 60.50Q35 61.25 34.75 62.19Q34.50 63.13 34.25 64.13L34.25 64.13Q33.25 67.50 32.19 70.88Q31.13 74.25 30 77.50L30 77.50Q28.88 80.75 26.88 83.19Q24.88 85.63 21.75 87.13L21.75 87.13Q19.88 88 17.94 88.44Q16 88.88 14 89L14 89Q11.13 89 8.13 89.06Q5.13 89.13 2.13 89.13L2.13 89.13Q1.38 89.13 1.25 88.94Q1.13 88.75 1.38 88.13L1.38 88.13Q2.63 83.38 4.25 78.75Q5.88 74.13 7.88 69.63L7.88 69.63Q10 65 12.50 60.63Q15 56.25 18.13 52.25L18.13 52.25Q20.25 49.50 22.69 47Q25.13 44.50 28 42.63L28 42.63Q29.50 41.63 31.13 40.94Q32.75 40.25 34.50 40L34.50 40Q34.75 40 35.06 40Q35.38 40 35.63 40L35.63 40Q42 40 48.38 40Q54.75 40 61.13 39.88L61.13 39.88Q64.50 39.88 67.06 41.31Q69.63 42.75 71.38 45.50L71.38 45.50Q72.63 47.13 73.44 49Q74.25 50.88 75 52.75L75 52.75Q76.38 56.63 77.31 60.63Q78.25 64.63 79.25 68.63L79.25 68.63Q79.88 71 80.50 73.25Q81.13 75.50 81.63 77.75L81.63 77.75Q81.75 78 81.81 78.13Q81.88 78.25 81.88 78.50L81.88 78.50L82.13 78.38Z"/></svg>