<svg xmlns="http://www.w3.org/2000/svg" xmlns:xlink="http://www.w3.org/1999/xlink" width="128" height="128"><path fill="#000000" d="M40.38 78.25L40.38 78.25L38.63 78.25L38.63 68.50Q38.63 68 38.69 67.31Q38.75 66.63 38.75 65.75L38.75 65.75L38.75 65.75Q38.63 66.25 38.50 66.56Q38.38 66.88 38.38 67.13L38.38 67.13L33.38 78.25L32.63 78.25L27.75 67.25Q27.63 67 27.50 66.63Q27.38 66.25 27.25 65.75L27.25 65.75L27.25 65.75Q27.25 66.13 27.25 66.88Q27.25 67.63 27.25 68.50L27.25 68.50L27.25 78.25L25.63 78.25L25.63 63.88L27.88 63.88L32.25 73.88Q32.50 74.38 32.69 74.81Q32.88 75.25 33 75.50L33 75.50L33 75.50Q33.25 75 33.44 74.56Q33.63 74.13 33.75 73.75L33.75 73.75L38.25 63.88L40.38 63.88L40.38 78.25L40.38 78.25ZM45.50 67.88L45.50 78.25L43.88 78.25L43.88 67.88L45.50 67.88ZM45.75 64.25L45.75 64.25Q45.75 64.50 45.69 64.69Q45.63 64.88 45.50 65L45.50 65Q45.38 65.13 45.19 65.25Q45 65.38 44.75 65.38L44.75 65.38Q44.50 65.38 44.31 65.25Q44.13 65.13 44 65L44 65Q43.75 64.88 43.69 64.69Q43.63 64.50 43.63 64.25L43.63 64.25Q43.63 64 43.69 63.81Q43.75 63.63 44 63.50L44 63.50Q44.13 63.38 44.31 63.25Q44.50 63.13 44.75 63.13L44.75 63.13Q45 63.13 45.19 63.25Q45.38 63.38 45.50 63.50L45.50 63.50Q45.63 63.63 45.69 63.81Q45.75 64 45.75 64.25ZM55.75 77.75L55.75 77.75Q55.13 78.13 54.44 78.25Q53.75 78.38 53 78.38L53 78.38Q51.88 78.38 51 78.06Q50.13 77.75 49.38 77L49.38 77Q48.75 76.25 48.44 75.31Q48.13 74.38 48.13 73.25L48.13 73.25Q48.13 72 48.44 71Q48.75 70 49.50 69.25L49.50 69.25Q50.25 68.50 51.25 68.06Q52.25 67.63 53.38 67.63L53.38 67.63Q54.13 67.63 54.69 67.75Q55.25 67.88 55.75 68.25L55.75 68.25L55.75 69.88Q55.25 69.50 54.63 69.31Q54 69.13 53.38 69.13L53.38 69.13Q52.50 69.13 51.88 69.38Q51.25 69.63 50.75 70.13L50.75 70.13Q50.25 70.75 50 71.50Q49.75 72.25 49.75 73.13L49.75 73.13Q49.75 74 50 74.75Q50.25 75.50 50.75 76L50.75 76Q51.13 76.50 51.81 76.75Q52.50 77 53.25 77L53.25 77Q53.88 77 54.50 76.81Q55.13 76.63 55.75 76.13L55.75 76.13L55.75 77.75L55.75 77.75ZM63.63 69.63L63.63 69.63Q63.38 69.38 63.06 69.31Q62.75 69.25 62.38 69.25L62.38 69.25Q61.88 69.25 61.44 69.50Q61 69.75 60.63 70.13L60.63 70.13Q60.25 70.63 60.06 71.31Q59.88 72 59.88 73L59.88 73L59.88 78.13L58.25 78.13L58.25 67.88L59.88 67.88L59.88 70L59.88 70Q60.13 69.50 60.38 69.06Q60.63 68.63 61 68.25L61 68.25Q61.38 68 61.75 67.88Q62.13 67.75 62.63 67.75L62.63 67.75Q63 67.75 63.19 67.81Q63.38 67.88 63.63 67.88L63.63 67.88L63.63 69.63ZM72.75 73.13L72.75 73.13Q72.75 72.13 72.56 71.38Q72.38 70.63 71.88 70.13L71.88 70.13Q71.38 69.63 70.81 69.38Q70.25 69.13 69.50 69.13L69.50 69.13Q68.63 69.13 68.06 69.38Q67.50 69.63 67 70.13L67 70.13Q66.50 70.63 66.25 71.38Q66 72.13 66 73.13L66 73.13Q66 74 66.25 74.75Q66.50 75.50 67 76L67 76Q67.38 76.50 68 76.75Q68.63 77 69.50 77L69.50 77Q70.25 77 70.88 76.75Q71.50 76.50 71.88 76L71.88 76Q72.38 75.50 72.56 74.75Q72.75 74 72.75 73.13ZM74.50 73L74.50 73Q74.50 74.25 74.13 75.25Q73.75 76.25 73 77L73 77Q72.38 77.75 71.44 78.06Q70.50 78.38 69.38 78.38L69.38 78.38Q68.13 78.38 67.25 78.06Q66.38 77.75 65.63 77L65.63 77Q65 76.25 64.69 75.31Q64.38 74.38 64.38 73.13L64.38 73.13Q64.38 71.88 64.75 70.81Q65.13 69.75 65.88 69L65.88 69Q66.50 68.38 67.44 68Q68.38 67.63 69.63 67.63L69.63 67.63Q70.75 67.63 71.63 68Q72.50 68.38 73.13 69.13L73.13 69.13Q73.75 69.75 74.13 70.75Q74.50 71.75 74.50 73ZM82.63 75.50L82.63 75.50Q82.63 76.13 82.38 76.63Q82.13 77.13 81.63 77.50L81.63 77.50Q81.13 78 80.44 78.19Q79.75 78.38 78.88 78.38L78.88 78.38Q78.13 78.38 77.50 78.25Q76.88 78.13 76.25 77.88L76.25 77.88L76.25 76Q76.88 76.50 77.56 76.75Q78.25 77 79 77L79 77Q79.88 77 80.38 76.69Q80.88 76.38 80.88 75.63L80.88 75.63Q80.88 75.25 80.81 75Q80.75 74.75 80.50 74.63L80.50 74.63Q80.25 74.38 79.81 74.19Q79.38 74 78.75 73.63L78.75 73.63Q78.13 73.38 77.69 73.06Q77.25 72.75 77 72.50L77 72.50Q76.63 72.13 76.44 71.69Q76.25 71.25 76.25 70.63L76.25 70.63Q76.25 70 76.56 69.50Q76.88 69 77.38 68.50L77.38 68.50Q77.88 68.13 78.50 67.88Q79.13 67.63 79.88 67.63L79.88 67.63Q80.50 67.63 81.06 67.75Q81.63 67.88 82.13 68.13L82.13 68.13L82.13 69.75Q81.63 69.50 81.06 69.31Q80.50 69.13 79.75 69.13L79.75 69.13Q79.38 69.13 79.06 69.19Q78.75 69.25 78.50 69.50L78.50 69.50Q78.25 69.63 78.13 69.94Q78 70.25 78 70.50L78 70.50Q78 70.88 78.13 71.13Q78.25 71.38 78.38 71.63L78.38 71.63Q78.63 71.75 79 71.94Q79.38 72.13 80 72.38L80 72.38Q80.63 72.75 81.06 73Q81.50 73.25 81.88 73.50L81.88 73.50Q82.25 73.88 82.44 74.38Q82.63 74.88 82.63 75.50ZM92.63 73.13L92.63 73.13Q92.63 72.13 92.38 71.38Q92.13 70.63 91.75 70.13L91.75 70.13Q91.25 69.63 90.69 69.38Q90.13 69.13 89.38 69.13L89.38 69.13Q88.50 69.13 87.94 69.38Q87.38 69.63 86.88 70.13L86.88 70.13Q86.38 70.63 86.13 71.38Q85.88 72.13 85.88 73.13L85.88 73.13Q85.88 74 86.13 74.75Q86.38 75.50 86.88 76L86.88 76Q87.25 76.50 87.88 76.75Q88.50 77 89.38 77L89.38 77Q90.13 77 90.75 76.75Q91.38 76.50 91.75 76L91.75 76Q92.25 75.50 92.44 74.75Q92.63 74 92.63 73.13L92.63 73.13ZM94.38 73L94.38 73Q94.38 74.25 94 75.25Q93.63 76.25 92.88 77L92.88 77Q92.25 77.75 91.31 78.06Q90.38 78.38 89.25 78.38L89.25 78.38Q88 78.38 87.13 78.06Q86.25 77.75 85.50 77L85.50 77Q84.88 76.25 84.56 75.31Q84.25 74.38 84.25 73.13L84.25 73.13Q84.25 71.88 84.63 70.81Q85 69.75 85.75 69L85.75 69Q86.38 68.38 87.31 68Q88.25 67.63 89.50 67.63L89.50 67.63Q90.63 67.63 91.50 68Q92.38 68.38 93 69.13L93 69.13Q93.63 69.75 94 70.75Q94.38 71.75 94.38 73L94.38 73ZM101.50 64.50L101.50 64.50Q101.38 64.25 101.06 64.19Q100.75 64.13 100.50 64.13L100.50 64.13Q99.63 64.13 99.19 64.69Q98.75 65.25 98.75 66.38L98.75 66.38L98.75 67.88L101.13 67.88L101.13 69.38L98.75 69.38L98.75 78.25L97.13 78.25L97.13 69.38L95.38 69.38L95.38 67.88L97.13 67.88L97.13 66.25Q97.13 65.38 97.38 64.75Q97.63 64.13 98.13 63.63L98.13 63.63Q98.63 63.25 99.19 63Q99.75 62.75 100.38 62.75L100.38 62.75Q100.75 62.75 101.06 62.81Q101.38 62.88 101.50 63L101.50 63L101.50 64.50ZM108 78.13L108 78.13Q107.75 78.25 107.38 78.31Q107 78.38 106.50 78.38L106.50 78.38Q105.13 78.38 104.44 77.63Q103.75 76.88 103.75 75.38L103.75 75.38L103.75 69.38L102 69.38L102 67.88L103.75 67.88L103.75 65.38L105.50 64.88L105.50 67.88L108 67.88L108 69.38L105.50 69.38L105.50 75.13Q105.50 75.63 105.56 76Q105.63 76.38 105.75 76.63L105.75 76.63Q106 76.75 106.31 76.88Q106.63 77 107 77L107 77Q107.25 77 107.56 76.94Q107.88 76.88 108 76.63L108 76.63L108 78.13ZM19.25 118.25L19.25 118.25Q19.25 118.88 19 119.38Q18.75 119.88 18.38 120.38L18.38 120.38Q17.88 120.75 17.38 121Q16.88 121.25 16.25 121.25L16.25 121.25Q15.63 121.25 15.13 121Q14.63 120.75 14.25 120.38L14.25 120.38Q13.75 119.88 13.56 119.38Q13.38 118.88 13.38 118.25L13.38 118.25Q13.38 117.63 13.56 117.13Q13.75 116.63 14.25 116.13L14.25 116.13Q14.63 115.75 15.13 115.50Q15.63 115.25 16.25 115.25L16.25 115.25Q16.88 115.25 17.38 115.50Q17.88 115.75 18.38 116.13L18.38 116.13Q18.75 116.63 19 117.13Q19.25 117.63 19.25 118.25ZM56 120.63L56 120.63L50.63 120.63L31.25 90.63Q30.88 90 30.56 89.44Q30.25 88.88 30 88.25L30 88.25L29.88 88.25Q30 88.75 30.06 90.06Q30.13 91.38 30.13 93.38L30.13 93.38L30.13 120.63L25.63 120.63L25.63 82.88L31.38 82.88L50.25 112.50Q50.88 113.38 51.25 114Q51.63 114.63 51.75 115L51.75 115L51.88 115Q51.75 114.25 51.69 112.81Q51.63 111.38 51.63 109.50L51.63 109.50L51.63 82.88L56 82.88L56 120.63L56 120.63ZM84.38 116.63L84.38 120.63L64.38 120.63L64.38 82.88L83.50 82.88L83.50 86.88L68.75 86.88L68.75 99.50L82.38 99.50L82.38 103.50L68.75 103.50L68.75 116.63L84.38 116.63ZM114.63 86.88L114.63 86.88L103.75 86.88L103.75 120.63L99.38 120.63L99.38 86.88L88.50 86.88L88.50 82.88L114.63 82.88L114.63 86.88ZM82.13 46.38L82.13 46.38Q82.50 45.38 82.88 44.50Q83.25 43.63 83.50 42.63L83.50 42.63Q85.25 37.25 86.94 31.94Q88.63 26.63 90.38 21.38L90.38 21.38Q91 19.25 91.81 17.31Q92.63 15.38 93.88 13.50L93.88 13.50Q95.88 10.75 98.63 9.25Q101.38 7.75 104.75 7.25L104.75 7.25Q106 7 107.38 6.94Q108.75 6.88 110 6.88L110 6.88Q114 6.75 117.94 6.75Q121.88 6.75 125.88 6.75L125.88 6.75Q126 6.75 126.25 6.81Q126.50 6.88 126.75 6.88L126.75 6.88Q126.63 7.13 126.56 7.25Q126.50 7.38 126.50 7.63L126.50 7.63Q125 10.25 123.56 12.88Q122.13 15.50 120.63 18L120.63 18Q118 22.63 115.31 27.13Q112.63 31.63 110 36L110 36Q108.25 38.88 106.31 41.63Q104.38 44.38 102.25 47L102.25 47Q100.63 48.88 98.94 50.69Q97.25 52.50 95.13 53.75L95.13 53.75Q93.63 54.75 92.06 55.25Q90.50 55.75 88.75 55.75L88.75 55.75Q82.63 55.63 76.38 55.69Q70.13 55.75 64 55.63L64 55.63Q62.13 55.63 60.56 55Q59 54.38 57.63 53.13L57.63 53.13Q55.75 51.25 54.50 49.06Q53.25 46.88 52.25 44.50L52.25 44.50Q50.50 40.13 49.44 35.56Q48.38 31 47.25 26.50L47.25 26.50Q46.75 24.38 46.19 22.25Q45.63 20.13 45 18L45 18Q45 17.88 44.94 17.69Q44.88 17.50 44.75 17.38L44.75 17.38L44.25 17.88Q41.75 20.25 39.63 22.94Q37.50 25.63 35.63 28.38L35.63 28.38Q35 29.13 34.75 30.13Q34.50 31.13 34.25 32L34.25 32Q33.25 35.38 32.19 38.75Q31.13 42.13 30 45.38L30 45.38Q28.88 48.63 26.88 51.06Q24.88 53.50 21.75 55L21.75 55Q19.88 55.88 17.94 56.38Q16 56.88 14 56.88L14 56.88Q11.13 57 8.13 57Q5.13 57 2.13 57L2.13 57Q1.38 57 1.25 56.88Q1.13 56.75 1.38 56L1.38 56Q2.63 51.25 4.25 46.63Q5.88 42 7.88 37.50L7.88 37.50Q10 32.88 12.50 28.50Q15 24.13 18.13 20.13L18.13 20.13Q20.25 17.38 22.69 14.88Q25.13 12.38 28 10.50L28 10.50Q29.50 9.50 31.13 8.81Q32.75 8.13 34.50 8L34.50 8Q34.75 7.88 35.06 7.88Q35.38 7.88 35.63 7.88L35.63 7.88Q42 7.88 48.38 7.88Q54.75 7.88 61.13 7.88L61.13 7.88Q64.50 7.75 67.06 9.19Q69.63 10.63 71.38 13.38L71.38 13.38Q72.63 15 73.44 16.88Q74.25 18.75 75 20.63L75 20.63Q76.38 24.50 77.31 28.50Q78.25 32.50 79.25 36.50L79.25 36.50Q79.88 38.88 80.50 41.13Q81.13 43.38 81.63 45.63L81.63 45.63Q81.75 45.88 81.81 46Q81.88 46.13 81.88 46.38L81.88 46.38L82.13 46.38Z"/></svg>