<svg xmlns="http://www.w3.org/2000/svg" xmlns:xlink="http://www.w3.org/1999/xlink" width="128" height="128"><path fill="#000000" d="M86.25 64.50L86.25 64.50Q86.25 73.88 79.63 80.50Q73 87.13 63.63 87.13L63.63 87.13Q54.25 87.13 47.63 80.50Q41 73.88 41 64.50L41 64.50Q41 55.13 47.63 48.50Q54.25 41.88 63.63 41.88L63.63 41.88Q73 41.88 79.63 48.50Q86.25 55.13 86.25 64.50ZM64 37L64 37L118.13 37Q114.50 29.50 108.88 23.25L108.88 23.25Q103.25 17.13 96.19 12.69Q89.13 8.25 80.88 5.75L80.88 5.75Q72.63 3.38 63.63 3.38L63.63 3.38Q56.38 3.38 49.50 5L49.50 5Q42.75 6.63 36.69 9.69Q30.63 12.75 25.25 17L25.25 17Q20 21.38 15.88 26.63L15.88 26.63L37 62.38Q37.38 57.13 39.38 52.63L39.38 52.63Q41.38 48 44.88 44.50Q48.38 41 53.13 39L53.13 39Q58 37 64 37ZM120.13 41L120.13 41L78.25 41Q83.88 45.50 87.25 51.38Q90.63 57.25 90.63 64.38L90.63 64.38Q90.63 67.88 89.75 71.06Q88.88 74.25 87.38 78L87.38 78L87.38 78L59.63 125.50Q60.63 125.63 61.63 125.56Q62.63 125.50 63.63 125.50L63.63 125.50Q76.25 125.50 87.25 120.63L87.25 120.63Q98.38 115.75 106.63 107.38Q114.88 99 119.75 87.88L119.75 87.88Q124.50 76.75 124.50 64.13L124.50 64.13Q124.50 58.13 123.38 52.56Q122.25 47 120.13 41L120.13 41ZM63.63 91.50L63.63 91.50Q54.88 91.50 48 86.44Q41.13 81.38 38.25 73.63L38.25 73.63L13.13 30.63Q8.25 37.88 5.50 46.50Q2.75 55.13 2.75 64.50L2.75 64.50Q2.75 76 6.75 86.25L6.75 86.25Q10.75 96.50 17.75 104.50Q24.75 112.50 34.25 117.75L34.25 117.75Q43.75 123.13 54.88 124.75L54.88 124.75L75.88 88.50Q73.13 89.88 70 90.69Q66.88 91.50 63.63 91.50L63.63 91.50Z"/></svg>