<svg xmlns="http://www.w3.org/2000/svg" xmlns:xlink="http://www.w3.org/1999/xlink" width="128" height="128"><path fill="#ffffff" d="M83 51.63L83 51.63Q83 59.25 77.56 64.69Q72.13 70.13 64.50 70.13L64.50 70.13Q56.75 70.13 51.38 64.69Q46 59.25 46 51.63L46 51.63Q46 43.88 51.38 38.44Q56.75 33 64.50 33L64.50 33Q72.13 33 77.56 38.44Q83 43.88 83 51.63L83 51.63ZM64 30L64 30L109.25 30Q106.13 23.63 101.50 18.50L101.50 18.50Q97 13.25 91.19 9.63Q85.38 6 78.63 4L78.63 4Q71.88 2 64.50 2L64.50 2Q58.50 2 53 3.25L53 3.25Q47.38 4.63 42.38 7.06Q37.38 9.50 33.13 13L33.13 13Q28.75 16.50 25.38 20.88L25.38 20.88L42.25 50.25Q42.88 41.75 48.94 35.88Q55 30 64 30L64 30ZM57.25 101L57.25 101L74.50 71.38Q72.25 72.50 69.75 73.13Q67.25 73.75 64.50 73.75L64.50 73.75Q57.38 73.75 51.69 69.63Q46 65.50 43.75 59.13L43.75 59.13L23 23.88Q19 29.75 16.81 36.81Q14.63 43.88 14.63 51.63L14.63 51.63Q14.63 61 17.88 69.38L17.88 69.38Q21.13 77.88 26.88 84.44Q32.63 91 40.50 95.38L40.50 95.38Q48.25 99.63 57.25 101ZM110.88 33L110.88 33L76.50 33Q81.13 36 83.88 40.88Q86.63 45.75 86.63 51.63L86.63 51.63Q86.63 54.50 85.94 57.13Q85.25 59.75 83.88 62.13L83.88 62.13L84 62.13L61.25 101.38Q62 101.50 62.81 101.50Q63.63 101.50 64.50 101.50L64.50 101.50Q74.88 101.50 83.88 97.63L83.88 97.63Q93 93.63 99.75 86.88Q106.50 80.13 110.50 71L110.50 71Q114.38 61.88 114.38 51.63L114.38 51.63Q114.38 46.63 113.44 42.44Q112.50 38.25 110.88 33L110.88 33ZM23.13 122.63L23.63 124.88Q23.13 125.13 21.88 125.44Q20.63 125.75 18.88 125.75L18.88 125.75Q15.25 125.75 13 123.44Q10.75 121.13 10.75 117.38L10.75 117.38Q10.75 113.50 13.13 111.06Q15.50 108.63 19.63 108.63L19.63 108.63Q20.88 108.63 22 108.88Q23.13 109.13 23.75 109.50L23.75 109.50L23 111.75Q22.50 111.50 21.63 111.25Q20.75 111 19.63 111L19.63 111Q16.75 111 15.25 112.81Q13.75 114.63 13.75 117.25L13.75 117.25Q13.75 120 15.38 121.69Q17 123.38 19.50 123.38L19.50 123.38Q20.75 123.38 21.63 123.13Q22.50 122.88 23.13 122.63L23.13 122.63ZM27.13 101.25L27.13 101.25L30.13 101.25L30.13 111.50L30.25 111.50Q30.63 110.88 31.13 110.31Q31.63 109.75 32.38 109.38L32.38 109.38Q33 109 33.81 108.81Q34.63 108.63 35.38 108.63L35.38 108.63Q37.13 108.63 39.13 110Q41.13 111.38 41.13 115.63L41.13 115.63L41.13 125.38L38.25 125.38L38.25 115.88Q38.25 114 37.38 112.56Q36.50 111.13 34.38 111.13L34.38 111.13Q32.88 111.13 31.81 112Q30.75 112.88 30.38 114L30.38 114Q30.25 114.38 30.19 114.69Q30.13 115 30.13 115.50L30.13 115.50L30.13 125.38L27.13 125.38L27.13 101.25ZM46 114L46 114Q46 112.63 46 111.38Q46 110.13 45.88 108.88L45.88 108.88L48.50 108.88L48.63 112.25L48.75 112.25Q49.38 110.50 50.63 109.56Q51.88 108.63 53.38 108.63L53.38 108.63Q53.63 108.63 53.81 108.63Q54 108.63 54.25 108.63L54.25 108.63L54.25 111.50Q54 111.38 53.75 111.38Q53.50 111.38 53.13 111.38L53.13 111.38Q51.63 111.38 50.56 112.44Q49.50 113.50 49.13 115.25L49.13 115.25Q49.13 115.50 49.06 115.88Q49 116.25 49 116.63L49 116.63L49 125.38L46 125.38L46 114ZM71.75 117L71.75 117Q71.75 121.63 69.13 123.69Q66.50 125.75 63.50 125.75L63.50 125.75Q60.25 125.75 57.94 123.50Q55.63 121.25 55.63 117.25L55.63 117.25Q55.63 113.13 58 110.88Q60.38 108.63 63.88 108.63L63.88 108.63Q67.38 108.63 69.56 110.94Q71.75 113.25 71.75 117ZM58.75 117.25L58.75 117.25Q58.75 119.88 60.13 121.69Q61.50 123.50 63.75 123.50L63.75 123.50Q65.88 123.50 67.31 121.69Q68.75 119.88 68.75 117.13L68.75 117.13Q68.75 115 67.56 112.94Q66.38 110.88 63.75 110.88L63.75 110.88Q61.13 110.88 59.94 112.88Q58.75 114.88 58.75 117.25ZM75.50 113.38L75.50 113.38Q75.50 112.13 75.50 111.06Q75.50 110 75.38 108.88L75.38 108.88L78 108.88L78.13 111.63L78.25 111.63Q79 110.38 80.19 109.50Q81.38 108.63 83.50 108.63L83.50 108.63Q85.13 108.63 86.38 109.50Q87.63 110.38 88.13 111.88L88.13 111.88L88.13 111.88Q88.50 111.13 89 110.63Q89.50 110.13 90 109.75L90 109.75Q90.75 109.13 91.63 108.88Q92.50 108.63 93.63 108.63L93.63 108.63Q95.38 108.63 97.25 110.06Q99.13 111.50 99.13 115.75L99.13 115.75L99.13 125.38L96.13 125.38L96.13 116.13Q96.13 113.75 95.25 112.38Q94.38 111 92.63 111L92.63 111Q91.25 111 90.31 111.81Q89.38 112.63 89 113.75L89 113.75Q88.88 114 88.81 114.38Q88.75 114.75 88.75 115.25L88.75 115.25L88.75 125.38L85.88 125.38L85.88 115.50Q85.88 113.50 85 112.25Q84.13 111 82.38 111L82.38 111Q81 111 80.06 111.94Q79.13 112.88 78.75 114L78.75 114Q78.63 114.38 78.56 114.75Q78.50 115.13 78.50 115.50L78.50 115.50L78.50 125.38L75.50 125.38L75.50 113.38ZM105.63 117.75L105.63 117.75Q105.63 120.75 107.31 122.06Q109 123.38 111.25 123.38L111.25 123.38Q112.88 123.38 113.94 123.13Q115 122.88 115.88 122.63L115.88 122.63L116.38 124.75Q115.63 125.13 114.25 125.44Q112.88 125.75 110.88 125.75L110.88 125.75Q107 125.75 104.88 123.44Q102.75 121.13 102.75 117.38L102.75 117.38Q102.75 113.75 104.81 111.19Q106.88 108.63 110.50 108.63L110.50 108.63Q114.50 108.63 115.88 111.31Q117.25 114 117.25 116.25L117.25 116.25Q117.25 116.75 117.25 117.13Q117.25 117.50 117.13 117.75L117.13 117.75L105.63 117.75ZM114.38 115.50L114.38 115.50Q114.38 114.13 113.56 112.44Q112.75 110.75 110.25 110.75L110.25 110.75Q108 110.75 106.94 112.38Q105.88 114 105.63 115.50L105.63 115.50L114.38 115.50Z"/></svg>