<svg xmlns="http://www.w3.org/2000/svg" xmlns:xlink="http://www.w3.org/1999/xlink" width="128" height="128"><path fill="#000000" d="M106.75 2.38L106.75 2.38L61.50 2.38Q61.50 10.88 67.50 16.81Q73.50 22.75 81.88 22.75L81.88 22.75L90.25 22.75L90.25 30.75Q90.25 39.25 96.19 45.19Q102.13 51.13 110.63 51.13L110.63 51.13L110.63 6.25Q110.63 4.63 109.44 3.50Q108.25 2.38 106.75 2.38L106.75 2.38ZM84.38 24.88L84.38 24.88L39.13 24.88Q39.13 33.38 45.13 39.31Q51.13 45.25 59.50 45.25L59.50 45.25L67.88 45.25L67.88 53.38Q67.88 61.75 73.81 67.69Q79.75 73.63 88.25 73.63L88.25 73.63L88.25 28.75Q88.25 27.13 87.06 26Q85.88 24.88 84.38 24.88L84.38 24.88L84.38 24.88ZM61.88 47.38L61.88 47.38L16.75 47.38Q16.75 55.88 22.75 61.81Q28.75 67.75 37.13 67.75L37.13 67.75L45.50 67.75L45.50 75.88Q45.50 84.25 51.44 90.25Q57.38 96.25 65.88 96.25L65.88 96.25L65.88 51.25Q65.88 49.75 64.69 48.56Q63.50 47.38 61.88 47.38L61.88 47.38L61.88 47.38ZM46 118.38L46 101.25L49.38 101.25L49.38 118.25Q49.38 121.63 47.81 123.75Q46.25 125.88 42.63 125.88L42.63 125.88Q41.25 125.88 40.25 125.69Q39.25 125.50 38.50 125.25L38.50 125.25L38.50 122Q39.25 122.25 40.19 122.44Q41.13 122.63 42.13 122.63L42.13 122.63Q44.25 122.63 45.13 121.44Q46 120.25 46 118.38L46 118.38ZM55.75 99.88L55.75 99.88Q56.75 99.88 57.38 100.50Q58 101.13 58 102.13L58 102.13Q58 103.25 57.38 103.81Q56.75 104.38 55.75 104.38L55.75 104.38Q54.75 104.38 54.06 103.81Q53.38 103.25 53.38 102.13L53.38 102.13Q53.38 101.13 54.06 100.50Q54.75 99.88 55.75 99.88ZM54 125.63L54 107.13L57.38 107.13L57.38 125.63L54 125.63ZM65.50 114.63L65.50 125.63L62.25 125.63L62.25 107.13L65.50 107.13L65.50 110.38Q66.38 108.63 67.94 107.63Q69.50 106.63 72.38 106.75L72.38 106.75L72.38 109.88Q69.13 109.63 67.31 110.69Q65.50 111.75 65.50 114.63L65.50 114.63ZM87.75 125.63L87.75 122.38Q86.88 124.13 85.19 125.06Q83.50 126 81.25 126L81.25 126Q77.50 126 75.56 123.25Q73.63 120.50 73.63 116.38L73.63 116.38Q73.63 112.50 75.63 109.63Q77.63 106.75 81.63 106.75L81.63 106.75Q83.75 106.75 85.31 107.63Q86.88 108.50 87.75 110.38L87.75 110.38L87.75 107.13L91 107.13L91 125.63L87.75 125.63ZM82.13 123.13L82.13 123.13Q84.38 123.13 86.06 121.69Q87.75 120.25 87.75 117.13L87.75 117.13L87.75 115.63Q87.75 112.50 86.19 111.13Q84.63 109.75 82.50 109.75L82.50 109.75Q79.75 109.75 78.31 111.44Q76.88 113.13 76.88 116.38L76.88 116.38Q76.88 119.75 78.25 121.44Q79.63 123.13 82.13 123.13L82.13 123.13ZM108.88 51L108.88 51Q101.88 50.38 96.75 45.63Q91.63 40.88 90.50 34.13L90.50 34.13L90.50 34Q90.38 33.25 90.38 31.88Q90.38 30.50 90.38 27.75L90.38 27.75L90.38 22.75L86.50 22.75Q80.88 22.75 78.19 22.31Q75.50 21.88 72.75 20.50L72.75 20.50Q68 18 65 13.56Q62 9.13 61.75 4L61.75 4L61.63 2.50L84.50 2.50Q101.63 2.50 104.63 2.56Q107.63 2.63 108.13 2.75L108.13 2.75Q108.75 3.13 109.25 3.63Q109.75 4.13 110.13 4.63L110.13 4.63L110.13 4.75L110.50 5.38L110.50 28.25Q110.50 42 110.44 46.56Q110.38 51.13 110.25 51.13L110.25 51.13Q110.25 51.13 109.81 51.06Q109.38 51 108.88 51L108.88 51ZM75.75 38.63L75.75 38.63Q70.75 33.75 66.88 30Q63 26.25 62.63 25.88L62.63 25.88L61.63 24.88L63.63 25L88.13 48.63L88.13 49.63Q88.13 50 88.13 50.31Q88.13 50.63 88.13 50.63L88.13 50.63Q88.13 50.63 84.50 47.13Q80.88 43.63 75.75 38.63ZM85 73.38L85 73.38Q78.88 72.38 74.38 68.19Q69.88 64 68.50 58.13L68.50 58.13Q68.13 56.50 68 54.75Q67.88 53 67.88 49.50L67.88 49.50L67.88 45.13L62.13 45.13Q58.38 45.13 57.25 45.06Q56.13 45 55.25 44.75L55.25 44.75Q52.25 44 49.75 42.63Q47.25 41.25 45.25 39.25L45.25 39.25Q42.50 36.50 41.06 33.25Q39.63 30 39.25 26L39.25 26L39.13 24.88L48.50 24.88L88.13 63.38L88.13 68.50L88.13 73.50L87.13 73.50Q86.50 73.50 85.94 73.44Q85.38 73.38 84.88 73.38L84.88 73.38L85 73.38ZM88 33.25L84 29.50Q82.75 28.25 81.69 27.19Q80.63 26.13 79.50 25L79.50 25L79.75 25.25L79.38 24.88L82.25 24.88Q84.63 25 85.44 25.19Q86.25 25.38 87 26.13L87 26.13Q87.63 26.75 87.81 27.38Q88 28 88.13 29.88L88.13 29.88Q88.13 30.75 88.13 31.63Q88.13 32.50 88.13 32.75L88.13 32.75L88 33.25ZM88 40.13L83.50 35.75Q81.63 33.88 79.31 31.63Q77 29.38 75.63 28.13L75.63 28.13L72.38 24.88L74.38 24.88L88.13 38.25L88 40.13ZM88 35.25L82.75 30.13Q80.63 28 79.06 26.50Q77.50 25 77.50 25L77.50 25Q77.50 24.88 77.75 24.88Q78 24.88 78.38 24.88L78.38 24.88L79.25 24.88L88.13 33.50L88.13 34.38L88 35.25ZM82.25 30.63L82.25 30.63Q78 26.38 77.31 25.69Q76.63 25 77 24.88L77 24.88Q77.38 24.88 77.88 25.38Q78.38 25.88 80.88 28.25L80.88 28.25Q82.25 29.63 83.81 31.13Q85.38 32.63 86.13 33.50L86.13 33.50Q87.50 34.75 87.81 35.13Q88.13 35.50 88.13 35.75L88.13 35.75Q88 36.13 87.13 35.31Q86.25 34.50 82.25 30.63L82.25 30.63Z"/></svg>