<svg xmlns="http://www.w3.org/2000/svg" xmlns:xlink="http://www.w3.org/1999/xlink" width="128" height="128"><path fill="#000000" d="M108 16L108 16L61.75 16Q61.75 24.63 67.88 30.75Q74 36.88 82.63 36.88L82.63 36.88L91.13 36.88L91.13 45.13Q91.13 53.75 97.25 59.81Q103.38 65.88 112 65.88L112 65.88L112 20Q112 18.38 110.81 17.19Q109.63 16 108 16L108 16L108 16ZM85.13 39L85.13 39L38.88 39Q38.88 47.63 45 53.75Q51.13 59.88 59.75 59.88L59.75 59.88L68.25 59.88L68.25 68.13Q68.25 76.75 74.38 82.88Q80.50 89 89.13 89L89.13 89L89.13 43Q89.13 41.38 87.94 40.19Q86.75 39 85.13 39L85.13 39L85.13 39ZM62.25 62.13L62.25 62.13L16 62.13Q16 70.75 22.13 76.81Q28.25 82.88 36.88 82.88L36.88 82.88L45.38 82.88L45.38 91.13Q45.38 99.75 51.44 105.88Q57.50 112 66.25 112L66.25 112L66.25 66Q66.25 64.38 65.06 63.25Q63.88 62.13 62.25 62.13L62.25 62.13L62.25 62.13Z"/></svg>