<svg xmlns="http://www.w3.org/2000/svg" xmlns:xlink="http://www.w3.org/1999/xlink" width="128" height="128"><path fill="#ffffff" d="M64 4.50L64 4.50Q76.25 4.50 87.13 9.25L87.13 9.25Q98 13.88 106.06 21.94Q114.13 30 118.75 40.88L118.75 40.88Q123.50 51.75 123.50 64L123.50 64Q123.50 76.25 118.75 87.13L118.75 87.13Q114.13 98 106.06 106.06Q98 114.13 87.13 118.75L87.13 118.75Q76.25 123.50 64 123.50L64 123.50Q51.75 123.50 40.88 118.75L40.88 118.75Q30 114.13 21.94 106.06Q13.88 98 9.25 87.13L9.25 87.13Q4.50 76.25 4.50 64L4.50 64Q4.50 51.75 9.25 40.88L9.25 40.88Q13.88 30 21.94 21.94Q30 13.88 40.88 9.25L40.88 9.25Q51.75 4.50 64 4.50ZM64 0L64 0Q50.75 0 39.13 5L39.13 5Q27.50 10.13 18.81 18.81Q10.13 27.50 5 39.13L5 39.13Q0 50.75 0 64L0 64Q0 77.25 5 88.88L5 88.88Q10.13 100.50 18.81 109.19Q27.50 117.88 39.13 123L39.13 123Q50.75 128 64 128L64 128Q77.25 128 88.88 123L88.88 123Q100.50 117.88 109.19 109.19Q117.88 100.50 123 88.88L123 88.88Q128 77.25 128 64L128 64Q128 50.75 123 39.13L123 39.13Q117.88 27.50 109.19 18.81Q100.50 10.13 88.88 5L88.88 5Q77.25 0 64 0ZM74.38 12.75L74.38 12.75Q72.50 12.38 69.38 15.38L69.38 15.38Q66.25 18.38 63 22.94Q59.75 27.50 56.88 32.88L56.88 32.88Q54 38.25 52.38 42.63L52.38 42.63Q52.13 43.25 51.75 45.13Q51.38 47 51.38 47.63L51.38 47.63Q51.38 47.63 53.13 51.31Q54.88 55 55.50 56.25L55.50 56.25Q54.38 55.75 52.63 52.56Q50.88 49.38 50.88 49.38L50.88 49.38Q49.75 51.63 48.88 58.94Q48 66.25 48.38 68L48.38 68Q48.38 68 50.25 70.69Q52.13 73.38 53.13 74.38L53.13 74.38Q51.75 73.88 50 71.75Q48.25 69.63 48.25 69.63L48.25 69.63Q47.88 71 47.88 73.19Q47.88 75.38 48 76.25L48 76.25Q49.75 78.75 51.56 79.38Q53.38 80 53.38 80L53.38 80Q53.38 80 52.88 85.25L52.88 85.25Q52.50 90.38 52.31 96.81Q52.13 103.25 52.63 109L52.63 109Q53.25 114.63 55.13 115.50L55.13 115.50Q56.25 115.25 57 109.50L57 109.50Q57.75 103.63 58.19 96.75Q58.63 89.88 58.75 84.25L58.75 84.25Q59 78.63 59 78.63L59 78.63Q59 78.63 61 78.63Q63 78.63 63.63 77.88L63.63 77.88Q65 76.88 67.50 69.56Q70 62.25 70.13 60.75L70.13 60.75Q70.13 60.75 67.19 61.38Q64.25 62 62.38 62.75L62.38 62.75Q63.75 61.38 67.06 60.50Q70.38 59.63 70.38 59.63L70.38 59.63Q71.63 58.13 73.63 50.56Q75.63 43 75.88 39.88L75.88 39.88Q75.88 39.13 76 38.13Q76.13 37.13 76 35.75L76 35.75Q76 35.75 73.38 36.19Q70.75 36.63 70 36.38L70 36.38Q70.75 36.38 73.44 35.38Q76.13 34.38 76.13 34.38L76.13 34.38Q76.75 28.25 76.69 20.69Q76.63 13.13 74.38 12.75L74.38 12.75ZM56.25 98.63L56.25 98.63Q55.88 105.88 55.69 108.75Q55.50 111.63 55.13 113.38L55.13 113.38Q55 113.75 54.88 113.75Q54.75 113.75 54.63 113.38L54.63 113.38Q54 110.38 53.88 98.88L53.88 98.88Q53.88 87.38 55.63 72.81Q57.38 58.25 61.38 43.13L61.38 43.13Q65.38 28 72.75 17.75L72.75 17.75Q68.50 25.63 65.38 36.50L65.38 36.50Q62.13 47.38 60.13 58.75Q58.13 70.13 57.13 80.75L57.13 80.75Q56.13 91.38 56.25 98.63L56.25 98.63Z"/></svg>