<svg xmlns="http://www.w3.org/2000/svg" xmlns:xlink="http://www.w3.org/1999/xlink" width="128" height="128"><path fill="#000000" d="M76 50.63L76 50.63Q70.25 50.63 67.38 53.31Q64.50 56 64.50 60.38L64.50 60.38Q64.50 63.13 65.75 65.06Q67 67 68.88 67.88L68.88 67.88Q68 68.75 67.19 69.44Q66.38 70.13 65.75 70.88L65.75 70.88Q65.13 71.63 64.69 72.38Q64.25 73.13 64.25 74L64.25 74Q64.25 75 64.75 75.88Q65.25 76.75 66.50 77.25L66.50 77.25Q65.13 78.50 64.44 79.56Q63.75 80.63 63.75 82.38L63.75 82.38Q63.75 85.38 66.63 87Q69.50 88.63 76.25 88.63L76.25 88.63Q82.75 88.63 86.38 86.25Q90 83.88 90 79.63L90 79.63Q90 74.63 86.38 73.56Q82.75 72.50 76.25 72.13L76.25 72.13L71.38 71.88L73 69.25Q73.63 69.38 74.69 69.50Q75.75 69.63 77 69.63L77 69.63Q81.63 69.63 84.63 67.31Q87.63 65 87.63 60.88L87.63 60.88Q87.63 59.13 86.94 57.88Q86.25 56.63 85.63 55.75L85.63 55.75L90 55.38L90 51L80.63 51Q79.75 51 78.69 50.81Q77.63 50.63 76 50.63L76 50.63ZM78.25 79.13L78.25 79.13Q80 79.25 81.25 79.50Q82.50 79.75 82.50 81L82.50 81Q82.50 83 80.19 83.44Q77.88 83.88 75.75 83.88L75.75 83.88Q73.13 83.88 71.38 83.31Q69.63 82.75 69.63 81.25L69.63 81.25Q69.63 80.50 70.06 79.88Q70.50 79.25 71 78.63L71 78.63L78.25 79.13ZM76.25 64.38L76.25 64.38Q73.88 64.38 72.75 63.25Q71.63 62.13 71.63 60.25L71.63 60.25Q71.63 57.75 73 56.69Q74.38 55.63 76.50 55.63L76.50 55.63Q78.63 55.63 79.81 56.75Q81 57.88 81 60.13L81 60.13Q81 62.13 79.69 63.25Q78.38 64.38 76.25 64.38ZM99.13 46.63L99.13 46.63Q101.38 46.63 102.56 45.50Q103.75 44.38 103.75 42.13L103.75 42.13Q103.75 40 102.56 38.88Q101.38 37.75 99.13 37.75L99.13 37.75Q97 37.75 95.81 38.88Q94.63 40 94.63 42.13L94.63 42.13Q94.63 44.38 95.81 45.50Q97 46.63 99.13 46.63ZM103 71.50L103 71.50L103 51L93.25 51L92.75 54.88L95.38 55.75Q95.75 55.88 95.88 56.13Q96 56.38 96 56.75L96 56.75L96 71.50Q96 72 95.69 72.19Q95.38 72.38 94.88 72.50L94.88 72.50L92 72.75L92 77L107 77L107 72.75L104.13 72.50Q103.50 72.38 103.25 72.19Q103 72 103 71.50ZM125.38 70.38L125.38 70.38Q124.50 70.75 123.44 71Q122.38 71.25 121.38 71.25L121.38 71.25Q119.38 71.25 118.69 70.31Q118 69.38 118 67.13L118 67.13L118 55L125 55L125 50L118.38 50Q118 50 118 49.94Q118 49.88 118 49.63L118 49.63L118 43L113.25 43Q112.75 46.75 110.88 48.56Q109 50.38 106 50.75L106 50.75L106 55L110 55Q110.25 55 110.13 55.19Q110 55.38 110 55.63L110 55.63L110 68.75Q110 73 112 74.94Q114 76.88 118.38 76.88L118.38 76.88Q120.50 76.88 122.75 76.25Q125 75.63 126.63 74.88L126.63 74.88L125.38 70.38ZM29.75 38.75L29.75 38.75Q28.75 37.88 27.38 37.88Q26 37.88 25 38.75L25 38.75L20.25 43.50L26.25 49.63Q27.25 49.25 28.38 49.50Q29.50 49.75 30.38 50.50L30.38 50.50Q31.25 51.38 31.44 52.50Q31.63 53.63 31.38 54.75L31.38 54.75L37.13 60.50Q38.13 60.13 39.25 60.38Q40.38 60.63 41.25 61.50L41.25 61.50Q42.50 62.63 42.50 64.31Q42.50 66 41.25 67.13L41.25 67.13Q40.13 68.25 38.44 68.25Q36.75 68.25 35.63 67.13L35.63 67.13Q34.75 66.25 34.44 65.06Q34.13 63.88 34.63 62.75L34.63 62.75L29 57.38L29 71.63Q29 71.75 29.50 71.94Q30 72.13 30.25 72.38L30.25 72.38Q31.38 73.50 31.44 75.19Q31.50 76.88 30.25 78L30.25 78Q29.13 79.25 27.50 79.25Q25.88 79.25 24.63 78L24.63 78Q23.50 76.88 23.50 75.19Q23.50 73.50 24.63 72.38L24.63 72.38Q25 72.13 25.13 71.88Q25.25 71.63 26 71.50L26 71.50L26 57.13Q25.25 57 25.13 56.75Q25 56.50 24.63 56.25L24.63 56.25Q23.75 55.38 23.56 54.13Q23.38 52.88 23.88 51.88L23.88 51.88L17.88 45.88L2.25 61.63Q1.25 62.63 1.25 64Q1.25 65.38 2.25 66.38L2.25 66.38L25.13 89.25Q26 90.25 27.44 90.25Q28.88 90.25 29.88 89.25L29.88 89.25L52.63 66.50Q53.63 65.50 53.63 64.06Q53.63 62.63 52.63 61.63L52.63 61.63L29.75 38.75Z"/></svg>