<svg xmlns="http://www.w3.org/2000/svg" xmlns:xlink="http://www.w3.org/1999/xlink" width="128" height="128"><path fill="#000000" d="M124.75 58.38L124.75 58.38L69.63 3.25Q67.25 0.88 63.88 0.88Q60.50 0.88 58.13 3.25L58.13 3.25L46.63 14.75L61.25 29.25Q63.75 28.38 66.44 28.94Q69.13 29.50 71.13 31.50L71.13 31.50Q73.13 33.63 73.69 36.31Q74.25 39 73.38 41.50L73.38 41.50L87.38 55.50Q90 54.63 92.69 55.19Q95.38 55.75 97.38 57.88L97.38 57.88Q100.25 60.63 100.25 64.63Q100.25 68.63 97.38 71.50L97.38 71.50Q94.63 74.38 90.63 74.38Q86.63 74.38 83.75 71.50L83.75 71.50Q81.63 69.38 81.06 66.50Q80.50 63.63 81.63 61L81.63 61L68.63 47.88L68.63 82.25Q69.25 82.63 69.88 83.06Q70.50 83.50 71.13 84.13L71.13 84.13Q74 86.88 74 90.94Q74 95 71.13 97.75L71.13 97.75Q68.25 100.63 64.25 100.63Q60.25 100.63 57.50 97.75L57.50 97.75Q54.63 95 54.44 90.94Q54.25 86.88 57.13 84.13L57.13 84.13Q57.88 83.38 58.56 82.88Q59.25 82.38 60 82L60 82L60 47.38Q59.25 47 58.56 46.44Q57.88 45.88 57.13 45.25L57.13 45.25Q55 43.13 54.56 40.19Q54.13 37.25 55.25 34.63L55.25 34.63L41 20.38L3.25 58.13Q0.88 60.50 0.88 63.88Q0.88 67.25 3.25 69.63L3.25 69.63L58.38 124.75Q60.75 127.13 64.13 127.13Q67.50 127.13 69.88 124.75L69.88 124.75L124.75 69.88Q127.13 67.50 127.13 64.13Q127.13 60.75 124.75 58.38L124.75 58.38Z"/></svg>