<svg xmlns="http://www.w3.org/2000/svg" xmlns:xlink="http://www.w3.org/1999/xlink" width="128" height="128"><path fill="#ffffff" d="M56.50 55.13L56.50 55.13Q56.75 55.25 57.06 55.38Q57.38 55.50 57.75 55.50L57.75 55.50Q58.75 55.50 59.38 54.88Q60 54.25 60 53.38L60 53.38L60.13 53.38L60.88 40.13Q60.13 40.25 59.44 40.31Q58.75 40.38 58.13 40.63L58.13 40.63Q54.38 41.38 51.25 43.19Q48.13 45 45.63 47.38L45.63 47.38L56.50 55.13L56.50 55.13ZM55 74.50L55 74.50Q54.88 73.75 54.25 73.25Q53.63 72.75 52.88 72.75L52.88 72.75Q52.75 72.75 52.69 72.81Q52.63 72.88 52.50 72.88L52.50 72.88L52.38 72.75L39.38 75Q40.88 79.25 43.63 82.56Q46.38 85.88 49.88 88.13L49.88 88.13L55 76L54.88 75.88Q55 75.63 55.06 75.25Q55.13 74.88 55 74.50ZM50.75 65.13L50.75 65.13Q51 65 51.31 64.81Q51.63 64.63 51.88 64.38L51.88 64.38Q52.38 63.63 52.31 62.75Q52.25 61.88 51.63 61.25L51.63 61.25L51.63 61.25L41.63 52.38Q39.50 56 38.50 60.19Q37.50 64.38 38 68.88L38 68.88L50.63 65.13L50.75 65.13ZM59.38 65.13L60.38 69L64 70.75L67.63 69L68.50 65.13L66 61.88L62 61.88L59.38 65.13ZM67.88 53.38L67.88 53.38Q68 53.75 68.13 54.06Q68.25 54.38 68.38 54.63L68.38 54.63Q69 55.38 69.88 55.50Q70.75 55.63 71.50 55L71.50 55L71.50 55.13L82.38 47.38Q79.25 44.38 75.38 42.50Q71.50 40.63 67.13 40.13L67.13 40.13L67.88 53.38ZM75.50 72.75L75.50 72.75Q75.38 72.75 75.25 72.75Q75.13 72.75 75 72.75L75 72.75Q74.75 72.75 74.56 72.81Q74.38 72.88 74.13 73L74.13 73Q73.38 73.38 73.06 74.19Q72.75 75 73.13 75.88L73.13 75.88L73 75.88L78.13 88.25Q81.88 85.88 84.56 82.44Q87.25 79 88.75 75L88.75 75L75.50 72.75L75.50 72.75ZM66 79.25L66 79.38Q65.75 79 65.50 78.75Q65.25 78.50 65 78.38L65 78.38Q64.75 78.25 64.44 78.19Q64.13 78.13 63.88 78.13L63.88 78.13Q63.38 78.13 62.88 78.44Q62.38 78.75 62 79.38L62 79.38L62 79.38L55.63 90.88Q58.88 92 62.50 92.25Q66.13 92.50 69.88 91.63L69.88 91.63Q70.50 91.50 71.13 91.31Q71.75 91.13 72.38 91L72.38 91L66 79.25L66 79.25ZM124.50 76.75L124.50 76.75L114.13 31.50Q113.75 29.63 112.56 28.25Q111.38 26.88 109.75 26L109.75 26L67.50 5.88Q66.63 5.38 65.63 5.19Q64.63 5 63.63 5.13L63.63 5.13Q62.75 5.13 62 5.31Q61.25 5.50 60.50 5.88L60.50 5.88L18.25 26Q16.63 26.88 15.44 28.25Q14.25 29.63 13.88 31.50L13.88 31.50L3.50 76.75Q3.13 78.38 3.38 80Q3.63 81.63 4.50 83L4.50 83Q4.63 83.13 4.75 83.25Q4.88 83.38 5 83.63L5 83.63L34.25 119.88Q35.38 121.38 37.06 122.19Q38.75 123 40.63 123L40.63 123L87.50 122.88Q89.25 122.88 90.94 122.13Q92.63 121.38 93.75 119.88L93.75 119.88L123 83.50Q124.13 82.13 124.56 80.38Q125 78.63 124.50 76.75ZM108.50 76.25L108.50 76.25Q108.25 77.25 107.31 77.81Q106.38 78.38 105.25 78.13L105.25 78.13Q105.25 78.13 105.19 78.13Q105.13 78.13 105.13 78.13L105.13 78.13Q105.13 78.13 105.13 78.13Q105.13 78.13 105.13 78L105.13 78Q105 78 104.81 78Q104.63 78 104.50 77.88L104.50 77.88Q103.88 77.75 103.31 77.50Q102.75 77.25 102.25 77L102.25 77Q101 76.63 99.88 76.25Q98.75 75.88 97.75 75.75L97.75 75.75Q97.25 75.75 96.94 75.94Q96.63 76.13 96.38 76.25L96.38 76.25Q96.25 76.25 95.88 76.19Q95.50 76.13 95.25 76.13L95.25 76.13Q93.50 81.75 89.75 86.50Q86 91.25 80.75 94.38L80.75 94.38Q80.88 94.63 81 95Q81.13 95.38 81.13 95.38L81.13 95.38Q81 95.75 80.88 96.06Q80.75 96.38 81 96.88L81 96.88Q81.38 97.88 81.94 98.81Q82.50 99.75 83.25 100.88L83.25 100.88Q83.50 101.38 83.88 101.88Q84.25 102.38 84.50 103L84.50 103Q84.63 103.13 84.69 103.31Q84.75 103.50 84.88 103.63L84.88 103.63Q85.38 104.63 85.06 105.69Q84.75 106.75 83.75 107.25L83.75 107.25Q82.88 107.63 81.88 107.25Q80.88 106.88 80.25 105.75L80.25 105.75Q80.25 105.63 80.13 105.44Q80 105.25 80 105.13L80 105.13Q79.75 104.50 79.63 103.94Q79.50 103.38 79.25 102.75L79.25 102.75Q78.88 101.50 78.44 100.50Q78 99.50 77.50 98.50L77.50 98.50Q77.25 98.13 76.94 98Q76.63 97.88 76.25 97.75L76.25 97.75Q76.13 97.63 76 97.31Q75.88 97 75.75 96.75L75.75 96.75Q74.63 97.25 73.56 97.56Q72.50 97.88 71.38 98.13L71.38 98.13Q66.50 99.25 61.63 98.88Q56.75 98.50 52.38 96.75L52.38 96.75L51.75 97.75Q51.50 97.88 51.19 98Q50.88 98.13 50.75 98.38L50.75 98.38Q50 99.13 49.63 100.38Q49.25 101.63 48.75 102.88L48.75 102.88Q48.63 103.50 48.44 104.06Q48.25 104.63 48 105.13L48 105.13Q48 105.38 47.88 105.50Q47.75 105.63 47.75 105.88L47.75 105.88Q47.75 105.88 47.75 105.88Q47.75 105.88 47.75 105.88L47.75 105.88Q47.75 105.88 47.75 105.88Q47.75 105.88 47.75 105.88L47.75 105.88Q47.25 106.88 46.19 107.31Q45.13 107.75 44.25 107.25L44.25 107.25Q43.25 106.88 42.94 105.81Q42.63 104.75 43.13 103.63L43.13 103.63Q43.25 103.50 43.31 103.31Q43.38 103.13 43.50 103L43.50 103Q43.75 102.38 44.13 101.94Q44.50 101.50 44.88 101L44.88 101Q45.50 99.88 46.13 98.88Q46.75 97.88 47.13 96.88L47.13 96.88Q47.25 96.50 47.13 96.13Q47 95.75 46.88 95.50L46.88 95.50L47.38 94.38Q42.25 91.38 38.44 86.69Q34.63 82 32.75 76.13L32.75 76.13L31.63 76.38Q31.50 76.25 31.06 76Q30.63 75.75 30.25 75.75L30.25 75.75Q29.25 76 28.13 76.31Q27 76.63 25.75 77.13L25.75 77.13Q25.25 77.38 24.69 77.56Q24.13 77.75 23.50 78L23.50 78Q23.38 78 23.19 78.06Q23 78.13 22.88 78.13L22.88 78.13Q22.88 78.13 22.88 78.13Q22.88 78.13 22.88 78.13L22.88 78.13Q22.88 78.13 22.81 78.13Q22.75 78.13 22.75 78.13L22.75 78.13Q21.63 78.38 20.69 77.88Q19.75 77.38 19.50 76.25L19.50 76.25Q19.25 75.25 19.88 74.38Q20.50 73.50 21.63 73.25L21.63 73.25Q21.63 73.25 21.69 73.25Q21.75 73.25 21.75 73.25L21.75 73.25Q21.75 73.25 21.75 73.25Q21.75 73.25 21.75 73.25L21.75 73.25Q21.88 73.13 22.06 73.13Q22.25 73.13 22.38 73L22.38 73Q23.13 72.88 23.69 72.88Q24.25 72.88 24.88 72.88L24.88 72.88Q26.13 72.75 27.25 72.56Q28.38 72.38 29.38 72.13L29.38 72.13Q29.63 72 29.94 71.63Q30.25 71.25 30.50 71L30.50 71L31.50 70.75Q30.63 64.50 32 58.63Q33.38 52.75 36.63 47.88L36.63 47.88L35.88 47.13Q35.88 46.88 35.75 46.44Q35.63 46 35.38 45.75L35.38 45.75Q34.63 45 33.69 44.38Q32.75 43.75 31.63 43.13L31.63 43.13Q31.13 42.75 30.56 42.50Q30 42.25 29.50 41.88L29.50 41.88Q29.38 41.75 29.25 41.63Q29.13 41.50 29 41.38L29 41.38Q29 41.38 29 41.38Q29 41.38 29 41.38L29 41.38Q28 40.63 27.81 39.56Q27.63 38.50 28.38 37.63L28.38 37.63Q28.75 37.25 29.25 37Q29.75 36.75 30.38 36.75L30.38 36.75Q30.75 36.75 31.25 36.94Q31.75 37.13 32.13 37.38L32.13 37.38Q32.25 37.50 32.38 37.63Q32.50 37.75 32.63 37.88L32.63 37.88Q33.13 38.38 33.50 38.81Q33.88 39.25 34.38 39.63L34.38 39.63Q35.25 40.63 36.06 41.38Q36.88 42.13 37.75 42.75L37.75 42.75Q38.13 43 38.50 42.94Q38.88 42.88 39.25 42.88L39.25 42.88Q39.38 43 39.63 43.19Q39.88 43.38 40.13 43.50L40.13 43.50Q43.38 40.13 47.56 37.69Q51.75 35.25 56.63 34.13L56.63 34.13Q57.75 33.88 58.94 33.69Q60.13 33.50 61.25 33.38L61.25 33.38L61.25 32.38Q61.50 32.13 61.75 31.75Q62 31.38 62.13 31L62.13 31Q62.13 30 62.06 28.88Q62 27.75 61.88 26.38L61.88 26.38Q61.75 25.75 61.63 25.19Q61.50 24.63 61.50 24L61.50 24Q61.50 23.88 61.50 23.69Q61.50 23.50 61.50 23.38L61.50 23.38Q61.50 23.38 61.50 23.38Q61.50 23.38 61.50 23.25L61.50 23.25Q61.50 22.13 62.25 21.31Q63 20.50 64 20.50L64 20.50L64 20.50Q65 20.50 65.75 21.31Q66.50 22.13 66.50 23.25L66.50 23.25Q66.50 23.50 66.50 23.69Q66.50 23.88 66.50 24L66.50 24Q66.50 24.63 66.38 25.19Q66.25 25.75 66.25 26.38L66.25 26.38Q66 27.75 65.94 28.88Q65.88 30 65.88 31L65.88 31Q66 31.50 66.25 31.75Q66.50 32 66.75 32.25L66.75 32.25Q66.75 32.38 66.75 32.75Q66.75 33.13 66.75 33.38L66.75 33.38Q72.88 33.88 78.25 36.56Q83.63 39.25 87.75 43.50L87.75 43.50L88.75 42.88Q89 42.88 89.44 42.88Q89.88 42.88 90.25 42.63L90.25 42.63Q91.13 42.13 91.94 41.31Q92.75 40.50 93.63 39.63L93.63 39.63Q94.13 39.13 94.50 38.69Q94.88 38.25 95.38 37.88L95.38 37.88Q95.50 37.75 95.63 37.63Q95.75 37.50 95.88 37.38L95.88 37.38Q96.88 36.63 97.94 36.69Q99 36.75 99.63 37.63L99.63 37.63Q100.38 38.38 100.19 39.50Q100 40.63 99.13 41.38L99.13 41.38Q98.88 41.50 98.75 41.63Q98.63 41.75 98.50 41.75L98.50 41.75Q98 42.13 97.50 42.44Q97 42.75 96.38 43L96.38 43Q95.25 43.75 94.31 44.38Q93.38 45 92.63 45.63L92.63 45.63Q92.25 46 92.25 46.38Q92.25 46.75 92.13 47.13L92.13 47.13Q92 47.13 91.75 47.44Q91.50 47.75 91.25 47.88L91.25 47.88Q92.88 50.38 94.06 53.13Q95.25 55.88 96 58.88L96 58.88Q96.75 61.88 96.81 64.81Q96.88 67.75 96.50 70.63L96.50 70.63L97.50 71Q97.75 71.13 98 71.50Q98.25 71.88 98.63 72L98.63 72Q99.63 72.38 100.75 72.50Q101.88 72.63 103.13 72.75L103.13 72.75Q103.75 72.88 104.38 72.88Q105 72.88 105.63 73L105.63 73Q105.75 73 105.94 73.06Q106.13 73.13 106.38 73.13L106.38 73.13Q107.50 73.38 108.13 74.31Q108.75 75.25 108.50 76.25L108.50 76.25ZM86.25 52.38L86.25 52.38L76.38 61.25L76.38 61.25Q76.13 61.50 75.94 61.75Q75.75 62 75.75 62.38L75.75 62.38Q75.50 63.25 75.94 64.06Q76.38 64.88 77.25 65L77.25 65L77.25 65.13L90.13 68.75Q90.25 66.75 90.13 64.63Q90 62.50 89.50 60.25L89.50 60.25Q89 58.13 88.19 56.13Q87.38 54.13 86.25 52.38L86.25 52.38Z"/></svg>