<svg xmlns="http://www.w3.org/2000/svg" xmlns:xlink="http://www.w3.org/1999/xlink" width="128" height="128"><path fill="#000000" d="M59.13 49.13L59.13 49.13Q59.38 49.25 59.63 49.38Q59.88 49.50 60.13 49.50L60.13 49.50Q60.88 49.50 61.38 49Q61.88 48.50 62 47.75L62 47.75L62 47.75L62.63 37.25Q62 37.25 61.50 37.38Q61 37.50 60.38 37.63L60.38 37.63Q57.50 38.25 55 39.63Q52.50 41 50.50 43L50.50 43L59.13 49.13ZM58 64.50L58 64.50Q57.88 63.88 57.38 63.50Q56.88 63.13 56.25 63.13L56.25 63.13Q56.25 63.13 56.13 63.13Q56 63.13 56 63.13L56 63.13L55.88 63.13L45.63 64.88Q46.75 68.13 48.94 70.81Q51.13 73.50 53.88 75.25L53.88 75.25L57.88 65.63L57.88 65.63Q58 65.38 58 65.06Q58 64.75 58 64.50L58 64.50ZM54.50 57.13L54.50 57Q54.75 57 55 56.81Q55.25 56.63 55.50 56.50L55.50 56.50Q55.88 55.88 55.81 55.19Q55.75 54.50 55.25 54L55.25 54L55.25 54L47.38 46.88Q45.63 49.75 44.88 53.13Q44.13 56.50 44.50 60L44.50 60L54.50 57.13ZM61.50 57L62.13 60.13L65.13 61.50L68 60.13L68.75 57L66.75 54.50L63.50 54.50L61.50 57ZM67.63 37.25L68.25 47.75Q68.25 48 68.31 48.25Q68.38 48.50 68.63 48.75L68.63 48.75Q69 49.25 69.75 49.38Q70.50 49.50 71 49.13L71 49.13L71 49.13L79.63 43Q77.13 40.63 74.06 39.13Q71 37.63 67.63 37.25L67.63 37.25ZM74.25 63.13L74.25 63.13Q74.13 63.13 74 63.13Q73.88 63.13 73.75 63.13L73.75 63.13Q73.63 63.13 73.44 63.13Q73.25 63.13 73.13 63.25L73.13 63.25Q72.50 63.63 72.25 64.25Q72 64.88 72.25 65.50L72.25 65.50L72.25 65.63L76.25 75.38Q79.25 73.50 81.38 70.81Q83.50 68.13 84.63 64.88L84.63 64.88L74.25 63.13L74.25 63.13ZM66.63 68.25L66.63 68.25Q66.50 68 66.31 67.81Q66.13 67.63 65.88 67.50L65.88 67.50Q65.63 67.50 65.44 67.44Q65.25 67.38 65 67.38L65 67.38Q64.63 67.38 64.19 67.63Q63.75 67.88 63.50 68.25L63.50 68.25L63.50 68.25L58.50 77.50Q61.13 78.38 64 78.56Q66.88 78.75 69.75 78L69.75 78Q70.25 78 70.75 77.81Q71.25 77.63 71.75 77.50L71.75 77.50L66.63 68.25L66.63 68.25ZM113 66.25L113 66.25L104.75 30.38Q104.50 29 103.56 27.88Q102.63 26.75 101.38 26.13L101.38 26.13L67.88 10.13Q67.13 9.75 66.31 9.56Q65.50 9.38 64.75 9.50L64.75 9.50Q64.13 9.50 63.50 9.63Q62.88 9.75 62.25 10.13L62.25 10.13L28.88 26.13Q27.50 26.75 26.63 27.88Q25.75 29 25.38 30.38L25.38 30.38L17.13 66.25Q16.88 67.50 17.06 68.81Q17.25 70.13 18 71.13L18 71.13Q18.13 71.25 18.19 71.38Q18.25 71.50 18.38 71.63L18.38 71.63L41.50 100.50Q42.38 101.63 43.69 102.25Q45 102.88 46.50 102.88L46.50 102.88L83.63 102.88Q85.13 102.88 86.44 102.25Q87.75 101.63 88.63 100.50L88.63 100.50L111.75 71.63Q112.75 70.50 113.06 69.13Q113.38 67.75 113 66.25L113 66.25ZM100.38 65.88L100.38 65.88Q100.13 66.63 99.38 67.06Q98.63 67.50 97.75 67.25L97.75 67.25Q97.75 67.25 97.75 67.25Q97.75 67.25 97.75 67.25L97.75 67.25Q97.75 67.25 97.69 67.25Q97.63 67.25 97.63 67.25L97.63 67.25Q97.50 67.25 97.38 67.25Q97.25 67.25 97.13 67.25L97.13 67.25Q96.63 67 96.25 66.81Q95.88 66.63 95.38 66.50L95.38 66.50Q94.38 66.13 93.50 65.88Q92.63 65.63 91.88 65.50L91.88 65.50Q91.50 65.50 91.25 65.63Q91 65.75 90.75 65.88L90.75 65.88Q90.63 65.88 90.38 65.81Q90.13 65.75 89.88 65.75L89.88 65.75Q88.50 70.25 85.50 74Q82.50 77.75 78.38 80.25L78.38 80.25Q78.38 80.38 78.50 80.69Q78.63 81 78.63 81.13L78.63 81.13Q78.63 81.38 78.50 81.63Q78.38 81.88 78.50 82.25L78.50 82.25Q78.75 83 79.25 83.75Q79.75 84.50 80.25 85.38L80.25 85.38Q80.63 85.88 80.88 86.19Q81.13 86.50 81.38 87L81.38 87Q81.38 87.13 81.50 87.31Q81.63 87.50 81.63 87.63L81.63 87.63Q82 88.38 81.75 89.19Q81.50 90 80.75 90.38L80.75 90.38Q80 90.75 79.19 90.44Q78.38 90.13 78 89.25L78 89.25Q78 89.13 77.88 89Q77.75 88.88 77.75 88.75L77.75 88.75Q77.50 88.25 77.44 87.81Q77.38 87.38 77.13 87L77.13 87Q76.88 86 76.56 85.13Q76.25 84.25 75.75 83.63L75.75 83.63Q75.63 83.25 75.31 83.13Q75 83 74.75 83L74.75 83Q74.75 82.88 74.63 82.63Q74.50 82.38 74.38 82.13L74.38 82.13Q73.50 82.50 72.63 82.75Q71.75 83 70.88 83.25L70.88 83.25Q67 84.13 63.19 83.81Q59.38 83.50 55.88 82.13L55.88 82.13L55.38 83Q55.13 83 54.94 83.13Q54.75 83.25 54.50 83.38L54.50 83.38Q54 84 53.69 85Q53.38 86 53 87L53 87Q52.88 87.50 52.75 87.94Q52.63 88.38 52.38 88.88L52.38 88.88Q52.38 88.88 52.31 89.06Q52.25 89.25 52.13 89.38L52.13 89.38Q52.13 89.38 52.13 89.38Q52.13 89.38 52.13 89.38L52.13 89.38Q52.13 89.38 52.13 89.38Q52.13 89.38 52.13 89.38L52.13 89.38Q51.75 90.13 50.94 90.50Q50.13 90.88 49.38 90.50L49.38 90.50Q48.63 90.13 48.38 89.31Q48.13 88.50 48.63 87.63L48.63 87.63Q48.63 87.50 48.69 87.31Q48.75 87.13 48.88 87.13L48.88 87.13Q49.13 86.63 49.38 86.25Q49.63 85.88 49.88 85.50L49.88 85.50Q50.50 84.63 50.94 83.81Q51.38 83 51.75 82.25L51.75 82.25Q51.75 82 51.69 81.69Q51.63 81.38 51.50 81.13L51.50 81.13L51.88 80.25Q47.88 77.88 44.88 74.19Q41.88 70.50 40.38 65.75L40.38 65.75L39.50 66Q39.25 65.88 38.94 65.69Q38.63 65.50 38.38 65.50L38.38 65.50Q37.50 65.63 36.69 65.94Q35.88 66.25 34.88 66.50L34.88 66.50Q34.38 66.75 33.94 66.94Q33.50 67.13 33 67.25L33 67.25Q32.88 67.25 32.75 67.31Q32.63 67.38 32.50 67.38L32.50 67.38Q32.50 67.38 32.50 67.38Q32.50 67.38 32.50 67.38L32.50 67.38Q32.50 67.38 32.50 67.38Q32.50 67.38 32.38 67.38L32.38 67.38Q31.50 67.63 30.75 67.19Q30 66.75 29.88 65.88L29.88 65.88Q29.63 65.13 30.13 64.44Q30.63 63.75 31.50 63.50L31.50 63.50Q31.50 63.50 31.56 63.50Q31.63 63.50 31.63 63.50L31.63 63.50Q31.63 63.50 31.63 63.50Q31.63 63.50 31.63 63.50L31.63 63.50Q31.75 63.50 31.88 63.44Q32 63.38 32.13 63.38L32.13 63.38Q32.63 63.25 33.06 63.25Q33.50 63.25 34 63.25L34 63.25Q35.13 63.13 36 63Q36.88 62.88 37.63 62.63L37.63 62.63Q37.88 62.50 38.13 62.25Q38.38 62 38.50 61.75L38.50 61.75L39.38 61.50Q38.63 56.63 39.75 51.94Q40.88 47.25 43.38 43.38L43.38 43.38L42.75 42.88Q42.75 42.63 42.69 42.31Q42.63 42 42.38 41.75L42.38 41.75Q41.75 41.13 41 40.63Q40.25 40.13 39.38 39.63L39.38 39.63Q39 39.38 38.56 39.19Q38.13 39 37.75 38.63L37.75 38.63Q37.63 38.63 37.50 38.50Q37.38 38.38 37.38 38.25L37.38 38.25Q37.38 38.25 37.31 38.25Q37.25 38.25 37.25 38.25L37.25 38.25Q36.63 37.75 36.44 36.88Q36.25 36 36.75 35.38L36.75 35.38Q37.13 35 37.56 34.81Q38 34.63 38.38 34.63L38.38 34.63Q38.75 34.63 39.13 34.75Q39.50 34.88 39.75 35.13L39.75 35.13Q39.88 35.25 40 35.31Q40.13 35.38 40.25 35.50L40.25 35.50Q40.63 35.88 40.94 36.19Q41.25 36.50 41.63 36.88L41.63 36.88Q42.38 37.63 43 38.25Q43.63 38.88 44.25 39.38L44.25 39.38Q44.63 39.50 44.94 39.50Q45.25 39.50 45.50 39.50L45.50 39.50Q45.50 39.50 45.75 39.69Q46 39.88 46.13 40L46.13 40Q48.75 37.25 52.06 35.31Q55.38 33.38 59.25 32.50L59.25 32.50Q60.13 32.25 61.06 32.13Q62 32 62.88 32L62.88 32L63 31.13Q63.13 30.88 63.31 30.63Q63.50 30.38 63.63 30L63.63 30Q63.63 29.25 63.56 28.38Q63.50 27.50 63.38 26.38L63.38 26.38Q63.25 26 63.19 25.50Q63.13 25 63.13 24.50L63.13 24.50Q63.13 24.38 63.13 24.25Q63.13 24.13 63.13 24L63.13 24Q63.13 24 63.13 24Q63.13 24 63.13 24L63.13 24Q63.13 23 63.69 22.38Q64.25 21.75 65.13 21.75L65.13 21.75L65.13 21.75Q65.88 21.75 66.50 22.38Q67.13 23 67.13 24L67.13 24Q67.13 24.13 67.13 24.25Q67.13 24.38 67.13 24.50L67.13 24.50Q67.13 25 67 25.50Q66.88 26 66.88 26.38L66.88 26.38Q66.75 27.50 66.63 28.38Q66.50 29.25 66.63 30L66.63 30Q66.63 30.50 66.81 30.69Q67 30.88 67.25 31L67.25 31Q67.25 31.13 67.25 31.44Q67.25 31.75 67.25 32L67.25 32Q72.13 32.38 76.38 34.50Q80.63 36.63 83.88 40L83.88 40L84.75 39.50Q84.88 39.50 85.25 39.50Q85.63 39.50 85.88 39.25L85.88 39.25Q86.63 38.88 87.25 38.25Q87.88 37.63 88.63 36.88L88.63 36.88Q89 36.50 89.25 36.19Q89.50 35.88 89.88 35.50L89.88 35.50Q90 35.38 90.13 35.31Q90.25 35.25 90.38 35.13L90.38 35.13Q91.13 34.50 92 34.56Q92.88 34.63 93.38 35.25L93.38 35.25Q93.88 35.88 93.75 36.75Q93.63 37.63 92.88 38.25L92.88 38.25Q92.75 38.38 92.63 38.44Q92.50 38.50 92.50 38.63L92.50 38.63Q92 38.88 91.63 39.13Q91.25 39.38 90.75 39.63L90.75 39.63Q89.88 40.13 89.13 40.63Q88.38 41.13 87.75 41.63L87.75 41.63Q87.50 42 87.50 42.25Q87.50 42.50 87.38 42.75L87.38 42.75Q87.38 42.88 87.13 43.06Q86.88 43.25 86.75 43.38L86.75 43.38Q88 45.38 88.94 47.56Q89.88 49.75 90.50 52.13L90.50 52.13Q91 54.50 91.13 56.81Q91.25 59.13 90.88 61.50L90.88 61.50L91.75 61.75Q91.75 61.88 92 62.19Q92.25 62.50 92.50 62.50L92.50 62.50Q93.38 62.75 94.25 62.88Q95.13 63 96.13 63.13L96.13 63.13Q96.63 63.13 97.06 63.19Q97.50 63.25 98.13 63.25L98.13 63.25Q98.25 63.38 98.38 63.38Q98.50 63.38 98.63 63.50L98.63 63.50Q99.50 63.63 100 64.31Q100.50 65 100.38 65.88L100.38 65.88ZM82.75 46.88L82.75 46.88L74.88 53.88L74.88 54Q74.75 54.13 74.56 54.38Q74.38 54.63 74.38 54.88L74.38 54.88Q74.25 55.63 74.56 56.19Q74.88 56.75 75.63 57L75.63 57L75.63 57L85.75 60Q85.88 58.25 85.81 56.56Q85.75 54.88 85.25 53.25L85.25 53.25Q84.88 51.50 84.25 49.94Q83.63 48.38 82.75 46.88ZM11.38 112.13L11.38 112.13Q11.63 111.88 11.88 111.63Q12.13 111.38 12.38 111.13L12.38 111.13Q12.63 110.88 12.88 110.56Q13.13 110.25 13.38 110L13.38 110Q13.63 109.75 13.81 109.50Q14 109.25 14.25 109L14.25 109Q14.38 108.75 14.56 108.56Q14.75 108.38 14.88 108.13L14.88 108.13L18.63 108.13Q18.13 108.75 17.56 109.38Q17 110 16.50 110.63L16.50 110.63Q16 111.25 15.38 111.81Q14.75 112.38 14.13 113L14.13 113Q14.50 113.25 14.81 113.63Q15.13 114 15.50 114.38L15.50 114.38Q15.75 114.75 16.13 115.19Q16.50 115.63 16.75 116L16.75 116Q17.13 116.50 17.38 116.88Q17.63 117.25 17.88 117.75L17.88 117.75Q18.13 118.13 18.38 118.50Q18.63 118.88 18.88 119.25L18.88 119.25L15.25 119.25Q15 119 14.81 118.69Q14.63 118.38 14.38 118L14.38 118Q14.25 117.75 14 117.38Q13.75 117 13.50 116.75L13.50 116.75Q13.25 116.38 13 116.06Q12.75 115.75 12.50 115.38L12.50 115.38Q12.25 115.13 11.94 114.88Q11.63 114.63 11.38 114.38L11.38 114.38L11.38 119.25L8.25 119.25L8.25 103.38L11.38 102.88L11.38 112.13ZM29.75 118.88L29.75 118.88Q29.38 119 28.88 119.13Q28.38 119.25 27.75 119.38L27.75 119.38Q27.13 119.38 26.44 119.44Q25.75 119.50 25 119.50L25 119.50Q24.38 119.50 23.75 119.44Q23.13 119.38 22.63 119.13L22.63 119.13Q22.25 119 21.88 118.69Q21.50 118.38 21.25 118.13L21.25 118.13Q20.88 117.75 20.69 117.31Q20.50 116.88 20.38 116.50L20.38 116.50Q20.25 116 20.19 115.44Q20.13 114.88 20.13 114.38L20.13 114.38L20.13 108.13L23.38 108.13L23.38 114Q23.38 114.75 23.44 115.31Q23.50 115.88 23.75 116.13L23.75 116.13Q23.88 116.50 24.25 116.69Q24.63 116.88 25.25 116.88L25.25 116.88Q25.38 116.88 25.56 116.88Q25.75 116.88 26 116.88L26 116.88Q26.13 116.75 26.31 116.75Q26.50 116.75 26.63 116.75L26.63 116.75L26.63 108.13L29.75 108.13L29.75 118.88ZM39.88 113.63L39.88 113.63Q39.88 112.13 39.31 111.38Q38.75 110.63 37.63 110.63L37.63 110.63Q37.38 110.63 37.13 110.63Q36.88 110.63 36.63 110.75L36.63 110.75Q36.50 110.75 36.31 110.88Q36.13 111 35.88 111L35.88 111L35.88 116.75Q36 116.75 36.19 116.81Q36.38 116.88 36.50 116.88L36.50 116.88Q36.63 116.88 36.88 116.88Q37.13 116.88 37.25 116.88L37.25 116.88Q37.88 116.88 38.38 116.63Q38.88 116.38 39.25 116L39.25 116Q39.50 115.50 39.69 114.94Q39.88 114.38 39.88 113.63L39.88 113.63ZM43.13 113.75L43.13 113.75Q43.13 114.38 43 115Q42.88 115.63 42.75 116.13L42.75 116.13Q42.50 116.63 42.25 117.13Q42 117.63 41.63 118L41.63 118Q41.25 118.38 40.75 118.69Q40.25 119 39.75 119.13L39.75 119.13Q39.25 119.38 38.63 119.44Q38 119.50 37.25 119.50L37.25 119.50Q37 119.50 36.69 119.50Q36.38 119.50 36.13 119.50L36.13 119.50Q35.75 119.50 35.44 119.44Q35.13 119.38 34.88 119.38L34.88 119.38Q34.63 119.38 34.31 119.31Q34 119.25 33.75 119.13L33.75 119.13Q33.50 119.13 33.25 119.06Q33 119 32.75 118.88L32.75 118.88L32.75 103.38L35.88 102.88L35.88 108.38Q36.13 108.25 36.44 108.19Q36.75 108.13 37 108L37 108Q37.25 108 37.56 107.94Q37.88 107.88 38.25 107.88L38.25 107.88Q38.88 107.88 39.38 108Q39.88 108.13 40.38 108.38L40.38 108.38Q40.75 108.50 41.13 108.81Q41.50 109.13 41.88 109.50L41.88 109.50Q42.13 109.88 42.38 110.31Q42.63 110.75 42.75 111.38L42.75 111.38Q42.88 111.88 43 112.50Q43.13 113.13 43.13 113.75L43.13 113.75ZM45 113.75L45 113.75Q45 113 45.13 112.38Q45.25 111.75 45.38 111.25L45.38 111.25Q45.63 110.63 45.94 110.19Q46.25 109.75 46.63 109.38L46.63 109.38Q47 109 47.44 108.69Q47.88 108.38 48.38 108.25L48.38 108.25Q48.75 108 49.25 107.94Q49.75 107.88 50.25 107.88L50.25 107.88Q51.50 107.88 52.44 108.25Q53.38 108.63 54 109.38L54 109.38Q54.75 110 55.06 111.06Q55.38 112.13 55.38 113.63L55.38 113.63Q55.38 113.75 55.38 113.88Q55.38 114 55.38 114.13L55.38 114.13Q55.38 114.38 55.38 114.50Q55.38 114.63 55.38 114.75L55.38 114.75L48.25 114.75Q48.25 115.25 48.50 115.63Q48.75 116 49.13 116.25L49.13 116.25Q49.50 116.63 50.06 116.75Q50.63 116.88 51.25 116.88L51.25 116.88Q51.75 116.88 52.13 116.81Q52.50 116.75 53 116.75L53 116.75Q53.38 116.63 53.75 116.50Q54.13 116.38 54.38 116.38L54.38 116.38L54.75 118.88Q54.63 118.88 54.44 119Q54.25 119.13 54.13 119.13L54.13 119.13Q53.88 119.13 53.63 119.19Q53.38 119.25 53.13 119.38L53.13 119.38Q52.88 119.38 52.63 119.44Q52.38 119.50 52 119.50L52 119.50Q51.75 119.50 51.44 119.56Q51.13 119.63 50.88 119.63L50.88 119.63Q50.13 119.63 49.44 119.50Q48.75 119.38 48.25 119.13L48.25 119.13Q47.63 118.88 47.19 118.56Q46.75 118.25 46.38 117.88L46.38 117.88Q46 117.50 45.75 117.06Q45.50 116.63 45.25 116.13L45.25 116.13Q45.13 115.50 45.06 114.94Q45 114.38 45 113.75L45 113.75ZM52.38 112.63L52.38 112.63Q52.38 112.38 52.31 112.19Q52.25 112 52.25 111.88L52.25 111.88Q52.13 111.63 52.06 111.44Q52 111.25 51.88 111.13L51.88 111.13Q51.75 111 51.63 110.88Q51.50 110.75 51.25 110.63L51.25 110.63Q51.13 110.50 50.88 110.50Q50.63 110.50 50.38 110.50L50.38 110.50Q50.13 110.50 49.88 110.50Q49.63 110.50 49.50 110.63L49.50 110.63Q49.25 110.75 49.06 110.88Q48.88 111 48.88 111.13L48.88 111.13Q48.63 111.25 48.56 111.44Q48.50 111.63 48.38 111.88L48.38 111.88Q48.38 112 48.31 112.19Q48.25 112.38 48.25 112.63L48.25 112.63L52.38 112.63ZM64.63 111L64.63 111Q64.38 110.88 64.13 110.81Q63.88 110.75 63.63 110.75L63.63 110.75Q63.25 110.63 62.94 110.63Q62.63 110.63 62.38 110.63L62.38 110.63Q62.25 110.63 62.06 110.63Q61.88 110.63 61.63 110.63L61.63 110.63Q61.38 110.75 61.25 110.75Q61.13 110.75 61 110.75L61 110.75L61 119.25L57.88 119.25L57.88 108.75Q58.25 108.63 58.75 108.50Q59.25 108.38 59.88 108.25L59.88 108.25Q60.50 108.13 61.13 108Q61.75 107.88 62.38 107.88L62.38 107.88Q62.50 107.88 62.69 107.94Q62.88 108 63 108L63 108Q63.25 108 63.44 108Q63.63 108 63.75 108L63.75 108Q64 108.13 64.13 108.13Q64.25 108.13 64.50 108.13L64.50 108.13Q64.63 108.25 64.81 108.25Q65 108.25 65.13 108.38L65.13 108.38L64.63 111ZM66.75 108.50L66.75 108.50Q67.13 108.38 67.69 108.31Q68.25 108.25 68.88 108.13L68.88 108.13Q69.50 108 70.13 107.94Q70.75 107.88 71.50 107.88L71.50 107.88Q72.25 107.88 72.81 108Q73.38 108.13 73.88 108.25L73.88 108.25Q74.38 108.50 74.75 108.75Q75.13 109 75.38 109.38L75.38 109.38Q75.63 109.63 75.81 110.06Q76 110.50 76.13 111L76.13 111Q76.25 111.38 76.31 111.94Q76.38 112.50 76.38 113L76.38 113L76.38 119.25L73.25 119.25L73.25 113.38Q73.25 112.63 73.13 112.06Q73 111.50 72.88 111.25L72.88 111.25Q72.63 110.88 72.25 110.75Q71.88 110.63 71.38 110.63L71.38 110.63Q71.13 110.63 70.94 110.63Q70.75 110.63 70.63 110.63L70.63 110.63Q70.38 110.63 70.25 110.69Q70.13 110.75 69.88 110.75L69.88 110.75L69.88 119.25L66.75 119.25L66.75 108.50ZM78.75 113.75L78.75 113.75Q78.75 113 78.81 112.38Q78.88 111.75 79.13 111.25L79.13 111.25Q79.38 110.63 79.69 110.19Q80 109.75 80.38 109.38L80.38 109.38Q80.75 109 81.19 108.69Q81.63 108.38 82 108.25L82 108.25Q82.50 108 83 107.94Q83.50 107.88 84 107.88L84 107.88Q85.25 107.88 86.19 108.25Q87.13 108.63 87.75 109.38L87.75 109.38Q88.50 110 88.81 111.06Q89.13 112.13 89.13 113.63L89.13 113.63Q89.13 113.75 89.13 113.88Q89.13 114 89.13 114.13L89.13 114.13Q89.13 114.38 89.13 114.50Q89.13 114.63 89.13 114.75L89.13 114.75L81.88 114.75Q82 115.25 82.25 115.63Q82.50 116 82.88 116.25L82.88 116.25Q83.25 116.63 83.81 116.75Q84.38 116.88 85 116.88L85 116.88Q85.50 116.88 85.88 116.81Q86.25 116.75 86.75 116.75L86.75 116.75Q87.13 116.63 87.44 116.50Q87.75 116.38 88.13 116.38L88.13 116.38L88.50 118.88Q88.38 118.88 88.19 119Q88 119.13 87.75 119.13L87.75 119.13Q87.63 119.13 87.38 119.19Q87.13 119.25 86.88 119.38L86.88 119.38Q86.63 119.38 86.31 119.44Q86 119.50 85.75 119.50L85.75 119.50Q85.50 119.50 85.19 119.56Q84.88 119.63 84.63 119.63L84.63 119.63Q83.88 119.63 83.19 119.50Q82.50 119.38 82 119.13L82 119.13Q81.38 118.88 80.94 118.56Q80.50 118.25 80.13 117.88L80.13 117.88Q79.75 117.50 79.50 117.06Q79.25 116.63 79 116.13L79 116.13Q78.88 115.50 78.81 114.94Q78.75 114.38 78.75 113.75L78.75 113.75ZM82 112.63L86.13 112.63Q86.13 112.38 86.06 112.19Q86 112 86 111.88L86 111.88Q85.88 111.63 85.81 111.44Q85.75 111.25 85.63 111.13L85.63 111.13Q85.50 111 85.31 110.88Q85.13 110.75 85 110.63L85 110.63Q84.88 110.50 84.63 110.50Q84.38 110.50 84.13 110.50L84.13 110.50Q83.88 110.50 83.63 110.50Q83.38 110.50 83.13 110.63L83.13 110.63Q83 110.75 82.81 110.88Q82.63 111 82.50 111.13L82.50 111.13Q82.38 111.25 82.31 111.44Q82.25 111.63 82.13 111.88L82.13 111.88Q82.13 112 82.06 112.19Q82 112.38 82 112.63L82 112.63ZM91.50 105.38L91.50 105.38L94.63 104.88L94.63 108.13L98.38 108.13L98.38 110.75L94.63 110.75L94.63 114.75Q94.63 115.25 94.69 115.63Q94.75 116 95 116.25L95 116.25Q95.13 116.63 95.50 116.75Q95.88 116.88 96.38 116.88L96.38 116.88Q96.63 116.88 96.88 116.88Q97.13 116.88 97.38 116.75L97.38 116.75Q97.75 116.75 98 116.69Q98.25 116.63 98.38 116.50L98.38 116.50L98.88 119Q98.63 119.13 98.31 119.19Q98 119.25 97.63 119.38L97.63 119.38Q97.25 119.50 96.81 119.50Q96.38 119.50 95.88 119.50L95.88 119.50Q95.25 119.50 94.69 119.44Q94.13 119.38 93.75 119.25L93.75 119.25Q93.38 119 93 118.75Q92.63 118.50 92.38 118.25L92.38 118.25Q92.13 117.88 91.94 117.50Q91.75 117.13 91.63 116.75L91.63 116.75Q91.63 116.25 91.56 115.75Q91.50 115.25 91.50 114.75L91.50 114.75L91.50 105.38ZM100 113.75L100 113.75Q100 113 100.13 112.38Q100.25 111.75 100.50 111.25L100.50 111.25Q100.75 110.63 101 110.19Q101.25 109.75 101.63 109.38L101.63 109.38Q102 109 102.44 108.69Q102.88 108.38 103.38 108.25L103.38 108.25Q103.88 108 104.38 107.94Q104.88 107.88 105.38 107.88L105.38 107.88Q106.50 107.88 107.44 108.25Q108.38 108.63 109.13 109.38L109.13 109.38Q109.75 110 110.13 111.06Q110.50 112.13 110.50 113.63L110.50 113.63Q110.50 113.75 110.50 113.88Q110.50 114 110.38 114.13L110.38 114.13Q110.38 114.38 110.38 114.50Q110.38 114.63 110.38 114.75L110.38 114.75L103.25 114.75Q103.25 115.25 103.50 115.63Q103.75 116 104.13 116.25L104.13 116.25Q104.50 116.63 105.06 116.75Q105.63 116.88 106.38 116.88L106.38 116.88Q106.75 116.88 107.19 116.81Q107.63 116.75 108 116.75L108 116.75Q108.38 116.63 108.75 116.50Q109.13 116.38 109.38 116.38L109.38 116.38L109.75 118.88Q109.63 118.88 109.50 119Q109.38 119.13 109.13 119.13L109.13 119.13Q108.88 119.13 108.63 119.19Q108.38 119.25 108.13 119.38L108.13 119.38Q107.88 119.38 107.63 119.44Q107.38 119.50 107.13 119.50L107.13 119.50Q106.75 119.50 106.44 119.56Q106.13 119.63 105.88 119.63L105.88 119.63Q105.13 119.63 104.50 119.50Q103.88 119.38 103.25 119.13L103.25 119.13Q102.75 118.88 102.25 118.56Q101.75 118.25 101.38 117.88L101.38 117.88Q101.13 117.50 100.81 117.06Q100.50 116.63 100.38 116.13L100.38 116.13Q100.13 115.50 100.06 114.94Q100 114.38 100 113.75L100 113.75ZM103.25 112.63L107.38 112.63Q107.38 112.38 107.38 112.19Q107.38 112 107.25 111.88L107.25 111.88Q107.25 111.63 107.13 111.44Q107 111.25 106.88 111.13L106.88 111.13Q106.75 111 106.63 110.88Q106.50 110.75 106.25 110.63L106.25 110.63Q106.13 110.50 105.88 110.50Q105.63 110.50 105.38 110.50L105.38 110.50Q105.13 110.50 104.88 110.50Q104.63 110.50 104.50 110.63L104.50 110.63Q104.25 110.75 104.13 110.88Q104 111 103.88 111.13L103.88 111.13Q103.75 111.25 103.63 111.44Q103.50 111.63 103.50 111.88L103.50 111.88Q103.38 112 103.31 112.19Q103.25 112.38 103.25 112.63L103.25 112.63ZM116.13 117L116.13 117Q116.50 117 116.81 116.94Q117.13 116.88 117.38 116.88L117.38 116.88Q117.50 116.75 117.56 116.63Q117.63 116.50 117.63 116.25L117.63 116.25Q117.63 116 117.56 115.81Q117.50 115.63 117.25 115.50L117.25 115.50Q117 115.38 116.63 115.19Q116.25 115 115.75 114.88L115.75 114.88Q115.38 114.75 115.06 114.63Q114.75 114.50 114.50 114.25L114.50 114.25Q114.13 114.13 113.88 113.94Q113.63 113.75 113.38 113.63L113.38 113.63Q113.25 113.38 113.06 113.13Q112.88 112.88 112.75 112.63L112.75 112.63Q112.63 112.38 112.56 112Q112.50 111.63 112.50 111.25L112.50 111.25Q112.50 110.50 112.81 109.88Q113.13 109.25 113.75 108.75L113.75 108.75Q114.25 108.38 115.06 108.13Q115.88 107.88 116.88 107.88L116.88 107.88Q117.38 107.88 117.88 107.94Q118.38 108 118.88 108L118.88 108Q119.25 108.13 119.63 108.25Q120 108.38 120.38 108.38L120.38 108.38L119.75 110.88Q119.50 110.75 119.19 110.69Q118.88 110.63 118.63 110.50L118.63 110.50Q118.25 110.50 117.88 110.44Q117.50 110.38 117.13 110.38L117.13 110.38Q116.38 110.38 116 110.56Q115.63 110.75 115.63 111.25L115.63 111.25Q115.63 111.25 115.63 111.38Q115.63 111.50 115.75 111.50L115.75 111.50Q115.75 111.63 115.81 111.69Q115.88 111.75 116 111.88L116 111.88Q116 111.88 116.13 112Q116.25 112.13 116.50 112.13L116.50 112.13Q116.63 112.25 116.81 112.31Q117 112.38 117.38 112.50L117.38 112.50Q117.88 112.63 118.25 112.88Q118.63 113.13 119 113.25L119 113.25Q119.38 113.38 119.63 113.63Q119.88 113.88 120.13 114L120.13 114Q120.25 114.25 120.38 114.50Q120.50 114.75 120.63 115L120.63 115Q120.75 115.25 120.75 115.56Q120.75 115.88 120.75 116.25L120.75 116.25Q120.75 117 120.44 117.63Q120.13 118.25 119.50 118.75L119.50 118.75Q119 119.13 118.13 119.38Q117.25 119.63 116.13 119.63L116.13 119.63Q115.38 119.63 114.75 119.56Q114.13 119.50 113.63 119.38L113.63 119.38Q113.13 119.25 112.75 119.13Q112.38 119 112.25 118.88L112.25 118.88L112.75 116.38Q113.13 116.50 113.56 116.63Q114 116.75 114.38 116.88L114.38 116.88Q114.88 116.88 115.25 116.94Q115.63 117 116.13 117L116.13 117Z"/></svg>