<svg xmlns="http://www.w3.org/2000/svg" xmlns:xlink="http://www.w3.org/1999/xlink" width="128" height="128"><path fill="#000000" d="M64 33L64 33Q51.38 33 40.25 35.50L40.25 35.50Q29.13 37.88 20.81 42.06Q12.50 46.25 7.75 52L7.75 52Q2.88 57.63 2.88 64L2.88 64Q2.88 70.38 7.75 76L7.75 76Q12.50 81.75 20.81 85.94Q29.13 90.13 40.25 92.50L40.25 92.50Q51.38 95 64 95L64 95Q76.63 95 87.75 92.50L87.75 92.50Q98.88 90.13 107.19 85.94Q115.50 81.75 120.25 76L120.25 76Q125.13 70.38 125.13 64L125.13 64Q125.13 57.63 120.25 52L120.25 52Q115.50 46.25 107.19 42.06Q98.88 37.88 87.75 35.50L87.75 35.50Q76.63 33 64 33L64 33ZM48.13 70L48.13 70Q47 71 45.81 71.56Q44.63 72.13 43.25 72.50L43.25 72.50Q41.88 73 40.19 73Q38.50 73 36.38 73L36.38 73L30.13 73L28.50 83L21.13 83L27.63 49L41.75 49Q44.88 49 47.19 49.88Q49.50 50.75 51 52.38L51 52.38Q52.38 54.13 52.81 56.44Q53.25 58.75 52.75 61.75L52.75 61.75Q52.50 63 52.06 64.13Q51.63 65.25 51.13 66.25L51.13 66.25Q50.50 67.25 49.75 68.25Q49 69.25 48.13 70L48.13 70ZM69.38 73L69.38 73L72.25 58.63Q72.50 57.38 72.44 56.44Q72.38 55.50 71.88 55L71.88 55Q71.50 54.63 70.63 54.31Q69.75 54 68.25 54L68.25 54L62.50 54L58.75 73L51.50 73L58 40L65.25 40L63.50 49L70 49Q73 49 75.13 49.56Q77.25 50.13 78.38 51.25L78.38 51.25Q79.63 52.25 79.94 53.81Q80.25 55.38 79.75 57.75L79.75 57.75L76.75 73L69.38 73ZM109.63 61.88L109.63 61.88Q109.38 63 109 64.13Q108.63 65.25 108 66.25L108 66.25Q107.50 67.38 106.75 68.31Q106 69.25 105.13 70L105.13 70Q104 71 102.81 71.56Q101.63 72.13 100.25 72.50L100.25 72.50Q98.88 73 97.19 73Q95.50 73 93.38 73L93.38 73L87.13 73L85.38 83L78.13 83L84.63 49L98.63 49Q101.88 49 104.19 49.88Q106.50 50.75 107.88 52.38L107.88 52.38Q109.38 54.13 109.81 56.50Q110.25 58.88 109.63 61.88L109.63 61.88ZM95.88 54L95.88 54L90.88 54L88.25 68L92.63 68Q94.88 68 96.50 67.69Q98.13 67.38 99.25 66.63L99.25 66.63Q100.25 65.75 101 64.44Q101.75 63.13 102.13 61.13L102.13 61.13Q102.50 59.25 102.31 57.88Q102.13 56.50 101.50 55.75L101.50 55.75Q100.75 55 99.38 54.50Q98 54 95.88 54L95.88 54ZM38.88 54L38.88 54L33.88 54L31.25 68L35.63 68Q37.88 68 39.50 67.69Q41.13 67.38 42.25 66.63L42.25 66.63Q43.25 65.75 44 64.44Q44.75 63.13 45.13 61.13L45.13 61.13Q45.50 59.25 45.31 57.88Q45.13 56.50 44.50 55.75L44.50 55.75Q43.75 55 42.38 54.50Q41 54 38.88 54Z"/></svg>