<svg xmlns="http://www.w3.org/2000/svg" xmlns:xlink="http://www.w3.org/1999/xlink" width="128" height="128"><path fill="#ffffff" d="M108.75 64.38L108.75 64.38Q107.50 63.50 105.94 63Q104.38 62.50 102.75 62.50L102.75 62.50Q102.63 59.75 102.56 57.06Q102.50 54.38 102.50 51.75L102.50 51.75Q102.38 44.63 102.06 37.38Q101.75 30.13 99.88 23.25L99.88 23.25Q104.75 21.38 105.38 18.31Q106 15.25 105.75 14L105.75 14Q105.25 11.13 102.88 8.63Q100.50 6.13 96.75 6.13L96.75 6.13Q95.38 6.13 93.88 6.56Q92.38 7 91 8L91 8Q85.25 3.25 77.81 1.88Q70.38 0.50 62.50 0.50L62.50 0.50Q55.38 1.13 50.19 2.31Q45 3.50 41 5.38L41 5.38Q39.25 6.25 37.81 7.19Q36.38 8.13 35 9.25L35 9.25Q33.63 8.50 32.25 8.06Q30.88 7.63 29.50 7.63L29.50 7.63Q25.63 7.63 23.06 10.19Q20.50 12.75 20.13 15.75L20.13 15.75Q19.63 18.75 21.19 21.06Q22.75 23.38 26.13 24.63L26.13 24.63Q24.50 31.25 24.63 38.06Q24.75 44.88 25.38 51.63L25.38 51.63Q25.63 54.38 25.81 57.25Q26 60.13 26.13 63L26.13 63L25.63 63Q23.88 63 22.25 63.50Q20.63 64 19.25 64.88L19.25 64.88Q18.75 65.25 18 66.25Q17.25 67.25 17.25 68.25L17.25 68.25Q17.25 68.50 17.44 68.88Q17.63 69.25 18.25 69.50L18.25 69.50Q18.38 71.13 19.13 71.50Q19.88 71.88 20.50 71.88L20.50 71.88Q21.75 71.88 22.88 71.31Q24 70.75 24.38 70.38L24.38 70.38Q24.75 70.13 25.06 70Q25.38 69.88 25.63 69.75L25.63 69.75L26.13 69.63Q26 71.25 25.88 73Q25.75 74.75 25.63 76.63L25.63 76.63Q24.88 85.38 25 94.69Q25.13 104 29.50 111.25L29.50 111.25Q30.38 112.63 31.44 113.88Q32.50 115.13 33.75 116.25L33.75 116.25L32.88 116.88Q30.88 118.38 28.81 120.44Q26.75 122.50 28.63 125.38L28.63 125.38L28.63 125.50Q28.88 125.75 29.06 125.88Q29.25 126 29.50 126L29.50 126L29.63 126Q29.88 126.38 30.38 127Q30.88 127.63 32 127.63L32 127.63Q32.50 127.63 33 127.44Q33.50 127.25 34 127L34 127Q34.88 126.50 35.63 125.94Q36.38 125.38 37 124.75L37 124.75Q38.13 123.88 39.31 123Q40.50 122.13 42 121.88L42 121.88L42.63 121.75L43.25 122.13Q48.13 124 52.69 124.69Q57.25 125.38 60.63 125.50L60.63 125.50L63.25 125.50Q69 125.50 74.19 124.63Q79.38 123.75 83.75 122L83.75 122Q84.63 121.63 85.50 121.19Q86.38 120.75 87.25 120.25L87.25 120.25Q88.13 120.63 88.94 121.50Q89.75 122.38 90.63 123.25L90.63 123.25Q91.63 124.50 92.75 125.50Q93.88 126.50 95.13 126.50L95.13 126.50Q95.75 126.50 96.31 126.19Q96.88 125.88 97.50 125.38L97.50 125.38Q98.38 124.88 98.81 124.13Q99.25 123.38 99.25 122.50L99.25 122.50Q99.25 120.50 97.56 118.44Q95.88 116.38 94.13 115.25L94.13 115.25Q95.63 113.75 96.81 112.13Q98 110.50 99 108.63L99 108.63Q101.25 104.13 102.25 99.38L102.25 99.38Q103.25 94.50 103.56 89.50Q103.88 84.50 103.75 79.38L103.75 79.38Q103.50 74.38 103.25 69.63L103.25 69.63L103.75 69.88Q104.13 70.25 105.25 70.81Q106.38 71.38 107.63 71.38L107.63 71.38Q108.25 71.38 109 71Q109.75 70.63 109.88 69L109.88 69Q110.38 68.75 110.56 68.38Q110.75 68 110.75 67.75L110.75 67.75Q110.75 66.75 110 65.75Q109.25 64.75 108.75 64.38L108.75 64.38ZM91.63 8.38L91.63 8.38Q92.88 7.63 94.19 7.19Q95.50 6.75 96.75 6.75L96.75 6.75Q100.13 6.75 102.38 9Q104.63 11.25 105.13 14L105.13 14Q105.50 16.75 104.13 19Q102.75 21.25 99.75 22.38L99.75 22.38Q99.75 22.25 99.69 22.13Q99.63 22 99.50 21.88L99.50 21.88L98.88 19.75L97.75 16.63Q97.75 16.50 97.69 16.50Q97.63 16.50 97.63 16.38L97.63 16.38Q97.63 16.38 97.63 16.31Q97.63 16.25 97.50 16.25L97.50 16.25Q97.25 15.75 97 15.25Q96.75 14.75 96.38 14.25L96.38 14.25L95 12.25Q94.88 12.13 94.81 12.06Q94.75 12 94.75 11.75L94.75 11.75Q94.38 11.38 94.06 11Q93.75 10.63 93.38 10.25L93.38 10.25Q93.38 10.13 93.19 10.06Q93 10 92.88 9.75L92.88 9.75L91.75 8.63Q91.75 8.63 91.69 8.56Q91.63 8.50 91.63 8.38L91.63 8.38ZM26.25 23.88L26.25 23.88Q23.25 22.75 21.81 20.63Q20.38 18.50 20.75 15.75L20.75 15.75Q21.25 13 23.63 10.63Q26 8.25 29.50 8.25L29.50 8.25Q30.75 8.25 32 8.63Q33.25 9 34.38 9.75L34.38 9.75L34 10.13Q33.63 10.50 33.25 10.88Q32.88 11.25 32.63 11.63L32.63 11.63L32.25 11.88Q31.88 12.38 31.50 12.81Q31.13 13.25 30.75 13.75L30.75 13.75L30.63 14.13Q30.25 14.63 29.94 15.13Q29.63 15.63 29.25 16.13L29.25 16.13Q29.25 16.13 29.25 16.19Q29.25 16.25 29.25 16.25L29.25 16.25Q28.88 16.75 28.63 17.31Q28.38 17.88 28.13 18.50L28.13 18.50Q28.13 18.63 28.06 18.75Q28 18.88 28 19L28 19Q27.75 19.63 27.50 20.19Q27.25 20.75 27.13 21.38L27.13 21.38Q27.13 21.50 27.13 21.50Q27.13 21.50 27 21.63L27 21.63L26.38 23.63L26.25 23.88ZM25.38 69.13L25.38 69.13Q25.13 69.13 24.81 69.31Q24.50 69.50 24 69.75L24 69.75Q23.25 70.38 22.31 70.81Q21.38 71.25 20.50 71.25L20.50 71.25Q20 71.25 19.50 70.94Q19 70.63 18.88 69.50L18.88 69.50Q19.25 69.38 19.63 69.19Q20 69 20.25 68.63L20.25 68.63Q20.38 68.50 20.38 68.31Q20.38 68.13 20.25 68.13L20.25 68.13Q20 68 19.88 68Q19.75 68 19.75 68.25L19.75 68.25Q19.50 68.38 19.25 68.56Q19 68.75 18.63 68.75L18.63 68.75L18.50 68.75Q18.25 68.63 18.13 68.50Q18 68.38 17.88 68.13L17.88 68.13Q18 67.38 18.56 66.63Q19.13 65.88 19.75 65.38L19.75 65.38Q20.88 64.50 22.44 64.06Q24 63.63 25.63 63.63L25.63 63.63L26.25 63.63L26.25 66.50L26.13 67.50Q26 68.50 25.88 68.75Q25.75 69 25.38 69.13L25.38 69.13ZM41.25 121.13L41.25 121.13L41.25 121.25Q39.88 121.63 38.69 122.44Q37.50 123.25 36.50 124.13L36.50 124.13Q35.88 124.75 35.13 125.31Q34.38 125.88 33.63 126.25L33.63 126.25Q33.13 126.50 32.75 126.63Q32.38 126.75 32 126.75L32 126.75Q31.25 126.75 30.88 126.25Q30.50 125.75 30.25 125.50L30.25 125.50Q30.38 124.88 30.63 124.38Q30.88 123.88 31.25 123.25L31.25 123.25Q31.50 123 31.75 122.63Q32 122.25 32.13 121.88L32.13 121.88Q32.13 121.75 32.06 121.63Q32 121.50 31.88 121.38L31.88 121.38Q31.75 121.38 31.63 121.44Q31.50 121.50 31.38 121.63L31.38 121.63Q31.25 121.88 31.06 122.19Q30.88 122.50 30.75 122.88L30.75 122.88Q30.38 123.38 30.06 123.94Q29.75 124.50 29.63 125.13L29.63 125.13L29.50 125.13Q29.38 125.13 29.31 125.06Q29.25 125 29.13 124.75L29.13 124.75Q27.63 122.38 29.44 120.56Q31.25 118.75 33.25 117.25L33.25 117.25L34.25 116.75L34.38 116.75L34.63 116.75L36.25 118Q36.50 118.25 36.81 118.44Q37.13 118.63 37.50 118.88L37.50 118.88L38 119.25L39.25 120L39.88 120.25Q40.25 120.50 40.56 120.69Q40.88 120.88 41.25 121.13L41.25 121.13ZM93.50 115.75L93.50 115.75Q95.13 116.88 96.81 118.81Q98.50 120.75 98.50 122.50L98.50 122.50Q98.50 123.13 98.19 123.63Q97.88 124.13 97.38 124.50L97.38 124.50Q97.38 124.25 97.25 124.06Q97.13 123.88 97 123.63L97 123.63Q96.75 122.88 96.44 122.19Q96.13 121.50 95.50 121L95.50 121Q95.38 120.88 95.25 120.88Q95.13 120.88 95 121L95 121Q94.88 121.13 94.88 121.25Q94.88 121.38 95 121.50L95 121.50Q95.50 122 95.81 122.63Q96.13 123.25 96.25 123.88L96.25 123.88L96.75 125Q96.25 125.38 95.81 125.56Q95.38 125.75 94.88 125.75L94.88 125.75Q93.88 125.75 92.94 124.81Q92 123.88 91 122.75L91 122.75Q90.25 122 89.50 121.19Q88.75 120.38 87.88 119.75L87.88 119.75L88.25 119.63Q88.38 119.50 88.56 119.38Q88.75 119.25 88.88 119.13L88.88 119.13L90.25 118.25L91 117.63L92.38 116.50Q92.50 116.38 92.69 116.19Q92.88 116 93.13 115.88L93.13 115.88Q93.25 116 93.31 115.94Q93.38 115.88 93.50 115.75L93.50 115.75ZM98.25 108.25L98.25 108.25Q97.25 110.13 95.56 112.44Q93.88 114.75 91.13 116.75L91.13 116.75L90.88 116.88Q90.63 117.13 90.38 117.31Q90.13 117.50 89.75 117.75L89.75 117.75L88.75 118.38L88.50 118.50L86.88 119.38L86.25 119.75Q82.13 121.88 76.44 123.25Q70.75 124.63 63 124.63L63 124.63L60.38 124.63Q54.38 124.38 49.69 123.19Q45 122 41.50 120.38L41.50 120.38L41.38 120.38Q40.63 120 39.81 119.56Q39 119.13 38.25 118.75L38.25 118.75Q34.88 116.50 32.88 114.31Q30.88 112.13 30 110.75L30 110.75Q25.63 103.63 25.56 94.44Q25.50 85.25 26.25 76.63L26.25 76.63Q26.38 74.38 26.56 72.31Q26.75 70.25 26.75 68.25L26.75 68.25L26.88 66.38L27 66.25L27 66.25L26.88 65.75L26.88 63Q26.88 60 26.63 57.19Q26.38 54.38 26.25 51.50L26.25 51.50Q25.63 44.75 25.44 37.81Q25.25 30.88 27.13 24.13L27.13 24.13Q27.25 23.50 27.44 22.94Q27.63 22.38 27.75 21.75L27.75 21.75L27.75 21.75L27.88 21.38Q28 21.13 28.13 20.81Q28.25 20.50 28.38 20.25L28.38 20.25Q28.50 20 28.56 19.81Q28.63 19.63 28.75 19.50L28.75 19.50L29 18.75L29.75 17.25Q29.75 17.13 29.88 16.88Q30 16.63 30.13 16.50L30.13 16.50Q30.13 16.38 30.25 16.25Q30.38 16.13 30.38 16L30.38 16Q30.50 15.75 30.75 15.44Q31 15.13 31.13 14.88L31.13 14.88Q31.25 14.63 31.38 14.44Q31.50 14.25 31.75 14.13L31.75 14.13Q31.75 14 31.88 13.88Q32 13.75 32.13 13.63L32.13 13.63L32.75 12.75Q32.75 12.75 32.81 12.63Q32.88 12.50 33 12.38L33 12.38L33.88 11.38L35.38 9.88Q40.63 5.38 47.75 3.63Q54.88 1.88 62.50 1.25L62.50 1.25Q66.88 1.25 72.25 1.75Q77.63 2.25 82.50 4L82.50 4Q84.88 4.88 87 6.13Q89.13 7.38 90.88 8.88L90.88 8.88Q91.13 9.13 91.38 9.31Q91.63 9.50 91.75 9.75L91.75 9.75L92.75 10.63L93.75 11.75L94.25 12.50L95.75 14.63L96.75 16.13L97.13 16.88Q97.38 17.38 97.50 17.88Q97.63 18.38 97.75 18.88L97.75 18.88Q97.75 19 97.81 19.06Q97.88 19.13 97.88 19.25L97.88 19.25Q98 19.75 98.19 20.19Q98.38 20.63 98.50 21L98.50 21L98.63 21.25Q100.88 28.75 101.31 36.38Q101.75 44 101.75 51.75L101.75 51.75Q101.75 54.38 101.75 57.13Q101.75 59.88 101.88 62.13L101.88 62.13L101.88 62.75Q101.88 63.38 101.94 64Q102 64.63 102 65.25L102 65.25L102 65.25L102.13 67.25Q102.13 67.63 102.19 68.13Q102.25 68.63 102.25 69.25L102.25 69.25L102.25 69.50Q102.50 74.25 102.75 79.25L102.75 79.25Q103 84.25 102.75 89.25Q102.50 94.25 101.50 99.13L101.50 99.13Q100.38 103.88 98.25 108.25L98.25 108.25ZM109.38 68.25L109.38 68.25Q109 68.13 108.69 68Q108.38 67.88 108.25 67.63L108.25 67.63Q108.13 67.50 108 67.44Q107.88 67.38 107.75 67.50L107.75 67.50Q107.50 67.63 107.50 67.75Q107.50 67.88 107.63 68L107.63 68Q107.88 68.38 108.25 68.56Q108.63 68.75 109 68.88L109 68.88Q108.88 70 108.38 70.31Q107.88 70.63 107.38 70.63L107.38 70.63Q106.63 70.63 105.63 70.19Q104.63 69.75 103.88 69.25L103.88 69.25Q103.63 69 103.38 68.88Q103.13 68.75 102.88 68.75L102.88 68.75L102.75 66.25Q102.75 66 102.69 65.69Q102.63 65.38 102.63 65.25L102.63 65.25Q102.63 64.75 102.56 64.25Q102.50 63.75 102.50 63.25L102.50 63.25Q104.13 63.25 105.56 63.69Q107 64.13 108.13 65L108.13 65Q108.63 65.38 109.25 66.19Q109.88 67 109.75 67.63L109.75 67.63Q109.88 67.88 109.75 68.06Q109.63 68.25 109.38 68.25L109.38 68.25ZM77.75 7.25L77.75 7.25Q74.88 7.25 72.25 8.31Q69.63 9.38 67.75 11.25L67.75 11.25Q66.13 13.13 65.31 15.31Q64.50 17.50 64.75 20.13L64.75 20.13L64.75 20.25Q65.63 25.63 69.44 27.81Q73.25 30 76.75 30L76.75 30Q80 30 82.75 28.75Q85.50 27.50 87.25 25.25L87.25 25.25Q88.75 23.38 89.19 21Q89.63 18.63 89 16L89 16Q87.88 11.25 84.50 9.25Q81.13 7.25 77.75 7.25ZM86.63 24.75L86.63 24.75Q85 26.75 82.38 27.88Q79.75 29 76.75 29L76.75 29Q74.63 29 72.81 28.50Q71 28 69.50 26.88L69.50 26.88Q67.88 25.75 66.81 24Q65.75 22.25 65.38 20L65.38 20Q65.25 17.63 66 15.56Q66.75 13.50 68.25 11.75L68.25 11.75Q70 9.88 72.50 8.88Q75 7.88 77.75 7.88L77.75 7.88Q80.88 7.88 84.06 9.69Q87.25 11.50 88.25 16L88.25 16Q88.88 18.50 88.44 20.75Q88 23 86.63 24.75ZM59.63 19.25L59.63 19.25Q59.25 13.75 55.63 11.19Q52 8.63 47.75 8.63L47.75 8.63Q44.75 8.63 42 9.81Q39.25 11 37.50 13.13L37.50 13.13Q35.88 15 35.38 17.44Q34.88 19.88 35.38 22.75L35.38 22.75Q36.63 27.38 40.06 29.31Q43.50 31.25 46.88 31.25L46.88 31.25Q49.75 31.25 52.31 30.19Q54.88 29.13 56.75 27.25L56.75 27.25Q58.25 25.50 59 23.50Q59.75 21.50 59.63 19.25ZM47 30.50L47 30.50Q43.88 30.50 40.63 28.69Q37.38 26.88 36.25 22.50L36.25 22.50Q35.63 19.88 36.19 17.56Q36.75 15.25 38.25 13.50L38.25 13.50Q39.88 11.50 42.44 10.38Q45 9.25 47.88 9.25L47.88 9.25Q53.63 9.25 56.19 12.50Q58.75 15.75 59 19.25L59 19.25Q59.13 21.38 58.50 23.31Q57.88 25.25 56.38 26.75L56.38 26.75Q54.63 28.50 52.19 29.50Q49.75 30.50 47 30.50L47 30.50ZM41.63 16.63L41.63 16.63Q40.13 16.63 39.13 17.75Q38.13 18.88 38.13 20.38L38.13 20.38Q38.13 22 39.13 23.13Q40.13 24.25 41.63 24.25L41.63 24.25Q43 24.25 44.06 23.13Q45.13 22 45.13 20.38L45.13 20.38Q45.13 18.88 44.06 17.75Q43 16.63 41.63 16.63ZM43.25 22.25L43.25 22.25Q42.88 22.25 42.63 22Q42.38 21.75 42.38 21.25L42.38 21.25Q42.38 20.88 42.63 20.56Q42.88 20.25 43.25 20.25L43.25 20.25Q43.63 20.25 43.81 20.56Q44 20.88 44 21.25L44 21.25Q44 21.63 43.75 21.94Q43.50 22.25 43.25 22.25ZM71.13 15.75L71.13 15.75Q69.63 15.75 68.63 16.81Q67.63 17.88 67.63 19.50L67.63 19.50Q67.63 21.13 68.63 22.19Q69.63 23.25 71.13 23.25L71.13 23.25Q72.50 23.25 73.56 22.19Q74.63 21.13 74.63 19.50L74.63 19.50Q74.63 17.88 73.63 16.81Q72.63 15.75 71.13 15.75ZM72.75 21.25L72.75 21.25Q72.38 21.25 72.13 21Q71.88 20.75 71.88 20.25L71.88 20.25Q71.88 19.88 72.13 19.56Q72.38 19.25 72.75 19.25L72.75 19.25Q73.13 19.25 73.31 19.56Q73.50 19.88 73.50 20.25L73.50 20.25Q73.50 20.75 73.31 21Q73.13 21.25 72.75 21.25ZM68.50 30.25L68.50 30.25Q68.63 30.13 68.63 29.81Q68.63 29.50 68.50 29.25L68.50 29.25Q67.63 26.13 62.88 26.50Q58.13 26.88 58.13 30.50L58.13 30.50Q58.13 30.25 58.06 30.06Q58 29.88 58 29.75L58 29.75Q58 29.88 58.06 30.13Q58.13 30.38 58.13 30.50L58.13 30.50Q57 30.63 56.06 31.38Q55.13 32.13 54.50 33.25L54.50 33.25Q54 34.25 53.94 35.31Q53.88 36.38 54.38 37.38L54.38 37.38Q54.88 38.25 55.56 38.69Q56.25 39.13 57.25 39.13L57.25 39.13Q56.88 40.63 57.19 42.31Q57.50 44 58.25 45.13L58.25 45.13Q58.63 45.63 59.06 45.94Q59.50 46.25 60 46.25L60 46.25Q60.63 46.25 61.38 45.75Q62.13 45.25 62.75 44.38L62.75 44.38Q63.25 45.13 63.94 45.63Q64.63 46.13 65.50 46.25L65.50 46.25L65.75 46.25Q65.88 46.25 66 46.19Q66.13 46.13 66.25 46.13L66.25 46.13Q66.88 46 67.38 45.69Q67.88 45.38 68.25 44.75L68.25 44.75L68.25 44.75Q68.38 43.63 68.31 42.56Q68.25 41.50 68.25 40.38L68.25 40.38L68.13 39.25Q68.50 39.38 68.88 39.44Q69.25 39.50 69.63 39.50L69.63 39.50Q70.38 39.50 71 39.19Q71.63 38.88 72.13 38.25L72.13 38.25Q72.75 37.50 73 36.75Q73.25 36 73.13 35.25L73.13 35.25Q73 33.63 71.56 32.31Q70.13 31 68.50 30.25L68.50 30.25ZM62.63 43.50L62.63 43.50Q61.88 44.38 61.31 44.81Q60.75 45.25 60.25 45.25L60.25 45.25Q59.88 45.25 59.56 45Q59.25 44.75 58.88 44.50L58.88 44.50Q58.25 43.63 58 42Q57.75 40.38 58 38.88L58 38.88L58.50 38.75L58.75 38.75L59.25 38.75L59.38 38.75L61.25 38.13Q61.25 38.13 61.31 38.13Q61.38 38.13 61.38 38L61.38 38Q61.50 37.88 61.63 37.88Q61.75 37.88 61.88 37.88L61.88 37.88Q62 37.88 62.19 37.81Q62.38 37.75 62.63 37.75L62.63 37.75L62.75 37.75L62.75 39Q62.63 40 62.56 41.13Q62.50 42.25 62.63 43.50L62.63 43.50ZM67.75 40.25L67.75 40.25Q67.88 41.13 67.94 42.19Q68 43.25 67.75 44.25L67.75 44.25Q67.63 44.63 67.25 44.81Q66.88 45 66.25 45.25L66.25 45.25L65.75 45.38Q65 45.25 64.38 44.81Q63.75 44.38 63.50 43.63L63.50 43.63Q63.38 42.50 63.44 41.38Q63.50 40.25 63.63 39L63.63 39L63.75 37.50L63.75 37.50Q64.63 37.50 65.38 37.81Q66.13 38.13 66.88 38.38L66.88 38.38L67.63 38.75Q67.63 39 67.69 39.38Q67.75 39.75 67.75 40.25L67.75 40.25ZM71.88 37.50L71.88 37.50Q71.50 38 70.94 38.25Q70.38 38.50 69.88 38.50L69.88 38.50Q69.50 38.50 69.06 38.38Q68.63 38.25 68.25 38.13L68.25 38.13Q68 38 67.75 37.94Q67.50 37.88 67.25 37.75L67.25 37.75Q66.50 37.38 65.63 37.06Q64.75 36.75 63.88 36.75L63.88 36.75L62.63 36.75L62.25 36.88Q62.13 36.88 62.06 36.88Q62 36.88 61.88 37L61.88 37Q61.75 37 61.63 37.06Q61.50 37.13 61.38 37.25L61.38 37.25Q61.38 37.25 61.31 37.25Q61.25 37.25 61.25 37.25L61.25 37.25L60.38 37.63Q60.38 37.63 60.25 37.69Q60.13 37.75 60 37.75L60 37.75L59.38 37.88Q59.25 38 59.13 38Q59 38 58.88 38L58.88 38Q58.88 38 58.75 38Q58.63 38 58.63 38.13L58.63 38.13L58.13 38.25L57.88 38.25L57.25 38.25Q56.50 38.25 56 37.94Q55.50 37.63 55.13 37L55.13 37Q54.63 36.25 54.63 35.31Q54.63 34.38 55.25 33.50L55.25 33.50Q55.75 32.63 56.56 32Q57.38 31.38 58.25 31.25L58.25 31.25Q59.25 33.13 63.06 32.94Q66.88 32.75 68.25 31L68.25 31Q69.75 31.63 71.13 32.75Q72.50 33.88 72.75 35.25L72.75 35.25Q72.88 35.75 72.63 36.31Q72.38 36.88 71.88 37.50L71.88 37.50Z"/></svg>