<svg xmlns="http://www.w3.org/2000/svg" xmlns:xlink="http://www.w3.org/1999/xlink" width="128" height="128"><path fill="#000000" d="M33.13 54.88L11.13 54.88Q11 54.88 10.94 54.75Q10.88 54.63 11 54.50L11 54.50L12.25 52.88Q12.38 52.75 12.56 52.69Q12.75 52.63 12.88 52.63L12.88 52.63L34.50 52.63Q34.75 52.63 34.81 52.75Q34.88 52.88 34.75 53L34.75 53L33.75 54.50Q33.63 54.63 33.44 54.75Q33.25 54.88 33.13 54.88L33.13 54.88ZM30.63 60.38L2 60.38Q1.88 60.38 1.81 60.31Q1.75 60.25 1.88 60.13L1.88 60.13L3.13 58.50Q3.13 58.38 3.38 58.25Q3.63 58.13 3.75 58.13L3.75 58.13L31.38 58.13Q31.63 58.13 31.69 58.25Q31.75 58.38 31.75 58.50L31.75 58.50L31.25 60Q31.13 60.13 31 60.25Q30.88 60.38 30.63 60.38L30.63 60.38ZM29.88 66L16.63 66Q16.50 66 16.44 65.88Q16.38 65.75 16.50 65.63L16.50 65.63L17.38 64.13Q17.38 64 17.56 63.88Q17.75 63.75 18 63.75L18 63.75L30.13 63.75Q30.25 63.75 30.31 63.88Q30.38 64 30.38 64.13L30.38 64.13L30.25 65.63Q30.25 65.75 30.13 65.88Q30 66 29.88 66L29.88 66ZM79.63 53.75L79.63 53.75Q76.75 54.50 74.50 55.06Q72.25 55.63 69.38 56.38L69.38 56.38Q68.75 56.63 68.50 56.56Q68.25 56.50 67.63 55.75L67.63 55.75Q67 55 66.38 54.50Q65.75 54 64.75 53.50L64.75 53.50Q61.88 52.13 59.13 52.44Q56.38 52.75 53.88 54.38L53.88 54.38Q50.75 56.38 49.19 59.31Q47.63 62.25 47.63 65.88L47.63 65.88Q47.63 69.50 49.94 72.19Q52.25 74.88 55.88 75.38L55.88 75.38Q58.88 75.88 61.50 74.81Q64.13 73.75 66.13 71.38L66.13 71.38Q66.50 70.88 66.88 70.38Q67.25 69.88 67.75 69.25L67.75 69.25L56.13 69.25Q55.13 69.25 54.88 68.69Q54.63 68.13 54.88 67.38L54.88 67.38Q55.50 66 56.44 64Q57.38 62 58 60.75L58 60.75Q58.13 60.50 58.50 60.13Q58.88 59.75 59.50 59.75L59.50 59.75L81.63 59.75Q81.50 61 81.44 62.25Q81.38 63.50 81.25 64.75L81.25 64.75Q80.75 68 79.50 71Q78.25 74 76.25 76.63L76.25 76.63Q73 80.88 68.69 83.50Q64.38 86.13 59 86.88L59 86.88Q54.50 87.50 50.38 86.56Q46.25 85.63 42.63 82.88L42.63 82.88Q39.25 80.38 37.38 77Q35.50 73.63 35 69.38L35 69.38Q34.38 64.50 35.75 60.06Q37.13 55.63 40.13 51.63L40.13 51.63Q43.38 47.50 47.63 44.81Q51.88 42.13 57.13 41.25L57.13 41.25Q61.38 40.38 65.44 41Q69.50 41.63 73.13 44.13L73.13 44.13Q75.63 45.75 77.31 47.94Q79 50.13 80.13 52.75L80.13 52.75Q80.50 53.13 80.31 53.38Q80.13 53.63 79.63 53.75L79.63 53.75ZM99.63 87.25L99.63 87.25Q95.50 87.13 91.75 85.88Q88 84.63 84.88 81.88L84.88 81.88Q82.13 79.63 80.50 76.69Q78.88 73.75 78.25 70.25L78.25 70.25Q77.50 65.13 78.81 60.56Q80.13 56 83.25 51.88L83.25 51.88Q86.50 47.50 90.63 45.13Q94.75 42.75 100.13 41.75L100.13 41.75Q104.88 41 109.19 41.63Q113.50 42.25 117.50 44.88L117.50 44.88Q121 47.38 123.19 50.69Q125.38 54 126 58.38L126 58.38Q126.75 64.50 125 69.56Q123.25 74.63 119 79L119 79Q116 82 112.38 83.94Q108.75 85.88 104.50 86.75L104.50 86.75Q103.25 86.88 102.06 87Q100.88 87.13 99.63 87.25ZM114.13 62.75L114.13 62.75Q114 62.13 114 61.69Q114 61.25 113.88 60.75L113.88 60.75Q113.13 56.25 109.50 54Q105.88 51.75 101.50 52.75L101.50 52.75Q97.25 53.63 94.56 56.31Q91.88 59 90.88 63.25L90.88 63.25Q90.13 66.75 91.69 70Q93.25 73.25 96.50 74.75L96.50 74.75Q99 75.75 101.50 75.69Q104 75.63 106.38 74.38L106.38 74.38Q110 72.50 111.94 69.56Q113.88 66.63 114.13 62.75L114.13 62.75Z"/></svg>