<svg xmlns="http://www.w3.org/2000/svg" xmlns:xlink="http://www.w3.org/1999/xlink" width="128" height="128"><path fill="#ffffff" d="M108.25 64.75L108.25 64.75Q108.13 64.75 108.06 64.69Q108 64.63 107.75 64.63L107.75 64.63L107.75 64.50Q107.63 64.38 107.56 64.38Q107.50 64.38 107.50 64.25L107.50 64.25L107.38 64.25Q107.38 64.25 107.31 64.19Q107.25 64.13 107.25 64.13L107.25 64.13L107 64Q106.88 64 106.81 63.94Q106.75 63.88 106.75 63.88L106.75 63.88L106.63 63.75Q106.50 63.75 106.44 63.75Q106.38 63.75 106.38 63.75L106.38 63.75Q106.38 63.75 106.31 63.69Q106.25 63.63 106.25 63.63L106.25 63.63L105.88 63.50Q105.88 63.50 105.81 63.50Q105.75 63.50 105.75 63.38L105.75 63.38L105.38 63.25L105.25 63.25L104.88 63.25L104.75 63.25Q104.63 63.25 104.56 63.19Q104.50 63.13 104.38 63.13L104.38 63.13L102.13 63.13Q101.88 58.13 101.88 53.13L101.88 53.13Q101.88 48.13 101.75 43.13Q101.63 38.13 101.13 33.25L101.13 33.25Q100.63 28.25 99.25 23.50L99.25 23.50Q109 20 104.13 11.56Q99.25 3.13 90.88 9.13L90.88 9.13Q85.38 4.25 78 2.75Q70.63 1.25 62.63 1.25L62.63 1.25Q54.75 1.88 47.63 3.75Q40.50 5.63 35.25 9.75L35.25 9.75Q33.13 8.63 31.13 8.38Q29.13 8.13 27.25 8.63L27.25 8.63L27.25 8.75Q27.25 8.75 27.13 8.81Q27 8.88 26.88 8.88L26.88 8.88Q26.88 8.88 26.75 8.94Q26.63 9 26.50 9.13L26.50 9.13L26.38 9.13Q26.38 9.13 26.25 9.19Q26.13 9.25 26 9.25L26 9.25L25.88 9.25L25.63 9.50L25.50 9.50L25.25 9.75L25.13 9.75L24.75 9.88Q24.75 9.88 24.75 9.88Q24.75 9.88 24.75 10L24.75 10L24.38 10.25Q24.38 10.25 24.31 10.25Q24.25 10.25 24.25 10.25L24.25 10.25L24 10.50Q24 10.50 23.94 10.50Q23.88 10.50 23.88 10.63L23.88 10.63L23.63 10.75L23.50 10.88Q23.38 11 23.31 11Q23.25 11 23.25 11.13L23.25 11.13L22.88 11.50Q22.88 11.63 22.81 11.69Q22.75 11.75 22.75 11.75L22.75 11.75L22.63 11.75Q22.50 11.88 22.50 11.94Q22.50 12 22.38 12L22.38 12L22.25 12.13Q22.25 12.13 22.19 12.19Q22.13 12.25 22.13 12.25L22.13 12.25L22 12.38Q21.88 12.50 21.88 12.56Q21.88 12.63 21.75 12.63L21.75 12.63L21.75 12.75Q21.63 12.75 21.63 12.81Q21.63 12.88 21.50 12.88L21.50 12.88L21.38 13L21.25 13.25Q21.25 13.25 21.25 13.31Q21.25 13.38 21.25 13.38L21.25 13.38L21.13 13.75Q21.13 13.75 21.13 13.75Q21.13 13.75 21 13.75L21 13.75L20.88 14.13Q20.88 14.13 20.88 14.19Q20.88 14.25 20.75 14.25L20.75 14.25L20.75 14.50Q20.75 14.50 20.69 14.56Q20.63 14.63 20.63 14.63L20.63 14.63Q20.88 14.88 20.94 14.94Q21 15 21 15L21 15L21 15.13L20.88 15.38L20.88 15.50Q20.88 15.63 20.88 15.69Q20.88 15.75 20.75 15.75L20.75 15.75L20.75 18.88Q20.75 19 20.81 19.06Q20.88 19.13 20.88 19.25L20.88 19.25L20.88 19.25L21 19.63L21 19.75L21.13 20Q21.13 20 21.13 20.06Q21.13 20.13 21.25 20.13L21.25 20.13L21.25 20.38Q21.25 20.38 21.31 20.44Q21.38 20.50 21.38 20.50L21.38 20.50L21.50 20.75Q21.50 20.75 21.50 20.81Q21.50 20.88 21.63 20.88L21.63 20.88L21.75 21.25Q21.75 21.25 21.81 21.25Q21.88 21.25 21.88 21.25L21.88 21.25L22.13 21.63Q22.13 21.63 22.13 21.69Q22.13 21.75 22.25 21.75L22.25 21.75L22.38 22L23.13 22.75L23.25 22.75Q24 23.38 24.88 23.94Q25.75 24.50 27.25 24.88L27.25 24.88L27.25 24.75Q24 34.13 25.25 43.69Q26.50 53.25 26.75 63L26.75 63Q26.25 63 26 63.19Q25.75 63.38 25 63.50L25 63.50L24.50 63.50Q24.38 63.50 24.25 63.50Q24.13 63.50 24 63.63L24 63.63Q23.88 63.63 23.75 63.63Q23.63 63.63 23.63 63.75L23.63 63.75L23.25 63.75L23.13 63.75L22.75 63.88L22.63 63.88L22.25 64L22.25 64L21.88 64.13Q21.88 64.13 21.81 64.13Q21.75 64.13 21.75 64.25L21.75 64.25L21.50 64.25L21.25 64.38Q21.25 64.38 21.19 64.44Q21.13 64.50 21.13 64.50L21.13 64.50L20.75 64.75Q20.63 64.75 20.56 64.75Q20.50 64.75 20.50 64.75L20.50 64.75L20.25 64.88L19.88 65.25Q19.88 65.25 19.75 65.31Q19.63 65.38 19.63 65.38L19.63 65.38L19.13 65.88Q19 66 18.88 66.19Q18.75 66.38 18.75 66.38L18.75 66.38L18.50 66.75L18.25 67.25L18.13 67.63L18.13 67.88Q18.13 68.25 18.31 68.56Q18.50 68.88 19 69.13L19 69.13Q19.13 71.88 21.25 71.31Q23.38 70.75 24.63 69.88L24.63 69.88L24.75 69.75Q24.88 69.63 25.06 69.56Q25.25 69.50 25.25 69.50L25.25 69.50L25.38 69.50L25.63 69.38Q25.63 69.38 25.69 69.38Q25.75 69.38 25.75 69.25L25.75 69.25Q26 69.25 26.13 69.19Q26.25 69.13 26.25 69.13L26.25 69.13Q26.38 69.13 26.38 69.06Q26.38 69 26.38 68.88L26.38 68.88L26.50 68.75Q26.63 68.63 26.69 68.31Q26.75 68 26.75 67.63L26.75 67.63L26.75 66.25L26.75 68.13Q26.63 73 26.13 78.63L26.13 78.63Q25.50 84.25 25.50 89.88Q25.50 95.50 26.38 100.88L26.38 100.88Q27.38 106.13 30.13 110.63L30.13 110.63Q31.13 112.13 32.31 113.50Q33.50 114.88 34.75 116L34.75 116L34.25 116Q34.13 116.13 33.94 116.31Q33.75 116.50 33.50 116.63L33.50 116.63L31.75 117.75L30.75 118.50L29.75 119.50Q29.50 119.63 29.44 119.75Q29.38 119.88 29.25 120L29.25 120L28.75 120.88Q28.63 121 28.56 121.19Q28.50 121.38 28.50 121.50L28.50 121.50L28.38 121.75Q28.25 122.38 28.38 123.06Q28.50 123.75 29 124.50L29 124.50L29.38 124.88L29.63 124.88Q29.63 124.88 29.75 124.88Q29.88 124.88 30 125L30 125Q30.13 125.25 31 126.19Q31.88 127.13 33.88 125.88L33.88 125.88Q36 124.75 37.75 122.94Q39.50 121.13 42 120.75L42 120.75L41.50 120.25Q45.88 122.25 50.88 123.25Q55.88 124.25 60.50 124.38L60.50 124.38Q67 124.63 74.06 123.50Q81.13 122.38 87 119.25L87 119.25Q88.63 119.75 90 121.63Q91.38 123.50 92.75 124.63L92.75 124.63L93.25 125Q93.25 125 93.25 125Q93.25 125 93.25 125.13L93.25 125.13Q93.25 125.13 93.31 125.13Q93.38 125.13 93.38 125.25L93.38 125.25Q93.38 125.25 93.44 125.25Q93.50 125.25 93.50 125.25L93.50 125.25L95.63 125.25Q95.63 125.25 95.69 125.25Q95.75 125.25 95.75 125.25L95.75 125.25L95.75 125.25Q95.75 125.25 95.81 125.19Q95.88 125.13 95.88 125.13L95.88 125.13L96 125.13Q96 125.13 96.06 125.13Q96.13 125.13 96.13 125L96.13 125Q96.13 125 96.19 125Q96.25 125 96.25 124.88L96.25 124.88L96.25 124.75Q96.25 124.75 96.31 124.75Q96.38 124.75 96.38 124.75L96.38 124.75L96.50 124.63L96.63 124.63L96.75 124.38L97 124.25L97.13 124.25L97.25 124.25L97.25 124.25L98 123.50L98 123.38Q98 123.38 98 123.31Q98 123.25 98.13 123.25L98.13 123.25L98.13 123.25Q98.13 123.25 98.13 123.19Q98.13 123.13 98.25 123.13L98.25 123.13L98.25 123Q98.25 123 98.25 122.94Q98.25 122.88 98.25 122.88L98.25 122.88L98.25 121.50Q98.25 121.50 98.13 121.50Q98 121.50 98 121.38L98 121.38L97.75 121.25L97.75 121.25L98 121.13Q98 121.13 98.13 121.13Q98.25 121.13 98.25 121L98.25 121L98.25 120.88L98.25 118.75Q98.25 118.75 98.25 118.75Q98.25 118.75 98.25 118.75L98.25 118.75L98.25 118.63Q98.25 118.63 98.19 118.56Q98.13 118.50 98.13 118.50L98.13 118.50L98.13 118.38Q98.13 118.38 98.13 118.31Q98.13 118.25 98 118.25L98 118.25Q98 118.25 98 118.25Q98 118.25 97.88 118.25L97.88 118.25Q97.88 118.25 97.88 118.19Q97.88 118.13 97.75 118.13L97.75 118.13Q97.75 118.13 97.75 118.06Q97.75 118 97.75 118L97.75 118Q97.75 118 97.69 117.94Q97.63 117.88 97.63 117.88L97.63 117.88Q97.63 117.88 97.63 117.81Q97.63 117.75 97.50 117.75L97.50 117.75Q97.50 117.75 97.50 117.75Q97.50 117.75 97.38 117.75L97.38 117.75Q97.38 117.75 97.38 117.69Q97.38 117.63 97.25 117.63L97.25 117.63Q97.25 117.63 97.25 117.56Q97.25 117.50 97.25 117.50L97.25 117.50Q97.25 117.50 97.19 117.44Q97.13 117.38 97.13 117.38L97.13 117.38Q97.13 117.38 97.13 117.31Q97.13 117.25 97 117.25L97 117.25Q97 117.25 97 117.25Q97 117.25 96.88 117.25L96.88 117.25Q96.88 117.25 96.88 117.19Q96.88 117.13 96.75 117.13L96.75 117.13Q96.75 117.13 96.75 117.06Q96.75 117 96.75 117L96.75 117L95.50 115.75L95.50 115.75L93.63 113.75Q95.13 112.38 96.44 110.63Q97.75 108.88 98.75 106.88L98.75 106.88Q100.88 102.50 102 97.63L102 97.63Q103 92.75 103.25 87.75Q103.50 82.75 103.38 77.63L103.38 77.63Q103.13 72.63 102.75 67.75L102.75 67.75L102.88 67.75Q103 67.75 103.06 67.75Q103.13 67.75 103.13 67.75L103.13 67.75L103.38 67.75Q103.38 67.75 103.44 67.81Q103.50 67.88 103.50 67.88L103.50 67.88L103.63 67.88Q103.63 67.88 103.69 67.88Q103.75 67.88 103.75 68L103.75 68L103.88 68.13Q105.13 69 107.25 69.56Q109.38 70.13 109.50 67.25L109.50 67.25Q110.75 67.75 109.88 66.56Q109 65.38 108.25 64.75L108.25 64.75ZM36 23L36 23Q34.75 17 38.13 13.50L38.13 13.50Q41.50 10 46.13 9.44Q50.75 8.88 54.88 11.25L54.88 11.25Q59 13.75 59.25 19.63L59.25 19.63Q59.63 24.50 56.50 27.38L56.50 27.38Q53.38 30.38 49.19 31Q45 31.63 41.13 29.75L41.13 29.75Q37.25 27.88 36 23ZM72.13 38L72.13 38Q71.13 39 70.06 39.06Q69 39.13 68 38.75L68 38.75Q68 40.13 68.19 41.63Q68.38 43.13 68.13 44.63L68.13 44.63Q67.75 45.25 67.06 45.50Q66.38 45.75 65.75 46L65.75 46Q64.88 45.88 64.25 45.38Q63.63 44.88 63.25 44L63.25 44L63 43.88Q60.13 47.75 58.56 44.81Q57 41.88 57.75 38.88L57.75 38.88Q56.88 39 56.13 38.69Q55.38 38.38 54.75 37.38L54.75 37.38Q53.75 35.50 54.94 33.50Q56.13 31.50 58.25 31.13L58.25 31.13Q58.75 33.38 63 33.19Q67.25 33 68.25 30.88L68.25 30.88Q70.63 32 72.38 33.94Q74.13 35.88 72.13 38L72.13 38ZM65.13 20.50L65.13 20.50Q64.75 15.38 68 12.13L68 12.13Q71.13 9 75.31 8.25Q79.50 7.50 83.38 9.50L83.38 9.50Q87.38 11.38 88.50 16.50L88.50 16.50Q89.75 22.13 86.63 25.50L86.63 25.50Q83.50 29 79.06 29.75Q74.63 30.50 70.38 28.25L70.38 28.25Q66.13 26.13 65.13 20.50ZM41.75 17L41.75 17Q40.25 17 39.25 18.13Q38.25 19.25 38.25 20.75L38.25 20.75Q38.25 22.38 39.25 23.50Q40.25 24.63 41.75 24.63L41.75 24.63Q43.13 24.63 44.19 23.50Q45.25 22.38 45.25 20.75L45.25 20.75Q45.25 19.25 44.25 18.13Q43.25 17 41.75 17ZM43.25 22.75L43.25 22.75Q42.88 22.75 42.69 22.44Q42.50 22.13 42.50 21.75L42.50 21.75Q42.50 21.38 42.75 21.06Q43 20.75 43.25 20.75L43.25 20.75Q43.63 20.75 43.88 21Q44.13 21.25 44.13 21.75L44.13 21.75Q44.13 22.13 43.88 22.44Q43.63 22.75 43.25 22.75ZM71.13 16.13L71.13 16.13Q69.63 16.13 68.69 17.25Q67.75 18.38 67.75 19.88L67.75 19.88Q67.75 21.50 68.69 22.63Q69.63 23.75 71.13 23.75L71.13 23.75Q72.50 23.75 73.50 22.63Q74.50 21.50 74.50 19.88L74.50 19.88Q74.50 18.38 73.50 17.25Q72.50 16.13 71.13 16.13ZM72.75 21.75L72.75 21.75Q72.38 21.75 72.13 21.44Q71.88 21.13 71.88 20.75L71.88 20.75Q71.88 20.38 72.13 20.06Q72.38 19.75 72.75 19.75L72.75 19.75Q73 19.75 73.25 20Q73.50 20.25 73.50 20.75L73.50 20.75Q73.50 21.13 73.25 21.44Q73 21.75 72.75 21.75Z"/></svg>