<svg xmlns="http://www.w3.org/2000/svg" xmlns:xlink="http://www.w3.org/1999/xlink" width="128" height="128"><path fill="#000000" d="M123.63 74L123.63 74L120 68.75Q121.63 68.25 122.63 66.94Q123.63 65.63 123.63 63.50L123.63 63.50L123.63 63.50Q123.63 60.88 121.94 59.38Q120.25 57.88 117.13 57.88L117.13 57.88L109.88 57.88Q109.88 57.88 109.88 57.88Q109.88 57.88 109.88 57.88L109.88 57.88Q109.63 57.88 109.44 58Q109.25 58.13 109.25 58.38L109.25 58.38L109.25 74.38Q109.25 74.50 109.44 74.69Q109.63 74.88 109.88 74.88L109.88 74.88L112.50 74.88Q112.50 74.88 112.50 74.88Q112.50 74.88 112.50 74.88L112.50 74.88Q112.75 74.88 112.94 74.69Q113.13 74.50 113.13 74.38L113.13 74.38L113.13 69.38L116.13 69.38L119.63 74.63Q119.63 74.75 119.75 74.81Q119.88 74.88 120 74.88L120 74.88Q120 74.88 120 74.88Q120 74.88 120 74.88L120 74.88L123.25 74.88Q123.50 74.88 123.69 74.56Q123.88 74.25 123.63 74L123.63 74ZM119.88 63.75L119.88 63.75Q119.88 64.75 119.13 65.44Q118.38 66.13 117 66.13L117 66.13L113.13 66.13L113.13 61.25L116.88 61.25Q118.25 61.25 119.06 61.88Q119.88 62.50 119.88 63.63L119.88 63.63L119.88 63.75ZM91.88 57.88L91.88 57.88L89.13 57.88Q89.13 57.88 89.06 57.88Q89 57.88 89 57.88L89 57.88Q88.88 57.88 88.75 58Q88.63 58.13 88.50 58.25L88.50 58.25L88.50 58.25L85.13 69.38L81.38 58.25Q81.25 58 81.13 57.94Q81 57.88 80.88 57.88L80.88 57.88Q80.88 57.88 80.88 57.88Q80.88 57.88 80.88 57.88L80.88 57.88L78.38 57.88Q78.25 57.88 78.06 57.94Q77.88 58 77.88 58.25L77.88 58.25L74.13 69.38L70.63 58.25Q70.63 58.13 70.50 58Q70.38 57.88 70.13 57.88L70.13 57.88L67.25 57.88Q67 57.88 66.81 58.06Q66.63 58.25 66.75 58.50L66.75 58.50L72.25 74.63Q72.38 74.75 72.50 74.88Q72.63 75 72.75 75L72.75 75L75.38 75Q75.50 75 75.63 74.88Q75.75 74.75 75.88 74.63L75.88 74.63L75.88 74.63L79.63 63.88L83.38 74.63Q83.38 74.75 83.56 74.88Q83.75 75 83.88 75L83.88 75L86.38 75Q86.63 75 86.75 74.88Q86.88 74.75 86.88 74.63L86.88 74.63L92.50 58.50Q92.50 58.25 92.31 58.06Q92.13 57.88 91.88 57.88L91.88 57.88ZM106.75 71.50L106.75 71.50L97.88 71.50L97.88 68L105.50 68Q105.50 68 105.50 68Q105.50 68 105.50 68L105.50 68Q105.75 68 105.88 67.81Q106 67.63 106 67.38L106 67.38L106 65.13Q106 65 105.88 64.81Q105.75 64.63 105.50 64.63L105.50 64.63Q105.50 64.63 105.50 64.63Q105.50 64.63 105.50 64.63L105.50 64.63L97.88 64.63L97.88 61.25L106.63 61.25Q106.63 61.25 106.63 61.25Q106.63 61.25 106.63 61.25L106.63 61.25Q106.88 61.25 107 61.06Q107.13 60.88 107.13 60.63L107.13 60.63L107.13 58.38Q107.13 58.13 107 58Q106.88 57.88 106.63 57.88L106.63 57.88Q106.63 57.88 106.63 57.88Q106.63 57.88 106.63 57.88L106.63 57.88L94.75 57.88Q94.63 57.88 94.63 57.88Q94.63 57.88 94.63 57.88L94.63 57.88Q94.50 57.88 94.31 58Q94.13 58.13 94.13 58.38L94.13 58.38L94.13 74.38Q94.13 74.50 94.31 74.69Q94.50 74.88 94.75 74.88L94.75 74.88L106.75 74.88Q106.75 74.88 106.75 74.88Q106.75 74.88 106.75 74.88L106.75 74.88Q107 74.88 107.13 74.69Q107.25 74.50 107.25 74.38L107.25 74.38L107.25 72Q107.25 71.88 107.13 71.69Q107 71.50 106.75 71.50L106.75 71.50Q106.75 71.50 106.75 71.50Q106.75 71.50 106.75 71.50L106.75 71.50L106.75 71.50ZM57.63 57.63L57.63 57.63Q53.63 57.63 51.06 60.19Q48.50 62.75 48.50 66.38L48.50 66.38L48.50 66.38Q48.50 70 51.06 72.56Q53.63 75.13 57.63 75.13L57.63 75.13Q61.63 75.13 64.19 72.56Q66.75 70 66.75 66.38L66.75 66.38L66.75 66.25Q66.75 62.75 64.19 60.19Q61.63 57.63 57.63 57.63L57.63 57.63ZM62.75 66.38L62.75 66.38Q62.75 68.63 61.31 70.19Q59.88 71.75 57.63 71.75L57.63 71.75Q55.38 71.75 53.88 70.13Q52.38 68.50 52.38 66.38L52.38 66.38L52.38 66.25Q52.38 64.13 53.81 62.56Q55.25 61 57.63 61L57.63 61Q59.88 61 61.31 62.56Q62.75 64.13 62.75 66.38L62.75 66.38ZM47.88 57.88L47.88 57.88L34.63 57.88Q34.63 57.88 34.63 57.88Q34.63 57.88 34.63 57.88L34.63 57.88Q34.38 57.88 34.25 58Q34.13 58.13 34.13 58.38L34.13 58.38L34.13 60.75Q34.13 61 34.25 61.13Q34.38 61.25 34.50 61.25L34.50 61.25L39.38 61.25L39.38 74.38Q39.38 74.50 39.50 74.69Q39.63 74.88 39.88 74.88L39.88 74.88L42.63 74.88Q42.63 74.88 42.63 74.88Q42.63 74.88 42.63 74.88L42.63 74.88Q42.88 74.88 43 74.69Q43.13 74.50 43.13 74.38L43.13 74.38L43.13 61.25L48 61.25Q48.13 61.25 48.25 61.13Q48.38 61 48.38 60.75L48.38 60.75L48.38 58.38Q48.38 58.13 48.19 58Q48 57.88 47.88 57.88L47.88 57.88ZM21.88 81.63L10.38 81.63L10.38 82.50Q10.38 82.50 10.44 82.56Q10.50 82.63 10.50 82.63L10.50 82.63L21.75 82.63Q21.88 82.63 21.88 82.56Q21.88 82.50 21.88 82.50L21.88 82.50L21.88 81.63ZM23.13 59.38L23.13 59.88L9.25 59.88L9.25 59.38L23.13 59.38ZM13 59.38L13 54.50L13.50 54.50L13.50 59.38L13 59.38ZM18.88 59.38L18.88 54.50L19.38 54.50L19.38 59.38L18.88 59.38ZM22.63 59.38L22.63 54.50L23.13 54.50L23.13 59.38L22.63 59.38ZM19 59.38L19 54.50L19.38 54.50L19.38 59.38L19 59.38ZM8.63 61L23.75 61L23.63 59.88Q23.63 59.88 23.56 59.88Q23.50 59.88 23.50 59.88L23.50 59.88L8.88 59.88Q8.88 59.88 8.81 59.88Q8.75 59.88 8.75 59.88L8.75 59.88L8.63 61ZM6 63.88L26.50 63.88L26 61.13Q26 61.13 26 61.13Q26 61.13 25.88 61.13L25.88 61.13L6.50 61.13Q6.50 61.13 6.44 61.13Q6.38 61.13 6.38 61.13L6.38 61.13L6 63.88ZM22.75 72.25L9.63 72.25L9.63 81.38Q9.63 81.50 9.69 81.56Q9.75 81.63 9.88 81.63L9.88 81.63L22.50 81.63Q22.63 81.63 22.69 81.56Q22.75 81.50 22.75 81.38L22.75 81.38L22.75 72.25ZM7 50.25L6.88 51.25L25.63 51.25L25.25 50.25Q25.25 50.25 25.25 50.19Q25.25 50.13 25.13 50.13L25.13 50.13L7.25 50.13Q7.13 50.13 7.13 50.19Q7.13 50.25 7 50.25L7 50.25ZM6.88 51L6.88 51.25L25.63 51.25L25.50 51L6.88 51ZM6.13 54.50L6.13 54.50L26.38 54.50Q26.38 54.50 26.44 54.50Q26.50 54.50 26.50 54.38L26.50 54.38L27 51.25L5.50 51.25L6 54.38Q6 54.50 6 54.50Q6 54.50 6.13 54.50L6.13 54.50ZM28.25 66.13L28.25 66.13L27.75 64Q27.63 64 27.56 63.94Q27.50 63.88 27.50 63.88L27.50 63.88L5 63.88Q4.88 63.88 4.81 63.94Q4.75 64 4.75 64L4.75 64L4.25 66.13Q4.25 66.13 4.25 66.13Q4.25 66.13 4.25 66.25L4.25 66.25L8.25 72.13Q8.25 72.13 8.31 72.19Q8.38 72.25 8.38 72.25L8.38 72.25L24.13 72.25Q24.13 72.25 24.19 72.19Q24.25 72.13 24.25 72.13L24.25 72.13L28.25 66.25Q28.25 66.13 28.25 66.13Q28.25 66.13 28.25 66.13L28.25 66.13ZM9.25 59.38L9.25 54.50L9.75 54.50L9.75 59.38L9.25 59.38ZM6 54.50L6 54.50Q6 54.25 5.94 53.88Q5.88 53.50 5.75 53.13L5.75 53.13L5.75 52.88L5.50 51.25L16.25 51.25Q20.63 51.25 23.75 51.25Q26.88 51.25 26.88 51.25L26.88 51.25Q26.88 51.25 26.63 52.88Q26.38 54.50 26.38 54.50L26.38 54.50Q26.38 54.50 23.94 54.50Q21.50 54.50 16.25 54.50L16.25 54.50L6 54.50L6 54.50ZM6.88 51.25L6.88 51.13L6.88 51L6.88 51L25.50 51L25.50 51Q25.50 51 25.50 51.06Q25.50 51.13 25.50 51.13L25.50 51.13L25.50 51.25L6.88 51.25ZM22.63 59.38L22.63 56.88L22.63 54.50L23.13 54.50L23.13 59.38L22.63 59.38ZM18.88 59.38L18.88 56.88L18.88 54.50L19.38 54.50L19.38 59.38L18.88 59.38ZM13 59.38L13 56.88L13 54.50L13.50 54.50L13.50 59.38L13 59.38ZM9.25 59.38L9.25 56.88L9.25 54.50L9.75 54.50L9.75 59.38L9.25 59.38ZM9.25 59.75L9.25 59.63L9.25 59.38L11.13 59.38Q12 59.38 12.50 59.38Q13 59.38 13 59.38L13 59.38Q13 59.38 13.25 59.38Q13.50 59.38 13.50 59.38L13.50 59.38Q13.50 59.38 16.19 59.38Q18.88 59.38 18.88 59.38L18.88 59.38Q18.88 59.38 19.13 59.38Q19.38 59.38 19.38 59.38L19.38 59.38Q19.38 59.38 19.88 59.38Q20.38 59.38 21.25 59.38L21.25 59.38L23.13 59.38L23.13 59.75L9.25 59.75ZM6 63.88L6 63.75L6.25 62.38Q6.38 61.75 6.44 61.44Q6.50 61.13 6.50 61.13L6.50 61.13Q6.50 61.13 9.31 61.13Q12.13 61.13 16.25 61.13L16.25 61.13Q22.13 61.13 24.06 61.13Q26 61.13 26 61.13L26 61.13Q26 61.13 26.25 62.44Q26.50 63.75 26.50 63.75L26.50 63.75Q26.50 63.88 23.50 63.88Q20.50 63.88 16.25 63.88L16.25 63.88L6 63.88ZM9.75 81.63L9.75 81.63Q9.63 81.50 9.63 81.50Q9.63 81.50 9.63 81.38L9.63 81.38L9.63 81.38Q9.63 81.38 9.63 80.19Q9.63 79 9.63 76.75L9.63 76.75L9.63 72.25L22.75 72.25L22.75 76.75Q22.75 79 22.75 80.19Q22.75 81.38 22.75 81.38L22.75 81.38Q22.75 81.50 22.75 81.50Q22.75 81.50 22.63 81.63L22.63 81.63L22.63 81.63L22.63 81.63L9.75 81.63ZM10.50 82.50L10.50 82.50Q10.50 82.50 10.44 82.44Q10.38 82.38 10.38 82.13L10.38 82.13L10.38 81.63L21.88 81.63L21.88 82.13Q21.88 82.25 21.88 82.38Q21.88 82.50 21.88 82.50L21.88 82.50Q21.88 82.50 20.63 82.56Q19.38 82.63 16.13 82.63L16.13 82.63Q15.88 82.63 15.56 82.63Q15.25 82.63 15 82.63L15 82.63Q13.75 82.63 12.56 82.56Q11.38 82.50 10.25 82.50L10.25 82.50L10.50 82.50Z"/></svg>