<svg xmlns="http://www.w3.org/2000/svg" xmlns:xlink="http://www.w3.org/1999/xlink" width="128" height="128"><path fill="#000000" d="M83.63 43.75L83.63 45.25L44.63 45.25L44.63 43.75L83.63 43.75ZM71.63 43.88L71.63 30L73.13 30L73.13 43.88L71.63 43.88ZM55 43.88L55 30L56.63 30L56.63 43.88L55 43.88ZM82.13 43.88L82.13 30L83.63 30L83.63 43.88L82.13 43.88ZM44.63 43.75L44.63 30L46.13 30L46.13 43.75L44.63 43.75ZM42.63 48.75L85.50 48.75L84.88 45.50Q84.88 45.38 84.81 45.31Q84.75 45.25 84.63 45.25L84.63 45.25Q84.63 45.25 84.63 45.25Q84.63 45.25 84.63 45.25L84.63 45.25L43.63 45.25Q43.63 45.25 43.63 45.25Q43.63 45.25 43.63 45.25L43.63 45.25Q43.50 45.25 43.38 45.31Q43.25 45.38 43.25 45.50L43.25 45.50L43.25 45.50L42.63 48.75ZM38.38 18L37.75 20.63L90.50 20.63L89.75 17.88Q89.75 17.75 89.63 17.69Q89.50 17.63 89.38 17.63L89.38 17.63Q89.38 17.63 89.38 17.63Q89.38 17.63 89.38 17.63L89.38 17.63L38.75 17.63Q38.63 17.63 38.50 17.69Q38.38 17.75 38.38 17.88L38.38 17.88L38.38 18ZM97.88 63.13L97.88 63.13L96.38 57.25Q96.38 57 96.13 56.81Q95.88 56.63 95.63 56.63L95.63 56.63Q95.63 56.63 95.63 56.63Q95.63 56.63 95.63 56.63L95.63 56.63L32.50 56.63Q32.50 56.63 32.50 56.63Q32.50 56.63 32.50 56.63L32.50 56.63Q32.25 56.63 32.06 56.81Q31.88 57 31.75 57.25L31.75 57.25L31.75 57.25L30.38 63.13Q30.38 63.13 30.31 63.19Q30.25 63.25 30.25 63.25L30.25 63.25Q30.25 63.25 30.31 63.31Q30.38 63.38 30.38 63.38L30.38 63.38L30.38 63.38L41.50 80.25Q41.50 80.38 41.69 80.50Q41.88 80.63 42 80.63L42 80.63L86.13 80.63Q86.38 80.63 86.50 80.50Q86.63 80.38 86.75 80.25L86.75 80.25L86.75 80.25L97.75 63.38Q97.88 63.38 97.88 63.31Q97.88 63.25 97.88 63.13L97.88 63.13ZM35.75 56.13L35.88 55.75Q35.88 55.50 36.38 52.75Q36.88 50 36.88 49.88L36.88 49.88Q36.88 49.88 44.88 49.88Q52.88 49.88 64.13 49.88L64.13 49.88L91.25 49.88Q91.25 49.88 91.44 50.75Q91.63 51.63 91.88 52.88L91.88 52.88L92.38 56Q92.38 56 84.06 56.06Q75.75 56.13 64 56.13L64 56.13L35.75 56.13ZM35.75 29.38L35.75 29.38Q35.75 29.25 35.63 28.19Q35.50 27.13 35.25 25.63L35.25 25.63L34.63 21.88Q34.63 21.88 43.31 21.81Q52 21.75 64.13 21.75L64.13 21.75L93.63 21.75L93 25.63L92.38 29.50Q92.38 29.50 83.50 29.50L83.50 29.50Q74.63 29.50 64.06 29.50Q53.50 29.50 44.63 29.38L44.63 29.38Q35.75 29.38 35.75 29.38L35.75 29.38ZM45.88 107.25L45.88 107.25L45.50 107L45.50 80.75L82.63 80.75L82.63 107L82.25 107.25Q82 107.38 79 107.44Q76 107.50 64.13 107.50L64.13 107.50Q52.13 107.50 49.13 107.44Q46.13 107.38 45.88 107.25L45.88 107.25ZM47.88 110.13L47.88 110.13Q47.88 110 47.81 109.69Q47.75 109.38 47.75 109L47.75 109L47.75 108L80.13 108L80 110.13L64 110.13Q57.38 110.13 52.63 110.13Q47.88 110.13 47.88 110.13Z"/></svg>