<svg xmlns="http://www.w3.org/2000/svg" xmlns:xlink="http://www.w3.org/1999/xlink" width="128" height="128"><path fill="#000000" d="M125.50 26L125.50 26.25Q125.13 24.13 124.44 22.19Q123.75 20.25 122.88 18.50L122.88 18.50Q121.88 16.75 120.69 15.25Q119.50 13.75 118.13 12.38L118.13 12.38Q116.75 11 115.13 9.81Q113.50 8.63 111.63 7.88L111.63 7.88Q109.88 6.88 107.94 6.25Q106 5.63 104 5.25L104 5.25Q101.88 4.88 99.75 4.75Q97.63 4.63 95.63 4.50L95.63 4.50L30.25 4.50Q28.63 4.50 27.06 4.63Q25.50 4.75 23.88 5L23.88 5Q22.50 5.25 21.06 5.63Q19.63 6 18.25 6.63L18.25 6.63Q17.88 6.75 17.38 6.94Q16.88 7.13 16.50 7.25L16.50 7.25Q15 8 13.81 8.88Q12.63 9.75 11.38 10.63L11.38 10.63Q11.13 11 10.69 11.25Q10.25 11.50 9.88 11.88L9.88 11.88Q8.50 13.13 7.31 14.69Q6.13 16.25 5.25 18L5.25 18Q4.25 19.75 3.56 21.63Q2.88 23.50 2.50 25.63L2.50 25.63Q2.25 27.38 2.06 29.31Q1.88 31.25 1.75 33.38L1.75 33.38L1.75 94Q1.75 96 1.94 98.06Q2.13 100.13 2.50 102L2.50 102Q2.88 104 3.56 105.88Q4.25 107.75 5.25 109.50L5.25 109.50Q6.13 111.25 7.31 112.75Q8.50 114.25 9.88 115.63L9.88 115.63Q11.25 117 12.94 118.19Q14.63 119.38 16.38 120.13L16.38 120.13Q18.13 121.13 20.06 121.75Q22 122.38 24 122.75L24 122.75Q26.13 123.13 28.25 123.25Q30.38 123.38 32.38 123.50L32.38 123.50L95.63 123.50Q97.75 123.50 99.88 123.31Q102 123.13 104.13 122.75L104.13 122.75Q106.13 122.38 108 121.75Q109.88 121.13 111.63 120.13L111.63 120.13Q113.50 119.25 115.13 118.13Q116.75 117 118.13 115.63L118.13 115.63Q119.63 114.38 120.81 112.81Q122 111.25 122.88 109.50L122.88 109.50Q123.88 107.75 124.50 105.88Q125.13 104 125.50 101.88L125.50 101.88Q125.88 100.13 126.06 98.13Q126.25 96.13 126.38 94.13L126.38 94.13L126.38 34Q126.38 32 126.13 29.94Q125.88 27.88 125.50 26L125.50 26ZM106.75 101.75L106.75 101.75Q102.50 93.75 95.75 94.31Q89 94.88 85 96.50L85 96.50Q80.88 98.75 76 100L76 100Q71.13 101.25 65.75 101.38Q60.38 101.50 54.75 100.38L54.75 100.38Q49 99.38 43.25 97L43.25 97Q34.13 93.25 26.69 87.13Q19.25 81 14 73.25L14 73.25Q16.25 74.88 18.88 76.44Q21.50 78 24.38 79.25L24.38 79.25Q30.50 81.88 36.38 83.25L36.38 83.25Q42.38 84.50 47.88 84.44Q53.38 84.38 58.38 83.13L58.38 83.13Q63.38 81.75 67.63 79.38L67.63 79.38L67.63 79.38Q61.63 75 56.13 70L56.13 70Q50.63 65.13 45.69 60Q40.75 54.88 36.25 49.88L36.25 49.88Q31.88 44.75 28.13 40.13L28.13 40.13Q26.75 38.63 25.44 36.94Q24.13 35.25 23 33.50L23 33.50Q27.50 37.38 33 41.63L33 41.63Q38.63 45.88 44 49.75Q49.38 53.63 54 56.63L54 56.63Q58.63 59.63 61.25 61.13L61.25 61.13Q57.63 57.38 54.25 53.63L54.25 53.63Q50.75 49.75 47.44 45.81Q44.13 41.88 41 37.88L41 37.88Q37.75 33.75 34.75 29.63L34.75 29.63Q39.50 34 44.63 38.50L44.63 38.50Q49.63 42.88 55 47.06Q60.38 51.25 66.13 55.25L66.13 55.25Q71.75 59.25 77.63 63L77.63 63Q79 63.75 79.50 64.06Q80 64.38 80.38 64.63L80.38 64.63Q80.63 63.88 80.94 63.06Q81.25 62.25 81.50 61.38L81.50 61.38Q83 56.38 82.88 51.25L82.88 51.25Q82.88 46.13 81.56 41Q80.25 35.88 77.75 31L77.75 31Q75.25 26 71.75 21.50L71.75 21.50Q79.88 26.13 86.13 32.50L86.13 32.50Q92.38 39 96.25 46.31Q100.13 53.63 101.38 61.38L101.38 61.38Q102.63 69.25 100.63 76.50L100.63 76.50Q100.50 76.88 100.44 77.25Q100.38 77.63 100.25 78L100.25 78L100.38 78.25Q108.38 87.75 108.06 95.69Q107.75 103.63 106.75 101.75L106.75 101.75Z"/></svg>