<svg xmlns="http://www.w3.org/2000/svg" xmlns:xlink="http://www.w3.org/1999/xlink" width="128" height="128"><path fill="#ffffff" d="M119.38 58L119.38 61.63L110.38 61.63L110.38 60.50Q110.38 59.88 110.44 59.19Q110.50 58.50 110.50 57.88L110.50 57.88Q110.63 57.25 110.75 56.69Q110.88 56.13 111.13 55.63L111.13 55.63Q111.38 55.25 111.69 54.88Q112 54.50 112.50 54.25L112.50 54.25Q113 54 113.56 53.81Q114.13 53.63 114.63 53.63L114.63 53.63Q114.75 53.63 114.75 53.63Q114.75 53.63 114.75 53.63L114.75 53.63Q115.13 53.63 115.50 53.69Q115.88 53.75 116.25 53.75L116.25 53.75Q116.50 53.88 116.75 53.94Q117 54 117.25 54.13L117.25 54.13L117.88 52.75Q117.63 52.63 117.31 52.50Q117 52.38 116.75 52.25L116.75 52.25Q116.25 52.13 115.88 52.06Q115.50 52 115 52L115 52Q115 52 115 52Q115 52 114.88 52L114.88 52Q114.88 52 114.81 52Q114.75 52 114.75 52L114.75 52Q114 52 113.25 52.19Q112.50 52.38 111.75 52.75L111.75 52.75Q111.25 53 110.69 53.50Q110.13 54 109.75 54.50L109.75 54.50Q109.38 55.13 109.13 55.81Q108.88 56.50 108.75 57.13L108.75 57.13Q108.50 57.88 108.44 58.69Q108.38 59.50 108.38 60.38L108.38 60.38Q108.38 60.38 108.38 60.44Q108.38 60.50 108.38 60.63L108.38 60.63L108.38 61.63L105.50 61.63L105.50 63.13L108.38 63.13L108.38 80.75L110.38 80.75L110.38 63L119.38 63L119.38 75.13Q119.38 75.13 119.38 75.19Q119.38 75.25 119.38 75.25L119.38 75.25Q119.38 75.88 119.44 76.44Q119.50 77 119.63 77.63L119.63 77.63Q119.63 78.13 119.81 78.56Q120 79 120.25 79.50L120.25 79.50Q120.50 79.88 120.88 80.19Q121.25 80.50 121.63 80.75L121.63 80.75Q122.13 80.88 122.69 81Q123.25 81.13 123.75 81.13L123.75 81.13Q123.88 81.13 123.88 81.13Q123.88 81.13 124 81.13L124 81.13Q124 81.13 124.06 81.13Q124.13 81.13 124.25 81.13L124.25 81.13Q124.88 81.13 125.50 81Q126.13 80.88 126.75 80.63L126.75 80.63L126.38 79.25Q126.25 79.25 126 79.31Q125.75 79.38 125.50 79.50L125.50 79.50Q125.25 79.50 125 79.50Q124.75 79.50 124.50 79.50L124.50 79.50Q124.38 79.50 124.31 79.50Q124.25 79.50 124.13 79.50L124.13 79.50Q124.13 79.50 124.06 79.50Q124 79.50 124 79.50L124 79.50Q123.38 79.50 122.81 79.25Q122.25 79 122 78.50L122 78.50Q121.63 78 121.50 77.31Q121.38 76.63 121.38 75.88L121.38 75.88Q121.38 75.75 121.38 75.69Q121.38 75.63 121.38 75.63L121.38 75.63L121.38 63.13L127 63.13L127 61.63L121.38 61.63L121.38 57.50L119.38 58ZM48.63 79.50L49.50 77.88Q50.13 78.25 50.81 78.56Q51.50 78.88 52.25 79.13L52.25 79.13Q53 79.38 53.88 79.50Q54.75 79.63 55.63 79.63L55.63 79.63Q55.75 79.63 55.81 79.63Q55.88 79.63 56 79.63L56 79.63Q57.38 79.63 58.50 79.19Q59.63 78.75 60.50 78L60.50 78Q61.38 77.38 61.81 76.38Q62.25 75.38 62.25 74.13L62.25 74.13Q62.25 74.13 62.25 74.13Q62.25 74.13 62.25 74.13L62.25 74.13Q62.25 74 62.31 73.94Q62.38 73.88 62.38 73.88L62.38 73.88Q62.38 72.88 62 71.94Q61.63 71 61 70.38L61 70.38Q60.13 69.50 59.06 68.81Q58 68.13 56.75 67.75L56.75 67.75Q55.13 67.25 53.81 66.50Q52.50 65.75 51.38 64.88L51.38 64.88Q50.50 64.13 50 63Q49.50 61.88 49.50 60.63L49.50 60.63Q49.50 60.50 49.50 60.44Q49.50 60.38 49.50 60.38L49.50 60.38Q49.50 59.63 49.69 58.94Q49.88 58.25 50.13 57.63L50.13 57.63Q50.50 57 50.88 56.50Q51.25 56 51.88 55.50L51.88 55.50Q52.38 55.13 53 54.75Q53.63 54.38 54.38 54.13L54.38 54.13Q55 53.88 55.81 53.75Q56.63 53.63 57.50 53.63L57.50 53.63Q57.50 53.63 57.56 53.63Q57.63 53.63 57.63 53.63L57.63 53.63Q57.63 53.63 57.69 53.63Q57.75 53.63 57.75 53.63L57.75 53.63Q58.63 53.63 59.44 53.75Q60.25 53.88 61.13 54L61.13 54Q61.63 54.13 62.13 54.38Q62.63 54.63 63.13 54.88L63.13 54.88L62.25 56.38Q61.88 56.13 61.44 55.94Q61 55.75 60.50 55.63L60.50 55.63Q59.88 55.38 59.13 55.25Q58.38 55.13 57.63 55.13L57.63 55.13Q57.63 55.13 57.56 55.13Q57.50 55.13 57.50 55.13L57.50 55.13Q57.38 55.13 57.31 55.13Q57.25 55.13 57.25 55.13L57.25 55.13Q56.50 55.13 55.81 55.25Q55.13 55.38 54.50 55.63L54.50 55.63Q54 55.88 53.56 56.13Q53.13 56.38 52.75 56.75L52.75 56.75Q52.50 57.13 52.25 57.50Q52 57.88 51.75 58.38L51.75 58.38Q51.63 58.75 51.56 59.13Q51.50 59.50 51.50 60L51.50 60Q51.50 60 51.50 60Q51.50 60 51.50 60L51.50 60Q51.50 60.13 51.50 60.19Q51.50 60.25 51.50 60.25L51.50 60.25Q51.50 61.25 51.88 62.13Q52.25 63 52.88 63.63L52.88 63.63Q53.75 64.38 54.88 65Q56 65.63 57.13 66.13L57.13 66.13Q58.13 66.38 58.88 66.75Q59.63 67.13 60.38 67.63L60.38 67.63Q60.88 68 61.44 68.38Q62 68.75 62.50 69.25L62.50 69.25Q62.88 69.63 63.19 70.13Q63.50 70.63 63.75 71.25L63.75 71.25Q64 71.75 64.13 72.44Q64.25 73.13 64.25 73.75L64.25 73.75Q64.25 73.75 64.25 73.81Q64.25 73.88 64.25 73.88L64.25 73.88Q64.25 73.88 64.25 73.88Q64.25 73.88 64.25 73.88L64.25 73.88Q64.25 74.63 64.13 75.38Q64 76.13 63.75 76.75L63.75 76.75Q63.38 77.38 62.94 78Q62.50 78.63 62 79.13L62 79.13Q61.38 79.63 60.69 80Q60 80.38 59.25 80.63L59.25 80.63Q58.38 81 57.44 81.13Q56.50 81.25 55.50 81.25L55.50 81.25Q55.50 81.25 55.44 81.25Q55.38 81.25 55.38 81.25L55.38 81.25Q54.88 81.25 54.38 81.19Q53.88 81.13 53.38 81.13L53.38 81.13Q53 81 52.50 80.94Q52 80.88 51.50 80.75L51.50 80.75Q51.13 80.63 50.69 80.50Q50.25 80.38 49.88 80.13L49.88 80.13Q49.63 80 49.25 79.88Q48.88 79.75 48.63 79.50L48.63 79.50ZM66 61.63L68 61.63L71.38 72.50Q71.50 73.38 71.75 74.19Q72 75 72.25 75.63L72.25 75.63Q72.50 76.38 72.69 77.13Q72.88 77.88 73 78.50L73 78.50L73.13 78.50Q73.38 77.88 73.56 77.13Q73.75 76.38 74 75.63L74 75.63Q74.25 74.88 74.50 74.13Q74.75 73.38 75.13 72.50L75.13 72.50L79 61.63L80.88 61.63L84.63 72.38Q84.88 73.25 85.19 74.06Q85.50 74.88 85.75 75.63L85.75 75.63Q86 76.38 86.19 77.13Q86.38 77.88 86.50 78.50L86.50 78.50L86.75 78.50Q86.88 77.75 87.06 77.06Q87.25 76.38 87.50 75.63L87.50 75.63Q87.75 75 88 74.19Q88.25 73.38 88.50 72.50L88.50 72.50L92 61.63L94 61.63L87.38 80.75L85.75 80.75L82 70.13Q81.38 68.38 80.88 66.88L80.88 66.88Q80.63 66.13 80.38 65.31Q80.13 64.50 80 63.63L80 63.63L79.88 63.63Q79.63 64.63 79.38 65.50Q79.13 66.38 78.88 67.13L78.88 67.13Q78.38 68.50 77.75 70.25L77.75 70.25L73.88 80.75L72.13 80.75L66 61.63ZM98.25 80.75L98.25 61.63L100.25 61.63L100.25 80.75L98.25 80.75ZM97.50 55.88L97.50 55.88Q97.50 55.88 97.50 55.88Q97.50 55.88 97.50 55.88L97.50 55.88Q97.50 55.13 98 54.63Q98.50 54.13 99.25 54.13L99.25 54.13Q99.25 54.13 99.25 54.13Q99.25 54.13 99.25 54.13L99.25 54.13Q100 54.13 100.50 54.63Q101 55.13 101 55.88L101 55.88Q101 55.88 101 55.88Q101 55.88 101 55.88L101 55.88Q101 56.25 100.88 56.50Q100.75 56.75 100.50 57L100.50 57Q100.25 57.25 99.94 57.38Q99.63 57.50 99.25 57.50L99.25 57.50Q99.25 57.50 99.25 57.50Q99.25 57.50 99.25 57.50L99.25 57.50Q98.88 57.38 98.56 57.31Q98.25 57.25 98 57L98 57Q97.75 56.75 97.63 56.44Q97.50 56.13 97.50 55.88L97.50 55.88ZM36.75 53.13L36.75 53.13Q36.63 52.50 36.44 52Q36.25 51.50 36 51L36 51Q35.75 50.50 35.38 50.06Q35 49.63 34.63 49.25L34.63 49.25Q34.25 48.75 33.75 48.44Q33.25 48.13 32.75 47.88L32.75 47.88Q32.25 47.63 31.69 47.44Q31.13 47.25 30.50 47.13L30.50 47.13Q29.88 47.13 29.25 47.06Q28.63 47 28 47L28 47L9 47Q8.50 47 8.06 47Q7.63 47 7.13 47.13L7.13 47.13Q6.75 47.13 6.31 47.25Q5.88 47.38 5.50 47.50L5.50 47.50Q5.38 47.63 5.25 47.63Q5.13 47.63 5 47.75L5 47.75Q4.63 48 4.25 48.19Q3.88 48.38 3.50 48.75L3.50 48.75Q3.38 48.75 3.25 48.81Q3.13 48.88 3 49L3 49Q2.63 49.38 2.31 49.88Q2 50.38 1.63 50.88L1.63 50.88Q1.38 51.25 1.19 51.81Q1 52.38 0.88 53L0.88 53Q0.88 53.50 0.81 54.06Q0.75 54.63 0.63 55.13L0.63 55.13L0.63 72.50Q0.63 73.13 0.69 73.69Q0.75 74.25 0.88 74.88L0.88 74.88Q1 75.38 1.19 75.94Q1.38 76.50 1.75 77L1.75 77Q2 77.50 2.31 77.94Q2.63 78.38 3 78.75L3 78.75Q3.50 79.25 3.94 79.56Q4.38 79.88 5 80L5 80Q5.50 80.25 6.06 80.44Q6.63 80.63 7.25 80.75L7.25 80.75Q7.75 80.88 8.38 80.94Q9 81 9.63 81L9.63 81L28 81Q28.63 81 29.25 80.94Q29.88 80.88 30.50 80.75L30.50 80.75Q31.13 80.63 31.69 80.44Q32.25 80.25 32.75 80L32.75 80Q33.25 79.75 33.75 79.44Q34.25 79.13 34.63 78.75L34.63 78.75Q35 78.38 35.38 77.94Q35.75 77.50 36 77L36 77Q36.25 76.50 36.44 76Q36.63 75.50 36.75 74.88L36.75 74.88Q36.88 74.38 36.94 73.81Q37 73.25 37 72.63L37 72.63L37 55.38Q37 54.75 36.94 54.19Q36.88 53.63 36.75 53.13L36.75 53.13ZM31.25 74.75L31.25 74.75Q30 72.50 28.06 72.63Q26.13 72.75 25 73.25L25 73.25Q22.50 74.63 19.31 74.69Q16.13 74.75 12.75 73.38L12.75 73.38Q10.13 72.38 7.94 70.63Q5.75 68.88 4.25 66.63L4.25 66.63Q4.88 67.13 5.69 67.56Q6.50 68 7.25 68.25L7.25 68.25Q10.75 69.88 14.06 69.81Q17.38 69.75 19.88 68.38L19.88 68.38L19.88 68.38Q16.63 65.88 13.81 63.13Q11 60.38 8.50 57.25L8.50 57.25Q8 56.75 7.63 56.25Q7.25 55.75 6.88 55.13L6.88 55.13Q9.38 57.25 12.06 59.19Q14.75 61.13 17.63 62.88L17.63 62.88Q15.88 61 14 58.75Q12.13 56.50 10.38 54.13L10.38 54.13Q13.13 56.63 16.25 59.06Q19.38 61.50 22.88 63.63L22.88 63.63L23.63 64.13Q23.75 64 23.81 63.75Q23.88 63.50 24 63.25L24 63.25Q24.88 60.38 24 57.38Q23.13 54.38 21.13 51.75L21.13 51.75Q25.88 54.50 28.31 58.94Q30.75 63.38 29.63 67.63L29.63 67.63Q29.63 67.63 29.56 67.75Q29.50 67.88 29.50 68L29.50 68L29.50 68.13Q31.75 70.75 31.69 73.06Q31.63 75.38 31.25 74.75L31.25 74.75Z"/></svg>