<svg xmlns="http://www.w3.org/2000/svg" xmlns:xlink="http://www.w3.org/1999/xlink" width="128" height="128"><path fill="#ffffff" d="M127.25 15.13L127.25 15.13Q127.25 9.13 123.06 4.94Q118.88 0.75 113 0.75L113 0.75Q107.13 0.75 102.88 4.94Q98.63 9.13 98.63 15.13L98.63 15.13Q98.63 21.13 102.81 25.25Q107 29.38 113 29.38L113 29.38Q119 29.38 123.13 25.19Q127.25 21 127.25 15.13ZM64 15.13L64 15.13Q53.88 15.13 45 19L45 19Q36 22.75 29.38 29.44Q22.75 36.13 18.88 45L18.88 45Q15 53.88 15 64.13L15 64.13Q15 74.25 18.88 83.25L18.88 83.25Q22.75 92.13 29.38 98.75Q36 105.38 44.88 109.25L44.88 109.25Q53.88 113.13 64 113.13L64 113.13Q74.13 113.13 83.13 109.25L83.13 109.25Q92 105.38 98.63 98.75Q105.25 92.13 109.13 83.25L109.13 83.25Q113 74.25 113 64.13L113 64.13Q113 54 109.13 45L109.13 45Q105.25 36.13 98.63 29.44Q92 22.75 83 19L83 19Q74.13 15.13 64 15.13ZM50.75 84.88L50.75 88.50L30.75 88.50L30.75 56.38L34.75 56.38L34.75 84.88L50.75 84.88ZM73 65.38L73 88.50L69.75 88.50L69.75 85.25Q68 87.50 66.25 88.50Q64.50 89.50 62 89.50L62 89.50Q58.63 89.50 56.63 87.75Q54.63 86 54.63 83.25L54.63 83.25L54.63 65.38L58.25 65.38L58.25 81.75Q58.25 83.75 59.56 85Q60.88 86.25 63.13 86.25L63.13 86.25Q66 86.25 67.69 84.06Q69.38 81.88 69.38 78.38L69.38 78.38L69.38 65.38L73 65.38ZM70 43.75L70 43.75Q70 37.75 74.19 33.56Q78.38 29.38 84.25 29.38L84.25 29.38Q90.25 29.38 94.44 33.56Q98.63 37.75 98.63 43.75L98.63 43.75Q98.63 49.63 94.44 53.81Q90.25 58 84.25 58L84.25 58Q78.38 58 74.19 53.81Q70 49.63 70 43.75ZM99.75 89.13L99.75 89.13Q98.88 89.38 98.38 89.44Q97.88 89.50 97.25 89.50L97.25 89.50Q95.50 89.50 94.63 88.69Q93.75 87.88 93.50 86.13L93.50 86.13Q91.50 87.88 89.69 88.69Q87.88 89.50 85.75 89.50L85.75 89.50Q82.13 89.50 80.13 87.69Q78.13 85.88 78.13 82.75L78.13 82.75Q78.13 80.50 79.13 78.94Q80.13 77.38 82.25 76.50L82.25 76.50Q83.25 76 84.50 75.81Q85.75 75.63 89.63 75.13L89.63 75.13Q91.75 74.75 92.56 74.25Q93.38 73.75 93.38 72.50L93.38 72.50L93.38 71.50Q93.38 69.88 92 69Q90.63 68.13 88.25 68.13L88.25 68.13Q85.63 68.13 84.31 69.13Q83 70.13 82.75 72.25L82.75 72.25L79.13 72.25Q79.13 70.50 79.50 69.38Q79.88 68.25 80.75 67.38L80.75 67.38Q81.88 66.13 83.88 65.44Q85.88 64.75 88.38 64.75L88.38 64.75Q92.63 64.75 94.88 66.31Q97.13 67.88 97.13 71L97.13 71L97.13 84.63Q97.13 85.38 97.63 85.88Q98.13 86.38 99.13 86.38L99.13 86.38Q99.25 86.38 99.44 86.38Q99.63 86.38 99.88 86.25L99.88 86.25L99.75 89.13ZM81.88 82.63L81.88 82.63Q81.88 84.38 83.06 85.31Q84.25 86.25 86.38 86.25L86.38 86.25Q88 86.25 89.38 85.75Q90.75 85.25 91.88 84.25L91.88 84.25Q92.75 83.50 93.06 82.81Q93.38 82.13 93.38 81.25L93.38 81.25L93.38 77.13Q92.50 77.50 91.44 77.75Q90.38 78 87.50 78.38L87.50 78.38Q84.63 78.75 83.25 79.75Q81.88 80.75 81.88 82.63L81.88 82.63ZM66.25 128L66.25 128L66.25 126.50Q67.50 126.38 68.88 126.31Q70.25 126.25 71.63 126.13L71.63 126.13L71.75 127.63Q70.50 127.75 69.06 127.81Q67.63 127.88 66.25 128L66.25 128ZM60.75 126.50L60.75 128Q59.25 127.88 57.88 127.75Q56.50 127.63 55.13 127.50L55.13 127.50L55.25 126Q56.63 126.13 58 126.25Q59.38 126.38 60.75 126.50L60.75 126.50ZM77.25 126.63L77.25 126.63L77 125.25Q78.38 124.88 79.69 124.56Q81 124.25 82.25 123.75L82.25 123.75L82.75 125.25Q81.38 125.63 80.06 126Q78.75 126.38 77.25 126.63ZM50 125L49.63 126.38Q48.25 126.13 46.88 125.75Q45.50 125.38 44.25 124.88L44.25 124.88L44.75 123.50Q46 124 47.31 124.31Q48.63 124.63 50 125L50 125ZM88 123.38L88 123.38L87.38 122Q88.63 121.50 89.88 120.94Q91.13 120.38 92.38 119.75L92.38 119.75L93.13 121Q91.88 121.63 90.56 122.25Q89.25 122.88 88 123.38L88 123.38ZM39.63 121.75L39 123Q37.75 122.50 36.50 121.88Q35.25 121.25 34 120.63L34 120.63L34.75 119.25Q35.88 120 37.13 120.56Q38.38 121.13 39.63 121.75L39.63 121.75ZM98 118.25L98 118.25L97.25 117.13Q98.38 116.38 99.50 115.63Q100.63 114.88 101.75 114L101.75 114L102.63 115.25Q101.50 116 100.31 116.75Q99.13 117.50 98 118.25L98 118.25ZM30 116.50L29.25 117.75Q28 117 26.88 116.19Q25.75 115.38 24.75 114.50L24.75 114.50L25.63 113.25Q26.63 114.13 27.75 114.94Q28.88 115.75 30 116.50L30 116.50ZM106.88 111.63L106.88 111.63L105.88 110.50Q106.88 109.63 107.88 108.63Q108.88 107.63 109.75 106.75L109.75 106.75L110.88 107.75Q109.88 108.63 108.88 109.63Q107.88 110.63 106.88 111.63L106.88 111.63ZM20.38 110.88L20.38 110.88Q19.38 109.88 18.38 108.94Q17.38 108 16.50 106.88L16.50 106.88L17.63 105.88Q18.50 106.88 19.44 107.88Q20.38 108.88 21.38 109.75L21.38 109.75L20.38 110.88ZM114.50 103.38L114.50 103.38L113.25 102.50Q114.13 101.50 114.94 100.38Q115.75 99.25 116.50 98.13L116.50 98.13L117.75 98.88Q117 100 116.19 101.19Q115.38 102.38 114.50 103.38L114.50 103.38ZM12.88 102.63L12.88 102.63Q12.13 101.50 11.31 100.38Q10.50 99.25 9.75 98L9.75 98L10.88 97.25Q11.63 98.38 12.38 99.50Q13.13 100.63 14 101.75L14 101.75L12.88 102.63ZM120.63 94.13L120.63 94.13L119.25 93.38Q120 92.25 120.56 91Q121.13 89.75 121.75 88.50L121.75 88.50L123 89Q122.38 90.25 121.81 91.56Q121.25 92.88 120.63 94.13L120.63 94.13ZM7 93.13L7 93.13Q6.38 91.88 5.81 90.56Q5.25 89.25 4.75 88L4.75 88L6 87.50Q6.50 88.75 7.06 90Q7.63 91.25 8.25 92.50L8.25 92.50L7 93.13ZM124.88 83.75L124.88 83.75L123.50 83.25Q124 82 124.31 80.69Q124.63 79.38 125 78L125 78L126.38 78.25Q126.13 79.75 125.75 81.13Q125.38 82.50 124.88 83.75ZM2.75 82.75L2.75 82.75Q2.38 81.50 2.06 80.13Q1.75 78.75 1.38 77.38L1.38 77.38L2.75 77.13Q3.13 78.50 3.44 79.75Q3.75 81 4.25 82.38L4.25 82.38L2.75 82.75ZM127.38 72.88L127.38 72.88L125.88 72.75Q126 71.38 126.19 70Q126.38 68.63 126.38 67.25L126.38 67.25L127.88 67.38Q127.88 68.75 127.75 70.13Q127.63 71.50 127.38 72.88L127.38 72.88ZM0.50 71.88L0.50 71.88Q0.25 70.50 0.19 69.13Q0.13 67.75 0 66.25L0 66.25L1.50 66.25Q1.63 67.50 1.69 68.88Q1.75 70.25 1.88 71.63L1.88 71.63L0.50 71.88ZM128 61.75L126.50 61.75Q126.38 60.50 126.31 59.13Q126.25 57.75 126.13 56.38L126.13 56.38L127.63 56.25Q127.75 57.50 127.88 58.94Q128 60.38 128 61.75L128 61.75ZM1.50 60.75L1.50 60.75L0 60.75Q0.13 59.25 0.25 57.88Q0.38 56.50 0.50 55.13L0.50 55.13L2 55.38Q1.88 56.75 1.75 58.13Q1.63 59.50 1.50 60.75L1.50 60.75ZM126.63 50.75L125.25 51Q124.88 49.63 124.56 48.31Q124.25 47 123.75 45.75L123.75 45.75L125.25 45.25Q125.63 46.63 125.94 48Q126.25 49.38 126.63 50.75L126.63 50.75ZM3 50L3 50L1.63 49.75Q1.88 48.38 2.25 47Q2.63 45.63 3.13 44.25L3.13 44.25L4.50 44.75Q4 46.13 3.63 47.38Q3.25 48.63 3 50ZM123.25 40L122 40.63Q121.50 39.38 120.94 38.06Q120.38 36.75 119.75 35.63L119.75 35.63L121 34.88Q121.63 36.13 122.19 37.44Q122.75 38.75 123.25 40L123.25 40ZM6.38 39.63L6.38 39.63L5 39.13Q5.50 37.88 6.13 36.56Q6.75 35.25 7.38 34.13L7.38 34.13L8.75 34.75Q8.13 35.88 7.50 37.13Q6.88 38.38 6.38 39.63L6.38 39.63ZM11.50 30L11.50 30L10.25 29.25Q11 28 11.81 26.88Q12.63 25.75 13.50 24.75L13.50 24.75L14.75 25.63Q13.75 26.63 13 27.75Q12.25 28.88 11.50 30ZM18.25 21.38L18.25 21.38L17.13 20.38Q18.13 19.38 19.06 18.38Q20 17.38 21.13 16.50L21.13 16.50L22.13 17.63Q21 18.50 20.06 19.44Q19.13 20.38 18.25 21.38ZM26.25 14.13L26.25 14.13L25.38 12.88Q26.50 12.13 27.63 11.31Q28.75 10.50 30 9.75L30 9.75L30.75 10.88Q29.63 11.75 28.50 12.50Q27.38 13.25 26.25 14.13ZM93.88 7.38L93.25 8.75Q92.13 8.13 90.88 7.50Q89.63 6.88 88.38 6.38L88.38 6.38L88.88 5Q90.13 5.50 91.44 6.13Q92.75 6.75 93.88 7.38L93.88 7.38ZM35.50 8.25L35.50 8.25L34.75 7Q36.13 6.38 37.38 5.81Q38.63 5.25 39.88 4.75L39.88 4.75L40.50 6Q39.25 6.50 38 7.13Q36.75 7.75 35.50 8.25ZM83.63 3.25L83.25 4.50Q81.88 4 80.56 3.69Q79.25 3.38 77.88 3.13L77.88 3.13L78.25 1.75Q79.50 2 80.88 2.38Q82.25 2.75 83.63 3.25L83.63 3.25ZM45.63 4.25L45.63 4.25L45.25 2.75Q46.50 2.38 47.88 2.06Q49.25 1.75 50.63 1.38L50.63 1.38L50.88 2.75Q49.50 3.13 48.19 3.50Q46.88 3.88 45.63 4.25ZM72.63 2L72.63 2Q71.25 1.88 69.88 1.75Q68.50 1.63 67.25 1.50L67.25 1.50L67.25 0Q68.75 0.13 70.13 0.25Q71.50 0.38 72.88 0.50L72.88 0.50L72.63 2ZM56.25 1.88L56.25 1.88L56.13 0.38Q57.50 0.25 58.88 0.13Q60.25 0 61.75 0L61.75 0L61.75 1.50Q60.38 1.50 59 1.63Q57.63 1.75 56.25 1.88Z"/></svg>