<svg xmlns="http://www.w3.org/2000/svg" xmlns:xlink="http://www.w3.org/1999/xlink" width="128" height="128"><path fill="#ffffff" d="M48.63 61.38L48.63 61.38Q48.63 61 48.38 60.81Q48.13 60.63 47.50 60.63L47.50 60.63L46.13 60.63L46.13 62.13L47.50 62.13Q48 62.13 48.31 61.94Q48.63 61.75 48.63 61.38ZM62.50 58.50L61.63 60.75L63.38 60.75L62.50 58.50ZM48.25 58.25L48.25 58.25Q48.25 57.88 48.06 57.75Q47.88 57.63 47.25 57.63L47.25 57.63L46.25 57.63L46.25 59L47.25 59Q47.75 59.13 48 58.88Q48.25 58.63 48.25 58.25L48.25 58.25ZM55 57.75L55 57.75L53.75 57.75L53.75 59.75L55 59.75Q55.50 59.75 55.88 59.44Q56.25 59.13 56.25 58.75L56.25 58.75Q56.25 58.25 55.88 58Q55.50 57.75 55 57.75ZM125.88 65.50L125.88 65.50L60.75 2.75Q59.38 1.50 57.69 0.75Q56 0 54.13 0L54.13 0L54 0Q53.75 0 53.50 0Q53.25 0 53 0.13L53 0.13L52.75 0.13Q51.63 0.25 50.75 0.63Q49.88 1 49 1.63L49 1.63L6.75 27.25Q5.75 27.63 4.94 28.31Q4.13 29 3.50 29.75L3.50 29.75L3.25 29.88Q3.13 30.13 2.94 30.38Q2.75 30.63 2.50 30.75L2.50 30.75Q2.38 30.88 2.31 30.94Q2.25 31 2.25 31.13L2.25 31.13Q2.13 31.38 1.94 31.63Q1.75 31.88 1.63 32.25L1.63 32.25Q1.63 32.25 1.56 32.25Q1.50 32.25 1.50 32.25L1.50 32.25Q1.38 32.63 1.19 32.94Q1 33.25 0.88 33.63L0.88 33.63Q0.88 33.63 0.81 33.75Q0.75 33.88 0.75 33.88L0.75 33.88Q0.75 34.13 0.69 34.44Q0.63 34.75 0.50 35L0.50 35Q0.50 35.13 0.44 35.25Q0.38 35.38 0.38 35.50L0.38 35.50Q0.38 35.75 0.31 36Q0.25 36.25 0.25 36.50L0.25 36.50Q0.25 36.63 0.19 36.75Q0.13 36.88 0.13 37L0.13 37Q0 37.38 0 37.75Q0 38.13 0 38.50L0 38.50Q0 38.75 0 39.06Q0 39.38 0.13 39.75L0.13 39.75L0.13 40.13Q0.13 40.38 0.19 40.50Q0.25 40.63 0.25 40.88L0.25 40.88Q0.25 41 0.25 41.13Q0.25 41.25 0.25 41.25L0.25 41.25Q0.38 41.50 0.38 41.69Q0.38 41.88 0.50 42L0.50 42Q0.50 42.13 0.56 42.25Q0.63 42.38 0.63 42.38L0.63 42.38Q0.63 42.50 0.75 42.75Q0.88 43 0.88 43.13L0.88 43.13Q1 43.38 1.06 43.56Q1.13 43.75 1.25 44L1.25 44Q1.38 44.13 1.38 44.25Q1.38 44.38 1.50 44.38L1.50 44.38Q1.63 44.50 1.69 44.69Q1.75 44.88 1.88 45.13L1.88 45.13Q1.88 45.13 1.94 45.19Q2 45.25 2 45.25L2 45.25Q2.13 45.50 2.25 45.69Q2.38 45.88 2.50 46L2.50 46Q3.75 47.75 5.56 49Q7.38 50.25 9.50 50.75L9.50 50.75L38.38 59.63L38.38 89.50L67.88 89.50L38.88 103.75Q35.63 105.38 33.75 108.44Q31.88 111.50 31.88 115.13L31.88 115.13Q31.88 120.38 35.63 124.13Q39.38 127.88 44.75 127.88L44.75 127.88Q46.75 127.88 48.63 127.25Q50.50 126.63 52.13 125.50L52.13 125.50L125.25 75.38Q126.38 74.63 127.13 73.25Q127.88 71.88 127.88 70.25L127.88 70.25Q127.88 68.75 127.31 67.56Q126.75 66.38 125.88 65.50L125.88 65.50ZM38.38 43.38L38.38 43.38L32.75 38.75L54 21.38L74.13 38.38L38.38 38.38L38.38 43.38ZM59.50 46.75L59.50 46.75L57.13 46.75L57.13 44.75L64.13 44.75L64.13 46.75L61.75 46.75L61.75 52.75L59.50 52.75L59.50 46.75ZM44 63.75L44 55.88L47.75 55.88Q48.50 55.88 49.06 56.06Q49.63 56.25 50 56.63L50 56.63Q50.25 56.88 50.38 57.19Q50.50 57.50 50.50 57.88L50.50 57.88Q50.50 58.63 50.19 59.06Q49.88 59.50 49.25 59.75L49.25 59.75Q50 59.88 50.44 60.38Q50.88 60.88 50.88 61.63L50.88 61.63Q50.88 62.63 50.13 63.19Q49.38 63.75 47.88 63.75L47.88 63.75L44 63.75ZM49.88 52.75L49.88 52.75L49.88 44.75L56.25 44.75L56.25 46.63L52.13 46.63L52.13 47.75L55.88 47.75L55.88 49.63L52.13 49.63L52.13 50.88L56.38 50.88L56.38 52.75L49.88 52.75ZM43.13 51.63L43.13 51.63L44.50 50.25Q44.75 50.63 45.06 50.81Q45.38 51 45.75 51L45.75 51Q46.13 51 46.44 50.69Q46.75 50.38 46.75 49.88L46.75 49.88L46.75 44.88L48.88 44.88L48.88 50Q48.88 50.75 48.69 51.31Q48.50 51.88 48.13 52.25L48.13 52.25Q47.75 52.63 47.19 52.88Q46.63 53.13 45.88 53.13L45.88 53.13Q44.88 53 44.19 52.56Q43.50 52.13 43.13 51.63ZM63.13 83.13L63.13 83.13L43.88 83.13L43.88 79.88L63.13 79.88L63.13 83.13ZM60.25 63.88L56.13 63.88L54.50 61.50L53.75 61.50L53.75 63.88L51.63 63.88L51.63 55.88L55.13 55.88Q56 55.88 56.69 56.13Q57.38 56.38 57.75 56.75L57.75 56.75Q58.13 57.13 58.25 57.56Q58.38 58 58.38 58.63L58.38 58.63Q58.38 59.50 57.94 60.13Q57.50 60.75 56.75 61.13L56.75 61.13L58.25 63.38Q58.63 62.75 60.06 59.25Q61.50 55.75 61.50 55.75L61.50 55.75L63.63 55.75L67 63.88L64.63 63.88L64 62.38L60.88 62.38L60.25 63.88ZM69.50 55.75L69.50 63.75L67.25 63.75L67.25 55.75L69.50 55.75ZM77.63 63.75L77.50 63.75L75.63 63.75L72.63 59.50L72.63 63.75L70.38 63.75L70.38 55.75L72.50 55.75L75.38 60L75.38 55.75L77.63 55.75L77.63 63.75ZM84.75 61.38L84.75 61.38Q84.75 62.63 83.88 63.31Q83 64 81.63 64L81.63 64Q80.63 64 79.63 63.69Q78.63 63.38 77.88 62.75L77.88 62.75L79.13 61.25Q79.75 61.63 80.38 61.94Q81 62.25 81.75 62.25L81.75 62.25Q82.13 62.25 82.38 62.06Q82.63 61.88 82.63 61.75L82.63 61.75Q82.63 61.50 82.31 61.31Q82 61.13 81.25 60.88L81.25 60.88Q79.88 60.63 79.06 60.13Q78.25 59.63 78.25 58.38L78.25 58.38Q78.25 57.25 79.06 56.50Q79.88 55.75 81.25 55.75L81.25 55.75Q82.38 55.75 83.13 56.06Q83.88 56.38 84.63 56.88L84.63 56.88L83.50 58.50Q83 58.13 82.38 57.94Q81.75 57.75 81.25 57.75L81.25 57.75Q80.88 57.75 80.63 57.88Q80.38 58 80.38 58.25L80.38 58.25Q80.38 58.50 80.69 58.63Q81 58.75 81.75 59L81.75 59Q83.25 59.13 84 59.69Q84.75 60.25 84.75 61.38L84.75 61.38ZM110.25 68.75L89.50 78.88L89.50 51.25L110.25 68.75Z"/></svg>