<svg xmlns="http://www.w3.org/2000/svg" xmlns:xlink="http://www.w3.org/1999/xlink" width="128" height="128"><path fill="#ffffff" d="M116.38 5.13L116.38 5.13L11.63 5.13Q8.88 5.13 7 7Q5.13 8.88 5.13 11.63L5.13 11.63L5.13 116.38Q5.13 119.13 7 121Q8.88 122.88 11.63 122.88L11.63 122.88L68 122.88L68 77.25L52.63 77.25L52.63 59.50L68 59.50L68 46.38Q68 35 74.38 28.94Q80.75 22.88 90.88 22.88L90.88 22.88Q91 22.88 91.13 22.88Q91.25 22.88 91.38 22.88L91.38 22.88Q94.88 22.88 98.31 23.06Q101.75 23.25 105.13 23.63L105.13 23.63L104.63 39.50L95.25 39.50Q89.63 39.50 88 41.88Q86.38 44.25 86.38 48.13L86.38 48.13L86.38 59.50L104 59.50L101.75 77.25L86.38 77.25L86.38 122.88L116.38 122.88Q119.13 122.88 121 121Q122.88 119.13 122.88 116.38L122.88 116.38L122.88 11.63Q122.88 11.63 122.88 11.63Q122.88 11.63 122.88 11.63L122.88 11.63Q122.88 8.88 121 7Q119.13 5.13 116.38 5.13L116.38 5.13Z"/></svg>