<svg xmlns="http://www.w3.org/2000/svg" xmlns:xlink="http://www.w3.org/1999/xlink" width="128" height="128"><path fill="#000000" d="M23.63 74.88L23.63 74.88Q23.38 75.25 22.75 76.25Q22.13 77.25 21.50 78.38L21.50 78.38L20.88 79.38Q20.25 80.38 20.50 81.50Q20.75 82.63 21.75 83.13L21.75 83.13L39.75 94.25Q40.75 94.75 41.88 94.50Q43 94.25 43.63 93.25L43.63 93.25Q44.50 91.75 45.19 90.56Q45.88 89.38 46.50 88.25L46.50 88.25L46.25 88.75Q51.50 80 57.63 80Q63.75 80 73.38 84.63L73.38 84.63L91.25 93Q92.38 93.50 93.44 93.06Q94.50 92.63 94.88 91.75L94.88 91.75L103.50 72.38Q104 71.38 103.56 70.31Q103.13 69.25 102.13 68.75L102.13 68.75Q99.25 67.38 94.25 65Q89.25 62.63 84.25 60.13L84.25 60.13Q75.13 55.75 66.75 53.88L66.75 53.88Q58.38 52.13 50.75 53.56Q43.13 55 36.38 60.13L36.38 60.13Q29.50 65.25 23.63 74.88L23.63 74.88ZM104.25 31L104.25 31Q104.50 30.63 105.13 29.63Q105.75 28.63 106.50 27.50L106.50 27.50L107 26.50Q107.63 25.50 107.38 24.38Q107.13 23.25 106.13 22.75L106.13 22.75L88.13 11.63Q87.13 11.13 86 11.38Q84.88 11.63 84.25 12.63L84.25 12.63Q83.38 14.13 82.69 15.31Q82 16.50 81.38 17.63L81.38 17.63L81.63 17Q76.38 25.88 70.25 25.88Q64.13 25.88 54.50 21.25L54.50 21.25L36.63 12.88Q35.50 12.38 34.50 12.75Q33.50 13.13 33 14.13L33 14.13L24.38 33.50Q23.88 34.50 24.31 35.56Q24.75 36.63 25.75 37.13L25.75 37.13Q28.63 38.50 33.63 40.88Q38.63 43.25 43.63 45.75L43.63 45.75Q52.75 50 61.13 51.88L61.13 51.88Q69.50 53.75 77.13 52.31Q84.75 50.88 91.50 45.75L91.50 45.75Q98.38 40.63 104.25 31L104.25 31ZM15 117.88L15 117.88Q14.13 118.38 12.94 118.63Q11.75 118.88 10.38 118.88L10.38 118.88Q6.13 118.88 3.81 116.50Q1.50 114.13 1.50 110L1.50 110Q1.50 106 3.81 103.50Q6.13 101 10.38 101L10.38 101Q11.63 101 12.81 101.31Q14 101.63 15 102.25L15 102.25L15 104.50Q14 103.88 12.94 103.63Q11.88 103.38 10.38 103.38L10.38 103.38Q7.25 103.38 5.56 105.19Q3.88 107 3.88 110L3.88 110Q3.88 113 5.63 114.81Q7.38 116.63 10.50 116.63L10.50 116.63Q11.88 116.63 12.94 116.31Q14 116 15 115.50L15 115.50L15 117.88ZM16.63 112L16.63 112Q16.63 109 18.25 107.06Q19.88 105.13 22.88 105.13L22.88 105.13Q25.75 105.13 27.44 107.06Q29.13 109 29.13 112L29.13 112Q29.13 115 27.44 116.94Q25.75 118.88 22.88 118.88L22.88 118.88Q19.88 118.88 18.25 116.94Q16.63 115 16.63 112ZM18.88 112L18.88 112Q18.88 113.88 19.81 115.31Q20.75 116.75 22.88 116.75L22.88 116.75Q25 116.75 25.94 115.31Q26.88 113.88 26.88 112L26.88 112Q26.88 110.13 25.94 108.69Q25 107.25 22.88 107.25L22.88 107.25Q20.75 107.25 19.81 108.69Q18.88 110.13 18.88 112L18.88 112ZM42.88 118.63L43 118.63L40.63 118.63L40.63 110.63Q40.63 108.88 39.88 108.06Q39.13 107.25 37.50 107.25L37.50 107.25Q36 107.25 35 108.31Q34 109.38 34 111.25L34 111.25L34 118.63L31.75 118.63L31.75 105.50L34 105.50L34 107.63Q34.63 106.50 35.75 105.88Q36.88 105.25 38.13 105.25L38.13 105.25Q40.38 105.25 41.63 106.75Q42.88 108.25 42.88 110.88L42.88 110.88L42.88 118.63ZM49.25 105.50L52.75 105.50L52.75 107.50L49.25 107.50L49.25 118.63L47 118.63L47 107.50L44.88 107.50L44.88 105.50L47 105.50L47 104Q47 102.13 48.06 101Q49.13 99.88 51.25 99.88L51.25 99.88Q51.75 99.88 52.13 99.94Q52.50 100 52.75 100.13L52.75 100.13L52.75 102.25Q52.50 102.13 52.13 102.13Q51.75 102.13 51.38 102.13L51.38 102.13Q50.25 102.13 49.75 102.69Q49.25 103.25 49.25 104.13L49.25 104.13L49.25 105.50ZM58.63 118.63L58.63 118.63Q57 118.63 56.06 117.81Q55.13 117 55.13 115.25L55.13 115.25L55.13 100L57.38 100L57.38 115Q57.38 115.88 57.88 116.25Q58.38 116.63 59.13 116.63L59.13 116.63Q59.38 116.63 59.50 116.56Q59.63 116.50 59.88 116.50L59.88 116.50L59.88 118.63Q59.63 118.63 59.38 118.63Q59.13 118.63 58.63 118.63L58.63 118.63ZM61.75 105.50L61.75 105.50L64 105.50L64 113.38Q64 115.13 64.75 115.94Q65.50 116.75 67.13 116.75L67.13 116.75Q68.75 116.75 69.75 115.75Q70.75 114.75 70.75 112.75L70.75 112.75L70.75 105.50L73 105.50L73 118.63L70.75 118.63L70.75 116.50Q70.13 117.63 69 118.25Q67.88 118.88 66.50 118.88L66.50 118.88Q64.25 118.88 63 117.38Q61.75 115.88 61.75 113.13L61.75 113.13L61.75 105.50ZM82.63 118.88L82.75 118.88Q79 118.88 77.31 116.94Q75.63 115 75.63 112L75.63 112Q75.63 109 77.19 107.06Q78.75 105.13 81.88 105.13L81.88 105.13Q84.88 105.13 86.19 107.06Q87.50 109 87.50 112L87.50 112L87.50 113L77.88 113Q78.13 114.63 79.31 115.63Q80.50 116.63 82.75 116.63L82.75 116.63Q83.88 116.63 84.88 116.44Q85.88 116.25 86.75 116L86.75 116L86.75 118Q86 118.50 84.81 118.69Q83.63 118.88 82.63 118.88L82.63 118.88ZM77.88 111.13L77.88 111.13L85.25 111.13Q85.13 109.25 84.25 108.25Q83.38 107.25 81.75 107.25L81.75 107.25Q79.88 107.25 78.94 108.31Q78 109.38 77.88 111.13ZM101.38 118.63L101.38 118.63L99.13 118.63L99.13 110.63Q99.13 108.88 98.38 108.06Q97.63 107.25 96 107.25L96 107.25Q94.38 107.25 93.38 108.31Q92.38 109.38 92.38 111.25L92.38 111.25L92.38 118.63L90.13 118.63L90.13 105.50L92.38 105.50L92.38 107.63Q93 106.50 94.13 105.88Q95.25 105.25 96.63 105.25L96.63 105.25Q98.88 105.25 100.13 106.75Q101.38 108.25 101.38 110.88L101.38 110.88L101.38 118.63ZM113.88 118.25L113.88 118.25Q113.25 118.50 112.44 118.69Q111.63 118.88 110.63 118.88L110.63 118.88Q107.13 118.88 105.44 116.94Q103.75 115 103.75 112L103.75 112Q103.75 109 105.44 107.06Q107.13 105.13 110.63 105.13L110.63 105.13Q111.63 105.13 112.31 105.25Q113 105.38 113.88 105.75L113.88 105.75L113.88 107.88Q113.25 107.63 112.50 107.44Q111.75 107.25 110.88 107.25L110.88 107.25Q108.25 107.25 107.13 108.63Q106 110 106 112L106 112Q106 113.88 107.19 115.25Q108.38 116.63 110.88 116.63L110.88 116.63Q111.88 116.63 112.56 116.50Q113.25 116.38 113.88 116.25L113.88 116.25L113.88 118.25ZM122.75 118.88L122.75 118.88Q119 118.88 117.31 116.94Q115.63 115 115.63 112L115.63 112Q115.63 109 117.25 107.06Q118.88 105.13 121.88 105.13L121.88 105.13Q125 105.13 126.31 107.06Q127.63 109 127.63 112L127.63 112L127.63 113L118 113Q118.25 114.63 119.38 115.63Q120.50 116.63 122.88 116.63L122.88 116.63Q124 116.63 125 116.44Q126 116.25 126.88 116L126.88 116L126.88 118Q126 118.50 124.88 118.69Q123.75 118.88 122.75 118.88L122.75 118.88ZM117.88 111.13L117.88 111.13L125.25 111.13Q125.25 109.25 124.38 108.25Q123.50 107.25 121.75 107.25L121.75 107.25Q120 107.25 119.06 108.31Q118.13 109.38 117.88 111.13Z"/></svg>