<svg xmlns="http://www.w3.org/2000/svg" xmlns:xlink="http://www.w3.org/1999/xlink" width="128" height="128"><path fill="#000000" d="M19.50 86.25L19.50 86.25Q19.13 86.63 18.44 87.75Q17.75 88.88 17.13 90.13L17.13 90.13L16.50 91.13Q15.75 92.25 16.06 93.50Q16.38 94.75 17.50 95.38L17.50 95.38L37.38 107.50Q38.38 108.25 39.63 107.94Q40.88 107.63 41.50 106.50L41.50 106.50Q42.50 104.75 43.25 103.50Q44 102.25 44.75 101L44.75 101L44.38 101.63Q50.25 91.88 57 91.88Q63.75 91.88 74.38 97L74.38 97L94.13 106.25Q95.38 106.75 96.50 106.31Q97.63 105.88 98.25 104.75L98.25 104.75L107.63 83.50Q108.13 82.38 107.69 81.19Q107.25 80 106.13 79.38L106.13 79.38Q103 78 97.44 75.38Q91.88 72.75 86.50 70L86.50 70Q76.38 65.13 67.13 63.13L67.13 63.13Q57.88 61 49.44 62.63Q41 64.25 33.50 70L33.50 70Q26 75.63 19.50 86.25L19.50 86.25ZM108.50 37.75L108.50 37.75Q108.88 37.38 109.56 36.25Q110.25 35.13 110.88 33.88L110.88 33.88L111.50 32.88Q112.25 31.75 111.94 30.50Q111.63 29.25 110.50 28.63L110.50 28.63L90.63 16.50Q89.63 15.75 88.38 16.06Q87.13 16.38 86.50 17.50L86.50 17.50Q85.50 19.13 84.75 20.44Q84 21.75 83.25 23L83.25 23L83.63 22.38Q77.75 32.13 71 32.13Q64.25 32.13 53.63 27L53.63 27L33.88 17.75Q32.63 17.25 31.50 17.69Q30.38 18.13 29.75 19.25L29.75 19.25L20.38 40.50Q19.88 41.63 20.31 42.81Q20.75 44 21.88 44.63L21.88 44.63Q25 46 30.56 48.63Q36.13 51.25 41.50 54L41.50 54Q51.63 58.75 60.88 60.88L60.88 60.88Q70.13 62.88 78.56 61.31Q87 59.75 94.50 54L94.50 54Q102 48.38 108.50 37.75L108.50 37.75Z"/></svg>