<svg xmlns="http://www.w3.org/2000/svg" xmlns:xlink="http://www.w3.org/1999/xlink" width="128" height="128"><path fill="#000000" d="M36.38 54.38L36.38 54.38Q35.63 54.38 34.88 53.94Q34.13 53.50 33.75 52.75L33.75 52.75L32.88 51.25L32.63 53L32.50 53.75Q32.50 56.25 34.19 58Q35.88 59.75 38.38 59.75L38.38 59.75Q40.88 59.75 42.56 58Q44.25 56.25 44.25 53.75L44.25 53.75Q44.25 51.50 42.63 49.75Q41 48 38.75 47.88L38.75 47.88L37 47.75L38.38 48.88Q38.88 49.38 39.25 50Q39.63 50.63 39.63 51.25L39.63 51.25Q39.50 52.63 38.56 53.50Q37.63 54.38 36.38 54.38L36.38 54.38ZM35.88 41L35.88 41Q39.63 41 42.56 43.25Q45.50 45.50 46.50 48.88L46.50 48.88Q47.13 47.25 48.06 45.81Q49 44.38 50.25 43.25L50.25 43.25Q38.13 42.50 32.56 35.13Q27 27.75 27 27.75L27 27.75L26.63 46.13Q28 43.88 30.44 42.44Q32.88 41 35.88 41ZM61.75 62L61.75 62Q64.50 62 66.44 60.06Q68.38 58.13 68.38 55.25L68.38 55.25Q68.38 52.63 66.56 50.63Q64.75 48.63 62 48.63L62 48.63L60.50 48.50L61.75 49.38Q62.38 49.88 62.75 50.69Q63.13 51.50 63.13 52.38L63.13 52.38Q63.13 54 62 55.13Q60.88 56.25 59.25 56.25L59.25 56.25Q58.25 56.25 57.31 55.69Q56.38 55.13 55.88 54.25L55.88 54.25L55.25 52.88L55 54.38L54.88 55.25Q55 58 56.94 60Q58.88 62 61.75 62L61.75 62ZM126 109.25L126 109.25Q125.75 108.13 125.44 107.13Q125.13 106.13 124.75 105.13L124.75 105.13Q122.88 98.38 120.63 93.81Q118.38 89.25 112.50 89.75L112.50 89.75Q111.63 89.88 110.88 90.19Q110.13 90.50 109.38 90.88L109.38 90.88L101.50 85.88L101.25 85.88L100.63 84L99.38 84.75Q97.50 83.63 95.44 82.56Q93.38 81.50 91.25 80.50L91.25 80.50Q94.63 76.50 97.25 70.88L97.25 70.88Q99.75 65.25 101.19 57.81Q102.63 50.38 102.88 41L102.88 41Q103.13 31.63 101.75 20L101.75 20Q101.63 18 100.69 17.81Q99.75 17.63 99 19.75L99 19.75Q98.75 20.75 97.25 23.75L97.25 23.75Q95.88 26.88 92.25 30.44Q88.63 34 82.25 37.50L82.25 37.50Q75.88 40.88 65.63 42.50L65.63 42.50Q68.25 44.25 69.94 47.13Q71.63 50 71.63 53.38L71.63 53.38Q71.63 58.75 67.81 62.56Q64 66.38 58.63 66.38L58.63 66.38Q54 66.38 50.50 63.50Q47 60.63 46 56.38L46 56.38Q44.75 59.38 42 61.31Q39.25 63.25 35.75 63.25L35.75 63.25Q32.38 63.25 29.63 61.31Q26.88 59.38 25.63 56.38L25.63 56.38Q25.50 56.50 25.44 56.69Q25.38 56.88 25.25 56.88L25.25 56.88Q25.25 56.75 25.13 56.56Q25 56.38 24.88 56.25L24.88 56.25Q20.88 50.63 15.25 48.69Q9.63 46.75 5.63 49.63L5.63 49.63Q1.63 52.50 1.69 58.50Q1.75 64.50 5.75 70L5.75 70Q9.13 74.63 13.69 76.81Q18.25 79 22.25 77.88L22.25 77.88Q27.88 82.13 35.63 85.75L35.63 85.75Q43.25 89.25 51.69 91.06Q60.13 92.88 68.50 92.13L68.50 92.13Q76.88 91.38 83.88 86.88L83.88 86.88Q86.63 88.50 89.69 89.94Q92.75 91.38 95.75 92.38L95.75 92.38L95.75 92.50L96.13 93.75L97.75 93.13L97.88 93.25L106.75 96.50Q106.75 98.63 108.06 100.69Q109.38 102.75 112.13 103.75L112.13 103.75Q117.13 105.75 121.19 107.69Q125.25 109.63 125.25 109.75L125.25 109.75L126.25 110.25L126 109.25ZM5 57.13L5 57.13Q5 54.75 6.44 53Q7.88 51.25 9.75 51.25L9.75 51.25Q11.88 51.25 13.25 53Q14.63 54.75 14.63 57.13L14.63 57.13Q14.63 59.50 13.19 61.19Q11.75 62.88 9.75 62.88L9.75 62.88Q7.75 62.88 6.38 61.19Q5 59.50 5 57.13L5 57.13ZM41.63 75.75L41.63 75.75Q55.38 78.50 63 76.69Q70.63 74.88 74.75 71.75L74.75 71.75Q73.63 70.25 72.19 69Q70.75 67.75 70.75 67.75L70.75 67.75Q70.75 67.75 74.25 69.06Q77.75 70.38 79.50 72.50L79.50 72.50Q80.25 73.50 80.50 74.31Q80.75 75.13 80.75 76L80.75 76Q78.25 75.13 76.63 74.63Q75 74.13 74.63 74L74.63 74Q73.13 73.38 71.88 73.75Q70.63 74.13 70.25 75.25L70.25 75.25Q69.88 76 70.13 76.94Q70.38 77.88 71.13 78.63L71.13 78.63Q66.38 80.75 58.81 79.94Q51.25 79.13 41.63 75.75L41.63 75.75Z"/></svg>