<svg xmlns="http://www.w3.org/2000/svg" xmlns:xlink="http://www.w3.org/1999/xlink" width="128" height="128"><path fill="#ffffff" d="M16.88 46.75L0.13 80.13L18.50 64.50L16.88 46.75ZM33.38 81.25L10.75 72.13L0 81.25L33.38 81.25ZM34.50 80.88L17.75 47.38L20.25 75.13L34.50 80.88ZM43.13 66.50L43.13 66.50Q42.75 67.75 42.94 69.13Q43.13 70.50 43.88 71.63L43.88 71.63Q44.75 72.63 45.88 73.13Q47 73.63 48.38 73.63L48.38 73.63Q49.13 73.63 49.75 73.56Q50.38 73.50 51 73.25L51 73.25Q51.50 73.25 52 73.06Q52.50 72.88 53 72.75L53 72.75L52.50 76Q51.88 76.13 51.31 76.25Q50.75 76.38 50.25 76.50L50.25 76.50Q49.50 76.63 48.88 76.69Q48.25 76.75 47.63 76.75L47.63 76.75Q45 76.75 43.19 76.06Q41.38 75.38 40.25 74L40.25 74Q39.13 72.63 38.81 70.81Q38.50 69 39 66.63L39 66.63Q39.50 64.38 40.63 62.38Q41.75 60.38 43.50 58.88L43.50 58.88Q45.25 57.50 47.44 56.69Q49.63 55.88 52 56L52 56Q52.63 56 53.31 56.06Q54 56.13 54.75 56.25L54.75 56.25Q55.13 56.38 55.63 56.50Q56.13 56.63 56.63 56.88L56.63 56.88L55.50 60.38Q55.13 60.13 54.63 59.94Q54.13 59.75 53.75 59.63L53.75 59.63Q53.13 59.50 52.56 59.38Q52 59.25 51.50 59.25L51.50 59.25Q50 59.25 48.63 59.81Q47.25 60.38 46.25 61.25L46.25 61.25Q44.88 62.38 44.13 63.69Q43.38 65 43.13 66.50ZM75.38 56.38L75.38 56.38L81.75 56.38L77.63 76.25L73.75 76.25L77.25 59.75L68.38 76.25L64.63 76.25L62.75 59.75L59.25 76.25L55.38 76.25L59.63 56.38L66 56.38L67.50 71.50L75.38 56.38ZM91.13 74L91.13 74Q90.63 74.63 89.94 75.25Q89.25 75.88 88.50 76.25L88.50 76.25Q87.88 76.50 87.25 76.63Q86.63 76.75 85.88 76.75L85.88 76.75Q84.88 76.88 84 76.56Q83.13 76.25 82.50 75.63L82.50 75.63Q82 75 81.75 74.19Q81.50 73.38 81.75 72.63L81.75 72.63Q81.88 71.38 82.56 70.44Q83.25 69.50 84.25 68.75L84.25 68.75Q85.63 68 87.06 67.69Q88.50 67.38 90 67.50L90 67.50L92.38 67.50L92.50 67.25Q92.63 66.50 92.56 65.88Q92.50 65.25 92.13 65L92.13 65Q91.63 64.63 91 64.44Q90.38 64.25 89.75 64.25L89.75 64.25Q89.25 64.25 88.56 64.44Q87.88 64.63 87.25 64.75L87.25 64.75Q86.75 65 86.13 65.25Q85.50 65.50 85 66L85 66L85.63 62.75Q86.25 62.50 86.88 62.25Q87.50 62 88.25 61.88L88.25 61.88Q88.88 61.75 89.63 61.63Q90.38 61.50 91 61.50L91 61.50Q92.63 61.50 93.75 61.88Q94.88 62.25 95.50 63L95.50 63Q96.13 63.88 96.25 65.06Q96.38 66.25 96 67.88L96 67.88L95.13 71.75L94.50 75.13Q94.38 75.88 94.31 76.19Q94.25 76.50 94.25 76.50L94.25 76.50L90.88 76.50L90.88 75.75Q90.88 75.38 90.94 74.94Q91 74.50 91.13 74L91.13 74ZM91.75 69.88L91.75 69.88L91.88 69.63L90.25 69.63Q89.38 69.63 88.56 69.75Q87.75 69.88 87 70.25L87 70.25Q86.50 70.50 86.13 71Q85.75 71.50 85.75 72L85.75 72Q85.63 72.38 85.69 72.75Q85.75 73.13 86 73.38L86 73.38Q86.38 73.75 86.81 73.81Q87.25 73.88 87.75 73.88L87.75 73.88Q88.50 73.88 89.25 73.56Q90 73.25 90.63 72.75L90.63 72.75Q91 72 91.31 71.31Q91.63 70.63 91.75 69.88L91.75 69.88ZM102.25 55L102.25 55L106 55L103.25 67.75L109.25 61.75L113.75 61.75L107 68.25L111.50 76.38L106.63 76.38L103.25 69.25L101.75 76.38L97.88 76.38L102.25 55ZM126 72.38L125.50 75.63Q124.88 75.88 124.31 76.13Q123.75 76.38 123.13 76.38L123.13 76.38Q122.38 76.50 121.69 76.63Q121 76.75 120.25 76.75L120.25 76.75Q118.38 76.75 117 76.19Q115.63 75.63 114.88 74.75L114.88 74.75Q114.13 73.75 113.94 72.31Q113.75 70.88 114.13 69L114.13 69Q114.38 67.38 115.13 65.94Q115.88 64.50 117.13 63.50L117.13 63.50Q118.25 62.50 119.63 61.94Q121 61.38 122.50 61.38L122.50 61.38Q124.38 61.38 125.56 62Q126.75 62.63 127.25 63.75L127.25 63.75Q127.88 64.88 127.94 66.50Q128 68.13 127.50 70.25L127.50 70.25L117.38 70.25Q117.38 70.88 117.50 71.50Q117.63 72.13 117.88 72.75L117.88 72.75Q118.38 73.50 119.19 73.81Q120 74.13 120.88 74L120.88 74Q121.63 74 122.38 73.88Q123.13 73.75 123.88 73.38L123.88 73.38Q124.38 73.25 124.94 73Q125.50 72.75 126 72.38L126 72.38ZM117.88 67.63L117.88 67.63L124.50 67.63Q124.75 66.88 124.63 66.25Q124.50 65.63 124.13 65L124.13 65Q123.75 64.50 123.19 64.31Q122.63 64.13 122 64.13L122 64.13Q121.13 64.13 120.44 64.44Q119.75 64.75 119.25 65.25L119.25 65.25Q118.88 65.88 118.56 66.44Q118.25 67 117.88 67.63ZM18.63 65.38L11.25 71.63L19.38 74.75L18.63 65.38Z"/></svg>