<svg xmlns="http://www.w3.org/2000/svg" xmlns:xlink="http://www.w3.org/1999/xlink" width="128" height="128"><path fill="#000000" d="M69.63 8.13L18.38 96.88L13.75 94.25L65 5.38L69.63 8.13ZM12.75 92.38L12.75 87.13L115.25 87.13L115.25 92.38L12.75 92.38ZM68.63 115.13L66 119.63L14.75 90.13L17.38 85.50L68.63 115.13ZM113.25 38L110.63 42.50L59.25 13L62 8.38L113.25 38ZM68.75 12.88L17.38 42.50L14.75 37.88L66 8.38L68.75 12.88ZM114.25 94.25L109.63 96.88L58.38 8.13L63 5.38L114.25 94.25ZM16.75 93.63L16.75 34.38L22.13 34.38L22.13 93.63L16.75 93.63ZM105.88 93.63L105.88 34.38L111.25 34.38L111.25 93.63L105.88 93.63ZM109.75 91.75L65.13 117.50L62.75 113.38L107.38 87.63L109.75 91.75ZM118.25 95.38L118.25 95.38Q115.88 99.38 111.44 100.56Q107 101.75 103 99.38L103 99.38Q99 97.13 97.81 92.63Q96.63 88.13 98.88 84.13L98.88 84.13Q101.13 80.13 105.63 78.94Q110.13 77.75 114.13 80L114.13 80Q118.13 82.38 119.38 86.88Q120.63 91.38 118.25 95.38ZM29.13 43.88L29.13 43.88Q26.75 47.88 22.31 49.06Q17.88 50.25 13.88 48L13.88 48Q9.88 45.63 8.63 41.13Q7.38 36.63 9.75 32.63L9.75 32.63Q12 28.63 16.50 27.44Q21 26.25 25 28.63L25 28.63Q29 30.88 30.19 35.38Q31.38 39.88 29.13 43.88ZM9.75 95.38L9.75 95.38Q7.50 91.38 8.69 86.88Q9.88 82.38 13.88 80.13L13.88 80.13Q17.88 77.75 22.31 78.94Q26.75 80.13 29.13 84.13L29.13 84.13Q31.38 88.13 30.19 92.63Q29 97.13 25 99.38L25 99.38Q21 101.75 16.56 100.56Q12.13 99.38 9.75 95.38ZM98.88 43.88L98.88 43.88Q96.63 39.88 97.81 35.38Q99 30.88 103 28.63L103 28.63Q107 26.25 111.50 27.44Q116 28.63 118.25 32.63L118.25 32.63Q120.63 36.63 119.38 41.13Q118.13 45.63 114.13 47.88L114.13 47.88Q110.13 50.25 105.69 49.06Q101.25 47.88 98.88 43.88ZM64 126.63L64 126.63Q59.38 126.63 56.13 123.38Q52.88 120.13 52.88 115.50L52.88 115.50Q52.88 110.88 56.13 107.63Q59.38 104.38 64 104.38L64 104.38Q68.63 104.38 71.88 107.63Q75.13 110.88 75.13 115.50L75.13 115.50Q75.13 120.13 71.88 123.38Q68.63 126.63 64 126.63ZM64 23.63L64 23.63Q59.38 23.63 56.13 20.38Q52.88 17.13 52.88 12.50L52.88 12.50Q52.88 7.88 56.13 4.63Q59.38 1.38 64 1.38L64 1.38Q68.63 1.38 71.88 4.63Q75.13 7.88 75.13 12.50L75.13 12.50Q75.13 17.13 71.88 20.38Q68.63 23.63 64 23.63Z"/></svg>