<svg xmlns="http://www.w3.org/2000/svg" xmlns:xlink="http://www.w3.org/1999/xlink" width="128" height="128"><path fill="#ffffff" d="M67.50 16.38L35.38 71.75L32.50 70.13L64.63 14.75L67.50 16.38ZM31.88 69L31.88 65.75L96.13 65.75L96.13 69L31.88 69ZM67 83.13L65.25 86L33.13 67.63L34.75 64.75L67 83.13ZM94.88 35L93.25 37.88L61 19.38L62.75 16.50L94.88 35ZM67 19.38L34.75 37.88L33.13 35L65.25 16.50L67 19.38ZM95.50 70.13L92.63 71.75L60.50 16.38L63.38 14.75L95.50 70.13ZM34.38 69.75L34.38 32.75L37.75 32.75L37.75 69.75L34.38 69.75ZM90.25 69.75L90.25 32.75L93.63 32.75L93.63 69.75L90.25 69.75ZM92.63 68.63L64.75 84.63L63.25 82.13L91.25 66L92.63 68.63ZM98 70.88L98 70.88Q96.63 73.38 93.81 74.13Q91 74.88 88.50 73.38L88.50 73.38Q85.88 72 85.13 69.19Q84.38 66.38 85.88 63.88L85.88 63.88Q87.38 61.38 90.19 60.63Q93 59.88 95.50 61.25L95.50 61.25Q98 62.75 98.75 65.56Q99.50 68.38 98 70.88L98 70.88ZM42.13 38.63L42.13 38.63Q40.63 41.13 37.81 41.88Q35 42.63 32.50 41.25L32.50 41.25Q30 39.75 29.25 37Q28.50 34.25 30 31.75L30 31.75Q31.38 29.25 34.19 28.50Q37 27.75 39.50 29.13L39.50 29.13Q42 30.63 42.75 33.38Q43.50 36.13 42.13 38.63L42.13 38.63ZM30 70.88L30 70.88Q28.50 68.38 29.25 65.56Q30 62.75 32.50 61.25L32.50 61.25Q35 59.88 37.81 60.63Q40.63 61.38 42.13 63.88L42.13 63.88Q43.63 66.38 42.88 69.19Q42.13 72 39.50 73.38L39.50 73.38Q37 74.88 34.19 74.13Q31.38 73.38 30 70.88L30 70.88ZM85.88 38.63L85.88 38.63Q84.50 36.13 85.25 33.38Q86 30.63 88.50 29.13L88.50 29.13Q91 27.75 93.81 28.50Q96.63 29.25 98 31.75L98 31.75Q99.50 34.25 98.75 37Q98 39.75 95.50 41.25L95.50 41.25Q93 42.63 90.19 41.88Q87.38 41.13 85.88 38.63L85.88 38.63ZM64 90.38L64 90.38Q61.13 90.38 59.06 88.38Q57 86.38 57 83.38L57 83.38Q57 80.50 59.06 78.50Q61.13 76.50 64 76.50L64 76.50Q66.88 76.50 68.94 78.50Q71 80.50 71 83.38L71 83.38Q71 86.25 68.94 88.31Q66.88 90.38 64 90.38ZM64 26.13L64 26.13Q61.13 26.13 59.06 24.06Q57 22 57 19.13L57 19.13Q57 16.25 59.06 14.19Q61.13 12.13 64 12.13L64 12.13Q66.88 12.13 68.94 14.19Q71 16.25 71 19.13L71 19.13Q71 22 68.94 24.06Q66.88 26.13 64 26.13ZM117.50 121.50L106.63 121.50Q106.50 121.50 106.38 121.44Q106.25 121.38 106.13 121.38L106.13 121.38Q106.13 121.25 106.06 121.13Q106 121 106 120.88L106 120.88L106 102.38Q106 102.25 106.06 102.13Q106.13 102 106.13 102L106.13 102Q106.25 101.88 106.38 101.81Q106.50 101.75 106.63 101.75L106.63 101.75L107.13 101.75Q107.25 101.75 107.38 101.81Q107.50 101.88 107.63 102L107.63 102Q107.75 102 107.75 102.13Q107.75 102.25 107.75 102.38L107.75 102.38L107.75 119.88L117.50 119.88Q117.75 119.88 117.88 119.88Q118 119.88 118 120L118 120Q118.13 120.13 118.19 120.19Q118.25 120.25 118.25 120.50L118.25 120.50L118.25 120.88Q118.25 121 118.19 121.13Q118.13 121.25 118 121.38L118 121.38Q118 121.38 117.88 121.44Q117.75 121.50 117.50 121.50L117.50 121.50ZM100.75 123.38L100.13 123.38Q100 123.38 99.81 123.31Q99.63 123.25 99.50 123.13L99.50 123.13Q99.50 123 99.38 122.88Q99.25 122.75 99.25 122.75L99.25 122.75L98 121Q97.13 121.38 96.13 121.56Q95.13 121.75 94 121.75L94 121.75Q92.88 121.75 91.88 121.56Q90.88 121.38 90 121L90 121Q89.13 120.50 88.50 119.88Q87.88 119.25 87.50 118.38L87.50 118.38Q87 117.50 86.81 116.44Q86.63 115.38 86.50 114L86.50 114Q86.50 113.38 86.50 112.81Q86.50 112.25 86.50 111.63L86.50 111.63Q86.50 111.13 86.50 110.50Q86.50 109.88 86.50 109.25L86.50 109.25Q86.63 108 86.88 106.88Q87.13 105.75 87.50 105L87.50 105Q88 104.13 88.63 103.44Q89.25 102.75 90.13 102.38L90.13 102.38Q91 102 91.94 101.75Q92.88 101.50 94 101.50L94 101.50Q95.13 101.50 96.06 101.75Q97 102 97.88 102.38L97.88 102.38Q98.63 102.75 99.31 103.44Q100 104.13 100.50 105L100.50 105Q100.88 105.75 101.13 106.88Q101.38 108 101.50 109.25L101.50 109.25Q101.50 109.88 101.50 110.50Q101.50 111.13 101.50 111.63L101.50 111.63Q101.50 112.25 101.50 112.81Q101.50 113.38 101.50 114L101.50 114Q101.38 116 100.88 117.50Q100.38 119 99.38 119.88L99.38 119.88L101.25 122.50Q101.25 122.50 101.25 122.50Q101.25 122.50 101.25 122.63L101.25 122.63Q101.25 122.63 101.25 122.69Q101.25 122.75 101.25 122.75L101.25 122.75Q101.25 122.88 101.25 123Q101.25 123.13 101.13 123.13L101.13 123.13Q101 123.25 100.94 123.31Q100.88 123.38 100.75 123.38L100.75 123.38ZM94 120.13L94 120.13Q95.25 120.13 96.25 119.75Q97.25 119.38 98 118.63L98 118.63Q98.75 117.88 99.19 116.69Q99.63 115.50 99.63 113.88L99.63 113.88Q99.75 113.25 99.75 112.69Q99.75 112.13 99.75 111.63L99.75 111.63Q99.75 111.13 99.75 110.63Q99.75 110.13 99.63 109.38L99.63 109.38Q99.63 108.38 99.44 107.44Q99.25 106.50 98.88 105.88L98.88 105.88Q98.50 105.13 98 104.63Q97.50 104.13 96.88 103.88L96.88 103.88Q96.25 103.50 95.50 103.38Q94.75 103.25 94 103.25L94 103.25Q93.25 103.25 92.50 103.38Q91.75 103.50 91.13 103.88L91.13 103.88Q90.50 104.13 90 104.63Q89.50 105.13 89.13 105.88L89.13 105.88Q88.75 106.50 88.56 107.44Q88.38 108.38 88.25 109.38L88.25 109.38Q88.25 110.13 88.25 110.63Q88.25 111.13 88.25 111.63L88.25 111.63Q88.25 112.13 88.25 112.69Q88.25 113.25 88.25 113.88L88.25 113.88Q88.38 115.50 88.81 116.69Q89.25 117.88 90 118.63L90 118.63Q90.75 119.38 91.75 119.75Q92.75 120.13 94 120.13ZM71.38 121.50L70.88 121.50Q70.75 121.50 70.63 121.44Q70.50 121.38 70.38 121.38L70.38 121.38Q70.38 121.25 70.31 121.13Q70.25 121 70.25 120.88L70.25 120.88L70.25 102.13Q70.25 102 70.31 101.88Q70.38 101.75 70.38 101.75L70.38 101.75Q70.50 101.63 70.63 101.56Q70.75 101.50 70.88 101.50L70.88 101.50L71.38 101.50Q71.50 101.50 71.63 101.56Q71.75 101.63 71.75 101.75L71.75 101.75Q71.88 101.75 71.94 101.88Q72 102 72 102.13L72 102.13L72 108.75Q72.38 108.38 72.81 107.94Q73.25 107.50 73.88 107.25L73.88 107.25Q74.38 106.88 75.06 106.75Q75.75 106.63 76.75 106.63L76.75 106.63Q77.63 106.63 78.44 106.81Q79.25 107 79.88 107.38L79.88 107.38Q80.63 107.88 81.06 108.44Q81.50 109 81.88 109.63L81.88 109.63Q82.13 110.38 82.31 111.19Q82.50 112 82.50 112.88L82.50 112.88L82.50 120.88Q82.50 121 82.44 121.13Q82.38 121.25 82.25 121.38L82.25 121.38Q82.25 121.38 82.13 121.44Q82 121.50 81.88 121.50L81.88 121.50L81.38 121.50Q81.25 121.50 81.13 121.44Q81 121.38 80.88 121.38L80.88 121.38Q80.88 121.25 80.81 121.13Q80.75 121 80.75 120.88L80.75 120.88L80.75 113Q80.75 111.88 80.50 111Q80.25 110.13 79.63 109.50L79.63 109.50Q79.13 108.88 78.31 108.56Q77.50 108.25 76.38 108.25L76.38 108.25Q75.38 108.25 74.56 108.56Q73.75 108.88 73.25 109.50L73.25 109.50Q72.63 110.13 72.31 111Q72 111.88 72 113L72 113L72 120.88Q72 121 71.94 121.13Q71.88 121.25 71.75 121.38L71.75 121.38Q71.75 121.38 71.63 121.44Q71.50 121.50 71.38 121.50L71.38 121.50ZM54.88 126.88L54.38 126.88Q54.25 126.88 54.13 126.81Q54 126.75 54 126.75L54 126.75Q53.88 126.63 53.81 126.50Q53.75 126.38 53.75 126.25L53.75 126.25L53.75 107.50Q53.75 107.38 53.81 107.25Q53.88 107.13 54 107L54 107Q54 107 54.13 106.94Q54.25 106.88 54.38 106.88L54.38 106.88L54.88 106.88Q55 106.88 55.13 106.94Q55.25 107 55.38 107L55.38 107Q55.50 107.13 55.50 107.25Q55.50 107.38 55.50 107.50L55.50 107.50L55.50 108.75Q55.88 108.38 56.31 107.94Q56.75 107.50 57.38 107.25L57.38 107.25Q58 106.88 58.69 106.75Q59.38 106.63 60.25 106.63L60.25 106.63Q61.13 106.63 61.81 106.75Q62.50 106.88 63.13 107.13L63.13 107.13Q63.63 107.50 64.13 107.88Q64.63 108.25 64.88 108.75L64.88 108.75Q65.25 109.13 65.50 109.69Q65.75 110.25 66 110.88L66 110.88Q66.13 111.38 66.25 112Q66.38 112.63 66.38 113.25L66.38 113.25Q66.38 113.50 66.38 113.69Q66.38 113.88 66.38 114.25L66.38 114.25Q66.38 114.50 66.38 114.69Q66.38 114.88 66.38 115.13L66.38 115.13Q66.38 115.75 66.25 116.38Q66.13 117 66 117.50L66 117.50Q65.75 118.13 65.50 118.69Q65.25 119.25 64.88 119.63L64.88 119.63Q64.63 120.13 64.13 120.50Q63.63 120.88 63.13 121.25L63.13 121.25Q62.50 121.50 61.81 121.63Q61.13 121.75 60.25 121.75L60.25 121.75Q59.38 121.75 58.69 121.63Q58 121.50 57.38 121.13L57.38 121.13Q56.75 120.88 56.31 120.44Q55.88 120 55.50 119.63L55.50 119.63L55.50 126.25Q55.50 126.38 55.50 126.50Q55.50 126.63 55.38 126.63L55.38 126.63Q55.25 126.75 55.13 126.81Q55 126.88 54.88 126.88L54.88 126.88ZM60.13 120.13L60.13 120.13Q61 120.13 61.63 119.94Q62.25 119.75 62.75 119.38L62.75 119.38Q63.25 119 63.56 118.56Q63.88 118.13 64.13 117.50L64.13 117.50Q64.38 116.88 64.50 116.25Q64.63 115.63 64.63 115L64.63 115Q64.63 114.63 64.63 114.19Q64.63 113.75 64.63 113.38L64.63 113.38Q64.63 112.75 64.50 112.13Q64.38 111.50 64.13 110.88L64.13 110.88Q63.88 110.25 63.56 109.81Q63.25 109.38 62.75 109L62.75 109Q62.25 108.63 61.63 108.44Q61 108.25 60.13 108.25L60.13 108.25Q59.25 108.25 58.63 108.44Q58 108.63 57.50 109L57.50 109Q57 109.38 56.63 109.81Q56.25 110.25 56 110.88L56 110.88Q55.88 111.50 55.69 112.06Q55.50 112.63 55.50 113.13L55.50 113.13Q55.50 113.38 55.50 113.63Q55.50 113.88 55.50 114.25L55.50 114.25Q55.50 114.63 55.50 114.88Q55.50 115.13 55.50 115.38L55.50 115.38Q55.50 115.88 55.63 116.44Q55.75 117 56 117.63L56 117.63Q56.25 118.13 56.63 118.56Q57 119 57.50 119.38L57.50 119.38Q58 119.75 58.69 119.94Q59.38 120.13 60.13 120.13L60.13 120.13ZM42.63 121.75L42.63 121.75Q41.88 121.75 41.25 121.63Q40.63 121.50 40.13 121.25L40.13 121.25Q39.50 121 39.06 120.63Q38.63 120.25 38.25 119.75L38.25 119.75Q37.88 119.25 37.69 118.69Q37.50 118.13 37.50 117.63L37.50 117.63Q37.50 116.63 37.88 115.88Q38.25 115.13 39.13 114.50L39.13 114.50Q39.88 114 40.88 113.63Q41.88 113.25 43.13 113L43.13 113L47.63 112.38L47.63 111.38Q47.63 110.63 47.38 110.06Q47.13 109.50 46.63 109.13L46.63 109.13Q46.25 108.63 45.50 108.44Q44.75 108.25 43.75 108.25L43.75 108.25Q43 108.25 42.44 108.38Q41.88 108.50 41.38 108.75L41.38 108.75Q40.88 109.13 40.56 109.50Q40.25 109.88 40.13 110.25L40.13 110.25Q40 110.50 39.88 110.63Q39.75 110.75 39.63 110.75L39.63 110.75L39.13 110.75Q39 110.75 38.88 110.69Q38.75 110.63 38.63 110.50L38.63 110.50Q38.63 110.50 38.56 110.38Q38.50 110.25 38.50 110.13L38.50 110.13Q38.50 109.88 38.56 109.63Q38.63 109.38 38.75 109.13L38.75 109.13Q39 108.88 39.19 108.56Q39.38 108.25 39.75 108L39.75 108Q40 107.63 40.44 107.38Q40.88 107.13 41.38 107L41.38 107Q41.88 106.75 42.44 106.69Q43 106.63 43.75 106.63L43.75 106.63Q44.63 106.63 45.31 106.75Q46 106.88 46.50 107L46.50 107Q47 107.25 47.44 107.56Q47.88 107.88 48.25 108.25L48.25 108.25Q48.50 108.63 48.69 109Q48.88 109.38 49 109.75L49 109.75Q49.13 110.25 49.19 110.69Q49.25 111.13 49.25 111.50L49.25 111.50L49.25 120.88Q49.25 121 49.25 121.13Q49.25 121.25 49.13 121.38L49.13 121.38Q49 121.38 48.94 121.44Q48.88 121.50 48.75 121.50L48.75 121.50L48.25 121.50Q48.13 121.50 48 121.44Q47.88 121.38 47.75 121.38L47.75 121.38Q47.63 121.25 47.63 121.13Q47.63 121 47.63 120.88L47.63 120.88L47.63 119.63Q47.38 119.88 47.13 120.13Q46.88 120.38 46.63 120.63L46.63 120.63Q46.38 120.88 45.94 121.06Q45.50 121.25 45 121.50L45 121.50Q44.50 121.63 43.94 121.69Q43.38 121.75 42.63 121.75L42.63 121.75ZM42.88 120.13L42.88 120.13Q43.50 120.13 44.13 120Q44.75 119.88 45.25 119.63L45.25 119.63Q45.75 119.38 46.19 118.94Q46.63 118.50 47 117.88L47 117.88Q47.25 117.25 47.44 116.50Q47.63 115.75 47.63 114.88L47.63 114.88L47.63 114L44 114.50Q42.75 114.63 41.88 114.88Q41 115.13 40.38 115.50L40.38 115.50Q39.88 115.88 39.56 116.38Q39.25 116.88 39.25 117.50L39.25 117.50Q39.25 117.88 39.38 118.25Q39.50 118.63 39.75 119L39.75 119Q40 119.25 40.38 119.50Q40.75 119.75 41.13 119.88L41.13 119.88Q41.63 120 42 120.06Q42.38 120.13 42.88 120.13ZM30.13 121.50L29.63 121.50Q29.50 121.50 29.38 121.44Q29.25 121.38 29.13 121.38L29.13 121.38Q29.13 121.25 29.06 121.13Q29 121 29 120.88L29 120.88L29 107.50Q29 107.38 29.06 107.25Q29.13 107.13 29.13 107L29.13 107Q29.25 107 29.38 106.94Q29.50 106.88 29.63 106.88L29.63 106.88L30.13 106.88Q30.25 106.88 30.38 106.94Q30.50 107 30.50 107L30.50 107Q30.63 107.13 30.69 107.25Q30.75 107.38 30.75 107.50L30.75 107.50L30.75 108.75Q31 108.38 31.38 108Q31.75 107.63 32.25 107.38L32.25 107.38Q32.63 107.13 33.25 107Q33.88 106.88 34.63 106.88L34.63 106.88L35.63 106.88Q35.75 106.88 35.88 106.94Q36 107 36.13 107L36.13 107Q36.13 107.13 36.19 107.25Q36.25 107.38 36.25 107.50L36.25 107.50L36.25 107.88Q36.25 108 36.19 108.13Q36.13 108.25 36.13 108.38L36.13 108.38Q36 108.38 35.88 108.44Q35.75 108.50 35.63 108.50L35.63 108.50L34.38 108.50Q33.50 108.50 32.88 108.75Q32.25 109 31.75 109.50L31.75 109.50Q31.25 110 31 110.69Q30.75 111.38 30.75 112.13L30.75 112.13L30.75 120.88Q30.75 121 30.69 121.13Q30.63 121.25 30.50 121.38L30.50 121.38Q30.50 121.38 30.38 121.44Q30.25 121.50 30.13 121.50L30.13 121.50ZM17.38 121.75L17.38 121.75Q16.13 121.75 15.13 121.56Q14.13 121.38 13.25 120.88L13.25 120.88Q12.50 120.38 11.88 119.69Q11.25 119 10.75 118.25L10.75 118.25Q10.38 117.38 10.13 116.38Q9.88 115.38 9.88 114.38L9.88 114.38Q9.88 113.75 9.81 113.06Q9.75 112.38 9.75 111.63L9.75 111.63Q9.75 111 9.81 110.31Q9.88 109.63 9.88 109L9.88 109Q9.88 107.88 10.13 106.88Q10.38 105.88 10.75 105.13L10.75 105.13Q11.25 104.25 11.88 103.56Q12.50 102.88 13.38 102.50L13.38 102.50Q14.13 102 15.13 101.75Q16.13 101.50 17.38 101.50L17.38 101.50Q18.38 101.50 19.19 101.63Q20 101.75 20.75 102.13L20.75 102.13Q21.38 102.38 21.94 102.75Q22.50 103.13 23 103.50L23 103.50Q23.38 104 23.75 104.44Q24.13 104.88 24.25 105.25L24.25 105.25Q24.50 105.75 24.63 106.06Q24.75 106.38 24.75 106.75L24.75 106.75Q24.75 106.88 24.69 106.94Q24.63 107 24.63 107.13L24.63 107.13Q24.50 107.25 24.38 107.25Q24.25 107.25 24.13 107.25L24.13 107.25L23.50 107.25Q23.38 107.25 23.31 107.25Q23.25 107.25 23.13 107.13L23.13 107.13Q23.13 107.13 23.06 107Q23 106.88 22.88 106.75L22.88 106.75Q22.75 106.25 22.56 105.88Q22.38 105.50 22 105L22 105Q21.63 104.63 21.19 104.31Q20.75 104 20.25 103.75L20.25 103.75Q19.63 103.50 18.94 103.38Q18.25 103.25 17.38 103.25L17.38 103.25Q16.13 103.25 15.13 103.56Q14.13 103.88 13.25 104.63L13.25 104.63Q12.50 105.25 12.06 106.38Q11.63 107.50 11.63 109.13L11.63 109.13Q11.63 110.38 11.63 111.63Q11.63 112.88 11.63 114.25L11.63 114.25Q11.63 115.75 12.06 116.88Q12.50 118 13.25 118.75L13.25 118.75Q14.13 119.38 15.13 119.75Q16.13 120.13 17.38 120.13L17.38 120.13Q18.25 120.13 19 119.94Q19.75 119.75 20.38 119.50L20.38 119.50Q21 119.13 21.56 118.63Q22.13 118.13 22.50 117.50L22.50 117.50Q22.88 116.88 23.06 116.06Q23.25 115.25 23.25 114.25L23.25 114.25L23.25 112.75L18.38 112.75Q18.13 112.75 18.06 112.69Q18 112.63 17.88 112.63L17.88 112.63Q17.75 112.50 17.75 112.38Q17.75 112.25 17.75 112.13L17.75 112.13L17.75 111.75Q17.75 111.50 17.75 111.44Q17.75 111.38 17.88 111.25L17.88 111.25Q18 111.13 18.06 111.13Q18.13 111.13 18.38 111.13L18.38 111.13L24.38 111.13Q24.50 111.13 24.63 111.13Q24.75 111.13 24.88 111.25L24.88 111.25Q24.88 111.38 24.94 111.44Q25 111.50 25 111.75L25 111.75L25 114.25Q25 115.38 24.81 116.31Q24.63 117.25 24.13 118.13L24.13 118.13Q23.63 119 23 119.69Q22.38 120.38 21.50 120.88L21.50 120.88Q20.63 121.25 19.63 121.50Q18.63 121.75 17.38 121.75L17.38 121.75Z"/></svg>