<svg xmlns="http://www.w3.org/2000/svg" xmlns:xlink="http://www.w3.org/1999/xlink" width="128" height="128"><path fill="#000000" d="M16.25 112.63L16.25 112.63Q14.63 112.63 13 111.94Q11.38 111.25 10.25 109.88L10.25 109.88L10.25 119.63L5.88 119.63L5.88 95.50L9.88 95.50L10 98.13Q11.13 96.63 12.81 95.81Q14.50 95 16.25 95L16.25 95Q19.63 95 21.88 97.50Q24.13 100 24.13 103.75L24.13 103.75Q24.13 107.63 21.88 110.13Q19.63 112.63 16.25 112.63L16.25 112.63ZM14.88 98.38L14.88 98.38Q12.88 98.38 11.50 99.81Q10.13 101.25 10.13 103.88L10.13 103.88Q10.13 106.38 11.50 107.81Q12.88 109.25 14.88 109.25L14.88 109.25Q16.88 109.25 18.25 107.81Q19.63 106.38 19.63 103.88L19.63 103.88Q19.63 101.25 18.25 99.81Q16.88 98.38 14.88 98.38L14.88 98.38ZM45 112.13L41 112.13L40.75 109.50Q39.75 111 38.06 111.81Q36.38 112.63 34.63 112.63L34.63 112.63Q31.25 112.63 29 110.13Q26.75 107.63 26.75 103.88L26.75 103.88Q26.75 100 29 97.50Q31.25 95 34.63 95L34.63 95Q36.38 95 38.06 95.81Q39.75 96.63 40.75 98.13L40.75 98.13L41 95.50L45 95.50L45 112.13ZM36 98.38L36 98.38Q34 98.38 32.63 99.81Q31.25 101.25 31.25 103.88L31.25 103.88Q31.25 106.38 32.63 107.81Q34 109.25 36 109.25L36 109.25Q38 109.25 39.38 107.81Q40.75 106.38 40.75 103.88L40.75 103.88Q40.75 101.25 39.38 99.81Q38 98.38 36 98.38L36 98.38ZM65.13 112.13L60.63 112.13L60.63 102.88Q60.63 100.50 59.81 99.56Q59 98.63 57.50 98.63L57.50 98.63Q55.88 98.63 54.50 99.88Q53.13 101.13 53 102.88L53 102.88L53 112.13L48.63 112.13L48.63 95.50L52.75 95.50L52.88 98.63Q53.75 97 55.44 96Q57.13 95 59 95L59 95Q62.38 95 63.75 97.06Q65.13 99.13 65.13 102.25L65.13 102.25L65.13 112.13ZM85.63 112.13L81.50 112.13L81.38 109.50Q80.38 111 78.69 111.81Q77 112.63 75.13 112.63L75.13 112.63Q71.75 112.63 69.56 110.13Q67.38 107.63 67.38 103.88L67.38 103.88Q67.38 100.13 69.56 97.56Q71.75 95 75.13 95L75.13 95Q76.88 95 78.44 95.69Q80 96.38 81.13 97.75L81.13 97.75L81.13 89L85.63 89L85.63 112.13ZM76.63 98.38L76.63 98.38Q74.63 98.38 73.25 99.81Q71.88 101.25 71.88 103.88L71.88 103.88Q71.88 106.38 73.25 107.81Q74.63 109.25 76.63 109.25L76.63 109.25Q78.50 109.25 79.88 107.81Q81.25 106.38 81.25 103.88L81.25 103.88Q81.25 101.25 79.88 99.81Q78.50 98.38 76.63 98.38ZM106.50 112.13L102.38 112.13L102.25 109.50Q101.25 111 99.50 111.81Q97.75 112.63 96 112.63L96 112.63Q92.63 112.63 90.44 110.13Q88.25 107.63 88.25 103.88L88.25 103.88Q88.25 100.13 90.44 97.56Q92.63 95 96 95L96 95Q97.75 95 99.50 95.81Q101.25 96.63 102.25 98.13L102.25 98.13L102.38 95.50L106.50 95.50L106.50 112.13ZM97.38 98.38L97.38 98.38Q95.50 98.38 94.06 99.81Q92.63 101.25 92.63 103.88L92.63 103.88Q92.63 106.38 94.06 107.81Q95.50 109.25 97.38 109.25L97.38 109.25Q99.38 109.25 100.75 107.81Q102.13 106.38 102.13 103.88L102.13 103.88Q102.13 101.25 100.75 99.81Q99.38 98.38 97.38 98.38ZM116.38 112.75L116.38 112.75Q114.50 112.63 112.81 112.13Q111.13 111.63 109.63 110.75L109.63 110.75L109.75 110.75L110.38 107.75Q111.38 108.38 112.88 109Q114.38 109.63 116.25 109.63L116.25 109.63Q117.63 109.63 118.44 109.13Q119.25 108.63 119.25 107.63L119.25 107.63Q119.25 106.75 118.38 106.31Q117.50 105.88 115.75 105.50L115.75 105.50Q112.63 104.88 111.44 103.38Q110.25 101.88 110.25 100.13L110.25 100.13Q110.25 98.13 111.81 96.56Q113.38 95 116.75 95L116.75 95Q118.75 95 120.38 95.63Q122 96.25 122.38 96.50L122.38 96.50L121.63 99.50Q120.63 98.75 119.44 98.44Q118.25 98.13 116.88 98L116.88 98L116.88 98Q115.50 98 114.81 98.44Q114.13 98.88 114.13 99.63L114.13 99.63Q114.13 100.50 114.94 100.94Q115.75 101.38 117.13 101.75L117.13 101.75Q120.38 102.38 121.81 103.81Q123.25 105.25 123.25 106.88L123.25 106.88Q123.25 109.63 121.44 111.19Q119.63 112.75 116.38 112.75L116.38 112.75ZM54 32.50L54 16L61.88 16L61.88 32.50L54 32.50ZM54 66.50L54 50L61.88 50L61.88 66.50L54 66.50ZM54 45.13L54 37.38L61.88 37.38L61.88 45.13L54 45.13ZM41.13 84.50L41.13 29.63L49.13 29.63L49.13 84.50L41.13 84.50ZM66.50 80.13L66.50 63.63L74.38 63.63L74.38 80.13L66.50 80.13ZM66.50 46.13L66.50 29.63L74.38 29.63L74.38 46.13L66.50 46.13ZM66.50 58.75L66.50 51L74.38 51L74.38 58.75L66.50 58.75ZM79 66.63L79 11.75L86.88 11.75L86.88 66.63L79 66.63Z"/></svg>