<svg xmlns="http://www.w3.org/2000/svg" xmlns:xlink="http://www.w3.org/1999/xlink" width="128" height="128"><path fill="#000000" d="M48.75 40.63L48.75 15.13L61 15.13L61 40.63L48.75 40.63ZM48.75 92.88L48.75 67.38L61 67.38L61 92.88L48.75 92.88ZM48.75 60L48.75 48L61 48L61 60L48.75 60ZM29 120.63L29 36.13L41.25 36.13L41.25 120.63L29 120.63ZM68 113.88L68 88.38L80.25 88.38L80.25 113.88L68 113.88ZM68 61.50L68 36.13L80.25 36.13L80.25 61.50L68 61.50ZM68 81L68 69L80.25 69L80.25 81L68 81ZM87.25 93.13L87.25 8.50L99.50 8.50L99.50 93.13L87.25 93.13Z"/></svg>