<svg xmlns="http://www.w3.org/2000/svg" xmlns:xlink="http://www.w3.org/1999/xlink" width="128" height="128"><path fill="#ffffff" d="M20.63 85.38L20.63 85.38Q23 82.50 23.31 79.06Q23.63 75.63 21.75 70L21.75 70Q20.50 66.50 19.25 63.69Q18 60.88 19.50 58.75L19.50 58.75Q21 56.38 23 58Q25 59.63 22.25 62.75L22.25 62.75L23 63.38Q26.25 63.75 27.50 60.56Q28.75 57.38 26.25 56.13L26.25 56.13Q19.75 52.63 15.31 57.69Q10.88 62.75 13.38 70.38L13.38 70.38Q14.38 73.50 15.38 76.75Q16.38 80 15.13 82.75L15.13 82.75Q14.13 85.13 12.38 86.38Q10.63 87.63 9.25 87.75L9.25 87.75Q6.38 87.88 7.75 83.25Q9.13 78.63 12.38 77L12.38 77Q12.63 76.88 12.88 76.63Q13.13 76.38 12.75 75.88L12.75 75.88Q8.75 75.50 6.25 77.06Q3.75 78.63 2.38 81.25L2.38 81.25Q-1.63 88.88 6.44 90.81Q14.50 92.75 20.63 85.38L20.63 85.38ZM115.38 55.63L115.38 55.63Q116.25 58 117.19 60.19Q118.13 62.38 117.38 64.50L117.38 64.50Q116.63 66.13 115.75 66.94Q114.88 67.75 113.88 67.88L113.88 67.88Q112.50 68.13 112.88 65Q113.25 61.88 115.75 60.63L115.75 60.63Q115.88 60.50 116.13 60Q116.38 59.50 116 59.25L116 59.25Q113 59 111.19 60.31Q109.38 61.63 108.38 63.50L108.38 63.50Q105.75 69.25 111.88 70.25Q118 71.25 122.38 65.75L122.38 65.75Q124.13 63.50 124.19 61Q124.25 58.50 122.50 54.50L122.50 54.50Q121.50 52 120.44 50Q119.38 48 120.38 46.38L120.38 46.38Q121.38 44.75 123 45.81Q124.63 46.88 122.63 49.25L122.63 49.25L123.25 49.50Q125.75 49.63 126.50 47.31Q127.25 45 125.38 44.13L125.38 44.13Q120.38 42 116.75 46.13Q113.13 50.25 115.38 55.63L115.38 55.63ZM72.75 47.63L72.75 47.63Q71 46.25 67.19 48.13Q63.38 50 62 53.50L62 53.50Q60.25 57.88 57.81 63.31Q55.38 68.75 52.88 71.50L52.88 71.50Q50.13 74.50 49.56 73.19Q49 71.88 49.25 70.13L49.25 70.13Q49.88 66.13 52.94 58.88Q56 51.63 58.13 49L58.13 49Q57.38 47.88 53.19 48.69Q49 49.50 45.38 55.13L45.38 55.13Q44.13 57.25 41.25 63.19Q38.38 69.13 35 74.63L35 74.63Q34.25 75.75 33.63 74.94Q33 74.13 33.75 71.38L33.75 71.38Q34.50 68.13 36.75 60.50Q39 52.88 42.13 45.88L42.13 45.88Q50.25 44.25 58.38 43.25Q66.50 42.25 73.13 42.25L73.13 42.25Q74 42 74.31 41.44Q74.63 40.88 73.13 40.75L73.13 40.75Q67.50 40.63 59.50 41.19Q51.50 41.75 43.63 42.75L43.63 42.75Q45.13 39.75 46.75 37.44Q48.38 35.13 50 34.13L50 34.13Q48.25 33 45.13 33.63Q42 34.25 39.88 37.25L39.88 37.25Q39 38.63 38.13 40.25Q37.25 41.88 36.38 43.50L36.38 43.50Q30.50 44.63 25.75 45.69Q21 46.75 18.50 47.63L18.50 47.63Q15.88 48.63 15.88 50.81Q15.88 53 17.50 52.50L17.50 52.50Q20.88 51.13 25.06 49.94Q29.25 48.75 33.63 47.75L33.63 47.75Q31.13 54.75 28.94 62.13Q26.75 69.50 26.25 73L26.25 73Q24.75 81.38 28.38 82.19Q32 83 34.50 79.75L34.50 79.75Q35.88 77.88 37.88 74.25L37.88 74.25Q39.88 70.63 41.75 66.81Q43.63 63 45.13 59.88L45.13 59.88Q46.63 56.88 47 56.13L47 56.13Q47.25 55.75 47.50 55.88Q47.75 56 47.63 56.38L47.63 56.38Q41.13 69.25 41.31 74.50Q41.50 79.75 46.63 78.63L46.63 78.63Q49 78.13 52.25 75Q55.50 71.88 56.63 69.75L56.63 69.75Q56.88 69.25 57.19 69.25Q57.50 69.25 57.38 69.50L57.38 69.50Q53.38 80 48.63 87.94Q43.88 95.88 40.50 98.50L40.50 98.50Q37.25 100.88 37.06 96.56Q36.88 92.25 48 84.75L48 84.75Q49.63 83.63 49.13 82.50Q48.63 81.38 46.75 81.88L46.75 81.88L46.75 81.88Q43.88 82.38 38.63 83.75L38.63 83.75Q33.50 85.25 27.75 87.31Q22 89.38 16.50 91.75L16.50 91.75Q11 94.25 7.38 96.75L7.38 96.75Q6.88 97.13 6.44 97.56Q6 98 6 98.75L6 98.75Q6 99.25 6.63 99.19Q7.25 99.13 7.63 98.88L7.63 98.88Q17 93.25 25.13 90.50Q33.25 87.75 42 86L42 86Q42.13 86 42.19 86Q42.25 86 42.25 86L42.25 86Q42.38 86 42.44 86Q42.50 86 42.63 86L42.63 86Q43 85.88 43 86Q43 86.13 42.75 86.38L42.75 86.38Q42.13 86.63 41.63 86.94Q41.13 87.25 40.88 87.25L40.88 87.25Q35 89.63 31.81 93.81Q28.63 98 29.88 100.63L29.88 100.63Q31 102.88 35.50 102.44Q40 102 42.75 100.63L42.75 100.63Q49.50 96.88 54.44 89.88Q59.38 82.88 62.75 72.88L62.75 72.88Q65.75 64.13 68.81 56Q71.88 47.88 72.75 47.63L72.75 47.63ZM125 74.63L125 74.63Q119.50 73.88 111.38 74L111.38 74Q103.25 74 94.69 74.69Q86.13 75.38 78.13 76.50L78.13 76.50Q70.13 77.50 64.88 79L64.88 79Q61.75 79.75 62.06 80.94Q62.38 82.13 64 81.88L64 81.88L65 81.63Q69.25 80.75 76.13 80L76.13 80Q83.13 79.38 90.94 79.06Q98.75 78.75 106.50 79.13L106.50 79.13Q114.38 79.38 120.38 80.50L120.38 80.50Q121.88 80.75 124.63 77.81Q127.38 74.88 125 74.63L125 74.63ZM76.75 72.88L76.75 72.88Q79.88 71.38 83.94 63.94Q88 56.50 91 51.25L91 51.25Q91.13 50.88 91.38 51.06Q91.63 51.25 91.50 51.50L91.50 51.50Q83.88 64.63 85.25 67.75Q86.63 70.88 89.63 70.63L89.63 70.63Q93.63 70.38 96.88 66.31Q100.13 62.25 101 61L101 61Q101.38 60.50 101.50 60.75Q101.63 61 101.50 61.38L101.50 61.38Q101.25 62 100.69 63Q100.13 64 99.50 65.50L99.50 65.50Q98.50 67.50 99.13 68.44Q99.75 69.38 100.63 69.75L100.63 69.75Q101.88 70.25 104.38 69.75Q106.88 69.25 107.50 67.25L107.50 67.25Q105.75 67.13 106.50 63.75L106.50 63.75Q107.38 60.38 109.06 56.25Q110.75 52.13 112.63 48.50L112.63 48.50Q114.50 44.88 114.88 44.50L114.88 44.50Q112.63 43.13 109.63 44.38Q106.63 45.63 105 48.75L105 48.75Q101.63 55.50 98.81 60.31Q96 65.13 94.25 65.25L94.25 65.25Q92.50 65.38 93.13 62.13L93.13 62.13Q93.75 59 95.38 55.19Q97 51.38 98.88 48L98.88 48Q100.63 44.75 101.25 44.50L101.25 44.50Q100.50 43.38 96.75 44.19Q93 45 90.38 49.13L90.38 49.13Q89.38 50.63 85.13 58.06Q80.88 65.50 79.38 67.13L79.38 67.13Q76.88 70.13 76.44 68.44Q76 66.75 76.75 63.75L76.75 63.75Q77.13 62.13 77.50 60.81Q77.88 59.50 78.38 58.25L78.38 58.25Q80 54.75 81.63 53.19Q83.25 51.63 84.38 50.38L84.38 50.38Q91.75 42.13 95.50 35.94Q99.25 29.75 97.63 27.13L97.63 27.13Q96.13 24.75 92.06 25.88Q88 27 84.75 31.75L84.75 31.75Q81.88 36.13 79.13 41.13L79.13 41.13Q76.38 46.13 74.25 50.94Q72.13 55.75 70.63 59.88L70.63 59.88Q69.25 64.13 68.88 66.88L68.88 66.88Q68.13 72.38 71.13 73.31Q74.13 74.25 76.75 72.88L76.75 72.88ZM81 51.38L81 51.38Q81.25 50.88 81.50 50.50Q81.75 50.13 82.13 49.13L82.13 49.13L82.13 49.13Q84.75 43.25 87.75 37.75Q90.75 32.25 93.13 29.38L93.13 29.38Q94.50 27.88 95.44 29.94Q96.38 32 92.88 37.38L92.88 37.38Q90.63 40.75 88.31 43.69Q86 46.63 83.38 49.25L83.38 49.25L83.38 49.25Q82.63 50 82.13 50.63Q81.63 51.25 81.38 51.50L81.38 51.50Q81.13 51.88 81 51.81Q80.88 51.75 81 51.38L81 51.38Z"/></svg>